<svg xmlns="http://www.w3.org/2000/svg" xmlns:xlink="http://www.w3.org/1999/xlink" viewBox="0 0 100 100"><style>.st8{display:inline}.st16{fill:#fff}</style><g id="Layer_1"><defs><circle id="SVGID_1_" cx="161.5" cy="-1379.5" r="21.5"/></defs><clipPath id="SVGID_2_"><use xlink:href="#SVGID_1_" overflow="visible"/></clipPath><g clip-path="url(#SVGID_2_)"><defs><path id="SVGID_3_" d="M-882-4703H983v9506H-882z"/></defs><clipPath id="SVGID_4_"><use xlink:href="#SVGID_3_" overflow="visible"/></clipPath><path clip-path="url(#SVGID_4_)" fill="#f26c4f" d="M135-1406h53v53h-53z"/></g><defs><path id="SVGID_5_" d="M161.5-1390c1.4 0 2.5 1.1 2.5 2.5v16c0 1.4-1.1 2.5-2.5 2.5s-2.5-1.1-2.5-2.5v-16c0-1.4 1.1-2.5 2.5-2.5z"/></defs><clipPath id="SVGID_6_"><use xlink:href="#SVGID_5_" overflow="visible"/></clipPath><g clip-path="url(#SVGID_6_)"><defs><path id="SVGID_7_" d="M-882-4703H983v9506H-882z"/></defs><clipPath id="SVGID_8_"><use xlink:href="#SVGID_7_" overflow="visible"/></clipPath><path clip-path="url(#SVGID_8_)" fill="#fff" d="M154-1395h15v31h-15z"/></g><g><defs><path id="SVGID_9_" d="M172-1379.5c0 1.4-1.1 2.5-2.5 2.5h-16c-1.4 0-2.5-1.1-2.5-2.5s1.1-2.5 2.5-2.5h16c1.4 0 2.5 1.1 2.5 2.5z"/></defs><clipPath id="SVGID_10_"><use xlink:href="#SVGID_9_" overflow="visible"/></clipPath><g clip-path="url(#SVGID_10_)"><defs><path id="SVGID_11_" d="M-882-4703H983v9506H-882z"/></defs><clipPath id="SVGID_12_"><use xlink:href="#SVGID_11_" overflow="visible"/></clipPath><path clip-path="url(#SVGID_12_)" fill="#fff" d="M146-1387h31v15h-31z"/></g></g><g><path d="M50 78c-15.5 0-28-12.5-28-28s12.5-28 28-28 28 12.5 28 28-12.5 28-28 28zm-8-28c-.8-1.1-2.4-1.3-3.5-.5s-1.3 2.4-.5 3.5l7 9.5c1.1 1.4 3.3 1.3 4.2-.2l13-22c.7-1.2.3-2.7-.9-3.4s-2.7-.3-3.4.9L46.8 56.5 42 50z" fill="#93d251"/></g></g></svg>