<svg xmlns="http://www.w3.org/2000/svg" viewBox="0 0 60 60"><path fill="#ffffff" d="M53.1 30.3c0-12.5-10.2-22.6-22.9-22.6-1.3 0-2.6.1-3.9.3-2-1.3-4.5-2-7.1-2C11.9 6 6 11.9 6 19.1c0 2.4.7 4.7 1.8 6.6-.3 1.5-.5 3-.5 4.5 0 12.5 10.2 22.6 22.9 22.6 1.4 0 2.8-.1 4.2-.4 1.9 1 4 1.6 6.3 1.6C48.1 54 54 48.1 54 40.9c0-2.1-.5-4.1-1.4-5.8.4-1.6.5-3.2.5-4.8zM41.8 41c-1.1 1.5-2.6 2.6-4.7 3.5-2 .8-4.4 1.2-7.2 1.2-3.3 0-6-.6-8.2-1.7-1.5-.8-2.8-1.9-3.8-3.3s-1.5-2.8-1.5-4.1c0-.8.3-1.5 1-2.1.6-.6 1.4-.9 2.4-.9.8 0 1.5.2 2 .7.5.4 1 1.1 1.3 1.9.4.9.8 1.7 1.3 2.3.4.6 1.1 1.1 1.9 1.5s2 .6 3.3.6c1.9 0 3.4-.4 4.6-1.2 1.1-.8 1.7-1.7 1.7-2.8 0-.9-.3-1.6-.9-2.1-.6-.6-1.4-1-2.4-1.3s-2.5-.7-4.2-1c-2.4-.5-4.4-1.1-6-1.8-1.6-.7-3-1.6-3.9-2.8-1-1.2-1.5-2.7-1.5-4.5 0-1.7.5-3.2 1.6-4.6 1-1.3 2.5-2.3 4.4-3 1.9-.7 4.2-1 6.7-1 2 0 3.8.2 5.3.7s2.8 1.1 3.8 1.9c1 .8 1.8 1.6 2.2 2.5.5.9.7 1.7.7 2.6 0 .8-.3 1.5-.9 2.2-.6.6-1.4 1-2.4 1-.8 0-1.5-.2-2-.6-.4-.4-.9-1-1.4-1.8-.6-1.1-1.3-1.9-2.1-2.5s-2.1-.9-3.8-.9c-1.6 0-3 .3-4 1-1 .6-1.4 1.3-1.4 2.2 0 .5.1.9.5 1.3.3.4.8.7 1.4 1s1.2.5 1.8.7c.6.2 1.7.4 3.2.8 1.9.4 3.6.8 5.1 1.3s2.8 1.1 3.9 1.8 2 1.6 2.6 2.7.9 2.4.9 4c.3 1.4-.2 3.1-1.3 4.6z"/></svg>