<svg xmlns="http://www.w3.org/2000/svg" viewBox="0 0 60 60"><path fill="#ffffff" d="M25.913 27.84l5.88-1.968 1.904 5.69-5.88 1.968z"/><path fill="#ffffff" d="M24 9.8C8.8 14.4 5.3 20.9 9.8 36 14.4 51.2 20.9 54.7 36 50.2 51.2 45.6 54.7 39.1 50.2 24 45.6 8.8 39.1 5.3 24 9.8zm18.5 24l-2.9 1 1 3c.4 1.2-.2 2.5-1.4 2.9-.3.1-.5.1-.8.1-.9 0-1.8-.6-2.1-1.6l-1-2.9-5.9 2 1 2.9c.4 1.2-.2 2.5-1.4 2.9-.3.1-.5.1-.8.1-.9 0-1.8-.6-2.1-1.6l-1-3-2.9 1c-.3.1-.5.1-.8.1-.9 0-1.8-.6-2.1-1.6-.4-1.2.2-2.5 1.4-2.9l2.9-1-1.9-5.7-2.9 1c-.3.1-.5.1-.8.1-.9 0-1.8-.6-2.1-1.6-.4-1.2.2-2.5 1.4-2.9l2.9-1-1-2.9c-.4-1.2.2-2.5 1.4-2.9 1.2-.4 2.5.2 2.9 1.4l1 2.9 5.9-2-1-2.9c-.4-1.2.2-2.5 1.4-2.9 1.2-.4 2.5.2 2.9 1.4l1 3 2.9-1c1.2-.4 2.5.2 2.9 1.4.4 1.2-.2 2.5-1.4 2.9l-2.9 1 1.9 5.7 2.9-1c1.2-.4 2.5.2 2.9 1.4.5 1.5-.2 2.8-1.4 3.2z"/></svg>