<svg xmlns="http://www.w3.org/2000/svg" viewBox="0 0 60 60"><path fill="#D53960" d="M30 6C16.8 6 6 17 6 30.6 6 41.5 12.9 50.7 22.4 54c1.2.2 1.6-.5 1.6-1.2v-4.2c-6.7 1.5-8.1-3.3-8.1-3.3-1.1-2.8-2.7-3.6-2.7-3.6-2.2-1.5.2-1.5.2-1.5 2.4.2 3.7 2.5 3.7 2.5 2.1 3.8 5.6 2.7 7 2 .2-1.6.8-2.7 1.5-3.3-5.3-.6-10.9-2.7-10.9-12.2 0-2.7.9-4.9 2.5-6.6-.2-.6-1.1-3.1.2-6.5 0 0 2-.7 6.6 2.5 1.9-.5 4-.8 6-.8s4.1.3 6 .8c4.6-3.2 6.6-2.5 6.6-2.5 1.3 3.4.5 5.9.2 6.5 1.5 1.7 2.5 3.9 2.5 6.6 0 9.5-5.6 11.5-11 12.1.9.8 1.6 2.3 1.6 4.6v6.8c0 .7.4 1.4 1.7 1.2C47.2 50.7 54 41.5 54 30.6 54 17 43.3 6 30 6z"/></svg>