<?xml version="1.0" encoding="utf-8"?>
<svg version="1.1" xmlns="http://www.w3.org/2000/svg" xmlns:xlink="http://www.w3.org/1999/xlink" x="0px" y="0px" viewBox="0 0 1600 1200" xml:space="preserve">
<style type="text/css">
  .st0{fill:#40B1E5;}
  .st1{fill:#462C6B;}
</style>
  <defs>
    <pattern id="waves" x="0" y="0" width="1400" height="350" patternUnits="userSpaceOnUse">
      <path class="st0" d="M1283.3,4.3c-37.5,14.8-79.2,14.8-116.7,0c-37.5,14.8-79.2,14.8-116.7,0c-37.5,14.8-79.2,14.8-116.7,0
        c-37.5,14.8-79.2,14.8-116.7,0c-37.5,14.8-79.2,14.8-116.7,0c-37.5,14.8-79.2,14.8-116.7,0c-37.5,14.8-79.2,14.8-116.7,0
        c-37.5,14.8-79.2,14.8-116.7,0c-37.5,14.8-79.2,14.8-116.7,0c-37.5,14.8-79.2,14.8-116.7,0C78.8,19.1,37.1,19.1-0.4,4.3v130.6h1400
        V4.3C1362.5,19.1,1320.8,19.1,1283.3,4.3z"/>
      <path class="st1" d="M44.4,17.3c-0.1,0-0.1,0-0.2,0c-11.9-1-23.6-3.4-34.9-7C8,9.9,7.3,8.5,7.7,7.2s1.8-2,3.1-1.6
        c11,3.5,22.4,5.8,33.8,6.8c1.4,0.1,2.4,1.3,2.3,2.7C46.8,16.3,45.7,17.3,44.4,17.3z"/>
      <path class="st1" d="M1108.3,18c-19.8,0-39.5-3.7-58.3-11c-37.7,14.6-79,14.6-116.7,0c-37.7,14.6-79,14.6-116.7,0
        c-37.7,14.6-79,14.6-116.7,0c-37.7,14.6-79,14.6-116.7,0c-37.7,14.6-79,14.6-116.7,0c-37.7,14.6-79,14.6-116.7,0
        c-37.7,14.6-79,14.6-116.7,0c-37.7,14.6-79,14.6-116.7,0c-15.3,6-31.4,9.5-47.9,10.6c-1.4,0.1-2.6-1-2.7-2.3s1-2.6,2.3-2.7
        C84.3,11.5,100.2,8,115.4,2c0.6-0.2,1.2-0.2,1.8,0c37,14.7,77.8,14.7,114.8,0c0.6-0.2,1.2-0.2,1.8,0c37,14.7,77.8,14.7,114.8,0
        c0.6-0.2,1.2-0.2,1.8,0c37,14.7,77.8,14.7,114.8,0c0.6-0.2,1.2-0.2,1.8,0c37,14.7,77.8,14.7,114.8,0c0.6-0.2,1.2-0.2,1.8,0
        c37,14.7,77.8,14.7,114.8,0c0.6-0.2,1.2-0.2,1.8,0c37,14.7,77.8,14.7,114.8,0c0.6-0.2,1.3-0.2,1.8,0c37,14.7,77.8,14.7,114.8,0
        c0.6-0.2,1.3-0.2,1.8,0c37,14.7,77.8,14.7,114.8,0c0.6-0.2,1.3-0.2,1.8,0c37,14.7,77.8,14.7,114.8,0c0.6-0.2,1.3-0.2,1.8,0
        c7.5,3,15.2,5.4,23,7.1c1.3,0.3,2.2,1.6,1.9,3c-0.3,1.3-1.6,2.2-3,1.9c-7.8-1.8-15.4-4.1-22.9-7C1147.8,14.3,1128.1,18,1108.3,18z"
        />
      <path class="st1" d="M1225.1,17.9c-2.7,0-5.4-0.1-8.2-0.2c-1.4-0.1-2.4-1.2-2.4-2.6s1.2-2.4,2.6-2.4c22.4,1.1,44.3-2.5,65.2-10.8
        c0.6-0.2,1.3-0.2,1.8,0c31.1,12.3,66.1,14.3,98.4,5.5c1.3-0.4,2.7,0.4,3.1,1.8c0.4,1.3-0.4,2.7-1.8,3.1c-33,9-68.7,7.1-100.6-5.3
        C1264.6,14.2,1245.1,17.9,1225.1,17.9z"/>
    </pattern>
  </defs>
  <rect x="0" y="0" width="1600" height="135" stroke= "#333333" stroke-width="2" fill="url(#waves)" />
</svg>
