<svg xmlns="http://www.w3.org/2000/svg" viewBox="0 0 800 583" id="waste">
  <g fill="none" fill-rule="evenodd">
    <g transform="translate(242 118)">
      <g transform="matrix(1 0 0 -1 0 371.6)">
        <path fill="#D2D2D2" d="M316.699513,8.49999964 L316.699513,362.099985 C316.699513,366.794405 312.893933,370.599984 308.199513,370.599984 L8.49999964,370.599984 C3.80557947,370.599984 3.36223777e-14,366.794405 1.77635684e-15,362.099985 L0,8.49999964 C-5.74900664e-16,3.80557947 3.80557947,2.63870784e-15 8.49999964,1.77635684e-15 L308.199513,0 C312.893933,-8.62350996e-16 316.699513,3.80557947 316.699513,8.49999964 Z"/>
        <polygon fill="#A3A3A3" points="144.5 10.2 304.5 10.2 304.5 17.2 144.5 17.2"/>
        <polygon fill="#A3A3A3" points="144.5 20.4 304.5 20.4 304.5 27.4 144.5 27.4"/>
        <polygon fill="#A3A3A3" points="144.5 30.6 304.5 30.6 304.5 37.6 144.5 37.6"/>
        <polygon fill="#A3A3A3" points="11.919 351.9 304.3 351.9 304.3 357.9 11.919 357.9"/>
        <path fill="#FFF" d="M15.3187987,49.2999979 L301.380714,49.2999979 C303.258482,49.2999979 304.780714,50.8222297 304.780714,52.6999978 L304.780714,338.299986 C304.780714,340.177754 303.258482,341.699986 301.380714,341.699986 L15.3187987,341.699986 C13.4410307,341.699986 11.9187989,340.177754 11.9187989,338.299986 L11.9187989,52.6999978 C11.9187989,50.8222297 13.4410307,49.2999979 15.3187987,49.2999979 Z"/>
      </g>
      <path fill="#4C4C4C" fill-rule="nonzero" d="M45.6654429,355.322704 L38.6216426,355.322704 C37.9073817,355.322704 37.2007202,355.222151 36.5016704,355.021007 C35.1491344,354.603319 34.0777451,353.644128 33.2875046,352.143459 C32.5732417,350.782047 32.2161133,349.196296 32.2161133,347.38622 C32.2161133,345.638054 32.5352488,344.090981 33.1735281,342.74502 C33.872584,341.25985 34.8679896,340.246523 36.1597326,339.705036 C37.1627273,339.287342 38.1885223,339.078491 39.2371257,339.078473 L45.6198527,339.078473 L45.6198527,342.188076 L38.9863744,342.188076 C37.9073817,342.188092 37.1247365,342.783711 36.6384369,343.974943 C36.2585083,344.903195 36.0685501,346.117635 36.0685501,347.618285 C36.0685501,348.886887 36.3116979,349.962099 36.7980077,350.843922 C37.3602869,351.880459 38.1505356,352.398731 39.1687312,352.398723 L45.6654429,352.375502 L45.6654429,355.322704 M57.3965633,355.392298 L51.8344662,355.392298 C50.4819322,355.392298 49.3041678,354.804415 48.301171,353.628649 C47.3133709,352.437387 46.8194658,351.068236 46.8194658,349.521165 C46.8194658,347.834866 47.3589571,346.380623 48.4379457,345.158434 C49.5321188,343.920785 50.747874,343.301964 52.0852113,343.301956 L57.3737754,343.301956 L57.3737754,345.784994 L53.4985383,345.784994 C53.0122305,345.785006 52.5943193,345.831394 52.2447882,345.924233 C51.9104416,346.001592 51.5989116,346.164037 51.3101696,346.411555 C50.7782695,346.875688 50.5123277,347.502251 50.5123318,348.291242 L57.3509751,348.291242 L57.3509751,350.797494 L50.535132,350.797494 C50.5351259,351.168796 50.5731167,351.485943 50.6490983,351.74894 C50.7402848,351.996474 50.9150463,352.251739 51.1733969,352.514743 C51.4317455,352.762273 51.7356823,352.932457 52.0852113,353.025265 C52.449939,353.102631 52.8906525,353.14133 53.407364,353.14133 L57.3965633,353.14133 L57.3965633,355.392298 M70.3956832,355.32269 L67.2271117,355.32269 L67.2271117,347.409415 C67.2271015,347.208299 67.1815195,347.03039 67.0903472,346.875678 C66.9991525,346.70551 66.8699792,346.543068 66.7028131,346.388348 C66.3988702,346.12536 66.0493433,345.993859 65.6542302,345.993853 L62.554043,345.993853 L62.554043,355.32269 L59.3854716,355.32269 L59.3854716,343.301956 L65.4490651,343.301956 C66.5280455,343.301964 67.3106907,343.363843 67.7969965,343.487597 C68.5568373,343.673262 69.164721,344.083228 69.6206415,344.717518 C70.1373244,345.460119 70.3956729,346.272332 70.3956832,347.15415 L70.3956832,355.32269 M79.4960722,345.808202 L76.4186791,345.808202 L76.4186791,351.261614 C76.418677,351.756681 76.585837,352.166652 76.9201775,352.491537 C77.3000959,352.816424 77.8015942,352.978861 78.4246829,352.978861 L79.3592954,352.978861 L79.3592954,355.32269 L76.4186791,355.32269 C75.53725,355.32269 74.7849983,354.997787 74.161926,354.348042 C73.7971962,353.96127 73.5616478,353.535803 73.4552646,353.071679 C73.3488833,352.607569 73.2956978,352.058358 73.295706,351.424063 L73.295706,345.808202 L71.2897001,345.808202 L71.2897001,343.301956 L73.295706,343.301956 L73.295706,339.078463 L76.4186791,339.078463 L76.4186791,343.301956 L79.4960722,343.301956 L79.4960722,345.808202 M98.098251,347.177354 C98.0982285,350.33338 97.2395935,352.592099 95.5223522,353.953527 C94.1242158,355.051936 92.0878226,355.601155 89.4131644,355.601155 C86.4497479,355.601155 84.2613832,354.966869 82.8480664,353.69826 C81.2979769,352.30589 80.5229352,350.07038 80.5229352,346.991709 C80.5229352,344.469996 81.2143918,342.505226 82.5973233,341.097381 C84.1018144,339.565799 86.350964,338.799998 89.3447781,338.799986 C92.6425187,338.799998 94.9676458,339.534862 96.3201962,341.004555 C97.5055477,342.304102 98.0982285,344.361703 98.098251,347.177354 M94.0406429,347.084529 C94.0406307,345.491064 93.6683035,344.222466 92.9236696,343.278748 C92.0878226,342.226751 90.8492692,341.70075 89.2080013,341.700732 C87.5971188,341.70075 86.3813636,342.265427 85.5607338,343.39477 C84.8768582,344.338497 84.5349326,345.568414 84.5349367,347.084529 C84.5349326,348.832726 84.8084821,350.124531 85.3555748,350.959939 C86.1154115,352.120239 87.5211371,352.70039 89.5727353,352.700384 C91.3051774,352.70039 92.5209346,352.135714 93.220009,351.006351 C93.7670874,350.124531 94.0406307,348.817255 94.0406429,347.084529 M116.344947,350.28696 C116.344928,351.710267 115.881423,352.909245 114.954432,353.883914 C114.027388,354.858564 112.849632,355.345892 111.421127,355.345892 L100.137368,355.322672 L100.137368,352.39869 L109.437923,352.39869 C110.060987,352.398696 110.585282,352.251722 111.010809,351.957779 C111.497102,351.617429 111.740252,351.153307 111.740262,350.565421 C111.740252,349.188532 110.782845,348.500089 108.868034,348.500085 L104.172159,348.500085 C102.819627,348.500089 101.634265,348.074646 100.616072,347.22375 C99.5978764,346.372872 99.0887745,345.289927 99.0887745,343.974909 C99.0887745,342.520676 99.5826756,341.344909 100.57048,340.447599 C101.573477,339.534844 102.888016,339.078459 104.514091,339.078443 L115.29636,339.078443 L115.29636,341.863158 L105.790645,341.863158 C105.365126,341.863172 104.932004,342.048823 104.491301,342.420111 C104.065782,342.775941 103.853022,343.201386 103.853026,343.69644 C103.853022,344.253392 104.058179,344.725249 104.468507,345.112007 C104.894017,345.483311 105.403121,345.66896 105.995802,345.668952 L111.170373,345.668952 C112.781242,345.66896 114.042583,346.094401 114.954432,346.945283 C115.881423,347.780706 116.344928,348.89459 116.344947,350.28695"/>
    </g>
    <g id="waste-animejs-waste-pattern" fill-rule="nonzero" transform="translate(260 155)">
      <rect width="280" height="280" fill="#CCC"/>
      <path fill="#EEE" d="M55.8137085,0 L69.1862915,0 L0,69.1862915 L0,55.8137085 L55.8137085,0 Z M33.1862915,0 L0,33.1862915 L0,0 L33.1862915,0 Z M91.8137085,0 L105.186292,0 L0,105.186292 L0,91.8137085 L91.8137085,0 Z M127.813708,0 L141.186292,0 L0,141.186292 L0,127.813708 L127.813708,0 Z M163.813708,0 L177.186292,0 L0,177.186292 L0,163.813708 L163.813708,0 Z M199.813708,0 L213.186292,0 L0,213.186292 L0,199.813708 L199.813708,0 Z M235.813708,0 L249.186292,0 L0,249.186292 L0,235.813708 L235.813708,0 Z M271.813708,0 L280,0 L280,5.1862915 L5.1862915,280 L0,280 L0,271.813708 L271.813708,0 Z M280,27.8137085 L280,41.1862915 L41.1862915,280 L27.8137085,280 L280,27.8137085 Z M280,63.8137085 L280,77.1862915 L77.1862915,280 L63.8137085,280 L280,63.8137085 Z M280,99.8137085 L280,113.186292 L113.186292,280 L99.8137085,280 L280,99.8137085 Z M280,135.813708 L280,149.186292 L149.186292,280 L135.813708,280 L280,135.813708 Z M280,171.813708 L280,185.186292 L185.186292,280 L171.813708,280 L280,171.813708 Z M280,207.813708 L280,221.186292 L221.186292,280 L207.813708,280 L280,207.813708 Z M280,243.813708 L280,280 L243.813708,280 L280,243.813708 Z"/>
    </g>
    <text id="waste-animejs-waste-generic" fill="#B83131" font-size="46.4" font-weight="bold" class="sans-serif">
      <tspan x="316.229" y="228">WASTE</tspan>
    </text>
    <text id="waste-animejs-waste-tall" fill="#B83131" font-size="36.4" font-weight="bold" class="sans-serif">
      <tspan x="400.283" y="304">WASTE</tspan>
    </text>
    <text id="waste-animejs-waste-almost1" fill="#B83131" font-size="26.4" font-weight="bold" class="sans-serif">
      <tspan x="352.337" y="179">WASTE</tspan>
    </text>
    <text id="waste-animejs-waste-almost2" fill="#B83131" font-size="26.4" font-weight="bold" transform="rotate(90 522 295)" class="sans-serif">
      <tspan x="474.337" y="304">WASTE</tspan>
    </text>
    <g id="waste-animejs-app-small" transform="translate(260 330)">
      <rect width="105" height="105" fill="#F2D694" fill-rule="nonzero"/>
      <text fill="#4A4A4A" font-size="36.4" font-weight="bold" class="sans-serif">
        <tspan x="16.078" y="62">APP</tspan>
      </text>
    </g>
    <g id="waste-animejs-app-tall" transform="translate(260 174)">
      <rect width="133" height="261" fill="#86B8B1" fill-rule="nonzero"/>
      <text fill="#4A4A4A" font-size="36.4" font-weight="bold" class="sans-serif">
        <tspan x="29.078" y="140">APP</tspan>
      </text>
    </g>
    <g id="waste-animejs-app-almost" transform="translate(260 184)">
      <rect width="247" height="251" fill="#FA2A00" fill-rule="nonzero"/>
      <text fill="#FFF" font-size="36.4" font-weight="bold" class="sans-serif">
        <tspan x="86.078" y="135">APP</tspan>
      </text>
    </g>
    <g id="waste-animejs-app-large" transform="translate(260 310)">
      <rect width="227" height="125" fill="#3D1C00" fill-rule="nonzero"/>
      <text fill="#FFF" font-size="36.4" font-weight="bold" class="sans-serif">
        <tspan x="76.078" y="72">APP</tspan>
      </text>
    </g>
    <text fill="#9B9B9B" font-size="26.4" font-weight="bold" class="sans-serif">
      <tspan x="283.372" y="95">Compute resource</tspan>
    </text>
  </g>
</svg>
