<svg viewBox="0 0 1200 900" xmlns="http://www.w3.org/2000/svg"><g fill="none" fill-rule="evenodd"><g transform="translate(69.000000, 181.000000)"><path fill="#F3FFE7" d="M0 0h354v95H0zm354 0h354v95H354z"></path><path fill="#F3FFE7" d="M706 0h354v95H706z"></path><path fill="#AEE239" d="M0 0h348v95H0z"></path><path fill="#624518" d="M348 0h6v95h-6zm354 0h6v95h-6zm354 0h6v95h-6z"></path><path d="M8.698 122.09h4.638V149H8.462v-22.166h-.158l-6.294 4.02v-4.467l6.688-4.296zm16.819 6.728h11.601v3.68H25.517v-3.68zm2.864 14.9v-19.735h4.756v18.947q0 .959.296 1.465.296.506.782.69.486.183 1.077.183.447 0 .821-.065.375-.066.572-.118l.801 3.718q-.38.131-1.084.289-.703.158-1.714.184-1.787.052-3.22-.545-1.432-.598-2.266-1.86-.834-1.26-.821-3.153zm16.706-6.543V149h-4.756v-26.91h4.651v10.158h.237q.71-1.709 2.2-2.7 1.492-.993 3.804-.993 2.103 0 3.666.88 1.564.881 2.425 2.576.86 1.695.86 4.139V149h-4.756v-12.114q0-2.037-1.045-3.173-1.044-1.137-2.923-1.137-1.262 0-2.254.545-.992.546-1.55 1.57-.559 1.025-.559 2.484zM66.577 149H61.82v-20.182h4.612v3.364h.21q.552-1.748 1.9-2.7 1.346-.953 3.08-.953.394 0 .887.033t.821.099v4.375q-.302-.105-.952-.19-.65-.086-1.255-.086-1.3 0-2.332.558-1.032.559-1.623 1.544-.591.986-.591 2.273V149zm16.825.394q-3.036 0-5.236-1.268-2.201-1.268-3.384-3.6-1.182-2.332-1.182-5.499 0-3.114 1.189-5.472 1.189-2.359 3.33-3.68 2.142-1.32 5.033-1.32 1.866 0 3.528.598T89.623 131q1.281 1.249 2.017 3.173.736 1.925.736 4.58v1.458H75.833v-3.206h11.983q-.013-1.367-.59-2.437-.579-1.071-1.61-1.689-1.032-.617-2.398-.617-1.459 0-2.563.703-1.103.703-1.714 1.84-.611 1.136-.624 2.489v2.799q0 1.76.644 3.015.643 1.255 1.8 1.918 1.156.664 2.706.664 1.038 0 1.88-.296.84-.295 1.458-.873.617-.579.933-1.433l4.44.5q-.42 1.76-1.596 3.068-1.176 1.307-3.002 2.023-1.826.716-4.178.716zm17.613.013q-1.919 0-3.45-.69-1.53-.69-2.417-2.043-.887-1.353-.887-3.337 0-1.708.63-2.825.632-1.117 1.722-1.787 1.09-.67 2.464-1.018 1.373-.348 2.844-.506 1.774-.184 2.878-.335 1.104-.151 1.61-.473.505-.322.505-1.005v-.08q0-1.484-.88-2.298-.88-.815-2.536-.815-1.747 0-2.766.762-1.018.762-1.373 1.8l-4.44-.63q.525-1.84 1.734-3.082 1.208-1.241 2.956-1.865 1.747-.625 3.863-.625 1.458 0 2.904.342 1.445.342 2.64 1.123 1.196.782 1.925 2.122.73 1.34.73 3.35V149h-4.573v-2.772h-.157q-.434.84-1.216 1.57-.782.729-1.958 1.17-1.176.44-2.752.44zm1.235-3.495q1.432 0 2.483-.571 1.051-.572 1.623-1.518.571-.946.571-2.063v-2.378q-.223.184-.755.342-.532.157-1.19.276-.656.118-1.3.21l-1.117.158q-1.064.144-1.905.473-.84.328-1.327.913-.486.584-.486 1.504 0 1.314.959 1.984.96.67 2.444.67zm20.517 3.443q-2.378 0-4.257-1.222-1.88-1.222-2.97-3.548-1.09-2.325-1.09-5.65 0-3.363 1.11-5.682 1.11-2.32 3.002-3.509 1.892-1.189 4.218-1.189 1.774 0 2.917.598 1.143.598 1.813 1.432.67.835 1.038 1.57h.197v-10.064h4.77V149h-4.678v-3.18h-.289q-.368.736-1.064 1.557-.697.822-1.84 1.4-1.143.578-2.877.578zm1.327-3.903q1.51 0 2.575-.82 1.064-.822 1.616-2.294.552-1.471.552-3.429 0-1.958-.545-3.403t-1.603-2.247q-1.058-.801-2.595-.801-1.59 0-2.654.828-1.064.827-1.603 2.286-.539 1.458-.539 3.337 0 1.892.545 3.37.546 1.478 1.616 2.326 1.071.847 2.635.847zm14.696-.131h4.205l-.171 1.445q-.184 1.656-.65 3.37-.467 1.715-.98 3.16-.512 1.446-.827 2.274h-3.206q.184-.802.506-2.182t.624-3.1q.302-1.722.407-3.495l.092-1.472zm21.759-23.23h4.638V149h-4.875v-22.166h-.157l-6.294 4.02v-4.467l6.688-4.296zm41.586 9.08h-4.914q-.21-1.21-.776-2.15-.565-.939-1.405-1.596-.841-.657-1.912-.992-1.071-.335-2.306-.335-2.194 0-3.89 1.097-1.694 1.098-2.653 3.206-.96 2.11-.96 5.144 0 3.088.966 5.197t2.654 3.18q1.689 1.07 3.87 1.07 1.209 0 2.266-.321 1.058-.322 1.905-.953.848-.63 1.433-1.55.584-.92.808-2.103l4.914.027q-.276 1.918-1.19 3.6-.913 1.682-2.384 2.963-1.472 1.28-3.443 1.997-1.97.716-4.375.716-3.548 0-6.333-1.643-2.786-1.642-4.389-4.743-1.603-3.1-1.603-7.437 0-4.349 1.617-7.443 1.616-3.094 4.401-4.737 2.786-1.642 6.307-1.642 2.247 0 4.178.63 1.932.631 3.443 1.847 1.51 1.215 2.49 2.97.978 1.753 1.28 4zM210.3 149h-4.875v-26.91h10.091q3.1 0 5.21 1.157 2.109 1.156 3.193 3.173 1.084 2.017 1.084 4.58 0 2.588-1.091 4.598-1.09 2.01-3.22 3.16-2.128 1.15-5.242 1.15h-6.687V135.9h6.03q1.814 0 2.97-.63 1.156-.631 1.715-1.735.558-1.104.558-2.536t-.558-2.522q-.559-1.091-1.722-1.702-1.163-.61-2.989-.61H210.3V149zm34.707-9.736V122.09h4.875v17.58q0 2.89-1.36 5.085-1.36 2.194-3.817 3.423-2.457 1.228-5.742 1.228-3.298 0-5.755-1.228-2.457-1.229-3.81-3.423-1.354-2.194-1.354-5.085v-17.58h4.875v17.173q0 1.682.742 2.996.743 1.314 2.096 2.056 1.353.742 3.206.742t3.213-.742q1.36-.742 2.095-2.056.736-1.314.736-2.996z" fill="#000" fill-rule="nonzero"></path></g><g transform="translate(69.000000, 420.000000)"><path fill="#F3FFE7" d="M0 0h354v95H0zm354 0h354v95H354z"></path><path fill="#F3FFE7" d="M706 0h354v95H706z"></path><path fill="#AEE239" d="M0 0h174v95H0z"></path><path fill="#624518" d="M348 0h6v95h-6zm354 0h6v95h-6zm354 0h6v95h-6z"></path><path d="M20.839 149H2.39v-3.521l9.342-9.158q1.34-1.354 2.234-2.405.893-1.05 1.34-2.036.447-.986.447-2.103 0-1.274-.578-2.187-.578-.914-1.59-1.413-1.012-.5-2.3-.5-1.326 0-2.325.546-.999.545-1.544 1.544t-.545 2.378H2.234q0-2.562 1.17-4.454 1.168-1.892 3.225-2.93 2.056-1.038 4.723-1.038 2.707 0 4.757 1.012 2.05 1.011 3.186 2.772 1.136 1.76 1.136 4.02 0 1.512-.578 2.97-.578 1.459-2.03 3.232-1.452 1.774-4.066 4.297l-4.638 4.717v.184h11.72V149zm9.88-20.182h11.603v3.68H30.72v-3.68zm2.865 14.9v-19.735h4.756v18.947q0 .959.296 1.465.296.506.782.69.486.183 1.077.183.447 0 .821-.065.375-.066.572-.118l.801 3.718q-.38.131-1.084.289-.702.158-1.714.184-1.787.052-3.22-.545-1.431-.598-2.266-1.86-.834-1.26-.821-3.153zm16.707-6.543V149h-4.757v-26.91h4.651v10.158h.237q.71-1.709 2.2-2.7 1.492-.993 3.805-.993 2.102 0 3.665.88 1.564.881 2.425 2.576.86 1.695.86 4.139V149h-4.756v-12.114q0-2.037-1.045-3.173-1.044-1.137-2.923-1.137-1.262 0-2.254.545-.992.546-1.55 1.57-.558 1.025-.558 2.484zM71.78 149h-4.757v-20.182h4.612v3.364h.21q.552-1.748 1.9-2.7 1.346-.953 3.08-.953.394 0 .887.033t.821.099v4.375q-.302-.105-.952-.19-.65-.086-1.255-.086-1.3 0-2.332.558-1.032.559-1.623 1.544-.591.986-.591 2.273V149zm16.825.394q-3.035 0-5.236-1.268-2.201-1.268-3.384-3.6-1.182-2.332-1.182-5.499 0-3.114 1.189-5.472 1.19-2.359 3.33-3.68 2.142-1.32 5.033-1.32 1.866 0 3.528.598T94.826 131q1.281 1.249 2.017 3.173.736 1.925.736 4.58v1.458H81.037v-3.206h11.982q-.013-1.367-.59-2.437-.579-1.071-1.61-1.689-1.032-.617-2.398-.617-1.459 0-2.562.703-1.104.703-1.715 1.84-.611 1.136-.624 2.489v2.799q0 1.76.644 3.015.643 1.255 1.8 1.918 1.156.664 2.706.664 1.038 0 1.88-.296.84-.295 1.458-.873.617-.579.933-1.433l4.44.5q-.42 1.76-1.596 3.068-1.176 1.307-3.002 2.023-1.826.716-4.178.716zm17.613.013q-1.918 0-3.45-.69-1.53-.69-2.417-2.043-.887-1.353-.887-3.337 0-1.708.631-2.825.63-1.117 1.721-1.787 1.09-.67 2.464-1.018 1.373-.348 2.845-.506 1.773-.184 2.877-.335 1.104-.151 1.61-.473.505-.322.505-1.005v-.08q0-1.484-.88-2.298-.88-.815-2.536-.815-1.747 0-2.766.762-1.018.762-1.373 1.8l-4.44-.63q.525-1.84 1.734-3.082 1.209-1.241 2.956-1.865 1.748-.625 3.863-.625 1.458 0 2.904.342 1.445.342 2.64 1.123 1.196.782 1.926 2.122.729 1.34.729 3.35V149H112.3v-2.772h-.157q-.434.84-1.216 1.57-.781.729-1.957 1.17-1.176.44-2.753.44zm1.235-3.495q1.432 0 2.483-.571 1.051-.572 1.623-1.518.572-.946.572-2.063v-2.378q-.224.184-.756.342-.532.157-1.189.276-.657.118-1.3.21l-1.118.158q-1.064.144-1.905.473-.84.328-1.327.913-.486.584-.486 1.504 0 1.314.96 1.984.958.67 2.443.67zm20.517 3.443q-2.378 0-4.257-1.222-1.879-1.222-2.97-3.548-1.09-2.325-1.09-5.65 0-3.363 1.11-5.682 1.11-2.32 3.002-3.509 1.892-1.189 4.218-1.189 1.774 0 2.917.598 1.143.598 1.813 1.432.67.835 1.038 1.57h.197v-10.064h4.77V149h-4.678v-3.18h-.289q-.368.736-1.064 1.557-.696.822-1.84 1.4-1.143.578-2.877.578zm1.327-3.903q1.511 0 2.575-.82 1.065-.822 1.616-2.294.552-1.471.552-3.429 0-1.958-.545-3.403t-1.603-2.247q-1.058-.801-2.595-.801-1.59 0-2.654.828-1.064.827-1.603 2.286-.539 1.458-.539 3.337 0 1.892.545 3.37.546 1.478 1.617 2.326 1.07.847 2.634.847zm14.696-.131h4.205l-.17 1.445q-.185 1.656-.651 3.37-.467 1.715-.98 3.16-.512 1.446-.827 2.274h-3.206q.184-.802.506-2.182t.624-3.1q.302-1.722.407-3.495l.092-1.472zm21.759-23.23h4.638V149h-4.874v-22.166h-.158l-6.294 4.02v-4.467l6.688-4.296zm41.586 9.08h-4.914q-.21-1.21-.775-2.15-.565-.939-1.406-1.596-.841-.657-1.912-.992-1.07-.335-2.306-.335-2.194 0-3.89 1.097-1.694 1.098-2.653 3.206-.96 2.11-.96 5.144 0 3.088.966 5.197t2.654 3.18q1.689 1.07 3.87 1.07 1.209 0 2.266-.321 1.058-.322 1.906-.953.847-.63 1.432-1.55.584-.92.808-2.103l4.914.027q-.276 1.918-1.19 3.6-.912 1.682-2.384 2.963-1.472 1.28-3.443 1.997-1.97.716-4.375.716-3.547 0-6.333-1.643-2.785-1.642-4.388-4.743-1.603-3.1-1.603-7.437 0-4.349 1.616-7.443 1.616-3.094 4.401-4.737 2.786-1.642 6.307-1.642 2.247 0 4.178.63 1.932.631 3.443 1.847 1.51 1.215 2.49 2.97.979 1.753 1.28 4zM215.504 149h-4.875v-26.91h10.091q3.101 0 5.21 1.157 2.109 1.156 3.193 3.173 1.084 2.017 1.084 4.58 0 2.588-1.09 4.598-1.091 2.01-3.22 3.16-2.129 1.15-5.242 1.15h-6.688V135.9h6.03q1.814 0 2.97-.63 1.156-.631 1.715-1.735.558-1.104.558-2.536t-.558-2.522q-.559-1.091-1.722-1.702-1.162-.61-2.989-.61h-4.467V149zm34.707-9.736V122.09h4.875v17.58q0 2.89-1.36 5.085-1.36 2.194-3.817 3.423-2.457 1.228-5.742 1.228-3.298 0-5.755-1.228-2.457-1.229-3.81-3.423-1.353-2.194-1.353-5.085v-17.58h4.874v17.173q0 1.682.743 2.996.742 1.314 2.095 2.056 1.354.742 3.206.742 1.853 0 3.213-.742t2.095-2.056q.736-1.314.736-2.996z" fill="#000" fill-rule="nonzero"></path></g><g transform="translate(69.000000, 659.000000)"><path fill="#F3FFE7" d="M0 0h354v95H0zm354 0h354v95H354z"></path><path fill="#F3FFE7" d="M706 0h354v95H706z"></path><path fill="#AEE239" d="M0 0h43v95H0z"></path><path fill="#624518" d="M348 0h6v95h-6zm354 0h6v95h-6zm354 0h6v95h-6z"></path><path d="M11.957 149.368q-2.93 0-5.197-.986-2.266-.985-3.547-2.7-1.282-1.714-1.268-3.895-.014-1.695.735-3.114.75-1.42 2.03-2.372 1.281-.953 2.858-1.215v-.184q-2.076-.46-3.357-2.122-1.281-1.662-1.268-3.844-.013-2.076 1.156-3.705 1.17-1.63 3.206-2.569 2.037-.939 4.652-.939 2.588 0 4.618.94 2.03.939 3.206 2.568 1.176 1.63 1.176 3.705 0 2.182-1.294 3.844t-3.331 2.122v.184q1.577.262 2.845 1.215 1.268.953 2.023 2.372.756 1.419.756 3.114 0 2.18-1.288 3.895-1.288 1.715-3.541 2.7-2.253.986-5.17.986zm0-3.758q1.51 0 2.628-.519 1.116-.519 1.734-1.465.617-.946.63-2.181-.013-1.288-.663-2.28-.65-.992-1.774-1.557-1.123-.565-2.555-.565-1.446 0-2.576.565-1.13.565-1.78 1.557-.65.992-.637 2.28-.013 1.235.604 2.174.618.94 1.741 1.466 1.124.525 2.648.525zm0-12.259q1.235 0 2.187-.5.953-.498 1.505-1.392.552-.893.565-2.063-.013-1.156-.552-2.03-.539-.873-1.498-1.353-.96-.48-2.207-.48-1.275 0-2.24.48-.966.48-1.498 1.353-.533.874-.52 2.03-.013 1.17.533 2.057.545.886 1.51 1.392.966.506 2.215.506zm19.67-4.533h11.601v3.68H31.626v-3.68zm2.864 14.9v-19.735h4.756v18.947q0 .959.296 1.465.295.506.781.69.487.183 1.078.183.447 0 .821-.065.374-.066.572-.118l.801 3.718q-.381.131-1.084.289-.703.158-1.715.184-1.787.052-3.219-.545-1.432-.598-2.266-1.86-.835-1.26-.821-3.153zm16.706-6.543V149h-4.756v-26.91h4.651v10.158h.237q.71-1.709 2.2-2.7 1.492-.993 3.804-.993 2.102 0 3.666.88 1.564.881 2.424 2.576.86 1.695.86 4.139V149h-4.756v-12.114q0-2.037-1.044-3.173-1.045-1.137-2.924-1.137-1.26 0-2.253.545-.992.546-1.55 1.57-.559 1.025-.559 2.484zM72.687 149H67.93v-20.182h4.612v3.364h.21q.552-1.748 1.899-2.7 1.347-.953 3.08-.953.395 0 .888.033t.821.099v4.375q-.302-.105-.953-.19-.65-.086-1.254-.086-1.301 0-2.333.558-1.031.559-1.622 1.544-.592.986-.592 2.273V149zm16.824.394q-3.035 0-5.236-1.268-2.2-1.268-3.383-3.6-1.183-2.332-1.183-5.499 0-3.114 1.19-5.472 1.189-2.359 3.33-3.68 2.142-1.32 5.033-1.32 1.865 0 3.528.598 1.662.598 2.943 1.846 1.28 1.249 2.017 3.173.735 1.925.735 4.58v1.458H81.943v-3.206h11.983q-.013-1.367-.591-2.437-.578-1.071-1.61-1.689-1.031-.617-2.398-.617-1.458 0-2.562.703-1.103.703-1.714 1.84-.611 1.136-.625 2.489v2.799q0 1.76.644 3.015.644 1.255 1.8 1.918 1.157.664 2.707.664 1.038 0 1.879-.296.84-.295 1.458-.873.618-.579.933-1.433l4.441.5q-.42 1.76-1.596 3.068-1.176 1.307-3.002 2.023-1.827.716-4.179.716zm17.614.013q-1.919 0-3.45-.69-1.53-.69-2.417-2.043-.887-1.353-.887-3.337 0-1.708.63-2.825.631-1.117 1.722-1.787 1.09-.67 2.463-1.018 1.374-.348 2.845-.506 1.774-.184 2.878-.335 1.103-.151 1.61-.473.505-.322.505-1.005v-.08q0-1.484-.88-2.298-.88-.815-2.536-.815-1.748 0-2.766.762t-1.373 1.8l-4.441-.63q.525-1.84 1.734-3.082 1.21-1.241 2.957-1.865 1.747-.625 3.863-.625 1.458 0 2.903.342 1.446.342 2.641 1.123 1.196.782 1.925 2.122.73 1.34.73 3.35V149h-4.573v-2.772h-.158q-.433.84-1.215 1.57-.782.729-1.958 1.17-1.176.44-2.752.44zm1.235-3.495q1.432 0 2.483-.571 1.051-.572 1.623-1.518.571-.946.571-2.063v-2.378q-.223.184-.755.342-.532.157-1.19.276-.656.118-1.3.21l-1.117.158q-1.064.144-1.905.473-.841.328-1.327.913-.486.584-.486 1.504 0 1.314.959 1.984.959.67 2.444.67zm20.517 3.443q-2.379 0-4.258-1.222-1.878-1.222-2.969-3.548-1.09-2.325-1.09-5.65 0-3.363 1.11-5.682 1.11-2.32 3.002-3.509 1.892-1.189 4.218-1.189 1.774 0 2.917.598 1.143.598 1.813 1.432.67.835 1.038 1.57h.197v-10.064h4.77V149h-4.678v-3.18h-.29q-.367.736-1.063 1.557-.697.822-1.84 1.4-1.143.578-2.877.578zm1.327-3.903q1.51 0 2.575-.82 1.064-.822 1.616-2.294.552-1.471.552-3.429 0-1.958-.545-3.403-.546-1.445-1.603-2.247-1.058-.801-2.595-.801-1.59 0-2.654.828-1.065.827-1.603 2.286-.54 1.458-.54 3.337 0 1.892.546 3.37.545 1.478 1.616 2.326 1.071.847 2.635.847zm14.696-.131h4.204l-.17 1.445q-.184 1.656-.65 3.37-.467 1.715-.98 3.16-.512 1.446-.827 2.274h-3.206q.184-.802.506-2.182.321-1.38.624-3.1.302-1.722.407-3.495l.092-1.472zm21.759-23.23h4.638V149h-4.875v-22.166h-.158l-6.293 4.02v-4.467l6.688-4.296zm41.585 9.08h-4.914q-.21-1.21-.775-2.15-.565-.939-1.406-1.596-.84-.657-1.911-.992-1.071-.335-2.306-.335-2.195 0-3.89 1.097-1.695 1.098-2.654 3.206-.959 2.11-.959 5.144 0 3.088.966 5.197t2.654 3.18q1.688 1.07 3.87 1.07 1.208 0 2.266-.321 1.058-.322 1.905-.953.848-.63 1.432-1.55.585-.92.808-2.103l4.914.027q-.275 1.918-1.189 3.6-.913 1.682-2.384 2.963-1.472 1.28-3.443 1.997-1.97.716-4.375.716-3.548 0-6.333-1.643-2.786-1.642-4.389-4.743-1.603-3.1-1.603-7.437 0-4.349 1.616-7.443 1.616-3.094 4.402-4.737 2.785-1.642 6.307-1.642 2.247 0 4.178.63 1.931.631 3.442 1.847 1.511 1.215 2.49 2.97.98 1.753 1.281 4zM216.411 149h-4.875v-26.91h10.09q3.102 0 5.21 1.157 2.11 1.156 3.193 3.173 1.084 2.017 1.084 4.58 0 2.588-1.09 4.598t-3.22 3.16q-2.128 1.15-5.242 1.15h-6.688V135.9h6.031q1.813 0 2.97-.63 1.156-.631 1.714-1.735.559-1.104.559-2.536t-.559-2.522q-.558-1.091-1.721-1.702-1.163-.61-2.99-.61h-4.466V149zm34.707-9.736V122.09h4.874v17.58q0 2.89-1.36 5.085-1.36 2.194-3.816 3.423-2.457 1.228-5.742 1.228-3.298 0-5.755-1.228-2.457-1.229-3.81-3.423-1.354-2.194-1.354-5.085v-17.58h4.875v17.173q0 1.682.742 2.996.743 1.314 2.096 2.056 1.353.742 3.206.742 1.852 0 3.212-.742t2.096-2.056q.736-1.314.736-2.996z" fill="#000" fill-rule="nonzero"></path></g><path d="M203.29 112h-2.767V96.727h5.728q1.76 0 2.957.657 1.196.656 1.812 1.8.615 1.145.615 2.6 0 1.468-.62 2.61-.618 1.14-1.826 1.793-1.208.652-2.976.652h-3.795v-2.274h3.423q1.029 0 1.685-.358.656-.358.973-.984.317-.627.317-1.44 0-.812-.317-1.431-.317-.62-.977-.966-.66-.347-1.696-.347h-2.536V112zm20.74 0h-9.994V96.727h9.933v2.32h-7.166v4.146h6.652v2.32h-6.652v4.168h7.226V112zm5.532 0h-2.766V96.727h5.727q1.76 0 2.957.612 1.197.611 1.812 1.711t.615 2.562q0 1.469-.622 2.547-.623 1.077-1.831 1.663-1.208.585-2.968.585h-4.08v-2.297h3.707q1.029 0 1.685-.287.656-.287.973-.843.317-.555.317-1.368 0-.813-.32-1.39-.321-.579-.977-.88-.656-.303-1.693-.303h-2.536V112zm2.103-6.92h3.02l3.782 6.92h-3.088l-3.714-6.92zm8.793-8.353h2.766V112h-2.766V96.727zm19.419 7.637q0 2.468-.921 4.224-.921 1.756-2.506 2.689-1.585.932-3.59.932-2.007 0-3.591-.936-1.585-.936-2.506-2.692-.921-1.756-.921-4.217 0-2.469.92-4.225.922-1.756 2.507-2.688 1.584-.933 3.59-.933t3.591.933q1.585.932 2.506 2.688.92 1.756.92 4.225zm-2.782 0q0-1.738-.54-2.935-.541-1.197-1.496-1.812-.954-.615-2.2-.615-1.245 0-2.2.615-.954.615-1.495 1.812-.54 1.197-.54 2.935 0 1.737.54 2.934t1.495 1.812q.955.615 2.2.615 1.246 0 2.2-.615.955-.615 1.495-1.812.541-1.197.541-2.934zM267.677 112h-5.175V96.727h5.28q2.274 0 3.911.914 1.637.913 2.517 2.621.88 1.708.88 4.087 0 2.386-.884 4.101-.884 1.715-2.543 2.633-1.66.917-3.986.917zm-2.409-12.879v10.485h2.275q1.596 0 2.662-.585 1.067-.586 1.604-1.753.536-1.167.536-2.92 0-1.752-.536-2.911-.537-1.16-1.585-1.738-1.048-.578-2.599-.578h-2.357zm21.09-2.394h2.632V112h-2.766V99.42h-.09l-3.572 2.281v-2.535l3.796-2.439zM554.313 112h-2.767V96.727h5.728q1.76 0 2.957.657 1.196.656 1.812 1.8.615 1.145.615 2.6 0 1.468-.62 2.61-.618 1.14-1.826 1.793-1.208.652-2.976.652h-3.795v-2.274h3.423q1.029 0 1.685-.358.656-.358.973-.984.317-.627.317-1.44 0-.812-.317-1.431-.317-.62-.977-.966-.66-.347-1.696-.347h-2.536V112zm20.74 0h-9.994V96.727h9.933v2.32h-7.166v4.146h6.652v2.32h-6.652v4.168h7.226V112zm5.532 0h-2.766V96.727h5.727q1.76 0 2.957.612 1.197.611 1.812 1.711t.615 2.562q0 1.469-.622 2.547-.623 1.077-1.831 1.663-1.208.585-2.968.585h-4.08v-2.297h3.707q1.029 0 1.685-.287.656-.287.973-.843.317-.555.317-1.368 0-.813-.32-1.39-.321-.579-.977-.88-.656-.303-1.693-.303h-2.536V112zm2.103-6.92h3.02l3.782 6.92h-3.088l-3.714-6.92zm8.793-8.353h2.766V112h-2.766V96.727zm19.419 7.637q0 2.468-.921 4.224-.921 1.756-2.506 2.689-1.585.932-3.59.932-2.007 0-3.591-.936-1.585-.936-2.506-2.692-.921-1.756-.921-4.217 0-2.469.92-4.225.922-1.756 2.507-2.688 1.584-.933 3.59-.933t3.591.933q1.585.932 2.506 2.688.92 1.756.92 4.225zm-2.782 0q0-1.738-.54-2.935-.541-1.197-1.496-1.812-.954-.615-2.2-.615-1.245 0-2.2.615-.954.615-1.495 1.812-.54 1.197-.54 2.935 0 1.737.54 2.934t1.495 1.812q.955.615 2.2.615 1.246 0 2.2-.615.955-.615 1.495-1.812.541-1.197.541-2.934zM618.7 112h-5.175V96.727h5.28q2.274 0 3.911.914 1.637.913 2.517 2.621.88 1.708.88 4.087 0 2.386-.884 4.101-.884 1.715-2.543 2.633-1.66.917-3.986.917zm-2.409-12.879v10.485h2.275q1.596 0 2.662-.585 1.067-.586 1.604-1.753.536-1.167.536-2.92 0-1.752-.536-2.911-.537-1.16-1.585-1.738-1.048-.578-2.599-.578h-2.357zM644.271 112h-10.47v-1.999l5.303-5.197q.76-.768 1.267-1.365.507-.597.761-1.156.254-.56.254-1.193 0-.724-.329-1.242-.328-.518-.902-.801-.574-.284-1.305-.284-.753 0-1.32.31-.567.31-.876.876-.31.567-.31 1.35h-2.632q0-1.455.664-2.528.663-1.074 1.83-1.663 1.167-.59 2.681-.59 1.537 0 2.7.575 1.163.574 1.808 1.573.645 1 .645 2.282 0 .858-.328 1.686-.328.827-1.152 1.834-.824 1.007-2.308 2.439l-2.632 2.677v.104h6.652V112zm263.232 0h-2.767V96.727h5.728q1.76 0 2.957.657 1.196.656 1.812 1.8.615 1.145.615 2.6 0 1.468-.62 2.61-.618 1.14-1.826 1.793-1.208.652-2.976.652h-3.795v-2.274h3.423q1.029 0 1.685-.358.656-.358.973-.984.317-.627.317-1.44 0-.812-.317-1.431-.317-.62-.977-.966-.66-.347-1.696-.347h-2.536V112zm20.74 0h-9.994V96.727h9.933v2.32h-7.166v4.146h6.652v2.32h-6.652v4.168h7.226V112zm5.532 0h-2.766V96.727h5.727q1.76 0 2.957.612 1.197.611 1.812 1.711t.615 2.562q0 1.469-.622 2.547-.623 1.077-1.831 1.663-1.208.585-2.968.585h-4.08v-2.297h3.707q1.029 0 1.685-.287.657-.287.973-.843.317-.555.317-1.368 0-.813-.32-1.39-.321-.579-.977-.88-.656-.303-1.693-.303h-2.536V112zm2.103-6.92h3.02l3.782 6.92h-3.088l-3.714-6.92zm8.793-8.353h2.766V112h-2.766V96.727zm19.419 7.637q0 2.468-.921 4.224-.921 1.756-2.506 2.689-1.585.932-3.59.932-2.007 0-3.591-.936-1.585-.936-2.506-2.692-.921-1.756-.921-4.217 0-2.469.92-4.225.922-1.756 2.507-2.688 1.584-.933 3.59-.933t3.591.933q1.585.932 2.506 2.688.92 1.756.92 4.225zm-2.782 0q0-1.738-.54-2.935-.541-1.197-1.496-1.812-.954-.615-2.2-.615-1.245 0-2.2.615-.954.615-1.495 1.812-.54 1.197-.54 2.935 0 1.737.54 2.934t1.495 1.812q.955.615 2.2.615 1.246 0 2.2-.615.955-.615 1.495-1.812.541-1.197.541-2.934zM971.89 112h-5.175V96.727h5.28q2.274 0 3.911.914 1.637.913 2.517 2.621.88 1.708.88 4.087 0 2.386-.884 4.101-.884 1.715-2.543 2.633-1.66.917-3.986.917zm-2.409-12.879v10.485h2.275q1.596 0 2.662-.585 1.067-.586 1.604-1.753.536-1.167.536-2.92 0-1.752-.536-2.911-.537-1.16-1.585-1.738-1.048-.578-2.599-.578h-2.357zm22.992 13.088q-1.611 0-2.86-.552-1.25-.552-1.973-1.536-.723-.985-.768-2.275h2.804q.037.62.41 1.078.373.458.992.712.619.254 1.387.254.82 0 1.454-.288.634-.287.992-.801.358-.515.35-1.186.008-.693-.357-1.223-.366-.53-1.056-.828-.69-.298-1.659-.298h-1.35v-2.133h1.35q.798 0 1.398-.276.6-.276.944-.78.343-.502.335-1.166.008-.649-.287-1.13-.294-.48-.828-.75-.533-.268-1.249-.268-.7 0-1.297.254-.597.253-.962.72-.366.465-.388 1.107h-2.662q.03-1.283.742-2.256.712-.973 1.905-1.521 1.193-.549 2.677-.549 1.53 0 2.659.571 1.13.57 1.749 1.532.619.962.619 2.126.007 1.29-.757 2.162-.765.873-2.003 1.141v.12q1.611.223 2.472 1.19.862.965.854 2.397 0 1.282-.727 2.293-.727 1.01-1.998 1.585-1.272.574-2.912.574z" fill="#869563" fill-rule="nonzero"></path><path fill="#AEE239" d="M424 181h348v95H424zm0 239h174v95H424zm0 239h43v95h-43zm354-478h348v95H778zm0 239h174v95H778zm0 239h43v95h-43z"></path></g></svg>