<svg viewBox="0 0 1200 900" xmlns="http://www.w3.org/2000/svg" xmlns:xlink="http://www.w3.org/1999/xlink"><defs><path id="path-1" d="M0 .089h1204.2v900H0z"></path><path id="path-3" d="M0 .089h1204.2V112.08H0z"></path></defs><g fill="none" fill-rule="evenodd"><mask id="mask-2" fill="#fff"><use xlink:href="#path-1"></use></mask><use fill="#18342A" xlink:href="#path-1"></use><g mask="url(#mask-2)"><g transform="translate(394.000000, 202.354790)"><path d="M195.7 488.945v-43.35c0-.8.153-1.567.459-2.305a5.963 5.963 0 0 1 1.305-1.953c.564-.565 1.216-1 1.953-1.306a5.964 5.964 0 0 1 2.304-.458H401.62c.798 0 1.566.153 2.304.458a5.976 5.976 0 0 1 1.953 1.306c.565.564 1 1.215 1.305 1.953.306.738.459 1.506.459 2.304v43.351a5.95 5.95 0 0 1-.459 2.304 5.963 5.963 0 0 1-1.305 1.954c-.565.564-1.216 1-1.953 1.305a5.964 5.964 0 0 1-2.304.458h-199.9a5.964 5.964 0 0 1-2.304-.458 5.963 5.963 0 0 1-1.953-1.305 5.963 5.963 0 0 1-1.305-1.954 5.964 5.964 0 0 1-.459-2.304z" fill="#74B79F"></path><path d="M243.813 463.922h-2.8q-.08-.817-.695-1.269-.614-.452-1.666-.452-.716 0-1.208.2-.493.198-.752.55-.26.35-.26.795-.014.372.158.648.172.277.476.476.304.199.702.344.398.145.85.246l1.241.297q.904.203 1.66.54.756.337 1.31.83.552.492.86 1.16.306.668.313 1.532-.007 1.268-.644 2.196-.638.928-1.836 1.437-1.197.51-2.884.51-1.673 0-2.911-.513t-1.93-1.522q-.692-1.008-.725-2.5h2.827q.047.696.401 1.158.354.462.952.695.597.232 1.352.232.743 0 1.292-.215.55-.216.854-.601.304-.385.304-.884 0-.465-.274-.783-.273-.317-.796-.54-.523-.222-1.278-.404l-1.505-.378q-1.748-.425-2.76-1.33-1.012-.903-1.005-2.435-.007-1.255.671-2.193.678-.938 1.866-1.464 1.187-.526 2.699-.526 1.538 0 2.689.526 1.15.526 1.79 1.464.642.938.662 2.173zm1.363-.52h6.241v2.16h-6.24v-2.16zm1.417 7.557v-10.04h2.874v9.662q0 .398.122.618.121.219.34.307.22.087.51.087.202 0 .405-.037l.31-.057.452 2.139q-.216.067-.607.158t-.951.112q-1.04.04-1.819-.277-.78-.317-1.21-.985-.433-.668-.426-1.687zm9.648 3.003q-.991 0-1.767-.348-.776-.347-1.225-1.032-.449-.685-.449-1.71 0-.864.317-1.451.318-.587.864-.945.547-.357 1.245-.54.698-.182 1.467-.256.905-.094 1.458-.179.553-.084.803-.253.25-.168.25-.499v-.04q0-.642-.402-.992-.401-.351-1.137-.351-.776 0-1.235.34-.458.341-.607.854l-2.658-.216q.202-.944.796-1.636.594-.692 1.535-1.066.941-.375 2.183-.375.863 0 1.656.203.793.202 1.41.627.618.425.975 1.09.358.665.358 1.589v6.99h-2.726v-1.437h-.081q-.25.486-.668.853-.418.368-1.005.574-.587.206-1.357.206zm.824-1.984q.634 0 1.12-.253.485-.253.762-.685.277-.432.277-.978v-1.1q-.135.088-.368.159-.233.07-.523.128-.29.057-.58.101l-.526.078q-.507.074-.884.236-.378.162-.587.435-.21.273-.21.678 0 .587.429.894.428.307 1.09.307zm10.12 1.788h-2.874v-10.364h2.787v1.809h.108q.283-.965.95-1.461.669-.496 1.54-.496.215 0 .465.027t.438.074v2.55q-.202-.06-.56-.107-.357-.048-.654-.048-.634 0-1.13.274-.496.273-.783.759-.287.485-.287 1.12v5.863zm4.683-10.364h6.241v2.16h-6.241v-2.16zm1.417 7.557v-10.04h2.874v9.662q0 .398.121.618.122.219.341.307.22.087.51.087.202 0 .404-.037l.31-.057.453 2.139q-.216.067-.607.158-.392.091-.952.112-1.039.04-1.818-.277-.78-.317-1.211-.985-.432-.668-.425-1.687zm19.722-4.601l-2.632.162q-.067-.338-.29-.611-.222-.273-.583-.439-.361-.165-.86-.165-.669 0-1.127.28-.46.28-.46.746 0 .37.298.627.296.257 1.018.412l1.876.378q1.511.31 2.254.998.742.688.742 1.808 0 1.02-.597 1.788-.597.77-1.633 1.198-1.036.428-2.385.428-2.058 0-3.276-.86t-1.427-2.344l2.827-.149q.128.628.62.955.493.327 1.263.327.755 0 1.217-.293.463-.294.47-.76-.007-.39-.331-.644-.324-.253-.999-.388l-1.795-.357q-1.518-.304-2.257-1.053-.738-.749-.738-1.91 0-.998.543-1.72t1.531-1.113q.989-.392 2.318-.392 1.963 0 3.094.83 1.13.83 1.319 2.26zm7.131 7.408h-3.036l-2.82-10.364h2.908l1.606 6.963h.094l1.674-6.963h2.854l1.7 6.923h.088l1.578-6.923h2.902l-2.814 10.364h-3.043l-1.781-6.518h-.128l-1.782 6.518zm14.028.196q-.992 0-1.768-.348-.776-.347-1.225-1.032-.448-.685-.448-1.71 0-.864.317-1.451.317-.587.863-.945.547-.357 1.245-.54.699-.182 1.468-.256.904-.094 1.457-.179.553-.084.803-.253.25-.168.25-.499v-.04q0-.642-.402-.992-.401-.351-1.137-.351-.775 0-1.234.34-.46.341-.608.854l-2.658-.216q.202-.944.796-1.636.594-.692 1.535-1.066.941-.375 2.183-.375.864 0 1.656.203.793.202 1.41.627.618.425.975 1.09.358.665.358 1.589v6.99h-2.726v-1.437h-.08q-.25.486-.669.853-.418.368-1.005.574-.587.206-1.356.206zm.823-1.984q.634 0 1.12-.253.486-.253.762-.685.277-.432.277-.978v-1.1q-.135.088-.368.159-.232.07-.523.128-.29.057-.58.101l-.526.078q-.506.074-.884.236-.378.162-.587.435-.21.273-.21.678 0 .587.43.894.428.307 1.089.307zm10.12 1.788h-2.874v-10.364h2.787v1.809h.108q.283-.965.951-1.461.668-.496 1.539-.496.216 0 .465.027.25.027.439.074v2.55q-.203-.06-.56-.107-.358-.048-.655-.048-.634 0-1.13.274-.496.273-.783.759-.286.485-.286 1.12v5.863zm7.767 0H330v-10.364h2.74v1.829h.121q.324-.911 1.08-1.437.755-.527 1.808-.527 1.066 0 1.815.53.749.53.999 1.434h.107q.318-.89 1.15-1.427.834-.537 1.974-.537 1.451 0 2.359.921.907.921.907 2.608v6.97h-2.868v-6.403q0-.864-.458-1.296-.46-.431-1.147-.431-.783 0-1.222.496-.438.496-.438 1.305v6.329h-2.787v-6.464q0-.762-.435-1.214-.435-.452-1.144-.452-.479 0-.86.24-.381.239-.604.667-.222.429-.222 1.002v6.221zm17.326 0h-2.874v-10.364h2.874v10.364zm-1.423-11.7q-.641 0-1.1-.428-.459-.428-.459-1.029 0-.594.459-1.022.459-.429 1.093-.429.648 0 1.103.429.456.428.456 1.022 0 .6-.456 1.029-.455.428-1.096.428zm6.592 5.709v5.991h-2.875v-10.364h2.74v1.829h.121q.344-.904 1.154-1.434.81-.53 1.963-.53 1.08 0 1.883.473.803.472 1.248 1.346.445.874.445 2.081v6.599h-2.874v-6.086q.007-.951-.486-1.488-.492-.536-1.356-.536-.58 0-1.022.25-.442.25-.688.725-.247.476-.253 1.144zM368.98 477.8q-1.397 0-2.392-.378-.995-.378-1.582-1.019-.587-.64-.763-1.424l2.659-.357q.121.283.384.536.263.253.699.415.435.162 1.062.162.938 0 1.549-.445.61-.445.61-1.464v-1.896h-.121q-.19.432-.567.816-.378.385-.972.628-.593.243-1.416.243-1.168 0-2.122-.544-.955-.543-1.519-1.666-.563-1.124-.563-2.844 0-1.761.574-2.942.573-1.18 1.528-1.768.955-.587 2.095-.587.87 0 1.457.294.587.293.948.729.361.435.557.853h.108v-1.74h2.854v10.464q0 1.296-.648 2.17-.648.873-1.791 1.318-1.144.446-2.628.446zm.06-6.343q.695 0 1.178-.347.482-.347.742-.999.26-.65.26-1.562 0-.91-.257-1.582-.256-.671-.742-1.042t-1.18-.371q-.709 0-1.195.38-.486.382-.735 1.057-.25.675-.25 1.558 0 .898.253 1.549.253.651.736 1.005.482.354 1.19.354z" fill="#000" fill-rule="nonzero"></path><path d="M19.379 14.33H14.81q-.132-1.331-1.134-2.069-1.002-.738-2.719-.738-1.167 0-1.97.325-.804.325-1.228.897-.424.573-.424 1.3-.022.605.259 1.056.28.452.776.776.495.325 1.145.562.65.236 1.387.402l2.026.484q1.475.33 2.708.88 1.233.551 2.135 1.355.903.803 1.404 1.893.5 1.09.512 2.499-.011 2.07-1.052 3.583-1.04 1.514-2.994 2.345-1.954.831-4.706.831-2.73 0-4.75-.836-2.02-.837-3.149-2.483-1.128-1.646-1.183-4.078h4.613q.077 1.133.655 1.887.577.755 1.552 1.134.974.38 2.207.38 1.21 0 2.108-.352.897-.352 1.393-.98.495-.627.495-1.442 0-.76-.446-1.277-.446-.517-1.299-.88-.853-.364-2.086-.661l-2.455-.617q-2.851-.693-4.502-2.168-1.652-1.475-1.64-3.974-.012-2.048 1.095-3.578 1.106-1.53 3.044-2.389 1.937-.859 4.403-.859 2.51 0 4.387.859 1.877.859 2.923 2.389 1.045 1.53 1.079 3.545zm2.223-.847h10.183v3.523H21.602v-3.523zm2.312 12.33V9.431h4.69v15.764q0 .65.198 1.007.198.358.556.501.358.143.83.143.331 0 .661-.06t.507-.094l.737 3.49q-.352.11-.99.259-.639.148-1.553.181-1.695.066-2.966-.451-1.272-.518-1.976-1.607-.705-1.09-.694-2.753zm15.742 4.898q-1.618 0-2.884-.567-1.266-.567-1.998-1.684t-.732-2.79q0-1.41.517-2.367.518-.958 1.41-1.542.891-.583 2.03-.88 1.14-.298 2.395-.419 1.475-.154 2.378-.291.902-.138 1.31-.413.407-.275.407-.815v-.066q0-1.046-.655-1.618-.655-.573-1.855-.573-1.266 0-2.015.556-.748.556-.99 1.393l-4.338-.352q.33-1.542 1.3-2.67.968-1.128 2.504-1.74 1.535-.61 3.561-.61 1.41 0 2.703.33t2.3 1.024q1.008.693 1.591 1.778.584 1.084.584 2.592v11.405H44.73v-2.345h-.13q-.407.793-1.09 1.393-.682.6-1.64.935-.958.336-2.213.336zM41 27.475q1.035 0 1.828-.413.792-.413 1.244-1.117.451-.705.451-1.597v-1.794q-.22.143-.6.259-.38.115-.853.209-.474.093-.947.165-.473.071-.859.127-.825.12-1.442.385-.616.264-.957.71-.342.446-.342 1.106 0 .958.7 1.459.698.5 1.777.5zm16.513 2.917h-4.69v-16.91h4.547v2.951h.176q.462-1.574 1.552-2.383 1.09-.81 2.51-.81.352 0 .76.045.407.044.715.12v4.162q-.33-.099-.913-.176-.584-.077-1.068-.077-1.035 0-1.844.446-.81.446-1.277 1.238-.468.793-.468 1.828v9.566zm7.64-16.91h10.183v3.524H65.152v-3.523zm2.312 12.33V9.432h4.69v15.764q0 .65.198 1.007.198.358.555.501.358.143.832.143.33 0 .66-.06t.507-.094l.737 3.49q-.352.11-.99.259-.64.148-1.553.181-1.695.066-2.967-.451-1.271-.518-1.976-1.607-.704-1.09-.693-2.753zm22.798-5.196v9.776h-4.69v-16.91h4.47v2.984h.198q.562-1.475 1.883-2.34 1.32-.863 3.203-.863 1.762 0 3.072.77t2.036 2.197q.727 1.425.727 3.396v10.766h-4.69v-9.93q.011-1.552-.792-2.427-.804-.875-2.213-.875-.947 0-1.668.407t-1.123 1.183q-.402.777-.413 1.866zm22.293 10.106q-2.61 0-4.486-1.062-1.877-1.062-2.89-3.016-1.013-1.954-1.013-4.63 0-2.609 1.013-4.579 1.013-1.97 2.857-3.071 1.844-1.101 4.332-1.101 1.673 0 3.12.534 1.448.534 2.532 1.601 1.085 1.068 1.69 2.681.606 1.613.606 3.77v1.288h-14.278v-2.906h9.863q0-1.013-.44-1.794-.44-.782-1.217-1.228-.776-.446-1.8-.446-1.067 0-1.887.49-.82.49-1.283 1.31-.462.82-.473 1.822v2.763q0 1.255.468 2.17.467.913 1.326 1.408.859.496 2.037.496.781 0 1.43-.22.65-.22 1.113-.661.462-.44.704-1.079l4.338.286q-.33 1.563-1.349 2.725-1.018 1.161-2.62 1.805-1.602.644-3.693.644zm18.978-.33h-4.953l-4.602-16.91h4.745l2.62 11.362h.154l2.73-11.361h4.656l2.775 11.295h.143l2.576-11.295h4.733l-4.59 16.909h-4.965l-2.906-10.634h-.21l-2.906 10.634zm39.774 0h-14.432V7.847h4.767v18.615h9.665v3.93zm10.711.33q-2.565 0-4.43-1.095-1.866-1.095-2.88-3.06-1.012-1.965-1.012-4.563 0-2.62 1.013-4.586 1.013-1.965 2.879-3.06 1.865-1.095 4.43-1.095 2.565 0 4.431 1.095t2.88 3.06q1.012 1.965 1.012 4.586 0 2.598-1.013 4.563-1.013 1.965-2.879 3.06t-4.43 1.095zm.022-3.633q1.167 0 1.949-.666t1.183-1.821q.402-1.156.402-2.632 0-1.475-.402-2.63-.401-1.156-1.183-1.828-.782-.671-1.949-.671-1.177 0-1.976.671-.798.672-1.2 1.827-.401 1.156-.401 2.631 0 1.476.401 2.632.402 1.155 1.2 1.821.799.666 1.976.666zm19.001 3.633q-2.598 0-4.464-1.106-1.866-1.106-2.862-3.077-.996-1.97-.996-4.535 0-2.599 1.007-4.564 1.007-1.965 2.868-3.07 1.86-1.107 4.425-1.107 2.213 0 3.875.803 1.662.804 2.631 2.257.969 1.453 1.068 3.413h-4.425q-.188-1.266-.986-2.042-.798-.776-2.086-.776-1.09 0-1.899.589-.809.588-1.26 1.711-.452 1.123-.452 2.72 0 1.618.446 2.752.446 1.133 1.26 1.728.815.594 1.905.594.804 0 1.448-.33.644-.33 1.068-.963.423-.633.556-1.525h4.425q-.11 1.938-1.051 3.407-.942 1.47-2.593 2.296-1.651.825-3.908.825zm21.412-7.53v-9.71h4.69v16.91h-4.503v-3.071h-.176q-.573 1.486-1.9 2.388-1.326.903-3.23.903-1.696 0-2.984-.77-1.288-.771-2.009-2.191-.72-1.42-.732-3.402V13.483h4.69v9.93q.011 1.497.804 2.366.792.87 2.124.87.848 0 1.585-.39.738-.392 1.195-1.162.457-.77.446-1.905zm22.501-4.887l-4.293.264q-.11-.55-.474-.996-.363-.446-.952-.716-.589-.27-1.403-.27-1.09 0-1.839.457-.748.457-.748 1.217 0 .605.484 1.023.484.419 1.662.672l3.06.616q2.467.507 3.678 1.63 1.21 1.123 1.21 2.95 0 1.662-.974 2.917t-2.664 1.954q-1.69.7-3.891.7-3.358 0-5.345-1.404-1.987-1.404-2.328-3.826l4.612-.242q.21 1.024 1.013 1.558.804.534 2.059.534 1.233 0 1.987-.48.754-.478.765-1.238-.011-.638-.54-1.051-.528-.413-1.629-.633l-2.928-.583q-2.477-.496-3.683-1.718-1.205-1.222-1.205-3.115 0-1.63.886-2.807.886-1.178 2.5-1.817 1.612-.638 3.78-.638 3.204 0 5.048 1.354 1.844 1.354 2.152 3.688zm2.158-4.822h10.183v3.523h-10.183v-3.523zm2.312 12.33V9.431h4.69v15.764q0 .65.197 1.007.199.358.556.501.358.143.831.143.33 0 .661-.06.33-.06.506-.094l.738 3.49q-.352.11-.99.259-.64.148-1.553.181-1.695.066-2.967-.451-1.271-.518-1.976-1.607-.704-1.09-.693-2.753zm22.798 4.579h-4.69v-16.91h4.547v2.951h.176q.463-1.574 1.553-2.383 1.09-.81 2.51-.81.352 0 .759.045.407.044.716.12v4.162q-.33-.099-.914-.176-.584-.077-1.068-.077-1.035 0-1.844.446-.809.446-1.277 1.238-.468.793-.468 1.828v9.566zm18.825-7.2v-9.71h4.69v16.91h-4.503v-3.071h-.176q-.573 1.486-1.9 2.388-1.326.903-3.23.903-1.695 0-2.983-.77-1.288-.771-2.01-2.191-.72-1.42-.732-3.402V13.483h4.69v9.93q.011 1.497.804 2.366.792.87 2.124.87.848 0 1.586-.39.737-.392 1.194-1.162.457-.77.446-1.905zm13.122-2.576v9.776h-4.69v-16.91h4.47v2.984h.198q.561-1.475 1.882-2.34 1.321-.863 3.204-.863 1.761 0 3.071.77 1.31.77 2.037 2.197.726 1.425.726 3.396v10.766h-4.69v-9.93q.012-1.552-.792-2.427-.803-.875-2.213-.875-.946 0-1.667.407-.721.407-1.123 1.183-.402.777-.413 1.866z" fill="#6C8B51" fill-rule="nonzero"></path><path d="M11.604 69.604h1.647v13.818h-1.62l-7.53-10.85h-.134v10.85H2.293V69.604h1.62l7.556 10.876h.135V69.604zm11.309 9.58v-6.126h1.592v10.364h-1.592v-1.754h-.108q-.365.79-1.134 1.34-.769.549-1.943.549-.972 0-1.727-.429-.756-.428-1.188-1.295-.432-.867-.432-2.19v-6.585h1.593v6.478q0 1.133.637 1.808.638.675 1.63.675.593 0 1.21-.304.618-.304 1.04-.931.422-.628.422-1.6zm6.099 4.238H27.42V73.058h1.538v1.62h.135q.324-.83 1.046-1.292.722-.463 1.734-.463 1.025 0 1.71.463.685.462 1.07 1.292h.108q.398-.803 1.194-1.279.796-.476 1.91-.476 1.39 0 2.273.867.884.867.884 2.696v6.936H39.43v-6.936q0-1.147-.628-1.64-.627-.492-1.477-.492-1.093 0-1.694.658-.6.658-.6 1.663v6.747h-1.62v-7.098q0-.884-.573-1.427-.574-.543-1.478-.543-.62 0-1.157.33-.536.331-.864.915-.327.583-.327 1.346v6.477zm16.679 0h-1.538V69.604h1.592v5.1h.135q.175-.27.49-.69.313-.423.903-.757.59-.334 1.603-.334 1.309 0 2.307.655.999.654 1.559 1.855.56 1.201.56 2.834 0 1.646-.56 2.85-.56 1.205-1.552 1.863-.992.658-2.287.658-.999 0-1.6-.334-.6-.334-.924-.763-.324-.428-.5-.711h-.188v1.592zm.027-5.182q0 1.174.344 2.068.344.894 1.005 1.397.662.503 1.62.503.998 0 1.67-.53.671-.53 1.012-1.43.34-.901.34-2.008 0-1.093-.333-1.973-.334-.88-1.006-1.397-.671-.516-1.683-.516-.972 0-1.633.489-.661.49-.999 1.363-.337.874-.337 2.034zm14.358 5.398q-1.498 0-2.58-.665-1.084-.664-1.667-1.862-.584-1.198-.584-2.79t.584-2.81q.583-1.218 1.632-1.903 1.05-.685 2.453-.685.81 0 1.6.27.789.27 1.436.874.648.604 1.033 1.596.384.992.384 2.442v.675H56.38v-1.376h6.369q0-.878-.348-1.566-.347-.688-.985-1.086-.637-.398-1.501-.398-.951 0-1.643.469-.691.469-1.063 1.218-.37.749-.37 1.605v.918q0 1.174.408 1.987.408.813 1.136 1.235.73.422 1.694.422.627 0 1.137-.18.51-.178.88-.54.371-.36.574-.9l1.538.432q-.243.783-.816 1.373-.574.59-1.417.918-.843.327-1.896.327zm8.312-.216h-1.592V73.058h1.538v1.566h.108q.284-.77 1.026-1.249.742-.479 1.673-.479.176 0 .439.007t.398.02v1.62q-.081-.02-.368-.064t-.604-.044q-.755 0-1.346.314-.59.313-.93.863-.342.55-.342 1.252v6.558zm15.033.216q-1.403 0-2.46-.668-1.055-.668-1.646-1.869-.59-1.201-.59-2.807 0-1.62.59-2.827.59-1.208 1.647-1.876 1.056-.668 2.46-.668 1.403 0 2.458.668 1.056.668 1.647 1.876.59 1.208.59 2.827 0 1.606-.59 2.807-.59 1.201-1.647 1.869-1.055.668-2.459.668zm0-1.43q1.066 0 1.754-.547.689-.547 1.02-1.437.33-.89.33-1.93 0-1.039-.33-1.936-.331-.898-1.02-1.45-.688-.554-1.754-.554t-1.754.553q-.688.553-1.019 1.45-.33.898-.33 1.937 0 1.04.33 1.93.33.89 1.019 1.437.688.547 1.754.547zm6.154-9.15h5.586v1.35h-5.586v-1.35zm3.265 10.364h-1.592V71.628q0-.89.418-1.484t1.086-.891q.668-.297 1.41-.297.588 0 .959.095.37.094.553.175l-.459 1.376q-.121-.04-.334-.1-.212-.062-.556-.062-.79 0-1.137.399-.348.398-.348 1.167v11.416zm9.041-10.364h5.371v1.35h-5.37v-1.35zm1.566 7.827v-10.31h1.592v9.878q0 .675.2 1.009.198.334.512.445.314.112.664.112.264 0 .432-.03l.27-.051.324 1.43q-.162.06-.452.125-.29.064-.735.064-.675 0-1.32-.29-.644-.29-1.066-.884-.421-.594-.421-1.498zm10.31 2.753q-1.404 0-2.46-.668t-1.646-1.869q-.59-1.201-.59-2.807 0-1.62.59-2.827.59-1.208 1.646-1.876 1.056-.668 2.46-.668 1.403 0 2.459.668t1.646 1.876q.59 1.208.59 2.827 0 1.606-.59 2.807-.59 1.201-1.646 1.869-1.056.668-2.46.668zm0-1.43q1.065 0 1.754-.547.688-.547 1.018-1.437.331-.89.331-1.93 0-1.039-.33-1.936-.331-.898-1.02-1.45-.688-.554-1.754-.554t-1.754.553q-.688.553-1.019 1.45-.33.898-.33 1.937 0 1.04.33 1.93.33.89 1.02 1.437.687.547 1.753.547zm6.26-9.15h5.371v1.35h-5.37v-1.35zm1.566 7.827v-10.31h1.592v9.878q0 .675.2 1.009.198.334.512.445.314.112.665.112.263 0 .432-.03l.27-.051.323 1.43q-.162.06-.452.125-.29.064-.735.064-.675 0-1.32-.29-.644-.29-1.065-.884-.422-.594-.422-1.498zm9.257 2.78q-.985 0-1.788-.375-.803-.374-1.275-1.086-.472-.712-.472-1.724 0-.89.35-1.447.351-.557.938-.874.587-.317 1.3-.475.711-.159 1.433-.253.945-.122 1.535-.186t.864-.22q.273-.154.273-.54v-.053q0-.999-.543-1.552t-1.643-.553q-1.14 0-1.788.5-.648.498-.911 1.065l-1.511-.54q.404-.944 1.082-1.474.679-.53 1.485-.742.806-.213 1.589-.213.5 0 1.15.118.651.119 1.262.483.61.364 1.015 1.1.405.735.405 1.97v6.828h-1.592v-1.403h-.081q-.162.337-.54.722-.378.384-1.005.654-.628.27-1.532.27zm.243-1.43q.945 0 1.596-.372.65-.37.985-.958.334-.587.334-1.234v-1.458q-.101.122-.442.22-.34.097-.783.168-.442.071-.857.122-.415.05-.671.084-.62.08-1.157.26-.537.179-.864.533-.327.354-.327.961 0 .83.617 1.252.618.421 1.57.421zm7.422-12.631h1.592v13.818h-1.592V69.604zm16.382 9.58v-6.126h1.592v10.364h-1.592v-1.754h-.108q-.364.79-1.133 1.34-.77.549-1.944.549-.971 0-1.727-.429-.756-.428-1.187-1.295-.432-.867-.432-2.19v-6.585h1.592v6.478q0 1.133.638 1.808.637.675 1.63.675.593 0 1.21-.304.618-.304 1.04-.931.421-.628.421-1.6zm11.848-3.805l-1.43.405q-.135-.357-.395-.698-.26-.34-.705-.564-.445-.222-1.14-.222-.952 0-1.583.435-.63.435-.63 1.103 0 .594.431.938.432.344 1.35.574l1.538.377q1.39.338 2.072 1.03.681.69.681 1.777 0 .89-.51 1.593-.509.701-1.42 1.106-.91.405-2.118.405-1.586 0-2.625-.688-1.039-.689-1.316-2.011l1.512-.378q.216.837.82 1.255.603.418 1.582.418 1.113 0 1.77-.475.659-.476.659-1.144 0-.54-.378-.907-.378-.368-1.16-.55l-1.728-.405q-1.424-.337-2.088-1.05-.665-.711-.665-1.784 0-.877.496-1.552.496-.674 1.356-1.059.86-.385 1.954-.385 1.538 0 2.418.675.881.675 1.252 1.781zm6.936 8.259q-1.498 0-2.58-.665-1.084-.664-1.667-1.862-.584-1.198-.584-2.79t.584-2.81q.583-1.218 1.633-1.903 1.049-.685 2.452-.685.81 0 1.6.27.789.27 1.436.874.648.604 1.033 1.596.384.992.384 2.442v.675h-7.988v-1.376h6.369q0-.878-.347-1.566-.348-.688-.986-1.086-.637-.398-1.5-.398-.952 0-1.644.469-.691.469-1.062 1.218-.371.749-.371 1.605v.918q0 1.174.408 1.987.408.813 1.137 1.235.728.422 1.693.422.628 0 1.137-.18.51-.178.88-.54.372-.36.574-.9l1.538.432q-.243.783-.816 1.373-.574.59-1.417.918-.843.327-1.896.327zm8.313-.216h-1.593V73.058h1.539v1.566h.108q.283-.77 1.025-1.249.742-.479 1.673-.479.176 0 .439.007t.398.02v1.62q-.08-.02-.368-.064-.286-.044-.603-.044-.756 0-1.347.314-.59.313-.93.863-.341.55-.341 1.252v6.558zm12.82-8.043l-1.431.405q-.135-.357-.395-.698-.26-.34-.705-.564-.445-.222-1.14-.222-.952 0-1.582.435-.631.435-.631 1.103 0 .594.432.938.431.344 1.349.574l1.538.377q1.39.338 2.072 1.03.681.69.681 1.777 0 .89-.51 1.593-.509.701-1.42 1.106-.91.405-2.118.405-1.586 0-2.625-.688-1.039-.689-1.315-2.011l1.51-.378q.217.837.82 1.255.605.418 1.583.418 1.113 0 1.771-.475.658-.476.658-1.144 0-.54-.378-.907-.378-.368-1.16-.55l-1.728-.405q-1.423-.337-2.088-1.05-.665-.711-.665-1.784 0-.877.496-1.552.496-.674 1.356-1.059.86-.385 1.954-.385 1.538 0 2.419.675.88.675 1.251 1.781zm7.07-2.32h5.371v1.349h-5.37v-1.35zm1.566 7.826v-10.31h1.592v9.878q0 .675.199 1.009.199.334.513.445.314.112.664.112.263 0 .432-.03l.27-.051.324 1.43q-.162.06-.452.125-.29.064-.736.064-.674 0-1.319-.29-.644-.29-1.066-.884-.421-.594-.421-1.498zm10.31 2.753q-1.404 0-2.46-.668t-1.646-1.869q-.59-1.201-.59-2.807 0-1.62.59-2.827.59-1.208 1.646-1.876 1.056-.668 2.46-.668 1.403 0 2.459.668t1.646 1.876q.59 1.208.59 2.827 0 1.606-.59 2.807-.59 1.201-1.646 1.869-1.056.668-2.46.668zm0-1.43q1.065 0 1.754-.547.688-.547 1.018-1.437.331-.89.331-1.93 0-1.039-.33-1.936-.331-.898-1.02-1.45-.688-.554-1.754-.554t-1.754.553q-.688.553-1.019 1.45-.33.898-.33 1.937 0 1.04.33 1.93.33.89 1.019 1.437.688.547 1.754.547zm19.809-6.829l-1.43.405q-.135-.357-.395-.698-.26-.34-.705-.564-.446-.222-1.14-.222-.952 0-1.583.435-.63.435-.63 1.103 0 .594.431.938.432.344 1.35.574l1.538.377q1.39.338 2.071 1.03.682.69.682 1.777 0 .89-.51 1.593-.509.701-1.42 1.106-.91.405-2.118.405-1.586 0-2.625-.688-1.04-.689-1.316-2.011l1.512-.378q.215.837.82 1.255.603.418 1.582.418 1.113 0 1.77-.475.659-.476.659-1.144 0-.54-.378-.907-.378-.368-1.16-.55l-1.728-.405q-1.424-.337-2.088-1.05-.665-.711-.665-1.784 0-.877.496-1.552.496-.674 1.356-1.059.86-.385 1.953-.385 1.539 0 2.42.675.88.675 1.25 1.781zm4.183 8.043h-1.592V73.058h1.592v10.364zm-.783-12.09q-.465 0-.799-.318-.334-.317-.334-.762 0-.446.334-.763t.8-.317q.465 0 .799.317t.334.763q0 .445-.334.762t-.8.317zm5.29 12.09h-1.592V73.058h1.538v1.62h.135q.324-.83 1.046-1.292.722-.463 1.734-.463 1.026 0 1.71.463.685.462 1.07 1.292h.108q.398-.803 1.194-1.279.796-.476 1.91-.476 1.39 0 2.273.867.884.867.884 2.696v6.936h-1.592v-6.936q0-1.147-.628-1.64-.627-.492-1.477-.492-1.093 0-1.694.658-.6.658-.6 1.663v6.747h-1.62v-7.098q0-.884-.573-1.427-.574-.543-1.478-.543-.62 0-1.157.33-.536.331-.864.915-.327.583-.327 1.346v6.477zm21.456-4.237v-6.127h1.593v10.364h-1.593v-1.754h-.108q-.364.79-1.133 1.34-.77.549-1.943.549-.972 0-1.728-.429-.755-.428-1.187-1.295-.432-.867-.432-2.19v-6.585h1.592v6.478q0 1.133.638 1.808t1.63.675q.593 0 1.21-.304.618-.304 1.04-.931.421-.628.421-1.6zm4.507-9.581h1.593v13.818h-1.593V69.604zm7.557 14.06q-.985 0-1.788-.374t-1.275-1.086q-.472-.712-.472-1.724 0-.89.35-1.447.351-.557.938-.874.587-.317 1.3-.475.711-.159 1.433-.253.945-.122 1.535-.186t.864-.22q.273-.154.273-.54v-.053q0-.999-.543-1.552t-1.643-.553q-1.14 0-1.788.5-.648.498-.911 1.065l-1.511-.54q.404-.944 1.082-1.474.679-.53 1.485-.742.806-.213 1.589-.213.5 0 1.15.118.651.119 1.262.483.61.364 1.015 1.1.405.735.405 1.97v6.828h-1.592v-1.403h-.081q-.162.337-.54.722-.378.384-1.005.654-.628.27-1.532.27zm.243-1.43q.945 0 1.596-.37.65-.372.985-.959.334-.587.334-1.234v-1.458q-.101.122-.442.22-.34.097-.783.168-.442.071-.857.122-.415.05-.671.084-.62.08-1.157.26-.537.179-.864.533-.327.354-.327.961 0 .83.617 1.252.618.421 1.569.421zm6.558-9.176h5.371v1.35h-5.37v-1.35zm1.566 7.827v-10.31h1.592v9.878q0 .675.199 1.009.199.334.513.445.314.112.664.112.264 0 .432-.03l.27-.051.324 1.43q-.162.06-.452.125-.29.064-.736.064-.674 0-1.319-.29-.644-.29-1.066-.884-.421-.594-.421-1.498zm10.444 2.753q-1.498 0-2.58-.665-1.083-.664-1.667-1.862-.584-1.198-.584-2.79t.584-2.81q.584-1.218 1.633-1.903t2.452-.685q.81 0 1.6.27.789.27 1.437.874.647.604 1.032 1.596.384.992.384 2.442v.675h-7.988v-1.376h6.37q0-.878-.348-1.566-.348-.688-.985-1.086-.638-.398-1.502-.398-.951 0-1.643.469-.691.469-1.062 1.218-.371.749-.371 1.605v.918q0 1.174.408 1.987.408.813 1.137 1.235.728.422 1.693.422.628 0 1.137-.18.51-.178.88-.54.372-.36.574-.9l1.538.432q-.242.783-.816 1.373-.573.59-1.417.918-.843.327-1.896.327z" fill="#ABABAB" fill-rule="nonzero"></path><path fill="#FFF" d="M.62 104.805h409.428v65.027H.62z"></path><path d="M19.463 125.301h2.466v20.364h-2.466v-17.778h-.12l-4.97 3.3v-2.505l5.09-3.38zm14.955 20.642q-2.247 0-3.828-1.228t-2.417-3.57q-.835-2.34-.835-5.662 0-3.301.84-5.643.84-2.341 2.426-3.58 1.586-1.237 3.814-1.237 2.227 0 3.813 1.238 1.586 1.238 2.426 3.58.84 2.341.84 5.642 0 3.321-.835 5.663-.835 2.341-2.416 3.57-1.581 1.227-3.828 1.227zm0-2.187q2.227 0 3.46-2.148t1.233-6.125q0-2.645-.562-4.504-.562-1.86-1.61-2.834-1.05-.974-2.521-.974-2.208 0-3.45 2.172-1.244 2.173-1.244 6.14 0 2.645.557 4.494.557 1.85 1.606 2.814 1.05.965 2.53.965zm17.5 2.187q-2.247 0-3.828-1.228t-2.417-3.57q-.835-2.34-.835-5.662 0-3.301.84-5.643.84-2.341 2.426-3.58 1.586-1.237 3.814-1.237 2.227 0 3.813 1.238 1.586 1.238 2.426 3.58.84 2.341.84 5.642 0 3.321-.835 5.663-.835 2.341-2.416 3.57-1.581 1.227-3.828 1.227zm0-2.187q2.227 0 3.46-2.148t1.233-6.125q0-2.645-.562-4.504-.562-1.86-1.61-2.834-1.05-.974-2.521-.974-2.208 0-3.45 2.172-1.244 2.173-1.244 6.14 0 2.645.557 4.494.557 1.85 1.606 2.814 1.05.965 2.53.965zm17.5 2.187q-2.247 0-3.828-1.228t-2.417-3.57q-.835-2.34-.835-5.662 0-3.301.84-5.643.84-2.341 2.426-3.58 1.586-1.237 3.814-1.237 2.227 0 3.813 1.238 1.586 1.238 2.426 3.58.84 2.341.84 5.642 0 3.321-.835 5.663-.835 2.341-2.416 3.57-1.581 1.227-3.828 1.227zm0-2.187q2.227 0 3.46-2.148t1.233-6.125q0-2.645-.562-4.504-.562-1.86-1.61-2.834-1.05-.974-2.521-.974-2.208 0-3.45 2.172-1.243 2.173-1.243 6.14 0 2.645.556 4.494.557 1.85 1.606 2.814 1.05.965 2.53.965z" fill="#000" fill-rule="nonzero"></path><path d="M3.967 206.25H2.293v-13.818h1.674v6.153h7.367v-6.153h1.674v13.818h-1.674v-6.18H3.967v6.18zm15.221.243q-.985 0-1.788-.375-.803-.374-1.275-1.086-.472-.712-.472-1.724 0-.89.35-1.447.351-.557.938-.874.587-.317 1.3-.475.711-.159 1.433-.253.945-.122 1.535-.186t.864-.22q.273-.154.273-.54v-.053q0-.999-.543-1.552t-1.643-.553q-1.14 0-1.788.5-.648.498-.911 1.065l-1.511-.54q.404-.944 1.082-1.474.679-.53 1.485-.742.806-.213 1.589-.213.5 0 1.15.118.651.119 1.262.483.61.364 1.015 1.1.405.735.405 1.97v6.828h-1.592v-1.403h-.081q-.162.337-.54.722-.378.384-1.005.654-.628.27-1.532.27zm.243-1.43q.945 0 1.596-.372.65-.37.985-.958.334-.587.334-1.234v-1.458q-.101.122-.442.22-.34.097-.783.168-.442.071-.857.122-.415.05-.671.084-.62.08-1.157.26-.537.179-.864.533-.327.354-.327.961 0 .83.617 1.252.618.422 1.57.422zm6.558-9.177h5.371v1.35h-5.37v-1.35zm1.566 7.827v-10.31h1.592v9.878q0 .675.199 1.009.2.334.513.445.314.112.664.112.264 0 .432-.03l.27-.051.324 1.43q-.162.06-.452.125-.29.064-.736.064-.674 0-1.319-.29-.644-.29-1.066-.884-.421-.594-.421-1.498zm10.31 2.753q-1.458 0-2.51-.688-1.053-.689-1.62-1.896-.567-1.208-.567-2.76 0-1.579.584-2.79.584-1.21 1.633-1.896 1.049-.685 2.452-.685 1.093 0 1.97.405.878.405 1.438 1.134.56.728.695 1.7h-1.593q-.182-.708-.806-1.258-.624-.55-1.677-.55-.93 0-1.63.482-.697.483-1.085 1.356-.388.874-.388 2.048 0 1.201.38 2.092.382.89 1.08 1.383.699.493 1.643.493.621 0 1.127-.216t.857-.621q.35-.405.5-.972h1.592q-.135.918-.665 1.65-.53.732-1.397 1.16-.867.429-2.014.429zm7.988-6.45v6.234h-1.592v-13.818h1.592v5.074h.135q.364-.803 1.096-1.279.732-.476 1.954-.476 1.059 0 1.855.422t1.238 1.289q.442.867.442 2.203v6.585h-1.592v-6.477q0-1.235-.638-1.913-.637-.678-1.764-.678-.783 0-1.4.33-.618.331-.972.965-.354.635-.354 1.539zm16.571 6.234h-1.592v-10.364h1.538v1.566h.108q.283-.77 1.026-1.249.742-.479 1.673-.479.175 0 .438.007.264.007.398.02v1.62q-.08-.02-.367-.064t-.604-.044q-.756 0-1.346.314-.59.313-.931.863-.341.55-.341 1.252v6.558zm8.528.243q-.985 0-1.788-.375-.803-.374-1.275-1.086-.472-.712-.472-1.724 0-.89.35-1.447.352-.557.939-.874.587-.317 1.298-.475.712-.159 1.434-.253.945-.122 1.535-.186t.864-.22q.273-.154.273-.54v-.053q0-.999-.543-1.552t-1.643-.553q-1.14 0-1.788.5-.648.498-.91 1.065l-1.512-.54q.405-.944 1.083-1.474.678-.53 1.484-.742.806-.213 1.589-.213.5 0 1.15.118.651.119 1.262.483.61.364 1.016 1.1.404.735.404 1.97v6.828H74.11v-1.403h-.08q-.163.337-.54.722-.379.384-1.006.654t-1.532.27zm.243-1.43q.945 0 1.596-.372.651-.37.985-.958.334-.587.334-1.234v-1.458q-.101.122-.442.22-.34.097-.783.168-.441.071-.856.122-.415.05-.672.084-.62.08-1.157.26-.536.179-.864.533-.327.354-.327.961 0 .83.618 1.252.617.422 1.568.422zm6.559-9.177h5.37v1.35h-5.37v-1.35zm1.565 7.827v-10.31h1.592v9.878q0 .675.2 1.009.198.334.512.445.314.112.665.112.263 0 .431-.03.17-.031.27-.051l.324 1.43q-.162.06-.452.125-.29.064-.735.064-.675 0-1.32-.29-.644-.29-1.065-.884-.422-.594-.422-1.498zm10.444 2.753q-1.497 0-2.58-.665-1.083-.664-1.667-1.862-.584-1.198-.584-2.79t.584-2.81q.584-1.218 1.633-1.903 1.05-.685 2.453-.685.81 0 1.599.27.789.27 1.437.874.647.604 1.032 1.596.385.992.385 2.442v.675h-7.989v-1.376h6.37q0-.878-.348-1.566-.348-.688-.985-1.086-.638-.398-1.501-.398-.952 0-1.643.469-.692.469-1.063 1.218t-.371 1.605v.918q0 1.174.408 1.987.408.813 1.137 1.235.729.422 1.693.422.628 0 1.137-.18.51-.178.88-.54.372-.36.574-.9l1.539.432q-.243.783-.817 1.373-.573.59-1.417.918-.843.327-1.896.327z" fill="#ABABAB" fill-rule="nonzero"></path><path fill="#FFF" d="M.62 226.404h409.428v65.027H.62z"></path><path d="M19.463 248.13h2.466v20.363h-2.466v-17.778h-.12l-4.97 3.3v-2.505l5.09-3.38zm14.955 20.641q-2.247 0-3.828-1.228t-2.417-3.57q-.835-2.34-.835-5.662 0-3.301.84-5.643.84-2.341 2.426-3.58 1.586-1.237 3.814-1.237 2.227 0 3.813 1.238 1.586 1.238 2.426 3.58.84 2.341.84 5.642 0 3.321-.835 5.663-.835 2.341-2.416 3.57-1.581 1.227-3.828 1.227zm0-2.187q2.227 0 3.46-2.148t1.233-6.125q0-2.645-.562-4.504-.562-1.86-1.61-2.834-1.05-.974-2.521-.974-2.208 0-3.45 2.172-1.244 2.173-1.244 6.14 0 2.645.557 4.495.557 1.849 1.606 2.813 1.05.965 2.53.965z" fill="#000" fill-rule="nonzero"></path><path d="M3.967 329.078H2.293V315.26h1.674v6.153h7.367v-6.153h1.674v13.818h-1.674v-6.18H3.967v6.18zm16.382.216q-1.404 0-2.46-.668t-1.646-1.869q-.59-1.201-.59-2.807 0-1.62.59-2.827.59-1.208 1.646-1.876 1.056-.668 2.46-.668 1.403 0 2.459.668t1.646 1.876q.59 1.208.59 2.827 0 1.606-.59 2.807-.59 1.201-1.646 1.869-1.056.668-2.46.668zm0-1.43q1.066 0 1.754-.547t1.019-1.437q.33-.89.33-1.93 0-1.039-.33-1.936-.33-.898-1.019-1.45-.688-.554-1.754-.554t-1.755.553q-.688.553-1.018 1.45-.331.898-.331 1.937 0 1.04.33 1.93.331.89 1.02 1.437.688.547 1.754.547zm14.466-6.829l-1.43.405q-.136-.357-.396-.698-.26-.34-.705-.564-.445-.222-1.14-.222-.951 0-1.582.435-.63.435-.63 1.103 0 .594.43.938.433.344 1.35.574l1.539.377q1.39.338 2.071 1.03.682.69.682 1.777 0 .89-.51 1.593-.51.701-1.42 1.106-.911.405-2.119.405-1.585 0-2.624-.688-1.04-.689-1.316-2.011l1.511-.378q.216.837.82 1.255.604.418 1.582.418 1.114 0 1.771-.475.658-.476.658-1.144 0-.54-.378-.907-.377-.368-1.16-.55l-1.727-.405q-1.424-.337-2.089-1.05-.664-.711-.664-1.784 0-.877.496-1.552.496-.674 1.356-1.059.86-.385 1.953-.385 1.538 0 2.419.675.88.675 1.252 1.781zm1.727-2.32h5.37v1.349h-5.37v-1.35zm1.565 7.826v-10.31H39.7v9.878q0 .675.199 1.009.199.334.512.445.314.112.665.112.263 0 .432-.03l.27-.051.324 1.43q-.162.06-.453.125-.29.064-.735.064-.675 0-1.319-.29-.644-.29-1.066-.884-.422-.594-.422-1.498z" fill="#ABABAB" fill-rule="nonzero"></path><path fill="#FFF" d="M.62 349.232h409.428v65.027H.62z"></path><path d="M17.156 382.135v9.187H14.81v-20.364h2.346v7.478h.2q.536-1.184 1.615-1.885 1.079-.7 2.878-.7 1.562 0 2.735.62 1.173.622 1.824 1.9.652 1.278.652 3.246v9.705h-2.347v-9.545q0-1.82-.94-2.82-.94-.999-2.6-.999-1.153 0-2.063.488-.91.487-1.432 1.421-.522.935-.522 2.267zm12.926-6.086h7.915v1.989h-7.915v-1.989zm2.307 11.534V372.39h2.347v14.557q0 .994.293 1.487.294.492.756.656.462.164.98.164.387 0 .636-.045.248-.045.397-.075l.478 2.108q-.239.09-.667.184-.427.095-1.083.095-.995 0-1.944-.428-.95-.427-1.571-1.302-.622-.875-.622-2.208zm7.875-11.534h7.915v1.989h-7.915v-1.989zm2.307 11.534V372.39h2.347v14.557q0 .994.293 1.487.293.492.756.656.462.164.98.164.387 0 .635-.045.249-.045.398-.075l.477 2.108q-.238.09-.666.184-.427.095-1.084.095-.994 0-1.943-.428-.95-.427-1.571-1.302-.622-.875-.622-2.208zm11.494 9.466H51.72v-21h2.267v2.426h.278q.259-.397.721-1.019.463-.621 1.333-1.113.87-.493 2.361-.493 1.929 0 3.4.965 1.472.964 2.297 2.734.826 1.77.826 4.176 0 2.427-.826 4.201-.825 1.775-2.286 2.745-1.462.97-3.371.97-1.472 0-2.357-.493-.885-.492-1.362-1.124-.477-.631-.736-1.049h-.199v8.074zm-.04-13.363q0 1.73.508 3.047.507 1.318 1.481 2.058.975.741 2.387.741 1.471 0 2.46-.78.99-.78 1.492-2.108t.502-2.958q0-1.611-.492-2.909-.492-1.297-1.482-2.058-.989-.76-2.48-.76-1.432 0-2.407.72-.974.721-1.471 2.009-.497 1.287-.497 2.998zm16.467 7.795q-.736 0-1.263-.527-.527-.527-.527-1.263 0-.735.527-1.262t1.263-.527q.735 0 1.262.527t.527 1.262q0 .488-.243.895-.244.408-.647.651-.402.244-.9.244zm0-11.335q-.736 0-1.263-.527-.527-.527-.527-1.263 0-.736.527-1.263.527-.527 1.263-.527.735 0 1.262.527t.527 1.263q0 .487-.243.895-.244.408-.647.651-.402.244-.9.244zm11.056-10.142h2.148l-6.562 24.38h-2.148l6.562-24.38zm9.983 0h2.148l-6.562 24.38h-2.148l6.562-24.38zm9.586.954h2.465v20.364h-2.465v-17.778h-.12l-4.971 3.3v-2.505l5.09-3.38zm14.795-.318q1.253.01 2.506.477 1.253.468 2.287 1.552 1.034 1.083 1.66 2.948.627 1.864.627 4.688 0 2.714-.513 4.817-.512 2.103-1.471 3.545-.96 1.442-2.327 2.188-1.367.745-3.087.745-1.71 0-3.048-.68-1.337-.682-2.187-1.9-.85-1.218-1.089-2.829h2.426q.328 1.402 1.308 2.312.979.91 2.59.91 2.356 0 3.724-2.058 1.367-2.059 1.367-5.817h-.16q-.556.835-1.322 1.442-.765.606-1.7.934-.935.328-1.989.328-1.75 0-3.206-.87-1.457-.87-2.327-2.396-.87-1.526-.87-3.495 0-1.89.84-3.45.84-1.561 2.367-2.486 1.526-.925 3.594-.905zm0 2.188q-1.253 0-2.252.626-1 .627-1.581 1.68-.582 1.054-.582 2.347 0 1.273.562 2.312t1.541 1.65q.98.612 2.232.612.945 0 1.76-.373.816-.373 1.427-1.024.612-.651.96-1.482.348-.83.348-1.735 0-1.213-.572-2.267-.572-1.054-1.571-1.7-1-.646-2.272-.646zm23.824 18.494h-12.847v-1.79l6.722-7.358q1.183-1.292 1.949-2.252.765-.96 1.138-1.81.373-.85.373-1.784 0-1.074-.512-1.86-.512-.785-1.397-1.213-.885-.427-1.989-.427-1.173 0-2.043.482-.87.482-1.342 1.347-.473.865-.473 2.029h-2.346q0-1.79.825-3.142.825-1.353 2.252-2.108 1.427-.756 3.207-.756 1.79 0 3.172.756 1.382.755 2.167 2.038.786 1.283.786 2.854 0 1.123-.403 2.192-.402 1.069-1.392 2.377-.99 1.307-2.74 3.186l-4.573 4.892v.16h9.466v2.187zm5.846.16q-.735 0-1.262-.528-.527-.527-.527-1.263 0-.735.527-1.262t1.262-.527q.736 0 1.263.527.527.527.527 1.262 0 .488-.243.895-.244.408-.647.651-.402.244-.9.244zm8.233-20.524h2.466v20.364h-2.466v-17.778h-.119l-4.971 3.3v-2.505l5.09-3.38zM168.89 391.6q-1.253-.02-2.505-.477-1.253-.457-2.287-1.546t-1.66-2.953q-.627-1.865-.627-4.688 0-2.715.507-4.818.507-2.103 1.471-3.545.965-1.441 2.332-2.187 1.367-.746 3.087-.746 1.71 0 3.048.686 1.337.686 2.183 1.904.845 1.218 1.093 2.82h-2.426q-.338-1.403-1.312-2.313-.975-.91-2.586-.91-2.366 0-3.723 2.064-1.358 2.063-1.367 5.812h.159q.556-.845 1.327-1.447.77-.602 1.705-.93.935-.328 1.979-.328 1.75 0 3.202.87 1.451.87 2.326 2.396.875 1.527.875 3.495 0 1.89-.845 3.456t-2.371 2.486q-1.526.92-3.585.9zm0-2.187q1.253 0 2.252-.627 1-.626 1.581-1.68.582-1.054.582-2.346 0-1.263-.562-2.302-.562-1.04-1.54-1.656-.98-.616-2.233-.616-.945 0-1.76.373-.815.372-1.427 1.019-.611.646-.96 1.476-.347.83-.347 1.745 0 1.213.571 2.267.572 1.054 1.571 1.7 1 .647 2.272.647zm17.222 2.187q-2.048 0-3.614-.73-1.567-.731-2.442-2.019-.875-1.288-.865-2.938-.01-1.293.508-2.391.517-1.1 1.416-1.84.9-.74 2.014-.94v-.119q-1.462-.378-2.327-1.645-.865-1.268-.855-2.889-.01-1.551.786-2.774.795-1.223 2.192-1.93 1.397-.705 3.187-.705 1.77 0 3.162.706t2.192 1.929q.8 1.223.81 2.774-.01 1.62-.88 2.889-.87 1.267-2.301 1.645v.12q1.104.198 1.988.94.885.74 1.412 1.839.527 1.098.537 2.39-.01 1.651-.89 2.94-.88 1.287-2.436 2.018-1.556.73-3.594.73zm0-2.187q1.382 0 2.386-.448 1.004-.447 1.551-1.262.547-.816.557-1.91-.01-1.153-.596-2.038-.587-.885-1.596-1.392-1.01-.507-2.302-.507-1.303 0-2.322.507-1.019.507-1.6 1.392-.582.885-.572 2.039-.01 1.093.532 1.909.541.815 1.556 1.262 1.014.448 2.406.448zm0-9.665q1.094 0 1.944-.437.85-.438 1.337-1.223.487-.786.497-1.84-.01-1.034-.487-1.805-.477-.77-1.322-1.193-.846-.422-1.97-.422-1.143 0-1.998.422-.855.423-1.322 1.193-.467.771-.458 1.805-.01 1.054.473 1.84.482.785 1.337 1.223.855.437 1.969.437zm11.852 11.733q-.736 0-1.263-.527-.527-.527-.527-1.263 0-.735.527-1.262t1.263-.527q.736 0 1.263.527.527.527.527 1.262 0 .488-.244.895-.243.408-.646.651-.403.244-.9.244zm12.012.12q-1.253-.02-2.506-.478-1.253-.457-2.287-1.546t-1.66-2.953q-.627-1.865-.627-4.688 0-2.715.507-4.818.507-2.103 1.472-3.545.964-1.441 2.331-2.187 1.368-.746 3.088-.746 1.71 0 3.047.686 1.338.686 2.183 1.904.845 1.218 1.094 2.82h-2.427q-.338-1.403-1.312-2.313-.975-.91-2.585-.91-2.367 0-3.724 2.064-1.357 2.063-1.367 5.812h.159q.557-.845 1.327-1.447.77-.602 1.706-.93.934-.328 1.978-.328 1.75 0 3.202.87t2.327 2.396q.875 1.527.875 3.495 0 1.89-.846 3.456-.845 1.566-2.371 2.486-1.526.92-3.584.9zm0-2.188q1.252 0 2.252-.627.999-.626 1.58-1.68.582-1.054.582-2.346 0-1.263-.562-2.302-.561-1.04-1.54-1.656-.98-.616-2.233-.616-.945 0-1.76.373-.815.372-1.427 1.019-.611.646-.96 1.476-.347.83-.347 1.745 0 1.213.571 2.267.572 1.054 1.571 1.7 1 .647 2.273.647zm24.937-2.267h-14.716v-2.029l8.949-14.159h1.472v3.142h-.995l-6.761 10.7v.158h12.051v2.188zm-2.784 4.176h-2.347v-20.364h2.347v20.364zm7.318.16q-.736 0-1.263-.528-.527-.527-.527-1.263 0-.735.527-1.262t1.263-.527q.736 0 1.263.527.527.527.527 1.262 0 .488-.244.895-.243.408-.646.651-.403.244-.9.244zm8.233-20.524h2.466v20.364h-2.466v-17.778h-.12l-4.97 3.3v-2.505l5.09-3.38zm11.534 20.364h-2.585l9.108-18.017v-.16h-10.5v-2.187h13.045v2.307l-9.068 18.057z" fill="#000" fill-rule="nonzero"></path></g></g><mask id="mask-4" fill="#fff"><use xlink:href="#path-3"></use></mask><path fill="#FFF" mask="url(#mask-4)" d="M0 .089h1204.2V112.08H0z"></path><path d="M98.422 72H80.25V40h2.922v29.375h15.25V72zm31.562-16q0 5-1.78 8.695-1.782 3.696-4.9 5.72-3.117 2.022-7.163 2.022-4.047 0-7.164-2.023-3.118-2.023-4.891-5.719Q102.313 61 102.313 56t1.773-8.695q1.773-3.696 4.898-5.72 3.125-2.023 7.157-2.023 4.046 0 7.164 2.024 3.117 2.023 4.898 5.719Q129.984 51 129.984 56zm-2.843 0q0-4.297-1.438-7.367-1.437-3.07-3.922-4.696-2.484-1.624-5.64-1.624-3.141 0-5.625 1.624-2.485 1.626-3.93 4.688-1.445 3.063-1.445 7.375 0 4.297 1.437 7.36 1.438 3.062 3.922 4.695 2.484 1.632 5.64 1.632 3.157 0 5.65-1.624 2.491-1.626 3.929-4.696 1.437-3.07 1.422-7.367zm34.968-6h-2.937q-.328-1.64-1.18-3.04-.851-1.398-2.133-2.444-1.28-1.047-2.906-1.625-1.625-.578-3.516-.578-3.03 0-5.523 1.578-2.492 1.578-3.984 4.632-1.493 3.055-1.493 7.477 0 4.453 1.493 7.5 1.492 3.047 3.984 4.617 2.492 1.57 5.524 1.57 1.89 0 3.515-.578 1.625-.578 2.906-1.617 1.282-1.039 2.133-2.445.852-1.406 1.18-3.047h2.937q-.39 2.203-1.46 4.102-1.07 1.898-2.72 3.32-1.648 1.422-3.788 2.219-2.141.796-4.703.796-4.032 0-7.157-2.023t-4.898-5.71q-1.774-3.688-1.774-8.704t1.774-8.703q1.773-3.688 4.898-5.711t7.156-2.023q2.563 0 4.704.789 2.14.789 3.789 2.218 1.648 1.43 2.718 3.32 1.07 1.891 1.461 4.11zm28.203 10.984V40h2.922v21.188q0 3.265-1.53 5.835-1.532 2.57-4.259 4.047-2.726 1.477-6.336 1.477-3.593 0-6.328-1.484-2.734-1.485-4.265-4.047-1.532-2.563-1.532-5.829V40h2.922v20.984q0 2.547 1.14 4.54 1.142 1.992 3.212 3.132 2.07 1.14 4.851 1.14 2.782 0 4.86-1.14 2.078-1.14 3.21-3.133 1.133-1.992 1.133-4.539zM221.938 48h-2.828q-.265-2.672-2.359-4.25-2.094-1.578-5.266-1.578-2.234 0-3.93.766-1.695.765-2.656 2.117-.96 1.351-.96 3.07 0 1.266.546 2.219.547.953 1.477 1.633t2.062 1.164q1.133.484 2.29.812l3.375.969q1.53.422 3.062 1.078 1.531.656 2.805 1.648 1.273.993 2.047 2.422.773 1.43.773 3.43 0 2.563-1.328 4.61-1.328 2.046-3.813 3.242-2.484 1.195-5.953 1.195-3.265 0-5.672-1.086-2.406-1.086-3.78-3.008-1.376-1.922-1.548-4.453h3q.156 1.89 1.25 3.203t2.844 1.992q1.75.68 3.906.68 2.39 0 4.258-.805 1.867-.804 2.938-2.25 1.07-1.445 1.07-3.367 0-1.625-.844-2.726-.844-1.102-2.351-1.852-1.508-.75-3.493-1.328l-3.828-1.125q-3.765-1.125-5.844-3.11-2.078-1.984-2.078-5.062 0-2.578 1.383-4.54 1.383-1.96 3.75-3.062 2.367-1.101 5.32-1.101 2.985 0 5.282 1.094 2.297 1.093 3.648 3.007 1.352 1.914 1.446 4.352zm15.688-5.375h-10.14V40h23.202v2.625h-10.14V72h-2.922V42.625z" fill="#252525" fill-rule="nonzero"></path><path d="M12.872 39.661a.608.608 0 0 0-.606.736 16.747 16.747 0 0 0 2.439 5.924 15.53 15.53 0 0 1-4.635-3.59.608.608 0 1 0-.913.803 16.747 16.747 0 0 0 7.01 4.733c-4.003 8.742 4.179 13.591 7.722 12.813 1.76-1.6 1.56-3.701 1.304-5.817a34.294 34.294 0 0 0 5.116 4.29l-2.15 5.506-.96 2.459h-1.895a2.427 2.427 0 0 0-2.433 2.432h5.989l1.565-4.008 1.984-5.081a28.799 28.799 0 0 0 4.328 2.011l-1.162 2.977-1.609 4.118h7.888a2.427 2.427 0 0 0-2.432-2.432h-1.895l.313-.8 1.22-3.125c6.918 1.87 13.683.844 19.022-1.285l-1.611 7.642h2.997v-2.432 2.432h4.327a2.427 2.427 0 0 0-2.433-2.432h-1.891l1.362-6.464c3.758-1.943 6.494-4.363 7.567-6.396a191.12 191.12 0 0 1-6.13-.422l2.546-12.075a1.216 1.216 0 0 0-1.932-1.227c-.046.032-5.446 3.82-10.949 7.624a948.98 948.98 0 0 1-5.715 3.92c-9.853-1.301-20.39-3.067-29.16-5.085a.608.608 0 0 0-.036-.045 15.534 15.534 0 0 1-3.566-7.208.609.609 0 0 0-.586-.496zm48.45 7.298l-1.492 7.08a308.942 308.942 0 0 1-3.606-.358l5.098-6.722zm-43.09 6.14a1.446 1.446 0 1 1 .169 2.886 1.446 1.446 0 0 1-.168-2.886z" fill="#42AF49"></path><g transform="translate(1014.420000, 20.070000)"><path d="M2.845 13.347h-2V3.892h2v3.901h4.058v-3.9h1.994v9.454H6.903V9.441H2.845v3.906zM19.233 8.62q0 1.546-.584 2.631-.584 1.085-1.588 1.655-1.004.57-2.255.57-1.26 0-2.262-.572-1.002-.573-1.584-1.657-.581-1.085-.581-2.627 0-1.547.581-2.632.582-1.085 1.584-1.655 1.002-.57 2.262-.57 1.251 0 2.255.57t1.588 1.655q.584 1.085.584 2.632zm-2.026 0q0-1.002-.298-1.69t-.838-1.043q-.54-.356-1.265-.356-.725 0-1.265.356-.54.355-.838 1.043-.298.688-.298 1.69t.298 1.69q.298.687.838 1.043.54.355 1.265.355.725 0 1.265-.355.54-.356.838-1.044.298-.687.298-1.69zm10.548-2.008H25.84q-.055-.559-.475-.868-.42-.31-1.14-.31-.49 0-.827.137-.337.136-.515.376-.177.24-.177.545-.01.253.108.443.118.189.326.325.207.136.48.236.272.099.581.168l.85.203q.619.139 1.136.37.517.23.895.567.379.337.589.794.21.457.214 1.048-.004.868-.44 1.503-.437.635-1.256.983-.82.349-1.974.349-1.145 0-1.992-.351-.847-.35-1.32-1.041-.473-.69-.496-1.71h1.934q.032.475.275.791.242.317.65.476.41.16.926.16.508 0 .884-.149.377-.147.584-.41.208-.264.208-.605 0-.319-.187-.536-.187-.217-.545-.37-.357-.151-.874-.276L23.23 9.2q-1.196-.29-1.888-.909-.693-.619-.688-1.667-.005-.858.46-1.5.463-.642 1.276-1.002.812-.36 1.846-.36 1.053 0 1.84.36.787.36 1.226 1.002.438.642.452 1.487zm4.003-1.071h-2.895V3.892h7.765v1.649h-2.894v7.806h-1.976V5.541z" fill="#252525" fill-rule="nonzero"></path><path fill="#D9D9D9" d="M58.471 4.103h1.204v63.823h-1.204z"></path><path d="M91.606 6.612h-1.915q-.056-.559-.476-.868-.42-.31-1.14-.31-.49 0-.826.137-.337.136-.515.376t-.178.545q-.01.253.109.443.117.189.325.325.208.136.48.236.272.099.582.168l.85.203q.618.139 1.135.37.517.23.895.567.379.337.59.794.21.457.214 1.048-.005.868-.441 1.503-.436.635-1.256.983-.82.349-1.973.349-1.145 0-1.992-.351-.847-.35-1.32-1.041-.474-.69-.497-1.71h1.934q.033.475.275.791.242.317.651.476.409.16.926.16.507 0 .884-.149.376-.147.584-.41.207-.264.207-.605 0-.319-.187-.536-.187-.217-.544-.37-.358-.151-.875-.276l-1.03-.259q-1.195-.29-1.888-.909-.692-.619-.688-1.667-.004-.858.46-1.5t1.276-1.002q.813-.36 1.847-.36 1.052 0 1.84.36.786.36 1.225 1.002.439.642.452 1.487zM95.61 5.54h-2.895V3.892h7.765v1.649h-2.894v7.806H95.61V5.541zm8.993.512l-2.373 7.294h-2.142l3.264-9.455h2.576l3.259 9.455h-2.142l-2.368-7.294h-.074zm-2.507 5.138V9.63h5.06v1.56h-5.06zm9.598-5.65h-2.895V3.892h7.765v1.649h-2.894v7.806h-1.976V5.541zm11.993 4.32V3.893h2v6.14q0 1.034-.492 1.81t-1.374 1.207q-.881.432-2.054.432-1.177 0-2.059-.432-.882-.431-1.371-1.207-.49-.776-.49-1.81v-6.14h2v5.97q0 .54.237.96.238.42.672.66.434.24 1.01.24.583 0 1.014-.24.432-.24.67-.66.237-.42.237-.96zm10.688-3.25h-1.916q-.056-.558-.476-.867-.42-.31-1.14-.31-.49 0-.826.137-.337.136-.515.376t-.178.545q-.01.253.109.443.117.189.325.325.208.136.48.236.273.099.582.168l.85.203q.618.139 1.135.37.517.23.896.567.378.337.588.794.21.457.215 1.048-.005.868-.441 1.503-.436.635-1.256.983-.82.349-1.973.349-1.145 0-1.992-.351-.847-.35-1.32-1.041-.474-.69-.497-1.71h1.934q.033.475.275.791.242.317.651.476.409.16.926.16.507 0 .884-.149.376-.147.584-.41.207-.264.207-.605 0-.319-.187-.536-.187-.217-.544-.37-.358-.151-.875-.276l-1.03-.259q-1.195-.29-1.888-.909-.692-.619-.688-1.667-.004-.858.46-1.5t1.276-1.002q.813-.36 1.847-.36 1.052 0 1.84.36.787.36 1.225 1.002.439.642.453 1.487z" fill="#252525" fill-rule="nonzero"></path><path d="M87.863 29.657H84.94V15.839h5.452q1.565 0 2.675.556 1.11.557 1.693 1.573.584 1.015.584 2.385 0 1.376-.594 2.365-.593.988-1.717 1.514-1.123.527-2.716.527h-3.65V22.41h3.178q.837 0 1.39-.23.553-.23.827-.688.273-.459.273-1.14 0-.689-.273-1.16-.274-.473-.83-.72-.557-.246-1.4-.246h-1.97v11.43zm1.39-6.288h3.15l3.435 6.288h-3.225l-3.36-6.288zm17.495 6.288H97.41V15.839h9.31v2.409h-6.389v3.292h5.91v2.409h-5.91v3.3h6.417v2.408zm8.15-10.66l-3.468 10.66h-3.13l4.77-13.818h3.765l4.763 13.818h-3.13l-3.462-10.66h-.108zm-3.663 7.51v-2.281h7.395v2.28h-7.395zm16.922 3.15h-4.899V15.839h4.939q2.085 0 3.59.826 1.504.827 2.317 2.372.813 1.545.813 3.697 0 2.16-.813 3.711-.813 1.552-2.328 2.382-1.514.83-3.62.83zm-1.977-11.315v8.812h1.855q1.296 0 2.183-.462.887-.463 1.336-1.438.448-.974.448-2.52 0-1.531-.448-2.503-.449-.971-1.333-1.43-.884-.459-2.18-.459h-1.861zm14.283 6.43l-5.04-8.933h3.273l3.15 5.95h.135l3.151-5.95h3.273l-5.04 8.933v4.885h-2.902v-4.885z" fill="#000" fill-rule="nonzero"></path></g></g></svg>