<svg viewBox="0 0 1200 900" xmlns="http://www.w3.org/2000/svg"><g fill="none" fill-rule="evenodd"><path fill="#F2D694" d="M519 635h161v67H519z"></path><path stroke="#778F9B" stroke-width="1.5" stroke-linejoin="round" stroke-dasharray="1.5 9" d="M187 214.5h867m-867 168h867M187 552h867"></path><path d="M84.652 219H73.163v-1.91l5.906-6.118q.946-.998 1.564-1.752.618-.754.925-1.436.307-.682.307-1.449 0-.87-.41-1.504-.409-.635-1.116-.98-.707-.345-1.594-.345-.937 0-1.636.383-.699.384-1.074 1.083-.375.698-.375 1.636h-2.514q0-1.594.733-2.787.733-1.193 2.011-1.854 1.279-.66 2.906-.66 1.645 0 2.902.652 1.258.652 1.965 1.773.707 1.12.707 2.527 0 .971-.362 1.9-.362.93-1.257 2.067-.895 1.138-2.489 2.757l-3.468 3.63v.128h7.858V219zm9.426.29q-2.02-.009-3.451-1.066-1.432-1.056-2.19-3.076-.76-2.02-.76-4.867 0-2.838.764-4.85.762-2.01 2.199-3.067 1.436-1.057 3.438-1.057 2.003 0 3.435 1.06 1.432 1.062 2.195 3.07.762 2.006.762 4.844 0 2.855-.758 4.871-.759 2.016-2.19 3.077-1.432 1.06-3.444 1.06zm0-2.276q1.773 0 2.775-1.73 1.001-1.73 1.001-5.003 0-2.173-.456-3.677-.456-1.505-1.304-2.284-.848-.78-2.016-.78-1.764 0-2.77 1.738-1.005 1.739-1.014 5.003 0 2.182.456 3.686.456 1.505 1.3 2.276.844.771 2.028.771zm22.28-1.423h-13.1v-2.13l7.543-11.916h1.679v3.137h-1.066l-5.395 8.54v.136h10.339v2.233zm-2.31 3.409h-2.514v-4.057l.017-.971v-12.427h2.497V219zm11.293.239q-1.832 0-3.234-.631-1.402-.63-2.195-1.739-.792-1.108-.784-2.522-.008-1.108.456-2.042.465-.933 1.266-1.56.8-.626 1.79-.796v-.102q-1.305-.316-2.089-1.398-.784-1.083-.775-2.489-.009-1.338.711-2.39.72-1.053 1.982-1.658 1.261-.605 2.872-.605 1.594 0 2.851.61 1.257.609 1.982 1.661.724 1.053.732 2.382-.008 1.406-.8 2.489-.793 1.082-2.063 1.398v.102q.98.17 1.768.797.789.626 1.262 1.56.473.933.481 2.04-.008 1.415-.8 2.523-.794 1.108-2.196 1.739-1.401.63-3.217.63zm0-2.157q1.083 0 1.875-.362.793-.362 1.227-1.014.435-.652.444-1.53-.009-.912-.473-1.61-.465-.7-1.257-1.1-.793-.4-1.816-.4-1.031 0-1.832.4-.801.4-1.262 1.1-.46.698-.451 1.61-.009.878.422 1.53.43.652 1.231 1.014.801.362 1.892.362zm0-8.122q.87 0 1.543-.35.673-.349 1.06-.97.389-.623.397-1.458-.008-.818-.388-1.432-.379-.614-1.052-.95-.673-.337-1.56-.337-.903 0-1.58.337-.678.336-1.053.95-.375.614-.367 1.432-.008.835.375 1.457.384.622 1.061.972.678.35 1.564.35zm9.614 10.04v-17.455h3.196l5.557 13.569h.205l5.557-13.569h3.196V219h-2.506v-12.63h-.162l-5.148 12.604h-2.08l-5.147-12.613h-.162V219h-2.506zm28.356 0h-6.69v-17.455h6.392q1.858 0 3.077.61 1.218.61 1.824 1.645.605 1.035.605 2.33 0 1.092-.4 1.837-.401.746-1.07 1.194-.67.447-1.47.651v.171q.869.043 1.7.558.83.516 1.376 1.462.545.946.545 2.301 0 1.338-.626 2.4-.626 1.06-1.93 1.678-1.304.618-3.333.618zm-4.057-7.85v5.591h3.802q1.892 0 2.71-.732.818-.733.818-1.833 0-.827-.418-1.517-.417-.69-1.189-1.1-.77-.408-1.828-.408h-3.895zm0-7.363v5.31h3.529q.886 0 1.598-.341.712-.341 1.133-.96.422-.617.422-1.46 0-1.083-.758-1.816-.759-.733-2.327-.733h-3.597zM86.31 372.545h2.565V390h-2.642v-14.813h-.102l-4.176 2.728v-2.523l4.355-2.847zm13.483 17.745q-2.02-.009-3.451-1.066-1.432-1.056-2.19-3.076-.76-2.02-.76-4.867 0-2.838.764-4.85.762-2.01 2.199-3.067 1.436-1.057 3.438-1.057 2.003 0 3.435 1.06 1.432 1.062 2.195 3.07.762 2.006.762 4.844 0 2.855-.758 4.871-.759 2.016-2.19 3.077-1.432 1.06-3.444 1.06zm0-2.276q1.773 0 2.775-1.73 1.001-1.73 1.001-5.003 0-2.173-.456-3.677-.456-1.505-1.304-2.284-.848-.78-2.016-.78-1.764 0-2.77 1.738-1.005 1.739-1.014 5.003 0 2.182.456 3.686.456 1.505 1.3 2.276.844.771 2.028.771zM120.828 390H109.34v-1.91l5.906-6.118q.946-.998 1.564-1.752.618-.754.924-1.436.307-.682.307-1.449 0-.87-.409-1.504-.409-.635-1.116-.98-.708-.345-1.594-.345-.938 0-1.636.383-.7.384-1.074 1.083-.375.698-.375 1.636h-2.514q0-1.594.732-2.787.733-1.193 2.012-1.854 1.278-.66 2.906-.66 1.645 0 2.902.652 1.257.652 1.965 1.773.707 1.12.707 2.527 0 .971-.362 1.9-.362.93-1.257 2.067-.895 1.138-2.489 2.757l-3.469 3.63v.128h7.858V390zm15.708-3.41h-13.1v-2.13l7.543-11.915h1.68v3.137h-1.066l-5.395 8.54v.136h10.338v2.233zm-2.31 3.41h-2.514v-4.057l.017-.971v-12.427h2.498V390zm5.635 0v-17.455h3.196l5.557 13.569h.204l5.557-13.569h3.196V390h-2.506v-12.63h-.162l-5.147 12.604h-2.08l-5.148-12.613h-.161V390h-2.506zm28.356 0h-6.69v-17.455h6.391q1.858 0 3.077.61 1.219.61 1.824 1.645.605 1.035.605 2.33 0 1.092-.4 1.837-.401.746-1.07 1.194-.67.447-1.47.651v.171q.869.043 1.7.558.83.516 1.376 1.462.546.946.546 2.301 0 1.338-.627 2.4-.626 1.06-1.93 1.678-1.304.618-3.332.618zm-4.057-7.85v5.591h3.8q1.893 0 2.711-.732.818-.733.818-1.833 0-.827-.417-1.517-.418-.69-1.19-1.1-.77-.408-1.827-.408h-3.895zm0-7.363v5.31h3.528q.887 0 1.598-.341.712-.341 1.134-.96.422-.617.422-1.46 0-1.083-.759-1.816-.758-.733-2.327-.733h-3.596zM96.045 561.239q-1.602 0-2.876-.618-1.274-.618-2.033-1.7-.758-1.083-.81-2.472h2.557q.094 1.125.998 1.85.903.724 2.164.724 1.006 0 1.786-.465.78-.464 1.227-1.282.448-.819.448-1.867 0-1.065-.46-1.9-.46-.836-1.266-1.313t-1.845-.486q-.793 0-1.594.273t-1.296.716l-2.412-.358.98-8.796h9.597v2.259h-7.406l-.554 4.884h.102q.512-.495 1.36-.827.848-.333 1.82-.333 1.593 0 2.841.759 1.249.758 1.97 2.067.72 1.308.71 3.004.01 1.696-.762 3.026-.771 1.33-2.13 2.092-1.36.763-3.116.763zm13.296-17.694h2.566V561h-2.642v-14.813h-.103l-4.176 2.728v-2.523l4.355-2.847zM128.237 561h-11.489v-1.91l5.907-6.118q.946-.998 1.564-1.752.617-.754.924-1.436.307-.682.307-1.449 0-.87-.409-1.504-.41-.635-1.116-.98-.708-.345-1.594-.345-.938 0-1.637.383-.698.384-1.073 1.083-.375.698-.375 1.636h-2.515q0-1.594.733-2.787.733-1.193 2.012-1.854 1.278-.66 2.906-.66 1.645 0 2.902.652 1.257.652 1.964 1.773.708 1.12.708 2.527 0 .971-.362 1.9-.363.93-1.258 2.067-.894 1.138-2.488 2.757l-3.469 3.63v.128h7.858V561zm3.589 0v-17.455h3.196l5.557 13.569h.204l5.557-13.569h3.196V561h-2.506v-12.63h-.162l-5.147 12.604h-2.08l-5.148-12.613h-.162V561h-2.505zm28.356 0h-6.69v-17.455h6.391q1.858 0 3.077.61 1.219.61 1.824 1.645.605 1.035.605 2.33 0 1.092-.4 1.837-.401.746-1.07 1.194-.67.447-1.47.652v.17q.869.043 1.7.558.83.516 1.376 1.462.546.946.546 2.301 0 1.338-.627 2.4-.626 1.06-1.93 1.678-1.304.618-3.332.618zm-4.057-7.85v5.591h3.8q1.893 0 2.711-.732.818-.733.818-1.833 0-.827-.417-1.517-.418-.69-1.19-1.1-.77-.408-1.827-.408h-3.895zm0-7.363v5.31h3.528q.887 0 1.598-.341.712-.341 1.134-.96.422-.617.422-1.46 0-1.083-.759-1.816-.758-.733-2.327-.733h-3.596z" fill="#000" fill-rule="nonzero"></path><path fill="#86B8B1" d="M519 279h161v356H519z"></path><path d="M402 277c-3.588 0-6.703.34-9.345 1.02-2.643.68-4.825 1.784-6.546 3.314s-3 3.563-3.836 6.1c-.837 2.537-1.255 5.663-1.255 9.378v169.67c0 3.885-.812 6.677-2.436 8.376-1.624 1.7-4.485 2.55-8.582 2.55v10.489c4.097 0 6.958.843 8.582 2.53 1.624 1.688 2.436 4.486 2.436 8.395v180.366c0 3.715.418 6.84 1.255 9.378.836 2.537 2.115 4.57 3.836 6.1 1.721 1.53 3.903 2.634 6.546 3.314 2.642.68 5.757 1.02 9.345 1.02v-8.631c-2.812 0-5.006-.413-6.582-1.239-1.576-.825-2.673-2.106-3.29-3.842-.619-1.736-.928-3.951-.928-6.646v-183.17c0-1.87-.279-3.6-.836-5.19-.558-1.59-1.588-2.968-3.091-4.134-1.503-1.165-3.649-2.076-6.437-2.731-.242-.057-.49-.112-.746-.164l-.017-.004v-1.216l.017-.003c.128-.026.254-.052.378-.079l.368-.082c2.788-.643 4.934-1.554 6.437-2.731 1.503-1.178 2.533-2.562 3.09-4.152.558-1.59.837-3.32.837-5.19V297.358c0-2.67.31-4.874.927-6.61.618-1.736 1.715-3.022 3.291-3.86 1.576-.838 3.77-1.257 6.582-1.257V277z" fill="#D3D3D3" fill-rule="nonzero"></path><path d="M60.305 110V91.09h4.192l5.613 13.703h.222l5.614-13.702h4.191V110h-3.286V97.01h-.176l-5.226 12.935h-2.456l-5.226-12.963h-.175V110h-3.287zm29.826.277q-2.133 0-3.68-.891-1.546-.891-2.377-2.53-.83-1.639-.83-3.864 0-2.188.835-3.845.836-1.658 2.34-2.586 1.506-.927 3.537-.927 1.31 0 2.479.42 1.168.42 2.068 1.297.9.877 1.417 2.23.517 1.352.517 3.217v1.025H84.813v-2.253h8.42q-.009-.96-.415-1.712-.406-.753-1.131-1.187-.725-.434-1.685-.434-1.025 0-1.8.494-.776.494-1.205 1.293-.43.798-.439 1.75v1.966q0 1.237.452 2.119.453.882 1.265 1.348.813.466 1.902.466.73 0 1.32-.207.592-.208 1.026-.614.434-.407.655-1.007l3.12.351q-.295 1.237-1.121 2.156-.826.919-2.11 1.422-1.283.503-2.936.503zm12.607-.277h-3.342V95.818h3.194v2.41h.166q.444-1.219 1.468-1.907 1.025-.687 2.447-.687 1.44 0 2.433.697.993.697 1.399 1.897h.148q.47-1.182 1.592-1.888t2.664-.706q1.957 0 3.195 1.237 1.237 1.237 1.237 3.61V110h-3.352v-9.002q0-1.32-.701-1.934-.702-.614-1.718-.614-1.21 0-1.888.752-.679.753-.679 1.953V110h-3.277v-9.14q0-1.1-.66-1.755-.66-.655-1.722-.655-.72 0-1.311.364-.591.365-.942 1.025-.351.66-.351 1.537V110zm26.318.277q-2.078 0-3.601-.914-1.524-.914-2.36-2.558-.835-1.643-.835-3.84 0-2.198.836-3.85.835-1.653 2.359-2.567 1.523-.914 3.6-.914 2.078 0 3.601.914 1.524.914 2.36 2.566.835 1.653.835 3.85 0 2.198-.836 3.841-.835 1.644-2.359 2.558-1.523.914-3.6.914zm.018-2.678q1.127 0 1.884-.623.757-.623 1.13-1.676.375-1.052.375-2.345 0-1.302-.374-2.359t-1.131-1.685q-.757-.628-1.884-.628-1.154 0-1.916.628-.761.628-1.135 1.685t-.374 2.36q0 1.292.374 2.344.374 1.053 1.135 1.676.762.623 1.916.623zM142.152 110h-3.343V95.818h3.241v2.364h.148q.388-1.228 1.334-1.898.946-.669 2.165-.669.277 0 .623.023.347.023.577.07v3.074q-.212-.074-.669-.134-.457-.06-.882-.06-.914 0-1.639.392-.724.393-1.14 1.085-.415.693-.415 1.598V110zm9.624 5.29q-.683 0-1.26-.106t-.919-.254l.776-2.594q1.09.314 1.832.106.744-.208 1.224-1.38l.286-.767-5.143-14.477h3.546l3.268 10.71h.148l3.278-10.71 3.573.019-5.697 15.88q-.397 1.108-1.052 1.912-.656.803-1.602 1.232-.947.43-2.258.43zM551.444 776h-3.425v-18.91h7.091q2.179 0 3.66.813 1.483.813 2.244 2.23.762 1.417.762 3.218 0 1.819-.766 3.231-.767 1.413-2.262 2.22-1.496.809-3.684.809h-4.7v-2.816h4.238q1.274 0 2.087-.443.812-.444 1.205-1.22.392-.775.392-1.781 0-1.007-.392-1.773-.393-.766-1.21-1.196-.817-.429-2.1-.429h-3.14V776zm16.633 0h-3.343v-14.182h3.241v2.364h.148q.388-1.228 1.334-1.898.946-.669 2.165-.669.277 0 .623.023.347.023.578.07v3.074q-.213-.074-.67-.134-.457-.06-.882-.06-.914 0-1.638.392-.725.393-1.14 1.085-.416.693-.416 1.598V776zm12.699.277q-2.078 0-3.601-.914-1.523-.914-2.359-2.558-.836-1.643-.836-3.84 0-2.198.836-3.85.836-1.653 2.359-2.567 1.523-.914 3.6-.914 2.078 0 3.602.914 1.523.914 2.359 2.566.835 1.653.835 3.85 0 2.198-.835 3.841-.836 1.644-2.36 2.558-1.523.914-3.6.914zm.018-2.678q1.127 0 1.884-.623.757-.623 1.13-1.676.375-1.052.375-2.345 0-1.302-.374-2.359t-1.131-1.685q-.757-.628-1.884-.628-1.154 0-1.916.628-.761.628-1.135 1.685t-.374 2.36q0 1.292.374 2.344.374 1.053 1.135 1.676.762.623 1.916.623zm15.922 2.678q-2.124 0-3.643-.933-1.519-.932-2.336-2.58-.817-1.648-.817-3.8 0-2.16.831-3.817.831-1.658 2.35-2.586 1.519-.927 3.596-.927 1.727 0 3.06.632 1.335.632 2.13 1.782.793 1.15.904 2.682h-3.195q-.194-1.025-.918-1.713-.725-.687-1.935-.687-1.025 0-1.8.549-.776.55-1.205 1.574-.43 1.025-.43 2.456 0 1.45.425 2.488.425 1.04 1.196 1.598.771.558 1.814.558.739 0 1.325-.281.587-.282.984-.817.397-.536.544-1.302h3.195q-.12 1.505-.886 2.663-.767 1.16-2.087 1.81-1.32.651-3.102.651zm15.238 0q-2.133 0-3.68-.891-1.546-.891-2.377-2.53-.831-1.639-.831-3.864 0-2.188.836-3.845.835-1.658 2.34-2.586 1.505-.927 3.536-.927 1.311 0 2.48.42 1.167.42 2.068 1.297.9.877 1.417 2.23.517 1.352.517 3.217v1.025h-11.624v-2.253h8.42q-.01-.96-.415-1.712-.407-.753-1.131-1.187-.725-.434-1.686-.434-1.024 0-1.8.494-.775.494-1.205 1.293-.43.798-.438 1.75v1.966q0 1.237.452 2.119.452.882 1.265 1.348.812.466 1.902.466.73 0 1.32-.207.591-.208 1.025-.614.434-.407.656-1.007l3.12.351q-.295 1.237-1.121 2.156-.827.919-2.11 1.422-1.284.503-2.936.503zm20.473-10.71l-3.047.332q-.13-.462-.448-.868-.318-.406-.854-.655-.535-.25-1.31-.25-1.044 0-1.75.453-.707.452-.698 1.172-.009.619.457 1.007.467.388 1.547.637l2.419.517q2.013.434 2.996 1.376.983.941.993 2.465-.01 1.339-.78 2.359-.771 1.02-2.138 1.593-1.366.572-3.14.572-2.603 0-4.19-1.094-1.589-1.094-1.894-3.052l3.26-.314q.221.96.941 1.45t1.875.49q1.19 0 1.915-.49.725-.49.725-1.21 0-.609-.466-1.006t-1.445-.61l-2.419-.507q-2.04-.425-3.02-1.436-.978-1.01-.969-2.562-.009-1.311.716-2.276.725-.965 2.022-1.496 1.297-.53 2.996-.53 2.493 0 3.929 1.061 1.435 1.062 1.777 2.872zm14.407 0l-3.047.332q-.129-.462-.448-.868-.318-.406-.854-.655-.535-.25-1.31-.25-1.044 0-1.75.453-.707.452-.697 1.172-.01.619.457 1.007.466.388 1.546.637l2.42.517q2.012.434 2.995 1.376.984.941.993 2.465-.01 1.339-.78 2.359-.771 1.02-2.138 1.593-1.366.572-3.139.572-2.604 0-4.192-1.094t-1.893-3.052l3.26-.314q.221.96.941 1.45t1.875.49q1.19 0 1.916-.49.724-.49.724-1.21 0-.609-.466-1.006t-1.445-.61l-2.419-.507q-2.04-.425-3.02-1.436-.978-1.01-.969-2.562-.009-1.311.716-2.276.725-.965 2.022-1.496 1.297-.53 2.996-.53 2.493 0 3.929 1.061 1.435 1.062 1.777 2.872zM870.117 609h-3.425v-18.91h7.091q2.179 0 3.66.758 1.483.757 2.244 2.119.762 1.362.762 3.171 0 1.82-.77 3.154-.772 1.334-2.267 2.058-1.496.725-3.675.725h-5.05v-2.843h4.588q1.274 0 2.087-.356.812-.355 1.205-1.043.392-.688.392-1.695 0-1.006-.397-1.721-.397-.716-1.21-1.09-.812-.374-2.095-.374h-3.14V609zm2.604-8.568h3.74l4.68 8.568h-3.822l-4.598-8.568zm16.946 8.845q-2.132 0-3.679-.891-1.546-.891-2.377-2.53-.831-1.639-.831-3.864 0-2.188.835-3.845.836-1.658 2.34-2.586 1.506-.927 3.537-.927 1.311 0 2.479.42 1.168.42 2.068 1.297.9.877 1.417 2.23.517 1.352.517 3.217v1.025H884.35v-2.253h8.42q-.009-.96-.415-1.712-.406-.753-1.13-1.187-.726-.434-1.686-.434-1.025 0-1.8.494-.776.494-1.205 1.293-.43.798-.439 1.75v1.966q0 1.237.453 2.119.452.882 1.265 1.348.812.466 1.902.466.729 0 1.32-.207.59-.208 1.025-.614.434-.407.655-1.007l3.121.351q-.295 1.237-1.122 2.156-.826.919-2.11 1.422-1.283.503-2.936.503zm22.08-14.459v19.5h-3.351v-7.552h-.139q-.258.517-.748 1.094-.49.577-1.292.983-.804.406-2.022.406-1.672 0-2.992-.858-1.32-.859-2.087-2.493-.766-1.635-.766-3.97 0-2.364.78-3.994.78-1.63 2.11-2.465 1.33-.835 2.964-.835 1.246 0 2.05.42.803.42 1.274 1.006.47.586.73 1.103h.202v-2.345h3.287zm-3.287 7.091q0-1.376-.383-2.391-.383-1.016-1.126-1.58-.744-.562-1.824-.562-1.117 0-1.865.581-.748.582-1.126 1.607-.379 1.025-.379 2.345 0 1.33.383 2.368.383 1.04 1.136 1.635.752.595 1.851.595 1.062 0 1.81-.577t1.135-1.611q.388-1.034.388-2.41zm15.885 1.127v-8.218h3.342V609h-3.24v-2.52h-.149q-.48 1.19-1.574 1.948-1.094.757-2.691.757-1.394 0-2.46-.624-1.067-.623-1.667-1.818-.6-1.196-.6-2.895v-9.03h3.342v8.513q0 1.348.739 2.142.738.794 1.938.794.74 0 1.432-.36t1.14-1.076q.448-.715.448-1.795zm13.188 6.241q-2.133 0-3.68-.891-1.546-.891-2.377-2.53-.83-1.639-.83-3.864 0-2.188.835-3.845.835-1.658 2.34-2.586 1.505-.927 3.537-.927 1.31 0 2.479.42 1.168.42 2.068 1.297.9.877 1.417 2.23.517 1.352.517 3.217v1.025h-11.624v-2.253h8.42q-.009-.96-.415-1.712-.406-.753-1.131-1.187-.725-.434-1.685-.434-1.025 0-1.8.494-.776.494-1.206 1.293-.429.798-.438 1.75v1.966q0 1.237.452 2.119.453.882 1.265 1.348.813.466 1.902.466.73 0 1.32-.207.591-.208 1.025-.614.434-.407.656-1.007l3.12.351q-.295 1.237-1.121 2.156-.827.919-2.11 1.422-1.283.503-2.936.503zm20.473-10.71l-3.047.332q-.129-.462-.447-.868-.319-.406-.855-.655-.535-.25-1.31-.25-1.044 0-1.75.453-.707.452-.697 1.172-.01.619.457 1.007.466.388 1.546.637l2.42.517q2.012.434 2.995 1.376.984.941.993 2.465-.01 1.339-.78 2.359-.771 1.02-2.138 1.593-1.366.572-3.139.572-2.604 0-4.192-1.094t-1.892-3.052l3.259-.314q.221.96.942 1.45.72.49 1.874.49 1.19 0 1.916-.49.724-.49.724-1.21 0-.609-.466-1.006t-1.445-.61l-2.419-.507q-2.04-.425-3.019-1.436-.979-1.01-.97-2.562-.009-1.311.716-2.276.725-.965 2.022-1.496 1.297-.53 2.996-.53 2.493 0 3.929 1.061 1.436 1.062 1.777 2.872zm2.128-3.749h8.152v2.585h-8.152v-2.585zm2.012 10.47V591.42h3.343v13.314q0 .674.207 1.03.208.355.55.485.341.129.757.129.314 0 .577-.046.263-.046.402-.083l.563 2.613q-.268.092-.762.203-.494.11-1.205.129-1.256.037-2.262-.383t-1.593-1.307q-.586-.886-.577-2.216z" fill="#000" fill-rule="nonzero"></path><g transform="translate(1008.000000, 576.000000)"><circle fill="#688A00" cx="22.809" cy="22.809" r="22.809"></circle><path d="M30.232 31.731v-4.104h-7.394v-.11l1.775-1.48c4.316-3.595 5.416-5.462 5.416-7.652 0-3.53-2.893-5.841-7.431-5.841-4.409 0-7.274 2.449-7.265 6.432h4.88c-.01-1.59.961-2.477 2.385-2.477 1.414 0 2.421.878 2.421 2.33 0 1.34-.86 2.208-2.255 3.364l-7.061 5.841v3.697h14.529z" fill="#FFF" fill-rule="nonzero"></path></g><path d="M922.033 246h-11.754v-18.91h3.425v16.039h8.329V246zm6.291 0h-3.342v-14.182h3.342V246zm-1.662-16.195q-.803 0-1.371-.53-.568-.531-.568-1.28 0-.756.573-1.287.572-.531 1.366-.531.794 0 1.362.53.568.532.568 1.289 0 .748-.568 1.279-.568.53-1.362.53zM935.234 246h-3.342v-14.182h3.194v2.41h.166q.444-1.219 1.468-1.907 1.025-.687 2.447-.687 1.44 0 2.433.697.993.697 1.399 1.897h.148q.47-1.182 1.592-1.888t2.664-.706q1.957 0 3.195 1.237 1.237 1.237 1.237 3.61V246h-3.352v-9.002q0-1.32-.701-1.934-.702-.614-1.718-.614-1.21 0-1.888.752-.679.753-.679 1.953V246h-3.277v-9.14q0-1.1-.66-1.755-.66-.655-1.722-.655-.72 0-1.311.364-.591.365-.942 1.025-.351.66-.351 1.537V246zm23.474 0h-3.342v-14.182h3.342V246zm-1.662-16.195q-.803 0-1.371-.53-.568-.531-.568-1.28 0-.756.572-1.287.573-.531 1.367-.531t1.362.53q.568.532.568 1.289 0 .748-.568 1.279-.568.53-1.362.53zm4.159 2.013h8.152v2.585h-8.152v-2.585zm2.012 10.47V228.42h3.343v13.314q0 .674.207 1.03.208.355.55.485.341.129.757.129.314 0 .577-.046.263-.046.402-.083l.563 2.613q-.268.092-.762.203-.494.11-1.205.129-1.256.037-2.262-.383t-1.593-1.307q-.586-.886-.577-2.216z" fill="#000" fill-rule="nonzero"></path><g transform="translate(1008.000000, 215.000000)"><circle fill="#688A00" cx="22.809" cy="22.809" r="22.809"></circle><path fill="#FFF" fill-rule="nonzero" d="M26.322 31.731V12.802H21.59l-4.658 2.847v4.363l4.14-2.477h.111v14.196z"></path></g><path d="M349.5 617.663h-18.91v-4.192l13.703-5.613v-.222l-13.702-5.614v-4.191H349.5v3.286h-12.99v.176l12.935 5.226v2.456l-12.963 5.226v.175H349.5v3.287zm.286-27.629q0 1.348-.485 2.424-.484 1.075-1.435 1.699-.951.623-2.345.623-1.2 0-1.985-.443-.785-.443-1.256-1.21-.471-.766-.716-1.73-.244-.966-.355-2-.13-1.246-.236-2.022-.106-.775-.332-1.13-.226-.356-.706-.356h-.056q-1.043 0-1.616.618-.572.619-.572 1.782 0 1.228.536 1.944.535.715 1.264.965l-.443 3.12q-1.292-.369-2.165-1.218-.872-.85-1.31-2.078-.44-1.228-.44-2.714 0-1.025.24-2.04.24-1.016.79-1.857.55-.84 1.491-1.352.942-.513 2.355-.513h9.491v3.213h-1.948v.111q.59.305 1.103.854.513.55.822 1.376.31.826.31 1.934zm-2.456-.868q0-1.006-.401-1.745-.402-.738-1.067-1.14-.665-.402-1.45-.402h-1.67q.129.157.24.531.11.374.193.836.084.462.148.914.065.452.11.785.103.748.333 1.338.231.591.642.933.41.342 1.057.342.923 0 1.394-.674.471-.674.471-1.718zm-12.012-9.31v-3.546l5.235-2.862-5.235-2.908v-3.537l7.091 4.275 7.091-4.348v3.517l-5.106 3.001 5.106 2.973v3.546l-7.09-4.321-7.092 4.21zm14.182-25.5v3.342h-14.182v-3.194h2.41v-.166q-1.219-.444-1.907-1.468-.687-1.025-.687-2.447 0-1.44.697-2.433.697-.993 1.897-1.399v-.148q-1.182-.47-1.888-1.592t-.706-2.664q0-1.957 1.237-3.195 1.237-1.237 3.61-1.237h9.519v3.352h-9.002q-1.32 0-1.934.702-.614.701-.614 1.717 0 1.21.752 1.888.753.679 1.953.679h8.845v3.277h-9.14q-1.1 0-1.755.66-.655.66-.655 1.722 0 .72.364 1.311.365.591 1.025.942.66.351 1.537.351h8.624zm.277-26.41q0 2.133-.891 3.68-.891 1.546-2.53 2.377-1.639.83-3.864.83-2.188 0-3.845-.835-1.658-.835-2.586-2.34-.927-1.505-.927-3.536 0-1.312.42-2.48.42-1.167 1.297-2.068.877-.9 2.23-1.417 1.352-.517 3.217-.517h1.025v11.624h-2.253v-8.42q-.96.01-1.712.415-.753.407-1.187 1.131-.434.725-.434 1.685 0 1.025.494 1.8.494.776 1.293 1.206.798.429 1.75.438h1.966q1.237 0 2.119-.452.882-.453 1.348-1.265.466-.813.466-1.902 0-.73-.207-1.32-.208-.591-.614-1.025-.407-.434-1.007-.656l.351-3.12q1.237.295 2.156 1.121.919.827 1.422 2.11.503 1.283.503 2.936zm-.277-12.607v3.343h-14.182v-3.195h2.41v-.166q-1.219-.443-1.907-1.468-.687-1.025-.687-2.447 0-1.44.697-2.433.697-.992 1.897-1.399v-.147q-1.182-.471-1.888-1.593-.706-1.122-.706-2.664 0-1.957 1.237-3.194 1.237-1.237 3.61-1.237h9.519v3.351h-9.002q-1.32 0-1.934.702-.614.701-.614 1.717 0 1.21.752 1.888.753.679 1.953.679h8.845v3.278h-9.14q-1.1 0-1.755.66-.655.66-.655 1.722 0 .72.364 1.31.365.592 1.025.943.66.35 1.537.35h8.624zm.277-26.317q0 2.077-.914 3.6-.914 1.524-2.558 2.36-1.643.835-3.84.835-2.198 0-3.85-.835-1.653-.836-2.567-2.36-.914-1.523-.914-3.6 0-2.078.914-3.601.914-1.524 2.566-2.36 1.653-.835 3.85-.835 2.198 0 3.841.836 1.644.835 2.558 2.359.914 1.523.914 3.6zm-2.678-.019q0-1.126-.623-1.883-.623-.757-1.676-1.131-1.052-.374-2.345-.374-1.302 0-2.359.374t-1.685 1.13q-.628.758-.628 1.884 0 1.154.628 1.916t1.685 1.136q1.057.374 2.36.374 1.292 0 2.344-.374 1.053-.374 1.676-1.136.623-.762.623-1.916zm2.401-13.077v3.342h-14.182v-3.24h2.364v-.149q-1.228-.387-1.898-1.334-.669-.946-.669-2.165 0-.277.023-.623t.07-.577h3.074q-.074.212-.134.67-.06.456-.06.881 0 .914.392 1.639.393.725 1.085 1.14.693.416 1.598.416h8.337zm5.29-9.625q0 .683-.106 1.26-.106.578-.254.92l-2.594-.776q.314-1.09.106-1.833-.208-.743-1.38-1.224l-.767-.286-14.477 5.143v-3.545l10.71-3.269v-.148l-10.71-3.277.019-3.573 15.88 5.696q1.108.397 1.912 1.053.803.655 1.232 1.602.43.946.43 2.257zm-5.004-23.718q0 1.348-.485 2.424-.484 1.076-1.435 1.699-.951.623-2.345.623-1.2 0-1.985-.443-.785-.443-1.256-1.21-.471-.766-.716-1.73-.244-.966-.355-2-.13-1.246-.236-2.022-.106-.775-.332-1.13-.226-.356-.706-.356h-.056q-1.043 0-1.616.618-.572.62-.572 1.782 0 1.228.536 1.944.535.716 1.264.965l-.443 3.12q-1.292-.369-2.165-1.218-.872-.85-1.31-2.078-.44-1.228-.44-2.714 0-1.025.24-2.04.24-1.016.79-1.856.55-.84 1.491-1.353.942-.512 2.355-.512h9.491v3.213h-1.948v.11q.59.305 1.103.854.513.55.822 1.376.31.827.31 1.934zm-2.456-.867q0-1.007-.401-1.745-.402-.74-1.067-1.14-.665-.402-1.45-.402h-1.67q.129.157.24.53.11.374.193.836.084.462.148.914.065.453.11.785.103.748.333 1.339.231.59.642.932.41.342 1.057.342.923 0 1.394-.674.471-.674.471-1.717zm-12.012-18.72v-3.554l14.182 5.05v3.694l-14.182 5.05v-3.564l10.535-3.26v-.147l-10.535-3.268zm14.468-9.66q0 1.347-.485 2.423-.484 1.076-1.435 1.699-.951.623-2.345.623-1.2 0-1.985-.443-.785-.443-1.256-1.21-.471-.766-.716-1.73-.244-.966-.355-2-.13-1.246-.236-2.022-.106-.775-.332-1.13-.226-.356-.706-.356h-.056q-1.043 0-1.616.618-.572.619-.572 1.782 0 1.228.536 1.944.535.715 1.264.965l-.443 3.12q-1.292-.369-2.165-1.218-.872-.85-1.31-2.078-.44-1.228-.44-2.714 0-1.025.24-2.04.24-1.016.79-1.857.55-.84 1.491-1.352.942-.513 2.355-.513h9.491v3.213h-1.948v.111q.59.305 1.103.854.513.55.822 1.376.31.826.31 1.934zm-2.456-.869q0-1.006-.401-1.745-.402-.738-1.067-1.14-.665-.402-1.45-.402h-1.67q.129.157.24.531.11.374.193.836.084.462.148.914.065.452.11.785.103.748.333 1.339.231.59.642.932.41.342 1.057.342.923 0 1.394-.674.471-.674.471-1.718zm2.17-13.465v3.342h-14.182v-3.342H349.5zm-16.195 1.662q0 .803-.53 1.371-.531.568-1.28.568-.756 0-1.287-.573-.531-.572-.531-1.366 0-.794.53-1.362.532-.568 1.289-.568.748 0 1.279.568.53.568.53 1.362zm-2.714-5.23v-3.342H349.5v3.342h-18.91zm19.195-10.99q0 1.347-.485 2.423-.484 1.076-1.435 1.699-.951.623-2.345.623-1.2 0-1.985-.443-.785-.443-1.256-1.21-.471-.766-.716-1.73-.244-.966-.355-2-.13-1.246-.236-2.022-.106-.775-.332-1.13-.226-.356-.706-.356h-.056q-1.043 0-1.616.618-.572.619-.572 1.782 0 1.228.536 1.944.535.715 1.264.965l-.443 3.12q-1.292-.369-2.165-1.218-.872-.85-1.31-2.078-.44-1.228-.44-2.714 0-1.025.24-2.04.24-1.016.79-1.857.55-.84 1.491-1.352.942-.513 2.355-.513h9.491v3.213h-1.948v.111q.59.305 1.103.854.513.55.822 1.376.31.826.31 1.934zm-2.456-.869q0-1.006-.401-1.745-.402-.738-1.067-1.14-.665-.402-1.45-.402h-1.67q.129.157.24.531.11.374.193.836.084.462.148.914.065.452.11.785.103.748.333 1.339.231.59.642.932.41.342 1.057.342.923 0 1.394-.674.471-.674.471-1.718zm2.17-13.557v3.287h-18.91v-3.343h7.073v-.138q-.517-.259-1.103-.73-.586-.47-1.006-1.274-.42-.803-.42-2.05 0-1.643.835-2.968.836-1.325 2.465-2.105 1.63-.78 3.994-.78 2.335 0 3.97.766 1.634.767 2.493 2.087.858 1.32.858 2.991 0 1.22-.406 2.022-.406.804-.983 1.288-.577.485-1.094.753v.194h2.234zm-7.09.009q1.375 0 2.409-.392 1.034-.393 1.611-1.136.577-.743.577-1.805 0-1.108-.595-1.856-.596-.748-1.635-1.131-1.038-.383-2.368-.383-1.32 0-2.345.378-1.025.379-1.607 1.127-.581.748-.581 1.865 0 1.07.563 1.819.563.748 1.579 1.13 1.015.384 2.391.384zm-11.82-13.096v-3.342h18.91v3.342h-18.91zm19.187-13.189q0 2.133-.891 3.68-.891 1.546-2.53 2.377-1.639.831-3.864.831-2.188 0-3.845-.835-1.658-.836-2.586-2.34-.927-1.506-.927-3.537 0-1.311.42-2.48.42-1.167 1.297-2.067.877-.9 2.23-1.418 1.352-.517 3.217-.517h1.025v11.625h-2.253v-8.42q-.96.008-1.712.415-.753.406-1.187 1.13-.434.726-.434 1.686 0 1.025.494 1.8.494.776 1.293 1.205.798.43 1.75.439h1.966q1.237 0 2.119-.453.882-.452 1.348-1.265.466-.812.466-1.902 0-.73-.207-1.32-.208-.59-.614-1.025-.407-.434-1.007-.655l.351-3.121q1.237.295 2.156 1.122.919.826 1.422 2.11.503 1.283.503 2.935z" fill="#878787" fill-rule="nonzero"></path><path fill="#424242" d="M183 700h834v4H183z"></path><path stroke="#D3D3D3" stroke-width="11" stroke-linecap="square" stroke-dasharray="23" d="M488.414 279.5l501.115-5m-501.115 361l501.115-.5"></path></g></svg>