<svg xmlns="http://www.w3.org/2000/svg" viewBox="0 0 800 597" id="hyper">
  <g fill="none" fill-rule="evenodd">
    <g transform="translate(58 253)">
      <path fill="#7C7C7C" d="M130,170.911695 L130,185.064692 C130,185.84634 129.323221,186.479992 128.488372,186.479992 L1.51162782,186.479992 C0.676778826,186.479992 1.02239514e-16,185.84634 0,185.064692 L0,170.911695 C-1.02239514e-16,170.130047 0.676778826,169.496396 1.51162782,169.496396 L128.488372,169.496396 C129.323221,169.496396 130,170.130047 130,170.911695 Z"/>
      <g transform="translate(3.93 173.539)">
        <polygon fill="#D8D8D8" points="14.512 0 100.372 0 100.372 2.017 14.512 2.017"/>
        <polygon fill="#D7D7D7" points="3.629 0 5.645 0 5.645 2.016 3.629 2.016"/>
        <polygon fill="#D7D7D7" points="0 0 2.016 0 2.016 2.016 0 2.016"/>
        <polygon fill="#00CD00" points="116.122 0 118.138 0 118.138 2.016 116.122 2.016"/>
        <polygon fill="#D7D400" points="112.493 0 114.509 0 114.509 2.016 112.493 2.016"/>
        <polygon fill="#FF3C00" points="108.864 0 110.88 0 110.88 2.016 108.864 2.016"/>
        <polygon fill="#00CD00" points="119.75 0 121.766 0 121.766 2.016 119.75 2.016"/>
      </g>
      <g transform="translate(3.93 177.07)">
        <polygon fill="#D8D8D8" points="14.512 0 100.372 0 100.372 2.017 14.512 2.017"/>
        <polygon fill="#D7D7D7" points="3.629 0 5.645 0 5.645 2.016 3.629 2.016"/>
        <polygon fill="#D7D7D7" points="0 0 2.016 0 2.016 2.016 0 2.016"/>
        <polygon fill="#00CD00" points="116.122 0 118.138 0 118.138 2.016 116.122 2.016"/>
        <polygon fill="#D7D400" points="112.493 0 114.509 0 114.509 2.016 112.493 2.016"/>
        <polygon fill="#FF3C00" points="108.864 0 110.88 0 110.88 2.016 108.864 2.016"/>
        <polygon fill="#00CD00" points="119.75 0 121.766 0 121.766 2.016 119.75 2.016"/>
      </g>
      <g transform="translate(3.93 180.6)">
        <polygon fill="#D8D8D8" points="14.512 0 100.372 0 100.372 2.017 14.512 2.017"/>
        <polygon fill="#D7D7D7" points="3.629 0 5.645 0 5.645 2.016 3.629 2.016"/>
        <polygon fill="#D7D7D7" points="0 0 2.016 0 2.016 2.016 0 2.016"/>
        <polygon fill="#00CD00" points="116.122 0 118.138 0 118.138 2.016 116.122 2.016"/>
        <polygon fill="#D7D400" points="112.493 0 114.509 0 114.509 2.016 112.493 2.016"/>
        <polygon fill="#FF3C00" points="108.864 0 110.88 0 110.88 2.016 108.864 2.016"/>
        <polygon fill="#00CD00" points="119.75 0 121.766 0 121.766 2.016 119.75 2.016"/>
      </g>
      <path fill="#7C7C7C" d="M130,1.51199984 L130,166.017583 C130,166.852637 129.323221,167.529583 128.488372,167.529583 L1.51162782,167.529583 C0.676778826,167.529583 1.02239514e-16,166.852637 0,166.017583 L0,1.51199984 C-1.02239514e-16,0.676945388 0.676778826,1.53397015e-16 1.51162782,0 L128.488372,0 C129.323221,8.00505379e-15 130,0.676945388 130,1.51199984 Z"/>
      <polygon fill="#D7D7D7" points="4.435 161.482 125.899 161.482 125.899 163.498 4.435 163.498"/>
      <polygon fill="#D7D7D7" points="3.931 10.886 125.899 10.886 125.899 12.902 3.931 12.902"/>
      <polygon fill="#D7D7D7" points="3.931 7.258 125.899 7.258 125.899 9.274 3.931 9.274"/>
      <polygon fill="#D7D7D7" points="3.931 3.629 125.899 3.629 125.899 5.645 3.931 5.645"/>
      <path fill="#FFF" d="M4.53488368,16.9452574 L125.465116,16.9452574 C125.799056,16.9452574 126.069767,17.2162092 126.069767,17.5504452 L126.069767,156.743631 C126.069767,157.077867 125.799056,157.348819 125.465116,157.348819 L4.53488368,157.348819 C4.20094409,157.348819 3.93023256,157.077867 3.93023256,156.743631 L3.93023256,17.5504452 C3.93023256,17.2162092 4.20094409,16.9452574 4.53488368,16.9452574 Z"/>
    </g>
    <g transform="translate(243 253)">
      <path fill="#7C7C7C" d="M130,170.911695 L130,185.064692 C130,185.84634 129.323221,186.479992 128.488372,186.479992 L1.51162782,186.479992 C0.676778826,186.479992 1.02239514e-16,185.84634 0,185.064692 L0,170.911695 C-1.02239514e-16,170.130047 0.676778826,169.496396 1.51162782,169.496396 L128.488372,169.496396 C129.323221,169.496396 130,170.130047 130,170.911695 Z"/>
      <g transform="translate(3.93 173.539)">
        <polygon fill="#D8D8D8" points="14.512 0 100.372 0 100.372 2.017 14.512 2.017"/>
        <polygon fill="#D7D7D7" points="3.629 0 5.645 0 5.645 2.016 3.629 2.016"/>
        <polygon fill="#D7D7D7" points="0 0 2.016 0 2.016 2.016 0 2.016"/>
        <polygon fill="#00CD00" points="116.122 0 118.138 0 118.138 2.016 116.122 2.016"/>
        <polygon fill="#D7D400" points="112.493 0 114.509 0 114.509 2.016 112.493 2.016"/>
        <polygon fill="#FF3C00" points="108.864 0 110.88 0 110.88 2.016 108.864 2.016"/>
        <polygon fill="#00CD00" points="119.75 0 121.766 0 121.766 2.016 119.75 2.016"/>
      </g>
      <g transform="translate(3.93 177.07)">
        <polygon fill="#D8D8D8" points="14.512 0 100.372 0 100.372 2.017 14.512 2.017"/>
        <polygon fill="#D7D7D7" points="3.629 0 5.645 0 5.645 2.016 3.629 2.016"/>
        <polygon fill="#D7D7D7" points="0 0 2.016 0 2.016 2.016 0 2.016"/>
        <polygon fill="#00CD00" points="116.122 0 118.138 0 118.138 2.016 116.122 2.016"/>
        <polygon fill="#D7D400" points="112.493 0 114.509 0 114.509 2.016 112.493 2.016"/>
        <polygon fill="#FF3C00" points="108.864 0 110.88 0 110.88 2.016 108.864 2.016"/>
        <polygon fill="#00CD00" points="119.75 0 121.766 0 121.766 2.016 119.75 2.016"/>
      </g>
      <g transform="translate(3.93 180.6)">
        <polygon fill="#D8D8D8" points="14.512 0 100.372 0 100.372 2.017 14.512 2.017"/>
        <polygon fill="#D7D7D7" points="3.629 0 5.645 0 5.645 2.016 3.629 2.016"/>
        <polygon fill="#D7D7D7" points="0 0 2.016 0 2.016 2.016 0 2.016"/>
        <polygon fill="#00CD00" points="116.122 0 118.138 0 118.138 2.016 116.122 2.016"/>
        <polygon fill="#D7D400" points="112.493 0 114.509 0 114.509 2.016 112.493 2.016"/>
        <polygon fill="#FF3C00" points="108.864 0 110.88 0 110.88 2.016 108.864 2.016"/>
        <polygon fill="#00CD00" points="119.75 0 121.766 0 121.766 2.016 119.75 2.016"/>
      </g>
      <path fill="#7C7C7C" d="M130,1.51199984 L130,166.017583 C130,166.852637 129.323221,167.529583 128.488372,167.529583 L1.51162782,167.529583 C0.676778826,167.529583 1.02239514e-16,166.852637 0,166.017583 L0,1.51199984 C-1.02239514e-16,0.676945388 0.676778826,1.53397015e-16 1.51162782,0 L128.488372,0 C129.323221,8.00505379e-15 130,0.676945388 130,1.51199984 Z"/>
      <polygon fill="#D7D7D7" points="4.435 161.482 125.899 161.482 125.899 163.498 4.435 163.498"/>
      <polygon fill="#D7D7D7" points="3.931 10.886 125.899 10.886 125.899 12.902 3.931 12.902"/>
      <polygon fill="#D7D7D7" points="3.931 7.258 125.899 7.258 125.899 9.274 3.931 9.274"/>
      <polygon fill="#D7D7D7" points="3.931 3.629 125.899 3.629 125.899 5.645 3.931 5.645"/>
      <path fill="#FFF" d="M4.53488368,16.9452574 L125.465116,16.9452574 C125.799056,16.9452574 126.069767,17.2162092 126.069767,17.5504452 L126.069767,156.743631 C126.069767,157.077867 125.799056,157.348819 125.465116,157.348819 L4.53488368,157.348819 C4.20094409,157.348819 3.93023256,157.077867 3.93023256,156.743631 L3.93023256,17.5504452 C3.93023256,17.2162092 4.20094409,16.9452574 4.53488368,16.9452574 Z"/>
    </g>
    <g transform="translate(428 253)">
      <path fill="#7C7C7C" d="M130,170.911695 L130,185.064692 C130,185.84634 129.323221,186.479992 128.488372,186.479992 L1.51162782,186.479992 C0.676778826,186.479992 1.02239514e-16,185.84634 0,185.064692 L0,170.911695 C-1.02239514e-16,170.130047 0.676778826,169.496396 1.51162782,169.496396 L128.488372,169.496396 C129.323221,169.496396 130,170.130047 130,170.911695 Z"/>
      <g transform="translate(3.93 173.539)">
        <polygon fill="#D8D8D8" points="14.512 0 100.372 0 100.372 2.017 14.512 2.017"/>
        <polygon fill="#D7D7D7" points="3.629 0 5.645 0 5.645 2.016 3.629 2.016"/>
        <polygon fill="#D7D7D7" points="0 0 2.016 0 2.016 2.016 0 2.016"/>
        <polygon fill="#00CD00" points="116.122 0 118.138 0 118.138 2.016 116.122 2.016"/>
        <polygon fill="#D7D400" points="112.493 0 114.509 0 114.509 2.016 112.493 2.016"/>
        <polygon fill="#FF3C00" points="108.864 0 110.88 0 110.88 2.016 108.864 2.016"/>
        <polygon fill="#00CD00" points="119.75 0 121.766 0 121.766 2.016 119.75 2.016"/>
      </g>
      <g transform="translate(3.93 177.07)">
        <polygon fill="#D8D8D8" points="14.512 0 100.372 0 100.372 2.017 14.512 2.017"/>
        <polygon fill="#D7D7D7" points="3.629 0 5.645 0 5.645 2.016 3.629 2.016"/>
        <polygon fill="#D7D7D7" points="0 0 2.016 0 2.016 2.016 0 2.016"/>
        <polygon fill="#00CD00" points="116.122 0 118.138 0 118.138 2.016 116.122 2.016"/>
        <polygon fill="#D7D400" points="112.493 0 114.509 0 114.509 2.016 112.493 2.016"/>
        <polygon fill="#FF3C00" points="108.864 0 110.88 0 110.88 2.016 108.864 2.016"/>
        <polygon fill="#00CD00" points="119.75 0 121.766 0 121.766 2.016 119.75 2.016"/>
      </g>
      <g transform="translate(3.93 180.6)">
        <polygon fill="#D8D8D8" points="14.512 0 100.372 0 100.372 2.017 14.512 2.017"/>
        <polygon fill="#D7D7D7" points="3.629 0 5.645 0 5.645 2.016 3.629 2.016"/>
        <polygon fill="#D7D7D7" points="0 0 2.016 0 2.016 2.016 0 2.016"/>
        <polygon fill="#00CD00" points="116.122 0 118.138 0 118.138 2.016 116.122 2.016"/>
        <polygon fill="#D7D400" points="112.493 0 114.509 0 114.509 2.016 112.493 2.016"/>
        <polygon fill="#FF3C00" points="108.864 0 110.88 0 110.88 2.016 108.864 2.016"/>
        <polygon fill="#00CD00" points="119.75 0 121.766 0 121.766 2.016 119.75 2.016"/>
      </g>
      <path fill="#7C7C7C" d="M130,1.51199984 L130,166.017583 C130,166.852637 129.323221,167.529583 128.488372,167.529583 L1.51162782,167.529583 C0.676778826,167.529583 1.02239514e-16,166.852637 0,166.017583 L0,1.51199984 C-1.02239514e-16,0.676945388 0.676778826,1.53397015e-16 1.51162782,0 L128.488372,0 C129.323221,8.00505379e-15 130,0.676945388 130,1.51199984 Z"/>
      <polygon fill="#D7D7D7" points="4.435 161.482 125.899 161.482 125.899 163.498 4.435 163.498"/>
      <polygon fill="#D7D7D7" points="3.931 10.886 125.899 10.886 125.899 12.902 3.931 12.902"/>
      <polygon fill="#D7D7D7" points="3.931 7.258 125.899 7.258 125.899 9.274 3.931 9.274"/>
      <polygon fill="#D7D7D7" points="3.931 3.629 125.899 3.629 125.899 5.645 3.931 5.645"/>
      <path fill="#FFF" d="M4.53488368,16.9452574 L125.465116,16.9452574 C125.799056,16.9452574 126.069767,17.2162092 126.069767,17.5504452 L126.069767,156.743631 C126.069767,157.077867 125.799056,157.348819 125.465116,157.348819 L4.53488368,157.348819 C4.20094409,157.348819 3.93023256,157.077867 3.93023256,156.743631 L3.93023256,17.5504452 C3.93023256,17.2162092 4.20094409,16.9452574 4.53488368,16.9452574 Z"/>
    </g>
    <g transform="translate(613 253)">
      <path fill="#7C7C7C" d="M130,170.911695 L130,185.064692 C130,185.84634 129.323221,186.479992 128.488372,186.479992 L1.51162782,186.479992 C0.676778826,186.479992 1.02239514e-16,185.84634 0,185.064692 L0,170.911695 C-1.02239514e-16,170.130047 0.676778826,169.496396 1.51162782,169.496396 L128.488372,169.496396 C129.323221,169.496396 130,170.130047 130,170.911695 Z"/>
      <g transform="translate(3.93 173.539)">
        <polygon fill="#D8D8D8" points="14.512 0 100.372 0 100.372 2.017 14.512 2.017"/>
        <polygon fill="#D7D7D7" points="3.629 0 5.645 0 5.645 2.016 3.629 2.016"/>
        <polygon fill="#D7D7D7" points="0 0 2.016 0 2.016 2.016 0 2.016"/>
        <polygon fill="#00CD00" points="116.122 0 118.138 0 118.138 2.016 116.122 2.016"/>
        <polygon fill="#D7D400" points="112.493 0 114.509 0 114.509 2.016 112.493 2.016"/>
        <polygon fill="#FF3C00" points="108.864 0 110.88 0 110.88 2.016 108.864 2.016"/>
        <polygon fill="#00CD00" points="119.75 0 121.766 0 121.766 2.016 119.75 2.016"/>
      </g>
      <g transform="translate(3.93 177.07)">
        <polygon fill="#D8D8D8" points="14.512 0 100.372 0 100.372 2.017 14.512 2.017"/>
        <polygon fill="#D7D7D7" points="3.629 0 5.645 0 5.645 2.016 3.629 2.016"/>
        <polygon fill="#D7D7D7" points="0 0 2.016 0 2.016 2.016 0 2.016"/>
        <polygon fill="#00CD00" points="116.122 0 118.138 0 118.138 2.016 116.122 2.016"/>
        <polygon fill="#D7D400" points="112.493 0 114.509 0 114.509 2.016 112.493 2.016"/>
        <polygon fill="#FF3C00" points="108.864 0 110.88 0 110.88 2.016 108.864 2.016"/>
        <polygon fill="#00CD00" points="119.75 0 121.766 0 121.766 2.016 119.75 2.016"/>
      </g>
      <g transform="translate(3.93 180.6)">
        <polygon fill="#D8D8D8" points="14.512 0 100.372 0 100.372 2.017 14.512 2.017"/>
        <polygon fill="#D7D7D7" points="3.629 0 5.645 0 5.645 2.016 3.629 2.016"/>
        <polygon fill="#D7D7D7" points="0 0 2.016 0 2.016 2.016 0 2.016"/>
        <polygon fill="#00CD00" points="116.122 0 118.138 0 118.138 2.016 116.122 2.016"/>
        <polygon fill="#D7D400" points="112.493 0 114.509 0 114.509 2.016 112.493 2.016"/>
        <polygon fill="#FF3C00" points="108.864 0 110.88 0 110.88 2.016 108.864 2.016"/>
        <polygon fill="#00CD00" points="119.75 0 121.766 0 121.766 2.016 119.75 2.016"/>
      </g>
      <path fill="#7C7C7C" d="M130,1.51199984 L130,166.017583 C130,166.852637 129.323221,167.529583 128.488372,167.529583 L1.51162782,167.529583 C0.676778826,167.529583 1.02239514e-16,166.852637 0,166.017583 L0,1.51199984 C-1.02239514e-16,0.676945388 0.676778826,1.53397015e-16 1.51162782,0 L128.488372,0 C129.323221,8.00505379e-15 130,0.676945388 130,1.51199984 Z"/>
      <polygon fill="#D7D7D7" points="4.435 161.482 125.899 161.482 125.899 163.498 4.435 163.498"/>
      <polygon fill="#D7D7D7" points="3.931 10.886 125.899 10.886 125.899 12.902 3.931 12.902"/>
      <polygon fill="#D7D7D7" points="3.931 7.258 125.899 7.258 125.899 9.274 3.931 9.274"/>
      <polygon fill="#D7D7D7" points="3.931 3.629 125.899 3.629 125.899 5.645 3.931 5.645"/>
      <path fill="#FFF" d="M4.53488368,16.9452574 L125.465116,16.9452574 C125.799056,16.9452574 126.069767,17.2162092 126.069767,17.5504452 L126.069767,156.743631 C126.069767,157.077867 125.799056,157.348819 125.465116,157.348819 L4.53488368,157.348819 C4.20094409,157.348819 3.93023256,157.077867 3.93023256,156.743631 L3.93023256,17.5504452 C3.93023256,17.2162092 4.20094409,16.9452574 4.53488368,16.9452574 Z"/>
    </g>
    <g fill-rule="nonzero" transform="translate(103 448)">
      <path fill="#326CE5" d="M20.3534035,0.00352492669 C19.9910297,0.0218826534 19.6359804,0.112237028 19.3090845,0.26928739 L5.0585955,7.11679472 C4.31144229,7.4756295 3.7687602,8.15427353 3.5841556,8.96063636 L0.0684639229,24.341868 C-0.0955513019,25.0578438 0.0379040654,25.809549 0.438440808,26.4258123 C0.486512464,26.500381 0.538213078,26.5725592 0.593357237,26.642088 L10.4569774,38.9752991 C10.9741699,39.6217688 11.7583323,39.9981889 12.587534,39.9980264 L28.4054127,39.9943607 C29.2343042,39.9949682 30.0184113,39.6192492 30.5359693,38.9734663 L40.3959444,26.6384223 C40.9134136,25.9916286 41.1072929,25.1449385 40.9226602,24.3382023 L37.4015009,8.95697067 C37.2168963,8.15060784 36.6742142,7.47196381 35.927061,7.11312903 L21.6747495,0.26928739 C21.2635637,0.0717304911 20.8092155,-0.0196525975 20.3534035,0.00352492669 Z"/>
      <path fill="#FFF" d="M20.4946091,5.23796012 C20.0235488,5.23800821 19.6416015,5.66469971 19.6416575,6.1910393 C19.641658,6.1991173 19.6433021,6.20683636 19.6434771,6.21486628 C19.6427831,6.28638299 19.6393479,6.37254135 19.6416575,6.43480762 C19.6528913,6.73838534 19.7186943,6.97073079 19.7583004,7.25042346 C19.8300522,7.84905455 19.8901752,8.34528328 19.8530728,8.8065085 C19.8169899,8.98043226 19.6896047,9.13949443 19.5760458,9.25005689 L19.5559978,9.61296012 C19.0441207,9.65560938 18.5288195,9.73370733 18.0141237,9.85122991 C15.7993882,10.3569296 13.8925401,11.5041959 12.4407773,13.0532094 C12.3465753,12.9885801 12.1817699,12.8696821 12.1327641,12.833268 C11.9804768,12.8539496 11.8265641,12.9012029 11.6260962,12.7837812 C11.2443874,12.5253865 10.8967354,12.168712 10.4760696,11.7390598 C10.2833182,11.5335355 10.1437351,11.3378276 9.91472532,11.1397196 C9.86271889,11.0947302 9.78335152,11.0338809 9.72518051,10.9875935 C9.54614057,10.8440411 9.33496899,10.769176 9.13103044,10.7621537 C8.86882348,10.7531249 8.6164052,10.8562211 8.45122069,11.064573 C8.1575598,11.4349765 8.25157927,12.0011155 8.66081351,12.3292358 C8.664966,12.3325613 8.66938793,12.3351466 8.67357133,12.3384 C8.72980607,12.3842428 8.79866857,12.4429824 8.85035832,12.4813619 C9.09337634,12.6618047 9.31536714,12.7541742 9.55750626,12.8974176 C10.0676442,13.2142393 10.4905549,13.4769402 10.8259984,13.7936786 C10.9569896,13.9340991 10.9798843,14.1815331 10.9973178,14.2885466 L11.2706997,14.5341478 C9.80721434,16.7490264 9.12990133,19.4848493 9.53017098,22.2724176 L9.17295192,22.3768897 C9.07880355,22.4991543 8.94576584,22.6915372 8.80661721,22.7489572 C8.36774049,22.8879724 7.87380947,22.9390211 7.27750092,23.0018897 C6.99753974,23.0253003 6.75597976,23.0113296 6.45917766,23.0678721 C6.39385294,23.0803167 6.30283411,23.1041636 6.23135939,23.1210246 C6.22887489,23.1215525 6.2265537,23.1222915 6.2240692,23.1228545 C6.22017333,23.1237636 6.21505503,23.1256639 6.21131138,23.1265202 C5.70857206,23.248678 5.38561104,23.7133824 5.48958307,24.1712416 C5.5935796,24.6292082 6.08464529,24.9077091 6.59040099,24.7980745 C6.59405192,24.7972358 6.59935334,24.797095 6.60315882,24.7962446 C6.60886849,24.7949308 6.61389522,24.7921449 6.61956173,24.790749 C6.69006365,24.7751853 6.77841603,24.7578692 6.84008983,24.7412622 C7.13189202,24.6626915 7.34322573,24.5472469 7.60555924,24.4461742 C8.1699327,24.24261 8.63736711,24.0725543 9.09275697,24.0062915 C9.28295381,23.9913109 9.48334233,24.1243067 9.5830219,24.1804117 L9.95482133,24.1162622 C10.8104079,26.7838762 12.6034423,28.940017 14.8738736,30.2929484 L14.7189572,30.6668487 C14.7747953,30.8120346 14.8363822,31.0084733 14.7947879,31.1518528 C14.6292319,31.5835947 14.345656,32.0392997 14.0227445,32.5473472 C13.8663934,32.7820639 13.7063779,32.9642158 13.5652854,33.2328311 C13.5315231,33.2971062 13.4885239,33.3958411 13.4559326,33.4637695 C13.2367115,33.9354622 13.3975155,34.4787372 13.8186193,34.6826111 C14.2423686,34.8877654 14.7683537,34.6713889 14.9959842,34.1987402 C14.9963341,34.1980716 14.9974831,34.1975789 14.9978038,34.1969103 C14.9980371,34.1963824 14.9975706,34.1955906 14.9978038,34.1950804 C15.0302265,34.1280686 15.0761605,34.0399853 15.1035115,33.9769718 C15.2243612,33.6985543 15.2645727,33.4599595 15.3495553,33.1906815 C15.5752372,32.6205853 15.6992316,32.02241 16.0099049,31.649678 C16.0949773,31.5476117 16.2336733,31.5083584 16.3774713,31.4696405 L16.5706612,31.1177343 C18.5499896,31.8817695 20.7655305,32.0867935 22.9787338,31.581444 C23.4836211,31.4661613 23.9710411,31.3169601 24.4422384,31.1378956 C24.4965345,31.2347478 24.5974394,31.4209279 24.624493,31.4678076 C24.7706227,31.5156188 24.9301232,31.5403085 25.0600816,31.7335701 C25.2925154,32.1329238 25.4514712,32.6053683 25.6451189,33.1760188 C25.7301155,33.4452921 25.7721209,33.6838974 25.8929852,33.9623091 C25.9205328,34.0257666 25.966237,34.1150868 25.9986929,34.1822504 C26.2258445,34.6564346 26.7534965,34.8735507 27.1778803,34.6679543 C27.5989322,34.4639718 27.7599135,33.920746 27.540567,33.4491126 C27.5079717,33.3811865 27.4631569,33.2824475 27.4293917,33.2181742 C27.2882852,32.9495666 27.1282954,32.7692311 26.9719326,32.5345232 C26.6489943,32.0264927 26.3811546,31.6044528 26.2155759,31.1727196 C26.1463419,30.9500469 26.2272565,30.8115619 26.2811876,30.6668545 C26.2488903,30.6296246 26.1797776,30.4193419 26.1390289,30.3204469 C28.4985644,28.9193818 30.238945,26.6828346 31.0562587,24.0997724 C31.1666262,24.1172164 31.3584538,24.1513478 31.4207679,24.163922 C31.5490483,24.078837 31.6669977,23.9678211 31.898275,23.9861361 C32.3536678,24.0523748 32.8210888,24.2224839 33.3854728,24.4260188 C33.6478115,24.527078 33.8591365,24.6443842 34.1509422,24.7229396 C34.2126166,24.7395431 34.3009672,24.7550334 34.3714703,24.7705935 C34.3771391,24.7719894 34.3821606,24.7747812 34.3878732,24.7760891 C34.3916816,24.7769455 34.3969801,24.7770804 34.400631,24.7779191 C34.9064159,24.8874176 35.397569,24.6090798 35.5014489,24.1510862 C35.6053043,23.6932 35.2824926,23.2283877 34.7797206,23.1063648 C34.7065896,23.0896416 34.6028753,23.0612399 34.5318543,23.0477138 C34.2350493,22.9911871 33.9934934,23.0051273 33.7135311,22.9817314 C33.1172196,22.9188938 32.6232985,22.8677906 32.1844148,22.7287988 C32.0054693,22.6589877 31.878167,22.4448551 31.8162575,22.3567314 L31.4717963,22.2559249 C31.6503918,20.9565455 31.6022352,19.6042334 31.2931868,18.2511595 C30.9812608,16.8854874 30.4300073,15.6364475 29.6948137,14.5359836 C29.7831737,14.4552041 29.9500396,14.3066047 29.9973564,14.2628897 C30.0111879,14.1089795 29.9993043,13.9476094 30.1577405,13.7771859 C30.4931671,13.4604299 30.9161116,13.1977736 31.4262326,12.8809249 C31.6683642,12.7376686 31.8921944,12.6453249 32.1352031,12.4648692 C32.1901565,12.4240622 32.2651959,12.3594387 32.3229254,12.3127431 C32.7320727,11.9845126 32.8262736,11.4184076 32.5325182,11.0480804 C32.2387628,10.6777531 31.6695283,10.6428704 31.2603809,10.9711009 C31.2021434,11.017485 31.1231196,11.0779935 31.0708361,11.123227 C30.8418368,11.3213478 30.7004102,11.5170328 30.5076693,11.7225672 C30.0870263,12.1522416 29.7393381,12.5107062 29.3576427,12.7691214 C29.1922424,12.8659578 28.9499779,12.8324516 28.8400366,12.8259396 L28.5156234,13.0587109 C26.6657361,11.1079443 24.1470728,9.86073666 21.435043,9.61845865 C21.4274577,9.50416422 21.4175203,9.29756891 21.4149949,9.23539413 C21.3039678,9.12855249 21.1698453,9.03733783 21.1361454,8.8065085 C21.099043,8.34528328 21.1609886,7.84905455 21.2327403,7.25042346 C21.2723464,6.97073079 21.3381494,6.73838534 21.3493833,6.43480762 C21.3519378,6.36579707 21.3478378,6.26565748 21.3475637,6.1910393 C21.3475077,5.66469971 20.9656723,5.23791202 20.494612,5.23796012 L20.4946091,5.23796012 Z M19.426597,11.8911859 L19.1732631,16.3908194 L19.1550376,16.3999836 C19.1380462,16.8025261 18.8086104,17.1239572 18.4041486,17.1239572 C18.2384683,17.1239572 18.0855418,17.0704504 17.9612698,16.9791625 L17.9539797,16.9828282 L14.2851941,14.3673589 C15.4127612,13.2523355 16.8550082,12.4283331 18.5171464,12.0488106 C18.8207675,11.9794833 19.1242532,11.9280422 19.426597,11.8911859 Z M21.5644437,11.8911859 C23.5050017,12.1312047 25.2996435,13.0148704 26.6748634,14.3691918 L23.0297709,16.9681654 L23.0170131,16.9626698 C22.6934776,17.2003056 22.2376381,17.1413437 21.9854519,16.8233736 C21.8821459,16.693112 21.8279419,16.539949 21.8214228,16.3853238 L21.8177777,16.3834938 L21.5644437,11.8911859 Z M12.9547353,16.0480774 L16.3045753,19.0612739 L16.3009302,19.0796023 C16.6032904,19.3439408 16.6478777,19.8026487 16.3957026,20.1206581 C16.2924036,20.2509249 16.1541304,20.3382968 16.0056777,20.3790891 L16.0020326,20.3937519 L11.7081137,21.6400862 C11.4895668,19.6303988 11.9605612,17.6768229 12.9547353,16.0480774 Z M28.0107898,16.0499073 C28.5085111,16.8612012 28.8854107,17.7673349 29.1097851,18.7496874 C29.3314686,19.720261 29.3871032,20.6890991 29.2956848,21.6254205 L24.9798954,20.3754205 L24.9762503,20.3570921 C24.589783,20.2508727 24.3522729,19.8555308 24.4422442,19.4589982 C24.4791052,19.2965572 24.5648488,19.1591367 24.6809978,19.0576053 L24.6791782,19.0484411 L28.0107927,16.0499073 L28.0107898,16.0499073 Z M19.8075092,19.2940422 L21.1798865,19.2940422 L22.0328381,20.3662563 L21.7266504,21.7042328 L20.4946091,22.2999073 L19.2589228,21.7024 L18.952735,20.3644235 L19.8075092,19.2940422 Z M24.2071358,22.9633971 C24.2654555,22.9604352 24.3235209,22.9657196 24.3802777,22.976227 L24.3875678,22.9670628 L28.829113,23.7221947 C28.179091,25.5587402 26.9352507,27.1497713 25.2733253,28.2144968 L23.5491966,24.0264469 L23.5546613,24.0191155 C23.3962829,23.6490282 23.5547779,23.2150358 23.9191706,23.0385437 C24.0124645,22.9933584 24.1099337,22.9683378 24.2071329,22.9633971 L24.2071358,22.9633971 Z M16.7474541,22.9817255 C17.0864033,22.9865056 17.3904262,23.2230891 17.4691824,23.5700686 C17.5060526,23.7325073 17.4881077,23.8934557 17.4272638,24.0356111 L17.4400216,24.0521067 L15.7341183,28.1980012 C14.1391915,27.1687578 12.8688266,25.6276768 12.1892659,23.7368604 L16.5925376,22.9853941 L16.5998278,22.9945584 C16.6490809,22.9854434 16.6990326,22.9810452 16.7474541,22.9817284 L16.7474541,22.9817255 Z M20.4672709,24.7980774 C20.5853398,24.7937138 20.7051438,24.8180762 20.8190223,24.873224 C20.9682967,24.9455132 21.0836111,25.0593349 21.1561934,25.1958047 L21.1725963,25.1958047 L23.3432489,29.1400862 C23.0615392,29.2350557 22.7719264,29.3162199 22.4757169,29.3838545 C20.8156234,29.7629103 19.1608044,29.6480581 17.6623723,29.1345877 L19.8275572,25.1976375 L19.8312023,25.1976375 C19.9611233,24.9533906 20.2075199,24.8076745 20.4672709,24.7980774 Z"/>
    </g>
    <g fill-rule="nonzero" transform="translate(288 448)">
      <path fill="#326CE5" d="M20.3534035,0.00352492669 C19.9910297,0.0218826534 19.6359804,0.112237028 19.3090845,0.26928739 L5.0585955,7.11679472 C4.31144229,7.4756295 3.7687602,8.15427353 3.5841556,8.96063636 L0.0684639229,24.341868 C-0.0955513019,25.0578438 0.0379040654,25.809549 0.438440808,26.4258123 C0.486512464,26.500381 0.538213078,26.5725592 0.593357237,26.642088 L10.4569774,38.9752991 C10.9741699,39.6217688 11.7583323,39.9981889 12.587534,39.9980264 L28.4054127,39.9943607 C29.2343042,39.9949682 30.0184113,39.6192492 30.5359693,38.9734663 L40.3959444,26.6384223 C40.9134136,25.9916286 41.1072929,25.1449385 40.9226602,24.3382023 L37.4015009,8.95697067 C37.2168963,8.15060784 36.6742142,7.47196381 35.927061,7.11312903 L21.6747495,0.26928739 C21.2635637,0.0717304911 20.8092155,-0.0196525975 20.3534035,0.00352492669 Z"/>
      <path fill="#FFF" d="M20.4946091,5.23796012 C20.0235488,5.23800821 19.6416015,5.66469971 19.6416575,6.1910393 C19.641658,6.1991173 19.6433021,6.20683636 19.6434771,6.21486628 C19.6427831,6.28638299 19.6393479,6.37254135 19.6416575,6.43480762 C19.6528913,6.73838534 19.7186943,6.97073079 19.7583004,7.25042346 C19.8300522,7.84905455 19.8901752,8.34528328 19.8530728,8.8065085 C19.8169899,8.98043226 19.6896047,9.13949443 19.5760458,9.25005689 L19.5559978,9.61296012 C19.0441207,9.65560938 18.5288195,9.73370733 18.0141237,9.85122991 C15.7993882,10.3569296 13.8925401,11.5041959 12.4407773,13.0532094 C12.3465753,12.9885801 12.1817699,12.8696821 12.1327641,12.833268 C11.9804768,12.8539496 11.8265641,12.9012029 11.6260962,12.7837812 C11.2443874,12.5253865 10.8967354,12.168712 10.4760696,11.7390598 C10.2833182,11.5335355 10.1437351,11.3378276 9.91472532,11.1397196 C9.86271889,11.0947302 9.78335152,11.0338809 9.72518051,10.9875935 C9.54614057,10.8440411 9.33496899,10.769176 9.13103044,10.7621537 C8.86882348,10.7531249 8.6164052,10.8562211 8.45122069,11.064573 C8.1575598,11.4349765 8.25157927,12.0011155 8.66081351,12.3292358 C8.664966,12.3325613 8.66938793,12.3351466 8.67357133,12.3384 C8.72980607,12.3842428 8.79866857,12.4429824 8.85035832,12.4813619 C9.09337634,12.6618047 9.31536714,12.7541742 9.55750626,12.8974176 C10.0676442,13.2142393 10.4905549,13.4769402 10.8259984,13.7936786 C10.9569896,13.9340991 10.9798843,14.1815331 10.9973178,14.2885466 L11.2706997,14.5341478 C9.80721434,16.7490264 9.12990133,19.4848493 9.53017098,22.2724176 L9.17295192,22.3768897 C9.07880355,22.4991543 8.94576584,22.6915372 8.80661721,22.7489572 C8.36774049,22.8879724 7.87380947,22.9390211 7.27750092,23.0018897 C6.99753974,23.0253003 6.75597976,23.0113296 6.45917766,23.0678721 C6.39385294,23.0803167 6.30283411,23.1041636 6.23135939,23.1210246 C6.22887489,23.1215525 6.2265537,23.1222915 6.2240692,23.1228545 C6.22017333,23.1237636 6.21505503,23.1256639 6.21131138,23.1265202 C5.70857206,23.248678 5.38561104,23.7133824 5.48958307,24.1712416 C5.5935796,24.6292082 6.08464529,24.9077091 6.59040099,24.7980745 C6.59405192,24.7972358 6.59935334,24.797095 6.60315882,24.7962446 C6.60886849,24.7949308 6.61389522,24.7921449 6.61956173,24.790749 C6.69006365,24.7751853 6.77841603,24.7578692 6.84008983,24.7412622 C7.13189202,24.6626915 7.34322573,24.5472469 7.60555924,24.4461742 C8.1699327,24.24261 8.63736711,24.0725543 9.09275697,24.0062915 C9.28295381,23.9913109 9.48334233,24.1243067 9.5830219,24.1804117 L9.95482133,24.1162622 C10.8104079,26.7838762 12.6034423,28.940017 14.8738736,30.2929484 L14.7189572,30.6668487 C14.7747953,30.8120346 14.8363822,31.0084733 14.7947879,31.1518528 C14.6292319,31.5835947 14.345656,32.0392997 14.0227445,32.5473472 C13.8663934,32.7820639 13.7063779,32.9642158 13.5652854,33.2328311 C13.5315231,33.2971062 13.4885239,33.3958411 13.4559326,33.4637695 C13.2367115,33.9354622 13.3975155,34.4787372 13.8186193,34.6826111 C14.2423686,34.8877654 14.7683537,34.6713889 14.9959842,34.1987402 C14.9963341,34.1980716 14.9974831,34.1975789 14.9978038,34.1969103 C14.9980371,34.1963824 14.9975706,34.1955906 14.9978038,34.1950804 C15.0302265,34.1280686 15.0761605,34.0399853 15.1035115,33.9769718 C15.2243612,33.6985543 15.2645727,33.4599595 15.3495553,33.1906815 C15.5752372,32.6205853 15.6992316,32.02241 16.0099049,31.649678 C16.0949773,31.5476117 16.2336733,31.5083584 16.3774713,31.4696405 L16.5706612,31.1177343 C18.5499896,31.8817695 20.7655305,32.0867935 22.9787338,31.581444 C23.4836211,31.4661613 23.9710411,31.3169601 24.4422384,31.1378956 C24.4965345,31.2347478 24.5974394,31.4209279 24.624493,31.4678076 C24.7706227,31.5156188 24.9301232,31.5403085 25.0600816,31.7335701 C25.2925154,32.1329238 25.4514712,32.6053683 25.6451189,33.1760188 C25.7301155,33.4452921 25.7721209,33.6838974 25.8929852,33.9623091 C25.9205328,34.0257666 25.966237,34.1150868 25.9986929,34.1822504 C26.2258445,34.6564346 26.7534965,34.8735507 27.1778803,34.6679543 C27.5989322,34.4639718 27.7599135,33.920746 27.540567,33.4491126 C27.5079717,33.3811865 27.4631569,33.2824475 27.4293917,33.2181742 C27.2882852,32.9495666 27.1282954,32.7692311 26.9719326,32.5345232 C26.6489943,32.0264927 26.3811546,31.6044528 26.2155759,31.1727196 C26.1463419,30.9500469 26.2272565,30.8115619 26.2811876,30.6668545 C26.2488903,30.6296246 26.1797776,30.4193419 26.1390289,30.3204469 C28.4985644,28.9193818 30.238945,26.6828346 31.0562587,24.0997724 C31.1666262,24.1172164 31.3584538,24.1513478 31.4207679,24.163922 C31.5490483,24.078837 31.6669977,23.9678211 31.898275,23.9861361 C32.3536678,24.0523748 32.8210888,24.2224839 33.3854728,24.4260188 C33.6478115,24.527078 33.8591365,24.6443842 34.1509422,24.7229396 C34.2126166,24.7395431 34.3009672,24.7550334 34.3714703,24.7705935 C34.3771391,24.7719894 34.3821606,24.7747812 34.3878732,24.7760891 C34.3916816,24.7769455 34.3969801,24.7770804 34.400631,24.7779191 C34.9064159,24.8874176 35.397569,24.6090798 35.5014489,24.1510862 C35.6053043,23.6932 35.2824926,23.2283877 34.7797206,23.1063648 C34.7065896,23.0896416 34.6028753,23.0612399 34.5318543,23.0477138 C34.2350493,22.9911871 33.9934934,23.0051273 33.7135311,22.9817314 C33.1172196,22.9188938 32.6232985,22.8677906 32.1844148,22.7287988 C32.0054693,22.6589877 31.878167,22.4448551 31.8162575,22.3567314 L31.4717963,22.2559249 C31.6503918,20.9565455 31.6022352,19.6042334 31.2931868,18.2511595 C30.9812608,16.8854874 30.4300073,15.6364475 29.6948137,14.5359836 C29.7831737,14.4552041 29.9500396,14.3066047 29.9973564,14.2628897 C30.0111879,14.1089795 29.9993043,13.9476094 30.1577405,13.7771859 C30.4931671,13.4604299 30.9161116,13.1977736 31.4262326,12.8809249 C31.6683642,12.7376686 31.8921944,12.6453249 32.1352031,12.4648692 C32.1901565,12.4240622 32.2651959,12.3594387 32.3229254,12.3127431 C32.7320727,11.9845126 32.8262736,11.4184076 32.5325182,11.0480804 C32.2387628,10.6777531 31.6695283,10.6428704 31.2603809,10.9711009 C31.2021434,11.017485 31.1231196,11.0779935 31.0708361,11.123227 C30.8418368,11.3213478 30.7004102,11.5170328 30.5076693,11.7225672 C30.0870263,12.1522416 29.7393381,12.5107062 29.3576427,12.7691214 C29.1922424,12.8659578 28.9499779,12.8324516 28.8400366,12.8259396 L28.5156234,13.0587109 C26.6657361,11.1079443 24.1470728,9.86073666 21.435043,9.61845865 C21.4274577,9.50416422 21.4175203,9.29756891 21.4149949,9.23539413 C21.3039678,9.12855249 21.1698453,9.03733783 21.1361454,8.8065085 C21.099043,8.34528328 21.1609886,7.84905455 21.2327403,7.25042346 C21.2723464,6.97073079 21.3381494,6.73838534 21.3493833,6.43480762 C21.3519378,6.36579707 21.3478378,6.26565748 21.3475637,6.1910393 C21.3475077,5.66469971 20.9656723,5.23791202 20.494612,5.23796012 L20.4946091,5.23796012 Z M19.426597,11.8911859 L19.1732631,16.3908194 L19.1550376,16.3999836 C19.1380462,16.8025261 18.8086104,17.1239572 18.4041486,17.1239572 C18.2384683,17.1239572 18.0855418,17.0704504 17.9612698,16.9791625 L17.9539797,16.9828282 L14.2851941,14.3673589 C15.4127612,13.2523355 16.8550082,12.4283331 18.5171464,12.0488106 C18.8207675,11.9794833 19.1242532,11.9280422 19.426597,11.8911859 Z M21.5644437,11.8911859 C23.5050017,12.1312047 25.2996435,13.0148704 26.6748634,14.3691918 L23.0297709,16.9681654 L23.0170131,16.9626698 C22.6934776,17.2003056 22.2376381,17.1413437 21.9854519,16.8233736 C21.8821459,16.693112 21.8279419,16.539949 21.8214228,16.3853238 L21.8177777,16.3834938 L21.5644437,11.8911859 Z M12.9547353,16.0480774 L16.3045753,19.0612739 L16.3009302,19.0796023 C16.6032904,19.3439408 16.6478777,19.8026487 16.3957026,20.1206581 C16.2924036,20.2509249 16.1541304,20.3382968 16.0056777,20.3790891 L16.0020326,20.3937519 L11.7081137,21.6400862 C11.4895668,19.6303988 11.9605612,17.6768229 12.9547353,16.0480774 Z M28.0107898,16.0499073 C28.5085111,16.8612012 28.8854107,17.7673349 29.1097851,18.7496874 C29.3314686,19.720261 29.3871032,20.6890991 29.2956848,21.6254205 L24.9798954,20.3754205 L24.9762503,20.3570921 C24.589783,20.2508727 24.3522729,19.8555308 24.4422442,19.4589982 C24.4791052,19.2965572 24.5648488,19.1591367 24.6809978,19.0576053 L24.6791782,19.0484411 L28.0107927,16.0499073 L28.0107898,16.0499073 Z M19.8075092,19.2940422 L21.1798865,19.2940422 L22.0328381,20.3662563 L21.7266504,21.7042328 L20.4946091,22.2999073 L19.2589228,21.7024 L18.952735,20.3644235 L19.8075092,19.2940422 Z M24.2071358,22.9633971 C24.2654555,22.9604352 24.3235209,22.9657196 24.3802777,22.976227 L24.3875678,22.9670628 L28.829113,23.7221947 C28.179091,25.5587402 26.9352507,27.1497713 25.2733253,28.2144968 L23.5491966,24.0264469 L23.5546613,24.0191155 C23.3962829,23.6490282 23.5547779,23.2150358 23.9191706,23.0385437 C24.0124645,22.9933584 24.1099337,22.9683378 24.2071329,22.9633971 L24.2071358,22.9633971 Z M16.7474541,22.9817255 C17.0864033,22.9865056 17.3904262,23.2230891 17.4691824,23.5700686 C17.5060526,23.7325073 17.4881077,23.8934557 17.4272638,24.0356111 L17.4400216,24.0521067 L15.7341183,28.1980012 C14.1391915,27.1687578 12.8688266,25.6276768 12.1892659,23.7368604 L16.5925376,22.9853941 L16.5998278,22.9945584 C16.6490809,22.9854434 16.6990326,22.9810452 16.7474541,22.9817284 L16.7474541,22.9817255 Z M20.4672709,24.7980774 C20.5853398,24.7937138 20.7051438,24.8180762 20.8190223,24.873224 C20.9682967,24.9455132 21.0836111,25.0593349 21.1561934,25.1958047 L21.1725963,25.1958047 L23.3432489,29.1400862 C23.0615392,29.2350557 22.7719264,29.3162199 22.4757169,29.3838545 C20.8156234,29.7629103 19.1608044,29.6480581 17.6623723,29.1345877 L19.8275572,25.1976375 L19.8312023,25.1976375 C19.9611233,24.9533906 20.2075199,24.8076745 20.4672709,24.7980774 Z"/>
    </g>
    <g fill-rule="nonzero" transform="translate(475 448)">
      <path fill="#326CE5" d="M20.3534035,0.00352492669 C19.9910297,0.0218826534 19.6359804,0.112237028 19.3090845,0.26928739 L5.0585955,7.11679472 C4.31144229,7.4756295 3.7687602,8.15427353 3.5841556,8.96063636 L0.0684639229,24.341868 C-0.0955513019,25.0578438 0.0379040654,25.809549 0.438440808,26.4258123 C0.486512464,26.500381 0.538213078,26.5725592 0.593357237,26.642088 L10.4569774,38.9752991 C10.9741699,39.6217688 11.7583323,39.9981889 12.587534,39.9980264 L28.4054127,39.9943607 C29.2343042,39.9949682 30.0184113,39.6192492 30.5359693,38.9734663 L40.3959444,26.6384223 C40.9134136,25.9916286 41.1072929,25.1449385 40.9226602,24.3382023 L37.4015009,8.95697067 C37.2168963,8.15060784 36.6742142,7.47196381 35.927061,7.11312903 L21.6747495,0.26928739 C21.2635637,0.0717304911 20.8092155,-0.0196525975 20.3534035,0.00352492669 Z"/>
      <path fill="#FFF" d="M20.4946091,5.23796012 C20.0235488,5.23800821 19.6416015,5.66469971 19.6416575,6.1910393 C19.641658,6.1991173 19.6433021,6.20683636 19.6434771,6.21486628 C19.6427831,6.28638299 19.6393479,6.37254135 19.6416575,6.43480762 C19.6528913,6.73838534 19.7186943,6.97073079 19.7583004,7.25042346 C19.8300522,7.84905455 19.8901752,8.34528328 19.8530728,8.8065085 C19.8169899,8.98043226 19.6896047,9.13949443 19.5760458,9.25005689 L19.5559978,9.61296012 C19.0441207,9.65560938 18.5288195,9.73370733 18.0141237,9.85122991 C15.7993882,10.3569296 13.8925401,11.5041959 12.4407773,13.0532094 C12.3465753,12.9885801 12.1817699,12.8696821 12.1327641,12.833268 C11.9804768,12.8539496 11.8265641,12.9012029 11.6260962,12.7837812 C11.2443874,12.5253865 10.8967354,12.168712 10.4760696,11.7390598 C10.2833182,11.5335355 10.1437351,11.3378276 9.91472532,11.1397196 C9.86271889,11.0947302 9.78335152,11.0338809 9.72518051,10.9875935 C9.54614057,10.8440411 9.33496899,10.769176 9.13103044,10.7621537 C8.86882348,10.7531249 8.6164052,10.8562211 8.45122069,11.064573 C8.1575598,11.4349765 8.25157927,12.0011155 8.66081351,12.3292358 C8.664966,12.3325613 8.66938793,12.3351466 8.67357133,12.3384 C8.72980607,12.3842428 8.79866857,12.4429824 8.85035832,12.4813619 C9.09337634,12.6618047 9.31536714,12.7541742 9.55750626,12.8974176 C10.0676442,13.2142393 10.4905549,13.4769402 10.8259984,13.7936786 C10.9569896,13.9340991 10.9798843,14.1815331 10.9973178,14.2885466 L11.2706997,14.5341478 C9.80721434,16.7490264 9.12990133,19.4848493 9.53017098,22.2724176 L9.17295192,22.3768897 C9.07880355,22.4991543 8.94576584,22.6915372 8.80661721,22.7489572 C8.36774049,22.8879724 7.87380947,22.9390211 7.27750092,23.0018897 C6.99753974,23.0253003 6.75597976,23.0113296 6.45917766,23.0678721 C6.39385294,23.0803167 6.30283411,23.1041636 6.23135939,23.1210246 C6.22887489,23.1215525 6.2265537,23.1222915 6.2240692,23.1228545 C6.22017333,23.1237636 6.21505503,23.1256639 6.21131138,23.1265202 C5.70857206,23.248678 5.38561104,23.7133824 5.48958307,24.1712416 C5.5935796,24.6292082 6.08464529,24.9077091 6.59040099,24.7980745 C6.59405192,24.7972358 6.59935334,24.797095 6.60315882,24.7962446 C6.60886849,24.7949308 6.61389522,24.7921449 6.61956173,24.790749 C6.69006365,24.7751853 6.77841603,24.7578692 6.84008983,24.7412622 C7.13189202,24.6626915 7.34322573,24.5472469 7.60555924,24.4461742 C8.1699327,24.24261 8.63736711,24.0725543 9.09275697,24.0062915 C9.28295381,23.9913109 9.48334233,24.1243067 9.5830219,24.1804117 L9.95482133,24.1162622 C10.8104079,26.7838762 12.6034423,28.940017 14.8738736,30.2929484 L14.7189572,30.6668487 C14.7747953,30.8120346 14.8363822,31.0084733 14.7947879,31.1518528 C14.6292319,31.5835947 14.345656,32.0392997 14.0227445,32.5473472 C13.8663934,32.7820639 13.7063779,32.9642158 13.5652854,33.2328311 C13.5315231,33.2971062 13.4885239,33.3958411 13.4559326,33.4637695 C13.2367115,33.9354622 13.3975155,34.4787372 13.8186193,34.6826111 C14.2423686,34.8877654 14.7683537,34.6713889 14.9959842,34.1987402 C14.9963341,34.1980716 14.9974831,34.1975789 14.9978038,34.1969103 C14.9980371,34.1963824 14.9975706,34.1955906 14.9978038,34.1950804 C15.0302265,34.1280686 15.0761605,34.0399853 15.1035115,33.9769718 C15.2243612,33.6985543 15.2645727,33.4599595 15.3495553,33.1906815 C15.5752372,32.6205853 15.6992316,32.02241 16.0099049,31.649678 C16.0949773,31.5476117 16.2336733,31.5083584 16.3774713,31.4696405 L16.5706612,31.1177343 C18.5499896,31.8817695 20.7655305,32.0867935 22.9787338,31.581444 C23.4836211,31.4661613 23.9710411,31.3169601 24.4422384,31.1378956 C24.4965345,31.2347478 24.5974394,31.4209279 24.624493,31.4678076 C24.7706227,31.5156188 24.9301232,31.5403085 25.0600816,31.7335701 C25.2925154,32.1329238 25.4514712,32.6053683 25.6451189,33.1760188 C25.7301155,33.4452921 25.7721209,33.6838974 25.8929852,33.9623091 C25.9205328,34.0257666 25.966237,34.1150868 25.9986929,34.1822504 C26.2258445,34.6564346 26.7534965,34.8735507 27.1778803,34.6679543 C27.5989322,34.4639718 27.7599135,33.920746 27.540567,33.4491126 C27.5079717,33.3811865 27.4631569,33.2824475 27.4293917,33.2181742 C27.2882852,32.9495666 27.1282954,32.7692311 26.9719326,32.5345232 C26.6489943,32.0264927 26.3811546,31.6044528 26.2155759,31.1727196 C26.1463419,30.9500469 26.2272565,30.8115619 26.2811876,30.6668545 C26.2488903,30.6296246 26.1797776,30.4193419 26.1390289,30.3204469 C28.4985644,28.9193818 30.238945,26.6828346 31.0562587,24.0997724 C31.1666262,24.1172164 31.3584538,24.1513478 31.4207679,24.163922 C31.5490483,24.078837 31.6669977,23.9678211 31.898275,23.9861361 C32.3536678,24.0523748 32.8210888,24.2224839 33.3854728,24.4260188 C33.6478115,24.527078 33.8591365,24.6443842 34.1509422,24.7229396 C34.2126166,24.7395431 34.3009672,24.7550334 34.3714703,24.7705935 C34.3771391,24.7719894 34.3821606,24.7747812 34.3878732,24.7760891 C34.3916816,24.7769455 34.3969801,24.7770804 34.400631,24.7779191 C34.9064159,24.8874176 35.397569,24.6090798 35.5014489,24.1510862 C35.6053043,23.6932 35.2824926,23.2283877 34.7797206,23.1063648 C34.7065896,23.0896416 34.6028753,23.0612399 34.5318543,23.0477138 C34.2350493,22.9911871 33.9934934,23.0051273 33.7135311,22.9817314 C33.1172196,22.9188938 32.6232985,22.8677906 32.1844148,22.7287988 C32.0054693,22.6589877 31.878167,22.4448551 31.8162575,22.3567314 L31.4717963,22.2559249 C31.6503918,20.9565455 31.6022352,19.6042334 31.2931868,18.2511595 C30.9812608,16.8854874 30.4300073,15.6364475 29.6948137,14.5359836 C29.7831737,14.4552041 29.9500396,14.3066047 29.9973564,14.2628897 C30.0111879,14.1089795 29.9993043,13.9476094 30.1577405,13.7771859 C30.4931671,13.4604299 30.9161116,13.1977736 31.4262326,12.8809249 C31.6683642,12.7376686 31.8921944,12.6453249 32.1352031,12.4648692 C32.1901565,12.4240622 32.2651959,12.3594387 32.3229254,12.3127431 C32.7320727,11.9845126 32.8262736,11.4184076 32.5325182,11.0480804 C32.2387628,10.6777531 31.6695283,10.6428704 31.2603809,10.9711009 C31.2021434,11.017485 31.1231196,11.0779935 31.0708361,11.123227 C30.8418368,11.3213478 30.7004102,11.5170328 30.5076693,11.7225672 C30.0870263,12.1522416 29.7393381,12.5107062 29.3576427,12.7691214 C29.1922424,12.8659578 28.9499779,12.8324516 28.8400366,12.8259396 L28.5156234,13.0587109 C26.6657361,11.1079443 24.1470728,9.86073666 21.435043,9.61845865 C21.4274577,9.50416422 21.4175203,9.29756891 21.4149949,9.23539413 C21.3039678,9.12855249 21.1698453,9.03733783 21.1361454,8.8065085 C21.099043,8.34528328 21.1609886,7.84905455 21.2327403,7.25042346 C21.2723464,6.97073079 21.3381494,6.73838534 21.3493833,6.43480762 C21.3519378,6.36579707 21.3478378,6.26565748 21.3475637,6.1910393 C21.3475077,5.66469971 20.9656723,5.23791202 20.494612,5.23796012 L20.4946091,5.23796012 Z M19.426597,11.8911859 L19.1732631,16.3908194 L19.1550376,16.3999836 C19.1380462,16.8025261 18.8086104,17.1239572 18.4041486,17.1239572 C18.2384683,17.1239572 18.0855418,17.0704504 17.9612698,16.9791625 L17.9539797,16.9828282 L14.2851941,14.3673589 C15.4127612,13.2523355 16.8550082,12.4283331 18.5171464,12.0488106 C18.8207675,11.9794833 19.1242532,11.9280422 19.426597,11.8911859 Z M21.5644437,11.8911859 C23.5050017,12.1312047 25.2996435,13.0148704 26.6748634,14.3691918 L23.0297709,16.9681654 L23.0170131,16.9626698 C22.6934776,17.2003056 22.2376381,17.1413437 21.9854519,16.8233736 C21.8821459,16.693112 21.8279419,16.539949 21.8214228,16.3853238 L21.8177777,16.3834938 L21.5644437,11.8911859 Z M12.9547353,16.0480774 L16.3045753,19.0612739 L16.3009302,19.0796023 C16.6032904,19.3439408 16.6478777,19.8026487 16.3957026,20.1206581 C16.2924036,20.2509249 16.1541304,20.3382968 16.0056777,20.3790891 L16.0020326,20.3937519 L11.7081137,21.6400862 C11.4895668,19.6303988 11.9605612,17.6768229 12.9547353,16.0480774 Z M28.0107898,16.0499073 C28.5085111,16.8612012 28.8854107,17.7673349 29.1097851,18.7496874 C29.3314686,19.720261 29.3871032,20.6890991 29.2956848,21.6254205 L24.9798954,20.3754205 L24.9762503,20.3570921 C24.589783,20.2508727 24.3522729,19.8555308 24.4422442,19.4589982 C24.4791052,19.2965572 24.5648488,19.1591367 24.6809978,19.0576053 L24.6791782,19.0484411 L28.0107927,16.0499073 L28.0107898,16.0499073 Z M19.8075092,19.2940422 L21.1798865,19.2940422 L22.0328381,20.3662563 L21.7266504,21.7042328 L20.4946091,22.2999073 L19.2589228,21.7024 L18.952735,20.3644235 L19.8075092,19.2940422 Z M24.2071358,22.9633971 C24.2654555,22.9604352 24.3235209,22.9657196 24.3802777,22.976227 L24.3875678,22.9670628 L28.829113,23.7221947 C28.179091,25.5587402 26.9352507,27.1497713 25.2733253,28.2144968 L23.5491966,24.0264469 L23.5546613,24.0191155 C23.3962829,23.6490282 23.5547779,23.2150358 23.9191706,23.0385437 C24.0124645,22.9933584 24.1099337,22.9683378 24.2071329,22.9633971 L24.2071358,22.9633971 Z M16.7474541,22.9817255 C17.0864033,22.9865056 17.3904262,23.2230891 17.4691824,23.5700686 C17.5060526,23.7325073 17.4881077,23.8934557 17.4272638,24.0356111 L17.4400216,24.0521067 L15.7341183,28.1980012 C14.1391915,27.1687578 12.8688266,25.6276768 12.1892659,23.7368604 L16.5925376,22.9853941 L16.5998278,22.9945584 C16.6490809,22.9854434 16.6990326,22.9810452 16.7474541,22.9817284 L16.7474541,22.9817255 Z M20.4672709,24.7980774 C20.5853398,24.7937138 20.7051438,24.8180762 20.8190223,24.873224 C20.9682967,24.9455132 21.0836111,25.0593349 21.1561934,25.1958047 L21.1725963,25.1958047 L23.3432489,29.1400862 C23.0615392,29.2350557 22.7719264,29.3162199 22.4757169,29.3838545 C20.8156234,29.7629103 19.1608044,29.6480581 17.6623723,29.1345877 L19.8275572,25.1976375 L19.8312023,25.1976375 C19.9611233,24.9533906 20.2075199,24.8076745 20.4672709,24.7980774 Z"/>
    </g>
    <g fill-rule="nonzero" transform="translate(660 448)">
      <path fill="#326CE5" d="M20.3534035,0.00352492669 C19.9910297,0.0218826534 19.6359804,0.112237028 19.3090845,0.26928739 L5.0585955,7.11679472 C4.31144229,7.4756295 3.7687602,8.15427353 3.5841556,8.96063636 L0.0684639229,24.341868 C-0.0955513019,25.0578438 0.0379040654,25.809549 0.438440808,26.4258123 C0.486512464,26.500381 0.538213078,26.5725592 0.593357237,26.642088 L10.4569774,38.9752991 C10.9741699,39.6217688 11.7583323,39.9981889 12.587534,39.9980264 L28.4054127,39.9943607 C29.2343042,39.9949682 30.0184113,39.6192492 30.5359693,38.9734663 L40.3959444,26.6384223 C40.9134136,25.9916286 41.1072929,25.1449385 40.9226602,24.3382023 L37.4015009,8.95697067 C37.2168963,8.15060784 36.6742142,7.47196381 35.927061,7.11312903 L21.6747495,0.26928739 C21.2635637,0.0717304911 20.8092155,-0.0196525975 20.3534035,0.00352492669 Z"/>
      <path fill="#FFF" d="M20.4946091,5.23796012 C20.0235488,5.23800821 19.6416015,5.66469971 19.6416575,6.1910393 C19.641658,6.1991173 19.6433021,6.20683636 19.6434771,6.21486628 C19.6427831,6.28638299 19.6393479,6.37254135 19.6416575,6.43480762 C19.6528913,6.73838534 19.7186943,6.97073079 19.7583004,7.25042346 C19.8300522,7.84905455 19.8901752,8.34528328 19.8530728,8.8065085 C19.8169899,8.98043226 19.6896047,9.13949443 19.5760458,9.25005689 L19.5559978,9.61296012 C19.0441207,9.65560938 18.5288195,9.73370733 18.0141237,9.85122991 C15.7993882,10.3569296 13.8925401,11.5041959 12.4407773,13.0532094 C12.3465753,12.9885801 12.1817699,12.8696821 12.1327641,12.833268 C11.9804768,12.8539496 11.8265641,12.9012029 11.6260962,12.7837812 C11.2443874,12.5253865 10.8967354,12.168712 10.4760696,11.7390598 C10.2833182,11.5335355 10.1437351,11.3378276 9.91472532,11.1397196 C9.86271889,11.0947302 9.78335152,11.0338809 9.72518051,10.9875935 C9.54614057,10.8440411 9.33496899,10.769176 9.13103044,10.7621537 C8.86882348,10.7531249 8.6164052,10.8562211 8.45122069,11.064573 C8.1575598,11.4349765 8.25157927,12.0011155 8.66081351,12.3292358 C8.664966,12.3325613 8.66938793,12.3351466 8.67357133,12.3384 C8.72980607,12.3842428 8.79866857,12.4429824 8.85035832,12.4813619 C9.09337634,12.6618047 9.31536714,12.7541742 9.55750626,12.8974176 C10.0676442,13.2142393 10.4905549,13.4769402 10.8259984,13.7936786 C10.9569896,13.9340991 10.9798843,14.1815331 10.9973178,14.2885466 L11.2706997,14.5341478 C9.80721434,16.7490264 9.12990133,19.4848493 9.53017098,22.2724176 L9.17295192,22.3768897 C9.07880355,22.4991543 8.94576584,22.6915372 8.80661721,22.7489572 C8.36774049,22.8879724 7.87380947,22.9390211 7.27750092,23.0018897 C6.99753974,23.0253003 6.75597976,23.0113296 6.45917766,23.0678721 C6.39385294,23.0803167 6.30283411,23.1041636 6.23135939,23.1210246 C6.22887489,23.1215525 6.2265537,23.1222915 6.2240692,23.1228545 C6.22017333,23.1237636 6.21505503,23.1256639 6.21131138,23.1265202 C5.70857206,23.248678 5.38561104,23.7133824 5.48958307,24.1712416 C5.5935796,24.6292082 6.08464529,24.9077091 6.59040099,24.7980745 C6.59405192,24.7972358 6.59935334,24.797095 6.60315882,24.7962446 C6.60886849,24.7949308 6.61389522,24.7921449 6.61956173,24.790749 C6.69006365,24.7751853 6.77841603,24.7578692 6.84008983,24.7412622 C7.13189202,24.6626915 7.34322573,24.5472469 7.60555924,24.4461742 C8.1699327,24.24261 8.63736711,24.0725543 9.09275697,24.0062915 C9.28295381,23.9913109 9.48334233,24.1243067 9.5830219,24.1804117 L9.95482133,24.1162622 C10.8104079,26.7838762 12.6034423,28.940017 14.8738736,30.2929484 L14.7189572,30.6668487 C14.7747953,30.8120346 14.8363822,31.0084733 14.7947879,31.1518528 C14.6292319,31.5835947 14.345656,32.0392997 14.0227445,32.5473472 C13.8663934,32.7820639 13.7063779,32.9642158 13.5652854,33.2328311 C13.5315231,33.2971062 13.4885239,33.3958411 13.4559326,33.4637695 C13.2367115,33.9354622 13.3975155,34.4787372 13.8186193,34.6826111 C14.2423686,34.8877654 14.7683537,34.6713889 14.9959842,34.1987402 C14.9963341,34.1980716 14.9974831,34.1975789 14.9978038,34.1969103 C14.9980371,34.1963824 14.9975706,34.1955906 14.9978038,34.1950804 C15.0302265,34.1280686 15.0761605,34.0399853 15.1035115,33.9769718 C15.2243612,33.6985543 15.2645727,33.4599595 15.3495553,33.1906815 C15.5752372,32.6205853 15.6992316,32.02241 16.0099049,31.649678 C16.0949773,31.5476117 16.2336733,31.5083584 16.3774713,31.4696405 L16.5706612,31.1177343 C18.5499896,31.8817695 20.7655305,32.0867935 22.9787338,31.581444 C23.4836211,31.4661613 23.9710411,31.3169601 24.4422384,31.1378956 C24.4965345,31.2347478 24.5974394,31.4209279 24.624493,31.4678076 C24.7706227,31.5156188 24.9301232,31.5403085 25.0600816,31.7335701 C25.2925154,32.1329238 25.4514712,32.6053683 25.6451189,33.1760188 C25.7301155,33.4452921 25.7721209,33.6838974 25.8929852,33.9623091 C25.9205328,34.0257666 25.966237,34.1150868 25.9986929,34.1822504 C26.2258445,34.6564346 26.7534965,34.8735507 27.1778803,34.6679543 C27.5989322,34.4639718 27.7599135,33.920746 27.540567,33.4491126 C27.5079717,33.3811865 27.4631569,33.2824475 27.4293917,33.2181742 C27.2882852,32.9495666 27.1282954,32.7692311 26.9719326,32.5345232 C26.6489943,32.0264927 26.3811546,31.6044528 26.2155759,31.1727196 C26.1463419,30.9500469 26.2272565,30.8115619 26.2811876,30.6668545 C26.2488903,30.6296246 26.1797776,30.4193419 26.1390289,30.3204469 C28.4985644,28.9193818 30.238945,26.6828346 31.0562587,24.0997724 C31.1666262,24.1172164 31.3584538,24.1513478 31.4207679,24.163922 C31.5490483,24.078837 31.6669977,23.9678211 31.898275,23.9861361 C32.3536678,24.0523748 32.8210888,24.2224839 33.3854728,24.4260188 C33.6478115,24.527078 33.8591365,24.6443842 34.1509422,24.7229396 C34.2126166,24.7395431 34.3009672,24.7550334 34.3714703,24.7705935 C34.3771391,24.7719894 34.3821606,24.7747812 34.3878732,24.7760891 C34.3916816,24.7769455 34.3969801,24.7770804 34.400631,24.7779191 C34.9064159,24.8874176 35.397569,24.6090798 35.5014489,24.1510862 C35.6053043,23.6932 35.2824926,23.2283877 34.7797206,23.1063648 C34.7065896,23.0896416 34.6028753,23.0612399 34.5318543,23.0477138 C34.2350493,22.9911871 33.9934934,23.0051273 33.7135311,22.9817314 C33.1172196,22.9188938 32.6232985,22.8677906 32.1844148,22.7287988 C32.0054693,22.6589877 31.878167,22.4448551 31.8162575,22.3567314 L31.4717963,22.2559249 C31.6503918,20.9565455 31.6022352,19.6042334 31.2931868,18.2511595 C30.9812608,16.8854874 30.4300073,15.6364475 29.6948137,14.5359836 C29.7831737,14.4552041 29.9500396,14.3066047 29.9973564,14.2628897 C30.0111879,14.1089795 29.9993043,13.9476094 30.1577405,13.7771859 C30.4931671,13.4604299 30.9161116,13.1977736 31.4262326,12.8809249 C31.6683642,12.7376686 31.8921944,12.6453249 32.1352031,12.4648692 C32.1901565,12.4240622 32.2651959,12.3594387 32.3229254,12.3127431 C32.7320727,11.9845126 32.8262736,11.4184076 32.5325182,11.0480804 C32.2387628,10.6777531 31.6695283,10.6428704 31.2603809,10.9711009 C31.2021434,11.017485 31.1231196,11.0779935 31.0708361,11.123227 C30.8418368,11.3213478 30.7004102,11.5170328 30.5076693,11.7225672 C30.0870263,12.1522416 29.7393381,12.5107062 29.3576427,12.7691214 C29.1922424,12.8659578 28.9499779,12.8324516 28.8400366,12.8259396 L28.5156234,13.0587109 C26.6657361,11.1079443 24.1470728,9.86073666 21.435043,9.61845865 C21.4274577,9.50416422 21.4175203,9.29756891 21.4149949,9.23539413 C21.3039678,9.12855249 21.1698453,9.03733783 21.1361454,8.8065085 C21.099043,8.34528328 21.1609886,7.84905455 21.2327403,7.25042346 C21.2723464,6.97073079 21.3381494,6.73838534 21.3493833,6.43480762 C21.3519378,6.36579707 21.3478378,6.26565748 21.3475637,6.1910393 C21.3475077,5.66469971 20.9656723,5.23791202 20.494612,5.23796012 L20.4946091,5.23796012 Z M19.426597,11.8911859 L19.1732631,16.3908194 L19.1550376,16.3999836 C19.1380462,16.8025261 18.8086104,17.1239572 18.4041486,17.1239572 C18.2384683,17.1239572 18.0855418,17.0704504 17.9612698,16.9791625 L17.9539797,16.9828282 L14.2851941,14.3673589 C15.4127612,13.2523355 16.8550082,12.4283331 18.5171464,12.0488106 C18.8207675,11.9794833 19.1242532,11.9280422 19.426597,11.8911859 Z M21.5644437,11.8911859 C23.5050017,12.1312047 25.2996435,13.0148704 26.6748634,14.3691918 L23.0297709,16.9681654 L23.0170131,16.9626698 C22.6934776,17.2003056 22.2376381,17.1413437 21.9854519,16.8233736 C21.8821459,16.693112 21.8279419,16.539949 21.8214228,16.3853238 L21.8177777,16.3834938 L21.5644437,11.8911859 Z M12.9547353,16.0480774 L16.3045753,19.0612739 L16.3009302,19.0796023 C16.6032904,19.3439408 16.6478777,19.8026487 16.3957026,20.1206581 C16.2924036,20.2509249 16.1541304,20.3382968 16.0056777,20.3790891 L16.0020326,20.3937519 L11.7081137,21.6400862 C11.4895668,19.6303988 11.9605612,17.6768229 12.9547353,16.0480774 Z M28.0107898,16.0499073 C28.5085111,16.8612012 28.8854107,17.7673349 29.1097851,18.7496874 C29.3314686,19.720261 29.3871032,20.6890991 29.2956848,21.6254205 L24.9798954,20.3754205 L24.9762503,20.3570921 C24.589783,20.2508727 24.3522729,19.8555308 24.4422442,19.4589982 C24.4791052,19.2965572 24.5648488,19.1591367 24.6809978,19.0576053 L24.6791782,19.0484411 L28.0107927,16.0499073 L28.0107898,16.0499073 Z M19.8075092,19.2940422 L21.1798865,19.2940422 L22.0328381,20.3662563 L21.7266504,21.7042328 L20.4946091,22.2999073 L19.2589228,21.7024 L18.952735,20.3644235 L19.8075092,19.2940422 Z M24.2071358,22.9633971 C24.2654555,22.9604352 24.3235209,22.9657196 24.3802777,22.976227 L24.3875678,22.9670628 L28.829113,23.7221947 C28.179091,25.5587402 26.9352507,27.1497713 25.2733253,28.2144968 L23.5491966,24.0264469 L23.5546613,24.0191155 C23.3962829,23.6490282 23.5547779,23.2150358 23.9191706,23.0385437 C24.0124645,22.9933584 24.1099337,22.9683378 24.2071329,22.9633971 L24.2071358,22.9633971 Z M16.7474541,22.9817255 C17.0864033,22.9865056 17.3904262,23.2230891 17.4691824,23.5700686 C17.5060526,23.7325073 17.4881077,23.8934557 17.4272638,24.0356111 L17.4400216,24.0521067 L15.7341183,28.1980012 C14.1391915,27.1687578 12.8688266,25.6276768 12.1892659,23.7368604 L16.5925376,22.9853941 L16.5998278,22.9945584 C16.6490809,22.9854434 16.6990326,22.9810452 16.7474541,22.9817284 L16.7474541,22.9817255 Z M20.4672709,24.7980774 C20.5853398,24.7937138 20.7051438,24.8180762 20.8190223,24.873224 C20.9682967,24.9455132 21.0836111,25.0593349 21.1561934,25.1958047 L21.1725963,25.1958047 L23.3432489,29.1400862 C23.0615392,29.2350557 22.7719264,29.3162199 22.4757169,29.3838545 C20.8156234,29.7629103 19.1608044,29.6480581 17.6623723,29.1345877 L19.8275572,25.1976375 L19.8312023,25.1976375 C19.9611233,24.9533906 20.2075199,24.8076745 20.4672709,24.7980774 Z"/>
    </g>
    <g id="hyper-animejs-block-1" fill="#FA2A00" transform="translate(325 45)">
      <polygon points="0 0 75 0 75 75 0 75"/>
    </g>
    <g id="hyper-animejs-block-2" fill="#FA2A00" transform="translate(400 45)">
      <polygon points="0 0 75 0 75 75 0 75"/>
    </g>
    <g id="hyper-animejs-block-3" fill="#FA2A00" transform="translate(400 120)">
      <polygon points="0 0 75 0 75 75 0 75"/>
    </g>
    <g id="hyper-animejs-block-4" fill="#FA2A00" transform="translate(325 120)">
      <polygon points="0 0 75 0 75 75 0 75"/>
    </g>
    <g id="hyper-animejs-block-5" fill="#3D1C00" transform="translate(123 60)">
      <polygon points="0 0 30 0 30 120 0 120"/>
    </g>
    <g id="hyper-animejs-block-6" fill="#3D1C00" transform="translate(153 60)">
      <polygon points="0 0 30 0 30 120 0 120"/>
    </g>
    <g id="hyper-animejs-block-7" fill="#3D1C00" transform="translate(183 60)">
      <polygon points="0 0 30 0 30 120 0 120"/>
    </g>
    <g id="hyper-animejs-block-8" fill="#3D1C00" transform="translate(213 60)">
      <polygon points="0 0 30 0 30 120 0 120"/>
    </g>
    <g id="hyper-animejs-block-9" fill="#F2D694" transform="translate(557 86)">
      <polygon points="0 0 68 0 68 34 0 34"/>
    </g>
    <g id="hyper-animejs-block-10" fill="#F2D694" transform="translate(557 120)">
      <polygon points="0 0 68 0 68 34 0 34"/>
    </g>
  </g>
</svg>
