<svg xmlns="http://www.w3.org/2000/svg" viewBox="0 0 800 563" id="independent">
  <g fill="none" fill-rule="evenodd">
    <g id="independent-animejs-azure" transform="translate(75 318)">
      <rect width="650" height="146" fill="#BFD5EF" fill-rule="nonzero" rx="14"/>
      <path fill="#000" d="M275.766991,77.0896002 L285.090991,77.0896002 L280.554991,63.8848005 L280.454191,63.8848005 L275.766991,77.0896002 Z M276.522991,55.0144006 L284.637391,55.0144006 L298.09419,91 L289.87899,91 L287.15739,82.9864001 L273.700591,82.9864001 L270.878191,91 L262.914991,91 L276.522991,55.0144006 Z M297.523874,85.6072001 L311.081474,70.3360004 L298.531874,70.3360004 L298.531874,64.9432004 L320.506274,64.9432004 L320.506274,70.3360004 L306.948674,85.6072001 L321.463874,85.6072001 L321.463874,91 L297.523874,91 L297.523874,85.6072001 Z M348.411958,91 L341.607958,91 L341.607958,87.3712001 L341.456758,87.3712001 C340.549553,88.8832076 339.373565,89.9751967 337.928758,90.6472 C336.483951,91.3192034 335.005565,91.6552 333.493558,91.6552 C331.578348,91.6552 330.007564,91.4032025 328.781158,90.8992 C327.554752,90.3951975 326.588762,89.6812046 325.883158,88.7572 C325.177554,87.8331954 324.681959,86.7076067 324.396358,85.3804001 C324.110757,84.0531935 323.967958,82.5832082 323.967958,80.9704002 L323.967958,64.9432004 L331.124758,64.9432004 L331.124758,79.6600002 C331.124758,81.8104109 331.460755,83.4147948 332.132758,84.4732001 C332.804761,85.5316054 333.997549,86.0608001 335.711158,86.0608001 C337.659968,86.0608001 339.071153,85.4812059 339.944758,84.3220001 C340.818362,83.1627943 341.255158,81.2560134 341.255158,78.6016002 L341.255158,64.9432004 L348.411958,64.9432004 L348.411958,91 Z M352.528842,64.9432004 L359.332842,64.9432004 L359.332842,69.7816004 L359.433642,69.7816004 C359.769643,68.9751963 360.223239,68.2276038 360.794442,67.5388004 C361.365644,66.849997 362.020838,66.2620029 362.760041,65.7748004 C363.499245,65.287598 364.288837,64.9096018 365.128841,64.6408004 C365.968846,64.3719991 366.842437,64.2376005 367.749641,64.2376005 C368.220044,64.2376005 368.740839,64.3215996 369.312041,64.4896005 L369.312041,71.1424003 C368.97604,71.0752 368.572844,71.0164006 368.102441,70.9660003 C367.632039,70.9156001 367.178444,70.8904003 366.741641,70.8904003 C365.431235,70.8904003 364.322446,71.1087982 363.415241,71.5456003 C362.508037,71.9824025 361.777244,72.5787965 361.222841,73.3348003 C360.668439,74.0908041 360.273643,74.9727952 360.038442,75.9808003 C359.80324,76.9888053 359.685642,78.0807943 359.685642,79.2568002 L359.685642,91 L352.528842,91 L352.528842,64.9432004 Z M387.440125,75.1744003 C387.104123,73.3599912 386.507729,71.982405 385.650925,71.0416003 C384.794121,70.1007957 383.492134,69.6304004 381.744925,69.6304004 C380.60252,69.6304004 379.653329,69.8235984 378.897325,70.2100004 C378.141322,70.5964023 377.536528,71.0751975 377.082925,71.6464003 C376.629323,72.2176032 376.310126,72.8223971 376.125325,73.4608003 C375.940524,74.0992035 375.831326,74.6703978 375.797725,75.1744003 L387.440125,75.1744003 Z M375.797725,79.7104002 C375.898526,82.0288117 376.48652,83.7087949 377.561725,84.7504001 C378.636931,85.7920053 380.182515,86.3128001 382.198525,86.3128001 C383.643332,86.3128001 384.88652,85.9516037 385.928125,85.2292001 C386.96973,84.5067965 387.608124,83.7424042 387.843325,82.9360001 L394.143325,82.9360001 C393.13532,86.0608157 391.589735,88.2951933 389.506525,89.6392 C387.423315,90.9832067 384.90334,91.6552 381.946525,91.6552 C379.896915,91.6552 378.048934,91.3276033 376.402525,90.6724 C374.756117,90.0171967 373.361731,89.0848061 372.219325,87.8752001 C371.07692,86.665594 370.194929,85.2208085 369.573325,83.5408001 C368.951722,81.8607918 368.640925,80.0128103 368.640925,77.9968002 C368.640925,76.0479905 368.960122,74.2336087 369.598525,72.5536003 C370.236929,70.8735919 371.14412,69.4204065 372.320125,68.1940004 C373.496131,66.9675943 374.898917,66.001604 376.528525,65.2960004 C378.158133,64.5903969 379.964115,64.2376005 381.946525,64.2376005 C384.164136,64.2376005 386.096117,64.6659962 387.742525,65.5228004 C389.388933,66.3796047 390.74132,67.5303932 391.799725,68.9752004 C392.85813,70.4200076 393.622523,72.0663911 394.092925,73.9144003 C394.563327,75.7624095 394.731326,77.6943901 394.596925,79.7104002 L375.797725,79.7104002 Z"/>
    </g>
    <g id="independent-animejs-aws" transform="translate(75 318)">
      <rect width="650" height="146" fill="#F2CA87" fill-rule="nonzero" rx="14"/>
      <path fill="#000" d="M286.738275,77.0896002 L296.062274,77.0896002 L291.526274,63.8848005 L291.425474,63.8848005 L286.738275,77.0896002 Z M287.494275,55.0144006 L295.608674,55.0144006 L309.065474,91 L300.850274,91 L298.128674,82.9864001 L284.671875,82.9864001 L281.849475,91 L273.886275,91 L287.494275,55.0144006 Z M343.926358,91 L336.063958,91 L329.965558,66.5056004 L329.864758,66.5056004 L323.867158,91 L315.853558,91 L306.327958,55.0144006 L314.240758,55.0144006 L319.935958,79.5088002 L320.036758,79.5088002 L326.286358,55.0144006 L333.695158,55.0144006 L339.843958,79.8112002 L339.944758,79.8112002 L345.841558,55.0144006 L353.603158,55.0144006 L343.926358,91 Z M361.298441,79.0552002 C361.298441,80.2648062 361.516839,81.289596 361.953641,82.1296002 C362.390444,82.9696043 362.970038,83.6499975 363.692441,84.1708001 C364.414845,84.6916027 365.263237,85.0779988 366.237641,85.3300001 C367.212046,85.5820014 368.220036,85.7080001 369.261641,85.7080001 C369.967245,85.7080001 370.723237,85.6492007 371.529641,85.5316001 C372.336045,85.4139995 373.092038,85.1872018 373.797641,84.8512001 C374.503245,84.5151984 375.091239,84.0532031 375.561641,83.4652001 C376.032044,82.8771972 376.267241,82.1296047 376.267241,81.2224002 C376.267241,80.2479953 375.956444,79.4584032 375.334841,78.8536002 C374.713238,78.2487972 373.898446,77.7448022 372.890441,77.3416002 C371.882436,76.9383982 370.740048,76.5856018 369.463241,76.2832003 C368.186435,75.9807987 366.892848,75.6448021 365.582441,75.2752003 C364.238435,74.9391986 362.928048,74.5276027 361.651241,74.0404003 C360.374435,73.5531979 359.232047,72.9232042 358.224042,72.1504003 C357.216037,71.3775965 356.401245,70.4116061 355.779642,69.2524004 C355.158038,68.0931946 354.847242,66.6904086 354.847242,65.0440004 C354.847242,63.1959912 355.242038,61.5916073 356.031642,60.2308005 C356.821246,58.8699937 357.854435,57.7360051 359.131242,56.8288006 C360.408048,55.9215961 361.852833,55.2496028 363.465641,54.8128006 C365.078449,54.3759984 366.691233,54.1576006 368.304041,54.1576006 C370.185651,54.1576006 371.991633,54.3675985 373.722041,54.7876006 C375.45245,55.2076027 376.989635,55.8879959 378.333641,56.8288006 C379.677648,57.7696053 380.744437,58.9707932 381.534041,60.4324005 C382.323645,61.8940078 382.718441,63.66639 382.718441,65.7496004 L375.057641,65.7496004 C374.990441,64.6743951 374.763643,63.784004 374.377241,63.0784005 C373.990839,62.372797 373.478444,61.8184025 372.840041,61.4152005 C372.201638,61.0119985 371.470845,60.7264014 370.647641,60.5584005 C369.824437,60.3903997 368.925646,60.3064005 367.951241,60.3064005 C367.312838,60.3064005 366.674445,60.3735998 366.036041,60.5080005 C365.397638,60.6424012 364.818044,60.8775988 364.297241,61.2136005 C363.776439,61.5496022 363.348043,61.969598 363.012041,62.4736005 C362.67604,62.977603 362.508041,63.6159966 362.508041,64.3888005 C362.508041,65.094404 362.64244,65.6655982 362.911241,66.1024004 C363.180043,66.5392026 363.709238,66.9423986 364.498841,67.3120004 C365.288445,67.6816022 366.380434,68.0511985 367.774841,68.4208004 C369.169248,68.7904022 370.99203,69.2607975 373.243241,69.8320004 C373.915245,69.966401 374.847635,70.2099986 376.040441,70.5628003 C377.233247,70.9156021 378.417635,71.4783965 379.593641,72.2512003 C380.769647,73.0240042 381.786037,74.0571938 382.642841,75.3508003 C383.499645,76.6444067 383.928041,78.2991901 383.928041,80.3152002 C383.928041,81.9616084 383.608844,83.4903931 382.970441,84.9016001 C382.332038,86.3128071 381.382847,87.5307949 380.122841,88.5556 C378.862835,89.5804051 377.300451,90.3783972 375.435641,90.9496 C373.570832,91.5208028 371.412054,91.8064 368.959241,91.8064 C366.976831,91.8064 365.053251,91.5628024 363.188441,91.0756 C361.323632,90.5883976 359.677249,89.8240052 358.249242,88.7824 C356.821234,87.7407948 355.687246,86.4136081 354.847242,84.8008001 C354.007237,83.1879921 353.604041,81.2728113 353.637642,79.0552002 L361.298441,79.0552002 Z"/>
    </g>
    <rect width="650" height="146" x="75" y="144" fill="#317CD4" fill-rule="nonzero" rx="14"/>
    <path fill="#FFF" d="M275,199 L282.907103,199 L282.907103,214.064649 L296.95858,199 L306.829868,199 L292.778392,213.352132 L308.189689,235.338377 L298.268037,235.338377 L287.439838,219.001376 L282.907103,223.632737 L282.907103,235.338377 L275,235.338377 L275,199 Z M333.708188,235.338377 L326.909086,235.338377 L326.909086,231.674003 L326.757995,231.674003 C325.851444,233.200833 324.676302,234.303527 323.232535,234.982118 C321.788768,235.660709 320.311447,236 318.800528,236 C316.886697,236 315.317044,235.745532 314.091521,235.236589 C312.865998,234.727645 311.900703,234.006653 311.195607,233.07359 C310.490512,232.140527 309.995273,231.003904 309.709878,229.663686 C309.424482,228.323469 309.281786,226.839073 309.281786,225.210454 L309.281786,209.026135 L316.433434,209.026135 L316.433434,223.887208 C316.433434,226.0587 316.769188,227.678812 317.440708,228.747593 C318.112227,229.816374 319.304157,230.350757 321.016532,230.350757 C322.963938,230.350757 324.374108,229.76548 325.247084,228.594911 C326.120059,227.424341 326.55654,225.498867 326.55654,222.818432 L326.55654,209.026135 L333.708188,209.026135 L333.708188,235.338377 Z M356.909956,222.207703 C356.909956,221.088027 356.792442,220.019262 356.55741,219.001376 C356.322379,217.983489 355.953048,217.084369 355.449409,216.303989 C354.945769,215.523609 354.316229,214.904404 353.560769,214.446355 C352.80531,213.988306 351.890378,213.759285 350.815947,213.759285 C349.775092,213.759285 348.868554,213.988306 348.096306,214.446355 C347.324059,214.904404 346.686125,215.523609 346.182485,216.303989 C345.678845,217.084369 345.309515,217.983489 345.074483,219.001376 C344.839451,220.019262 344.721937,221.088027 344.721937,222.207703 C344.721937,223.293449 344.839451,224.345249 345.074483,225.363136 C345.309515,226.381023 345.678845,227.280143 346.182485,228.060523 C346.686125,228.840903 347.324059,229.460108 348.096306,229.918157 C348.868554,230.376206 349.775092,230.605227 350.815947,230.605227 C351.890378,230.605227 352.80531,230.376206 353.560769,229.918157 C354.316229,229.460108 354.945769,228.840903 355.449409,228.060523 C355.953048,227.280143 356.322379,226.381023 356.55741,225.363136 C356.792442,224.345249 356.909956,223.293449 356.909956,222.207703 Z M337.822108,199 L344.973756,199 L344.973756,212.232462 L345.074483,212.232462 C345.947459,210.87528 347.130994,209.882855 348.625125,209.255158 C350.119256,208.627461 351.672122,208.313618 353.283769,208.313618 C354.593232,208.313618 355.885888,208.58505 357.161775,209.127923 C358.437662,209.670796 359.587622,210.502058 360.61169,211.621733 C361.635757,212.741409 362.46675,214.174911 363.104694,215.922283 C363.742637,217.669656 364.061604,219.74781 364.061604,222.156809 C364.061604,224.565808 363.742637,226.643962 363.104694,228.391334 C362.46675,230.138707 361.635757,231.572209 360.61169,232.691884 C359.587622,233.81156 358.437662,234.642822 357.161775,235.185695 C355.885888,235.728568 354.593232,236 353.283769,236 C351.369938,236 349.657589,235.694639 348.14667,235.083906 C346.635751,234.473174 345.494185,233.438338 344.721937,231.979367 L344.62121,231.979367 L344.62121,235.338377 L337.822108,235.338377 L337.822108,199 Z M384.795551,219.357634 C384.459791,217.525438 383.863826,216.134347 383.007639,215.184319 C382.151451,214.234291 380.850402,213.759285 379.104451,213.759285 C377.962867,213.759285 377.01436,213.954377 376.258901,214.344567 C375.503441,214.734757 374.899083,215.218246 374.445807,215.795048 C373.992531,216.371851 373.673564,216.982574 373.488896,217.627235 C373.304228,218.271897 373.195108,218.848691 373.161532,219.357634 L384.795551,219.357634 Z M373.161532,223.938102 C373.26226,226.279241 373.849831,227.975694 374.924262,229.02751 C375.998694,230.079327 377.543165,230.605227 379.557724,230.605227 C381.001491,230.605227 382.243784,230.24049 383.284639,229.511004 C384.325494,228.781519 384.963428,228.009633 385.19846,227.195323 L391.493925,227.195323 C390.486645,230.350772 388.942174,232.607054 386.860463,233.964237 C384.778752,235.321419 382.260592,236 379.305906,236 C377.257771,236 375.41112,235.669192 373.765897,235.007565 C372.120674,234.345939 370.727292,233.404408 369.585708,232.182944 C368.444125,230.961479 367.562769,229.50253 366.941613,227.806052 C366.320458,226.109574 366.009885,224.243476 366.009885,222.207703 C366.009885,220.239788 366.328852,218.40762 366.966795,216.711142 C367.604739,215.014664 368.511277,213.547232 369.686436,212.308803 C370.861595,211.070374 372.263371,210.094914 373.891806,209.382393 C375.520241,208.669873 377.324923,208.313618 379.305906,208.313618 C381.52192,208.313618 383.45251,208.746213 385.097733,209.611417 C386.742956,210.476621 388.094369,211.638691 389.152012,213.097662 C390.209655,214.556633 390.973497,216.219156 391.443561,218.085282 C391.913625,219.951408 392.081502,221.902328 391.947198,223.938102 L373.161532,223.938102 Z M394.852389,209.026135 L401.651491,209.026135 L401.651491,213.911967 L401.752218,213.911967 C402.087978,213.097658 402.541247,212.342736 403.112039,211.64718 C403.68283,210.951624 404.337552,210.357866 405.076223,209.865887 C405.814895,209.373909 406.603919,208.992207 407.443318,208.72077 C408.282718,208.449334 409.15568,208.313618 410.062231,208.313618 C410.532295,208.313618 411.052715,208.39844 411.623507,208.568088 L411.623507,215.286107 C411.287747,215.218248 410.884841,215.158872 410.414777,215.107978 C409.944714,215.057084 409.491445,215.031637 409.054957,215.031637 C407.745494,215.031637 406.637503,215.252176 405.730952,215.69326 C404.8244,216.134344 404.094134,216.736585 403.54013,217.5 C402.986127,218.263415 402.591615,219.154053 402.356583,220.171939 C402.121551,221.189826 402.004037,222.29252 402.004037,223.480055 L402.004037,235.338377 L394.852389,235.338377 L394.852389,209.026135 Z M414.02506,209.026135 L420.824162,209.026135 L420.824162,212.690509 L420.975253,212.690509 C421.881805,211.163679 423.056946,210.052502 424.500713,209.356946 C425.94448,208.66139 427.421801,208.313618 428.93272,208.313618 C430.846551,208.313618 432.416204,208.576568 433.641728,209.102476 C434.867251,209.628384 435.832546,210.357859 436.537641,211.290922 C437.242737,212.223984 437.737975,213.360608 438.023371,214.700825 C438.308767,216.041043 438.451463,217.525439 438.451463,219.154058 L438.451463,235.338377 L431.299815,235.338377 L431.299815,220.477304 C431.299815,218.305812 430.96406,216.6857 430.292541,215.616919 C429.621021,214.548138 428.429092,214.013755 426.716717,214.013755 C424.76931,214.013755 423.35914,214.599031 422.486165,215.769601 C421.613189,216.940171 421.176708,218.865645 421.176708,221.54608 L421.176708,235.338377 L414.02506,235.338377 L414.02506,209.026135 Z M460.091956,219.357634 C459.756196,217.525438 459.160231,216.134347 458.304044,215.184319 C457.447856,214.234291 456.146807,213.759285 454.400856,213.759285 C453.259273,213.759285 452.310766,213.954377 451.555306,214.344567 C450.799846,214.734757 450.195488,215.218246 449.742212,215.795048 C449.288937,216.371851 448.96997,216.982574 448.785302,217.627235 C448.600634,218.271897 448.491513,218.848691 448.457937,219.357634 L460.091956,219.357634 Z M448.457937,223.938102 C448.558665,226.279241 449.146236,227.975694 450.220668,229.02751 C451.295099,230.079327 452.839571,230.605227 454.854129,230.605227 C456.297896,230.605227 457.540189,230.24049 458.581044,229.511004 C459.6219,228.781519 460.259834,228.009633 460.494866,227.195323 L466.79033,227.195323 C465.783051,230.350772 464.238579,232.607054 462.156868,233.964237 C460.075157,235.321419 457.556997,236 454.602311,236 C452.554176,236 450.707525,235.669192 449.062302,235.007565 C447.417079,234.345939 446.023697,233.404408 444.882114,232.182944 C443.74053,230.961479 442.859174,229.50253 442.238019,227.806052 C441.616863,226.109574 441.30629,224.243476 441.30629,222.207703 C441.30629,220.239788 441.625257,218.40762 442.2632,216.711142 C442.901144,215.014664 443.807682,213.547232 444.982841,212.308803 C446.158,211.070374 447.559776,210.094914 449.188211,209.382393 C450.816646,208.669873 452.621328,208.313618 454.602311,208.313618 C456.818325,208.313618 458.748915,208.746213 460.394138,209.611417 C462.039361,210.476621 463.390774,211.638691 464.448417,213.097662 C465.506061,214.556633 466.269903,216.219156 466.739966,218.085282 C467.21003,219.951408 467.377907,221.902328 467.243603,223.938102 L448.457937,223.938102 Z M479.214263,209.026135 L484.45209,209.026135 L484.45209,213.861073 L479.214263,213.861073 L479.214263,226.889959 C479.214263,228.111423 479.415716,228.92572 479.818628,229.332875 C480.22154,229.74003 481.027351,229.943604 482.236086,229.943604 C482.638998,229.943604 483.025116,229.926639 483.394452,229.89271 C483.763787,229.85878 484.11633,229.807887 484.45209,229.740028 L484.45209,235.338377 C483.847722,235.440166 483.176213,235.508024 482.437541,235.541953 C481.69887,235.575883 480.976997,235.592847 480.271901,235.592847 C479.163894,235.592847 478.11466,235.516507 477.124169,235.363824 C476.133678,235.211141 475.260715,234.914262 474.505256,234.473177 C473.749796,234.032093 473.153832,233.404406 472.717344,232.590096 C472.280856,231.775787 472.062616,230.707022 472.062616,229.383769 L472.062616,213.861073 L467.731336,213.861073 L467.731336,209.026135 L472.062616,209.026135 L472.062616,201.137552 L479.214263,201.137552 L479.214263,209.026135 Z M504.078034,219.357634 C503.742275,217.525438 503.14631,216.134347 502.290122,215.184319 C501.433935,214.234291 500.132885,213.759285 498.386935,213.759285 C497.245351,213.759285 496.296844,213.954377 495.541385,214.344567 C494.785925,214.734757 494.181567,215.218246 493.728291,215.795048 C493.275015,216.371851 492.956048,216.982574 492.77138,217.627235 C492.586712,218.271897 492.477592,218.848691 492.444016,219.357634 L504.078034,219.357634 Z M492.444016,223.938102 C492.544744,226.279241 493.132315,227.975694 494.206746,229.02751 C495.281177,230.079327 496.825649,230.605227 498.840208,230.605227 C500.283975,230.605227 501.526268,230.24049 502.567123,229.511004 C503.607978,228.781519 504.245912,228.009633 504.480944,227.195323 L510.776409,227.195323 C509.769129,230.350772 508.224657,232.607054 506.142947,233.964237 C504.061236,235.321419 501.543075,236 498.588389,236 C496.540255,236 494.693604,235.669192 493.048381,235.007565 C491.403158,234.345939 490.009776,233.404408 488.868192,232.182944 C487.726609,230.961479 486.845253,229.50253 486.224097,227.806052 C485.602942,226.109574 485.292368,224.243476 485.292368,222.207703 C485.292368,220.239788 485.611335,218.40762 486.249279,216.711142 C486.887223,215.014664 487.79376,213.547232 488.96892,212.308803 C490.144079,211.070374 491.545855,210.094914 493.17429,209.382393 C494.802725,208.669873 496.607407,208.313618 498.588389,208.313618 C500.804404,208.313618 502.734994,208.746213 504.380217,209.611417 C506.02544,210.476621 507.376852,211.638691 508.434496,213.097662 C509.492139,214.556633 510.255981,216.219156 510.726045,218.085282 C511.196109,219.951408 511.363986,221.902328 511.229682,223.938102 L492.444016,223.938102 Z M519.674882,226.788171 C519.674882,227.56855 519.834365,228.238649 520.153337,228.798487 C520.472309,229.358325 520.883608,229.816367 521.387248,230.172627 C521.890888,230.528888 522.470065,230.791838 523.124796,230.961486 C523.779528,231.131133 524.459431,231.215956 525.164527,231.215956 C525.668166,231.215956 526.19698,231.15658 526.750984,231.037827 C527.304988,230.919073 527.80862,230.732463 528.261895,230.477992 C528.715171,230.22352 529.092895,229.88423 529.395079,229.46011 C529.697263,229.035991 529.848352,228.501608 529.848352,227.856946 C529.848352,226.7712 529.134874,225.956903 527.707894,225.41403 C526.280915,224.871157 524.291569,224.328292 521.739794,223.78542 C520.698939,223.547913 519.683281,223.267998 518.692789,222.945667 C517.702298,222.623336 516.820942,222.199223 516.048694,221.673315 C515.276447,221.147407 514.655301,220.48579 514.185237,219.688446 C513.715173,218.891101 513.480145,217.915641 513.480145,216.762036 C513.480145,215.065558 513.807506,213.674467 514.462237,212.588721 C515.116969,211.502975 515.981537,210.646266 517.055969,210.018569 C518.1304,209.390873 519.339117,208.949795 520.682156,208.695323 C522.025195,208.440852 523.40179,208.313618 524.811981,208.313618 C526.222172,208.313618 527.590372,208.449334 528.916624,208.72077 C530.242875,208.992207 531.42641,209.450249 532.467266,210.094911 C533.508121,210.739572 534.372689,211.596281 535.060997,212.665062 C535.749305,213.733843 536.160604,215.082523 536.294908,216.711142 L529.495806,216.711142 C529.395078,215.32003 528.874659,214.378499 527.934531,213.88652 C526.994404,213.394541 525.886413,213.148556 524.610526,213.148556 C524.207614,213.148556 523.771133,213.174002 523.301069,213.224897 C522.831006,213.275791 522.402918,213.386061 522.016795,213.555708 C521.630671,213.725356 521.30331,213.971342 521.034702,214.293673 C520.766094,214.616003 520.631792,215.048599 520.631792,215.591472 C520.631792,216.236133 520.866821,216.762034 521.336884,217.169188 C521.806948,217.576343 522.419701,217.907151 523.17516,218.161623 C523.93062,218.416095 524.795188,218.645116 525.768891,218.848693 C526.742595,219.052271 527.733071,219.272809 528.740351,219.510316 C529.781206,219.747823 530.796864,220.03622 531.787355,220.375516 C532.777847,220.714811 533.659203,221.164371 534.431451,221.724209 C535.203698,222.284047 535.824844,222.979592 536.294908,223.810867 C536.764972,224.642141 537,225.668495 537,226.889959 C537,228.620366 536.655851,230.070833 535.967544,231.241403 C535.279236,232.411973 534.381092,233.353504 533.273085,234.066025 C532.165078,234.778546 530.897604,235.278999 529.470625,235.5674 C528.043645,235.855802 526.591506,236 525.114163,236 C523.603244,236 522.125923,235.847319 520.682156,235.541953 C519.238389,235.236587 517.954127,234.727651 516.829332,234.015131 C515.704537,233.30261 514.781211,232.361079 514.059328,231.190509 C513.337444,230.019939 512.942932,228.552508 512.87578,226.788171 L519.674882,226.788171 Z"/>
    <g id="independent-animejs-block-1" fill="#FA2A00" transform="translate(353 49)">
      <polygon points="0 0 95 0 95 95 0 95"/>
    </g>
    <g id="independent-animejs-block-2" fill="#F5A623" transform="translate(317 26)">
      <polygon points="0 0 36 0 36 118 0 118"/>
    </g>
    <g id="independent-animejs-block-3" fill="#86B8B1" transform="translate(269 96)">
      <polygon points="0 0 48 0 48 48 0 48"/>
    </g>
    <g id="independent-animejs-block-4" fill="#D8D8D8" transform="translate(448 119)">
      <rect width="24.525" height="24.552"/>
    </g>
    <g id="independent-animejs-arrows" fill="#B8E986" transform="translate(591 253)">
      <g transform="translate(0 13)">
        <polygon points="25 92 0 47 50 47"/>
        <polygon points="18 0 32 0 32 80 18 80"/>
      </g>
      <g transform="matrix(1 0 0 -1 63 92)">
        <polygon points="25 92 0 47 50 47"/>
        <polygon points="18 0 32 0 32 80 18 80"/>
      </g>
    </g>
  </g>
</svg>
