<svg xmlns="http://www.w3.org/2000/svg" viewBox="0 0 640 708"><path fill="#353535" d="M520 257H122v-20c0-2.8 2.2-5 5-5h388c2.8 0 5 2.2 5 5v20z"/><path fill="#a3a3a3" d="M129 238h4v4h-4zM135 238h4v4h-4zM141 238h4v4h-4z"/><path fill="#d2d2d2" d="M308 624v19c0 2.8-2.2 5-5 5H127c-2.8 0-5-2.2-5-5v-19c0-2.8 2.2-5 5-5h176c2.8 0 5 2.2 5 5z"/><path fill="#a3a3a3" d="M153 625h4v4h-4v-4zm0 6h4v4h-4v-4zm0 6h4v4h-4v-4zm6-12h4v4h-4v-4zm0 6h4v4h-4v-4zm0 6h4v4h-4v-4zm6-12h4v4h-4v-4zm0 6h4v4h-4v-4zm0 6h4v4h-4v-4zm6-12h4v4h-4v-4zm0 6h4v4h-4v-4zm0 6h4v4h-4v-4zm6-12h4v4h-4v-4zm0 6h4v4h-4v-4zm0 6h4v4h-4v-4zm6-12h4v4h-4v-4zm0 6h4v4h-4v-4zm0 6h4v4h-4v-4zm6-12h4v4h-4v-4zm0 6h4v4h-4v-4zm0 6h4v4h-4v-4zm6-12h4v4h-4v-4zm0 6h4v4h-4v-4zm0 6h4v4h-4v-4zm6-12h4v4h-4v-4zm0 6h4v4h-4v-4zm0 6h4v4h-4v-4zm6-12h4v4h-4v-4zm0 6h4v4h-4v-4zm0 6h4v4h-4v-4zm6-12h4v4h-4v-4zm0 6h4v4h-4v-4zm0 6h4v4h-4v-4zm6-12h4v4h-4v-4zm0 6h4v4h-4v-4zm0 6h4v4h-4v-4zm6-12h4v4h-4v-4zm0 6h4v4h-4v-4zm0 6h4v4h-4v-4zm6-12h4v4h-4v-4zm0 6h4v4h-4v-4zm0 6h4v4h-4v-4zm6-12h4v4h-4v-4zm0 6h4v4h-4v-4zm0 6h4v4h-4v-4zm6-12h4v4h-4v-4zm0 6h4v4h-4v-4zm0 6h4v4h-4v-4zm6-12h4v4h-4v-4zm0 6h4v4h-4v-4zm0 6h4v4h-4v-4zm6-12h4v4h-4v-4zm0 6h4v4h-4v-4zm0 6h4v4h-4v-4zm6-12h4v4h-4v-4zm0 6h4v4h-4v-4zm0 6h4v4h-4v-4zm6-12h4v4h-4v-4zm0 6h4v4h-4v-4zm0 6h4v4h-4v-4zm6-12h4v4h-4v-4zm0 6h4v4h-4v-4zm0 6h4v4h-4v-4zm6-12h4v4h-4v-4zm0 6h4v4h-4v-4zm0 6h4v4h-4v-4zm6-12h4v4h-4v-4zm0 6h4v4h-4v-4zm0 6h4v4h-4v-4zm6-12h4v4h-4v-4zm0 6h4v4h-4v-4zm0 6h4v4h-4v-4zm6-12h4v4h-4v-4zm0 6h4v4h-4v-4zm0 6h4v4h-4v-4z"/><path fill="#d2d2d2" d="M308 656v19c0 2.8-2.2 5-5 5H127c-2.8 0-5-2.2-5-5v-19c0-2.8 2.2-5 5-5h176c2.8 0 5 2.2 5 5z"/><path fill="#a3a3a3" d="M153 657h4v4h-4v-4zm0 6h4v4h-4v-4zm0 6h4v4h-4v-4zm6-12h4v4h-4v-4zm0 6h4v4h-4v-4zm0 6h4v4h-4v-4zm6-12h4v4h-4v-4zm0 6h4v4h-4v-4zm0 6h4v4h-4v-4zm6-12h4v4h-4v-4zm0 6h4v4h-4v-4zm0 6h4v4h-4v-4zm6-12h4v4h-4v-4zm0 6h4v4h-4v-4zm0 6h4v4h-4v-4zm6-12h4v4h-4v-4zm0 6h4v4h-4v-4zm0 6h4v4h-4v-4zm6-12h4v4h-4v-4zm0 6h4v4h-4v-4zm0 6h4v4h-4v-4zm6-12h4v4h-4v-4zm0 6h4v4h-4v-4zm0 6h4v4h-4v-4zm6-12h4v4h-4v-4zm0 6h4v4h-4v-4zm0 6h4v4h-4v-4zm6-12h4v4h-4v-4zm0 6h4v4h-4v-4zm0 6h4v4h-4v-4zm6-12h4v4h-4v-4zm0 6h4v4h-4v-4zm0 6h4v4h-4v-4zm6-12h4v4h-4v-4zm0 6h4v4h-4v-4zm0 6h4v4h-4v-4zm6-12h4v4h-4v-4zm0 6h4v4h-4v-4zm0 6h4v4h-4v-4zm6-12h4v4h-4v-4zm0 6h4v4h-4v-4zm0 6h4v4h-4v-4zm6-12h4v4h-4v-4zm0 6h4v4h-4v-4zm0 6h4v4h-4v-4zm6-12h4v4h-4v-4zm0 6h4v4h-4v-4zm0 6h4v4h-4v-4zm6-12h4v4h-4v-4zm0 6h4v4h-4v-4zm0 6h4v4h-4v-4zm6-12h4v4h-4v-4zm0 6h4v4h-4v-4zm0 6h4v4h-4v-4zm6-12h4v4h-4v-4zm0 6h4v4h-4v-4zm0 6h4v4h-4v-4zm6-12h4v4h-4v-4zm0 6h4v4h-4v-4zm0 6h4v4h-4v-4zm6-12h4v4h-4v-4zm0 6h4v4h-4v-4zm0 6h4v4h-4v-4zm6-12h4v4h-4v-4zm0 6h4v4h-4v-4zm0 6h4v4h-4v-4zm6-12h4v4h-4v-4zm0 6h4v4h-4v-4zm0 6h4v4h-4v-4zm6-12h4v4h-4v-4zm0 6h4v4h-4v-4zm0 6h4v4h-4v-4zm6-12h4v4h-4v-4zm0 6h4v4h-4v-4zm0 6h4v4h-4v-4z"/><path fill="#d2d2d2" d="M308 327v284c0 2.8-2.2 5-5 5H127c-2.8 0-5-2.2-5-5V327c0-2.8 2.2-5 5-5h176c2.8 0 5 2.2 5 5z"/><path fill="#a3a3a3" d="M129 328h4v4h-4v-4zm0 6h4v4h-4v-4zm0 6h4v4h-4v-4zm6-12h4v4h-4v-4zm0 6h4v4h-4v-4zm0 6h4v4h-4v-4zm6-12h4v4h-4v-4zm0 6h4v4h-4v-4zm0 6h4v4h-4v-4zm6-12h4v4h-4v-4zm0 6h4v4h-4v-4zm0 6h4v4h-4v-4zm6-12h4v4h-4v-4zm0 6h4v4h-4v-4zm0 6h4v4h-4v-4zm6-12h4v4h-4v-4zm0 6h4v4h-4v-4zm0 6h4v4h-4v-4zm6-12h4v4h-4v-4zm0 6h4v4h-4v-4zm0 6h4v4h-4v-4zm6-12h4v4h-4v-4zm0 6h4v4h-4v-4zm0 6h4v4h-4v-4zm6-12h4v4h-4v-4zm0 6h4v4h-4v-4zm0 6h4v4h-4v-4zm6-12h4v4h-4v-4zm0 6h4v4h-4v-4zm0 6h4v4h-4v-4zm6-12h4v4h-4v-4zm0 6h4v4h-4v-4zm0 6h4v4h-4v-4zm6-12h4v4h-4v-4zm0 6h4v4h-4v-4zm0 6h4v4h-4v-4zm6-12h4v4h-4v-4zm0 6h4v4h-4v-4zm0 6h4v4h-4v-4zm6-12h4v4h-4v-4zm0 6h4v4h-4v-4zm0 6h4v4h-4v-4zm6-12h4v4h-4v-4zm0 6h4v4h-4v-4zm0 6h4v4h-4v-4zm6 0h4v4h-4v-4zm6 0h4v4h-4v-4zm6 0h4v4h-4v-4zm6 0h4v4h-4v-4zm6 0h4v4h-4v-4zm6 0h4v4h-4v-4zm6 0h4v4h-4v-4zm6 0h4v4h-4v-4zm6 0h4v4h-4v-4zm6 0h4v4h-4v-4zm6 0h4v4h-4v-4zm6 0h4v4h-4v-4zm6 0h4v4h-4v-4zm6-12h4v4h-4v-4zm0 6h4v4h-4v-4zm0 6h4v4h-4v-4zM129 605h4v4h-4v-4zm6 0h4v4h-4v-4zm6 0h4v4h-4v-4zm6 0h4v4h-4v-4zm6 0h4v4h-4v-4zm6 0h4v4h-4v-4zm6 0h4v4h-4v-4zm6 0h4v4h-4v-4zm6 0h4v4h-4v-4zm6 0h4v4h-4v-4zm6 0h4v4h-4v-4zm6 0h4v4h-4v-4zm6 0h4v4h-4v-4zm6 0h4v4h-4v-4zm6 0h4v4h-4v-4zm6 0h4v4h-4v-4zm6 0h4v4h-4v-4zm6 0h4v4h-4v-4zm6 0h4v4h-4v-4zm6 0h4v4h-4v-4zm6 0h4v4h-4v-4zm6 0h4v4h-4v-4zm6 0h4v4h-4v-4zm6 0h4v4h-4v-4zm6 0h4v4h-4v-4zm6 0h4v4h-4v-4zm6 0h4v4h-4v-4zm6 0h4v4h-4v-4zm6 0h4v4h-4v-4z"/><path fill="#fff" d="M131 351h168c1.1 0 2 .9 2 2v244c0 1.1-.9 2-2 2H131c-1.1 0-2-.9-2-2V353c0-1.1.9-2 2-2z"/><path fill="#a3a3a3" d="M140 632.3h2.4v-2.2H140v2.2zm-2.8 0h2.4v-2.2h-2.4v2.2zm-2.8 0h2.4v-2.2h-2.4v2.2zm-2.8 0h2.4v-2.2h-2.4v2.2zm-2.8 0h2.4v-2.2h-2.4v2.2zm2.8-2.6h2.4v-2.2h-2.4v2.2zm2.8 0h2.4v-2.2h-2.4v2.2zm2.8 0h2.4v-2.2h-2.4v2.2zm0-2.5h2.4V625h-2.4v2.2zm12.3 3.9c-.5-.3-1.7-.5-2.6-.3-.1-.9-.6-1.6-1.5-2.3l-.5-.3-.3.5c-.4.6-.6 1.5-.6 2.4 0 .3.1.8.4 1.3-.3.2-.9.4-1.7.4h-15.6v.2c-.1.9-.1 3.6 1.6 5.6 1.3 1.6 3.3 2.4 5.9 2.4 5.7 0 9.8-2.6 11.8-7.3.8 0 2.4 0 3.3-1.6 0 0 .1-.1.2-.4l.1-.2-.5-.4z"/><g fill="#a3a3a3"><path d="M136.9 666.6c0-.2-.2-.3-.3-.3h-.1l-2 .3c.3.8.9 1.5 1.6 2l.8-2m-.7-1.4c.1 0 .1-.1.2-.1.1-.1.1-.3 0-.5l-1.5-1.4c-.4.7-.7 1.6-.6 2.5l1.9-.5zm.9-1.6c.1 0 .1.1.2.1.2 0 .3-.1.3-.3l.1-2c-.1 0-.3 0-.4.1-.8.2-1.4.5-1.9 1l1.7 1.1zm.6 2.2l.5.2.6-.2.1-.6-.3-.5h-.7l-.3.5.1.6zm1.1-2.4c0 .1 0 .1.1.2s.3.2.5.1l1.6-1.2c-.6-.6-1.4-1-2.3-1.1l.1 2z"/><path d="M145 666.9c0 .2-.3.3-.5.3h-.1c-.1 0-.2-.1-.3-.1-.3-.1-.5-.2-.7-.2-.1 0-.2 0-.2.1h-.2c-.4 1.2-1.2 2.2-2.2 2.8 0 0 0 .1.1.2 0 .1-.1.1 0 .2l.3.6c.1.1.1.2.2.3 0 0 0 .1.1.1.1.2 0 .5-.2.5-.2.1-.4 0-.5-.2v-.1c-.1-.1-.1-.2-.1-.4-.1-.3-.2-.5-.3-.6s-.1-.1-.2-.1l-.1-.1c-.2.1-.4.1-.7.2-1 .2-2 .1-2.9-.2l-.1.2c-.1 0-.1 0-.2.1-.1.2-.2.4-.3.7 0 .1-.1.2-.1.4v.1c-.1.2-.3.3-.5.2-.3-.4-.3-.7-.2-.9v-.1c.1-.1.1-.2.2-.3.1-.2.3-.4.3-.6v-.2l.1-.2c-1-.6-1.8-1.6-2.2-2.8h-.2s-.1-.1-.2-.1c-.2 0-.4.1-.7.2-.1 0-.2.1-.3.1h-.1c-.2 0-.4-.1-.5-.3 0-.2.1-.4.3-.5h.5c.3 0 .5-.1.7-.1.1 0 .1-.1.2-.2h.2c-.2-1.3.1-2.5.8-3.5h-.2s0-.2-.1-.2c-.2-.1-.3-.3-.6-.4-.1-.1-.2-.1-.3-.2 0 0-.1 0-.1-.1-.2-.1-.2-.4-.1-.6.1-.1.2-.1.3-.1s.2 0 .3.1c0 0 .1 0 .1.1l.3.3c.2.2.3.4.5.5.1.1.2 0 .2 0l.1.1c.7-.7 1.5-1.2 2.5-1.4.2-.1.5-.1.7-.1v-.2c.1 0 .1-.1.1-.2v-.7c0-.1 0-.2-.1-.4v-.1c0-.2.2-.4.4-.4s.4.2.4.4v.1c0 .1 0 .2-.1.4 0 .3-.1.5 0 .7 0 .1.1.1.1.2v.2c1.2.1 2.4.7 3.2 1.5l.1-.1h.2c.2-.1.3-.3.5-.5l.3-.3s.1 0 .1-.1c.2-.1.4-.1.6 0 .1.2.1.4-.1.6 0 0-.1 0-.1.1-.1.1-.2.1-.3.2-.2.1-.4.3-.6.4-.1.1-.1.1-.1.2l-.1.1c.3.5.6 1.1.7 1.7s.2 1.2.1 1.8h.2l.2.2c.2.1.4.1.7.1h.5c.2.1.4.4.3.6m2.5 0l-1.6-6.9c-.1-.4-.3-.7-.7-.8l-6.4-3.1c-.2-.1-.4-.1-.6-.1s-.3 0-.5.1l-6.4 3.1c-.3.2-.6.5-.7.8l-1.6 6.9c-.1.3 0 .7.2.9 0 0 0 .1.1.1l4.5 5.5c.2.3.6.5 1 .5h7.1c.4 0 .7-.2 1-.5l4.4-5.5c.2-.2.2-.6.2-1"/><path d="M141.6 663.2l-1.5 1.3c-.1 0-.1.1-.1.2 0 .2.1.4.2.4l1.9.6c0-.4 0-.9-.1-1.3 0-.4-.1-.8-.4-1.2m-3.1 4.1c0-.1-.1-.1-.2-.1h-.2c-.1 0-.2.1-.3.2l-1 1.8c.7.2 1.4.3 2.2.1.1 0 .3-.1.4-.1l-.9-1.9zm1.5-1s-.1 0 0 0h-.2c-.2.1-.2.3-.2.4l.8 1.9c.7-.5 1.3-1.2 1.6-2l-2-.3z"/></g><path fill="#333" d="M139.1 312.8h-1.9l-5-8.3v8.3h-1.9v-11.3h1.9l5 8.3v-8.3h1.9v11.3zm1.9-4.3c0-1.3.3-2.3 1-3.1.7-.8 1.6-1.2 2.8-1.2s2.2.4 2.9 1.2c.7.8 1 1.8 1 3.1v.2c0 1.3-.3 2.3-1 3.1-.7.8-1.6 1.2-2.8 1.2-1.2 0-2.2-.4-2.9-1.2-.7-.8-1-1.8-1-3.1v-.2zm1.9.2c0 .8.2 1.5.5 2s.8.8 1.5.8 1.2-.3 1.5-.8c.3-.5.5-1.2.5-2v-.2c0-.8-.2-1.5-.5-2s-.8-.8-1.5-.8-1.2.3-1.5.8c-.3.5-.5 1.2-.5 2v.2zm7.2 0c0-1.3.3-2.4.9-3.3s1.4-1.2 2.4-1.2c.5 0 .9.1 1.2.3.4.2.7.4.9.8v-4.6h1.9v12.2h-1.6l-.2-1c-.3.4-.6.7-1 .9-.4.2-.8.3-1.3.3-1 0-1.8-.4-2.4-1.1-.6-.7-.9-1.7-.9-3v-.3h.1zm1.9.2c0 .8.1 1.4.4 1.9.3.5.8.7 1.4.7.4 0 .7-.1 1-.3.3-.2.5-.4.7-.7v-3.7c-.2-.3-.4-.6-.7-.7s-.6-.3-1-.3c-.6 0-1.1.3-1.4.8-.3.5-.5 1.3-.5 2.1v.2h.1zm11.1 4.1c-1.2 0-2.2-.4-2.9-1.2-.7-.8-1.1-1.8-1.1-3v-.3c0-1.2.4-2.2 1.1-3.1.7-.8 1.6-1.2 2.7-1.2s2 .3 2.6 1c.6.7.9 1.6.9 2.8v1.1h-5.3c0 .7.2 1.2.6 1.6.4.4.9.6 1.5.6.5 0 .9-.1 1.3-.2s.7-.3 1.1-.5l.6 1.2c-.3.3-.7.5-1.3.7-.5.4-1.1.5-1.8.5zm-.2-7.2c-.5 0-.9.2-1.2.6-.3.4-.5.8-.6 1.4h3.4v-.2c0-.5-.1-1-.4-1.3-.3-.3-.6-.5-1.2-.5zm13.7 7h-1.9v-9.6h-2.3v-1.4l4.2-.4v11.4z"/><path fill="#f2f6fb" d="M137.1 387.7l11.6-4.6 68.4.1h65.2l11.6 4.6"/><path fill="#d2d2d2" d="M137 399.2h157v-10c0-3.3-2.7-6-6-6H143c-3.3 0-6 2.7-6 6v10z"/><path fill="#a3a3a3" d="M144 389.2h4v4h-4v-4zm6 0h4v4h-4v-4zm6 0h4v4h-4v-4z"/><path fill="#990e16" d="M284.8 392.7c-.7.5-1.3.9-1.9 1.2l1.9 3.1.7-5c-.2.3-.5.5-.7.7z"/><path fill="#ec1622" d="M287.5 389.8c-.1.1-.2.3-.3.4-.3.4-.7.9-1.1 1.2l-.6.6-.8 5 2.9-7.5c.1.1 0 .2-.1.3z"/><path fill="#fefefd" d="M276 389.4c-.1.1-.1.2-.2.2l.2-.2c-.1 0 0 0 0 0zm0 1.6l3 .2 4.1-2 1.7-2.6-.8-1.2h-.8c.5.1.9.3 1.1.6.5 1-.9 2.7-3.1 3.9-2.2 1.2-4.5 1.3-5 .3-.2-.4-.1-1 .3-1.5l-.1.1v.1c-.1.1-.2.3-.4.5v1.6zm-.3-1.1z"/><path fill="#fefefd" d="M283.3 385.4h.8c.1 0 .3 0 .4.1.7.2 1.5.4 2.1.6.1 0 .2.1.3.1h.1c-.7-.3-1.7-.5-2.4-.8h-1.3zm-7 3.5s.1 0 0 0c.1 0 0 0 0 0z"/><path fill="#990e16" d="M288 387.3c-.2-.5-.7-.9-1.1-1h-.1l-1.9.4 1.9.9 1.3.6c0-.3 0-.6-.1-.9zm-.9 2.9l-.6-.1-.7-.2-2.7-.7 1.2 1.5.5.6.6.7.6-.6c.4-.4.8-.8 1.1-1.2zm-10.3 5l-.4-.1c.1 0 .2 0 .4.1z"/><path fill="#990e16" d="M279.7 395l-.3-1.6v-.2l-.4-2-2 2.9-.7 1 .4.1 8 1.8-5-2z"/><path fill="#930f17" d="M276.4 394.8l-.1-1.3-.3-2.5-.5.5-.6.6c-.1.2-.1.4-.1.6-.1.5-.1.9.1 1.1v.1c.3.6.8.9 1.3 1.1h.1v-.2z"/><g fill="#ec1622"><path d="M283 385.5h.1l.2-.1c-1-.2-2.5.2-3.9.9-1.3.7-2.4 1.6-2.9 2.4l.5-.5 6-2.7z"/><path d="M284.3 386.1c-.2-.3-.5-.5-1.1-.6l-.2.1h-.1l-6 2.8-.5.5c-.4.6-.5 1.1-.3 1.5.5 1 2.8.9 5-.3 2.3-1.3 3.8-3 3.2-4z"/></g><path fill="#ec1622" d="M277 388.3l6-2.8h.1l.1-.1-.1.1h-.1l-6 2.8-.5.5.5-.5z"/><path fill="#f36662" d="M282.8 393.9c-.8.4-1.8.8-2.9 1.1h-.2l5.1 2-2-3.1z"/><path fill="#930f17" d="M282.8 393.9l-1.9-1.3-.1-.1-1.8-1.3.4 2v.2l.3 1.6h.2c1.1-.3 2.1-.7 2.9-1.1zm2.1-2.6l-.5-.6-1.2-1.5-.1 2.2v.4l-.2 2.1c.6-.3 1.3-.7 1.9-1.2.3-.2.5-.4.8-.6l-.7-.8z"/><path fill="#ec1622" d="M281.7 392.1c-.1 0-.2 0-.3.1l.3-.1z"/><path fill="#ec1622" d="M279 391.2l1.8 1.3.1.1 1.9 1.3.1-2v-.4l.2-2.2-4.1 1.9z"/><path fill="#930f17" d="M286.8 387.6l-1.9-.9 2.1 3 .2.3.1.1.1.1c.1-.1.2-.3.3-.4.1-.1.1-.2.2-.3.2-.4.3-.7.4-1.1v-.2l-1.5-.6z"/><path fill="#ec1622" d="M287.2 390.1l-.2-.4-2.1-3-1.7 2.6 2.7.6.7.2.5.1.1-.1.1.1-.1-.1z"/><path fill="#f36662" d="M276 391l.2 2.5.1 1.3v.2l.7-1 1.9-2.9-2.9-.1zm-.1-1.6c-.1.1-.1.2-.1.2s-.1.1-.1.2v.1c-.2.5-.4 1.1-.6 1.7l-.1.4.6-.6.5-.5c-.1.1-.2-1.5-.2-1.5zm10.6-3.3c-.6-.2-1.4-.4-2.1-.6-.1 0-.2-.1-.4-.1l.8 1.2 1.9-.4s-.1 0-.2-.1z"/><g><path d="M146 376.1v2.7h-1.2v-7.1h2.8c.8 0 1.4.2 1.8.6s.7.9.7 1.6c0 .7-.2 1.2-.7 1.6s-1.1.6-1.8.6H146zm0-1h1.6c.4 0 .8-.1 1-.4s.3-.5.3-.9-.1-.7-.3-.9-.6-.4-1-.4H146v2.6zM150.8 376.1c0-.8.2-1.4.6-1.9.4-.5 1-.8 1.8-.8s1.4.3 1.8.8c.4.5.6 1.1.6 1.9v.1c0 .8-.2 1.4-.6 1.9-.4.5-1 .7-1.8.7s-1.3-.3-1.8-.8c-.4-.5-.6-1.1-.6-1.9zm1.2.1c0 .5.1.9.3 1.3.2.3.5.5.9.5s.7-.2.9-.5c.2-.3.3-.7.3-1.3v-.1c0-.5-.1-.9-.3-1.2-.2-.3-.5-.5-.9-.5s-.7.2-.9.5c-.2.3-.3.7-.3 1.2v.1zM156.5 376.2c0-.8.2-1.5.5-2s.9-.8 1.5-.8c.3 0 .5.1.8.2s.4.3.6.5v-2.9h1.2v7.6h-1l-.1-.7-.6.6c-.2.2-.5.2-.8.2-.6 0-1.2-.2-1.5-.7s-.5-1.1-.5-1.9v-.1zm1.1.1c0 .5.1.9.3 1.2s.5.4.9.4c.3 0 .5-.1.6-.2s.3-.3.4-.5V375c-.1-.2-.3-.3-.4-.5s-.4-.2-.6-.2c-.4 0-.7.2-.9.5s-.3.8-.3 1.3v.2zM167.7 378.8h-1.2v-6h-1.4v-.9l2.6-.3v7.2z"/></g><g fill="#424242"><path d="M225.2 334.3v3.1h-1.7v-8.5h3.4c1 0 1.8.2 2.3.8s.8 1.2.8 2-.3 1.5-.8 2-1.3.7-2.3.7h-1.7zm0-1.3h1.7c.5 0 .8-.1 1.1-.4s.4-.6.4-1-.1-.7-.4-1-.6-.4-1.1-.4h-1.7v2.8zM238.1 333.9c0 1-.3 1.9-1 2.6s-1.5 1-2.6 1-1.9-.3-2.6-1-1-1.5-1-2.6v-1.5c0-1 .3-1.9 1-2.6s1.5-1 2.6-1 1.9.3 2.6 1 1 1.5 1 2.6v1.5zm-1.7-1.5c0-.7-.2-1.2-.5-1.6-.3-.4-.8-.6-1.4-.6s-1 .2-1.4.6c-.3.4-.5 1-.5 1.6v1.5c0 .7.2 1.2.5 1.7.3.4.8.6 1.4.6.6 0 1-.2 1.4-.6.3-.4.5-1 .5-1.7v-1.5zM241.2 334v3.4h-1.7v-8.5h3.2c1 0 1.7.2 2.3.7s.8 1.1.8 1.9c0 .4-.1.8-.3 1.1s-.6.6-1 .8c.5.1.9.4 1.1.7s.3.8.3 1.3v.6c0 .2 0 .5.1.7s.2.5.3.6v.1h-1.8c-.2-.1-.3-.3-.3-.6s-.1-.6-.1-.8v-.6c0-.4-.1-.8-.3-1s-.6-.4-1-.4h-1.6zm0-1.3h1.5c.5 0 .8-.1 1.1-.3s.4-.5.4-.9-.1-.7-.4-.9-.6-.3-1-.3h-1.5v2.4zM253.1 330.2h-2.4v7.2H249v-7.2h-2.4v-1.3h6.5v1.3zM254.6 332.3h-1.7v-1.5h1.7v1.5zm0 5.1h-1.7v-1.5h1.7v1.5zM260.8 332.4h1c.4 0 .7-.1.9-.3s.3-.5.3-.9c0-.3-.1-.6-.3-.8s-.5-.3-.8-.3c-.3 0-.6.1-.8.3s-.3.4-.3.7H259c0-.7.2-1.2.8-1.7s1.2-.7 2-.7c.9 0 1.6.2 2.1.6s.8 1 .8 1.8c0 .4-.1.7-.4 1.1s-.6.6-1 .8c.5.2.8.4 1.1.8s.4.8.4 1.2c0 .8-.3 1.4-.9 1.8s-1.3.7-2.2.7c-.8 0-1.5-.2-2-.6s-.8-1-.8-1.8h1.7c0 .3.1.6.4.8.2.2.5.3.9.3s.7-.1.9-.3.3-.5.3-.9-.1-.8-.3-1c-.2-.2-.6-.3-1-.3h-1v-1.3zM271.7 334.1c0 1.1-.3 2-.8 2.6s-1.2.9-2.1.9c-.9 0-1.6-.3-2.1-.9s-.8-1.4-.8-2.6v-1.9c0-1.1.3-2 .8-2.6s1.2-.9 2.1-.9c.9 0 1.6.3 2.1.9s.8 1.4.8 2.6v1.9zM270 332c0-.7-.1-1.2-.3-1.5-.2-.3-.5-.5-.9-.5s-.7.2-.9.5-.3.8-.3 1.5v2.2c0 .7.1 1.2.3 1.5s.5.5.9.5.7-.2.9-.5.3-.8.3-1.5V332zM278.6 334.1c0 1.1-.3 2-.8 2.6s-1.2.9-2.1.9c-.9 0-1.6-.3-2.1-.9s-.8-1.4-.8-2.6v-1.9c0-1.1.3-2 .8-2.6s1.2-.9 2.1-.9c.9 0 1.6.3 2.1.9s.8 1.4.8 2.6v1.9zm-1.7-2.1c0-.7-.1-1.2-.3-1.5-.2-.3-.5-.5-.9-.5s-.7.2-.9.5-.3.8-.3 1.5v2.2c0 .7.1 1.2.3 1.5s.5.5.9.5.7-.2.9-.5.3-.8.3-1.5V332zM285.5 334.1c0 1.1-.3 2-.8 2.6s-1.2.9-2.1.9c-.9 0-1.6-.3-2.1-.9s-.8-1.4-.8-2.6v-1.9c0-1.1.3-2 .8-2.6s1.2-.9 2.1-.9c.9 0 1.6.3 2.1.9s.8 1.4.8 2.6v1.9zm-1.7-2.1c0-.7-.1-1.2-.3-1.5-.2-.3-.5-.5-.9-.5s-.7.2-.9.5-.3.8-.3 1.5v2.2c0 .7.1 1.2.3 1.5s.5.5.9.5.7-.2.9-.5.3-.8.3-1.5V332zM292.4 334.1c0 1.1-.3 2-.8 2.6s-1.2.9-2.1.9c-.9 0-1.6-.3-2.1-.9s-.8-1.4-.8-2.6v-1.9c0-1.1.3-2 .8-2.6s1.2-.9 2.1-.9c.9 0 1.6.3 2.1.9s.8 1.4.8 2.6v1.9zm-1.7-2.1c0-.7-.1-1.2-.3-1.5-.2-.3-.5-.5-.9-.5s-.7.2-.9.5-.3.8-.3 1.5v2.2c0 .7.1 1.2.3 1.5s.5.5.9.5.7-.2.9-.5.3-.8.3-1.5V332z"/></g><g><path fill="#f2f6fb" d="M137.1 429.8l11.6-4.6 68.4.1h65.2l11.6 4.6"/><path fill="#d2d2d2" d="M137 441.3h157v-10c0-3.3-2.7-6-6-6H143c-3.3 0-6 2.7-6 6v10z"/><path fill="#a3a3a3" d="M144 431.3h4v4h-4v-4zm6 0h4v4h-4v-4zm6 0h4v4h-4v-4z"/><path fill="#990e16" d="M284.8 434.7c-.7.5-1.3.9-1.9 1.2l1.9 3.1.7-5c-.2.3-.5.6-.7.7z"/><path fill="#ec1622" d="M287.5 431.9c-.1.1-.2.3-.3.4-.3.4-.7.9-1.1 1.2l-.6.6-.8 5 2.9-7.5c.1 0 0 .2-.1.3z"/><path fill="#fefefd" d="M276 431.5c-.1.1-.1.2-.2.2l.2-.2c-.1 0 0 0 0 0zm0 1.6l3 .2 4.1-2 1.7-2.6-.8-1.2h-.8c.5.1.9.3 1.1.6.5 1-.9 2.7-3.1 3.9-2.2 1.2-4.5 1.3-5 .3-.2-.4-.1-1 .3-1.5l-.1.1v.1c-.1.1-.2.3-.4.5v1.6zm-.3-1.2c0 .1 0 .1 0 0 0 .1 0 .1 0 0z"/><path fill="#fefefd" d="M283.3 427.5h.8c.1 0 .3 0 .4.1.7.2 1.5.4 2.1.6.1 0 .2.1.3.1h.1c-.7-.3-1.7-.5-2.4-.8-.5-.1-1.3 0-1.3 0zm-7 3.5s.1 0 0 0c.1 0 0 0 0 0z"/><path fill="#990e16" d="M288 429.4c-.2-.5-.7-.9-1.1-1h-.1l-1.9.4 1.9.9 1.3.6c0-.4 0-.6-.1-.9zm-.9 2.8l-.6-.1-.7-.2-2.7-.7 1.2 1.5.5.6.6.7.6-.6c.4-.4.8-.8 1.1-1.2zm-10.3 5l-.4-.1c.1.1.2.1.4.1z"/><path fill="#990e16" d="M279.7 437.1l-.3-1.6v-.2l-.4-2-2 2.9-.7 1 .4.1 8 1.8-5-2z"/><path fill="#930f17" d="M276.4 436.9l-.1-1.3-.2-2.5-.5.5-.6.6c-.1.2-.1.4-.1.6-.1.5-.1.9.1 1.1v.1c.3.6.8.9 1.3 1.1h.1v-.2z"/><g fill="#ec1622"><path d="M283 427.6h.1l.2-.1c-1-.2-2.5.2-3.9.9-1.3.7-2.4 1.6-2.9 2.4l.5-.5 6-2.7z"/><path d="M284.3 428.1c-.2-.3-.5-.5-1.1-.6l-.2.1h-.1l-6 2.8-.5.5c-.4.6-.5 1.1-.3 1.5.5 1 2.8.9 5-.3 2.3-1.2 3.8-3 3.2-4z"/></g><path fill="#ec1622" d="M277 430.4l6-2.8h.1l.1-.1-.1.1h-.1l-6 2.8-.5.5.5-.5z"/><path fill="#f36662" d="M282.8 436c-.8.4-1.8.8-2.9 1.1h-.2l5.1 2-2-3.1z"/><path fill="#930f17" d="M282.8 436l-1.9-1.3-.1-.1-1.8-1.3.4 2v.2l.3 1.6h.2c1.1-.3 2.1-.7 2.9-1.1zm2.1-2.6l-.5-.6-1.2-1.5-.1 2.2v.4l-.2 2.1c.6-.3 1.3-.7 1.9-1.2.3-.2.5-.4.8-.6l-.7-.8z"/><path fill="#ec1622" d="M281.7 434.2c-.1 0-.2 0-.3.1l.3-.1z"/><path fill="#ec1622" d="M279 433.3l1.8 1.3.1.1 1.9 1.3.1-2v-.4l.2-2.2-4.1 1.9z"/><path fill="#930f17" d="M286.8 429.6l-1.9-.9 2.1 3 .2.3.1.1.1.1c.1-.1.2-.3.3-.4.1-.1.1-.2.2-.3.2-.4.3-.7.4-1.1v-.2l-1.5-.6z"/><path fill="#ec1622" d="M287.2 432.2l-.2-.4-2.1-3-1.7 2.6 2.7.6.7.2.5.1.1-.1.1.1-.1-.1z"/><path fill="#f36662" d="M276 433.1l.2 2.5.1 1.3v.2l.7-1 1.9-2.9-2.9-.1zm-.1-1.6c-.1.1-.1.2-.1.2s-.1.1-.1.2v.1c-.2.5-.4 1.1-.6 1.7l-.1.4.6-.6.5-.5c-.1.1-.2-1.5-.2-1.5zm10.6-3.3c-.6-.2-1.4-.4-2.1-.6-.1 0-.2-.1-.4-.1l.8 1.2 1.9-.4s-.1-.1-.2-.1z"/><g><path d="M146 418.1v2.7h-1.2v-7.1h2.8c.8 0 1.4.2 1.8.6s.7.9.7 1.6c0 .7-.2 1.2-.7 1.6-.4.4-1.1.6-1.8.6H146zm0-.9h1.6c.4 0 .8-.1 1-.4s.3-.5.3-.9-.1-.7-.3-.9c-.2-.2-.6-.4-1-.4H146v2.6zM150.8 418.1c0-.8.2-1.4.6-1.9.4-.5 1-.8 1.8-.8s1.4.3 1.8.8c.4.5.6 1.1.6 1.9v.1c0 .8-.2 1.4-.6 1.9-.4.5-1 .7-1.8.7s-1.3-.3-1.8-.8c-.4-.5-.6-1.1-.6-1.9zm1.2.1c0 .5.1.9.3 1.3.2.3.5.5.9.5s.7-.2.9-.5c.2-.3.3-.7.3-1.3v-.1c0-.5-.1-.9-.3-1.2-.2-.3-.5-.5-.9-.5s-.7.2-.9.5c-.2.3-.3.7-.3 1.2v.1zM156.5 418.3c0-.8.2-1.5.5-2 .4-.5.9-.8 1.5-.8.3 0 .5.1.8.2.2.1.4.3.6.5v-2.9h1.2v7.6h-1l-.1-.7-.6.6c-.2.1-.5.2-.8.2-.6 0-1.2-.2-1.5-.7-.4-.5-.5-1.1-.5-1.9v-.1zm1.1.1c0 .5.1.9.3 1.2.2.3.5.4.9.4.3 0 .5-.1.6-.2s.3-.3.4-.5V417c-.1-.2-.3-.3-.4-.5-.2-.1-.4-.2-.6-.2-.4 0-.7.2-.9.5-.2.3-.3.8-.3 1.3v.3zM169.5 420.8h-4.7v-.8l2.3-2.5c.4-.4.6-.8.8-1 .1-.3.2-.5.2-.8 0-.3-.1-.6-.3-.8s-.4-.3-.8-.3-.7.1-.9.4-.3.6-.3 1h-1.1c0-.6.2-1.2.6-1.6.4-.4 1-.6 1.8-.6.7 0 1.2.2 1.6.6.4.4.6.9.6 1.5 0 .4-.1.8-.3 1.2s-.6.8-1.1 1.4l-1.6 1.7h3.2v.6z"/></g></g><g><path fill="#f2f6fb" d="M137.1 471.9l11.6-4.6 68.4.1h65.2l11.6 4.6"/><path fill="#d2d2d2" d="M137 483.4h157v-10c0-3.3-2.7-6-6-6H143c-3.3 0-6 2.7-6 6v10z"/><path fill="#a3a3a3" d="M144 473.4h4v4h-4v-4zm6 0h4v4h-4v-4zm6 0h4v4h-4v-4z"/><path fill="#990e16" d="M284.8 476.8c-.7.5-1.3.9-1.9 1.2l1.9 3.1.7-5c-.2.3-.5.5-.7.7z"/><path fill="#ec1622" d="M287.5 474c-.1.1-.2.3-.3.4-.3.4-.7.9-1.1 1.2l-.6.6-.8 5 2.9-7.5c.1 0 0 .1-.1.3z"/><path fill="#fefefd" d="M276 473.6c-.1.1-.1.2-.2.2 0-.1.1-.1.2-.2-.1 0 0 0 0 0zm0 1.5l3 .2 4.1-2 1.7-2.6-.8-1.2h-.8c.5.1.9.3 1.1.6.5 1-.9 2.7-3.1 3.9-2.2 1.2-4.5 1.3-5 .3-.2-.4-.1-1 .3-1.5l-.1.1v.1c-.1.1-.2.3-.4.5v1.6zm-.3-1.1s0 .1 0 0c0 .1 0 .1 0 0z"/><path fill="#fefefd" d="M283.3 469.6h.8c.1 0 .3 0 .4.1.7.2 1.5.4 2.1.6.1 0 .2.1.3.1h.1c-.7-.3-1.7-.5-2.4-.8-.5-.1-1.3 0-1.3 0zm-7 3.5s.1-.1 0 0c.1-.1 0 0 0 0z"/><path fill="#990e16" d="M288 471.4c-.2-.5-.7-.9-1.1-1h-.1l-1.9.4 1.9.9 1.3.6c0-.3 0-.6-.1-.9zm-.9 2.9l-.6-.1-.7-.2-2.7-.7 1.2 1.5.5.6.6.7.6-.6c.4-.4.8-.8 1.1-1.2zm-10.3 5l-.4-.1c.1.1.2.1.4.1z"/><path fill="#990e16" d="M279.7 479.2l-.3-1.6v-.2l-.4-2-2 2.9-.7 1 .4.1 8 1.8-5-2z"/><path fill="#930f17" d="M276.4 479l-.1-1.3-.2-2.5-.5.5-.6.6c-.1.2-.1.4-.1.6-.1.5-.1.9.1 1.1v.1c.3.6.8.9 1.3 1.1h.1v-.2z"/><g fill="#ec1622"><path d="M283 469.7h.1l.2-.1c-1-.2-2.5.2-3.9.9-1.3.7-2.4 1.6-2.9 2.4l.5-.5 6-2.7z"/><path d="M284.3 470.2c-.2-.3-.5-.5-1.1-.6l-.2.1h-.1l-6 2.8-.5.5c-.4.6-.5 1.1-.3 1.5.5 1 2.8.9 5-.3 2.3-1.2 3.8-3 3.2-4z"/></g><path fill="#ec1622" d="M277 472.4l6-2.8h.1l.1-.1-.1.1h-.1l-6 2.8-.5.5.5-.5z"/><path fill="#f36662" d="M282.8 478c-.8.4-1.8.8-2.9 1.1h-.2l5.1 2-2-3.1z"/><path fill="#930f17" d="M282.8 478l-1.9-1.3-.1-.1-1.8-1.3.4 2v.2l.3 1.6h.2c1.1-.3 2.1-.6 2.9-1.1zm2.1-2.6l-.5-.6-1.2-1.5-.1 2.2v.4l-.2 2.1c.6-.3 1.3-.7 1.9-1.2.3-.2.5-.4.8-.6l-.7-.8z"/><path fill="#ec1622" d="M281.7 476.3c-.1 0-.2 0-.3.1l.3-.1z"/><path fill="#ec1622" d="M279 475.3l1.8 1.3.1.1 1.9 1.3.1-2v-.4l.2-2.2-4.1 1.9z"/><path fill="#930f17" d="M286.8 471.7l-1.9-.9 2.1 3 .2.3.1.1.1.1c.1-.1.2-.3.3-.4.1-.1.1-.2.2-.3.2-.4.3-.7.4-1.1v-.2l-1.5-.6z"/><path fill="#ec1622" d="M287.2 474.2l-.2-.4-2.1-3-1.7 2.6 2.7.6.7.2.5.1.1-.1.1.1-.1-.1z"/><path fill="#f36662" d="M276 475.1l.2 2.5.1 1.3v.2l.7-1 1.9-2.9-2.9-.1zm-.1-1.5c-.1.1-.1.2-.1.2 0 .1-.1.1-.1.2v.1c-.2.5-.4 1.1-.6 1.7l-.1.4.6-.6.5-.5c-.1.1-.2-1.5-.2-1.5zm10.6-3.3c-.6-.2-1.4-.4-2.1-.6-.1 0-.2-.1-.4-.1l.8 1.2 1.9-.4s-.1-.1-.2-.1z"/><g><path d="M146 460.2v2.7h-1.2v-7.1h2.8c.8 0 1.4.2 1.8.6s.7.9.7 1.6c0 .7-.2 1.2-.7 1.6-.4.4-1.1.6-1.8.6H146zm0-.9h1.6c.4 0 .8-.1 1-.4s.3-.5.3-.9-.1-.7-.3-.9c-.2-.2-.6-.4-1-.4H146v2.6zM150.8 460.2c0-.8.2-1.4.6-1.9.4-.5 1-.8 1.8-.8s1.4.3 1.8.8c.4.5.6 1.1.6 1.9v.1c0 .8-.2 1.4-.6 1.9-.4.5-1 .7-1.8.7s-1.3-.3-1.8-.8c-.4-.5-.6-1.1-.6-1.9zm1.2.1c0 .5.1.9.3 1.3.2.3.5.5.9.5s.7-.2.9-.5c.2-.3.3-.7.3-1.3v-.1c0-.5-.1-.9-.3-1.2-.2-.3-.5-.5-.9-.5s-.7.2-.9.5c-.2.3-.3.7-.3 1.2v.1zM156.5 460.3c0-.8.2-1.5.5-2 .4-.5.9-.8 1.5-.8.3 0 .5.1.8.2.2.1.4.3.6.5v-2.9h1.2v7.6h-1l-.1-.7-.6.6c-.2.1-.5.2-.8.2-.6 0-1.2-.2-1.5-.7-.4-.5-.5-1.1-.5-1.9v-.1zm1.1.1c0 .5.1.9.3 1.2.2.3.5.4.9.4.3 0 .5-.1.6-.2s.3-.3.4-.5V459c-.1-.2-.3-.3-.4-.5-.2-.1-.4-.2-.6-.2-.4 0-.7.2-.9.5-.2.3-.3.8-.3 1.3v.3zM166.1 458.8h.8c.4 0 .7-.1.8-.3s.3-.5.3-.8c0-.3-.1-.6-.3-.8-.2-.2-.5-.3-.8-.3-.3 0-.6.1-.8.3-.2.2-.3.4-.3.7h-1.1c0-.5.2-1 .6-1.4.4-.4 1-.6 1.6-.6.7 0 1.2.2 1.7.5s.6.9.6 1.5c0 .3-.1.6-.3.9s-.4.5-.8.7c.4.1.7.4.9.7s.3.6.3 1c0 .7-.2 1.2-.7 1.5-.4.4-1 .6-1.7.6s-1.2-.2-1.7-.5c-.4-.3-.7-.8-.6-1.5h1.1c0 .3.1.6.3.8s.5.3.8.3c.4 0 .7-.1.9-.3s.3-.5.3-.8c0-.4-.1-.7-.3-.9-.2-.2-.5-.3-.9-.3h-.8v-1z"/></g></g><g><path fill="#f2f6fb" d="M137.1 513.9l11.6-4.6 68.4.1h65.2l11.6 4.6"/><path fill="#d2d2d2" d="M137 525.4h157v-10c0-3.3-2.7-6-6-6H143c-3.3 0-6 2.7-6 6v10z"/><path fill="#a3a3a3" d="M144 515.4h4v4h-4v-4zm6 0h4v4h-4v-4zm6 0h4v4h-4v-4z"/><path fill="#990e16" d="M284.8 518.9c-.7.5-1.3.9-1.9 1.2l1.9 3.1.7-5c-.2.3-.5.5-.7.7z"/><path fill="#ec1622" d="M287.5 516c-.1.1-.2.3-.3.4-.3.4-.7.9-1.1 1.2l-.6.6-.8 5 2.9-7.5c.1.1 0 .2-.1.3z"/><path fill="#fefefd" d="M276 515.7c-.1.1-.1.2-.2.2 0-.1.1-.2.2-.2-.1 0 0 0 0 0zm0 1.5l3 .2 4.1-2 1.7-2.6-.8-1.2h-.8c.5.1.9.3 1.1.6.5 1-.9 2.7-3.1 3.9-2.2 1.2-4.5 1.3-5 .3-.2-.4-.1-1 .3-1.5l-.1.1v.1c-.1.1-.2.3-.4.5v1.6zm-.3-1.1z"/><path fill="#fefefd" d="M283.3 511.7h.8c.1 0 .3 0 .4.1.7.2 1.5.4 2.1.6.1 0 .2.1.3.1h.1c-.7-.3-1.7-.5-2.4-.8-.5-.1-1.3 0-1.3 0zm-7 3.5c0-.1.1-.1 0 0 .1-.1 0-.1 0 0z"/><path fill="#990e16" d="M288 513.5c-.2-.5-.7-.9-1.1-1h-.1l-1.9.4 1.9.9 1.3.6c0-.3 0-.6-.1-.9zm-.9 2.9l-.6-.1-.7-.2-2.7-.7 1.2 1.5.5.6.6.7.6-.6c.4-.4.8-.8 1.1-1.2zm-10.3 5l-.4-.1c.1 0 .2.1.4.1z"/><path fill="#990e16" d="M279.7 521.2l-.3-1.6v-.2l-.4-2-2 2.9-.7 1 .4.1 8 1.8-5-2z"/><path fill="#930f17" d="M276.4 521.1l-.1-1.3-.2-2.5-.5.5-.6.6c-.1.2-.1.4-.1.6-.1.5-.1.9.1 1.1v.1c.3.6.8.9 1.3 1.1h.1v-.2z"/><g fill="#ec1622"><path d="M283 511.8h.1l.2-.1c-1-.2-2.5.2-3.9.9-1.3.7-2.4 1.6-2.9 2.4l.5-.5 6-2.7z"/><path d="M284.3 512.3c-.2-.3-.5-.5-1.1-.6l-.2.1h-.1l-6 2.8-.5.5c-.4.6-.5 1.1-.3 1.5.5 1 2.8.9 5-.3 2.3-1.3 3.8-3 3.2-4z"/></g><path fill="#ec1622" d="M277 514.5l6-2.8h.1l.1-.1-.1.1h-.1l-6 2.8-.5.5.5-.5z"/><path fill="#f36662" d="M282.8 520.1c-.8.4-1.8.8-2.9 1.1h-.2l5.1 2-2-3.1z"/><path fill="#930f17" d="M282.8 520.1l-1.9-1.3-.1-.1-1.8-1.3.4 2v.2l.3 1.6h.2c1.1-.3 2.1-.7 2.9-1.1zm2.1-2.6l-.5-.6-1.2-1.5-.1 2.2v.4l-.2 2.1c.6-.3 1.3-.7 1.9-1.2.3-.2.5-.4.8-.6l-.7-.8z"/><path fill="#ec1622" d="M281.7 518.4c-.1 0-.2 0-.3.1l.3-.1z"/><path fill="#ec1622" d="M279 517.4l1.8 1.3.1.1 1.9 1.3.1-2v-.4l.2-2.2-4.1 1.9z"/><path fill="#930f17" d="M286.8 513.8l-1.9-.9 2.1 3 .2.3.1.1.1.1c.1-.1.2-.3.3-.4.1-.1.1-.2.2-.3.2-.4.3-.7.4-1.1v-.2l-1.5-.6z"/><path fill="#ec1622" d="M287.2 516.3l-.2-.4-2.1-3-1.7 2.6 2.7.6.7.2.5.1.1-.1.1.1-.1-.1z"/><path fill="#f36662" d="M276 517.2l.2 2.5.1 1.3v.2l.7-1 1.9-2.9-2.9-.1zm-.1-1.5c-.1.1-.1.2-.1.2s-.1.1-.1.2v.1c-.2.5-.4 1.1-.6 1.7l-.1.4.6-.6.5-.5c-.1 0-.2-1.5-.2-1.5zm10.6-3.3c-.6-.2-1.4-.4-2.1-.6-.1 0-.2-.1-.4-.1l.8 1.2 1.9-.4c0-.1-.1-.1-.2-.1z"/><g><path d="M146 502.3v2.7h-1.2v-7.1h2.8c.8 0 1.4.2 1.8.6s.7.9.7 1.6c0 .7-.2 1.2-.7 1.6-.4.4-1.1.6-1.8.6H146zm0-1h1.6c.4 0 .8-.1 1-.4s.3-.5.3-.9-.1-.7-.3-.9c-.2-.2-.6-.4-1-.4H146v2.6zM150.8 502.3c0-.8.2-1.4.6-1.9.4-.5 1-.8 1.8-.8s1.4.3 1.8.8c.4.5.6 1.1.6 1.9v.1c0 .8-.2 1.4-.6 1.9-.4.5-1 .7-1.8.7s-1.3-.2-1.8-.8c-.4-.5-.6-1.1-.6-1.9zm1.2.1c0 .5.1.9.3 1.3.2.3.5.5.9.5s.7-.2.9-.5c.2-.3.3-.7.3-1.3v-.1c0-.5-.1-.9-.3-1.2-.2-.3-.5-.5-.9-.5s-.7.2-.9.5c-.2.3-.3.7-.3 1.2v.1zM156.5 502.4c0-.8.2-1.5.5-2 .4-.5.9-.8 1.5-.8.3 0 .5.1.8.2.2.1.4.3.6.5v-2.9h1.2v7.6h-1l-.1-.7-.6.6c-.2.1-.5.2-.8.2-.6 0-1.2-.2-1.5-.7-.4-.5-.5-1.1-.5-1.9v-.1zm1.1.1c0 .5.1.9.3 1.2.2.3.5.4.9.4.3 0 .5-.1.6-.2s.3-.3.4-.5v-2.3c-.1-.2-.3-.3-.4-.5-.2-.1-.4-.2-.6-.2-.4 0-.7.2-.9.5-.2.3-.3.8-.3 1.3v.3zM168.7 502.4h.9v1h-.9v1.6h-1.2v-1.6h-3.1v-.7l3-4.8h1.2v4.5zm-3 0h1.9v-2.9l-.1.2-1.8 2.7z"/></g></g><g><path fill="#f2f6fb" d="M137.1 556l11.6-4.6 68.4.1h65.2l11.6 4.6"/><path fill="#d2d2d2" d="M137 567.5h157v-10c0-3.3-2.7-6-6-6H143c-3.3 0-6 2.7-6 6v10z"/><path fill="#a3a3a3" d="M144 557.5h4v4h-4v-4zm6 0h4v4h-4v-4zm6 0h4v4h-4v-4z"/><path fill="#990e16" d="M284.8 561c-.7.5-1.3.9-1.9 1.2l1.9 3.1.7-5c-.2.3-.5.5-.7.7z"/><path fill="#ec1622" d="M287.5 558.1c-.1.1-.2.3-.3.4-.3.4-.7.9-1.1 1.2l-.6.6-.8 5 2.9-7.5c.1.1 0 .2-.1.3z"/><path fill="#fefefd" d="M276 557.7c-.1.1-.1.2-.2.2l.2-.2c-.1 0 0 0 0 0zm0 1.6l3 .2 4.1-2 1.7-2.6-.8-1.2h-.8c.5.1.9.3 1.1.6.5 1-.9 2.7-3.1 3.9-2.2 1.2-4.5 1.3-5 .3-.2-.4-.1-1 .3-1.5l-.1.1v.1c-.1.1-.2.3-.4.5v1.6zm-.3-1.1z"/><path fill="#fefefd" d="M283.3 553.7h.8c.1 0 .3 0 .4.1.7.2 1.5.4 2.1.6.1 0 .2.1.3.1h.1c-.7-.3-1.7-.5-2.4-.8h-1.3zm-7 3.5s.1 0 0 0c.1 0 0 0 0 0z"/><path fill="#990e16" d="M288 555.6c-.2-.5-.7-.9-1.1-1h-.1l-1.9.4 1.9.9 1.3.6c0-.3 0-.6-.1-.9zm-.9 2.9l-.6-.1-.7-.2-2.7-.7 1.2 1.5.5.6.6.7.6-.6c.4-.4.8-.8 1.1-1.2zm-10.3 5l-.4-.1c.1 0 .2 0 .4.1z"/><path fill="#990e16" d="M279.7 563.3l-.3-1.6v-.2l-.4-2-2 2.9-.7 1 .4.1 8 1.8-5-2z"/><path fill="#930f17" d="M276.4 563.1l-.1-1.3-.2-2.5-.5.5-.6.6c-.1.2-.1.4-.1.6-.1.5-.1.9.1 1.1v.1c.3.6.8.9 1.3 1.1h.1v-.2z"/><g fill="#ec1622"><path d="M283 553.8h.1l.2-.1c-1-.2-2.5.2-3.9.9-1.3.7-2.4 1.6-2.9 2.4l.5-.5 6-2.7z"/><path d="M284.3 554.4c-.2-.3-.5-.5-1.1-.6l-.2.1h-.1l-6 2.8-.5.5c-.4.6-.5 1.1-.3 1.5.5 1 2.8.9 5-.3 2.3-1.3 3.8-3 3.2-4z"/></g><path fill="#ec1622" d="M277 556.6l6-2.8h.1l.1-.1-.1.1h-.1l-6 2.8-.5.5.5-.5z"/><path fill="#f36662" d="M282.8 562.2c-.8.4-1.8.8-2.9 1.1h-.2l5.1 2-2-3.1z"/><path fill="#930f17" d="M282.8 562.2l-1.9-1.3-.1-.1-1.8-1.3.4 2v.2l.3 1.6h.2c1.1-.3 2.1-.7 2.9-1.1zm2.1-2.6l-.5-.6-1.2-1.5-.1 2.2v.4l-.2 2.1c.6-.3 1.3-.7 1.9-1.2.3-.2.5-.4.8-.6l-.7-.8z"/><path fill="#ec1622" d="M281.7 560.4c-.1 0-.2 0-.3.1l.3-.1z"/><path fill="#ec1622" d="M279 559.5l1.8 1.3.1.1 1.9 1.3.1-2v-.4l.2-2.2-4.1 1.9z"/><path fill="#930f17" d="M286.8 555.9l-1.9-.9 2.1 3 .2.3.1.1.1.1c.1-.1.2-.3.3-.4.1-.1.1-.2.2-.3.2-.4.3-.7.4-1.1v-.2l-1.5-.6z"/><path fill="#ec1622" d="M287.2 558.4l-.2-.4-2.1-3-1.7 2.6 2.7.6.7.2.5.1.1-.1.1.1-.1-.1z"/><path fill="#f36662" d="M276 559.3l.2 2.5.1 1.3v.2l.7-1 1.9-2.9-2.9-.1zm-.1-1.6c-.1.1-.1.2-.1.2 0 .1-.1.1-.1.2v.1c-.2.5-.4 1.1-.6 1.7l-.1.4.6-.6.5-.5c-.1.1-.2-1.5-.2-1.5zm10.6-3.3c-.6-.2-1.4-.4-2.1-.6-.1 0-.2-.1-.4-.1l.8 1.2 1.9-.4s-.1 0-.2-.1z"/><g><path d="M146 544.4v2.7h-1.2V540h2.8c.8 0 1.4.2 1.8.6s.7.9.7 1.6c0 .7-.2 1.2-.7 1.6-.4.4-1.1.6-1.8.6H146zm0-1h1.6c.4 0 .8-.1 1-.4s.3-.5.3-.9-.1-.7-.3-.9c-.2-.2-.6-.4-1-.4H146v2.6zM150.8 544.4c0-.8.2-1.4.6-1.9.4-.5 1-.8 1.8-.8s1.4.3 1.8.8c.4.5.6 1.1.6 1.9v.1c0 .8-.2 1.4-.6 1.9-.4.5-1 .7-1.8.7s-1.3-.2-1.8-.8c-.4-.5-.6-1.1-.6-1.9zm1.2.1c0 .5.1.9.3 1.3.2.3.5.5.9.5s.7-.2.9-.5c.2-.3.3-.7.3-1.3v-.1c0-.5-.1-.9-.3-1.2-.2-.3-.5-.5-.9-.5s-.7.2-.9.5c-.2.3-.3.7-.3 1.2v.1zM156.5 544.5c0-.8.2-1.5.5-2 .4-.5.9-.8 1.5-.8.3 0 .5.1.8.2.2.1.4.3.6.5v-2.9h1.2v7.6h-1l-.1-.7-.6.6c-.2.1-.5.2-.8.2-.6 0-1.2-.2-1.5-.7-.4-.5-.5-1.1-.5-1.9v-.1zm1.1.1c0 .5.1.9.3 1.2.2.3.5.4.9.4.3 0 .5-.1.6-.2s.3-.3.4-.5v-2.3c-.1-.2-.3-.3-.4-.5-.2-.1-.4-.2-.6-.2-.4 0-.7.2-.9.5-.2.3-.3.8-.3 1.3v.3zM165 543.9l.4-3.9h3.8v1h-2.8l-.2 1.8c.1-.1.3-.2.5-.3.2-.1.4-.1.6-.1.7 0 1.2.2 1.6.6s.6 1 .6 1.8c0 .7-.2 1.3-.6 1.7-.4.4-1 .7-1.7.7-.6 0-1.2-.2-1.6-.5-.4-.3-.6-.8-.6-1.5h1.1c0 .3.1.6.3.8.2.2.5.3.8.3.4 0 .6-.1.8-.4s.3-.6.3-1-.1-.8-.3-1-.5-.4-.8-.4c-.3 0-.6.1-.7.2s-.3.3-.3.5l-1.2-.3z"/></g></g><g fill="#b8e986"><path d="M260.1 319l-22-39.7h44l-22 39.7z"/><path d="M254 257.5h12.2v29.1H254v-29.1z"/></g><g><path d="M133.4 221.5h5.2v1.5h-7.1v-11.4h1.9v9.9zM139.6 218.7c0-1.3.3-2.3 1-3.1.7-.8 1.6-1.2 2.8-1.2 1.2 0 2.2.4 2.9 1.2.7.8 1 1.8 1 3.1v.2c0 1.3-.3 2.3-1 3.1-.7.8-1.6 1.2-2.8 1.2-1.2 0-2.2-.4-2.9-1.2-.7-.8-1-1.8-1-3.1v-.2zm1.9.2c0 .8.2 1.5.5 2s.8.8 1.5.8 1.2-.3 1.5-.8c.3-.5.5-1.2.5-2v-.2c0-.8-.2-1.5-.5-2s-.8-.8-1.5-.8-1.2.3-1.5.8c-.3.5-.5 1.2-.5 2v.2zM154.1 223c-.1-.2-.1-.4-.2-.6 0-.2-.1-.4-.1-.6-.3.4-.6.7-1 1-.4.3-.9.4-1.4.4-.9 0-1.6-.2-2-.7-.5-.5-.7-1.1-.7-1.9 0-.8.3-1.5 1-1.9.6-.5 1.6-.7 2.7-.7h1.5v-.7c0-.4-.1-.8-.4-1-.3-.2-.6-.4-1.1-.4-.4 0-.8.1-1 .3-.3.2-.4.5-.4.8h-1.8c0-.7.3-1.3.9-1.8s1.5-.8 2.5-.8 1.8.2 2.4.8c.6.5.9 1.2.9 2.2v3.8c0 .3 0 .7.1 1s.1.6.2.9h-2.1zm-2.3-1.4c.5 0 .9-.1 1.3-.4.4-.2.6-.5.8-.8v-1.2h-1.5c-.6 0-1 .1-1.3.4s-.5.6-.5 1c0 .3.1.6.3.8.2.1.5.2.9.2zM157.4 218.9c0-1.3.3-2.4.9-3.3.6-.8 1.4-1.2 2.4-1.2.5 0 .9.1 1.2.3.4.2.7.4.9.8v-4.6h1.9V223h-1.6l-.2-1c-.3.4-.6.7-1 .9-.4.2-.8.3-1.3.3-1 0-1.8-.4-2.4-1.1-.6-.8-.9-1.7-.9-3v-.2zm1.9.2c0 .8.1 1.4.4 1.9.3.5.8.7 1.4.7.4 0 .7-.1 1-.3.3-.2.5-.4.7-.7V217c-.2-.3-.4-.6-.7-.7-.3-.2-.6-.3-1-.3-.6 0-1.1.3-1.4.8-.3.5-.5 1.3-.5 2.1v.2zM178.2 219.1c0 1.2-.3 2.2-.9 3-.6.8-1.4 1.1-2.4 1.1-.5 0-1-.1-1.4-.3-.4-.2-.7-.5-1-.9l-.2 1.1h-1.6v-12.2h1.9v4.7c.3-.4.6-.6.9-.8.4-.2.8-.3 1.3-.3 1.1 0 1.9.4 2.4 1.2.6.8.9 1.9.9 3.3v.1zm-1.9-.2c0-.9-.2-1.6-.5-2.1s-.8-.8-1.4-.8c-.4 0-.8.1-1.1.3-.3.2-.5.4-.7.8v3.5c.2.3.4.6.7.8.3.2.6.3 1.1.3.7 0 1.1-.2 1.4-.7s.4-1.1.4-1.9v-.2zM184.9 223c-.1-.2-.1-.4-.2-.6 0-.2-.1-.4-.1-.6-.3.4-.6.7-1 1-.4.3-.9.4-1.4.4-.9 0-1.6-.2-2-.7-.5-.5-.7-1.1-.7-1.9 0-.8.3-1.5 1-1.9.6-.5 1.6-.7 2.7-.7h1.5v-.7c0-.4-.1-.8-.4-1-.3-.2-.6-.4-1.1-.4-.4 0-.8.1-1 .3-.3.2-.4.5-.4.8H180c0-.7.3-1.3.9-1.8s1.5-.8 2.5-.8 1.8.2 2.4.8c.6.5.9 1.2.9 2.2v3.8c0 .3 0 .7.1 1s.1.6.2.9h-2.1zm-2.3-1.4c.5 0 .9-.1 1.3-.4.4-.2.6-.5.8-.8v-1.2h-1.5c-.6 0-1 .1-1.3.4s-.5.6-.5 1c0 .3.1.6.3.8.2.1.5.2.9.2zM190.6 223h-1.9v-12.2h1.9V223zM197.8 223c-.1-.2-.1-.4-.2-.6 0-.2-.1-.4-.1-.6-.3.4-.6.7-1 1-.4.3-.9.4-1.4.4-.9 0-1.6-.2-2-.7-.5-.5-.7-1.1-.7-1.9 0-.8.3-1.5 1-1.9.6-.5 1.6-.7 2.7-.7h1.5v-.7c0-.4-.1-.8-.4-1-.3-.2-.6-.4-1.1-.4-.4 0-.8.1-1 .3-.3.2-.4.5-.4.8h-1.8c0-.7.3-1.3.9-1.8s1.5-.8 2.5-.8 1.8.2 2.4.8c.6.5.9 1.2.9 2.2v3.8c0 .3 0 .7.1 1s.1.6.2.9h-2.1zm-2.4-1.4c.5 0 .9-.1 1.3-.4.4-.2.6-.5.8-.8v-1.2H196c-.6 0-1 .1-1.3.4s-.5.6-.5 1c0 .3.1.6.3.8.2.1.5.2.9.2zM203.1 214.5l.1 1.2c.3-.4.6-.8 1-1 .4-.2.9-.4 1.4-.4.9 0 1.6.3 2.1.8s.7 1.4.7 2.5v5.3h-1.9v-5.3c0-.6-.1-1.1-.4-1.4-.3-.3-.7-.4-1.2-.4-.4 0-.7.1-1 .2-.3.2-.5.4-.7.7v6.1h-1.9v-8.5h1.8zM213.9 221.6c.5 0 .9-.1 1.2-.4.3-.3.5-.6.5-1h1.7c0 .8-.3 1.5-1 2-.7.6-1.5.9-2.4.9-1.2 0-2.2-.4-2.9-1.2-.7-.8-1-1.8-1-3v-.3c0-1.2.3-2.2 1-3s1.6-1.2 2.9-1.2c1 0 1.8.3 2.5.9.6.6.9 1.3.9 2.3h-1.7c0-.5-.2-.9-.5-1.2-.3-.3-.7-.5-1.2-.5-.7 0-1.2.3-1.5.8s-.4 1.2-.4 1.9v.3c0 .8.1 1.4.4 2 .3.5.8.7 1.5.7zM222.5 223.2c-1.2 0-2.2-.4-2.9-1.2-.7-.8-1.1-1.8-1.1-3v-.3c0-1.2.4-2.2 1.1-3.1.7-.8 1.6-1.2 2.7-1.2s2 .3 2.6 1c.6.7.9 1.6.9 2.8v1.1h-5.3c0 .7.2 1.2.6 1.6.4.4.9.6 1.5.6.5 0 .9-.1 1.3-.2s.7-.3 1.1-.5l.6 1.2c-.3.3-.7.5-1.3.7-.5.4-1.1.5-1.8.5zm-.2-7.3c-.5 0-.9.2-1.2.6-.3.4-.5.8-.6 1.4h3.4v-.2c0-.5-.1-1-.4-1.3-.3-.3-.7-.5-1.2-.5zM231.5 216.3h-.8c-.4 0-.7.1-.9.2-.2.2-.4.4-.6.7v5.9h-1.9v-8.5h1.7l.1 1.2c.2-.4.5-.8.8-1 .3-.2.7-.4 1.2-.4h.3c.1 0 .2 0 .3.1l-.2 1.8z"/></g><g><path fill="#d2d2d2" d="M517.5 624v19c0 2.8-2.2 5-5 5h-176c-2.8 0-5-2.2-5-5v-19c0-2.8 2.2-5 5-5h176c2.8 0 5 2.2 5 5z"/><path fill="#a3a3a3" d="M362.5 625h4v4h-4v-4zm0 6h4v4h-4v-4zm0 6h4v4h-4v-4zm6-12h4v4h-4v-4zm0 6h4v4h-4v-4zm0 6h4v4h-4v-4zm6-12h4v4h-4v-4zm0 6h4v4h-4v-4zm0 6h4v4h-4v-4zm6-12h4v4h-4v-4zm0 6h4v4h-4v-4zm0 6h4v4h-4v-4zm6-12h4v4h-4v-4zm0 6h4v4h-4v-4zm0 6h4v4h-4v-4zm6-12h4v4h-4v-4zm0 6h4v4h-4v-4zm0 6h4v4h-4v-4zm6-12h4v4h-4v-4zm0 6h4v4h-4v-4zm0 6h4v4h-4v-4zm6-12h4v4h-4v-4zm0 6h4v4h-4v-4zm0 6h4v4h-4v-4zm6-12h4v4h-4v-4zm0 6h4v4h-4v-4zm0 6h4v4h-4v-4zm6-12h4v4h-4v-4zm0 6h4v4h-4v-4zm0 6h4v4h-4v-4zm6-12h4v4h-4v-4zm0 6h4v4h-4v-4zm0 6h4v4h-4v-4zm6-12h4v4h-4v-4zm0 6h4v4h-4v-4zm0 6h4v4h-4v-4zm6-12h4v4h-4v-4zm0 6h4v4h-4v-4zm0 6h4v4h-4v-4zm6-12h4v4h-4v-4zm0 6h4v4h-4v-4zm0 6h4v4h-4v-4zm6-12h4v4h-4v-4zm0 6h4v4h-4v-4zm0 6h4v4h-4v-4zm6-12h4v4h-4v-4zm0 6h4v4h-4v-4zm0 6h4v4h-4v-4zm6-12h4v4h-4v-4zm0 6h4v4h-4v-4zm0 6h4v4h-4v-4zm6-12h4v4h-4v-4zm0 6h4v4h-4v-4zm0 6h4v4h-4v-4zm6-12h4v4h-4v-4zm0 6h4v4h-4v-4zm0 6h4v4h-4v-4zm6-12h4v4h-4v-4zm0 6h4v4h-4v-4zm0 6h4v4h-4v-4zm6-12h4v4h-4v-4zm0 6h4v4h-4v-4zm0 6h4v4h-4v-4zm6-12h4v4h-4v-4zm0 6h4v4h-4v-4zm0 6h4v4h-4v-4zm6-12h4v4h-4v-4zm0 6h4v4h-4v-4zm0 6h4v4h-4v-4zm6-12h4v4h-4v-4zm0 6h4v4h-4v-4zm0 6h4v4h-4v-4zm6-12h4v4h-4v-4zm0 6h4v4h-4v-4zm0 6h4v4h-4v-4z"/><path fill="#d2d2d2" d="M517.5 656v19c0 2.8-2.2 5-5 5h-176c-2.8 0-5-2.2-5-5v-19c0-2.8 2.2-5 5-5h176c2.8 0 5 2.2 5 5z"/><path fill="#a3a3a3" d="M362.5 657h4v4h-4v-4zm0 6h4v4h-4v-4zm0 6h4v4h-4v-4zm6-12h4v4h-4v-4zm0 6h4v4h-4v-4zm0 6h4v4h-4v-4zm6-12h4v4h-4v-4zm0 6h4v4h-4v-4zm0 6h4v4h-4v-4zm6-12h4v4h-4v-4zm0 6h4v4h-4v-4zm0 6h4v4h-4v-4zm6-12h4v4h-4v-4zm0 6h4v4h-4v-4zm0 6h4v4h-4v-4zm6-12h4v4h-4v-4zm0 6h4v4h-4v-4zm0 6h4v4h-4v-4zm6-12h4v4h-4v-4zm0 6h4v4h-4v-4zm0 6h4v4h-4v-4zm6-12h4v4h-4v-4zm0 6h4v4h-4v-4zm0 6h4v4h-4v-4zm6-12h4v4h-4v-4zm0 6h4v4h-4v-4zm0 6h4v4h-4v-4zm6-12h4v4h-4v-4zm0 6h4v4h-4v-4zm0 6h4v4h-4v-4zm6-12h4v4h-4v-4zm0 6h4v4h-4v-4zm0 6h4v4h-4v-4zm6-12h4v4h-4v-4zm0 6h4v4h-4v-4zm0 6h4v4h-4v-4zm6-12h4v4h-4v-4zm0 6h4v4h-4v-4zm0 6h4v4h-4v-4zm6-12h4v4h-4v-4zm0 6h4v4h-4v-4zm0 6h4v4h-4v-4zm6-12h4v4h-4v-4zm0 6h4v4h-4v-4zm0 6h4v4h-4v-4zm6-12h4v4h-4v-4zm0 6h4v4h-4v-4zm0 6h4v4h-4v-4zm6-12h4v4h-4v-4zm0 6h4v4h-4v-4zm0 6h4v4h-4v-4zm6-12h4v4h-4v-4zm0 6h4v4h-4v-4zm0 6h4v4h-4v-4zm6-12h4v4h-4v-4zm0 6h4v4h-4v-4zm0 6h4v4h-4v-4zm6-12h4v4h-4v-4zm0 6h4v4h-4v-4zm0 6h4v4h-4v-4zm6-12h4v4h-4v-4zm0 6h4v4h-4v-4zm0 6h4v4h-4v-4zm6-12h4v4h-4v-4zm0 6h4v4h-4v-4zm0 6h4v4h-4v-4zm6-12h4v4h-4v-4zm0 6h4v4h-4v-4zm0 6h4v4h-4v-4zm6-12h4v4h-4v-4zm0 6h4v4h-4v-4zm0 6h4v4h-4v-4zm6-12h4v4h-4v-4zm0 6h4v4h-4v-4zm0 6h4v4h-4v-4z"/><path fill="#d2d2d2" d="M517.5 327v284c0 2.8-2.2 5-5 5h-176c-2.8 0-5-2.2-5-5V327c0-2.8 2.2-5 5-5h176c2.8 0 5 2.2 5 5z"/><path fill="#a3a3a3" d="M338.5 328h4v4h-4v-4zm0 6h4v4h-4v-4zm0 6h4v4h-4v-4zm6-12h4v4h-4v-4zm0 6h4v4h-4v-4zm0 6h4v4h-4v-4zm6-12h4v4h-4v-4zm0 6h4v4h-4v-4zm0 6h4v4h-4v-4zm6-12h4v4h-4v-4zm0 6h4v4h-4v-4zm0 6h4v4h-4v-4zm6-12h4v4h-4v-4zm0 6h4v4h-4v-4zm0 6h4v4h-4v-4zm6-12h4v4h-4v-4zm0 6h4v4h-4v-4zm0 6h4v4h-4v-4zm6-12h4v4h-4v-4zm0 6h4v4h-4v-4zm0 6h4v4h-4v-4zm6-12h4v4h-4v-4zm0 6h4v4h-4v-4zm0 6h4v4h-4v-4zm6-12h4v4h-4v-4zm0 6h4v4h-4v-4zm0 6h4v4h-4v-4zm6-12h4v4h-4v-4zm0 6h4v4h-4v-4zm0 6h4v4h-4v-4zm6-12h4v4h-4v-4zm0 6h4v4h-4v-4zm0 6h4v4h-4v-4zm6-12h4v4h-4v-4zm0 6h4v4h-4v-4zm0 6h4v4h-4v-4zm6-12h4v4h-4v-4zm0 6h4v4h-4v-4zm0 6h4v4h-4v-4zm6-12h4v4h-4v-4zm0 6h4v4h-4v-4zm0 6h4v4h-4v-4zm6-12h4v4h-4v-4zm0 6h4v4h-4v-4zm0 6h4v4h-4v-4zm6 0h4v4h-4v-4zm6 0h4v4h-4v-4zm6 0h4v4h-4v-4zm6 0h4v4h-4v-4zm6 0h4v4h-4v-4zm6 0h4v4h-4v-4zm6 0h4v4h-4v-4zm6 0h4v4h-4v-4zm6 0h4v4h-4v-4zm6 0h4v4h-4v-4zm6 0h4v4h-4v-4zm6 0h4v4h-4v-4zm6 0h4v4h-4v-4zm6-12h4v4h-4v-4zm0 6h4v4h-4v-4zm0 6h4v4h-4v-4zm-168 265h4v4h-4v-4zm6 0h4v4h-4v-4zm6 0h4v4h-4v-4zm6 0h4v4h-4v-4zm6 0h4v4h-4v-4zm6 0h4v4h-4v-4zm6 0h4v4h-4v-4zm6 0h4v4h-4v-4zm6 0h4v4h-4v-4zm6 0h4v4h-4v-4zm6 0h4v4h-4v-4zm6 0h4v4h-4v-4zm6 0h4v4h-4v-4zm6 0h4v4h-4v-4zm6 0h4v4h-4v-4zm6 0h4v4h-4v-4zm6 0h4v4h-4v-4zm6 0h4v4h-4v-4zm6 0h4v4h-4v-4zm6 0h4v4h-4v-4zm6 0h4v4h-4v-4zm6 0h4v4h-4v-4zm6 0h4v4h-4v-4zm6 0h4v4h-4v-4zm6 0h4v4h-4v-4zm6 0h4v4h-4v-4zm6 0h4v4h-4v-4zm6 0h4v4h-4v-4zm6 0h4v4h-4v-4z"/><path fill="#fff" d="M340.5 351h168c1.1 0 2 .9 2 2v244c0 1.1-.9 2-2 2h-168c-1.1 0-2-.9-2-2V353c0-1.1.9-2 2-2z"/><path fill="#a3a3a3" d="M349.5 632.3h2.4v-2.2h-2.4v2.2zm-2.8 0h2.4v-2.2h-2.4v2.2zm-2.8 0h2.4v-2.2h-2.4v2.2zm-2.8 0h2.4v-2.2h-2.4v2.2zm-2.8 0h2.4v-2.2h-2.4v2.2zm2.8-2.6h2.4v-2.2h-2.4v2.2zm2.8 0h2.4v-2.2h-2.4v2.2zm2.8 0h2.4v-2.2h-2.4v2.2zm0-2.5h2.4V625h-2.4v2.2zm12.3 3.9c-.5-.3-1.7-.5-2.6-.3-.1-.9-.6-1.6-1.5-2.3l-.5-.3-.3.5c-.4.6-.6 1.5-.6 2.4 0 .3.1.8.4 1.3-.3.2-.9.4-1.7.4h-15.6v.2c-.1.9-.1 3.6 1.6 5.6 1.3 1.6 3.3 2.4 5.9 2.4 5.7 0 9.8-2.6 11.8-7.3.8 0 2.4 0 3.3-1.6 0 0 .1-.1.2-.4l.1-.2-.5-.4z"/><g fill="#a3a3a3"><path d="M346.4 666.6c0-.2-.2-.3-.3-.3h-.1l-2 .3c.3.8.9 1.5 1.6 2l.8-2m-.7-1.4c.1 0 .1-.1.2-.1.1-.1.1-.3 0-.5l-1.5-1.4c-.4.7-.7 1.6-.6 2.5l1.9-.5zm.9-1.6c.1 0 .1.1.2.1.2 0 .3-.1.3-.3l.1-2c-.1 0-.3 0-.4.1-.8.2-1.4.5-1.9 1l1.7 1.1zm.6 2.2l.5.2.6-.2.1-.6-.3-.5h-.7l-.3.5.1.6zm1.1-2.4c0 .1 0 .1.1.2s.3.2.5.1l1.6-1.2c-.6-.6-1.4-1-2.3-1.1l.1 2z"/><path d="M354.5 666.9c0 .2-.3.3-.5.3h-.1c-.1 0-.2-.1-.3-.1-.3-.1-.5-.2-.7-.2-.1 0-.2 0-.2.1h-.2c-.4 1.2-1.2 2.2-2.2 2.8 0 0 0 .1.1.2 0 .1-.1.1 0 .2l.3.6c.1.1.1.2.2.3 0 0 0 .1.1.1.1.2 0 .5-.2.5-.2.1-.4 0-.5-.2v-.1c-.1-.1-.1-.2-.1-.4-.1-.3-.2-.5-.3-.6s-.1-.1-.2-.1l-.1-.1c-.2.1-.4.1-.7.2-1 .2-2 .1-2.9-.2l-.1.2c-.1 0-.1 0-.2.1-.1.2-.2.4-.3.7 0 .1-.1.2-.1.4v.1c-.1.2-.3.3-.5.2-.3-.4-.3-.7-.2-.9v-.1c.1-.1.1-.2.2-.3.1-.2.3-.4.3-.6v-.2l.1-.2c-1-.6-1.8-1.6-2.2-2.8h-.2s-.1-.1-.2-.1c-.2 0-.4.1-.7.2-.1 0-.2.1-.3.1h-.1c-.2 0-.4-.1-.5-.3 0-.2.1-.4.3-.5h.5c.3 0 .5-.1.7-.1.1 0 .1-.1.2-.2h.2c-.2-1.3.1-2.5.8-3.5h-.2s0-.2-.1-.2c-.2-.1-.3-.3-.6-.4-.1-.1-.2-.1-.3-.2 0 0-.1 0-.1-.1-.2-.1-.2-.4-.1-.6.1-.1.2-.1.3-.1s.2 0 .3.1c0 0 .1 0 .1.1l.3.3c.2.2.3.4.5.5.1.1.2 0 .2 0l.1.1c.7-.7 1.5-1.2 2.5-1.4.2-.1.5-.1.7-.1v-.2c.1 0 .1-.1.1-.2v-.7c0-.1 0-.2-.1-.4v-.1c0-.2.2-.4.4-.4s.4.2.4.4v.1c0 .1 0 .2-.1.4 0 .3-.1.5 0 .7 0 .1.1.1.1.2v.2c1.2.1 2.4.7 3.2 1.5l.1-.1h.2c.2-.1.3-.3.5-.5l.3-.3s.1 0 .1-.1c.2-.1.4-.1.6 0 .1.2.1.4-.1.6 0 0-.1 0-.1.1-.1.1-.2.1-.3.2-.2.1-.4.3-.6.4-.1.1-.1.1-.1.2l-.1.1c.3.5.6 1.1.7 1.7s.2 1.2.1 1.8h.2l.2.2c.2.1.4.1.7.1h.5c.2.1.4.4.3.6m2.5 0l-1.6-6.9c-.1-.4-.3-.7-.7-.8l-6.4-3.1c-.2-.1-.4-.1-.6-.1-.2 0-.3 0-.5.1l-6.4 3.1c-.3.2-.6.5-.7.8l-1.6 6.9c-.1.3 0 .7.2.9 0 0 0 .1.1.1l4.5 5.5c.2.3.6.5 1 .5h7.1c.4 0 .7-.2 1-.5l4.4-5.5c.2-.2.2-.6.2-1"/><path d="M351.1 663.2l-1.5 1.3c-.1 0-.1.1-.1.2 0 .2.1.4.2.4l1.9.6c0-.4 0-.9-.1-1.3 0-.4-.1-.8-.4-1.2m-3.1 4.1c0-.1-.1-.1-.2-.1h-.2c-.1 0-.2.1-.3.2l-1 1.8c.7.2 1.4.3 2.2.1.1 0 .3-.1.4-.1l-.9-1.9zm1.5-1s-.1 0 0 0h-.2c-.2.1-.2.3-.2.4l.8 1.9c.7-.5 1.3-1.2 1.6-2l-2-.3z"/></g><path fill="#333" d="M348.6 312.8h-1.9l-5-8.3v8.3h-1.9v-11.3h1.9l5 8.3v-8.3h1.9v11.3zm1.9-4.3c0-1.3.3-2.3 1-3.1.7-.8 1.6-1.2 2.8-1.2 1.2 0 2.2.4 2.9 1.2.7.8 1 1.8 1 3.1v.2c0 1.3-.3 2.3-1 3.1-.7.8-1.6 1.2-2.8 1.2-1.2 0-2.2-.4-2.9-1.2s-1-1.8-1-3.1v-.2zm1.9.2c0 .8.2 1.5.5 2s.8.8 1.5.8 1.2-.3 1.5-.8c.3-.5.5-1.2.5-2v-.2c0-.8-.2-1.5-.5-2s-.8-.8-1.5-.8-1.2.3-1.5.8c-.3.5-.5 1.2-.5 2v.2zm7.2 0c0-1.3.3-2.4.9-3.3s1.4-1.2 2.4-1.2c.5 0 .9.1 1.2.3.4.2.7.4.9.8v-4.6h1.9v12.2h-1.6l-.2-1c-.3.4-.6.7-1 .9-.4.2-.8.3-1.3.3-1 0-1.8-.4-2.4-1.1-.6-.7-.9-1.7-.9-3v-.3h.1zm1.9.2c0 .8.1 1.4.4 1.9.3.5.8.7 1.4.7.4 0 .7-.1 1-.3.3-.2.5-.4.7-.7v-3.7c-.2-.3-.4-.6-.7-.7-.3-.1-.6-.3-1-.3-.6 0-1.1.3-1.4.8-.3.5-.5 1.3-.5 2.1v.2h.1zm11.1 4.1c-1.2 0-2.2-.4-2.9-1.2-.7-.8-1.1-1.8-1.1-3v-.3c0-1.2.4-2.2 1.1-3.1.7-.8 1.6-1.2 2.7-1.2s2 .3 2.6 1c.6.7.9 1.6.9 2.8v1.1h-5.3c0 .7.2 1.2.6 1.6.4.4.9.6 1.5.6.5 0 .9-.1 1.3-.2s.7-.3 1.1-.5l.6 1.2c-.3.3-.7.5-1.3.7-.5.4-1.1.5-1.8.5zm-.2-7.2c-.5 0-.9.2-1.2.6-.3.4-.5.8-.6 1.4h3.4v-.2c0-.5-.1-1-.4-1.3-.3-.3-.6-.5-1.2-.5z"/><path fill="#f2f6fb" d="M346.6 387.7l11.6-4.6 68.4.1h65.2l11.6 4.6"/><path fill="#d2d2d2" d="M346.5 399.2h157v-10c0-3.3-2.7-6-6-6h-145c-3.3 0-6 2.7-6 6v10z"/><path fill="#a3a3a3" d="M353.5 389.2h4v4h-4v-4zm6 0h4v4h-4v-4zm6 0h4v4h-4v-4z"/><path fill="#990e16" d="M494.3 392.7c-.7.5-1.3.9-1.9 1.2l1.9 3.1.7-5c-.2.3-.5.5-.7.7z"/><path fill="#ec1622" d="M497 389.8c-.1.1-.2.3-.3.4-.3.4-.7.9-1.1 1.2l-.6.6-.8 5 2.9-7.5c.1.1 0 .2-.1.3z"/><path fill="#fefefd" d="M485.5 389.4c-.1.1-.1.2-.2.2l.2-.2c-.1 0 0 0 0 0zm0 1.6l3 .2 4.1-2 1.7-2.6-.8-1.2h-.8c.5.1.9.3 1.1.6.5 1-.9 2.7-3.1 3.9-2.2 1.2-4.5 1.3-5 .3-.2-.4-.1-1 .3-1.5l-.1.1v.1c-.1.1-.2.3-.4.5v1.6zm-.3-1.1z"/><path fill="#fefefd" d="M492.8 385.4h.8c.1 0 .3 0 .4.1.7.2 1.5.4 2.1.6.1 0 .2.1.3.1h.1c-.7-.3-1.7-.5-2.4-.8h-1.3zm-7 3.5s.1 0 0 0c.1 0 0 0 0 0z"/><path fill="#990e16" d="M497.5 387.3c-.2-.5-.7-.9-1.1-1h-.1l-1.9.4 1.9.9 1.3.6c0-.3 0-.6-.1-.9zm-.9 2.9l-.6-.2-.7-.2-2.7-.7 1.2 1.5.5.6.6.7.6-.6c.4-.4.8-.8 1.1-1.2v.1zm-10.3 5l-.4-.1c.1 0 .2 0 .4.1z"/><path fill="#990e16" d="M489.2 395l-.3-1.6v-.2l-.4-2-2 2.9-.7 1 .4.1 8 1.8-5-2z"/><path fill="#930f17" d="M485.9 394.8l-.1-1.3-.2-2.5-.5.5-.6.6c-.1.2-.1.4-.1.6-.1.5-.1.9.1 1.1v.1c.3.6.8.9 1.3 1.1h.1v-.2z"/><g fill="#ec1622"><path d="M492.5 385.5h.1l.2-.1c-1-.2-2.5.2-3.9.9-1.3.7-2.4 1.6-2.9 2.4l.5-.5 6-2.7z"/><path d="M493.8 386.1c-.2-.3-.5-.5-1.1-.6l-.2.1h-.1l-6 2.8-.5.5c-.4.6-.5 1.1-.3 1.5.5 1 2.8.9 5-.3 2.3-1.3 3.8-3 3.2-4z"/></g><path fill="#ec1622" d="M486.5 388.3l6-2.8h.1l.1-.1-.1.1h-.1l-6 2.8-.5.5.5-.5z"/><path fill="#f36662" d="M492.3 393.9c-.8.4-1.8.8-2.9 1.1h-.2l5.1 2-2-3.1z"/><path fill="#930f17" d="M492.3 393.9l-1.9-1.3-.1-.1-1.8-1.3.4 2v.2l.3 1.6h.2c1.1-.3 2.1-.7 2.9-1.1zm2.1-2.6l-.5-.6-1.2-1.5-.1 2.2v.4l-.2 2.1c.6-.3 1.3-.7 1.9-1.2.3-.2.5-.4.8-.6l-.7-.8z"/><path fill="#ec1622" d="M491.2 392.1c-.1 0-.2 0-.3.1l.3-.1z"/><path fill="#ec1622" d="M488.5 391.2l1.8 1.3.1.1 1.9 1.3.1-2v-.4l.2-2.2-4.1 1.9z"/><path fill="#930f17" d="M496.3 387.6l-1.9-.9 2.1 3 .2.3.1.1.1.1c.1-.1.2-.3.3-.4.1-.1.1-.2.2-.3.2-.4.3-.7.4-1.1v-.2l-1.5-.6z"/><path fill="#ec1622" d="M496.7 390.1l-.2-.4-2.1-3-1.7 2.6 2.7.6.7.2.5.1.1-.1.1.1-.1-.1z"/><path fill="#f36662" d="M485.5 391l.2 2.5.1 1.3v.2l.7-1 1.9-2.9-2.9-.1zm-.1-1.6c-.1.1-.1.2-.1.2s-.1.1-.1.2v.1c-.2.5-.4 1.1-.6 1.7l-.1.4.6-.6.5-.5c-.1.1-.2-1.5-.2-1.5zm10.6-3.3c-.6-.2-1.4-.4-2.1-.6-.1 0-.2-.1-.4-.1l.8 1.2 1.9-.4s-.1 0-.2-.1z"/><g><path d="M355.5 376.1v2.7h-1.2v-7.1h2.8c.8 0 1.4.2 1.8.6s.7.9.7 1.6c0 .7-.2 1.2-.7 1.6s-1.1.6-1.8.6h-1.6zm0-1h1.6c.4 0 .8-.1 1-.4s.3-.5.3-.9-.1-.7-.3-.9-.6-.4-1-.4h-1.6v2.6zM360.3 376.1c0-.8.2-1.4.6-1.9.4-.5 1-.8 1.8-.8s1.4.3 1.8.8c.4.5.6 1.1.6 1.9v.1c0 .8-.2 1.4-.6 1.9-.4.5-1 .7-1.8.7s-1.3-.3-1.8-.8c-.4-.5-.6-1.1-.6-1.9zm1.2.1c0 .5.1.9.3 1.3.2.3.5.5.9.5s.7-.2.9-.5c.2-.3.3-.7.3-1.3v-.1c0-.5-.1-.9-.3-1.2-.2-.3-.5-.5-.9-.5s-.7.2-.9.5c-.2.3-.3.7-.3 1.2v.1zM366 376.2c0-.8.2-1.5.5-2s.9-.8 1.5-.8c.3 0 .5.1.8.2s.4.3.6.5v-2.9h1.2v7.6h-1l-.1-.7-.6.6c-.2.2-.5.2-.8.2-.6 0-1.2-.2-1.5-.7s-.5-1.1-.5-1.9v-.1zm1.1.1c0 .5.1.9.3 1.2s.5.4.9.4c.3 0 .5-.1.6-.2s.3-.3.4-.5V375c-.1-.2-.3-.3-.4-.5s-.4-.2-.6-.2c-.4 0-.7.2-.9.5s-.3.8-.3 1.3v.2zM377 371.5c.3 0 .5 0 .7.1.2.1.4.1.6.2l-.2.9c-.2-.1-.4-.1-.5-.2s-.4-.1-.6-.1c-.5 0-.9.2-1.1.6-.3.4-.4.9-.4 1.5.2-.2.4-.3.7-.4s.5-.1.9-.1c.6 0 1.1.2 1.5.7s.6 1 .6 1.7-.2 1.3-.6 1.8-1 .7-1.7.7-1.3-.3-1.8-.8-.7-1.2-.7-2.1v-1.4c0-.9.3-1.7.8-2.2s1-.9 1.8-.9zm-.3 3.4c-.3 0-.6.1-.8.2-.2.1-.4.2-.5.4v.5c0 .6.1 1.1.4 1.4.2.3.6.5.9.5.3 0 .6-.1.8-.4.2-.3.3-.7.3-1.1 0-.4-.1-.8-.3-1s-.4-.5-.8-.5z"/></g><g fill="#424242"><path d="M434.7 334.3v3.1H433v-8.5h3.4c1 0 1.8.2 2.3.8s.8 1.2.8 2-.3 1.5-.8 2-1.3.7-2.3.7h-1.7zm0-1.3h1.7c.5 0 .8-.1 1.1-.4s.4-.6.4-1-.1-.7-.4-1-.6-.4-1.1-.4h-1.7v2.8zM447.6 333.9c0 1-.3 1.9-1 2.6s-1.5 1-2.6 1-1.9-.3-2.6-1-1-1.5-1-2.6v-1.5c0-1 .3-1.9 1-2.6s1.5-1 2.6-1 1.9.3 2.6 1 1 1.5 1 2.6v1.5zm-1.7-1.5c0-.7-.2-1.2-.5-1.6-.3-.4-.8-.6-1.4-.6s-1 .2-1.4.6c-.3.4-.5 1-.5 1.6v1.5c0 .7.2 1.2.5 1.7.3.4.8.6 1.4.6.6 0 1-.2 1.4-.6.3-.4.5-1 .5-1.7v-1.5zM450.7 334v3.4H449v-8.5h3.2c1 0 1.7.2 2.3.7s.8 1.1.8 1.9c0 .4-.1.8-.3 1.1s-.6.6-1 .8c.5.1.9.4 1.1.7s.3.8.3 1.3v.6c0 .2 0 .5.1.7s.2.5.3.6v.1H454c-.2-.1-.3-.3-.3-.6s-.1-.6-.1-.8v-.6c0-.4-.1-.8-.3-1s-.6-.4-1-.4h-1.6zm0-1.3h1.5c.5 0 .8-.1 1.1-.3s.4-.5.4-.9-.1-.7-.4-.9-.6-.3-1-.3h-1.5v2.4zM462.6 330.2h-2.4v7.2h-1.7v-7.2h-2.4v-1.3h6.5v1.3z"/><path d="M464.1 332.3h-1.7v-1.5h1.7v1.5zm0 5.1h-1.7v-1.5h1.7v1.5zM470.3 332.4h1c.4 0 .7-.1.9-.3s.3-.5.3-.9c0-.3-.1-.6-.3-.8s-.5-.3-.8-.3c-.3 0-.6.1-.8.3s-.3.4-.3.7h-1.7c0-.7.2-1.2.8-1.7s1.2-.7 2-.7c.9 0 1.6.2 2.1.6s.8 1 .8 1.8c0 .4-.1.7-.4 1.1s-.6.6-1 .8c.5.2.8.4 1.1.8s.4.8.4 1.2c0 .8-.3 1.4-.9 1.8s-1.3.7-2.2.7c-.8 0-1.5-.2-2-.6s-.8-1-.8-1.8h1.7c0 .3.1.6.4.8.2.2.5.3.9.3s.7-.1.9-.3.3-.5.3-.9-.1-.8-.3-1c-.2-.2-.6-.3-1-.3h-1v-1.3zM481.2 334.1c0 1.1-.3 2-.8 2.6s-1.2.9-2.1.9c-.9 0-1.6-.3-2.1-.9s-.8-1.4-.8-2.6v-1.9c0-1.1.3-2 .8-2.6s1.2-.9 2.1-.9c.9 0 1.6.3 2.1.9s.8 1.4.8 2.6v1.9zm-1.7-2.1c0-.7-.1-1.2-.3-1.5-.2-.3-.5-.5-.9-.5s-.7.2-.9.5-.3.8-.3 1.5v2.2c0 .7.1 1.2.3 1.5s.5.5.9.5.7-.2.9-.5.3-.8.3-1.5V332zM488.1 334.1c0 1.1-.3 2-.8 2.6s-1.2.9-2.1.9c-.9 0-1.6-.3-2.1-.9s-.8-1.4-.8-2.6v-1.9c0-1.1.3-2 .8-2.6s1.2-.9 2.1-.9c.9 0 1.6.3 2.1.9s.8 1.4.8 2.6v1.9zm-1.7-2.1c0-.7-.1-1.2-.3-1.5-.2-.3-.5-.5-.9-.5s-.7.2-.9.5-.3.8-.3 1.5v2.2c0 .7.1 1.2.3 1.5s.5.5.9.5.7-.2.9-.5.3-.8.3-1.5V332zM495 334.1c0 1.1-.3 2-.8 2.6s-1.2.9-2.1.9c-.9 0-1.6-.3-2.1-.9s-.8-1.4-.8-2.6v-1.9c0-1.1.3-2 .8-2.6s1.2-.9 2.1-.9c.9 0 1.6.3 2.1.9s.8 1.4.8 2.6v1.9zm-1.7-2.1c0-.7-.1-1.2-.3-1.5-.2-.3-.5-.5-.9-.5s-.7.2-.9.5-.3.8-.3 1.5v2.2c0 .7.1 1.2.3 1.5s.5.5.9.5.7-.2.9-.5.3-.8.3-1.5V332zM501.9 334.1c0 1.1-.3 2-.8 2.6s-1.2.9-2.1.9c-.9 0-1.6-.3-2.1-.9s-.8-1.4-.8-2.6v-1.9c0-1.1.3-2 .8-2.6s1.2-.9 2.1-.9c.9 0 1.6.3 2.1.9s.8 1.4.8 2.6v1.9zm-1.7-2.1c0-.7-.1-1.2-.3-1.5-.2-.3-.5-.5-.9-.5s-.7.2-.9.5-.3.8-.3 1.5v2.2c0 .7.1 1.2.3 1.5s.5.5.9.5.7-.2.9-.5.3-.8.3-1.5V332z"/></g><g><path fill="#f2f6fb" d="M346.6 429.8l11.6-4.6 68.4.1h65.2l11.6 4.6"/><path fill="#d2d2d2" d="M346.5 441.3h157v-10c0-3.3-2.7-6-6-6h-145c-3.3 0-6 2.7-6 6v10z"/><path fill="#a3a3a3" d="M353.5 431.3h4v4h-4v-4zm6 0h4v4h-4v-4zm6 0h4v4h-4v-4z"/><path fill="#990e16" d="M494.3 434.7c-.7.5-1.3.9-1.9 1.2l1.9 3.1.7-5c-.2.3-.5.6-.7.7z"/><path fill="#ec1622" d="M497 431.9c-.1.1-.2.3-.3.4-.3.4-.7.9-1.1 1.2l-.6.6-.8 5 2.9-7.5c.1 0 0 .2-.1.3z"/><path fill="#fefefd" d="M485.5 431.5c-.1.1-.1.2-.2.2l.2-.2c-.1 0 0 0 0 0zm0 1.6l3 .2 4.1-2 1.7-2.6-.8-1.2h-.8c.5.1.9.3 1.1.6.5 1-.9 2.7-3.1 3.9-2.2 1.2-4.5 1.3-5 .3-.2-.4-.1-1 .3-1.5l-.1.1v.1c-.1.1-.2.3-.4.5v1.6zm-.3-1.2c0 .1 0 .1 0 0 0 .1 0 .1 0 0z"/><path fill="#fefefd" d="M492.8 427.5h.8c.1 0 .3 0 .4.1.7.2 1.5.4 2.1.6.1 0 .2.1.3.1h.1c-.7-.3-1.7-.5-2.4-.8-.5-.1-1.3 0-1.3 0zm-7 3.5s.1 0 0 0c.1 0 0 0 0 0z"/><path fill="#990e16" d="M497.5 429.4c-.2-.5-.7-.9-1.1-1h-.1l-1.9.4 1.9.9 1.3.6c0-.4 0-.6-.1-.9zm-.9 2.8l-.6-.1-.7-.2-2.7-.7 1.2 1.5.5.6.6.7.6-.6c.4-.4.8-.8 1.1-1.2zm-10.3 5l-.4-.1c.1.1.2.1.4.1z"/><path fill="#990e16" d="M489.2 437.1l-.3-1.6v-.2l-.4-2-2 2.9-.7 1 .4.1 8 1.8-5-2z"/><path fill="#930f17" d="M485.9 436.9l-.1-1.3-.2-2.5-.5.5-.6.6c-.1.2-.1.4-.1.6-.1.5-.1.9.1 1.1v.1c.3.6.8.9 1.3 1.1h.1v-.2z"/><g fill="#ec1622"><path d="M492.5 427.6h.1l.2-.1c-1-.2-2.5.2-3.9.9-1.3.7-2.4 1.6-2.9 2.4l.5-.5 6-2.7z"/><path d="M493.8 428.1c-.2-.3-.5-.5-1.1-.6l-.2.1h-.1l-6 2.8-.5.5c-.4.6-.5 1.1-.3 1.5.5 1 2.8.9 5-.3 2.3-1.2 3.8-3 3.2-4z"/></g><path fill="#ec1622" d="M486.5 430.4l6-2.8h.1l.1-.1-.1.1h-.1l-6 2.8-.5.5.5-.5z"/><path fill="#f36662" d="M492.3 436c-.8.4-1.8.8-2.9 1.1h-.2l5.1 2-2-3.1z"/><path fill="#930f17" d="M492.3 436l-1.9-1.3-.1-.1-1.8-1.3.4 2v.2l.3 1.6h.2c1.1-.3 2.1-.7 2.9-1.1zm2.1-2.6l-.5-.6-1.2-1.5-.1 2.2v.4l-.2 2.1c.6-.3 1.3-.7 1.9-1.2.3-.2.5-.4.8-.6l-.7-.8z"/><path fill="#ec1622" d="M491.2 434.2c-.1 0-.2 0-.3.1l.3-.1z"/><path fill="#ec1622" d="M488.5 433.3l1.8 1.3.1.1 1.9 1.3.1-2v-.4l.2-2.2-4.1 1.9z"/><path fill="#930f17" d="M496.3 429.6l-1.9-.9 2.1 3 .2.3.1.1.1.1c.1-.1.2-.3.3-.4.1-.1.1-.2.2-.3.2-.4.3-.7.4-1.1v-.2l-1.5-.6z"/><path fill="#ec1622" d="M496.7 432.2l-.2-.4-2.1-3-1.7 2.6 2.7.6.7.2.5.1.1-.1.1.1-.1-.1z"/><path fill="#f36662" d="M485.5 433.1l.2 2.5.1 1.3v.2l.7-1 1.9-2.9-2.9-.1zm-.1-1.6c-.1.1-.1.2-.1.2s-.1.1-.1.2v.1c-.2.5-.4 1.1-.6 1.7l-.1.4.6-.6.5-.5c-.1.1-.2-1.5-.2-1.5zm10.6-3.3c-.6-.2-1.4-.4-2.1-.6-.1 0-.2-.1-.4-.1l.8 1.2 1.9-.4s-.1-.1-.2-.1z"/><g><path d="M355.5 418.1v2.7h-1.2v-7.1h2.8c.8 0 1.4.2 1.8.6s.7.9.7 1.6c0 .7-.2 1.2-.7 1.6-.4.4-1.1.6-1.8.6h-1.6zm0-.9h1.6c.4 0 .8-.1 1-.4s.3-.5.3-.9-.1-.7-.3-.9c-.2-.2-.6-.4-1-.4h-1.6v2.6zM360.3 418.1c0-.8.2-1.4.6-1.9.4-.5 1-.8 1.8-.8s1.4.3 1.8.8c.4.5.6 1.1.6 1.9v.1c0 .8-.2 1.4-.6 1.9-.4.5-1 .7-1.8.7s-1.3-.3-1.8-.8c-.4-.5-.6-1.1-.6-1.9zm1.2.1c0 .5.1.9.3 1.3.2.3.5.5.9.5s.7-.2.9-.5c.2-.3.3-.7.3-1.3v-.1c0-.5-.1-.9-.3-1.2-.2-.3-.5-.5-.9-.5s-.7.2-.9.5c-.2.3-.3.7-.3 1.2v.1zM366 418.3c0-.8.2-1.5.5-2 .4-.5.9-.8 1.5-.8.3 0 .5.1.8.2.2.1.4.3.6.5v-2.9h1.2v7.6h-1l-.1-.7-.6.6c-.2.1-.5.2-.8.2-.6 0-1.2-.2-1.5-.7-.4-.5-.5-1.1-.5-1.9v-.1zm1.1.1c0 .5.1.9.3 1.2.2.3.5.4.9.4.3 0 .5-.1.6-.2s.3-.3.4-.5V417c-.1-.2-.3-.3-.4-.5-.2-.1-.4-.2-.6-.2-.4 0-.7.2-.9.5-.2.3-.3.8-.3 1.3v.3zM379 414.7c-.8 1-1.4 1.8-1.7 2.6s-.5 1.7-.6 2.8l-.1.8h-1.2l.1-.8c.1-1.1.4-2 .8-2.9s.9-1.7 1.6-2.5H374v-1h4.9v1z"/></g></g><g><path fill="#f2f6fb" d="M346.6 471.9l11.6-4.6 68.4.1h65.2l11.6 4.6"/><path fill="#d2d2d2" d="M346.5 483.4h157v-10c0-3.3-2.7-6-6-6h-145c-3.3 0-6 2.7-6 6v10z"/><path fill="#a3a3a3" d="M353.5 473.4h4v4h-4v-4zm6 0h4v4h-4v-4zm6 0h4v4h-4v-4z"/><path fill="#990e16" d="M494.3 476.8c-.7.5-1.3.9-1.9 1.2l1.9 3.1.7-5c-.2.3-.5.5-.7.7z"/><path fill="#ec1622" d="M497 474c-.1.1-.2.3-.3.4-.3.4-.7.9-1.1 1.2l-.6.6-.8 5 2.9-7.5c.1 0 0 .1-.1.3z"/><path fill="#fefefd" d="M485.5 473.6c-.1.1-.1.2-.2.2 0-.1.1-.1.2-.2-.1 0 0 0 0 0zm0 1.5l3 .2 4.1-2 1.7-2.6-.8-1.2h-.8c.5.1.9.3 1.1.6.5 1-.9 2.7-3.1 3.9-2.2 1.2-4.5 1.3-5 .3-.2-.4-.1-1 .3-1.5l-.1.1v.1c-.1.1-.2.3-.4.5v1.6zm-.3-1.1s0 .1 0 0c0 .1 0 .1 0 0z"/><path fill="#fefefd" d="M492.8 469.6h.8c.1 0 .3 0 .4.1.7.2 1.5.4 2.1.6.1 0 .2.1.3.1h.1c-.7-.3-1.7-.5-2.4-.8-.5-.1-1.3 0-1.3 0zm-7 3.5s.1-.1 0 0c.1-.1 0 0 0 0z"/><path fill="#990e16" d="M497.5 471.4c-.2-.5-.7-.9-1.1-1h-.1l-1.9.4 1.9.9 1.3.6c0-.3 0-.6-.1-.9zm-.9 2.9l-.6-.1-.7-.2-2.7-.7 1.2 1.5.5.6.6.7.6-.6c.4-.4.8-.8 1.1-1.2zm-10.3 5l-.4-.1c.1.1.2.1.4.1z"/><path fill="#990e16" d="M489.2 479.2l-.3-1.6v-.2l-.4-2-2 2.9-.7 1 .4.1 8 1.8-5-2z"/><path fill="#930f17" d="M485.9 479l-.1-1.3-.2-2.5-.5.5-.6.6c-.1.2-.1.4-.1.6-.1.5-.1.9.1 1.1v.1c.3.6.8.9 1.3 1.1h.1v-.2z"/><g fill="#ec1622"><path d="M492.5 469.7h.1l.2-.1c-1-.2-2.5.2-3.9.9-1.3.7-2.4 1.6-2.9 2.4l.5-.5 6-2.7z"/><path d="M493.8 470.2c-.2-.3-.5-.5-1.1-.6l-.2.1h-.1l-6 2.8-.5.5c-.4.6-.5 1.1-.3 1.5.5 1 2.8.9 5-.3 2.3-1.2 3.8-3 3.2-4z"/></g><path fill="#ec1622" d="M486.5 472.4l6-2.8h.1l.1-.1-.1.1h-.1l-6 2.8-.5.5.5-.5z"/><path fill="#f36662" d="M492.3 478c-.8.4-1.8.8-2.9 1.1h-.2l5.1 2-2-3.1z"/><path fill="#930f17" d="M492.3 478l-1.9-1.3-.1-.1-1.8-1.3.4 2v.2l.3 1.6h.2c1.1-.3 2.1-.6 2.9-1.1zm2.1-2.6l-.5-.6-1.2-1.5-.1 2.2v.4l-.2 2.1c.6-.3 1.3-.7 1.9-1.2.3-.2.5-.4.8-.6l-.7-.8z"/><path fill="#ec1622" d="M491.2 476.3c-.1 0-.2 0-.3.1l.3-.1z"/><path fill="#ec1622" d="M488.5 475.3l1.8 1.3.1.1 1.9 1.3.1-2v-.4l.2-2.2-4.1 1.9z"/><path fill="#930f17" d="M496.3 471.7l-1.9-.9 2.1 3 .2.3.1.1.1.1c.1-.1.2-.3.3-.4.1-.1.1-.2.2-.3.2-.4.3-.7.4-1.1v-.2l-1.5-.6z"/><path fill="#ec1622" d="M496.7 474.2l-.2-.4-2.1-3-1.7 2.6 2.7.6.7.2.5.1.1-.1.1.1-.1-.1z"/><path fill="#f36662" d="M485.5 475.1l.2 2.5.1 1.3v.2l.7-1 1.9-2.9-2.9-.1zm-.1-1.5c-.1.1-.1.2-.1.2 0 .1-.1.1-.1.2v.1c-.2.5-.4 1.1-.6 1.7l-.1.4.6-.6.5-.5c-.1.1-.2-1.5-.2-1.5zm10.6-3.3c-.6-.2-1.4-.4-2.1-.6-.1 0-.2-.1-.4-.1l.8 1.2 1.9-.4s-.1-.1-.2-.1z"/><g><path d="M355.5 460.2v2.7h-1.2v-7.1h2.8c.8 0 1.4.2 1.8.6s.7.9.7 1.6c0 .7-.2 1.2-.7 1.6-.4.4-1.1.6-1.8.6h-1.6zm0-.9h1.6c.4 0 .8-.1 1-.4s.3-.5.3-.9-.1-.7-.3-.9c-.2-.2-.6-.4-1-.4h-1.6v2.6zM360.3 460.2c0-.8.2-1.4.6-1.9.4-.5 1-.8 1.8-.8s1.4.3 1.8.8c.4.5.6 1.1.6 1.9v.1c0 .8-.2 1.4-.6 1.9-.4.5-1 .7-1.8.7s-1.3-.3-1.8-.8c-.4-.5-.6-1.1-.6-1.9zm1.2.1c0 .5.1.9.3 1.3.2.3.5.5.9.5s.7-.2.9-.5c.2-.3.3-.7.3-1.3v-.1c0-.5-.1-.9-.3-1.2-.2-.3-.5-.5-.9-.5s-.7.2-.9.5c-.2.3-.3.7-.3 1.2v.1zM366 460.3c0-.8.2-1.5.5-2 .4-.5.9-.8 1.5-.8.3 0 .5.1.8.2.2.1.4.3.6.5v-2.9h1.2v7.6h-1l-.1-.7-.6.6c-.2.1-.5.2-.8.2-.6 0-1.2-.2-1.5-.7-.4-.5-.5-1.1-.5-1.9v-.1zm1.1.1c0 .5.1.9.3 1.2.2.3.5.4.9.4.3 0 .5-.1.6-.2s.3-.3.4-.5V459c-.1-.2-.3-.3-.4-.5-.2-.1-.4-.2-.6-.2-.4 0-.7.2-.9.5-.2.3-.3.8-.3 1.3v.3zM378.7 457.7c0 .4-.1.7-.3 1-.2.3-.5.5-.8.6.4.1.7.4.9.7.2.3.3.6.3 1 0 .7-.2 1.2-.7 1.5-.4.4-1 .5-1.7.5s-1.3-.2-1.7-.5c-.4-.3-.7-.9-.7-1.5 0-.4.1-.7.3-1 .2-.3.5-.5.9-.7-.3-.1-.6-.4-.8-.6-.2-.3-.3-.6-.3-1 0-.6.2-1.1.6-1.5.4-.3.9-.5 1.6-.5.6 0 1.2.2 1.6.5.6.3.8.8.8 1.5zm-1 3.2c0-.3-.1-.6-.3-.8s-.5-.3-.9-.3-.6.1-.9.3c-.2.2-.3.5-.3.8 0 .4.1.6.3.8.2.2.5.3.9.3.3 0 .6-.1.8-.3s.4-.4.4-.8zm-.2-3.2c0-.3-.1-.6-.3-.8s-.4-.3-.7-.3c-.3 0-.5.1-.7.3-.2.2-.3.5-.3.8 0 .3.1.6.3.8.2.2.4.3.7.3.3 0 .5-.1.7-.3.3-.2.3-.5.3-.8z"/></g></g><g><path fill="#f2f6fb" d="M346.6 513.9l11.6-4.6 68.4.1h65.2l11.6 4.6"/><path fill="#d2d2d2" d="M346.5 525.4h157v-10c0-3.3-2.7-6-6-6h-145c-3.3 0-6 2.7-6 6v10z"/><path fill="#a3a3a3" d="M353.5 515.4h4v4h-4v-4zm6 0h4v4h-4v-4zm6 0h4v4h-4v-4z"/><path fill="#990e16" d="M494.3 518.9c-.7.5-1.3.9-1.9 1.2l1.9 3.1.7-5c-.2.3-.5.5-.7.7z"/><path fill="#ec1622" d="M497 516c-.1.1-.2.3-.3.4-.3.4-.7.9-1.1 1.2l-.6.6-.8 5 2.9-7.5c.1.1 0 .2-.1.3z"/><path fill="#fefefd" d="M485.5 515.7c-.1.1-.1.2-.2.2 0-.1.1-.2.2-.2-.1 0 0 0 0 0zm0 1.5l3 .2 4.1-2 1.7-2.6-.8-1.2h-.8c.5.1.9.3 1.1.6.5 1-.9 2.7-3.1 3.9-2.2 1.2-4.5 1.3-5 .3-.2-.4-.1-1 .3-1.5l-.1.1v.1c-.1.1-.2.3-.4.5v1.6zm-.3-1.1z"/><path fill="#fefefd" d="M492.8 511.7h.8c.1 0 .3 0 .4.1.7.2 1.5.4 2.1.6.1 0 .2.1.3.1h.1c-.7-.3-1.7-.5-2.4-.8-.5-.1-1.3 0-1.3 0zm-7 3.5c0-.1.1-.1 0 0 .1-.1 0-.1 0 0z"/><path fill="#990e16" d="M497.5 513.5c-.2-.5-.7-.9-1.1-1h-.1l-1.9.4 1.9.9 1.3.6c0-.3 0-.6-.1-.9zm-.9 2.9l-.6-.1-.7-.2-2.7-.7 1.2 1.5.5.6.6.7.6-.6c.4-.4.8-.8 1.1-1.2zm-10.3 5l-.4-.1c.1 0 .2.1.4.1z"/><path fill="#990e16" d="M489.2 521.2l-.3-1.6v-.2l-.4-2-2 2.9-.7 1 .4.1 8 1.8-5-2z"/><path fill="#930f17" d="M485.9 521.1l-.1-1.3-.2-2.5-.5.5-.6.6c-.1.2-.1.4-.1.6-.1.5-.1.9.1 1.1v.1c.3.6.8.9 1.3 1.1h.1v-.2z"/><g fill="#ec1622"><path d="M492.5 511.8h.1l.2-.1c-1-.2-2.5.2-3.9.9-1.3.7-2.4 1.6-2.9 2.4l.5-.5 6-2.7z"/><path d="M493.8 512.3c-.2-.3-.5-.5-1.1-.6l-.2.1h-.1l-6 2.8-.4.4c-.4.6-.5 1.1-.3 1.5.5 1 2.8.9 5-.3s3.7-2.9 3.1-3.9z"/></g><path fill="#ec1622" d="M486.5 514.5l6-2.8h.1l.1-.1-.1.1h-.1l-6 2.8-.5.5.5-.5z"/><path fill="#f36662" d="M492.3 520.1c-.8.4-1.8.8-2.9 1.1h-.2l5.1 2-2-3.1z"/><path fill="#930f17" d="M492.3 520.1l-1.9-1.3-.1-.1-1.8-1.3.4 2v.2l.3 1.6h.2c1.1-.3 2.1-.7 2.9-1.1zm2.1-2.6l-.5-.6-1.2-1.5-.1 2.2v.4l-.2 2.1c.6-.3 1.3-.7 1.9-1.2.3-.2.5-.4.8-.6l-.7-.8z"/><path fill="#ec1622" d="M491.2 518.4c-.1 0-.2 0-.3.1l.3-.1z"/><path fill="#ec1622" d="M488.5 517.4l1.8 1.3.1.1 1.9 1.3.1-2v-.4l.2-2.2-4.1 1.9z"/><path fill="#930f17" d="M496.3 513.8l-1.9-.9 2.1 3 .2.3.1.1.1.1c.1-.1.2-.3.3-.4.1-.1.1-.2.2-.3.2-.4.3-.7.4-1.1v-.2l-1.5-.6z"/><path fill="#ec1622" d="M496.7 516.3l-.2-.4-2.1-3-1.7 2.6 2.7.6.7.2.5.1.1-.1.1.1-.1-.1z"/><path fill="#f36662" d="M485.5 517.2l.2 2.5.1 1.3v.2l.7-1 1.9-2.9-2.9-.1zm-.1-1.5c-.1.1-.1.2-.1.2s-.1.1-.1.2v.1c-.2.5-.4 1.1-.6 1.7l-.1.4.6-.6.5-.5c-.1 0-.2-1.5-.2-1.5zm10.6-3.3c-.6-.2-1.4-.4-2.1-.6-.1 0-.2-.1-.4-.1l.8 1.2 1.9-.4c0-.1-.1-.1-.2-.1z"/><g><path d="M355.5 502.3v2.7h-1.2v-7.1h2.8c.8 0 1.4.2 1.8.6s.7.9.7 1.6c0 .7-.2 1.2-.7 1.6-.4.4-1.1.6-1.8.6h-1.6zm0-1h1.6c.4 0 .8-.1 1-.4s.3-.5.3-.9-.1-.7-.3-.9c-.2-.2-.6-.4-1-.4h-1.6v2.6zM360.3 502.3c0-.8.2-1.4.6-1.9.4-.5 1-.8 1.8-.8s1.4.3 1.8.8c.4.5.6 1.1.6 1.9v.1c0 .8-.2 1.4-.6 1.9-.4.5-1 .7-1.8.7s-1.3-.2-1.8-.8c-.4-.5-.6-1.1-.6-1.9zm1.2.1c0 .5.1.9.3 1.3.2.3.5.5.9.5s.7-.2.9-.5c.2-.3.3-.7.3-1.3v-.1c0-.5-.1-.9-.3-1.2-.2-.3-.5-.5-.9-.5s-.7.2-.9.5c-.2.3-.3.7-.3 1.2v.1zM366 502.4c0-.8.2-1.5.5-2 .4-.5.9-.8 1.5-.8.3 0 .5.1.8.2.2.1.4.3.6.5v-2.9h1.2v7.6h-1l-.1-.7-.6.6c-.2.1-.5.2-.8.2-.6 0-1.2-.2-1.5-.7-.4-.5-.5-1.1-.5-1.9v-.1zm1.1.1c0 .5.1.9.3 1.2.2.3.5.4.9.4.3 0 .5-.1.6-.2s.3-.3.4-.5v-2.3c-.1-.2-.3-.3-.4-.5-.2-.1-.4-.2-.6-.2-.4 0-.7.2-.9.5-.2.3-.3.8-.3 1.3v.3zM376.2 504.1c.4 0 .8-.2 1-.5.3-.3.4-.8.4-1.4v-.2c-.2.2-.4.4-.6.5s-.5.2-.8.2c-.7 0-1.2-.2-1.6-.6-.4-.4-.6-1-.6-1.8 0-.7.2-1.3.7-1.8s1-.7 1.6-.7c.7 0 1.3.2 1.8.7s.7 1.2.7 2.1v1.7c0 .9-.2 1.6-.7 2.1-.5.5-1.1.7-1.9.7-.2 0-.5 0-.8-.1s-.5-.1-.7-.2l.2-.9c.2.1.4.2.6.2h.7zm.2-2.4c.3 0 .5-.1.8-.2s.4-.3.5-.5v-.6c0-.6-.1-1-.3-1.3-.2-.3-.5-.4-.9-.4-.3 0-.6.1-.8.4-.2.3-.3.6-.3 1.1 0 .4.1.8.3 1.1.1.3.4.4.7.4z"/></g></g><g><path fill="#f2f6fb" d="M346.6 556l11.6-4.6 68.4.1h65.2l11.6 4.6"/><path fill="#d2d2d2" d="M346.5 567.5h157v-10c0-3.3-2.7-6-6-6h-145c-3.3 0-6 2.7-6 6v10z"/><path fill="#a3a3a3" d="M353.5 557.5h4v4h-4v-4zm6 0h4v4h-4v-4zm6 0h4v4h-4v-4z"/><path fill="#990e16" d="M494.3 561c-.7.5-1.3.9-1.9 1.2l1.9 3.1.7-5c-.2.3-.5.5-.7.7z"/><path fill="#ec1622" d="M497 558.1c-.1.1-.2.3-.3.4-.3.4-.7.9-1.1 1.2l-.6.6-.8 5 2.9-7.5c.1.1 0 .2-.1.3z"/><path fill="#fefefd" d="M485.5 557.7c-.1.1-.1.2-.2.2l.2-.2c-.1 0 0 0 0 0zm0 1.6l3 .2 4.1-2 1.7-2.6-.8-1.2h-.8c.5.1.9.3 1.1.6.5 1-.9 2.7-3.1 3.9-2.2 1.2-4.5 1.3-5 .3-.2-.4-.1-1 .3-1.5l-.1.1v.1c-.1.1-.2.3-.4.5v1.6zm-.3-1.1z"/><path fill="#fefefd" d="M492.8 553.7h.8c.1 0 .3 0 .4.1.7.2 1.5.4 2.1.6.1 0 .2.1.3.1h.1c-.7-.3-1.7-.5-2.4-.8h-1.3zm-7 3.5s.1 0 0 0c.1 0 0 0 0 0z"/><path fill="#990e16" d="M497.5 555.6c-.2-.5-.7-.9-1.1-1h-.1l-1.9.4 1.9.9 1.3.6c0-.3 0-.6-.1-.9zm-.9 2.9l-.6-.1-.7-.2-2.7-.7 1.2 1.5.5.6.6.7.6-.6c.4-.4.8-.8 1.1-1.2zm-10.3 5l-.4-.1c.1 0 .2 0 .4.1z"/><path fill="#990e16" d="M489.2 563.3l-.3-1.6v-.2l-.4-2-2 2.9-.7 1 .4.1 8 1.8-5-2z"/><path fill="#930f17" d="M485.9 563.1l-.1-1.3-.2-2.5-.5.5-.6.6c-.1.2-.1.4-.1.6-.1.5-.1.9.1 1.1v.1c.3.6.8.9 1.3 1.1h.1v-.2z"/><g fill="#ec1622"><path d="M492.5 553.8h.1l.2-.1c-1-.2-2.5.2-3.9.9-1.3.7-2.4 1.6-2.9 2.4l.5-.5 6-2.7z"/><path d="M493.8 554.4c-.2-.3-.5-.5-1.1-.6l-.2.1h-.1l-6 2.8-.4.3c-.4.6-.5 1.1-.3 1.5.5 1 2.8.9 5-.3 2.2-1.1 3.7-2.8 3.1-3.8z"/></g><path fill="#ec1622" d="M486.5 556.6l6-2.8h.1l.1-.1-.1.1h-.1l-6 2.8-.5.4.5-.4z"/><path fill="#f36662" d="M492.3 562.2c-.8.4-1.8.8-2.9 1.1h-.2l5.1 2-2-3.1z"/><path fill="#930f17" d="M492.3 562.2l-1.9-1.3-.1-.1-1.8-1.3.4 2v.2l.3 1.6h.2c1.1-.3 2.1-.7 2.9-1.1zm2.1-2.6l-.5-.6-1.2-1.5-.1 2.2v.4l-.2 2.1c.6-.3 1.3-.7 1.9-1.2.3-.2.5-.4.8-.6l-.7-.8z"/><path fill="#ec1622" d="M491.2 560.4c-.1 0-.2 0-.3.1l.3-.1z"/><path fill="#ec1622" d="M488.5 559.5l1.8 1.3.1.1 1.9 1.3.1-2v-.4l.2-2.2-4.1 1.9z"/><path fill="#930f17" d="M496.3 555.9l-1.9-.9 2.1 3 .2.3.1.1.1.1c.1-.1.2-.3.3-.4.1-.1.1-.2.2-.3.2-.4.3-.7.4-1.1v-.2l-1.5-.6z"/><path fill="#ec1622" d="M496.7 558.4l-.2-.4-2.1-3-1.7 2.6 2.7.6.7.2.5.1.1-.1.1.1-.1-.1z"/><path fill="#f36662" d="M485.5 559.3l.2 2.5.1 1.3v.2l.7-1 1.9-2.9-2.9-.1zm-.1-1.6c-.1.1-.1.2-.1.2 0 .1-.1.1-.1.2v.1c-.2.5-.4 1.1-.6 1.7l-.1.4.6-.6.5-.5c-.1.1-.2-1.5-.2-1.5zm10.6-3.3c-.6-.2-1.4-.4-2.1-.6-.1 0-.2-.1-.4-.1l.8 1.2 1.9-.4s-.1 0-.2-.1z"/><g><path d="M355.5 544.4v2.7h-1.2V540h2.8c.8 0 1.4.2 1.8.6s.7.9.7 1.6c0 .7-.2 1.2-.7 1.6-.4.4-1.1.6-1.8.6h-1.6zm0-1h1.6c.4 0 .8-.1 1-.4s.3-.5.3-.9-.1-.7-.3-.9c-.2-.2-.6-.4-1-.4h-1.6v2.6zM360.3 544.4c0-.8.2-1.4.6-1.9.4-.5 1-.8 1.8-.8s1.4.3 1.8.8c.4.5.6 1.1.6 1.9v.1c0 .8-.2 1.4-.6 1.9-.4.5-1 .7-1.8.7s-1.3-.2-1.8-.8c-.4-.5-.6-1.1-.6-1.9zm1.2.1c0 .5.1.9.3 1.3.2.3.5.5.9.5s.7-.2.9-.5c.2-.3.3-.7.3-1.3v-.1c0-.5-.1-.9-.3-1.2-.2-.3-.5-.5-.9-.5s-.7.2-.9.5c-.2.3-.3.7-.3 1.2v.1zM366 544.5c0-.8.2-1.5.5-2 .4-.5.9-.8 1.5-.8.3 0 .5.1.8.2.2.1.4.3.6.5v-2.9h1.2v7.6h-1l-.1-.7-.6.6c-.2.1-.5.2-.8.2-.6 0-1.2-.2-1.5-.7-.4-.5-.5-1.1-.5-1.9v-.1zm1.1.1c0 .5.1.9.3 1.2.2.3.5.4.9.4.3 0 .5-.1.6-.2s.3-.3.4-.5v-2.3c-.1-.2-.3-.3-.4-.5-.2-.1-.4-.2-.6-.2-.4 0-.7.2-.9.5-.2.3-.3.8-.3 1.3v.3zM377.2 547H376v-6h-1.4v-.9l2.6-.3v7.2zM384.6 544.3c0 .9-.2 1.6-.6 2.1-.4.5-1 .7-1.7.7s-1.3-.2-1.7-.7c-.4-.5-.6-1.2-.6-2.1v-1.6c0-.9.2-1.6.6-2.1s1-.7 1.7-.7 1.3.2 1.7.7.6 1.2.6 2.1v1.6zm-1.2-1.8c0-.6-.1-1-.3-1.3-.2-.3-.5-.4-.9-.4s-.7.1-.9.4c-.2.3-.3.7-.3 1.3v2c0 .6.1 1 .3 1.3s.5.4.9.4.7-.1.8-.4c.2-.3.3-.7.3-1.3v-2z"/></g></g><g fill="#b8e986"><path d="M469.6 319l-22-39.7h44l-22 39.7z"/><path d="M463.5 257.5h12.2v29.1h-12.2v-29.1z"/></g></g><g><path d="M388.7 312.8h-7.6v-1.3l3.7-4c.6-.7 1-1.2 1.2-1.6.2-.4.3-.8.3-1.2 0-.5-.1-.9-.4-1.3s-.7-.5-1.2-.5c-.7 0-1.2.2-1.5.6-.3.4-.5.9-.5 1.5h-1.8c0-1 .3-1.9 1-2.6.7-.7 1.6-1 2.8-1 1.1 0 2 .3 2.6.9.6.6 1 1.4 1 2.4 0 .7-.2 1.3-.6 1.9s-.9 1.3-1.7 2.2l-2.5 2.7h5.1v1.3z"/></g><g fill="#006837"><path d="M248.2 166.6h-1.9v-11.4h1.9v11.4zM259.7 166.6h-1.9l-5-8.3v8.3h-1.9v-11.4h1.9l5 8.3v-8.3h1.9v11.4zM270.5 162.8c0 1.2-.3 2.1-1.1 2.9-.8.7-1.8 1.1-3.1 1.1s-2.4-.4-3.2-1.3c-.8-.9-1.2-2-1.2-3.4v-2.2c0-1.4.4-2.5 1.2-3.4s1.9-1.3 3.2-1.3c1.3 0 2.4.4 3.2 1.1.8.7 1.1 1.7 1.1 2.8h-1.8c0-.8-.2-1.4-.6-1.8-.4-.4-1-.6-1.8-.6s-1.4.3-1.8.9c-.5.6-.7 1.4-.7 2.3v2.2c0 .9.2 1.7.7 2.3.5.6 1.1.9 1.9.9.8 0 1.4-.2 1.8-.6.4-.4.6-1 .6-1.8h1.6zM281.2 161.9c0 1.4-.4 2.5-1.3 3.5-.9.9-2 1.4-3.4 1.4s-2.5-.5-3.3-1.4-1.3-2.1-1.3-3.5v-2c0-1.4.4-2.5 1.3-3.5.9-.9 2-1.4 3.3-1.4 1.4 0 2.5.5 3.4 1.4.9.9 1.3 2.1 1.3 3.5v2zm-1.9-2.1c0-.9-.3-1.7-.8-2.3s-1.2-.9-2.1-.9c-.8 0-1.5.3-2 .9s-.7 1.4-.7 2.3v2.1c0 1 .2 1.7.7 2.4.5.6 1.1.9 2 .9.9 0 1.6-.3 2.1-.9.5-.6.8-1.4.8-2.4v-2.1zM285.7 155.2l3.3 8.8 3.3-8.8h2.5v11.4h-1.9v-3.9l.2-4.9-3.4 8.8h-1.3l-3.4-8.8.2 4.9v3.9h-1.9v-11.4h2.4zM299.3 166.6h-1.9v-11.4h1.9v11.4zM310.8 166.6h-1.9l-5-8.3v8.3H302v-11.4h1.9l5 8.3v-8.3h1.9v11.4zM321.8 165c-.3.4-.8.8-1.5 1.2-.7.4-1.6.5-2.7.5-1.4 0-2.5-.4-3.4-1.3-.9-.9-1.3-2-1.3-3.4v-2.4c0-1.4.4-2.5 1.3-3.4s1.9-1.3 3.2-1.3c1.3 0 2.4.3 3.1 1 .7.7 1.1 1.5 1.1 2.6h-1.8c0-.6-.3-1.1-.7-1.5-.4-.4-1-.6-1.8-.6s-1.4.3-1.9.9c-.5.6-.7 1.3-.7 2.2v2.4c0 .9.3 1.7.8 2.3.5.6 1.2.9 2 .9.6 0 1.1-.1 1.4-.2.4-.1.6-.3.8-.5v-2.3h-2.3v-1.4h4.2v4.3zM335.8 156.7h-3.4v9.9h-1.9v-9.9h-3.4v-1.5h8.8v1.5zM339.2 161.8v4.7h-1.9v-11.4h4.2c1.3 0 2.3.3 2.9.9.7.6 1 1.4 1 2.5 0 .6-.2 1.1-.5 1.5-.3.4-.7.8-1.3 1 .6.2 1.1.5 1.4 1s.4 1 .4 1.7v.9c0 .3 0 .7.1 1 .1.3.2.6.4.7v.2h-2c-.2-.2-.3-.4-.4-.8-.1-.4-.1-.7-.1-1.1v-.9c0-.6-.2-1-.5-1.4-.3-.3-.8-.5-1.4-.5h-2.3zm0-1.5h2.2c.8 0 1.3-.1 1.7-.4.3-.3.5-.7.5-1.3 0-.6-.2-1-.5-1.3-.3-.3-.9-.5-1.6-.5h-2.3v3.5zM354.1 163.9h-4.5l-.9 2.7h-1.9l4.2-11.4h1.8l4.1 11.4H355l-.9-2.7zm-3.9-1.6h3.4l-1.6-4.9-1.8 4.9zM365.1 161.7h-5v4.9h-1.9v-11.4h7.7v1.5h-5.8v3.5h5v1.5zM374.4 161.7h-5v4.9h-1.9v-11.4h7.7v1.5h-5.8v3.5h5v1.5zM378.8 166.6h-1.9v-11.4h1.9v11.4zM389.7 162.8c0 1.2-.3 2.1-1.1 2.9-.8.7-1.8 1.1-3.1 1.1s-2.4-.4-3.2-1.3c-.8-.9-1.2-2-1.2-3.4v-2.2c0-1.4.4-2.5 1.2-3.4s1.9-1.3 3.2-1.3c1.3 0 2.4.4 3.2 1.1.8.7 1.1 1.7 1.1 2.8H388c0-.8-.2-1.4-.6-1.8-.4-.4-1-.6-1.8-.6s-1.4.3-1.8.9c-.5.6-.7 1.4-.7 2.3v2.2c0 .9.2 1.7.7 2.3.5.6 1.1.9 1.9.9.8 0 1.4-.2 1.8-.6.4-.4.6-1 .6-1.8h1.6z"/></g><g><g fill="#151d38"><path d="M230.4 94v46.5h178.7c.2 0 .3-.1.5-.2v-.5c-.3-.2-.6-.1-.9-.1h-12c-.3 0-.4-.1-.4-.4v-2.5c0-.4 0-.4.4-.3.8.2 1.5.5 2.3.7.1 0 .3.1.4.1.2 0 .3-.1.4-.3.1-.2 0-.4-.2-.5-.1-.1-.3-.1-.4-.2-.8-.2-1.5-.4-2.3-.7-.7-.2-.7 0-.7-.9 0-.5 0-.5.6-.5h4.3c.2 0 .3-.2.3-.4s-.1-.4-.3-.4h-4.7c-.1 0-.2 0-.3-.2V132c0-.2.2-.2.3-.3.5-.1.9-.3 1.4-.4.5-.2 1.1-.3 1.6-.5.3-.1.3-.3.2-.5-.1-.2-.3-.3-.5-.2-.1 0-.3.1-.4.1-.7.2-1.3.4-2 .6-.7.2-.7.2-.7-.6v-.7-11.7c0-.3.1-.7-.3-.8-.4-.1-.6.2-.8.4-2.4 2.2-4.9 4.5-7.3 6.7-.7.6-.5.5-1.2.1-5.2-3.7-12.1-3.7-17.3 0-.7.5-.5.5-1.2-.1-2.4-2.2-4.8-4.5-7.2-6.7-.1-.1-.2-.2-.4-.3-.3-.2-.6-.1-.7.3v8.5c0 .3 0 .5-.3.7-1.5 1.1-2.5 2.4-3.2 4.1-.1.3-.3.4-.6.3-.9-.3-1.9-.6-2.8-.8-.2-.1-.3-.1-.5-.1s-.4.1-.4.3c-.1.2 0 .4.2.4.1.1.3.1.4.2.8.2 1.6.5 2.3.7.9.3.9.3.8 1.2-.1.4-.2.5-.5.5h-4.4c-.2 0-.4.2-.4.4s.1.4.4.4h4.5c.2 0 .4.1.4.3v.1c0 .9.1.7-.7.9-.8.3-1.6.5-2.4.7-.5.1-.7.3-.6.6.1.3.4.4.8.2.9-.3 1.7-.5 2.6-.8.2-.1.4-.1.4.2.2 1 .6 1.9 1 2.8.1.2 0 .3-.2.3H344.7c-.6 0-.6 0-.6-.6-.2-1.3-.7-2.5-1.5-3.6-.3-.4-.4-.7-.2-1.2.6-1.9-.5-3.8-2.4-4.1-.4-.1-.5-.2-.6-.6-.2-1.2-.8-2.1-2-2.5-1.1-.4-2.2-.2-3.1.6-.3.3-.5.6-.7.9 0 .1-.1.2-.2.2s-.1-.2-.2-.3c-.1-.5-.1-1-.3-1.4-.6-2.2-2-3.5-4.2-4-.5-.1-.7-.3-.9-.8-2.2-7-4.5-13.9-6.7-20.9-.4-1.1-.7-2.2-1.1-3.3-.1-.4-.1-.7.3-.9.1-.1.2-.2.4-.3 3.3-2.9 6-6.3 8-10.3 1-2 1.8-4 2.4-6.1.1-.3.2-.5.5-.4.8.1 1.5 0 2.3-.2 4.1-1 6.9-4.9 6.1-9.3-.6-3.2-2.5-5.3-5.6-6.4-.6-.2-.5-.2-.3-.7.7-2 1.2-4 1.5-6 .4-2.6.6-5.2.1-7.9-.7-3.6-2.5-6.5-5.6-8.4-2.7-1.6-5.6-2.1-8.6-1.8-.5 0-.5 0-.6-.5-.2-1.3-.5-2.6-1.1-3.8-1.5-3.2-3.8-5.4-7.3-6.3-2.1-.5-4.1-.3-6.2.1-2 .5-4 1.2-5.9 2-2.1.8-4.2 1.3-6.5 1.3-3 0-5.7-.9-8.2-2.6-2.8-1.9-5.2-4.3-7.4-6.9-.1-.2-.3-.4-.4-.5-.2-.2-.5-.1-.6.2 0 .1 0 .3-.1.4-.2 1.7-.2 3.5 0 5.2.1.7 0 .7-.6.4-1-.4-2-.9-3-1.5-.6-.3-.8-.2-.9.5v1.5c0 1.4.2 2.7.4 4 .1.4 0 .4-.3.3-.9-.3-1.9-.7-2.8-1.1-.8-.4-1-.3-1 .6.1 3.6 1.1 7 3.1 10.1.8 1.3 1.9 2.5 3 3.6.3.3.3.3 0 .7-.4.4-.9.8-1.3 1.3-7.2 7.9-10.2 17.2-8.9 27.8.6 4.6 2.2 8.9 4.6 12.9.1.2.4.4.3.6-.1.2-.4.1-.7.1H237m10.9 13.7c0 .8-.6 1.4-1.4 1.4h-14.7c-.8 0-1.4-.6-1.4-1.4v-12c0-.8.6-1.4 1.4-1.4h14.7c.8 0 1.4.6 1.4 1.4v12z"/><path d="M246.5 90h-14.7c-.8 0-1.4.6-1.4 1.4v12c0 .8.6 1.4 1.4 1.4h14.7c.8 0 1.4-.6 1.4-1.4v-12c0-.8-.7-1.4-1.4-1.4z"/><path d="M246.5 90h-14.7c-.8 0-1.4.6-1.4 1.4v12c0 .8.6 1.4 1.4 1.4h14.7c.8 0 1.4-.6 1.4-1.4v-12c0-.8-.7-1.4-1.4-1.4z" opacity=".2"/></g><path fill="#ccd6da" d="M262.4 135.9c10.2-.1 20.4-.1 30.5-.1h.1c.7 0 .7 0 .7-.7v-.2-42.4-.5c0-.7-.4-1.2-1.2-1.3h-60c-1 0-1.4.5-1.4 1.5v43c0 .6 0 .6.7.6h.5c10.1.1 20.1.1 30.1.1z"/><path fill="#fae0d6" d="M282.5 90h10c1.1 0 1.8.6 2 1.6v12.1c0 .6 0 .6.5.7 4.1.5 8.1.3 12-.8 9-2.4 15.8-7.6 20.5-15.6 1.3-2.3 2.3-4.7 3-7.3.1-.5.1-.5-.3-.6-.3-.1-.5-.2-.8-.2-.5-.2-.6-.4-.5-.6.1-.3.3-.3.8-.2 1.3.5 2.7.6 4 .3 4.1-.8 6.7-5 5.6-9-1.1-4.1-5.4-6.4-9.3-5.1-.2.1-.4.2-.6.2-.2 0-.3-.1-.4-.3-.1-.2 0-.4.1-.5.1-.1.2-.1.4-.2l.9-.3c.1 0 .1-.1.2-.1 0-.1-.1-.1-.2-.1-.1-.1-.3-.1-.4-.1-2.1-.7-4.1-1.6-5.9-2.8-3.3-2.2-5.9-5-7.5-8.6-.8-1.7-1.3-3.5-1.6-5.4-.1-.6-.1-.6-.6-.3-.2.1-.3.2-.5.3-2.4 1.4-5 2.7-7.6 3.7-5.7 2.1-11.6 3-17.6 1.9-4.2-.7-8.1-2.2-11.6-4.9-.4-.3-.4-.3-.8 0-3.1 2.9-5.6 6.3-7.3 10.2-2.7 6-3.6 12.3-2.5 18.9.7 4.5 2.3 8.6 4.7 12.4.3.5.6.7 1.2.7 3.5-.1 6.8 0 10.1 0z"/><path fill="#fff3a2" d="M294.6 120.5v15c0 .3.1.5.5.5h10.7c.6 0 .6.1.6.7v2.7c0 .5-.1.5.4.5h10.7c.4 0 .4-.1.5-.5.1-1 .4-2 .9-2.8.2-.3.2-.6.1-.9-.6-1.7-1.1-3.4-1.7-5.2-1.4-4.2-2.7-8.4-4.1-12.6 0-.1-.1-.3-.1-.4-.1-.3.1-.4.3-.5.2-.1.4.1.5.3 0 .1.1.2.1.2 1 3 1.9 6 2.9 8.9.9 2.8 1.8 5.6 2.8 8.4.2.5.2.5.5.2 1-1 2.2-1.6 3.5-1.9.4-.1.4-.1.3-.5-.2-.9-.5-1.8-.7-2.8-.6-2.8 1.1-5.6 3.8-6.3.2 0 .3-.1.5-.1s.3-.1.2-.3c0-.1-.1-.2-.1-.3-2.2-6.7-4.3-13.4-6.5-20.1-.4-1.2-.8-2.5-1.2-3.7-.1-.3-.2-.4-.5-.1-.1.1-.2.1-.3.2-1.8 1.4-3.8 2.5-5.9 3.5-4 1.9-8.3 2.9-12.7 3.1-1.9.1-3.8 0-5.6-.2-.3 0-.4 0-.4.3v14.7z"/><path fill="#c27659" d="M382.8 139.7h12.1c.6 0 .6 0 .6-.6v-.3-19.6-.4c0-.1 0-.2-.1-.3-.2-.1-.2.1-.3.2-1.5 1.4-3 2.8-4.5 4.1-.9.8-1.8 1.7-2.7 2.5-.4.3-.4.3-.9 0-.1-.1-.2-.2-.4-.3-2.2-1.6-4.6-2.6-7.3-2.8-3.6-.3-6.9.7-9.8 2.9-.6.5-.6.5-1.2 0l-.1-.1c-2.2-2.1-4.4-4.1-6.6-6.2-.2-.2-.3-.5-.6-.4-.2.1-.1.4-.1.6v7.2c0 .3 0 .6-.4.8-4 2.7-4.9 7.9-2.6 11.9.2.4.5.5.9.5h8.8c.2 0 .5.1.5-.1.1-.2-.2-.3-.3-.4-1.4-1.5-1.9-3.3-1.3-5.3.6-2 2-3.2 4-3.7.4-.1.8-.2 1.2-.1.2 0 .4.2.4.4s-.1.3-.3.4c-.2 0-.5.1-.7.1-1.9.2-3.5 1.7-3.9 3.5-.4 1.9.4 3.8 2.1 4.9.4.3.9.4 1.4.4 4.1.2 8.1.2 12.1.2z"/><path fill="#ccd6da" d="M262.5 136.7h-30.9c-.3 0-.4.1-.4.4v1.7c0 1 0 1 1 1H293.3c.4 0 .5-.2.5-.5v-2.1c0-.3-.1-.4-.4-.4h-9.3c-7.1-.1-14.4-.1-21.6-.1zM331.3 139.7h12.3c.2 0 .4-.1.3-.3-.1-1.2-.6-2.2-1.3-3.2-.1-.2-.2-.1-.3 0 0 .1-.1.2-.1.2-.9 1.9-3.2 2.4-4.8 1.1-.3-.2-.5-.3-.9-.1-1 .4-2 .3-2.9-.3-1-.7-1.4-1.6-1.3-2.8 0-.4 0-.4-.4-.3-.9.2-1.7.1-2.4-.3-.2-.1-.4-.1-.6-.1h-3.8c-2.9.1-5.4 2.1-6.2 4.9-.1.3-.1.6-.2.9 0 .2.1.3.3.3h12.3z"/><path fill="#fae0d6" d="M326.6 132.8h1.5c.2 0 .3-.1.2-.3-.6-1.5-.6-3.2-1-4.7-.1-.4.1-.6.3-.6.3 0 .4.1.5.5.1.4.1.7.2 1.1.2.9.3 1.9.5 2.8.3 1.2 1.4 2 2.6 1.7 1.2-.2 2-1.4 1.8-2.6-.2-1.1-.3-2.1-.6-3.2-.5-2.3-2.9-3.8-5.2-3.4-2.2.4-3.9 2.8-3.5 5.1.2 1.1.5 2.2.8 3.3.1.3.2.4.5.4.5-.1 1-.1 1.4-.1zM333.1 134.6c0 .8.3 1.4.9 1.8 1.3 1 3 .5 3.5-1s1-3 1.5-4.4c.1-.2.1-.3.1-.5.1-1.1-.6-2-1.6-2.4-1-.3-2.2.1-2.6 1.1-.3.7-.6 1.4-.7 2.1-.1.6-.3 1.1-.5 1.6-.4.4-.5 1.1-.6 1.7z"/><path fill="#ccd6da" d="M299.9 139.7H305c.3 0 .5-.1.5-.4V137c0-.2-.1-.3-.3-.3h-10.1c-.3 0-.5.1-.5.5v2.1c0 .5 0 .5.5.5 1.7-.1 3.3-.1 4.8-.1z"/><path fill="#fae0d6" d="M342.3 133.5c0-1.3-.8-2.2-1.9-2.4-.5-.1-.6-.1-.7.4-.3.9-.6 1.8-.9 2.6-.3.8-.4 1.6-1 2.3-.2.2 0 .3.1.5 1.2 1 2.9.5 3.5-.9.3-.7.5-1.4.7-2.1.2-.1.2-.3.2-.4z"/><path fill="#151d38" d="M270.3 113.5c-.2 3.4-2.3 5.9-5.4 6.6-4 .9-7.9-1.8-8.5-5.9-.5-3.4 1.7-6.9 5.3-7.7.8-.2.8-.1 1 .6.5 2.6 2.3 4.6 4.8 5.1.6.1 1.2.2 1.8.1.8-.1.9 0 .9.8.1.3.1.4.1.4z"/><path fill="#fff" d="M263.4 119.5c.4 0 1-.1 1.5-.2 2.5-.7 4.4-3 4.5-5.5 0-.6 0-.6-.5-.5-3.3.1-6.2-2.2-6.9-5.4-.2-.7-.3-.5-.7-.4-2.9.9-4.6 3.9-4.1 6.9.5 2.9 3.1 5.1 6.2 5.1z"/><path fill="#151d38" d="M293.9 64.7h9.2c1.4 0 2.8.1 4.2.1.7 0 .8.3.5.8-2.1 3.8-5.1 6.5-9.5 7.4-4.4.9-8.2-.3-11.5-3.3-1.3-1.2-2.3-2.6-3.1-4.2-.1-.2-.2-.3-.2-.5-.1-.3 0-.5.3-.6h.4c2.7 0 5.4.1 8.2.1.5.1 1 .2 1.5.2-.1 0 0 0 0 0z"/><path fill="#fff" d="M295.8 65.5h-5.5c-1.7-.1-3.5-.1-5.2-.1-.4 0-.4 0-.2.4.7 1.3 1.6 2.5 2.6 3.5 3 2.8 6.6 3.9 10.6 3.1 3.7-.7 6.4-2.9 8.4-6 .4-.6.4-.6-.3-.6-3.5-.2-7-.2-10.4-.3z"/><path fill="#e5384a" d="M269.8 69c0-2.3 1.7-4.6 4.6-4.6 2.5 0 4.6 2.1 4.6 4.6 0 2.6-2 4.6-4.6 4.6-2.5 0-4.6-2.1-4.6-4.6zM322.9 69.6c.1 2.2-1.8 4.6-4.6 4.6-2.5 0-4.6-2.1-4.6-4.6 0-2.6 2-4.6 4.6-4.6 2.8-.1 4.8 2.2 4.6 4.6z"/><path fill="#151d38" d="M280.4 59.1c1.3 0 2.3 1 2.3 2.3 0 1.2-1 2.2-2.2 2.2-1.3 0-2.3-1-2.3-2.3 0-1.2 1-2.2 2.2-2.2zM311.1 59.5c1.3 0 2.3 1 2.2 2.3 0 1.2-1 2.2-2.3 2.2-1.2 0-2.2-1-2.3-2.2.2-1.3 1.2-2.3 2.4-2.3zM337.1 72.2c0 2.9-2.9 4.9-5.7 4-.1 0-.2-.1-.2-.1-.3-.1-.4-.3-.3-.6.1-.3.3-.3.6-.2.1 0 .3.1.4.1 1.9.5 3.9-.7 4.3-2.6.4-2-.9-3.8-2.9-4.1-.2 0-.4 0-.5-.1-.2 0-.3-.2-.3-.4s.1-.4.4-.4h.5c2.1.4 3.7 2.2 3.7 4.4zM296.2 58.9c0 .2-.2.3-.3.4l-1.8.9c-.2.1-.3.2 0 .4.5.3 1 .7 1.5 1 .1.1.3.2.4.3.1.1.1.3 0 .5s-.3.2-.5.2c-.1 0-.2-.1-.3-.2-.8-.5-1.5-1.1-2.3-1.6-.5-.4-.5-.7.1-1 .8-.4 1.7-.9 2.5-1.3.4-.1.7.1.7.4zM274.8 59.8c.1-1.9 1.5-3.5 3.4-3.9.2 0 .4-.1.7 0 .2 0 .3.2.3.3 0 .2 0 .4-.2.4-.2.1-.4.1-.6.1-1.5.3-2.5 1.4-2.7 2.9v.5c0 .3-.1.4-.4.4-.3 0-.4-.2-.4-.4-.2-.1-.1-.2-.1-.3zM316.8 60.3v.5c0 .2-.2.3-.4.3s-.3-.1-.4-.3v-.4c-.1-1.6-1.2-2.9-2.8-3.2h-.3c-.3-.1-.5-.2-.4-.5.1-.3.3-.4.6-.3.9.1 1.7.5 2.4 1.1.9.6 1.3 1.6 1.3 2.8zM377.8 137.1c-1 0-1.7-.3-2.2-1-.2-.3-.3-.3-.5 0-1 1.1-2.4 1.3-3.5.5-.4-.3-.7-.6-.9-1-.1-.2-.1-.5.1-.6.3-.1.5 0 .6.3.1.2.2.3.3.5.9 1 2.5.7 3-.6.1-.3.1-.4-.2-.5-.5-.1-.8-.5-1.1-.9-.1-.1-.2-.3-.3-.5-.1-.4.1-.6.5-.6h3.5c.4 0 .5.2.4.6-.2.6-.7 1-1.2 1.3-.2.1-.5.1-.5.3-.1.3.1.5.3.7.8 1 2.2 1 3 0 .1-.1.2-.3.2-.4.1-.2.3-.2.5-.1s.3.3.2.5c-.2.4-.4.7-.7 1-.5.3-1.1.5-1.5.5zM387 130.1c1.1 0 1.9.8 1.9 1.9 0 1.1-.9 2-2 1.9-1.1 0-1.9-.9-1.9-2 0-1 .9-1.8 2-1.8zM362.9 134c-1.1 0-1.9-.8-1.9-1.9 0-1.1.8-1.9 1.9-2 1.1 0 2 .8 2 1.9 0 1.2-.9 2-2 2z"/></g><g fill="#b8e986"><path d="M320 248.9l-36-65h72z"/><path d="M310 176h20v19.9h-20z"/></g></svg>