<svg viewBox="0 0 1200 800" xmlns="http://www.w3.org/2000/svg"><g fill="none" fill-rule="evenodd"><path fill="#F9F2E7" d="M-1 0h1200v800H-1z"></path><g transform="translate(71.000000, 123.000000)"><path fill="#F2D694" d="M448 479h161v67H448z"></path><path stroke="#778F9B" stroke-width="1.5" stroke-linejoin="round" stroke-dasharray="1.5 9" d="M116 58.5h867m-867 168h867M116 396h867"></path><path fill="#86B8B1" d="M448 123h161v356H448z"></path><g transform="translate(845.000000, 361.000000)"><circle fill="#688A00" cx="45.619" cy="45.619" r="45.619"></circle><path d="M60.464 63.462v-8.207H45.676v-.222l3.549-2.958c8.632-7.19 10.832-10.924 10.832-15.305 0-7.062-5.786-11.683-14.862-11.683-8.817 0-14.547 4.899-14.529 12.866h9.76c-.018-3.18 1.923-4.954 4.77-4.954 2.827 0 4.842 1.756 4.842 4.658 0 2.68-1.719 4.418-4.51 6.729L31.406 56.068v7.394h29.058z" fill="#FFF" fill-rule="nonzero"></path></g><g transform="translate(845.000000, 0.000000)"><circle fill="#688A00" cx="45.619" cy="45.619" r="45.619"></circle><path fill="#FFF" fill-rule="nonzero" d="M52.644 63.462V25.605H43.18l-9.316 5.693v8.725l8.281-4.954h.222v28.393z"></path></g><path fill="#9D9D9D" d="M112 544h834v12H112z"></path><path stroke="#D3D3D3" stroke-width="11" stroke-linecap="square" stroke-dasharray="23" d="M417.414 123.5l501.115-5m-501.115 361l501.115-.5"></path><path fill="#D8D8D8" d="M0 46h100v23H0zm0 169h100v23H0zm0 170h100v23H0z"></path></g></g></svg>