<svg viewBox="0 0 1200 800" xmlns="http://www.w3.org/2000/svg" xmlns:xlink="http://www.w3.org/1999/xlink"><defs><path d="M1017.206 403.243C1035 299.07 988.021 73.755 848.047 58.818 663.277 39.1 596.92 256.828 575.965 171.79 557.09 95.2 423.698-1.177 326.265.024-48.7 4.645-18.949 387.084 27.638 458.617c45.749 70.246 103.963 125.6 509.907 111.62 235.664-8.115 444.587 38.355 479.661-166.994z" id="path-1"></path><path id="path-11" d="M251.427.21H.681l43.105 40.324h207.641V.21z"></path><path id="path-13" d="M77.256.611H.112v45.073z"></path><path id="path-15" d="M160.93.473H.154l16.867 20.268H160.93z"></path><path id="path-17" d="M.586.857h160.826v8.67H.586z"></path><path id="path-19" d="M188.902.045H.102l19.23 19.9h169.57z"></path><path id="path-21" d="M77.904.322H.545v48.406z"></path><path id="path-23" d="M97.493.232H.303v56.876z"></path><path id="path-25" d="M117.723.402H.216v132.524L117.723.402z"></path><path id="path-27" d="M11.359.087L.66 2.867l168.703 612.402 10.7-2.779z"></path><path d="M26.357 6.62s.794 8.062-1.846 13.712-7.875 18.398-7.73 20.61c.146 2.213-6.036 27.383-9.098 29.74C4.62 73.037.269 81.22.269 81.22c1.67 7.774 5.718 11.203 10.849 12.654l-1.127-5.11 5.026-9.01.368-5.633s12.726-17.035 15.5-22.483c2.774-5.448 2.431-9.684 3.642-13.889 1.21-4.206 8.287-18.979 10.045-31.647 1.759-12.666-18.215.517-18.215.517z" id="path-29"></path><path d="M37.874 12.165s6.956 24.64 3.75 33.316c-3.206 8.676-18.34 47.617-18.259 54.302.08 6.686 4.314 10.293 6.638 16.99 2.323 6.696 9.265 28.507 9.265 28.507l-9.21 2.313s-23.237-27.005-25.864-37.97C1.427 98.076-.618 54.416 1.6 41.582 3.818 28.748 20.167.749 20.167.749l17.707 11.416z" id="path-31"></path><path d="M51.638.733S1.05 46.724.395 61.69c-.655 14.964 15.838 33.202 25.571 42.759C35.7 114.006 36 117.653 36 117.653c2.61.993 5.652.237 9.11-2.185 0 0-11.546-19.125-13.581-29.659-2.036-10.533-9.247-19.286-9.247-19.286S84.1 39.49 89.12 31.746c2.602-4.015.552-14.464-3.024-20.86C82.777 4.945 78 2.893 78 2.893L51.638.734z" id="path-33"></path><path d="M17.43 42.611s.92-3.032 1.47-4.76c-2.588-.04-7.725-.38-11.067-2.325C3.21 32.837.74 29.391.74 29.391S4.914 3.68 17.66 1.4c12.744-2.28 38.886.97 49.2 20.135 10.315 19.166 16.211 37.112 21.115 41.869 6.707 6.508 6.413 12.62 6.413 12.62s-23.25-8.279-31.426-6.917c-8.176 1.362-18.07 13.98-22.93 20.897-5.079 7.226-13 9.183-13 9.183s6.885-13.583 4.672-22.066c-2.213-8.482-14.275-34.51-14.275-34.51z" id="path-35"></path></defs><g fill="none" fill-rule="evenodd"><path d="M1089.404 553.654c17.792-104.282-29.182-329.834-169.144-344.787-184.755-19.739-251.106 198.218-272.06 113.09-18.871-76.67-152.252-173.148-249.677-171.946C23.59 154.637 53.34 537.478 99.921 609.086c45.745 70.32 103.954 125.733 509.864 111.738 235.643-8.124 444.548 38.396 479.62-167.17z" fill="#D3EAF2"></path><g transform="translate(72.000000, 151.000000)"><mask id="mask-2" fill="#fff"><use xlink:href="#path-1"></use></mask><g mask="url(#mask-2)"><g transform="translate(-78.672945, 124.033537)"><path d="M974.085 257.41a4.988 4.988 0 0 0 4.845 6.191c28.104.013 143.085.013 178.853.013a5.004 5.004 0 0 0 4.571-2.963 5 5 0 0 0-.843-5.378c-7.476-8.281-19.55-19.608-28.9-18.56-14.212 1.593-20.45 19.746-31.55 13.495-11.103-6.252-8.841-54.498-30.952-52.61-12.503 1.067-10.331 30.8-21.754 31.986-9.732 1.012-9.752-13.95-22.104-19.538-11.904-5.388-39.212-5.715-52.166 47.364z" fill-opacity="0.3" fill="#F2F8FB"></path><path d="M661.339 342.614a4.993 4.993 0 0 0 4.845 6.191c28.104.013 143.085.013 178.853.013a5.007 5.007 0 0 0 4.571-2.963 4.998 4.998 0 0 0-.844-5.378c-7.475-8.281-19.55-19.607-28.9-18.56-14.211 1.592-20.448 19.746-31.55 13.495-11.102-6.251-8.84-54.498-30.951-52.61-12.504 1.066-10.331 30.8-21.754 31.986-9.733 1.011-9.752-13.949-22.104-19.538-11.904-5.388-39.213-5.715-52.166 47.364zM64.213 59.951a4.983 4.983 0 0 0 .912 4.276 4.994 4.994 0 0 0 3.933 1.915c28.104.013 143.085.013 178.854.013a5.006 5.006 0 0 0 4.57-2.963 5 5 0 0 0-.843-5.378c-7.476-8.28-19.55-19.607-28.9-18.56-14.212 1.592-20.449 19.746-31.55 13.495-11.103-6.251-8.84-54.498-30.952-52.61-12.504 1.066-10.33 30.8-21.754 31.987-9.733 1.01-9.752-13.95-22.104-19.54C104.475 7.2 77.167 6.874 64.213 59.952z" fill-opacity="0.7" fill="#F2F8FB"></path><g transform="translate(0.000000, 178.189024)"><g transform="translate(74.302226, 183.429878)"><path fill="#307A9F" d="M.311.069h198.18v82.798H.311z"></path><path fill="#4CA9D8" d="M.311 5.023h198.18v72.89H.311z"></path><path fill="#79B8D7" d="M136.615 5.023h61.877v72.89h-61.877z"></path><path fill="#307A9F" d="M166.086 5.023h2.934v72.89h-2.934zm-41.478 4.987h4.563v62.916h-4.563zm-11.734 0h4.563v62.916h-4.563zm-11.735 0h4.563v62.916h-4.563zm-11.733 0h4.563v62.916h-4.563zm-11.735 0h4.563v62.916h-4.563zm-11.734 0H70.5v62.916h-4.563zm-11.735 0h4.563v62.916h-4.563zm-11.734 0h4.563v62.916h-4.563zm-11.734 0h4.563v62.916h-4.563zM19 10.01h4.563v62.916H19zm-11.735 0h4.563v62.916H7.265z"></path><g transform="translate(176.577055, 2.620427)"><path d="M10.939 77.239V.457M4.528 77.239V.457" stroke="#FFF" stroke-width=".5"></path><path fill="#FFF" d="M.371 42.827h14.2v4.721H.371z"></path></g><g transform="translate(143.359589, 2.620427)"><path d="M10.582 77.239V.457m-6.41 76.782V.457" stroke="#FFF" stroke-width=".5"></path><path fill="#FFF" d="M.015 42.827h14.2v4.721H.015z"></path></g><path fill="#307A9F" d="M162.881 34.514h9.344v4.482h-9.344z"></path></g><g transform="translate(74.302226, 1.746951)"><path fill="#307A9F" d="M.326.85h228.067v95.284H.326z"></path><path fill="#4CA9D8" d="M.326 6.551h228.067v83.882H.326z"></path><path fill="#79B8D7" d="M157.184 6.551h71.209v83.882h-71.209z"></path><path fill="#307A9F" d="M143.368 12.29h5.252v72.404h-5.252zm-13.504 0h5.252v72.404h-5.252zm-13.504 0h5.252v72.404h-5.252zm-13.504 0h5.252v72.404h-5.252zm-13.504 0h5.252v72.404h-5.252zm-13.503 0h5.252v72.404h-5.252zm-13.505 0h5.252v72.404h-5.252zm-13.504 0h5.252v72.404H48.84zm-13.504 0h5.252v72.404h-5.252zm-13.503 0h5.252v72.404h-5.252zm-13.504 0h5.252v72.404H8.329z"></path></g><g transform="translate(0.000000, 96.955793)"><path fill="#E72E18" d="M.605.857h234.782V86.61H.605z"></path><path fill="#F75C56" d="M.605 5.988h234.782V81.48H.605z"></path><path fill="#F8726B" d="M162.082 5.988h73.305V81.48h-73.305z"></path><path fill="#E72E18" d="M196.996 5.988h3.476V81.48h-3.476zm-49.137 7.805h5.407v59.88h-5.407zm-13.903 0h5.407v59.88h-5.407zm-13.901 0h5.407v59.88h-5.407zm-13.902 0h5.407v59.88h-5.407zm-13.901 0h5.407v59.88h-5.407zm-13.902 0h5.407v59.88H78.35zm-13.901 0h5.407v59.88h-5.407zm-13.902 0h5.407v59.88h-5.407zm-13.901 0h5.407v59.88h-5.407zm-13.902 0h5.407v59.88h-5.407zm-13.901 0h5.407v59.88H8.843z"></path><g transform="translate(209.794521, 3.493902)"><path d="M12.54 80.001V.478M4.947 80.001V.478" stroke="#FFF" stroke-width=".5"></path><path fill="#FFF" d="M.069 44.361h16.824v4.89H.069z"></path></g><g transform="translate(169.583904, 3.493902)"><path d="M12.978 80.001V.478M5.383 80.001V.478" stroke="#FFF" stroke-width=".5"></path><path fill="#FFF" d="M.506 44.361H17.33v4.89H.506z"></path></g><path fill="#E72E18" d="M193.2 36.53h11.07v4.642H193.2z"></path></g></g><path d="M102.269 199.563a9.145 9.145 0 0 0 1.505 8.016 9.16 9.16 0 0 0 7.307 3.633c48.618.008 233.876.008 291.87.008a9.167 9.167 0 0 0 8.183-5.033 9.155 9.155 0 0 0-.807-9.568c-12.422-16.813-33.838-41.944-49.86-40.32-23.311 2.364-32.387 44.299-50.598 35.018-18.21-9.28-14.5-80.9-50.768-78.1-20.51 1.585-16.945 45.725-35.683 47.486-15.964 1.5-15.997-20.708-36.256-29.006-19.322-7.915-63.386-8.472-84.893 67.866z" fill="#FFF"></path><g transform="translate(301.579623, 233.217988)"><g transform="translate(53.322774, 130.147866)"><path fill="#307A9F" d="M.829.319h264.097v93.87H.829z"></path><path fill="#4CA9D8" d="M.829 5.934h264.097v82.637H.829z"></path><path fill="#79B8D7" d="M.829 5.934h82.458v82.637H.829z"></path><path fill="#307A9F" d="M40.103 5.934h3.909v82.637h-3.909zm53.102 5.654h6.081v71.33h-6.081zm15.637 0h6.081v71.33h-6.081zm15.637 0h6.081v71.33h-6.081zm15.638 0h6.081v71.33h-6.081zm15.637 0h6.081v71.33h-6.081zm15.638 0h6.081v71.33h-6.081zm15.636 0h6.081v71.33h-6.081zm15.638 0h6.081v71.33h-6.081zm15.637 0h6.081v71.33h-6.081zm15.638 0h6.081v71.33h-6.081zm15.637 0h6.081v71.33h-6.081z"></path><g transform="translate(10.489726, 3.493902)"><path d="M5.577 87.284V.234m8.543 87.05V.234" stroke="#FFF" stroke-width=".5"></path><path fill="#FFF" d="M.124 48.272h18.924v5.353H.124z"></path></g><g transform="translate(55.071062, 3.493902)"><path d="M5.736 87.284V.234m8.543 87.05V.234" stroke="#FFF" stroke-width=".5"></path><path fill="#FFF" d="M.283 48.272h18.924v5.353H.283z"></path></g><path fill="#307A9F" d="M35.831 39.368h12.452v5.081H35.831z"></path></g><path fill="#E72E18" d="M.761.21h366.053v131.447H.761z"></path><path fill="#F75C56" d="M.761 8.074h366.053v115.718H.761z"></path><path fill="#F8726B" d="M.761 8.074h114.291v115.718H.761z"></path><path fill="#E72E18" d="M55.198 8.074h5.419v115.718h-5.419zM128.8 20.039h8.428v91.788H128.8zm21.674 0h8.428v91.788h-8.428zm21.674 0h8.428v91.788h-8.428zm21.674 0h8.428v91.788h-8.428zm21.675 0h8.428v91.788h-8.428zm21.674 0h8.428v91.788h-8.428zm21.673 0h8.428v91.788h-8.428zm21.675 0h8.428v91.788h-8.428zm21.674 0h8.428v91.788h-8.428zm21.675 0h8.428v91.788h-8.428zm21.673 0h8.428v91.788h-8.428z"></path><g transform="translate(13.986301, 4.367378)"><path d="M7.795 122.515V.618m11.841 121.897V.618" stroke="#FFF" stroke-width=".5"></path><path fill="#FFF" d="M.338 67.885h26.23v7.495H.338z"></path></g><g transform="translate(76.050514, 4.367378)"><path d="M7.743 122.515V.618m11.841 121.897V.618" stroke="#FFF" stroke-width=".5"></path><path fill="#FFF" d="M.287 67.885h26.23v7.495H.287z"></path></g><path fill="#E72E18" d="M49.277 54.892h17.259v7.115H49.277z"></path></g><g transform="translate(750.015411, 178.189024)"><g transform="translate(29.720890, 183.429878)"><path fill="#307A9F" d="M.238.069h198.18v82.798H.238z"></path><path fill="#4CA9D8" d="M.238 5.023h198.18v72.89H.238z"></path><path fill="#79B8D7" d="M.238 5.023h61.877v72.89H.238z"></path><path fill="#307A9F" d="M29.712 5.023h2.934v72.89h-2.934zm39.844 4.987h4.563v62.916h-4.563zm11.739 0h4.563v62.916h-4.563zm11.731 0h4.563v62.916h-4.563zm11.731 0h4.563v62.916h-4.563zm11.74 0h4.563v62.916h-4.563zm11.731 0h4.563v62.916h-4.563zm11.74 0h4.563v62.916h-4.563zm11.731 0h4.563v62.916h-4.563zm11.731 0h4.563v62.916h-4.563zm11.74 0h4.563v62.916h-4.563zm11.731 0h4.563v62.916h-4.563z"></path><g transform="translate(6.993151, 2.620427)"><path d="M4.747 77.239V.457m6.407 76.782V.457" stroke="#FFF" stroke-width=".5"></path><path fill="#FFF" d="M.586 42.827h14.2v4.721H.586z"></path></g><g transform="translate(41.084760, 2.620427)"><path d="M4.23 77.239V.457m6.409 76.782V.457" stroke="#FFF" stroke-width=".5"></path><path fill="#FFF" d="M.07 42.827h14.2v4.721H.07z"></path></g><path fill="#307A9F" d="M26.504 34.514h9.344v4.482h-9.344z"></path></g><g transform="translate(0.000000, 1.746951)"><path fill="#307A9F" d="M.057.85h228.067v95.284H.057z"></path><path fill="#4CA9D8" d="M.057 6.551h228.067v83.882H.057z"></path><path fill="#79B8D7" d="M.057 6.551h71.209v83.882H.057z"></path><path fill="#307A9F" d="M79.827 12.29h5.252v72.404h-5.252zm13.505 0h5.252v72.404h-5.252zm13.506 0h5.252v72.404h-5.252zm13.505 0h5.252v72.404h-5.252zm13.506 0h5.252v72.404h-5.252zm13.505 0h5.252v72.404h-5.252zm13.497 0h5.252v72.404h-5.252zm13.506 0h5.252v72.404h-5.252zm13.505 0h5.252v72.404h-5.252zm13.506 0h5.252v72.404h-5.252zm13.505 0h5.252v72.404h-5.252z"></path></g><g transform="translate(67.309075, 96.955793)"><path fill="#E72E18" d="M.061.857h234.782V86.61H.061z"></path><path fill="#F75C56" d="M.061 5.988h234.782V81.48H.061z"></path><path fill="#F8726B" d="M.061 5.988h73.305V81.48H.061z"></path><path fill="#E72E18" d="M34.974 5.988h3.476V81.48h-3.476zm47.204 7.805h5.407v59.88h-5.407zm13.899 0h5.407v59.88h-5.407zm13.908 0h5.407v59.88h-5.407zm13.899 0h5.407v59.88h-5.407zm13.899 0h5.407v59.88h-5.407zm13.907 0h5.407v59.88h-5.407zm13.899 0h5.407v59.88h-5.407zm13.899 0h5.407v59.88h-5.407zm13.908 0h5.407v59.88h-5.407zm13.898 0h5.407v59.88h-5.407zm13.899 0h5.407v59.88h-5.407z"></path><g transform="translate(8.741438, 3.493902)"><path d="M4.896 80.001V.478m7.587 79.523V.478" stroke="#FFF" stroke-width=".5"></path><path fill="#FFF" d="M.017 44.361h16.824v4.89H.017z"></path></g><g transform="translate(48.077911, 3.493902)"><path d="M5.333 80.001V.478m7.587 79.523V.478" stroke="#FFF" stroke-width=".5"></path><path fill="#FFF" d="M.455 44.361h16.824v4.89H.455z"></path></g><path fill="#E72E18" d="M31.172 36.53h11.07v4.642h-11.07z"></path></g><g transform="translate(39.336473, 0.000000)"><mask id="mask-20" fill="#fff"><use xlink:href="#path-19"></use></mask></g><g transform="translate(67.309075, 97.829268)"><mask id="mask-22" fill="#fff"><use xlink:href="#path-21"></use></mask></g></g></g></g></g><path d="M372.787 89.184a5.274 5.274 0 0 1-.86 4.673 5.375 5.375 0 0 1-4.286 2.123c-30.748.02-155.03.02-195.26.02a5.379 5.379 0 0 1-4.996-3.35 5.3 5.3 0 0 1 1.283-5.842c8.255-7.735 20.68-17.407 30.414-16.458 15.595 1.518 22.439 18.827 34.622 12.867 12.183-5.961 9.7-51.965 33.965-50.166 13.721 1.018 11.336 29.37 23.872 30.501 10.68.964 10.702-13.301 24.256-18.63 12.986-5.108 42.674-5.446 56.99 44.262z" fill="#BDDDEB"></path><g transform="translate(754.000000, 251.000000)"><path fill="#307A9F" d="M.658.615h261.101v108.708H.658z"></path><path fill="#4CA9D8" d="M.658 7.118h261.101v95.7H.658z"></path><path fill="#79B8D7" d="M.658 7.118H82.18v95.7H.658z"></path><path fill="#307A9F" d="M39.486 7.118h3.865v95.7h-3.865zm52.504 6.548h6.012v82.605H91.99zm15.453 0h6.012v82.605h-6.012zm15.463 0h6.012v82.605h-6.012zm15.463 0h6.012v82.605h-6.012zm15.454 0h6.012v82.605h-6.012zm15.462 0h6.012v82.605h-6.012zm15.463 0h6.012v82.605h-6.012zm15.454 0h6.012v82.605h-6.012zm15.462 0h6.012v82.605h-6.012zm15.463 0h6.012v82.605h-6.012zm15.463 0h6.012v82.605h-6.012z"></path><g transform="translate(9.609539, 4.359149)"><path d="M6.117 101.015V.204m8.446 100.811V.204" stroke="#FFF" stroke-width=".5"></path><path fill="#FFF" d="M.723 55.835h18.71v6.199H.723z"></path></g><g transform="translate(54.162859, 4.359149)"><path d="M5.801 101.015V.204m8.439 100.811V.204" stroke="#FFF" stroke-width=".5"></path><path fill="#FFF" d="M.402 55.835h18.71v6.199H.402z"></path></g><path fill="#307A9F" d="M35.267 45.837h12.311v5.885H35.267z"></path></g><g transform="translate(781.000000, 359.000000)"><path fill="#E72E18" d="M.726.513h287.326v96.196H.726z"></path><path fill="#F75C56" d="M.726 6.268h287.326v84.685H.726z"></path><path fill="#F8726B" d="M.726 6.268h89.71v84.685H.726z"></path><path fill="#E72E18" d="M43.454 6.268h4.253v84.685h-4.253zm57.777 5.228h6.616v74.229h-6.616zm17.005 0h6.616v74.229h-6.616zm17.015 0h6.616v74.229h-6.616zm17.015 0h6.616v74.229h-6.616zm17.014 0h6.616v74.229h-6.616zm17.006 0h6.616v74.229h-6.616zm17.015 0h6.616v74.229h-6.616zm17.014 0h6.616v74.229h-6.616zm17.015 0h6.616v74.229h-6.616zm17.014 0h6.616v74.229h-6.616zm17.006 0h6.616v74.229h-6.616z"></path><g transform="translate(11.366367, 3.517747)"><path d="M5.91 89.696V.489m9.295 89.207V.489" stroke="#FFF" stroke-width=".5"></path><path fill="#FFF" d="M0 49.717h20.589v5.485H0z"></path></g><g transform="translate(59.454841, 3.517747)"><path d="M6.505 89.696V.489m9.294 89.207V.489" stroke="#FFF" stroke-width=".5"></path><path fill="#FFF" d="M.595 49.717h20.589v5.485H.595z"></path></g><path fill="#E72E18" d="M38.803 40.531H52.35v5.207H38.803z"></path></g><g transform="translate(266.000000, 81.000000)"><path fill="#E72E18" d="M.662.295H445.73v160.078H.662z"></path><path fill="#F75C56" d="M.662 9.873H445.73v140.923H.662z"></path><path fill="#F8726B" d="M.662 9.873h138.962v140.923H.662z"></path><path fill="#E72E18" d="M66.848 9.873h6.588v140.923h-6.588zm89.49 8.699h10.248v123.523h-10.248zm26.353 0h10.248v123.523h-10.248zm26.353 0h10.248v123.523h-10.248zm26.352 0h10.248v123.523h-10.248zm26.353 0h10.248v123.523h-10.248zm26.353 0h10.248v123.523h-10.248zm26.353 0h10.248v123.523h-10.248zm26.353 0h10.248v123.523h-10.248zm26.352 0h10.248v123.523H367.16zm26.353 0h10.248v123.523h-10.248zm26.353 0h10.248v123.523h-10.248z"></path><g transform="translate(16.595035, 5.244960)"><path d="M9.567 149.314V.865m14.397 148.449V.865" stroke="#FFF" stroke-width=".5"></path><path fill="#FFF" d="M.558 82.785h31.891v9.128H.558z"></path></g><g transform="translate(91.709402, 5.244960)"><path d="M9.851 149.314V.865m14.397 148.449V.865" stroke="#FFF" stroke-width=".5"></path><path fill="#FFF" d="M.842 82.785h31.891v9.128H.842z"></path></g><path fill="#E72E18" d="M59.65 66.888h20.985v8.666H59.65zm-14.016 93.485h376.355v135.365H45.634z"></path><path fill="#F75C56" d="M45.634 168.472h376.355v119.166H45.634z"></path><path fill="#F8726B" d="M52.011 168.472h117.508v119.166H52.011z"></path><path fill="#E72E18" d="M177.276 177.612h8.666V278.5h-8.666zm22.284 0h8.666V278.5h-8.666zm22.284 0h8.666V278.5h-8.666zm22.285 0h8.666V278.5h-8.666zm22.283 0h8.666V278.5h-8.666zm22.285 0h8.666V278.5h-8.666zm22.284 0h8.666V278.5h-8.666zm22.284 0h8.666V278.5h-8.666zm22.284 0h8.666V278.5h-8.666zm22.285 0h8.666V278.5h-8.666zm22.284 0h8.666V278.5h-8.666z"></path><g transform="translate(84.722019, 293.717742)"><path fill="#307A9F" d="M.673.739h335.372v134.753H.673z"></path><path fill="#4CA9D8" d="M.673 8.8h335.372v118.629H.673z"></path><path fill="#79B8D7" d="M.673 8.8h104.712v118.629H.673z"></path><path fill="#307A9F" d="M50.548 8.8h4.965v118.629h-4.965zm67.432 8.117h7.723v102.396h-7.723zm19.857 0h7.723v102.396h-7.723zm19.859 0h7.723v102.396h-7.723zm19.857 0h7.723v102.396h-7.723zm19.857 0h7.723v102.396h-7.723zm19.858 0h7.723v102.396h-7.723zm19.858 0h7.723v102.396h-7.723zm19.857 0h7.723v102.396h-7.723zm19.858 0h7.723v102.396h-7.723zm19.857 0h7.723v102.396h-7.723zm19.858 0h7.723v102.396h-7.723z"></path><g transform="translate(13.101343, 5.244960)"><path d="M6.853 125.352V.388m10.848 124.964V.388" stroke="#FFF" stroke-width=".5"></path><path fill="#FFF" d="M-.001 69.347H24.03v7.684H-.001z"></path></g><g transform="translate(69.873830, 5.244960)"><path d="M6.895 125.352V.388m10.848 124.964V.388" stroke="#FFF" stroke-width=".5"></path><path fill="#FFF" d="M.041 69.347h24.031v7.684H.041z"></path></g><path fill="#307A9F" d="M45.124 56.796h15.812v7.294H45.124z"></path></g><g transform="translate(84.722019, 293.717742)"><mask id="mask-24" fill="#fff"><use xlink:href="#path-23"></use></mask></g><g transform="translate(45.417990, 159.971270)"><mask id="mask-26" fill="#fff"><use xlink:href="#path-25"></use></mask></g></g><path fill="#205169" d="M612.735 137L602 139.779 771.265 752 782 749.221z"></path><path stroke="#255D83" stroke-width=".5" d="M530 155.5h82m-74 30h82m-74 30h82m-73 29h82m-74 30h82m-73 30h82"></path><path stroke="#132F42" stroke-width=".5" d="M594 304.5h60m-74 30h82m-74 30h82m-73 30h82m-74 30h82m-74 29h82"></path><path d="M663.858 474.93c.412-1.69-.072-3.61-1.432-5.758-1.763-2.784-2.961-3.83-4.938-4.172-1.233 2.72-1.638 4.375-4.726 4.166l-1.834-3.462c-.353.94-.666 1.027-1.115 1.932-.218.436.088 2.73-.148 3.167-2.159 3.999-5.517 5.943-8.198 8.402a5.232 5.232 0 0 0-1.15 5.424c.016.236.066.371.066.371l14.16-4.136 9.315-5.935zm43 29.934c.412-1.699-.072-3.633-1.432-5.795-1.763-2.803-3.387-3.725-5.364-4.069-1.233 2.737-1.212 4.273-4.3 4.063l-1.834-3.485c-.353.946-.665 1.034-1.116 1.945-.216.439.09 2.747-.147 3.187-2.159 4.025-5.517 5.983-8.197 8.458a5.292 5.292 0 0 0-1.152 5.458c.018.239.067.374.067.374l14.16-4.163 9.315-5.973z" fill="#081C2F"></path><path stroke="#132F42" stroke-width=".5" d="M622 483.5h82"></path><path stroke="#255D83" stroke-width=".5" d="M630 513.5h82"></path><path stroke="#132F42" stroke-width=".5" d="M665 513.5h47"></path><path stroke="#255D83" stroke-width=".5" d="M638 543.5h82m-73 30h82m-74 30h82m-74 29h82m-73 30h82m-74 30h82m-74 30h82"></path><path fill="#205169" d="M529.735 132L519 134.779 688.265 747 699 744.221z"></path><g transform="translate(519.000000, 132.000000)"><mask id="mask-28" fill="#fff"><use xlink:href="#path-27"></use></mask><path fill="#132F42" mask="url(#mask-28)" d="M81.302 249.561l-1.127 6.37-2.953 3.763-3.165 8.23-7.278-8.336 7.235-12.079 7.22-5.715z"></path></g><path d="M543.463 755.92a6.635 6.635 0 0 0 6.174 9.072c57.151.008 355.251.008 415.718.008a6.646 6.646 0 0 0 5.746-9.983c-7.197-12.35-22.348-31.576-46.334-29.918-34.18 2.361-49.18 29.288-75.88 20.016-26.7-9.272-21.26-80.835-74.437-78.035-30.071 1.582-24.845 45.686-52.319 47.445-23.406 1.5-23.454-20.691-53.159-28.982-28.645-7.995-94.375-8.475-125.509 70.378h0z" stroke="#BDDDEB" stroke-width=".5" fill="#BDDDEB"></path><path fill="#FF8B84" d="M613 267l-8 6.66 5.467 4.34z"></path><path d="M618.085 258s-14.829 23.845-6.596 32.867c8.232 9.024 6.596 3.404 6.596 3.404L636 275.823 618.085 258m-11.239 52.998s.787 8.04-1.83 13.673c-2.615 5.633-7.801 18.345-7.657 20.551.144 2.206-5.98 27.303-9.014 29.652-3.034 2.35-7.345 10.508-7.345 10.508 1.654 7.752 5.665 11.17 10.748 12.618l-1.116-5.095 4.98-8.985.364-5.616s12.607-16.985 15.355-22.418c2.749-5.432 2.41-9.656 3.608-13.848 1.2-4.194 8.21-18.924 9.952-31.555 1.742-12.63-18.045.515-18.045.515z" fill="#FFBFAE"></path><g transform="translate(581.000000, 304.000000)"><mask id="mask-30" fill="#fff"><use xlink:href="#path-29"></use></mask><path d="M33.58 10.908c-.067 6.075-2.566 10.975-3.374 16.837-.543 3.938 1.026 7.748.652 11.646-.349 3.646-2.649 7.056-4.247 10.26-2.743 5.505-5.522 10.83-6.724 16.932-.102.52-1.28 5.683-.339 5.876 6.203 1.27 12.301-5.255 15.763-9.527 8.412-10.374 11.084-24.49 13.617-37.19 1.81-9.082 3.307-16.505-6.538-19.945" fill="#FBA690" mask="url(#mask-30)"></path></g><path d="M621.591 270.596c-1.278-.878-.833-1.986-1.564-3.39-1.24-2.378-.436-5.231-2.302-7.42-2.633-3.085-9.125-4.159-9.684-8.717-.676-5.525 7.08-10.401 11.623-8.739 4.937 1.807 5.696 7.478 9.784 10.116 3.64 2.347 11.617 2.956 15.34 4.875 8.682 4.476 1.687 15.257-1.037 22.186-1.566 3.981-1.748 9.753-6.792 11.202-1.856.533-3.764.283-5.558-.338-5.553-1.922-10.815-6.33-8.742-11.976 3.174-1.763 5.03-2.741 4.997-5.344-.049-3.766-3.078-3.574-5.06-1.766l-1.005-.69z" fill="#0A2139"></path><path d="M702 497.864L697.172 489 691 490.196l5.038 8.947c3.598 1.995 4.354.059 5.962-1.279zm-44.72-28.524a2.106 2.106 0 0 0 1.52-1.193 2.176 2.176 0 0 0-.066-1.955c-1.434-2.68-3.354-6.192-3.354-6.192l-6.38 1.231 4.213 8.193c.192.373.58.598.993.574 1.02-.095 1.969-.423 3.075-.658z" fill="#FFBFAE"></path><path d="M699.384 357.428s6.988 24.667 3.768 33.351c-3.22 8.686-18.424 47.668-18.343 54.36.08 6.693 4.334 10.304 6.668 17.008 2.334 6.703 9.308 28.538 9.308 28.538L691.534 493s-23.344-27.033-25.983-38.01c-2.78-11.559-4.834-55.265-2.606-68.113C665.173 374.03 681.597 346 681.597 346l17.787 11.428z" fill="#413E78"></path><g transform="translate(661.000000, 346.000000)"><mask id="mask-32" fill="#fff"><use xlink:href="#path-31"></use></mask><path fill="#383569" mask="url(#mask-32)" d="M13.518 47.615L-.874 57.748l3.235 36.845 11.157-46.978z"></path></g><path d="M663.74 347s-50.072 46.248-50.721 61.297c-.65 15.048 15.676 33.387 25.31 42.998 9.635 9.61 9.932 13.278 9.932 13.278 2.583.998 5.594.238 9.017-2.198 0 0-11.428-19.232-13.443-29.824-2.015-10.592-9.153-19.394-9.153-19.394s61.19-27.184 66.158-34.971c2.576-4.037.546-14.545-2.993-20.977-3.285-5.972-8.014-8.036-8.014-8.036L663.739 347z" fill="#413E78"></path><g transform="translate(613.000000, 347.000000)"><mask id="mask-34" fill="#fff"><use xlink:href="#path-33"></use></mask><path d="M25.67 73.322c-2.508-1.92-5.247-2.53-8.163-2.124 0 0 3.426-11.93 15.699-14.253 12.272-2.322 14.11-7.126 14.11-7.126l4.192-6.689 10.808-5.238c10.949-8.16 15.82-17.886 11.22-30.049l13.852.603c6.646 4.445 9.141 14.961 3.734 24.602-4.618 8.234-18.968 16.163-27.951 20.769l-3.313 9.212-2.417 7.146-1.995 12.209-.924 26.374-18.549-28.083-10.302-7.353z" fill="#383569" mask="url(#mask-34)"></path></g><path d="M621.752 325.665s.923-3.019 1.476-4.74c-2.598-.039-7.754-.378-11.109-2.315-4.639-2.677-7.119-6.109-7.119-6.109s4.19-25.6 16.983-27.87c12.793-2.27 39.032.966 49.385 20.05 10.353 19.083 16.271 36.952 21.193 41.689 6.732 6.48 6.437 12.566 6.437 12.566s-23.337-8.243-31.544-6.887c-8.206 1.356-18.136 13.92-23.015 20.807-5.098 7.196-13.05 9.144-13.05 9.144s6.912-13.525 4.691-21.971c-2.222-8.447-14.328-34.364-14.328-34.364z" fill="#FFF"></path><g transform="translate(605.000000, 283.000000)"><mask id="mask-36" fill="#fff"><use xlink:href="#path-35"></use></mask><path d="M23.572 27.439c1.654 4.16.525 8.164 1.086 12.447.457 3.495 2.062 6.634 2.934 10.012.798 3.092.819 6.303 1.515 9.412 1.047 4.67 3.397 8.933 3.615 13.792.025.528.095 4.432-.427 4.536-4.125.82-8.276-4.843-9.993-7.734-1.507-2.54-2.57-5.309-3.469-8.115-2.244-7.006-6.845-17.21-1.965-24.167" fill="#EBFAFA" mask="url(#mask-36)"></path></g><path fill="#C0D8D8" d="M628.958 305.727l-2.789 8.648-1.948 6.011-.05.117-.068.108-.084.094-.098.08-.11.061-.118.042-.124.02v.001l-.186.015-.187.015-.188.013-.184.012h-.002l-.185.009-.185.009-.185.006-.184.006-.182.003-.182.003h-.363l-.179-.003-.18-.003-.178-.006-.178-.006-.177-.008-.178-.01-.175-.011-.176-.012-.174-.014-.174-.016-.121-.012-.052-.004-.173-.019-.171-.021-.171-.022-.17-.022-.171-.025-.168-.027-.169-.027-.167-.028-.167-.03-.167-.032-.165-.033-.165-.034-.164-.036-.164-.037-.163-.039-.138-.033-.024-.007-.161-.043-.16-.045-.16-.047-.158-.047-.159-.049-.158-.05-.156-.051-.156-.053-.155-.054-.155-.056-.093-.034-.061-.023-.153-.058-.153-.059-.152-.06-.151-.062-.151-.063-.149-.065-.149-.065-.149-.067-.147-.068-.147-.069-.146-.07-.111-.055-.036-.017-.144-.073-.144-.074-.145-.076-.142-.076-.142-.078-.142-.079-.141-.08-.14-.081-.14-.082-.139-.084-.138-.085-.138-.086-.136-.087-.137-.088-.135-.089-.135-.09-.134-.091-.134-.093-.133-.094-.133-.095-.131-.095-.131-.097-.131-.099-.129-.099-.129-.1-.082-.064-.047-.037-.128-.101-.127-.104-.127-.105-.126-.105-.126-.106-.124-.107-.125-.109-.123-.109-.123-.11-.123-.111-.122-.113-.121-.113-.121-.114-.12-.115-.119-.116-.118-.118-.119-.118-.117-.119-.118-.119-.117-.122-.115-.122-.116-.122-.114-.124-.021-.022-.094-.102-.114-.125-.113-.127-.113-.127-.112-.128-.111-.129-.112-.13-.11-.13-.11-.132-.11-.132-.109-.134-.108-.134-.108-.135-.107-.135-.107-.137-.1-.13-.006-.008-.105-.136.137-1.266 1.214.142.102.133.1.13.101.129.102.128.102.127.102.127.103.126.103.125.104.123.104.124.105.122.105.121.105.121.105.119.107.119.106.117.107.117.108.115.108.115.108.114.109.113.11.111.11.112.11.11.11.109.112.108.111.107.113.107.112.104.113.105.114.103.114.102.115.102.115.1.115.099.115.098.117.097.117.097.117.095.119.094.118.094.119.092.119.091.12.09.121.089.12.087.122.088.122.085.123.086.122.084.124.082.124.082.125.081.125.079.126.078.127.078.127.076.127.075.128.074.128.073.129.072.13.071.13.07.131.068.131.068.133.066.132.066.134.064.133.063.135.062.135.061.135.059.136.059.137.057.138.056.138.055.138.054.14.054.14.051.141.05.14.049.143.049.143.046.142.046.145.045.144.043.145.041.146.042.147.039.023.006.123.035.148.04.149.037.148.037.15.036.15.035.152.034.152.032.153.031.153.03.154.028.155.027.156.027.157.024.157.023.159.023.047.006.112.016.159.019.16.019.162.017.163.017.162.015.164.013.165.012.166.012.165.009.168.008.168.007.169.006.17.004.171.003.171.002h.173l.173-.002.174-.003h.002l.173-.004.066-.001 2.092-5.742 3.023-8.207.047-.127.567-.281.265.593-.042.134z"></path><path d="M1000.653 396.353a9.138 9.138 0 0 1-1.505 8.009 9.157 9.157 0 0 1-7.302 3.63C943.26 408 758.12 408 700.161 408a9.164 9.164 0 0 1-8.178-5.029 9.144 9.144 0 0 1 .808-9.559c12.413-16.8 33.816-41.91 49.828-40.286 23.296 2.362 32.366 44.26 50.565 34.989 18.199-9.273 14.49-80.834 50.736-78.035 20.497 1.583 16.934 45.686 35.66 47.445 15.954 1.5 15.986-20.69 36.233-28.981 19.31-7.907 63.346-8.464 84.84 67.81z" fill="#FFF"></path></g></svg>