<svg viewBox="0 0 819 686" xmlns="http://www.w3.org/2000/svg"><style>.sans-serif{font-family:-apple-system,BlinkMacSystemFont,'avenir next', avenir,'helvetica neue',helvetica,ubuntu,roboto,noto,'segoe ui',arial,sans-serif}</style><g fill="none" fill-rule="evenodd"><path fill="#FFF" d="M0 0h819v686H0z"></path><g transform="translate(151.000000, 55.000000)"><rect fill="#FDF2D0" width="167" height="63" rx="3"></rect><path d="M19.75 37l2.047-7.648h.086L23.93 37h1.742l2.851-10.664h-2.078l-1.703 7.914h-.101l-1.938-7.914h-1.71l-1.946 7.914h-.086l-1.711-7.914h-2.078L18.023 37h1.727zm11.531-9.648c.36 0 .651-.103.875-.309a1.02 1.02 0 0 0 .336-.785c0-.323-.112-.587-.336-.793-.224-.206-.515-.309-.875-.309-.354 0-.64.103-.86.309a1.04 1.04 0 0 0-.327.793c0 .318.11.58.332.785.221.206.506.309.855.309zm.93 9.648v-8.273h-1.844V37h1.844zm4.594 0v-4.61c0-.66.164-1.192.492-1.593.328-.401.789-.602 1.383-.602.49 0 .876.146 1.16.438.284.291.426.734.426 1.328V37h1.843v-5.563c0-.927-.247-1.631-.742-2.113s-1.172-.722-2.031-.722a3.37 3.37 0 0 0-.871.105c-.263.07-.482.159-.656.266a2.05 2.05 0 0 0-.461.382c-.133.149-.236.29-.309.422a2.38 2.38 0 0 0-.18.418h-.093v-1.468H34.96V37h1.844zm10.562.11c.646 0 1.185-.14 1.617-.419.433-.278.709-.615.828-1.011h.094V37h1.805V25.773h-1.852v4.196h-.086c-.15-.396-.43-.722-.836-.977-.406-.255-.919-.383-1.539-.383-.963 0-1.729.322-2.296.965-.568.643-.852 1.517-.852 2.621v1.328c0 1.11.283 1.985.848 2.625.565.641 1.321.961 2.27.961zm.617-1.54c-.573 0-1.024-.198-1.355-.593-.33-.396-.496-.959-.496-1.688v-.86c0-.723.163-1.283.488-1.679.326-.396.77-.594 1.332-.594.557 0 1.014.19 1.371.57.357.38.535.88.535 1.5v1.157c0 .682-.17 1.217-.511 1.605-.341.388-.796.582-1.364.582zm9.641 1.57c1.12 0 2.018-.334 2.695-1.003.677-.67 1.016-1.603 1.016-2.801v-.984c0-1.157-.341-2.075-1.023-2.754-.683-.68-1.579-1.02-2.688-1.02-1.104 0-2 .346-2.688 1.04-.687.692-1.03 1.606-1.03 2.741v.985c0 1.203.336 2.136 1.011 2.8.674.665 1.577.997 2.707.997zm0-1.507c-.599 0-1.059-.216-1.379-.649-.32-.432-.48-.992-.48-1.68v-.89c0-.682.164-1.242.492-1.68.328-.437.784-.656 1.367-.656s1.036.219 1.36.656c.322.433.484.993.484 1.68v.89c0 .688-.158 1.248-.473 1.68-.315.433-.772.649-1.371.649zM66.719 37l1.648-5.992h.055L70.102 37h1.89l2.172-8.273H72.32l-1.312 6.195h-.078l-1.672-6.195H67.53l-1.625 6.195h-.078l-1.289-6.195h-1.977L64.813 37h1.907zm11.86.14c1.072 0 1.917-.234 2.534-.703.617-.468.926-1.122.926-1.96 0-.375-.066-.7-.2-.973a1.733 1.733 0 0 0-.581-.676 3.386 3.386 0 0 0-.84-.422 6.696 6.696 0 0 0-1.082-.258l-.305-.054a13.47 13.47 0 0 1-.64-.121 1.92 1.92 0 0 1-.309-.086c-.07-.029-.159-.064-.266-.106a.792.792 0 0 1-.242-.136 2.67 2.67 0 0 1-.172-.172.586.586 0 0 1-.129-.22.875.875 0 0 1-.039-.269.91.91 0 0 1 .391-.777c.26-.19.607-.285 1.04-.285.447 0 .8.104 1.058.312.257.209.4.456.425.743h1.657c0-.74-.284-1.325-.852-1.754-.568-.43-1.315-.645-2.242-.645-.443 0-.854.05-1.234.149a3.42 3.42 0 0 0-1.028.449 2.1 2.1 0 0 0-.719.808 2.505 2.505 0 0 0-.261 1.164c0 .313.048.593.144.84.097.248.222.452.375.614.154.161.354.304.602.43.247.124.492.223.734.296.242.073.53.143.864.211l.226.04c.281.051.52.102.715.151.195.05.384.112.566.188a.907.907 0 0 1 .41.309c.092.13.137.286.137.468 0 .328-.13.593-.39.793-.26.2-.657.301-1.188.301-.948 0-1.469-.349-1.562-1.047h-1.797c0 .74.294 1.324.882 1.754.589.43 1.386.645 2.391.645zm13.39-.14V26.336h-1.875l-2.524 1.828v1.82l2.438-1.734h.086V37h1.875zm6.937.21c.85 0 1.577-.23 2.184-.694.607-.464 1.058-1.09 1.355-1.88.297-.788.446-1.701.446-2.738v-.453c0-1.62-.347-2.911-1.04-3.875-.692-.963-1.663-1.445-2.913-1.445-.829 0-1.546.223-2.153.668-.607.445-1.065 1.068-1.375 1.867-.31.8-.465 1.728-.465 2.785v.453c0 1.058.153 1.984.457 2.778.305.794.757 1.415 1.356 1.863.599.448 1.315.672 2.148.672zm.016-1.616c-.64 0-1.149-.324-1.524-.973-.375-.648-.562-1.561-.562-2.738v-.43c0-1.177.187-2.09.562-2.738.375-.649.883-.973 1.524-.973.64 0 1.148.324 1.523.973.375.648.563 1.561.563 2.738v.43c0 1.177-.188 2.09-.563 2.738-.375.649-.882.973-1.523.973zM110.742 37v-4.64h4.742V37h1.891V26.336h-1.89v4.375h-4.743v-4.375h-1.89V37h1.89zm12.625.14c1.12 0 2.018-.334 2.695-1.003.678-.67 1.016-1.603 1.016-2.801v-.984c0-1.157-.341-2.075-1.023-2.754-.683-.68-1.578-1.02-2.688-1.02-1.104 0-2 .346-2.687 1.04-.688.692-1.032 1.606-1.032 2.741v.985c0 1.203.338 2.136 1.012 2.8.675.665 1.577.997 2.707.997zm0-1.507c-.599 0-1.058-.216-1.379-.649-.32-.432-.48-.992-.48-1.68v-.89c0-.682.164-1.242.492-1.68.328-.437.784-.656 1.367-.656.584 0 1.037.219 1.36.656.322.433.484.993.484 1.68v.89c0 .688-.158 1.248-.473 1.68-.315.433-.772.649-1.37.649zM131.094 37v-5.11c0-.536.146-.958.437-1.265.292-.307.667-.46 1.125-.46.469 0 .844.142 1.125.429.281.286.422.692.422 1.218V37h1.79v-5.094c0-.526.15-.948.452-1.265a1.507 1.507 0 0 1 1.14-.477c.48 0 .852.138 1.118.414.266.276.399.675.399 1.195V37h1.843v-5.79c0-.817-.237-1.456-.71-1.917-.475-.461-1.13-.691-1.97-.691-.656 0-1.196.15-1.62.449-.425.3-.72.665-.887 1.097h-.078a2.06 2.06 0 0 0-.793-1.12c-.394-.285-.89-.426-1.489-.426-.286 0-.549.032-.789.097s-.438.147-.597.246c-.16.1-.3.218-.422.356a2.063 2.063 0 0 0-.281.39 2.197 2.197 0 0 0-.16.387h-.094v-1.351h-1.805V37h1.844zm15.68.14c.437 0 .842-.051 1.214-.156.373-.104.684-.24.934-.41.25-.17.467-.362.652-.578.185-.216.323-.43.414-.644.091-.214.147-.425.168-.633h-1.781c-.057.265-.232.487-.523.664-.292.177-.654.265-1.086.265-.573 0-1.028-.18-1.364-.543-.336-.362-.504-.832-.504-1.41v-.398h5.344v-.961c0-1.146-.33-2.059-.992-2.738-.661-.68-1.52-1.02-2.578-1.02-1.052 0-1.914.333-2.586 1-.672.667-1.008 1.586-1.008 2.758v1.047c0 1.187.33 2.11.988 2.77.66.658 1.562.988 2.707.988zm1.671-5.038h-3.547v-.094c0-.589.163-1.064.489-1.426.325-.362.756-.543 1.293-.543.53 0 .958.181 1.28.543.324.362.485.837.485 1.426v.094z" fill="#4A4A4A" fill-rule="nonzero"></path></g><g transform="translate(551.000000, 55.000000)"><rect fill="#FDF2D0" width="167" height="63" rx="3"></rect><path d="M28.91 37l2.047-7.648h.086L33.09 37h1.742l2.852-10.664h-2.079l-1.703 7.914h-.101l-1.938-7.914h-1.71l-1.946 7.914h-.086l-1.71-7.914h-2.079L27.184 37h1.726zm11.531-9.648c.36 0 .651-.103.875-.309a1.02 1.02 0 0 0 .336-.785c0-.323-.112-.587-.336-.793-.224-.206-.515-.309-.875-.309-.354 0-.64.103-.859.309a1.04 1.04 0 0 0-.328.793c0 .318.11.58.332.785.221.206.506.309.855.309zm.93 9.648v-8.273h-1.844V37h1.844zm4.594 0v-4.61c0-.66.164-1.192.492-1.593.328-.401.79-.602 1.383-.602.49 0 .876.146 1.16.438.284.291.426.734.426 1.328V37h1.844v-5.563c0-.927-.248-1.631-.743-2.113-.494-.482-1.172-.722-2.03-.722a3.37 3.37 0 0 0-.872.105c-.263.07-.482.159-.656.266a2.05 2.05 0 0 0-.461.382c-.133.149-.236.29-.309.422a2.38 2.38 0 0 0-.18.418h-.093v-1.468H44.12V37h1.844zm10.562.11c.646 0 1.185-.14 1.618-.419.432-.278.708-.615.828-1.011h.093V37h1.805V25.773H59.02v4.196h-.086c-.151-.396-.43-.722-.836-.977-.407-.255-.92-.383-1.54-.383-.963 0-1.729.322-2.296.965-.568.643-.852 1.517-.852 2.621v1.328c0 1.11.283 1.985.848 2.625.565.641 1.321.961 2.27.961zm.618-1.54c-.573 0-1.025-.198-1.356-.593-.33-.396-.496-.959-.496-1.688v-.86c0-.723.163-1.283.488-1.679.326-.396.77-.594 1.332-.594.558 0 1.015.19 1.371.57.357.38.536.88.536 1.5v1.157c0 .682-.171 1.217-.512 1.605-.341.388-.796.582-1.363.582zm9.64 1.57c1.12 0 2.018-.334 2.695-1.003.678-.67 1.016-1.603 1.016-2.801v-.984c0-1.157-.341-2.075-1.023-2.754-.683-.68-1.578-1.02-2.688-1.02-1.104 0-2 .346-2.687 1.04-.688.692-1.032 1.606-1.032 2.741v.985c0 1.203.338 2.136 1.012 2.8.675.665 1.577.997 2.707.997zm0-1.507c-.599 0-1.058-.216-1.379-.649-.32-.432-.48-.992-.48-1.68v-.89c0-.682.164-1.242.492-1.68.328-.437.784-.656 1.367-.656s1.037.219 1.36.656c.322.433.484.993.484 1.68v.89c0 .688-.158 1.248-.473 1.68-.315.433-.772.649-1.37.649zM75.88 37l1.648-5.992h.055L79.262 37h1.89l2.172-8.273H81.48l-1.312 6.195h-.078l-1.672-6.195h-1.727l-1.625 6.195h-.078L73.7 28.727h-1.976L73.973 37h1.906zm11.86.14c1.072 0 1.917-.234 2.534-.703.618-.468.926-1.122.926-1.96 0-.375-.066-.7-.199-.973a1.733 1.733 0 0 0-.582-.676 3.386 3.386 0 0 0-.84-.422 6.696 6.696 0 0 0-1.082-.258l-.305-.054a13.47 13.47 0 0 1-.64-.121 1.92 1.92 0 0 1-.309-.086l-.265-.106a.792.792 0 0 1-.243-.136 2.67 2.67 0 0 1-.171-.172.586.586 0 0 1-.13-.22.875.875 0 0 1-.038-.269c0-.328.13-.587.39-.777.26-.19.607-.285 1.04-.285.447 0 .8.104 1.058.312.258.209.4.456.426.743h1.656c0-.74-.284-1.325-.852-1.754-.567-.43-1.315-.645-2.242-.645-.443 0-.854.05-1.234.149a3.42 3.42 0 0 0-1.028.449 2.1 2.1 0 0 0-.718.808 2.505 2.505 0 0 0-.262 1.164c0 .313.048.593.144.84.097.248.222.452.375.614.154.161.355.304.602.43.247.124.492.223.734.296.243.073.53.143.864.211l.226.04c.281.051.52.102.715.151.195.05.384.112.566.188a.907.907 0 0 1 .41.309c.092.13.137.286.137.468 0 .328-.13.593-.39.793-.26.2-.657.301-1.188.301-.948 0-1.469-.349-1.562-1.047h-1.797c0 .74.294 1.324.883 1.754.588.43 1.385.645 2.39.645zm13.39-.14V26.336h-1.875l-2.524 1.828v1.82l2.438-1.734h.086V37h1.875zm6.937.21c.85 0 1.577-.23 2.184-.694.607-.464 1.059-1.09 1.355-1.88.297-.788.446-1.701.446-2.738v-.453c0-1.62-.347-2.911-1.04-3.875-.692-.963-1.663-1.445-2.913-1.445-.828 0-1.546.223-2.153.668-.606.445-1.065 1.068-1.375 1.867-.31.8-.465 1.728-.465 2.785v.453c0 1.058.153 1.984.457 2.778.305.794.757 1.415 1.356 1.863.599.448 1.315.672 2.148.672zm.016-1.616c-.64 0-1.148-.324-1.523-.973-.375-.648-.563-1.561-.563-2.738v-.43c0-1.177.188-2.09.563-2.738.375-.649.882-.973 1.523-.973.64 0 1.148.324 1.523.973.375.648.563 1.561.563 2.738v.43c0 1.177-.188 2.09-.563 2.738-.375.649-.882.973-1.523.973zM119.902 37v-3.68h2.25c1.089 0 1.953-.323 2.594-.968.64-.646.961-1.482.961-2.508s-.319-1.867-.957-2.524c-.638-.656-1.501-.984-2.59-.984h-4.148V37h1.89zm1.36-5.234h-1.367v-3.852h1.953c.609 0 1.083.168 1.422.504.338.336.507.811.507 1.426 0 .718-.208 1.218-.625 1.5-.416.281-1.047.422-1.89.422zM129.543 37v-4.828c0-.578.173-1.042.52-1.39.346-.35.852-.524 1.519-.524.37 0 .625.02.766.062v-1.664a3.274 3.274 0 0 0-.61-.054c-.323 0-.616.045-.879.136a1.805 1.805 0 0 0-.64.364 2.453 2.453 0 0 0-.395.453 1.99 1.99 0 0 0-.226.46h-.094v-1.288h-1.844V37h1.883zm7.797.14c1.12 0 2.018-.334 2.695-1.003.677-.67 1.016-1.603 1.016-2.801v-.984c0-1.157-.341-2.075-1.024-2.754-.682-.68-1.578-1.02-2.687-1.02-1.104 0-2 .346-2.688 1.04-.687.692-1.03 1.606-1.03 2.741v.985c0 1.203.336 2.136 1.01 2.8.675.665 1.578.997 2.708.997zm0-1.507c-.6 0-1.059-.216-1.38-.649-.32-.432-.48-.992-.48-1.68v-.89c0-.682.165-1.242.493-1.68.328-.437.784-.656 1.367-.656s1.036.219 1.36.656c.322.433.484.993.484 1.68v.89c0 .688-.158 1.248-.473 1.68-.315.433-.772.649-1.371.649z" fill="#4A4A4A" fill-rule="nonzero"></path></g><g transform="translate(351.000000, 204.000000)"><rect fill="#FDF2D0" width="167" height="63" rx="3"></rect><path d="M46.902 27.21c1.276 0 2.301-.356 3.075-1.07.773-.713 1.16-1.658 1.16-2.835v-6.97h-1.89v6.806c0 .744-.213 1.33-.638 1.754-.424.424-.993.636-1.707.636-.713 0-1.28-.21-1.703-.633-.422-.421-.633-1.007-.633-1.757v-6.805h-1.89v6.945c0 1.183.386 2.133 1.16 2.852.773.719 1.796 1.078 3.066 1.078zm8.625 2.58v-4.048h.094c.172.406.453.736.844.988.39.253.893.38 1.508.38.963 0 1.728-.322 2.293-.965.565-.644.847-1.54.847-2.692v-1.195c0-1.146-.28-2.04-.84-2.68-.56-.64-1.313-.96-2.261-.96-.625 0-1.149.132-1.57.398-.422.265-.712.606-.868 1.023h-.094v-1.32h-1.804v11.07h1.851zm1.883-4.22c-.562 0-1.017-.19-1.363-.57-.346-.38-.52-.883-.52-1.508v-1.156c0-.682.166-1.218.496-1.606.331-.388.786-.582 1.364-.582.578 0 1.03.201 1.355.602.326.401.488.98.488 1.734v.758c0 .766-.164 1.345-.492 1.738-.328.394-.77.59-1.328.59zm9.055 4.508c.536 0 1.028-.06 1.476-.18.448-.12.85-.302 1.207-.546a2.47 2.47 0 0 0 .836-1c.2-.422.301-.917.301-1.485v-8.14h-1.797v1.265h-.086c-.145-.385-.432-.71-.859-.976s-.932-.399-1.516-.399c-.932 0-1.692.322-2.28.965-.59.643-.884 1.53-.884 2.66v.985c0 1.13.295 2.015.883 2.656.589.64 1.352.96 2.29.96.562 0 1.049-.12 1.46-.363.412-.242.698-.55.86-.925h.093v1.21c0 .594-.161 1.053-.484 1.376-.323.323-.802.484-1.438.484-.463 0-.845-.085-1.144-.254-.3-.17-.478-.392-.535-.668h-1.813c.021.328.104.632.25.91.146.279.354.529.625.75.271.222.625.396 1.063.524.437.127.935.191 1.492.191zm.187-4.695c-.567 0-1.028-.206-1.382-.617-.355-.412-.532-.961-.532-1.649v-.68c0-.697.17-1.253.512-1.667.341-.415.803-.622 1.387-.622.547 0 .985.204 1.316.61.33.406.496.914.496 1.523v1.008c0 .604-.161 1.104-.484 1.5-.323.396-.76.594-1.313.594zM74.824 27v-4.828c0-.578.173-1.042.52-1.39.346-.35.853-.524 1.52-.524.37 0 .624.02.765.062v-1.664a3.274 3.274 0 0 0-.61-.054c-.322 0-.615.045-.878.136a1.805 1.805 0 0 0-.641.364 2.453 2.453 0 0 0-.395.453 1.99 1.99 0 0 0-.226.46h-.094v-1.288h-1.844V27h1.883zm6.774.125c.567 0 1.04-.11 1.418-.332.377-.221.665-.507.863-.855h.086V27h1.75v-5.578c0-.505-.085-.944-.254-1.317a2.101 2.101 0 0 0-.715-.878 3.264 3.264 0 0 0-1.035-.473 4.98 4.98 0 0 0-1.277-.152c-1.021 0-1.804.217-2.348.652-.544.435-.843 1.012-.895 1.73h1.75c.141-.599.623-.898 1.446-.898.468 0 .834.108 1.097.324.263.216.395.54.395.973v.758h-2.07c-.938 0-1.66.221-2.168.664-.508.442-.762 1.041-.762 1.797 0 .765.25 1.377.75 1.835.5.459 1.156.688 1.969.688zm.578-1.422c-.401 0-.742-.105-1.024-.316-.28-.211-.422-.512-.422-.903 0-.343.119-.62.356-.828.237-.208.59-.312 1.059-.312h1.734v.883c0 .421-.164.773-.492 1.054-.328.282-.732.422-1.211.422zm8.781 1.406c.646 0 1.185-.139 1.617-.418.433-.278.709-.615.828-1.011h.094V27h1.805V15.773h-1.852v4.196h-.086c-.15-.396-.43-.722-.836-.977-.406-.255-.919-.383-1.539-.383-.963 0-1.729.322-2.297.965-.567.643-.851 1.517-.851 2.621v1.328c0 1.11.282 1.985.847 2.625.566.641 1.322.961 2.27.961zm.617-1.539c-.573 0-1.025-.198-1.355-.593-.331-.396-.496-.959-.496-1.688v-.86c0-.723.162-1.283.488-1.679.325-.396.77-.594 1.332-.594.557 0 1.014.19 1.371.57.357.38.535.88.535 1.5v1.157c0 .682-.17 1.217-.511 1.605-.342.388-.796.582-1.364.582zm9.617 1.57a4.46 4.46 0 0 0 1.215-.156c.373-.104.684-.24.934-.41.25-.17.467-.362.652-.578.185-.216.323-.43.414-.644.091-.214.147-.425.168-.633h-1.781c-.057.265-.232.487-.523.664-.292.177-.654.265-1.086.265-.573 0-1.028-.18-1.364-.543-.336-.362-.504-.832-.504-1.41v-.398h5.344v-.961c0-1.146-.33-2.059-.992-2.738-.661-.68-1.52-1.02-2.578-1.02-1.052 0-1.914.333-2.586 1-.672.667-1.008 1.586-1.008 2.758v1.047c0 1.187.33 2.11.988 2.77.66.658 1.562.988 2.707.988zm1.672-5.038h-3.547v-.094c0-.589.163-1.064.489-1.426.325-.362.756-.543 1.293-.543.53 0 .958.181 1.28.543.324.362.485.837.485 1.426v.094zm10.68 4.953c.49 0 .87-.029 1.14-.086v-1.43c-.187.02-.416.031-.687.031-.463 0-.788-.08-.973-.238-.184-.159-.277-.45-.277-.871v-4.18h1.852v-1.484h-1.852v-2.063h-1.797v2.063h-1.289v1.484h1.258v4.383c0 .865.19 1.48.57 1.844.38.364 1.065.547 2.055.547zm6.437.086c1.12 0 2.019-.335 2.696-1.004.677-.67 1.015-1.603 1.015-2.801v-.984c0-1.157-.34-2.075-1.023-2.754-.682-.68-1.578-1.02-2.688-1.02-1.104 0-2 .346-2.687 1.04-.688.692-1.031 1.606-1.031 2.741v.985c0 1.203.337 2.136 1.011 2.8.675.665 1.577.997 2.707.997zm0-1.508c-.598 0-1.058-.216-1.378-.649-.32-.432-.48-.992-.48-1.68v-.89c0-.682.163-1.242.491-1.68.328-.437.784-.656 1.367-.656.584 0 1.037.219 1.36.656.323.433.484.993.484 1.68v.89c0 .688-.157 1.248-.472 1.68-.316.433-.773.649-1.372.649zM39.422 46l2.047-7.648h.086L43.602 46h1.742l2.851-10.664h-2.078l-1.703 7.914h-.102l-1.937-7.914h-1.71l-1.946 7.914h-.086l-1.711-7.914h-2.078L37.695 46h1.727zm11.531-9.648c.36 0 .651-.103.875-.309a1.02 1.02 0 0 0 .336-.785c0-.323-.112-.587-.336-.793-.224-.206-.516-.309-.875-.309-.354 0-.64.103-.86.309a1.04 1.04 0 0 0-.327.793c0 .318.11.58.332.785.221.206.506.309.855.309zm.93 9.648v-8.273h-1.844V46h1.844zm4.594 0v-4.61c0-.66.164-1.192.492-1.593.328-.401.789-.602 1.383-.602.49 0 .876.146 1.16.438.284.291.425.734.425 1.328V46h1.844v-5.563c0-.927-.247-1.631-.742-2.113s-1.172-.722-2.031-.722a3.37 3.37 0 0 0-.871.105c-.263.07-.482.159-.657.266a2.05 2.05 0 0 0-.46.382c-.133.149-.236.29-.31.422a2.38 2.38 0 0 0-.179.418h-.093v-1.468h-1.805V46h1.844zm10.562.11c.646 0 1.185-.14 1.617-.419.433-.278.709-.615.828-1.011h.094V46h1.805V34.773H69.53v4.196h-.086c-.15-.396-.43-.722-.836-.977-.406-.255-.919-.383-1.539-.383-.963 0-1.729.322-2.297.965-.567.643-.851 1.517-.851 2.621v1.328c0 1.11.282 1.985.848 2.625.565.641 1.321.961 2.27.961zm.617-1.54c-.573 0-1.024-.198-1.355-.593-.33-.396-.496-.959-.496-1.688v-.86c0-.723.162-1.283.488-1.679.325-.396.77-.594 1.332-.594.557 0 1.014.19 1.371.57.357.38.535.88.535 1.5v1.157c0 .682-.17 1.217-.511 1.605-.342.388-.796.582-1.364.582zm9.64 1.57c1.12 0 2.02-.334 2.696-1.003.677-.67 1.016-1.603 1.016-2.801v-.984c0-1.157-.341-2.075-1.024-2.754-.682-.68-1.578-1.02-2.687-1.02-1.104 0-2 .346-2.688 1.04-.687.692-1.03 1.606-1.03 2.741v.985c0 1.203.336 2.136 1.01 2.8.675.665 1.578.997 2.708.997zm0-1.507c-.598 0-1.058-.216-1.378-.649-.32-.432-.48-.992-.48-1.68v-.89c0-.682.164-1.242.492-1.68.328-.437.784-.656 1.367-.656s1.036.219 1.36.656c.322.433.484.993.484 1.68v.89c0 .688-.158 1.248-.473 1.68-.315.433-.772.649-1.371.649zM86.392 46l1.648-5.992h.055L89.774 46h1.89l2.172-8.273h-1.844l-1.312 6.195h-.078l-1.672-6.195h-1.727l-1.625 6.195H85.5l-1.29-6.195h-1.976L84.484 46h1.907zm11.859.14c1.073 0 1.918-.234 2.535-.703.617-.468.926-1.122.926-1.96 0-.375-.066-.7-.2-.973a1.733 1.733 0 0 0-.581-.676 3.386 3.386 0 0 0-.84-.422 6.696 6.696 0 0 0-1.082-.258l-.305-.054a13.47 13.47 0 0 1-.64-.121 1.92 1.92 0 0 1-.31-.086l-.265-.106a.792.792 0 0 1-.242-.136 2.67 2.67 0 0 1-.172-.172.586.586 0 0 1-.129-.22.875.875 0 0 1-.039-.269c0-.328.13-.587.39-.777.261-.19.608-.285 1.04-.285.448 0 .8.104 1.059.312.257.209.4.456.425.743h1.657c0-.74-.284-1.325-.852-1.754-.568-.43-1.315-.645-2.242-.645-.443 0-.854.05-1.235.149a3.42 3.42 0 0 0-1.027.449 2.1 2.1 0 0 0-.719.808 2.505 2.505 0 0 0-.261 1.164c0 .313.048.593.144.84.097.248.222.452.375.614.154.161.354.304.602.43.247.124.492.223.734.296.242.073.53.143.863.211l.227.04c.281.051.52.102.715.151.195.05.384.112.566.188a.907.907 0 0 1 .41.309c.091.13.137.286.137.468 0 .328-.13.593-.39.793-.261.2-.657.301-1.188.301-.948 0-1.469-.349-1.563-1.047h-1.796c0 .74.294 1.324.882 1.754.589.43 1.386.645 2.391.645zm11.14-.14v-3.68h2.25c1.09 0 1.954-.323 2.594-.968.641-.646.961-1.482.961-2.508s-.319-1.867-.957-2.524c-.638-.656-1.501-.984-2.59-.984H107.5V46h1.89zm1.36-5.234h-1.367v-3.852h1.953c.61 0 1.083.168 1.422.504.338.336.508.811.508 1.426 0 .718-.209 1.218-.625 1.5-.417.281-1.047.422-1.891.422zm8.28 5.234v-4.828c0-.578.173-1.042.52-1.39.346-.35.853-.524 1.52-.524.37 0 .624.02.765.062v-1.664a3.274 3.274 0 0 0-.61-.054c-.322 0-.615.045-.878.136a1.805 1.805 0 0 0-.641.364 2.453 2.453 0 0 0-.394.453 1.99 1.99 0 0 0-.227.46h-.094v-1.288h-1.844V46h1.883zm7.797.14c1.12 0 2.018-.334 2.695-1.003.678-.67 1.016-1.603 1.016-2.801v-.984c0-1.157-.341-2.075-1.023-2.754-.683-.68-1.578-1.02-2.688-1.02-1.104 0-2 .346-2.687 1.04-.688.692-1.032 1.606-1.032 2.741v.985c0 1.203.338 2.136 1.012 2.8.675.665 1.577.997 2.707.997zm0-1.507c-.599 0-1.058-.216-1.379-.649-.32-.432-.48-.992-.48-1.68v-.89c0-.682.164-1.242.492-1.68.328-.437.784-.656 1.367-.656s1.037.219 1.36.656c.322.433.484.993.484 1.68v.89c0 .688-.158 1.248-.473 1.68-.315.433-.772.649-1.37.649z" fill="#4A4A4A" fill-rule="nonzero"></path></g><g transform="translate(267.000000, 225.000000)"><path stroke="#455A64" stroke-width="2" d="M0 10.5h76"></path><path fill="#455A64" d="M66 20.5l18-9.999L66 .5v20"></path></g><g transform="translate(559.000000, 411.000000) scale(-1, 1) translate(-559.000000, -411.000000) translate(517.000000, 401.000000)"><path stroke="#455A64" stroke-width="2" d="M0 10.5h76"></path><path fill="#455A64" d="M66 20.5l18-9.999L66 .5v20"></path></g><path d="M44.102 230c.843 0 1.576-.132 2.199-.395.622-.263 1.116-.638 1.48-1.125a4.981 4.981 0 0 0 .809-1.68c.174-.632.262-1.35.262-2.152 0-.807-.088-1.527-.262-2.16a4.775 4.775 0 0 0-.817-1.668c-.37-.479-.863-.846-1.48-1.101s-1.348-.383-2.191-.383h-3.75V230h3.75zm-.22-1.617h-1.64v-7.43h1.64c2.011 0 3.016 1.242 3.016 3.727 0 1.291-.25 2.231-.75 2.82s-1.255.883-2.265.883zm10.509 1.758c1.12 0 2.018-.335 2.695-1.004.677-.67 1.016-1.603 1.016-2.801v-.984c0-1.157-.342-2.075-1.024-2.754-.682-.68-1.578-1.02-2.687-1.02-1.105 0-2 .346-2.688 1.04-.687.692-1.031 1.606-1.031 2.741v.985c0 1.203.337 2.136 1.012 2.8.674.665 1.576.997 2.707.997zm0-1.508c-.6 0-1.059-.216-1.38-.649-.32-.432-.48-.992-.48-1.68v-.89c0-.682.164-1.242.492-1.68.329-.437.784-.656 1.368-.656.583 0 1.036.219 1.359.656.323.433.484.993.484 1.68v.89c0 .688-.157 1.248-.472 1.68-.315.433-.772.649-1.371.649zm10.257 4.328c.386 0 .736-.046 1.051-.137.315-.09.58-.208.797-.351a2.51 2.51 0 0 0 .594-.563 4.12 4.12 0 0 0 .441-.695c.115-.232.232-.507.352-.824l.21-.563c.011-.047.938-2.747 2.782-8.101h-1.96l-1.923 6.593h-.078l-1.898-6.593h-2.04l2.915 8.312-.086.328c-.094.39-.256.681-.485.871-.229.19-.583.285-1.062.285-.25 0-.469-.015-.656-.046v1.406c.291.052.64.078 1.046.078zm11.141-2.82c1.12 0 2.018-.335 2.695-1.004.677-.67 1.016-1.603 1.016-2.801v-.984c0-1.157-.341-2.075-1.023-2.754-.683-.68-1.579-1.02-2.688-1.02-1.104 0-2 .346-2.687 1.04-.688.692-1.032 1.606-1.032 2.741v.985c0 1.203.338 2.136 1.012 2.8.675.665 1.577.997 2.707.997zm0-1.508c-.599 0-1.059-.216-1.379-.649-.32-.432-.48-.992-.48-1.68v-.89c0-.682.164-1.242.492-1.68.328-.437.784-.656 1.367-.656s1.037.219 1.36.656c.322.433.484.993.484 1.68v.89c0 .688-.158 1.248-.473 1.68-.315.433-.772.649-1.37.649zm8.61 1.492c.66 0 1.199-.152 1.613-.457.414-.305.689-.652.824-1.043h.102V230h1.812v-8.273h-1.852v5.046c0 .506-.177.926-.53 1.262-.355.336-.792.504-1.313.504-.224 0-.426-.027-.606-.082a1.535 1.535 0 0 1-.5-.262 1.164 1.164 0 0 1-.36-.511 2.215 2.215 0 0 1-.128-.801v-5.156h-1.844v5.632c0 .938.248 1.633.742 2.086.495.453 1.175.68 2.04.68zm13.21 0c.662 0 1.2-.152 1.614-.457.414-.305.688-.652.824-1.043h.101V230h1.813v-8.273h-1.852v5.046c0 .506-.177.926-.53 1.262-.355.336-.793.504-1.313.504-.224 0-.426-.027-.606-.082a1.535 1.535 0 0 1-.5-.262 1.164 1.164 0 0 1-.36-.511 2.215 2.215 0 0 1-.128-.801v-5.156h-1.844v5.632c0 .938.248 1.633.742 2.086.495.453 1.175.68 2.04.68zm9.672.016c1.073 0 1.918-.235 2.535-.703.618-.47.926-1.123.926-1.961 0-.375-.066-.7-.199-.973a1.733 1.733 0 0 0-.582-.676 3.386 3.386 0 0 0-.84-.422 6.696 6.696 0 0 0-1.082-.258l-.305-.054a13.471 13.471 0 0 1-.64-.121 1.92 1.92 0 0 1-.309-.086 19.92 19.92 0 0 0-.265-.106.792.792 0 0 1-.243-.136 2.67 2.67 0 0 1-.172-.172.586.586 0 0 1-.128-.22.875.875 0 0 1-.04-.269.91.91 0 0 1 .391-.777c.26-.19.607-.285 1.04-.285.447 0 .8.104 1.058.312.258.209.4.456.426.743h1.656c0-.74-.284-1.325-.852-1.754-.567-.43-1.315-.645-2.242-.645-.443 0-.854.05-1.234.149a3.42 3.42 0 0 0-1.028.449 2.1 2.1 0 0 0-.718.808 2.505 2.505 0 0 0-.262 1.164c0 .313.048.593.144.84.097.248.222.452.375.614.154.161.355.304.602.43.247.124.492.223.734.296.243.073.53.143.864.211a11.504 11.504 0 0 1 .941.191c.195.05.384.112.566.188a.907.907 0 0 1 .41.309c.092.13.137.286.137.468 0 .328-.13.593-.39.793-.26.2-.657.301-1.188.301-.948 0-1.469-.349-1.562-1.047h-1.797c0 .74.294 1.324.883 1.754.588.43 1.385.645 2.39.645zm8.875 0a4.46 4.46 0 0 0 1.215-.157c.372-.104.684-.24.934-.41.25-.17.467-.362.652-.578.185-.216.323-.43.414-.644.091-.214.147-.425.168-.633h-1.781c-.057.265-.232.487-.524.664-.291.177-.653.265-1.086.265-.572 0-1.027-.18-1.363-.543-.336-.362-.504-.832-.504-1.41v-.398h5.344v-.961c0-1.146-.33-2.059-.992-2.738-.662-.68-1.521-1.02-2.578-1.02-1.052 0-1.914.333-2.586 1-.672.667-1.008 1.586-1.008 2.758v1.047c0 1.187.33 2.11.988 2.77.66.658 1.561.988 2.707.988zm1.672-5.04h-3.547v-.093c0-.589.163-1.064.489-1.426.325-.362.756-.543 1.293-.543.53 0 .958.181 1.28.543.324.362.485.837.485 1.426v.094zM128.914 230l2.047-7.648h.086l2.047 7.648h1.742l2.851-10.664h-2.078l-1.703 7.914h-.101l-1.938-7.914h-1.71l-1.946 7.914h-.086l-1.71-7.914h-2.08L127.189 230h1.726zm11.531-9.648c.36 0 .651-.103.875-.309a1.02 1.02 0 0 0 .336-.785c0-.323-.112-.587-.336-.793-.224-.206-.515-.309-.875-.309-.354 0-.64.103-.86.309a1.04 1.04 0 0 0-.327.793c0 .318.11.58.332.785.221.206.506.309.855.309zm.93 9.648v-8.273h-1.844V230h1.844zm4.594 0v-4.61c0-.66.164-1.192.492-1.593.328-.401.789-.602 1.383-.602.49 0 .876.146 1.16.438.284.291.426.734.426 1.328V230h1.843v-5.563c0-.927-.247-1.631-.742-2.113s-1.172-.722-2.031-.722a3.37 3.37 0 0 0-.871.105c-.263.07-.482.159-.656.266a2.05 2.05 0 0 0-.461.382c-.133.149-.236.29-.309.422a2.379 2.379 0 0 0-.18.418h-.093v-1.468h-1.805V230h1.844zm10.562.11c.646 0 1.185-.14 1.617-.419.433-.278.709-.615.829-1.011h.093V230h1.805v-11.227h-1.852v4.196h-.085c-.152-.396-.43-.722-.836-.977-.407-.255-.92-.383-1.54-.383-.963 0-1.729.322-2.296.965-.568.643-.852 1.517-.852 2.621v1.328c0 1.11.283 1.985.848 2.625.565.641 1.321.961 2.27.961zm.617-1.54c-.572 0-1.024-.198-1.355-.593-.33-.396-.496-.959-.496-1.688v-.86c0-.723.163-1.283.488-1.679.326-.396.77-.594 1.332-.594.557 0 1.015.19 1.371.57.357.38.535.88.535 1.5v1.157c0 .682-.17 1.217-.511 1.605-.341.388-.796.582-1.364.582zm9.641 1.57c1.12 0 2.018-.334 2.695-1.003.677-.67 1.016-1.603 1.016-2.801v-.984c0-1.157-.341-2.075-1.023-2.754-.683-.68-1.579-1.02-2.688-1.02-1.104 0-2 .346-2.687 1.04-.688.692-1.032 1.606-1.032 2.741v.985c0 1.203.338 2.136 1.012 2.8.675.665 1.577.997 2.707.997zm0-1.507c-.599 0-1.059-.216-1.379-.649-.32-.432-.48-.992-.48-1.68v-.89c0-.682.164-1.242.492-1.68.328-.437.784-.656 1.367-.656s1.037.219 1.36.656c.322.433.484.993.484 1.68v.89c0 .688-.158 1.248-.473 1.68-.315.433-.772.649-1.37.649zm9.094 1.367l1.648-5.992h.055l1.68 5.992h1.89l2.172-8.273h-1.844l-1.312 6.195h-.078l-1.672-6.195h-1.727l-1.625 6.195h-.078l-1.289-6.195h-1.976l2.25 8.273h1.906zm11.86.14c1.072 0 1.917-.234 2.534-.702.618-.47.926-1.123.926-1.961 0-.375-.066-.7-.2-.973a1.733 1.733 0 0 0-.581-.676 3.386 3.386 0 0 0-.84-.422 6.695 6.695 0 0 0-1.082-.258l-.305-.054a13.471 13.471 0 0 1-.64-.121 1.92 1.92 0 0 1-.309-.086c-.07-.029-.159-.064-.266-.106a.792.792 0 0 1-.242-.136 2.67 2.67 0 0 1-.172-.172.586.586 0 0 1-.129-.22.875.875 0 0 1-.039-.269.91.91 0 0 1 .391-.777c.26-.19.607-.285 1.04-.285.447 0 .8.104 1.058.312.258.209.4.456.425.743h1.657c0-.74-.284-1.325-.852-1.754-.568-.43-1.315-.645-2.242-.645-.443 0-.854.05-1.234.149a3.42 3.42 0 0 0-1.028.449 2.1 2.1 0 0 0-.718.808 2.505 2.505 0 0 0-.262 1.164c0 .313.048.593.144.84.097.248.222.452.375.614.154.161.355.304.602.43.247.124.492.223.734.296.242.073.53.143.864.211a11.505 11.505 0 0 1 .941.191c.195.05.384.112.566.188a.907.907 0 0 1 .41.309c.092.13.137.286.137.468 0 .328-.13.593-.39.793-.26.2-.657.301-1.188.301-.948 0-1.469-.349-1.562-1.047h-1.797c0 .74.294 1.324.883 1.754.588.43 1.385.645 2.39.645zm-112.114 19c1.042 0 1.86-.248 2.453-.745.594-.498.904-1.155.93-1.973h-1.735c-.14.766-.672 1.148-1.593 1.148-.563 0-1.004-.192-1.325-.578-.32-.385-.48-.92-.48-1.601v-1.078c0-.678.156-1.214.469-1.61.312-.396.755-.594 1.328-.594.26 0 .492.04.695.121.203.081.363.188.48.32a1.553 1.553 0 0 1 .387.833h1.727a2.775 2.775 0 0 0-.871-1.96 2.91 2.91 0 0 0-1.043-.618 4.173 4.173 0 0 0-1.414-.227c-1.11 0-1.989.337-2.637 1.012-.648.674-.973 1.571-.973 2.691v1.11c0 1.172.323 2.09.97 2.754.645.664 1.523.996 2.632.996zm8.766 0c1.12 0 2.018-.334 2.695-1.003.677-.67 1.015-1.603 1.015-2.801v-.984c0-1.157-.34-2.075-1.023-2.754-.682-.68-1.578-1.02-2.687-1.02-1.105 0-2 .346-2.688 1.04-.687.692-1.031 1.606-1.031 2.741v.985c0 1.203.337 2.136 1.011 2.8.675.665 1.577.997 2.708.997zm0-1.507c-.6 0-1.06-.216-1.38-.649-.32-.432-.48-.992-.48-1.68v-.89c0-.682.164-1.242.492-1.68.328-.437.784-.656 1.368-.656.583 0 1.036.219 1.359.656.323.433.484.993.484 1.68v.89c0 .688-.157 1.248-.472 1.68-.315.433-.773.649-1.371.649zM92.12 249v-4.61c0-.66.164-1.192.492-1.593.328-.401.79-.602 1.383-.602.49 0 .876.146 1.16.438.284.291.426.734.426 1.328V249h1.844v-5.563c0-.927-.248-1.631-.742-2.113-.495-.482-1.172-.722-2.032-.722a3.37 3.37 0 0 0-.87.105 2.46 2.46 0 0 0-.657.266 2.05 2.05 0 0 0-.46.382c-.134.149-.237.29-.31.422a2.38 2.38 0 0 0-.18.418h-.093v-1.468h-1.805V249h1.844zm10.945.055c.49 0 .87-.029 1.141-.086v-1.43c-.187.02-.417.031-.687.031-.464 0-.788-.08-.973-.238-.185-.159-.277-.45-.277-.871v-4.18h1.851v-1.484h-1.851v-2.063h-1.797v2.063h-1.29v1.484h1.258v4.383c0 .865.19 1.48.57 1.844.38.364 1.066.547 2.055.547zm5.438.07c.568 0 1.04-.11 1.418-.332a2.31 2.31 0 0 0 .863-.856h.086V249h1.75v-5.578c0-.505-.085-.944-.254-1.317a2.101 2.101 0 0 0-.715-.878 3.264 3.264 0 0 0-1.035-.473 4.98 4.98 0 0 0-1.277-.152c-1.021 0-1.804.217-2.348.652-.544.435-.842 1.012-.894 1.73h1.75c.14-.599.622-.898 1.445-.898.469 0 .835.108 1.098.324.263.216.394.54.394.973v.758h-2.07c-.938 0-1.66.221-2.168.664-.508.442-.762 1.041-.762 1.797 0 .765.25 1.377.75 1.835.5.459 1.156.688 1.969.688zm.578-1.422c-.401 0-.742-.105-1.023-.316-.282-.211-.422-.512-.422-.903 0-.343.118-.62.355-.828.237-.208.59-.312 1.059-.312h1.734v.883c0 .421-.164.773-.492 1.054-.328.281-.732.422-1.211.422zm7.125-8.351c.36 0 .651-.103.875-.309a1.02 1.02 0 0 0 .336-.785c0-.323-.112-.587-.336-.793-.224-.206-.516-.309-.875-.309-.354 0-.64.103-.86.309a1.04 1.04 0 0 0-.327.793c0 .318.11.58.332.785.22.206.506.309.855.309zm.93 9.648v-8.273h-1.844V249h1.844zm4.593 0v-4.61c0-.66.165-1.192.493-1.593.328-.401.789-.602 1.382-.602.49 0 .877.146 1.16.438.284.291.426.734.426 1.328V249h1.844v-5.563c0-.927-.247-1.631-.742-2.113s-1.172-.722-2.031-.722a3.37 3.37 0 0 0-.871.105c-.263.07-.482.159-.657.266a2.05 2.05 0 0 0-.46.382c-.133.149-.236.29-.31.422a2.379 2.379 0 0 0-.179.418h-.094v-1.468h-1.804V249h1.843zm11.133.14a4.46 4.46 0 0 0 1.215-.156c.373-.104.684-.24.934-.41.25-.17.467-.362.652-.578.185-.216.323-.43.414-.644.091-.214.147-.425.168-.633h-1.781c-.057.265-.232.487-.524.664-.291.177-.653.265-1.086.265-.572 0-1.027-.18-1.363-.543-.336-.362-.504-.832-.504-1.41v-.398h5.344v-.961c0-1.146-.33-2.059-.992-2.738-.662-.68-1.521-1.02-2.578-1.02-1.052 0-1.914.333-2.586 1-.672.667-1.008 1.586-1.008 2.758v1.047c0 1.187.33 2.11.988 2.77.66.658 1.561.988 2.707.988zm1.672-5.038h-3.547v-.094c0-.589.163-1.064.489-1.426.325-.362.756-.543 1.293-.543.53 0 .958.181 1.28.543.324.362.485.837.485 1.426v.094zM140.45 249v-4.828c0-.578.173-1.042.52-1.39.346-.35.853-.524 1.52-.524.37 0 .624.02.765.062v-1.664a3.274 3.274 0 0 0-.61-.054c-.322 0-.615.045-.878.136a1.805 1.805 0 0 0-.641.364 2.453 2.453 0 0 0-.395.453 1.99 1.99 0 0 0-.226.46h-.094v-1.288h-1.844V249h1.883zm7.235.14c1.073 0 1.918-.234 2.535-.702.617-.47.926-1.123.926-1.961 0-.375-.067-.7-.2-.973a1.733 1.733 0 0 0-.582-.676 3.386 3.386 0 0 0-.84-.422 6.696 6.696 0 0 0-1.082-.258l-.304-.054a13.47 13.47 0 0 1-.64-.121 1.92 1.92 0 0 1-.31-.086 19.92 19.92 0 0 0-.265-.106.792.792 0 0 1-.242-.136 2.67 2.67 0 0 1-.172-.172.586.586 0 0 1-.13-.22.875.875 0 0 1-.038-.269c0-.328.13-.587.39-.777.26-.19.607-.285 1.04-.285.447 0 .8.104 1.058.312.258.209.4.456.426.743h1.656c0-.74-.284-1.325-.851-1.754-.568-.43-1.316-.645-2.243-.645-.442 0-.854.05-1.234.149a3.42 3.42 0 0 0-1.027.449 2.1 2.1 0 0 0-.72.808 2.505 2.505 0 0 0-.26 1.164c0 .313.047.593.144.84.096.248.221.452.375.614.153.161.354.304.601.43.248.124.493.223.735.296.242.073.53.143.863.211a11.505 11.505 0 0 1 .941.191c.196.05.384.112.567.188a.907.907 0 0 1 .41.309c.091.13.137.286.137.468a.95.95 0 0 1-.391.793c-.26.2-.656.301-1.187.301-.948 0-1.47-.349-1.563-1.047h-1.797c0 .74.294 1.324.883 1.754.589.43 1.385.645 2.39.645zm8.796-3.484v-.422c0-.286.047-.528.141-.726.094-.198.212-.36.356-.488.143-.128.394-.325.753-.59.188-.136.339-.252.454-.348.114-.096.248-.225.402-.387.154-.161.273-.321.36-.48.085-.159.16-.352.222-.578.062-.227.094-.468.094-.723 0-.458-.091-.87-.274-1.234a2.382 2.382 0 0 0-.738-.883 3.475 3.475 0 0 0-1.059-.512 4.437 4.437 0 0 0-1.265-.176 4.9 4.9 0 0 0-1.008.102 3.59 3.59 0 0 0-.938.34 2.93 2.93 0 0 0-.785.594 2.526 2.526 0 0 0-.523.898 3.396 3.396 0 0 0-.176 1.215h1.711c.005-.474.147-.862.426-1.164.278-.302.676-.453 1.191-.453.443 0 .814.114 1.113.343.3.23.45.573.45 1.032 0 .182-.025.345-.075.488a1.23 1.23 0 0 1-.261.422 3.214 3.214 0 0 1-.352.34c-.11.088-.278.216-.508.382-.474.344-.836.71-1.086 1.098-.25.388-.362.85-.335 1.387l.007.523h1.703zm-.789 3.492c.391 0 .707-.109.95-.328.242-.218.363-.5.363-.843 0-.355-.121-.641-.363-.86-.243-.219-.559-.328-.95-.328-.375 0-.682.11-.921.332-.24.221-.36.507-.36.856 0 .343.12.625.36.843.24.22.546.328.921.328z" fill="#4A4A4A" fill-rule="nonzero"></path><g transform="translate(433.000000, 78.000000)"><path d="M0 126V12.999A2.998 2.998 0 0 1 3.008 10h98.433" stroke="#455A64" stroke-width="2"></path><path fill="#455A64" d="M100 20l18-9.999L100 0v20"></path></g><g transform="translate(235.000000, 159.000000) rotate(-270.000000) translate(-235.000000, -159.000000) translate(194.000000, 149.000000)"><path stroke="#455A64" stroke-width="2" d="M0 10h74"></path><path fill="#455A64" d="M64 20l18-9.999L64 0v20"></path></g><g transform="translate(634.000000, 486.000000) rotate(-270.000000) translate(-634.000000, -486.000000) translate(592.000000, 476.000000)"><path stroke="#455A64" stroke-width="2" d="M0 10.5h76"></path><path fill="#455A64" d="M66 20.5l18-9.999L66 .5v20"></path></g><g transform="translate(151.000000, 529.000000)"><path d="M3 0h161a3 3 0 0 1 3 3v32a3 3 0 0 1-3 3H3a3 3 0 0 1-3-3V3a3 3 0 0 1 3-3z" fill="#FDF2D0"></path><path d="M29.367 24v-4.031h2.102L33.367 24h2.117l-2.156-4.344c.234-.088.458-.21.672-.363.214-.154.42-.349.621-.586.2-.237.36-.533.48-.887s.18-.74.18-1.156c0-.469-.074-.901-.222-1.297a3.096 3.096 0 0 0-.66-1.055c-.292-.307-.674-.546-1.145-.718-.471-.172-1.01-.258-1.613-.258H27.5V24h1.867zm1.961-5.531h-1.96V14.89h2.007c.594 0 1.069.157 1.426.472.357.315.535.767.535 1.356 0 .562-.175.995-.523 1.297-.35.302-.844.453-1.485.453zm9.524 5.672c.437 0 .842-.052 1.214-.157.373-.104.684-.24.934-.41.25-.17.467-.362.652-.578.185-.216.323-.43.414-.644.092-.214.148-.425.168-.633h-1.78c-.058.265-.233.487-.524.664-.292.177-.654.265-1.086.265-.573 0-1.028-.18-1.364-.543-.335-.362-.503-.832-.503-1.41v-.398h5.343v-.961c0-1.146-.33-2.059-.992-2.738-.661-.68-1.52-1.02-2.578-1.02-1.052 0-1.914.333-2.586 1-.672.667-1.008 1.586-1.008 2.758v1.047c0 1.187.33 2.11.989 2.77.658.658 1.56.988 2.707.988zm1.671-5.04h-3.546v-.093c0-.589.162-1.064.488-1.426.325-.362.756-.543 1.293-.543.531 0 .958.181 1.281.543.323.362.484.837.484 1.426v.094zM48.305 24v-5.11c0-.536.146-.958.437-1.265.292-.307.667-.46 1.125-.46.469 0 .844.142 1.125.429.281.286.422.692.422 1.218V24h1.79v-5.094c0-.526.15-.948.452-1.265a1.507 1.507 0 0 1 1.14-.477c.48 0 .852.138 1.118.414.266.276.398.675.398 1.195V24h1.844v-5.79c0-.817-.237-1.456-.71-1.917-.475-.461-1.13-.691-1.97-.691-.656 0-1.196.15-1.62.449-.425.3-.72.665-.887 1.097h-.078a2.06 2.06 0 0 0-.793-1.12c-.394-.285-.89-.426-1.489-.426-.286 0-.55.032-.789.097-.24.065-.438.147-.597.246-.16.1-.3.218-.422.356a2.063 2.063 0 0 0-.281.39 2.197 2.197 0 0 0-.16.387h-.094v-1.351H46.46V24h1.844zm15.703.14c1.12 0 2.018-.334 2.695-1.003.677-.67 1.016-1.603 1.016-2.801v-.984c0-1.157-.341-2.075-1.024-2.754-.682-.68-1.578-1.02-2.687-1.02-1.104 0-2 .346-2.688 1.04-.687.692-1.03 1.606-1.03 2.741v.985c0 1.203.336 2.136 1.01 2.8.675.665 1.578.997 2.708.997zm0-1.507c-.6 0-1.059-.216-1.38-.649-.32-.432-.48-.992-.48-1.68v-.89c0-.682.164-1.242.493-1.68.328-.437.783-.656 1.367-.656.583 0 1.036.219 1.36.656.322.433.484.993.484 1.68v.89c0 .688-.158 1.248-.473 1.68-.315.433-.772.649-1.371.649zm8.969 1.422c.49 0 .87-.029 1.14-.086v-1.43c-.187.02-.416.031-.687.031-.464 0-.788-.08-.973-.238-.185-.159-.277-.45-.277-.871v-4.18h1.851v-1.484H72.18v-2.063h-1.797v2.063h-1.29v1.484h1.259v4.383c0 .865.19 1.48.57 1.844.38.364 1.065.547 2.055.547zm6.414.086c.437 0 .842-.052 1.214-.157.373-.104.684-.24.934-.41.25-.17.468-.362.652-.578.185-.216.323-.43.414-.644.092-.214.148-.425.168-.633h-1.78c-.058.265-.233.487-.524.664-.292.177-.654.265-1.086.265-.573 0-1.028-.18-1.363-.543-.336-.362-.504-.832-.504-1.41v-.398h5.343v-.961c0-1.146-.33-2.059-.992-2.738-.661-.68-1.52-1.02-2.578-1.02-1.052 0-1.914.333-2.586 1-.672.667-1.008 1.586-1.008 2.758v1.047c0 1.187.33 2.11.989 2.77.658.658 1.56.988 2.707.988zm1.671-5.04h-3.546v-.093c0-.589.162-1.064.488-1.426.325-.362.756-.543 1.293-.543.531 0 .958.181 1.281.543.323.362.484.837.484 1.426v.094zM92.43 24c.843 0 1.577-.132 2.199-.395.622-.263 1.116-.638 1.48-1.125a4.981 4.981 0 0 0 .809-1.68c.174-.632.262-1.35.262-2.152 0-.807-.088-1.527-.262-2.16a4.775 4.775 0 0 0-.816-1.668c-.37-.479-.864-.846-1.48-1.101-.618-.255-1.349-.383-2.192-.383h-3.75V24h3.75zm-.22-1.617h-1.64v-7.43h1.64c2.011 0 3.017 1.242 3.017 3.727 0 1.291-.25 2.231-.75 2.82s-1.256.883-2.266.883zm10.509 1.758c1.12 0 2.018-.335 2.695-1.004.677-.67 1.016-1.603 1.016-2.801v-.984c0-1.157-.341-2.075-1.024-2.754-.682-.68-1.578-1.02-2.687-1.02-1.104 0-2 .346-2.688 1.04-.687.692-1.031 1.606-1.031 2.741v.985c0 1.203.337 2.136 1.012 2.8.674.665 1.577.997 2.707.997zm0-1.508c-.6 0-1.059-.216-1.38-.649-.32-.432-.48-.992-.48-1.68v-.89c0-.682.164-1.242.493-1.68.328-.437.783-.656 1.367-.656.583 0 1.036.219 1.36.656.322.433.484.993.484 1.68v.89c0 .688-.158 1.248-.473 1.68-.315.433-.772.649-1.371.649zm9.094 1.508c1.041 0 1.859-.25 2.453-.746.593-.498.903-1.155.93-1.973h-1.735c-.14.765-.672 1.148-1.594 1.148-.562 0-1.004-.192-1.324-.578-.32-.385-.48-.92-.48-1.601v-1.078c0-.678.156-1.214.468-1.61.313-.396.755-.594 1.328-.594.26 0 .493.04.696.121.203.081.363.188.48.32a1.553 1.553 0 0 1 .387.833h1.726a2.775 2.775 0 0 0-.871-1.96 2.91 2.91 0 0 0-1.043-.618 4.173 4.173 0 0 0-1.414-.227c-1.11 0-1.988.337-2.636 1.012-.649.674-.973 1.571-.973 2.691v1.11c0 1.172.323 2.09.969 2.754.646.664 1.523.996 2.632.996zm7.296-.141v-2.914l.641-.68L122.273 24h2.165l-3.297-4.695 3.093-3.578h-2.101l-2.945 3.515h-.079v-6.469h-1.843V24h1.843zm9.922.14a4.46 4.46 0 0 0 1.215-.156c.372-.104.684-.24.934-.41.25-.17.467-.362.652-.578.185-.216.323-.43.414-.644.091-.214.147-.425.168-.633h-1.781c-.057.265-.232.487-.524.664-.291.177-.653.265-1.086.265-.572 0-1.027-.18-1.363-.543-.336-.362-.504-.832-.504-1.41v-.398h5.344v-.961c0-1.146-.33-2.059-.992-2.738-.662-.68-1.521-1.02-2.578-1.02-1.052 0-1.914.333-2.586 1-.672.667-1.008 1.586-1.008 2.758v1.047c0 1.187.33 2.11.988 2.77.66.658 1.561.988 2.707.988zm1.672-5.038h-3.547v-.094c0-.589.163-1.064.489-1.426.325-.362.756-.543 1.293-.543.53 0 .958.181 1.28.543.324.362.485.837.485 1.426v.094zM136.617 24v-4.828c0-.578.173-1.042.52-1.39.346-.35.853-.524 1.52-.524.369 0 .624.02.765.062v-1.664a3.274 3.274 0 0 0-.61-.054c-.322 0-.615.045-.878.136a1.805 1.805 0 0 0-.641.364 2.453 2.453 0 0 0-.395.453 1.99 1.99 0 0 0-.226.46h-.094v-1.288h-1.844V24h1.883z" fill="#4A4A4A" fill-rule="nonzero"></path></g><g transform="translate(151.000000, 572.000000)"><path d="M3 0h161a3 3 0 0 1 3 3v57a3 3 0 0 1-3 3H3a3 3 0 0 1-3-3V3a3 3 0 0 1 3-3z" fill="#FDF2D0"></path><path d="M39.75 27v-5.11c0-.536.146-.958.438-1.265.291-.307.666-.46 1.124-.46.47 0 .844.142 1.126.429.28.286.421.692.421 1.218V27h1.79v-5.094c0-.526.15-.948.453-1.265a1.507 1.507 0 0 1 1.14-.477c.48 0 .852.138 1.117.414.266.276.399.675.399 1.195V27h1.844v-5.79c0-.817-.237-1.456-.711-1.917-.474-.461-1.13-.691-1.97-.691-.655 0-1.196.15-1.62.449-.425.3-.72.665-.887 1.097h-.078a2.06 2.06 0 0 0-.793-1.12c-.393-.285-.89-.426-1.488-.426-.287 0-.55.032-.79.097a2.245 2.245 0 0 0-.597.246c-.159.1-.3.218-.422.356a2.063 2.063 0 0 0-.281.39 2.197 2.197 0 0 0-.16.387h-.094v-1.351h-1.805V27h1.844zm13.453-9.648c.36 0 .651-.103.875-.309a1.02 1.02 0 0 0 .336-.785c0-.323-.112-.587-.336-.793-.224-.206-.516-.309-.875-.309-.354 0-.64.103-.86.309a1.04 1.04 0 0 0-.327.793c0 .318.11.58.332.785.221.206.506.309.855.309zm.93 9.648v-8.273h-1.844V27h1.844zm4.594 0v-4.61c0-.66.164-1.192.492-1.593.328-.401.789-.602 1.383-.602.49 0 .876.146 1.16.438.284.291.425.734.425 1.328V27h1.844v-5.563c0-.927-.247-1.631-.742-2.113s-1.172-.722-2.031-.722a3.37 3.37 0 0 0-.871.105c-.263.07-.482.159-.657.266a2.05 2.05 0 0 0-.46.382c-.133.149-.236.29-.31.422a2.38 2.38 0 0 0-.179.418h-.093v-1.468h-1.805V27h1.844zm8.906-9.648c.36 0 .65-.103.875-.309a1.02 1.02 0 0 0 .336-.785c0-.323-.112-.587-.336-.793-.224-.206-.516-.309-.875-.309-.354 0-.64.103-.86.309a1.04 1.04 0 0 0-.328.793c0 .318.111.58.332.785.222.206.507.309.856.309zm.93 9.648v-8.273h-1.844V27h1.844zm4.585 0v-2.914l.641-.68L76.312 27h2.165l-3.297-4.695 3.093-3.578h-2.101l-2.945 3.515h-.079v-6.469h-1.843V27h1.843zm9.579.125c.661 0 1.199-.152 1.613-.457.414-.305.689-.652.824-1.043h.102V27h1.812v-8.273h-1.851v5.046c0 .506-.178.926-.532 1.262-.354.336-.791.504-1.312.504-.224 0-.426-.027-.606-.082a1.535 1.535 0 0 1-.5-.262 1.164 1.164 0 0 1-.359-.511 2.215 2.215 0 0 1-.129-.801v-5.156h-1.844v5.632c0 .938.248 1.633.743 2.086.494.453 1.174.68 2.039.68zm11.234-.016c.963 0 1.728-.321 2.293-.964.565-.644.848-1.54.848-2.692v-1.195c0-1.151-.28-2.046-.84-2.684-.56-.638-1.317-.957-2.27-.957-.64 0-1.17.137-1.59.41-.419.274-.691.611-.816 1.012h-.094v-4.266h-1.844V27h1.805v-1.258h.094c.161.401.45.73.863.985.414.255.931.382 1.55.382zm-.563-1.539c-.562 0-1.02-.194-1.375-.582-.354-.388-.53-.894-.53-1.52v-1.1c0-.688.168-1.23.507-1.626.339-.396.797-.594 1.375-.594.573 0 1.022.204 1.348.61.325.406.488.987.488 1.742v.75c0 .766-.163 1.344-.488 1.734-.326.391-.767.586-1.325.586zm9.188 1.57c.437 0 .842-.051 1.215-.156a3.17 3.17 0 0 0 .933-.41c.25-.17.468-.362.653-.578.185-.216.323-.43.414-.644.09-.214.147-.425.168-.633h-1.781c-.058.265-.232.487-.524.664-.292.177-.654.265-1.086.265-.573 0-1.027-.18-1.363-.543-.336-.362-.504-.832-.504-1.41v-.398h5.344v-.961c0-1.146-.331-2.059-.993-2.738-.661-.68-1.52-1.02-2.578-1.02-1.052 0-1.914.333-2.586 1-.671.667-1.007 1.586-1.007 2.758v1.047c0 1.187.33 2.11.988 2.77.659.658 1.561.988 2.707.988zm1.672-5.038h-3.547v-.094c0-.589.163-1.064.488-1.426.326-.362.757-.543 1.293-.543.531 0 .959.181 1.281.543.323.362.485.837.485 1.426v.094zm10.844 5.039c1.12 0 2.018-.335 2.695-1.004.677-.67 1.016-1.603 1.016-2.801v-.984c0-1.157-.342-2.075-1.024-2.754-.682-.68-1.578-1.02-2.687-1.02-1.105 0-2 .346-2.688 1.04-.687.692-1.031 1.606-1.031 2.741v.985c0 1.203.337 2.136 1.012 2.8.674.665 1.576.997 2.707.997zm0-1.508c-.6 0-1.059-.216-1.38-.649-.32-.432-.48-.992-.48-1.68v-.89c0-.682.164-1.242.492-1.68.329-.437.784-.656 1.368-.656.583 0 1.036.219 1.359.656.323.433.484.993.484 1.68v.89c0 .688-.157 1.248-.472 1.68-.315.433-.772.649-1.371.649zM122.828 27v-4.61c0-.66.164-1.192.492-1.593.328-.401.79-.602 1.383-.602.49 0 .876.146 1.16.438.284.291.426.734.426 1.328V27h1.844v-5.563c0-.927-.248-1.631-.742-2.113-.495-.482-1.172-.722-2.032-.722a3.37 3.37 0 0 0-.87.105c-.264.07-.482.159-.657.266a2.05 2.05 0 0 0-.46.382c-.134.149-.237.29-.31.422a2.38 2.38 0 0 0-.18.418h-.093v-1.468h-1.805V27h1.844zM49.84 46l3.633-10.664h-2.11l-2.531 8.508h-.094l-2.562-8.508h-2.18L47.645 46h2.195zm6.406-9.648c.36 0 .651-.103.875-.309a1.02 1.02 0 0 0 .336-.785c0-.323-.112-.587-.336-.793-.224-.206-.516-.309-.875-.309-.354 0-.64.103-.86.309a1.04 1.04 0 0 0-.327.793c0 .318.11.58.332.785.221.206.506.309.855.309zm.93 9.648v-8.273h-1.844V46h1.844zm4.726 0v-4.828c0-.578.174-1.042.52-1.39.346-.35.853-.524 1.52-.524.37 0 .624.02.765.062v-1.664a3.274 3.274 0 0 0-.61-.054c-.322 0-.615.045-.878.136a1.805 1.805 0 0 0-.64.364 2.453 2.453 0 0 0-.395.453 1.99 1.99 0 0 0-.227.46h-.094v-1.288H60.02V46h1.882zm8.086.055c.49 0 .87-.029 1.14-.086v-1.43c-.187.02-.416.031-.687.031-.463 0-.787-.08-.972-.238-.185-.159-.278-.45-.278-.871v-4.18h1.852v-1.484h-1.852v-2.063h-1.796v2.063h-1.29v1.484h1.258v4.383c0 .865.19 1.48.57 1.844.38.364 1.066.547 2.055.547zm5.89.07c.662 0 1.2-.152 1.614-.457.414-.305.689-.652.824-1.043h.102V46h1.812v-8.273h-1.85v5.046c0 .506-.177.926-.531 1.262-.355.336-.792.504-1.313.504a2.06 2.06 0 0 1-.605-.082 1.535 1.535 0 0 1-.5-.262 1.164 1.164 0 0 1-.36-.511 2.215 2.215 0 0 1-.129-.801v-5.156h-1.843v5.632c0 .938.247 1.633.742 2.086.495.453 1.174.68 2.039.68zm9.18 0c.568 0 1.041-.11 1.419-.332.377-.221.665-.507.863-.855h.086V46h1.75v-5.578c0-.505-.085-.944-.254-1.317a2.101 2.101 0 0 0-.715-.878 3.264 3.264 0 0 0-1.035-.473 4.98 4.98 0 0 0-1.277-.152c-1.021 0-1.804.217-2.348.652-.544.435-.843 1.012-.895 1.73h1.75c.141-.599.623-.898 1.446-.898.468 0 .834.108 1.097.324.263.216.395.54.395.973v.758h-2.07c-.938 0-1.66.221-2.168.664-.508.442-.762 1.041-.762 1.797 0 .765.25 1.377.75 1.836.5.458 1.156.687 1.969.687zm.579-1.422c-.401 0-.742-.105-1.024-.316-.281-.211-.422-.512-.422-.903 0-.343.119-.62.356-.828.237-.208.59-.312 1.058-.312h1.735v.883c0 .421-.164.773-.492 1.054-.328.282-.732.422-1.211.422zM93.582 46V34.773h-1.844V46h1.844zm6.945.11c.964 0 1.728-.322 2.293-.965.565-.644.848-1.54.848-2.692v-1.195c0-1.151-.28-2.046-.84-2.684-.56-.638-1.316-.957-2.27-.957-.64 0-1.17.137-1.59.41-.419.274-.69.611-.816 1.012h-.093v-4.266h-1.844V46h1.805v-1.258h.093c.162.401.45.73.864.985s.93.382 1.55.382zm-.562-1.54c-.563 0-1.021-.194-1.375-.582-.354-.388-.531-.894-.531-1.52v-1.1c0-.688.169-1.23.507-1.626.339-.396.797-.594 1.375-.594.573 0 1.023.204 1.348.61.326.406.488.987.488 1.742v.75c0 .766-.162 1.344-.488 1.734-.325.391-.767.586-1.324.586zm9.21 1.57c1.12 0 2.019-.334 2.696-1.003.677-.67 1.016-1.603 1.016-2.801v-.984c0-1.157-.341-2.075-1.024-2.754-.682-.68-1.578-1.02-2.687-1.02-1.104 0-2 .346-2.688 1.04-.687.692-1.031 1.606-1.031 2.741v.985c0 1.203.337 2.136 1.012 2.8.674.665 1.577.997 2.707.997zm0-1.507c-.598 0-1.058-.216-1.378-.649-.32-.432-.48-.992-.48-1.68v-.89c0-.682.163-1.242.492-1.68.328-.437.783-.656 1.367-.656.583 0 1.036.219 1.36.656.322.433.484.993.484 1.68v.89c0 .688-.158 1.248-.473 1.68-.315.433-.772.649-1.371.649zm6.97 1.367l1.718-2.86h.07l1.712 2.86h2.101l-2.719-4.195 2.743-4.078h-2.055l-1.719 2.843h-.078l-1.68-2.843h-2.148l2.695 4.164L114.152 46h1.993z" fill="#4A4A4A" fill-rule="nonzero"></path></g><g transform="translate(551.000000, 529.000000)"><path d="M3 0h161a3 3 0 0 1 3 3v32a3 3 0 0 1-3 3H3a3 3 0 0 1-3-3V3a3 3 0 0 1 3-3z" fill="#FDF2D0"></path><path d="M13.332 24c.844 0 1.577-.132 2.2-.395.622-.263 1.115-.638 1.48-1.125a4.981 4.981 0 0 0 .808-1.68c.175-.632.262-1.35.262-2.152 0-.807-.087-1.527-.262-2.16a4.775 4.775 0 0 0-.816-1.668c-.37-.479-.863-.846-1.48-1.101-.618-.255-1.348-.383-2.192-.383h-3.75V24h3.75zm-.219-1.617h-1.64v-7.43h1.64c2.01 0 3.016 1.242 3.016 3.727 0 1.291-.25 2.231-.75 2.82s-1.255.883-2.266.883zm10.508 1.758c1.12 0 2.018-.335 2.695-1.004.677-.67 1.016-1.603 1.016-2.801v-.984c0-1.157-.341-2.075-1.023-2.754-.683-.68-1.579-1.02-2.688-1.02-1.104 0-2 .346-2.687 1.04-.688.692-1.032 1.606-1.032 2.741v.985c0 1.203.338 2.136 1.012 2.8.675.665 1.577.997 2.707.997zm0-1.508c-.599 0-1.058-.216-1.379-.649-.32-.432-.48-.992-.48-1.68v-.89c0-.682.164-1.242.492-1.68.328-.437.784-.656 1.367-.656s1.037.219 1.36.656c.322.433.484.993.484 1.68v.89c0 .688-.158 1.248-.473 1.68-.315.433-.772.649-1.37.649zm9.094 1.508c1.042 0 1.86-.25 2.453-.746.594-.498.904-1.155.93-1.973h-1.735c-.14.765-.672 1.148-1.593 1.148-.563 0-1.004-.192-1.325-.578-.32-.385-.48-.92-.48-1.601v-1.078c0-.678.156-1.214.469-1.61.312-.396.755-.594 1.328-.594.26 0 .492.04.695.121.203.081.363.188.48.32a1.553 1.553 0 0 1 .387.833h1.727a2.775 2.775 0 0 0-.871-1.96 2.91 2.91 0 0 0-1.043-.618 4.173 4.173 0 0 0-1.414-.227c-1.11 0-1.989.337-2.637 1.012-.648.674-.973 1.571-.973 2.691v1.11c0 1.172.323 2.09.969 2.754.646.664 1.523.996 2.633.996zM40.012 24v-2.914l.64-.68L43.176 24h2.164l-3.297-4.695 3.094-3.578h-2.102l-2.945 3.515h-.078v-6.469h-1.844V24h1.844zm9.922.14c.437 0 .842-.051 1.214-.156.373-.104.684-.24.934-.41.25-.17.467-.362.652-.578.185-.216.323-.43.414-.644.092-.214.148-.425.168-.633h-1.78c-.058.265-.233.487-.524.664-.292.177-.654.265-1.086.265-.573 0-1.028-.18-1.364-.543-.335-.362-.503-.832-.503-1.41v-.398h5.343v-.961c0-1.146-.33-2.059-.992-2.738-.661-.68-1.52-1.02-2.578-1.02-1.052 0-1.914.333-2.586 1-.672.667-1.008 1.586-1.008 2.758v1.047c0 1.187.33 2.11.989 2.77.658.658 1.56.988 2.707.988zm1.671-5.038H48.06v-.094c0-.589.162-1.064.488-1.426.325-.362.756-.543 1.293-.543.531 0 .958.181 1.281.543.323.362.484.837.484 1.426v.094zM57.52 24v-4.828c0-.578.173-1.042.52-1.39.345-.35.852-.524 1.519-.524.37 0 .625.02.765.062v-1.664a3.274 3.274 0 0 0-.61-.054c-.322 0-.615.045-.878.136a1.805 1.805 0 0 0-.64.364 2.453 2.453 0 0 0-.395.453 1.99 1.99 0 0 0-.227.46h-.094v-1.288h-1.843V24h1.883zm10.68 0v-6.719h1.843v-1.484h-1.875v-.672c0-.396.1-.674.3-.836.201-.161.528-.242.981-.242a5.9 5.9 0 0 1 .758.039v-1.39a10.442 10.442 0 0 0-1.086-.063c-.974 0-1.677.183-2.11.55-.432.368-.648.963-.648 1.786v.828h-1.367v1.484h1.367V24H68.2zm6.929.14c1.12 0 2.018-.334 2.695-1.003.677-.67 1.016-1.603 1.016-2.801v-.984c0-1.157-.341-2.075-1.024-2.754-.682-.68-1.578-1.02-2.687-1.02-1.104 0-2 .346-2.688 1.04-.687.692-1.03 1.606-1.03 2.741v.985c0 1.203.336 2.136 1.01 2.8.675.665 1.578.997 2.708.997zm0-1.507c-.6 0-1.059-.216-1.379-.649-.32-.432-.48-.992-.48-1.68v-.89c0-.682.164-1.242.492-1.68.328-.437.784-.656 1.367-.656s1.036.219 1.36.656c.322.433.484.993.484 1.68v.89c0 .688-.158 1.248-.473 1.68-.315.433-.772.649-1.371.649zM82.989 24v-4.828c0-.578.172-1.042.519-1.39.346-.35.853-.524 1.52-.524.37 0 .624.02.765.062v-1.664a3.274 3.274 0 0 0-.61-.054c-.322 0-.615.045-.878.136a1.805 1.805 0 0 0-.64.364 2.453 2.453 0 0 0-.395.453 1.99 1.99 0 0 0-.227.46h-.094v-1.288h-1.844V24h1.883zm11.695 0l2.046-7.648h.086L98.863 24h1.742l2.852-10.664h-2.078l-1.703 7.914h-.102l-1.937-7.914h-1.711L93.98 21.25h-.085l-1.711-7.914h-2.079L92.957 24h1.727zm11.53-9.648c.36 0 .652-.103.876-.309a1.02 1.02 0 0 0 .336-.785c0-.323-.112-.587-.336-.793-.224-.206-.516-.309-.875-.309-.354 0-.64.103-.86.309a1.04 1.04 0 0 0-.328.793c0 .318.111.58.332.785.222.206.507.309.856.309zm.93 9.648v-8.273h-1.843V24h1.844zm4.594 0v-4.61c0-.66.164-1.192.492-1.593.329-.401.79-.602 1.383-.602.49 0 .877.146 1.16.438.284.291.426.734.426 1.328V24h1.844v-5.563c0-.927-.247-1.631-.742-2.113s-1.172-.722-2.031-.722a3.37 3.37 0 0 0-.872.105 2.48 2.48 0 0 0-.656.266 2.05 2.05 0 0 0-.46.382c-.134.149-.236.29-.31.422a2.38 2.38 0 0 0-.179.418h-.094v-1.468h-1.804V24h1.843zm10.563.11c.646 0 1.185-.14 1.617-.419.432-.278.708-.615.828-1.011h.094V24h1.805V12.773h-1.852v4.196h-.086c-.151-.396-.43-.722-.836-.977-.406-.255-.92-.383-1.539-.383-.964 0-1.73.322-2.297.965-.568.643-.851 1.517-.851 2.621v1.328c0 1.11.282 1.985.847 2.625.565.641 1.322.961 2.27.961zm.617-1.54c-.573 0-1.025-.198-1.356-.593-.33-.396-.496-.959-.496-1.688v-.86c0-.723.163-1.283.489-1.679.325-.396.77-.594 1.332-.594.557 0 1.014.19 1.37.57.358.38.536.88.536 1.5v1.157c0 .682-.17 1.217-.512 1.605-.34.388-.795.582-1.363.582zm9.64 1.57c1.12 0 2.019-.334 2.696-1.003.677-.67 1.016-1.603 1.016-2.801v-.984c0-1.157-.342-2.075-1.024-2.754-.682-.68-1.578-1.02-2.687-1.02-1.105 0-2 .346-2.688 1.04-.687.692-1.031 1.606-1.031 2.741v.985c0 1.203.337 2.136 1.012 2.8.674.665 1.576.997 2.707.997zm0-1.507c-.598 0-1.058-.216-1.378-.649-.32-.432-.48-.992-.48-1.68v-.89c0-.682.163-1.242.491-1.68.329-.437.784-.656 1.368-.656.583 0 1.036.219 1.359.656.323.433.484.993.484 1.68v.89c0 .688-.157 1.248-.472 1.68-.315.433-.772.649-1.371.649zM141.653 24l1.649-5.992h.054l1.68 5.992h1.89l2.173-8.273h-1.844l-1.313 6.195h-.078l-1.672-6.195h-1.726l-1.625 6.195h-.078l-1.29-6.195h-1.976l2.25 8.273h1.906zm11.86.14c1.073 0 1.918-.234 2.535-.703.617-.468.926-1.122.926-1.96 0-.375-.067-.7-.2-.973a1.733 1.733 0 0 0-.582-.676 3.386 3.386 0 0 0-.84-.422 6.696 6.696 0 0 0-1.081-.258l-.305-.054a13.47 13.47 0 0 1-.64-.121 1.92 1.92 0 0 1-.31-.086l-.265-.106a.792.792 0 0 1-.242-.136 2.67 2.67 0 0 1-.172-.172.586.586 0 0 1-.129-.22.875.875 0 0 1-.039-.269c0-.328.13-.587.39-.777.261-.19.607-.285 1.04-.285.448 0 .8.104 1.058.312.258.209.4.456.426.743h1.656c0-.74-.284-1.325-.851-1.754-.568-.43-1.315-.645-2.242-.645-.443 0-.855.05-1.235.149a3.42 3.42 0 0 0-1.027.449 2.1 2.1 0 0 0-.719.808 2.505 2.505 0 0 0-.262 1.164c0 .313.049.593.145.84.096.248.221.452.375.614.154.161.354.304.601.43.248.124.493.223.735.296.242.073.53.143.863.211l.227.04c.28.051.52.102.714.151.196.05.385.112.567.188a.907.907 0 0 1 .41.309c.091.13.137.286.137.468 0 .328-.13.593-.39.793-.261.2-.657.301-1.188.301-.948 0-1.47-.349-1.563-1.047h-1.797c0 .74.295 1.324.883 1.754.589.43 1.386.645 2.39.645z" fill="#4A4A4A" fill-rule="nonzero"></path></g><g transform="translate(551.000000, 572.000000)"><path d="M3 0h161a3 3 0 0 1 3 3v57a3 3 0 0 1-3 3H3a3 3 0 0 1-3-3V3a3 3 0 0 1 3-3z" fill="#FDF2D0"></path><path d="M39.75 27v-5.11c0-.536.146-.958.438-1.265.291-.307.666-.46 1.124-.46.47 0 .844.142 1.126.429.28.286.421.692.421 1.218V27h1.79v-5.094c0-.526.15-.948.453-1.265a1.507 1.507 0 0 1 1.14-.477c.48 0 .852.138 1.117.414.266.276.399.675.399 1.195V27h1.844v-5.79c0-.817-.237-1.456-.711-1.917-.474-.461-1.13-.691-1.97-.691-.655 0-1.196.15-1.62.449-.425.3-.72.665-.887 1.097h-.078a2.06 2.06 0 0 0-.793-1.12c-.393-.285-.89-.426-1.488-.426-.287 0-.55.032-.79.097a2.245 2.245 0 0 0-.597.246c-.159.1-.3.218-.422.356a2.063 2.063 0 0 0-.281.39 2.197 2.197 0 0 0-.16.387h-.094v-1.351h-1.805V27h1.844zm13.453-9.648c.36 0 .651-.103.875-.309a1.02 1.02 0 0 0 .336-.785c0-.323-.112-.587-.336-.793-.224-.206-.516-.309-.875-.309-.354 0-.64.103-.86.309a1.04 1.04 0 0 0-.327.793c0 .318.11.58.332.785.221.206.506.309.855.309zm.93 9.648v-8.273h-1.844V27h1.844zm4.594 0v-4.61c0-.66.164-1.192.492-1.593.328-.401.789-.602 1.383-.602.49 0 .876.146 1.16.438.284.291.425.734.425 1.328V27h1.844v-5.563c0-.927-.247-1.631-.742-2.113s-1.172-.722-2.031-.722a3.37 3.37 0 0 0-.871.105c-.263.07-.482.159-.657.266a2.05 2.05 0 0 0-.46.382c-.133.149-.236.29-.31.422a2.38 2.38 0 0 0-.179.418h-.093v-1.468h-1.805V27h1.844zm8.906-9.648c.36 0 .65-.103.875-.309a1.02 1.02 0 0 0 .336-.785c0-.323-.112-.587-.336-.793-.224-.206-.516-.309-.875-.309-.354 0-.64.103-.86.309a1.04 1.04 0 0 0-.328.793c0 .318.111.58.332.785.222.206.507.309.856.309zm.93 9.648v-8.273h-1.844V27h1.844zm4.585 0v-2.914l.641-.68L76.312 27h2.165l-3.297-4.695 3.093-3.578h-2.101l-2.945 3.515h-.079v-6.469h-1.843V27h1.843zm9.579.125c.661 0 1.199-.152 1.613-.457.414-.305.689-.652.824-1.043h.102V27h1.812v-8.273h-1.851v5.046c0 .506-.178.926-.532 1.262-.354.336-.791.504-1.312.504-.224 0-.426-.027-.606-.082a1.535 1.535 0 0 1-.5-.262 1.164 1.164 0 0 1-.359-.511 2.215 2.215 0 0 1-.129-.801v-5.156h-1.844v5.632c0 .938.248 1.633.743 2.086.494.453 1.174.68 2.039.68zm11.234-.016c.963 0 1.728-.321 2.293-.964.565-.644.848-1.54.848-2.692v-1.195c0-1.151-.28-2.046-.84-2.684-.56-.638-1.317-.957-2.27-.957-.64 0-1.17.137-1.59.41-.419.274-.691.611-.816 1.012h-.094v-4.266h-1.844V27h1.805v-1.258h.094c.161.401.45.73.863.985.414.255.931.382 1.55.382zm-.563-1.539c-.562 0-1.02-.194-1.375-.582-.354-.388-.53-.894-.53-1.52v-1.1c0-.688.168-1.23.507-1.626.339-.396.797-.594 1.375-.594.573 0 1.022.204 1.348.61.325.406.488.987.488 1.742v.75c0 .766-.163 1.344-.488 1.734-.326.391-.767.586-1.325.586zm9.188 1.57c.437 0 .842-.051 1.215-.156a3.17 3.17 0 0 0 .933-.41c.25-.17.468-.362.653-.578.185-.216.323-.43.414-.644.09-.214.147-.425.168-.633h-1.781c-.058.265-.232.487-.524.664-.292.177-.654.265-1.086.265-.573 0-1.027-.18-1.363-.543-.336-.362-.504-.832-.504-1.41v-.398h5.344v-.961c0-1.146-.331-2.059-.993-2.738-.661-.68-1.52-1.02-2.578-1.02-1.052 0-1.914.333-2.586 1-.671.667-1.007 1.586-1.007 2.758v1.047c0 1.187.33 2.11.988 2.77.659.658 1.561.988 2.707.988zm1.672-5.038h-3.547v-.094c0-.589.163-1.064.488-1.426.326-.362.757-.543 1.293-.543.531 0 .959.181 1.281.543.323.362.485.837.485 1.426v.094zm10.844 5.039c1.12 0 2.018-.335 2.695-1.004.677-.67 1.016-1.603 1.016-2.801v-.984c0-1.157-.342-2.075-1.024-2.754-.682-.68-1.578-1.02-2.687-1.02-1.105 0-2 .346-2.688 1.04-.687.692-1.031 1.606-1.031 2.741v.985c0 1.203.337 2.136 1.012 2.8.674.665 1.576.997 2.707.997zm0-1.508c-.6 0-1.059-.216-1.38-.649-.32-.432-.48-.992-.48-1.68v-.89c0-.682.164-1.242.492-1.68.329-.437.784-.656 1.368-.656.583 0 1.036.219 1.359.656.323.433.484.993.484 1.68v.89c0 .688-.157 1.248-.472 1.68-.315.433-.772.649-1.371.649zM122.828 27v-4.61c0-.66.164-1.192.492-1.593.328-.401.79-.602 1.383-.602.49 0 .876.146 1.16.438.284.291.426.734.426 1.328V27h1.844v-5.563c0-.927-.248-1.631-.742-2.113-.495-.482-1.172-.722-2.032-.722a3.37 3.37 0 0 0-.87.105c-.264.07-.482.159-.657.266a2.05 2.05 0 0 0-.46.382c-.134.149-.237.29-.31.422a2.38 2.38 0 0 0-.18.418h-.093v-1.468h-1.805V27h1.844zM55.445 46v-4.64h4.742V46h1.891V35.336h-1.89v4.375h-4.743v-4.375h-1.89V46h1.89zm10.094 2.96c.385 0 .736-.045 1.05-.136a2.86 2.86 0 0 0 .798-.351 2.51 2.51 0 0 0 .593-.563 4.12 4.12 0 0 0 .442-.695c.114-.232.232-.507.351-.824l.211-.563c.01-.047.938-2.747 2.782-8.101h-1.961l-1.922 6.593h-.078l-1.899-6.593h-2.039l2.914 8.312-.086.328c-.093.39-.255.681-.484.871-.23.19-.583.285-1.063.285-.25 0-.468-.015-.656-.046v1.406c.292.052.64.078 1.047.078zm9.89-.17v-4.048h.094c.172.406.454.736.844.988.39.253.893.38 1.508.38.964 0 1.728-.322 2.293-.965.565-.644.848-1.54.848-2.692v-1.195c0-1.146-.28-2.04-.84-2.68-.56-.64-1.314-.96-2.262-.96-.625 0-1.148.132-1.57.398-.422.265-.711.606-.867 1.023h-.094v-1.32h-1.805v11.07h1.852zm1.883-4.22c-.562 0-1.016-.19-1.363-.57-.346-.38-.52-.883-.52-1.508v-1.156c0-.682.166-1.218.497-1.606.33-.388.785-.582 1.363-.582s1.03.201 1.356.602c.325.401.488.98.488 1.734v.758c0 .766-.164 1.345-.492 1.738-.329.394-.771.59-1.329.59zm9.204 1.57c.437 0 .842-.051 1.214-.156.373-.104.684-.24.934-.41.25-.17.468-.362.652-.578.185-.216.323-.43.414-.644.092-.214.148-.425.168-.633h-1.78c-.058.265-.233.487-.524.664-.292.177-.654.265-1.086.265-.573 0-1.028-.18-1.363-.543-.336-.362-.504-.832-.504-1.41v-.398h5.343v-.961c0-1.146-.33-2.059-.992-2.738-.661-.68-1.52-1.02-2.578-1.02-1.052 0-1.914.333-2.586 1-.672.667-1.008 1.586-1.008 2.758v1.047c0 1.187.33 2.11.989 2.77.658.658 1.56.988 2.707.988zm1.671-5.038h-3.546v-.094c0-.589.162-1.064.488-1.426.325-.362.756-.543 1.293-.543.531 0 .958.181 1.281.543.323.362.484.837.484 1.426v.094zM94.103 46v-4.828c0-.578.173-1.042.52-1.39.345-.35.852-.524 1.519-.524.37 0 .625.02.765.062v-1.664a3.274 3.274 0 0 0-.61-.054c-.322 0-.615.045-.878.136a1.805 1.805 0 0 0-.64.364 2.453 2.453 0 0 0-.395.453 1.99 1.99 0 0 0-.227.46h-.094v-1.288H92.22V46h1.883zM103 42.469v-1.696h-4.922v1.696H103zM109.906 46l3.633-10.664h-2.11l-2.53 8.508h-.094l-2.563-8.508h-2.18L107.712 46h2.195z" fill="#4A4A4A" fill-rule="nonzero"></path></g><g transform="translate(234.500000, 400.000000) rotate(-270.000000) translate(-234.500000, -400.000000) translate(103.000000, 390.000000)"><path stroke="#455A64" stroke-width="2" d="M0 10.5h255"></path><path fill="#455A64" d="M245 20.5l18-9.999L245 .5v20"></path></g><g transform="translate(599.000000, 375.000000)"><path fill="#FDF2D0" d="M35.518.259l35.26 35.259-35.26 35.26L.26 35.517z"></path><path d="M36.365 38.193v-.606c0-.412.067-.76.202-1.045.135-.284.305-.518.51-.701.207-.184.568-.466 1.085-.848.27-.195.486-.362.651-.5.165-.139.357-.324.578-.556a3.28 3.28 0 0 0 .517-.69c.123-.229.23-.506.32-.832a3.89 3.89 0 0 0 .135-1.039c0-.658-.131-1.25-.393-1.774a3.424 3.424 0 0 0-1.062-1.269 4.995 4.995 0 0 0-1.521-.736 6.379 6.379 0 0 0-1.82-.252c-.501 0-.984.048-1.448.146a5.16 5.16 0 0 0-1.348.488c-.434.229-.81.513-1.129.854-.318.34-.569.77-.752 1.291-.184.52-.268 1.103-.253 1.747h2.46c.007-.682.211-1.24.612-1.674.4-.434.971-.651 1.712-.651.637 0 1.17.165 1.6.494.431.33.646.824.646 1.482 0 .263-.035.496-.106.702a1.778 1.778 0 0 1-.376.607 4.62 4.62 0 0 1-.506.488c-.157.128-.4.311-.73.55-.681.495-1.201 1.02-1.56 1.579-.36.557-.521 1.222-.484 1.993l.012.752h2.448zm-1.135 5.02c.562 0 1.017-.157 1.365-.471.348-.315.522-.72.522-1.213 0-.51-.174-.921-.522-1.236-.348-.314-.803-.471-1.365-.471-.539 0-.98.159-1.325.477-.344.318-.516.728-.516 1.23 0 .494.172.898.516 1.213.345.314.786.471 1.325.471z" fill="#4A4A4A" fill-rule="nonzero"></path></g><path d="M692.875 406c.844 0 1.577-.132 2.2-.395.622-.263 1.115-.638 1.48-1.125a4.981 4.981 0 0 0 .808-1.68c.175-.632.262-1.35.262-2.152 0-.807-.087-1.527-.262-2.16a4.775 4.775 0 0 0-.816-1.668c-.37-.479-.863-.846-1.48-1.101-.618-.255-1.348-.383-2.192-.383h-3.75V406h3.75zm-.219-1.617h-1.64v-7.43h1.64c2.01 0 3.016 1.242 3.016 3.727 0 1.291-.25 2.231-.75 2.82s-1.255.883-2.266.883zm10.508 1.758c1.12 0 2.018-.335 2.695-1.004.677-.67 1.016-1.603 1.016-2.801v-.984c0-1.157-.341-2.075-1.023-2.754-.683-.68-1.579-1.02-2.688-1.02-1.104 0-2 .346-2.687 1.04-.688.692-1.032 1.606-1.032 2.741v.985c0 1.203.338 2.136 1.012 2.8.675.665 1.577.997 2.707.997zm0-1.508c-.599 0-1.059-.216-1.379-.649-.32-.432-.48-.992-.48-1.68v-.89c0-.682.164-1.242.492-1.68.328-.437.784-.656 1.367-.656s1.037.219 1.36.656c.322.433.484.993.484 1.68v.89c0 .688-.158 1.248-.473 1.68-.315.433-.772.649-1.37.649zm10.258 4.328c.385 0 .736-.046 1.05-.137.316-.09.581-.208.798-.351a2.51 2.51 0 0 0 .593-.563 4.12 4.12 0 0 0 .442-.695c.114-.232.231-.507.351-.824l.211-.563c.01-.047.938-2.747 2.781-8.101h-1.96l-1.922 6.593h-.078l-1.899-6.593h-2.039l2.914 8.312-.086.328c-.094.39-.255.681-.484.871-.23.19-.584.285-1.063.285-.25 0-.468-.015-.656-.046v1.406c.292.052.64.078 1.047.078zm11.14-2.82c1.12 0 2.019-.335 2.696-1.004.677-.67 1.015-1.603 1.015-2.801v-.984c0-1.157-.34-2.075-1.023-2.754-.682-.68-1.578-1.02-2.688-1.02-1.104 0-2 .346-2.687 1.04-.688.692-1.031 1.606-1.031 2.741v.985c0 1.203.337 2.136 1.011 2.8.675.665 1.577.997 2.707.997zm0-1.508c-.598 0-1.058-.216-1.378-.649-.32-.432-.48-.992-.48-1.68v-.89c0-.682.163-1.242.491-1.68.328-.437.784-.656 1.367-.656.584 0 1.037.219 1.36.656.323.433.484.993.484 1.68v.89c0 .688-.157 1.248-.472 1.68-.316.433-.773.649-1.371.649zm8.61 1.492c.661 0 1.2-.152 1.613-.457.414-.305.689-.652.824-1.043h.102V406h1.812v-8.273h-1.851v5.046c0 .506-.177.926-.531 1.262-.355.336-.792.504-1.313.504a2.06 2.06 0 0 1-.605-.082 1.535 1.535 0 0 1-.5-.262 1.164 1.164 0 0 1-.36-.511 2.215 2.215 0 0 1-.129-.801v-5.156h-1.843v5.632c0 .938.247 1.633.742 2.086.495.453 1.174.68 2.039.68zm13.21 0c.662 0 1.2-.152 1.614-.457.414-.305.689-.652.824-1.043h.102V406h1.812v-8.273h-1.851v5.046c0 .506-.177.926-.531 1.262-.355.336-.792.504-1.313.504a2.06 2.06 0 0 1-.605-.082 1.535 1.535 0 0 1-.5-.262 1.164 1.164 0 0 1-.36-.511 2.215 2.215 0 0 1-.129-.801v-5.156h-1.843v5.632c0 .938.247 1.633.742 2.086.495.453 1.174.68 2.039.68zm9.673.016c1.073 0 1.918-.235 2.535-.704.617-.468.926-1.122.926-1.96 0-.375-.067-.7-.2-.973a1.733 1.733 0 0 0-.582-.676 3.386 3.386 0 0 0-.84-.422 6.695 6.695 0 0 0-1.082-.258l-.304-.054a13.471 13.471 0 0 1-.64-.121 1.92 1.92 0 0 1-.31-.086l-.265-.106a.792.792 0 0 1-.242-.136 2.67 2.67 0 0 1-.172-.172.586.586 0 0 1-.129-.22.875.875 0 0 1-.04-.269.91.91 0 0 1 .392-.777c.26-.19.606-.285 1.039-.285.448 0 .8.104 1.058.312.258.209.4.456.426.743h1.656c0-.74-.284-1.325-.851-1.754-.568-.43-1.315-.645-2.242-.645-.443 0-.855.05-1.235.149a3.42 3.42 0 0 0-1.027.449 2.1 2.1 0 0 0-.719.808 2.505 2.505 0 0 0-.262 1.164c0 .313.048.593.145.84.096.248.221.452.375.614.153.161.354.304.601.43.248.124.493.223.735.296.242.073.53.143.863.211a11.505 11.505 0 0 1 .941.191c.196.05.385.112.567.188a.907.907 0 0 1 .41.309c.091.13.137.286.137.468 0 .328-.13.593-.39.793-.261.2-.657.301-1.188.301-.948 0-1.47-.349-1.563-1.047h-1.797c0 .74.295 1.324.883 1.754.589.43 1.385.645 2.39.645zm8.875 0a4.47 4.47 0 0 0 1.215-.157 3.17 3.17 0 0 0 .933-.41c.25-.17.468-.362.652-.578.185-.216.323-.43.415-.644.09-.214.147-.425.168-.633h-1.782c-.057.265-.232.487-.523.664-.292.177-.654.265-1.086.265-.573 0-1.027-.18-1.363-.543-.336-.362-.504-.832-.504-1.41v-.398h5.343v-.961c0-1.146-.33-2.059-.992-2.738-.661-.68-1.52-1.02-2.578-1.02-1.052 0-1.914.333-2.586 1-.672.667-1.008 1.586-1.008 2.758v1.047c0 1.187.33 2.11.989 2.77.659.658 1.56.988 2.707.988zm1.672-5.04h-3.547v-.093c0-.589.162-1.064.488-1.426.325-.362.756-.543 1.293-.543.531 0 .958.181 1.281.543.323.362.485.837.485 1.426v.094zM691.047 425l3.633-10.664h-2.11l-2.53 8.508h-.095l-2.562-8.508h-2.18L688.852 425h2.195zm6.406-9.648c.36 0 .651-.103.875-.309a1.02 1.02 0 0 0 .336-.785c0-.323-.112-.587-.336-.793-.224-.206-.515-.309-.875-.309-.354 0-.64.103-.86.309a1.04 1.04 0 0 0-.327.793c0 .318.11.58.332.785.221.206.506.309.855.309zm.93 9.648v-8.273h-1.844V425h1.844zm4.726 0v-4.828c0-.578.174-1.042.52-1.39.346-.35.853-.524 1.52-.524.37 0 .624.02.765.062v-1.664a3.274 3.274 0 0 0-.61-.054c-.322 0-.615.045-.878.136a1.805 1.805 0 0 0-.64.364 2.453 2.453 0 0 0-.395.453 1.99 1.99 0 0 0-.227.46h-.094v-1.288h-1.843V425h1.882zm8.086.055c.49 0 .87-.029 1.14-.086v-1.43c-.187.02-.416.031-.687.031-.463 0-.787-.08-.972-.238-.185-.159-.278-.45-.278-.871v-4.18h1.852v-1.484h-1.852v-2.063h-1.796v2.063h-1.29v1.484h1.258v4.383c0 .865.19 1.48.57 1.844.38.364 1.066.547 2.055.547zm5.89.07c.662 0 1.2-.152 1.614-.457.414-.305.689-.652.824-1.043h.102V425h1.813v-8.273h-1.852v5.046c0 .506-.177.926-.531 1.262-.354.336-.792.504-1.313.504a2.06 2.06 0 0 1-.605-.082 1.535 1.535 0 0 1-.5-.262 1.164 1.164 0 0 1-.36-.511 2.215 2.215 0 0 1-.129-.801v-5.156h-1.843v5.632c0 .938.247 1.633.742 2.086.495.453 1.174.68 2.039.68zm9.18 0c.568 0 1.041-.11 1.419-.332a2.31 2.31 0 0 0 .863-.856h.086V425h1.75v-5.578c0-.505-.085-.944-.254-1.317a2.101 2.101 0 0 0-.715-.878 3.264 3.264 0 0 0-1.035-.473 4.98 4.98 0 0 0-1.277-.152c-1.021 0-1.804.217-2.348.652-.544.435-.843 1.012-.895 1.73h1.75c.141-.599.623-.898 1.446-.898.468 0 .834.108 1.097.324.263.216.395.54.395.973v.758h-2.07c-.938 0-1.66.221-2.168.664-.508.442-.762 1.041-.762 1.797 0 .765.25 1.377.75 1.836.5.458 1.156.687 1.969.687zm.579-1.422c-.401 0-.742-.105-1.024-.316-.28-.211-.422-.512-.422-.903 0-.343.119-.62.356-.828.237-.208.59-.312 1.058-.312h1.735v.883c0 .421-.164.773-.492 1.054-.328.281-.732.422-1.211.422zm7.945 1.297v-11.227h-1.844V425h1.844zm7.086 0c.714 0 1.348-.112 1.902-.336a2.932 2.932 0 0 0 1.325-1.027c.328-.461.492-1.01.492-1.645 0-.75-.216-1.353-.649-1.808-.432-.456-1.002-.723-1.71-.801v-.086c.536-.136.97-.4 1.3-.793.33-.393.496-.908.496-1.543 0-.818-.282-1.46-.847-1.926-.566-.466-1.317-.7-2.254-.7h-4.313V425h4.258zm-.914-6.195h-1.469v-2.97h2.031c.495 0 .891.125 1.188.372.297.247.445.608.445 1.082 0 1.01-.732 1.516-2.195 1.516zm.18 4.695h-1.649v-3.29h2.172c.62 0 1.11.145 1.469.435.36.289.539.707.539 1.253 0 .584-.219.997-.656 1.239-.438.242-1.063.363-1.875.363zm9.859 1.64c1.12 0 2.018-.334 2.695-1.003.677-.67 1.016-1.603 1.016-2.801v-.984c0-1.157-.341-2.075-1.024-2.754-.682-.68-1.578-1.02-2.687-1.02-1.104 0-2 .346-2.688 1.04-.687.692-1.03 1.606-1.03 2.741v.985c0 1.203.336 2.136 1.011 2.8.674.665 1.577.997 2.707.997zm0-1.507c-.599 0-1.059-.216-1.379-.649-.32-.432-.48-.992-.48-1.68v-.89c0-.682.164-1.242.492-1.68.328-.437.784-.656 1.367-.656s1.036.219 1.36.656c.322.433.484.993.484 1.68v.89c0 .688-.158 1.248-.473 1.68-.315.433-.772.649-1.371.649zm6.969 1.367l1.718-2.86h.07l1.712 2.86h2.101l-2.718-4.195 2.742-4.078h-2.055l-1.719 2.843h-.078l-1.68-2.843h-2.148l2.695 4.164-2.632 4.109h1.992zm10.734-3.344v-.422a1.7 1.7 0 0 1 .14-.726c.095-.198.213-.36.356-.488s.395-.325.754-.59a5.008 5.008 0 0 0 .856-.735c.153-.161.273-.321.359-.48a2.804 2.804 0 0 0 .316-1.301c0-.458-.09-.87-.273-1.234a2.382 2.382 0 0 0-.738-.883 3.475 3.475 0 0 0-1.059-.512 4.437 4.437 0 0 0-1.266-.176 4.9 4.9 0 0 0-1.007.102 3.59 3.59 0 0 0-.938.34 2.93 2.93 0 0 0-.785.594 2.526 2.526 0 0 0-.523.898 3.396 3.396 0 0 0-.176 1.215h1.71c.006-.474.148-.862.426-1.164.28-.302.676-.453 1.192-.453.443 0 .814.114 1.113.343.3.23.45.573.45 1.032 0 .182-.025.345-.075.488-.05.143-.137.284-.262.422a3.214 3.214 0 0 1-.351.34c-.11.088-.279.216-.508.382-.474.344-.836.71-1.086 1.098-.25.388-.362.85-.336 1.387l.008.523h1.703zm-.789 3.492c.39 0 .707-.109.95-.328.241-.218.363-.5.363-.843 0-.355-.122-.641-.364-.86-.242-.219-.558-.328-.949-.328-.375 0-.682.11-.922.332-.24.221-.36.507-.36.856 0 .343.12.625.36.843.24.22.547.328.922.328z" fill="#4A4A4A" fill-rule="nonzero"></path><text font-size="16" font-weight="500" fill="#4A4A4A" class="sans-serif"><tspan x="417.887" y="326">Are you willing to </tspan> <tspan x="407.313" y="345">restart before using </tspan> <tspan x="438.914" y="364">VirtualBox?</tspan></text><g transform="translate(199.000000, 199.000000)"><path fill="#FDF2D0" d="M35.518.259l35.26 35.259-35.26 35.26L.26 35.517z"></path><path d="M36.365 38.193v-.606c0-.412.067-.76.202-1.045.135-.284.305-.518.51-.701.207-.184.568-.466 1.085-.848.27-.195.486-.362.651-.5.165-.139.357-.324.578-.556a3.28 3.28 0 0 0 .517-.69c.123-.229.23-.506.32-.832a3.89 3.89 0 0 0 .135-1.039c0-.658-.131-1.25-.393-1.774a3.424 3.424 0 0 0-1.062-1.269 4.995 4.995 0 0 0-1.521-.736 6.379 6.379 0 0 0-1.82-.252c-.501 0-.984.048-1.448.146a5.16 5.16 0 0 0-1.348.488c-.434.229-.81.513-1.129.854-.318.34-.569.77-.752 1.291-.184.52-.268 1.103-.253 1.747h2.46c.007-.682.211-1.24.612-1.674.4-.434.971-.651 1.712-.651.637 0 1.17.165 1.6.494.431.33.646.824.646 1.482 0 .263-.035.496-.106.702a1.778 1.778 0 0 1-.376.607 4.62 4.62 0 0 1-.506.488c-.157.128-.4.311-.73.55-.681.495-1.201 1.02-1.56 1.579-.36.557-.521 1.222-.484 1.993l.012.752h2.448zm-1.135 5.02c.562 0 1.017-.157 1.365-.471.348-.315.522-.72.522-1.213 0-.51-.174-.921-.522-1.236-.348-.314-.803-.471-1.365-.471-.539 0-.98.159-1.325.477-.344.318-.516.728-.516 1.23 0 .494.172.898.516 1.213.345.314.786.471 1.325.471z" fill="#4A4A4A" fill-rule="nonzero"></path></g><g transform="translate(634.500000, 248.000000) rotate(-270.000000) translate(-634.500000, -248.000000) translate(506.000000, 238.000000)"><path stroke="#455A64" stroke-width="2" d="M0 10.5h249"></path><path fill="#455A64" d="M239 20.5l18-9.999L239 .5v20"></path></g><g transform="translate(516.500000, 507.500000) scale(1, -1) translate(-516.500000, -507.500000) translate(482.000000, 443.000000)"><path d="M0 129V13.001A2.997 2.997 0 0 1 3.001 10H52" stroke="#455A64" stroke-width="2"></path><path fill="#455A64" d="M51 20l18-9.999L51 0v20"></path></g><path stroke="#455A64" stroke-width="2" d="M235.991 410h214.011"></path><g transform="translate(447.000000, 375.000000)"><path fill="#FDF2D0" d="M35.518.259l35.26 35.259-35.26 35.26L.26 35.517z"></path><path d="M36.365 38.193v-.606c0-.412.067-.76.202-1.045.135-.284.305-.518.51-.701.207-.184.568-.466 1.085-.848.27-.195.486-.362.651-.5.165-.139.357-.324.578-.556a3.28 3.28 0 0 0 .517-.69c.123-.229.23-.506.32-.832a3.89 3.89 0 0 0 .135-1.039c0-.658-.131-1.25-.393-1.774a3.424 3.424 0 0 0-1.062-1.269 4.995 4.995 0 0 0-1.521-.736 6.379 6.379 0 0 0-1.82-.252c-.501 0-.984.048-1.448.146a5.16 5.16 0 0 0-1.348.488c-.434.229-.81.513-1.129.854-.318.34-.569.77-.752 1.291-.184.52-.268 1.103-.253 1.747h2.46c.007-.682.211-1.24.612-1.674.4-.434.971-.651 1.712-.651.637 0 1.17.165 1.6.494.431.33.646.824.646 1.482 0 .263-.035.496-.106.702a1.778 1.778 0 0 1-.376.607 4.62 4.62 0 0 1-.506.488c-.157.128-.4.311-.73.55-.681.495-1.201 1.02-1.56 1.579-.36.557-.521 1.222-.484 1.993l.012.752h2.448zm-1.135 5.02c.562 0 1.017-.157 1.365-.471.348-.315.522-.72.522-1.213 0-.51-.174-.921-.522-1.236-.348-.314-.803-.471-1.365-.471-.539 0-.98.159-1.325.477-.344.318-.516.728-.516 1.23 0 .494.172.898.516 1.213.345.314.786.471 1.325.471z" fill="#4A4A4A" fill-rule="nonzero"></path></g><g transform="translate(395.000000, 398.000000)"><rect stroke="#455A64" fill="#FFF" x=".5" y=".5" width="41" height="23" rx="3"></rect><path d="M13.176 17V9.617h.078L18.137 17h1.625V6.336h-1.805v7.351h-.086l-4.875-7.351h-1.625V17h1.805zm13.39.21c1.391 0 2.487-.424 3.29-1.273.802-.848 1.203-2.023 1.203-3.523v-1.406c0-1.51-.399-2.702-1.196-3.574-.797-.873-1.89-1.309-3.281-1.309-1.385 0-2.48.435-3.281 1.305-.802.87-1.203 2.062-1.203 3.578v1.406c0 1.505.397 2.681 1.191 3.527.794.847 1.887 1.27 3.277 1.27zm.008-1.655c-.77 0-1.39-.266-1.86-.797-.468-.531-.702-1.31-.702-2.336v-1.43c0-1.031.235-1.825.707-2.383.471-.557 1.09-.836 1.855-.836.766 0 1.384.28 1.856.836.471.558.707 1.352.707 2.383v1.43c0 1.026-.233 1.805-.7 2.336-.466.531-1.087.797-1.863.797z" fill="#4A4A4A" fill-rule="nonzero"></path></g><g transform="translate(613.000000, 455.000000)"><rect stroke="#455A64" fill="#FFF" x=".5" y=".5" width="41" height="23" rx="3"></rect><path d="M13.176 17V9.617h.078L18.137 17h1.625V6.336h-1.805v7.351h-.086l-4.875-7.351h-1.625V17h1.805zm13.39.21c1.391 0 2.487-.424 3.29-1.273.802-.848 1.203-2.023 1.203-3.523v-1.406c0-1.51-.399-2.702-1.196-3.574-.797-.873-1.89-1.309-3.281-1.309-1.385 0-2.48.435-3.281 1.305-.802.87-1.203 2.062-1.203 3.578v1.406c0 1.505.397 2.681 1.191 3.527.794.847 1.887 1.27 3.277 1.27zm.008-1.655c-.77 0-1.39-.266-1.86-.797-.468-.531-.702-1.31-.702-2.336v-1.43c0-1.031.235-1.825.707-2.383.471-.557 1.09-.836 1.855-.836.766 0 1.384.28 1.856.836.471.558.707 1.352.707 2.383v1.43c0 1.026-.233 1.805-.7 2.336-.466.531-1.087.797-1.863.797z" fill="#4A4A4A" fill-rule="nonzero"></path></g><circle fill="#455A64" cx="234.5" cy="409.5" r="3.5"></circle><g transform="translate(548.000000, 399.000000)"><rect stroke="#455A64" fill="#FFF" x=".5" y=".5" width="41" height="23" rx="3"></rect><path d="M12.508 17v-4.203l3.57-6.461h-2.062l-2.391 4.562h-.086L9.164 6.336h-2.11l3.571 6.5V17h1.883zm11.797 0v-1.617h-4.852v-3.024h4.57v-1.53h-4.57V7.952h4.852V6.336h-6.727V17h6.727zm5.758.21c1.255 0 2.26-.293 3.015-.882.755-.588 1.133-1.398 1.133-2.43 0-.453-.07-.852-.211-1.199a2.206 2.206 0 0 0-.613-.863 3.707 3.707 0 0 0-.887-.563 6.069 6.069 0 0 0-1.125-.367l-1.71-.398c-.98-.219-1.47-.67-1.47-1.352 0-.458.18-.82.54-1.086.359-.265.838-.398 1.437-.398.635 0 1.134.15 1.496.45.362.299.564.675.605 1.128h1.797a2.853 2.853 0 0 0-.539-1.668 3.29 3.29 0 0 0-1.39-1.098c-.578-.25-1.227-.375-1.946-.375-.718 0-1.368.12-1.949.36-.58.24-1.05.605-1.41 1.097-.36.493-.54 1.072-.54 1.739 0 .422.071.803.212 1.144.14.341.337.627.59.856.252.229.53.416.832.562a4.98 4.98 0 0 0 1.008.352l1.718.406c.578.135 1.002.316 1.27.543.268.227.402.53.402.91 0 .474-.189.85-.566 1.129-.378.279-.903.418-1.575.418-.703 0-1.257-.155-1.664-.465-.406-.31-.63-.696-.671-1.16h-1.836c.01.307.058.607.144.898.086.292.23.58.434.864.203.284.453.531.75.742.297.21.68.381 1.148.512.469.13.992.195 1.57.195z" fill="#4A4A4A" fill-rule="nonzero"></path></g><g transform="translate(461.000000, 456.000000)"><rect stroke="#455A64" fill="#FFF" x=".5" y=".5" width="41" height="23" rx="3"></rect><path d="M12.508 17v-4.203l3.57-6.461h-2.062l-2.391 4.562h-.086L9.164 6.336h-2.11l3.571 6.5V17h1.883zm11.797 0v-1.617h-4.852v-3.024h4.57v-1.53h-4.57V7.952h4.852V6.336h-6.727V17h6.727zm5.758.21c1.255 0 2.26-.293 3.015-.882.755-.588 1.133-1.398 1.133-2.43 0-.453-.07-.852-.211-1.199a2.206 2.206 0 0 0-.613-.863 3.707 3.707 0 0 0-.887-.563 6.069 6.069 0 0 0-1.125-.367l-1.71-.398c-.98-.219-1.47-.67-1.47-1.352 0-.458.18-.82.54-1.086.359-.265.838-.398 1.437-.398.635 0 1.134.15 1.496.45.362.299.564.675.605 1.128h1.797a2.853 2.853 0 0 0-.539-1.668 3.29 3.29 0 0 0-1.39-1.098c-.578-.25-1.227-.375-1.946-.375-.718 0-1.368.12-1.949.36-.58.24-1.05.605-1.41 1.097-.36.493-.54 1.072-.54 1.739 0 .422.071.803.212 1.144.14.341.337.627.59.856.252.229.53.416.832.562a4.98 4.98 0 0 0 1.008.352l1.718.406c.578.135 1.002.316 1.27.543.268.227.402.53.402.91 0 .474-.189.85-.566 1.129-.378.279-.903.418-1.575.418-.703 0-1.257-.155-1.664-.465-.406-.31-.63-.696-.671-1.16h-1.836c.01.307.058.607.144.898.086.292.23.58.434.864.203.284.453.531.75.742.297.21.68.381 1.148.512.469.13.992.195 1.57.195z" fill="#4A4A4A" fill-rule="nonzero"></path></g><g transform="translate(279.000000, 223.000000)"><rect stroke="#455A64" fill="#FFF" x=".5" y=".5" width="41" height="23" rx="3"></rect><path d="M12.508 17v-4.203l3.57-6.461h-2.062l-2.391 4.562h-.086L9.164 6.336h-2.11l3.571 6.5V17h1.883zm11.797 0v-1.617h-4.852v-3.024h4.57v-1.53h-4.57V7.952h4.852V6.336h-6.727V17h6.727zm5.758.21c1.255 0 2.26-.293 3.015-.882.755-.588 1.133-1.398 1.133-2.43 0-.453-.07-.852-.211-1.199a2.206 2.206 0 0 0-.613-.863 3.707 3.707 0 0 0-.887-.563 6.069 6.069 0 0 0-1.125-.367l-1.71-.398c-.98-.219-1.47-.67-1.47-1.352 0-.458.18-.82.54-1.086.359-.265.838-.398 1.437-.398.635 0 1.134.15 1.496.45.362.299.564.675.605 1.128h1.797a2.853 2.853 0 0 0-.539-1.668 3.29 3.29 0 0 0-1.39-1.098c-.578-.25-1.227-.375-1.946-.375-.718 0-1.368.12-1.949.36-.58.24-1.05.605-1.41 1.097-.36.493-.54 1.072-.54 1.739 0 .422.071.803.212 1.144.14.341.337.627.59.856.252.229.53.416.832.562a4.98 4.98 0 0 0 1.008.352l1.718.406c.578.135 1.002.316 1.27.543.268.227.402.53.402.91 0 .474-.189.85-.566 1.129-.378.279-.903.418-1.575.418-.703 0-1.257-.155-1.664-.465-.406-.31-.63-.696-.671-1.16h-1.836c.01.307.058.607.144.898.086.292.23.58.434.864.203.284.453.531.75.742.297.21.68.381 1.148.512.469.13.992.195 1.57.195z" fill="#4A4A4A" fill-rule="nonzero"></path></g><g transform="translate(213.000000, 280.000000)"><rect stroke="#455A64" fill="#FFF" x=".5" y=".5" width="41" height="23" rx="3"></rect><path d="M13.176 17V9.617h.078L18.137 17h1.625V6.336h-1.805v7.351h-.086l-4.875-7.351h-1.625V17h1.805zm13.39.21c1.391 0 2.487-.424 3.29-1.273.802-.848 1.203-2.023 1.203-3.523v-1.406c0-1.51-.399-2.702-1.196-3.574-.797-.873-1.89-1.309-3.281-1.309-1.385 0-2.48.435-3.281 1.305-.802.87-1.203 2.062-1.203 3.578v1.406c0 1.505.397 2.681 1.191 3.527.794.847 1.887 1.27 3.277 1.27zm.008-1.655c-.77 0-1.39-.266-1.86-.797-.468-.531-.702-1.31-.702-2.336v-1.43c0-1.031.235-1.825.707-2.383.471-.557 1.09-.836 1.855-.836.766 0 1.384.28 1.856.836.471.558.707 1.352.707 2.383v1.43c0 1.026-.233 1.805-.7 2.336-.466.531-1.087.797-1.863.797z" fill="#4A4A4A" fill-rule="nonzero"></path></g></g></svg>