<svg xmlns="http://www.w3.org/2000/svg" xmlns:xlink="http://www.w3.org/1999/xlink" viewBox="0 0 350 110"><g fill="#edc7af"><path d="M61.9 26l-6.2-3.6c-.2-.1-.5-.2-.8-.2l6.2 3.6c.3 0 .5.1.8.2zM61.1 25.9l-6.2-3.6c-.3 0-.6.1-.9.2l6.2 3.6c.3-.1.6-.2.9-.2zM60.2 26.1L54 22.5c-.1 0-.1.1-.2.1l6.2 3.6s.1-.1.2-.1z"/></g><path d="M53.7 22.6L31.9 35.2c-1.1.6-2 1.8-2.4 3.1l6.2 3.6c.4-1.3 1.3-2.5 2.4-3.1l21.8-12.6-6.2-3.6z" fill="#fff"/><path d="M35.6 65.2V43.5v-.3c0-.4.1-.8.3-1.2l-6.2-3.6-.3 1.2v22c0 .8.3 1.4.8 1.7l6.2 3.6c-.5-.3-.8-.9-.8-1.7z" fill="#edd9cc"/><path d="M38.2 38.8c-1.5.9-2.7 2.9-2.7 4.6v21.7c0 1.7 1.2 2.4 2.7 1.5L60 54c1.5-.8 2.7-2.9 2.7-4.6V27.7c0-1.7-1.2-2.4-2.7-1.5L38.2 38.8z" fill="#edc7af"/><path d="M113.9 73.3l3.8-2.2c.5-.3.9-1 .9-1.9l-3.8 2.2c0 .9-.4 1.6-.9 1.9z" fill="#7295aa"/><path fill="#ede0d8" d="M114.8 71.4l3.8-2.2V50.5l-3.8 2.2z"/><path d="M115.6 45.2L62 14.4c-.8-.5-1.6-.5-2.2-.2L56 16.4c.6-.3 1.3-.3 2.2.2l53.6 30.8c1.7 1 3 3.3 3 5.3l3.8-2.2c0-1.9-1.3-4.3-3-5.3z" fill="#fff9f5"/><path d="M58.2 16.6c-1.7-1-3-.2-3.1 1.7L55 40.6c0 1.9 1.4.7 3 1.7l53.6 30.8c1.7 1 3 .2 3.1-1.7l.1-18.7c0-1.9-1.4-4.3-3-5.3L58.2 16.6z" fill="#edd9cc"/><path d="M108.2 78.8v6.4c.7-.4 1.1-1 1.1-1.6v-6.4c0 .6-.3 1.2-1.1 1.6z" fill="#edc7af"/><path fill="#edc7af" d="M90.7 88.9v6.4l17.6-10.1-.1-6.4zM90.7 95.3v-6.4c-1.5.8-3.9.8-5.3 0L36 60.3c-.7-.4-1.1-1-1.1-1.5v6.4c0 .6.4 1.1 1.1 1.5l53.4 31.1-.8-1.8c.8-.1 1.5-.3 2.1-.7z"/><path d="M36.1 57.2c-1.5.9-1.5 2.2 0 3.1L85.4 89c1.5.8 3.9.8 5.3 0l17.5-10.1c1.5-.8 1.5-2.2 0-3.1L58.9 47.1c-1.5-.9-3.9-.9-5.3 0L36.1 57.2z" fill="#ede0d8"/><path d="M36 53.5l49.3 28.7c1.5.8 3.9.8 5.3 0l17.5-10.1c.7-.4 1.1-1 1.1-1.6v6.4c0 .6-.4 1.1-1.1 1.6L90.6 88.6c-1.5.9-3.9.9-5.3 0L36 59.9c-.7-.4-1.1-1-1.1-1.5V52c0 .5.4 1 1.1 1.5z" fill="#ede0d8"/><path d="M36.1 50.4c-1.5.8-1.5 2.2 0 3.1l49.3 28.7c1.5.8 3.9.8 5.3 0l17.5-10.1c1.5-.8 1.5-2.2 0-3.1L58.9 40.3c-1.5-.9-3.9-.9-5.3 0L36.1 50.4z" fill="#fff9f5"/><path d="M51.4 45.5c-1.4 4.9 1.9 7.9 3.9 7.9l16.6-.8c1.6 0 3-1.3 3-3v-.4c0-1.6-1.3-3-3-3l-16.6-.8c-2 .1-3.9.1-3.9.1z" fill="#040f2d"/><path d="M82.4 71.6c.3.1 4.1 1.5 3.7 2.3-.4.8-2.8 2.1-5.1.4 0 0-2.3.7-3-.4-.5-.7-2.5-4.6 2.4-3.8 0-.1 1.4 1.3 2 1.5zM83.8 67c.2.1 3.3 2.8 2.7 3.4-.6.6-3.4 1-4.9-1.4 0 0-2.4-.1-2.7-1.4-.2-.9-.8-5.2 3.5-2.7 0 .1.8 1.8 1.4 2.1z" fill="#149eab"/><path d="M83.1 66.1l-8.3-18c-.9-1.6-2.9-2.3-4.5-1.4-1.6.9-2.3 2.9-1.4 4.6l6 9.7 3.9 6.3c.3-.2 3.5-.5 4.3-1.2z" fill="#040f2d"/><path d="M48.2 48.4c-3.1 4-1.1 8 .8 8.7l15.7 5.2c1.5.6 3.2-.2 3.8-1.7l.1-.3c.6-1.5-.2-3.2-1.7-3.8l-15.2-6.7c-1.8-.7-3.5-1.4-3.5-1.4z" fill="#022540"/><path d="M81.9 71.4L68 57.1c-1.4-1.3-3.5-1.2-4.8.2s-2.3 2.7-.9 4l10 7.9 5.8 4.7c.3-.3 3.2-1.6 3.8-2.5z" fill="#022540"/><path d="M49.6 20.7c.5-2 2.4-6.7 2.1-8.7 2.4-.9 3.3 20.7-.2 21.7-1.4.3-2.2-12.1-1.9-13zM42.6 11.8c.7-.6 2.6 3.9 2.7 5.1 0 .1-.1.2-.2.1 0 .4.1.7.1 1.1v.3c.8 1.5 2.7 4.1 1.9 5.9-.7 1.4-2.7 7.3-3.1 6-.4-1.4-2.7-3.6-2.9-5.3-.5-4.1 1.5-13.1 1.5-13.2z" fill="#160503"/><g><path d="M54.8 33.4c.6 1.5 2.4 2.2 3.8 1.6 1.5-.6 1.9-1.3 1.2-2.8l-3.2-9.1c-.6-1.5-2.4-2.2-3.8-1.6-1.5.6-2.2 2.4-1.5 3.9l3.5 8z" fill="#12becc"/></g><path d="M56.3 32.7c.9-1.3 1.8-1.2 3.1-.4l8.9 2.2.3 2.6-11.7-1.5c-1.3-.9-1.5-1.6-.6-2.9z" fill="#12becc"/><path d="M57.4 34.9c-.1-1.9.1-5.6-.5-7.3-.3-1-2.7-5.5-2.8-5.7-.3-.4-.8-.7-1.3-.7 0 0-5.5-.4-11.4 4.1-.4.3 4.1 18.9 4.1 19 0 .2 0 .3.1.4 0 .1-.4 6.7 1.3 10 0 0 5.4-2.5 8.9-4.6 3.3-2 4.1-4.3 4.1-4.3-1.2-4.6-2.4-10.4-2.5-10.9z" fill="#149eab"/><path d="M49.9 25c-.7.3-1.4.1-2.1-.1-1.1-.4-1.7-1.9-1.7-1.9l-.3-4.9 4.3.4s.4 3.6.4 4.9c0 .7.1 1.3-.6 1.6z" fill="#d9b4a4"/><path d="M43.3 19.8c2.6 2.2 3.5 1 5.9-.8 2.3-1.8 3.3-3.7 2.4-7-.9-3.5-6.1-3.7-8.4-1.5-3.3 3.3-2.4 7.2.1 9.3z" fill="#260905"/><path d="M43.6 16.4c.1 1.1.6 2.9 1.1 3.9 1.2 2.4 5.5 2.7 6.2 1.8.8-1.1 1.7-5.1 1.2-8.5-.4-3.4-2.2-2.8-4.9-2.8-1.7 0-4 2.2-3.6 5.6z" fill="#e9c2b0"/><path d="M45.2 9.9c2-1.7 5.3-.4 6.3.8 1.5 1.7 1.7 2.9 1.7 4.8l-2.7.2c-.2-.2-.7-1.3-.9-1.5.1.3.4 1.4.2 1.7 0 .1-1.3 0-1.3 0-.1-.1-.4-.9-.4-1v1.2s-3.3.9-4.6.7c-.1-.1 0-5.6 1.7-6.9z" fill="#260905"/><g><path d="M113.6 56.1c-.2-.1-.5-.2-.8-.2s-.6.1-.9.2c-.1 0-.1.1-.2.1L89.9 68.8c-1.1.6-2 1.8-2.4 3.1l6.2 3.6c.4-1.3 1.3-2.5 2.4-3.1l21.8-12.6c.1 0 .1-.1.2-.1.3-.2.6-.2.9-.2.3 0 .6 0 .8.2l-6.2-3.6z" fill="#fff"/><path d="M93.5 98.8V77.1v-.3c0-.4.1-.8.3-1.2L87.6 72l-.3 1.2v22c0 .8.3 1.4.8 1.7l6.2 3.6c-.5-.2-.8-.8-.8-1.7z" fill="#edd9cc"/><g><path d="M96.2 72.5c-1.5.8-2.7 2.9-2.7 4.6v21.7c0 1.7 1.2 2.4 2.7 1.5L118 87.7c1.5-.8 2.7-2.9 2.7-4.6V61.4c0-1.7-1.2-2.4-2.7-1.5L96.2 72.5z" fill="#edc7af"/></g></g><g><path d="M40.2 40.7c0 1.6 1.3 2.8 2.9 2.8 1.6 0 2.8-1.3 2.8-2.9l-.3-14.1c0-1.6-1.3-2.8-2.9-2.8-1.6 0-2.8 1.3-2.8 2.9l.3 14.1z" fill="#12becc"/></g><g><path d="M53.3 40.5c-.9-.8-1.1-2.7-.9-3.3.4-.2 1.2-.6 2.2-1 1.4-.5 3-.8 3.9-.4 2.1 1 1.7 1.9 1.2 2.7-.9 1.3-5.3.7-6.4 2z" fill="#e9c2b0"/><path d="M40.3 41.3c-.3-1.5.6-3 2.2-3.3l11.2-1.6 1.1 3.8-11.1 3.4c-1.6.2-3.1-.8-3.4-2.3z" fill="#12becc"/></g><path d="M41.6 12.8s4.8 2.8 4 3.8c-1.3 1.6 2.9 12.5 4.3 15 1 1.7-4.5 2.7-4.6 2.6-2.7-2.5-3.1-3.4-4.1-6.8-2.3-8 .4-14.6.4-14.6z" fill="#260905"/><g><path d="M54.8 37.9l11.8-7c.2-.1.3-.1.4 0l.6.3c-.1-.1-.3 0-.4 0l-.6.4c.1.1.2.1.4.2.1 0 .2.1.2.1.1 0 .1.1.1.2l.1 7.3c0 .2-.2.5-.3.6-.1-.1-.2-.1-.3-.2l.3.2-11.4 6.7c-.1.1-.2.1-.3 0l-.6-.3v.7c0 .2.1.3.2.4-.1-.1-.2-.1-.3-.2-.1-.1-.2-.1-.3-.2-.1-.1-.2-.2-.2-.4l-.1-7.9c.1-.2.4-.7.7-.9z" fill="#024462"/><path d="M55.6 38.7L67 32c.2-.1.4 0 .4.2l.1 7.3c0 .2-.2.5-.3.6l-11.4 6.7c-.2.1-.4 0-.4-.2l-.1-7.3c0-.2.1-.5.3-.6z" fill="#025a82"/><path d="M54.8 39.3l.1 7.9c0 .4.3.5.6.3l11.8-7c.3-.2.6-.7.6-1l-.1-7.9c0-.4-.3-.5-.6-.3l-11.8 7c-.3.1-.6.6-.6 1zm.5 0c0-.2.2-.5.3-.6L67 32h.4v.2l.1 7.3c0 .1 0 .2-.1.3 0 0 0 .1-.1.1l-.1.1h-.1l-3.4 2-8 4.7c-.1.1-.2.1-.3 0 0 0-.1-.1-.1-.2v-7.2z" fill="#025a82"/></g><path d="M68.2 34.5c-1.2.4-2.4.5-2.7 1.2-.4.8-.5 1.6 1 2.3.5.2.8.2 1.5 0 1.5-.5 1.1-3.5.2-3.5z" fill="#e5bd99"/><g><path d="M104 61.1c.3 0 .6-.1.8-.4.2-.3.3-.6.2-.9 0-.5.4-2.4 1.4-3 .2-.1.8-.3 1.3-.4 1.7-.5 4.9-1.4 4.4-4.7-.1-.6-.6-1-1.2-.9-.6.1-1 .6-.9 1.2.2 1.2-.7 1.6-2.8 2.2-.7.2-1.3.4-1.8.7-2.2 1.3-2.5 4.6-2.5 4.7 0 .3-.1.9.4 1.3.2.1.4.2.7.2zM98.5 69.4l-.8-.5c0 .3.1.5.3.6l.8.5c-.2 0-.3-.3-.3-.6z" fill="#c9740c"/><path fill="#c9740c" d="M98.5 65l-.8-.5V69l.8.4z"/><path d="M100.2 63.2l-.8-.5c-.2-.1-.4-.1-.7.1l.8.5c.2-.1.5-.2.7-.1z" fill="#5d6768"/><path d="M99.5 63.3l-.8-.5c-.5.3-1 1.1-1 1.7l.8.5c0-.6.4-1.4 1-1.7z" fill="#586162"/><path d="M99.5 63.3c-.5.3-1 1.1-1 1.7v4.4c0 .6.4.9 1 .6.5-.3 1-1.1 1-1.7v-4.4c-.1-.6-.5-.9-1-.6z" fill="#f08707"/><path d="M95.2 67.7l-.8-.5c0 .3.1.5.3.6l.8.5c-.2-.1-.3-.3-.3-.6z" fill="#c9740c"/><path fill="#c9740c" d="M95.2 65.5l-.8-.5v2.3l.8.4z"/><path d="M96.8 63.7l-.8-.5c-.2-.1-.4-.1-.7.1l.8.5c.3-.2.6-.2.7-.1z" fill="#5d6768"/><path d="M96.1 63.8l-.8-.5c-.5.3-1 1.1-1 1.7l.8.5c.1-.7.5-1.4 1-1.7z" fill="#586162"/><path d="M96.1 63.8c-.5.3-1 1.1-1 1.7v2.3c0 .6.4.9 1 .6.5-.3 1-1.1 1-1.7v-2.3c0-.7-.4-.9-1-.6z" fill="#f08707"/><path d="M104 66.3l-.8-.5c0 .3.1.5.3.6l.8.5c-.2-.1-.3-.3-.3-.6z" fill="#c9740c"/><path fill="#c9740c" d="M104 61.9l-.8-.5v4.4l.8.5z"/><path d="M105.7 60.2l-.8-.5c-.2-.1-.4-.1-.7.1l.8.5c.2-.2.5-.2.7-.1z" fill="#5d6768"/><path d="M105 60.2l-.8-.5c-.5.3-1 1.1-1 1.7l.8.5c0-.6.4-1.3 1-1.7z" fill="#5d6768"/><path d="M105 60.2c-.5.3-1 1.1-1 1.7v4.3c0 .6.4.9 1 .6.5-.3 1-1.1 1-1.7v-4.3c-.1-.6-.5-.9-1-.6z" fill="#f08707"/><g><path d="M100.9 64.7l-.8-.5c0 .3.1.5.3.6l.8.5c-.2-.1-.3-.3-.3-.6z" fill="#5d6768"/><path fill="#586162" d="M100.9 62.5l-.8-.5v2.3l.8.4z"/><path d="M102.6 60.7l-.8-.5c-.2-.1-.4-.1-.7.1l.8.5c.2-.2.5-.2.7-.1z" fill="#5d6768"/><path d="M101.9 60.8l-.8-.5c-.5.3-1 1.1-1 1.7l.8.5c0-.7.4-1.4 1-1.7z" fill="#5d6768"/><path d="M101.9 60.8c-.5.3-1 1.1-1 1.7v2.3c0 .6.4.9 1 .6.5-.3 1-1.1 1-1.7v-2.3c-.1-.7-.5-.9-1-.6z" fill="#93a2a3"/></g><g><ellipse transform="rotate(-17.787 99.698 61.4)" cx="99.7" cy="61.4" rx="6.7" ry="4.8" fill="#f08707"/></g><g><circle cx="93.8" cy="60.3" r="4.2" fill="#f09a07"/></g><path d="M88 60.4c.7.4 1.5.8 2.1 1.4-.6-.7-1.2-1.1-2.1-1.4zM90.1 62.1c-.6-.4-1.3-.7-2-.6v.1c.8-.1 1.3.3 2 .5zM90.5 62.4c-.6-.3-1.5-.1-2.1 0h1c.4.1.8.1 1.1 0 .1.1.1 0 0 0zM93.2 63.4c.2 1 1 1.7 1.6 2.4 0 0 .1 0 0 0-.4-.8-1.3-1.4-1.6-2.4zM96.2 65c-.8-.6-1.8-1.2-2.7-1.7.8.6 1.7 1.4 2.7 1.7 0 .1.1 0 0 0zM97.8 63.9c-1.3-.6-2.6-.9-4-.9.7.2 1.4.2 2.1.4.6.1 1.2.4 1.9.5 0 .1 0 0 0 0z" fill="#333"/><g><path d="M90.6 62l.7 1.3c.1.2.2.3.3.3.1.1.2.1.3 0l.7-.4c.2-.1.2-.4 0-.7l-2.1-1.2c-.1.1-.1.4.1.7z" fill="#333"/></g><g><path d="M92.9 56.7l.3-.3c-1.3-1.9-2.4-2.1-2.5-2.2l-.3.3c.1.1 1.3.6 2.5 2.2z" fill="#c9740c"/><path d="M90.4 54.6c0 .1-.5.9.5 2.6.6-.3 1.3-.5 2-.4-1.2-1.7-2.4-2.2-2.5-2.2z" fill="#f08707"/></g><g><path d="M99 57.8c-.1 0-1.7-.7-2.9-.1l-.5.3c1.2-.6 2.8 0 2.9.1l.5-.3zM97.1 60.7l.5-.3c1.2-.7 1.3-2.5 1.4-2.6l-.5.3c0 .1-.2 1.9-1.4 2.6z" fill="#c9740c"/><path d="M98.5 58.1c-.1 0-1.7-.7-2.9-.1 0 0 .5.4.9 1.2.5.8.6 1.6.6 1.6 1.2-.7 1.4-2.6 1.4-2.7z" fill="#f08707"/></g><ellipse cx="94.4" cy="61.1" rx=".4" ry=".4" fill="#1c2929"/><ellipse cx="90.8" cy="59.3" rx=".4" ry=".4" fill="#1c2929"/></g><g><defs><path id="a" d="M10.9 65.9l-1.5.9c.1 0 .1-.1.1-.1l1.5-.9c-.1 0-.1 0-.1.1z"/></defs><clipPath id="b"><use xlink:href="#a" overflow="visible"/></clipPath><g clip-path="url(#b)"><path d="M9.4 66.7l1.5-.9-.1.1-1.5.9.1-.1z" fill="#4a2d1b"/></g><path fill="#392215" d="M9.5 66.6l1.5-.9v.1l-1.6.9z"/><defs><path id="c" d="M11.1 65.7l-1.5.9c.1 0 .1-.1 0-.2l1.5-.9v.2z"/></defs><clipPath id="d"><use xlink:href="#c" overflow="visible"/></clipPath><g clip-path="url(#d)"><path d="M9.5 66.3l1.5-.9c.1.1.1.2 0 .2l-1.5.9c.1 0 .1-.1 0-.2z" fill="#4a2d1b"/></g><defs><path id="e" d="M8.4 59.9l1.5-.9c.3-.2.6-.2.8-.1l-1.5.9c-.3-.1-.6-.1-.8.1z"/></defs><clipPath id="f"><use xlink:href="#e" overflow="visible"/></clipPath><g clip-path="url(#f)"><path d="M8.4 59.9l1.5-.9c.3-.2.6-.2.8-.1l-1.5.9c-.3-.1-.6-.1-.8.1z" fill="#4a2d1b"/></g><g><defs><path id="g" d="M9.2 59.8l1.5-.9c.2.1.3.4.4.8.1.4-1 1.5-1 2.7 0 1.1.3 1.9.9 3l-1.5.9c-.6-1.1-.9-1.9-.9-3 0-1.2 1-2.3 1-2.7-.1-.4-.2-.7-.4-.8z"/></defs><clipPath id="h"><use xlink:href="#g" overflow="visible"/></clipPath><g clip-path="url(#h)"><path d="M9.2 59.8l1.5-.9c.2.1.3.4.4.8.1.4-1 1.5-1 2.7 0 1.1.3 1.9.9 3l-1.5.9c-.6-1.1-.9-1.9-.9-3 0-1.2 1-2.3 1-2.7-.1-.4-.2-.7-.4-.8z" fill="#4a2d1b"/></g></g><g><path d="M9.2 59.8c.2.1.3.4.4.8.1.4-1 1.5-1 2.7 0 1.1.3 1.9.9 3 .1.1.1.2 0 .2v.1c-.2.1-.6.4-1 .1-.4-.2-.8-.8-1.2-2.3-.3-1.1-.3-2.2-.1-3 .1-.7 1.3-2 2-1.6z" fill="#663d26"/></g><g><path d="M23 57.8l-.5-.3c.9-.5 1.9-.8 3.1-.4.2.1.3.1.5.2l.5.3c-.1-.1-.3-.2-.5-.2-1.2-.4-2.2-.2-3.1.4z" fill="#452d1e"/><path d="M19.6 64l-.5-.3c0-.1-.1-1.4.5-3 .3-.7 1.3-2.4 2.9-3.2l.5.3c-1.5.9-2.6 2.6-2.9 3.2-.6 1.5-.5 2.9-.5 3z" fill="#452d1e"/><path d="M23 57.8c.9-.5 1.9-.8 3.1-.4 2.5.8.9 3.9-.8 4.9-.5.3-1 .4-1.4.2-.9-.3-1.7-.1-2.3.3-.7.4-1.2 1-1.2 1.2h-.8c0-.1-.1-1.4.5-3 .3-.7 1.3-2.4 2.9-3.2z" fill="#5e3d29"/></g><g><path fill="#593621" d="M7.9 76.8l1.6-.9.5.3-1.6.9z"/><path d="M8.4 77.1l1.6-.9c.1 0 .1.1.2.1l-1.6.9c-.1-.1-.1-.1-.2-.1z" fill="#53331f"/><path d="M8.6 77.2l1.6-.9c.2.2.3.4.4.6l-1.6.9c-.1-.2-.2-.4-.4-.6z" fill="#683f26"/><path d="M9 77.8l1.6-.9c0 .1.1.3.1.4 0 .2-.1.4-.2.4l-1.6.9c.1-.1.2-.2.2-.4 0-.1 0-.2-.1-.4z" fill="#53331f"/><path fill="#52321e" d="M7.9 70.2l1.6-.9v6.6l-1.6.9z"/><path d="M6.4 68.6l1.6-.9c.2-.1.4-.1.6.1l-1.6.9c-.2-.2-.4-.2-.6-.1z" fill="#53331f"/><g><path d="M7 68.6l1.6-.9c.1 0 .1.1.2.1l-1.6.9s-.1 0-.2-.1z" fill="#53331f"/><path d="M7.2 68.8l1.6-.9c.3.2.5.5.6.9l-1.6.9c-.1-.4-.3-.7-.6-.9z" fill="#683f26"/><path d="M7.8 69.7l1.6-.9c.1.2.1.4.1.5l-1.6.9c0-.2 0-.4-.1-.5z" fill="#53331f"/></g><g><path d="M7 68.6c.5.3.9 1 .9 1.6v6.6l.5.3c.4.2.7.7.7 1.1 0 .4-.3.6-.7.4l-1.3-.8c-.1 0-.2-.1-.2-.2-.4-.3-.7-.9-.7-1.4v-7.1c-.1-.5.3-.8.8-.5z" fill="#6f4329"/></g></g><g><path fill="#593621" d="M14.3 80.4l1.6-.9.5.3-1.6.9z"/><path d="M14.8 80.7l1.6-.9c.1 0 .1.1.2.1l-1.6.9c-.1 0-.1 0-.2-.1z" fill="#53331f"/><path d="M15 80.8l1.6-.9c.2.2.3.4.4.6l-1.6.9c-.1-.2-.2-.4-.4-.6z" fill="#683f26"/><path d="M15.4 81.5l1.6-.9c0 .1.1.3.1.4 0 .2-.1.4-.2.4l-1.6.9c.1-.1.2-.2.2-.4 0-.1 0-.3-.1-.4z" fill="#53331f"/><path fill="#52321e" d="M14.4 73.8l1.5-.9v6.6l-1.6.9z"/><path d="M12.8 72.2l1.6-.9c.2-.1.4-.1.6.1l-1.6.9c-.2-.2-.4-.2-.6-.1z" fill="#53331f"/><g><path d="M13.5 72.3l1.6-.9c.1 0 .1.1.2.1l-1.6.9c-.1 0-.2-.1-.2-.1z" fill="#53331f"/><path d="M13.7 72.4l1.6-.9c.3.2.5.5.6.9l-1.6.9-.6-.9z" fill="#683f26"/><path d="M14.3 73.3l1.6-.9c.1.2.1.4.1.5l-1.6.9c0-.1-.1-.3-.1-.5z" fill="#53331f"/></g><g><path d="M13.5 72.3c.5.3.9 1 .9 1.6v6.6l.5.3c.4.2.7.7.7 1.1 0 .4-.3.6-.7.4l-1.3-.8c-.1 0-.2-.1-.2-.2-.4-.3-.7-.9-.7-1.4v-7.1c-.1-.6.3-.8.8-.5z" fill="#6f4329"/></g></g><g><path fill="#593621" d="M19.6 77.3l1.6-1 .5.3-1.6.9z"/><path d="M20.1 77.5l1.6-.9c.1 0 .1.1.2.1l-1.6.9c-.1 0-.2 0-.2-.1z" fill="#53331f"/><path d="M20.2 77.7l1.6-.9c.2.2.3.4.4.6l-1.6.9c0-.3-.2-.5-.4-.6z" fill="#683f26"/><path d="M20.7 78.3l1.6-.9c0 .1.1.3.1.4 0 .2-.1.4-.2.4l-1.6.9c.1-.1.2-.2.2-.4-.1-.1-.1-.3-.1-.4z" fill="#53331f"/><path fill="#52321e" d="M19.6 70.7l1.6-1v6.6l-1.6 1z"/><path d="M18.1 69l1.6-.9c.2-.1.4-.1.6.1l-1.6.9c-.2-.1-.5-.2-.6-.1z" fill="#53331f"/><g><path d="M18.7 69.1l1.6-.9c.1 0 .1.1.2.1l-1.6.9c-.1 0-.1-.1-.2-.1z" fill="#53331f"/><path d="M18.9 69.2l1.6-.9c.3.2.5.5.6.9l-1.6.9c-.1-.3-.3-.6-.6-.9z" fill="#683f26"/><path d="M19.5 70.1l1.6-.9c.1.2.1.4.1.5l-1.6.9c0-.1 0-.3-.1-.5z" fill="#53331f"/></g><g><path d="M18.7 69.1c.5.3.9 1 .9 1.6v6.6l.5.3c.4.2.7.7.7 1.1 0 .4-.3.6-.7.4l-1.3-.8c-.1 0-.2-.1-.2-.2-.4-.3-.7-.9-.7-1.4v-7.1c-.1-.6.3-.8.8-.5z" fill="#6f4329"/></g></g><g><path d="M18 66l-3.9-2.3c-.9-.5-1.7-.6-2.3-.2L7 66.3c.6-.3 1.4-.3 2.3.2l3.9 2.3c.3.1.5.3.7.5l4.8-2.8c-.2-.2-.4-.3-.7-.5z" fill="#53331f"/><path d="M14 69.3l4.8-2.8c.9.8 1.7 1.9 2.1 3.1l-4.8 2.8c-.5-1.2-1.2-2.3-2.1-3.1z" fill="#683f26"/><path d="M20.8 69.6L16 72.4c.2.6.4 1.3.4 1.9v.7c0 1-.4 1.7-.9 2l4.8-2.8c.6-.3.9-1 .9-2v-.7c0-.6-.2-1.3-.4-1.9z" fill="#53331f"/><g><path d="M13.2 68.8c1.8 1 3.2 3.5 3.2 5.5v.7c0 2-1.4 2.8-3.2 1.8l-3.9-2.3c-1.8-1-3.2-3.5-3.2-5.5v-.7c0-2 1.4-2.8 3.2-1.8l3.9 2.3z" fill="#6f4329"/></g></g><g><path d="M22.7 65.1l-2.9-1.7c-.6-.3-1.1-.4-1.5-.1l-3.2 1.8c.4-.2.9-.2 1.5.1l2.9 1.7c.2.1.3.2.5.3l3.2-1.8c-.1-.1-.3-.2-.5-.3z" fill="#5e3d29"/><path d="M20 67.3l3.2-1.8c.6.5 1.1 1.2 1.3 2l-3.2 1.8c-.2-.8-.7-1.5-1.3-2z" fill="#754d34"/><path d="M24.6 67.4l-3.2 1.8c.1.4.2.8.2 1.2V72c0 .6-.2 1.1-.6 1.3l3.2-1.8c.4-.2.6-.7.6-1.3v-1.6c0-.4-.1-.8-.2-1.2z" fill="#5e3d29"/><g><path d="M19.6 66.9c1.1.7 2 2.2 2 3.5V72c0 1.3-.9 1.8-2.1 1.2l-2.9-1.7c-1.1-.7-2-2.2-2-3.5v-1.6c0-1.3.9-1.8 2-1.2l3 1.7z" fill="#7d5137"/></g></g><g><path d="M14.4 64.8l-.5-.3c.2-.1.5-.2.6-.3.3-.1.6 0 .8.1l.5.3c-.2-.1-.5-.2-.8-.1l-.6.3zM11.2 73.3l-.5-.3c-.4-.2-.6-.9-.4-2.3.5-3.7 2.5-5.6 3.6-6.2l.5.3c-1.1.6-3.1 2.5-3.6 6.2-.2 1.4 0 2.1.4 2.3z" fill="#452d1e"/><path d="M14.4 64.8c.3-.1.5-.2.6-.3 1-.2 1.4.8 1.4.9l-.3.8H16c-.4.2-1.3 1.5-1.6 3.8-.2 1.3-1.1 2.6-2 3.1-1 .6-1.9.2-1.5-2.2.4-3.6 2.4-5.4 3.5-6.1z" fill="#5e3d29"/></g><path d="M17.8 68.2c0 .3-.2.4-.4.3-.2-.1-.4-.5-.4-.8 0-.3.2-.4.4-.3.2.1.4.5.4.8zM24 66.6c-.1.5-.9 1.2-1.7 1.5-.9.3-1.5.2-1.4-.4.1-.5.8-1.2 1.7-1.5.8-.3 1.5-.1 1.4.4z"/></g></svg>