<svg xmlns="http://www.w3.org/2000/svg" viewBox="0 0 650 650"><path d="M200.4 318.2l-12.8-6.4c-3-1.5-4.9-4.6-4.9-7.9v-33.2c0-3.3 1.9-6.4 4.9-7.9l12.8-6.4v61.8z" fill="#707487"/><path fill="#e6af78" d="M403.4 432.9v-61.8H244.6v61.8l79.4 70.7z"/><path d="M526.3 461.8l-109.2-25.7c-1.6-.4-3.2-1-4.6-1.8L324 485.9l-85-54.1c-2.2 2.1-4.9 3.6-8 4.3l-109.2 25.7c-15.9 3.8-27.2 18-27.2 34.4v69.1c0 9.8 7.9 17.7 17.7 17.7H536c9.8 0 17.7-7.9 17.7-17.7v-69.1c-.2-16.4-11.5-30.6-27.4-34.4z" fill="#b4e1fa"/><path d="M244.6 371.1v65.2c100.1 36.1 158.9-54.2 158.9-54.2v-11H244.6z" fill="#d29b6e"/><path d="M209.2 168.1l7.7 169.2c.7 15.8 8.5 30.5 21.1 40l36.5 27.4c9.2 6.9 20.3 10.6 31.8 10.6h35.3c11.5 0 22.6-3.7 31.8-10.6l36.5-27.4c12.7-9.5 20.4-24.2 21.1-40l7.7-169.2H209.2z" fill="#f0c087"/><path d="M297.5 203.4c35.3 0 88.3-8.8 100.8-35.3H209.2l7.7 169.2c.7 15.8 8.5 30.5 21.1 40l36.5 27.4c9.2 6.9 20.3 10.6 31.8 10.6H324c-17.7 0-53-35.3-53-79.4V230c0-8.9 8.9-26.6 26.5-26.6z" fill="#e6af78"/><g fill="#a0d2f0"><path d="M159.3 525.7l-57.2-51.4c-4.8 6.1-7.6 13.7-7.6 21.9v69.1c0 9.8 7.9 17.7 17.7 17.7H174v-24.5c-.1-12.5-5.4-24.4-14.7-32.8zM488.7 525.7l57.2-51.4c4.8 6.1 7.6 13.7 7.6 21.9v69.1c0 9.8-7.9 17.7-17.7 17.7H474v-24.5c.1-12.5 5.4-24.4 14.7-32.8z"/></g><path fill="#5b5d6e" d="M346.1 583h-44.2l5.6-79.4h33.1z"/><path d="M346.1 485.9H302v16.6c0 5.5 4.4 9.9 9.9 9.9h24.4c5.5 0 9.9-4.4 9.9-9.9l-.1-16.6z" fill="#515262"/><g fill="#a0d2f0"><path d="M243.3 413.3l80.7 72.6s-22.6 11.4-50.5 34.4c-5.8 4.7-14.5 2.8-17.5-4l-37.9-83.4 12-18c3-4.4 9.2-5.2 13.2-1.6zM404.7 413.3L324 485.9s22.6 11.4 50.5 34.4c5.8 4.7 14.5 2.8 17.5-4l37.9-83.4-12-18c-2.9-4.4-9.2-5.2-13.2-1.6z"/></g><path d="M377.5 109.6l8.3 58.5c37.8 7.6 43.2 66.8 44 83.8.1 3.1 1.1 6 2.8 8.6l14.4 22.4s-4.9-37 17.7-61.8c0 0 7.7-146.8-87.2-111.5z" fill="#785550"/><path d="M217.7 93.8l13.1 8.9c-59 43.6-48 118.3-48 118.3 17.7 17.7 17.7 61.8 17.7 61.8l17.7-17.7s-6.8-51 26.5-70.6c30.9-18.2 57.9-8.8 85.5-8.8 73.9 0 94.6-27.9 91-61.8-1.9-17.6-28.7-54.1-97.1-53-27.7.6-79.5 9-106.4 22.9z" fill="#694b4b"/><path d="M212.6 178.1s-9.4-37 18.2-75.3c-59 43.6-48 118.3-48 118.3 17.7 17.7 17.7 61.8 17.7 61.8l17.7-17.7s-6.8-51 26.5-70.6c30.9-18.2 57.9-8.8 85.5-8.8 12 0 22.5-.8 31.8-2.2-57 1.9-90.6-41.2-149.4-5.5z" fill="#5a4146"/><path d="M213.7 327h-13.2c-4.9 0-8.8-4-8.8-8.8v-61.8c0-4.9 4-8.8 8.8-8.8h13.2c2.4 0 4.4 2 4.4 4.4v70.6c0 2.4-2 4.4-4.4 4.4z" fill="#5b5d6e"/><path d="M359.3 377.8v-13.2c59.7 0 72.8-33.5 72.8-46.3h13.2c.1 16.5-15.4 59.5-86 59.5z" fill="#464655"/><path d="M359.3 380h-8.8c-4.9 0-8.8-4-8.8-8.8 0-4.9 4-8.8 8.8-8.8h8.8c4.9 0 8.8 4 8.8 8.8 0 4.8-3.9 8.8-8.8 8.8z" fill="#5b5d6e"/><path d="M447.6 318.2l12.8-6.4c3-1.5 4.9-4.6 4.9-7.9v-33.2c0-3.3-1.9-6.4-4.9-7.9l-12.8-6.4v61.8z" fill="#707487"/><path d="M434.3 327h13.2c4.9 0 8.8-4 8.8-8.8v-61.8c0-4.9-4-8.8-8.8-8.8h-13.2c-2.4 0-4.4 2-4.4 4.4v70.6c0 2.4 2 4.4 4.4 4.4z" fill="#5b5d6e"/><path d="M438.8 565.3H377c-4.9 0-8.8 4-8.8 8.8v8.8h79.4v-8.8c0-4.8-4-8.8-8.8-8.8z" fill="#a0d2f0"/></svg>