<svg xmlns="http://www.w3.org/2000/svg" viewBox="0 0 150 70"><path fill="#CC9B00" d="M42.6 5.5v.8L36 10.2v-.8l6.6-3.9z"/><path fill="#FCC000" d="M36 9.4v.8l-.8-.5v-.8l.8.5z"/><path fill="#FCCE3A" d="M42.6 5.5L36 9.4l-.8-.5 6.6-3.8.8.4z"/><path fill="#CC9B00" d="M34.8 1.1v.8l-6.6 3.8V5l6.6-3.9z"/><path fill="#FCC000" d="M28.2 5v.7l-.8-.4v-.8l.8.5z"/><path fill="#FCCE3A" d="M34.8 1.1L28.2 5l-.8-.5L34.1.7l.7.4z"/><path fill="#011C2B" d="M27.2 13.4c-.2-.1-.5-.1-.9 0 0 0-.1 0-.1.1-.5.3-.9.8-1.2 1.4-.1.3-.2.7-.2 1 0 .4.2.7.4.9l.9.5c-.2-.1-.4-.4-.4-.9 0-.3.1-.6.2-1 .2-.6.7-1.1 1.2-1.4 0 0 .1 0 .1-.1.3-.2.6-.2.9 0l-.9-.5z"/><path fill="#025074" d="M27.2 14c.8-.4 1.4-.1 1.4.8s-.6 1.9-1.4 2.4c-.8.4-1.4.1-1.4-.8s.6-1.9 1.4-2.4z"/><path fill="#C2C2C2" d="M27.2 14.9c.4-.2.6 0 .6.4s-.3.9-.6 1.1c-.4.2-.6 0-.6-.4s.2-.9.6-1.1z"/><path fill="#011C2B" d="M31.6 10.8c-.2-.1-.5-.1-.9 0 0 0-.1 0-.1.1-.5.3-.9.8-1.2 1.4-.1.3-.2.7-.2 1 0 .4.2.7.4.9l.9.5c-.2-.1-.4-.4-.4-.9 0-.3.1-.6.2-1 .2-.6.7-1.1 1.2-1.4 0 0 .1 0 .1-.1.3-.2.6-.2.9 0l-.9-.5z"/><path fill="#025074" d="M31.5 11.5c.8-.4 1.4-.1 1.4.8s-.6 1.9-1.4 2.4c-.8.4-1.4.1-1.4-.8.1-.9.7-2 1.4-2.4z"/><path fill="#C2C2C2" d="M31.5 12.3c.4-.2.6 0 .6.4s-.3.9-.6 1.1c-.4.2-.6 0-.6-.4s.3-.9.6-1.1z"/><path fill="#B68B00" d="M28.4 4.8l-6.5 3.8V9l6.5-3.8v-.4z"/><path fill="#DEA900" d="M21.9 8.6V9l-.5-.3v-.4l.5.3z"/><path fill="#A27B00" d="M28.4 4.2l-7 4.1.5.3 6.5-3.8v-.6z"/><path fill="#BD4417" d="M33.2 9.9v2.6l-7.7 4.4v-2.6l7.7-4.4z"/><path fill="#FF5B1F" d="M25.5 14.3v2.6l-7.7-4.4V9.9l7.7 4.4z"/><path fill="#F9812A" d="M33.2 9.9l-7.7 4.4-7.7-4.4 7.7-4.5 7.7 4.5z"/><path fill="#B68B00" d="M36.6 9.4v.4l-6.7 3.9v-.4l6.7-3.9z"/><path fill="#DEA900" d="M29.9 13.3v.4l-.5-.3V13l.5.3z"/><path fill="#A27B00" d="M36.6 9.4l-6.7 3.9-.5-.3 6.7-3.9.5.3z"/><path fill="#FCCE3A" d="M35.6 6.4l-8.5-5 .9-.5 8.5 5-.9.5z"/><path fill="#FCC000" d="M35.7 9.9l-8.6-5V1.4l8.5 5 .1 3.5z"/><path fill="#CC9B00" d="M36.5 5.9l.1 3.5-.9.5-.1-3.5.9-.5z"/><path fill="#C2B6A1" d="M26.3 9.2l1.5-.9v1.2l-1.5.8V9.2z"/><path fill="#FFF" d="M24.9 8.4l1.5-.9 1.4.8-1.5.9-1.4-.8z"/><path fill="#D3B8A6" d="M26.3 9.2v1.1l-1.4-.8V8.4l1.4.8z"/><path fill="#DCCEB6" d="M26.3 9.8l2.1-1.2v.2L26.3 10v-.2z"/><path fill="#FFF" d="M24.3 8.6l2.1-1.2 2 1.2-2.1 1.2-2-1.2z"/><path fill="#EDCEBA" d="M26.3 9.8v.2l-2-1.2v-.2l2 1.2z"/><g><path fill="#DCCEB6" d="M26.2 7.1l.1 2.8-.1.1V7.1z"/><path fill="#FFF" d="M24.1 5.9l.2-.1 2 1.2-.1.1-2.1-1.2z"/><path fill="#F0E7D8" d="M26.2 7.1V10l-2.1-1.2V5.9l2.1 1.2z"/></g><g><path fill="#02374F" d="M28.1 6.6l.5 1.4-.2-.1-.5-1.3h.2z"/><path fill="#025375" d="M28.1 6.6l.6 1.3-.1.1-.6-1.4h.1z"/><path fill="#02374F" d="M27.4 6.4c.1.1.2.2.3.4h-.1c-.1-.2-.1-.3-.2-.4zm.2.4c.1 0 .2.1.2.1h-.1s0-.1-.1-.1zm.2.1c.1 0 .2 0 .2.1h-.1c-.1 0-.1-.1-.1-.1zm.1.1c.1 0 .2 0 .2.1l-.2-.1c0 .1 0 0 0 0zm-.5-.8l.1-.1-.1.1zm.5.9c.1 0 .1 0 0 0zm.1 0c.2.1.3.1.4.1h-.1c-.1 0-.2 0-.3-.1zM27.4 6c.1-.1.1 0 0 0zm0 0c.1 0 .1 0 0 0 0 .1 0 .1 0 0zm0 .1c.1 0 .1 0 0 0 0 .1 0 0 0 0zm0 .1l.1-.1 1 .8h-.1l-1-.7z"/><path fill="#491A09" d="M28.4 6.9h.1-.1z"/><path fill="#037AB0" d="M27.3 5.8c.2-.1.3-.1.5 0l-.1.1c-.2-.1-.3-.2-.4-.1zm.4.1l.1-.1-.1.1c.1 0 0 0 0 0z"/><g fill="#037AB0"><path d="M27.8 5.9l.1-.1c.1 0 .1.1.2.1L28 6c-.1 0-.2-.1-.2-.1z"/><path d="M27.9 6l.1-.1.2.2-.1.1-.2-.2zm.2.2l.1-.1c.1.1.1.2.2.2h-.1c-.1 0-.1-.1-.2-.1zm.2.2h.1l.3.6h-.1l-.3-.6zm.2.6h.1v.2h-.1V7c.1.1.1 0 0 0zm.1.2c-.1 0 0 0 0 0zm-.1.1c-.1.1-.1 0 0 0z"/></g><path fill="#025E87" d="M27.8 5.9c.4.3.8.9.8 1.2s-.3.3-.6.1-.6-.7-.7-1c-.1-.4.1-.6.5-.3zm0 .2c-.3-.2-.4-.1-.4.1l1 .7c-.1-.3-.3-.6-.6-.8zm.1 1c.2.2.4.2.5 0l-1-.7c.1.2.3.5.5.7z"/></g><g><path fill="#5F220C" d="M30.8 4.4L26.5 7l-2 6 6.3-3.6v-5zm-6 8.1l1.8-5.1 3.9-2.2v4l-5.7 3.3z"/><path fill="#BD4417" d="M31.1 4.5l-4.6 2.7-2 6.2 6.7-3.9-.1-5zm-6 8.1l1.8-5.1 3.9-2.2v4l-5.7 3.3z"/><path fill="#BD4417" d="M21.5 4.7l-1.9 5.8 4.8 2.7 2.1-5.6-5-2.9zm2.9 7.9l-4.3-2.4L21.9 5l4.4 2.6-1.9 5z"/><path fill="#FF5B1F" d="M21.4 4.2l-2 6.2 5.1 3 2-6.2-5.1-3zm2.8 8.6l-4.4-2.6 1.9-5.4 4.4 2.6-1.9 5.4z"/><path fill="#F9812A" d="M26.5 7.2l-5.1-3L26 1.5l5.1 3-4.6 2.7z"/></g><g><path fill="#1D5A82" d="M105.6 33.9l5.1-3v-5.6l-5.1 2.9v5.7z"/><path fill="#3497DA" d="M105.6 28.2l5.1-2.9-13.2-7.6-5 2.9 13.1 7.6z"/><path fill="#1A7BAD" d="M92.5 20.6v5.7l13.1 7.6v-5.7l-13.1-7.6z"/><path fill="#C44A10" d="M105.6 28.3l5.1-3v-5.7l-5.1 3v5.7z"/><path fill="#FF8D23" d="M105.6 22.6l5.1-3L97.5 12l-5 3 13.1 7.6z"/><path fill="#82310B" d="M92.5 15v5.6l13.1 7.7v-5.7L92.5 15z"/><path fill="#1D5A82" d="M99.6 37.3l5.1-2.9v-5.7l-5.1 3v5.6z"/><path fill="#246896" d="M99.6 31.7l5.1-3-13.2-7.6-5 3 13.1 7.6z"/><path fill="#1A7BAD" d="M86.5 24.1v5.6l13.1 7.6v-5.6l-13.1-7.6z"/><path fill="#9C9C9C" d="M93.7 40.7l5.1-2.9v-5.7l-5.1 3v5.6z"/><path fill="#3497DA" d="M93.7 35.1l5.1-3-13.2-7.6-5 3 13.1 7.6z"/><path fill="#C7C7C7" d="M80.6 27.5l-.1 5.6 13.2 7.6v-5.6l-13.1-7.6z"/><path fill="#206491" d="M93.7 35.1l5.1-2.9v-5.7l-5.1 3v5.6z"/><path fill="#3497DA" d="M93.7 29.5l5.1-3-13.2-7.6-5 2.9 13.1 7.7z"/><path fill="#1C83B8" d="M80.6 21.8l-.1 5.7 13.2 7.6v-5.6l-13.1-7.7z"/><g><path fill="#1D5A82" d="M120.7 42.6l5.1-3V34l-5.1 3v5.6z"/><path fill="#3497DA" d="M120.7 37l5.1-3-13.2-7.6-5.1 2.9 13.2 7.7z"/><path fill="#1A7BAD" d="M107.5 29.3V35l13.2 7.6V37l-13.2-7.7z"/><path fill="#206491" d="M120.7 37l5.1-3v-5.7l-5.1 3V37z"/><path fill="#3497DA" d="M120.7 31.3l5.1-3-13.2-7.5-5.1 2.9 13.2 7.6z"/><path fill="#1C83B8" d="M107.5 23.7v5.6l13.2 7.7v-5.7l-13.2-7.6z"/><path fill="#1D5A82" d="M114.7 46.1l5.1-3v-5.7l-5.1 3v5.7z"/><path fill="#3497DA" d="M114.7 40.4l5.1-3-13.2-7.6-5.1 3 13.2 7.6z"/><path fill="#1A7BAD" d="M101.5 32.8v5.6l13.2 7.7v-5.7l-13.2-7.6z"/><path fill="#C7C7C7" d="M114.7 40.4l5.1-2.9v-5.7l-5.1 3v5.6z"/><path fill="#FFF" d="M114.7 34.8l5.1-3-13.2-7.6-5.1 3 13.2 7.6z"/><path fill="#919191" d="M101.5 27.2v5.6l13.2 7.6v-5.6l-13.2-7.6z"/><g><path fill="#9C9C9C" d="M108.8 49.5l5-3v-5.7l-5 3v5.7z"/><path fill="#3497DA" d="M108.8 43.8l5-3-13.1-7.6-5.1 3 13.2 7.6z"/><path fill="#C7C7C7" d="M95.6 36.2v5.6l13.2 7.7v-5.7l-13.2-7.6z"/></g><g><path fill="#206491" d="M108.8 43.8l5-2.9v-5.7l-5 3v5.6z"/><path fill="#3497DA" d="M108.8 38.2l5-3-13.1-7.6-5.1 3 13.2 7.6z"/><path fill="#1C83B8" d="M95.6 30.6v5.6l13.2 7.6v-5.6l-13.2-7.6z"/></g></g><g><path fill="#C44A10" d="M136.4 51.7l5-3v-5.6l-5 2.9v5.7z"/><path fill="#FF8D23" d="M136.4 46l5-2.9-13.1-7.6-5.1 2.9 13.2 7.6z"/><path fill="#82310B" d="M123.2 38.4v5.7l13.2 7.6V46l-13.2-7.6z"/><path fill="#C7C7C7" d="M130.4 55.1l5-2.9v-5.7l-5 3v5.6z"/><path fill="#3497DA" d="M130.4 49.5l5-3-13.1-7.6-5.1 3 13.2 7.6z"/><path fill="#919191" d="M117.2 41.9v5.6l13.2 7.6v-5.6l-13.2-7.6z"/><path fill="#206491" d="M130.4 49.5l5-2.9v-5.7l-5 3v5.6z"/><path fill="#3497DA" d="M130.4 43.9l5-3-13.1-7.6-5.1 2.9 13.2 7.7z"/><path fill="#1C83B8" d="M117.2 36.2v5.7l13.2 7.6v-5.6l-13.2-7.7z"/><g><path fill="#1D5A82" d="M124.4 58.5l5.1-2.9v-5.7l-5.1 3v5.6z"/><path fill="#3497DA" d="M124.4 52.9l5.1-3-13.1-7.6-5.1 3 13.1 7.6z"/><path fill="#1A7BAD" d="M111.3 45.3v5.6l13.1 7.6v-5.6l-13.1-7.6z"/></g><g><path fill="#82310B" d="M124.4 52.9l5.1-2.9v-5.7l-5.1 3v5.6z"/><path fill="#FF8D23" d="M124.4 47.3l5.1-3-13.1-7.6-5.1 2.9 13.1 7.7z"/><path fill="#C44A10" d="M111.3 39.6v5.7l13.1 7.6v-5.6l-13.1-7.7z"/></g></g></g><g><path fill="#CC9B00" d="M18.7 60.9v.8l7 3.8v-.8l-7-3.8z"/><path fill="#FCC000" d="M25.7 64.7v.8l.8-.5v-.8l-.8.5z"/><path fill="#FCCE3A" d="M18.7 60.9l7 3.8.8-.5-7.1-3.8-.7.5z"/><path fill="#CC9B00" d="M26.5 55.9l.1.8 7 3.8v-.8l-7.1-3.8z"/><path fill="#FCC000" d="M33.6 59.7v.8l.8-.5v-.8l-.8.5z"/><path fill="#FCCE3A" d="M26.5 55.9l7.1 3.8.8-.5-7.1-3.7-.8.4z"/><path fill="#011C2B" d="M15.6 56.8c.2-.1.5-.2.9 0 0 0 .1 0 .1.1.5.3 1 .8 1.3 1.4.1.3.2.7.3 1 0 .5-.1.8-.4.9l-.9.6c.3-.2.4-.5.4-.9 0-.3-.1-.7-.3-1-.3-.6-.7-1.1-1.3-1.4 0 0-.1 0-.1-.1-.4-.2-.7-.2-.9 0l.9-.6z"/><path fill="#025074" d="M15.7 57.5c-.8-.4-1.4 0-1.4.9s.7 2 1.5 2.4 1.4 0 1.4-.9-.7-2-1.5-2.4z"/><path fill="#C2C2C2" d="M15.7 58.4c-.4-.2-.7 0-.7.4s.3.9.7 1.1c.4.2.7 0 .7-.4s-.3-.9-.7-1.1z"/><path fill="#011C2B" d="M11 54.3c.2-.1.5-.2.9 0 0 0 .1 0 .1.1.5.3 1 .8 1.3 1.4.1.3.2.7.3 1 0 .5-.1.8-.4.9l-.9.6c.3-.2.4-.5.4-.9 0-.3-.1-.7-.3-1-.3-.6-.7-1.1-1.3-1.4 0 0-.1 0-.1-.1-.4-.2-.7-.2-.9 0l.9-.6z"/><path fill="#025074" d="M11.1 55c-.8-.4-1.4 0-1.4.9s.7 2 1.5 2.4 1.4 0 1.4-.9-.7-2-1.5-2.4z"/><path fill="#C2C2C2" d="M11.1 55.9c-.4-.2-.7 0-.7.4s.3.9.7 1.1c.4.2.7 0 .7-.4s-.3-.9-.7-1.1z"/><path fill="#B68B00" d="M20.4 51.4l6.8 3.6.1.4-6.9-3.6v-.4z"/><path fill="#DEA900" d="M27.2 55l.1.4.5-.3-.1-.4-.5.3z"/><path fill="#A27B00" d="M20.4 50.8l7.3 3.9-.5.3-6.8-3.6v-.6z"/><path fill="#FF5B1F" d="M9.3 53.4l.1 2.7 8.1 4.3-.1-2.7-8.1-4.3z"/><path fill="#BD4417" d="M17.4 57.7l.1 2.7 7.8-4.9-.1-2.7-7.8 4.9z"/><path fill="#F9812A" d="M9.3 53.4l8.1 4.3 7.8-4.9-8.1-4.3-7.8 4.9z"/><path fill="#B68B00" d="M12.1 56.4v.4l7 3.8v-.4l-7-3.8z"/><path fill="#DEA900" d="M19.1 60.2v.4l.6-.3-.1-.4-.5.3z"/><path fill="#A27B00" d="M12.1 56.4l7 3.8.5-.3-7-3.8-.5.3z"/><path fill="#FCCE3A" d="M19.5 57.8l8.7-5.5-1-.5-8.7 5.5 1 .5z"/><path fill="#FCC000" d="M19.6 61.5l8.7-5.5-.1-3.7-8.7 5.5.1 3.7z"/><path fill="#CC9B00" d="M18.5 57.3l.2 3.6.9.6-.1-3.7-1-.5z"/><path fill="#C2B6A1" d="M17.9 53l-1.6-.8.1 1.2 1.5.8V53z"/><path fill="#FFF" d="M19.4 52.1l-1.6-.9-1.5 1 1.6.8 1.5-.9z"/><path fill="#D3B8A6" d="M17.9 53v1.2l1.5-.9v-1.2l-1.5.9z"/><path fill="#DCCEB6" d="M17.9 53.6l-2.2-1.1.1.1 2.1 1.2v-.2z"/><path fill="#FFF" d="M20 52.3l-2.2-1.1-2.1 1.3 2.2 1.1 2.1-1.3z"/><path fill="#EDCEBA" d="M17.9 53.6v.2l2.1-1.3v-.2l-2.1 1.3z"/><path fill="#DCCEB6" d="M15.8 49.6l-.2-.1.1 3 .2.1-.1-3z"/><path fill="#FFF" d="M17.9 48.3l-.2-.1-2.1 1.3.2.1 2.1-1.3z"/><path fill="#F0E7D8" d="M15.8 49.6l.1 3 2.1-1.3-.1-3-2.1 1.3z"/><g><path fill="#02374F" d="M19.8 52.4c-.1.1-.2.2-.3.4h.1c0-.2.1-.3.2-.4zm-.3.4c-.1 0-.2.1-.2.1h.1c.1 0 .1-.1.1-.1zm-.1.1c-.1 0-.2.1-.2.1h.1c.1 0 .1 0 .1-.1zm-.1.1c-.1 0-.2 0-.2.1l.2-.1c0 .1 0 .1 0 0zm.5-.9zm-.6 1c-.2.1-.3.1-.4.1h.1c.1.1.2 0 .3-.1zm.5-1.1l-.1-.1s.1 0 .1.1c.1 0 0 0 0 0zm.1 0c-.1 0-.1 0 0 0 0 .1 0 0 0 0zm0 .1c-.1 0-.1 0 0 0zm0 .1l-.1-.1-1.1.8h.2l1-.7z"/><path fill="#491A09" d="M18.8 52.9h-.2.2z"/><path fill="#037AB0" d="M19.8 51.8c-.2-.1-.4-.1-.6 0l.1.1c.3-.2.4-.2.5-.1zm-.4.1l-.1-.1.1.1z"/><g fill="#037AB0"><path d="M19.4 51.9l-.1-.1c-.1 0-.1.1-.2.1l.1.1c.1 0 .1-.1.2-.1z"/><path d="M19.2 52l-.1-.1-.2.2.1.1c.1-.1.2-.1.2-.2z"/><path d="M19 52.2l-.1-.1c-.1.1-.1.2-.2.3h.1c.1-.1.2-.1.2-.2zm-.1.2c-.2.2-.3.5-.4.6h.1c0-.1.1-.4.3-.6zm-.3.6l-.1.2h.1V53zm0 .2l-.1.1.1-.1zm0 .1c-.1 0-.1.1 0 0 .1.1 0 .1 0 0zm.1.1c.1 0 0 0 0 0z"/></g><path fill="#025E87" d="M19.9 52.2c-.1.4-.4.8-.7 1.1-.3.3-.6.3-.6-.1s.3-1 .8-1.3c.4-.3.6-.2.5.3zm-.6-.1c-.3.2-.5.6-.6.9l1-.8c.1-.3-.1-.3-.4-.1zm-.1 1c.2-.2.4-.5.5-.7l-1 .8c.1.1.3.1.5-.1z"/><path fill="#025E87" d="M19.2 52.7l.3-.1-.3.1c.1-.1 0 0 0 0z"/><path fill="#02374F" d="M20.4 55.1l.2-.2-1.1-2.3-.3.1 1.2 2.4z"/><path fill="#025375" d="M19.2 52.7l1.1 2.4h.1l-1.2-2.4z"/></g><g><path fill="#5F220C" d="M11.7 52.9l6.7 3.5-2.3-6.2-4.6-2.6.2 5.3zm.4-.3l-.1-4.2 4.1 2.2 2 5.2-6-3.2z"/><path fill="#BD4417" d="M11.4 53l7.1 3.8-2.3-6.4-4.9-2.6.1 5.2zm.4-.3l-.1-4.2 4.1 2.2 2 5.2-6-3.2z"/><path fill="#BD4417" d="M16 50.8l2.4 5.7 4.9-3-2.2-5.9-5.1 3.2zm.4-.2l4.5-2.8 2.1 5.3-4.4 2.7-2.2-5.2z"/><path fill="#FF5B1F" d="M16.1 50.3l2.3 6.4 5.2-3.3-2.3-6.4-5.2 3.3zm.5.2l4.5-2.8 2.1 5.6-4.5 2.8-2.1-5.6z"/><path fill="#F9812A" d="M16.1 50.3l5.2-3.2-4.9-2.6-5.2 3.2 4.9 2.6z"/></g><g><path fill="#6F3B21" d="M21.9 65.6v.4l.7.4-.1-.5-.6-.3z"/><path fill="#5C311B" d="M22.5 65.9l.1.5 13.9-8.7-.1-.5-13.9 8.7z"/><path fill="#99522D" d="M21.9 65.6l.6.3 13.9-8.7-.6-.3-13.9 8.7z"/><path fill="#6F3B21" d="M18.6 63.3v.5l.7.4v-.5l-.7-.4z"/><path fill="#5C311B" d="M19.3 63.7v.5l13.9-8.8V55l-13.9 8.7z"/><path fill="#99522D" d="M18.6 63.3l.7.4L33.2 55l-.7-.4-13.9 8.7z"/><path fill="#854727" d="M36.2 59.7v.3l-1.1.7v-.4l1.1-.6z"/><path fill="#6F3C21" d="M35.1 60.3v.4l-7.4-3.9v-.4l7.4 3.9z"/><path fill="#B76236" d="M36.2 59.7l-1.1.6-7.4-3.9 1.1-.7 7.4 4z"/><g><path fill="#854727" d="M32.6 61.8v.4l-1 .7-.1-.4 1.1-.7z"/><path fill="#6F3C21" d="M31.5 62.5l.1.4-7.5-3.9v-.4l7.4 3.9z"/><path fill="#B76236" d="M32.6 61.8l-1.1.7-7.4-3.9 1.1-.7 7.4 3.9z"/></g><g><path fill="#854727" d="M28.3 64.6l.1.4-1.1.6v-.4l1-.6z"/><path fill="#6F3C21" d="M27.3 65.2v.4l-7.4-3.9v-.4l7.4 3.9z"/><path fill="#B76236" d="M28.3 64.6l-1 .6-7.4-3.9 1-.6 7.4 3.9z"/></g></g><g><path fill="#E0B477" d="M25.3 56.6l.2 3 3.6 1.9-.2-3-3.6-1.9z"/><path fill="#BB884F" d="M28.9 58.5l.2 3 5-3.1-.1-3.1-5.1 3.2z"/><path fill="#EFCD90" d="M25.3 56.6l3.6 1.9 5.1-3.2-3.6-1.9-5.1 3.2z"/><path fill="#F7ECEA" d="M31.8 54.1l.7.4-5 3.2-.8-.4 5.1-3.2z"/><path fill="#C2AB9D" d="M27.5 57.7l-.8-.4.1.7.7.4v-.7z"/><path fill="#5C4123" d="M25.8 59.4l.6.4v-.1l-.6-.3z"/><path fill="#5C4123" d="M25.9 59.5l.1-.4-.1-.2v.6zm.3.1l.1-.4v.1l-.1-.2-.1.1h.1v.4z"/><path fill="#5C4123" d="M26.4 59.9l-.6-.3c-.1-.1-.2-.2-.2-.3v-.5c0-.1.1-.1.2-.1l.6.3c.1.1.2.2.2.3v.5c0 .2-.1.2-.2.1zm-.6-1.1c-.1 0-.2 0-.1.1v.5c0 .1.1.2.2.2l.6.3c.1 0 .2 0 .1-.1v-.5c0-.1-.1-.2-.2-.2l-.6-.3z"/><g fill="#5C4123"><path d="M27.5 60.1l-.1-.1h-.1l-.1-.1v.3h-.1l-.1-.1v.1-.3h-.1l-.1-.1h-.1c0-.1.1-.2.3-.1.4 0 .5.2.5.4z"/><path d="M27.5 60.5l-.6-.3c-.1-.1-.2-.2-.2-.3v-.5c0-.1.1-.1.2-.1l.6.3c.1.1.2.2.2.3v.5c0 .1-.1.2-.2.1zm-.6-1.2c-.1 0-.2 0-.1.1v.5c0 .1.1.2.2.2l.6.3c.1 0 .2 0 .1-.1v-.5c0-.1-.1-.2-.2-.2l-.6-.3z"/></g><g fill="#5C4123"><path d="M28.4 60.4c0 .1-.1.1-.1.1v.3l.1.1-.2-.1.1.1v-.3c-.1 0-.1-.1-.1-.2v-.2l.2.2c.1 0 0 0 0 0z"/><path d="M28.6 61.1l-.6-.3c-.1-.1-.2-.2-.2-.3V60c0-.1.1-.1.2-.1l.6.3c.1.1.2.2.2.3v.5c-.1.1-.1.1-.2.1zm-.6-1.2c-.1 0-.2 0-.1.1v.5c0 .1.1.2.2.2l.6.3c.1 0 .2 0 .1-.1v-.5c0-.1-.1-.2-.2-.2l-.6-.3z"/></g></g><g><path fill="#E0B477" d="M18.9 60.5l.1 3.1 3.6 1.9-.1-3-3.6-2z"/><path fill="#BB884F" d="M22.5 62.5l.1 3 5-3.1-.1-3.1-5 3.2z"/><path fill="#EFCD90" d="M18.9 60.5l3.6 2 5-3.2-3.6-1.9-5 3.1z"/><path fill="#F7ECEA" d="M25.3 58.1l.8.4-5.1 3.2-.7-.4 5-3.2z"/><path fill="#C2AB9D" d="M21 61.7l-.7-.4v.7l.8.4-.1-.7z"/><path fill="#5C4123" d="M19.4 63.4l.5.4v-.1l-.5-.3z"/><path fill="#5C4123" d="M19.5 63.5v-.4h.1l-.1-.2-.1.1.1.1v.4zm.3.1v-.4l.1.1-.1-.2-.1.1.1.4z"/><path fill="#5C4123" d="M19.9 63.9l-.6-.3c-.1-.1-.2-.2-.2-.3v-.5c0-.1.1-.1.2-.1l.6.3c.1.1.2.2.2.3v.5c0 .1-.1.2-.2.1zm-.5-1.1c-.1 0-.2 0-.1.1v.5c0 .1.1.2.2.2l.6.3c.1 0 .2 0 .1-.1v-.5c0-.1-.1-.2-.2-.2l-.6-.3z"/><g fill="#5C4123"><path d="M21.1 64.1L21 64h-.1l-.1-.1v.3h-.1l-.1-.1v.1-.3h-.1l-.1-.1h-.1c0-.1.1-.2.3-.1.3 0 .5.2.5.4z"/><path d="M21 64.5l-.6-.3c-.1-.1-.2-.2-.2-.3v-.5c0-.1.1-.1.2-.1l.6.3c.1.1.2.2.2.3v.5c0 .1-.1.2-.2.1zm-.6-1.2c-.1 0-.2 0-.1.1v.5c0 .1.1.2.2.2l.6.3c.1 0 .2 0 .1-.1v-.5c0-.1-.1-.2-.2-.2l-.6-.3z"/></g><g fill="#5C4123"><path d="M22 64.4c0 .1-.1.1-.1.1v.3l.1.1-.2-.1.1.1v-.3c-.1 0-.1-.1-.1-.2v-.2l.2.2z"/><path d="M22.1 65.1l-.6-.3c-.1-.1-.2-.2-.2-.3V64c0-.1.1-.1.2-.1l.6.3c.1.1.2.2.2.3v.5c0 .1-.1.1-.2.1zm-.6-1.2c-.1 0-.2 0-.1.1v.5c0 .1.1.2.2.2l.6.3c.1 0 .2 0 .1-.1v-.5c0-.1-.1-.2-.2-.2l-.6-.3z"/></g></g><g><path fill="#E0B477" d="M20.8 55.9l.1 3.1 3.6 1.9-.1-3.1-3.6-1.9z"/><path fill="#BB884F" d="M24.4 57.8l.1 3.1 5.1-3.1-.1-3.1-5.1 3.1z"/><path fill="#EFCD90" d="M20.8 55.9l3.6 1.9 5.1-3.1-3.6-1.9-5.1 3.1z"/><path fill="#F7ECEA" d="M27.3 53.5l.7.4-5 3.2-.8-.4 5.1-3.2z"/><path fill="#C2AB9D" d="M23 57.1l-.8-.4.1.7.7.4v-.7z"/><path fill="#5C4123" d="M21.3 58.8l.6.4v-.1l-.6-.3zm.1 0l.1.1v-.4l-.1-.2-.1.1h.1v.4zm.3.2v-.4l.1.1-.1-.3-.1.2h.1v.4z"/><path fill="#5C4123" d="M21.9 59.3l-.6-.3c-.1-.1-.2-.2-.2-.3v-.5c0-.1.1-.1.2-.1l.6.3c.1.1.2.2.2.3v.5c0 .1-.1.2-.2.1zm-.6-1.2c-.1 0-.2 0-.1.1v.5c0 .1.1.2.2.2l.6.3c.1 0 .2 0 .1-.1v-.5c0-.1-.1-.2-.2-.2l-.6-.3z"/><g fill="#5C4123"><path d="M23 59.4l-.1-.1h-.1l-.1-.1v.3h-.1l-.1-.1v.1-.3h-.1s0-.1-.1-.1h-.1c0-.1.1-.2.3-.1.4.1.5.3.5.4z"/><path d="M23 59.9l-.6-.3c-.1-.1-.2-.2-.2-.3v-.5c0-.1.1-.1.2-.1l.6.3c.1.1.2.2.2.3v.5c-.1.1-.1.1-.2.1zm-.6-1.2c-.1 0-.2 0-.1.1v.5c0 .1.1.2.2.2l.6.3c.1 0 .2 0 .1-.1v-.5c0-.1-.1-.2-.2-.2l-.6-.3z"/></g><g fill="#5C4123"><path d="M23.9 59.8c0 .1-.1.1-.1.1v.3l.1.1-.2-.1.1.1V60c-.1 0-.1-.1-.1-.2v-.2l.2.2c.1 0 0 0 0 0z"/><path d="M24 60.5l-.6-.3c-.1-.1-.2-.2-.2-.3v-.5c0-.1.1-.1.2-.1l.6.3c.1.1.2.2.2.3v.5c0 .1-.1.1-.2.1zm-.5-1.2c-.1 0-.2 0-.1.1v.5c0 .1.1.2.2.2l.6.3c.1 0 .2 0 .1-.1v-.5c0-.1-.1-.2-.2-.2l-.6-.3z"/></g></g></g><g><path fill="#C44A10" d="M53.5 30.4l-5.3-3.1v6.4l5.3 3.1v-6.4z"/><path fill="#FF8D23" d="M59.2 27.1L53.8 24l-5.6 3.3 5.3 3.1 5.7-3.3z"/><path fill="#82310B" d="M53.5 30.4v6.4l5.7-3.2v-6.5l-5.7 3.3z"/><path fill="#C44A10" d="M59.3 33.7l-5.4-3.1.1 6.5 5.3 3.1v-6.5z"/><path fill="#FF8D23" d="M64.9 30.4l-5.3-3.1-5.7 3.3 5.4 3.1 5.6-3.3z"/><path fill="#82310B" d="M59.3 33.7v6.5l5.6-3.3v-6.5l-5.6 3.3z"/><path fill="#C44A10" d="M65.1 37.1L59.8 34v6.5l5.3 3.1v-6.5z"/><path fill="#FF8D23" d="M70.7 33.8l-5.3-3-5.6 3.2 5.3 3.1 5.6-3.3z"/><path fill="#82310B" d="M65.1 37.1v6.5l5.6-3.3v-6.5l-5.6 3.3z"/><path fill="#C44A10" d="M70.8 40.4l-5.3-3.1v6.5l5.4 3.1-.1-6.5z"/><path fill="#FF8D23" d="M76.5 37.2l-5.3-3.1-5.7 3.2 5.3 3.1 5.7-3.2z"/><path fill="#82310B" d="M70.8 40.4l.1 6.5 5.6-3.3v-6.4l-5.7 3.2z"/><path fill="#C44A10" d="M76.8 43.8l-5.3-3.1v6.5l5.3 3.1v-6.5z"/><path fill="#FF8D23" d="M82.4 40.6l-5.3-3.1-5.6 3.2 5.3 3.1 5.6-3.2z"/><path fill="#82310B" d="M76.8 43.8v6.5l5.6-3.3v-6.4l-5.6 3.2z"/><path fill="#C44A10" d="M82.5 47.1l-5.3-3v6.4l5.4 3.1-.1-6.5z"/><path fill="#FF8D23" d="M88.2 43.9l-5.4-3.1-5.6 3.3 5.3 3 5.7-3.2z"/><path fill="#82310B" d="M82.5 47.1l.1 6.5 5.6-3.2v-6.5l-5.7 3.2z"/><path fill="#C44A10" d="M47.5 33.9l-5.4-3.1.1 6.5 5.3 3v-6.4z"/><path fill="#FF8D23" d="M53.1 30.6l-5.3-3.1-5.7 3.3 5.4 3.1 5.6-3.3z"/><path fill="#82310B" d="M47.5 33.9v6.4l5.6-3.2v-6.5l-5.6 3.3z"/><path fill="#C44A10" d="M53.2 37.2l-5.3-3.1v6.5l5.3 3.1v-6.5z"/><path fill="#FF8D23" d="M58.8 34l-5.3-3.1-5.6 3.2 5.3 3.1 5.6-3.2z"/><path fill="#82310B" d="M53.2 37.2v6.5l5.6-3.3V34l-5.6 3.2z"/><path fill="#C44A10" d="M59 40.6l-5.3-3.1V44l5.3 3.1v-6.5z"/><path fill="#FF8D23" d="M64.7 37.4l-5.4-3.1-5.6 3.2 5.3 3.1 5.7-3.2z"/><path fill="#82310B" d="M59 40.6v6.5l5.7-3.3v-6.4L59 40.6z"/><path fill="#C44A10" d="M64.8 44l-5.4-3.1.1 6.4 5.3 3.1V44z"/><path fill="#FF8D23" d="M70.4 40.7l-5.3-3.1-5.7 3.3 5.4 3.1 5.6-3.3z"/><path fill="#82310B" d="M64.8 44v6.4l5.6-3.2v-6.5L64.8 44z"/><path fill="#C44A10" d="M70.7 47.3l-5.3-3v6.4l5.3 3.1v-6.5z"/><path fill="#FF8D23" d="M76.3 44.1L71 41l-5.6 3.3 5.3 3 5.6-3.2z"/><path fill="#82310B" d="M70.7 47.3v6.5l5.7-3.2-.1-6.5-5.6 3.2z"/><path fill="#C44A10" d="M76.5 50.7l-5.4-3.1.1 6.5 5.3 3v-6.4z"/><path fill="#FF8D23" d="M82.1 47.4l-5.3-3.1-5.7 3.3 5.4 3.1 5.6-3.3z"/><path fill="#82310B" d="M76.5 50.7v6.4l5.6-3.2v-6.5l-5.6 3.3z"/><g><path fill="#C44A10" d="M41.3 37.5L36 34.4v6.4l5.4 3.1-.1-6.4z"/><path fill="#FF8D23" d="M47 34.2l-5.4-3.1-5.6 3.3 5.3 3.1 5.7-3.3z"/><path fill="#82310B" d="M41.3 37.5l.1 6.4 5.6-3.2v-6.5l-5.7 3.3z"/><path fill="#C44A10" d="M47.1 40.8l-5.3-3.1v6.5l5.3 3.1v-6.5z"/><path fill="#FF8D23" d="M52.7 37.6l-5.3-3.1-5.6 3.2 5.3 3.1 5.6-3.2z"/><path fill="#82310B" d="M47.1 40.8v6.5l5.6-3.3v-6.4l-5.6 3.2z"/><path fill="#C44A10" d="M52.9 44.2l-5.3-3.1v6.5l5.3 3.1v-6.5z"/><path fill="#FF8D23" d="M58.5 41l-5.3-3.1-5.6 3.2 5.3 3.1 5.6-3.2z"/><path fill="#82310B" d="M52.9 44.2v6.5l5.7-3.3-.1-6.4-5.6 3.2z"/><path fill="#C44A10" d="M58.7 47.5l-5.4-3 .1 6.4 5.3 3.1v-6.5z"/><path fill="#FF8D23" d="M64.3 44.3L59 41.2l-5.7 3.3 5.4 3 5.6-3.2z"/><path fill="#82310B" d="M58.7 47.5V54l5.6-3.2v-6.5l-5.6 3.2z"/><g><path fill="#C44A10" d="M64.6 50.9l-5.3-3.1v6.5l5.3 3.1v-6.5z"/><path fill="#FF8D23" d="M70.2 47.7l-5.3-3.1-5.6 3.2 5.3 3.1 5.6-3.2z"/><path fill="#82310B" d="M64.6 50.9v6.5l5.6-3.2v-6.5l-5.6 3.2z"/><path fill="#9C9C9C" d="M70.3 54.3L65 51.2v6.4l5.4 3.1-.1-6.4z"/><path fill="#FF8D23" d="M76 51l-5.3-3.1-5.7 3.3 5.3 3.1L76 51z"/><path fill="#C7C7C7" d="M70.3 54.3l.1 6.4 5.6-3.2V51l-5.7 3.3z"/></g></g><g><path fill="#C44A10" d="M35.3 41l-5.4-3.1.1 6.5 5.3 3.1V41z"/><path fill="#FF8D23" d="M40.9 37.8l-5.3-3.1-5.7 3.2 5.4 3.1 5.6-3.2z"/><path fill="#82310B" d="M35.3 41v6.5l5.6-3.3v-6.4L35.3 41z"/><path fill="#C44A10" d="M41 44.3l-5.3-3.1v6.5l5.3 3.1v-6.5z"/><path fill="#FF8D23" d="M46.6 41.1L41.3 38l-5.6 3.2 5.3 3.1 5.6-3.2z"/><path fill="#82310B" d="M41 44.3v6.5l5.6-3.2v-6.5L41 44.3z"/><path fill="#C44A10" d="M46.8 47.7l-5.3-3v6.4l5.4 3.1-.1-6.5z"/><path fill="#FF8D23" d="M52.5 44.5l-5.4-3.1-5.6 3.3 5.3 3 5.7-3.2z"/><path fill="#82310B" d="M46.8 47.7l.1 6.5 5.6-3.2v-6.5l-5.7 3.2z"/><path fill="#C44A10" d="M52.6 51.1L47.3 48v6.5l5.3 3v-6.4z"/><path fill="#FF8D23" d="M58.2 47.8l-5.3-3.1-5.6 3.3 5.3 3.1 5.6-3.3z"/><path fill="#82310B" d="M52.6 51.1v6.4l5.6-3.2v-6.5l-5.6 3.3z"/><g><path fill="#C44A10" d="M58.5 54.5l-5.3-3.1v6.4l5.3 3.1v-6.4z"/><path fill="#FF8D23" d="M64.2 51.2l-5.4-3.1-5.6 3.3 5.3 3.1 5.7-3.3z"/><path fill="#82310B" d="M58.5 54.5v6.4l5.7-3.2v-6.5l-5.7 3.3z"/><path fill="#C44A10" d="M64.3 57.8l-5.4-3.1.1 6.5 5.3 3.1v-6.5z"/><path fill="#FF8D23" d="M69.9 54.6l-5.3-3.1-5.7 3.2 5.4 3.1 5.6-3.2z"/><path fill="#82310B" d="M64.3 57.8v6.5l5.6-3.3v-6.4l-5.6 3.2z"/></g></g><g><path fill="#C7C7C7" d="M29.1 44.4l-5.3-3.1v6.5l5.3 3.1v-6.5z"/><path fill="gray" d="M34.7 41.2l-5.3-3.1-5.6 3.2 5.3 3.1 5.6-3.2zm-5.6 3.2v6.5l5.6-3.2v-6.5l-5.6 3.2z"/><path fill="#1A4B6C" d="M34.8 47.8l-5.3-3.1v6.4l5.4 3.1-.1-6.4z"/><path fill="#2B3E4F" d="M40.5 44.5l-5.4-3.1-5.6 3.3 5.3 3.1 5.7-3.3z"/><path fill="#07334E" d="M34.8 47.8l.1 6.4 5.6-3.2v-6.5l-5.7 3.3z"/><path fill="#C44A10" d="M40.7 51.2l-5.3-3.1v6.5l5.3 3v-6.4z"/><path fill="#FF8D23" d="M46.3 47.9L41 44.8l-5.6 3.3 5.3 3.1 5.6-3.3z"/><path fill="#82310B" d="M40.7 51.2v6.4l5.6-3.2v-6.5l-5.6 3.3z"/><path fill="#1A4B6C" d="M46.4 54.5l-5.3-3.1v6.5l5.3 3.1v-6.5z"/><path fill="#2B3E4F" d="M52 51.3l-5.3-3.1-5.6 3.2 5.3 3.1 5.6-3.2z"/><path fill="#07334E" d="M46.4 54.5V61l5.7-3.3-.1-6.4-5.6 3.2z"/><g><path fill="#C44A10" d="M52.4 57.9L47 54.8l.1 6.5 5.3 3.1v-6.5z"/><path fill="#FF8D23" d="M58 54.7l-5.3-3.1-5.7 3.2 5.4 3.1 5.6-3.2z"/><path fill="#82310B" d="M52.4 57.9v6.5l5.6-3.3v-6.4l-5.6 3.2z"/><path fill="#C44A10" d="M58.1 61.2l-5.3-3.1v6.5l5.3 3.1v-6.5z"/><path fill="#FF8D23" d="M63.7 58l-5.3-3.1-5.6 3.2 5.3 3.1 5.6-3.2z"/><path fill="#82310B" d="M58.1 61.2v6.5l5.6-3.2V58l-5.6 3.2z"/></g></g><g><path fill="#C44A10" d="M53.5 23.9l-5.3-3.1v6.5l5.3 3v-6.4z"/><path fill="#FF8D23" d="M59.1 20.6l-5.3-3.1-5.6 3.3 5.3 3.1 5.6-3.3z"/><path fill="#82310B" d="M53.5 23.9v6.4l5.7-3.2-.1-6.5-5.6 3.3z"/><path fill="#1A4B6C" d="M59.3 27.2l-5.4-3.1.1 6.5 5.3 3.1v-6.5z"/><path fill="#4B86A6" d="M64.9 24l-5.3-3.1-5.7 3.2 5.3 3.1 5.7-3.2z"/><path fill="#07334E" d="M59.2 27.2l.1 6.5 5.6-3.3V24l-5.7 3.2z"/><path fill="#C44A10" d="M65.1 30.6l-5.3-3.1V34l5.3 3.1v-6.5z"/><path fill="#FF8D23" d="M70.7 27.4l-5.3-3.1-5.6 3.2 5.3 3.1 5.6-3.2z"/><path fill="#82310B" d="M65.1 30.6v6.5l5.6-3.3v-6.4l-5.6 3.2z"/><path fill="#C44A10" d="M70.8 34l-5.3-3.1v6.4l5.3 3.1V34z"/><path fill="#FF8D23" d="M76.5 30.7l-5.4-3.1-5.6 3.3 5.3 3.1 5.7-3.3z"/><path fill="#82310B" d="M70.8 34v6.4l5.7-3.2v-6.5L70.8 34z"/><g><path fill="#C44A10" d="M76.8 37.3l-5.3-3v6.4l5.3 3.1v-6.5z"/><path fill="#FF8D23" d="M82.4 34.1L77.1 31l-5.6 3.3 5.3 3 5.6-3.2z"/><path fill="#82310B" d="M76.8 37.3v6.5l5.6-3.2v-6.5l-5.6 3.2z"/><path fill="#1A4B6C" d="M82.5 40.7l-5.3-3.1v6.5l5.3 3v-6.4z"/><path fill="#4B86A6" d="M88.1 37.4l-5.3-3.1-5.6 3.3 5.3 3.1 5.6-3.3z"/><path fill="#07334E" d="M82.5 40.7v6.4l5.7-3.2-.1-6.5-5.6 3.3z"/></g></g><g><path fill="#C44A10" d="M47.4 27.4l-5.3-3.1v6.5l5.4 3.1-.1-6.5z"/><path fill="#FF8D23" d="M53.1 24.2l-5.4-3.1-5.6 3.2 5.3 3.1 5.7-3.2z"/><path fill="#82310B" d="M47.4 27.4l.1 6.5 5.6-3.3v-6.4l-5.7 3.2z"/><path fill="#C44A10" d="M53.2 30.7l-5.3-3v6.4l5.3 3.1v-6.5z"/><path fill="#FF8D23" d="M58.8 27.5l-5.3-3.1-5.6 3.3 5.3 3 5.6-3.2z"/><path fill="#82310B" d="M53.2 30.7v6.5l5.6-3.2v-6.5l-5.6 3.2z"/><path fill="#9C9C9C" d="M59 34.2l-5.3-3.1v6.4l5.3 3.1v-6.4z"/><path fill="#FFF" d="M64.6 30.9l-5.3-3.1-5.6 3.3 5.3 3.1 5.6-3.3z"/><path fill="gray" d="M59 34.2v6.4l5.7-3.2-.1-6.5-5.6 3.3z"/><path fill="#1A4B6C" d="M64.7 37.5l-5.3-3.1v6.5l5.4 3.1-.1-6.5z"/><path fill="#4B86A6" d="M70.4 34.2l-5.3-3.1-5.7 3.3 5.3 3.1 5.7-3.3z"/><path fill="#07334E" d="M64.7 37.5l.1 6.5 5.6-3.3v-6.5l-5.7 3.3z"/><g><path fill="#C44A10" d="M70.7 40.9l-5.3-3.1v6.5l5.3 3v-6.4z"/><path fill="#FF8D23" d="M76.3 37.6L71 34.5l-5.6 3.3 5.3 3.1 5.6-3.3z"/><path fill="#82310B" d="M70.7 40.9v6.4l5.6-3.2v-6.5l-5.6 3.3z"/><path fill="#9C9C9C" d="M76.4 44.2l-5.3-3.1v6.5l5.4 3.1-.1-6.5z"/><path fill="#FFF" d="M82.1 41l-5.4-3.1-5.6 3.2 5.3 3.1 5.7-3.2z"/><path fill="#C7C7C7" d="M76.4 44.2l.1 6.5 5.6-3.3V41l-5.7 3.2z"/></g></g><g><path fill="#C44A10" d="M41.3 31L36 27.9v6.5l5.3 3.1V31z"/><path fill="#FF8D23" d="M46.9 27.8l-5.3-3.1-5.6 3.2 5.3 3.1 5.6-3.2z"/><path fill="#82310B" d="M41.3 31v6.5l5.7-3.3-.1-6.4-5.6 3.2z"/><path fill="#1A4B6C" d="M47.1 34.3l-5.4-3.1.1 6.5 5.3 3.1v-6.5z"/><path fill="#4B86A6" d="M52.7 31.1L47.4 28l-5.7 3.2 5.4 3.1 5.6-3.2z"/><path fill="#07334E" d="M47.1 34.3v6.5l5.6-3.2v-6.5l-5.6 3.2z"/><path fill="#C44A10" d="M52.9 37.7l-5.3-3v6.4l5.3 3.1v-6.5z"/><path fill="#FF8D23" d="M58.5 34.5l-5.3-3.1-5.6 3.3 5.3 3 5.6-3.2z"/><path fill="#82310B" d="M52.9 37.7v6.5l5.6-3.2v-6.5l-5.6 3.2z"/><path fill="#C44A10" d="M58.6 41.1L53.3 38v6.5l5.4 3-.1-6.4z"/><path fill="#FF8D23" d="M64.3 37.8l-5.4-3.1-5.6 3.3 5.3 3.1 5.7-3.3z"/><path fill="#82310B" d="M58.6 41.1l.1 6.4 5.6-3.2v-6.5l-5.7 3.3z"/><g><path fill="#1A4B6C" d="M64.6 44.5l-5.3-3.1v6.4l5.3 3.1v-6.4z"/><path fill="#4B86A6" d="M70.2 41.2l-5.3-3.1-5.6 3.3 5.3 3.1 5.6-3.3z"/><path fill="#07334E" d="M64.6 44.5v6.4l5.6-3.2v-6.5l-5.6 3.3z"/><path fill="#C44A10" d="M70.3 47.8L65 44.7v6.5l5.3 3.1v-6.5z"/><path fill="#FF8D23" d="M75.9 44.6l-5.3-3.1-5.6 3.2 5.3 3.1 5.6-3.2z"/><path fill="#82310B" d="M70.3 47.8v6.5L76 51l-.1-6.4-5.6 3.2z"/></g></g><g><path fill="#C44A10" d="M35.2 34.5l-5.3-3.1v6.5l5.4 3.1-.1-6.5z"/><path fill="#FF8D23" d="M40.9 31.3l-5.3-3.1-5.7 3.2 5.3 3.1 5.7-3.2z"/><path fill="#82310B" d="M35.2 34.5l.1 6.5 5.6-3.2v-6.5l-5.7 3.2z"/><path fill="#C44A10" d="M41 37.9l-5.3-3.1v6.4l5.3 3.1v-6.4z"/><path fill="#FF8D23" d="M46.6 34.6l-5.3-3.1-5.6 3.3 5.3 3.1 5.6-3.3z"/><path fill="#82310B" d="M41 37.9v6.4l5.6-3.2v-6.5L41 37.9z"/><path fill="#C44A10" d="M46.8 41.3l-5.3-3.1v6.4l5.3 3.1v-6.4z"/><path fill="#FF8D23" d="M52.4 38l-5.3-3.1-5.6 3.3 5.3 3.1 5.6-3.3z"/><path fill="#82310B" d="M46.8 41.3v6.4l5.7-3.2-.1-6.5-5.6 3.3z"/><path fill="#1A4B6C" d="M52.6 44.6l-5.4-3.1.1 6.5 5.4 3.2-.1-6.6z"/><path fill="#4B86A6" d="M58.2 41.4l-5.3-3.1-5.7 3.2 5.4 3.1 5.6-3.2z"/><path fill="#82310B" d="M52.6 44.6v6.5l5.6-3.3v-6.4l-5.6 3.2z"/><g><path fill="#C44A10" d="M58.5 48l-5.3-3.1v6.5l5.3 3.1V48z"/><path fill="#FF8D23" d="M64.1 44.7l-5.3-3-5.6 3.2 5.3 3.1 5.6-3.3z"/><path fill="#82310B" d="M58.5 48v6.5l5.7-3.3-.1-6.5-5.6 3.3z"/><path fill="#C44A10" d="M64.2 51.3l-5.3-3.1v6.5l5.4 3.1-.1-6.5z"/><path fill="#FF8D23" d="M69.9 48.1L64.6 45l-5.7 3.2 5.3 3.1 5.7-3.2z"/><path fill="#82310B" d="M64.2 51.3l.1 6.5 5.6-3.3v-6.4l-5.7 3.2z"/></g></g><g><path fill="#C44A10" d="M29.1 38l-5.3-3.1v6.4l5.3 3.1V38z"/><path fill="#FF8D23" d="M34.7 34.7l-5.3-3.1-5.6 3.3 5.3 3.1 5.6-3.3z"/><path fill="#82310B" d="M29.1 38v6.4l5.6-3.2v-6.5L29.1 38z"/><path fill="#1A4B6C" d="M34.8 41.3l-5.3-3.1v6.5l5.3 3.1v-6.5z"/><path fill="#4B86A6" d="M40.4 38.1L35.1 35l-5.6 3.2 5.3 3.1 5.6-3.2z"/><path fill="#07334E" d="M34.8 41.3v6.5l5.7-3.3-.1-6.4-5.6 3.2z"/><path fill="#C7C7C7" d="M40.7 44.7l-5.4-3.1.1 6.5 5.3 3.1v-6.5z"/><path fill="#FFF" d="M46.3 41.5L41 38.4l-5.7 3.2 5.4 3.1 5.6-3.2z"/><path fill="gray" d="M40.7 44.7v6.5l5.6-3.3v-6.4l-5.6 3.2z"/><path fill="#C44A10" d="M46.4 48l-5.3-3v6.4l5.3 3.1V48z"/><path fill="#FF8D23" d="M52 44.8l-5.3-3.1-5.6 3.3 5.3 3 5.6-3.2z"/><path fill="#82310B" d="M46.4 48v6.5l5.6-3.2v-6.5L46.4 48z"/><g><path fill="#1A4B6C" d="M52.3 51.4L47 48.3v6.5l5.4 3.1-.1-6.5z"/><path fill="#4B86A6" d="M58 48.2l-5.3-3.1-5.7 3.2 5.3 3.1 5.7-3.2z"/><path fill="#07334E" d="M52.3 51.4l.1 6.5 5.6-3.2v-6.5l-5.7 3.2z"/><path fill="#C7C7C7" d="M58.1 54.8l-5.3-3.1v6.4l5.3 3.1v-6.4z"/><path fill="#FFF" d="M63.7 51.5l-5.3-3.1-5.6 3.3 5.3 3.1 5.6-3.3z"/><path fill="#9C9C9C" d="M58.1 54.8v6.4l5.6-3.2v-6.5l-5.6 3.3z"/></g></g></g></svg>