<svg xmlns="http://www.w3.org/2000/svg" xmlns:xlink="http://www.w3.org/1999/xlink" viewBox="-90 120 350 110"><path d="M249.8 187.2l-6.4 1 4.5-.7 3.6-5.6-4.5-7.5-4.7.7-1.3-.7c-.3-.2-.7-.3-1-.5v-.1h-15.5v-.5H212c-2.5 1.7-4.4 3.7-5.3 5.6-1.1 2.4-.4 4.4 1.6 5.6l1 .6-.4.9-12.3-1.8-2.4.4-.9 1.9 17 4.4 2.4-.4 1.7-3.6c1 .1 2.1.1 3.2 0 .2.2.5.4.8.6l1.6.9c-.1-.1-.2-.1-.3-.2 1.2.8 3.1 1.3 5.5 1.2l10 18.5-27.7 4.3-.1-.1c-.5-.3-1.4-.4-2-.3-.4.1-.6.2-.6.3v-.1.1l-11-6.3.1-.3-3.2-.3h-.1l-.4-.2c-.1-.2-.3-.5-.6-.7-.2-.1-.4-.1-.5-.1l-.4.1h.1-.3c-.2 0-.3.1-.3.3-.1.1-.1.3 0 .5.1.3.3.5.6.6l.4-.1v-.2c-.2 0-.3-.2-.3-.4v-.3c0-.1.1-.1.1-.1h.1c.3.1.4.5.5.6v.1l.3.2 2.1 2.7.8-.1.1-.2 11 6.4v.1l-.1.3v.2c0 .1.1.1.2.2h.1c.3.2.8.3 1.2.3l.1-.3h-.1.1l-.1.3h.8c.3 0 .5-.2.6-.3l.1-.3v-.2l34.8.6 5.4-7 .2-.5.3-.6-.7-15.1 4.5-.7 1.2-2.5-2.7-1.6zM204 213.8l-11.2-6.5.6-1.3 11.1 6.4.1.1-.6 1.3zm12.8-1.2l.8-.1.2.1h-1zm2.7.1l-.6-.4 3.9-.6 1.9 1.1-5.2-.1zm6.9.1l-2.2-1.3 3.9-.6 3.5 2-5.2-.1zm6.8.1l-3.8-2.2 2.7-.4 4.7 2.7-3.6-.1zm7-.1l-5.1-3 8.4-1.3-3.3 4.3zm4.9-6.5l-5.4.8-7.4-19.2c.4-.1.8-.3 1.2-.4l3 1.7 1.4-.2 1.2.7-.7 1.6 2.3 1.4 3.6-.6.8 14.2z" fill="#ddd"/><path fill="#4e4e4e" d="M170.8 173.3l.3-.2-.3-.3-.3.2z"/><defs><path id="a" d="M171.9 174.3l.3-.2h-.1c-.1 0-.2 0-.4-.1-.1-.1-.3-.2-.4-.4-.1-.2-.3-.5-.2-.6l-.3.2c-.1.2.1.4.2.6.1.1.2.3.4.4.1.1.3.2.5.1-.1 0-.1 0 0 0z"/></defs><clipPath id="b"><use xlink:href="#a" overflow="visible"/></clipPath><g clip-path="url(#b)"><path d="M171.9 174.3l.3-.2h-.1c-.1 0-.2 0-.4-.1-.1-.1-.3-.2-.4-.4-.1-.2-.3-.5-.2-.6l-.3.2c-.1.2.1.4.2.6.1.1.2.3.4.4.1.1.3.2.5.1-.1 0-.1 0 0 0z" fill="#585858"/></g><defs><path id="c" d="M172.1 174.7l.3-.2c.2-.1.2-.3.2-.5 0-.5-.3-1.1-.4-1.3l-.3.2c.1.2.5.8.4 1.3 0 .2-.1.4-.2.5z"/></defs><clipPath id="d"><use xlink:href="#c" overflow="visible"/></clipPath><g clip-path="url(#d)"><path d="M172.1 174.7l.3-.2c.2-.1.2-.3.2-.5 0-.5-.3-1.1-.4-1.3l-.3.2c.1.2.5.8.4 1.3 0 .2-.1.4-.2.5z" fill="#585858"/></g><path fill="#4a4a4a" d="M171.9 172.9l.3-.2v-.8l-.3.2z"/><g><path fill="#4b4b4b" d="M171.9 172.1l.3-.2-.3-.1-.3.1z"/></g><g><path d="M171.6 171.9v1l.1.1c.1.2.4.7.4 1 0 .2-.1.3-.2.3s-.2 0-.4-.1c-.1-.1-.3-.2-.4-.4-.1-.2-.3-.5-.2-.6l-.3-.3c-.1.3 0 .7.3 1.1l.5.5c.2.1.4.1.5.1.2-.1.3-.3.4-.5 0-.5-.3-1.1-.4-1.3v-.8l-.3-.1z" fill="#838383"/></g><g><path fill="#dcdcdc" d="M173.1 152.7h.5v17.4h-.5z"/></g><g><path fill="#dcdcdc" d="M170.8 151.2h.5v18.6h-.5z"/></g><g><path fill="#535453" d="M237.9 211.7l2-1.2-6.2-23.7-2 1.2z"/><path fill="#656665" d="M231.7 188l2-1.2-14.6-8.5-2.1 1.2z"/><path fill="#464746" d="M217 179.5v3.9l11 6.3 7.1 20.4 2.8 1.6-6.2-23.7z"/></g><g><path fill="#2e2f2e" d="M241.4 171.3l-2-1.1 7.2 12.1 2 1.2z"/><path fill="#f8f8f8" d="M230.5 173.8l-2.1-1.1v3.8l2.1 1.2z"/><path fill="#656665" d="M245.1 165.4l-2-1.2-14.7 8.5 2.1 1.1z"/><path fill="#535453" d="M230.5 173.8v3.9l10.9-6.4 7.2 12.2 2.8-1.6-6.3-16.5z"/></g><g><path fill="#2e2f2e" d="M200.6 174l2-1.2-7.1 12.2-2.1 1.2z"/><path fill="#f8f8f8" d="M211.6 176.5l2-1.2v3.9l-2 1.2z"/><path fill="#656665" d="M196.9 168.1l2.1-1.2 14.6 8.4-2 1.2z"/><path fill="#464746" d="M211.6 176.5v3.9l-11-6.4-7.2 12.2-2.8-1.6 6.3-16.5z"/></g><g><path d="M202.9 174.1v2.6c0 2.7 1.8 5.5 5.4 7.6 7.2 4.2 19 4.2 26.3 0 3.7-2.1 5.5-4.9 5.5-7.7V174c0 2.8-1.8 5.5-5.5 7.7-7.3 4.2-19 4.2-26.3 0-3.6-2.1-5.4-4.9-5.4-7.6z" fill="#999"/><path d="M208.4 166.4c-7.3 4.2-7.3 11-.1 15.2 7.2 4.2 19 4.2 26.3 0 7.3-4.2 7.3-11 .1-15.2-7.3-4.2-19-4.2-26.3 0z" fill="#fff"/><path d="M213.7 168l.1 6.3c0 1.1.7 2.3 2.2 3.1.5.3 1.2.6 1.8.8l-.1-6.3c-.6-.2-1.3-.5-1.8-.8-1.4-.8-2.2-2-2.2-3.1z" fill="#2e2f2e"/><path d="M217.8 171.9l.1 6.3c2.3.7 5.1.7 7.4 0l-.1-6.3c-2.3.7-5.1.7-7.4 0z" fill="#484848"/><path d="M225.2 171.9l.1 6.3c.6-.2 1.2-.4 1.7-.8 1.5-.9 2.3-2 2.3-3.2l-.1-6.3c0 1.2-.8 2.3-2.3 3.2-.5.4-1.1.6-1.7.8z" fill="#2e2f2e"/><path d="M216 164.8c-3 1.7-3 4.6 0 6.3 3 1.7 7.9 1.7 10.9 0s3-4.6 0-6.3c-3-1.7-7.9-1.7-10.9 0z" fill="#4b4b4b"/><path d="M206.3 164.5v2.1c0 2.2 1.5 4.5 4.4 6.2 5.9 3.4 15.5 3.4 21.5 0 3-1.7 4.5-4 4.5-6.3v-2.1c0 2.3-1.5 4.5-4.5 6.3-5.9 3.4-15.6 3.4-21.5 0-2.9-1.8-4.4-4-4.4-6.2z" fill="#464746"/><path d="M210.8 158.2c-5.9 3.4-6 9-.1 12.4 5.9 3.4 15.5 3.4 21.5 0s6-9 .1-12.4c-6-3.4-15.6-3.4-21.5 0z" fill="#fff"/><path fill="#dcdcdc" d="M240.7 155.1v7.3l-9.6 5.6v-7.3z"/><path fill="#adadad" d="M231.1 160.7v7.3l-14.7-8.5v-7.3z"/><path fill="#fff" d="M240.7 155.1l-9.6 5.6-14.7-8.5 9.6-5.6z"/><g><path d="M217.7 144.6v17.6c0 .3.2.7.7.9.2.1.3.2.5.2v-17.6c-.2-.1-.4-.1-.5-.2-.5-.2-.7-.5-.7-.9z" fill="#2e2f2e"/><path d="M218.8 145.8v17.6c.7.2 1.5.2 2.2 0v-17.6c-.7.2-1.5.2-2.2 0z" fill="#464746"/><path d="M221 145.8v17.6c.2-.1.4-.1.5-.2.4-.3.7-.6.7-.9v-17.6c0 .3-.2.7-.7.9-.1 0-.3.1-.5.2z" fill="#2e2f2e"/><g><path d="M218.3 143.7c-.9.5-.9 1.3 0 1.9.9.5 2.3.5 3.2 0 .9-.5.9-1.3 0-1.9-.9-.5-2.3-.5-3.2 0z" fill="#4b4b4b"/></g></g><g><path fill="#f0910a" d="M215.3 145.3v3.2l3.7 2.1v-3.1z"/><path fill="#ffb300" d="M219 147.5v3.1l8.7-5-.1-3.1z"/><path fill="#ffca00" d="M215.3 145.3l3.7 2.2 8.6-5-3.7-2.1z"/></g><g><path fill="#e0e0e0" d="M202.5 136.1l-1.6-1-3.1 1.7 2.6 1.5z"/><path fill="#858585" d="M200.4 138.3l-2.6-1.5L212 167l2.6 1.6z"/><path fill="#dcdcdc" d="M202.5 136.1l-2.1 2.2 14.2 30.3 5.4-4.2z"/></g><g><path fill="#dadada" d="M208.1 132.1l-.9-.5-1.6.9.9.5z"/><path fill="#ba7008" d="M206.5 133l-.9-.5 13.4 11.7.9.5z"/><path fill="#ffb300" d="M208.1 132.1l-1.6.9 13.4 11.7 1.7-.9z"/></g><g><path d="M170.9 150.5l.1-.1c.3-.2.5-.2.7-.1l.4.2c-.2-.1-.4-.1-.7.1l-.1.1c-.1.1-.3.2-.4.4l-.4-.2c.1-.2.3-.3.4-.4z" fill="#a7a7a7"/><path d="M170.9 151.1l-.4-.2c-.3.3-.4.8-.5 1.1l.4.2c0-.3.2-.8.5-1.1z" fill="#dcdcdc"/><path d="M170.1 152l.4.2v.1c0 .1 0 .2.1.3 0 .1.1.2.2.3l-.4-.2c-.1-.1-.2-.2-.2-.3-.1 0-.1-.1-.1-.4 0 .1 0 .1 0 0z" fill="#a7a7a7"/><path d="M171.4 150.6c-.5.3-1 1.1-1 1.7 0 .6.4.9 1 .6.5-.3 1-1.1 1-1.7 0-.6-.5-.9-1-.6z" fill="#858585"/><g><path fill="#f0910a" d="M205.8 133.5l-1.6-1-9.1 5.3 1.6.9z"/><path fill="#f0910a" d="M195.7 130.3l-1.6-.9.1 8.9 1.6 1z"/><path fill="#ba7008" d="M208.2 132.1l-1.6-.9-11.7-4.5 1.6 1z"/><path fill="#f0910a" d="M195.8 139.3l-1.6-1-18.4 10.6 1.6.9z"/><path fill="#e38909" d="M191.3 132.7l-.6-.4.1 8.7.6.4z"/><path fill="#d8d8d8" d="M191.8 132.4l-.6-.4-.5.3.6.4z"/><path fill="#ffb300" d="M191.3 132.7l.1 8.7.4-.3v-8.7z"/><path fill="#e38909" d="M186.9 137.8l-.6-.3v6.1l.6.3z"/><path fill="#d8d8d8" d="M187.4 137.5l-.6-.3-.5.3.6.3z"/><path fill="#ffb300" d="M186.9 137.8v6.1l.5-.2v-6.2z"/><g><path fill="#e38909" d="M182.5 142.1l-.6-.3v4.3l.6.4z"/><path fill="#d8d8d8" d="M183 141.9l-.6-.4-.5.3.6.3z"/><path fill="#ffb300" d="M182.5 142.1v4.4l.5-.3v-4.3z"/></g><g><path fill="#ffca00" d="M196.5 127.7l-1.6-1-23 24.5 1.6.9z"/></g><g><path fill="#c9c9c9" d="M173.5 152.1l-1.6-.9v1.7l1.6 1z"/></g><g><path d="M196.5 127.7l11.7 4.5v1.8l-34.6 20v-1.8l22.9-24.5zm-.7 11.6v-8.9l-18.3 19.5 18.3-10.6zm.9-.6l9.1-5.2-9.1-3.5v8.7z" fill="#ffb300"/></g></g><g><path d="M171.3 150.9l.1-.1c.2-.1.4-.1.6-.1l2.6 1.5c-.1-.1-.4-.1-.6.1 0 0-.1 0-.1.1l-.3.3-2.6-1.5.3-.3z" fill="#464746"/><path d="M173.6 152.7l-2.6-1.5c-.2.3-.4.6-.4.9l2.6 1.5c0-.3.2-.6.4-.9z" fill="#656665"/><path d="M170.6 152.2l2.6 1.5v.4c0 .1.1.2.2.2l-2.6-1.5c-.1 0-.1-.1-.2-.2v-.4z" fill="#464746"/><g><path d="M174 152.3c-.4.3-.8.9-.8 1.4 0 .5.4.7.8.5.4-.3.8-.9.8-1.4 0-.5-.3-.7-.8-.5z" fill="#858585"/></g></g><g><path d="M173.9 152.3l.1-.1c.3-.2.5-.2.7-.1l.4.2c-.2-.1-.4-.1-.7.1l-.1.1c-.1.1-.3.2-.4.4l-.4-.2c.1-.2.3-.3.4-.4z" fill="#a7a7a7"/><path d="M173.9 152.9l-.4-.2c-.3.3-.4.8-.5 1.1l.4.2c.1-.4.2-.8.5-1.1z" fill="#dcdcdc"/><path d="M173.1 153.8l.4.2v.1c0 .1 0 .2.1.3 0 .1.1.2.2.3l-.4-.2c-.1-.1-.2-.2-.2-.3-.1-.1-.1-.2-.1-.4 0 .1 0 0 0 0z" fill="#a7a7a7"/><g><path d="M174.4 152.4c-.5.3-1 1.1-1 1.7 0 .6.4.9 1 .6.5-.3 1-1.1 1-1.7 0-.7-.4-.9-1-.6z" fill="#858585"/></g></g></g><g><path fill="#f9781a" d="M224.6 165l-6.3-3.7-1.5 7.7 6.3 3.6z"/><path fill="#1a4b6c" d="M224 165.3l-5.3-3.1-1 5.4 5.3 3.1z"/><path fill="#ff9823" d="M231.1 161.3l-6.3-3.7-6.5 3.7 6.3 3.7z"/><path fill="#ff8d23" d="M224.6 165l-1.5 7.6 8-4.6v-6.7z"/></g></g><g><path fill="#444" d="M171.6 172.6l.7-.5 1.7-2.4-.7.4z"/><path fill="#4b4b4b" d="M173.3 170.1l.7-.4-3.5-2.1-.7.4z"/><path fill="#848484" d="M169.8 168l1.8 4.6 1.7-2.5z"/></g><g><path fill="#1d5a82" d="M166.6 197.9l5.1-3v-5.6l-5.1 2.9z"/><path fill="#3497da" d="M166.6 192.2l5.1-2.9-13.2-7.6-5 2.9z"/><path fill="#1a7bad" d="M153.5 184.6v5.7l13.1 7.6v-5.7z"/><path fill="#c44a10" d="M166.6 192.3l5.1-3v-5.7l-5.1 3z"/><path fill="#ff8d23" d="M166.6 186.6l5.1-3-13.2-7.6-5 3z"/><path fill="#82310b" d="M153.5 179v5.6l13.1 7.7v-5.7z"/><g><path fill="#1d5a82" d="M160.6 201.3l5.1-2.9v-5.7l-5.1 3z"/><path fill="#246896" d="M160.6 195.7l5.1-3-13.2-7.6-5 3z"/><path fill="#1a7bad" d="M147.5 188.1v5.6l13.1 7.6v-5.6z"/></g><g><path fill="#9c9c9c" d="M154.7 204.7l5.1-2.9v-5.7l-5.1 3z"/><path fill="#3497da" d="M154.7 199.1l5.1-3-13.2-7.6-5 3z"/><path fill="#c7c7c7" d="M141.6 191.5l-.1 5.6 13.2 7.6v-5.6z"/></g><g><path fill="#206491" d="M154.7 199.1l5.1-2.9v-5.7l-5.1 3z"/><path fill="#3497da" d="M154.7 193.5l5.1-3-13.2-7.6-5 2.9z"/><path fill="#1c83b8" d="M141.6 185.8l-.1 5.7 13.2 7.6v-5.6z"/></g><g><path fill="#1d5a82" d="M181.7 206.6l5.1-3V198l-5.1 3z"/><path fill="#3497da" d="M181.7 201l5.1-3-13.2-7.6-5.1 2.9z"/><path fill="#1a7bad" d="M168.5 193.3v5.7l13.2 7.6V201z"/><path fill="#206491" d="M181.7 201l5.1-3v-5.7l-5.1 3z"/><path fill="#3497da" d="M181.7 195.3l5.1-3-13.2-7.5-5.1 2.9z"/><path fill="#1c83b8" d="M168.5 187.7v5.6l13.2 7.7v-5.7z"/><g><path fill="#1d5a82" d="M175.7 210.1l5.1-3v-5.7l-5.1 3z"/><path fill="#3497da" d="M175.7 204.4l5.1-3-13.2-7.6-5.1 3z"/><path fill="#1a7bad" d="M162.5 196.8v5.6l13.2 7.7v-5.7z"/></g><g><path fill="#c7c7c7" d="M175.7 204.4l5.1-2.9v-5.7l-5.1 3z"/><path fill="#fff" d="M175.7 198.8l5.1-3-13.2-7.6-5.1 3z"/><path fill="#919191" d="M162.5 191.2v5.6l13.2 7.6v-5.6z"/></g><g><path fill="#9c9c9c" d="M169.8 213.5l5-3v-5.7l-5 3z"/><path fill="#3497da" d="M169.8 207.8l5-3-13.1-7.6-5.1 3z"/><path fill="#c7c7c7" d="M156.6 200.2v5.6l13.2 7.7v-5.7z"/></g><g><path fill="#206491" d="M169.8 207.8l5-2.9v-5.7l-5 3z"/><path fill="#3497da" d="M169.8 202.2l5-3-13.1-7.6-5.1 3z"/><path fill="#1c83b8" d="M156.6 194.6v5.6l13.2 7.6v-5.6z"/></g></g><g><path fill="#c44a10" d="M197.4 215.7l5-3v-5.6l-5 2.9z"/><path fill="#ff8d23" d="M197.4 210l5-2.9-13.1-7.6-5.1 2.9z"/><path fill="#82310b" d="M184.2 202.4v5.7l13.2 7.6V210z"/><path fill="#c7c7c7" d="M191.4 219.1l5-2.9v-5.7l-5 3z"/><path fill="#3497da" d="M191.4 213.5l5-3-13.1-7.6-5.1 3z"/><path fill="#919191" d="M178.2 205.9v5.6l13.2 7.6v-5.6z"/><g><path fill="#206491" d="M191.4 213.5l5-2.9v-5.7l-5 3z"/><path fill="#3497da" d="M191.4 207.9l5-3-13.1-7.6-5.1 2.9z"/><path fill="#1c83b8" d="M178.2 200.2v5.7l13.2 7.6v-5.6z"/></g><g><path fill="#1d5a82" d="M185.4 222.5l5.1-2.9v-5.7l-5.1 3z"/><path fill="#3497da" d="M185.4 216.9l5.1-3-13.1-7.6-5.1 3z"/><path fill="#1a7bad" d="M172.3 209.3v5.6l13.1 7.6v-5.6z"/></g><g><path fill="#82310b" d="M185.4 216.9l5.1-2.9v-5.7l-5.1 3z"/><path fill="#ff8d23" d="M185.4 211.3l5.1-3-13.1-7.6-5.1 2.9z"/><path fill="#c44a10" d="M172.3 203.6v5.7l13.1 7.6v-5.6z"/></g></g></g><g><path fill="#cc9b00" d="M109.5 212.8v1.2l10.7 5.7v-1.2z"/><path fill="#fcc000" d="M120.2 218.5v1.2l1.2-.7v-1.2z"/><path fill="#fcce3a" d="M109.5 212.8l10.7 5.7 1.2-.7-10.7-5.7z"/><path fill="#cc9b00" d="M121.4 205.3l.1 1.2 10.7 5.7-.1-1.2z"/><path fill="#fcc000" d="M132.1 211l.1 1.2 1.1-.8v-1.2z"/><path fill="#fcce3a" d="M121.4 205.3l10.7 5.7 1.2-.8-10.7-5.7z"/><path d="M104.9 206.6c.3-.2.8-.2 1.4 0 .1 0 .1.1.2.1.8.4 1.5 1.3 1.9 2.2.2.5.4 1 .4 1.5 0 .7-.2 1.2-.6 1.4l-1.4.9c.4-.2.6-.7.6-1.4 0-.5-.2-1-.4-1.5-.4-.9-1.1-1.7-1.9-2.2-.1 0-.1-.1-.2-.1-.5-.2-1-.2-1.4 0l1.4-.9z" fill="#011c2b"/><path d="M105 207.6c-1.2-.6-2.2-.1-2.1 1.3 0 1.4 1.1 3 2.3 3.7 1.2.6 2.2.1 2.1-1.3-.1-1.4-1.1-3.1-2.3-3.7z" fill="#025074"/><path d="M105 208.9c-.6-.3-1 0-1 .6s.5 1.4 1.1 1.7c.6.3 1 0 1-.6s-.5-1.4-1.1-1.7z" fill="#c2c2c2"/><path d="M97.9 202.8c.3-.2.8-.2 1.4 0 .1 0 .1.1.2.1.8.4 1.5 1.3 1.9 2.2.2.5.4 1 .4 1.5 0 .7-.2 1.2-.6 1.4l-1.4.9c.4-.2.6-.7.6-1.4 0-.5-.2-1-.4-1.5-.4-.9-1.1-1.7-1.9-2.2-.1 0-.1-.1-.2-.1-.5-.2-1-.2-1.4 0l1.4-.9z" fill="#011c2b"/><path d="M98 203.8c-1.2-.6-2.2-.1-2.1 1.3 0 1.4 1.1 3 2.3 3.7 1.2.6 2.2.1 2.1-1.3-.1-1.4-1.1-3-2.3-3.7z" fill="#025074"/><path d="M98 205.1c-.6-.3-1 0-1 .6s.5 1.4 1.1 1.7c.6.3 1 0 1-.6s-.5-1.4-1.1-1.7z" fill="#c2c2c2"/><g><path fill="#b68b00" d="M112.1 198.3l10.4 5.6v.6l-10.3-5.5z"/><path fill="#dea900" d="M122.5 203.9v.6l.8-.5v-.6z"/><path fill="#a27b00" d="M112.1 197.4l11.2 6-.8.5-10.4-5.6z"/></g><g><path fill="#ff5b1f" d="M95.3 201.4l.1 4.1 12.3 6.5-.1-4z"/><path fill="#bd4417" d="M107.6 208l.1 4 11.9-7.4-.1-4.1z"/><path fill="#f9812a" d="M95.3 201.4l12.3 6.6 11.9-7.5-12.4-6.6z"/></g><g><path fill="#b68b00" d="M99.5 206v.6l10.7 5.8v-.7z"/><path fill="#dea900" d="M110.2 211.7v.7l.8-.5v-.7z"/><path fill="#a27b00" d="M99.5 206l10.7 5.7.8-.5-10.7-5.7z"/></g><g><path fill="#fcce3a" d="M110.8 208.1l13.1-8.3-1.4-.8-13.2 8.3z"/><path fill="#fcc000" d="M110.9 213.6l13.2-8.3-.2-5.5-13.1 8.3z"/><path fill="#cc9b00" d="M109.3 207.3l.2 5.5 1.4.8-.1-5.5z"/></g><g><path fill="#c2b6a1" d="M108.4 200.8l-2.4-1.2v1.7l2.4 1.3z"/><path fill="#fff" d="M110.6 199.4l-2.4-1.3-2.2 1.5 2.4 1.2z"/><path fill="#d3b8a6" d="M108.4 200.8v1.8l2.3-1.4-.1-1.8z"/><g><path fill="#dcceb6" d="M108.4 201.8l-3.3-1.8v.3l3.3 1.7z"/><path fill="#fff" d="M111.5 199.8l-3.3-1.8-3.1 2 3.3 1.8z"/><path fill="#edceba" d="M108.4 201.8v.2l3.1-1.9v-.3z"/><g><path fill="#dcceb6" d="M105.2 195.7l-.3-.2.2 4.5.2.1z"/><path fill="#fff" d="M108.3 193.7l-.2-.1-3.2 1.9.3.2z"/><path fill="#f0e7d8" d="M105.2 195.7l.1 4.4 3.2-1.9-.2-4.5z"/></g></g></g><g><g fill="#02374f"><path d="M111.2 199.9l-.1-.1-.3.6h.1c.1-.1.2-.3.3-.5zM110.8 200.5h-.1c-.1.1-.1.2-.2.2h.1l.2-.2zM110.7 200.7h-.1l-.2.2h.2c0-.1 0-.1.1-.2zM110.5 200.9h-.2l-.1.1h.2c0-.1.1-.1.1-.1z"/></g><path fill="#02374f" d="M111.2 199.5l-.1-.1v.1h.1z"/><g fill="#02374f"><path d="M110.4 201h-.2.2c-.1 0-.1 0 0 0zM110.3 201h-.2c-.2.1-.4.2-.5.2h.2c.2 0 .3 0 .5-.2z"/></g><g fill="#02374f"><path d="M111.1 199.2l-.2-.1c.1.1.1.1.2.1.1.1 0 0 0 0z"/><path d="M111.2 199.3l-.1-.1v.1l.1.1v-.1zM111.2 199.4l-.1-.1v.1h.1c0 .1 0 .1 0 0z"/></g><path fill="#02374f" d="M111.2 199.5h-.1l-1.7 1.2h.2z"/><path fill="#491a09" d="M109.6 200.7h-.2.2z"/><g fill="#037ab0"><path d="M111.3 198.9l-.2-.1c-.1-.1-.4-.1-.7.1l.2.1c.3-.1.5-.2.7-.1zM110.6 199.1l-.2-.1h-.1l.3.1z"/></g><g fill="#037ab0"><path d="M110.6 199.1l-.2-.1c-.1.1-.2.1-.2.2l.2.1c0-.1.1-.1.2-.2zM110.3 199.3l-.2-.1-.3.3.2.1c.2-.1.3-.2.3-.3z"/><path d="M110.1 199.6l-.2-.1c-.1.1-.2.3-.3.4l.2.1c.1-.2.2-.3.3-.4z"/><path d="M109.8 199.9l-.2-.1c-.2.3-.4.7-.4 1h.2c.1-.2.2-.5.4-.9zM109.4 200.9h-.2V201.2h.2v-.1-.2z"/><path d="M109.4 201.1h-.2c0 .1 0 .1.1.2h.2c-.1 0-.1-.1-.1-.2zM109.5 201.3h-.2s0 .1.2 0l.1.1c-.1 0-.1-.1-.1-.1zM109.6 201.4h-.2H109.7h-.1z"/></g><path d="M111.4 199.5c-.1.5-.6 1.2-1.1 1.6-.5.4-.9.4-.9-.1 0-.6.5-1.5 1.2-2 .6-.3.9-.1.8.5zm-.9-.1c-.4.3-.8.9-.9 1.3l1.6-1.2c0-.3-.2-.4-.7-.1zm-.1 1.6c.3-.3.7-.7.8-1.1l-1.5 1.2c0 .2.3.2.7-.1z" fill="#025e87"/><g><path fill="#025e87" d="M110.4 200.3l.3-.2-.2.1-.3.2z"/><path fill="#02374f" d="M112.1 203.9l.3-.2-1.7-3.6-.3.2z"/><path fill="#025375" d="M110.4 200.3l-.1.2 1.6 3.5.2-.1z"/></g></g><g><path d="M98.9 200.6l10.1 5.3-3.4-9.4-6.9-3.9.2 8zm.7-.3l-.2-6.3 6.2 3.3 3.1 7.9-9.1-4.9z" fill="#5f220c"/><path d="M98.5 200.8l10.7 5.7-3.5-9.7-7.4-3.9.2 7.9zm.6-.4l-.2-6.3 6.2 3.3 3.1 7.9-9.1-4.9z" fill="#bd4417"/><path d="M105.5 197.5l3.7 8.6 7.4-4.6-3.3-9-7.8 5zm.5-.3l6.8-4.3 3.1 8.1-6.6 4.1-3.3-7.9z" fill="#bd4417"/><path d="M105.7 196.8l3.5 9.7 7.8-4.9-3.5-9.7-7.8 4.9zm.7.3l6.8-4.3 3.2 8.5-6.8 4.3-3.2-8.5z" fill="#ff5b1f"/><path fill="#f9812a" d="M105.7 196.8l7.8-4.9-7.4-4-7.9 4.9z"/></g><g><path fill="#6f3b21" d="M114.4 219.8v.7l1 .6v-.7z"/><path fill="#5c311b" d="M115.4 220.4v.7l21.1-13.2-.1-.7z"/><path fill="#99522d" d="M114.4 219.8l1 .6 21-13.2-1-.5z"/><path fill="#6f3b21" d="M109.4 216.4l.1.7 1 .6v-.7z"/><path fill="#5c311b" d="M110.5 217v.7l21-13.2v-.7z"/><path fill="#99522d" d="M109.4 216.4l1.1.6 21-13.2-1-.5z"/><g><path fill="#854727" d="M136 210.9v.6l-1.6 1v-.6z"/><path fill="#6f3c21" d="M134.4 211.9v.6l-11.2-6v-.6z"/><path fill="#b76236" d="M136 210.9l-1.6 1-11.2-6 1.6-1z"/></g><g><path fill="#854727" d="M130.6 214.2v.6l-1.6 1v-.6z"/><path fill="#6f3c21" d="M129 215.2v.6l-11.2-5.9v-.6z"/><path fill="#b76236" d="M130.6 214.2l-1.6 1-11.2-5.9 1.6-1z"/></g><g><path fill="#854727" d="M124.2 218.3v.6l-1.6 1.1v-.6z"/><path fill="#6f3c21" d="M122.6 219.4v.6l-11.2-6v-.6z"/><path fill="#b76236" d="M124.2 218.3l-1.6 1.1-11.2-6 1.6-1z"/></g></g><g><path fill="#e0b477" d="M119.6 206.2l.2 4.6 5.5 3-.2-4.7z"/><path fill="#bb884f" d="M125.1 209.1l.2 4.7 7.6-4.8-.2-4.7z"/><path fill="#efcd90" d="M119.6 206.2l5.5 2.9 7.6-4.8-5.4-2.9z"/><path fill="#f7ecea" d="M129.4 202.5l1.1.6-7.6 4.8-1.2-.6z"/><path fill="#c2ab9d" d="M122.9 207.9l-1.2-.6.1 1.1 1.1.6z"/><g fill="#5c4123"><path d="M120.4 210.6v.1l.8.4v-.1zM120.5 210.6h.1v-.6l.1.1-.2-.3-.1.1.1.1z"/><path d="M120.9 210.8l.1.1v-.6h.1l-.1-.3-.2.2h.1z"/><path d="M121.2 211.3l-.8-.4c-.2-.1-.3-.3-.3-.4v-.8c0-.2.1-.2.3-.1l.8.4c.2.1.3.3.3.4v.8c0 .1-.1.2-.3.1zm-.9-1.8c-.1-.1-.2 0-.2.1v.8c0 .1.1.3.2.4l.8.4c.1.1.2 0 .2-.1v-.8c0-.1-.1-.3-.2-.4l-.8-.4z"/></g><g fill="#5c4123"><path d="M122.9 211.5s-.1-.1-.2-.1c-.1-.1-.2-.1-.2-.1l-.1-.1v.6c0 .1-.1.1-.1 0-.1 0-.1-.1-.1-.2 0 0 0 .1.1.1h.1v-.5c-.1 0-.1-.1-.1 0 0 0-.1-.1-.2-.1-.1-.1-.2-.1-.2-.1 0-.2.2-.3.5-.2.3.2.5.5.5.7z"/><path d="M122.9 212.2l-.8-.4c-.2-.1-.3-.3-.3-.4v-.8c0-.2.1-.2.3-.1l.8.4c.2.1.3.3.3.4v.8c-.1.1-.2.2-.3.1zm-.9-1.8c-.1-.1-.2 0-.2.1v.8c0 .1.1.3.2.4l.8.4c.1.1.2 0 .2-.1v-.8c0-.1-.1-.3-.2-.4l-.8-.4z"/></g><g fill="#5c4123"><path d="M124.3 212.1c0 .1-.1.2-.2.1v.4l.1.1v.1l-.3-.2v-.1l.1.1v-.4c-.1-.1-.2-.2-.2-.4v-.3l.4.2.1.4z"/><path d="M124.5 213.1l-.8-.4c-.2-.1-.3-.3-.3-.4v-.8c0-.2.1-.2.3-.1l.8.4c.2.1.3.3.3.4v.8c0 .1-.1.1-.3.1zm-.9-1.8c-.1-.1-.2 0-.2.1v.8c0 .1.1.3.2.4l.8.4c.1.1.2 0 .2-.1v-.8c0-.1-.1-.3-.2-.4l-.8-.4z"/></g></g><g><path fill="#e0b477" d="M109.9 212.2l.1 4.7 5.5 2.9-.2-4.7z"/><path fill="#bb884f" d="M115.3 215.1l.2 4.7 7.6-4.8-.2-4.6z"/><path fill="#efcd90" d="M109.9 212.2l5.4 2.9 7.6-4.7-5.4-2.9z"/><path fill="#f7ecea" d="M119.6 208.6l1.1.6-7.6 4.8-1.1-.6z"/><path fill="#c2ab9d" d="M113.1 214l-1.1-.6v1.1l1.1.6z"/><g fill="#5c4123"><path d="M110.6 216.6v.1l.8.5v-.1zM110.7 216.6l.1.1v-.6l.1.1-.1-.4-.2.2.1.1zM111.2 216.9h.1l-.1-.6.1.1-.1-.3-.1.1v.1z"/><path d="M111.4 217.4l-.8-.4c-.2-.1-.3-.3-.3-.4v-.8c0-.2.1-.2.3-.1l.8.4c.2.1.3.3.3.4v.8c0 .1-.1.1-.3.1zm-.8-1.8c-.1-.1-.2 0-.2.1v.8c0 .1.1.3.2.4l.8.4c.1.1.2 0 .2-.1v-.8c0-.1-.1-.3-.2-.4l-.8-.4z"/></g><g fill="#5c4123"><path d="M113.2 217.6s0-.1 0 0c0 0-.1-.1-.2-.1-.1-.1-.2-.1-.2-.1l-.1-.1v.6c0 .1-.1.1-.1 0-.1 0-.1-.1-.1-.2 0 0 0 .1.1.1h.1v-.5c-.1 0-.1-.1-.1 0 0 0-.1-.1-.2-.1-.1-.1-.2-.1-.2-.1 0-.2.2-.3.5-.2.2.1.5.4.5.7z"/><path d="M113.1 218.2l-.8-.4c-.2-.1-.3-.3-.3-.4v-.8c0-.2.1-.2.3-.1l.8.4c.2.1.3.3.3.4v.8c0 .2-.2.2-.3.1zm-.9-1.7c-.1-.1-.2 0-.2.1v.8c0 .1.1.3.2.4l.8.4c.1.1.2 0 .2-.1v-.8c0-.1-.1-.3-.2-.4l-.8-.4z"/></g><g fill="#5c4123"><path d="M114.5 218.1c0 .1-.1.2-.2.1v.4l.1.1v.1l-.3-.2v-.1l.1.1v-.4c-.1-.1-.2-.2-.2-.4v-.3l.4.2.1.4z"/><path d="M114.7 219.1l-.8-.4c-.2-.1-.3-.3-.3-.4v-.8c0-.2.1-.2.3-.1l.8.4c.2.1.3.3.3.4v.8c0 .1-.1.2-.3.1zm-.9-1.8c-.1-.1-.2 0-.2.1v.8c0 .1.1.3.2.4l.8.4c.1.1.2 0 .2-.1v-.8c0-.1-.1-.3-.2-.4l-.8-.4z"/></g></g><g><path fill="#e0b477" d="M112.8 205.2l.2 4.7 5.4 2.9-.2-4.7z"/><path fill="#bb884f" d="M118.2 208.1l.2 4.7 7.6-4.8-.1-4.6z"/><path fill="#efcd90" d="M112.8 205.2l5.4 2.9 7.7-4.7-5.5-2.9z"/><path fill="#f7ecea" d="M122.5 201.6l1.2.6-7.7 4.8-1.1-.6z"/><path fill="#c2ab9d" d="M116 207l-1.1-.6v1.1l1.2.6z"/><g fill="#5c4123"><path d="M113.5 209.6v.1l.9.5v-.1zM113.7 209.6l.1.1-.1-.6h.1l-.1-.3-.1.2zM114.1 209.9h.1v-.6l.1.1-.2-.3-.1.1.1.1z"/><path d="M114.4 210.4l-.8-.4c-.2-.1-.3-.3-.3-.4v-.8c0-.2.1-.2.3-.1l.8.4c.2.1.3.3.3.4v.8c-.1.1-.2.1-.3.1zm-.9-1.8c-.1-.1-.2 0-.2.1v.8c0 .1.1.3.2.4l.8.4c.1.1.2 0 .2-.1v-.8c0-.1-.1-.3-.2-.4l-.8-.4z"/></g><g fill="#5c4123"><path d="M116.1 210.5s-.1-.1-.2-.1c-.1-.1-.2-.1-.2-.1l-.1-.1v.6c0 .1-.1.1-.1 0-.1 0-.1-.1-.1-.2 0 0 0 .1.1.1h.1v-.5c-.1 0-.1-.1-.1 0 0 0-.1-.1-.2-.1-.1-.1-.2-.1-.2-.1 0-.2.2-.3.5-.2.3.2.5.5.5.7 0 0 0 .1 0 0z"/><path d="M116 211.2l-.8-.4c-.2-.1-.3-.3-.3-.4v-.8c0-.2.1-.2.3-.1l.8.4c.2.1.3.3.3.4v.8c0 .2-.1.2-.3.1zm-.9-1.7c-.1-.1-.2 0-.2.1v.8c0 .1.1.3.2.4l.8.4c.1.1.2 0 .2-.1v-.8c0-.1-.1-.3-.2-.4l-.8-.4z"/></g><g fill="#5c4123"><path d="M117.4 211.1c0 .1-.1.2-.2.1v.4l.1.1v.1l-.3-.2v-.1l.1.1v-.4c-.1-.1-.2-.2-.2-.4v-.3l.4.2.1.4z"/><path d="M117.6 212.1l-.8-.4c-.2-.1-.3-.3-.3-.4v-.8c0-.2.1-.2.3-.1l.8.4c.2.1.3.3.3.4v.8c0 .1-.1.2-.3.1zm-.8-1.8c-.1-.1-.2 0-.2.1v.8c0 .1.1.3.2.4l.8.4c.1.1.2 0 .2-.1v-.8c0-.1-.1-.3-.2-.4l-.8-.4z"/></g></g></g></svg>