<svg xmlns="http://www.w3.org/2000/svg" viewBox="0 0 350 150"><path d="M20.2 98c.5 1.9 1 2.4 1.8 3.2.6.6 3.9 2.7 4.2 3.4.2.5.2 1.2-.5 1.7-.8.5-2.3.5-3.3.3-2.2-.3-3.8-1.6-5.6-2.9-.2.2-.9-.1-1.7-.5-.6-.3-.9-.6-1-1.2-.1-.4 0-1.2.1-1.6.1-1.1.6-2 1.1-3.1l2.1-.5 2.8 1.2z" fill="#07b7c4"/><path d="M26.3 104.9c.1.4-.1 1-.6 1.4-.8.5-2.3.5-3.3.3-2.2-.3-3.8-1.6-5.6-2.9-.2.2-.9-.1-1.7-.5-.6-.3-.9-.6-1-1.2v-.8c.3.8 2 1.6 2.8 1.7 1.7 1.3 3.4 2.5 5.6 2.8 1 .2 2.5.2 3.3-.3.2-.3.4-.4.5-.5z" fill="#d3ddde"/><path d="M30.7 95.5c.5 1.9 1 2.4 1.8 3.2.6.6 3.9 2.7 4.2 3.4.2.5.2 1.2-.5 1.7-.8.5-2.3.5-3.3.3-2.2-.3-3.8-1.6-5.6-2.9-.2.2-.9-.1-1.7-.5-.6-.3-.9-.6-1-1.2-.1-.4 0-1.2.1-1.6.1-1.1.6-2 1.1-3.1l2.1-.5 2.8 1.2z" fill="#079da8"/><path d="M36.8 102.4c.1.4-.1 1-.6 1.4-.8.5-2.3.5-3.3.3-2.2-.3-3.8-1.6-5.6-2.9-.2.2-.9-.1-1.7-.5-.6-.3-.9-.6-1-1.2v-.8c.3.8 2 1.6 2.8 1.7 1.7 1.3 3.4 2.5 5.6 2.8 1 .2 2.5.2 3.3-.3.2-.2.4-.3.5-.5z" fill="#becbcc"/><path d="M19.9 51.7c-.5 2.5-1.2 4.7-1.4 7.2-.4 4.8 4.9 12.7 5.2 17.9l-.2 3.8c-.4 3.9.3 9 1.2 15.3 1 2.3 6.4 2.8 6.9 2.1.1-.2-.9-22.1-.6-24.8.3-7.7-2.8-14.7-2.5-23l-8.6 1.5z" fill="#032747"/><path d="M14.1 52.9c-.5 4.1-1.4 6-.6 10.3s1.4 9.2 1.6 13.6l-.6 5.7c-.4 3.9.5 9.2.1 15.2-.7 2.7 6.2 4.5 6.9 2.9L23 75.2c.3-7.7.5-13.9.8-22.1l-9.7-.2z" fill="#05345e"/><path d="M28.4 41.6c.6 1.9 3.2 2.1 4.5 1.5.8-.4 1.3-2.3 1.4-3.3-.4-3.2-2.8-14-4.4-15.6-1.9-1.8-5.4-2-6 3.2-.3 2.4 2.9 9.7 4.5 14.2z" fill="#c8d8d9"/><path d="M12.5 32.3c-.8 2.5-.2 5.9.1 8.5.5 3.8.8 5.9.9 10.6 0 1.4-.5 5.9-.3 8.4 3.7 2.3 14.5-.9 15.3-5.4l2-18.6c.5-3.3 1.3-13.7-3.8-13-1.9.3-4.8.1-7.6 1.8-3.6 2-6.6 6-6.6 7.7z" fill="#dce7e8"/><path d="M16.2 48c1.8 2.4 5.8.6 5.8-1.3l-2.1-14c-.6-4.7-9.1-5.5-6.9 3.6.7 3 2.1 6.8 2.8 10.4 0 .5.1 1 .4 1.3z" fill="#ebf4f5"/><path d="M19.5 20.2c.2 1.4-.1 4.2-.4 5.5-.5 2.2 5.8 4.3 5.6.2 0-.6 0-1.2.1-1.8l-5.3-3.9zM30.3 19c.7 1.6 1.9 3.4 1.5 5.1-.1.6-.6 1.2-.3 2.5l-2.8.8c-.1-.9 0-1.3-.1-1.7-.1-.5-.9-.7-1.2-1.9-.4-.8-1-1.6-.5-1.9.3-.1.6.3.8.6.2.3.4.5.6.8 0-.3.1-.6.1-.9-.2-.6-.4-1.1-.6-1.7l-.5-1.8c-.1-.4.7-.9 1.3-1 1.2-.2 1.4.4 1.7 1.1z" fill="#f0c17d"/><g fill="#ebf4f5"><path d="M19.2 24.6c.9 2 2.8 3.1 3.9 3.6l-.9 2.4c-2.7-1.9-3.2-3.1-3.7-4.2l.7-1.8z"/><path d="M24.8 25.4c-.3 1.1-.9 1.7-1.8 2.7l1.2 2.1c.9-1.6 1-2.2.8-3.7l-.2-1.1z"/></g><path d="M28.5 18.8c0 1.9-1.6 6.7-3 7.7-.3.2-1.1.4-1.5.3-.8-.1-2.7-1.9-3.2-2.4-.8-.9-.8-1.5-1-3.2l-.5-1.4.2-4.7c2.8-1 5.2-1.7 6.5-1.3s2.4 1.5 2.5 5z" fill="#ffdba7"/><path d="M29.5 19.5c-.3-1 .5-3-1.2-4.9.3.2.6.5.8.8-.2-1.1-.4-1.6-1.7-2.1.4.1.5.1.9.2-.8-1.8-4.8-2.9-7-1.5-2.2.6-3.5 2.5-3.4 4.5.1 1.4.6 3.1 1.3 4.6.2.6.4 1.1.4 1.4l.2-1.5c-.6-1-.3-2.5.4-2.7 1.1-.3 1.2.6 1.2 2.5.8-1.8.8-1.9 2.1-3.4 1.3-.3 4 2.7 6 2.1z" fill="#261505"/><path d="M23.2 41.1l6.5-2.5c1.5.2 2.5 1.9 2 3.3-4.1 2.7-7.8 5.4-11 6.7-1.9.7-2.4 1.2-3.6-.9-1-1.6 1.4-4.2 3.3-5.2.7-.4 1.8-1 2.8-1.4z" fill="#ebf4f5"/><path d="M28.8 35.2l-.6-8.9c.6-.9 2.8-1.3 3.5-.5.9 4.7 2.8 8.6 2.7 12.1-.1 2 .2 5-2.2 5.5-1.9.4-2.8-2.7-3-4.7-.1-1-.3-2.5-.4-3.5z" fill="#c8d8d9"/><path d="M99.4 26.7c-1.1 2.6-2.2 8.1-2.2 11.8 0 2.4 2.8 3.5 3.6 1.4 1.4-3.4 3.5-8.9 2.8-12-.6-2.7-3.5-3-4.2-1.2z" fill="#079da8"/><path d="M108.9 82.7c.5 1 .9 2.4 1 3.9.2 2.8-.2 5.6.7 5.8 1.1.2 1.9-.9 2.5-1.6 1.3-1.7 1.8-4.1 2.2-6.2.3-.3.4-.8.6-1.6.2-.7.2-1.1-.1-1.5-.2-.3-.6-.8-.9-1-1.7-1.3-2.9-.7-3.7-1.1l-1.2.6-1.1 2.7z" fill="#05345e"/><path d="M110.5 92.3s.1 0 .2.1c1.1.2 1.9-.9 2.5-1.6 1.3-1.7 1.8-4.1 2.2-6.2.3-.3.4-.8.6-1.6.2-.7.2-1.1-.1-1.5-.2-.3-.6-.8-.9-1-.3-.2-.6-.4-.9-.5.2.2.4.5.6.7.7 1-.1 3.1-.3 4.2-.4 1.9-1 3.9-1.9 5.7-.5.5-1.2 1.4-2 1.7zM107.6 82.5c0-.4 1.1-1.1 2-.9 1.2.3 1 3.6.6 5.3-.5-2-2.6-3.6-2.6-4.4z" fill="#fdca01"/><path d="M106.4 89.2c-.3 1.1-1 2.4-1.9 3.5-1.8 2.1-4 3.9-3.4 4.7.7.9 2 .7 2.9.5 2.2-.3 4.1-1.7 5.9-3 .4 0 .8-.3 1.6-.8.6-.3.9-.6 1-1.2.1-.4.1-1 0-1.4-.4-2.1-1.6-2.6-1.9-3.3l-1.3-.3-2.9 1.3z" fill="#084478"/><path d="M101 97.2c0 .1 0 .1.1.1.7.9 2 .7 2.9.5 2.2-.3 4.1-1.7 5.9-3 .4 0 .8-.3 1.6-.8.6-.3.9-.6 1-1.2.1-.4.1-1 0-1.4s-.2-.7-.3-1c0 .3 0 .7-.1.9-.2 1.2-2.2 2.2-3.1 2.8-1.6 1.1-3.4 2.2-5.3 2.8-.8.4-1.9.7-2.7.3z" fill="#fdca01"/><path d="M107.8 26.3c3.4 1.1 5.4 2.6 4.6 3.4-.9.8-4.3.5-7.7-.6-3.4-1.1-5.4-2.6-4.6-3.4.9-.7 4.3-.5 7.7.6z" fill="#c6def2"/><path d="M99.5 64.5l8.7 17.9c0 .1.1.1.2.1.5 0 1.4-1.1 2.1-2.4.5-1 .7-1.9.6-2.2-1.1-3.9-2.3-8.4-4.6-11.8-.8-1.2-1.1-1-1.9-2-1.9-2.4-5.3-1.7-5.1.4z" fill="#365a78"/><path d="M99.6 63.9c-.6 1.9 3.4 3.7 5.4 1.2l9.5-16.5-9.2-6.9c-1.1 3.3-1.5 4-2.4 7.4-1.3 4.8-2.5 10.7-3.3 14.8z" fill="#365a78"/><path d="M109.3 45.2h-.7l-.5 3.8c-1.7 4.1-1.5 13.5-1.4 17.4V68c-.1 3.2 4.8 2 5.4.3 1-3 1.3-4.3 2.2-7.8 1.5-5.8 5-10.5-1-15.7l-4 .4z" fill="#406a8c"/><path d="M106.7 68.1l-.5 22.7c0 .1 0 .2.1.2.4.2 2 0 3.2-.9.9-.7 1.2-1.7 1.2-2.1.9-4.7 2.1-10.1 1.9-13.6-.1-3.3-.5-5.1-.5-6.5.1-3.1-5.3-5.8-5.4.2z" fill="#406a8c"/><path d="M102.3 11.7c-1.9.3-3.2.8-3.7 1.8-2 4.4 3.1 13.4 1.5 17l4.6-1.3 1.2-12.3-3.6-5.2z"/><path d="M105.8 20c.1.9-.3 3.2 1.2 5.3l-2.7 3.2-1.9-1.1c0-2.1-.2-3.3-.9-4.9l4.3-2.5z" fill="#f0c17d"/><path d="M106.8 24.7c1.1 1.5 2.2 2.2 3.8 2.7 3 1 2.2 6.2 1.6 9.7-.3 2-.1 3.4.1 4.5.2.8.3 1.4.8 2 2.1 2.5 4 5.7 3.8 8.1h-.1c0 .1-.1.2-.2.3-1 .9-4.8.6-8.6-.6-3.5-1.1-5.7-2.6-5.3-3.5.2-1.8.2-4.5 0-5.3-.2-.7-1.4-4-2.4-5.6-1.2-1.1-1.8-2.4-2-3.5-.2-1.2 1.1-6.1 1.7-7.4.3-.5 1.4-.6 2.2-.4 0 1.3 3.6 1.8 4.6-1z" fill="#07b7c4"/><path d="M99.2 13.6c-1.3 3.1-.1 4.7.1 7 .1 1.2.6 2.1 1 2.7.6.9 1.1 1.3 1.7 1.3 1.1.1 5.3-2.8 5.3-4.3l.1-6-8.2-.7z" fill="#ffdba7"/><path d="M105.2 23.8c.5 2.6.3 6.4-.2 7.6 2.3-.8 4.3-3 4.6-6 .2-2.1-.1-6.5-.5-9-.6-3.7-3.2-6.6-7.8-4.9-1 .3-2.5 1.1-2.6 2.8-.4 5.7 6.7 4.2 6.5 9.5z" fill="#121111"/><path d="M105.4 88c.3-.3 1.5 0 2.1.8.7 1.1-1.7 3.3-3.2 4.2 1-1.8.5-4.4 1.1-5z" fill="#fdca01"/><g><path d="M76.8 34.4c1.3 1.5.2 12.4 0 14.7-.3.5-1.4 1.4-3.1 1.2-.4-.5-.4-1.1-.4-1.2-.3-3.1.1-8.9 0-12.1l3.5-2.6z" fill="#cbbecc"/><path d="M66.7 26.8c-.5 2.3-.2 4.5-.5 6-.3 2-1.6 3-2.3 4.1-2.1 3.4 10.3-2.9 10.3-3-.7-3-3.1-4.5-5.4-6.2.2.1-2.1-.8-2.1-.9z" fill="#290f01"/><path d="M70.5 50.7h.7l-.1 6.5c.2 3.7.9 11.1 1 14.8.1 2.4-.5 3.6-.5 5.4.2 5.1-.4 10-.5 15.2l-2.3 2.2c-1.1-7.9-2.8-12.2-2.6-16.7.3-7.5 0-7.4-.8-12.1-1.2-7.2-.4-2.1-.1-5 .2-2.2.6-5 2.4-10.6l2.8.3z" fill="#f0c17d"/><path d="M65.6 54.5h.7l-.1 6.5c.2 3.7.9 11.1 1 14.8.1 2.4-.5 3.6-.5 5.4.2 5.1-.4 10-.5 15.2l-2.3 2.2c-1.1-7.9-2.8-12.2-2.6-16.7.3-7.5 0-7.4-.8-12.1-1.2-7.2-.4-2.1-.1-5 .2-2.2.6-5 2.4-10.6l2.8.3z" fill="#ffdba7"/><path d="M66.2 94.2c-.1 1.4.2 2.2.4 2.7.5 1.2 2.6 2.7 3.5 3.6l-.3 1.2h-1.1l-1.4-.1c-.8-.6-1.5-1.4-2.1-1.9-2-1.6-2.7-1.8-2.2-3 .2-.5.5-2.4 0-4.7l3.2 2.2z" fill="#ffdba7"/><path d="M69.4 99.9c.2.2.4.5.4.8s-.3.6-1 .6c-.9.1-2.3-1-3.2-1.9-1-1-1.9-1.9-2.4-3-.6.7-.8 1.5-.6 2.6l.2 1.2 1.4.7.6-.2v-.4c.7.5 1.6 1.7 2.2 2 1.4.8 2.4.7 3.2.7.6 0 1.2-.4 1.1-1-.3-1-1.5-1.8-1.9-2.1z" fill="#05345e"/><path d="M71.1 91.4c-.1 1.4.2 2.2.4 2.7.5 1.2 2.6 2.7 3.5 3.6l-.3 1.2h-1.1l-1.4-.1c-.8-.6-1.5-1.4-2.1-1.9-2-1.6-2.7-1.8-2.2-3 .2-.5.5-2.4 0-4.7l3.2 2.2z" fill="#f0c17d"/><path d="M74.3 97.1c.2.2.4.5.4.8s-.3.6-1 .6c-.9.1-2.3-1-3.2-1.9-1-1-1.9-1.9-2.4-3-.6.7-.8 1.5-.6 2.6l.2 1.2 1.4.7.6-.2v-.4c.7.5 1.6 1.7 2.2 2 1.4.8 2.4.7 3.2.7.6 0 1.2-.4 1.1-1-.3-.9-1.4-1.8-1.9-2.1z" fill="#042847"/><path d="M58.5 59.7c0 4.1 1.5 9 2.1 15.3 0 .5.3.9.8 1.3 1.6 1 5.3.4 8.1-1.2 2-1.2 3.1-2.6 2.9-3.6 1.1-14.7.8-16.4-.2-19.5-.5-1.7-1.6-3.5-1.6-4.3-3.4 3.6-7 .4-9.5 2.5-.8 3.7-2.6 4.1-2.6 9.5z" fill="#473148"/><path d="M66.1 35.2c-1.8 1-3.3 2.4-3.7 4.6-.3 2.1-.6 5.3-.6 8.6 0 11 12.1-2 12.1-2 .9-.6 2.3-.8 3.1-2.3 1.1-2.2.5-5.4.2-8.5 0-.7-.3-1.3-1-1.7-2-1.2-6.5-.8-10.1 1.3z" fill="#e2d7e3"/><path d="M77.3 35.5c.3 3.1.9 6.3-.2 8.5-.8 1.5-2.1 1.8-3.1 2.3-.9.6-1.9 2.2-2.8 6.2l-10.8 4.8c-1.6-3.4.8-5.6 1.5-9 0-.2.1-.5.1-.7 1.5.6 3.3-.3 3.9-2.4 1.5-5.2.9-8.5-1.3-9.1.9-.7 1.6-1.2 2.8-1.7 2.6 2.4 5 6 5.7 9.5 2.1-3.5 2.3-7.2 1.6-10.7.6.1 1.2.3 1.7.6.6.5.9 1.1.9 1.7z" fill="#473148"/><path d="M69.1 30.6c-.1 1-.1 3.2-.3 3.9-.1 2.3 3.1 3.6 4.6 1.9l.6-3.5-4.9-2.3z" fill="#f0c17d"/><path d="M74.4 23.9c3.9 1.7 2.4 9.2-.5 10.5L70.2 33l-.6-3.6 2-3.7 2.8-1.8z" fill="#290f01"/><path d="M76.1 28.1c.2.9.2 2.4-.3 4.1-.3 1-.6 1.5-.9 2-.3.5-.9 1.2-1.4 1.2-1 .1-3.1-1.4-3.5-1.7-.6-.4-.9-.8-.9-1.4v-.5c-.4-.2-.7-.2-1.1-.7-.3-.5-.7-.9-.8-2-.3-2.9 1.3-4.2 3-4.7 2.3-.5 5 .6 5.9 3.7z" fill="#ffdba7"/><path d="M69.4 31.9c-.2-.4-.3-1-.4-1.5-.1-.6-.3-1.1-1.1-1.1-.4 0-.7.6-.2 1.7-2.3-2.3-.9-6.9 2.3-7.6 3-.7 6.6.8 4.9 3.8-.8 1.5-2.7 2-4.6 2.9-.3 0-.9 1.2-.9 1.8z" fill="#290f01"/><path d="M74.1 30.2c.3-.1.7-.2 1-.3h.2c.2 0 .3-.1.5-.1h.4c.3.1.2.4.1.6v.1c0 .2-.1.5-.2.6-.1.2-.2.4-.4.4-.1.1-.3.1-.4.2-.1 0-.3.1-.4.1-.4.1-.7 0-.9-.2s-.3-.4-.3-.6v-.4c.1-.2.2-.3.4-.4zm1.1-.1c-.3.1-.7.2-.9.3-.1.1-.2.2-.3.2v.3c0 .2.1.3.2.5.1.1.4.2.7.1.1 0 .2 0 .4-.1.1 0 .2-.1.3-.1.1-.1.2-.2.3-.4s.2-.4.2-.6v-.1c0-.2.1-.4 0-.4h-.3c-.1 0-.3.1-.4.1l-.2.2zM72.6 30.6c-.3 0-1.2 0-1.6.1-.1 0-.2.1-.3.1-.1.1 0 .3.1.5s.3.4.3.4c.3.2.5.2.8.2.4 0 .9-.1 1-.4.1-.2.1-.4.1-.6 0-.1-.1-.2-.1-.3h-.3zm0-.3c.2 0 .4.1.5.2.1.1.2.2.2.4s0 .5-.1.7c-.2.4-.8.5-1.2.5s-.7 0-1-.3c-.1-.1-.3-.3-.4-.5-.2-.3-.3-.6-.1-.8.1-.1.2-.1.4-.2.5.1 1.4 0 1.7 0z"/><path d="M73.184 30.74l.595-.077.038.298-.595.076zM70.6 30.9l-.7-.4-.2.3.8.4z"/></g><path d="M64.1 68.8c0 2.2-3.4 3.3-3.7 2.2-3.1-2.6-6.2-5.3-9.3-8l2.2-5.5c4.8 1.9 7.9 7.2 10.8 11.3z" fill="#9dafb0"/><g><path d="M63.1 110.2c.4 1.7 4.3 4.8 5.1 5.6.5.5.2 1.9-.5 2.3-.8.5-2.1.5-3.1.3-1.2-.2-2.6-1.4-4.2-2.4s-3.5-1.7-3.5-2.6c.1-1.2.4-2.2.7-3.9l2.3.6 3.2.1z" fill="#48453e"/><path d="M39 108.2v.2s0 .1.1.1l.1.1h.1l7.8 4.5v1.2l-7.8-4.5-.1-.1-.1-.1v-.1-.1l-.1-1.2z" fill="#1f4351"/><path d="M47.4 113.2s0 .1 0 0c.2 0 .3.1.4.1h.4c.1 0 .2-.1.3-.1l9-5.2c.2-.1.3-.3.3-.4v1.2c0 .1-.1.3-.3.4l-9 5.2s-.1 0-.1.1h-.1-.4H47.6h-.2c-.1 0-.1-.1-.2-.1v-1.2h.2z" fill="#294f5e"/><path d="M39.3 107.8c-.4.2-.4.6 0 .8l7.8 4.5c.4.2 1 .2 1.4 0l9-5.2c.4-.2.4-.6 0-.8l-7.8-4.5c-.4-.2-1-.2-1.4 0l-9 5.2z" fill="#376375"/><path fill="#041d33" d="M48.4 86.9l-.3 6.1.3 16.1 1.6-.9V86z"/><path fill="#08355c" d="M48.4 86.9l-1.6-.9v22.2l1.6.9z"/><g><path fill="#367c83" d="M55 94.2l1.2-.7v-1l-1.2.8z"/><path d="M40.3 82.5V82l1.3-.7v.6c0 .2.1.3.1.5.1.2.1.4.2.6l.3.6c.1.2.2.3.3.5.1.1.2.3.3.4l.1.1.3.3.1.1c.1.1.3.2.4.3l-1.3.7c-.2-.1-.3-.2-.4-.3l-.1-.1-.2-.2-.1-.1-.1-.1-.1-.1c-.1-.1-.1-.2-.2-.2 0 0 0-.1-.1-.1 0 0 0-.1-.1-.1 0-.1-.1-.1-.1-.2s-.1-.1-.1-.2-.1-.1-.1-.2-.1-.1-.1-.2-.1-.1-.1-.2-.1-.1-.1-.2-.1-.1-.1-.2v-.2c0-.1 0-.2-.1-.3v-.2c.1.1.1 0 .1-.1 0 .1 0 .1 0 0z" fill="#041d33"/><path fill="#041d33" d="M40.3 82.1l1.3-.8V68l-1.3.8z"/><path fill="#46aab4" d="M40.3 68.8l1.3-.8-.9-.5-1.2.8zM43.9 85.4l12.3 7.1-1.2.8-12.3-7.1z"/><path d="M39.5 68.3l.9.5v13.3c0 1.5 1.1 3.3 2.4 4.1l12.3 7.1v1l-12.3-7.1c-1.8-1-3.2-3.5-3.2-5.6l-.1-13.3z" fill="#08355c"/></g><g><path d="M35 87.9v.2s0 .1.1.1l.1.1.1.1s.1 0 .1.1l11.9 6.9v1.9l-11.9-6.9s-.1 0-.1-.1l-.1-.1-.1-.1V90v-.2l-.1-1.9z" fill="#1f4351"/><path d="M47.8 95.6c.1.1.1.1 0 0 .2.1.4.1.6.1.2 0 .4 0 .6-.1.2 0 .3-.1.5-.2l13.8-8c.3-.2.4-.4.4-.6v1.9c0 .2-.1.5-.4.6l-13.8 8c-.1 0-.1.1-.2.1s-.1 0-.2.1H49h-.4H47.9h-.2c-.1 0-.2-.1-.3-.1v-1.9c.1 0 .3.1.4.1z" fill="#294f5e"/><path d="M35.5 87.3c-.6.3-.6.9 0 1.2l11.9 6.9c.6.3 1.5.3 2.1 0l13.8-8c.6-.3.6-.9 0-1.2l-11.9-6.9c-.6-.3-1.6-.3-2.1 0l-13.8 8z" fill="#376375"/></g><g><path d="M32.6 71.7V81.6c0 .1 0 .1.1.2 0 0 0 .1.1.1 0 .1.1.1.2.2l-1.7-1c-.1 0-.1-.1-.2-.2v-.1-.1-.1-.1-.1-.1-.1V70.4l1.5 1.3z" fill="#1f4351"/><path d="M33.2 70.2l-.2.2c-.1.1-.1.2-.2.2 0 .1-.1.2-.1.2 0 .1-.1.2-.1.3 0 .1 0 .2-.1.3v.3l-1.7-1v-.1-.1-.1-.1-.1-.1-.1-.1-.1-.1-.1-.1-.1-.1-.1-.1l.1-.1s0-.1.1-.1v-.1-.1l13.8-8h.5l1.7 1s-.1 0-.2-.1h-.4c-.1 0-.1.1-.2.1l-13.8 8c-.1 0-.1.1-.2.1 1.2.3 1.1.4 1 .4z" fill="#376375"/><path d="M33.7 69.9l13.8-8c.6-.3 1.1-.1 1.1.6v9.7c0 .7-.5 1.5-1.1 1.9l-13.8 8c-.6.3-1.1.1-1.1-.6v-9.7c0-.7.5-1.6 1.1-1.9z" fill="#294f5e"/></g><path d="M56.8 89.6l-.9 5.1.4 16.7c.7 2.3 6.3 2.7 7.1-1.5.2-7.5.2-15.2.2-22.1-1.3-2.2-6.5-5.8-7.6-6l.8 7.8z" fill="#021a30"/><g><path d="M50.7 78.1c3.7 1.5 10.2 5.4 12.4 7.6.4.4.4.9.5 1.3.5 3.5-2.8 4.6-4.6 4-5-1.5-8.7-5.1-13.3-8.7l5-4.2z" fill="#021a30"/><path d="M45.2 81.1c3.7 1.5 11.1 6.4 13 9.3.3.4.4.9.5 1.3.5 3.5-2.9 5.1-4.6 4.5-3.6-1.1-8.7-3.7-12.4-6.2-1.5-1.1-6.1-1.8-4.6-10.7l8.1 1.8z" fill="#032747"/></g><path d="M57.7 113.9c.4 1.7 4.3 4.8 5.1 5.6.5.5.2 1.9-.5 2.3-.8.5-2.1.5-3.1.3-1.2-.2-2.6-1.4-4.2-2.4s-3.5-1.7-3.5-2.6c.1-1.2.4-2.2.7-3.9l2.3.6 3.2.1z" fill="#615d54"/><path d="M51.9 93l-.9 5.1.5 15c0 2.2 7 3.8 7 .3.2-7.3.3-14.5.3-21.4-1.3-2.2-6.5-6.6-7.6-6.7l.7 7.7z" fill="#032747"/><path d="M39.8 60.8c2.4-4 9.3-4.9 11.6-4.6 1.5.2 3.5.9 4.2 2.3 2.6 5.1-4.7 13.6-5.5 16.7-.2.7.2 1.3.6 2.1-2.5 7.4-14 5.3-13.7 2.2.1-1.5 1.1-4.6 1.8-7.9 1-4.9-.5-8.3 1-10.8z" fill="#afc6c7"/></g><g><path fill="#828994" d="M93.4 52.2l.1 27.5 3 1.8-.1-29.3z"/><path fill="#98a0ad" d="M96.4 52.2l.1 29.3 2.9-1.7-.1-27.6z"/><g><path fill="#828994" d="M22.4 93.2l.1 27.5 3 1.8-.1-29.3z"/><path fill="#98a0ad" d="M25.4 93.2l.1 29.3 2.9-1.7-.1-27.6z"/></g></g><g><path fill="#828994" d="M122.7 72.4v23.9l3 1.7-.1-25.6z"/><path fill="#98a0ad" d="M125.6 72.4l.1 25.6 2.9-1.7V72.4z"/><g><path fill="#828994" d="M54.6 102l-3-1.8.1 37.1 3 1.7z"/><path fill="#98a0ad" d="M54.6 102l.1 37 2.9-1.7-.1-37z"/></g></g><g><path d="M12.7 93.6v4.9c17.5 10.2 23.1 13.3 40.6 23.5v-4.9c-17.5-10.2-23.1-13.4-40.6-23.5z" fill="#bac2d1"/><path d="M97.5 44.8L12.6 93.6c17.5 10.2 23.1 13.3 40.6 23.5l84.9-48.8C120.6 58.1 115 55 97.5 44.8z" fill="#d4ddec"/><path fill="#c8d1e0" d="M53.3 117.1v4.9l84.9-48.8v-4.9z"/></g><g><path d="M51.3 54.1c-.8 1.9-1.8 2.4-2.7 4.1-.5 1.7 1.9 4.4 3.8 3.6.9-1.1 2.1-2.1 2.9-3l-4-4.7z" fill="#f0c17d"/><path d="M58.5 53c.2 1.8.5 1.2-.1 4.1-.2.9-1.7 3.1-1.9 3.3-.3.3-1.1.5-1.5.5-.8 0-2.9-1.6-3.4-2.1-1.2-1.2-1.7-1.4-1.7-2.9l-.3-1.6-.2-4.7c2.7-1.2 5-2.2 6.4-1.9 1.4.4 2.3 1.9 2.7 5.3z" fill="#ffdba7"/><path d="M49.7 47.8c-3.8 1.6-1.1 7-.1 8.6.2-.2.6-.1.6-.4-.1-.8.2-1.5.7-1.6.5-.2 1 .4 1.2 1.8.4-.6.9-1.4 1.3-2.6.1 0 5.7 0 6.3-3.3-.9-.4-2.4-3.6-4.3-4-2.2-.4-4.7.3-5.7 1.5z" fill="#632404"/></g><g><path fill="#636262" d="M60.3 83.9l-9.2-3.1v.6l8.9 5.2z"/><path d="M51.1 80.8l9 3.3c6.2-3.6 12.4-7.2 18.7-10.8l-9-3.3-18.7 10.8z" fill="#787878"/><path d="M78.7 75.8v-2.5c-6.2 3.6-12.4 7.2-18.7 10.8v2.5c6.2-3.6 12.5-7.2 18.7-10.8z" fill="#484d4b"/></g><g><path d="M48.5 78.6c.4.1.7.1 1.6-.1.8-.2 1.9-.7 2.2-.6l2.9.3c.9.2 1.2.6 1 .8-.2.3-1 .3-1.8.3 1.6 1 2 1.3 3 2.5.8.9-1.1 1.7-1.5 1.7-1.8 0-3-1.4-4.8-1.4-2-.1-2.6-.5-4.4-1.3l1.8-2.2z" fill="#ffdba7"/><path d="M44.7 63.6c-.7 4.5-5 11.3-7 14.9l-3.5-.5c.1-.2-.4-.9-.4-1.1 1.4-4.6 3.2-11.5 5.4-15.3.9-1.6 2.5-2.5 3.7-2 1.8.7 2.1 2.4 1.8 4z" fill="#c1d8d9"/><path d="M37.1 74.4c4 .7 8.8 2.7 12.8 3.8.4.7-.6 3.4-1.2 3.9-4-.8-8.3-1.4-12.3-2.4-2.2-.5-2.7-1.5-2.7-2.6.2-1.3 1.3-3.1 3.4-2.7z" fill="#c1d8d9"/></g><g><path d="M79.6 57.6c.7 1.8 1.4 1.8 2.1 2.8.3.4 1 2.1 1.1 2.8s0 1.6-.7 1.7c-.6-.5-1.2-1.3-1.5-1.9-.6-.5-1.1-1-1.9-1.5 0 .5.3 1.6.2 2s-.9.4-1-.1c-.1-.3 0-.7-.1-1.3 0-.1-.3-1.1-.3-1.1-.3-.7-.4-.9-.1-1.4l.3-1.4 1.9-.6z" fill="#f0c17d"/><path d="M76.7 48.7c1.2 2.4 2.5 7.5 3.1 9.3 0 .9-2.2.9-2.4.4-.8-1.4-3.1-6-4-8.6.9-.8 2.3-1.4 3.3-1.1z" fill="#cbbecc"/></g><g><path d="M81 53.9c3.5 2 1.5.2 5.2 1.2 1 .3 1.5 2.1 2.9 3.8.4.5.5 1 .2 1.3-.6.7-1.7-.3-2.6-.9-1.2-.8-2.2-.7-3.3-1-.7-.2-1-.5-1.7-1L79.8 56c.3-.9.7-1.3 1.2-2.1z" fill="#ffdba7"/><path d="M83.2 54.8c.4.8-.8 2.3-1.7 2.4l-10.5-6c-.4-.3-.7-.3-1-.8-.4-.8 1.1-4.6 3.9-2 2.4 1.9 6.7 4.6 9.3 6.4z" fill="#f5ebf5"/><path d="M65 37c1.5.7 3 3.6 3.7 4.6 1.1 1.5 3 4.6 4.2 5.9.2 1.1-.9 3.4-2.7 3.2-.9-1.1-3.1-3.1-4.3-4.6-1.8-2.4-2.8-3.7-3.3-4.8-.8-2 .6-5.2 2.4-4.3z" fill="#f5ebf5"/></g><path d="M108.5 28.9c-.7 2.7-.7 8.6-.3 12.2.3 2.4 3.4 3.8 3.8 1.6.7-3.7 1.8-10.2.8-13.2-1-2.5-3.8-2.5-4.3-.6z" fill="#10d5e3"/><g><path d="M108.4 52.9l-.8 2.5c-1.3 1.8-2.5 1.3-4 2.1-.5.2-1.5 1.3-1.9 1.6-.4.2-.9.3-1.7-.2.1-.9 1-3.2 3.5-5.1 2-.2 2.1.2 2.9-.9h2z" fill="#f0c17d"/><path d="M105.2 53.4c.7-3 1.7-7.2 2.3-10 .3-1.3.4-1.6.8-2.9 2.8.1 3.9.9 3.5 2.8-.5 2.6-2.7 8.9-3.8 11.3-.4.4-3-.1-2.8-1.2z" fill="#10d5e3"/></g><path d="M91.7 52.9c-.4.5-.4 1.1-1 2.3-.6.8-.6 1.4-.4 1.7.2.2.4.4.9-.2l.9-1.8-.1 1.2-.1.8c.1 1.1-.1 2.6.4 3 .3.3.9.4 1.9.3.7-.2.6-1.7 1.5-3.4.3-1.2.5-1.1.3-3.1V51l-2.4-.1c-.2.3-.6 1-.9 1.3-.6.6-.5.1-1 .7z" fill="#f0c17d"/><g><path d="M98.5 83.5c.1 0 .1 0 0 0l-7.2-4.2-7.7 4.4 7.3 4.2 7.7-4.4h-.1z" fill="#787878"/><path d="M90.4 88.5v-.2c0-.1 0-.1.1-.2l.1-.1.1-.1-7.3-4.2s-.1 0-.1.1v.4c0 .1 0 .2.1.2l7.3 4.2c-.1 0-.1-.1-.1-.2l-.2.1z" fill="#636262"/><path d="M98.7 83.7c0-.2-.1-.3-.3-.2l-7.7 4.4c-.2.1-.3.3-.3.5v.3c0 .2.1.3.3.2l7.7-4.4c.2-.1.3-.3.3-.5v-.3z" fill="#484d4b"/><path fill="#a1a3a2" d="M87 80.7l-.4 4.2 1.5.9.3-4.3z"/><path fill="#8a8c8b" d="M94.5 78l-1.6-.7-4.5 4.2-.3 4.3 6.8-3.9zM78 84.2l.2-17.1-1.7-.9V85.2c0 .2 0 .3.1.5.1.1.1.2.2.3l1.5.9c-.2-.1-.3-.4-.3-.7v-2z"/><path d="M103.9 50.9H104.5L103 50h-.1-.2-.2-.1c-.1 0-.1 0-.2.1L77.6 64.3c-.6.4-1.1 1.2-1.1 1.9l1.5.8c0-.7.7-1.5 1.3-1.8l24.4-14.3h.2z" fill="#8a8c8b"/><path d="M104.8 51.6c0-.4-.2-.7-.4-.8s-.5-.1-.7.1L79.1 65.1c-.6.4-1.1 1.2-1.1 2V86.1c0 .7.5 1 1.1.7l24.6-14.2c.6-.4 1.1-1.2 1.1-2v-19z" fill="#a1a3a2"/></g><path d="M93.2 51.4c1-3 2-7.6 2.9-10.5.4-1.2.9-1.6 1.5-2.9 2.7.3 3.5 1.5 3 3.4-.7 2.6-3.1 8.3-4.4 10.5-.8.6-2.4.3-3-.5z" fill="#079da8"/><g><path d="M64.5 70.4c-.3 3.3-3.1 3.2-4 2l-4.6-5.1 4-4.4c1.7 2.1 3.2 5.5 4.6 7.5z" fill="#9dafb0"/><path d="M69.1 56c.5-.4 1.1-.4 2.3-1 .9-.6 1.4-.6 1.7-.4.2.2.4.4-.3.9l-1.5 1.1 1.4.2.8-.1 2.1-1.3c.7-.5.8 0 1.2.8.6 1-.8 1.9-2.2 3-1.3.9-1.2 1.1-2.7.9l-2.4-.3-1.2 1.1-2-2.3c.3-.2 1-.6 1.3-.9.9-.5.9-1.2 1.5-1.7z" fill="#ffdba7"/><path d="M67.2 57.9c1.2-.1 2.7 1.5 3.2 2.1l-5.1 9.2c-.9 1.5-1.7 3.9-3.9 3.5-1.4-.3-2.2-1.9-1.9-3 .8-3.9 4.7-7.7 7.7-11.8z" fill="#9dafb0"/></g></svg>