<svg viewBox="0 0 1200 900" xmlns="http://www.w3.org/2000/svg"><g fill="none" fill-rule="evenodd"><path d="M596.87 23.327a58.347 58.347 0 0 0-22.3 5.67L270.265 175.106c-15.955 7.656-27.543 22.137-31.485 39.342l-75.073 328.196a57.834 57.834 0 0 0 7.9 44.466 57.999 57.999 0 0 0 3.309 4.615l210.626 263.16c11.045 13.793 27.79 21.821 45.496 21.821l337.773-.078c17.7.013 34.444-8.004 45.496-21.783l210.549-263.198a57.848 57.848 0 0 0 11.247-49.08l-75.19-328.197c-3.942-17.206-15.53-31.686-31.485-39.343L625.085 28.997a58.357 58.357 0 0 0-28.215-5.67z" fill="#326CE5" fill-rule="nonzero" opacity=".1" stroke="#FFF" stroke-width=".5"></path><g transform="translate(371.000000, 552.000000)"><path fill="#53777A" d="M0 0h220v228H0z"></path><path d="M34.529 97.507H30.81q-.159-.915-.586-1.626-.428-.71-1.064-1.208-.637-.497-1.447-.75-.81-.254-1.745-.254-1.66 0-2.943.83-1.283.83-2.009 2.426t-.726 3.893q0 2.337.731 3.933.73 1.596 2.009 2.406 1.277.81 2.928.81.915 0 1.715-.243.8-.244 1.442-.721.641-.477 1.084-1.173.442-.696.611-1.591l3.719.02q-.209 1.451-.9 2.724-.691 1.273-1.805 2.242-1.113.97-2.605 1.512-1.491.541-3.31.541-2.685 0-4.793-1.242-2.108-1.243-3.321-3.59-1.214-2.347-1.214-5.628 0-3.291 1.223-5.633 1.224-2.341 3.331-3.584 2.108-1.243 4.773-1.243 1.7 0 3.162.477 1.462.478 2.605 1.397 1.144.92 1.884 2.247.741 1.328.97 3.028zm21.587 3.311q0 3.291-1.228 5.633t-3.341 3.585q-2.113 1.242-4.788 1.242-2.675 0-4.788-1.247-2.113-1.248-3.34-3.59-1.228-2.342-1.228-5.623 0-3.291 1.227-5.633 1.228-2.341 3.341-3.584 2.113-1.243 4.788-1.243 2.675 0 4.788 1.243 2.113 1.243 3.34 3.584 1.229 2.342 1.229 5.633zm-3.71 0q0-2.317-.72-3.912-.721-1.596-1.994-2.417-1.272-.82-2.933-.82-1.66 0-2.933.82t-1.994 2.417q-.72 1.595-.72 3.912t.72 3.913q.721 1.596 1.994 2.416 1.273.82 2.933.82t2.933-.82q1.273-.82 1.994-2.416.72-1.596.72-3.913zm20.275-10.182h3.669V111h-3.281l-9.595-13.87h-.17V111h-3.688V90.636h3.3l9.586 13.881h.179v-13.88zm13.075 3.093h-6.294v-3.093H95.71v3.093h-6.294V111h-3.659V93.729zM102.52 111h-3.689V90.636h7.637q2.346 0 3.942.816 1.596.815 2.417 2.282.82 1.466.82 3.415 0 1.959-.83 3.396-.83 1.437-2.441 2.217-1.611.78-3.958.78h-5.439v-3.062h4.942q1.372 0 2.247-.383.875-.383 1.298-1.123.422-.741.422-1.825t-.427-1.854q-.428-.77-1.303-1.174-.875-.402-2.257-.402h-3.38V111zm2.804-9.227h4.027l5.042 9.227h-4.117l-4.952-9.227zm29.92-.955q0 3.291-1.229 5.633-1.228 2.342-3.34 3.585-2.113 1.242-4.788 1.242-2.675 0-4.788-1.247-2.113-1.248-3.34-3.59-1.229-2.342-1.229-5.623 0-3.291 1.228-5.633 1.228-2.341 3.341-3.584 2.113-1.243 4.788-1.243 2.675 0 4.788 1.243 2.112 1.243 3.34 3.584 1.228 2.342 1.228 5.633zm-3.71 0q0-2.317-.72-3.912-.721-1.596-1.994-2.417-1.273-.82-2.933-.82t-2.933.82q-1.273.82-1.994 2.417-.72 1.595-.72 3.912t.72 3.913q.72 1.596 1.994 2.416 1.272.82 2.933.82 1.66 0 2.933-.82t1.994-2.416q.72-1.596.72-3.913zM151.402 111h-12.658V90.636h3.69v17.272h8.968V111zm15.85 0h-12.658V90.636h3.689v17.272h8.969V111zm16.515 0h-13.324V90.636h13.245v3.093h-9.556v5.528h8.87v3.092h-8.87v5.559h9.635V111zm7.378 0h-3.689V90.636h7.636q2.347 0 3.943.816 1.596.815 2.416 2.282.82 1.466.82 3.415 0 1.959-.83 3.396-.83 1.437-2.44 2.217-1.612.78-3.958.78h-5.44v-3.062h4.943q1.372 0 2.247-.383.875-.383 1.297-1.123.423-.741.423-1.825t-.428-1.854q-.427-.77-1.302-1.174-.875-.402-2.257-.402h-3.381V111zm2.804-9.227h4.027l5.041 9.227H198.9l-4.952-9.227zM39.563 145v-20.364h4.514l6.045 14.756h.239l6.045-14.756h4.514V145h-3.54v-13.99h-.188l-5.628 13.93h-2.645l-5.628-13.96h-.189V145h-3.54zm33.419-16.188L67.552 145h-3.937l7.17-20.364h4.553L82.518 145H78.58l-5.44-16.188h-.158zm-5.3 11.167v-2.963H78.42v2.963H67.682zm30.585-15.343h3.67V145h-3.282l-9.595-13.87h-.17V145h-3.688v-20.364h3.3l9.586 13.881h.18v-13.88zm15.72 4.177L108.558 145h-3.937l7.169-20.364h4.554L123.523 145h-3.938l-5.439-16.188h-.159zm-5.3 11.166v-2.963h10.74v2.963h-10.74zm33.966-8.84h-3.758q-.249-.805-.681-1.447-.433-.64-1.034-1.098-.602-.458-1.377-.691-.776-.234-1.69-.234-1.641 0-2.924.825-1.283.826-2.014 2.421-.73 1.596-.73 3.883 0 2.307.725 3.908.726 1.6 2.019 2.431 1.293.83 3.003.83 1.55 0 2.69-.596 1.138-.597 1.754-1.696.617-1.098.617-2.58l.835.13h-5.528v-2.884h8.262v2.446q0 2.615-1.113 4.524-1.114 1.91-3.063 2.938-1.949 1.03-4.474 1.03-2.814 0-4.937-1.268t-3.311-3.61q-1.188-2.341-1.188-5.563 0-2.466.7-4.405.702-1.939 1.965-3.296 1.262-1.357 2.963-2.068 1.7-.711 3.699-.711 1.69 0 3.152.492 1.461.492 2.6 1.397 1.138.905 1.874 2.148.736 1.243.964 2.744zM159.716 145h-13.324v-20.364h13.244v3.093h-9.555v5.528h8.87v3.092h-8.87v5.559h9.635V145zm7.378 0h-3.69v-20.364h7.637q2.347 0 3.943.816 1.596.815 2.416 2.282.82 1.466.82 3.415 0 1.959-.83 3.396-.83 1.437-2.441 2.217-1.61.78-3.958.78h-5.438v-3.062h4.941q1.373 0 2.248-.383.875-.383 1.297-1.123.423-.741.423-1.825t-.428-1.854q-.427-.77-1.302-1.174-.875-.402-2.258-.402h-3.38V145zm2.804-9.227h4.027l5.04 9.227h-4.116l-4.951-9.227z" fill="#FFF" fill-rule="nonzero"></path></g><g transform="translate(614.000000, 552.000000)"><path fill="#53777A" d="M0 0h220v228H0z"></path><path d="M41.806 95.234h-3.55q-.139-1.302-1.168-2.028-1.03-.726-2.67-.726-1.153 0-1.978.348-.826.348-1.263.945-.438.596-.448 1.362 0 .636.294 1.104.293.467.8.79.507.323 1.124.542.616.219 1.243.368l1.909.477q1.153.269 2.222.726 1.069.457 1.919 1.153.85.696 1.347 1.68.497.985.497 2.308 0 1.79-.914 3.147-.915 1.357-2.64 2.118-1.725.76-4.171.76-2.377 0-4.122-.736-1.745-.735-2.724-2.147-.98-1.412-1.06-3.44h3.63q.08 1.063.656 1.77.577.705 1.507 1.053.93.348 2.083.348 1.203 0 2.113-.363.91-.363 1.426-1.014.518-.651.527-1.526-.01-.796-.467-1.318t-1.278-.875q-.82-.353-1.914-.631l-2.316-.597q-2.516-.646-3.973-1.963-1.456-1.318-1.456-3.505 0-1.8.98-3.152.978-1.353 2.669-2.103 1.69-.751 3.828-.751 2.168 0 3.803.75 1.636.751 2.57 2.079.935 1.327.965 3.047zm20.99 1.273h-3.719q-.159-.915-.586-1.626-.428-.71-1.064-1.208-.637-.497-1.447-.75-.81-.254-1.745-.254-1.66 0-2.943.83-1.283.83-2.009 2.426t-.726 3.893q0 2.337.731 3.933.731 1.596 2.009 2.406 1.277.81 2.928.81.915 0 1.715-.243.8-.244 1.442-.721.641-.477 1.084-1.173.442-.696.611-1.591l3.72.02q-.21 1.451-.9 2.724-.692 1.273-1.805 2.242-1.114.97-2.606 1.512-1.491.541-3.31.541-2.685 0-4.793-1.242-2.108-1.243-3.321-3.59-1.213-2.347-1.213-5.628 0-3.291 1.223-5.633 1.223-2.341 3.33-3.584 2.109-1.243 4.773-1.243 1.7 0 3.162.477 1.462.478 2.605 1.397 1.144.92 1.885 2.247.74 1.328.97 3.028zM69.876 110h-3.69V89.636h3.69v8.621h9.436v-8.62h3.699V110h-3.7v-8.65h-9.435V110zm30.466 0H87.018V89.636h13.244v3.093h-9.555v5.528h8.869v3.092h-8.87v5.559h9.636V110zm10.589 0h-6.9V89.636h7.04q3.032 0 5.214 1.218 2.183 1.218 3.356 3.495 1.174 2.277 1.174 5.45 0 3.181-1.179 5.468-1.178 2.287-3.39 3.51Q114.033 110 110.93 110zm-3.212-17.172v13.98h3.033q2.128 0 3.55-.78 1.422-.78 2.138-2.337.715-1.556.715-3.893 0-2.336-.715-3.883-.716-1.546-2.113-2.316-1.397-.77-3.466-.77h-3.142zm29.432 9.804V89.636h3.69v13.304q0 2.188-1.03 3.848-1.03 1.66-2.889 2.59-1.859.93-4.345.93-2.495 0-4.355-.93-1.86-.93-2.883-2.59-1.024-1.66-1.024-3.848V89.636h3.688v12.996q0 1.273.562 2.267t1.586 1.556q1.024.562 2.426.562 1.402 0 2.431-.562 1.03-.562 1.586-1.556.557-.994.557-2.267zM157.515 110h-12.658V89.636h3.69v17.272h8.968V110zm16.515 0h-13.323V89.636h13.244v3.093h-9.556v5.528h8.87v3.092h-8.87v5.559h9.635V110zm7.378 0h-3.689V89.636h7.637q2.346 0 3.942.816 1.596.815 2.416 2.282.82 1.466.82 3.415 0 1.959-.83 3.396-.83 1.437-2.44 2.217-1.611.78-3.958.78h-5.439V99.48h4.942q1.372 0 2.247-.383.875-.383 1.298-1.123.422-.741.422-1.825t-.427-1.854q-.428-.77-1.303-1.174-.875-.402-2.257-.402h-3.38V110zm2.804-9.227h4.027L193.28 110h-4.116l-4.952-9.227z" fill="#FFF" fill-rule="nonzero"></path></g><g transform="translate(0.000000, 314.000000)" fill="#B8E986"><path d="M327 36l-65 36V0z"></path><path d="M0 45V25h308v20z"></path></g><g transform="translate(334.000000, 236.000000)"><path fill="#53777A" d="M0 0h220v228H0z"></path><path d="M38.185 76.813L32.755 93h-3.937l7.17-20.364h4.553L47.721 93h-3.938l-5.44-16.188h-.158zm-5.3 11.166v-2.963h10.738v2.963H32.885zM54.094 93h-3.69V72.636h7.637q2.347 0 3.943.875 1.595.875 2.416 2.402.82 1.526.82 3.465 0 1.959-.825 3.48t-2.436 2.391q-1.611.87-3.968.87h-5.06v-3.032h4.563q1.372 0 2.247-.478.875-.477 1.298-1.312.423-.835.423-1.92 0-1.083-.423-1.908-.423-.826-1.303-1.288-.88-.462-2.262-.462h-3.38V93zm14.328-20.364h3.689V93h-3.69V72.636zm29.263 5.598h-3.55q-.14-1.302-1.168-2.028-1.03-.726-2.67-.726-1.154 0-1.979.348-.825.348-1.263.945-.437.596-.447 1.362 0 .636.293 1.104.294.467.8.79.508.323 1.124.542.617.219 1.243.368l1.91.477q1.153.269 2.221.726 1.07.457 1.92 1.153.85.696 1.347 1.68.497.985.497 2.308 0 1.79-.915 3.147-.915 1.357-2.64 2.118-1.725.76-4.17.76-2.377 0-4.122-.736-1.745-.735-2.725-2.147t-1.059-3.44h3.63q.08 1.063.656 1.77.577.705 1.506 1.053.93.348 2.083.348 1.203 0 2.113-.363.91-.363 1.427-1.014t.527-1.526q-.01-.796-.467-1.318-.458-.522-1.278-.875-.82-.353-1.914-.631l-2.317-.597q-2.515-.646-3.972-1.963-1.457-1.318-1.457-3.505 0-1.8.98-3.152.979-1.353 2.67-2.103 1.69-.751 3.827-.751 2.168 0 3.804.75 1.635.751 2.57 2.079.935 1.327.965 3.047zM114.568 93h-13.324V72.636h13.245v3.093h-9.556v5.528h8.87v3.092h-8.87v5.559h9.635V93zm7.378 0h-3.689V72.636h7.636q2.347 0 3.943.816 1.596.815 2.416 2.282.82 1.466.82 3.415 0 1.959-.83 3.396-.83 1.437-2.441 2.217-1.61.78-3.957.78h-5.44V82.48h4.942q1.373 0 2.248-.383.875-.383 1.297-1.123.423-.741.423-1.825t-.428-1.854q-.427-.77-1.302-1.174-.875-.402-2.257-.402h-3.381V93zm2.804-9.227h4.027L133.818 93h-4.116l-4.952-9.227zm9.864-11.137h4.046l5.3 16.029h.209l5.29-16.029h4.057L146.336 93h-4.553l-7.17-20.364zM169.524 93H156.2V72.636h13.245v3.093h-9.556v5.528h8.87v3.092h-8.87v5.559h9.635V93zm7.378 0h-3.689V72.636h7.636q2.347 0 3.943.816 1.596.815 2.416 2.282.82 1.466.82 3.415 0 1.959-.83 3.396-.83 1.437-2.441 2.217-1.61.78-3.957.78h-5.44V82.48h4.942q1.373 0 2.248-.383.875-.383 1.297-1.123.423-.741.423-1.825t-.428-1.854q-.427-.77-1.302-1.174-.875-.402-2.257-.402h-3.381V93zm2.804-9.227h4.027L188.774 93h-4.116l-4.952-9.227z" fill="#FFF" fill-rule="nonzero"></path></g><g transform="translate(661.000000, 230.000000)"><path fill="#53777A" d="M101 0h421v234H101z"></path><g transform="translate(218.000000, 10.000000)"><path fill="#F1D4AF" d="M0 0h295v46H0z"></path><path d="M17.104 32h-3.952V10.182h8.182q2.514 0 4.224.937 1.71.938 2.589 2.573t.879 3.713q0 2.099-.885 3.729-.884 1.63-2.61 2.562-1.726.932-4.25.932h-5.423v-3.25h4.89q1.47 0 2.408-.51.937-.512 1.39-1.407.453-.895.453-2.056t-.453-2.046q-.453-.884-1.396-1.38-.943-.495-2.423-.495h-3.623V32zm22.085.32q-2.397 0-4.155-1.055-1.758-1.055-2.722-2.951-.964-1.896-.964-4.432 0-2.535.964-4.442t2.722-2.962q1.758-1.055 4.155-1.055 2.397 0 4.155 1.055 1.758 1.055 2.722 2.962.964 1.907.964 4.442 0 2.536-.964 4.432-.964 1.896-2.722 2.95-1.758 1.056-4.155 1.056zm.021-3.09q1.3 0 2.174-.719.873-.72 1.305-1.934.431-1.214.431-2.706 0-1.502-.431-2.721-.432-1.22-1.305-1.945-.874-.724-2.174-.724-1.331 0-2.21.724-.88.725-1.31 1.945-.432 1.22-.432 2.721 0 1.492.431 2.706.432 1.215 1.31 1.934.88.72 2.211.72zm17.152 3.058q-1.928 0-3.451-.991-1.524-.99-2.408-2.877-.884-1.885-.884-4.58 0-2.728.9-4.608.9-1.88 2.434-2.845 1.534-.964 3.42-.964 1.438 0 2.365.485.927.485 1.47 1.161.543.677.842 1.273h.16v-8.16h3.867V32h-3.793v-2.578h-.234q-.299.596-.863 1.262-.565.666-1.492 1.135t-2.333.469zm1.076-3.164q1.225 0 2.088-.666t1.31-1.86q.448-1.192.448-2.78 0-1.587-.442-2.76-.442-1.17-1.3-1.82-.857-.65-2.104-.65-1.289 0-2.152.67-.863.672-1.3 1.854-.436 1.183-.436 2.706 0 1.534.442 2.733.442 1.198 1.31 1.885.868.688 2.136.688zM87.854 32H84.87l3.58-21.818h2.982L87.853 32zm3.973-5.625h-16.79l.501-2.983h16.79l-.5 2.983zM80.183 32H77.2l3.58-21.818h2.983L80.183 32zm12.912-13.21h-16.79l.49-2.983h16.79l-.49 2.983zm7.916-8.608h3.76V32h-3.952V14.028h-.128l-5.103 3.26v-3.623l5.423-3.483z" fill="#4A4A4A" fill-rule="nonzero"></path><path d="M207.689 30h-2.372V16.91h4.91q1.508 0 2.534.562 1.026.562 1.553 1.543.527.981.527 2.228 0 1.26-.53 2.237-.53.978-1.566 1.537-1.036.56-2.55.56h-3.254v-1.95h2.934q.882 0 1.444-.307.563-.307.834-.843.272-.537.272-1.234t-.272-1.227q-.271-.53-.837-.828-.566-.297-1.454-.297h-2.173V30zm17.776 0H216.9V16.91h8.514v1.987h-6.143v3.554h5.702v1.988h-5.702v3.573h6.194V30zm10.77-13.09h2.36V30h-2.11l-6.169-8.917h-.108V30h-2.372V16.91h2.123l6.161 8.922h.116V16.91zM245.607 30h-4.436V16.91h4.526q1.95 0 3.352.782 1.403.783 2.158 2.247.754 1.464.754 3.503 0 2.045-.758 3.515-.757 1.47-2.18 2.257-1.421.786-3.416.786zm-2.064-11.04v8.988h1.95q1.367 0 2.281-.502.914-.501 1.374-1.502.46-1 .46-2.502 0-1.502-.46-2.496t-1.358-1.49q-.898-.495-2.227-.495h-2.02zm10.668-2.05h2.371V30h-2.371V16.91zm13.347 0h2.358V30h-2.11l-6.167-8.917h-.11V30h-2.37V16.91h2.122l6.161 8.922h.116V16.91zm16.12 4.18h-2.416q-.16-.518-.438-.93-.278-.413-.665-.707-.386-.294-.885-.444-.498-.15-1.086-.15-1.055 0-1.88.53-.824.53-1.294 1.557-.47 1.026-.47 2.496 0 1.483.467 2.512.466 1.029 1.297 1.563.831.533 1.93.533.998 0 1.73-.383.732-.384 1.128-1.09.396-.706.396-1.659l.537.083h-3.554v-1.853h5.312v1.572q0 1.681-.716 2.909-.716 1.227-1.969 1.888-1.253.662-2.876.662-1.81 0-3.174-.815-1.364-.815-2.128-2.32-.764-1.506-.764-3.577 0-1.585.45-2.831.451-1.247 1.263-2.12.812-.872 1.905-1.329 1.093-.457 2.378-.457 1.086 0 2.026.317.94.316 1.671.898.732.581 1.205 1.38.473.8.62 1.764z" fill="#BF6908" fill-rule="nonzero"></path></g><g transform="translate(0.000000, 10.000000)"><ellipse stroke="#53777A" stroke-width="21" fill="#FFF" cx="102.5" cy="106.5" rx="102.5" ry="106.5"></ellipse><g transform="translate(28.435484, 32.293548)" fill="#419EDA" fill-rule="nonzero"><path d="M67.556 65.67c0 5.54-4.32 10.021-9.645 10.021-5.328 0-9.637-4.48-9.637-10.021 0-5.517 4.31-10.015 9.637-10.015 5.325 0 9.645 4.498 9.645 10.015zm12.46.002c0 5.54 4.321 10.021 9.646 10.021 5.323 0 9.64-4.48 9.64-10.021 0-5.519-4.317-10.017-9.64-10.017-5.325 0-9.646 4.498-9.646 10.017z"></path><path d="M145.766 76.85c-.694.06-1.392.088-2.133.088-4.3 0-8.473-1.047-12.237-2.967a122.139 122.139 0 0 0 1.647-22.492 115.84 115.84 0 0 0-14.01-17.25c2.285-4.45 5.661-8.279 9.876-10.993l1.81-1.163-1.41-1.652c-7.267-8.502-15.939-15.075-25.77-19.535L101.576 0l-.497 2.153a29.169 29.169 0 0 1-6.988 13.18 109.635 109.635 0 0 0-20.19-8.645 109.729 109.729 0 0 0-20.158 8.626A29.162 29.162 0 0 1 46.78 2.165l-.5-2.153-1.954.883C34.618 5.29 25.707 12.04 18.56 20.415l-1.415 1.657 1.808 1.162c4.202 2.705 7.57 6.51 9.85 10.936a116.328 116.328 0 0 0-13.985 17.184A122.228 122.228 0 0 0 16.424 74c-3.746 1.902-7.895 2.938-12.167 2.938-.75 0-1.451-.029-2.133-.088L0 76.682l.199 2.204c1.04 11.148 4.372 21.751 9.908 31.518l1.08 1.906 1.622-1.43a27.301 27.301 0 0 1 13.132-6.392 117.827 117.827 0 0 0 11.24 19.021c6.83 2.483 13.948 4.336 21.298 5.438.705 5.051.144 10.275-1.774 15.106l-.809 2.046 2.08.476c5.325 1.217 10.698 1.837 15.958 1.837l15.954-1.837 2.082-.476-.811-2.05c-1.913-4.83-2.474-10.061-1.77-15.113 7.322-1.103 14.413-2.952 21.22-5.427a117.976 117.976 0 0 0 11.25-19.039 27.42 27.42 0 0 1 13.197 6.397l1.622 1.429 1.075-1.902c5.545-9.779 8.876-20.382 9.901-31.512l.2-2.2-2.088.168zm-49.032 26.94c-7.547 2.133-15.212 3.21-22.831 3.21-7.64 0-15.296-1.076-22.85-3.21a93.6 93.6 0 0 1-9.78-21.405c-2.347-7.511-3.722-15.38-4.12-23.483 4.878-6.267 10.426-11.757 16.555-16.379a87.172 87.172 0 0 1 20.195-11.408A87.526 87.526 0 0 1 94.058 42.5c6.153 4.646 11.725 10.178 16.627 16.485-.417 8.056-1.808 15.88-4.16 23.38a93.302 93.302 0 0 1-9.79 21.426z"></path></g></g></g><g transform="translate(554.000000, 343.000000)" fill-rule="nonzero"><path fill="#9EEBCF" d="M0 6h96v3H0z"></path><circle stroke="#9EEBCF" stroke-width="3" fill="#FFF" cx=".5" cy="7.5" r="6.5"></circle><path fill="#9EEBCF" d="M98 7.5L90 13V2z"></path></g><g transform="translate(554.000000, 415.000000)"><path d="M.011 1.045h84.55c5.522 0 10 4.477 10 10v125.97h0" stroke="#9EEBCF" stroke-width="3"></path><circle stroke="#9EEBCF" stroke-width="3" fill="#FFF" cx=".5" cy=".5" r="6"></circle><path fill="#9EEBCF" d="M94.5 140l-5.5-8h11z"></path></g><g transform="translate(493.000000, 464.000000)" fill-rule="nonzero"><path fill="#9EEBCF" d="M7-1v89H4V-1z"></path><circle stroke="#9EEBCF" stroke-width="3" fill="#FFF" cx="5.5" cy="-1.5" r="6.5"></circle><path fill="#9EEBCF" d="M5.5 92L0 84h11z"></path></g></g></svg>