<svg viewBox="0 0 1200 900" xmlns="http://www.w3.org/2000/svg"><g fill="none" fill-rule="evenodd"><g transform="translate(819.000000, 583.000000)"><path d="M51 299L2.215 256.495a5 5 0 0 1-1.715-3.77v-26.16a5 5 0 0 1 .126-1.116L51 5.625V5a5 5 0 0 1 5-5h217a5 5 0 0 1 5 5v289a5 5 0 0 1-5 5H51z" fill="#EFEFEF"></path><path d="M51 299L2.215 256.495a5 5 0 0 1-1.715-3.77v-26.16a5 5 0 0 1 .126-1.116L51 5.625V5a5 5 0 0 1 5-5l-5 299z" fill="#D9D9D9"></path><g transform="translate(64.000000, 13.000000)"><rect fill="#F2CA87" fill-rule="nonzero" width="202.54" height="85.69" rx="8.2"></rect><path d="M95.115 38.174h-5.313q-.227-1.306-.838-2.322-.61-1.016-1.52-1.726-.909-.71-2.066-1.072-1.158-.363-2.493-.363-2.372 0-4.205 1.187-1.832 1.186-2.87 3.465-1.036 2.28-1.036 5.562 0 3.338 1.044 5.617 1.044 2.28 2.87 3.438 1.825 1.158 4.183 1.158 1.306 0 2.45-.348 1.143-.348 2.06-1.03.916-.682 1.548-1.676.632-.995.873-2.273l5.313.028q-.298 2.074-1.286 3.892-.987 1.819-2.578 3.203-1.59 1.385-3.721 2.16-2.131.774-4.73.774-3.836 0-6.847-1.776-3.011-1.775-4.744-5.128-1.733-3.352-1.733-8.04 0-4.701 1.747-8.046 1.747-3.345 4.758-5.121 3.012-1.776 6.819-1.776 2.429 0 4.517.682 2.088.682 3.721 1.996 1.634 1.314 2.692 3.21 1.058 1.896 1.385 4.325zm10.114 19.276h-5.27V28.36h10.909q3.352 0 5.632 1.164 2.28 1.165 3.452 3.26 1.171 2.095 1.171 4.88 0 2.797-1.186 4.85-1.186 2.052-3.487 3.168-2.301 1.115-5.653 1.115h-7.77v-4.375h7.06q1.96 0 3.21-.547t1.853-1.605q.604-1.059.604-2.607 0-1.548-.61-2.65-.612-1.1-1.862-1.675t-3.224-.575h-4.83V57.45zm4.005-13.182h5.753l7.202 13.182h-5.88l-7.075-13.182zm16.747-15.909h5.27V57.45h-5.27V28.36z" fill="#000" fill-rule="nonzero"></path></g><g transform="translate(64.000000, 200.000000)"><rect fill="#F2CA87" fill-rule="nonzero" y=".89" width="202.54" height="85.69" rx="8.2"></rect><path d="M95.144 39.064H89.83q-.227-1.306-.838-2.322-.61-1.016-1.52-1.726-.909-.71-2.066-1.072-1.158-.363-2.493-.363-2.372 0-4.205 1.187-1.832 1.186-2.87 3.465-1.036 2.28-1.036 5.562 0 3.338 1.044 5.617 1.044 2.28 2.87 3.438 1.825 1.158 4.183 1.158 1.306 0 2.45-.348 1.143-.348 2.06-1.03.916-.682 1.548-1.676.632-.995.873-2.273l5.313.028q-.298 2.074-1.286 3.892-.987 1.819-2.578 3.203-1.59 1.385-3.721 2.16-2.131.774-4.73.774-3.836 0-6.847-1.776-3.011-1.775-4.744-5.128-1.733-3.352-1.733-8.04 0-4.701 1.747-8.046 1.747-3.345 4.758-5.121 3.012-1.776 6.819-1.776 2.429 0 4.517.682 2.088.682 3.721 1.996 1.634 1.314 2.692 3.21 1.058 1.896 1.385 4.325zm25.724-1.818h-5.07q-.2-1.86-1.67-2.897-1.47-1.037-3.814-1.037-1.647 0-2.826.497-1.18.497-1.804 1.35-.625.851-.64 1.945 0 .91.42 1.577.419.668 1.143 1.13.724.46 1.605.773.88.313 1.776.526l2.727.682q1.648.383 3.175 1.037 1.527.653 2.741 1.647 1.215.995 1.925 2.4.71 1.407.71 3.296 0 2.557-1.307 4.496-1.307 1.939-3.771 3.026-2.465 1.086-5.959 1.086-3.395 0-5.888-1.05-2.493-1.052-3.892-3.069t-1.513-4.915h5.185q.114 1.52.938 2.529.824 1.008 2.152 1.505 1.328.498 2.975.498 1.72 0 3.019-.519 1.3-.518 2.038-1.449.739-.93.753-2.18-.014-1.137-.667-1.882-.654-.746-1.826-1.25-1.172-.505-2.734-.902l-3.31-.853q-3.594-.923-5.674-2.805-2.081-1.882-2.081-5.007 0-2.571 1.399-4.503t3.814-3.004q2.414-1.073 5.468-1.073 3.097 0 5.434 1.073 2.336 1.072 3.671 2.969 1.336 1.896 1.378 4.353zm5.086-7.997h5.27V58.34h-5.27V29.25z" fill="#000" fill-rule="nonzero"></path></g><g transform="translate(64.000000, 107.000000)"><rect fill="#F2CA87" fill-rule="nonzero" width="202.54" height="85.69" rx="8.2"></rect><path d="M93.534 38.174H88.22q-.227-1.306-.838-2.322-.61-1.016-1.52-1.726-.909-.71-2.066-1.072-1.158-.363-2.493-.363-2.372 0-4.205 1.187-1.832 1.186-2.87 3.465-1.036 2.28-1.036 5.562 0 3.338 1.044 5.617 1.044 2.28 2.87 3.438 1.825 1.158 4.183 1.158 1.306 0 2.45-.348 1.143-.348 2.06-1.03.916-.682 1.548-1.676.632-.995.873-2.273l5.313.028q-.298 2.074-1.286 3.892-.987 1.819-2.578 3.203-1.59 1.385-3.721 2.16-2.131.774-4.73.774-3.836 0-6.847-1.776-3.011-1.775-4.744-5.128-1.733-3.352-1.733-8.04 0-4.701 1.747-8.046 1.747-3.345 4.758-5.121 3.012-1.776 6.819-1.776 2.429 0 4.517.682 2.088.682 3.721 1.996 1.634 1.314 2.692 3.21 1.058 1.896 1.385 4.325zm23.508-9.815h5.242V57.45h-4.688L103.89 37.635h-.241V57.45h-5.27V28.36h4.716l13.693 19.829h.255v-19.83zm10.966 0h5.27V57.45h-5.27V28.36z" fill="#000" fill-rule="nonzero"></path></g></g><g transform="translate(102.000000, 89.000000)" fill-rule="nonzero"><path d="M176.954 164.013c-7.217 13.492-22.75 18.45-35.771 11.744-2.746-1.422-6.491-2.885-9.237-4.307-1.138-.61-1.06-.57-1.06.69v25.643c-.038.406.158.569.55.569l3.746-1c1.216-.04 2.392.162 3.451.731.353.163.628.204.98 0 2.04-1.016 4.12-.975 6.159-.04.431.203.745.162 1.137-.04 1.373-.692 2.824-.854 4.315-.57 3.49.691 5.844 3.658 5.883 7.396.04 2.357 0 4.674 0 7.03 0 .691.04 1.342-.117 2.032-.118.61-.079.61.549.61h18.748c.589 0 .856.029.974-.08l3.223.08c.157 0 .157.474 0 1.422h-23.26c-.548 0-.98.122-1.45.529-1.648 1.463-3.844 1.422-5.492 0-.823-.691-.862-.691-1.647 0-1.647 1.422-3.883 1.463-5.53.04-.746-.69-.98-.69-1.49-.203-1.609 1.626-4.394 1.666-5.963-.04-.196-.244-.47-.326-.745-.326l-133.26 1c-.549 0-1.137.04-1.647-.244.392-.853.824-.975 1.334-.975h11.001c-.51-1.422-.784-2.56-.784-3.82-.04-3.82-.118-7.68-.196-11.5-.118-6.705-.235-13.451-.392-20.156-.04-1.788-.118-3.577-.118-5.365 0-2.56 1.843-4.51 4.314-4.551 1.844-.04 3.687 0 5.57 0h12.63c2.196 0 4.393.081 6.59.081 2.392 0 4.392 2.154 4.235 4.511-.039.569 0 1.179 0 1.747 1.256-.04 2.118-.284 3.06-.325 4.275-.203 8.04 3.048 8.433 7.356.431 4.592-2.51 8.574-6.864 9.184-1.49.203-2.942.04-4.315-.57-.627-.284-.627-.243-.627.407l-.118 6.827c-.078 4.349-.196 8.697-.275 13.045-.039 1.057-.392 1.95-1.02 2.763.393.447.589.447.746.447H70.17c-6.001-3.698-8.825-8.655-8.825-15.28 0-1.584.313-3.169.823-4.673 5.295-15.767 10.59-31.534 15.886-47.261a7.666 7.666 0 0 0 .431-3.13c-.118-1.543-.04-3.128-.078-4.673l-.353-16.58c-.079-3.332-.118-6.705-.196-10.037-.118-4.47-.236-8.981-.314-13.451l-.236-11.988c-.078-3.942-.196-7.925-.313-11.866-.04-1.707-.04-3.373-.079-5.08 0-.935 0-.935-.863-.853-3.569.325-6.668-.773-9.335-3.251-4.746-4.47-4.981-12.598-.51-17.353 3.02-3.21 6.707-4.43 10.983-3.657.51-.853.196-1.382.039-1.91-1.294-3.901-2.275-7.924-2.471-12.07-.157-3.047.118-6.054 1.177-8.899 2-5.445 5.844-8.696 11.217-10.119a15.024 15.024 0 0 1 4.472-.569c.549 0 .823-.162 1.059-.69a21.473 21.473 0 0 1 2.55-4.674c2.902-4.064 6.824-6.42 11.57-7.355.745-.163 1.49-.04 2.197-.366h3.961c.588.325 1.216.163 1.844.244 2.431.325 4.745 1.178 7.099 1.95 20.984 6.868 41.93 13.736 62.874 20.644.863.244 1.06.447 1.06.772 0 .285-.158.488-.432.57-.196.08-.392.162-.628.243-3.412 1.341-6.864 2.682-10.276 4.023-1.02.407-1.02.447-.667.854.667.731 1.373 1.422 2.079 2.153 1.726 1.789 3.451 3.617 5.177 5.405.746.854.628 1.341-.078 1.504-.745.162-1.49.284-2.236.447l-8.237 1.585c-.666.162-.666.325-.51.569 2.393 3.576 4.472 6.664 6.55 9.793.158.203.314.407.393.65.196.488-.118.935-.628.854-.235-.04-.47-.122-.706-.203a767.546 767.546 0 0 0-5.216-1.707 3.758 3.758 0 0 0-.628-.203c-.196.487-.118.65-.078.853 1.412 4.348 2 8.86 1.843 13.451-.157 3.86-.98 7.6-2.314 11.175-1.883 5.161-4.197 10.079-6.629 14.955-6.628 13.207-14.042 25.968-21.415 38.728-3.217 5.567-6.472 11.134-9.61 16.742-.392.65-.628 1.341-.55 2.114.08.65-.195 1.381.118 1.91.314.528 1.06.65 1.609.934 5.216 2.723 11.394 5.446 16.61 8.168 3.374 1.748 7.217 1.22 10.002-1.34.942-.895 1.648-1.951 2.197-3.13 1.922-4.185 3.804-8.412 5.726-12.597 4.432-9.794 7.904-19.547 12.297-29.381.784-1.748 1.333-3.658 1.922-5.486.235-.732.823-1.463.588-2.195-.196-.65-.863-1.178-1.334-1.747-.98-1.179-2-2.317-2.98-3.536-2.08-2.56-1.02-6.38 2.04-7.315 1.725-.528 3.294-.203 4.549 1.22.51.528.941 1.137 1.451 1.666.47.528.47.528.824-.04.941-1.626 1.883-3.211 2.824-4.837.863-1.463 1.726-2.966 2.589-4.43.706-1.178 1.647-2.031 2.98-2.316 1.687-.406 3.138.082 4.276 1.382 1.137 1.26 1.373 2.804.902 4.47a6.517 6.517 0 0 1-.628 1.422c-.823 1.342-1.608 2.723-2.431 4.064-.118.203-.432.488-.275.65 2.157-1.503 3.726-2.763 5.295-3.982 1.295-1.016 2.589-2.073 3.883-3.048 2.589-1.91 6.08-.569 6.864 2.6.393 1.667.04 3.17-1.176 4.39a7.631 7.631 0 0 1-1.412 1.138c.274.243.549.04.823-.082.98-.406 1.961-.853 2.981-1.219 1.726-.61 3.687 0 4.825 1.463 1.176 1.504 1.372 3.576.431 5.202-.51.894-1.216 1.544-2.157 1.95-1.53.65-3.02 1.26-4.51 1.91-.236.082-.471.204-.707.285.98.487 1.726.894 2.393 1.544a4.844 4.844 0 0 1 1.098 5.12c-.667 1.748-2.196 2.845-4.118 2.804-3.53-.08-7.1-.203-10.63-.325-1.726-.081-1.647-.081-2.706 1.382-2.236 3.21-2.687 6.868-4.335 10.403-2.196 4.795-4.353 9.59-6.51 14.386-.354.772-10.198 22.27-10.277 22.391z" fill="#151D38"></path><path d="M104.298 154.198c2 0 3.844-.122 5.648-.366 6.982-.813 13.414-3.129 19.376-6.949.393-.244.667-.569.902-.975 3.413-6.137 6.943-12.192 10.473-18.287 6.315-10.891 12.59-21.782 18.395-32.998 3.1-5.933 6.002-11.988 8.473-18.246 3.373-8.534 3.53-17.109.627-25.764-.235-.772-.667-1.138-1.373-1.382a32939.66 32939.66 0 0 1-59.54-19.303c-1.804-.569-3.57-1.178-5.374-1.747-.862-.285-.706-.325-1.02.569-.078.162-.117.365-.195.569-1.295 3.535-3.178 6.624-5.766 9.265-4.001 4.145-8.825 6.786-14.199 8.453-.196.08-.431.121-.627.203-.236.081-.197.203 0 .284.313.203.666.366.98.61.314.203.353.528.157.853-.157.325-.47.325-.745.203a4.24 4.24 0 0 1-.589-.325c-6.903-3.982-15.453.854-15.885 9.022-.353 6.746 5.138 12.557 12.277 11.582 1.569-.204 1.569-.244 1.608 1.381.078 3.454.118 6.868.196 10.322.118 4.51.235 9.022.314 13.532.078 3.333.157 6.706.196 10.038.078 4.714.196 9.428.275 14.142l.117 6.908c.079 4.186.196 8.371.314 12.557.078 2.48.157 4.917.157 7.396 0 .732.235 1.097.824 1.463 7.452 4.673 15.532 6.909 24.004 6.99z" fill="#FAE0D6"></path><path d="M130.373 173.178V149.2c0-1.381 0-1.219-1.02-.61-10.001 5.893-20.71 7.844-32.005 6.015-5.923-.934-11.453-3.048-16.63-6.217-.825-.529-.785-.65-1.138.487-5.256 15.686-10.551 31.413-15.807 47.1a14.381 14.381 0 0 0-.706 6.054c.627 7.6 6.825 13.492 14.199 13.492 9.295 0 18.591-.04 27.848.041 2.902.04 6.236-2.073 6.55-6.177 0-.244-.04-.488.118-.65.392-.407.314-.895.314-1.382v-7.152c0-.691-.04-.691-.706-.691H86.326c-1.059-.04-1.961-.407-2.706-1.179-1.452-1.422-1.687-3.129-1.099-4.998 1.726-5.446 3.491-10.891 5.256-16.377.079-.203.118-.447.236-.65.157-.285.431-.366.745-.244a.476.476 0 0 1 .314.61 8.517 8.517 0 0 1-.275.934L83.62 193.7c-.785 2.478.627 4.55 3.138 4.592h42.556c.981 0 1.06.203 1.02-1.057v-.488c.04-7.843.04-15.686.04-23.57zm1.627-12.52v8.086c0 .61.157.976.706 1.3 3.256 1.667 6.472 3.414 9.767 5.08a22.902 22.902 0 0 0 9.02 2.48c7.179.446 13.493-1.789 18.906-6.665 2.981-2.682 5.1-5.974 6.668-9.672.235-.528 8.59-18.856 8.904-19.587a667.425 667.425 0 0 1 4.197-9.347l1.882-4.145c.157-.325.157-.528-.196-.69-.157-.041-.274-.163-.431-.204-2.903-1.422-5.766-2.845-8.669-4.226l-4-1.95c-.392-.204-.628-.163-.785.284l-.588 1.34a22927.595 22927.595 0 0 0-14.905 32.876c-.863 1.91-2.157 3.455-3.922 4.511-3.216 1.91-6.55 2.073-9.884.325a2931.594 2931.594 0 0 1-15.768-8.25c-.196-.121-.392-.202-.588-.324-.196-.081-.314 0-.314.203v8.575z" fill="#EBBE62"></path><path d="M27.572 171.059v-.04H23.06c-2.589 0-5.217-.042-7.805 0-1.962.04-3.217 1.34-3.256 3.372 0 .935.04 1.87.04 2.845.078 5.404.156 10.85.274 16.255 0 1.097.078 2.194.117 3.291 0 .488.197.65.628.61h.47c9.218 0 18.435.04 27.653.04.235 0 .431-.04.667 0 .47.041.666-.121.666-.65 0-.894.04-1.747.04-2.641.039-1.22.039-2.48.078-3.698.04-.691.432-.935 1.02-.61.157.082.314.203.47.325 3.374 2.073 7.767.732 9.571-2.885 1.804-3.617.196-8.168-3.412-9.712-2.158-.935-4.236-.732-6.237.447-.784.447-1.098.284-1.137-.65 0-.935-.04-1.87.039-2.845.157-1.788-1.373-3.536-3.373-3.495-3.962.081-7.963.04-12.002.04z" fill="#FFF"></path><path d="M210.563 114.743v.04h1.138c1.843-.04 3.255-1.463 3.295-3.291.039-1.788-1.334-3.373-3.099-3.536a25.655 25.655 0 0 1-1.765-.162c-.51-.04-.98 0-1.451.244-1.49.65-2.942 1.26-4.433 1.869-.235.081-.47.203-.706.244-.274.04-.51-.041-.627-.325-.118-.326-.04-.57.274-.732.197-.122.393-.203.589-.284a1716.17 1716.17 0 0 0 12.786-5.405 9.241 9.241 0 0 0 1.099-.528 3.266 3.266 0 0 0 1.451-3.495c-.47-2.195-2.55-3.333-4.59-2.52-2.47 1.016-4.941 2.073-7.412 3.089a4.16 4.16 0 0 0-1.06.65c-1.607 1.3-3.216 2.56-4.863 3.86-.314.244-.667.326-.902 0-.275-.325-.118-.65.196-.934.118-.082.235-.203.353-.285 2.157-1.706 4.275-3.413 6.433-5.08 1.294-1.015 2.628-2.031 3.844-3.128 1.372-1.22 1.45-3.17.313-4.633-1.098-1.382-2.941-1.666-4.393-.65-.235.162-.47.325-.666.528-3.687 2.885-7.335 5.77-10.983 8.696-.353.285-.745.65-1.177.285-.47-.407-.039-.854.157-1.22 1.06-1.787 2.118-3.535 3.138-5.323a38.143 38.143 0 0 0 1.57-2.763c.823-1.666.313-3.454-1.138-4.43-1.452-.934-3.256-.61-4.354.894-.392.529-.706 1.057-1.06 1.626a1809.05 1809.05 0 0 0-5.294 9.103c-.51.853-.745.853-1.412.122-.706-.813-1.412-1.667-2.118-2.48-.942-1.056-2.118-1.34-3.413-.893-2.235.772-3.02 3.494-1.49 5.364 1.333 1.666 2.745 3.291 4.157 4.917.628.69.667 1.26.393 2.113-.706 1.829-1.295 3.739-1.922 5.608-.275.813-.275.813.431 1.179 1.255.61 2.55 1.219 3.844 1.869 2.942 1.422 5.883 2.885 8.825 4.307.824.407.824.407 1.373-.447.745-1.178 1.53-2.316 2.196-3.494.393-.65.824-.854 1.53-.813 1.334.081 2.707.122 4.04.162 2.354-.04 4.628 0 6.903.082zM128.04 199h-7.334c-.706 0-.706 0-.706.772v14.426c0 .773 0 .773.706.773h12.708c.628 0 .589 0 .51-.691-.04-.325-.04-.65-.04-.976v-8.168c0-.365.236-.569.51-.569.354 0 .59.204.628.61v.772c0 2.52-.039 4.998 0 7.518.04 1.87 1.49 3.251 3.256 3.13 1.569-.123 2.745-1.464 2.745-3.252v-7.884c0-3.698-2.627-6.38-6.197-6.38-2.275-.081-4.55-.081-6.785-.081z" fill="#FAE0D6"></path><path d="M27.944 206.04V206H13.745c-.706 0-.745.04-.745.772l.118 5.567a3.53 3.53 0 0 0 3.569 3.536c7.452-.081 14.905-.081 22.396 0 1.726 0 3.57-1.341 3.57-3.657 0-1.83.078-3.617.117-5.446 0-.61-.039-.65-.627-.69h-.667c-4.51-.041-9.021-.041-13.532-.041z" fill="#FFF"></path><path d="M150.345 209.147v3.333c0 .487 0 .975.039 1.463.157 1.219.863 2.072 2 2.478 1.098.407 2.118.122 2.981-.65.667-.61.98-1.422.98-2.357v-8.371c0-.203-.039-.406-.078-.569-.392-3.78-4.197-6.34-7.688-5.202-.706.244-.745.285-.235.854 1.334 1.463 1.961 3.21 1.961 5.242.04 1.26.04 2.52.04 3.78zm-8.072-.095v4.266c.04 1.87 1.334 3.252 3.06 3.252 1.686 0 2.941-1.382 2.98-3.21.04-1.301 0-2.601 0-3.902 0-1.544.04-3.129-.039-4.673-.235-3.901-4.08-6.665-7.688-5.527-.706.244-.745.325-.274.854 1.333 1.503 2 3.25 1.961 5.323v3.617z" fill="#FAE0D6"></path><path d="M194.558 120.916c0-.325-.235-.366-.431-.447-1.02-.488-2.04-.975-3.06-1.504l-9.766-4.754c-.706-.325-.706-.325-1.02.365a254.393 254.393 0 0 1-2.157 4.755c-.196.406-.196.69.274.894.706.285 1.373.65 2.04.975 3.608 1.788 7.256 3.536 10.865 5.324.588.284.588.284.902-.325.745-1.626 1.451-3.21 2.196-4.836.04-.163.118-.325.157-.447zM114 206.928v7.315c0 .731.04.731.667.731h4.432c.628 0 .667-.04.667-.731V200.02c0-1.138.078-1.016-1.02-1.016h-3.844c-.863 0-.863 0-.863.934-.039 2.317-.039 4.674-.039 6.99z" fill="#151D38"></path><path d="M28.166 200h-13.61c-1.648 0-1.648 0-1.49 1.707v.203c0 .284.156.406.43.366h.471c4.393 0 8.786.04 13.18.04h14.316c1.647 0 1.686-.04 1.53-1.706-.04-.366-.118-.529-.51-.529h-.471c-4.668-.04-9.335.082-13.846-.081z" fill="#E5384A"></path><path d="M112.253 214.23v-.975c0-.082 0-.204-.118-.244-.117-.04-.156.04-.196.122-.392.61-.823 1.138-1.294 1.666-.235.244-.745.325-.628.731.079.204.589.082.903.082 1.372 0 1.372 0 1.333-1.382z" fill="#FFF"></path><path d="M41.767 129.375c0-2.032-.393-4.43-1.216-6.787-.863-2.438-2.118-4.714-3.374-6.949-1.059-1.869-2.118-3.738-3.02-5.73-1.686-3.698-2-7.599-1.49-11.622.353-2.763 1.02-5.405 2.275-7.884.51-.975 1.059-1.91 1.726-2.763.156-.163.274-.325.47-.488.236-.203.51-.203.745 0 .236.244.236.529.079.813-.04.081-.118.163-.196.244-2 2.438-3.06 5.283-3.648 8.33-.431 2.276-.628 4.552-.47 6.868.156 2.276.823 4.39 1.764 6.421.942 2.032 2.08 3.942 3.177 5.852 1.334 2.357 2.59 4.755 3.374 7.396 1.53 5.08 1.176 10.078-.824 14.955-.902 2.235-2.079 4.388-3.256 6.502-.94 1.706-1.882 3.373-2.667 5.16-1.137 2.52-1.922 5.162-2 7.966-.04.772-.196 1.015-.628.975-.431-.04-.588-.325-.588-1.057.118-3.129.98-6.055 2.314-8.859 1.06-2.235 2.275-4.348 3.452-6.502 1.49-2.722 2.824-5.526 3.49-8.615.314-1.219.432-2.479.51-4.226zm-13.177.433c.039 4.145-1.217 7.924-3.06 11.5-1.334 2.56-2.746 5.12-4.08 7.681-.391.732-.705 1.544-1.058 2.276-.157.325-.432.487-.785.325-.353-.163-.431-.447-.314-.813.04-.162.118-.325.157-.447.353-.772.667-1.544 1.06-2.276 1.255-2.357 2.549-4.714 3.765-7.07 1.333-2.52 2.392-5.162 2.824-8.006.627-4.023.04-7.884-1.57-11.582-.94-2.194-2.156-4.267-3.333-6.34-1.098-1.91-2.118-3.82-2.942-5.892-1.137-2.926-1.412-5.973-1.176-9.103.156-2.031.51-4.063 1.098-6.014.078-.284.196-.569.314-.813.117-.203.353-.284.588-.203a.561.561 0 0 1 .431.57c0 .202-.078.446-.156.65-.903 2.925-1.256 5.973-1.177 9.02.078 2.236.667 4.349 1.569 6.38.784 1.83 1.804 3.577 2.785 5.324 1.333 2.357 2.667 4.714 3.608 7.275.98 2.438 1.49 4.957 1.451 7.558z" fill="#151D38"></path><path d="M35.443 130.837c0 3.942-1.137 7.64-2.942 11.175-1.059 2.113-2.235 4.145-3.334 6.218-.078.122-.156.284-.235.406-.196.284-.47.325-.745.163-.314-.163-.353-.447-.235-.773.117-.284.274-.569.431-.853 1.177-2.113 2.393-4.186 3.412-6.38 1.02-2.154 1.844-4.389 2.236-6.787.588-3.576.196-7.03-1.059-10.403-.824-2.194-1.922-4.226-3.06-6.258-1.098-1.95-2.235-3.86-3.137-5.892-1.02-2.317-1.687-4.755-1.765-7.315 0-.244-.04-.447.039-.691.04-.284.275-.447.55-.447.274 0 .47.122.548.447.04.163.079.325.079.488.039 3.21 1.098 6.095 2.55 8.859 1.254 2.316 2.588 4.592 3.804 6.949 1.294 2.479 2.275 5.08 2.667 7.843.118 1.016.235 2.072.196 3.25zm-13.03-.77c0 3.982-.98 7.396-2.51 10.606-.51 1.057-1.06 2.072-1.57 3.088a3.402 3.402 0 0 1-.313.488c-.196.244-.431.285-.667.163-.274-.163-.431-.407-.313-.732.117-.284.274-.569.431-.853 1.098-2.073 2.157-4.186 2.824-6.462 1.294-4.226 1.216-8.452-.235-12.638-.079-.244-.196-.488-.275-.731-.118-.366-.118-.732.275-.935.353-.163.666 0 .863.488.353.853.627 1.788.823 2.682.471 1.747.628 3.454.667 4.836zM142.62 68.98c-2.039 0-3.843-.204-5.608-.692-.392-.122-.667-.203-.902.325-1.412 3.251-4 4.633-7.335 4.552-3.687-.081-6.864-2.56-7.844-6.014a6.882 6.882 0 0 1-.197-2.967c.118-.69.079-.732-.588-.935-4.314-1.422-7.766-4.185-10.786-7.558-.118-.122-.236-.244-.275-.366-.235-.488.04-.935.55-.894.117 0 .235.04.352.081 3.687 1.097 7.374 1.016 11.061.163.98-.203 1.961-.366 2.942-.57 2.667-.446 4.707.53 6.276 2.805.549.813.549.813 1.45.447 2.393-1.057 4.59-.732 6.59.975 1.06.935 2.04 1.95 3.02 2.926 2.471 2.398 5.296 4.226 8.59 5.283.392.122.863.162.863.731 0 .57-.51.61-.902.691-2.393.61-4.903.976-7.256 1.016z" fill="#151D38"></path><path d="M129.379 71.695c.117 0 .431-.04.745-.04s.47-.163.392-.489c-.274-1.34-.784-2.52-1.843-3.413-.236-.163-.47-.488-.745-.366s0 .447-.04.691c-.039.325-.157.569-.47.61-.314.04-.55-.082-.628-.447-.078-.244-.118-.488-.196-.773-.235-.894-.55-1.706-1.177-2.397-.745-.854-1.686-1.22-2.785-1.016-.47.081-.666.325-.627.772.04.569.078 1.097.235 1.626.824 3.088 3.687 5.242 7.139 5.242z" fill="#E5384A"></path><path d="M135.525 68.068c0-.325-.275-.365-.432-.447-1.137-.528-2.196-1.26-3.138-2.113-.666-.61-1.255-1.34-1.804-2.113-.157-.203-.235-.488-.588-.366a13.598 13.598 0 0 1-3.334.935c-.236.04-.314.203-.118.406.47.488.863 1.016 1.177 1.626.157.284.392.366.667.447 1.608.488 2.667 1.625 3.334 3.17.235.528.392 1.097.51 1.666.078.366.235.406.51.244 1.372-.65 2.431-1.667 3.059-3.13.078-.08.117-.203.157-.325z" fill="#FFF"></path><path d="M105.179 55.787c0 3.82-2.981 6.908-6.629 6.868-3.648-.041-6.55-3.089-6.55-6.828 0-3.454 2.51-6.867 6.629-6.827 4.393 0 6.59 3.739 6.55 6.787zm60 17.122c0 3.78-2.942 6.786-6.59 6.786-3.687 0-6.589-3.088-6.589-6.908 0-3.78 2.98-6.827 6.59-6.787 3.726.041 6.628 3.048 6.589 6.909z" fill="#E5384A"></path><path d="M111.433 46.332c0 1.829-1.452 3.373-3.217 3.373-1.765 0-3.216-1.463-3.216-3.332 0-1.87 1.373-3.332 3.177-3.373 1.804 0 3.216 1.463 3.256 3.332zM153 60.292c.04-1.869 1.491-3.332 3.256-3.291 1.805.04 3.177 1.544 3.138 3.413-.04 1.83-1.53 3.333-3.295 3.292-1.765-.04-3.137-1.544-3.098-3.414zm-77.454-7.039c-3.02-.122-5.413 2.275-5.334 5.323.039 2.967 2.51 5.283 5.412 5.08.275 0 .55-.082.824-.082.314 0 .55.082.628.447.039.407-.118.65-.471.732-.47.081-.941.162-1.412.162-3.06-.04-5.687-2.397-6.119-5.404-.47-3.333 1.334-6.3 4.393-7.234.824-.244 1.648-.366 2.51-.203.393.081.746.163.785.65 0 .407-.314.57-.902.57-.157 0-.275-.041-.314-.041zM133.697 48c.274 0 .47.163.627.366 1.02 1.016 2.04 2.032 3.02 3.048.628.65.51 1.056-.274 1.34-1.334.488-2.667.895-4 1.342-.08.04-.197.04-.275.08-.353.123-.628.042-.745-.324-.157-.407.078-.691.431-.813a67.85 67.85 0 0 1 2.667-.894c.902-.325.902-.325.196-1.016-.588-.569-1.176-1.178-1.765-1.747-.157-.163-.314-.325-.431-.529-.157-.447.117-.853.549-.853zm31.134 11.1c-.039.326-.117.854-.235 1.342-.157.61-.392.813-.784.731-.393-.08-.51-.365-.353-1.016.117-.487.196-1.016.156-1.544-.156-1.95-1.059-3.332-2.745-4.226-.196-.122-.432-.163-.589-.285-.235-.162-.353-.406-.235-.65.118-.284.314-.487.667-.447.196.04.353.122.55.203 2.117.976 3.608 3.292 3.568 5.893zm-57.648-19.87c-2.314-.122-4.236 1.22-4.942 3.455-.236.772-.47.975-.863.853-.392-.122-.47-.488-.275-1.179.785-2.682 3.256-4.713 6.55-4.307.157 0 .314.081.432.122.235.122.353.366.314.65-.04.325-.275.447-.51.447-.235.04-.51-.04-.706-.04zM51.904 184.593c0 2.641-1.922 4.592-4.472 4.592-2.51 0-4.432-2.032-4.432-4.633 0-2.56 1.922-4.551 4.432-4.551 2.55-.041 4.472 1.95 4.472 4.592zm-4.433-3.414c-1.804 0-3.294 1.544-3.294 3.414 0 1.869 1.49 3.413 3.294 3.413 1.765 0 3.217-1.503 3.256-3.332.04-1.95-1.412-3.495-3.256-3.495zm145.373-59.106c-.04 1.097-.902 1.95-1.961 1.91-1.02-.041-1.883-.976-1.883-2.032.04-1.057.941-1.951 1.961-1.951 1.098.081 1.922.975 1.883 2.073zm-1.177-.041a.716.716 0 0 0-.706-.732.673.673 0 0 0-.667.691c-.039.407.275.732.667.772a.716.716 0 0 0 .706-.731z" fill="#151D38"></path><path d="M115.001 211.952c0-1.097.863-1.991 1.922-1.95 1.06 0 1.883.934 1.883 2.031-.04 1.097-.863 1.91-1.961 1.87-1.06-.082-1.883-.894-1.844-1.951zm2.59 0a.716.716 0 0 0-.707-.732c-.392 0-.628.244-.667.65-.039.407.275.773.667.773.353.04.706-.285.706-.691z" fill="#EBBE62"></path></g><g transform="translate(600.500000, 76.000000)" fill-rule="nonzero" stroke="#FFF" stroke-width=".5"><path d="M125.102.381a16.73 16.73 0 0 0-6.401 1.63L31.361 44a16.674 16.674 0 0 0-9.037 11.306L.777 149.624c-1.005 4.39-.187 9 2.268 12.78.294.456.611.899.95 1.325l60.452 75.628a16.718 16.718 0 0 0 13.058 6.271l96.947-.022c5.08.003 9.885-2.3 13.058-6.26l60.43-75.64a16.64 16.64 0 0 0 3.229-14.104l-21.581-94.318a16.674 16.674 0 0 0-9.037-11.307L133.2 2.011a16.731 16.731 0 0 0-8.098-1.63z" fill="#326CE5"></path><path d="M125.967 32.479c2.887 0 5.227 2.617 5.228 5.844.001.458.026 1.072.01 1.495-.068 1.862-.471 3.286-.714 5.001-.44 3.671-.82 6.714-.592 9.542.206 1.416 1.028 1.975 1.709 2.63.015.382.076 1.648.123 2.35 16.622 1.485 32.058 9.133 43.396 21.095h0l1.988-1.427c.674.04 2.159.245 3.173-.349 2.339-1.584 4.47-3.783 7.048-6.417 1.181-1.26 2.048-2.46 3.452-3.676.32-.277.804-.648 1.161-.932 2.508-2.013 5.997-1.8 7.797.472 1.8 2.27 1.223 5.742-1.284 7.755-.354.286-.814.682-1.15.932-1.49 1.107-2.862 1.673-4.346 2.552-3.127 1.943-5.719 3.553-7.775 5.496-.97 1.045-.898 2.034-.983 2.978-.29.268-1.312 1.18-1.854 1.675a68.305 68.305 0 0 1 9.796 22.781 68.337 68.337 0 0 1 1.095 24.557h0l2.111.619c.38.54 1.16 1.853 2.257 2.281 2.69.852 5.717 1.166 9.371 1.551 1.716.143 3.197.058 5.016.405.435.083 1.07.257 1.52.36 3.08.748 5.059 3.598 4.422 6.406-.636 2.808-3.646 4.515-6.746 3.843-.023-.005-.055-.006-.079-.01-.035-.009-.065-.026-.1-.035-.432-.095-.974-.19-1.352-.292-1.788-.482-3.083-1.2-4.691-1.82-3.46-1.249-6.324-2.292-9.115-2.698-1.418-.112-2.14.569-2.927 1.09a78.43 78.43 0 0 0-2.234-.393c-5.009 15.84-15.676 29.554-30.137 38.145.25.607.673 1.896.871 2.124-.33.888-.826 1.737-.402 3.102 1.015 2.648 2.657 5.236 4.636 8.35.958 1.44 1.939 2.546 2.804 4.193.207.394.481 1 .681 1.416 1.344 2.892.358 6.223-2.223 7.474-2.6 1.26-5.835-.07-7.227-2.978-.199-.412-.48-.96-.648-1.349-.74-1.707-.998-3.17-1.52-4.821-1.186-3.5-2.16-6.397-3.585-8.846-.796-1.185-1.774-1.336-2.67-1.63-.165-.287-.784-1.428-1.116-2.022a67.523 67.523 0 0 1-8.97 2.72c-13.565 3.098-27.143 1.841-39.275-2.844h0l-1.184 2.158c-.88.237-1.731.478-2.252 1.104-1.904 2.286-2.664 5.954-4.048 9.45-.52 1.65-.767 3.114-1.508 4.821-.167.386-.449.927-.647 1.337h0v.012c-.002.004-.01.007-.012.01-1.395 2.9-4.618 4.226-7.216 2.968-2.58-1.25-3.566-4.582-2.222-7.474.2-.416.463-1.022.67-1.416.865-1.647 1.845-2.764 2.804-4.203 1.979-3.116 3.717-5.91 4.731-8.558.255-.879-.122-2.083-.464-2.974h0l.949-2.292c-13.915-8.297-24.905-21.518-30.148-37.876h0l-2.28.393c-.61-.344-1.838-1.16-3.004-1.067-2.791.406-5.656 1.449-9.115 2.697-1.608.62-2.903 1.328-4.691 1.81-.378.101-.92.208-1.352.303-.035.009-.065.026-.1.034-.024.005-.056.006-.079.01-3.1.673-6.109-1.035-6.746-3.843-.638-2.807 1.342-5.657 4.423-6.406h0l.078-.023c.015-.003.03-.008.045-.01.438-.104.996-.25 1.396-.327 1.82-.346 3.3-.26 5.016-.404 3.654-.386 6.682-.699 9.371-1.551.853-.352 1.669-1.532 2.246-2.282h0l2.189-.64c-2.453-17.094 1.698-33.87 10.667-47.452h0l-1.675-1.506c-.107-.656-.247-2.173-1.05-3.034-2.056-1.943-4.648-3.553-7.775-5.496-1.484-.879-2.844-1.445-4.334-2.551-.316-.236-.738-.596-1.083-.877-.026-.02-.053-.036-.078-.056-2.508-2.012-3.085-5.484-1.285-7.755 1.013-1.278 2.56-1.91 4.167-1.855 1.25.043 2.544.502 3.641 1.383.357.284.843.657 1.162.933 1.403 1.214 2.259 2.414 3.44 3.675 2.579 2.634 4.71 4.822 7.049 6.406 1.228.72 2.172.43 3.105.303.3.224 1.31.953 1.888 1.35 8.898-9.5 20.584-16.534 34.158-19.635a67.687 67.687 0 0 1 9.45-1.462h0l.123-2.225c.696-.678 1.477-1.653 1.698-2.72.227-2.828-.141-5.87-.58-9.542-.244-1.715-.647-3.14-.716-5.001-.014-.382.007-.91.011-1.349 0-.049-.01-.096-.01-.146-.001-3.227 2.34-5.844 5.227-5.844zm.104 119.941l-.272.002a4.612 4.612 0 0 0-3.898 2.45h0-.022l-13.27 24.141c9.183 3.15 19.325 3.853 29.5 1.529a54.875 54.875 0 0 0 5.317-1.495h0l-13.304-24.186h-.1a4.59 4.59 0 0 0-2.067-1.978 4.539 4.539 0 0 0-2.156-.461zm22.917-11.253l-.267.005a4.575 4.575 0 0 0-1.765.46c-2.234 1.083-3.205 3.744-2.234 6.013h0l-.034.045 10.567 25.681c10.186-6.528 17.81-16.285 21.793-27.546h0l-27.221-4.63-.045.055a4.559 4.559 0 0 0-1.061-.078zm-45.987.117a4.638 4.638 0 0 0-.905.079h0l-.044-.057-26.988 4.608A54.404 54.404 0 0 0 96.79 173.27h0l10.456-25.422-.079-.102a4.62 4.62 0 0 0 .257-2.854 4.617 4.617 0 0 0-4.423-3.608zm27.166-22.613h-8.411l-5.239 6.564 1.877 8.204 7.573 3.664 7.551-3.653 1.877-8.204-5.228-6.575zM79.756 98.767a54.442 54.442 0 0 0-7.64 34.29h0l26.316-7.643.023-.09a4.606 4.606 0 0 0 2.39-1.584 4.651 4.651 0 0 0-.58-6.384h0l.022-.112zm92.277.011l-20.42 18.387.012.056a4.604 4.604 0 0 0-1.463 2.462c-.552 2.431.904 4.855 3.273 5.507h0l.022.112 26.45 7.665a55.086 55.086 0 0 0-1.138-17.634 55.04 55.04 0 0 0-6.736-16.555h0zM119.42 73.277a54.784 54.784 0 0 0-5.574.966c-10.187 2.327-19.026 7.38-25.937 14.218h0l22.486 16.038.044-.023c.762.56 1.7.888 2.715.888 2.479 0 4.498-1.971 4.602-4.44h0l.112-.056zm13.103 0l1.553 27.547.022.01c.04.949.372 1.888 1.005 2.687a4.594 4.594 0 0 0 6.323.854h0l.078.034 22.34-15.937c-8.428-8.305-19.428-13.724-31.321-15.195h0z" fill="#FFF"></path></g><g transform="translate(690.500000, 322.000000)" fill="#B8E986"><path d="M36-33l36 65H0z"></path><path d="M46 128H26V0h20z"></path></g><g transform="translate(633.500000, 777.000000)"><path d="M186 5v19a5 5 0 0 1-5 5H5a5 5 0 0 1-5-5V5a5 5 0 0 1 5-5h176a5 5 0 0 1 5 5z" fill="#D2D2D2"></path><path fill="#A3A3A3" d="M31 6h4v4h-4zm0 6h4v4h-4zm0 6h4v4h-4zm6-12h4v4h-4zm0 6h4v4h-4zm0 6h4v4h-4zm6-12h4v4h-4zm0 6h4v4h-4zm0 6h4v4h-4zm6-12h4v4h-4zm0 6h4v4h-4zm0 6h4v4h-4zm6-12h4v4h-4zm0 6h4v4h-4zm0 6h4v4h-4zm6-12h4v4h-4zm0 6h4v4h-4zm0 6h4v4h-4zm6-12h4v4h-4zm0 6h4v4h-4zm0 6h4v4h-4zm6-12h4v4h-4zm0 6h4v4h-4zm0 6h4v4h-4zm6-12h4v4h-4zm0 6h4v4h-4zm0 6h4v4h-4zm6-12h4v4h-4zm0 6h4v4h-4zm0 6h4v4h-4zm6-12h4v4h-4zm0 6h4v4h-4zm0 6h4v4h-4zm6-12h4v4h-4zm0 6h4v4h-4zm0 6h4v4h-4zm6-12h4v4h-4zm0 6h4v4h-4zm0 6h4v4h-4zm6-12h4v4h-4zm0 6h4v4h-4zm0 6h4v4h-4zm6-12h4v4h-4zm0 6h4v4h-4zm0 6h4v4h-4zm6-12h4v4h-4zm0 6h4v4h-4zm0 6h4v4h-4zm6-12h4v4h-4zm0 6h4v4h-4zm0 6h4v4h-4zm6-12h4v4h-4zm0 6h4v4h-4zm0 6h4v4h-4zm6-12h4v4h-4zm0 6h4v4h-4zm0 6h4v4h-4zm6-12h4v4h-4zm0 6h4v4h-4zm0 6h4v4h-4zm6-12h4v4h-4zm0 6h4v4h-4zm0 6h4v4h-4zm6-12h4v4h-4zm0 6h4v4h-4zm0 6h4v4h-4zm6-12h4v4h-4zm0 6h4v4h-4zm0 6h4v4h-4zm6-12h4v4h-4zm0 6h4v4h-4zm0 6h4v4h-4zm6-12h4v4h-4zm0 6h4v4h-4zm0 6h4v4h-4z"></path></g><g transform="translate(633.500000, 809.000000)"><path d="M186 5v19a5 5 0 0 1-5 5H5a5 5 0 0 1-5-5V5a5 5 0 0 1 5-5h176a5 5 0 0 1 5 5z" fill="#326CE5"></path><path fill="#FFF" d="M31 6h4v4h-4zm0 6h4v4h-4zm0 6h4v4h-4zm6-12h4v4h-4zm0 6h4v4h-4zm0 6h4v4h-4zm6-12h4v4h-4zm0 6h4v4h-4zm0 6h4v4h-4zm6-12h4v4h-4zm0 6h4v4h-4zm0 6h4v4h-4zm6-12h4v4h-4zm0 6h4v4h-4zm0 6h4v4h-4zm6-12h4v4h-4zm0 6h4v4h-4zm0 6h4v4h-4zm6-12h4v4h-4zm0 6h4v4h-4zm0 6h4v4h-4zm6-12h4v4h-4zm0 6h4v4h-4zm0 6h4v4h-4zm6-12h4v4h-4zm0 6h4v4h-4zm0 6h4v4h-4zm6-12h4v4h-4zm0 6h4v4h-4zm0 6h4v4h-4zm6-12h4v4h-4zm0 6h4v4h-4zm0 6h4v4h-4zm6-12h4v4h-4zm0 6h4v4h-4zm0 6h4v4h-4zm6-12h4v4h-4zm0 6h4v4h-4zm0 6h4v4h-4zm6-12h4v4h-4zm0 6h4v4h-4zm0 6h4v4h-4zm6-12h4v4h-4zm0 6h4v4h-4zm0 6h4v4h-4zm6-12h4v4h-4zm0 6h4v4h-4zm0 6h4v4h-4zm6-12h4v4h-4zm0 6h4v4h-4zm0 6h4v4h-4zm6-12h4v4h-4zm0 6h4v4h-4zm0 6h4v4h-4zm6-12h4v4h-4zm0 6h4v4h-4zm0 6h4v4h-4zm6-12h4v4h-4zm0 6h4v4h-4zm0 6h4v4h-4zm6-12h4v4h-4zm0 6h4v4h-4zm0 6h4v4h-4zm6-12h4v4h-4zm0 6h4v4h-4zm0 6h4v4h-4zm6-12h4v4h-4zm0 6h4v4h-4zm0 6h4v4h-4zm6-12h4v4h-4zm0 6h4v4h-4zm0 6h4v4h-4zm6-12h4v4h-4zm0 6h4v4h-4zm0 6h4v4h-4z"></path></g><g transform="translate(633.500000, 450.000000)"><path d="M186 5v314a5 5 0 0 1-5 5H5a5 5 0 0 1-5-5V5a5 5 0 0 1 5-5h176a5 5 0 0 1 5 5z" fill="#D2D2D2"></path><path fill="#A3A3A3" d="M7 6h4v4H7zm0 6h4v4H7zm0 6h4v4H7zm6-12h4v4h-4zm0 6h4v4h-4zm0 6h4v4h-4zm6-12h4v4h-4zm0 6h4v4h-4zm0 6h4v4h-4zm6-12h4v4h-4zm0 6h4v4h-4zm0 6h4v4h-4zm6-12h4v4h-4zm0 6h4v4h-4zm0 6h4v4h-4zm6-12h4v4h-4zm0 6h4v4h-4zm0 6h4v4h-4zm6-12h4v4h-4zm0 6h4v4h-4zm0 6h4v4h-4zm6-12h4v4h-4zm0 6h4v4h-4zm0 6h4v4h-4zm6-12h4v4h-4zm0 6h4v4h-4zm0 6h4v4h-4zm6-12h4v4h-4zm0 6h4v4h-4zm0 6h4v4h-4zm6-12h4v4h-4zm0 6h4v4h-4zm0 6h4v4h-4zm6-12h4v4h-4zm0 6h4v4h-4zm0 6h4v4h-4zm6-12h4v4h-4zm0 6h4v4h-4zm0 6h4v4h-4zm6-12h4v4h-4zm0 6h4v4h-4zm0 6h4v4h-4zm6-12h4v4h-4zm0 6h4v4h-4zm0 6h4v4h-4zm6-12h4v4h-4zm0 6h4v4h-4zm0 6h4v4h-4zm6-12h4v4h-4zm0 6h4v4h-4zm0 6h4v4h-4zm6-12h4v4h-4zm0 6h4v4h-4zm0 6h4v4h-4zm6-12h4v4h-4zm0 6h4v4h-4zm0 6h4v4h-4zm6-12h4v4h-4zm0 6h4v4h-4zm0 6h4v4h-4zm6-12h4v4h-4zm0 6h4v4h-4zm0 6h4v4h-4zm6-12h4v4h-4zm0 6h4v4h-4zm0 6h4v4h-4zm6-12h4v4h-4zm0 6h4v4h-4zm0 6h4v4h-4zm6-12h4v4h-4zm0 6h4v4h-4zm0 6h4v4h-4zm6-12h4v4h-4zm0 6h4v4h-4zm0 6h4v4h-4zm6-12h4v4h-4zm0 6h4v4h-4zm0 6h4v4h-4zm6-12h4v4h-4zm0 6h4v4h-4zm0 6h4v4h-4zm6-12h4v4h-4zm0 6h4v4h-4zm0 6h4v4h-4zm6-12h4v4h-4zm0 6h4v4h-4zm0 6h4v4h-4zM7 313h4v4H7zm6 0h4v4h-4zm6 0h4v4h-4zm6 0h4v4h-4zm6 0h4v4h-4zm6 0h4v4h-4zm6 0h4v4h-4zm6 0h4v4h-4zm6 0h4v4h-4zm6 0h4v4h-4zm6 0h4v4h-4zm6 0h4v4h-4zm6 0h4v4h-4zm6 0h4v4h-4zm6 0h4v4h-4zm6 0h4v4h-4zm6 0h4v4h-4zm6 0h4v4h-4zm6 0h4v4h-4zm6 0h4v4h-4zm6 0h4v4h-4zm6 0h4v4h-4zm6 0h4v4h-4zm6 0h4v4h-4zm6 0h4v4h-4zm6 0h4v4h-4zm6 0h4v4h-4zm6 0h4v4h-4zm6 0h4v4h-4z"></path><rect fill="#FFF" x="7" y="29" width="172" height="278" rx="2"></rect></g><path d="M651.509 790.34h2.375v-2.159h-2.375v2.16zm-2.807 0h2.375v-2.159h-2.375v2.16zm-2.807 0h2.375v-2.159h-2.375v2.16zm-2.806 0h2.375v-2.159h-2.375v2.16zm-2.807 0h2.375v-2.159h-2.375v2.16zm2.807-2.59h2.375v-2.16h-2.375v2.16zm2.806 0h2.375v-2.16h-2.375v2.16zm2.807 0h2.375v-2.16h-2.375v2.16zm0-2.591h2.375V783h-2.375v2.159zm12.318 3.923c-.518-.347-1.71-.475-2.627-.302-.118-.864-.6-1.612-1.475-2.29l-.504-.335-.336.504c-.43.648-.644 1.547-.574 2.408.032.304.131.846.443 1.322-.312.168-.928.399-1.74.383H638.59l-.03.18c-.148.866-.145 3.568 1.61 5.645 1.333 1.579 3.333 2.38 5.942 2.38 5.657 0 9.843-2.605 11.803-7.338.77.015 2.43.004 3.282-1.625.022-.037.073-.135.222-.443l.082-.17-.48-.32z" fill="#A3A3A3"></path><g transform="translate(640.500000, 814.000000)" fill-rule="nonzero" stroke="#FFF" stroke-width=".5"><path d="M9.188.028a1.232 1.232 0 0 0-.47.12L2.303 3.22a1.22 1.22 0 0 0-.663.827L.057 10.948a1.214 1.214 0 0 0 .236 1.032l4.44 5.534c.233.29.586.459.96.459l7.12-.002c.372 0 .725-.168.958-.458l4.438-5.534c.233-.29.32-.67.237-1.033l-1.585-6.9a1.22 1.22 0 0 0-.663-.828L9.783.148a1.233 1.233 0 0 0-.595-.12z" fill="#326CE5"></path><path d="M9.251 2.377c.212 0 .384.191.384.427 0 .034.002.079.001.11-.005.136-.035.24-.052.365-.033.27-.06.492-.044.699.015.103.076.144.126.192 0 .028.005.12.009.172a5.027 5.027 0 0 1 3.187 1.544h0l.146-.105c.05.003.158.018.233-.025.172-.116.328-.277.517-.47.087-.092.15-.18.254-.269.023-.02.059-.047.085-.068.184-.147.44-.132.573.034.132.167.09.42-.095.568-.026.02-.06.05-.084.068-.11.081-.21.123-.32.187-.229.142-.42.26-.57.402-.071.076-.066.149-.072.218l-.136.122a5.007 5.007 0 0 1 .799 3.464h0l.155.045c.028.04.086.136.166.167.198.063.42.086.688.114.126.01.235.004.369.03.032.006.078.018.111.026.227.055.372.263.325.469-.047.205-.268.33-.495.28h-.006c-.003 0-.005-.002-.007-.003-.032-.006-.072-.013-.1-.02-.131-.036-.226-.089-.344-.134-.254-.091-.465-.168-.67-.197-.104-.009-.157.041-.215.08a5.78 5.78 0 0 0-.164-.03 5.006 5.006 0 0 1-2.213 2.792c.018.044.05.138.064.155-.024.065-.06.127-.03.227.075.194.196.383.34.611.071.105.143.186.207.307l.05.103c.099.212.026.456-.163.547-.191.093-.429-.005-.531-.218l-.048-.098c-.054-.125-.073-.232-.111-.353-.088-.256-.16-.468-.264-.647-.058-.087-.13-.098-.196-.12l-.082-.148a4.95 4.95 0 0 1-3.543-.009h0l-.087.158c-.065.018-.127.035-.165.081-.14.167-.196.436-.298.691-.038.121-.056.228-.11.353-.013.029-.033.068-.048.098 0 0 0 0 0 0-.103.214-.34.31-.53.219-.19-.092-.263-.335-.164-.547.015-.03.034-.075.05-.104.063-.12.135-.202.205-.307.146-.228.273-.433.348-.626.018-.065-.01-.153-.034-.218h0l.07-.168a5.006 5.006 0 0 1-2.215-2.771h0l-.167.029c-.045-.025-.135-.085-.22-.078-.206.03-.416.106-.67.197-.118.045-.214.097-.345.132-.028.008-.067.016-.1.023l-.007.002h-.005c-.228.05-.449-.075-.496-.28-.047-.206.099-.414.325-.47l.01-.002c.031-.007.072-.018.102-.023.133-.026.242-.02.368-.03.268-.028.49-.051.688-.114.063-.025.123-.112.165-.167h0l.161-.046a4.99 4.99 0 0 1 .783-3.472h0l-.123-.11c-.007-.049-.018-.16-.077-.223-.15-.142-.341-.26-.57-.402-.11-.064-.21-.106-.319-.186l-.08-.065-.005-.004c-.185-.147-.227-.401-.095-.567a.37.37 0 0 1 .306-.136.456.456 0 0 1 .268.101c.026.021.062.048.085.069.103.088.166.176.253.268.19.193.346.353.517.47.09.052.16.03.228.021l.14.1a4.936 4.936 0 0 1 3.202-1.545h0l.009-.162a.42.42 0 0 0 .125-.2c.016-.206-.01-.429-.043-.698-.018-.125-.048-.23-.053-.365l.001-.1v-.01c0-.236.171-.427.383-.427zm-.012 8.776a.339.339 0 0 0-.286.18h0-.002l-.975 1.766a3.96 3.96 0 0 0 2.558.002h0l-.978-1.77a.397.397 0 0 0-.159-.144.334.334 0 0 0-.158-.034zm1.723-.823h-.04a.34.34 0 0 0-.294.474h0l-.002.003.776 1.879a3.967 3.967 0 0 0 1.6-2.016h0l-1.998-.339c-.03 0-.055-.003-.082-.001zm-3.397.008a.342.342 0 0 0-.067.006h0l-.003-.005-1.982.338a3.98 3.98 0 0 0 1.596 2.001h0l.767-1.86a.416.416 0 0 0 .013-.216.339.339 0 0 0-.324-.264zM9.56 8.683h-.618l-.385.48.138.6.556.269.555-.267.138-.6-.384-.482zM5.857 7.227a3.972 3.972 0 0 0-.56 2.509h0l1.932-.56a.393.393 0 0 0 .177-.122.34.34 0 0 0-.042-.467h0l.001-.008zm6.777 0l-1.5 1.346a.369.369 0 0 0-.106.184.34.34 0 0 0 .24.403h0l.002.008 1.943.561c.041-.42.016-.855-.084-1.29a4.019 4.019 0 0 0-.495-1.211h0zM8.771 5.363a3.952 3.952 0 0 0-2.314 1.111h0l1.65 1.173c.06.04.129.064.203.064a.34.34 0 0 0 .338-.325h0l.009-.004zm.962 0l.114 2.015a.34.34 0 0 0 .54.26h0l.005.003 1.641-1.166a3.984 3.984 0 0 0-2.3-1.112h0z" fill="#FFF"></path></g><g transform="translate(375.000000, 179.000000)" fill="#B8E986"><path d="M205 36l-65 36V0z"></path><path d="M0 45V25h186v20z"></path></g><path d="M388.864 825.705l-4.739 5.08-.017-7.45h.989l9.41-10.517h7.21l-11.575 12.887h-1.278zM384.671 839h-6.17v-34.91h6.17V839zm17.642 0h-7.38l-8.523-11.915 4.159-4.346L402.313 839zm20.182-11.011v-15.17h6.17V839h-5.983v-4.653h-.272q-.887 2.198-2.907 3.596-2.02 1.398-4.968 1.398-2.574 0-4.543-1.15-1.969-1.151-3.077-3.359-1.108-2.207-1.108-5.343v-16.67h6.17v15.715q0 2.489 1.364 3.955 1.364 1.466 3.58 1.466 1.364 0 2.642-.665 1.278-.665 2.105-1.986t.827-3.315zM441.347 839h-6.068v-34.91h6.17v13.058h.256q.477-.955 1.347-2.037.869-1.083 2.352-1.858 1.483-.776 3.784-.776 3.034 0 5.48 1.543 2.446 1.543 3.886 4.551 1.44 3.009 1.44 7.372 0 4.313-1.414 7.33-1.415 3.017-3.852 4.602-2.438 1.585-5.523 1.585-2.25 0-3.733-.75t-2.378-1.815q-.895-1.065-1.389-2.02h-.358V839zm-.017-13.09q0 2.539.724 4.448.725 1.909 2.097 2.974 1.372 1.066 3.332 1.066 2.046 0 3.427-1.1 1.38-1.1 2.088-3.017.707-1.917.707-4.372 0-2.437-.699-4.33-.699-1.891-2.08-2.965-1.38-1.074-3.443-1.074-1.977 0-3.358 1.04-1.38 1.04-2.088 2.914-.707 1.875-.707 4.415zm35.523 13.601q-3.938 0-6.793-1.645-2.855-1.644-4.39-4.67-1.533-3.026-1.533-7.134 0-4.04 1.542-7.099 1.543-3.06 4.321-4.773 2.779-1.713 6.529-1.713 2.42 0 4.577.776 2.156.775 3.818 2.395 1.662 1.619 2.616 4.116.955 2.497.955 5.94v1.893h-21.46v-4.16h15.545q-.017-1.772-.767-3.161-.75-1.39-2.088-2.19-1.338-.802-3.11-.802-1.893 0-3.325.912-1.432.912-2.224 2.386-.793 1.475-.81 3.23v3.631q0 2.284.835 3.912.836 1.628 2.336 2.489 1.5.86 3.511.86 1.347 0 2.437-.383 1.091-.384 1.892-1.134.802-.75 1.21-1.857l5.762.647q-.545 2.284-2.07 3.98-1.526 1.696-3.896 2.625-2.37.93-5.42.93zm16.858-35.42h6.17V839h-6.17v-34.91zm24.102 35.42q-3.938 0-6.793-1.645-2.855-1.644-4.389-4.67-1.534-3.026-1.534-7.134 0-4.04 1.543-7.099 1.542-3.06 4.32-4.773 2.78-1.713 6.53-1.713 2.42 0 4.576.776 2.156.775 3.818 2.395 1.662 1.619 2.616 4.116.955 2.497.955 5.94v1.893h-21.46v-4.16h15.545q-.017-1.772-.767-3.161-.75-1.39-2.088-2.19-1.338-.802-3.11-.802-1.893 0-3.325.912-1.431.912-2.224 2.386-.793 1.475-.81 3.23v3.631q0 2.284.836 3.912.835 1.628 2.335 2.489 1.5.86 3.511.86 1.347 0 2.438-.383 1.09-.384 1.892-1.134.8-.75 1.21-1.857l5.761.647q-.545 2.284-2.07 3.98-1.526 1.696-3.896 2.625-2.369.93-5.42.93zm14.88-26.693h15.052v4.773h-15.051v-4.773zm3.717 19.33v-25.603h6.17v24.58q0 1.244.384 1.9.383.657 1.014.895.63.24 1.397.24.58 0 1.066-.086.486-.085.741-.154l1.04 4.824q-.494.17-1.406.375-.912.205-2.225.239-2.318.068-4.176-.707-1.858-.776-2.94-2.412-1.082-1.637-1.065-4.091zM307.03 76h-6.901V55.636h7.04q3.032 0 5.214 1.218 2.183 1.218 3.356 3.495 1.174 2.277 1.174 5.45 0 3.181-1.179 5.468-1.178 2.287-3.39 3.51Q310.13 76 307.029 76zm-3.213-17.172v13.98h3.033q2.128 0 3.55-.78 1.422-.78 2.138-2.337.716-1.556.716-3.893 0-2.336-.716-3.883-.716-1.546-2.113-2.316-1.397-.77-3.466-.77h-3.142zm23.198 17.47q-2.297 0-3.962-.96-1.666-.959-2.56-2.724-.896-1.765-.896-4.16 0-2.357.9-4.142.9-1.785 2.52-2.784 1.621-1 3.809-1 1.412 0 2.67.453 1.258.452 2.227 1.397.97.944 1.526 2.401.557 1.457.557 3.465v1.104h-12.518v-2.426h9.068q-.01-1.034-.448-1.845-.437-.81-1.218-1.277-.78-.468-1.814-.468-1.104 0-1.94.532-.834.532-1.297 1.392-.462.86-.472 1.885v2.118q0 1.332.487 2.281.487.95 1.362 1.452.875.502 2.049.502.785 0 1.421-.223.637-.224 1.104-.662.468-.437.706-1.083l3.36.377q-.317 1.333-1.207 2.322-.89.99-2.272 1.531-1.382.542-3.162.542zm13.433 5.43h-3.6v-21h3.54v2.525h.21q.278-.557.785-1.188.507-.632 1.372-1.084.865-.453 2.207-.453 1.77 0 3.197.9t2.267 2.655q.84 1.755.84 4.3 0 2.516-.825 4.276-.825 1.76-2.247 2.685-1.422.924-3.222.924-1.312 0-2.177-.437-.865-.438-1.387-1.059t-.81-1.178h-.15v8.133zm-.07-13.364q0 1.481.423 2.595.423 1.113 1.223 1.735.8.621 1.944.621 1.193 0 1.999-.641.805-.641 1.218-1.76.412-1.119.412-2.55 0-1.422-.407-2.526-.408-1.104-1.213-1.73-.806-.626-2.009-.626-1.153 0-1.959.606-.805.607-1.218 1.7-.412 1.094-.412 2.576zm13.96-12.728h3.6V76h-3.6V55.636zM368.3 76.298q-2.237 0-3.878-.984-1.64-.984-2.54-2.754-.9-1.77-.9-4.137 0-2.366.9-4.146.9-1.78 2.54-2.764 1.64-.985 3.878-.985 2.237 0 3.878.985 1.64.984 2.54 2.764.9 1.78.9 4.146 0 2.367-.9 4.137-.9 1.77-2.54 2.754-1.64.984-3.878.984zm.02-2.883q1.213 0 2.028-.671.816-.672 1.218-1.805.403-1.134.403-2.526 0-1.402-.403-2.54-.402-1.139-1.218-1.815-.815-.676-2.028-.676-1.243 0-2.063.676-.82.676-1.223 1.815-.403 1.138-.403 2.54 0 1.392.403 2.526.402 1.133 1.223 1.805.82.67 2.063.67zm12.051 8.282q-.736 0-1.357-.114-.622-.114-.99-.273l.836-2.794q1.173.338 1.973.114.8-.224 1.318-1.487l.308-.825-5.538-15.59h3.818l3.52 11.533h.159l3.53-11.534 3.848.02-6.135 17.102q-.428 1.194-1.134 2.059-.706.865-1.725 1.327-1.02.462-2.431.462zm28.13-5.419q-2.148 0-3.814-.735-1.665-.736-2.63-2.049-.964-1.312-1.024-3.032h3.739q.05.825.546 1.436.498.612 1.323.95.825.338 1.85.338 1.093 0 1.938-.383t1.323-1.069q.477-.686.467-1.58.01-.925-.477-1.631t-1.407-1.104q-.92-.398-2.213-.398h-1.8v-2.843h1.8q1.064 0 1.865-.368.8-.368 1.258-1.04.457-.67.447-1.556.01-.865-.383-1.506t-1.103-1q-.711-.357-1.666-.357-.935 0-1.73.338-.796.338-1.283.96-.487.62-.517 1.476h-3.55q.04-1.71.99-3.008.95-1.297 2.54-2.028 1.591-.731 3.57-.731 2.038 0 3.545.76 1.506.761 2.331 2.044.826 1.283.826 2.834.01 1.72-1.01 2.883-1.019 1.164-2.67 1.522v.159q2.148.298 3.297 1.586 1.148 1.287 1.138 3.196 0 1.71-.97 3.058-.969 1.347-2.664 2.113-1.695.765-3.883.765zM430.025 76h-3.6V60.727h3.49v2.546h.16q.418-1.323 1.437-2.044 1.019-.72 2.331-.72.299 0 .672.024.372.025.621.075v3.311q-.229-.08-.72-.144-.493-.065-.95-.065-.985 0-1.765.423-.78.422-1.228 1.168-.448.746-.448 1.72V76zm13.632.298q-2.297 0-3.962-.96-1.665-.959-2.56-2.724-.895-1.765-.895-4.16 0-2.357.9-4.142.9-1.785 2.52-2.784 1.62-1 3.808-1 1.412 0 2.67.453 1.258.452 2.227 1.397.97.944 1.527 2.401.557 1.457.557 3.465v1.104H437.93v-2.426H447q-.01-1.034-.447-1.845-.438-.81-1.218-1.277-.78-.468-1.815-.468-1.104 0-1.939.532t-1.297 1.392q-.463.86-.473 1.885v2.118q0 1.332.488 2.281.487.95 1.362 1.452.875.502 2.048.502.786 0 1.422-.223.636-.224 1.104-.662.467-.437.706-1.083l3.36.377q-.318 1.333-1.208 2.322-.89.99-2.272 1.531-1.382.542-3.162.542zm13.434 5.43h-3.6v-21h3.54v2.525h.209q.278-.557.785-1.188.507-.632 1.372-1.084.865-.453 2.208-.453 1.77 0 3.197.9 1.426.9 2.267 2.655.84 1.755.84 4.3 0 2.516-.826 4.276-.825 1.76-2.247 2.685-1.422.924-3.221.924-1.313 0-2.178-.437-.865-.438-1.387-1.059t-.81-1.178h-.15v8.133zm-.07-13.364q0 1.481.423 2.595.422 1.113 1.223 1.735.8.621 1.943.621 1.194 0 2-.641.804-.641 1.217-1.76.413-1.119.413-2.55 0-1.422-.408-2.526-.408-1.104-1.213-1.73-.805-.626-2.009-.626-1.153 0-1.958.606-.806.607-1.218 1.7-.413 1.094-.413 2.576zm13.96-12.728h3.6V76h-3.6V55.636zM481.88 76h-3.6V60.727h3.6V76zm-1.79-17.44q-.865 0-1.476-.572-.612-.572-.612-1.377 0-.816.617-1.387.616-.572 1.471-.572.855 0 1.467.572.611.571.611 1.387 0 .805-.611 1.377-.612.572-1.467.572zm12.15 17.738q-2.286 0-3.922-1.004-1.635-1.004-2.515-2.78-.88-1.774-.88-4.09 0-2.327.894-4.112.895-1.785 2.531-2.784 1.636-1 3.873-1 1.86 0 3.296.682 1.437.68 2.292 1.919.855 1.237.974 2.888h-3.44q-.209-1.104-.99-1.844-.78-.741-2.082-.741-1.104 0-1.94.591-.835.592-1.297 1.696-.462 1.103-.462 2.645 0 1.56.457 2.68.457 1.118 1.288 1.72.83.601 1.954.601.795 0 1.426-.303.632-.303 1.06-.88.427-.577.586-1.402h3.44q-.129 1.62-.954 2.868-.825 1.248-2.247 1.95-1.422.7-3.341.7zm13.901.01q-1.451 0-2.61-.522-1.158-.522-1.83-1.546-.67-1.024-.67-2.526 0-1.292.477-2.137t1.302-1.353q.826-.507 1.865-.77 1.039-.264 2.152-.383 1.343-.14 2.178-.254.835-.114 1.218-.357.383-.244.383-.761v-.06q0-1.123-.666-1.74-.667-.616-1.92-.616-1.322 0-2.092.576-.771.577-1.04 1.363l-3.36-.478q.397-1.392 1.312-2.331.915-.94 2.237-1.412 1.323-.473 2.924-.473 1.103 0 2.197.259 1.094.258 1.999.85t1.456 1.606q.552 1.014.552 2.535V76h-3.46v-2.098h-.12q-.327.636-.92 1.188-.59.552-1.48.885-.89.333-2.084.333zm.935-2.645q1.084 0 1.88-.432.795-.433 1.227-1.149.433-.716.433-1.56v-1.8q-.17.139-.572.258-.403.12-.9.209-.497.09-.984.159l-.845.12q-.806.109-1.442.357-.637.249-1.004.691-.368.443-.368 1.139 0 .994.726 1.501.725.507 1.849.507zm22.83-8.899l-3.282.358q-.139-.497-.482-.934-.343-.438-.92-.706-.576-.269-1.412-.269-1.123 0-1.884.487-.76.487-.75 1.263-.01.666.492 1.084.502.417 1.665.686l2.605.557q2.168.467 3.227 1.481 1.059 1.015 1.069 2.655-.01 1.442-.84 2.54-.83 1.1-2.302 1.716-1.472.616-3.381.616-2.804 0-4.514-1.178-1.71-1.178-2.039-3.286l3.51-.338q.239 1.034 1.014 1.56.776.528 2.019.528 1.283 0 2.063-.527.78-.527.78-1.303 0-.656-.501-1.084-.503-.427-1.557-.656l-2.605-.547q-2.197-.457-3.251-1.546-1.054-1.089-1.044-2.76-.01-1.411.77-2.45.781-1.04 2.178-1.61 1.397-.573 3.227-.573 2.684 0 4.23 1.144 1.547 1.143 1.915 3.092zm4.345 8.452h3.182l-.13 1.094q-.139 1.252-.492 2.55-.353 1.298-.74 2.391-.389 1.094-.627 1.72h-2.426q.139-.606.383-1.65.243-1.044.472-2.347.229-1.302.308-2.644l.07-1.114zm17.132 8.511h-3.6v-21h3.54v2.526h.209q.278-.557.785-1.188.508-.632 1.373-1.084.865-.453 2.207-.453 1.77 0 3.197.9t2.267 2.655q.84 1.755.84 4.3 0 2.516-.825 4.276-.826 1.76-2.247 2.685-1.422.924-3.222.924-1.313 0-2.178-.437-.865-.438-1.387-1.059t-.81-1.178h-.15v8.133zm-.07-13.363q0 1.481.423 2.595.422 1.113 1.223 1.735.8.621 1.944.621 1.193 0 1.998-.641.806-.641 1.218-1.76.413-1.119.413-2.55 0-1.422-.408-2.526-.407-1.104-1.213-1.73-.805-.626-2.008-.626-1.154 0-1.96.606-.805.607-1.217 1.7-.413 1.094-.413 2.576zm13.96-12.728h3.6V76h-3.6V55.636zm14.06 20.662q-2.297 0-3.962-.96-1.666-.959-2.56-2.724-.896-1.765-.896-4.16 0-2.357.9-4.142.9-1.785 2.52-2.784 1.622-1 3.81-1 1.411 0 2.669.453 1.258.452 2.227 1.397.97.944 1.526 2.401.557 1.457.557 3.465v1.104h-12.518v-2.426h9.068q-.01-1.034-.447-1.845-.438-.81-1.219-1.277-.78-.468-1.814-.468-1.104 0-1.94.532-.834.532-1.297 1.392-.462.86-.472 1.885v2.118q0 1.332.487 2.281.487.95 1.362 1.452.875.502 2.049.502.785 0 1.422-.223.636-.224 1.103-.662.468-.437.706-1.083l3.361.377q-.318 1.333-1.208 2.322-.89.99-2.272 1.531-1.382.542-3.162.542zm14.229.01q-1.452 0-2.61-.522-1.159-.522-1.83-1.546t-.671-2.526q0-1.292.477-2.137.478-.845 1.303-1.353.825-.507 1.864-.77 1.04-.264 2.153-.383 1.342-.14 2.177-.254.836-.114 1.218-.357.383-.244.383-.761v-.06q0-1.123-.666-1.74-.666-.616-1.919-.616-1.322 0-2.093.576-.77.577-1.04 1.363l-3.36-.478q.398-1.392 1.313-2.331.914-.94 2.237-1.412 1.322-.473 2.923-.473 1.104 0 2.198.259 1.093.258 1.998.85t1.457 1.606q.552 1.014.552 2.535V76h-3.46v-2.098h-.12q-.328.636-.92 1.188-.591.552-1.481.885-.89.333-2.083.333zm.934-2.645q1.084 0 1.88-.432.795-.433 1.228-1.149.432-.716.432-1.56v-1.8q-.169.139-.572.258-.402.12-.9.209-.497.09-.984.159l-.845.12q-.805.109-1.442.357-.636.249-1.004.691-.368.443-.368 1.139 0 .994.726 1.501.726.507 1.85.507zm22.83-8.899l-3.281.358q-.14-.497-.483-.934-.343-.438-.92-.706-.576-.269-1.411-.269-1.124 0-1.884.487-.761.487-.751 1.263-.01.666.492 1.084.502.417 1.666.686l2.605.557q2.167.467 3.226 1.481 1.06 1.015 1.07 2.655-.01 1.442-.841 2.54-.83 1.1-2.302 1.716-1.472.616-3.38.616-2.805 0-4.515-1.178-1.71-1.178-2.038-3.286l3.51-.338q.238 1.034 1.014 1.56.776.528 2.018.528 1.283 0 2.064-.527.78-.527.78-1.303 0-.656-.502-1.084-.502-.427-1.556-.656l-2.605-.547q-2.198-.457-3.252-1.546-1.054-1.089-1.044-2.76-.01-1.411.771-2.45.78-1.04 2.178-1.61 1.397-.573 3.226-.573 2.685 0 4.23 1.144 1.547 1.143 1.915 3.092zm10.062 11.534q-2.296 0-3.962-.96-1.665-.959-2.56-2.724-.895-1.765-.895-4.16 0-2.357.9-4.142.9-1.785 2.52-2.784 1.621-1 3.809-1 1.411 0 2.67.453 1.257.452 2.227 1.397.969.944 1.526 2.401.557 1.457.557 3.465v1.104h-12.52v-2.426h9.068q-.01-1.034-.447-1.845-.438-.81-1.218-1.277-.78-.468-1.815-.468-1.103 0-1.939.532-.835.532-1.297 1.392-.463.86-.473 1.885v2.118q0 1.332.488 2.281.487.95 1.362 1.452.875.502 2.048.502.786 0 1.422-.223.636-.224 1.104-.662.467-.437.706-1.083l3.36.377q-.318 1.333-1.208 2.322-.89.99-2.272 1.531-1.382.542-3.162.542z" fill="#000" fill-rule="nonzero"></path><g transform="translate(872.000000, 322.000000)"><g transform="translate(0.000000, 27.000000)" fill-rule="nonzero"><path fill="#FFF" d="M3 3h36.763L56 19.076V77H3z"></path><path fill="#D8D8D8" d="M38.567 1.734v17.877h18.008z"></path><path d="M39.2 0H0v79.66h58.64V19.02L39.2 0zm.89 5.07l13.37 13.08H40.09V5.06v.01zM3 76.66V3h34.09v18.15h18.55v55.51H3z" fill="#000"></path><path fill="#000" d="M23.16 27.86h26.79v3H23.16zm-10.39 1.6l-3.04-3.05-2.12 2.12 5.16 5.17 7.24-7.24-2.12-2.13zM23.16 41.8h26.79v3H23.16zm-10.39 2.25L9.73 41l-2.12 2.12 5.16 5.17 7.24-7.25-2.12-2.12zm10.39 11.7h26.79v3H23.16zm-10.39 2.88l-3.04-3.04-2.12 2.12 5.16 5.17 7.24-7.25-2.12-2.12z"></path></g><path d="M3.052 15H1.076V4.09h4.09q1.258 0 2.113.47.855.468 1.294 1.286.44.818.44 1.856 0 1.05-.442 1.865t-1.305 1.28q-.863.467-2.126.467H2.43V9.689h2.445q.735 0 1.204-.255.469-.256.695-.704Q7 8.283 7 7.702q0-.58-.226-1.022-.226-.442-.698-.69-.471-.248-1.212-.248h-1.81V15zm10.555.16q-1.198 0-2.077-.528-.879-.527-1.36-1.475-.483-.948-.483-2.216 0-1.268.482-2.221.482-.954 1.361-1.481.879-.527 2.077-.527 1.199 0 2.078.527.879.527 1.36 1.48.483.954.483 2.222t-.482 2.216q-.482.948-1.361 1.475-.879.528-2.078.528zm.011-1.545q.65 0 1.087-.36.437-.359.652-.966.216-.608.216-1.353 0-.751-.216-1.361-.215-.61-.652-.972-.437-.363-1.087-.363-.666 0-1.105.363-.44.362-.655.972-.216.61-.216 1.36 0 .746.216 1.354.215.607.655.967.44.36 1.105.36zm8.09 1.529q-.965 0-1.727-.496-.761-.495-1.204-1.438-.442-.943-.442-2.29 0-1.364.45-2.304.45-.94 1.218-1.422.767-.482 1.71-.482.719 0 1.182.242.463.242.735.58.272.339.42.637h.08v-4.08h1.934V15h-1.896v-1.29h-.117q-.15.3-.432.632-.282.333-.745.567-.464.235-1.167.235zm.537-1.582q.613 0 1.044-.333.432-.333.655-.93.224-.596.224-1.39 0-.794-.221-1.38-.221-.585-.65-.91-.429-.325-1.052-.325-.644 0-1.076.335-.431.336-.65.927-.218.591-.218 1.353 0 .767.22 1.366.222.6.656.943.434.344 1.068.344z" fill="#000" fill-rule="nonzero"></path></g></g></svg>