<svg viewBox="0 0 1200 900" xmlns="http://www.w3.org/2000/svg"><g fill="none" fill-rule="evenodd"><path fill="#FBFBFB" d="M117.34 460.91h1002v58.1h-1002zm0-116.2h1002v58.1h-1002zm0-116.2h1002v58.1h-1002z"></path><path fill="#EFDCBD" d="M153.86 187.01h3.32v87.98h-3.32zm485.55 0h3.32v257.715h-3.32zm253.15-16.6h3.32v337.81h-3.32zm187.58 4.98h3.32V513.2h-3.32z"></path><g transform="translate(153.859998, 231.829998)"><rect fill="#B7E7EB" width="190.9" height="51.46" rx="4.15"></rect><path d="M42.815 14.949L37.773 29.98h-3.656l6.657-18.91h4.229l6.666 18.91h-3.656l-5.05-15.031h-.148zm-4.922 10.368v-2.751h9.972v2.751h-9.972zm18.865 4.663h-3.425V11.07h7.09q2.18 0 3.662.813 1.481.813 2.243 2.23.762 1.417.762 3.218 0 1.819-.766 3.231-.767 1.413-2.262 2.22-1.496.809-3.684.809h-4.7v-2.816h4.238q1.274 0 2.087-.443.812-.444 1.204-1.22.393-.775.393-1.781 0-1.007-.393-1.773-.392-.766-1.21-1.196-.816-.429-2.1-.429h-3.139V29.98zm12.476-18.91h3.425v18.91h-3.425V11.07zm23.003 8.477l-3.047.332q-.129-.462-.448-.868-.318-.406-.854-.655-.535-.25-1.31-.25-1.044 0-1.75.453-.707.452-.697 1.172-.01.619.457 1.007.466.388 1.546.637l2.42.517q2.012.434 2.995 1.376.984.941.993 2.465-.01 1.339-.78 2.359-.771 1.02-2.138 1.593-1.366.572-3.139.572-2.604 0-4.192-1.094t-1.892-3.052l3.259-.314q.221.96.942 1.45.72.49 1.874.49 1.19 0 1.916-.49.724-.49.724-1.21 0-.609-.466-1.006t-1.445-.61l-2.419-.507q-2.04-.425-3.019-1.436-.979-1.01-.97-2.562-.009-1.311.716-2.276.725-.965 2.022-1.496 1.297-.53 2.996-.53 2.493 0 3.929 1.061 1.436 1.062 1.777 2.872zm8.515 10.71q-2.133 0-3.68-.891-1.546-.891-2.377-2.53-.83-1.639-.83-3.864 0-2.188.835-3.845.835-1.658 2.34-2.586 1.505-.927 3.536-.927 1.312 0 2.48.42 1.167.42 2.068 1.297.9.877 1.417 2.23.517 1.352.517 3.217v1.025H95.434V21.55h8.42q-.01-.96-.415-1.712-.407-.753-1.131-1.187-.725-.434-1.685-.434-1.025 0-1.8.494-.776.494-1.206 1.293-.429.798-.438 1.75v1.966q0 1.237.452 2.119.453.882 1.265 1.348.813.466 1.902.466.73 0 1.32-.207.591-.208 1.025-.614.434-.407.656-1.007l3.12.351q-.295 1.237-1.121 2.156-.827.919-2.11 1.422-1.283.503-2.936.503zm11.645-.277h-3.343V15.798h3.241v2.364h.148q.388-1.228 1.334-1.898.946-.669 2.165-.669.277 0 .623.023.347.023.577.07v3.074q-.212-.074-.669-.134-.457-.06-.882-.06-.914 0-1.639.392-.724.393-1.14 1.085-.415.693-.415 1.598v8.337zm15.698-14.182h3.554L126.6 29.98h-3.693l-5.05-14.182h3.563l3.26 10.535h.147l3.269-10.535zm10.823 14.459q-2.133 0-3.68-.891-1.546-.891-2.377-2.53-.831-1.639-.831-3.864 0-2.188.835-3.845.836-1.658 2.341-2.586 1.505-.927 3.536-.927 1.311 0 2.48.42 1.167.42 2.067 1.297.9.877 1.418 2.23.517 1.352.517 3.217v1.025h-11.625V21.55h8.42q-.008-.96-.415-1.712-.406-.753-1.13-1.187-.725-.434-1.686-.434-1.025 0-1.8.494-.776.494-1.205 1.293-.43.798-.439 1.75v1.966q0 1.237.453 2.119.452.882 1.265 1.348.812.466 1.902.466.73 0 1.32-.207.591-.208 1.025-.614.434-.407.655-1.007l3.121.351q-.295 1.237-1.122 2.156-.826.919-2.11 1.422-1.283.503-2.935.503zm11.644-.277h-3.342V15.798h3.24v2.364h.148q.388-1.228 1.335-1.898.946-.669 2.165-.669.277 0 .623.023t.577.07v3.074q-.212-.074-.67-.134-.456-.06-.881-.06-.914 0-1.639.392-.725.393-1.14 1.085-.416.693-.416 1.598v8.337z" fill="#0D2D30" fill-rule="nonzero"></path></g><g transform="translate(344.759994, 289.929997)"><rect fill="#B7E7EB" width="115.37" height="51.46" rx="4.15"></rect><path d="M19.734 22.778l-2.567 2.752-.009-4.035h.535l5.097-5.697h3.906l-6.27 6.98h-.692zm-2.271 7.202H14.12V11.07h3.343v18.91zm9.556 0H23.02l-4.617-6.454 2.253-2.354 6.362 8.808zm10.103-5.964v-8.218h3.342V29.98h-3.24v-2.52h-.149q-.48 1.19-1.574 1.948-1.094.757-2.691.757-1.394 0-2.46-.624-1.067-.623-1.667-1.818-.6-1.196-.6-2.895v-9.03h3.342v8.513q0 1.348.738 2.142.74.794 1.94.794.738 0 1.43-.36.693-.36 1.14-1.076.449-.715.449-1.795zm9.382 5.964h-3.287V11.07h3.343v7.073h.138q.259-.517.73-1.103.47-.586 1.274-1.006.803-.42 2.05-.42 1.643 0 2.968.835 1.325.836 2.105 2.465.78 1.63.78 3.994 0 2.335-.766 3.97-.767 1.634-2.087 2.493-1.32.858-2.991.858-1.22 0-2.022-.406-.804-.406-1.288-.983-.485-.577-.753-1.094h-.194v2.234zm-.009-7.09q0 1.375.392 2.409.393 1.034 1.136 1.611.743.577 1.805.577 1.108 0 1.856-.595.748-.596 1.131-1.635.383-1.038.383-2.368 0-1.32-.378-2.345-.379-1.025-1.127-1.607-.748-.581-1.865-.581-1.07 0-1.819.563-.748.563-1.13 1.579-.384 1.015-.384 2.391zm18.412 7.367q-2.132 0-3.679-.891-1.546-.891-2.377-2.53-.831-1.639-.831-3.864 0-2.188.835-3.845.836-1.658 2.34-2.586 1.506-.927 3.537-.927 1.311 0 2.48.42 1.167.42 2.067 1.297.9.877 1.418 2.23.517 1.352.517 3.217v1.025H59.589V21.55h8.42q-.008-.96-.415-1.712-.406-.753-1.13-1.187-.726-.434-1.686-.434-1.025 0-1.8.494-.776.494-1.205 1.293-.43.798-.439 1.75v1.966q0 1.237.453 2.119.452.882 1.265 1.348.812.466 1.902.466.729 0 1.32-.207.59-.208 1.025-.614.434-.407.655-1.007l3.121.351q-.295 1.237-1.122 2.156-.826.919-2.11 1.422-1.283.503-2.936.503zm8.303-19.186h3.342V29.98H73.21V11.07zm12.226 19.186q-2.133 0-3.68-.891-1.546-.891-2.377-2.53-.83-1.639-.83-3.864 0-2.188.835-3.845.836-1.658 2.34-2.586 1.506-.927 3.537-.927 1.31 0 2.479.42 1.168.42 2.068 1.297.9.877 1.417 2.23.517 1.352.517 3.217v1.025H80.118V21.55h8.42q-.009-.96-.415-1.712-.406-.753-1.131-1.187-.725-.434-1.685-.434-1.025 0-1.8.494-.776.494-1.205 1.293-.43.798-.439 1.75v1.966q0 1.237.453 2.119.452.882 1.264 1.348.813.466 1.902.466.73 0 1.32-.207.592-.208 1.026-.614.434-.407.655-1.007l3.12.351q-.295 1.237-1.12 2.156-.827.919-2.11 1.422-1.284.503-2.937.503zm7.232-14.459h8.152v2.585h-8.152v-2.585zm2.012 10.47V12.4h3.343v13.314q0 .674.207 1.03.208.355.55.485.341.129.757.129.314 0 .577-.046.263-.046.402-.083l.563 2.613q-.268.092-.762.203-.494.11-1.205.129-1.255.037-2.262-.383-1.006-.42-1.593-1.307-.586-.886-.577-2.216z" fill="#0D2D30" fill-rule="nonzero"></path></g><g transform="translate(892.559983, 463.399994)"><rect fill="#B7E7EB" width="190.9" height="51.46" rx="4.15"></rect><path d="M42.815 14.949L37.773 29.98h-3.656l6.657-18.91h4.229l6.666 18.91h-3.656l-5.05-15.031h-.148zm-4.922 10.368v-2.751h9.972v2.751h-9.972zm18.865 4.663h-3.425V11.07h7.09q2.18 0 3.662.813 1.481.813 2.243 2.23.762 1.417.762 3.218 0 1.819-.766 3.231-.767 1.413-2.262 2.22-1.496.809-3.684.809h-4.7v-2.816h4.238q1.274 0 2.087-.443.812-.444 1.204-1.22.393-.775.393-1.781 0-1.007-.393-1.773-.392-.766-1.21-1.196-.816-.429-2.1-.429h-3.139V29.98zm12.476-18.91h3.425v18.91h-3.425V11.07zm23.003 8.477l-3.047.332q-.129-.462-.448-.868-.318-.406-.854-.655-.535-.25-1.31-.25-1.044 0-1.75.453-.707.452-.697 1.172-.01.619.457 1.007.466.388 1.546.637l2.42.517q2.012.434 2.995 1.376.984.941.993 2.465-.01 1.339-.78 2.359-.771 1.02-2.138 1.593-1.366.572-3.139.572-2.604 0-4.192-1.094t-1.892-3.052l3.259-.314q.221.96.942 1.45.72.49 1.874.49 1.19 0 1.916-.49.724-.49.724-1.21 0-.609-.466-1.006t-1.445-.61l-2.419-.507q-2.04-.425-3.019-1.436-.979-1.01-.97-2.562-.009-1.311.716-2.276.725-.965 2.022-1.496 1.297-.53 2.996-.53 2.493 0 3.929 1.061 1.436 1.062 1.777 2.872zm8.515 10.71q-2.133 0-3.68-.891-1.546-.891-2.377-2.53-.83-1.639-.83-3.864 0-2.188.835-3.845.835-1.658 2.34-2.586 1.505-.927 3.536-.927 1.312 0 2.48.42 1.167.42 2.068 1.297.9.877 1.417 2.23.517 1.352.517 3.217v1.025H95.434V21.55h8.42q-.01-.96-.415-1.712-.407-.753-1.131-1.187-.725-.434-1.685-.434-1.025 0-1.8.494-.776.494-1.206 1.293-.429.798-.438 1.75v1.966q0 1.237.452 2.119.453.882 1.265 1.348.813.466 1.902.466.73 0 1.32-.207.591-.208 1.025-.614.434-.407.656-1.007l3.12.351q-.295 1.237-1.121 2.156-.827.919-2.11 1.422-1.283.503-2.936.503zm11.645-.277h-3.343V15.798h3.241v2.364h.148q.388-1.228 1.334-1.898.946-.669 2.165-.669.277 0 .623.023.347.023.577.07v3.074q-.212-.074-.669-.134-.457-.06-.882-.06-.914 0-1.639.392-.724.393-1.14 1.085-.415.693-.415 1.598v8.337zm15.698-14.182h3.554L126.6 29.98h-3.693l-5.05-14.182h3.563l3.26 10.535h.147l3.269-10.535zm10.823 14.459q-2.133 0-3.68-.891-1.546-.891-2.377-2.53-.831-1.639-.831-3.864 0-2.188.835-3.845.836-1.658 2.341-2.586 1.505-.927 3.536-.927 1.311 0 2.48.42 1.167.42 2.067 1.297.9.877 1.418 2.23.517 1.352.517 3.217v1.025h-11.625V21.55h8.42q-.008-.96-.415-1.712-.406-.753-1.13-1.187-.725-.434-1.686-.434-1.025 0-1.8.494-.776.494-1.205 1.293-.43.798-.439 1.75v1.966q0 1.237.453 2.119.452.882 1.265 1.348.812.466 1.902.466.73 0 1.32-.207.591-.208 1.025-.614.434-.407.655-1.007l3.121.351q-.295 1.237-1.122 2.156-.826.919-2.11 1.422-1.283.503-2.935.503zm11.644-.277h-3.342V15.798h3.24v2.364h.148q.388-1.228 1.335-1.898.946-.669 2.165-.669.277 0 .623.023t.577.07v3.074q-.212-.074-.67-.134-.456-.06-.881-.06-.914 0-1.639.392-.725.393-1.14 1.085-.416.693-.416 1.598v8.337z" fill="#0D2D30" fill-rule="nonzero"></path></g><g transform="translate(460.129991, 348.029996)"><rect fill="#B7E7EB" width="179.28" height="51.46" rx="4.15"></rect><path d="M15.361 29.98h-3.425V11.07h7.091q2.179 0 3.66.813 1.483.813 2.244 2.23.762 1.417.762 3.218 0 1.819-.766 3.231-.767 1.413-2.262 2.22-1.496.809-3.684.809h-4.7v-2.816h4.238q1.274 0 2.087-.443.812-.444 1.205-1.22.392-.775.392-1.781 0-1.007-.392-1.773-.393-.766-1.21-1.196-.817-.429-2.1-.429h-3.14V29.98zm15.67 0H27.69V15.798h3.241v2.364h.148q.388-1.228 1.334-1.898.946-.669 2.165-.669.277 0 .623.023.347.023.578.07v3.074q-.213-.074-.67-.134-.457-.06-.882-.06-.914 0-1.638.392-.725.393-1.14 1.085-.416.693-.416 1.598v8.337zm11.83.277q-2.133 0-3.68-.891-1.546-.891-2.377-2.53-.83-1.639-.83-3.864 0-2.188.835-3.845.836-1.658 2.34-2.586 1.505-.927 3.537-.927 1.31 0 2.479.42 1.168.42 2.068 1.297.9.877 1.417 2.23.517 1.352.517 3.217v1.025H37.543V21.55h8.42q-.009-.96-.415-1.712-.406-.753-1.131-1.187-.725-.434-1.685-.434-1.025 0-1.8.494-.776.494-1.205 1.293-.43.798-.439 1.75v1.966q0 1.237.452 2.119.453.882 1.265 1.348.813.466 1.902.466.73 0 1.32-.207.592-.208 1.025-.614.434-.407.656-1.007l3.12.351q-.295 1.237-1.121 2.156-.826.919-2.11 1.422-1.283.503-2.936.503zm19.511-10.71l-3.047.332q-.129-.462-.447-.868-.319-.406-.854-.655-.536-.25-1.311-.25-1.044 0-1.75.453-.706.452-.697 1.172-.01.619.457 1.007.466.388 1.546.637l2.42.517q2.012.434 2.995 1.376.984.941.993 2.465-.01 1.339-.78 2.359-.771 1.02-2.138 1.593-1.366.572-3.139.572-2.603 0-4.192-1.094-1.588-1.094-1.892-3.052l3.259-.314q.222.96.942 1.45t1.874.49q1.191 0 1.916-.49.725-.49.725-1.21 0-.609-.467-1.006-.466-.397-1.445-.61l-2.419-.507q-2.04-.425-3.019-1.436-.979-1.01-.97-2.562-.009-1.311.716-2.276.725-.965 2.022-1.496 1.298-.53 2.996-.53 2.493 0 3.929 1.061 1.436 1.062 1.777 2.872zm1.166-3.749h8.152v2.585h-8.152v-2.585zm2.012 10.47V12.4h3.343v13.314q0 .674.208 1.03.207.355.549.485.342.129.757.129.314 0 .577-.046.263-.046.402-.083l.563 2.613q-.268.092-.762.203-.494.11-1.205.129-1.255.037-2.262-.383-1.006-.42-1.592-1.307-.587-.886-.578-2.216zm14.147 3.989q-2.077 0-3.6-.914-1.524-.914-2.36-2.558-.835-1.643-.835-3.84 0-2.198.835-3.85.836-1.653 2.36-2.567 1.523-.914 3.6-.914 2.078 0 3.601.914 1.524.914 2.36 2.566.835 1.653.835 3.85 0 2.198-.836 3.841-.835 1.644-2.359 2.558-1.523.914-3.6.914zm.019-2.678q1.126 0 1.883-.623.757-.623 1.131-1.676.374-1.052.374-2.345 0-1.302-.374-2.359t-1.13-1.685q-.758-.628-1.884-.628-1.154 0-1.916.628t-1.136 1.685q-.374 1.057-.374 2.36 0 1.292.374 2.344.374 1.053 1.136 1.676.762.623 1.916.623zM91.83 35.3h-3.34V15.8h3.287v2.344h.194q.258-.517.73-1.103.47-.586 1.273-1.006.804-.42 2.05-.42 1.644 0 2.969.835 1.324.836 2.105 2.465.78 1.63.78 3.994 0 2.335-.767 3.97-.766 1.634-2.086 2.493-1.32.858-2.992.858-1.218 0-2.022-.406-.803-.406-1.288-.983-.484-.577-.752-1.094h-.139v7.552zm-.064-12.41q0 1.376.392 2.41.393 1.034 1.136 1.611.743.577 1.805.577 1.108 0 1.856-.595.748-.596 1.13-1.635.384-1.038.384-2.368 0-1.32-.379-2.345-.378-1.025-1.126-1.607-.748-.581-1.865-.581-1.071 0-1.82.563-.747.563-1.13 1.579-.383 1.015-.383 2.391zm21.101-1.219v8.31h-3.342V11.07h3.268v7.138h.166q.499-1.2 1.547-1.897 1.048-.697 2.673-.697 1.477 0 2.576.618 1.098.619 1.703 1.81.605 1.19.605 2.908v9.03h-3.342v-8.513q0-1.43-.734-2.23-.734-.798-2.055-.798-.886 0-1.583.383t-1.09 1.103q-.392.72-.392 1.745zm17.95 8.587q-2.077 0-3.6-.914-1.523-.914-2.36-2.558-.835-1.643-.835-3.84 0-2.198.836-3.85.836-1.653 2.359-2.567 1.523-.914 3.6-.914 2.078 0 3.602.914 1.523.914 2.359 2.566.835 1.653.835 3.85 0 2.198-.835 3.841-.836 1.644-2.36 2.558-1.523.914-3.6.914zm.02-2.678q1.126 0 1.883-.623.757-.623 1.13-1.676.375-1.052.375-2.345 0-1.302-.374-2.359t-1.131-1.685q-.757-.628-1.884-.628-1.154 0-1.916.628-.761.628-1.135 1.685t-.374 2.36q0 1.292.374 2.344.374 1.053 1.135 1.676.762.623 1.916.623zm14.959 2.678q-2.078 0-3.601-.914-1.524-.914-2.36-2.558-.835-1.643-.835-3.84 0-2.198.836-3.85.835-1.653 2.359-2.567 1.523-.914 3.6-.914 2.078 0 3.601.914 1.524.914 2.36 2.566.835 1.653.835 3.85 0 2.198-.836 3.841-.835 1.644-2.359 2.558-1.523.914-3.6.914zm.018-2.678q1.127 0 1.884-.623.757-.623 1.13-1.676.375-1.052.375-2.345 0-1.302-.374-2.359t-1.131-1.685q-.757-.628-1.884-.628-1.154 0-1.916.628-.761.628-1.135 1.685t-.374 2.36q0 1.292.374 2.344.374 1.053 1.135 1.676.762.623 1.916.623zm14.387-4.8l-2.567 2.75-.009-4.034h.536l5.096-5.697h3.906l-6.27 6.98h-.692zm-2.271 7.201h-3.343V11.07h3.343v18.91zm9.556 0h-3.998l-4.617-6.454 2.253-2.354 6.362 8.808z" fill="#0D2D30" fill-rule="nonzero"></path></g><g transform="translate(639.409988, 405.299995)"><rect fill="#B7E7EB" width="256.47" height="51.46" rx="4.15"></rect><path d="M31.675 17.11h-3.49q-.231-.749-.633-1.344-.401-.596-.96-1.02-.559-.425-1.279-.642-.72-.217-1.57-.217-1.523 0-2.714.766-1.19.767-1.87 2.249-.678 1.481-.678 3.605 0 2.142.674 3.629.674 1.486 1.874 2.257 1.2.77 2.788.77 1.44 0 2.498-.553 1.057-.554 1.63-1.574.572-1.02.572-2.396l.776.12h-5.134v-2.678h7.673v2.272q0 2.428-1.034 4.2-1.034 1.773-2.844 2.729-1.81.956-4.155.956-2.613 0-4.584-1.178-1.971-1.177-3.075-3.351-1.103-2.175-1.103-5.166 0-2.29.65-4.09.652-1.8 1.824-3.061 1.173-1.26 2.752-1.92 1.579-.66 3.434-.66 1.57 0 2.927.456 1.358.457 2.415 1.298 1.057.84 1.74 1.994t.896 2.548zm5.837 12.87H34.17V15.798h3.24v2.364h.148q.388-1.228 1.334-1.898.947-.669 2.165-.669.277 0 .624.023.346.023.577.07v3.074q-.213-.074-.67-.134-.457-.06-.881-.06-.915 0-1.64.392-.724.393-1.14 1.085-.415.693-.415 1.598v8.337zm9.955.286q-1.348 0-2.424-.485-1.075-.484-1.699-1.435-.623-.951-.623-2.345 0-1.2.443-1.985.444-.785 1.21-1.256t1.731-.716q.965-.244 2-.355 1.246-.13 2.021-.236.776-.106 1.131-.332.356-.226.356-.706v-.056q0-1.043-.619-1.616-.619-.572-1.782-.572-1.228 0-1.943.536-.716.535-.965 1.264l-3.121-.443q.37-1.292 1.219-2.165.85-.872 2.077-1.31 1.228-.44 2.715-.44 1.024 0 2.04.24t1.856.79q.84.55 1.353 1.491.512.942.512 2.355v9.491h-3.213v-1.948h-.11q-.306.59-.855 1.103-.55.513-1.376.822-.826.31-1.934.31zm.868-2.456q1.006 0 1.745-.401.739-.402 1.14-1.067.402-.665.402-1.45v-1.67q-.157.129-.531.24-.374.11-.836.193-.461.084-.914.148-.452.065-.785.11-.747.103-1.338.333-.591.231-.933.642-.341.41-.341 1.057 0 .923.674 1.394.674.471 1.717.471zm15.347 2.447q-2.124 0-3.642-.933-1.52-.932-2.336-2.58-.817-1.648-.817-3.8 0-2.16.83-3.817.832-1.658 2.35-2.586 1.52-.927 3.597-.927 1.726 0 3.06.632t2.129 1.782q.794 1.15.904 2.682h-3.194q-.194-1.025-.919-1.713-.725-.687-1.934-.687-1.025 0-1.8.549-.776.55-1.206 1.574-.429 1.025-.429 2.456 0 1.45.425 2.488.425 1.04 1.195 1.598.771.558 1.815.558.738 0 1.325-.281.586-.282.983-.817.397-.536.545-1.302h3.194q-.12 1.505-.886 2.663-.766 1.16-2.087 1.81-1.32.651-3.102.651zm14.276 0q-2.133 0-3.68-.891-1.546-.891-2.377-2.53-.83-1.639-.83-3.864 0-2.188.835-3.845.836-1.658 2.34-2.586 1.505-.927 3.537-.927 1.31 0 2.479.42 1.168.42 2.068 1.297.9.877 1.417 2.23.517 1.352.517 3.217v1.025H72.64V21.55h8.42q-.009-.96-.415-1.712-.406-.753-1.131-1.187-.725-.434-1.685-.434-1.025 0-1.8.494-.776.494-1.205 1.293-.43.798-.439 1.75v1.966q0 1.237.452 2.119.453.882 1.265 1.348.813.466 1.902.466.73 0 1.32-.207.592-.208 1.025-.614.434-.407.656-1.007l3.12.351q-.295 1.237-1.121 2.156-.826.919-2.11 1.422-1.283.503-2.936.503zm7.102-14.459h8.384v2.585H85.06v-2.585zm5.448 14.182h-3.352V14.46q0-1.432.596-2.383.595-.95 1.602-1.422 1.006-.47 2.234-.47.868 0 1.542.138.674.139.997.25l-.665 2.585q-.212-.065-.535-.134-.323-.07-.72-.07-.933 0-1.316.448t-.383 1.279V29.98zm13.768-5.964v-8.218h3.342V29.98h-3.24v-2.52h-.148q-.48 1.19-1.574 1.948-1.094.757-2.692.757-1.394 0-2.46-.624-1.067-.623-1.667-1.818-.6-1.196-.6-2.895v-9.03h3.342v8.513q0 1.348.739 2.142.739.794 1.939.794.738 0 1.43-.36.693-.36 1.141-1.076.448-.715.448-1.795zm5.948-12.945h3.342V29.98h-3.342V11.07zm22.782 8.476l-3.047.332q-.13-.462-.448-.868-.319-.406-.854-.655-.536-.25-1.311-.25-1.043 0-1.75.453-.706.452-.697 1.172-.01.619.457 1.007.466.388 1.547.637l2.419.517q2.012.434 2.996 1.376.983.941.992 2.465-.009 1.339-.78 2.359-.77 1.02-2.137 1.593-1.367.572-3.14.572-2.603 0-4.191-1.094-1.588-1.094-1.893-3.052l3.26-.314q.22.96.941 1.45.72.49 1.874.49 1.191 0 1.916-.49.725-.49.725-1.21 0-.609-.466-1.006-.467-.397-1.445-.61l-2.42-.507q-2.04-.425-3.019-1.436-.978-1.01-.969-2.562-.01-1.311.716-2.276.724-.965 2.022-1.496 1.297-.53 2.996-.53 2.493 0 3.928 1.061 1.436 1.062 1.778 2.872zm5.578 2.123v8.31h-3.342V11.07h3.268v7.138h.167q.498-1.2 1.546-1.897 1.048-.697 2.673-.697 1.477 0 2.576.618 1.099.619 1.704 1.81.604 1.19.604 2.908v9.03h-3.342v-8.513q0-1.43-.734-2.23-.734-.798-2.054-.798-.887 0-1.584.383-.697.383-1.09 1.103-.392.72-.392 1.745zm20.804 2.346v-8.218h3.342V29.98h-3.24v-2.52h-.148q-.48 1.19-1.574 1.948-1.094.757-2.692.757-1.394 0-2.46-.624-1.067-.623-1.667-1.818-.6-1.196-.6-2.895v-9.03h3.342v8.513q0 1.348.739 2.142.739.794 1.939.794.739 0 1.431-.36.693-.36 1.14-1.076.448-.715.448-1.795zm4.877-8.218h8.153v2.585h-8.153v-2.585zm2.013 10.47V12.4h3.342v13.314q0 .674.208 1.03.208.355.55.485.34.129.756.129.314 0 .577-.046.264-.046.402-.083l.563 2.613q-.267.092-.761.203-.494.11-1.205.129-1.256.037-2.262-.383-1.007-.42-1.593-1.307-.586-.886-.577-2.216zM179.5 30.23q-1.67 0-2.991-.858-1.32-.859-2.087-2.493-.766-1.635-.766-3.97 0-2.364.78-3.994.78-1.63 2.11-2.465 1.33-.835 2.964-.835 1.246 0 2.05.42.803.42 1.274 1.006.47.586.729 1.103h.138v-7.072h3.352V29.98h-3.287v-2.234h-.203q-.259.517-.748 1.094-.49.577-1.293.983-.803.406-2.022.406zm.933-2.742q1.062 0 1.81-.577.747-.577 1.135-1.611t.388-2.41q0-1.376-.383-2.391-.383-1.016-1.127-1.58-.743-.562-1.823-.562-1.117 0-1.865.581-.748.582-1.127 1.607-.378 1.025-.378 2.345 0 1.33.383 2.368.383 1.04 1.136 1.635.752.595 1.85.595zm15.55 2.77q-2.077 0-3.6-.914-1.524-.914-2.36-2.558-.835-1.643-.835-3.84 0-2.198.835-3.85.836-1.653 2.36-2.567 1.523-.914 3.6-.914 2.078 0 3.601.914 1.523.914 2.36 2.566.835 1.653.835 3.85 0 2.198-.836 3.841-.835 1.644-2.359 2.558-1.523.914-3.6.914zm.019-2.678q1.126 0 1.883-.623.757-.623 1.131-1.676.374-1.052.374-2.345 0-1.302-.374-2.359t-1.13-1.685q-.758-.628-1.884-.628-1.154 0-1.916.628t-1.136 1.685q-.374 1.057-.374 2.36 0 1.292.374 2.344.374 1.053 1.136 1.676.762.623 1.916.623zm14.802 2.401h-3.49l-4.007-14.182h3.407l2.493 9.972h.129l2.548-9.972h3.37l2.549 9.916h.138l2.456-9.916h3.416l-4.016 14.182h-3.48l-2.66-9.584h-.194l-2.659 9.584zm17.868-8.31v8.31h-3.343V15.798h3.195v2.41h.166q.49-1.191 1.565-1.893 1.076-.701 2.664-.701 1.468 0 2.562.627 1.094.628 1.699 1.82.605 1.19.595 2.89v9.029h-3.342v-8.513q0-1.422-.734-2.225-.734-.803-2.026-.803-.878 0-1.556.383-.679.383-1.062 1.103t-.383 1.745z" fill="#0D2D30" fill-rule="nonzero"></path></g><g transform="translate(36.000000, 148.000000)"><rect fill="#000" width="243.19" height="39.01" rx="3.32"></rect><path d="M13.3 27.64V12.52h2.625v8.127h1.848l2.877-4.557h2.94l-3.57 5.628 3.633 5.922H20.65l-2.877-4.746h-1.848v4.746H13.3zm11.808-11.55h2.625v7.203q0 2.268 2.1 2.268t2.1-2.268V16.09h2.625v7.224q0 2.163-1.239 3.35-1.239 1.186-3.486 1.186t-3.486-1.197q-1.239-1.197-1.239-3.339V16.09zm11.871 11.55V12.52h2.646v3.486q0 .294-.01.662-.011.367-.032.682-.042.357-.063.735h.189q.21-1.029 1.018-1.617.809-.588 2.069-.588.903 0 1.638.315.735.315 1.25.903.514.588.797 1.418.284.829.284 1.879v2.877q0 1.05-.284 1.9-.283.851-.797 1.45-.515.598-1.25.913-.735.315-1.638.315-1.26 0-2.069-.588-.808-.588-1.018-1.638h-.189v2.016h-2.541zm2.646-7.182v2.814q0 1.029.599 1.659.598.63 1.627.63 1.071 0 1.68-.64.609-.641.609-1.712v-2.751q0-1.071-.609-1.69-.609-.62-1.68-.62-1.008 0-1.617.63t-.609 1.68zm9.015 2.856v-2.919q0-1.029.357-1.869.357-.84 1.008-1.428t1.575-.903q.924-.315 2.079-.315 1.134 0 2.047.325.914.326 1.565.914.651.588 1.008 1.428t.357 1.869v2.1h-7.392v.756q0 1.176.64 1.827.641.651 1.775.651.84 0 1.449-.273.609-.273.861-.756h2.583q-.189.714-.63 1.291-.441.578-1.081.988-.641.409-1.45.63-.808.22-1.732.22-1.134 0-2.069-.315-.934-.315-1.585-.913-.651-.599-1.008-1.439-.357-.84-.357-1.869zm2.604-2.919v.357h4.83v-.336q0-1.155-.64-1.796-.641-.64-1.775-.64t-1.774.64q-.641.641-.641 1.775zm14.454 7.455q-1.134 0-2.058-.315-.924-.315-1.575-.903-.651-.588-1.008-1.418-.357-.829-.357-1.858v-2.961q0-1.029.357-1.858.357-.83 1.008-1.418t1.575-.913q.924-.326 2.058-.326 1.008 0 1.869.283.861.284 1.512.82.651.535 1.082 1.28.43.746.577 1.691h-2.625q-.147-.798-.798-1.291-.651-.494-1.617-.494-1.113 0-1.743.588-.63.588-.63 1.638v2.961q0 1.029.62 1.617.619.588 1.753.588.945 0 1.607-.494.661-.493.808-1.291h2.625q-.147.945-.578 1.69-.43.746-1.091 1.281-.662.536-1.513.82-.85.283-1.858.283zm6.432-9.387V16.09h3.192v-3.57h2.625v3.57h4.389v2.373h-4.389v5.607q0 .546.325.872.326.325.914.325h2.94v2.373h-3.129q-1.701 0-2.688-.966-.987-.966-.987-2.604v-5.607H72.13zm15.294-3.654h-3.675v-2.373h6.3v11.466q0 .651.367 1.008.368.357.977.357h3.444v2.373h-3.633q-1.764 0-2.772-.987-1.008-.987-1.008-2.751v-9.093zm20.781 8.463v-2.877q0-1.05.284-1.88.283-.829.808-1.417.525-.588 1.26-.903.735-.315 1.617-.315 1.26 0 2.079.588.819.588 1.008 1.617h.21l-.042-.714q-.042-.315-.053-.662-.01-.346-.01-.619v-3.57h2.625v15.12h-2.52v-2.016h-.21q-.189 1.05-1.008 1.638-.819.588-2.079.588-.882 0-1.617-.315t-1.26-.913q-.525-.599-.808-1.45-.284-.85-.284-1.9zm2.625-2.814v2.751q0 1.071.609 1.712.609.64 1.68.64 1.029 0 1.638-.63t.609-1.659v-2.814q0-1.05-.62-1.68-.619-.63-1.627-.63-1.071 0-1.68.62-.609.619-.609 1.69zm9.288 2.856v-2.919q0-1.029.357-1.869.357-.84 1.008-1.428t1.575-.903q.924-.315 2.079-.315 1.134 0 2.047.325.914.326 1.565.914.651.588 1.008 1.428t.357 1.869v2.1h-7.392v.756q0 1.176.64 1.827.641.651 1.775.651.84 0 1.449-.273.609-.273.861-.756h2.583q-.189.714-.63 1.291-.441.578-1.082.988-.64.409-1.449.63-.808.22-1.732.22-1.134 0-2.069-.315-.934-.315-1.585-.913-.651-.599-1.008-1.439-.357-.84-.357-1.869zm2.604-2.919v.357h4.83v-.336q0-1.155-.64-1.796-.641-.64-1.775-.64t-1.775.64q-.64.641-.64 1.775zm12.354-5.586h-3.675v-2.373h6.3v11.466q0 .651.368 1.008.367.357.976.357h3.444v2.373h-3.633q-1.764 0-2.772-.987-1.008-.987-1.008-2.751v-9.093zm8.868 8.505v-2.919q0-1.029.357-1.869.357-.84 1.008-1.428t1.575-.903q.924-.315 2.079-.315 1.134 0 2.048.325.913.326 1.564.914.651.588 1.008 1.428t.357 1.869v2.1h-7.392v.756q0 1.176.64 1.827.641.651 1.775.651.84 0 1.449-.273.609-.273.861-.756h2.583q-.189.714-.63 1.291-.441.578-1.082.988-.64.409-1.448.63-.809.22-1.733.22-1.134 0-2.069-.315-.934-.315-1.585-.913-.651-.599-1.008-1.439-.357-.84-.357-1.869zm2.604-2.919v.357h4.83v-.336q0-1.155-.64-1.796-.641-.64-1.775-.64t-1.774.64q-.641.641-.641 1.775zm8.973-1.932V16.09h3.192v-3.57h2.625v3.57h4.389v2.373h-4.389v5.607q0 .546.326.872.325.325.913.325h2.94v2.373h-3.129q-1.701 0-2.688-.966-.987-.966-.987-2.604v-5.607h-3.192zm12.249 4.851v-2.919q0-1.029.357-1.869.357-.84 1.008-1.428t1.575-.903q.924-.315 2.079-.315 1.134 0 2.048.325.913.326 1.564.914.651.588 1.008 1.428t.357 1.869v2.1h-7.392v.756q0 1.176.64 1.827.641.651 1.775.651.84 0 1.449-.273.609-.273.861-.756h2.583q-.189.714-.63 1.291-.441.578-1.082.988-.64.409-1.448.63-.809.22-1.733.22-1.134 0-2.069-.315-.934-.315-1.585-.913-.651-.599-1.008-1.439-.357-.84-.357-1.869zm2.604-2.919v.357h4.83v-.336q0-1.155-.64-1.796-.641-.64-1.775-.64t-1.774.64q-.641.641-.641 1.775zm21.474 10.815V16.09h2.541v1.995h.189q.21-1.029 1.018-1.617.809-.588 2.069-.588.903 0 1.638.315.735.315 1.25.903.514.588.798 1.418.283.829.283 1.879v2.877q0 1.05-.283 1.9-.284.851-.798 1.45-.515.598-1.25.913-.735.315-1.638.315-1.26 0-2.069-.588-.808-.588-1.018-1.638h-.189q0 .063.021.263.021.199.031.493.011.294.032.62.021.325.021.64v3.57h-2.646zm2.646-10.752v2.814q0 1.029.599 1.659.598.63 1.627.63 1.071 0 1.68-.64.609-.641.609-1.712v-2.751q0-1.071-.609-1.69-.609-.62-1.68-.62-1.008 0-1.617.63t-.609 1.68zm14.034 7.392q-1.134 0-2.069-.336-.934-.336-1.585-.934-.651-.599-1.008-1.439-.357-.84-.357-1.869v-2.835q0-1.029.357-1.869.357-.84 1.008-1.439.651-.598 1.585-.924.935-.325 2.069-.325t2.069.325q.934.326 1.585.925.651.598 1.008 1.438t.357 1.869v2.835q0 1.029-.357 1.88-.357.85-1.008 1.448-.651.599-1.575.924-.924.326-2.079.326zm-2.394-7.413v2.835q0 1.05.64 1.659.641.609 1.754.609t1.754-.609q.64-.609.64-1.659v-2.835q0-1.05-.64-1.659-.641-.609-1.754-.609t-1.754.609q-.64.609-.64 1.659zm9.288 2.835v-2.877q0-1.05.284-1.88.283-.829.808-1.417.525-.588 1.26-.903.735-.315 1.617-.315 1.26 0 2.079.588.819.588 1.008 1.617h.21l-.042-.714q-.042-.315-.052-.662-.011-.346-.011-.619v-3.57h2.625v15.12h-2.52v-2.016h-.21q-.189 1.05-1.008 1.638-.819.588-2.079.588-.882 0-1.617-.315t-1.26-.913q-.525-.599-.809-1.45-.283-.85-.283-1.9zm2.625-2.814v2.751q0 1.071.609 1.712.609.64 1.68.64 1.029 0 1.638-.63t.609-1.659v-2.814q0-1.05-.62-1.68-.619-.63-1.627-.63-1.071 0-1.68.62-.609.619-.609 1.69z" fill="#FFF" fill-rule="nonzero"></path></g><g transform="translate(585.459989, 148.000000)"><rect fill="#000" width="115.37" height="39.01" rx="3.32"></rect><path d="M12.775 23.629h2.688q.042.903.714 1.418.672.514 1.806.514 1.176 0 1.806-.525.63-.525.63-1.407 0-.777-.483-1.355-.483-.577-1.323-.808l-1.659-.483q-1.932-.525-2.909-1.659-.976-1.134-.976-2.835 0-.945.346-1.722.347-.777.977-1.323.63-.546 1.533-.85.903-.305 2.037-.305 2.163 0 3.465 1.113t1.407 3.024h-2.667q-.042-.861-.651-1.344-.609-.483-1.617-.483t-1.607.493q-.598.494-.598 1.334 0 .693.441 1.197.441.504 1.365.777l1.764.504q1.848.525 2.825 1.69.976 1.166.976 2.909 0 .987-.367 1.785-.368.798-1.04 1.365t-1.617.882q-.945.315-2.121.315-1.134 0-2.069-.305-.934-.304-1.606-.85t-1.05-1.323q-.378-.777-.42-1.743zm15.735-8.82h-3.234V12.52h9.114v2.289h-3.234v10.542h3.234v2.289h-9.114v-2.289h3.234V14.809zm8.217 8.4v-6.258q0-1.029.357-1.88.357-.85 1.018-1.448.662-.599 1.586-.925.924-.325 2.058-.325 2.1 0 3.433 1.092 1.334 1.092 1.628 3.066h-2.646q-.126-.84-.777-1.323t-1.638-.483q-1.113 0-1.754.598-.64.599-.64 1.628v6.258q0 1.071.64 1.701.641.63 1.754.63t1.753-.63q.641-.63.641-1.701V21.76h-2.667v-2.247h5.292v3.696q0 1.05-.357 1.911T45.4 26.59q-.651.609-1.585.934-.935.326-2.069.326t-2.058-.336q-.924-.336-1.586-.945-.661-.609-1.018-1.46-.357-.85-.357-1.9zm15.609-8.274h-4.158V12.52H59.14v2.415h-4.158V27.64h-2.646V14.935zM70.381 27.64h-9.303V12.52h9.303v2.31h-6.678v3.885h5.943v2.31h-5.943v4.305h6.678v2.31zm2.379-15.12h4.956q1.134 0 2.069.325.934.326 1.596.914.661.588 1.018 1.428t.357 1.869q0 1.512-.756 2.583-.756 1.071-2.079 1.554l3.045 6.447h-2.898l-2.73-6.048h-1.953v6.048H72.76V12.52zm2.625 2.226v4.725h2.331q1.092 0 1.733-.63.64-.63.64-1.701 0-1.092-.651-1.743t-1.722-.651h-2.331zm8.868-2.226h3.108l1.575 4.809q.105.315.189.683.084.367.147.703.063.378.105.756h.168q.042-.378.126-.756.042-.336.115-.703.074-.368.179-.683l1.449-4.809h3.15v15.12h-2.352v-9.807q0-.567.052-1.186l.095-1.124q.063-.609.147-1.176h-.273l-.252 1.092q-.105.483-.241 1.008-.137.525-.284.945l-1.05 3.591h-1.974l-1.113-3.591q-.147-.462-.294-.987-.147-.525-.252-.987-.126-.546-.252-1.071h-.231q.084.567.147 1.176.063.504.105 1.123.042.62.042 1.187v9.807h-2.331V12.52z" fill="#FFF" fill-rule="nonzero"></path></g><g transform="translate(836.949984, 148.000000)"><rect fill="#000" width="115.37" height="39.01" rx="3.32"></rect><path d="M16.095 23.629h2.688q.042.903.714 1.418.672.514 1.806.514 1.176 0 1.806-.525.63-.525.63-1.407 0-.777-.483-1.355-.483-.577-1.323-.808l-1.659-.483q-1.932-.525-2.909-1.659-.976-1.134-.976-2.835 0-.945.346-1.722.347-.777.977-1.323.63-.546 1.533-.85.903-.305 2.037-.305 2.163 0 3.465 1.113t1.407 3.024h-2.667q-.042-.861-.651-1.344-.609-.483-1.617-.483t-1.607.493q-.598.494-.598 1.334 0 .693.441 1.197.441.504 1.365.777l1.764.504q1.848.525 2.825 1.69.976 1.166.976 2.909 0 .987-.368 1.785-.367.798-1.039 1.365-.672.567-1.617.882-.945.315-2.121.315-1.134 0-2.068-.305-.935-.304-1.607-.85-.672-.546-1.05-1.323-.378-.777-.42-1.743zm15.735-8.82h-3.234V12.52h9.114v2.289h-3.234v10.542h3.234v2.289h-9.114v-2.289h3.234V14.809zm8.217 8.4v-6.258q0-1.029.357-1.88.357-.85 1.018-1.448.662-.599 1.586-.925.924-.325 2.058-.325 2.1 0 3.433 1.092 1.334 1.092 1.628 3.066h-2.646q-.126-.84-.777-1.323t-1.638-.483q-1.113 0-1.754.598-.64.599-.64 1.628v6.258q0 1.071.64 1.701.641.63 1.754.63t1.753-.63q.641-.63.641-1.701V21.76h-2.667v-2.247h5.292v3.696q0 1.05-.357 1.911t-1.008 1.47q-.651.609-1.585.934-.935.326-2.069.326t-2.058-.336q-.924-.336-1.586-.945-.661-.609-1.018-1.46-.357-.85-.357-1.9zM52.254 12.52H54.9v6.132h1.932l2.898-6.132h2.919l-3.507 7.245 3.675 7.875h-2.961l-3.024-6.615H54.9v6.615h-2.646V12.52zm15.315 2.289h-3.234V12.52h9.114v2.289h-3.234v10.542h3.234v2.289h-9.114v-2.289h3.234V14.809zm9.015-2.289h2.625v12.684h6.594v2.436h-9.219V12.52zm11.913 0h2.625v12.684h6.594v2.436h-9.219V12.52z" fill="#FFF" fill-rule="nonzero"></path></g><g transform="translate(999.629981, 148.000000)"><rect fill="#000" width="163.51" height="39.01" rx="3.32"></rect><path d="M16.494 12.52h5.229q1.134 0 2.069.325.934.326 1.585.925.651.598 1.008 1.449.357.85.357 1.9 0 1.029-.357 1.88-.357.85-1.019 1.449-.661.598-1.585.924-.924.325-2.058.325h-2.604v5.943h-2.625V12.52zm2.625 2.226v4.725h2.604q1.092 0 1.722-.64.63-.641.63-1.712t-.63-1.722q-.63-.651-1.722-.651h-2.604zM33.153 27.85q-1.134 0-2.069-.336-.934-.336-1.585-.934-.651-.599-1.008-1.439-.357-.84-.357-1.869v-2.835q0-1.029.357-1.869.357-.84 1.008-1.439.651-.598 1.585-.924.935-.325 2.069-.325t2.069.325q.934.326 1.585.925.651.598 1.008 1.438t.357 1.869v2.835q0 1.029-.357 1.88-.357.85-1.008 1.448-.651.599-1.575.924-.924.326-2.079.326zm-2.394-7.413v2.835q0 1.05.64 1.659.641.609 1.754.609t1.754-.609q.64-.609.64-1.659v-2.835q0-1.05-.64-1.659-.641-.609-1.754-.609t-1.753.609q-.641.609-.641 1.659zm9.288 2.835v-2.877q0-1.05.284-1.88.283-.829.808-1.417.525-.588 1.26-.903.735-.315 1.617-.315 1.26 0 2.079.588.819.588 1.008 1.617h.21l-.042-.714q-.042-.315-.053-.662-.01-.346-.01-.619v-3.57h2.625v15.12h-2.52v-2.016h-.21q-.189 1.05-1.008 1.638-.819.588-2.079.588-.882 0-1.617-.315t-1.26-.913q-.525-.599-.809-1.45-.283-.85-.283-1.9zm2.625-2.814v2.751q0 1.071.609 1.712.609.64 1.68.64 1.029 0 1.638-.63t.609-1.659v-2.814q0-1.05-.62-1.68-.619-.63-1.627-.63-1.071 0-1.68.62-.609.619-.609 1.69zm21.201 2.814v-2.877q0-1.05.283-1.88.284-.829.809-1.417.525-.588 1.26-.903.735-.315 1.617-.315 1.26 0 2.079.588.819.588 1.008 1.617h.21l-.042-.714q-.042-.315-.052-.662-.011-.346-.011-.619v-3.57h2.625v15.12h-2.52v-2.016h-.21q-.189 1.05-1.008 1.638-.819.588-2.079.588-.882 0-1.617-.315t-1.26-.913q-.525-.599-.809-1.45-.283-.85-.283-1.9zm2.625-2.814v2.751q0 1.071.609 1.712.609.64 1.68.64 1.029 0 1.638-.63t.609-1.659v-2.814q0-1.05-.62-1.68-.619-.63-1.627-.63-1.071 0-1.68.62-.609.619-.609 1.69zm9.288 2.856v-2.919q0-1.029.357-1.869.357-.84 1.008-1.428t1.575-.903q.924-.315 2.079-.315 1.134 0 2.047.325.914.326 1.565.914.651.588 1.008 1.428t.357 1.869v2.1H78.39v.756q0 1.176.64 1.827.641.651 1.775.651.84 0 1.449-.273.609-.273.861-.756h2.583q-.189.714-.63 1.291-.441.578-1.081.988-.641.409-1.45.63-.808.22-1.732.22-1.134 0-2.069-.315-.934-.315-1.585-.913-.651-.599-1.008-1.439-.357-.84-.357-1.869zm2.604-2.919v.357h4.83v-.336q0-1.155-.64-1.796-.641-.64-1.775-.64t-1.775.64q-.64.641-.64 1.775zm12.354-5.586h-3.675v-2.373h6.3v11.466q0 .651.368 1.008.367.357.976.357h3.444v2.373h-3.633q-1.764 0-2.772-.987-1.008-.987-1.008-2.751v-9.093zm8.868 8.505v-2.919q0-1.029.357-1.869.357-.84 1.008-1.428t1.575-.903q.924-.315 2.079-.315 1.134 0 2.047.325.914.326 1.565.914.651.588 1.008 1.428t.357 1.869v2.1h-7.392v.756q0 1.176.64 1.827.641.651 1.775.651.84 0 1.449-.273.609-.273.861-.756h2.583q-.189.714-.63 1.291-.441.578-1.082.988-.64.409-1.448.63-.809.22-1.733.22-1.134 0-2.069-.315-.934-.315-1.585-.913-.651-.599-1.008-1.439-.357-.84-.357-1.869zm2.604-2.919v.357h4.83v-.336q0-1.155-.64-1.796-.641-.64-1.775-.64t-1.775.64q-.64.641-.64 1.775zm8.973-1.932V16.09h3.192v-3.57h2.625v3.57h4.389v2.373h-4.389v5.607q0 .546.326.872.325.325.913.325h2.94v2.373h-3.129q-1.701 0-2.688-.966-.987-.966-.987-2.604v-5.607h-3.192zm12.249 4.851v-2.919q0-1.029.357-1.869.357-.84 1.008-1.428t1.575-.903q.924-.315 2.079-.315 1.134 0 2.048.325.913.326 1.564.914.651.588 1.008 1.428t.357 1.869v2.1h-7.392v.756q0 1.176.64 1.827.641.651 1.775.651.84 0 1.449-.273.609-.273.861-.756h2.583q-.189.714-.63 1.291-.441.578-1.082.988-.64.409-1.448.63-.809.22-1.733.22-1.134 0-2.069-.315-.934-.315-1.585-.913-.651-.599-1.008-1.439-.357-.84-.357-1.869zm2.604-2.919v.357h4.83v-.336q0-1.155-.64-1.796-.641-.64-1.775-.64t-1.774.64q-.641.641-.641 1.775zm9.309 2.877v-2.877q0-1.05.284-1.88.283-.829.808-1.417.525-.588 1.26-.903.735-.315 1.617-.315 1.26 0 2.079.588.819.588 1.008 1.617h.21l-.042-.714q-.042-.315-.052-.662-.011-.346-.011-.619v-3.57h2.625v15.12h-2.52v-2.016h-.21q-.189 1.05-1.008 1.638-.819.588-2.079.588-.882 0-1.617-.315t-1.26-.913q-.525-.599-.809-1.45-.283-.85-.283-1.9zm2.625-2.814v2.751q0 1.071.609 1.712.609.64 1.68.64 1.029 0 1.638-.63t.609-1.659v-2.814q0-1.05-.62-1.68-.619-.63-1.627-.63-1.071 0-1.68.62-.609.619-.609 1.69z" fill="#FFF" fill-rule="nonzero"></path></g><path d="M1114.007 608.987L1143 623.5l-29.007 14.487.005-12-1056-.487-2.5-.001.003-5 2.5.001 1056 .487.006-12zM64.446 732.196h-5.394v-2.65h13.926v2.65h-5.395V747h-3.137v-14.804zM78.603 747h-3.086v-13.09h3.086V747zm-1.534-14.949q-.742 0-1.266-.49t-.524-1.18q0-.7.528-1.19.529-.49 1.262-.49t1.257.49q.524.49.524 1.19 0 .69-.524 1.18t-1.257.49zM84.859 747h-3.086v-13.09h2.949v2.224h.153q.41-1.125 1.356-1.76.946-.635 2.258-.635 1.33 0 2.246.643.916.644 1.291 1.752h.136q.435-1.091 1.47-1.743 1.036-.652 2.46-.652 1.806 0 2.948 1.142t1.142 3.332V747h-3.094v-8.31q0-1.218-.647-1.785-.648-.567-1.585-.567-1.117 0-1.743.695-.627.694-.627 1.802V747h-3.025v-8.438q0-1.014-.61-1.619t-1.59-.605q-.664 0-1.21.337-.545.336-.869.946-.324.61-.324 1.419V747zm24.255.256q-1.969 0-3.396-.823-1.428-.822-2.195-2.335-.767-1.513-.767-3.567 0-2.02.771-3.55.772-1.53 2.16-2.386 1.39-.856 3.265-.856 1.21 0 2.288.387 1.079.388 1.91 1.198.83.81 1.308 2.058.477 1.249.477 2.97v.946h-10.73v-2.08h7.773q-.009-.886-.384-1.58-.375-.695-1.044-1.095-.669-.401-1.555-.401-.946 0-1.662.456t-1.112 1.193q-.397.737-.405 1.615v1.816q0 1.142.417 1.956.418.813 1.168 1.244.75.43 1.756.43.673 0 1.218-.191.546-.192.946-.567.401-.375.606-.93l2.88.325q-.273 1.142-1.035 1.99-.763.848-1.948 1.312-1.184.465-2.71.465z" fill="#000" fill-rule="nonzero"></path><circle fill="#000" cx="152.5" cy="623.5" r="19.5"></circle><circle fill="#000" cx="892.5" cy="623.5" r="19.5"></circle><circle fill="#000" cx="1081.5" cy="623.5" r="19.5"></circle><circle fill="#000" cx="344.5" cy="623.5" r="19.5"></circle><circle fill="#000" cx="641.5" cy="623.5" r="19.5"></circle></g></svg>