<svg viewBox="0 0 1200 900" xmlns="http://www.w3.org/2000/svg"><g fill="none" fill-rule="evenodd"><path fill="#FBFBFB" d="M117.34 460.91h1002v58.1h-1002zm0-116.2h1002v58.1h-1002zm0-116.2h1002v58.1h-1002z"></path><path fill="#EFDCBD" d="M153.86 187.01h3.32v87.98h-3.32z"></path><g transform="translate(153.859998, 231.829998)"><rect fill="#B7E7EB" width="190.9" height="51.46" rx="4.15"></rect><path d="M42.815 14.949L37.773 29.98h-3.656l6.657-18.91h4.229l6.666 18.91h-3.656l-5.05-15.031h-.148zm-4.922 10.368v-2.751h9.972v2.751h-9.972zm18.865 4.663h-3.425V11.07h7.09q2.18 0 3.662.813 1.481.813 2.243 2.23.762 1.417.762 3.218 0 1.819-.766 3.231-.767 1.413-2.262 2.22-1.496.809-3.684.809h-4.7v-2.816h4.238q1.274 0 2.087-.443.812-.444 1.204-1.22.393-.775.393-1.781 0-1.007-.393-1.773-.392-.766-1.21-1.196-.816-.429-2.1-.429h-3.139V29.98zm12.476-18.91h3.425v18.91h-3.425V11.07zm23.003 8.477l-3.047.332q-.129-.462-.448-.868-.318-.406-.854-.655-.535-.25-1.31-.25-1.044 0-1.75.453-.707.452-.697 1.172-.01.619.457 1.007.466.388 1.546.637l2.42.517q2.012.434 2.995 1.376.984.941.993 2.465-.01 1.339-.78 2.359-.771 1.02-2.138 1.593-1.366.572-3.139.572-2.604 0-4.192-1.094t-1.892-3.052l3.259-.314q.221.96.942 1.45.72.49 1.874.49 1.19 0 1.916-.49.724-.49.724-1.21 0-.609-.466-1.006t-1.445-.61l-2.419-.507q-2.04-.425-3.019-1.436-.979-1.01-.97-2.562-.009-1.311.716-2.276.725-.965 2.022-1.496 1.297-.53 2.996-.53 2.493 0 3.929 1.061 1.436 1.062 1.777 2.872zm8.515 10.71q-2.133 0-3.68-.891-1.546-.891-2.377-2.53-.83-1.639-.83-3.864 0-2.188.835-3.845.835-1.658 2.34-2.586 1.505-.927 3.536-.927 1.312 0 2.48.42 1.167.42 2.068 1.297.9.877 1.417 2.23.517 1.352.517 3.217v1.025H95.434V21.55h8.42q-.01-.96-.415-1.712-.407-.753-1.131-1.187-.725-.434-1.685-.434-1.025 0-1.8.494-.776.494-1.206 1.293-.429.798-.438 1.75v1.966q0 1.237.452 2.119.453.882 1.265 1.348.813.466 1.902.466.73 0 1.32-.207.591-.208 1.025-.614.434-.407.656-1.007l3.12.351q-.295 1.237-1.121 2.156-.827.919-2.11 1.422-1.283.503-2.936.503zm11.645-.277h-3.343V15.798h3.241v2.364h.148q.388-1.228 1.334-1.898.946-.669 2.165-.669.277 0 .623.023.347.023.577.07v3.074q-.212-.074-.669-.134-.457-.06-.882-.06-.914 0-1.639.392-.724.393-1.14 1.085-.415.693-.415 1.598v8.337zm15.698-14.182h3.554L126.6 29.98h-3.693l-5.05-14.182h3.563l3.26 10.535h.147l3.269-10.535zm10.823 14.459q-2.133 0-3.68-.891-1.546-.891-2.377-2.53-.831-1.639-.831-3.864 0-2.188.835-3.845.836-1.658 2.341-2.586 1.505-.927 3.536-.927 1.311 0 2.48.42 1.167.42 2.067 1.297.9.877 1.418 2.23.517 1.352.517 3.217v1.025h-11.625V21.55h8.42q-.008-.96-.415-1.712-.406-.753-1.13-1.187-.725-.434-1.686-.434-1.025 0-1.8.494-.776.494-1.205 1.293-.43.798-.439 1.75v1.966q0 1.237.453 2.119.452.882 1.265 1.348.812.466 1.902.466.73 0 1.32-.207.591-.208 1.025-.614.434-.407.655-1.007l3.121.351q-.295 1.237-1.122 2.156-.826.919-2.11 1.422-1.283.503-2.935.503zm11.644-.277h-3.342V15.798h3.24v2.364h.148q.388-1.228 1.335-1.898.946-.669 2.165-.669.277 0 .623.023t.577.07v3.074q-.212-.074-.67-.134-.456-.06-.881-.06-.914 0-1.639.392-.725.393-1.14 1.085-.416.693-.416 1.598v8.337z" fill="#0D2D30" fill-rule="nonzero"></path></g><g transform="translate(344.759994, 289.929997)"><rect fill="#B7E7EB" width="115.37" height="51.46" rx="4.15"></rect><path d="M19.734 22.778l-2.567 2.752-.009-4.035h.535l5.097-5.697h3.906l-6.27 6.98h-.692zm-2.271 7.202H14.12V11.07h3.343v18.91zm9.556 0H23.02l-4.617-6.454 2.253-2.354 6.362 8.808zm10.103-5.964v-8.218h3.342V29.98h-3.24v-2.52h-.149q-.48 1.19-1.574 1.948-1.094.757-2.691.757-1.394 0-2.46-.624-1.067-.623-1.667-1.818-.6-1.196-.6-2.895v-9.03h3.342v8.513q0 1.348.738 2.142.74.794 1.94.794.738 0 1.43-.36.693-.36 1.14-1.076.449-.715.449-1.795zm9.382 5.964h-3.287V11.07h3.343v7.073h.138q.259-.517.73-1.103.47-.586 1.274-1.006.803-.42 2.05-.42 1.643 0 2.968.835 1.325.836 2.105 2.465.78 1.63.78 3.994 0 2.335-.766 3.97-.767 1.634-2.087 2.493-1.32.858-2.991.858-1.22 0-2.022-.406-.804-.406-1.288-.983-.485-.577-.753-1.094h-.194v2.234zm-.009-7.09q0 1.375.392 2.409.393 1.034 1.136 1.611.743.577 1.805.577 1.108 0 1.856-.595.748-.596 1.131-1.635.383-1.038.383-2.368 0-1.32-.378-2.345-.379-1.025-1.127-1.607-.748-.581-1.865-.581-1.07 0-1.819.563-.748.563-1.13 1.579-.384 1.015-.384 2.391zm18.412 7.367q-2.132 0-3.679-.891-1.546-.891-2.377-2.53-.831-1.639-.831-3.864 0-2.188.835-3.845.836-1.658 2.34-2.586 1.506-.927 3.537-.927 1.311 0 2.48.42 1.167.42 2.067 1.297.9.877 1.418 2.23.517 1.352.517 3.217v1.025H59.589V21.55h8.42q-.008-.96-.415-1.712-.406-.753-1.13-1.187-.726-.434-1.686-.434-1.025 0-1.8.494-.776.494-1.205 1.293-.43.798-.439 1.75v1.966q0 1.237.453 2.119.452.882 1.265 1.348.812.466 1.902.466.729 0 1.32-.207.59-.208 1.025-.614.434-.407.655-1.007l3.121.351q-.295 1.237-1.122 2.156-.826.919-2.11 1.422-1.283.503-2.936.503zm8.303-19.186h3.342V29.98H73.21V11.07zm12.226 19.186q-2.133 0-3.68-.891-1.546-.891-2.377-2.53-.83-1.639-.83-3.864 0-2.188.835-3.845.836-1.658 2.34-2.586 1.506-.927 3.537-.927 1.31 0 2.479.42 1.168.42 2.068 1.297.9.877 1.417 2.23.517 1.352.517 3.217v1.025H80.118V21.55h8.42q-.009-.96-.415-1.712-.406-.753-1.131-1.187-.725-.434-1.685-.434-1.025 0-1.8.494-.776.494-1.205 1.293-.43.798-.439 1.75v1.966q0 1.237.453 2.119.452.882 1.264 1.348.813.466 1.902.466.73 0 1.32-.207.592-.208 1.026-.614.434-.407.655-1.007l3.12.351q-.295 1.237-1.12 2.156-.827.919-2.11 1.422-1.284.503-2.937.503zm7.232-14.459h8.152v2.585h-8.152v-2.585zm2.012 10.47V12.4h3.343v13.314q0 .674.207 1.03.208.355.55.485.341.129.757.129.314 0 .577-.046.263-.046.402-.083l.563 2.613q-.268.092-.762.203-.494.11-1.205.129-1.255.037-2.262-.383-1.006-.42-1.593-1.307-.586-.886-.577-2.216z" fill="#0D2D30" fill-rule="nonzero"></path></g><g transform="translate(460.129991, 348.029996)"><rect fill="#B7E7EB" width="179.28" height="51.46" rx="4.15"></rect><path d="M15.361 29.98h-3.425V11.07h7.091q2.179 0 3.66.813 1.483.813 2.244 2.23.762 1.417.762 3.218 0 1.819-.766 3.231-.767 1.413-2.262 2.22-1.496.809-3.684.809h-4.7v-2.816h4.238q1.274 0 2.087-.443.812-.444 1.205-1.22.392-.775.392-1.781 0-1.007-.392-1.773-.393-.766-1.21-1.196-.817-.429-2.1-.429h-3.14V29.98zm15.67 0H27.69V15.798h3.241v2.364h.148q.388-1.228 1.334-1.898.946-.669 2.165-.669.277 0 .623.023.347.023.578.07v3.074q-.213-.074-.67-.134-.457-.06-.882-.06-.914 0-1.638.392-.725.393-1.14 1.085-.416.693-.416 1.598v8.337zm11.83.277q-2.133 0-3.68-.891-1.546-.891-2.377-2.53-.83-1.639-.83-3.864 0-2.188.835-3.845.836-1.658 2.34-2.586 1.505-.927 3.537-.927 1.31 0 2.479.42 1.168.42 2.068 1.297.9.877 1.417 2.23.517 1.352.517 3.217v1.025H37.543V21.55h8.42q-.009-.96-.415-1.712-.406-.753-1.131-1.187-.725-.434-1.685-.434-1.025 0-1.8.494-.776.494-1.205 1.293-.43.798-.439 1.75v1.966q0 1.237.452 2.119.453.882 1.265 1.348.813.466 1.902.466.73 0 1.32-.207.592-.208 1.025-.614.434-.407.656-1.007l3.12.351q-.295 1.237-1.121 2.156-.826.919-2.11 1.422-1.283.503-2.936.503zm19.511-10.71l-3.047.332q-.129-.462-.447-.868-.319-.406-.854-.655-.536-.25-1.311-.25-1.044 0-1.75.453-.706.452-.697 1.172-.01.619.457 1.007.466.388 1.546.637l2.42.517q2.012.434 2.995 1.376.984.941.993 2.465-.01 1.339-.78 2.359-.771 1.02-2.138 1.593-1.366.572-3.139.572-2.603 0-4.192-1.094-1.588-1.094-1.892-3.052l3.259-.314q.222.96.942 1.45t1.874.49q1.191 0 1.916-.49.725-.49.725-1.21 0-.609-.467-1.006-.466-.397-1.445-.61l-2.419-.507q-2.04-.425-3.019-1.436-.979-1.01-.97-2.562-.009-1.311.716-2.276.725-.965 2.022-1.496 1.298-.53 2.996-.53 2.493 0 3.929 1.061 1.436 1.062 1.777 2.872zm1.166-3.749h8.152v2.585h-8.152v-2.585zm2.012 10.47V12.4h3.343v13.314q0 .674.208 1.03.207.355.549.485.342.129.757.129.314 0 .577-.046.263-.046.402-.083l.563 2.613q-.268.092-.762.203-.494.11-1.205.129-1.255.037-2.262-.383-1.006-.42-1.592-1.307-.587-.886-.578-2.216zm14.147 3.989q-2.077 0-3.6-.914-1.524-.914-2.36-2.558-.835-1.643-.835-3.84 0-2.198.835-3.85.836-1.653 2.36-2.567 1.523-.914 3.6-.914 2.078 0 3.601.914 1.524.914 2.36 2.566.835 1.653.835 3.85 0 2.198-.836 3.841-.835 1.644-2.359 2.558-1.523.914-3.6.914zm.019-2.678q1.126 0 1.883-.623.757-.623 1.131-1.676.374-1.052.374-2.345 0-1.302-.374-2.359t-1.13-1.685q-.758-.628-1.884-.628-1.154 0-1.916.628t-1.136 1.685q-.374 1.057-.374 2.36 0 1.292.374 2.344.374 1.053 1.136 1.676.762.623 1.916.623zM91.83 35.3h-3.34V15.8h3.287v2.344h.194q.258-.517.73-1.103.47-.586 1.273-1.006.804-.42 2.05-.42 1.644 0 2.969.835 1.324.836 2.105 2.465.78 1.63.78 3.994 0 2.335-.767 3.97-.766 1.634-2.086 2.493-1.32.858-2.992.858-1.218 0-2.022-.406-.803-.406-1.288-.983-.484-.577-.752-1.094h-.139v7.552zm-.064-12.41q0 1.376.392 2.41.393 1.034 1.136 1.611.743.577 1.805.577 1.108 0 1.856-.595.748-.596 1.13-1.635.384-1.038.384-2.368 0-1.32-.379-2.345-.378-1.025-1.126-1.607-.748-.581-1.865-.581-1.071 0-1.82.563-.747.563-1.13 1.579-.383 1.015-.383 2.391zm21.101-1.219v8.31h-3.342V11.07h3.268v7.138h.166q.499-1.2 1.547-1.897 1.048-.697 2.673-.697 1.477 0 2.576.618 1.098.619 1.703 1.81.605 1.19.605 2.908v9.03h-3.342v-8.513q0-1.43-.734-2.23-.734-.798-2.055-.798-.886 0-1.583.383t-1.09 1.103q-.392.72-.392 1.745zm17.95 8.587q-2.077 0-3.6-.914-1.523-.914-2.36-2.558-.835-1.643-.835-3.84 0-2.198.836-3.85.836-1.653 2.359-2.567 1.523-.914 3.6-.914 2.078 0 3.602.914 1.523.914 2.359 2.566.835 1.653.835 3.85 0 2.198-.835 3.841-.836 1.644-2.36 2.558-1.523.914-3.6.914zm.02-2.678q1.126 0 1.883-.623.757-.623 1.13-1.676.375-1.052.375-2.345 0-1.302-.374-2.359t-1.131-1.685q-.757-.628-1.884-.628-1.154 0-1.916.628-.761.628-1.135 1.685t-.374 2.36q0 1.292.374 2.344.374 1.053 1.135 1.676.762.623 1.916.623zm14.959 2.678q-2.078 0-3.601-.914-1.524-.914-2.36-2.558-.835-1.643-.835-3.84 0-2.198.836-3.85.835-1.653 2.359-2.567 1.523-.914 3.6-.914 2.078 0 3.601.914 1.524.914 2.36 2.566.835 1.653.835 3.85 0 2.198-.836 3.841-.835 1.644-2.359 2.558-1.523.914-3.6.914zm.018-2.678q1.127 0 1.884-.623.757-.623 1.13-1.676.375-1.052.375-2.345 0-1.302-.374-2.359t-1.131-1.685q-.757-.628-1.884-.628-1.154 0-1.916.628-.761.628-1.135 1.685t-.374 2.36q0 1.292.374 2.344.374 1.053 1.135 1.676.762.623 1.916.623zm14.387-4.8l-2.567 2.75-.009-4.034h.536l5.096-5.697h3.906l-6.27 6.98h-.692zm-2.271 7.201h-3.343V11.07h3.343v18.91zm9.556 0h-3.998l-4.617-6.454 2.253-2.354 6.362 8.808z" fill="#0D2D30" fill-rule="nonzero"></path></g><g transform="translate(36.000000, 148.000000)"><rect fill="#000" width="243.19" height="39.01" rx="3.32"></rect><path d="M13.3 27.64V12.52h2.625v8.127h1.848l2.877-4.557h2.94l-3.57 5.628 3.633 5.922H20.65l-2.877-4.746h-1.848v4.746H13.3zm11.808-11.55h2.625v7.203q0 2.268 2.1 2.268t2.1-2.268V16.09h2.625v7.224q0 2.163-1.239 3.35-1.239 1.186-3.486 1.186t-3.486-1.197q-1.239-1.197-1.239-3.339V16.09zm11.871 11.55V12.52h2.646v3.486q0 .294-.01.662-.011.367-.032.682-.042.357-.063.735h.189q.21-1.029 1.018-1.617.809-.588 2.069-.588.903 0 1.638.315.735.315 1.25.903.514.588.797 1.418.284.829.284 1.879v2.877q0 1.05-.284 1.9-.283.851-.797 1.45-.515.598-1.25.913-.735.315-1.638.315-1.26 0-2.069-.588-.808-.588-1.018-1.638h-.189v2.016h-2.541zm2.646-7.182v2.814q0 1.029.599 1.659.598.63 1.627.63 1.071 0 1.68-.64.609-.641.609-1.712v-2.751q0-1.071-.609-1.69-.609-.62-1.68-.62-1.008 0-1.617.63t-.609 1.68zm9.015 2.856v-2.919q0-1.029.357-1.869.357-.84 1.008-1.428t1.575-.903q.924-.315 2.079-.315 1.134 0 2.047.325.914.326 1.565.914.651.588 1.008 1.428t.357 1.869v2.1h-7.392v.756q0 1.176.64 1.827.641.651 1.775.651.84 0 1.449-.273.609-.273.861-.756h2.583q-.189.714-.63 1.291-.441.578-1.081.988-.641.409-1.45.63-.808.22-1.732.22-1.134 0-2.069-.315-.934-.315-1.585-.913-.651-.599-1.008-1.439-.357-.84-.357-1.869zm2.604-2.919v.357h4.83v-.336q0-1.155-.64-1.796-.641-.64-1.775-.64t-1.774.64q-.641.641-.641 1.775zm14.454 7.455q-1.134 0-2.058-.315-.924-.315-1.575-.903-.651-.588-1.008-1.418-.357-.829-.357-1.858v-2.961q0-1.029.357-1.858.357-.83 1.008-1.418t1.575-.913q.924-.326 2.058-.326 1.008 0 1.869.283.861.284 1.512.82.651.535 1.082 1.28.43.746.577 1.691h-2.625q-.147-.798-.798-1.291-.651-.494-1.617-.494-1.113 0-1.743.588-.63.588-.63 1.638v2.961q0 1.029.62 1.617.619.588 1.753.588.945 0 1.607-.494.661-.493.808-1.291h2.625q-.147.945-.578 1.69-.43.746-1.091 1.281-.662.536-1.513.82-.85.283-1.858.283zm6.432-9.387V16.09h3.192v-3.57h2.625v3.57h4.389v2.373h-4.389v5.607q0 .546.325.872.326.325.914.325h2.94v2.373h-3.129q-1.701 0-2.688-.966-.987-.966-.987-2.604v-5.607H72.13zm15.294-3.654h-3.675v-2.373h6.3v11.466q0 .651.367 1.008.368.357.977.357h3.444v2.373h-3.633q-1.764 0-2.772-.987-1.008-.987-1.008-2.751v-9.093zm20.781 8.463v-2.877q0-1.05.284-1.88.283-.829.808-1.417.525-.588 1.26-.903.735-.315 1.617-.315 1.26 0 2.079.588.819.588 1.008 1.617h.21l-.042-.714q-.042-.315-.053-.662-.01-.346-.01-.619v-3.57h2.625v15.12h-2.52v-2.016h-.21q-.189 1.05-1.008 1.638-.819.588-2.079.588-.882 0-1.617-.315t-1.26-.913q-.525-.599-.808-1.45-.284-.85-.284-1.9zm2.625-2.814v2.751q0 1.071.609 1.712.609.64 1.68.64 1.029 0 1.638-.63t.609-1.659v-2.814q0-1.05-.62-1.68-.619-.63-1.627-.63-1.071 0-1.68.62-.609.619-.609 1.69zm9.288 2.856v-2.919q0-1.029.357-1.869.357-.84 1.008-1.428t1.575-.903q.924-.315 2.079-.315 1.134 0 2.047.325.914.326 1.565.914.651.588 1.008 1.428t.357 1.869v2.1h-7.392v.756q0 1.176.64 1.827.641.651 1.775.651.84 0 1.449-.273.609-.273.861-.756h2.583q-.189.714-.63 1.291-.441.578-1.082.988-.64.409-1.449.63-.808.22-1.732.22-1.134 0-2.069-.315-.934-.315-1.585-.913-.651-.599-1.008-1.439-.357-.84-.357-1.869zm2.604-2.919v.357h4.83v-.336q0-1.155-.64-1.796-.641-.64-1.775-.64t-1.775.64q-.64.641-.64 1.775zm12.354-5.586h-3.675v-2.373h6.3v11.466q0 .651.368 1.008.367.357.976.357h3.444v2.373h-3.633q-1.764 0-2.772-.987-1.008-.987-1.008-2.751v-9.093zm8.868 8.505v-2.919q0-1.029.357-1.869.357-.84 1.008-1.428t1.575-.903q.924-.315 2.079-.315 1.134 0 2.048.325.913.326 1.564.914.651.588 1.008 1.428t.357 1.869v2.1h-7.392v.756q0 1.176.64 1.827.641.651 1.775.651.84 0 1.449-.273.609-.273.861-.756h2.583q-.189.714-.63 1.291-.441.578-1.082.988-.64.409-1.448.63-.809.22-1.733.22-1.134 0-2.069-.315-.934-.315-1.585-.913-.651-.599-1.008-1.439-.357-.84-.357-1.869zm2.604-2.919v.357h4.83v-.336q0-1.155-.64-1.796-.641-.64-1.775-.64t-1.774.64q-.641.641-.641 1.775zm8.973-1.932V16.09h3.192v-3.57h2.625v3.57h4.389v2.373h-4.389v5.607q0 .546.326.872.325.325.913.325h2.94v2.373h-3.129q-1.701 0-2.688-.966-.987-.966-.987-2.604v-5.607h-3.192zm12.249 4.851v-2.919q0-1.029.357-1.869.357-.84 1.008-1.428t1.575-.903q.924-.315 2.079-.315 1.134 0 2.048.325.913.326 1.564.914.651.588 1.008 1.428t.357 1.869v2.1h-7.392v.756q0 1.176.64 1.827.641.651 1.775.651.84 0 1.449-.273.609-.273.861-.756h2.583q-.189.714-.63 1.291-.441.578-1.082.988-.64.409-1.448.63-.809.22-1.733.22-1.134 0-2.069-.315-.934-.315-1.585-.913-.651-.599-1.008-1.439-.357-.84-.357-1.869zm2.604-2.919v.357h4.83v-.336q0-1.155-.64-1.796-.641-.64-1.775-.64t-1.774.64q-.641.641-.641 1.775zm21.474 10.815V16.09h2.541v1.995h.189q.21-1.029 1.018-1.617.809-.588 2.069-.588.903 0 1.638.315.735.315 1.25.903.514.588.798 1.418.283.829.283 1.879v2.877q0 1.05-.283 1.9-.284.851-.798 1.45-.515.598-1.25.913-.735.315-1.638.315-1.26 0-2.069-.588-.808-.588-1.018-1.638h-.189q0 .063.021.263.021.199.031.493.011.294.032.62.021.325.021.64v3.57h-2.646zm2.646-10.752v2.814q0 1.029.599 1.659.598.63 1.627.63 1.071 0 1.68-.64.609-.641.609-1.712v-2.751q0-1.071-.609-1.69-.609-.62-1.68-.62-1.008 0-1.617.63t-.609 1.68zm14.034 7.392q-1.134 0-2.069-.336-.934-.336-1.585-.934-.651-.599-1.008-1.439-.357-.84-.357-1.869v-2.835q0-1.029.357-1.869.357-.84 1.008-1.439.651-.598 1.585-.924.935-.325 2.069-.325t2.069.325q.934.326 1.585.925.651.598 1.008 1.438t.357 1.869v2.835q0 1.029-.357 1.88-.357.85-1.008 1.448-.651.599-1.575.924-.924.326-2.079.326zm-2.394-7.413v2.835q0 1.05.64 1.659.641.609 1.754.609t1.754-.609q.64-.609.64-1.659v-2.835q0-1.05-.64-1.659-.641-.609-1.754-.609t-1.754.609q-.64.609-.64 1.659zm9.288 2.835v-2.877q0-1.05.284-1.88.283-.829.808-1.417.525-.588 1.26-.903.735-.315 1.617-.315 1.26 0 2.079.588.819.588 1.008 1.617h.21l-.042-.714q-.042-.315-.052-.662-.011-.346-.011-.619v-3.57h2.625v15.12h-2.52v-2.016h-.21q-.189 1.05-1.008 1.638-.819.588-2.079.588-.882 0-1.617-.315t-1.26-.913q-.525-.599-.809-1.45-.283-.85-.283-1.9zm2.625-2.814v2.751q0 1.071.609 1.712.609.64 1.68.64 1.029 0 1.638-.63t.609-1.659v-2.814q0-1.05-.62-1.68-.619-.63-1.627-.63-1.071 0-1.68.62-.609.619-.609 1.69z" fill="#FFF" fill-rule="nonzero"></path></g><path d="M1114.007 608.987L1143 623.5l-29.007 14.487.005-12-1056-.487-2.5-.001.003-5 2.5.001 1056 .487.006-12zM64.446 732.196h-5.394v-2.65h13.926v2.65h-5.395V747h-3.137v-14.804zM78.603 747h-3.086v-13.09h3.086V747zm-1.534-14.949q-.742 0-1.266-.49t-.524-1.18q0-.7.528-1.19.529-.49 1.262-.49t1.257.49q.524.49.524 1.19 0 .69-.524 1.18t-1.257.49zM84.859 747h-3.086v-13.09h2.949v2.224h.153q.41-1.125 1.356-1.76.946-.635 2.258-.635 1.33 0 2.246.643.916.644 1.291 1.752h.136q.435-1.091 1.47-1.743 1.036-.652 2.46-.652 1.806 0 2.948 1.142t1.142 3.332V747h-3.094v-8.31q0-1.218-.647-1.785-.648-.567-1.585-.567-1.117 0-1.743.695-.627.694-.627 1.802V747h-3.025v-8.438q0-1.014-.61-1.619t-1.59-.605q-.664 0-1.21.337-.545.336-.869.946-.324.61-.324 1.419V747zm24.255.256q-1.969 0-3.396-.823-1.428-.822-2.195-2.335-.767-1.513-.767-3.567 0-2.02.771-3.55.772-1.53 2.16-2.386 1.39-.856 3.265-.856 1.21 0 2.288.387 1.079.388 1.91 1.198.83.81 1.308 2.058.477 1.249.477 2.97v.946h-10.73v-2.08h7.773q-.009-.886-.384-1.58-.375-.695-1.044-1.095-.669-.401-1.555-.401-.946 0-1.662.456t-1.112 1.193q-.397.737-.405 1.615v1.816q0 1.142.417 1.956.418.813 1.168 1.244.75.43 1.756.43.673 0 1.218-.191.546-.192.946-.567.401-.375.606-.93l2.88.325q-.273 1.142-1.035 1.99-.763.848-1.948 1.312-1.184.465-2.71.465z" fill="#000" fill-rule="nonzero"></path><circle fill="#000" cx="152.5" cy="623.5" r="19.5"></circle><circle fill="#000" cx="344.5" cy="623.5" r="19.5"></circle><circle fill="#000" cx="641.5" cy="623.5" r="19.5"></circle></g></svg>