<svg viewBox="0 0 1200 900" xmlns="http://www.w3.org/2000/svg"><g fill="none" fill-rule="evenodd"><path d="M58 439.144h1085v38.024H58zm0-76.048h1085v38.024H58zm0-76.048h1085v38.024H58zM58 211h1085v38.024H58z" fill="#FBFBFB"></path><path fill="#EFDCBD" d="M82 183h3v61h-3z"></path><g transform="translate(82.000000, 213.000000)"><rect fill="#B7E7EB" width="125" height="34" rx="2.716"></rect><path d="M28.046 10.592L24.75 20.42h-2.39l4.352-12.364h2.765l4.359 12.364h-2.39l-3.303-9.828h-.097zm-3.217 6.78v-1.8h6.52v1.8h-6.52zm12.333 3.048h-2.24V8.056h4.637q1.425 0 2.394.532.969.53 1.467 1.458.498.926.498 2.103 0 1.19-.501 2.113-.501.924-1.48 1.452-.977.528-2.408.528h-3.073v-1.84h2.771q.833 0 1.364-.29.532-.29.788-.797.257-.508.257-1.166 0-.658-.257-1.159-.256-.5-.79-.781-.535-.281-1.374-.281h-2.053V20.42zM45.32 8.056h2.24V20.42h-2.24V8.056zm15.038 5.542l-1.992.218q-.084-.302-.293-.568-.208-.265-.558-.428-.35-.163-.857-.163-.683 0-1.144.295-.462.296-.456.767-.006.404.299.658t1.01.417l1.583.338q1.316.283 1.959.9.642.615.649 1.611-.007.875-.51 1.542-.505.668-1.398 1.042-.894.374-2.053.374-1.702 0-2.74-.715-1.039-.716-1.238-1.995l2.131-.206q.145.628.616.948.47.32 1.225.32.779 0 1.253-.32.474-.32.474-.79 0-.4-.305-.659-.305-.26-.945-.398l-1.582-.332q-1.334-.278-1.974-.939-.64-.661-.633-1.675-.007-.857.467-1.488.474-.631 1.322-.978.849-.347 1.96-.347 1.63 0 2.568.694.939.694 1.162 1.877zm5.567 7.003q-1.395 0-2.406-.582-1.011-.583-1.555-1.655-.543-1.071-.543-2.526 0-1.43.546-2.514.547-1.084 1.53-1.69.985-.607 2.313-.607.857 0 1.62.274.765.275 1.353.848.589.574.927 1.458.338.885.338 2.104v.67h-7.6v-1.473h5.505q-.006-.628-.272-1.12-.265-.492-.74-.775-.473-.284-1.1-.284-.67 0-1.178.323-.507.323-.788.845-.28.522-.287 1.144v1.286q0 .809.296 1.385.296.577.827.882.531.305 1.244.305.477 0 .863-.136t.67-.402q.284-.265.429-.658l2.04.23q-.193.809-.733 1.41-.54.6-1.38.93-.839.328-1.92.328zm7.613-.181H71.35v-9.273h2.12v1.546h.096q.253-.803.872-1.24.619-.439 1.416-.439.18 0 .407.016.227.015.378.045v2.01q-.14-.048-.438-.087-.299-.04-.577-.04-.597 0-1.071.257-.474.256-.746.71-.271.452-.271 1.044v5.451zM83.8 11.147h2.324l-3.302 9.273h-2.415l-3.302-9.273h2.33l2.131 6.888h.097l2.137-6.888zm7.075 9.454q-1.394 0-2.405-.582-1.012-.583-1.555-1.655-.543-1.071-.543-2.526 0-1.43.546-2.514.546-1.084 1.53-1.69.984-.607 2.313-.607.857 0 1.62.274.764.275 1.353.848.588.574.926 1.458.339.885.339 2.104v.67h-7.601v-1.473h5.506q-.006-.628-.272-1.12-.266-.492-.74-.775-.473-.284-1.101-.284-.67 0-1.177.323-.508.323-.788.845-.281.522-.287 1.144v1.286q0 .809.296 1.385.296.577.827.882.531.305 1.243.305.477 0 .864-.136.386-.136.67-.402.284-.265.428-.658l2.04.23q-.192.809-.733 1.41-.54.6-1.379.93-.84.328-1.92.328zm7.613-.181h-2.185v-9.273h2.119v1.546h.096q.254-.803.873-1.24.618-.439 1.415-.439.181 0 .408.016.226.015.377.045v2.01q-.139-.048-.438-.087-.298-.04-.576-.04-.598 0-1.072.257-.474.256-.745.71-.272.452-.272 1.044v5.451z" fill="#0D2D30" fill-rule="nonzero"></path></g><g transform="translate(527.000000, 327.000000)"><rect fill="#B7E7EB" width="125" height="34" rx="2.716"></rect><path d="M19.606 20.42h-2.24V8.056h2.24v5.681h.151l4.824-5.68h2.734l-4.78 5.547 4.823 6.816h-2.693l-3.688-5.3-1.37 1.617v3.683zm13.958-3.9v-5.373h2.185v9.273H33.63v-1.648h-.096q-.314.779-1.03 1.274-.715.495-1.76.495-.911 0-1.608-.408-.697-.407-1.09-1.189-.392-.782-.392-1.893v-5.904h2.185v5.566q0 .882.483 1.4.483.52 1.268.52.483 0 .936-.235.452-.236.745-.704.293-.468.293-1.174zm6.134 3.9h-2.15V8.056h2.186v4.625h.09q.17-.338.477-.722.308-.383.834-.658.525-.274 1.34-.274 1.074 0 1.94.546.867.546 1.377 1.612.51 1.065.51 2.61 0 1.528-.5 2.597-.502 1.068-1.365 1.63-.864.561-1.956.561-.797 0-1.322-.266-.526-.265-.842-.643-.317-.377-.493-.715h-.126v1.461zm-.006-4.636q0 .9.256 1.575.257.676.743 1.054.486.377 1.18.377.724 0 1.213-.39.49-.389.74-1.068t.25-1.548q0-.864-.247-1.534-.248-.67-.737-1.05t-1.219-.38q-.7 0-1.19.368-.488.368-.739 1.032-.25.664-.25 1.564zM51.73 20.6q-1.395 0-2.406-.582-1.011-.583-1.555-1.655-.543-1.071-.543-2.526 0-1.43.546-2.514.547-1.084 1.53-1.69.985-.607 2.313-.607.857 0 1.62.274.765.275 1.353.848.589.574.927 1.458.338.885.338 2.104v.67h-7.6v-1.473h5.505q-.006-.628-.272-1.12-.265-.492-.74-.775-.473-.284-1.1-.284-.671 0-1.178.323-.507.323-.788.845-.28.522-.287 1.144v1.286q0 .809.296 1.385.296.577.827.882.531.305 1.244.305.477 0 .863-.136t.67-.402q.284-.265.429-.658l2.04.23q-.193.809-.733 1.41-.54.6-1.38.93-.839.328-1.92.328zm5.482-6.23h5.566v1.799h-5.566V14.37zm9.508 9.526h-2.185v-12.75h2.149v1.534h.127q.169-.338.476-.722.308-.383.834-.658.525-.274 1.34-.274 1.074 0 1.94.546.867.546 1.377 1.612.51 1.065.51 2.61 0 1.528-.5 2.597-.502 1.068-1.365 1.63-.864.561-1.956.561-.797 0-1.322-.266-.525-.265-.842-.643-.317-.377-.492-.715h-.091v4.938zm-.042-8.113q0 .9.256 1.575.257.676.743 1.054.486.377 1.18.377.725 0 1.213-.39.49-.389.74-1.068t.25-1.548q0-.864-.247-1.534t-.736-1.05q-.49-.38-1.22-.38-.7 0-1.19.368-.488.368-.739 1.032-.25.664-.25 1.564zm10.118 4.636h-2.185v-9.273h2.119v1.546h.096q.254-.803.872-1.24.62-.439 1.416-.439.181 0 .408.016.226.015.377.045v2.01q-.139-.048-.438-.087-.299-.04-.576-.04-.598 0-1.072.257-.474.256-.745.71-.272.452-.272 1.044v5.451zm7.673.181q-1.358 0-2.354-.598-.996-.597-1.543-1.672-.546-1.074-.546-2.511t.546-2.518q.547-1.08 1.543-1.678.996-.597 2.354-.597 1.359 0 2.355.597.996.598 1.542 1.678.546 1.081.546 2.518 0 1.437-.546 2.511-.546 1.075-1.542 1.672-.996.598-2.355.598zm.012-1.75q.737 0 1.232-.408t.74-1.096q.244-.688.244-1.533 0-.851-.245-1.543-.244-.69-.74-1.101-.494-.41-1.23-.41-.755 0-1.253.41-.498.41-.743 1.101-.244.692-.244 1.543 0 .845.244 1.533.245.688.743 1.096.498.407 1.252.407zm4.848-7.704h2.318l1.872 3.423 1.902-3.423h2.312l-2.795 4.637 2.843 4.636h-2.3l-1.962-3.338-1.944 3.338h-2.318l2.825-4.636-2.753-4.637zm10.91 12.732q-.447 0-.825-.07-.377-.069-.6-.165l.507-1.697q.712.206 1.198.07.486-.136.8-.903l.187-.5-3.362-9.467h2.318l2.137 7.003h.096l2.143-7.003 2.337.012-3.725 10.384q-.26.724-.688 1.25-.429.525-1.048.805-.618.281-1.476.281z" fill="#0D2D30" fill-rule="nonzero"></path></g><g transform="translate(527.000000, 403.000000)"><rect fill="#B7E7EB" width="183" height="34" rx="2.716"></rect><path d="M63.453 8.056h2.24V20.42h-2.24V8.056zm6.219 6.93v5.434h-2.186v-9.273h2.09v1.576h.108q.32-.779 1.023-1.238.703-.458 1.742-.458.96 0 1.675.41.715.41 1.11 1.19.396.778.39 1.889v5.904H73.44v-5.566q0-.93-.48-1.455t-1.325-.525q-.574 0-1.017.25-.444.25-.695.722-.25.47-.25 1.14zm11.67 9.068q-1.178 0-2.023-.314-.845-.314-1.358-.839-.513-.525-.713-1.153l1.969-.477q.132.248.386.51.253.263.685.441.432.178 1.09.178.93 0 1.54-.447.609-.446.609-1.442v-1.757h-.109q-.169.338-.492.694-.323.356-.851.598-.528.241-1.325.241-1.069 0-1.935-.504-.866-.504-1.376-1.51-.51-1.004-.51-2.52 0-1.527.51-2.58.51-1.054 1.38-1.6.868-.546 1.937-.546.815 0 1.343.274.528.275.842.658.314.384.477.722h.121v-1.534h2.155v9.424q0 1.165-.567 1.94-.568.777-1.552 1.16-.984.383-2.233.383zm.018-5.481q.694 0 1.183-.338.489-.338.742-.972.254-.634.254-1.522 0-.875-.25-1.533-.251-.658-.737-1.023-.486-.365-1.192-.365-.73 0-1.22.38-.489.38-.736 1.041-.248.661-.248 1.5 0 .852.25 1.488.251.637.743.99.492.354 1.21.354zm8.222 1.847h-2.185v-9.273h2.119v1.546h.096q.254-.803.873-1.24.619-.439 1.415-.439.182 0 .408.016.226.015.377.045v2.01q-.139-.048-.437-.087-.3-.04-.577-.04-.598 0-1.072.257-.473.256-.745.71-.272.452-.272 1.044v5.451zm7.734.181q-1.395 0-2.406-.582-1.011-.583-1.554-1.655-.544-1.071-.544-2.526 0-1.43.547-2.514.546-1.084 1.53-1.69.984-.607 2.312-.607.857 0 1.621.274.764.275 1.352.848.589.574.927 1.458.338.885.338 2.104v.67h-7.6v-1.473h5.505q-.006-.628-.271-1.12-.266-.492-.74-.775-.474-.284-1.102-.284-.67 0-1.177.323t-.788.845q-.28.522-.286 1.144v1.286q0 .809.295 1.385.296.577.827.882.532.305 1.244.305.477 0 .863-.136.387-.136.67-.402.284-.265.43-.658l2.04.23q-.194.809-.734 1.41-.54.6-1.38.93-.838.328-1.92.328zm12.756-7.003l-1.992.218q-.084-.302-.293-.568-.208-.265-.558-.428-.35-.163-.857-.163-.683 0-1.144.295-.462.296-.456.767-.006.404.299.658t1.01.417l1.583.338q1.316.283 1.959.9.642.615.648 1.611-.006.875-.51 1.542-.504.668-1.397 1.042-.894.374-2.053.374-1.702 0-2.74-.715-1.039-.716-1.238-1.995l2.131-.206q.145.628.616.948.47.32 1.225.32.779 0 1.253-.32.474-.32.474-.79 0-.4-.305-.659-.305-.26-.945-.398l-1.582-.332q-1.334-.278-1.974-.939-.64-.661-.633-1.675-.007-.857.467-1.488.474-.631 1.322-.978.849-.347 1.96-.347 1.63 0 2.568.694.939.694 1.162 1.877zm8.79 0l-1.992.218q-.084-.302-.293-.568-.208-.265-.558-.428-.35-.163-.857-.163-.682 0-1.144.295-.462.296-.456.767-.006.404.299.658t1.011.417l1.582.338q1.316.283 1.959.9.643.615.649 1.611-.006.875-.51 1.542-.505.668-1.398 1.042-.894.374-2.053.374-1.702 0-2.74-.715-1.039-.716-1.238-1.995l2.131-.206q.145.628.616.948.47.32 1.225.32.78 0 1.253-.32.474-.32.474-.79 0-.4-.305-.659-.305-.26-.945-.398l-1.581-.332q-1.335-.278-1.975-.939-.64-.661-.633-1.675-.006-.857.467-1.488.474-.631 1.323-.978.848-.347 1.959-.347 1.63 0 2.568.694.939.694 1.162 1.877z" fill="#0D2D30" fill-rule="nonzero"></path></g><g transform="translate(527.000000, 441.000000)"><rect fill="#B7E7EB" width="147" height="34" rx="2.716"></rect><path d="M47.351 12.228h-2.258q-.096-.556-.356-.987-.26-.432-.646-.734-.386-.301-.878-.455-.492-.154-1.06-.154-1.008 0-1.787.504-.778.504-1.219 1.473-.44.969-.44 2.363 0 1.419.443 2.388.444.969 1.22 1.46.775.493 1.777.493.556 0 1.042-.148t.875-.438q.39-.29.658-.712.269-.423.371-.966l2.258.012q-.127.881-.546 1.654-.42.773-1.096 1.361-.676.589-1.582.918-.905.329-2.01.329-1.63 0-2.91-.755-1.28-.754-2.016-2.179-.736-1.425-.736-3.417 0-1.998.742-3.42.743-1.421 2.022-2.176 1.28-.755 2.898-.755 1.032 0 1.92.29.887.29 1.582.848.694.559 1.144 1.365.45.806.588 1.838zm5.464 8.373q-1.358 0-2.354-.598-.997-.597-1.543-1.672-.546-1.074-.546-2.511t.546-2.518q.546-1.08 1.543-1.678.996-.597 2.354-.597t2.354.597q.996.598 1.543 1.678.546 1.081.546 2.518 0 1.437-.546 2.511-.547 1.075-1.543 1.672-.996.598-2.354.598zm.012-1.75q.737 0 1.232-.408t.74-1.096q.244-.688.244-1.533 0-.851-.245-1.543-.244-.69-.74-1.101-.494-.41-1.231-.41-.755 0-1.253.41-.498.41-.742 1.101-.245.692-.245 1.543 0 .845.245 1.533.244.688.742 1.096.498.407 1.253.407zm7.92 1.569h-2.185v-9.273h2.12v1.546h.096q.254-.803.872-1.24.62-.439 1.416-.439.181 0 .407.016.227.015.378.045v2.01q-.14-.048-.438-.087-.299-.04-.576-.04-.598 0-1.072.257-.474.256-.746.71-.271.452-.271 1.044v5.451zm7.734.181q-1.394 0-2.405-.582-1.011-.583-1.555-1.655-.543-1.071-.543-2.526 0-1.43.546-2.514.547-1.084 1.53-1.69.985-.607 2.313-.607.857 0 1.62.274.764.275 1.353.848.589.574.927 1.458.338.885.338 2.104v.67h-7.6v-1.473h5.505q-.006-.628-.272-1.12-.265-.492-.74-.775-.473-.284-1.101-.284-.67 0-1.177.323t-.788.845q-.28.522-.287 1.144v1.286q0 .809.296 1.385.296.577.827.882.531.305 1.244.305.477 0 .863-.136t.67-.402q.284-.265.429-.658l2.04.23q-.193.809-.733 1.41-.54.6-1.38.93-.839.328-1.92.328zm13.391-.181h-4.19V8.056h4.275q1.84 0 3.166.74 1.325.74 2.037 2.122.713 1.382.713 3.308 0 1.932-.716 3.32-.715 1.389-2.058 2.131-1.343.743-3.227.743zm-1.95-10.426v8.488h1.841q1.292 0 2.156-.474.863-.474 1.297-1.418.435-.945.435-2.364t-.435-2.357q-.434-.94-1.282-1.407-.849-.468-2.104-.468h-1.908zm17.465-1.938h2.228V20.42h-1.992l-5.826-8.422h-.103v8.422h-2.24V8.056h2.005l5.82 8.428h.108V8.056zm12.992 3.4h-2.155q-.085-.792-.71-1.232-.624-.441-1.62-.441-.7 0-1.202.211-.5.212-.766.574t-.272.827q0 .386.178.67.178.284.486.48t.682.329q.374.133.755.223l1.159.29q.7.163 1.35.44.648.278 1.164.701.516.423.818 1.02.302.598.302 1.4 0 1.087-.555 1.911-.556.824-1.603 1.286-1.048.462-2.533.462-1.442 0-2.502-.447-1.06-.446-1.654-1.304-.595-.857-.643-2.088h2.203q.049.646.399 1.074.35.429.915.64.564.211 1.264.211.73 0 1.283-.22.552-.22.866-.616.314-.395.32-.926-.006-.483-.283-.8-.278-.317-.776-.531-.498-.215-1.162-.384l-1.407-.362q-1.527-.392-2.412-1.192-.884-.8-.884-2.128 0-1.093.595-1.914.594-.821 1.62-1.277 1.027-.456 2.325-.456 1.316 0 2.309.456.993.456 1.56 1.262.568.806.586 1.85z" fill="#0D2D30" fill-rule="nonzero"></path></g><g transform="translate(207.000000, 251.000000)"><rect fill="#B7E7EB" width="195" height="34" rx="2.716"></rect><path d="M31.827 20.42h-8.09V8.056h8.042v1.878h-5.802v3.356h5.385v1.878h-5.385v3.375h5.85v1.877zm3.785-5.433v5.433h-2.185v-9.273h2.089v1.576h.109q.32-.779 1.023-1.238.703-.458 1.741-.458.96 0 1.676.41.715.41 1.11 1.19.396.778.39 1.889v5.904h-2.186v-5.566q0-.93-.48-1.455t-1.325-.525q-.573 0-1.017.25-.444.25-.694.722-.25.47-.25 1.14zm11.079 5.596q-1.093 0-1.956-.561-.864-.562-1.365-1.63-.5-1.069-.5-2.596 0-1.546.51-2.611.51-1.066 1.379-1.612t1.938-.546q.815 0 1.34.274.525.275.833.658.308.384.477.722h.09V8.056h2.192V20.42h-2.15v-1.46h-.132q-.17.337-.49.714-.32.378-.844.643-.526.266-1.322.266zm.61-1.793q.694 0 1.182-.377.49-.378.743-1.054.254-.676.254-1.575 0-.9-.25-1.564-.251-.664-.737-1.032T47.3 12.82q-.73 0-1.22.38-.488.38-.736 1.05-.247.67-.247 1.534 0 .869.25 1.548.25.68.743 1.069.492.389 1.21.389zm8.306 5.107h-2.185v-12.75h2.15v1.534h.126q.169-.338.477-.722.308-.383.833-.658.525-.274 1.34-.274 1.075 0 1.941.546.866.546 1.376 1.612.51 1.065.51 2.61 0 1.528-.5 2.597-.502 1.068-1.365 1.63-.863.561-1.956.561-.797 0-1.322-.266-.525-.265-.842-.643-.317-.377-.492-.715h-.09v4.938zm-.042-8.113q0 .9.257 1.575.256.676.742 1.054.486.377 1.18.377.725 0 1.214-.39.489-.389.74-1.068.25-.679.25-1.548 0-.864-.248-1.534-.247-.67-.736-1.05-.49-.38-1.22-.38-.7 0-1.189.368-.489.368-.74 1.032-.25.664-.25 1.564zM67.543 20.6q-1.359 0-2.355-.598-.996-.597-1.542-1.672-.546-1.074-.546-2.511t.546-2.518q.546-1.08 1.542-1.678.996-.597 2.355-.597 1.358 0 2.354.597.996.598 1.543 1.678.546 1.081.546 2.518 0 1.437-.546 2.511-.547 1.075-1.543 1.672-.996.598-2.354.598zm.012-1.75q.736 0 1.231-.408.495-.408.74-1.096.244-.688.244-1.533 0-.851-.244-1.543-.245-.69-.74-1.101-.495-.41-1.231-.41-.755 0-1.253.41-.498.41-.742 1.101-.245.692-.245 1.543 0 .845.245 1.533.244.688.742 1.096.498.407 1.253.407zm7.92 1.569H73.29v-9.273h2.186v9.273zM74.39 9.831q-.525 0-.897-.347-.37-.347-.37-.836 0-.495.373-.842.375-.347.894-.347.52 0 .89.347.372.347.372.842 0 .489-.372.836-.37.347-.89.347zm4.975 5.156v5.433h-2.186v-9.273h2.09v1.576h.108q.32-.779 1.023-1.238.703-.458 1.742-.458.96 0 1.675.41.715.41 1.11 1.19.396.778.39 1.889v5.904h-2.185v-5.566q0-.93-.48-1.455t-1.325-.525q-.574 0-1.018.25-.443.25-.694.722-.25.47-.25 1.14zm6.936-3.84h5.331v1.69h-5.33v-1.69zm1.317 6.846V8.926h2.185v8.705q0 .44.136.673.136.232.359.317.223.085.495.085.205 0 .377-.03.172-.03.263-.055l.368 1.708q-.175.06-.498.133-.323.073-.788.085-.82.024-1.479-.25-.658-.275-1.041-.855-.384-.58-.377-1.449zm13.022 2.608q-1.389 0-2.382-.61-.993-.61-1.527-1.687-.534-1.078-.534-2.484 0-1.413.543-2.496.543-1.084 1.536-1.69.993-.607 2.352-.607 1.129 0 2.001.413.872.414 1.391 1.165.52.752.592 1.754h-2.089q-.126-.67-.6-1.12-.474-.45-1.265-.45-.67 0-1.177.36-.507.359-.788 1.029-.28.67-.28 1.606 0 .947.277 1.627.278.679.782 1.044t1.186.365q.483 0 .866-.184.384-.184.643-.534.26-.35.356-.851h2.09q-.08.984-.58 1.741-.501.758-1.365 1.184-.863.425-2.028.425zm9.273 0q-1.358 0-2.355-.598-.996-.597-1.542-1.672-.546-1.074-.546-2.511t.546-2.518q.546-1.08 1.542-1.678.997-.597 2.355-.597t2.354.597q.996.598 1.543 1.678.546 1.081.546 2.518 0 1.437-.546 2.511-.547 1.075-1.543 1.672-.996.598-2.354.598zm.012-1.75q.736 0 1.231-.408.495-.408.74-1.096.244-.688.244-1.533 0-.851-.244-1.543-.245-.69-.74-1.101-.495-.41-1.231-.41-.755 0-1.253.41-.498.41-.742 1.101-.245.692-.245 1.543 0 .845.245 1.533.244.688.742 1.096.498.407 1.253.407zm7.92-3.864v5.433h-2.185v-9.273h2.09v1.576h.108q.32-.779 1.023-1.238.703-.458 1.742-.458.96 0 1.675.41.715.41 1.11 1.19.396.778.39 1.889v5.904h-2.185v-5.566q0-.93-.48-1.455t-1.325-.525q-.574 0-1.018.25-.443.25-.694.722-.25.47-.25 1.14zm6.937-3.84h5.331v1.69h-5.33v-1.69zm1.317 6.846V8.926h2.185v8.705q0 .44.136.673.136.232.359.317.223.085.495.085.205 0 .377-.03.172-.03.263-.055l.368 1.708q-.175.06-.498.133-.323.073-.788.085-.82.024-1.479-.25-.658-.275-1.041-.855-.384-.58-.377-1.449zm7.486 2.427h-2.186v-9.273h2.12v1.546h.096q.253-.803.872-1.24.619-.439 1.416-.439.18 0 .407.016.227.015.378.045v2.01q-.14-.048-.438-.087-.299-.04-.577-.04-.597 0-1.071.257-.474.256-.746.71-.271.452-.271 1.044v5.451zm7.673.181q-1.358 0-2.354-.598-.997-.597-1.543-1.672-.546-1.074-.546-2.511t.546-2.518q.546-1.08 1.543-1.678.996-.597 2.354-.597t2.354.597q.996.598 1.543 1.678.546 1.081.546 2.518 0 1.437-.546 2.511-.547 1.075-1.543 1.672-.996.598-2.354.598zm.012-1.75q.736 0 1.232-.408.495-.408.739-1.096.245-.688.245-1.533 0-.851-.245-1.543-.244-.69-.74-1.101-.495-.41-1.231-.41-.755 0-1.253.41-.498.41-.742 1.101-.245.692-.245 1.543 0 .845.245 1.533.244.688.742 1.096.498.407 1.253.407zm5.735-10.795h2.186V20.42h-2.186V8.056zm3.889 0h2.185V20.42h-2.185V8.056zm7.993 12.545q-1.395 0-2.406-.582-1.011-.583-1.555-1.655-.543-1.071-.543-2.526 0-1.43.547-2.514.546-1.084 1.53-1.69.984-.607 2.312-.607.857 0 1.62.274.765.275 1.353.848.589.574.927 1.458.338.885.338 2.104v.67h-7.6v-1.473h5.505q-.006-.628-.272-1.12-.265-.492-.74-.775-.473-.284-1.1-.284-.67 0-1.178.323-.507.323-.788.845-.28.522-.287 1.144v1.286q0 .809.296 1.385.296.577.827.882.532.305 1.244.305.477 0 .863-.136.387-.136.67-.402.284-.265.429-.658l2.04.23q-.193.809-.733 1.41-.54.6-1.38.93-.839.328-1.92.328zm7.613-.181h-2.186v-9.273h2.12v1.546h.096q.253-.803.872-1.24.619-.439 1.416-.439.18 0 .407.016.227.015.378.045v2.01q-.14-.048-.438-.087-.299-.04-.577-.04-.597 0-1.071.257-.474.256-.746.71-.271.452-.271 1.044v5.451z" fill="#0D2D30" fill-rule="nonzero"></path></g><path fill="#FBFBFB" d="M58 601h1085v41H58zm0-81h1085v41H58z"></path><path fill="#EFDCBD" d="M422.255 168.687h2.324v457h-2.324zM1108 179h2v526h-2z"></path><g transform="translate(402.000000, 289.000000)"><rect fill="#B7E7EB" width="125" height="34" rx="2.716"></rect><path d="M28.046 10.592L24.75 20.42h-2.39l4.352-12.364h2.765l4.359 12.364h-2.39l-3.303-9.828h-.097zm-3.217 6.78v-1.8h6.52v1.8h-6.52zm12.333 3.048h-2.24V8.056h4.637q1.425 0 2.394.532.969.53 1.467 1.458.498.926.498 2.103 0 1.19-.501 2.113-.501.924-1.48 1.452-.977.528-2.408.528h-3.073v-1.84h2.771q.833 0 1.364-.29.532-.29.788-.797.257-.508.257-1.166 0-.658-.257-1.159-.256-.5-.79-.781-.535-.281-1.374-.281h-2.053V20.42zM45.32 8.056h2.24V20.42h-2.24V8.056zm15.038 5.542l-1.992.218q-.084-.302-.293-.568-.208-.265-.558-.428-.35-.163-.857-.163-.683 0-1.144.295-.462.296-.456.767-.006.404.299.658t1.01.417l1.583.338q1.316.283 1.959.9.642.615.649 1.611-.007.875-.51 1.542-.505.668-1.398 1.042-.894.374-2.053.374-1.702 0-2.74-.715-1.039-.716-1.238-1.995l2.131-.206q.145.628.616.948.47.32 1.225.32.779 0 1.253-.32.474-.32.474-.79 0-.4-.305-.659-.305-.26-.945-.398l-1.582-.332q-1.334-.278-1.974-.939-.64-.661-.633-1.675-.007-.857.467-1.488.474-.631 1.322-.978.849-.347 1.96-.347 1.63 0 2.568.694.939.694 1.162 1.877zm5.567 7.003q-1.395 0-2.406-.582-1.011-.583-1.555-1.655-.543-1.071-.543-2.526 0-1.43.546-2.514.547-1.084 1.53-1.69.985-.607 2.313-.607.857 0 1.62.274.765.275 1.353.848.589.574.927 1.458.338.885.338 2.104v.67h-7.6v-1.473h5.505q-.006-.628-.272-1.12-.265-.492-.74-.775-.473-.284-1.1-.284-.67 0-1.178.323-.507.323-.788.845-.28.522-.287 1.144v1.286q0 .809.296 1.385.296.577.827.882.531.305 1.244.305.477 0 .863-.136t.67-.402q.284-.265.429-.658l2.04.23q-.193.809-.733 1.41-.54.6-1.38.93-.839.328-1.92.328zm7.613-.181H71.35v-9.273h2.12v1.546h.096q.253-.803.872-1.24.619-.439 1.416-.439.18 0 .407.016.227.015.378.045v2.01q-.14-.048-.438-.087-.299-.04-.577-.04-.597 0-1.071.257-.474.256-.746.71-.271.452-.271 1.044v5.451zM83.8 11.147h2.324l-3.302 9.273h-2.415l-3.302-9.273h2.33l2.131 6.888h.097l2.137-6.888zm7.075 9.454q-1.394 0-2.405-.582-1.012-.583-1.555-1.655-.543-1.071-.543-2.526 0-1.43.546-2.514.546-1.084 1.53-1.69.984-.607 2.313-.607.857 0 1.62.274.764.275 1.353.848.588.574.926 1.458.339.885.339 2.104v.67h-7.601v-1.473h5.506q-.006-.628-.272-1.12-.266-.492-.74-.775-.473-.284-1.101-.284-.67 0-1.177.323-.508.323-.788.845-.281.522-.287 1.144v1.286q0 .809.296 1.385.296.577.827.882.531.305 1.243.305.477 0 .864-.136.386-.136.67-.402.284-.265.428-.658l2.04.23q-.192.809-.733 1.41-.54.6-1.379.93-.84.328-1.92.328zm7.613-.181h-2.185v-9.273h2.119v1.546h.096q.254-.803.873-1.24.618-.439 1.415-.439.181 0 .408.016.226.015.377.045v2.01q-.139-.048-.438-.087-.298-.04-.576-.04-.598 0-1.072.257-.474.256-.745.71-.272.452-.272 1.044v5.451z" fill="#0D2D30" fill-rule="nonzero"></path></g><path fill="#EFDCBD" d="M972.927 173.687h2.324v507h-2.324z"></path><g transform="translate(934.000000, 158.000000)"><rect fill="#000" width="80.759" height="27.307" rx="2.324"></rect><path d="M11.283 16.783h1.92q.03.645.51 1.012.48.368 1.29.368.84 0 1.29-.375.45-.375.45-1.005 0-.555-.345-.968-.345-.412-.945-.577l-1.185-.345q-1.38-.375-2.078-1.185-.697-.81-.697-2.025 0-.675.248-1.23.247-.555.697-.945.45-.39 1.095-.607.645-.218 1.455-.218 1.545 0 2.475.795.93.795 1.005 2.16h-1.905q-.03-.615-.465-.96-.435-.345-1.155-.345t-1.147.352q-.428.353-.428.953 0 .495.315.855t.975.555l1.26.36q1.32.375 2.018 1.208.697.832.697 2.077 0 .705-.262 1.275-.263.57-.743.975t-1.155.63q-.675.225-1.515.225-.81 0-1.478-.217-.667-.218-1.147-.608t-.75-.945q-.27-.555-.3-1.245zm11.249-6.3h-2.31V8.848h6.51v1.635h-2.31v7.53h2.31v1.635h-6.51v-1.635h2.31v-7.53zm5.879 6v-4.47q0-.735.255-1.342.255-.608.727-1.035.473-.428 1.133-.66.66-.233 1.47-.233 1.5 0 2.453.78.952.78 1.162 2.19h-1.89q-.09-.6-.555-.945-.465-.345-1.17-.345-.795 0-1.252.428-.458.427-.458 1.162v4.47q0 .765.457 1.215.458.45 1.253.45.795 0 1.253-.45.457-.45.457-1.215v-1.035h-1.905v-1.605h3.78v2.64q0 .75-.255 1.365t-.72 1.05q-.465.435-1.133.668-.667.232-1.477.232t-1.47-.24q-.66-.24-1.133-.675-.472-.435-.727-1.043-.255-.607-.255-1.357zm8.729-7.635h1.89v4.38h1.38l2.07-4.38h2.085l-2.505 5.175 2.625 5.625H42.57l-2.16-4.725h-1.38v4.725h-1.89v-10.8zm10.949 1.635h-2.31V8.848h6.51v1.635h-2.31v7.53h2.31v1.635h-6.51v-1.635h2.31v-7.53zm6.449-1.635h1.875v9.06h4.71v1.74h-6.585v-10.8zm8.519 0h1.875v9.06h4.71v1.74h-6.585v-10.8z" fill="#FFF" fill-rule="nonzero"></path></g><g transform="translate(383.000000, 158.000000)"><rect fill="#000" width="80.759" height="27.307" rx="2.324"></rect><path d="M8.959 16.783h1.92q.03.645.51 1.012.48.368 1.29.368.84 0 1.29-.375.45-.375.45-1.005 0-.555-.345-.968-.345-.412-.945-.577l-1.185-.345q-1.38-.375-2.078-1.185-.697-.81-.697-2.025 0-.675.247-1.23.248-.555.698-.945.45-.39 1.095-.607.645-.218 1.455-.218 1.545 0 2.475.795.93.795 1.005 2.16h-1.905q-.03-.615-.465-.96-.435-.345-1.155-.345t-1.147.352q-.428.353-.428.953 0 .495.315.855t.975.555l1.26.36q1.32.375 2.018 1.208.697.832.697 2.077 0 .705-.262 1.275-.263.57-.743.975t-1.155.63q-.675.225-1.515.225-.81 0-1.478-.217-.667-.218-1.147-.608t-.75-.945q-.27-.555-.3-1.245zm11.249-6.3h-2.31V8.848h6.51v1.635h-2.31v7.53h2.31v1.635h-6.51v-1.635h2.31v-7.53zm5.879 6v-4.47q0-.735.255-1.342.255-.608.728-1.035.472-.428 1.132-.66.66-.233 1.47-.233 1.5 0 2.452.78.953.78 1.163 2.19h-1.89q-.09-.6-.555-.945-.465-.345-1.17-.345-.795 0-1.253.428-.457.427-.457 1.162v4.47q0 .765.457 1.215.458.45 1.253.45.795 0 1.252-.45.458-.45.458-1.215v-1.035h-1.905v-1.605h3.78v2.64q0 .75-.255 1.365t-.72 1.05q-.465.435-1.132.668-.668.232-1.478.232-.81 0-1.47-.24-.66-.24-1.133-.675-.472-.435-.727-1.043-.255-.607-.255-1.357zm11.159-5.91h-2.97V8.848h7.83v1.725h-2.97v9.075h-1.89v-9.075zm12.899 9.075H43.5v-10.8h6.645v1.65h-4.77v2.775h4.245v1.65h-4.245v3.075h4.77v1.65zm1.709-10.8h3.54q.81 0 1.477.232.668.233 1.14.653.473.42.728 1.02.255.6.255 1.335 0 1.08-.54 1.845-.54.765-1.485 1.11l2.175 4.605h-2.07l-1.95-4.32h-1.395v4.32h-1.875v-10.8zm1.875 1.59v3.375h1.665q.78 0 1.238-.45.457-.45.457-1.215 0-.78-.465-1.245-.465-.465-1.23-.465h-1.665zm6.344-1.59h2.22l1.125 3.435q.075.225.135.488.06.262.105.502.045.27.075.54h.12q.03-.27.09-.54.03-.24.082-.502.053-.263.128-.488l1.035-3.435h2.25v10.8h-1.68v-7.005q0-.405.038-.848l.067-.802q.045-.435.105-.84h-.195l-.18.78q-.075.345-.172.72-.098.375-.203.675l-.75 2.565h-1.41l-.795-2.565q-.105-.33-.21-.705-.105-.375-.18-.705-.09-.39-.18-.765h-.165q.06.405.105.84.045.36.075.803.03.442.03.847v7.005h-1.665v-10.8z" fill="#FFF" fill-rule="nonzero"></path></g><g transform="translate(1052.000000, 158.000000)"><rect fill="#000" width="114.457" height="27.307" rx="2.324"></rect><path d="M11.568 8.848h3.735q.81 0 1.477.232.668.233 1.133.66.465.428.72 1.035.255.608.255 1.358 0 .735-.255 1.343-.255.607-.727 1.034-.473.428-1.133.66-.66.233-1.47.233h-1.86v4.245h-1.875v-10.8zm1.875 1.59v3.375h1.86q.78 0 1.23-.458.45-.457.45-1.222 0-.765-.45-1.23-.45-.465-1.23-.465h-1.86zm10.034 9.36q-.81 0-1.477-.24-.668-.24-1.133-.668-.465-.427-.72-1.027-.255-.6-.255-1.335v-2.025q0-.735.255-1.335t.72-1.027q.465-.428 1.133-.66.667-.233 1.477-.233t1.477.232q.668.233 1.133.66.465.428.72 1.028.255.6.255 1.335v2.025q0 .735-.255 1.343-.255.607-.72 1.035-.465.427-1.125.66-.66.232-1.485.232zm-1.71-5.295v2.025q0 .75.457 1.185.458.435 1.253.435.795 0 1.253-.435.457-.435.457-1.185v-2.025q0-.75-.457-1.185-.458-.435-1.253-.435-.795 0-1.253.435-.457.435-.457 1.185zm6.644 2.025v-2.055q0-.75.202-1.343.203-.592.578-1.012.375-.42.9-.645.525-.225 1.155-.225.9 0 1.485.42.585.42.72 1.155h.15l-.03-.51q-.03-.225-.038-.473-.007-.247-.007-.442v-2.55h1.875v10.8h-1.8v-1.44h-.15q-.135.75-.72 1.17-.585.42-1.485.42-.63 0-1.155-.225t-.9-.652q-.375-.428-.578-1.035-.202-.608-.202-1.358zm1.875-2.01v1.965q0 .765.435 1.223.435.457 1.2.457.735 0 1.17-.45.435-.45.435-1.185v-2.01q0-.75-.443-1.2-.442-.45-1.162-.45-.765 0-1.2.442-.435.443-.435 1.208zm15.163 2.01v-2.055q0-.75.203-1.343.202-.592.577-1.012.375-.42.9-.645.525-.225 1.155-.225.9 0 1.485.42.585.42.72 1.155h.15l-.03-.51q-.03-.225-.038-.473-.007-.247-.007-.442v-2.55h1.875v10.8h-1.8v-1.44h-.15q-.135.75-.72 1.17-.585.42-1.485.42-.63 0-1.155-.225t-.9-.652q-.375-.428-.578-1.035-.202-.608-.202-1.358zm1.875-2.01v1.965q0 .765.435 1.223.435.457 1.2.457.735 0 1.17-.45.435-.45.435-1.185v-2.01q0-.75-.443-1.2-.442-.45-1.162-.45-.765 0-1.2.442-.435.443-.435 1.208zm6.644 2.04v-2.085q0-.735.255-1.335t.72-1.02q.465-.42 1.125-.645.66-.225 1.485-.225.81 0 1.463.232.652.233 1.117.653.465.42.72 1.02.255.6.255 1.335v1.5h-5.28v.54q0 .84.457 1.305.458.465 1.268.465.6 0 1.035-.195.435-.195.615-.54h1.845q-.135.51-.45.922-.315.413-.773.706-.457.292-1.035.45-.577.157-1.237.157-.81 0-1.477-.225-.668-.225-1.133-.652-.465-.428-.72-1.028-.255-.6-.255-1.335zm1.86-2.085v.255h3.45v-.24q0-.825-.457-1.282-.458-.458-1.268-.458t-1.267.458q-.458.457-.458 1.267zm8.834-3.99h-2.625V8.788h4.5v8.19q0 .465.262.72.263.255.698.255h2.46v1.695h-2.595q-1.26 0-1.98-.705t-.72-1.965v-6.495zm6.344 6.075v-2.085q0-.735.255-1.335t.72-1.02q.465-.42 1.125-.645.66-.225 1.485-.225.81 0 1.463.232.652.233 1.117.653.465.42.72 1.02.255.6.255 1.335v1.5h-5.28v.54q0 .84.457 1.305.458.465 1.268.465.6 0 1.035-.195.435-.195.615-.54h1.845q-.135.51-.45.922-.315.413-.772.706-.458.292-1.035.45-.578.157-1.238.157-.81 0-1.477-.225-.668-.225-1.133-.652-.465-.428-.72-1.028-.255-.6-.255-1.335zm1.86-2.085v.255h3.45v-.24q0-.825-.457-1.282-.458-.458-1.268-.458t-1.267.458q-.458.457-.458 1.267zm6.419-1.38v-1.695h2.28v-2.55h1.875v2.55h3.135v1.695H83.44v4.005q0 .39.233.623.232.232.652.232h2.1v1.695H84.19q-1.215 0-1.92-.69-.705-.69-.705-1.86v-4.005h-2.28zm8.759 3.465v-2.085q0-.735.255-1.335t.72-1.02q.465-.42 1.125-.645.66-.225 1.485-.225.81 0 1.462.232.653.233 1.118.653.465.42.72 1.02.255.6.255 1.335v1.5h-5.28v.54q0 .84.458 1.305.457.465 1.267.465.6 0 1.035-.195.435-.195.615-.54h1.845q-.135.51-.45.922-.315.413-.773.706-.457.292-1.034.45-.578.157-1.238.157-.81 0-1.478-.225-.667-.225-1.132-.652-.465-.428-.72-1.028-.255-.6-.255-1.335zm1.86-2.085v.255h3.45v-.24q0-.825-.457-1.282-.458-.458-1.268-.458t-1.267.458q-.458.457-.458 1.267zm6.659 2.055v-2.055q0-.75.203-1.343.202-.592.577-1.012.375-.42.9-.645.525-.225 1.155-.225.9 0 1.485.42.585.42.72 1.155h.15l-.03-.51q-.03-.225-.037-.473-.008-.247-.008-.442v-2.55h1.875v10.8h-1.8v-1.44h-.15q-.135.75-.72 1.17-.585.42-1.485.42-.63 0-1.155-.225t-.9-.652q-.375-.428-.578-1.035-.202-.608-.202-1.358zm1.875-2.01v1.965q0 .765.435 1.223.435.457 1.2.457.735 0 1.17-.45.435-.45.435-1.185v-2.01q0-.75-.442-1.2-.443-.45-1.163-.45-.765 0-1.2.442-.435.443-.435 1.208z" fill="#FFF" fill-rule="nonzero"></path></g><g transform="translate(652.000000, 365.000000)"><rect fill="#B7E7EB" width="125" height="34" rx="2.716"></rect><path d="M34.31 20.42h-2.185v-9.273h2.185v9.273zM33.224 9.831q-.526 0-.897-.347t-.371-.836q0-.495.374-.842t.894-.347q.519 0 .89.347t.371.842q0 .489-.371.836t-.89.347zm4.974 14.066h-2.185v-12.75h2.15v1.534h.126q.169-.338.477-.722.308-.383.833-.658.525-.274 1.34-.274 1.075 0 1.941.546.866.546 1.376 1.612.51 1.065.51 2.61 0 1.528-.5 2.597-.502 1.068-1.365 1.63-.863.561-1.956.561-.797 0-1.322-.266-.525-.265-.842-.643-.317-.377-.492-.715h-.09v4.938zm-.042-8.113q0 .9.257 1.575.256.676.742 1.054.486.377 1.18.377.725 0 1.214-.39.489-.389.74-1.068.25-.679.25-1.548 0-.864-.248-1.534-.247-.67-.736-1.05-.49-.38-1.22-.38-.7 0-1.189.368-.489.368-.74 1.032-.25.664-.25 1.564zm7.233-4.637h5.33v1.69h-5.33v-1.69zm1.316 6.846V8.926h2.185v8.705q0 .44.136.673.136.232.36.317.222.085.494.085.205 0 .377-.03.172-.03.263-.055l.368 1.708q-.175.06-.498.133-.323.073-.788.085-.82.024-1.479-.25-.658-.275-1.041-.855-.383-.58-.377-1.449zm7.969 2.614q-.882 0-1.585-.317t-1.11-.939q-.408-.621-.408-1.533 0-.785.29-1.298t.79-.82q.501-.309 1.132-.469.631-.16 1.307-.232.815-.085 1.322-.154.508-.07.74-.217.232-.148.232-.462v-.036q0-.683-.404-1.057-.405-.374-1.165-.374-.803 0-1.271.35-.468.35-.63.827l-2.041-.29q.241-.845.797-1.415.555-.571 1.358-.858.803-.286 1.775-.286.67 0 1.334.156.664.157 1.213.517.55.359.885.975.335.615.335 1.539v6.206h-2.101v-1.274h-.073q-.199.387-.558.722-.36.335-.9.537t-1.264.202zm.567-1.606q.658 0 1.141-.262.483-.263.746-.698.262-.434.262-.947V16q-.102.084-.347.157-.244.072-.546.127-.302.054-.598.096l-.513.073q-.489.066-.875.217-.387.151-.61.42-.223.268-.223.69 0 .605.44.912.441.308 1.123.308zm8.235 1.419h-2.15V8.056h2.186v4.625h.09q.17-.338.478-.722.308-.383.833-.658.525-.274 1.34-.274 1.075 0 1.94.546.867.546 1.377 1.612.51 1.065.51 2.61 0 1.528-.5 2.597-.502 1.068-1.365 1.63-.863.561-1.956.561-.797 0-1.322-.266-.525-.265-.842-.643-.317-.377-.492-.715h-.127v1.461zm-.006-4.636q0 .9.256 1.575.257.676.743 1.054.486.377 1.18.377.725 0 1.214-.39.489-.389.74-1.068.25-.679.25-1.548 0-.864-.248-1.534-.247-.67-.736-1.05-.49-.38-1.22-.38-.7 0-1.189.368-.489.368-.74 1.032-.25.664-.25 1.564zm7.933-7.728h2.185V20.42h-2.185V8.056zm7.993 12.545q-1.395 0-2.406-.582-1.01-.583-1.554-1.655-.544-1.071-.544-2.526 0-1.43.547-2.514.546-1.084 1.53-1.69.984-.607 2.312-.607.858 0 1.621.274.764.275 1.352.848.59.574.927 1.458.338.885.338 2.104v.67h-7.6v-1.473h5.505q-.006-.628-.271-1.12-.266-.492-.74-.775-.474-.284-1.102-.284-.67 0-1.177.323t-.788.845q-.28.522-.286 1.144v1.286q0 .809.296 1.385.295.577.827.882.53.305 1.243.305.477 0 .863-.136.387-.136.67-.402.284-.265.43-.658l2.04.23q-.194.809-.734 1.41-.54.6-1.38.93-.838.328-1.919.328zm12.756-7.003l-1.992.218q-.084-.302-.293-.568-.208-.265-.558-.428-.35-.163-.857-.163-.682 0-1.144.295-.462.296-.456.767-.006.404.299.658t1.01.417l1.583.338q1.316.283 1.959.9.643.615.649 1.611-.006.875-.51 1.542-.505.668-1.398 1.042-.894.374-2.053.374-1.702 0-2.74-.715-1.039-.716-1.238-1.995l2.131-.206q.145.628.616.948.47.32 1.225.32.78 0 1.253-.32.474-.32.474-.79 0-.4-.305-.659-.305-.26-.945-.398l-1.581-.332q-1.335-.278-1.975-.939-.64-.661-.633-1.675-.006-.857.467-1.488.474-.631 1.323-.978.848-.347 1.959-.347 1.63 0 2.568.694.939.694 1.162 1.877z" fill="#0D2D30" fill-rule="nonzero"></path></g><g transform="translate(218.000000, 563.000000)"><rect fill="#B7E7EB" width="81" height="36" rx="2.905"></rect><path d="M13.877 16.49L12.1 18.393l-.006-2.793h.37l3.53-3.944h2.703l-4.34 4.832h-.48zm-1.572 4.985H9.99V8.385h2.314v13.09zm6.616 0h-2.768l-3.196-4.468 1.56-1.63 4.404 6.098zm6.988-4.13v-5.688h2.314v9.818h-2.244V19.73h-.102q-.333.825-1.09 1.349-.757.524-1.863.524-.965 0-1.704-.432-.738-.431-1.154-1.259-.415-.828-.415-2.004v-6.251h2.314v5.893q0 .934.511 1.483.512.55 1.343.55.511 0 .99-.25.48-.249.79-.744.31-.495.31-1.243zm6.49 4.13h-2.276V8.385h2.314v4.895h.096q.179-.358.505-.763.326-.406.882-.697.556-.291 1.419-.291 1.138 0 2.055.578.917.579 1.457 1.707.54 1.128.54 2.765 0 1.617-.53 2.748-.53 1.132-1.445 1.726-.914.595-2.07.595-.845 0-1.4-.282-.557-.28-.892-.68-.336-.4-.521-.758h-.135v1.547zm-.007-4.91q0 .953.272 1.67.271.715.786 1.115.514.4 1.25.4.767 0 1.284-.413.518-.412.783-1.132.266-.719.266-1.64 0-.913-.262-1.623-.263-.71-.78-1.112-.518-.403-1.291-.403-.742 0-1.26.39-.517.39-.783 1.093-.265.703-.265 1.656zm12.741 5.102q-1.477 0-2.547-.617t-1.646-1.751q-.575-1.135-.575-2.676 0-1.514.578-2.662.579-1.147 1.62-1.79 1.042-.642 2.449-.642.907 0 1.716.29.808.292 1.432.899.623.607.98 1.544.359.936.359 2.227v.71H41.45v-1.56h5.83q-.007-.665-.288-1.186-.281-.52-.783-.821-.502-.3-1.166-.3-.71 0-1.247.342-.537.341-.834.894-.297.553-.304 1.212v1.361q0 .857.314 1.467.313.61.875.933.563.323 1.317.323.505 0 .914-.144.41-.143.71-.425.3-.28.453-.696l2.16.242q-.204.857-.776 1.493-.572.636-1.46.984-.889.349-2.033.349zm5.742-13.283h2.314v13.091h-2.314V8.385zm8.458 13.283q-1.476 0-2.547-.617-1.07-.617-1.646-1.751-.575-1.135-.575-2.676 0-1.514.578-2.662.579-1.147 1.62-1.79 1.042-.642 2.449-.642.907 0 1.716.29.809.292 1.432.899.623.607.98 1.544.359.936.359 2.227v.71H55.65v-1.56h5.83q-.007-.665-.288-1.186-.281-.52-.783-.821-.502-.3-1.166-.3-.71 0-1.247.342-.537.341-.834.894-.297.553-.304 1.212v1.361q0 .857.314 1.467.313.61.875.933.563.323 1.317.323.505 0 .914-.144.41-.143.71-.425.3-.28.453-.696l2.161.242q-.205.857-.777 1.493-.572.636-1.46.984-.889.349-2.033.349zm5-10.01h5.645v1.79h-5.645v-1.79zm1.394 7.248v-9.6h2.314v9.217q0 .466.144.713.143.246.38.335.236.09.524.09.217 0 .4-.032.182-.032.278-.058l.39 1.81q-.186.063-.528.14-.342.076-.834.09-.87.025-1.566-.266-.697-.29-1.103-.905-.406-.613-.4-1.534z" fill="#0D2D30" fill-rule="nonzero"></path></g><g transform="translate(58.000000, 158.000000)"><rect fill="#000" width="159.158" height="25.53" rx="2.173"></rect><path d="M8.725 18.346V8.266h1.75v5.418h1.232l1.918-3.038h1.96l-2.38 3.752 2.422 3.948h-2.002l-1.918-3.164h-1.232v3.164h-1.75zm7.88-7.7h1.75v4.802q0 1.512 1.4 1.512t1.4-1.512v-4.802h1.75v4.816q0 1.442-.826 2.233-.826.791-2.324.791-1.498 0-2.324-.798-.826-.798-.826-2.226v-4.816zm7.922 7.7V8.266h1.764v2.324q0 .196-.007.441t-.021.455q-.028.238-.042.49h.126q.14-.686.679-1.078t1.379-.392q.602 0 1.092.21.49.21.833.602.343.392.532.945.189.553.189 1.253v1.918q0 .7-.189 1.267t-.532.966q-.343.399-.833.609-.49.21-1.092.21-.84 0-1.379-.392t-.679-1.092h-.126v1.344h-1.694zm1.764-4.788v1.876q0 .686.399 1.106.399.42 1.085.42.714 0 1.12-.427.406-.427.406-1.141v-1.834q0-.714-.406-1.127-.406-.413-1.12-.413-.672 0-1.078.42t-.406 1.12zm6.018 1.904v-1.946q0-.686.238-1.246.238-.56.672-.952.434-.392 1.05-.602.616-.21 1.386-.21.756 0 1.365.217t1.043.609q.434.392.672.952.238.56.238 1.246v1.4h-4.928v.504q0 .784.427 1.218.427.434 1.183.434.56 0 .966-.182.406-.182.574-.504h1.722q-.126.476-.42.861t-.721.658q-.427.273-.966.42-.539.147-1.155.147-.756 0-1.379-.21t-1.057-.609q-.434-.399-.672-.959-.238-.56-.238-1.246zm1.736-1.946v.238h3.22v-.224q0-.77-.427-1.197-.427-.427-1.183-.427t-1.183.427q-.427.427-.427 1.183zm9.644 4.97q-.756 0-1.372-.21-.616-.21-1.05-.602-.434-.392-.672-.945-.238-.553-.238-1.239v-1.974q0-.686.238-1.239t.672-.945q.434-.392 1.05-.609.616-.217 1.372-.217.672 0 1.246.189t1.008.546q.434.357.721.854t.385 1.127h-1.75q-.098-.532-.532-.861-.434-.329-1.078-.329-.742 0-1.162.392-.42.392-.42 1.092v1.974q0 .686.413 1.078t1.169.392q.63 0 1.071-.329.441-.329.539-.861h1.75q-.098.63-.385 1.127-.287.497-.728.854t-1.008.546q-.567.189-1.239.189zm4.296-6.258v-1.582h2.128v-2.38h1.75v2.38h2.926v1.582h-2.926v3.738q0 .364.217.581.217.217.609.217h1.96v1.582h-2.086q-1.134 0-1.792-.644-.658-.644-.658-1.736v-3.738h-2.128zm10.204-2.436h-2.45V8.21h4.2v7.644q0 .434.245.672.245.238.651.238h2.296v1.582h-2.422q-1.176 0-1.848-.658-.672-.658-.672-1.834V9.792zm13.87 5.642v-1.918q0-.7.189-1.253.189-.553.539-.945.35-.392.84-.602.49-.21 1.078-.21.84 0 1.386.392.546.392.672 1.078h.14l-.028-.476q-.028-.21-.035-.441-.007-.231-.007-.413v-2.38h1.75v10.08h-1.68v-1.344h-.14q-.126.7-.672 1.092-.546.392-1.386.392-.588 0-1.078-.21-.49-.21-.84-.609t-.539-.966q-.189-.567-.189-1.267zm1.75-1.876v1.834q0 .714.406 1.141.406.427 1.12.427.686 0 1.092-.42t.406-1.106v-1.876q0-.7-.413-1.12-.413-.42-1.085-.42-.714 0-1.12.413-.406.413-.406 1.127zm6.2 1.904v-1.946q0-.686.238-1.246.238-.56.672-.952.434-.392 1.05-.602.616-.21 1.386-.21.756 0 1.365.217t1.043.609q.434.392.672.952.238.56.238 1.246v1.4h-4.928v.504q0 .784.427 1.218.427.434 1.183.434.56 0 .966-.182.406-.182.574-.504h1.722q-.126.476-.42.861t-.721.658q-.427.273-.966.42-.539.147-1.155.147-.756 0-1.379-.21t-1.057-.609q-.434-.399-.672-.959-.238-.56-.238-1.246zm1.736-1.946v.238h3.22v-.224q0-.77-.427-1.197-.427-.427-1.183-.427t-1.183.427q-.427.427-.427 1.183zm8.244-3.724h-2.45V8.21h4.2v7.644q0 .434.245.672.245.238.651.238h2.296v1.582h-2.422q-1.176 0-1.848-.658-.672-.658-.672-1.834V9.792zm5.92 5.67v-1.946q0-.686.238-1.246.238-.56.672-.952.434-.392 1.05-.602.616-.21 1.386-.21.756 0 1.365.217t1.043.609q.434.392.672.952.238.56.238 1.246v1.4h-4.928v.504q0 .784.427 1.218.427.434 1.183.434.56 0 .966-.182.406-.182.574-.504h1.722q-.126.476-.42.861t-.721.658q-.427.273-.966.42-.539.147-1.155.147-.756 0-1.379-.21t-1.057-.609q-.434-.399-.672-.959-.238-.56-.238-1.246zm1.736-1.946v.238h3.22v-.224q0-.77-.427-1.197-.427-.427-1.183-.427t-1.183.427q-.427.427-.427 1.183zm5.99-1.288v-1.582h2.128v-2.38h1.75v2.38h2.926v1.582h-2.926v3.738q0 .364.217.581.217.217.609.217h1.96v1.582h-2.086q-1.134 0-1.792-.644-.658-.644-.658-1.736v-3.738h-2.128zm8.174 3.234v-1.946q0-.686.238-1.246.238-.56.672-.952.434-.392 1.05-.602.616-.21 1.386-.21.756 0 1.365.217t1.043.609q.434.392.672.952.238.56.238 1.246v1.4h-4.928v.504q0 .784.427 1.218.427.434 1.183.434.56 0 .966-.182.406-.182.574-.504h1.722q-.126.476-.42.861t-.721.658q-.427.273-.966.42-.539.147-1.155.147-.756 0-1.379-.21t-1.057-.609q-.434-.399-.672-.959-.238-.56-.238-1.246zm1.736-1.946v.238h3.22v-.224q0-.77-.427-1.197-.427-.427-1.183-.427t-1.183.427q-.427.427-.427 1.183zm14.332 7.21v-10.08h1.694v1.33h.126q.14-.686.679-1.078t1.379-.392q.602 0 1.092.21.49.21.833.602.343.392.532.945.189.553.189 1.253v1.918q0 .7-.189 1.267t-.532.966q-.343.399-.833.609-.49.21-1.092.21-.84 0-1.379-.392t-.679-1.092h-.126q0 .042.014.175.014.133.021.329.007.196.021.413.014.217.014.427v2.38h-1.764zm1.764-7.168v1.876q0 .686.399 1.106.399.42 1.085.42.714 0 1.12-.427.406-.427.406-1.141v-1.834q0-.714-.406-1.127-.406-.413-1.12-.413-.672 0-1.078.42t-.406 1.12zm9.364 4.928q-.756 0-1.379-.224t-1.057-.623q-.434-.399-.672-.959-.238-.56-.238-1.246v-1.89q0-.686.238-1.246.238-.56.672-.959.434-.399 1.057-.616.623-.217 1.379-.217t1.379.217q.623.217 1.057.616.434.399.672.959.238.56.238 1.246v1.89q0 .686-.238 1.253-.238.567-.672.966-.434.399-1.05.616-.616.217-1.386.217zm-1.596-4.942v1.89q0 .7.427 1.106.427.406 1.169.406t1.169-.406q.427-.406.427-1.106v-1.89q0-.7-.427-1.106-.427-.406-1.169-.406t-1.169.406q-.427.406-.427 1.106zm6.2 1.89v-1.918q0-.7.189-1.253.189-.553.539-.945.35-.392.84-.602.49-.21 1.078-.21.84 0 1.386.392.546.392.672 1.078h.14l-.028-.476q-.028-.21-.035-.441-.007-.231-.007-.413v-2.38h1.75v10.08h-1.68v-1.344h-.14q-.126.7-.672 1.092-.546.392-1.386.392-.588 0-1.078-.21-.49-.21-.84-.609t-.539-.966q-.189-.567-.189-1.267zm1.75-1.876v1.834q0 .714.406 1.141.406.427 1.12.427.686 0 1.092-.42t.406-1.106v-1.876q0-.7-.413-1.12-.413-.42-1.085-.42-.714 0-1.12.413-.406.413-.406 1.127z" fill="#FFF" fill-rule="nonzero"></path></g><path d="M1114.007 791.987L1143 806.5l-29.007 14.487.005-12-1056-.487-2.5-.001.003-5 2.5.001 1056 .487.006-12zM64.446 849.196h-5.394v-2.65h13.926v2.65h-5.395V864h-3.137v-14.804zM78.603 864h-3.086v-13.09h3.086V864zm-1.534-14.949q-.742 0-1.266-.49t-.524-1.18q0-.7.528-1.19.529-.49 1.262-.49t1.257.49q.524.49.524 1.19 0 .69-.524 1.18t-1.257.49zM84.859 864h-3.086v-13.09h2.949v2.224h.153q.41-1.125 1.356-1.76.946-.635 2.258-.635 1.33 0 2.246.643.916.644 1.291 1.752h.136q.435-1.091 1.47-1.743 1.036-.652 2.46-.652 1.806 0 2.948 1.142t1.142 3.332V864h-3.094v-8.31q0-1.218-.647-1.785-.648-.567-1.585-.567-1.117 0-1.743.695-.627.694-.627 1.802V864h-3.025v-8.438q0-1.014-.61-1.619t-1.59-.605q-.664 0-1.21.337-.545.336-.869.946-.324.61-.324 1.419V864zm24.255.256q-1.969 0-3.396-.823-1.428-.822-2.195-2.335-.767-1.513-.767-3.567 0-2.02.771-3.55.772-1.53 2.16-2.386 1.39-.856 3.265-.856 1.21 0 2.288.387 1.079.388 1.91 1.198.83.81 1.308 2.058.477 1.249.477 2.97v.946h-10.73v-2.08h7.773q-.009-.886-.384-1.58-.375-.695-1.044-1.095-.669-.401-1.555-.401-.946 0-1.662.456t-1.112 1.193q-.397.737-.405 1.615v1.816q0 1.142.417 1.956.418.813 1.168 1.244.75.43 1.756.43.673 0 1.218-.191.546-.192.946-.567.401-.375.606-.93l2.88.325q-.273 1.142-1.035 1.99-.763.848-1.948 1.312-1.184.465-2.71.465z" fill="#000" fill-rule="nonzero"></path><g transform="translate(59.000000, 601.000000)"><circle fill="#688A00" cx="22.809" cy="22.809" r="22.809"></circle><path d="M30.232 31.731v-4.104h-7.394v-.11l1.775-1.48c4.316-3.595 5.416-5.462 5.416-7.652 0-3.53-2.893-5.841-7.431-5.841-4.409 0-7.274 2.449-7.265 6.432h4.88c-.01-1.59.961-2.477 2.385-2.477 1.414 0 2.421.878 2.421 2.33 0 1.34-.86 2.208-2.255 3.364l-7.061 5.841v3.697h14.529z" fill="#FFF" fill-rule="nonzero"></path></g><g transform="translate(59.000000, 282.000000)"><circle fill="#688A00" cx="22.809" cy="22.809" r="22.809"></circle><path fill="#FFF" fill-rule="nonzero" d="M26.322 31.731V12.802H21.59l-4.658 2.847v4.363l4.14-2.477h.111v14.196z"></path></g><g transform="translate(976.000000, 684.779996)"><rect fill="#B7E7EB" width="133.63" height="36.022" rx="2.905"></rect><path d="M29.898 11.08l-3.49 10.406h-2.53l4.608-13.09h2.927l4.615 13.09h-2.53L30 11.08h-.103zm-3.407 7.178v-1.905h6.904v1.905H26.49zm13.055 3.228h-2.372V8.396h4.91q1.508 0 2.534.562 1.026.562 1.553 1.543.527.981.527 2.228 0 1.26-.53 2.237-.53.978-1.566 1.537-1.036.56-2.55.56h-3.254v-1.95h2.934q.882 0 1.444-.307.563-.307.834-.843.272-.537.272-1.234t-.272-1.227q-.271-.53-.837-.828-.566-.297-1.454-.297h-2.173v11.109zm8.63-13.09h2.372v13.09h-2.371V8.396zm15.914 5.867l-2.11.23q-.09-.32-.31-.6-.22-.282-.59-.455-.372-.172-.909-.172-.722 0-1.21.313-.49.313-.483.812-.007.428.316.697.323.268 1.07.44l1.675.359q1.394.3 2.075.952.68.652.687 1.707-.007.927-.54 1.633-.534.706-1.48 1.102-.946.397-2.174.397-1.802 0-2.902-.758-1.099-.757-1.31-2.112l2.257-.218q.153.665.651 1.004.5.339 1.298.339.825 0 1.326-.339.502-.339.502-.837 0-.422-.323-.697-.322-.275-1-.422l-1.675-.352q-1.412-.294-2.09-.994-.677-.7-.671-1.773-.006-.908.495-1.576.502-.668 1.4-1.035.898-.368 2.074-.368 1.726 0 2.72.735.994.735 1.23 1.988zm5.888 7.415q-1.476 0-2.547-.617-1.07-.617-1.646-1.751-.575-1.135-.575-2.676 0-1.514.578-2.662.579-1.147 1.62-1.79 1.043-.642 2.449-.642.908 0 1.716.29.809.292 1.432.899.623.607.981 1.544.358.936.358 2.227v.71h-8.047v-1.56h5.83q-.007-.665-.288-1.186-.282-.52-.783-.821-.502-.3-1.167-.3-.71 0-1.246.342-.537.341-.835.894-.297.553-.303 1.212v1.361q0 .857.313 1.467.313.61.876.933.562.323 1.316.323.505 0 .914-.144.41-.143.71-.425.3-.28.454-.696l2.16.242q-.204.857-.776 1.493-.572.636-1.46.984-.89.349-2.034.349zm8.056-.192H75.72v-9.818h2.244v1.636h.102q.269-.85.924-1.313.655-.464 1.499-.464.191 0 .431.016t.4.048v2.129q-.147-.051-.464-.093-.316-.042-.61-.042-.633 0-1.135.272t-.79.751q-.287.48-.287 1.106v5.772zm10.862-9.818h2.46l-3.496 9.818h-2.556l-3.497-9.818h2.467l2.257 7.293h.102l2.263-7.293zm7.487 10.01q-1.477 0-2.548-.617-1.07-.617-1.646-1.751-.575-1.135-.575-2.676 0-1.514.579-2.662.578-1.147 1.62-1.79 1.042-.642 2.448-.642.908 0 1.716.29.81.292 1.432.899.624.607.981 1.544.358.936.358 2.227v.71h-8.047v-1.56h5.83q-.007-.665-.288-1.186-.282-.52-.783-.821-.502-.3-1.167-.3-.71 0-1.246.342-.537.341-.834.894-.298.553-.304 1.212v1.361q0 .857.313 1.467.313.61.876.933.562.323 1.317.323.505 0 .914-.144.409-.143.71-.425.3-.28.453-.696l2.16.242q-.204.857-.776 1.493-.572.636-1.46.984-.89.349-2.033.349zm8.055-.192h-2.314v-9.818h2.244v1.636h.102q.269-.85.924-1.313.655-.464 1.499-.464.192 0 .431.016.24.016.4.048v2.129q-.147-.051-.464-.093-.316-.042-.61-.042-.633 0-1.135.272-.501.272-.79.751-.287.48-.287 1.106v5.772z" fill="#0D2D30" fill-rule="nonzero"></path></g><g transform="translate(298.758998, 604.020997)"><rect fill="#B7E7EB" width="125.496" height="36.022" rx="2.905"></rect><path d="M10.713 21.486H8.34V8.396h4.91q1.508 0 2.534.562 1.026.562 1.553 1.543.527.981.527 2.228 0 1.26-.53 2.237-.53.978-1.566 1.537-1.036.56-2.55.56H9.964v-1.95h2.934q.882 0 1.444-.307.563-.307.834-.843.272-.537.272-1.234t-.272-1.227q-.271-.53-.837-.828-.566-.297-1.454-.297h-2.173v11.109zm10.842 0h-2.314v-9.818h2.244v1.636h.102q.269-.85.924-1.313.655-.464 1.499-.464.192 0 .431.016.24.016.4.048v2.129q-.147-.051-.464-.093-.316-.042-.61-.042-.633 0-1.135.272-.501.272-.79.751-.287.48-.287 1.106v5.772zm8.184.192q-1.477 0-2.548-.617-1.07-.617-1.645-1.751-.576-1.135-.576-2.676 0-1.514.579-2.662.578-1.147 1.62-1.79 1.042-.642 2.448-.642.908 0 1.717.29.808.292 1.431.899.624.607.982 1.544.357.936.357 2.227v.71h-8.047v-1.56h5.83q-.007-.665-.288-1.186-.281-.52-.783-.821-.502-.3-1.167-.3-.71 0-1.246.342-.537.341-.834.894-.298.553-.304 1.212v1.361q0 .857.313 1.467.313.61.876.933.562.323 1.317.323.505 0 .914-.144.409-.143.71-.425.3-.28.453-.696l2.16.242q-.204.857-.776 1.493-.572.636-1.46.984-.89.349-2.033.349zm13.501-7.415l-2.109.23q-.09-.32-.31-.6-.22-.282-.591-.455-.371-.172-.908-.172-.722 0-1.211.313-.49.313-.483.812-.006.428.317.697.322.268 1.07.44l1.675.359q1.393.3 2.074.952.68.652.687 1.707-.006.927-.54 1.633t-1.48 1.102q-.946.397-2.173.397-1.802 0-2.902-.758-1.1-.757-1.31-2.112l2.256-.218q.154.665.652 1.004.499.339 1.298.339.824 0 1.326-.339.502-.339.502-.837 0-.422-.323-.697-.323-.275-1-.422l-1.675-.352q-1.413-.294-2.09-.994-.678-.7-.671-1.773-.007-.908.495-1.576t1.4-1.035q.898-.368 2.074-.368 1.726 0 2.72.735.994.735 1.23 1.988zm.801-2.595h5.644v1.79h-5.644v-1.79zm1.394 7.248v-9.6h2.313v9.217q0 .466.144.713.144.246.38.335.237.09.525.09.217 0 .4-.032.181-.032.277-.058l.39 1.81q-.185.063-.527.14-.342.076-.834.09-.87.025-1.566-.266-.697-.29-1.103-.905-.406-.613-.4-1.534zm9.787 2.762q-1.438 0-2.492-.633-1.055-.633-1.634-1.77-.578-1.138-.578-2.66 0-1.521.578-2.665.579-1.144 1.634-1.777 1.054-.633 2.492-.633 1.439 0 2.493.633 1.055.633 1.634 1.777.578 1.144.578 2.665 0 1.522-.578 2.66-.579 1.137-1.634 1.77-1.054.633-2.493.633zm.013-1.854q.78 0 1.304-.431.524-.432.783-1.16.26-.73.26-1.624 0-.901-.26-1.633-.259-.732-.783-1.167-.524-.435-1.304-.435-.799 0-1.326.435t-.786 1.167q-.26.732-.26 1.633 0 .895.26 1.623.259.73.786 1.16.527.432 1.326.432zm8.382 5.344h-2.314v-13.5h2.276v1.623h.134q.179-.358.505-.763.326-.406.882-.697.556-.291 1.419-.291 1.138 0 2.055.578.917.579 1.457 1.707.54 1.128.54 2.765 0 1.617-.53 2.748-.53 1.132-1.445 1.726-.914.595-2.07.595-.844 0-1.4-.282-.557-.28-.892-.68-.336-.4-.521-.758h-.096v5.229zm-.045-8.591q0 .952.272 1.668.271.716.786 1.116.515.4 1.25.4.767 0 1.284-.413.518-.412.783-1.132.266-.719.266-1.64 0-.913-.262-1.623t-.78-1.112q-.518-.403-1.291-.403-.742 0-1.26.39-.517.39-.783 1.093-.265.703-.265 1.656zm14.597-.844v5.753h-2.314V8.396h2.262v4.94h.115q.346-.83 1.071-1.313.726-.483 1.85-.483 1.023 0 1.784.428.76.429 1.18 1.253.418.825.418 2.014v6.251h-2.314v-5.893q0-.991-.508-1.544t-1.422-.553q-.614 0-1.097.265-.482.265-.754.764-.271.499-.271 1.208zm12.42 5.945q-1.437 0-2.492-.633t-1.633-1.77q-.579-1.138-.579-2.66 0-1.521.579-2.665.578-1.144 1.633-1.777 1.055-.633 2.493-.633t2.493.633q1.055.633 1.633 1.777.578 1.144.578 2.665 0 1.522-.578 2.66-.578 1.137-1.633 1.77-1.055.633-2.493.633zm.014-1.854q.78 0 1.304-.431.524-.432.783-1.16.259-.73.259-1.624 0-.901-.26-1.633-.258-.732-.782-1.167-.524-.435-1.304-.435-.8 0-1.327.435-.527.435-.786 1.167t-.259 1.633q0 .895.26 1.623.258.73.785 1.16.528.432 1.327.432zm10.35 1.854q-1.438 0-2.493-.633-1.054-.633-1.633-1.77-.578-1.138-.578-2.66 0-1.521.578-2.665.579-1.144 1.633-1.777 1.055-.633 2.493-.633t2.493.633q1.055.633 1.633 1.777.579 1.144.579 2.665 0 1.522-.579 2.66-.578 1.137-1.633 1.77-1.055.633-2.493.633zm.013-1.854q.78 0 1.304-.431.524-.432.783-1.16.259-.73.259-1.624 0-.901-.26-1.633-.258-.732-.782-1.167-.524-.435-1.304-.435-.8 0-1.326.435-.528.435-.787 1.167t-.259 1.633q0 .895.26 1.623.258.73.786 1.16.527.432 1.326.432zm9.954-3.324l-1.777 1.905-.006-2.793h.37l3.529-3.944h2.704L111.4 16.5h-.48zm-1.572 4.986h-2.314V8.396h2.314v13.09zm6.615 0h-2.767L110 17.018l1.56-1.63 4.403 6.098z" fill="#0D2D30" fill-rule="nonzero"></path></g><g transform="translate(424.254996, 644.109996)"><rect fill="#B7E7EB" width="552" height="36.022" rx="2.905"></rect><path d="M207.945 12.575h-2.416q-.16-.517-.438-.93-.278-.412-.665-.706-.386-.294-.885-.444-.498-.15-1.086-.15-1.055 0-1.88.53-.824.53-1.294 1.557-.47 1.026-.47 2.496 0 1.483.467 2.512.466 1.029 1.297 1.563.831.533 1.93.533.998 0 1.73-.383.732-.384 1.128-1.09.396-.706.396-1.659l.537.083h-3.554v-1.853h5.312v1.572q0 1.681-.716 2.909-.716 1.227-1.969 1.888-1.253.662-2.876.662-1.81 0-3.174-.815-1.364-.815-2.128-2.32-.764-1.506-.764-3.577 0-1.585.45-2.831.451-1.247 1.263-2.12.812-.872 1.905-1.329 1.093-.457 2.378-.457 1.086 0 2.026.317.94.316 1.671.898.732.581 1.205 1.38.473.8.62 1.764zm4.035 8.911h-2.314v-9.818h2.244v1.636h.102q.269-.85.924-1.313.655-.464 1.499-.464.192 0 .431.016.24.016.4.048v2.129q-.147-.051-.464-.093-.316-.042-.61-.042-.633 0-1.135.272-.501.272-.789.751-.288.48-.288 1.106v5.772zm6.886.198q-.933 0-1.678-.335-.744-.336-1.176-.994-.431-.659-.431-1.624 0-.83.307-1.374.306-.544.837-.87.53-.326 1.198-.495.668-.17 1.384-.246.863-.09 1.4-.163.537-.074.783-.23.246-.157.246-.49v-.038q0-.722-.428-1.118-.428-.396-1.234-.396-.85 0-1.345.37-.496.371-.668.876l-2.16-.307q.255-.895.843-1.499.588-.604 1.438-.907.85-.304 1.88-.304.71 0 1.412.166.703.166 1.285.547.582.38.936 1.032.355.652.355 1.63v6.571h-2.224v-1.349h-.077q-.21.41-.591.764-.38.355-.953.569-.572.214-1.339.214zm.601-1.7q.697 0 1.208-.278.512-.278.79-.738.278-.46.278-1.004v-1.157q-.109.09-.368.166-.259.077-.578.134-.32.058-.633.103l-.543.076q-.518.07-.927.23-.41.16-.646.445-.236.284-.236.732 0 .639.466.965.467.326 1.19.326zm10.619 1.694q-1.47 0-2.522-.646-1.051-.645-1.617-1.786-.566-1.141-.566-2.63 0-1.496.576-2.644.575-1.147 1.626-1.79 1.052-.642 2.49-.642 1.195 0 2.12.438.923.438 1.472 1.233.55.796.627 1.857h-2.212q-.134-.71-.636-1.185-.502-.477-1.339-.477-.71 0-1.246.38-.537.381-.834 1.09-.298.71-.298 1.7 0 1.004.294 1.724.294.719.828 1.105.534.387 1.256.387.511 0 .917-.195t.681-.566q.275-.37.377-.9h2.212q-.083 1.041-.614 1.843-.53.802-1.444 1.253-.914.45-2.148.45zm9.877 0q-1.476 0-2.547-.617-1.07-.617-1.646-1.751-.575-1.135-.575-2.676 0-1.514.578-2.662.579-1.147 1.62-1.79 1.043-.642 2.449-.642.908 0 1.716.29.809.292 1.432.899.623.607.981 1.544.358.936.358 2.227v.71h-8.047v-1.56h5.83q-.007-.665-.289-1.186-.28-.52-.783-.821-.501-.3-1.166-.3-.71 0-1.247.342-.537.341-.834.894-.297.553-.303 1.212v1.361q0 .857.313 1.467.313.61.876.933.562.323 1.316.323.505 0 .914-.144.41-.143.71-.425.3-.28.454-.696l2.16.242q-.204.857-.776 1.493-.572.636-1.461.984-.888.349-2.033.349zm4.911-10.01h5.804v1.79h-5.804v-1.79zm3.771 9.818h-2.32V10.741q0-.99.412-1.65.413-.658 1.11-.984.696-.326 1.546-.326.601 0 1.068.096.466.096.69.173l-.46 1.79q-.147-.045-.37-.093-.225-.048-.5-.048-.645 0-.91.31-.266.31-.266.885v10.592zm9.526-4.13v-5.688h2.314v9.818h-2.243v-1.745h-.103q-.332.825-1.09 1.349-.757.524-1.863.524-.965 0-1.703-.432-.739-.431-1.154-1.259-.416-.828-.416-2.004v-6.251h2.314v5.893q0 .934.512 1.483.511.55 1.342.55.511 0 .99-.25.48-.249.79-.744.31-.495.31-1.243zm4.112-8.96h2.314v13.09h-2.314V8.396zm15.76 5.867l-2.11.23q-.09-.32-.31-.6-.22-.282-.59-.455-.372-.172-.909-.172-.722 0-1.21.313-.49.313-.483.812-.007.428.316.697.323.268 1.07.44l1.675.359q1.394.3 2.075.952.68.652.687 1.707-.007.927-.54 1.633-.534.706-1.48 1.102-.946.397-2.173.397-1.803 0-2.902-.758-1.1-.757-1.31-2.112l2.256-.218q.153.665.652 1.004.498.339 1.297.339.825 0 1.326-.339.502-.339.502-.837 0-.422-.323-.697-.322-.275-1-.422l-1.675-.352q-1.412-.294-2.09-.994-.677-.7-.671-1.773-.006-.908.495-1.576.502-.668 1.4-1.035.898-.368 2.074-.368 1.726 0 2.72.735.994.735 1.23 1.988zm3.856 1.47v5.753h-2.314V8.396h2.263v4.94h.115q.345-.83 1.07-1.313.726-.483 1.85-.483 1.024 0 1.784.428.76.429 1.18 1.253.418.825.418 2.014v6.251h-2.314v-5.893q0-.991-.508-1.544t-1.422-.553q-.614 0-1.096.265-.483.265-.755.764-.271.499-.271 1.208zm14.396 1.624v-5.69h2.314v9.819h-2.243v-1.745h-.103q-.332.825-1.09 1.349-.757.524-1.863.524-.965 0-1.703-.432-.738-.431-1.154-1.259-.415-.828-.415-2.004v-6.251h2.313v5.893q0 .934.512 1.483.511.55 1.342.55.512 0 .991-.25.48-.249.79-.744.31-.495.31-1.243zm3.37-5.69h5.645v1.79h-5.644v-1.79zm1.394 7.25V9.315h2.314v9.217q0 .466.144.713.144.246.38.335.237.09.524.09.218 0 .4-.032.182-.032.278-.058l.39 1.81q-.186.063-.528.14-.341.076-.834.09-.869.025-1.566-.266-.696-.29-1.102-.905-.406-.613-.4-1.534zm9.149 2.742q-1.157 0-2.071-.595-.914-.594-1.445-1.726-.53-1.131-.53-2.748 0-1.637.54-2.765.54-1.128 1.46-1.707.92-.578 2.052-.578.863 0 1.42.29.555.292.881.698.326.405.505.763h.096V8.395h2.32v13.091h-2.275v-1.547h-.14q-.18.358-.518.758-.34.4-.895.68-.556.282-1.4.282zm.645-1.899q.736 0 1.253-.4.518-.399.786-1.115.269-.716.269-1.668 0-.953-.265-1.656-.266-.703-.78-1.093-.515-.39-1.263-.39-.773 0-1.29.403-.519.403-.78 1.112-.263.71-.263 1.624 0 .92.266 1.64.265.719.786 1.13.52.413 1.281.413zm10.76 1.918q-1.438 0-2.493-.633t-1.633-1.77q-.579-1.138-.579-2.66 0-1.521.579-2.665.578-1.144 1.633-1.777 1.055-.633 2.493-.633t2.493.633q1.055.633 1.633 1.777.578 1.144.578 2.665 0 1.522-.578 2.66-.578 1.137-1.633 1.77-1.055.633-2.493.633zm.013-1.854q.78 0 1.304-.431.524-.432.783-1.16.259-.73.259-1.624 0-.901-.26-1.633-.258-.732-.782-1.167-.524-.435-1.304-.435-.8 0-1.327.435-.527.435-.786 1.167t-.259 1.633q0 .895.26 1.623.258.73.785 1.16.528.432 1.327.432zm10.241 1.662h-2.416l-2.774-9.818h2.359l1.726 6.903h.09l1.763-6.903h2.333l1.765 6.865h.095l1.7-6.865h2.366l-2.78 9.818h-2.41l-1.841-6.635h-.135l-1.84 6.635zm12.364-5.753v5.753h-2.314v-9.818h2.212v1.668h.115q.339-.824 1.084-1.31.744-.486 1.844-.486 1.016 0 1.773.435.758.434 1.177 1.259.418.824.412 2v6.252h-2.314v-5.893q0-.985-.508-1.54-.508-.557-1.403-.557-.608 0-1.077.265-.47.265-.735.764-.266.499-.266 1.208z" fill="#0D2D30" fill-rule="nonzero"></path></g><g transform="translate(84.000000, 522.000000)"><rect fill="#B7E7EB" width="134" height="36" rx="2.905"></rect><path d="M30.082 11.069l-3.49 10.406h-2.53l4.608-13.09h2.927l4.615 13.09h-2.53l-3.497-10.406h-.103zm-3.407 7.178v-1.905h6.904v1.905h-6.904zm13.055 3.228h-2.372V8.385h4.91q1.508 0 2.534.562 1.026.562 1.553 1.543.527.981.527 2.228 0 1.26-.53 2.237-.53.978-1.566 1.537-1.036.56-2.55.56h-3.254v-1.95h2.934q.882 0 1.444-.307.563-.307.834-.843.272-.537.272-1.234t-.272-1.227q-.271-.53-.837-.828-.566-.297-1.454-.297H39.73v11.109zm8.63-13.09h2.372v13.09h-2.371V8.385zm15.914 5.867l-2.11.23q-.09-.32-.31-.6-.22-.282-.59-.455-.372-.172-.909-.172-.722 0-1.21.313-.49.313-.483.812-.007.428.316.697.323.268 1.07.44l1.675.359q1.394.3 2.075.952.68.652.687 1.707-.007.927-.54 1.633-.534.706-1.48 1.102-.946.397-2.174.397-1.802 0-2.902-.758-1.099-.757-1.31-2.112l2.257-.218q.153.665.651 1.004.5.339 1.298.339.825 0 1.326-.339.502-.339.502-.837 0-.422-.323-.697-.322-.275-1-.422l-1.675-.352q-1.412-.294-2.09-.994-.677-.7-.671-1.773-.006-.908.495-1.576.502-.668 1.4-1.035.898-.368 2.074-.368 1.726 0 2.72.735.994.735 1.23 1.988zm5.888 7.415q-1.476 0-2.547-.617-1.07-.617-1.646-1.751-.575-1.135-.575-2.676 0-1.514.578-2.662.579-1.147 1.62-1.79 1.043-.642 2.449-.642.908 0 1.716.29.809.292 1.432.899.623.607.981 1.544.358.936.358 2.227v.71h-8.047v-1.56h5.83q-.007-.665-.288-1.186-.282-.52-.783-.821-.502-.3-1.167-.3-.71 0-1.246.342-.537.341-.835.894-.297.553-.303 1.212v1.361q0 .857.313 1.467.313.61.876.933.562.323 1.316.323.505 0 .914-.144.41-.143.71-.425.3-.28.454-.696l2.16.242q-.204.857-.776 1.493-.572.636-1.46.984-.89.349-2.034.349zm8.056-.192h-2.314v-9.818h2.244v1.636h.102q.269-.85.924-1.313.655-.464 1.499-.464.191 0 .431.016t.4.048v2.129q-.147-.051-.464-.093-.316-.042-.61-.042-.633 0-1.135.272t-.79.751q-.287.48-.287 1.106v5.772zm10.862-9.818h2.46l-3.496 9.818h-2.556l-3.497-9.818h2.467l2.257 7.293h.102l2.263-7.293zm7.487 10.01q-1.477 0-2.548-.617-1.07-.617-1.646-1.751-.575-1.135-.575-2.676 0-1.514.579-2.662.578-1.147 1.62-1.79 1.042-.642 2.448-.642.908 0 1.716.29.81.292 1.432.899.624.607.981 1.544.358.936.358 2.227v.71h-8.047v-1.56h5.83q-.007-.665-.288-1.186-.282-.52-.783-.821-.502-.3-1.167-.3-.71 0-1.246.342-.537.341-.834.894-.298.553-.304 1.212v1.361q0 .857.313 1.467.313.61.876.933.562.323 1.317.323.505 0 .914-.144.409-.143.71-.425.3-.28.453-.696l2.16.242q-.204.857-.776 1.493-.572.636-1.46.984-.89.349-2.033.349zm8.055-.192h-2.314v-9.818h2.244v1.636h.102q.269-.85.924-1.313.655-.464 1.499-.464.192 0 .431.016.24.016.4.048v2.129q-.147-.051-.464-.093-.316-.042-.61-.042-.633 0-1.135.272-.501.272-.79.751-.287.48-.287 1.106v5.772z" fill="#0D2D30" fill-rule="nonzero"></path></g><path fill="#E02020" opacity=".171" d="M777 186h199v552H777z"></path><path d="M885.5 646.115v5.797h-32v-12q0-3.688 1.375-6.196 1.375-2.507 3.773-3.796 2.399-1.29 5.446-1.29 3.078 0 5.468 1.297 2.391 1.297 3.758 3.828 1.367 2.532 1.367 6.235v7.953h-4.765v-7.172q0-2.156-.75-3.531t-2.063-2.04q-1.312-.663-3.015-.663t-3 .664q-1.297.664-2.024 2.047-.726 1.382-.726 3.554v5.313H885.5zm.469-32.39q0 3.515-1.547 6.093t-4.328 3.992q-2.782 1.414-6.5 1.414-3.719 0-6.516-1.414t-4.344-3.992q-1.547-2.578-1.547-6.094 0-3.515 1.547-6.094 1.547-2.578 4.344-3.992 2.797-1.414 6.516-1.414 3.718 0 6.5 1.414 2.781 1.414 4.328 3.992 1.547 2.579 1.547 6.094zm-4.532-.032q0-1.906-1.054-3.188-1.055-1.28-2.836-1.914-1.781-.632-3.969-.632-2.203 0-3.992.632-1.79.633-2.852 1.914-1.062 1.282-1.062 3.188 0 1.953 1.062 3.242 1.063 1.29 2.852 1.922 1.789.633 3.992.633 2.188 0 3.969-.633 1.781-.633 2.836-1.922 1.054-1.289 1.054-3.242zm4.485-25.156q0 2.828-1.453 5.062-1.453 2.235-4.219 3.531-2.766 1.297-6.719 1.297-4 0-6.758-1.32-2.757-1.32-4.171-3.57-1.415-2.25-1.415-5.016 0-2.11.711-3.469t1.704-2.156q.992-.797 1.867-1.234v-.235H853.5v-5.672h32v5.563h-3.781v.344q.875.437 1.851 1.265.977.828 1.664 2.188.688 1.36.688 3.422zm-4.64-1.578q0-1.797-.977-3.063-.977-1.265-2.727-1.922-1.75-.656-4.078-.656-2.328 0-4.047.648-1.719.649-2.672 1.907-.953 1.257-.953 3.086 0 1.89.985 3.156.984 1.265 2.718 1.906 1.735.64 3.969.64 2.25 0 4.008-.648t2.765-1.922q1.008-1.273 1.008-3.132zm4.218-33.828v5.656h-24v-5.657h24zm-27.406 2.812q0 1.36-.899 2.32-.898.961-2.164.961-1.281 0-2.18-.969-.898-.968-.898-2.312 0-1.344.899-2.305.898-.96 2.18-.96 1.265 0 2.163.96.899.961.899 2.305zm9.75-27.594l.562 5.156q-.781.22-1.468.758-.688.54-1.11 1.446-.422.906-.422 2.218 0 1.766.766 2.961.765 1.196 1.984 1.18 1.047.016 1.703-.773.657-.79 1.078-2.618l.875-4.093q.735-3.407 2.329-5.07 1.593-1.665 4.172-1.68 2.265.015 3.992 1.32 1.726 1.305 2.695 3.617.969 2.313.969 5.313 0 4.406-1.852 7.093-1.851 2.688-5.164 3.203l-.531-5.515q1.625-.375 2.453-1.594.828-1.219.828-3.172 0-2.015-.828-3.242-.828-1.226-2.047-1.226-1.031 0-1.703.789-.672.789-1.031 2.445l-.86 4.094q-.718 3.453-2.43 5.109-1.71 1.656-4.335 1.64-2.219.016-3.852-1.21-1.633-1.227-2.531-3.422-.899-2.196-.899-5.07 0-4.22 1.797-6.649 1.797-2.43 4.86-3.008zm7.562-31.406H861.5v-5.656h24v5.484h-4.266v.25q2.016.813 3.297 2.664 1.282 1.852 1.282 4.555 0 2.36-1.055 4.164-1.055 1.805-3.078 2.82-2.024 1.016-4.899 1.016H861.5v-5.656h14.406q2.282 0 3.625-1.25 1.344-1.25 1.344-3.282 0-1.25-.61-2.422-.609-1.171-1.82-1.93-1.21-.757-3.039-.757zm-3.968-17.125H885.5v5.656h-24v-5.406h4.078v-.281q-2.015-.828-3.203-2.649-1.187-1.82-1.187-4.507 0-2.485 1.062-4.336 1.063-1.852 3.078-2.875 2.016-1.024 4.89-1.008H885.5v5.656h-14.406q-2.407 0-3.766 1.242-1.36 1.242-1.36 3.43 0 1.484.65 2.633.648 1.148 1.866 1.797 1.22.648 2.953.648zM885.5 452.99v5.656h-24v-5.484h4v-.25q-2.078-.656-3.21-2.258-1.134-1.602-1.134-3.664 0-.469.04-1.055.038-.586.117-.976h5.203q-.125.359-.227 1.132-.101.774-.101 1.493 0 1.546.664 2.773t1.835 1.93q1.172.703 2.704.703H885.5zm.469-21.422q0 3.61-1.508 6.227-1.508 2.617-4.281 4.023-2.774 1.406-6.54 1.406-3.702 0-6.507-1.414-2.805-1.414-4.375-3.96-1.57-2.548-1.57-5.985 0-2.219.71-4.195.711-1.977 2.196-3.5 1.484-1.524 3.773-2.399 2.29-.875 5.445-.875h1.735v19.672h-3.813v-14.25q-1.625.016-2.898.703-1.274.688-2.008 1.914-.734 1.227-.734 2.852 0 1.734.836 3.047.836 1.312 2.187 2.039 1.352.726 2.961.742h3.328q2.094 0 3.586-.766 1.492-.765 2.281-2.14.79-1.375.79-3.22 0-1.233-.352-2.233t-1.04-1.735q-.687-.734-1.702-1.11l.593-5.28q2.094.5 3.649 1.898 1.555 1.398 2.406 3.57.852 2.172.852 4.969zm.015-22.36q0 2.282-.82 4.102-.82 1.82-2.43 2.875-1.609 1.055-3.968 1.055-2.032 0-3.36-.75-1.328-.75-2.125-2.047-.797-1.297-1.21-2.93-.415-1.632-.602-3.382-.219-2.11-.399-3.422-.18-1.313-.562-1.914-.383-.602-1.195-.602h-.094q-1.766 0-2.735 1.047-.968 1.047-.968 3.015 0 2.079.906 3.29.906 1.21 2.14 1.632l-.75 5.282q-2.187-.625-3.664-2.063-1.476-1.437-2.218-3.516-.742-2.078-.742-4.593 0-1.735.406-3.453.406-1.72 1.336-3.141.93-1.422 2.523-2.29 1.594-.866 3.985-.866H885.5v5.437h-3.297v.188q1 .515 1.867 1.445.868.93 1.39 2.328.524 1.399.524 3.274zm-4.156-1.468q0-1.703-.68-2.953-.68-1.25-1.804-1.93-1.125-.68-2.453-.68h-2.828q.218.266.406.899.187.633.328 1.414.14.781.25 1.547.11.765.187 1.328.172 1.265.563 2.265.39 1 1.086 1.579.695.578 1.789.578 1.562 0 2.36-1.14.796-1.142.796-2.907zm4.14-27.375q0 3.594-1.577 6.164-1.578 2.57-4.368 3.953-2.789 1.383-6.43 1.383-3.655 0-6.46-1.406-2.805-1.407-4.375-3.977-1.57-2.57-1.57-6.086 0-2.922 1.07-5.18 1.07-2.257 3.015-3.601 1.946-1.344 4.54-1.531v5.406q-1.735.328-2.899 1.555-1.164 1.226-1.164 3.273 0 1.734.93 3.047.93 1.312 2.664 2.039 1.734.726 4.156.726 2.453 0 4.21-.718 1.759-.719 2.704-2.024.945-1.304.945-3.07 0-1.25-.476-2.242-.477-.992-1.383-1.664-.906-.672-2.203-.922v-5.406q2.547.203 4.508 1.5 1.96 1.296 3.062 3.53 1.102 2.235 1.102 5.25zm-14.53-20.594H885.5v5.656h-32v-5.53h12.078v-.282q-2.031-.844-3.21-2.617-1.18-1.774-1.18-4.524 0-2.5 1.046-4.36 1.047-1.858 3.063-2.882 2.015-1.023 4.922-1.023H885.5v5.656h-14.406q-2.422 0-3.774 1.242-1.351 1.242-1.351 3.477 0 1.5.648 2.68.649 1.179 1.867 1.843 1.22.664 2.953.664zm14.546-28.219q0 2.282-.82 4.102-.82 1.82-2.43 2.875-1.609 1.055-3.968 1.055-2.032 0-3.36-.75-1.328-.75-2.125-2.047-.797-1.297-1.21-2.93-.415-1.633-.602-3.383-.219-2.11-.399-3.422-.18-1.312-.562-1.914-.383-.601-1.195-.601h-.094q-1.766 0-2.735 1.047-.968 1.046-.968 3.015 0 2.078.906 3.29.906 1.21 2.14 1.632l-.75 5.281q-2.187-.625-3.664-2.062-1.476-1.438-2.218-3.516-.742-2.078-.742-4.594 0-1.734.406-3.453.406-1.718 1.336-3.14.93-1.422 2.523-2.29 1.594-.867 3.985-.867H885.5v5.438h-3.297v.188q1 .515 1.867 1.445.868.93 1.39 2.328.524 1.398.524 3.273zm-4.156-1.468q0-1.704-.68-2.954-.68-1.25-1.804-1.93-1.125-.679-2.453-.679h-2.828q.218.266.406.899.187.632.328 1.414.14.78.25 1.546.11.766.187 1.329.172 1.265.563 2.265.39 1 1.086 1.578.695.578 1.789.578 1.562 0 2.36-1.14.796-1.14.796-2.906zm3.672-22.72v5.563h-32v-5.656h11.969v-.234q-.875-.438-1.867-1.235-.993-.797-1.704-2.156-.71-1.36-.71-3.469 0-2.78 1.414-5.023 1.414-2.242 4.171-3.563 2.758-1.32 6.758-1.32 3.953 0 6.719 1.297 2.766 1.297 4.219 3.531 1.453 2.235 1.453 5.063 0 2.062-.688 3.422-.687 1.359-1.664 2.18-.976.82-1.851 1.273v.328h3.781zm-12 .017q2.328 0 4.078-.665 1.75-.664 2.727-1.921.976-1.258.976-3.055 0-1.875-1.008-3.14-1.007-1.266-2.765-1.915-1.758-.648-4.008-.648-2.234 0-3.969.64-1.734.641-2.718 1.907-.985 1.265-.985 3.156 0 1.812.953 3.078.953 1.266 2.672 1.914 1.719.648 4.047.648zm-20-21.938v-5.656h32v5.656h-32zm32.469-22.094q0 3.61-1.508 6.227-1.508 2.617-4.281 4.023-2.774 1.406-6.54 1.406-3.702 0-6.507-1.414-2.805-1.414-4.375-3.96-1.57-2.547-1.57-5.985 0-2.219.71-4.195.711-1.977 2.196-3.5 1.484-1.524 3.773-2.399 2.29-.875 5.445-.875h1.735v19.672h-3.813V258.1q-1.625.016-2.898.703-1.274.688-2.008 1.914-.734 1.227-.734 2.852 0 1.734.836 3.047.836 1.312 2.187 2.039 1.352.726 2.961.742h3.328q2.094 0 3.586-.766 1.492-.765 2.281-2.14.79-1.375.79-3.219 0-1.234-.352-2.234t-1.04-1.735q-.687-.734-1.702-1.109l.593-5.281q2.094.5 3.649 1.898 1.555 1.399 2.406 3.57.852 2.172.852 4.97z" fill="#000" fill-rule="nonzero"></path></g></svg>