<svg viewBox="0 0 1200 900" xmlns="http://www.w3.org/2000/svg" xmlns:xlink="http://www.w3.org/1999/xlink"><defs><rect id="path-1" x="0" y="0" width="421.2" height="19.8" rx="4.5"></rect></defs><g fill="none" fill-rule="evenodd"><g transform="translate(88.000000, 181.000000)"><g transform="translate(154.799996, 0.000000)"><path d="M455.4 12.24V522c0 6.76-5.484 12.24-12.25 12.24H12.25C5.484 534.24 0 528.76 0 522V12.24C0 5.48 5.484 0 12.25 0h430.9c6.766 0 12.25 5.48 12.25 12.24z" fill="#D2D2D2"></path><path fill="#A3A3A3" d="M187.92 509.76h249.84v9.396H187.92zm0-15.12h249.84v9.396H187.92zm0-14.4h249.84v9.396H187.92zM17.28 16.56h420.48v9.36H17.28z"></path><path d="M22.194 42.509h411.012a4.9 4.9 0 0 1 4.9 4.899v410.965a4.9 4.9 0 0 1-4.9 4.899H22.194a4.9 4.9 0 0 1-4.9-4.9V47.409a4.9 4.9 0 0 1 4.9-4.9z" fill="#FFF"></path><path d="M94.85 485.719h5.373v29.818h-4.805l-14.05-20.31h-.247v20.31h-5.402v-29.818h4.834l14.035 20.325h.262V485.72zm19.448 30.255q-3.276 0-5.679-1.442-2.402-1.441-3.72-4.033-1.317-2.591-1.317-6.056 0-3.466 1.317-6.072 1.318-2.606 3.72-4.047 2.403-1.442 5.679-1.442 3.275 0 5.678 1.442 2.402 1.441 3.72 4.047 1.317 2.606 1.317 6.072 0 3.465-1.317 6.056-1.318 2.592-3.72 4.033-2.403 1.442-5.678 1.442zm.029-4.223q1.776 0 2.97-.982 1.194-.983 1.783-2.643.59-1.66.59-3.698 0-2.053-.59-3.72-.59-1.667-1.783-2.657-1.194-.99-2.97-.99-1.82 0-3.021.99-1.202.99-1.791 2.657-.59 1.667-.59 3.72 0 2.038.59 3.698.59 1.66 1.79 2.643 1.202.982 3.022.982zm22.126 4.18q-2.636 0-4.718-1.355-2.082-1.354-3.29-3.931-1.209-2.577-1.209-6.26 0-3.728 1.23-6.298 1.231-2.57 3.328-3.887 2.096-1.318 4.673-1.318 1.966 0 3.232.663 1.267.662 2.01 1.587.742.924 1.15 1.74h.218v-11.153h5.285v29.818h-5.183v-3.523h-.32q-.408.815-1.18 1.725-.771.91-2.038 1.55-1.266.641-3.188.641zm1.47-4.325q1.675 0 2.854-.91 1.18-.91 1.79-2.54.612-1.631.612-3.8 0-2.17-.604-3.772-.604-1.601-1.776-2.49-1.172-.888-2.876-.888-1.762 0-2.94.918-1.18.917-1.777 2.533-.597 1.616-.597 3.698 0 2.097.604 3.735t1.791 2.577q1.187.939 2.92.939zm24.66 4.368q-3.364 0-5.802-1.405-2.44-1.405-3.75-3.99-1.31-2.584-1.31-6.093 0-3.45 1.318-6.064 1.317-2.613 3.69-4.077 2.374-1.463 5.577-1.463 2.067 0 3.91.663 1.841.662 3.26 2.045 1.42 1.383 2.236 3.516.815 2.133.815 5.074v1.617h-18.33v-3.553h13.278q-.015-1.514-.655-2.7-.641-1.187-1.784-1.872-1.143-.684-2.657-.684-1.616 0-2.84.779-1.222.779-1.9 2.038-.676 1.26-.69 2.76v3.1q0 1.952.712 3.342.714 1.39 1.995 2.126 1.281.735 3 .735 1.15 0 2.081-.328.932-.327 1.617-.968.684-.64 1.033-1.587l4.921.553q-.465 1.951-1.769 3.4-1.303 1.449-3.326 2.242-2.024.794-4.63.794z" fill="#4A4A4A" fill-rule="nonzero"></path><g transform="translate(17.293670, 476.961173)"><path d="M22.914.686A3.084 3.084 0 0 0 21.728 1L5.667 8.66a3.042 3.042 0 0 0-1.658 2.064L.078 27.916A2.97 2.97 0 0 0 .51 30.26c.055.084.113.165.173.242L11.78 44.298a3.068 3.068 0 0 0 2.395 1.13h17.798a3.12 3.12 0 0 0 2.398-1.143l11.091-13.798c.582-.72.8-1.672.577-2.574L42.08 10.706a3.05 3.05 0 0 0-1.657-2.063L24.388 1A3.084 3.084 0 0 0 22.9.686h.014z" fill="#4A4A4A" fill-rule="nonzero"></path><path d="M23.061 6.545a1.016 1.016 0 0 0-.944 1.066v.271c.026.307.072.611.133.912.088.577.12 1.16.095 1.744a1.05 1.05 0 0 1-.314.497l-.022.406c-.584.05-1.163.139-1.734.268a12.343 12.343 0 0 0-6.274 3.581l-.346-.245a.746.746 0 0 1-.57-.057 8.964 8.964 0 0 1-1.292-1.168 7.998 7.998 0 0 0-.63-.67l-.213-.17a1.152 1.152 0 0 0-.667-.252.922.922 0 0 0-.766.34 1.017 1.017 0 0 0 .237 1.417l.199.158c.256.17.521.326.795.466.51.283.992.616 1.438 1.008.115.163.18.355.192.554l.314.288a12.418 12.418 0 0 0-1.957 8.654l-.403.116a1.32 1.32 0 0 1-.413.415 8.95 8.95 0 0 1-1.72.283 8.14 8.14 0 0 0-.923.072l-.255.058h-.029a.966.966 0 0 0-.557 1.631c.257.26.638.352.985.238h.02l.259-.029c.292-.086.58-.193.861-.314a8.999 8.999 0 0 1 1.675-.49c.199.012.39.08.55.195l.433-.072a12.484 12.484 0 0 0 5.534 6.92l-.176.368c.08.169.111.356.086.542a9.304 9.304 0 0 1-.869 1.573 8.04 8.04 0 0 0-.515.768l-.123.26a.965.965 0 0 0 .937 1.442.966.966 0 0 0 .797-.622l.12-.245a7.96 7.96 0 0 0 .276-.88c.255-.629.393-1.305.742-1.723a.778.778 0 0 1 .412-.201l.217-.394a12.424 12.424 0 0 0 8.857.022l.191.367a.75.75 0 0 1 .49.296c.271.516.49 1.056.658 1.614.076.298.17.592.28.88l.119.245a.966.966 0 0 0 1.71.189.965.965 0 0 0 .023-1.01l-.125-.26a7.997 7.997 0 0 0-.516-.765 10.2 10.2 0 0 1-.864-1.523.75.75 0 0 1 .097-.576 3.3 3.3 0 0 1-.16-.388 12.5 12.5 0 0 0 5.51-6.945l.41.072a.765.765 0 0 1 .537-.2c.572.11 1.133.289 1.674.49.281.13.57.24.862.332.07.019.17.035.248.053h.019a.966.966 0 0 0 1.212-1.226.966.966 0 0 0-.784-.643l-.28-.066a8.028 8.028 0 0 0-.922-.072 8.792 8.792 0 0 1-1.72-.284 1.083 1.083 0 0 1-.416-.415l-.389-.115c.415-3.026-.296-6.1-1.997-8.636l.34-.314a.759.759 0 0 1 .178-.545c.443-.38.923-.716 1.427-1.003.274-.14.54-.295.796-.465l.21-.17a.965.965 0 1 0-1.195-1.5l-.213.17a8.027 8.027 0 0 0-.63.67c-.38.435-.8.831-1.258 1.186a1.067 1.067 0 0 1-.582.063l-.365.26a12.591 12.591 0 0 0-7.976-3.848c0-.144-.019-.36-.022-.428a.757.757 0 0 1-.314-.478 8.976 8.976 0 0 1 .11-1.74c.061-.302.105-.604.132-.911v-.289a1.015 1.015 0 0 0-.944-1.066l-.013-.007zm-1.202 7.444l-.288 5.033h-.022a.868.868 0 0 1-.478.726.814.814 0 0 1-.865-.077l-4.129-2.925a9.887 9.887 0 0 1 4.76-2.593 10.2 10.2 0 0 1 1.02-.164h.002zm2.404 0a9.979 9.979 0 0 1 5.75 2.772l-4.09 2.907a.847.847 0 0 1-1.375-.652l-.285-5.027zm-9.684 4.65l3.775 3.369v.022a.848.848 0 0 1-.333 1.453v.015l-4.845 1.393a9.884 9.884 0 0 1 1.404-6.253l-.001.001zm16.937 0a10.06 10.06 0 0 1 1.444 6.235l-4.852-1.398v-.018a.838.838 0 0 1-.601-.627.853.853 0 0 1 .268-.827l3.747-3.354-.006-.011zm-9.229 3.631h1.545l.944 1.2-.343 1.498-1.388.667-1.39-.667-.328-1.499.96-1.199zm4.95 4.09a.876.876 0 0 1 .194 0l4.996.843a9.822 9.822 0 0 1-4 5.033l-1.93-4.675a.85.85 0 0 1 .733-1.18l.006-.021zm-8.393.021c.283.005.544.15.698.386a.842.842 0 0 1 .068.793v.019l-1.92 4.637a9.915 9.915 0 0 1-3.975-4.982l4.954-.84a.81.81 0 0 1 .167 0l.008-.013zM23.03 28.4a.85.85 0 0 1 .774.443h.019l2.441 4.406-.975.288a9.937 9.937 0 0 1-5.416-.28l2.45-4.405a.85.85 0 0 1 .72-.425l-.013-.027z" stroke="#FFF" stroke-width=".5" fill="#FFF" fill-rule="nonzero"></path></g><g transform="translate(17.100000, 42.299999)"><rect fill="#EFFFBD" fill-rule="nonzero" width="421.2" height="421.2" rx="4.5"></rect><path d="M293.405 298.3h-5.402v-29.818h11.182q3.436 0 5.773 1.281 2.337 1.281 3.538 3.516 1.2 2.235 1.2 5.074 0 2.869-1.208 5.096-1.208 2.228-3.567 3.502-2.358 1.274-5.809 1.274h-7.41v-4.441h6.682q2.01 0 3.29-.699 1.282-.699 1.9-1.922.62-1.223.62-2.81t-.62-2.795q-.618-1.209-1.907-1.886-1.288-.677-3.312-.677h-4.95V298.3zm28.867.437q-3.276 0-5.678-1.442-2.403-1.441-3.72-4.033-1.318-2.591-1.318-6.056 0-3.466 1.318-6.072 1.317-2.606 3.72-4.047 2.402-1.442 5.678-1.442t5.678 1.442q2.402 1.441 3.72 4.047t1.318 6.072q0 3.465-1.318 6.056-1.318 2.592-3.72 4.033-2.402 1.442-5.678 1.442zm.029-4.223q1.776 0 2.97-.982 1.194-.983 1.784-2.643.59-1.66.59-3.698 0-2.053-.59-3.72-.59-1.667-1.784-2.657t-2.97-.99q-1.82 0-3.021.99-1.201.99-1.791 2.657-.59 1.667-.59 3.72 0 2.038.59 3.698.59 1.66 1.79 2.643 1.202.982 3.022.982zm22.126 4.18q-2.635 0-4.717-1.355-2.082-1.354-3.29-3.931-1.21-2.577-1.21-6.26 0-3.728 1.231-6.298 1.23-2.57 3.327-3.887 2.097-1.318 4.674-1.318 1.965 0 3.232.663 1.267.662 2.01 1.587.742.924 1.15 1.74h.218v-11.153h5.285V298.3h-5.183v-3.523h-.32q-.408.815-1.18 1.725-.772.91-2.038 1.55-1.267.641-3.189.641zm1.47-4.325q1.675 0 2.854-.91 1.18-.91 1.791-2.54.612-1.631.612-3.8 0-2.17-.605-3.772-.604-1.601-1.776-2.49-1.172-.888-2.875-.888-1.762 0-2.941.918-1.18.917-1.777 2.533-.597 1.616-.597 3.698 0 2.097.605 3.735.604 1.638 1.79 2.577 1.187.939 2.92.939zm32.435-12.521l-4.805.524q-.204-.728-.706-1.369-.502-.64-1.347-1.034-.844-.393-2.067-.393-1.645 0-2.76.714-1.113.713-1.099 1.849-.014.975.721 1.587.735.611 2.439 1.004l3.815.816q3.174.684 4.724 2.17 1.55 1.484 1.565 3.887-.014 2.11-1.23 3.72-1.216 1.608-3.37 2.511-2.155.903-4.95.903-4.107 0-6.61-1.726-2.505-1.725-2.986-4.811l5.14-.496q.35 1.515 1.485 2.286 1.136.772 2.956.772 1.878 0 3.02-.772 1.144-.771 1.144-1.907 0-.96-.736-1.587-.735-.626-2.278-.96l-3.815-.802q-3.217-.67-4.76-2.264-1.544-1.594-1.53-4.04-.014-2.067 1.129-3.589 1.143-1.521 3.188-2.359 2.046-.837 4.725-.837 3.931 0 6.195 1.675 2.264 1.674 2.803 4.528z" fill="#1E1E1E" fill-rule="nonzero"></path><path d="M0 349.2h421.2v68.4a6.3 6.3 0 0 1-6.3 6.3H6.3a6.3 6.3 0 0 1-6.3-6.3v-68.4z" fill="#66E8FF" fill-rule="nonzero"></path><path d="M0 396.9h421.2v19.8a7.2 7.2 0 0 1-7.2 7.2H7.2a7.2 7.2 0 0 1-7.2-7.2v-19.8z" fill="#00A8C6" fill-rule="nonzero"></path><path d="M140.34 410.527q0 2.351-.877 4.024-.877 1.672-2.387 2.56-1.509.888-3.42.888-1.91 0-3.42-.891-1.508-.892-2.386-2.564-.877-1.673-.877-4.017 0-2.35.877-4.023.878-1.673 2.387-2.56 1.51-.888 3.42-.888t3.42.887q1.509.888 2.386 2.56.877 1.673.877 4.024zm-2.65 0q0-1.655-.514-2.794-.515-1.14-1.424-1.726-.91-.586-2.095-.586-1.187 0-2.096.586t-1.424 1.726q-.515 1.14-.515 2.794 0 1.655.515 2.795t1.424 1.726q.91.586 2.096.586t2.095-.586q.909-.586 1.424-1.726.515-1.14.515-2.795zm6.951 11.364h-2.57v-15h2.528v1.804h.149q.199-.398.56-.849.363-.45.98-.774.619-.323 1.578-.323 1.264 0 2.283.643 1.02.642 1.62 1.896.6 1.253.6 3.072 0 1.797-.59 3.054t-1.605 1.917q-1.016.66-2.301.66-.938 0-1.556-.312-.618-.312-.99-.756-.373-.444-.58-.842h-.106v5.81zm-.05-9.546q0 1.059.302 1.854.302.796.874 1.24.572.443 1.388.443.853 0 1.428-.458t.87-1.257q.295-.799.295-1.822 0-1.015-.291-1.804-.292-.788-.867-1.235-.575-.448-1.435-.448-.823 0-1.399.433-.575.434-.87 1.215-.295.781-.295 1.84zm14.146 5.668q-1.641 0-2.83-.685-1.19-.686-1.83-1.946-.639-1.261-.639-2.973 0-1.683.643-2.958.643-1.275 1.8-1.988 1.158-.714 2.72-.714 1.01 0 1.908.323.898.323 1.59.998.693.675 1.09 1.715.398 1.04.398 2.475v.789h-8.941v-1.733h6.477q-.007-.739-.32-1.318-.312-.579-.87-.912-.557-.334-1.296-.334-.788 0-1.385.38-.596.38-.927.994-.33.614-.337 1.346v1.513q0 .951.348 1.63.348.678.973 1.037.625.358 1.463.358.561 0 1.016-.16.454-.16.788-.472.334-.312.504-.774l2.4.27q-.226.952-.862 1.658-.636.707-1.623 1.094-.987.387-2.258.387zm8.939-.213h-2.571v-10.91h2.493v1.82h.113q.299-.946 1.027-1.46.728-.515 1.665-.515.213 0 .48.017.266.018.443.054v2.365q-.163-.057-.515-.103-.351-.046-.678-.046-.703 0-1.26.301-.558.302-.878.835-.32.533-.32 1.229v6.413zm7.64.22q-1.038 0-1.865-.373-.828-.373-1.307-1.104-.48-.732-.48-1.804 0-.923.342-1.527.34-.604.93-.966.59-.362 1.332-.55.742-.189 1.537-.274.96-.1 1.556-.18.596-.083.87-.257.273-.174.273-.543v-.043q0-.802-.476-1.242-.476-.44-1.37-.44-.945 0-1.495.411-.55.412-.743.973l-2.4-.34q.284-.995.937-1.666.654-.671 1.598-1.009.945-.337 2.088-.337.789 0 1.57.185.781.184 1.428.607.646.422 1.04 1.147.394.724.394 1.81v7.302h-2.471v-1.499h-.086q-.234.455-.657.85-.422.393-1.058.631-.635.238-1.488.238zm.667-1.889q.774 0 1.342-.309.568-.309.877-.82.31-.512.31-1.115V412.6q-.121.1-.41.185-.287.085-.642.149-.355.064-.703.114t-.604.085q-.575.078-1.03.255-.454.178-.717.494-.263.316-.263.813 0 .71.519 1.073.518.362 1.32.362zm6.205-9.24h6.271v1.989h-6.271v-1.99zm1.548 8.054v-10.668h2.571v10.242q0 .518.16.792.16.273.422.373.263.099.583.099.241 0 .444-.036.202-.035.309-.063l.433 2.01q-.206.07-.586.156-.38.085-.927.1-.966.028-1.74-.296-.774-.323-1.225-1.005-.451-.681-.444-1.704zm8.79 2.855h-2.571v-10.91h2.571v10.91zm-1.278-12.457q-.618 0-1.055-.409-.437-.408-.437-.983 0-.583.44-.991.44-.409 1.052-.409.61 0 1.047.409.437.408.437.99 0 .576-.437.984-.437.409-1.047.409zm5.835 6.065v6.392h-2.571v-10.91h2.457v1.855h.128q.377-.917 1.204-1.456.828-.54 2.05-.54 1.128 0 1.97.483.842.483 1.307 1.399.465.916.458 2.223v6.946h-2.571v-6.548q0-1.094-.565-1.712-.564-.618-1.559-.618-.674 0-1.196.295-.522.295-.817.849-.295.554-.295 1.342zm13.712 10.668q-1.385 0-2.38-.37-.994-.37-1.597-.987-.604-.618-.838-1.356l2.315-.562q.156.292.454.6.299.31.807.519.507.21 1.282.21 1.093 0 1.81-.526.718-.526.718-1.697v-2.067h-.128q-.199.398-.579.817-.38.419-1.001.703-.622.284-1.56.284-1.256 0-2.275-.593-1.02-.593-1.62-1.776-.6-1.182-.6-2.965 0-1.797.6-3.036.6-1.24 1.623-1.882 1.023-.643 2.28-.643.959 0 1.58.323.622.323.991.774.37.451.561.849h.142v-1.804h2.536v11.087q0 1.37-.668 2.283-.668.913-1.825 1.364-1.158.45-2.628.45zm.021-6.45q.817 0 1.392-.397.576-.398.874-1.143.298-.746.298-1.79 0-1.03-.295-1.804-.294-.774-.866-1.204-.572-.43-1.403-.43-.86 0-1.434.448-.576.447-.867 1.225-.291.778-.291 1.765 0 1.001.295 1.75.294.75.873 1.165.58.416 1.424.416zm20.016-5.852l-2.343.256q-.1-.355-.345-.667-.245-.313-.657-.505-.412-.192-1.008-.192-.803 0-1.346.348-.544.349-.536.902-.008.476.351.775.359.298 1.19.49l1.86.397q1.549.334 2.305 1.059.757.724.764 1.896-.007 1.03-.6 1.815-.593.784-1.645 1.225-1.05.44-2.414.44-2.003 0-3.225-.842-1.221-.841-1.456-2.347l2.507-.241q.17.738.725 1.115.554.376 1.442.376.916 0 1.473-.376.558-.377.558-.93 0-.47-.359-.775-.359-.305-1.111-.469l-1.861-.39q-1.57-.327-2.323-1.105-.752-.777-.745-1.97-.007-1.009.55-1.751.558-.742 1.555-1.15.998-.41 2.305-.41 1.918 0 3.022.818 1.105.816 1.367 2.208zm3.3 12.096q-.525 0-.97-.082-.443-.082-.706-.195l.597-1.996q.838.241 1.41.082.571-.16.94-1.062l.22-.59-3.955-11.136h2.727l2.514 8.239h.114l2.521-8.24 2.749.015-4.382 12.216q-.306.852-.81 1.47t-1.232.948q-.728.33-1.737.33zm17.903-12.096l-2.344.256q-.1-.355-.345-.667-.245-.313-.657-.505-.412-.192-1.008-.192-.803 0-1.346.348-.543.349-.536.902-.007.476.351.775.359.298 1.19.49l1.86.397q1.55.334 2.305 1.059.757.724.764 1.896-.007 1.03-.6 1.815-.593.784-1.644 1.225-1.052.44-2.415.44-2.003 0-3.225-.842-1.221-.841-1.456-2.347l2.508-.241q.17.738.724 1.115.554.376 1.442.376.916 0 1.473-.376.558-.377.558-.93 0-.47-.359-.775-.358-.305-1.111-.469l-1.861-.39q-1.57-.327-2.322-1.105-.753-.777-.746-1.97-.007-1.009.55-1.751.558-.742 1.556-1.15.998-.41 2.304-.41 1.918 0 3.022.818 1.105.816 1.368 2.208zm.878-2.883h6.271v1.989h-6.271v-1.99zm1.548 8.054v-10.668h2.571v10.242q0 .518.16.792.16.273.422.373.263.099.583.099.241 0 .444-.036.202-.035.309-.063l.433 2.01q-.206.07-.586.156-.38.085-.927.1-.966.028-1.74-.296-.774-.323-1.225-1.005-.451-.681-.444-1.704zm10.935 3.068q-1.64 0-2.83-.685-1.19-.686-1.83-1.946-.638-1.261-.638-2.973 0-1.683.642-2.958.643-1.275 1.8-1.988 1.158-.714 2.72-.714 1.01 0 1.908.323.898.323 1.59.998.693.675 1.091 1.715t.398 2.475v.789h-8.942v-1.733h6.477q-.007-.739-.32-1.318-.312-.579-.87-.912-.557-.334-1.296-.334-.788 0-1.385.38-.596.38-.926.994-.33.614-.338 1.346v1.513q0 .951.348 1.63.348.678.973 1.037.625.358 1.463.358.561 0 1.016-.16.455-.16.788-.472.334-.312.505-.774l2.4.27q-.227.952-.863 1.658-.635.707-1.623 1.094-.987.387-2.258.387zm8.939-.213h-2.571v-10.91h2.457v1.855h.128q.341-.938 1.13-1.467.788-.53 1.882-.53 1.108 0 1.871.537.764.536 1.076 1.46h.114q.362-.91 1.225-1.453.863-.543 2.049-.543 1.506 0 2.457.952.952.951.952 2.777v7.322h-2.578v-6.925q0-1.015-.54-1.488-.54-.472-1.321-.472-.93 0-1.452.579-.522.579-.522 1.502v6.804h-2.522v-7.031q0-.845-.508-1.35-.507-.504-1.324-.504-.554 0-1.009.28-.454.281-.724.789-.27.508-.27 1.182v6.634z" fill="#FFF" fill-rule="nonzero"></path><path d="M145.742 389.2h-5.402v-29.818h5.402v13.7h.364l11.633-13.7h6.595l-11.53 13.38 11.632 16.438h-6.493l-8.896-12.783-3.305 3.902v8.881zm33.657-9.406v-12.958h5.27V389.2h-5.11v-3.975h-.233q-.757 1.878-2.482 3.072-1.726 1.194-4.244 1.194-2.199 0-3.88-.983-1.682-.982-2.629-2.868-.946-1.885-.946-4.564v-14.24h5.27v13.424q0 2.126 1.165 3.378 1.165 1.252 3.058 1.252 1.165 0 2.257-.567 1.092-.568 1.798-1.697.706-1.128.706-2.832zm14.788 9.406h-5.183v-29.818h5.27v11.153h.219q.407-.816 1.15-1.74.742-.925 2.01-1.587 1.266-.663 3.231-.663 2.592 0 4.681 1.318 2.09 1.317 3.32 3.887 1.23 2.57 1.23 6.297 0 3.684-1.208 6.261-1.209 2.577-3.29 3.931-2.083 1.354-4.718 1.354-1.922 0-3.189-.64-1.266-.641-2.03-1.551-.765-.91-1.187-1.725h-.306v3.523zm-.015-11.182q0 2.17.62 3.8.618 1.63 1.79 2.54 1.172.91 2.846.91 1.748 0 2.927-.938 1.18-.94 1.783-2.577.605-1.638.605-3.735 0-2.082-.597-3.698t-1.777-2.533q-1.179-.918-2.94-.918-1.69 0-2.869.889-1.18.888-1.783 2.49-.605 1.6-.605 3.77zm29.028 11.619q-3.364 0-5.802-1.405-2.439-1.405-3.75-3.99-1.31-2.584-1.31-6.093 0-3.45 1.318-6.064 1.318-2.613 3.69-4.077 2.374-1.463 5.577-1.463 2.068 0 3.91.663 1.841.662 3.26 2.045 1.42 1.383 2.236 3.516.815 2.133.815 5.074v1.617h-18.33v-3.553h13.278q-.015-1.514-.655-2.7-.641-1.187-1.784-1.872-1.143-.684-2.657-.684-1.616 0-2.84.779-1.222.779-1.9 2.038-.676 1.26-.69 2.76v3.1q0 1.952.713 3.342.713 1.39 1.994 2.126 1.281.735 3 .735 1.15 0 2.082-.328.931-.327 1.616-.968.684-.64 1.033-1.587l4.922.553q-.466 1.951-1.77 3.4-1.302 1.449-3.326 2.242-2.024.794-4.63.794zm13.084-30.255h5.27V389.2h-5.27v-29.818zm19.273 30.255q-3.364 0-5.802-1.405-2.44-1.405-3.75-3.99-1.31-2.584-1.31-6.093 0-3.45 1.318-6.064 1.317-2.613 3.69-4.077 2.374-1.463 5.577-1.463 2.067 0 3.91.663 1.841.662 3.26 2.045 1.42 1.383 2.236 3.516.815 2.133.815 5.074v1.617h-18.33v-3.553h13.278q-.015-1.514-.656-2.7-.64-1.187-1.783-1.872-1.143-.684-2.657-.684-1.616 0-2.84.779-1.222.779-1.9 2.038-.676 1.26-.691 2.76v3.1q0 1.952.713 3.342.714 1.39 1.995 2.126 1.281.735 3 .735 1.15 0 2.081-.328.932-.327 1.617-.968.684-.64 1.033-1.587l4.921.553q-.465 1.951-1.769 3.4-1.303 1.449-3.326 2.242-2.024.794-4.63.794zm11.395-22.8h12.856v4.076h-12.856v-4.077zm3.174 16.51v-21.869h5.27v20.995q0 1.063.328 1.624.328.56.867.764.538.204 1.194.204.495 0 .91-.073.414-.073.633-.13l.888 4.12q-.422.145-1.201.32-.78.175-1.9.204-1.98.058-3.567-.604-1.587-.663-2.512-2.06-.924-1.398-.91-3.495z" fill="#1E1E1E" fill-rule="nonzero"></path></g><path fill="#8FBE00" d="M37.8 135h37.8v37.8H37.8zm56.7 0h37.8v37.8H94.5zm56.7 0H189v37.8h-37.8zm57.6 0h37.8v37.8h-37.8zm56.7 0h37.8v37.8h-37.8zM37.8 78.3h37.8v37.8H37.8zm56.7 0h37.8v37.8H94.5zm56.7 0H189v37.8h-37.8zm57.6 0h37.8v37.8h-37.8zm56.7 0h37.8v37.8h-37.8zm57.6 56.7h37.8v37.8h-37.8zm0-56.7h37.8v37.8h-37.8zm56.7 56.7h37.8v37.8h-37.8zm-171 56.7h37.8v37.8h-37.8zm56.7 0h37.8v37.8h-37.8zm57.6 0h37.8v37.8h-37.8zm56.7 0h37.8v37.8h-37.8zm0-113.4h37.8v37.8h-37.8zm-342 113.4h37.8v37.8H37.8zm56.7 0h37.8v37.8H94.5zm56.7 0H189v37.8h-37.8zm57.6 56.7h37.8v37.8h-37.8zm56.7 0h37.8v37.8h-37.8zm57.6 0h37.8v37.8h-37.8zm56.7 0h37.8v37.8h-37.8zm-342 0h37.8v37.8H37.8zm56.7 0h37.8v37.8H94.5zm-56.7 56.7h37.8v37.8H37.8zm56.7 0h37.8v37.8H94.5zm56.7-56.7H189v37.8h-37.8z"></path></g><path d="M698.757 272.6v-19.636h3.596l6.251 15.264h.23l6.252-15.264h3.595V272.6h-2.819v-14.21h-.182l-5.79 14.181h-2.34l-5.792-14.19h-.182V272.6h-2.819zm29.496.297q-2.176 0-3.744-.935-1.568-.934-2.416-2.636-.849-1.702-.849-3.994 0-2.263.849-3.988.848-1.726 2.378-2.695 1.529-.968 3.58-.968 1.247 0 2.417.412 1.17.413 2.1 1.295.93.882 1.467 2.286.537 1.405.537 3.409v1.016h-11.707v-2.147h8.897q0-1.132-.46-2.01-.46-.876-1.29-1.385-.829-.508-1.941-.508-1.208 0-2.105.59-.896.59-1.38 1.534-.484.944-.484 2.047v1.678q0 1.477.522 2.512.523 1.036 1.462 1.577.94.542 2.196.542.815 0 1.486-.235t1.16-.705q.49-.47.748-1.16l2.714.49q-.326 1.198-1.165 2.094-.84.897-2.1 1.39-1.261.494-2.872.494zm11.518-.297h-2.866v-14.727h2.751v2.397h.182q.46-1.218 1.506-1.903 1.045-.686 2.502-.686 1.477 0 2.479.69t1.481 1.899h.154q.527-1.18 1.677-1.884 1.151-.705 2.743-.705 2.004 0 3.274 1.256t1.27 3.787v9.876h-2.866v-9.607q0-1.496-.815-2.167-.815-.671-1.947-.671-1.4 0-2.176.858-.777.858-.777 2.2v9.387h-2.857v-9.79q0-1.198-.748-1.927-.748-.728-1.946-.728-.815 0-1.501.426-.686.427-1.103 1.184-.417.758-.417 1.755v9.08zm26.332.297q-2.07 0-3.615-.949-1.543-.95-2.397-2.656-.853-1.707-.853-3.989 0-2.291.853-4.007.854-1.717 2.397-2.666 1.544-.949 3.615-.949t3.615.95q1.543.948 2.397 2.665.853 1.716.853 4.007 0 2.282-.853 3.99-.854 1.706-2.397 2.655-1.544.95-3.615.95zm.01-2.406q1.342 0 2.224-.71.882-.71 1.309-1.889.427-1.18.427-2.598 0-1.41-.427-2.594t-1.309-1.903q-.882-.719-2.224-.719-1.352 0-2.24.72-.886.718-1.313 1.902-.426 1.184-.426 2.594 0 1.419.426 2.598.427 1.18 1.314 1.89.887.709 2.239.709zm12.055 2.109H775.3v-14.727h2.77v2.34h.154q.403-1.19 1.424-1.875 1.021-.686 2.316-.686.268 0 .637.02.37.019.58.047v2.743q-.172-.048-.613-.11-.441-.063-.882-.063-1.017 0-1.808.427-.79.426-1.251 1.179-.46.753-.46 1.711v8.994zm8.92 5.484q-.643 0-1.17-.1-.527-.101-.786-.216l.69-2.35q1.18.327 1.98.054.8-.274 1.347-1.702l.355-.978-5.389-14.92h3.069l3.73 11.43h.153l3.73-11.43 3.096.03-6.088 16.664q-.422 1.14-1.074 1.927-.652.786-1.553 1.189-.901.402-2.09.402zm28.262-11.592v-8.62h2.876V272.6h-2.819v-2.55h-.153q-.509 1.179-1.626 1.96-1.117.782-2.775.782-1.42 0-2.508-.628t-1.706-1.865q-.619-1.237-.619-3.059v-9.367h2.867v9.022q0 1.505.834 2.397.834.892 2.167.892.806 0 1.606-.403t1.333-1.218q.532-.815.523-2.07zm16.897-5.024l-2.599.46q-.163-.498-.513-.949-.35-.45-.944-.738-.595-.288-1.486-.288-1.218 0-2.033.542t-.815 1.395q0 .738.547 1.189.546.45 1.764.738l2.34.537q2.032.47 3.03 1.448.996.978.996 2.54 0 1.324-.762 2.355-.762 1.03-2.119 1.615-1.357.585-3.14.585-2.474 0-4.037-1.06-1.562-1.059-1.917-3.015l2.77-.422q.26 1.084 1.065 1.635.805.552 2.1.552 1.41 0 2.253-.59.844-.59.844-1.443 0-.69-.513-1.16t-1.568-.71l-2.493-.546q-2.061-.47-3.044-1.496-.983-1.026-.983-2.598 0-1.304.729-2.282t2.013-1.53q1.285-.551 2.944-.551 2.387 0 3.758 1.03 1.372 1.031 1.813 2.757zm6.858 11.458q-1.4 0-2.531-.523-1.132-.522-1.788-1.52-.657-.996-.657-2.444 0-1.247.48-2.052.479-.805 1.294-1.275.815-.47 1.821-.71 1.007-.24 2.052-.364 1.323-.154 2.148-.254.824-.1 1.198-.331.374-.23.374-.748v-.067q0-1.256-.704-1.946-.705-.69-2.095-.69-1.448 0-2.278.637-.829.637-1.145 1.414l-2.695-.614q.48-1.342 1.405-2.171.925-.83 2.133-1.208 1.209-.379 2.541-.379.882 0 1.875.206.992.206 1.86.753.868.546 1.424 1.558.556 1.011.556 2.622v9.78h-2.8v-2.013h-.115q-.278.556-.834 1.093-.556.536-1.429.891-.872.355-2.09.355zm.623-2.301q1.19 0 2.038-.47.848-.47 1.294-1.232.446-.762.446-1.635v-1.898q-.153.153-.59.283-.436.13-.992.22-.556.091-1.084.163l-.882.12q-.834.105-1.52.355-.685.249-1.092.714-.408.465-.408 1.232 0 1.064.786 1.606.787.542 2.004.542zm12.63 1.975h-2.8v-19.636h2.868v7.296h.172q.25-.46.72-1.064.47-.604 1.303-1.06.835-.455 2.206-.455 1.783 0 3.183.901 1.4.902 2.2 2.599.801 1.697.801 4.084 0 2.388-.796 4.09-.796 1.701-2.186 2.617-1.39.916-3.174.916-1.342 0-2.19-.451-.849-.45-1.328-1.055-.48-.604-.739-1.074h-.24v2.292zm.01-7.364q0 1.554.45 2.723.452 1.17 1.305 1.827t2.09.657q1.285 0 2.148-.686.863-.685 1.309-1.865.445-1.18.445-2.656 0-1.457-.436-2.617t-1.304-1.832q-.868-.67-2.162-.67-1.246 0-2.105.642-.858.642-1.299 1.793-.44 1.15-.44 2.684zm12.995-12.272h2.867V272.6h-2.867v-19.636zm12.209 19.933q-2.177 0-3.745-.935-1.567-.934-2.416-2.636-.848-1.702-.848-3.994 0-2.263.848-3.988.849-1.726 2.378-2.695 1.53-.968 3.581-.968 1.247 0 2.416.412 1.17.413 2.1 1.295.93.882 1.467 2.286.537 1.405.537 3.409v1.016h-11.707v-2.147h8.898q0-1.132-.46-2.01-.46-.876-1.29-1.385-.83-.508-1.942-.508-1.208 0-2.104.59-.897.59-1.38 1.534-.485.944-.485 2.047v1.678q0 1.477.522 2.512.523 1.036 1.463 1.577.94.542 2.195.542.815 0 1.486-.235.672-.235 1.16-.705.49-.47.748-1.16l2.714.49q-.326 1.198-1.165 2.094-.839.897-2.1 1.39-1.26.494-2.871.494zm17.973-.297h-2.8v-19.636h2.868v7.296h.172q.25-.46.72-1.064.47-.604 1.303-1.06.834-.455 2.205-.455 1.784 0 3.184.901 1.4.902 2.2 2.599.8 1.697.8 4.084 0 2.388-.795 4.09-.796 1.701-2.186 2.617-1.39.916-3.174.916-1.342 0-2.19-.451-.85-.45-1.329-1.055-.479-.604-.738-1.074h-.24v2.292zm.01-7.364q0 1.554.45 2.723.451 1.17 1.305 1.827.853.657 2.09.657 1.285 0 2.148-.686.862-.685 1.308-1.865.446-1.18.446-2.656 0-1.457-.436-2.617t-1.304-1.832q-.868-.67-2.162-.67-1.247 0-2.105.642-.858.642-1.299 1.793-.441 1.15-.441 2.684zm14.29 12.848q-.643 0-1.17-.1-.528-.101-.787-.216l.69-2.35q1.18.327 1.98.054.801-.274 1.348-1.702l.354-.978-5.388-14.92h3.068l3.73 11.43h.153l3.73-11.43 3.097.03-6.088 16.664q-.422 1.14-1.074 1.927-.652.786-1.554 1.189-.9.402-2.09.402zm22.125-5.484h-2.963v-19.636h7q2.29 0 3.796.834 1.505.834 2.253 2.277.748 1.443.748 3.246 0 1.812-.752 3.255-.753 1.443-2.263 2.282-1.51.839-3.792.839h-4.814v-2.512h4.545q1.448 0 2.35-.504.9-.503 1.322-1.376.422-.872.422-1.984 0-1.113-.422-1.976-.421-.863-1.327-1.352-.907-.489-2.383-.489h-3.72V272.6zm19.227.297q-2.071 0-3.615-.949-1.544-.95-2.397-2.656-.853-1.707-.853-3.989 0-2.291.853-4.007.853-1.717 2.397-2.666 1.544-.949 3.615-.949 2.07 0 3.614.95 1.544.948 2.397 2.665.854 1.716.854 4.007 0 2.282-.854 3.99-.853 1.706-2.397 2.655-1.543.95-3.614.95zm.01-2.406q1.342 0 2.224-.71.882-.71 1.308-1.889.427-1.18.427-2.598 0-1.41-.427-2.594-.426-1.184-1.308-1.903-.882-.719-2.225-.719-1.352 0-2.239.72-.886.718-1.313 1.902-.427 1.184-.427 2.594 0 1.419.427 2.598.427 1.18 1.313 1.89.887.709 2.24.709zm14.7 2.397q-1.783 0-3.178-.916t-2.186-2.618q-.79-1.701-.79-4.089 0-2.387.8-4.084.8-1.697 2.2-2.599 1.4-.901 3.174-.901 1.371 0 2.21.455.839.456 1.304 1.06.465.604.724 1.064h.172v-7.296h2.867V272.6h-2.8v-2.292h-.24q-.258.47-.742 1.074-.484.604-1.328 1.055-.844.45-2.186.45zm.634-2.445q1.236 0 2.095-.657.858-.657 1.304-1.827.445-1.17.445-2.723 0-1.534-.44-2.684-.442-1.15-1.295-1.793t-2.11-.643q-1.294 0-2.157.672-.863.67-1.299 1.83-.436 1.161-.436 2.618 0 1.477.44 2.656.442 1.18 1.31 1.865.867.686 2.143.686zm20.924-8.975l-2.599.46q-.163-.498-.513-.949-.35-.45-.944-.738-.595-.288-1.486-.288-1.218 0-2.033.542t-.815 1.395q0 .738.547 1.189.546.45 1.764.738l2.34.537q2.032.47 3.03 1.448.996.978.996 2.54 0 1.324-.762 2.355-.762 1.03-2.119 1.615-1.357.585-3.14.585-2.474 0-4.037-1.06-1.562-1.059-1.917-3.015l2.77-.422q.26 1.084 1.065 1.635.805.552 2.1.552 1.41 0 2.253-.59.844-.59.844-1.443 0-.69-.513-1.16t-1.568-.71l-2.493-.546q-2.061-.47-3.044-1.496-.983-1.026-.983-2.598 0-1.304.729-2.282t2.013-1.53q1.285-.551 2.944-.551 2.387 0 3.758 1.03 1.372 1.031 1.813 2.757zM698.757 473.3v-19.636h3.596l6.251 15.264h.23l6.252-15.264h3.595V473.3h-2.819v-14.21h-.182l-5.79 14.181h-2.34l-5.792-14.19h-.182V473.3h-2.819zm29.496.297q-2.176 0-3.744-.935-1.568-.934-2.416-2.636-.849-1.702-.849-3.994 0-2.263.849-3.988.848-1.726 2.378-2.695 1.529-.968 3.58-.968 1.247 0 2.417.412 1.17.413 2.1 1.295.93.882 1.467 2.286.537 1.405.537 3.409v1.016h-11.707v-2.147h8.897q0-1.132-.46-2.01-.46-.876-1.29-1.385-.829-.508-1.941-.508-1.208 0-2.105.59-.896.59-1.38 1.534-.484.944-.484 2.047v1.678q0 1.477.522 2.512.523 1.036 1.462 1.577.94.542 2.196.542.815 0 1.486-.235t1.16-.705q.49-.47.748-1.16l2.714.49q-.326 1.198-1.165 2.094-.84.897-2.1 1.39-1.261.494-2.872.494zm11.518-.297h-2.866v-14.727h2.751v2.397h.182q.46-1.218 1.506-1.903 1.045-.686 2.502-.686 1.477 0 2.479.69t1.481 1.899h.154q.527-1.18 1.677-1.884 1.151-.705 2.743-.705 2.004 0 3.274 1.256t1.27 3.787v9.876h-2.866v-9.607q0-1.496-.815-2.167-.815-.671-1.947-.671-1.4 0-2.176.858-.777.858-.777 2.2v9.387h-2.857v-9.79q0-1.198-.748-1.927-.748-.728-1.946-.728-.815 0-1.501.426-.686.427-1.103 1.184-.417.758-.417 1.755v9.08zm26.332.297q-2.07 0-3.615-.949-1.543-.95-2.397-2.656-.853-1.707-.853-3.989 0-2.291.853-4.007.854-1.717 2.397-2.666 1.544-.949 3.615-.949t3.615.95q1.543.948 2.397 2.665.853 1.716.853 4.007 0 2.282-.853 3.99-.854 1.706-2.397 2.655-1.544.95-3.615.95zm.01-2.406q1.342 0 2.224-.71.882-.71 1.309-1.889.427-1.18.427-2.598 0-1.41-.427-2.594t-1.309-1.903q-.882-.719-2.224-.719-1.352 0-2.24.72-.886.718-1.313 1.902-.426 1.184-.426 2.594 0 1.419.426 2.598.427 1.18 1.314 1.89.887.709 2.239.709zm12.055 2.109H775.3v-14.727h2.77v2.34h.154q.403-1.19 1.424-1.875 1.021-.686 2.316-.686.268 0 .637.02.37.019.58.047v2.743q-.172-.048-.613-.11-.441-.063-.882-.063-1.017 0-1.808.427-.79.426-1.251 1.179-.46.753-.46 1.711v8.994zm8.92 5.484q-.643 0-1.17-.1-.527-.101-.786-.216l.69-2.35q1.18.327 1.98.054.8-.274 1.347-1.702l.355-.978-5.389-14.92h3.069l3.73 11.43h.153l3.73-11.43 3.096.03-6.088 16.664q-.422 1.14-1.074 1.927-.652.786-1.553 1.189-.901.402-2.09.402zm21.8-5.484h-2.868v-14.727h2.771v2.34h.154q.402-1.19 1.424-1.875 1.02-.686 2.315-.686.269 0 .638.02.369.019.58.047v2.743q-.173-.048-.614-.11-.441-.063-.882-.063-1.016 0-1.807.427-.791.426-1.252 1.179-.46.753-.46 1.711v8.994zm12.457.297q-2.176 0-3.744-.935-1.568-.934-2.416-2.636-.849-1.702-.849-3.994 0-2.263.849-3.988.848-1.726 2.378-2.695 1.529-.968 3.58-.968 1.247 0 2.417.412 1.17.413 2.1 1.295.93.882 1.467 2.286.537 1.405.537 3.409v1.016h-11.707v-2.147h8.897q0-1.132-.46-2.01-.46-.876-1.29-1.385-.829-.508-1.941-.508-1.208 0-2.105.59-.896.59-1.38 1.534-.485.944-.485 2.047v1.678q0 1.477.523 2.512.522 1.036 1.462 1.577.94.542 2.196.542.815 0 1.486-.235t1.16-.705q.49-.47.748-1.16l2.713.49q-.326 1.198-1.165 2.094-.839.897-2.1 1.39-1.26.494-2.871.494zm19.687-11.429l-2.598.46q-.163-.498-.513-.949-.35-.45-.945-.738-.594-.288-1.486-.288-1.217 0-2.032.542t-.815 1.395q0 .738.546 1.189.547.45 1.764.738l2.34.537q2.033.47 3.03 1.448.997.978.997 2.54 0 1.324-.762 2.355-.763 1.03-2.12 1.615-1.356.585-3.14.585-2.473 0-4.036-1.06-1.563-1.059-1.918-3.015l2.771-.422q.26 1.084 1.065 1.635.805.552 2.1.552 1.409 0 2.253-.59.843-.59.843-1.443 0-.69-.513-1.16t-1.567-.71l-2.493-.546q-2.062-.47-3.044-1.496-.983-1.026-.983-2.598 0-1.304.729-2.282.728-.978 2.013-1.53 1.285-.551 2.944-.551 2.387 0 3.758 1.03 1.371 1.031 1.812 2.757zm8.92 11.43q-2.176 0-3.744-.936-1.568-.934-2.416-2.636-.849-1.702-.849-3.994 0-2.263.849-3.988.848-1.726 2.378-2.695 1.529-.968 3.58-.968 1.247 0 2.417.412 1.17.413 2.1 1.295.93.882 1.467 2.286.537 1.405.537 3.409v1.016h-11.707v-2.147h8.897q0-1.132-.46-2.01-.46-.876-1.29-1.385-.829-.508-1.941-.508-1.208 0-2.105.59-.896.59-1.38 1.534-.485.944-.485 2.047v1.678q0 1.477.523 2.512.523 1.036 1.462 1.577.94.542 2.196.542.815 0 1.486-.235t1.16-.705q.49-.47.748-1.16l2.713.49q-.326 1.198-1.165 2.094-.838.897-2.1 1.39-1.26.494-2.87.494zm11.518-.298h-2.867v-14.727h2.771v2.34h.154q.402-1.19 1.424-1.875 1.02-.686 2.315-.686.269 0 .638.02.369.019.58.047v2.743q-.173-.048-.614-.11-.44-.063-.882-.063-1.016 0-1.807.427-.791.426-1.252 1.179-.46.753-.46 1.711v8.994zm16.629-14.727h3.078l-5.34 14.727h-3.07l-5.35-14.727h3.079l3.73 11.333h.153l3.72-11.333zm10.741 15.024q-2.176 0-3.744-.935-1.567-.934-2.416-2.636-.848-1.702-.848-3.994 0-2.263.848-3.988.849-1.726 2.378-2.695 1.53-.968 3.581-.968 1.247 0 2.416.412 1.17.413 2.1 1.295.93.882 1.467 2.286.537 1.405.537 3.409v1.016h-11.707v-2.147h8.898q0-1.132-.46-2.01-.46-.876-1.29-1.385-.83-.508-1.942-.508-1.208 0-2.104.59-.897.59-1.381 1.534-.484.944-.484 2.047v1.678q0 1.477.522 2.512.523 1.036 1.463 1.577.94.542 2.195.542.815 0 1.486-.235.672-.235 1.16-.705.49-.47.748-1.16l2.714.49q-.326 1.198-1.165 2.094-.84.897-2.1 1.39-1.26.494-2.872.494zm14.165-.01q-1.783 0-3.178-.915-1.396-.916-2.187-2.618-.79-1.701-.79-4.089 0-2.387.8-4.084.8-1.697 2.2-2.599 1.4-.901 3.174-.901 1.371 0 2.21.455.84.456 1.304 1.06.465.604.724 1.064h.173v-7.296h2.866V473.3h-2.8v-2.292h-.239q-.259.47-.743 1.074-.484.604-1.328 1.055-.844.45-2.186.45zm.633-2.444q1.237 0 2.095-.657.858-.657 1.304-1.827.446-1.17.446-2.723 0-1.534-.441-2.684-.442-1.15-1.295-1.793t-2.11-.643q-1.294 0-2.157.672-.862.67-1.299 1.83-.436 1.161-.436 2.618 0 1.477.441 2.656.441 1.18 1.309 1.865.868.686 2.143.686zm15.01-12.57h8.045v2.3h-8.044v-2.3zm2.158 10.997v-14.526h2.867v13.932q0 .834.25 1.251.249.417.647.566.397.148.867.148.345 0 .604-.048.26-.048.403-.076l.518 2.368q-.25.096-.71.196-.46.101-1.15.11-1.132.02-2.11-.402-.978-.422-1.582-1.304-.604-.882-.604-2.215zm14.241 4.027q-2.07 0-3.614-.949-1.544-.95-2.397-2.656-.854-1.707-.854-3.989 0-2.291.854-4.007.853-1.717 2.397-2.666 1.543-.949 3.614-.949 2.071 0 3.615.95 1.544.948 2.397 2.665.854 1.716.854 4.007 0 2.282-.854 3.99-.853 1.706-2.397 2.655-1.544.95-3.615.95zm.01-2.406q1.342 0 2.224-.71.883-.71 1.31-1.889.426-1.18.426-2.598 0-1.41-.427-2.594-.426-1.184-1.309-1.903-.882-.719-2.224-.719-1.352 0-2.239.72-.887.718-1.313 1.902-.427 1.184-.427 2.594 0 1.419.427 2.598.426 1.18 1.313 1.89.887.709 2.24.709zm14.311-12.618h8.045v2.3h-8.045v-2.3zm2.158 10.997v-14.526h2.866v13.932q0 .834.25 1.251.249.417.647.566.398.148.868.148.345 0 .604-.048l.402-.076.518 2.368q-.25.096-.71.196-.46.101-1.15.11-1.131.02-2.11-.402-.977-.422-1.581-1.304-.604-.882-.604-2.215zm11.364-5.014v8.744h-2.866v-19.636h2.828v7.306h.182q.518-1.19 1.582-1.89 1.065-.699 2.78-.699 1.516 0 2.652.623 1.136.623 1.764 1.855.628 1.233.628 3.073v9.368h-2.867v-9.022q0-1.62-.834-2.517-.834-.897-2.32-.897-1.017 0-1.817.432-.8.431-1.256 1.26-.456.83-.456 2zm18.873 9.041q-2.177 0-3.744-.935-1.568-.934-2.417-2.636-.848-1.702-.848-3.994 0-2.263.848-3.988.849-1.726 2.378-2.695 1.53-.968 3.581-.968 1.247 0 2.416.412 1.17.413 2.1 1.295.93.882 1.467 2.286.537 1.405.537 3.409v1.016h-11.707v-2.147h8.898q0-1.132-.46-2.01-.46-.876-1.29-1.385-.83-.508-1.942-.508-1.208 0-2.104.59-.897.59-1.38 1.534-.485.944-.485 2.047v1.678q0 1.477.523 2.512.522 1.036 1.462 1.577.94.542 2.195.542.815 0 1.487-.235.67-.235 1.16-.705.489-.47.748-1.16l2.713.49q-.326 1.198-1.165 2.094-.839.897-2.1 1.39-1.26.494-2.871.494zM703.8 498.668l-2.636 2.637-.02-3.5h.5l5.867-6.232h3.433l-6.693 7.095h-.45zm-2.406 7.632h-2.867v-19.636h2.867V506.3zm9.952 0h-3.518l-5.274-7 1.975-2.003 6.817 9.003zm10.675-6.108v-8.62h2.876V506.3h-2.819v-2.55h-.153q-.508 1.179-1.625 1.96-1.117.782-2.776.782-1.419 0-2.507-.628t-1.707-1.865q-.618-1.237-.618-3.059v-9.367h2.867v9.022q0 1.505.834 2.397.834.892 2.167.892.805 0 1.606-.403.8-.403 1.332-1.218t.523-2.07zm8.891 6.108h-2.8v-19.636h2.867v7.296h.173q.249-.46.719-1.064.47-.604 1.304-1.06.834-.455 2.205-.455 1.783 0 3.183.901 1.4.902 2.2 2.599.801 1.697.801 4.084 0 2.388-.796 4.09-.795 1.701-2.186 2.617-1.39.916-3.173.916-1.343 0-2.191-.451-.849-.45-1.328-1.055-.48-.604-.738-1.074h-.24v2.292zm.01-7.364q0 1.554.45 2.723.45 1.17 1.304 1.827.854.657 2.09.657 1.285 0 2.148-.686.863-.685 1.309-1.865.446-1.18.446-2.656 0-1.457-.437-2.617-.436-1.16-1.304-1.832-.867-.67-2.162-.67-1.246 0-2.104.642-.858.642-1.3 1.793-.44 1.15-.44 2.684zm19.342 7.661q-2.177 0-3.745-.935-1.567-.934-2.416-2.636-.848-1.702-.848-3.994 0-2.263.848-3.988.849-1.726 2.378-2.695 1.53-.968 3.581-.968 1.247 0 2.416.412 1.17.413 2.1 1.295.93.882 1.467 2.286.537 1.405.537 3.409v1.016h-11.707v-2.147h8.898q0-1.132-.46-2.01-.46-.876-1.29-1.385-.83-.508-1.942-.508-1.208 0-2.104.59-.897.59-1.38 1.534-.485.944-.485 2.047v1.678q0 1.477.523 2.512.522 1.036 1.462 1.577.94.542 2.195.542.815 0 1.487-.235.67-.235 1.16-.705.489-.47.748-1.16l2.713.49q-.326 1.198-1.165 2.094-.839.897-2.1 1.39-1.26.494-2.871.494zm8.651-19.933h2.867V506.3h-2.867v-19.636zm12.209 19.933q-2.177 0-3.745-.935-1.567-.934-2.416-2.636-.848-1.702-.848-3.994 0-2.263.848-3.988.849-1.726 2.378-2.695 1.53-.968 3.581-.968 1.247 0 2.416.412 1.17.413 2.1 1.295.93.882 1.467 2.286.537 1.405.537 3.409v1.016h-11.707v-2.147h8.898q0-1.132-.46-2.01-.46-.876-1.29-1.385-.83-.508-1.942-.508-1.208 0-2.104.59-.897.59-1.38 1.534-.485.944-.485 2.047v1.678q0 1.477.522 2.512.523 1.036 1.463 1.577.94.542 2.195.542.815 0 1.486-.235.672-.235 1.16-.705.49-.47.748-1.16l2.714.49q-.326 1.198-1.165 2.094-.839.897-2.1 1.39-1.26.494-2.871.494zm7.481-15.024h8.045v2.3h-8.045v-2.3zm2.157 10.997v-14.526h2.867v13.932q0 .834.25 1.251.249.417.647.566.398.148.867.148.346 0 .605-.048l.402-.076.518 2.368q-.25.096-.71.196-.46.101-1.15.11-1.131.02-2.11-.402-.977-.422-1.582-1.304-.604-.882-.604-2.215z" fill="#5C5C5C" fill-opacity="0.85" fill-rule="nonzero"></path><g fill="#75911D" fill-rule="nonzero"><path d="M699.18 221.95h-5.542q-.096-3.49.93-5.81 1.026-2.32 2.876-3.48 1.85-1.16 4.248-1.16 1.86 0 3.49.776 1.63.777 3.74 2.637 1.207 1.035 1.994 1.553.786.518 1.802.518 1.458 0 2.368-1.122.911-1.122.854-3.404h5.56q.097 3.471-.948 5.791-1.045 2.32-2.906 3.48-1.86 1.161-4.2 1.161-1.917 0-3.566-.805-1.649-.806-3.7-2.59-1.267-1.111-2.024-1.59-.757-.48-1.755-.48-1.4 0-2.33 1.045-.93 1.045-.891 3.48zm35.654 10.95h-7.383l16.703-33.06v-.268h-19.387v-5.945h26.75v6.08L734.834 232.9zm18.76.422q-1.745 0-2.991-1.227-1.247-1.228-1.228-2.992-.019-1.726 1.228-2.953 1.246-1.227 2.991-1.227 1.688 0 2.944 1.227t1.275 2.953q-.02 1.17-.604 2.129-.585.958-1.534 1.524-.95.566-2.08.566zm22.596.326q-4.737 0-8.122-2.407-3.384-2.406-5.196-6.96-1.812-4.555-1.812-10.979.019-6.424 1.83-10.94 1.813-4.516 5.198-6.894 3.384-2.378 8.102-2.378 4.717 0 8.111 2.378 3.394 2.378 5.206 6.904 1.813 4.525 1.813 10.93 0 6.443-1.813 10.998-1.812 4.554-5.196 6.95-3.385 2.398-8.121 2.398zm0-6.002q3.681 0 5.82-3.634 2.138-3.634 2.138-10.71 0-4.679-.978-7.862t-2.762-4.804q-1.783-1.62-4.218-1.62-3.663 0-5.792 3.634-2.128 3.634-2.147 10.652-.02 4.698.949 7.9.968 3.203 2.752 4.823 1.783 1.62 4.238 1.62zm53.718-21.478h-7.249q-.48-1.553-1.313-2.79-.835-1.237-1.995-2.119-1.16-.882-2.656-1.332-1.495-.451-3.26-.451-3.164 0-5.637 1.592-2.474 1.591-3.883 4.669-1.41 3.078-1.41 7.488 0 4.45 1.4 7.537 1.4 3.087 3.893 4.688 2.493 1.601 5.79 1.601 2.992 0 5.188-1.15 2.196-1.15 3.385-3.27 1.189-2.119 1.189-4.976l1.61.25h-10.662v-5.562h15.936v4.718q0 5.043-2.148 8.725-2.148 3.681-5.906 5.666-3.759 1.985-8.63 1.985-5.426 0-9.52-2.445-4.095-2.445-6.386-6.961-2.292-4.516-2.292-10.729 0-4.756 1.352-8.495 1.352-3.74 3.788-6.357 2.435-2.617 5.714-3.989 3.28-1.37 7.134-1.37 3.26 0 6.078.949 2.82.949 5.015 2.694 2.196 1.745 3.615 4.142 1.419 2.397 1.86 5.292zm13.966 26.732h-6.942v-29.455h6.942V232.9zm-3.452-33.635q-1.668 0-2.847-1.103-1.18-1.102-1.18-2.655 0-1.573 1.19-2.676 1.188-1.102 2.837-1.102 1.65 0 2.829 1.102 1.179 1.103 1.179 2.676 0 1.553-1.18 2.655-1.179 1.103-2.828 1.103zm25.07 33.635h-15.898v-39.273h15.034q4.257 0 7.086 1.333 2.828 1.333 4.238 3.634 1.41 2.301 1.41 5.216 0 2.397-.921 4.094-.92 1.697-2.474 2.752-1.553 1.054-3.47 1.515v.383q2.09.115 4.017 1.275 1.927 1.16 3.154 3.27 1.227 2.11 1.227 5.1 0 3.05-1.476 5.476-1.477 2.425-4.45 3.825-2.971 1.4-7.478 1.4zm-8.783-17.45v11.505h7.65q3.874 0 5.59-1.486 1.717-1.486 1.717-3.825 0-1.745-.863-3.155-.863-1.41-2.455-2.224-1.591-.815-3.796-.815h-7.843zm0-15.955v10.835h7.037q1.841 0 3.318-.681 1.476-.68 2.33-1.937.853-1.256.853-2.982 0-2.282-1.601-3.758-1.602-1.477-4.746-1.477h-7.191z"></path><path></path><path d="M899.23 233.188q-2.158 0-3.74-.95-1.582-.949-2.45-2.655-.867-1.707-.867-3.99 0-2.281.867-3.997.868-1.717 2.45-2.666 1.582-.949 3.74-.949 2.157 0 3.739.95 1.582.948 2.45 2.665.867 1.716.867 3.998t-.868 3.989q-.867 1.706-2.45 2.655-1.581.95-3.739.95zm.019-2.78q1.17 0 1.956-.648.786-.647 1.174-1.74.388-1.093.388-2.436 0-1.352-.388-2.45-.388-1.097-1.174-1.75-.787-.651-1.956-.651-1.199 0-1.99.652-.791.652-1.18 1.75-.388 1.097-.388 2.45 0 1.342.389 2.435.388 1.093 1.179 1.74t1.99.647zm12.582 2.492h-3.47v-14.727h3.365v2.454h.153q.403-1.275 1.385-1.97.983-.695 2.249-.695.287 0 .647.024.36.024.6.072v3.192q-.221-.076-.696-.139-.474-.062-.915-.062-.95 0-1.702.408-.753.407-1.185 1.126-.431.72-.431 1.659v8.658zm15.328-5.475h-2.771q-.048-1.745.465-2.905.513-1.16 1.438-1.74.925-.58 2.124-.58.93 0 1.745.388.815.388 1.87 1.318.603.518.997.777.393.259.9.259.73 0 1.185-.561.455-.56.427-1.702h2.78q.048 1.736-.474 2.896-.523 1.16-1.453 1.74-.93.58-2.1.58-.959 0-1.783-.403-.825-.402-1.85-1.294-.634-.556-1.012-.796-.379-.24-.878-.24-.7 0-1.165.523-.465.523-.445 1.74zm21.135 5.743q-2.138 0-3.792-.719t-2.59-1.97q-.934-1.251-.924-2.843-.01-1.237.536-2.272.547-1.036 1.482-1.73.935-.696 2.085-.888v-.134q-1.515-.336-2.45-1.548-.934-1.213-.925-2.805-.01-1.515.844-2.704.853-1.189 2.34-1.874 1.486-.686 3.394-.686 1.888 0 3.37.686 1.481.685 2.34 1.874.857 1.19.857 2.704 0 1.592-.944 2.805-.944 1.212-2.43 1.548v.134q1.15.192 2.075.887.926.695 1.477 1.73.551 1.036.551 2.273 0 1.592-.94 2.843t-2.583 1.97q-1.645.72-3.773.72zm0-2.742q1.102 0 1.917-.378.815-.38 1.266-1.07.45-.69.46-1.591-.01-.94-.484-1.664-.475-.724-1.294-1.136-.82-.412-1.865-.412-1.055 0-1.88.412-.824.412-1.299 1.136-.474.724-.465 1.664-.01.901.441 1.587.45.685 1.27 1.069.82.383 1.933.383zm0-8.945q.9 0 1.596-.365.695-.364 1.098-1.016.403-.652.412-1.505-.01-.844-.403-1.482-.393-.637-1.093-.987t-1.61-.35q-.93 0-1.635.35t-1.093.987q-.388.638-.379 1.482-.01.853.388 1.5t1.103 1.016q.705.37 1.616.37zm16.417-8.543q1.41.01 2.747.498 1.338.49 2.412 1.582 1.074 1.093 1.706 2.925.633 1.83.633 4.535 0 2.531-.542 4.52-.541 1.99-1.543 3.361-1.002 1.371-2.421 2.09-1.42.72-3.193.72-1.86 0-3.294-.73-1.433-.728-2.315-1.994-.882-1.265-1.083-2.895h3.5q.268 1.17 1.097 1.855.83.686 2.095.686 2.042 0 3.145-1.774 1.103-1.774 1.103-4.928h-.135q-.47.843-1.217 1.452-.748.61-1.693.935-.944.326-1.999.326-1.726 0-3.106-.825-1.381-.824-2.182-2.267-.8-1.443-.8-3.303 0-1.937.887-3.471t2.478-2.421q1.592-.887 3.72-.877zm.01 2.876q-1.036 0-1.865.508-.83.508-1.304 1.371-.475.863-.475 1.937 0 1.055.465 1.913.466.858 1.28 1.357.815.498 1.86.498.777 0 1.448-.302.672-.302 1.17-.83.499-.527.782-1.212.282-.686.282-1.443 0-1.026-.474-1.889-.475-.863-1.295-1.385-.82-.523-1.874-.523zm20.31 13.404v-1.035q0-1.141.485-2.1.484-.959 1.414-1.544.93-.585 2.253-.585 1.362 0 2.287.58.925.58 1.4 1.54.474.958.465 2.109v1.035q.01 1.141-.47 2.1-.48.959-1.41 1.544-.93.585-2.272.585-1.342 0-2.268-.585-.925-.585-1.404-1.544-.48-.959-.48-2.1zm2.503-1.035v1.035q.01.758.369 1.39.36.633 1.28.633.93 0 1.285-.628.355-.628.345-1.395v-1.035q.01-.767-.33-1.405-.341-.638-1.3-.638-.901 0-1.27.638-.37.638-.38 1.405zM975.05 217.98v-1.036q0-1.15.49-2.109.488-.959 1.418-1.539.93-.58 2.253-.58 1.352 0 2.278.58.925.58 1.4 1.54.474.958.464 2.108v1.036q.01 1.15-.47 2.105-.479.954-1.409 1.529t-2.263.575q-1.351 0-2.277-.575-.925-.575-1.404-1.534-.48-.96-.48-2.1zm2.522-1.036v1.036q.01.767.364 1.395.355.628 1.275.628.92 0 1.276-.628.354-.628.345-1.395v-1.036q.01-.767-.331-1.404-.34-.638-1.29-.638-.91 0-1.27.643-.36.642-.37 1.4zm.748 15.955h-2.407l13.5-19.636h2.407l-13.5 19.636z"></path></g><path d="M701.72 113.3h-2.963V93.664h2.963v8.533h9.79v-8.533h2.972V113.3h-2.973v-8.562h-9.789v8.562zm20.272.326q-1.4 0-2.531-.523-1.132-.522-1.788-1.52-.657-.996-.657-2.444 0-1.247.48-2.052.479-.805 1.294-1.275.815-.47 1.821-.71 1.007-.24 2.052-.364 1.323-.154 2.148-.254.825-.1 1.199-.331.373-.23.373-.748v-.067q0-1.256-.704-1.946-.705-.69-2.095-.69-1.448 0-2.277.637-.83.637-1.146 1.414l-2.694-.614q.479-1.342 1.404-2.171.925-.83 2.134-1.208 1.208-.379 2.54-.379.883 0 1.875.206t1.86.753q.868.546 1.424 1.558.556 1.011.556 2.622v9.78h-2.8v-2.013h-.115q-.278.556-.834 1.093-.556.536-1.429.891-.872.355-2.09.355zm.623-2.301q1.19 0 2.038-.47.848-.47 1.294-1.232.446-.762.446-1.635v-1.898q-.153.153-.59.283-.436.13-.992.22-.556.091-1.083.163l-.883.12q-.834.105-1.52.355-.685.249-1.092.714-.408.465-.408 1.232 0 1.064.786 1.606.787.542 2.004.542zm12.468 1.975h-2.867V98.573h2.77v2.34h.154q.403-1.19 1.424-1.875 1.021-.686 2.316-.686.268 0 .637.02.37.019.58.047v2.743q-.172-.048-.613-.11-.441-.063-.882-.063-1.017 0-1.808.427-.79.426-1.251 1.179-.46.753-.46 1.711v8.994zm11.623.288q-1.783 0-3.178-.916t-2.186-2.618q-.791-1.701-.791-4.089 0-2.387.8-4.084.801-1.697 2.201-2.599 1.4-.901 3.174-.901 1.37 0 2.21.455.839.456 1.304 1.06.465.604.724 1.064h.172v-7.296h2.867V113.3h-2.8v-2.292h-.24q-.258.47-.743 1.074-.484.604-1.327 1.055-.844.45-2.187.45zm.633-2.445q1.237 0 2.095-.657.858-.657 1.304-1.827.446-1.17.446-2.723 0-1.534-.441-2.684-.441-1.15-1.294-1.793-.854-.643-2.11-.643-1.294 0-2.157.671-.863.672-1.3 1.832-.436 1.16-.436 2.617 0 1.477.442 2.656.44 1.18 1.308 1.865.868.686 2.143.686zm22.528 2.454q-2.176 0-3.744-.935-1.567-.934-2.416-2.636-.848-1.702-.848-3.994 0-2.263.848-3.988.849-1.726 2.378-2.695 1.53-.968 3.581-.968 1.247 0 2.416.412 1.17.413 2.1 1.295.93.882 1.467 2.286.537 1.405.537 3.409v1.016h-11.707v-2.147h8.898q0-1.132-.46-2.01-.46-.876-1.29-1.385-.83-.508-1.942-.508-1.208 0-2.104.59-.897.59-1.381 1.534-.484.944-.484 2.047v1.678q0 1.477.522 2.512.523 1.036 1.463 1.577.94.542 2.195.542.815 0 1.486-.235.672-.235 1.16-.705.49-.47.748-1.16l2.714.49q-.326 1.198-1.165 2.094-.84.897-2.1 1.39-1.26.494-2.872.494zM787.6 98.573h3.078l-5.341 14.727h-3.068l-5.35-14.727h3.077l3.73 11.333h.154l3.72-11.333zm7.779 14.727h-2.867V98.573h2.867V113.3zm-1.42-17q-.747 0-1.28-.503-.532-.503-.532-1.203 0-.71.533-1.213.532-.504 1.28-.504.747 0 1.28.504.532.503.532 1.213 0 .7-.532 1.203-.533.503-1.28.503zm10.617 17.297q-2.138 0-3.677-.973-1.538-.973-2.363-2.69-.825-1.716-.825-3.93 0-2.244.844-3.965.844-1.721 2.378-2.69 1.534-.968 3.615-.968 1.678 0 2.991.618 1.314.619 2.124 1.731t.964 2.598h-2.79q-.23-1.035-1.05-1.783-.82-.748-2.191-.748-1.199 0-2.095.628-.897.628-1.395 1.784-.499 1.155-.499 2.727 0 1.611.489 2.78.489 1.17 1.385 1.813.897.642 2.115.642.815 0 1.481-.302.666-.302 1.122-.867.455-.566.637-1.362h2.79q-.153 1.429-.93 2.55-.776 1.122-2.075 1.765-1.3.642-3.045.642zm7.099-15.024h8.044v2.3h-8.044v-2.3zm2.157 10.997V95.044h2.867v13.932q0 .834.249 1.251.25.417.647.566.398.148.868.148.345 0 .604-.048l.403-.076.517 2.368q-.249.096-.71.196-.46.101-1.15.11-1.131.02-2.109-.402-.978-.422-1.582-1.304-.604-.882-.604-2.215zm11.058 3.73h-2.867V98.573h2.867V113.3zm-1.42-17q-.747 0-1.28-.503-.531-.503-.531-1.203 0-.71.532-1.213.532-.504 1.28-.504t1.28.504q.532.503.532 1.213 0 .7-.532 1.203-.532.503-1.28.503zm10.618 17.297q-2.071 0-3.615-.949-1.544-.95-2.397-2.656-.853-1.707-.853-3.989 0-2.291.853-4.007.853-1.717 2.397-2.666 1.544-.949 3.615-.949 2.07 0 3.614.95 1.544.948 2.397 2.665.854 1.716.854 4.007 0 2.282-.854 3.99-.853 1.706-2.397 2.655-1.543.95-3.614.95zm.01-2.406q1.342 0 2.224-.71.882-.71 1.309-1.889.426-1.18.426-2.598 0-1.41-.426-2.594-.427-1.184-1.31-1.903-.881-.719-2.224-.719-1.352 0-2.238.72-.887.718-1.314 1.902-.427 1.184-.427 2.594 0 1.419.427 2.598.427 1.18 1.314 1.89.886.709 2.238.709zm12.054-6.635v8.744h-2.866V98.573h2.751v2.397h.183q.508-1.17 1.596-1.88 1.088-.709 2.747-.709 1.505 0 2.637.628 1.131.628 1.754 1.865.624 1.237.624 3.058v9.368h-2.867v-9.022q0-1.602-.834-2.508-.835-.906-2.292-.906-.997 0-1.769.432-.772.431-1.218 1.26-.446.83-.446 2zm17.524-5.983h8.044v2.3h-8.044v-2.3zm2.157 10.997V95.044h2.867v13.932q0 .834.25 1.251.248.417.646.566.398.148.868.148.345 0 .604-.048l.403-.076.518 2.368q-.25.096-.71.196-.46.101-1.15.11-1.132.02-2.11-.402-.978-.422-1.582-1.304-.604-.882-.604-2.215zm11.365-5.014v8.744h-2.867V93.664h2.828v7.306h.183q.517-1.19 1.582-1.89 1.064-.699 2.78-.699 1.515 0 2.651.623t1.765 1.855q.628 1.233.628 3.073v9.368h-2.867v-9.022q0-1.62-.834-2.517-.835-.897-2.32-.897-1.017 0-1.818.432-.8.431-1.256 1.26-.455.83-.455 2zm15.392 8.744h-2.867V98.573h2.77v2.34h.154q.403-1.19 1.424-1.875 1.021-.686 2.315-.686.269 0 .638.02.37.019.58.047v2.743q-.172-.048-.613-.11-.442-.063-.883-.063-1.016 0-1.807.427-.791.426-1.251 1.179-.46.753-.46 1.711v8.994zm12.457.297q-2.176 0-3.744-.935-1.567-.934-2.416-2.636-.848-1.702-.848-3.994 0-2.263.848-3.988.849-1.726 2.378-2.695 1.53-.968 3.581-.968 1.247 0 2.416.412 1.17.413 2.1 1.295.93.882 1.467 2.286.537 1.405.537 3.409v1.016h-11.707v-2.147h8.898q0-1.132-.46-2.01-.46-.876-1.29-1.385-.83-.508-1.942-.508-1.208 0-2.104.59-.897.59-1.381 1.534-.484.944-.484 2.047v1.678q0 1.477.522 2.512.523 1.036 1.463 1.577.94.542 2.195.542.815 0 1.486-.235t1.16-.705q.49-.47.748-1.16l2.714.49q-.326 1.198-1.165 2.094-.84.897-2.1 1.39-1.26.494-2.872.494zm19.688-11.429l-2.599.46q-.163-.498-.513-.949-.35-.45-.944-.738-.595-.288-1.486-.288-1.218 0-2.033.542t-.815 1.395q0 .738.547 1.189.546.45 1.764.738l2.34.537q2.032.47 3.03 1.448.996.978.996 2.54 0 1.324-.762 2.355-.762 1.03-2.119 1.615-1.357.585-3.14.585-2.474 0-4.037-1.06-1.562-1.059-1.917-3.015l2.77-.422q.26 1.084 1.065 1.635.805.552 2.1.552 1.41 0 2.253-.59.844-.59.844-1.443 0-.69-.513-1.16t-1.568-.71l-2.493-.546q-2.061-.47-3.044-1.496-.983-1.026-.983-2.598 0-1.304.729-2.282t2.013-1.53q1.285-.551 2.944-.551 2.387 0 3.758 1.03 1.372 1.031 1.813 2.757zm5.439 2.388v8.744h-2.867V93.664h2.829v7.306h.182q.518-1.19 1.582-1.89 1.064-.699 2.78-.699 1.515 0 2.651.623 1.137.623 1.765 1.855.628 1.233.628 3.073v9.368h-2.867v-9.022q0-1.62-.834-2.517-.834-.897-2.32-.897-1.017 0-1.818.432-.8.431-1.256 1.26-.455.83-.455 2zm18.728 9.041q-2.07 0-3.614-.949-1.544-.95-2.397-2.656-.854-1.707-.854-3.989 0-2.291.854-4.007.853-1.717 2.397-2.666 1.543-.949 3.614-.949 2.071 0 3.615.95 1.544.948 2.397 2.665.853 1.716.853 4.007 0 2.282-.853 3.99-.853 1.706-2.397 2.655-1.544.95-3.615.95zm.01-2.406q1.342 0 2.224-.71.883-.71 1.31-1.889.426-1.18.426-2.598 0-1.41-.427-2.594-.426-1.184-1.309-1.903-.882-.719-2.224-.719-1.352 0-2.239.72-.887.718-1.313 1.902-.427 1.184-.427 2.594 0 1.419.427 2.598.426 1.18 1.313 1.89.887.709 2.239.709zm9.188-17.527h2.867V113.3H958.1V93.664zm11.375 19.924q-1.784 0-3.179-.916-1.395-.916-2.186-2.618-.79-1.701-.79-4.089 0-2.387.8-4.084.8-1.697 2.2-2.599 1.4-.901 3.174-.901 1.37 0 2.21.455.839.456 1.304 1.06.465.604.724 1.064h.172v-7.296h2.867V113.3h-2.8v-2.292h-.24q-.258.47-.742 1.074-.484.604-1.328 1.055-.844.45-2.186.45zm.632-2.445q1.237 0 2.095-.657.859-.657 1.304-1.827.446-1.17.446-2.723 0-1.534-.44-2.684-.442-1.15-1.295-1.793t-2.11-.643q-1.294 0-2.157.671-.863.672-1.299 1.832-.436 1.16-.436 2.617 0 1.477.44 2.656.442 1.18 1.31 1.865.867.686 2.142.686z" fill="#5C5C5C" fill-opacity="0.85" fill-rule="nonzero"></path><g fill="#1E1E1E" fill-rule="nonzero"><path d="M702.095 34.327h6.769V73.6h-7.115V41.25h-.23l-9.185 5.868v-6.52l9.76-6.27zm29.556 40.02q-4.737 0-8.121-2.406-3.385-2.406-5.197-6.96-1.812-4.555-1.812-10.979.02-6.424 1.831-10.94 1.812-4.516 5.197-6.894t8.102-2.378q4.717 0 8.111 2.378 3.395 2.378 5.207 6.904 1.812 4.525 1.812 10.93 0 6.443-1.812 10.998-1.812 4.554-5.197 6.95-3.385 2.398-8.121 2.398zm0-6.001q3.682 0 5.82-3.634 2.138-3.634 2.138-10.71 0-4.679-.978-7.862t-2.761-4.804q-1.784-1.62-4.22-1.62-3.662 0-5.79 3.634-2.129 3.634-2.148 10.652-.02 4.698.95 7.9.968 3.203 2.751 4.823 1.783 1.62 4.238 1.62zm34.293 6.002q-4.737 0-8.121-2.407-3.385-2.406-5.197-6.96-1.812-4.555-1.812-10.979.019-6.424 1.831-10.94 1.812-4.516 5.197-6.894 3.384-2.378 8.102-2.378 4.717 0 8.111 2.378 3.394 2.378 5.206 6.904 1.813 4.525 1.813 10.93 0 6.443-1.813 10.998-1.812 4.554-5.196 6.95-3.385 2.398-8.121 2.398zm0-6.002q3.681 0 5.82-3.634 2.138-3.634 2.138-10.71 0-4.679-.978-7.862t-2.762-4.804q-1.783-1.62-4.218-1.62-3.663 0-5.792 3.634-2.128 3.634-2.147 10.652-.02 4.698.949 7.9.968 3.203 2.752 4.823 1.783 1.62 4.238 1.62zm20.16 5.254V34.327h8.706l11.659 28.458h.46l11.659-28.458h8.706V73.6h-6.827V46.62h-.364l-10.854 26.865h-5.1l-10.854-26.923h-.365V73.6h-6.826zm53.852 0h-6.942V44.145h6.942V73.6zm-3.452-33.635q-1.668 0-2.847-1.103-1.18-1.102-1.18-2.655 0-1.573 1.19-2.676 1.188-1.102 2.837-1.102 1.65 0 2.829 1.102 1.18 1.103 1.18 2.676 0 1.553-1.18 2.655-1.18 1.103-2.829 1.103zm25.07 33.635h-15.898V34.327h15.035q4.257 0 7.085 1.333 2.829 1.333 4.238 3.634 1.41 2.301 1.41 5.216 0 2.397-.921 4.094-.92 1.697-2.474 2.752-1.553 1.054-3.47 1.515v.383q2.09.115 4.017 1.275 1.927 1.16 3.154 3.27 1.228 2.11 1.228 5.1 0 3.05-1.477 5.476-1.477 2.425-4.449 3.825-2.972 1.4-7.479 1.4zm-8.783-17.45v11.505h7.651q3.874 0 5.59-1.486 1.716-1.486 1.716-3.825 0-1.745-.863-3.155-.863-1.41-2.454-2.224-1.592-.815-3.797-.815h-7.843zm0-15.955V51.03h7.037q1.841 0 3.318-.681 1.476-.68 2.33-1.937.853-1.256.853-2.982 0-2.282-1.601-3.758-1.601-1.477-4.746-1.477h-7.191z"></path><path></path><path d="M896.051 73.888q-2.157 0-3.739-.95-1.582-.949-2.45-2.655-.867-1.707-.867-3.99 0-2.281.867-3.997.868-1.717 2.45-2.666 1.582-.949 3.74-.949 2.157 0 3.739.95 1.582.948 2.45 2.665.867 1.716.867 3.998t-.868 3.989q-.867 1.706-2.45 2.655-1.581.95-3.739.95zm.02-2.78q1.17 0 1.956-.648.786-.647 1.174-1.74.388-1.093.388-2.436 0-1.352-.388-2.45-.388-1.097-1.174-1.75-.787-.651-1.956-.651-1.199 0-1.99.652-.791.652-1.18 1.75-.388 1.097-.388 2.45 0 1.342.389 2.435.388 1.093 1.179 1.74t1.99.647zm12.582 2.492h-3.47V58.873h3.365v2.454h.153q.403-1.275 1.385-1.97.983-.695 2.249-.695.287 0 .647.024.36.024.6.072v3.192q-.221-.076-.696-.139-.474-.062-.915-.062-.95 0-1.702.408-.753.407-1.185 1.126-.431.72-.431 1.659V73.6zm15.328-5.475h-2.771q-.048-1.745.465-2.905.513-1.16 1.438-1.74.925-.58 2.124-.58.93 0 1.745.388.815.388 1.87 1.318.603.518.997.777.393.259.9.259.73 0 1.185-.561.455-.56.427-1.702h2.78q.048 1.736-.474 2.896-.523 1.16-1.453 1.74-.93.58-2.1.58-.959 0-1.783-.403-.825-.402-1.85-1.294-.634-.556-1.012-.796-.379-.24-.878-.24-.7 0-1.165.523-.465.523-.445 1.74zm18.757-14.161h3.384V73.6h-3.557V57.425h-.115l-4.593 2.934v-3.26l4.88-3.135zm18.019 15.954v-1.035q0-1.141.484-2.1.484-.959 1.414-1.544.93-.585 2.253-.585 1.362 0 2.287.58.925.58 1.4 1.54.475.958.465 2.109v1.035q.01 1.141-.47 2.1-.48.959-1.41 1.544-.93.585-2.272.585-1.342 0-2.267-.585-.925-.585-1.405-1.544-.48-.959-.48-2.1zm2.502-1.035v1.035q.01.758.37 1.39.359.633 1.28.633.93 0 1.284-.628.355-.628.345-1.395v-1.035q.01-.767-.33-1.405t-1.3-.638q-.9 0-1.27.638t-.379 1.405zM950.776 58.68v-1.036q0-1.15.489-2.109.489-.959 1.419-1.539t2.253-.58q1.352 0 2.277.58t1.4 1.54q.474.958.465 2.108v1.036q.01 1.15-.47 2.105-.48.954-1.41 1.529-.93.575-2.262.575-1.352 0-2.277-.575-.926-.575-1.405-1.534-.48-.96-.48-2.1zm2.521-1.036v1.036q.01.767.365 1.395.354.628 1.275.628.92 0 1.275-.628.355-.628.345-1.395v-1.036q.01-.767-.33-1.404-.341-.638-1.29-.638-.911 0-1.27.643-.36.642-.37 1.4zm.748 15.955h-2.407l13.5-19.636h2.407l-13.5 19.636z"></path></g><g fill="#1E1E1E" fill-rule="nonzero"><path d="M701.711 433.6h-7.383l16.703-33.06v-.268h-19.387v-5.945h26.75v6.08L701.711 433.6zm34.83.748q-4.737 0-8.121-2.407-3.385-2.406-5.197-6.96-1.812-4.555-1.812-10.979.019-6.424 1.831-10.94 1.812-4.516 5.197-6.894 3.384-2.378 8.102-2.378 4.717 0 8.111 2.378 3.394 2.378 5.207 6.904 1.812 4.525 1.812 10.93 0 6.443-1.812 10.998-1.813 4.554-5.197 6.95-3.385 2.398-8.121 2.398zm0-6.002q3.682 0 5.82-3.634 2.138-3.634 2.138-10.71 0-4.679-.978-7.862t-2.761-4.804q-1.784-1.62-4.22-1.62-3.662 0-5.79 3.634-2.129 3.634-2.148 10.652-.02 4.698.95 7.9.967 3.203 2.75 4.823 1.784 1.62 4.239 1.62zm34.293 6.002q-4.737 0-8.122-2.407-3.384-2.406-5.196-6.96-1.812-4.555-1.812-10.979.019-6.424 1.83-10.94 1.813-4.516 5.198-6.894 3.384-2.378 8.102-2.378 4.717 0 8.111 2.378 3.394 2.378 5.206 6.904 1.813 4.525 1.813 10.93 0 6.443-1.813 10.998-1.812 4.554-5.196 6.95-3.385 2.398-8.121 2.398zm0-6.002q3.681 0 5.82-3.634 2.138-3.634 2.138-10.71 0-4.679-.978-7.862t-2.762-4.804q-1.783-1.62-4.218-1.62-3.663 0-5.792 3.634-2.128 3.634-2.147 10.652-.02 4.698.949 7.9.968 3.203 2.752 4.823 1.783 1.62 4.238 1.62zm20.16 5.254v-39.273h8.706l11.659 28.458h.46l11.659-28.458h8.706V433.6h-6.827v-26.98h-.364l-10.854 26.865h-5.1l-10.854-26.923h-.365V433.6h-6.826zm53.852 0h-6.942v-29.455h6.942V433.6zm-3.452-33.635q-1.668 0-2.847-1.103-1.18-1.102-1.18-2.655 0-1.573 1.19-2.676 1.188-1.102 2.837-1.102 1.65 0 2.829 1.102 1.18 1.103 1.18 2.676 0 1.553-1.18 2.655-1.18 1.103-2.829 1.103zm25.07 33.635h-15.898v-39.273H865.6q4.258 0 7.086 1.333 2.828 1.333 4.238 3.634 1.41 2.301 1.41 5.216 0 2.397-.921 4.094-.92 1.697-2.474 2.752-1.553 1.054-3.47 1.515v.383q2.09.115 4.017 1.275 1.927 1.16 3.154 3.27 1.227 2.11 1.227 5.1 0 3.05-1.476 5.476-1.477 2.425-4.449 3.825-2.972 1.4-7.479 1.4zm-8.783-17.45v11.505h7.651q3.874 0 5.59-1.486 1.716-1.486 1.716-3.825 0-1.745-.863-3.155-.863-1.41-2.454-2.224-1.592-.815-3.797-.815h-7.843zm0-15.955v10.835h7.037q1.841 0 3.318-.681 1.476-.68 2.33-1.937.853-1.256.853-2.982 0-2.282-1.601-3.758-1.601-1.477-4.746-1.477h-7.191z"></path><path></path><path d="M900.914 433.888q-2.157 0-3.739-.95-1.582-.949-2.45-2.655-.867-1.707-.867-3.99 0-2.281.867-3.997.868-1.717 2.45-2.666 1.582-.949 3.74-.949 2.157 0 3.739.95 1.582.948 2.45 2.665.867 1.716.867 3.998t-.868 3.989q-.867 1.706-2.45 2.655-1.581.95-3.739.95zm.02-2.78q1.17 0 1.956-.648.786-.647 1.174-1.74.388-1.093.388-2.436 0-1.352-.388-2.45-.388-1.097-1.174-1.75-.787-.651-1.956-.651-1.199 0-1.99.652-.791.652-1.18 1.75-.388 1.097-.388 2.45 0 1.342.389 2.435.388 1.093 1.179 1.74t1.99.647zm12.582 2.492h-3.47v-14.727h3.365v2.454h.153q.403-1.275 1.385-1.97.983-.695 2.249-.695.287 0 .647.024.36.024.6.072v3.192q-.221-.076-.696-.139-.474-.062-.915-.062-.95 0-1.702.408-.753.407-1.185 1.126-.431.72-.431 1.659v8.658zm19-19.962q1.41.01 2.747.498 1.337.49 2.411 1.582 1.074 1.093 1.707 2.925.633 1.83.633 4.535 0 2.531-.542 4.52-.542 1.99-1.544 3.361-1.002 1.371-2.42 2.09-1.42.72-3.194.72-1.86 0-3.293-.73-1.433-.728-2.316-1.994-.882-1.265-1.083-2.895h3.5q.268 1.17 1.098 1.855.829.686 2.094.686 2.043 0 3.145-1.774 1.103-1.774 1.103-4.928h-.134q-.47.843-1.218 1.452-.748.61-1.692.935-.945.326-2 .326-1.725 0-3.106-.825-1.38-.824-2.181-2.267-.8-1.443-.8-3.303 0-1.937.886-3.471.887-1.534 2.479-2.421 1.591-.887 3.72-.877zm.01 2.876q-1.036 0-1.865.508-.83.508-1.304 1.371-.475.863-.475 1.937 0 1.055.465 1.913.465.858 1.28 1.357.815.498 1.86.498.777 0 1.448-.302.671-.302 1.17-.83.498-.527.781-1.212.283-.686.283-1.443 0-1.026-.475-1.889-.474-.863-1.294-1.385-.82-.523-1.875-.523zm20.31 13.404v-1.035q0-1.141.484-2.1.484-.959 1.414-1.544.93-.585 2.254-.585 1.361 0 2.286.58.926.58 1.4 1.54.475.958.465 2.109v1.035q.01 1.141-.47 2.1-.48.959-1.41 1.544-.93.585-2.271.585-1.343 0-2.268-.585-.925-.585-1.405-1.544-.48-.959-.48-2.1zm2.502-1.035v1.035q.01.758.37 1.39.36.633 1.28.633.93 0 1.284-.628.355-.628.345-1.395v-1.035q.01-.767-.33-1.405t-1.3-.638q-.9 0-1.27.638-.369.638-.379 1.405zm-12.483-10.202v-1.036q0-1.15.489-2.109.489-.959 1.419-1.539t2.253-.58q1.352 0 2.277.58t1.4 1.54q.475.958.465 2.108v1.036q.01 1.15-.47 2.105-.48.954-1.41 1.529-.93.575-2.262.575-1.352 0-2.277-.575t-1.405-1.534q-.48-.96-.48-2.1zm2.521-1.036v1.036q.01.767.365 1.395.354.628 1.275.628.92 0 1.275-.628.355-.628.345-1.395v-1.036q.01-.767-.33-1.404-.34-.638-1.29-.638-.91 0-1.27.643-.36.642-.37 1.4zm.748 15.955h-2.406l13.5-19.636h2.406l-13.5 19.636z"></path></g><path d="M132.131 459.552c-3.816 0-7.129-.361-9.939-1.083-2.81-.722-5.13-1.895-6.96-3.519s-3.19-3.783-4.08-6.478c-.89-2.694-1.335-6.013-1.335-9.958V265.377c0-4.125-.863-7.09-2.59-8.895-1.728-1.804-4.77-2.707-9.127-2.707v-11.137c4.357 0 7.4-.896 9.126-2.688 1.728-1.792 2.591-4.763 2.591-8.914V64.237c0-3.944.445-7.263 1.335-9.958.89-2.694 2.25-4.853 4.08-6.477 1.83-1.624 4.15-2.797 6.96-3.52 2.81-.721 6.123-1.082 9.94-1.082v9.165c-2.99 0-5.325.439-7 1.315-1.676.877-2.843 2.237-3.5 4.08-.658 1.843-.987 4.196-.987 7.058v169.776c0 1.985-.296 3.822-.889 5.51-.593 1.69-1.689 3.153-3.287 4.39-1.599 1.238-3.88 2.204-6.845 2.9-.258.061-.522.119-.793.174l-.019.005v1.291l.02.004c.134.027.27.054.4.083l.392.087c2.965.683 5.246 1.65 6.845 2.9 1.598 1.25 2.694 2.72 3.287 4.41.593 1.688.89 3.525.89 5.51v176.076c0 2.836.328 5.176.986 7.02.657 1.843 1.824 3.21 3.5 4.099 1.675.889 4.008 1.334 7 1.334v9.165z" fill-opacity="0.85" fill="#B5B5B5" fill-rule="nonzero"></path><path d="M37.264 414.344v6.117h-2.55v-15.197h2.55v6.127H54.35v2.953H37.264zm7.268-27.799q3.145 0 5.403 1.15 2.258 1.151 3.47 3.15 1.213 2 1.213 4.54 0 2.55-1.212 4.55-1.213 1.999-3.476 3.15-2.263 1.15-5.398 1.15-3.145 0-5.403-1.15-2.258-1.151-3.47-3.15-1.214-2-1.214-4.55 0-2.54 1.213-4.54 1.213-1.999 3.471-3.15 2.258-1.15 5.403-1.15zm0 2.934q-2.397 0-4.042.772-1.644.772-2.492 2.11-.849 1.337-.849 3.024 0 1.697.849 3.03.848 1.333 2.492 2.105 1.645.772 4.042.772t4.041-.772q1.645-.772 2.493-2.105.849-1.333.849-3.03 0-1.687-.849-3.025-.848-1.337-2.493-2.11-1.644-.77-4.041-.77zm-7.268-10.08v6.117h-2.55V370.32h2.55v6.127H54.35v2.953H37.264zm1.016-16.446l16.07 5.56v3.146l-19.636-7.067v-3.423l19.636-7.066v3.145l-16.07 5.551v.154zm10.873 5.033H46.66v-10.201h2.493v10.201zm5.197-27.712v11.86H34.714v-2.962H51.8v-8.898h2.55z" fill="#6E6E6E" fill-opacity="0.85" fill-rule="nonzero"></path><path d="M35.808 299.316q0 2.851-.959 5.057-.959 2.205-2.627 3.451-1.668 1.247-3.79 1.234-1.65.013-3.03-.716-1.381-.729-2.308-1.975-.927-1.247-1.182-2.78h-.18q-.447 2.02-2.064 3.266t-3.74 1.233q-2.02.013-3.604-1.125-1.586-1.137-2.5-3.119-.914-1.981-.914-4.526 0-2.518.914-4.493.914-1.975 2.5-3.12 1.585-1.144 3.605-1.144 2.122 0 3.739 1.26 1.617 1.259 2.065 3.24h.179q.255-1.534 1.182-2.767.927-1.234 2.308-1.97 1.38-.734 3.03-.734 2.122 0 3.79 1.253 1.668 1.252 2.627 3.445.959 2.192.959 5.03zm-3.656 0q0-1.47-.505-2.556-.505-1.087-1.426-1.688-.92-.6-2.122-.613-1.253.012-2.218.645-.965.633-1.515 1.726-.55 1.093-.55 2.486 0 1.407.55 2.506.55 1.1 1.515 1.732.965.633 2.218.62 1.202.013 2.116-.588.914-.6 1.425-1.694.512-1.093.512-2.576zm-11.928 0q0-1.201-.486-2.128-.485-.927-1.355-1.464-.87-.537-2.007-.55-1.125.013-1.975.537-.85.525-1.317 1.458-.466.933-.466 2.147 0 1.24.466 2.18.467.94 1.317 1.458.85.517 1.975.505 1.138.012 2-.518.864-.53 1.356-1.47.492-.94.492-2.155zm-2.595-35.429v4.833q-1.036.32-1.86.875-.825.556-1.413 1.33-.588.773-.888 1.77-.3.998-.3 2.174 0 2.11 1.06 3.758 1.061 1.65 3.113 2.589 2.052.94 4.993.94 2.965 0 5.024-.934 2.058-.933 3.125-2.595 1.068-1.662 1.068-3.86 0-1.995-.767-3.459-.767-1.463-2.18-2.256-1.413-.793-3.317-.793l.166-1.074v7.108h-3.708V263.67h3.145q3.363 0 5.817 1.432 2.455 1.432 3.778 3.937 1.323 2.506 1.323 5.753 0 3.618-1.63 6.347-1.63 2.73-4.64 4.257-3.011 1.528-7.153 1.528-3.17 0-5.664-.901-2.493-.901-4.238-2.525-1.745-1.624-2.659-3.81-.914-2.186-.914-4.755 0-2.174.633-4.053.633-1.88 1.796-3.343 1.164-1.464 2.762-2.41 1.598-.946 3.528-1.24zm17.821-9.311v4.628H15.814v-4.628H35.45zm-22.423 2.3q0 1.113-.735 1.9-.735.786-1.771.786-1.048 0-1.783-.793-.735-.793-.735-1.892 0-1.1.735-1.886.735-.786 1.783-.786 1.036 0 1.77.786.736.787.736 1.886zm22.423-16.712v10.598H9.268v-10.023q0-2.838.889-4.724.888-1.886 2.422-2.825 1.534-.94 3.478-.94 1.598 0 2.729.614 1.131.613 1.834 1.649.704 1.036 1.01 2.314h.256q.077-1.394.85-2.678.774-1.285 2.18-2.103 1.406-.819 3.4-.819 2.033 0 3.65.985 1.618.984 2.55 2.966.934 1.981.934 4.986zm-11.634 5.855h7.67v-5.101q0-2.583-.99-3.727-.99-1.144-2.55-1.144-1.164 0-2.103.575-.94.576-1.483 1.637-.544 1.06-.544 2.531v5.229zm-10.636 0h7.223v-4.692q0-1.227-.454-2.212-.454-.984-1.29-1.553-.838-.569-1.989-.569-1.521 0-2.506 1.068-.984 1.067-.984 3.164v4.794zm66.27 44.655v17.95h-3.426l-8.91-9.09q-1.317-1.304-2.34-2.173-1.023-.87-1.982-1.304-.958-.435-2.045-.435-1.24 0-2.129.562-.888.563-1.374 1.547-.486.985-.486 2.237 0 1.292.53 2.263.531.972 1.503 1.502.971.53 2.314.53v4.514q-2.493 0-4.334-1.138-1.84-1.138-2.85-3.139-1.01-2-1.01-4.595 0-2.634.984-4.628.984-1.995 2.697-3.1 1.713-1.106 3.912-1.106 1.47 0 2.89.562 1.418.563 3.144 1.975 1.726 1.413 4.18 3.957l4.59 4.513h.179v-11.404h3.963zm-19.636-15.946v-4.922L79.45 276.8v5.114l-19.636 6.993v-4.935l14.586-4.513v-.204l-14.586-4.526zm2.288-29.587v4.781q-1.176.205-2.09.755-.914.55-1.553 1.368-.64.818-.966 1.86-.326 1.042-.326 2.243 0 2.135 1.068 3.784 1.067 1.65 3.12 2.583 2.051.933 5.004.933 3.004 0 5.056-.94t3.094-2.582q1.042-1.643 1.042-3.765 0-1.176-.313-2.205-.314-1.03-.927-1.854-.614-.824-1.509-1.393-.895-.57-2.045-.787l.025-4.78q1.867.268 3.503 1.156 1.637.889 2.883 2.32 1.246 1.432 1.943 3.35.697 1.917.697 4.257 0 3.452-1.598 6.162t-4.615 4.27q-3.017 1.56-7.236 1.56-4.231 0-7.242-1.573-3.01-1.572-4.609-4.283-1.598-2.71-1.598-6.136 0-2.186.614-4.065.613-1.88 1.796-3.35 1.183-1.47 2.89-2.422 1.706-.953 3.892-1.247zm17.348-7.956v4.743H53.268v-9.818q0-3.017 1.125-5.07 1.125-2.051 3.088-3.106 1.962-1.055 4.455-1.055 2.518 0 4.474 1.062 1.956 1.06 3.075 3.132 1.118 2.07 1.118 5.1v6.508h-3.899v-5.868q0-1.764-.613-2.89-.614-1.124-1.688-1.668-1.074-.543-2.467-.543-1.394 0-2.455.543-1.06.544-1.655 1.675t-.595 2.908v4.347H79.45zm-9.473-33.78H53.268v-4.743h17.105q2.813 0 4.948 1.323 2.135 1.323 3.33 3.714 1.195 2.39 1.195 5.586 0 3.21-1.195 5.6-1.195 2.39-3.33 3.707-2.135 1.317-4.948 1.317H53.268v-4.743h16.709q1.636 0 2.915-.722 1.278-.722 2-2.04.723-1.316.723-3.119 0-1.802-.723-3.125-.722-1.323-2-2.04-1.279-.715-2.915-.715z" fill="#000" fill-opacity="0.85" fill-rule="nonzero"></path><g transform="translate(171.899995, 40.499999)"><mask id="mask-2" fill="#fff"><use xlink:href="#path-1"></use></mask><use fill="#F9F2E7" fill-rule="nonzero" xlink:href="#path-1"></use><g mask="url(#mask-2)" fill="#FFF"><path d="M251.235-274.345l275.56 275.56-6.364 6.364-275.56-275.56zm-12.728 12.728l275.56 275.56-6.364 6.364-275.56-275.56zm-12.728 12.728l275.56 275.56-6.364 6.364-275.56-275.56zm-12.728 12.728L488.611 39.4l-6.364 6.364-275.56-275.56zm-12.728 12.728l275.56 275.56-6.364 6.364-275.56-275.56zm-12.728 12.728l275.56 275.56-6.364 6.364-275.56-275.56zm-12.728 12.728l275.56 275.56-6.364 6.363-275.56-275.559zm-12.727 12.728L437.7 90.31l-6.365 6.363-275.56-275.56zm-12.728 12.728l275.56 275.56-6.365 6.363-275.56-275.56zm-12.728 12.728l275.56 275.56-6.365 6.363-275.56-275.56zm-12.728 12.728l275.56 275.56-6.365 6.363-275.56-275.56zm-12.728 12.728l275.56 275.56-6.365 6.363-275.56-275.56zM98.5-121.61l275.56 275.56-6.365 6.363-275.559-275.56zm-12.728 12.727l275.56 275.56-6.364 6.364-275.56-275.56zM73.044-96.154l275.56 275.56-6.364 6.364L66.68-89.79zM60.316-83.426l275.56 275.56-6.364 6.364-275.56-275.56zM47.588-70.698l275.56 275.56-6.364 6.364-275.56-275.56zM34.86-57.97l275.56 275.56-6.364 6.364-275.56-275.56zM22.132-45.242l275.56 275.56-6.364 6.364-275.56-275.56zM9.404-32.514l275.56 275.56-6.364 6.363L3.04-26.15zM-3.323-19.786l275.56 275.56-6.365 6.363-275.56-275.56zM-16.051-7.058l275.56 275.56-6.365 6.363L-22.416-.695zM-28.78 5.67l275.56 275.56-6.365 6.363-275.56-275.56zm-12.728 12.728l275.56 275.56-6.365 6.363-275.56-275.56zm-12.728 12.728l275.56 275.56-6.365 6.363L-60.6 37.49zm-12.728 12.728l275.56 275.559-6.364 6.364-275.56-275.56zM-79.691 56.58l275.56 275.56-6.364 6.364-275.56-275.56zm-12.728 12.73l275.56 275.56-6.364 6.364-275.56-275.56zm-12.728 12.728l275.56 275.56-6.364 6.364-275.56-275.56zm-12.728 12.728l275.56 275.56-6.364 6.364-275.56-275.56zm-12.728 12.728l275.56 275.56-6.364 6.364-275.56-275.56zm-12.728 12.728l275.56 275.56-6.364 6.364-275.56-275.56z"></path></g></g><path stroke="#000" stroke-width="9.9" stroke-dasharray="27" d="M134.1 54.9l551.25.45"></path><path d="M632.7 391.152c3.816 0 7.128-.361 9.939-1.083 2.81-.722 5.13-1.895 6.96-3.519 1.831-1.624 3.191-3.783 4.08-6.478.89-2.694 1.335-6.013 1.335-9.958V233.877c0-4.125.863-7.09 2.59-8.895 1.728-1.804 4.77-2.707 9.127-2.707v-11.137c-4.357 0-7.399-.896-9.126-2.688-1.728-1.792-2.591-4.763-2.591-8.914V86.737c0-3.944-.445-7.263-1.335-9.958-.889-2.694-2.249-4.853-4.08-6.477-1.83-1.624-4.15-2.797-6.96-3.52-2.81-.721-6.123-1.082-9.939-1.082v9.165c2.99 0 5.324.439 7 1.315 1.675.877 2.842 2.237 3.5 4.08.657 1.843.986 4.196.986 7.058v115.776c0 1.985.296 3.822.889 5.51.593 1.69 1.689 3.153 3.287 4.39 1.599 1.238 3.88 2.204 6.845 2.9.258.061.522.119.793.174l.019.005v1.291l-.019.004c-.135.027-.27.054-.401.083l-.392.087c-2.965.683-5.246 1.65-6.845 2.9-1.598 1.25-2.694 2.72-3.287 4.41-.593 1.688-.89 3.525-.89 5.51v139.176c0 2.836-.328 5.176-.986 7.02-.657 1.843-1.824 3.21-3.5 4.099-1.675.889-4.008 1.334-6.999 1.334v9.165zm0 48.948c2.32 0 4.336-.216 6.045-.648 1.71-.431 3.121-1.133 4.234-2.104 1.114-.972 1.941-2.263 2.482-3.875.541-1.611.812-3.596.812-5.956v-.74c0-2.467.525-4.24 1.576-5.32 1.05-1.079 2.9-1.619 5.551-1.619v-6.661c-2.65 0-4.5-.536-5.551-1.608-1.051-1.071-1.576-2.848-1.576-5.331v-1.255c0-2.36-.27-4.345-.812-5.956-.541-1.612-1.368-2.903-2.482-3.875-1.113-.971-2.524-1.673-4.234-2.104-1.709-.432-3.724-.648-6.045-.648v5.482c1.82 0 3.238.262 4.258.786 1.019.524 1.729 1.338 2.128 2.44.4 1.103.6 2.51.6 4.222v3.036c0 1.187.18 2.286.541 3.296.36 1.01 1.027 1.885 2 2.625.972.74 2.36 1.319 4.163 1.735.157.036.318.07.483.104l.01.002v.773l-.01.002-.245.05-.238.052c-1.803.408-3.191.987-4.163 1.735-.973.747-1.64 1.626-2 2.636-.36 1.01-.54 2.11-.54 3.296v2.498c0 1.697-.2 3.096-.6 4.198-.4 1.103-1.11 1.92-2.13 2.452-1.019.532-2.438.798-4.257.798v5.482z" fill-opacity="0.85" fill="#B5B5B5" fill-rule="nonzero"></path><path d="M173.157 660.5v-19.636h3.596l6.251 15.264h.23l6.252-15.264h3.595V660.5h-2.819v-14.21h-.182l-5.79 14.181h-2.34l-5.792-14.19h-.182V660.5h-2.819zm29.496.297q-2.176 0-3.744-.935-1.568-.934-2.416-2.636-.849-1.702-.849-3.994 0-2.263.849-3.988.848-1.726 2.378-2.695 1.529-.968 3.58-.968 1.247 0 2.417.412 1.17.413 2.1 1.295.93.882 1.467 2.286.537 1.405.537 3.409v1.016h-11.707v-2.147h8.897q0-1.132-.46-2.01-.46-.876-1.29-1.385-.829-.508-1.941-.508-1.208 0-2.105.59-.896.59-1.38 1.534-.484.944-.484 2.047v1.678q0 1.477.522 2.512.523 1.036 1.462 1.577.94.542 2.196.542.815 0 1.486-.235t1.16-.705q.49-.47.748-1.16l2.714.49q-.326 1.198-1.165 2.094-.84.897-2.1 1.39-1.261.494-2.872.494zm11.518-.297h-2.866v-14.727h2.751v2.397h.182q.46-1.218 1.506-1.903 1.045-.686 2.502-.686 1.477 0 2.479.69t1.481 1.899h.154q.527-1.18 1.677-1.884 1.151-.705 2.743-.705 2.004 0 3.274 1.256t1.27 3.787v9.876h-2.866v-9.607q0-1.496-.815-2.167-.815-.671-1.947-.671-1.4 0-2.176.858-.777.858-.777 2.2v9.387h-2.857v-9.79q0-1.198-.748-1.927-.748-.728-1.946-.728-.815 0-1.501.426-.686.427-1.103 1.184-.417.758-.417 1.755v9.08zm26.332.297q-2.07 0-3.615-.949-1.543-.95-2.397-2.656-.853-1.707-.853-3.989 0-2.291.853-4.007.854-1.717 2.397-2.666 1.544-.949 3.615-.949t3.615.95q1.543.948 2.397 2.665.853 1.716.853 4.007 0 2.282-.853 3.99-.854 1.706-2.397 2.655-1.544.95-3.615.95zm.01-2.406q1.342 0 2.224-.71.882-.71 1.309-1.889.427-1.18.427-2.598 0-1.41-.427-2.594t-1.309-1.903q-.882-.719-2.224-.719-1.352 0-2.24.72-.886.718-1.313 1.902-.426 1.184-.426 2.594 0 1.419.426 2.598.427 1.18 1.314 1.89.887.709 2.239.709zm12.055 2.109H249.7v-14.727h2.77v2.34h.154q.403-1.19 1.424-1.875 1.021-.686 2.316-.686.268 0 .637.02.37.019.58.047v2.743q-.172-.048-.613-.11-.441-.063-.882-.063-1.017 0-1.808.427-.79.426-1.251 1.179-.46.753-.46 1.711v8.994zm8.92 5.484q-.643 0-1.17-.1-.527-.101-.786-.216l.69-2.35q1.18.327 1.98.054.8-.274 1.347-1.702l.355-.978-5.389-14.92h3.069l3.73 11.43h.153l3.73-11.43 3.096.03-6.088 16.664q-.422 1.14-1.074 1.927-.652.786-1.553 1.189-.901.402-2.09.402zm21.8-5.484h-2.868v-14.727h2.771v2.34h.154q.402-1.19 1.424-1.875 1.02-.686 2.315-.686.269 0 .638.02.369.019.58.047v2.743q-.173-.048-.614-.11-.441-.063-.882-.063-1.016 0-1.807.427-.791.426-1.252 1.179-.46.753-.46 1.711v8.994zm12.457.297q-2.176 0-3.744-.935-1.568-.934-2.416-2.636-.849-1.702-.849-3.994 0-2.263.849-3.988.848-1.726 2.378-2.695 1.529-.968 3.58-.968 1.247 0 2.417.412 1.17.413 2.1 1.295.93.882 1.467 2.286.537 1.405.537 3.409v1.016h-11.707v-2.147h8.897q0-1.132-.46-2.01-.46-.876-1.29-1.385-.829-.508-1.941-.508-1.208 0-2.105.59-.896.59-1.38 1.534-.485.944-.485 2.047v1.678q0 1.477.523 2.512.522 1.036 1.462 1.577.94.542 2.196.542.815 0 1.486-.235t1.16-.705q.49-.47.748-1.16l2.713.49q-.326 1.198-1.165 2.094-.839.897-2.1 1.39-1.26.494-2.871.494zm19.687-11.429l-2.598.46q-.163-.498-.513-.949-.35-.45-.945-.738-.594-.288-1.486-.288-1.217 0-2.032.542t-.815 1.395q0 .738.546 1.189.547.45 1.764.738l2.34.537q2.033.47 3.03 1.448.997.978.997 2.54 0 1.324-.762 2.355-.763 1.03-2.12 1.615-1.356.585-3.14.585-2.473 0-4.036-1.06-1.563-1.059-1.918-3.015l2.771-.422q.26 1.084 1.065 1.635.805.552 2.1.552 1.409 0 2.253-.59.843-.59.843-1.443 0-.69-.513-1.16t-1.567-.71l-2.493-.546q-2.062-.47-3.044-1.496-.983-1.026-.983-2.598 0-1.304.729-2.282.728-.978 2.013-1.53 1.285-.551 2.944-.551 2.387 0 3.758 1.03 1.371 1.031 1.812 2.757zm8.92 11.43q-2.176 0-3.744-.936-1.568-.934-2.416-2.636-.849-1.702-.849-3.994 0-2.263.849-3.988.848-1.726 2.378-2.695 1.529-.968 3.58-.968 1.247 0 2.417.412 1.17.413 2.1 1.295.93.882 1.467 2.286.537 1.405.537 3.409v1.016h-11.707v-2.147h8.897q0-1.132-.46-2.01-.46-.876-1.29-1.385-.829-.508-1.941-.508-1.208 0-2.105.59-.896.59-1.38 1.534-.485.944-.485 2.047v1.678q0 1.477.523 2.512.523 1.036 1.462 1.577.94.542 2.196.542.815 0 1.486-.235t1.16-.705q.49-.47.748-1.16l2.713.49q-.326 1.198-1.165 2.094-.838.897-2.1 1.39-1.26.494-2.87.494zm11.518-.298h-2.867v-14.727h2.771v2.34h.154q.402-1.19 1.424-1.875 1.02-.686 2.315-.686.269 0 .638.02.369.019.58.047v2.743q-.173-.048-.614-.11-.44-.063-.882-.063-1.016 0-1.807.427-.791.426-1.252 1.179-.46.753-.46 1.711v8.994zm16.629-14.727h3.078l-5.34 14.727h-3.07l-5.35-14.727h3.079l3.73 11.333h.153l3.72-11.333zm10.741 15.024q-2.176 0-3.744-.935-1.567-.934-2.416-2.636-.848-1.702-.848-3.994 0-2.263.848-3.988.849-1.726 2.378-2.695 1.53-.968 3.581-.968 1.247 0 2.416.412 1.17.413 2.1 1.295.93.882 1.467 2.286.537 1.405.537 3.409v1.016h-11.707v-2.147h8.898q0-1.132-.46-2.01-.46-.876-1.29-1.385-.83-.508-1.942-.508-1.208 0-2.104.59-.897.59-1.381 1.534-.484.944-.484 2.047v1.678q0 1.477.522 2.512.523 1.036 1.463 1.577.94.542 2.195.542.815 0 1.486-.235.672-.235 1.16-.705.49-.47.748-1.16l2.714.49q-.326 1.198-1.165 2.094-.84.897-2.1 1.39-1.26.494-2.872.494zm14.165-.01q-1.783 0-3.178-.915-1.396-.916-2.187-2.618-.79-1.701-.79-4.089 0-2.387.8-4.084.8-1.697 2.2-2.599 1.4-.901 3.174-.901 1.371 0 2.21.455.84.456 1.304 1.06.465.604.724 1.064h.173v-7.296h2.866V660.5h-2.8v-2.292h-.239q-.259.47-.743 1.074-.484.604-1.328 1.055-.844.45-2.186.45zm.633-2.444q1.237 0 2.095-.657.858-.657 1.304-1.827.446-1.17.446-2.723 0-1.534-.441-2.684-.442-1.15-1.295-1.793t-2.11-.643q-1.294 0-2.157.672-.862.67-1.299 1.83-.436 1.161-.436 2.618 0 1.477.441 2.656.441 1.18 1.309 1.865.868.686 2.143.686zm15.01-12.57h8.045v2.3h-8.044v-2.3zm2.158 10.997v-14.526h2.867v13.932q0 .834.25 1.251.249.417.647.566.397.148.867.148.345 0 .604-.048.26-.048.403-.076l.518 2.368q-.25.096-.71.196-.46.101-1.15.11-1.132.02-2.11-.402-.978-.422-1.582-1.304-.604-.882-.604-2.215zm14.241 4.027q-2.07 0-3.614-.949-1.544-.95-2.397-2.656-.854-1.707-.854-3.989 0-2.291.854-4.007.853-1.717 2.397-2.666 1.543-.949 3.614-.949 2.071 0 3.615.95 1.544.948 2.397 2.665.854 1.716.854 4.007 0 2.282-.854 3.99-.853 1.706-2.397 2.655-1.544.95-3.615.95zm.01-2.406q1.342 0 2.224-.71.883-.71 1.31-1.889.426-1.18.426-2.598 0-1.41-.427-2.594-.426-1.184-1.309-1.903-.882-.719-2.224-.719-1.352 0-2.239.72-.887.718-1.313 1.902-.427 1.184-.427 2.594 0 1.419.427 2.598.426 1.18 1.313 1.89.887.709 2.24.709zm14.311-12.618h8.045v2.3h-8.045v-2.3zm2.158 10.997v-14.526h2.866v13.932q0 .834.25 1.251.249.417.647.566.398.148.868.148.345 0 .604-.048l.402-.076.518 2.368q-.25.096-.71.196-.46.101-1.15.11-1.131.02-2.11-.402-.977-.422-1.581-1.304-.604-.882-.604-2.215zm11.364-5.014v8.744h-2.866v-19.636h2.828v7.306h.182q.518-1.19 1.582-1.89 1.065-.699 2.78-.699 1.516 0 2.652.623 1.136.623 1.764 1.855.628 1.233.628 3.073v9.368h-2.867v-9.022q0-1.62-.834-2.517-.834-.897-2.32-.897-1.017 0-1.817.432-.8.431-1.256 1.26-.456.83-.456 2zm18.873 9.041q-2.177 0-3.744-.935-1.568-.934-2.417-2.636-.848-1.702-.848-3.994 0-2.263.848-3.988.849-1.726 2.378-2.695 1.53-.968 3.581-.968 1.247 0 2.416.412 1.17.413 2.1 1.295.93.882 1.467 2.286.537 1.405.537 3.409v1.016h-11.707v-2.147h8.898q0-1.132-.46-2.01-.46-.876-1.29-1.385-.83-.508-1.942-.508-1.208 0-2.104.59-.897.59-1.38 1.534-.485.944-.485 2.047v1.678q0 1.477.523 2.512.522 1.036 1.462 1.577.94.542 2.195.542.815 0 1.487-.235.67-.235 1.16-.705.489-.47.748-1.16l2.713.49q-.326 1.198-1.165 2.094-.839.897-2.1 1.39-1.26.494-2.871.494zm32.231-10.115q0 3.145-1.15 5.403-1.151 2.258-3.15 3.47-2 1.213-4.54 1.213-2.55 0-4.55-1.212-1.999-1.213-3.15-3.476-1.15-2.263-1.15-5.398 0-3.145 1.15-5.403 1.151-2.258 3.15-3.47 2-1.214 4.55-1.214 2.54 0 4.54 1.213 1.999 1.213 3.15 3.47 1.15 2.259 1.15 5.404zm-2.934 0q0-2.397-.772-4.042-.772-1.644-2.11-2.492-1.337-.849-3.024-.849-1.697 0-3.03.849-1.333.848-2.105 2.492-.771 1.645-.771 4.042t.771 4.041q.772 1.645 2.105 2.493 1.333.849 3.03.849 1.687 0 3.025-.849 1.337-.848 2.11-2.493.771-1.644.771-4.041zm19.323-4.66h-2.857q-.154-1.361-1.266-2.114-1.112-.753-2.8-.753-1.208 0-2.09.379-.882.379-1.366 1.035-.484.657-.484 1.491 0 .7.33 1.208.331.509.873.849.542.34 1.165.566.623.225 1.198.369l1.918.498q.94.23 1.927.624.988.393 1.832 1.035.843.643 1.366 1.592.522.949.522 2.272 0 1.668-.858 2.963-.858 1.294-2.483 2.042-1.625.748-3.926.748-2.206 0-3.816-.7-1.611-.7-2.522-1.99-.91-1.29-1.007-3.063h2.972q.087 1.064.696 1.77.608.704 1.562 1.044.954.34 2.095.34 1.257 0 2.24-.397.982-.398 1.548-1.112.565-.715.565-1.674 0-.872-.493-1.428-.494-.556-1.333-.92-.839-.365-1.894-.643l-2.32-.633q-2.359-.642-3.735-1.889-1.375-1.246-1.375-3.298 0-1.697.92-2.963.92-1.265 2.493-1.97 1.572-.705 3.547-.705 1.995 0 3.524.7 1.53.7 2.411 1.923.883 1.222.92 2.804z" fill="#5C5C5C" fill-opacity="0.85" fill-rule="nonzero"></path><g fill="#1E1E1E" fill-rule="nonzero"><path d="M176.495 581.527h6.769V620.8h-7.115v-32.35h-.23l-9.185 5.868v-6.52l9.76-6.27zm29.556 40.02q-4.737 0-8.121-2.406-3.385-2.406-5.197-6.96-1.812-4.555-1.812-10.979.02-6.424 1.831-10.94 1.812-4.516 5.197-6.894t8.102-2.378q4.717 0 8.111 2.378 3.395 2.378 5.207 6.904 1.812 4.525 1.812 10.93 0 6.443-1.812 10.998-1.812 4.554-5.197 6.95-3.385 2.398-8.121 2.398zm0-6.001q3.682 0 5.82-3.634 2.138-3.634 2.138-10.71 0-4.679-.978-7.862t-2.761-4.804q-1.784-1.62-4.22-1.62-3.662 0-5.79 3.634-2.129 3.634-2.148 10.652-.02 4.698.95 7.9.968 3.203 2.751 4.823 1.783 1.62 4.238 1.62zm34.293 6.002q-4.737 0-8.121-2.407-3.385-2.406-5.197-6.96-1.812-4.555-1.812-10.979.019-6.424 1.831-10.94 1.812-4.516 5.197-6.894 3.384-2.378 8.102-2.378 4.717 0 8.111 2.378 3.394 2.378 5.206 6.904 1.813 4.525 1.813 10.93 0 6.443-1.813 10.998-1.812 4.554-5.196 6.95-3.385 2.398-8.121 2.398zm0-6.002q3.681 0 5.82-3.634 2.138-3.634 2.138-10.71 0-4.679-.978-7.862t-2.762-4.804q-1.783-1.62-4.218-1.62-3.663 0-5.792 3.634-2.128 3.634-2.147 10.652-.02 4.698.949 7.9.968 3.203 2.752 4.823 1.783 1.62 4.238 1.62zm20.16 5.254v-39.273h8.706l11.659 28.458h.46l11.659-28.458h8.706V620.8h-6.827v-26.98h-.364l-10.854 26.865h-5.1l-10.854-26.923h-.365V620.8h-6.826zm63.114 0h-15.897v-39.273h15.034q4.257 0 7.086 1.333 2.828 1.333 4.238 3.634 1.41 2.301 1.41 5.216 0 2.397-.921 4.094-.92 1.697-2.474 2.752-1.553 1.054-3.47 1.515v.383q2.09.115 4.017 1.275 1.927 1.16 3.154 3.27 1.227 2.11 1.227 5.1 0 3.05-1.476 5.476-1.477 2.425-4.45 3.825-2.971 1.4-7.478 1.4zm-8.783-17.45v11.505h7.652q3.873 0 5.59-1.486 1.716-1.486 1.716-3.825 0-1.745-.863-3.155-.863-1.41-2.455-2.224-1.591-.815-3.796-.815h-7.844zm0-15.955v10.835h7.038q1.841 0 3.318-.681 1.476-.68 2.33-1.937.853-1.256.853-2.982 0-2.282-1.601-3.758-1.602-1.477-4.746-1.477h-7.192z"></path><path></path><path d="M357.474 621.088q-2.157 0-3.739-.95-1.582-.949-2.45-2.655-.867-1.707-.867-3.99 0-2.281.867-3.997.868-1.717 2.45-2.666 1.582-.949 3.74-.949 2.157 0 3.739.95 1.582.948 2.45 2.665.867 1.716.867 3.998t-.868 3.989q-.867 1.706-2.45 2.655-1.581.95-3.739.95zm.02-2.78q1.17 0 1.956-.648.786-.647 1.174-1.74.388-1.093.388-2.436 0-1.352-.388-2.45-.388-1.097-1.174-1.75-.787-.651-1.956-.651-1.199 0-1.99.652-.791.652-1.18 1.75-.388 1.097-.388 2.45 0 1.342.389 2.435.388 1.093 1.179 1.74t1.99.647zm12.582 2.492h-3.47v-14.727h3.365v2.454h.153q.403-1.275 1.385-1.97.983-.695 2.249-.695.287 0 .647.024.36.024.6.072v3.192q-.221-.076-.696-.139-.474-.062-.915-.062-.95 0-1.702.408-.753.407-1.185 1.126-.431.72-.431 1.659v8.658zm15.328-5.475h-2.771q-.048-1.745.465-2.905.513-1.16 1.438-1.74.925-.58 2.124-.58.93 0 1.745.388.815.388 1.87 1.318.603.518.997.777.393.259.9.259.73 0 1.185-.561.455-.56.427-1.702h2.78q.048 1.736-.474 2.896-.523 1.16-1.453 1.74-.93.58-2.1.58-.959 0-1.783-.403-.825-.402-1.85-1.294-.634-.556-1.012-.796-.379-.24-.878-.24-.7 0-1.165.523-.465.523-.445 1.74zm18.757-14.161h3.384V620.8h-3.557v-16.175h-.115l-4.593 2.934v-3.26l4.88-3.135zm18.019 15.954v-1.035q0-1.141.484-2.1.484-.959 1.414-1.544.93-.585 2.253-.585 1.362 0 2.287.58.925.58 1.4 1.54.475.958.465 2.109v1.035q.01 1.141-.47 2.1-.48.959-1.41 1.544-.93.585-2.272.585-1.342 0-2.267-.585-.925-.585-1.405-1.544-.48-.959-.48-2.1zm2.502-1.035v1.035q.01.758.37 1.39.359.633 1.28.633.93 0 1.284-.628.355-.628.345-1.395v-1.035q.01-.767-.33-1.405t-1.3-.638q-.9 0-1.27.638t-.379 1.405zM412.2 605.88v-1.036q0-1.15.489-2.109.489-.959 1.419-1.539t2.253-.58q1.352 0 2.277.58t1.4 1.54q.474.958.465 2.108v1.036q.01 1.15-.47 2.105-.48.954-1.41 1.529-.93.575-2.262.575-1.352 0-2.277-.575-.926-.575-1.405-1.534-.48-.96-.48-2.1zm2.521-1.036v1.036q.01.767.365 1.395.354.628 1.275.628.92 0 1.275-.628.355-.628.345-1.395v-1.036q.01-.767-.33-1.404-.341-.638-1.29-.638-.911 0-1.27.643-.36.642-.37 1.4zm.748 15.955h-2.407l13.5-19.636h2.407l-13.5 19.636z"></path></g><path stroke="#B47F2D" stroke-width="9.9" stroke-linecap="round" d="M487.8 464.4L382.5 580.5"></path><circle stroke="#B47F2D" stroke-width="9" fill="#EBDBC2" cx="487.8" cy="464.4" r="12.6"></circle></g><path d="M372.15 154h-6.428v-27.273h6.143v4.635h.32q.852-2.344 2.823-3.667 1.97-1.323 4.705-1.323 2.77 0 4.679 1.34 1.908 1.341 2.69 3.65h.284q.905-2.273 3.063-3.632 2.157-1.358 5.122-1.358 3.764 0 6.144 2.38 2.379 2.379 2.379 6.942V154h-6.445v-17.312q0-2.539-1.35-3.72-1.35-1.18-3.302-1.18-2.326 0-3.632 1.447-1.305 1.447-1.305 3.755V154h-6.303v-17.578q0-2.113-1.27-3.374-1.269-1.26-3.31-1.26-1.386 0-2.522.701t-1.811 1.97q-.675 1.27-.675 2.957V154zm49.437.497q-3.551 0-6.357-1.34-2.805-1.34-4.447-3.685-1.643-2.343-1.75-5.362h6.393q.177 2.237 1.935 3.649 1.758 1.411 4.226 1.411 1.935 0 3.445-.887 1.509-.888 2.379-2.468.87-1.58.852-3.605.018-2.06-.87-3.657-.888-1.598-2.432-2.513-1.545-.914-3.552-.914-1.633-.018-3.213.603-1.58.622-2.504 1.634l-5.948-.977 1.9-18.75h21.094v5.505h-15.643l-1.048 9.641h.213q1.012-1.19 2.859-1.98 1.846-.79 4.048-.79 3.303 0 5.895 1.554 2.592 1.553 4.084 4.27 1.491 2.717 1.491 6.214 0 3.605-1.66 6.42-1.66 2.813-4.599 4.42-2.938 1.607-6.791 1.607zm20.212-.106q-1.616 0-2.77-1.137-1.154-1.136-1.136-2.77-.018-1.598 1.136-2.734t2.77-1.136q1.562 0 2.725 1.136t1.181 2.734q-.018 1.083-.56 1.971-.54.888-1.42 1.412-.878.524-1.926.524zm8.973-36.755h6.427V154h-6.427v-36.364zm19.288 36.914q-2.592 0-4.66-.932-2.07-.932-3.268-2.76-1.198-1.83-1.198-4.51 0-2.309.852-3.818.852-1.51 2.326-2.415 1.474-.905 3.33-1.376 1.855-.47 3.843-.684 2.397-.248 3.889-.452 1.491-.205 2.175-.64.684-.435.684-1.358v-.106q0-2.007-1.19-3.108-1.19-1.1-3.427-1.1-2.361 0-3.738 1.03-1.376 1.03-1.855 2.432l-6.001-.852q.71-2.486 2.343-4.164 1.634-1.678 3.995-2.521 2.362-.844 5.22-.844 1.971 0 3.925.462 1.953.461 3.568 1.518 1.616 1.056 2.602 2.867.985 1.812.985 4.528V154h-6.179v-3.746h-.213q-.586 1.136-1.642 2.121-1.057.986-2.646 1.58-1.59.595-3.72.595zm1.67-4.723q1.935 0 3.355-.772t2.193-2.05q.772-1.28.772-2.788v-3.214q-.302.248-1.02.461-.72.214-1.608.373-.887.16-1.757.284-.87.125-1.51.214-1.438.195-2.574.639-1.137.444-1.793 1.234-.657.79-.657 2.033 0 1.775 1.296 2.68 1.296.906 3.302.906zM495.775 154h-6.427v-27.273h6.232v4.546h.284q.746-2.362 2.566-3.65 1.82-1.286 4.164-1.286.532 0 1.198.044.666.044 1.11.133v5.913q-.408-.142-1.287-.258-.88-.115-1.696-.115-1.758 0-3.152.755-1.394.754-2.193 2.086-.799 1.332-.799 3.072V154zm22.538 10.689q-3.462 0-5.948-.923-2.486-.924-3.995-2.468-1.509-1.545-2.095-3.392l5.788-1.402q.391.728 1.137 1.5t2.015 1.296q1.27.524 3.205.524 2.734 0 4.528-1.314 1.793-1.314 1.793-4.244V149.1h-.32q-.497.995-1.447 2.042-.95 1.048-2.503 1.758-1.554.71-3.898.71-3.142 0-5.69-1.482-2.548-1.483-4.049-4.44-1.5-2.955-1.5-7.412 0-4.492 1.5-7.59 1.5-3.1 4.058-4.706 2.556-1.607 5.7-1.607 2.396 0 3.95.808 1.553.808 2.477 1.935.923 1.128 1.402 2.122h.356v-4.51h6.338v27.717q0 3.427-1.669 5.708-1.669 2.282-4.563 3.41-2.894 1.127-6.57 1.127zm.054-16.122q2.042 0 3.48-.995 1.438-.994 2.184-2.858.746-1.865.746-4.475 0-2.574-.737-4.51-.737-1.935-2.167-3.01-1.429-1.073-3.506-1.073-2.149 0-3.587 1.118-1.438 1.119-2.166 3.063-.728 1.944-.728 4.412 0 2.504.737 4.377.737 1.873 2.184 2.912t3.56 1.039zm29.835 5.966q-4.101 0-7.075-1.714-2.974-1.713-4.572-4.865-1.598-3.151-1.598-7.43 0-4.209 1.606-7.396 1.607-3.187 4.501-4.971 2.895-1.785 6.8-1.785 2.522 0 4.768.808t3.978 2.495q1.73 1.687 2.725 4.288.994 2.6.994 6.188v1.97h-22.354v-4.332h16.193q-.018-1.847-.799-3.294t-2.175-2.281q-1.394-.835-3.24-.835-1.971 0-3.463.95-1.491.95-2.317 2.486-.825 1.536-.843 3.365v3.782q0 2.379.87 4.075.87 1.695 2.432 2.592 1.563.897 3.658.897 1.403 0 2.54-.4 1.135-.4 1.97-1.18.835-.782 1.26-1.936l6.002.675q-.568 2.379-2.157 4.146-1.59 1.766-4.057 2.734-2.468.968-5.647.968z" fill="#9F9F9F" fill-rule="nonzero"></path><g transform="translate(66.000000, 75.000000)"><path d="M11.068 55.357V41.734l9.295 3.168v13.792l-9.295-3.337zm20.294 0V41.734l-9.295 3.168v13.792l9.295-3.337zM21.43 38.066l8.723 2.812-8.723 2.961-9.394-3.126 9.394-2.647zM0 36.326V22.684l9.295 3.166v13.793L0 36.326zm20.297-.002v-13.64l-9.295 3.166v13.793l9.295-3.319zM10.364 19.03l8.723 2.813-8.723 2.962L.97 21.679l9.394-2.65zm11.327 17.294v-13.64l9.295 3.166v13.793l-9.295-3.319zm20.294 0v-13.64L32.69 25.85v13.793l9.295-3.319zM32.067 19.03l8.723 2.813-8.723 2.962-9.394-3.126 9.394-2.65zm.706-1.74V3.665l9.295 3.168v13.79l-9.295-3.333zm20.282-.002V3.665l-9.296 3.168v13.79l9.296-3.335zM43.12 0l8.723 2.812-8.723 2.961-9.394-3.126L43.12 0zm11.327 17.29V3.665l9.295 3.168v13.79l-9.295-3.333zm20.278 0V3.665L65.43 6.833v13.79l9.295-3.333zM64.808 0l8.722 2.812-8.722 2.961-9.394-3.126L64.808 0z" fill="#F90"></path><path d="M59.014 49.816l-3.123 10.848h-1.355l-2.464-8.058-2.23 8.058H48.46l-3.245-10.848h1.694l2.364 8.085 2.249-8.085h1.238l2.445 8.11 2.43-8.11h1.38zm8.637 7.61l1.57.309a4.421 4.421 0 0 1-1.672 2.302c-.832.608-1.805.912-2.926.912-1.478 0-2.677-.52-3.591-1.565-.915-1.044-1.386-2.41-1.386-4.101 0-1.728.462-3.123 1.426-4.189a4.592 4.592 0 0 1 3.58-1.597c1.417 0 2.554.49 3.416 1.47.862.982 1.303 2.446 1.324 4.4h-7.874c0 1.64.342 2.746 1.03 3.32.686.572 1.41.859 2.174.859 1.378 0 2.35-.712 2.913-2.136l.016.017zm-.093-3.301c-.015-.608-.114-1.149-.3-1.622a2.763 2.763 0 0 0-.944-1.207c-.444-.333-.975-.5-1.597-.5a2.85 2.85 0 0 0-2.127.903c-.582.616-.924 1.41-.98 2.426h5.948zm4.882 6.539h-.812v-14.63h1.69v5.605c.77-1.406 1.848-2.11 3.192-2.11 1.242 0 2.283.493 3.122 1.474.84.981 1.258 2.409 1.258 4.278 0 1.613-.416 2.965-1.238 4.058-.822 1.094-1.9 1.64-3.222 1.64-1.472 0-2.618-.699-3.388-2.094l-.616 1.794.014-.015zm.878-4.25c.077 1.113.42 1.921 1.024 2.423.604.502 1.243.77 1.916.77.857 0 1.549-.372 2.076-1.118.526-.745.788-1.766.788-3.061 0-1.397-.254-2.495-.76-3.296-.507-.8-1.213-1.198-2.114-1.198-.708 0-1.345.285-1.915.853-.57.568-.924 1.304-1.014 2.205v2.418l-.001.003zm11.878 1.438l1.61-.333c.358 1.363 1.491 2.044 3.395 2.044.7 0 1.297-.158 1.783-.472.467-.276.748-.786.732-1.329 0-.847-.62-1.386-1.86-1.617l-2.284-.434c-.894-.172-1.607-.508-2.136-1.01-.53-.502-.794-1.163-.794-2.002 0-.924.36-1.67 1.085-2.282.723-.613 1.694-.918 2.918-.918 2.353 0 3.804.92 4.358 2.76l-1.546.332c-.444-1.124-1.355-1.69-2.734-1.69-.686 0-1.25.155-1.689.423a1.326 1.326 0 0 0-.659 1.18c0 .797.562 1.297 1.685 1.505l2.11.388c2.211.4 3.315 1.474 3.315 3.216.02.96-.445 1.869-1.235 2.415-.822.613-1.917.92-3.286.92-2.572 0-4.158-1.037-4.768-3.11v.014zm18.274-.425l1.57.308c-.285.927-.842 1.694-1.672 2.302-.83.608-1.805.912-2.926.912-1.479 0-2.677-.52-3.591-1.565-.915-1.044-1.386-2.41-1.386-4.101 0-1.728.474-3.123 1.426-4.189a4.592 4.592 0 0 1 3.58-1.597c1.414 0 2.553.49 3.414 1.47.861.982 1.303 2.446 1.325 4.4h-7.873c0 1.64.342 2.746 1.027 3.32.686.572 1.411.859 2.176.859 1.379 0 2.35-.712 2.914-2.136l.016.017zm-.093-3.302c-.015-.608-.115-1.149-.3-1.622a2.748 2.748 0 0 0-.943-1.207c-.443-.333-.974-.5-1.597-.5a2.85 2.85 0 0 0-2.128.903c-.582.616-.924 1.41-.98 2.426h5.948zm5.355 6.539h-1.69V49.816h1.479v2.529c.523-1.186 1.047-1.953 1.57-2.303.524-.35 1.079-.526 1.614-.526.223.003.445.016.666.04v1.61h-.342c-.929 0-1.7.345-2.315 1.035-.614.69-.942 1.597-.985 2.72v5.744l.003-.001zm14.137-10.848l-3.745 10.848h-1.751l-3.87-10.848h1.87l3.01 8.816 2.987-8.816h1.499zm3.157-3.8v1.873h-1.805v-1.874h1.808-.003zm-.04 3.798v10.848h-1.673V49.814h1.69-.017zm8.83 7.05l1.52.268c-.215 1.199-.69 2.136-1.426 2.816-.736.679-1.655 1.016-2.772 1.016-1.494 0-2.618-.554-3.419-1.656-.8-1.1-1.175-2.464-1.175-4.042 0-1.648.413-3.018 1.24-4.112.827-1.093 1.951-1.64 3.388-1.64 1.18 0 2.125.354 2.838 1.078.713.724 1.155 1.617 1.325 2.738l-1.52.29c-.287-1.791-1.15-2.686-2.595-2.686a2.39 2.39 0 0 0-2.144 1.186c-.5.79-.751 1.814-.751 3.074 0 1.386.246 2.464.745 3.234a2.359 2.359 0 0 0 2.096 1.153c1.394 0 2.276-.9 2.649-2.7l.001-.017zm11.051.563l1.571.308a4.421 4.421 0 0 1-1.672 2.302c-.832.608-1.805.912-2.926.912-1.479 0-2.68-.52-3.593-1.565-.913-1.044-1.386-2.41-1.386-4.101 0-1.728.462-3.123 1.426-4.189a4.592 4.592 0 0 1 3.58-1.597c1.417 0 2.557.49 3.416 1.47.86.982 1.303 2.446 1.324 4.4h-7.872c0 1.64.342 2.746 1.029 3.32.687.572 1.41.859 2.174.859 1.378 0 2.35-.712 2.914-2.136l.015.017zm-.092-3.302c-.016-.608-.114-1.149-.3-1.622a2.756 2.756 0 0 0-.943-1.207c-.443-.333-.975-.5-1.597-.5a2.835 2.835 0 0 0-2.125.903c-.58.616-.924 1.41-.981 2.426h5.947-.001zm2.803 3.727l1.61-.333c.358 1.363 1.49 2.044 3.395 2.044.7 0 1.293-.158 1.783-.472.467-.277.747-.787.73-1.329 0-.847-.62-1.386-1.859-1.617l-2.284-.434c-.893-.172-1.606-.508-2.136-1.01s-.793-1.163-.793-2.002c0-.924.36-1.67 1.084-2.282.724-.613 1.694-.918 2.919-.918 2.353 0 3.804.92 4.358 2.76l-1.546.332c-.444-1.124-1.355-1.69-2.734-1.69-.687 0-1.232.155-1.69.423a1.326 1.326 0 0 0-.658 1.18c0 .797.562 1.297 1.685 1.505l2.11.388c2.21.4 3.315 1.474 3.315 3.216.02.96-.445 1.869-1.235 2.415-.823.613-1.917.92-3.287.92-2.568 0-4.158-1.037-4.766-3.11l-.001.014z" fill="#000"></path><path d="M59.014 49.816l-3.123 10.848h-1.355l-2.464-8.058-2.23 8.058H48.46l-3.245-10.848h1.694l2.364 8.085 2.249-8.085h1.238l2.445 8.11 2.43-8.11h1.38zm8.637 7.61l1.57.309a4.421 4.421 0 0 1-1.672 2.302c-.832.608-1.805.912-2.926.912-1.478 0-2.677-.52-3.591-1.565-.915-1.044-1.386-2.41-1.386-4.101 0-1.728.462-3.123 1.426-4.189a4.592 4.592 0 0 1 3.58-1.597c1.417 0 2.554.49 3.416 1.47.862.982 1.303 2.446 1.324 4.4h-7.874c0 1.64.342 2.746 1.03 3.32.686.572 1.41.859 2.174.859 1.378 0 2.35-.712 2.913-2.136l.016.017zm-.093-3.301c-.015-.608-.114-1.149-.3-1.622a2.763 2.763 0 0 0-.944-1.207c-.444-.333-.975-.5-1.597-.5a2.85 2.85 0 0 0-2.127.903c-.582.616-.924 1.41-.98 2.426h5.948zm4.882 6.539h-.812v-14.63h1.69v5.605c.77-1.406 1.848-2.11 3.192-2.11 1.242 0 2.283.493 3.122 1.474.84.981 1.258 2.409 1.258 4.278 0 1.613-.416 2.965-1.238 4.058-.822 1.094-1.9 1.64-3.222 1.64-1.472 0-2.618-.699-3.388-2.094l-.616 1.794.014-.015zm.878-4.25c.077 1.113.42 1.921 1.024 2.423.604.502 1.243.77 1.916.77.857 0 1.549-.372 2.076-1.118.526-.745.788-1.766.788-3.061 0-1.397-.254-2.495-.76-3.296-.507-.8-1.213-1.198-2.114-1.198-.708 0-1.345.285-1.915.853-.57.568-.924 1.304-1.014 2.205v2.418l-.001.003zm11.878 1.438l1.61-.333c.358 1.363 1.491 2.044 3.395 2.044.7 0 1.297-.158 1.783-.472.467-.276.748-.786.732-1.329 0-.847-.62-1.386-1.86-1.617l-2.284-.434c-.894-.172-1.607-.508-2.136-1.01-.53-.502-.794-1.163-.794-2.002 0-.924.36-1.67 1.085-2.282.723-.613 1.694-.918 2.918-.918 2.353 0 3.804.92 4.358 2.76l-1.546.332c-.444-1.124-1.355-1.69-2.734-1.69-.686 0-1.25.155-1.689.423a1.326 1.326 0 0 0-.659 1.18c0 .797.562 1.297 1.685 1.505l2.11.388c2.211.4 3.315 1.474 3.315 3.216.02.96-.445 1.869-1.235 2.415-.822.613-1.917.92-3.286.92-2.572 0-4.158-1.037-4.768-3.11v.014zm18.274-.425l1.57.308c-.285.927-.842 1.694-1.672 2.302-.83.608-1.805.912-2.926.912-1.479 0-2.677-.52-3.591-1.565-.915-1.044-1.386-2.41-1.386-4.101 0-1.728.474-3.123 1.426-4.189a4.592 4.592 0 0 1 3.58-1.597c1.414 0 2.553.49 3.414 1.47.861.982 1.303 2.446 1.325 4.4h-7.873c0 1.64.342 2.746 1.027 3.32.686.572 1.411.859 2.176.859 1.379 0 2.35-.712 2.914-2.136l.016.017zm-.093-3.302c-.015-.608-.115-1.149-.3-1.622a2.748 2.748 0 0 0-.943-1.207c-.443-.333-.974-.5-1.597-.5a2.85 2.85 0 0 0-2.128.903c-.582.616-.924 1.41-.98 2.426h5.948zm5.355 6.539h-1.69V49.816h1.479v2.529c.523-1.186 1.047-1.953 1.57-2.303.524-.35 1.079-.526 1.614-.526.223.003.445.016.666.04v1.61h-.342c-.929 0-1.7.345-2.315 1.035-.614.69-.942 1.597-.985 2.72v5.744l.003-.001zm14.137-10.848l-3.745 10.848h-1.751l-3.87-10.848h1.87l3.01 8.816 2.987-8.816h1.499zm3.157-3.8v1.873h-1.805v-1.874h1.808-.003zm-.04 3.798v10.848h-1.673V49.814h1.69-.017zm8.83 7.05l1.52.268c-.215 1.199-.69 2.136-1.426 2.816-.736.679-1.655 1.016-2.772 1.016-1.494 0-2.618-.554-3.419-1.656-.8-1.1-1.175-2.464-1.175-4.042 0-1.648.413-3.018 1.24-4.112.827-1.093 1.951-1.64 3.388-1.64 1.18 0 2.125.354 2.838 1.078.713.724 1.155 1.617 1.325 2.738l-1.52.29c-.287-1.791-1.15-2.686-2.595-2.686a2.39 2.39 0 0 0-2.144 1.186c-.5.79-.751 1.814-.751 3.074 0 1.386.246 2.464.745 3.234a2.359 2.359 0 0 0 2.096 1.153c1.394 0 2.276-.9 2.649-2.7l.001-.017zm11.051.563l1.571.308a4.421 4.421 0 0 1-1.672 2.302c-.832.608-1.805.912-2.926.912-1.479 0-2.68-.52-3.593-1.565-.913-1.044-1.386-2.41-1.386-4.101 0-1.728.462-3.123 1.426-4.189a4.592 4.592 0 0 1 3.58-1.597c1.417 0 2.557.49 3.416 1.47.86.982 1.303 2.446 1.324 4.4h-7.872c0 1.64.342 2.746 1.029 3.32.687.572 1.41.859 2.174.859 1.378 0 2.35-.712 2.914-2.136l.015.017zm-.092-3.302c-.016-.608-.114-1.149-.3-1.622a2.756 2.756 0 0 0-.943-1.207c-.443-.333-.975-.5-1.597-.5a2.835 2.835 0 0 0-2.125.903c-.58.616-.924 1.41-.981 2.426h5.947-.001zm2.803 3.727l1.61-.333c.358 1.363 1.49 2.044 3.395 2.044.7 0 1.293-.158 1.783-.472.467-.277.747-.787.73-1.329 0-.847-.62-1.386-1.859-1.617l-2.284-.434c-.893-.172-1.606-.508-2.136-1.01s-.793-1.163-.793-2.002c0-.924.36-1.67 1.084-2.282.724-.613 1.694-.918 2.919-.918 2.353 0 3.804.92 4.358 2.76l-1.546.332c-.444-1.124-1.355-1.69-2.734-1.69-.687 0-1.232.155-1.69.423a1.326 1.326 0 0 0-.658 1.18c0 .797.562 1.297 1.685 1.505l2.11.388c2.21.4 3.315 1.474 3.315 3.216.02.96-.445 1.869-1.235 2.415-.823.613-1.917.92-3.287.92-2.568 0-4.158-1.037-4.766-3.11l-.001.014z" stroke="#000" stroke-width=".5"></path><path d="M110.484 26.633v-2.621a.65.65 0 0 1 .647-.647h11.693c.373 0 .673.27.675.657v2.233c-.003.375-.319.863-.878 1.64l-6.048 8.637c2.246-.052 4.62.283 6.66 1.432.463.259.583.64.62 1.016v2.78c0 .385-.419.827-.86.596-3.594-1.883-8.362-2.09-12.338.022-.406.215-.831-.22-.831-.604v-2.643c0-.423.007-1.145.434-1.79l7.007-10.057h-6.133a.65.65 0 0 1-.646-.646v-.008l-.002.003zM68.696 42.907H65.14a.669.669 0 0 1-.634-.616l.002-18.233c0-.365.308-.656.685-.656L68.5 23.4c.346.019.623.28.647.613v2.381h.066c.862-2.302 2.487-3.377 4.675-3.377 2.222 0 3.615 1.075 4.611 3.377.862-2.302 2.818-3.377 4.908-3.377 1.494 0 3.117.616 4.112 1.996 1.127 1.534.896 3.76.896 5.718l-.003 11.507c0 .365-.308.656-.685.656H84.18a.668.668 0 0 1-.638-.655v-9.653c0-.77.067-2.685-.1-3.415-.265-1.228-1.078-1.574-2.088-1.574-.862 0-1.759.576-2.125 1.497-.367.92-.331 2.456-.331 3.492v9.665c0 .365-.308.656-.685.656h-3.55a.666.666 0 0 1-.638-.654l-.003-9.667c0-2.032.331-5.026-2.187-5.026-2.553 0-2.454 2.915-2.454 5.026v9.665c0 .365-.308.656-.686.656zm63.384-19.876c5.231 0 8.06 4.527 8.06 10.284 0 5.564-3.126 9.976-8.06 9.976-5.133 0-7.931-4.528-7.931-10.169 0-5.678 2.83-10.091 7.93-10.091zm.034 4.192c-2.6 0-2.765 3.568-2.765 5.793s-.03 6.514 2.732 6.514c2.732 0 2.865-3.368 2.865-5.709 0-1.533-.065-3.377-.524-4.835-.396-1.266-1.186-1.765-2.304-1.765l-.004.002zm15.597 15.684h-3.54a.668.668 0 0 1-.637-.654l-.006-18.241c.03-.335.308-.595.682-.595l3.296-.001c.3.01.558.22.631.511v2.772h.068c.995-2.495 2.387-3.684 4.842-3.684 1.59 0 3.15.576 4.145 2.149.929 1.458.929 3.911.929 5.68v11.472a.688.688 0 0 1-.68.575h-3.563c-.328-.022-.593-.262-.616-.575v-9.902c0-1.994.231-4.928-2.222-4.928-.862 0-1.658.576-2.056 1.458-.497 1.114-.565 2.226-.565 3.455v9.819a.679.679 0 0 1-.693.656l-.015.033zM101.58 34.2c0 1.386.034 2.538-.665 3.768-.566 1.001-1.463 1.617-2.46 1.617-1.363 0-2.16-1.038-2.16-2.576 0-3.025 2.715-3.576 5.282-3.576v.77l.003-.003zm3.582 8.662a.736.736 0 0 1-.84.083c-1.179-.98-1.39-1.432-2.035-2.368-1.95 2.002-3.331 2.582-5.857 2.582-2.99 0-5.317-1.848-5.317-5.537 0-2.885 1.561-4.845 3.788-5.806 1.928-.847 4.62-1.001 6.68-1.232v-.462c0-.847.067-1.845-.43-2.577-.432-.654-1.264-.924-1.995-.924-1.355 0-2.56.693-2.857 2.135-.061.32-.295.636-.616.653l-3.443-.373c-.308-.066-.616-.299-.53-.742.792-4.178 4.565-5.44 7.946-5.44 1.728 0 4.004.463 5.35 1.772 1.73 1.617 1.562 3.768 1.562 6.113v5.535c0 1.663.693 2.395 1.34 3.293.226.308.277.708-.013.944l-2.725 2.359-.01-.01.002.002zM55.409 34.2c0 1.386.034 2.538-.665 3.768-.565 1.001-1.463 1.617-2.46 1.617-1.362 0-2.16-1.038-2.16-2.576 0-3.025 2.713-3.576 5.282-3.576v.77l.003-.003zm3.582 8.662a.736.736 0 0 1-.84.083c-1.179-.98-1.391-1.432-2.035-2.368-1.95 2.002-3.331 2.582-5.857 2.582-2.99 0-5.317-1.848-5.317-5.537 0-2.885 1.561-4.845 3.788-5.806 1.928-.847 4.62-1.001 6.68-1.232v-.462c0-.847.067-1.845-.43-2.577-.432-.654-1.263-.924-1.995-.924-1.355 0-2.56.693-2.856 2.135-.062.32-.308.636-.616.653l-3.444-.373c-.308-.066-.616-.299-.53-.742.79-4.178 4.563-5.44 7.947-5.44 1.728 0 4.004.463 5.351 1.772 1.728 1.617 1.562 3.768 1.562 6.113v5.535c0 1.663.693 2.395 1.34 3.293.226.308.277.708-.011.944l-2.71 2.359-.01-.01-.017.002z" fill="#000"></path></g></g></svg>