<svg xmlns="http://www.w3.org/2000/svg" viewBox="0 0 650 650"><g fill="#d7deed"><path d="M157.3 396.6H175v44.1h-17.7zM236.7 361.3h17.7v79.4h-17.7zM395.6 326h17.7v114.8h-17.7zM475.1 237.7h17.7v203h-17.7zM316.2 281.9h17.7v158.9h-17.7z"/></g><path d="M166.1 405.5c-3.4 0-6.6-2-8.1-5.2-2-4.5 0-9.7 4.5-11.7l77.7-34.5 78.2-86.9c2.9-3.3 7.8-3.9 11.5-1.4l72.8 48.5 74.4-90.9c3.1-3.8 8.6-4.3 12.4-1.2 3.8 3.1 4.3 8.6 1.2 12.4l-79.4 97.1c-2.9 3.5-7.9 4.3-11.7 1.8l-73.1-48.7-74.3 82.6c-.8.9-1.8 1.7-3 2.2l-79.4 35.3c-1.3.3-2.5.6-3.7.6z" fill="#8f96ac"/><path d="M563.3 502.6H86.7c-9.8 0-17.7-7.9-17.7-17.7v-8.8c0-4.9 4-8.8 8.8-8.8h494.3c4.9 0 8.8 4 8.8 8.8v8.8c.1 9.7-7.8 17.7-17.6 17.7z" fill="#959cb3"/><path d="M354.9 484.9h-59.7c-3.3 0-6.4-1.9-7.9-4.9l-6.4-12.8h88.3l-6.4 12.8c-1.5 3-4.6 4.9-7.9 4.9z" fill="#707487"/><path d="M536.9 149.4H113.1c-14.6 0-26.5 11.9-26.5 26.5v291.3h476.7V175.9c0-14.6-11.8-26.5-26.4-26.5zm0 282.5c0 4.9-4 8.8-8.8 8.8H122c-4.9 0-8.8-4-8.8-8.8V184.8c0-4.9 4-8.8 8.8-8.8h406c4.9 0 8.8 4 8.8 8.8l.1 247.1z" fill="#afb9d2"/><circle cx="325" cy="273" r="17.7" fill="#ffd782"/><circle cx="245.6" cy="361.3" r="17.7" fill="#ff6464"/><circle cx="483.9" cy="228.9" r="17.7" fill="#9be6d2"/><circle cx="404.4" cy="326" r="17.7" fill="#c3e678"/><circle cx="166.1" cy="396.6" r="17.7" fill="#00d2ff"/></svg>