<svg viewBox="0 0 1200 800" xmlns="http://www.w3.org/2000/svg" xmlns:xlink="http://www.w3.org/1999/xlink"><defs><path d="M.725.858L.511.776.428.745l.297.113zm.459.175h.002L.725.858l.459.175z" id="path-1"></path><linearGradient x1="-1806.8%" y1="-17569.5%" x2="776.43%" y2="6971.1%" id="linearGradient-3"><stop stop-color="#2E8CAC" offset="0%"></stop><stop stop-color="#3BB4DA" offset="100%"></stop></linearGradient><path d="M.368.102L.244.055l.124.047z" id="path-4"></path><linearGradient x1="-1842.9%" y1="-17608.9%" x2="740.33%" y2="6931.7%" id="linearGradient-6"><stop stop-color="#2E8CAC" offset="0%"></stop><stop stop-color="#3BB4DA" offset="100%"></stop></linearGradient><path d="M1.393 1.251l-.04-.015-.029-.012.069.027z" id="path-7"></path><linearGradient x1="-1819.15%" y1="-17707.15%" x2="764.08%" y2="6833.45%" id="linearGradient-9"><stop stop-color="#2E8CAC" offset="0%"></stop><stop stop-color="#3BB4DA" offset="100%"></stop></linearGradient><path d="M.956 1.085z" id="path-10"></path><linearGradient x1="-1816.95%" y1="-17686.7%" x2="85.82%" y2="389.6%" id="linearGradient-12"><stop stop-color="#2E8CAC" offset="0%"></stop><stop stop-color="#3BB4DA" offset="100%"></stop></linearGradient><path d="M1.327 1.365l-.631-.239.631.239z" id="path-13"></path><linearGradient x1="-1832.55%" y1="-17834.45%" x2="750.68%" y2="6706.15%" id="linearGradient-15"><stop stop-color="#2E8CAC" offset="0%"></stop><stop stop-color="#3BB4DA" offset="100%"></stop></linearGradient><path d="M1.324 1.224l-.368-.139.368.139z" id="path-16"></path><linearGradient x1="-1818%" y1="-17696.65%" x2="765.23%" y2="6843.95%" id="linearGradient-18"><stop stop-color="#2E8CAC" offset="0%"></stop><stop stop-color="#3BB4DA" offset="100%"></stop></linearGradient><path id="path-19"></path><linearGradient x1="-56.362%" y1="-961.475%" x2="156.541%" y2="1061.105%" id="linearGradient-21"><stop stop-color="#2E8CAC" offset="0%"></stop><stop stop-color="#3BB4DA" offset="100%"></stop></linearGradient><path d="M1.13.772L.92.691l.21.081z" id="path-22"></path><linearGradient x1="-1812.3%" y1="-17643.25%" x2="770.93%" y2="6897.35%" id="linearGradient-24"><stop stop-color="#2E8CAC" offset="0%"></stop><stop stop-color="#3BB4DA" offset="100%"></stop></linearGradient></defs><g fill="none" fill-rule="evenodd"><path fill="#FFF" d="M0 0h1200v800H0z"></path><g transform="translate(100.000000, 30.000000)"><path d="M948.279 100.642c-.458-3.661-3.593-7.111-7.398-7.247-2.714-.096-5.254 1.205-7.882 1.893-2.627.688-5.891.542-7.463-1.672-1.124-1.583-1.011-3.706-1.589-5.56-1.221-3.917-6.043-6.266-9.88-4.811-1.066.404-2.21 1.058-3.267.632-.834-.336-1.279-1.235-1.587-2.079-1.118-3.052-1.439-6.333-2.278-9.472-.839-3.141-2.345-6.313-5.098-8.039-1.658-1.039-3.516-1.417-5.423-1.338-14.98 11.836-25.487 31.015-32.836 51.453h63.045c5.544-.017 11.414-.123 16.119-3.056 3.445-2.146 6.055-6.565 5.537-10.704" fill="#FFC255"></path><path d="M896.414 62.949c-3.223.135-6.584 1.582-9.348 3.393-4.398 2.88-8.429 6.704-13.566 7.827-3.347.732-6.908.209-10.028-1.203-2.775-1.256-5.205-3.177-7.976-4.44-3.818-1.741-8.138-2.106-12.256-1.462-4.17.653-6.265 2.504-9.537 4.896-11.836 8.655-24.872 27.572-24.841 36.655.009 2.41 2.94 5.239 5.287 5.787 2.348.547 19.403.018 21.756 0 5.535-.043 11.071 0 16.607 0h11.066c7.35-20.437 17.857-39.617 32.836-51.453" fill="#FFCA76"></path><path d="M951.756 238.405c-12.812 1.624-24.784 7.158-37.372 10.044-31.863 7.306-67.302-3.979-89.075-28.362-20.843-23.342-28.334-57.77-19.419-87.72-9.72-7.74-67.602-49.8-67.602-49.8C641.543 9.952 548.769 2.814 529.255.723c-22.604-2.422-74.191 1.784-92.565 4.575a390.426 390.426 0 0 0-42.876 10.194c-32.877 9.805-61.85 23.194-86.912 38.002 0 0-33.786 24.915-56.958 49.868-23.17 24.953-24.867 50.041-20.582 83.823 2.797 22.039 18.427 39.623 34.143 55.325 28.508 28.483 151.08 67.402 172.989 77.389 63.648 29.012 128.51 58.379 197.898 67.204 58.524 7.445 117.895-.073 176.003-10.275 63.727-11.189 133.139-29.693 169.194-83.417 6.339-9.446 11.344-21.378 10.011-32.171-4.728-8.812-9.972-15.265-13.504-19.094-7.188-3.74-16.15-4.778-24.34-3.741" fill="#FFD79C"></path><path d="M923.958 457.107c1.886-29.196 24.387-49.96 24.387-49.96 22.056-22.31 35.644-42.907 43.401-61.484.357-.854.693-1.701 1.026-2.546-16.215 15.611-42.193 34.061-86.059 54.253-83.094 38.25-315.563 72.93-424.553 27.638-28.807-11.97-60.057-25.774-90.054-17.204-21.324 6.093-39.694 23.134-61.871 22.929-26.175-.242-45.048-23.693-64.233-41.501-42.04-39.021-103.336-57.025-159.33-44.59-41.233 9.156-78.443 35.13-101.766 70.125a71.21 71.21 0 0 0 10.611 18.649c35.641 45.259 120.618 64.034 92.881 137.576-11.199 29.695-1.665 54.479 20.673 73.196 21.811-1.09 43.265-7.149 61.971-18.57 39.102-23.872 63.221-66.12 98.952-94.793 49.91-40.052 118.027-49.935 181.882-45.734 63.855 4.202 126.268 20.843 189.895 27.673 88.558 9.505 179.115-.464 263.58-28.68-1.331-7.6-2.082-16.303-1.393-26.977m-6.59-238.302c7.912-.439 14.198-1.207 20.197-1.997-45.97-11.19-60.348-24.623-86.892-47.225-1.81 8.516.938 18.156 10.51 28.904 12.872 14.454 36.862 21.393 56.185 20.318" fill="#FFC255"></path><path d="M989.6 261.24c1.333 10.793-3.672 22.725-10.011 32.171-36.054 53.725-105.467 72.228-169.194 83.417-58.108 10.202-117.479 17.72-176.003 10.275-69.388-8.825-134.25-38.192-197.897-67.204-21.91-9.987-144.482-48.906-172.99-77.388-15.716-15.703-31.345-33.287-34.142-55.326-4.285-33.782 11.627-56.793 31.332-84.564 13.281-18.72 46.207-49.127 46.207-49.127-61.399 36.275-99.31 81.057-113.466 102.492-11.945 18.087-17.408 26.445-24.514 35.321v.002s-.742.947-2.191 2.691c-5.782 6.987-13.015 14.887-25.406 28.37-8.443 9.186-17.34 17.273-27.026 24.419-17.588 15.399-39.213 32.465-64.581 49.085-33.088 21.677-61.45 75.47-44.811 118.893 23.322-34.995 60.533-60.968 101.765-70.125 55.994-12.435 117.29 5.569 159.33 44.59 19.186 17.808 38.058 41.259 64.234 41.501 22.177.205 40.547-16.836 61.871-22.929 29.996-8.57 61.246 5.234 90.053 17.205 108.991 45.292 341.459 10.611 424.553-27.639 43.866-20.192 69.844-38.642 86.059-54.253 14.038-35.735 6.536-63.782-3.172-81.877" fill="#FFCA76"></path><path d="M168.922 191.309v-.002c-.711.889-1.439 1.783-2.191 2.692a137.881 137.881 0 0 0 2.191-2.69m803.208 46.882c-10.242-8.769-21.271-15.789-34.565-21.383-5.999.79-12.285 1.558-20.197 1.997-19.323 1.075-43.313-5.864-56.184-20.318-9.573-10.748-12.321-20.388-10.511-28.903-15.249-13.257-30.393-25.758-44.783-37.217-8.915 29.95-1.424 64.378 19.419 87.72 21.773 24.383 57.212 35.667 89.075 28.362 12.588-2.886 24.56-8.42 37.372-10.044 8.19-1.037 17.152.001 24.34 3.741-2.033-2.204-3.496-3.539-3.966-3.955" fill="#FFCA76"></path><path d="M738.288 82.567a433.224 433.224 0 0 0-30.031-20.625c-40.205-1.659-92.125 5.652-140.281 12.241-55.855 7.643-110.765-11.676-115.945-70.751-8.147.903-14.557 1.681-15.342 1.865a390.709 390.709 0 0 0-42.876 10.195c-20.632 17.113-55.494 51.653-66.623 97.01-20.721 84.448 99.435 63.115 155 73.017 55.565 9.902 275.019 23.464 294.524-66.773a68.243 68.243 0 0 0 1.163-7.266c-18.766-13.782-39.589-28.913-39.589-28.913" fill="#FFE5C2"></path><path d="M928.354 550.757c11.644-29.321 1.279-42.223-3.003-66.673-84.465 28.217-175.021 38.186-263.579 28.681-63.628-6.83-126.04-23.472-189.896-27.673-63.855-4.201-131.971 5.682-181.881 45.733-35.732 28.673-59.851 70.921-98.953 94.793-18.706 11.421-40.161 17.48-61.97 18.57 40.848 34.228 124.501 56.223 192.002 39.715 67.501-16.507 61.831-32.168 78.025-34.758 49.551-4.292 83.614 37.8 162.78 22.372 85.711-16.705 156.364-68.073 173.913-79.545 14.137-9.24 49.397-21.333 88.212-11.962 1.342.345 2.685.693 4.033 1.046.07.019.139.035.209.055 3.529.923 7.1 1.873 10.808 2.824 57.048 11.699 79.804-9.264 89.3-33.178" fill="#FFB300"></path><path d="M839.054 583.934c2.443.627 4.944 1.255 7.537 1.877a441.765 441.765 0 0 0-7.537-1.877m18.201 39.547c-6.971-3.623-14.912-4.869-22.727-5.676-27.188-2.806-54.828-.744-81.358 5.78-19.004 4.673-54.321 12.216-65.17 30.667-14.008 23.821 33.912 15.61 47.545 15.916l85.054 1.914c11.381.256 23.19.432 33.604-4.165 10.415-4.597 19.012-15.422 17.204-26.662-1.248-7.756-7.181-14.15-14.152-17.774" fill="#FFB300"></path><path d="M36.466 160.807c1.642.383 13.57.013 15.217 0 3.87-.03 7.743 0 11.614 0h51.832c3.878-.012 7.983-.086 11.275-2.137 2.872-1.79 4.838-5.778 3.58-9.106-1.23-3.254-5.342-5.868-8.371-7.139-3.592-1.507-7.563-1.968-11.455-1.78-4.281.207-8.668 1.164-12.785-.029-3.188-.925-5.873-3.053-8.387-5.221-2.514-2.168-5.004-4.46-8.03-5.827-3.025-1.366-6.763-1.657-9.542.16-2.71 1.772-3.99 5.14-6.574 7.086-3.232 2.433-7.848 2.112-11.572.531-2.058-.874-3.987-2.094-6.156-2.636-2.168-.543-4.758-.239-6.173 1.492-.571.696-.897 1.555-1.214 2.398-1.307 3.472-2.333 7.301-4.016 10.604-.586 1.15-1.512 1.941-1.99 3.174-.534 1.377-.956 2.897-.95 4.383.006 1.686 2.055 3.664 3.697 4.047" fill="#FFCA76"></path><path d="M147.035 269.876l50.62-.073c2.785-.004 5.641-.02 8.247-1 2.607-.981 4.954-3.145 5.333-5.904.538-3.922-3.158-7.403-7.054-8.109-3.894-.707-7.843.593-11.588 1.875 2.452-8.176-.274-17.668-6.692-23.297-6.417-5.629-16.183-7.095-23.97-3.596-3.784 1.699-7.133 4.458-11.181 5.364-6.119 1.369-12.171-1.748-18.111-3.871a182.546 182.546 0 0 1-18.251 15.446 587.65 587.65 0 0 1-28.149 23.153c20.266-.033 40.533.04 60.796.012m-51.772 13.342l24.955-.116 24.956.114 12.478.14 12.477.245-12.477.245-12.478.14-24.956.115-24.955-.117c-8.318-.08-16.638-.177-24.956-.383 8.318-.206 16.638-.303 24.956-.383zm-8.38 6.841c5.717-.206 11.435-.303 17.151-.383 5.718-.082 11.436-.074 17.153-.116 5.717.039 11.434.035 17.152.115l8.576.139c2.859.083 5.717.132 8.576.245-2.859.113-5.717.162-8.576.245l-8.576.14c-5.718.08-11.435.076-17.152.115-5.717-.042-11.435-.034-17.153-.117-5.716-.08-11.434-.176-17.151-.383m581.83 266.848c1.368-1.223 2.757-2.461 4.194-3.737 36.733-32.603 30.421-41.255 22.598-47.184-8.578-6.502-27.813 9.8-27.813 9.8-41.297 36.515-103.373 75.565-103.373 75.565s30.124-27.748 43.165-49.918c13.041-22.17 9.999-30.429 0-32.602-9.998-2.174-13.287 1.358-29.369 19.18-3.885 4.1-14.507 13.938-18.266 19.505-24.932 16.44-46.532 30.214-63.898 39.88-33.023 11.985-59.777 9.642-70.498 6.962-18.258-4.564-57.381-56.532-92.265-69.149-27.8-10.055-52.332-6.511-56.62 9.041-4.562 16.547 18.475 18.051 45.426 34.124 24.643 14.696 47.61 66.737 53.528 105.86 3.447 22.783 16.595 47.995 26.978 65.084h117.24c9.453-14.327 26.69-37.862 57.75-74.43 61.293-72.16 96.504-77.377 112.154-88.244 15.649-10.867 6.862-27.791-20.931-19.737" fill="#FFF"></path><path d="M607.484 541.433c6.128-10.417 8.703-17.762 8.676-22.848-1.234 1.03-2.657 2.443-4.328 4.373-7.225 16.272-20.214 25.395-28.474 38.037-20.211 21.857-36.197 27.109-36.197 27.109l17.158 3.248s30.124-27.749 43.165-49.919" fill="#C9E8F4"></path><path d="M668.714 556.907c1.367-1.223 2.756-2.461 4.193-3.737 36.733-32.603 30.421-41.255 22.598-47.184-8.578-6.502-27.813 9.8-27.813 9.8-41.297 36.515-103.373 75.566-103.373 75.566l32.624 24.198s33.669-42.626 71.771-58.643m-93.125 68.424v-6.067s-53.523-26.319-126.118 2.155c1.899 2.128 8.411 1.724 19.67 29.559 11.737 29.016 60.315 13.802 60.315 13.802 21.992-13.557 30.341-14.525 46.133-39.449m-199.251 19.056c-19.152-50.976-45.672-69.286-45.672-69.286l.007.016c21.175 20.142 39.633 64.64 44.849 99.117 3.159 20.884 14.47 43.807 24.332 60.647-14.826-28.989-5.911-43.636-23.516-90.494" fill="#C9E8F4"></path><path d="M635.681 608.201c15.604-24.194 22.664-59.842 22.664-59.842v-.006c-1.736 5.367-3.95 11.017-5.937 16.174-5.51 14.295-19.025 40.071-37.012 60.615 7.28-6.648 14.038-12.224 20.285-16.941" fill="#C9E8F4"></path><path d="M647.151 567.95c4.238-2.771 21.562-11.043 21.562-11.043 1.368-1.223 2.756-2.461 4.194-3.737.787-.699 1.527-1.37 2.274-2.047-11.984 1.577-26.074 7.372-26.074 7.372s-5.868 9.944-1.956 9.455" fill="#FFE5C2"></path><path d="M603.79 619.788c-8.803-17.605-39.471-28.436-39.471-28.436s9.503-8.761 20.143-20.36c-6.693 6.99-16.289 12.324-27.946 15.216-10.398 2.579-21.606 3.553-29.171 3.94 7.597.255 19.836 1.669 36.017 6.819 19.003 6.046 31.563 27.816 37.883 41.835a384.509 384.509 0 0 1 6.632-6.583c-.62-3.789-1.864-7.985-4.087-12.431m-19.328-48.796c.488-.511.965-1.028 1.422-1.557-.477.527-.949 1.04-1.422 1.557" fill="#C9E8F4"></path><path d="M656.972 525.729c-9.618-2.934-14.273 7.384-16.03 9.944-8.435 13.799-19.112 24.328-27.546 39.346-13.029 8.091-36.666 32.217-49.076 53.734-51.79 35.026-93.294 60.102-93.294 60.102l.003.007c11.655 32.904 54.475 40.98 77.323 14.588 22.173-25.613 45.268-51.815 55.118-61.978 20.584-21.239 42.905-61.297 48.938-76.945 6.031-15.65 14.181-35.863 4.564-38.798" fill="#FFF"></path><path d="M842.435 476.998v-10.425l-3.608.854c-24.454-32.377-171.088-57.265-348.357-57.265-175.838 0-321.548 24.486-347.755 56.482l-4.209-.071v10.425c0 36.912 157.579 66.836 351.964 66.836s351.965-29.924 351.965-66.836" fill="#92CEE0"></path><path d="M842.435 466.627c0-36.912-157.58-66.836-351.965-66.836-194.385 0-351.964 29.924-351.964 66.836s157.579 66.836 351.964 66.836 351.965-29.924 351.965-66.836" fill="#FFF"></path><path d="M842.435 466.573c0-.322-.04-.643-.064-.963 0 0-89.61-32.203-93.469-32.775-2.573-.38-166.625 5.098-492.157 16.437v3.545c97.517 28.8 151.017 44.347 160.5 46.639-.7.34-16.396 10.03-16.2 10.03.119 0 89.296 23.923 89.425 23.923 194.385 0 352.043-28.153 352.043-65.065" fill="#C9E8F4"></path><g transform="translate(751.000000, 430.318000)"><mask id="mask-2" fill="#fff"><use xlink:href="#path-1"></use></mask><path d="M.725.858L.511.776.428.745l.297.113zm.459.175h.002L.725.858l.459.175z" fill="url(#linearGradient-3)" mask="url(#mask-2)"></path></g><g transform="translate(752.000000, 431.318000)"><mask id="mask-5" fill="#fff"><use xlink:href="#path-4"></use></mask><path d="M.368.102L.244.055l.124.047z" fill="url(#linearGradient-6)" mask="url(#mask-5)"></path></g><g transform="translate(754.000000, 431.318000)"><mask id="mask-8" fill="#fff"><use xlink:href="#path-7"></use></mask><path d="M1.393 1.251l-.04-.015-.029-.012.069.027z" fill="url(#linearGradient-9)" mask="url(#mask-8)"></path></g><g transform="translate(754.000000, 431.318000)"><mask id="mask-11" fill="#fff"><use xlink:href="#path-10"></use></mask><path d="M.956 1.085z" fill="url(#linearGradient-12)" mask="url(#mask-11)"></path></g><g transform="translate(757.000000, 432.318000)"><mask id="mask-14" fill="#fff"><use xlink:href="#path-13"></use></mask><path d="M1.327 1.365l-.631-.239.631.239z" fill="url(#linearGradient-15)" mask="url(#mask-14)"></path></g><g transform="translate(754.000000, 431.318000)"><mask id="mask-17" fill="#fff"><use xlink:href="#path-16"></use></mask><path d="M1.324 1.224l-.368-.139.368.139z" fill="url(#linearGradient-18)" mask="url(#mask-17)"></path></g><g transform="translate(752.000000, 430.318000)"><mask id="mask-20" fill="#fff"><use xlink:href="#path-19"></use></mask><path fill="url(#linearGradient-21)" mask="url(#mask-20)"></path></g><g transform="translate(753.000000, 431.318000)"><mask id="mask-23" fill="#fff"><use xlink:href="#path-22"></use></mask><path d="M1.13.772L.92.691l.21.081z" fill="url(#linearGradient-24)" mask="url(#mask-23)"></path></g><g transform="translate(561.000000, 134.000000)"><path fill="#306CE6" d="M.466 322.296h148.082V23.644H.466z"></path><path fill="#272187" d="M20.998 322.296h107.017v-39.819H20.998z"></path><path fill="#17165B" d="M27.064 294.589h94.885v-5.6H27.064zm0 10.647h94.885v-5.6H27.064zm0 10.647h94.885v-5.599H27.064z"></path><path fill="#38A8F4" d="M187.902 0H39.821L0 23.644h148.082z"></path><path fill="#185BC6" d="M187.902 0l-39.82 23.644v298.651l39.82-23.643z"></path><path fill="#272187" d="M181.47 252.027l-24.158 14.344v39.522l24.158-14.343z"></path><path fill="#4B8CF7" d="M181.47 276.642l-24.158 14.344 1.867 5.643 24.157-14.343zm0 8.205l-24.158 14.345 1.867 5.643 24.157-14.344zm0-16.409l-24.158 14.343 1.867 5.643 24.157-14.342zm0-8.206l-24.158 14.345 1.867 5.643 24.157-14.344zm0-8.205l-24.158 14.344 1.867 5.642 24.157-14.342z"></path><path fill="#272187" d="M10.421 268.787h128.171V36.255H10.421z"></path><path fill="#306CE6" d="M18.017 57.902h112.98V41.725H18.017z"></path><path d="M37.562 49.814a3.305 3.305 0 1 1-6.61 0 3.305 3.305 0 0 1 6.61 0m42.258 0a2.053 2.053 0 1 1-4.107.002 2.053 2.053 0 0 1 4.106-.002m6.609 0a2.053 2.053 0 1 1-4.106.002 2.053 2.053 0 0 1 4.106-.002m6.609 0a2.053 2.053 0 1 1-4.106.002 2.053 2.053 0 0 1 4.106-.002M43.62 48.713h3.304v-3.304H43.62zm0 5.507h3.304v-3.304H43.62zm5.301-5.507h3.304v-3.304h-3.304zm0 5.507h3.304v-3.304h-3.304zm5.3-5.507h3.305v-3.304h-3.305zm0 5.507h3.305v-3.304h-3.305zm5.301-5.507h3.305v-3.304h-3.305zm0 5.507h3.305v-3.304h-3.305zm5.301-5.507h3.305v-3.304h-3.305zm0 5.507h3.305v-3.304h-3.305z" fill="#FFF"></path><path fill="#185BC6" d="M102.708 54.22h15.352v-8.811h-15.352z"></path><path fill="#306CE6" d="M18.017 80.509h112.98V64.331H18.017z"></path><path fill="#FFF" d="M59.522 71.319h3.305v-3.304h-3.305zm0 5.507h3.305v-3.304h-3.305zm-21.96-4.406a3.305 3.305 0 1 1-6.61 0 3.305 3.305 0 0 1 6.61 0m42.258 0a2.053 2.053 0 1 1-4.107.002 2.053 2.053 0 0 1 4.106-.002m6.609 0a2.053 2.053 0 1 1-4.106.002 2.053 2.053 0 0 1 4.106-.002"></path><path d="M93.037 72.42a2.053 2.053 0 1 1-4.106.002 2.053 2.053 0 0 1 4.106-.002" fill="#5BC5EF"></path><path fill="#FFF" d="M43.62 71.319h3.304v-3.304H43.62zm0 5.507h3.304v-3.304H43.62zm5.301-5.507h3.304v-3.304h-3.304zm0 5.507h3.304v-3.304h-3.304zm5.3-5.507h3.305v-3.304h-3.305zm0 5.507h3.305v-3.304h-3.305zm10.602-5.507h3.305v-3.304h-3.305zm0 5.507h3.305v-3.304h-3.305z"></path><path fill="#C9E8F4" d="M102.708 76.826h15.352v-8.811h-15.352z"></path><path fill="#306CE6" d="M18.017 103.115h112.98V86.937H18.017z"></path><path d="M37.562 95.027a3.305 3.305 0 1 1-6.61 0 3.305 3.305 0 0 1 6.61 0m42.258 0a2.053 2.053 0 1 1-4.107.001 2.053 2.053 0 0 1 4.106-.001m6.609 0a2.053 2.053 0 1 1-4.106.001 2.053 2.053 0 0 1 4.106-.001m6.609 0a2.053 2.053 0 1 1-4.106.001 2.053 2.053 0 0 1 4.106-.001M43.62 93.925h3.304V90.62H43.62zm0 5.508h3.304v-3.304H43.62zm5.301-5.508h3.304V90.62h-3.304zm0 5.508h3.304v-3.304h-3.304zm5.3-5.508h3.305V90.62h-3.305zm0 5.508h3.305v-3.304h-3.305zm5.301-5.508h3.305V90.62h-3.305zm0 5.508h3.305v-3.304h-3.305zm5.301-5.508h3.305V90.62h-3.305zm0 5.508h3.305v-3.304h-3.305z" fill="#FFF"></path><path fill="#185BC6" d="M102.708 99.433h15.352v-8.812h-15.352z"></path><path fill="#306CE6" d="M18.017 125.722h112.98v-16.178H18.017z"></path><path d="M37.562 117.633a3.305 3.305 0 1 1-6.61 0 3.305 3.305 0 0 1 6.61 0m42.258 0a2.053 2.053 0 1 1-4.107.001 2.053 2.053 0 0 1 4.106-.001m6.609 0a2.053 2.053 0 1 1-4.106.002 2.053 2.053 0 0 1 4.106-.002m6.609 0a2.053 2.053 0 1 1-4.106.002 2.053 2.053 0 0 1 4.106-.002m-49.417-1.101h3.304v-3.305H43.62zm0 5.507h3.304v-3.304H43.62zm5.301-5.507h3.304v-3.305h-3.304zm0 5.507h3.304v-3.304h-3.304zm5.3-5.507h3.305v-3.305h-3.305zm0 5.507h3.305v-3.304h-3.305zm5.301-5.507h3.305v-3.305h-3.305zm0 5.507h3.305v-3.304h-3.305zm5.301-5.507h3.305v-3.305h-3.305zm0 5.507h3.305v-3.304h-3.305z" fill="#FFF"></path><path fill="#C9E8F4" d="M102.708 122.039h15.352v-8.812h-15.352z"></path><path fill="#306CE6" d="M18.017 148.328h112.98v-16.177H18.017z"></path><path d="M37.562 140.239a3.305 3.305 0 1 1-6.61 0 3.305 3.305 0 0 1 6.61 0m42.258 0a2.053 2.053 0 1 1-4.107.001 2.053 2.053 0 0 1 4.106-.001" fill="#FFF"></path><path d="M86.428 140.239a2.053 2.053 0 1 1-4.106.002 2.053 2.053 0 0 1 4.106-.002" fill="#5BC5EF"></path><path d="M93.037 140.239a2.053 2.053 0 1 1-4.106.002 2.053 2.053 0 0 1 4.106-.002m-49.417-1.101h3.304v-3.305H43.62zm0 5.507h3.304v-3.304H43.62zm5.301-5.507h3.304v-3.305h-3.304zm0 5.507h3.304v-3.304h-3.304zm5.3-5.507h3.305v-3.305h-3.305zm0 5.507h3.305v-3.304h-3.305zm5.301-5.507h3.305v-3.305h-3.305zm0 5.507h3.305v-3.304h-3.305zm5.301-5.507h3.305v-3.305h-3.305zm0 5.507h3.305v-3.304h-3.305z" fill="#FFF"></path><path fill="#185BC6" d="M102.708 144.645h15.352v-8.812h-15.352z"></path><path fill="#306CE6" d="M18.017 170.934h112.98v-16.177H18.017z"></path><path d="M37.562 162.846a3.305 3.305 0 1 1-6.61 0 3.305 3.305 0 0 1 6.61 0m42.258 0a2.053 2.053 0 1 1-4.107.002 2.053 2.053 0 0 1 4.106-.002" fill="#FFF"></path><path d="M86.428 162.846a2.053 2.053 0 1 1-4.106.002 2.053 2.053 0 0 1 4.106-.002" fill="#272187"></path><path d="M93.037 162.846a2.053 2.053 0 1 1-4.106.002 2.053 2.053 0 0 1 4.106-.002m-49.417-1.102h3.304v-3.304H43.62zm0 5.508h3.304v-3.305H43.62zm5.301-5.508h3.304v-3.304h-3.304zm0 5.508h3.304v-3.305h-3.304zm5.3-5.508h3.305v-3.304h-3.305zm0 5.508h3.305v-3.305h-3.305zm5.301-5.508h3.305v-3.304h-3.305zm0 5.508h3.305v-3.305h-3.305zm5.301-5.508h3.305v-3.304h-3.305zm0 5.508h3.305v-3.305h-3.305z" fill="#FFF"></path><path fill="#272187" d="M102.708 167.252h15.352v-8.812h-15.352z"></path><path fill="#306CE6" d="M18.017 193.541h112.98v-16.178H18.017z"></path><path d="M37.562 185.452a3.305 3.305 0 1 1-6.61 0 3.305 3.305 0 0 1 6.61 0m42.258 0a2.053 2.053 0 1 1-4.107.002 2.053 2.053 0 0 1 4.106-.002m6.609 0a2.053 2.053 0 1 1-4.106.002 2.053 2.053 0 0 1 4.106-.002" fill="#FFF"></path><path d="M93.037 185.452a2.053 2.053 0 1 1-4.106.002 2.053 2.053 0 0 1 4.106-.002" fill="#5BC5EF"></path><path fill="#FFF" d="M43.62 184.351h3.304v-3.305H43.62zm0 5.507h3.304v-3.305H43.62zm5.301-5.507h3.304v-3.305h-3.304zm0 5.507h3.304v-3.305h-3.304zm5.3-5.507h3.305v-3.305h-3.305zm0 5.507h3.305v-3.305h-3.305zm5.301-5.507h3.305v-3.305h-3.305zm0 5.507h3.305v-3.305h-3.305zm5.301-5.507h3.305v-3.305h-3.305zm0 5.507h3.305v-3.305h-3.305z"></path><path fill="#185BC6" d="M102.708 189.858h15.352v-8.812h-15.352z"></path><path fill="#306CE6" d="M18.017 216.147h112.98v-16.178H18.017z"></path><path d="M37.562 208.058a3.305 3.305 0 1 1-6.61 0 3.305 3.305 0 0 1 6.61 0" fill="#FFF"></path><path d="M79.82 208.058a2.052 2.052 0 0 1-2.055 2.053 2.052 2.052 0 1 1 0-4.105c1.135 0 2.054.918 2.054 2.052" fill="#5BC5EF"></path><path d="M86.428 208.058a2.052 2.052 0 0 1-2.053 2.053 2.052 2.052 0 1 1 0-4.105c1.134 0 2.053.918 2.053 2.052m6.609 0a2.052 2.052 0 1 1-4.106 0 2.053 2.053 0 1 1 4.106 0m-49.417-1.101h3.304v-3.305H43.62zm0 5.507h3.304v-3.305H43.62zm5.301-5.507h3.304v-3.305h-3.304zm0 5.507h3.304v-3.305h-3.304zm5.3-5.507h3.305v-3.305h-3.305zm0 5.507h3.305v-3.305h-3.305zm5.301-5.507h3.305v-3.305h-3.305zm0 5.507h3.305v-3.305h-3.305zm5.301-5.507h3.305v-3.305h-3.305zm0 5.507h3.305v-3.305h-3.305z" fill="#FFF"></path><path fill="#185BC6" d="M102.708 212.464h15.352v-8.812h-15.352z"></path><path fill="#306CE6" d="M18.017 238.753h112.98v-16.178H18.017z"></path><path d="M37.562 230.665a3.305 3.305 0 1 1-6.61 0 3.305 3.305 0 0 1 6.61 0m42.258 0a2.053 2.053 0 1 1-4.106 0 2.053 2.053 0 0 1 4.105 0" fill="#FFF"></path><path d="M86.428 230.665a2.053 2.053 0 1 1-4.105 0 2.053 2.053 0 0 1 4.105 0" fill="#5BC5EF"></path><path d="M93.037 230.665a2.053 2.053 0 1 1-4.106 0 2.053 2.053 0 0 1 4.106 0m-49.417-1.102h3.304v-3.305H43.62zm0 5.508h3.304v-3.305H43.62zm5.301-5.508h3.304v-3.305h-3.304zm0 5.508h3.304v-3.305h-3.304zm5.3-5.508h3.305v-3.305h-3.305zm0 5.508h3.305v-3.305h-3.305zm5.301-5.508h3.305v-3.305h-3.305zm0 5.508h3.305v-3.305h-3.305zm5.301-5.508h3.305v-3.305h-3.305zm0 5.508h3.305v-3.305h-3.305z" fill="#FFF"></path><path fill="#5BC5EF" d="M102.708 235.071h15.352v-8.812h-15.352z"></path><path fill="#306CE6" d="M18.017 261.36h112.98v-16.177H18.017z"></path><path d="M37.562 253.27a3.305 3.305 0 1 1-6.61 0 3.305 3.305 0 0 1 6.61 0m42.258 0a2.053 2.053 0 1 1-4.106.001 2.053 2.053 0 0 1 4.105 0m6.609-.001a2.053 2.053 0 1 1-4.105.001 2.053 2.053 0 0 1 4.105 0" fill="#FFF"></path><path d="M93.037 253.27a2.053 2.053 0 1 1-4.106.001 2.053 2.053 0 0 1 4.106 0" fill="#272187"></path><path fill="#FFF" d="M43.62 252.17h3.304v-3.305H43.62zm0 5.507h3.304v-3.305H43.62zm5.301-5.507h3.304v-3.305h-3.304zm0 5.507h3.304v-3.305h-3.304zm5.3-5.507h3.305v-3.305h-3.305zm0 5.507h3.305v-3.305h-3.305zm5.301-5.507h3.305v-3.305h-3.305zm0 5.507h3.305v-3.305h-3.305zm5.301-5.507h3.305v-3.305h-3.305zm0 5.507h3.305v-3.305h-3.305z"></path><path fill="#185BC6" d="M102.708 257.677h15.352v-8.812h-15.352z"></path></g><path fill="#306CE6" d="M256.745 452.817H421.28V120.981H256.745z"></path><path fill="#272187" d="M279.558 452.817h118.908v-44.244H279.558z"></path><path fill="#17165B" d="M286.299 422.032h105.427v-6.222H286.299zm0 11.83h105.427v-6.222H286.299zm0 11.829h105.427v-6.221H286.299z"></path><path fill="#38A8F4" d="M300.471 94.711l-44.244 26.271h164.535l44.244-26.271z"></path><path fill="#185BC6" d="M465.006 94.711l-44.244 26.271v331.835l44.244-26.269z"></path><path fill="#272187" d="M457.86 374.741l-26.842 15.937v43.914l26.842-15.937z"></path><path fill="#4B8CF7" d="M457.86 402.091l-26.842 15.938 2.074 6.27 26.842-15.937zm0 9.117l-26.842 15.938 2.074 6.27 26.842-15.937zm0-18.234l-26.842 15.937 2.074 6.271 26.842-15.937zm0-9.117l-26.842 15.938 2.074 6.27 26.842-15.937zm0-9.116l-26.842 15.937 2.074 6.27 26.842-15.936z"></path><path fill="#272187" d="M267.805 393.364h142.413v-258.37H267.805z"></path><path fill="#306CE6" d="M276.246 159.047h125.533v-17.974H276.246z"></path><path d="M294.291 153.731a3.672 3.672 0 1 0 0-7.344 3.672 3.672 0 0 0 0 7.344m50.623-3.671a2.28 2.28 0 1 1-4.561 0 2.28 2.28 0 0 1 4.561 0m7.344 0a2.28 2.28 0 1 1-4.562 0 2.28 2.28 0 0 1 4.562 0m7.343 0a2.28 2.28 0 1 1-4.561 0 2.28 2.28 0 0 1 4.561 0m-54.908-1.224h3.672v-3.671h-3.672zm0 6.119h3.672v-3.671h-3.672zm5.891-6.119h3.671v-3.671h-3.671zm0 6.119h3.671v-3.671h-3.671zm5.889-6.119h3.671v-3.671h-3.671zm0 6.119h3.671v-3.671h-3.671zm5.89-6.119h3.671v-3.671h-3.671zm0 6.119h3.671v-3.671h-3.671zm5.89-6.119h3.671v-3.671h-3.671zm0 6.119h3.671v-3.671h-3.671z" fill="#FFF"></path><path fill="#185BC6" d="M370.347 154.955h17.058v-9.79h-17.058z"></path><path fill="#306CE6" d="M276.246 184.165h125.533v-17.974H276.246z"></path><path d="M294.291 178.849a3.672 3.672 0 1 0 0-7.344 3.672 3.672 0 0 0 0 7.344" fill="#5BC5EF"></path><path d="M344.914 175.179a2.28 2.28 0 0 1-4.562 0 2.281 2.281 0 1 1 4.562 0" fill="#FFF"></path><path d="M352.258 175.179a2.28 2.28 0 0 1-4.563 0 2.281 2.281 0 1 1 4.563 0" fill="#272187"></path><path d="M359.601 175.179a2.28 2.28 0 1 1-2.281-2.283 2.281 2.281 0 0 1 2.281 2.283m-54.908-1.225h3.672v-3.671h-3.672zm0 6.119h3.672v-3.671h-3.672zm5.891-6.119h3.671v-3.671h-3.671zm0 6.119h3.671v-3.671h-3.671zm5.889-6.119h3.671v-3.671h-3.671zm0 6.119h3.671v-3.671h-3.671zm5.89-6.119h3.671v-3.671h-3.671zm0 6.119h3.671v-3.671h-3.671zm5.89-6.119h3.671v-3.671h-3.671zm0 6.119h3.671v-3.671h-3.671z" fill="#FFF"></path><path fill="#185BC6" d="M370.347 180.073h17.058v-9.79h-17.058z"></path><path fill="#306CE6" d="M276.246 209.283h125.533v-17.974H276.246z"></path><path d="M294.291 203.968a3.672 3.672 0 1 0 0-7.344 3.672 3.672 0 0 0 0 7.344m50.623-3.672a2.28 2.28 0 1 1-4.562.002 2.28 2.28 0 0 1 4.562-.002m7.344 0a2.281 2.281 0 1 1-4.562.002 2.281 2.281 0 0 1 4.562-.002m7.343 0a2.28 2.28 0 1 1-4.562.002 2.28 2.28 0 0 1 4.562-.002m-54.908-1.224h3.672v-3.671h-3.672zm0 6.119h3.672v-3.671h-3.672zm5.891-6.119h3.671v-3.671h-3.671zm0 6.119h3.671v-3.671h-3.671zm5.889-6.119h3.671v-3.671h-3.671zm0 6.119h3.671v-3.671h-3.671zm5.89-6.119h3.671v-3.671h-3.671zm0 6.119h3.671v-3.671h-3.671zm5.89-6.119h3.671v-3.671h-3.671zm0 6.119h3.671v-3.671h-3.671z" fill="#FFF"></path><path fill="#185BC6" d="M370.347 205.191h17.058v-9.79h-17.058z"></path><path fill="#306CE6" d="M276.246 234.401h125.533v-17.974H276.246z"></path><path d="M294.291 229.086a3.672 3.672 0 1 0 0-7.344 3.672 3.672 0 0 0 0 7.344" fill="#5BC5EF"></path><path d="M344.914 225.414a2.28 2.28 0 1 1-4.562.002 2.28 2.28 0 0 1 4.562-.002" fill="#272187"></path><path d="M352.258 225.414a2.281 2.281 0 1 1-4.562.002 2.281 2.281 0 0 1 4.562-.002m7.343 0a2.28 2.28 0 1 1-4.562.002 2.28 2.28 0 0 1 4.562-.002m-54.908-1.224h3.672v-3.671h-3.672zm0 6.119h3.672v-3.671h-3.672zm5.891-6.119h3.671v-3.671h-3.671zm0 6.119h3.671v-3.671h-3.671zm5.889-6.119h3.671v-3.671h-3.671zm0 6.119h3.671v-3.671h-3.671zm5.89-6.119h3.671v-3.671h-3.671zm0 6.119h3.671v-3.671h-3.671zm5.89-6.119h3.671v-3.671h-3.671zm0 6.119h3.671v-3.671h-3.671z" fill="#FFF"></path><path fill="#185BC6" d="M370.347 230.309h17.058v-9.79h-17.058z"></path><path fill="#306CE6" d="M276.246 259.519h125.533v-17.974H276.246z"></path><path d="M294.291 254.204a3.672 3.672 0 1 0 0-7.344 3.672 3.672 0 0 0 0 7.344m50.623-3.672a2.28 2.28 0 1 1-4.562.002 2.28 2.28 0 0 1 4.562-.002m7.344 0a2.281 2.281 0 1 1-4.562.002 2.281 2.281 0 0 1 4.562-.002" fill="#FFF"></path><path d="M359.601 250.532a2.28 2.28 0 1 1-4.562.002 2.28 2.28 0 0 1 4.562-.002" fill="#272187"></path><path fill="#FFF" d="M304.693 249.308h3.672v-3.671h-3.672zm0 6.119h3.672v-3.671h-3.672zm5.891-6.119h3.671v-3.671h-3.671zm0 6.119h3.671v-3.671h-3.671zm5.889-6.119h3.671v-3.671h-3.671zm0 6.119h3.671v-3.671h-3.671zm5.89-6.119h3.671v-3.671h-3.671zm0 6.119h3.671v-3.671h-3.671zm5.89-6.119h3.671v-3.671h-3.671zm0 6.119h3.671v-3.671h-3.671z"></path><path fill="#185BC6" d="M370.347 255.427h17.058v-9.79h-17.058z"></path><path fill="#306CE6" d="M276.246 284.637h125.533v-17.974H276.246z"></path><path d="M294.291 279.322a3.672 3.672 0 1 0 0-7.344 3.672 3.672 0 0 0 0 7.344m50.623-3.672a2.28 2.28 0 1 1-4.562.002 2.28 2.28 0 0 1 4.562-.002m7.344 0a2.281 2.281 0 1 1-4.562.002 2.281 2.281 0 0 1 4.562-.002m7.343 0a2.28 2.28 0 1 1-4.562.002 2.28 2.28 0 0 1 4.562-.002m-54.908-1.223h3.672v-3.671h-3.672zm0 6.119h3.672v-3.671h-3.672zm5.891-6.119h3.671v-3.671h-3.671zm0 6.119h3.671v-3.671h-3.671zm5.889-6.119h3.671v-3.671h-3.671zm0 6.119h3.671v-3.671h-3.671zm5.89-6.119h3.671v-3.671h-3.671zm0 6.119h3.671v-3.671h-3.671zm5.89-6.119h3.671v-3.671h-3.671zm0 6.119h3.671v-3.671h-3.671z" fill="#FFF"></path><path fill="#5BC5EF" d="M370.347 280.546h17.058v-9.79h-17.058z"></path><path fill="#306CE6" d="M276.246 309.756h125.533v-17.975H276.246z"></path><path d="M294.291 304.44a3.672 3.672 0 1 0 0-7.344 3.672 3.672 0 0 0 0 7.344" fill="#FFF"></path><path d="M344.914 300.768a2.28 2.28 0 1 1-4.562.002 2.28 2.28 0 0 1 4.562-.002" fill="#272187"></path><path d="M352.258 300.768a2.281 2.281 0 1 1-4.562.002 2.281 2.281 0 0 1 4.562-.002m7.343 0a2.28 2.28 0 1 1-4.562.002 2.28 2.28 0 0 1 4.562-.002m-54.908-1.223h3.672v-3.671h-3.672zm0 6.119h3.672v-3.671h-3.672zm5.891-6.119h3.671v-3.671h-3.671zm0 6.119h3.671v-3.671h-3.671zm5.889-6.119h3.671v-3.671h-3.671zm0 6.119h3.671v-3.671h-3.671zm5.89-6.119h3.671v-3.671h-3.671zm0 6.119h3.671v-3.671h-3.671zm5.89-6.119h3.671v-3.671h-3.671zm0 6.119h3.671v-3.671h-3.671z" fill="#FFF"></path><path fill="#185BC6" d="M370.347 305.664h17.058v-9.79h-17.058z"></path><path fill="#306CE6" d="M276.246 334.874h125.533v-17.975H276.246z"></path><path d="M294.291 329.558a3.672 3.672 0 1 0 0-7.344 3.672 3.672 0 0 0 0 7.344" fill="#5BC5EF"></path><path d="M344.914 325.887a2.282 2.282 0 1 1-4.563 0 2.282 2.282 0 0 1 4.563 0m7.344 0a2.282 2.282 0 1 1-4.564 0 2.282 2.282 0 0 1 4.564 0m7.343 0a2.282 2.282 0 1 1-4.563 0 2.282 2.282 0 0 1 4.563 0m-54.908-1.224h3.672v-3.672h-3.672zm0 6.119h3.672v-3.671h-3.672zm5.891-6.119h3.671v-3.672h-3.671zm0 6.119h3.671v-3.671h-3.671zm5.889-6.119h3.671v-3.672h-3.671zm0 6.119h3.671v-3.671h-3.671zm5.89-6.119h3.671v-3.672h-3.671zm0 6.119h3.671v-3.671h-3.671zm5.89-6.119h3.671v-3.672h-3.671zm0 6.119h3.671v-3.671h-3.671z" fill="#FFF"></path><path fill="#272187" d="M370.347 330.782h17.058v-9.79h-17.058z"></path><path fill="#306CE6" d="M276.246 359.992h125.533v-17.975H276.246z"></path><path d="M294.291 354.676a3.672 3.672 0 1 0 0-7.344 3.672 3.672 0 0 0 0 7.344" fill="#5BC5EF"></path><path d="M344.914 351.005a2.28 2.28 0 1 1-4.562.002 2.28 2.28 0 0 1 4.562-.002m7.344 0a2.281 2.281 0 1 1-4.562.002 2.281 2.281 0 0 1 4.562-.002m7.343 0a2.28 2.28 0 1 1-4.562.002 2.28 2.28 0 0 1 4.562-.002m-54.908-1.224h3.672v-3.672h-3.672zm0 6.119h3.672v-3.671h-3.672zm5.891-6.119h3.671v-3.672h-3.671zm0 6.119h3.671v-3.671h-3.671zm5.889-6.119h3.671v-3.672h-3.671zm0 6.119h3.671v-3.671h-3.671zm5.89-6.119h3.671v-3.672h-3.671zm0 6.119h3.671v-3.671h-3.671zm5.89-6.119h3.671v-3.672h-3.671zm0 6.119h3.671v-3.671h-3.671z" fill="#FFF"></path><path fill="#5BC5EF" d="M370.347 355.9h17.058v-9.79h-17.058z"></path><path fill="#306CE6" d="M276.246 385.11h125.533v-17.975H276.246z"></path><path d="M294.291 379.795a3.672 3.672 0 1 0 0-7.344 3.672 3.672 0 0 0 0 7.344m50.623-3.672a2.28 2.28 0 1 1-4.562.002 2.28 2.28 0 0 1 4.562-.002m7.344 0a2.281 2.281 0 1 1-4.562.002 2.281 2.281 0 0 1 4.562-.002m7.343 0a2.28 2.28 0 1 1-4.562.002 2.28 2.28 0 0 1 4.562-.002m-54.908-1.224h3.672v-3.672h-3.672zm0 6.119h3.672v-3.671h-3.672zm5.891-6.119h3.671v-3.672h-3.671zm0 6.119h3.671v-3.671h-3.671zm5.889-6.119h3.671v-3.672h-3.671zm0 6.119h3.671v-3.671h-3.671zm5.89-6.119h3.671v-3.672h-3.671zm0 6.119h3.671v-3.671h-3.671zm5.89-6.119h3.671v-3.672h-3.671zm0 6.119h3.671v-3.671h-3.671zm42.094 0h17.058v-9.791h-17.058z" fill="#FFF"></path><g transform="translate(401.000000, 223.000000)"><path fill="#306CE6" d="M.046 286.486h131.628V21.017H.046z"></path><path fill="#272187" d="M18.296 286.486h95.126V251.09H18.296z"></path><path fill="#17165B" d="M23.689 261.857h84.341v-4.978H23.689zm0 9.465h84.341v-4.978H23.689zm0 9.463h84.341v-4.977H23.689z"></path><path fill="#38A8F4" d="M167.024 0H35.396L0 21.017h131.628z"></path><path fill="#185BC6" d="M167.07 0l-35.396 21.017v265.468l35.396-21.016z"></path><path fill="#272187" d="M160.938 224.024l-21.473 12.75v35.132l21.473-12.751z"></path><path fill="#4B8CF7" d="M160.938 245.904l-21.473 12.75 1.658 5.016 21.474-12.749zm0 7.294l-21.473 12.75 1.658 5.016 21.474-12.75zm0-14.587l-21.473 12.75 1.658 5.016 21.474-12.749zm0-7.293l-21.473 12.75 1.658 5.016 21.474-12.75zm0-7.294l-21.473 12.75 1.658 5.016 21.474-12.749z"></path><path fill="#272187" d="M8.894 238.922h113.931V32.227H8.894z"></path><path fill="#306CE6" d="M15.646 51.469h100.427v-14.38H15.646z"></path><path d="M33.02 44.28a2.937 2.937 0 1 1-5.875 0 2.937 2.937 0 0 1 5.875 0m37.562 0a1.825 1.825 0 1 1-3.65 0 1.825 1.825 0 0 1 3.65 0m5.874 0a1.825 1.825 0 1 1-3.65 0 1.825 1.825 0 0 1 3.65 0m5.874 0a1.825 1.825 0 1 1-3.65 0 1.825 1.825 0 0 1 3.65 0m-43.925-.98h2.937v-2.937h-2.937zm0 4.895h2.937v-2.937h-2.937zm4.711-4.895h2.938v-2.937h-2.938zm0 4.895h2.938v-2.937h-2.938zm4.712-4.895h2.938v-2.937h-2.938zm0 4.895h2.938v-2.937h-2.938zM52.54 43.3h2.938v-2.937H52.54zm0 4.895h2.938v-2.937H52.54zm4.711-4.895h2.938v-2.937h-2.938zm0 4.895h2.938v-2.937h-2.938z" fill="#FFF"></path><path fill="#185BC6" d="M90.928 48.195h13.646v-7.832H90.928z"></path><path fill="#306CE6" d="M15.646 71.563h100.427v-14.38H15.646z"></path><path d="M33.02 64.374a2.937 2.937 0 1 1-5.875 0 2.937 2.937 0 0 1 5.875 0m37.562 0a1.825 1.825 0 1 1-3.65.001 1.825 1.825 0 0 1 3.65-.001" fill="#FFF"></path><path d="M76.456 64.374a1.825 1.825 0 1 1-3.65.001 1.825 1.825 0 0 1 3.65-.001" fill="#272187"></path><path d="M82.33 64.374a1.825 1.825 0 1 1-3.65.001 1.825 1.825 0 0 1 3.65-.001m-43.925-.98h2.937v-2.937h-2.937zm0 4.896h2.937v-2.937h-2.937zm4.711-4.896h2.938v-2.937h-2.938zm0 4.896h2.938v-2.937h-2.938zm4.712-4.896h2.938v-2.937h-2.938zm0 4.896h2.938v-2.937h-2.938zm4.712-4.896h2.938v-2.937H52.54zm0 4.896h2.938v-2.937H52.54zm4.711-4.896h2.938v-2.937h-2.938zm0 4.896h2.938v-2.937h-2.938z" fill="#FFF"></path><path fill="#272187" d="M90.928 68.29h13.646v-7.833H90.928z"></path><path fill="#306CE6" d="M15.646 91.658h100.427v-14.38H15.646z"></path><path d="M33.02 84.468a2.937 2.937 0 1 1-5.875 0 2.937 2.937 0 0 1 5.875 0" fill="#5BC5EF"></path><path d="M70.582 84.468a1.825 1.825 0 1 1-3.65.002 1.825 1.825 0 0 1 3.65-.002m5.874 0a1.825 1.825 0 1 1-3.65.002 1.825 1.825 0 0 1 3.65-.002m5.874 0a1.825 1.825 0 1 1-3.65.002 1.825 1.825 0 0 1 3.65-.002m-43.925-.979h2.937v-2.938h-2.937zm0 4.896h2.937v-2.937h-2.937zm4.711-4.896h2.938v-2.938h-2.938zm0 4.896h2.938v-2.937h-2.938zm4.712-4.896h2.938v-2.938h-2.938zm0 4.896h2.938v-2.937h-2.938zm4.712-4.896h2.938v-2.938H52.54zm0 4.896h2.938v-2.937H52.54zm4.711-4.896h2.938v-2.938h-2.938zm0 4.896h2.938v-2.937h-2.938z" fill="#FFF"></path><path fill="#272187" d="M90.928 88.385h13.646v-7.833H90.928z"></path><path fill="#306CE6" d="M15.646 111.753h100.427v-14.38H15.646z"></path><path d="M33.02 104.562a2.937 2.937 0 1 1-5.875 0 2.937 2.937 0 0 1 5.875 0m37.562 0a1.825 1.825 0 1 1-3.65.002 1.825 1.825 0 0 1 3.65-.002m5.874 0a1.825 1.825 0 1 1-3.65.002 1.825 1.825 0 0 1 3.65-.002" fill="#FFF"></path><path d="M82.33 104.562a1.825 1.825 0 1 1-3.65.002 1.825 1.825 0 0 1 3.65-.002" fill="#272187"></path><path fill="#FFF" d="M38.405 103.584h2.937v-2.938h-2.937zm0 4.895h2.937v-2.937h-2.937zm4.711-4.895h2.938v-2.938h-2.938zm0 4.895h2.938v-2.937h-2.938zm4.712-4.895h2.938v-2.938h-2.938zm0 4.895h2.938v-2.937h-2.938zm4.712-4.895h2.938v-2.938H52.54zm0 4.895h2.938v-2.937H52.54zm4.711-4.895h2.938v-2.938h-2.938zm0 4.895h2.938v-2.937h-2.938z"></path><path fill="#185BC6" d="M90.928 108.479h13.646v-7.833H90.928z"></path><path fill="#306CE6" d="M15.646 131.847h100.427v-14.38H15.646z"></path><path fill="#FFF" d="M47.828 123.678h2.938v-2.937h-2.938zm0 4.896h2.938v-2.937h-2.938z"></path><path d="M33.02 124.657a2.937 2.937 0 1 1-5.875 0 2.937 2.937 0 0 1 5.875 0" fill="#5BC5EF"></path><path d="M70.582 124.657a1.825 1.825 0 1 1-3.65.002 1.825 1.825 0 0 1 3.65-.002m5.874 0a1.825 1.825 0 1 1-3.65.002 1.825 1.825 0 0 1 3.65-.002m5.874 0a1.825 1.825 0 1 1-3.65.002 1.825 1.825 0 0 1 3.65-.002m-43.925-.979h2.937v-2.937h-2.937zm0 4.896h2.937v-2.937h-2.937zm4.711-4.896h2.938v-2.937h-2.938zm0 4.896h2.938v-2.937h-2.938zm9.424-4.896h2.938v-2.937H52.54zm0 4.896h2.938v-2.937H52.54zm4.711-4.896h2.938v-2.937h-2.938zm0 4.896h2.938v-2.937h-2.938z" fill="#FFF"></path><path fill="#272187" d="M90.928 128.574h13.646v-7.833H90.928z"></path><path fill="#306CE6" d="M15.646 151.942h100.427v-14.38H15.646z"></path><path d="M33.02 144.752a2.937 2.937 0 1 1-5.875 0 2.937 2.937 0 0 1 5.875 0m37.562 0a1.825 1.825 0 1 1-3.65.002 1.825 1.825 0 0 1 3.65-.002" fill="#FFF"></path><path d="M76.456 144.752a1.825 1.825 0 1 1-3.65.002 1.825 1.825 0 0 1 3.65-.002" fill="#272187"></path><path d="M82.33 144.752a1.825 1.825 0 1 1-3.65.002 1.825 1.825 0 0 1 3.65-.002m-43.925-.979h2.937v-2.938h-2.937zm0 4.895h2.937v-2.938h-2.937zm4.711-4.895h2.938v-2.938h-2.938zm0 4.895h2.938v-2.938h-2.938zm4.712-4.895h2.938v-2.938h-2.938zm0 4.895h2.938v-2.938h-2.938zm4.712-4.895h2.938v-2.938H52.54zm0 4.895h2.938v-2.938H52.54zm4.711-4.895h2.938v-2.938h-2.938zm0 4.895h2.938v-2.938h-2.938z" fill="#FFF"></path><path fill="#185BC6" d="M90.928 148.668h13.646v-7.833H90.928z"></path><path fill="#306CE6" d="M15.646 172.036h100.427v-14.38H15.646z"></path><path d="M33.02 164.846a2.937 2.937 0 1 1-5.875 0 2.937 2.937 0 0 1 5.875 0" fill="#5BC5EF"></path><path d="M70.582 164.846a1.824 1.824 0 1 1-1.825-1.825c1.008 0 1.825.817 1.825 1.825m5.874 0a1.824 1.824 0 1 1-3.648.002 1.824 1.824 0 0 1 3.648-.002m5.874 0a1.824 1.824 0 1 1-3.648.002 1.824 1.824 0 0 1 3.648-.002m-43.925-.979h2.937v-2.937h-2.937zm0 4.895h2.937v-2.937h-2.937zm4.711-4.895h2.938v-2.937h-2.938zm0 4.895h2.938v-2.937h-2.938zm4.712-4.895h2.938v-2.937h-2.938zm0 4.895h2.938v-2.937h-2.938zm4.712-4.895h2.938v-2.937H52.54zm0 4.895h2.938v-2.937H52.54zm4.711-4.895h2.938v-2.937h-2.938zm0 4.895h2.938v-2.937h-2.938z" fill="#FFF"></path><path fill="#272187" d="M90.928 168.762h13.646v-7.832H90.928z"></path><path fill="#306CE6" d="M15.646 192.13h100.427v-14.38H15.646z"></path><path d="M33.02 184.94a2.937 2.937 0 1 1-5.875.001 2.937 2.937 0 0 1 5.875 0m37.562-.001a1.825 1.825 0 1 1-3.65.001 1.825 1.825 0 0 1 3.65 0m5.874-.001a1.825 1.825 0 1 1-3.65.001 1.825 1.825 0 0 1 3.65 0m5.874-.001a1.825 1.825 0 1 1-3.65.001 1.825 1.825 0 0 1 3.65 0m-43.925-.979h2.937v-2.938h-2.937zm0 4.895h2.937v-2.938h-2.937zm4.711-4.895h2.938v-2.938h-2.938zm0 4.895h2.938v-2.938h-2.938zm4.712-4.895h2.938v-2.938h-2.938zm0 4.895h2.938v-2.938h-2.938zm4.712-4.895h2.938v-2.938H52.54zm0 4.895h2.938v-2.938H52.54zm4.711-4.895h2.938v-2.938h-2.938zm0 4.895h2.938v-2.938h-2.938z" fill="#FFF"></path><path fill="#5BC5EF" d="M90.928 188.857h13.646v-7.833H90.928z"></path><path fill="#306CE6" d="M15.646 212.225h100.427v-14.38H15.646z"></path><path d="M33.02 205.035a2.937 2.937 0 1 1-5.875 0 2.937 2.937 0 0 1 5.875 0" fill="#5BC5EF"></path><path d="M70.582 205.035a1.825 1.825 0 1 1-3.65 0 1.825 1.825 0 0 1 3.65 0m5.874 0a1.825 1.825 0 1 1-3.65 0 1.825 1.825 0 0 1 3.65 0m5.874 0a1.825 1.825 0 1 1-3.65 0 1.825 1.825 0 0 1 3.65 0m-43.925-.979h2.937v-2.938h-2.937zm0 4.896h2.937v-2.938h-2.937zm4.711-4.896h2.938v-2.938h-2.938zm0 4.896h2.938v-2.938h-2.938zm4.712-4.896h2.938v-2.938h-2.938zm0 4.896h2.938v-2.938h-2.938zm4.712-4.896h2.938v-2.938H52.54zm0 4.896h2.938v-2.938H52.54zm4.711-4.896h2.938v-2.938h-2.938zm0 4.896h2.938v-2.938h-2.938zm33.677 0h13.646v-7.833H90.928z" fill="#FFF"></path><path fill="#306CE6" d="M15.646 232.32h100.427v-14.38H15.646z"></path><path d="M33.02 225.13a2.937 2.937 0 1 1-5.875 0 2.937 2.937 0 0 1 5.875 0m37.562 0a1.825 1.825 0 1 1-3.65 0 1.825 1.825 0 0 1 3.65 0m5.874 0a1.825 1.825 0 1 1-3.65 0 1.825 1.825 0 0 1 3.65 0" fill="#FFF"></path><path d="M82.33 225.13a1.825 1.825 0 1 1-3.65 0 1.825 1.825 0 0 1 3.65 0" fill="#272187"></path><path fill="#FFF" d="M38.405 224.151h2.937v-2.937h-2.937zm0 4.895h2.937v-2.937h-2.937zm4.711-4.895h2.938v-2.937h-2.938zm0 4.895h2.938v-2.937h-2.938zm4.712-4.895h2.938v-2.937h-2.938zm0 4.895h2.938v-2.937h-2.938zm4.712-4.895h2.938v-2.937H52.54zm0 4.895h2.938v-2.937H52.54zm4.711-4.895h2.938v-2.937h-2.938zm0 4.895h2.938v-2.937h-2.938z"></path><path fill="#185BC6" d="M90.928 229.046h13.646v-7.832H90.928z"></path></g></g><g transform="translate(555.000000, 209.000000)" fill-rule="nonzero"><path d="M28.62.857a3.852 3.852 0 0 0-1.481.392l-17.061 9.569a3.8 3.8 0 0 0-2.07 2.578L3.098 34.87a3.71 3.71 0 0 0 .54 2.929c.068.104.14.205.215.302l13.86 17.234a3.832 3.832 0 0 0 2.992 1.411h22.23a3.898 3.898 0 0 0 2.995-1.428l13.853-17.236a3.7 3.7 0 0 0 .72-3.215L55.56 13.374a3.81 3.81 0 0 0-2.07-2.578L33.461 1.251a3.852 3.852 0 0 0-1.859-.394H28.62z" fill="#185BC6"></path><path d="M28.62.857a3.852 3.852 0 0 0-1.481.392L7.078 10.818a3.8 3.8 0 0 0-2.07 2.578L.098 34.87a3.71 3.71 0 0 0 .54 2.929c.068.104.14.205.215.302l13.86 17.234a3.832 3.832 0 0 0 2.992 1.41h22.23a3.898 3.898 0 0 0 2.995-1.427l13.853-17.236a3.7 3.7 0 0 0 .72-3.215L52.56 13.374a3.81 3.81 0 0 0-2.07-2.578L30.461 1.251a3.852 3.852 0 0 0-1.859-.394h.018z" fill="#326CE5"></path><path d="M28.804 8.176a1.269 1.269 0 0 0-1.18 1.332v.338c.033.383.09.763.166 1.14.11.72.15 1.45.119 2.177-.068.24-.205.456-.392.621l-.027.508c-.73.061-1.453.173-2.166.335a15.416 15.416 0 0 0-7.837 4.473l-.432-.306a.931.931 0 0 1-.711-.072 11.196 11.196 0 0 1-1.615-1.458 9.99 9.99 0 0 0-.786-.837l-.267-.213c-.237-.19-.529-.3-.833-.315a1.152 1.152 0 0 0-.956.425 1.27 1.27 0 0 0 .295 1.77l.249.198c.32.212.651.406.993.581.638.355 1.239.77 1.797 1.26.143.204.225.443.24.691l.392.36a15.514 15.514 0 0 0-2.445 10.811l-.504.144a1.646 1.646 0 0 1-.515.518c-.703.188-1.423.307-2.149.355a10.1 10.1 0 0 0-1.152.09l-.318.072h-.036a1.206 1.206 0 0 0-.697 2.038 1.21 1.21 0 0 0 1.231.297h.024l.324-.036a9.62 9.62 0 0 0 1.076-.393 11.23 11.23 0 0 1 2.092-.612c.248.015.486.1.687.243l.54-.09a15.594 15.594 0 0 0 6.912 8.646l-.22.459c.101.21.14.444.109.676a11.592 11.592 0 0 1-1.086 1.966 9.861 9.861 0 0 0-.644.96l-.153.323a1.206 1.206 0 0 0 1.17 1.802c.452-.05.837-.351.995-.777l.15-.306c.136-.36.252-.728.345-1.098.319-.787.492-1.631.927-2.153a.972.972 0 0 1 .515-.252l.27-.492a15.516 15.516 0 0 0 11.063.027l.24.46a.937.937 0 0 1 .611.368c.339.645.612 1.32.821 2.016.095.373.212.74.35 1.1l.149.306a1.206 1.206 0 0 0 2.136.236c.247-.382.258-.87.029-1.262l-.157-.324a9.99 9.99 0 0 0-.644-.956 12.741 12.741 0 0 1-1.08-1.902.936.936 0 0 1 .122-.72 4.122 4.122 0 0 1-.2-.484 15.614 15.614 0 0 0 6.882-8.676l.511.09a.955.955 0 0 1 .672-.249c.714.137 1.414.36 2.091.612a9.02 9.02 0 0 0 1.077.414c.086.024.212.043.31.067h.023a1.206 1.206 0 0 0 1.513-1.532 1.206 1.206 0 0 0-.979-.803l-.349-.083a10.026 10.026 0 0 0-1.152-.09 10.98 10.98 0 0 1-2.15-.354c-.215-.12-.395-.3-.518-.519l-.486-.144a15.57 15.57 0 0 0-2.494-10.787l.424-.392a.948.948 0 0 1 .224-.68 11.306 11.306 0 0 1 1.782-1.254c.342-.174.673-.368.993-.581l.263-.212a1.206 1.206 0 1 0-1.492-1.874l-.267.212c-.278.264-.54.543-.786.837a11.192 11.192 0 0 1-1.572 1.482c-.23.093-.482.12-.727.079l-.455.324a15.726 15.726 0 0 0-9.963-4.806c0-.18-.024-.45-.027-.535a.945.945 0 0 1-.393-.597c-.025-.727.021-1.455.137-2.173a9.97 9.97 0 0 0 .166-1.14v-.36a1.268 1.268 0 0 0-1.18-1.331l-.015-.01zm-1.502 9.298l-.36 6.288h-.027c-.018.389-.246.72-.597.907-.351.187-.767.131-1.08-.097l-5.157-3.654a12.348 12.348 0 0 1 5.945-3.238c.421-.09.846-.159 1.273-.206h.003zm3.003 0a12.463 12.463 0 0 1 7.182 3.464l-5.109 3.63a1.058 1.058 0 0 1-1.717-.813l-.356-6.28zm-12.096 5.809l4.716 4.208v.027a1.059 1.059 0 0 1-.416 1.817v.018l-6.052 1.74c-.3-2.726.318-5.475 1.754-7.812l-.002.002zm21.155 0a12.568 12.568 0 0 1 1.804 7.789l-6.06-1.746v-.024a1.047 1.047 0 0 1-.751-.783c-.085-.38.041-.774.334-1.033l4.68-4.189-.007-.014zm-11.527 4.536h1.93l1.179 1.498-.429 1.872-1.733.833-1.737-.833-.409-1.872 1.199-1.498zm6.181 5.108c.081-.009.18-.009.243 0l6.24 1.053c-.9 2.592-2.676 4.806-4.994 6.288l-2.412-5.84a1.062 1.062 0 0 1 .916-1.474l.007-.027zm-10.481.027c.353.006.678.188.871.483.193.295.223.666.085.99v.023l-2.398 5.793a12.385 12.385 0 0 1-4.964-6.223l6.186-1.05c.069-.007.139-.007.209 0l.01-.016zm5.227 2.52c.401-.012.775.202.967.555h.023l3.05 5.502-1.22.36a12.41 12.41 0 0 1-6.764-.349l3.06-5.502c.186-.324.528-.522.9-.531l-.016-.035z" stroke="#FFF" stroke-width=".5" fill="#FFF"></path></g><g transform="translate(417.000000, 53.000000)" fill-rule="nonzero"><path d="M44.52.333a5.992 5.992 0 0 0-2.304.61L16.01 15.828a5.911 5.911 0 0 0-3.22 4.01L5.15 53.244a5.773 5.773 0 0 0 .84 4.556c.107.162.219.32.336.47l21.56 26.808a5.963 5.963 0 0 0 4.654 2.195h34.58c1.809.003 3.522-.84 4.659-2.22l21.55-26.813a5.757 5.757 0 0 0 1.12-5.001L86.76 19.804a5.926 5.926 0 0 0-3.22-4.01C63.368 6.191 52.983 1.241 52.384.946c-.897-.443-6.892-.654-7.892-.613h.028z" fill="#185BC6"></path><path d="M44.52.333a5.992 5.992 0 0 0-2.304.61L11.01 15.828a5.911 5.911 0 0 0-3.22 4.01L.15 53.244A5.773 5.773 0 0 0 .99 57.8c.107.162.219.32.336.47l21.56 26.808a5.96 5.96 0 0 0 4.654 2.195h34.58c1.809.003 3.522-.84 4.659-2.22l21.55-26.813a5.757 5.757 0 0 0 1.12-5.001L81.76 19.804a5.926 5.926 0 0 0-3.22-4.01L47.384.946a5.992 5.992 0 0 0-2.892-.613h.028z" fill="#326CE5"></path><path d="M44.806 11.718a1.974 1.974 0 0 0-1.834 2.072v.526c.05.596.14 1.187.257 1.772.172 1.121.234 2.256.185 3.388-.106.373-.32.709-.61.966l-.042.79c-1.134.095-2.26.269-3.369.52a23.98 23.98 0 0 0-12.191 6.959l-.672-.476c-.37.112-.767.07-1.106-.112a17.416 17.416 0 0 1-2.512-2.268 15.54 15.54 0 0 0-1.223-1.302l-.415-.33a2.238 2.238 0 0 0-1.296-.49 1.792 1.792 0 0 0-1.487.66 1.976 1.976 0 0 0 .46 2.753l.386.308c.497.33 1.013.632 1.545.904a16.048 16.048 0 0 1 2.795 1.96c.222.317.35.69.372 1.075l.61.56a24.132 24.132 0 0 0-3.802 16.817l-.784.224a2.56 2.56 0 0 1-.8.806 17.416 17.416 0 0 1-3.344.552c-.6.012-1.198.059-1.792.14l-.495.112h-.056a1.876 1.876 0 0 0-1.084 3.17c.5.503 1.24.682 1.915.462h.037l.504-.056a14.966 14.966 0 0 0 1.674-.61c1.05-.42 2.14-.743 3.254-.953a2.05 2.05 0 0 1 1.07.378l.84-.14a24.257 24.257 0 0 0 10.751 13.449l-.341.714c.156.327.215.691.168 1.052a18.079 18.079 0 0 1-1.689 3.058 15.73 15.73 0 0 0-1.002 1.492l-.238.504a1.876 1.876 0 0 0 1.82 2.803 1.876 1.876 0 0 0 1.548-1.21l.233-.475c.212-.56.392-1.132.537-1.708.496-1.224.765-2.537 1.442-3.35.222-.207.5-.344.801-.391l.42-.765a24.136 24.136 0 0 0 17.209.042l.372.714c.381.056.723.266.952.574a17.624 17.624 0 0 1 1.277 3.136c.148.58.33 1.152.543 1.711l.233.476a1.876 1.876 0 0 0 3.323.367c.384-.594.4-1.352.045-1.963l-.244-.504a15.54 15.54 0 0 0-1.002-1.487 19.82 19.82 0 0 1-1.68-2.96 1.456 1.456 0 0 1 .19-1.12 6.412 6.412 0 0 1-.31-.752 24.289 24.289 0 0 0 10.704-13.496l.795.14a1.49 1.49 0 0 1 1.045-.387c1.111.213 2.2.56 3.253.952.546.252 1.106.465 1.675.644.134.037.33.067.481.104h.037a1.876 1.876 0 0 0 2.354-2.383 1.876 1.876 0 0 0-1.523-1.249l-.543-.129a15.596 15.596 0 0 0-1.792-.14 17.08 17.08 0 0 1-3.343-.551 2.105 2.105 0 0 1-.807-.807l-.756-.224a24.22 24.22 0 0 0-3.88-16.78l.66-.61a1.474 1.474 0 0 1 .348-1.059 17.672 17.672 0 0 1 2.772-1.949 15.596 15.596 0 0 0 1.545-.904l.409-.33a1.876 1.876 0 1 0-2.321-2.915l-.415.33c-.432.41-.84.845-1.223 1.302a17.465 17.465 0 0 1-2.445 2.305 2.08 2.08 0 0 1-1.13.123l-.71.504a24.462 24.462 0 0 0-15.497-7.476c0-.28-.037-.7-.042-.832a1.47 1.47 0 0 1-.61-.93c-.04-1.13.032-2.262.212-3.379.12-.588.205-1.176.258-1.772v-.56a1.972 1.972 0 0 0-1.834-2.072l-.025-.014zM42.47 26.182l-.56 9.78h-.042c-.028.606-.383 1.12-.93 1.412-.545.291-1.192.204-1.68-.151l-8.021-5.684a19.208 19.208 0 0 1 9.248-5.037c.655-.14 1.316-.247 1.98-.32h.005zm4.67 0a19.387 19.387 0 0 1 11.173 5.388l-7.947 5.647a1.645 1.645 0 0 1-2.67-1.265l-.555-9.77zm-18.815 9.036l7.336 6.546v.042a1.647 1.647 0 0 1-.647 2.826v.028L25.6 47.367a19.208 19.208 0 0 1 2.728-12.152l-.003.003zm32.908 0a19.55 19.55 0 0 1 2.806 12.116l-9.428-2.716v-.037a1.63 1.63 0 0 1-1.167-1.218 1.657 1.657 0 0 1 .52-1.607l7.28-6.516-.01-.022zm-17.931 7.056h3.002l1.834 2.33-.667 2.912-2.696 1.296-2.702-1.296-.636-2.912 1.865-2.33zm9.615 7.946c.126-.014.28-.014.378 0l9.708 1.638c-1.4 4.032-4.164 7.476-7.77 9.78l-3.752-9.082a1.652 1.652 0 0 1 1.425-2.294l.011-.042zm-16.304.042a1.65 1.65 0 0 1 1.355.75c.3.46.347 1.037.132 1.54v.037l-3.73 9.01a19.266 19.266 0 0 1-7.722-9.679l9.623-1.632c.107-.012.216-.012.325 0l.017-.026zm8.131 3.92a1.652 1.652 0 0 1 1.504.863h.036l4.743 8.56-1.895.56c-3.49.797-7.132.61-10.523-.544l4.76-8.56c.289-.503.82-.811 1.4-.825l-.025-.054z" stroke="#FFF" stroke-width=".7" fill="#FFF"></path></g><g transform="translate(711.000000, 102.000000)" fill-rule="nonzero"><path d="M39.01.052c-.692.04-1.902.22-2.524.527l-23.97 12.865a5.109 5.109 0 0 0-2.784 3.466L3.131 45.783a4.99 4.99 0 0 0 .726 3.937c.092.14.188.276.29.407l18.634 23.169a5.153 5.153 0 0 0 4.022 1.897H56.69c1.563.002 3.044-.726 4.027-1.92L79.341 50.1a4.976 4.976 0 0 0 .968-4.322L73.664 16.88a5.122 5.122 0 0 0-2.783-3.466L43.954.582c-.776-.383-4.636-.565-5.5-.53h.556z" fill="#185BC6"></path><path d="M38.478.052c-.693.04-1.37.22-1.992.527L9.516 13.444a5.109 5.109 0 0 0-2.784 3.466L.131 45.783a4.99 4.99 0 0 0 .726 3.937c.092.14.188.276.29.407l18.634 23.169a5.152 5.152 0 0 0 4.022 1.897H53.69c1.563.002 3.044-.726 4.027-1.92L76.341 50.1a4.976 4.976 0 0 0 .968-4.322L70.664 16.88a5.122 5.122 0 0 0-2.783-3.466L40.954.582a5.179 5.179 0 0 0-2.5-.53h.024z" fill="#326CE5"></path><path d="M38.725 9.892a1.706 1.706 0 0 0-1.585 1.79v.455c.043.516.12 1.026.222 1.532.149.969.202 1.95.16 2.928a1.764 1.764 0 0 1-.527.835l-.037.683a21.1 21.1 0 0 0-2.911.45c-4.032.91-7.703 3-10.537 6.014l-.58-.412c-.32.097-.664.06-.956-.097a15.052 15.052 0 0 1-2.171-1.96c-.33-.395-.684-.77-1.058-1.125l-.358-.286a1.934 1.934 0 0 0-1.12-.423 1.549 1.549 0 0 0-1.285.571 1.708 1.708 0 0 0 .397 2.379l.334.266c.43.286.875.547 1.335.782a13.87 13.87 0 0 1 2.416 1.694c.191.273.303.595.321.929l.528.484a20.857 20.857 0 0 0-3.286 14.535l-.678.193c-.177.28-.411.52-.692.697-.946.253-1.913.412-2.89.477-.518.01-1.035.05-1.548.12l-.429.098h-.048a1.621 1.621 0 0 0-.937 2.739c.432.435 1.073.59 1.656.4h.031l.436-.05c.49-.144.975-.323 1.447-.527a15.11 15.11 0 0 1 2.812-.822c.334.019.653.133.924.326l.726-.12A20.965 20.965 0 0 0 28.13 57.07l-.295.617c.135.283.186.597.145.91-.4.924-.888 1.81-1.46 2.642-.313.413-.602.844-.866 1.29l-.205.436a1.621 1.621 0 0 0 1.573 2.422 1.621 1.621 0 0 0 1.338-1.045l.2-.412c.185-.484.34-.977.465-1.476.429-1.057.661-2.192 1.247-2.894.191-.18.432-.298.692-.34l.363-.66a20.86 20.86 0 0 0 14.873.037l.322.617c.33.048.624.23.823.496.455.866.823 1.774 1.103 2.71.128.502.285.995.47 1.479l.2.411a1.621 1.621 0 0 0 2.873.317 1.621 1.621 0 0 0 .039-1.696l-.21-.436a13.431 13.431 0 0 0-.867-1.285 17.13 17.13 0 0 1-1.452-2.558 1.26 1.26 0 0 1 .165-.968 5.542 5.542 0 0 1-.269-.65 20.993 20.993 0 0 0 9.252-11.665l.687.12c.247-.224.571-.343.903-.333.96.184 1.902.484 2.812.823.472.217.956.401 1.447.556.116.032.285.058.416.09h.032a1.621 1.621 0 0 0 2.035-2.06c-.2-.58-.71-.997-1.317-1.079l-.47-.111a13.48 13.48 0 0 0-1.548-.121 14.761 14.761 0 0 1-2.89-.477 1.82 1.82 0 0 1-.696-.697l-.654-.194a20.933 20.933 0 0 0-3.354-14.503l.571-.527c-.024-.332.085-.66.3-.915a15.2 15.2 0 0 1 2.396-1.684c.46-.235.906-.496 1.336-.782l.353-.285a1.621 1.621 0 1 0-2.006-2.52l-.358.286c-.374.354-.727.73-1.058 1.125a15.095 15.095 0 0 1-2.112 1.992 1.79 1.79 0 0 1-.978.106l-.612.436a21.142 21.142 0 0 0-13.395-6.461c0-.242-.031-.605-.036-.72a1.27 1.27 0 0 1-.528-.803c-.033-.977.028-1.955.184-2.92a13.66 13.66 0 0 0 .223-1.532v-.484a1.704 1.704 0 0 0-1.585-1.791l-.022-.012zm-2.018 12.501l-.484 8.453h-.037c-.024.523-.331.968-.803 1.22-.472.252-1.031.177-1.452-.13l-6.933-4.913a16.601 16.601 0 0 1 7.993-4.354 17.126 17.126 0 0 1 1.71-.276h.006zm4.036 0A16.756 16.756 0 0 1 50.4 27.05l-6.868 4.882a1.422 1.422 0 0 1-2.309-1.094l-.479-8.444zm-16.262 7.81l6.34 5.658v.036a1.424 1.424 0 0 1-.559 2.442v.024l-8.136 2.34A16.601 16.601 0 0 1 24.483 30.2l-.002.003zm28.442 0a16.897 16.897 0 0 1 2.425 10.471L47.2 38.327v-.032a1.408 1.408 0 0 1-1.01-1.053c-.113-.51.056-1.04.45-1.389l6.293-5.63-.01-.02zM37.425 36.3h2.595l1.585 2.014-.576 2.516-2.33 1.12-2.336-1.12-.55-2.516 1.612-2.014zm8.31 6.868a1.47 1.47 0 0 1 .327 0l8.39 1.416c-1.21 3.485-3.598 6.461-6.715 8.453l-3.243-7.85a1.428 1.428 0 0 1 1.232-1.983l.01-.036zm-14.091.036c.474.008.912.252 1.171.649.26.397.3.895.114 1.33v.032l-3.223 7.788a16.651 16.651 0 0 1-6.675-8.366l8.318-1.41c.092-.01.186-.01.28 0l.015-.023zm7.028 3.388a1.428 1.428 0 0 1 1.3.746h.03l4.1 7.398-1.638.484c-3.016.69-6.164.527-9.095-.47l4.114-7.398c.25-.435.71-.702 1.21-.714l-.021-.046z" stroke="#FFF" stroke-width=".605" fill="#FFF"></path></g></g></svg>