<svg xmlns="http://www.w3.org/2000/svg" viewBox="0 0 1200 800"><style>@keyframes anime-rectangle-9_o{0%{opacity:0}1.6575%{opacity:0}4.9724%{opacity:1}35.3591%{opacity:1}37.5691%{opacity:0}100%{opacity:0}}@keyframes anime-rectangle-8_o{0%{opacity:0}1.6575%{opacity:0}4.9724%{opacity:1}25.4144%{opacity:1}27.6243%{opacity:0}100%{opacity:0}}@keyframes anime-rectangle-7_o{0%{opacity:0}8.2873%{opacity:0}10.4972%{opacity:1}14.3646%{opacity:1}16.0221%{opacity:0}100%{opacity:0}}@keyframes anime-rectangle-4_o{0%{opacity:0}25.9669%{opacity:0}28.1768%{opacity:1}41.989%{opacity:1}44.1989%{opacity:0}100%{opacity:0}}@keyframes anime-rectangle-5_o{0%{opacity:0}27.6243%{opacity:0}29.8343%{opacity:1}40.3315%{opacity:1}42.5414%{opacity:0}100%{opacity:0}}@keyframes anime-rectangle-6_o{0%{opacity:0}17.1271%{opacity:0}19.337%{opacity:1}45.3039%{opacity:1}47.5138%{opacity:0}100%{opacity:0}}@keyframes anime-rectangle-14_o{0%{opacity:0}61.8785%{opacity:0}64.0884%{opacity:1}96.6851%{opacity:1}98.895%{opacity:0}100%{opacity:0}}@keyframes anime-rectangle-13_o{0%{opacity:0}43.6464%{opacity:0}45.8564%{opacity:1}96.6851%{opacity:1}98.895%{opacity:0}100%{opacity:0}}@keyframes anime-rectangle-12_o{0%{opacity:0}51.9337%{opacity:0}54.1436%{opacity:1}84.5304%{opacity:1}87.2928%{opacity:0}100%{opacity:0}}@keyframes anime-rectangle-11_o{0%{opacity:0}51.9337%{opacity:0}54.1436%{opacity:1}80.1105%{opacity:1}82.3204%{opacity:0}100%{opacity:0}}@keyframes anime-rectangle-10_o{0%{opacity:0}64.0884%{opacity:0}66.2983%{opacity:1}71.8232%{opacity:1}74.0331%{opacity:0}100%{opacity:0}}@keyframes anime-rectangle-1_o{0%{opacity:0}2.2099%{opacity:1}14.9171%{opacity:1}17.6796%{opacity:0}100%{opacity:0}}@keyframes anime-rectangle-2_o{0%{opacity:0}2.2099%{opacity:0}4.9724%{opacity:1}26.5193%{opacity:1}28.7293%{opacity:0}100%{opacity:0}}@keyframes anime-rectangle-3_o{0%{opacity:0}15.4696%{opacity:0}17.6796%{opacity:1}23.7569%{opacity:1}25.9669%{opacity:0}100%{opacity:0}}@keyframes Rectangle-34_o{0%{opacity:0}19.337%{opacity:0}21.547%{opacity:1}92.2652%{opacity:1}94.4751%{opacity:0}100%{opacity:0}}@keyframes anime-rectangle-16_o{0%{opacity:0}38.674%{opacity:0}40.884%{opacity:1}88.3978%{opacity:1}90.6077%{opacity:0}100%{opacity:0}}@keyframes anime-rectangle-15_o{0%{opacity:0}62.4309%{opacity:0}64.6409%{opacity:1}81.2155%{opacity:1}83.4254%{opacity:0}100%{opacity:0}}@keyframes Rectangle-39_o{0%{opacity:0}9.3923%{opacity:0}11.6022%{opacity:1}97.7901%{opacity:1}100%{opacity:0}}</style><g fill="none" fill-rule="evenodd"><rect fill="#111" width="1200" height="800" stroke-linecap="round" rx="10"></rect><g transform="translate(40,430)"><path stroke="#FF80CC" stroke-width="8" fill="#D5008F" d="M4 80h248v248H4z"></path><path d="M59.983 31h-4.796L48.528 7.727h5.375l3.853 16.17h.193l4.25-16.17H66.8l4.239 16.205h.204l3.852-16.205h5.375L73.812 31h-4.795l-4.432-15.216h-.182L59.983 31zm43.193-11.636q0 3.806-1.438 6.477-1.437 2.67-3.909 4.074-2.471 1.403-5.55 1.403-3.103 0-5.569-1.409-2.466-1.409-3.898-4.08-1.431-2.67-1.431-6.465 0-3.807 1.431-6.478 1.432-2.67 3.898-4.073 2.466-1.404 5.568-1.404 3.08 0 5.551 1.404 2.472 1.403 3.91 4.073 1.437 2.67 1.437 6.478zm-4.989 0q0-2.466-.733-4.16-.733-1.693-2.062-2.568-1.33-.875-3.114-.875-1.784 0-3.113.875-1.33.875-2.063 2.569-.733 1.693-.733 4.159 0 2.466.733 4.159.733 1.693 2.063 2.568t3.113.875q1.784 0 3.114-.875 1.33-.875 2.062-2.568.733-1.693.733-4.16zM111.733 31h-4.92V7.727h9.181q2.637 0 4.506.938 1.87.937 2.852 2.648.983 1.71.983 4.017 0 2.318-1 3.982-1 1.665-2.892 2.552-1.892.886-4.574.886h-6.148v-3.955h5.353q1.409 0 2.34-.386.932-.386 1.393-1.159.46-.773.46-1.92 0-1.16-.46-1.955-.46-.795-1.398-1.21-.938-.415-2.358-.415h-3.318V31zm2.34-10.59h5.308L125.165 31h-5.432l-5.66-10.59zM132.734 31h-4.92V7.727h4.92V17.99h.307l8.375-10.262h5.897l-8.636 10.42L147.415 31h-5.887l-6.375-9.568-2.42 2.954V31zm32.875 0H149.88V7.727h15.681v4.057H154.8v5.546h9.955v4.056H154.8v5.557h10.807V31zm8.795 0h-4.92V7.727h9.182q2.636 0 4.505.938 1.87.937 2.853 2.648.983 1.71.983 4.017 0 2.318-1 3.982-1 1.665-2.893 2.552-1.892.886-4.573.886h-6.148v-3.955h5.352q1.41 0 2.341-.386.932-.386 1.392-1.159.46-.773.46-1.92 0-1.16-.46-1.955-.46-.795-1.398-1.21-.937-.415-2.358-.415h-3.318V31zm2.341-10.59h5.307L187.835 31h-5.432l-5.659-10.59zm22.102 10.908q-2.409 0-4.29-.886-1.88-.887-2.982-2.443-1.103-1.557-1.148-3.569h4.773q.08 1.353 1.136 2.194 1.057.84 2.511.84 1.16 0 2.052-.517.892-.517 1.397-1.443.506-.926.506-2.13 0-1.228-.517-2.16-.517-.931-1.426-1.454-.91-.523-2.08-.534-1.022 0-1.983.42-.96.42-1.494 1.148L190.926 20l1.102-12.273h14.228v4.023h-10.17l-.603 5.83h.136q.614-.864 1.852-1.432 1.24-.568 2.773-.568 2.102 0 3.75.988 1.648.989 2.602 2.71.955 1.722.944 3.96.011 2.353-1.086 4.177-1.096 1.824-3.056 2.863-1.96 1.04-4.552 1.04z" fill="#FFF" fill-rule="nonzero"></path><path fill="#19A974" d="M16 140h32v32H16zm48 0h32v32H64zm48 0h32v32h-32zm48 0h32v32h-32zm48 0h32v32h-32zM16 92h32v32H16zm48 0h32v32H64zm48 0h32v32h-32zm48 0h32v32h-32zm48 0h32v32h-32z"></path><path id="anime-rectangle-9" fill="#19A974" opacity="0" transform="translate(0,0) translate(16,188)" style="animation:18.1s linear infinite both anime-rectangle-9_o" d="M0 0h32v32H0z"></path><path id="anime-rectangle-8" fill="#19A974" opacity="0" transform="translate(0,0) translate(64,188)" style="animation:18.1s linear infinite both anime-rectangle-8_o" d="M0 0h32v32H0z"></path><path id="anime-rectangle-7" fill="#19A974" opacity="0" transform="translate(0,0) translate(112,188)" style="animation:18.1s linear infinite both anime-rectangle-7_o" d="M0 0h32v32H0z"></path></g><g transform="translate(328,430)"><path stroke="#FF80CC" stroke-width="8" fill="#D5008F" d="M4 80h248v248H4z"></path><path d="M59.733 31h-4.796L48.278 7.727h5.375l3.853 16.17h.193l4.25-16.17h4.602l4.239 16.205h.204l3.852-16.205h5.375L73.562 31h-4.795l-4.432-15.216h-.182L59.733 31zm43.193-11.636q0 3.806-1.438 6.477-1.437 2.67-3.909 4.074-2.471 1.403-5.55 1.403-3.103 0-5.569-1.409-2.466-1.409-3.898-4.08-1.431-2.67-1.431-6.465 0-3.807 1.431-6.478 1.432-2.67 3.898-4.073 2.466-1.404 5.568-1.404 3.08 0 5.551 1.404 2.472 1.403 3.91 4.073 1.437 2.67 1.437 6.478zm-4.989 0q0-2.466-.733-4.16-.733-1.693-2.062-2.568-1.33-.875-3.114-.875-1.784 0-3.113.875-1.33.875-2.063 2.569-.733 1.693-.733 4.159 0 2.466.733 4.159.733 1.693 2.063 2.568t3.113.875q1.784 0 3.114-.875 1.33-.875 2.062-2.568.733-1.693.733-4.16zM111.483 31h-4.92V7.727h9.181q2.637 0 4.506.938 1.87.937 2.852 2.648.983 1.71.983 4.017 0 2.318-1 3.982-1 1.665-2.892 2.552-1.892.886-4.574.886h-6.148v-3.955h5.353q1.409 0 2.34-.386.932-.386 1.393-1.159.46-.773.46-1.92 0-1.16-.46-1.955-.46-.795-1.398-1.21-.938-.415-2.358-.415h-3.318V31zm2.34-10.59h5.308L124.915 31h-5.432l-5.66-10.59zM132.484 31h-4.92V7.727h4.92V17.99h.307l8.375-10.262h5.897l-8.636 10.42L147.165 31h-5.887l-6.375-9.568-2.42 2.954V31zm32.875 0H149.63V7.727h15.681v4.057H154.55v5.546h9.955v4.056h-9.955v5.557h10.807V31zm8.795 0h-4.92V7.727h9.182q2.636 0 4.505.938 1.87.937 2.853 2.648.983 1.71.983 4.017 0 2.318-1 3.982-1 1.665-2.893 2.552-1.892.886-4.573.886h-6.148v-3.955h5.352q1.41 0 2.341-.386.932-.386 1.392-1.159.46-.773.46-1.92 0-1.16-.46-1.955-.46-.795-1.398-1.21-.937-.415-2.358-.415h-3.318V31zm2.341-10.59h5.307L187.585 31h-5.432l-5.659-10.59zm22.534 10.908q-1.795-.011-3.46-.602t-2.977-1.92q-1.313-1.33-2.08-3.523-.767-2.193-.778-5.387.011-2.954.676-5.284.665-2.33 1.909-3.949 1.244-1.619 2.983-2.466 1.739-.846 3.898-.846 2.33 0 4.113.909 1.784.91 2.87 2.466 1.085 1.557 1.312 3.511h-4.852q-.284-1.272-1.193-1.971-.91-.7-2.25-.7-2.273 0-3.45 1.984-1.175 1.983-1.198 5.437h.16q.522-1.034 1.414-1.767.892-.733 2.034-1.125t2.415-.392q2.068 0 3.682.972 1.613.971 2.545 2.665.932 1.693.932 3.875 0 2.363-1.097 4.204-1.096 1.841-3.057 2.88-1.96 1.04-4.55 1.03zm-.022-3.863q1.136 0 2.034-.546.897-.545 1.409-1.477.511-.932.511-2.091 0-1.16-.506-2.08-.505-.92-1.392-1.466-.886-.545-2.022-.545-.853 0-1.574.318-.722.318-1.262.887-.54.568-.846 1.312-.307.744-.307 1.585 0 1.125.517 2.057.517.932 1.41 1.489.891.557 2.028.557z" fill="#FFF" fill-rule="nonzero"></path><path id="anime-rectangle-4" fill="#19A974" opacity="0" transform="translate(0,0) translate(16,140)" style="animation:18.1s linear infinite both anime-rectangle-4_o" d="M0 0h32v32H0z"></path><path id="anime-rectangle-5" fill="#19A974" opacity="0" transform="translate(0,0) translate(64,140)" style="animation:18.1s linear infinite both anime-rectangle-5_o" d="M0 0h32v32H0z"></path><path fill="#19A974" d="M16 92h32v32H16zm48 0h32v32H64zm48 0h32v32h-32zm48 0h32v32h-32z"></path><path id="anime-rectangle-6" fill="#19A974" opacity="0" transform="translate(0,0) translate(208,92)" style="animation:18.1s linear infinite both anime-rectangle-6_o" d="M0 0h32v32H0z"></path></g><g transform="translate(617,430)"><path stroke="#FF80CC" stroke-width="8" fill="#D5008F" d="M4 80h248v248H4z"></path><path d="M60.779 31h-4.796L49.324 7.727H54.7l3.853 16.17h.193l4.25-16.17h4.602l4.239 16.205h.204l3.852-16.205h5.375L74.608 31h-4.795L65.38 15.784h-.18L60.78 31zm43.193-11.636q0 3.806-1.438 6.477-1.437 2.67-3.909 4.074-2.471 1.403-5.55 1.403-3.103 0-5.569-1.409-2.466-1.409-3.898-4.08-1.431-2.67-1.431-6.465 0-3.807 1.431-6.478 1.432-2.67 3.898-4.073 2.466-1.404 5.568-1.404 3.08 0 5.551 1.404 2.472 1.403 3.91 4.073 1.437 2.67 1.437 6.478zm-4.989 0q0-2.466-.733-4.16-.733-1.693-2.062-2.568-1.33-.875-3.114-.875-1.784 0-3.113.875-1.33.875-2.063 2.569-.733 1.693-.733 4.159 0 2.466.733 4.159.733 1.693 2.063 2.568t3.113.875q1.784 0 3.114-.875 1.33-.875 2.062-2.568.733-1.693.733-4.16zM112.53 31h-4.92V7.727h9.181q2.637 0 4.506.938 1.87.937 2.852 2.648.983 1.71.983 4.017 0 2.318-1 3.982-1 1.665-2.892 2.552-1.892.886-4.574.886h-6.148v-3.955h5.353q1.409 0 2.34-.386.932-.386 1.393-1.159.46-.773.46-1.92 0-1.16-.46-1.955-.46-.795-1.398-1.21-.938-.415-2.358-.415h-3.318V31zm2.34-10.59h5.308L125.96 31h-5.432l-5.66-10.59zM133.53 31h-4.92V7.727h4.92V17.99h.307l8.375-10.262h5.897l-8.636 10.42L148.211 31h-5.887l-6.375-9.568-2.42 2.954V31zm32.875 0h-15.727V7.727h15.681v4.057h-10.761v5.546h9.955v4.056h-9.955v5.557h10.807V31zm8.795 0h-4.92V7.727h9.182q2.636 0 4.505.938 1.87.937 2.853 2.648.983 1.71.983 4.017 0 2.318-1 3.982-1 1.665-2.892 2.552-1.893.886-4.574.886h-6.148v-3.955h5.352q1.41 0 2.341-.386.932-.386 1.392-1.159.46-.773.46-1.92 0-1.16-.46-1.955-.46-.795-1.398-1.21-.937-.415-2.358-.415H175.2V31zm2.341-10.59h5.307L188.631 31H183.2l-5.659-10.59zM197.142 31h-5.08l9.649-19.09v-.16h-11.239V7.727h16.33v4.08L197.142 31z" fill="#FFF" fill-rule="nonzero"></path><path fill="#19A974" d="M16 92h32v32H16z"></path><path id="anime-rectangle-14" fill="#19A974" opacity="0" transform="translate(0,0) translate(64,92)" style="animation:18.1s linear infinite both anime-rectangle-14_o" d="M0 0h32v32H0z"></path></g><g transform="translate(905,430)"><path stroke="#FF80CC" stroke-width="8" fill="#D5008F" d="M4 80h248v248H4z"></path><path d="M59.724 31h-4.796L48.27 7.727h5.375l3.853 16.17h.193l4.25-16.17h4.602l4.239 16.205h.204l3.852-16.205h5.375L73.553 31h-4.795l-4.432-15.216h-.182L59.724 31zm43.193-11.636q0 3.806-1.438 6.477-1.437 2.67-3.909 4.074-2.471 1.403-5.55 1.403-3.103 0-5.569-1.409-2.466-1.409-3.898-4.08-1.431-2.67-1.431-6.465 0-3.807 1.431-6.478 1.432-2.67 3.898-4.073 2.466-1.404 5.568-1.404 3.08 0 5.551 1.404 2.472 1.403 3.91 4.073 1.437 2.67 1.437 6.478zm-4.989 0q0-2.466-.733-4.16-.733-1.693-2.062-2.568-1.33-.875-3.114-.875-1.784 0-3.113.875-1.33.875-2.063 2.569-.733 1.693-.733 4.159 0 2.466.733 4.159.733 1.693 2.063 2.568t3.113.875q1.784 0 3.114-.875 1.33-.875 2.062-2.568.733-1.693.733-4.16zM111.474 31h-4.92V7.727h9.181q2.637 0 4.506.938 1.87.937 2.852 2.648.983 1.71.983 4.017 0 2.318-1 3.982-1 1.665-2.892 2.552-1.892.886-4.574.886h-6.148v-3.955h5.353q1.409 0 2.34-.386.932-.386 1.393-1.159.46-.773.46-1.92 0-1.16-.46-1.955-.46-.795-1.398-1.21-.938-.415-2.358-.415h-3.318V31zm2.34-10.59h5.308L124.906 31h-5.432l-5.66-10.59zM132.475 31h-4.92V7.727h4.92V17.99h.307l8.375-10.262h5.897l-8.636 10.42L147.156 31h-5.887l-6.375-9.568-2.42 2.954V31zm32.875 0h-15.727V7.727h15.681v4.057h-10.761v5.546h9.955v4.056h-9.955v5.557h10.807V31zm8.795 0h-4.92V7.727h9.182q2.636 0 4.505.938 1.87.937 2.853 2.648.983 1.71.983 4.017 0 2.318-1 3.982-1 1.665-2.893 2.552-1.892.886-4.573.886h-6.148v-3.955h5.352q1.41 0 2.341-.386.932-.386 1.392-1.159.46-.773.46-1.92 0-1.16-.46-1.955-.46-.795-1.398-1.21-.937-.415-2.358-.415h-3.318V31zm2.341-10.59h5.307L187.576 31h-5.432l-5.659-10.59zm22.284 10.908q-2.625 0-4.665-.858t-3.198-2.346q-1.16-1.489-1.16-3.375 0-1.455.665-2.677.665-1.221 1.813-2.034 1.148-.812 2.568-1.04v-.158q-1.864-.375-3.023-1.813-1.159-1.437-1.159-3.347 0-1.806 1.057-3.221t2.903-2.227q1.847-.813 4.2-.813 2.352 0 4.198.818 1.847.818 2.904 2.233 1.056 1.415 1.068 3.21-.012 1.92-1.182 3.353-1.17 1.432-3 1.807v.159q1.398.227 2.54 1.04 1.142.812 1.818 2.034.676 1.221.687 2.676-.011 1.886-1.17 3.375-1.16 1.488-3.199 2.346-2.04.858-4.665.858zm0-3.613q1.17 0 2.046-.427.875-.426 1.369-1.181.494-.756.494-1.745 0-1.011-.511-1.79-.511-.778-1.386-1.227-.875-.449-2.012-.449-1.125 0-2.011.45-.886.448-1.392 1.227-.506.778-.506 1.79 0 .988.489 1.744.488.755 1.375 1.181.886.427 2.045.427zm0-10.398q.978 0 1.739-.398.761-.398 1.193-1.102.432-.705.432-1.625 0-.91-.432-1.597-.432-.687-1.182-1.08-.75-.391-1.75-.391-.988 0-1.75.392-.761.392-1.187 1.08-.426.687-.426 1.596 0 .92.431 1.625.432.704 1.194 1.102.761.398 1.738.398z" fill="#FFF" fill-rule="nonzero"></path><path fill="#19A974" d="M16 140h32v32H16z"></path><path id="anime-rectangle-13" fill="#19A974" opacity="0" transform="translate(0,0) translate(64,140)" style="animation:18.1s linear infinite both anime-rectangle-13_o" d="M0 0h32v32H0z"></path><path id="anime-rectangle-12" fill="#19A974" opacity="0" transform="translate(0,0) translate(112,140)" style="animation:18.1s linear infinite both anime-rectangle-12_o" d="M0 0h32v32H0z"></path><path id="anime-rectangle-11" fill="#19A974" opacity="0" transform="translate(0,0) translate(160,140)" style="animation:18.1s linear infinite both anime-rectangle-11_o" d="M0 0h32v32H0z"></path><path id="anime-rectangle-10" fill="#19A974" opacity="0" transform="translate(0,0) translate(208,140)" style="animation:18.1s linear infinite both anime-rectangle-10_o" d="M0 0h32v32H0z"></path><path fill="#19A974" d="M16 92h32v32H16zm48 0h32v32H64zm48 0h32v32h-32zm48 0h32v32h-32zm48 0h32v32h-32z"></path></g><g transform="translate(40,48)"><path stroke="#FF80CC" stroke-width="8" fill="#D5008F" d="M4 80h248v248H4z"></path><path d="M62.47 31h-4.796L51.015 7.727h5.375l3.853 16.17h.193l4.25-16.17h4.602l4.239 16.205h.204l3.852-16.205h5.375L76.3 31h-4.795l-4.432-15.216h-.182L62.47 31zm43.193-11.636q0 3.806-1.438 6.477-1.437 2.67-3.909 4.074-2.471 1.403-5.55 1.403-3.103 0-5.569-1.409-2.466-1.409-3.898-4.08-1.431-2.67-1.431-6.465 0-3.807 1.431-6.478 1.432-2.67 3.898-4.073 2.466-1.404 5.568-1.404 3.08 0 5.551 1.404 2.472 1.403 3.91 4.073 1.437 2.67 1.437 6.478zm-4.989 0q0-2.466-.733-4.16-.733-1.693-2.062-2.568-1.33-.875-3.114-.875-1.784 0-3.113.875-1.33.875-2.063 2.569-.733 1.693-.733 4.159 0 2.466.733 4.159.733 1.693 2.063 2.568t3.113.875q1.784 0 3.114-.875 1.33-.875 2.062-2.568.733-1.693.733-4.16zM114.22 31h-4.92V7.727h9.181q2.637 0 4.506.938 1.87.937 2.852 2.648.983 1.71.983 4.017 0 2.318-1 3.982-1 1.665-2.892 2.552-1.892.886-4.574.886h-6.148v-3.955h5.353q1.409 0 2.34-.386.932-.386 1.393-1.159.46-.773.46-1.92 0-1.16-.46-1.955-.46-.795-1.398-1.21-.938-.415-2.358-.415h-3.318V31zm2.34-10.59h5.308L127.652 31h-5.432l-5.66-10.59zM135.22 31h-4.92V7.727h4.92V17.99h.307l8.375-10.262h5.897l-8.636 10.42L149.902 31h-5.887l-6.375-9.568-2.42 2.954V31zm32.875 0h-15.727V7.727h15.681v4.057h-10.761v5.546h9.955v4.056h-9.955v5.557h10.807V31zm8.795 0h-4.92V7.727h9.182q2.636 0 4.505.938 1.87.937 2.853 2.648.983 1.71.983 4.017 0 2.318-1 3.982-1 1.665-2.892 2.552-1.893.886-4.574.886h-6.148v-3.955h5.352q1.41 0 2.341-.386.932-.386 1.392-1.159.46-.773.46-1.92 0-1.16-.46-1.955-.46-.795-1.398-1.21-.937-.415-2.358-.415h-3.318V31zm2.341-10.59h5.307L190.322 31h-5.432l-5.659-10.59zm19.102-12.683h4.625V31h-4.92V12.398h-.136l-5.33 3.34v-4.363l5.761-3.648z" fill="#FFF" fill-rule="nonzero"></path><path fill="#19A974" d="M16 92h32v32H16z"></path></g><g transform="translate(328,48)"><path stroke="#FF80CC" stroke-width="8" fill="#D5008F" d="M4 80h248v248H4z"></path><path d="M60.22 31h-4.796L48.765 7.727h5.375l3.853 16.17h.193l4.25-16.17h4.602l4.239 16.205h.204l3.852-16.205h5.375L74.05 31h-4.795l-4.432-15.216h-.182L60.22 31zm43.193-11.636q0 3.806-1.438 6.477-1.437 2.67-3.909 4.074-2.471 1.403-5.55 1.403-3.103 0-5.569-1.409-2.466-1.409-3.898-4.08-1.431-2.67-1.431-6.465 0-3.807 1.431-6.478 1.432-2.67 3.898-4.073 2.466-1.404 5.568-1.404 3.08 0 5.551 1.404 2.472 1.403 3.91 4.073 1.437 2.67 1.437 6.478zm-4.989 0q0-2.466-.733-4.16-.733-1.693-2.062-2.568-1.33-.875-3.114-.875-1.784 0-3.113.875-1.33.875-2.063 2.569-.733 1.693-.733 4.159 0 2.466.733 4.159.733 1.693 2.063 2.568t3.113.875q1.784 0 3.114-.875 1.33-.875 2.062-2.568.733-1.693.733-4.16zM111.97 31h-4.92V7.727h9.181q2.637 0 4.506.938 1.87.937 2.852 2.648.983 1.71.983 4.017 0 2.318-1 3.982-1 1.665-2.892 2.552-1.892.886-4.574.886h-6.148v-3.955h5.353q1.409 0 2.34-.386.932-.386 1.393-1.159.46-.773.46-1.92 0-1.16-.46-1.955-.46-.795-1.398-1.21-.938-.415-2.358-.415h-3.318V31zm2.34-10.59h5.308L125.402 31h-5.432l-5.66-10.59zM132.97 31h-4.92V7.727h4.92V17.99h.307l8.375-10.262h5.897l-8.636 10.42L147.652 31h-5.887l-6.375-9.568-2.42 2.954V31zm32.875 0h-15.727V7.727h15.681v4.057h-10.761v5.546h9.955v4.056h-9.955v5.557h10.807V31zm8.795 0h-4.92V7.727h9.182q2.636 0 4.505.938 1.87.937 2.853 2.648.983 1.71.983 4.017 0 2.318-1 3.982-1 1.665-2.892 2.552-1.893.886-4.574.886h-6.148v-3.955h5.352q1.41 0 2.341-.386.932-.386 1.392-1.159.46-.773.46-1.92 0-1.16-.46-1.955-.46-.795-1.398-1.21-.937-.415-2.358-.415h-3.318V31zm2.341-10.59h5.307L188.072 31h-5.432l-5.659-10.59zM207.174 31h-16.59v-3.545l8.284-7.67q1.056-1.024 1.778-1.842.722-.818 1.097-1.608.375-.79.375-1.71 0-1.023-.466-1.767t-1.273-1.148q-.807-.403-1.83-.403-1.068 0-1.863.432-.796.431-1.228 1.238-.431.807-.431 1.92h-4.67q0-2.283 1.033-3.965 1.034-1.682 2.898-2.602 1.864-.92 4.295-.92 2.5 0 4.358.88 1.858.88 2.892 2.437 1.035 1.557 1.035 3.568 0 1.319-.517 2.603-.518 1.284-1.836 2.846-1.318 1.563-3.716 3.745l-3.397 3.33v.158h9.772V31z" fill="#FFF" fill-rule="nonzero"></path><path fill="#19A974" d="M16 92h32v32H16zm48 0h32v32H64z"></path><path id="anime-rectangle-1" fill="#19A974" opacity="0" transform="translate(0,0) translate(112,92)" style="animation:18.1s linear infinite both anime-rectangle-1_o" d="M0 0h32v32H0z"></path></g><g transform="translate(617,48)"><path stroke="#FF80CC" stroke-width="8" fill="#D5008F" d="M4 80h248v248H4z"></path><path d="M59.747 31H54.95L48.292 7.727h5.375l3.853 16.17h.193l4.25-16.17h4.602l4.239 16.205h.204L74.86 7.727h5.375L73.576 31h-4.795l-4.432-15.216h-.182L59.747 31zm43.193-11.636q0 3.806-1.438 6.477-1.437 2.67-3.909 4.074-2.471 1.403-5.55 1.403-3.103 0-5.569-1.409-2.466-1.409-3.898-4.08-1.431-2.67-1.431-6.465 0-3.807 1.431-6.478 1.432-2.67 3.898-4.073 2.466-1.404 5.568-1.404 3.08 0 5.551 1.404 2.472 1.403 3.91 4.073 1.437 2.67 1.437 6.478zm-4.989 0q0-2.466-.733-4.16-.733-1.693-2.062-2.568-1.33-.875-3.114-.875-1.784 0-3.113.875-1.33.875-2.063 2.569-.733 1.693-.733 4.159 0 2.466.733 4.159.733 1.693 2.063 2.568t3.113.875q1.784 0 3.114-.875 1.33-.875 2.062-2.568.733-1.693.733-4.16zM111.497 31h-4.92V7.727h9.181q2.637 0 4.506.938 1.87.937 2.852 2.648.983 1.71.983 4.017 0 2.318-1 3.982-1 1.665-2.892 2.552-1.892.886-4.574.886h-6.148v-3.955h5.353q1.409 0 2.34-.386.932-.386 1.393-1.159.46-.773.46-1.92 0-1.16-.46-1.955-.46-.795-1.398-1.21-.938-.415-2.358-.415h-3.318V31zm2.34-10.59h5.308L124.929 31h-5.432l-5.66-10.59zM132.498 31h-4.92V7.727h4.92V17.99h.307l8.375-10.262h5.897l-8.636 10.42L147.179 31h-5.887l-6.375-9.568-2.42 2.954V31zm32.875 0h-15.727V7.727h15.681v4.057h-10.761v5.546h9.955v4.056h-9.955v5.557h10.807V31zm8.795 0h-4.92V7.727h9.182q2.636 0 4.505.938 1.87.937 2.853 2.648.983 1.71.983 4.017 0 2.318-1 3.982-1 1.665-2.893 2.552-1.892.886-4.573.886h-6.148v-3.955h5.352q1.41 0 2.341-.386.932-.386 1.392-1.159.46-.773.46-1.92 0-1.16-.46-1.955-.46-.795-1.398-1.21-.937-.415-2.358-.415h-3.318V31zm2.341-10.59h5.307L187.599 31h-5.432l-5.659-10.59zm22.205 10.908q-2.546 0-4.529-.88-1.983-.881-3.125-2.432t-1.176-3.586h4.955q.045.853.562 1.495.517.642 1.38.994.865.352 1.944.352 1.125 0 1.989-.397.863-.398 1.352-1.103.489-.704.489-1.625 0-.931-.517-1.653t-1.478-1.13q-.96-.41-2.278-.41h-2.17V17.33h2.17q1.114 0 1.971-.387.858-.386 1.336-1.074.477-.687.477-1.608 0-.875-.415-1.54-.415-.664-1.159-1.04-.744-.374-1.733-.374-1 0-1.83.358-.829.358-1.329 1.017-.5.659-.534 1.545h-4.716q.034-2.011 1.148-3.545 1.113-1.534 3.005-2.404 1.893-.869 4.279-.869 2.409 0 4.216.875 1.807.875 2.812 2.358 1.006 1.483.995 3.324.011 1.954-1.21 3.261-1.222 1.307-3.177 1.66v.181q2.568.33 3.915 1.779 1.347 1.448 1.335 3.619.012 1.989-1.142 3.534-1.153 1.545-3.176 2.432-2.023.886-4.636.886z" fill="#FFF" fill-rule="nonzero"></path><path id="anime-rectangle-2" fill="#19A974" opacity="0" transform="translate(0,0) translate(16,92)" style="animation:18.1s linear infinite both anime-rectangle-2_o" d="M0 0h32v32H0z"></path><path id="anime-rectangle-3" fill="#19A974" opacity="0" transform="translate(0,0) translate(64,92)" style="animation:18.1s linear infinite both anime-rectangle-3_o" d="M0 0h32v32H0z"></path></g><g transform="translate(905,48)"><path stroke="#FF80CC" stroke-width="8" fill="#D5008F" d="M4 80h248v248H4z"></path><path d="M59.45 31h-4.795L47.996 7.727h5.375l3.853 16.17h.193l4.25-16.17h4.602l4.239 16.205h.204l3.852-16.205h5.375L73.28 31h-4.795l-4.432-15.216h-.182L59.451 31zm43.194-11.636q0 3.806-1.438 6.477-1.437 2.67-3.909 4.074-2.471 1.403-5.55 1.403-3.103 0-5.569-1.409-2.466-1.409-3.898-4.08-1.431-2.67-1.431-6.465 0-3.807 1.431-6.478 1.432-2.67 3.898-4.073 2.466-1.404 5.568-1.404 3.08 0 5.551 1.404 2.472 1.403 3.91 4.073 1.437 2.67 1.437 6.478zm-4.989 0q0-2.466-.733-4.16-.733-1.693-2.062-2.568-1.33-.875-3.114-.875-1.784 0-3.113.875-1.33.875-2.063 2.569-.733 1.693-.733 4.159 0 2.466.733 4.159.733 1.693 2.063 2.568t3.113.875q1.784 0 3.114-.875 1.33-.875 2.062-2.568.733-1.693.733-4.16zM111.201 31h-4.92V7.727h9.181q2.637 0 4.506.938 1.87.937 2.852 2.648.983 1.71.983 4.017 0 2.318-1 3.982-1 1.665-2.892 2.552-1.892.886-4.574.886h-6.148v-3.955h5.353q1.409 0 2.34-.386.932-.386 1.393-1.159.46-.773.46-1.92 0-1.16-.46-1.955-.46-.795-1.398-1.21-.938-.415-2.358-.415h-3.318V31zm2.34-10.59h5.308L124.633 31H119.2l-5.66-10.59zM132.202 31h-4.92V7.727h4.92V17.99h.307l8.375-10.262h5.897l-8.636 10.42L146.883 31h-5.887l-6.375-9.568-2.42 2.954V31zm32.875 0H149.35V7.727h15.681v4.057H154.27v5.546h9.955v4.056h-9.955v5.557h10.807V31zm8.795 0h-4.92V7.727h9.182q2.636 0 4.505.938 1.87.937 2.853 2.648.983 1.71.983 4.017 0 2.318-1 3.982-1 1.665-2.892 2.552-1.893.886-4.574.886h-6.148v-3.955h5.352q1.41 0 2.341-.386.932-.386 1.392-1.159.46-.773.46-1.92 0-1.16-.46-1.955-.46-.795-1.398-1.21-.937-.415-2.358-.415h-3.318V31zm2.341-10.59h5.307L187.303 31h-5.432l-5.659-10.59zm32.012 6.5h-18.762v-3.876l9.716-15.307h3.341v5.364h-1.977l-6.125 9.693v.182h13.807v3.943zM205.337 31h-4.704v-5.273l.09-1.716V7.727h4.614V31z" fill="#FFF" fill-rule="nonzero"></path><path fill="#19A974" opacity="0" style="animation:18.1s linear infinite both Rectangle-34_o" d="M16 140h32v32H16z"></path><path id="anime-rectangle-16" fill="#19A974" opacity="0" transform="translate(0,0) translate(64,140)" style="animation:18.1s linear infinite both anime-rectangle-16_o" d="M0 0h32v32H0z"></path><path id="anime-rectangle-15" fill="#19A974" opacity="0" transform="translate(0,0) translate(112,140)" style="animation:18.1s linear infinite both anime-rectangle-15_o" d="M0 0h32v32H0z"></path><path fill="#19A974" d="M16 92h32v32H16zm48 0h32v32H64zm48 0h32v32h-32zm48 0h32v32h-32z"></path><path fill="#19A974" opacity="0" style="animation:18.1s linear infinite both Rectangle-39_o" d="M208 92h32v32h-32z"></path></g></g></svg>