<svg viewBox="0 0 1200 800" xmlns="http://www.w3.org/2000/svg"><g fill="none" fill-rule="evenodd"><path fill="#111" d="M0 0h1200v800H0z"></path><g transform="translate(109.340906, 323.358209) rotate(-12.000000) translate(-109.340906, -323.358209) translate(-18.659094, 157.358209)"><path stroke="#FF80CC" stroke-width="8" fill="#D5008F" d="M4 80h248v248H4z"></path><path d="M61.765 31h-4.159L51.038 7.727h4.534l4.193 17.103h.216l4.477-17.103h4.125l4.49 17.114h.204L77.47 7.727h4.534L75.436 31h-4.16l-4.658-16.33h-.182L61.766 31zm42.716-11.636q0 3.761-1.403 6.437-1.404 2.676-3.818 4.097-2.415 1.42-5.472 1.42-3.057 0-5.472-1.426-2.414-1.426-3.818-4.102-1.403-2.676-1.403-6.426 0-3.762 1.403-6.438 1.404-2.676 3.818-4.096 2.415-1.42 5.472-1.42 3.057 0 5.472 1.42 2.414 1.42 3.818 4.096 1.403 2.676 1.403 6.438zm-4.238 0q0-2.648-.824-4.472-.824-1.824-2.279-2.761-1.454-.938-3.352-.938t-3.352.938q-1.455.937-2.279 2.761-.824 1.824-.824 4.472 0 2.647.824 4.471.824 1.824 2.279 2.762 1.454.937 3.352.937t3.352-.937q1.455-.938 2.279-2.762.824-1.824.824-4.471zM112.697 31h-4.216V7.727h8.727q2.682 0 4.506.932 1.824.932 2.761 2.608.938 1.676.938 3.903 0 2.24-.949 3.881-.949 1.642-2.79 2.534-1.84.892-4.522.892h-6.216v-3.5h5.647q1.569 0 2.569-.437 1-.438 1.483-1.284.483-.847.483-2.086 0-1.238-.49-2.119-.488-.88-1.488-1.34-1-.461-2.58-.461h-3.863V31zm3.205-10.545h4.602L126.265 31h-4.704l-5.66-10.545zM133.515 31H129.3V7.727h4.216V18.42h.284l9.08-10.693h5.148l-9 10.443 9.08 12.83h-5.069l-6.943-9.977-2.58 3.045V31zm32.67 0h-15.227V7.727h15.137v3.534h-10.92v6.319h10.136v3.534h-10.137v6.352h11.012V31zm8.433 0h-4.216V7.727h8.727q2.682 0 4.506.932 1.823.932 2.761 2.608.937 1.676.937 3.903 0 2.24-.948 3.881-.95 1.642-2.79 2.534-1.841.892-4.523.892h-6.216v-3.5h5.648q1.568 0 2.568-.437 1-.438 1.483-1.284.483-.847.483-2.086 0-1.238-.489-2.119-.488-.88-1.488-1.34-1-.461-2.58-.461h-3.863V31zm3.204-10.545h4.602L188.186 31h-4.705l-5.659-10.545zm18.625-12.728h4.011V31h-4.215V11.83h-.137l-5.443 3.477v-3.864l5.784-3.716z" fill="#FFF" fill-rule="nonzero"></path><path fill="#19A974" d="M16 140h32v32H16zm0-48h32v32H16zm48 0h32v32H64zm48 0h32v32h-32zm48 0h32v32h-32zm48 0h32v32h-32z"></path></g><g transform="translate(437.998500, 253.499881) rotate(-12.000000) translate(-437.998500, -253.499881) translate(309.998500, 87.499881)"><path stroke="#FF80CC" stroke-width="8" fill="#D5008F" d="M4 80h248v248H4z"></path><path d="M59.515 31h-4.159L48.788 7.727h4.534l4.193 17.103h.216l4.477-17.103h4.125l4.49 17.114h.204L75.22 7.727h4.534L73.186 31h-4.16l-4.658-16.33h-.182L59.516 31zm42.716-11.636q0 3.761-1.403 6.437-1.404 2.676-3.818 4.097-2.415 1.42-5.472 1.42-3.057 0-5.472-1.426-2.414-1.426-3.818-4.102-1.403-2.676-1.403-6.426 0-3.762 1.403-6.438 1.404-2.676 3.818-4.096 2.415-1.42 5.472-1.42 3.057 0 5.472 1.42 2.414 1.42 3.818 4.096 1.403 2.676 1.403 6.438zm-4.238 0q0-2.648-.824-4.472-.824-1.824-2.279-2.761-1.454-.938-3.352-.938t-3.352.938q-1.455.937-2.279 2.761-.824 1.824-.824 4.472 0 2.647.824 4.471.824 1.824 2.279 2.762 1.454.937 3.352.937t3.352-.937q1.455-.938 2.279-2.762.824-1.824.824-4.471zM110.447 31h-4.216V7.727h8.727q2.682 0 4.506.932 1.824.932 2.761 2.608.938 1.676.938 3.903 0 2.24-.949 3.881-.949 1.642-2.79 2.534-1.84.892-4.522.892h-6.216v-3.5h5.647q1.569 0 2.569-.437 1-.438 1.483-1.284.483-.847.483-2.086 0-1.238-.49-2.119-.488-.88-1.488-1.34-1-.461-2.58-.461h-3.863V31zm3.205-10.545h4.602L124.015 31h-4.704l-5.66-10.545zM131.265 31h-4.216V7.727h4.216V18.42h.284l9.08-10.693h5.148l-9 10.443 9.08 12.83h-5.069l-6.943-9.977-2.58 3.045V31zm32.67 0h-15.227V7.727h15.137v3.534h-10.92v6.319h10.136v3.534h-10.137v6.352h11.012V31zm8.433 0h-4.216V7.727h8.727q2.682 0 4.506.932 1.823.932 2.761 2.608.937 1.676.937 3.903 0 2.24-.948 3.881-.95 1.642-2.79 2.534-1.841.892-4.523.892h-6.216v-3.5h5.648q1.568 0 2.568-.437 1-.438 1.483-1.284.483-.847.483-2.086 0-1.238-.489-2.119-.488-.88-1.488-1.34-1-.461-2.58-.461h-3.863V31zm3.204-10.545h4.602L185.936 31h-4.705l-5.659-10.545zM204.697 31h-15.954v-3.045l8.08-7.92q1.158-1.171 1.93-2.08.774-.91 1.16-1.762.386-.852.386-1.818 0-1.102-.5-1.892-.5-.79-1.375-1.222-.875-.431-1.988-.431-1.148 0-2.012.471-.863.472-1.335 1.335-.471.864-.471 2.057h-4.012q0-2.216 1.012-3.852 1.01-1.636 2.79-2.534 1.778-.898 4.085-.898 2.34 0 4.113.875 1.773.875 2.756 2.398.983 1.523.983 3.477 0 1.307-.5 2.568-.5 1.262-1.756 2.796-1.256 1.534-3.517 3.716l-4.011 4.08v.158h10.136V31z" fill="#FFF" fill-rule="nonzero"></path><path fill="#19A974" d="M16 140h32v32H16zm48 0h32v32H64zm48 0h32v32h-32zm48 0h32v32h-32zm48 0h32v32h-32zM16 92h32v32H16zm48 0h32v32H64zm48 0h32v32h-32zm48 0h32v32h-32zm48 0h32v32h-32z"></path></g><g transform="translate(766.656094, 183.641553) rotate(-12.000000) translate(-766.656094, -183.641553) translate(638.656094, 17.641553)"><path stroke="#FF80CC" stroke-width="8" fill="#D5008F" d="M4 80h248v248H4z"></path><path d="M59.042 31h-4.159L48.315 7.727h4.534l4.193 17.103h.216l4.477-17.103h4.125l4.49 17.114h.204l4.193-17.114h4.534L72.713 31h-4.16l-4.658-16.33h-.182L59.043 31zm42.716-11.636q0 3.761-1.403 6.437-1.404 2.676-3.818 4.097-2.415 1.42-5.472 1.42-3.057 0-5.472-1.426-2.414-1.426-3.818-4.102-1.403-2.676-1.403-6.426 0-3.762 1.403-6.438 1.404-2.676 3.818-4.096 2.415-1.42 5.472-1.42 3.057 0 5.472 1.42 2.414 1.42 3.818 4.096 1.403 2.676 1.403 6.438zm-4.238 0q0-2.648-.824-4.472-.824-1.824-2.279-2.761-1.454-.938-3.352-.938t-3.352.938q-1.455.937-2.279 2.761-.824 1.824-.824 4.472 0 2.647.824 4.471.824 1.824 2.279 2.762 1.454.937 3.352.937t3.352-.937q1.455-.938 2.279-2.762.824-1.824.824-4.471zM109.974 31h-4.216V7.727h8.727q2.682 0 4.506.932 1.824.932 2.761 2.608.938 1.676.938 3.903 0 2.24-.949 3.881-.949 1.642-2.79 2.534-1.84.892-4.522.892h-6.216v-3.5h5.647q1.569 0 2.569-.437 1-.438 1.483-1.284.483-.847.483-2.086 0-1.238-.49-2.119-.488-.88-1.488-1.34-1-.461-2.58-.461h-3.863V31zm3.205-10.545h4.602L123.542 31h-4.704l-5.66-10.545zM130.792 31h-4.216V7.727h4.216V18.42h.284l9.08-10.693h5.148l-9 10.443 9.08 12.83h-5.069l-6.943-9.977-2.58 3.045V31zm32.67 0h-15.227V7.727h15.137v3.534h-10.92v6.319h10.136v3.534H152.45v6.352h11.012V31zm8.433 0h-4.216V7.727h8.727q2.682 0 4.506.932 1.823.932 2.761 2.608.937 1.676.937 3.903 0 2.24-.948 3.881-.95 1.642-2.79 2.534-1.841.892-4.523.892h-6.216v-3.5h5.648q1.568 0 2.568-.437 1-.438 1.483-1.284.483-.847.483-2.086 0-1.238-.489-2.119-.488-.88-1.488-1.34-1-.461-2.58-.461h-3.863V31zm3.204-10.545h4.602L185.463 31h-4.705L175.1 20.455zm21.523 10.863q-2.455 0-4.358-.84-1.904-.842-3.006-2.342-1.102-1.5-1.17-3.466h4.272q.057.944.625 1.642.569.7 1.512 1.086.943.386 2.113.386 1.25 0 2.216-.437.966-.438 1.512-1.222.545-.784.534-1.807.011-1.057-.546-1.863-.556-.807-1.608-1.262-1.05-.454-2.528-.454h-2.057v-3.25h2.057q1.216 0 2.13-.42.915-.421 1.438-1.188.523-.767.512-1.779.01-.988-.438-1.721-.449-.733-1.261-1.142-.813-.41-1.904-.41-1.068 0-1.977.387-.91.386-1.466 1.097-.557.71-.59 1.687h-4.058q.046-1.955 1.131-3.438 1.085-1.482 2.903-2.318 1.819-.835 4.08-.835 2.33 0 4.051.87 1.722.869 2.665 2.335.943 1.466.943 3.238.011 1.966-1.153 3.296-1.165 1.33-3.051 1.738v.182q2.454.341 3.767 1.813 1.312 1.471 1.3 3.653 0 1.955-1.107 3.494-1.108 1.54-3.046 2.415-1.937.875-4.437.875z" fill="#FFF" fill-rule="nonzero"></path><path fill="#19A974" d="M16 92h32v32H16zm48 0h32v32H64zm48 0h32v32h-32z"></path></g><g transform="translate(188.139437, 694.076150) rotate(-12.000000) translate(-188.139437, -694.076150) translate(60.139437, 528.076150)"><path stroke="#FF80CC" stroke-width="8" fill="#D5008F" d="M4 80h248v248H4z"></path><path d="M59.278 31H55.12L48.551 7.727h4.534l4.193 17.103h.216l4.477-17.103h4.125l4.49 17.114h.204l4.193-17.114h4.534L72.949 31h-4.16l-4.658-16.33h-.182L59.279 31zm42.716-11.636q0 3.761-1.403 6.437-1.404 2.676-3.818 4.097-2.415 1.42-5.472 1.42-3.057 0-5.472-1.426-2.414-1.426-3.818-4.102-1.403-2.676-1.403-6.426 0-3.762 1.403-6.438 1.404-2.676 3.818-4.096 2.415-1.42 5.472-1.42 3.057 0 5.472 1.42 2.414 1.42 3.818 4.096 1.403 2.676 1.403 6.438zm-4.238 0q0-2.648-.824-4.472-.824-1.824-2.279-2.761-1.454-.938-3.352-.938t-3.352.938q-1.455.937-2.279 2.761-.824 1.824-.824 4.472 0 2.647.824 4.471.824 1.824 2.279 2.762 1.454.937 3.352.937t3.352-.937q1.455-.938 2.279-2.762.824-1.824.824-4.471zM110.21 31h-4.216V7.727h8.727q2.682 0 4.506.932 1.824.932 2.761 2.608.938 1.676.938 3.903 0 2.24-.949 3.881-.949 1.642-2.79 2.534-1.84.892-4.522.892h-6.216v-3.5h5.647q1.569 0 2.569-.437 1-.438 1.483-1.284.483-.847.483-2.086 0-1.238-.49-2.119-.488-.88-1.488-1.34-1-.461-2.58-.461h-3.863V31zm3.205-10.545h4.602L123.778 31h-4.704l-5.66-10.545zM131.028 31h-4.216V7.727h4.216V18.42h.284l9.08-10.693h5.148l-9 10.443L145.62 31h-5.069l-6.943-9.977-2.58 3.045V31zm32.67 0h-15.227V7.727h15.137v3.534h-10.92v6.319h10.136v3.534h-10.137v6.352H163.7V31zm8.433 0h-4.216V7.727h8.727q2.682 0 4.506.932 1.823.932 2.761 2.608.937 1.676.937 3.903 0 2.24-.948 3.881-.95 1.642-2.79 2.534-1.841.892-4.523.892h-6.216v-3.5h5.648q1.568 0 2.568-.437 1-.438 1.483-1.284.483-.847.483-2.086 0-1.238-.489-2.119-.488-.88-1.488-1.34-1-.461-2.58-.461h-3.863V31zm3.204-10.545h4.602L185.7 31h-4.705l-5.659-10.545zm21.261 10.863q-2.272 0-4.068-.858-1.795-.858-2.846-2.358-1.051-1.5-1.12-3.432h4.091q.114 1.432 1.239 2.336 1.125.903 2.704.903 1.24 0 2.205-.568.966-.568 1.523-1.58.557-1.011.545-2.306.012-1.319-.557-2.341-.568-1.023-1.556-1.608-.99-.586-2.273-.586-1.046-.01-2.057.387-1.011.398-1.602 1.045l-3.807-.625 1.216-12h13.5v3.523H193.72l-.67 6.17h.136q.648-.76 1.83-1.267 1.182-.505 2.59-.505 2.114 0 3.774.994 1.659.994 2.613 2.733.955 1.739.955 3.977 0 2.307-1.063 4.108-1.062 1.801-2.943 2.83-1.88 1.028-4.347 1.028z" fill="#FFF" fill-rule="nonzero"></path><path fill="#19A974" d="M16 140h32v32H16zm48 0h32v32H64zm48 0h32v32h-32zm48 0h32v32h-32zm48 0h32v32h-32zM16 92h32v32H16zm48 0h32v32H64zm48 0h32v32h-32zm48 0h32v32h-32zm48 0h32v32h-32zM16 188h32v32H16zm48 0h32v32H64zm48 0h32v32h-32z"></path></g><g transform="translate(516.797031, 624.217822) rotate(-12.000000) translate(-516.797031, -624.217822) translate(388.797031, 458.217822)"><path stroke="#FF80CC" stroke-width="8" fill="#D5008F" d="M4 80h248v248H4z"></path><path d="M59.028 31H54.87L48.301 7.727h4.534l4.193 17.103h.216l4.477-17.103h4.125l4.49 17.114h.204l4.193-17.114h4.534L72.699 31h-4.16l-4.658-16.33h-.182L59.029 31zm42.716-11.636q0 3.761-1.403 6.437-1.404 2.676-3.818 4.097-2.415 1.42-5.472 1.42-3.057 0-5.472-1.426-2.414-1.426-3.818-4.102-1.403-2.676-1.403-6.426 0-3.762 1.403-6.438 1.404-2.676 3.818-4.096 2.415-1.42 5.472-1.42 3.057 0 5.472 1.42 2.414 1.42 3.818 4.096 1.403 2.676 1.403 6.438zm-4.238 0q0-2.648-.824-4.472-.824-1.824-2.279-2.761-1.454-.938-3.352-.938t-3.352.938q-1.455.937-2.279 2.761-.824 1.824-.824 4.472 0 2.647.824 4.471.824 1.824 2.279 2.762 1.454.937 3.352.937t3.352-.937q1.455-.938 2.279-2.762.824-1.824.824-4.471zM109.96 31h-4.216V7.727h8.727q2.682 0 4.506.932 1.824.932 2.761 2.608.938 1.676.938 3.903 0 2.24-.949 3.881-.949 1.642-2.79 2.534-1.84.892-4.522.892h-6.216v-3.5h5.647q1.569 0 2.569-.437 1-.438 1.483-1.284.483-.847.483-2.086 0-1.238-.49-2.119-.488-.88-1.488-1.34-1-.461-2.58-.461h-3.863V31zm3.205-10.545h4.602L123.528 31h-4.704l-5.66-10.545zM130.778 31h-4.216V7.727h4.216V18.42h.284l9.08-10.693h5.148l-9 10.443L145.37 31h-5.07l-6.943-9.977-2.58 3.045V31zm32.67 0h-15.227V7.727h15.137v3.534h-10.92v6.319h10.136v3.534h-10.137v6.352h11.012V31zm8.433 0h-4.216V7.727h8.727q2.682 0 4.506.932 1.823.932 2.761 2.608.937 1.676.937 3.903 0 2.24-.948 3.881-.95 1.642-2.79 2.534-1.841.892-4.523.892h-6.216v-3.5h5.648q1.568 0 2.568-.437 1-.438 1.483-1.284.483-.847.483-2.086 0-1.238-.489-2.119-.488-.88-1.488-1.34-1-.461-2.58-.461h-3.863V31zm3.204-10.545h4.602L185.45 31h-4.705l-5.659-10.545zm21.693 10.863q-1.67-.011-3.255-.585-1.586-.574-2.858-1.875-1.273-1.301-2.023-3.466-.75-2.165-.75-5.37 0-3.01.636-5.363.637-2.352 1.83-3.983 1.193-1.63 2.88-2.483 1.688-.852 3.779-.852 2.193 0 3.892.87 1.699.869 2.744 2.374Q204.7 12.091 204.95 14h-4.15q-.318-1.386-1.301-2.199-.983-.812-2.483-.812-2.42 0-3.722 2.113-1.3 2.114-1.312 5.83h.159q.557-1 1.443-1.716t2.006-1.108q1.12-.392 2.37-.392 2.045 0 3.675.977t2.585 2.688q.955 1.71.944 3.914.011 2.296-1.046 4.12-1.057 1.824-2.943 2.87-1.886 1.045-4.398 1.033zm-.022-3.409q1.238 0 2.215-.602.978-.602 1.546-1.625.568-1.023.557-2.296.011-1.25-.54-2.261-.551-1.011-1.517-1.602-.966-.591-2.205-.591-.92 0-1.716.352-.795.352-1.386.972-.59.619-.926 1.431-.335.813-.347 1.733.012 1.216.569 2.24.556 1.022 1.534 1.635.977.614 2.216.614z" fill="#FFF" fill-rule="nonzero"></path><path fill="#19A974" d="M16 140h32v32H16zm48 0h32v32H64zM16 92h32v32H16zm48 0h32v32H64zm48 0h32v32h-32zm48 0h32v32h-32zm48 0h32v32h-32z"></path></g><g transform="translate(845.454625, 554.359494) rotate(-12.000000) translate(-845.454625, -554.359494) translate(717.454625, 388.359494)"><path stroke="#FF80CC" stroke-width="8" fill="#D5008F" d="M4 80h248v248H4z"></path><path d="M60.074 31h-4.159L49.347 7.727h4.534l4.193 17.103h.216l4.477-17.103h4.125l4.49 17.114h.204l4.193-17.114h4.534L73.745 31h-4.16l-4.658-16.33h-.182L60.075 31zm42.716-11.636q0 3.761-1.403 6.437-1.404 2.676-3.818 4.097-2.415 1.42-5.472 1.42-3.057 0-5.472-1.426-2.414-1.426-3.818-4.102-1.403-2.676-1.403-6.426 0-3.762 1.403-6.438 1.404-2.676 3.818-4.096 2.415-1.42 5.472-1.42 3.057 0 5.472 1.42 2.414 1.42 3.818 4.096 1.403 2.676 1.403 6.438zm-4.238 0q0-2.648-.824-4.472-.824-1.824-2.279-2.761-1.454-.938-3.352-.938t-3.352.938q-1.455.937-2.279 2.761-.824 1.824-.824 4.472 0 2.647.824 4.471.824 1.824 2.279 2.762 1.454.937 3.352.937t3.352-.937q1.455-.938 2.279-2.762.824-1.824.824-4.471zM111.006 31h-4.216V7.727h8.727q2.682 0 4.506.932 1.824.932 2.761 2.608.938 1.676.938 3.903 0 2.24-.949 3.881-.949 1.642-2.79 2.534-1.84.892-4.522.892h-6.216v-3.5h5.647q1.569 0 2.569-.437 1-.438 1.483-1.284.483-.847.483-2.086 0-1.238-.49-2.119-.488-.88-1.488-1.34-1-.461-2.58-.461h-3.863V31zm3.205-10.545h4.602L124.574 31h-4.704l-5.66-10.545zM131.824 31h-4.216V7.727h4.216V18.42h.284l9.08-10.693h5.148l-9 10.443 9.08 12.83h-5.069l-6.943-9.977-2.58 3.045V31zm32.67 0h-15.227V7.727h15.137v3.534h-10.92v6.319h10.136v3.534h-10.137v6.352h11.012V31zm8.433 0h-4.216V7.727h8.727q2.682 0 4.506.932 1.823.932 2.761 2.608.937 1.676.937 3.903 0 2.24-.948 3.881-.95 1.642-2.79 2.534-1.841.892-4.523.892h-6.216v-3.5h5.648q1.568 0 2.568-.437 1-.438 1.483-1.284.483-.847.483-2.086 0-1.238-.489-2.119-.488-.88-1.488-1.34-1-.461-2.58-.461h-3.863V31zm3.204-10.545h4.602L186.495 31h-4.705l-5.659-10.545zM194.53 31h-4.375l9.898-19.59v-.16h-11.49V7.727h15.853v3.603L194.53 31z" fill="#FFF" fill-rule="nonzero"></path><path fill="#19A974" d="M16 92h32v32H16zm48 0h32v32H64z"></path></g><g transform="translate(1103.214332, 150.952834) rotate(-12.000000) translate(-1103.214332, -150.952834) translate(975.214332, 22.952834)"><path stroke="#FF80CC" stroke-width="8" fill="#D5008F" d="M4 4h248v248H4z"></path><path fill="#19A974" d="M16 64h32v32H16zm48 0h32v32H64zm48 0h32v32h-32zM16 16h32v32H16zm48 0h32v32H64zm48 0h32v32h-32zm48 0h32v32h-32zm48 0h32v32h-32z"></path></g><g transform="translate(1174.112219, 484.501166) rotate(-12.000000) translate(-1174.112219, -484.501166) translate(1046.112219, 318.501166)"><path stroke="#FF80CC" stroke-width="8" fill="#D5008F" d="M4 80h248v248H4z"></path><path d="M59.02 31h-4.16L48.292 7.727h4.534L57.02 24.83h.216l4.477-17.103h4.125l4.49 17.114h.204l4.193-17.114h4.534L72.69 31h-4.16l-4.658-16.33h-.182L59.02 31zm42.715-11.636q0 3.761-1.403 6.437-1.404 2.676-3.818 4.097-2.415 1.42-5.472 1.42-3.057 0-5.472-1.426-2.414-1.426-3.818-4.102-1.403-2.676-1.403-6.426 0-3.762 1.403-6.438 1.404-2.676 3.818-4.096 2.415-1.42 5.472-1.42 3.057 0 5.472 1.42 2.414 1.42 3.818 4.096 1.403 2.676 1.403 6.438zm-4.238 0q0-2.648-.824-4.472-.824-1.824-2.279-2.761-1.454-.938-3.352-.938t-3.352.938q-1.455.937-2.279 2.761-.824 1.824-.824 4.472 0 2.647.824 4.471.824 1.824 2.279 2.762 1.454.937 3.352.937t3.352-.937q1.455-.938 2.279-2.762.824-1.824.824-4.471zM109.95 31h-4.216V7.727h8.727q2.682 0 4.506.932 1.824.932 2.761 2.608.938 1.676.938 3.903 0 2.24-.949 3.881-.949 1.642-2.79 2.534-1.84.892-4.522.892h-6.216v-3.5h5.647q1.569 0 2.569-.437 1-.438 1.483-1.284.483-.847.483-2.086 0-1.238-.49-2.119-.488-.88-1.488-1.34-1-.461-2.58-.461h-3.863V31zm3.205-10.545h4.602L123.519 31h-4.704l-5.66-10.545zM130.769 31h-4.216V7.727h4.216V18.42h.284l9.08-10.693h5.148l-9 10.443L145.36 31h-5.069l-6.943-9.977-2.58 3.045V31zm32.67 0h-15.227V7.727h15.137v3.534h-10.92v6.319h10.136v3.534h-10.137v6.352h11.012V31zm8.433 0h-4.216V7.727h8.727q2.682 0 4.506.932 1.823.932 2.761 2.608.937 1.676.937 3.903 0 2.24-.948 3.881-.95 1.642-2.79 2.534-1.841.892-4.523.892h-6.216v-3.5h5.648q1.568 0 2.568-.437 1-.438 1.483-1.284.483-.847.483-2.086 0-1.238-.489-2.119-.488-.88-1.488-1.34-1-.461-2.58-.461h-3.863V31zm3.204-10.545h4.602L185.44 31h-4.705l-5.659-10.545zm21.443 10.863q-2.534 0-4.494-.852t-3.068-2.335q-1.108-1.483-1.097-3.37-.011-1.466.637-2.693.647-1.227 1.755-2.051 1.108-.824 2.472-1.051v-.16q-1.796-.397-2.904-1.834-1.108-1.438-1.096-3.324-.012-1.796 1-3.205 1.011-1.409 2.773-2.221 1.76-.813 4.022-.813 2.239 0 3.995.813 1.755.812 2.772 2.221 1.017 1.41 1.017 3.205 0 1.886-1.119 3.324-1.12 1.437-2.88 1.835v.159q1.363.227 2.46 1.051 1.096.824 1.75 2.051.653 1.227.653 2.693 0 1.887-1.114 3.37-1.113 1.483-3.062 2.335-1.949.852-4.472.852zm0-3.25q1.307 0 2.273-.449.966-.449 1.5-1.267.534-.818.545-1.886-.01-1.114-.573-1.972-.563-.858-1.535-1.346-.971-.489-2.21-.489-1.25 0-2.227.489-.977.488-1.54 1.346-.562.858-.55 1.972-.012 1.068.522 1.88.534.813 1.506 1.268.971.454 2.29.454zm0-10.602q1.068 0 1.892-.432.824-.432 1.301-1.204.478-.773.49-1.785-.012-1-.478-1.755-.466-.756-1.296-1.17-.83-.415-1.909-.415-1.102 0-1.937.414-.835.415-1.296 1.17-.46.756-.449 1.756-.01 1.012.46 1.779.472.767 1.308 1.204.835.438 1.914.438z" fill="#FFF" fill-rule="nonzero"></path><path fill="#19A974" d="M16 140h32v32H16zm48 0h32v32H64zm48 0h32v32h-32zM16 92h32v32H16zm48 0h32v32H64zm48 0h32v32h-32zm48 0h32v32h-32z"></path></g></g></svg>