<svg viewBox="0 0 2447 1913" xmlns="http://www.w3.org/2000/svg"><g fill="none" fill-rule="evenodd"><path fill="#CADCF8" d="M857 0h1435v1829H857z"></path><path fill="#4661FE" d="M978 115.5h658v1558H978z"></path><path d="M1084.293 1717.702l-9.856 30.298h-8.898l13.557-39.273h10.7l13.539 39.273h-8.898l-9.837-30.298h-.307zm-10.413 21.343v-6.482h21.017v6.482h-21.017zm58.196-5.523v-24.795h8.303v25.505q0 4.295-2.042 7.517-2.042 3.221-5.705 5.014-3.662 1.793-8.533 1.793-4.89 0-8.553-1.793-3.662-1.793-5.695-5.014-2.033-3.222-2.033-7.517v-25.505h8.304v24.795q0 2.244.987 3.989.988 1.745 2.79 2.742 1.803.997 4.2.997 2.416 0 4.209-.997 1.793-.997 2.78-2.742.988-1.745.988-3.989zm25.424-17.949h-12.024v-6.846h32.255v6.846h-12.024V1748h-8.207v-32.427zm33.63 32.427h-8.302v-39.273h8.303v16.204h16.856v-16.204h8.284V1748h-8.284v-16.223h-16.856V1748zm58.292 0h-26.54v-39.273h26.464v6.846h-18.16v9.358h16.798v6.846h-16.798v9.377h18.236V1748zm30.89-39.273h8.264V1748h-7.172l-17.086-24.718h-.287V1748h-8.304v-39.273h7.287l16.952 24.7h.345v-24.7zm25.404 6.846h-12.024v-6.846h32.255v6.846h-12.024V1748h-8.207v-32.427zm25.328-6.846h8.303V1748h-8.303v-39.273zm49.566 13.75h-8.4q-.23-1.63-.939-2.906-.71-1.275-1.822-2.176-1.112-.901-2.56-1.38-1.447-.48-3.135-.48-3.049 0-5.312 1.505-2.262 1.505-3.509 4.372-1.246 2.867-1.246 6.952 0 4.2 1.256 7.056 1.256 2.858 3.519 4.315 2.262 1.457 5.235 1.457 1.668 0 3.097-.44 1.428-.442 2.54-1.295 1.113-.853 1.85-2.08.74-1.228 1.027-2.8l8.399.038q-.326 2.704-1.62 5.206-1.295 2.503-3.471 4.468-2.177 1.966-5.178 3.107-3 1.14-6.779 1.14-5.254 0-9.386-2.377-4.133-2.378-6.52-6.884-2.388-4.507-2.388-10.911 0-6.424 2.417-10.93 2.416-4.507 6.558-6.875 4.142-2.369 9.32-2.369 3.413 0 6.337.96 2.924.958 5.187 2.79 2.263 1.83 3.692 4.477 1.428 2.646 1.831 6.06zm21.627-4.775L1392.38 1748h-8.897l13.557-39.273h10.7l13.54 39.273h-8.898l-9.837-30.298h-.307zm-10.413 21.343v-6.482h21.017v6.482h-21.017zm39.633-23.472h-12.023v-6.846h32.254v6.846h-12.023V1748h-8.208v-32.427zm25.328-6.846h8.303V1748h-8.303v-39.273zm51.005 19.637q0 6.424-2.426 10.93-2.426 4.506-6.597 6.875-4.17 2.368-9.367 2.368-5.235 0-9.396-2.378-4.162-2.378-6.578-6.884-2.416-4.507-2.416-10.911 0-6.424 2.416-10.93 2.416-4.507 6.578-6.875 4.16-2.369 9.396-2.369 5.197 0 9.367 2.369 4.171 2.368 6.597 6.874 2.426 4.507 2.426 10.93zm-8.419 0q0-4.162-1.236-7.019-1.237-2.857-3.48-4.334-2.245-1.476-5.255-1.476t-5.254 1.476q-2.244 1.477-3.48 4.334-1.238 2.857-1.238 7.019 0 4.16 1.237 7.018 1.237 2.857 3.48 4.334 2.244 1.476 5.255 1.476 3.01 0 5.254-1.476 2.244-1.477 3.48-4.334 1.237-2.857 1.237-7.018zm38.905-19.637h8.265V1748h-7.172l-17.086-24.718h-.288V1748h-8.303v-39.273h7.287l16.952 24.7h.345v-24.7z" fill="#333" fill-rule="nonzero"></path><path fill="#30D314" d="M1108 413l-88 63V350z"></path><path fill="#30D314" d="M585 388h449v49H585z"></path><path fill="#FE3636" d="M485 1582h847v49H485z"></path><path fill="#FE3636" d="M423 1607l88 63v-126z"></path><g transform="translate(294.000000, 336.500000) scale(-1, 1) translate(-294.000000, -336.500000) translate(27.000000, 160.000000)" fill-rule="nonzero"><path d="M0 353l.078-145.291a5.774 5.774 0 0 1 5.77-5.776c37.261-.003 74.523-.003 111.784-.003 2.308-.908 1.483-1.486 1.154-2.064-7.172-11.887-11.87-24.683-13.684-38.552-4.04-31.782 4.946-59.437 26.543-83.13a82.307 82.307 0 0 1 3.792-3.797c1.072-1.073 1.072-1.073.083-2.064-3.38-3.22-6.43-6.769-8.986-10.731-5.77-9.164-8.985-19.152-9.232-30.05-.082-2.723.495-3.054 2.968-1.815 2.637 1.32 5.358 2.476 8.243 3.384.33-4.788-.247-8.75-.33-12.795 0-1.486-.082-2.89 0-4.376 0-2.063.742-2.559 2.555-1.485 2.886 1.65 5.77 3.137 8.82 4.375 1.814.743 1.814.743 1.65-1.238-.495-5.201-.578-10.402 0-15.603.494-1.981 1.4-2.311 2.06-1.733.495.412.825.99 1.237 1.486 6.347 7.925 13.436 15.024 21.927 20.72 7.419 4.953 15.415 7.677 24.318 7.76 6.677.083 13.106-1.32 19.289-3.715 5.77-2.229 11.54-4.54 17.558-5.861 6.1-1.32 12.283-1.899 18.383-.413 10.386 2.56 17.393 9.246 21.762 18.822 1.649 3.632 2.555 7.43 3.132 11.392.248 1.486.248 1.486 1.814 1.404 9.067-.66 17.805.743 25.719 5.448 9.48 5.696 14.755 14.281 16.816 24.93 1.484 7.843 1.072 15.603-.165 23.445-.989 6.11-2.637 12.136-4.616 17.997-.494 1.486-.824 1.403.99 2.064 9.232 3.137 15.002 9.493 16.65 19.069 2.309 13.126-6.1 24.766-18.3 27.655-2.225.495-4.533.825-6.841.578-.99-.165-1.32.33-1.567 1.238-1.73 6.274-4.121 12.383-7.006 18.244-5.935 11.805-13.849 21.959-23.741 30.627-2.226 1.568-2.39 2.476-1.896 3.715 1.154 3.22 2.143 6.521 3.215 9.74 6.677 20.804 13.437 41.524 20.031 62.327.495 1.486 1.154 2.064 2.638 2.312 6.512 1.403 10.634 5.448 12.365 11.887.33 1.404.577 2.89.824 4.293 1.566-.908 2.226-1.816 3.215-2.642 2.803-2.311 5.935-2.806 9.315-1.65 3.462 1.238 5.523 3.797 6.018 7.43.165 1.237.494 1.568 1.73 1.733 5.771.908 9.15 6.604 7.255 12.217-.495 1.404-.33 2.394.66 3.55 2.555 3.055 4.039 6.604 4.533 10.567.247 1.733 0 1.733 1.896 1.733h34.045c0-3.467-1.072-6.191-1.649-9.163-3.874.248-6.512.908-9.067 1.734-1.484.495-2.226.165-2.473-.66-.248-.744.33-1.322 1.73-1.734 2.391-.743 4.782-1.404 7.172-2.147 2.39-.743 1.979-.165 1.979-2.806.082-1.239-.412-1.404-1.072-1.404h-11.87c-2.144-.082-2.473-.495-2.473-1.156 1.566-1.238 1.978-1.155 2.473-1.155h11.705c1.072 0 1.484-.33 1.649-1.404.412-2.806.494-2.806-2.308-3.632-2.308-.743-4.699-1.403-7.007-2.064-1.814-.743-2.06-1.238-1.896-1.816 1.814-.825 2.308-.66 2.885-.495 2.803.825 5.523 1.65 8.326 2.559 3.792-5.861 7.007-9.989 11.376-13.126.824-.578.989-1.238.989-2.146v-25.509c.165-1.155.989-1.568 1.978-.99 8.161 7.594 15.333 14.281 22.422 20.885 1.896 1.816 1.319 1.816 3.462.248 15.415-10.98 36.106-10.98 51.52 0 1.979 1.403 1.402 1.734 3.545-.248 7.254-6.686 14.426-13.29 21.68-19.977.66-.578 1.237-1.569 2.308-1.156 1.154.413.742 1.568.742 2.394v37.066c0 2.394 0 2.394 2.226 1.733 1.978-.577 3.874-1.155 5.853-1.733 2.802 1.156 2.637 1.733 1.895 1.981l-4.698 1.486-4.204 1.238c-1.154 1.899-1.154 3.137-1.072 4.293 5.935.495 9.562.495 13.19.495 2.06.248 2.472.66 2.39 1.239-1.484 1.155-2.06 1.155-2.556 1.155h-11.458c-1.648 0-1.73 0-1.73 1.569 0 2.559-.166 1.981 1.978 2.641 2.225.743 4.533 1.321 6.842 2.064 1.896.826 2.143 1.321 1.896 1.981-4.864-.247-7.09-.99-9.398-1.65-1.319 3.384-1.319 5.778-1.319 8.255 0 .908.248 1.403 1.237 1.32h35.61c.907 0 1.814-.082 2.721.413v1.569c-2.06.495-2.638.495-3.297.495H0z" fill="#151D38"></path><path d="M95.624 338.55v-.165h91.905c2.154 0 2.154 0 2.154-2.137V208.186c-.082-2.22-1.326-3.534-3.563-3.781-.746-.082-1.492 0-2.155 0H6.371c-3.066.082-4.31 1.397-4.31 4.356v127.816c0 1.89 0 1.89 1.99 1.89H5.46c30 .083 60.082.083 90.164.083z" fill="#CCD6DA"></path><path d="M155.098 201.913h29.966c3.12 0 5.5 1.822 6.075 4.637.164.745.164 1.408.164 2.153v34.2c0 1.905.164 1.822 1.642 1.988 12.068 1.49 23.973.828 35.712-2.236 26.764-7.039 47.042-22.772 60.917-46.787 3.94-6.79 6.896-14.078 9.03-21.696.41-1.491.41-1.491-.985-1.905l-2.216-.745c-1.396-.58-1.807-1.077-1.56-1.905.246-.91.985-.994 2.463-.497 3.94 1.49 7.881 1.822 11.986 1.077 12.15-2.402 19.95-14.823 16.748-26.83-3.284-12.256-15.927-19.212-27.75-15.238-.574.166-1.066.497-1.641.58-.575.083-.985-.248-1.232-.745-.246-.58-.082-1.077.329-1.408a2.535 2.535 0 0 1 1.067-.497 31.96 31.96 0 0 1 2.627-.828c.164-.083.41-.166.493-.331.164-.414-.246-.331-.493-.414-.328-.166-.739-.249-1.15-.414-6.156-2.153-12.067-4.886-17.486-8.53-9.852-6.459-17.487-14.905-22.412-25.753-2.3-5.135-3.859-10.517-4.762-16.148-.246-1.657-.328-1.657-1.724-.911a12.31 12.31 0 0 0-1.396.828c-7.306 4.306-14.777 7.95-22.659 10.93-16.994 6.377-34.398 8.944-52.378 5.715-12.479-2.236-24.136-6.708-34.316-14.575-1.314-.994-1.314-.994-2.381.083-9.195 8.86-16.502 19.046-21.756 30.64-8.128 18.135-10.59 37.015-7.553 56.641 2.052 13.333 6.814 25.671 13.874 37.099.821 1.408 1.725 1.987 3.449 1.987 9.687-.248 19.457-.165 29.308-.165z" fill="#FAE0D6"></path><path d="M191.84 293.157v44.828c0 .996.247 1.412 1.319 1.412 2.226-.083 4.452 0 6.76 0 8.328 0 16.656-.083 24.9-.083 1.732 0 1.897.249 1.897 1.992v8.135c0 1.329-.165 1.495 1.32 1.495h31.825c1.072 0 1.32-.415 1.402-1.329.33-2.988 1.236-5.894 2.803-8.467.577-.913.66-1.743.247-2.823-1.731-5.147-3.38-10.377-5.03-15.523-4.04-12.619-8.162-25.237-12.202-37.855a8.2 8.2 0 0 1-.412-1.329c-.165-.747.165-1.328.907-1.494.66-.166 1.154.166 1.402.747l.247.747 8.657 26.897c2.721 8.468 5.442 16.935 8.245 25.32.495 1.411.495 1.494 1.567.498 2.968-2.906 6.43-4.815 10.471-5.728 1.237-.332 1.32-.332.99-1.577-.66-2.74-1.402-5.562-1.98-8.302-1.896-8.301 3.134-16.852 11.296-19.01.495-.166 1.072-.166 1.567-.332.577-.083.824-.415.577-.997-.083-.332-.165-.664-.33-.913-6.431-20.09-12.945-40.262-19.376-60.352-1.154-3.735-2.39-7.471-3.627-11.207-.248-.831-.66-1.162-1.32-.415a2.961 2.961 0 0 1-.824.581c-5.442 4.068-11.296 7.638-17.48 10.46-12.037 5.562-24.735 8.717-38.009 9.215-5.607.249-11.213.166-16.737-.664-.907-.166-1.237.166-1.155.996v1.577c.083 14.528.083 29.056.083 43.5z" fill="#FFF3A2"></path><path d="M454.887 350.769h36.109c1.727 0 1.727 0 1.727-1.753v-61.088c0-.334.165-.751-.164-.918-.494-.25-.658.25-.987.5-4.442 4.173-8.883 8.262-13.407 12.435-2.715 2.504-5.43 5.09-8.143 7.594-1.152 1.085-1.316 1.002-2.55.167-.412-.25-.74-.584-1.07-.834-6.498-4.924-13.736-7.845-21.797-8.429-10.775-.835-20.563 2.17-29.2 8.846-1.891 1.502-1.891 1.502-3.618-.083a1.137 1.137 0 0 0-.33-.25c-6.497-6.176-13.078-12.352-19.658-18.528-.493-.5-.987-1.418-1.645-1.168-.493.25-.247 1.168-.247 1.836v21.615c0 1.001-.082 1.836-1.151 2.503-11.845 8.095-14.641 23.868-7.732 36.053.658 1.168 1.398 1.669 2.797 1.669 8.718-.084 17.52 0 26.238-.084.576 0 1.399.25 1.645-.25.247-.5-.575-.918-.987-1.335-4.277-4.674-5.593-10.098-3.783-16.107 1.81-6.009 6.004-9.597 11.926-11.016 1.234-.334 2.468-.5 3.702-.334.658.084 1.069.5 1.069 1.252 0 .584-.329 1.001-.987 1.085-.74.083-1.398.167-2.139.25-5.675.751-10.528 5.09-11.68 10.682-1.233 5.759 1.234 11.6 6.17 14.688 1.233.751 2.55 1.169 4.112 1.169 12.174-.25 24.018-.167 35.78-.167z" fill="#C27659"></path><path d="M95.777 340.7c-16.82.075-33.638.075-50.457.075H3.232c-.828 0-1.243.294-1.16 1.03v4.416c0 2.65 0 2.65 2.983 2.65 23.612 0 47.308 0 70.92-.073 36.869 0 73.655-.074 110.523-.074h1.574c1.16-.073 1.575-.442 1.575-1.472.082-1.914 0-3.754 0-5.668 0-.81-.415-1.03-1.243-.957h-1.409c-8.782 0-17.481.074-26.263.074H95.777zm205.163 10.152h36.201c.733.084 1.06-.168.978-1.007-.408-3.524-1.63-6.712-3.75-9.564-.327-.504-.653-.42-.816.167-.081.252-.163.504-.326.755-2.69 5.79-9.376 7.384-14.269 3.356-.896-.755-1.467-.923-2.527-.42-3.017 1.26-5.87.84-8.561-1.006-2.854-2.013-4.159-4.866-3.914-8.474.082-1.258 0-1.342-1.06-1.007-2.527.672-4.892.42-7.175-.922-.57-.336-1.06-.336-1.712-.336-3.75 0-7.583-.084-11.333 0-8.643.168-16.063 6.292-18.264 14.934a16.438 16.438 0 0 0-.49 2.769c-.08.587.164.839.734.839h1.55c11.659-.084 23.237-.084 34.733-.084z" fill="#CCD6DA"></path><path d="M286.601 328.82h4.511c.596 0 .936-.159.681-.797-1.702-4.39-1.958-9.099-2.979-13.648-.255-1.038.17-1.676.936-1.836.766-.16 1.277.32 1.532 1.357.256 1.038.426 2.155.596 3.192.51 2.714.936 5.428 1.532 8.062.851 3.591 4.341 5.666 8.171 5.028 3.745-.719 6.128-3.911 5.533-7.503-.511-3.112-1.022-6.145-1.788-9.178-1.617-6.784-8.852-11.094-16.086-9.817-6.895 1.197-11.916 7.981-10.725 14.606.596 3.192 1.617 6.305 2.383 9.497.17.719.596 1.038 1.447 1.038h4.256zm20.604 6.937c.168 2.32.926 4.142 2.78 5.467 3.875 2.816 9.098 1.408 10.783-3.065 1.6-4.39 3.117-8.863 4.634-13.335.168-.497.252-.994.337-1.574.252-3.23-1.685-6.13-4.887-7.124-3.117-.91-6.57.415-8.087 3.314-1.011 1.988-1.854 4.141-2.19 6.378a13.24 13.24 0 0 1-1.601 4.638c-1.011 1.74-1.6 3.562-1.77 5.301z" fill="#FAE0D6"></path><path d="M207.904 348.871v-.074h15.406c.838-.074 1.424-.372 1.424-1.19v-6.25c0-.52-.335-.743-.921-.743h-20.43c-3.433 0-6.865.074-10.214.074-1.005 0-1.424.298-1.424 1.19.084 1.86 0 3.72 0 5.506 0 1.413 0 1.487 1.675 1.487h14.484z" fill="#CCD6DA"></path><path d="M334.008 333.178c0-3.695-2.374-6.346-5.978-6.908-1.582-.241-1.758-.16-2.285 1.205-.967 2.57-1.846 5.14-2.813 7.63-.88 2.25-1.319 4.74-3.077 6.668-.615.642-.088 1.044.352 1.446 3.692 2.811 9.318 1.606 11.252-2.57.879-1.929 1.582-3.937 2.285-5.945.264-.643.264-1.285.264-1.526z" fill="#FAE0D6"></path><path d="M119.547 272.913c-.654 10.04-6.863 17.53-16.014 19.67-11.765 2.798-23.366-5.35-25-17.447-1.39-10.205 5.147-20.575 15.768-23.044 2.288-.493 2.451-.411 2.778 1.893 1.389 7.818 6.618 13.58 14.216 15.307 1.797.412 3.595.494 5.474.33 2.45-.247 2.696 0 2.778 2.469.081.411 0 .822 0 .822z" fill="#151D38"></path><path d="M99.327 291.07c1.25-.085 2.917-.254 4.583-.677 7.417-2.03 13.25-9.133 13.583-16.744.083-1.692.083-1.692-1.5-1.692-9.916.17-18.583-6.596-20.832-16.405-.5-2.2-.75-1.692-2.084-1.269-8.583 2.875-13.916 11.84-12.416 21.057 1.417 8.964 9.333 15.814 18.666 15.73z" fill="#FFF"></path><path d="M189.3 126.677h27.158c4.16 0 8.32.167 12.479.25 1.957.084 2.446.753 1.55 2.426-6.118 11.626-15.09 19.74-27.894 22.5-12.886 2.76-24.223-.837-33.928-9.954-3.833-3.596-6.77-7.946-9.135-12.713-.244-.502-.489-.92-.652-1.422-.326-1.004 0-1.505 1.06-1.756.408-.084.816-.084 1.142-.084l24.06.25c1.386 0 2.691.168 4.078.168a.65.65 0 0 1 .081.335z" fill="#151D38"></path><path d="M196.02 128.307h-7.37c-3.063 0-6.044 0-9.107-.16-5.217-.159-10.433-.159-15.649-.159-1.16 0-1.242.08-.662 1.036a37.527 37.527 0 0 0 7.948 9.959c9.108 7.967 19.706 11.233 31.794 8.923 11.095-2.151 19.209-8.366 25.17-17.448 1.077-1.673 1.077-1.753-.993-1.753-10.35-.159-20.782-.318-31.132-.398z" fill="#FFF"></path><path d="M117.521 139.342c0-6.749 5.056-13.337 13.482-13.417 7.383-.08 13.321 6.026 13.321 13.417 0 7.473-5.938 13.418-13.401 13.418-7.383-.08-13.402-6.026-13.402-13.418zm158.737 2.106c.322 6.447-5.228 13.296-13.351 13.377-7.4 0-13.352-5.963-13.432-13.377 0-7.574 5.871-13.457 13.432-13.457 7.962-.161 13.753 6.688 13.351 13.457z" fill="#E5384A"></path><path d="M149.434 109.41c4.072 0 7.348 3.19 7.26 7.269 0 3.99-3.188 7.18-7.083 7.18-4.073 0-7.348-3.19-7.348-7.269 0-3.9 3.187-7.092 7.17-7.18zm92.87 2.065c4.072 0 7.17 3.191 7.17 7.357-.088 3.988-3.275 7.179-7.259 7.09-3.895 0-7.17-3.28-7.17-7.179a7.078 7.078 0 0 1 7.259-7.268zm75.208 37.28c-.082 8.396-8.677 14.313-16.858 11.594-.248-.08-.496-.16-.743-.32-.827-.32-1.157-.88-.827-1.679.248-.72.992-.8 1.653-.64.413.08.909.32 1.322.4 5.702 1.52 11.652-1.999 12.81-7.516 1.156-5.677-2.81-11.034-8.678-11.834-.496-.08-1.074-.16-1.57-.24-.579-.08-.91-.56-.91-1.12 0-.719.414-1.039 1.075-1.119.413-.08.91 0 1.405 0 6.528.72 11.404 6.077 11.321 12.474zM195.864 108.76c0 .586-.46.92-.995 1.172a141.56 141.56 0 0 1-4.902 2.682c-.69.335-.843.67-.153 1.173 1.378 1.005 2.68 2.095 4.059 3.1.383.252.69.503.996.838.383.42.383 1.006.076 1.509-.306.502-.766.586-1.302.419-.306-.084-.536-.252-.766-.503-2.068-1.592-4.212-3.184-6.28-4.86-1.456-1.174-1.379-2.011.23-2.933 2.297-1.341 4.672-2.598 7.046-3.855 1.149-.419 2.068 0 1.991 1.257zm-63.91 4.62c.234-5.982 4.144-10.938 9.697-12.05.625-.17 1.251-.256 1.877-.085.469.086.782.513.782 1.026.078.598-.157 1.11-.704 1.282-.548.17-1.095.256-1.642.341-4.223.94-7.039 4.359-7.508 8.974-.078.512-.078.94-.078 1.452-.078.77-.391 1.282-1.173 1.282s-1.095-.598-1.173-1.367c-.078-.256-.078-.513-.078-.855zm125.768-.043c0 .336 0 .923-.08 1.426-.162.588-.565.84-1.13.84s-.968-.336-1.049-.924c-.08-.42 0-.839-.08-1.174-.243-4.95-3.389-8.726-8.068-9.649-.242-.084-.484-.084-.726-.168-.807-.168-1.371-.587-1.21-1.51.161-.923.887-1.09 1.613-1.007 2.743.336 5.083 1.426 7.1 3.356 2.259 2.433 3.469 5.286 3.63 8.81zM440.52 344.724c-3.094-.088-5.184-.975-6.773-3.103-.67-.798-.92-.798-1.589 0-2.926 3.458-7.19 4.079-10.619 1.684-1.17-.798-2.09-1.95-2.76-3.28-.334-.71-.417-1.597.419-2.04.836-.443 1.338 0 1.756.798.25.532.585 1.064 1.003 1.596 2.76 3.104 7.61 2.128 9.114-1.773.335-.887.418-1.42-.669-1.685-1.505-.444-2.425-1.685-3.428-2.838-.418-.443-.669-1.064-.753-1.685-.25-1.241.168-2.04 1.422-2.04a211.98 211.98 0 0 1 10.62 0c1.17 0 1.588.799 1.253 2.04-.501 2.04-2.006 3.104-3.512 4.168-.501.355-1.337.266-1.505.887-.167.798.335 1.596.837 2.305 2.257 3.281 6.772 3.281 9.114 0 .25-.354.501-.886.752-1.241.418-.62 1.004-.71 1.589-.443.585.354.752.975.502 1.596a8.409 8.409 0 0 1-2.258 3.192c-1.505 1.241-3.177 1.95-4.515 1.862zm27.504-22.687c3.534 0 6.184 2.742 6.184 6.191 0 3.538-2.827 6.28-6.36 6.191-3.446-.088-6.096-2.83-6.008-6.368-.088-3.449 2.65-6.102 6.184-6.014zm-72.207 12.384c-3.422 0-6.141-2.635-6.141-6.149 0-3.514 2.544-6.15 6.053-6.237 3.598 0 6.317 2.635 6.317 6.15-.087 3.513-2.72 6.236-6.229 6.236z" fill="#151D38"></path></g><path d="M1437.99 1870.702l-9.857 30.298h-8.898l13.557-39.273h10.7l13.539 39.273h-8.898l-9.837-30.298h-.307zm-10.414 21.343v-6.482h21.017v6.482h-21.017zm42.316 8.955h-8.304v-39.273h15.495q4.468 0 7.613 1.697 3.144 1.697 4.803 4.699 1.659 3 1.659 6.913 0 3.911-1.688 6.903-1.687 2.991-4.88 4.66-3.193 1.668-7.718 1.668h-9.876v-6.654h8.533q2.397 0 3.96-.834 1.563-.834 2.34-2.32.776-1.487.776-3.423 0-1.956-.776-3.423-.777-1.467-2.35-2.282-1.572-.815-3.988-.815h-5.6V1901zm26.514-39.273h8.303V1901h-8.303v-39.273zm56.614 11.295h-7.959q-.23-2.32-1.975-3.605-1.745-1.285-4.736-1.285-2.033 0-3.433.566-1.4.565-2.138 1.563-.738.997-.738 2.262-.039 1.055.45 1.841.49.787 1.352 1.352.863.566 1.995.978 1.131.413 2.416.7l3.528.844q2.57.575 4.718 1.534 2.147.959 3.72 2.359 1.572 1.4 2.445 3.298.872 1.898.891 4.353-.019 3.605-1.83 6.242-1.813 2.637-5.217 4.084-3.404 1.448-8.198 1.448-4.755 0-8.274-1.457-3.519-1.458-5.484-4.324-1.966-2.867-2.062-7.105h8.035q.134 1.975 1.14 3.288 1.008 1.314 2.705 1.976 1.697.661 3.845.661 2.109 0 3.672-.613 1.563-.614 2.426-1.707.862-1.093.862-2.512 0-1.323-.776-2.225-.777-.9-2.263-1.534-1.486-.633-3.634-1.15l-4.276-1.074q-4.967-1.208-7.843-3.778-2.877-2.57-2.857-6.922-.02-3.567 1.908-6.233 1.927-2.665 5.302-4.16 3.375-1.497 7.67-1.497 4.372 0 7.642 1.496 3.27 1.496 5.091 4.161 1.822 2.666 1.88 6.175zm32.477 27.978h-26.54v-39.273h26.464v6.846h-18.16v9.358h16.798v6.846h-16.798v9.377h18.236V1901zm14.683 0h-8.304v-39.273h15.495q4.449 0 7.603 1.582t4.813 4.468q1.659 2.886 1.659 6.78 0 3.911-1.688 6.72-1.687 2.81-4.88 4.305-3.193 1.496-7.718 1.496h-10.375v-6.673h9.032q2.378 0 3.95-.652 1.573-.652 2.35-1.956.776-1.304.776-3.24 0-1.957-.776-3.3-.777-1.342-2.359-2.041-1.582-.7-3.979-.7h-5.6V1901zm3.95-17.872h8.955l9.76 17.872h-9.165l-9.55-17.872zm19.783-21.4h9.224l9.492 29.837h.364l9.512-29.838h9.204L1648.171 1901h-10.7l-13.558-39.273zm68.893 39.272h-26.54v-39.273h26.464v6.846h-18.16v9.358h16.798v6.846h-16.798v9.377h18.236V1901zm14.683 0h-8.304v-39.273h15.495q4.449 0 7.603 1.582 3.155 1.582 4.813 4.468 1.659 2.886 1.659 6.78 0 3.911-1.687 6.72-1.688 2.81-4.88 4.305-3.194 1.496-7.72 1.496h-10.373v-6.673h9.031q2.378 0 3.95-.652 1.573-.652 2.35-1.956.776-1.304.776-3.24 0-1.957-.776-3.3-.777-1.342-2.359-2.041-1.582-.7-3.979-.7h-5.6V1901zm3.95-17.872h8.955l9.76 17.872h-9.165l-9.55-17.872z" fill="#333" fill-rule="nonzero"></path><path fill="#4661FE" d="M1803 115.5h325v1558h-325z"></path><path fill="#4661FE" d="M2084 138h88v31h-88zm0 55h88v31h-88zm0 55h88v31h-88z"></path><path fill="#30D314" d="M1798 413l-88 63V350z"></path><path fill="#30D314" d="M1485 388h239v49h-239zm313 491l-88 63V816z"></path><path fill="#30D314" d="M1485 854h239v49h-239zm313 494l-88 63v-126z"></path><path fill="#30D314" d="M1485 1323h239v49h-239z"></path><path fill="#FE3636" d="M1333 1524v83h-49v-83z"></path><path fill="#4661FE" d="M2084 303h88v31h-88zm0 55h88v31h-88zm0 55h88v31h-88zm0 55h88v31h-88zm0 55h88v31h-88zm0 55h88v31h-88zm0 55h88v31h-88zm0 54h88v31h-88zm0 55h88v31h-88zm0 55h88v31h-88zm0 55h88v31h-88zm0 55h88v31h-88zm0 55h88v31h-88zm0 55h88v31h-88zm0 55h88v31h-88zm0 55h88v31h-88zm0 55h88v31h-88zm0 55h88v31h-88zm0 55h88v31h-88zm2 55h88v31h-88zm0 55h88v31h-88zm0 55h88v31h-88zm0 55h88v31h-88zm0 55h88v31h-88zm0 55h88v31h-88z"></path><path d="M1955.202 1099l30.298 9.857v8.898l-39.273-13.557v-10.7l39.273-13.539v8.898l-30.298 9.837v.307zm21.343 10.414h-6.482v-21.017h6.482v21.017zm-5.523-58.196h-24.795v-8.303h25.505q4.295 0 7.517 2.042 3.221 2.042 5.014 5.705 1.793 3.662 1.793 8.533 0 4.89-1.793 8.553-1.793 3.662-5.014 5.695-3.222 2.033-7.517 2.033h-25.505v-8.304h24.795q2.244 0 3.989-.987 1.745-.988 2.742-2.79.997-1.803.997-4.2 0-2.416-.997-4.209-.997-1.793-2.742-2.78-1.745-.988-3.989-.988zm-17.949-25.424v12.024h-6.846v-32.255h6.846v12.024h32.427v8.207h-32.427zm32.427-33.63v8.302h-39.273v-8.303h16.204v-16.856h-16.204v-8.284h39.273v8.284h-16.223v16.856h16.223zm-19.636-67.842q6.424 0 10.93 2.426 4.506 2.425 6.875 6.596 2.368 4.171 2.368 9.368 0 5.235-2.378 9.396-2.378 4.161-6.884 6.578-4.507 2.416-10.911 2.416-6.424 0-10.93-2.416-4.507-2.417-6.875-6.578-2.369-4.161-2.369-9.396 0-5.197 2.369-9.368 2.368-4.17 6.874-6.596 4.507-2.426 10.93-2.426zm0 8.418q-4.162 0-7.019 1.237t-4.334 3.48q-1.476 2.244-1.476 5.255 0 3.01 1.476 5.254 1.477 2.244 4.334 3.48 2.857 1.237 7.019 1.237 4.16 0 7.018-1.236 2.857-1.237 4.334-3.48 1.476-2.245 1.476-5.255t-1.476-5.254q-1.477-2.244-4.334-3.48-2.857-1.238-7.018-1.238zm19.636-22.624v8.304h-39.273v-15.495q0-4.449 1.582-7.603 1.582-3.155 4.468-4.813 2.886-1.66 6.78-1.66 3.911 0 6.72 1.688 2.81 1.688 4.305 4.88 1.496 3.194 1.496 7.72v10.373h-6.673v-9.032q0-2.377-.652-3.95-.652-1.572-1.956-2.349-1.304-.777-3.24-.777-1.957 0-3.3.777-1.342.777-2.041 2.359-.7 1.582-.7 3.979v5.6h32.484zm-17.872-3.95v-8.955l17.872-9.76v9.165l-17.872 9.55zm-21.4-22.95v-8.303h39.272v8.303h-39.273zm11.294-44.178v7.958q-2.32.23-3.605 1.975-1.285 1.745-1.285 4.737 0 2.033.566 3.432.565 1.4 1.563 2.138.997.739 2.262.739 1.055.038 1.841-.45.787-.49 1.352-1.353.566-.863.978-1.994.413-1.131.7-2.416l.844-3.529q.575-2.57 1.534-4.717.959-2.148 2.359-3.72 1.4-1.573 3.298-2.445 1.898-.873 4.353-.892 3.605.02 6.242 1.831 2.637 1.813 4.084 5.216 1.448 3.404 1.448 8.198 0 4.756-1.457 8.275-1.458 3.519-4.324 5.484-2.867 1.966-7.105 2.061v-8.034q1.975-.135 3.288-1.141 1.314-1.007 1.976-2.704.661-1.697.661-3.845 0-2.11-.613-3.672-.614-1.563-1.707-2.426-1.093-.863-2.512-.863-1.323 0-2.225.777-.9.776-1.534 2.263-.633 1.486-1.15 3.633l-1.074 4.277q-1.208 4.966-3.778 7.843-2.57 2.876-6.922 2.857-3.567.02-6.233-1.908-2.665-1.927-4.16-5.302-1.497-3.375-1.497-7.67 0-4.373 1.496-7.642 1.496-3.27 4.161-5.092 2.666-1.821 6.175-1.879zm-2.32-21.57l30.298 9.857v8.898l-39.273-13.557v-10.7l39.273-13.54v8.899l-30.298 9.837v.307zm21.343 10.413h-6.482v-21.017h6.482v21.017zm-23.472-39.633v12.024h-6.846v-32.255h6.846v12.024h32.427v8.207h-32.427zm-6.846-25.328v-8.303h39.273v8.303h-39.273zm19.637-51.004q6.424 0 10.93 2.426 4.506 2.425 6.875 6.596 2.368 4.171 2.368 9.368 0 5.235-2.378 9.396-2.378 4.161-6.884 6.577-4.507 2.417-10.911 2.417-6.424 0-10.93-2.417-4.507-2.416-6.875-6.577-2.369-4.161-2.369-9.396 0-5.197 2.369-9.368 2.368-4.17 6.874-6.596 4.507-2.426 10.93-2.426zm0 8.418q-4.162 0-7.019 1.237t-4.334 3.48q-1.476 2.244-1.476 5.255 0 3.01 1.476 5.254 1.477 2.244 4.334 3.48 2.857 1.237 7.019 1.237 4.16 0 7.018-1.237 2.857-1.236 4.334-3.48 1.476-2.244 1.476-5.254 0-3.01-1.476-5.255-1.477-2.243-4.334-3.48-2.857-1.237-7.018-1.237zm-19.637-38.904v-8.265h39.273v7.172l-24.718 17.086v.287h24.718v8.303h-39.273v-7.286l24.7-16.952v-.345h-24.7z" fill="#FFF" fill-rule="nonzero"></path><path fill="#FFFB89" d="M1108 209.5h400v398.916h-400z"></path><path fill="#4661FE" d="M1132 702h353v353h-353z"></path><path fill="#FFFB89" d="M1107 1148h400v400h-400z"></path><path d="M1229.7 1304.702l-9.856 30.298h-8.898l13.557-39.273h10.7l13.539 39.273h-8.898l-9.837-30.298h-.307zm-10.413 21.343v-6.482h21.017v6.482h-21.017zm58.196-5.523v-24.795h8.303v25.505q0 4.295-2.042 7.517-2.042 3.221-5.705 5.014-3.662 1.793-8.533 1.793-4.89 0-8.553-1.793-3.662-1.793-5.695-5.014-2.033-3.222-2.033-7.517v-25.505h8.304v24.795q0 2.244.987 3.989.988 1.745 2.79 2.742 1.803.997 4.2.997 2.416 0 4.209-.997 1.793-.997 2.78-2.742.988-1.745.988-3.989zm25.424-17.949h-12.024v-6.846h32.255v6.846h-12.024V1335h-8.207v-32.427zm33.63 32.427h-8.302v-39.273h8.303v16.204h16.856v-16.204h8.284V1335h-8.284v-16.223h-16.856V1335zm56.336-39.273h8.265V1335h-7.172l-17.085-24.718h-.288V1335h-8.303v-39.273h7.287l16.951 24.7h.345v-24.7zM1218.954 1400h-8.304v-39.273h15.495q4.468 0 7.613 1.697 3.144 1.697 4.803 4.699 1.659 3 1.659 6.913 0 3.911-1.688 6.903-1.687 2.991-4.88 4.66-3.193 1.668-7.718 1.668h-9.876v-6.654h8.533q2.397 0 3.96-.834 1.563-.834 2.34-2.32.776-1.487.776-3.423 0-1.956-.776-3.423-.777-1.467-2.35-2.282-1.572-.815-3.988-.815h-5.6V1400zm51.58 0h-25.14v-39.273h8.303v32.427h16.837V1400zm29.527-14.478v-24.795h8.303v25.505q0 4.295-2.042 7.517-2.042 3.221-5.705 5.014-3.663 1.793-8.533 1.793-4.89 0-8.553-1.793-3.663-1.793-5.695-5.014-2.033-3.222-2.033-7.517v-25.505h8.303v24.795q0 2.244.988 3.989.987 1.745 2.79 2.742 1.803.997 4.2.997 2.416 0 4.209-.997 1.793-.997 2.78-2.742.988-1.745.988-3.989zm49.375-12.1h-8.438q-.403-1.4-1.131-2.483-.729-1.084-1.774-1.841-1.045-.758-2.378-1.16-1.333-.403-2.943-.403-3.011 0-5.284 1.496-2.272 1.495-3.538 4.343-1.265 2.848-1.265 6.951 0 4.104 1.246 6.98 1.247 2.877 3.529 4.382t5.388 1.505q2.82 0 4.823-1.006 2.004-1.007 3.068-2.848 1.064-1.84 1.064-4.353l1.688.25h-10.125v-6.252h16.434v4.947q0 5.178-2.186 8.889-2.186 3.71-6.021 5.714-3.836 2.004-8.783 2.004-5.523 0-9.703-2.445t-6.51-6.961q-2.33-4.516-2.33-10.729 0-4.775 1.39-8.524 1.39-3.749 3.902-6.357 2.512-2.608 5.849-3.97 3.337-1.36 7.23-1.36 3.336 0 6.212.968 2.877.968 5.11 2.732 2.235 1.765 3.654 4.19 1.419 2.426 1.822 5.34zm6.362-12.695h8.303V1400h-8.303v-39.273zm39.5 0h8.264V1400h-7.172l-17.086-24.718h-.287V1400h-8.304v-39.273H1378l16.952 24.7h.345v-24.7zM1231.7 368.702L1221.844 399h-8.898l13.557-39.273h10.7l13.54 39.273h-8.898l-9.837-30.298h-.307zm-10.413 21.343v-6.482h21.017v6.482h-21.017zm58.196-5.523v-24.795h8.303v25.505q0 4.295-2.042 7.517-2.042 3.221-5.705 5.014-3.662 1.793-8.533 1.793-4.89 0-8.553-1.793-3.662-1.793-5.695-5.014-2.033-3.222-2.033-7.517v-25.505h8.304v24.795q0 2.244.987 3.989.988 1.745 2.79 2.742 1.803.997 4.2.997 2.416 0 4.209-.997 1.793-.997 2.78-2.742.988-1.745.988-3.989zm25.424-17.949h-12.024v-6.846h32.255v6.846h-12.024V399h-8.207v-32.427zm33.63 32.427h-8.302v-39.273h8.303v16.204h16.856v-16.204h8.284V399h-8.284v-16.223h-16.856V399zm56.336-39.273h8.265V399h-7.172l-17.085-24.718h-.288V399h-8.303v-39.273h7.287l16.951 24.7h.345v-24.7zM1220.954 464h-8.304v-39.273h15.495q4.468 0 7.613 1.697 3.144 1.697 4.803 4.699 1.659 3 1.659 6.913 0 3.911-1.688 6.903-1.687 2.991-4.88 4.66-3.193 1.668-7.718 1.668h-9.876v-6.654h8.533q2.397 0 3.96-.834 1.563-.834 2.34-2.32.776-1.487.776-3.423 0-1.956-.776-3.423-.777-1.467-2.35-2.282-1.572-.815-3.988-.815h-5.6V464zm51.58 0h-25.14v-39.273h8.303v32.427h16.837V464zm29.527-14.478v-24.795h8.303v25.505q0 4.295-2.042 7.517-2.042 3.221-5.705 5.014-3.663 1.793-8.533 1.793-4.89 0-8.553-1.793-3.663-1.793-5.695-5.014-2.033-3.222-2.033-7.517v-25.505h8.303v24.795q0 2.244.988 3.989.987 1.745 2.79 2.742 1.803.997 4.2.997 2.416 0 4.209-.997 1.793-.997 2.78-2.742.988-1.745.988-3.989zm49.375-12.1h-8.438q-.403-1.4-1.131-2.483-.729-1.084-1.774-1.841-1.045-.758-2.378-1.16-1.333-.403-2.943-.403-3.011 0-5.284 1.496-2.272 1.495-3.538 4.343-1.265 2.848-1.265 6.951 0 4.104 1.246 6.98 1.247 2.877 3.529 4.382t5.388 1.505q2.82 0 4.823-1.006 2.004-1.007 3.068-2.848 1.064-1.84 1.064-4.353l1.688.25h-10.125v-6.252h16.434v4.947q0 5.178-2.186 8.889-2.186 3.71-6.021 5.714-3.836 2.004-8.783 2.004-5.523 0-9.703-2.445t-6.51-6.961q-2.33-4.516-2.33-10.729 0-4.775 1.39-8.524 1.39-3.749 3.902-6.357 2.512-2.608 5.849-3.97 3.337-1.36 7.23-1.36 3.336 0 6.212.968 2.877.968 5.11 2.732 2.235 1.765 3.654 4.19 1.419 2.426 1.822 5.34zm6.362-12.695h8.303V464h-8.303v-39.273zm39.5 0h8.264V464h-7.172l-17.086-24.718h-.287V464h-8.304v-39.273H1380l16.952 24.7h.345v-24.7z" fill="#000" fill-rule="nonzero"></path><path d="M1231.7 836.702L1221.844 867h-8.898l13.557-39.273h10.7l13.54 39.273h-8.898l-9.837-30.298h-.307zm-10.413 21.343v-6.482h21.017v6.482h-21.017zm58.196-5.523v-24.795h8.303v25.505q0 4.295-2.042 7.517-2.042 3.221-5.705 5.014-3.662 1.793-8.533 1.793-4.89 0-8.553-1.793-3.662-1.793-5.695-5.014-2.033-3.222-2.033-7.517v-25.505h8.304v24.795q0 2.244.987 3.989.988 1.745 2.79 2.742 1.803.997 4.2.997 2.416 0 4.209-.997 1.793-.997 2.78-2.742.988-1.745.988-3.989zm25.424-17.949h-12.024v-6.846h32.255v6.846h-12.024V867h-8.207v-32.427zm33.63 32.427h-8.302v-39.273h8.303v16.204h16.856v-16.204h8.284V867h-8.284v-16.223h-16.856V867zm56.336-39.273h8.265V867h-7.172l-17.085-24.718h-.288V867h-8.303v-39.273h7.287l16.951 24.7h.345v-24.7zM1220.954 932h-8.304v-39.273h15.495q4.468 0 7.613 1.697 3.144 1.697 4.803 4.699 1.659 3 1.659 6.913 0 3.911-1.688 6.903-1.687 2.991-4.88 4.66-3.193 1.668-7.718 1.668h-9.876v-6.654h8.533q2.397 0 3.96-.834 1.563-.834 2.34-2.32.776-1.487.776-3.423 0-1.956-.776-3.423-.777-1.467-2.35-2.282-1.572-.815-3.988-.815h-5.6V932zm51.58 0h-25.14v-39.273h8.303v32.427h16.837V932zm29.527-14.478v-24.795h8.303v25.505q0 4.295-2.042 7.517-2.042 3.221-5.705 5.014-3.663 1.793-8.533 1.793-4.89 0-8.553-1.793-3.663-1.793-5.695-5.014-2.033-3.222-2.033-7.517v-25.505h8.303v24.795q0 2.244.988 3.989.987 1.745 2.79 2.742 1.803.997 4.2.997 2.416 0 4.209-.997 1.793-.997 2.78-2.742.988-1.745.988-3.989zm49.375-12.1h-8.438q-.403-1.4-1.131-2.483-.729-1.084-1.774-1.841-1.045-.758-2.378-1.16-1.333-.403-2.943-.403-3.011 0-5.284 1.496-2.272 1.495-3.538 4.343-1.265 2.848-1.265 6.951 0 4.104 1.246 6.98 1.247 2.877 3.529 4.382t5.388 1.505q2.82 0 4.823-1.006 2.004-1.007 3.068-2.848 1.064-1.84 1.064-4.353l1.688.25h-10.125v-6.252h16.434v4.947q0 5.178-2.186 8.889-2.186 3.71-6.021 5.714-3.836 2.004-8.783 2.004-5.523 0-9.703-2.445t-6.51-6.961q-2.33-4.516-2.33-10.729 0-4.775 1.39-8.524 1.39-3.749 3.902-6.357 2.512-2.608 5.849-3.97 3.337-1.36 7.23-1.36 3.336 0 6.212.968 2.877.968 5.11 2.732 2.235 1.765 3.654 4.19 1.419 2.426 1.822 5.34zm6.362-12.695h8.303V932h-8.303v-39.273zm39.5 0h8.264V932h-7.172l-17.086-24.718h-.287V932h-8.304v-39.273H1380l16.952 24.7h.345v-24.7z" fill="#FFF" fill-rule="nonzero"></path><path fill="#FFFB89" d="M1107 678h400v400h-400z"></path><path d="M1229.7 834.702L1219.844 865h-8.898l13.557-39.273h10.7l13.54 39.273h-8.898l-9.837-30.298h-.307zm-10.413 21.343v-6.482h21.017v6.482h-21.017zm58.196-5.523v-24.795h8.303v25.505q0 4.295-2.042 7.517-2.042 3.221-5.705 5.014-3.662 1.793-8.533 1.793-4.89 0-8.553-1.793-3.662-1.793-5.695-5.014-2.033-3.222-2.033-7.517v-25.505h8.304v24.795q0 2.244.987 3.989.988 1.745 2.79 2.742 1.803.997 4.2.997 2.416 0 4.209-.997 1.793-.997 2.78-2.742.988-1.745.988-3.989zm25.424-17.949h-12.024v-6.846h32.255v6.846h-12.024V865h-8.207v-32.427zm33.63 32.427h-8.302v-39.273h8.303v16.204h16.856v-16.204h8.284V865h-8.284v-16.223h-16.856V865zm56.336-39.273h8.265V865h-7.172l-17.085-24.718h-.288V865h-8.303v-39.273h7.287l16.951 24.7h.345v-24.7zM1218.954 930h-8.304v-39.273h15.495q4.468 0 7.613 1.697 3.144 1.697 4.803 4.699 1.659 3 1.659 6.913 0 3.911-1.688 6.903-1.687 2.991-4.88 4.66-3.193 1.668-7.718 1.668h-9.876v-6.654h8.533q2.397 0 3.96-.834 1.563-.834 2.34-2.32.776-1.487.776-3.423 0-1.956-.776-3.423-.777-1.467-2.35-2.282-1.572-.815-3.988-.815h-5.6V930zm51.58 0h-25.14v-39.273h8.303v32.427h16.837V930zm29.527-14.478v-24.795h8.303v25.505q0 4.295-2.042 7.517-2.042 3.221-5.705 5.014-3.663 1.793-8.533 1.793-4.89 0-8.553-1.793-3.663-1.793-5.695-5.014-2.033-3.222-2.033-7.517v-25.505h8.303v24.795q0 2.244.988 3.989.987 1.745 2.79 2.742 1.803.997 4.2.997 2.416 0 4.209-.997 1.793-.997 2.78-2.742.988-1.745.988-3.989zm49.375-12.1h-8.438q-.403-1.4-1.131-2.483-.729-1.084-1.774-1.841-1.045-.758-2.378-1.16-1.333-.403-2.943-.403-3.011 0-5.284 1.496-2.272 1.495-3.538 4.343-1.265 2.848-1.265 6.951 0 4.104 1.246 6.98 1.247 2.877 3.529 4.382t5.388 1.505q2.82 0 4.823-1.006 2.004-1.007 3.068-2.848 1.064-1.84 1.064-4.353l1.688.25h-10.125v-6.252h16.434v4.947q0 5.178-2.186 8.889-2.186 3.71-6.021 5.714-3.836 2.004-8.783 2.004-5.523 0-9.703-2.445t-6.51-6.961q-2.33-4.516-2.33-10.729 0-4.775 1.39-8.524 1.39-3.749 3.902-6.357 2.512-2.608 5.849-3.97 3.337-1.36 7.23-1.36 3.336 0 6.212.968 2.877.968 5.11 2.732 2.235 1.765 3.654 4.19 1.419 2.426 1.822 5.34zm6.362-12.695h8.303V930h-8.303v-39.273zm39.5 0h8.264V930h-7.172l-17.086-24.718h-.287V930h-8.304v-39.273H1378l16.952 24.7h.345v-24.7z" fill="#000" fill-rule="nonzero"></path><path d="M307.89 1743.097h-31.66v-6.54l16.396-25.83h5.638v9.051h-3.336l-10.336 16.358v.306h23.299v6.655zm-4.87 6.903h-7.94v-8.898l.154-2.895v-27.48h7.786V1750zm25.65.863q-4.947-.02-8.504-2.435-3.557-2.417-5.465-7t-1.889-11.026q0-6.424 1.908-10.95 1.908-4.525 5.465-6.893 3.558-2.369 8.486-2.369 4.928 0 8.485 2.378 3.558 2.378 5.475 6.894 1.918 4.516 1.899 10.94 0 6.462-1.908 11.045-1.908 4.584-5.456 7-3.548 2.416-8.495 2.416zm0-6.884q3.376 0 5.39-3.394 2.013-3.395 1.994-10.183 0-4.468-.911-7.44-.911-2.973-2.57-4.468-1.658-1.496-3.902-1.496-3.356 0-5.37 3.356-2.013 3.356-2.032 10.048 0 4.526.91 7.546.912 3.02 2.58 4.525 1.668 1.506 3.912 1.506zm30.887-33.252h7.805V1750h-8.303v-31.391h-.23l-8.994 5.637v-7.363l9.722-6.156zm-225.631 89.795v-24.795h8.303v25.505q0 4.295-2.042 7.517-2.042 3.221-5.705 5.014-3.662 1.793-8.533 1.793-4.89 0-8.553-1.793-3.662-1.793-5.695-5.014-2.033-3.222-2.033-7.517v-25.505h8.304v24.795q0 2.244.987 3.989.988 1.745 2.79 2.742 1.803.997 4.2.997 2.416 0 4.21-.997 1.792-.997 2.78-2.742.987-1.745.987-3.989zm39.554-24.795h8.265V1815h-7.172l-17.086-24.718h-.288V1815h-8.303v-39.273h7.287l16.952 24.7h.345v-24.7zm31.576 8.975L195.2 1815h-8.898l13.558-39.273h10.7L224.098 1815h-8.897l-9.838-30.298h-.307zm-10.412 21.343v-6.482h21.017v6.482h-21.017zm58.27-5.523v-24.795h8.303v25.505q0 4.295-2.042 7.517-2.043 3.221-5.705 5.014-3.663 1.793-8.534 1.793-4.89 0-8.552-1.793-3.663-1.793-5.696-5.014-2.032-3.222-2.032-7.517v-25.505h8.303v24.795q0 2.244.988 3.989.987 1.745 2.79 2.742 1.802.997 4.2.997 2.415 0 4.208-.997 1.793-.997 2.78-2.742.988-1.745.988-3.989zm25.497-17.949h-12.023v-6.846h32.254v6.846h-12.023V1815h-8.208v-32.427zM312.116 1815h-8.303v-39.273h8.303v16.204h16.856v-16.204h8.284V1815h-8.284v-16.223h-16.856V1815zm67.916-19.636q0 6.424-2.426 10.93-2.426 4.506-6.597 6.875-4.17 2.368-9.367 2.368-5.235 0-9.397-2.378-4.16-2.378-6.577-6.884-2.416-4.507-2.416-10.911 0-6.424 2.416-10.93 2.416-4.507 6.577-6.875 4.162-2.369 9.397-2.369 5.196 0 9.367 2.369 4.17 2.368 6.597 6.874 2.426 4.507 2.426 10.93zm-8.419 0q0-4.162-1.237-7.019t-3.48-4.334q-2.244-1.476-5.254-1.476-3.011 0-5.255 1.476-2.243 1.477-3.48 4.334-1.237 2.857-1.237 7.019 0 4.16 1.237 7.018 1.237 2.857 3.48 4.334 2.244 1.476 5.255 1.476 3.01 0 5.254-1.476 2.243-1.477 3.48-4.334 1.237-2.857 1.237-7.018zM394.311 1815h-8.303v-39.273h15.494q4.45 0 7.604 1.582t4.813 4.468q1.658 2.886 1.658 6.78 0 3.911-1.687 6.72-1.688 2.81-4.88 4.305-3.193 1.496-7.719 1.496h-10.374v-6.673h9.032q2.378 0 3.95-.652 1.573-.652 2.35-1.956.776-1.304.776-3.24 0-1.957-.777-3.3-.776-1.342-2.358-2.041-1.582-.7-3.98-.7h-5.599V1815zm3.95-17.872h8.956l9.76 17.872h-9.166l-9.55-17.872zm23.024-21.4h8.304V1815h-8.304v-39.273zM465.921 1815h-30.068v-4.928l19.598-27.499h-19.637v-6.846h30.068v4.929l-19.617 27.498h19.656V1815zm32.746 0h-26.54v-39.273h26.463v6.846h-18.16v9.358h16.799v6.846H480.43v9.377h18.236V1815zm20.301 0h-13.922v-39.273h14.037q5.925 0 10.202 2.35 4.276 2.348 6.587 6.74 2.31 4.391 2.31 10.508 0 6.137-2.31 10.547-2.31 4.41-6.616 6.77-4.305 2.358-10.288 2.358zm-5.619-32.158v25.044h5.274q3.682 0 6.203-1.314 2.522-1.313 3.797-4.084 1.275-2.771 1.275-7.163 0-4.353-1.275-7.114t-3.787-4.065q-2.512-1.304-6.194-1.304h-5.293z" fill="#333" fill-rule="nonzero"></path><g transform="translate(257.000000, 1540.000000)"><ellipse fill="#FE3636" cx="67" cy="67.5" rx="64.985" ry="64.5"></ellipse><g transform="translate(67.000000, 66.739022) rotate(45.000000) translate(-67.000000, -66.739022) translate(19.646617, 19.739022)" fill="#FFF"><path d="M0 32.782h94.366v28.099H0z"></path><path d="M61.338 0v93.662h-28.31V0z"></path></g></g><path d="M277.86 574.522v-24.795h8.302v25.505q0 4.295-2.042 7.517-2.042 3.221-5.705 5.014-3.662 1.793-8.533 1.793-4.89 0-8.553-1.793-3.662-1.793-5.695-5.014-2.033-3.222-2.033-7.517v-25.505h8.304v24.795q0 2.244.987 3.989.988 1.745 2.79 2.742 1.803.997 4.2.997 2.416 0 4.21-.997 1.792-.997 2.78-2.742.987-1.745.987-3.989zm44.232-13.5h-7.958q-.23-2.32-1.975-3.605-1.745-1.285-4.737-1.285-2.032 0-3.432.566-1.4.565-2.138 1.563-.739.997-.739 2.262-.038 1.055.45 1.841.49.787 1.353 1.352.863.566 1.994.978 1.131.413 2.416.7l3.529.844q2.57.575 4.717 1.534 2.148.959 3.72 2.359 1.573 1.4 2.445 3.298.873 1.898.892 4.353-.02 3.605-1.831 6.242-1.813 2.637-5.216 4.084-3.404 1.448-8.198 1.448-4.756 0-8.275-1.457-3.518-1.458-5.484-4.324-1.966-2.867-2.061-7.105h8.034q.135 1.975 1.141 3.288 1.007 1.314 2.704 1.976 1.697.661 3.845.661 2.11 0 3.672-.613 1.563-.614 2.426-1.707.863-1.093.863-2.512 0-1.323-.777-2.225-.776-.9-2.263-1.534-1.486-.633-3.633-1.15l-4.277-1.074q-4.966-1.208-7.843-3.778-2.876-2.57-2.857-6.922-.02-3.567 1.908-6.233 1.927-2.665 5.302-4.16 3.375-1.497 7.67-1.497 4.373 0 7.642 1.496 3.27 1.496 5.092 4.161 1.821 2.666 1.879 6.175zM354.57 589h-26.54v-39.273h26.463v6.846h-18.16v9.358h16.798v6.846h-16.798v9.377h18.237V589zm14.682 0h-8.303v-39.273h15.494q4.449 0 7.603 1.582 3.155 1.582 4.814 4.468 1.658 2.886 1.658 6.78 0 3.911-1.687 6.72-1.688 2.81-4.88 4.305-3.193 1.496-7.719 1.496h-10.374v-6.673h9.032q2.378 0 3.95-.652 1.573-.652 2.35-1.956.776-1.304.776-3.24 0-1.957-.777-3.3-.776-1.342-2.358-2.041-1.583-.7-3.98-.7h-5.599V589zm3.95-17.872h8.956l9.76 17.872h-9.166l-9.55-17.872zm261.34-232.651h-8.4q-.23-1.63-.94-2.906-.709-1.275-1.82-2.176-1.113-.901-2.56-1.38-1.449-.48-3.136-.48-3.05 0-5.312 1.505-2.263 1.505-3.51 4.372-1.246 2.867-1.246 6.952 0 4.2 1.256 7.056 1.256 2.858 3.52 4.315 2.262 1.457 5.234 1.457 1.669 0 3.097-.44 1.429-.442 2.541-1.295 1.112-.853 1.85-2.08.739-1.228 1.026-2.8l8.4.038q-.326 2.704-1.62 5.206-1.295 2.503-3.472 4.468-2.176 1.966-5.177 3.107-3.001 1.14-6.779 1.14-5.254 0-9.387-2.377-4.132-2.378-6.52-6.884-2.387-4.507-2.387-10.911 0-6.424 2.416-10.93 2.416-4.507 6.558-6.875 4.142-2.369 9.32-2.369 3.413 0 6.338.96 2.924.958 5.187 2.79 2.263 1.83 3.691 4.477 1.429 2.646 1.832 6.06zM648.649 364h-8.304v-39.273h15.495q4.449 0 7.603 1.582 3.155 1.582 4.813 4.468 1.659 2.886 1.659 6.78 0 3.911-1.687 6.72-1.688 2.81-4.88 4.305-3.194 1.496-7.72 1.496h-10.374v-6.673h9.032q2.378 0 3.95-.652 1.573-.652 2.35-1.956.776-1.304.776-3.24 0-1.957-.776-3.3-.777-1.342-2.359-2.041-1.582-.7-3.979-.7h-5.6V364zm3.95-17.872h8.955l9.76 17.872h-9.165l-9.55-17.872zM702.163 364h-26.54v-39.273h26.463v6.846h-18.16v9.358h16.798v6.846h-16.798v9.377h18.237V364zm20.3 0h-13.921v-39.273h14.037q5.925 0 10.201 2.35 4.277 2.348 6.587 6.74 2.311 4.391 2.311 10.508 0 6.137-2.31 10.547-2.311 4.41-6.616 6.77Q728.447 364 722.464 364zm-5.618-32.158v25.044h5.273q3.682 0 6.204-1.314 2.522-1.313 3.797-4.084 1.275-2.771 1.275-7.163 0-4.353-1.275-7.114t-3.787-4.065q-2.513-1.304-6.194-1.304h-5.293zM774.195 364h-26.54v-39.273h26.463v6.846h-18.16v9.358h16.798v6.846h-16.798v9.377h18.236V364zm30.962-39.273h8.265V364h-7.172l-17.086-24.718h-.287V364h-8.304v-39.273h7.287l16.952 24.7h.345v-24.7zm25.479 6.846h-12.024v-6.846h32.254v6.846h-12.023V364h-8.207v-32.427zm25.401-6.846h8.304V364h-8.304v-39.273zm31.615 8.975L877.796 364h-8.898l13.558-39.273h10.7L906.694 364h-8.898l-9.837-30.298h-.307zm-10.412 21.343v-6.482h21.017v6.482H877.24zM936.39 364h-25.14v-39.273h8.304v32.427h16.836V364zm34.607-27.978h-7.958q-.23-2.32-1.976-3.605-1.745-1.285-4.736-1.285-2.033 0-3.433.566-1.4.565-2.138 1.563-.738.997-.738 2.262-.038 1.055.45 1.841.49.787 1.353 1.352.863.566 1.994.978 1.131.413 2.416.7l3.529.844q2.57.575 4.717 1.534 2.148.959 3.72 2.359t2.445 3.298q.872 1.898.892 4.353-.02 3.605-1.832 6.242t-5.216 4.084q-3.403 1.448-8.197 1.448-4.756 0-8.275-1.457-3.519-1.458-5.484-4.324-1.966-2.867-2.062-7.105h8.035q.134 1.975 1.141 3.288 1.007 1.314 2.704 1.976 1.697.661 3.845.661 2.11 0 3.672-.613 1.563-.614 2.426-1.707.863-1.093.863-2.512 0-1.323-.777-2.225-.777-.9-2.263-1.534-1.486-.633-3.634-1.15l-4.276-1.074q-4.966-1.208-7.843-3.778-2.876-2.57-2.857-6.922-.02-3.567 1.908-6.233 1.927-2.665 5.302-4.16 3.375-1.497 7.67-1.497 4.373 0 7.642 1.496 3.27 1.496 5.091 4.161 1.822 2.666 1.88 6.175z" fill="#333" fill-rule="nonzero"></path><path fill="#FE3636" d="M1309 702l63-88h-126z"></path><path fill="#FE3636" d="M1333 586v49h-49v-49zm-25 585l63-88h-126z"></path><path fill="#FE3636" d="M1332 1055v49h-49v-49z"></path></g></svg>