<svg viewBox="0 0 1948 1298" xmlns="http://www.w3.org/2000/svg"><g fill="none" fill-rule="evenodd"><path fill="#30D314" d="M1063 903l-88 63V840zM584 280l88 63V217zm978 168l63-88h-126z"></path><path fill="#30D314" d="M579 878h413v49H579zm84-622h754v49H663zM579 66h994v49H579z"></path><path fill="#30D314" d="M1586.5 65.5v310h-49v-310zM1416 265v183h-49V265z"></path><g transform="translate(319.500000, 826.500000) scale(-1, 1) translate(-319.500000, -826.500000) translate(93.000000, 677.000000)" fill-rule="nonzero"><path d="M0 299l.066-123.066a4.895 4.895 0 0 1 4.895-4.892c31.61-.002 63.219-.002 94.828-.002 1.958-.77 1.258-1.259.979-1.748-6.084-10.07-10.07-20.907-11.609-32.655-3.426-26.92 4.196-50.345 22.518-70.413a69.77 69.77 0 0 1 3.216-3.216c.91-.91.91-.91.07-1.748-2.867-2.727-5.454-5.734-7.622-9.09-4.895-7.762-7.622-16.223-7.832-25.452-.07-2.308.42-2.588 2.517-1.539 2.238 1.119 4.546 2.098 6.993 2.867.28-4.055-.21-7.412-.28-10.838 0-1.259-.07-2.447 0-3.706 0-1.748.63-2.168 2.168-1.259 2.448 1.399 4.895 2.657 7.483 3.706 1.538.63 1.538.63 1.398-1.049-.42-4.405-.49-8.81 0-13.215.42-1.678 1.19-1.958 1.749-1.469.42.35.699.84 1.049 1.26 5.384 6.712 11.398 12.725 18.6 17.55 6.294 4.195 13.077 6.503 20.63 6.573 5.664.07 11.118-1.119 16.363-3.147 4.895-1.888 9.79-3.846 14.895-4.964 5.175-1.12 10.42-1.609 15.594-.35 8.811 2.168 14.755 7.831 18.461 15.943 1.399 3.076 2.168 6.293 2.658 9.649.21 1.259.21 1.259 1.538 1.189 7.692-.56 15.105.63 21.818 4.615 8.042 4.824 12.517 12.096 14.265 21.117 1.26 6.642.91 13.215-.14 19.858-.839 5.174-2.237 10.279-3.915 15.243-.42 1.259-.7 1.189.839 1.748 7.832 2.657 12.727 8.042 14.125 16.153 1.958 11.118-5.174 20.977-15.524 23.424-1.888.42-3.846.7-5.804.49-.84-.14-1.119.28-1.329 1.048-1.468 5.315-3.496 10.489-5.944 15.454-5.034 9.999-11.748 18.6-20.14 25.941-1.887 1.329-2.027 2.098-1.607 3.147.979 2.727 1.818 5.524 2.727 8.25 5.664 17.621 11.398 35.172 16.992 52.793.42 1.259.98 1.748 2.238 1.958 5.525 1.189 9.021 4.615 10.49 10.069.28 1.189.49 2.447.699 3.636 1.329-.77 1.888-1.538 2.727-2.238 2.378-1.957 5.035-2.377 7.902-1.398 2.937 1.049 4.685 3.216 5.105 6.293.14 1.049.42 1.329 1.468 1.468 4.895.77 7.762 5.594 6.154 10.35-.42 1.188-.28 2.027.56 3.006 2.167 2.587 3.426 5.594 3.846 8.95.21 1.468 0 1.468 1.608 1.468h28.88c0-2.936-.908-5.244-1.398-7.761-3.287.21-5.524.77-7.692 1.468-1.259.42-1.888.14-2.098-.56-.21-.628.28-1.118 1.469-1.467 2.028-.63 4.055-1.19 6.083-1.818 2.028-.63 1.679-.14 1.679-2.378.07-1.049-.35-1.189-.91-1.189h-10.07c-1.817-.07-2.097-.42-2.097-.979 1.329-1.048 1.678-.978 2.098-.978h9.93c.909 0 1.258-.28 1.398-1.19.35-2.377.42-2.377-1.958-3.076-1.958-.63-3.986-1.188-5.944-1.748-1.538-.63-1.748-1.049-1.608-1.538 1.538-.7 1.958-.56 2.448-.42 2.377.7 4.685 1.399 7.062 2.168 3.217-4.965 5.944-8.46 9.65-11.118.7-.49.84-1.049.84-1.818v-21.606c.14-.98.839-1.329 1.678-.84 6.923 6.434 13.007 12.097 19.02 17.691 1.609 1.539 1.12 1.539 2.938.21 13.076-9.3 30.629-9.3 43.705 0 1.679 1.189 1.19 1.468 3.007-.21 6.154-5.664 12.238-11.257 18.392-16.921.559-.49 1.049-1.329 1.958-.98.979.35.629 1.33.629 2.029v31.395c0 2.028 0 2.028 1.888 1.469 1.678-.49 3.287-.98 4.965-1.469 2.378.98 2.238 1.469 1.608 1.678l-3.986 1.26-3.566 1.048c-.979 1.608-.979 2.657-.91 3.636 5.036.42 8.113.42 11.19.42 1.748.21 2.097.559 2.028 1.048-1.26.98-1.749.98-2.168.98h-9.72c-1.399 0-1.469 0-1.469 1.328 0 2.167-.14 1.678 1.678 2.237 1.888.63 3.846 1.12 5.804 1.748 1.609.7 1.819 1.12 1.609 1.679-4.126-.21-6.014-.84-7.972-1.399-1.119 2.867-1.119 4.895-1.119 6.993 0 .769.21 1.188 1.049 1.118h30.21c.769 0 1.538-.07 2.307.35v1.328c-1.748.42-2.238.42-2.797.42H0z" fill="#151D38"></path><path d="M81.12 286.76v-.139h77.963c1.828 0 1.828 0 1.828-1.81V176.339c-.07-1.88-1.125-2.994-3.023-3.203-.632-.07-1.265 0-1.828 0H5.405c-2.601.07-3.656 1.184-3.656 3.69V285.09c0 1.602 0 1.602 1.687 1.602h1.195c25.45.07 50.969.07 76.488.07z" fill="#CCD6DA"></path><path d="M131.572 171.025h25.42c2.647 0 4.667 1.543 5.154 3.928.14.632.14 1.193.14 1.824v28.969c0 1.613.139 1.543 1.392 1.683 10.238 1.262 20.336.701 30.295-1.894 22.705-5.962 39.907-19.289 51.677-39.63 3.343-5.752 5.85-11.924 7.66-18.377.349-1.263.349-1.263-.835-1.613l-1.88-.632c-1.185-.49-1.533-.912-1.324-1.613.209-.772.836-.842 2.09-.42 3.342 1.262 6.685 1.542 10.168.911 10.307-2.034 16.923-12.555 14.207-22.726-2.786-10.381-13.511-16.273-23.54-12.906-.487.14-.905.42-1.393.49-.487.071-.835-.21-1.044-.63-.21-.491-.07-.912.278-1.193.279-.21.557-.35.906-.42a26.872 26.872 0 0 1 2.228-.702c.14-.07.348-.14.418-.28.14-.351-.209-.281-.418-.351-.278-.14-.627-.21-.975-.351-5.223-1.824-10.238-4.138-14.834-7.225-8.357-5.47-14.834-12.625-19.013-21.814-1.95-4.349-3.273-8.908-4.04-13.677-.208-1.403-.278-1.403-1.462-.772-.418.21-.766.42-1.184.701-6.198 3.648-12.536 6.734-19.222 9.26-14.416 5.4-29.18 7.574-44.433 4.839-10.586-1.894-20.475-5.682-29.111-12.345-1.114-.842-1.114-.842-2.02.07-7.8 7.505-13.998 16.133-18.456 25.953-6.894 15.36-8.984 31.353-6.407 47.977 1.741 11.292 5.78 21.744 11.77 31.423.697 1.193 1.463 1.684 2.925 1.684 8.218-.21 16.506-.14 24.863-.14z" fill="#FAE0D6"></path><path d="M162.74 248.312v37.97c0 .844.21 1.196 1.12 1.196 1.888-.07 3.777 0 5.735 0 7.064 0 14.129-.07 21.123-.07 1.469 0 1.609.21 1.609 1.687v6.89c0 1.126-.14 1.266 1.119 1.266h26.998c.91 0 1.119-.351 1.189-1.125.28-2.531 1.05-4.992 2.378-7.172.49-.773.56-1.476.21-2.39-1.469-4.36-2.868-8.79-4.267-13.15-3.427-10.688-6.924-21.376-10.351-32.064a6.939 6.939 0 0 1-.35-1.125c-.14-.633.14-1.125.77-1.265.559-.141.979.14 1.188.632l.21.633 7.344 22.783c2.308 7.172 4.617 14.344 6.995 21.446.42 1.195.42 1.266 1.329.422 2.518-2.461 5.455-4.078 8.882-4.852 1.05-.281 1.12-.281.84-1.336-.56-2.32-1.19-4.711-1.679-7.032-1.609-7.031 2.658-14.274 9.582-16.102.42-.14.91-.14 1.33-.281.489-.07.699-.352.489-.844-.07-.281-.14-.562-.28-.773-5.455-17.017-10.981-34.104-16.437-51.12-.979-3.164-2.028-6.328-3.077-9.493-.21-.704-.56-.984-1.12-.351-.21.21-.419.351-.699.492-4.616 3.445-9.582 6.469-14.828 8.86-10.211 4.71-20.983 7.383-32.244 7.805-4.756.21-9.512.14-14.198-.563-.77-.14-1.05.14-.98.844v1.336c.07 12.305.07 24.61.07 36.846z" fill="#FFF3A2"></path><path d="M385.887 297.11h30.632c1.465 0 1.465 0 1.465-1.484v-51.744c0-.283.14-.636-.14-.777-.418-.212-.557.212-.836.424-3.768 3.534-7.536 6.998-11.374 10.532-2.303 2.12-4.605 4.312-6.908 6.433-.977.919-1.116.848-2.163.141-.349-.212-.628-.495-.907-.707-5.512-4.17-11.653-6.644-18.49-7.14-9.141-.706-17.445 1.839-24.771 7.494-1.605 1.272-1.605 1.272-3.07-.071-.07-.07-.14-.141-.28-.212a3655.343 3655.343 0 0 0-16.676-15.693c-.419-.424-.837-1.201-1.396-.99-.418.213-.209.99-.209 1.556v18.308c0 .848-.07 1.555-.977 2.12-10.048 6.857-12.42 20.217-6.559 30.538.558.99 1.186 1.413 2.373 1.413 7.396-.07 14.862 0 22.258-.07.489 0 1.186.212 1.396-.212.21-.424-.489-.778-.837-1.131-3.629-3.959-4.745-8.554-3.21-13.643 1.535-5.09 5.093-8.13 10.117-9.33 1.047-.284 2.094-.425 3.14-.284.558.071.907.425.907 1.06 0 .496-.279.849-.837.92-.628.07-1.186.141-1.814.212-4.815.636-8.931 4.312-9.908 9.048-1.047 4.877 1.046 9.825 5.233 12.44 1.047.637 2.163.99 3.489.99 10.327-.212 20.374-.14 30.352-.14z" fill="#C27659"></path><path d="M81.249 288.582c-14.268.063-28.536.063-42.803.063H2.742c-.703 0-1.054.25-.984.873v3.74c0 2.245 0 2.245 2.53 2.245 20.03 0 40.132 0 60.163-.062 31.276 0 62.482-.063 93.758-.063h1.336c.984-.062 1.335-.374 1.335-1.247.07-1.62 0-3.18 0-4.8 0-.686-.351-.873-1.054-.811h-1.195c-7.45 0-14.83.062-22.28.062H81.249zm174.042 8.598h30.71c.623.071.9-.142.83-.852-.346-2.985-1.383-5.686-3.181-8.102-.277-.426-.554-.355-.692.142-.07.214-.138.427-.277.64-2.282 4.903-7.954 6.254-12.104 2.843-.76-.64-1.245-.782-2.144-.356-2.56 1.066-4.98.71-7.263-.853-2.42-1.705-3.527-4.121-3.32-7.177.07-1.066 0-1.137-.899-.853-2.144.569-4.15.355-6.086-.782-.485-.284-.9-.284-1.453-.284-3.182 0-6.433-.07-9.614 0-7.332.142-13.626 5.33-15.494 12.65a13.904 13.904 0 0 0-.415 2.345c-.069.497.139.71.623.71h1.314c9.891-.07 19.713-.07 29.465-.07z" fill="#CCD6DA"></path><path d="M243.128 278.52h3.827c.505 0 .794-.136.577-.676-1.444-3.719-1.66-7.707-2.527-11.56-.216-.88.145-1.42.794-1.555.65-.136 1.083.27 1.3 1.149.217.879.361 1.825.505 2.704.434 2.299.795 4.597 1.3 6.828.722 3.042 3.683 4.8 6.932 4.259 3.177-.609 5.198-3.313 4.693-6.355-.433-2.636-.867-5.205-1.516-7.774-1.372-5.746-7.51-9.397-13.647-8.315-5.848 1.014-10.108 6.76-9.097 12.371.505 2.704 1.371 5.34 2.021 8.045.145.608.506.879 1.228.879h3.61zm17.478 5.875c.143 1.964.786 3.508 2.359 4.63 3.287 2.386 7.718 1.193 9.147-2.595 1.358-3.719 2.645-7.508 3.93-11.296.144-.421.215-.842.287-1.333.214-2.736-1.43-5.192-4.145-6.034-2.645-.772-5.575.35-6.861 2.806-.858 1.684-1.572 3.508-1.858 5.403a11.203 11.203 0 0 1-1.358 3.929c-.858 1.473-1.358 3.017-1.5 4.49z" fill="#FAE0D6"></path><path d="M176.368 295.503v-.063h13.069c.71-.063 1.208-.315 1.208-1.008v-5.293c0-.441-.284-.63-.782-.63h-17.33c-2.912 0-5.824.063-8.665.063-.853 0-1.208.252-1.208 1.008.071 1.575 0 3.15 0 4.663 0 1.197 0 1.26 1.42 1.26h12.288z" fill="#CCD6DA"></path><path d="M283.344 282.21c0-3.13-2.014-5.375-5.071-5.851-1.342-.204-1.491-.136-1.939 1.02-.82 2.178-1.566 4.355-2.386 6.464-.746 1.905-1.119 4.014-2.61 5.647-.522.544-.075.885.298 1.225 3.132 2.381 7.905 1.36 9.545-2.177.746-1.633 1.342-3.334 1.939-5.035.224-.545.224-1.089.224-1.293z" fill="#FAE0D6"></path><path d="M101.413 231.165c-.554 8.504-5.822 14.847-13.584 16.66-9.98 2.37-19.822-4.531-21.209-14.778-1.178-8.644 4.367-17.427 13.377-19.518 1.94-.419 2.08-.349 2.356 1.603 1.179 6.622 5.614 11.502 12.06 12.966 1.525.348 3.05.418 4.644.278 2.079-.209 2.287 0 2.356 2.092.07.348 0 .697 0 .697z" fill="#151D38"></path><path d="M84.26 246.543c1.061-.071 2.475-.215 3.889-.573 6.291-1.719 11.24-7.736 11.522-14.183.07-1.432.07-1.432-1.272-1.432-8.412.143-15.764-5.587-17.673-13.896-.424-1.863-.636-1.433-1.767-1.075-7.281 2.436-11.805 10.028-10.533 17.836 1.202 7.593 7.917 13.395 15.835 13.323z" fill="#FFF"></path><path d="M160.585 107.298h23.04c3.528 0 7.057.142 10.585.213 1.66.07 2.076.638 1.315 2.055-5.19 9.847-12.8 16.72-23.662 19.057-10.932 2.338-20.549-.708-28.782-8.43-3.252-3.047-5.743-6.731-7.75-10.77-.207-.424-.414-.778-.553-1.204-.276-.85 0-1.275.9-1.487.346-.071.692-.071.968-.071l20.41.212c1.177 0 2.284.142 3.46.142.07.142.07.213.07.283z" fill="#151D38"></path><path d="M166.286 108.68h-6.251c-2.6 0-5.128 0-7.726-.136-4.425-.135-8.85-.135-13.275-.135-.984 0-1.054.068-.562.878a31.794 31.794 0 0 0 6.743 8.435c7.726 6.748 16.716 9.515 26.97 7.558 9.413-1.822 16.296-7.086 21.353-14.779.913-1.417.913-1.484-.843-1.484-8.78-.135-17.63-.27-26.41-.338z" fill="#FFF"></path><path d="M99.695 118.027c0-5.717 4.289-11.297 11.437-11.366 6.263-.068 11.3 5.105 11.3 11.366 0 6.329-5.037 11.365-11.368 11.365-6.263-.068-11.369-5.104-11.369-11.365zm134.659 1.783c.273 5.46-4.435 11.262-11.326 11.33-6.278 0-11.327-5.05-11.395-11.33 0-6.416 4.981-11.398 11.395-11.398 6.754-.137 11.667 5.665 11.326 11.398z" fill="#E5384A"></path><path d="M126.767 92.673c3.454 0 6.233 2.703 6.158 6.157 0 3.379-2.704 6.082-6.008 6.082-3.455 0-6.234-2.703-6.234-6.157 0-3.304 2.704-6.007 6.084-6.082zm78.783 1.75c3.455 0 6.083 2.702 6.083 6.23-.075 3.379-2.779 6.081-6.158 6.006-3.305 0-6.084-2.777-6.084-6.08a6 6 0 0 1 6.159-6.156zM269.35 126c-.07 7.11-7.36 12.123-14.3 9.82-.21-.068-.421-.135-.631-.27-.702-.272-.982-.746-.702-1.423.21-.61.842-.678 1.403-.542.35.068.77.27 1.121.339 4.837 1.286 9.885-1.694 10.866-6.367.982-4.809-2.383-9.347-7.36-10.024-.421-.068-.912-.135-1.333-.203-.49-.068-.77-.474-.77-.948 0-.61.35-.88.91-.948.351-.068.772 0 1.192 0 5.538.61 9.675 5.147 9.604 10.565zM166.155 92.122c0 .497-.39.78-.845.993a121.052 121.052 0 0 1-4.158 2.272c-.585.284-.715.567-.13.993 1.17.852 2.274 1.775 3.443 2.627.325.212.585.425.845.71.325.354.325.851.065 1.277-.26.426-.65.497-1.105.355-.26-.071-.455-.213-.65-.426-1.754-1.349-3.573-2.697-5.327-4.117-1.235-.993-1.17-1.703.195-2.484 1.949-1.136 3.963-2.2 5.977-3.265.975-.355 1.754 0 1.69 1.065zm-54.217 3.914c.2-5.067 3.516-9.265 8.226-10.206.531-.145 1.062-.217 1.593-.073.398.073.663.435.663.869.066.507-.133.94-.597 1.086-.464.144-.929.217-1.393.29-3.583.795-5.97 3.69-6.369 7.6-.066.434-.066.796-.066 1.23-.067.652-.332 1.086-.995 1.086-.664 0-.93-.507-.995-1.158-.067-.217-.067-.434-.067-.724zM218.63 96c0 .284 0 .781-.07 1.207-.136.498-.478.711-.957.711-.48 0-.821-.284-.89-.782-.068-.355 0-.71-.068-.995-.206-4.193-2.875-7.39-6.844-8.172-.205-.071-.41-.071-.616-.142-.684-.143-1.163-.498-1.026-1.28.136-.781.752-.924 1.368-.852 2.327.284 4.312 1.208 6.023 2.842 1.916 2.061 2.942 4.477 3.08 7.462zM373.7 291.99c-2.625-.075-4.399-.826-5.746-2.629-.568-.676-.78-.676-1.348 0-2.483 2.93-6.1 3.455-9.008 1.427-.993-.676-1.774-1.652-2.341-2.779-.284-.6-.355-1.352.355-1.727.709-.376 1.135 0 1.49.676a7.1 7.1 0 0 0 .85 1.352c2.341 2.629 6.455 1.802 7.732-1.502.284-.751.355-1.202-.568-1.427-1.276-.376-2.057-1.428-2.908-2.404-.354-.376-.567-.901-.638-1.427-.213-1.052.142-1.728 1.206-1.728a180.1 180.1 0 0 1 9.008 0c.993 0 1.348.676 1.064 1.728-.425 1.727-1.702 2.629-2.98 3.53-.425.3-1.134.225-1.276.751-.142.676.284 1.352.71 1.953 1.915 2.78 5.745 2.78 7.731 0 .213-.3.426-.751.638-1.051.355-.526.852-.601 1.348-.376.497.3.639.826.426 1.352a7.123 7.123 0 0 1-1.915 2.704c-1.277 1.051-2.696 1.652-3.83 1.577zm23.332-19.216c2.998 0 5.246 2.322 5.246 5.244 0 2.996-2.398 5.318-5.396 5.243-2.923-.075-5.171-2.397-5.096-5.393-.075-2.922 2.248-5.17 5.246-5.094zm-61.255 10.489c-2.902 0-5.21-2.232-5.21-5.208s2.159-5.209 5.136-5.283c3.052 0 5.359 2.232 5.359 5.208-.075 2.977-2.307 5.283-5.285 5.283z" fill="#151D38"></path></g><path d="M275.86 1040.522v-24.795h8.302v25.505q0 4.295-2.042 7.517-2.042 3.221-5.705 5.014-3.662 1.793-8.533 1.793-4.89 0-8.553-1.793-3.662-1.793-5.695-5.014-2.033-3.222-2.033-7.517v-25.505h8.304v24.795q0 2.244.987 3.989.988 1.745 2.79 2.742 1.803.997 4.2.997 2.416 0 4.21-.997 1.792-.997 2.78-2.742.987-1.745.987-3.989zm44.232-13.5h-7.958q-.23-2.32-1.975-3.605-1.745-1.285-4.737-1.285-2.032 0-3.432.566-1.4.565-2.138 1.563-.739.997-.739 2.262-.038 1.055.45 1.841.49.787 1.353 1.352.863.566 1.994.978 1.131.413 2.416.7l3.529.844q2.57.575 4.717 1.534 2.148.959 3.72 2.359 1.573 1.4 2.445 3.298.873 1.898.892 4.353-.02 3.605-1.831 6.242-1.813 2.637-5.216 4.084-3.404 1.448-8.198 1.448-4.756 0-8.275-1.457-3.518-1.458-5.484-4.324-1.966-2.867-2.061-7.105h8.034q.135 1.975 1.141 3.288 1.007 1.314 2.704 1.976 1.697.661 3.845.661 2.11 0 3.672-.613 1.563-.614 2.426-1.707.863-1.093.863-2.512 0-1.323-.777-2.225-.776-.9-2.263-1.534-1.486-.633-3.633-1.15l-4.277-1.074q-4.966-1.208-7.843-3.778-2.876-2.57-2.857-6.922-.02-3.567 1.908-6.233 1.927-2.665 5.302-4.16 3.375-1.497 7.67-1.497 4.373 0 7.642 1.496 3.27 1.496 5.092 4.161 1.821 2.666 1.879 6.175zM352.57 1055h-26.54v-39.273h26.463v6.846h-18.16v9.358h16.798v6.846h-16.798v9.377h18.237V1055zm14.682 0h-8.303v-39.273h15.494q4.449 0 7.603 1.582 3.155 1.582 4.814 4.468 1.658 2.886 1.658 6.78 0 3.911-1.687 6.72-1.688 2.81-4.88 4.305-3.193 1.496-7.719 1.496h-10.374v-6.673h9.032q2.378 0 3.95-.652 1.573-.652 2.35-1.956.776-1.304.776-3.24 0-1.957-.777-3.3-.776-1.342-2.358-2.041-1.583-.7-3.98-.7h-5.599V1055zm3.95-17.872h8.956l9.76 17.872h-9.166l-9.55-17.872z" fill="#333" fill-rule="nonzero"></path><g transform="translate(1101.000000, 475.000000)" fill-rule="nonzero"><path d="M374.582.041a50.377 50.377 0 0 0-19.362 5.125L93.014 130.141a49.637 49.637 0 0 0-27.056 33.665L1.777 444.293c-3.059 13.165-.589 26.965 7.058 38.25a59.885 59.885 0 0 0 2.823 3.949l181.156 225.076c9.576 11.755 23.95 18.502 39.102 18.432h290.556c15.198.023 29.597-7.053 39.149-18.643l181.062-225.124c9.505-11.754 13.057-27.27 9.41-41.987L687.49 163.524c-3.411-14.764-13.41-27.154-27.056-33.666L398.65 5.19A50.38 50.38 0 0 0 374.347.04h.235z" fill="#326CE5"></path><path d="M376.7 94c-9.043.636-15.897 8.382-15.426 17.423v4.426c.424 5.015 1.178 9.983 2.167 14.903a146.405 146.405 0 0 1 1.554 28.489 17.165 17.165 0 0 1-5.134 8.123l-.353 6.639c-9.538.8-19.005 2.26-28.331 4.38-39.236 8.852-74.962 29.194-102.54 58.506l-5.652-4.002a12.19 12.19 0 0 1-9.303-.942 146.471 146.471 0 0 1-21.124-19.07 130.685 130.685 0 0 0-10.292-10.949l-3.486-2.778a18.826 18.826 0 0 0-10.904-4.12 15.074 15.074 0 0 0-12.505 5.556c-5.322 7.464-3.58 17.8 3.862 23.144l3.25 2.59a130.715 130.715 0 0 0 13 7.605c8.337 4.638 16.203 10.077 23.504 16.48a17.42 17.42 0 0 1 3.132 9.042l5.134 4.709c-27.719 41.579-39.094 91.94-31.982 141.406l-6.594 1.883c-1.719 2.731-4.003 5.062-6.735 6.781a146.522 146.522 0 0 1-28.12 4.638c-5.042.103-10.075.496-15.072 1.177l-4.169.942h-.47a15.771 15.771 0 1 0-9.114 26.652 15.782 15.782 0 0 0 16.108 3.885h.306l4.24-.47c4.78-1.414 9.49-3.156 14.082-5.134 8.832-3.531 17.993-6.239 27.366-8.005a17.175 17.175 0 0 1 8.997 3.179l7.065-1.177a203.976 203.976 0 0 0 90.434 113.082l-2.873 6.004a15.703 15.703 0 0 1 1.413 8.853 152.004 152.004 0 0 1-14.2 25.71 131.374 131.374 0 0 0-8.432 12.549l-2.002 4.238a15.77 15.77 0 0 0 .437 16.47 15.78 15.78 0 0 0 14.871 7.098 15.778 15.778 0 0 0 13.024-10.172l1.954-4.002a130.055 130.055 0 0 0 4.522-14.362c4.169-10.289 6.43-21.331 12.129-28.159a12.721 12.721 0 0 1 6.735-3.296l3.533-6.428a203.06 203.06 0 0 0 144.742.354l3.132 6.003c3.203.471 6.076 2.237 8.008 4.827a148.173 148.173 0 0 1 10.739 26.37 131.115 131.115 0 0 0 4.569 14.385l1.954 4.002a15.78 15.78 0 0 0 27.955 3.084 15.77 15.77 0 0 0 .377-16.504l-2.05-4.238a130.668 130.668 0 0 0-8.43-12.502c-5.417-7.816-10.08-16.151-14.13-24.886a12.24 12.24 0 0 1 1.6-9.418 53.908 53.908 0 0 1-2.613-6.333 204.247 204.247 0 0 0 90.034-113.483l6.688 1.178a12.499 12.499 0 0 1 8.785-3.25c9.35 1.79 18.51 4.71 27.365 8.005a118.883 118.883 0 0 0 14.084 5.416c1.13.306 2.779.565 4.05.87h.307a15.782 15.782 0 0 0 16.072-3.922 15.771 15.771 0 0 0 3.734-16.113 15.778 15.778 0 0 0-12.812-10.501l-4.569-1.083a131.213 131.213 0 0 0-15.072-1.177 143.69 143.69 0 0 1-28.12-4.638 17.703 17.703 0 0 1-6.782-6.781l-6.359-1.884a203.613 203.613 0 0 0-32.641-141.1l5.558-5.132a12.395 12.395 0 0 1 2.92-8.9 147.919 147.919 0 0 1 23.315-16.387 131.186 131.186 0 0 0 13-7.605l3.439-2.778a15.773 15.773 0 0 0-3.133-28.3 15.782 15.782 0 0 0-16.39 3.79l-3.486 2.779a131.156 131.156 0 0 0-10.292 10.948 146.88 146.88 0 0 1-20.56 19.377 17.432 17.432 0 0 1-9.514 1.036l-5.959 4.238A205.77 205.77 0 0 0 393.87 174.38c0-2.355-.307-5.886-.354-6.993-2.66-1.836-4.521-4.638-5.134-7.817a146.64 146.64 0 0 1 1.79-28.417 132.86 132.86 0 0 0 2.167-14.904v-4.709a16.582 16.582 0 0 0-15.426-17.422L376.7 94zm-19.64 121.63l-4.71 82.239h-.353c-.236 5.085-3.227 9.417-7.82 11.866-4.592 2.449-10.032 1.719-14.13-1.271l-67.472-47.795a161.57 161.57 0 0 1 77.787-42.356 166.706 166.706 0 0 1 16.65-2.684h.048zm39.282 0a163.084 163.084 0 0 1 93.968 45.298l-66.837 47.489a13.84 13.84 0 0 1-14.555 1.695c-4.78-2.26-7.842-7.063-7.913-12.337l-4.663-82.146zm-158.26 75.976l61.703 55.046v.353c3.838 3.344 5.51 8.547 4.38 13.515s-4.946 8.9-9.82 10.242v.235l-79.178 22.767a161.477 161.477 0 0 1 22.939-102.181l-.024.023zm276.79 0a164.35 164.35 0 0 1 23.599 101.876l-79.295-22.838v-.306c-4.946-1.342-8.714-5.274-9.821-10.242a13.933 13.933 0 0 1 4.38-13.514l61.232-54.788-.094-.188zm-150.818 59.331H389.3l15.425 19.59-5.605 24.485-22.679 10.901-22.726-10.901-5.346-24.486 15.684-19.589zm80.873 66.819c1.06-.118 2.355-.118 3.18 0l81.65 13.773c-11.775 33.904-35.02 62.863-65.353 82.24l-31.558-76.378a13.888 13.888 0 0 1 .994-12.747 13.896 13.896 0 0 1 10.993-6.535l.094-.353zm-137.135.353a13.875 13.875 0 0 1 11.398 6.31c2.52 3.86 2.92 8.711 1.107 12.949v.306l-31.37 75.765c-30.026-19.235-52.823-47.842-64.952-81.392l80.944-13.726a13.242 13.242 0 0 1 2.732 0l.14-.212zm68.391 32.962a13.896 13.896 0 0 1 12.647 7.251h.306l39.895 71.975-15.944 4.709a162.408 162.408 0 0 1-88.503-4.568l40.036-71.974c2.425-4.238 6.9-6.828 11.775-6.946l-.212-.447z" stroke="#FFF" stroke-width=".5" fill="#FFF"></path></g><g transform="translate(151.000000, 0.000000)"><path fill="#FFF3A2" d="M0 55h395v250H0z"></path><ellipse fill="#FFF3A2" cx="197.5" cy="304.5" rx="197.5" ry="47.5"></ellipse><ellipse fill="#FAEB82" cx="197.5" cy="47.5" rx="197.5" ry="47.5"></ellipse><path d="M154.577 224h-25.14v-39.273h8.304v32.427h16.836V224zm19.177 0h-13.922v-39.273h14.037q5.925 0 10.201 2.35 4.277 2.348 6.587 6.74 2.311 4.391 2.311 10.508 0 6.137-2.31 10.547-2.311 4.41-6.616 6.77Q179.737 224 173.754 224zm-5.619-32.158v25.044h5.274q3.681 0 6.203-1.314 2.522-1.313 3.797-4.084 1.275-2.771 1.275-7.163 0-4.353-1.275-7.114t-3.787-4.065q-2.512-1.304-6.194-1.304h-5.293zm45.141 1.86L203.419 224h-8.897l13.557-39.273h10.7L232.319 224h-8.898l-9.837-30.298h-.307zm-10.413 21.343v-6.482h21.017v6.482h-21.017zM245.09 224h-8.303v-39.273h15.495q4.468 0 7.612 1.697 3.145 1.697 4.804 4.699 1.659 3 1.659 6.913 0 3.911-1.688 6.903-1.687 2.991-4.88 4.66-3.193 1.668-7.718 1.668h-9.876v-6.654h8.533q2.397 0 3.96-.834 1.563-.834 2.34-2.32.776-1.487.776-3.423 0-1.956-.776-3.423-.777-1.467-2.35-2.282-1.572-.815-3.988-.815h-5.6V224z" fill="#333" fill-rule="nonzero"></path></g><path d="M1311.95 1284h-8.304v-39.273h8.304v17.316h.517l14.133-17.316h9.953l-14.574 17.585 14.746 21.688h-9.933l-10.758-16.146-4.084 4.985V1284zm53.034-14.478v-24.795h8.303v25.505q0 4.295-2.042 7.517-2.042 3.221-5.705 5.014-3.662 1.793-8.533 1.793-4.89 0-8.553-1.793-3.662-1.793-5.695-5.014-2.033-3.222-2.033-7.517v-25.505h8.304v24.795q0 2.244.987 3.989.988 1.745 2.79 2.742 1.803.997 4.2.997 2.416 0 4.21-.997 1.792-.997 2.78-2.742.987-1.745.987-3.989zm31.75 14.478h-16.78v-39.273h15.725q4.333 0 7.229 1.285t4.353 3.557q1.457 2.273 1.457 5.226 0 2.3-.92 4.036-.92 1.736-2.522 2.838-1.6 1.103-3.653 1.563v.384q2.244.096 4.21 1.265 1.965 1.17 3.192 3.27t1.227 4.995q0 3.126-1.543 5.571-1.544 2.445-4.555 3.864-3.01 1.419-7.42 1.419zm-8.477-17.22v10.432h6.77q3.47 0 5.062-1.333t1.592-3.557q0-1.63-.786-2.877-.787-1.246-2.234-1.956-1.448-.71-3.443-.71h-6.96zm0-15.341v9.722h6.156q1.707 0 3.04-.604 1.332-.604 2.109-1.716.776-1.112.776-2.666 0-2.128-1.505-3.432-1.505-1.304-4.267-1.304h-6.309zm53.764 32.561h-26.54v-39.273h26.463v6.846h-18.16v9.358h16.799v6.846h-16.799v9.377h18.237V1284zm14.682 0h-8.303v-39.273h15.494q4.449 0 7.603 1.582 3.155 1.582 4.814 4.468 1.658 2.886 1.658 6.78 0 3.911-1.687 6.72-1.688 2.81-4.88 4.305-3.193 1.496-7.719 1.496h-10.374v-6.673h9.032q2.378 0 3.95-.652 1.573-.652 2.35-1.956.776-1.304.776-3.24 0-1.957-.777-3.3-.776-1.342-2.358-2.041-1.582-.7-3.98-.7h-5.599V1284zm3.95-17.872h8.956l9.76 17.872h-9.166l-9.55-17.872zm47.608-21.4h8.265V1284h-7.172l-17.086-24.718h-.287V1284h-8.304v-39.273h7.287l16.952 24.7h.345v-24.7zm41.49 39.272h-26.54v-39.273h26.464v6.846h-18.16v9.358h16.798v6.846h-16.798v9.377h18.237V1284zm16.907-32.427h-12.023v-6.846h32.254v6.846h-12.023V1284h-8.208v-32.427zM1618.6 1284h-26.54v-39.273h26.463v6.846h-18.16v9.358h16.799v6.846h-16.798v9.377h18.236V1284zm35.642-27.978h-7.958q-.23-2.32-1.975-3.605-1.745-1.285-4.737-1.285-2.033 0-3.432.566-1.4.565-2.139 1.563-.738.997-.738 2.262-.038 1.055.45 1.841.49.787 1.353 1.352.863.566 1.994.978 1.131.413 2.416.7l3.529.844q2.57.575 4.717 1.534 2.148.959 3.72 2.359 1.573 1.4 2.445 3.298.873 1.898.892 4.353-.02 3.605-1.832 6.242t-5.215 4.084q-3.404 1.448-8.198 1.448-4.756 0-8.275-1.457-3.519-1.458-5.484-4.324-1.966-2.867-2.062-7.105h8.035q.134 1.975 1.141 3.288 1.007 1.314 2.704 1.976 1.697.661 3.845.661 2.11 0 3.672-.613 1.563-.614 2.426-1.707.863-1.093.863-2.512 0-1.323-.777-2.225-.776-.9-2.263-1.534-1.486-.633-3.633-1.15l-4.277-1.074q-4.966-1.208-7.843-3.778-2.876-2.57-2.857-6.922-.02-3.567 1.908-6.233 1.927-2.665 5.302-4.16 3.375-1.497 7.67-1.497 4.373 0 7.642 1.496 3.27 1.496 5.092 4.161 1.821 2.666 1.879 6.175zM830.278 174.702L820.422 205h-8.898l13.557-39.273h10.7L849.32 205h-8.898l-9.837-30.298h-.307zm-10.413 21.343v-6.482h21.017v6.482h-21.017zm58.27-5.523v-24.795h8.303v25.505q0 4.295-2.042 7.517-2.042 3.221-5.705 5.014-3.662 1.793-8.533 1.793-4.89 0-8.553-1.793-3.662-1.793-5.695-5.014-2.033-3.222-2.033-7.517v-25.505h8.304v24.795q0 2.244.987 3.989.988 1.745 2.79 2.742 1.803.997 4.2.997 2.416 0 4.209-.997 1.793-.997 2.78-2.742.988-1.745.988-3.989zm25.498-17.949h-12.024v-6.846h32.255v6.846H911.84V205h-8.207v-32.427zM937.338 205h-8.303v-39.273h8.303v16.204h16.856v-16.204h8.284V205h-8.284v-16.223h-16.856V205zm58.365 0h-26.54v-39.273h26.464v6.846h-18.16v9.358h16.798v6.846h-16.798v9.377h18.236V205zm30.963-39.273h8.265V205h-7.172l-17.086-24.718h-.287V205h-8.304v-39.273h7.287l16.952 24.7h.345v-24.7zm25.479 6.846h-12.024v-6.846h32.255v6.846h-12.024V205h-8.207v-32.427zm25.402-6.846h8.303V205h-8.303v-39.273zm49.64 13.75h-8.4q-.23-1.63-.939-2.906-.71-1.275-1.822-2.176-1.112-.901-2.56-1.38-1.447-.48-3.135-.48-3.049 0-5.312 1.505-2.262 1.505-3.509 4.372-1.246 2.867-1.246 6.952 0 4.2 1.256 7.056 1.256 2.858 3.519 4.315 2.262 1.457 5.235 1.457 1.668 0 3.097-.44 1.428-.442 2.54-1.295 1.113-.853 1.85-2.08.74-1.228 1.027-2.8l8.399.038q-.326 2.704-1.62 5.206-1.295 2.503-3.471 4.468-2.177 1.966-5.178 3.107-3 1.14-6.779 1.14-5.254 0-9.386-2.377-4.133-2.378-6.52-6.884-2.388-4.507-2.388-10.911 0-6.424 2.417-10.93 2.416-4.507 6.558-6.875 4.142-2.369 9.32-2.369 3.413 0 6.337.96 2.924.958 5.187 2.79 2.263 1.83 3.692 4.477 1.428 2.646 1.831 6.06zm21.7-4.775L1139.032 205h-8.897l13.557-39.273h10.7L1167.93 205h-8.898l-9.837-30.298h-.307zm-10.412 21.343v-6.482h21.017v6.482h-21.017zm39.707-23.472h-12.023v-6.846h32.254v6.846h-12.023V205h-8.208v-32.427zm25.402-6.846h8.303V205h-8.303v-39.273zm51.079 19.637q0 6.424-2.426 10.93-2.426 4.506-6.597 6.875-4.17 2.368-9.367 2.368-5.235 0-9.396-2.378-4.162-2.378-6.578-6.884-2.416-4.507-2.416-10.911 0-6.424 2.416-10.93 2.416-4.507 6.578-6.875 4.16-2.369 9.396-2.369 5.197 0 9.367 2.369 4.171 2.368 6.597 6.874 2.426 4.507 2.426 10.93zm-8.419 0q0-4.162-1.236-7.019-1.237-2.857-3.48-4.334-2.245-1.476-5.255-1.476t-5.254 1.476q-2.244 1.477-3.48 4.334-1.238 2.857-1.238 7.019 0 4.16 1.237 7.018 1.237 2.857 3.48 4.334 2.244 1.476 5.255 1.476 3.01 0 5.254-1.476 2.244-1.477 3.48-4.334 1.237-2.857 1.237-7.018zm38.979-19.637h8.265V205h-7.172l-17.086-24.718h-.288V205h-8.303v-39.273h7.287l16.952 24.7h.345v-24.7z" fill="#333" fill-rule="nonzero"></path></g></svg>