<?xml version="1.0" encoding="UTF-8"?>
<svg width="1948px" height="1298px" viewBox="0 0 1948 1298" version="1.1" xmlns="http://www.w3.org/2000/svg" xmlns:xlink="http://www.w3.org/1999/xlink">
    <!-- Generator: Sketch 60.1 (88133) - https://sketch.com -->
    <title>intro</title>
    <desc>Created with Sketch.</desc>
    <g id="intro" stroke="none" stroke-width="1" fill="none" fill-rule="evenodd">
        <polygon id="Triangle" fill="#30D314" transform="translate(1019.000000, 903.000000) rotate(90.000000) translate(-1019.000000, -903.000000) " points="1019 859 1082 947 956 947"></polygon>
        <polygon id="Triangle" fill="#30D314" transform="translate(628.000000, 280.000000) scale(-1, 1) rotate(90.000000) translate(-628.000000, -280.000000) " points="628 236 691 324 565 324"></polygon>
        <polygon id="Triangle" fill="#30D314" transform="translate(1562.000000, 404.000000) scale(1, -1) translate(-1562.000000, -404.000000) " points="1562 360 1625 448 1499 448"></polygon>
        <rect id="Rectangle" fill="#30D314" x="579" y="878" width="413" height="49"></rect>
        <rect id="Rectangle" fill="#30D314" x="663" y="256" width="754" height="49"></rect>
        <rect id="Rectangle" fill="#30D314" x="579" y="66" width="994" height="49"></rect>
        <rect id="Rectangle" fill="#30D314" transform="translate(1562.000000, 220.500000) rotate(90.000000) translate(-1562.000000, -220.500000) " x="1407" y="196" width="310" height="49"></rect>
        <rect id="Rectangle" fill="#30D314" transform="translate(1391.500000, 356.500000) rotate(90.000000) translate(-1391.500000, -356.500000) " x="1300" y="332" width="183" height="49"></rect>
        <g id="Pete" transform="translate(319.500000, 826.500000) scale(-1, 1) translate(-319.500000, -826.500000) translate(93.000000, 677.000000)" fill-rule="nonzero">
            <path d="M0,299 L0.0662419846,175.934482 C0.0676408631,173.232231 2.25881008,171.042364 4.96127066,171.042364 C36.5704036,171.03983 68.1795364,171.03983 99.7886693,171.03983 C101.746681,170.270671 101.047391,169.781206 100.767675,169.29174 C94.683853,159.222743 90.6979006,148.384587 89.1594628,136.637424 C85.7329423,109.716842 93.3552022,86.2924391 111.676598,66.2243687 C112.725533,65.1055913 113.774467,64.0567374 114.893331,63.0078836 C115.802408,62.0988769 115.802408,62.0988769 114.96326,61.2597938 C112.096172,58.5327738 109.508799,55.5260595 107.341,52.1697271 C102.445971,44.4082086 99.7187404,35.9474542 99.5089534,26.7175404 C99.4390244,24.4100619 99.9285273,24.1303675 102.026397,25.1792214 C104.264125,26.2979988 106.571781,27.2769291 109.019296,28.0460886 C109.299012,23.9905203 108.809509,20.634188 108.73958,17.2079321 C108.73958,15.9493075 108.669651,14.7606065 108.73958,13.5019818 C108.73958,11.7538921 109.368941,11.3343505 110.907379,12.2433572 C113.354893,13.641829 115.802408,14.9004536 118.389781,15.9493075 C119.928219,16.5786198 119.928219,16.5786198 119.788361,14.9004536 C119.368787,10.4952675 119.298858,6.09008129 119.788361,1.68489511 C120.207935,0.00672895216 120.977153,-0.272965408 121.536585,0.216499722 C121.956159,0.566117673 122.235875,1.0555828 122.58552,1.47512434 C127.970052,8.18778899 133.983946,14.2012177 141.186632,19.0259454 C147.480241,23.2213608 154.263353,25.5288393 161.815684,25.5987629 C167.479932,25.6686865 172.934393,24.4799855 178.179068,22.4522014 C183.074097,20.5642644 187.969126,18.6064039 193.073943,17.4876265 C198.248688,16.368849 203.493362,15.8793839 208.668107,17.1380085 C217.47916,19.3056398 223.423124,24.9694506 227.129361,33.080587 C228.527941,36.157225 229.29716,39.3737101 229.786663,42.7300425 C229.99645,43.9886671 229.99645,43.9886671 231.3251,43.9187435 C239.017289,43.3593548 246.429762,44.5480558 253.142945,48.5337004 C261.184779,53.3584282 265.660235,60.6304815 267.408459,69.6506246 C268.667181,76.2933657 268.317536,82.8661832 267.268601,89.5089242 C266.429454,94.6832699 265.030874,99.787692 263.352578,104.752267 C262.933004,106.010891 262.653288,105.940968 264.191726,106.500357 C272.023773,109.157453 276.918802,114.541569 278.317382,122.652706 C280.275394,133.770557 273.142637,143.629783 262.793146,146.077109 C260.905063,146.49665 258.947052,146.776344 256.98904,146.566574 C256.149892,146.426727 255.870176,146.846268 255.660389,147.615428 C254.19188,152.92962 252.163939,158.103966 249.716425,163.068541 C244.681538,173.067614 237.968354,181.668216 229.576876,189.010193 C227.688793,190.338741 227.548935,191.107901 227.968509,192.156754 C228.947515,194.883774 229.786663,197.680718 230.695739,200.407738 C236.359988,218.028483 242.094165,235.579304 247.688484,253.200049 C248.108058,254.458673 248.66749,254.948138 249.926212,255.157909 C255.450602,256.34661 258.947052,259.772866 260.41556,265.226906 C260.695276,266.415607 260.905063,267.674232 261.11485,268.862933 C262.443501,268.093773 263.002933,267.324614 263.842081,266.625378 C266.219667,264.667517 268.876968,264.247976 271.744057,265.226906 C274.681074,266.27576 276.429299,268.443391 276.848873,271.520029 C276.988731,272.568883 277.268447,272.848577 278.317382,272.988425 C283.212411,273.757584 286.0795,278.582312 284.471133,283.337116 C284.051559,284.525817 284.191417,285.3649 285.030565,286.34383 C287.198364,288.931003 288.457086,291.937717 288.876659,295.29405 C289.086446,296.762445 288.876659,296.762445 290.485026,296.762445 L319.365699,296.762445 C319.365699,293.825654 318.456622,291.518176 317.967119,289.000927 C314.680457,289.210697 312.442729,289.770086 310.274931,290.469322 C309.016209,290.888864 308.386848,290.609169 308.177061,289.909933 C307.967274,289.280621 308.456777,288.791156 309.64557,288.441538 C311.67351,287.812226 313.701451,287.252837 315.729392,286.623525 C317.757333,285.994212 317.407688,286.483677 317.407688,284.246122 C317.477617,283.197269 317.058043,283.057421 316.498611,283.057421 L306.428836,283.057421 C304.610682,282.987498 304.330966,282.63788 304.330966,282.078491 C305.659617,281.029637 306.009262,281.099561 306.428836,281.099561 L316.358753,281.099561 C317.26783,281.099561 317.617475,280.819867 317.757333,279.91086 C318.106977,277.533458 318.176906,277.533458 315.799321,276.834222 C313.841309,276.20491 311.813368,275.645521 309.855357,275.086132 C308.316919,274.45682 308.107132,274.037278 308.24699,273.547813 C309.785428,272.848577 310.205002,272.988425 310.694504,273.128272 C313.07209,273.827508 315.379747,274.526743 317.757333,275.295903 C320.974066,270.331328 323.701297,266.835149 327.407533,264.178052 C328.106823,263.688587 328.246681,263.129198 328.246681,262.360039 L328.246681,240.753649 C328.386539,239.774719 329.085829,239.425101 329.924977,239.914566 C336.847947,246.347537 342.931769,252.011347 348.945662,257.605235 C350.554029,259.143554 350.064526,259.143554 351.88268,257.815005 C364.959401,248.515168 382.511578,248.515168 395.588299,257.815005 C397.266595,259.003706 396.777092,259.283401 398.595245,257.605235 C404.748997,251.941424 410.832819,246.347537 416.98657,240.683726 C417.546002,240.194261 418.035505,239.355178 418.944582,239.704796 C419.923588,240.054414 419.573943,241.033344 419.573943,241.73258 L419.573943,273.128272 C419.573943,275.156056 419.573943,275.156056 421.462025,274.596667 C423.140321,274.107202 424.748688,273.617737 426.426984,273.128272 C428.804569,274.107202 428.664711,274.596667 428.03535,274.806438 L424.049398,276.065062 L420.483019,277.113916 C419.504014,278.722159 419.504014,279.771013 419.573943,280.749943 C424.60883,281.169485 427.685705,281.169485 430.762581,281.169485 C432.510806,281.379255 432.860451,281.728873 432.790522,282.218338 C431.5318,283.197269 431.042297,283.197269 430.622723,283.197269 L420.902593,283.197269 C419.504014,283.197269 419.434085,283.197269 419.434085,284.525817 C419.434085,286.693448 419.294227,286.203983 421.11238,286.763372 C423.000463,287.392684 424.958475,287.882149 426.916487,288.511461 C428.524853,289.210697 428.73464,289.630239 428.524853,290.189628 C424.399043,289.979857 422.51096,289.350545 420.552948,288.791156 C419.434085,291.658023 419.434085,293.685807 419.434085,295.783515 C419.434085,296.552674 419.643872,296.972216 420.483019,296.902292 L450.692343,296.902292 C451.461562,296.902292 452.230781,296.832369 453,297.25191 L453,298.580458 C451.251775,299 450.762272,299 450.20284,299 L0,299 Z" id="Shape" fill="#151D38"></path>
            <path d="M81.1192119,286.760234 C81.1192119,286.690611 81.1192119,286.690611 81.1192119,286.620989 C106.990093,286.620989 132.860975,286.620989 158.731856,286.620989 C158.872459,286.620989 158.94276,286.620989 159.083363,286.620989 C160.911197,286.620989 160.911197,286.620989 160.911197,284.810802 C160.911197,284.671557 160.911197,284.462689 160.911197,284.323444 C160.911197,248.746313 160.911197,213.169182 160.911197,177.522428 C160.911197,177.104693 160.911197,176.75658 160.911197,176.338845 C160.840896,174.459035 159.786376,173.345074 157.888241,173.136207 C157.255529,173.066584 156.622817,173.136207 156.060407,173.136207 C106.216779,173.136207 56.3731514,173.136207 6.59982503,173.136207 C6.17801718,173.136207 5.82651063,173.136207 5.40470278,173.136207 C2.80355437,173.205829 1.74903475,174.31979 1.74903475,176.826203 C1.74903475,212.890692 1.74903475,249.024803 1.74903475,285.089292 C1.74903475,286.690611 1.74903475,286.690611 3.43626615,286.690611 C3.858074,286.690611 4.20958054,286.690611 4.63138839,286.690611 C30.080462,286.760234 55.599837,286.760234 81.1192119,286.760234 Z" id="Shape" fill="#CCD6DA"></path>
            <path d="M131.572157,171.025308 C136.795483,171.025308 142.018809,171.025308 147.31178,171.025308 C150.51542,171.025308 153.788704,171.025308 156.992344,171.025308 C159.63883,171.025308 161.658516,172.568429 162.146026,174.953253 C162.285315,175.58453 162.285315,176.145665 162.285315,176.776942 C162.285315,186.456521 162.285315,196.065959 162.285315,205.745538 C162.285315,207.358801 162.424604,207.288659 163.678202,207.428943 C173.915921,208.691497 184.014352,208.130362 193.973494,205.535112 C216.677552,199.573052 233.879706,186.246095 245.649601,165.90495 C248.99253,160.153316 251.499726,153.980831 253.310479,147.527778 C253.658701,146.265224 253.658701,146.265224 252.474747,145.914515 C251.847948,145.704089 251.221149,145.493664 250.59435,145.283238 C249.410396,144.792245 249.062174,144.371394 249.271107,143.669975 C249.48004,142.898414 250.106839,142.828272 251.360438,143.249124 C254.703366,144.511677 258.046295,144.792245 261.528513,144.160968 C271.835876,142.126853 278.45209,131.605572 275.73596,121.434999 C272.950186,111.054001 262.224956,105.162083 252.19617,108.528893 C251.708659,108.669177 251.290793,108.949745 250.803283,109.019886 C250.315772,109.090028 249.967551,108.809461 249.758618,108.38861 C249.549685,107.897616 249.688973,107.476765 250.037195,107.196198 C250.315772,106.985772 250.59435,106.845488 250.942572,106.775346 C251.708659,106.494779 252.405103,106.284353 253.171191,106.073928 C253.310479,106.003786 253.519412,105.933644 253.589057,105.79336 C253.728346,105.442651 253.380124,105.512793 253.171191,105.442651 C252.892613,105.302367 252.544392,105.232225 252.19617,105.091941 C246.972844,103.268252 241.95845,100.95357 237.361923,97.8673277 C229.004602,92.3962611 222.527677,85.2417895 218.349016,76.0532033 C216.398974,71.7044068 215.075732,67.1451846 214.309644,62.3755369 C214.100711,60.9726993 214.031066,60.9726993 212.847112,61.6039762 C212.429246,61.8144018 212.081025,62.0248275 211.663159,62.305395 C205.464811,65.9527727 199.127176,69.0390154 192.441318,71.564123 C178.024938,76.9650477 163.260336,79.139446 148.008223,76.4039127 C137.422282,74.5100819 127.532784,70.7224205 118.896885,64.058942 C117.782576,63.2172394 117.782576,63.2172394 116.877199,64.1290838 C109.077032,71.6342649 102.878685,80.261716 98.4214464,90.0815791 C91.5266559,105.442651 89.4373254,121.434999 92.0141663,138.058624 C93.755275,149.351467 97.7946473,159.802607 103.784061,169.482186 C104.480505,170.674598 105.246593,171.165591 106.709124,171.165591 C114.927157,170.955166 123.214835,171.025308 131.572157,171.025308 Z" id="Shape" fill="#FAE0D6"></path>
            <path d="M162.740531,248.3116 C162.740531,259.421511 162.740531,270.461106 162.740531,281.571018 C162.740531,283.117967 162.740531,284.735233 162.740531,286.282182 C162.740531,287.125973 162.950361,287.477553 163.859627,287.477553 C165.748103,287.407237 167.636578,287.477553 169.594997,287.477553 C176.659293,287.477553 183.723589,287.407237 190.717942,287.407237 C192.186756,287.407237 192.326643,287.618184 192.326643,289.094818 C192.326643,291.415243 192.326643,293.735667 192.326643,295.985776 C192.326643,297.11083 192.186756,297.251462 193.44574,297.251462 C202.468455,297.251462 211.49117,297.251462 220.443942,297.251462 C221.353208,297.251462 221.563038,296.899883 221.632982,296.126408 C221.912756,293.595035 222.682135,291.133979 224.011062,288.954186 C224.500667,288.180712 224.57061,287.477553 224.220893,286.563446 C222.752078,282.203861 221.353208,277.773959 219.954337,273.414374 C216.527104,262.726358 213.029928,252.038342 209.602695,241.350326 C209.462808,240.998747 209.322921,240.576851 209.252977,240.225272 C209.11309,239.592429 209.392864,239.100218 210.022356,238.959586 C210.581904,238.818954 211.001566,239.100218 211.211396,239.592429 C211.28134,239.803376 211.351283,240.014324 211.421227,240.225272 C213.86925,247.819388 216.317274,255.413505 218.765297,263.007622 C221.073434,270.179843 223.38157,277.352064 225.75965,284.453969 C226.179311,285.649339 226.179311,285.719655 227.088577,284.875865 C229.606544,282.414808 232.544172,280.797543 235.971405,280.024068 C237.020558,279.742804 237.090502,279.742804 236.810728,278.688066 C236.251179,276.367641 235.621688,273.976901 235.132083,271.656477 C233.523382,264.624887 237.789937,257.38235 244.714346,255.554137 C245.134008,255.413505 245.623612,255.413505 246.043273,255.272873 C246.532878,255.202557 246.742709,254.921294 246.532878,254.429082 C246.462935,254.147819 246.392991,253.866555 246.253104,253.655608 C240.797509,236.639161 235.27197,219.552399 229.816375,202.535953 C228.837165,199.371737 227.788013,196.207522 226.73886,193.043307 C226.529029,192.339181 226.179311,192.058884 225.619763,192.691727 C225.409933,192.902675 225.200102,193.043307 224.920328,193.183939 C220.304055,196.629417 215.338064,199.653001 210.0923,202.043741 C199.880545,206.754906 189.109241,209.42691 177.848333,209.848806 C173.092173,210.059753 168.336013,209.989437 163.649797,209.286278 C162.880418,209.145647 162.600644,209.42691 162.670587,210.130069 C162.670587,210.551964 162.670587,211.044176 162.670587,211.466071 C162.740531,223.771353 162.740531,236.076634 162.740531,248.3116 Z" id="Shape" fill="#FFF3A2"></path>
            <path d="M385.887347,297.110086 C396.074678,297.110086 406.331785,297.110086 416.519116,297.110086 C417.984417,297.110086 417.984417,297.110086 417.984417,295.625642 C417.984417,295.413578 417.984417,295.201515 417.984417,294.918763 C417.984417,278.236434 417.984417,261.554105 417.984417,244.871776 C417.984417,244.518337 417.984417,244.164897 417.984417,243.882146 C417.984417,243.599395 418.123969,243.245956 417.844864,243.10458 C417.426207,242.892516 417.286655,243.316643 417.00755,243.528707 C413.239633,247.063099 409.471716,250.526803 405.634023,254.061194 C403.331407,256.18183 401.028791,258.373152 398.726175,260.493787 C397.749307,261.412729 397.609755,261.342042 396.563111,260.635163 C396.21423,260.4231 395.935125,260.140348 395.65602,259.928285 C390.143697,255.757703 384.003388,253.283628 377.165317,252.788813 C368.024629,252.081935 359.721257,254.626697 352.394752,260.281724 C350.789898,261.554105 350.789898,261.554105 349.324597,260.211036 C349.254821,260.140348 349.185045,260.06966 349.045492,259.998973 C343.533169,254.768073 337.95107,249.537173 332.368971,244.306273 C331.950314,243.882146 331.531656,243.10458 330.973446,243.316643 C330.554789,243.528707 330.764118,244.306273 330.764118,244.871776 C330.764118,250.95093 330.764118,257.100771 330.764118,263.179925 C330.764118,264.028179 330.694341,264.735058 329.78725,265.30056 C319.739472,272.15728 317.36708,285.517281 323.228284,295.837705 C323.786494,296.827335 324.41448,297.251462 325.600676,297.251462 C332.996957,297.180774 340.463015,297.251462 347.859296,297.180774 C348.34773,297.180774 349.045492,297.392838 349.254821,296.968711 C349.46415,296.544584 348.766387,296.191144 348.417506,295.837705 C344.789142,291.879186 343.672722,287.284477 345.207799,282.194953 C346.742876,277.105429 350.301465,274.065852 355.325354,272.864159 C356.371998,272.581407 357.418641,272.440032 358.465285,272.581407 C359.023495,272.652095 359.372376,273.005534 359.372376,273.641725 C359.372376,274.13654 359.093271,274.489979 358.535061,274.560667 C357.907075,274.631355 357.348865,274.702042 356.720879,274.77273 C351.906318,275.408921 347.78952,279.084688 346.812653,283.820773 C345.766009,288.698234 347.859296,293.646382 352.045871,296.261832 C353.092514,296.898023 354.208934,297.251462 355.534683,297.251462 C365.861566,297.039398 375.909345,297.110086 385.887347,297.110086 Z" id="Shape" fill="#C27659"></path>
            <path d="M81.2486269,288.582363 C81.2486269,288.582363 81.2486269,288.582363 81.2486269,288.582363 C66.9810536,288.64471 52.7134803,288.64471 38.445907,288.64471 C26.9896782,288.64471 15.5334493,288.64471 4.07722051,288.64471 C3.65551884,288.64471 3.16353355,288.64471 2.74183188,288.64471 C2.03899575,288.64471 1.68757769,288.8941 1.7578613,289.517574 C1.7578613,290.764522 1.7578613,292.01147 1.7578613,293.258418 C1.7578613,295.502924 1.7578613,295.502924 4.28807135,295.502924 C24.3189009,295.502924 44.420014,295.502924 64.4508436,295.440577 C95.7270511,295.440577 126.932975,295.378229 158.209182,295.378229 C158.630884,295.378229 159.122869,295.378229 159.544571,295.378229 C160.528542,295.315882 160.87996,295.004145 160.87996,294.131281 C160.950243,292.510249 160.87996,290.951564 160.87996,289.330532 C160.87996,288.64471 160.528542,288.457668 159.825706,288.520016 C159.404004,288.520016 159.052586,288.520016 158.630884,288.520016 C151.180821,288.520016 143.801042,288.582363 136.350979,288.582363 C118.006956,288.582363 99.6629334,288.582363 81.2486269,288.582363 Z" id="Shape" fill="#CCD6DA"></path>
            <path d="M255.291203,297.180397 C265.112907,297.180397 275.003779,297.180397 284.825483,297.180397 C285.240484,297.180397 285.586319,297.180397 286.001321,297.180397 C286.623823,297.251462 286.900491,297.038268 286.831324,296.327623 C286.485489,293.342914 285.447985,290.642462 283.649645,288.226269 C283.372977,287.799881 283.09631,287.870946 282.957976,288.368398 C282.888809,288.581591 282.819642,288.794785 282.681308,289.007978 C280.398799,293.91143 274.727111,295.261656 270.577095,291.850559 C269.816259,291.210978 269.33209,291.068849 268.43292,291.495236 C265.873744,292.561204 263.452901,292.205881 261.170392,290.642462 C258.74955,288.936914 257.642879,286.52072 257.85038,283.464946 C257.919547,282.398978 257.85038,282.327914 256.95121,282.612172 C254.807035,283.180688 252.801194,282.967494 250.86452,281.830462 C250.380351,281.546204 249.96535,281.546204 249.412014,281.546204 C246.230335,281.546204 242.97949,281.47514 239.797811,281.546204 C232.466116,281.688333 226.171925,286.876043 224.304418,294.195688 C224.096917,294.977397 223.958584,295.759107 223.889417,296.540817 C223.82025,297.038268 224.027751,297.251462 224.511919,297.251462 C224.926921,297.251462 225.411089,297.251462 225.826091,297.251462 C235.716962,297.180397 245.538666,297.180397 255.291203,297.180397 Z" id="Shape" fill="#CCD6DA"></path>
            <path d="M243.127855,278.519668 C243.127855,278.519668 243.127855,278.519668 243.127855,278.519668 C244.427521,278.519668 245.654983,278.519668 246.954648,278.519668 C247.460074,278.519668 247.748888,278.384462 247.532277,277.843636 C246.088205,274.125458 245.871594,270.136867 245.00515,266.283483 C244.788539,265.404641 245.149557,264.863815 245.79939,264.728609 C246.449223,264.593402 246.882445,264.999022 247.099056,265.877864 C247.315666,266.756706 247.460074,267.703151 247.604481,268.581993 C248.037703,270.880503 248.398721,273.179013 248.904147,275.409919 C249.626183,278.452065 252.586532,280.209749 255.835696,279.668923 C259.012656,279.060494 261.034358,276.356365 260.528933,273.314219 C260.095711,270.677693 259.662489,268.10877 259.012656,265.539848 C257.640787,259.793573 251.503478,256.142998 245.366168,257.22465 C239.517673,258.238699 235.257658,263.984973 236.268509,269.596042 C236.773935,272.300171 237.640378,274.936697 238.290211,277.640826 C238.434619,278.249255 238.795637,278.519668 239.517673,278.519668 C240.745135,278.519668 241.972597,278.519668 243.127855,278.519668 Z" id="Shape" fill="#FAE0D6"></path>
            <path d="M260.606178,284.394931 C260.74911,286.3594 261.392308,287.902911 262.964568,289.025465 C266.252022,291.410892 270.682938,290.218178 272.112266,286.429559 C273.470127,282.7111 274.756522,278.922481 276.042917,275.133862 C276.18585,274.712904 276.257316,274.291947 276.328783,273.800829 C276.543182,271.064605 274.899455,268.609018 272.183732,267.767103 C269.539476,266.995347 266.609354,268.117901 265.322959,270.573487 C264.465363,272.257318 263.750699,274.081468 263.464833,275.975777 C263.250434,277.37897 262.821636,278.641843 262.106972,279.904716 C261.249375,281.378067 260.74911,282.921579 260.606178,284.394931 Z" id="Shape" fill="#FAE0D6"></path>
            <path d="M176.368402,295.502924 C176.368402,295.502924 176.368402,295.439914 176.368402,295.439914 C180.132822,295.439914 183.826216,295.439914 187.590636,295.439914 C188.229877,295.439914 188.869118,295.439914 189.437332,295.439914 C190.1476,295.376903 190.644788,295.124862 190.644788,294.431748 C190.644788,292.667457 190.644788,290.903166 190.644788,289.138876 C190.644788,288.697803 190.36068,288.508772 189.863493,288.508772 C189.437332,288.508772 188.940145,288.508772 188.513984,288.508772 C183.186975,288.508772 177.859965,288.508772 172.532956,288.508772 C169.620857,288.508772 166.708759,288.571782 163.867687,288.571782 C163.015366,288.571782 162.660232,288.823824 162.660232,289.579948 C162.731258,291.155208 162.660232,292.730467 162.660232,294.242716 C162.660232,295.439914 162.660232,295.502924 164.080767,295.502924 C168.200321,295.502924 172.248849,295.502924 176.368402,295.502924 Z" id="Shape" fill="#CCD6DA"></path>
            <path d="M283.343629,282.210063 C283.343629,279.080295 281.33026,276.835026 278.272923,276.358757 C276.930677,276.154642 276.781538,276.22268 276.334123,277.379334 C275.513862,279.556564 274.768169,281.733794 273.947908,283.842985 C273.202216,285.748061 272.82937,287.857253 271.337985,289.490175 C270.816001,290.034482 271.263416,290.374675 271.636262,290.714867 C274.768169,293.096212 279.540599,292.075635 281.181122,288.537637 C281.926814,286.904714 282.523368,285.203754 283.119922,283.502793 C283.343629,282.958485 283.343629,282.414178 283.343629,282.210063 Z" id="Shape" fill="#FAE0D6"></path>
            <path d="M101.413212,231.164681 C100.858746,239.669004 95.5913166,246.012392 87.8287896,247.824788 C77.8483979,250.194845 68.0066227,243.293797 66.6204571,233.046786 C65.4422165,224.403048 70.9868785,215.619896 79.9969544,213.528669 C81.9375862,213.110424 82.0762027,213.180131 82.3534358,215.131943 C83.5316765,221.754161 87.9674062,226.63369 94.4130759,228.097549 C95.937858,228.446087 97.46264,228.515794 99.0567304,228.376379 C101.135979,228.167256 101.343903,228.376379 101.413212,230.467606 C101.48252,230.816144 101.413212,231.164681 101.413212,231.164681 Z" id="Shape" fill="#151D38"></path>
            <path d="M84.2606214,246.543204 C85.3209727,246.471574 86.7347744,246.328314 88.1485761,245.970165 C94.4399936,244.251049 99.3882996,238.234142 99.6710599,231.787457 C99.74175,230.35486 99.74175,230.35486 98.3986384,230.35486 C89.9865183,230.498119 82.6347495,224.767732 80.7261172,216.458671 C80.3019767,214.596295 80.0899064,215.026074 78.958865,215.384223 C71.6777863,217.819638 67.1536209,225.412401 68.4260424,233.220053 C69.6277738,240.812816 76.3433319,246.614833 84.2606214,246.543204 Z" id="Shape" fill="#FFFFFF"></path>
            <path d="M160.585269,107.298432 C168.265061,107.298432 175.944853,107.298432 183.624645,107.298432 C187.153199,107.298432 190.681752,107.440123 194.210305,107.510969 C195.8708,107.581815 196.285924,108.148582 195.524864,109.5655 C190.335815,119.413078 182.72521,126.285129 171.862802,128.623043 C160.931206,130.960957 151.314169,127.914584 143.080878,120.192383 C139.829074,117.14601 137.338331,113.462024 135.331899,109.423808 C135.124337,108.998733 134.916775,108.644503 134.7784,108.219428 C134.501651,107.369278 134.7784,106.944202 135.677835,106.731665 C136.023772,106.660819 136.369708,106.660819 136.646458,106.660819 C143.426815,106.731665 150.276359,106.80251 157.056716,106.873356 C158.2329,106.873356 159.339897,107.015048 160.516082,107.015048 C160.585269,107.15674 160.585269,107.227586 160.585269,107.298432 Z" id="Shape" fill="#151D38"></path>
            <path d="M166.285839,108.679286 C166.285839,108.679286 166.285839,108.679286 166.285839,108.679286 C164.178712,108.679286 162.141822,108.679286 160.034696,108.679286 C157.435906,108.679286 154.907353,108.679286 152.308564,108.544321 C147.883597,108.409357 143.458631,108.409357 139.033664,108.409357 C138.050338,108.409357 137.980101,108.476839 138.471764,109.286625 C140.227703,112.458289 142.475305,115.292542 145.21457,117.721902 C152.940702,124.470123 161.93111,127.236894 172.185794,125.27991 C181.597628,123.45789 188.480909,118.194277 193.538013,110.501305 C194.451102,109.084179 194.451102,109.016697 192.695163,109.016697 C183.915467,108.881732 175.065534,108.746768 166.285839,108.679286 Z" id="Shape" fill="#FFFFFF"></path>
            <path d="M99.6949807,118.026648 C99.6949807,112.310038 103.983781,106.729538 111.131783,106.661483 C117.394793,106.593428 122.432432,111.765599 122.432432,118.026648 C122.432432,124.355752 117.394793,129.391813 111.063707,129.391813 C104.800696,129.323758 99.6949807,124.287697 99.6949807,118.026648 Z" id="Shape" fill="#E5384A"></path>
            <path d="M234.353923,119.810162 C234.626845,125.270494 229.918948,131.072097 223.027679,131.140351 C216.750484,131.140351 211.701435,126.089544 211.633205,119.810162 C211.633205,113.394272 216.614023,108.41172 223.027679,108.41172 C229.782487,108.275211 234.695075,114.076814 234.353923,119.810162 Z" id="Shape" fill="#E5384A"></path>
            <path d="M126.766724,92.6725146 C130.221453,92.6725146 133.000256,95.3757758 132.925154,98.829943 C132.925154,102.209019 130.221453,104.912281 126.91693,104.912281 C123.462201,104.912281 120.683398,102.209019 120.683398,98.7548524 C120.683398,95.4508664 123.387098,92.7476052 126.766724,92.6725146 Z" id="Shape" fill="#151D38"></path>
            <path d="M205.549878,94.4225393 C209.004607,94.4225393 211.633205,97.1251349 211.633205,100.653524 C211.558102,104.031768 208.854401,106.734364 205.474775,106.659292 C202.170252,106.659292 199.391449,103.881624 199.391449,100.578452 C199.316346,97.1251349 202.095149,94.3474672 205.549878,94.4225393 Z" id="Shape" fill="#151D38"></path>
            <path d="M269.350473,125.999304 C269.28037,133.110828 261.989653,138.122759 255.049451,135.81998 C254.839142,135.752251 254.628833,135.684523 254.418524,135.549065 C253.717494,135.27815 253.437081,134.804048 253.717494,134.12676 C253.927803,133.517201 254.55873,133.449472 255.119554,133.58493 C255.47007,133.652658 255.890688,133.855845 256.241203,133.923574 C261.078314,135.210421 266.125733,132.230354 267.107176,127.557066 C268.088619,122.748321 264.723672,118.210491 259.746356,117.533203 C259.325737,117.465475 258.835016,117.397746 258.414398,117.330017 C257.923676,117.262288 257.643264,116.855915 257.643264,116.381814 C257.643264,115.772254 257.99378,115.501339 258.554604,115.43361 C258.905119,115.365882 259.325737,115.43361 259.746356,115.43361 C265.284497,116.04317 269.420576,120.580999 269.350473,125.999304 Z" id="Shape" fill="#151D38"></path>
            <path d="M166.154515,92.1217181 C166.154515,92.6185591 165.764673,92.9024682 165.309858,93.1154 C163.945412,93.89615 162.515993,94.6769001 161.151547,95.3866728 C160.566784,95.6705819 160.436837,95.9544911 161.021599,96.3803547 C162.191124,97.232082 163.295676,98.1547866 164.465201,99.0065139 C164.790069,99.2194458 165.049963,99.4323776 165.309858,99.7162867 C165.634726,100.071173 165.634726,100.568014 165.374832,100.993878 C165.114937,101.419741 164.725095,101.490719 164.27028,101.348764 C164.010386,101.277787 163.815465,101.135832 163.620544,100.9229 C161.866256,99.5743321 160.046995,98.2257639 158.292708,96.8062184 C157.058209,95.8125365 157.123183,95.1027637 158.487629,94.3220137 C160.436837,93.1863773 162.451019,92.1217181 164.465201,91.057059 C165.439805,90.7021726 166.219488,91.057059 166.154515,92.1217181 Z" id="Shape" fill="#151D38"></path>
            <path d="M111.938224,96.0360919 C112.137245,90.9690698 115.454261,86.7706801 120.164423,85.8296617 C120.695145,85.6848896 121.225868,85.6125036 121.75659,85.7572756 C122.154632,85.8296617 122.419994,86.1915918 122.419994,86.625908 C122.486334,87.1326102 122.287313,87.5669264 121.822931,87.7116985 C121.358549,87.8564705 120.894166,87.9288565 120.429784,88.0012426 C116.847407,88.7974889 114.459156,91.6929301 114.061114,95.6017757 C113.994774,96.0360919 113.994774,96.398022 113.994774,96.8323382 C113.928433,97.4838125 113.663072,97.9181287 112.999669,97.9181287 C112.336266,97.9181287 112.070905,97.4114264 112.004564,96.7599522 C111.938224,96.5427941 111.938224,96.325636 111.938224,96.0360919 Z" id="Shape" fill="#151D38"></path>
            <path d="M218.629344,95.9993078 C218.629344,96.2835776 218.629344,96.7810497 218.560907,97.2074543 C218.424034,97.7049263 218.081851,97.9181287 217.602795,97.9181287 C217.123739,97.9181287 216.781556,97.6338589 216.713119,97.1363868 C216.644682,96.7810497 216.713119,96.4257125 216.644682,96.1414427 C216.439373,91.9484639 213.770345,88.7504292 209.801023,87.9686874 C209.595713,87.89762 209.390403,87.89762 209.185093,87.8265525 C208.500727,87.6844177 208.021671,87.3290805 208.158544,86.5473387 C208.295418,85.7655969 208.911347,85.623462 209.527276,85.6945294 C211.854121,85.9787992 213.838782,86.9026759 215.549697,88.5372269 C217.465921,90.5981826 218.49247,93.0144755 218.629344,95.9993078 Z" id="Shape" fill="#151D38"></path>
            <path d="M373.699283,291.990201 C371.074795,291.915091 369.301493,291.163993 367.953783,289.361358 C367.386326,288.68537 367.17353,288.68537 366.606073,289.361358 C364.12345,292.29064 360.505913,292.816408 357.597697,290.788444 C356.604648,290.112456 355.824395,289.136029 355.256938,288.009382 C354.973209,287.408503 354.902277,286.657405 355.611598,286.281856 C356.320919,285.906307 356.746512,286.281856 357.101172,286.957845 C357.313969,287.408503 357.597697,287.859162 357.952357,288.309821 C360.293117,290.938664 364.407178,290.112456 365.683956,286.807625 C365.967684,286.056527 366.038616,285.605868 365.116499,285.380539 C363.839721,285.00499 363.059468,283.953453 362.208283,282.977026 C361.853623,282.601477 361.640826,282.075708 361.569894,281.549939 C361.357098,280.498402 361.711758,279.822414 362.77574,279.822414 C365.754888,279.747304 368.804968,279.747304 371.784116,279.822414 C372.777165,279.822414 373.131826,280.498402 372.848097,281.549939 C372.422505,283.277465 371.145727,284.178782 369.868949,285.0801 C369.443357,285.380539 368.734036,285.305429 368.592172,285.831198 C368.450307,286.507186 368.8759,287.183174 369.301493,287.784052 C371.216659,290.563115 375.046992,290.563115 377.033091,287.784052 C377.245887,287.483613 377.458684,287.032954 377.67148,286.732515 C378.02614,286.206747 378.522665,286.131637 379.01919,286.356966 C379.515714,286.657405 379.657578,287.183174 379.444782,287.708942 C379.01919,288.76048 378.380801,289.661797 377.529616,290.412895 C376.252838,291.464432 374.834196,292.06531 373.699283,291.990201 Z" id="Shape" fill="#151D38"></path>
            <path d="M397.031798,272.773749 C400.029623,272.773749 402.277992,275.096014 402.277992,278.017572 C402.277992,281.014043 399.879732,283.336307 396.881907,283.261396 C393.959027,283.186484 391.710658,280.864219 391.785604,277.867749 C391.710658,274.94619 394.033973,272.698837 397.031798,272.773749 Z" id="Shape" fill="#151D38"></path>
            <path d="M335.777458,283.263158 C332.874805,283.263158 330.567568,281.030982 330.567568,278.054747 C330.567568,275.078512 332.725951,272.846336 335.703031,272.77193 C338.754539,272.77193 341.061776,275.004106 341.061776,277.980341 C340.987349,280.956576 338.754539,283.263158 335.777458,283.263158 Z" id="Shape" fill="#151D38"></path>
        </g>
        <text id="User" font-family="Inter-Bold, Inter" font-size="54" font-weight="bold" letter-spacing="-0.16" fill="#333333">
            <tspan x="248.187543" y="1055">USER</tspan>
        </text>
        <g id="kubernetes-icon" transform="translate(1101.000000, 475.000000)" fill-rule="nonzero">
            <path d="M374.582413,0.0410222182 C367.849855,0.436250925 361.26538,2.17906565 355.219845,5.16601216 L93.0135002,130.140538 C79.3208943,136.652566 69.3690519,149.041877 65.9576639,163.805609 L1.77651469,444.293018 C-1.28197116,457.458129 1.18834433,471.257988 8.83455896,482.542369 C9.7285779,483.905899 10.6696505,485.22241 11.6577767,486.491903 L192.814246,711.568296 C202.38966,723.32286 216.764543,730.06998 231.915811,730 L522.471967,730 C537.670289,730.022962 552.068699,722.946714 561.620586,711.356714 L742.682948,486.233302 C752.187781,474.478738 755.74033,458.962714 752.093674,444.245999 L687.489042,163.5235 C684.077654,148.759767 674.078758,136.370457 660.433205,129.858428 L398.650344,5.18952129 C391.10684,1.47175491 382.751413,-0.298296259 374.347145,0.0410222182 L374.582413,0.0410222182 Z" id="Path" fill="#326CE5"></path>
            <path d="M376.700144,94 C367.65669,94.6356922 360.803449,102.381719 361.274462,111.422674 L361.274462,115.848975 C361.698374,120.86388 362.451995,125.831696 363.441122,130.752424 C364.885496,140.175355 365.406081,149.716767 364.995466,159.240851 C364.100541,162.372223 362.310691,165.197522 359.861422,167.363584 L359.508162,174.003035 C349.970145,174.803537 340.50278,176.263274 331.176719,178.382248 C291.94132,187.23485 256.214969,207.576999 228.637147,236.889471 L222.984989,232.886965 C219.876302,233.828731 216.532108,233.475568 213.682478,231.945198 C206.038289,226.288907 198.963251,219.901841 192.557536,212.874434 C189.339855,209.030786 185.903631,205.375402 182.265898,201.926402 L178.780401,199.148192 C175.671713,196.652512 171.856507,195.216318 167.876445,195.027965 C163.058695,194.772492 158.409752,196.838118 155.371045,200.584385 C150.048596,208.047882 151.791345,218.383766 159.233353,223.728289 L162.483344,226.318146 C166.666845,229.100773 171.007371,231.639909 175.483308,233.922907 C183.820242,238.561106 191.686162,243.999805 198.986866,250.403815 C200.854427,253.066194 201.939423,256.197949 202.119104,259.44477 L207.253148,264.153601 C179.534022,305.732577 168.159053,356.093522 175.271352,405.55979 L168.677168,407.443322 C166.957969,410.174444 164.673555,412.505316 161.941679,414.224039 C152.741595,416.68015 143.323872,418.233567 133.822191,418.862237 C128.779591,418.964633 123.747095,419.357688 118.749769,420.039445 L114.581302,420.981211 L114.110289,420.981211 C108.211065,421.799695 103.275449,425.869134 101.348814,431.503108 C99.4221795,437.137082 100.832833,443.375539 104.996184,447.633193 C109.198777,451.869456 115.432498,453.372789 121.104835,451.517979 L121.410994,451.517979 L125.650112,451.047096 C130.430896,449.634446 135.141028,447.892179 139.733407,445.91447 C148.564904,442.382847 157.726111,439.675269 167.099273,437.909458 C170.349264,438.097811 173.457951,439.204386 176.095625,441.087918 L183.160823,439.910711 C198.468752,487.399269 230.638953,527.636229 273.595356,552.993283 L270.722176,558.997042 C272.041013,561.751708 272.535576,564.812448 272.135215,567.849644 C268.249356,576.843511 263.492123,585.460671 257.934167,593.55986 C254.885191,597.577625 252.070153,601.767571 249.503031,606.108894 L247.501225,610.346842 C244.539828,615.482501 244.708429,621.844398 247.937689,626.816085 C251.166949,631.787771 256.911641,634.529831 262.809154,633.91454 C268.721165,633.249801 273.756615,629.317228 275.832669,623.743465 L277.787373,619.740959 C279.577224,615.032128 281.084466,610.229121 282.3091,605.379025 C286.477567,595.09023 288.73843,584.048022 294.43769,577.220217 C296.300411,575.469641 298.647648,574.320961 301.173178,573.924035 L304.705777,567.496481 C351.270965,585.38964 402.796134,585.515358 449.448131,567.849644 L452.580369,573.853403 C455.783259,574.324286 458.656439,576.090098 460.587593,578.679955 C465.015117,587.108762 468.594817,595.937819 471.326694,605.049407 C472.572128,609.928277 474.097596,614.731389 475.895522,619.434885 L477.850227,623.437391 C479.946276,628.989375 484.981722,632.895591 490.881806,633.546558 C496.781889,634.197524 502.548208,631.483086 505.80486,626.521676 C509.029834,621.530251 509.175488,615.150549 506.18167,610.017224 L504.132763,605.779276 C501.565425,601.4532 498.750361,597.278938 495.701627,593.27733 C490.284975,585.460671 485.621944,577.12604 481.571231,568.391159 C480.80743,565.164658 481.38529,561.766417 483.172676,558.973498 C482.167874,556.919912 481.294737,554.804517 480.558553,552.64012 C523.420753,527.094713 555.44965,486.716489 570.592724,439.157298 L577.281112,440.334506 C579.683279,438.144899 582.839067,436.991236 586.065508,437.085412 C595.415119,438.874768 604.576326,441.794243 613.431374,445.090425 C618.023753,447.209399 622.733885,448.998754 627.514668,450.50558 C628.6451,450.811654 630.293646,451.07064 631.565382,451.376714 L631.87154,451.376714 C637.540175,453.206853 643.75659,451.689509 647.943788,447.453694 C652.130985,443.217878 653.575165,436.985679 651.677645,431.340639 C649.736427,425.700394 644.778987,421.637145 638.866086,420.839946 L634.297258,419.756915 C629.299933,419.075158 624.267437,418.682103 619.224836,418.579707 C609.71037,417.967559 600.290106,416.413645 591.105349,413.941509 C588.27927,412.364051 585.924204,410.009635 584.322759,407.160793 L577.964081,405.27726 C584.743984,355.834327 573.128568,305.623681 545.322866,264.177145 L550.880822,259.04452 C550.645316,255.818971 551.705095,252.616966 553.801104,250.144829 C561.031156,243.929173 568.873526,238.443385 577.116257,233.758098 C581.591694,231.474186 585.932168,228.935081 590.116221,226.153336 L593.554617,223.375126 C598.721446,220.169097 601.585561,214.280055 600.91677,208.237459 C600.247979,202.194863 596.165321,197.074262 590.42238,195.075053 C584.684307,193.078326 578.309202,194.552619 574.03112,198.865662 L570.545623,201.643872 C566.908625,205.093603 563.472442,208.748944 560.253985,212.591904 C554.03661,219.702238 547.159818,226.176881 539.694259,231.968743 C536.68162,233.19496 533.385838,233.553807 530.179792,233.004685 L524.221475,237.242633 C489.837512,201.220077 443.513365,178.853131 393.868575,174.379742 C393.868575,172.025326 393.562416,168.493703 393.515315,167.387128 C390.85409,165.550684 388.993588,162.74893 388.381271,159.570469 C388.054618,150.062257 388.654058,140.544827 390.171121,131.152675 C391.183799,126.208403 391.890319,121.26413 392.337782,116.249226 L392.337782,111.540395 C392.808795,102.49944 385.979104,94.7534129 376.9121,94.1177208 L376.700144,94 Z M357.058894,215.6291 L352.348762,297.86883 L351.995502,297.86883 C351.759995,302.954367 348.769061,307.286491 344.176683,309.735083 C339.584304,312.183675 334.144102,311.453806 330.046287,308.463699 L262.573647,260.669066 C284.04946,239.581183 310.99146,224.911104 340.361476,218.313133 C345.87233,217.135925 351.430286,216.241248 357.011792,215.6291 L357.058894,215.6291 Z M396.341394,215.6291 C431.785137,220.031856 464.779611,235.947705 490.308526,260.928052 L423.471754,308.416611 C419.350388,311.712792 413.69823,312.372028 408.917446,310.11179 C404.136662,307.851551 401.075076,303.048543 401.004424,297.774653 L396.341394,215.6291 Z M238.080961,291.606085 L299.78369,346.652317 L299.78369,347.005479 C303.622447,350.348749 305.294544,355.552007 304.164112,360.519823 C303.033681,365.48764 299.218474,369.419514 294.343487,370.76153 L294.343487,370.996972 L215.16617,393.764169 C211.248216,358.102029 219.318756,322.150832 238.104512,291.58254 L238.080961,291.606085 Z M514.871864,291.606085 C533.618189,322.095764 541.908021,357.859334 538.469625,393.481639 L459.174554,370.64381 L459.174554,370.337736 C454.228915,368.995719 450.46081,365.063845 449.353929,360.096029 C448.247048,355.128212 449.895594,349.972042 453.734351,346.581684 L514.966066,291.794438 L514.871864,291.606085 Z M364.05344,350.937353 L389.299747,350.937353 L404.725429,370.526089 L399.120372,395.012009 L376.441086,405.912952 L353.7147,395.012009 L348.3687,370.526089 L364.05344,350.937353 Z M444.926405,417.755662 C445.986184,417.637941 447.281471,417.637941 448.105744,417.755662 L529.75588,431.528992 C517.980551,465.432574 494.73605,494.391883 464.4028,513.768722 L432.844916,437.391486 C431.084192,433.233306 431.454987,428.479009 433.839118,424.643913 C436.223249,420.808816 440.323197,418.371509 444.832202,418.108824 L444.926405,417.755662 Z M307.790914,418.108824 C312.406843,418.179457 316.669512,420.557416 319.189433,424.418657 C321.709354,428.279899 322.109715,433.129994 320.296314,437.367942 L320.296314,437.674016 L288.926835,513.439104 C258.899744,494.20353 236.102706,465.597383 223.974116,432.046963 L304.917733,418.320722 C305.812658,418.226545 306.731134,418.226545 307.64961,418.320722 L307.790914,418.108824 Z M376.182029,451.07064 C381.429413,450.9052 386.322024,453.710615 388.828733,458.322239 L389.134892,458.322239 L429.029709,530.296718 L413.085913,535.005549 C383.741791,541.715633 353.102383,540.138174 324.582534,530.437983 L364.618655,458.463504 C367.044373,454.225556 371.518999,451.635699 376.393985,451.517979 L376.182029,451.07064 Z" id="Shape" stroke="#FFFFFF" stroke-width="0.5" fill="#FFFFFF"></path>
        </g>
        <g id="Group" transform="translate(151.000000, 0.000000)">
            <rect id="Rectangle" fill="#FFF3A2" x="0" y="55" width="395" height="250"></rect>
            <ellipse id="Oval" fill="#FFF3A2" cx="197.5" cy="304.5" rx="197.5" ry="47.5"></ellipse>
            <ellipse id="Oval" fill="#FAEB82" cx="197.5" cy="47.5" rx="197.5" ry="47.5"></ellipse>
            <text id="LDAP" font-family="Inter-Bold, Inter" font-size="54" font-weight="bold" letter-spacing="-0.248727273" fill="#333333">
                <tspan x="126.024036" y="224">LDAP</tspan>
            </text>
        </g>
        <text id="KUBERNETES" font-family="Inter-Bold, Inter" font-size="54" font-weight="bold" letter-spacing="-0.16" fill="#333333">
            <tspan x="1300.23324" y="1284">KUBERNETES</tspan>
        </text>
        <text id="Authentication" font-family="Inter-Bold, Inter" font-size="54" font-weight="bold" letter-spacing="-0.16" fill="#333333">
            <tspan x="810.239318" y="205">AUTHENTICATION</tspan>
        </text>
    </g>
</svg>