<?xml version="1.0" encoding="UTF-8"?>
<svg width="2470px" height="1098px" viewBox="0 0 2470 1098" version="1.1" xmlns="http://www.w3.org/2000/svg" xmlns:xlink="http://www.w3.org/1999/xlink">
    <!-- Generator: Sketch 60.1 (88133) - https://sketch.com -->
    <title>kubernetes-api-access</title>
    <desc>Created with Sketch.</desc>
    <g id="kubernetes-api-access" stroke="none" stroke-width="1" fill="none" fill-rule="evenodd">
        <rect id="Rectangle" fill="#CADCF8" x="609" y="152" width="1320" height="678"></rect>
        <g id="Group-3" transform="translate(1526.000000, 230.000000)">
            <rect id="Rectangle" fill="#326CE5" x="0" y="0" width="351" height="522"></rect>
            <text id="Admission-control" font-family="Inter-Bold, Inter" font-size="54" font-weight="bold" letter-spacing="-0.221538462" fill="#FFFFFF">
                <tspan x="20.4990538" y="248">ADMISSION</tspan>
                <tspan x="42.8094755" y="313">CONTROL</tspan>
            </text>
        </g>
        <g id="Group-2" transform="translate(1093.000000, 230.000000)">
            <rect id="Rectangle" fill="#326CE5" x="0" y="0" width="352" height="522"></rect>
            <text id="Autho--risation" font-family="Inter-Bold, Inter" font-size="54" font-weight="bold" letter-spacing="-0.221538462" fill="#FFFFFF">
                <tspan x="64.8198" y="248">AUTHO-</tspan>
                <tspan x="50.0168357" y="313">RISATION</tspan>
            </text>
        </g>
        <g id="Group" transform="translate(660.000000, 230.000000)">
            <rect id="Rectangle" fill="#326CE5" x="0" y="0" width="352" height="522"></rect>
            <text id="Authen--tication" font-family="Inter-Bold, Inter" font-size="54" font-weight="bold" letter-spacing="-0.221538462" fill="#FFFFFF">
                <tspan x="49.1567767" y="248">AUTHEN-</tspan>
                <tspan x="46.46783" y="313">TICATION</tspan>
            </text>
        </g>
        <polygon id="Triangle" fill="#30D314" transform="translate(1072.000000, 492.000000) rotate(90.000000) translate(-1072.000000, -492.000000) " points="1072 448 1135 536 1009 536"></polygon>
        <rect id="Rectangle" fill="#30D314" x="994" y="467" width="70" height="49"></rect>
        <polygon id="Triangle" fill="#30D314" transform="translate(1505.000000, 492.000000) rotate(90.000000) translate(-1505.000000, -492.000000) " points="1505 448 1568 536 1442 536"></polygon>
        <rect id="Rectangle" fill="#30D314" x="1427" y="467" width="70" height="49"></rect>
        <polygon id="Triangle" fill="#30D314" transform="translate(619.000000, 491.000000) rotate(90.000000) translate(-619.000000, -491.000000) " points="619 447 682 535 556 535"></polygon>
        <rect id="Rectangle" fill="#30D314" x="476" y="467" width="143" height="49"></rect>
        <polygon id="Triangle" fill="#30D314" transform="translate(1986.000000, 491.000000) rotate(90.000000) translate(-1986.000000, -491.000000) " points="1986 447 2049 535 1923 535"></polygon>
        <rect id="Rectangle" fill="#30D314" x="1877" y="467" width="88" height="49"></rect>
        <text id="Type-something" font-family="Inter-Bold, Inter" font-size="37" font-weight="bold" letter-spacing="-0.16" fill="#FFFFFF">
            <tspan x="996.156577" y="1098">Type something</tspan>
        </text>
        <g id="Pete" transform="translate(226.500000, 433.500000) scale(-1, 1) translate(-226.500000, -433.500000) translate(0.000000, 284.000000)" fill-rule="nonzero">
            <path d="M0,299 L0.0662419846,175.934482 C0.0676408631,173.232231 2.25881008,171.042364 4.96127066,171.042364 C36.5704036,171.03983 68.1795364,171.03983 99.7886693,171.03983 C101.746681,170.270671 101.047391,169.781206 100.767675,169.29174 C94.683853,159.222743 90.6979006,148.384587 89.1594628,136.637424 C85.7329423,109.716842 93.3552022,86.2924391 111.676598,66.2243687 C112.725533,65.1055913 113.774467,64.0567374 114.893331,63.0078836 C115.802408,62.0988769 115.802408,62.0988769 114.96326,61.2597938 C112.096172,58.5327738 109.508799,55.5260595 107.341,52.1697271 C102.445971,44.4082086 99.7187404,35.9474542 99.5089534,26.7175404 C99.4390244,24.4100619 99.9285273,24.1303675 102.026397,25.1792214 C104.264125,26.2979988 106.571781,27.2769291 109.019296,28.0460886 C109.299012,23.9905203 108.809509,20.634188 108.73958,17.2079321 C108.73958,15.9493075 108.669651,14.7606065 108.73958,13.5019818 C108.73958,11.7538921 109.368941,11.3343505 110.907379,12.2433572 C113.354893,13.641829 115.802408,14.9004536 118.389781,15.9493075 C119.928219,16.5786198 119.928219,16.5786198 119.788361,14.9004536 C119.368787,10.4952675 119.298858,6.09008129 119.788361,1.68489511 C120.207935,0.00672895216 120.977153,-0.272965408 121.536585,0.216499722 C121.956159,0.566117673 122.235875,1.0555828 122.58552,1.47512434 C127.970052,8.18778899 133.983946,14.2012177 141.186632,19.0259454 C147.480241,23.2213608 154.263353,25.5288393 161.815684,25.5987629 C167.479932,25.6686865 172.934393,24.4799855 178.179068,22.4522014 C183.074097,20.5642644 187.969126,18.6064039 193.073943,17.4876265 C198.248688,16.368849 203.493362,15.8793839 208.668107,17.1380085 C217.47916,19.3056398 223.423124,24.9694506 227.129361,33.080587 C228.527941,36.157225 229.29716,39.3737101 229.786663,42.7300425 C229.99645,43.9886671 229.99645,43.9886671 231.3251,43.9187435 C239.017289,43.3593548 246.429762,44.5480558 253.142945,48.5337004 C261.184779,53.3584282 265.660235,60.6304815 267.408459,69.6506246 C268.667181,76.2933657 268.317536,82.8661832 267.268601,89.5089242 C266.429454,94.6832699 265.030874,99.787692 263.352578,104.752267 C262.933004,106.010891 262.653288,105.940968 264.191726,106.500357 C272.023773,109.157453 276.918802,114.541569 278.317382,122.652706 C280.275394,133.770557 273.142637,143.629783 262.793146,146.077109 C260.905063,146.49665 258.947052,146.776344 256.98904,146.566574 C256.149892,146.426727 255.870176,146.846268 255.660389,147.615428 C254.19188,152.92962 252.163939,158.103966 249.716425,163.068541 C244.681538,173.067614 237.968354,181.668216 229.576876,189.010193 C227.688793,190.338741 227.548935,191.107901 227.968509,192.156754 C228.947515,194.883774 229.786663,197.680718 230.695739,200.407738 C236.359988,218.028483 242.094165,235.579304 247.688484,253.200049 C248.108058,254.458673 248.66749,254.948138 249.926212,255.157909 C255.450602,256.34661 258.947052,259.772866 260.41556,265.226906 C260.695276,266.415607 260.905063,267.674232 261.11485,268.862933 C262.443501,268.093773 263.002933,267.324614 263.842081,266.625378 C266.219667,264.667517 268.876968,264.247976 271.744057,265.226906 C274.681074,266.27576 276.429299,268.443391 276.848873,271.520029 C276.988731,272.568883 277.268447,272.848577 278.317382,272.988425 C283.212411,273.757584 286.0795,278.582312 284.471133,283.337116 C284.051559,284.525817 284.191417,285.3649 285.030565,286.34383 C287.198364,288.931003 288.457086,291.937717 288.876659,295.29405 C289.086446,296.762445 288.876659,296.762445 290.485026,296.762445 L319.365699,296.762445 C319.365699,293.825654 318.456622,291.518176 317.967119,289.000927 C314.680457,289.210697 312.442729,289.770086 310.274931,290.469322 C309.016209,290.888864 308.386848,290.609169 308.177061,289.909933 C307.967274,289.280621 308.456777,288.791156 309.64557,288.441538 C311.67351,287.812226 313.701451,287.252837 315.729392,286.623525 C317.757333,285.994212 317.407688,286.483677 317.407688,284.246122 C317.477617,283.197269 317.058043,283.057421 316.498611,283.057421 L306.428836,283.057421 C304.610682,282.987498 304.330966,282.63788 304.330966,282.078491 C305.659617,281.029637 306.009262,281.099561 306.428836,281.099561 L316.358753,281.099561 C317.26783,281.099561 317.617475,280.819867 317.757333,279.91086 C318.106977,277.533458 318.176906,277.533458 315.799321,276.834222 C313.841309,276.20491 311.813368,275.645521 309.855357,275.086132 C308.316919,274.45682 308.107132,274.037278 308.24699,273.547813 C309.785428,272.848577 310.205002,272.988425 310.694504,273.128272 C313.07209,273.827508 315.379747,274.526743 317.757333,275.295903 C320.974066,270.331328 323.701297,266.835149 327.407533,264.178052 C328.106823,263.688587 328.246681,263.129198 328.246681,262.360039 L328.246681,240.753649 C328.386539,239.774719 329.085829,239.425101 329.924977,239.914566 C336.847947,246.347537 342.931769,252.011347 348.945662,257.605235 C350.554029,259.143554 350.064526,259.143554 351.88268,257.815005 C364.959401,248.515168 382.511578,248.515168 395.588299,257.815005 C397.266595,259.003706 396.777092,259.283401 398.595245,257.605235 C404.748997,251.941424 410.832819,246.347537 416.98657,240.683726 C417.546002,240.194261 418.035505,239.355178 418.944582,239.704796 C419.923588,240.054414 419.573943,241.033344 419.573943,241.73258 L419.573943,273.128272 C419.573943,275.156056 419.573943,275.156056 421.462025,274.596667 C423.140321,274.107202 424.748688,273.617737 426.426984,273.128272 C428.804569,274.107202 428.664711,274.596667 428.03535,274.806438 L424.049398,276.065062 L420.483019,277.113916 C419.504014,278.722159 419.504014,279.771013 419.573943,280.749943 C424.60883,281.169485 427.685705,281.169485 430.762581,281.169485 C432.510806,281.379255 432.860451,281.728873 432.790522,282.218338 C431.5318,283.197269 431.042297,283.197269 430.622723,283.197269 L420.902593,283.197269 C419.504014,283.197269 419.434085,283.197269 419.434085,284.525817 C419.434085,286.693448 419.294227,286.203983 421.11238,286.763372 C423.000463,287.392684 424.958475,287.882149 426.916487,288.511461 C428.524853,289.210697 428.73464,289.630239 428.524853,290.189628 C424.399043,289.979857 422.51096,289.350545 420.552948,288.791156 C419.434085,291.658023 419.434085,293.685807 419.434085,295.783515 C419.434085,296.552674 419.643872,296.972216 420.483019,296.902292 L450.692343,296.902292 C451.461562,296.902292 452.230781,296.832369 453,297.25191 L453,298.580458 C451.251775,299 450.762272,299 450.20284,299 L0,299 Z" id="Shape" fill="#151D38"></path>
            <path d="M81.1192119,286.760234 C81.1192119,286.690611 81.1192119,286.690611 81.1192119,286.620989 C106.990093,286.620989 132.860975,286.620989 158.731856,286.620989 C158.872459,286.620989 158.94276,286.620989 159.083363,286.620989 C160.911197,286.620989 160.911197,286.620989 160.911197,284.810802 C160.911197,284.671557 160.911197,284.462689 160.911197,284.323444 C160.911197,248.746313 160.911197,213.169182 160.911197,177.522428 C160.911197,177.104693 160.911197,176.75658 160.911197,176.338845 C160.840896,174.459035 159.786376,173.345074 157.888241,173.136207 C157.255529,173.066584 156.622817,173.136207 156.060407,173.136207 C106.216779,173.136207 56.3731514,173.136207 6.59982503,173.136207 C6.17801718,173.136207 5.82651063,173.136207 5.40470278,173.136207 C2.80355437,173.205829 1.74903475,174.31979 1.74903475,176.826203 C1.74903475,212.890692 1.74903475,249.024803 1.74903475,285.089292 C1.74903475,286.690611 1.74903475,286.690611 3.43626615,286.690611 C3.858074,286.690611 4.20958054,286.690611 4.63138839,286.690611 C30.080462,286.760234 55.599837,286.760234 81.1192119,286.760234 Z" id="Shape" fill="#CCD6DA"></path>
            <path d="M131.572157,171.025308 C136.795483,171.025308 142.018809,171.025308 147.31178,171.025308 C150.51542,171.025308 153.788704,171.025308 156.992344,171.025308 C159.63883,171.025308 161.658516,172.568429 162.146026,174.953253 C162.285315,175.58453 162.285315,176.145665 162.285315,176.776942 C162.285315,186.456521 162.285315,196.065959 162.285315,205.745538 C162.285315,207.358801 162.424604,207.288659 163.678202,207.428943 C173.915921,208.691497 184.014352,208.130362 193.973494,205.535112 C216.677552,199.573052 233.879706,186.246095 245.649601,165.90495 C248.99253,160.153316 251.499726,153.980831 253.310479,147.527778 C253.658701,146.265224 253.658701,146.265224 252.474747,145.914515 C251.847948,145.704089 251.221149,145.493664 250.59435,145.283238 C249.410396,144.792245 249.062174,144.371394 249.271107,143.669975 C249.48004,142.898414 250.106839,142.828272 251.360438,143.249124 C254.703366,144.511677 258.046295,144.792245 261.528513,144.160968 C271.835876,142.126853 278.45209,131.605572 275.73596,121.434999 C272.950186,111.054001 262.224956,105.162083 252.19617,108.528893 C251.708659,108.669177 251.290793,108.949745 250.803283,109.019886 C250.315772,109.090028 249.967551,108.809461 249.758618,108.38861 C249.549685,107.897616 249.688973,107.476765 250.037195,107.196198 C250.315772,106.985772 250.59435,106.845488 250.942572,106.775346 C251.708659,106.494779 252.405103,106.284353 253.171191,106.073928 C253.310479,106.003786 253.519412,105.933644 253.589057,105.79336 C253.728346,105.442651 253.380124,105.512793 253.171191,105.442651 C252.892613,105.302367 252.544392,105.232225 252.19617,105.091941 C246.972844,103.268252 241.95845,100.95357 237.361923,97.8673277 C229.004602,92.3962611 222.527677,85.2417895 218.349016,76.0532033 C216.398974,71.7044068 215.075732,67.1451846 214.309644,62.3755369 C214.100711,60.9726993 214.031066,60.9726993 212.847112,61.6039762 C212.429246,61.8144018 212.081025,62.0248275 211.663159,62.305395 C205.464811,65.9527727 199.127176,69.0390154 192.441318,71.564123 C178.024938,76.9650477 163.260336,79.139446 148.008223,76.4039127 C137.422282,74.5100819 127.532784,70.7224205 118.896885,64.058942 C117.782576,63.2172394 117.782576,63.2172394 116.877199,64.1290838 C109.077032,71.6342649 102.878685,80.261716 98.4214464,90.0815791 C91.5266559,105.442651 89.4373254,121.434999 92.0141663,138.058624 C93.755275,149.351467 97.7946473,159.802607 103.784061,169.482186 C104.480505,170.674598 105.246593,171.165591 106.709124,171.165591 C114.927157,170.955166 123.214835,171.025308 131.572157,171.025308 Z" id="Shape" fill="#FAE0D6"></path>
            <path d="M162.740531,248.3116 C162.740531,259.421511 162.740531,270.461106 162.740531,281.571018 C162.740531,283.117967 162.740531,284.735233 162.740531,286.282182 C162.740531,287.125973 162.950361,287.477553 163.859627,287.477553 C165.748103,287.407237 167.636578,287.477553 169.594997,287.477553 C176.659293,287.477553 183.723589,287.407237 190.717942,287.407237 C192.186756,287.407237 192.326643,287.618184 192.326643,289.094818 C192.326643,291.415243 192.326643,293.735667 192.326643,295.985776 C192.326643,297.11083 192.186756,297.251462 193.44574,297.251462 C202.468455,297.251462 211.49117,297.251462 220.443942,297.251462 C221.353208,297.251462 221.563038,296.899883 221.632982,296.126408 C221.912756,293.595035 222.682135,291.133979 224.011062,288.954186 C224.500667,288.180712 224.57061,287.477553 224.220893,286.563446 C222.752078,282.203861 221.353208,277.773959 219.954337,273.414374 C216.527104,262.726358 213.029928,252.038342 209.602695,241.350326 C209.462808,240.998747 209.322921,240.576851 209.252977,240.225272 C209.11309,239.592429 209.392864,239.100218 210.022356,238.959586 C210.581904,238.818954 211.001566,239.100218 211.211396,239.592429 C211.28134,239.803376 211.351283,240.014324 211.421227,240.225272 C213.86925,247.819388 216.317274,255.413505 218.765297,263.007622 C221.073434,270.179843 223.38157,277.352064 225.75965,284.453969 C226.179311,285.649339 226.179311,285.719655 227.088577,284.875865 C229.606544,282.414808 232.544172,280.797543 235.971405,280.024068 C237.020558,279.742804 237.090502,279.742804 236.810728,278.688066 C236.251179,276.367641 235.621688,273.976901 235.132083,271.656477 C233.523382,264.624887 237.789937,257.38235 244.714346,255.554137 C245.134008,255.413505 245.623612,255.413505 246.043273,255.272873 C246.532878,255.202557 246.742709,254.921294 246.532878,254.429082 C246.462935,254.147819 246.392991,253.866555 246.253104,253.655608 C240.797509,236.639161 235.27197,219.552399 229.816375,202.535953 C228.837165,199.371737 227.788013,196.207522 226.73886,193.043307 C226.529029,192.339181 226.179311,192.058884 225.619763,192.691727 C225.409933,192.902675 225.200102,193.043307 224.920328,193.183939 C220.304055,196.629417 215.338064,199.653001 210.0923,202.043741 C199.880545,206.754906 189.109241,209.42691 177.848333,209.848806 C173.092173,210.059753 168.336013,209.989437 163.649797,209.286278 C162.880418,209.145647 162.600644,209.42691 162.670587,210.130069 C162.670587,210.551964 162.670587,211.044176 162.670587,211.466071 C162.740531,223.771353 162.740531,236.076634 162.740531,248.3116 Z" id="Shape" fill="#FFF3A2"></path>
            <path d="M385.887347,297.110086 C396.074678,297.110086 406.331785,297.110086 416.519116,297.110086 C417.984417,297.110086 417.984417,297.110086 417.984417,295.625642 C417.984417,295.413578 417.984417,295.201515 417.984417,294.918763 C417.984417,278.236434 417.984417,261.554105 417.984417,244.871776 C417.984417,244.518337 417.984417,244.164897 417.984417,243.882146 C417.984417,243.599395 418.123969,243.245956 417.844864,243.10458 C417.426207,242.892516 417.286655,243.316643 417.00755,243.528707 C413.239633,247.063099 409.471716,250.526803 405.634023,254.061194 C403.331407,256.18183 401.028791,258.373152 398.726175,260.493787 C397.749307,261.412729 397.609755,261.342042 396.563111,260.635163 C396.21423,260.4231 395.935125,260.140348 395.65602,259.928285 C390.143697,255.757703 384.003388,253.283628 377.165317,252.788813 C368.024629,252.081935 359.721257,254.626697 352.394752,260.281724 C350.789898,261.554105 350.789898,261.554105 349.324597,260.211036 C349.254821,260.140348 349.185045,260.06966 349.045492,259.998973 C343.533169,254.768073 337.95107,249.537173 332.368971,244.306273 C331.950314,243.882146 331.531656,243.10458 330.973446,243.316643 C330.554789,243.528707 330.764118,244.306273 330.764118,244.871776 C330.764118,250.95093 330.764118,257.100771 330.764118,263.179925 C330.764118,264.028179 330.694341,264.735058 329.78725,265.30056 C319.739472,272.15728 317.36708,285.517281 323.228284,295.837705 C323.786494,296.827335 324.41448,297.251462 325.600676,297.251462 C332.996957,297.180774 340.463015,297.251462 347.859296,297.180774 C348.34773,297.180774 349.045492,297.392838 349.254821,296.968711 C349.46415,296.544584 348.766387,296.191144 348.417506,295.837705 C344.789142,291.879186 343.672722,287.284477 345.207799,282.194953 C346.742876,277.105429 350.301465,274.065852 355.325354,272.864159 C356.371998,272.581407 357.418641,272.440032 358.465285,272.581407 C359.023495,272.652095 359.372376,273.005534 359.372376,273.641725 C359.372376,274.13654 359.093271,274.489979 358.535061,274.560667 C357.907075,274.631355 357.348865,274.702042 356.720879,274.77273 C351.906318,275.408921 347.78952,279.084688 346.812653,283.820773 C345.766009,288.698234 347.859296,293.646382 352.045871,296.261832 C353.092514,296.898023 354.208934,297.251462 355.534683,297.251462 C365.861566,297.039398 375.909345,297.110086 385.887347,297.110086 Z" id="Shape" fill="#C27659"></path>
            <path d="M81.2486269,288.582363 C81.2486269,288.582363 81.2486269,288.582363 81.2486269,288.582363 C66.9810536,288.64471 52.7134803,288.64471 38.445907,288.64471 C26.9896782,288.64471 15.5334493,288.64471 4.07722051,288.64471 C3.65551884,288.64471 3.16353355,288.64471 2.74183188,288.64471 C2.03899575,288.64471 1.68757769,288.8941 1.7578613,289.517574 C1.7578613,290.764522 1.7578613,292.01147 1.7578613,293.258418 C1.7578613,295.502924 1.7578613,295.502924 4.28807135,295.502924 C24.3189009,295.502924 44.420014,295.502924 64.4508436,295.440577 C95.7270511,295.440577 126.932975,295.378229 158.209182,295.378229 C158.630884,295.378229 159.122869,295.378229 159.544571,295.378229 C160.528542,295.315882 160.87996,295.004145 160.87996,294.131281 C160.950243,292.510249 160.87996,290.951564 160.87996,289.330532 C160.87996,288.64471 160.528542,288.457668 159.825706,288.520016 C159.404004,288.520016 159.052586,288.520016 158.630884,288.520016 C151.180821,288.520016 143.801042,288.582363 136.350979,288.582363 C118.006956,288.582363 99.6629334,288.582363 81.2486269,288.582363 Z" id="Shape" fill="#CCD6DA"></path>
            <path d="M255.291203,297.180397 C265.112907,297.180397 275.003779,297.180397 284.825483,297.180397 C285.240484,297.180397 285.586319,297.180397 286.001321,297.180397 C286.623823,297.251462 286.900491,297.038268 286.831324,296.327623 C286.485489,293.342914 285.447985,290.642462 283.649645,288.226269 C283.372977,287.799881 283.09631,287.870946 282.957976,288.368398 C282.888809,288.581591 282.819642,288.794785 282.681308,289.007978 C280.398799,293.91143 274.727111,295.261656 270.577095,291.850559 C269.816259,291.210978 269.33209,291.068849 268.43292,291.495236 C265.873744,292.561204 263.452901,292.205881 261.170392,290.642462 C258.74955,288.936914 257.642879,286.52072 257.85038,283.464946 C257.919547,282.398978 257.85038,282.327914 256.95121,282.612172 C254.807035,283.180688 252.801194,282.967494 250.86452,281.830462 C250.380351,281.546204 249.96535,281.546204 249.412014,281.546204 C246.230335,281.546204 242.97949,281.47514 239.797811,281.546204 C232.466116,281.688333 226.171925,286.876043 224.304418,294.195688 C224.096917,294.977397 223.958584,295.759107 223.889417,296.540817 C223.82025,297.038268 224.027751,297.251462 224.511919,297.251462 C224.926921,297.251462 225.411089,297.251462 225.826091,297.251462 C235.716962,297.180397 245.538666,297.180397 255.291203,297.180397 Z" id="Shape" fill="#CCD6DA"></path>
            <path d="M243.127855,278.519668 C243.127855,278.519668 243.127855,278.519668 243.127855,278.519668 C244.427521,278.519668 245.654983,278.519668 246.954648,278.519668 C247.460074,278.519668 247.748888,278.384462 247.532277,277.843636 C246.088205,274.125458 245.871594,270.136867 245.00515,266.283483 C244.788539,265.404641 245.149557,264.863815 245.79939,264.728609 C246.449223,264.593402 246.882445,264.999022 247.099056,265.877864 C247.315666,266.756706 247.460074,267.703151 247.604481,268.581993 C248.037703,270.880503 248.398721,273.179013 248.904147,275.409919 C249.626183,278.452065 252.586532,280.209749 255.835696,279.668923 C259.012656,279.060494 261.034358,276.356365 260.528933,273.314219 C260.095711,270.677693 259.662489,268.10877 259.012656,265.539848 C257.640787,259.793573 251.503478,256.142998 245.366168,257.22465 C239.517673,258.238699 235.257658,263.984973 236.268509,269.596042 C236.773935,272.300171 237.640378,274.936697 238.290211,277.640826 C238.434619,278.249255 238.795637,278.519668 239.517673,278.519668 C240.745135,278.519668 241.972597,278.519668 243.127855,278.519668 Z" id="Shape" fill="#FAE0D6"></path>
            <path d="M260.606178,284.394931 C260.74911,286.3594 261.392308,287.902911 262.964568,289.025465 C266.252022,291.410892 270.682938,290.218178 272.112266,286.429559 C273.470127,282.7111 274.756522,278.922481 276.042917,275.133862 C276.18585,274.712904 276.257316,274.291947 276.328783,273.800829 C276.543182,271.064605 274.899455,268.609018 272.183732,267.767103 C269.539476,266.995347 266.609354,268.117901 265.322959,270.573487 C264.465363,272.257318 263.750699,274.081468 263.464833,275.975777 C263.250434,277.37897 262.821636,278.641843 262.106972,279.904716 C261.249375,281.378067 260.74911,282.921579 260.606178,284.394931 Z" id="Shape" fill="#FAE0D6"></path>
            <path d="M176.368402,295.502924 C176.368402,295.502924 176.368402,295.439914 176.368402,295.439914 C180.132822,295.439914 183.826216,295.439914 187.590636,295.439914 C188.229877,295.439914 188.869118,295.439914 189.437332,295.439914 C190.1476,295.376903 190.644788,295.124862 190.644788,294.431748 C190.644788,292.667457 190.644788,290.903166 190.644788,289.138876 C190.644788,288.697803 190.36068,288.508772 189.863493,288.508772 C189.437332,288.508772 188.940145,288.508772 188.513984,288.508772 C183.186975,288.508772 177.859965,288.508772 172.532956,288.508772 C169.620857,288.508772 166.708759,288.571782 163.867687,288.571782 C163.015366,288.571782 162.660232,288.823824 162.660232,289.579948 C162.731258,291.155208 162.660232,292.730467 162.660232,294.242716 C162.660232,295.439914 162.660232,295.502924 164.080767,295.502924 C168.200321,295.502924 172.248849,295.502924 176.368402,295.502924 Z" id="Shape" fill="#CCD6DA"></path>
            <path d="M283.343629,282.210063 C283.343629,279.080295 281.33026,276.835026 278.272923,276.358757 C276.930677,276.154642 276.781538,276.22268 276.334123,277.379334 C275.513862,279.556564 274.768169,281.733794 273.947908,283.842985 C273.202216,285.748061 272.82937,287.857253 271.337985,289.490175 C270.816001,290.034482 271.263416,290.374675 271.636262,290.714867 C274.768169,293.096212 279.540599,292.075635 281.181122,288.537637 C281.926814,286.904714 282.523368,285.203754 283.119922,283.502793 C283.343629,282.958485 283.343629,282.414178 283.343629,282.210063 Z" id="Shape" fill="#FAE0D6"></path>
            <path d="M101.413212,231.164681 C100.858746,239.669004 95.5913166,246.012392 87.8287896,247.824788 C77.8483979,250.194845 68.0066227,243.293797 66.6204571,233.046786 C65.4422165,224.403048 70.9868785,215.619896 79.9969544,213.528669 C81.9375862,213.110424 82.0762027,213.180131 82.3534358,215.131943 C83.5316765,221.754161 87.9674062,226.63369 94.4130759,228.097549 C95.937858,228.446087 97.46264,228.515794 99.0567304,228.376379 C101.135979,228.167256 101.343903,228.376379 101.413212,230.467606 C101.48252,230.816144 101.413212,231.164681 101.413212,231.164681 Z" id="Shape" fill="#151D38"></path>
            <path d="M84.2606214,246.543204 C85.3209727,246.471574 86.7347744,246.328314 88.1485761,245.970165 C94.4399936,244.251049 99.3882996,238.234142 99.6710599,231.787457 C99.74175,230.35486 99.74175,230.35486 98.3986384,230.35486 C89.9865183,230.498119 82.6347495,224.767732 80.7261172,216.458671 C80.3019767,214.596295 80.0899064,215.026074 78.958865,215.384223 C71.6777863,217.819638 67.1536209,225.412401 68.4260424,233.220053 C69.6277738,240.812816 76.3433319,246.614833 84.2606214,246.543204 Z" id="Shape" fill="#FFFFFF"></path>
            <path d="M160.585269,107.298432 C168.265061,107.298432 175.944853,107.298432 183.624645,107.298432 C187.153199,107.298432 190.681752,107.440123 194.210305,107.510969 C195.8708,107.581815 196.285924,108.148582 195.524864,109.5655 C190.335815,119.413078 182.72521,126.285129 171.862802,128.623043 C160.931206,130.960957 151.314169,127.914584 143.080878,120.192383 C139.829074,117.14601 137.338331,113.462024 135.331899,109.423808 C135.124337,108.998733 134.916775,108.644503 134.7784,108.219428 C134.501651,107.369278 134.7784,106.944202 135.677835,106.731665 C136.023772,106.660819 136.369708,106.660819 136.646458,106.660819 C143.426815,106.731665 150.276359,106.80251 157.056716,106.873356 C158.2329,106.873356 159.339897,107.015048 160.516082,107.015048 C160.585269,107.15674 160.585269,107.227586 160.585269,107.298432 Z" id="Shape" fill="#151D38"></path>
            <path d="M166.285839,108.679286 C166.285839,108.679286 166.285839,108.679286 166.285839,108.679286 C164.178712,108.679286 162.141822,108.679286 160.034696,108.679286 C157.435906,108.679286 154.907353,108.679286 152.308564,108.544321 C147.883597,108.409357 143.458631,108.409357 139.033664,108.409357 C138.050338,108.409357 137.980101,108.476839 138.471764,109.286625 C140.227703,112.458289 142.475305,115.292542 145.21457,117.721902 C152.940702,124.470123 161.93111,127.236894 172.185794,125.27991 C181.597628,123.45789 188.480909,118.194277 193.538013,110.501305 C194.451102,109.084179 194.451102,109.016697 192.695163,109.016697 C183.915467,108.881732 175.065534,108.746768 166.285839,108.679286 Z" id="Shape" fill="#FFFFFF"></path>
            <path d="M99.6949807,118.026648 C99.6949807,112.310038 103.983781,106.729538 111.131783,106.661483 C117.394793,106.593428 122.432432,111.765599 122.432432,118.026648 C122.432432,124.355752 117.394793,129.391813 111.063707,129.391813 C104.800696,129.323758 99.6949807,124.287697 99.6949807,118.026648 Z" id="Shape" fill="#E5384A"></path>
            <path d="M234.353923,119.810162 C234.626845,125.270494 229.918948,131.072097 223.027679,131.140351 C216.750484,131.140351 211.701435,126.089544 211.633205,119.810162 C211.633205,113.394272 216.614023,108.41172 223.027679,108.41172 C229.782487,108.275211 234.695075,114.076814 234.353923,119.810162 Z" id="Shape" fill="#E5384A"></path>
            <path d="M126.766724,92.6725146 C130.221453,92.6725146 133.000256,95.3757758 132.925154,98.829943 C132.925154,102.209019 130.221453,104.912281 126.91693,104.912281 C123.462201,104.912281 120.683398,102.209019 120.683398,98.7548524 C120.683398,95.4508664 123.387098,92.7476052 126.766724,92.6725146 Z" id="Shape" fill="#151D38"></path>
            <path d="M205.549878,94.4225393 C209.004607,94.4225393 211.633205,97.1251349 211.633205,100.653524 C211.558102,104.031768 208.854401,106.734364 205.474775,106.659292 C202.170252,106.659292 199.391449,103.881624 199.391449,100.578452 C199.316346,97.1251349 202.095149,94.3474672 205.549878,94.4225393 Z" id="Shape" fill="#151D38"></path>
            <path d="M269.350473,125.999304 C269.28037,133.110828 261.989653,138.122759 255.049451,135.81998 C254.839142,135.752251 254.628833,135.684523 254.418524,135.549065 C253.717494,135.27815 253.437081,134.804048 253.717494,134.12676 C253.927803,133.517201 254.55873,133.449472 255.119554,133.58493 C255.47007,133.652658 255.890688,133.855845 256.241203,133.923574 C261.078314,135.210421 266.125733,132.230354 267.107176,127.557066 C268.088619,122.748321 264.723672,118.210491 259.746356,117.533203 C259.325737,117.465475 258.835016,117.397746 258.414398,117.330017 C257.923676,117.262288 257.643264,116.855915 257.643264,116.381814 C257.643264,115.772254 257.99378,115.501339 258.554604,115.43361 C258.905119,115.365882 259.325737,115.43361 259.746356,115.43361 C265.284497,116.04317 269.420576,120.580999 269.350473,125.999304 Z" id="Shape" fill="#151D38"></path>
            <path d="M166.154515,92.1217181 C166.154515,92.6185591 165.764673,92.9024682 165.309858,93.1154 C163.945412,93.89615 162.515993,94.6769001 161.151547,95.3866728 C160.566784,95.6705819 160.436837,95.9544911 161.021599,96.3803547 C162.191124,97.232082 163.295676,98.1547866 164.465201,99.0065139 C164.790069,99.2194458 165.049963,99.4323776 165.309858,99.7162867 C165.634726,100.071173 165.634726,100.568014 165.374832,100.993878 C165.114937,101.419741 164.725095,101.490719 164.27028,101.348764 C164.010386,101.277787 163.815465,101.135832 163.620544,100.9229 C161.866256,99.5743321 160.046995,98.2257639 158.292708,96.8062184 C157.058209,95.8125365 157.123183,95.1027637 158.487629,94.3220137 C160.436837,93.1863773 162.451019,92.1217181 164.465201,91.057059 C165.439805,90.7021726 166.219488,91.057059 166.154515,92.1217181 Z" id="Shape" fill="#151D38"></path>
            <path d="M111.938224,96.0360919 C112.137245,90.9690698 115.454261,86.7706801 120.164423,85.8296617 C120.695145,85.6848896 121.225868,85.6125036 121.75659,85.7572756 C122.154632,85.8296617 122.419994,86.1915918 122.419994,86.625908 C122.486334,87.1326102 122.287313,87.5669264 121.822931,87.7116985 C121.358549,87.8564705 120.894166,87.9288565 120.429784,88.0012426 C116.847407,88.7974889 114.459156,91.6929301 114.061114,95.6017757 C113.994774,96.0360919 113.994774,96.398022 113.994774,96.8323382 C113.928433,97.4838125 113.663072,97.9181287 112.999669,97.9181287 C112.336266,97.9181287 112.070905,97.4114264 112.004564,96.7599522 C111.938224,96.5427941 111.938224,96.325636 111.938224,96.0360919 Z" id="Shape" fill="#151D38"></path>
            <path d="M218.629344,95.9993078 C218.629344,96.2835776 218.629344,96.7810497 218.560907,97.2074543 C218.424034,97.7049263 218.081851,97.9181287 217.602795,97.9181287 C217.123739,97.9181287 216.781556,97.6338589 216.713119,97.1363868 C216.644682,96.7810497 216.713119,96.4257125 216.644682,96.1414427 C216.439373,91.9484639 213.770345,88.7504292 209.801023,87.9686874 C209.595713,87.89762 209.390403,87.89762 209.185093,87.8265525 C208.500727,87.6844177 208.021671,87.3290805 208.158544,86.5473387 C208.295418,85.7655969 208.911347,85.623462 209.527276,85.6945294 C211.854121,85.9787992 213.838782,86.9026759 215.549697,88.5372269 C217.465921,90.5981826 218.49247,93.0144755 218.629344,95.9993078 Z" id="Shape" fill="#151D38"></path>
            <path d="M373.699283,291.990201 C371.074795,291.915091 369.301493,291.163993 367.953783,289.361358 C367.386326,288.68537 367.17353,288.68537 366.606073,289.361358 C364.12345,292.29064 360.505913,292.816408 357.597697,290.788444 C356.604648,290.112456 355.824395,289.136029 355.256938,288.009382 C354.973209,287.408503 354.902277,286.657405 355.611598,286.281856 C356.320919,285.906307 356.746512,286.281856 357.101172,286.957845 C357.313969,287.408503 357.597697,287.859162 357.952357,288.309821 C360.293117,290.938664 364.407178,290.112456 365.683956,286.807625 C365.967684,286.056527 366.038616,285.605868 365.116499,285.380539 C363.839721,285.00499 363.059468,283.953453 362.208283,282.977026 C361.853623,282.601477 361.640826,282.075708 361.569894,281.549939 C361.357098,280.498402 361.711758,279.822414 362.77574,279.822414 C365.754888,279.747304 368.804968,279.747304 371.784116,279.822414 C372.777165,279.822414 373.131826,280.498402 372.848097,281.549939 C372.422505,283.277465 371.145727,284.178782 369.868949,285.0801 C369.443357,285.380539 368.734036,285.305429 368.592172,285.831198 C368.450307,286.507186 368.8759,287.183174 369.301493,287.784052 C371.216659,290.563115 375.046992,290.563115 377.033091,287.784052 C377.245887,287.483613 377.458684,287.032954 377.67148,286.732515 C378.02614,286.206747 378.522665,286.131637 379.01919,286.356966 C379.515714,286.657405 379.657578,287.183174 379.444782,287.708942 C379.01919,288.76048 378.380801,289.661797 377.529616,290.412895 C376.252838,291.464432 374.834196,292.06531 373.699283,291.990201 Z" id="Shape" fill="#151D38"></path>
            <path d="M397.031798,272.773749 C400.029623,272.773749 402.277992,275.096014 402.277992,278.017572 C402.277992,281.014043 399.879732,283.336307 396.881907,283.261396 C393.959027,283.186484 391.710658,280.864219 391.785604,277.867749 C391.710658,274.94619 394.033973,272.698837 397.031798,272.773749 Z" id="Shape" fill="#151D38"></path>
            <path d="M335.777458,283.263158 C332.874805,283.263158 330.567568,281.030982 330.567568,278.054747 C330.567568,275.078512 332.725951,272.846336 335.703031,272.77193 C338.754539,272.77193 341.061776,275.004106 341.061776,277.980341 C340.987349,280.956576 338.754539,283.263158 335.777458,283.263158 Z" id="Shape" fill="#151D38"></path>
        </g>
        <text id="API-SERVER" font-family="Inter-Bold, Inter" font-size="54" font-weight="bold" letter-spacing="-0.16" fill="#333333">
            <tspan x="1112.45021" y="897">API SERVER</tspan>
        </text>
        <text id="KUBERNETES-API" font-family="Inter-Bold, Inter" font-size="54" font-weight="bold" letter-spacing="-0.16" fill="#333333">
            <tspan x="2011.03655" y="717">KUBERNETES API</tspan>
        </text>
        <text id="User" font-family="Inter-Bold, Inter" font-size="54" font-weight="bold" letter-spacing="-0.16" fill="#333333">
            <tspan x="155.187543" y="650">USER</tspan>
        </text>
        <g id="kubernetes-icon" transform="translate(2036.000000, 253.000000)" fill-rule="nonzero">
            <path d="M203.186862,0.0222531485 C199.530001,0.236651187 195.953573,1.18206849 192.669876,2.80238468 L50.2496967,70.5967848 C42.8124114,74.1293372 37.4069618,80.8501139 35.5540299,88.8589332 L0.693352601,241.013747 C-0.967896685,248.155369 0.373881584,255.641319 4.5270048,261.76271 C5.01260074,262.502378 5.52375437,263.21654 6.06046568,263.905197 L104.457539,386.001432 C109.658527,392.37788 117.466399,396.037962 125.695972,396 L283.514654,396 C291.769785,396.012456 299.590436,392.173834 304.778645,385.886656 L403.124603,263.764915 C408.287254,257.388466 410.216859,248.971554 408.236139,240.988241 L373.145442,88.7058984 C371.29251,80.6970792 365.861503,73.9763025 358.449776,70.44375 L216.259616,2.81513758 C212.162281,0.798376638 207.623942,-0.161815505 203.059073,0.0222531485 L203.186862,0.0222531485 Z" id="Path" fill="#326CE5"></path>
            <path d="M204.108774,51 C199.193854,51.3449219 195.469266,55.5478585 195.725251,60.4534138 L195.725251,62.855092 C195.955638,65.5761422 196.365215,68.2716426 196.902784,70.9415932 C197.68777,76.0544057 197.970696,81.2315049 197.747536,86.3992024 C197.261164,88.0982619 196.288419,89.6312479 194.957295,90.8065372 L194.765306,94.4090544 C189.581601,94.8434004 184.436293,95.6354432 179.367782,96.7851827 C158.044196,101.588539 138.627701,112.626038 123.639754,128.530768 L120.567929,126.359038 C118.878425,126.870034 117.060928,126.67841 115.512216,125.848043 C111.357766,122.778981 107.512637,119.313407 104.03127,115.500387 C102.28253,113.414852 100.415017,111.431468 98.4379881,109.560066 L96.5436959,108.05263 C94.8541921,106.698492 92.7807101,105.919224 90.6176332,105.817025 C87.9992907,105.678408 85.4726915,106.799201 83.8212201,108.831898 C80.9285847,112.881536 81.8757308,118.48971 85.9203006,121.389608 L87.6866001,122.794846 C89.9602418,124.304679 92.3192234,125.682395 94.7517979,126.921133 C99.28274,129.437785 103.557697,132.388783 107.525471,135.863552 C108.54045,137.308139 109.130121,139.007405 109.227774,140.769107 L112.018015,143.324084 C96.9532726,165.884528 90.7712245,193.210004 94.6366045,220.050034 L91.0528085,221.072025 C90.1184616,222.553911 88.8769323,223.818625 87.3922168,224.751191 C82.392171,226.083859 77.2738432,226.926732 72.1098866,227.267843 C69.3693429,227.323403 66.6342905,227.536672 63.9183528,227.906588 L61.6528818,228.417583 L61.3968964,228.417583 C58.1907963,228.861686 55.5083962,231.069734 54.4613121,234.126686 C53.414228,237.183639 54.1808874,240.56858 56.4435783,242.878751 C58.7275962,245.177316 62.1154883,245.993013 65.19828,244.986607 L65.3646705,244.986607 L67.6685394,244.731109 C70.2667915,243.964616 72.8266458,243.019275 75.3225038,241.946185 C80.1222306,240.029952 85.1011472,238.560841 90.1952573,237.602724 C91.9615567,237.704923 93.6510606,238.305343 95.084579,239.327334 L98.9243604,238.688589 C107.243887,264.45553 124.727692,286.287806 148.073563,300.046355 L146.512052,303.30395 C147.228811,304.798612 147.497596,306.459347 147.280008,308.107307 C145.168128,312.987312 142.582676,317.66292 139.562048,322.05748 C137.904995,324.237489 136.375083,326.510923 134.979908,328.866492 L133.89197,331.165972 C132.282515,333.952542 132.374146,337.404461 134.129179,340.102061 C135.884211,342.799661 139.006327,344.287482 142.211497,343.95363 C145.424546,343.592948 148.161204,341.459162 149.289494,338.43488 L150.351833,336.26315 C151.324578,333.708173 152.143731,331.102097 152.809294,328.470471 C155.074765,322.887847 156.303495,316.896427 159.400918,313.19171 C160.413267,312.241861 161.688939,311.618596 163.06151,311.403227 L164.981401,307.915683 C190.288568,317.624379 218.291377,317.692592 243.645723,308.107307 L245.348027,311.364902 C247.088728,311.6204 248.650239,312.578516 249.699779,313.983753 C252.106042,318.557161 254.051531,323.347743 255.536247,328.291623 C256.213113,330.938862 257.042172,333.544995 258.019305,336.097077 L259.081645,338.268807 C260.220802,341.281272 262.957458,343.400756 266.164025,343.753966 C269.370592,344.107175 272.504461,342.634341 274.27438,339.942317 C276.027084,337.234007 276.106244,333.772428 274.479169,330.987123 L273.365632,328.687644 C271.97034,326.340348 270.440414,324.075424 268.783493,321.904181 C265.83966,317.66292 263.305405,313.140611 261.10393,308.401129 C260.68882,306.650453 261.002875,304.806593 261.97428,303.291176 C261.428192,302.176915 260.953662,301.029117 260.553561,299.854732 C283.848235,285.993983 301.255245,264.085058 309.485176,238.279793 L313.120169,238.918537 C314.425695,237.730473 316.140797,237.104504 317.894298,237.155603 C322.975608,238.126494 327.954525,239.71058 332.767051,241.499064 C335.262909,242.648803 337.822763,243.619694 340.421015,244.437287 C341.03538,244.60336 341.931329,244.743884 342.62249,244.909958 L342.788881,244.909958 C345.86966,245.902978 349.248147,245.079678 351.523798,242.781356 C353.799449,240.483034 354.584329,237.101489 353.553068,234.038532 C352.498058,230.978177 349.803797,228.773488 346.590264,228.340934 L344.107206,227.753289 C341.391268,227.383373 338.656216,227.170104 335.915672,227.114545 C330.744766,226.782398 325.625058,225.939256 320.633342,224.597893 C319.097429,223.741976 317.817502,222.464487 316.947151,220.918726 L313.491348,219.896736 C317.176078,193.069366 310.863352,165.825442 295.751558,143.336858 L298.772186,140.551934 C298.644193,138.801775 299.22016,137.064391 300.359296,135.723028 C304.288672,132.350459 308.550829,129.373911 313.030574,126.831709 C315.462877,125.592475 317.821831,124.214775 320.095772,122.705421 L321.964466,121.197985 C324.772525,119.458417 326.329109,116.263067 325.965636,112.984399 C325.602162,109.705731 323.383327,106.927331 320.262163,105.842575 C317.143645,104.759166 313.678914,105.559106 311.35387,107.899331 L309.459578,109.406768 C307.482949,111.278566 305.615458,113.261927 303.866296,115.347089 C300.487288,119.205103 296.749901,122.718196 292.692532,125.860818 C291.055229,126.526154 289.264042,126.720862 287.521626,126.422913 L284.283411,128.722392 C265.596474,109.17682 240.420307,97.0406804 213.439443,94.6134525 C213.439443,93.3359641 213.273052,91.4197316 213.247454,90.8193121 C211.801136,89.8228712 210.789994,88.30266 210.457212,86.5780507 C210.279684,81.4189655 210.605466,76.2548785 211.429957,71.1587663 C211.980326,68.4760407 212.364304,65.7933152 212.60749,63.072265 L212.60749,60.5172883 C212.863475,55.611733 209.151687,51.4087963 204.223967,51.0638744 L204.108774,51 Z M193.434181,116.995049 L190.874327,161.617717 L190.682338,161.617717 C190.554345,164.377092 188.928838,166.72767 186.43298,168.056258 C183.937122,169.384846 180.98049,168.988825 178.753417,167.366414 L142.083504,141.433401 C153.755141,129.991272 168.397533,122.031396 184.359498,118.451385 C187.354527,117.812641 190.375155,117.327195 193.408583,116.995049 L193.434181,116.995049 Z M214.783366,116.995049 C234.04627,119.383952 251.978049,128.019773 265.85246,141.573924 L229.528127,167.340865 C227.288254,169.129348 224.216429,169.487045 221.618177,168.260656 C219.019925,167.034267 217.35602,164.428191 217.317622,161.566617 L214.783366,116.995049 Z M128.772262,158.219598 L162.306353,188.087276 L162.306353,188.278899 C164.392634,190.092932 165.301383,192.916182 164.687018,195.611682 C164.072652,198.307182 161.99917,200.440588 159.349721,201.168756 L159.349721,201.296505 L116.31857,213.649818 C114.189248,194.299804 118.575411,174.792951 128.785061,158.206823 L128.772262,158.219598 Z M279.2021,158.219598 C289.39032,174.763072 293.895663,194.16812 292.02697,213.496519 L248.931823,201.104882 L248.931823,200.938808 C246.243976,200.21064 244.196092,198.077235 243.594526,195.381734 C242.992961,192.686234 243.88891,189.888534 245.975191,188.048951 L279.253297,158.321797 L279.2021,158.219598 Z M197.235565,190.412304 L210.956384,190.412304 L219.339907,201.041007 L216.29368,214.326886 L203.967982,220.241657 L191.616685,214.326886 L188.71125,201.041007 L197.235565,190.412304 Z M241.188263,226.667424 C241.764231,226.60355 242.468191,226.60355 242.916165,226.667424 L287.291239,234.140731 C280.891604,252.536563 268.258723,268.24967 251.773261,278.763399 L234.622237,237.321677 C233.665322,235.065479 233.866841,232.485832 235.162564,230.404938 C236.458287,228.324043 238.68652,227.001578 241.137066,226.859047 L241.188263,226.667424 Z M166.658105,226.859047 C169.166763,226.897372 171.483431,228.187635 172.852953,230.282716 C174.222475,232.377797 174.440062,235.009423 173.454518,237.308902 L173.454518,237.474975 L156.405889,278.584551 C140.086818,268.147471 127.697123,252.625987 121.105498,234.421778 L165.096594,226.974021 C165.582967,226.922922 166.082138,226.922922 166.58131,226.974021 L166.658105,226.859047 Z M203.82719,244.743884 C206.679029,244.654118 209.338056,246.176315 210.700399,248.678548 L210.866789,248.678548 L232.548755,287.731367 L223.883648,290.286344 C207.935756,293.927186 191.283904,293.071269 175.783986,287.808017 L197.542747,248.755198 C198.861072,246.455719 201.292934,245.050481 203.942383,244.986607 L203.82719,244.743884 Z" id="Shape" stroke="#FFFFFF" stroke-width="0.5" fill="#FFFFFF"></path>
        </g>
    </g>
</svg>