<?xml version="1.0" encoding="UTF-8"?>
<svg width="2649px" height="1905px" viewBox="0 0 2649 1905" version="1.1" xmlns="http://www.w3.org/2000/svg" xmlns:xlink="http://www.w3.org/1999/xlink">
    <!-- Generator: Sketch 60.1 (88133) - https://sketch.com -->
    <title>ldap-authentication</title>
    <desc>Created with Sketch.</desc>
    <defs>
        <linearGradient x1="5.32670806%" y1="107.861812%" x2="99.6421375%" y2="0.000239991997%" id="linearGradient-1">
            <stop stop-color="#4E505D" offset="0%"></stop>
            <stop stop-color="#7A859C" offset="100%"></stop>
        </linearGradient>
    </defs>
    <g id="ldap-authentication" stroke="none" stroke-width="1" fill="none" fill-rule="evenodd">
        <rect id="Rectangle" fill="#CADCF8" x="1099" y="813" width="1445" height="1000"></rect>
        <rect id="Rectangle" fill="#A1BCF3" x="1231" y="944" width="738" height="738"></rect>
        <text id="Authentication" font-family="Inter-Bold, Inter" font-size="54" font-weight="bold" letter-spacing="-0.233513514" fill="#333333">
            <tspan x="1357.25391" y="1756">AUTHENTICATION</tspan>
        </text>
        <polygon id="Triangle" fill="#30D314" transform="translate(1285.000000, 1315.000000) rotate(90.000000) translate(-1285.000000, -1315.000000) " points="1285 1271 1348 1359 1222 1359"></polygon>
        <polygon id="Triangle" fill="#30D314" transform="translate(1285.000000, 1315.000000) rotate(90.000000) translate(-1285.000000, -1315.000000) " points="1285 1271 1348 1359 1222 1359"></polygon>
        <polygon id="Triangle" fill="#30D314" transform="translate(1285.000000, 175.000000) rotate(90.000000) translate(-1285.000000, -175.000000) " points="1285 131 1348 219 1222 219"></polygon>
        <polygon id="Triangle" fill="#30D314" transform="translate(588.000000, 378.000000) scale(-1, 1) rotate(90.000000) translate(-588.000000, -378.000000) " points="588 334 651 422 525 422"></polygon>
        <polygon id="Triangle" fill="#30D314" points="1475 549 1538 637 1412 637"></polygon>
        <polygon id="Triangle" fill="#30D314" transform="translate(1729.000000, 998.000000) scale(1, -1) translate(-1729.000000, -998.000000) " points="1729 954 1792 1042 1666 1042"></polygon>
        <rect id="Rectangle" fill="#30D314" x="538" y="1290" width="717" height="49"></rect>
        <rect id="Rectangle" fill="#30D314" x="618" y="354" width="711" height="49"></rect>
        <rect id="Rectangle" fill="#30D314" x="544" y="151" width="711" height="49"></rect>
        <rect id="Rectangle" fill="#30D314" transform="translate(1475.000000, 830.500000) rotate(90.000000) translate(-1475.000000, -830.500000) " x="1264" y="806" width="422" height="49"></rect>
        <rect id="Rectangle" fill="#30D314" transform="translate(1729.000000, 762.500000) rotate(90.000000) translate(-1729.000000, -762.500000) " x="1515" y="738" width="428" height="49"></rect>
        <polygon id="Triangle" fill="#30D314" transform="translate(2046.000000, 1316.000000) rotate(90.000000) translate(-2046.000000, -1316.000000) " points="2046 1272 2109 1360 1983 1360"></polygon>
        <rect id="Rectangle" fill="#30D314" x="1873" y="1291" width="153" height="49"></rect>
        <text id="Kubernetes-API-SERVE" font-family="Inter-Bold, Inter" font-size="54" font-weight="bold" letter-spacing="-0.16" fill="#333333">
            <tspan x="1481.00244" y="1892">KUBERNETES API SERVER</tspan>
        </text>
        <text id="TOKEN-&lt;username:pass" font-family="Inter-Bold, Inter" font-size="54" font-weight="bold" line-spacing="58" letter-spacing="-0.248727273">
            <tspan x="858.056642" y="1207" fill="#333333">TOKEN</tspan>
            <tspan x="591" y="1271.52917" font-family="JetBrainsMono-Bold, JetBrains Mono" fill="#FF0000">&lt;username:password&gt;</tspan>
        </text>
        <text id="TOKEN-&lt;username:pass" font-family="Inter-Bold, Inter" font-size="54" font-weight="bold" line-spacing="58" letter-spacing="-0.248727273">
            <tspan x="1082.05664" y="738" fill="#333333">TOKEN</tspan>
            <tspan x="815" y="802.529175" font-family="JetBrainsMono-Bold, JetBrains Mono" fill="#FF0000">&lt;username:password&gt;</tspan>
        </text>
        <text id="LDAP-SEARCH-username" font-family="Inter-Bold, Inter" font-size="54" font-weight="bold" line-spacing="58" letter-spacing="-0.248727273">
            <tspan x="820.638409" y="473" fill="#333333">LDAP SEARCH</tspan>
            <tspan x="666" y="537.529175" font-family="JetBrainsMono-Bold, JetBrains Mono" fill="#FF0000">username, password</tspan>
        </text>
        <text id="LDAP-response" font-family="Inter-Bold, Inter" font-size="54" font-weight="bold" letter-spacing="-0.248727273" fill="#333333">
            <tspan x="699.211898" y="126">LDAP RESPONSE</tspan>
        </text>
        <text id="User-info" font-family="Inter-Bold, Inter" font-size="54" font-weight="bold" letter-spacing="-0.248727273" fill="#333333">
            <tspan x="1784.39946" y="755">USER INFO</tspan>
        </text>
        <rect id="Rectangle" fill="#4661FE" x="1329" y="1042" width="544" height="544"></rect>
        <text id="Webhook-Token-Authen" font-family="Inter-Bold, Inter" font-size="54" font-weight="bold" letter-spacing="-0.248727273" fill="#FFFFFF">
            <tspan x="1359.7222" y="1269">WEBHOOK TOKEN</tspan>
            <tspan x="1358.36041" y="1334">AUTHENTICATION</tspan>
            <tspan x="1501.2824" y="1399">PLUGIN</tspan>
        </text>
        <g id="Group" transform="translate(1880.000000, 1402.000000)">
            <rect id="Rectangle" fill="#F08E3E" x="0" y="0" width="188" height="117" rx="24"></rect>
            <text id="User-info" font-family="Inter-Bold, Inter" font-size="40" font-weight="bold" line-spacing="44" letter-spacing="-0.184242424" fill="#333333">
                <tspan x="57" y="55">USER</tspan>
                <tspan x="57" y="99">INFO</tspan>
            </text>
            <circle id="Oval" fill="#000000" cx="28" cy="58" r="15"></circle>
        </g>
        <g id="Group-2" transform="translate(1329.000000, 0.000000)" fill="#FFF3A2">
            <rect id="Rectangle" x="0" y="0.499082569" width="544" height="543.001835"></rect>
        </g>
        <text id="Webhook-token-Authen" font-family="Inter-Bold, Inter" font-size="54" font-weight="bold" letter-spacing="-0.248727273" fill="#333333">
            <tspan x="1359.7222" y="232">WEBHOOK TOKEN</tspan>
            <tspan x="1358.36041" y="297">AUTHENTICATION</tspan>
            <tspan x="1485.8741" y="362">SERVICE</tspan>
        </text>
        <rect id="Rectangle" fill="#A1BCF3" x="2090" y="944" width="290" height="738"></rect>
        <rect id="Rectangle" fill="#A1BCF3" x="2336" y="944" width="88" height="31"></rect>
        <rect id="Rectangle" fill="#A1BCF3" x="2336" y="999" width="88" height="31"></rect>
        <rect id="Rectangle" fill="#A1BCF3" x="2336" y="1054" width="88" height="31"></rect>
        <rect id="Rectangle" fill="#A1BCF3" x="2336" y="1109" width="88" height="31"></rect>
        <rect id="Rectangle" fill="#A1BCF3" x="2336" y="1164" width="88" height="31"></rect>
        <rect id="Rectangle" fill="#A1BCF3" x="2336" y="1219" width="88" height="31"></rect>
        <rect id="Rectangle" fill="#A1BCF3" x="2336" y="1274" width="88" height="31"></rect>
        <rect id="Rectangle" fill="#A1BCF3" x="2336" y="1329" width="88" height="31"></rect>
        <rect id="Rectangle" fill="#A1BCF3" x="2336" y="1384" width="88" height="31"></rect>
        <rect id="Rectangle" fill="#A1BCF3" x="2336" y="1439" width="88" height="31"></rect>
        <rect id="Rectangle" fill="#A1BCF3" x="2336" y="1494" width="88" height="31"></rect>
        <rect id="Rectangle" fill="#A1BCF3" x="2336" y="1548" width="88" height="31"></rect>
        <rect id="Rectangle" fill="#A1BCF3" x="2336" y="1602" width="88" height="31"></rect>
        <rect id="Rectangle" fill="#A1BCF3" x="2336" y="1651" width="88" height="31"></rect>
        <text id="Authorisation" transform="translate(2242.000000, 1325.500000) rotate(-90.000000) translate(-2242.000000, -1325.500000) " font-family="Inter-Bold, Inter" font-size="54" font-weight="bold" letter-spacing="-0.233513514" fill="#333333">
            <tspan x="2017.45995" y="1345">AUTHORISATION</tspan>
        </text>
        <line x1="1908" y1="1291" x2="1908" y2="1452" id="Line-3" stroke="#333333" stroke-width="10" stroke-linecap="square"></line>
        <g id="kubernetes-icon" transform="translate(2410.000000, 696.000000)" fill-rule="nonzero">
            <path d="M118.732665,0.513037198 C116.595771,0.63864413 114.505878,1.19252497 112.587042,2.14180113 L29.3635147,41.8597325 C25.0175216,43.9293087 21.8588359,47.8667334 20.7760713,52.558769 L0.405162033,141.699973 C-0.565592439,145.883953 0.218478481,150.269662 2.64536466,153.855931 C2.92912366,154.289272 3.22781735,154.70767 3.54144571,155.111125 L61.0399798,226.642253 C64.0791881,230.37795 68.6417341,232.52224 73.4507024,232.5 L165.672377,232.5 C170.49628,232.507297 175.066294,230.258408 178.098035,226.57501 L235.566699,155.02894 C238.583505,151.293243 239.711074,146.362123 238.553636,141.68503 L218.048315,52.4691122 C216.96555,47.7770767 213.79193,43.839652 209.460871,41.7700758 L126.371756,2.14927252 C123.97747,0.967735808 121.325482,0.405198997 118.657991,0.513037198 L118.732665,0.513037198 Z" id="Path" fill="#326CE5"></path>
            <path d="M119.563451,31.5 C116.696415,31.7013025 114.523738,34.154211 114.673063,37.0171801 L114.673063,38.4188421 C114.807455,40.0068952 115.046375,41.5800371 115.359957,43.1382677 C115.817866,46.1221958 115.982906,49.1436428 115.852729,52.1596027 C115.569012,53.151204 115.001578,54.0458819 114.225089,54.7318016 L114.113095,56.8342945 C111.089267,57.0877866 108.087838,57.5500368 105.131206,58.2210452 C92.6924474,61.0243691 81.3661587,67.4660497 72.6231897,76.7483324 L70.8312917,75.4808721 C69.8457478,75.7790981 68.7855414,75.6672633 67.8821262,75.1826462 C65.4586968,73.3914871 63.2157047,71.3689164 61.1849074,69.1435706 C60.164809,67.9264155 59.0754263,66.7688772 57.9221597,65.676694 L56.817156,64.7969274 C55.8316121,64.0066286 54.6220809,63.5518341 53.360286,63.4921889 C51.8329196,63.4112891 50.35907,64.065404 49.3957117,65.251722 C47.7083411,67.6151626 48.260843,70.8881925 50.6201753,72.5806247 L51.6505167,73.4007461 C52.9768077,74.2819116 54.3528803,75.0859711 55.7718821,75.8089206 C58.4149317,77.2776835 60.9086564,78.9999383 63.2231914,81.0278748 C63.8152623,81.8709614 64.1592375,82.8626837 64.2162015,83.8908439 L65.8438422,85.3819737 C57.0560757,98.5486494 53.449881,114.496282 55.7046859,130.1606 L53.6141383,130.757052 C53.0691026,131.621907 52.3448772,132.360017 51.4787931,132.904279 C48.5620997,133.682048 45.5764085,134.173963 42.5641005,134.373042 C40.96545,134.405467 39.3700028,134.529935 37.7857058,134.745824 L36.464181,135.04405 L36.3148562,135.04405 C34.4446312,135.303237 32.8798978,136.591892 32.2690987,138.375984 C31.6582997,140.160076 32.1055177,142.135587 33.4254207,143.483845 C34.7577645,144.825328 36.7340348,145.301383 38.53233,144.714027 L38.6293911,144.714027 L39.9733146,144.564914 C41.4889617,144.117575 42.9822101,143.565857 44.4381272,142.939582 C47.2379678,141.821235 50.1423359,140.963835 53.1139001,140.404662 C54.1442414,140.464307 55.1297853,140.814722 55.9660044,141.411174 L58.2058769,141.038392 C63.058934,156.076435 73.2578202,168.818139 86.8762451,176.847873 L85.9653636,178.749063 C86.3834732,179.621374 86.5402642,180.590608 86.4133381,181.552387 C85.1814083,184.400445 83.6732274,187.129212 81.9111944,189.693956 C80.9445803,190.966248 80.0521318,192.293064 79.2382798,193.667816 L78.6036493,195.009833 C77.6648005,196.636125 77.718252,198.650726 78.742021,200.225094 C79.76579,201.799461 81.587024,202.66778 83.4567064,202.472938 C85.3309853,202.262437 86.9273688,201.017122 87.5855381,199.252097 L88.2052362,197.984637 C88.7726705,196.493507 89.25051,194.972555 89.6387546,193.436691 C90.9602793,190.178573 91.6770386,186.681874 93.483869,184.519735 C94.0744057,183.965386 94.8185478,183.601638 95.6192142,183.475945 L96.7391504,181.440552 C111.501665,187.106719 127.836637,187.14653 142.626672,181.552387 L143.619682,183.453578 C144.635091,183.602691 145.545973,184.161864 146.158204,184.981986 C147.561858,187.651108 148.696727,190.446976 149.562811,193.332312 C149.957649,194.877288 150.441267,196.398273 151.011261,197.887714 L151.63096,199.155174 C152.295468,200.913302 153.89185,202.15027 155.762348,202.35641 C157.632845,202.562549 159.460936,201.702977 160.493388,200.131864 C161.515799,198.551246 161.561975,196.531007 160.612848,194.905454 L159.963285,193.563437 C159.149365,192.193513 158.256908,190.871664 157.290371,189.604488 C155.573135,187.129212 154.094819,184.489913 152.810626,181.723867 C152.568479,180.702142 152.751677,179.626032 153.31833,178.741608 C152.999779,178.091306 152.722969,177.42143 152.489577,176.736038 C166.078137,168.646659 176.232226,155.860222 181.033019,140.799811 L183.153432,141.172593 C183.914989,140.479218 184.915465,140.113891 185.93834,140.143714 C188.902438,140.710343 191.806806,141.634844 194.614113,142.678634 C196.07003,143.349643 197.563279,143.916272 199.078926,144.393434 C199.437305,144.490357 199.959942,144.572369 200.363119,144.669293 L200.46018,144.669293 C202.257302,145.248837 204.228086,144.768345 205.555549,143.427003 C206.883012,142.085661 207.340858,140.112132 206.73929,138.324536 C206.123867,136.538458 204.552215,135.251763 202.677654,134.999316 L201.229203,134.656356 C199.644906,134.440467 198.049459,134.315999 196.450809,134.283574 C193.434447,134.089727 190.44795,133.597654 187.536116,132.814811 C186.640167,132.315283 185.893543,131.569718 185.385838,130.667584 L183.369953,130.071132 C185.519379,114.414204 181.836956,98.5141657 173.021742,85.3894293 L174.783775,83.7640979 C174.709113,82.742674 175.045094,81.7287058 175.709589,80.9458627 C178.001725,78.9775714 180.487984,77.2404052 183.101168,75.7567311 C184.520012,75.0334923 185.896068,74.2294423 187.222534,73.3485566 L188.312605,72.46879 C189.95064,71.4535473 190.858647,69.588684 190.646621,67.6751954 C190.434595,65.7617067 189.140274,64.1401829 187.319595,63.5071002 C185.50046,62.8748031 183.479367,63.3416628 182.123091,64.7074596 L181.018087,65.5872262 C179.865053,66.679641 178.775684,67.8371656 177.755339,69.0541029 C175.784252,71.3057088 173.604109,73.3560122 171.23731,75.1901018 C170.282217,75.5784039 169.237358,75.6920389 168.220949,75.5181503 L166.331989,76.8601671 C155.431277,65.4530245 140.745179,58.3701582 125.006342,56.9535849 C125.006342,56.20802 124.90928,55.0896727 124.894348,54.7392572 C124.050663,54.1577166 123.46083,53.2704944 123.266707,52.2639818 C123.163149,49.2530481 123.353189,46.2391953 123.834142,43.2650138 C124.15519,41.6993275 124.379177,40.1336413 124.521036,38.5455881 L124.521036,37.0544583 C124.670361,34.1914892 122.505151,31.7385808 119.630648,31.5372782 L119.563451,31.5 Z M113.336606,70.0158816 L111.843357,96.0584627 L111.731364,96.0584627 C111.656701,97.6688828 110.708489,99.0407222 109.252572,99.8161097 C107.796654,100.591497 106.071953,100.360372 104.772827,99.4135047 L83.382044,84.2785377 C90.190499,77.6007079 98.731894,72.9551831 108.04304,70.8658255 C109.790141,70.4930431 111.552174,70.2097284 113.321673,70.0158816 L113.336606,70.0158816 Z M125.790297,70.0158816 C137.026991,71.4100879 147.487195,76.4501064 155.580601,84.3605498 L134.391407,99.3985934 C133.084815,100.442384 131.292917,100.651142 129.77727,99.9354001 C128.261623,99.2196578 127.291012,97.6987054 127.268613,96.0286401 L125.790297,70.0158816 Z M75.6171526,94.0752601 L95.1787059,111.506567 L95.1787059,111.618402 C96.3957033,112.677104 96.9258065,114.324802 96.5674269,115.897944 C96.2090473,117.471086 94.9995161,118.716179 93.4540041,119.141151 L93.4540041,119.215708 L68.3524994,126.42532 C67.1103946,115.132309 69.6689896,103.747763 75.6246189,94.0678045 L75.6171526,94.0752601 Z M163.367892,94.0752601 C169.31102,103.730325 171.939137,115.055456 170.849066,126.335852 L145.71023,119.103873 L145.71023,119.00695 C144.142319,118.581978 142.94772,117.336884 142.596807,115.763742 C142.245894,114.190601 142.768531,112.557813 143.985528,111.4842 L163.397757,94.1349053 L163.367892,94.0752601 Z M115.55408,112.863495 L123.557891,112.863495 L128.448279,119.066595 L126.671313,126.82047 L119.481323,130.272435 L112.276399,126.82047 L110.581563,119.066595 L115.55408,112.863495 Z M141.193154,134.022626 C141.529135,133.985348 141.939778,133.985348 142.201096,134.022626 L168.086556,138.384181 C164.353435,149.120315 156.984255,158.290763 147.367736,164.426762 L137.362972,140.240637 C136.804771,138.92388 136.922324,137.418353 137.678162,136.203906 C138.434001,134.989459 139.733803,134.217645 141.163289,134.134461 L141.193154,134.022626 Z M97.7172281,134.134461 C99.1806115,134.156828 100.532001,134.909848 101.330889,136.132575 C102.129777,137.355301 102.256703,138.891165 101.681802,140.233182 L101.681802,140.330105 L91.7367685,164.322383 C82.2173103,158.231118 74.9899883,149.172505 71.1448738,138.548205 L96.8063466,134.201562 C97.0900638,134.171739 97.3812472,134.171739 97.6724307,134.201562 L97.7172281,134.134461 Z M119.399194,144.572369 C121.062767,144.51998 122.613866,145.408362 123.408566,146.868709 L123.505627,146.868709 L136.15344,169.660627 L131.098795,171.151757 C121.795858,173.276617 112.082277,172.777089 103.040658,169.705361 L115.733269,146.913443 C116.502292,145.571426 117.920878,144.751305 119.46639,144.714027 L119.399194,144.572369 Z" id="Shape" stroke="#FFFFFF" stroke-width="0.5" fill="#FFFFFF"></path>
        </g>
        <g id="Group-3">
            <g id="Group-2" fill="#FFF3A2">
                <rect id="Rectangle" x="0" y="0" width="544" height="544"></rect>
            </g>
            <text id="LDAP-Directory" font-family="Inter-Bold, Inter" font-size="54" font-weight="bold" letter-spacing="-0.248727273" fill="#333333">
                <tspan x="201.024036" y="424">LDAP</tspan>
                <tspan x="115.842232" y="489">DIRECTORY</tspan>
            </text>
            <g id="openldap" transform="translate(118.000000, 37.000000)">
                <rect id="rect4160-2" x="0.522807018" y="0.150501672" width="305" height="304"></rect>
                <path d="M153.52953,0.150501672 C76.765672,0.150501672 14.5377366,21.7441219 14.5377366,48.3808576 C14.5377366,75.0170172 76.7673308,96.6097279 153.52953,96.6097279 C230.292318,96.6097279 292.522807,75.0172219 292.522807,48.3808576 C292.467767,47.3990651 292.326406,46.4180761 292.098777,45.4392777 C291.879717,44.1968265 291.522109,42.9577787 291.026764,41.7249234 C281.46548,17.911706 222.819141,0.179084764 153.52953,0.150501672 Z M14.5377366,75.799577 L14.5377366,117.427292 C14.7717488,144.004178 76.9228803,165.506804 153.514601,165.509601 C230.277389,165.509821 292.506608,143.917095 292.507877,117.28073 L292.507877,144.69945 C291.803586,145.337146 291.089761,145.964602 290.356383,146.566249 C281.426011,153.892639 269.949156,159.540343 256.343021,164.261616 C229.130743,173.704163 193.197445,179.154567 153.514601,179.154567 C113.831757,179.154567 77.8999491,173.704163 50.6876712,164.261616 C37.081536,159.540343 25.6046884,153.892639 16.6743094,146.566249 C15.9460906,145.968824 15.2372123,145.34584 14.5377366,144.712767 L14.5377366,186.461879 C14.7717565,213.038765 76.9228726,234.541398 153.514601,234.544195 C230.277366,234.544415 292.506593,212.951674 292.507877,186.315317 L292.507877,213.734037 C291.803586,214.371733 291.089761,214.999189 290.356383,215.600836 C281.426011,222.927226 269.949156,228.57493 256.343021,233.296203 C245.000012,237.232181 232.125284,240.462479 218.111768,242.905565 C224.460277,243.503983 230.613707,245.300253 235.883644,249.315749 C236.045188,249.073588 236.214487,248.836602 236.391282,248.605151 L236.062807,249.454905 C236.119758,249.499027 236.176297,249.543504 236.233018,249.588149 C237.178883,247.932489 238.463541,246.491291 240.004481,245.357124 C241.977221,244.134893 244.230243,243.428449 246.553038,243.303795 C246.686814,243.295441 246.820705,243.289025 246.95467,243.28455 C247.27798,243.256908 247.602176,243.240614 247.926648,243.235699 L248.190917,243.235699 L248.125228,243.300831 C249.519604,243.384334 250.893029,243.677859 252.198287,244.171316 L248.201374,242.658337 L254.240795,242.658337 C257.498365,242.659277 260.649975,243.806007 263.134939,245.894518 C265.619514,243.806333 268.77054,242.659625 272.0276,242.658337 L282.725363,242.658337 C285.869047,242.658337 289.226127,243.107746 292.522807,244.149107 L292.522807,75.799577 C291.818523,76.4372733 291.104683,77.0647294 290.371312,77.6663765 C281.440941,84.9927665 269.964086,90.6404701 256.357951,95.3617435 C229.145673,104.804321 193.212374,110.254694 153.52953,110.254694 C113.846686,110.254694 77.9148711,104.80429 50.7026008,95.3617435 C37.0964656,90.6404701 25.6196104,84.9927665 16.689239,77.6663765 C15.9558755,77.0647294 15.2420206,76.4372733 14.5377366,75.799577 Z M14.5377366,213.747362 L14.5377366,254.975368 C14.5323855,255.009932 14.5276995,255.044419 14.522807,255.078998 C14.522807,263.845935 21.2665421,272.066367 33.0486788,279.150502 C32.9340731,277.962912 32.872497,276.773246 32.872497,275.588629 C32.872497,267.535564 35.3096345,259.149591 40.9992141,252.861334 C46.7259075,246.500099 55.4397266,243.127627 63.683251,243.127627 C71.7034426,243.127627 80.0686056,246.445684 85.7327368,252.329867 C85.7401999,252.329368 85.7476634,252.328876 85.7551274,252.328389 L91.9781984,252.328389 C92.4020851,252.33219 92.8255682,252.355408 93.2472932,252.397971 C95.3555661,251.908488 97.4183928,251.715501 99.3464399,251.715501 C104.117966,251.715501 108.912364,253.439029 112.949693,256.107883 C117.509429,253.255767 122.900363,251.715501 128.02361,251.715501 C128.903989,251.719488 129.78195,251.807234 130.645423,251.977532 C133.369503,252.25222 136.109429,252.862994 138.727351,253.983487 C140.742412,252.898038 142.999102,252.329104 145.292328,252.328389 L151.515391,252.328389 C152.015493,252.33398 152.514915,252.366598 153.011435,252.426099 C154.986618,251.957059 156.994649,251.715501 158.956798,251.715501 C159.830188,251.720809 160.701085,251.808548 161.557703,251.977532 C161.769232,252.000347 161.976657,252.012762 162.189265,252.041186 C162.671579,250.598145 163.393713,249.245166 164.32583,248.038151 C160.752153,248.128782 157.155236,248.189154 153.514601,248.189154 C113.831757,248.189154 77.8999491,242.738758 50.6876712,233.296203 C37.081536,228.57493 25.6046884,222.927226 16.6743094,215.600836 C15.9460906,215.003419 15.2372123,214.380442 14.5377366,213.747362 Z M193.770435,246.215769 C192.98551,246.294499 192.199889,246.372578 191.40991,246.446707 C191.765706,246.782388 192.103124,247.136713 192.420714,247.508162 C192.545383,247.388844 192.672314,247.271871 192.801439,247.157305 C193.108629,246.827854 193.432021,246.513627 193.770435,246.215769 L193.770435,246.215769 Z M46.5593653,256.212991 L45.5515504,257.327739 C45.6848927,257.162752 45.8911479,257.034988 46.0323104,256.873252 C46.2312269,256.643117 46.3339684,256.436471 46.5593653,256.212991 Z M45.0991514,258.010209 L44.9916473,258.177501 C44.9948657,258.172877 45.0005378,258.167245 45.0035956,258.162698 C45.0396087,258.113589 45.0675568,258.06122 45.0991514,258.010209 Z M63.683251,275.061604 C63.6739936,275.061604 63.0625439,275.340757 62.5589728,275.570862 C63.0628038,275.801095 63.6740012,276.080127 63.683251,276.080127 L64.3640818,275.405055 C64.1581172,275.314053 63.6893666,275.061604 63.683251,275.061604 Z" id="rect4239" fill="url(#linearGradient-1)" fill-rule="nonzero"></path>
                <path d="M0.522807018,0.150501672 L305.522807,0.150501672 C305.522807,0.150501672 305.522807,0.150501672 305.522807,0.150501672 L305.522807,304.150502 C305.522807,304.150502 305.522807,304.150502 305.522807,304.150502 L0.522807018,304.150502 C0.522807018,304.150502 0.522807018,304.150502 0.522807018,304.150502 L0.522807018,0.150501672 C0.522807018,0.150501672 0.522807018,0.150501672 0.522807018,0.150501672 Z" id="rect4277"></path>
                <rect id="rect4160" x="0.522807018" y="0.150501672" width="305" height="304"></rect>
                <path d="M63.0403513,260.936134 C59.7402577,260.936134 57.1422758,262.210156 55.1762801,264.758208 C53.2453362,267.306206 52.297427,270.764266 52.297427,275.1687 C52.297427,279.53673 53.2453362,282.994813 55.1762801,285.542788 C57.1422758,288.090848 59.7402577,289.36487 63.0403513,289.36487 C66.3404893,289.36487 68.9384195,288.090848 70.8342453,285.542788 C72.7651745,282.994813 73.7481871,279.53673 73.7481871,275.1687 C73.7481871,270.764266 72.7651745,267.306206 70.8342453,264.758208 C68.9384195,262.210156 66.3404893,260.936134 63.0403513,260.936134 M63.0403513,257.150502 C67.7448014,257.150502 71.4661872,258.788515 74.3099149,262.064556 C77.1185096,265.30421 78.522807,269.672247 78.522807,275.1687 C78.522807,280.628756 77.1185096,284.99684 74.3099149,288.272851 C71.4661872,291.5489 67.7448014,293.150502 63.0403513,293.150502 C58.3359308,293.150502 54.5443382,291.5489 51.7357139,288.272851 C48.9271044,285.033243 47.522807,280.665152 47.522807,275.1687 C47.522807,269.672247 48.9271044,265.30421 51.7357139,262.064556 C54.5443382,258.788515 58.3359308,257.150502 63.0403513,257.150502 Z" id="path4179" stroke="#4E505D" stroke-width="0.5" fill="#4E505D" fill-rule="nonzero"></path>
                <path d="M63.0403513,260.936134 C59.7402577,260.936134 57.1422758,262.210156 55.1762801,264.758208 C53.2453362,267.306206 52.297427,270.764266 52.297427,275.1687 C52.297427,279.53673 53.2453362,282.994813 55.1762801,285.542788 C57.1422758,288.090848 59.7402577,289.36487 63.0403513,289.36487 C66.3404893,289.36487 68.9384195,288.090848 70.8342453,285.542788 C72.7651745,282.994813 73.7481871,279.53673 73.7481871,275.1687 C73.7481871,270.764266 72.7651745,267.306206 70.8342453,264.758208 C68.9384195,262.210156 66.3404893,260.936134 63.0403513,260.936134 M63.0403513,257.150502 C67.7448014,257.150502 71.4661872,258.788515 74.3099149,262.064556 C77.1185096,265.30421 78.522807,269.672247 78.522807,275.1687 C78.522807,280.628756 77.1185096,284.99684 74.3099149,288.272851 C71.4661872,291.5489 67.7448014,293.150502 63.0403513,293.150502 C58.3359308,293.150502 54.5443382,291.5489 51.7357139,288.272851 C48.9271044,285.033243 47.522807,280.665152 47.522807,275.1687 C47.522807,269.672247 48.9271044,265.30421 51.7357139,262.064556 C54.5443382,258.788515 58.3359308,257.150502 63.0403513,257.150502" id="path4181" stroke="#4E505D" stroke-width="0.712075736" fill="#4E505D" fill-rule="nonzero"></path>
                <path d="M91.7634236,288.574384 L91.7634236,302.150502 L87.522807,302.150502 L87.522807,266.759451 L91.7634236,266.759451 L91.7634236,270.663971 C92.6618746,269.123647 93.7759474,268.01319 95.1415829,267.260944 C96.4711342,266.508698 98.1242806,266.150502 99.9930262,266.150502 C103.119615,266.150502 105.635272,267.404233 107.575907,269.875893 C109.55249,272.347508 110.522807,275.571407 110.522807,279.619155 C110.522807,283.631116 109.55249,286.890794 107.575907,289.362454 C105.635272,291.834069 103.119615,293.051991 99.9930262,293.051991 C98.1242806,293.051991 96.4711342,292.693773 95.1415829,291.977358 C93.7759474,291.225157 92.6618746,290.078876 91.7634236,288.574384 M106.138397,279.619155 C106.138397,276.502751 105.491509,274.102746 104.233696,272.347508 C102.939927,270.556506 101.178981,269.660971 98.9508425,269.660971 C96.7227044,269.660971 94.9618942,270.556506 93.6681402,272.347508 C92.4103044,274.102746 91.7634236,276.502751 91.7634236,279.619155 C91.7634236,282.699772 92.4103044,285.135601 93.6681402,286.926625 C94.9618942,288.681849 96.7227044,289.541552 98.9508425,289.541552 C101.178981,289.541552 102.939927,288.681849 104.233696,286.926625 C105.491509,285.135601 106.138397,282.699772 106.138397,279.619155 Z" id="path4183" stroke="#4E505D" stroke-width="0.5" fill="#4E505D" fill-rule="nonzero"></path>
                <path d="M91.7634236,288.574384 L91.7634236,302.150502 L87.522807,302.150502 L87.522807,266.759451 L91.7634236,266.759451 L91.7634236,270.663971 C92.6618746,269.123647 93.7759474,268.01319 95.1415829,267.260944 C96.4711342,266.508698 98.1242806,266.150502 99.9930262,266.150502 C103.119615,266.150502 105.635272,267.404233 107.575907,269.875893 C109.55249,272.347508 110.522807,275.571407 110.522807,279.619155 C110.522807,283.631116 109.55249,286.890794 107.575907,289.362454 C105.635272,291.834069 103.119615,293.051991 99.9930262,293.051991 C98.1242806,293.051991 96.4711342,292.693773 95.1415829,291.977358 C93.7759474,291.225157 92.6618746,290.078876 91.7634236,288.574384 M106.138397,279.619155 C106.138397,276.502751 105.491509,274.102746 104.233696,272.347508 C102.939927,270.556506 101.178981,269.660971 98.9508425,269.660971 C96.7227044,269.660971 94.9618942,270.556506 93.6681402,272.347508 C92.4103044,274.102746 91.7634236,276.502751 91.7634236,279.619155 C91.7634236,282.699772 92.4103044,285.135601 93.6681402,286.926625 C94.9618942,288.681849 96.7227044,289.541552 98.9508425,289.541552 C101.178981,289.541552 102.939927,288.681849 104.233696,286.926625 C105.491509,285.135601 106.138397,282.699772 106.138397,279.619155" id="path4185" stroke="#4E505D" stroke-width="0.712075736" fill="#4E505D" fill-rule="nonzero"></path>
                <path d="M140.522807,278.589938 L140.522807,280.639193 L120.160819,280.639193 C120.349356,283.55133 121.254321,285.780316 122.913449,287.326273 C124.534866,288.836274 126.835025,289.591268 129.776199,289.591268 C131.473037,289.591268 133.132157,289.375559 134.715864,288.980065 C136.337297,288.584603 137.920996,287.973415 139.50471,287.182459 L139.50471,291.209127 C137.920996,291.820254 136.26186,292.323605 134.602748,292.647173 C132.943628,293.006681 131.24679,293.150502 129.512249,293.150502 C125.2136,293.150502 121.819939,291.964068 119.293533,289.591268 C116.767151,287.182459 115.522807,283.9468 115.522807,279.884192 C115.522807,275.677808 116.72944,272.334291 119.105004,269.889535 C121.480576,267.408824 124.6857,266.150502 128.758103,266.150502 C132.37801,266.150502 135.243764,267.26501 137.355394,269.494064 C139.466992,271.723104 140.522807,274.743054 140.522807,278.589938 M136.111042,277.331616 C136.07326,275.030658 135.394598,273.197097 134.03713,271.794999 C132.717373,270.428826 130.98284,269.745721 128.795797,269.745721 C126.34482,269.745721 124.346337,270.392864 122.838036,271.723104 C121.367453,273.053291 120.537877,274.958763 120.311638,277.367579 L136.111042,277.331555 L136.111042,277.331616 Z" id="path4187" stroke="#4E505D" stroke-width="0.5" fill="#4E505D" fill-rule="nonzero"></path>
                <path d="M140.522807,278.589938 L140.522807,280.639193 L120.160819,280.639193 C120.349356,283.55133 121.254321,285.780316 122.913449,287.326273 C124.534866,288.836274 126.835025,289.591268 129.776199,289.591268 C131.473037,289.591268 133.132157,289.375559 134.715864,288.980065 C136.337297,288.584603 137.920996,287.973415 139.50471,287.182459 L139.50471,291.209127 C137.920996,291.820254 136.26186,292.323605 134.602748,292.647173 C132.943628,293.006681 131.24679,293.150502 129.512249,293.150502 C125.2136,293.150502 121.819939,291.964068 119.293533,289.591268 C116.767151,287.182459 115.522807,283.9468 115.522807,279.884192 C115.522807,275.677808 116.72944,272.334291 119.105004,269.889535 C121.480576,267.408824 124.6857,266.150502 128.758103,266.150502 C132.37801,266.150502 135.243764,267.26501 137.355394,269.494064 C139.466992,271.723104 140.522807,274.743054 140.522807,278.589938 M136.111042,277.331616 C136.07326,275.030658 135.394598,273.197097 134.03713,271.794999 C132.717373,270.428826 130.98284,269.745721 128.795797,269.745721 C126.34482,269.745721 124.346337,270.392864 122.838036,271.723104 C121.367453,273.053291 120.537877,274.958763 120.311638,277.367579 L136.111042,277.331555" id="path4189" stroke="#4E505D" stroke-width="0.712075736" fill="#4E505D" fill-rule="nonzero"></path>
                <path d="M167.522807,276.827198 L167.522807,292.150502 L163.225641,292.150502 L163.225641,276.969086 C163.225641,274.557064 162.711462,272.748046 161.756527,271.577557 C160.801607,270.371542 159.332485,269.768538 157.385915,269.768538 C155.07205,269.768538 153.235665,270.51343 151.87672,271.932258 C150.517784,273.351049 149.856681,275.337415 149.856681,277.78491 L149.856681,292.150502 L145.522807,292.150502 L145.522807,266.753498 L149.856681,266.753498 L149.856681,270.690777 C150.88507,269.16552 152.097091,268.03046 153.492743,267.285569 C154.888411,266.540677 156.504442,266.150502 158.340827,266.150502 C161.389256,266.150502 163.666382,267.07274 165.208958,268.881759 C166.751527,270.655296 167.522807,273.315568 167.522807,276.827198 L167.522807,276.827198 Z" id="path4191" stroke="#4E505D" stroke-width="0.5" fill="#4E505D" fill-rule="nonzero"></path>
                <path d="M167.522807,276.827198 L167.522807,292.150502 L163.225641,292.150502 L163.225641,276.969086 C163.225641,274.557064 162.711462,272.748046 161.756527,271.577557 C160.801607,270.371542 159.332485,269.768538 157.385915,269.768538 C155.07205,269.768538 153.235665,270.51343 151.87672,271.932258 C150.517784,273.351049 149.856681,275.337415 149.856681,277.78491 L149.856681,292.150502 L145.522807,292.150502 L145.522807,266.753498 L149.856681,266.753498 L149.856681,270.690777 C150.88507,269.16552 152.097091,268.03046 153.492743,267.285569 C154.888411,266.540677 156.504442,266.150502 158.340827,266.150502 C161.389256,266.150502 163.666382,267.07274 165.208958,268.881759 C166.751527,270.655296 167.522807,273.315568 167.522807,276.827198" id="path4193" stroke="#4E505D" stroke-width="0.712075736" fill="#4E505D" fill-rule="nonzero"></path>
                <polygon id="path4195" stroke="#99B000" stroke-width="0.5" fill="#99B000" fill-rule="nonzero" points="176.522807 258.150502 181.297431 258.150502 181.297431 289.152542 198.522807 289.152542 198.522807 293.150502 176.522807 293.150502"></polygon>
                <polygon id="path4197" stroke="#99B000" stroke-width="0.712075736" fill="#99B000" fill-rule="nonzero" points="176.522807 258.150502 181.297431 258.150502 181.297431 289.152542 198.522807 289.152542 198.522807 293.150502 176.522807 293.150502"></polygon>
                <path d="M206.34367,262.039364 L206.34367,289.261578 L212.165261,289.261578 C217.097359,289.261578 220.731532,288.171229 222.993629,285.990578 C225.292798,283.773541 226.442385,280.320762 226.442385,275.595949 C226.442385,270.907499 225.292798,267.491084 222.993629,265.310418 C220.731532,263.129713 217.097359,262.039364 212.165261,262.039364 L206.34367,262.039364 M201.522807,258.150502 L211.423601,258.150502 C218.358199,258.150502 223.438621,259.567952 226.664889,262.366466 C229.928236,265.201381 231.522807,269.599085 231.522807,275.595949 C231.522807,281.665532 229.928236,286.063282 226.664889,288.898136 C223.401542,291.733052 218.32112,293.150502 211.423601,293.150502 L201.522807,293.150502 L201.522807,258.150502 L201.522807,258.150502 Z" id="path4199-6" stroke="#99B000" stroke-width="0.5" fill="#99B000" fill-rule="nonzero"></path>
                <path d="M206.34367,262.039364 L206.34367,289.261578 L212.165261,289.261578 C217.097359,289.261578 220.731532,288.171229 222.993629,285.990578 C225.292798,283.773541 226.442385,280.320762 226.442385,275.595949 C226.442385,270.907499 225.292798,267.491084 222.993629,265.310418 C220.731532,263.129713 217.097359,262.039364 212.165261,262.039364 L206.34367,262.039364 M201.522807,258.150502 L211.423601,258.150502 C218.358199,258.150502 223.438621,259.567952 226.664889,262.366466 C229.928236,265.201381 231.522807,269.599085 231.522807,275.595949 C231.522807,281.665532 229.928236,286.063282 226.664889,288.898136 C223.401542,291.733052 218.32112,293.150502 211.423601,293.150502 L201.522807,293.150502 L201.522807,258.150502" id="path4201" stroke="#99B000" stroke-width="0.712075736" fill="#99B000" fill-rule="nonzero"></path>
                <path d="M250.005255,262.802611 L243.826301,280.248074 L256.254401,280.248074 L250.005255,262.802611 M247.442395,258.150502 L252.638329,258.150502 L265.522807,293.150502 L260.748184,293.150502 L257.693821,284.173338 L242.422014,284.173338 L239.33254,293.150502 L234.522807,293.150502 L247.442395,258.150502 L247.442395,258.150502 Z" id="path4203" stroke="#99B000" stroke-width="0.5" fill="#99B000" fill-rule="nonzero"></path>
                <path d="M250.005255,262.802611 L243.826301,280.248074 L256.254401,280.248074 L250.005255,262.802611 M247.442395,258.150502 L252.638329,258.150502 L265.522807,293.150502 L260.748184,293.150502 L257.693821,284.173338 L242.422014,284.173338 L239.33254,293.150502 L234.522807,293.150502 L247.442395,258.150502" id="path4205" stroke="#99B000" stroke-width="0.712075736" fill="#99B000" fill-rule="nonzero"></path>
                <path d="M277.329489,262.039364 L277.329489,275.196167 L283.393918,275.196167 C285.64961,275.196167 287.387578,274.614637 288.607861,273.488009 C289.828145,272.324957 290.4198,270.725782 290.4198,268.581433 C290.4198,266.509803 289.828145,264.874272 288.607861,263.747598 C287.387578,262.584546 285.64961,262.039364 283.393918,262.039364 L277.329489,262.039364 M272.522807,258.150502 L283.393918,258.150502 C287.387578,258.150502 290.4198,259.02277 292.453611,260.803662 C294.487407,262.584546 295.522807,265.165049 295.522807,268.581433 C295.522807,272.070551 294.487407,274.650993 292.453611,276.4319 C290.4198,278.212799 287.387578,279.085075 283.393918,279.085075 L277.329489,279.085075 L277.329489,293.150502 L272.522807,293.150502 L272.522807,258.150502 L272.522807,258.150502 Z" id="path4207" stroke="#99B000" stroke-width="0.5" fill="#99B000" fill-rule="nonzero"></path>
                <path d="M277.329489,262.039364 L277.329489,275.196167 L283.393918,275.196167 C285.64961,275.196167 287.387578,274.614637 288.607861,273.488009 C289.828145,272.324957 290.4198,270.725782 290.4198,268.581433 C290.4198,266.509803 289.828145,264.874272 288.607861,263.747598 C287.387578,262.584546 285.64961,262.039364 283.393918,262.039364 L277.329489,262.039364 M272.522807,258.150502 L283.393918,258.150502 C287.387578,258.150502 290.4198,259.02277 292.453611,260.803662 C294.487407,262.584546 295.522807,265.165049 295.522807,268.581433 C295.522807,272.070551 294.487407,274.650993 292.453611,276.4319 C290.4198,278.212799 287.387578,279.085075 283.393918,279.085075 L277.329489,279.085075 L277.329489,293.150502 L272.522807,293.150502 L272.522807,258.150502" id="path4209" stroke="#99B000" stroke-width="0.712075736" fill="#99B000" fill-rule="nonzero"></path>
                <polygon id="path4211" stroke="#99B000" stroke-width="0.5" fill="#99B000" fill-rule="nonzero" points="296.522807 259.150502 301.522807 259.150502 301.522807 259.856397 299.429789 259.856397 299.429789 265.150502 298.615833 265.150502 298.615833 259.856397 296.522807 259.856397 296.522807 259.150502"></polygon>
                <polygon id="path4213" stroke="#99B000" stroke-width="0.5" fill="#99B000" fill-rule="nonzero" points="302.522807 259.150502 303.637911 259.150502 305.040787 263.228912 306.44367 259.150502 307.522807 259.150502 307.522807 265.150502 306.803382 265.150502 306.803382 259.895591 305.400499 264.013254 304.6451 264.013254 303.242224 259.895591 303.242224 265.150502 302.522807 265.150502"></polygon>
                <polygon id="path4215" stroke="#99B000" stroke-width="0.5" fill="#99B000" fill-rule="nonzero" points="302.522807 259.150502 303.637911 259.150502 305.040787 263.228912 306.44367 259.150502 307.522807 259.150502 307.522807 265.150502 306.803382 265.150502 306.803382 259.895591 305.400499 264.013254 304.6451 264.013254 303.242224 259.895591 303.242224 265.150502 302.522807 265.150502"></polygon>
            </g>
        </g>
        <g id="Pete" transform="translate(255.500000, 1246.500000) scale(-1, 1) translate(-255.500000, -1246.500000) translate(0.000000, 1078.000000)" fill-rule="nonzero">
            <path d="M0.5,337 L0.574577069,198.294048 C0.576151965,195.248367 3.04303121,192.78019 6.0855365,192.78019 C41.6719775,192.777334 77.2584185,192.777334 112.84486,192.777334 C115.049244,191.910422 114.261964,191.35875 113.947052,190.807079 C107.097715,179.45841 102.610219,167.242829 100.878203,154.002715 C97.020531,123.660788 105.601883,97.2593711 126.22862,74.6408437 C127.40954,73.3798805 128.59046,72.1977275 129.850108,71.0155745 C130.873572,69.9910419 130.873572,69.9910419 129.928836,69.0453195 C126.700988,65.9717217 123.788052,62.5828831 121.347484,58.7999935 C115.836524,50.0520612 112.766132,40.516027 112.529948,30.1130806 C112.45122,27.512344 113.002316,27.1971032 115.364156,28.3792562 C117.883452,29.6402194 120.481476,30.7435622 123.236956,31.6104744 C123.551868,27.0394828 123.000772,23.2565932 122.922044,19.3948934 C122.922044,17.9763098 122.843316,16.6365364 122.922044,15.2179528 C122.922044,13.2476978 123.630596,12.7748366 125.362612,13.7993692 C128.118092,15.3755732 130.873572,16.7941568 133.786508,17.9763098 C135.518524,18.6856016 135.518524,18.6856016 135.361068,16.7941568 C134.8887,11.8291142 134.809972,6.86407155 135.361068,1.89902894 C135.833436,0.00758413672 136.699444,-0.307656664 137.329268,0.244014737 C137.801636,0.638065738 138.116548,1.18973714 138.510188,1.66259834 C144.572245,9.22837755 151.342853,16.0060548 159.451837,21.4439586 C166.537357,26.1725706 174.173973,28.7733072 182.676598,28.8521174 C189.053566,28.9309276 195.19435,27.5911542 201.09895,25.3056584 C206.60991,23.177783 212.120871,20.9710974 217.868015,19.7101342 C223.693887,18.449171 229.598487,17.8974996 235.424359,19.3160832 C245.344088,21.7591994 252.035968,28.1428256 256.208552,37.2848088 C257.783112,40.7524576 258.64912,44.3777268 259.200216,48.1606164 C259.4364,49.5792 259.4364,49.5792 260.932232,49.5003898 C269.592312,48.8699082 277.937481,50.2096816 285.495369,54.701863 C294.549089,60.1397669 299.587681,68.3360277 301.555881,78.5025435 C302.972985,85.9895125 302.579345,93.3976713 301.398425,100.88464 C300.453689,106.716595 298.879129,112.46974 296.989657,118.065264 C296.517289,119.483848 296.202377,119.405037 297.934393,120.035519 C306.75193,123.030307 312.26289,129.098692 313.83745,138.240675 C316.041834,150.771497 308.011578,161.883735 296.359833,164.642092 C294.234177,165.114953 292.029793,165.430194 289.825409,165.193764 C288.880673,165.036143 288.565761,165.509004 288.329577,166.375917 C286.676289,172.365492 284.393177,178.197447 281.637697,183.792971 C275.969281,195.06283 268.411392,204.756484 258.964032,213.031555 C256.838376,214.528949 256.68092,215.395861 257.153288,216.578014 C258.25548,219.651612 259.200216,222.80402 260.22368,225.877618 C266.600648,245.737788 273.056345,265.519148 279.354585,285.379319 C279.826953,286.797903 280.456777,287.349574 281.873881,287.586005 C288.093393,288.925778 292.029793,292.787478 293.683081,298.934673 C293.997993,300.274447 294.234177,301.69303 294.470361,303.032804 C295.966193,302.165892 296.596017,301.298979 297.540753,300.510877 C300.217505,298.304192 303.209169,297.831331 306.437018,298.934673 C309.743594,300.116826 311.711794,302.559943 312.184162,306.027591 C312.341618,307.209744 312.65653,307.524985 313.83745,307.682606 C319.34841,308.549518 322.576258,313.987422 320.765514,319.346515 C320.293146,320.686289 320.450602,321.632011 321.395338,322.735354 C323.835906,325.651331 325.25301,329.04017 325.725378,332.823059 C325.961562,334.478074 325.725378,334.478074 327.536122,334.478074 L360.050787,334.478074 C360.050787,331.168045 359.027323,328.567309 358.476227,325.730141 C354.776011,325.966572 352.256715,326.597054 349.816147,327.385156 C348.399043,327.858017 347.690491,327.542776 347.454307,326.754674 C347.218123,326.045382 347.769219,325.493711 349.107595,325.09966 C351.390707,324.390368 353.673819,323.759886 355.956931,323.050595 C358.240043,322.341303 357.846403,322.892974 357.846403,320.371048 C357.925131,319.188895 357.452763,319.031274 356.822939,319.031274 L345.486107,319.031274 C343.439179,318.952464 343.124267,318.558413 343.124267,317.927932 C344.620099,316.745779 345.013739,316.824589 345.486107,316.824589 L356.665483,316.824589 C357.688947,316.824589 358.082587,316.509348 358.240043,315.484815 C358.633683,312.805269 358.712411,312.805269 356.035659,312.017167 C353.831275,311.307875 351.548163,310.677393 349.343779,310.046912 C347.611763,309.33762 347.375579,308.864759 347.533035,308.313087 C349.265051,307.524985 349.737419,307.682606 350.288515,307.840226 C352.965267,308.628328 355.563291,309.41643 358.240043,310.283342 C361.861531,304.687818 364.931923,300.747308 369.104508,297.75252 C369.891788,297.200849 370.049244,296.570367 370.049244,295.703455 L370.049244,271.351103 C370.2067,270.24776 370.99398,269.853709 371.938716,270.405381 C379.732788,277.655919 386.582124,284.039545 393.352732,290.344362 C395.163476,292.078186 394.61238,292.078186 396.659308,290.580792 C411.381445,280.099035 431.142174,280.099035 445.86431,290.580792 C447.753782,291.920566 447.202686,292.235806 449.249614,290.344362 C456.177678,283.960735 463.027015,277.655919 469.955079,271.272293 C470.584903,270.720622 471.135999,269.774899 472.159463,270.16895 C473.261655,270.563001 472.868015,271.666344 472.868015,272.454446 L472.868015,307.840226 C472.868015,310.125722 472.868015,310.125722 474.993671,309.49524 C476.883143,308.943569 478.693887,308.391897 480.583359,307.840226 C483.260111,308.943569 483.102655,309.49524 482.394103,309.731671 L477.906607,311.150254 L473.891479,312.332407 C472.789287,314.145042 472.789287,315.327195 472.868015,316.430538 C478.536431,316.903399 482.000463,316.903399 485.464495,316.903399 C487.432695,317.13983 487.826335,317.533881 487.747607,318.085552 C486.330503,319.188895 485.779407,319.188895 485.307039,319.188895 L474.363847,319.188895 C472.789287,319.188895 472.710559,319.188895 472.710559,320.686289 C472.710559,323.129405 472.553103,322.577733 474.600031,323.208215 C476.725687,323.917507 478.930071,324.469178 481.134455,325.17847 C482.945199,325.966572 483.181383,326.439433 482.945199,327.069915 C478.300247,326.833484 476.174591,326.124192 473.970207,325.493711 C472.710559,328.724929 472.710559,331.010425 472.710559,333.374731 C472.710559,334.241643 472.946743,334.714504 473.891479,334.635694 L507.901976,334.635694 C508.767984,334.635694 509.633992,334.556884 510.5,335.029745 L510.5,336.527139 C508.5318,337 507.980704,337 507.35088,337 L0.5,337 Z" id="Shape" fill="#151D38"></path>
            <path d="M91.7628092,323 C91.7628092,322.92159 91.7628092,322.92159 91.7628092,322.84318 C120.858216,322.84318 149.953622,322.84318 179.049028,322.84318 C179.207155,322.84318 179.286219,322.84318 179.444346,322.84318 C181.5,322.84318 181.5,322.84318 181.5,320.804519 C181.5,320.647699 181.5,320.412469 181.5,320.255649 C181.5,280.18813 181.5,240.12061 181.5,199.97468 C181.5,199.50422 181.5,199.11217 181.5,198.64171 C181.420936,196.524639 180.234982,195.270079 178.100265,195.034849 C177.388693,194.956439 176.67712,195.034849 176.044611,195.034849 C119.988516,195.034849 63.9324205,195.034849 7.95538869,195.034849 C7.48100707,195.034849 7.08568905,195.034849 6.61130742,195.034849 C3.68595406,195.113259 2.5,196.367819 2.5,199.19058 C2.5,239.80697 2.5,280.50177 2.5,321.11816 C2.5,322.92159 2.5,322.92159 4.3975265,322.92159 C4.87190813,322.92159 5.26722615,322.92159 5.74160777,322.92159 C34.3626325,323 63.0627208,323 91.7628092,323 Z" id="Shape" fill="#CCD6DA"></path>
            <path d="M148.293836,193.125433 C154.182125,193.125433 160.070414,193.125433 166.037214,193.125433 C169.648698,193.125433 173.338693,193.125433 176.950177,193.125433 C179.933577,193.125433 182.210382,194.869463 182.759955,197.564781 C182.916976,198.278247 182.916976,198.91244 182.916976,199.625907 C182.916976,210.565727 182.916976,221.426274 182.916976,232.366095 C182.916976,234.189398 183.073998,234.110124 184.487187,234.268672 C196.028234,235.695605 207.41226,235.061413 218.639264,232.128273 C244.233695,225.389977 263.625794,210.327905 276.894072,187.338427 C280.662577,180.837953 283.488956,173.861836 285.53023,166.568622 C285.922782,165.141689 285.922782,165.141689 284.588103,164.745319 C283.881509,164.507496 283.174914,164.269674 282.468319,164.031852 C281.13364,163.476934 280.741088,163.001289 280.976619,162.208549 C281.212151,161.336534 281.918746,161.25726 283.331935,161.732904 C287.10044,163.159837 290.868945,163.476934 294.794471,162.763467 C306.414029,160.464519 313.872528,148.57341 310.810618,137.07867 C307.670197,125.346109 295.579576,118.687088 284.274061,122.492243 C283.724488,122.650791 283.253424,122.967887 282.703851,123.047161 C282.154277,123.126435 281.761724,122.809339 281.526193,122.333695 C281.290661,121.778776 281.447682,121.303132 281.840235,120.986035 C282.154277,120.748213 282.468319,120.589665 282.860872,120.510391 C283.724488,120.193295 284.509593,119.955473 285.373208,119.71765 C285.53023,119.638376 285.765761,119.559102 285.844272,119.400554 C286.001293,119.004184 285.60874,119.083458 285.373208,119.004184 C285.059166,118.845636 284.666614,118.766362 284.274061,118.607814 C278.385772,116.546688 272.733014,113.930644 267.55132,110.442585 C258.130057,104.259208 250.828579,96.1732535 246.117947,85.7883512 C243.919653,80.8733592 242.427953,75.7205451 241.564337,70.3299088 C241.328805,68.7444275 241.250295,68.7444275 239.915616,69.4578941 C239.444553,69.6957163 239.052,69.9335385 238.580937,70.2506347 C231.5935,74.372886 224.449043,77.8609448 216.912033,80.7148111 C200.660355,86.818914 184.016124,89.27641 166.822319,86.1847215 C154.88872,84.0443218 143.740226,79.7635224 134.004921,72.2324863 C132.748753,71.2811976 132.748753,71.2811976 131.728116,72.3117604 C122.934937,80.7940852 115.947501,90.544795 110.922827,101.643164 C103.150285,119.004184 100.79497,137.07867 103.699859,155.866623 C105.662622,168.629748 110.216233,180.441583 116.968137,191.381404 C117.753243,192.729063 118.616858,193.283981 120.265579,193.283981 C129.529821,193.046159 138.872573,193.125433 148.293836,193.125433 Z" id="Shape" fill="#FAE0D6"></path>
            <path d="M182.590865,279.954931 C182.590865,292.450794 182.590865,304.86757 182.590865,317.363433 C182.590865,319.103364 182.590865,320.922382 182.590865,322.662312 C182.590865,323.611365 182.828304,324.006804 183.857208,324.006804 C185.994162,323.927716 188.131117,324.006804 190.347217,324.006804 C198.341009,324.006804 206.334801,323.927716 214.249447,323.927716 C215.911522,323.927716 216.069815,324.164979 216.069815,325.825822 C216.069815,328.435717 216.069815,331.045613 216.069815,333.576421 C216.069815,334.841825 215.911522,335 217.336159,335 C227.546051,335 237.755944,335 247.88669,335 C248.915594,335 249.153034,334.604561 249.23218,333.734596 C249.548766,330.887437 250.419377,328.119366 251.923159,325.667646 C252.477185,324.797681 252.556331,324.006804 252.160599,322.978663 C250.498523,318.075223 248.915594,313.092695 247.332665,308.189255 C243.454489,296.167918 239.497166,284.146581 235.61899,272.125244 C235.460697,271.729805 235.302404,271.255279 235.223257,270.85984 C235.064965,270.148051 235.38155,269.594436 236.093868,269.436261 C236.72704,269.278085 237.201919,269.594436 237.439358,270.148051 C237.518505,270.385314 237.597651,270.622577 237.676798,270.85984 C240.446923,279.401317 243.217049,287.942793 245.987175,296.484269 C248.599008,304.551219 251.210841,312.618169 253.901821,320.606031 C254.3767,321.950522 254.3767,322.02961 255.405603,321.080557 C258.254876,318.312486 261.579027,316.493468 265.457203,315.623503 C266.6444,315.307152 266.723547,315.307152 266.406961,314.120836 C265.773789,311.51094 265.061471,308.821957 264.507446,306.212061 C262.687077,298.303287 267.515011,290.15725 275.35051,288.100968 C275.825389,287.942793 276.379414,287.942793 276.854293,287.784617 C277.408318,287.70553 277.645757,287.389179 277.408318,286.835564 C277.329172,286.519213 277.250025,286.202862 277.091732,285.965599 C270.918309,266.826365 264.665739,247.608044 258.492315,228.46881 C257.384265,224.909862 256.197068,221.350913 255.009871,217.791965 C254.772432,217 254.3767,216.684736 253.743528,217.396526 C253.506089,217.633789 253.268649,217.791965 252.952063,217.95014 C247.728397,221.82544 242.108999,225.226212 236.173015,227.915196 C224.617632,233.214075 212.429078,236.219409 199.686499,236.693935 C194.30454,236.931198 188.922581,236.852111 183.619769,236.061233 C182.749158,235.903058 182.432572,236.219409 182.511718,237.010286 C182.511718,237.484813 182.511718,238.038427 182.511718,238.512953 C182.590865,252.353308 182.590865,266.193663 182.590865,279.954931 Z" id="Shape" fill="#FFF3A2"></path>
            <path d="M434.413612,334.840901 C445.854682,334.840901 457.374115,334.840901 468.815185,334.840901 C470.460818,334.840901 470.460818,334.840901 470.460818,333.17036 C470.460818,332.931712 470.460818,332.693063 470.460818,332.374865 C470.460818,313.60117 470.460818,294.827475 470.460818,276.053781 C470.460818,275.656033 470.460818,275.258285 470.460818,274.940087 C470.460818,274.621889 470.617545,274.224141 470.304091,274.065042 C469.83391,273.826393 469.677183,274.303691 469.363729,274.542339 C465.132101,278.519817 460.900472,282.417745 456.59048,286.395223 C454.004485,288.781709 451.41849,291.247745 448.832495,293.634232 C447.735406,294.668376 447.578679,294.588827 446.403226,293.793331 C446.011409,293.554683 445.697955,293.236484 445.384501,292.997836 C439.193785,288.304412 432.297798,285.520178 424.618176,284.963331 C414.352558,284.167835 405.027303,287.031619 396.799136,293.395583 C394.996776,294.827475 394.996776,294.827475 393.351142,293.316034 C393.272779,293.236484 393.194415,293.156935 393.037688,293.077385 C386.846972,287.190718 380.577893,281.304051 374.308814,275.417384 C373.838633,274.940087 373.368452,274.065042 372.741544,274.303691 C372.271363,274.542339 372.506453,275.417384 372.506453,276.053781 C372.506453,282.895042 372.506453,289.815854 372.506453,296.657115 C372.506453,297.61171 372.42809,298.407205 371.409365,299.043602 C360.125022,306.759908 357.460663,321.794774 364.043196,333.409009 C364.670104,334.522703 365.375376,335 366.707555,335 C375.014085,334.92045 383.398979,335 391.705509,334.92045 C392.254053,334.92045 393.037688,335.159099 393.272779,334.681802 C393.507869,334.204504 392.724234,333.806757 392.332417,333.409009 C388.257515,328.954234 387.003699,323.783513 388.727696,318.055945 C390.451693,312.328377 394.448231,308.907746 400.090403,307.555404 C401.265855,307.237206 402.441307,307.078107 403.61676,307.237206 C404.243668,307.316755 404.635485,307.714503 404.635485,308.430449 C404.635485,308.987296 404.322031,309.385044 403.695123,309.464593 C402.989852,309.544143 402.362944,309.623692 401.657672,309.703242 C396.250592,310.419188 391.627145,314.555765 390.530057,319.885585 C389.354604,325.374504 391.705509,330.942973 396.407318,333.886306 C397.582771,334.602252 398.836587,335 400.325493,335 C411.92329,334.761351 423.207633,334.840901 434.413612,334.840901 Z" id="Shape" fill="#C27659"></path>
            <path d="M91.9083544,325.084174 C91.9083544,325.084174 91.9083544,325.084174 91.9083544,325.084174 C75.8624827,325.155488 59.8166111,325.155488 43.7707395,325.155488 C30.8866159,325.155488 18.0024924,325.155488 5.11836888,325.155488 C4.64410666,325.155488 4.09080074,325.155488 3.61653853,325.155488 C2.8261015,325.155488 2.43088299,325.440743 2.50992669,326.153881 C2.50992669,327.580155 2.50992669,329.00643 2.50992669,330.432705 C2.50992669,333 2.50992669,333 5.35549998,333 C27.8829552,333 50.4894542,333 73.0169094,332.928686 C108.191357,332.928686 143.286761,332.857373 178.461209,332.857373 C178.935471,332.857373 179.488777,332.857373 179.963039,332.857373 C181.069651,332.786059 181.464869,332.42949 181.464869,331.431098 C181.543913,329.57694 181.464869,327.794097 181.464869,325.939939 C181.464869,325.155488 181.069651,324.941547 180.279214,325.012861 C179.804952,325.012861 179.409733,325.012861 178.935471,325.012861 C170.556839,325.012861 162.25725,325.084174 153.878617,325.084174 C133.248211,325.084174 112.617804,325.084174 91.9083544,325.084174 Z" id="Shape" fill="#CCD6DA"></path>
            <path d="M286.923469,334.918716 C297.998483,334.918716 309.151489,334.918716 320.226503,334.918716 C320.694461,334.918716 321.084426,334.918716 321.552384,334.918716 C322.254322,335 322.566294,334.756147 322.488301,333.943302 C322.098336,330.529353 320.92844,327.440542 318.900621,324.676869 C318.588648,324.189162 318.276676,324.270447 318.12069,324.839438 C318.042697,325.083292 317.964704,325.327145 317.808718,325.570998 C315.234947,331.179629 308.839517,332.724034 304.159934,328.822378 C303.30201,328.090818 302.756059,327.928249 301.742149,328.415956 C298.856406,329.635223 296.126649,329.228801 293.552879,327.440542 C290.823122,325.489714 289.575233,322.726041 289.809212,319.230808 C289.887205,318.01154 289.809212,317.930256 288.795303,318.255394 C286.377518,318.90567 284.115719,318.661816 281.931914,317.361264 C281.385963,317.036126 280.918004,317.036126 280.29406,317.036126 C276.70638,317.036126 273.040706,316.954842 269.453026,317.036126 C261.185762,317.198695 254.088394,323.132464 251.982582,331.504767 C251.748603,332.398896 251.592617,333.293026 251.514624,334.187155 C251.436631,334.756147 251.67061,335 252.216561,335 C252.684519,335 253.230471,335 253.698429,335 C264.851436,334.918716 275.926449,334.918716 286.923469,334.918716 Z" id="Shape" fill="#CCD6DA"></path>
            <path d="M273.513751,314.574336 C273.513751,314.574336 273.513751,314.574336 273.513751,314.574336 C274.999902,314.574336 276.40349,314.574336 277.889642,314.574336 C278.46759,314.574336 278.797846,314.419685 278.550154,313.801082 C276.898874,309.548183 276.651182,304.985982 275.660414,300.578432 C275.412722,299.573202 275.825542,298.954598 276.568618,298.799947 C277.311694,298.645296 277.807078,299.109249 278.05477,300.11448 C278.302462,301.11971 278.46759,302.202266 278.632718,303.207497 C279.128102,305.836562 279.540922,308.465627 280.11887,311.017366 C280.944509,314.497011 284.329633,316.507472 288.045012,315.888868 C291.677828,315.19294 293.989619,312.099922 293.411672,308.620278 C292.916288,305.604586 292.420904,302.666219 291.677828,299.727852 C290.109112,293.15519 283.091173,288.979617 276.073234,290.216824 C269.385551,291.376705 264.514276,297.949367 265.670172,304.367379 C266.24812,307.460396 267.238888,310.476088 267.981963,313.569105 C268.147091,314.265034 268.559911,314.574336 269.385551,314.574336 C270.789139,314.574336 272.192727,314.574336 273.513751,314.574336 Z" id="Shape" fill="#FAE0D6"></path>
            <path d="M293.5,320.294536 C293.663442,322.541521 294.39893,324.307009 296.196791,325.591 C299.955955,328.319481 305.022653,326.955241 306.657072,322.62177 C308.20977,318.368549 309.680747,314.035079 311.151724,309.701608 C311.315166,309.220111 311.396887,308.738615 311.478608,308.176869 C311.723771,305.04714 309.844189,302.238409 306.738793,301.275416 C303.715118,300.392672 300.364559,301.676663 298.893582,304.485394 C297.912931,306.411381 297.095722,308.497866 296.768838,310.664602 C296.523675,312.269591 296.033349,313.714081 295.21614,315.158571 C294.235489,316.843809 293.663442,318.609297 293.5,320.294536 Z" id="Shape" fill="#FAE0D6"></path>
            <path d="M198.175127,333 C198.175127,333 198.175127,332.927928 198.175127,332.927928 C202.479695,332.927928 206.703046,332.927928 211.007614,332.927928 C211.738579,332.927928 212.469543,332.927928 213.119289,332.927928 C213.931472,332.855856 214.5,332.567568 214.5,331.774775 C214.5,329.756757 214.5,327.738739 214.5,325.720721 C214.5,325.216216 214.175127,325 213.606599,325 C213.119289,325 212.550761,325 212.063452,325 C205.972081,325 199.880711,325 193.78934,325 C190.459391,325 187.129442,325.072072 183.880711,325.072072 C182.906091,325.072072 182.5,325.36036 182.5,326.225225 C182.581218,328.027027 182.5,329.828829 182.5,331.558559 C182.5,332.927928 182.5,333 184.124365,333 C188.835025,333 193.464467,333 198.175127,333 Z" id="Shape" fill="#CCD6DA"></path>
            <path d="M319.5,317.795456 C319.5,314.215588 317.197737,311.647421 313.701708,311.102659 C312.166866,310.869189 311.996329,310.947012 311.484715,312.270007 C310.546756,314.76035 309.694066,317.250694 308.756107,319.663214 C307.903417,321.842264 307.477072,324.254784 305.771692,326.122541 C305.174809,326.745127 305.686423,327.134243 306.112768,327.523359 C309.694066,330.247172 315.151281,329.079824 317.027199,325.033016 C317.879889,323.165259 318.562041,321.219678 319.244193,319.274097 C319.5,318.651512 319.5,318.028926 319.5,317.795456 Z" id="Shape" fill="#FAE0D6"></path>
            <path d="M114.465657,260.898873 C113.847482,270.383041 107.974822,277.457298 99.3203757,279.478514 C88.1932304,282.121643 77.2206287,274.425473 75.6751918,262.997828 C74.3615705,253.358182 80.5433179,243.563058 90.5886575,241.230885 C92.7522691,240.764451 92.9068128,240.84219 93.2159001,243.018884 C94.5295215,250.404097 99.4749194,255.845833 106.661201,257.478353 C108.361181,257.867049 110.061162,257.944788 111.838414,257.78931 C114.15657,257.556092 114.388385,257.78931 114.465657,260.121482 C114.542929,260.510178 114.465657,260.898873 114.465657,260.898873 Z" id="Shape" fill="#151D38"></path>
            <path d="M95.3412476,277.99927 C96.5200659,277.919615 98.0918236,277.760305 99.6635813,277.362028 C106.657903,275.450302 112.159055,268.759261 112.473407,261.590288 C112.551995,259.997182 112.551995,259.997182 111.058825,259.997182 C101.706866,260.156493 93.5337262,253.784072 91.4118533,244.544063 C90.940326,242.473026 90.7045624,242.950958 89.4471562,243.349234 C81.352604,246.057513 76.3229793,254.50097 77.7375612,263.183393 C79.0735553,271.62685 86.5394044,278.078926 95.3412476,277.99927 Z" id="Shape" fill="#FFFFFF"></path>
            <path d="M180.704058,120.72931 C189.360354,120.72931 198.016649,120.72931 206.672945,120.72931 C210.650162,120.72931 214.627378,120.891379 218.604595,120.972413 C220.476227,121.053448 220.944135,121.701723 220.086304,123.322411 C214.237455,134.586196 205.659144,142.446535 193.415555,145.120671 C181.093982,147.794807 170.254116,144.310327 160.973943,135.477575 C157.308665,131.993095 154.501218,127.779305 152.239663,123.160343 C152.005709,122.674136 151.771755,122.268964 151.615786,121.782757 C151.303848,120.810344 151.615786,120.324138 152.629587,120.081034 C153.01951,120 153.409433,120 153.721372,120 C161.363867,120.081034 169.084346,120.162069 176.726841,120.243103 C178.05258,120.243103 179.300335,120.405172 180.626074,120.405172 C180.704058,120.567241 180.704058,120.648275 180.704058,120.72931 Z" id="Shape" fill="#151D38"></path>
            <path d="M187.143559,122.308748 C187.143559,122.308748 187.143559,122.308748 187.143559,122.308748 C184.771733,122.308748 182.478968,122.308748 180.107142,122.308748 C177.18189,122.308748 174.335698,122.308748 171.410446,122.154374 C166.429612,122 161.448777,122 156.467943,122 C155.36109,122 155.28203,122.077187 155.835456,123.003431 C157.811977,126.631221 160.341925,129.873075 163.425299,132.651808 C172.121994,140.370509 182.241785,143.535176 193.784672,141.296753 C204.378828,139.212704 212.126793,133.192117 217.819175,124.392797 C218.846966,122.77187 218.846966,122.694683 216.870445,122.694683 C206.987836,122.540309 197.026167,122.385935 187.143559,122.308748 Z" id="Shape" fill="#FFFFFF"></path>
            <path d="M112.5,133.00038 C112.5,126.461649 117.404192,120.078602 125.577844,120.00076 C132.739521,119.922917 138.5,125.838912 138.5,133.00038 C138.5,140.239689 132.739521,146 125.5,146 C118.338323,145.922158 112.5,140.161847 112.5,133.00038 Z" id="Shape" fill="#E5384A"></path>
            <path d="M264.480866,135.040386 C264.792948,141.285983 259.409526,147.92193 251.529443,148 C244.351546,148 238.578021,142.222823 238.5,135.040386 C238.5,127.70181 244.195505,122.002703 251.529443,122.002703 C259.253484,121.846563 264.870969,128.482509 264.480866,135.040386 Z" id="Shape" fill="#E5384A"></path>
            <path d="M142.45621,104 C146.40665,104 149.584178,107.092025 149.498299,111.042945 C149.498299,114.907975 146.40665,118 142.627968,118 C138.677528,118 135.5,114.907975 135.5,110.957055 C135.5,107.177914 138.591649,104.08589 142.45621,104 Z" id="Shape" fill="#151D38"></path>
            <path d="M231.54379,106.0017 C235.49423,106.0017 238.5,109.092964 238.5,113.12878 C238.414121,116.992859 235.322472,120.084122 231.457911,119.998253 C227.679229,119.998253 224.501701,116.821122 224.501701,113.042911 C224.415822,109.092964 227.59335,105.915832 231.54379,106.0017 Z" id="Shape" fill="#151D38"></path>
            <path d="M303.498996,142.119605 C303.418834,150.253857 295.081988,155.986568 287.145951,153.352619 C286.905465,153.27515 286.664979,153.197681 286.424493,153.042743 C285.622873,152.732867 285.302225,152.190583 285.622873,151.415893 C285.863359,150.718671 286.584817,150.641202 287.226113,150.79614 C287.626923,150.873609 288.107895,151.106017 288.508705,151.183486 C294.039882,152.655398 299.811545,149.246759 300.933813,143.901393 C302.05608,138.40109 298.208305,133.210662 292.516804,132.435972 C292.035832,132.358503 291.474698,132.281034 290.993726,132.203565 C290.432593,132.126095 290.111945,131.661281 290.111945,131.118998 C290.111945,130.421776 290.512754,130.1119 291.15405,130.034431 C291.55486,129.956962 292.035832,130.034431 292.516804,130.034431 C298.849601,130.731652 303.579158,135.92208 303.498996,142.119605 Z" id="Shape" fill="#151D38"></path>
            <path d="M187.49567,103.369992 C187.49567,103.938285 187.049891,104.263024 186.529815,104.506578 C184.969588,105.39961 183.335064,106.292642 181.774837,107.104489 C181.106168,107.429228 180.957575,107.753966 181.626244,108.241075 C182.963582,109.215291 184.226623,110.270692 185.56396,111.244909 C185.935443,111.488463 186.232629,111.732017 186.529815,112.056756 C186.901298,112.46268 186.901298,113.030973 186.604112,113.518081 C186.306926,114.005189 185.861147,114.086374 185.341071,113.924004 C185.043885,113.84282 184.820995,113.68045 184.598105,113.436896 C182.592099,111.894387 180.511796,110.351877 178.505789,108.728183 C177.094155,107.591597 177.168452,106.77975 178.728679,105.886718 C180.957575,104.587763 183.260768,103.369992 185.56396,102.152221 C186.678409,101.746298 187.569967,102.152221 187.49567,103.369992 Z" id="Shape" fill="#151D38"></path>
            <path d="M125.5,107.847302 C125.727578,102.051578 129.520545,97.2494066 134.906559,96.1730578 C135.513433,96.0074657 136.120308,95.9246697 136.727183,96.0902618 C137.182339,96.1730578 137.485776,96.5870381 137.485776,97.0838145 C137.561636,97.6633869 137.334058,98.1601633 136.803042,98.3257554 C136.272027,98.4913475 135.741011,98.5741436 135.209996,98.6569397 C131.113591,99.5676963 128.382655,102.879539 127.927499,107.350526 C127.85164,107.847302 127.85164,108.261283 127.85164,108.758059 C127.77578,109.503224 127.472343,110 126.71375,110 C125.955156,110 125.651719,109.420428 125.575859,108.675263 C125.5,108.426875 125.5,108.178487 125.5,107.847302 Z" id="Shape" fill="#151D38"></path>
            <path d="M246.5,107.805228 C246.5,108.13038 246.5,108.699395 246.421744,109.187122 C246.265231,109.756136 245.873949,110 245.326154,110 C244.778359,110 244.387077,109.674849 244.30882,109.105834 C244.230564,108.699395 244.30882,108.292955 244.230564,107.967804 C243.995795,103.171822 240.943794,99.5138689 236.404922,98.6197027 C236.170153,98.5384148 235.935384,98.5384148 235.700614,98.457127 C234.91805,98.2945513 234.370255,97.8881121 234.526768,96.9939459 C234.683281,96.0997797 235.387589,95.937204 236.091897,96.0184919 C238.752615,96.3436432 241.022051,97.4003851 242.978461,99.2700054 C245.169641,101.627353 246.343487,104.391139 246.5,107.805228 Z" id="Shape" fill="#151D38"></path>
            <path d="M420.820592,328.982102 C417.819523,328.896191 415.791773,328.037076 414.250683,325.975199 C413.601803,325.201995 413.358473,325.201995 412.709593,325.975199 C409.870744,329.325749 405.734134,329.927129 402.408625,327.607518 C401.273085,326.834314 400.380875,325.717464 399.731995,324.428791 C399.407555,323.741499 399.326445,322.882383 400.137545,322.452826 C400.948645,322.023268 401.435305,322.452826 401.840855,323.22603 C402.084185,323.741499 402.408625,324.256968 402.814175,324.772437 C405.490804,327.779341 410.195184,326.834314 411.655164,323.054206 C411.979604,322.195091 412.060713,321.679622 411.006284,321.421887 C409.546304,320.99233 408.654094,319.789568 407.680774,318.672718 C407.275224,318.24316 407.031894,317.64178 406.950784,317.040399 C406.707454,315.837637 407.113004,315.064434 408.329654,315.064434 C411.736274,314.978522 415.224003,314.978522 418.630623,315.064434 C419.766162,315.064434 420.171712,315.837637 419.847272,317.040399 C419.360613,319.016364 417.900633,320.047303 416.440653,321.078241 C415.953993,321.421887 415.142893,321.335976 414.980673,321.937357 C414.818453,322.71056 415.305113,323.483764 415.791773,324.171056 C417.981743,327.349783 422.361682,327.349783 424.632762,324.171056 C424.876092,323.82741 425.119422,323.311941 425.362752,322.968295 C425.768302,322.366914 426.336072,322.281003 426.903842,322.538737 C427.471612,322.882383 427.633831,323.483764 427.390502,324.085145 C426.903842,325.287906 426.173852,326.318845 425.200532,327.17796 C423.740552,328.380722 422.118352,329.068014 420.820592,328.982102 Z" id="Shape" fill="#151D38"></path>
            <path d="M446.501041,307.002081 C449.929017,307.002081 452.5,309.658317 452.5,313.000033 C452.5,316.427433 449.757619,319.083669 446.329642,318.997984 C442.987365,318.912299 440.416382,316.256063 440.502081,312.828663 C440.416382,309.486947 443.073064,306.916396 446.501041,307.002081 Z" id="Shape" fill="#151D38"></path>
            <path d="M378.457447,319 C375.138298,319 372.5,316.446809 372.5,313.042553 C372.5,309.638298 374.968085,307.085106 378.37234,307 C381.861702,307 384.5,309.553191 384.5,312.957447 C384.414894,316.361702 381.861702,319 378.457447,319 Z" id="Shape" fill="#151D38"></path>
        </g>
        <text id="User" font-family="Inter-Bold, Inter" font-size="54" font-weight="bold" letter-spacing="-0.16" fill="#333333">
            <tspan x="184.187543" y="1494">USER</tspan>
        </text>
    </g>
</svg>