<svg viewBox="0 0 2649 1900" xmlns="http://www.w3.org/2000/svg"><g fill="none" fill-rule="evenodd"><path fill="#CADCF8" d="M1099 808h1445v1000H1099z"></path><path fill="#A1BCF3" d="M1231 939h738v738h-738z"></path><path d="M1377.293 1720.702l-9.856 30.298h-8.898l13.557-39.273h10.7l13.539 39.273h-8.898l-9.837-30.298h-.307zm-10.413 21.343v-6.482h21.017v6.482h-21.017zm58.196-5.523v-24.795h8.303v25.505q0 4.295-2.042 7.517-2.042 3.221-5.705 5.014-3.662 1.793-8.533 1.793-4.89 0-8.553-1.793-3.662-1.793-5.695-5.014-2.033-3.222-2.033-7.517v-25.505h8.304v24.795q0 2.244.987 3.989.988 1.745 2.79 2.742 1.803.997 4.2.997 2.416 0 4.209-.997 1.793-.997 2.78-2.742.988-1.745.988-3.989zm25.424-17.949h-12.024v-6.846h32.255v6.846h-12.024V1751h-8.207v-32.427zm33.63 32.427h-8.302v-39.273h8.303v16.204h16.856v-16.204h8.284V1751h-8.284v-16.223h-16.856V1751zm58.292 0h-26.54v-39.273h26.464v6.846h-18.16v9.358h16.798v6.846h-16.798v9.377h18.236V1751zm30.89-39.273h8.264V1751h-7.172l-17.086-24.718h-.287V1751h-8.304v-39.273h7.287l16.952 24.7h.345v-24.7zm25.404 6.846h-12.024v-6.846h32.255v6.846h-12.024V1751h-8.207v-32.427zm25.328-6.846h8.303V1751h-8.303v-39.273zm49.566 13.75h-8.4q-.23-1.63-.939-2.906-.71-1.275-1.822-2.176-1.112-.901-2.56-1.38-1.447-.48-3.135-.48-3.049 0-5.312 1.505-2.262 1.505-3.509 4.372-1.246 2.867-1.246 6.952 0 4.2 1.256 7.056 1.256 2.858 3.519 4.315 2.262 1.457 5.235 1.457 1.668 0 3.097-.44 1.428-.442 2.54-1.295 1.113-.853 1.85-2.08.74-1.228 1.027-2.8l8.399.038q-.326 2.704-1.62 5.206-1.295 2.503-3.471 4.468-2.177 1.966-5.178 3.107-3 1.14-6.779 1.14-5.254 0-9.386-2.377-4.133-2.378-6.52-6.884-2.388-4.507-2.388-10.911 0-6.424 2.417-10.93 2.416-4.507 6.558-6.875 4.142-2.369 9.32-2.369 3.413 0 6.337.96 2.924.958 5.187 2.79 2.263 1.83 3.692 4.477 1.428 2.646 1.831 6.06zm21.627-4.775L1685.38 1751h-8.897l13.557-39.273h10.7l13.54 39.273h-8.898l-9.837-30.298h-.307zm-10.413 21.343v-6.482h21.017v6.482h-21.017zm39.633-23.472h-12.023v-6.846h32.254v6.846h-12.023V1751h-8.208v-32.427zm25.328-6.846h8.303V1751h-8.303v-39.273zm51.005 19.637q0 6.424-2.426 10.93-2.426 4.506-6.597 6.875-4.17 2.368-9.367 2.368-5.235 0-9.396-2.378-4.162-2.378-6.578-6.884-2.416-4.507-2.416-10.911 0-6.424 2.416-10.93 2.416-4.507 6.578-6.875 4.16-2.369 9.396-2.369 5.197 0 9.367 2.369 4.171 2.368 6.597 6.874 2.426 4.507 2.426 10.93zm-8.419 0q0-4.162-1.236-7.019-1.237-2.857-3.48-4.334-2.245-1.476-5.255-1.476t-5.254 1.476q-2.244 1.477-3.48 4.334-1.238 2.857-1.238 7.019 0 4.16 1.237 7.018 1.237 2.857 3.48 4.334 2.244 1.476 5.255 1.476 3.01 0 5.254-1.476 2.244-1.477 3.48-4.334 1.237-2.857 1.237-7.018zm38.905-19.637h8.265V1751h-7.172l-17.086-24.718h-.288V1751h-8.303v-39.273h7.287l16.952 24.7h.345v-24.7z" fill="#333" fill-rule="nonzero"></path><path fill="#30D314" d="M1329 1310l-88 63v-126z"></path><path fill="#30D314" d="M1329 1310l-88 63v-126zm0-1140l-88 63V107zm146 374l63 88h-126zm254 493l63-88h-126z"></path><path fill="#30D314" d="M538 1285h717v49H538zm234-936h557v49H772z"></path><path fill="#30D314" d="M820.5 145.5v252h-49v-252z"></path><path fill="#30D314" d="M772 146h483v49H772zm727.5 468.5v422h-49v-422zm254-71v428h-49v-428zM2090 1311l-88 63v-126z"></path><path fill="#30D314" d="M1873 1286h153v49h-153z"></path><g transform="translate(255.500000, 1246.500000) scale(-1, 1) translate(-255.500000, -1246.500000) translate(0.000000, 1078.000000)" fill-rule="nonzero"><path d="M.5 337l.075-138.706a5.514 5.514 0 0 1 5.51-5.514c35.587-.003 71.173-.003 106.76-.003 2.204-.867 1.417-1.418 1.102-1.97-6.85-11.349-11.337-23.564-13.069-36.804-3.857-30.342 4.724-56.744 25.35-79.362a78.592 78.592 0 0 1 3.622-3.625c1.024-1.025 1.024-1.025.079-1.97-3.228-3.074-6.14-6.463-8.582-10.246-5.51-8.748-8.58-18.284-8.817-28.687-.079-2.6.472-2.916 2.834-1.734 2.52 1.261 5.117 2.365 7.873 3.231.315-4.57-.236-8.353-.315-12.215 0-1.419-.079-2.758 0-4.177 0-1.97.709-2.443 2.44-1.419 2.756 1.577 5.512 2.995 8.425 4.177 1.732.71 1.732.71 1.574-1.182-.472-4.965-.551-9.93 0-14.895.472-1.891 1.338-2.207 1.968-1.655.473.394.788.946 1.181 1.419 6.062 7.565 12.833 14.343 20.942 19.781 7.085 4.729 14.722 7.33 23.225 7.408 6.377.079 12.517-1.26 18.422-3.546 5.51-2.128 11.022-4.335 16.769-5.596 5.826-1.26 11.73-1.813 17.556-.394 9.92 2.443 16.612 8.827 20.785 17.969 1.574 3.467 2.44 7.093 2.991 10.876.236 1.418.236 1.418 1.732 1.34 8.66-.631 17.005.709 24.563 5.2 9.054 5.439 14.093 13.635 16.06 23.802 1.418 7.487 1.024 14.895-.157 22.382-.944 5.832-2.519 11.585-4.408 17.18-.473 1.419-.788 1.34.944 1.97 8.818 2.995 14.329 9.064 15.903 18.206 2.205 12.53-5.825 23.643-17.477 26.401-2.126.473-4.33.788-6.535.552-.944-.158-1.26.315-1.495 1.182-1.654 5.99-3.937 11.821-6.692 17.417-5.669 11.27-13.227 20.963-22.674 29.239-2.126 1.497-2.283 2.364-1.81 3.546 1.101 3.074 2.046 6.226 3.07 9.3 6.377 19.86 12.832 39.641 19.13 59.501.473 1.419 1.103 1.97 2.52 2.207 6.22 1.34 10.156 5.201 11.81 11.349.314 1.34.55 2.758.786 4.098 1.496-.867 2.126-1.734 3.07-2.522 2.678-2.207 5.67-2.68 8.897-1.576 3.307 1.182 5.275 3.625 5.747 7.093.158 1.182.473 1.497 1.653 1.655 5.511.867 8.74 6.304 6.929 11.664-.473 1.34-.315 2.285.63 3.388 2.44 2.916 3.857 6.305 4.33 10.088.236 1.655 0 1.655 1.81 1.655h32.515c0-3.31-1.024-5.91-1.575-8.748-3.7.237-6.22.867-8.66 1.655-1.417.473-2.126.158-2.362-.63-.236-.71.315-1.261 1.654-1.655 2.283-.71 4.566-1.34 6.849-2.05 2.283-.709 1.89-.157 1.89-2.679.078-1.182-.394-1.34-1.024-1.34h-11.337c-2.047-.079-2.362-.473-2.362-1.103 1.496-1.182 1.89-1.103 2.362-1.103h11.18c1.023 0 1.417-.316 1.574-1.34.394-2.68.472-2.68-2.204-3.468-2.205-.71-4.488-1.34-6.692-1.97-1.732-.71-1.968-1.182-1.811-1.734 1.732-.788 2.204-.63 2.756-.473 2.676.788 5.274 1.576 7.951 2.443 3.622-5.595 6.692-9.536 10.865-12.53.787-.552.944-1.183.944-2.05v-24.352c.158-1.103.945-1.497 1.89-.946 7.794 7.25 14.643 13.635 21.414 19.94 1.81 1.733 1.26 1.733 3.306.236 14.722-10.482 34.483-10.482 49.205 0 1.89 1.34 1.339 1.655 3.386-.237 6.928-6.383 13.777-12.688 20.705-19.072.63-.551 1.181-1.497 2.204-1.103 1.103.394.709 1.497.709 2.285v35.386c0 2.286 0 2.286 2.126 1.655 1.89-.551 3.7-1.103 5.59-1.655 2.676 1.104 2.519 1.655 1.81 1.892l-4.487 1.418-4.016 1.182c-1.102 1.813-1.102 2.995-1.023 4.099 5.668.472 9.132.472 12.596.472 1.969.237 2.362.63 2.284 1.183-1.417 1.103-1.969 1.103-2.441 1.103h-10.943c-1.575 0-1.653 0-1.653 1.497 0 2.443-.158 1.892 1.889 2.522 2.126.71 4.33 1.261 6.534 1.97 1.811.789 2.047 1.261 1.811 1.892-4.645-.237-6.77-.946-8.975-1.576-1.26 3.23-1.26 5.516-1.26 7.88 0 .868.237 1.34 1.181 1.262h34.011c.866 0 1.732-.08 2.598.394v1.497c-1.968.473-2.52.473-3.15.473H.5z" fill="#151D38"></path><path d="M91.763 323v-.157h87.681c2.056 0 2.056 0 2.056-2.038V198.642c-.08-2.117-1.265-3.372-3.4-3.607-.711-.079-1.423 0-2.055 0H6.61c-2.925.078-4.111 1.333-4.111 4.156v121.927c0 1.804 0 1.804 1.898 1.804h1.344c28.62.078 57.32.078 86.02.078z" fill="#CCD6DA"></path><path d="M148.294 193.125h28.656c2.984 0 5.26 1.744 5.81 4.44.157.713.157 1.347.157 2.06v32.741c0 1.823.157 1.744 1.57 1.903 11.541 1.427 22.925.792 34.152-2.14 25.595-6.739 44.987-21.801 58.255-44.79 3.769-6.501 6.595-13.477 8.636-20.77.393-1.427.393-1.427-.942-1.824l-2.12-.713c-1.334-.555-1.727-1.03-1.491-1.823.235-.872.942-.952 2.355-.476 3.768 1.427 7.537 1.744 11.462 1.03 11.62-2.298 19.079-14.19 16.017-25.684-3.14-11.733-15.231-18.392-26.537-14.587-.55.159-1.02.476-1.57.555-.55.08-.942-.238-1.178-.713-.235-.555-.078-1.03.314-1.348a2.423 2.423 0 0 1 1.02-.476 30.614 30.614 0 0 1 2.513-.792c.157-.08.393-.159.471-.317.157-.397-.235-.318-.47-.397-.315-.158-.707-.238-1.1-.396-5.888-2.061-11.541-4.677-16.723-8.165-9.42-6.184-16.722-14.27-21.433-24.655-2.198-4.915-3.69-10.067-4.554-15.458-.235-1.586-.314-1.586-1.648-.872-.471.238-.864.476-1.335.793-6.987 4.122-14.132 7.61-21.669 10.464-16.252 6.104-32.896 8.561-50.09 5.47-11.933-2.14-23.082-6.421-32.817-13.953-1.256-.95-1.256-.95-2.277.08-8.793 8.482-15.78 18.233-20.805 29.331-7.773 17.361-10.128 35.436-7.223 54.224 1.963 12.763 6.516 24.575 13.268 35.514.785 1.348 1.649 1.903 3.298 1.903 9.264-.238 18.607-.159 28.028-.159z" fill="#FAE0D6"></path><path d="M182.59 279.955v42.708c0 .948.238 1.344 1.267 1.344 2.137-.08 4.274 0 6.49 0 7.994 0 15.988-.08 23.902-.08 1.663 0 1.82.238 1.82 1.899v7.75c0 1.266-.157 1.424 1.267 1.424h30.55c1.03 0 1.267-.395 1.346-1.265.317-2.848 1.187-5.616 2.691-8.067.554-.87.633-1.661.238-2.69-1.662-4.903-3.245-9.885-4.828-14.789-3.879-12.021-7.836-24.042-11.714-36.064a7.77 7.77 0 0 1-.396-1.265c-.158-.712.159-1.266.87-1.424.634-.158 1.109.158 1.346.712l.238.712 8.31 25.624c2.612 8.067 5.224 16.134 7.915 24.122.475 1.345.475 1.424 1.504.475 2.849-2.769 6.173-4.588 10.051-5.457 1.187-.317 1.267-.317.95-1.503-.633-2.61-1.346-5.299-1.9-7.909-1.82-7.909 3.008-16.055 10.844-18.111.474-.158 1.028-.158 1.503-.316.554-.08.792-.396.554-.95-.079-.316-.158-.632-.316-.87-6.174-19.139-12.426-38.357-18.6-57.496-1.108-3.56-2.295-7.118-3.482-10.677-.238-.792-.633-1.107-1.266-.395a2.843 2.843 0 0 1-.792.553c-5.224 3.875-10.843 7.276-16.779 9.965-11.555 5.3-23.744 8.304-36.487 8.779-5.381.237-10.763.158-16.066-.633-.87-.158-1.187.158-1.108.95v1.502c.079 13.84.079 27.68.079 41.442z" fill="#FFF3A2"></path><path d="M434.414 334.84h34.401c1.646 0 1.646 0 1.646-1.67v-58.23c0-.318.157-.716-.157-.875-.47-.239-.627.239-.94.477-4.232 3.978-8.464 7.876-12.774 11.853-2.586 2.387-5.172 4.853-7.758 7.24-1.097 1.033-1.253.954-2.429.158-.392-.238-.705-.557-1.018-.795-6.191-4.694-13.087-7.478-20.767-8.035-10.265-.795-19.59 2.069-27.819 8.433-1.802 1.431-1.802 1.431-3.448-.08a1.084 1.084 0 0 0-.313-.239 4131.378 4131.378 0 0 0-18.73-17.66c-.47-.477-.94-1.352-1.566-1.113-.47.238-.236 1.113-.236 1.75v20.603c0 .955-.078 1.75-1.097 2.387-11.284 7.716-13.948 22.75-7.366 34.365.627 1.114 1.332 1.591 2.665 1.591 8.306-.08 16.691 0 24.998-.08.548 0 1.332.24 1.567-.238.235-.477-.549-.875-.94-1.273-4.075-4.455-5.33-9.625-3.605-15.353 1.724-5.728 5.72-9.148 11.362-10.5 1.176-.319 2.351-.478 3.527-.319.627.08 1.018.478 1.018 1.193 0 .557-.313.955-.94 1.035-.705.08-1.332.159-2.037.238-5.407.716-10.03 4.853-11.128 10.183-1.175 5.489 1.176 11.057 5.877 14 1.176.716 2.43 1.114 3.918 1.114 11.598-.239 22.883-.16 34.089-.16z" fill="#C27659"></path><path d="M91.908 325.084c-16.046.071-32.091.071-48.137.071H3.617c-.79 0-1.186.286-1.107.999v4.279c0 2.567 0 2.567 2.845 2.567 22.528 0 45.134 0 67.662-.071 35.174 0 70.27-.072 105.444-.072h1.502c1.107-.07 1.502-.428 1.502-1.426.079-1.854 0-3.637 0-5.491 0-.785-.395-.998-1.186-.927h-1.344c-8.378 0-16.678.071-25.056.071h-61.97zm195.015 9.835h34.629c.702.081 1.014-.163.936-.976-.39-3.414-1.56-6.502-3.587-9.266-.312-.488-.624-.407-.78.162-.078.244-.156.488-.312.732-2.574 5.609-8.97 7.153-13.65 3.251-.857-.731-1.403-.894-2.417-.406-2.886 1.22-5.615.813-8.19-.975-2.729-1.951-3.977-4.715-3.743-8.21.078-1.22 0-1.3-1.014-.976-2.417.65-4.68.407-6.863-.894-.546-.325-1.014-.325-1.638-.325-3.588 0-7.253-.081-10.841 0-8.267.163-15.365 6.096-17.47 14.469a16.11 16.11 0 0 0-.468 2.682c-.078.57.156.813.702.813h1.481c11.153-.081 22.228-.081 33.225-.081z" fill="#CCD6DA"></path><path d="M273.514 314.574h4.376c.578 0 .908-.154.66-.773-1.651-4.253-1.899-8.815-2.89-13.223-.247-1.005.166-1.623.909-1.778.743-.155 1.238.31 1.486 1.314.247 1.006.413 2.088.578 3.093.495 2.63.908 5.259 1.486 7.81.826 3.48 4.21 5.49 7.926 4.872 3.633-.696 5.945-3.79 5.367-7.269-.496-3.015-.991-5.954-1.734-8.892-1.569-6.573-8.587-10.748-15.605-9.511-6.687 1.16-11.559 7.732-10.403 14.15.578 3.093 1.569 6.11 2.312 9.202.165.696.578 1.005 1.404 1.005h4.128zm19.986 5.721c.163 2.247.899 4.012 2.697 5.296 3.759 2.728 8.826 1.364 10.46-2.97 1.553-4.252 3.024-8.586 4.495-12.92.163-.48.245-.962.327-1.524.245-3.13-1.635-5.939-4.74-6.902-3.024-.882-6.374.402-7.845 3.21-.981 1.926-1.798 4.013-2.125 6.18a12.816 12.816 0 0 1-1.553 4.494c-.98 1.685-1.553 3.45-1.716 5.136z" fill="#FAE0D6"></path><path d="M198.175 333v-.072h14.944c.812-.072 1.381-.36 1.381-1.153v-6.054c0-.505-.325-.721-.893-.721h-19.818c-3.33 0-6.66.072-9.908.072-.975 0-1.381.288-1.381 1.153.081 1.802 0 3.604 0 5.334 0 1.369 0 1.441 1.624 1.441h14.051z" fill="#CCD6DA"></path><path d="M319.5 317.795c0-3.58-2.302-6.148-5.798-6.692-1.535-.234-1.706-.156-2.217 1.167-.938 2.49-1.79 4.98-2.729 7.393-.853 2.18-1.279 4.592-2.984 6.46-.597.622-.086 1.011.34 1.4 3.582 2.724 9.04 1.557 10.915-2.49.853-1.868 1.535-3.813 2.217-5.759.256-.622.256-1.245.256-1.479z" fill="#FAE0D6"></path><path d="M114.466 260.899c-.619 9.484-6.491 16.558-15.146 18.58-11.127 2.643-22.1-5.054-23.645-16.481-1.313-9.64 4.868-19.435 14.914-21.767 2.163-.467 2.318-.389 2.627 1.788 1.314 7.385 6.259 12.827 13.445 14.46 1.7.388 3.4.466 5.177.31 2.319-.233 2.55 0 2.628 2.332.077.39 0 .778 0 .778z" fill="#151D38"></path><path d="M95.341 278c1.18-.08 2.75-.24 4.323-.638 6.994-1.912 12.495-8.603 12.81-15.772.078-1.593.078-1.593-1.415-1.593-9.352.16-17.525-6.213-19.647-15.453-.472-2.071-.707-1.593-1.965-1.195-8.094 2.709-13.124 11.152-11.71 19.834 1.337 8.444 8.802 14.896 17.604 14.816z" fill="#FFF"></path><path d="M180.704 120.73h25.969c3.977 0 7.954.161 11.932.242 1.871.081 2.34.73 1.481 2.35-5.849 11.264-14.427 19.125-26.67 21.799-12.322 2.674-23.162-.81-32.442-9.643-3.665-3.485-6.473-7.699-8.734-12.318-.234-.486-.468-.891-.624-1.377-.312-.973 0-1.459 1.014-1.702.39-.081.78-.081 1.091-.081l23.006.243c1.326 0 2.573.162 3.9.162a.632.632 0 0 1 .077.324z" fill="#151D38"></path><path d="M187.144 122.309h-7.037c-2.925 0-5.771 0-8.697-.155-4.98-.154-9.961-.154-14.942-.154-1.107 0-1.186.077-.633 1.003a36.273 36.273 0 0 0 7.59 9.649c8.697 7.719 18.817 10.883 30.36 8.645 10.594-2.084 18.342-8.105 24.034-16.904 1.028-1.621 1.028-1.698-.949-1.698-9.882-.155-19.844-.31-29.726-.386z" fill="#FFF"></path><path d="M112.5 133c0-6.538 4.904-12.921 13.078-13 7.162-.077 12.922 5.839 12.922 13 0 7.24-5.76 13-13 13-7.162-.078-13-5.838-13-13zm151.98 2.04c.313 6.246-5.07 12.882-12.95 12.96-7.178 0-12.952-5.777-13.03-12.96 0-7.338 5.696-13.037 13.03-13.037 7.723-.156 13.341 6.48 12.95 13.037z" fill="#E5384A"></path><path d="M142.456 104c3.95 0 7.128 3.092 7.042 7.043 0 3.865-3.091 6.957-6.87 6.957-3.95 0-7.128-3.092-7.128-7.043 0-3.78 3.092-6.871 6.956-6.957zm89.088 2.002c3.95 0 6.956 3.091 6.956 7.127-.086 3.864-3.178 6.955-7.042 6.87-3.779 0-6.956-3.178-6.956-6.956a6.862 6.862 0 0 1 7.042-7.041zm71.955 36.118c-.08 8.134-8.417 13.867-16.353 11.233-.24-.078-.481-.155-.722-.31-.801-.31-1.122-.852-.801-1.627.24-.697.962-.775 1.603-.62.4.078.882.31 1.283.387 5.53 1.472 11.303-1.936 12.425-7.282 1.122-5.5-2.726-10.69-8.417-11.465-.481-.077-1.042-.155-1.523-.232-.561-.078-.882-.543-.882-1.085 0-.697.4-1.007 1.042-1.085.4-.077.882 0 1.363 0 6.333.698 11.062 5.888 10.982 12.086zm-116.003-38.75c0 .568-.446.893-.966 1.137-1.56.893-3.195 1.786-4.755 2.597-.669.325-.817.65-.149 1.137 1.338.974 2.6 2.03 3.938 3.004.371.243.669.487.966.812.371.406.371.974.074 1.461-.297.487-.743.568-1.263.406-.297-.081-.52-.244-.743-.487-2.006-1.543-4.086-3.085-6.092-4.709-1.412-1.136-1.338-1.948.223-2.841 2.229-1.3 4.532-2.517 6.835-3.735 1.114-.406 2.006 0 1.932 1.218zm-61.996 4.477c.228-5.795 4.02-10.598 9.407-11.674.606-.166 1.213-.248 1.82-.083.455.083.759.497.759.994.076.58-.152 1.076-.683 1.242-.531.165-1.062.248-1.593.33-4.096.912-6.827 4.224-7.283 8.695-.075.496-.075.91-.075 1.407-.076.745-.38 1.242-1.138 1.242-.759 0-1.062-.58-1.138-1.325-.076-.248-.076-.497-.076-.828zm121-.042c0 .325 0 .894-.078 1.382-.157.57-.548.813-1.096.813s-.939-.325-1.017-.894c-.078-.407 0-.813-.078-1.138-.235-4.796-3.287-8.454-7.826-9.348-.235-.082-.47-.082-.704-.163-.783-.162-1.33-.569-1.174-1.463.156-.894.86-1.057 1.565-.976 2.66.326 4.93 1.382 6.886 3.252 2.192 2.357 3.365 5.121 3.522 8.535zm174.32 221.177c-3-.086-5.028-.945-6.57-3.007-.648-.773-.892-.773-1.54 0-2.84 3.35-6.976 3.952-10.301 1.633-1.136-.774-2.028-1.89-2.677-3.18-.324-.687-.406-1.546.406-1.975.81-.43 1.297 0 1.703.773.243.515.568 1.031.973 1.546 2.677 3.007 7.381 2.062 8.841-1.718.325-.859.406-1.374-.649-1.632-1.46-.43-2.352-1.632-3.325-2.75-.406-.429-.65-1.03-.73-1.632-.244-1.202.162-1.976 1.379-1.976 3.406-.085 6.894-.085 10.3 0 1.136 0 1.542.774 1.217 1.976-.486 1.976-1.946 3.007-3.406 4.038-.487.344-1.298.258-1.46.86-.163.773.324 1.546.81 2.233 2.19 3.179 6.57 3.179 8.842 0 .243-.344.486-.86.73-1.203.405-.601.973-.687 1.54-.43.569.344.73.946.488 1.547a8.147 8.147 0 0 1-2.19 3.093c-1.46 1.203-3.083 1.89-4.38 1.804zm25.681-21.98c3.428 0 5.999 2.656 5.999 5.998 0 3.427-2.742 6.084-6.17 5.998-3.343-.086-5.914-2.742-5.828-6.17-.086-3.341 2.571-5.912 5.999-5.826zM378.457 319c-3.319 0-5.957-2.553-5.957-5.957 0-3.405 2.468-5.958 5.872-6.043 3.49 0 6.128 2.553 6.128 5.957-.085 3.405-2.638 6.043-6.043 6.043z" fill="#151D38"></path></g><path d="M1685.49 1856.702l-9.857 30.298h-8.898l13.557-39.273h10.7l13.539 39.273h-8.898l-9.837-30.298h-.307zm-10.414 21.343v-6.482h21.017v6.482h-21.017zm42.316 8.955h-8.304v-39.273h15.495q4.468 0 7.613 1.697 3.144 1.697 4.803 4.699 1.659 3 1.659 6.913 0 3.911-1.688 6.903-1.687 2.991-4.88 4.66-3.193 1.668-7.718 1.668h-9.876v-6.654h8.533q2.397 0 3.96-.834 1.563-.834 2.34-2.32.776-1.487.776-3.423 0-1.956-.776-3.423-.777-1.467-2.35-2.282-1.572-.815-3.988-.815h-5.6V1887zm26.514-39.273h8.303V1887h-8.303v-39.273zm56.614 11.295h-7.959q-.23-2.32-1.975-3.605-1.745-1.285-4.736-1.285-2.033 0-3.433.566-1.4.565-2.138 1.563-.738.997-.738 2.262-.039 1.055.45 1.841.49.787 1.352 1.352.863.566 1.995.978 1.131.413 2.416.7l3.528.844q2.57.575 4.718 1.534 2.147.959 3.72 2.359 1.572 1.4 2.445 3.298.872 1.898.891 4.353-.019 3.605-1.83 6.242-1.813 2.637-5.217 4.084-3.404 1.448-8.198 1.448-4.755 0-8.274-1.457-3.519-1.458-5.484-4.324-1.966-2.867-2.062-7.105h8.035q.134 1.975 1.14 3.288 1.008 1.314 2.705 1.976 1.697.661 3.845.661 2.109 0 3.672-.613 1.563-.614 2.426-1.707.862-1.093.862-2.512 0-1.323-.776-2.225-.777-.9-2.263-1.534-1.486-.633-3.634-1.15l-4.276-1.074q-4.967-1.208-7.843-3.778-2.877-2.57-2.857-6.922-.02-3.567 1.908-6.233 1.927-2.665 5.302-4.16 3.375-1.497 7.67-1.497 4.372 0 7.642 1.496 3.27 1.496 5.091 4.161 1.822 2.666 1.88 6.175zm32.477 27.978h-26.54v-39.273h26.464v6.846h-18.16v9.358h16.798v6.846h-16.798v9.377h18.236V1887zm14.683 0h-8.304v-39.273h15.495q4.449 0 7.603 1.582t4.813 4.468q1.659 2.886 1.659 6.78 0 3.911-1.688 6.72-1.687 2.81-4.88 4.305-3.193 1.496-7.718 1.496h-10.375v-6.673h9.032q2.378 0 3.95-.652 1.573-.652 2.35-1.956.776-1.304.776-3.24 0-1.957-.776-3.3-.777-1.342-2.359-2.041-1.582-.7-3.979-.7h-5.6V1887zm3.95-17.872h8.955l9.76 17.872h-9.165l-9.55-17.872zm19.783-21.4h9.224l9.492 29.837h.364l9.512-29.838h9.204L1895.671 1887h-10.7l-13.558-39.273zm68.893 39.272h-26.54v-39.273h26.464v6.846h-18.16v9.358h16.798v6.846h-16.798v9.377h18.236V1887zm14.683 0h-8.304v-39.273h15.495q4.449 0 7.603 1.582 3.155 1.582 4.813 4.468 1.659 2.886 1.659 6.78 0 3.911-1.687 6.72-1.688 2.81-4.88 4.305-3.194 1.496-7.72 1.496h-10.373v-6.673h9.031q2.378 0 3.95-.652 1.573-.652 2.35-1.956.776-1.304.776-3.24 0-1.957-.776-3.3-.777-1.342-2.359-2.041-1.582-.7-3.979-.7h-5.6V1887zm3.95-17.872h8.955l9.76 17.872h-9.165l-9.55-17.872zM211.86 1479.522v-24.795h8.302v25.505q0 4.295-2.042 7.517-2.042 3.221-5.705 5.014-3.662 1.793-8.533 1.793-4.89 0-8.553-1.793-3.662-1.793-5.695-5.014-2.033-3.222-2.033-7.517v-25.505h8.304v24.795q0 2.244.987 3.989.988 1.745 2.79 2.742 1.803.997 4.2.997 2.416 0 4.21-.997 1.792-.997 2.78-2.742.987-1.745.987-3.989zm44.232-13.5h-7.958q-.23-2.32-1.975-3.605-1.745-1.285-4.737-1.285-2.032 0-3.432.566-1.4.565-2.138 1.563-.739.997-.739 2.262-.038 1.055.45 1.841.49.787 1.353 1.352.863.566 1.994.978 1.131.413 2.416.7l3.529.844q2.57.575 4.717 1.534 2.148.959 3.72 2.359 1.573 1.4 2.445 3.298.873 1.898.892 4.353-.02 3.605-1.831 6.242-1.813 2.637-5.216 4.084-3.404 1.448-8.198 1.448-4.756 0-8.275-1.457-3.519-1.458-5.484-4.324-1.966-2.867-2.061-7.105h8.034q.135 1.975 1.141 3.288 1.007 1.314 2.704 1.976 1.697.661 3.845.661 2.11 0 3.672-.613 1.563-.614 2.426-1.707.863-1.093.863-2.512 0-1.323-.777-2.225-.776-.9-2.263-1.534-1.486-.633-3.633-1.15l-4.277-1.074q-4.966-1.208-7.843-3.778-2.876-2.57-2.857-6.922-.02-3.567 1.908-6.233 1.927-2.665 5.302-4.16 3.375-1.497 7.67-1.497 4.373 0 7.642 1.496 3.27 1.496 5.092 4.161 1.821 2.666 1.879 6.175zM288.57 1494h-26.54v-39.273h26.463v6.846h-18.16v9.358h16.798v6.846h-16.798v9.377h18.237V1494zm14.682 0h-8.303v-39.273h15.494q4.449 0 7.603 1.582 3.155 1.582 4.814 4.468 1.658 2.886 1.658 6.78 0 3.911-1.687 6.72-1.688 2.81-4.88 4.305-3.193 1.496-7.719 1.496h-10.374v-6.673h9.032q2.378 0 3.95-.652 1.573-.652 2.35-1.956.776-1.304.776-3.24 0-1.957-.777-3.3-.776-1.342-2.358-2.041-1.583-.7-3.98-.7h-5.599V1494zm3.95-17.872h8.956l9.76 17.872h-9.166l-9.55-17.872zm502.069-252.555h-12.023v-6.846h32.254v6.846h-12.024V1256h-8.207v-32.427zm59.657 12.79q0 6.425-2.425 10.931-2.426 4.506-6.597 6.875-4.17 2.368-9.368 2.368-5.235 0-9.396-2.378-4.161-2.378-6.577-6.884-2.417-4.507-2.417-10.911 0-6.424 2.417-10.93 2.416-4.507 6.577-6.875 4.161-2.369 9.396-2.369 5.197 0 9.368 2.369 4.17 2.368 6.597 6.874 2.425 4.507 2.425 10.93zm-8.418 0q0-4.16-1.237-7.018-1.237-2.857-3.48-4.334-2.244-1.476-5.255-1.476-3.01 0-5.254 1.476-2.243 1.477-3.48 4.334-1.237 2.857-1.237 7.019 0 4.16 1.237 7.018 1.237 2.857 3.48 4.334 2.244 1.476 5.254 1.476 3.011 0 5.255-1.476 2.243-1.477 3.48-4.334 1.237-2.857 1.237-7.018zM883.119 1256h-8.303v-39.273h8.303v17.316h.518l14.133-17.316h9.952l-14.574 17.585L907.894 1256h-9.933l-10.758-16.146-4.084 4.985V1256zm55.227 0h-26.54v-39.273h26.464v6.846h-18.16v9.358h16.798v6.846H920.11v9.377h18.236V1256zm30.874-39.273h8.265V1256h-7.172l-17.086-24.718h-.287V1256h-8.303v-39.273h7.286l16.952 24.7h.345v-24.7zm276.051-490.154h-12.023v-6.846h32.254v6.846h-12.024V759h-8.207v-32.427zm59.657 12.79q0 6.425-2.425 10.931-2.426 4.506-6.597 6.875-4.17 2.368-9.368 2.368-5.235 0-9.396-2.378-4.161-2.378-6.577-6.884-2.417-4.507-2.417-10.911 0-6.424 2.417-10.93 2.416-4.507 6.577-6.875 4.161-2.369 9.396-2.369 5.197 0 9.368 2.369 4.17 2.368 6.597 6.874 2.425 4.507 2.425 10.93zm-8.418 0q0-4.16-1.237-7.018-1.237-2.857-3.48-4.334-2.244-1.476-5.255-1.476-3.01 0-5.254 1.476-2.243 1.477-3.48 4.334-1.237 2.857-1.237 7.019 0 4.16 1.237 7.018 1.237 2.857 3.48 4.334 2.244 1.476 5.254 1.476 3.011 0 5.255-1.476 2.243-1.477 3.48-4.334 1.237-2.857 1.237-7.018zM1319.119 759h-8.303v-39.273h8.303v17.316h.518l14.133-17.316h9.952l-14.574 17.585L1343.895 759h-9.934l-10.758-16.146-4.084 4.985V759zm55.227 0h-26.54v-39.273h26.464v6.846h-18.16v9.358h16.798v6.846h-16.798v9.377h18.236V759zm30.874-39.273h8.265V759h-7.172l-17.086-24.718h-.287V759h-8.303v-39.273h7.286l16.952 24.7h.345v-24.7zm-588.872-645h9.224l9.492 29.838h.364l9.511-29.838h9.205L840.606 114h-10.7l-13.558-39.273zM885.152 114h-26.54V74.727h26.463v6.846h-18.16v9.358h16.799v6.846h-16.798v9.377h18.236V114zm14.593 0h-8.303V74.727h15.494q4.45 0 7.604 1.582t4.813 4.468q1.659 2.886 1.659 6.78 0 3.911-1.688 6.72-1.687 2.81-4.88 4.305-3.193 1.496-7.718 1.496H896.35v-6.673h9.032q2.378 0 3.95-.652 1.573-.652 2.35-1.956.776-1.304.776-3.24 0-1.957-.776-3.3-.777-1.342-2.36-2.041-1.581-.7-3.978-.7h-5.6V114zm3.95-17.872h8.956L922.41 114h-9.166l-9.55-17.872zm22.936-21.4h8.303V114h-8.303V74.727zM949.834 114h-8.303V74.727h26.003v6.846h-17.7v9.358h15.974v6.846h-15.974V114zm35.054-13.884l-14.324-25.389h9.3l8.955 16.914h.384l8.955-16.914h9.3l-14.324 25.39V114h-8.246v-13.884zm49.648-18.543h-12.024v-6.846h32.255v6.846h-12.024V114h-8.207V81.573zm59.657 12.79q0 6.425-2.426 10.931-2.425 4.506-6.596 6.875-4.171 2.368-9.368 2.368-5.235 0-9.396-2.378-4.161-2.378-6.577-6.884-2.417-4.507-2.417-10.911 0-6.424 2.417-10.93 2.416-4.507 6.577-6.875 4.161-2.369 9.396-2.369 5.197 0 9.368 2.369 4.17 2.368 6.596 6.874 2.426 4.507 2.426 10.93zm-8.418 0q0-4.16-1.237-7.018-1.237-2.857-3.48-4.334-2.244-1.476-5.255-1.476-3.01 0-5.254 1.476-2.244 1.477-3.48 4.334-1.237 2.857-1.237 7.019 0 4.16 1.237 7.018 1.236 2.857 3.48 4.334 2.244 1.476 5.254 1.476 3.01 0 5.255-1.476 2.243-1.477 3.48-4.334 1.237-2.857 1.237-7.018zM1108.384 114h-8.303V74.727h8.303v17.316h.518l14.132-17.316h9.953l-14.574 17.585L1133.159 114h-9.933l-10.758-16.146-4.084 4.985V114zm55.227 0h-26.54V74.727h26.464v6.846h-18.16v9.358h16.798v6.846h-16.798v9.377h18.236V114zm30.874-39.273h8.265V114h-7.172l-17.086-24.718h-.287V114h-8.304V74.727h7.287l16.952 24.7h.345v-24.7zm615.585 669.795v-24.795h8.303v25.505q0 4.295-2.042 7.517-2.042 3.221-5.705 5.014-3.662 1.793-8.533 1.793-4.89 0-8.553-1.793-3.662-1.793-5.695-5.014-2.033-3.222-2.033-7.517v-25.505h8.304v24.795q0 2.244.987 3.989.988 1.745 2.79 2.742 1.803.997 4.2.997 2.416 0 4.21-.997 1.792-.997 2.78-2.742.987-1.745.987-3.989zm44.144-13.5h-7.958q-.23-2.32-1.975-3.605-1.745-1.285-4.737-1.285-2.032 0-3.432.566-1.4.565-2.138 1.563-.739.997-.739 2.262-.038 1.055.45 1.841.49.787 1.353 1.352.863.566 1.994.978 1.131.413 2.416.7l3.529.844q2.57.575 4.717 1.534 2.148.959 3.72 2.359 1.573 1.4 2.445 3.298.873 1.898.892 4.353-.02 3.605-1.831 6.242-1.813 2.637-5.216 4.084-3.404 1.448-8.198 1.448-4.756 0-8.275-1.457-3.518-1.458-5.484-4.324-1.966-2.867-2.061-7.105h8.034q.135 1.975 1.141 3.288 1.007 1.314 2.704 1.976 1.697.661 3.845.661 2.11 0 3.672-.613 1.563-.614 2.426-1.707.863-1.093.863-2.512 0-1.323-.777-2.225-.776-.9-2.263-1.534-1.486-.633-3.633-1.15l-4.277-1.074q-4.966-1.208-7.843-3.778-2.876-2.57-2.857-6.922-.02-3.567 1.908-6.233 1.927-2.665 5.302-4.16 3.375-1.497 7.67-1.497 4.373 0 7.642 1.496 3.27 1.496 5.092 4.161 1.821 2.666 1.879 6.175zM1886.603 759h-26.54v-39.273h26.463v6.846h-18.16v9.358h16.798v6.846h-16.798v9.377h18.237V759zm14.593 0h-8.303v-39.273h15.494q4.449 0 7.603 1.582 3.155 1.582 4.814 4.468 1.658 2.886 1.658 6.78 0 3.911-1.687 6.72-1.688 2.81-4.88 4.305-3.193 1.496-7.719 1.496h-10.374v-6.673h9.032q2.378 0 3.95-.652 1.573-.652 2.35-1.956.776-1.304.776-3.24 0-1.957-.777-3.3-.776-1.342-2.358-2.041-1.583-.7-3.98-.7h-5.599V759zm3.95-17.872h8.956l9.76 17.872h-9.166l-9.55-17.872zm35.208-21.4h8.304V759h-8.304v-39.273zm39.484 0h8.265V759h-7.172l-17.086-24.718h-.287V759h-8.304v-39.273h7.287l16.952 24.7h.345v-24.7zM2003.003 759h-8.303v-39.273h26.003v6.846h-17.7v9.358h15.974v6.846h-15.974V759zm59.12-19.636q0 6.424-2.425 10.93-2.426 4.506-6.597 6.875-4.17 2.368-9.367 2.368-5.235 0-9.397-2.378-4.16-2.378-6.577-6.884-2.416-4.507-2.416-10.911 0-6.424 2.416-10.93 2.416-4.507 6.577-6.875 4.162-2.369 9.397-2.369 5.196 0 9.367 2.369 4.171 2.368 6.597 6.874 2.426 4.507 2.426 10.93zm-8.418 0q0-4.162-1.237-7.019-1.236-2.857-3.48-4.334-2.244-1.476-5.254-1.476-3.01 0-5.255 1.476-2.243 1.477-3.48 4.334-1.237 2.857-1.237 7.019 0 4.16 1.237 7.018 1.237 2.857 3.48 4.334 2.244 1.476 5.255 1.476 3.01 0 5.254-1.476 2.244-1.477 3.48-4.334 1.237-2.857 1.237-7.018z" fill="#333" fill-rule="nonzero"></path><path fill="#4661FE" d="M1329 1037h544v544h-544z"></path><path d="M1380.068 1264h-8.092l-11.238-39.273h9.07l6.501 27.288h.326l7.172-27.288h7.767l7.152 27.345h.345l6.501-27.345h9.07L1403.405 1264h-8.092l-7.479-25.677h-.307l-7.46 25.677zm65.295 0h-26.54v-39.273h26.463v6.846h-18.16v9.358h16.799v6.846h-16.799v9.377h18.237V1264zm23.07 0h-16.78v-39.273h15.724q4.334 0 7.23 1.285 2.895 1.285 4.353 3.557 1.457 2.273 1.457 5.226 0 2.3-.92 4.036-.92 1.736-2.522 2.838-1.601 1.103-3.653 1.563v.384q2.244.096 4.21 1.265 1.965 1.17 3.192 3.27t1.227 4.995q0 3.126-1.543 5.571-1.544 2.445-4.555 3.864-3.01 1.419-7.42 1.419zm-8.477-17.22v10.432h6.77q3.47 0 5.062-1.333t1.592-3.557q0-1.63-.787-2.877-.786-1.246-2.234-1.956-1.447-.71-3.442-.71h-6.96zm0-15.341v9.722h6.156q1.706 0 3.04-.604 1.332-.604 2.109-1.716.776-1.112.776-2.666 0-2.128-1.505-3.432-1.505-1.304-4.267-1.304h-6.309zm35.438 32.561h-8.303v-39.273h8.303v16.204h16.856v-16.204h8.284V1264h-8.284v-16.223h-16.856V1264zm67.826-19.636q0 6.424-2.425 10.93-2.426 4.506-6.597 6.875-4.17 2.368-9.368 2.368-5.235 0-9.396-2.378-4.161-2.378-6.577-6.884-2.417-4.507-2.417-10.911 0-6.424 2.417-10.93 2.416-4.507 6.577-6.875 4.161-2.369 9.396-2.369 5.197 0 9.368 2.369 4.17 2.368 6.597 6.874 2.425 4.507 2.425 10.93zm-8.418 0q0-4.162-1.237-7.019t-3.48-4.334q-2.244-1.476-5.255-1.476-3.01 0-5.254 1.476-2.243 1.477-3.48 4.334-1.237 2.857-1.237 7.019 0 4.16 1.237 7.018 1.237 2.857 3.48 4.334 2.244 1.476 5.254 1.476 3.011 0 5.255-1.476 2.243-1.477 3.48-4.334 1.237-2.857 1.237-7.018zm50.395 0q0 6.424-2.426 10.93-2.425 4.506-6.596 6.875-4.171 2.368-9.368 2.368-5.235 0-9.396-2.378-4.161-2.378-6.577-6.884-2.417-4.507-2.417-10.911 0-6.424 2.417-10.93 2.416-4.507 6.577-6.875 4.161-2.369 9.396-2.369 5.197 0 9.368 2.369 4.17 2.368 6.596 6.874 2.426 4.507 2.426 10.93zm-8.418 0q0-4.162-1.237-7.019t-3.48-4.334q-2.244-1.476-5.255-1.476-3.01 0-5.254 1.476-2.244 1.477-3.48 4.334-1.237 2.857-1.237 7.019 0 4.16 1.237 7.018 1.236 2.857 3.48 4.334 2.244 1.476 5.254 1.476 3.01 0 5.255-1.476 2.243-1.477 3.48-4.334 1.237-2.857 1.237-7.018zm22.609 19.636h-8.303v-39.273h8.303v17.316h.518l14.132-17.316h9.953l-14.574 17.585 14.746 21.688h-9.933l-10.758-16.146-4.084 4.985V1264zm51.488-32.427h-12.023v-6.846h32.254v6.846h-12.023V1264h-8.208v-32.427zm59.658 12.79q0 6.425-2.426 10.931-2.426 4.506-6.597 6.875-4.17 2.368-9.367 2.368-5.235 0-9.397-2.378-4.16-2.378-6.577-6.884-2.416-4.507-2.416-10.911 0-6.424 2.416-10.93 2.416-4.507 6.577-6.875 4.162-2.369 9.397-2.369 5.196 0 9.367 2.369 4.171 2.368 6.597 6.874 2.426 4.507 2.426 10.93zm-8.419 0q0-4.16-1.237-7.018-1.236-2.857-3.48-4.334-2.244-1.476-5.254-1.476-3.011 0-5.255 1.476-2.243 1.477-3.48 4.334-1.237 2.857-1.237 7.019 0 4.16 1.237 7.018 1.237 2.857 3.48 4.334 2.244 1.476 5.255 1.476 3.01 0 5.254-1.476 2.244-1.477 3.48-4.334 1.237-2.857 1.237-7.018zm22.61 19.637h-8.304v-39.273h8.303v17.316h.518l14.133-17.316h9.952l-14.574 17.585L1769.5 1264h-9.933l-10.758-16.146-4.085 4.985V1264zm55.227 0h-26.54v-39.273h26.463v6.846h-18.16v9.358h16.799v6.846h-16.799v9.377h18.237V1264zm30.874-39.273h8.265V1264h-7.172l-17.086-24.718h-.288V1264h-8.303v-39.273h7.287l16.951 24.7h.346v-24.7zm-452.426 73.975l-9.857 30.298h-8.898l13.557-39.273h10.7l13.539 39.273h-8.898l-9.837-30.298h-.307zm-10.414 21.343v-6.482h21.017v6.482h-21.017zm58.181-5.523v-24.795h8.303v25.505q0 4.295-2.042 7.517-2.042 3.221-5.705 5.014-3.662 1.793-8.533 1.793-4.89 0-8.553-1.793-3.662-1.793-5.695-5.014-2.033-3.222-2.033-7.517v-25.505h8.304v24.795q0 2.244.987 3.989.988 1.745 2.79 2.742 1.803.997 4.2.997 2.416 0 4.209-.997 1.793-.997 2.78-2.742.988-1.745.988-3.989zm25.409-17.949h-12.024v-6.846h32.255v6.846h-12.024V1329h-8.207v-32.427zm33.616 32.427h-8.303v-39.273h8.303v16.204h16.856v-16.204h8.284V1329h-8.284v-16.223h-16.856V1329zm58.276 0h-26.54v-39.273h26.464v6.846h-18.16v9.358h16.798v6.846h-16.798v9.377h18.236V1329zm30.874-39.273h8.265V1329h-7.172l-17.086-24.718h-.287V1329h-8.304v-39.273h7.287l16.952 24.7h.345v-24.7zm25.39 6.846h-12.024v-6.846h32.255v6.846h-12.024V1329h-8.207v-32.427zm25.313-6.846h8.303V1329h-8.303v-39.273zm49.551 13.75h-8.4q-.23-1.63-.939-2.906-.71-1.275-1.822-2.176-1.112-.901-2.56-1.38-1.447-.48-3.135-.48-3.049 0-5.312 1.505-2.262 1.505-3.509 4.372-1.246 2.867-1.246 6.952 0 4.2 1.256 7.056 1.256 2.858 3.519 4.315 2.262 1.457 5.235 1.457 1.668 0 3.097-.44 1.428-.442 2.54-1.295 1.113-.853 1.85-2.08.74-1.228 1.027-2.8l8.399.038q-.326 2.704-1.62 5.206-1.295 2.503-3.471 4.468-2.177 1.966-5.178 3.107-3 1.14-6.779 1.14-5.254 0-9.386-2.377-4.133-2.378-6.52-6.884-2.388-4.507-2.388-10.911 0-6.424 2.417-10.93 2.416-4.507 6.558-6.875 4.142-2.369 9.32-2.369 3.413 0 6.337.96 2.924.958 5.187 2.79 2.263 1.83 3.692 4.477 1.428 2.646 1.831 6.06zm21.612-4.775L1686.35 1329h-8.897l13.557-39.273h10.7l13.54 39.273h-8.898l-9.837-30.298h-.307zm-10.413 21.343v-6.482h21.017v6.482h-21.017zm39.618-23.472h-12.023v-6.846h32.254v6.846h-12.023V1329h-8.208v-32.427zm25.313-6.846h8.303V1329h-8.303v-39.273zm50.99 19.637q0 6.424-2.426 10.93-2.426 4.506-6.597 6.875-4.17 2.368-9.367 2.368-5.235 0-9.396-2.378-4.162-2.378-6.578-6.884-2.416-4.507-2.416-10.911 0-6.424 2.416-10.93 2.416-4.507 6.578-6.875 4.16-2.369 9.396-2.369 5.197 0 9.367 2.369 4.171 2.368 6.597 6.874 2.426 4.507 2.426 10.93zm-8.419 0q0-4.162-1.236-7.019-1.237-2.857-3.48-4.334-2.245-1.476-5.255-1.476t-5.254 1.476q-2.244 1.477-3.48 4.334-1.238 2.857-1.238 7.019 0 4.16 1.237 7.018 1.237 2.857 3.48 4.334 2.244 1.476 5.255 1.476 3.01 0 5.254-1.476 2.244-1.477 3.48-4.334 1.237-2.857 1.237-7.018zm38.89-19.637h8.265V1329h-7.172l-17.086-24.718h-.288V1329h-8.303v-39.273h7.287l16.952 24.7h.345v-24.7zM1512.999 1394h-8.304v-39.273h15.495q4.468 0 7.613 1.697 3.144 1.697 4.803 4.699 1.659 3 1.659 6.913 0 3.911-1.688 6.903-1.687 2.991-4.88 4.66-3.193 1.668-7.718 1.668h-9.876v-6.654h8.533q2.397 0 3.96-.834 1.563-.834 2.34-2.32.776-1.487.776-3.423 0-1.956-.776-3.423-.777-1.467-2.35-2.282-1.572-.815-3.988-.815h-5.6V1394zm51.565 0h-25.14v-39.273h8.303v32.427h16.837V1394zm29.512-14.478v-24.795h8.303v25.505q0 4.295-2.042 7.517-2.042 3.221-5.705 5.014-3.663 1.793-8.533 1.793-4.89 0-8.553-1.793-3.663-1.793-5.695-5.014-2.033-3.222-2.033-7.517v-25.505h8.303v24.795q0 2.244.988 3.989.988 1.745 2.79 2.742 1.803.997 4.2.997 2.416 0 4.209-.997 1.793-.997 2.78-2.742.988-1.745.988-3.989zm49.36-12.1h-8.438q-.403-1.4-1.131-2.483-.729-1.084-1.774-1.841-1.045-.758-2.378-1.16-1.333-.403-2.943-.403-3.011 0-5.284 1.496-2.272 1.495-3.538 4.343-1.265 2.848-1.265 6.951 0 4.104 1.246 6.98 1.247 2.877 3.529 4.382t5.388 1.505q2.82 0 4.823-1.006 2.004-1.007 3.068-2.848 1.064-1.84 1.064-4.353l1.688.25h-10.125v-6.252h16.434v4.947q0 5.178-2.186 8.889-2.186 3.71-6.021 5.714-3.836 2.004-8.783 2.004-5.523 0-9.703-2.445t-6.51-6.961q-2.33-4.516-2.33-10.729 0-4.775 1.39-8.524 1.39-3.749 3.902-6.357 2.512-2.608 5.849-3.97 3.337-1.36 7.23-1.36 3.336 0 6.212.968 2.877.968 5.11 2.732 2.235 1.765 3.654 4.19 1.419 2.426 1.822 5.34zm6.347-12.695h8.303V1394h-8.303v-39.273zm39.484 0h8.265V1394h-7.172l-17.086-24.718h-.287V1394h-8.304v-39.273h7.287l16.952 24.7h.345v-24.7z" fill="#FFF" fill-rule="nonzero"></path><g transform="translate(1880.000000, 1397.000000)"><rect fill="#F08E3E" width="188" height="117" rx="24"></rect><path d="M77.497 44.276V25.909h6.15v18.892q0 3.182-1.512 5.568-1.513 2.387-4.226 3.715-2.713 1.328-6.32 1.328-3.623 0-6.336-1.328t-4.219-3.715q-1.506-2.386-1.506-5.568V25.91h6.151v18.367q0 1.661.732 2.954.731 1.293 2.066 2.031 1.335.739 3.111.739 1.79 0 3.118-.739 1.328-.738 2.06-2.03.731-1.294.731-2.955zm32.7-10h-5.895q-.17-1.72-1.463-2.67-1.293-.953-3.509-.953-1.505 0-2.542.42-1.037.418-1.584 1.157-.547.739-.547 1.676-.028.782.334 1.364.362.582 1.001 1.001.64.42 1.477.725.838.305 1.79.518l2.614.625q1.903.426 3.494 1.137 1.591.71 2.756 1.747 1.165 1.037 1.81 2.443.647 1.406.661 3.224-.014 2.67-1.356 4.624-1.342 1.953-3.864 3.025-2.521 1.073-6.072 1.073-3.523 0-6.13-1.08-2.606-1.08-4.062-3.203-1.456-2.123-1.527-5.263h5.952q.1 1.464.845 2.437.746.973 2.003 1.463 1.257.49 2.848.49 1.562 0 2.72-.455 1.158-.454 1.797-1.264t.639-1.86q0-.981-.575-1.649-.576-.667-1.676-1.136-1.101-.469-2.692-.852l-3.168-.796q-3.679-.895-5.81-2.798-2.13-1.903-2.116-5.128-.014-2.642 1.413-4.616 1.428-1.975 3.928-3.083t5.682-1.108q3.238 0 5.66 1.108t3.772 3.083q1.35 1.974 1.392 4.574zM134.189 55h-19.66V25.91h19.603v5.07H120.68v6.932h12.443v5.071H120.68v6.946h13.509V55zm10.81 0h-6.15V25.91h11.477q3.295 0 5.632 1.171 2.337 1.172 3.565 3.31 1.229 2.137 1.229 5.02 0 2.899-1.25 4.98-1.25 2.08-3.615 3.189-2.365 1.108-5.717 1.108h-7.685v-4.944h6.69q1.762 0 2.926-.483 1.165-.483 1.74-1.449.576-.965.576-2.4 0-1.449-.576-2.443-.575-.995-1.747-1.513-1.172-.518-2.947-.518h-4.148V55zm2.926-13.239h6.634L161.789 55h-6.79l-7.074-13.239zM59.528 69.91h6.151V99h-6.15V69.91zm29.248 0h6.122V99h-5.312L76.93 80.69h-.213V99h-6.151V69.91h5.398L88.52 88.204h.255V69.909zM105.936 99h-6.15V69.91h19.26v5.07h-13.11v6.932h11.832v5.071h-11.832V99zm43.793-14.545q0 4.758-1.797 8.096-1.796 3.338-4.886 5.092-3.09 1.755-6.939 1.755-3.878 0-6.96-1.762-3.083-1.761-4.872-5.1-1.79-3.337-1.79-8.081 0-4.759 1.79-8.097 1.79-3.338 4.872-5.092 3.082-1.755 6.96-1.755 3.85 0 6.939 1.755 3.09 1.754 4.886 5.092 1.797 3.338 1.797 8.097zm-6.236 0q0-3.083-.916-5.2-.916-2.116-2.578-3.21-1.662-1.093-3.892-1.093t-3.892 1.093q-1.662 1.094-2.578 3.21-.916 2.117-.916 5.2 0 3.082.916 5.198.916 2.117 2.578 3.21 1.662 1.094 3.892 1.094T140 92.864q1.662-1.094 2.578-3.21.916-2.117.916-5.2z" fill="#333" fill-rule="nonzero"></path><circle fill="#000" cx="28" cy="58" r="15"></circle></g><path d="M1329 .499h544v543.002h-544z" fill="#FFF3A2"></path><path d="M1380.068 227h-8.092l-11.238-39.273h9.07l6.501 27.288h.326l7.172-27.288h7.767l7.152 27.345h.345l6.501-27.345h9.07L1403.405 227h-8.092l-7.479-25.677h-.307l-7.46 25.677zm65.295 0h-26.54v-39.273h26.463v6.846h-18.16v9.358h16.799v6.846h-16.799v9.377h18.237V227zm23.07 0h-16.78v-39.273h15.724q4.334 0 7.23 1.285 2.895 1.285 4.353 3.557 1.457 2.273 1.457 5.226 0 2.3-.92 4.036-.92 1.736-2.522 2.838-1.601 1.103-3.653 1.563v.384q2.244.096 4.21 1.265 1.965 1.17 3.192 3.27t1.227 4.995q0 3.126-1.543 5.571-1.544 2.445-4.555 3.864-3.01 1.419-7.42 1.419zm-8.477-17.22v10.432h6.77q3.47 0 5.062-1.333t1.592-3.557q0-1.63-.787-2.877-.786-1.246-2.234-1.956-1.447-.71-3.442-.71h-6.96zm0-15.341v9.722h6.156q1.706 0 3.04-.604 1.332-.604 2.109-1.716.776-1.112.776-2.666 0-2.128-1.505-3.432-1.505-1.304-4.267-1.304h-6.309zM1495.394 227h-8.303v-39.273h8.303v16.204h16.856v-16.204h8.284V227h-8.284v-16.223h-16.856V227zm67.826-19.636q0 6.424-2.425 10.93-2.426 4.506-6.597 6.875-4.17 2.368-9.368 2.368-5.235 0-9.396-2.378-4.161-2.378-6.577-6.884-2.417-4.507-2.417-10.911 0-6.424 2.417-10.93 2.416-4.507 6.577-6.875 4.161-2.369 9.396-2.369 5.197 0 9.368 2.369 4.17 2.368 6.597 6.874 2.425 4.507 2.425 10.93zm-8.418 0q0-4.162-1.237-7.019t-3.48-4.334q-2.244-1.476-5.255-1.476-3.01 0-5.254 1.476-2.243 1.477-3.48 4.334-1.237 2.857-1.237 7.019 0 4.16 1.237 7.018 1.237 2.857 3.48 4.334 2.244 1.476 5.254 1.476 3.011 0 5.255-1.476 2.243-1.477 3.48-4.334 1.237-2.857 1.237-7.018zm50.395 0q0 6.424-2.426 10.93-2.425 4.506-6.596 6.875-4.171 2.368-9.368 2.368-5.235 0-9.396-2.378-4.161-2.378-6.577-6.884-2.417-4.507-2.417-10.911 0-6.424 2.417-10.93 2.416-4.507 6.577-6.875 4.161-2.369 9.396-2.369 5.197 0 9.368 2.369 4.17 2.368 6.596 6.874 2.426 4.507 2.426 10.93zm-8.418 0q0-4.162-1.237-7.019t-3.48-4.334q-2.244-1.476-5.255-1.476-3.01 0-5.254 1.476-2.244 1.477-3.48 4.334-1.237 2.857-1.237 7.019 0 4.16 1.237 7.018 1.236 2.857 3.48 4.334 2.244 1.476 5.254 1.476 3.01 0 5.255-1.476 2.243-1.477 3.48-4.334 1.237-2.857 1.237-7.018zM1619.388 227h-8.303v-39.273h8.303v17.316h.518l14.132-17.316h9.953l-14.574 17.585L1644.163 227h-9.933l-10.758-16.146-4.084 4.985V227zm51.488-32.427h-12.023v-6.846h32.254v6.846h-12.023V227h-8.208v-32.427zm59.658 12.79q0 6.425-2.426 10.931-2.426 4.506-6.597 6.875-4.17 2.368-9.367 2.368-5.235 0-9.397-2.378-4.16-2.378-6.577-6.884-2.416-4.507-2.416-10.911 0-6.424 2.416-10.93 2.416-4.507 6.577-6.875 4.162-2.369 9.397-2.369 5.196 0 9.367 2.369 4.171 2.368 6.597 6.874 2.426 4.507 2.426 10.93zm-8.419 0q0-4.16-1.237-7.018-1.236-2.857-3.48-4.334-2.244-1.476-5.254-1.476-3.011 0-5.255 1.476-2.243 1.477-3.48 4.334-1.237 2.857-1.237 7.019 0 4.16 1.237 7.018 1.237 2.857 3.48 4.334 2.244 1.476 5.255 1.476 3.01 0 5.254-1.476 2.244-1.477 3.48-4.334 1.237-2.857 1.237-7.018zm22.61 19.637h-8.304v-39.273h8.303v17.316h.518l14.133-17.316h9.952l-14.574 17.585L1769.5 227h-9.933l-10.758-16.146-4.085 4.985V227zm55.227 0h-26.54v-39.273h26.463v6.846h-18.16v9.358h16.799v6.846h-16.799v9.377h18.237V227zm30.874-39.273h8.265V227h-7.172l-17.086-24.718h-.288V227h-8.303v-39.273h7.287l16.951 24.7h.346v-24.7zM1378.4 261.702L1368.542 292h-8.898l13.557-39.273h10.7L1397.442 292h-8.898l-9.837-30.298h-.307zm-10.414 21.343v-6.482h21.017v6.482h-21.017zm58.181-5.523v-24.795h8.303v25.505q0 4.295-2.042 7.517-2.042 3.221-5.705 5.014-3.662 1.793-8.533 1.793-4.89 0-8.553-1.793-3.662-1.793-5.695-5.014-2.033-3.222-2.033-7.517v-25.505h8.304v24.795q0 2.244.987 3.989.988 1.745 2.79 2.742 1.803.997 4.2.997 2.416 0 4.209-.997 1.793-.997 2.78-2.742.988-1.745.988-3.989zm25.409-17.949h-12.024v-6.846h32.255v6.846h-12.024V292h-8.207v-32.427zM1485.192 292h-8.303v-39.273h8.303v16.204h16.856v-16.204h8.284V292h-8.284v-16.223h-16.856V292zm58.276 0h-26.54v-39.273h26.464v6.846h-18.16v9.358h16.798v6.846h-16.798v9.377h18.236V292zm30.874-39.273h8.265V292h-7.172l-17.086-24.718h-.287V292h-8.304v-39.273h7.287l16.952 24.7h.345v-24.7zm25.39 6.846h-12.024v-6.846h32.255v6.846h-12.024V292h-8.207v-32.427zm25.313-6.846h8.303V292h-8.303v-39.273zm49.551 13.75h-8.4q-.23-1.63-.939-2.906-.71-1.275-1.822-2.176-1.112-.901-2.56-1.38-1.447-.48-3.135-.48-3.049 0-5.312 1.505-2.262 1.505-3.509 4.372-1.246 2.867-1.246 6.952 0 4.2 1.256 7.056 1.256 2.858 3.519 4.315 2.262 1.457 5.235 1.457 1.668 0 3.097-.44 1.428-.442 2.54-1.295 1.113-.853 1.85-2.08.74-1.228 1.027-2.8l8.399.038q-.326 2.704-1.62 5.206-1.295 2.503-3.471 4.468-2.177 1.966-5.178 3.107-3 1.14-6.779 1.14-5.254 0-9.386-2.377-4.133-2.378-6.52-6.884-2.388-4.507-2.388-10.911 0-6.424 2.417-10.93 2.416-4.507 6.558-6.875 4.142-2.369 9.32-2.369 3.413 0 6.337.96 2.924.958 5.187 2.79 2.263 1.83 3.692 4.477 1.428 2.646 1.831 6.06zm21.612-4.775L1686.35 292h-8.897l13.557-39.273h10.7L1715.25 292h-8.898l-9.837-30.298h-.307zm-10.413 21.343v-6.482h21.017v6.482h-21.017zm39.618-23.472h-12.023v-6.846h32.254v6.846h-12.023V292h-8.208v-32.427zm25.313-6.846h8.303V292h-8.303v-39.273zm50.99 19.637q0 6.424-2.426 10.93-2.426 4.506-6.597 6.875-4.17 2.368-9.367 2.368-5.235 0-9.396-2.378-4.162-2.378-6.578-6.884-2.416-4.507-2.416-10.911 0-6.424 2.416-10.93 2.416-4.507 6.578-6.875 4.16-2.369 9.396-2.369 5.197 0 9.367 2.369 4.171 2.368 6.597 6.874 2.426 4.507 2.426 10.93zm-8.419 0q0-4.162-1.236-7.019-1.237-2.857-3.48-4.334-2.245-1.476-5.255-1.476t-5.254 1.476q-2.244 1.477-3.48 4.334-1.238 2.857-1.238 7.019 0 4.16 1.237 7.018 1.237 2.857 3.48 4.334 2.244 1.476 5.255 1.476 3.01 0 5.254-1.476 2.244-1.477 3.48-4.334 1.237-2.857 1.237-7.018zm38.89-19.637h8.265V292h-7.172l-17.086-24.718h-.288V292h-8.303v-39.273h7.287l16.952 24.7h.345v-24.7zm-313.637 76.295h-7.958q-.23-2.32-1.975-3.605-1.745-1.285-4.737-1.285-2.032 0-3.432.566-1.4.565-2.138 1.563-.739.997-.739 2.262-.038 1.055.451 1.841.49.787 1.352 1.352.863.566 1.994.978 1.132.413 2.417.7l3.528.844q2.57.575 4.717 1.534 2.148.959 3.72 2.359 1.573 1.4 2.445 3.298.873 1.898.892 4.353-.02 3.605-1.831 6.242-1.812 2.637-5.216 4.084-3.404 1.448-8.198 1.448-4.756 0-8.274-1.457-3.52-1.458-5.485-4.324-1.965-2.867-2.061-7.105h8.035q.134 1.975 1.14 3.288 1.007 1.314 2.704 1.976 1.697.661 3.845.661 2.11 0 3.672-.613 1.563-.614 2.426-1.707.863-1.093.863-2.512 0-1.323-.777-2.225-.776-.9-2.262-1.534-1.486-.633-3.634-1.15l-4.276-1.074q-4.967-1.208-7.844-3.778-2.876-2.57-2.857-6.922-.019-3.567 1.908-6.233 1.927-2.665 5.302-4.16 3.375-1.497 7.67-1.497 4.373 0 7.643 1.496 3.27 1.496 5.09 4.161 1.823 2.666 1.88 6.175zM1550.94 357h-26.54v-39.273h26.463v6.846h-18.16v9.358h16.799v6.846h-16.799v9.377h18.237V357zm14.593 0h-8.303v-39.273h15.494q4.45 0 7.604 1.582t4.813 4.468q1.659 2.886 1.659 6.78 0 3.911-1.688 6.72-1.687 2.81-4.88 4.305-3.193 1.496-7.719 1.496h-10.374v-6.673h9.032q2.378 0 3.95-.652 1.573-.652 2.35-1.956.776-1.304.776-3.24 0-1.957-.777-3.3-.776-1.342-2.358-2.041-1.582-.7-3.98-.7h-5.599V357zm3.95-17.872h8.956l9.76 17.872h-9.166l-9.55-17.872zm19.695-21.4h9.223l9.493 29.837h.364l9.511-29.838h9.205L1613.435 357h-10.7l-13.558-39.273zm42.264 0h8.303V357h-8.303v-39.273zm49.552 13.749h-8.4q-.23-1.63-.94-2.906-.709-1.275-1.82-2.176-1.113-.901-2.56-1.38-1.449-.48-3.136-.48-3.05 0-5.312 1.505-2.263 1.505-3.51 4.372-1.246 2.867-1.246 6.952 0 4.2 1.256 7.056 1.256 2.858 3.52 4.315 2.262 1.457 5.234 1.457 1.669 0 3.097-.44 1.429-.442 2.541-1.295 1.112-.853 1.85-2.08.739-1.228 1.026-2.8l8.4.038q-.326 2.704-1.62 5.206-1.295 2.503-3.472 4.468-2.176 1.966-5.177 3.107-3.001 1.14-6.779 1.14-5.254 0-9.387-2.377-4.132-2.378-6.52-6.884-2.387-4.507-2.387-10.911 0-6.424 2.416-10.93 2.416-4.507 6.558-6.875 4.142-2.369 9.32-2.369 3.413 0 6.338.96 2.924.958 5.187 2.79 2.263 1.83 3.691 4.477 1.429 2.646 1.832 6.06zM1713.247 357h-26.54v-39.273h26.463v6.846h-18.16v9.358h16.799v6.846h-16.798v9.377h18.236V357z" fill="#333" fill-rule="nonzero"></path><path fill="#A1BCF3" d="M2090 939h290v738h-290z"></path><path fill="#A1BCF3" d="M2336 939h88v31h-88zm0 55h88v31h-88zm0 55h88v31h-88zm0 55h88v31h-88zm0 55h88v31h-88zm0 55h88v31h-88zm0 55h88v31h-88zm0 55h88v31h-88zm0 55h88v31h-88zm0 55h88v31h-88zm0 55h88v31h-88zm0 54h88v31h-88zm0 54h88v31h-88zm0 49h88v31h-88z"></path><path d="M2231.202 1525l30.298 9.857v8.898l-39.273-13.557v-10.7l39.273-13.539v8.898l-30.298 9.837v.307zm21.343 10.414h-6.482v-21.017h6.482v21.017zm-5.523-58.196h-24.795v-8.303h25.505q4.295 0 7.517 2.042 3.221 2.042 5.014 5.705 1.793 3.662 1.793 8.533 0 4.89-1.793 8.553-1.793 3.662-5.014 5.695-3.222 2.033-7.517 2.033h-25.505v-8.304h24.795q2.244 0 3.989-.987 1.745-.988 2.742-2.79.997-1.803.997-4.2 0-2.416-.997-4.209-.997-1.793-2.742-2.78-1.745-.988-3.989-.988zm-17.949-25.424v12.024h-6.846v-32.255h6.846v12.024h32.427v8.207h-32.427zm32.427-33.63v8.302h-39.273v-8.303h16.204v-16.856h-16.204v-8.284h39.273v8.284h-16.223v16.856h16.223zm-19.636-67.842q6.424 0 10.93 2.426 4.506 2.425 6.875 6.596 2.368 4.171 2.368 9.368 0 5.235-2.378 9.396-2.378 4.161-6.884 6.578-4.507 2.416-10.911 2.416-6.424 0-10.93-2.416-4.507-2.417-6.875-6.578-2.369-4.161-2.369-9.396 0-5.197 2.369-9.368 2.368-4.17 6.874-6.596 4.507-2.426 10.93-2.426zm0 8.418q-4.162 0-7.019 1.237t-4.334 3.48q-1.476 2.244-1.476 5.255 0 3.01 1.476 5.254 1.477 2.244 4.334 3.48 2.857 1.237 7.019 1.237 4.16 0 7.018-1.236 2.857-1.237 4.334-3.48 1.476-2.245 1.476-5.255t-1.476-5.254q-1.477-2.244-4.334-3.48-2.857-1.238-7.018-1.238zm19.636-22.624v8.304h-39.273v-15.495q0-4.449 1.582-7.603 1.582-3.155 4.468-4.813 2.886-1.66 6.78-1.66 3.911 0 6.72 1.688 2.81 1.688 4.305 4.88 1.496 3.194 1.496 7.72v10.373h-6.673v-9.032q0-2.377-.652-3.95-.652-1.572-1.956-2.349-1.304-.777-3.24-.777-1.957 0-3.3.777-1.342.777-2.041 2.359-.7 1.582-.7 3.979v5.6h32.484zm-17.872-3.95v-8.955l17.872-9.76v9.165l-17.872 9.55zm-21.4-22.95v-8.303h39.272v8.303h-39.273zm11.294-44.178v7.958q-2.32.23-3.605 1.975-1.285 1.745-1.285 4.737 0 2.032.566 3.432.565 1.4 1.563 2.138.997.739 2.262.739 1.055.038 1.841-.45.787-.49 1.352-1.353.566-.863.978-1.994.413-1.131.7-2.416l.844-3.529q.575-2.57 1.534-4.717.959-2.148 2.359-3.72 1.4-1.573 3.298-2.445 1.898-.873 4.353-.892 3.605.02 6.242 1.831 2.637 1.813 4.084 5.216 1.448 3.404 1.448 8.198 0 4.756-1.457 8.275-1.458 3.519-4.324 5.484-2.867 1.966-7.105 2.061v-8.034q1.975-.135 3.288-1.141 1.314-1.007 1.976-2.704.661-1.697.661-3.845 0-2.11-.613-3.672-.614-1.563-1.707-2.426-1.093-.863-2.512-.863-1.323 0-2.225.777-.9.776-1.534 2.263-.633 1.486-1.15 3.633l-1.074 4.277q-1.208 4.966-3.778 7.843-2.57 2.876-6.922 2.857-3.567.02-6.233-1.908-2.665-1.927-4.16-5.302-1.497-3.375-1.497-7.67 0-4.373 1.496-7.642 1.496-3.27 4.161-5.092 2.666-1.821 6.175-1.879zm-2.32-21.57l30.298 9.857v8.898l-39.273-13.557v-10.7l39.273-13.54v8.899l-30.298 9.837v.307zm21.343 10.413h-6.482v-21.017h6.482v21.017zm-23.472-39.633v12.024h-6.846v-32.255h6.846v12.024h32.427v8.207h-32.427zm-6.846-25.328v-8.303h39.273v8.303h-39.273zm19.637-51.004q6.424 0 10.93 2.426 4.506 2.425 6.875 6.596 2.368 4.171 2.368 9.368 0 5.235-2.378 9.396-2.378 4.161-6.884 6.577-4.507 2.417-10.911 2.417-6.424 0-10.93-2.417-4.507-2.416-6.875-6.577-2.369-4.161-2.369-9.396 0-5.197 2.369-9.368 2.368-4.17 6.874-6.596 4.507-2.426 10.93-2.426zm0 8.418q-4.162 0-7.019 1.237t-4.334 3.48q-1.476 2.244-1.476 5.255 0 3.01 1.476 5.254 1.477 2.244 4.334 3.48 2.857 1.237 7.019 1.237 4.16 0 7.018-1.237 2.857-1.236 4.334-3.48 1.476-2.244 1.476-5.254 0-3.01-1.476-5.255-1.477-2.243-4.334-3.48-2.857-1.237-7.018-1.237zm-19.637-38.904v-8.265h39.273v7.172l-24.718 17.086v.287h24.718v8.303h-39.273v-7.286l24.7-16.952v-.345h-24.7z" fill="#333" fill-rule="nonzero"></path><path stroke="#333" stroke-width="10" stroke-linecap="square" d="M1908 1286v161"></path><g transform="translate(2410.000000, 691.000000)" fill-rule="nonzero"><path d="M118.733.513c-2.137.126-4.227.68-6.146 1.629L29.364 41.86a15.771 15.771 0 0 0-8.588 10.699L.406 141.7a15.41 15.41 0 0 0 2.24 12.156c.283.433.582.852.895 1.255l57.499 71.531a15.893 15.893 0 0 0 12.41 5.858h92.222c4.824.007 9.394-2.242 12.426-5.925l57.469-71.546c3.017-3.736 4.144-8.667 2.987-13.344l-20.506-89.216a15.81 15.81 0 0 0-8.587-10.699L126.37 2.15a15.973 15.973 0 0 0-7.713-1.637h.075z" fill="#326CE5"></path><path d="M119.563 31.5a5.258 5.258 0 0 0-4.89 5.517v1.402c.134 1.588.373 3.161.687 4.72a46.31 46.31 0 0 1 .493 9.02 5.435 5.435 0 0 1-1.628 2.573l-.112 2.102a65.186 65.186 0 0 0-8.982 1.387 63.965 63.965 0 0 0-32.508 18.527l-1.792-1.267a3.868 3.868 0 0 1-2.949-.298 46.417 46.417 0 0 1-6.697-6.04 41.403 41.403 0 0 0-3.263-3.466l-1.105-.88a5.972 5.972 0 0 0-3.457-1.305 4.781 4.781 0 0 0-3.964 1.76 5.256 5.256 0 0 0 1.224 7.329l1.03.82a41.451 41.451 0 0 0 4.122 2.408 42.793 42.793 0 0 1 7.451 5.219c.592.843.936 1.835.993 2.863l1.628 1.491a64.185 64.185 0 0 0-10.14 44.779l-2.09.596a6.822 6.822 0 0 1-2.135 2.147 46.5 46.5 0 0 1-8.915 1.469 41.645 41.645 0 0 0-4.778.373l-1.322.298h-.15a5 5 0 0 0-4.045 3.332 4.99 4.99 0 0 0 1.156 5.108 5.007 5.007 0 0 0 5.107 1.23h.097l1.344-.15a39.637 39.637 0 0 0 4.465-1.624 46.668 46.668 0 0 1 8.676-2.535c1.03.06 2.016.41 2.852 1.006l2.24-.373a64.606 64.606 0 0 0 28.67 35.81l-.91 1.901c.417.872.574 1.842.447 2.803a48.118 48.118 0 0 1-4.502 8.142 41.599 41.599 0 0 0-2.673 3.974l-.634 1.342a4.99 4.99 0 0 0 .138 5.215 5.005 5.005 0 0 0 4.715 2.248 5.001 5.001 0 0 0 4.129-3.22l.62-1.268a41.15 41.15 0 0 0 1.433-4.548c1.321-3.258 2.038-6.755 3.845-8.917a4.034 4.034 0 0 1 2.135-1.044l1.12-2.035a64.444 64.444 0 0 0 45.888.111l.993 1.902a3.885 3.885 0 0 1 2.538 1.528 46.891 46.891 0 0 1 3.405 8.35 41.485 41.485 0 0 0 1.448 4.556l.62 1.267a5.005 5.005 0 0 0 8.862.977 4.99 4.99 0 0 0 .12-5.227l-.65-1.342a41.375 41.375 0 0 0-2.673-3.959c-1.717-2.475-3.195-5.114-4.48-7.88a3.872 3.872 0 0 1 .508-2.982 17.06 17.06 0 0 1-.828-2.006 64.691 64.691 0 0 0 28.543-35.936l2.12.373a3.965 3.965 0 0 1 2.785-1.03c2.964.567 5.869 1.492 8.676 2.536a37.716 37.716 0 0 0 4.465 1.714c.358.097.88.18 1.284.276h.097c1.797.58 3.768.1 5.096-1.242a4.99 4.99 0 0 0 1.183-5.102 5 5 0 0 0-4.061-3.326l-1.449-.343a41.645 41.645 0 0 0-4.778-.372 45.602 45.602 0 0 1-8.915-1.47 5.61 5.61 0 0 1-2.15-2.146l-2.016-.597a64.42 64.42 0 0 0-10.348-44.682l1.762-1.625a3.922 3.922 0 0 1 .926-2.818 46.895 46.895 0 0 1 7.391-5.19 41.6 41.6 0 0 0 4.122-2.407l1.09-.88a4.993 4.993 0 0 0-.993-8.962 5.007 5.007 0 0 0-5.197 1.2l-1.105.88a41.552 41.552 0 0 0-3.263 3.467 46.543 46.543 0 0 1-6.518 6.136c-.955.388-2 .502-3.016.328l-1.889 1.342a65.265 65.265 0 0 0-41.326-19.906c0-.746-.097-1.864-.112-2.215a3.914 3.914 0 0 1-1.627-2.475 46.344 46.344 0 0 1 .567-8.999 42.06 42.06 0 0 0 .687-4.72v-1.49a5.253 5.253 0 0 0-4.89-5.518l-.068-.037zm-6.226 38.516l-1.494 26.042h-.112c-.074 1.61-1.023 2.983-2.478 3.758-1.456.775-3.181.544-4.48-.402L83.382 84.279a51.24 51.24 0 0 1 24.661-13.413 52.907 52.907 0 0 1 5.279-.85h.015zm12.453 0a51.726 51.726 0 0 1 29.79 14.345l-21.189 15.038a4.387 4.387 0 1 1-7.123-3.37l-1.478-26.013zm-50.173 24.06l19.562 17.43v.112a4.382 4.382 0 0 1 1.388 4.28 4.39 4.39 0 0 1-3.113 3.243v.075l-25.102 7.21a51.087 51.087 0 0 1 7.273-32.358l-.008.007zm87.75 0a51.997 51.997 0 0 1 7.482 32.26l-25.139-7.232v-.097a4.34 4.34 0 0 1-3.113-3.243 4.41 4.41 0 0 1 1.389-4.28l19.412-17.35-.03-.059zm-47.813 18.787h8.004l4.89 6.204-1.777 7.753-7.19 3.452-7.205-3.452-1.694-7.753 4.972-6.204zm25.64 21.16a4.542 4.542 0 0 1 1.007 0l25.886 4.361c-3.734 10.736-11.103 19.907-20.72 26.043l-10.004-24.186a4.393 4.393 0 0 1 .315-4.037 4.406 4.406 0 0 1 3.485-2.07l.03-.111zm-43.477.111a4.4 4.4 0 0 1 3.614 1.999 4.353 4.353 0 0 1 .35 4.1v.097l-9.944 23.992a51.313 51.313 0 0 1-20.592-25.774l25.661-4.346c.284-.03.575-.03.866 0l.045-.068zm21.682 10.438a4.406 4.406 0 0 1 4.01 2.297h.097l12.647 22.792-5.054 1.49a51.544 51.544 0 0 1-28.058-1.446l12.692-22.792a4.406 4.406 0 0 1 3.733-2.199l-.067-.142z" stroke="#FFF" stroke-width=".5" fill="#FFF"></path></g></g></svg>