<svg viewBox="0 0 1200 800" xmlns="http://www.w3.org/2000/svg" xmlns:xlink="http://www.w3.org/1999/xlink"><defs><path d="M35.313 496.387C3.695 428.771-57.38 257.012 139.434 171.237c76.522-33.35 313.011-24.715 359.379-69.784C547.535 54.096 608.467-.815 692.34.22 1015.12 4.2 973.8 374.302 852.767 534.09c-38.779 51.181-95.856 109.8-404.547 106.137-202.973-2.408-336.9 18.706-412.907-143.839z" id="path-1"></path><path d="M70.846 1.92S81.51-.437 87.039.649c5.526 1.086 16.14 1.982 20.7 14.986 4.561 13.004 10.294 25.811 16.083 34.177 5.789 8.364 9.647 19.43 7.2 23.659-2.448 4.227-17.717 50.07-14.42 65.013 3.296 14.943 19.388 40.994 21.744 47.503 2.356 6.508 7.915 13.942-6.861 17.663-14.777 3.722-33.91-4.484-42.302-5.036-8.392-.55-35.461-2.542-46.445 1.24-10.984 3.78-27.412 2.692-32.357.966-4.946-1.726-10.284-3.611-10.284-3.611s6.303-3.453 9.645-11.222c3.34-7.769 9.699-42.376 14.423-51.67 4.725-9.296 13.802-31.84 16.984-46.054 3.183-14.215 5.008-53.869 13.458-66.208 8.45-12.34 13.859-18.05 16.239-20.133z" id="path-3"></path></defs><g transform="translate(117.000000, 39.560000)" fill="none" fill-rule="evenodd"><path d="M280.096.44c72.854 0 138.737 53.912 138.737 112.387 0 58.474-70.95 22.89-143.803 22.89s-120.197 35.584-120.197-22.89C154.833 54.352 207.244.44 280.096.44zM36.26 569.48C4.612 501.882-56.518 330.172 140.473 244.421c76.59-33.34 313.292-24.706 359.701-69.762C548.942 127.316 609.93 72.42 693.877 73.454c323.07 3.979 281.713 373.975 160.57 533.716-38.813 51.167-95.942 109.768-404.91 106.107-203.155-2.408-337.203 18.7-413.278-143.798z" fill="#D3EAF2"></path><g transform="translate(0.833333, 73.440000)"><mask id="mask-2" fill="#fff"><use xlink:href="#path-1"></use></mask><path d="M-448.415 662.349l-3.024-9.43s58.63-122.37 169.141-159.568c110.511-37.2 203.774-94.735 318.876-34.142 115.1 60.592 265.327 104.326 366.983 89.905 101.657-14.42 335.745-47.208 390.738-65.377 182.52-60.296 458.833-62.693 615.813 99.022 19.887 20.487-176.608-63-130.226-19.009-61.86 127.538-238.914 148.014-415.293 152.585-66.653 1.728-128.908.48-210.003.48-92.101 0-398.453-3.361-501.554-3.361-14.329 0-38.126 3.195-51.828 3.179-92.527-.114-174.23-.026-239.86-.664-94.9-.923-207.109-14.878-309.763-53.62z" fill="#9BCBE1" mask="url(#mask-2)"></path><path d="M1348.262 628.026l2.272-5.002s-44.028-64.918-127.01-84.653c-82.992-19.736-193.07-16.241-279.507 15.904-86.437 32.146-151.68 43.406-228.022 35.755-76.337-7.65-247.751-57.285-285.467-72.585-37.716-15.301-192.829-77.888-310.712 7.904-14.934 10.87-34.573 27.032-69.406 50.37 46.451 67.66 179.415 78.523 311.865 80.948 50.051.916 96.797.254 157.699.254 69.161 0 299.212-1.783 376.633-1.783 10.769 0 28.633 1.696 38.924 1.687 69.485-.06 130.837-.014 180.124-.353 71.26-.49 155.528-7.892 232.607-28.446z" fill="#BDDDEB" mask="url(#mask-2)"></path><path fill="#307A9F" mask="url(#mask-2)" d="M326.009 643.849h147.766v-61.771H326.009z"></path><path fill="#4CA9D8" mask="url(#mask-2)" d="M326.009 640.153h147.766v-54.38H326.009z"></path><path fill="#79B8D7" mask="url(#mask-2)" d="M326.009 640.153h46.137v-54.38h-46.137z"></path><path fill="#307A9F" mask="url(#mask-2)" d="M347.984 640.153h2.187v-54.38h-2.187zm29.711-3.721h3.402v-46.938h-3.402zm8.749 0h3.403v-46.938h-3.403zm8.75 0h3.402v-46.938h-3.402zm8.748 0h3.403v-46.938h-3.403zm8.75 0h3.402v-46.938h-3.402zm8.749 0h3.403v-46.938h-3.403zm8.75 0h3.402v-46.938h-3.402zm8.749 0h3.403v-46.938h-3.403zm8.75 0h3.402v-46.938h-3.402zm8.748 0h3.402v-46.938h-3.402zm8.749 0h3.403v-46.938h-3.403z"></path><path stroke="#FFF" stroke-width="2" stroke-linecap="round" stroke-linejoin="round" mask="url(#mask-2)" d="M334.388 641.605v-57.284m4.781 57.284v-57.284"></path><path fill="#FFF" mask="url(#mask-2)" d="M331.485 619.455h10.588v-3.522h-10.588z"></path><path stroke="#FFF" stroke-width="2" stroke-linecap="round" stroke-linejoin="round" mask="url(#mask-2)" d="M359.421 641.605v-57.284m4.78 57.284v-57.284"></path><path fill="#FFF" mask="url(#mask-2)" d="M356.517 619.455h10.589v-3.522h-10.589z"></path><path fill="#307A9F" mask="url(#mask-2)" d="M345.593 611.119h6.967v-3.344h-6.967z"></path><path fill-opacity="0.3" fill="#383569" mask="url(#mask-2)" d="M473.849 580.423H353.971l12.577 15.121h107.301z"></path><path fill="#307A9F" mask="url(#mask-2)" d="M303.714 518.202h170.051v-71.087H303.714z"></path><path fill="#4CA9D8" mask="url(#mask-2)" d="M303.714 513.949h170.051v-62.58H303.714z"></path><path fill="#79B8D7" mask="url(#mask-2)" d="M303.714 513.949h53.094v-62.58h-53.094z"></path><path fill="#307A9F" mask="url(#mask-2)" d="M363.194 509.668h3.916V455.65h-3.916zm10.069 0h3.916V455.65h-3.916zm10.069 0h3.916V455.65h-3.916zm10.068 0h3.916V455.65H393.4zm10.069 0h3.916V455.65h-3.916zm10.069 0h3.916V455.65h-3.916zm10.068 0h3.916V455.65h-3.916zm10.069 0h3.916V455.65h-3.916zm10.069 0h3.916V455.65h-3.916zm10.069 0h3.916V455.65h-3.916zm10.068 0h3.916V455.65h-3.916z"></path><path fill="#E72E18" mask="url(#mask-2)" d="M353.9 582.128h175.057v-63.976H353.9z"></path><path fill="#F75C56" mask="url(#mask-2)" d="M353.9 578.299h175.057v-56.32H353.9z"></path><path fill="#F8726B" mask="url(#mask-2)" d="M353.9 578.299h54.657v-56.32H353.9z"></path><path fill="#E72E18" mask="url(#mask-2)" d="M379.934 578.299h2.591v-56.32h-2.591zm35.198-5.823h4.031v-44.673h-4.031zm10.364 0h4.031v-44.673h-4.031zm10.366 0h4.031v-44.673h-4.031zm10.365 0h4.031v-44.673h-4.031zm10.366 0h4.03v-44.673h-4.03zm10.364 0h4.031v-44.673h-4.031zm10.366 0h4.031v-44.673h-4.031zm10.365 0h4.031v-44.673h-4.031zm10.365 0h4.031v-44.673h-4.031zm10.365 0h4.031v-44.673h-4.031zm10.366 0h4.031v-44.673h-4.031z"></path><path stroke="#FFF" stroke-width="2" stroke-linecap="round" stroke-linejoin="round" mask="url(#mask-2)" d="M363.827 579.803v-59.328m5.663 59.328v-59.328"></path><path fill="#FFF" mask="url(#mask-2)" d="M360.387 556.862h12.544v-3.648h-12.544z"></path><path stroke="#FFF" stroke-width="2" stroke-linecap="round" stroke-linejoin="round" mask="url(#mask-2)" d="M393.483 579.803v-59.328m5.662 59.328v-59.328"></path><path fill="#FFF" mask="url(#mask-2)" d="M390.043 556.862h12.544v-3.648h-12.544z"></path><path fill="#E72E18" mask="url(#mask-2)" d="M377.101 548.228h8.254v-3.463h-8.254z"></path><path fill-opacity="0.3" fill="#383569" mask="url(#mask-2)" d="M409.043 524.619h119.914v-6.468H409.043zm64.806-79.407H333.076l14.338 14.846h126.435z"></path><path fill-opacity="0.3" fill="#383569" mask="url(#mask-2)" d="M411.943 518.404h-57.68v36.113z"></path></g><path d="M146.833 516.44h140s-15.192-14.254-25.633-13.437c-10.163.796-14.624 9.863-22.563 6.74-7.94-3.121-6.322-27.218-22.135-26.276-8.941.532-7.387 15.383-15.557 15.976-6.96.505-6.974-6.967-15.807-9.759-8.832-2.792-29.524-2.863-38.305 26.756zm689-33h-237s25.718-24.62 43.394-23.208c17.205 1.374 24.756 17.035 38.197 11.642 13.44-5.393 10.702-47.015 37.47-45.388 15.14.922 12.506 26.573 26.34 27.596 11.78.872 11.8-12.034 26.755-16.857 14.953-4.822 49.984-4.944 64.844 46.215z" fill="#FFF"></path><path d="M475.833 283.311s6.747 5.915 10.357 5.04c3.193-.771 16.067-5.296 18.997-6.33.391-.138.81-.19 1.226-.15l10.411 1a.456.456 0 0 0 .217-.031l.004-.002c.485-.2.796-.664.788-1.175a1.258 1.258 0 0 0-.825-1.15l-10.35-3.89a2.864 2.864 0 0 0-1.326-.165c-3.323.37-17.604 1.966-17.604 1.966l-11.895 4.887z" fill="#FBA690"></path><path fill="#FBA690" d="M489.833 279.404l-75.382-5.964-5.618 18 72.25-2.333z"></path><path d="M760.833 295.44h322s-34.941-33.258-58.956-31.351c-23.38 1.855-33.634 23.012-51.899 15.727-18.264-7.286-14.539-63.513-50.913-61.313-20.558 1.244-16.988 35.896-35.782 37.278-16.002 1.177-16.034-16.257-36.353-22.77-20.31-6.516-67.902-6.68-88.097 62.429z" fill="#FFF"></path><path d="M454.949 314.838s49.995-11.731 58.655-12.328c8.661-.597 20.922 2.582 21.2 11.405.277 8.822-1.473 30.315-1.473 30.315l-34.302 10.21-52.196-19.12 8.116-20.482z" fill="#5B48A0"></path><path fill-opacity="0.4" fill="#FFF" d="M540.415 295.44l29.418-83.69-91.07-115.31-79.93 35.877 2.231 139.387z"></path><path d="M569.658 211.44l-29.825 83.65h.001c3.253 1.128 6.818-.559 7.962-3.767l25.682-72.03c1.144-3.209-.566-6.725-3.82-7.853z" fill="#5799C6"></path><path d="M513.625 415.318c-1.875-1.553-3.844-2.07-5.882-1.816-1.174.132-2.07 1.137-2.095 2.347-.157 7.133-.693 32.807-.814 38.614a1.896 1.896 0 0 0 .99 1.715h.001c.53.284 1.148.34 1.717.155a2.265 2.265 0 0 0 1.32-1.138c2.001-3.893 6.207-12.32 6.97-16.04 1.013-4.918 2.53-13.689 2.53-13.689s3.311-1.133 4.914-2.727c1.604-1.595 1.557-2.97 1.557-2.97-.181-1.381-5.157-.833-7.086.815-1.762 1.505-4.122-5.266-4.122-5.266z" fill="#6F2672"></path><path fill="#307A9F" d="M313.833 449.44h195v-81h-195z"></path><path fill="#4CA9D8" d="M313.833 444.44h195v-72h-195z"></path><path fill="#79B8D7" d="M313.833 444.44h61v-72h-61z"></path><path fill="#307A9F" d="M342.833 444.44h3v-72h-3zm39-5h4v-62h-4zm12 0h4v-62h-4zm11 0h4v-62h-4zm12 0h4v-62h-4zm12 0h4v-62h-4zm11 0h4v-62h-4zm12 0h4v-62h-4zm11 0h4v-62h-4zm12 0h4v-62h-4zm11 0h4v-62h-4zm12 0h4v-62h-4z"></path><path stroke="#FFF" stroke-width="2" stroke-linecap="round" stroke-linejoin="round" d="M325.333 446.44v-75m6 75v-75"></path><path fill="#FFF" d="M320.833 417.44h14v-5h-14z"></path><path stroke="#FFF" stroke-width="2" stroke-linecap="round" stroke-linejoin="round" d="M358.333 446.44v-75m6 75v-75"></path><path fill="#FFF" d="M353.833 417.44h14v-5h-14z"></path><path fill="#307A9F" d="M339.833 406.44h9v-4h-9z"></path><path d="M480.833 486.44s7.71-2.99 10.934-8.474c3.223-5.483 3.48-10.317 5.273-14.044 1.795-3.727 2.113-3.983 2.113-3.983l2.315-3.153 3.265-8.109 4.1-4.048V427.44l-17.066 21.237-7.827 15.245-3.107 22.518zm-108-118.077c1.96-4.288 77.264 10.71 84.286 15.432 7.68 5.166 20.373-.51 24.675 1.393 4.304 1.902 15.123 6.97 15.123 6.97s-.234 25.396-3.2 35.086c-2.965 9.69 7.881 8.099 7.881 8.099l32.235-55.735-13.089-23.433-54.698-1.735-85.02 13.421" fill-opacity="0.3" fill="#383569"></path><path fill="#E72E18" d="M333.833 519.44h214v-71h-214z"></path><path fill="#F75C56" d="M333.833 515.44h214v-63h-214z"></path><path fill="#F8726B" d="M333.833 515.44h67v-63h-67z"></path><path fill="#E72E18" d="M365.833 515.44h3v-63h-3zm43-4h5v-55h-5zm13 0h5v-55h-5zm13 0h5v-55h-5zm12 0h5v-55h-5zm13 0h5v-55h-5zm13 0h5v-55h-5zm12 0h5v-55h-5zm13 0h5v-55h-5zm13 0h5v-55h-5zm12 0h5v-55h-5zm13 0h5v-55h-5z"></path><path stroke="#FFF" stroke-width="2" stroke-linecap="round" stroke-linejoin="round" d="M346.333 517.44v-66m7 66v-66"></path><path fill="#FFF" d="M341.833 491.44h15v-4h-15z"></path><path stroke="#FFF" stroke-width="2" stroke-linecap="round" stroke-linejoin="round" d="M382.333 517.44v-66m7 66v-66"></path><path fill="#FFF" d="M378.833 491.44h15v-4h-15z"></path><path fill="#E72E18" d="M362.833 482.44h10v-4h-10z"></path><path d="M480.833 486.44s7.71-2.99 10.934-8.474c3.223-5.483 3.48-10.317 5.273-14.044 1.795-3.727 2.113-3.983 2.113-3.983l2.315-3.153 3.265-8.109 4.1-4.048V427.44l-17.066 21.237-7.827 15.245-3.107 22.518zm-89-38h-58v36z" fill-opacity="0.3" fill="#383569"></path><path d="M487.625 446.318c-1.875-1.554-3.845-2.07-5.882-1.817-1.175.134-2.07 1.138-2.096 2.348-.157 7.133-.692 32.808-.813 38.614a1.894 1.894 0 0 0 .99 1.715l.001.001a2.2 2.2 0 0 0 1.717.154 2.26 2.26 0 0 0 1.318-1.139c2.002-3.891 6.209-12.32 6.973-16.04 1.01-4.917 2.53-13.688 2.53-13.688s3.309-1.133 4.913-2.727c1.604-1.594 1.557-2.968 1.557-2.968-.181-1.384-5.158-.834-7.086.812-1.762 1.506-4.122-5.265-4.122-5.265z" fill="#6F2672"></path><path d="M481.833 444.44l-.806 42.966a1.935 1.935 0 0 1-1.342-.236c-.535-.312-.864-.935-.851-1.607.109-5.68.607-31.71.75-38.797.022-1.168.809-2.139 1.845-2.279.135-.02.27-.036.404-.047z" fill="#642067"></path><path d="M489.422 453.532a2.266 2.266 0 0 1-2.513.796c-1.184-.401-2.704-1.132-3.344-2.39-1.646-3.236 0-4.333 0-4.333s5.298-7.642 7.105-10.484c1.81-2.841 8.163 4.125 8.163 4.125l-9.411 12.286z" fill="#FFBFAE"></path><path fill="#FF8B84" d="M479.833 156.44l-7.28 18-5.72-8.489z"></path><path d="M437.77 167.769c-5.198 5.025-6.078 8.671-6.078 8.671l-28.859-2.01c13.84-12.768 16.888-24.805 21.143-36.922l14.661-15.373 34.691-2.695 13.505 31.155c-6.964 9.34-15.72 17.005-26.644 22.645-7.78 4.07-17.365 1.721-22.396-5.487l-.023.016z" fill="#FFBFAE"></path><path d="M416.959 156.44l1.874 11.24s-4.58 2.71-10.252 6.76l-4.748-.344c6.276-6.02 10.25-11.876 13.126-17.656z" fill="#FBA690"></path><path d="M445.833 312.44s99.54 22.847 106.37 31.153c6.83 8.307 2.228 19.583.595 23.659-1.633 4.075-50.602 73.154-52.452 74.87-1.851 1.715-10.493-4.065-10.493-4.065s8.078-16.614 8.839-23.997c.76-7.383 1.688-34.062 7.295-39.517 5.606-5.456 9.612-7.636 9.612-7.636-10.247 6.827-39.005 3.814-52.846 2.084l-16.92-56.551z" fill="#8067D8"></path><path d="M461.134 347.756l-4.3-14.316s18.977 10.184 26.495 13.75c7.519 3.566 12.66 3.32 19.15 7.905 6.492 4.584 12.098 7.188 12.098 7.188l7.256 3.15-1.906 11.02-9.976 12.983-4.25 9.93-.625 7.211s-2.705 13.219-7.966 17.877c-.388.343-.821.672-1.292.986 1.678-4.264 3.175-8.718 3.483-11.68.762-7.361 1.694-33.959 7.32-39.398 3.99-3.858 7.173-6.073 8.686-7.034.336-.184.656-.377.96-.579 0 0-.34.184-.96.579-11.017 6.051-38.592 3.174-52.071 1.5l-2.102-21.072z" fill="#785FD1"></path><path d="M404.455 173.004s10.647-2.367 16.164-1.277c5.517 1.09 16.112 1.989 20.664 15.04 4.553 13.052 10.275 25.906 16.054 34.303 5.778 8.395 9.63 19.501 7.187 23.745-2.443 4.243-17.686 50.253-14.394 65.251 3.29 14.998 19.354 41.145 21.705 47.678 2.352 6.532 7.901 13.993-6.849 17.727-14.75 3.736-33.85-4.5-42.226-5.054-8.377-.553-35.398-2.551-46.362 1.244-10.965 3.794-27.364 2.703-32.3.97-4.936-1.732-10.265-3.624-10.265-3.624s6.292-3.466 9.628-11.263c3.334-7.797 9.68-42.532 14.397-51.86 4.717-9.33 13.777-31.956 16.954-46.222 3.177-14.267 4.999-54.066 13.433-66.45 8.435-12.386 13.835-18.117 16.21-20.208z" fill="#FFF"></path><g transform="translate(332.833333, 171.440000)"><mask id="mask-4" fill="#fff"><use xlink:href="#path-3"></use></mask><path d="M123.34 104.57c-1.288 8.285-1.976 16.545-1.217 22.45-11.236-6.976-21.497-14.873-30.5-23.957a3.454 3.454 0 0 1-.82-1.334c-3.051-9.137-5.627-18.791-7.37-29.353l11.219-11.255 28.688 43.449z" fill="#EBFAFA" mask="url(#mask-4)"></path></g><path d="M454.757 139.937s-6.65-3.655-9.533-.024c-2.881 3.631-3.279 9.052-1.049 11.284 2.23 2.23 2.867 3.147.307 4.349-2.56 1.2-6.932.726-8.38 2.833-1.45 2.106-5.926 9.313-10.83 9.977-4.905.663-7.977-2.841-12.571-1.685-4.595 1.155-12.65.867-16.68-3.486-4.028-4.354-8.727-20.766-11.333-24.137-2.604-3.371-6.427-11.319-4.401-14.726 2.027-3.408.742-1.932-2.285-1.834-3.027.098-5.902 6.842-10.077 6.523-4.176-.32-10.237-1.263-10.506-6.369-.267-5.105-1.721-7.532-4.255-8.223-2.534-.693-13.812-3.293-14.29-9.316-.477-6.022 3.143-15.188 14.295-14.12 11.154 1.066 8.335-3.05 13.604-5.367 5.27-2.316 18.887-6.441 22.558 1.389 3.67 7.831 3.309 11.114 6.831 10.23 3.524-.885 12.863-7.93 21.65-7.573 8.787.356 17.355-5.113 23.583-3.612 6.229 1.501 11.668 5.768 14.312 6.946 2.643 1.177 8.834.114 12.25 3.25 3.417 3.136 8.226 12.739 12.005 14.313 3.78 1.573 25.204 13.308 26.187 23.268.983 9.96 1.807 16.905-4.296 19.104-6.102 2.2-15.962 2.499-18.768-2.733-2.807-5.23-4.817-12.154-9.37-14.116-4.553-1.962-10.013-.053-11.809 1.597-1.797 1.652-4.16 1.624-7.149 2.258z" fill="#413E78"></path><path d="M421.058 177.44s10.03 3.034 16.45 7.251c7.108 4.67 12.023 58.187 15.58 70.587 11.334 7.76 51.385 44.34 53.745 43.642l-10.377 6.485c-.525 1.212-63.53-29.602-65.336-37.496-1.542-6.732-5.558-18.152-6.26-24.061-.702-5.91-.682-5.901-.682-5.901s-5.965 7.273-10.396 6.724c-4.432-.549-10.346-4.6-8.652-15.41 1.693-10.809 2.883-17.16 2.983-21.782.1-4.621.497-28.336 12.945-30.039z" fill="#FFBFAE"></path><path d="M423.833 238.118s-3.676 4.747-7.314 6.322a15.99 15.99 0 0 1-.345-1.667c-1.752-11.08 3.829-44.333 3.829-44.333l3.83 39.678z" fill="#FBA690"></path><path fill="#6C54C2" d="M526.833 358.487l-.024.057-.014.036-.043.097-.042.096-.045.097-.046.097-.047.097-.047.097-.05.098-.05.097-.039.074-.013.025-.054.097-.054.097-.056.098-.057.097-.059.098-.059.098-.06.098-.062.098-.062.098-.063.098-.065.099-.065.099-.133.197-.138.197-.143.197-.145.198-.072.094-.079.102-.156.195-.159.196-.163.195-.166.195-.17.195-.06.068-.114.125-.18.192-.182.191-.185.19-.188.191-.192.19-.004.004-.193.18-.201.184-.202.183-.207.182-.208.182-.034.029-.181.147-.217.174-.095.075-.128.095-.226.167-.101.072-.131.088-.237.154-.239.153-.241.152-.066.04-.182.104-.249.139-.252.139-.252.135-.047.025-.211.104-.26.125-.26.124-.261.12-.023.011-.242.104-.267.111-.266.109-.239.095-.029.01-.27.1-.271.096-.27.093-.272.091-.27.088-.27.086-.213.066-.058.016-.273.076-.271.073-.27.069-.27.068-.236.056-.034.008.027-.02.193-.145.217-.167.216-.169.215-.172.214-.173.045-.037.17-.135.215-.173.213-.175.212-.176.21-.179.208-.18.207-.182.023-.021.187-.158.208-.179.206-.181.186-.166.019-.016.205-.178.205-.18.203-.181.164-.149.039-.031.203-.177.202-.178.199-.179.145-.131.055-.047.202-.172.2-.174.198-.174.109-.097.089-.074.201-.168.112-.095.087-.071.2-.164.166-.137.032-.026.2-.16.197-.161.195-.162.191-.162.185-.16.004-.003.19-.16.187-.16.185-.161.181-.161.178-.16.114-.106.063-.055.173-.16.172-.159.167-.16.163-.161.161-.16.081-.083.077-.076.155-.157.152-.158.148-.158.144-.16.07-.077.068-.079.069-.079.067-.078.066-.079.065-.077.064-.078.063-.079.061-.078.062-.078.059-.077.058-.078.015-.019.043-.058.058-.077.056-.076.055-.077.053-.075.053-.076.051-.076.05-.076.048-.075.02-.03.03-.049 1.074-.349z"></path><path d="M430.958 176.367c-.69-6.942 1.494-13.234 6.328-18.927-.785 3.454-.827 6.812.547 9.987l-.152.292c-4.898 5.059-5.73 8.721-5.73 8.721l-.993-.073z" fill="#FBA690"></path><path fill="#FFF" d="M395.833 98.892l-.096.101-.239.253-.331.352-.33.354-.325.353-.177.195-.146.159-.32.355-.317.355-.314.357-.311.356-.307.358-.243.285-.061.073-.303.36-.148.178-.149.18-.147.18-.146.18-.146.181-.145.179-.144.181-.143.181-.142.181-.141.182-.141.18-.042.056-.097.126-.139.182-.137.182-.137.182-.135.183-.135.181-.119.163-.015.02-.132.183-.132.183-.131.184-.13.183-.128.184-.112.16-.016.022-.131.182-.13.182-.129.182-.127.182-.127.182-.126.182-.124.183-.124.183-.122.184-.034.051-.088.132-.122.183-.119.184-.119.183-.118.184-.117.185-.115.185-.115.185-.114.185-.112.186-.111.186-.11.186-.008.013-.101.173-.108.187-.107.186-.106.188-.105.187-.104.187-.103.188-.101.188-.099.189-.099.19-.098.189-.096.19-.096.19-.093.19-.093.19-.091.191-.09.192-.089.191-.088.192-.086.193-.085.192-.083.193-.082.195-.081.193-.08.195-.079.194-.05.126-.027.069-.076.195-.075.196-.073.196-.073.196-.071.197-.069.197-.068.198-.066.198-.066.198-.063.199-.063.2-.061.199-.06.2-.057.201-.057.201-.055.201-.054.203-.052.202-.051.202-.05.204-.048.203-.045.205-.045.204-.044.206-.041.205-.041.206-.038.207-.038.206-.035.208-.034.209-.032.207-.017.108-.015.104-.588.466-.468-.586.009-.105.009-.11.02-.219.02-.218.024-.218.024-.216.027-.217.028-.217.029-.217.033-.215.032-.216.035-.216.035-.215.039-.214.039-.215.041-.215.042-.213.044-.214.046-.213.047-.212.048-.213.051-.213.051-.211.054-.212.054-.211.057-.212.057-.211.059-.21.062-.21.061-.209.064-.21.065-.209.066-.209.024-.074.045-.134.069-.209.072-.208.073-.207.074-.208.075-.206.077-.208.078-.205.08-.206.081-.206.082-.205.084-.206.084-.204.087-.205.088-.204.088-.205.09-.203.092-.203.093-.203.094-.203.095-.202.097-.203.098-.201.098-.201.101-.202.102-.201.095-.187.007-.015.104-.199.106-.2.107-.199.108-.2.109-.199.11-.198.113-.199.112-.198.114-.198.115-.197.116-.198.085-.142.032-.055.119-.196.121-.196.121-.195.122-.197.123-.195.125-.194.126-.195.126-.194.128-.194.016-.025.116-.166.134-.192.134-.19.136-.19.137-.19.137-.19.138-.189.141-.189.14-.189.141-.188.142-.188.144-.188.144-.188.144-.187.147-.187.146-.187.148-.186.148-.186.15-.186.149-.186.152-.185.152-.186.152-.185.154-.185.31-.368.312-.368.316-.367.319-.366.322-.365.324-.364.328-.363.33-.363.332-.361.337-.361.339-.36.338-.358 1.469-.045z"></path><path d="M495.484 456.44l.094.002.095.002.094.005.093.005.094.006.092.008.093.01.092.01.093.012.093.012.092.015.093.016.092.017.092.018.094.02.093.022.094.022.094.024.094.025.096.026.095.03.097.028.022.007.075.025.1.033.068.024.069.027.069.027.068.03.067.03.067.033.066.033.065.035.065.035.063.037.063.04.063.039.06.04.061.043.06.042.06.045.058.044.058.047.056.048.057.048.055.05.054.05.054.05.053.053.052.053.05.054.051.055.05.056.049.057.049.057.046.058.047.06.046.059.044.06.011.016.033.045.043.063.041.062.04.064.041.064.04.065.039.066.037.066.037.067.036.067.035.066.034.07.034.068.032.069.033.07.031.07.03.07.03.071.029.071.027.073.027.072.026.072.025.073.025.073.023.074.023.074.022.074.02.074.021.076.02.075.018.075.018.076.016.076.017.076.003.018.01.059.014.076.012.077.011.076.012.078.009.078.009.076.007.078.007.077.006.078.005.077.004.078.003.079.003.077.001.078v.155l-.002.069v.009l-.003.078-.004.078-.005.076-.007.078-.007.077-.008.078-.01.077-.01.076-.01.078-.013.076-.013.077-.015.075-.016.077-.016.075-.018.076-.018.074-.02.075-.022.075-.022.074-.024.074-.005.016-.019.057-.026.072-.028.074-.028.07-.03.073-.031.07-.033.071-.033.07-.035.07-.036.069-.037.068-.038.067-.04.067-.042.067-.041.064-.044.065-.045.064-.046.064-.047.061-.049.062-.05.06-.052.061-.065.073-.067.07-.07.068-.07.066-.07.063-.072.06-.075.06-.074.057-.076.054-.077.051-.077.05-.078.048-.08.044-.079.044-.081.041-.08.039-.082.037-.082.035-.083.033-.082.03-.075.027-.008.003-.085.027-.083.026-.084.023-.084.022-.085.02-.084.019-.085.017-.085.014-.085.014-.084.013-.085.01-.085.01-.084.009-.085.006-.084.005-.085.005-.084.003-.083.002-.085.001-.083-.001-.083-.001-.082-.003-.084-.004-.082-.005-.082-.005-.081-.007-.081-.007-.082-.008-.08-.01-.08-.01-.081-.012-.156-.025-.154-.027-.153-.031-.15-.033-.148-.036-.042-.012-.101-.027-.157-.045-.156-.048-.152-.049-.08-.027-.075-.026-.077-.028-.077-.028-.076-.031-.076-.031-.076-.032-.076-.033-.075-.035-.075-.035-.076-.037-.075-.04-.074-.04-.074-.041-.074-.044-.073-.046-.073-.046-.073-.048-.072-.051-.072-.052-.07-.055-.07-.056-.07-.057-.07-.06-.069-.063-.069-.064-.095-.095-.095-.098-.091-.099-.088-.1-.057-.069-.029-.035-.083-.104-.081-.105-.078-.107-.078-.108-.074-.11-.073-.109-.07-.11-.07-.112-.068-.111-.066-.113-.065-.113-.064-.113-.063-.114-.062-.114-.06-.114-.118-.226-.117-.227-.228-.449-.111-.221-.113-.218-.113-.215-.057-.104-.056-.104-.058-.102-.058-.1-.058-.1-.059-.099-.06-.096-.06-.095-.062-.093-.062-.092-.063-.089-.062-.087-.014-.017-.051-.068-.065-.083-.067-.082-.068-.079-.068-.076-.072-.075-.072-.073-.035-.034-.037-.035-.036-.034-.006-.004-.192.091-.206.102-.206.104-.206.107-.036.019-.05.024-.134.064-.078.04-.082.04-.087.046-.086.048-.085.05-.042.024-.04.025-.038.026-.037.025-.034.025-.033.025-.029.026.001-.001-.027.025-.024.025v-.002l-.02.025-.016.023-.001.001-.006.011v-.001l-.005.012-.006.011-.003.01-.003.012v.01-.022l.002-.012.003-.012.006-.012.005-.013.014-.027.017-.026.02-.029.025-.029.027-.03.03-.03.031-.031.035-.03.035-.032.037-.03.038-.032.08-.062.08-.06.082-.058.078-.054.073-.049.124-.083.046-.03.032-.023.19-.134.193-.133.193-.13.08-.054-.031-.022-.041-.029-.04-.028-.042-.028-.042-.028-.042-.026-.044-.027-.044-.024-.044-.026-.045-.023-.042-.022-.004-.002-.046-.023-.051-.024-.283-.711.68-.294.062.025.063.026.006.003.056.026.062.029.061.03.061.03.06.032.06.033.057.033.058.035.057.035.057.036.054.036.055.039.054.038.054.04.053.039.051.04.052.041.05.042.025.021.1-.058.202-.116.203-.115.203-.113.205-.111.205-.11.205-.11.207-.107.224-.116.222-.112.221-.108.111-.053.11-.053.111-.05.112-.05.11-.05.112-.047.113-.047.113-.046.113-.043.113-.043.115-.041.007-.002.109-.038.116-.037.117-.036.119-.034.119-.032.12-.03.122-.03.123-.027.124-.025.125-.024.127-.021.128-.02.13-.017.13-.015.133-.013.102-.008.1-.009.1-.006.099-.005.05-.002.048-.002.097-.002.096-.001h.096zm-.98 1.134l-.113.003-.112.004-.113.007-.11.008-.111.011-.11.012-.11.013-.108.016-.11.017-.107.02-.108.02-.108.022-.1.022-.008.001-.107.025-.109.025-.107.028-.11.028-.108.03-.11.031-.108.033-.11.034-.11.035-.111.036-.11.037-.226.078-.229.081-.23.085-.214.08-.214.082-.214.083-.212.083-.211.085-.211.088-.15.062.01.011.09.095.087.095.086.1.066.078.017.02.081.1.08.104.076.103.076.105.074.107.073.106.07.107.07.109.07.11.068.109.066.109.066.11.129.22.126.222.125.22.244.436.122.214.122.212.061.103.062.102.06.1.063.1.063.098.063.097.063.096.064.093.065.092.065.089.066.087.066.086.067.083.068.082.069.079.023.025.047.051.07.074.07.073.073.07.074.068.048.041.048.04.05.04.048.037.05.036.048.035.05.034.05.032.052.032.05.03.052.029.052.028.053.027.054.027.053.025.055.026.056.023.057.023.058.024.058.02.059.023.06.02.061.02.062.02.063.021.063.018.133.037.136.036.138.034.084.02.035.01.121.025.122.023.124.021.126.02.129.016.061.007.064.006.065.007.064.004.065.004.064.004.065.002.065.003h.193l.064-.002.064-.002.063-.003.064-.004.063-.005.063-.006.062-.007.062-.008.06-.008.062-.01.06-.01.06-.012.06-.012.057-.013.058-.015.057-.015.057-.016.056-.017.053-.02.055-.018.005-.003.048-.017.053-.02.052-.022.05-.022.05-.024.049-.024.048-.026.047-.026.046-.027.046-.029.044-.028.043-.031.043-.03.041-.034.04-.033.042-.035.038-.035.038-.037.037-.037.037-.04.036-.041.029-.034.028-.036.029-.036.027-.038.026-.037.027-.038.025-.04.025-.039.024-.04.023-.04.023-.042.022-.042.022-.043.02-.042.02-.045.02-.044.02-.045.018-.046.018-.046.016-.047.017-.046.013-.039.003-.01.015-.048.015-.048.014-.05.014-.049.013-.05.012-.05.011-.052.01-.052.01-.052.01-.052.009-.053.008-.053.007-.053.007-.055.006-.054.005-.055.004-.054.004-.055.003-.056.004-.056v-.005l.002-.05.002-.057v-.17l-.001-.056-.002-.057-.002-.057-.005-.057-.004-.058-.004-.057-.006-.057-.005-.058-.007-.057-.007-.058-.008-.057-.01-.057-.006-.044-.002-.014-.01-.057-.01-.057-.01-.058-.012-.057-.011-.057-.013-.057-.014-.056-.014-.057-.014-.056-.015-.056-.017-.056-.016-.055-.017-.055-.017-.055-.019-.055-.019-.054-.02-.054-.02-.053-.02-.053-.021-.053-.022-.052-.023-.053-.023-.05-.023-.052-.025-.05-.025-.05-.025-.05-.026-.048-.026-.05-.028-.047-.027-.047-.028-.047-.028-.046-.021-.033-.009-.013-.028-.045-.03-.044-.029-.044-.03-.043-.03-.043-.032-.043-.033-.041-.031-.04-.034-.04-.032-.039-.034-.038-.034-.039-.035-.036-.034-.036-.036-.036-.035-.034-.036-.034-.036-.033-.038-.032-.038-.03-.037-.031-.038-.03-.038-.029-.04-.027-.038-.028-.04-.027-.04-.025-.041-.025-.04-.023-.042-.022-.042-.023-.042-.02-.042-.021-.045-.02-.083-.034-.063-.026-.02-.008-.08-.033-.082-.032-.08-.03-.077-.03-.079-.027-.076-.026-.077-.025-.075-.024-.076-.023-.075-.021-.074-.02-.076-.02-.075-.018-.075-.017-.075-.015-.076-.015-.076-.013-.077-.013-.079-.012-.078-.01-.079-.011-.08-.009-.082-.007-.083-.007-.084-.007-.043-.002-.043-.003-.086-.004-.09-.005-.09-.003-.092-.002-.116-.001h-.115z" fill="#6F2672"></path><path d="M487.576 459.516l.003.007.035.084.036.082.037.083.075.164.078.162.08.161.083.16.084.16.086.158.086.159.089.157.176.315.18.317.088.158.088.159.086.16.04.074.329-.058.226-.038.227-.038.227-.037.228-.036.228-.034.228-.034.23-.032.23-.03.23-.028.23-.026.231-.024.231-.02.232-.02.232-.014.23-.013.239-.013.247-.01.129-.005.13-.003.13-.002h.281l.123.001.136.004.138.006.138.007.139.01.14.01.14.015.14.017.139.019.14.022.14.026.136.028.072.016.07.016.069.018.068.018.069.02.068.02.07.021.066.023.068.024.068.025.067.027.067.027.066.029.066.03.066.031.065.033.065.034.066.038.062.037.063.041.06.044.06.045.057.046.054.048.054.049.05.05.049.051.047.052.045.053.044.055.042.054.04.055.04.057.037.056.038.056.035.059.033.057.033.059.032.058.01.018.02.04.03.06.028.062.053.116.05.12.048.121.044.12.042.122.039.118.036.12.035.118.032.117.031.115.03.114.028.113.05.211.045.202.042.186.04.17.039.168.038.173.036.174.034.175.032.176.029.176.027.178.024.177.004.032.016.145.017.18.013.177.006.092.005.09.004.09.002.09.002.091.001.09v.181l-.003.091-.004.091-.004.09-.006.093-.006.09-.008.091-.01.092-.009.09-.011.093-.013.092-.014.09-.015.092-.017.09-.018.093-.02.09-.02.092-.022.092-.023.091-.025.09-.026.093-.028.09-.03.091-.03.091-.033.09-.034.09-.036.091-.037.09-.031.071-.008.019-.041.09-.043.088-.043.089-.047.089-.047.088-.049.087-.045.077-.044.076-.046.074-.047.075-.047.074-.048.072-.048.07-.049.072-.049.07-.05.068-.05.068-.053.067-.052.067-.005.007-.047.057-.055.064-.054.064-.054.061-.055.062-.057.06-.056.06-.058.058-.057.058-.059.056-.058.055-.06.056-.06.053-.06.052-.061.052-.062.05-.062.05-.061.048-.064.049-.054.04-.009.005-.065.045-.065.044-.065.043-.066.042-.066.04-.066.04-.067.038-.068.037-.067.037-.07.034-.067.035-.07.032-.069.031-.07.03-.07.03-.07.028-.07.026-.072.026-.072.024-.072.023-.071.022-.073.02-.072.02-.074.017-.073.017-.072.016-.075.013-.073.013-.074.011-.074.01-.075.009-.074.008-.075.006-.074.005-.075.003-.075.002h-.074l-.076-.001-.074-.002-.075-.004-.075-.004-.075-.008-.07-.007h-.004l-.075-.01-.074-.012-.075-.013-.074-.014-.075-.016-.073-.018-.074-.017-.073-.021-.074-.021-.072-.023-.073-.024-.072-.026-.072-.027-.072-.028-.071-.03-.07-.032-.072-.033-.07-.034-.07-.035-.068-.038-.07-.038-.068-.04-.068-.04-.067-.044-.067-.043-.067-.045-.066-.046-.065-.048-.065-.05-.065-.05-.064-.051-.063-.054-.062-.055-.063-.055-.062-.058-.06-.058-.061-.06-.06-.061-.06-.062-.06-.063-.058-.066-.008-.01-.048-.056-.058-.068-.055-.07-.055-.07-.056-.072-.054-.073-.053-.075-.052-.075-.054-.077-.05-.078-.052-.08-.034-.055-.034-.056-.033-.056-.03-.056-.032-.056-.03-.057-.028-.057-.029-.059-.052-.112-.05-.115-.045-.116-.043-.116-.038-.117-.036-.116-.032-.117-.03-.117-.026-.118-.025-.118-.021-.117-.02-.118-.015-.118v-.002l-.014-.116-.01-.118-.01-.118-.008-.117-.005-.118-.003-.117-.002-.118v-.234l.003-.117.004-.117.005-.117.006-.116.007-.116.008-.117.018-.23.02-.23.022-.229.025-.227.008-.087.042-.363.024-.223.024-.22.02-.22.019-.217.009-.106.006-.107.006-.106.006-.106.003-.104.003-.104.001-.104v-.102l-.001-.101-.002-.101-.005-.1-.006-.1-.006-.087-.009-.087-.01-.087-.01-.086-.012-.086-.013-.085-.014-.086-.016-.085-.017-.086-.018-.085-.02-.084-.02-.085-.021-.084-.022-.085-.023-.084-.024-.084-.003-.011-.88.122-.2.027-.254.033-.228.03-.23.028-.228.027-.229.026-.229.024-.23.023-.23.022-.23.019-.23.017-.073.005-.156.01-.594-.485.499-.58.15-.016.071-.007.22-.026.219-.028.219-.03.22-.031.222-.034.22-.034.222-.036.222-.037.222-.039.249-.043.198-.034.654-.116-.063-.158-.069-.166-.069-.167-.14-.333-.14-.333-.07-.168-.068-.168-.067-.168-.066-.17-.064-.168-.062-.171-.058-.17-.057-.173-.026-.086-.027-.087-.026-.086-.002-.008-.022-.079.032.076zm5.478 3.592l-.227.003-.219.005-.217.007-.216.01-.216.01-.218.015-.219.016-.218.019-.22.02-.22.022-.22.024-.223.025-.222.028-.223.027-.224.029-.2.026.004.008.034.086.033.088.032.086.031.089.03.089.029.088.027.09.027.09.025.092.025.091.023.093.022.094.02.094.019.095.017.096.018.109.017.11.014.109.014.11.01.111.011.112.009.111.007.113.006.113.006.112.004.113.003.114.006.226v.683l-.004.366v.087l-.004.225-.001.225v.22l.002.222.003.109.004.108.004.108.005.107.005.106.008.106.008.104.011.104.01.103.013.101.013.101.016.1.017.099.018.097.02.096.02.096.024.094.025.092.025.091.029.091.03.089.032.087.034.086.036.086.037.083.04.082.043.08.046.082.022.038.025.04.023.038.026.039.026.038.026.038.027.037.027.038.047.062.048.061.047.06.048.057.048.056.048.056.048.054.048.052.047.051.05.05.04.041.007.007.048.047.048.046.048.045.049.043.048.042.048.04.048.04.049.039.048.036.048.036.049.034.047.033.048.032.048.031.048.03.048.027.048.029.048.026.048.024.048.024.047.023.047.022.047.02.048.02.047.018.047.018.048.015.047.016.047.015.045.013.047.013.047.011.046.01.047.01.045.008.047.009.046.006.046.006.046.005.045.005.046.003h.003l.043.003.046.002.045.001h.091l.046-.001.046-.002.044-.003.046-.004.046-.005.044-.006.046-.006.046-.007.045-.008.046-.01.044-.009.046-.01.046-.011.045-.013.045-.014.045-.013.046-.015.045-.015.045-.017.045-.018.046-.018.045-.02.044-.02.046-.02.045-.022.044-.022.045-.024.045-.024.045-.025.044-.026.045-.027.045-.028.043-.028.045-.03.044-.03.043-.031.045-.033.044-.033.005-.004.038-.03.044-.034.044-.035.043-.036.043-.036.044-.039.042-.039.043-.04.042-.039.043-.042.041-.041.042-.044.042-.044.041-.045.04-.046.042-.046.04-.048.04-.048.04-.049.034-.044.006-.006.04-.05.037-.051.04-.053.038-.052.038-.055.038-.055.037-.055.037-.057.036-.057.037-.059.036-.059.035-.06.034-.059.037-.067.035-.064.033-.066.033-.066.031-.066.03-.065.007-.014.023-.052.028-.066.026-.067.027-.067.024-.065.024-.067.022-.068.021-.067.02-.068.02-.067.019-.068.017-.068.016-.069.016-.069.014-.069.014-.068.011-.07.012-.07.01-.07.01-.07.009-.071.007-.071.008-.071.005-.071.005-.072.005-.072.003-.072.003-.073.001-.073.001-.073v-.147l-.002-.074-.002-.074-.003-.075-.004-.073-.01-.15-.012-.152-.013-.124-.003-.029-.017-.152-.02-.154-.021-.155-.025-.154-.027-.157-.028-.156-.031-.158-.033-.162-.037-.174-.038-.189-.04-.194-.043-.2-.021-.1-.023-.1-.025-.1-.025-.1-.027-.1-.028-.097-.029-.096-.03-.094-.031-.093-.032-.089-.034-.086-.036-.086-.017-.037-.019-.04-.012-.025-.006-.013-.018-.036-.019-.036-.018-.034-.02-.034-.018-.032-.02-.03-.019-.03-.018-.028-.019-.026-.02-.025-.018-.024-.018-.022-.018-.02-.019-.02-.018-.018-.018-.016-.017-.015-.016-.014-.017-.013-.016-.012-.019-.012-.032-.02-.035-.02-.036-.02-.037-.02-.04-.019-.04-.018-.04-.018-.041-.018-.043-.018-.043-.016-.045-.017-.046-.016-.047-.015-.047-.015-.048-.015-.049-.014-.05-.014-.047-.012-.106-.024-.106-.023-.108-.021-.11-.019-.113-.017-.114-.014-.115-.013-.117-.011-.119-.01-.118-.009-.12-.006-.108-.005-.01-.001-.12-.005-.119-.004-.119-.002h-.118l-.117-.002-.235.001zm32.523-28.434l-.027.017-.071.044-.072.045-.072.043-.074.042-.075.042-.074.042-.077.039-.076.04-.07.035-.007.003-.078.037-.08.036-.08.034-.08.034-.082.032-.082.031-.073.025-.073.024-.071.022-.073.019-.071.018-.072.015-.071.014-.071.01-.071.009-.071.007-.069.005-.071.002h-.069l-.07-.002-.068-.004-.069-.008-.067-.008-.068-.011-.065-.014-.067-.015-.064-.018-.065-.02-.063-.022-.062-.024-.061-.025-.06-.028-.059-.029-.012-.007-.046-.025-.056-.034-.054-.034-.055-.036-.052-.039-.052-.038-.049-.041-.049-.042-.048-.042-.046-.044-.044-.044-.045-.046-.043-.045-.041-.048-.042-.048-.039-.048-.038-.049-.039-.05-.036-.051-.036-.051-.035-.051-.035-.052-.035-.054-.038-.064-.025-.04-.061-.11-.058-.109-.057-.111-.054-.112-.052-.113-.051-.114-.049-.114-.048-.115-.046-.114-.044-.116-.004-.011-.039-.104-.041-.117-.079-.23-.153-.45-.051-.152-.021-.066-.071-.214-.034-.101-.023-.067-.01-.034-.033-.098-.034-.095-.032-.093-.022-.058-.011-.032-.03-.087-.031-.083-.031-.079-.031-.076-.032-.071-.034-.07-.014-.029-.016-.03-.016-.029-.015-.028-.004-.007-.011-.022-.014-.026-.015-.025-.012-.023-.028-.041-.028-.041-.029-.038-.031-.04-.034-.038-.035-.038-.037-.038-.039-.037-.043-.036-.02-.018-.022-.02-.045-.037-.047-.037-.048-.036-.052-.035-.052-.035-.054-.034-.057-.033-.058-.034-.06-.032-.061-.031-.041-.02-.023-.012-.063-.031-.066-.03-.067-.03-.068-.028-.069-.028-.072-.028-.071-.026-.073-.027-.073-.024-.068-.022-.007-.003-.075-.025-.076-.024-.077-.024-.077-.024-.078-.022-.158-.043-.158-.04-.159-.038-.159-.035-.161-.034-.158-.032-.078-.014-.079-.016-.156-.031-.153-.029-.15-.029-.292-.052-.247-.044-.027-.005.027-.005.247-.046.292-.053.151-.027.155-.027.159-.026.081-.012.08-.012.166-.021.166-.019.169-.018.171-.016.173-.013.173-.011.088-.003.087-.003.089-.002.088-.001h.097l.079.003.089.004.087.005.089.007.088.007.088.009.088.011.088.011.088.014.088.015.03.006.057.012.087.02.087.022.086.024.086.026.086.027.085.03.085.032.085.035.083.037.083.04.043.022.038.02.081.047.08.049.078.052.078.055.075.059.075.06.074.065.07.067.069.069.042.046.04.046.038.045.03.035.009.012.035.048.035.048.035.05.035.052.062.098.062.102.059.104.057.106.055.106.052.109.019.036.031.074.047.11.044.113.045.112.014.038.027.076.04.115.077.227.023.069.049.159.137.452.068.221.034.106.031.096.004.01.032.104.033.102.033.1.035.098.035.096.034.091.036.089.037.086.036.082.037.079.015.03.023.048.018.033.019.035.018.035.019.032.019.032.019.031.018.03.02.029.019.028.019.026.019.026.019.024.019.023.019.023.019.021.019.019.019.02.019.018.019.017.018.017.019.016.02.014.015.011.004.003.019.013.02.014.019.012.021.012.02.01.022.011.022.01.023.009.023.009.024.008.027.007.026.007.028.006.028.005.031.004.032.003.033.002.035.003h.035l.039-.001.039-.003.041-.003.043-.005.044-.005.046-.008.048-.009.05-.011.067-.016.066-.018.067-.018.066-.02.068-.021.066-.022.006-.002.062-.021.066-.023.068-.025.067-.024.067-.028.067-.027.067-.028.067-.029.067-.03.027-.013.041-.018.701.216-.214.723z" fill="#6F2672"></path><path d="M299.833 393.44h-264s28.649-27.21 48.337-25.651c19.166 1.518 27.576 18.829 42.548 12.868 14.972-5.961 11.92-51.965 41.74-50.166 16.86 1.018 13.93 29.37 29.335 30.5 13.125.965 13.152-13.3 29.808-18.63 16.656-5.33 55.674-5.465 72.232 51.079z" fill="#FFF"></path><path d="M251.833 92.44h-167s18.123-17.277 30.576-16.287c12.124.964 17.445 11.955 26.915 8.17 9.472-3.784 7.541-32.993 26.404-31.85 10.666.645 8.813 18.647 18.558 19.365 8.302.612 8.318-8.445 18.855-11.829 10.537-3.384 35.218-3.47 45.692 32.431z" fill="#BDDDEB"></path><path d="M450.833 313.363l89.87-17.923v.002a6.266 6.266 0 0 1-.922 4.742 6.327 6.327 0 0 1-4.03 2.694l-77.404 15.437c-3.448.687-6.806-1.526-7.514-4.951v-.001z" fill="#5799C6"></path><path d="M518.862 303.21c-.152-.835.323-1.648 1.06-1.818 2.105-.49 6.168-1.432 8.273-1.92.737-.172 1.458.365 1.61 1.197v.002c.152.833-.323 1.646-1.061 1.818l-8.272 1.92c-.738.17-1.458-.366-1.61-1.199z" fill="#36749E"></path><path d="M502.862 306.21c-.152-.835.323-1.648 1.06-1.82l8.273-1.918c.737-.172 1.458.365 1.61 1.197v.002c.152.833-.323 1.646-1.06 1.818l-8.273 1.92c-.738.17-1.458-.366-1.61-1.199z" fill="#5799C6"></path><path d="M492.833 303.56c.388 2.84 2.5 6.187 5.099 8.288a2.89 2.89 0 0 0 1.955.585c3.14-.194 12.619-.853 17.094-1.164 1.386-.095 2.507-1.152 2.665-2.513.364-3.308.718-6.605 2.187-10.804l-6.251-3.512-13.952 1.519-8.797 7.601z" fill="#FFBFAE"></path><path d="M515.833 294.44h13v1.893c0 .946-.56 1.783-1.38 2.068l-8.8 3.039-2.82-7z" fill="#FFBFAE"></path></g></svg>