<svg class="db" xmlns="http://www.w3.org/2000/svg" viewBox="0 0 1044 133">
  <g fill="none" fill-rule="evenodd">
    <g fill-rule="nonzero">
      <path fill="#C8C8C8" d="M1033.562,0.5 L10.128,0.5 C4.736,0.5 0.363,4.872 0.363,10.266 L0.363,53.568 L1043.328,53.568 L1043.328,10.266 C1043.328,4.872 1038.956,0.5 1033.562,0.5"/>
      <polygon fill="#E6E6E6" points=".363 132.519 1043.328 132.519 1043.328 53.569 .363 53.569"/>
      <path fill="#C8C8C8" d="M71.042,103.343 C71.834,102.569 79.579,94.437 79.579,94.437 C80.002,94.025 80.215,93.483 80.215,92.943 C80.215,92.402 80.002,91.86 79.579,91.448 C79.579,91.448 71.834,83.316 71.042,82.544 C70.25,81.77 68.824,81.719 67.978,82.544 C67.133,83.369 67.066,84.521 67.979,85.532 L75.083,92.943 L67.979,100.355 C67.066,101.367 67.133,102.519 67.978,103.343 C68.824,104.166 70.25,104.115 71.042,103.343 M36.772,82.544 C35.98,83.319 28.236,91.449 28.236,91.449 C27.8304097,91.8410516 27.6012625,92.3809008 27.601,92.945 C27.601,93.485 27.813,94.025 28.236,94.439 C28.236,94.439 35.98,102.57 36.772,103.344 C37.564,104.115 38.991,104.169 39.837,103.344 C40.681,102.519 40.749,101.369 39.835,100.356 L32.731,92.945 L39.835,85.533 C40.749,84.522 40.681,83.37 39.837,82.543 C38.991,81.717 37.564,81.771 36.772,82.543"/>
      <path fill="#E6E6E6" d="M122.088,53.967 C136.479,53.973 135.881,16.957 147.876,16.957 L285.069,16.967 C299.46,16.962 298.862,53.979 310.857,53.979 L122.088,53.967 Z"/>
      <path fill="#C8C8C8" d="M128.73,92 L124.733,92 L124.705,91.737 C124.118668,86.1128057 119.371661,81.8444741 113.717,81.857 C107.621,81.857 102.661,86.829 102.661,92.942 C102.661,99.057 107.621,104.03 113.717,104.03 C116.18737,104.038755 118.587713,103.209616 120.526,101.678 L121.111,101.218 L118.403,98.322 L117.914,98.684 C116.699125,99.5820544 115.227768,100.065846 113.717,100.064 C109.804,100.064 106.622,96.87 106.622,92.942 C106.622,89.016 109.804,85.822 113.717,85.822 C117.148895,85.8186826 120.089143,88.2768258 120.694,91.655 L120.757,92 L116.333,92 L122.531,98.91 L128.731,92 L128.73,92 Z"/>
      <path fill="#70B34A" d="M89.494,26.675 C89.494,32.728 94.404,37.637 100.459,37.637 C106.509,37.637 111.418,32.727 111.418,26.675 C111.418,20.623 106.508,15.713 100.458,15.713 C94.403,15.713 89.494,20.623 89.494,26.675"/>
      <path fill="#DDAA54" d="M52.383,26.675 C52.383,32.728 57.293,37.637 63.347,37.637 C69.397,37.637 74.307,32.727 74.307,26.675 C74.307,20.623 69.397,15.713 63.347,15.713 C57.293,15.713 52.383,20.623 52.383,26.675"/>
      <path fill="#D5655D" d="M15.097,26.675 C15.097,32.728 20.007,37.637 26.061,37.637 C32.111,37.637 37.021,32.727 37.021,26.675 C37.021,20.623 32.111,15.713 26.061,15.713 C20.007,15.713 15.097,20.623 15.097,26.675"/>
      <path fill="#C8C8C8" d="M1018.014,99.719 L995.124,99.719 C994.071,99.719 993.217,100.729 993.217,101.978 C993.217,103.224 994.071,104.238 995.124,104.238 L1018.014,104.238 C1019.066,104.238 1019.92,103.224 1019.92,101.978 C1019.92,100.728 1019.066,99.718 1018.014,99.718 M995.124,86.166 L1018.014,86.166 C1019.066,86.166 1019.92,85.156 1019.92,83.909 C1019.92,82.659 1019.066,81.649 1018.014,81.649 L995.124,81.649 C994.071,81.649 993.217,82.659 993.217,83.909 C993.217,85.157 994.071,86.166 995.124,86.166 M1018.014,90.684 L995.124,90.684 C994.071,90.684 993.217,91.694 993.217,92.942 C993.217,94.19 994.071,95.201 995.124,95.201 L1018.014,95.201 C1019.066,95.201 1019.92,94.19 1019.92,92.941 C1019.92,91.694 1019.066,90.684 1018.014,90.684"/>
      <path fill="#FFF" d="M979.782,113.523 L142.753,113.523 C141.265312,113.518607 140.060393,112.313688 140.056,110.826 L140.056,75.06 C140.060396,73.5724749 141.265473,72.3678444 142.753,72.364 L979.782,72.364 C981.2693,72.3683905 982.474058,73.5727022 982.479,75.06 L982.479,110.826 C982.474061,112.313461 981.269461,113.518061 979.782,113.523"/>
      <polygon fill="#E6E6E6" points="961.122 98.44 968.855 104.472 965.627 95.098 973.635 89.454 963.905 89.692 961.122 80.173 958.338 89.692 948.609 89.454 956.618 95.098 953.39 104.472"/>
    </g>
  </g>
</svg>