<svg viewBox="0 0 1200 900" xmlns="http://www.w3.org/2000/svg" xmlns:xlink="http://www.w3.org/1999/xlink"><defs><linearGradient x1="50%" y1="0%" x2="50%" y2="100%" id="linearGradient-1"><stop stop-color="#FFBF60" offset="0%"></stop><stop stop-color="#FC9700" offset="100%"></stop></linearGradient><path d="M78 0l52 52v85.8c0 10.052-8.148 18.2-18.2 18.2H18.2C8.148 156 0 147.852 0 137.8V18.2C0 8.148 8.148 0 18.2 0H78z" id="path-2"></path><path d="M78 0h32.88C120.933 0 130 9.068 130 19.12V52L78 0z" id="path-4"></path></defs><g fill="none" fill-rule="evenodd"><path d="M405 187h731c11.046 0 20 8.954 20 20v416c0 11.046-8.954 20-20 20H405c-11.046 0-20-8.954-20-20V207c0-11.046 8.954-20 20-20z" stroke="#EEE" stroke-dasharray="45 10 15 10" stroke-width="4"></path><path d="M440.216 223.493h-4.126q-.12-1.203-1.024-1.87-.905-.666-2.456-.666-1.054 0-1.78.294-.726.293-1.109.81-.383.517-.383 1.173-.02.547.234.955.254.408.701.7.447.294 1.034.508.587.214 1.253.363l1.83.437q1.332.299 2.446.796 1.113.497 1.928 1.223.816.726 1.268 1.71.453.985.463 2.257-.01 1.87-.95 3.237t-2.705 2.118q-1.764.75-4.25.75-2.466 0-4.29-.755-1.825-.756-2.844-2.243-1.02-1.486-1.07-3.683h4.167q.07 1.024.591 1.705.522.68 1.402 1.024.88.343 1.994.343 1.094 0 1.904-.318.81-.318 1.258-.885.447-.567.447-1.303 0-.686-.402-1.153-.403-.467-1.174-.796-.77-.328-1.884-.596l-2.217-.557q-2.575-.626-4.067-1.959-1.491-1.332-1.481-3.59-.01-1.849.989-3.23 1-1.383 2.75-2.158 1.75-.776 3.976-.776 2.268 0 3.963.776 1.695.775 2.64 2.157.944 1.382.974 3.202zm10.043 14.805q-2.357 0-4.052-.96-1.695-.959-2.61-2.724-.915-1.765-.915-4.18 0-2.357.915-4.137.915-1.78 2.58-2.774 1.666-.995 3.913-.995 1.511 0 2.819.483 1.307.482 2.287 1.446.979.965 1.526 2.422.547 1.456.547 3.405v1.163h-12.897v-2.625h8.91q0-.914-.398-1.62-.398-.706-1.099-1.109-.7-.403-1.626-.403-.964 0-1.705.443-.74.442-1.158 1.183-.418.74-.428 1.646v2.495q0 1.134.423 1.96.422.824 1.198 1.272.775.447 1.84.447.705 0 1.292-.198.587-.2 1.004-.597.418-.398.637-.975l3.917.259q-.298 1.412-1.218 2.46-.92 1.05-2.366 1.632-1.447.581-3.336.581zm14.01-.298h-4.236v-15.273h4.106v2.665h.16q.417-1.422 1.402-2.153.984-.73 2.267-.73.318 0 .686.04.368.04.646.109v3.758q-.298-.09-.825-.159-.527-.07-.965-.07-.934 0-1.665.403t-1.154 1.119q-.422.716-.422 1.65V238zm17.44-15.273h4.484L480.854 238h-4.773l-5.34-15.273h4.475l3.172 10.928h.16l3.161-10.928zM492.597 238h-4.236v-15.273h4.236V238zm-2.098-17.241q-.945 0-1.62-.632-.677-.631-.677-1.516 0-.875.676-1.507.676-.631 1.61-.631.955 0 1.627.631.67.632.67 1.507 0 .885-.67 1.516-.672.632-1.616.632zm12.38 17.54q-2.347 0-4.033-1-1.685-1-2.585-2.78-.9-1.779-.9-4.096 0-2.346.91-4.121.91-1.775 2.59-2.774 1.68-1 3.997-1 1.999 0 3.5.726 1.502.726 2.377 2.039.875 1.312.964 3.082h-3.997q-.17-1.143-.89-1.844-.72-.701-1.884-.701-.985 0-1.715.532-.731.531-1.139 1.546-.408 1.014-.408 2.456 0 1.461.403 2.485.403 1.025 1.139 1.562.735.536 1.72.536.726 0 1.307-.298.582-.298.965-.87.383-.572.502-1.377h3.997q-.1 1.75-.95 3.077-.85 1.328-2.341 2.074-1.492.745-3.53.745zm16.505 0q-2.357 0-4.052-.96-1.695-.96-2.61-2.725-.915-1.765-.915-4.18 0-2.357.915-4.137.915-1.78 2.58-2.774 1.666-.995 3.913-.995 1.511 0 2.819.483 1.307.482 2.287 1.446.979.965 1.526 2.422.547 1.456.547 3.405v1.163h-12.897v-2.625h8.91q0-.914-.398-1.62-.398-.706-1.099-1.109-.7-.403-1.626-.403-.964 0-1.705.443-.74.442-1.158 1.183-.418.74-.428 1.646v2.495q0 1.134.423 1.96.422.824 1.198 1.272.775.447 1.84.447.705 0 1.292-.198.587-.2 1.004-.597.418-.398.637-.975l3.917.259q-.298 1.412-1.218 2.46-.92 1.05-2.366 1.632-1.447.581-3.336.581zm27.82-13.533h-4.354q-.12-.846-.488-1.507-.367-.661-.944-1.128-.577-.468-1.328-.716-.75-.249-1.625-.249-1.581 0-2.755.78-1.173.781-1.82 2.268-.645 1.486-.645 3.604 0 2.178.65 3.66.652 1.48 1.825 2.236 1.174.756 2.715.756.865 0 1.606-.229.74-.228 1.317-.67.577-.443.96-1.08.383-.636.532-1.451l4.355.02q-.17 1.402-.84 2.7-.672 1.297-1.8 2.316-1.129 1.02-2.685 1.61-1.556.592-3.515.592-2.724 0-4.867-1.233-2.143-1.232-3.38-3.57-1.238-2.336-1.238-5.657 0-3.33 1.252-5.667 1.253-2.337 3.4-3.565 2.149-1.228 4.833-1.228 1.77 0 3.287.497 1.516.497 2.69 1.447 1.172.95 1.913 2.322.741 1.372.95 3.142zm3.014-7.13h4.235V238h-4.235v-20.364zm11.971 20.652q-1.461 0-2.605-.512-1.143-.512-1.805-1.521-.66-1.01-.66-2.52 0-1.273.466-2.138.468-.865 1.273-1.392.806-.527 1.835-.796 1.029-.268 2.162-.378 1.333-.139 2.148-.263.815-.125 1.183-.373.368-.249.368-.736v-.06q0-.944-.591-1.461-.592-.517-1.676-.517-1.143 0-1.82.502-.676.502-.894 1.258l-3.918-.319q.298-1.392 1.173-2.41.875-1.02 2.262-1.572 1.388-.552 3.217-.552 1.273 0 2.441.299 1.168.298 2.078.924.91.627 1.437 1.606.527.98.527 2.342V238h-4.017v-2.118h-.12q-.367.716-.984 1.258-.616.542-1.481.845-.865.303-1.999.303zm1.213-2.923q.935 0 1.65-.373.717-.373 1.124-1.009.408-.636.408-1.442v-1.62q-.199.129-.542.233-.343.105-.77.189-.428.085-.856.15-.427.064-.775.114-.746.109-1.303.348-.556.238-.865.64-.308.404-.308 1 0 .865.631 1.318.632.452 1.606.452zm23.387-8.283l-3.878.239q-.1-.497-.428-.9-.328-.403-.86-.646-.532-.244-1.268-.244-.984 0-1.66.413-.676.413-.676 1.099 0 .546.437.924.438.378 1.502.607l2.764.557q2.227.457 3.32 1.471 1.095 1.014 1.095 2.665 0 1.501-.88 2.635t-2.407 1.765q-1.526.631-3.514.631-3.033 0-4.828-1.267-1.795-1.268-2.103-3.456l4.166-.218q.19.924.915 1.406.726.483 1.86.483 1.113 0 1.794-.433.681-.432.691-1.118-.01-.577-.487-.95t-1.472-.572l-2.644-.527q-2.238-.447-3.326-1.55-1.09-1.105-1.09-2.815 0-1.471.801-2.535.8-1.064 2.257-1.64 1.457-.578 3.416-.578 2.893 0 4.559 1.223 1.665 1.223 1.944 3.331zm15.73 0l-3.878.239q-.1-.497-.428-.9-.328-.403-.86-.646-.532-.244-1.267-.244-.985 0-1.661.413t-.676 1.099q0 .546.437.924.438.378 1.502.607l2.764.557q2.227.457 3.321 1.471 1.094 1.014 1.094 2.665 0 1.501-.88 2.635t-2.406 1.765q-1.527.631-3.515.631-3.033 0-4.828-1.267-1.795-1.268-2.103-3.456l4.166-.218q.19.924.915 1.406.726.483 1.86.483 1.113 0 1.794-.433.681-.432.691-1.118-.01-.577-.487-.95t-1.471-.572l-2.645-.527q-2.238-.447-3.326-1.55-1.09-1.105-1.09-2.815 0-1.471.801-2.535.8-1.064 2.257-1.64 1.457-.578 3.416-.578 2.893 0 4.559 1.223 1.665 1.223 1.944 3.331z" fill="#2C2C2C" fill-rule="nonzero"></path><g transform="translate(45.000000, 210.000000)"><path d="M63.638 107.309l-18.551-6.656V73.47l18.551 6.318v27.52zm3.38 0l18.551-6.656V73.47l-18.551 6.323v27.516zm-20.02-35.88l18.72-5.286 17.41 5.616-17.41 5.91-18.72-6.24zm-5.44-2.08L23 62.672V35.45l18.551 6.318.008 27.58zm3.399 0l18.551-6.656V35.45L44.952 41.8l.005 27.549zm-20.02-35.88l18.72-5.312 17.41 5.616-17.41 5.91-18.72-6.214zm59.935 35.88l-18.55-6.656V35.45l18.55 6.318v27.58zm3.38 0l18.551-6.656V35.45l-18.55 6.318v27.58zm-20.02-35.88l18.72-5.286 17.41 5.616-17.41 5.91-18.72-6.24z" fill="#F90"></path><mask id="mask-3" fill="#fff"><use xlink:href="#path-2"></use></mask><use fill-opacity="0.6" fill="url(#linearGradient-1)" xlink:href="#path-2"></use><g mask="url(#mask-3)" transform="translate(104.000000, 26.000000) scale(-1, -1) translate(-104.000000, -26.000000)"><use fill="#000" filter="url(#filter-5)" xlink:href="#path-4"></use><use fill="#FFE6C0" xlink:href="#path-4"></use></g><path d="M64.556 124.602h-3.242q-.093-.946-.804-1.47-.711-.523-1.93-.523-.828 0-1.398.23-.57.231-.872.638-.3.406-.3.921-.016.43.183.75.2.32.551.551.352.23.813.399.46.168.984.285l1.437.344q1.047.234 1.922.625.875.39 1.516.96.64.57.996 1.344.355.774.363 1.774-.008 1.468-.746 2.543-.738 1.074-2.125 1.664-1.387.59-3.34.59-1.937 0-3.37-.594-1.434-.594-2.235-1.762-.8-1.168-.84-2.894h3.273q.055.804.465 1.34.41.535 1.102.804.691.27 1.566.27.86 0 1.496-.25.637-.25.989-.696.351-.445.351-1.023 0-.54-.316-.906-.317-.368-.922-.625-.606-.258-1.48-.47l-1.743-.437q-2.023-.492-3.195-1.539-1.172-1.047-1.164-2.82-.008-1.453.777-2.54.785-1.085 2.16-1.694 1.375-.61 3.125-.61 1.782 0 3.114.61 1.332.609 2.074 1.695.742 1.086.766 2.516zm7.604 11.617q-1.75 0-3.113-.606-1.363-.605-2.149-1.672-.785-1.066-.808-2.464h3.406q.031.585.387 1.027.355.441.95.684.593.242 1.335.242.773 0 1.367-.274.594-.273.93-.758.336-.484.336-1.117 0-.64-.356-1.136-.355-.497-1.015-.778-.66-.281-1.567-.281h-1.492v-2.484h1.492q.766 0 1.356-.266.59-.266.918-.738.328-.473.328-1.106 0-.601-.285-1.058-.285-.457-.797-.715-.512-.258-1.192-.258-.687 0-1.257.246-.57.246-.914.7-.344.452-.368 1.062H66.41q.024-1.383.79-2.438.765-1.054 2.066-1.652 1.3-.598 2.941-.598 1.656 0 2.899.602 1.242.601 1.933 1.62.692 1.02.684 2.286.008 1.344-.832 2.242-.84.899-2.184 1.14v.126q1.766.226 2.691 1.223.926.996.918 2.488.008 1.367-.785 2.43-.793 1.062-2.183 1.671-1.39.61-3.188.61z" fill="#4F2F00" fill-rule="nonzero"></path></g><path d="M428.737 157.766h-4.355q-.12-.846-.487-1.507-.368-.661-.945-1.128-.576-.468-1.327-.716-.75-.249-1.626-.249-1.58 0-2.754.78-1.173.781-1.82 2.268-.646 1.486-.646 3.604 0 2.178.651 3.66.652 1.48 1.825 2.236 1.173.756 2.714.756.865 0 1.606-.229.74-.228 1.318-.67.576-.443.96-1.08.382-.636.531-1.451l4.355.02q-.169 1.402-.84 2.7-.671 1.297-1.8 2.316-1.128 1.02-2.684 1.61-1.556.592-3.515.592-2.725 0-4.867-1.233-2.143-1.232-3.381-3.57-1.238-2.336-1.238-5.657 0-3.33 1.253-5.667 1.253-2.337 3.4-3.565 2.148-1.228 4.833-1.228 1.77 0 3.286.497t2.69 1.447q1.173.95 1.914 2.322.74 1.372.95 3.142zM444.865 171H431.83v-20.364h4.305v16.814h8.73V171zm15.432-7.507v-12.857h4.305v13.225q0 2.227-1.059 3.898-1.059 1.67-2.958 2.6-1.899.93-4.424.93-2.536 0-4.435-.93-1.9-.93-2.953-2.6-1.054-1.67-1.054-3.898v-13.225h4.305v12.857q0 1.163.512 2.068t1.447 1.422q.935.517 2.178.517 1.252 0 2.182-.517.93-.517 1.442-1.422.512-.905.512-2.068zm23.018-7h-4.126q-.12-1.203-1.024-1.87-.905-.666-2.456-.666-1.054 0-1.78.294-.726.293-1.109.81-.382.517-.382 1.173-.02.547.233.955.254.408.701.7.448.294 1.034.508.587.214 1.253.363l1.83.437q1.332.299 2.446.796 1.113.497 1.929 1.223.815.726 1.267 1.71.453.985.463 2.257-.01 1.87-.95 3.237t-2.704 2.118q-1.765.75-4.251.75-2.466 0-4.29-.755-1.825-.756-2.844-2.243-1.02-1.486-1.07-3.683h4.167q.07 1.024.592 1.705.522.68 1.402 1.024.88.343 1.993.343 1.094 0 1.904-.318.81-.318 1.258-.885.448-.567.448-1.303 0-.686-.403-1.153-.403-.467-1.173-.796-.771-.328-1.885-.596l-2.217-.557q-2.575-.626-4.067-1.959-1.491-1.332-1.481-3.59-.01-1.849.99-3.23.998-1.383 2.748-2.158 1.75-.776 3.978-.776 2.267 0 3.962.776 1.695.775 2.64 2.157.945 1.382.974 3.202zm8.621-2.307h-6.234v-3.55h16.724v3.55h-6.234V171h-4.256v-16.814zM518.952 171H505.19v-20.364h13.722v3.55h-9.416v4.852h8.71v3.55h-8.71v4.862h9.456V171zm7.696 0h-4.306v-20.364h8.034q2.307 0 3.943.82 1.636.821 2.496 2.317.86 1.497.86 3.515 0 2.029-.875 3.485-.875 1.457-2.53 2.233-1.656.775-4.003.775h-5.38v-3.46h4.684q1.233 0 2.048-.338.816-.338 1.218-1.014.403-.676.403-1.68 0-1.015-.403-1.71-.402-.697-1.223-1.06-.82-.363-2.063-.363h-2.903V171zm2.048-9.267h4.643l5.062 9.267h-4.753l-4.952-9.267z" fill="#C7C7CC" fill-rule="nonzero"></path><rect width="204" height="130" rx="6.5" transform="translate(413.000000, 247.000000)" fill="#C5EDFF"></rect><g transform="translate(928.000000, 249.000000)"><path d="M200 169.068c0 1.067-.626 1.932-1.399 1.932H1.399C.626 171 0 170.135 0 169.068V5a5 5 0 0 1 5-5h190a5 5 0 0 1 5 5v164.068z" fill="#FF003C"></path><path d="M5 0h190a5 5 0 0 1 5 5v18H0V5a5 5 0 0 1 5-5z" fill="#CCC"></path><path d="M17 12.5a4.5 4.5 0 1 1-9 0 4.5 4.5 0 0 1 9 0" fill="#E74C3C"></path><path d="M33 12.5a4.5 4.5 0 1 1-9 0 4.5 4.5 0 0 1 9 0" fill="#F1C40F"></path><path d="M48 12.5a4.5 4.5 0 1 1-9 0 4.5 4.5 0 0 1 9 0" fill="#2ECC71"></path></g><path d="M937.34 235h-3.076v-14.545h5.739q1.655 0 2.82.628 1.164.629 1.779 1.74.614 1.112.614 2.56 0 1.45-.625 2.557-.625 1.108-1.808 1.726-1.182.618-2.858.618h-3.658v-2.464h3.16q.888 0 1.467-.31.579-.308.867-.859.287-.55.287-1.267 0-.725-.287-1.268-.288-.544-.87-.845-.583-.302-1.478-.302h-2.074V235zm14.566.213q-1.655 0-2.858-.707-1.204-.706-1.858-1.974-.653-1.268-.653-2.944 0-1.69.653-2.958.654-1.268 1.858-1.974 1.203-.707 2.858-.707t2.859.707q1.204.706 1.857 1.974.654 1.268.654 2.958 0 1.676-.654 2.944-.653 1.268-1.857 1.974-1.204.707-2.859.707zm.014-2.344q.753 0 1.258-.43.504-.43.763-1.175.26-.746.26-1.697 0-.952-.26-1.698-.26-.745-.763-1.179-.505-.433-1.258-.433-.76 0-1.274.433-.515.434-.775 1.18-.259.745-.259 1.697 0 .951.26 1.697.259.746.774 1.176.515.43 1.274.43zm11.35 2.309q-1.243 0-2.248-.643-1.005-.643-1.59-1.897-.587-1.253-.587-3.078 0-1.875.604-3.122.604-1.246 1.609-1.868 1.005-.621 2.205-.621.916 0 1.53.309.615.309.995.767t.578.898h.093v-5.468h3.018V235h-2.983v-1.747h-.128q-.213.454-.6.898t-1.001.735q-.614.292-1.495.292zm.959-2.408q.731 0 1.239-.401.508-.402.781-1.126.274-.725.274-1.698t-.27-1.69q-.27-.717-.781-1.108-.512-.39-1.243-.39-.746 0-1.257.404-.512.405-.775 1.123-.262.717-.262 1.661 0 .952.266 1.68t.774 1.137q.508.408 1.254.408zm15.774-12.315h2.89V235h-3.075v-11.626h-.085l-3.331 2.088v-2.728l3.6-2.28z" fill="#4A4A4A" fill-rule="nonzero"></path><rect width="204" height="38" rx="6.5" transform="translate(413.000000, 415.000000)" fill="#BADBFF"></rect><g transform="translate(369.000000, 171.000000)" fill-rule="nonzero"><path d="M15.9.476a2.14 2.14 0 0 0-.823.218L3.932 6.01a2.111 2.111 0 0 0-1.15 1.432L.054 19.373c-.13.56-.025 1.147.3 1.627.038.058.078.114.12.168l7.7 9.574c.407.5 1.018.787 1.662.784h12.35c.646.001 1.258-.3 1.664-.793l7.696-9.576c.404-.5.555-1.16.4-1.786L29.2 7.43a2.116 2.116 0 0 0-1.15-1.432L16.923.695A2.14 2.14 0 0 0 15.89.476h.01z" fill="#326CE5"></path><path d="M16.002 4.542a.705.705 0 0 0-.655.74v.188c.018.213.05.424.092.633.061.4.083.805.066 1.21a.73.73 0 0 1-.218.345l-.015.282a8.72 8.72 0 0 0-1.203.186 8.564 8.564 0 0 0-4.354 2.485l-.24-.17a.517.517 0 0 1-.395-.04 6.22 6.22 0 0 1-.897-.81 5.55 5.55 0 0 0-.437-.465l-.148-.118a.8.8 0 0 0-.463-.175.64.64 0 0 0-.531.236.706.706 0 0 0 .164.983l.138.11c.178.118.362.226.552.323.354.197.688.428.998.7a.74.74 0 0 1 .133.384l.218.2a8.619 8.619 0 0 0-1.358 6.006l-.28.08a.914.914 0 0 1-.286.288c-.39.104-.79.17-1.194.197a5.57 5.57 0 0 0-.64.05l-.177.04h-.02a.67.67 0 0 0-.387 1.132.67.67 0 0 0 .684.165h.013l.18-.02c.203-.06.403-.134.598-.218.375-.15.764-.265 1.162-.34a.73.73 0 0 1 .382.135l.3-.05a8.663 8.663 0 0 0 3.84 4.803l-.122.255a.667.667 0 0 1 .06.376 6.457 6.457 0 0 1-.603 1.092 5.58 5.58 0 0 0-.358.533l-.085.18a.67.67 0 0 0 .65 1.001.67.67 0 0 0 .553-.432l.083-.17c.076-.2.14-.404.192-.61.177-.437.273-.906.515-1.196a.54.54 0 0 1 .286-.14l.15-.273a8.62 8.62 0 0 0 6.146.015l.133.255a.52.52 0 0 1 .34.205c.188.358.34.733.456 1.12.053.207.118.411.194.611l.083.17a.67.67 0 0 0 1.187.131.67.67 0 0 0 .016-.701l-.087-.18a5.55 5.55 0 0 0-.358-.531 7.079 7.079 0 0 1-.6-1.057.52.52 0 0 1 .068-.4 2.29 2.29 0 0 1-.111-.269 8.675 8.675 0 0 0 3.823-4.82l.284.05a.53.53 0 0 1 .373-.138c.397.076.786.2 1.162.34.195.09.395.166.598.23.048.013.118.024.172.037h.013a.67.67 0 0 0 .841-.851.67.67 0 0 0-.544-.446l-.194-.046a5.57 5.57 0 0 0-.64-.05 6.1 6.1 0 0 1-1.194-.197.752.752 0 0 1-.288-.288l-.27-.08a8.65 8.65 0 0 0-1.386-5.993l.236-.218a.527.527 0 0 1 .124-.378 6.28 6.28 0 0 1 .99-.696 5.57 5.57 0 0 0 .552-.323l.146-.118a.67.67 0 1 0-.829-1.041l-.148.118a5.57 5.57 0 0 0-.437.465 6.237 6.237 0 0 1-.873.823.74.74 0 0 1-.404.044l-.253.18a8.736 8.736 0 0 0-5.535-2.67c0-.1-.013-.25-.015-.297a.525.525 0 0 1-.218-.332 6.23 6.23 0 0 1 .076-1.207c.043-.21.073-.42.092-.633v-.2a.704.704 0 0 0-.655-.74l-.009-.005zm-.834 5.166l-.2 3.493h-.015a.602.602 0 0 1-.332.504.565.565 0 0 1-.6-.054l-2.865-2.03a6.86 6.86 0 0 1 3.303-1.799c.234-.05.47-.088.707-.114h.002zm1.668 0a6.924 6.924 0 0 1 3.99 1.924l-2.838 2.017a.588.588 0 0 1-.954-.452l-.198-3.489zm-6.72 3.227l2.62 2.338v.015a.588.588 0 0 1-.231 1.009v.01l-3.362.967a6.86 6.86 0 0 1 .974-4.34l-.001.001zm11.753 0a6.982 6.982 0 0 1 1.002 4.327l-3.367-.97v-.013a.582.582 0 0 1-.417-.435.592.592 0 0 1 .186-.574l2.6-2.327-.004-.008zm-6.404 2.52h1.072l.655.832-.238 1.04-.963.463-.965-.463-.227-1.04.666-.832zm3.434 2.838a.608.608 0 0 1 .135 0l3.467.585a6.816 6.816 0 0 1-2.775 3.493l-1.34-3.244a.59.59 0 0 1 .509-.819l.004-.015zm-5.823.015a.59.59 0 0 1 .531.818v.013l-1.332 3.218A6.88 6.88 0 0 1 9.517 18.9l3.437-.583a.562.562 0 0 1 .116 0l.006-.009zm2.904 1.4a.59.59 0 0 1 .537.308h.013l1.694 3.057-.677.2a6.894 6.894 0 0 1-3.758-.194l1.7-3.057a.59.59 0 0 1 .5-.295l-.009-.019z" stroke="#FFF" stroke-width=".5" fill="#FFF"></path></g><g transform="translate(222.000000, 268.000000)"><path stroke="#455A64" stroke-width="15" d="M0 20.5h100"></path><path d="M128.218 23.194c2.326-1.488 2.33-3.897 0-5.387L103.423 1.951C98.771-1.024 95 1.046 95 6.57v27.86c0 5.526 3.778 7.59 8.423 4.62l24.795-15.857z" fill="#455A64"></path></g><g transform="translate(204.000000, 426.000000)"><path stroke="#455A64" stroke-width="6" d="M0 8.5h156"></path><path d="M167.284 9.58c.932-.596.935-1.561 0-2.16l-9.915-6.34C155.51-.11 154 .71 154 2.917v11.167c0 2.204 1.504 3.029 3.37 1.836l9.914-6.34z" fill="#455A64"></path></g><g transform="translate(204.000000, 470.000000)"><path stroke="#455A64" stroke-width="6" d="M0 8.5h156"></path><path d="M167.284 9.58c.932-.596.935-1.561 0-2.16l-9.915-6.34C155.51-.11 154 .71 154 2.917v11.167c0 2.204 1.504 3.029 3.37 1.836l9.914-6.34z" fill="#455A64"></path></g><g transform="translate(204.000000, 514.000000)"><path stroke="#455A64" stroke-width="6" d="M0 8.5h156"></path><path d="M167.284 9.58c.932-.596.935-1.561 0-2.16l-9.915-6.34C155.51-.11 154 .71 154 2.917v11.167c0 2.204 1.504 3.029 3.37 1.836l9.914-6.34z" fill="#455A64"></path></g><path d="M925.716 539.92c-.932.596-.935 1.561 0 2.16l9.915 6.34c1.86 1.19 3.369.37 3.369-1.837v-11.167c0-2.204-1.504-3.029-3.37-1.836l-9.914 6.34z" fill="#455A64"></path><path d="M74.475 389.267L72.285 396h-1.977l3.012-8.727h2.378L78.707 396h-1.978l-2.186-6.733h-.068zm-2.314 4.743v-1.44h4.67v1.44h-4.67zm5.657-6.737h2.05l2.109 6.63h.08l2.114-6.63h2.046L83.208 396H80.83l-3.012-8.727zm11.6 1.994L87.229 396h-1.977l3.013-8.727h2.378L93.65 396h-1.977l-2.186-6.733h-.068zm-2.313 4.743v-1.44h4.67v1.44h-4.67zm7.211-6.737h1.846V396h-1.846v-8.727zm8.571 8.727h-5.586v-8.727h1.845v7.206h3.741V396zm4.753-6.733L105.45 396h-1.977l3.013-8.727h2.377l3.009 8.727h-1.977l-2.186-6.733h-.069zm-2.314 4.743v-1.44h4.67v1.44h-4.67zm10.94 1.99h-3.728v-8.727h3.495q.963 0 1.606.285.644.286.967.79.324.506.324 1.162 0 .511-.204.897-.205.386-.56.63-.356.246-.812.348v.085q.498.021.935.281.437.26.71.727.272.467.272 1.11 0 .695-.343 1.238t-1.012.859q-.669.315-1.65.315zm-1.883-3.827v2.318h1.505q.771 0 1.125-.296.353-.296.353-.79 0-.362-.174-.64-.175-.276-.497-.434-.322-.158-.765-.158h-1.547zm0-3.409v2.16h1.368q.38 0 .676-.134.296-.134.468-.38.173-.248.173-.593 0-.473-.334-.763-.335-.29-.949-.29h-1.402zm11.29 7.236h-5.586v-8.727h1.845v7.206h3.741V396zm6.739 0h-5.898v-8.727h5.881v1.521h-4.036v2.08h3.733v1.52h-3.733v2.085h4.053V396zm7.166-6.733l-2.19 6.733h-1.977l3.013-8.727h2.377L143.81 396h-1.977l-2.186-6.733h-.069zm-2.314 4.743v-1.44h4.671v1.44h-4.67zm13.51-4.227h-1.768q-.051-.516-.439-.801-.388-.286-1.052-.286-.452 0-.763.126-.311.125-.475.347-.164.222-.164.503-.009.234.1.409.108.175.3.3.192.126.443.218.252.091.537.155l.784.188q.571.128 1.049.34.477.214.826.525.35.31.544.733.194.422.198.967-.004.801-.407 1.387-.403.586-1.16.908-.756.322-1.82.322-1.058 0-1.84-.324t-1.218-.961q-.437-.637-.459-1.58h1.786q.03.44.254.732.223.292.6.439.377.147.855.147.469 0 .816-.137.347-.136.539-.379.192-.243.192-.558 0-.294-.173-.494t-.503-.341q-.33-.141-.807-.256l-.95-.239q-1.104-.268-1.743-.84-.64-.57-.635-1.538-.005-.792.424-1.384.428-.593 1.178-.925.75-.333 1.704-.333.972 0 1.699.333.726.332 1.13.925.406.592.419 1.372z" fill="#8E8E93" fill-rule="nonzero"></path><path d="M61.392 430.602h-3.243q-.093-.946-.804-1.47-.711-.523-1.93-.523-.828 0-1.398.23-.57.231-.872.638-.3.406-.3.921-.016.43.183.75.2.32.551.551.352.23.813.399.46.168.984.285l1.437.344q1.047.234 1.922.625.875.39 1.516.96.64.57.996 1.344.355.774.363 1.774-.008 1.468-.746 2.543-.738 1.074-2.125 1.664-1.387.59-3.34.59-1.937 0-3.37-.594-1.434-.594-2.235-1.762-.8-1.168-.84-2.894h3.273q.055.804.465 1.34.41.535 1.102.804.691.27 1.566.27.86 0 1.496-.25.637-.25.989-.696.351-.445.351-1.023 0-.54-.316-.906-.317-.368-.922-.625-.606-.258-1.48-.47l-1.743-.437q-2.023-.492-3.195-1.539-1.172-1.047-1.164-2.82-.008-1.453.777-2.54.785-1.085 2.16-1.694 1.375-.61 3.125-.61 1.782 0 3.114.61 1.332.609 2.074 1.695.742 1.086.766 2.516zm7.603 11.617q-1.75 0-3.113-.606-1.363-.605-2.149-1.672-.785-1.066-.808-2.464h3.406q.031.586.387 1.027.355.441.95.683.593.243 1.335.243.773 0 1.367-.274.594-.273.93-.758.336-.484.336-1.117 0-.64-.356-1.136-.355-.497-1.015-.778-.66-.281-1.567-.281h-1.492v-2.484h1.492q.766 0 1.356-.266.59-.266.918-.738.328-.473.328-1.106 0-.601-.285-1.058-.285-.457-.797-.715-.512-.258-1.192-.258-.687 0-1.257.246-.57.246-.914.7-.344.452-.368 1.062h-3.242q.024-1.383.79-2.438.765-1.054 2.066-1.652 1.3-.598 2.941-.598 1.656 0 2.898.602 1.243.601 1.934 1.62.692 1.02.684 2.286.007 1.344-.832 2.242-.84.899-2.184 1.14v.126q1.766.226 2.691 1.223.926.996.918 2.488.008 1.367-.785 2.43-.793 1.062-2.183 1.671-1.39.61-3.188.61zm24.31-11.617h-3.243q-.094-.946-.805-1.47-.71-.523-1.93-.523-.828 0-1.398.23-.57.231-.871.638-.3.406-.3.921-.016.43.183.75.2.32.55.551.352.23.813.399.461.168.984.285l1.438.344q1.047.234 1.922.625.875.39 1.516.96.64.57.996 1.344.355.774.363 1.774-.008 1.468-.746 2.543-.739 1.074-2.125 1.664-1.387.59-3.34.59-1.938 0-3.371-.594-1.434-.594-2.235-1.762-.8-1.168-.84-2.894h3.274q.055.804.465 1.34.41.535 1.101.804.692.27 1.567.27.86 0 1.496-.25.637-.25.988-.696.352-.445.352-1.023 0-.54-.317-.906-.316-.368-.921-.625-.606-.258-1.48-.47l-1.743-.437q-2.024-.492-3.195-1.539-1.172-1.047-1.165-2.82-.007-1.453.778-2.54.785-1.085 2.16-1.694 1.375-.61 3.125-.61 1.781 0 3.113.61 1.332.609 2.075 1.695.742 1.086.765 2.516zm.876-.602h7.227v2.5H94.18V430zm1.64 8.75v-11.625h3.329v11.188q0 .46.14.714.141.254.395.356.254.101.59.101.234 0 .469-.043l.36-.066.523 2.477q-.25.078-.704.183-.453.106-1.101.13-1.203.046-2.106-.321-.902-.367-1.402-1.14-.5-.774-.492-1.954zm10.472 3.477q-1.149 0-2.047-.403-.899-.402-1.418-1.195-.52-.793-.52-1.98 0-1 .368-1.68.367-.68 1-1.094.632-.414 1.441-.625.809-.21 1.7-.297 1.046-.11 1.687-.207.64-.098.93-.293.288-.195.288-.578v-.047q0-.742-.464-1.148-.465-.407-1.317-.407-.898 0-1.43.395-.53.394-.703.988l-3.078-.25q.235-1.094.922-1.894.688-.801 1.777-1.235 1.09-.433 2.528-.433 1 0 1.918.234.918.235 1.633.727.714.492 1.129 1.261.414.77.414 1.84V442h-3.157v-1.664h-.093q-.29.562-.774.988-.484.426-1.164.664-.68.239-1.57.239zm.953-2.297q.734 0 1.297-.293.562-.293.883-.793.32-.5.32-1.133v-1.274q-.156.102-.426.184t-.605.149q-.336.066-.672.117l-.61.09q-.586.086-1.023.273-.438.188-.68.504-.242.316-.242.785 0 .68.496 1.035.496.356 1.262.356zm11.018-4.868V442h-3.328v-12h3.171v2.117h.141q.398-1.047 1.336-1.66.937-.613 2.273-.613 1.25 0 2.18.547.93.546 1.445 1.558.516 1.012.516 2.41V442h-3.328v-7.047q.008-1.101-.563-1.723-.57-.62-1.57-.62-.672 0-1.184.288-.511.29-.796.84-.286.551-.293 1.325zm14.072 7.133q-1.367 0-2.473-.707-1.105-.707-1.75-2.086-.644-1.379-.644-3.386 0-2.063.664-3.434t1.77-2.055q1.105-.683 2.425-.683 1.008 0 1.684.34.676.34 1.094.843.418.504.636.989h.102V426h3.32v16h-3.281v-1.922h-.14q-.235.5-.66.988-.427.489-1.102.809-.676.32-1.645.32zm1.055-2.648q.804 0 1.363-.442.559-.44.86-1.238.3-.797.3-1.867 0-1.07-.297-1.86-.297-.788-.86-1.218-.562-.43-1.366-.43-.82 0-1.383.445-.563.446-.852 1.235-.289.789-.289 1.828 0 1.047.293 1.848.293.8.852 1.25.558.449 1.379.449zm11.22 2.68q-1.148 0-2.046-.403-.899-.402-1.418-1.195-.52-.793-.52-1.98 0-1 .367-1.68.368-.68 1-1.094.633-.414 1.442-.625.808-.21 1.7-.297 1.046-.11 1.687-.207.64-.098.93-.293.288-.195.288-.578v-.047q0-.742-.465-1.148-.464-.407-1.316-.407-.898 0-1.43.395-.53.394-.703.988l-3.078-.25q.234-1.094.922-1.894.688-.801 1.777-1.235 1.09-.433 2.528-.433 1 0 1.918.234.918.235 1.632.727.715.492 1.13 1.261.413.77.413 1.84V442h-3.156v-1.664h-.094q-.289.562-.773.988-.484.426-1.164.664-.68.239-1.57.239zm.954-2.297q.734 0 1.297-.293.562-.293.882-.793.32-.5.32-1.133v-1.274q-.155.102-.425.184t-.606.149q-.335.066-.671.117l-.61.09q-.586.086-1.023.273-.438.188-.68.504-.242.316-.242.785 0 .68.496 1.035.496.356 1.262.356zm11.018 2.07h-3.329v-12h3.227v2.094h.125q.328-1.117 1.102-1.692.773-.574 1.78-.574.25 0 .54.031.289.032.508.086v2.953q-.235-.07-.649-.125-.414-.054-.758-.054-.734 0-1.308.316-.574.317-.906.88-.332.562-.332 1.296V442zm8.822.195q-1.367 0-2.473-.707-1.105-.707-1.75-2.086-.644-1.379-.644-3.386 0-2.063.664-3.434t1.77-2.055q1.105-.683 2.425-.683 1.008 0 1.684.34.675.34 1.093.843.418.504.637.989h.102V426h3.32v16h-3.281v-1.922h-.14q-.235.5-.661.988-.426.489-1.102.809-.675.32-1.644.32zm1.055-2.648q.804 0 1.363-.442.558-.44.86-1.238.3-.797.3-1.867 0-1.07-.297-1.86-.297-.788-.86-1.218-.562-.43-1.366-.43-.82 0-1.383.445-.563.446-.852 1.235-.289.789-.289 1.828 0 1.047.293 1.848.293.8.852 1.25.558.449 1.379.449z" fill="#2E1C00" fill-rule="nonzero"></path><rect width="204" height="38" rx="6.5" transform="translate(413.000000, 459.000000)" fill="#BADBFF"></rect><path d="M72.04 474.602h-3.242q-.093-.946-.804-1.47-.711-.523-1.93-.523-.828 0-1.398.23-.57.231-.872.638-.3.406-.3.921-.016.43.183.75.2.32.551.551.352.23.813.399.46.168.984.285l1.437.344q1.047.234 1.922.625.875.39 1.516.96.64.57.996 1.344.355.774.363 1.774-.008 1.468-.746 2.543-.738 1.074-2.125 1.664-1.387.59-3.34.59-1.937 0-3.37-.594-1.434-.594-2.235-1.762-.8-1.168-.84-2.894h3.273q.055.804.465 1.34.41.535 1.102.804.691.27 1.566.27.86 0 1.496-.25.637-.25.989-.696.351-.445.351-1.023 0-.54-.316-.906-.317-.368-.922-.625-.606-.258-1.48-.47l-1.743-.437q-2.023-.492-3.195-1.539-1.172-1.047-1.164-2.82-.008-1.453.777-2.54.785-1.085 2.16-1.694 1.375-.61 3.125-.61 1.782 0 3.114.61 1.332.609 2.074 1.695.742 1.086.765 2.516zm7.604 11.617q-1.75 0-3.113-.606-1.363-.605-2.149-1.672-.785-1.066-.808-2.464h3.406q.031.586.387 1.027.355.441.95.683.593.243 1.335.243.773 0 1.367-.274.594-.273.93-.758.336-.484.336-1.117 0-.64-.356-1.136-.355-.497-1.015-.778-.66-.281-1.567-.281h-1.492v-2.484h1.492q.766 0 1.356-.266.59-.266.918-.738.328-.473.328-1.106 0-.601-.285-1.058-.285-.457-.797-.715-.512-.258-1.192-.258-.687 0-1.257.246-.57.246-.914.7-.344.452-.368 1.062h-3.242q.024-1.383.79-2.438.765-1.054 2.066-1.652 1.3-.598 2.941-.598 1.656 0 2.898.602 1.243.601 1.934 1.62.692 1.02.684 2.286.008 1.344-.832 2.242-.84.899-2.184 1.14v.126q1.766.226 2.691 1.223.926.996.918 2.488.008 1.367-.785 2.43-.793 1.062-2.183 1.671-1.39.61-3.188.61zm26.434-11.047h-3.437q-.164-.57-.461-1.012-.297-.441-.723-.75-.426-.308-.969-.473-.543-.164-1.199-.164-1.227 0-2.152.61-.926.61-1.442 1.77-.515 1.16-.515 2.831 0 1.672.507 2.844.508 1.172 1.438 1.785.93.614 2.195.614 1.149 0 1.965-.41.817-.41 1.25-1.16.434-.75.434-1.774l.687.101h-4.125v-2.546h6.696v2.015q0 2.11-.891 3.621-.89 1.512-2.453 2.328-1.563.817-3.578.817-2.25 0-3.953-.996-1.704-.996-2.653-2.836-.949-1.84-.949-4.371 0-1.946.566-3.473.567-1.527 1.59-2.59 1.024-1.062 2.383-1.617 1.36-.555 2.945-.555 1.36 0 2.532.395 1.171.394 2.082 1.113.91.719 1.488 1.707.578.988.742 2.176zm1.924-5.172h3.328v16h-3.328v-16zm8.705 16.227q-1.148 0-2.046-.403-.899-.402-1.418-1.195-.52-.793-.52-1.98 0-1 .367-1.68.367-.68 1-1.094.633-.414 1.442-.625.808-.21 1.699-.297 1.047-.11 1.687-.207.64-.098.93-.293.29-.195.29-.578v-.047q0-.742-.466-1.148-.465-.407-1.316-.407-.899 0-1.43.395-.531.394-.703.988l-3.078-.25q.234-1.094.922-1.894.687-.801 1.777-1.235 1.09-.433 2.527-.433 1 0 1.918.234.918.235 1.633.727t1.13 1.261q.413.77.413 1.84V486h-3.156v-1.664h-.094q-.289.562-.773.988-.485.426-1.164.664-.68.239-1.57.239zm.954-2.297q.734 0 1.296-.293.563-.293.883-.793.32-.5.32-1.133v-1.274q-.156.102-.425.184-.27.082-.606.149-.336.066-.672.117l-.609.09q-.586.086-1.023.273-.438.188-.68.504-.242.316-.242.785 0 .68.496 1.035.496.356 1.261.356zm13.111 2.304q-1.844 0-3.168-.785t-2.031-2.183q-.707-1.399-.707-3.22 0-1.843.715-3.237.714-1.395 2.035-2.18 1.32-.785 3.14-.785 1.57 0 2.75.57t1.868 1.602q.687 1.03.757 2.421h-3.14q-.133-.898-.7-1.449-.566-.55-1.48-.55-.773 0-1.348.417-.574.418-.894 1.215-.32.797-.32 1.93 0 1.148.316 1.953.316.805.894 1.227.579.422 1.352.422.57 0 1.027-.235.457-.234.758-.683.301-.45.395-1.082h3.14q-.078 1.375-.746 2.418-.668 1.043-1.84 1.628-1.171.586-2.773.586zm10.127-.234h-3.328v-12h3.328v12zm-1.648-13.547q-.743 0-1.274-.496t-.531-1.191q0-.688.531-1.184t1.266-.496q.75 0 1.277.496.528.496.528 1.184 0 .695-.528 1.191-.527.496-1.27.496zm9.072 13.781q-1.851 0-3.183-.754-1.332-.753-2.051-2.14-.719-1.387-.719-3.285 0-1.852.719-3.25.719-1.399 2.027-2.18 1.309-.781 3.074-.781 1.188 0 2.215.379 1.028.379 1.797 1.136.77.758 1.2 1.903.429 1.144.429 2.675v.915h-10.133v-2.063h7q0-.719-.312-1.273-.313-.555-.864-.871-.55-.317-1.277-.317-.758 0-1.34.348-.582.347-.91.93-.328.582-.336 1.292v1.961q0 .891.332 1.54.332.648.941 1 .61.351 1.446.351.555 0 1.015-.156.461-.156.79-.469.328-.313.5-.766l3.078.204q-.235 1.109-.957 1.933-.723.824-1.86 1.281-1.136.457-2.62.457zM158.63 486h-3.328v-12h3.226v2.094h.125q.329-1.117 1.102-1.692.773-.574 1.781-.574.25 0 .54.031.288.032.507.086v2.953q-.234-.07-.648-.125-.414-.054-.758-.054-.735 0-1.309.316-.574.317-.906.88-.332.562-.332 1.296V486z" fill="#2E1C00" fill-rule="nonzero"></path><rect width="204" height="38" rx="6.5" transform="translate(413.000000, 503.000000)" fill="#BADBFF"></rect><rect width="204" height="97" rx="6.5" transform="translate(413.000000, 503.000000)" fill="#BADBFF"></rect><path d="M423.962 528v-9.36h2.977q1.404 0 2.21.65t.806 1.768q0 .858-.481 1.391t-1.3.598v.117q.91.065 1.43.637.52.572.52 1.508 0 .624-.215 1.118-.214.494-.61.845-.397.351-.969.54-.572.188-1.287.188h-3.081zm2.977-4.16h-1.391v2.808h1.391q.728 0 1.131-.37.403-.371.403-1.034t-.403-1.034q-.403-.37-1.131-.37zm-1.391-1.339h1.365q.637 0 1.014-.338t.377-.923q0-.585-.37-.917-.371-.331-1.008-.331h-1.378v2.509zm6.227-1.651h1.625v4.459q0 1.404 1.3 1.404t1.3-1.404v-4.459h1.625v4.472q0 1.339-.767 2.073-.767.735-2.158.735t-2.158-.741q-.767-.741-.767-2.067v-4.472zm10.803 7.28q-.702 0-1.274-.195-.572-.195-.975-.559-.403-.364-.624-.877-.221-.514-.221-1.151v-1.833q0-.637.221-1.15.221-.514.624-.878t.975-.565q.572-.202 1.274-.202.624 0 1.157.175.533.176.936.508.403.331.67.793.266.461.357 1.046h-1.625q-.091-.494-.494-.8-.403-.305-1.001-.305-.689 0-1.079.364t-.39 1.014v1.833q0 .637.384 1.001.383.364 1.085.364.585 0 .995-.305.409-.306.5-.8h1.625q-.091.585-.357 1.047-.267.461-.677.793-.409.331-.935.507-.527.175-1.151.175zm4.862-.13v-9.36h1.625v5.031h1.144l1.781-2.821h1.82l-2.21 3.484 2.249 3.666h-1.859l-1.781-2.938h-1.144V528h-1.625zm7.553-2.678v-1.807q0-.637.221-1.157t.624-.884q.403-.364.975-.559.572-.195 1.287-.195.702 0 1.267.202.566.201.969.565.403.364.624.884.221.52.221 1.157v1.3h-4.576v.468q0 .728.397 1.131.396.403 1.098.403.52 0 .897-.169t.533-.468h1.599q-.117.442-.39.8-.273.357-.67.61-.396.254-.897.39-.5.137-1.072.137-.702 0-1.28-.195-.579-.195-.982-.565-.403-.371-.624-.891-.221-.52-.221-1.157zm1.612-1.807v.221h2.99v-.208q0-.715-.397-1.111-.396-.397-1.098-.397-.702 0-1.099.397-.396.396-.396 1.098zm5.98-1.196v-1.469h1.976v-2.21h1.625v2.21h2.717v1.469h-2.717v3.471q0 .338.202.54.201.201.565.201h1.82V528h-1.937q-1.053 0-1.664-.598t-.611-1.612v-3.471h-1.976zm7.527 5.681l2.522-9.36h2.197l2.457 9.36h-1.677l-.559-2.353h-2.717l-.559 2.353h-1.664zm2.535-3.64h2.093l-.793-3.341q-.052-.234-.098-.468-.045-.234-.071-.416l-.052-.416h-.065l-.052.416q-.026.182-.065.416-.039.234-.104.468l-.793 3.341zm8.931 3.77q-.702 0-1.274-.195-.572-.195-.975-.559-.403-.364-.624-.877-.221-.514-.221-1.151v-1.833q0-.637.221-1.15.221-.514.624-.878t.975-.565q.572-.202 1.274-.202.624 0 1.157.175.533.176.936.508.403.331.67.793.266.461.357 1.046h-1.625q-.091-.494-.494-.8-.403-.305-1.001-.305-.689 0-1.079.364t-.39 1.014v1.833q0 .637.384 1.001.383.364 1.085.364.585 0 .995-.305.409-.306.5-.8h1.625q-.091.585-.357 1.047-.267.461-.677.793-.409.331-.935.507-.527.175-1.151.175zm7.8 0q-.702 0-1.274-.195-.572-.195-.975-.559-.403-.364-.624-.877-.221-.514-.221-1.151v-1.833q0-.637.221-1.15.221-.514.624-.878t.975-.565q.572-.202 1.274-.202.624 0 1.157.175.533.176.936.508.403.331.67.793.266.461.357 1.046h-1.625q-.091-.494-.494-.8-.403-.305-1.001-.305-.689 0-1.079.364t-.39 1.014v1.833q0 .637.384 1.001.383.364 1.085.364.585 0 .995-.305.409-.306.5-.8h1.625q-.091.585-.358 1.047-.266.461-.675.793-.41.331-.936.507-.527.175-1.151.175zm4.615-2.808v-1.807q0-.637.221-1.157t.624-.884q.403-.364.975-.559.572-.195 1.287-.195.702 0 1.267.202.566.201.969.565.403.364.624.884.221.52.221 1.157v1.3h-4.576v.468q0 .728.397 1.131.396.403 1.098.403.52 0 .897-.169t.533-.468h1.599q-.117.442-.39.8-.273.357-.67.61-.396.254-.897.39-.5.137-1.072.137-.702 0-1.28-.195-.579-.195-.982-.565-.403-.371-.624-.891-.221-.52-.221-1.157zm1.612-1.807v.221h2.99v-.208q0-.715-.397-1.111-.396-.397-1.098-.397-.702 0-1.099.397-.396.396-.396 1.098zm6.149 2.652h1.664q.078.338.403.526.325.189.806.189h.52q.611 0 .942-.24.332-.241.332-.657 0-.715-1.105-.871l-1.014-.117q-1.222-.156-1.807-.676t-.585-1.495q0-1.014.708-1.56.709-.546 2.035-.546h.533q1.183 0 1.905.5.721.501.851 1.398h-1.664q-.065-.299-.358-.475-.292-.175-.734-.175h-.533q-1.144 0-1.144.806 0 .689.962.806l1.053.143q1.274.156 1.885.696.611.539.611 1.514 0 1.053-.741 1.625-.741.572-2.132.572h-.52q-1.261 0-2.009-.514-.747-.513-.864-1.449zm7.8 0h1.664q.078.338.403.526.325.189.806.189h.52q.611 0 .942-.24.332-.241.332-.657 0-.715-1.105-.871l-1.014-.117q-1.222-.156-1.807-.676t-.585-1.495q0-1.014.709-1.56.708-.546 2.034-.546h.533q1.183 0 1.904.5.722.501.852 1.398h-1.664q-.065-.299-.357-.475-.293-.175-.735-.175h-.533q-1.144 0-1.144.806 0 .689.962.806l1.053.143q1.274.156 1.885.696.611.539.611 1.514 0 1.053-.741 1.625-.741.572-2.132.572h-.52q-1.261 0-2.009-.514-.747-.513-.864-1.449zm11.011 1.963q-.702 0-1.274-.202-.572-.201-.975-.578-.403-.377-.624-.91-.221-.533-.221-1.183v-3.874q0-.65.221-1.183t.624-.91q.403-.377.975-.578.572-.202 1.274-.202.689 0 1.241.195.553.195.956.553.403.357.637.87.234.514.26 1.138h-1.625q-.026-.611-.423-.955-.396-.345-1.046-.345-.676 0-1.073.377-.396.377-.396 1.04v3.874q0 .663.384 1.04.383.377 1.085.377.65 0 1.046-.357.397-.358.423-.956h1.625q-.065 1.274-.89 2.022-.826.747-2.204.747zm7.735 0q-.702 0-1.28-.208-.579-.208-.982-.579-.403-.37-.624-.89-.221-.52-.221-1.157v-1.755q0-.637.221-1.157t.624-.89q.403-.371.981-.572.579-.202 1.281-.202t1.28.202q.579.201.982.572.403.37.624.89.221.52.221 1.157v1.755q0 .637-.221 1.163-.221.527-.624.898-.403.37-.975.572-.572.201-1.287.201zm-1.482-4.589v1.755q0 .65.397 1.027.396.377 1.085.377t1.086-.377q.396-.377.396-1.027v-1.755q0-.65-.397-1.027-.396-.377-1.085-.377t-1.085.377q-.397.377-.397 1.027zm6.318 4.459v-7.15h1.534v1.235h.117q.13-.663.624-1.014t1.274-.351q1.105 0 1.729.715.624.715.624 1.898V528h-1.625v-4.472q0-.663-.351-1.034-.351-.37-.962-.37-.624 0-.981.384-.358.383-.358 1.046V528h-1.625zm7.449-5.681v-1.469h1.976v-2.21h1.625v2.21h2.717v1.469h-2.717v3.471q0 .338.202.54.201.201.565.201h1.82V528h-1.937q-1.053 0-1.664-.598t-.611-1.612v-3.471h-1.976zm8.45-1.469h1.534v1.235h.117q.13-.65.65-1.008.52-.357 1.326-.357 1.157 0 1.807.715.65.715.65 1.976v.52h-1.703v-.377q0-.689-.377-1.072-.377-.384-1.04-.384-.624 0-.981.39-.358.39-.358 1.066V528h-1.625v-7.15zm10.465 7.28q-.702 0-1.28-.208-.579-.208-.982-.579-.403-.37-.624-.89-.221-.52-.221-1.157v-1.755q0-.637.221-1.157t.624-.89q.403-.371.981-.572.579-.202 1.281-.202t1.28.202q.579.201.982.572.403.37.624.89.221.52.221 1.157v1.755q0 .637-.221 1.163-.221.527-.624.898-.403.37-.975.572-.572.201-1.287.201zm-1.482-4.589v1.755q0 .65.396 1.027.397.377 1.086.377.689 0 1.086-.377.396-.377.396-1.027v-1.755q0-.65-.396-1.027-.397-.377-1.086-.377-.689 0-1.086.377-.396.377-.396 1.027zm8.06-3.484h-2.275v-1.469h3.9v7.098q0 .403.228.624.227.221.604.221h2.132V528h-2.249q-1.092 0-1.716-.611-.624-.611-.624-1.703v-5.629zM423.962 545v-9.36h2.977q1.404 0 2.21.65t.806 1.768q0 .858-.481 1.391t-1.3.598v.117q.91.065 1.43.637.52.572.52 1.508 0 .624-.215 1.118-.214.494-.61.845-.397.351-.969.54-.572.188-1.287.188h-3.081zm2.977-4.16h-1.391v2.808h1.391q.728 0 1.131-.37.403-.371.403-1.034t-.403-1.034q-.403-.37-1.131-.37zm-1.391-1.339h1.365q.637 0 1.014-.338t.377-.923q0-.585-.37-.917-.371-.331-1.008-.331h-1.378v2.509zm6.227-1.651h1.625v4.459q0 1.404 1.3 1.404t1.3-1.404v-4.459h1.625v4.472q0 1.339-.767 2.073-.767.735-2.158.735t-2.158-.741q-.767-.741-.767-2.067v-4.472zm10.803 7.28q-.702 0-1.274-.195-.572-.195-.975-.559-.403-.364-.624-.877-.221-.514-.221-1.151v-1.833q0-.637.221-1.15.221-.514.624-.878t.975-.565q.572-.202 1.274-.202.624 0 1.157.175.533.176.936.508.403.331.67.793.266.461.357 1.046h-1.625q-.091-.494-.494-.8-.403-.305-1.001-.305-.689 0-1.079.364t-.39 1.014v1.833q0 .637.384 1.001.383.364 1.085.364.585 0 .995-.305.409-.306.5-.8h1.625q-.091.585-.357 1.047-.267.461-.677.793-.409.331-.935.507-.527.175-1.151.175zm4.862-.13v-9.36h1.625v5.031h1.144l1.781-2.821h1.82l-2.21 3.484 2.249 3.666h-1.859l-1.781-2.938h-1.144V545h-1.625zm7.553-2.678v-1.807q0-.637.221-1.157t.624-.884q.403-.364.975-.559.572-.195 1.287-.195.702 0 1.267.202.566.201.969.565.403.364.624.884.221.52.221 1.157v1.3h-4.576v.468q0 .728.397 1.131.396.403 1.098.403.52 0 .897-.169t.533-.468h1.599q-.117.442-.39.8-.273.357-.67.61-.396.254-.897.39-.5.137-1.072.137-.702 0-1.28-.195-.579-.195-.982-.565-.403-.371-.624-.891-.221-.52-.221-1.157zm1.612-1.807v.221h2.99v-.208q0-.715-.397-1.111-.396-.397-1.098-.397-.702 0-1.099.397-.396.396-.396 1.098zm5.98-1.196v-1.469h1.976v-2.21h1.625v2.21h2.717v1.469h-2.717v3.471q0 .338.202.54.201.201.565.201h1.82V545h-1.937q-1.053 0-1.664-.598t-.611-1.612v-3.471h-1.976zm8.112-3.679h2.002l2.249 6.227q.078.208.137.481l.11.52q.052.299.091.598h.156l-.026-.195q-.026-.195-.058-.494-.033-.299-.065-.663-.033-.364-.033-.702v-5.772h1.443V545h-2.002l-2.21-6.24q-.091-.26-.156-.533t-.104-.52q-.052-.273-.091-.546h-.156q.039.312.078.663.026.299.052.657.026.357.026.734V545h-1.443v-9.36zm7.566 7.358q0-.533.195-.956.195-.422.559-.721.364-.299.877-.462.514-.162 1.151-.162h1.794v-.611q0-.494-.37-.787-.371-.292-1.034-.292-.533 0-.897.195t-.468.533h-1.586q.078-.468.325-.839.247-.37.637-.63t.897-.403q.507-.143 1.105-.143.689 0 1.248.163.559.162.949.467.39.306.605.741.214.436.214.969V545h-1.534v-1.404h-.117q-.117.702-.728 1.118-.611.416-1.521.416-1.053 0-1.677-.578-.624-.579-.624-1.554zm1.625-.195q0 .494.332.774.331.279.929.279.728 0 1.209-.357.481-.358.481-.904v-.832h-1.781q-.546 0-.858.273-.312.273-.312.767zM487.48 545h-1.443v-7.15h1.326v1.04h.104q.039-.546.351-.858.312-.312.845-.312.494 0 .767.299t.39.871h.104q.039-.546.351-.858.312-.312.845-.312.65 0 1.053.487.403.488.403 1.333V545h-1.456v-5.33q0-.806-.611-.806-.299 0-.462.221-.162.221-.162.611V545h-1.157v-5.33q0-.39-.175-.598-.176-.208-.475-.208-.312 0-.455.221-.143.221-.143.611V545zm6.513-2.678v-1.807q0-.637.221-1.157t.624-.884q.403-.364.975-.559.572-.195 1.287-.195.702 0 1.267.202.566.201.969.565.403.364.624.884.221.52.221 1.157v1.3h-4.576v.468q0 .728.397 1.131.396.403 1.098.403.52 0 .897-.169t.533-.468h1.599q-.117.442-.39.8-.273.357-.67.61-.396.254-.897.39-.5.137-1.072.137-.702 0-1.28-.195-.579-.195-.982-.565-.403-.371-.624-.891-.221-.52-.221-1.157zm1.612-1.807v.221h2.99v-.208q0-.715-.397-1.111-.396-.397-1.098-.397-.702 0-1.099.397-.396.396-.396 1.098zM429.877 562h-5.759v-9.36h5.759v1.43h-4.134v2.405h3.679v1.43h-3.679v2.665h4.134V562zm1.859 0v-7.15h1.534v1.235h.117q.13-.663.624-1.014t1.274-.351q1.105 0 1.729.715.624.715.624 1.898V562h-1.625v-4.472q0-.663-.351-1.034-.351-.37-.962-.37-.624 0-.981.384-.358.383-.358 1.046V562h-1.625zm7.527-2.002q0-.533.195-.956.195-.422.559-.721.364-.299.877-.462.514-.162 1.151-.162h1.794v-.611q0-.494-.37-.787-.371-.292-1.034-.292-.533 0-.897.195t-.468.533h-1.586q.078-.468.325-.839.247-.37.637-.63t.897-.403q.507-.143 1.105-.143.689 0 1.248.163.559.162.949.467.39.306.605.741.214.436.214.969V562h-1.534v-1.404h-.117q-.117.702-.728 1.118-.611.416-1.521.416-1.053 0-1.677-.578-.624-.579-.624-1.554zm1.625-.195q0 .494.332.774.331.279.929.279.728 0 1.209-.357.481-.358.481-.904v-.832h-1.781q-.546 0-.858.273-.312.273-.312.767zm6.461 2.197v-9.36h1.638v2.158q0 .182-.007.41-.006.227-.019.422-.026.221-.039.455h.117q.13-.637.63-1.001.501-.364 1.281-.364.559 0 1.014.195.455.195.774.559.318.364.493.877.176.514.176 1.164v1.781q0 .65-.175 1.176-.176.527-.495.898-.318.37-.773.565-.455.195-1.014.195-.78 0-1.28-.364-.501-.364-.631-1.014h-.117V562h-1.573zm1.638-4.446v1.742q0 .637.37 1.027.371.39 1.008.39.663 0 1.04-.396.377-.397.377-1.06v-1.703q0-.663-.377-1.046-.377-.384-1.04-.384-.624 0-1.001.39-.377.39-.377 1.04zm7.891-3.497h-2.275v-1.469h3.9v7.098q0 .403.228.624.227.221.604.221h2.132V562h-2.249q-1.092 0-1.716-.611-.624-.611-.624-1.703v-5.629zm5.915 5.265v-1.807q0-.637.221-1.157t.624-.884q.403-.364.975-.559.572-.195 1.287-.195.702 0 1.268.202.565.201.968.565.403.364.624.884.221.52.221 1.157v1.3h-4.576v.468q0 .728.397 1.131.396.403 1.098.403.52 0 .897-.169t.533-.468h1.599q-.117.442-.39.8-.273.357-.67.61-.396.254-.897.39-.5.137-1.072.137-.702 0-1.28-.195-.579-.195-.982-.565-.403-.371-.624-.891-.221-.52-.221-1.157zm1.612-1.807v.221h2.99v-.208q0-.715-.397-1.111-.396-.397-1.098-.397-.702 0-1.099.397-.396.396-.396 1.098zm6.188 1.742v-3.874q0-.637.221-1.163.221-.527.63-.898.41-.37.982-.572.572-.201 1.274-.201 1.3 0 2.125.676.826.676 1.008 1.898h-1.638q-.078-.52-.481-.819-.403-.299-1.014-.299-.689 0-1.085.37-.397.371-.397 1.008v3.874q0 .663.397 1.053.396.39 1.085.39t1.086-.39q.396-.39.396-1.053v-.897h-1.651v-1.391h3.276v2.288q0 .65-.221 1.183t-.624.91q-.403.377-.981.578-.579.202-1.281.202t-1.274-.208q-.572-.208-.981-.585-.41-.377-.631-.904-.221-.526-.221-1.176zm9.685-5.2h-2.275v-1.469h3.9v7.098q0 .403.227.624.228.221.605.221h2.132V562h-2.249q-1.092 0-1.716-.611-.624-.611-.624-1.703v-5.629zm5.785 5.941q0-.533.195-.956.195-.422.559-.721.364-.299.877-.462.514-.162 1.151-.162h1.794v-.611q0-.494-.37-.787-.371-.292-1.034-.292-.533 0-.897.195t-.468.533h-1.586q.078-.468.325-.839.247-.37.637-.63t.897-.403q.507-.143 1.105-.143.689 0 1.248.163.559.162.949.467.39.306.605.741.214.436.214.969V562h-1.534v-1.404h-.117q-.117.702-.728 1.118-.611.416-1.521.416-1.053 0-1.677-.578-.624-.579-.624-1.554zm1.625-.195q0 .494.332.774.331.279.929.279.728 0 1.209-.357.481-.358.481-.904v-.832h-1.781q-.546 0-.858.273-.312.273-.312.767zm9.49 2.327q-.702 0-1.274-.195-.572-.195-.975-.559-.403-.364-.624-.877-.221-.514-.221-1.151v-1.833q0-.637.221-1.15.221-.514.624-.878t.975-.565q.572-.202 1.274-.202.624 0 1.157.175.533.176.936.508.403.331.67.793.266.461.357 1.046h-1.625q-.091-.494-.494-.8-.403-.305-1.001-.305-.689 0-1.079.364t-.39 1.014v1.833q0 .637.383 1.001.384.364 1.086.364.585 0 .995-.305.409-.306.5-.8h1.625q-.091.585-.358 1.047-.266.461-.675.793-.41.331-.936.507-.527.175-1.151.175zm4.901-.13v-1.482h2.561v-4.199h-2.236v-1.469h3.796v5.668h2.067V562h-6.188zm2.093-9.087q0-.377.253-.618.254-.24.67-.24h.338q.416 0 .67.24.253.241.253.618 0 .39-.253.624-.254.234-.683.234h-.325q-.416 0-.67-.234-.253-.234-.253-.624zm5.421 6.409v-1.807q0-.637.221-1.157t.624-.884q.403-.364.975-.559.572-.195 1.287-.195.702 0 1.267.202.566.201.969.565.403.364.624.884.221.52.221 1.157v1.3h-4.576v.468q0 .728.397 1.131.396.403 1.098.403.52 0 .897-.169t.533-.468h1.599q-.117.442-.39.8-.273.357-.67.61-.396.254-.896.39-.501.137-1.073.137-.702 0-1.28-.195-.579-.195-.982-.565-.403-.371-.624-.891-.221-.52-.221-1.157zm1.612-1.807v.221h2.99v-.208q0-.715-.397-1.111-.396-.397-1.098-.397-.702 0-1.099.397-.396.396-.396 1.098zm6.63-2.665h1.534v1.235h.117q.13-.65.65-1.008.52-.357 1.326-.357 1.157 0 1.807.715.65.715.65 1.976v.52h-1.703v-.377q0-.689-.377-1.072-.377-.384-1.04-.384-.624 0-.981.39-.358.39-.358 1.066V562h-1.625v-7.15zm7.852-2.21h1.625v7.852h4.082V562h-5.707v-9.36zm7.592 9.36v-1.482h2.561v-4.199h-2.236v-1.469h3.796v5.668h2.067V562h-6.188zm2.093-9.087q0-.377.254-.618.253-.24.669-.24h.338q.416 0 .67.24.253.241.253.618 0 .39-.254.624-.253.234-.682.234h-.325q-.416 0-.67-.234-.253-.234-.253-.624zm7.293 4.199h-1.963v-1.469h1.963v-.962q0-.936.618-1.489.617-.552 1.657-.552h2.093v1.43h-2.054q-.312 0-.494.175-.182.176-.182.475v.923h2.73v1.469h-2.73V562h-1.638v-4.888zm5.928 2.21v-1.807q0-.637.221-1.157t.624-.884q.403-.364.975-.559.572-.195 1.287-.195.702 0 1.267.202.566.201.969.565.403.364.624.884.221.52.221 1.157v1.3h-4.576v.468q0 .728.396 1.131.397.403 1.099.403.52 0 .897-.169t.533-.468h1.599q-.117.442-.39.8-.273.357-.67.61-.396.254-.896.39-.501.137-1.073.137-.702 0-1.28-.195-.579-.195-.982-.565-.403-.371-.624-.891-.221-.52-.221-1.157zm1.612-1.807v.221h2.99v-.208q0-.715-.397-1.111-.396-.397-1.098-.397-.702 0-1.099.397-.396.396-.396 1.098zm9.36 4.615q-.702 0-1.274-.202-.572-.201-.975-.578-.403-.377-.624-.91-.221-.533-.221-1.183v-3.874q0-.65.221-1.183t.624-.91q.403-.377.975-.578.572-.202 1.274-.202.689 0 1.241.195.553.195.956.553.403.357.637.87.234.514.26 1.138h-1.625q-.026-.611-.423-.955-.396-.345-1.046-.345-.676 0-1.073.377-.396.377-.396 1.04v3.874q0 .663.384 1.04.383.377 1.085.377.65 0 1.046-.357.397-.358.423-.956h1.625q-.065 1.274-.89 2.022-.826.747-2.204.747zm7.046-.533l-2.756-6.747h1.781l1.404 3.809q.091.234.15.487.058.254.084.475.039.247.065.494h.104q.013-.234.052-.494.026-.221.078-.475.052-.253.13-.487l1.326-3.809h1.716l-3.406 9.36h-1.716l.988-2.613zm8.567.533q-.702 0-1.274-.195-.572-.195-.975-.559-.403-.364-.624-.877-.221-.514-.221-1.151v-1.833q0-.637.221-1.15.221-.514.624-.878t.975-.565q.572-.202 1.274-.202.624 0 1.157.175.533.176.936.508.403.331.67.793.266.461.357 1.046h-1.625q-.091-.494-.494-.8-.403-.305-1.001-.305-.689 0-1.079.364t-.39 1.014v1.833q0 .637.384 1.001.383.364 1.085.364.585 0 .995-.305.409-.306.5-.8h1.625q-.091.585-.357 1.047-.267.461-.677.793-.409.331-.936.507-.526.175-1.15.175zm6.5-8.073h-2.275v-1.469h3.9v7.098q0 .403.227.624.228.221.605.221h2.132V562h-2.249q-1.092 0-1.716-.611-.624-.611-.624-1.703v-5.629zm5.915 5.265v-1.807q0-.637.221-1.157t.624-.884q.403-.364.975-.559.572-.195 1.287-.195.702 0 1.267.202.566.201.969.565.403.364.624.884.221.52.221 1.157v1.3h-4.576v.468q0 .728.396 1.131.397.403 1.099.403.52 0 .897-.169t.533-.468h1.599q-.117.442-.39.8-.273.357-.67.61-.396.254-.896.39-.501.137-1.073.137-.702 0-1.28-.195-.579-.195-.982-.565-.403-.371-.624-.891-.221-.52-.221-1.157zm1.612-1.807v.221h2.99v-.208q0-.715-.397-1.111-.396-.397-1.098-.397-.702 0-1.099.397-.396.396-.396 1.098zM429.877 579h-5.759v-9.36h5.759v1.43h-4.134v2.405h3.679v1.43h-3.679v2.665h4.134V579zm1.859 0v-7.15h1.534v1.235h.117q.13-.663.624-1.014t1.274-.351q1.105 0 1.729.715.624.715.624 1.898V579h-1.625v-4.472q0-.663-.351-1.034-.351-.37-.962-.37-.624 0-.981.384-.358.383-.358 1.046V579h-1.625zm7.527-2.002q0-.533.195-.956.195-.422.559-.721.364-.299.877-.462.514-.162 1.151-.162h1.794v-.611q0-.494-.37-.787-.371-.292-1.034-.292-.533 0-.897.195t-.468.533h-1.586q.078-.468.325-.839.247-.37.637-.63t.897-.403q.507-.143 1.105-.143.689 0 1.248.163.559.162.949.467.39.306.605.741.214.436.214.969V579h-1.534v-1.404h-.117q-.117.702-.728 1.118-.611.416-1.521.416-1.053 0-1.677-.578-.624-.579-.624-1.554zm1.625-.195q0 .494.332.774.331.279.929.279.728 0 1.209-.357.481-.358.481-.904v-.832h-1.781q-.546 0-.858.273-.312.273-.312.767zm6.461 2.197v-9.36h1.638v2.158q0 .182-.007.41-.006.227-.019.422-.026.221-.039.455h.117q.13-.637.63-1.001.501-.364 1.281-.364.559 0 1.014.195.455.195.774.559.318.364.493.877.176.514.176 1.164v1.781q0 .65-.175 1.176-.176.527-.495.898-.318.37-.773.565-.455.195-1.014.195-.78 0-1.28-.364-.501-.364-.631-1.014h-.117V579h-1.573zm1.638-4.446v1.742q0 .637.37 1.027.371.39 1.008.39.663 0 1.04-.396.377-.397.377-1.06v-1.703q0-.663-.377-1.046-.377-.384-1.04-.384-.624 0-1.001.39-.377.39-.377 1.04zm7.891-3.497h-2.275v-1.469h3.9v7.098q0 .403.228.624.227.221.604.221h2.132V579h-2.249q-1.092 0-1.716-.611-.624-.611-.624-1.703v-5.629zm5.915 5.265v-1.807q0-.637.221-1.157t.624-.884q.403-.364.975-.559.572-.195 1.287-.195.702 0 1.268.202.565.201.968.565.403.364.624.884.221.52.221 1.157v1.3h-4.576v.468q0 .728.397 1.131.396.403 1.098.403.52 0 .897-.169t.533-.468h1.599q-.117.442-.39.8-.273.357-.67.61-.396.254-.897.39-.5.137-1.072.137-.702 0-1.28-.195-.579-.195-.982-.565-.403-.371-.624-.891-.221-.52-.221-1.157zm1.612-1.807v.221h2.99v-.208q0-.715-.397-1.111-.396-.397-1.098-.397-.702 0-1.099.397-.396.396-.396 1.098zm6.682-4.875h1.625v7.852h4.082V579h-5.707v-9.36zm10.413 9.49q-.702 0-1.28-.208-.579-.208-.982-.579-.403-.37-.624-.89-.221-.52-.221-1.157v-1.755q0-.637.221-1.157t.624-.89q.403-.371.981-.572.579-.202 1.281-.202t1.28.202q.579.201.982.572.403.37.624.89.221.52.221 1.157v1.755q0 .637-.221 1.163-.221.527-.624.898-.403.37-.975.572-.572.201-1.287.201zm-1.482-4.589v1.755q0 .65.397 1.027.396.377 1.085.377t1.086-.377q.396-.377.396-1.027v-1.755q0-.65-.397-1.027-.396-.377-1.085-.377t-1.086.377q-.396.377-.396 1.027zm6.136 1.183v-1.235q0-.624.175-1.138.176-.513.501-.877t.78-.559q.455-.195 1.014-.195.806 0 1.326.384.52.383.65 1.046h.091v-1.3h1.56v6.734q0 .598-.208 1.086-.208.487-.598.825-.39.338-.942.526-.553.189-1.229.189h-1.911v-1.352h1.911q.624 0 .988-.344.364-.345.364-.93v-.169l.052-1.352h-.078q-.13.663-.657 1.047-.526.383-1.319.383-.559 0-1.014-.202-.455-.201-.78-.559-.325-.357-.5-.87-.176-.514-.176-1.138zm1.638-1.196v1.157q0 .65.377 1.02.377.371 1.04.371.65 0 1.034-.37.383-.371.383-1.021v-1.157q0-.65-.383-1.027-.384-.377-1.034-.377-.663 0-1.04.377t-.377 1.027zm6.162 1.196v-1.235q0-.624.175-1.138.176-.513.501-.877t.78-.559q.455-.195 1.014-.195.806 0 1.326.384.52.383.65 1.046h.091v-1.3h1.56v6.734q0 .598-.208 1.086-.208.487-.598.825-.39.338-.942.526-.553.189-1.229.189h-1.911v-1.352h1.911q.624 0 .988-.344.364-.345.364-.93v-.169l.052-1.352h-.078q-.13.663-.656 1.047-.527.383-1.32.383-.559 0-1.014-.202-.455-.201-.78-.559-.325-.357-.5-.87-.176-.514-.176-1.138zm1.638-1.196v1.157q0 .65.377 1.02.377.371 1.04.371.65 0 1.034-.37.383-.371.383-1.021v-1.157q0-.65-.383-1.027-.384-.377-1.034-.377-.663 0-1.04.377t-.377 1.027zm6.487 4.472v-1.482h2.561v-4.199h-2.236v-1.469h3.796v5.668h2.067V579h-6.188zm2.093-9.087q0-.377.253-.618.254-.24.67-.24h.338q.416 0 .67.24.253.241.253.618 0 .39-.253.624-.254.234-.683.234h-.325q-.416 0-.67-.234-.253-.234-.253-.624zm5.564 9.087v-7.15h1.534v1.235h.117q.13-.663.624-1.014t1.274-.351q1.105 0 1.729.715.624.715.624 1.898V579h-1.625v-4.472q0-.663-.351-1.034-.351-.37-.962-.37-.624 0-.982.384-.357.383-.357 1.046V579h-1.625zm7.618-3.276v-1.235q0-.624.175-1.138.176-.513.501-.877t.78-.559q.455-.195 1.014-.195.806 0 1.326.384.52.383.65 1.046h.091v-1.3h1.56v6.734q0 .598-.208 1.086-.208.487-.598.825-.39.338-.942.526-.553.189-1.229.189h-1.911v-1.352h1.911q.624 0 .988-.344.364-.345.364-.93v-.169l.052-1.352h-.078q-.13.663-.656 1.047-.527.383-1.32.383-.559 0-1.014-.202-.455-.201-.78-.559-.325-.357-.5-.87-.176-.514-.176-1.138zm1.638-1.196v1.157q0 .65.377 1.02.377.371 1.04.371.65 0 1.034-.37.383-.371.383-1.021v-1.157q0-.65-.384-1.027-.383-.377-1.033-.377-.663 0-1.04.377t-.377 1.027z" fill="#2C2C2C" fill-rule="nonzero"></path><path d="M58.594 518.602h-3.242q-.093-.946-.804-1.47-.711-.523-1.93-.523-.828 0-1.399.23-.57.231-.87.638-.301.406-.301.921-.016.43.183.75.2.32.551.551.352.23.813.399.46.168.984.285l1.437.344q1.047.234 1.922.625.875.39 1.516.96.64.57.996 1.344.355.774.363 1.774-.008 1.468-.746 2.543-.738 1.074-2.125 1.664-1.387.59-3.34.59-1.937 0-3.37-.594-1.434-.594-2.235-1.762-.8-1.168-.84-2.894h3.273q.055.804.465 1.34.41.535 1.102.804.691.27 1.566.27.86 0 1.496-.25.637-.25.989-.696.351-.445.351-1.023 0-.54-.316-.906-.317-.368-.922-.625-.606-.258-1.48-.47l-1.743-.437q-2.023-.492-3.195-1.539-1.172-1.047-1.164-2.82-.008-1.453.777-2.54.785-1.085 2.16-1.694 1.375-.61 3.125-.61 1.782 0 3.114.61 1.332.609 2.074 1.695.742 1.086.765 2.516zm7.604 11.617q-1.75 0-3.113-.606-1.363-.605-2.149-1.672-.785-1.066-.808-2.464h3.406q.031.586.387 1.027.355.441.95.683.593.243 1.335.243.773 0 1.367-.274.594-.273.93-.758.336-.484.336-1.117 0-.64-.356-1.136-.355-.497-1.015-.778-.66-.281-1.567-.281H64.41v-2.484h1.492q.766 0 1.356-.266.59-.266.918-.738.328-.473.328-1.106 0-.601-.285-1.058-.285-.457-.797-.715-.512-.258-1.192-.258-.687 0-1.257.246-.57.246-.914.7-.344.452-.368 1.062h-3.242q.024-1.383.79-2.438.765-1.054 2.066-1.652 1.3-.598 2.941-.598 1.656 0 2.898.602 1.243.601 1.934 1.62.692 1.02.684 2.286.008 1.344-.832 2.242-.84.899-2.184 1.14v.126q1.766.226 2.691 1.223.926.996.918 2.488.008 1.367-.785 2.43-.793 1.062-2.183 1.671-1.39.61-3.188.61zM93.288 522q0 2.617-.988 4.453-.988 1.836-2.687 2.8-1.7.966-3.817.966-2.133 0-3.828-.969-1.695-.969-2.68-2.805-.984-1.836-.984-4.445 0-2.617.984-4.453.985-1.836 2.68-2.8 1.695-.966 3.828-.966 2.117 0 3.817.965 1.699.965 2.687 2.8.988 1.837.988 4.454zm-3.43 0q0-1.695-.503-2.86-.504-1.163-1.418-1.765-.914-.602-2.14-.602-1.227 0-2.141.602-.915.602-1.418 1.766-.504 1.164-.504 2.859t.504 2.86q.504 1.163 1.418 1.765.914.602 2.14.602 1.227 0 2.14-.602.915-.602 1.419-1.766.504-1.164.504-2.859zm8.495 1.063V530h-3.328v-12h3.172v2.117h.14q.399-1.047 1.336-1.66.938-.613 2.274-.613 1.25 0 2.18.547.93.547 1.445 1.558.515 1.012.515 2.41V530h-3.328v-7.047q.008-1.101-.562-1.723-.57-.62-1.57-.62-.672 0-1.184.288-.512.29-.797.84-.285.551-.293 1.324zm15.12 7.171q-1.852 0-3.184-.754-1.332-.753-2.051-2.14-.719-1.387-.719-3.285 0-1.852.719-3.25.719-1.399 2.027-2.18 1.309-.781 3.075-.781 1.187 0 2.214.379 1.028.379 1.797 1.136.77.758 1.2 1.903.43 1.144.43 2.676v.914h-10.134v-2.063h7q0-.719-.312-1.273-.313-.555-.863-.871-.551-.317-1.278-.317-.758 0-1.34.348-.582.347-.91.93-.328.582-.336 1.292v1.961q0 .891.332 1.54.332.648.942 1 .61.351 1.445.351.555 0 1.016-.156.46-.157.789-.469.328-.313.5-.766l3.078.203q-.235 1.11-.957 1.934-.723.824-1.86 1.281-1.136.457-2.62.457zm23.52-.234h-12.25v-2.008l7.984-11.203h-8V514h12.25v2.008l-7.993 11.203h8.008V530zm7.251.234q-1.82 0-3.144-.777t-2.043-2.172q-.719-1.394-.719-3.238 0-1.86.719-3.254.719-1.395 2.043-2.172 1.324-.777 3.144-.777t3.145.777q1.324.777 2.043 2.172.719 1.394.719 3.254 0 1.844-.72 3.238-.718 1.395-2.042 2.172-1.324.777-3.145.777zm.016-2.578q.828 0 1.383-.472.554-.473.84-1.293.285-.82.285-1.868 0-1.046-.285-1.867-.286-.82-.84-1.297-.555-.476-1.383-.476-.836 0-1.402.476-.567.477-.852 1.297-.285.82-.285 1.867 0 1.047.285 1.868.285.82.852 1.293.566.472 1.402.472zm10.69-4.593V530h-3.329v-12h3.172v2.117h.14q.4-1.047 1.337-1.66.937-.613 2.273-.613 1.25 0 2.18.547.93.547 1.445 1.558.516 1.012.516 2.41V530h-3.328v-7.047q.008-1.101-.563-1.723-.57-.62-1.57-.62-.672 0-1.184.288-.511.29-.796.84-.286.551-.293 1.324zm15.119 7.171q-1.852 0-3.184-.754-1.332-.753-2.05-2.14-.72-1.387-.72-3.285 0-1.852.72-3.25.718-1.399 2.027-2.18 1.308-.781 3.074-.781 1.188 0 2.215.379t1.797 1.136q.77.758 1.199 1.903.43 1.144.43 2.676v.914h-10.133v-2.063h7q0-.719-.313-1.273-.312-.555-.863-.871-.55-.317-1.277-.317-.758 0-1.34.348-.582.347-.91.93-.328.582-.336 1.292v1.961q0 .891.332 1.54.332.648.941 1 .61.351 1.446.351.554 0 1.015-.156.461-.157.79-.469.327-.313.5-.766l3.077.203q-.234 1.11-.957 1.934-.722.824-1.859 1.281-1.137.457-2.621.457z" fill="#2E1C00" fill-rule="nonzero"></path><path stroke="#455A64" stroke-width="6" stroke-linejoin="round" d="M934 541h94V426"></path><path d="M1073.669 565.685h-11.305v-1.015q.03-5.22.94-8.322.91-3.102 2.669-5.011 1.76-1.91 4.236-3.46 1.85-1.194 3.31-2.476 1.463-1.283 2.328-2.85.865-1.565.865-3.504 0-2.058-.985-3.61-.984-1.55-2.64-2.386-1.655-.835-3.654-.835-1.939 0-3.669.85t-2.834 2.506q-1.103 1.655-1.193 4.101h-12.17q.149-5.966 2.863-9.858 2.715-3.893 7.19-5.817 4.474-1.924 9.873-1.924 5.936 0 10.5 1.954t7.159 5.652q2.595 3.7 2.595 8.92 0 3.49-1.148 6.19-1.149 2.699-3.207 4.772-2.058 2.073-4.862 3.743-2.357 1.402-3.863 2.924-1.506 1.521-2.237 3.52-.731 1.998-.761 4.921v1.015zm-5.4 19.09q-2.982 0-5.085-2.102-2.103-2.103-2.073-5.057-.03-2.923 2.073-5.01 2.103-2.089 5.086-2.089 2.834 0 4.981 2.088 2.148 2.088 2.178 5.011-.03 1.97-1.03 3.595-.998 1.626-2.61 2.595-1.61.97-3.52.97zm-408.364-154.21h-3.537q-.102-1.03-.878-1.602-.776-.571-2.105-.571-.904 0-1.526.251-.622.252-.95.695-.328.443-.328 1.006-.017.469.2.818.217.35.601.6.384.252.886.435.503.184 1.074.312l1.568.375q1.142.255 2.097.681.955.426 1.653 1.049.7.622 1.087 1.466.388.843.396 1.934-.008 1.602-.814 2.774-.805 1.172-2.318 1.816-1.513.643-3.643.643-2.114 0-3.678-.648-1.564-.647-2.437-1.921-.874-1.275-.916-3.158h3.57q.06.878.508 1.462.447.583 1.201.877.755.294 1.71.294.937 0 1.631-.272.695-.273 1.078-.759.384-.486.384-1.116 0-.588-.345-.989-.345-.4-1.006-.682-.66-.281-1.615-.511l-1.9-.477q-2.208-.537-3.486-1.68-1.279-1.141-1.27-3.076-.009-1.585.848-2.77.856-1.185 2.356-1.85 1.5-.664 3.41-.664 1.943 0 3.396.665 1.453.664 2.262 1.849.81 1.185.836 2.744zm8.608 12.69q-2.02 0-3.473-.822-1.453-.822-2.238-2.335-.784-1.513-.784-3.584 0-2.02.784-3.545.785-1.526 2.212-2.378 1.428-.852 3.354-.852 1.295 0 2.416.413 1.12.413 1.96 1.24.84.827 1.308 2.075.47 1.249.47 2.92v.997h-11.055v-2.25h7.637q0-.785-.341-1.39-.341-.605-.942-.95-.6-.345-1.394-.345-.826 0-1.461.38-.635.378-.993 1.013-.358.635-.367 1.41v2.14q0 .972.363 1.679.362.707 1.027 1.09.664.384 1.576.384.605 0 1.108-.17.503-.17.861-.511.358-.341.546-.836l3.357.222q-.255 1.21-1.044 2.11-.788.899-2.028 1.397-1.24.499-2.86.499zM680.52 443h-3.63v-13.09h3.52v2.283h.136q.358-1.219 1.201-1.845.844-.626 1.944-.626.272 0 .588.034.315.034.554.093v3.222q-.256-.077-.708-.136-.451-.06-.826-.06-.802 0-1.428.345-.626.345-.989.959-.362.614-.362 1.415V443zm14.95-13.09h3.843L694.737 443h-4.09l-4.578-13.09h3.836l2.718 9.366h.137l2.71-9.367zm9.331 13.09h-3.63v-13.09h3.63V443zm-1.798-14.778q-.81 0-1.389-.542-.58-.54-.58-1.3 0-.75.58-1.29.58-.542 1.38-.542.819 0 1.394.541.575.542.575 1.292 0 .758-.575 1.3-.575.54-1.385.54zm10.611 15.034q-2.011 0-3.456-.857-1.445-.856-2.216-2.382-.771-1.526-.771-3.511 0-2.012.78-3.533t2.22-2.378q1.44-.856 3.426-.856 1.713 0 3 .622t2.037 1.747q.75 1.125.827 2.642h-3.427q-.144-.98-.762-1.581-.618-.6-1.615-.6-.844 0-1.47.455-.627.456-.976 1.325-.35.87-.35 2.106 0 1.252.345 2.13.345.878.976 1.338.63.46 1.475.46.622 0 1.12-.255.499-.256.827-.746.328-.49.43-1.18h3.427q-.086 1.5-.814 2.637-.73 1.138-2.007 1.777-1.279.64-3.026.64zm14.148 0q-2.02 0-3.473-.823-1.453-.822-2.238-2.335-.784-1.513-.784-3.584 0-2.02.784-3.545.785-1.526 2.212-2.378 1.428-.852 3.354-.852 1.295 0 2.416.413 1.12.413 1.96 1.24.84.827 1.308 2.075.47 1.249.47 2.92v.997h-11.055v-2.25h7.637q0-.785-.341-1.39-.341-.605-.942-.95-.6-.345-1.394-.345-.826 0-1.461.38-.635.378-.993 1.013-.358.635-.367 1.41v2.14q0 .972.363 1.679.362.707 1.027 1.09.664.384 1.576.384.605 0 1.108-.17.503-.17.861-.511.358-.341.546-.836l3.357.222q-.255 1.21-1.044 2.11-.788.899-2.028 1.397-1.24.499-2.86.499zm12.136-.256h-3.69v-17.455h6.886q1.986 0 3.384.755 1.397.754 2.135 2.088.737 1.334.737 3.072 0 1.739-.75 3.068-.75 1.33-2.17 2.071-1.418.742-3.43.742h-4.389v-2.957h3.793q1.065 0 1.76-.371.694-.371 1.04-1.031.345-.661.345-1.522 0-.87-.346-1.521-.345-.652-1.044-1.014-.698-.363-1.772-.363h-2.489V443zm11.787-17.455h3.63V443h-3.63v-17.455zm10.261 17.702q-1.253 0-2.233-.439-.98-.439-1.546-1.304-.567-.865-.567-2.16 0-1.091.4-1.833.4-.741 1.091-1.193.69-.452 1.573-.682.882-.23 1.853-.324 1.142-.119 1.841-.225.7-.107 1.014-.32.316-.213.316-.63v-.052q0-.81-.507-1.253-.507-.443-1.436-.443-.98 0-1.56.43-.58.431-.767 1.079l-3.358-.273q.256-1.193 1.006-2.067.75-.873 1.939-1.346 1.188-.473 2.757-.473 1.09 0 2.092.255 1.001.256 1.781.793t1.232 1.376q.451.84.451 2.007V443h-3.443v-1.815h-.102q-.315.613-.844 1.078-.528.464-1.27.724-.741.26-1.713.26zm1.04-2.506q.801 0 1.415-.32.614-.319.963-.864.35-.546.35-1.236v-1.39q-.171.112-.465.201-.294.09-.66.162-.367.072-.734.128l-.664.098q-.64.094-1.117.298-.477.205-.741.55-.264.345-.264.856 0 .742.54 1.13.542.387 1.377.387zm12.784-5.31V443h-3.63v-13.09h3.46v2.309h.153q.435-1.142 1.458-1.811 1.022-.67 2.48-.67 1.363 0 2.377.597 1.015.597 1.577 1.7.563 1.104.563 2.63V443h-3.631v-7.688q.009-1.201-.614-1.879-.622-.677-1.713-.677-.733 0-1.29.315-.56.315-.87.916-.311.601-.32 1.445zm-115.865 39.134h-3.537q-.102-1.03-.878-1.602-.776-.571-2.105-.571-.904 0-1.526.251-.622.252-.95.695-.328.443-.328 1.006-.017.469.2.818.217.35.601.6.384.252.886.435.503.184 1.074.312l1.568.375q1.142.255 2.097.681.955.426 1.653 1.049.7.622 1.087 1.466.388.843.396 1.934-.008 1.602-.814 2.774-.805 1.172-2.318 1.816-1.513.643-3.643.643-2.114 0-3.678-.648-1.564-.647-2.437-1.921-.874-1.275-.916-3.158h3.57q.06.878.508 1.462.447.583 1.201.877.755.294 1.71.294.937 0 1.631-.272.695-.273 1.078-.759.384-.486.384-1.116 0-.588-.345-.989-.345-.4-1.006-.682-.66-.281-1.615-.511l-1.9-.477q-2.208-.537-3.486-1.68-1.279-1.141-1.27-3.076-.009-1.585.848-2.77.856-1.185 2.356-1.85 1.5-.664 3.41-.664 1.943 0 3.396.665 1.453.664 2.262 1.849.81 1.185.836 2.744zm8.608 12.69q-2.02 0-3.473-.822-1.453-.822-2.238-2.335-.784-1.513-.784-3.584 0-2.02.784-3.545.785-1.526 2.212-2.378 1.428-.852 3.354-.852 1.295 0 2.416.413 1.12.413 1.96 1.24.84.827 1.308 2.075.47 1.249.47 2.92v.997h-11.055v-2.25h7.637q0-.785-.341-1.39-.341-.605-.942-.95-.6-.345-1.394-.345-.826 0-1.461.38-.635.378-.993 1.013-.358.635-.367 1.41v2.14q0 .972.363 1.679.362.707 1.027 1.09.664.384 1.576.384.605 0 1.108-.17.503-.17.861-.511.358-.341.546-.836l3.357.222q-.255 1.21-1.044 2.11-.788.899-2.028 1.397-1.24.499-2.86.499zM680.52 487h-3.63v-13.09h3.52v2.283h.136q.358-1.219 1.201-1.845.844-.626 1.944-.626.272 0 .588.034.315.034.554.093v3.222q-.256-.077-.708-.136-.451-.06-.826-.06-.802 0-1.428.345-.626.345-.989.959-.362.614-.362 1.415V487zm14.95-13.09h3.843L694.737 487h-4.09l-4.578-13.09h3.836l2.718 9.366h.137l2.71-9.367zm9.331 13.09h-3.63v-13.09h3.63V487zm-1.798-14.778q-.81 0-1.389-.542-.58-.54-.58-1.3 0-.75.58-1.29.58-.542 1.38-.542.819 0 1.394.541.575.542.575 1.292 0 .758-.575 1.3-.575.54-1.385.54zm10.611 15.034q-2.011 0-3.456-.857-1.445-.856-2.216-2.382-.771-1.526-.771-3.511 0-2.012.78-3.533t2.22-2.378q1.44-.856 3.426-.856 1.713 0 3 .622t2.037 1.747q.75 1.125.827 2.642h-3.427q-.144-.98-.762-1.581-.618-.6-1.615-.6-.844 0-1.47.455-.627.456-.976 1.325-.35.87-.35 2.106 0 1.252.345 2.13.345.878.976 1.338.63.46 1.475.46.622 0 1.12-.255.499-.256.827-.746.328-.49.43-1.18h3.427q-.086 1.5-.814 2.637-.73 1.138-2.007 1.777-1.279.64-3.026.64zm14.148 0q-2.02 0-3.473-.823-1.453-.822-2.238-2.335-.784-1.513-.784-3.584 0-2.02.784-3.545.785-1.526 2.212-2.378 1.428-.852 3.354-.852 1.295 0 2.416.413 1.12.413 1.96 1.24.84.827 1.308 2.075.47 1.249.47 2.92v.997h-11.055v-2.25h7.637q0-.785-.341-1.39-.341-.605-.942-.95-.6-.345-1.394-.345-.826 0-1.461.38-.635.378-.993 1.013-.358.635-.367 1.41v2.14q0 .972.363 1.679.362.707 1.027 1.09.664.384 1.576.384.605 0 1.108-.17.503-.17.861-.511.358-.341.546-.836l3.357.222q-.255 1.21-1.044 2.11-.788.899-2.028 1.397-1.24.499-2.86.499zm12.136-.256h-3.69v-17.455h6.886q1.986 0 3.384.755 1.397.754 2.135 2.088.737 1.334.737 3.072 0 1.739-.75 3.068-.75 1.33-2.17 2.071-1.418.742-3.43.742h-4.389v-2.957h3.793q1.065 0 1.76-.371.694-.371 1.04-1.031.345-.661.345-1.522 0-.87-.346-1.521-.345-.652-1.044-1.014-.698-.363-1.772-.363h-2.489V487zm11.787-17.455h3.63V487h-3.63v-17.455zm10.261 17.702q-1.253 0-2.233-.439-.98-.439-1.546-1.304-.567-.865-.567-2.16 0-1.091.4-1.833.4-.741 1.091-1.193.69-.452 1.573-.682.882-.23 1.853-.324 1.142-.119 1.841-.225.7-.107 1.014-.32.316-.213.316-.63v-.052q0-.81-.507-1.253-.507-.443-1.436-.443-.98 0-1.56.43-.58.431-.767 1.079l-3.358-.273q.256-1.193 1.006-2.067.75-.873 1.939-1.346 1.188-.473 2.757-.473 1.09 0 2.092.255 1.001.256 1.781.793t1.232 1.376q.451.84.451 2.007V487h-3.443v-1.815h-.102q-.315.613-.844 1.078-.528.464-1.27.724-.741.26-1.713.26zm1.04-2.506q.801 0 1.415-.32.614-.319.963-.864.35-.546.35-1.236v-1.39q-.171.112-.465.201-.294.09-.66.162-.367.072-.734.128l-.664.098q-.64.094-1.117.298-.477.205-.741.55-.264.345-.264.856 0 .742.54 1.13.542.387 1.377.387zm12.784-5.31V487h-3.63v-13.09h3.46v2.309h.153q.435-1.142 1.458-1.811 1.022-.67 2.48-.67 1.363 0 2.377.597 1.015.597 1.577 1.7.563 1.104.563 2.63V487h-3.631v-7.688q.009-1.201-.614-1.879-.622-.677-1.713-.677-.733 0-1.29.315-.56.315-.87.916-.311.601-.32 1.445zm-115.865 39.134h-3.537q-.102-1.03-.878-1.602-.776-.571-2.105-.571-.904 0-1.526.251-.622.252-.95.695-.328.443-.328 1.006-.017.468.2.818.217.35.601.6.384.252.886.435.503.184 1.074.312l1.568.375q1.142.255 2.097.681.955.426 1.653 1.049.7.622 1.087 1.466.388.843.396 1.934-.008 1.602-.814 2.774-.805 1.172-2.318 1.816-1.513.643-3.643.643-2.114 0-3.678-.648-1.564-.647-2.437-1.921-.874-1.275-.916-3.158h3.57q.06.878.508 1.462.447.583 1.201.877.755.294 1.71.294.937 0 1.631-.272.695-.273 1.078-.759.384-.486.384-1.116 0-.588-.345-.989-.345-.4-1.006-.682-.66-.281-1.615-.511l-1.9-.477q-2.208-.537-3.486-1.68-1.279-1.141-1.27-3.076-.009-1.585.848-2.77.856-1.185 2.356-1.85 1.5-.664 3.41-.664 1.943 0 3.396.665 1.453.664 2.262 1.849.81 1.185.836 2.744zm8.608 12.69q-2.02 0-3.473-.822-1.453-.822-2.238-2.335-.784-1.513-.784-3.584 0-2.02.784-3.545.785-1.526 2.212-2.378 1.428-.852 3.354-.852 1.295 0 2.416.413 1.12.413 1.96 1.24.84.827 1.308 2.075.47 1.249.47 2.92v.997h-11.055v-2.25h7.637q0-.785-.341-1.39-.341-.605-.942-.95-.6-.345-1.394-.345-.826 0-1.461.38-.635.378-.993 1.013-.358.635-.367 1.41v2.14q0 .972.363 1.679.362.707 1.027 1.09.664.384 1.576.384.605 0 1.108-.17.503-.17.861-.511.358-.341.546-.836l3.357.222q-.255 1.21-1.044 2.11-.788.899-2.028 1.397-1.24.499-2.86.499zM680.52 531h-3.63v-13.09h3.52v2.283h.136q.358-1.219 1.201-1.845.844-.626 1.944-.626.272 0 .588.034.315.034.554.093v3.222q-.256-.077-.708-.136-.451-.06-.826-.06-.802 0-1.428.345-.626.345-.989.959-.362.614-.362 1.415V531zm14.95-13.09h3.843L694.737 531h-4.09l-4.578-13.09h3.836l2.718 9.366h.137l2.71-9.367zm9.331 13.09h-3.63v-13.09h3.63V531zm-1.798-14.778q-.81 0-1.389-.542-.58-.54-.58-1.3 0-.75.58-1.29.58-.542 1.38-.542.819 0 1.394.541.575.542.575 1.292 0 .758-.575 1.3-.575.54-1.385.54zm10.611 15.034q-2.011 0-3.456-.857-1.445-.856-2.216-2.382-.771-1.526-.771-3.511 0-2.012.78-3.533t2.22-2.378q1.44-.856 3.426-.856 1.713 0 3 .622t2.037 1.747q.75 1.125.827 2.642h-3.427q-.144-.98-.762-1.581-.618-.6-1.615-.6-.844 0-1.47.455-.627.456-.976 1.325-.35.87-.35 2.106 0 1.252.345 2.13.345.878.976 1.338.63.46 1.475.46.622 0 1.12-.255.499-.256.827-.746.328-.49.43-1.18h3.427q-.086 1.5-.814 2.637-.73 1.138-2.007 1.777-1.279.64-3.026.64zm14.148 0q-2.02 0-3.473-.823-1.453-.822-2.238-2.335-.784-1.513-.784-3.584 0-2.02.784-3.545.785-1.526 2.212-2.378 1.428-.852 3.354-.852 1.295 0 2.416.413 1.12.413 1.96 1.24.84.827 1.308 2.075.47 1.249.47 2.92v.997h-11.055v-2.25h7.637q0-.785-.341-1.39-.341-.605-.942-.95-.6-.345-1.394-.345-.826 0-1.461.38-.635.378-.993 1.013-.358.635-.367 1.41v2.14q0 .972.363 1.679.362.707 1.027 1.09.664.384 1.576.384.605 0 1.108-.17.503-.17.861-.511.358-.341.546-.836l3.357.222q-.255 1.21-1.044 2.11-.788.899-2.028 1.397-1.24.499-2.86.499zm12.136-.256h-3.69v-17.455h6.886q1.986 0 3.384.755 1.397.754 2.135 2.088.737 1.334.737 3.072 0 1.739-.75 3.068-.75 1.33-2.17 2.071-1.418.742-3.43.742h-4.389v-2.957h3.793q1.065 0 1.76-.371.694-.371 1.04-1.031.345-.661.345-1.522 0-.87-.346-1.521-.345-.652-1.044-1.014-.698-.362-1.772-.362h-2.489V531zm11.787-17.455h3.63V531h-3.63v-17.455zm10.261 17.702q-1.253 0-2.233-.439-.98-.439-1.546-1.304-.567-.865-.567-2.16 0-1.091.4-1.833.4-.741 1.091-1.193.69-.452 1.573-.682.882-.23 1.853-.323 1.142-.12 1.841-.226.7-.107 1.014-.32.316-.213.316-.63v-.052q0-.81-.507-1.253-.507-.443-1.436-.443-.98 0-1.56.43-.58.431-.767 1.079l-3.358-.273q.256-1.193 1.006-2.067.75-.873 1.939-1.346 1.188-.473 2.757-.473 1.09 0 2.092.255 1.001.256 1.781.793t1.232 1.376q.451.84.451 2.007V531h-3.443v-1.815h-.102q-.315.613-.844 1.078-.528.464-1.27.724-.741.26-1.713.26zm1.04-2.506q.801 0 1.415-.32.614-.319.963-.864.35-.546.35-1.236v-1.39q-.171.112-.465.201-.294.09-.66.162-.367.072-.734.128l-.664.098q-.64.094-1.117.298-.477.205-.741.55-.264.345-.264.856 0 .742.54 1.13.542.387 1.377.387zm12.784-5.31V531h-3.63v-13.09h3.46v2.309h.153q.435-1.142 1.458-1.811 1.022-.67 2.48-.67 1.363 0 2.377.597 1.015.597 1.577 1.7.563 1.104.563 2.63V531h-3.631v-7.688q.009-1.201-.614-1.879-.622-.677-1.713-.677-.733 0-1.29.315-.56.315-.87.916-.311.601-.32 1.445z" fill="#2C2C2C" fill-rule="nonzero"></path></g></svg>