<svg xmlns="http://www.w3.org/2000/svg" xmlns:xlink="http://www.w3.org/1999/xlink" viewBox="-90 20 350 270"><g fill="#edc7af"><path d="M196.9 44l-6.2-3.6c-.2-.1-.5-.2-.8-.2l6.2 3.6c.3 0 .5.1.8.2zM196.1 43.9l-6.2-3.6c-.3 0-.6.1-.9.2l6.2 3.6c.3-.1.6-.2.9-.2z"/><path d="M195.2 44.1l-6.2-3.6c-.1 0-.1.1-.2.1l6.2 3.6s.1-.1.2-.1z"/></g><path d="M188.7 40.6l-21.8 12.6c-1.1.6-2 1.8-2.4 3.1l6.2 3.6c.4-1.3 1.3-2.5 2.4-3.1L195 44.2l-6.3-3.6z" fill="#fff"/><path d="M170.6 83.2V61.5v-.3c0-.4.1-.8.3-1.2l-6.2-3.6-.3 1.2v22c0 .8.3 1.4.8 1.7l6.2 3.6c-.5-.3-.8-.9-.8-1.7z" fill="#edd9cc"/><path d="M173.2 56.8c-1.5.9-2.7 2.9-2.7 4.6v21.7c0 1.7 1.2 2.4 2.7 1.5L195 72.1c1.5-.8 2.7-2.9 2.7-4.6V45.8c0-1.7-1.2-2.4-2.7-1.5l-21.8 12.5z" fill="#edc7af"/><path d="M248.9 91.3l3.8-2.2c.5-.3.9-1 .9-2l-3.8 2.2c0 1-.4 1.7-.9 2z" fill="#7295aa"/><path fill="#ede0d8" d="M249.8 89.4l3.8-2.2V68.5l-3.8 2.2z"/><path d="M250.6 63.2L197 32.4c-.8-.5-1.6-.5-2.2-.2l-3.8 2.2c.6-.3 1.3-.3 2.2.2l53.6 30.8c1.7 1 3 3.3 3 5.3l3.8-2.2c0-1.9-1.3-4.3-3-5.3z" fill="#fff9f5"/><path d="M193.2 34.6c-1.7-1-3-.2-3.1 1.7l-.1 22.3c0 1.9 1.4.7 3 1.7l53.6 30.8c1.7 1 3 .2 3.1-1.7l.1-18.7c0-1.9-1.4-4.3-3-5.3l-53.6-30.8z" fill="#edd9cc"/><path d="M243.2 96.8v6.4c.7-.4 1.1-1 1.1-1.6v-6.4c0 .6-.3 1.2-1.1 1.6z" fill="#edc7af"/><path fill="#edc7af" d="M225.7 106.9v6.4l17.6-10.1-.1-6.4zM225.7 113.3v-6.4c-1.5.8-3.9.8-5.3 0L171 78.3c-.7-.4-1.1-1-1.1-1.5v6.4c0 .6.4 1.1 1.1 1.5l53.4 31.1-.8-1.8c.8-.1 1.5-.3 2.1-.7z"/><path d="M171.1 75.2c-1.5.9-1.5 2.2 0 3.1l49.3 28.7c1.5.8 3.9.8 5.3 0l17.5-10.1c1.5-.8 1.5-2.2 0-3.1l-49.3-28.7c-1.5-.9-3.9-.9-5.3 0l-17.5 10.1z" fill="#ede0d8"/><path d="M171 71.5l49.3 28.7c1.5.8 3.9.8 5.3 0L243.2 90c.7-.4 1.1-1 1.1-1.6v6.4c0 .6-.4 1.1-1.1 1.6l-17.5 10.1c-1.5.9-3.9.9-5.3 0l-49.3-28.7c-.7-.4-1.1-1-1.1-1.5v-6.4c-.1.6.3 1.1 1 1.6z" fill="#ede0d8"/><path d="M171.1 68.4c-1.5.8-1.5 2.2 0 3.1l49.3 28.7c1.5.8 3.9.8 5.3 0L243.2 90c1.5-.8 1.5-2.2 0-3.1l-49.3-28.7c-1.5-.9-3.9-.9-5.3 0l-17.5 10.2z" fill="#fff9f5"/><path d="M186.4 63.5c-1.4 4.9 1.9 7.9 3.9 7.9l16.6-.8c1.6 0 3-1.3 3-3v-.4c0-1.6-1.3-3-3-3l-16.6-.8c-2 .1-3.9.1-3.9.1z" fill="#040f2d"/><path d="M217.4 89.6c.3.1 4.1 1.5 3.7 2.3-.4.8-2.8 2.1-5.1.4 0 0-2.3.7-3-.4-.5-.7-2.5-4.6 2.4-3.8 0-.1 1.4 1.3 2 1.5zM218.8 85c.2.1 3.3 2.8 2.7 3.4-.6.6-3.4 1-4.9-1.4 0 0-2.4-.1-2.7-1.4-.2-.9-.8-5.2 3.5-2.7 0 .1.8 1.8 1.4 2.1z" fill="#149eab"/><path d="M218.1 84.1l-8.3-18c-.9-1.6-2.9-2.3-4.5-1.4-1.6.9-2.3 2.9-1.4 4.6l6 9.7 3.9 6.3c.3-.2 3.5-.5 4.3-1.2z" fill="#040f2d"/><path d="M183.2 66.4c-3.1 4-1.1 8 .8 8.7l15.7 5.2c1.5.6 3.2-.2 3.8-1.7l.1-.3c.6-1.5-.2-3.2-1.7-3.8l-15.2-6.7c-1.8-.7-3.5-1.4-3.5-1.4z" fill="#022540"/><path d="M216.9 89.4L203 75.1c-1.4-1.3-3.5-1.2-4.8.2-1.3 1.4-2.3 2.7-.9 4l10 7.9 5.8 4.7c.3-.3 3.2-1.6 3.8-2.5z" fill="#022540"/><path d="M184.6 38.7c.5-2 2.4-6.7 2.1-8.7 2.4-.9 3.3 20.7-.2 21.7-1.4.3-2.2-12.1-1.9-13zM177.6 29.8c.7-.6 2.6 3.9 2.7 5.1 0 .1-.1.2-.2.1 0 .4.1.7.1 1.1v.3c.8 1.5 2.7 4.1 1.9 5.9-.7 1.4-2.7 7.3-3.1 6-.4-1.4-2.7-3.6-2.9-5.3-.5-4.1 1.5-13.1 1.5-13.2z" fill="#160503"/><g><path d="M189.8 51.4c.6 1.5 2.4 2.2 3.8 1.6 1.5-.6 1.9-1.3 1.2-2.8l-3.2-9.1c-.6-1.5-2.4-2.2-3.8-1.6-1.5.6-2.2 2.4-1.5 3.9l3.5 8z" fill="#12becc"/></g><path d="M191.3 50.7c.9-1.3 1.8-1.2 3.1-.4l8.9 2.2.3 2.6-11.7-1.5c-1.3-.9-1.5-1.6-.6-2.9z" fill="#12becc"/><path d="M192.4 52.9c-.1-1.9.1-5.6-.5-7.3-.3-1-2.7-5.5-2.8-5.7-.3-.4-.8-.7-1.3-.7 0 0-5.5-.4-11.4 4.1-.4.3 4.1 18.9 4.1 19 0 .2 0 .3.1.4 0 .1-.4 6.7 1.3 10 0 0 5.4-2.5 8.9-4.6 3.3-2 4.1-4.3 4.1-4.3-1.2-4.6-2.4-10.4-2.5-10.9z" fill="#149eab"/><path d="M184.9 43c-.7.3-1.4.1-2.1-.1-1.1-.4-1.7-1.9-1.7-1.9l-.3-4.9 4.3.4s.4 3.6.4 4.9c0 .7.1 1.3-.6 1.6z" fill="#d9b4a4"/><path d="M178.3 37.8c2.6 2.2 3.5 1 5.9-.8 2.3-1.8 3.3-3.7 2.4-7-.9-3.5-6.1-3.7-8.4-1.5-3.3 3.3-2.4 7.2.1 9.3z" fill="#260905"/><path d="M178.6 34.4c.1 1.1.6 2.9 1.1 3.9 1.2 2.4 5.5 2.7 6.2 1.8.8-1.1 1.7-5.1 1.2-8.5-.4-3.4-2.2-2.8-4.9-2.8-1.7 0-4 2.2-3.6 5.6z" fill="#e9c2b0"/><path d="M180.2 27.9c2-1.7 5.3-.4 6.3.8 1.5 1.7 1.7 2.9 1.7 4.8l-2.7.2c-.2-.2-.7-1.3-.9-1.5.1.3.4 1.4.2 1.7 0 .1-1.3 0-1.3 0-.1-.1-.4-.9-.4-1v1.2s-3.3.9-4.6.7c-.1-.1 0-5.6 1.7-6.9z" fill="#260905"/><g><path d="M248.6 74.1c-.2-.1-.5-.2-.8-.2-.3 0-.6.1-.9.2-.1 0-.1.1-.2.1l-21.8 12.6c-1.1.6-2 1.8-2.4 3.1l6.2 3.6c.4-1.3 1.3-2.5 2.4-3.1l21.8-12.6c.1 0 .1-.1.2-.1.3-.2.6-.2.9-.2.3 0 .6 0 .8.2l-6.2-3.6z" fill="#fff"/><path d="M228.5 116.8V95.1v-.3c0-.4.1-.8.3-1.2l-6.2-3.6-.3 1.2v22c0 .8.3 1.4.8 1.7l6.2 3.6c-.5-.2-.8-.8-.8-1.7z" fill="#edd9cc"/><g><path d="M231.2 90.5c-1.5.8-2.7 2.9-2.7 4.6v21.7c0 1.7 1.2 2.4 2.7 1.5l21.8-12.6c1.5-.8 2.7-2.9 2.7-4.6V79.4c0-1.7-1.2-2.4-2.7-1.5l-21.8 12.6z" fill="#edc7af"/></g></g><g><path d="M175.2 58.7c0 1.6 1.3 2.8 2.9 2.8 1.6 0 2.8-1.3 2.8-2.9l-.3-14.1c0-1.6-1.3-2.8-2.9-2.8-1.6 0-2.8 1.3-2.8 2.9l.3 14.1z" fill="#12becc"/></g><g><path d="M188.3 58.5c-.9-.8-1.1-2.7-.9-3.3.4-.2 1.2-.6 2.2-1 1.4-.5 3-.8 3.9-.4 2.1 1 1.7 1.9 1.2 2.7-.9 1.3-5.3.7-6.4 2z" fill="#e9c2b0"/><path d="M175.3 59.3c-.3-1.5.6-3 2.2-3.3l11.2-1.6 1.1 3.8-11.1 3.4c-1.6.2-3.1-.8-3.4-2.3z" fill="#12becc"/></g><path d="M176.6 30.8s4.8 2.8 4 3.8c-1.3 1.6 2.9 12.5 4.3 15 1 1.7-4.5 2.7-4.6 2.6-2.7-2.5-3.1-3.4-4.1-6.8-2.3-8 .4-14.6.4-14.6z" fill="#260905"/><g><path d="M189.8 55.9l11.8-7c.2-.1.3-.1.4 0l.6.3c-.1-.1-.3 0-.4 0l-.6.4c.1.1.2.1.4.2.1 0 .2.1.2.1.1 0 .1.1.1.2l.1 7.3c0 .2-.2.5-.3.6-.1-.1-.2-.1-.3-.2l.3.2-11.4 6.7c-.1.1-.2.1-.3 0l-.6-.3v.7c0 .2.1.3.2.4-.1-.1-.2-.1-.3-.2-.1-.1-.2-.1-.3-.2-.1-.1-.2-.2-.2-.4l-.1-7.9c.1-.2.4-.7.7-.9z" fill="#024462"/><path d="M190.6 56.7L202 50c.2-.1.4 0 .4.2l.1 7.3c0 .2-.2.5-.3.6l-11.4 6.7c-.2.1-.4 0-.4-.2l-.1-7.3c0-.2.1-.5.3-.6z" fill="#025a82"/><path d="M189.8 57.3l.1 7.9c0 .4.3.5.6.3l11.8-7c.3-.2.6-.7.6-1l-.1-7.9c0-.4-.3-.5-.6-.3l-11.8 7c-.3.1-.6.6-.6 1zm.5 0c0-.2.2-.5.3-.6L202 50h.4v.2l.1 7.3c0 .1 0 .2-.1.3 0 0 0 .1-.1.1l-.1.1h-.1l-3.4 2-8 4.7c-.1.1-.2.1-.3 0 0 0-.1-.1-.1-.2v-7.2z" fill="#025a82"/></g><path d="M203.2 52.5c-1.2.4-2.4.5-2.7 1.2-.4.8-.5 1.6 1 2.3.5.2.8.2 1.5 0 1.5-.5 1.1-3.5.2-3.5z" fill="#e5bd99"/><g><path d="M239 79.1c.3 0 .6-.1.8-.4.2-.3.3-.6.2-.9 0-.5.4-2.4 1.4-3 .2-.1.8-.3 1.3-.4 1.7-.5 4.9-1.4 4.4-4.7-.1-.6-.6-1-1.2-.9-.6.1-1 .6-.9 1.2.2 1.2-.7 1.6-2.8 2.2-.7.2-1.3.4-1.8.7-2.2 1.3-2.5 4.6-2.5 4.7 0 .3-.1.9.4 1.3.2.1.4.2.7.2zM233.5 87.4l-.8-.5c0 .3.1.5.3.6l.8.5c-.2 0-.3-.3-.3-.6z" fill="#c9740c"/><path fill="#c9740c" d="M233.5 83l-.8-.5V87l.8.4z"/><path d="M235.2 81.2l-.8-.5c-.2-.1-.4-.1-.7.1l.8.5c.2-.1.5-.2.7-.1z" fill="#5d6768"/><path d="M234.5 81.3l-.8-.5c-.5.3-1 1.1-1 1.7l.8.5c0-.6.4-1.4 1-1.7z" fill="#586162"/><path d="M234.5 81.3c-.5.3-1 1.1-1 1.7v4.4c0 .6.4.9 1 .6.5-.3 1-1.1 1-1.7v-4.4c-.1-.6-.5-.9-1-.6z" fill="#f08707"/><path d="M230.2 85.7l-.8-.5c0 .3.1.5.3.6l.8.5c-.2-.1-.3-.3-.3-.6z" fill="#c9740c"/><path fill="#c9740c" d="M230.2 83.5l-.8-.5v2.3l.8.4z"/><path d="M231.8 81.7l-.8-.5c-.2-.1-.4-.1-.7.1l.8.5c.3-.2.6-.2.7-.1z" fill="#5d6768"/><path d="M231.1 81.8l-.8-.5c-.5.3-1 1.1-1 1.7l.8.5c.1-.7.5-1.4 1-1.7z" fill="#586162"/><path d="M231.1 81.8c-.5.3-1 1.1-1 1.7v2.3c0 .6.4.9 1 .6.5-.3 1-1.1 1-1.7v-2.3c0-.7-.4-.9-1-.6z" fill="#f08707"/><path d="M239 84.3l-.8-.5c0 .3.1.5.3.6l.8.5c-.2-.1-.3-.3-.3-.6z" fill="#c9740c"/><path fill="#c9740c" d="M239 79.9l-.8-.5v4.4l.8.5z"/><path d="M240.7 78.2l-.8-.5c-.2-.1-.4-.1-.7.1l.8.5c.2-.2.5-.2.7-.1z" fill="#5d6768"/><path d="M240 78.2l-.8-.5c-.5.3-1 1.1-1 1.7l.8.5c0-.6.4-1.3 1-1.7z" fill="#5d6768"/><path d="M240 78.2c-.5.3-1 1.1-1 1.7v4.3c0 .6.4.9 1 .6.5-.3 1-1.1 1-1.7v-4.3c-.1-.6-.5-.9-1-.6z" fill="#f08707"/><g><path d="M235.9 82.7l-.8-.5c0 .3.1.5.3.6l.8.5c-.2-.1-.3-.3-.3-.6z" fill="#5d6768"/><path fill="#586162" d="M235.9 80.5l-.8-.5v2.3l.8.4z"/><path d="M237.6 78.7l-.8-.5c-.2-.1-.4-.1-.7.1l.8.5c.2-.2.5-.2.7-.1z" fill="#5d6768"/><path d="M236.9 78.8l-.8-.5c-.5.3-1 1.1-1 1.7l.8.5c0-.7.4-1.4 1-1.7z" fill="#5d6768"/><path d="M236.9 78.8c-.5.3-1 1.1-1 1.7v2.3c0 .6.4.9 1 .6.5-.3 1-1.1 1-1.7v-2.3c-.1-.7-.5-.9-1-.6z" fill="#93a2a3"/></g><g><ellipse transform="rotate(-17.787 234.706 79.398)" cx="234.7" cy="79.4" rx="6.7" ry="4.8" fill="#f08707"/></g><g><circle cx="228.8" cy="78.3" r="4.2" fill="#f09a07"/></g><path d="M223 78.4c.7.4 1.5.8 2.1 1.4-.6-.7-1.2-1.1-2.1-1.4zM225.1 80.1c-.6-.4-1.3-.7-2-.6v.1c.8-.1 1.3.3 2 .5zM225.5 80.4c-.6-.3-1.5-.1-2.1 0h1c.4.1.8.1 1.1 0 .1.1.1 0 0 0zM228.2 81.4c.2 1 1 1.7 1.6 2.4 0 0 .1 0 0 0-.4-.8-1.3-1.4-1.6-2.4zM231.2 83c-.8-.6-1.8-1.2-2.7-1.7.8.6 1.7 1.4 2.7 1.7 0 .1.1 0 0 0zM232.8 81.9c-1.3-.6-2.6-.9-4-.9.7.2 1.4.2 2.1.4.6.1 1.2.4 1.9.5 0 .1 0 0 0 0z" fill="#333"/><g><path d="M225.6 80l.7 1.3c.1.2.2.3.3.3.1.1.2.1.3 0l.7-.4c.2-.1.2-.4 0-.7l-2.1-1.2c-.1.1-.1.4.1.7z" fill="#333"/></g><g><path d="M227.9 74.7l.3-.3c-1.3-1.9-2.4-2.1-2.5-2.2l-.3.3c.1.1 1.3.6 2.5 2.2z" fill="#c9740c"/><path d="M225.4 72.6c0 .1-.5.9.5 2.6.6-.3 1.3-.5 2-.4-1.2-1.7-2.4-2.2-2.5-2.2z" fill="#f08707"/></g><g><path d="M234 75.8c-.1 0-1.7-.7-2.9-.1l-.5.3c1.2-.6 2.8 0 2.9.1l.5-.3zM232.1 78.7l.5-.3c1.2-.7 1.3-2.5 1.4-2.6l-.5.3c0 .1-.2 1.9-1.4 2.6z" fill="#c9740c"/><path d="M233.5 76.1c-.1 0-1.7-.7-2.9-.1 0 0 .5.4.9 1.2.5.8.6 1.6.6 1.6 1.2-.7 1.4-2.6 1.4-2.7z" fill="#f08707"/></g><ellipse cx="229.4" cy="79.1" rx=".4" ry=".4" fill="#1c2929"/><ellipse cx="225.8" cy="77.3" rx=".4" ry=".4" fill="#1c2929"/></g><g><defs><path id="a" d="M151.2 93.9l-1.5.9c.1 0 .1-.1.1-.1l1.5-.9c-.1 0-.1 0-.1.1z"/></defs><clipPath id="b"><use xlink:href="#a" overflow="visible"/></clipPath><g clip-path="url(#b)"><path d="M149.7 94.7l1.5-.9-.1.1-1.5.9.1-.1z" fill="#4a2d1b"/></g><path fill="#392215" d="M149.8 94.6l1.5-.9v.1l-1.6.9z"/><defs><path id="c" d="M151.4 93.7l-1.5.9c.1 0 .1-.1 0-.2l1.5-.9v.2z"/></defs><clipPath id="d"><use xlink:href="#c" overflow="visible"/></clipPath><g clip-path="url(#d)"><path d="M149.8 94.3l1.5-.9c.1.1.1.2 0 .2l-1.5.9c.1 0 .1-.1 0-.2z" fill="#4a2d1b"/></g><defs><path id="e" d="M148.7 87.9l1.5-.9c.3-.2.6-.2.8-.1l-1.5.9c-.3-.1-.6-.1-.8.1z"/></defs><clipPath id="f"><use xlink:href="#e" overflow="visible"/></clipPath><g clip-path="url(#f)"><path d="M148.7 87.9l1.5-.9c.3-.2.6-.2.8-.1l-1.5.9c-.3-.1-.6-.1-.8.1z" fill="#4a2d1b"/></g><g><defs><path id="g" d="M149.5 87.8l1.5-.9c.2.1.3.4.4.8.1.4-1 1.5-1 2.7 0 1.1.3 1.9.9 3l-1.5.9c-.6-1.1-.9-1.9-.9-3 0-1.2 1-2.3 1-2.7-.1-.4-.2-.7-.4-.8z"/></defs><clipPath id="h"><use xlink:href="#g" overflow="visible"/></clipPath><g clip-path="url(#h)"><path d="M149.5 87.8l1.5-.9c.2.1.3.4.4.8.1.4-1 1.5-1 2.7 0 1.1.3 1.9.9 3l-1.5.9c-.6-1.1-.9-1.9-.9-3 0-1.2 1-2.3 1-2.7-.1-.4-.2-.7-.4-.8z" fill="#4a2d1b"/></g></g><g><path d="M149.5 87.8c.2.1.3.4.4.8.1.4-1 1.5-1 2.7 0 1.1.3 1.9.9 3 .1.1.1.2 0 .2v.1c-.2.1-.6.4-1 .1-.4-.2-.8-.8-1.2-2.3-.3-1.1-.3-2.2-.1-3 .1-.7 1.3-2 2-1.6z" fill="#663d26"/></g><g><path d="M163.3 85.8l-.5-.3c.9-.5 1.9-.8 3.1-.4.2.1.3.1.5.2l.5.3c-.1-.1-.3-.2-.5-.2-1.2-.4-2.2-.2-3.1.4z" fill="#452d1e"/><path d="M159.9 92l-.5-.3c0-.1-.1-1.4.5-3 .3-.7 1.3-2.4 2.9-3.2l.5.3c-1.5.9-2.6 2.6-2.9 3.2-.6 1.5-.5 2.9-.5 3z" fill="#452d1e"/><path d="M163.3 85.8c.9-.5 1.9-.8 3.1-.4 2.5.8.9 3.9-.8 4.9-.5.3-1 .4-1.4.2-.9-.3-1.7-.1-2.3.3-.7.4-1.2 1-1.2 1.2h-.8c0-.1-.1-1.4.5-3 .3-.7 1.3-2.4 2.9-3.2z" fill="#5e3d29"/></g><g><path fill="#593621" d="M148.2 104.8l1.6-.9.5.3-1.6.9z"/><path d="M148.7 105.1l1.6-.9c.1 0 .1.1.2.1l-1.6.9c-.1-.1-.1-.1-.2-.1z" fill="#53331f"/><path d="M148.9 105.2l1.6-.9c.2.2.3.4.4.6l-1.6.9c-.1-.2-.2-.4-.4-.6z" fill="#683f26"/><path d="M149.3 105.8l1.6-.9c0 .1.1.3.1.4 0 .2-.1.4-.2.4l-1.6.9c.1-.1.2-.2.2-.4 0-.1 0-.2-.1-.4z" fill="#53331f"/><path fill="#52321e" d="M148.2 98.2l1.6-.9v6.6l-1.6.9z"/><path d="M146.7 96.6l1.6-.9c.2-.1.4-.1.6.1l-1.6.9c-.2-.2-.4-.2-.6-.1z" fill="#53331f"/><g><path d="M147.3 96.6l1.6-.9c.1 0 .1.1.2.1l-1.6.9s-.1 0-.2-.1z" fill="#53331f"/><path d="M147.5 96.8l1.6-.9c.3.2.5.5.6.9l-1.6.9c-.1-.4-.3-.7-.6-.9z" fill="#683f26"/><path d="M148.1 97.7l1.6-.9c.1.2.1.4.1.5l-1.6.9c0-.2 0-.4-.1-.5z" fill="#53331f"/></g><g><path d="M147.3 96.6c.5.3.9 1 .9 1.6v6.6l.5.3c.4.2.7.7.7 1.1 0 .4-.3.6-.7.4l-1.3-.8c-.1 0-.2-.1-.2-.2-.4-.3-.7-.9-.7-1.4v-7.1c-.1-.5.3-.8.8-.5z" fill="#6f4329"/></g></g><g><path fill="#593621" d="M154.6 108.4l1.6-.9.5.3-1.6.9z"/><path d="M155.1 108.7l1.6-.9c.1 0 .1.1.2.1l-1.6.9c-.1 0-.1 0-.2-.1z" fill="#53331f"/><path d="M155.3 108.8l1.6-.9c.2.2.3.4.4.6l-1.6.9c-.1-.2-.2-.4-.4-.6z" fill="#683f26"/><path d="M155.7 109.5l1.6-.9c0 .1.1.3.1.4 0 .2-.1.4-.2.4l-1.6.9c.1-.1.2-.2.2-.4 0-.1 0-.3-.1-.4z" fill="#53331f"/><path fill="#52321e" d="M154.7 101.8l1.5-.9v6.6l-1.6.9z"/><path d="M153.1 100.2l1.6-.9c.2-.1.4-.1.6.1l-1.6.9c-.2-.2-.4-.2-.6-.1z" fill="#53331f"/><g><path d="M153.8 100.3l1.6-.9c.1 0 .1.1.2.1l-1.6.9c-.1 0-.2-.1-.2-.1z" fill="#53331f"/><path d="M154 100.4l1.6-.9c.3.2.5.5.6.9l-1.6.9-.6-.9z" fill="#683f26"/><path d="M154.6 101.3l1.6-.9c.1.2.1.4.1.5l-1.6.9c0-.1-.1-.3-.1-.5z" fill="#53331f"/></g><g><path d="M153.8 100.3c.5.3.9 1 .9 1.6v6.6l.5.3c.4.2.7.7.7 1.1 0 .4-.3.6-.7.4l-1.3-.8c-.1 0-.2-.1-.2-.2-.4-.3-.7-.9-.7-1.4v-7.1c-.1-.6.3-.8.8-.5z" fill="#6f4329"/></g></g><g><path fill="#593621" d="M159.9 105.3l1.6-1 .5.3-1.6.9z"/><path d="M160.4 105.5l1.6-.9c.1 0 .1.1.2.1l-1.6.9c-.1 0-.2 0-.2-.1z" fill="#53331f"/><path d="M160.5 105.7l1.6-.9c.2.2.3.4.4.6l-1.6.9c0-.3-.2-.5-.4-.6z" fill="#683f26"/><path d="M161 106.3l1.6-.9c0 .1.1.3.1.4 0 .2-.1.4-.2.4l-1.6.9c.1-.1.2-.2.2-.4-.1-.1-.1-.3-.1-.4z" fill="#53331f"/><path fill="#52321e" d="M159.9 98.7l1.6-1v6.6l-1.6 1z"/><path d="M158.4 97l1.6-.9c.2-.1.4-.1.6.1l-1.6.9c-.2-.1-.5-.2-.6-.1z" fill="#53331f"/><g><path d="M159 97.1l1.6-.9c.1 0 .1.1.2.1l-1.6.9c-.1 0-.1-.1-.2-.1z" fill="#53331f"/><path d="M159.2 97.2l1.6-.9c.3.2.5.5.6.9l-1.6.9c-.1-.3-.3-.6-.6-.9z" fill="#683f26"/><path d="M159.8 98.1l1.6-.9c.1.2.1.4.1.5l-1.6.9c0-.1 0-.3-.1-.5z" fill="#53331f"/></g><g><path d="M159 97.1c.5.3.9 1 .9 1.6v6.6l.5.3c.4.2.7.7.7 1.1 0 .4-.3.6-.7.4l-1.3-.8c-.1 0-.2-.1-.2-.2-.4-.3-.7-.9-.7-1.4v-7.1c-.1-.6.3-.8.8-.5z" fill="#6f4329"/></g></g><g><path d="M158.3 94l-3.9-2.3c-.9-.5-1.7-.6-2.3-.2l-4.8 2.8c.6-.3 1.4-.3 2.3.2l3.9 2.3c.3.1.5.3.7.5l4.8-2.8c-.2-.2-.4-.3-.7-.5z" fill="#53331f"/><path d="M154.3 97.3l4.8-2.8c.9.8 1.7 1.9 2.1 3.1l-4.8 2.8c-.5-1.2-1.2-2.3-2.1-3.1z" fill="#683f26"/><path d="M161.1 97.6l-4.8 2.8c.2.6.4 1.3.4 1.9v.7c0 1-.4 1.7-.9 2l4.8-2.8c.6-.3.9-1 .9-2v-.7c0-.6-.2-1.3-.4-1.9z" fill="#53331f"/><g><path d="M153.5 96.8c1.8 1 3.2 3.5 3.2 5.5v.7c0 2-1.4 2.8-3.2 1.8l-3.9-2.3c-1.8-1-3.2-3.5-3.2-5.5v-.7c0-2 1.4-2.8 3.2-1.8l3.9 2.3z" fill="#6f4329"/></g></g><g><path d="M163 93.1l-2.9-1.7c-.6-.3-1.1-.4-1.5-.1l-3.2 1.8c.4-.2.9-.2 1.5.1l2.9 1.7c.2.1.3.2.5.3l3.2-1.8c-.1-.1-.3-.2-.5-.3z" fill="#5e3d29"/><path d="M160.3 95.3l3.2-1.8c.6.5 1.1 1.2 1.3 2l-3.2 1.8c-.2-.8-.7-1.5-1.3-2z" fill="#754d34"/><path d="M164.9 95.4l-3.2 1.8c.1.4.2.8.2 1.2v1.6c0 .6-.2 1.1-.6 1.3l3.2-1.8c.4-.2.6-.7.6-1.3v-1.6c0-.4-.1-.8-.2-1.2z" fill="#5e3d29"/><g><path d="M159.9 94.9c1.1.7 2 2.2 2 3.5v1.6c0 1.3-.9 1.8-2.1 1.2l-2.9-1.7c-1.1-.7-2-2.2-2-3.5v-1.6c0-1.3.9-1.8 2-1.2l3 1.7z" fill="#7d5137"/></g></g><g><path d="M154.7 92.8l-.5-.3c.2-.1.5-.2.6-.3.3-.1.6 0 .8.1l.5.3c-.2-.1-.5-.2-.8-.1l-.6.3z" fill="#452d1e"/><path d="M151.5 101.3l-.5-.3c-.4-.2-.6-.9-.4-2.3.5-3.7 2.5-5.6 3.6-6.2l.5.3c-1.1.6-3.1 2.5-3.6 6.2-.2 1.4 0 2.1.4 2.3z" fill="#452d1e"/><path d="M154.7 92.8c.3-.1.5-.2.6-.3 1-.2 1.4.8 1.4.9l-.3.8h-.1c-.4.2-1.3 1.5-1.6 3.8-.2 1.3-1.1 2.6-2 3.1-1 .6-1.9.2-1.5-2.2.4-3.6 2.4-5.4 3.5-6.1z" fill="#5e3d29"/></g><path d="M158.1 96.2c0 .3-.2.4-.4.3-.2-.1-.4-.5-.4-.8 0-.3.2-.4.4-.3.2.1.4.5.4.8zM164.3 94.6c-.1.5-.9 1.2-1.7 1.5-.9.3-1.5.2-1.4-.4.1-.5.8-1.2 1.7-1.5.8-.3 1.5-.1 1.4.4z"/></g><g><path d="M103.6 156.9c0 1.4 6.7-1 6.7-1 .4-.4-1.7-1-1.7-1l.1-2.8-5-.4v1.6c0 .3-2.2.1-2.2.4-.1 1.2 2.1 3.2 2.1 3.2z" fill="#f9cfb3"/><path d="M111.3 141c-5.8-4.5-8.5-1.1-8.8-.9-1 .8-2.5 2.3-2.9 3.7-1.1 2.3.4 4.5 2.4 6.6.6.6 1 1 1.5 1.4 1.1.9 3.3 1.3 3.5.8 0-.1-.1-.4-.3-.8l.9-.6c2.3-1.6 3.3-4 2.7-7.4 1.4.3 1.6.1 1.6.1s.6-1.9-.6-2.9z" fill="#2b0d04"/><path d="M106.4 151.1c.1 0 0 1.5.1 1.5 0 .1-.1.8-.1.8l3-.9c.1 0 .3-.1.4-.1.1 0 .3-.1.5-.2.3-.2.6-.7.7-1.1 0-.1.1-.1.1-.2 0-.3-.2-.4-.2-.7 0-.2.2-.3.2-.4.1-.2 0-.4 0-.5.1-.1.2-.3.3-.5 0-.2 0-.3.1-.5.1-.3.4-.5.6-.7.1-.1.1-.2.1-.3-.1-.3-.3-.5-.5-.7-.2-.2-.4-.3-.4-.7 0-.2.1-.5.2-.7.1-.5-.1-.8-.2-1.2v-.1c-.3 0-.7-.1-1.3-.2-.9-.2-.5 1.7-.8 2-.1.1-.4.5-.8 1.1 0 .2 0 .3-.1.5-.1.5-.2 1-.2 1.4 0 .3.1.5-.1.9-.1.1-.6.2-.6.1 0-.4 0-.8-.1-1.1-.1-.3-.3-.5-.6-.5s-.7.2-.9.6c-.3.5-.3 1-.2 1.4.2.5.4 1 .8 1z" fill="#f9cfb3"/><defs><path id="i" d="M128.8 188.3v.7c0 1 .7 2 2 2.8 2.7 1.6 7.1 1.6 9.8 0 1.4-.8 2-1.8 2-2.9v-.7c0 1-.7 2.1-2 2.9-2.7 1.6-7.1 1.6-9.8 0-1.3-.7-2-1.7-2-2.8z"/></defs><clipPath id="j"><use xlink:href="#i" overflow="visible"/></clipPath><g clip-path="url(#j)"><path d="M128.8 188.3V189.1v-.7-.1z" fill="#959595"/><path d="M128.8 188.5v.7c0 .6.3 1.1.7 1.7v-.7c-.4-.6-.6-1.2-.7-1.7z" fill="#aaa"/><path d="M129.6 190.1v.7c.3.4.7.7 1.3 1 1 .6 2.2.9 3.4 1.1v-.7c-1.3-.2-2.5-.5-3.4-1.1-.6-.3-1-.6-1.3-1z" fill="#bfbfbf"/><path d="M134.3 192.2v.7c1 .1 2 .1 3 0v-.7c-1 .2-2 .2-3 0z" fill="#aaa"/><path d="M137.3 192.2v.7c1.2-.2 2.4-.5 3.4-1.1 1.4-.8 2-1.8 2-2.9v-.7c0 1-.7 2.1-2 2.9-1 .6-2.2 1-3.4 1.1z" fill="#959595"/></g><path d="M130.9 185.5c-2.7 1.6-2.7 4.1 0 5.7 2.7 1.6 7.1 1.6 9.8 0 2.7-1.6 2.7-4.1 0-5.7-2.7-1.6-7.1-1.6-9.8 0z" fill="#dcdcdc"/><path d="M138.1 166.5c0 .4-.2.7-.7 1-.1.1-.3.2-.5.2h-.1c-.2 0-.3.1-.5.1h-1-.1c-.2 0-.3-.1-.5-.1h-.1c-.2-.1-.3-.1-.5-.2-.1-.1-.2-.1-.3-.2l-.1-.1-.1-.1c0-.1-.1-.1-.1-.2 0 0 0-.1-.1-.1v-.2-.1l.1 21.5v.4c0 .1.1.1.1.2l.1.1.1.1c.1.1.2.1.3.2.2.1.3.2.5.2h.1c.2 0 .3.1.5.1H136.4c.2 0 .3-.1.5-.1h.1c.2-.1.3-.1.5-.2.5-.3.7-.6.7-1l-.1-21.5z" fill="#1d2325"/><path d="M134 165.5c-.9.5-.9 1.4 0 1.9s2.4.5 3.4 0c.9-.5.9-1.4 0-1.9s-2.4-.5-3.4 0z" fill="#bebebe"/><defs><path id="k" d="M114 161.5v2.3c0 3.2 2.1 6.4 6.3 8.8 8.5 4.9 22.2 4.9 30.7 0 4.3-2.5 6.4-5.7 6.4-9v-2.3c0 3.2-2.1 6.5-6.4 9-8.5 4.9-22.3 4.9-30.7 0-4.2-2.4-6.3-5.6-6.3-8.8z"/></defs><use xlink:href="#k" overflow="visible" fill="#edc7af"/><clipPath id="l"><use xlink:href="#k" overflow="visible"/></clipPath><g clip-path="url(#l)"><path d="M114 161.5V164.2v-2.3-.4z" fill="#959595"/><path d="M114 161.9v2.3c.1 1.8.9 3.6 2.3 5.2v-2.3c-1.4-1.6-2.2-3.4-2.3-5.2z" fill="#edc7af"/><path d="M116.3 167.1v2.3c1 1.2 2.3 2.2 4 3.2 3.1 1.8 6.8 2.9 10.8 3.4v-2.3c-4-.5-7.7-1.6-10.8-3.4-1.6-.9-3-2-4-3.2z" fill="#edd1c0"/><path d="M131.1 173.7v2.3c3.1.4 6.3.4 9.4 0v-2.3c-3.1.4-6.3.4-9.4 0zM140.5 173.7v2.3c3.9-.5 7.5-1.6 10.5-3.4 4.3-2.5 6.4-5.7 6.4-9v-2.3c0 3.2-2.1 6.5-6.4 9-3 1.8-6.6 2.9-10.5 3.4z" fill="#edc7af"/></g><path d="M120.4 152.5c-8.5 4.9-8.6 12.9-.1 17.8s22.2 4.9 30.7 0 8.6-12.9.1-17.8c-8.4-4.9-22.2-4.9-30.7 0z" fill="#fff"/><g><path d="M124.6 149c-.2-.1-.4 0-.4.2v7.4c0 .2.2.5.4.6l11.7 6.8c.2.1.4 0 .4-.2v-7.4c0-.2-.2-.5-.4-.6l-11.7-6.8z" fill="#49bdf2"/><path d="M115.9 162.1c0 .1 0 .1 0 0 0 .1 0 .1 0 0v.1l4.6 2.7v-.3l1-.6-1.5-.9v-.1l-.1.1-2-1.2v-.7l.9-.5.2.1v-.3l.3-.2.6-.4 1.1-.6.3.2v-.3l.9-.5.2.1v-.2l.9-.5 1 .6v.2l.2-.1 1 .6v.2l.2-.1 1 .6v.2l.2-.1 1 .6v.2l.2-.1 1 .6v.2l.2-.1 1 .6v.2l.2-.1 1 .6v.2l.2-.1 1 .6v.2l.2-.1 1 .6v.7l-.5.3.2.1v-.2l.9-.5 1 .6v.7l-.9.5-.2-.1v.2l-.9.5-.2-.1v.2l-.9.5-.2-.1v.2l-.9.5-.2-.1v.2l-.9.5-2-1.2v-.1l-.1.1-1.5-.9v-.2l-.1.1-.6-.3v.3l-1 .6 3.7 2.2s.1 0 .1.1h.7s.1 0 .1-.1l7-4c.2-.1.2-.2.2-.3v.7c0 .1-.1.3-.2.3l-7 4.1s-.1 0-.1.1h-.1-.1-.1-.1-.1-.1s-.1 0-.1-.1l-12.1-7.1c-.7-.6-.7-.9-.7-1.1z" fill="#082c44"/><path d="M116.1 161.8l7-4c.3-.2.9-.2 1.2 0l12.2 7.1c.3.2.3.5 0 .7l-7 4c-.3.2-.9.2-1.2 0l-12.1-7.1c-.4-.2-.4-.6-.1-.7z" fill="#134169"/><path fill="#f8f9fc" d="M124.2 159.9l-.9.6.9.5 1-.5zM122.7 160.4l-.9.5.9.6 1-.6z"/><path fill="#f8f9fc" d="M121.4 159.7l-1.1.6-.6.3-.3.2 1.6 1 .9-.6-.5-.3 1.1-.6zM123.8 161l-.9.5.9.6.9-.5zM119.1 160.9l-.9.6 2 1.1.9-.5zM121.2 162.2l-.9.5 1.5.9.9-.6zM124.2 162.6l-.9.5.9.6.9-.6zM123.7 158.3l-.9.6.9.5 1-.5zM124.9 159l-1 .5 1 .6.9-.5zM122.6 159l-1 .5 1.5.9 1-.6zM126 159.7l-.9.5.9.6 1-.6zM127.1 160.3l-.9.6 1 .5.9-.5zM125.3 160.6l-.9.5.9.6.9-.6zM128.3 161l-.9.5.9.6 1-.5zM126.4 161.2l-.9.5.9.6.9-.5zM122 161.3l-.9.5 1 .6.9-.5zM129.4 161.7l-.9.5 1 .6.9-.6zM124.9 161.6l-1 .6 1 .5.9-.5zM127.5 161.8l-1 .6 1 .5.9-.5zM123.1 161.9l-.9.6.9.5 1-.5zM126 162.3l-1 .5 1 .6.9-.6zM130.6 162.3l-.9.6.9.5.9-.5zM128.6 162.5l-1 .5 1 .6.9-.6zM127 162.9l-.9.5 1 .6.9-.5zM131.7 163l-.9.5 1 .6.9-.5zM129.7 163.1l-1 .6 1 .5.9-.5zM125.3 163.2l-.9.6.9.5 1-.5zM128.1 163.5l-.9.6.9.5 1-.5zM132.9 163.7l-1 .5 1 .6.9-.6zM130.8 163.8l-1 .5 1 .6.9-.6zM126.4 163.8l-1 .6 1 .5.9-.5zM129.2 164.2l-.9.5.9.6 1-.6zM127.5 164.5l-1 .5 1 .6.9-.6zM134.5 164.6l-1 .5 1 .6.9-.5zM130.3 164.8l-.9.5.9.6.9-.5zM122.8 163.1l-.9.5 4.2 2.5.9-.5zM128.5 165.1l-.9.5 1 .6.9-.5zM131.9 164.4l-.9.6 2.3 1.4 1-.6zM122.1 164l-1.4.8 3.5 2 1.4-.8zM131.4 165.4l-1 .6 1.8 1 .9-.5zM127.2 165.7l-.9.5 1.5.9.9-.6zM129.6 165.7l-.9.6 2.4 1.4.9-.6zM128.8 166.6l-.9.5 2 1.2.9-.5z"/><g><path d="M124 148.2c.1 0 .1-.1.2-.1s.1-.1.2-.1c.1-.1.3-.1.4 0l12.1 7.1c.3.2.6.7.6 1v8.1c0 .2-.1.3-.2.4-.1.1-.3.2-.4.2.1-.1.2-.2.2-.4v-8.1c0-.4-.3-.8-.6-1l-12.1-7.1h-.4z" fill="#082c44"/></g><g><path d="M136.5 155.3c.3.2.6.7.6 1v8.1c0 .4-.3.5-.6.3l-12.1-7.1c-.3-.2-.6-.7-.6-1v-8.1c0-.4.3-.5.6-.3l12.1 7.1zm-12.3 1.3c0 .2.2.5.4.6l11.7 6.8c.2.1.4 0 .4-.2v-7.4c0-.2-.2-.5-.4-.6l-11.7-6.8c-.2-.1-.4 0-.4.2v7.4z" fill="#114269"/></g><path d="M134.8 158.6c-.2-.3-.7-.6-1.1-.7 0-.4-.2-.8-.6-1.3l-.2-.3-.1.1c-.2.2-.3.5-.2.8 0 .1.1.4.2.6-.1 0-.4-.1-.7-.3l-6.3-3.6v.1c-.1.3-.1 1.4.7 2.7.5 1 1.3 1.7 2.4 2.4 2.3 1.3 4 1.2 4.8-.2.3.2 1 .6 1.3.1l.1-.1-.3-.3zm-5-4.5l1 .6v-.9l-1-.6v.9zm0 1l1 .6v-.9l-1-.6v.9zm-1.1-.6l1 .6v-.9l-1-.6v.9zm-1.1-.7l1 .6v-.9l-1-.6v.9zm-1.2.4l1 .6v-.9l-1-.6v.9zm1.2.7l1 .6v-.9l-1-.6v.9zm1.1.6l1 .6v-.9l-1-.6v.9zm1.1.7l1 .6v-.9l-1-.6v.9zm1.2.7l1 .6v-.9l-1-.6v.9z" fill-rule="evenodd" clip-rule="evenodd" fill="#066da5"/></g><g><path d="M110.9 191.4s-.8 2.8.1 3.8c.3.3 1.3.4 2.6.1.8-.2 1.7-.7 2.5-.8 2.4-.3 3.8-1.6 4.8-2.9 2.1-2.8-1.7-2-4.2-1.1-2.7.9-5.8.9-5.8.9z" fill="#1e2022"/><path d="M110.7 192.4c.6.7 1.5 1.1 2.5 1.2 1.1-.2 2.3-.8 3.1-1.3.3-.2.6-.5.9-.7l-5.6-18.2c.2-4.5-5.6-4-7.5-4.2-2.1-.2-1.7.5-1.7 2.5l8.3 20.7z" fill="#040f2d"/></g><g><path fill="#c7a793" d="M109.1 193l-1.9 1-1.9-1 1.9-1.1z"/><path fill="#fff" d="M109.1 193v15.2l-1.9 1.1V194z"/><path fill="#edc7af" d="M107.2 194v15.3l-1.9-1.1V193z"/><path fill="#c7a793" d="M97.6 186.4l-1.9 1.1-1.9-1.1 1.9-1.1z"/><path fill="#fff" d="M97.6 186.4v15.3l-1.9 1v-15.2z"/><path fill="#edc7af" d="M95.7 187.5v15.2l-1.9-1v-15.3z"/><g><path fill="#c7a793" d="M120.5 186.4l-1.9 1.1-1.9-1.1 1.9-1.1z"/><path fill="#fff" d="M120.5 186.4v15.3l-1.9 1v-15.2z"/><path fill="#edc7af" d="M118.6 187.5v15.2l-1.9-1v-15.3z"/></g><g><path fill="#fff" d="M120.5 185.2v1.8l-13.3 7.7V193z"/><path fill="#fa7564" d="M120.5 185.2l-13.3 7.8-13.4-7.8 13.3-7.7z"/></g><g><path fill="#ed6b5a" d="M120.5 183.7v1.7l-13.3 7.7v-1.7z"/><path fill="#86352a" d="M107.2 191.4v1.7l-13.4-7.7v-1.7z"/><path fill="#fa7564" d="M120.5 183.7l-13.3 7.7-13.4-7.7 13.3-7.8z"/></g></g><g><path d="M119.8 198.8s-.8 2.7.1 3.7c.2.3 1.3.3 2.5.1.8-.2 1.7-.7 2.4-.8 2.3-.3 3.7-1.6 4.7-2.8 2-2.7-1.7-1.9-4.1-1.1-2.5.9-5.6.9-5.6.9z" fill="#1e2022"/><path d="M119.7 199.8c.6.7 1.4 1 2.4 1.1 1.1-.2 2.2-.7 3-1.3.3-.2.6-.5.9-.7l-.1-19.6c.2-4.3-2.8-4.3-4.6-4.5-2-.2-1.7.5-1.7 2.5l.1 22.5z" fill="#022540"/><path d="M118.4 172.7c-1.7-1-4.5-1-6.3 0L98.7 179c2.2.9 5.4 3.1 7.4 4.5l12.2-7.1c1.8-1.1 1.8-2.7.1-3.7z" fill="#040f2d"/><path d="M124.3 175.5c-1.7-1-4.5-1-6.3 0l-13.4 6.3c2.2.9 5.4 3.1 7.4 4.5l12.2-7.2c1.8-1 1.8-2.6.1-3.6z" fill="#022540"/></g><g><path d="M118.4 161.4c-.3-.2-.6-.1-.8.1-.2.3-.1.6.1.8l2.5 1.7c.3.2.6.1.8-.1.2-.3.1-.6-.1-.8l-2.5-1.7z" fill="#e9c2b0"/><path d="M117.5 160l2-.8 2 .2c.2 0 1.2.1 1.4.6.1.3.8 2.3.1 2.4-.5.1-4.4 0-4.4 0-.3 0-1 .4-1.2.3l-1.3-.5 1.4-2.2z" fill="#e9c2b0"/><path d="M109.3 157.4c-.4 1.7.2 4.5.5 6.3l9 .3.5-5.3-10-1.3z" fill="#135788"/></g><g><path d="M103.4 173.4c.2.1.3.3.4.7v4.2l-.7-.4v-4.2c-.1-.3-.2-.5-.4-.7l.7.4z" fill="#242629"/><path d="M117.8 175.7c1.1.7 2.4 1.4 3.5 2.1.7.7 1.4 1.3 2.1 1.9l-11.4 6.6c-2-1.4-5.2-3.6-7.4-4.5l13.2-6.1z" fill="#022540"/><path d="M100.1 186c4 2.2 9.3 2.3 13.1-.5.9-.6 1.6-1.4 2.3-2.3l.4-16.5c-.6-8.5-4.7-10.9-6.2-11.6 0 0-1.6 1.8-5.1 1-3.6-.8-2.3-2.9-2.3-2.9-4.7.1-4.7 6.1-4.8 8.3-.3 4.1-.5 12.8-.4 19.6.3 1.8 1.3 4 3 4.9z" fill="#2980b9"/></g><g><path fill="#fff" d="M94.6 186.7l.7-.5.1-12.7-.8.4z"/><path fill="#edc7af" d="M94.6 169.4l.8-.4v-4.2l-.8.4z"/><path fill="#fff" d="M106.4 176.2l.8-.4-11.8-6.8-.8.4zM106.4 190.8l.8-.5-11.8-6.8-.8.4zM94.9 161.5l-.8.4c.8-.5 3.4.4 6.4 2.1l.8-.4c-3-1.8-5.6-2.6-6.4-2.1zM107.2 193.2l.7-.4.1-23.2-.8.4z"/><path d="M107.2 170l.8-.4c0-1.2-3-3.9-6.7-6l-.8.4c3.7 2.1 6.7 4.8 6.7 6z" fill="#fff"/><path d="M107.2 170v23.2l-.8-.4v-12L94.6 174v12.7l-.8-.4v-23.9c0-1.2 3-.5 6.7 1.7 3.7 2 6.7 4.7 6.7 5.9zm-12.6-.6l11.8 6.8V172c-.9-1.2-3.1-3-5.9-4.7-2.8-1.6-5-2.3-5.9-2.2v4.3z" fill="#edc7af"/><path fill="#edc7af" d="M107.2 191.2v3.5l-13.4-7.8v-3.4z"/></g><path d="M123.8 170.2c.1.1.3.2.5.3 1.4-1.4 3.5-2.8 3.5-4 0-1.1-.3-2.1-2.8-1.7-.9.1-1.9 1.1-2.8 2.1-.1 1.2.6 2.6 1.6 3.3z" fill="#e5bd99"/><g><path d="M120.6 165.8c1.2-1.2 3.2-1.2 4.4 0 1.2 1.2 1.2 3.2-.1 4.4l-4.5 3.1c-1.2 1.2-3.2 1.2-4.4 0-1.2-1.2-1.2-3.2.1-4.4l4.5-3.1z" fill="#135788"/></g><g><path d="M118.9 170.7c.7 1.6 0 3.4-1.6 4.1-1.6.7-3.4 0-4.1-1.6l-5-11.1c-.7-1.6 0-3.4 1.5-4.1 1.6-.7 3.4 0 4.1 1.6l5.1 11.1z" fill="#135788"/></g><g><path d="M137 171c0-.3.1-.6.5-.8.7-.4 1.8-.4 2.5 0l.1-1.3c-.8-.4-2-.4-2.8 0-.4.2-.6.6-.6.9.2.4.2.8.3 1.2zM140.7 169.8c.1-.3-.1-.7-.6-.9l-.1 1.3c.4.2.6.5.5.8.1-.4.2-.8.2-1.2z" fill="#e49b1d"/><path d="M140 170.2c-.7-.4-1.8-.4-2.5 0s-.7 1.1 0 1.5c.7.4 1.8.4 2.5 0 .8-.5.7-1.2 0-1.5z" fill="#e49b1d"/><path d="M140.2 168.8c-.8-.4-2-.4-2.8 0-.8.5-.7 1.2 0 1.6.8.4 2 .4 2.8 0 .8-.4.7-1.1 0-1.6z" fill="#e49b1d"/><path d="M140.6 171c.1-.4.1-.8.2-1.2 0 .3-.2.5-.6.7-.8.5-2 .5-2.8 0-.4-.2-.5-.5-.6-.7.1.4.1.8.2 1.2 0 .2.2.5.5.7.7.4 1.8.4 2.5 0 .4-.3.5-.5.6-.7z" fill="#e49b1d"/><path d="M140.2 168.8c-.8-.4-2-.4-2.8 0-.8.5-.7 1.2 0 1.6.8.4 2 .4 2.8 0 .8-.4.7-1.1 0-1.6z" fill="#fff"/><g><path d="M137 165.2c1-.6 2.6-.6 3.5 0 .6.3.8.7.8 1.2-.2 1.2-.3 2.3-.5 3.5.1-.3-.1-.7-.6-.9-.8-.4-2-.4-2.8 0-.4.2-.6.6-.6.9-.2-1.2-.4-2.3-.5-3.5-.1-.5.1-.9.7-1.2z" fill="#fff"/></g><g><path d="M140.4 165.2c-.9-.5-2.3-.5-3.2 0-.9.5-.9 1.4 0 1.9s2.3.5 3.2 0c.9-.6.9-1.4 0-1.9z" fill="#4a2400"/></g><g><path d="M140.4 166c-.9-.5-2.3-.5-3.2 0-.2.1-.4.3-.5.5-.3-.5-.1-1 .5-1.3.9-.5 2.3-.5 3.2 0 .7.4.8.9.6 1.4l-.6-.6z" fill="#d1dce6"/></g><g><path d="M140.7 169.8c.2-1.2.3-2.3.5-3.5 0 .3-.3.6-.7.9-1 .6-2.6.6-3.5 0-.5-.2-.7-.6-.8-.9.2 1.2.4 2.3.5 3.5 0 .3.2.5.6.7.8.4 2 .4 2.8 0 .4-.2.6-.5.6-.7z" fill="#d1dce6"/></g><g><path d="M138.8 169.5c0-.2.1-.4.1-.6 0-.2-.2-.5-.4-.5.4-.1.8.2 1 .6.2.5 0 1-.3 1.1-.3-.2-.4-.3-.4-.6z" fill="#4a2400"/><path d="M138.4 168.4c.2 0 .3.1.4.3.1.2 0 .4-.1.6 0 .2 0 .3.1.5l.3.3c-.4.1-.8-.2-1-.7-.2-.4 0-.9.3-1z" fill="#4a2400"/></g></g></g><g><path d="M227.2 269.3c0 1.1.1.2 0 1.6h-1.3c0-.7 0 .2-.1-1.2l1.4-.4z"/><path d="M224.2 270.1h-3c.2-.2.5-.8.6-.8.2-.1 1.1-1.3 1.5-2.2.4-1 .9-1.8 1.1-3 .1-.6.9-6.7 1.4-10.6h4.6c-.1.3-.2.5-.3.8-.1.4-.4.8-.5 1.2-.1.7 0 1.7.1 2.5 0 .8.1 1.6 0 2.3-.2 1.7-.9 3.2-1.8 4.2-.4.4-.6 1-.8 1.6-.1.3-.2 1-.2 1.4 0 .2.1.6.2.9 0 .3-.1.3 0 .5.1.4.1.3-.2.3h-.7c-.3 0-.5.1-.8.3-.4.1-.8.2-1.2.6 0-.1 0-.1 0 0z" fill="#e0b29d"/><path d="M224.6 270.3c-.1.1-.5 1-1.7.8-.7-.1-2.1-.7-2.2-.7-.1-.1-.4-.3-.5-.5-.3-.7.8-.7 1-.7.2 0 .5 0 .7-.1h.1c.1.1.1.2.2.3.1.1.1.1.2.1.2.1.4.2.6.2.4 0 .7-.1 1-.3.8-.5 1.6-.8 2.5-1.1.3-.1.6-.4.7-.3.2.5.3.9.3 1 0 .6 0 1.2-.4 1.4-.2.1-.7.3-1.3 0-.5-.1-1-.2-1.2-.1z" fill="#212020"/><ellipse transform="matrix(.06406 -.9979 .9979 .06406 -47.506 491.603)" cx="238.3" cy="271.1" rx="15.7" ry="17.3" fill="#a1b400"/><path d="M226.4 264.9c3.2 2.7 8.2 4.8 13.1 3.9 4.3-.7 7.4-5.2 5.6-7.7-.8-1.2-6.6.3-7.8.5-2.2.3-4.5.7-6.6-.1h-.3c-1.2.1-2.3-.1-3.4-.1-.8 0-1.7 0-2.4.3-1.2.5 1.4 3 1.8 3.2z" fill="#82940d"/><path d="M249.6 259.3c4.4 8.2 1.4 19.4-8.3 22.9-6.6 2-12.6-2-18.5-5.3-.2 0-.3-.1-.5-.1 2.4 5.5 8.1 9.5 15 10 9.5.6 17.7-5.9 18.3-14.6.3-5.1-2.1-9.8-6-12.9z" fill="#82940d"/><path d="M218.6 272.6c0 1.1.1.2 0 1.6h-1.3c0-.6 0 .2-.1-1.2l1.4-.4z"/><path d="M215.6 273.4h-3c.2-.2.5-.8.6-.8.2-.1 1.1-1.3 1.5-2.2.4-1 .9-1.8 1.1-3 .1-.6.9-6.7 1.4-10.6h4.6c-.1.3-.2.5-.3.8-.1.4-.4.8-.5 1.2-.1.7 0 1.7.1 2.5 0 .8.1 1.6 0 2.3-.2 1.7-.9 3.2-1.8 4.2-.4.4-.6 1-.8 1.6-.1.3-.2 1-.2 1.4 0 .2.1.6.2.9 0 .3-.1.3 0 .5.1.4.1.3-.2.3h-.7c-.3 0-.5.1-.8.3-.3.2-.8.2-1.2.6.1-.1 0 0 0 0z" fill="#e0b29d"/><path d="M216 273.6c-.1.1-.5 1-1.7.8-.7-.1-2.1-.7-2.2-.7-.1-.1-.4-.3-.5-.5-.3-.7.8-.7 1-.7.2 0 .5 0 .7-.1h.1c.1.1.1.2.2.3.1.1.1.1.2.1.2.1.4.2.6.2.4 0 .7-.1 1-.3.8-.5 1.6-.8 2.5-1.1.3-.1.6-.4.7-.3.2.5.3.9.3 1 0 .6 0 1.2-.4 1.4-.2.1-.7.3-1.3 0-.4-.1-1-.2-1.2-.1z" fill="#212020"/><path d="M218.4 255.5c1.3-.7 4.9-2.2 5.9-2.8 1.8-1 4.6-1 6.3 0l13.5 6.3c-2.2.9-5.5 3.1-7.5 4.5l-.8-.5c-1.8 1-3.7 2.3-5.1 3.3l-12.4-7.2c-1.7-.9-1.7-2.6.1-3.6z" fill="#1c2a33"/><path fill="#242629" d="M218.3 247.8l-2.1-1.2.1 32 2.1 1.2z"/><path fill="#69b8b6" d="M220.1 246.8l-2.1-1.2-1.8 1 2.1 1.2z"/><path fill="#455257" d="M218.3 247.8l.1 32 1.7-1v-32z"/><path fill="#242629" d="M196.8 243.3l-2-1.2v24.1l2.1 1.2z"/><path fill="#69b8b6" d="M198.6 242.2l-2.1-1.2-1.7 1.1 2 1.2z"/><path fill="#455257" d="M196.8 243.3l.1 24.1 1.8-1-.1-24.2z"/><path fill="#07334e" d="M243.3 242l-2.1-1.2v23.4l2.1 1.2z"/><path fill="#69b8b6" d="M245 240.9l-2-1.2-1.8 1.1 2.1 1.2z"/><path fill="#edcab4" d="M190.3 242.3l.1 1.9 27.5 16v-1.9z"/><path fill="#eddace" d="M217.9 258.3v1.9l30.8-17.7v-2z"/><path fill="#fff" d="M190.3 242.3l27.6 16 30.8-17.8-27.6-16z"/><g><path d="M196.9 243.9c.3.2.8.2 1.1 0v1c-.3.2-.8.2-1.1 0v-.1l-5.1-2.9v-1l5.1 3z" fill="#f8f9fc"/><path d="M196.7 243.8l.2.1c.3.2.8.2 1.1 0l8.2-4.8c.3-.2.3-.5 0-.6l-.2-.1-9.3 5.4z" fill="#1f2527"/><path d="M191.4 240c-.3.2-.3.5 0 .6l4.1 2.4.8.4.5.3 9.3-5.4.2.1c.3.2.3.5 0 .6l-8.2 4.8c-.3.2-.8.2-1.1 0 .3.2.8.2 1.1 0l8.2-4.8c.3-.2.3-.5 0-.6l-5.5-3.2c-.3-.2-.8-.2-1.1 0l-8.3 4.8z" fill="#1f2527"/><path d="M191.1 240.3v1c0 .1.1.2.2.3v-1c-.1-.1-.2-.2-.2-.3z" fill="#f8f9fc"/><path fill="#ff5542" d="M191.3 240.6l.4.3 9.4-5.4-.4-.3z"/><path d="M198 243.9l8.2-4.8c.2-.1.2-.2.2-.3v1c0 .1-.1.2-.2.3l-8.2 4.8c-.2.1-.4.1-.6.1v-1c.2 0 .4 0 .6-.1z" fill="#181d1f"/><path d="M191.3 240.6l4.1 2.4.8.4.5.3.2.1c.3.2.8.2 1.1 0l8.2-4.8c.2-.1.2-.2.2-.3v.2c0 .1-.1.2-.2.3L198 244c-.3.2-.8.2-1.1 0l-.2-.1-.5-.3-.8-.4-4.1-2.4c-.1-.1-.2-.2-.2-.3v-.2c0 .1.1.2.2.3z" fill="#181d1f"/><path d="M191.3 240.6l4.1 2.4.8.4.5.3.2.1c.1.1.3.1.5.1v.2c-.2 0-.4 0-.5-.1l-.2-.1-.5-.3-.8-.4-4.1-2.4c-.1-.1-.2-.2-.2-.3v-.2c0 .1.1.2.2.3zM191.1 241.1v.2c0 .1.1.2.2.3l.4.2 3.7 2.2.8.4.5.3.2.1c.1.1.3.1.5.1v-.2c-.2 0-.4 0-.5-.1l-.2-.1-.5-.3-.8-.4-3.7-2.2-.4-.2c-.1-.1-.2-.2-.2-.3z" fill="#262d30"/><path fill="#ff6a59" d="M194.6 243.5v.2l.6.1v-.3zM195.2 243.5v.3l.2.3v-.2z"/><path fill="#962900" d="M195.4 243.9v.2l.5-.3v-.2z"/><path fill="#ff5542" d="M194.6 243.5h.6l.2.4.5-.3-.8-.4zM191.3 240.6v1l.4.3v-1z"/><g><path d="M199.5 237.6s-.1 0 0 0c-.2 0-.2-.1-.2-.2 0 0 0-.1.1-.1s.3 0 .4-.1c-.1.1-.2.3-.3.4z" fill="#ff5542"/><path d="M199.8 237.2l-.3.3v-.1l.3-.2z" fill="#ff5542"/><path d="M199.3 237.3c.1 0 .3 0 .4-.1l-.2.3c0-.1-.1-.2-.2-.2.1 0 0 0 0 0z" fill="#ff5542"/><path d="M199.5 237.5c0 .1-.1.1-.1.1-.1 0-.1-.1-.1-.2s0-.1.1-.1c0 0 .1.1.1.2z" fill="#ff5542"/><g><path d="M199.5 237.5c0 .1-.1.1-.1.1-.1 0-.1-.1-.1-.2s0-.1.1-.1c0 0 .1.1.1.2z" fill="#ffc300"/><path d="M199.1 238.1c0 .1-.1.1-.2 0-.2-.1-.3-.3-.3-.5 0-.1.1-.2.1-.2.2 0 .4-.1.6-.1 0 0-.1 0-.1.1s.1.2.1.2h.1c-.1.1-.2.3-.3.5z" fill="#ffc300"/><path d="M199.5 237.6c-.1.2-.3.3-.4.5v-.2l.4-.3c0-.1 0 0 0 0zM198.7 237.4c.2 0 .4-.1.6-.1h.1c.1 0 .1.1.1.2l-.4.4c0-.2-.1-.4-.3-.5h-.1z" fill="#ffc300"/><path d="M199.1 237.9c0 .2-.1.3-.3.2-.2-.1-.3-.3-.3-.5s.1-.3.3-.2c.2.1.3.3.3.5z" fill="#ffc300"/></g><g><path d="M199.1 237.9c0 .2-.1.3-.3.2-.2-.1-.3-.3-.3-.5s.1-.3.3-.2c.2.1.3.3.3.5z" fill="#ff5542"/><path d="M194.9 240.6h-.2c-.2-.1-.3-.3-.3-.5 0-.1 0-.2.1-.2l4.2-2.4c-.1 0-.1.1-.1.2 0 .2.1.4.3.5h.2c-1.3.7-3 1.6-4.2 2.4z" fill="#ff5542"/><path d="M199 238.1l-4.2 2.4c.1 0 .1-.1.1-.2l4.2-2.4c0 .1 0 .2-.1.2z" fill="#ff5542"/><path d="M194.4 239.9l4.2-2.4h.2c.2.1.3.3.3.5l-4.2 2.4c0-.2-.1-.4-.3-.5 0-.1-.1-.1-.2 0z" fill="#ff5542"/><path d="M194.9 240.4c0 .2-.1.3-.3.2-.2-.1-.3-.3-.3-.5s.1-.3.3-.2c.2.1.3.3.3.5z" fill="#ff5542"/></g><g><path d="M194.9 240.4c0 .2-.1.3-.3.2-.2-.1-.3-.3-.3-.5s.1-.3.3-.2c.2.1.3.3.3.5z" fill="#ffc300"/><path d="M194.2 240.9h-.2c-.2-.1-.3-.3-.3-.5 0-.1 0-.2.1-.2l.6-.4c-.1 0-.1.1-.1.2 0 .2.1.4.3.5h.2c-.1.2-.4.3-.6.4z" fill="#ffc300"/><path d="M194.9 240.6l-.6.4c.1 0 .1-.1.1-.2l.6-.4c-.1.1-.1.1-.1.2zM193.8 240.2l.6-.4h.2c.2.1.3.3.3.5l-.6.4c0-.2-.1-.4-.3-.5h-.2z" fill="#ffc300"/><path d="M194.3 240.7c0 .2-.1.3-.3.2-.2-.1-.3-.3-.3-.5s.1-.3.3-.2c.2.1.3.3.3.5z" fill="#d69200"/></g></g></g><g><path d="M221.6 222.8c.2-.1.4 0 .4.3l.1 9.1c0 .3-.2.6-.4.8l-14.3 8.3c-.2.1-.4 0-.4-.2l-.1-9.1c0-.3.2-.6.4-.8l14.3-8.4z" fill="#6c6c6c"/><path d="M232 238.7c0 .1 0 .1 0 0v.1h-.1l-5.5 3.2v-.3l-1.2-.7 1.8-1v-.1l.1.1 2.4-1.4v-.8l-1.1-.6-.3.1v-.3l-.4-.2-.7-.4-1.3-.7-.3.2v-.4l-1.1-.6-.3.1v-.3l-1.1-.6-1.2.7v.3l-.2-.1-1.2.7v.3l-.2-.1-1.2.7v.3l-.2-.1-1.2.7v.3l-.2-.1-1.2.7v.3l-.2-.1-1.2.7v.3l-.2-.1-1.2.7v.3l-.2-.1-1.2.7v.3l-.2-.1-1.2.7v.8l.6.4-.3.2v-.3l-1.1-.6-1.2.7v.8l1.1.6.3-.1v.3l1.1.6.2-.1v.3l1.1.6.2-.1v.3l1.1.6.3-.1v.3l1.1.6 2.5-1.4v-.2l.1.1 1.8-1.1v-.2l.2.1.7-.4v.3l1.2.7-4.5 2.6-.1.1h-.1-.1-.7-.1c-.1 0-.1 0-.2-.1l-8.4-4.9c-.2-.1-.3-.3-.3-.4v.8c0 .1.1.3.3.4l8.4 4.9.1.1h.7s.1 0 .1-.1l14.6-8.5c.8-1.3.8-1.6.8-1.9z" fill="#082c44"/><path d="M231.7 238.3l-8.4-4.9c-.4-.2-1-.2-1.4 0l-14.6 8.5c-.4.2-.4.6 0 .8l8.4 4.9c.4.2 1 .2 1.4 0l14.6-8.5c.4-.2.4-.6 0-.8z" fill="#134169"/><path fill="#f8f9fc" d="M222 236.1l1.1.6-1.1.7-1.1-.6zM223.8 236.6l1.1.7-1.1.7-1.2-.7z"/><path fill="#f8f9fc" d="M225.4 235.8l1.3.7.8.5.3.2-1.9 1.1-1.1-.6.6-.4-1.3-.7zM222.5 237.4l1.1.6-1.1.7-1.2-.6zM228.1 237.3l1.1.7-2.4 1.4-1.1-.7zM225.6 238.8l1.1.6-1.8 1.1-1.1-.7zM222 239.3l1.1.6-1.1.7-1.1-.7zM222.6 234.2l1.1.6-1.1.7-1.2-.7zM221.2 235l1.1.6-1.1.7-1.1-.7zM224 234.9l1.1.7-1.8 1-1.1-.6zM219.8 235.8l1.2.6-1.2.7-1.1-.7zM218.5 236.6l1.1.6-1.2.7-1.1-.6zM220.7 236.9l1.1.6-1.1.7-1.2-.7zM217.1 237.4l1.1.6-1.1.7-1.2-.6zM219.4 237.6l1.1.7-1.2.6-1.1-.6zM224.6 237.8l1.1.6-1.1.7-1.1-.7zM215.7 238.2l1.1.6-1.1.7-1.1-.6zM221.2 238.2l1.1.6-1.1.7-1.2-.7zM218.1 238.4l1.1.6-1.2.7-1.1-.6zM223.3 238.5l1.1.7-1.1.6-1.2-.6zM219.9 238.9l1.1.7-1.1.6-1.2-.6zM214.3 239l1.2.6-1.2.7-1.1-.6zM216.7 239.2l1.2.6-1.2.7-1.1-.7zM218.6 239.7l1.1.6-1.1.7-1.2-.6zM213 239.8l1.1.6-1.2.7-1.1-.6zM215.4 239.9l1.2.7-1.2.7-1.1-.7zM220.7 240.1l1.1.6-1.2.7-1.1-.7zM217.3 240.4l1.1.7-1.1.7-1.2-.7zM211.6 240.6l1.1.6-1.2.7-1.1-.6zM214.1 240.7l1.1.6-1.1.7-1.1-.6zM219.4 240.8l1.1.6-1.1.7-1.2-.6zM216 241.2l1.1.6-1.1.7-1.2-.6zM218.1 241.6l1.1.6-1.1.7-1.2-.7zM209.7 241.7l1.1.7-1.2.6-1.1-.6zM214.7 242l1.1.6-1.1.7-1.2-.7zM223.7 239.9l1.1.6-5.1 3-1.1-.6zM216.8 242.3l1.1.7-1.1.6-1.2-.6zM212.7 241.5l1.2.6-2.9 1.7-1.1-.6zM224.5 241l1.7 1-4.2 2.4-1.6-1zM213.4 242.7l1.1.7-2.1 1.2-1.1-.6zM218.4 243l1.1.6-1.8 1.1-1.1-.7zM215.5 243.1l1.1.6-2.8 1.7-1.2-.7zM216.5 244.1l1.1.7-2.5 1.4-1.1-.7z"/><g><path d="M222.2 222c-.1-.1-.2-.1-.2-.1-.1 0-.1-.1-.2-.1-.1-.1-.3-.1-.5.1l-14.6 8.5c-.4.2-.7.8-.7 1.2v9.7c0 .2.1.4.2.5.2.1.3.2.5.3-.1-.1-.2-.2-.2-.5l-.1-9.7c0-.5.3-1 .7-1.3l14.6-8.5c.3-.1.5-.2.5-.1.1 0 0 0 0 0z" fill="#082c44"/></g><g><path d="M221.8 222.1c.4-.2.7 0 .7.4l.1 9.7c0 .5-.3 1-.7 1.3l-14.6 8.5c-.4.2-.7 0-.7-.4l-.1-9.7c0-.5.3-1 .7-1.3l14.6-8.5zm.2 10l-.1-8.9c0-.3-.2-.4-.4-.2l-14 8.1c-.2.1-.4.5-.4.8l.1 8.9c0 .3.2.4.4.2l14-8.1c.2-.1.4-.5.4-.8z" fill="#114269"/></g><g><path d="M212 232.6v.4c0 .1.1.2.1.2v.1s0 .1-.1.2l-.3.3-.1.1h-.1c-.1 0-.1-.1-.2-.1 0 0-.1-.1-.1-.2-.3.6-.8 1-1.3 1.3-.4.2-.6.3-.9.2-.2-.1-.3-.3-.3-.6 0-.4.1-.7.4-1.1.3-.4.6-.7 1.1-.9.1-.1.3-.2.5-.2.2-.1.3-.1.5-.2v-.3c0-.3-.1-.5-.2-.6-.1-.1-.4 0-.7.2-.2.1-.3.2-.5.3-.2.1-.3.3-.5.4-.1.1-.1.1-.2.1 0 0-.1 0-.1.1-.1 0-.1 0-.1-.1v-.2-.2c0-.1.1-.1.1-.2l.5-.5c.2-.2.4-.3.7-.5.5-.3.9-.4 1.1-.3.2.1.4.4.4.9l.3 1.4zm-1.7 1.6c.1-.1.3-.2.4-.3s.3-.3.4-.5c.1-.1.1-.2.1-.4V232.4c-.1 0-.3.1-.4.2-.1.1-.3.1-.4.2-.3.2-.5.3-.6.5s-.2.4-.2.6c0 .2.1.3.2.4.1.1.3 0 .5-.1zm3.4-1.5c-.1 0-.1.1-.2.1 0 0-.1 0-.1-.1l-1-2.7v-.1c0-.1 0-.1.1-.2l.4-.2c.1 0 .1-.1.2-.1l.1.1.7 2.4.7-3.2c0-.1 0-.2.1-.2s.1-.1.2-.1l.3-.2c.1 0 .1-.1.2-.1 0 0 .1 0 .1.1l.7 2.5.7-3.3c0-.1.1-.2.1-.2s.1-.1.2-.1l.4-.2h.1v.2l-1 3.9c0 .1-.1.2-.1.2s-.1.1-.2.1l-.4.2c-.1 0-.1.1-.2.1 0 0-.1 0-.1-.1l-.7-2.5-.7 3.2c0 .1 0 .2-.1.2s-.1.1-.2.1l-.3.2zm5.5-3.1c-.2.1-.4.2-.7.3s-.4.1-.5.1h-.1V229.7c0-.1 0-.2.1-.2h.2c.1 0 .3-.1.5-.1.2-.1.3-.1.5-.2.3-.2.5-.3.6-.5s.2-.4.2-.5c0-.1 0-.2-.1-.2h-.4l-.6.2c-.3.1-.5.1-.7 0-.1-.1-.2-.3-.2-.5s0-.4.1-.5c.1-.2.2-.4.3-.5.1-.2.3-.3.4-.5.2-.2.4-.3.5-.4.1-.1.2-.1.3-.1.1 0 .2-.1.3-.1.1 0 .2-.1.2-.1H220.4V225.8c0 .1 0 .2-.1.2h-.2c-.2 0-.5.1-.8.3-.2.1-.4.3-.6.5s-.2.3-.2.5c0 .1 0 .2.1.2h.5l.6-.2c.3-.1.5-.1.7 0s.2.3.2.5 0 .4-.1.6l-.3.6c-.1.2-.3.4-.5.5 0-.2-.2 0-.5.1z" fill="#252f3e"/><path d="M220.1 231.2c-1.4 1.9-3.5 3.6-5.2 4.6-2.5 1.4-4.7 1.8-6.4 1.3-.1 0 0-.3.1-.3 1.8 0 4.1-.7 6.4-2 1.6-.9 3.3-2.2 4.9-3.8.2-.2.4-.1.2.2zm.5-1c-.2-.1-1.2.6-1.7.9-.1.1-.2 0 0-.2.8-1 2.1-1.6 2.3-1.5.2.1 0 1.5-.8 2.6-.1.2-.2.2-.2 0 .2-.5.6-1.7.4-1.8z" fill="#f90"/></g></g><g><path d="M226.1 235.7l-3.9-.3c-.2 0-1.1.2-1.3.7-.1.3-.6 2.3.1 2.3.5 0 4.2-.3 4.2-.3.3 0 1 .3 1.1.2l1.2-.6-1.4-2z" fill="#e0b29d"/><path d="M225.6 235.4c-1.2 0-2 2.6-1 2.7l9.5 1.4c1.4.2 2.6-.8 2.8-2.2.2-1.4-.8-2.6-2.2-2.7l-9.1.8z" fill="#1a4e75"/><path d="M239.6 233.2c0 1.5-2.7 1.9-4.8 2.1-.4-.4-.7-.8-.7-.8l-.1-3.1 5.5-2.2.1 4c0-.1 0 0 0 0z" fill="#e0b29d"/><path d="M232.8 235.6c0-.3 1.1-2.4 1.4-2.2 1.1.8 4.1.7 4.9.3.7-.3.6-1.4.6-1.4s1.1.7 1.7 1.3c1 1 .5 2.8-3.3 3.6-1.2.2-2.5.1-3.6-.4-.9-.4-2.5-.3-1.7-1.2z" fill="#fff"/><path d="M228.6 260.6c1.3-3 2.6-8.2.6-14.2-2.4-7.2 2.2-10.8 3.8-11.4 0 0 1.7 1.9 5.2 1.1 3.6-.8 2.4-3.1 2.4-3.1 4.7.1 4.6 6.3 4.8 8.5.2 2.8.1 8.4.1 13.5.1 2.1-16.9 5.6-16.9 5.6z" fill="#2980b9"/><path d="M245.5 255c0 1.3.3 5.1.3 6.3-.4 1.6-1.4 3.9-3.1 4.9-4 2.3-9.4 2.3-13.3-.5-.9-.6-1.6-1.4-2.3-2.3 0 0 2-4.4 2.8-7.9 0 0 2 1.9 4.3 2.2 6 .8 11.3-2.7 11.3-2.7z" fill="#1c2a33"/></g><g><path d="M218.8 243.6l-1.4-2-1.5-1.3c-.2-.1-.9-.7-1.4-.5-.3.1-2.1 1.1-1.7 1.6.3.4 2.8 2.6 2.8 2.6s.6.1 1.6.9l.4 1 1.2-2.3z" fill="#e0b29d"/><path d="M222.3 248.7c-.8 1.1-.6 2.6.5 3.4 1.1.8 2.6.5 3.4-.5l8.6-10.4c1-1.4.7-3.3-.7-4.2-1.4-1-3.3-.7-4.2.7l-7.6 11z" fill="#135788"/><path d="M218.1 242.5c-1-.8-3.4.7-2.7 1.4l6.6 7.8c1 1.1 2.7 1.2 3.8.2 1.1-1 1.2-2.7.2-3.8l-7.9-5.6z" fill="#135788"/></g><path d="M241 228.5c-2.6 2.7-3.6 2.7-6.2.8-1.7-1.2 0-4.1-.6-6.1-.4-1.1-3.7-1-3.5-2.3.7-4 6.7-5.1 9.8-3.2 5.9 3.5 3.7 7.4.5 10.8z" fill="#1d232b"/><path d="M231.9 229c-.2.1-.2.3-.1.4.1.2.2.4.2.5v.5c0 .4.4.8.7 1.1.3.2.6.3 1 .4 1.2.2 2.3.2 3-.6.6-.7.8-1.9 1-3.1.1-.7.1-1.5 0-2.4 0-.3-.1-.5-.2-.8-.8-2.4-2.7-3.7-4.3-3.9-1.5-.2-2.4 1.2-2.1 3.2 0 .2.1.5.2.7.1.5-.2.8-.3 1.1-.1.2-.5.7-.1 1.1.2.2.4.2.5.5.1.2.2.5.2.8v.2c-.1.4.2.3.3.3z" fill="#e0b29d"/><path d="M244.1 222.2c-.4-1.6-4.1-1.7-4.1-1.7-.3-.2-2-6.3-8.5-1.4-1.3 1-.9 4.6-.9 4.6s4.9 2.9 5.9 4.7c.1.2-.3 4.7 4.2 2 2.5-1.5 4.6-3.5 3.4-8.2z" fill="#1d232b"/><ellipse transform="rotate(-72.025 236.031 227.215)" cx="236" cy="227.2" rx="1.6" ry="1" fill="#e0b29d"/><path d="M247.2 223.8c.6-1.9-.4-3.9-2.1-4.5-1.8-.6-3.6.5-4.2 2.4-.6 1.9.4 3.9 2.1 4.5 1.7.6 3.6-.5 4.2-2.4z" fill="#1d232b"/><path d="M243 226.2c-1.8-.6-2.7-2.6-2.1-4.5.3-1.1 1.1-1.9 2-2.3-1.2.2-2.2 1.2-2.6 2.5-.6 1.9.4 3.9 2.1 4.5.7.2 1.5.2 2.2-.1-.5.1-1.1.1-1.6-.1z" fill="#fa7564"/><g><path d="M190 268.1c-.3 0-.6-.1-.8-.4-.2-.3-.3-.6-.2-.9 0-.5-.4-2.4-1.4-3-.2-.1-.8-.3-1.3-.4-1.7-.5-4.9-1.4-4.4-4.7.1-.6.6-1 1.2-.9.6.1 1 .6.9 1.2-.2 1.2.7 1.6 2.8 2.2.7.2 1.3.4 1.8.7 2.2 1.3 2.5 4.6 2.5 4.7 0 .3.1.9-.4 1.3-.2.1-.5.2-.7.2z" fill="#394242"/><path d="M195.5 276.4l.8-.5c0 .3-.1.5-.3.6l-.8.5c.1-.1.3-.3.3-.6z" fill="#586162"/><path fill="#586162" d="M195.5 271.9l.8-.4v4.4l-.8.5z"/><path d="M193.8 270.2l.8-.5c.2-.1.4-.1.7.1l-.8.5c-.3-.2-.5-.2-.7-.1z" fill="#5d6768"/><path d="M194.5 270.3l.8-.5c.5.3 1 1.1 1 1.7l-.8.5c0-.7-.5-1.4-1-1.7z" fill="#586162"/><path d="M194.5 270.3c.5.3 1 1.1 1 1.7v4.4c0 .6-.4.9-1 .6-.5-.3-1-1.1-1-1.7v-4.4c0-.7.5-1 1-.6z" fill="#93a2a3"/><path d="M198.8 274.7l.8-.5c0 .3-.1.5-.3.6l-.8.5c.2-.1.3-.3.3-.6z" fill="#586162"/><path fill="#586162" d="M198.8 272.4l.8-.5v2.3l-.8.5z"/><path d="M197.1 270.6l.8-.5c.2-.1.4-.1.7.1l-.8.5c-.3-.1-.5-.2-.7-.1z" fill="#5d6768"/><path d="M197.8 270.7l.8-.5c.5.3 1 1.1 1 1.7l-.8.5c0-.6-.4-1.4-1-1.7z" fill="#586162"/><path d="M197.8 270.7c.5.3 1 1.1 1 1.7v2.3c0 .6-.4.9-1 .6-.5-.3-1-1.1-1-1.7v-2.3c0-.6.5-.9 1-.6z" fill="#93a2a3"/><path d="M189.9 273.2l.8-.5c0 .3-.1.5-.3.6l-.8.5c.2-.1.3-.3.3-.6z" fill="#586162"/><path fill="#586162" d="M189.9 268.9l.9-.5v4.3l-.9.5z"/><path d="M188.3 267.1l.8-.5c.2-.1.4-.1.7.1l-.8.5c-.3-.2-.5-.2-.7-.1z" fill="#5d6768"/><path d="M189 267.2l.8-.5c.5.3 1 1.1 1 1.7l-.8.5c0-.7-.5-1.4-1-1.7z" fill="#5d6768"/><path d="M189 267.2c.5.3 1 1.1 1 1.7v4.3c0 .6-.4.9-1 .6-.5-.3-1-1.1-1-1.7v-4.3c0-.7.4-.9 1-.6z" fill="#93a2a3"/><g><path d="M193 271.7l.8-.5c0 .3-.1.5-.3.6l-.8.5c.2-.1.3-.3.3-.6z" fill="#5d6768"/><path fill="#586162" d="M193.1 269.4l.8-.5v2.3l-.9.5z"/><path d="M191.4 267.6l.8-.5c.2-.1.4-.1.7.1l-.8.5c-.3-.1-.5-.2-.7-.1z" fill="#5d6768"/><path d="M192.1 267.7l.8-.5c.5.3 1 1.1 1 1.7l-.8.5c0-.6-.5-1.4-1-1.7z" fill="#5d6768"/><path d="M192.1 267.7c.5.3 1 1.1 1 1.7v2.3c0 .6-.4.9-1 .6-.5-.3-1-1.1-1-1.7v-2.3c0-.6.4-.9 1-.6z" fill="#93a2a3"/></g><g><ellipse transform="rotate(-72.218 194.278 268.346)" cx="194.3" cy="268.3" rx="4.8" ry="6.7" fill="#758586"/></g><g><circle cx="200.1" cy="267.2" r="4.2" fill="#95a5a6"/></g><g><path d="M203.4 268.9l-.7 1.3c-.1.2-.2.3-.3.3-.1.1-.2.1-.3 0l-.7-.4c-.2-.1-.2-.4 0-.7l2.1-1.2c.1.1.1.4-.1.7z" fill="#333"/></g><g><path d="M201 263.7l-.3-.3c1.3-1.9 2.4-2.1 2.5-2.2l.3.3c-.1.1-1.2.6-2.5 2.2z" fill="#394242"/><path d="M203.5 261.5c0 .1.5.9-.5 2.6-.6-.3-1.3-.5-2-.4 1.3-1.6 2.4-2.1 2.5-2.2z" fill="#647475"/></g><g><path d="M195 264.8c.1 0 1.7-.7 2.9-.1l.5.3c-1.2-.6-2.8 0-2.9.1l-.5-.3z" fill="#394242"/><path d="M196.8 267.7l-.5-.3c-1.2-.7-1.3-2.5-1.3-2.6l.5.3c0 .1.2 1.8 1.3 2.6z" fill="#394242"/><path d="M195.5 265.1c.1 0 1.7-.7 2.9-.1 0 0-.5.4-.9 1.2-.5.8-.6 1.6-.6 1.6-1.2-.8-1.4-2.6-1.4-2.7z" fill="#647475"/></g><path d="M206.2 266.6c-1 .4-1.8 1.1-2.6 1.8 0 0 0 .1.1.1l1.2-.9c.5-.3 1-.5 1.4-.8 0-.1 0-.2-.1-.2z" fill="#333"/><path d="M207.2 267.5c-.7 0-1.4.2-2.1.4-.4.1-1.1.3-1.5.7.4-.1.8-.3 1.3-.5.7-.3 1.5-.4 2.3-.5.1 0 .1-.1 0-.1zM206.7 268.5c-.5 0-1.1.2-1.6.3-.5.1-.9.1-1.4.2v.1c1 0 2.1 0 3-.4.1-.1.1-.2 0-.2zM200.6 270c-1.5-.1-3.1.6-4.2 1.6-.1 0 0 .1.1.1.6-.3 1.2-.7 1.9-1 .7-.4 1.5-.5 2.2-.7.1.1.1 0 0 0zM200.5 270.4c-.7.1-1.3.5-1.9 1-.5.4-1.2.8-1.5 1.4 0 .1 0 .1.1.1.5-.3.9-.8 1.4-1.2.6-.5 1.2-.9 1.9-1.3.1 0 0-.1 0 0zM200.7 270.7c-.9.7-2.1 1.5-2.6 2.5 0 .1.1.1.1.1.4-.4.7-.9 1.2-1.3.4-.4.9-.8 1.3-1.3.1 0 .1-.1 0 0z" fill="#333"/><ellipse cx="199.6" cy="268.1" rx=".4" ry=".4" fill="#1c2929"/><ellipse cx="203.2" cy="266.2" rx=".4" ry=".4" fill="#1c2929"/></g><g><path d="M209.9 247.4c0 .1 0 .2-.1.2l-1 .6v-.2s0-.1-.1-.1l.4-.2.1-.1v-.5s0-.1-.1-.1l-3.9-2.3h-.3l-.9.5v-.2h-.2l-.7.4v.3l-.5.3-.1.1v.3l-.4-.2c-.1-.1-.1-.1-.1-.2v.5c0 .1 0 .1.1.2l4.7 2.8c.2.1.5.1.7 0l2.3-1.3c.1-.1.1-.1.1-.2v-.6z" fill="#181d1f"/><path d="M209.1 247l-3.9-2.3h-.3l-2.3 1.3c-.1 0-.1.1 0 .2l3.9 2.3h.3l2.3-1.3v-.2z" fill="#49bdf2"/><path d="M208.3 247.9c.1-.1.3-.1.4 0 .1.1.1.2 0 .2l-.4.2c-.1.1-.3.1-.4 0-.1-.1-.1-.2 0-.2l.4-.2z" fill="#f8f9fc"/><path d="M204.4 244.5c.2-.1.5-.1.7 0l4.7 2.8c.2.1.2.3 0 .4l-2.3 1.3c-.2.1-.5.1-.7 0l-4.7-2.8c-.2-.1-.2-.3 0-.4l2.3-1.3zm4.7 2.5l-3.9-2.3h-.3l-2.3 1.3c-.1 0-.1.1 0 .2l3.9 2.3h.3l2.3-1.3v-.2zm-.4 1.1c.1-.1.1-.2 0-.2-.1-.1-.3-.1-.4 0l-.4.2c-.1.1-.1.2 0 .2.1.1.3.1.4 0l.4-.2zm-5.6-2.7c-.1.1-.1.1 0 0 0 .1.1.1.2.1l.7-.4v-.1h-.2l-.7.4z" fill="#2c3538"/><path d="M203.7 245h.2v.1l-.7.4h-.2v-.1l.7-.4z" fill="#f8f9fc"/></g></g></svg>