<svg xmlns="http://www.w3.org/2000/svg" viewBox="0 0 800 580" id="k8s">
  <g fill="none" fill-rule="evenodd">
    <g transform="translate(280 41)">
      <g fill="#B8E986" transform="rotate(30 -104.207 133.582)">
        <polygon points="16.848 114.64 0 84.22 33.696 84.22"/>
        <polygon points="12.168 0 21.528 0 21.528 106.216 12.168 106.216"/>
      </g>
      <g fill="#B8E986" transform="matrix(-.86603 .5 .5 .86603 114.046 70)">
        <polygon points="16.848 114.64 0 84.22 33.696 84.22"/>
        <polygon points="12.168 0 21.528 0 21.528 106.216 12.168 106.216"/>
      </g>
      <g fill="#B8E986" transform="scale(-1 1) rotate(30 -222.145 -306.57)">
        <polygon points="16.848 114.64 0 84.22 33.696 84.22"/>
        <polygon points="12.168 0 21.528 0 21.528 106.216 12.168 106.216"/>
      </g>
      <g transform="translate(61)">
        <path fill="#151D38" fill-rule="nonzero" d="M0,80.0279875 L0.017724773,47.0892393 C0.0180990795,46.3659759 0.60440363,45.7798536 1.32751754,45.7798536 C9.78536659,45.7791752 18.2432156,45.7791752 26.7010647,45.7791752 C27.2249819,45.5733081 27.0378686,45.4423017 26.9630233,45.3112953 C25.3351378,42.6163068 24.2685921,39.7154511 23.8569429,36.5712978 C22.9400878,29.3659466 24.9796225,23.0963553 29.8819904,17.7250935 C30.1626603,17.4256503 30.4433302,17.1449224 30.7427115,16.8641944 C30.9859587,16.6208968 30.9859587,16.6208968 30.7614228,16.3963144 C29.9942584,15.6664217 29.3019392,14.8616682 28.7218881,13.9633387 C27.4120951,11.8859517 26.6823534,9.62141277 26.6262194,7.15100664 C26.607508,6.53340511 26.7384873,6.45854432 27.2998272,6.73927229 C27.8985897,7.03871545 28.5160635,7.30072823 29.1709599,7.5065954 C29.2458053,6.42111392 29.114826,5.52278442 29.0961146,4.60573972 C29.0961146,4.26886615 29.0774033,3.95070779 29.0961146,3.61383423 C29.0961146,3.14595428 29.2645166,3.03366309 29.6761658,3.27696066 C30.3310623,3.65126462 30.9859587,3.98813819 31.6782779,4.26886615 C32.0899271,4.43730294 32.0899271,4.43730294 32.0525044,3.98813819 C31.9402365,2.80908071 31.9215251,1.63002324 32.0525044,0.45096577 C32.1647724,0.00180101839 32.370597,-0.0730597735 32.5202876,0.0579466123 C32.6325556,0.151522602 32.7074009,0.282528988 32.8009575,0.394820176 C34.2417298,2.19147918 35.850904,3.80098621 37.7781707,5.09233487 C39.4621902,6.21524674 41.277189,6.83284828 43.2980124,6.85156347 C44.8136299,6.87027867 46.2731135,6.55212031 47.6764631,6.00937957 C48.986256,5.50406922 50.296049,4.98004368 51.6619759,4.68060051 C53.0466141,4.38115734 54.4499637,4.25015096 55.834602,4.58702452 C58.1922293,5.16719566 59.7826921,6.68312669 60.7743925,8.85408966 C61.1486191,9.67755837 61.3544437,10.5384575 61.485423,11.436787 C61.5415569,11.7736605 61.5415569,11.7736605 61.8970722,11.7549453 C63.9553182,11.6052238 65.938719,11.9233821 67.7350064,12.9901484 C69.8868091,14.2814971 71.0843341,16.2278777 71.5521173,18.6421382 C71.8889212,20.420082 71.7953645,22.1793106 71.5146946,23.9572544 C71.2901587,25.3421791 70.9159321,26.7083885 70.4668603,28.0371676 C70.3545923,28.3740411 70.279747,28.3553259 70.6913962,28.5050475 C72.7870649,29.216225 74.0968579,30.6572953 74.4710844,32.8282583 C74.9950016,35.8039747 73.0864462,38.4428176 70.3171696,39.0978496 C69.8119638,39.2101408 69.2880466,39.2850016 68.7641294,39.228856 C68.5395935,39.1914256 68.4647482,39.3037167 68.4086142,39.5095839 C68.0156763,40.931939 67.4730478,42.3168636 66.8181514,43.6456427 C65.4709358,46.321916 63.6746483,48.6238853 61.429289,50.5889811 C60.9240831,50.9445699 60.8866605,51.1504371 60.9989284,51.431165 C61.260887,52.1610578 61.485423,52.9096657 61.7286702,53.6395584 C63.2442878,58.3557883 64.7786166,63.053303 66.2755229,67.7695329 C66.3877908,68.1064064 66.5374814,68.2374128 66.8742853,68.2935584 C68.3524802,68.6117168 69.2880466,69.5287615 69.6809845,70.9885469 C69.7558298,71.3067053 69.8119638,71.6435788 69.8680978,71.9617372 C70.223613,71.75587 70.3733036,71.5500028 70.5978396,71.3628509 C71.2340247,70.8388253 71.9450552,70.7265341 72.7122196,70.9885469 C73.4980954,71.2692749 73.9658786,71.849446 74.0781465,72.6729147 C74.1155692,72.9536427 74.1904145,73.0285035 74.4710844,73.0659339 C75.7808773,73.2718011 76.5480418,74.5631497 76.1176812,75.8357832 C76.0054133,76.1539415 76.0428359,76.3785239 76.2673719,76.6405367 C76.847423,77.332999 77.1842269,78.1377525 77.2964949,79.036082 C77.3526289,79.4291012 77.2964949,79.4291012 77.7268554,79.4291012 L85.4546338,79.4291012 C85.4546338,78.6430629 85.2113865,78.0254613 85.0804072,77.3517142 C84.2009748,77.4078598 83.6022123,77.5575814 83.0221612,77.7447334 C82.6853573,77.8570246 82.5169553,77.7821638 82.4608214,77.5950118 C82.4046874,77.426575 82.5356667,77.2955686 82.8537592,77.2019926 C83.3963877,77.0335558 83.9390162,76.8838343 84.4816447,76.7153975 C85.0242733,76.5469607 84.9307166,76.6779671 84.9307166,76.0790808 C84.9494279,75.7983528 84.83716,75.7609224 84.6874694,75.7609224 L81.9930382,75.7609224 C81.5065436,75.7422072 81.4316983,75.6486312 81.4316983,75.4989096 C81.7872136,75.2181816 81.8807702,75.2368968 81.9930382,75.2368968 L84.6500467,75.2368968 C84.893294,75.2368968 84.9868506,75.1620361 85.0242733,74.9187385 C85.1178299,74.2824217 85.1365412,74.2824217 84.5003561,74.0952698 C83.9764389,73.926833 83.4338104,73.7771114 82.9098932,73.6273898 C82.498244,73.458953 82.44211,73.3466619 82.4795327,73.2156555 C82.8911819,73.0285035 83.0034499,73.0659339 83.1344292,73.1033643 C83.7706143,73.2905163 84.3880881,73.4776682 85.0242733,73.6835354 C85.8849943,72.3547564 86.6147361,71.4189965 87.6064365,70.7078189 C87.7935498,70.5768126 87.8309724,70.427091 87.8309724,70.2212238 L87.8309724,64.4382276 C87.8683951,64.1762148 88.0555083,64.0826389 88.2800443,64.2136452 C90.1324657,65.9354435 91.7603512,67.4513745 93.3695254,68.9485903 C93.799886,69.3603247 93.6689067,69.3603247 94.1554012,69.0047359 C97.6544195,66.5156146 102.350963,66.5156146 105.849981,69.0047359 C106.299053,69.3228943 106.168074,69.3977551 106.654568,68.9485903 C108.301165,67.4326593 109.92905,65.9354435 111.575647,64.4195124 C111.725338,64.288506 111.856317,64.0639237 112.099564,64.1574996 C112.361523,64.2510756 112.267966,64.5130884 112.267966,64.7002404 L112.267966,73.1033643 C112.267966,73.646105 112.267966,73.646105 112.773172,73.4963834 C113.222244,73.365377 113.652605,73.2343707 114.101677,73.1033643 C114.737862,73.365377 114.700439,73.4963834 114.532037,73.552529 L113.465491,73.8894026 L112.511214,74.1701306 C112.249255,74.6005801 112.249255,74.8813081 112.267966,75.1433209 C113.615182,75.255612 114.43848,75.255612 115.261779,75.255612 C115.729562,75.3117576 115.823119,75.4053336 115.804407,75.53634 C115.467603,75.7983528 115.336624,75.7983528 115.224356,75.7983528 L112.623482,75.7983528 C112.249255,75.7983528 112.230544,75.7983528 112.230544,76.1539415 C112.230544,76.7341127 112.193121,76.6031063 112.679616,76.7528279 C113.184822,76.9212647 113.708739,77.052271 114.232656,77.2207078 C114.663016,77.4078598 114.71915,77.520151 114.663016,77.6698726 C113.559048,77.613727 113.053842,77.4452902 112.529925,77.2955686 C112.230544,78.0628917 112.230544,78.6056325 112.230544,79.1670884 C112.230544,79.3729556 112.286678,79.4852468 112.511214,79.4665316 L120.594507,79.4665316 C120.800332,79.4665316 121.006156,79.4478164 121.211981,79.5601076 L121.211981,79.9156963 C120.744198,80.0279875 120.613219,80.0279875 120.463528,80.0279875 L0,80.0279875 Z"/>
        <path fill="#CCD6DA" fill-rule="nonzero" d="M21.7055638,76.751988 C21.7055638,76.7333534 21.7055638,76.7333534 21.7055638,76.7147188 C28.6279938,76.7147188 35.5504238,76.7147188 42.4728538,76.7147188 C42.5104757,76.7147188 42.5292867,76.7147188 42.5669086,76.7147188 C43.0559933,76.7147188 43.0559933,76.7147188 43.0559933,76.2302184 C43.0559933,76.1929492 43.0559933,76.1370453 43.0559933,76.099776 C43.0559933,66.577481 43.0559933,57.055186 43.0559933,47.5142564 C43.0559933,47.4024486 43.0559933,47.3092755 43.0559933,47.1974677 C43.0371823,46.6943328 42.7550181,46.3961787 42.2471224,46.3402748 C42.0778238,46.3216402 41.9085253,46.3402748 41.7580377,46.3402748 C28.4210733,46.3402748 15.084109,46.3402748 1.76595556,46.3402748 C1.65308985,46.3402748 1.55903509,46.3402748 1.44616939,46.3402748 C0.750164194,46.3589095 0.467999927,46.6570635 0.467999927,47.3279101 C0.467999927,56.9806475 0.467999927,66.6520196 0.467999927,76.304757 C0.467999927,76.7333534 0.467999927,76.7333534 0.919462754,76.7333534 C1.03232846,76.7333534 1.12638322,76.7333534 1.23924892,76.7333534 C8.04881323,76.751988 14.8771885,76.751988 21.7055638,76.751988 Z"/>
        <path fill="#FAE0D6" fill-rule="nonzero" d="M35.2055668,45.7752883 C36.6032042,45.7752883 38.0008415,45.7752883 39.417114,45.7752883 C40.2743316,45.7752883 41.1501843,45.7752883 42.0074019,45.7752883 C42.7155382,45.7752883 43.2559579,46.188308 43.3864041,46.8266112 C43.4236744,46.9955738 43.4236744,47.1457628 43.4236744,47.3147254 C43.4236744,49.9054854 43.4236744,52.4774719 43.4236744,55.0682319 C43.4236744,55.5000252 43.4609448,55.4812516 43.7963777,55.5187989 C46.5357469,55.8567241 49.2378458,55.7065351 51.9026743,55.011911 C57.977738,53.416153 62.5806236,49.8491646 65.7299664,44.4048137 C66.6244543,42.8653766 67.2953203,41.2132977 67.7798345,39.4861244 C67.8730104,39.1481992 67.8730104,39.1481992 67.5562126,39.054331 C67.3884961,38.9980102 67.2207796,38.9416893 67.0530631,38.8853684 C66.7362653,38.7539531 66.6430895,38.6413113 66.698995,38.4535751 C66.7549005,38.2470652 66.922617,38.2282916 67.2580499,38.3409333 C68.1525378,38.6788586 69.0470257,38.7539531 69.978784,38.5849905 C72.7367883,38.0405554 74.507129,35.2245118 73.7803575,32.5023364 C73.034951,29.7238402 70.1651356,28.1468558 67.4816719,29.0479897 C67.3512258,29.085537 67.2394148,29.1606314 67.1089686,29.1794051 C66.9785225,29.1981787 66.8853466,29.1230842 66.8294411,29.0104425 C66.7735357,28.8790271 66.810806,28.7663854 66.9039818,28.6912909 C66.9785225,28.63497 67.0530631,28.5974227 67.1462389,28.5786491 C67.3512258,28.5035546 67.5375774,28.4472338 67.7425642,28.3909129 C67.7798345,28.3721393 67.83574,28.3533656 67.8543752,28.3158184 C67.8916455,28.2219503 67.7984697,28.2407239 67.7425642,28.2219503 C67.6680236,28.184403 67.5748477,28.1656294 67.4816719,28.1280822 C66.0840346,27.6399679 64.7423027,27.0204384 63.5123818,26.1943989 C61.2761621,24.7300563 59.5430918,22.8151467 58.4249819,20.355802 C57.9031973,19.1918374 57.5491292,17.9715518 57.3441424,16.6949454 C57.2882369,16.319473 57.2696017,16.319473 56.9528039,16.4884356 C56.8409929,16.5447564 56.7478171,16.6010773 56.6360061,16.6761718 C54.9774765,17.6524002 53.2816765,18.4784397 51.4927007,19.1542901 C47.6352216,20.5998591 43.6845667,21.1818415 39.6034657,20.4496701 C36.7709207,19.9427823 34.1247273,18.9290066 31.8139669,17.1455124 C31.5158042,16.9202289 31.5158042,16.9202289 31.2735471,17.164286 C29.1864087,19.1730637 27.527879,21.4822194 26.3352285,24.1105267 C24.4903472,28.2219503 23.9312923,32.5023364 24.6207934,36.9516852 C25.0866725,39.9742386 26.167512,42.7715085 27.7701362,45.3622685 C27.9564878,45.6814201 28.1614746,45.8128355 28.5528131,45.8128355 C30.7517625,45.7565146 32.9693471,45.7752883 35.2055668,45.7752883 Z"/>
        <path fill="#FFF3A2" fill-rule="nonzero" d="M43.5454794,66.4611291 C43.5454794,69.4347205 43.5454794,72.3894918 43.5454794,75.3630832 C43.5454794,75.7771276 43.5454794,76.2099922 43.5454794,76.6240366 C43.5454794,76.8498789 43.601625,76.9439799 43.8449229,76.9439799 C44.3502337,76.9251597 44.8555446,76.9439799 45.3795707,76.9439799 C47.2698077,76.9439799 49.1600447,76.9251597 51.0315665,76.9251597 C51.4245861,76.9251597 51.4620165,76.9816203 51.4620165,77.3768445 C51.4620165,77.9979111 51.4620165,78.6189776 51.4620165,79.221224 C51.4620165,79.5223472 51.4245861,79.5599876 51.76146,79.5599876 C54.1757231,79.5599876 56.5899862,79.5599876 58.9855341,79.5599876 C59.2288319,79.5599876 59.2849776,79.4658866 59.3036928,79.2588644 C59.3785536,78.5813372 59.584421,77.9226303 59.9400102,77.3392041 C60.0710167,77.1321819 60.0897319,76.9439799 59.9961558,76.6993173 C59.6031363,75.532465 59.2288319,74.3467925 58.8545275,73.1799401 C57.9374819,70.3192699 57.001721,67.4585996 56.0846753,64.5979294 C56.0472449,64.5038284 56.0098144,64.3909072 55.9910992,64.2968062 C55.9536688,64.1274244 56.0285296,63.995683 56.1969666,63.9580426 C56.3466884,63.9204022 56.4589797,63.995683 56.5151253,64.1274244 C56.5338405,64.183885 56.5525557,64.2403456 56.571271,64.2968062 C57.2263036,66.3293877 57.8813362,68.3619692 58.5363688,70.3945507 C59.153971,72.314211 59.7715732,74.2338713 60.4078906,76.1347114 C60.5201819,76.4546548 60.5201819,76.473475 60.7634798,76.2476326 C61.4372276,75.5889256 62.2232667,75.156061 63.1403124,74.9490388 C63.4210407,74.873758 63.4397559,74.873758 63.364895,74.5914551 C63.2151733,73.9703885 63.0467363,73.3305017 62.9157298,72.7094352 C62.4852798,70.8274153 63.6269081,68.8889348 65.4797146,68.3996096 C65.592006,68.3619692 65.7230125,68.3619692 65.8353038,68.3243288 C65.9663103,68.3055086 66.022456,68.2302278 65.9663103,68.0984864 C65.9475951,68.0232056 65.9288799,67.9479248 65.8914494,67.8914642 C64.4316625,63.3369761 62.9531602,58.7636677 61.4933733,54.2091795 C61.2313602,53.3622706 60.9506319,52.5153616 60.6699037,51.6684527 C60.613758,51.4802507 60.5201819,51.4049699 60.3704602,51.5743517 C60.3143145,51.6308123 60.2581689,51.6684527 60.183308,51.7060931 C58.9481036,52.6282828 57.6193232,53.4375514 56.2156818,54.0774382 C53.48326,55.3383915 50.6011165,56.053559 47.5879664,56.1664802 C46.3153316,56.2229408 45.0426968,56.2041206 43.7887772,56.0159186 C43.5829098,55.9782783 43.5080489,56.053559 43.5267641,56.241761 C43.5267641,56.3546822 43.5267641,56.4864236 43.5267641,56.5993448 C43.5454794,59.8928796 43.5454794,63.1864145 43.5454794,66.4611291 Z"/>
        <path fill="#C27659" fill-rule="nonzero" d="M103.254238,79.5221481 C105.980124,79.5221481 108.724681,79.5221481 111.450568,79.5221481 C111.842647,79.5221481 111.842647,79.5221481 111.842647,79.1248333 C111.842647,79.0680741 111.842647,79.0113149 111.842647,78.9356359 C111.842647,74.4705749 111.842647,70.0055139 111.842647,65.5404529 C111.842647,65.4458542 111.842647,65.3512554 111.842647,65.2755764 C111.842647,65.1998974 111.879988,65.1052987 111.805306,65.0674592 C111.693284,65.0106999 111.655943,65.1242184 111.581261,65.1809777 C110.573056,66.1269652 109.564852,67.0540329 108.537977,68.0000204 C107.921852,68.5676129 107.305727,69.1541251 106.689602,69.7217176 C106.428215,69.9676744 106.390874,69.9487546 106.110818,69.7595571 C106.017465,69.7027979 105.942783,69.6271189 105.868102,69.5703596 C104.393136,68.4540944 102.750136,67.7919032 100.920431,67.6594649 C98.4746014,67.4702674 96.2528172,68.1513784 94.2924194,69.6649584 C93.862999,70.0055139 93.862999,70.0055139 93.4709194,69.6460386 C93.452249,69.6271189 93.4335785,69.6081991 93.3962376,69.5892794 C91.9212716,68.1892179 90.4276352,66.7891564 88.9339988,65.3890949 C88.8219761,65.2755764 88.7099533,65.0674592 88.5605897,65.1242184 C88.448567,65.1809777 88.5045783,65.3890949 88.5045783,65.5404529 C88.5045783,67.1675514 88.5045783,68.8135696 88.5045783,70.4406681 C88.5045783,70.6677051 88.4859079,70.8569026 88.243192,71.0082606 C85.5546464,72.8434764 84.9198509,76.4193091 86.4881692,79.1815926 C86.6375328,79.4464691 86.8055669,79.5599876 87.1229646,79.5599876 C89.1020329,79.5410678 91.0997716,79.5599876 93.0788398,79.5410678 C93.209533,79.5410678 93.3962376,79.5978271 93.452249,79.4843086 C93.5082603,79.3707901 93.3215558,79.2761913 93.2282035,79.1815926 C92.2573398,78.1220866 91.9586125,76.8923029 92.3693626,75.5300809 C92.7801126,74.1678589 93.7323058,73.3543096 95.0765786,73.0326739 C95.3566354,72.9569949 95.6366922,72.9191554 95.916749,72.9569949 C96.0661127,72.9759146 96.159465,73.0705134 96.159465,73.2407911 C96.159465,73.3732294 96.0847831,73.4678281 95.9354195,73.4867479 C95.7673854,73.5056676 95.6180218,73.5245874 95.4499877,73.5435071 C94.1617263,73.7137849 93.0601694,74.6976119 92.798783,75.9652351 C92.5187262,77.2706979 93.0788398,78.5950804 94.1990672,79.2951111 C94.479124,79.4653888 94.7778513,79.5599876 95.1325899,79.5599876 C97.8958173,79.5032283 100.584363,79.5221481 103.254238,79.5221481 Z"/>
        <path fill="#CCD6DA" fill-rule="nonzero" d="M21.7401921 77.2396848C21.7401921 77.2396848 21.7401921 77.2396848 21.7401921 77.2396848 17.9225303 77.2563722 14.1048684 77.2563722 10.2872065 77.2563722 7.22179328 77.2563722 4.15638006 77.2563722 1.09096683 77.2563722.978129537 77.2563722.846486024 77.2563722.733648728 77.2563722.545586567 77.2563722.451555486 77.3231218.470361702 77.489996.470361702 77.8237443.470361702 78.1574925.470361702 78.4912408.470361702 79.0919877.470361702 79.0919877 1.14738548 79.0919877 6.50715707 79.0919877 11.8857349 79.0919877 17.2455065 79.0753003 25.6142726 79.0753003 33.9642326 79.0586128 42.3329988 79.0586128 42.4458361 79.0586128 42.5774796 79.0586128 42.6903169 79.0586128 42.9536039 79.0419254 43.047635 78.9584884 43.047635 78.7248646 43.0664412 78.2909918 43.047635 77.8738065 43.047635 77.4399337 43.047635 77.2563722 42.9536039 77.20631 42.7655417 77.2229974 42.6527044 77.2229974 42.5586734 77.2229974 42.4458361 77.2229974 40.4523771 77.2229974 38.4777245 77.2396848 36.4842655 77.2396848 31.5758431 77.2396848 26.6674207 77.2396848 21.7401921 77.2396848zM68.3098289 79.540967C70.9378824 79.540967 73.5844433 79.540967 76.2124968 79.540967 76.3235413 79.540967 76.4160784 79.540967 76.5271229 79.540967 76.6936897 79.5599876 76.7677193 79.5029259 76.7492119 79.3127202 76.6566748 78.5138563 76.3790635 77.7910747 75.8978707 77.1443753 75.823841 77.0302519 75.7498113 77.0492725 75.7127965 77.1824165 75.6942891 77.2394782 75.6757816 77.2965399 75.6387668 77.3536016 75.028022 78.6660209 73.5104136 79.0274117 72.3999685 78.1144244 72.1963869 77.9432392 72.066835 77.9051981 71.8262385 78.0193215 71.141464 78.30463 70.4937044 78.2095272 69.8829595 77.7910747 69.2351999 77.334581 68.9390812 76.6878817 68.9946034 75.8699972 69.0131109 75.5846887 68.9946034 75.5656681 68.754007 75.6417504 68.180277 75.7939149 67.6435619 75.7368532 67.1253541 75.4325241 66.9958022 75.3564418 66.8847577 75.3564418 66.7366983 75.3564418 65.8853571 75.3564418 65.0155084 75.3374213 64.1641671 75.3564418 62.2023807 75.394483 60.5182056 76.7829845 60.0185053 78.7421031 59.9629831 78.9513294 59.9259682 79.1605556 59.9074608 79.3697819 59.8889534 79.5029259 59.9444756 79.5599876 60.0740276 79.5599876 60.1850721 79.5599876 60.314624 79.5599876 60.4256685 79.5599876 63.0722294 79.540967 65.7002829 79.540967 68.3098289 79.540967z"/>
        <path fill="#FAE0D6" fill-rule="nonzero" d="M65.0552075 74.546383C65.0552075 74.546383 65.0552075 74.546383 65.0552075 74.546383 65.402967 74.546383 65.7314064 74.546383 66.0791659 74.546383 66.2144057 74.546383 66.2916856 74.5101947 66.2337257 74.3654415 65.8473263 73.3702633 65.7893664 72.3027085 65.5575267 71.271342 65.4995668 71.0361181 65.5961667 70.8913649 65.7700464 70.8551766 65.9439261 70.8189883 66.0598459 70.9275532 66.1178058 71.1627771 66.1757658 71.3980011 66.2144057 71.6513192 66.2530456 71.8865431 66.3689655 72.5017442 66.4655653 73.1169452 66.6008051 73.7140522 66.7940048 74.5282889 67.5861236 74.9987367 68.4555222 74.8539835 69.3056009 74.6911362 69.8465601 73.9673702 69.7113203 73.1531335 69.5954004 72.4474617 69.4794806 71.7598841 69.3056009 71.0723064 68.9385215 69.5343037 67.296324 68.5572197 65.6541266 68.8467261 64.089209 69.1181383 62.9493308 70.656141 63.2198103 72.1579553 63.3550501 72.8817213 63.5868898 73.5873931 63.7607695 74.3111591 63.7994094 74.4740064 63.8960093 74.546383 64.089209 74.546383 64.4176485 74.546383 64.746088 74.546383 65.0552075 74.546383zM69.7319891 76.1189095C69.7702345 76.6447039 69.9423388 77.057828 70.3630382 77.3582819 71.2426823 77.9967465 72.4282896 77.6775142 72.8107436 76.6634823 73.1740748 75.6682287 73.5182834 74.6541968 73.862492 73.6401648 73.9007374 73.5274946 73.9198601 73.4148244 73.9389828 73.2833758 73.9963509 72.5510194 73.5565288 71.8937765 72.8298663 71.6684361 72.1223264 71.461874 71.3382958 71.7623279 70.9940872 72.4195708 70.7646148 72.8702517 70.5733879 73.3584893 70.4968971 73.8655053 70.439529 74.2410726 70.3247928 74.5790833 70.1335658 74.9170939 69.9040934 75.3114397 69.7702345 75.7245638 69.7319891 76.1189095z"/>
        <path fill="#CCD6DA" fill-rule="nonzero" d="M47.1919723,79.0919877 C47.1919723,79.0919877 47.1919723,79.0751228 47.1919723,79.0751228 C48.1992412,79.0751228 49.187505,79.0751228 50.1947739,79.0751228 C50.3658196,79.0751228 50.5368652,79.0751228 50.6889058,79.0751228 C50.8789565,79.0582579 51.011992,78.9907985 51.011992,78.805285 C51.011992,78.3330689 51.011992,77.8608527 51.011992,77.3886366 C51.011992,77.2705825 50.9359718,77.219988 50.8029362,77.219988 C50.6889058,77.219988 50.5558703,77.219988 50.4418399,77.219988 C49.0164594,77.219988 47.5910789,77.219988 46.1656984,77.219988 C45.3864904,77.219988 44.6072824,77.2368528 43.8470795,77.2368528 C43.6190186,77.2368528 43.5239932,77.3043123 43.5239932,77.5066906 C43.5429983,77.9283122 43.5239932,78.3499337 43.5239932,78.7546904 C43.5239932,79.0751228 43.5239932,79.0919877 43.9040947,79.0919877 C45.0063889,79.0919877 46.0896781,79.0919877 47.1919723,79.0919877 Z"/>
        <path fill="#FAE0D6" fill-rule="nonzero" d="M75.8159882,75.534125 C75.8159882,74.6964359 75.2772588,74.0954851 74.4591882,73.9680107 C74.1000352,73.9133788 74.0601293,73.9315894 73.9404117,74.2411701 C73.7209293,74.8239103 73.5213999,75.4066506 73.3019175,75.9711801 C73.1023881,76.4810778 73.0026234,77.0456074 72.6035646,77.4826626 C72.463894,77.6283476 72.5836117,77.7194008 72.6833764,77.8104539 C73.5213999,78.447826 74.7983882,78.1746666 75.2373529,77.2277137 C75.4368823,76.7906586 75.5965058,76.3353928 75.7561294,75.880127 C75.8159882,75.7344419 75.8159882,75.5887569 75.8159882,75.534125 Z"/>
        <path fill="#151D38" fill-rule="nonzero" d="M27.1357534,61.8717199 C26.9873915,64.1479199 25.5779533,65.8457412 23.5008865,66.330833 C20.830372,66.9651838 18.196948,65.1181035 17.8260433,62.3754691 C17.5107742,60.0619543 18.9943933,57.7111248 21.4052745,57.1514035 C21.9245412,57.0394592 21.9616316,57.0581166 22.0358126,57.5805232 C22.3510817,59.352974 23.537977,60.6589904 25.2626843,61.0507953 C25.6706795,61.1440822 26.0786748,61.1627396 26.5052153,61.1254248 C27.0615725,61.0694527 27.1172082,61.1254248 27.1357534,61.6851461 C27.1542987,61.778433 27.1357534,61.8717199 27.1357534,61.8717199 Z"/>
        <path fill="#FFF" fill-rule="nonzero" d="M22.5461299,65.9878141 C22.8298546,65.9686422 23.2081542,65.9302985 23.5864537,65.8344391 C25.2698868,65.374314 26.5939353,63.7638761 26.6695952,62.038407 C26.6885102,61.6549694 26.6885102,61.6549694 26.3291256,61.6549694 C24.0782432,61.6933131 22.1110854,60.1595628 21.600381,57.9356248 C21.4868911,57.4371559 21.4301462,57.5521872 21.1275065,57.6480466 C19.1792637,58.2998905 17.9687051,60.3321097 18.3091747,62.4218446 C18.6307294,64.4540638 20.4276523,66.006986 22.5461299,65.9878141 Z"/>
        <g transform="translate(36.036 28.548)">
          <path fill="#151D38" fill-rule="nonzero" d="M13.0975753,0.170658469 C14.0417318,0.170658469 14.9858884,0.208582573 15.9300449,0.227544625 C16.3743539,0.246506677 16.4854311,0.398203093 16.2817895,0.777444135 C14.893324,3.41316937 12.8569079,5.25248842 9.95038679,5.87823614 C7.02535279,6.50398386 4.45206338,5.68861562 2.24903144,3.62175195 C1.37892638,2.80638371 0.71246294,1.820357 0.175589609,0.739520031 C0.120050989,0.625747718 0.0645123686,0.530937458 0.0274866217,0.417165146 C-0.0465648721,0.189620521 0.0274866217,0.0758482083 0.268153977,0.0189620521 C0.360718344,0 0.453282711,0 0.527334205,0 C2.3415958,0.0189620521 4.17437028,0.0379241041 5.98863187,0.0568861562 C6.30335072,0.0568861562 11.0426463,0.170658469 13.0975753,0.170658469 Z"/>
          <path fill="#FFF" fill-rule="nonzero" d="M8.45812468,0.540246959 C7.89430785,0.540246959 7.34928491,0.540246959 6.78546807,0.540246959 C6.09009397,0.540246959 5.41351377,0.540246959 4.71813967,0.504123443 C3.53412431,0.467999927 2.35010896,0.467999927 1.1660936,0.467999927 C0.902979076,0.467999927 0.884185181,0.486061685 1.01574244,0.70280278 C1.48558981,1.5517054 2.08699443,2.31029923 2.81995632,2.96052252 C4.88728472,4.76669831 7.29290322,5.50723038 10.0368118,4.9834394 C12.5551937,4.49577194 14.3969954,3.08695482 15.7501558,1.02791442 C15.9944764,0.648617506 15.9944764,0.630555748 15.524629,0.630555748 C13.1753922,0.594432232 10.8073615,0.558308717 8.45812468,0.540246959 Z"/>
        </g>
        <path fill="#E5384A" fill-rule="nonzero" d="M26.6759958 31.5900839C26.6759958 30.0600211 27.8235765 28.5663883 29.7362109 28.5481733 31.412043 28.5299582 32.7599949 29.9143008 32.7599949 31.5900839 32.7599949 33.2840821 31.412043 34.6319946 29.7179954 34.6319946 28.0421633 34.6137796 26.6759958 33.2658671 26.6759958 31.5900839zM62.7075128 32.0674454C62.7805401 33.5289149 61.5208194 35.0817262 59.6768804 35.0999945 57.9972528 35.0999945 56.646248 33.7481353 56.6279912 32.0674454 56.6279912 30.3502188 57.9607392 29.0166279 59.6768804 29.0166279 61.4843058 28.9800911 62.7987969 30.5329025 62.7075128 32.0674454z"/>
        <path fill="#151D38" fill-rule="nonzero" d="M33.9197479 24.8039961C34.8441508 24.8039961 35.5876922 25.5275298 35.5675965 26.452045 35.5675965 27.356462 34.8441508 28.0799956 33.9599393 28.0799956 33.0355364 28.0799956 32.291995 27.356462 32.291995 26.4319468 32.291995 25.5476279 33.0154407 24.8240943 33.9197479 24.8039961zM55.0002383 25.272394C55.9246412 25.272394 56.6279912 25.9957495 56.6279912 26.9401302 56.6078955 27.8443246 55.8844497 28.5676801 54.9801426 28.5475869 54.0959311 28.5475869 53.3523896 27.8041382 53.3523896 26.920037 53.3322939 25.9957495 54.0758354 25.2523008 55.0002383 25.272394zM72.0717539 33.7239823C72.052996 35.6273969 70.1021742 36.9688511 68.2451419 36.3525073 68.1888682 36.3343795 68.1325945 36.3162518 68.0763208 36.2799962 67.8887418 36.2074852 67.8137102 36.0805909 67.8887418 35.8993133 67.9450155 35.7361635 68.1138366 35.7180357 68.2638998 35.7542912 68.3576893 35.772419 68.4702367 35.8268023 68.5640262 35.84493 69.8583215 36.1893574 71.2088904 35.3917361 71.471501 34.1409207 71.7341116 32.8538499 70.8337323 31.6392901 69.5019213 31.4580125 69.3893739 31.4398847 69.2580686 31.421757 69.1455212 31.4036292 69.0142159 31.3855014 68.9391843 31.2767349 68.9391843 31.1498406 68.9391843 30.9866908 69.0329738 30.9141797 69.183037 30.896052 69.2768265 30.8779242 69.3893739 30.896052 69.5019213 30.896052 70.9837956 31.0592018 72.0905118 32.2737616 72.0717539 33.7239823zM44.4589799 24.6565743C44.4589799 24.7895548 44.3546676 24.8655437 44.2329699 24.9225354 43.8678768 25.1315048 43.4853983 25.3404742 43.1203051 25.5304464 42.9638367 25.6064352 42.9290659 25.6824241 43.0855344 25.7964074 43.3984713 26.0243741 43.6940229 26.2713379 44.0069599 26.4993046 44.0938868 26.5562962 44.1634284 26.6132879 44.2329699 26.6892767 44.3198969 26.7842628 44.3198969 26.9172434 44.2503553 27.0312267 44.1808138 27.14521 44.0765014 27.1642072 43.9548037 27.1262128 43.8852622 27.1072156 43.833106 27.0692211 43.7809499 27.0122295 43.3115444 26.6512823 42.8247536 26.2903351 42.3553481 25.9103908 42.0250258 25.6444297 42.0424111 25.4544575 42.4075043 25.2454881 42.9290659 24.9415326 43.4680129 24.6565743 44.0069599 24.371616 44.2677407 24.2766299 44.4763653 24.371616 44.4589799 24.6565743zM29.9519953 25.7042648C30.0052486 24.3480655 30.8928028 23.2243575 32.1531297 22.972492 32.2951384 22.9337434 32.4371471 22.9143691 32.5791557 22.9531177 32.6856622 22.972492 32.7566666 23.0693633 32.7566666 23.185609 32.7744176 23.3212289 32.7211644 23.4374746 32.5969068 23.4762231 32.4726492 23.5149717 32.3483916 23.5343459 32.2241341 23.5537202 31.2655755 23.7668372 30.6265365 24.5418082 30.52003 25.5880191 30.5022789 25.7042648 30.5022789 25.8011361 30.5022789 25.9173818 30.4845278 26.0917503 30.4135235 26.2079959 30.2360127 26.2079959 30.0585018 26.2079959 29.9874975 26.072376 29.9697464 25.8980075 29.9519953 25.8398847 29.9519953 25.7817619 29.9519953 25.7042648zM58.4999909 25.6944194C58.4999909 25.7705048 58.4999909 25.9036543 58.4816789 26.0177824 58.4450549 26.1509319 58.3534949 26.2079959 58.2253109 26.2079959 58.0971269 26.2079959 58.0055669 26.1319105 57.9872549 25.9987611 57.9689429 25.9036543 57.9872549 25.8085475 57.9689429 25.7324621 57.9140069 24.6102024 57.199839 23.7542416 56.1377431 23.5450068 56.0828071 23.5259854 56.0278711 23.5259854 55.9729351 23.5069641 55.7898151 23.4689214 55.6616311 23.3738146 55.6982551 23.1645797 55.7348791 22.9553449 55.8996871 22.9173022 56.0644951 22.9363235 56.687103 23.0124089 57.218151 23.2596865 57.6759509 23.6971776 58.1886869 24.2487967 58.4633669 24.8955227 58.4999909 25.6944194zM99.993003 78.1517998C99.2907528 78.1316965 98.8162595 77.9306635 98.4556445 77.4481844 98.3038066 77.2672548 98.2468674 77.2672548 98.0950296 77.4481844 97.4307389 78.232213 96.4627724 78.372936 95.6846033 77.8301471 95.418887 77.6492174 95.2101099 77.3878745 95.058272 77.0863251 94.9823531 76.9254987 94.9633734 76.7244658 95.1531707 76.6239493 95.3429681 76.5234328 95.4568465 76.6239493 95.5517451 76.8048789 95.6086843 76.9254987 95.6846033 77.0461185 95.7795019 77.1667383 96.4058332 77.8703536 97.5066578 77.6492174 97.848293 76.7646723 97.924212 76.5636394 97.9431917 76.4430196 97.6964551 76.3827097 97.3548199 76.2821932 97.1460428 76.0007471 96.918286 75.7394042 96.8233873 75.6388878 96.7664481 75.4981647 96.7474684 75.3574416 96.6905292 75.0759955 96.7854279 74.8950658 97.0701239 74.8950658 97.8672728 74.8749625 98.6834013 74.8749625 99.4805502 74.8950658 99.7462665 74.8950658 99.8411651 75.0759955 99.7652462 75.3574416 99.6513678 75.8198174 99.3097326 76.061057 98.9680974 76.3022965 98.8542189 76.3827097 98.6644216 76.3626064 98.6264621 76.5033295 98.5885027 76.6842592 98.7023811 76.8651888 98.8162595 77.0260152 99.3287123 77.7698372 100.353618 77.7698372 100.885051 77.0260152 100.94199 76.945602 100.998929 76.8249822 101.055868 76.7445691 101.150767 76.603846 101.283625 76.5837427 101.416483 76.6440526 101.549341 76.7244658 101.587301 76.8651888 101.530362 77.0059119 101.416483 77.2873581 101.245666 77.5285976 101.017909 77.7296306 100.676273 78.0110767 100.296679 78.1719031 99.993003 78.1517998zM106.236227 73.0084756C107.038373 73.0084756 107.639983 73.6300346 107.639983 74.411996 107.639983 75.2140077 106.998266 75.8355668 106.19612 75.8155165 105.414027 75.7954662 104.812417 75.1739071 104.832471 74.3718954 104.812417 73.589934 105.434081 72.9884253 106.236227 73.0084756zM89.8460285 75.8159882C89.0693478 75.8159882 88.4519862 75.2185415 88.4519862 74.4219458 88.4519862 73.6253502 89.029518 73.0279035 89.8261137 73.0079886 90.6426242 73.0079886 91.2599858 73.6054353 91.2599858 74.402031 91.2400709 75.1986266 90.6426242 75.8159882 89.8460285 75.8159882z"/>
      </g>
      <text fill="#7DA159" font-size="15.6" font-weight="bold" class="sans-serif">
        <tspan x="146.8" y="99.02">User</tspan>
      </text>
    </g>
    <g transform="translate(84 233)">
      <g fill-rule="nonzero" transform="translate(0 21)">
        <path fill="#D2D2D2" d="M297.099999,3.49999994 L297.099999,17.4999997 L0,17.4999997 L0,3.49999994 C-2.36723809e-16,1.56700335 1.56700335,3.55085713e-16 3.49999994,0 L293.599999,0 C295.532996,-3.55085713e-16 297.099999,1.56700335 297.099999,3.49999994 Z"/>
        <rect width="2.8" height="2.8" x="4.9" y="4.2" fill="#A3A3A3"/>
        <rect width="2.8" height="2.8" x="9.1" y="4.2" fill="#A3A3A3"/>
        <rect width="2.8" height="2.8" x="13.3" y="4.2" fill="#A3A3A3"/>
      </g>
      <g transform="translate(0 38.5)">
        <g fill-rule="nonzero" transform="translate(66.5)">
          <polygon fill="#9EEBCF" points="4.9 -.7 4.9 58.8 2.8 58.8 2.8 -.7"/>
          <circle cx="3.85" cy="-1.05" r="4.55" fill="#FFF" stroke="#9EEBCF" stroke-width="2.1"/>
          <polygon fill="#9EEBCF" points="3.85 61.6 0 56 7.7 56"/>
        </g>
        <g transform="translate(0 59.5)">
          <path fill="#FABE28" d="M139.999998,118.347633 C139.999998,119.094588 139.561646,119.699998 139.020697,119.699998 L0.979300857,119.699998 C0.438352052,119.699998 0,119.094588 0,118.347633 L-4.4408921e-16,3.49999994 C-6.80813019e-16,1.56700335 1.56700335,-8.90034966e-17 3.49999994,-4.4408921e-16 L136.499998,-4.4408921e-16 C138.432994,-7.99174923e-16 139.999998,1.56700335 139.999998,3.49999994 L139.999998,118.347633 Z"/>
          <text fill="#000" font-size="23.8" font-weight="bold" class="sans-serif">
            <tspan x="29.007" y="76.6">STORE</tspan>
          </text>
          <path fill="#CCC" d="M3.49999994,0 L136.499998,4.4408921e-16 C138.432994,-1.53626092e-14 139.999998,1.56700335 139.999998,3.49999994 L139.999998,16.0999997 L0,16.0999997 L0,3.49999994 C-2.36723809e-16,1.56700335 1.56700335,7.99174923e-16 3.49999994,4.4408921e-16 Z"/>
          <path fill="#E74C3C" d="M11.8999998,8.74999985 C11.8999998,10.4898915 10.4898915,11.8999998 8.74999985,11.8999998 C7.01010818,11.8999998 5.5999999,10.4898915 5.5999999,8.74999985 C5.5999999,7.01010818 7.01010818,5.5999999 8.74999985,5.5999999 C10.4898915,5.5999999 11.8999998,7.01010818 11.8999998,8.74999985"/>
          <path fill="#F1C40F" d="M23.0999996,8.74999985 C23.0999996,10.4898915 21.6898913,11.8999998 19.9499997,11.8999998 C18.210108,11.8999998 16.7999997,10.4898915 16.7999997,8.74999985 C16.7999997,7.01010818 18.210108,5.5999999 19.9499997,5.5999999 C21.6898913,5.5999999 23.0999996,7.01010818 23.0999996,8.74999985"/>
          <path fill="#2ECC71" d="M33.5999994,8.74999985 C33.5999994,10.4898915 32.1898911,11.8999998 30.4499995,11.8999998 C28.7101078,11.8999998 27.2999995,10.4898915 27.2999995,8.74999985 C27.2999995,7.01010818 28.7101078,5.5999999 30.4499995,5.5999999 C32.1898911,5.5999999 33.5999994,7.01010818 33.5999994,8.74999985"/>
        </g>
      </g>
      <g transform="translate(156.8 38.5)">
        <g fill-rule="nonzero" transform="translate(66.5)">
          <polygon fill="#9EEBCF" points="4.9 -.7 4.9 58.8 2.8 58.8 2.8 -.7"/>
          <circle cx="3.85" cy="-1.05" r="4.55" fill="#FFF" stroke="#9EEBCF" stroke-width="2.1"/>
          <polygon fill="#9EEBCF" points="3.85 61.6 0 56 7.7 56"/>
        </g>
        <g transform="translate(0 59.5)">
          <path fill="#FABE28" d="M139.999998,118.347633 C139.999998,119.094588 139.561646,119.699998 139.020697,119.699998 L0.979300857,119.699998 C0.438352052,119.699998 0,119.094588 0,118.347633 L-4.4408921e-16,3.49999994 C-6.80813019e-16,1.56700335 1.56700335,-8.90034966e-17 3.49999994,-4.4408921e-16 L136.499998,-4.4408921e-16 C138.432994,-7.99174923e-16 139.999998,1.56700335 139.999998,3.49999994 L139.999998,118.347633 Z"/>
          <text fill="#000" font-size="23.8" font-weight="bold" class="sans-serif">
            <tspan x="29.007" y="76.6">STORE</tspan>
          </text>
          <path fill="#CCC" d="M3.49999994,0 L136.499998,4.4408921e-16 C138.432994,-1.53626092e-14 139.999998,1.56700335 139.999998,3.49999994 L139.999998,16.0999997 L0,16.0999997 L0,3.49999994 C-2.36723809e-16,1.56700335 1.56700335,7.99174923e-16 3.49999994,4.4408921e-16 Z"/>
          <path fill="#E74C3C" d="M11.8999998,8.74999985 C11.8999998,10.4898915 10.4898915,11.8999998 8.74999985,11.8999998 C7.01010818,11.8999998 5.5999999,10.4898915 5.5999999,8.74999985 C5.5999999,7.01010818 7.01010818,5.5999999 8.74999985,5.5999999 C10.4898915,5.5999999 11.8999998,7.01010818 11.8999998,8.74999985"/>
          <path fill="#F1C40F" d="M23.0999996,8.74999985 C23.0999996,10.4898915 21.6898913,11.8999998 19.9499997,11.8999998 C18.210108,11.8999998 16.7999997,10.4898915 16.7999997,8.74999985 C16.7999997,7.01010818 18.210108,5.5999999 19.9499997,5.5999999 C21.6898913,5.5999999 23.0999996,7.01010818 23.0999996,8.74999985"/>
          <path fill="#2ECC71" d="M33.5999994,8.74999985 C33.5999994,10.4898915 32.1898911,11.8999998 30.4499995,11.8999998 C28.7101078,11.8999998 27.2999995,10.4898915 27.2999995,8.74999985 C27.2999995,7.01010818 28.7101078,5.5999999 30.4499995,5.5999999 C32.1898911,5.5999999 33.5999994,7.01010818 33.5999994,8.74999985"/>
        </g>
      </g>
      <text fill="#4A4A4A" font-size="14" class="sans-serif">
        <tspan x="0" y="13">Store service</tspan>
      </text>
    </g>
    <g transform="translate(407 233)">
      <g fill-rule="nonzero" transform="translate(0 21)">
        <path fill="#D2D2D2" d="M140.099999,3.49999994 L140.099999,17.4999997 L0,17.4999997 L0,3.49999994 C-2.36723809e-16,1.56700335 1.56700335,-8.90034966e-17 3.49999994,-4.4408921e-16 L136.599999,-4.4408921e-16 C138.532996,-7.99174923e-16 140.099999,1.56700335 140.099999,3.49999994 Z"/>
        <rect width="2.8" height="2.8" x="4.9" y="4.2" fill="#A3A3A3"/>
        <rect width="2.8" height="2.8" x="9.1" y="4.2" fill="#A3A3A3"/>
        <rect width="2.8" height="2.8" x="13.3" y="4.2" fill="#A3A3A3"/>
      </g>
      <g transform="translate(0 38.5)">
        <g fill-rule="nonzero" transform="translate(66.5)">
          <polygon fill="#9EEBCF" points="4.9 -.7 4.9 58.8 2.8 58.8 2.8 -.7"/>
          <circle cx="3.85" cy="-1.05" r="4.55" fill="#FFF" stroke="#9EEBCF" stroke-width="2.1"/>
          <polygon fill="#9EEBCF" points="3.85 61.6 0 56 7.7 56"/>
        </g>
        <g transform="translate(0 59.5)">
          <path fill="#00C176" d="M139.999998,118.347633 C139.999998,119.094588 139.561646,119.699998 139.020697,119.699998 L0.979300857,119.699998 C0.438352052,119.699998 0,119.094588 0,118.347633 L-4.4408921e-16,3.49999994 C-6.80813019e-16,1.56700335 1.56700335,-8.90034966e-17 3.49999994,-4.4408921e-16 L136.499998,-4.4408921e-16 C138.432994,-7.99174923e-16 139.999998,1.56700335 139.999998,3.49999994 L139.999998,118.347633 Z"/>
          <text fill="#FFF" font-size="23.8" font-weight="bold" class="sans-serif">
            <tspan x="15.793" y="76.6">WORKER</tspan>
          </text>
          <path fill="#CCC" d="M3.49999994,0 L136.499998,4.4408921e-16 C138.432994,-1.53626092e-14 139.999998,1.56700335 139.999998,3.49999994 L139.999998,16.0999997 L0,16.0999997 L0,3.49999994 C-2.36723809e-16,1.56700335 1.56700335,7.99174923e-16 3.49999994,4.4408921e-16 Z"/>
          <path fill="#E74C3C" d="M11.8999998,8.74999985 C11.8999998,10.4898915 10.4898915,11.8999998 8.74999985,11.8999998 C7.01010818,11.8999998 5.5999999,10.4898915 5.5999999,8.74999985 C5.5999999,7.01010818 7.01010818,5.5999999 8.74999985,5.5999999 C10.4898915,5.5999999 11.8999998,7.01010818 11.8999998,8.74999985"/>
          <path fill="#F1C40F" d="M23.0999996,8.74999985 C23.0999996,10.4898915 21.6898913,11.8999998 19.9499997,11.8999998 C18.210108,11.8999998 16.7999997,10.4898915 16.7999997,8.74999985 C16.7999997,7.01010818 18.210108,5.5999999 19.9499997,5.5999999 C21.6898913,5.5999999 23.0999996,7.01010818 23.0999996,8.74999985"/>
          <path fill="#2ECC71" d="M33.5999994,8.74999985 C33.5999994,10.4898915 32.1898911,11.8999998 30.4499995,11.8999998 C28.7101078,11.8999998 27.2999995,10.4898915 27.2999995,8.74999985 C27.2999995,7.01010818 28.7101078,5.5999999 30.4499995,5.5999999 C32.1898911,5.5999999 33.5999994,7.01010818 33.5999994,8.74999985"/>
        </g>
      </g>
      <text fill="#4A4A4A" font-size="14" class="sans-serif">
        <tspan x="0" y="13">Worker service</tspan>
      </text>
    </g>
    <g transform="translate(576 233)">
      <g fill-rule="nonzero" transform="translate(0 21)">
        <path fill="#D2D2D2" d="M140.099999,3.49999994 L140.099999,17.4999997 L0,17.4999997 L0,3.49999994 C-2.36723809e-16,1.56700335 1.56700335,-8.90034966e-17 3.49999994,-4.4408921e-16 L136.599999,-4.4408921e-16 C138.532996,-7.99174923e-16 140.099999,1.56700335 140.099999,3.49999994 Z"/>
        <rect width="2.8" height="2.8" x="4.9" y="4.2" fill="#A3A3A3"/>
        <rect width="2.8" height="2.8" x="9.1" y="4.2" fill="#A3A3A3"/>
        <rect width="2.8" height="2.8" x="13.3" y="4.2" fill="#A3A3A3"/>
      </g>
      <g fill-rule="nonzero" transform="translate(66 38.5)">
        <g transform="translate(.5)">
          <polygon fill="#9EEBCF" points="4.9 -.7 4.9 58.8 2.8 58.8 2.8 -.7"/>
          <circle cx="3.85" cy="-1.05" r="4.55" fill="#FFF" stroke="#9EEBCF" stroke-width="2.1"/>
          <polygon fill="#9EEBCF" points="3.85 61.6 0 56 7.7 56"/>
        </g>
      </g>
      <text fill="#4A4A4A" font-size="14" class="sans-serif">
        <tspan x="0" y="13">Redis service</tspan>
      </text>
    </g>
    <g transform="translate(576 331)">
      <path fill="#FF003C" d="M139.999998,118.347633 C139.999998,119.094588 139.561646,119.699998 139.020697,119.699998 L0.979300857,119.699998 C0.438352052,119.699998 0,119.094588 0,118.347633 L-4.4408921e-16,3.49999994 C-6.80813019e-16,1.56700335 1.56700335,-8.90034966e-17 3.49999994,-4.4408921e-16 L136.499998,-4.4408921e-16 C138.432994,-7.99174923e-16 139.999998,1.56700335 139.999998,3.49999994 L139.999998,118.347633 Z"/>
      <text fill="#FFF" font-size="23.8" font-weight="bold" class="sans-serif">
        <tspan x="33.632" y="76.6">REDIS</tspan>
      </text>
      <path fill="#CCC" d="M3.49999994,0 L136.499998,4.4408921e-16 C138.432994,-1.53626092e-14 139.999998,1.56700335 139.999998,3.49999994 L139.999998,16.0999997 L0,16.0999997 L0,3.49999994 C-2.36723809e-16,1.56700335 1.56700335,7.99174923e-16 3.49999994,4.4408921e-16 Z"/>
      <path fill="#E74C3C" d="M11.8999998,8.74999985 C11.8999998,10.4898915 10.4898915,11.8999998 8.74999985,11.8999998 C7.01010818,11.8999998 5.5999999,10.4898915 5.5999999,8.74999985 C5.5999999,7.01010818 7.01010818,5.5999999 8.74999985,5.5999999 C10.4898915,5.5999999 11.8999998,7.01010818 11.8999998,8.74999985"/>
      <path fill="#F1C40F" d="M23.0999996,8.74999985 C23.0999996,10.4898915 21.6898913,11.8999998 19.9499997,11.8999998 C18.210108,11.8999998 16.7999997,10.4898915 16.7999997,8.74999985 C16.7999997,7.01010818 18.210108,5.5999999 19.9499997,5.5999999 C21.6898913,5.5999999 23.0999996,7.01010818 23.0999996,8.74999985"/>
      <path fill="#2ECC71" d="M33.5999994,8.74999985 C33.5999994,10.4898915 32.1898911,11.8999998 30.4499995,11.8999998 C28.7101078,11.8999998 27.2999995,10.4898915 27.2999995,8.74999985 C27.2999995,7.01010818 28.7101078,5.5999999 30.4499995,5.5999999 C32.1898911,5.5999999 33.5999994,7.01010818 33.5999994,8.74999985"/>
    </g>
    <g id="k8s-animejs-deployment" transform="translate(49 30)">
      <g stroke="#EEE" stroke-dasharray="45 10 15 10" stroke-width="4" transform="translate(19 279)">
        <path d="M20,0 L309,0 C320.045695,-2.02906125e-15 329,8.954305 329,20 L329,141 C329,152.045695 320.045695,161 309,161 L20,161 C8.954305,161 1.3527075e-15,152.045695 0,141 L0,20 C-1.3527075e-15,8.954305 8.954305,2.02906125e-15 20,0 Z"/>
      </g>
      <path fill="#FFF" d="M0,0 L704,0 L704,451 L0,451 L0,0 Z M12,270 L12,451 L352,451 L352,270 L12,270 Z" opacity=".5"/>
      <text fill="#4A4A4A" font-size="24" font-weight="bold" class="sans-serif">
        <tspan x="100.162" y="472">DEPLOYMENT</tspan>
      </text>
    </g>
    <g id="k8s-animejs-pod" transform="translate(49 27)">
      <g stroke="#EEE" stroke-dasharray="45 10 15 10" stroke-width="4" transform="translate(345 284)">
        <path d="M20,0 L147,0 C158.045695,-2.02906125e-15 167,8.954305 167,20 L167,141 C167,152.045695 158.045695,161 147,161 L20,161 C8.954305,161 1.3527075e-15,152.045695 0,141 L0,20 C-1.3527075e-15,8.954305 8.954305,2.02906125e-15 20,0 Z"/>
      </g>
      <path fill="#FFF" d="M0,0 L704,0 L704,466 L0,466 L0,0 Z M338,276 L338,452 L520,452 L520,276 L338,276 Z" opacity=".5"/>
      <text fill="#4A4A4A" font-size="24" font-weight="bold" class="sans-serif">
        <tspan x="402.496" y="475">POD</tspan>
      </text>
    </g>
    <g id="k8s-animejs-services" transform="translate(49 26)">
      <g stroke="#EEE" stroke-dasharray="45 10 15 10" stroke-width="4" transform="translate(23 201)">
        <path d="M20,0 L300,0 C311.045695,-2.02906125e-15 320,8.954305 320,20 L320,47 C320,58.045695 311.045695,67 300,67 L20,67 C8.954305,67 1.3527075e-15,58.045695 0,47 L0,20 C-1.3527075e-15,8.954305 8.954305,2.02906125e-15 20,0 Z"/>
      </g>
      <g stroke="#EEE" stroke-dasharray="45 10 15 10" stroke-width="4" transform="matrix(-1 0 0 1 511 201)">
        <path d="M20,0 L148,0 C159.045695,-2.02906125e-15 168,8.954305 168,20 L168,47 C168,58.045695 159.045695,67 148,67 L20,67 C8.954305,67 1.3527075e-15,58.045695 0,47 L0,20 C-1.3527075e-15,8.954305 8.954305,2.02906125e-15 20,0 Z"/>
      </g>
      <g stroke="#EEE" stroke-dasharray="45 10 15 10" stroke-width="4" transform="translate(511 201)">
        <path d="M20,0 L148,0 C159.045695,-2.02906125e-15 168,8.954305 168,20 L168,47 C168,58.045695 159.045695,67 148,67 L20,67 C8.954305,67 1.3527075e-15,58.045695 0,47 L0,20 C-1.3527075e-15,8.954305 8.954305,2.02906125e-15 20,0 Z"/>
      </g>
      <path fill="#FFF" d="M0,0 L704,0 L704,448 L0,448 L0,0 Z M17,198 L17,273 L692,273 L692,198 L17,198 Z" opacity=".5"/>
      <text fill="#4A4A4A" font-size="24" font-weight="bold" class="sans-serif">
        <tspan x="282.814" y="174">SERVICES</tspan>
      </text>
    </g>
  </g>
</svg>
