<svg xmlns="http://www.w3.org/2000/svg" viewBox="0 0 800 751" id="normal-traffic">
  <g fill="none" fill-rule="evenodd">
    <g transform="translate(91 292)">
      <path fill="#EEE" d="M142.59998,129.582239 C142.59998,130.400102 142.153487,131.062983 141.602492,131.062983 L0.997487748,131.062983 C0.44649282,131.062983 0,130.400102 0,129.582239 L0,5.26499949 C-3.56100216e-16,2.35722057 2.35722057,9.41593452e-15 5.26499949,8.8817842e-15 L137.33498,0 C140.242759,1.49616086e-14 142.59998,2.35722057 142.59998,5.26499949 L142.59998,129.582239 Z"/>
      <path fill="#CCC" d="M5.26499949,0 L137.33498,0 C140.242759,-5.34150323e-16 142.59998,2.35722057 142.59998,5.26499949 L142.59998,24.2189977 L0,24.2189977 L0,5.26499949 C-3.56100216e-16,2.35722057 2.35722057,-3.54028096e-16 5.26499949,-8.8817842e-16 Z"/>
      <path fill="#E74C3C" d="M17.9009983,13.1624987 C17.9009983,15.7797927 15.7797927,17.9009983 13.1624987,17.9009983 C10.5452048,17.9009983 8.42399919,15.7797927 8.42399919,13.1624987 C8.42399919,10.5452048 10.5452048,8.42399919 13.1624987,8.42399919 C15.7797927,8.42399919 17.9009983,10.5452048 17.9009983,13.1624987"/>
      <path fill="#F1C40F" d="M34.7489967,13.1624987 C34.7489967,15.7797927 32.6277911,17.9009983 30.0104971,17.9009983 C27.3932031,17.9009983 25.2719976,15.7797927 25.2719976,13.1624987 C25.2719976,10.5452048 27.3932031,8.42399919 30.0104971,8.42399919 C32.6277911,8.42399919 34.7489967,10.5452048 34.7489967,13.1624987"/>
      <path fill="#2ECC71" d="M50.5439951,13.1624987 C50.5439951,15.7797927 48.4227896,17.9009983 45.8054956,17.9009983 C43.1882016,17.9009983 41.066996,15.7797927 41.066996,13.1624987 C41.066996,10.5452048 43.1882016,8.42399919 45.8054956,8.42399919 C48.4227896,8.42399919 50.5439951,10.5452048 50.5439951,13.1624987"/>
    </g>
    <g transform="translate(249 292)">
      <path fill="#EEE" d="M142.59998,129.582239 C142.59998,130.400102 142.153487,131.062983 141.602492,131.062983 L0.997487748,131.062983 C0.44649282,131.062983 0,130.400102 0,129.582239 L0,5.26499949 C-3.56100216e-16,2.35722057 2.35722057,9.41593452e-15 5.26499949,8.8817842e-15 L137.33498,0 C140.242759,1.49616086e-14 142.59998,2.35722057 142.59998,5.26499949 L142.59998,129.582239 Z"/>
      <path fill="#CCC" d="M5.26499949,0 L137.33498,0 C140.242759,-5.34150323e-16 142.59998,2.35722057 142.59998,5.26499949 L142.59998,24.2189977 L0,24.2189977 L0,5.26499949 C-3.56100216e-16,2.35722057 2.35722057,-3.54028096e-16 5.26499949,-8.8817842e-16 Z"/>
      <path fill="#E74C3C" d="M17.9009983,13.1624987 C17.9009983,15.7797927 15.7797927,17.9009983 13.1624987,17.9009983 C10.5452048,17.9009983 8.42399919,15.7797927 8.42399919,13.1624987 C8.42399919,10.5452048 10.5452048,8.42399919 13.1624987,8.42399919 C15.7797927,8.42399919 17.9009983,10.5452048 17.9009983,13.1624987"/>
      <path fill="#F1C40F" d="M34.7489967,13.1624987 C34.7489967,15.7797927 32.6277911,17.9009983 30.0104971,17.9009983 C27.3932031,17.9009983 25.2719976,15.7797927 25.2719976,13.1624987 C25.2719976,10.5452048 27.3932031,8.42399919 30.0104971,8.42399919 C32.6277911,8.42399919 34.7489967,10.5452048 34.7489967,13.1624987"/>
      <path fill="#2ECC71" d="M50.5439951,13.1624987 C50.5439951,15.7797927 48.4227896,17.9009983 45.8054956,17.9009983 C43.1882016,17.9009983 41.066996,15.7797927 41.066996,13.1624987 C41.066996,10.5452048 43.1882016,8.42399919 45.8054956,8.42399919 C48.4227896,8.42399919 50.5439951,10.5452048 50.5439951,13.1624987"/>
    </g>
    <g transform="translate(408 292)">
      <path fill="#EEE" d="M142.59998,129.582239 C142.59998,130.400102 142.153487,131.062983 141.602492,131.062983 L0.997487748,131.062983 C0.44649282,131.062983 0,130.400102 0,129.582239 L0,5.26499949 C-3.56100216e-16,2.35722057 2.35722057,9.41593452e-15 5.26499949,8.8817842e-15 L137.33498,0 C140.242759,1.49616086e-14 142.59998,2.35722057 142.59998,5.26499949 L142.59998,129.582239 Z"/>
      <path fill="#CCC" d="M5.26499949,0 L137.33498,0 C140.242759,-5.34150323e-16 142.59998,2.35722057 142.59998,5.26499949 L142.59998,24.2189977 L0,24.2189977 L0,5.26499949 C-3.56100216e-16,2.35722057 2.35722057,-3.54028096e-16 5.26499949,-8.8817842e-16 Z"/>
      <path fill="#E74C3C" d="M17.9009983,13.1624987 C17.9009983,15.7797927 15.7797927,17.9009983 13.1624987,17.9009983 C10.5452048,17.9009983 8.42399919,15.7797927 8.42399919,13.1624987 C8.42399919,10.5452048 10.5452048,8.42399919 13.1624987,8.42399919 C15.7797927,8.42399919 17.9009983,10.5452048 17.9009983,13.1624987"/>
      <path fill="#F1C40F" d="M34.7489967,13.1624987 C34.7489967,15.7797927 32.6277911,17.9009983 30.0104971,17.9009983 C27.3932031,17.9009983 25.2719976,15.7797927 25.2719976,13.1624987 C25.2719976,10.5452048 27.3932031,8.42399919 30.0104971,8.42399919 C32.6277911,8.42399919 34.7489967,10.5452048 34.7489967,13.1624987"/>
      <path fill="#2ECC71" d="M50.5439951,13.1624987 C50.5439951,15.7797927 48.4227896,17.9009983 45.8054956,17.9009983 C43.1882016,17.9009983 41.066996,15.7797927 41.066996,13.1624987 C41.066996,10.5452048 43.1882016,8.42399919 45.8054956,8.42399919 C48.4227896,8.42399919 50.5439951,10.5452048 50.5439951,13.1624987"/>
    </g>
    <g transform="translate(566 292)">
      <path fill="#EEE" d="M142.59998,129.582239 C142.59998,130.400102 142.153487,131.062983 141.602492,131.062983 L0.997487748,131.062983 C0.44649282,131.062983 0,130.400102 0,129.582239 L0,5.26499949 C-3.56100216e-16,2.35722057 2.35722057,9.41593452e-15 5.26499949,8.8817842e-15 L137.33498,0 C140.242759,1.49616086e-14 142.59998,2.35722057 142.59998,5.26499949 L142.59998,129.582239 Z"/>
      <path fill="#CCC" d="M5.26499949,0 L137.33498,0 C140.242759,-5.34150323e-16 142.59998,2.35722057 142.59998,5.26499949 L142.59998,24.2189977 L0,24.2189977 L0,5.26499949 C-3.56100216e-16,2.35722057 2.35722057,-3.54028096e-16 5.26499949,-8.8817842e-16 Z"/>
      <path fill="#E74C3C" d="M17.9009983,13.1624987 C17.9009983,15.7797927 15.7797927,17.9009983 13.1624987,17.9009983 C10.5452048,17.9009983 8.42399919,15.7797927 8.42399919,13.1624987 C8.42399919,10.5452048 10.5452048,8.42399919 13.1624987,8.42399919 C15.7797927,8.42399919 17.9009983,10.5452048 17.9009983,13.1624987"/>
      <path fill="#F1C40F" d="M34.7489967,13.1624987 C34.7489967,15.7797927 32.6277911,17.9009983 30.0104971,17.9009983 C27.3932031,17.9009983 25.2719976,15.7797927 25.2719976,13.1624987 C25.2719976,10.5452048 27.3932031,8.42399919 30.0104971,8.42399919 C32.6277911,8.42399919 34.7489967,10.5452048 34.7489967,13.1624987"/>
      <path fill="#2ECC71" d="M50.5439951,13.1624987 C50.5439951,15.7797927 48.4227896,17.9009983 45.8054956,17.9009983 C43.1882016,17.9009983 41.066996,15.7797927 41.066996,13.1624987 C41.066996,10.5452048 43.1882016,8.42399919 45.8054956,8.42399919 C48.4227896,8.42399919 50.5439951,10.5452048 50.5439951,13.1624987"/>
    </g>
    <g id="normal-traffic-animejs-connection4" stroke="#EBA844" stroke-width="7.8" transform="translate(638 426)">
      <path d="M-1.36424205e-12,2.27373675e-13 L-1.36424205e-12,103.892969 L-1.36424205e-12,2.27373675e-13 Z"/>
    </g>
    <g id="normal-traffic-animejs-connection3" stroke="#EBA844" stroke-width="7.8" transform="translate(479 426)">
      <path d="M-1.36424205e-12,2.27373675e-13 L-1.36424205e-12,103.892969 L-1.36424205e-12,2.27373675e-13 Z"/>
    </g>
    <g id="normal-traffic-animejs-connection2" stroke="#EBA844" stroke-width="7.8" transform="translate(321 426)">
      <path d="M-1.36424205e-12,2.27373675e-13 L-1.36424205e-12,103.892969 L-1.36424205e-12,2.27373675e-13 Z"/>
    </g>
    <g id="normal-traffic-animejs-connection1" stroke="#EBA844" stroke-width="7.8" transform="translate(162 426)">
      <path d="M-1.36424205e-12,2.27373675e-13 L-1.36424205e-12,103.892969 L-1.36424205e-12,2.27373675e-13 Z"/>
    </g>
    <g fill="#FFF" font-size="48.1" font-weight="bold" letter-spacing=".241" transform="translate(362 609)" class="sans-serif">
      <text>
        <tspan x="0" y="50">API</tspan>
      </text>
    </g>
    <g transform="translate(91 246)">
      <g fill-rule="nonzero" transform="translate(0 19.5)">
        <path fill="#D2D2D2" d="M619.449998,3.75781236 L619.449998,16.7578119 L0,16.7578119 L0,3.75781236 C-2.19814961e-16,1.96288699 1.45507451,0.507812481 3.24999988,0.507812481 L616.199998,0.507812481 C617.994923,0.507812481 619.449998,1.96288699 619.449998,3.75781236 Z"/>
        <rect width="2.6" height="2.6" x="4.55" y="3.9" fill="#A3A3A3"/>
        <rect width="2.6" height="2.6" x="8.45" y="3.9" fill="#A3A3A3"/>
        <rect width="2.6" height="2.6" x="12.35" y="3.9" fill="#A3A3A3"/>
      </g>
      <text fill="#4A4A4A" font-size="10.4" class="sans-serif">
        <tspan x="0" y="9">LOAD BALANCER</tspan>
      </text>
    </g>
    <g transform="translate(91 515)">
      <g fill-rule="nonzero" transform="translate(0 19.5)">
        <path fill="#D2D2D2" d="M619.449998,3.75781236 L619.449998,16.7578119 L0,16.7578119 L0,3.75781236 C-2.19814961e-16,1.96288699 1.45507451,0.507812481 3.24999988,0.507812481 L616.199998,0.507812481 C617.994923,0.507812481 619.449998,1.96288699 619.449998,3.75781236 Z"/>
        <rect width="2.6" height="2.6" x="4.55" y="3.9" fill="#A3A3A3"/>
        <rect width="2.6" height="2.6" x="8.45" y="3.9" fill="#A3A3A3"/>
        <rect width="2.6" height="2.6" x="12.35" y="3.9" fill="#A3A3A3"/>
      </g>
      <text fill="#4A4A4A" font-size="10.4" class="sans-serif">
        <tspan x="0" y="9">LOAD BALANCER</tspan>
      </text>
    </g>
    <g transform="translate(317 36)">
      <g fill="#B8E986" transform="translate(54.6 133.9)">
        <polygon points="28.08 102.4 0 51.7 56.16 51.7"/>
        <polygon points="20.28 0 35.88 0 35.88 88.36 20.28 88.36"/>
      </g>
      <g>
        <path fill="#151D38" fill-rule="nonzero" d="M0,134.382844 L0.0293950462,79.0721609 C0.030015802,77.8576584 1.00235261,76.8734429 2.20157625,76.8734429 C16.2282079,76.8723039 30.2548396,76.8723039 44.2814713,76.8723039 C45.1503439,76.5266121 44.8400323,76.3066264 44.7159076,76.0866407 C42.0161963,71.5612212 40.24742,66.6901098 39.5647343,61.4104537 C38.0442073,49.3112416 41.4266042,38.7833558 49.5567692,29.7639432 C50.0222367,29.2611188 50.4877041,28.789721 50.9842028,28.3183231 C51.3876079,27.9097783 51.3876079,27.9097783 51.0152339,27.53266 C49.7429562,26.3070255 48.5948031,24.9556849 47.632837,23.4472117 C45.4606555,19.9588675 44.2504401,16.156258 44.1573466,12.0079567 C44.1263155,10.9708814 44.3435336,10.8451753 45.2744686,11.3165732 C46.2674658,11.8193976 47.2914942,12.2593689 48.377585,12.6050607 C48.5017096,10.7823223 48.2844915,9.27384908 48.2534603,7.73394936 C48.2534603,7.16827192 48.2224292,6.63402099 48.2534603,6.06834355 C48.2534603,5.28268043 48.5327408,5.09412128 49.2154264,5.5026661 C50.3015172,6.1311966 51.3876079,6.69687404 52.535761,7.16827192 C53.2184466,7.45111064 53.2184466,7.45111064 53.1563843,6.69687404 C52.9701973,4.71700298 52.9391661,2.73713192 53.1563843,0.757260861 C53.3425712,0.00302426666 53.6839141,-0.122681832 53.9321634,0.097303841 C54.1183504,0.254436465 54.242475,0.474422138 54.3976308,0.662981287 C56.7870305,3.67992767 59.4557106,6.3826088 62.6519205,8.55103901 C65.4447253,10.4366305 68.4547482,11.4737058 71.8061139,11.5051323 C74.3196382,11.5365589 76.740069,11.0023079 79.0674064,10.0909387 C81.2395879,9.24242255 83.4117693,8.36247986 85.6770443,7.85965546 C87.9733505,7.35683106 90.3006878,7.13684539 92.5969939,7.70252284 C96.5069206,8.6767451 99.1445696,11.2222936 100.789221,14.8677705 C101.409845,16.2505376 101.751187,17.6961577 101.968406,19.2046309 C102.061499,19.7703084 102.061499,19.7703084 102.651091,19.7388818 C106.064519,19.4874696 109.353823,20.0217205 112.332814,21.8130325 C115.901398,23.9814627 117.887393,27.2498212 118.663172,31.3038429 C119.221733,34.2893628 119.066577,37.2434561 118.60111,40.228976 C118.228736,42.5545388 117.608112,44.8486751 116.863364,47.0799584 C116.677177,47.6456358 116.553053,47.6142093 117.235738,47.8656215 C120.711229,49.0598294 122.88341,51.4796718 123.504033,55.1251487 C124.372906,60.1219662 121.207727,64.5531062 116.615115,65.6530345 C115.777274,65.8415937 114.908401,65.9672998 114.039528,65.8730202 C113.667154,65.8101671 113.54303,65.9987263 113.449936,66.3444181 C112.798282,68.7328339 111.898378,71.0583968 110.812287,73.28968 C108.578044,77.7836731 105.599052,81.6491356 101.875312,84.9489207 C101.037471,85.5460247 100.975408,85.8917165 101.161595,86.3631143 C101.596032,87.5887488 101.968406,88.8458098 102.371811,90.0714443 C104.885335,97.9909285 107.42989,105.878986 109.912384,113.79847 C110.098571,114.364148 110.34682,114.584134 110.905381,114.678413 C113.356843,115.212664 114.908401,116.752564 115.560055,119.203833 C115.68418,119.738084 115.777274,120.303761 115.870367,120.838012 C116.459959,120.49232 116.708209,120.146628 117.080582,119.832363 C118.135642,118.952421 119.314826,118.763861 120.587104,119.203833 C121.890413,119.675231 122.666192,120.649453 122.852379,122.03222 C122.914441,122.503618 123.038566,122.629324 123.504033,122.692177 C125.676215,123.037869 126.948493,125.206299 126.234776,127.343303 C126.048589,127.877554 126.110651,128.254672 126.483025,128.694643 C127.444991,129.857425 128.003552,131.208765 128.189739,132.717238 C128.282833,133.377195 128.189739,133.377195 128.903456,133.377195 L141.719327,133.377195 C141.719327,132.057281 141.315922,131.020206 141.098704,129.888851 C139.640239,129.983131 138.647242,130.234543 137.685276,130.548808 C137.126715,130.737367 136.847434,130.611661 136.754341,130.297396 C136.661247,130.014557 136.878465,129.794572 137.405995,129.637439 C138.305899,129.3546 139.205803,129.103188 140.105706,128.820349 C141.00561,128.537511 140.850454,128.757496 140.850454,127.751847 C140.881485,127.28045 140.695298,127.217597 140.447049,127.217597 L135.978561,127.217597 C135.171751,127.18617 135.047627,127.029037 135.047627,126.777625 C135.637219,126.306227 135.792375,126.337654 135.978561,126.337654 L140.384987,126.337654 C140.788392,126.337654 140.943548,126.211948 141.00561,125.803403 C141.160766,124.734901 141.191797,124.734901 140.136737,124.420636 C139.267865,124.137797 138.367961,123.886385 137.499089,123.634973 C136.816403,123.352134 136.723309,123.163575 136.785372,122.943589 C137.468057,122.629324 137.654244,122.692177 137.871463,122.75503 C138.926522,123.069295 139.950551,123.383561 141.00561,123.729252 C142.433044,121.497969 143.643259,119.926643 145.287911,118.732435 C145.598222,118.512449 145.660285,118.261037 145.660285,117.915345 L145.660285,108.204549 C145.722347,107.764578 146.032659,107.607445 146.405033,107.827431 C149.477118,110.718671 152.176829,113.26422 154.845509,115.778342 C155.559226,116.469725 155.342008,116.469725 156.148818,115.872621 C161.951646,111.692893 169.740468,111.692893 175.543296,115.872621 C176.288044,116.406872 176.070826,116.532578 176.877636,115.778342 C179.608378,113.232793 182.30809,110.718671 185.038832,108.173123 C185.287081,107.953137 185.5043,107.576019 185.907705,107.733151 C186.342141,107.890284 186.186985,108.330255 186.186985,108.64452 L186.186985,122.75503 C186.186985,123.666399 186.186985,123.666399 187.024827,123.414987 C187.769575,123.195001 188.483291,122.975016 189.228039,122.75503 C190.283099,123.195001 190.221036,123.414987 189.941756,123.509267 L188.17298,124.074944 L186.59039,124.546342 C186.155954,125.269152 186.155954,125.74055 186.186985,126.180521 C188.421229,126.36908 189.7866,126.36908 191.151971,126.36908 C191.927751,126.46336 192.082906,126.620493 192.051875,126.840478 C191.493314,127.28045 191.276096,127.28045 191.089909,127.28045 L186.776577,127.28045 C186.155954,127.28045 186.124923,127.28045 186.124923,127.877554 C186.124923,128.851776 186.06286,128.63179 186.869671,128.883202 C187.707512,129.166041 188.576385,129.386027 189.445257,129.668865 C190.158974,129.983131 190.252068,130.17169 190.158974,130.423102 C188.328135,130.328823 187.490294,130.045984 186.621421,129.794572 C186.124923,131.083059 186.124923,131.994428 186.124923,132.937224 C186.124923,133.282916 186.218016,133.471475 186.59039,133.440048 L199.995853,133.440048 C200.337196,133.440048 200.678539,133.408622 201.019882,133.597181 L201.019882,134.194285 C200.244103,134.382844 200.026884,134.382844 199.778635,134.382844 L0,134.382844 Z"/>
        <path fill="#CCD6DA" fill-rule="nonzero" d="M35.9968529,128.881792 C35.9968529,128.850501 35.9968529,128.850501 35.9968529,128.81921 C47.4771212,128.81921 58.9573895,128.81921 70.4376578,128.81921 C70.5000505,128.81921 70.5312469,128.81921 70.5936397,128.81921 C71.4047456,128.81921 71.4047456,128.81921 71.4047456,128.005638 C71.4047456,127.943055 71.4047456,127.849181 71.4047456,127.786599 C71.4047456,111.796779 71.4047456,95.8069597 71.4047456,79.7858489 C71.4047456,79.5981015 71.4047456,79.4416453 71.4047456,79.2538979 C71.3735492,78.4090346 70.9056035,77.9083749 70.0633012,77.8145012 C69.7825338,77.78321 69.5017663,77.8145012 69.2521953,77.8145012 C47.133961,77.8145012 25.0157267,77.8145012 2.92868884,77.8145012 C2.74151056,77.8145012 2.58552865,77.8145012 2.39835036,77.8145012 C1.24408426,77.8457925 0.776138539,78.3464522 0.776138539,79.4729365 C0.776138539,95.6817948 0.776138539,111.921944 0.776138539,128.130803 C0.776138539,128.850501 0.776138539,128.850501 1.52485169,128.850501 C1.71202998,128.850501 1.86801188,128.850501 2.05519017,128.850501 C13.3482802,128.881792 24.6725665,128.881792 35.9968529,128.881792 Z"/>
        <path fill="#FAE0D6" fill-rule="nonzero" d="M58.3854732,76.8657768 C60.7033373,76.8657768 63.0212013,76.8657768 65.3699702,76.8657768 C66.7915935,76.8657768 68.2441217,76.8657768 69.6657449,76.8657768 C70.8401294,76.8657768 71.7363702,77.5593188 71.9527041,78.6311563 C72.0145139,78.914878 72.0145139,79.167075 72.0145139,79.4507967 C72.0145139,83.8011961 72.0145139,88.1200708 72.0145139,92.4704701 C72.0145139,93.1955367 72.0763236,93.164012 72.6326109,93.2270613 C77.1756245,93.7945047 81.6568283,93.5423076 86.0762224,92.3758962 C96.1512048,89.6963024 103.784704,83.7066222 109.007624,74.5644786 C110.491057,71.9794588 111.603632,69.2052911 112.407158,66.3050248 C112.561682,65.7375814 112.561682,65.7375814 112.0363,65.5799583 C111.758156,65.4853844 111.480012,65.3908105 111.201869,65.2962366 C110.676486,65.0755642 110.521962,64.8864164 110.614677,64.57117 C110.707391,64.2243991 110.985535,64.1928744 111.541822,64.3820222 C113.025255,64.9494656 114.508688,65.0755642 116.053931,64.7918425 C120.627849,63.8776281 123.56381,59.1489332 122.358521,54.5778614 C121.122327,49.9122158 116.362979,47.2641466 111.91268,48.777329 C111.696346,48.8403782 111.510917,48.9664768 111.294583,48.9980014 C111.078249,49.029526 110.923725,48.9034275 110.83101,48.7142797 C110.738296,48.4936073 110.800106,48.3044595 110.95463,48.178361 C111.078249,48.0837871 111.201869,48.0207378 111.356393,47.9892132 C111.696346,47.8631146 112.005395,47.7685407 112.345348,47.6739668 C112.407158,47.6424422 112.499873,47.6109176 112.530777,47.5478683 C112.592587,47.3902451 112.438063,47.4217698 112.345348,47.3902451 C112.221729,47.3271959 112.067205,47.2956712 111.91268,47.232622 C109.594816,46.4129815 107.369667,45.3726686 105.329946,43.9855848 C101.621364,41.5266634 98.7472126,38.3111509 96.8929213,34.181424 C96.0275854,32.2268967 95.4403932,30.1777956 95.1004398,28.0341206 C95.0077252,27.4036279 94.9768204,27.4036279 94.4514379,27.6873496 C94.2660087,27.7819235 94.1114845,27.8764974 93.9260553,28.0025959 C91.1755233,29.6418768 88.3631816,31.0289607 85.3963156,32.1638475 C78.9990109,34.5912442 72.4471818,35.5685078 65.6790188,34.3390471 C60.981481,33.4878821 56.5929917,31.7855519 52.7607898,28.7907118 C52.2663121,28.4124162 52.2663121,28.4124162 51.864549,28.8222364 C48.4032054,32.1953721 45.6526734,36.0729019 43.6747627,40.4863505 C40.6151822,47.3902451 39.6880366,54.5778614 40.8315162,62.0491994 C41.6041375,67.1246653 43.396619,71.8218356 46.0544365,76.1722349 C46.363485,76.7081537 46.7034384,76.9288261 47.3524404,76.9288261 C50.9992131,76.8342522 54.6768908,76.8657768 58.3854732,76.8657768 Z"/>
        <path fill="#FFF3A2" fill-rule="nonzero" d="M72.2165171,111.601401 C72.2165171,116.59465 72.2165171,121.556297 72.2165171,126.549546 C72.2165171,127.244808 72.2165171,127.971674 72.2165171,128.666936 C72.2165171,129.04617 72.30963,129.204185 72.713119,129.204185 C73.5511346,129.172582 74.3891502,129.204185 75.2582034,129.204185 C78.3930026,129.204185 81.5278018,129.172582 84.6315633,129.172582 C85.2833533,129.172582 85.3454285,129.26739 85.3454285,129.93105 C85.3454285,130.973944 85.3454285,132.016838 85.3454285,133.028128 C85.3454285,133.533774 85.2833533,133.59698 85.8420303,133.59698 C89.8458828,133.59698 93.8497352,133.59698 97.8225499,133.59698 C98.226039,133.59698 98.3191518,133.438965 98.3501894,133.091334 C98.4743399,131.953632 98.8157536,130.847532 99.4054683,129.867844 C99.6227317,129.520213 99.6537693,129.204185 99.4985812,128.793348 C98.8467913,126.833971 98.226039,124.842992 97.6052866,122.883616 C96.0844435,118.079984 94.5325627,113.276352 93.0117195,108.47272 C92.9496443,108.314706 92.8875691,108.125089 92.8565315,107.967075 C92.7944562,107.682649 92.9186067,107.461429 93.1979452,107.398223 C93.4462462,107.335018 93.6324718,107.461429 93.7255847,107.682649 C93.7566223,107.777457 93.7876599,107.872266 93.8186975,107.967075 C94.9050141,111.380181 95.9913306,114.793288 97.0776472,118.206395 C98.1018885,121.429885 99.1261298,124.653375 100.181409,127.845262 C100.367634,128.382511 100.367634,128.414113 100.771123,128.034879 C101.888478,126.92878 103.192057,126.201915 104.712901,125.854283 C105.178465,125.727872 105.209502,125.727872 105.085352,125.253829 C104.837051,124.210935 104.557713,123.136439 104.340449,122.093545 C103.626584,118.933261 105.519879,115.678168 108.592603,114.856494 C108.778828,114.793288 108.996092,114.793288 109.182317,114.730083 C109.399581,114.69848 109.492693,114.572069 109.399581,114.350849 C109.368543,114.224437 109.337505,114.098026 109.27543,114.003217 C106.854496,106.35533 104.402524,98.6758389 101.98159,91.027951 C101.547064,89.6058231 101.0815,88.1836952 100.615935,86.7615673 C100.522823,86.4455389 100.367634,86.3191275 100.119333,86.6035531 C100.026221,86.6983616 99.9331078,86.7615673 99.8089573,86.824773 C97.7604747,88.3733123 95.556804,89.7322345 93.2289828,90.8067311 C88.697491,92.9241216 83.9176982,94.1250296 78.9206421,94.3146466 C76.8100842,94.4094552 74.6995264,94.3778523 72.6200061,94.0618239 C72.2785923,93.9986182 72.1544419,94.1250296 72.1854795,94.441058 C72.1854795,94.6306751 72.1854795,94.8518949 72.1854795,95.041512 C72.2165171,100.572009 72.2165171,106.102507 72.2165171,111.601401 Z"/>
        <path fill="#C27659" fill-rule="nonzero" d="M171.238474,133.53344 C175.759128,133.53344 180.310745,133.53344 184.831398,133.53344 C185.481629,133.53344 185.481629,133.53344 185.481629,132.866269 C185.481629,132.770959 185.481629,132.675649 185.481629,132.548569 C185.481629,125.050847 185.481629,117.553126 185.481629,110.055404 C185.481629,109.896554 185.481629,109.737704 185.481629,109.610624 C185.481629,109.483544 185.543556,109.324693 185.419702,109.261153 C185.233922,109.165843 185.171995,109.356464 185.048142,109.451774 C183.376119,111.040274 181.704097,112.597004 180.001111,114.185505 C178.979319,115.138605 177.957528,116.123475 176.935736,117.076575 C176.502249,117.489586 176.440322,117.457816 175.975871,117.140115 C175.821054,117.044805 175.697201,116.917725 175.573347,116.822415 C173.12724,114.947985 170.402463,113.836035 167.368052,113.613645 C163.311849,113.295945 159.627206,114.439665 156.376051,116.981265 C155.663894,117.553126 155.663894,117.553126 155.013663,116.949495 C154.982699,116.917725 154.951736,116.885955 154.889809,116.854185 C152.443702,114.503205 149.966632,112.152224 147.489561,109.801244 C147.303781,109.610624 147.118001,109.261153 146.870294,109.356464 C146.684513,109.451774 146.777403,109.801244 146.777403,110.055404 C146.777403,112.787624 146.777403,115.551615 146.777403,118.283836 C146.777403,118.665076 146.74644,118.982776 146.343916,119.236936 C141.885189,122.318627 140.832434,128.323158 143.433358,132.961579 C143.681065,133.40636 143.959736,133.59698 144.486113,133.59698 C147.768232,133.56521 151.081313,133.59698 154.363432,133.56521 C154.580175,133.56521 154.889809,133.66052 154.982699,133.4699 C155.075589,133.27928 154.765956,133.120429 154.611139,132.961579 C153.001043,131.182459 152.505629,129.117408 153.186823,126.829968 C153.868018,124.542527 155.44715,123.176417 157.676513,122.636327 C158.140964,122.509247 158.605415,122.445707 159.069866,122.509247 C159.317573,122.541017 159.47239,122.699867 159.47239,122.985797 C159.47239,123.208187 159.348536,123.367037 159.100829,123.398807 C158.822159,123.430577 158.574451,123.462347 158.295781,123.494117 C156.159308,123.780047 154.332468,125.432088 153.898981,127.560678 C153.43453,129.752809 154.363432,131.976709 156.221235,133.1522 C156.685685,133.43813 157.181099,133.59698 157.769404,133.59698 C162.351984,133.50167 166.810711,133.53344 171.238474,133.53344 Z"/>
        <path fill="#CCD6DA" fill-rule="nonzero" d="M36.0542812 129.700732C36.0542812 129.700732 36.0542812 129.700732 36.0542812 129.700732 29.7230099 129.728753 23.3917386 129.728753 17.0604673 129.728753 11.9767371 129.728753 6.89300694 129.728753 1.80927679 129.728753 1.62214562 129.728753 1.40382592 129.728753 1.21669474 129.728753.904809459 129.728753.748866816 129.840839.780055345 130.121054.780055345 130.681483.780055345 131.241913.780055345 131.802342.780055345 132.811115.780055345 132.811115 1.90284237 132.811115 10.791573 132.811115 19.7114922 132.811115 28.6002228 132.783094 42.479118 132.783094 56.3268247 132.755072 70.2057199 132.755072 70.3928511 132.755072 70.6111708 132.755072 70.798302 132.755072 71.2349414 132.727051 71.390884 132.586943 71.390884 132.194643 71.4220726 131.466084 71.390884 130.765548 71.390884 130.036989 71.390884 129.728753 71.2349414 129.644689 70.9230561 129.67271 70.7359249 129.67271 70.5799823 129.67271 70.3928511 129.67271 67.0868671 129.67271 63.8120716 129.700732 60.5060876 129.700732 52.3658816 129.700732 44.2256756 129.700732 36.0542812 129.700732zM113.286109 133.56504C117.644515 133.56504 122.033614 133.56504 126.39202 133.56504 126.576178 133.56504 126.729642 133.56504 126.9138 133.56504 127.190037 133.59698 127.312809 133.501162 127.282116 133.181769 127.128651 131.840318 126.668257 130.626624 125.870239 129.540688 125.747467 129.349052 125.624695 129.380992 125.563309 129.604567 125.532616 129.700385 125.501923 129.796203 125.440537 129.89202 124.427668 132.095832 121.910842 132.702679 120.069262 131.169593 119.731639 130.882139 119.516788 130.81826 119.117779 131.009896 117.982138 131.488986 116.907883 131.329289 115.895014 130.626624 114.820759 129.860081 114.329671 128.774145 114.42175 127.400755 114.452443 126.921665 114.42175 126.889726 114.022741 127.017483 113.071258 127.272998 112.181161 127.17718 111.321757 126.666151 111.106906 126.538394 110.922748 126.538394 110.677204 126.538394 109.265326 126.538394 107.822755 126.506454 106.410878 126.538394 103.15742 126.602272 100.364357 128.933841 99.5356459 132.22359 99.4435669 132.574922 99.3821809 132.926254 99.3514879 133.277587 99.3207949 133.501162 99.4128739 133.59698 99.6277249 133.59698 99.8118829 133.59698 100.026734 133.59698 100.210892 133.59698 104.599991 133.56504 108.958396 133.56504 113.286109 133.56504z"/>
        <path fill="#FAE0D6" fill-rule="nonzero" d="M107.888593 125.178144C107.888593 125.178144 107.888593 125.178144 107.888593 125.178144 108.465323 125.178144 109.010012 125.178144 109.586742 125.178144 109.811026 125.178144 109.939188 125.117377 109.843066 124.874308 109.202256 123.203206 109.106134 121.41057 108.721647 119.678702 108.625526 119.283714 108.785728 119.040645 109.074093 118.979878 109.362458 118.91911 109.554702 119.101412 109.650823 119.4964 109.746945 119.891387 109.811026 120.316759 109.875107 120.711746 110.06735 121.744791 110.227553 122.777835 110.451837 123.780496 110.772242 125.147761 112.085905 125.937736 113.527729 125.694667 114.937513 125.421214 115.834649 124.205867 115.610365 122.838602 115.418121 121.65364 115.225878 120.499061 114.937513 119.344482 114.328743 116.76187 111.605296 115.121153 108.88185 115.607291 106.286566 116.063046 104.396174 118.645657 104.844741 121.167501 105.069025 122.382848 105.453512 123.56781 105.741877 124.783157 105.805958 125.05661 105.96616 125.178144 106.286566 125.178144 106.831255 125.178144 107.375944 125.178144 107.888593 125.178144zM115.644642 127.818728C115.708069 128.701641 115.99349 129.395358 116.691184 129.89988 118.15 130.971988 120.11623 130.435934 120.750498 128.733173 121.353052 127.061945 121.923893 125.359185 122.494734 123.656424 122.558161 123.467229 122.589874 123.278033 122.621588 123.057305 122.716728 121.827534 121.98732 120.723893 120.782211 120.345501 119.608816 119.998643 118.308567 120.503164 117.737726 121.606805 117.357165 122.363588 117.040031 123.183435 116.913178 124.034816 116.818038 124.665468 116.627757 125.233055 116.310623 125.800641 115.930063 126.462826 115.708069 127.156543 115.644642 127.818728z"/>
        <path fill="#CCD6DA" fill-rule="nonzero" d="M78.2639192,132.811115 C78.2639192,132.811115 78.2639192,132.782796 78.2639192,132.782796 C79.93439,132.782796 81.5733424,132.782796 83.2438132,132.782796 C83.527478,132.782796 83.8111429,132.782796 84.0632894,132.782796 C84.3784726,132.754476 84.5991008,132.641198 84.5991008,132.329684 C84.5991008,131.53674 84.5991008,130.743796 84.5991008,129.950851 C84.5991008,129.752615 84.4730275,129.667657 84.2523993,129.667657 C84.0632894,129.667657 83.8426612,129.667657 83.6535513,129.667657 C81.2896776,129.667657 78.9258038,129.667657 76.5619301,129.667657 C75.2696791,129.667657 73.9774282,129.695976 72.7166955,129.695976 C72.3384757,129.695976 72.1808841,129.809254 72.1808841,130.149087 C72.2124025,130.857073 72.1808841,131.565059 72.1808841,132.244726 C72.1808841,132.782796 72.1808841,132.811115 72.8112505,132.811115 C74.6393128,132.811115 76.4358568,132.811115 78.2639192,132.811115 Z"/>
        <path fill="#FAE0D6" fill-rule="nonzero" d="M125.734443,126.836759 C125.734443,125.430113 124.841006,124.420997 123.484305,124.206943 C122.88868,124.115205 122.822499,124.145784 122.623957,124.665631 C122.259964,125.644168 121.929062,126.622704 121.565069,127.570661 C121.234166,128.42688 121.068714,129.374837 120.406909,130.108739 C120.175277,130.353373 120.373819,130.50627 120.53927,130.659166 C121.929062,131.72944 124.046839,131.270751 124.774825,129.68063 C125.105728,128.946728 125.37045,128.182246 125.635173,127.417765 C125.734443,127.173131 125.734443,126.928497 125.734443,126.836759 Z"/>
        <path fill="#151D38" fill-rule="nonzero" d="M45.0023661,103.894874 C44.7563203,107.717065 42.4188855,110.568043 38.9742448,111.382608 C34.545421,112.447809 30.1781087,109.346195 29.5629943,104.740769 C29.040147,100.855919 31.5006047,96.9084109 35.4988484,95.9685279 C36.3600086,95.7805513 36.42152,95.8118807 36.5445429,96.6891048 C37.0673901,99.6654009 39.0357562,101.858461 41.8960383,102.516379 C42.5726641,102.673026 43.24929,102.704356 43.9566716,102.641697 C44.8793432,102.547709 44.9716103,102.641697 45.0023661,103.58158 C45.0331218,103.738227 45.0023661,103.894874 45.0023661,103.894874 Z"/>
        <path fill="#FFF" fill-rule="nonzero" d="M37.3908612,110.806612 C37.8613948,110.774418 38.4887728,110.710032 39.1161508,110.549065 C41.9079831,109.776423 44.1038062,107.072179 44.2292818,104.174775 C44.2606507,103.530907 44.2606507,103.530907 43.6646416,103.530907 C39.9317423,103.595294 36.6693765,101.019823 35.8224162,97.2853908 C35.6342027,96.4483628 35.540096,96.6415231 35.0381936,96.8024901 C31.8071967,97.8970651 29.799587,101.309564 30.3642272,104.818642 C30.8974986,108.231141 33.8775442,110.838805 37.3908612,110.806612 Z"/>
        <g transform="translate(59.763 47.938)">
          <path fill="#151D38" fill-rule="nonzero" d="M21.7212276,0.286569375 C23.2870319,0.286569375 24.8528362,0.350251459 26.4186404,0.382092501 C27.1554895,0.413933542 27.3397018,0.668661876 27.0019793,1.30548271 C24.6993259,5.73138751 21.322101,8.81996856 16.5018801,9.87072293 C11.650957,10.9214773 7.38337287,9.55231252 3.72982958,6.08163897 C2.2868335,4.71247417 1.1815599,3.05674 0.291200607,1.24180063 C0.199094474,1.05075438 0.10698834,0.891549168 0.0455842516,0.700502918 C-0.0772239262,0.318410417 0.0455842516,0.127364167 0.444710829,0.0318410417 C0.598221052,0 0.751731274,0 0.874539451,0 C3.88333981,0.0318410417 6.92284221,0.0636820834 9.93164256,0.0955231252 C10.4535773,0.0955231252 18.3133007,0.286569375 21.7212276,0.286569375 Z"/>
          <path fill="#FFF" fill-rule="nonzero" d="M14.0270888,0.907181664 C13.092046,0.907181664 12.1881712,0.907181664 11.2531284,0.907181664 C10.0999089,0.907181664 8.97785753,0.907181664 7.82463804,0.846523125 C5.8610481,0.785864586 3.89745815,0.785864586 1.93386821,0.785864586 C1.49751489,0.785864586 1.4663468,0.816193855 1.68452346,1.18014509 C2.46372582,2.60562075 3.46110483,3.87945007 4.67666051,4.97130377 C8.10515089,8.00423072 12.094667,9.24773076 16.6452087,8.36818195 C20.8217334,7.54929168 23.8762066,5.18360866 26.1203094,1.72607194 C26.5254946,1.08915728 26.5254946,1.05882801 25.7462923,1.05882801 C21.8502805,0.998169472 17.9231006,0.937510933 14.0270888,0.907181664 Z"/>
        </g>
        <path fill="#E5384A" fill-rule="nonzero" d="M44.2398967 53.0460088C44.2398967 50.4767302 46.1430628 47.9686248 49.3150062 47.9380382 52.0942328 47.9074515 54.3296977 50.2320369 54.3296977 53.0460088 54.3296977 55.8905672 52.0942328 58.1539794 49.2847972 58.1539794 46.5055706 58.1233927 44.2398967 55.8599806 44.2398967 53.0460088zM103.995139 53.8475932C104.116248 56.30169 102.027108 58.9091677 98.9690897 58.9398439 96.1835686 58.9398439 93.9430406 56.6698045 93.9127632 53.8475932 93.9127632 50.9640295 96.1230137 48.7246663 98.9690897 48.7246663 101.966553 48.6633138 104.146526 51.2707916 103.995139 53.8475932z"/>
        <path fill="#151D38" fill-rule="nonzero" d="M56.2530506 41.6508231C57.786095 41.6508231 59.019196 42.8657793 58.985869 44.4182235 58.985869 45.9369189 57.786095 47.1518752 56.3197047 47.1518752 54.7866602 47.1518752 53.5535592 45.9369189 53.5535592 44.3844747 53.5535592 42.8995281 54.7533331 41.6845718 56.2530506 41.6508231zM91.2132719 42.4373558C92.7463163 42.4373558 93.9127632 43.652013 93.9127632 45.2378154 93.8794362 46.7561368 92.6796622 47.9707939 91.1799448 47.9370535 89.7135544 47.9370535 88.4804535 46.6886558 88.4804535 45.2040749 88.4471264 43.652013 89.6802274 42.4036153 91.2132719 42.4373558zM119.524945 56.6292468C119.493837 59.8254571 116.258563 62.0780243 113.178831 61.043061 113.085506 61.0126209 112.992181 60.9821808 112.898856 60.9213006 112.587772 60.7995402 112.463338 60.5864595 112.587772 60.2820585 112.681097 60.0080977 112.961072 59.9776576 113.20994 60.0385377 113.365482 60.0689778 113.552132 60.1602981 113.707674 60.1907382 115.854154 60.7691001 118.093959 59.4297358 118.529477 57.3293691 118.964994 55.1681221 117.471791 53.1286356 115.263094 52.8242346 115.076444 52.7937945 114.858685 52.7633544 114.672035 52.7329143 114.454276 52.7024742 114.329842 52.5198337 114.329842 52.306753 114.329842 52.0327921 114.485384 51.9110317 114.734251 51.8805916 114.889793 51.8501515 115.076444 51.8805916 115.263094 51.8805916 117.720658 52.1545525 119.556054 54.194039 119.524945 56.6292468zM73.731481 41.4032726C73.731481 41.6265732 73.5584878 41.7541736 73.3566624 41.8498739 72.7511861 42.2007749 72.1168777 42.551676 71.5114014 42.8706769 71.2519116 42.9982773 71.1942472 43.1258777 71.453737 43.3172782 71.9727167 43.7000794 72.4628641 44.1147806 72.9818438 44.4975817 73.1260048 44.593282 73.2413336 44.6889823 73.3566624 44.8165827 73.5008234 44.9760831 73.5008234 45.1993838 73.3854946 45.3907844 73.2701658 45.5821849 73.0971726 45.614085 72.8953472 45.5502848 72.7800183 45.5183847 72.6935217 45.4545846 72.6070251 45.3588843 71.8285556 44.7527825 71.021254 44.1466807 70.2427845 43.5086788 69.6949726 43.0620775 69.7238048 42.7430765 70.3292811 42.3921755 71.1942472 41.881774 72.0880455 41.4032726 72.9818438 40.9247711 73.4143268 40.7652707 73.7603132 40.9247711 73.731481 41.4032726zM49.6728665 43.1625524C49.7611825 40.8852252 51.2331166 38.9982969 53.3232629 38.5753647 53.5587723 38.5102982 53.7942817 38.477765 54.0297912 38.5428315 54.2064233 38.5753647 54.324178 38.738031 54.324178 38.9332304 54.3536167 39.1609632 54.2653006 39.3561626 54.0592299 39.4212291 53.8531591 39.4862956 53.6470883 39.5188289 53.4410176 39.5513621 51.8513288 39.9092278 50.7915364 41.2105577 50.6149043 42.9673529 50.5854656 43.1625524 50.5854656 43.3252186 50.5854656 43.5204181 50.5560269 43.8132173 50.4382722 44.0084168 50.1438854 44.0084168 49.8494986 44.0084168 49.7317439 43.7806841 49.7023052 43.4878849 49.6728665 43.3902851 49.6728665 43.2926854 49.6728665 43.1625524zM97.0173174 43.1460202C97.0173174 43.2737826 97.0173174 43.4973669 96.9869485 43.6890106 96.9262107 43.912595 96.7743661 44.0084168 96.5617837 44.0084168 96.3492014 44.0084168 96.1973568 43.8806543 96.1669879 43.65707 96.136619 43.4973669 96.1669879 43.3376639 96.136619 43.2099014 96.0455123 41.325405 94.8611247 39.8880773 93.0997279 39.5367305 93.0086212 39.5047899 92.9175145 39.5047899 92.8264077 39.4728493 92.5227186 39.408968 92.3101363 39.2492649 92.3708741 38.8979182 92.4316119 38.5465714 92.7049321 38.4826901 92.9782523 38.5146308 94.0107953 38.6423932 94.8914937 39.0576212 95.6507164 39.7922554 96.5010459 40.7185333 96.9565796 41.8045143 97.0173174 43.1460202zM165.82999 131.232353C164.665367 131.198596 163.87846 130.861022 163.28041 130.050844 163.0286 129.747027 162.934171 129.747027 162.682361 130.050844 161.58069 131.367383 159.975399 131.603685 158.684871 130.692235 158.244203 130.388418 157.897964 129.949571 157.646154 129.44321 157.520248 129.173151 157.488772 128.835577 157.803535 128.66679 158.118298 128.498003 158.307156 128.66679 158.464537 128.970606 158.558966 129.173151 158.684871 129.375695 158.842253 129.57824 159.880971 130.75975 161.706596 130.388418 162.273169 128.903092 162.399074 128.565517 162.43055 128.362973 162.021359 128.261701 161.454785 128.092914 161.108546 127.62031 160.73083 127.181463 160.573449 127.012676 160.47902 126.776374 160.447544 126.540072 160.353115 126.067469 160.510496 125.763652 160.982641 125.763652 162.304645 125.729894 163.658126 125.729894 164.98013 125.763652 165.420798 125.763652 165.57818 126.067469 165.452275 126.540072 165.263417 127.316493 164.696844 127.721582 164.13027 128.126671 163.941412 128.261701 163.62665 128.227943 163.563697 128.464245 163.500744 128.768062 163.689602 129.071879 163.87846 129.341938 164.72832 130.590962 166.42804 130.590962 167.309376 129.341938 167.403805 129.206908 167.498234 129.004364 167.592663 128.869334 167.750044 128.633032 167.970378 128.599275 168.190712 128.700547 168.411046 128.835577 168.473999 129.071879 168.37957 129.308181 168.190712 129.780784 167.907426 130.185873 167.52971 130.523448 166.963137 130.996051 166.333611 131.266111 165.82999 131.232353zM176.183852 122.595693C177.514145 122.595693 178.511864 123.639414 178.511864 124.952482 178.511864 126.299218 177.44763 127.342939 176.117338 127.309271 174.820302 127.275602 173.822583 126.231882 173.85584 124.885145 173.822583 123.572077 174.85356 122.562025 176.183852 122.595693zM149.002086 127.310063C147.714026 127.310063 146.690184 126.306832 146.690184 124.96919 146.690184 123.631548 147.647972 122.628316 148.969059 122.594875 150.323173 122.594875 151.347015 123.598107 151.347015 124.935749 151.313988 126.27339 150.323173 127.310063 149.002086 127.310063z"/>
      </g>
      <text fill="#7DA159" font-size="26" font-weight="bold" class="sans-serif">
        <tspan x="143" y="165.7">User</tspan>
      </text>
    </g>
    <g transform="translate(91 562)">
      <g fill="#34302E" stroke="#7CB050" stroke-width="9.1">
        <rect width="133.9" height="133.9" x="4.55" y="4.55"/>
      </g>
      <text fill="#FFF" font-size="21" font-weight="bold" class="sans-serif">
        <tspan x="19.5" y="79">BACKEND</tspan>
      </text>
    </g>
    <g transform="translate(249 562)">
      <g fill="#34302E" stroke="#7CB050" stroke-width="9.1">
        <rect width="133.9" height="133.9" x="4.55" y="4.55"/>
      </g>
      <text fill="#FFF" font-size="21" font-weight="bold" class="sans-serif">
        <tspan x="19" y="79">BACKEND</tspan>
      </text>
    </g>
    <g transform="translate(408 562)">
      <g fill="#34302E" stroke="#7CB050" stroke-width="9.1">
        <rect width="133.9" height="133.9" x="4.55" y="4.55"/>
      </g>
      <text fill="#FFF" font-size="21" font-weight="bold" class="sans-serif">
        <tspan x="19" y="79">BACKEND</tspan>
      </text>
    </g>
    <g transform="translate(566 562)">
      <g fill="#34302E" stroke="#7CB050" stroke-width="9.1">
        <rect width="133.9" height="133.9" x="4.55" y="4.55"/>
      </g>
      <text fill="#FFF" font-size="21" font-weight="bold" class="sans-serif">
        <tspan x="19" y="77">BACKEND</tspan>
      </text>
    </g>
  </g>
</svg>
