<svg xmlns="http://www.w3.org/2000/svg" viewBox="0 0 800 592" id="reliable">
  <g fill="none" fill-rule="evenodd">
    <g id="reliable-animejs-item5" fill="#C93D2E" stroke="#511D1C" transform="translate(397 154)">
      <g>
        <g>
          <polygon fill-rule="nonzero" stroke-width=".936" points="16.661 45.853 80.309 9.375 80.309 82.331 16.661 118.717"/>
          <polygon fill-rule="nonzero" stroke-width=".936" points="64.397 .278 80.309 9.375 16.661 45.853 .749 36.757"/>
          <polygon fill-rule="nonzero" stroke-width=".936" points=".749 109.62 16.661 118.717 16.661 45.853 .749 36.757"/>
        </g>
      </g>
    </g>
    <g id="reliable-animejs-item6" fill="#C93D2E" stroke="#511D1C" transform="translate(429 173)">
      <g>
        <g>
          <polygon fill-rule="nonzero" stroke-width=".936" points="16.661 45.853 80.309 9.375 80.309 82.331 16.661 118.717"/>
          <polygon fill-rule="nonzero" stroke-width=".936" points="64.397 .278 80.309 9.375 16.661 45.853 .749 36.757"/>
          <polygon fill-rule="nonzero" stroke-width=".936" points=".749 109.62 16.661 118.717 16.661 45.853 .749 36.757"/>
        </g>
      </g>
    </g>
    <g transform="translate(238 26)">
      <g transform="translate(0 27.36)">
        <polygon fill="#C93D2E" fill-opacity=".3" fill-rule="nonzero" points="79.569 .187 .029 46.132 206.833 165.907 286.373 119.588"/>
        <polygon fill="#C93D2E" fill-opacity=".1" points="207.122 166.115 207.122 259.031 286.329 212.573 286.329 120.336"/>
        <polygon fill="#C93D2E" fill-opacity=".3" fill-rule="nonzero" points=".029 138.209 206.833 258.358 206.833 166.187 .029 46.319"/>
        <polygon stroke="#661F1F" stroke-width="2.808" points="206.833 165.72 286.373 119.775 286.373 211.664 206.833 258.358"/>
        <polygon stroke="#661F1F" stroke-width="2.808" points=".029 138.209 206.833 258.358 206.833 166.187 .029 46.319"/>
        <polygon stroke="#661F1F" stroke-width="2.808" points="79.569 .187 .029 46.132 206.833 165.907 286.373 119.588"/>
      </g>
      <text fill="#4A4A4A" font-size="14.976" font-weight="bold" class="sans-serif">
        <tspan x="95.04" y="14">Head</tspan>
      </text>
      <text fill="#4A4A4A" font-size="14.976" font-weight="bold" class="sans-serif">
        <tspan x="298.08" y="124.88">Tail</tspan>
      </text>
    </g>
    <g transform="translate(69 372)">
      <g id="reliable-animejs-item16" fill="#C93D2E" stroke="#511D1C" transform="translate(114 89)">
        <g>
          <g>
            <polygon fill-rule="nonzero" stroke-width=".562" points="9.996 27.358 48.185 5.593 48.185 49.122 9.996 70.831"/>
            <polygon fill-rule="nonzero" stroke-width=".562" points="38.638 .166 48.185 5.593 9.996 27.358 .449 21.93"/>
            <polygon fill-rule="nonzero" stroke-width=".562" points=".449 65.404 9.996 70.831 9.996 27.358 .449 21.93"/>
          </g>
        </g>
      </g>
      <g>
        <g transform="translate(0 16.416)">
          <polygon fill="#C93D2E" fill-opacity=".3" fill-rule="nonzero" points="47.741 .112 .017 27.679 124.1 99.544 171.824 71.753"/>
          <polygon fill="#C93D2E" fill-opacity=".1" points="124.273 99.669 124.273 155.419 171.798 127.544 171.798 72.201"/>
          <polygon fill="#C93D2E" fill-opacity=".3" fill-rule="nonzero" points=".017 82.925 124.1 155.015 124.1 99.712 .017 27.791"/>
          <polygon stroke="#661F1F" stroke-width="1.685" points="124.1 99.432 171.824 71.865 171.824 126.999 124.1 155.015"/>
          <polygon stroke="#661F1F" stroke-width="1.685" points=".017 82.925 124.1 155.015 124.1 99.712 .017 27.791"/>
          <polygon stroke="#661F1F" stroke-width="1.685" points="47.741 .112 .017 27.679 124.1 99.544 171.824 71.753"/>
        </g>
        <text fill="#4A4A4A" font-size="8.986" font-weight="bold" class="sans-serif">
          <tspan x="57.024" y="8">Head</tspan>
        </text>
        <text fill="#4A4A4A" font-size="8.986" font-weight="bold" class="sans-serif">
          <tspan x="178.848" y="74.528">Tail</tspan>
        </text>
      </g>
    </g>
    <g transform="translate(303 372)">
      <g id="reliable-animejs-item26" fill="#C93D2E" stroke="#511D1C" transform="translate(114 89)">
        <g>
          <g>
            <polygon fill-rule="nonzero" stroke-width=".562" points="9.996 27.358 48.185 5.593 48.185 49.122 9.996 70.831"/>
            <polygon fill-rule="nonzero" stroke-width=".562" points="38.638 .166 48.185 5.593 9.996 27.358 .449 21.93"/>
            <polygon fill-rule="nonzero" stroke-width=".562" points=".449 65.404 9.996 70.831 9.996 27.358 .449 21.93"/>
          </g>
        </g>
      </g>
      <g>
        <g transform="translate(0 16.416)">
          <polygon fill="#C93D2E" fill-opacity=".3" fill-rule="nonzero" points="47.741 .112 .017 27.679 124.1 99.544 171.824 71.753"/>
          <polygon fill="#C93D2E" fill-opacity=".1" points="124.273 99.669 124.273 155.419 171.798 127.544 171.798 72.201"/>
          <polygon fill="#C93D2E" fill-opacity=".3" fill-rule="nonzero" points=".017 82.925 124.1 155.015 124.1 99.712 .017 27.791"/>
          <polygon stroke="#661F1F" stroke-width="1.685" points="124.1 99.432 171.824 71.865 171.824 126.999 124.1 155.015"/>
          <polygon stroke="#661F1F" stroke-width="1.685" points=".017 82.925 124.1 155.015 124.1 99.712 .017 27.791"/>
          <polygon stroke="#661F1F" stroke-width="1.685" points="47.741 .112 .017 27.679 124.1 99.544 171.824 71.753"/>
        </g>
        <text fill="#4A4A4A" font-size="8.986" font-weight="bold" class="sans-serif">
          <tspan x="57.024" y="8">Head</tspan>
        </text>
        <text fill="#4A4A4A" font-size="8.986" font-weight="bold" class="sans-serif">
          <tspan x="178.848" y="74.528">Tail</tspan>
        </text>
      </g>
    </g>
    <g transform="translate(538 372)">
      <g id="reliable-animejs-item36" fill="#C93D2E" stroke="#511D1C" transform="translate(114 89)">
        <g>
          <g>
            <polygon fill-rule="nonzero" stroke-width=".562" points="9.996 27.358 48.185 5.593 48.185 49.122 9.996 70.831"/>
            <polygon fill-rule="nonzero" stroke-width=".562" points="38.638 .166 48.185 5.593 9.996 27.358 .449 21.93"/>
            <polygon fill-rule="nonzero" stroke-width=".562" points=".449 65.404 9.996 70.831 9.996 27.358 .449 21.93"/>
          </g>
        </g>
      </g>
      <g>
        <g transform="translate(0 16.416)">
          <polygon fill="#C93D2E" fill-opacity=".3" fill-rule="nonzero" points="47.741 .112 .017 27.679 124.1 99.544 171.824 71.753"/>
          <polygon fill="#C93D2E" fill-opacity=".1" points="124.273 99.669 124.273 155.419 171.798 127.544 171.798 72.201"/>
          <polygon fill="#C93D2E" fill-opacity=".3" fill-rule="nonzero" points=".017 82.925 124.1 155.015 124.1 99.712 .017 27.791"/>
          <polygon stroke="#661F1F" stroke-width="1.685" points="124.1 99.432 171.824 71.865 171.824 126.999 124.1 155.015"/>
          <polygon stroke="#661F1F" stroke-width="1.685" points=".017 82.925 124.1 155.015 124.1 99.712 .017 27.791"/>
          <polygon stroke="#661F1F" stroke-width="1.685" points="47.741 .112 .017 27.679 124.1 99.544 171.824 71.753"/>
        </g>
        <text fill="#4A4A4A" font-size="8.986" font-weight="bold" class="sans-serif">
          <tspan x="57.024" y="8">Head</tspan>
        </text>
        <text fill="#4A4A4A" font-size="8.986" font-weight="bold" class="sans-serif">
          <tspan x="178.848" y="74.528">Tail</tspan>
        </text>
      </g>
    </g>
    <g id="reliable-animejs-wait1" fill="#4A4A4A" fill-rule="nonzero" transform="translate(97 325)">
      <path d="M41.6,21.05 C41.65,9.7 32.4,0.45 21.05,0.4 C9.7,0.35 0.45,9.6 0.4,20.95 C0.35,32.3 9.6,41.55 20.95,41.6 C32.3,41.65 41.55,32.4 41.6,21.05 Z M39.15,21.05 C39.1,31.05 30.95,39.15 20.95,39.15 C10.95,39.1 2.85,30.95 2.85,20.95 C2.9,10.95 11.05,2.85 21.05,2.85 C31.05,2.9 39.15,11.05 39.15,21.05 Z"/>
      <path d="M20.65 33.7L21.4 33.7C21.95 33.7 22.4 34.15 22.4 34.7L22.4 36.85C22.4 37.4 21.95 37.85 21.4 37.85L20.65 37.85C20.1 37.85 19.65 37.4 19.65 36.85L19.65 34.7C19.7 34.15 20.15 33.7 20.65 33.7zM29.85 35.45L29.2 35.85C29.05 35.95 28.9 36 28.7 36 28.6 36 28.55 36 28.45 35.95 28.2 35.9 28 35.7 27.85 35.5L26.8 33.65C26.55 33.2 26.7 32.6 27.15 32.3L27.8 31.9C27.95 31.8 28.1 31.75 28.3 31.75 28.4 31.75 28.45 31.75 28.55 31.8 28.8 31.85 29 32.05 29.15 32.25L30.2 34.1C30.5 34.55 30.3 35.15 29.85 35.45zM32.3 27C32.45 26.75 32.65 26.6 32.9 26.55 33 26.55 33.05 26.5 33.15 26.5 33.3 26.5 33.5 26.55 33.65 26.65L35.5 27.75C35.95 28 36.15 28.65 35.85 29.1L35.45 29.75C35.3 30 35.1 30.15 34.85 30.2 34.75 30.2 34.7 30.25 34.6 30.25 34.45 30.25 34.25 30.2 34.1 30.1L32.25 29C31.8 28.75 31.6 28.1 31.9 27.65L32.3 27zM36.85 22.4L34.7 22.4C34.15 22.4 33.7 21.95 33.7 21.4L33.7 20.65C33.7 20.1 34.15 19.65 34.7 19.65L36.85 19.65C37.4 19.65 37.85 20.1 37.85 20.65L37.85 21.4C37.8 22 37.4 22.4 36.85 22.4zM35.6 14.3L33.75 15.35C33.6 15.45 33.4 15.5 33.25 15.5 32.9 15.5 32.6 15.3 32.4 15L32 14.35C31.85 14.1 31.85 13.85 31.9 13.6 31.95 13.35 32.15 13.15 32.35 13L34.2 11.95C34.35 11.85 34.5 11.8 34.7 11.8 34.8 11.8 34.85 11.8 34.95 11.85 35.2 11.9 35.4 12.1 35.55 12.3L35.95 12.95C36.25 13.45 36.1 14.05 35.6 14.3zM29.05 9.95C28.9 10.2 28.7 10.35 28.45 10.4 28.35 10.4 28.3 10.45 28.2 10.45 28.05 10.45 27.85 10.4 27.7 10.3L27.05 9.9C26.6 9.65 26.4 9 26.7 8.55L27.8 6.7C27.95 6.45 28.15 6.3 28.4 6.25 28.5 6.25 28.55 6.2 28.65 6.2 28.8 6.2 29 6.25 29.15 6.35L29.8 6.75C30.25 7 30.45 7.65 30.15 8.1L29.05 9.95zM21.45 8.25L20.7 8.25C20.15 8.25 19.7 7.8 19.7 7.25L19.7 5.1C19.7 4.55 20.15 4.1 20.7 4.1L21.45 4.1C22 4.1 22.45 4.55 22.45 5.1L22.45 7.25C22.45 7.8 22 8.25 21.45 8.25zM15 9.6L14.35 10C14.2 10.1 14.05 10.15 13.85 10.15 13.75 10.15 13.7 10.15 13.6 10.1 13.35 10.05 13.15 9.85 13 9.65L11.95 7.8C11.7 7.35 11.85 6.75 12.3 6.45L12.95 6.05C13.1 5.95 13.25 5.9 13.45 5.9 13.55 5.9 13.6 5.9 13.7 5.95 13.95 6 14.15 6.2 14.3 6.4L15.35 8.25C15.65 8.75 15.45 9.35 15 9.6zM9.85 15.05C9.65 15.35 9.35 15.55 9 15.55 8.85 15.55 8.65 15.5 8.5 15.4L6.65 14.3C6.4 14.15 6.25 13.95 6.2 13.7 6.15 13.45 6.15 13.2 6.3 12.95L6.7 12.3C6.9 12 7.2 11.8 7.55 11.8 7.7 11.8 7.9 11.85 8.05 11.95L9.9 13.05C10.15 13.2 10.3 13.4 10.35 13.65 10.4 13.9 10.4 14.15 10.25 14.4L9.85 15.05zM8.3 20.5L8.3 21.25C8.3 21.8 7.85 22.25 7.3 22.25L5.15 22.25C4.6 22.25 4.15 21.8 4.15 21.25L4.15 20.5C4.15 19.95 4.6 19.5 5.15 19.5L7.3 19.5C7.85 19.5 8.3 19.95 8.3 20.5zM6.45 27.85L8.3 26.8C8.45 26.7 8.6 26.65 8.8 26.65 9.15 26.65 9.45 26.85 9.65 27.15L10.05 27.8C10.2 28.05 10.2 28.3 10.15 28.55 10.1 28.8 9.9 29 9.7 29.15L7.85 30.2C7.7 30.3 7.5 30.35 7.35 30.35 7 30.35 6.7 30.15 6.5 29.85L6.1 29.2C5.95 28.95 5.95 28.7 6 28.45 6.05 28.15 6.25 27.95 6.45 27.85zM12.85 32.25C13 32 13.2 31.85 13.45 31.8 13.55 31.8 13.6 31.75 13.7 31.75 13.85 31.75 14.05 31.8 14.2 31.9L14.85 32.3C15.3 32.55 15.5 33.2 15.2 33.65L14.1 35.5C13.9 35.8 13.6 36 13.25 36 13.1 36 12.9 35.95 12.75 35.85L12.1 35.5C11.85 35.35 11.7 35.15 11.65 34.9 11.6 34.65 11.6 34.4 11.75 34.15L12.85 32.25z"/>
      <path d="M19.8341797,15.6001953 L25.3841797,18.8001953 C25.5841797,18.9501953 25.7841797,19.1501953 25.8341797,19.4001953 C25.8841797,19.6501953 25.8841797,19.9001953 25.7341797,20.1501953 L25.3341797,20.8001953 C25.1341797,21.1001953 24.8341797,21.3001953 24.4841797,21.3001953 C24.3341797,21.3001953 24.1341797,21.2501953 23.9841797,21.1501953 L18.4841797,17.9501953 L14.3841797,25.0501953 C14.2341797,25.3001953 14.0341797,25.4501953 13.7841797,25.5001953 C13.6841797,25.5001953 13.6341797,25.5501953 13.5341797,25.5501953 C13.3841797,25.5501953 13.1841797,25.5001953 13.0341797,25.4001953 L12.3841797,25.0001953 C11.9341797,24.7501953 11.7341797,24.1001953 12.0341797,23.6501953 L16.0341797,16.7501953 C15.9841797,16.6501953 15.9341797,16.5501953 15.9341797,16.4501953 L14.9841797,15.9001953 C14.5341797,15.6501953 14.3341797,15.0001953 14.6341797,14.5501953 L15.0341797,13.9001953 C15.1841797,13.6501953 15.3841797,13.5001953 15.6341797,13.4501953 C15.7341797,13.4501953 15.7841797,13.4001953 15.8841797,13.4001953 C16.0341797,13.4001953 16.2341797,13.4501953 16.3841797,13.5501953 L17.2841797,14.1001953 C17.3841797,14.0501953 17.5341797,14.0501953 17.6341797,14.0501953 L18.2841797,12.9501953 C18.4341797,12.7001953 18.6341797,12.5501953 18.8841797,12.5001953 C18.9841797,12.5001953 19.0341797,12.4501953 19.1341797,12.4501953 C19.2841797,12.4501953 19.4841797,12.5001953 19.6341797,12.6001953 L20.2841797,13.0001953 C20.7341797,13.2501953 20.9341797,13.9001953 20.6341797,14.3501953 L19.8341797,15.6001953 Z" transform="rotate(150 18.878 19)"/>
    </g>
    <g id="reliable-animejs-run1" fill="#4A4A4A" fill-rule="nonzero" transform="translate(100 328)">
      <g transform="translate(0 12)">
        <path d="M21.4128568,10.3517484 L23.715193,9.11612701 C23.9255367,9.00483821 24.04827,8.72543228 23.9819703,8.4973297 C23.8947547,8.20490061 23.7988569,7.91207688 23.6903306,7.62201564 C23.6070613,7.39864875 23.4594655,7.04268244 23.3615945,6.82641909 C23.2329415,6.54464531 23.0944225,6.26997508 22.9472214,6.0016191 C22.8335647,5.79403785 22.5506071,5.68314369 22.3217152,5.75299518 L19.8189014,6.50754904 C19.5919828,6.5762166 19.294818,6.47479383 19.1468276,6.28970713 C18.7277188,5.7628612 18.2462566,5.28021508 17.7091501,4.85242408 C17.5236688,4.70364437 17.4214567,4.40766351 17.4905189,4.17956093 L18.2462566,1.67714143 C18.3149242,1.44864421 18.2052139,1.16568651 17.9960542,1.05084594 C17.6049648,0.837345076 17.1988791,0.639629863 16.7774025,0.465593118 C16.3559258,0.291951014 15.9297134,0.143960585 15.5007385,0.0180700595 C15.2718467,-0.0482296528 14.9940193,0.0741091021 14.8819413,0.28366355 L13.64632,2.58797319 C13.5326633,2.79752764 13.2524682,2.93486276 13.0168674,2.90881645 C12.3341383,2.83146678 11.6521985,2.83383463 10.9832819,2.9084218 C10.7472865,2.93486276 10.466302,2.79594908 10.3534347,2.58718391 L9.11781339,0.284058191 C9.00455139,0.0745037432 8.72790798,-0.0482296528 8.49941079,0.0180700595 C8.20579781,0.103707188 7.91494732,0.199999627 7.62370219,0.308525942 C7.40151925,0.392189865 7.0447637,0.538996371 6.82850038,0.638051298 C6.54593735,0.766704311 6.27166179,0.90403943 6.00251656,1.0524245 C5.79493534,1.16647579 5.68522512,1.44982813 5.75468195,1.67674679 L6.50884109,4.17995557 C6.57790328,4.40687423 6.47648052,4.70443365 6.28981528,4.85202944 C5.76454798,5.27153298 5.28150727,5.75220589 4.85411097,6.28970713 C4.70651519,6.47597775 4.40816652,6.57740053 4.18085325,6.50794369 L1.67803941,5.75299518 C1.44993686,5.6851169 1.16697919,5.79403785 1.05253327,6.00280302 C0.838637795,6.39389239 0.641317246,6.79958349 0.466885881,7.22184952 C0.292454515,7.64411554 0.143674821,8.06914405 0.0189682345,8.49851362 C-0.0481207521,8.72740548 0.0742179882,9.00483821 0.284561693,9.11731093 L2.58847642,10.3529324 C2.7976362,10.4657997 2.93615523,10.7463896 2.90931964,10.9819903 C2.83196998,11.6651142 2.8331539,12.3458701 2.90853035,13.0159708 C2.93576059,13.2515716 2.79645228,13.53374 2.58768714,13.6466074 L0.284956334,14.8810449 C0.0754019115,14.9935176 -0.0481207521,15.2721342 0.0177843112,15.5010261 C0.104210712,15.7938498 0.201292422,16.0847003 0.309029441,16.3759455 C0.393087995,16.5981285 0.539499843,16.9544894 0.639738681,17.1699635 C0.767602397,17.4521319 0.904937499,17.7279861 1.05213863,17.9959474 C1.16737383,18.2047126 1.44954221,18.3140282 1.67843405,18.2457553 L4.18006397,17.4900175 C4.40737724,17.4221392 4.70493663,17.5231673 4.85292704,17.7090433 C5.27243053,18.2354946 5.75310339,18.7173514 6.29060456,19.1459317 C6.47569124,19.2951061 6.57869256,19.589903 6.50805181,19.8180056 L5.75349803,22.3212144 C5.68404119,22.5505009 5.7945407,22.8330639 6.00330584,22.9475099 C6.39478981,23.1614054 6.79969158,23.3583313 7.22274683,23.5331573 C7.64422353,23.7071941 8.07043591,23.8551845 8.49822686,23.9826536 C8.72672406,24.0473747 9.00455139,23.925036 9.11781339,23.7146922 L10.3522507,21.4107772 C10.4651181,21.2016174 10.7457079,21.0627037 10.9828872,21.0903286 C11.664827,21.1664944 12.3463722,21.1657051 13.0172621,21.0907233 C13.2528628,21.064677 13.533058,21.2024067 13.64632,21.4115665 L14.8815466,23.7142976 C14.9932301,23.923852 15.2718467,24.0477694 15.5003439,23.9806804 C15.7931676,23.8946486 16.0855966,23.7971722 16.3760525,23.6902245 C16.5994193,23.6073498 16.9549909,23.4593594 17.170465,23.3606991 C17.4534227,23.2312568 17.7269089,23.0935271 17.9952649,22.9463259 C18.20403,22.8322746 18.3133456,22.5493169 18.2450727,22.321609 L17.4897296,19.8195841 C17.422246,19.5914816 17.5232741,19.2947114 17.7083608,19.1463263 C18.2352067,18.7268228 18.7174581,18.2457553 19.146433,17.708254 C19.2940287,17.522378 19.5907988,17.4205606 19.8177175,17.4896228 L22.3221099,18.2445713 C22.5498178,18.3140282 22.8331701,18.2035287 22.9472214,17.9947635 C23.1611169,17.6044634 23.3580428,17.197983 23.5324741,16.7749277 C23.7069055,16.3538456 23.8548959,15.9284225 23.9811811,15.4998422 C24.0470861,15.2709503 23.9259313,14.9927283 23.7155876,14.8810449 L21.4112782,13.6450288 C21.2013292,13.5321614 21.0632048,13.2515716 21.0896457,13.0159708 C21.1658115,12.3336363 21.1654168,11.6516964 21.0908297,10.982385 C21.0639941,10.7456003 21.2025131,10.4642212 21.4128568,10.3517484 Z M16.3239598,13.7902567 C15.3326214,16.1782303 12.5969693,17.3124289 10.2074175,16.3238529 C7.82141738,15.3340929 6.68603494,12.595678 7.67500553,10.2080991 C8.66318684,7.82130942 11.4023907,6.68632148 13.7899693,7.67529219 C16.1779426,8.66505218 17.3121411,11.4026778 16.3239598,13.7902567 Z"/>
      </g>
      <g transform="translate(18)">
        <path d="M17.9473395,8.02596597 C17.9287081,7.85545938 17.7703409,7.70398797 17.5998228,7.68738281 L15.7241238,7.49986606 C15.5532006,7.4828559 15.3834926,7.33421952 15.336104,7.16978798 C15.1983934,6.69471855 15.0096489,6.24070931 14.7755409,5.81505034 C14.6925095,5.66438893 14.7066856,5.43880183 14.815639,5.30596059 L16.0084556,3.84794699 C16.117814,3.71551075 16.1226744,3.4955937 16.0157462,3.36194245 C15.8768205,3.19062585 15.7322244,3.02254928 15.5799327,2.85933276 C15.4628787,2.73337659 15.2664386,2.53775976 15.141689,2.41990366 C14.9780565,2.26802724 14.8103736,2.1238459 14.6378303,1.98573961 C14.5049801,1.87841361 14.2858583,1.88246365 14.1530081,1.99221967 L12.693276,3.1853608 C12.5612359,3.29390182 12.3356335,3.30807695 12.185772,3.22626619 C11.7617045,2.99055399 11.3080696,2.80182222 10.831753,2.66533595 C10.6669054,2.61754551 10.5174489,2.44825393 10.5004376,2.27734233 L10.3133132,0.401364826 C10.2954919,0.230453231 10.1448203,0.0725017576 9.97349213,0.05346658 C9.65392259,0.0194462625 9.32949267,-0.000398922634 9.00020238,6.08114545e-06 C8.6709121,0.000816088704 8.34688721,0.0194462625 8.02610258,0.0538715838 C7.85558448,0.0729067614 7.70410285,0.231263239 7.6879016,0.401364826 L7.49996717,2.27693733 C7.4821458,2.44784892 7.33390442,2.6167355 7.16946179,2.66493095 C6.69355024,2.80101222 6.23951037,2.99136399 5.81422771,3.22586118 C5.66477124,3.30807695 5.43916891,3.29349681 5.30591368,3.1853608 L3.8478017,1.99221967 C3.71454647,1.88367866 3.4962347,1.87841361 3.36257444,1.98533461 C3.19003119,2.1242509 3.02315837,2.26843225 2.85912077,2.42071367 C2.73356113,2.53816476 2.53671601,2.7345916 2.42087712,2.86014277 C2.26737033,3.0237643 2.12317926,3.19062585 1.98465862,3.36356247 C1.87732538,3.49680871 1.88340084,3.71632076 1.99194918,3.84794699 L3.18517081,5.3071756 C3.29331412,5.43961184 3.30830027,5.66519894 3.22445883,5.81505034 C2.99035085,6.2390893 2.80160636,6.69269353 2.66470584,7.16816797 C2.61772223,7.3330045 2.44720414,7.48326091 2.27668604,7.49905605 L0.400986998,7.68778782 C0.230873934,7.70479797 0.0725067724,7.85545938 0.0534703105,8.02596597 C0.0190426666,8.34551395 -0.000398826475,8.66992198 6.20462945e-06,9.00000006 C6.20462945e-06,9.32886313 0.0186376355,9.65327115 0.0538753416,9.97403415 C0.0721017413,10.1445407 0.230063872,10.2956071 0.401392029,10.3122123 L2.27709108,10.5001341 C2.44760917,10.5171442 2.6173172,10.6657806 2.66430081,10.8298071 C2.80120133,11.3069016 2.99035085,11.7596958 3.22486386,12.1857598 C3.30789524,12.3343962 3.29331412,12.5611983 3.18476578,12.6936345 L1.99194918,14.1512431 C1.88380587,14.2836794 1.87813544,14.5035964 1.98465862,14.6380577 C2.12317926,14.8089693 2.26777536,14.9762358 2.42006706,15.1406674 C2.53793111,15.2650035 2.7331561,15.4622404 2.8595258,15.5780714 C3.02234831,15.7307579 3.19003119,15.8765592 3.36176437,16.0142605 C3.4962347,16.1211815 3.71454647,16.1163215 3.8478017,16.0081855 L5.30591368,14.8146393 C5.43835885,14.7065033 5.66477124,14.6927332 5.81422771,14.7745439 C6.23951037,15.0090411 6.69274018,15.1973679 7.16865173,15.3354742 C7.33349939,15.3836696 7.48295587,15.5513412 7.49915711,15.7230628 L7.68749657,17.5978253 C7.70410285,17.7699519 7.85639454,17.9270934 8.02691264,17.9465335 C8.34648218,17.9801489 8.67010203,18.000399 9.00060742,17.999994 C9.32949267,17.999994 9.65392259,17.9805539 9.97389716,17.9473435 C10.1444153,17.9274984 10.2954919,17.7699519 10.3129082,17.5982303 L10.4992225,15.7230628 C10.5170439,15.5529612 10.6660953,15.3828596 10.831348,15.3358792 C11.3064495,15.1989879 11.7604894,15.0106611 12.1865821,14.7753539 C12.3360386,14.6919232 12.5612359,14.7073133 12.6940861,14.8146393 L14.1526031,16.0077804 C14.2846432,16.1163215 14.5041701,16.1223965 14.6382354,16.0142605 C14.8091585,15.8761542 14.9772464,15.7303529 15.141284,15.5788814 C15.2672487,15.4622404 15.4632837,15.2654085 15.5795277,15.1402624 C15.7322244,14.9762358 15.8764155,14.8085643 16.0149361,14.6364377 C16.1226744,14.5027864 16.1165989,14.2844894 16.0084556,14.1516481 L14.815234,12.6936345 C14.7066856,12.5599833 14.6925095,12.3348012 14.7743258,12.1849498 C15.0096489,11.7605058 15.1987984,11.3069016 15.3356989,10.8302121 C15.3830876,10.6661856 15.5523906,10.5163342 15.7225036,10.5001341 L17.5994178,10.3118073 C17.7699359,10.2952021 17.928303,10.1441357 17.9465294,9.97362914 C17.9809571,9.65448617 18.0003986,9.32967314 17.9999935,8.99959506 C18.0003986,8.67113699 17.9817671,8.34591896 17.9473395,8.02596597 Z M8.99939232,12.3748965 C7.13665427,12.3736815 5.62548322,10.8630174 5.62548322,9.00000006 C5.62507819,7.13779268 7.1370593,5.62550857 8.99979735,5.62591358 C10.8637505,5.62591358 12.3745165,7.13657767 12.3749215,9.00000006 C12.3737065,10.8638275 10.8641555,12.3744915 8.99939232,12.3748965 Z"/>
      </g>
    </g>
    <g id="reliable-animejs-attach1" fill="#4A4A4A" fill-rule="nonzero" transform="translate(98 325)">
      <path d="M10,20 C10,14.5 14.5,10 20,10 C25.5,10 30,14.5 30,20 L30,30 L10,30 L10,20 Z M32,32 L8,32 C6.9,32 6,32.9 6,34 C6,35.1 6.9,36 8,36 L32,36 C33.1,36 34,35.1 34,34 C34,32.9 33.1,32 32,32 Z M20,7 C20.6,7 21,6.6 21,6 L21,1 C21,0.4 20.6,0 20,0 C19.4,0 19,0.4 19,1 L19,6 C19,6.6 19.4,7 20,7 Z M30.6,10.8 L34.1,7.3 C34.5,6.9 34.5,6.3 34.1,5.9 C33.701,5.5 33.1,5.5 32.701,5.9 L29.201,9.4 C28.801,9.8 28.801,10.4 29.201,10.8 C29.606,11.206 30.196,11.206 30.6,10.8 Z M39,19 L34,19 C33.4,19 33,19.4 33,20 C33,20.6 33.4,21 34,21 L39,21 C39.6,21 40,20.6 40,20 C40,19.4 39.6,19 39,19 Z M9.4,10.8 C9.796,11.196 10.408,11.193 10.8,10.8 C11.2,10.4 11.2,9.8 10.8,9.4 L7.3,5.9 C6.9,5.5 6.3,5.5 5.9,5.9 C5.5,6.3 5.5,6.9 5.9,7.3 L9.4,10.8 Z M7,20 C7,19.4 6.6,19 6,19 L1,19 C0.4,19 0,19.4 0,20 C0,20.6 0.4,21 1,21 L6,21 C6.6,21 7,20.6 7,20 Z"/>
    </g>
    <g id="reliable-animejs-wait2" fill="#4A4A4A" fill-rule="nonzero" transform="translate(331 325)">
      <path d="M41.6,21.05 C41.65,9.7 32.4,0.45 21.05,0.4 C9.7,0.35 0.45,9.6 0.4,20.95 C0.35,32.3 9.6,41.55 20.95,41.6 C32.3,41.65 41.55,32.4 41.6,21.05 Z M39.15,21.05 C39.1,31.05 30.95,39.15 20.95,39.15 C10.95,39.1 2.85,30.95 2.85,20.95 C2.9,10.95 11.05,2.85 21.05,2.85 C31.05,2.9 39.15,11.05 39.15,21.05 Z"/>
      <path d="M20.65 33.7L21.4 33.7C21.95 33.7 22.4 34.15 22.4 34.7L22.4 36.85C22.4 37.4 21.95 37.85 21.4 37.85L20.65 37.85C20.1 37.85 19.65 37.4 19.65 36.85L19.65 34.7C19.7 34.15 20.15 33.7 20.65 33.7zM29.85 35.45L29.2 35.85C29.05 35.95 28.9 36 28.7 36 28.6 36 28.55 36 28.45 35.95 28.2 35.9 28 35.7 27.85 35.5L26.8 33.65C26.55 33.2 26.7 32.6 27.15 32.3L27.8 31.9C27.95 31.8 28.1 31.75 28.3 31.75 28.4 31.75 28.45 31.75 28.55 31.8 28.8 31.85 29 32.05 29.15 32.25L30.2 34.1C30.5 34.55 30.3 35.15 29.85 35.45zM32.3 27C32.45 26.75 32.65 26.6 32.9 26.55 33 26.55 33.05 26.5 33.15 26.5 33.3 26.5 33.5 26.55 33.65 26.65L35.5 27.75C35.95 28 36.15 28.65 35.85 29.1L35.45 29.75C35.3 30 35.1 30.15 34.85 30.2 34.75 30.2 34.7 30.25 34.6 30.25 34.45 30.25 34.25 30.2 34.1 30.1L32.25 29C31.8 28.75 31.6 28.1 31.9 27.65L32.3 27zM36.85 22.4L34.7 22.4C34.15 22.4 33.7 21.95 33.7 21.4L33.7 20.65C33.7 20.1 34.15 19.65 34.7 19.65L36.85 19.65C37.4 19.65 37.85 20.1 37.85 20.65L37.85 21.4C37.8 22 37.4 22.4 36.85 22.4zM35.6 14.3L33.75 15.35C33.6 15.45 33.4 15.5 33.25 15.5 32.9 15.5 32.6 15.3 32.4 15L32 14.35C31.85 14.1 31.85 13.85 31.9 13.6 31.95 13.35 32.15 13.15 32.35 13L34.2 11.95C34.35 11.85 34.5 11.8 34.7 11.8 34.8 11.8 34.85 11.8 34.95 11.85 35.2 11.9 35.4 12.1 35.55 12.3L35.95 12.95C36.25 13.45 36.1 14.05 35.6 14.3zM29.05 9.95C28.9 10.2 28.7 10.35 28.45 10.4 28.35 10.4 28.3 10.45 28.2 10.45 28.05 10.45 27.85 10.4 27.7 10.3L27.05 9.9C26.6 9.65 26.4 9 26.7 8.55L27.8 6.7C27.95 6.45 28.15 6.3 28.4 6.25 28.5 6.25 28.55 6.2 28.65 6.2 28.8 6.2 29 6.25 29.15 6.35L29.8 6.75C30.25 7 30.45 7.65 30.15 8.1L29.05 9.95zM21.45 8.25L20.7 8.25C20.15 8.25 19.7 7.8 19.7 7.25L19.7 5.1C19.7 4.55 20.15 4.1 20.7 4.1L21.45 4.1C22 4.1 22.45 4.55 22.45 5.1L22.45 7.25C22.45 7.8 22 8.25 21.45 8.25zM15 9.6L14.35 10C14.2 10.1 14.05 10.15 13.85 10.15 13.75 10.15 13.7 10.15 13.6 10.1 13.35 10.05 13.15 9.85 13 9.65L11.95 7.8C11.7 7.35 11.85 6.75 12.3 6.45L12.95 6.05C13.1 5.95 13.25 5.9 13.45 5.9 13.55 5.9 13.6 5.9 13.7 5.95 13.95 6 14.15 6.2 14.3 6.4L15.35 8.25C15.65 8.75 15.45 9.35 15 9.6zM9.85 15.05C9.65 15.35 9.35 15.55 9 15.55 8.85 15.55 8.65 15.5 8.5 15.4L6.65 14.3C6.4 14.15 6.25 13.95 6.2 13.7 6.15 13.45 6.15 13.2 6.3 12.95L6.7 12.3C6.9 12 7.2 11.8 7.55 11.8 7.7 11.8 7.9 11.85 8.05 11.95L9.9 13.05C10.15 13.2 10.3 13.4 10.35 13.65 10.4 13.9 10.4 14.15 10.25 14.4L9.85 15.05zM8.3 20.5L8.3 21.25C8.3 21.8 7.85 22.25 7.3 22.25L5.15 22.25C4.6 22.25 4.15 21.8 4.15 21.25L4.15 20.5C4.15 19.95 4.6 19.5 5.15 19.5L7.3 19.5C7.85 19.5 8.3 19.95 8.3 20.5zM6.45 27.85L8.3 26.8C8.45 26.7 8.6 26.65 8.8 26.65 9.15 26.65 9.45 26.85 9.65 27.15L10.05 27.8C10.2 28.05 10.2 28.3 10.15 28.55 10.1 28.8 9.9 29 9.7 29.15L7.85 30.2C7.7 30.3 7.5 30.35 7.35 30.35 7 30.35 6.7 30.15 6.5 29.85L6.1 29.2C5.95 28.95 5.95 28.7 6 28.45 6.05 28.15 6.25 27.95 6.45 27.85zM12.85 32.25C13 32 13.2 31.85 13.45 31.8 13.55 31.8 13.6 31.75 13.7 31.75 13.85 31.75 14.05 31.8 14.2 31.9L14.85 32.3C15.3 32.55 15.5 33.2 15.2 33.65L14.1 35.5C13.9 35.8 13.6 36 13.25 36 13.1 36 12.9 35.95 12.75 35.85L12.1 35.5C11.85 35.35 11.7 35.15 11.65 34.9 11.6 34.65 11.6 34.4 11.75 34.15L12.85 32.25z"/>
      <path d="M19.8341797,15.6001953 L25.3841797,18.8001953 C25.5841797,18.9501953 25.7841797,19.1501953 25.8341797,19.4001953 C25.8841797,19.6501953 25.8841797,19.9001953 25.7341797,20.1501953 L25.3341797,20.8001953 C25.1341797,21.1001953 24.8341797,21.3001953 24.4841797,21.3001953 C24.3341797,21.3001953 24.1341797,21.2501953 23.9841797,21.1501953 L18.4841797,17.9501953 L14.3841797,25.0501953 C14.2341797,25.3001953 14.0341797,25.4501953 13.7841797,25.5001953 C13.6841797,25.5001953 13.6341797,25.5501953 13.5341797,25.5501953 C13.3841797,25.5501953 13.1841797,25.5001953 13.0341797,25.4001953 L12.3841797,25.0001953 C11.9341797,24.7501953 11.7341797,24.1001953 12.0341797,23.6501953 L16.0341797,16.7501953 C15.9841797,16.6501953 15.9341797,16.5501953 15.9341797,16.4501953 L14.9841797,15.9001953 C14.5341797,15.6501953 14.3341797,15.0001953 14.6341797,14.5501953 L15.0341797,13.9001953 C15.1841797,13.6501953 15.3841797,13.5001953 15.6341797,13.4501953 C15.7341797,13.4501953 15.7841797,13.4001953 15.8841797,13.4001953 C16.0341797,13.4001953 16.2341797,13.4501953 16.3841797,13.5501953 L17.2841797,14.1001953 C17.3841797,14.0501953 17.5341797,14.0501953 17.6341797,14.0501953 L18.2841797,12.9501953 C18.4341797,12.7001953 18.6341797,12.5501953 18.8841797,12.5001953 C18.9841797,12.5001953 19.0341797,12.4501953 19.1341797,12.4501953 C19.2841797,12.4501953 19.4841797,12.5001953 19.6341797,12.6001953 L20.2841797,13.0001953 C20.7341797,13.2501953 20.9341797,13.9001953 20.6341797,14.3501953 L19.8341797,15.6001953 Z" transform="rotate(150 18.878 19)"/>
    </g>
    <g id="reliable-animejs-run2" fill="#4A4A4A" fill-rule="nonzero" transform="translate(334 328)">
      <g transform="translate(0 12)">
        <path d="M21.4128568,10.3517484 L23.715193,9.11612701 C23.9255367,9.00483821 24.04827,8.72543228 23.9819703,8.4973297 C23.8947547,8.20490061 23.7988569,7.91207688 23.6903306,7.62201564 C23.6070613,7.39864875 23.4594655,7.04268244 23.3615945,6.82641909 C23.2329415,6.54464531 23.0944225,6.26997508 22.9472214,6.0016191 C22.8335647,5.79403785 22.5506071,5.68314369 22.3217152,5.75299518 L19.8189014,6.50754904 C19.5919828,6.5762166 19.294818,6.47479383 19.1468276,6.28970713 C18.7277188,5.7628612 18.2462566,5.28021508 17.7091501,4.85242408 C17.5236688,4.70364437 17.4214567,4.40766351 17.4905189,4.17956093 L18.2462566,1.67714143 C18.3149242,1.44864421 18.2052139,1.16568651 17.9960542,1.05084594 C17.6049648,0.837345076 17.1988791,0.639629863 16.7774025,0.465593118 C16.3559258,0.291951014 15.9297134,0.143960585 15.5007385,0.0180700595 C15.2718467,-0.0482296528 14.9940193,0.0741091021 14.8819413,0.28366355 L13.64632,2.58797319 C13.5326633,2.79752764 13.2524682,2.93486276 13.0168674,2.90881645 C12.3341383,2.83146678 11.6521985,2.83383463 10.9832819,2.9084218 C10.7472865,2.93486276 10.466302,2.79594908 10.3534347,2.58718391 L9.11781339,0.284058191 C9.00455139,0.0745037432 8.72790798,-0.0482296528 8.49941079,0.0180700595 C8.20579781,0.103707188 7.91494732,0.199999627 7.62370219,0.308525942 C7.40151925,0.392189865 7.0447637,0.538996371 6.82850038,0.638051298 C6.54593735,0.766704311 6.27166179,0.90403943 6.00251656,1.0524245 C5.79493534,1.16647579 5.68522512,1.44982813 5.75468195,1.67674679 L6.50884109,4.17995557 C6.57790328,4.40687423 6.47648052,4.70443365 6.28981528,4.85202944 C5.76454798,5.27153298 5.28150727,5.75220589 4.85411097,6.28970713 C4.70651519,6.47597775 4.40816652,6.57740053 4.18085325,6.50794369 L1.67803941,5.75299518 C1.44993686,5.6851169 1.16697919,5.79403785 1.05253327,6.00280302 C0.838637795,6.39389239 0.641317246,6.79958349 0.466885881,7.22184952 C0.292454515,7.64411554 0.143674821,8.06914405 0.0189682345,8.49851362 C-0.0481207521,8.72740548 0.0742179882,9.00483821 0.284561693,9.11731093 L2.58847642,10.3529324 C2.7976362,10.4657997 2.93615523,10.7463896 2.90931964,10.9819903 C2.83196998,11.6651142 2.8331539,12.3458701 2.90853035,13.0159708 C2.93576059,13.2515716 2.79645228,13.53374 2.58768714,13.6466074 L0.284956334,14.8810449 C0.0754019115,14.9935176 -0.0481207521,15.2721342 0.0177843112,15.5010261 C0.104210712,15.7938498 0.201292422,16.0847003 0.309029441,16.3759455 C0.393087995,16.5981285 0.539499843,16.9544894 0.639738681,17.1699635 C0.767602397,17.4521319 0.904937499,17.7279861 1.05213863,17.9959474 C1.16737383,18.2047126 1.44954221,18.3140282 1.67843405,18.2457553 L4.18006397,17.4900175 C4.40737724,17.4221392 4.70493663,17.5231673 4.85292704,17.7090433 C5.27243053,18.2354946 5.75310339,18.7173514 6.29060456,19.1459317 C6.47569124,19.2951061 6.57869256,19.589903 6.50805181,19.8180056 L5.75349803,22.3212144 C5.68404119,22.5505009 5.7945407,22.8330639 6.00330584,22.9475099 C6.39478981,23.1614054 6.79969158,23.3583313 7.22274683,23.5331573 C7.64422353,23.7071941 8.07043591,23.8551845 8.49822686,23.9826536 C8.72672406,24.0473747 9.00455139,23.925036 9.11781339,23.7146922 L10.3522507,21.4107772 C10.4651181,21.2016174 10.7457079,21.0627037 10.9828872,21.0903286 C11.664827,21.1664944 12.3463722,21.1657051 13.0172621,21.0907233 C13.2528628,21.064677 13.533058,21.2024067 13.64632,21.4115665 L14.8815466,23.7142976 C14.9932301,23.923852 15.2718467,24.0477694 15.5003439,23.9806804 C15.7931676,23.8946486 16.0855966,23.7971722 16.3760525,23.6902245 C16.5994193,23.6073498 16.9549909,23.4593594 17.170465,23.3606991 C17.4534227,23.2312568 17.7269089,23.0935271 17.9952649,22.9463259 C18.20403,22.8322746 18.3133456,22.5493169 18.2450727,22.321609 L17.4897296,19.8195841 C17.422246,19.5914816 17.5232741,19.2947114 17.7083608,19.1463263 C18.2352067,18.7268228 18.7174581,18.2457553 19.146433,17.708254 C19.2940287,17.522378 19.5907988,17.4205606 19.8177175,17.4896228 L22.3221099,18.2445713 C22.5498178,18.3140282 22.8331701,18.2035287 22.9472214,17.9947635 C23.1611169,17.6044634 23.3580428,17.197983 23.5324741,16.7749277 C23.7069055,16.3538456 23.8548959,15.9284225 23.9811811,15.4998422 C24.0470861,15.2709503 23.9259313,14.9927283 23.7155876,14.8810449 L21.4112782,13.6450288 C21.2013292,13.5321614 21.0632048,13.2515716 21.0896457,13.0159708 C21.1658115,12.3336363 21.1654168,11.6516964 21.0908297,10.982385 C21.0639941,10.7456003 21.2025131,10.4642212 21.4128568,10.3517484 Z M16.3239598,13.7902567 C15.3326214,16.1782303 12.5969693,17.3124289 10.2074175,16.3238529 C7.82141738,15.3340929 6.68603494,12.595678 7.67500553,10.2080991 C8.66318684,7.82130942 11.4023907,6.68632148 13.7899693,7.67529219 C16.1779426,8.66505218 17.3121411,11.4026778 16.3239598,13.7902567 Z"/>
      </g>
      <g transform="translate(18)">
        <path d="M17.9473395,8.02596597 C17.9287081,7.85545938 17.7703409,7.70398797 17.5998228,7.68738281 L15.7241238,7.49986606 C15.5532006,7.4828559 15.3834926,7.33421952 15.336104,7.16978798 C15.1983934,6.69471855 15.0096489,6.24070931 14.7755409,5.81505034 C14.6925095,5.66438893 14.7066856,5.43880183 14.815639,5.30596059 L16.0084556,3.84794699 C16.117814,3.71551075 16.1226744,3.4955937 16.0157462,3.36194245 C15.8768205,3.19062585 15.7322244,3.02254928 15.5799327,2.85933276 C15.4628787,2.73337659 15.2664386,2.53775976 15.141689,2.41990366 C14.9780565,2.26802724 14.8103736,2.1238459 14.6378303,1.98573961 C14.5049801,1.87841361 14.2858583,1.88246365 14.1530081,1.99221967 L12.693276,3.1853608 C12.5612359,3.29390182 12.3356335,3.30807695 12.185772,3.22626619 C11.7617045,2.99055399 11.3080696,2.80182222 10.831753,2.66533595 C10.6669054,2.61754551 10.5174489,2.44825393 10.5004376,2.27734233 L10.3133132,0.401364826 C10.2954919,0.230453231 10.1448203,0.0725017576 9.97349213,0.05346658 C9.65392259,0.0194462625 9.32949267,-0.000398922634 9.00020238,6.08114545e-06 C8.6709121,0.000816088704 8.34688721,0.0194462625 8.02610258,0.0538715838 C7.85558448,0.0729067614 7.70410285,0.231263239 7.6879016,0.401364826 L7.49996717,2.27693733 C7.4821458,2.44784892 7.33390442,2.6167355 7.16946179,2.66493095 C6.69355024,2.80101222 6.23951037,2.99136399 5.81422771,3.22586118 C5.66477124,3.30807695 5.43916891,3.29349681 5.30591368,3.1853608 L3.8478017,1.99221967 C3.71454647,1.88367866 3.4962347,1.87841361 3.36257444,1.98533461 C3.19003119,2.1242509 3.02315837,2.26843225 2.85912077,2.42071367 C2.73356113,2.53816476 2.53671601,2.7345916 2.42087712,2.86014277 C2.26737033,3.0237643 2.12317926,3.19062585 1.98465862,3.36356247 C1.87732538,3.49680871 1.88340084,3.71632076 1.99194918,3.84794699 L3.18517081,5.3071756 C3.29331412,5.43961184 3.30830027,5.66519894 3.22445883,5.81505034 C2.99035085,6.2390893 2.80160636,6.69269353 2.66470584,7.16816797 C2.61772223,7.3330045 2.44720414,7.48326091 2.27668604,7.49905605 L0.400986998,7.68778782 C0.230873934,7.70479797 0.0725067724,7.85545938 0.0534703105,8.02596597 C0.0190426666,8.34551395 -0.000398826475,8.66992198 6.20462945e-06,9.00000006 C6.20462945e-06,9.32886313 0.0186376355,9.65327115 0.0538753416,9.97403415 C0.0721017413,10.1445407 0.230063872,10.2956071 0.401392029,10.3122123 L2.27709108,10.5001341 C2.44760917,10.5171442 2.6173172,10.6657806 2.66430081,10.8298071 C2.80120133,11.3069016 2.99035085,11.7596958 3.22486386,12.1857598 C3.30789524,12.3343962 3.29331412,12.5611983 3.18476578,12.6936345 L1.99194918,14.1512431 C1.88380587,14.2836794 1.87813544,14.5035964 1.98465862,14.6380577 C2.12317926,14.8089693 2.26777536,14.9762358 2.42006706,15.1406674 C2.53793111,15.2650035 2.7331561,15.4622404 2.8595258,15.5780714 C3.02234831,15.7307579 3.19003119,15.8765592 3.36176437,16.0142605 C3.4962347,16.1211815 3.71454647,16.1163215 3.8478017,16.0081855 L5.30591368,14.8146393 C5.43835885,14.7065033 5.66477124,14.6927332 5.81422771,14.7745439 C6.23951037,15.0090411 6.69274018,15.1973679 7.16865173,15.3354742 C7.33349939,15.3836696 7.48295587,15.5513412 7.49915711,15.7230628 L7.68749657,17.5978253 C7.70410285,17.7699519 7.85639454,17.9270934 8.02691264,17.9465335 C8.34648218,17.9801489 8.67010203,18.000399 9.00060742,17.999994 C9.32949267,17.999994 9.65392259,17.9805539 9.97389716,17.9473435 C10.1444153,17.9274984 10.2954919,17.7699519 10.3129082,17.5982303 L10.4992225,15.7230628 C10.5170439,15.5529612 10.6660953,15.3828596 10.831348,15.3358792 C11.3064495,15.1989879 11.7604894,15.0106611 12.1865821,14.7753539 C12.3360386,14.6919232 12.5612359,14.7073133 12.6940861,14.8146393 L14.1526031,16.0077804 C14.2846432,16.1163215 14.5041701,16.1223965 14.6382354,16.0142605 C14.8091585,15.8761542 14.9772464,15.7303529 15.141284,15.5788814 C15.2672487,15.4622404 15.4632837,15.2654085 15.5795277,15.1402624 C15.7322244,14.9762358 15.8764155,14.8085643 16.0149361,14.6364377 C16.1226744,14.5027864 16.1165989,14.2844894 16.0084556,14.1516481 L14.815234,12.6936345 C14.7066856,12.5599833 14.6925095,12.3348012 14.7743258,12.1849498 C15.0096489,11.7605058 15.1987984,11.3069016 15.3356989,10.8302121 C15.3830876,10.6661856 15.5523906,10.5163342 15.7225036,10.5001341 L17.5994178,10.3118073 C17.7699359,10.2952021 17.928303,10.1441357 17.9465294,9.97362914 C17.9809571,9.65448617 18.0003986,9.32967314 17.9999935,8.99959506 C18.0003986,8.67113699 17.9817671,8.34591896 17.9473395,8.02596597 Z M8.99939232,12.3748965 C7.13665427,12.3736815 5.62548322,10.8630174 5.62548322,9.00000006 C5.62507819,7.13779268 7.1370593,5.62550857 8.99979735,5.62591358 C10.8637505,5.62591358 12.3745165,7.13657767 12.3749215,9.00000006 C12.3737065,10.8638275 10.8641555,12.3744915 8.99939232,12.3748965 Z"/>
      </g>
    </g>
    <g id="reliable-animejs-attach2" fill="#4A4A4A" fill-rule="nonzero" transform="translate(332 325)">
      <path d="M10,20 C10,14.5 14.5,10 20,10 C25.5,10 30,14.5 30,20 L30,30 L10,30 L10,20 Z M32,32 L8,32 C6.9,32 6,32.9 6,34 C6,35.1 6.9,36 8,36 L32,36 C33.1,36 34,35.1 34,34 C34,32.9 33.1,32 32,32 Z M20,7 C20.6,7 21,6.6 21,6 L21,1 C21,0.4 20.6,0 20,0 C19.4,0 19,0.4 19,1 L19,6 C19,6.6 19.4,7 20,7 Z M30.6,10.8 L34.1,7.3 C34.5,6.9 34.5,6.3 34.1,5.9 C33.701,5.5 33.1,5.5 32.701,5.9 L29.201,9.4 C28.801,9.8 28.801,10.4 29.201,10.8 C29.606,11.206 30.196,11.206 30.6,10.8 Z M39,19 L34,19 C33.4,19 33,19.4 33,20 C33,20.6 33.4,21 34,21 L39,21 C39.6,21 40,20.6 40,20 C40,19.4 39.6,19 39,19 Z M9.4,10.8 C9.796,11.196 10.408,11.193 10.8,10.8 C11.2,10.4 11.2,9.8 10.8,9.4 L7.3,5.9 C6.9,5.5 6.3,5.5 5.9,5.9 C5.5,6.3 5.5,6.9 5.9,7.3 L9.4,10.8 Z M7,20 C7,19.4 6.6,19 6,19 L1,19 C0.4,19 0,19.4 0,20 C0,20.6 0.4,21 1,21 L6,21 C6.6,21 7,20.6 7,20 Z"/>
    </g>
    <g id="reliable-animejs-wait3" fill="#4A4A4A" fill-rule="nonzero" transform="translate(565 325)">
      <path d="M41.6,21.05 C41.65,9.7 32.4,0.45 21.05,0.4 C9.7,0.35 0.45,9.6 0.4,20.95 C0.35,32.3 9.6,41.55 20.95,41.6 C32.3,41.65 41.55,32.4 41.6,21.05 Z M39.15,21.05 C39.1,31.05 30.95,39.15 20.95,39.15 C10.95,39.1 2.85,30.95 2.85,20.95 C2.9,10.95 11.05,2.85 21.05,2.85 C31.05,2.9 39.15,11.05 39.15,21.05 Z"/>
      <path d="M20.65 33.7L21.4 33.7C21.95 33.7 22.4 34.15 22.4 34.7L22.4 36.85C22.4 37.4 21.95 37.85 21.4 37.85L20.65 37.85C20.1 37.85 19.65 37.4 19.65 36.85L19.65 34.7C19.7 34.15 20.15 33.7 20.65 33.7zM29.85 35.45L29.2 35.85C29.05 35.95 28.9 36 28.7 36 28.6 36 28.55 36 28.45 35.95 28.2 35.9 28 35.7 27.85 35.5L26.8 33.65C26.55 33.2 26.7 32.6 27.15 32.3L27.8 31.9C27.95 31.8 28.1 31.75 28.3 31.75 28.4 31.75 28.45 31.75 28.55 31.8 28.8 31.85 29 32.05 29.15 32.25L30.2 34.1C30.5 34.55 30.3 35.15 29.85 35.45zM32.3 27C32.45 26.75 32.65 26.6 32.9 26.55 33 26.55 33.05 26.5 33.15 26.5 33.3 26.5 33.5 26.55 33.65 26.65L35.5 27.75C35.95 28 36.15 28.65 35.85 29.1L35.45 29.75C35.3 30 35.1 30.15 34.85 30.2 34.75 30.2 34.7 30.25 34.6 30.25 34.45 30.25 34.25 30.2 34.1 30.1L32.25 29C31.8 28.75 31.6 28.1 31.9 27.65L32.3 27zM36.85 22.4L34.7 22.4C34.15 22.4 33.7 21.95 33.7 21.4L33.7 20.65C33.7 20.1 34.15 19.65 34.7 19.65L36.85 19.65C37.4 19.65 37.85 20.1 37.85 20.65L37.85 21.4C37.8 22 37.4 22.4 36.85 22.4zM35.6 14.3L33.75 15.35C33.6 15.45 33.4 15.5 33.25 15.5 32.9 15.5 32.6 15.3 32.4 15L32 14.35C31.85 14.1 31.85 13.85 31.9 13.6 31.95 13.35 32.15 13.15 32.35 13L34.2 11.95C34.35 11.85 34.5 11.8 34.7 11.8 34.8 11.8 34.85 11.8 34.95 11.85 35.2 11.9 35.4 12.1 35.55 12.3L35.95 12.95C36.25 13.45 36.1 14.05 35.6 14.3zM29.05 9.95C28.9 10.2 28.7 10.35 28.45 10.4 28.35 10.4 28.3 10.45 28.2 10.45 28.05 10.45 27.85 10.4 27.7 10.3L27.05 9.9C26.6 9.65 26.4 9 26.7 8.55L27.8 6.7C27.95 6.45 28.15 6.3 28.4 6.25 28.5 6.25 28.55 6.2 28.65 6.2 28.8 6.2 29 6.25 29.15 6.35L29.8 6.75C30.25 7 30.45 7.65 30.15 8.1L29.05 9.95zM21.45 8.25L20.7 8.25C20.15 8.25 19.7 7.8 19.7 7.25L19.7 5.1C19.7 4.55 20.15 4.1 20.7 4.1L21.45 4.1C22 4.1 22.45 4.55 22.45 5.1L22.45 7.25C22.45 7.8 22 8.25 21.45 8.25zM15 9.6L14.35 10C14.2 10.1 14.05 10.15 13.85 10.15 13.75 10.15 13.7 10.15 13.6 10.1 13.35 10.05 13.15 9.85 13 9.65L11.95 7.8C11.7 7.35 11.85 6.75 12.3 6.45L12.95 6.05C13.1 5.95 13.25 5.9 13.45 5.9 13.55 5.9 13.6 5.9 13.7 5.95 13.95 6 14.15 6.2 14.3 6.4L15.35 8.25C15.65 8.75 15.45 9.35 15 9.6zM9.85 15.05C9.65 15.35 9.35 15.55 9 15.55 8.85 15.55 8.65 15.5 8.5 15.4L6.65 14.3C6.4 14.15 6.25 13.95 6.2 13.7 6.15 13.45 6.15 13.2 6.3 12.95L6.7 12.3C6.9 12 7.2 11.8 7.55 11.8 7.7 11.8 7.9 11.85 8.05 11.95L9.9 13.05C10.15 13.2 10.3 13.4 10.35 13.65 10.4 13.9 10.4 14.15 10.25 14.4L9.85 15.05zM8.3 20.5L8.3 21.25C8.3 21.8 7.85 22.25 7.3 22.25L5.15 22.25C4.6 22.25 4.15 21.8 4.15 21.25L4.15 20.5C4.15 19.95 4.6 19.5 5.15 19.5L7.3 19.5C7.85 19.5 8.3 19.95 8.3 20.5zM6.45 27.85L8.3 26.8C8.45 26.7 8.6 26.65 8.8 26.65 9.15 26.65 9.45 26.85 9.65 27.15L10.05 27.8C10.2 28.05 10.2 28.3 10.15 28.55 10.1 28.8 9.9 29 9.7 29.15L7.85 30.2C7.7 30.3 7.5 30.35 7.35 30.35 7 30.35 6.7 30.15 6.5 29.85L6.1 29.2C5.95 28.95 5.95 28.7 6 28.45 6.05 28.15 6.25 27.95 6.45 27.85zM12.85 32.25C13 32 13.2 31.85 13.45 31.8 13.55 31.8 13.6 31.75 13.7 31.75 13.85 31.75 14.05 31.8 14.2 31.9L14.85 32.3C15.3 32.55 15.5 33.2 15.2 33.65L14.1 35.5C13.9 35.8 13.6 36 13.25 36 13.1 36 12.9 35.95 12.75 35.85L12.1 35.5C11.85 35.35 11.7 35.15 11.65 34.9 11.6 34.65 11.6 34.4 11.75 34.15L12.85 32.25z"/>
      <path d="M19.8341797,15.6001953 L25.3841797,18.8001953 C25.5841797,18.9501953 25.7841797,19.1501953 25.8341797,19.4001953 C25.8841797,19.6501953 25.8841797,19.9001953 25.7341797,20.1501953 L25.3341797,20.8001953 C25.1341797,21.1001953 24.8341797,21.3001953 24.4841797,21.3001953 C24.3341797,21.3001953 24.1341797,21.2501953 23.9841797,21.1501953 L18.4841797,17.9501953 L14.3841797,25.0501953 C14.2341797,25.3001953 14.0341797,25.4501953 13.7841797,25.5001953 C13.6841797,25.5001953 13.6341797,25.5501953 13.5341797,25.5501953 C13.3841797,25.5501953 13.1841797,25.5001953 13.0341797,25.4001953 L12.3841797,25.0001953 C11.9341797,24.7501953 11.7341797,24.1001953 12.0341797,23.6501953 L16.0341797,16.7501953 C15.9841797,16.6501953 15.9341797,16.5501953 15.9341797,16.4501953 L14.9841797,15.9001953 C14.5341797,15.6501953 14.3341797,15.0001953 14.6341797,14.5501953 L15.0341797,13.9001953 C15.1841797,13.6501953 15.3841797,13.5001953 15.6341797,13.4501953 C15.7341797,13.4501953 15.7841797,13.4001953 15.8841797,13.4001953 C16.0341797,13.4001953 16.2341797,13.4501953 16.3841797,13.5501953 L17.2841797,14.1001953 C17.3841797,14.0501953 17.5341797,14.0501953 17.6341797,14.0501953 L18.2841797,12.9501953 C18.4341797,12.7001953 18.6341797,12.5501953 18.8841797,12.5001953 C18.9841797,12.5001953 19.0341797,12.4501953 19.1341797,12.4501953 C19.2841797,12.4501953 19.4841797,12.5001953 19.6341797,12.6001953 L20.2841797,13.0001953 C20.7341797,13.2501953 20.9341797,13.9001953 20.6341797,14.3501953 L19.8341797,15.6001953 Z" transform="rotate(150 18.878 19)"/>
    </g>
    <g id="reliable-animejs-run3" fill="#4A4A4A" fill-rule="nonzero" transform="translate(568 328)">
      <g transform="translate(0 12)">
        <path d="M21.4128568,10.3517484 L23.715193,9.11612701 C23.9255367,9.00483821 24.04827,8.72543228 23.9819703,8.4973297 C23.8947547,8.20490061 23.7988569,7.91207688 23.6903306,7.62201564 C23.6070613,7.39864875 23.4594655,7.04268244 23.3615945,6.82641909 C23.2329415,6.54464531 23.0944225,6.26997508 22.9472214,6.0016191 C22.8335647,5.79403785 22.5506071,5.68314369 22.3217152,5.75299518 L19.8189014,6.50754904 C19.5919828,6.5762166 19.294818,6.47479383 19.1468276,6.28970713 C18.7277188,5.7628612 18.2462566,5.28021508 17.7091501,4.85242408 C17.5236688,4.70364437 17.4214567,4.40766351 17.4905189,4.17956093 L18.2462566,1.67714143 C18.3149242,1.44864421 18.2052139,1.16568651 17.9960542,1.05084594 C17.6049648,0.837345076 17.1988791,0.639629863 16.7774025,0.465593118 C16.3559258,0.291951014 15.9297134,0.143960585 15.5007385,0.0180700595 C15.2718467,-0.0482296528 14.9940193,0.0741091021 14.8819413,0.28366355 L13.64632,2.58797319 C13.5326633,2.79752764 13.2524682,2.93486276 13.0168674,2.90881645 C12.3341383,2.83146678 11.6521985,2.83383463 10.9832819,2.9084218 C10.7472865,2.93486276 10.466302,2.79594908 10.3534347,2.58718391 L9.11781339,0.284058191 C9.00455139,0.0745037432 8.72790798,-0.0482296528 8.49941079,0.0180700595 C8.20579781,0.103707188 7.91494732,0.199999627 7.62370219,0.308525942 C7.40151925,0.392189865 7.0447637,0.538996371 6.82850038,0.638051298 C6.54593735,0.766704311 6.27166179,0.90403943 6.00251656,1.0524245 C5.79493534,1.16647579 5.68522512,1.44982813 5.75468195,1.67674679 L6.50884109,4.17995557 C6.57790328,4.40687423 6.47648052,4.70443365 6.28981528,4.85202944 C5.76454798,5.27153298 5.28150727,5.75220589 4.85411097,6.28970713 C4.70651519,6.47597775 4.40816652,6.57740053 4.18085325,6.50794369 L1.67803941,5.75299518 C1.44993686,5.6851169 1.16697919,5.79403785 1.05253327,6.00280302 C0.838637795,6.39389239 0.641317246,6.79958349 0.466885881,7.22184952 C0.292454515,7.64411554 0.143674821,8.06914405 0.0189682345,8.49851362 C-0.0481207521,8.72740548 0.0742179882,9.00483821 0.284561693,9.11731093 L2.58847642,10.3529324 C2.7976362,10.4657997 2.93615523,10.7463896 2.90931964,10.9819903 C2.83196998,11.6651142 2.8331539,12.3458701 2.90853035,13.0159708 C2.93576059,13.2515716 2.79645228,13.53374 2.58768714,13.6466074 L0.284956334,14.8810449 C0.0754019115,14.9935176 -0.0481207521,15.2721342 0.0177843112,15.5010261 C0.104210712,15.7938498 0.201292422,16.0847003 0.309029441,16.3759455 C0.393087995,16.5981285 0.539499843,16.9544894 0.639738681,17.1699635 C0.767602397,17.4521319 0.904937499,17.7279861 1.05213863,17.9959474 C1.16737383,18.2047126 1.44954221,18.3140282 1.67843405,18.2457553 L4.18006397,17.4900175 C4.40737724,17.4221392 4.70493663,17.5231673 4.85292704,17.7090433 C5.27243053,18.2354946 5.75310339,18.7173514 6.29060456,19.1459317 C6.47569124,19.2951061 6.57869256,19.589903 6.50805181,19.8180056 L5.75349803,22.3212144 C5.68404119,22.5505009 5.7945407,22.8330639 6.00330584,22.9475099 C6.39478981,23.1614054 6.79969158,23.3583313 7.22274683,23.5331573 C7.64422353,23.7071941 8.07043591,23.8551845 8.49822686,23.9826536 C8.72672406,24.0473747 9.00455139,23.925036 9.11781339,23.7146922 L10.3522507,21.4107772 C10.4651181,21.2016174 10.7457079,21.0627037 10.9828872,21.0903286 C11.664827,21.1664944 12.3463722,21.1657051 13.0172621,21.0907233 C13.2528628,21.064677 13.533058,21.2024067 13.64632,21.4115665 L14.8815466,23.7142976 C14.9932301,23.923852 15.2718467,24.0477694 15.5003439,23.9806804 C15.7931676,23.8946486 16.0855966,23.7971722 16.3760525,23.6902245 C16.5994193,23.6073498 16.9549909,23.4593594 17.170465,23.3606991 C17.4534227,23.2312568 17.7269089,23.0935271 17.9952649,22.9463259 C18.20403,22.8322746 18.3133456,22.5493169 18.2450727,22.321609 L17.4897296,19.8195841 C17.422246,19.5914816 17.5232741,19.2947114 17.7083608,19.1463263 C18.2352067,18.7268228 18.7174581,18.2457553 19.146433,17.708254 C19.2940287,17.522378 19.5907988,17.4205606 19.8177175,17.4896228 L22.3221099,18.2445713 C22.5498178,18.3140282 22.8331701,18.2035287 22.9472214,17.9947635 C23.1611169,17.6044634 23.3580428,17.197983 23.5324741,16.7749277 C23.7069055,16.3538456 23.8548959,15.9284225 23.9811811,15.4998422 C24.0470861,15.2709503 23.9259313,14.9927283 23.7155876,14.8810449 L21.4112782,13.6450288 C21.2013292,13.5321614 21.0632048,13.2515716 21.0896457,13.0159708 C21.1658115,12.3336363 21.1654168,11.6516964 21.0908297,10.982385 C21.0639941,10.7456003 21.2025131,10.4642212 21.4128568,10.3517484 Z M16.3239598,13.7902567 C15.3326214,16.1782303 12.5969693,17.3124289 10.2074175,16.3238529 C7.82141738,15.3340929 6.68603494,12.595678 7.67500553,10.2080991 C8.66318684,7.82130942 11.4023907,6.68632148 13.7899693,7.67529219 C16.1779426,8.66505218 17.3121411,11.4026778 16.3239598,13.7902567 Z"/>
      </g>
      <g transform="translate(18)">
        <path d="M17.9473395,8.02596597 C17.9287081,7.85545938 17.7703409,7.70398797 17.5998228,7.68738281 L15.7241238,7.49986606 C15.5532006,7.4828559 15.3834926,7.33421952 15.336104,7.16978798 C15.1983934,6.69471855 15.0096489,6.24070931 14.7755409,5.81505034 C14.6925095,5.66438893 14.7066856,5.43880183 14.815639,5.30596059 L16.0084556,3.84794699 C16.117814,3.71551075 16.1226744,3.4955937 16.0157462,3.36194245 C15.8768205,3.19062585 15.7322244,3.02254928 15.5799327,2.85933276 C15.4628787,2.73337659 15.2664386,2.53775976 15.141689,2.41990366 C14.9780565,2.26802724 14.8103736,2.1238459 14.6378303,1.98573961 C14.5049801,1.87841361 14.2858583,1.88246365 14.1530081,1.99221967 L12.693276,3.1853608 C12.5612359,3.29390182 12.3356335,3.30807695 12.185772,3.22626619 C11.7617045,2.99055399 11.3080696,2.80182222 10.831753,2.66533595 C10.6669054,2.61754551 10.5174489,2.44825393 10.5004376,2.27734233 L10.3133132,0.401364826 C10.2954919,0.230453231 10.1448203,0.0725017576 9.97349213,0.05346658 C9.65392259,0.0194462625 9.32949267,-0.000398922634 9.00020238,6.08114545e-06 C8.6709121,0.000816088704 8.34688721,0.0194462625 8.02610258,0.0538715838 C7.85558448,0.0729067614 7.70410285,0.231263239 7.6879016,0.401364826 L7.49996717,2.27693733 C7.4821458,2.44784892 7.33390442,2.6167355 7.16946179,2.66493095 C6.69355024,2.80101222 6.23951037,2.99136399 5.81422771,3.22586118 C5.66477124,3.30807695 5.43916891,3.29349681 5.30591368,3.1853608 L3.8478017,1.99221967 C3.71454647,1.88367866 3.4962347,1.87841361 3.36257444,1.98533461 C3.19003119,2.1242509 3.02315837,2.26843225 2.85912077,2.42071367 C2.73356113,2.53816476 2.53671601,2.7345916 2.42087712,2.86014277 C2.26737033,3.0237643 2.12317926,3.19062585 1.98465862,3.36356247 C1.87732538,3.49680871 1.88340084,3.71632076 1.99194918,3.84794699 L3.18517081,5.3071756 C3.29331412,5.43961184 3.30830027,5.66519894 3.22445883,5.81505034 C2.99035085,6.2390893 2.80160636,6.69269353 2.66470584,7.16816797 C2.61772223,7.3330045 2.44720414,7.48326091 2.27668604,7.49905605 L0.400986998,7.68778782 C0.230873934,7.70479797 0.0725067724,7.85545938 0.0534703105,8.02596597 C0.0190426666,8.34551395 -0.000398826475,8.66992198 6.20462945e-06,9.00000006 C6.20462945e-06,9.32886313 0.0186376355,9.65327115 0.0538753416,9.97403415 C0.0721017413,10.1445407 0.230063872,10.2956071 0.401392029,10.3122123 L2.27709108,10.5001341 C2.44760917,10.5171442 2.6173172,10.6657806 2.66430081,10.8298071 C2.80120133,11.3069016 2.99035085,11.7596958 3.22486386,12.1857598 C3.30789524,12.3343962 3.29331412,12.5611983 3.18476578,12.6936345 L1.99194918,14.1512431 C1.88380587,14.2836794 1.87813544,14.5035964 1.98465862,14.6380577 C2.12317926,14.8089693 2.26777536,14.9762358 2.42006706,15.1406674 C2.53793111,15.2650035 2.7331561,15.4622404 2.8595258,15.5780714 C3.02234831,15.7307579 3.19003119,15.8765592 3.36176437,16.0142605 C3.4962347,16.1211815 3.71454647,16.1163215 3.8478017,16.0081855 L5.30591368,14.8146393 C5.43835885,14.7065033 5.66477124,14.6927332 5.81422771,14.7745439 C6.23951037,15.0090411 6.69274018,15.1973679 7.16865173,15.3354742 C7.33349939,15.3836696 7.48295587,15.5513412 7.49915711,15.7230628 L7.68749657,17.5978253 C7.70410285,17.7699519 7.85639454,17.9270934 8.02691264,17.9465335 C8.34648218,17.9801489 8.67010203,18.000399 9.00060742,17.999994 C9.32949267,17.999994 9.65392259,17.9805539 9.97389716,17.9473435 C10.1444153,17.9274984 10.2954919,17.7699519 10.3129082,17.5982303 L10.4992225,15.7230628 C10.5170439,15.5529612 10.6660953,15.3828596 10.831348,15.3358792 C11.3064495,15.1989879 11.7604894,15.0106611 12.1865821,14.7753539 C12.3360386,14.6919232 12.5612359,14.7073133 12.6940861,14.8146393 L14.1526031,16.0077804 C14.2846432,16.1163215 14.5041701,16.1223965 14.6382354,16.0142605 C14.8091585,15.8761542 14.9772464,15.7303529 15.141284,15.5788814 C15.2672487,15.4622404 15.4632837,15.2654085 15.5795277,15.1402624 C15.7322244,14.9762358 15.8764155,14.8085643 16.0149361,14.6364377 C16.1226744,14.5027864 16.1165989,14.2844894 16.0084556,14.1516481 L14.815234,12.6936345 C14.7066856,12.5599833 14.6925095,12.3348012 14.7743258,12.1849498 C15.0096489,11.7605058 15.1987984,11.3069016 15.3356989,10.8302121 C15.3830876,10.6661856 15.5523906,10.5163342 15.7225036,10.5001341 L17.5994178,10.3118073 C17.7699359,10.2952021 17.928303,10.1441357 17.9465294,9.97362914 C17.9809571,9.65448617 18.0003986,9.32967314 17.9999935,8.99959506 C18.0003986,8.67113699 17.9817671,8.34591896 17.9473395,8.02596597 Z M8.99939232,12.3748965 C7.13665427,12.3736815 5.62548322,10.8630174 5.62548322,9.00000006 C5.62507819,7.13779268 7.1370593,5.62550857 8.99979735,5.62591358 C10.8637505,5.62591358 12.3745165,7.13657767 12.3749215,9.00000006 C12.3737065,10.8638275 10.8641555,12.3744915 8.99939232,12.3748965 Z"/>
      </g>
    </g>
    <g id="reliable-animejs-attach3" fill="#4A4A4A" fill-rule="nonzero" transform="translate(566 325)">
      <path d="M10,20 C10,14.5 14.5,10 20,10 C25.5,10 30,14.5 30,20 L30,30 L10,30 L10,20 Z M32,32 L8,32 C6.9,32 6,32.9 6,34 C6,35.1 6.9,36 8,36 L32,36 C33.1,36 34,35.1 34,34 C34,32.9 33.1,32 32,32 Z M20,7 C20.6,7 21,6.6 21,6 L21,1 C21,0.4 20.6,0 20,0 C19.4,0 19,0.4 19,1 L19,6 C19,6.6 19.4,7 20,7 Z M30.6,10.8 L34.1,7.3 C34.5,6.9 34.5,6.3 34.1,5.9 C33.701,5.5 33.1,5.5 32.701,5.9 L29.201,9.4 C28.801,9.8 28.801,10.4 29.201,10.8 C29.606,11.206 30.196,11.206 30.6,10.8 Z M39,19 L34,19 C33.4,19 33,19.4 33,20 C33,20.6 33.4,21 34,21 L39,21 C39.6,21 40,20.6 40,20 C40,19.4 39.6,19 39,19 Z M9.4,10.8 C9.796,11.196 10.408,11.193 10.8,10.8 C11.2,10.4 11.2,9.8 10.8,9.4 L7.3,5.9 C6.9,5.5 6.3,5.5 5.9,5.9 C5.5,6.3 5.5,6.9 5.9,7.3 L9.4,10.8 Z M7,20 C7,19.4 6.6,19 6,19 L1,19 C0.4,19 0,19.4 0,20 C0,20.6 0.4,21 1,21 L6,21 C6.6,21 7,20.6 7,20 Z"/>
    </g>
  </g>
</svg>
