<svg viewBox="0 0 1200 900" xmlns="http://www.w3.org/2000/svg"><g fill="none" fill-rule="evenodd"><path fill="#F0F0F0" d="M130 209h945v112H130z"></path><path d="M128.5 321.5h944" stroke="#4A4A4A" stroke-width="7" stroke-linecap="square"></path><text font-size="38" font-weight="bold" fill="#4A4A4A" transform="translate(128 209)" class="sans-serif"><tspan x="233" y="69">kubectl create -f deployment.yaml</tspan></text><text font-size="38" font-weight="bold" fill="#4A4A4A" transform="translate(128 209)" class="sans-serif"><tspan x="86.433" y="69">1</tspan></text><path fill="#F0F0F0" d="M130 324h945v112H130z"></path><path d="M128.5 436.5h944" stroke="#4A4A4A" stroke-width="7" stroke-linecap="square"></path><text font-size="38" font-weight="bold" fill="#4A4A4A" transform="translate(128 324)" class="sans-serif"><tspan x="233" y="69">kubectl scale --replicas=5 deploy/red</tspan></text><text font-size="38" font-weight="bold" fill="#4A4A4A" transform="translate(128 324)" class="sans-serif"><tspan x="86.433" y="69">2</tspan></text><path fill="#F0F0F0" d="M130 440h945v112H130z"></path><path d="M128.5 552.5h944" stroke="#4A4A4A" stroke-width="7" stroke-linecap="square"></path><text font-size="38" font-weight="bold" fill="#4A4A4A" transform="translate(128 440)" class="sans-serif"><tspan x="233" y="69">kubectl set image app=green</tspan></text><text font-size="38" font-weight="bold" fill="#4A4A4A" transform="translate(128 440)" class="sans-serif"><tspan x="86.433" y="69">3</tspan></text><path fill="#D1FFAC" d="M128 555h945v112H128z"></path><path d="M126.5 667.5h944" stroke="#4A4A4A" stroke-width="7" stroke-linecap="square"></path><text font-size="38" font-weight="bold" fill="#4A4A4A" transform="translate(126 555)" class="sans-serif"><tspan x="233" y="69">kubectl create -f deployment.yaml</tspan></text><text font-size="38" font-weight="bold" fill="#4A4A4A" transform="translate(126 555)" class="sans-serif"><tspan x="86.433" y="69">4</tspan></text><path stroke="#4A4A4A" stroke-width="7" d="M125.5 119.5h949v662h-949z"></path><path d="M128.5 208.5h944m-749-89v662" stroke="#4A4A4A" stroke-width="7" stroke-linecap="square"></path><text font-size="38" font-weight="bold" fill="#4A4A4A" class="sans-serif"><tspan x="361" y="178">What happened</tspan></text><text font-size="38" font-weight="bold" fill="#4A4A4A" class="sans-serif"><tspan x="146.309" y="178">Revision</tspan></text></g></svg>