<svg viewBox="0 0 1200 900" xmlns="http://www.w3.org/2000/svg"><g fill="none" fill-rule="evenodd"><path fill="#ECD078" d="M92 122h293v183.886l-44.904.021V198.819H138.387V306L92 305.886z"/><path d="M588.92 306c0-42.919-34.774-77.711-77.67-77.711-42.895 0-77.668 34.792-77.668 77.711H396V122h230v184h-37.08z" fill="#BAD4F3"/><path fill="#D95B43" d="M400 616h403v214H400z"/><text font-family="sans-serif" font-size="30" font-weight="bold" fill="#4A4A4A"><tspan x="425.222" y="692">Persistent Volume Claim</tspan></text><text font-family="sans-serif" font-size="60" font-weight="bold" fill="#4A4A4A"><tspan x="470.48" y="767">Standard</tspan></text><path d="M840.33 306l-92-92-92 92H637V122h230v184h-26.67z" fill="#BAD4F3"/><text font-family="sans-serif" font-size="20.8" font-weight="bold" fill="#4A4A4A"><tspan x="149.412" y="158">Persistent volume</tspan></text><text font-family="sans-serif" font-size="15.8" font-weight="bold" fill="#4A4A4A"><tspan x="199.041" y="184">size 10GiB</tspan></text><text font-family="sans-serif" font-size="20.8" font-weight="bold" fill="#4A4A4A"><tspan x="421.412" y="158">Persistent volume</tspan></text><text font-family="sans-serif" font-size="15.8" font-weight="bold" fill="#4A4A4A"><tspan x="440.313" y="184">size 8GiB readonly</tspan></text><text font-family="sans-serif" font-size="20.8" font-weight="bold" fill="#4A4A4A"><tspan x="662.412" y="158">Persistent volume</tspan></text><text font-family="sans-serif" font-size="15.8" font-weight="bold" fill="#4A4A4A"><tspan x="692.084" y="184">size 8GiB Azure</tspan></text><path d="M1069.28 306l14.176-43.63L990.728 195 898 262.37 912.176 306H878V122h230v184h-38.72z" fill="#BAD4F3"/><text font-family="sans-serif" font-size="20.8" font-weight="bold" fill="#4A4A4A"><tspan x="903.412" y="158">Persistent volume</tspan></text><text font-family="sans-serif" font-size="15.8" font-weight="bold" fill="#4A4A4A"><tspan x="937.038" y="184">size 8GiB AWS</tspan></text><text font-family="sans-serif" font-size="42" font-weight="bold" fill="#4A4A4A"><tspan x="530.187" y="76">Templates</tspan></text><text font-family="sans-serif" font-size="26" font-weight="bold" fill="#4A4A4A"><tspan x="183.158" y="376">Standard</tspan></text><text font-family="sans-serif" font-size="26" font-weight="bold" fill="#4A4A4A"><tspan x="482.54" y="376">Safe</tspan></text><text font-family="sans-serif" font-size="26" font-weight="bold" fill="#4A4A4A"><tspan x="716.382" y="376">Azure</tspan></text><text font-family="sans-serif" font-size="26" font-weight="bold" fill="#4A4A4A"><tspan x="963.888" y="376">AWS</tspan></text></g></svg>