<svg viewBox="0 0 1200 900" xmlns="http://www.w3.org/2000/svg"><g fill="none" fill-rule="evenodd"><path d="M732.98 646.917v27.17a7.15 7.15 0 0 1-7.15 7.15H474.15a7.15 7.15 0 0 1-7.15-7.15v-27.17a7.15 7.15 0 0 1 7.15-7.15h251.68a7.15 7.15 0 0 1 7.15 7.15z" fill="#D2D2D2"></path><path fill="#A3A3A3" d="M511.33 648.347h5.72v5.72h-5.72zm0 8.58h5.72v5.72h-5.72zm0 8.58h5.72v5.72h-5.72zm8.58-17.16h5.72v5.72h-5.72zm0 8.58h5.72v5.72h-5.72zm0 8.58h5.72v5.72h-5.72zm8.58-17.16h5.72v5.72h-5.72zm0 8.58h5.72v5.72h-5.72zm0 8.58h5.72v5.72h-5.72zm8.58-17.16h5.72v5.72h-5.72zm0 8.58h5.72v5.72h-5.72zm0 8.58h5.72v5.72h-5.72zm8.58-17.16h5.72v5.72h-5.72zm0 8.58h5.72v5.72h-5.72zm0 8.58h5.72v5.72h-5.72zm8.58-17.16h5.72v5.72h-5.72zm0 8.58h5.72v5.72h-5.72zm0 8.58h5.72v5.72h-5.72zm8.58-17.16h5.72v5.72h-5.72zm0 8.58h5.72v5.72h-5.72zm0 8.58h5.72v5.72h-5.72zm8.58-17.16h5.72v5.72h-5.72zm0 8.58h5.72v5.72h-5.72zm0 8.58h5.72v5.72h-5.72zm8.58-17.16h5.72v5.72h-5.72zm0 8.58h5.72v5.72h-5.72zm0 8.58h5.72v5.72h-5.72zm8.58-17.16h5.72v5.72h-5.72zm0 8.58h5.72v5.72h-5.72zm0 8.58h5.72v5.72h-5.72zm8.58-17.16h5.72v5.72h-5.72zm0 8.58h5.72v5.72h-5.72zm0 8.58h5.72v5.72h-5.72zm8.58-17.16h5.72v5.72h-5.72zm0 8.58h5.72v5.72h-5.72zm0 8.58h5.72v5.72h-5.72zm8.58-17.16h5.72v5.72h-5.72zm0 8.58h5.72v5.72h-5.72zm0 8.58h5.72v5.72h-5.72zm8.58-17.16h5.72v5.72h-5.72zm0 8.58h5.72v5.72h-5.72zm0 8.58h5.72v5.72h-5.72zm8.58-17.16h5.72v5.72h-5.72zm0 8.58h5.72v5.72h-5.72zm0 8.58h5.72v5.72h-5.72zm8.58-17.16h5.72v5.72h-5.72zm0 8.58h5.72v5.72h-5.72zm0 8.58h5.72v5.72h-5.72zm8.58-17.16h5.72v5.72h-5.72zm0 8.58h5.72v5.72h-5.72zm0 8.58h5.72v5.72h-5.72zm8.58-17.16h5.72v5.72h-5.72zm0 8.58h5.72v5.72h-5.72zm0 8.58h5.72v5.72h-5.72zm8.58-17.16h5.72v5.72h-5.72zm0 8.58h5.72v5.72h-5.72zm0 8.58h5.72v5.72h-5.72zm8.58-17.16h5.72v5.72h-5.72zm0 8.58h5.72v5.72h-5.72zm0 8.58h5.72v5.72h-5.72zm8.58-17.16h5.72v5.72h-5.72zm0 8.58h5.72v5.72h-5.72zm0 8.58h5.72v5.72h-5.72zm8.58-17.16h5.72v5.72h-5.72zm0 8.58h5.72v5.72h-5.72zm0 8.58h5.72v5.72h-5.72zm8.58-17.16h5.72v5.72h-5.72zm0 8.58h5.72v5.72h-5.72zm0 8.58h5.72v5.72h-5.72zm8.58-17.16h5.72v5.72h-5.72zm0 8.58h5.72v5.72h-5.72zm0 8.58h5.72v5.72h-5.72zm8.58-17.16h5.72v5.72h-5.72zm0 8.58h5.72v5.72h-5.72zm0 8.58h5.72v5.72h-5.72z"></path><path d="M732.98 692.595v27.17a7.15 7.15 0 0 1-7.15 7.15H474.15a7.15 7.15 0 0 1-7.15-7.15v-27.17a7.15 7.15 0 0 1 7.15-7.15h251.68a7.15 7.15 0 0 1 7.15 7.15z" fill="#D2D2D2"></path><path fill="#A3A3A3" d="M511.33 694.025h5.72v5.72h-5.72zm0 8.58h5.72v5.72h-5.72zm0 8.58h5.72v5.72h-5.72zm8.58-17.16h5.72v5.72h-5.72zm0 8.58h5.72v5.72h-5.72zm0 8.58h5.72v5.72h-5.72zm8.58-17.16h5.72v5.72h-5.72zm0 8.58h5.72v5.72h-5.72zm0 8.58h5.72v5.72h-5.72zm8.58-17.16h5.72v5.72h-5.72zm0 8.58h5.72v5.72h-5.72zm0 8.58h5.72v5.72h-5.72zm8.58-17.16h5.72v5.72h-5.72zm0 8.58h5.72v5.72h-5.72zm0 8.58h5.72v5.72h-5.72zm8.58-17.16h5.72v5.72h-5.72zm0 8.58h5.72v5.72h-5.72zm0 8.58h5.72v5.72h-5.72zm8.58-17.16h5.72v5.72h-5.72zm0 8.58h5.72v5.72h-5.72zm0 8.58h5.72v5.72h-5.72zm8.58-17.16h5.72v5.72h-5.72zm0 8.58h5.72v5.72h-5.72zm0 8.58h5.72v5.72h-5.72zm8.58-17.16h5.72v5.72h-5.72zm0 8.58h5.72v5.72h-5.72zm0 8.58h5.72v5.72h-5.72zm8.58-17.16h5.72v5.72h-5.72zm0 8.58h5.72v5.72h-5.72zm0 8.58h5.72v5.72h-5.72zm8.58-17.16h5.72v5.72h-5.72zm0 8.58h5.72v5.72h-5.72zm0 8.58h5.72v5.72h-5.72zm8.58-17.16h5.72v5.72h-5.72zm0 8.58h5.72v5.72h-5.72zm0 8.58h5.72v5.72h-5.72zm8.58-17.16h5.72v5.72h-5.72zm0 8.58h5.72v5.72h-5.72zm0 8.58h5.72v5.72h-5.72zm8.58-17.16h5.72v5.72h-5.72zm0 8.58h5.72v5.72h-5.72zm0 8.58h5.72v5.72h-5.72zm8.58-17.16h5.72v5.72h-5.72zm0 8.58h5.72v5.72h-5.72zm0 8.58h5.72v5.72h-5.72zm8.58-17.16h5.72v5.72h-5.72zm0 8.58h5.72v5.72h-5.72zm0 8.58h5.72v5.72h-5.72zm8.58-17.16h5.72v5.72h-5.72zm0 8.58h5.72v5.72h-5.72zm0 8.58h5.72v5.72h-5.72zm8.58-17.16h5.72v5.72h-5.72zm0 8.58h5.72v5.72h-5.72zm0 8.58h5.72v5.72h-5.72zm8.58-17.16h5.72v5.72h-5.72zm0 8.58h5.72v5.72h-5.72zm0 8.58h5.72v5.72h-5.72zm8.58-17.16h5.72v5.72h-5.72zm0 8.58h5.72v5.72h-5.72zm0 8.58h5.72v5.72h-5.72zm8.58-17.16h5.72v5.72h-5.72zm0 8.58h5.72v5.72h-5.72zm0 8.58h5.72v5.72h-5.72zm8.58-17.16h5.72v5.72h-5.72zm0 8.58h5.72v5.72h-5.72zm0 8.58h5.72v5.72h-5.72zm8.58-17.16h5.72v5.72h-5.72zm0 8.58h5.72v5.72h-5.72zm0 8.58h5.72v5.72h-5.72zm8.58-17.16h5.72v5.72h-5.72zm0 8.58h5.72v5.72h-5.72zm0 8.58h5.72v5.72h-5.72zm8.58-17.16h5.72v5.72h-5.72zm0 8.58h5.72v5.72h-5.72zm0 8.58h5.72v5.72h-5.72z"></path><g transform="translate(467 173)"><path d="M265.98 7.15v449.02a7.15 7.15 0 0 1-7.15 7.15H7.15A7.15 7.15 0 0 1 0 456.17V7.15A7.15 7.15 0 0 1 7.15 0h251.68a7.15 7.15 0 0 1 7.15 7.15z" fill="#D2D2D2"></path><path fill="#A3A3A3" d="M10.01 8.58h5.72v5.72h-5.72zm0 8.58h5.72v5.72h-5.72zm0 8.58h5.72v5.72h-5.72zm8.58-17.16h5.72v5.72h-5.72zm0 8.58h5.72v5.72h-5.72zm0 8.58h5.72v5.72h-5.72zm8.58-17.16h5.72v5.72h-5.72zm0 8.58h5.72v5.72h-5.72zm0 8.58h5.72v5.72h-5.72zm8.58-17.16h5.72v5.72h-5.72zm0 8.58h5.72v5.72h-5.72zm0 8.58h5.72v5.72h-5.72zm8.58-17.16h5.72v5.72h-5.72zm0 8.58h5.72v5.72h-5.72zm0 8.58h5.72v5.72h-5.72zm8.58-17.16h5.72v5.72h-5.72zm0 8.58h5.72v5.72h-5.72zm0 8.58h5.72v5.72h-5.72zm8.58-17.16h5.72v5.72h-5.72zm0 8.58h5.72v5.72h-5.72zm0 8.58h5.72v5.72h-5.72zm8.58-17.16h5.72v5.72h-5.72zm0 8.58h5.72v5.72h-5.72zm0 8.58h5.72v5.72h-5.72zm8.58-17.16h5.72v5.72h-5.72zm0 8.58h5.72v5.72h-5.72zm0 8.58h5.72v5.72h-5.72zm8.58-17.16h5.72v5.72h-5.72zm0 8.58h5.72v5.72h-5.72zm0 8.58h5.72v5.72h-5.72zm8.58-17.16h5.72v5.72h-5.72zm0 8.58h5.72v5.72h-5.72zm0 8.58h5.72v5.72h-5.72zm8.58-17.16h5.72v5.72h-5.72zm0 8.58h5.72v5.72h-5.72zm0 8.58h5.72v5.72h-5.72zm8.58-17.16h5.72v5.72h-5.72zm0 8.58h5.72v5.72h-5.72zm0 8.58h5.72v5.72h-5.72zm8.58-17.16h5.72v5.72h-5.72zm0 8.58h5.72v5.72h-5.72zm0 8.58h5.72v5.72h-5.72zm8.58-17.16h5.72v5.72h-5.72zm0 8.58h5.72v5.72h-5.72zm0 8.58h5.72v5.72h-5.72zm8.58-17.16h5.72v5.72h-5.72zm0 8.58h5.72v5.72h-5.72zm0 8.58h5.72v5.72h-5.72zm8.58-17.16h5.72v5.72h-5.72zm0 8.58h5.72v5.72h-5.72zm0 8.58h5.72v5.72h-5.72zm8.58-17.16h5.72v5.72h-5.72zm0 8.58h5.72v5.72h-5.72zm0 8.58h5.72v5.72h-5.72zm8.58-17.16h5.72v5.72h-5.72zm0 8.58h5.72v5.72h-5.72zm0 8.58h5.72v5.72h-5.72zm8.58-17.16h5.72v5.72h-5.72zm0 8.58h5.72v5.72h-5.72zm0 8.58h5.72v5.72h-5.72zm8.58-17.16h5.72v5.72h-5.72zm0 8.58h5.72v5.72h-5.72zm0 8.58h5.72v5.72h-5.72zm8.58-17.16h5.72v5.72h-5.72zm0 8.58h5.72v5.72h-5.72zm0 8.58h5.72v5.72h-5.72zm8.58-17.16h5.72v5.72h-5.72zm0 8.58h5.72v5.72h-5.72zm0 8.58h5.72v5.72h-5.72zm8.58-17.16h5.72v5.72h-5.72zm0 8.58h5.72v5.72h-5.72zm0 8.58h5.72v5.72h-5.72zm8.58-17.16h5.72v5.72h-5.72zm0 8.58h5.72v5.72h-5.72zm0 8.58h5.72v5.72h-5.72zm8.58-17.16h5.72v5.72h-5.72zm0 8.58h5.72v5.72h-5.72zm0 8.58h5.72v5.72h-5.72zm8.58-17.16h5.72v5.72h-5.72zm0 8.58h5.72v5.72h-5.72zm0 8.58h5.72v5.72h-5.72zm8.58-17.16h5.72v5.72h-5.72zm0 8.58h5.72v5.72h-5.72zm0 8.58h5.72v5.72h-5.72zm8.58-17.16h5.72v5.72h-5.72zm0 8.58h5.72v5.72h-5.72zm0 8.58h5.72v5.72h-5.72zM10.01 447.59h5.72v5.72h-5.72zm8.58 0h5.72v5.72h-5.72zm8.58 0h5.72v5.72h-5.72zm8.58 0h5.72v5.72h-5.72zm8.58 0h5.72v5.72h-5.72zm8.58 0h5.72v5.72h-5.72zm8.58 0h5.72v5.72h-5.72zm8.58 0h5.72v5.72h-5.72zm8.58 0h5.72v5.72h-5.72zm8.58 0h5.72v5.72h-5.72zm8.58 0h5.72v5.72h-5.72zm8.58 0h5.72v5.72h-5.72zm8.58 0h5.72v5.72h-5.72zm8.58 0h5.72v5.72h-5.72zm8.58 0h5.72v5.72h-5.72zm8.58 0h5.72v5.72h-5.72zm8.58 0h5.72v5.72h-5.72zm8.58 0h5.72v5.72h-5.72zm8.58 0h5.72v5.72h-5.72zm8.58 0h5.72v5.72h-5.72zm8.58 0h5.72v5.72h-5.72zm8.58 0h5.72v5.72h-5.72zm8.58 0h5.72v5.72h-5.72zm8.58 0h5.72v5.72h-5.72zm8.58 0h5.72v5.72h-5.72zm8.58 0h5.72v5.72h-5.72zm8.58 0h5.72v5.72h-5.72zm8.58 0h5.72v5.72h-5.72zm8.58 0h5.72v5.72h-5.72z"></path><rect fill="#FFF" x="10.01" y="41.47" width="245.96" height="397.54" rx="2.86"></rect></g><path d="M492.752 658.808h3.396v-3.087h-3.396v3.087zm-4.013 0h3.396v-3.087h-3.396v3.087zm-4.014 0h3.397v-3.087h-3.397v3.087zm-4.013 0h3.396v-3.087h-3.396v3.087zm-4.013 0h3.396v-3.087h-3.396v3.087zm4.013-3.705h3.396v-3.087h-3.396v3.087zm4.013 0h3.397v-3.087h-3.397v3.087zm4.014 0h3.396v-3.087h-3.396v3.087zm0-3.704h3.396v-3.088h-3.396v3.088zm17.615 5.609c-.741-.496-2.445-.678-3.757-.43-.169-1.236-.857-2.307-2.11-3.275l-.72-.48-.48.72c-.615.928-.922 2.213-.821 3.445.045.433.187 1.209.633 1.89-.445.24-1.326.57-2.488.548h-22.334l-.044.257c-.21 1.238-.205 5.102 2.303 8.072 1.907 2.257 4.767 3.402 8.498 3.402 8.09 0 14.075-3.723 16.877-10.492 1.103.021 3.476.006 4.695-2.323.031-.054.104-.193.317-.634l.117-.242-.686-.458z" fill="#A3A3A3"></path><g fill="#A3A3A3"><path d="M488.282 707.725a.485.485 0 0 0-.56-.37l-.005-.005-2.842.482a5.7 5.7 0 0 0 2.288 2.863l1.1-2.66-.008-.011a.48.48 0 0 0 .027-.299m-.944-2.047a.485.485 0 0 0 .19-.834l.003-.012-2.162-1.933a5.668 5.668 0 0 0-.804 3.588l2.77-.8.003-.01zm1.262-2.182a.485.485 0 0 0 .77-.372l.012-.005.163-2.888a5.67 5.67 0 0 0-3.318 1.589l2.368 1.678.005-.002zm.837 3.031l.797.383.795-.382.198-.859-.55-.688h-.886l-.552.687zm1.653-3.412a.486.486 0 0 0 .771.37l.01.004 2.351-1.668a5.718 5.718 0 0 0-3.297-1.59l.163 2.883.003.001z"></path><path d="M499.918 708.099c-.067.293-.384.472-.71.402l-.009-.002c-.004 0-.007-.002-.01-.003-.046-.01-.103-.02-.143-.03-.188-.051-.324-.126-.494-.191-.364-.13-.665-.24-.96-.282-.149-.012-.225.059-.307.114a8.261 8.261 0 0 0-.236-.042 7.162 7.162 0 0 1-3.172 3.992c.026.063.07.198.091.222-.035.093-.087.182-.042.325.107.277.28.547.488.873.1.151.204.267.295.44.022.04.05.104.072.147.141.303.038.651-.234.782-.274.132-.614-.007-.761-.311-.021-.043-.05-.1-.068-.141-.078-.18-.105-.332-.16-.505-.125-.366-.228-.67-.378-.925-.084-.124-.186-.14-.28-.171-.018-.03-.083-.15-.118-.212a7.112 7.112 0 0 1-5.08-.013l-.124.226c-.093.025-.183.05-.237.116-.2.239-.28.623-.427.988-.054.173-.08.326-.158.505-.018.04-.048.097-.068.14v.001l-.002.001c-.147.304-.486.442-.76.31-.271-.13-.375-.479-.233-.781.02-.044.048-.107.07-.148.091-.173.194-.29.295-.44.209-.326.392-.619.499-.896.026-.092-.013-.218-.05-.31l.1-.24a7.162 7.162 0 0 1-3.174-3.964l-.24.041c-.064-.036-.193-.121-.316-.112-.294.043-.595.152-.96.283-.169.065-.305.139-.493.189-.04.01-.097.022-.143.032l-.01.003-.008.002c-.327.07-.644-.109-.71-.403-.068-.293.14-.592.465-.67l.008-.002.005-.002c.046-.01.105-.026.147-.034.191-.036.347-.027.528-.042.385-.04.703-.073.987-.162.09-.037.175-.16.236-.239l.23-.067a7.122 7.122 0 0 1 1.124-4.965l-.177-.159c-.011-.068-.026-.227-.11-.317-.217-.204-.49-.372-.819-.575-.156-.092-.3-.152-.456-.267-.034-.025-.078-.063-.114-.092l-.009-.006c-.264-.21-.324-.574-.135-.811a.53.53 0 0 1 .439-.194.655.655 0 0 1 .383.144c.038.03.089.069.123.098.147.127.237.252.362.384.271.276.496.505.742.67.13.076.229.046.327.032.031.024.138.1.199.142a7.08 7.08 0 0 1 4.59-2.208l.014-.233a.6.6 0 0 0 .178-.284c.024-.296-.014-.615-.06-.999-.026-.18-.069-.328-.076-.523-.001-.04 0-.095.001-.141l-.001-.015c0-.338.246-.612.55-.612.304 0 .55.274.55.612 0 .047.004.112.002.156-.007.195-.05.344-.075.523-.047.384-.087.703-.063.999.022.148.109.206.18.275.002.04.008.172.013.246a7.213 7.213 0 0 1 4.569 2.208l.21-.15c.07.005.227.026.333-.036.247-.166.471-.396.742-.671.125-.132.216-.258.364-.385.034-.029.085-.068.122-.097.264-.211.631-.189.82.049.19.238.13.6-.134.811-.038.03-.086.072-.121.098-.157.116-.302.175-.458.267-.329.203-.602.372-.818.575-.103.11-.095.213-.104.312l-.195.175c.474.706.83 1.508 1.031 2.384.2.868.23 1.736.116 2.57l.222.064c.04.057.122.194.237.239.284.089.602.122.987.162.18.015.337.006.528.042l.16.038c.324.078.533.377.466.67m3.498.12l-2.272-9.869a1.747 1.747 0 0 0-.952-1.183l-9.196-4.391a1.771 1.771 0 0 0-1.527 0l-9.195 4.394c-.482.23-.832.665-.951 1.183l-2.269 9.869a1.732 1.732 0 0 0 .339 1.476l6.364 7.913c.334.415.84.656 1.375.656l10.207-.002c.535 0 1.04-.24 1.375-.655l6.362-7.915c.334-.415.459-.958.34-1.476"></path><path d="M495.084 702.899l-2.15 1.925.002.006a.485.485 0 0 0 .19.834l.003.011 2.784.802a5.73 5.73 0 0 0-.12-1.845 5.738 5.738 0 0 0-.709-1.732m-4.423 5.869a.482.482 0 0 0-.444-.256.486.486 0 0 0-.41.256h-.003l-1.397 2.526a5.691 5.691 0 0 0 3.665.004l-1.4-2.53h-.01zm2.081-1.425a.483.483 0 0 0-.298.04.486.486 0 0 0-.235.63l-.004.004 1.113 2.687a5.676 5.676 0 0 0 2.294-2.882l-2.866-.485-.004.006z"></path></g><path d="M379.98 646.917v27.17a7.15 7.15 0 0 1-7.15 7.15H121.15a7.15 7.15 0 0 1-7.15-7.15v-27.17a7.15 7.15 0 0 1 7.15-7.15h251.68a7.15 7.15 0 0 1 7.15 7.15z" fill="#D2D2D2"></path><path fill="#A3A3A3" d="M158.33 648.347h5.72v5.72h-5.72zm0 8.58h5.72v5.72h-5.72zm0 8.58h5.72v5.72h-5.72zm8.58-17.16h5.72v5.72h-5.72zm0 8.58h5.72v5.72h-5.72zm0 8.58h5.72v5.72h-5.72zm8.58-17.16h5.72v5.72h-5.72zm0 8.58h5.72v5.72h-5.72zm0 8.58h5.72v5.72h-5.72zm8.58-17.16h5.72v5.72h-5.72zm0 8.58h5.72v5.72h-5.72zm0 8.58h5.72v5.72h-5.72zm8.58-17.16h5.72v5.72h-5.72zm0 8.58h5.72v5.72h-5.72zm0 8.58h5.72v5.72h-5.72zm8.58-17.16h5.72v5.72h-5.72zm0 8.58h5.72v5.72h-5.72zm0 8.58h5.72v5.72h-5.72zm8.58-17.16h5.72v5.72h-5.72zm0 8.58h5.72v5.72h-5.72zm0 8.58h5.72v5.72h-5.72zm8.58-17.16h5.72v5.72h-5.72zm0 8.58h5.72v5.72h-5.72zm0 8.58h5.72v5.72h-5.72zm8.58-17.16h5.72v5.72h-5.72zm0 8.58h5.72v5.72h-5.72zm0 8.58h5.72v5.72h-5.72zm8.58-17.16h5.72v5.72h-5.72zm0 8.58h5.72v5.72h-5.72zm0 8.58h5.72v5.72h-5.72zm8.58-17.16h5.72v5.72h-5.72zm0 8.58h5.72v5.72h-5.72zm0 8.58h5.72v5.72h-5.72zm8.58-17.16h5.72v5.72h-5.72zm0 8.58h5.72v5.72h-5.72zm0 8.58h5.72v5.72h-5.72zm8.58-17.16h5.72v5.72h-5.72zm0 8.58h5.72v5.72h-5.72zm0 8.58h5.72v5.72h-5.72zm8.58-17.16h5.72v5.72h-5.72zm0 8.58h5.72v5.72h-5.72zm0 8.58h5.72v5.72h-5.72zm8.58-17.16h5.72v5.72h-5.72zm0 8.58h5.72v5.72h-5.72zm0 8.58h5.72v5.72h-5.72zm8.58-17.16h5.72v5.72h-5.72zm0 8.58h5.72v5.72h-5.72zm0 8.58h5.72v5.72h-5.72zm8.58-17.16h5.72v5.72h-5.72zm0 8.58h5.72v5.72h-5.72zm0 8.58h5.72v5.72h-5.72zm8.58-17.16h5.72v5.72h-5.72zm0 8.58h5.72v5.72h-5.72zm0 8.58h5.72v5.72h-5.72zm8.58-17.16h5.72v5.72h-5.72zm0 8.58h5.72v5.72h-5.72zm0 8.58h5.72v5.72h-5.72zm8.58-17.16h5.72v5.72h-5.72zm0 8.58h5.72v5.72h-5.72zm0 8.58h5.72v5.72h-5.72zm8.58-17.16h5.72v5.72h-5.72zm0 8.58h5.72v5.72h-5.72zm0 8.58h5.72v5.72h-5.72zm8.58-17.16h5.72v5.72h-5.72zm0 8.58h5.72v5.72h-5.72zm0 8.58h5.72v5.72h-5.72zm8.58-17.16h5.72v5.72h-5.72zm0 8.58h5.72v5.72h-5.72zm0 8.58h5.72v5.72h-5.72zm8.58-17.16h5.72v5.72h-5.72zm0 8.58h5.72v5.72h-5.72zm0 8.58h5.72v5.72h-5.72zm8.58-17.16h5.72v5.72h-5.72zm0 8.58h5.72v5.72h-5.72zm0 8.58h5.72v5.72h-5.72z"></path><path d="M379.98 692.595v27.17a7.15 7.15 0 0 1-7.15 7.15H121.15a7.15 7.15 0 0 1-7.15-7.15v-27.17a7.15 7.15 0 0 1 7.15-7.15h251.68a7.15 7.15 0 0 1 7.15 7.15z" fill="#D2D2D2"></path><path fill="#A3A3A3" d="M158.33 694.025h5.72v5.72h-5.72zm0 8.58h5.72v5.72h-5.72zm0 8.58h5.72v5.72h-5.72zm8.58-17.16h5.72v5.72h-5.72zm0 8.58h5.72v5.72h-5.72zm0 8.58h5.72v5.72h-5.72zm8.58-17.16h5.72v5.72h-5.72zm0 8.58h5.72v5.72h-5.72zm0 8.58h5.72v5.72h-5.72zm8.58-17.16h5.72v5.72h-5.72zm0 8.58h5.72v5.72h-5.72zm0 8.58h5.72v5.72h-5.72zm8.58-17.16h5.72v5.72h-5.72zm0 8.58h5.72v5.72h-5.72zm0 8.58h5.72v5.72h-5.72zm8.58-17.16h5.72v5.72h-5.72zm0 8.58h5.72v5.72h-5.72zm0 8.58h5.72v5.72h-5.72zm8.58-17.16h5.72v5.72h-5.72zm0 8.58h5.72v5.72h-5.72zm0 8.58h5.72v5.72h-5.72zm8.58-17.16h5.72v5.72h-5.72zm0 8.58h5.72v5.72h-5.72zm0 8.58h5.72v5.72h-5.72zm8.58-17.16h5.72v5.72h-5.72zm0 8.58h5.72v5.72h-5.72zm0 8.58h5.72v5.72h-5.72zm8.58-17.16h5.72v5.72h-5.72zm0 8.58h5.72v5.72h-5.72zm0 8.58h5.72v5.72h-5.72zm8.58-17.16h5.72v5.72h-5.72zm0 8.58h5.72v5.72h-5.72zm0 8.58h5.72v5.72h-5.72zm8.58-17.16h5.72v5.72h-5.72zm0 8.58h5.72v5.72h-5.72zm0 8.58h5.72v5.72h-5.72zm8.58-17.16h5.72v5.72h-5.72zm0 8.58h5.72v5.72h-5.72zm0 8.58h5.72v5.72h-5.72zm8.58-17.16h5.72v5.72h-5.72zm0 8.58h5.72v5.72h-5.72zm0 8.58h5.72v5.72h-5.72zm8.58-17.16h5.72v5.72h-5.72zm0 8.58h5.72v5.72h-5.72zm0 8.58h5.72v5.72h-5.72zm8.58-17.16h5.72v5.72h-5.72zm0 8.58h5.72v5.72h-5.72zm0 8.58h5.72v5.72h-5.72zm8.58-17.16h5.72v5.72h-5.72zm0 8.58h5.72v5.72h-5.72zm0 8.58h5.72v5.72h-5.72zm8.58-17.16h5.72v5.72h-5.72zm0 8.58h5.72v5.72h-5.72zm0 8.58h5.72v5.72h-5.72zm8.58-17.16h5.72v5.72h-5.72zm0 8.58h5.72v5.72h-5.72zm0 8.58h5.72v5.72h-5.72zm8.58-17.16h5.72v5.72h-5.72zm0 8.58h5.72v5.72h-5.72zm0 8.58h5.72v5.72h-5.72zm8.58-17.16h5.72v5.72h-5.72zm0 8.58h5.72v5.72h-5.72zm0 8.58h5.72v5.72h-5.72zm8.58-17.16h5.72v5.72h-5.72zm0 8.58h5.72v5.72h-5.72zm0 8.58h5.72v5.72h-5.72zm8.58-17.16h5.72v5.72h-5.72zm0 8.58h5.72v5.72h-5.72zm0 8.58h5.72v5.72h-5.72zm8.58-17.16h5.72v5.72h-5.72zm0 8.58h5.72v5.72h-5.72zm0 8.58h5.72v5.72h-5.72zm8.58-17.16h5.72v5.72h-5.72zm0 8.58h5.72v5.72h-5.72zm0 8.58h5.72v5.72h-5.72z"></path><g transform="translate(114 173)"><path d="M265.98 7.15v449.02a7.15 7.15 0 0 1-7.15 7.15H7.15A7.15 7.15 0 0 1 0 456.17V7.15A7.15 7.15 0 0 1 7.15 0h251.68a7.15 7.15 0 0 1 7.15 7.15z" fill="#D2D2D2"></path><path fill="#A3A3A3" d="M10.01 8.58h5.72v5.72h-5.72zm0 8.58h5.72v5.72h-5.72zm0 8.58h5.72v5.72h-5.72zm8.58-17.16h5.72v5.72h-5.72zm0 8.58h5.72v5.72h-5.72zm0 8.58h5.72v5.72h-5.72zm8.58-17.16h5.72v5.72h-5.72zm0 8.58h5.72v5.72h-5.72zm0 8.58h5.72v5.72h-5.72zm8.58-17.16h5.72v5.72h-5.72zm0 8.58h5.72v5.72h-5.72zm0 8.58h5.72v5.72h-5.72zm8.58-17.16h5.72v5.72h-5.72zm0 8.58h5.72v5.72h-5.72zm0 8.58h5.72v5.72h-5.72zm8.58-17.16h5.72v5.72h-5.72zm0 8.58h5.72v5.72h-5.72zm0 8.58h5.72v5.72h-5.72zm8.58-17.16h5.72v5.72h-5.72zm0 8.58h5.72v5.72h-5.72zm0 8.58h5.72v5.72h-5.72zm8.58-17.16h5.72v5.72h-5.72zm0 8.58h5.72v5.72h-5.72zm0 8.58h5.72v5.72h-5.72zm8.58-17.16h5.72v5.72h-5.72zm0 8.58h5.72v5.72h-5.72zm0 8.58h5.72v5.72h-5.72zm8.58-17.16h5.72v5.72h-5.72zm0 8.58h5.72v5.72h-5.72zm0 8.58h5.72v5.72h-5.72zm8.58-17.16h5.72v5.72h-5.72zm0 8.58h5.72v5.72h-5.72zm0 8.58h5.72v5.72h-5.72zm8.58-17.16h5.72v5.72h-5.72zm0 8.58h5.72v5.72h-5.72zm0 8.58h5.72v5.72h-5.72zm8.58-17.16h5.72v5.72h-5.72zm0 8.58h5.72v5.72h-5.72zm0 8.58h5.72v5.72h-5.72zm8.58-17.16h5.72v5.72h-5.72zm0 8.58h5.72v5.72h-5.72zm0 8.58h5.72v5.72h-5.72zm8.58-17.16h5.72v5.72h-5.72zm0 8.58h5.72v5.72h-5.72zm0 8.58h5.72v5.72h-5.72zm8.58-17.16h5.72v5.72h-5.72zm0 8.58h5.72v5.72h-5.72zm0 8.58h5.72v5.72h-5.72zm8.58-17.16h5.72v5.72h-5.72zm0 8.58h5.72v5.72h-5.72zm0 8.58h5.72v5.72h-5.72zm8.58-17.16h5.72v5.72h-5.72zm0 8.58h5.72v5.72h-5.72zm0 8.58h5.72v5.72h-5.72zm8.58-17.16h5.72v5.72h-5.72zm0 8.58h5.72v5.72h-5.72zm0 8.58h5.72v5.72h-5.72zm8.58-17.16h5.72v5.72h-5.72zm0 8.58h5.72v5.72h-5.72zm0 8.58h5.72v5.72h-5.72zm8.58-17.16h5.72v5.72h-5.72zm0 8.58h5.72v5.72h-5.72zm0 8.58h5.72v5.72h-5.72zm8.58-17.16h5.72v5.72h-5.72zm0 8.58h5.72v5.72h-5.72zm0 8.58h5.72v5.72h-5.72zm8.58-17.16h5.72v5.72h-5.72zm0 8.58h5.72v5.72h-5.72zm0 8.58h5.72v5.72h-5.72zm8.58-17.16h5.72v5.72h-5.72zm0 8.58h5.72v5.72h-5.72zm0 8.58h5.72v5.72h-5.72zm8.58-17.16h5.72v5.72h-5.72zm0 8.58h5.72v5.72h-5.72zm0 8.58h5.72v5.72h-5.72zm8.58-17.16h5.72v5.72h-5.72zm0 8.58h5.72v5.72h-5.72zm0 8.58h5.72v5.72h-5.72zm8.58-17.16h5.72v5.72h-5.72zm0 8.58h5.72v5.72h-5.72zm0 8.58h5.72v5.72h-5.72zm8.58-17.16h5.72v5.72h-5.72zm0 8.58h5.72v5.72h-5.72zm0 8.58h5.72v5.72h-5.72zm8.58-17.16h5.72v5.72h-5.72zm0 8.58h5.72v5.72h-5.72zm0 8.58h5.72v5.72h-5.72zM10.01 447.59h5.72v5.72h-5.72zm8.58 0h5.72v5.72h-5.72zm8.58 0h5.72v5.72h-5.72zm8.58 0h5.72v5.72h-5.72zm8.58 0h5.72v5.72h-5.72zm8.58 0h5.72v5.72h-5.72zm8.58 0h5.72v5.72h-5.72zm8.58 0h5.72v5.72h-5.72zm8.58 0h5.72v5.72h-5.72zm8.58 0h5.72v5.72h-5.72zm8.58 0h5.72v5.72h-5.72zm8.58 0h5.72v5.72h-5.72zm8.58 0h5.72v5.72h-5.72zm8.58 0h5.72v5.72h-5.72zm8.58 0h5.72v5.72h-5.72zm8.58 0h5.72v5.72h-5.72zm8.58 0h5.72v5.72h-5.72zm8.58 0h5.72v5.72h-5.72zm8.58 0h5.72v5.72h-5.72zm8.58 0h5.72v5.72h-5.72zm8.58 0h5.72v5.72h-5.72zm8.58 0h5.72v5.72h-5.72zm8.58 0h5.72v5.72h-5.72zm8.58 0h5.72v5.72h-5.72zm8.58 0h5.72v5.72h-5.72zm8.58 0h5.72v5.72h-5.72zm8.58 0h5.72v5.72h-5.72zm8.58 0h5.72v5.72h-5.72zm8.58 0h5.72v5.72h-5.72z"></path><rect fill="#FFF" x="10.01" y="41.47" width="245.96" height="397.54" rx="2.86"></rect></g><path d="M139.752 658.808h3.396v-3.087h-3.396v3.087zm-4.013 0h3.396v-3.087h-3.396v3.087zm-4.014 0h3.397v-3.087h-3.397v3.087zm-4.013 0h3.396v-3.087h-3.396v3.087zm-4.013 0h3.396v-3.087h-3.396v3.087zm4.013-3.705h3.396v-3.087h-3.396v3.087zm4.013 0h3.397v-3.087h-3.397v3.087zm4.014 0h3.396v-3.087h-3.396v3.087zm0-3.704h3.396v-3.088h-3.396v3.088zm17.615 5.609c-.741-.496-2.445-.678-3.757-.43-.169-1.236-.857-2.307-2.11-3.275l-.72-.48-.48.72c-.615.928-.922 2.213-.821 3.445.045.433.187 1.209.633 1.89-.445.24-1.326.57-2.488.548h-22.334l-.044.257c-.21 1.238-.205 5.102 2.303 8.072 1.907 2.257 4.767 3.402 8.498 3.402 8.09 0 14.075-3.723 16.877-10.492 1.103.021 3.476.006 4.695-2.323.031-.054.104-.193.317-.634l.117-.242-.686-.458z" fill="#A3A3A3"></path><g fill="#A3A3A3"><path d="M135.282 707.725a.485.485 0 0 0-.56-.37l-.005-.005-2.842.482a5.7 5.7 0 0 0 2.288 2.863l1.1-2.66-.008-.011a.48.48 0 0 0 .027-.299m-.944-2.047a.485.485 0 0 0 .19-.834l.003-.012-2.162-1.933a5.668 5.668 0 0 0-.804 3.588l2.77-.8.003-.01zm1.262-2.182a.485.485 0 0 0 .77-.372l.012-.005.163-2.888a5.67 5.67 0 0 0-3.318 1.589l2.368 1.678.005-.002zm.837 3.031l.797.383.795-.382.198-.859-.55-.688h-.886l-.552.687zm1.653-3.412a.486.486 0 0 0 .771.37l.01.004 2.351-1.668a5.718 5.718 0 0 0-3.297-1.59l.163 2.883.003.001z"></path><path d="M146.918 708.099c-.067.293-.384.472-.71.402l-.009-.002c-.004 0-.007-.002-.01-.003-.046-.01-.103-.02-.143-.03-.188-.051-.324-.126-.494-.191-.364-.13-.665-.24-.96-.282-.149-.012-.225.059-.307.114a8.261 8.261 0 0 0-.236-.042 7.162 7.162 0 0 1-3.172 3.992c.026.063.07.198.091.222-.035.093-.087.182-.042.325.107.277.28.547.488.873.1.151.204.267.295.44.022.04.05.104.072.147.141.303.038.651-.234.782-.274.132-.614-.007-.761-.311-.021-.043-.05-.1-.068-.141-.078-.18-.105-.332-.16-.505-.125-.366-.228-.67-.378-.925-.084-.124-.186-.14-.28-.171-.018-.03-.083-.15-.118-.212a7.112 7.112 0 0 1-5.08-.013l-.124.226c-.093.025-.183.05-.237.116-.2.239-.28.623-.427.988-.054.173-.08.326-.158.505-.018.04-.048.097-.068.14v.001l-.002.001c-.147.304-.486.442-.76.31-.271-.13-.375-.479-.233-.781.02-.044.048-.107.07-.148.091-.173.194-.29.295-.44.209-.326.392-.619.499-.896.026-.092-.013-.218-.05-.31l.1-.24a7.162 7.162 0 0 1-3.174-3.964l-.24.041c-.064-.036-.193-.121-.316-.112-.294.043-.595.152-.96.283-.169.065-.305.139-.493.189-.04.01-.097.022-.143.032l-.01.003-.008.002c-.327.07-.644-.109-.71-.403-.068-.293.14-.592.465-.67l.008-.002.005-.002c.046-.01.105-.026.147-.034.191-.036.347-.027.528-.042.385-.04.703-.073.987-.162.09-.037.175-.16.236-.239l.23-.067a7.122 7.122 0 0 1 1.124-4.965l-.177-.159c-.011-.068-.026-.227-.11-.317-.217-.204-.49-.372-.819-.575-.156-.092-.3-.152-.456-.267-.034-.025-.078-.063-.114-.092l-.009-.006c-.264-.21-.324-.574-.135-.811a.53.53 0 0 1 .439-.194.655.655 0 0 1 .383.144c.038.03.089.069.123.098.147.127.237.252.362.384.271.276.496.505.742.67.13.076.229.046.327.032.031.024.138.1.199.142a7.08 7.08 0 0 1 4.59-2.208l.014-.233a.6.6 0 0 0 .178-.284c.024-.296-.014-.615-.06-.999-.026-.18-.069-.328-.076-.523-.001-.04 0-.095.001-.141l-.001-.015c0-.338.246-.612.55-.612.304 0 .55.274.55.612 0 .047.004.112.002.156-.007.195-.05.344-.075.523-.047.384-.087.703-.063.999.022.148.109.206.18.275.002.04.008.172.013.246a7.213 7.213 0 0 1 4.569 2.208l.21-.15c.07.005.227.026.333-.036.247-.166.471-.396.742-.671.125-.132.216-.258.364-.385.034-.029.085-.068.122-.097.264-.211.631-.189.82.049.19.238.13.6-.134.811-.038.03-.086.072-.121.098-.157.116-.302.175-.458.267-.329.203-.602.372-.818.575-.103.11-.095.213-.104.312l-.195.175c.474.706.83 1.508 1.031 2.384.2.868.23 1.736.116 2.57l.222.064c.04.057.122.194.237.239.284.089.602.122.987.162.18.015.337.006.528.042l.16.038c.324.078.533.377.466.67m3.498.12l-2.272-9.869a1.747 1.747 0 0 0-.952-1.183l-9.196-4.391a1.771 1.771 0 0 0-1.527 0l-9.195 4.394c-.482.23-.832.665-.951 1.183l-2.269 9.869a1.732 1.732 0 0 0 .339 1.476l6.364 7.913c.334.415.84.656 1.375.656l10.207-.002c.535 0 1.04-.24 1.375-.655l6.362-7.915c.334-.415.459-.958.34-1.476"></path><path d="M142.084 702.899l-2.15 1.925.002.006a.485.485 0 0 0 .19.834l.003.011 2.784.802a5.73 5.73 0 0 0-.12-1.845 5.738 5.738 0 0 0-.709-1.732m-4.423 5.869a.482.482 0 0 0-.444-.256.486.486 0 0 0-.41.256h-.003l-1.397 2.526a5.691 5.691 0 0 0 3.665.004l-1.4-2.53h-.01zm2.081-1.425a.483.483 0 0 0-.298.04.486.486 0 0 0-.235.63l-.004.004 1.113 2.687a5.676 5.676 0 0 0 2.294-2.882l-2.866-.485-.004.006z"></path></g><path d="M1088.98 646.917v27.17a7.15 7.15 0 0 1-7.15 7.15H830.15a7.15 7.15 0 0 1-7.15-7.15v-27.17a7.15 7.15 0 0 1 7.15-7.15h251.68a7.15 7.15 0 0 1 7.15 7.15z" fill="#D2D2D2"></path><path fill="#A3A3A3" d="M867.33 648.347h5.72v5.72h-5.72zm0 8.58h5.72v5.72h-5.72zm0 8.58h5.72v5.72h-5.72zm8.58-17.16h5.72v5.72h-5.72zm0 8.58h5.72v5.72h-5.72zm0 8.58h5.72v5.72h-5.72zm8.58-17.16h5.72v5.72h-5.72zm0 8.58h5.72v5.72h-5.72zm0 8.58h5.72v5.72h-5.72zm8.58-17.16h5.72v5.72h-5.72zm0 8.58h5.72v5.72h-5.72zm0 8.58h5.72v5.72h-5.72zm8.58-17.16h5.72v5.72h-5.72zm0 8.58h5.72v5.72h-5.72zm0 8.58h5.72v5.72h-5.72zm8.58-17.16h5.72v5.72h-5.72zm0 8.58h5.72v5.72h-5.72zm0 8.58h5.72v5.72h-5.72zm8.58-17.16h5.72v5.72h-5.72zm0 8.58h5.72v5.72h-5.72zm0 8.58h5.72v5.72h-5.72zm8.58-17.16h5.72v5.72h-5.72zm0 8.58h5.72v5.72h-5.72zm0 8.58h5.72v5.72h-5.72zm8.58-17.16h5.72v5.72h-5.72zm0 8.58h5.72v5.72h-5.72zm0 8.58h5.72v5.72h-5.72zm8.58-17.16h5.72v5.72h-5.72zm0 8.58h5.72v5.72h-5.72zm0 8.58h5.72v5.72h-5.72zm8.58-17.16h5.72v5.72h-5.72zm0 8.58h5.72v5.72h-5.72zm0 8.58h5.72v5.72h-5.72zm8.58-17.16h5.72v5.72h-5.72zm0 8.58h5.72v5.72h-5.72zm0 8.58h5.72v5.72h-5.72zm8.58-17.16h5.72v5.72h-5.72zm0 8.58h5.72v5.72h-5.72zm0 8.58h5.72v5.72h-5.72zm8.58-17.16h5.72v5.72h-5.72zm0 8.58h5.72v5.72h-5.72zm0 8.58h5.72v5.72h-5.72zm8.58-17.16h5.72v5.72h-5.72zm0 8.58h5.72v5.72h-5.72zm0 8.58h5.72v5.72h-5.72zm8.58-17.16h5.72v5.72h-5.72zm0 8.58h5.72v5.72h-5.72zm0 8.58h5.72v5.72h-5.72zm8.58-17.16h5.72v5.72h-5.72zm0 8.58h5.72v5.72h-5.72zm0 8.58h5.72v5.72h-5.72zm8.58-17.16h5.72v5.72h-5.72zm0 8.58h5.72v5.72h-5.72zm0 8.58h5.72v5.72h-5.72zm8.58-17.16h5.72v5.72h-5.72zm0 8.58h5.72v5.72h-5.72zm0 8.58h5.72v5.72h-5.72zm8.58-17.16h5.72v5.72h-5.72zm0 8.58h5.72v5.72h-5.72zm0 8.58h5.72v5.72h-5.72zm8.58-17.16h5.72v5.72h-5.72zm0 8.58h5.72v5.72h-5.72zm0 8.58h5.72v5.72h-5.72zm8.58-17.16h5.72v5.72h-5.72zm0 8.58h5.72v5.72h-5.72zm0 8.58h5.72v5.72h-5.72zm8.58-17.16h5.72v5.72h-5.72zm0 8.58h5.72v5.72h-5.72zm0 8.58h5.72v5.72h-5.72zm8.58-17.16h5.72v5.72h-5.72zm0 8.58h5.72v5.72h-5.72zm0 8.58h5.72v5.72h-5.72zm8.58-17.16h5.72v5.72h-5.72zm0 8.58h5.72v5.72h-5.72zm0 8.58h5.72v5.72h-5.72z"></path><path d="M1088.98 692.595v27.17a7.15 7.15 0 0 1-7.15 7.15H830.15a7.15 7.15 0 0 1-7.15-7.15v-27.17a7.15 7.15 0 0 1 7.15-7.15h251.68a7.15 7.15 0 0 1 7.15 7.15z" fill="#D2D2D2"></path><path fill="#A3A3A3" d="M867.33 694.025h5.72v5.72h-5.72zm0 8.58h5.72v5.72h-5.72zm0 8.58h5.72v5.72h-5.72zm8.58-17.16h5.72v5.72h-5.72zm0 8.58h5.72v5.72h-5.72zm0 8.58h5.72v5.72h-5.72zm8.58-17.16h5.72v5.72h-5.72zm0 8.58h5.72v5.72h-5.72zm0 8.58h5.72v5.72h-5.72zm8.58-17.16h5.72v5.72h-5.72zm0 8.58h5.72v5.72h-5.72zm0 8.58h5.72v5.72h-5.72zm8.58-17.16h5.72v5.72h-5.72zm0 8.58h5.72v5.72h-5.72zm0 8.58h5.72v5.72h-5.72zm8.58-17.16h5.72v5.72h-5.72zm0 8.58h5.72v5.72h-5.72zm0 8.58h5.72v5.72h-5.72zm8.58-17.16h5.72v5.72h-5.72zm0 8.58h5.72v5.72h-5.72zm0 8.58h5.72v5.72h-5.72zm8.58-17.16h5.72v5.72h-5.72zm0 8.58h5.72v5.72h-5.72zm0 8.58h5.72v5.72h-5.72zm8.58-17.16h5.72v5.72h-5.72zm0 8.58h5.72v5.72h-5.72zm0 8.58h5.72v5.72h-5.72zm8.58-17.16h5.72v5.72h-5.72zm0 8.58h5.72v5.72h-5.72zm0 8.58h5.72v5.72h-5.72zm8.58-17.16h5.72v5.72h-5.72zm0 8.58h5.72v5.72h-5.72zm0 8.58h5.72v5.72h-5.72zm8.58-17.16h5.72v5.72h-5.72zm0 8.58h5.72v5.72h-5.72zm0 8.58h5.72v5.72h-5.72zm8.58-17.16h5.72v5.72h-5.72zm0 8.58h5.72v5.72h-5.72zm0 8.58h5.72v5.72h-5.72zm8.58-17.16h5.72v5.72h-5.72zm0 8.58h5.72v5.72h-5.72zm0 8.58h5.72v5.72h-5.72zm8.58-17.16h5.72v5.72h-5.72zm0 8.58h5.72v5.72h-5.72zm0 8.58h5.72v5.72h-5.72zm8.58-17.16h5.72v5.72h-5.72zm0 8.58h5.72v5.72h-5.72zm0 8.58h5.72v5.72h-5.72zm8.58-17.16h5.72v5.72h-5.72zm0 8.58h5.72v5.72h-5.72zm0 8.58h5.72v5.72h-5.72zm8.58-17.16h5.72v5.72h-5.72zm0 8.58h5.72v5.72h-5.72zm0 8.58h5.72v5.72h-5.72zm8.58-17.16h5.72v5.72h-5.72zm0 8.58h5.72v5.72h-5.72zm0 8.58h5.72v5.72h-5.72zm8.58-17.16h5.72v5.72h-5.72zm0 8.58h5.72v5.72h-5.72zm0 8.58h5.72v5.72h-5.72zm8.58-17.16h5.72v5.72h-5.72zm0 8.58h5.72v5.72h-5.72zm0 8.58h5.72v5.72h-5.72zm8.58-17.16h5.72v5.72h-5.72zm0 8.58h5.72v5.72h-5.72zm0 8.58h5.72v5.72h-5.72zm8.58-17.16h5.72v5.72h-5.72zm0 8.58h5.72v5.72h-5.72zm0 8.58h5.72v5.72h-5.72zm8.58-17.16h5.72v5.72h-5.72zm0 8.58h5.72v5.72h-5.72zm0 8.58h5.72v5.72h-5.72zm8.58-17.16h5.72v5.72h-5.72zm0 8.58h5.72v5.72h-5.72zm0 8.58h5.72v5.72h-5.72z"></path><g transform="translate(823 173)"><path d="M265.98 7.15v449.02a7.15 7.15 0 0 1-7.15 7.15H7.15A7.15 7.15 0 0 1 0 456.17V7.15A7.15 7.15 0 0 1 7.15 0h251.68a7.15 7.15 0 0 1 7.15 7.15z" fill="#D2D2D2"></path><path fill="#A3A3A3" d="M10.01 8.58h5.72v5.72h-5.72zm0 8.58h5.72v5.72h-5.72zm0 8.58h5.72v5.72h-5.72zm8.58-17.16h5.72v5.72h-5.72zm0 8.58h5.72v5.72h-5.72zm0 8.58h5.72v5.72h-5.72zm8.58-17.16h5.72v5.72h-5.72zm0 8.58h5.72v5.72h-5.72zm0 8.58h5.72v5.72h-5.72zm8.58-17.16h5.72v5.72h-5.72zm0 8.58h5.72v5.72h-5.72zm0 8.58h5.72v5.72h-5.72zm8.58-17.16h5.72v5.72h-5.72zm0 8.58h5.72v5.72h-5.72zm0 8.58h5.72v5.72h-5.72zm8.58-17.16h5.72v5.72h-5.72zm0 8.58h5.72v5.72h-5.72zm0 8.58h5.72v5.72h-5.72zm8.58-17.16h5.72v5.72h-5.72zm0 8.58h5.72v5.72h-5.72zm0 8.58h5.72v5.72h-5.72zm8.58-17.16h5.72v5.72h-5.72zm0 8.58h5.72v5.72h-5.72zm0 8.58h5.72v5.72h-5.72zm8.58-17.16h5.72v5.72h-5.72zm0 8.58h5.72v5.72h-5.72zm0 8.58h5.72v5.72h-5.72zm8.58-17.16h5.72v5.72h-5.72zm0 8.58h5.72v5.72h-5.72zm0 8.58h5.72v5.72h-5.72zm8.58-17.16h5.72v5.72h-5.72zm0 8.58h5.72v5.72h-5.72zm0 8.58h5.72v5.72h-5.72zm8.58-17.16h5.72v5.72h-5.72zm0 8.58h5.72v5.72h-5.72zm0 8.58h5.72v5.72h-5.72zm8.58-17.16h5.72v5.72h-5.72zm0 8.58h5.72v5.72h-5.72zm0 8.58h5.72v5.72h-5.72zm8.58-17.16h5.72v5.72h-5.72zm0 8.58h5.72v5.72h-5.72zm0 8.58h5.72v5.72h-5.72zm8.58-17.16h5.72v5.72h-5.72zm0 8.58h5.72v5.72h-5.72zm0 8.58h5.72v5.72h-5.72zm8.58-17.16h5.72v5.72h-5.72zm0 8.58h5.72v5.72h-5.72zm0 8.58h5.72v5.72h-5.72zm8.58-17.16h5.72v5.72h-5.72zm0 8.58h5.72v5.72h-5.72zm0 8.58h5.72v5.72h-5.72zm8.58-17.16h5.72v5.72h-5.72zm0 8.58h5.72v5.72h-5.72zm0 8.58h5.72v5.72h-5.72zm8.58-17.16h5.72v5.72h-5.72zm0 8.58h5.72v5.72h-5.72zm0 8.58h5.72v5.72h-5.72zm8.58-17.16h5.72v5.72h-5.72zm0 8.58h5.72v5.72h-5.72zm0 8.58h5.72v5.72h-5.72zm8.58-17.16h5.72v5.72h-5.72zm0 8.58h5.72v5.72h-5.72zm0 8.58h5.72v5.72h-5.72zm8.58-17.16h5.72v5.72h-5.72zm0 8.58h5.72v5.72h-5.72zm0 8.58h5.72v5.72h-5.72zm8.58-17.16h5.72v5.72h-5.72zm0 8.58h5.72v5.72h-5.72zm0 8.58h5.72v5.72h-5.72zm8.58-17.16h5.72v5.72h-5.72zm0 8.58h5.72v5.72h-5.72zm0 8.58h5.72v5.72h-5.72zm8.58-17.16h5.72v5.72h-5.72zm0 8.58h5.72v5.72h-5.72zm0 8.58h5.72v5.72h-5.72zm8.58-17.16h5.72v5.72h-5.72zm0 8.58h5.72v5.72h-5.72zm0 8.58h5.72v5.72h-5.72zm8.58-17.16h5.72v5.72h-5.72zm0 8.58h5.72v5.72h-5.72zm0 8.58h5.72v5.72h-5.72zm8.58-17.16h5.72v5.72h-5.72zm0 8.58h5.72v5.72h-5.72zm0 8.58h5.72v5.72h-5.72zm8.58-17.16h5.72v5.72h-5.72zm0 8.58h5.72v5.72h-5.72zm0 8.58h5.72v5.72h-5.72zM10.01 447.59h5.72v5.72h-5.72zm8.58 0h5.72v5.72h-5.72zm8.58 0h5.72v5.72h-5.72zm8.58 0h5.72v5.72h-5.72zm8.58 0h5.72v5.72h-5.72zm8.58 0h5.72v5.72h-5.72zm8.58 0h5.72v5.72h-5.72zm8.58 0h5.72v5.72h-5.72zm8.58 0h5.72v5.72h-5.72zm8.58 0h5.72v5.72h-5.72zm8.58 0h5.72v5.72h-5.72zm8.58 0h5.72v5.72h-5.72zm8.58 0h5.72v5.72h-5.72zm8.58 0h5.72v5.72h-5.72zm8.58 0h5.72v5.72h-5.72zm8.58 0h5.72v5.72h-5.72zm8.58 0h5.72v5.72h-5.72zm8.58 0h5.72v5.72h-5.72zm8.58 0h5.72v5.72h-5.72zm8.58 0h5.72v5.72h-5.72zm8.58 0h5.72v5.72h-5.72zm8.58 0h5.72v5.72h-5.72zm8.58 0h5.72v5.72h-5.72zm8.58 0h5.72v5.72h-5.72zm8.58 0h5.72v5.72h-5.72zm8.58 0h5.72v5.72h-5.72zm8.58 0h5.72v5.72h-5.72zm8.58 0h5.72v5.72h-5.72zm8.58 0h5.72v5.72h-5.72z"></path><rect fill="#FFF" x="10.01" y="41.47" width="245.96" height="397.54" rx="2.86"></rect></g><path d="M848.752 658.808h3.396v-3.087h-3.396v3.087zm-4.013 0h3.396v-3.087h-3.396v3.087zm-4.014 0h3.397v-3.087h-3.397v3.087zm-4.013 0h3.396v-3.087h-3.396v3.087zm-4.013 0h3.396v-3.087h-3.396v3.087zm4.013-3.705h3.396v-3.087h-3.396v3.087zm4.013 0h3.397v-3.087h-3.397v3.087zm4.014 0h3.396v-3.087h-3.396v3.087zm0-3.704h3.396v-3.088h-3.396v3.088zm17.615 5.609c-.741-.496-2.445-.678-3.757-.43-.169-1.236-.857-2.307-2.11-3.275l-.72-.48-.48.72c-.615.928-.922 2.213-.821 3.445.045.433.187 1.209.633 1.89-.445.24-1.326.57-2.488.548h-22.334l-.044.257c-.21 1.238-.205 5.102 2.303 8.072 1.907 2.257 4.767 3.402 8.498 3.402 8.09 0 14.075-3.723 16.877-10.492 1.103.021 3.476.006 4.695-2.323.031-.054.104-.193.317-.634l.117-.242-.686-.458z" fill="#A3A3A3"></path><g fill="#A3A3A3"><path d="M844.282 707.725a.485.485 0 0 0-.56-.37l-.005-.005-2.842.482a5.7 5.7 0 0 0 2.288 2.863l1.1-2.66-.008-.011a.48.48 0 0 0 .027-.299m-.944-2.047a.485.485 0 0 0 .19-.834l.003-.012-2.162-1.933a5.668 5.668 0 0 0-.804 3.588l2.77-.8.003-.01zm1.262-2.182a.485.485 0 0 0 .77-.372l.012-.005.163-2.888a5.67 5.67 0 0 0-3.318 1.589l2.368 1.678.005-.002zm.837 3.031l.797.383.795-.382.198-.859-.55-.688h-.886l-.552.687zm1.653-3.412a.486.486 0 0 0 .771.37l.01.004 2.351-1.668a5.718 5.718 0 0 0-3.297-1.59l.163 2.883.003.001z"></path><path d="M855.918 708.099c-.067.293-.384.472-.71.402l-.009-.002c-.004 0-.007-.002-.01-.003-.046-.01-.103-.02-.143-.03-.188-.051-.324-.126-.494-.191-.364-.13-.665-.24-.96-.282-.149-.012-.225.059-.307.114a8.261 8.261 0 0 0-.236-.042 7.162 7.162 0 0 1-3.172 3.992c.026.063.07.198.091.222-.035.093-.087.182-.042.325.107.277.28.547.488.873.1.151.204.267.295.44.022.04.05.104.072.147.141.303.038.651-.234.782-.274.132-.614-.007-.761-.311-.021-.043-.05-.1-.068-.141-.078-.18-.105-.332-.16-.505-.125-.366-.228-.67-.378-.925-.084-.124-.186-.14-.28-.171-.018-.03-.083-.15-.118-.212a7.112 7.112 0 0 1-5.08-.013l-.124.226c-.093.025-.183.05-.237.116-.2.239-.28.623-.427.988-.054.173-.08.326-.158.505-.018.04-.048.097-.068.14v.001l-.002.001c-.147.304-.486.442-.76.31-.271-.13-.375-.479-.233-.781.02-.044.048-.107.07-.148.091-.173.194-.29.295-.44.209-.326.392-.619.499-.896.026-.092-.013-.218-.05-.31l.1-.24a7.162 7.162 0 0 1-3.174-3.964l-.24.041c-.064-.036-.193-.121-.316-.112-.294.043-.595.152-.96.283-.169.065-.305.139-.493.189-.04.01-.097.022-.143.032l-.01.003-.008.002c-.327.07-.644-.109-.71-.403-.068-.293.14-.592.465-.67l.008-.002.005-.002c.046-.01.105-.026.147-.034.191-.036.347-.027.528-.042.385-.04.703-.073.987-.162.09-.037.175-.16.236-.239l.23-.067a7.122 7.122 0 0 1 1.124-4.965l-.177-.159c-.011-.068-.026-.227-.11-.317-.217-.204-.49-.372-.819-.575-.156-.092-.3-.152-.456-.267-.034-.025-.078-.063-.114-.092l-.009-.006c-.264-.21-.324-.574-.135-.811a.53.53 0 0 1 .439-.194.655.655 0 0 1 .383.144c.038.03.089.069.123.098.147.127.237.252.362.384.271.276.496.505.742.67.13.076.229.046.327.032.031.024.138.1.199.142a7.08 7.08 0 0 1 4.59-2.208l.014-.233a.6.6 0 0 0 .178-.284c.024-.296-.014-.615-.06-.999-.026-.18-.069-.328-.076-.523-.001-.04 0-.095.001-.141l-.001-.015c0-.338.246-.612.55-.612.304 0 .55.274.55.612 0 .047.004.112.002.156-.007.195-.05.344-.075.523-.047.384-.087.703-.063.999.022.148.109.206.18.275.002.04.008.172.013.246a7.213 7.213 0 0 1 4.569 2.208l.21-.15c.07.005.227.026.333-.036.247-.166.471-.396.742-.671.125-.132.216-.258.364-.385.034-.029.085-.068.122-.097.264-.211.631-.189.82.049.19.238.13.6-.134.811-.038.03-.086.072-.121.098-.157.116-.302.175-.458.267-.329.203-.602.372-.818.575-.103.11-.095.213-.104.312l-.195.175c.474.706.83 1.508 1.031 2.384.2.868.23 1.736.116 2.57l.222.064c.04.057.122.194.237.239.284.089.602.122.987.162.18.015.337.006.528.042l.16.038c.324.078.533.377.466.67m3.498.12l-2.272-9.869a1.747 1.747 0 0 0-.952-1.183l-9.196-4.391a1.771 1.771 0 0 0-1.527 0l-9.195 4.394c-.482.23-.832.665-.951 1.183l-2.269 9.869a1.732 1.732 0 0 0 .339 1.476l6.364 7.913c.334.415.84.656 1.375.656l10.207-.002c.535 0 1.04-.24 1.375-.655l6.362-7.915c.334-.415.459-.958.34-1.476"></path><path d="M851.084 702.899l-2.15 1.925.002.006a.485.485 0 0 0 .19.834l.003.011 2.784.802a5.73 5.73 0 0 0-.12-1.845 5.738 5.738 0 0 0-.709-1.732m-4.423 5.869a.482.482 0 0 0-.444-.256.486.486 0 0 0-.41.256h-.003l-1.397 2.526a5.691 5.691 0 0 0 3.665.004l-1.4-2.53h-.01zm2.081-1.425a.483.483 0 0 0-.298.04.486.486 0 0 0-.235.63l-.004.004 1.113 2.687a5.676 5.676 0 0 0 2.294-2.882l-2.866-.485-.004.006z"></path></g><path d="M714 411.434c0 1.158-.717 2.096-1.602 2.096H486.602c-.885 0-1.602-.938-1.602-2.096V235.15a7.15 7.15 0 0 1 7.15-7.15h214.7a7.15 7.15 0 0 1 7.15 7.15v176.284z" fill="#C8F1FF"></path><path d="M526.206 371.17c1.566 0 3.05.352 3.793 1.057.124 1.097-.908 2.86-1.567 2.86-.783-.275-1.525-.432-2.432-.432-3.751 0-5.607 3.681-5.607 7.323 0 2.27.825 3.642 2.722 3.642 2.02 0 4.08-1.292 5.234-2.27.289.194.66.821.66 1.526 0 .783-.247 1.527-.99 2.232-1.318 1.253-3.544 2.31-6.76 2.31-3.71 0-6.266-1.997-6.266-6.657 0-6.108 4.246-11.591 11.172-11.591h.041zm12.118 14.254c2.02 0 5.689-3.368 6.72-9.79.04-.391.082-.509.164-.9a5.414 5.414 0 0 0-1.69-.275c-1.526 0-3.092.431-4.494 2.232-1.442 1.919-2.06 4.308-2.06 6.227 0 1.644.494 2.506 1.319 2.506h.04zm-6.637-1.762c0-2.31.824-6.344 3.916-9.28 2.638-2.585 5.853-3.212 8.781-3.212 1.937 0 4.575.587 6.224.901-.412 1.723-1.401 8.223-1.855 11.982-.206 1.606-.288 3.838-.206 4.66-1.36.548-3.916.705-4.617.705-.37 0-.454-1.605-.33-3.133.041-.509.124-1.253.165-1.566-1.608 2.545-4.782 4.699-8.12 4.699-2.391 0-3.958-1.88-3.958-5.717v-.039zm29.184-12.492c1.69 0 3.298.587 4.04 1.331-.04 1.097-.948 2.937-2.391 2.428-.619-.196-1.237-.352-2.061-.352-1.113 0-2.061.47-2.061 1.448 0 .744.577 1.293 3.339 3.134 1.979 1.37 2.762 2.584 2.762 4.307 0 2.859-2.845 5.952-7.791 5.952-2.02 0-3.793-.744-4.37-1.527-.742-1.175-.165-3.485.66-3.094 1.072.509 2.844 1.058 4.287 1.058 1.36 0 2.226-.588 2.226-1.371 0-.665-.619-1.253-3.133-2.937-2.103-1.488-2.763-2.858-2.763-4.425 0-3.25 2.928-5.952 7.215-5.952h.041zm14.22 0c1.691 0 3.299.587 4.04 1.331-.04 1.097-.947 2.937-2.39 2.428-.618-.196-1.238-.352-2.061-.352-1.113 0-2.061.47-2.061 1.448 0 .744.577 1.293 3.339 3.134 1.978 1.37 2.762 2.584 2.762 4.307 0 2.859-2.846 5.952-7.792 5.952-2.02 0-3.792-.744-4.37-1.527-.741-1.175-.164-3.485.66-3.094 1.072.509 2.844 1.058 4.287 1.058 1.36 0 2.226-.588 2.226-1.371 0-.665-.618-1.253-3.133-2.937-2.102-1.488-2.762-2.858-2.762-4.425 0-3.25 2.927-5.952 7.215-5.952h.04zm12.984 14.254c2.02 0 5.689-3.368 6.719-9.79.041-.391.084-.509.166-.9a5.422 5.422 0 0 0-1.691-.275c-1.525 0-3.092.431-4.494 2.232-1.442 1.919-2.06 4.308-2.06 6.227 0 1.644.494 2.506 1.319 2.506h.04zm-6.638-1.762c0-2.31.825-6.344 3.917-9.28 2.638-2.585 5.853-3.212 8.78-3.212 1.938 0 4.577.587 6.226.901-.412 1.723-1.401 8.223-1.855 11.982-.207 1.606-.288 3.838-.207 4.66-1.36.548-3.915.705-4.617.705-.37 0-.453-1.605-.33-3.133.042-.509.124-1.253.165-1.566-1.607 2.545-4.781 4.699-8.12 4.699-2.392 0-3.959-1.88-3.959-5.717v-.039zm28.237-7.402c1.897-2.897 4.37-5.09 7.832-5.09 2.927 0 3.875 2.584 3.34 6.265-.289 1.724-.783 4.19-1.114 6.462-.288 1.919-.494 3.641-.453 4.817-1.071.509-4.205.704-4.905.704-.289 0-.33-2.154.04-4.425.33-1.88 1.031-5.286 1.361-7.245.207-1.134.165-2.506-.99-2.506-1.525 0-5.152 2.311-6.966 11.787-.124.783-.454 1.253-.908 1.527-.617.353-1.937.667-4.616.706.495-2.389 1.278-7.284 1.855-10.886.535-3.29.742-5.405.618-6.227.701-.235 4.37-.979 4.781-.979.455 0 .537 1.214.125 4.151-.04.275-.083.704-.125.94h.125zm20.941 9.125c1.812 0 5.482-3.212 6.512-8.89.042-.313.166-.9.248-1.253-.537-.47-1.237-.783-2.35-.783-4.164 0-6.019 4.739-6.019 8.146 0 1.84.66 2.78 1.566 2.78h.042zm-2.721 4.033c-2.638 0-4.287-2.232-4.287-6.07 0-6.343 4.162-12.178 11.17-12.178 1.238 0 2.35.313 3.05.705.372-1.802 1.237-7.363 1.28-9.007 1.153-.196 3.627-.548 4.739-.548.455 0 .579.43.413 1.41-.99 5.874-2.76 17.151-3.092 19.658-.248 2.114-.288 4.19-.248 5.364-1.318.549-3.998.666-4.698.666-.29 0-.454-1.801-.372-3.407.042-.509.124-1.253.124-1.37-2.061 3.21-4.906 4.777-8.039 4.777h-.04zm24.154-12.609c2.185-4.62 4.781-5.639 6.472-5.639.537 0 1.36.313 1.731.705.166 1.292-.906 3.876-1.854 4.855-.496-.235-1.113-.47-1.814-.47-1.402 0-4.164 2.076-5.895 11.004-.125.745-.371 1.058-.824 1.254-.7.391-3.463.705-4.782.744.617-3.212 1.688-9.751 2.102-13.59.124-.978.163-2.78.082-3.484.784-.352 3.876-1.018 4.576-1.018.372 0 .66 2.154.08 5.64h.126zm14.55 8.615c2.021 0 5.689-3.368 6.72-9.79.04-.391.083-.509.165-.9a5.414 5.414 0 0 0-1.69-.275c-1.526 0-3.092.431-4.494 2.232-1.442 1.919-2.061 4.308-2.061 6.227 0 1.644.494 2.506 1.32 2.506h.04zm-6.637-1.762c0-2.31.825-6.344 3.916-9.28 2.638-2.585 5.854-3.212 8.78-3.212 1.938 0 4.576.587 6.227.901-.413 1.723-1.403 8.223-1.856 11.982-.206 1.606-.29 3.838-.206 4.66-1.36.548-3.916.705-4.617.705-.37 0-.453-1.605-.33-3.133a38.06 38.06 0 0 1 .165-1.566c-1.608 2.545-4.781 4.699-8.12 4.699-2.392 0-3.96-1.88-3.96-5.717v-.039z" fill="#373535"></path><path d="M654.492 304.812c1.36 15.052-23.577 29.378-55.698 31.996-32.12 2.618-59.262-7.465-60.62-22.516-1.36-15.055 23.577-29.38 55.697-31.998 32.121-2.617 59.263 7.463 60.621 22.518" fill="#BBE6FB"></path><path d="M39.282.362c-12.253-.19-26.59 4.432-37.258 8.76a27.958 27.958 0 0 0-1.708 9.623c0 17.855 16.972 32.331 37.91 32.331 20.936 0 37.909-14.476 37.909-32.331 0-5.65-1.704-10.96-4.692-15.582C62.908 1.903 51.17.546 39.282.363" fill-opacity="0.35" fill="#FFF" mask="url(#mask-2)" transform="translate(555.532 283.697)"></path><path d="M593.757 284.056c-6.784-.393-18.475 2.968-28.225 6.322a26.337 26.337 0 0 0-2.304 10.768c0 15.645 14.932 28.327 30.728 28.327 15.692 0 29.575-12.703 30.728-28.327.374-5.087-1.47-9.882-4.03-14.015-10.107-1.691-20.834-2.724-26.897-3.075" fill="#FFF"></path><path d="M576.349 299.093c.832-1.751 2.092-2.609 3.314-4.076-.136-.348-.433-1.484-.433-1.878 0-1.759 1.502-3.186 3.354-3.186.438 0 .855.082 1.237.227 5.552-4.02 12.86-5.772 20.206-4.212.67.143 1.328.317 1.974.508-7.26-.956-15.442 1.487-21.007 5.753.17.381.642 1.47.642 1.909 0 1.759-1.2 2.188-3.052 2.188-.42 0-.822-.077-1.194-.212-1.257 1.604-2.798 4.66-3.552 6.569 3.078 2.615 5.858 3.563 9.482 4.85-.01-.165.125-.317.125-.484 0-5.305 4.916-9.616 10.502-9.616 5.004 0 9.148 3.458 9.958 7.993 2.497-1.51 4.912-2.666 6.752-4.903-.43-.497-.892-1.906-.892-2.6 0-1.596 1.364-2.89 3.044-2.89.238 0 .466.032.688.08a24.417 24.417 0 0 0 2.09-5.75c-8.733-6.141-25.63-5.304-25.63-5.304s-13.446-.666-22.55 3.548c.608 4.169 2.359 8.133 4.942 11.486" fill="#373535"></path><path d="M618.092 296.7c.617.528.954.992 1.219 1.444.817 1.395-.822 2.672-2.502 2.672-.171 0-.336-.023-.5-.049-1.894 2.812-5.21 6.417-8.156 8.23 4.517.704 8.778 2.423 12.168 5.079 2.469-4.202 4.362-10.27 4.362-15.424 0-3.923-1.822-6.798-4.575-8.908-.144 2.102-1.325 5.04-2.016 6.956m-36.675 26.613c1.506-3.949 5.21-7.009 8.712-9.7-.513-.667-1.282-2.317-1.602-3.1-4.272-1.233-8.052-3.543-10.984-6.601-.022.088-.048.175-.07.264a20.068 20.068 0 0 0-.379 7.002c2.045.362 3.594 2.065 3.594 4.113 0 1.215-1.12 2.975-1.991 3.741.946 1.938 1.59 2.873 2.72 4.281" fill="#373535"></path><path d="M581.153 326.628c-1.796-1.696-3.038-5.079-4.203-7.203a4.6 4.6 0 0 1-.67.054c-2.435 0-4.987-1.941-4.41-4.188.32-1.243 1.223-2.056 2.694-2.735-.335-2.575-.426-6.277.204-8.954.18-.767.562-1.126.815-1.855-2.686-3.735-4.423-8.638-4.423-13.502 0-.178.01-.353.014-.53-4.541 2.164-7.946 5.572-7.946 10.937 0 11.868 7.195 23.51 17.902 28.073.007-.032.014-.065.023-.097m26.325-16.406c-1.383 3.738-5.124 6.422-9.532 6.422-2.358 0-4.521-.772-6.24-2.056-3.544 2.622-6.76 7.228-8.394 11.223.733.75 1.244 1.366 2.067 2.031 2.48.614 5.893 0 8.578 0 10.794 0 20.354-4.561 25.836-12.56-3.645-2.398-7.943-4.68-12.315-5.06" fill="#373535"></path><path d="M576.072 300.48a23.05 23.05 0 0 1 3.096-4.839 3.042 3.042 0 0 1-.215-1.115c0-1.759 1.502-3.186 3.355-3.186a3.5 3.5 0 0 1 1.236.226c5.552-4.018 12.861-5.77 20.206-4.21.67.143 1.328.316 1.974.507-7.259-.956-14.76 1.158-20.325 5.426.17.38.263.799.263 1.237 0 1.76-1.502 3.187-3.354 3.187a3.52 3.52 0 0 1-1.195-.212 21.169 21.169 0 0 0-3.04 5.286c2.644 2.706 5.888 4.846 9.512 6.132-.009-.164-.027-.326-.027-.493 0-5.305 4.527-9.606 10.112-9.606 5.005 0 9.15 3.457 9.958 7.993a25.794 25.794 0 0 0 6.556-5.684 2.772 2.772 0 0 1-.696-1.818c0-1.597 1.364-2.891 3.044-2.891a3.2 3.2 0 0 1 .69.081 24.45 24.45 0 0 0 2.089-5.751c-8.733-6.142-25.631-5.304-25.631-5.304s-13.446-.667-22.549 3.548c.607 4.17 2.358 8.132 4.94 11.486" fill="#1287B1"></path><path d="M618.564 297.173c.616.528 1.013 1.286 1.013 2.138 0 1.596-1.364 2.891-3.045 2.891-.17 0-.335-.022-.5-.048a24.042 24.042 0 0 1-7.35 7.022c4.356.647 8.456 2.403 11.845 5.059 2.47-4.202 3.88-9.042 3.88-14.196 0-3.923-1.823-6.798-4.575-8.908a22.256 22.256 0 0 1-1.268 6.042m-36.682 27.089c1.506-3.95 4.121-7.493 7.624-10.184a9.484 9.484 0 0 1-1.256-2.177c-4.273-1.234-8.052-3.545-10.983-6.603-.022.09-.05.176-.071.265a20.035 20.035 0 0 0-.379 7.002c2.045.362 3.594 2.065 3.594 4.113 0 1.215-.549 2.307-1.419 3.073a24.948 24.948 0 0 0 2.89 4.51" fill="#1287B1"></path><path d="M581.141 326.58a23.47 23.47 0 0 1-4.467-5.767c-.22.032-.443.053-.67.053-2.436 0-4.41-1.875-4.41-4.188 0-1.658 1.017-3.087 2.488-3.766a22.084 22.084 0 0 1 .41-7.924c.18-.765.4-1.512.653-2.243-2.687-3.734-4.261-8.25-4.261-13.114 0-.177.009-.353.013-.528-4.541 2.162-7.946 5.572-7.946 10.936 0 11.868 7.46 22.074 18.167 26.637.007-.031.014-.064.023-.096m26.06-14.971c-1.383 3.738-5.123 6.422-9.532 6.422-2.358 0-4.521-.772-6.24-2.056-3.544 2.622-6.22 6.196-7.852 10.192a26.62 26.62 0 0 0 2.338 2.12 32.31 32.31 0 0 0 7.765.942c10.794 0 20.284-5.294 25.766-13.293-3.645-2.398-7.873-3.947-12.245-4.327" fill="#1287B1"></path><path fill="#FFF" mask="url(#mask-4)" d="M30.727 19.562l9.342-2.117-9.377-.455 7.632-5.54-8.66 2.949 5.885-7.747-8.128 5.131 2.841-9.068-5.582 7.475-.127-9.446-3.672 8.414L17.819.643l.165 10.03-5.292-8.99 2.864 9.546-8.585-5.931 6.724 8.027L3.038 9.602l8.411 5.912-10.786.315 11.028 2.704L.654 20.799l10.894.75-9.187 5.589 9.461-3.257-6.564 7.897 8.294-6.355-2.987 10.597 6.404-8.624-.897 10.186 3.635-9.234 3.094 9.705.752-9.734 4.593 8.305-2.714-9.499 8.41 6.188-5.429-7.89 9.226 3.415-7.054-6.586 9.46.706z" transform="translate(576.829 289.571)"></path><path d="M.655 50.9C29.629 23.377 52.77 14.88 73.77 11.002c2.78-.513 3.305-6.281 3.305-6.281s.389 4.248 2.334 4.802c1.944.554 4.471-6.65 4.471-6.65s-2.333 6.466 0 6.835c2.335.37 6.612-6.28 6.612-6.28s-1.75 5.725-.583 6.095c1.166.37 7-8.312 7-8.312s-3.5 5.726-.195 6.28c3.307.555 8.13-3.908 8.13-3.908s-3.792 4.083-2.102 4.647c7.196 2.402 13.018-6.481 13.018-6.481s-1.35 3.895-4.85 8.144c7.583 1.847 13.215-9.005 13.215-9.005l-5.632 10.852C121.411 13.218 133.08.472 133.08.472s-6.028 9.975-9.529 12.006c1.945 1.478 8.945-4.432 8.945-4.432s-5.64 6.649-3.5 7.019c3.111 2.401 14.583-12.376 14.583-12.376s-4.471 8.68-11.083 15.516c5.526 2.626 19.251-14.223 19.251-14.223s-.389 5.357-10.306 13.854c7.39-.924 16.918-14.224 16.918-14.224s-3.5 9.975-11.862 16.994c7.255-.717 18.861-17.733 18.861-17.733s-4.472 11.822-13.61 18.657c10.111 2.124 24.696-12.191 24.696-12.191s-5.737 10.16-13.224 14.315c8.362 3.048 19.835-9.513 19.835-9.513s-11.473 16.81-29.752 16.071c-5.997-.242-24.138-17.284-63.004-15.886C38.963 16.174 28.074 36.862.655 50.9" fill-opacity="0.35" fill="#373535" mask="url(#mask-6)" transform="translate(507.442 275.213)"></path><path d="M509.285 324.023c28.973-27.522 52.113-36.018 73.115-39.898 2.78-.513 3.305-6.28 3.305-6.28s.388 4.249 2.334 4.802c1.945.554 4.472-6.65 4.472-6.65s-2.334 6.466 0 6.835c2.334.369 6.611-6.28 6.611-6.28s-1.749 5.725-.584 6.095c1.167.37 7-8.313 7-8.313s-3.5 5.727-.193 6.281c3.305.555 8.13-3.908 8.13-3.908s-3.792 4.084-2.102 4.647c7.195 2.401 13.016-6.481 13.016-6.481s-1.35 3.895-4.848 8.144c7.583 1.847 13.215-9.006 13.215-9.006l-5.632 10.853c2.917 1.478 14.584-11.267 14.584-11.267s-6.027 9.974-9.527 12.005c1.944 1.478 8.944-4.432 8.944-4.432s-5.639 6.65-3.5 7.018c3.111 2.403 14.584-12.375 14.584-12.375s-4.473 8.682-11.084 15.516c5.527 2.626 19.252-14.224 19.252-14.224s-.389 5.358-10.307 13.855c7.39-.924 16.919-14.224 16.919-14.224s-3.5 9.975-11.863 16.994c7.255-.716 18.861-17.732 18.861-17.732s-4.471 11.822-13.61 18.656c10.112 2.124 24.696-12.19 24.696-12.19s-5.737 10.158-13.224 14.314c8.363 3.048 19.835-9.513 19.835-9.513s-11.472 16.81-29.753 16.071c-5.995-.243-24.136-17.285-63.003-15.886-51.336 1.847-62.226 22.535-89.644 36.573" fill="#373535"></path><path d="M507.338 329.124c15.313 7.297 29.315-1.108 46.961 3.616 13.417 3.593 29.752 8.021 51.918 4.973 22.169-3.047 41.13-12.19 50.172-28.539 2.82-7.295 14.292 1.663 14.292 1.663s-8.361-3.325-8.166-1.754c.194 1.57 12.542 7.018 12.542 7.018s-11.182-3.325-10.5-.831c.68 2.494 13.998 12.469 13.998 12.469s-15.07-10.899-16.332-9.421c-1.265 1.478 6.417 7.482 6.417 7.482s-12.737-7.482-17.211-5.276c-3.217 1.585 13.224 11.833 13.224 11.833s-10.696-7.759-13.224-5.727c-2.527 2.033 12.057 18.657 12.057 18.657s-16.53-16.994-18.182-16.163c-1.653.831 4.569 8.96 4.569 8.96s-8.166-8.499-10.402-7.02c-2.236 1.478 11.667 23.551 11.667 23.551s-15.07-22.627-21.293-18.842c9.772 20.366 6.126 23.276 6.126 23.276s-1.247-20.777-13.418-20.228c-6.125.278 2.916 15.517 2.916 15.517s-8.322-13.919-13.864-13.641c10.214 18.363 6.573 25.832 6.573 25.832s1.69-15.683-12.165-24.411c5.25 4.432-3.294 24.411-3.294 24.411s7.516-29.441-5.543-23.828c-2.064.885-.146 14.685-.146 14.685s-2.625-15.794-6.562-14.962c-2.295.483-14.585 21.889-14.585 21.889s10.064-23.137 7.002-22.167c-2.231.708-6.418 10.253-6.418 10.253s2.042-9.421 0-9.975c-2.041-.555-13.418 9.975-13.418 9.975s8.46-9.421 7-11.361c-2.21-2.94-4.8-3.077-7.875-1.94-4.473 1.657-10.5 9.421-10.5 9.421s6.008-7.861 4.958-10.806c-1.686-4.732-18.959 9.144-18.959 9.144s10.209-9.144 7.876-11.084c-2.333-1.94-15.003-1.34-18.96-1.35-11.667-.034-15.71-2.634-19.251-5.3" fill-opacity="0.35" fill="#373535"></path><path d="M506.755 327.461c15.313 7.297 29.314-1.108 46.96 3.617 13.417 3.591 29.753 8.02 51.92 4.972 22.169-3.047 41.127-12.191 50.17-28.538 2.82-7.296 14.292 1.661 14.292 1.661s-8.361-3.323-8.166-1.753c.194 1.57 12.542 7.019 12.542 7.019s-11.182-3.325-10.5-.831c.68 2.493 14 12.468 14 12.468s-15.07-10.9-16.334-9.42c-1.263 1.477 6.417 7.48 6.417 7.48s-12.737-7.48-17.21-5.275c-3.218 1.585 13.223 11.833 13.223 11.833s-10.695-7.759-13.223-5.727c-2.528 2.033 12.058 18.657 12.058 18.657s-16.53-16.994-18.183-16.163c-1.652.832 4.57 8.959 4.57 8.959s-8.168-8.497-10.404-7.019c-2.236 1.477 11.667 23.551 11.667 23.551s-15.07-22.628-21.292-18.84c9.771 20.364 6.125 23.274 6.125 23.274s-1.247-20.777-13.418-20.226c-6.125.277 2.916 15.515 2.916 15.515s-8.322-13.919-13.863-13.642c10.215 18.365 6.573 25.834 6.573 25.834s1.689-15.685-12.166-24.413c5.25 4.433-3.294 24.413-3.294 24.413s7.518-29.442-5.541-23.828c-2.064.885-.146 14.685-.146 14.685s-2.627-15.794-6.563-14.963c-2.296.484-14.585 21.89-14.585 21.89s10.063-23.137 7.001-22.166c-2.231.705-6.417 10.25-6.417 10.25s2.041-9.42 0-9.974c-2.042-.554-13.418 9.974-13.418 9.974s8.46-9.42 7-11.36c-2.21-2.939-4.801-3.076-7.875-1.938-4.474 1.655-10.5 9.42-10.5 9.42s6.007-7.863 4.958-10.807c-1.687-4.73-18.959 9.144-18.959 9.144s10.21-9.144 7.875-11.083c-2.333-1.94-15.003-1.34-18.96-1.35-11.666-.036-15.709-2.635-19.25-5.3" fill="#373535"></path><path d="M492.15 228h214.7a7.15 7.15 0 0 1 7.15 7.15v25.74H485v-25.74a7.15 7.15 0 0 1 7.15-7.15z" fill="#CCC"></path><path d="M509.31 245.875a6.434 6.434 0 0 1-6.435 6.435 6.434 6.434 0 0 1-6.435-6.435 6.434 6.434 0 0 1 6.435-6.435 6.434 6.434 0 0 1 6.435 6.435" fill="#E74C3C"></path><path d="M532.19 245.875a6.434 6.434 0 0 1-6.435 6.435 6.434 6.434 0 0 1-6.435-6.435 6.434 6.434 0 0 1 6.435-6.435 6.434 6.434 0 0 1 6.435 6.435" fill="#F1C40F"></path><path d="M553.64 245.875a6.434 6.434 0 0 1-6.435 6.435 6.434 6.434 0 0 1-6.435-6.435 6.434 6.434 0 0 1 6.435-6.435 6.434 6.434 0 0 1 6.435 6.435" fill="#2ECC71"></path><g transform="translate(520 442)"><rect fill="#FF003C" fill-rule="nonzero" width="160.3" height="83.3" rx="3.5"></rect><path d="M49.703 44.17h4.101q-.232 3.212-2.372 5.058-2.14 1.845-5.64 1.845-3.828 0-6.022-2.577-2.194-2.577-2.194-7.075v-1.217q0-2.87 1.011-5.058 1.012-2.188 2.892-3.357t4.368-1.169q3.446 0 5.551 1.846 2.106 1.846 2.434 5.182H49.73q-.15-1.928-1.073-2.796-.923-.868-2.81-.868-2.05 0-3.07 1.47-1.018 1.469-1.045 4.559v1.504q0 3.226.978 4.717.977 1.49 3.083 1.49 1.9 0 2.836-.868.937-.869 1.074-2.687zm10.16-13.276v16.611h8.708V50.8h-12.81V30.894h4.101zM83.064 50.8l-1.381-4.102h-7.192L73.125 50.8h-4.361l7.41-19.906h3.8L87.427 50.8h-4.361zm-4.99-14.875L75.6 43.376h4.976l-2.502-7.451zm14.835-5.031V50.8h-4.102V30.894h4.102zm3.063 0h5.36l5.113 14.437 5.086-14.437h5.387V50.8h-4.115v-5.441l.41-9.393L107.84 50.8h-2.817l-5.36-14.82.411 9.379V50.8h-4.102V30.894z" fill="#FFF" fill-rule="nonzero"></path></g><g transform="translate(592 526)" fill-rule="nonzero"><path fill="#9EEBCF" d="M7-1v19H4V-1z"></path><circle stroke="#9EEBCF" stroke-width="3" fill="#FFF" cx="5.5" cy="-1.5" r="6.5"></circle><path fill="#9EEBCF" d="M5.5 22L0 14h11z"></path></g><path d="M514.164 554.695l-10.966 28.563h-2.873l10.985-28.563h2.854zm4.806 2.024h3.342v4.733h3.65v2.584h-3.65v12.122q0 1.175.488 1.762t1.662.587q.578 0 1.59-.217V581q-1.32.361-2.566.361-2.24 0-3.378-1.355t-1.138-3.848v-12.122h-3.56v-2.584h3.56v-4.733zm10.876 4.733h3.161l.09 2.168q2.15-2.53 5.8-2.53 4.101 0 5.582 3.144.976-1.409 2.539-2.276 1.563-.867 3.694-.867 6.432 0 6.54 6.81V581h-3.342v-12.9q0-2.095-.957-3.134-.958-1.039-3.216-1.039-1.861 0-3.09 1.111-1.228 1.111-1.427 2.99V581h-3.36v-12.81q0-4.263-4.173-4.263-3.289 0-4.499 2.8V581h-3.342v-19.548zm48.96 9.684v.307q0 4.462-2.042 7.19-2.041 2.728-5.528 2.728-3.56 0-5.6-2.258v9.413h-3.343v-27.064h3.053l.163 2.168q2.041-2.53 5.673-2.53 3.523 0 5.573 2.657 2.05 2.655 2.05 7.389zm-3.343-.073q0-3.306-1.409-5.22-1.409-1.916-3.866-1.916-3.035 0-4.553 2.692v9.34q1.5 2.674 4.59 2.674 2.402 0 3.82-1.906 1.418-1.906 1.418-5.664zm19.223-16.368l-10.966 28.563h-2.873l10.985-28.563h2.854zm2.8 16.621v-.253q0-4.498 2.132-7.235t5.583-2.737q3.432 0 5.438 2.348V553.25h3.342V581h-3.071l-.163-2.096q-2.005 2.457-5.582 2.457-3.397 0-5.538-2.782-2.14-2.782-2.14-7.263zm3.343.127q0 3.324 1.373 5.203 1.373 1.879 3.794 1.879 3.18 0 4.643-2.855v-8.979q-1.5-2.764-4.607-2.764-2.457 0-3.83 1.897-1.373 1.897-1.373 5.619zm33.91 9.557h-3.505q-.289-.578-.47-2.06-2.33 2.421-5.564 2.421-2.89 0-4.742-1.635-1.852-1.635-1.852-4.146 0-3.053 2.321-4.742 2.322-1.69 6.531-1.69h3.252v-1.535q0-1.753-1.047-2.791-1.048-1.04-3.09-1.04-1.788 0-2.999.904-1.21.903-1.21 2.186h-3.36q0-1.463 1.038-2.827 1.04-1.364 2.819-2.16 1.78-.794 3.911-.794 3.378 0 5.293 1.689 1.915 1.69 1.988 4.652v8.997q0 2.692.686 4.282V581zm-9.051-2.547q1.572 0 2.98-.813 1.41-.813 2.042-2.114v-4.01h-2.62q-6.142 0-6.142 3.594 0 1.572 1.048 2.457 1.048.886 2.692.886zm14.796-21.734h3.343v4.733h3.65v2.584h-3.65v12.122q0 1.175.487 1.762.488.587 1.663.587.578 0 1.59-.217V581q-1.32.361-2.566.361-2.24 0-3.378-1.355-1.139-1.355-1.139-3.848v-12.122h-3.559v-2.584h3.56v-4.733zM666.952 581h-3.505q-.29-.578-.47-2.06-2.33 2.421-5.564 2.421-2.891 0-4.743-1.635-1.852-1.635-1.852-4.146 0-3.053 2.322-4.742 2.321-1.69 6.53-1.69h3.253v-1.535q0-1.753-1.048-2.791-1.048-1.04-3.09-1.04-1.788 0-2.998.904-1.21.903-1.21 2.186h-3.361q0-1.463 1.039-2.827 1.038-1.364 2.818-2.16 1.78-.794 3.911-.794 3.379 0 5.294 1.689 1.915 1.69 1.987 4.652v8.997q0 2.692.687 4.282V581zm-9.052-2.547q1.572 0 2.981-.813 1.41-.813 2.042-2.114v-4.01h-2.62q-6.142 0-6.142 3.594 0 1.572 1.047 2.457 1.048.886 2.692.886zm211.264-23.758l-10.966 28.563h-2.873l10.985-28.563h2.854zm4.806 2.024h3.342v4.733h3.65v2.584h-3.65v12.122q0 1.175.488 1.762t1.662.587q.578 0 1.59-.217V581q-1.32.361-2.566.361-2.24 0-3.378-1.355t-1.138-3.848v-12.122h-3.56v-2.584h3.56v-4.733zm10.876 4.733h3.161l.09 2.168q2.15-2.53 5.8-2.53 4.101 0 5.582 3.144.976-1.409 2.539-2.276 1.563-.867 3.694-.867 6.432 0 6.54 6.81V581h-3.342v-12.9q0-2.095-.957-3.134-.958-1.039-3.216-1.039-1.861 0-3.09 1.111-1.228 1.111-1.427 2.99V581h-3.36v-12.81q0-4.263-4.173-4.263-3.289 0-4.499 2.8V581h-3.342v-19.548zm48.96 9.684v.307q0 4.462-2.042 7.19-2.041 2.728-5.528 2.728-3.56 0-5.6-2.258v9.413h-3.343v-27.064h3.053l.163 2.168q2.041-2.53 5.673-2.53 3.523 0 5.573 2.657 2.05 2.655 2.05 7.389zm-3.343-.073q0-3.306-1.409-5.22-1.409-1.916-3.866-1.916-3.035 0-4.553 2.692v9.34q1.5 2.674 4.59 2.674 2.402 0 3.82-1.906 1.418-1.906 1.418-5.664zm19.223-16.368l-10.966 28.563h-2.873l10.985-28.563h2.854zm2.8 16.621v-.253q0-4.498 2.132-7.235t5.583-2.737q3.432 0 5.438 2.348V553.25h3.342V581h-3.071l-.163-2.096q-2.005 2.457-5.582 2.457-3.397 0-5.538-2.782-2.14-2.782-2.14-7.263zm3.343.127q0 3.324 1.373 5.203 1.373 1.879 3.794 1.879 3.18 0 4.643-2.855v-8.979q-1.5-2.764-4.607-2.764-2.457 0-3.83 1.897-1.373 1.897-1.373 5.619zm33.91 9.557h-3.505q-.289-.578-.47-2.06-2.33 2.421-5.564 2.421-2.89 0-4.742-1.635-1.852-1.635-1.852-4.146 0-3.053 2.321-4.742 2.322-1.69 6.531-1.69h3.252v-1.535q0-1.753-1.047-2.791-1.048-1.04-3.09-1.04-1.788 0-2.999.904-1.21.903-1.21 2.186h-3.36q0-1.463 1.038-2.827 1.04-1.364 2.819-2.16 1.78-.794 3.911-.794 3.378 0 5.293 1.689 1.915 1.69 1.988 4.652v8.997q0 2.692.686 4.282V581zm-9.051-2.547q1.572 0 2.98-.813 1.41-.813 2.042-2.114v-4.01h-2.62q-6.142 0-6.142 3.594 0 1.572 1.048 2.457 1.048.886 2.692.886zm14.796-21.734h3.343v4.733h3.65v2.584h-3.65v12.122q0 1.175.487 1.762.488.587 1.663.587.578 0 1.59-.217V581q-1.32.361-2.566.361-2.24 0-3.378-1.355-1.139-1.355-1.139-3.848v-12.122h-3.559v-2.584h3.56v-4.733zM1021.952 581h-3.505q-.29-.578-.47-2.06-2.33 2.421-5.564 2.421-2.891 0-4.743-1.635-1.852-1.635-1.852-4.146 0-3.053 2.322-4.742 2.321-1.69 6.53-1.69h3.253v-1.535q0-1.753-1.048-2.791-1.048-1.04-3.09-1.04-1.788 0-2.998.904-1.21.903-1.21 2.186h-3.361q0-1.463 1.039-2.827 1.038-1.364 2.818-2.16 1.78-.794 3.911-.794 3.379 0 5.294 1.689 1.915 1.69 1.987 4.652v8.997q0 2.692.687 4.282V581zm-9.052-2.547q1.572 0 2.981-.813 1.41-.813 2.042-2.114v-4.01h-2.62q-6.142 0-6.142 3.594 0 1.572 1.047 2.457 1.048.886 2.692.886z" fill="#000" fill-rule="nonzero"></path><g transform="translate(875 442)"><rect fill="#FF003C" fill-rule="nonzero" width="160.3" height="83.3" rx="3.5"></rect><path d="M49.703 44.17h4.101q-.232 3.212-2.372 5.058-2.14 1.845-5.64 1.845-3.828 0-6.022-2.577-2.194-2.577-2.194-7.075v-1.217q0-2.87 1.011-5.058 1.012-2.188 2.892-3.357t4.368-1.169q3.446 0 5.551 1.846 2.106 1.846 2.434 5.182H49.73q-.15-1.928-1.073-2.796-.923-.868-2.81-.868-2.05 0-3.07 1.47-1.018 1.469-1.045 4.559v1.504q0 3.226.978 4.717.977 1.49 3.083 1.49 1.9 0 2.836-.868.937-.869 1.074-2.687zm10.16-13.276v16.611h8.708V50.8h-12.81V30.894h4.101zM83.064 50.8l-1.381-4.102h-7.192L73.125 50.8h-4.361l7.41-19.906h3.8L87.427 50.8h-4.361zm-4.99-14.875L75.6 43.376h4.976l-2.502-7.451zm14.835-5.031V50.8h-4.102V30.894h4.102zm3.063 0h5.36l5.113 14.437 5.086-14.437h5.387V50.8h-4.115v-5.441l.41-9.393L107.84 50.8h-2.817l-5.36-14.82.411 9.379V50.8h-4.102V30.894z" fill="#FFF" fill-rule="nonzero"></path></g><g transform="translate(947 526)" fill-rule="nonzero"><path fill="#9EEBCF" d="M7-1v19H4V-1z"></path><circle stroke="#9EEBCF" stroke-width="3" fill="#FFF" cx="5.5" cy="-1.5" r="6.5"></circle><path fill="#9EEBCF" d="M5.5 22L0 14h11z"></path></g></g></svg>