<svg viewBox="0 0 1200 900" xmlns="http://www.w3.org/2000/svg"><g fill="none" fill-rule="evenodd"><path d="M732.98 646.917v27.17a7.15 7.15 0 0 1-7.15 7.15H474.15a7.15 7.15 0 0 1-7.15-7.15v-27.17a7.15 7.15 0 0 1 7.15-7.15h251.68a7.15 7.15 0 0 1 7.15 7.15z" fill="#D2D2D2"></path><path fill="#A3A3A3" d="M511.33 648.347h5.72v5.72h-5.72zm0 8.58h5.72v5.72h-5.72zm0 8.58h5.72v5.72h-5.72zm8.58-17.16h5.72v5.72h-5.72zm0 8.58h5.72v5.72h-5.72zm0 8.58h5.72v5.72h-5.72zm8.58-17.16h5.72v5.72h-5.72zm0 8.58h5.72v5.72h-5.72zm0 8.58h5.72v5.72h-5.72zm8.58-17.16h5.72v5.72h-5.72zm0 8.58h5.72v5.72h-5.72zm0 8.58h5.72v5.72h-5.72zm8.58-17.16h5.72v5.72h-5.72zm0 8.58h5.72v5.72h-5.72zm0 8.58h5.72v5.72h-5.72zm8.58-17.16h5.72v5.72h-5.72zm0 8.58h5.72v5.72h-5.72zm0 8.58h5.72v5.72h-5.72zm8.58-17.16h5.72v5.72h-5.72zm0 8.58h5.72v5.72h-5.72zm0 8.58h5.72v5.72h-5.72zm8.58-17.16h5.72v5.72h-5.72zm0 8.58h5.72v5.72h-5.72zm0 8.58h5.72v5.72h-5.72zm8.58-17.16h5.72v5.72h-5.72zm0 8.58h5.72v5.72h-5.72zm0 8.58h5.72v5.72h-5.72zm8.58-17.16h5.72v5.72h-5.72zm0 8.58h5.72v5.72h-5.72zm0 8.58h5.72v5.72h-5.72zm8.58-17.16h5.72v5.72h-5.72zm0 8.58h5.72v5.72h-5.72zm0 8.58h5.72v5.72h-5.72zm8.58-17.16h5.72v5.72h-5.72zm0 8.58h5.72v5.72h-5.72zm0 8.58h5.72v5.72h-5.72zm8.58-17.16h5.72v5.72h-5.72zm0 8.58h5.72v5.72h-5.72zm0 8.58h5.72v5.72h-5.72zm8.58-17.16h5.72v5.72h-5.72zm0 8.58h5.72v5.72h-5.72zm0 8.58h5.72v5.72h-5.72zm8.58-17.16h5.72v5.72h-5.72zm0 8.58h5.72v5.72h-5.72zm0 8.58h5.72v5.72h-5.72zm8.58-17.16h5.72v5.72h-5.72zm0 8.58h5.72v5.72h-5.72zm0 8.58h5.72v5.72h-5.72zm8.58-17.16h5.72v5.72h-5.72zm0 8.58h5.72v5.72h-5.72zm0 8.58h5.72v5.72h-5.72zm8.58-17.16h5.72v5.72h-5.72zm0 8.58h5.72v5.72h-5.72zm0 8.58h5.72v5.72h-5.72zm8.58-17.16h5.72v5.72h-5.72zm0 8.58h5.72v5.72h-5.72zm0 8.58h5.72v5.72h-5.72zm8.58-17.16h5.72v5.72h-5.72zm0 8.58h5.72v5.72h-5.72zm0 8.58h5.72v5.72h-5.72zm8.58-17.16h5.72v5.72h-5.72zm0 8.58h5.72v5.72h-5.72zm0 8.58h5.72v5.72h-5.72zm8.58-17.16h5.72v5.72h-5.72zm0 8.58h5.72v5.72h-5.72zm0 8.58h5.72v5.72h-5.72zm8.58-17.16h5.72v5.72h-5.72zm0 8.58h5.72v5.72h-5.72zm0 8.58h5.72v5.72h-5.72zm8.58-17.16h5.72v5.72h-5.72zm0 8.58h5.72v5.72h-5.72zm0 8.58h5.72v5.72h-5.72zm8.58-17.16h5.72v5.72h-5.72zm0 8.58h5.72v5.72h-5.72zm0 8.58h5.72v5.72h-5.72z"></path><path d="M732.98 692.595v27.17a7.15 7.15 0 0 1-7.15 7.15H474.15a7.15 7.15 0 0 1-7.15-7.15v-27.17a7.15 7.15 0 0 1 7.15-7.15h251.68a7.15 7.15 0 0 1 7.15 7.15z" fill="#D2D2D2"></path><path fill="#A3A3A3" d="M511.33 694.025h5.72v5.72h-5.72zm0 8.58h5.72v5.72h-5.72zm0 8.58h5.72v5.72h-5.72zm8.58-17.16h5.72v5.72h-5.72zm0 8.58h5.72v5.72h-5.72zm0 8.58h5.72v5.72h-5.72zm8.58-17.16h5.72v5.72h-5.72zm0 8.58h5.72v5.72h-5.72zm0 8.58h5.72v5.72h-5.72zm8.58-17.16h5.72v5.72h-5.72zm0 8.58h5.72v5.72h-5.72zm0 8.58h5.72v5.72h-5.72zm8.58-17.16h5.72v5.72h-5.72zm0 8.58h5.72v5.72h-5.72zm0 8.58h5.72v5.72h-5.72zm8.58-17.16h5.72v5.72h-5.72zm0 8.58h5.72v5.72h-5.72zm0 8.58h5.72v5.72h-5.72zm8.58-17.16h5.72v5.72h-5.72zm0 8.58h5.72v5.72h-5.72zm0 8.58h5.72v5.72h-5.72zm8.58-17.16h5.72v5.72h-5.72zm0 8.58h5.72v5.72h-5.72zm0 8.58h5.72v5.72h-5.72zm8.58-17.16h5.72v5.72h-5.72zm0 8.58h5.72v5.72h-5.72zm0 8.58h5.72v5.72h-5.72zm8.58-17.16h5.72v5.72h-5.72zm0 8.58h5.72v5.72h-5.72zm0 8.58h5.72v5.72h-5.72zm8.58-17.16h5.72v5.72h-5.72zm0 8.58h5.72v5.72h-5.72zm0 8.58h5.72v5.72h-5.72zm8.58-17.16h5.72v5.72h-5.72zm0 8.58h5.72v5.72h-5.72zm0 8.58h5.72v5.72h-5.72zm8.58-17.16h5.72v5.72h-5.72zm0 8.58h5.72v5.72h-5.72zm0 8.58h5.72v5.72h-5.72zm8.58-17.16h5.72v5.72h-5.72zm0 8.58h5.72v5.72h-5.72zm0 8.58h5.72v5.72h-5.72zm8.58-17.16h5.72v5.72h-5.72zm0 8.58h5.72v5.72h-5.72zm0 8.58h5.72v5.72h-5.72zm8.58-17.16h5.72v5.72h-5.72zm0 8.58h5.72v5.72h-5.72zm0 8.58h5.72v5.72h-5.72zm8.58-17.16h5.72v5.72h-5.72zm0 8.58h5.72v5.72h-5.72zm0 8.58h5.72v5.72h-5.72zm8.58-17.16h5.72v5.72h-5.72zm0 8.58h5.72v5.72h-5.72zm0 8.58h5.72v5.72h-5.72zm8.58-17.16h5.72v5.72h-5.72zm0 8.58h5.72v5.72h-5.72zm0 8.58h5.72v5.72h-5.72zm8.58-17.16h5.72v5.72h-5.72zm0 8.58h5.72v5.72h-5.72zm0 8.58h5.72v5.72h-5.72zm8.58-17.16h5.72v5.72h-5.72zm0 8.58h5.72v5.72h-5.72zm0 8.58h5.72v5.72h-5.72zm8.58-17.16h5.72v5.72h-5.72zm0 8.58h5.72v5.72h-5.72zm0 8.58h5.72v5.72h-5.72zm8.58-17.16h5.72v5.72h-5.72zm0 8.58h5.72v5.72h-5.72zm0 8.58h5.72v5.72h-5.72zm8.58-17.16h5.72v5.72h-5.72zm0 8.58h5.72v5.72h-5.72zm0 8.58h5.72v5.72h-5.72zm8.58-17.16h5.72v5.72h-5.72zm0 8.58h5.72v5.72h-5.72zm0 8.58h5.72v5.72h-5.72z"></path><g transform="translate(467 173)"><path d="M265.98 7.15v449.02a7.15 7.15 0 0 1-7.15 7.15H7.15A7.15 7.15 0 0 1 0 456.17V7.15A7.15 7.15 0 0 1 7.15 0h251.68a7.15 7.15 0 0 1 7.15 7.15z" fill="#D2D2D2"></path><path fill="#A3A3A3" d="M10.01 8.58h5.72v5.72h-5.72zm0 8.58h5.72v5.72h-5.72zm0 8.58h5.72v5.72h-5.72zm8.58-17.16h5.72v5.72h-5.72zm0 8.58h5.72v5.72h-5.72zm0 8.58h5.72v5.72h-5.72zm8.58-17.16h5.72v5.72h-5.72zm0 8.58h5.72v5.72h-5.72zm0 8.58h5.72v5.72h-5.72zm8.58-17.16h5.72v5.72h-5.72zm0 8.58h5.72v5.72h-5.72zm0 8.58h5.72v5.72h-5.72zm8.58-17.16h5.72v5.72h-5.72zm0 8.58h5.72v5.72h-5.72zm0 8.58h5.72v5.72h-5.72zm8.58-17.16h5.72v5.72h-5.72zm0 8.58h5.72v5.72h-5.72zm0 8.58h5.72v5.72h-5.72zm8.58-17.16h5.72v5.72h-5.72zm0 8.58h5.72v5.72h-5.72zm0 8.58h5.72v5.72h-5.72zm8.58-17.16h5.72v5.72h-5.72zm0 8.58h5.72v5.72h-5.72zm0 8.58h5.72v5.72h-5.72zm8.58-17.16h5.72v5.72h-5.72zm0 8.58h5.72v5.72h-5.72zm0 8.58h5.72v5.72h-5.72zm8.58-17.16h5.72v5.72h-5.72zm0 8.58h5.72v5.72h-5.72zm0 8.58h5.72v5.72h-5.72zm8.58-17.16h5.72v5.72h-5.72zm0 8.58h5.72v5.72h-5.72zm0 8.58h5.72v5.72h-5.72zm8.58-17.16h5.72v5.72h-5.72zm0 8.58h5.72v5.72h-5.72zm0 8.58h5.72v5.72h-5.72zm8.58-17.16h5.72v5.72h-5.72zm0 8.58h5.72v5.72h-5.72zm0 8.58h5.72v5.72h-5.72zm8.58-17.16h5.72v5.72h-5.72zm0 8.58h5.72v5.72h-5.72zm0 8.58h5.72v5.72h-5.72zm8.58-17.16h5.72v5.72h-5.72zm0 8.58h5.72v5.72h-5.72zm0 8.58h5.72v5.72h-5.72zm8.58-17.16h5.72v5.72h-5.72zm0 8.58h5.72v5.72h-5.72zm0 8.58h5.72v5.72h-5.72zm8.58-17.16h5.72v5.72h-5.72zm0 8.58h5.72v5.72h-5.72zm0 8.58h5.72v5.72h-5.72zm8.58-17.16h5.72v5.72h-5.72zm0 8.58h5.72v5.72h-5.72zm0 8.58h5.72v5.72h-5.72zm8.58-17.16h5.72v5.72h-5.72zm0 8.58h5.72v5.72h-5.72zm0 8.58h5.72v5.72h-5.72zm8.58-17.16h5.72v5.72h-5.72zm0 8.58h5.72v5.72h-5.72zm0 8.58h5.72v5.72h-5.72zm8.58-17.16h5.72v5.72h-5.72zm0 8.58h5.72v5.72h-5.72zm0 8.58h5.72v5.72h-5.72zm8.58-17.16h5.72v5.72h-5.72zm0 8.58h5.72v5.72h-5.72zm0 8.58h5.72v5.72h-5.72zm8.58-17.16h5.72v5.72h-5.72zm0 8.58h5.72v5.72h-5.72zm0 8.58h5.72v5.72h-5.72zm8.58-17.16h5.72v5.72h-5.72zm0 8.58h5.72v5.72h-5.72zm0 8.58h5.72v5.72h-5.72zm8.58-17.16h5.72v5.72h-5.72zm0 8.58h5.72v5.72h-5.72zm0 8.58h5.72v5.72h-5.72zm8.58-17.16h5.72v5.72h-5.72zm0 8.58h5.72v5.72h-5.72zm0 8.58h5.72v5.72h-5.72zm8.58-17.16h5.72v5.72h-5.72zm0 8.58h5.72v5.72h-5.72zm0 8.58h5.72v5.72h-5.72zm8.58-17.16h5.72v5.72h-5.72zm0 8.58h5.72v5.72h-5.72zm0 8.58h5.72v5.72h-5.72zm8.58-17.16h5.72v5.72h-5.72zm0 8.58h5.72v5.72h-5.72zm0 8.58h5.72v5.72h-5.72zM10.01 447.59h5.72v5.72h-5.72zm8.58 0h5.72v5.72h-5.72zm8.58 0h5.72v5.72h-5.72zm8.58 0h5.72v5.72h-5.72zm8.58 0h5.72v5.72h-5.72zm8.58 0h5.72v5.72h-5.72zm8.58 0h5.72v5.72h-5.72zm8.58 0h5.72v5.72h-5.72zm8.58 0h5.72v5.72h-5.72zm8.58 0h5.72v5.72h-5.72zm8.58 0h5.72v5.72h-5.72zm8.58 0h5.72v5.72h-5.72zm8.58 0h5.72v5.72h-5.72zm8.58 0h5.72v5.72h-5.72zm8.58 0h5.72v5.72h-5.72zm8.58 0h5.72v5.72h-5.72zm8.58 0h5.72v5.72h-5.72zm8.58 0h5.72v5.72h-5.72zm8.58 0h5.72v5.72h-5.72zm8.58 0h5.72v5.72h-5.72zm8.58 0h5.72v5.72h-5.72zm8.58 0h5.72v5.72h-5.72zm8.58 0h5.72v5.72h-5.72zm8.58 0h5.72v5.72h-5.72zm8.58 0h5.72v5.72h-5.72zm8.58 0h5.72v5.72h-5.72zm8.58 0h5.72v5.72h-5.72zm8.58 0h5.72v5.72h-5.72zm8.58 0h5.72v5.72h-5.72z"></path><rect fill="#FFF" x="10.01" y="41.47" width="245.96" height="397.54" rx="2.86"></rect></g><path d="M492.752 658.808h3.396v-3.087h-3.396v3.087zm-4.013 0h3.396v-3.087h-3.396v3.087zm-4.014 0h3.397v-3.087h-3.397v3.087zm-4.013 0h3.396v-3.087h-3.396v3.087zm-4.013 0h3.396v-3.087h-3.396v3.087zm4.013-3.705h3.396v-3.087h-3.396v3.087zm4.013 0h3.397v-3.087h-3.397v3.087zm4.014 0h3.396v-3.087h-3.396v3.087zm0-3.704h3.396v-3.088h-3.396v3.088zm17.615 5.609c-.741-.496-2.445-.678-3.757-.43-.169-1.236-.857-2.307-2.11-3.275l-.72-.48-.48.72c-.615.928-.922 2.213-.821 3.445.045.433.187 1.209.633 1.89-.445.24-1.326.57-2.488.548h-22.334l-.044.257c-.21 1.238-.205 5.102 2.303 8.072 1.907 2.257 4.767 3.402 8.498 3.402 8.09 0 14.075-3.723 16.877-10.492 1.103.021 3.476.006 4.695-2.323.031-.054.104-.193.317-.634l.117-.242-.686-.458z" fill="#A3A3A3"></path><g fill="#A3A3A3"><path d="M488.282 707.725a.485.485 0 0 0-.56-.37l-.005-.005-2.842.482a5.7 5.7 0 0 0 2.288 2.863l1.1-2.66-.008-.011a.48.48 0 0 0 .027-.299m-.944-2.047a.485.485 0 0 0 .19-.834l.003-.012-2.162-1.933a5.668 5.668 0 0 0-.804 3.588l2.77-.8.003-.01zm1.262-2.182a.485.485 0 0 0 .77-.372l.012-.005.163-2.888a5.67 5.67 0 0 0-3.318 1.589l2.368 1.678.005-.002zm.837 3.031l.797.383.795-.382.198-.859-.55-.688h-.886l-.552.687zm1.653-3.412a.486.486 0 0 0 .771.37l.01.004 2.351-1.668a5.718 5.718 0 0 0-3.297-1.59l.163 2.883.003.001z"></path><path d="M499.918 708.099c-.067.293-.384.472-.71.402l-.009-.002c-.004 0-.007-.002-.01-.003-.046-.01-.103-.02-.143-.03-.188-.051-.324-.126-.494-.191-.364-.13-.665-.24-.96-.282-.149-.012-.225.059-.307.114a8.261 8.261 0 0 0-.236-.042 7.162 7.162 0 0 1-3.172 3.992c.026.063.07.198.091.222-.035.093-.087.182-.042.325.107.277.28.547.488.873.1.151.204.267.295.44.022.04.05.104.072.147.141.303.038.651-.234.782-.274.132-.614-.007-.761-.311-.021-.043-.05-.1-.068-.141-.078-.18-.105-.332-.16-.505-.125-.366-.228-.67-.378-.925-.084-.124-.186-.14-.28-.171-.018-.03-.083-.15-.118-.212a7.112 7.112 0 0 1-5.08-.013l-.124.226c-.093.025-.183.05-.237.116-.2.239-.28.623-.427.988-.054.173-.08.326-.158.505-.018.04-.048.097-.068.14v.001l-.002.001c-.147.304-.486.442-.76.31-.271-.13-.375-.479-.233-.781.02-.044.048-.107.07-.148.091-.173.194-.29.295-.44.209-.326.392-.619.499-.896.026-.092-.013-.218-.05-.31l.1-.24a7.162 7.162 0 0 1-3.174-3.964l-.24.041c-.064-.036-.193-.121-.316-.112-.294.043-.595.152-.96.283-.169.065-.305.139-.493.189-.04.01-.097.022-.143.032l-.01.003-.008.002c-.327.07-.644-.109-.71-.403-.068-.293.14-.592.465-.67l.008-.002.005-.002c.046-.01.105-.026.147-.034.191-.036.347-.027.528-.042.385-.04.703-.073.987-.162.09-.037.175-.16.236-.239l.23-.067a7.122 7.122 0 0 1 1.124-4.965l-.177-.159c-.011-.068-.026-.227-.11-.317-.217-.204-.49-.372-.819-.575-.156-.092-.3-.152-.456-.267-.034-.025-.078-.063-.114-.092l-.009-.006c-.264-.21-.324-.574-.135-.811a.53.53 0 0 1 .439-.194.655.655 0 0 1 .383.144c.038.03.089.069.123.098.147.127.237.252.362.384.271.276.496.505.742.67.13.076.229.046.327.032.031.024.138.1.199.142a7.08 7.08 0 0 1 4.59-2.208l.014-.233a.6.6 0 0 0 .178-.284c.024-.296-.014-.615-.06-.999-.026-.18-.069-.328-.076-.523-.001-.04 0-.095.001-.141l-.001-.015c0-.338.246-.612.55-.612.304 0 .55.274.55.612 0 .047.004.112.002.156-.007.195-.05.344-.075.523-.047.384-.087.703-.063.999.022.148.109.206.18.275.002.04.008.172.013.246a7.213 7.213 0 0 1 4.569 2.208l.21-.15c.07.005.227.026.333-.036.247-.166.471-.396.742-.671.125-.132.216-.258.364-.385.034-.029.085-.068.122-.097.264-.211.631-.189.82.049.19.238.13.6-.134.811-.038.03-.086.072-.121.098-.157.116-.302.175-.458.267-.329.203-.602.372-.818.575-.103.11-.095.213-.104.312l-.195.175c.474.706.83 1.508 1.031 2.384.2.868.23 1.736.116 2.57l.222.064c.04.057.122.194.237.239.284.089.602.122.987.162.18.015.337.006.528.042l.16.038c.324.078.533.377.466.67m3.498.12l-2.272-9.869a1.747 1.747 0 0 0-.952-1.183l-9.196-4.391a1.771 1.771 0 0 0-1.527 0l-9.195 4.394c-.482.23-.832.665-.951 1.183l-2.269 9.869a1.732 1.732 0 0 0 .339 1.476l6.364 7.913c.334.415.84.656 1.375.656l10.207-.002c.535 0 1.04-.24 1.375-.655l6.362-7.915c.334-.415.459-.958.34-1.476"></path><path d="M495.084 702.899l-2.15 1.925.002.006a.485.485 0 0 0 .19.834l.003.011 2.784.802a5.73 5.73 0 0 0-.12-1.845 5.738 5.738 0 0 0-.709-1.732m-4.423 5.869a.482.482 0 0 0-.444-.256.486.486 0 0 0-.41.256h-.003l-1.397 2.526a5.691 5.691 0 0 0 3.665.004l-1.4-2.53h-.01zm2.081-1.425a.483.483 0 0 0-.298.04.486.486 0 0 0-.235.63l-.004.004 1.113 2.687a5.676 5.676 0 0 0 2.294-2.882l-2.866-.485-.004.006z"></path></g><path d="M379.98 646.917v27.17a7.15 7.15 0 0 1-7.15 7.15H121.15a7.15 7.15 0 0 1-7.15-7.15v-27.17a7.15 7.15 0 0 1 7.15-7.15h251.68a7.15 7.15 0 0 1 7.15 7.15z" fill="#D2D2D2"></path><path fill="#A3A3A3" d="M158.33 648.347h5.72v5.72h-5.72zm0 8.58h5.72v5.72h-5.72zm0 8.58h5.72v5.72h-5.72zm8.58-17.16h5.72v5.72h-5.72zm0 8.58h5.72v5.72h-5.72zm0 8.58h5.72v5.72h-5.72zm8.58-17.16h5.72v5.72h-5.72zm0 8.58h5.72v5.72h-5.72zm0 8.58h5.72v5.72h-5.72zm8.58-17.16h5.72v5.72h-5.72zm0 8.58h5.72v5.72h-5.72zm0 8.58h5.72v5.72h-5.72zm8.58-17.16h5.72v5.72h-5.72zm0 8.58h5.72v5.72h-5.72zm0 8.58h5.72v5.72h-5.72zm8.58-17.16h5.72v5.72h-5.72zm0 8.58h5.72v5.72h-5.72zm0 8.58h5.72v5.72h-5.72zm8.58-17.16h5.72v5.72h-5.72zm0 8.58h5.72v5.72h-5.72zm0 8.58h5.72v5.72h-5.72zm8.58-17.16h5.72v5.72h-5.72zm0 8.58h5.72v5.72h-5.72zm0 8.58h5.72v5.72h-5.72zm8.58-17.16h5.72v5.72h-5.72zm0 8.58h5.72v5.72h-5.72zm0 8.58h5.72v5.72h-5.72zm8.58-17.16h5.72v5.72h-5.72zm0 8.58h5.72v5.72h-5.72zm0 8.58h5.72v5.72h-5.72zm8.58-17.16h5.72v5.72h-5.72zm0 8.58h5.72v5.72h-5.72zm0 8.58h5.72v5.72h-5.72zm8.58-17.16h5.72v5.72h-5.72zm0 8.58h5.72v5.72h-5.72zm0 8.58h5.72v5.72h-5.72zm8.58-17.16h5.72v5.72h-5.72zm0 8.58h5.72v5.72h-5.72zm0 8.58h5.72v5.72h-5.72zm8.58-17.16h5.72v5.72h-5.72zm0 8.58h5.72v5.72h-5.72zm0 8.58h5.72v5.72h-5.72zm8.58-17.16h5.72v5.72h-5.72zm0 8.58h5.72v5.72h-5.72zm0 8.58h5.72v5.72h-5.72zm8.58-17.16h5.72v5.72h-5.72zm0 8.58h5.72v5.72h-5.72zm0 8.58h5.72v5.72h-5.72zm8.58-17.16h5.72v5.72h-5.72zm0 8.58h5.72v5.72h-5.72zm0 8.58h5.72v5.72h-5.72zm8.58-17.16h5.72v5.72h-5.72zm0 8.58h5.72v5.72h-5.72zm0 8.58h5.72v5.72h-5.72zm8.58-17.16h5.72v5.72h-5.72zm0 8.58h5.72v5.72h-5.72zm0 8.58h5.72v5.72h-5.72zm8.58-17.16h5.72v5.72h-5.72zm0 8.58h5.72v5.72h-5.72zm0 8.58h5.72v5.72h-5.72zm8.58-17.16h5.72v5.72h-5.72zm0 8.58h5.72v5.72h-5.72zm0 8.58h5.72v5.72h-5.72zm8.58-17.16h5.72v5.72h-5.72zm0 8.58h5.72v5.72h-5.72zm0 8.58h5.72v5.72h-5.72zm8.58-17.16h5.72v5.72h-5.72zm0 8.58h5.72v5.72h-5.72zm0 8.58h5.72v5.72h-5.72zm8.58-17.16h5.72v5.72h-5.72zm0 8.58h5.72v5.72h-5.72zm0 8.58h5.72v5.72h-5.72zm8.58-17.16h5.72v5.72h-5.72zm0 8.58h5.72v5.72h-5.72zm0 8.58h5.72v5.72h-5.72z"></path><path d="M379.98 692.595v27.17a7.15 7.15 0 0 1-7.15 7.15H121.15a7.15 7.15 0 0 1-7.15-7.15v-27.17a7.15 7.15 0 0 1 7.15-7.15h251.68a7.15 7.15 0 0 1 7.15 7.15z" fill="#D2D2D2"></path><path fill="#A3A3A3" d="M158.33 694.025h5.72v5.72h-5.72zm0 8.58h5.72v5.72h-5.72zm0 8.58h5.72v5.72h-5.72zm8.58-17.16h5.72v5.72h-5.72zm0 8.58h5.72v5.72h-5.72zm0 8.58h5.72v5.72h-5.72zm8.58-17.16h5.72v5.72h-5.72zm0 8.58h5.72v5.72h-5.72zm0 8.58h5.72v5.72h-5.72zm8.58-17.16h5.72v5.72h-5.72zm0 8.58h5.72v5.72h-5.72zm0 8.58h5.72v5.72h-5.72zm8.58-17.16h5.72v5.72h-5.72zm0 8.58h5.72v5.72h-5.72zm0 8.58h5.72v5.72h-5.72zm8.58-17.16h5.72v5.72h-5.72zm0 8.58h5.72v5.72h-5.72zm0 8.58h5.72v5.72h-5.72zm8.58-17.16h5.72v5.72h-5.72zm0 8.58h5.72v5.72h-5.72zm0 8.58h5.72v5.72h-5.72zm8.58-17.16h5.72v5.72h-5.72zm0 8.58h5.72v5.72h-5.72zm0 8.58h5.72v5.72h-5.72zm8.58-17.16h5.72v5.72h-5.72zm0 8.58h5.72v5.72h-5.72zm0 8.58h5.72v5.72h-5.72zm8.58-17.16h5.72v5.72h-5.72zm0 8.58h5.72v5.72h-5.72zm0 8.58h5.72v5.72h-5.72zm8.58-17.16h5.72v5.72h-5.72zm0 8.58h5.72v5.72h-5.72zm0 8.58h5.72v5.72h-5.72zm8.58-17.16h5.72v5.72h-5.72zm0 8.58h5.72v5.72h-5.72zm0 8.58h5.72v5.72h-5.72zm8.58-17.16h5.72v5.72h-5.72zm0 8.58h5.72v5.72h-5.72zm0 8.58h5.72v5.72h-5.72zm8.58-17.16h5.72v5.72h-5.72zm0 8.58h5.72v5.72h-5.72zm0 8.58h5.72v5.72h-5.72zm8.58-17.16h5.72v5.72h-5.72zm0 8.58h5.72v5.72h-5.72zm0 8.58h5.72v5.72h-5.72zm8.58-17.16h5.72v5.72h-5.72zm0 8.58h5.72v5.72h-5.72zm0 8.58h5.72v5.72h-5.72zm8.58-17.16h5.72v5.72h-5.72zm0 8.58h5.72v5.72h-5.72zm0 8.58h5.72v5.72h-5.72zm8.58-17.16h5.72v5.72h-5.72zm0 8.58h5.72v5.72h-5.72zm0 8.58h5.72v5.72h-5.72zm8.58-17.16h5.72v5.72h-5.72zm0 8.58h5.72v5.72h-5.72zm0 8.58h5.72v5.72h-5.72zm8.58-17.16h5.72v5.72h-5.72zm0 8.58h5.72v5.72h-5.72zm0 8.58h5.72v5.72h-5.72zm8.58-17.16h5.72v5.72h-5.72zm0 8.58h5.72v5.72h-5.72zm0 8.58h5.72v5.72h-5.72zm8.58-17.16h5.72v5.72h-5.72zm0 8.58h5.72v5.72h-5.72zm0 8.58h5.72v5.72h-5.72zm8.58-17.16h5.72v5.72h-5.72zm0 8.58h5.72v5.72h-5.72zm0 8.58h5.72v5.72h-5.72zm8.58-17.16h5.72v5.72h-5.72zm0 8.58h5.72v5.72h-5.72zm0 8.58h5.72v5.72h-5.72zm8.58-17.16h5.72v5.72h-5.72zm0 8.58h5.72v5.72h-5.72zm0 8.58h5.72v5.72h-5.72z"></path><g transform="translate(114 173)"><path d="M265.98 7.15v449.02a7.15 7.15 0 0 1-7.15 7.15H7.15A7.15 7.15 0 0 1 0 456.17V7.15A7.15 7.15 0 0 1 7.15 0h251.68a7.15 7.15 0 0 1 7.15 7.15z" fill="#D2D2D2"></path><path fill="#A3A3A3" d="M10.01 8.58h5.72v5.72h-5.72zm0 8.58h5.72v5.72h-5.72zm0 8.58h5.72v5.72h-5.72zm8.58-17.16h5.72v5.72h-5.72zm0 8.58h5.72v5.72h-5.72zm0 8.58h5.72v5.72h-5.72zm8.58-17.16h5.72v5.72h-5.72zm0 8.58h5.72v5.72h-5.72zm0 8.58h5.72v5.72h-5.72zm8.58-17.16h5.72v5.72h-5.72zm0 8.58h5.72v5.72h-5.72zm0 8.58h5.72v5.72h-5.72zm8.58-17.16h5.72v5.72h-5.72zm0 8.58h5.72v5.72h-5.72zm0 8.58h5.72v5.72h-5.72zm8.58-17.16h5.72v5.72h-5.72zm0 8.58h5.72v5.72h-5.72zm0 8.58h5.72v5.72h-5.72zm8.58-17.16h5.72v5.72h-5.72zm0 8.58h5.72v5.72h-5.72zm0 8.58h5.72v5.72h-5.72zm8.58-17.16h5.72v5.72h-5.72zm0 8.58h5.72v5.72h-5.72zm0 8.58h5.72v5.72h-5.72zm8.58-17.16h5.72v5.72h-5.72zm0 8.58h5.72v5.72h-5.72zm0 8.58h5.72v5.72h-5.72zm8.58-17.16h5.72v5.72h-5.72zm0 8.58h5.72v5.72h-5.72zm0 8.58h5.72v5.72h-5.72zm8.58-17.16h5.72v5.72h-5.72zm0 8.58h5.72v5.72h-5.72zm0 8.58h5.72v5.72h-5.72zm8.58-17.16h5.72v5.72h-5.72zm0 8.58h5.72v5.72h-5.72zm0 8.58h5.72v5.72h-5.72zm8.58-17.16h5.72v5.72h-5.72zm0 8.58h5.72v5.72h-5.72zm0 8.58h5.72v5.72h-5.72zm8.58-17.16h5.72v5.72h-5.72zm0 8.58h5.72v5.72h-5.72zm0 8.58h5.72v5.72h-5.72zm8.58-17.16h5.72v5.72h-5.72zm0 8.58h5.72v5.72h-5.72zm0 8.58h5.72v5.72h-5.72zm8.58-17.16h5.72v5.72h-5.72zm0 8.58h5.72v5.72h-5.72zm0 8.58h5.72v5.72h-5.72zm8.58-17.16h5.72v5.72h-5.72zm0 8.58h5.72v5.72h-5.72zm0 8.58h5.72v5.72h-5.72zm8.58-17.16h5.72v5.72h-5.72zm0 8.58h5.72v5.72h-5.72zm0 8.58h5.72v5.72h-5.72zm8.58-17.16h5.72v5.72h-5.72zm0 8.58h5.72v5.72h-5.72zm0 8.58h5.72v5.72h-5.72zm8.58-17.16h5.72v5.72h-5.72zm0 8.58h5.72v5.72h-5.72zm0 8.58h5.72v5.72h-5.72zm8.58-17.16h5.72v5.72h-5.72zm0 8.58h5.72v5.72h-5.72zm0 8.58h5.72v5.72h-5.72zm8.58-17.16h5.72v5.72h-5.72zm0 8.58h5.72v5.72h-5.72zm0 8.58h5.72v5.72h-5.72zm8.58-17.16h5.72v5.72h-5.72zm0 8.58h5.72v5.72h-5.72zm0 8.58h5.72v5.72h-5.72zm8.58-17.16h5.72v5.72h-5.72zm0 8.58h5.72v5.72h-5.72zm0 8.58h5.72v5.72h-5.72zm8.58-17.16h5.72v5.72h-5.72zm0 8.58h5.72v5.72h-5.72zm0 8.58h5.72v5.72h-5.72zm8.58-17.16h5.72v5.72h-5.72zm0 8.58h5.72v5.72h-5.72zm0 8.58h5.72v5.72h-5.72zm8.58-17.16h5.72v5.72h-5.72zm0 8.58h5.72v5.72h-5.72zm0 8.58h5.72v5.72h-5.72zm8.58-17.16h5.72v5.72h-5.72zm0 8.58h5.72v5.72h-5.72zm0 8.58h5.72v5.72h-5.72zm8.58-17.16h5.72v5.72h-5.72zm0 8.58h5.72v5.72h-5.72zm0 8.58h5.72v5.72h-5.72zM10.01 447.59h5.72v5.72h-5.72zm8.58 0h5.72v5.72h-5.72zm8.58 0h5.72v5.72h-5.72zm8.58 0h5.72v5.72h-5.72zm8.58 0h5.72v5.72h-5.72zm8.58 0h5.72v5.72h-5.72zm8.58 0h5.72v5.72h-5.72zm8.58 0h5.72v5.72h-5.72zm8.58 0h5.72v5.72h-5.72zm8.58 0h5.72v5.72h-5.72zm8.58 0h5.72v5.72h-5.72zm8.58 0h5.72v5.72h-5.72zm8.58 0h5.72v5.72h-5.72zm8.58 0h5.72v5.72h-5.72zm8.58 0h5.72v5.72h-5.72zm8.58 0h5.72v5.72h-5.72zm8.58 0h5.72v5.72h-5.72zm8.58 0h5.72v5.72h-5.72zm8.58 0h5.72v5.72h-5.72zm8.58 0h5.72v5.72h-5.72zm8.58 0h5.72v5.72h-5.72zm8.58 0h5.72v5.72h-5.72zm8.58 0h5.72v5.72h-5.72zm8.58 0h5.72v5.72h-5.72zm8.58 0h5.72v5.72h-5.72zm8.58 0h5.72v5.72h-5.72zm8.58 0h5.72v5.72h-5.72zm8.58 0h5.72v5.72h-5.72zm8.58 0h5.72v5.72h-5.72z"></path><rect fill="#FFF" x="10.01" y="41.47" width="245.96" height="397.54" rx="2.86"></rect></g><path d="M139.752 658.808h3.396v-3.087h-3.396v3.087zm-4.013 0h3.396v-3.087h-3.396v3.087zm-4.014 0h3.397v-3.087h-3.397v3.087zm-4.013 0h3.396v-3.087h-3.396v3.087zm-4.013 0h3.396v-3.087h-3.396v3.087zm4.013-3.705h3.396v-3.087h-3.396v3.087zm4.013 0h3.397v-3.087h-3.397v3.087zm4.014 0h3.396v-3.087h-3.396v3.087zm0-3.704h3.396v-3.088h-3.396v3.088zm17.615 5.609c-.741-.496-2.445-.678-3.757-.43-.169-1.236-.857-2.307-2.11-3.275l-.72-.48-.48.72c-.615.928-.922 2.213-.821 3.445.045.433.187 1.209.633 1.89-.445.24-1.326.57-2.488.548h-22.334l-.044.257c-.21 1.238-.205 5.102 2.303 8.072 1.907 2.257 4.767 3.402 8.498 3.402 8.09 0 14.075-3.723 16.877-10.492 1.103.021 3.476.006 4.695-2.323.031-.054.104-.193.317-.634l.117-.242-.686-.458z" fill="#A3A3A3"></path><g fill="#A3A3A3"><path d="M135.282 707.725a.485.485 0 0 0-.56-.37l-.005-.005-2.842.482a5.7 5.7 0 0 0 2.288 2.863l1.1-2.66-.008-.011a.48.48 0 0 0 .027-.299m-.944-2.047a.485.485 0 0 0 .19-.834l.003-.012-2.162-1.933a5.668 5.668 0 0 0-.804 3.588l2.77-.8.003-.01zm1.262-2.182a.485.485 0 0 0 .77-.372l.012-.005.163-2.888a5.67 5.67 0 0 0-3.318 1.589l2.368 1.678.005-.002zm.837 3.031l.797.383.795-.382.198-.859-.55-.688h-.886l-.552.687zm1.653-3.412a.486.486 0 0 0 .771.37l.01.004 2.351-1.668a5.718 5.718 0 0 0-3.297-1.59l.163 2.883.003.001z"></path><path d="M146.918 708.099c-.067.293-.384.472-.71.402l-.009-.002c-.004 0-.007-.002-.01-.003-.046-.01-.103-.02-.143-.03-.188-.051-.324-.126-.494-.191-.364-.13-.665-.24-.96-.282-.149-.012-.225.059-.307.114a8.261 8.261 0 0 0-.236-.042 7.162 7.162 0 0 1-3.172 3.992c.026.063.07.198.091.222-.035.093-.087.182-.042.325.107.277.28.547.488.873.1.151.204.267.295.44.022.04.05.104.072.147.141.303.038.651-.234.782-.274.132-.614-.007-.761-.311-.021-.043-.05-.1-.068-.141-.078-.18-.105-.332-.16-.505-.125-.366-.228-.67-.378-.925-.084-.124-.186-.14-.28-.171-.018-.03-.083-.15-.118-.212a7.112 7.112 0 0 1-5.08-.013l-.124.226c-.093.025-.183.05-.237.116-.2.239-.28.623-.427.988-.054.173-.08.326-.158.505-.018.04-.048.097-.068.14v.001l-.002.001c-.147.304-.486.442-.76.31-.271-.13-.375-.479-.233-.781.02-.044.048-.107.07-.148.091-.173.194-.29.295-.44.209-.326.392-.619.499-.896.026-.092-.013-.218-.05-.31l.1-.24a7.162 7.162 0 0 1-3.174-3.964l-.24.041c-.064-.036-.193-.121-.316-.112-.294.043-.595.152-.96.283-.169.065-.305.139-.493.189-.04.01-.097.022-.143.032l-.01.003-.008.002c-.327.07-.644-.109-.71-.403-.068-.293.14-.592.465-.67l.008-.002.005-.002c.046-.01.105-.026.147-.034.191-.036.347-.027.528-.042.385-.04.703-.073.987-.162.09-.037.175-.16.236-.239l.23-.067a7.122 7.122 0 0 1 1.124-4.965l-.177-.159c-.011-.068-.026-.227-.11-.317-.217-.204-.49-.372-.819-.575-.156-.092-.3-.152-.456-.267-.034-.025-.078-.063-.114-.092l-.009-.006c-.264-.21-.324-.574-.135-.811a.53.53 0 0 1 .439-.194.655.655 0 0 1 .383.144c.038.03.089.069.123.098.147.127.237.252.362.384.271.276.496.505.742.67.13.076.229.046.327.032.031.024.138.1.199.142a7.08 7.08 0 0 1 4.59-2.208l.014-.233a.6.6 0 0 0 .178-.284c.024-.296-.014-.615-.06-.999-.026-.18-.069-.328-.076-.523-.001-.04 0-.095.001-.141l-.001-.015c0-.338.246-.612.55-.612.304 0 .55.274.55.612 0 .047.004.112.002.156-.007.195-.05.344-.075.523-.047.384-.087.703-.063.999.022.148.109.206.18.275.002.04.008.172.013.246a7.213 7.213 0 0 1 4.569 2.208l.21-.15c.07.005.227.026.333-.036.247-.166.471-.396.742-.671.125-.132.216-.258.364-.385.034-.029.085-.068.122-.097.264-.211.631-.189.82.049.19.238.13.6-.134.811-.038.03-.086.072-.121.098-.157.116-.302.175-.458.267-.329.203-.602.372-.818.575-.103.11-.095.213-.104.312l-.195.175c.474.706.83 1.508 1.031 2.384.2.868.23 1.736.116 2.57l.222.064c.04.057.122.194.237.239.284.089.602.122.987.162.18.015.337.006.528.042l.16.038c.324.078.533.377.466.67m3.498.12l-2.272-9.869a1.747 1.747 0 0 0-.952-1.183l-9.196-4.391a1.771 1.771 0 0 0-1.527 0l-9.195 4.394c-.482.23-.832.665-.951 1.183l-2.269 9.869a1.732 1.732 0 0 0 .339 1.476l6.364 7.913c.334.415.84.656 1.375.656l10.207-.002c.535 0 1.04-.24 1.375-.655l6.362-7.915c.334-.415.459-.958.34-1.476"></path><path d="M142.084 702.899l-2.15 1.925.002.006a.485.485 0 0 0 .19.834l.003.011 2.784.802a5.73 5.73 0 0 0-.12-1.845 5.738 5.738 0 0 0-.709-1.732m-4.423 5.869a.482.482 0 0 0-.444-.256.486.486 0 0 0-.41.256h-.003l-1.397 2.526a5.691 5.691 0 0 0 3.665.004l-1.4-2.53h-.01zm2.081-1.425a.483.483 0 0 0-.298.04.486.486 0 0 0-.235.63l-.004.004 1.113 2.687a5.676 5.676 0 0 0 2.294-2.882l-2.866-.485-.004.006z"></path></g><path d="M207.476 467.535v.205q0 3.418-1.552 5.476-1.552 2.057-4.19 2.057-2.242 0-3.623-1.558v6.973h-3.951v-20.481h3.664l.136 1.45q1.436-1.723 3.746-1.723 2.735 0 4.252 2.023 1.518 2.023 1.518 5.578zm-3.951-.082q0-2.064-.732-3.185-.731-1.122-2.126-1.122-1.859 0-2.556 1.422v6.057q.724 1.463 2.584 1.463 2.83 0 2.83-4.635zm14.765-7.342l-.054 3.801q-.807-.11-1.422-.11-2.242 0-2.94 1.518V475h-3.95v-14.793h3.732l.109 1.764q1.19-2.037 3.295-2.037.656 0 1.23.177zm6.016.096V475h-3.965v-14.793h3.965zm-4.197-3.828q0-.889.595-1.463.594-.574 1.62-.574 1.011 0 1.613.574.601.574.601 1.463 0 .902-.608 1.476-.608.575-1.606.575-.998 0-1.607-.575-.608-.574-.608-1.476zm7.451 3.828h3.705l.123 1.654q1.572-1.927 4.252-1.927 2.857 0 3.924 2.255 1.558-2.255 4.443-2.255 2.406 0 3.582 1.401 1.176 1.401 1.176 4.218V475H244.8v-9.434q0-1.257-.492-1.838-.492-.582-1.736-.582-1.778 0-2.461 1.696l.013 10.158h-3.95v-9.42q0-1.285-.507-1.86-.505-.574-1.722-.574-1.682 0-2.434 1.395V475h-3.951v-14.793zM264.365 475h-3.993q-.273-.533-.396-1.326-1.436 1.6-3.732 1.6-2.174 0-3.603-1.258-1.429-1.258-1.429-3.172 0-2.352 1.743-3.61 1.744-1.257 5.039-1.271h1.818v-.848q0-1.025-.526-1.64-.527-.616-1.662-.616-.998 0-1.565.479-.567.478-.567 1.312h-3.952q0-1.285.793-2.379.793-1.093 2.243-1.715 1.449-.622 3.254-.622 2.734 0 4.34 1.374 1.607 1.374 1.607 3.862v6.412q.013 2.106.588 3.186V475zm-7.26-2.748q.875 0 1.613-.39t1.094-1.046v-2.543h-1.477q-2.966 0-3.158 2.051l-.014.233q0 .738.52 1.216.52.479 1.422.479zm18.074-12.14l-.055 3.8q-.806-.11-1.421-.11-2.243 0-2.94 1.518V475h-3.951v-14.793h3.732l.11 1.764q1.19-2.037 3.295-2.037.656 0 1.23.177zm4.867.095l2.748 9.201 2.735-9.201h4.238l-5.947 17.09-.328.78q-1.327 2.898-4.375 2.898-.862 0-1.75-.26v-2.994l.601.013q1.121 0 1.675-.341.554-.342.868-1.135l.465-1.217-5.182-14.834h4.252zm262.449 10.705q0-.724-.717-1.141-.718-.417-2.304-.746-5.278-1.107-5.278-4.484 0-1.969 1.634-3.288 1.634-1.32 4.273-1.32 2.816 0 4.505 1.327 1.688 1.326 1.688 3.445h-3.951q0-.848-.547-1.401-.547-.554-1.709-.554-.998 0-1.545.451-.547.451-.547 1.149 0 .656.622 1.06.622.402 2.099.696 1.477.294 2.488.664 3.131 1.148 3.131 3.978 0 2.023-1.736 3.274-1.737 1.251-4.485 1.251-1.859 0-3.301-.663-1.443-.663-2.263-1.818-.82-1.155-.82-2.495h3.746q.054 1.053.779 1.613t1.941.56q1.135 0 1.716-.43t.581-1.128zm13.194 4.361q-3.254 0-5.298-1.996t-2.044-5.318v-.383q0-2.228.861-3.985.862-1.757 2.44-2.707 1.58-.95 3.603-.95 3.035 0 4.778 1.914 1.744 1.914 1.744 5.427v1.614h-9.42q.191 1.449 1.155 2.324.964.875 2.44.875 2.284 0 3.569-1.654l1.941 2.173q-.888 1.258-2.406 1.962-1.518.704-3.363.704zm-.452-12.14q-1.175 0-1.907.793-.731.793-.936 2.27h5.496v-.315q-.028-1.313-.711-2.03-.684-.718-1.942-.718zm14.93 8.955q1.094 0 1.778-.602.683-.601.71-1.6h3.706q-.014 1.505-.82 2.756-.807 1.25-2.209 1.941-1.401.69-3.096.69-3.172 0-5.004-2.016-1.832-2.017-1.832-5.571v-.26q0-3.418 1.818-5.455t4.99-2.037q2.776 0 4.45 1.579 1.675 1.579 1.703 4.204h-3.706q-.027-1.149-.71-1.866-.684-.718-1.805-.718-1.381 0-2.085 1.005t-.704 3.26v.41q0 2.284.697 3.282.697.998 2.12.998zm7.834-4.443v-.178q0-2.201.848-3.924.847-1.723 2.44-2.666 1.593-.943 3.698-.943 2.995 0 4.888 1.832 1.894 1.832 2.112 4.976l.028 1.012q0 3.404-1.9 5.462-1.901 2.057-5.1 2.057-3.2 0-5.107-2.05-1.907-2.051-1.907-5.578zm3.951.109q0 2.105.793 3.22.793 1.114 2.27 1.114 1.435 0 2.242-1.1.807-1.101.807-3.521 0-2.065-.807-3.2-.807-1.134-2.27-1.134-1.449 0-2.242 1.128-.793 1.128-.793 3.493zm12.414-7.547h3.72l.122 1.709q1.586-1.982 4.252-1.982 2.352 0 3.5 1.38 1.149 1.381 1.176 4.13V475h-3.951v-9.46q0-1.259-.547-1.826-.547-.568-1.818-.568-1.668 0-2.502 1.422V475h-3.952v-14.793zm15.149 7.287q0-3.459 1.552-5.51 1.551-2.05 4.245-2.05 2.16 0 3.568 1.613V454h3.965v21h-3.568l-.192-1.572q-1.476 1.845-3.8 1.845-2.612 0-4.191-2.057-1.58-2.058-1.58-5.722zm3.951.287q0 2.078.725 3.186.724 1.107 2.105 1.107 1.832 0 2.584-1.545v-5.838q-.738-1.545-2.557-1.545-2.857 0-2.857 4.635zM638.472 475h-3.992q-.274-.533-.397-1.326-1.435 1.6-3.732 1.6-2.174 0-3.603-1.258-1.428-1.258-1.428-3.172 0-2.352 1.743-3.61 1.743-1.257 5.038-1.271h1.818v-.848q0-1.025-.526-1.64-.527-.616-1.661-.616-.998 0-1.566.479-.567.478-.567 1.312h-3.951q0-1.285.793-2.379.793-1.093 2.242-1.715 1.449-.622 3.254-.622 2.734 0 4.34 1.374 1.607 1.374 1.607 3.862v6.412q.014 2.106.588 3.186V475zm-7.26-2.748q.875 0 1.613-.39.739-.39 1.094-1.046v-2.543h-1.476q-2.967 0-3.159 2.051l-.013.233q0 .738.52 1.216.519.479 1.421.479zm18.074-12.14l-.054 3.8q-.807-.11-1.422-.11-2.242 0-2.94 1.518V475h-3.95v-14.793h3.732l.109 1.764q1.19-2.037 3.295-2.037.656 0 1.23.177zm4.868.095l2.748 9.201 2.734-9.201h4.238l-5.947 17.09-.328.78q-1.326 2.898-4.375 2.898-.862 0-1.75-.26v-2.994l.601.013q1.121 0 1.675-.341.554-.342.868-1.135l.465-1.217-5.181-14.834h4.251z" fill="#4A4A4A" fill-rule="nonzero"></path><path d="M1088.98 646.917v27.17a7.15 7.15 0 0 1-7.15 7.15H830.15a7.15 7.15 0 0 1-7.15-7.15v-27.17a7.15 7.15 0 0 1 7.15-7.15h251.68a7.15 7.15 0 0 1 7.15 7.15z" fill="#D2D2D2"></path><path fill="#A3A3A3" d="M867.33 648.347h5.72v5.72h-5.72zm0 8.58h5.72v5.72h-5.72zm0 8.58h5.72v5.72h-5.72zm8.58-17.16h5.72v5.72h-5.72zm0 8.58h5.72v5.72h-5.72zm0 8.58h5.72v5.72h-5.72zm8.58-17.16h5.72v5.72h-5.72zm0 8.58h5.72v5.72h-5.72zm0 8.58h5.72v5.72h-5.72zm8.58-17.16h5.72v5.72h-5.72zm0 8.58h5.72v5.72h-5.72zm0 8.58h5.72v5.72h-5.72zm8.58-17.16h5.72v5.72h-5.72zm0 8.58h5.72v5.72h-5.72zm0 8.58h5.72v5.72h-5.72zm8.58-17.16h5.72v5.72h-5.72zm0 8.58h5.72v5.72h-5.72zm0 8.58h5.72v5.72h-5.72zm8.58-17.16h5.72v5.72h-5.72zm0 8.58h5.72v5.72h-5.72zm0 8.58h5.72v5.72h-5.72zm8.58-17.16h5.72v5.72h-5.72zm0 8.58h5.72v5.72h-5.72zm0 8.58h5.72v5.72h-5.72zm8.58-17.16h5.72v5.72h-5.72zm0 8.58h5.72v5.72h-5.72zm0 8.58h5.72v5.72h-5.72zm8.58-17.16h5.72v5.72h-5.72zm0 8.58h5.72v5.72h-5.72zm0 8.58h5.72v5.72h-5.72zm8.58-17.16h5.72v5.72h-5.72zm0 8.58h5.72v5.72h-5.72zm0 8.58h5.72v5.72h-5.72zm8.58-17.16h5.72v5.72h-5.72zm0 8.58h5.72v5.72h-5.72zm0 8.58h5.72v5.72h-5.72zm8.58-17.16h5.72v5.72h-5.72zm0 8.58h5.72v5.72h-5.72zm0 8.58h5.72v5.72h-5.72zm8.58-17.16h5.72v5.72h-5.72zm0 8.58h5.72v5.72h-5.72zm0 8.58h5.72v5.72h-5.72zm8.58-17.16h5.72v5.72h-5.72zm0 8.58h5.72v5.72h-5.72zm0 8.58h5.72v5.72h-5.72zm8.58-17.16h5.72v5.72h-5.72zm0 8.58h5.72v5.72h-5.72zm0 8.58h5.72v5.72h-5.72zm8.58-17.16h5.72v5.72h-5.72zm0 8.58h5.72v5.72h-5.72zm0 8.58h5.72v5.72h-5.72zm8.58-17.16h5.72v5.72h-5.72zm0 8.58h5.72v5.72h-5.72zm0 8.58h5.72v5.72h-5.72zm8.58-17.16h5.72v5.72h-5.72zm0 8.58h5.72v5.72h-5.72zm0 8.58h5.72v5.72h-5.72zm8.58-17.16h5.72v5.72h-5.72zm0 8.58h5.72v5.72h-5.72zm0 8.58h5.72v5.72h-5.72zm8.58-17.16h5.72v5.72h-5.72zm0 8.58h5.72v5.72h-5.72zm0 8.58h5.72v5.72h-5.72zm8.58-17.16h5.72v5.72h-5.72zm0 8.58h5.72v5.72h-5.72zm0 8.58h5.72v5.72h-5.72zm8.58-17.16h5.72v5.72h-5.72zm0 8.58h5.72v5.72h-5.72zm0 8.58h5.72v5.72h-5.72zm8.58-17.16h5.72v5.72h-5.72zm0 8.58h5.72v5.72h-5.72zm0 8.58h5.72v5.72h-5.72zm8.58-17.16h5.72v5.72h-5.72zm0 8.58h5.72v5.72h-5.72zm0 8.58h5.72v5.72h-5.72z"></path><path d="M1088.98 692.595v27.17a7.15 7.15 0 0 1-7.15 7.15H830.15a7.15 7.15 0 0 1-7.15-7.15v-27.17a7.15 7.15 0 0 1 7.15-7.15h251.68a7.15 7.15 0 0 1 7.15 7.15z" fill="#D2D2D2"></path><path fill="#A3A3A3" d="M867.33 694.025h5.72v5.72h-5.72zm0 8.58h5.72v5.72h-5.72zm0 8.58h5.72v5.72h-5.72zm8.58-17.16h5.72v5.72h-5.72zm0 8.58h5.72v5.72h-5.72zm0 8.58h5.72v5.72h-5.72zm8.58-17.16h5.72v5.72h-5.72zm0 8.58h5.72v5.72h-5.72zm0 8.58h5.72v5.72h-5.72zm8.58-17.16h5.72v5.72h-5.72zm0 8.58h5.72v5.72h-5.72zm0 8.58h5.72v5.72h-5.72zm8.58-17.16h5.72v5.72h-5.72zm0 8.58h5.72v5.72h-5.72zm0 8.58h5.72v5.72h-5.72zm8.58-17.16h5.72v5.72h-5.72zm0 8.58h5.72v5.72h-5.72zm0 8.58h5.72v5.72h-5.72zm8.58-17.16h5.72v5.72h-5.72zm0 8.58h5.72v5.72h-5.72zm0 8.58h5.72v5.72h-5.72zm8.58-17.16h5.72v5.72h-5.72zm0 8.58h5.72v5.72h-5.72zm0 8.58h5.72v5.72h-5.72zm8.58-17.16h5.72v5.72h-5.72zm0 8.58h5.72v5.72h-5.72zm0 8.58h5.72v5.72h-5.72zm8.58-17.16h5.72v5.72h-5.72zm0 8.58h5.72v5.72h-5.72zm0 8.58h5.72v5.72h-5.72zm8.58-17.16h5.72v5.72h-5.72zm0 8.58h5.72v5.72h-5.72zm0 8.58h5.72v5.72h-5.72zm8.58-17.16h5.72v5.72h-5.72zm0 8.58h5.72v5.72h-5.72zm0 8.58h5.72v5.72h-5.72zm8.58-17.16h5.72v5.72h-5.72zm0 8.58h5.72v5.72h-5.72zm0 8.58h5.72v5.72h-5.72zm8.58-17.16h5.72v5.72h-5.72zm0 8.58h5.72v5.72h-5.72zm0 8.58h5.72v5.72h-5.72zm8.58-17.16h5.72v5.72h-5.72zm0 8.58h5.72v5.72h-5.72zm0 8.58h5.72v5.72h-5.72zm8.58-17.16h5.72v5.72h-5.72zm0 8.58h5.72v5.72h-5.72zm0 8.58h5.72v5.72h-5.72zm8.58-17.16h5.72v5.72h-5.72zm0 8.58h5.72v5.72h-5.72zm0 8.58h5.72v5.72h-5.72zm8.58-17.16h5.72v5.72h-5.72zm0 8.58h5.72v5.72h-5.72zm0 8.58h5.72v5.72h-5.72zm8.58-17.16h5.72v5.72h-5.72zm0 8.58h5.72v5.72h-5.72zm0 8.58h5.72v5.72h-5.72zm8.58-17.16h5.72v5.72h-5.72zm0 8.58h5.72v5.72h-5.72zm0 8.58h5.72v5.72h-5.72zm8.58-17.16h5.72v5.72h-5.72zm0 8.58h5.72v5.72h-5.72zm0 8.58h5.72v5.72h-5.72zm8.58-17.16h5.72v5.72h-5.72zm0 8.58h5.72v5.72h-5.72zm0 8.58h5.72v5.72h-5.72zm8.58-17.16h5.72v5.72h-5.72zm0 8.58h5.72v5.72h-5.72zm0 8.58h5.72v5.72h-5.72zm8.58-17.16h5.72v5.72h-5.72zm0 8.58h5.72v5.72h-5.72zm0 8.58h5.72v5.72h-5.72zm8.58-17.16h5.72v5.72h-5.72zm0 8.58h5.72v5.72h-5.72zm0 8.58h5.72v5.72h-5.72z"></path><g transform="translate(823 173)"><path d="M265.98 7.15v449.02a7.15 7.15 0 0 1-7.15 7.15H7.15A7.15 7.15 0 0 1 0 456.17V7.15A7.15 7.15 0 0 1 7.15 0h251.68a7.15 7.15 0 0 1 7.15 7.15z" fill="#D2D2D2"></path><path fill="#A3A3A3" d="M10.01 8.58h5.72v5.72h-5.72zm0 8.58h5.72v5.72h-5.72zm0 8.58h5.72v5.72h-5.72zm8.58-17.16h5.72v5.72h-5.72zm0 8.58h5.72v5.72h-5.72zm0 8.58h5.72v5.72h-5.72zm8.58-17.16h5.72v5.72h-5.72zm0 8.58h5.72v5.72h-5.72zm0 8.58h5.72v5.72h-5.72zm8.58-17.16h5.72v5.72h-5.72zm0 8.58h5.72v5.72h-5.72zm0 8.58h5.72v5.72h-5.72zm8.58-17.16h5.72v5.72h-5.72zm0 8.58h5.72v5.72h-5.72zm0 8.58h5.72v5.72h-5.72zm8.58-17.16h5.72v5.72h-5.72zm0 8.58h5.72v5.72h-5.72zm0 8.58h5.72v5.72h-5.72zm8.58-17.16h5.72v5.72h-5.72zm0 8.58h5.72v5.72h-5.72zm0 8.58h5.72v5.72h-5.72zm8.58-17.16h5.72v5.72h-5.72zm0 8.58h5.72v5.72h-5.72zm0 8.58h5.72v5.72h-5.72zm8.58-17.16h5.72v5.72h-5.72zm0 8.58h5.72v5.72h-5.72zm0 8.58h5.72v5.72h-5.72zm8.58-17.16h5.72v5.72h-5.72zm0 8.58h5.72v5.72h-5.72zm0 8.58h5.72v5.72h-5.72zm8.58-17.16h5.72v5.72h-5.72zm0 8.58h5.72v5.72h-5.72zm0 8.58h5.72v5.72h-5.72zm8.58-17.16h5.72v5.72h-5.72zm0 8.58h5.72v5.72h-5.72zm0 8.58h5.72v5.72h-5.72zm8.58-17.16h5.72v5.72h-5.72zm0 8.58h5.72v5.72h-5.72zm0 8.58h5.72v5.72h-5.72zm8.58-17.16h5.72v5.72h-5.72zm0 8.58h5.72v5.72h-5.72zm0 8.58h5.72v5.72h-5.72zm8.58-17.16h5.72v5.72h-5.72zm0 8.58h5.72v5.72h-5.72zm0 8.58h5.72v5.72h-5.72zm8.58-17.16h5.72v5.72h-5.72zm0 8.58h5.72v5.72h-5.72zm0 8.58h5.72v5.72h-5.72zm8.58-17.16h5.72v5.72h-5.72zm0 8.58h5.72v5.72h-5.72zm0 8.58h5.72v5.72h-5.72zm8.58-17.16h5.72v5.72h-5.72zm0 8.58h5.72v5.72h-5.72zm0 8.58h5.72v5.72h-5.72zm8.58-17.16h5.72v5.72h-5.72zm0 8.58h5.72v5.72h-5.72zm0 8.58h5.72v5.72h-5.72zm8.58-17.16h5.72v5.72h-5.72zm0 8.58h5.72v5.72h-5.72zm0 8.58h5.72v5.72h-5.72zm8.58-17.16h5.72v5.72h-5.72zm0 8.58h5.72v5.72h-5.72zm0 8.58h5.72v5.72h-5.72zm8.58-17.16h5.72v5.72h-5.72zm0 8.58h5.72v5.72h-5.72zm0 8.58h5.72v5.72h-5.72zm8.58-17.16h5.72v5.72h-5.72zm0 8.58h5.72v5.72h-5.72zm0 8.58h5.72v5.72h-5.72zm8.58-17.16h5.72v5.72h-5.72zm0 8.58h5.72v5.72h-5.72zm0 8.58h5.72v5.72h-5.72zm8.58-17.16h5.72v5.72h-5.72zm0 8.58h5.72v5.72h-5.72zm0 8.58h5.72v5.72h-5.72zm8.58-17.16h5.72v5.72h-5.72zm0 8.58h5.72v5.72h-5.72zm0 8.58h5.72v5.72h-5.72zm8.58-17.16h5.72v5.72h-5.72zm0 8.58h5.72v5.72h-5.72zm0 8.58h5.72v5.72h-5.72zm8.58-17.16h5.72v5.72h-5.72zm0 8.58h5.72v5.72h-5.72zm0 8.58h5.72v5.72h-5.72zm8.58-17.16h5.72v5.72h-5.72zm0 8.58h5.72v5.72h-5.72zm0 8.58h5.72v5.72h-5.72zM10.01 447.59h5.72v5.72h-5.72zm8.58 0h5.72v5.72h-5.72zm8.58 0h5.72v5.72h-5.72zm8.58 0h5.72v5.72h-5.72zm8.58 0h5.72v5.72h-5.72zm8.58 0h5.72v5.72h-5.72zm8.58 0h5.72v5.72h-5.72zm8.58 0h5.72v5.72h-5.72zm8.58 0h5.72v5.72h-5.72zm8.58 0h5.72v5.72h-5.72zm8.58 0h5.72v5.72h-5.72zm8.58 0h5.72v5.72h-5.72zm8.58 0h5.72v5.72h-5.72zm8.58 0h5.72v5.72h-5.72zm8.58 0h5.72v5.72h-5.72zm8.58 0h5.72v5.72h-5.72zm8.58 0h5.72v5.72h-5.72zm8.58 0h5.72v5.72h-5.72zm8.58 0h5.72v5.72h-5.72zm8.58 0h5.72v5.72h-5.72zm8.58 0h5.72v5.72h-5.72zm8.58 0h5.72v5.72h-5.72zm8.58 0h5.72v5.72h-5.72zm8.58 0h5.72v5.72h-5.72zm8.58 0h5.72v5.72h-5.72zm8.58 0h5.72v5.72h-5.72zm8.58 0h5.72v5.72h-5.72zm8.58 0h5.72v5.72h-5.72zm8.58 0h5.72v5.72h-5.72z"></path><rect fill="#FFF" x="10.01" y="41.47" width="245.96" height="397.54" rx="2.86"></rect></g><path d="M848.752 658.808h3.396v-3.087h-3.396v3.087zm-4.013 0h3.396v-3.087h-3.396v3.087zm-4.014 0h3.397v-3.087h-3.397v3.087zm-4.013 0h3.396v-3.087h-3.396v3.087zm-4.013 0h3.396v-3.087h-3.396v3.087zm4.013-3.705h3.396v-3.087h-3.396v3.087zm4.013 0h3.397v-3.087h-3.397v3.087zm4.014 0h3.396v-3.087h-3.396v3.087zm0-3.704h3.396v-3.088h-3.396v3.088zm17.615 5.609c-.741-.496-2.445-.678-3.757-.43-.169-1.236-.857-2.307-2.11-3.275l-.72-.48-.48.72c-.615.928-.922 2.213-.821 3.445.045.433.187 1.209.633 1.89-.445.24-1.326.57-2.488.548h-22.334l-.044.257c-.21 1.238-.205 5.102 2.303 8.072 1.907 2.257 4.767 3.402 8.498 3.402 8.09 0 14.075-3.723 16.877-10.492 1.103.021 3.476.006 4.695-2.323.031-.054.104-.193.317-.634l.117-.242-.686-.458z" fill="#A3A3A3"></path><g fill="#A3A3A3"><path d="M844.282 707.725a.485.485 0 0 0-.56-.37l-.005-.005-2.842.482a5.7 5.7 0 0 0 2.288 2.863l1.1-2.66-.008-.011a.48.48 0 0 0 .027-.299m-.944-2.047a.485.485 0 0 0 .19-.834l.003-.012-2.162-1.933a5.668 5.668 0 0 0-.804 3.588l2.77-.8.003-.01zm1.262-2.182a.485.485 0 0 0 .77-.372l.012-.005.163-2.888a5.67 5.67 0 0 0-3.318 1.589l2.368 1.678.005-.002zm.837 3.031l.797.383.795-.382.198-.859-.55-.688h-.886l-.552.687zm1.653-3.412a.486.486 0 0 0 .771.37l.01.004 2.351-1.668a5.718 5.718 0 0 0-3.297-1.59l.163 2.883.003.001z"></path><path d="M855.918 708.099c-.067.293-.384.472-.71.402l-.009-.002c-.004 0-.007-.002-.01-.003-.046-.01-.103-.02-.143-.03-.188-.051-.324-.126-.494-.191-.364-.13-.665-.24-.96-.282-.149-.012-.225.059-.307.114a8.261 8.261 0 0 0-.236-.042 7.162 7.162 0 0 1-3.172 3.992c.026.063.07.198.091.222-.035.093-.087.182-.042.325.107.277.28.547.488.873.1.151.204.267.295.44.022.04.05.104.072.147.141.303.038.651-.234.782-.274.132-.614-.007-.761-.311-.021-.043-.05-.1-.068-.141-.078-.18-.105-.332-.16-.505-.125-.366-.228-.67-.378-.925-.084-.124-.186-.14-.28-.171-.018-.03-.083-.15-.118-.212a7.112 7.112 0 0 1-5.08-.013l-.124.226c-.093.025-.183.05-.237.116-.2.239-.28.623-.427.988-.054.173-.08.326-.158.505-.018.04-.048.097-.068.14v.001l-.002.001c-.147.304-.486.442-.76.31-.271-.13-.375-.479-.233-.781.02-.044.048-.107.07-.148.091-.173.194-.29.295-.44.209-.326.392-.619.499-.896.026-.092-.013-.218-.05-.31l.1-.24a7.162 7.162 0 0 1-3.174-3.964l-.24.041c-.064-.036-.193-.121-.316-.112-.294.043-.595.152-.96.283-.169.065-.305.139-.493.189-.04.01-.097.022-.143.032l-.01.003-.008.002c-.327.07-.644-.109-.71-.403-.068-.293.14-.592.465-.67l.008-.002.005-.002c.046-.01.105-.026.147-.034.191-.036.347-.027.528-.042.385-.04.703-.073.987-.162.09-.037.175-.16.236-.239l.23-.067a7.122 7.122 0 0 1 1.124-4.965l-.177-.159c-.011-.068-.026-.227-.11-.317-.217-.204-.49-.372-.819-.575-.156-.092-.3-.152-.456-.267-.034-.025-.078-.063-.114-.092l-.009-.006c-.264-.21-.324-.574-.135-.811a.53.53 0 0 1 .439-.194.655.655 0 0 1 .383.144c.038.03.089.069.123.098.147.127.237.252.362.384.271.276.496.505.742.67.13.076.229.046.327.032.031.024.138.1.199.142a7.08 7.08 0 0 1 4.59-2.208l.014-.233a.6.6 0 0 0 .178-.284c.024-.296-.014-.615-.06-.999-.026-.18-.069-.328-.076-.523-.001-.04 0-.095.001-.141l-.001-.015c0-.338.246-.612.55-.612.304 0 .55.274.55.612 0 .047.004.112.002.156-.007.195-.05.344-.075.523-.047.384-.087.703-.063.999.022.148.109.206.18.275.002.04.008.172.013.246a7.213 7.213 0 0 1 4.569 2.208l.21-.15c.07.005.227.026.333-.036.247-.166.471-.396.742-.671.125-.132.216-.258.364-.385.034-.029.085-.068.122-.097.264-.211.631-.189.82.049.19.238.13.6-.134.811-.038.03-.086.072-.121.098-.157.116-.302.175-.458.267-.329.203-.602.372-.818.575-.103.11-.095.213-.104.312l-.195.175c.474.706.83 1.508 1.031 2.384.2.868.23 1.736.116 2.57l.222.064c.04.057.122.194.237.239.284.089.602.122.987.162.18.015.337.006.528.042l.16.038c.324.078.533.377.466.67m3.498.12l-2.272-9.869a1.747 1.747 0 0 0-.952-1.183l-9.196-4.391a1.771 1.771 0 0 0-1.527 0l-9.195 4.394c-.482.23-.832.665-.951 1.183l-2.269 9.869a1.732 1.732 0 0 0 .339 1.476l6.364 7.913c.334.415.84.656 1.375.656l10.207-.002c.535 0 1.04-.24 1.375-.655l6.362-7.915c.334-.415.459-.958.34-1.476"></path><path d="M851.084 702.899l-2.15 1.925.002.006a.485.485 0 0 0 .19.834l.003.011 2.784.802a5.73 5.73 0 0 0-.12-1.845 5.738 5.738 0 0 0-.709-1.732m-4.423 5.869a.482.482 0 0 0-.444-.256.486.486 0 0 0-.41.256h-.003l-1.397 2.526a5.691 5.691 0 0 0 3.665.004l-1.4-2.53h-.01zm2.081-1.425a.483.483 0 0 0-.298.04.486.486 0 0 0-.235.63l-.004.004 1.113 2.687a5.676 5.676 0 0 0 2.294-2.882l-2.866-.485-.004.006z"></path></g><path d="M714 411.434c0 1.158-.717 2.096-1.602 2.096H486.602c-.885 0-1.602-.938-1.602-2.096V235.15a7.15 7.15 0 0 1 7.15-7.15h214.7a7.15 7.15 0 0 1 7.15 7.15v176.284z" fill="#4B91FF"></path><path d="M624.56 356.371c.648-5.124.454-5.876 4.47-5.046l1.019.085c3.087.134 7.126-.472 9.499-1.52 5.108-2.252 8.137-6.014 3.1-5.026-11.489 2.253-12.279-1.445-12.279-1.445 12.132-17.11 17.203-38.83 12.826-44.146-11.94-14.502-32.607-7.644-32.953-7.466l-.11.019c-2.27-.448-4.81-.715-7.664-.76-5.2-.08-9.144 1.297-12.137 3.454 0 0-36.87-14.438-35.154 18.158.365 6.934 10.457 52.47 22.493 38.716 4.399-5.03 8.65-9.282 8.65-9.282a11.61 11.61 0 0 0 7.29 1.769l.205-.166c-.065.624-.036 1.235.082 1.958-3.1 3.293-2.19 3.872-8.389 5.084-6.271 1.23-2.587 3.417-.182 3.988 2.917.694 9.664 1.676 14.224-4.39l-.182.691c1.216.925 1.134 6.649 1.307 10.738.172 4.09.46 7.905 1.337 10.155.877 2.25 1.912 8.045 10.059 6.385 6.81-1.387 12.015-3.383 12.49-21.953" stroke="#000" stroke-width="10.695" fill="#000"></path><path d="M642.649 344.864c-11.49 2.253-12.28-1.445-12.28-1.445 12.132-17.111 17.203-38.832 12.827-44.147-11.941-14.501-32.608-7.643-32.953-7.465l-.11.019c-2.27-.448-4.811-.715-7.667-.76-5.199-.08-9.142 1.296-12.135 3.453 0 0-36.87-14.438-35.155 18.159.365 6.934 10.456 52.47 22.493 38.716 4.4-5.03 8.65-9.282 8.65-9.282 2.111 1.333 4.639 2.013 7.288 1.769l.206-.166c-.064.624-.034 1.235.083 1.958-3.101 3.293-2.19 3.872-8.389 5.084-6.272 1.23-2.587 3.417-.181 3.988 2.916.694 9.663 1.676 14.222-4.39l-.181.691c1.215.925 2.068 6.017 1.925 10.633-.143 4.616-.239 7.785.719 10.26.957 2.475 1.911 8.045 10.06 6.385 6.809-1.387 10.337-4.982 10.828-10.977.348-4.262 1.137-3.632 1.187-7.443l.632-1.804c.729-5.778.116-7.642 4.31-6.775l1.02.085c3.088.133 7.129-.472 9.5-1.52 5.107-2.253 8.136-6.014 3.1-5.026h.001z" fill="#336791"></path><path d="M600.042 348.176c-.316 10.751.08 21.577 1.186 24.209 1.107 2.63 3.477 7.748 11.627 6.089 6.808-1.388 9.285-4.073 10.36-10 .792-4.36 2.318-16.469 2.514-18.95m-35.454-55.245s-36.897-14.334-35.18 18.262c.364 6.935 10.456 52.472 22.493 38.718 4.398-5.03 8.376-8.975 8.376-8.975m24.239-50.621c-1.277.38 20.523-7.575 32.912 7.473 4.377 5.316-.695 27.036-12.826 44.148" stroke="#FFF" stroke-width="3.565" stroke-linecap="round" stroke-linejoin="round"></path><path d="M630.289 343.284s.79 3.699 12.28 1.444c5.035-.988 2.005 2.774-3.1 5.028-4.191 1.849-13.586 2.322-13.74-.232-.394-6.591 4.945-4.589 4.56-6.24-.349-1.487-2.736-2.947-4.316-6.587-1.379-3.177-18.912-27.543 4.862-23.924.871-.171-6.2-21.496-28.45-21.843-22.245-.346-21.515 26.004-21.515 26.004" stroke="#FFF" stroke-width="3.565" stroke-linecap="round" stroke-linejoin="bevel"></path><path d="M593.815 345.538c-3.102 3.293-2.19 3.871-8.389 5.084-6.272 1.23-2.587 3.416-.182 3.988 2.917.694 9.664 1.676 14.223-4.392 1.389-1.848-.008-4.796-1.915-5.547-.922-.363-2.154-.818-3.737.867z" stroke="#FFF" stroke-width="3.565" stroke-linecap="round" stroke-linejoin="round"></path><path d="M593.612 345.481c-.313-1.937.669-4.24 1.721-6.936 1.581-4.044 5.23-8.09 2.31-20.918-2.174-9.56-16.764-1.99-16.773-.693-.01 1.296.66 6.57-.244 12.712-1.18 8.015 5.365 14.793 12.9 14.1" stroke="#FFF" stroke-width="3.565" stroke-linecap="round" stroke-linejoin="round"></path><path d="M590.14 316.74c-.066.442.853 1.624 2.05 1.782 1.196.158 2.22-.765 2.284-1.207.065-.443-.852-.93-2.05-1.09-1.197-.158-2.22.073-2.284.515h0z" stroke="#FFF" stroke-width="1.188" fill="#FFF"></path><path d="M626.555 315.837c.066.443-.852 1.624-2.05 1.782-1.196.158-2.22-.765-2.285-1.207-.063-.443.855-.93 2.051-1.089 1.197-.158 2.22.072 2.285.514h0z" stroke="#FFF" stroke-width=".715" fill="#FFF"></path><path d="M630.835 312.773c.198 3.473-.786 5.838-.91 9.535-.184 5.373 2.695 11.524-1.643 17.682" stroke="#FFF" stroke-width="3.565" stroke-linecap="round" stroke-linejoin="round"></path><path d="M492.15 228h214.7a7.15 7.15 0 0 1 7.15 7.15v25.74H485v-25.74a7.15 7.15 0 0 1 7.15-7.15z" fill="#CCC"></path><path d="M509.31 245.875a6.434 6.434 0 0 1-6.435 6.435 6.434 6.434 0 0 1-6.435-6.435 6.434 6.434 0 0 1 6.435-6.435 6.434 6.434 0 0 1 6.435 6.435" fill="#E74C3C"></path><path d="M532.19 245.875a6.434 6.434 0 0 1-6.435 6.435 6.434 6.434 0 0 1-6.435-6.435 6.434 6.434 0 0 1 6.435-6.435 6.434 6.434 0 0 1 6.435 6.435" fill="#F1C40F"></path><path d="M553.64 245.875a6.434 6.434 0 0 1-6.435 6.435 6.434 6.434 0 0 1-6.435-6.435 6.434 6.434 0 0 1 6.435-6.435 6.434 6.434 0 0 1 6.435 6.435" fill="#2ECC71"></path><path d="M362 411.434c0 1.158-.717 2.096-1.602 2.096H134.602c-.885 0-1.602-.938-1.602-2.096V235.15a7.15 7.15 0 0 1 7.15-7.15h214.7a7.15 7.15 0 0 1 7.15 7.15v176.284z" fill="#4B91FF"></path><path d="M272.56 356.371c.648-5.124.454-5.876 4.47-5.046l1.019.085c3.087.134 7.126-.472 9.499-1.52 5.108-2.252 8.137-6.014 3.1-5.026-11.489 2.253-12.279-1.445-12.279-1.445 12.132-17.11 17.203-38.83 12.826-44.146-11.94-14.502-32.607-7.644-32.953-7.466l-.11.019c-2.27-.448-4.81-.715-7.664-.76-5.2-.08-9.144 1.297-12.137 3.454 0 0-36.87-14.438-35.154 18.158.365 6.934 10.457 52.47 22.493 38.716 4.399-5.03 8.65-9.282 8.65-9.282a11.61 11.61 0 0 0 7.29 1.769l.205-.166c-.065.624-.036 1.235.082 1.958-3.1 3.293-2.19 3.872-8.389 5.084-6.271 1.23-2.587 3.417-.182 3.988 2.917.694 9.664 1.676 14.224-4.39l-.182.691c1.216.925 1.134 6.649 1.307 10.738.172 4.09.46 7.905 1.337 10.155.877 2.25 1.912 8.045 10.059 6.385 6.81-1.387 12.015-3.383 12.49-21.953" stroke="#000" stroke-width="10.695" fill="#000"></path><path d="M290.649 344.864c-11.49 2.253-12.28-1.445-12.28-1.445 12.132-17.111 17.203-38.832 12.827-44.147-11.941-14.501-32.608-7.643-32.953-7.465l-.11.019c-2.27-.448-4.811-.715-7.667-.76-5.199-.08-9.142 1.296-12.135 3.453 0 0-36.87-14.438-35.155 18.159.365 6.934 10.456 52.47 22.493 38.716 4.4-5.03 8.65-9.282 8.65-9.282 2.111 1.333 4.639 2.013 7.288 1.769l.206-.166c-.064.624-.034 1.235.083 1.958-3.101 3.293-2.19 3.872-8.389 5.084-6.272 1.23-2.587 3.417-.181 3.988 2.916.694 9.663 1.676 14.222-4.39l-.181.691c1.215.925 2.068 6.017 1.925 10.633-.143 4.616-.239 7.785.719 10.26.957 2.475 1.911 8.045 10.06 6.385 6.809-1.387 10.337-4.982 10.828-10.977.348-4.262 1.137-3.632 1.187-7.443l.632-1.804c.729-5.778.116-7.642 4.31-6.775l1.02.085c3.088.133 7.129-.472 9.5-1.52 5.107-2.253 8.136-6.014 3.1-5.026h.001z" fill="#336791"></path><path d="M248.042 348.176c-.316 10.751.08 21.577 1.186 24.209 1.107 2.63 3.477 7.748 11.627 6.089 6.808-1.388 9.285-4.073 10.36-10 .792-4.36 2.318-16.469 2.514-18.95m-35.454-55.245s-36.897-14.334-35.18 18.262c.364 6.935 10.456 52.472 22.493 38.718 4.398-5.03 8.376-8.975 8.376-8.975m24.239-50.621c-1.277.38 20.523-7.575 32.912 7.473 4.377 5.316-.695 27.036-12.826 44.148" stroke="#FFF" stroke-width="3.565" stroke-linecap="round" stroke-linejoin="round"></path><path d="M278.289 343.284s.79 3.699 12.28 1.444c5.035-.988 2.005 2.774-3.1 5.028-4.191 1.849-13.586 2.322-13.74-.232-.394-6.591 4.945-4.589 4.56-6.24-.349-1.487-2.736-2.947-4.316-6.587-1.379-3.177-18.912-27.543 4.862-23.924.871-.171-6.2-21.496-28.45-21.843-22.245-.346-21.515 26.004-21.515 26.004" stroke="#FFF" stroke-width="3.565" stroke-linecap="round" stroke-linejoin="bevel"></path><path d="M241.815 345.538c-3.102 3.293-2.19 3.871-8.389 5.084-6.272 1.23-2.587 3.416-.182 3.988 2.917.694 9.664 1.676 14.223-4.392 1.389-1.848-.008-4.796-1.915-5.547-.922-.363-2.154-.818-3.737.867z" stroke="#FFF" stroke-width="3.565" stroke-linecap="round" stroke-linejoin="round"></path><path d="M241.612 345.481c-.313-1.937.669-4.24 1.721-6.936 1.581-4.044 5.23-8.09 2.31-20.918-2.174-9.56-16.764-1.99-16.773-.693-.01 1.296.66 6.57-.244 12.712-1.18 8.015 5.365 14.793 12.9 14.1" stroke="#FFF" stroke-width="3.565" stroke-linecap="round" stroke-linejoin="round"></path><path d="M238.14 316.74c-.066.442.853 1.624 2.05 1.782 1.196.158 2.22-.765 2.284-1.207.065-.443-.852-.93-2.05-1.09-1.197-.158-2.22.073-2.284.515h0z" stroke="#FFF" stroke-width="1.188" fill="#FFF"></path><path d="M274.555 315.837c.066.443-.852 1.624-2.05 1.782-1.196.158-2.22-.765-2.285-1.207-.063-.443.855-.93 2.051-1.089 1.197-.158 2.22.072 2.285.514h0z" stroke="#FFF" stroke-width=".715" fill="#FFF"></path><path d="M278.835 312.773c.198 3.473-.786 5.838-.91 9.535-.184 5.373 2.695 11.524-1.643 17.682" stroke="#FFF" stroke-width="3.565" stroke-linecap="round" stroke-linejoin="round"></path><path d="M140.15 228h214.7a7.15 7.15 0 0 1 7.15 7.15v25.74H133v-25.74a7.15 7.15 0 0 1 7.15-7.15z" fill="#CCC"></path><path d="M157.31 245.875a6.434 6.434 0 0 1-6.435 6.435 6.434 6.434 0 0 1-6.435-6.435 6.434 6.434 0 0 1 6.435-6.435 6.434 6.434 0 0 1 6.435 6.435" fill="#E74C3C"></path><path d="M180.19 245.875a6.434 6.434 0 0 1-6.435 6.435 6.434 6.434 0 0 1-6.435-6.435 6.434 6.434 0 0 1 6.435-6.435 6.434 6.434 0 0 1 6.435 6.435" fill="#F1C40F"></path><path d="M201.64 245.875a6.434 6.434 0 0 1-6.435 6.435 6.434 6.434 0 0 1-6.435-6.435 6.434 6.434 0 0 1 6.435-6.435 6.434 6.434 0 0 1 6.435 6.435" fill="#2ECC71"></path><path d="M1071 411.434c0 1.158-.717 2.096-1.602 2.096H843.602c-.885 0-1.602-.938-1.602-2.096V235.15a7.15 7.15 0 0 1 7.15-7.15h214.7a7.15 7.15 0 0 1 7.15 7.15v176.284z" fill="#4B91FF"></path><path d="M981.56 356.371c.648-5.124.454-5.876 4.47-5.046l1.019.085c3.087.134 7.126-.472 9.499-1.52 5.108-2.252 8.137-6.014 3.1-5.026-11.489 2.253-12.279-1.445-12.279-1.445 12.132-17.11 17.203-38.83 12.826-44.146-11.94-14.502-32.607-7.644-32.953-7.466l-.11.019c-2.27-.448-4.81-.715-7.664-.76-5.2-.08-9.144 1.297-12.137 3.454 0 0-36.87-14.438-35.154 18.158.365 6.934 10.457 52.47 22.493 38.716 4.399-5.03 8.65-9.282 8.65-9.282a11.61 11.61 0 0 0 7.29 1.769l.205-.166c-.065.624-.036 1.235.082 1.958-3.1 3.293-2.19 3.872-8.389 5.084-6.271 1.23-2.587 3.417-.182 3.988 2.917.694 9.664 1.676 14.224-4.39l-.182.691c1.216.925 1.134 6.649 1.307 10.738.172 4.09.46 7.905 1.337 10.155.877 2.25 1.912 8.045 10.059 6.385 6.81-1.387 12.015-3.383 12.49-21.953" stroke="#000" stroke-width="10.695" fill="#000"></path><path d="M999.649 344.864c-11.49 2.253-12.28-1.445-12.28-1.445 12.132-17.111 17.203-38.832 12.827-44.147-11.941-14.501-32.608-7.643-32.953-7.465l-.11.019c-2.27-.448-4.811-.715-7.667-.76-5.199-.08-9.142 1.296-12.135 3.453 0 0-36.87-14.438-35.155 18.159.365 6.934 10.456 52.47 22.493 38.716 4.4-5.03 8.65-9.282 8.65-9.282 2.111 1.333 4.639 2.013 7.288 1.769l.206-.166c-.064.624-.034 1.235.083 1.958-3.101 3.293-2.19 3.872-8.389 5.084-6.272 1.23-2.587 3.417-.181 3.988 2.916.694 9.663 1.676 14.222-4.39l-.181.691c1.215.925 2.068 6.017 1.925 10.633-.143 4.616-.239 7.785.719 10.26.957 2.475 1.911 8.045 10.06 6.385 6.809-1.387 10.337-4.982 10.828-10.977.348-4.262 1.137-3.632 1.187-7.443l.632-1.804c.729-5.778.116-7.642 4.31-6.775l1.02.085c3.088.133 7.129-.472 9.5-1.52 5.107-2.253 8.136-6.014 3.1-5.026h.001z" fill="#336791"></path><path d="M957.042 348.176c-.316 10.751.08 21.577 1.186 24.209 1.107 2.63 3.477 7.748 11.627 6.089 6.808-1.388 9.285-4.073 10.36-10 .792-4.36 2.318-16.469 2.514-18.95m-35.454-55.245s-36.897-14.334-35.18 18.262c.364 6.935 10.456 52.472 22.493 38.718 4.398-5.03 8.376-8.975 8.376-8.975m24.239-50.621c-1.277.38 20.523-7.575 32.912 7.473 4.377 5.316-.695 27.036-12.826 44.148" stroke="#FFF" stroke-width="3.565" stroke-linecap="round" stroke-linejoin="round"></path><path d="M987.289 343.284s.79 3.699 12.28 1.444c5.035-.988 2.005 2.774-3.1 5.028-4.191 1.849-13.586 2.322-13.74-.232-.394-6.591 4.945-4.589 4.56-6.24-.349-1.487-2.736-2.947-4.316-6.587-1.379-3.177-18.912-27.543 4.862-23.924.871-.171-6.2-21.496-28.45-21.843-22.245-.346-21.515 26.004-21.515 26.004" stroke="#FFF" stroke-width="3.565" stroke-linecap="round" stroke-linejoin="bevel"></path><path d="M950.815 345.538c-3.102 3.293-2.19 3.871-8.389 5.084-6.272 1.23-2.587 3.416-.182 3.988 2.917.694 9.664 1.676 14.223-4.392 1.389-1.848-.008-4.796-1.915-5.547-.922-.363-2.154-.818-3.737.867z" stroke="#FFF" stroke-width="3.565" stroke-linecap="round" stroke-linejoin="round"></path><path d="M950.612 345.481c-.313-1.937.669-4.24 1.721-6.936 1.581-4.044 5.23-8.09 2.31-20.918-2.174-9.56-16.764-1.99-16.773-.693-.01 1.296.66 6.57-.244 12.712-1.18 8.015 5.365 14.793 12.9 14.1" stroke="#FFF" stroke-width="3.565" stroke-linecap="round" stroke-linejoin="round"></path><path d="M947.14 316.74c-.066.442.853 1.624 2.05 1.782 1.196.158 2.22-.765 2.284-1.207.065-.443-.852-.93-2.05-1.09-1.197-.158-2.22.073-2.284.515h0z" stroke="#FFF" stroke-width="1.188" fill="#FFF"></path><path d="M983.555 315.837c.066.443-.852 1.624-2.05 1.782-1.196.158-2.22-.765-2.285-1.207-.063-.443.855-.93 2.051-1.089 1.197-.158 2.22.072 2.285.514h0z" stroke="#FFF" stroke-width=".715" fill="#FFF"></path><path d="M987.835 312.773c.198 3.473-.786 5.838-.91 9.535-.184 5.373 2.695 11.524-1.643 17.682" stroke="#FFF" stroke-width="3.565" stroke-linecap="round" stroke-linejoin="round"></path><path d="M849.15 228h214.7a7.15 7.15 0 0 1 7.15 7.15v25.74H842v-25.74a7.15 7.15 0 0 1 7.15-7.15z" fill="#CCC"></path><path d="M866.31 245.875a6.434 6.434 0 0 1-6.435 6.435 6.434 6.434 0 0 1-6.435-6.435 6.434 6.434 0 0 1 6.435-6.435 6.434 6.434 0 0 1 6.435 6.435" fill="#E74C3C"></path><path d="M889.19 245.875a6.434 6.434 0 0 1-6.435 6.435 6.434 6.434 0 0 1-6.435-6.435 6.434 6.434 0 0 1 6.435-6.435 6.434 6.434 0 0 1 6.435 6.435" fill="#F1C40F"></path><path d="M910.64 245.875a6.434 6.434 0 0 1-6.435 6.435 6.434 6.434 0 0 1-6.435-6.435 6.434 6.434 0 0 1 6.435-6.435 6.434 6.434 0 0 1 6.435 6.435" fill="#2ECC71"></path><path d="M895.995 470.912q0-.724-.717-1.141-.718-.417-2.304-.746-5.278-1.107-5.278-4.484 0-1.969 1.634-3.288 1.634-1.32 4.273-1.32 2.816 0 4.505 1.327 1.688 1.326 1.688 3.445h-3.951q0-.848-.547-1.401-.547-.554-1.709-.554-.998 0-1.545.451-.547.451-.547 1.149 0 .656.622 1.06.622.402 2.099.696 1.477.294 2.488.664 3.131 1.148 3.131 3.978 0 2.023-1.736 3.274-1.737 1.251-4.485 1.251-1.859 0-3.301-.663-1.443-.663-2.263-1.818-.82-1.155-.82-2.495h3.746q.054 1.053.779 1.613t1.941.56q1.135 0 1.716-.43t.581-1.128zm13.194 4.361q-3.254 0-5.298-1.996t-2.044-5.318v-.383q0-2.228.861-3.985.862-1.757 2.44-2.707 1.58-.95 3.603-.95 3.035 0 4.778 1.914 1.744 1.914 1.744 5.427v1.614h-9.42q.191 1.449 1.155 2.324.964.875 2.44.875 2.284 0 3.569-1.654l1.941 2.173q-.888 1.258-2.406 1.962-1.518.704-3.363.704zm-.452-12.14q-1.175 0-1.907.793-.731.793-.936 2.27h5.496v-.315q-.028-1.313-.711-2.03-.684-.718-1.942-.718zm14.93 8.955q1.094 0 1.778-.602.683-.601.71-1.6h3.706q-.014 1.505-.82 2.756-.807 1.25-2.209 1.941-1.401.69-3.096.69-3.172 0-5.004-2.016-1.832-2.017-1.832-5.571v-.26q0-3.418 1.818-5.455t4.99-2.037q2.776 0 4.45 1.579 1.675 1.579 1.703 4.204h-3.706q-.027-1.149-.71-1.866-.684-.718-1.805-.718-1.381 0-2.085 1.005t-.704 3.26v.41q0 2.284.697 3.282.697.998 2.12.998zm7.834-4.443v-.178q0-2.201.848-3.924.847-1.723 2.44-2.666 1.593-.943 3.698-.943 2.995 0 4.888 1.832 1.894 1.832 2.112 4.976l.028 1.012q0 3.404-1.9 5.462-1.901 2.057-5.1 2.057-3.2 0-5.107-2.05-1.907-2.051-1.907-5.578zm3.951.109q0 2.105.793 3.22.793 1.114 2.27 1.114 1.435 0 2.242-1.1.807-1.101.807-3.521 0-2.065-.807-3.2-.807-1.134-2.27-1.134-1.449 0-2.242 1.128-.793 1.128-.793 3.493zm12.414-7.547h3.72l.122 1.709q1.586-1.982 4.252-1.982 2.352 0 3.5 1.38 1.149 1.381 1.176 4.13V475h-3.951v-9.46q0-1.259-.547-1.826-.547-.568-1.818-.568-1.668 0-2.502 1.422V475h-3.952v-14.793zm15.149 7.287q0-3.459 1.552-5.51 1.551-2.05 4.245-2.05 2.16 0 3.568 1.613V454h3.965v21h-3.568l-.192-1.572q-1.476 1.845-3.8 1.845-2.612 0-4.191-2.057-1.58-2.058-1.58-5.722zm3.951.287q0 2.078.725 3.186.724 1.107 2.105 1.107 1.832 0 2.584-1.545v-5.838q-.738-1.545-2.557-1.545-2.857 0-2.857 4.635zM991.972 475h-3.992q-.274-.533-.397-1.326-1.435 1.6-3.732 1.6-2.174 0-3.603-1.258-1.428-1.258-1.428-3.172 0-2.352 1.743-3.61 1.743-1.257 5.038-1.271h1.818v-.848q0-1.025-.526-1.64-.527-.616-1.661-.616-.998 0-1.566.479-.567.478-.567 1.312h-3.951q0-1.285.793-2.379.793-1.093 2.242-1.715 1.449-.622 3.254-.622 2.734 0 4.34 1.374 1.607 1.374 1.607 3.862v6.412q.014 2.106.588 3.186V475zm-7.26-2.748q.875 0 1.613-.39.739-.39 1.094-1.046v-2.543h-1.476q-2.967 0-3.159 2.051l-.013.233q0 .738.52 1.216.519.479 1.421.479zm18.074-12.14l-.054 3.8q-.807-.11-1.422-.11-2.242 0-2.94 1.518V475h-3.95v-14.793h3.732l.109 1.764q1.19-2.037 3.295-2.037.656 0 1.23.177zm4.868.095l2.748 9.201 2.734-9.201h4.238l-5.947 17.09-.328.78q-1.326 2.898-4.375 2.898-.862 0-1.75-.26v-2.994l.601.013q1.121 0 1.675-.341.554-.342.868-1.135l.465-1.217-5.181-14.834h4.251z" fill="#4A4A4A" fill-rule="nonzero"></path><g transform="translate(520 517)"><rect fill="#FF003C" fill-rule="nonzero" width="160.3" height="83.3" rx="3.5"></rect><path d="M49.703 44.17h4.101q-.232 3.212-2.372 5.058-2.14 1.845-5.64 1.845-3.828 0-6.022-2.577-2.194-2.577-2.194-7.075v-1.217q0-2.87 1.011-5.058 1.012-2.188 2.892-3.357t4.368-1.169q3.446 0 5.551 1.846 2.106 1.846 2.434 5.182H49.73q-.15-1.928-1.073-2.796-.923-.868-2.81-.868-2.05 0-3.07 1.47-1.018 1.469-1.045 4.559v1.504q0 3.226.978 4.717.977 1.49 3.083 1.49 1.9 0 2.836-.868.937-.869 1.074-2.687zm10.16-13.276v16.611h8.708V50.8h-12.81V30.894h4.101zM83.064 50.8l-1.381-4.102h-7.192L73.125 50.8h-4.361l7.41-19.906h3.8L87.427 50.8h-4.361zm-4.99-14.875L75.6 43.376h4.976l-2.502-7.451zm14.835-5.031V50.8h-4.102V30.894h4.102zm3.063 0h5.36l5.113 14.437 5.086-14.437h5.387V50.8h-4.115v-5.441l.41-9.393L107.84 50.8h-2.817l-5.36-14.82.411 9.379V50.8h-4.102V30.894z" fill="#FFF" fill-rule="nonzero"></path></g><g transform="translate(167 517)"><rect fill="#FF003C" fill-rule="nonzero" width="160.3" height="83.3" rx="3.5"></rect><path d="M49.703 44.17h4.101q-.232 3.212-2.372 5.058-2.14 1.845-5.64 1.845-3.828 0-6.022-2.577-2.194-2.577-2.194-7.075v-1.217q0-2.87 1.011-5.058 1.012-2.188 2.892-3.357t4.368-1.169q3.446 0 5.551 1.846 2.106 1.846 2.434 5.182H49.73q-.15-1.928-1.073-2.796-.923-.868-2.81-.868-2.05 0-3.07 1.47-1.018 1.469-1.045 4.559v1.504q0 3.226.978 4.717.977 1.49 3.083 1.49 1.9 0 2.836-.868.937-.869 1.074-2.687zm10.16-13.276v16.611h8.708V50.8h-12.81V30.894h4.101zM83.064 50.8l-1.381-4.102h-7.192L73.125 50.8h-4.361l7.41-19.906h3.8L87.427 50.8h-4.361zm-4.99-14.875L75.6 43.376h4.976l-2.502-7.451zm14.835-5.031V50.8h-4.102V30.894h4.102zm3.063 0h5.36l5.113 14.437 5.086-14.437h5.387V50.8h-4.115v-5.441l.41-9.393L107.84 50.8h-2.817l-5.36-14.82.411 9.379V50.8h-4.102V30.894z" fill="#FFF" fill-rule="nonzero"></path></g><g transform="translate(876 517)"><rect fill="#FF003C" fill-rule="nonzero" width="160.3" height="83.3" rx="3.5"></rect><path d="M49.703 44.17h4.101q-.232 3.212-2.372 5.058-2.14 1.845-5.64 1.845-3.828 0-6.022-2.577-2.194-2.577-2.194-7.075v-1.217q0-2.87 1.011-5.058 1.012-2.188 2.892-3.357t4.368-1.169q3.446 0 5.551 1.846 2.106 1.846 2.434 5.182H49.73q-.15-1.928-1.073-2.796-.923-.868-2.81-.868-2.05 0-3.07 1.47-1.018 1.469-1.045 4.559v1.504q0 3.226.978 4.717.977 1.49 3.083 1.49 1.9 0 2.836-.868.937-.869 1.074-2.687zm10.16-13.276v16.611h8.708V50.8h-12.81V30.894h4.101zM83.064 50.8l-1.381-4.102h-7.192L73.125 50.8h-4.361l7.41-19.906h3.8L87.427 50.8h-4.361zm-4.99-14.875L75.6 43.376h4.976l-2.502-7.451zm14.835-5.031V50.8h-4.102V30.894h4.102zm3.063 0h5.36l5.113 14.437 5.086-14.437h5.387V50.8h-4.115v-5.441l.41-9.393L107.84 50.8h-2.817l-5.36-14.82.411 9.379V50.8h-4.102V30.894z" fill="#FFF" fill-rule="nonzero"></path></g><g fill-rule="nonzero"><g transform="translate(362 303)"><path fill="#9EEBCF" d="M0 6h123v3H0z"></path><circle stroke="#9EEBCF" stroke-width="3" fill="#FFF" cx="123.5" cy="7.5" r="6.5"></circle><path fill="#9EEBCF" d="M-4 7.5L4 13V2z"></path></g><g transform="translate(362 324)"><path fill="#9EEBCF" d="M0 6h123v3H0z"></path><circle stroke="#9EEBCF" stroke-width="3" fill="#FFF" cx=".5" cy="7.5" r="6.5"></circle><path fill="#9EEBCF" d="M125 7.5l-8 5.5V2z"></path></g></g><g fill-rule="nonzero"><g transform="translate(714 303)"><path fill="#9EEBCF" d="M0 6h128v3H0z"></path><circle stroke="#9EEBCF" stroke-width="3" fill="#FFF" cx="128.5" cy="7.5" r="6.5"></circle><path fill="#9EEBCF" d="M-4 7.5L4 13V2z"></path></g><g transform="translate(714 324)"><path fill="#9EEBCF" d="M0 6h128v3H0z"></path><circle stroke="#9EEBCF" stroke-width="3" fill="#FFF" cx=".5" cy="7.5" r="6.5"></circle><path fill="#9EEBCF" d="M130 7.5l-8 5.5V2z"></path></g></g></g></svg>