<svg viewBox="0 0 1200 900" xmlns="http://www.w3.org/2000/svg"><path d="M131.684 449.088l-2.57 7.435q-16.524-4.635-16.524-21.342v-9.134q0-9.685-8.17-9.685v-9.5q7.986 0 8.17-9.134v-9.73q0-8.492 4.13-13.725 4.132-5.232 12.393-7.573l2.57 7.39q-3.487 1.285-5.278 4.475-1.79 3.19-1.881 8.835v9.64q0 10.372-8.216 14.549 8.216 4.223 8.216 14.641v9.73q.23 10.741 7.16 13.128zm28.033 0l-2.57 7.435q-16.524-4.635-16.524-21.342v-9.134q0-9.685-8.17-9.685v-9.5q7.987 0 8.17-9.134v-9.73q0-8.492 4.131-13.725 4.131-5.232 12.393-7.573l2.57 7.39q-3.488 1.285-5.278 4.475-1.79 3.19-1.882 8.835v9.64q0 10.372-8.216 14.549 8.216 4.223 8.216 14.641v9.73q.23 10.741 7.16 13.128zm24.764-15.606q0-3.167 2.134-5.14 2.135-1.974 5.348-1.974 3.258 0 5.393 1.974 2.134 1.973 2.134 5.14 0 3.122-2.111 5.072-2.112 1.95-5.416 1.95-3.26 0-5.37-1.95-2.112-1.95-2.112-5.072zm64.706-33.23v10.786H222.75v17.9h31.027V440H208.98v-66.828h44.705v11.153H222.75v15.927h26.437zm8.527-9.914h12.484l.413 5.737q5.324-6.655 14.275-6.655 7.894 0 11.75 4.636 3.855 4.635 3.947 13.861V440h-13.265v-31.762q0-4.222-1.836-6.127-1.836-1.905-6.104-1.905-5.6 0-8.4 4.773V440h-13.264v-49.662zm59.29 0l9.226 33.46 9.225-33.46h13.861L332.564 440h-12.668l-16.753-49.662h13.861zm49.147 0V440h-13.31v-49.662h13.31zm-14.091-12.852q0-2.983 1.996-4.91 1.997-1.929 5.44-1.929 3.396 0 5.415 1.928 2.02 1.928 2.02 4.911 0 3.03-2.043 4.957-2.042 1.928-5.393 1.928-3.35 0-5.393-1.928-2.042-1.927-2.042-4.957zm50.11 12.53l-.183 12.76q-2.708-.367-4.774-.367-7.527 0-9.868 5.095V440H374.08v-49.662h12.53l.368 5.92q3.993-6.838 11.061-6.838 2.204 0 4.131.597zm-.515 25.29v-.596q0-7.39 2.845-13.173 2.846-5.783 8.193-8.95 5.348-3.167 12.416-3.167 10.052 0 16.409 6.15 6.357 6.15 7.09 16.707l.093 3.397q0 11.429-6.38 18.336-6.38 6.908-17.12 6.908-10.74 0-17.143-6.885-6.403-6.885-6.403-18.726zm13.264.368q0 7.068 2.663 10.809 2.662 3.74 7.619 3.74 4.819 0 7.527-3.694 2.708-3.695 2.708-11.819 0-6.93-2.708-10.74-2.708-3.81-7.62-3.81-4.864 0-7.526 3.787-2.663 3.786-2.663 11.727zm38.682-25.336h12.485l.413 5.737q5.324-6.655 14.274-6.655 7.895 0 11.75 4.636 3.856 4.635 3.947 13.861V440h-13.264v-31.762q0-4.222-1.836-6.127-1.836-1.905-6.105-1.905-5.6 0-8.4 4.773V440h-13.264v-49.662zm49.927 0h12.439l.413 5.554q5.278-6.472 14.274-6.472 9.593 0 13.173 7.573 5.232-7.573 14.917-7.573 8.078 0 12.025 4.705 3.948 4.704 3.948 14.16V440h-13.311v-31.67q0-4.223-1.652-6.173-1.653-1.95-5.83-1.95-5.966 0-8.261 5.69l.046 34.103h-13.265v-31.624q0-4.314-1.698-6.242t-5.783-1.928q-5.646 0-8.17 4.682V440h-13.265v-49.662zm101.241 50.58q-10.923 0-17.785-6.701t-6.862-17.855v-1.285q0-7.481 2.892-13.38 2.891-5.897 8.192-9.087 5.302-3.19 12.095-3.19 10.19 0 16.041 6.426 5.852 6.425 5.852 18.221v5.416H593.57q.643 4.866 3.879 7.803 3.236 2.938 8.193 2.938 7.665 0 11.979-5.554l6.518 7.298q-2.984 4.222-8.079 6.586-5.094 2.364-11.29 2.364zm-1.514-40.758q-3.947 0-6.403 2.662-2.456 2.662-3.144 7.62h18.451v-1.056q-.092-4.407-2.387-6.816-2.295-2.41-6.517-2.41zm26.197-9.822h12.485l.413 5.737q5.324-6.655 14.274-6.655 7.895 0 11.75 4.636 3.856 4.635 3.947 13.861V440h-13.264v-31.762q0-4.222-1.836-6.127-1.836-1.905-6.105-1.905-5.6 0-8.4 4.773V440h-13.264v-49.662zm52.543-12.21h13.265v12.21h8.491v9.73h-8.491v24.786q0 2.753 1.056 3.947 1.055 1.193 4.039 1.193 2.203 0 3.901-.321v10.052q-3.901 1.193-8.032 1.193-13.953 0-14.229-14.09v-26.76h-7.252v-9.73h7.252v-12.21zM744.911 440v10.373h-41.813V440h41.813zm1.918-49.662h12.484l.413 5.737q5.324-6.655 14.274-6.655 7.895 0 11.75 4.636 3.856 4.635 3.948 13.861V440h-13.265v-31.762q0-4.222-1.836-6.127-1.836-1.905-6.104-1.905-5.6 0-8.4 4.773V440H746.83v-49.662zM838.936 440h-13.402q-.918-1.79-1.331-4.452-4.82 5.37-12.53 5.37-7.298 0-12.095-4.223-4.796-4.222-4.796-10.648 0-7.895 5.852-12.117 5.852-4.223 16.914-4.269h6.104v-2.846q0-3.442-1.767-5.507-1.767-2.066-5.577-2.066-3.35 0-5.255 1.607-1.905 1.606-1.905 4.406h-13.265q0-4.315 2.663-7.986 2.662-3.672 7.527-5.76 4.865-2.09 10.924-2.09 9.18 0 14.572 4.614 5.394 4.613 5.394 12.966v21.526q.045 7.069 1.973 10.695v.78zm-24.372-9.226q2.938 0 5.416-1.308 2.479-1.308 3.672-3.51v-8.538h-4.957q-9.96 0-10.603 6.885l-.045.78q0 2.479 1.744 4.085 1.744 1.606 4.773 1.606zm29.594-40.436h12.438l.414 5.554q5.278-6.472 14.274-6.472 9.593 0 13.173 7.573 5.232-7.573 14.917-7.573 8.078 0 12.025 4.705 3.947 4.704 3.947 14.16V440h-13.31v-31.67q0-4.223-1.652-6.173-1.653-1.95-5.83-1.95-5.966 0-8.261 5.69l.046 34.103h-13.265v-31.624q0-4.314-1.698-6.242t-5.783-1.928q-5.646 0-8.17 4.682V440h-13.265v-49.662zm101.241 50.58q-10.923 0-17.785-6.701t-6.862-17.855v-1.285q0-7.481 2.892-13.38 2.891-5.897 8.192-9.087 5.302-3.19 12.095-3.19 10.19 0 16.041 6.426 5.852 6.425 5.852 18.221v5.416H934.2q.643 4.866 3.879 7.803 3.235 2.938 8.192 2.938 7.665 0 11.98-5.554l6.518 7.298q-2.984 4.222-8.079 6.586-5.094 2.364-11.29 2.364zm-1.514-40.758q-3.948 0-6.403 2.662-2.456 2.662-3.144 7.62h18.451v-1.056q-.092-4.407-2.387-6.816-2.295-2.41-6.517-2.41zm45.923 56.363l-2.57-7.435q6.976-2.479 7.16-13.31v-9.731q0-10.373 8.4-14.412-8.4-4.04-8.4-14.642V387.4q-.184-10.694-7.16-13.31l2.57-7.39q8.216 2.295 12.347 7.505 4.13 5.21 4.176 13.654v9.869q.184 9.133 8.17 9.133v9.501q-8.17 0-8.17 9.593v9.96q-.367 16.064-16.523 20.608zm28.033 0l-2.57-7.435q6.976-2.479 7.16-13.31v-9.731q0-10.373 8.4-14.412-8.4-4.04-8.4-14.642V387.4q-.184-10.694-7.16-13.31l2.57-7.39q8.216 2.295 12.347 7.505 4.13 5.21 4.177 13.654v9.869q.183 9.133 8.17 9.133v9.501q-8.17 0-8.17 9.593v9.96q-.368 16.064-16.524 20.608z"></path></svg>