<svg viewBox="0 0 1200 900" xmlns="http://www.w3.org/2000/svg"><g fill="none" fill-rule="evenodd"><path fill="#000" fill-rule="nonzero" d="M71 450h975v8H71z"/><path fill="#000" fill-rule="nonzero" d="M1108.781 453.891L1031 492.781V415z"/><path fill="#0C2E55" fill-rule="nonzero" d="M71 407h34v88H71zm587 0h34v88h-34zm116 0h16v88h-16zm98 0h16v88h-16zm98 0h16v88h-16z"/><text font-family="sans-serif" font-size="72" font-weight="400" letter-spacing="-1.895" fill="#000"><tspan x="734" y="273">period</tspan></text><path d="M692 543.178c0 19.14-6.152 32.242-18.457 39.306-12.304 7.063-31.444 10.595-57.42 10.595H504.701c-27.799 0-51.268 3.19-70.408 9.57-19.14 6.38-35.09 19.596-47.85 39.647h-13.672c-1.367-7.291-5.468-14.013-12.304-20.165-6.836-6.152-15.494-11.393-25.976-15.722-10.481-4.33-22.33-7.633-35.545-9.912-13.216-2.279-26.66-3.418-40.331-3.418H146.508c-25.976 0-44.888-3.532-56.736-10.595-11.85-7.064-17.773-20.166-17.773-39.306V509H85.67v32.811c0 13.672 5.127 23.356 15.38 29.052 10.254 5.696 29.508 8.545 57.762 8.545h111.424c10.025 0 20.735.911 32.128 2.734 11.392 1.823 22.33 4.785 32.811 8.886 10.482 4.102 19.824 9.229 28.026 15.38 8.203 6.153 14.128 13.558 17.773 22.217 7.292-15.039 21.305-27.001 42.04-35.888 20.735-8.886 44.09-13.33 70.066-13.33h110.739c15.039 0 27.457-.797 37.255-2.392 9.797-1.595 17.43-3.873 22.9-6.836 5.468-2.962 9.227-6.835 11.278-11.62 2.05-4.785 3.076-10.368 3.076-16.748V509H692v34.178zm-7-166.057c0-9.293 2.986-15.653 8.96-19.083 5.974-3.429 15.266-5.144 27.876-5.144h54.094c13.496 0 24.89-1.548 34.182-4.646 9.292-3.097 17.036-9.513 23.23-19.248h6.638c.664 3.54 2.655 6.804 5.973 9.79 3.319 2.987 7.523 5.531 12.611 7.633 5.089 2.102 10.841 3.706 17.257 4.812a115.03 115.03 0 0 0 19.58 1.66h54.426c12.61 0 21.792 1.714 27.544 5.143 5.753 3.43 8.629 9.79 8.629 19.083v16.593h-6.638v-15.93c0-6.637-2.489-11.338-7.467-14.104-4.977-2.765-14.325-4.148-28.042-4.148h-54.094c-4.867 0-10.066-.443-15.597-1.328a76.934 76.934 0 0 1-15.93-4.314c-5.088-1.991-9.624-4.48-13.606-7.467-3.982-2.987-6.859-6.582-8.629-10.785-3.54 7.3-10.343 13.108-20.41 17.422-10.066 4.315-21.404 6.472-34.015 6.472H727.81c-7.301 0-13.33.387-18.087 1.161-4.756.775-8.462 1.88-11.117 3.319-2.655 1.438-4.48 3.319-5.476 5.642-.995 2.323-1.493 5.033-1.493 8.13v15.93H685v-16.593z" fill="#000"/><text font-family="sans-serif" font-size="72" font-weight="400" letter-spacing="-1.895" fill="#000"><tspan x="252" y="763">wait 10s</tspan></text></g></svg>