<svg viewBox="0 0 1200 900" xmlns="http://www.w3.org/2000/svg"><g fill="none" fill-rule="evenodd"><g transform="translate(641 273)"><rect stroke="#76AADF" stroke-width="1.96" fill="#CEE2F6" fill-rule="nonzero" x=".98" y=".98" width="487.04" height="487.04" rx="19.6"/><rect stroke="#AD9E6A" stroke-width="1.96" fill="#FFF2C5" fill-rule="nonzero" x="36.98" y=".98" width="417.04" height="260.04" rx="4.9"/><rect stroke="#AD9E6A" stroke-width="1.96" fill="#FFF2C5" fill-rule="nonzero" x="36.98" y="298.98" width="176.04" height="157.04" rx="4.9"/><g transform="translate(56 298)"><rect stroke="#7C9D6E" stroke-width="1.96" fill="#D6E9CE" fill-rule="nonzero" x=".98" y=".98" width="156.8" height="81.34" rx="4.9"/><text font-family="sans-serif" font-size="31.703" font-weight="bold" letter-spacing="-1.01" fill="#000"><tspan x="48.507" y="38.84">eth0</tspan></text><text font-family="sans-serif" font-size="21.903" font-weight="bold" letter-spacing="-.386" fill="#000"><tspan x="29.555" y="67.06">172.17.1.2</tspan></text></g><g transform="translate(56 209)"><rect stroke="#7C9D6E" stroke-width="1.96" fill="#D6E9CE" fill-rule="nonzero" x=".98" y=".98" width="156.8" height="51.94" rx="4.9"/><text font-family="sans-serif" font-size="31.703" font-weight="bold" letter-spacing="-1.01" fill="#000"><tspan x="40.769" y="37.02">veth0</tspan></text></g><rect stroke="#AD9E6A" stroke-width="1.96" fill="#FFF2C5" fill-rule="nonzero" x="276.98" y="298.98" width="176.04" height="157.04" rx="4.9"/><g transform="translate(276 298)"><rect stroke="#7C9D6E" stroke-width="1.96" fill="#D6E9CE" fill-rule="nonzero" x=".98" y=".98" width="156.8" height="81.34" rx="4.9"/><text font-family="sans-serif" font-size="31.703" font-weight="bold" letter-spacing="-1.01" fill="#000"><tspan x="48.507" y="38.84">eth0</tspan></text><text font-family="sans-serif" font-size="21.903" font-weight="bold" letter-spacing="-.386" fill="#000"><tspan x="29.555" y="67.06">172.17.1.3</tspan></text></g><g transform="translate(276 209)"><rect stroke="#7C9D6E" stroke-width="1.96" fill="#D6E9CE" fill-rule="nonzero" x=".98" y=".98" width="156.8" height="51.94" rx="4.9"/><text font-family="sans-serif" font-size="31.703" font-weight="bold" letter-spacing="-1.01" fill="#000"><tspan x="40.769" y="37.02">veth1</tspan></text></g><text font-family="sans-serif" font-size="31.703" font-weight="bold" letter-spacing="-1.01" fill="#000"><tspan x="207.304" y="530">Node</tspan></text><text font-family="sans-serif" font-size="21.56" font-weight="bold" letter-spacing="-.687" fill="#AD9E6A"><tspan x="71.023" y="447">Pod3 netns</tspan></text><text font-family="sans-serif" font-size="21.56" font-weight="bold" letter-spacing="-.687" fill="#AD9E6A"><tspan x="311.023" y="447">Pod4 netns</tspan></text><text font-family="sans-serif" font-size="21.56" font-weight="bold" letter-spacing="-.687" fill="#AD9E6A"><tspan x="338.129" y="29">Root netns</tspan></text><g transform="translate(166)"><rect stroke="#7C9D6E" stroke-width="1.96" fill="#D6E9CE" fill-rule="nonzero" x=".98" y=".98" width="156.8" height="81.34" rx="4.9"/><text font-family="sans-serif" font-size="31.703" font-weight="bold" letter-spacing="-1.01" fill="#000"><tspan x="48.507" y="38.84">eth0</tspan></text><text font-family="sans-serif" font-size="21.903" font-weight="bold" letter-spacing="-.386" fill="#000"><tspan x="29.555" y="67.06">10.100.0.3</tspan></text></g><g transform="translate(166 98)"><rect stroke="#7C9D6E" stroke-width="1.96" fill="#D6E9CE" fill-rule="nonzero" x=".98" y=".98" width="156.8" height="81.34" rx="4.9"/><text font-family="sans-serif" font-size="31.703" font-weight="bold" letter-spacing="-1.01" fill="#000"><tspan x="21.267" y="38.84">docker0</tspan></text><text font-family="sans-serif" font-size="21.903" font-weight="bold" letter-spacing="-.386" fill="#000"><tspan x="29.555" y="67.06">172.17.1.1</tspan></text></g><path fill="#000" fill-rule="nonzero" d="M129 263h13v35h-13z"/><g fill="#000" fill-rule="nonzero"><path d="M129 134h12.759v76H129z"/><path d="M166.397 134.036v12.759h-35.533v-12.759z"/></g><g fill="#D0021B" fill-rule="nonzero"><path d="M363 134h-12.759v76H363z"/><path d="M325.603 134.036v12.759h35.533v-12.759z"/></g><path fill="#000" fill-rule="nonzero" d="M350 263h13v35h-13z"/><path fill="#D0021B" fill-rule="nonzero" d="M240 83h13v15h-13z"/></g><g transform="translate(70 273)"><rect stroke="#76AADF" stroke-width="1.96" fill="#CEE2F6" fill-rule="nonzero" x=".98" y=".98" width="487.04" height="487.04" rx="19.6"/><rect stroke="#AD9E6A" stroke-width="1.96" fill="#FFF2C5" fill-rule="nonzero" x="36.98" y=".98" width="417.04" height="260.04" rx="4.9"/><rect stroke="#AD9E6A" stroke-width="1.96" fill="#FFF2C5" fill-rule="nonzero" x="36.98" y="298.98" width="176.04" height="157.04" rx="4.9"/><g transform="translate(56 298)"><rect stroke="#7C9D6E" stroke-width="1.96" fill="#D6E9CE" fill-rule="nonzero" x=".98" y=".98" width="156.8" height="81.34" rx="4.9"/><text font-family="sans-serif" font-size="31.703" font-weight="bold" letter-spacing="-1.01" fill="#000"><tspan x="48.507" y="38.84">eth0</tspan></text><text font-family="sans-serif" font-size="21.903" font-weight="bold" letter-spacing="-.386" fill="#000"><tspan x="29.555" y="67.06">172.17.0.2</tspan></text></g><g transform="translate(56 209)"><rect stroke="#7C9D6E" stroke-width="1.96" fill="#D6E9CE" fill-rule="nonzero" x=".98" y=".98" width="156.8" height="51.94" rx="4.9"/><text font-family="sans-serif" font-size="31.703" font-weight="bold" letter-spacing="-1.01" fill="#000"><tspan x="40.769" y="37.02">veth0</tspan></text></g><rect stroke="#AD9E6A" stroke-width="1.96" fill="#FFF2C5" fill-rule="nonzero" x="276.98" y="298.98" width="176.04" height="157.04" rx="4.9"/><g transform="translate(276 298)"><rect stroke="#7C9D6E" stroke-width="1.96" fill="#D6E9CE" fill-rule="nonzero" x=".98" y=".98" width="156.8" height="81.34" rx="4.9"/><text font-family="sans-serif" font-size="31.703" font-weight="bold" letter-spacing="-1.01" fill="#000"><tspan x="48.507" y="38.84">eth0</tspan></text><text font-family="sans-serif" font-size="21.903" font-weight="bold" letter-spacing="-.386" fill="#000"><tspan x="29.555" y="67.06">172.17.0.3</tspan></text></g><g transform="translate(276 209)"><rect stroke="#7C9D6E" stroke-width="1.96" fill="#D6E9CE" fill-rule="nonzero" x=".98" y=".98" width="156.8" height="51.94" rx="4.9"/><text font-family="sans-serif" font-size="31.703" font-weight="bold" letter-spacing="-1.01" fill="#000"><tspan x="40.769" y="37.02">veth1</tspan></text></g><text font-family="sans-serif" font-size="31.703" font-weight="bold" letter-spacing="-1.01" fill="#000"><tspan x="207.304" y="530">Node</tspan></text><text font-family="sans-serif" font-size="21.56" font-weight="bold" letter-spacing="-.687" fill="#AD9E6A"><tspan x="71.023" y="447">Pod1 netns</tspan></text><text font-family="sans-serif" font-size="21.56" font-weight="bold" letter-spacing="-.687" fill="#AD9E6A"><tspan x="311.023" y="447">Pod2 netns</tspan></text><text font-family="sans-serif" font-size="21.56" font-weight="bold" letter-spacing="-.687" fill="#AD9E6A"><tspan x="338.129" y="29">Root netns</tspan></text><g transform="translate(166)"><rect stroke="#7C9D6E" stroke-width="1.96" fill="#D6E9CE" fill-rule="nonzero" x=".98" y=".98" width="156.8" height="81.34" rx="4.9"/><text font-family="sans-serif" font-size="31.703" font-weight="bold" letter-spacing="-1.01" fill="#000"><tspan x="48.507" y="38.84">eth0</tspan></text><text font-family="sans-serif" font-size="21.903" font-weight="bold" letter-spacing="-.386" fill="#000"><tspan x="29.555" y="67.06">10.100.0.2</tspan></text></g><g transform="translate(166 98)"><rect stroke="#7C9D6E" stroke-width="1.96" fill="#D6E9CE" fill-rule="nonzero" x=".98" y=".98" width="156.8" height="81.34" rx="4.9"/><text font-family="sans-serif" font-size="31.703" font-weight="bold" letter-spacing="-1.01" fill="#000"><tspan x="21.267" y="38.84">docker0</tspan></text><text font-family="sans-serif" font-size="21.903" font-weight="bold" letter-spacing="-.386" fill="#000"><tspan x="29.555" y="67.06">172.17.0.1</tspan></text></g><path fill="#D0021B" fill-rule="nonzero" d="M129 263h13v35h-13z"/><g fill="#D0021B" fill-rule="nonzero"><path d="M129 134h12.759v76H129z"/><path d="M166.397 134.036v12.759h-35.533v-12.759z"/></g><g fill="#000" fill-rule="nonzero"><path d="M363 134h-12.759v76H363z"/><path d="M325.603 134.036v12.759h35.533v-12.759z"/></g><path fill="#000" fill-rule="nonzero" d="M350 263h13v35h-13z"/><path fill="#D0021B" fill-rule="nonzero" d="M240 83h13v15h-13z"/></g><circle fill="#D0021B" fill-rule="nonzero" cx="205" cy="571" r="15"/><g fill="#000" fill-rule="nonzero"><path d="M310 147h13v126h-13z"/><path d="M465 147v13H313v-13z"/></g><g fill="#D0021B" fill-rule="nonzero"><path d="M310 147h13v126h-13z"/><path d="M465 147v13H313v-13z"/></g><g fill="#D0021B" fill-rule="nonzero"><path d="M894 147h-13v126h13z"/><path d="M714 147v13h177v-13z"/></g><text font-family="sans-serif" font-size="45.29" font-weight="bold" letter-spacing="-1.442" fill="#000"><tspan x="65.018" y="103">Pod1</tspan></text><text font-family="sans-serif" font-size="25.29" font-weight="bold" letter-spacing="-.805" fill="#000"><tspan x="65.063" y="54">FROM:</tspan></text><text font-family="sans-serif" font-size="25.29" font-weight="bold" letter-spacing="-.805" fill="#000"><tspan x="65.129" y="157">TO:</tspan></text><rect stroke="#B38D62" stroke-width="3" fill="#FCCA91" fill-rule="nonzero" x="425.5" y="48.5" width="349" height="190" rx="5"/><text font-family="sans-serif" font-size="30.8" font-weight="bold" letter-spacing="-.981" fill="#B38D62"><tspan x="489.364" y="190">Router/gateway</tspan></text><path fill="#E6C8A5" fill-rule="nonzero" d="M436 96h157v58H436zm171 0h157v58H607z"/><text font-family="sans-serif" font-size="30.8" font-weight="bold" letter-spacing="-.981" fill="#000"><tspan x="532.124" y="227">10.100.0.1</tspan></text><text font-family="sans-serif" font-size="30.8" font-weight="bold" letter-spacing="-.981" fill="#000"><tspan x="436.073" y="89">Destination</tspan></text><text font-family="sans-serif" font-size="30.8" font-weight="bold" letter-spacing="-.981" fill="#000"><tspan x="623.25" y="89">Next hop</tspan></text><text font-family="sans-serif" font-size="21.56" font-weight="bold" letter-spacing="-.687" fill="#000"><tspan x="452.03" y="120">172.17.0.0/24</tspan></text><text font-family="sans-serif" font-size="21.56" font-weight="bold" letter-spacing="-.687" fill="#000"><tspan x="452.03" y="146">172.17.1.0/24</tspan></text><text font-family="sans-serif" font-size="21.56" font-weight="bold" letter-spacing="-.687" fill="#000"><tspan x="637.487" y="120">10.100.0.2</tspan></text><text font-family="sans-serif" font-size="21.56" font-weight="bold" letter-spacing="-.687" fill="#000"><tspan x="637.487" y="146">10.100.0.3</tspan></text><text font-family="sans-serif" font-size="45.29" font-weight="bold" letter-spacing="-1.442" fill="#000"><tspan x="65.018" y="206">Pod4</tspan></text></g></svg>