<svg viewBox="0 0 1200 900" xmlns="http://www.w3.org/2000/svg"><g fill="none" fill-rule="evenodd"><g transform="translate(641 273)"><rect stroke="#76AADF" stroke-width="1.96" fill="#CEE2F6" fill-rule="nonzero" x=".98" y=".98" width="487.04" height="487.04" rx="19.6"></rect><rect stroke="#AD9E6A" stroke-width="1.96" fill="#FFF2C5" fill-rule="nonzero" x="36.98" y=".98" width="417.04" height="260.04" rx="4.9"></rect><rect stroke="#AD9E6A" stroke-width="1.96" fill="#FFF2C5" fill-rule="nonzero" x="36.98" y="298.98" width="176.04" height="157.04" rx="4.9"></rect><g transform="translate(56 298)"><rect stroke="#7C9D6E" stroke-width="1.96" fill="#D6E9CE" fill-rule="nonzero" x=".98" y=".98" width="156.8" height="81.34" rx="4.9"></rect><path d="M57.725 39.143q-3.602 0-5.865-2.21-2.263-2.21-2.263-5.888v-.424q0-2.468.953-4.413.954-1.945 2.702-2.997 1.749-1.052 3.989-1.052 3.36 0 5.29 2.12 1.93 2.119 1.93 6.009v1.786h-10.43q.213 1.604 1.28 2.573 1.067.969 2.702.969 2.528 0 3.95-1.832l2.15 2.407q-.984 1.393-2.664 2.172-1.68.78-3.724.78zm-.5-13.442q-1.301 0-2.11.878-.81.878-1.038 2.513h6.085v-.348q-.03-1.453-.787-2.248-.757-.795-2.15-.795zm9.571-7.265h4.375v4.026h2.8v3.21h-2.8v8.173q0 .908.348 1.302.348.393 1.332.393.727 0 1.287-.106v3.315q-1.287.394-2.65.394-4.6 0-4.692-4.647V25.67h-2.391v-3.209h2.391v-4.026zm12.87-2.846v8.658q1.741-2.089 4.375-2.089 5.328 0 5.404 6.191v10.49H85.07V28.471q0-1.407-.605-2.081-.605-.674-2.013-.674-1.923 0-2.785 1.484v11.64h-4.375V15.59h4.375zm26.721 10.081v4.057q0 4.571-1.892 6.993-1.892 2.422-5.54 2.422-3.603 0-5.51-2.377-1.907-2.376-1.952-6.811v-4.057q0-4.617 1.914-7.008 1.915-2.392 5.518-2.392 3.602 0 5.51 2.37 1.907 2.368 1.952 6.803zm-4.374 4.844v-5.238q0-2.74-.75-3.988-.749-1.249-2.338-1.249-1.544 0-2.278 1.188-.734 1.189-.78 3.716v5.359q0 2.694.734 4.004.734 1.309 2.354 1.309 1.605 0 2.316-1.256.711-1.257.742-3.845zM37.768 52.11v14.95h-2.963V55.637l-3.538 1.097v-2.41l6.184-2.214h.317zm14.616.02v1.661L46.61 67.06h-3.128l5.784-12.53h-7.424v-2.4h10.54zm11.744 12.54v2.39H53.895v-2.03l4.83-5.148q.994-1.087 1.47-1.897.478-.81.478-1.538 0-.994-.503-1.564-.502-.569-1.435-.569-1.005 0-1.585.693-.579.692-.579 1.82h-2.974q0-1.364.652-2.492.65-1.128 1.84-1.769 1.19-.64 2.697-.64 2.307 0 3.584 1.107 1.276 1.107 1.276 3.127 0 1.108-.574 2.256-.574 1.148-1.969 2.676l-3.394 3.579h6.42zm1.706.934q0-.708.477-1.148.477-.441 1.194-.441.728 0 1.205.44.477.441.477 1.149 0 .697-.472 1.133-.471.436-1.21.436-.728 0-1.2-.436-.471-.436-.471-1.133zM78.47 52.11v14.95h-2.963V55.637l-3.538 1.097v-2.41l6.184-2.214h.317zm14.616.02v1.661L87.313 67.06h-3.127l5.783-12.53h-7.424v-2.4h10.54zm1.788 13.474q0-.708.477-1.148.476-.441 1.194-.441.728 0 1.205.44.477.441.477 1.149 0 .697-.472 1.133-.472.436-1.21.436-.728 0-1.2-.436-.471-.436-.471-1.133zM107.51 52.11v14.95h-2.963V55.637l-3.538 1.097v-2.41l6.183-2.214h.318zm4.741 13.494q0-.708.477-1.148.477-.441 1.195-.441.728 0 1.204.44.477.441.477 1.149 0 .697-.471 1.133-.472.436-1.21.436-.728 0-1.2-.436t-.472-1.133zm15.672-.933v2.389h-10.234v-2.03l4.83-5.148q.995-1.087 1.471-1.897.477-.81.477-1.538 0-.994-.502-1.564-.503-.569-1.436-.569-1.005 0-1.584.693-.58.692-.58 1.82h-2.973q0-1.364.651-2.492t1.84-1.769q1.19-.64 2.698-.64 2.307 0 3.583 1.107 1.277 1.107 1.277 3.127 0 1.108-.574 2.256-.575 1.148-1.97 2.676l-3.393 3.579h6.419z" fill="#000" fill-rule="nonzero"></path></g><g transform="translate(56 209)"><rect stroke="#7C9D6E" stroke-width="1.96" fill="#D6E9CE" fill-rule="nonzero" x=".98" y=".98" width="156.8" height="51.94" rx="4.9"></rect><path d="M45.537 20.642l3.043 11.035 3.042-11.035h4.571L50.668 37.02h-4.177l-5.525-16.378h4.571zm18.91 16.68q-3.603 0-5.865-2.21-2.263-2.21-2.263-5.887V28.8q0-2.468.953-4.413.954-1.945 2.702-2.997 1.748-1.052 3.989-1.052 3.36 0 5.29 2.12 1.93 2.119 1.93 6.009v1.786h-10.43q.213 1.604 1.28 2.573 1.067.969 2.702.969 2.527 0 3.95-1.832l2.15 2.407q-.984 1.393-2.664 2.172-1.68.78-3.724.78zm-.5-13.44q-1.301 0-2.111.877-.81.878-1.037 2.513h6.085v-.348q-.03-1.453-.787-2.248-.757-.795-2.15-.795zm9.571-7.266h4.375v4.026h2.8v3.21h-2.8v8.173q0 .908.348 1.302.348.393 1.332.393.726 0 1.286-.106v3.315q-1.286.394-2.649.394-4.601 0-4.692-4.647V23.85h-2.392v-3.209h2.392v-4.026zm12.87-2.846v8.658q1.741-2.089 4.375-2.089 5.328 0 5.404 6.191v10.49h-4.375V26.651q0-1.407-.605-2.081-.606-.674-2.013-.674-1.923 0-2.786 1.484v11.64h-4.374V13.77h4.374zm26.72 10.081v4.057q0 4.571-1.891 6.993-1.892 2.422-5.54 2.422-3.603 0-5.51-2.377-1.907-2.376-1.953-6.811v-4.057q0-4.617 1.915-7.008 1.915-2.392 5.517-2.392 3.603 0 5.51 2.37 1.907 2.368 1.953 6.803zm-4.374 4.844v-5.238q0-2.74-.749-3.988-.75-1.249-2.339-1.249-1.543 0-2.278 1.188-.734 1.189-.78 3.716v5.359q0 2.694.735 4.004.734 1.309 2.354 1.309 1.604 0 2.316-1.256.711-1.257.741-3.845z" fill="#000" fill-rule="nonzero"></path></g><rect stroke="#AD9E6A" stroke-width="1.96" fill="#FFF2C5" fill-rule="nonzero" x="276.98" y="298.98" width="176.04" height="157.04" rx="4.9"></rect><g transform="translate(276 298)"><rect stroke="#7C9D6E" stroke-width="1.96" fill="#D6E9CE" fill-rule="nonzero" x=".98" y=".98" width="156.8" height="81.34" rx="4.9"></rect><path d="M57.725 39.143q-3.602 0-5.865-2.21-2.263-2.21-2.263-5.888v-.424q0-2.468.953-4.413.954-1.945 2.702-2.997 1.749-1.052 3.989-1.052 3.36 0 5.29 2.12 1.93 2.119 1.93 6.009v1.786h-10.43q.213 1.604 1.28 2.573 1.067.969 2.702.969 2.528 0 3.95-1.832l2.15 2.407q-.984 1.393-2.664 2.172-1.68.78-3.724.78zm-.5-13.442q-1.301 0-2.11.878-.81.878-1.038 2.513h6.085v-.348q-.03-1.453-.787-2.248-.757-.795-2.15-.795zm9.571-7.265h4.375v4.026h2.8v3.21h-2.8v8.173q0 .908.348 1.302.348.393 1.332.393.727 0 1.287-.106v3.315q-1.287.394-2.65.394-4.6 0-4.692-4.647V25.67h-2.391v-3.209h2.391v-4.026zm12.87-2.846v8.658q1.741-2.089 4.375-2.089 5.328 0 5.404 6.191v10.49H85.07V28.471q0-1.407-.605-2.081-.605-.674-2.013-.674-1.923 0-2.785 1.484v11.64h-4.375V15.59h4.375zm26.721 10.081v4.057q0 4.571-1.892 6.993-1.892 2.422-5.54 2.422-3.603 0-5.51-2.377-1.907-2.376-1.952-6.811v-4.057q0-4.617 1.914-7.008 1.915-2.392 5.518-2.392 3.602 0 5.51 2.37 1.907 2.368 1.952 6.803zm-4.374 4.844v-5.238q0-2.74-.75-3.988-.749-1.249-2.338-1.249-1.544 0-2.278 1.188-.734 1.189-.78 3.716v5.359q0 2.694.734 4.004.734 1.309 2.354 1.309 1.605 0 2.316-1.256.711-1.257.742-3.845zM37.768 52.11v14.95h-2.963V55.637l-3.538 1.097v-2.41l6.184-2.214h.317zm14.616.02v1.661L46.61 67.06h-3.128l5.784-12.53h-7.424v-2.4h10.54zm11.744 12.54v2.39H53.895v-2.03l4.83-5.148q.994-1.087 1.47-1.897.478-.81.478-1.538 0-.994-.503-1.564-.502-.569-1.435-.569-1.005 0-1.585.693-.579.692-.579 1.82h-2.974q0-1.364.652-2.492.65-1.128 1.84-1.769 1.19-.64 2.697-.64 2.307 0 3.584 1.107 1.276 1.107 1.276 3.127 0 1.108-.574 2.256-.574 1.148-1.969 2.676l-3.394 3.579h6.42zm1.706.934q0-.708.477-1.148.477-.441 1.194-.441.728 0 1.205.44.477.441.477 1.149 0 .697-.472 1.133-.471.436-1.21.436-.728 0-1.2-.436-.471-.436-.471-1.133zM78.47 52.11v14.95h-2.963V55.637l-3.538 1.097v-2.41l6.184-2.214h.317zm14.616.02v1.661L87.313 67.06h-3.127l5.783-12.53h-7.424v-2.4h10.54zm1.788 13.474q0-.708.477-1.148.476-.441 1.194-.441.728 0 1.205.44.477.441.477 1.149 0 .697-.472 1.133-.472.436-1.21.436-.728 0-1.2-.436-.471-.436-.471-1.133zM107.51 52.11v14.95h-2.963V55.637l-3.538 1.097v-2.41l6.183-2.214h.318zm4.741 13.494q0-.708.477-1.148.477-.441 1.195-.441.728 0 1.204.44.477.441.477 1.149 0 .697-.471 1.133-.472.436-1.21.436-.728 0-1.2-.436t-.472-1.133zm8.453-5.004v-2.317h1.58q1.127 0 1.67-.564.544-.564.544-1.497 0-.903-.538-1.405-.539-.503-1.482-.503-.851 0-1.425.467-.575.467-.575 1.215h-2.963q0-1.169.63-2.097.631-.928 1.764-1.45 1.133-.524 2.497-.524 2.369 0 3.712 1.133t1.343 3.123q0 1.025-.625 1.886-.626.862-1.64 1.323 1.26.451 1.88 1.354.621.902.621 2.132 0 1.99-1.45 3.19-1.452 1.2-3.84 1.2-2.236 0-3.656-1.18t-1.42-3.117h2.963q0 .84.63 1.374.631.533 1.554.533 1.056 0 1.656-.559.6-.559.6-1.482 0-2.235-2.461-2.235h-1.569z" fill="#000" fill-rule="nonzero"></path></g><g transform="translate(276 209)"><rect stroke="#7C9D6E" stroke-width="1.96" fill="#D6E9CE" fill-rule="nonzero" x=".98" y=".98" width="156.8" height="51.94" rx="4.9"></rect><path d="M45.537 20.642l3.043 11.035 3.042-11.035h4.571L50.668 37.02h-4.177l-5.525-16.378h4.571zm18.91 16.68q-3.603 0-5.865-2.21-2.263-2.21-2.263-5.887V28.8q0-2.468.953-4.413.954-1.945 2.702-2.997 1.748-1.052 3.989-1.052 3.36 0 5.29 2.12 1.93 2.119 1.93 6.009v1.786h-10.43q.213 1.604 1.28 2.573 1.067.969 2.702.969 2.527 0 3.95-1.832l2.15 2.407q-.984 1.393-2.664 2.172-1.68.78-3.724.78zm-.5-13.44q-1.301 0-2.111.877-.81.878-1.037 2.513h6.085v-.348q-.03-1.453-.787-2.248-.757-.795-2.15-.795zm9.571-7.266h4.375v4.026h2.8v3.21h-2.8v8.173q0 .908.348 1.302.348.393 1.332.393.726 0 1.286-.106v3.315q-1.286.394-2.649.394-4.601 0-4.692-4.647V23.85h-2.392v-3.209h2.392v-4.026zm12.87-2.846v8.658q1.741-2.089 4.375-2.089 5.328 0 5.404 6.191v10.49h-4.375V26.651q0-1.407-.605-2.081-.606-.674-2.013-.674-1.923 0-2.786 1.484v11.64h-4.374V13.77h4.374zm22.513 1.18v22.07h-4.375V20.158l-5.222 1.62V18.22l9.128-3.27h.469z" fill="#000" fill-rule="nonzero"></path></g><path d="M227.194 507.96V530h-4.541l-8.84-14.501V530h-4.541v-22.04h4.54l8.856 14.532v-14.531h4.526zm1.987 13.896v-.196q0-2.437.938-4.345.939-1.907 2.702-2.951 1.764-1.045 4.095-1.045 3.315 0 5.411 2.029 2.096 2.028 2.339 5.51l.03 1.12q0 3.769-2.104 6.047-2.104 2.278-5.646 2.278t-5.654-2.27q-2.111-2.271-2.111-6.177zm4.374.122q0 2.33.878 3.564t2.513 1.234q1.59 0 2.482-1.219.893-1.218.893-3.897 0-2.286-.893-3.542-.893-1.257-2.512-1.257-1.605 0-2.483 1.25-.878 1.248-.878 3.867zm12.144-.288q0-3.83 1.718-6.1 1.718-2.27 4.7-2.27 2.392 0 3.95 1.785v-8.355h4.39V530h-3.95l-.212-1.74q-1.635 2.043-4.208 2.043-2.891 0-4.64-2.278-1.748-2.278-1.748-6.335zm4.375.318q0 2.3.802 3.527.802 1.226 2.33 1.226 2.03 0 2.862-1.71v-6.464q-.818-1.71-2.83-1.71-3.164 0-3.164 5.13zm20.302 8.295q-3.602 0-5.865-2.21-2.263-2.21-2.263-5.888v-.424q0-2.468.953-4.413.954-1.945 2.702-2.997 1.748-1.052 3.989-1.052 3.36 0 5.29 2.12 1.93 2.119 1.93 6.009v1.786h-10.43q.213 1.604 1.28 2.573 1.067.969 2.702.969 2.527 0 3.95-1.832l2.15 2.407q-.984 1.393-2.664 2.172-1.68.78-3.724.78zm-.5-13.442q-1.301 0-2.111.878-.81.878-1.037 2.513h6.085v-.348q-.03-1.453-.787-2.248-.757-.795-2.15-.795z" fill="#000" fill-rule="nonzero"></path><path d="M78.129 441.74h-2.697V447h-3.076v-14.93h5.824q1.682 0 2.958.616 1.277.615 1.964 1.748t.687 2.579q0 2.194-1.502 3.46-1.502 1.267-4.158 1.267zm-2.697-7.178v4.686h2.748q1.22 0 1.861-.574t.641-1.64q0-1.098-.646-1.775-.646-.676-1.784-.697h-2.82zm8.993 6.921v-.133q0-1.65.636-2.943.635-1.292 1.83-2 1.195-.707 2.774-.707 2.245 0 3.665 1.374t1.585 3.733l.02.758q0 2.554-1.425 4.097-1.425 1.543-3.825 1.543-2.4 0-3.83-1.538-1.43-1.538-1.43-4.184zm2.963.082q0 1.58.595 2.415.595.836 1.702.836 1.077 0 1.682-.826.605-.825.605-2.64 0-1.548-.605-2.4-.605-.85-1.702-.85-1.087 0-1.682.846t-.595 2.62zm8.224-.194q0-2.595 1.164-4.133 1.164-1.538 3.184-1.538 1.62 0 2.676 1.21v-5.66h2.973V447h-2.676l-.143-1.18q-1.108 1.385-2.851 1.385-1.958 0-3.143-1.543-1.184-1.543-1.184-4.291zm2.963.215q0 1.559.544 2.39.543.83 1.579.83 1.374 0 1.938-1.159v-4.378q-.554-1.16-1.918-1.16-2.143 0-2.143 3.477zm11.536-1.046v-2.317h1.579q1.128 0 1.671-.564.544-.564.544-1.497 0-.903-.538-1.405-.539-.503-1.482-.503-.851 0-1.425.467-.575.466-.575 1.215h-2.963q0-1.169.63-2.097.631-.928 1.764-1.45 1.133-.524 2.497-.524 2.369 0 3.712 1.133t1.343 3.123q0 1.025-.625 1.886-.626.862-1.64 1.323 1.26.451 1.88 1.354.621.902.621 2.132 0 1.99-1.45 3.19-1.452 1.2-3.84 1.2-2.236 0-3.656-1.18t-1.42-3.117h2.963q0 .84.63 1.374.631.533 1.554.533 1.056 0 1.656-.559.6-.559.6-1.482 0-2.235-2.461-2.235h-1.57zm12.95-4.635h2.79l.092 1.282q1.19-1.487 3.189-1.487 1.764 0 2.625 1.036.861 1.035.882 3.097V447h-2.964v-7.096q0-.943-.41-1.369-.41-.425-1.364-.425-1.25 0-1.876 1.066V447h-2.963v-11.095zm16.243 11.3q-2.44 0-3.974-1.497-1.533-1.497-1.533-3.989v-.287q0-1.671.646-2.989.646-1.318 1.83-2.03 1.185-.713 2.703-.713 2.276 0 3.583 1.436 1.308 1.435 1.308 4.07v1.21h-7.065q.143 1.087.866 1.744.723.656 1.83.656 1.713 0 2.677-1.24l1.456 1.63q-.667.943-1.805 1.471-1.138.528-2.522.528zm-.339-9.105q-.881 0-1.43.594-.549.595-.702 1.702h4.122v-.235q-.02-.985-.533-1.523-.513-.538-1.457-.538zm6.48-4.922h2.964v2.727h1.897v2.174h-1.897v5.537q0 .615.236.882t.902.267q.493 0 .872-.072v2.245q-.872.267-1.794.267-3.118 0-3.18-3.148v-5.978h-1.62v-2.174h1.62v-2.727zm5.764 2.727h2.789l.092 1.282q1.19-1.487 3.189-1.487 1.764 0 2.625 1.036.861 1.035.882 3.097V447h-2.964v-7.096q0-.943-.41-1.369-.41-.425-1.364-.425-1.25 0-1.876 1.066V447h-2.963v-11.095zm17.144 8.03q0-.544-.538-.857-.538-.313-1.728-.559-3.958-.83-3.958-3.363 0-1.477 1.225-2.466 1.226-.99 3.205-.99 2.112 0 3.378.995 1.267.994 1.267 2.584h-2.964q0-.636-.41-1.051-.41-.416-1.282-.416-.748 0-1.158.339-.41.338-.41.861 0 .492.466.795.467.302 1.574.523 1.108.22 1.866.497 2.349.861 2.349 2.984 0 1.518-1.303 2.456-1.302.938-3.363.938-1.395 0-2.476-.497-1.082-.498-1.697-1.364-.616-.866-.616-1.871h2.81q.041.79.584 1.21.544.42 1.457.42.85 0 1.286-.323.436-.323.436-.846zm149.776-2.195h-2.697V447h-3.076v-14.93h5.824q1.682 0 2.958.616 1.277.615 1.964 1.748t.687 2.579q0 2.194-1.502 3.46-1.502 1.267-4.158 1.267zm-2.697-7.178v4.686h2.748q1.22 0 1.861-.574t.641-1.64q0-1.098-.646-1.775-.646-.676-1.784-.697h-2.82zm8.993 6.921v-.133q0-1.65.636-2.943.635-1.292 1.83-2 1.195-.707 2.774-.707 2.245 0 3.665 1.374t1.585 3.733l.02.758q0 2.554-1.425 4.097-1.425 1.543-3.825 1.543-2.4 0-3.83-1.538-1.43-1.538-1.43-4.184zm2.963.082q0 1.58.595 2.415.595.836 1.702.836 1.077 0 1.682-.826.605-.825.605-2.64 0-1.548-.605-2.4-.605-.85-1.702-.85-1.087 0-1.682.846t-.595 2.62zm8.224-.194q0-2.595 1.164-4.133 1.164-1.538 3.184-1.538 1.62 0 2.676 1.21v-5.66h2.973V447h-2.676l-.143-1.18q-1.108 1.385-2.851 1.385-1.958 0-3.143-1.543-1.184-1.543-1.184-4.291zm2.963.215q0 1.559.544 2.39.543.83 1.579.83 1.374 0 1.938-1.159v-4.378q-.554-1.16-1.918-1.16-2.143 0-2.143 3.477zm17.288-9.516v9.31h1.692v2.39h-1.692V447H352.9v-3.23h-6.122l-.133-1.866 6.224-9.834h2.994zm-3.158 4.379l-3.107 4.932h3.302v-5.27l-.195.338zm10.357-.544h2.789l.092 1.282q1.19-1.487 3.189-1.487 1.764 0 2.625 1.036.861 1.035.882 3.097V447h-2.964v-7.096q0-.943-.41-1.369-.41-.425-1.364-.425-1.25 0-1.876 1.066V447h-2.963v-11.095zm16.242 11.3q-2.44 0-3.974-1.497-1.533-1.497-1.533-3.989v-.287q0-1.671.646-2.989.646-1.318 1.83-2.03 1.185-.713 2.703-.713 2.276 0 3.583 1.436 1.308 1.435 1.308 4.07v1.21h-7.065q.143 1.087.866 1.744.723.656 1.83.656 1.713 0 2.677-1.24l1.456 1.63q-.667.943-1.805 1.471-1.138.528-2.522.528zm-.339-9.105q-.881 0-1.43.594-.549.595-.702 1.702h4.122v-.235q-.02-.985-.533-1.523-.513-.538-1.457-.538zm6.48-4.922h2.964v2.727h1.897v2.174h-1.897v5.537q0 .615.236.882t.902.267q.493 0 .872-.072v2.245q-.872.267-1.794.267-3.118 0-3.18-3.148v-5.978h-1.62v-2.174h1.62v-2.727zm5.764 2.727h2.789l.092 1.282q1.19-1.487 3.189-1.487 1.764 0 2.625 1.036.861 1.035.882 3.097V447h-2.964v-7.096q0-.943-.41-1.369-.41-.425-1.364-.425-1.25 0-1.876 1.066V447h-2.963v-11.095zm17.144 8.03q0-.544-.538-.857-.538-.313-1.728-.559-3.958-.83-3.958-3.363 0-1.477 1.225-2.466 1.226-.99 3.205-.99 2.112 0 3.378.995 1.267.994 1.267 2.584h-2.964q0-.636-.41-1.051-.41-.416-1.282-.416-.748 0-1.158.339-.41.338-.41.861 0 .492.466.795.467.302 1.574.523 1.108.22 1.866.497 2.349.861 2.349 2.984 0 1.518-1.303 2.456-1.302.938-3.363.938-1.395 0-2.476-.497-1.082-.498-1.697-1.364-.616-.866-.616-1.871h2.81q.041.79.584 1.21.544.42 1.457.42.85 0 1.286-.323.436-.323.436-.846zM347.788 29l-2.8-5.465h-2.45V29h-3.076V14.07h5.547q2.646 0 4.081 1.18 1.436 1.179 1.436 3.332 0 1.528-.661 2.548-.662 1.02-2.005 1.625l3.23 6.101V29h-3.302zm-5.25-12.438v4.481h2.482q1.158 0 1.794-.59.636-.59.636-1.625 0-1.056-.6-1.661t-1.84-.605h-2.472zm8.983 6.921v-.133q0-1.65.635-2.943.636-1.292 1.83-2 1.195-.707 2.774-.707 2.246 0 3.666 1.374t1.584 3.733l.02.758q0 2.554-1.424 4.097-1.426 1.543-3.825 1.543-2.4 0-3.83-1.538-1.43-1.538-1.43-4.184zm2.963.082q0 1.58.595 2.415.594.836 1.702.836 1.077 0 1.682-.826.604-.825.604-2.64 0-1.548-.604-2.4-.605-.85-1.703-.85-1.087 0-1.681.846-.595.846-.595 2.62zm8.224-.082v-.133q0-1.65.635-2.943.636-1.292 1.83-2 1.195-.707 2.774-.707 2.246 0 3.666 1.374t1.584 3.733l.02.758q0 2.554-1.424 4.097-1.426 1.543-3.825 1.543-2.4 0-3.83-1.538-1.43-1.538-1.43-4.184zm2.963.082q0 1.58.595 2.415.594.836 1.702.836 1.077 0 1.682-.826.605-.825.605-2.64 0-1.548-.605-2.4-.605-.85-1.703-.85-1.087 0-1.681.846-.595.846-.595 2.62zm9.27-8.387h2.963v2.727h1.897v2.174h-1.897v5.537q0 .615.236.882t.902.267q.492 0 .872-.072v2.245q-.872.267-1.795.267-3.117 0-3.178-3.148V20.08h-1.62v-2.174h1.62v-2.727zm10.305 2.727h2.789l.092 1.282q1.19-1.487 3.19-1.487 1.763 0 2.624 1.036.861 1.035.882 3.097V29h-2.963v-7.096q0-.943-.41-1.369-.41-.425-1.364-.425-1.251 0-1.877 1.066V29h-2.963V17.905zm16.242 11.3q-2.44 0-3.973-1.497t-1.533-3.989v-.287q0-1.671.646-2.989.646-1.318 1.83-2.03 1.184-.713 2.702-.713 2.276 0 3.584 1.436 1.307 1.435 1.307 4.07v1.21h-7.065q.144 1.087.866 1.744.723.656 1.83.656 1.713 0 2.677-1.24l1.456 1.63q-.666.943-1.805 1.471-1.138.528-2.522.528zm-.338-9.105q-.882 0-1.43.594-.55.595-.703 1.702h4.122v-.235q-.02-.985-.533-1.523-.513-.538-1.456-.538zm6.48-4.922h2.963v2.727h1.897v2.174h-1.897v5.537q0 .615.236.882t.903.267q.492 0 .871-.072v2.245q-.871.267-1.794.267-3.117 0-3.179-3.148V20.08h-1.62v-2.174h1.62v-2.727zm5.763 2.727h2.789l.092 1.282q1.19-1.487 3.19-1.487 1.763 0 2.624 1.036.861 1.035.882 3.097V29h-2.963v-7.096q0-.943-.41-1.369-.41-.425-1.364-.425-1.251 0-1.877 1.066V29h-2.963V17.905zm17.144 8.03q0-.544-.538-.857-.538-.313-1.728-.559-3.958-.83-3.958-3.363 0-1.477 1.226-2.466 1.225-.99 3.204-.99 2.112 0 3.379.995 1.266.994 1.266 2.584h-2.963q0-.636-.41-1.051-.41-.416-1.282-.416-.749 0-1.16.339-.41.338-.41.861 0 .492.467.795.467.302 1.574.523 1.108.22 1.867.497 2.348.861 2.348 2.984 0 1.518-1.303 2.456-1.302.938-3.363.938-1.394 0-2.476-.497-1.082-.498-1.697-1.364-.615-.866-.615-1.871h2.81q.04.79.584 1.21.543.42 1.456.42.85 0 1.287-.323.435-.323.435-.846z" fill="#AD9E6A" fill-rule="nonzero"></path><g transform="translate(166)"><rect stroke="#7C9D6E" stroke-width="1.96" fill="#D6E9CE" fill-rule="nonzero" x=".98" y=".98" width="156.8" height="81.34" rx="4.9"></rect><path d="M57.725 39.143q-3.602 0-5.865-2.21-2.263-2.21-2.263-5.888v-.424q0-2.468.953-4.413.954-1.945 2.702-2.997 1.749-1.052 3.989-1.052 3.36 0 5.29 2.12 1.93 2.119 1.93 6.009v1.786h-10.43q.213 1.604 1.28 2.573 1.067.969 2.702.969 2.528 0 3.95-1.832l2.15 2.407q-.984 1.393-2.664 2.172-1.68.78-3.724.78zm-.5-13.442q-1.301 0-2.11.878-.81.878-1.038 2.513h6.085v-.348q-.03-1.453-.787-2.248-.757-.795-2.15-.795zm9.571-7.265h4.375v4.026h2.8v3.21h-2.8v8.173q0 .908.348 1.302.348.393 1.332.393.727 0 1.287-.106v3.315q-1.287.394-2.65.394-4.6 0-4.692-4.647V25.67h-2.391v-3.209h2.391v-4.026zm12.87-2.846v8.658q1.741-2.089 4.375-2.089 5.328 0 5.404 6.191v10.49H85.07V28.471q0-1.407-.605-2.081-.605-.674-2.013-.674-1.923 0-2.785 1.484v11.64h-4.375V15.59h4.375zm26.721 10.081v4.057q0 4.571-1.892 6.993-1.892 2.422-5.54 2.422-3.603 0-5.51-2.377-1.907-2.376-1.952-6.811v-4.057q0-4.617 1.914-7.008 1.915-2.392 5.518-2.392 3.602 0 5.51 2.37 1.907 2.368 1.952 6.803zm-4.374 4.844v-5.238q0-2.74-.75-3.988-.749-1.249-2.338-1.249-1.544 0-2.278 1.188-.734 1.189-.78 3.716v5.359q0 2.694.734 4.004.734 1.309 2.354 1.309 1.605 0 2.316-1.256.711-1.257.742-3.845zM37.768 52.11v14.95h-2.963V55.637l-3.538 1.097v-2.41l6.184-2.214h.317zm14.513 6.03v2.747q0 3.097-1.281 4.737-1.282 1.641-3.753 1.641-2.44 0-3.733-1.61-1.292-1.61-1.323-4.614v-2.748q0-3.128 1.298-4.748 1.297-1.62 3.737-1.62 2.44 0 3.733 1.605 1.292 1.605 1.322 4.61zm-2.963 3.28v-3.547q0-1.856-.508-2.702-.507-.846-1.584-.846-1.046 0-1.543.805-.497.805-.528 2.517v3.63q0 1.825.497 2.712.497.887 1.595.887 1.087 0 1.568-.851.482-.851.503-2.605zm4.854 4.184q0-.708.476-1.148.477-.441 1.195-.441.728 0 1.205.44.477.441.477 1.149 0 .697-.472 1.133-.472.436-1.21.436-.728 0-1.2-.436-.471-.436-.471-1.133zM66.808 52.11v14.95h-2.963V55.637l-3.538 1.097v-2.41l6.183-2.214h.318zm14.513 6.03v2.747q0 3.097-1.282 4.737-1.281 1.641-3.753 1.641-2.44 0-3.732-1.61-1.292-1.61-1.323-4.614v-2.748q0-3.128 1.297-4.748t3.738-1.62q2.44 0 3.732 1.605 1.292 1.605 1.323 4.61zm-2.963 3.28v-3.547q0-1.856-.508-2.702-.507-.846-1.584-.846-1.046 0-1.543.805-.498.805-.528 2.517v3.63q0 1.825.497 2.712.497.887 1.594.887 1.087 0 1.57-.851.481-.851.502-2.605zm14.625-3.28v2.747q0 3.097-1.281 4.737-1.282 1.641-3.753 1.641-2.44 0-3.733-1.61-1.292-1.61-1.322-4.614v-2.748q0-3.128 1.297-4.748t3.737-1.62q2.44 0 3.733 1.605 1.292 1.605 1.322 4.61zm-2.963 3.28v-3.547q0-1.856-.508-2.702-.507-.846-1.584-.846-1.046 0-1.543.805-.497.805-.528 2.517v3.63q0 1.825.497 2.712.498.887 1.595.887 1.087 0 1.569-.851t.502-2.605zm4.854 4.184q0-.708.477-1.148.476-.441 1.194-.441.728 0 1.205.44.477.441.477 1.149 0 .697-.472 1.133-.472.436-1.21.436-.728 0-1.2-.436-.471-.436-.471-1.133zm15.487-7.465v2.748q0 3.097-1.282 4.737-1.282 1.641-3.753 1.641-2.44 0-3.732-1.61-1.292-1.61-1.323-4.614v-2.748q0-3.128 1.297-4.748t3.738-1.62q2.44 0 3.732 1.605 1.292 1.605 1.323 4.61zm-2.964 3.281v-3.547q0-1.856-.507-2.702-.508-.846-1.584-.846-1.046 0-1.544.805-.497.805-.528 2.517v3.63q0 1.825.498 2.712.497.887 1.594.887 1.087 0 1.569-.851t.502-2.605zm4.854 4.184q0-.708.477-1.148.477-.441 1.195-.441.728 0 1.204.44.477.441.477 1.149 0 .697-.471 1.133-.472.436-1.21.436-.728 0-1.2-.436t-.472-1.133zm8.453-5.004v-2.317h1.58q1.127 0 1.67-.564.544-.564.544-1.497 0-.903-.538-1.405-.539-.503-1.482-.503-.851 0-1.425.467-.575.467-.575 1.215h-2.963q0-1.169.63-2.097.631-.928 1.764-1.45 1.133-.524 2.497-.524 2.369 0 3.712 1.133t1.343 3.123q0 1.025-.625 1.886-.626.862-1.64 1.323 1.26.451 1.88 1.354.621.902.621 2.132 0 1.99-1.45 3.19-1.452 1.2-3.84 1.2-2.236 0-3.656-1.18t-1.42-3.117h2.963q0 .84.63 1.374.631.533 1.554.533 1.056 0 1.656-.559.6-.559.6-1.482 0-2.235-2.461-2.235h-1.569z" fill="#000" fill-rule="nonzero"></path></g><g transform="translate(166 98)"><rect stroke="#7C9D6E" stroke-width="1.96" fill="#D6E9CE" fill-rule="nonzero" x=".98" y=".98" width="156.8" height="81.34" rx="4.9"></rect><path d="M22.266 30.53q0-3.83 1.718-6.1 1.718-2.27 4.7-2.27 2.392 0 3.95 1.785V15.59h4.39v23.25h-3.95l-.212-1.74q-1.635 2.043-4.208 2.043-2.891 0-4.64-2.278-1.748-2.278-1.748-6.335zm4.375.318q0 2.3.802 3.527.802 1.226 2.33 1.226 2.03 0 2.862-1.71v-6.464q-.818-1.71-2.83-1.71-3.164 0-3.164 5.13zm12.083-.152V30.5q0-2.437.938-4.345.939-1.907 2.702-2.951 1.764-1.045 4.095-1.045 3.315 0 5.411 2.029 2.096 2.028 2.339 5.51l.03 1.12q0 3.769-2.104 6.047-2.104 2.278-5.646 2.278t-5.654-2.27q-2.111-2.271-2.111-6.177zm4.374.122q0 2.33.878 3.564t2.513 1.234q1.59 0 2.482-1.219.893-1.218.893-3.897 0-2.286-.893-3.542-.893-1.257-2.512-1.257-1.605 0-2.483 1.25-.878 1.248-.878 3.867zm19.637 4.798q1.21 0 1.968-.666.756-.666.787-1.771h4.102q-.015 1.665-.908 3.05-.894 1.385-2.445 2.15-1.552.764-3.429.764-3.511 0-5.54-2.233-2.028-2.233-2.028-6.168v-.288q0-3.784 2.013-6.04 2.013-2.255 5.525-2.255 3.073 0 4.927 1.749 1.854 1.748 1.885 4.654H65.49q-.03-1.271-.787-2.066-.757-.795-1.998-.795-1.53 0-2.309 1.113-.78 1.112-.78 3.61v.454q0 2.528.773 3.633.772 1.105 2.346 1.105zm18.501 3.224l-4.208-6.57-1.574 1.575v4.995h-4.375V15.59h4.375v12.881l.847-1.09 4.193-4.919h5.253l-5.919 6.827 6.433 9.551h-5.025zm12.628.303q-3.602 0-5.865-2.21-2.263-2.21-2.263-5.888v-.424q0-2.468.953-4.413.954-1.945 2.702-2.997 1.749-1.052 3.989-1.052 3.36 0 5.29 2.12 1.93 2.119 1.93 6.009v1.786H90.17q.213 1.604 1.28 2.573 1.067.969 2.702.969 2.528 0 3.95-1.832l2.15 2.407q-.984 1.393-2.664 2.172-1.68.78-3.724.78zm-.5-13.442q-1.301 0-2.11.878-.81.878-1.038 2.513h6.085v-.348q-.03-1.453-.787-2.248-.757-.795-2.15-.795zm17.972-3.345l-.06 4.208q-.893-.121-1.575-.121-2.482 0-3.254 1.68V38.84h-4.375V22.462h4.133l.12 1.953q1.318-2.256 3.649-2.256.726 0 1.362.197zm15.686 3.315v4.057q0 4.571-1.892 6.993-1.892 2.422-5.54 2.422-3.603 0-5.51-2.377-1.907-2.376-1.953-6.811v-4.057q0-4.617 1.915-7.008 1.915-2.392 5.518-2.392 3.602 0 5.51 2.37 1.907 2.368 1.952 6.803zm-4.375 4.844v-5.238q0-2.74-.749-3.988-.75-1.249-2.338-1.249-1.544 0-2.279 1.188-.734 1.189-.78 3.716v5.359q0 2.694.735 4.004.734 1.309 2.354 1.309 1.604 0 2.316-1.256.711-1.257.741-3.845zM37.768 52.11v14.95h-2.963V55.637l-3.538 1.097v-2.41l6.184-2.214h.317zm14.616.02v1.661L46.61 67.06h-3.128l5.784-12.53h-7.424v-2.4h10.54zm11.744 12.54v2.39H53.895v-2.03l4.83-5.148q.994-1.087 1.47-1.897.478-.81.478-1.538 0-.994-.503-1.564-.502-.569-1.435-.569-1.005 0-1.585.693-.579.692-.579 1.82h-2.974q0-1.364.652-2.492.65-1.128 1.84-1.769 1.19-.64 2.697-.64 2.307 0 3.584 1.107 1.276 1.107 1.276 3.127 0 1.108-.574 2.256-.574 1.148-1.969 2.676l-3.394 3.579h6.42zm1.706.934q0-.708.477-1.148.477-.441 1.194-.441.728 0 1.205.44.477.441.477 1.149 0 .697-.472 1.133-.471.436-1.21.436-.728 0-1.2-.436-.471-.436-.471-1.133zM78.47 52.11v14.95h-2.963V55.637l-3.538 1.097v-2.41l6.184-2.214h.317zm14.616.02v1.661L87.313 67.06h-3.127l5.783-12.53h-7.424v-2.4h10.54zm1.788 13.474q0-.708.477-1.148.476-.441 1.194-.441.728 0 1.205.44.477.441.477 1.149 0 .697-.472 1.133-.472.436-1.21.436-.728 0-1.2-.436-.471-.436-.471-1.133zM107.51 52.11v14.95h-2.963V55.637l-3.538 1.097v-2.41l6.183-2.214h.318zm4.741 13.494q0-.708.477-1.148.477-.441 1.195-.441.728 0 1.204.44.477.441.477 1.149 0 .697-.471 1.133-.472.436-1.21.436-.728 0-1.2-.436t-.472-1.133zm12.637-13.494v14.95h-2.964V55.637l-3.537 1.097v-2.41l6.183-2.214h.318z" fill="#000" fill-rule="nonzero"></path></g><path fill="#000" fill-rule="nonzero" d="M129 263h13v35h-13z"></path><g fill="#000" fill-rule="nonzero"><path d="M129 134h12.759v76H129z"></path><path d="M166.397 134.036v12.759h-35.533v-12.759z"></path></g><g fill="#D0021B" fill-rule="nonzero"><path d="M363 134h-12.759v76H363z"></path><path d="M325.603 134.036v12.759h35.533v-12.759z"></path></g><path fill="#000" fill-rule="nonzero" d="M350 263h13v35h-13z"></path><path fill="#D0021B" fill-rule="nonzero" d="M240 83h13v15h-13z"></path></g><g transform="translate(70 273)"><rect stroke="#76AADF" stroke-width="1.96" fill="#CEE2F6" fill-rule="nonzero" x=".98" y=".98" width="487.04" height="487.04" rx="19.6"></rect><rect stroke="#AD9E6A" stroke-width="1.96" fill="#FFF2C5" fill-rule="nonzero" x="36.98" y=".98" width="417.04" height="260.04" rx="4.9"></rect><rect stroke="#AD9E6A" stroke-width="1.96" fill="#FFF2C5" fill-rule="nonzero" x="36.98" y="298.98" width="176.04" height="157.04" rx="4.9"></rect><g transform="translate(56 298)"><rect stroke="#7C9D6E" stroke-width="1.96" fill="#D6E9CE" fill-rule="nonzero" x=".98" y=".98" width="156.8" height="81.34" rx="4.9"></rect><path d="M57.725 39.143q-3.602 0-5.865-2.21-2.263-2.21-2.263-5.888v-.424q0-2.468.953-4.413.954-1.945 2.702-2.997 1.749-1.052 3.989-1.052 3.36 0 5.29 2.12 1.93 2.119 1.93 6.009v1.786h-10.43q.213 1.604 1.28 2.573 1.067.969 2.702.969 2.528 0 3.95-1.832l2.15 2.407q-.984 1.393-2.664 2.172-1.68.78-3.724.78zm-.5-13.442q-1.301 0-2.11.878-.81.878-1.038 2.513h6.085v-.348q-.03-1.453-.787-2.248-.757-.795-2.15-.795zm9.571-7.265h4.375v4.026h2.8v3.21h-2.8v8.173q0 .908.348 1.302.348.393 1.332.393.727 0 1.287-.106v3.315q-1.287.394-2.65.394-4.6 0-4.692-4.647V25.67h-2.391v-3.209h2.391v-4.026zm12.87-2.846v8.658q1.741-2.089 4.375-2.089 5.328 0 5.404 6.191v10.49H85.07V28.471q0-1.407-.605-2.081-.605-.674-2.013-.674-1.923 0-2.785 1.484v11.64h-4.375V15.59h4.375zm26.721 10.081v4.057q0 4.571-1.892 6.993-1.892 2.422-5.54 2.422-3.603 0-5.51-2.377-1.907-2.376-1.952-6.811v-4.057q0-4.617 1.914-7.008 1.915-2.392 5.518-2.392 3.602 0 5.51 2.37 1.907 2.368 1.952 6.803zm-4.374 4.844v-5.238q0-2.74-.75-3.988-.749-1.249-2.338-1.249-1.544 0-2.278 1.188-.734 1.189-.78 3.716v5.359q0 2.694.734 4.004.734 1.309 2.354 1.309 1.605 0 2.316-1.256.711-1.257.742-3.845zM37.768 52.11v14.95h-2.963V55.637l-3.538 1.097v-2.41l6.184-2.214h.317zm14.616.02v1.661L46.61 67.06h-3.128l5.784-12.53h-7.424v-2.4h10.54zm11.744 12.54v2.39H53.895v-2.03l4.83-5.148q.994-1.087 1.47-1.897.478-.81.478-1.538 0-.994-.503-1.564-.502-.569-1.435-.569-1.005 0-1.585.693-.579.692-.579 1.82h-2.974q0-1.364.652-2.492.65-1.128 1.84-1.769 1.19-.64 2.697-.64 2.307 0 3.584 1.107 1.276 1.107 1.276 3.127 0 1.108-.574 2.256-.574 1.148-1.969 2.676l-3.394 3.579h6.42zm1.706.934q0-.708.477-1.148.477-.441 1.194-.441.728 0 1.205.44.477.441.477 1.149 0 .697-.472 1.133-.471.436-1.21.436-.728 0-1.2-.436-.471-.436-.471-1.133zM78.47 52.11v14.95h-2.963V55.637l-3.538 1.097v-2.41l6.184-2.214h.317zm14.616.02v1.661L87.313 67.06h-3.127l5.783-12.53h-7.424v-2.4h10.54zm1.788 13.474q0-.708.477-1.148.476-.441 1.194-.441.728 0 1.205.44.477.441.477 1.149 0 .697-.472 1.133-.472.436-1.21.436-.728 0-1.2-.436-.471-.436-.471-1.133zm15.487-7.465v2.748q0 3.097-1.282 4.737-1.282 1.641-3.753 1.641-2.44 0-3.732-1.61-1.292-1.61-1.323-4.614v-2.748q0-3.128 1.297-4.748t3.738-1.62q2.44 0 3.732 1.605 1.292 1.605 1.323 4.61zm-2.964 3.281v-3.547q0-1.856-.507-2.702-.508-.846-1.584-.846-1.046 0-1.544.805-.497.805-.528 2.517v3.63q0 1.825.498 2.712.497.887 1.594.887 1.087 0 1.569-.851t.502-2.605zm4.854 4.184q0-.708.477-1.148.477-.441 1.195-.441.728 0 1.204.44.477.441.477 1.149 0 .697-.471 1.133-.472.436-1.21.436-.728 0-1.2-.436t-.472-1.133zm15.672-.933v2.389h-10.234v-2.03l4.83-5.148q.995-1.087 1.471-1.897.477-.81.477-1.538 0-.994-.502-1.564-.503-.569-1.436-.569-1.005 0-1.584.693-.58.692-.58 1.82h-2.973q0-1.364.651-2.492t1.84-1.769q1.19-.64 2.698-.64 2.307 0 3.583 1.107 1.277 1.107 1.277 3.127 0 1.108-.574 2.256-.575 1.148-1.97 2.676l-3.393 3.579h6.419z" fill="#000" fill-rule="nonzero"></path></g><g transform="translate(56 209)"><rect stroke="#7C9D6E" stroke-width="1.96" fill="#D6E9CE" fill-rule="nonzero" x=".98" y=".98" width="156.8" height="51.94" rx="4.9"></rect><path d="M45.537 20.642l3.043 11.035 3.042-11.035h4.571L50.668 37.02h-4.177l-5.525-16.378h4.571zm18.91 16.68q-3.603 0-5.865-2.21-2.263-2.21-2.263-5.887V28.8q0-2.468.953-4.413.954-1.945 2.702-2.997 1.748-1.052 3.989-1.052 3.36 0 5.29 2.12 1.93 2.119 1.93 6.009v1.786h-10.43q.213 1.604 1.28 2.573 1.067.969 2.702.969 2.527 0 3.95-1.832l2.15 2.407q-.984 1.393-2.664 2.172-1.68.78-3.724.78zm-.5-13.44q-1.301 0-2.111.877-.81.878-1.037 2.513h6.085v-.348q-.03-1.453-.787-2.248-.757-.795-2.15-.795zm9.571-7.266h4.375v4.026h2.8v3.21h-2.8v8.173q0 .908.348 1.302.348.393 1.332.393.726 0 1.286-.106v3.315q-1.286.394-2.649.394-4.601 0-4.692-4.647V23.85h-2.392v-3.209h2.392v-4.026zm12.87-2.846v8.658q1.741-2.089 4.375-2.089 5.328 0 5.404 6.191v10.49h-4.375V26.651q0-1.407-.605-2.081-.606-.674-2.013-.674-1.923 0-2.786 1.484v11.64h-4.374V13.77h4.374zm26.72 10.081v4.057q0 4.571-1.891 6.993-1.892 2.422-5.54 2.422-3.603 0-5.51-2.377-1.907-2.376-1.953-6.811v-4.057q0-4.617 1.915-7.008 1.915-2.392 5.517-2.392 3.603 0 5.51 2.37 1.907 2.368 1.953 6.803zm-4.374 4.844v-5.238q0-2.74-.749-3.988-.75-1.249-2.339-1.249-1.543 0-2.278 1.188-.734 1.189-.78 3.716v5.359q0 2.694.735 4.004.734 1.309 2.354 1.309 1.604 0 2.316-1.256.711-1.257.741-3.845z" fill="#000" fill-rule="nonzero"></path></g><rect stroke="#AD9E6A" stroke-width="1.96" fill="#FFF2C5" fill-rule="nonzero" x="276.98" y="298.98" width="176.04" height="157.04" rx="4.9"></rect><g transform="translate(276 298)"><rect stroke="#7C9D6E" stroke-width="1.96" fill="#D6E9CE" fill-rule="nonzero" x=".98" y=".98" width="156.8" height="81.34" rx="4.9"></rect><path d="M57.725 39.143q-3.602 0-5.865-2.21-2.263-2.21-2.263-5.888v-.424q0-2.468.953-4.413.954-1.945 2.702-2.997 1.749-1.052 3.989-1.052 3.36 0 5.29 2.12 1.93 2.119 1.93 6.009v1.786h-10.43q.213 1.604 1.28 2.573 1.067.969 2.702.969 2.528 0 3.95-1.832l2.15 2.407q-.984 1.393-2.664 2.172-1.68.78-3.724.78zm-.5-13.442q-1.301 0-2.11.878-.81.878-1.038 2.513h6.085v-.348q-.03-1.453-.787-2.248-.757-.795-2.15-.795zm9.571-7.265h4.375v4.026h2.8v3.21h-2.8v8.173q0 .908.348 1.302.348.393 1.332.393.727 0 1.287-.106v3.315q-1.287.394-2.65.394-4.6 0-4.692-4.647V25.67h-2.391v-3.209h2.391v-4.026zm12.87-2.846v8.658q1.741-2.089 4.375-2.089 5.328 0 5.404 6.191v10.49H85.07V28.471q0-1.407-.605-2.081-.605-.674-2.013-.674-1.923 0-2.785 1.484v11.64h-4.375V15.59h4.375zm26.721 10.081v4.057q0 4.571-1.892 6.993-1.892 2.422-5.54 2.422-3.603 0-5.51-2.377-1.907-2.376-1.952-6.811v-4.057q0-4.617 1.914-7.008 1.915-2.392 5.518-2.392 3.602 0 5.51 2.37 1.907 2.368 1.952 6.803zm-4.374 4.844v-5.238q0-2.74-.75-3.988-.749-1.249-2.338-1.249-1.544 0-2.278 1.188-.734 1.189-.78 3.716v5.359q0 2.694.734 4.004.734 1.309 2.354 1.309 1.605 0 2.316-1.256.711-1.257.742-3.845zM37.768 52.11v14.95h-2.963V55.637l-3.538 1.097v-2.41l6.184-2.214h.317zm14.616.02v1.661L46.61 67.06h-3.128l5.784-12.53h-7.424v-2.4h10.54zm11.744 12.54v2.39H53.895v-2.03l4.83-5.148q.994-1.087 1.47-1.897.478-.81.478-1.538 0-.994-.503-1.564-.502-.569-1.435-.569-1.005 0-1.585.693-.579.692-.579 1.82h-2.974q0-1.364.652-2.492.65-1.128 1.84-1.769 1.19-.64 2.697-.64 2.307 0 3.584 1.107 1.276 1.107 1.276 3.127 0 1.108-.574 2.256-.574 1.148-1.969 2.676l-3.394 3.579h6.42zm1.706.934q0-.708.477-1.148.477-.441 1.194-.441.728 0 1.205.44.477.441.477 1.149 0 .697-.472 1.133-.471.436-1.21.436-.728 0-1.2-.436-.471-.436-.471-1.133zM78.47 52.11v14.95h-2.963V55.637l-3.538 1.097v-2.41l6.184-2.214h.317zm14.616.02v1.661L87.313 67.06h-3.127l5.783-12.53h-7.424v-2.4h10.54zm1.788 13.474q0-.708.477-1.148.476-.441 1.194-.441.728 0 1.205.44.477.441.477 1.149 0 .697-.472 1.133-.472.436-1.21.436-.728 0-1.2-.436-.471-.436-.471-1.133zm15.487-7.465v2.748q0 3.097-1.282 4.737-1.282 1.641-3.753 1.641-2.44 0-3.732-1.61-1.292-1.61-1.323-4.614v-2.748q0-3.128 1.297-4.748t3.738-1.62q2.44 0 3.732 1.605 1.292 1.605 1.323 4.61zm-2.964 3.281v-3.547q0-1.856-.507-2.702-.508-.846-1.584-.846-1.046 0-1.544.805-.497.805-.528 2.517v3.63q0 1.825.498 2.712.497.887 1.594.887 1.087 0 1.569-.851t.502-2.605zm4.854 4.184q0-.708.477-1.148.477-.441 1.195-.441.728 0 1.204.44.477.441.477 1.149 0 .697-.471 1.133-.472.436-1.21.436-.728 0-1.2-.436t-.472-1.133zm8.453-5.004v-2.317h1.58q1.127 0 1.67-.564.544-.564.544-1.497 0-.903-.538-1.405-.539-.503-1.482-.503-.851 0-1.425.467-.575.467-.575 1.215h-2.963q0-1.169.63-2.097.631-.928 1.764-1.45 1.133-.524 2.497-.524 2.369 0 3.712 1.133t1.343 3.123q0 1.025-.625 1.886-.626.862-1.64 1.323 1.26.451 1.88 1.354.621.902.621 2.132 0 1.99-1.45 3.19-1.452 1.2-3.84 1.2-2.236 0-3.656-1.18t-1.42-3.117h2.963q0 .84.63 1.374.631.533 1.554.533 1.056 0 1.656-.559.6-.559.6-1.482 0-2.235-2.461-2.235h-1.569z" fill="#000" fill-rule="nonzero"></path></g><g transform="translate(276 209)"><rect stroke="#7C9D6E" stroke-width="1.96" fill="#D6E9CE" fill-rule="nonzero" x=".98" y=".98" width="156.8" height="51.94" rx="4.9"></rect><path d="M45.537 20.642l3.043 11.035 3.042-11.035h4.571L50.668 37.02h-4.177l-5.525-16.378h4.571zm18.91 16.68q-3.603 0-5.865-2.21-2.263-2.21-2.263-5.887V28.8q0-2.468.953-4.413.954-1.945 2.702-2.997 1.748-1.052 3.989-1.052 3.36 0 5.29 2.12 1.93 2.119 1.93 6.009v1.786h-10.43q.213 1.604 1.28 2.573 1.067.969 2.702.969 2.527 0 3.95-1.832l2.15 2.407q-.984 1.393-2.664 2.172-1.68.78-3.724.78zm-.5-13.44q-1.301 0-2.111.877-.81.878-1.037 2.513h6.085v-.348q-.03-1.453-.787-2.248-.757-.795-2.15-.795zm9.571-7.266h4.375v4.026h2.8v3.21h-2.8v8.173q0 .908.348 1.302.348.393 1.332.393.726 0 1.286-.106v3.315q-1.286.394-2.649.394-4.601 0-4.692-4.647V23.85h-2.392v-3.209h2.392v-4.026zm12.87-2.846v8.658q1.741-2.089 4.375-2.089 5.328 0 5.404 6.191v10.49h-4.375V26.651q0-1.407-.605-2.081-.606-.674-2.013-.674-1.923 0-2.786 1.484v11.64h-4.374V13.77h4.374zm22.513 1.18v22.07h-4.375V20.158l-5.222 1.62V18.22l9.128-3.27h.469z" fill="#000" fill-rule="nonzero"></path></g><path d="M227.194 507.96V530h-4.541l-8.84-14.501V530h-4.541v-22.04h4.54l8.856 14.532v-14.531h4.526zm1.987 13.896v-.196q0-2.437.938-4.345.939-1.907 2.702-2.951 1.764-1.045 4.095-1.045 3.315 0 5.411 2.029 2.096 2.028 2.339 5.51l.03 1.12q0 3.769-2.104 6.047-2.104 2.278-5.646 2.278t-5.654-2.27q-2.111-2.271-2.111-6.177zm4.374.122q0 2.33.878 3.564t2.513 1.234q1.59 0 2.482-1.219.893-1.218.893-3.897 0-2.286-.893-3.542-.893-1.257-2.512-1.257-1.605 0-2.483 1.25-.878 1.248-.878 3.867zm12.144-.288q0-3.83 1.718-6.1 1.718-2.27 4.7-2.27 2.392 0 3.95 1.785v-8.355h4.39V530h-3.95l-.212-1.74q-1.635 2.043-4.208 2.043-2.891 0-4.64-2.278-1.748-2.278-1.748-6.335zm4.375.318q0 2.3.802 3.527.802 1.226 2.33 1.226 2.03 0 2.862-1.71v-6.464q-.818-1.71-2.83-1.71-3.164 0-3.164 5.13zm20.302 8.295q-3.602 0-5.865-2.21-2.263-2.21-2.263-5.888v-.424q0-2.468.953-4.413.954-1.945 2.702-2.997 1.748-1.052 3.989-1.052 3.36 0 5.29 2.12 1.93 2.119 1.93 6.009v1.786h-10.43q.213 1.604 1.28 2.573 1.067.969 2.702.969 2.527 0 3.95-1.832l2.15 2.407q-.984 1.393-2.664 2.172-1.68.78-3.724.78zm-.5-13.442q-1.301 0-2.111.878-.81.878-1.037 2.513h6.085v-.348q-.03-1.453-.787-2.248-.757-.795-2.15-.795z" fill="#000" fill-rule="nonzero"></path><path d="M78.129 441.74h-2.697V447h-3.076v-14.93h5.824q1.682 0 2.958.616 1.277.615 1.964 1.748t.687 2.579q0 2.194-1.502 3.46-1.502 1.267-4.158 1.267zm-2.697-7.178v4.686h2.748q1.22 0 1.861-.574t.641-1.64q0-1.098-.646-1.775-.646-.676-1.784-.697h-2.82zm8.993 6.921v-.133q0-1.65.636-2.943.635-1.292 1.83-2 1.195-.707 2.774-.707 2.245 0 3.665 1.374t1.585 3.733l.02.758q0 2.554-1.425 4.097-1.425 1.543-3.825 1.543-2.4 0-3.83-1.538-1.43-1.538-1.43-4.184zm2.963.082q0 1.58.595 2.415.595.836 1.702.836 1.077 0 1.682-.826.605-.825.605-2.64 0-1.548-.605-2.4-.605-.85-1.702-.85-1.087 0-1.682.846t-.595 2.62zm8.224-.194q0-2.595 1.164-4.133 1.164-1.538 3.184-1.538 1.62 0 2.676 1.21v-5.66h2.973V447h-2.676l-.143-1.18q-1.108 1.385-2.851 1.385-1.958 0-3.143-1.543-1.184-1.543-1.184-4.291zm2.963.215q0 1.559.544 2.39.543.83 1.579.83 1.374 0 1.938-1.159v-4.378q-.554-1.16-1.918-1.16-2.143 0-2.143 3.477zm15.72-9.536V447h-2.964v-11.423l-3.537 1.097v-2.41l6.183-2.214h.318zm8.767 3.855h2.789l.092 1.282q1.19-1.487 3.189-1.487 1.764 0 2.625 1.036.861 1.035.882 3.097V447h-2.964v-7.096q0-.943-.41-1.369-.41-.425-1.364-.425-1.25 0-1.876 1.066V447h-2.963v-11.095zm16.242 11.3q-2.44 0-3.974-1.497-1.533-1.497-1.533-3.989v-.287q0-1.671.646-2.989.646-1.318 1.83-2.03 1.185-.713 2.703-.713 2.276 0 3.583 1.436 1.308 1.435 1.308 4.07v1.21h-7.065q.143 1.087.866 1.744.723.656 1.83.656 1.713 0 2.677-1.24l1.456 1.63q-.667.943-1.805 1.471-1.138.528-2.522.528zm-.339-9.105q-.881 0-1.43.594-.549.595-.702 1.702h4.122v-.235q-.02-.985-.533-1.523-.513-.538-1.457-.538zm6.48-4.922h2.964v2.727h1.897v2.174h-1.897v5.537q0 .615.236.882t.902.267q.493 0 .872-.072v2.245q-.872.267-1.794.267-3.118 0-3.18-3.148v-5.978h-1.62v-2.174h1.62v-2.727zm5.764 2.727h2.789l.092 1.282q1.19-1.487 3.189-1.487 1.764 0 2.625 1.036.861 1.035.882 3.097V447h-2.964v-7.096q0-.943-.41-1.369-.41-.425-1.364-.425-1.25 0-1.876 1.066V447h-2.963v-11.095zm17.144 8.03q0-.544-.538-.857-.538-.313-1.728-.559-3.958-.83-3.958-3.363 0-1.477 1.225-2.466 1.226-.99 3.205-.99 2.112 0 3.378.995 1.267.994 1.267 2.584h-2.964q0-.636-.41-1.051-.41-.416-1.282-.416-.748 0-1.158.339-.41.338-.41.861 0 .492.466.795.467.302 1.574.523 1.108.22 1.866.497 2.349.861 2.349 2.984 0 1.518-1.303 2.456-1.302.938-3.363.938-1.395 0-2.476-.497-1.082-.498-1.697-1.364-.616-.866-.616-1.871h2.81q.041.79.584 1.21.544.42 1.457.42.85 0 1.286-.323.436-.323.436-.846zm149.776-2.195h-2.697V447h-3.076v-14.93h5.824q1.682 0 2.958.616 1.277.615 1.964 1.748t.687 2.579q0 2.194-1.502 3.46-1.502 1.267-4.158 1.267zm-2.697-7.178v4.686h2.748q1.22 0 1.861-.574t.641-1.64q0-1.098-.646-1.775-.646-.676-1.784-.697h-2.82zm8.993 6.921v-.133q0-1.65.636-2.943.635-1.292 1.83-2 1.195-.707 2.774-.707 2.245 0 3.665 1.374t1.585 3.733l.02.758q0 2.554-1.425 4.097-1.425 1.543-3.825 1.543-2.4 0-3.83-1.538-1.43-1.538-1.43-4.184zm2.963.082q0 1.58.595 2.415.595.836 1.702.836 1.077 0 1.682-.826.605-.825.605-2.64 0-1.548-.605-2.4-.605-.85-1.702-.85-1.087 0-1.682.846t-.595 2.62zm8.224-.194q0-2.595 1.164-4.133 1.164-1.538 3.184-1.538 1.62 0 2.676 1.21v-5.66h2.973V447h-2.676l-.143-1.18q-1.108 1.385-2.851 1.385-1.958 0-3.143-1.543-1.184-1.543-1.184-4.291zm2.963.215q0 1.559.544 2.39.543.83 1.579.83 1.374 0 1.938-1.159v-4.378q-.554-1.16-1.918-1.16-2.143 0-2.143 3.477zm18.755 3.025V447h-10.234v-2.03l4.83-5.148q.994-1.087 1.471-1.897.477-.81.477-1.538 0-.994-.502-1.564-.503-.569-1.436-.569-1.005 0-1.584.693-.58.692-.58 1.82H346.8q0-1.364.651-2.492t1.84-1.769q1.19-.64 2.697-.64 2.308 0 3.584 1.107 1.277 1.107 1.277 3.127 0 1.108-.574 2.256-.575 1.148-1.97 2.676l-3.393 3.579h6.419zm5.732-8.706h2.789l.092 1.282q1.19-1.487 3.189-1.487 1.764 0 2.625 1.036.861 1.035.882 3.097V447h-2.964v-7.096q0-.943-.41-1.369-.41-.425-1.364-.425-1.25 0-1.876 1.066V447h-2.963v-11.095zm16.242 11.3q-2.44 0-3.974-1.497-1.533-1.497-1.533-3.989v-.287q0-1.671.646-2.989.646-1.318 1.83-2.03 1.185-.713 2.703-.713 2.276 0 3.583 1.436 1.308 1.435 1.308 4.07v1.21h-7.065q.143 1.087.866 1.744.723.656 1.83.656 1.713 0 2.677-1.24l1.456 1.63q-.667.943-1.805 1.471-1.138.528-2.522.528zm-.339-9.105q-.881 0-1.43.594-.549.595-.702 1.702h4.122v-.235q-.02-.985-.533-1.523-.513-.538-1.457-.538zm6.48-4.922h2.964v2.727h1.897v2.174h-1.897v5.537q0 .615.236.882t.902.267q.493 0 .872-.072v2.245q-.872.267-1.794.267-3.118 0-3.18-3.148v-5.978h-1.62v-2.174h1.62v-2.727zm5.764 2.727h2.789l.092 1.282q1.19-1.487 3.189-1.487 1.764 0 2.625 1.036.861 1.035.882 3.097V447h-2.964v-7.096q0-.943-.41-1.369-.41-.425-1.364-.425-1.25 0-1.876 1.066V447h-2.963v-11.095zm17.144 8.03q0-.544-.538-.857-.538-.313-1.728-.559-3.958-.83-3.958-3.363 0-1.477 1.225-2.466 1.226-.99 3.205-.99 2.112 0 3.378.995 1.267.994 1.267 2.584h-2.964q0-.636-.41-1.051-.41-.416-1.282-.416-.748 0-1.158.339-.41.338-.41.861 0 .492.466.795.467.302 1.574.523 1.108.22 1.866.497 2.349.861 2.349 2.984 0 1.518-1.303 2.456-1.302.938-3.363.938-1.395 0-2.476-.497-1.082-.498-1.697-1.364-.616-.866-.616-1.871h2.81q.041.79.584 1.21.544.42 1.457.42.85 0 1.286-.323.436-.323.436-.846zM347.788 29l-2.8-5.465h-2.45V29h-3.076V14.07h5.547q2.646 0 4.081 1.18 1.436 1.179 1.436 3.332 0 1.528-.661 2.548-.662 1.02-2.005 1.625l3.23 6.101V29h-3.302zm-5.25-12.438v4.481h2.482q1.158 0 1.794-.59.636-.59.636-1.625 0-1.056-.6-1.661t-1.84-.605h-2.472zm8.983 6.921v-.133q0-1.65.635-2.943.636-1.292 1.83-2 1.195-.707 2.774-.707 2.246 0 3.666 1.374t1.584 3.733l.02.758q0 2.554-1.424 4.097-1.426 1.543-3.825 1.543-2.4 0-3.83-1.538-1.43-1.538-1.43-4.184zm2.963.082q0 1.58.595 2.415.594.836 1.702.836 1.077 0 1.682-.826.604-.825.604-2.64 0-1.548-.604-2.4-.605-.85-1.703-.85-1.087 0-1.681.846-.595.846-.595 2.62zm8.224-.082v-.133q0-1.65.635-2.943.636-1.292 1.83-2 1.195-.707 2.774-.707 2.246 0 3.666 1.374t1.584 3.733l.02.758q0 2.554-1.424 4.097-1.426 1.543-3.825 1.543-2.4 0-3.83-1.538-1.43-1.538-1.43-4.184zm2.963.082q0 1.58.595 2.415.594.836 1.702.836 1.077 0 1.682-.826.605-.825.605-2.64 0-1.548-.605-2.4-.605-.85-1.703-.85-1.087 0-1.681.846-.595.846-.595 2.62zm9.27-8.387h2.963v2.727h1.897v2.174h-1.897v5.537q0 .615.236.882t.902.267q.492 0 .872-.072v2.245q-.872.267-1.795.267-3.117 0-3.178-3.148V20.08h-1.62v-2.174h1.62v-2.727zm10.305 2.727h2.789l.092 1.282q1.19-1.487 3.19-1.487 1.763 0 2.624 1.036.861 1.035.882 3.097V29h-2.963v-7.096q0-.943-.41-1.369-.41-.425-1.364-.425-1.251 0-1.877 1.066V29h-2.963V17.905zm16.242 11.3q-2.44 0-3.973-1.497t-1.533-3.989v-.287q0-1.671.646-2.989.646-1.318 1.83-2.03 1.184-.713 2.702-.713 2.276 0 3.584 1.436 1.307 1.435 1.307 4.07v1.21h-7.065q.144 1.087.866 1.744.723.656 1.83.656 1.713 0 2.677-1.24l1.456 1.63q-.666.943-1.805 1.471-1.138.528-2.522.528zm-.338-9.105q-.882 0-1.43.594-.55.595-.703 1.702h4.122v-.235q-.02-.985-.533-1.523-.513-.538-1.456-.538zm6.48-4.922h2.963v2.727h1.897v2.174h-1.897v5.537q0 .615.236.882t.903.267q.492 0 .871-.072v2.245q-.871.267-1.794.267-3.117 0-3.179-3.148V20.08h-1.62v-2.174h1.62v-2.727zm5.763 2.727h2.789l.092 1.282q1.19-1.487 3.19-1.487 1.763 0 2.624 1.036.861 1.035.882 3.097V29h-2.963v-7.096q0-.943-.41-1.369-.41-.425-1.364-.425-1.251 0-1.877 1.066V29h-2.963V17.905zm17.144 8.03q0-.544-.538-.857-.538-.313-1.728-.559-3.958-.83-3.958-3.363 0-1.477 1.226-2.466 1.225-.99 3.204-.99 2.112 0 3.379.995 1.266.994 1.266 2.584h-2.963q0-.636-.41-1.051-.41-.416-1.282-.416-.749 0-1.16.339-.41.338-.41.861 0 .492.467.795.467.302 1.574.523 1.108.22 1.867.497 2.348.861 2.348 2.984 0 1.518-1.303 2.456-1.302.938-3.363.938-1.394 0-2.476-.497-1.082-.498-1.697-1.364-.615-.866-.615-1.871h2.81q.04.79.584 1.21.543.42 1.456.42.85 0 1.287-.323.435-.323.435-.846z" fill="#AD9E6A" fill-rule="nonzero"></path><g transform="translate(166)"><rect stroke="#7C9D6E" stroke-width="1.96" fill="#D6E9CE" fill-rule="nonzero" x=".98" y=".98" width="156.8" height="81.34" rx="4.9"></rect><path d="M57.725 39.143q-3.602 0-5.865-2.21-2.263-2.21-2.263-5.888v-.424q0-2.468.953-4.413.954-1.945 2.702-2.997 1.749-1.052 3.989-1.052 3.36 0 5.29 2.12 1.93 2.119 1.93 6.009v1.786h-10.43q.213 1.604 1.28 2.573 1.067.969 2.702.969 2.528 0 3.95-1.832l2.15 2.407q-.984 1.393-2.664 2.172-1.68.78-3.724.78zm-.5-13.442q-1.301 0-2.11.878-.81.878-1.038 2.513h6.085v-.348q-.03-1.453-.787-2.248-.757-.795-2.15-.795zm9.571-7.265h4.375v4.026h2.8v3.21h-2.8v8.173q0 .908.348 1.302.348.393 1.332.393.727 0 1.287-.106v3.315q-1.287.394-2.65.394-4.6 0-4.692-4.647V25.67h-2.391v-3.209h2.391v-4.026zm12.87-2.846v8.658q1.741-2.089 4.375-2.089 5.328 0 5.404 6.191v10.49H85.07V28.471q0-1.407-.605-2.081-.605-.674-2.013-.674-1.923 0-2.785 1.484v11.64h-4.375V15.59h4.375zm26.721 10.081v4.057q0 4.571-1.892 6.993-1.892 2.422-5.54 2.422-3.603 0-5.51-2.377-1.907-2.376-1.952-6.811v-4.057q0-4.617 1.914-7.008 1.915-2.392 5.518-2.392 3.602 0 5.51 2.37 1.907 2.368 1.952 6.803zm-4.374 4.844v-5.238q0-2.74-.75-3.988-.749-1.249-2.338-1.249-1.544 0-2.278 1.188-.734 1.189-.78 3.716v5.359q0 2.694.734 4.004.734 1.309 2.354 1.309 1.605 0 2.316-1.256.711-1.257.742-3.845zM37.768 52.11v14.95h-2.963V55.637l-3.538 1.097v-2.41l6.184-2.214h.317zm14.513 6.03v2.747q0 3.097-1.281 4.737-1.282 1.641-3.753 1.641-2.44 0-3.733-1.61-1.292-1.61-1.323-4.614v-2.748q0-3.128 1.298-4.748 1.297-1.62 3.737-1.62 2.44 0 3.733 1.605 1.292 1.605 1.322 4.61zm-2.963 3.28v-3.547q0-1.856-.508-2.702-.507-.846-1.584-.846-1.046 0-1.543.805-.497.805-.528 2.517v3.63q0 1.825.497 2.712.497.887 1.595.887 1.087 0 1.568-.851.482-.851.503-2.605zm4.854 4.184q0-.708.476-1.148.477-.441 1.195-.441.728 0 1.205.44.477.441.477 1.149 0 .697-.472 1.133-.472.436-1.21.436-.728 0-1.2-.436-.471-.436-.471-1.133zM66.808 52.11v14.95h-2.963V55.637l-3.538 1.097v-2.41l6.183-2.214h.318zm14.513 6.03v2.747q0 3.097-1.282 4.737-1.281 1.641-3.753 1.641-2.44 0-3.732-1.61-1.292-1.61-1.323-4.614v-2.748q0-3.128 1.297-4.748t3.738-1.62q2.44 0 3.732 1.605 1.292 1.605 1.323 4.61zm-2.963 3.28v-3.547q0-1.856-.508-2.702-.507-.846-1.584-.846-1.046 0-1.543.805-.498.805-.528 2.517v3.63q0 1.825.497 2.712.497.887 1.594.887 1.087 0 1.57-.851.481-.851.502-2.605zm14.625-3.28v2.747q0 3.097-1.281 4.737-1.282 1.641-3.753 1.641-2.44 0-3.733-1.61-1.292-1.61-1.322-4.614v-2.748q0-3.128 1.297-4.748t3.737-1.62q2.44 0 3.733 1.605 1.292 1.605 1.322 4.61zm-2.963 3.28v-3.547q0-1.856-.508-2.702-.507-.846-1.584-.846-1.046 0-1.543.805-.497.805-.528 2.517v3.63q0 1.825.497 2.712.498.887 1.595.887 1.087 0 1.569-.851t.502-2.605zm4.854 4.184q0-.708.477-1.148.476-.441 1.194-.441.728 0 1.205.44.477.441.477 1.149 0 .697-.472 1.133-.472.436-1.21.436-.728 0-1.2-.436-.471-.436-.471-1.133zm15.487-7.465v2.748q0 3.097-1.282 4.737-1.282 1.641-3.753 1.641-2.44 0-3.732-1.61-1.292-1.61-1.323-4.614v-2.748q0-3.128 1.297-4.748t3.738-1.62q2.44 0 3.732 1.605 1.292 1.605 1.323 4.61zm-2.964 3.281v-3.547q0-1.856-.507-2.702-.508-.846-1.584-.846-1.046 0-1.544.805-.497.805-.528 2.517v3.63q0 1.825.498 2.712.497.887 1.594.887 1.087 0 1.569-.851t.502-2.605zm4.854 4.184q0-.708.477-1.148.477-.441 1.195-.441.728 0 1.204.44.477.441.477 1.149 0 .697-.471 1.133-.472.436-1.21.436-.728 0-1.2-.436t-.472-1.133zm15.672-.933v2.389h-10.234v-2.03l4.83-5.148q.995-1.087 1.471-1.897.477-.81.477-1.538 0-.994-.502-1.564-.503-.569-1.436-.569-1.005 0-1.584.693-.58.692-.58 1.82h-2.973q0-1.364.651-2.492t1.84-1.769q1.19-.64 2.698-.64 2.307 0 3.583 1.107 1.277 1.107 1.277 3.127 0 1.108-.574 2.256-.575 1.148-1.97 2.676l-3.393 3.579h6.419z" fill="#000" fill-rule="nonzero"></path></g><g transform="translate(166 98)"><rect stroke="#7C9D6E" stroke-width="1.96" fill="#D6E9CE" fill-rule="nonzero" x=".98" y=".98" width="156.8" height="81.34" rx="4.9"></rect><path d="M22.266 30.53q0-3.83 1.718-6.1 1.718-2.27 4.7-2.27 2.392 0 3.95 1.785V15.59h4.39v23.25h-3.95l-.212-1.74q-1.635 2.043-4.208 2.043-2.891 0-4.64-2.278-1.748-2.278-1.748-6.335zm4.375.318q0 2.3.802 3.527.802 1.226 2.33 1.226 2.03 0 2.862-1.71v-6.464q-.818-1.71-2.83-1.71-3.164 0-3.164 5.13zm12.083-.152V30.5q0-2.437.938-4.345.939-1.907 2.702-2.951 1.764-1.045 4.095-1.045 3.315 0 5.411 2.029 2.096 2.028 2.339 5.51l.03 1.12q0 3.769-2.104 6.047-2.104 2.278-5.646 2.278t-5.654-2.27q-2.111-2.271-2.111-6.177zm4.374.122q0 2.33.878 3.564t2.513 1.234q1.59 0 2.482-1.219.893-1.218.893-3.897 0-2.286-.893-3.542-.893-1.257-2.512-1.257-1.605 0-2.483 1.25-.878 1.248-.878 3.867zm19.637 4.798q1.21 0 1.968-.666.756-.666.787-1.771h4.102q-.015 1.665-.908 3.05-.894 1.385-2.445 2.15-1.552.764-3.429.764-3.511 0-5.54-2.233-2.028-2.233-2.028-6.168v-.288q0-3.784 2.013-6.04 2.013-2.255 5.525-2.255 3.073 0 4.927 1.749 1.854 1.748 1.885 4.654H65.49q-.03-1.271-.787-2.066-.757-.795-1.998-.795-1.53 0-2.309 1.113-.78 1.112-.78 3.61v.454q0 2.528.773 3.633.772 1.105 2.346 1.105zm18.501 3.224l-4.208-6.57-1.574 1.575v4.995h-4.375V15.59h4.375v12.881l.847-1.09 4.193-4.919h5.253l-5.919 6.827 6.433 9.551h-5.025zm12.628.303q-3.602 0-5.865-2.21-2.263-2.21-2.263-5.888v-.424q0-2.468.953-4.413.954-1.945 2.702-2.997 1.749-1.052 3.989-1.052 3.36 0 5.29 2.12 1.93 2.119 1.93 6.009v1.786H90.17q.213 1.604 1.28 2.573 1.067.969 2.702.969 2.528 0 3.95-1.832l2.15 2.407q-.984 1.393-2.664 2.172-1.68.78-3.724.78zm-.5-13.442q-1.301 0-2.11.878-.81.878-1.038 2.513h6.085v-.348q-.03-1.453-.787-2.248-.757-.795-2.15-.795zm17.972-3.345l-.06 4.208q-.893-.121-1.575-.121-2.482 0-3.254 1.68V38.84h-4.375V22.462h4.133l.12 1.953q1.318-2.256 3.649-2.256.726 0 1.362.197zm15.686 3.315v4.057q0 4.571-1.892 6.993-1.892 2.422-5.54 2.422-3.603 0-5.51-2.377-1.907-2.376-1.953-6.811v-4.057q0-4.617 1.915-7.008 1.915-2.392 5.518-2.392 3.602 0 5.51 2.37 1.907 2.368 1.952 6.803zm-4.375 4.844v-5.238q0-2.74-.749-3.988-.75-1.249-2.338-1.249-1.544 0-2.279 1.188-.734 1.189-.78 3.716v5.359q0 2.694.735 4.004.734 1.309 2.354 1.309 1.604 0 2.316-1.256.711-1.257.741-3.845zM37.768 52.11v14.95h-2.963V55.637l-3.538 1.097v-2.41l6.184-2.214h.317zm14.616.02v1.661L46.61 67.06h-3.128l5.784-12.53h-7.424v-2.4h10.54zm11.744 12.54v2.39H53.895v-2.03l4.83-5.148q.994-1.087 1.47-1.897.478-.81.478-1.538 0-.994-.503-1.564-.502-.569-1.435-.569-1.005 0-1.585.693-.579.692-.579 1.82h-2.974q0-1.364.652-2.492.65-1.128 1.84-1.769 1.19-.64 2.697-.64 2.307 0 3.584 1.107 1.276 1.107 1.276 3.127 0 1.108-.574 2.256-.574 1.148-1.969 2.676l-3.394 3.579h6.42zm1.706.934q0-.708.477-1.148.477-.441 1.194-.441.728 0 1.205.44.477.441.477 1.149 0 .697-.472 1.133-.471.436-1.21.436-.728 0-1.2-.436-.471-.436-.471-1.133zM78.47 52.11v14.95h-2.963V55.637l-3.538 1.097v-2.41l6.184-2.214h.317zm14.616.02v1.661L87.313 67.06h-3.127l5.783-12.53h-7.424v-2.4h10.54zm1.788 13.474q0-.708.477-1.148.476-.441 1.194-.441.728 0 1.205.44.477.441.477 1.149 0 .697-.472 1.133-.472.436-1.21.436-.728 0-1.2-.436-.471-.436-.471-1.133zm15.487-7.465v2.748q0 3.097-1.282 4.737-1.282 1.641-3.753 1.641-2.44 0-3.732-1.61-1.292-1.61-1.323-4.614v-2.748q0-3.128 1.297-4.748t3.738-1.62q2.44 0 3.732 1.605 1.292 1.605 1.323 4.61zm-2.964 3.281v-3.547q0-1.856-.507-2.702-.508-.846-1.584-.846-1.046 0-1.544.805-.497.805-.528 2.517v3.63q0 1.825.498 2.712.497.887 1.594.887 1.087 0 1.569-.851t.502-2.605zm4.854 4.184q0-.708.477-1.148.477-.441 1.195-.441.728 0 1.204.44.477.441.477 1.149 0 .697-.471 1.133-.472.436-1.21.436-.728 0-1.2-.436t-.472-1.133zm12.637-13.494v14.95h-2.964V55.637l-3.537 1.097v-2.41l6.183-2.214h.318z" fill="#000" fill-rule="nonzero"></path></g><path fill="#D0021B" fill-rule="nonzero" d="M129 263h13v35h-13z"></path><g fill="#D0021B" fill-rule="nonzero"><path d="M129 134h12.759v76H129z"></path><path d="M166.397 134.036v12.759h-35.533v-12.759z"></path></g><g fill="#000" fill-rule="nonzero"><path d="M363 134h-12.759v76H363z"></path><path d="M325.603 134.036v12.759h35.533v-12.759z"></path></g><path fill="#000" fill-rule="nonzero" d="M350 263h13v35h-13z"></path><path fill="#D0021B" fill-rule="nonzero" d="M240 83h13v15h-13z"></path></g><circle fill="#D0021B" fill-rule="nonzero" cx="205" cy="571" r="15"></circle><g fill="#000" fill-rule="nonzero"><path d="M310 147h13v126h-13z"></path><path d="M465 147v13H313v-13z"></path></g><g fill="#D0021B" fill-rule="nonzero"><path d="M310 147h13v126h-13z"></path><path d="M465 147v13H313v-13z"></path></g><g fill="#D0021B" fill-rule="nonzero"><path d="M894 147h-13v126h13z"></path><path d="M714 147v13h177v-13z"></path></g><path d="M80.245 91.728h-5.779V103h-6.592V71.008h12.48q3.604 0 6.34 1.318 2.736 1.319 4.208 3.747 1.472 2.427 1.472 5.526 0 4.702-3.219 7.415-3.219 2.714-8.91 2.714zm-5.779-15.38v10.04h5.889q2.615 0 3.988-1.23 1.373-1.23 1.373-3.515 0-2.351-1.384-3.802-1.384-1.45-3.823-1.494h-6.043zm19.3 14.83v-.285q0-3.538 1.363-6.306 1.362-2.769 3.922-4.285t5.943-1.516q4.812 0 7.856 2.944 3.043 2.945 3.394 7.999l.044 1.625q0 5.472-3.054 8.779-3.054 3.306-8.196 3.306-5.141 0-8.206-3.295-3.066-3.296-3.066-8.965zm6.35.176q0 3.384 1.275 5.175 1.274 1.79 3.647 1.79 2.308 0 3.604-1.768 1.296-1.769 1.296-5.658 0-3.318-1.296-5.142-1.296-1.823-3.648-1.823-2.329 0-3.603 1.812-1.274 1.813-1.274 5.614zm17.653-.417q0-5.56 2.494-8.855 2.494-3.296 6.822-3.296 3.472 0 5.735 2.593V69.25h6.372V103h-5.735l-.307-2.527q-2.373 2.966-6.109 2.966-4.197 0-6.734-3.306-2.538-3.307-2.538-9.196zm6.35.461q0 3.34 1.164 5.12 1.165 1.78 3.384 1.78 2.945 0 4.153-2.483v-9.382q-1.186-2.483-4.109-2.483-4.592 0-4.592 7.448zm33.714-20.434V103h-6.35V78.522l-7.58 2.352V75.71l13.249-4.746h.681zm-80.49-27.181v2.954h-7.031V54H66.65V36.227h11.572v2.966h-7.91v4.59h7.031zM89.453 54l-3.332-6.506h-2.918V54h-3.662V36.227h6.604q3.15 0 4.859 1.403 1.709 1.404 1.709 3.968 0 1.819-.788 3.033-.787 1.215-2.386 1.935l3.845 7.263V54h-3.93zm-6.25-14.807v5.334h2.954q1.38 0 2.137-.702.756-.701.756-1.934 0-1.258-.714-1.978t-2.19-.72h-2.943zm26.087 5.53v.793q0 2.625-.927 4.602-.928 1.978-2.655 3.052-1.728 1.074-3.962 1.074-2.209 0-3.942-1.062-1.734-1.062-2.686-3.033-.952-1.972-.964-4.535v-.88q0-2.624.946-4.62.946-1.995 2.673-3.063 1.727-1.069 3.949-1.069 2.222 0 3.949 1.069 1.727 1.068 2.673 3.064.946 1.995.946 4.608zm-3.71.854v-.867q0-2.795-1.002-4.248-1-1.452-2.856-1.452-1.843 0-2.844 1.434t-1.013 4.205v.867q0 2.722 1 4.224 1.002 1.501 2.881 1.501 1.844 0 2.832-1.446.99-1.447 1.001-4.218zm5.567-9.35h4.785l4.565 12.89 4.541-12.89h4.81V54h-3.675v-4.858l.367-8.387L121.742 54h-2.514l-4.786-13.232.367 8.374V54h-3.662V36.227zm21.033 16.04q0-.843.568-1.368.567-.524 1.422-.524.866 0 1.434.524.568.525.568 1.368 0 .83-.562 1.348-.561.52-1.44.52-.867 0-1.429-.52-.561-.518-.561-1.348zm0-9.998q0-.842.568-1.367.567-.525 1.422-.525.866 0 1.434.525t.568 1.367q0 .83-.562 1.349-.561.519-1.44.519-.867 0-1.429-.52-.561-.518-.561-1.348zm-52.085 96.958v2.966H74.65V157h-3.662v-14.807h-5.37v-2.966h14.477zm15.54 8.496v.793q0 2.625-.928 4.602-.927 1.978-2.655 3.052-1.727 1.074-3.96 1.074-2.21 0-3.944-1.062-1.733-1.062-2.685-3.033-.952-1.972-.965-4.535v-.88q0-2.624.946-4.62.946-1.995 2.674-3.063 1.727-1.069 3.949-1.069 2.221 0 3.949 1.069 1.727 1.068 2.673 3.064.946 1.995.946 4.608zm-3.71.854v-.867q0-2.795-1.002-4.248-1-1.452-2.856-1.452-1.844 0-2.845 1.434-1 1.434-1.013 4.205v.867q0 2.722 1.001 4.224 1.001 1.501 2.881 1.501 1.843 0 2.832-1.446.989-1.447 1.001-4.218zm5.505 6.69q0-.843.568-1.368.567-.524 1.422-.524.867 0 1.434.524.568.525.568 1.368 0 .83-.562 1.348-.561.52-1.44.52-.867 0-1.428-.52-.562-.518-.562-1.348zm0-9.998q0-.842.568-1.367.567-.525 1.422-.525.867 0 1.434.525.568.525.568 1.367 0 .83-.562 1.349-.561.519-1.44.519-.867 0-1.428-.52-.562-.518-.562-1.348z" fill="#000" fill-rule="nonzero"></path><rect stroke="#B38D62" stroke-width="3" fill="#FCCA91" fill-rule="nonzero" x="425.5" y="48.5" width="349" height="190" rx="5"></rect><path d="M503.163 190l-4-7.808h-3.5V190h-4.395v-21.328h7.925q3.78 0 5.83 1.684 2.051 1.685 2.051 4.761 0 2.183-.945 3.64-.945 1.458-2.864 2.322l4.615 8.716V190h-4.717zm-7.5-17.769v6.402h3.545q1.655 0 2.563-.842.908-.843.908-2.322 0-1.509-.857-2.373-.856-.865-2.629-.865h-3.53zm12.832 9.888v-.19q0-2.359.909-4.204.908-1.846 2.614-2.857 1.707-1.01 3.963-1.01 3.208 0 5.236 1.962 2.03 1.963 2.264 5.332l.029 1.084q0 3.648-2.036 5.852-2.036 2.205-5.464 2.205-3.428 0-5.471-2.197-2.044-2.198-2.044-5.977zm4.234.117q0 2.256.85 3.45.849 1.194 2.431 1.194 1.538 0 2.402-1.18.865-1.179.865-3.771 0-2.212-.865-3.428-.864-1.216-2.431-1.216-1.553 0-2.403 1.209-.85 1.208-.85 3.742zM534.746 190l-.117-1.611q-1.568 1.904-4.336 1.904-2.55 0-3.89-1.465-1.34-1.465-1.37-4.292V174.15h4.234v10.24q0 2.475 2.256 2.475 2.153 0 2.96-1.494v-11.22h4.247V190h-3.984zm7.031-19.746h4.234v3.896h2.71v3.106h-2.71v7.91q0 .879.337 1.26.337.38 1.289.38.703 0 1.245-.102v3.208q-1.245.381-2.564.381-4.453 0-4.54-4.497v-8.54h-2.315v-3.106h2.314v-3.896zm15.616 20.039q-3.486 0-5.676-2.139-2.19-2.138-2.19-5.698v-.41q0-2.388.923-4.27.923-1.882 2.615-2.9 1.691-1.019 3.86-1.019 3.251 0 5.119 2.051 1.868 2.051 1.868 5.816v1.728h-10.093q.205 1.553 1.238 2.49 1.032.938 2.614.938 2.447 0 3.824-1.773l2.08 2.33q-.952 1.347-2.578 2.102-1.626.754-3.604.754zm-.483-13.008q-1.26 0-2.044.85-.783.85-1.003 2.431h5.889v-.337q-.03-1.406-.762-2.175-.733-.769-2.08-.769zm17.388-3.237l-.059 4.072q-.864-.117-1.523-.117-2.403 0-3.15 1.626V190h-4.233v-15.85h3.999l.117 1.89q1.275-2.183 3.53-2.183.704 0 1.319.19zm10.181-5.376l-7.852 23.16h-3.149l7.852-23.16h3.149zm.425 13.462v-.176q0-3.647 1.736-5.874t4.68-2.227q2.608 0 4.058 1.788l.176-1.495h3.838v15.323q0 2.08-.945 3.618-.945 1.538-2.659 2.344-1.714.805-4.014.805-1.743 0-3.398-.696-1.655-.695-2.505-1.794l1.875-2.578q1.582 1.772 3.838 1.772 1.684 0 2.622-.9.937-.901.937-2.557v-.85q-1.464 1.656-3.852 1.656-2.857 0-4.622-2.234-1.765-2.234-1.765-5.925zm4.234.132q0 2.153.864 3.376.864 1.223 2.373 1.223 1.934 0 2.768-1.45v-6.665q-.85-1.45-2.739-1.45-1.523 0-2.395 1.245-.871 1.245-.871 3.72zM615.124 190h-4.277q-.293-.571-.425-1.42-1.538 1.713-3.999 1.713-2.329 0-3.86-1.348-1.53-1.347-1.53-3.398 0-2.52 1.867-3.867 1.868-1.348 5.398-1.363h1.948v-.908q0-1.098-.563-1.758-.564-.659-1.78-.659-1.07 0-1.678.513-.607.513-.607 1.406h-4.234q0-1.377.85-2.549t2.402-1.838q1.553-.667 3.486-.667 2.93 0 4.651 1.473 1.722 1.472 1.722 4.138v6.87q.014 2.256.63 3.413V190zm-7.778-2.944q.938 0 1.729-.418.79-.417 1.171-1.12v-2.725h-1.582q-3.178 0-3.383 2.197l-.015.25q0 .79.557 1.303.556.513 1.523.513zm10.254-16.802h4.234v3.896h2.71v3.106h-2.71v7.91q0 .879.337 1.26.337.38 1.289.38.703 0 1.245-.102v3.208q-1.245.381-2.564.381-4.453 0-4.54-4.497v-8.54h-2.315v-3.106h2.314v-3.896zm15.616 20.039q-3.486 0-5.676-2.139-2.19-2.138-2.19-5.698v-.41q0-2.388.923-4.27.923-1.882 2.614-2.9 1.692-1.019 3.86-1.019 3.252 0 5.12 2.051 1.868 2.051 1.868 5.816v1.728h-10.093q.205 1.553 1.238 2.49 1.032.938 2.614.938 2.447 0 3.824-1.773l2.08 2.33q-.952 1.347-2.578 2.102-1.626.754-3.604.754zm-.483-13.008q-1.26 0-2.044.85-.783.85-1.003 2.431h5.889v-.337q-.03-1.406-.762-2.175-.733-.769-2.08-.769zm19.321-3.135l2.886 10.093 2.08-10.093h4.087L657.064 190h-3.545l-3.003-9.976-3.003 9.976h-3.53l-4.043-15.85h4.087l2.066 10.079 2.9-10.079h3.061zM675.683 190h-4.278q-.292-.571-.424-1.42-1.538 1.713-4 1.713-2.328 0-3.86-1.348-1.53-1.347-1.53-3.398 0-2.52 1.868-3.867 1.867-1.348 5.398-1.363h1.948v-.908q0-1.098-.564-1.758-.564-.659-1.78-.659-1.07 0-1.677.513-.608.513-.608 1.406h-4.233q0-1.377.85-2.549.849-1.172 2.402-1.838 1.552-.667 3.486-.667 2.93 0 4.65 1.473 1.722 1.472 1.722 4.138v6.87q.015 2.256.63 3.413V190zm-7.779-2.944q.938 0 1.729-.418.791-.417 1.172-1.12v-2.725h-1.582q-3.179 0-3.384 2.197l-.015.25q0 .79.557 1.303.557.513 1.524.513zm12.174-12.906l2.944 9.859 2.93-9.859h4.54l-6.371 18.31-.352.836q-1.42 3.105-4.687 3.105-.923 0-1.875-.278v-3.208l.644.015q1.201 0 1.795-.367.593-.366.93-1.215l.498-1.304-5.552-15.894h4.556z" fill="#B38D62" fill-rule="nonzero"></path><path fill="#E6C8A5" fill-rule="nonzero" d="M436 96h157v58H436zm171 0h157v58H607z"></path><path d="M543.857 205.643V227h-4.233v-16.318l-5.054 1.567v-3.442l8.833-3.164h.454zm20.304 8.613v3.926q0 4.423-1.831 6.767-1.832 2.344-5.362 2.344-3.486 0-5.332-2.3-1.846-2.3-1.89-6.592v-3.925q0-4.468 1.854-6.783 1.853-2.314 5.339-2.314 3.486 0 5.332 2.292 1.846 2.293 1.89 6.585zm-4.234 4.687v-5.068q0-2.651-.725-3.86-.725-1.208-2.263-1.208-1.494 0-2.205 1.15-.71 1.15-.754 3.596v5.185q0 2.608.71 3.875t2.278 1.267q1.553 0 2.241-1.216.689-1.216.718-3.72zm6.505 5.977q0-1.01.68-1.64.682-.63 1.707-.63 1.04 0 1.721.63.682.63.682 1.64 0 .996-.674 1.619-.674.622-1.729.622-1.04 0-1.714-.622-.673-.623-.673-1.62zm17.622-19.277V227h-4.233v-16.318l-5.054 1.567v-3.442l8.833-3.164h.454zm20.303 8.613v3.926q0 4.423-1.83 6.767-1.832 2.344-5.362 2.344-3.486 0-5.332-2.3-1.846-2.3-1.89-6.592v-3.925q0-4.468 1.853-6.783 1.853-2.314 5.34-2.314 3.486 0 5.332 2.292 1.845 2.293 1.89 6.585zm-4.233 4.687v-5.068q0-2.651-.725-3.86-.725-1.208-2.263-1.208-1.495 0-2.205 1.15t-.754 3.596v5.185q0 2.608.71 3.875t2.278 1.267q1.553 0 2.241-1.216.689-1.216.718-3.72zm20.464-4.687v3.926q0 4.423-1.83 6.767-1.832 2.344-5.362 2.344-3.487 0-5.332-2.3-1.846-2.3-1.89-6.592v-3.925q0-4.468 1.853-6.783 1.853-2.314 5.34-2.314 3.486 0 5.331 2.292 1.846 2.293 1.89 6.585zm-4.233 4.687v-5.068q0-2.651-.725-3.86-.725-1.208-2.264-1.208-1.494 0-2.204 1.15-.71 1.15-.755 3.596v5.185q0 2.608.71 3.875.711 1.267 2.279 1.267 1.552 0 2.241-1.216.688-1.216.718-3.72zm6.504 5.977q0-1.01.681-1.64.681-.63 1.707-.63 1.04 0 1.721.63t.681 1.64q0 .996-.674 1.619-.674.622-1.728.622-1.04 0-1.714-.622-.674-.623-.674-1.62zm21.695-10.664v3.926q0 4.423-1.831 6.767-1.831 2.344-5.362 2.344-3.486 0-5.332-2.3-1.845-2.3-1.89-6.592v-3.925q0-4.468 1.854-6.783 1.853-2.314 5.34-2.314 3.486 0 5.331 2.292 1.846 2.293 1.89 6.585zm-4.234 4.687v-5.068q0-2.651-.725-3.86-.725-1.208-2.263-1.208-1.494 0-2.204 1.15-.71 1.15-.755 3.596v5.185q0 2.608.71 3.875.711 1.267 2.278 1.267 1.553 0 2.242-1.216.688-1.216.717-3.72zm6.505 5.977q0-1.01.681-1.64.681-.63 1.707-.63 1.04 0 1.72.63.682.63.682 1.64 0 .996-.674 1.619-.674.622-1.728.622-1.04 0-1.714-.622-.674-.623-.674-1.62zm17.622-19.277V227h-4.233v-16.318l-5.054 1.567v-3.442l8.833-3.164h.454zM444.584 89h-6.607V67.672h6.563q2.812 0 5.032 1.267 2.219 1.267 3.464 3.603 1.245 2.337 1.245 5.31v.982q0 2.974-1.223 5.288-1.223 2.315-3.45 3.589-2.226 1.274-5.024 1.289zm-.044-17.769h-2.168V85.47h2.124q2.578 0 3.94-1.685 1.363-1.684 1.392-4.82v-1.127q0-3.252-1.348-4.93-1.347-1.677-3.94-1.677zm18.97 18.062q-3.486 0-5.676-2.139-2.19-2.138-2.19-5.698v-.41q0-2.388.923-4.27.922-1.882 2.614-2.9 1.692-1.019 3.86-1.019 3.252 0 5.12 2.051 1.868 2.051 1.868 5.816v1.728h-10.093q.205 1.553 1.238 2.49 1.032.938 2.614.938 2.447 0 3.824-1.773l2.08 2.33q-.953 1.347-2.579 2.102-1.625.754-3.603.754zm-.483-13.008q-1.26 0-2.044.85t-1.003 2.431h5.888v-.337q-.029-1.406-.761-2.175-.733-.769-2.08-.769zm17.007 8.335q0-.776-.77-1.223-.768-.447-2.467-.798-5.655-1.187-5.655-4.805 0-2.11 1.75-3.523 1.751-1.414 4.578-1.414 3.018 0 4.827 1.421 1.81 1.421 1.81 3.692h-4.234q0-.908-.586-1.502-.586-.593-1.831-.593-1.07 0-1.656.483-.585.484-.585 1.23 0 .704.666 1.136.667.432 2.249.747t2.666.71q3.354 1.231 3.354 4.263 0 2.168-1.86 3.509-1.86 1.34-4.805 1.34-1.992 0-3.538-.71-1.545-.71-2.424-1.949-.879-1.238-.879-2.673h4.014q.058 1.128.835 1.728.776.601 2.08.601 1.216 0 1.838-.461.623-.462.623-1.209zm6.695-15.366h4.233v3.896h2.71v3.106h-2.71v7.91q0 .879.337 1.26.337.38 1.289.38.703 0 1.245-.102v3.208q-1.245.381-2.563.381-4.453 0-4.541-4.497v-8.54h-2.315V73.15h2.315v-3.896zm12.788 3.896V89h-4.248V73.15h4.248zm-4.497-4.101q0-.952.637-1.568.638-.615 1.736-.615 1.084 0 1.729.615.644.616.644 1.568 0 .967-.652 1.582-.652.615-1.72.615-1.07 0-1.722-.615-.652-.615-.652-1.582zm6.915 4.101h3.984l.132 1.831q1.699-2.124 4.555-2.124 2.52 0 3.75 1.48t1.26 4.424V89h-4.233V78.863q0-1.347-.586-1.955-.586-.608-1.948-.608-1.787 0-2.681 1.523V89h-4.233V73.15zM531.305 89h-4.277q-.293-.571-.425-1.42-1.538 1.713-3.999 1.713-2.33 0-3.86-1.348-1.53-1.347-1.53-3.398 0-2.52 1.867-3.867 1.868-1.348 5.398-1.363h1.948v-.908q0-1.098-.564-1.758-.564-.659-1.78-.659-1.069 0-1.677.513-.608.513-.608 1.406h-4.233q0-1.377.85-2.549t2.402-1.838q1.553-.667 3.486-.667 2.93 0 4.651 1.473 1.721 1.472 1.721 4.138v6.87q.015 2.256.63 3.413V89zm-7.778-2.944q.937 0 1.728-.418.791-.417 1.172-1.12v-2.725h-1.582q-3.179 0-3.384 2.197l-.014.25q0 .79.556 1.303.557.513 1.524.513zm10.254-16.802h4.234v3.896h2.71v3.106h-2.71v7.91q0 .879.337 1.26.336.38 1.289.38.703 0 1.245-.102v3.208q-1.245.381-2.564.381-4.453 0-4.54-4.497v-8.54h-2.315V73.15h2.314v-3.896zm12.789 3.896V89h-4.248V73.15h4.248zm-4.497-4.101q0-.952.637-1.568.637-.615 1.736-.615 1.084 0 1.728.615.645.616.645 1.568 0 .967-.652 1.582-.652.615-1.721.615-1.07 0-1.721-.615-.652-.615-.652-1.582zm6.343 12.07v-.19q0-2.359.908-4.204.908-1.846 2.615-2.857 1.706-1.01 3.962-1.01 3.208 0 5.237 1.962 2.029 1.963 2.263 5.332l.03 1.084q0 3.648-2.037 5.852-2.036 2.205-5.463 2.205-3.428 0-5.472-2.197-2.043-2.198-2.043-5.977zm4.233.117q0 2.256.85 3.45.85 1.194 2.432 1.194 1.538 0 2.402-1.18.864-1.179.864-3.771 0-2.212-.864-3.428-.864-1.216-2.432-1.216-1.553 0-2.402 1.209-.85 1.208-.85 3.742zm12.32-8.086h3.984l.132 1.831q1.7-2.124 4.556-2.124 2.52 0 3.75 1.48t1.26 4.424V89h-4.234V78.863q0-1.347-.586-1.955-.586-.608-1.948-.608-1.787 0-2.68 1.523V89h-4.234V73.15zm77.529-5.478V89h-4.394l-8.555-14.033V89h-4.395V67.672h4.395l8.57 14.062V67.672h4.379zm9.874 21.621q-3.487 0-5.677-2.139-2.19-2.138-2.19-5.698v-.41q0-2.388.923-4.27.923-1.882 2.615-2.9 1.692-1.019 3.86-1.019 3.252 0 5.12 2.051 1.867 2.051 1.867 5.816v1.728h-10.093q.205 1.553 1.238 2.49 1.033.938 2.615.938 2.446 0 3.823-1.773l2.08 2.33q-.952 1.347-2.578 2.102-1.626.754-3.603.754zm-.484-13.008q-1.26 0-2.043.85-.784.85-1.004 2.431h5.889v-.337q-.03-1.406-.762-2.175-.732-.769-2.08-.769zm11.851-3.135l2.608 4.732 2.666-4.732h4.526l-4.512 7.764L673.73 89h-4.54l-2.828-4.98L663.55 89h-4.556l4.702-8.086-4.497-7.764h4.541zm11.69-3.896h4.233v3.896h2.71v3.106h-2.71v7.91q0 .879.337 1.26.337.38 1.29.38.703 0 1.245-.102v3.208q-1.246.381-2.564.381-4.453 0-4.54-4.497v-8.54h-2.315V73.15h2.314v-3.896zM694.37 66.5v8.379q1.685-2.022 4.234-2.022 5.156 0 5.23 5.992V89H699.6V78.966q0-1.362-.586-2.014-.586-.652-1.948-.652-1.86 0-2.696 1.435V89h-4.233V66.5h4.233zm11.016 14.62v-.191q0-2.359.909-4.204.908-1.846 2.614-2.857 1.707-1.01 3.963-1.01 3.208 0 5.237 1.962 2.028 1.963 2.263 5.332l.03 1.084q0 3.648-2.037 5.852-2.036 2.205-5.464 2.205-3.428 0-5.471-2.197-2.044-2.198-2.044-5.977zm4.234.116q0 2.256.85 3.45.85 1.194 2.431 1.194 1.538 0 2.402-1.18.865-1.179.865-3.771 0-2.212-.865-3.428-.864-1.216-2.431-1.216-1.553 0-2.403 1.209-.85 1.208-.85 3.742zm26.675-.234v.22q0 3.662-1.662 5.866-1.663 2.205-4.49 2.205-2.403 0-3.882-1.67v7.47h-4.233V73.15h3.925l.147 1.553q1.538-1.846 4.013-1.846 2.93 0 4.556 2.168t1.626 5.977zm-4.233-.088q0-2.212-.784-3.413Q730.494 76.3 729 76.3q-1.992 0-2.74 1.523v6.49q.777 1.567 2.77 1.567 3.032 0 3.032-4.966zM460.243 105.05V120h-2.963v-11.423l-3.538 1.097v-2.41l6.184-2.214h.317zm14.315.02v1.661L468.785 120h-3.128l5.784-12.53h-7.424v-2.4h10.54zM486 117.61V120h-10.233v-2.03l4.83-5.148q.994-1.087 1.47-1.897.478-.81.478-1.538 0-.994-.503-1.564-.502-.569-1.435-.569-1.005 0-1.585.693-.579.692-.579 1.82h-2.974q0-1.364.652-2.492.65-1.128 1.84-1.769 1.19-.64 2.697-.64 2.307 0 3.584 1.107 1.276 1.107 1.276 3.127 0 1.108-.574 2.256-.574 1.148-1.969 2.676l-3.394 3.579h6.42zm1.405.934q0-.708.477-1.148.477-.441 1.194-.441.728 0 1.205.44.477.441.477 1.149 0 .697-.472 1.133-.471.436-1.21.436-.728 0-1.2-.436-.471-.436-.471-1.133zm12.335-13.494V120h-2.963v-11.423l-3.538 1.097v-2.41l6.184-2.214h.317zm14.315.02v1.661L508.283 120h-3.127l5.783-12.53h-7.424v-2.4h10.54zm1.487 13.474q0-.708.477-1.148.476-.441 1.194-.441.728 0 1.205.44.477.441.477 1.149 0 .697-.472 1.133-.472.436-1.21.436-.728 0-1.2-.436-.471-.436-.471-1.133zm15.186-7.465v2.748q0 3.097-1.282 4.737-1.282 1.641-3.753 1.641-2.44 0-3.732-1.61-1.292-1.61-1.323-4.614v-2.748q0-3.128 1.297-4.748t3.738-1.62q2.44 0 3.732 1.605 1.292 1.605 1.323 4.61zm-2.964 3.281v-3.547q0-1.856-.507-2.702-.508-.846-1.584-.846-1.046 0-1.544.805-.497.805-.528 2.517v3.63q0 1.825.498 2.712.497.887 1.594.887 1.087 0 1.569-.851t.502-2.605zm4.553 4.184q0-.708.477-1.148.477-.441 1.195-.441.728 0 1.204.44.477.441.477 1.149 0 .697-.471 1.133-.472.436-1.21.436-.728 0-1.2-.436t-.472-1.133zm15.186-7.465v2.748q0 3.097-1.282 4.737-1.281 1.641-3.752 1.641-2.44 0-3.733-1.61-1.292-1.61-1.323-4.614v-2.748q0-3.128 1.298-4.748 1.297-1.62 3.737-1.62 2.44 0 3.732 1.605 1.292 1.605 1.323 4.61zm-2.963 3.281v-3.547q0-1.856-.508-2.702-.507-.846-1.584-.846-1.046 0-1.543.805-.497.805-.528 2.517v3.63q0 1.825.497 2.712.497.887 1.595.887 1.086 0 1.568-.851t.503-2.605zm10.828-9.29l-5.496 16.212h-2.205l5.496-16.212h2.205zm10.838 12.54V120h-10.233v-2.03l4.83-5.148q.994-1.087 1.471-1.897.477-.81.477-1.538 0-.994-.503-1.564-.502-.569-1.435-.569-1.005 0-1.584.693-.58.692-.58 1.82h-2.973q0-1.364.65-2.492.652-1.128 1.841-1.769 1.19-.64 2.697-.64 2.307 0 3.584 1.107 1.276 1.107 1.276 3.127 0 1.108-.574 2.256-.574 1.148-1.969 2.676l-3.394 3.579h6.42zm9.895-12.54v9.31h1.692v2.39h-1.692V120h-2.963v-3.23h-6.122l-.133-1.866 6.224-9.834h2.994zm-3.158 4.379l-3.107 4.932h3.302v-5.27l-.195.338zm-112.7 21.601V146h-2.963v-11.423l-3.538 1.097v-2.41l6.184-2.214h.317zm14.315.02v1.661L468.785 146h-3.128l5.784-12.53h-7.424v-2.4h10.54zM486 143.61V146h-10.233v-2.03l4.83-5.148q.994-1.087 1.47-1.897.478-.81.478-1.538 0-.994-.503-1.564-.502-.569-1.435-.569-1.005 0-1.585.693-.579.692-.579 1.82h-2.974q0-1.364.652-2.492.65-1.128 1.84-1.769 1.19-.64 2.697-.64 2.307 0 3.584 1.107 1.276 1.107 1.276 3.127 0 1.108-.574 2.256-.574 1.148-1.969 2.676l-3.394 3.579h6.42zm1.405.934q0-.708.477-1.148.477-.441 1.194-.441.728 0 1.205.44.477.441.477 1.149 0 .697-.472 1.133-.471.436-1.21.436-.728 0-1.2-.436-.471-.436-.471-1.133zm12.335-13.494V146h-2.963v-11.423l-3.538 1.097v-2.41l6.184-2.214h.317zm14.315.02v1.661L508.283 146h-3.127l5.783-12.53h-7.424v-2.4h10.54zm1.487 13.474q0-.708.477-1.148.476-.441 1.194-.441.728 0 1.205.44.477.441.477 1.149 0 .697-.472 1.133-.472.436-1.21.436-.728 0-1.2-.436-.471-.436-.471-1.133zm12.335-13.494V146h-2.963v-11.423l-3.538 1.097v-2.41l6.183-2.214h.318zm4.44 13.494q0-.708.477-1.148.477-.441 1.195-.441.728 0 1.204.44.477.441.477 1.149 0 .697-.471 1.133-.472.436-1.21.436-.728 0-1.2-.436t-.472-1.133zm15.186-7.465v2.748q0 3.097-1.282 4.737-1.281 1.641-3.752 1.641-2.44 0-3.733-1.61-1.292-1.61-1.323-4.614v-2.748q0-3.128 1.298-4.748 1.297-1.62 3.737-1.62 2.44 0 3.732 1.605 1.292 1.605 1.323 4.61zm-2.963 3.281v-3.548q0-1.855-.508-2.701-.507-.846-1.584-.846-1.046 0-1.543.805-.497.805-.528 2.517v3.63q0 1.825.497 2.712.497.887 1.595.887 1.086 0 1.568-.851t.503-2.605zm10.828-9.29l-5.496 16.212h-2.205l5.496-16.212h2.205zm10.838 12.54V146h-10.233v-2.03l4.83-5.148q.994-1.087 1.471-1.897.477-.81.477-1.538 0-.994-.503-1.564-.502-.569-1.435-.569-1.005 0-1.584.693-.58.692-.58 1.82h-2.973q0-1.364.65-2.492.652-1.128 1.841-1.769 1.19-.64 2.697-.64 2.307 0 3.584 1.107 1.276 1.107 1.276 3.127 0 1.108-.574 2.256-.574 1.148-1.969 2.676l-3.394 3.579h6.42zm9.895-12.54v9.31h1.692v2.39h-1.692V146h-2.963v-3.23h-6.122l-.133-1.866 6.224-9.834h2.994zm-3.158 4.379l-3.107 4.932h3.302v-5.27l-.195.338zM645.7 105.05V120h-2.963v-11.423l-3.538 1.097v-2.41l6.184-2.214h.317zm14.212 6.03v2.747q0 3.097-1.281 4.737-1.282 1.641-3.753 1.641-2.44 0-3.733-1.61-1.292-1.61-1.323-4.614v-2.748q0-3.128 1.298-4.748 1.297-1.62 3.737-1.62 2.44 0 3.733 1.605 1.292 1.605 1.322 4.61zm-2.963 3.28v-3.547q0-1.856-.508-2.702-.507-.846-1.584-.846-1.046 0-1.543.805-.497.805-.528 2.517v3.63q0 1.825.497 2.712.497.887 1.595.887 1.087 0 1.568-.851.482-.851.503-2.605zm4.553 4.184q0-.708.476-1.148.477-.441 1.195-.441.728 0 1.205.44.477.441.477 1.149 0 .697-.472 1.133-.472.436-1.21.436-.728 0-1.2-.436-.471-.436-.471-1.133zm12.335-13.494V120h-2.963v-11.423l-3.538 1.097v-2.41l6.183-2.214h.318zm14.212 6.03v2.747q0 3.097-1.282 4.737-1.281 1.641-3.753 1.641-2.44 0-3.732-1.61-1.292-1.61-1.323-4.614v-2.748q0-3.128 1.297-4.748t3.738-1.62q2.44 0 3.732 1.605 1.292 1.605 1.323 4.61zm-2.963 3.28v-3.547q0-1.856-.508-2.702-.507-.846-1.584-.846-1.046 0-1.543.805-.498.805-.528 2.517v3.63q0 1.825.497 2.712.497.887 1.594.887 1.087 0 1.57-.851.481-.851.502-2.605zm14.324-3.28v2.747q0 3.097-1.281 4.737-1.282 1.641-3.753 1.641-2.44 0-3.733-1.61-1.292-1.61-1.322-4.614v-2.748q0-3.128 1.297-4.748t3.737-1.62q2.44 0 3.733 1.605 1.292 1.605 1.322 4.61zm-2.963 3.28v-3.547q0-1.856-.508-2.702-.507-.846-1.584-.846-1.046 0-1.543.805-.497.805-.528 2.517v3.63q0 1.825.497 2.712.498.887 1.595.887 1.087 0 1.569-.851t.502-2.605zm4.553 4.184q0-.708.477-1.148.476-.441 1.194-.441.728 0 1.205.44.477.441.477 1.149 0 .697-.472 1.133-.472.436-1.21.436-.728 0-1.2-.436-.471-.436-.471-1.133zm15.186-7.465v2.748q0 3.097-1.282 4.737-1.282 1.641-3.753 1.641-2.44 0-3.732-1.61-1.292-1.61-1.323-4.614v-2.748q0-3.128 1.297-4.748t3.738-1.62q2.44 0 3.732 1.605 1.292 1.605 1.323 4.61zm-2.964 3.281v-3.547q0-1.856-.507-2.702-.508-.846-1.584-.846-1.046 0-1.544.805-.497.805-.528 2.517v3.63q0 1.825.498 2.712.497.887 1.594.887 1.087 0 1.569-.851t.502-2.605zm4.553 4.184q0-.708.477-1.148.477-.441 1.195-.441.728 0 1.204.44.477.441.477 1.149 0 .697-.471 1.133-.472.436-1.21.436-.728 0-1.2-.436t-.472-1.133zm15.37-.933V120h-10.233v-2.03l4.83-5.148q.995-1.087 1.471-1.897.477-.81.477-1.538 0-.994-.502-1.564-.503-.569-1.436-.569-1.005 0-1.584.693-.58.692-.58 1.82h-2.973q0-1.364.651-2.492t1.84-1.769q1.19-.64 2.698-.64 2.307 0 3.583 1.107 1.277 1.107 1.277 3.127 0 1.108-.574 2.256-.575 1.148-1.97 2.676l-3.393 3.579h6.419zM645.7 131.05V146h-2.963v-11.423l-3.538 1.097v-2.41l6.184-2.214h.317zm14.212 6.03v2.747q0 3.097-1.281 4.737-1.282 1.641-3.753 1.641-2.44 0-3.733-1.61-1.292-1.61-1.323-4.614v-2.748q0-3.128 1.298-4.748 1.297-1.62 3.737-1.62 2.44 0 3.733 1.605 1.292 1.605 1.322 4.61zm-2.963 3.28v-3.548q0-1.855-.508-2.701-.507-.846-1.584-.846-1.046 0-1.543.805-.497.805-.528 2.517v3.63q0 1.825.497 2.712.497.887 1.595.887 1.087 0 1.568-.851.482-.851.503-2.605zm4.553 4.184q0-.708.476-1.148.477-.441 1.195-.441.728 0 1.205.44.477.441.477 1.149 0 .697-.472 1.133-.472.436-1.21.436-.728 0-1.2-.436-.471-.436-.471-1.133zm12.335-13.494V146h-2.963v-11.423l-3.538 1.097v-2.41l6.183-2.214h.318zm14.212 6.03v2.747q0 3.097-1.282 4.737-1.281 1.641-3.753 1.641-2.44 0-3.732-1.61-1.292-1.61-1.323-4.614v-2.748q0-3.128 1.297-4.748t3.738-1.62q2.44 0 3.732 1.605 1.292 1.605 1.323 4.61zm-2.963 3.28v-3.548q0-1.855-.508-2.701-.507-.846-1.584-.846-1.046 0-1.543.805-.498.805-.528 2.517v3.63q0 1.825.497 2.712.497.887 1.594.887 1.087 0 1.57-.851.481-.851.502-2.605zm14.324-3.28v2.747q0 3.097-1.281 4.737-1.282 1.641-3.753 1.641-2.44 0-3.733-1.61-1.292-1.61-1.322-4.614v-2.748q0-3.128 1.297-4.748t3.737-1.62q2.44 0 3.733 1.605 1.292 1.605 1.322 4.61zm-2.963 3.28v-3.548q0-1.855-.508-2.701-.507-.846-1.584-.846-1.046 0-1.543.805-.497.805-.528 2.517v3.63q0 1.825.497 2.712.498.887 1.595.887 1.087 0 1.569-.851t.502-2.605zm4.553 4.184q0-.708.477-1.148.476-.441 1.194-.441.728 0 1.205.44.477.441.477 1.149 0 .697-.472 1.133-.472.436-1.21.436-.728 0-1.2-.436-.471-.436-.471-1.133zm15.186-7.465v2.748q0 3.097-1.282 4.737-1.282 1.641-3.753 1.641-2.44 0-3.732-1.61-1.292-1.61-1.323-4.614v-2.748q0-3.128 1.297-4.748t3.738-1.62q2.44 0 3.732 1.605 1.292 1.605 1.323 4.61zm-2.964 3.281v-3.548q0-1.855-.507-2.701-.508-.846-1.584-.846-1.046 0-1.544.805-.497.805-.528 2.517v3.63q0 1.825.498 2.712.497.887 1.594.887 1.087 0 1.569-.851t.502-2.605zm4.553 4.184q0-.708.477-1.148.477-.441 1.195-.441.728 0 1.204.44.477.441.477 1.149 0 .697-.471 1.133-.472.436-1.21.436-.728 0-1.2-.436t-.472-1.133zm8.152-5.004v-2.317h1.58q1.127 0 1.67-.564.544-.564.544-1.497 0-.903-.538-1.405-.539-.503-1.482-.503-.851 0-1.425.467-.575.466-.575 1.215h-2.963q0-1.169.63-2.097.631-.928 1.764-1.45 1.133-.524 2.497-.524 2.369 0 3.712 1.133t1.343 3.123q0 1.025-.625 1.886-.626.862-1.64 1.323 1.26.451 1.88 1.354.621.902.621 2.132 0 1.99-1.45 3.19-1.452 1.2-3.84 1.2-2.236 0-3.656-1.18t-1.42-3.117h2.963q0 .84.63 1.374.631.533 1.554.533 1.056 0 1.656-.559.6-.559.6-1.482 0-2.235-2.461-2.235h-1.569zM80.245 194.728h-5.779V206h-6.592v-31.992h12.48q3.604 0 6.34 1.318 2.736 1.319 4.208 3.747 1.472 2.427 1.472 5.526 0 4.702-3.219 7.415-3.219 2.714-8.91 2.714zm-5.779-15.38v10.04h5.889q2.615 0 3.988-1.23 1.373-1.23 1.373-3.515 0-2.351-1.384-3.802-1.384-1.45-3.823-1.494h-6.043zm19.3 14.83v-.285q0-3.538 1.363-6.306 1.362-2.769 3.922-4.285t5.943-1.516q4.812 0 7.856 2.944 3.043 2.945 3.394 7.999l.044 1.625q0 5.472-3.054 8.779-3.054 3.306-8.196 3.306-5.141 0-8.206-3.295-3.066-3.296-3.066-8.965zm6.35.176q0 3.384 1.275 5.175 1.274 1.79 3.647 1.79 2.308 0 3.604-1.768 1.296-1.769 1.296-5.658 0-3.318-1.296-5.142-1.296-1.823-3.648-1.823-2.329 0-3.603 1.812-1.274 1.813-1.274 5.614zm17.653-.417q0-5.56 2.494-8.855 2.494-3.296 6.822-3.296 3.472 0 5.735 2.593V172.25h6.372V206h-5.735l-.307-2.527q-2.373 2.966-6.109 2.966-4.197 0-6.734-3.306-2.538-3.307-2.538-9.196zm6.35.461q0 3.34 1.164 5.12 1.165 1.78 3.384 1.78 2.945 0 4.153-2.483v-9.382q-1.186-2.483-4.109-2.483-4.592 0-4.592 7.448zm37.076-20.39v19.951h3.625v5.12h-3.625V206h-6.35v-6.921h-13.118l-.285-4 13.337-21.071h6.416zm-6.768 9.382l-6.657 10.569h7.075v-11.294l-.418.725z" fill="#000" fill-rule="nonzero"></path></g></svg>