<svg viewBox="0 0 1200 900" xmlns="http://www.w3.org/2000/svg"><g fill="none" fill-rule="evenodd"><path d="M596.87 23.327a58.347 58.347 0 0 0-22.3 5.67L270.265 175.106c-15.955 7.656-27.543 22.137-31.485 39.342l-75.073 328.196a57.834 57.834 0 0 0 7.9 44.466 57.999 57.999 0 0 0 3.309 4.615l210.626 263.16c11.045 13.793 27.79 21.825 45.496 21.821l337.773-.078c17.7.013 34.444-8.004 45.496-21.783l210.549-263.198a57.848 57.848 0 0 0 11.247-49.08l-75.19-328.197c-3.942-17.206-15.53-31.686-31.485-39.343L625.085 28.997a58.357 58.357 0 0 0-28.215-5.67z" opacity=".1" fill="#326CE5" fill-rule="nonzero" stroke="#FFF" stroke-width=".5"></path><g fill="#B8E986"><path d="M489 450l-65 36v-72z"></path><path d="M0 459v-20h470v20z"></path></g><path fill="#53777A" d="M490 336h220v228H490z"></path><text font-size="28" font-weight="bold" fill="#FFF" transform="translate(490 336)" class="sans-serif"><tspan x="61.007" y="91">TILLER</tspan></text><path fill="#53777A" d="M490 607h220v228H490z"></path><text font-size="28" font-weight="bold" fill="#FFF" transform="translate(490 607)" class="sans-serif"><tspan x="25.2" y="91">API SERVER</tspan></text><g transform="translate(595 564)" fill-rule="nonzero"><path fill="#9EEBCF" d="M7-1v44H4V-1z"></path><circle stroke="#9EEBCF" stroke-width="3" fill="#FFF" cx="5.5" cy="-1.5" r="6.5"></circle><path fill="#9EEBCF" d="M5.5 47L0 39h11z"></path></g></g></svg>