<svg viewBox="0 0 1200 900" xmlns="http://www.w3.org/2000/svg"><g fill="none" fill-rule="evenodd"><g fill-rule="nonzero"><path d="M523 485v20H99v-20a5 5 0 0 1 5-5h414a5 5 0 0 1 5 5z" fill="#D2D2D2"></path><path fill="#A3A3A3" d="M106 486h4v4h-4zm6 0h4v4h-4zm6 0h4v4h-4z"></path></g><path d="M299 759.068c0 1.067-.626 1.932-1.399 1.932H100.399c-.773 0-1.399-.865-1.399-1.932V595a5 5 0 0 1 5-5h190a5 5 0 0 1 5 5v164.068z" fill="#FF003C"></path><path d="M104 590h190a5 5 0 0 1 5 5v18H99v-18a5 5 0 0 1 5-5z" fill="#CCC"></path><path d="M116 602.5a4.5 4.5 0 1 1-9 0 4.5 4.5 0 0 1 9 0" fill="#E74C3C"></path><path d="M132 602.5a4.5 4.5 0 1 1-9 0 4.5 4.5 0 0 1 9 0" fill="#F1C40F"></path><path d="M147 602.5a4.5 4.5 0 1 1-9 0 4.5 4.5 0 0 1 9 0" fill="#2ECC71"></path><g transform="translate(194 505)" fill-rule="nonzero"><path fill="#9EEBCF" d="M7-1v86H4V-1z"></path><circle stroke="#9EEBCF" stroke-width="3" fill="#FFF" cx="5.5" cy="-1.5" r="6.5"></circle><path fill="#9EEBCF" d="M5.5 89L0 81h11z"></path></g><path d="M523 759.068c0 1.067-.626 1.932-1.399 1.932H324.399c-.773 0-1.399-.865-1.399-1.932V595a5 5 0 0 1 5-5h190a5 5 0 0 1 5 5v164.068z" fill="#FF003C"></path><path d="M328 590h190a5 5 0 0 1 5 5v18H323v-18a5 5 0 0 1 5-5z" fill="#CCC"></path><path d="M340 602.5a4.5 4.5 0 1 1-9 0 4.5 4.5 0 0 1 9 0" fill="#E74C3C"></path><path d="M356 602.5a4.5 4.5 0 1 1-9 0 4.5 4.5 0 0 1 9 0" fill="#F1C40F"></path><path d="M371 602.5a4.5 4.5 0 1 1-9 0 4.5 4.5 0 0 1 9 0" fill="#2ECC71"></path><g transform="translate(418 505)" fill-rule="nonzero"><path fill="#9EEBCF" d="M7-1v86H4V-1z"></path><circle stroke="#9EEBCF" stroke-width="3" fill="#FFF" cx="5.5" cy="-1.5" r="6.5"></circle><path fill="#9EEBCF" d="M5.5 89L0 81h11z"></path></g><path d="M104.84 461.662q-2.412-.693-3.51-1.704-1.1-1.01-1.1-2.495 0-1.68 1.343-2.778 1.343-1.1 3.491-1.1 1.465 0 2.613.567 1.147.567 1.777 1.563.63.996.63 2.178h-1.885q0-1.29-.82-2.027-.82-.737-2.315-.737-1.386 0-2.163.61-.776.61-.776 1.695 0 .869.737 1.47.738.6 2.51 1.098 1.773.498 2.774 1.099 1 .6 1.484 1.401.483.8.483 1.885 0 1.728-1.347 2.768-1.348 1.04-3.604 1.04-1.465 0-2.734-.561-1.27-.562-1.958-1.538-.689-.977-.689-2.217h1.885q0 1.289.952 2.036.952.747 2.544.747 1.484 0 2.275-.605.792-.606.792-1.65 0-1.046-.733-1.617-.732-.571-2.656-1.128zm11.777 6.533q-2.148 0-3.496-1.41-1.348-1.412-1.348-3.775v-.332q0-1.573.601-2.808.6-1.235 1.68-1.933 1.079-.699 2.339-.699 2.06 0 3.203 1.358 1.142 1.357 1.142 3.886v.752h-7.158q.04 1.563.913 2.525.874.962 2.222.962.957 0 1.62-.39.665-.392 1.163-1.036l1.104.86q-1.329 2.04-3.985 2.04zm-.224-9.472q-1.094 0-1.836.796-.743.795-.918 2.231h5.293v-.137q-.078-1.377-.743-2.134-.664-.756-1.796-.756zm11.543-1.348v1.68q-.41-.069-.89-.069-1.776 0-2.411 1.514v7.5h-1.807v-10.566h1.758l.03 1.22q.888-1.416 2.519-1.416.527 0 .8.137zm2.636.059l2.686 8.115 2.617-8.115h1.846L133.93 468h-1.376l-3.828-10.566h1.845zm10.85 0V468h-1.807v-10.566h1.807zm-1.953-2.803q0-.44.268-.742.269-.303.796-.303.528 0 .801.303.273.302.273.742t-.273.732q-.273.293-.8.293-.528 0-.797-.293-.268-.293-.268-.732zm9.082 12.09q.967 0 1.69-.586.722-.586.8-1.465h1.709q-.049.908-.625 1.728t-1.538 1.309q-.962.488-2.036.488-2.158 0-3.433-1.44-1.274-1.44-1.274-3.94v-.303q0-1.543.566-2.744.567-1.202 1.626-1.866 1.06-.664 2.505-.664 1.777 0 2.954 1.065 1.177 1.064 1.255 2.763h-1.709q-.078-1.025-.776-1.684-.699-.66-1.724-.66-1.377 0-2.134.992-.757.991-.757 2.866v.342q0 1.826.752 2.812.752.987 2.149.987zm10.615 1.474q-2.148 0-3.496-1.41-1.348-1.412-1.348-3.775v-.332q0-1.573.6-2.808.601-1.235 1.68-1.933 1.08-.699 2.34-.699 2.06 0 3.203 1.358 1.142 1.357 1.142 3.886v.752h-7.158q.039 1.563.913 2.525t2.222.962q.957 0 1.62-.39.665-.392 1.163-1.036l1.103.86q-1.328 2.04-3.984 2.04zm-.225-9.472q-1.093 0-1.836.796-.742.795-.917 2.231h5.292v-.137q-.078-1.377-.742-2.134-.664-.756-1.797-.756z" fill="#4A4A4A" fill-rule="nonzero"></path><g fill="#B8E986"><path d="M310 498l-36-65h72z"></path><path d="M300 270h20v210h-20z"></path></g><g fill-rule="nonzero"><path d="M181 270l.038-70.382a2.799 2.799 0 0 1 2.799-2.798l54.217-.001c1.119-.44.72-.72.56-1-3.48-5.759-5.758-11.957-6.638-18.675-1.959-15.396 2.4-28.793 12.874-40.27.6-.64 1.2-1.24 1.84-1.84.52-.52.52-.52.04-1-1.64-1.559-3.119-3.278-4.358-5.198-2.8-4.439-4.358-9.277-4.478-14.556-.04-1.32.24-1.48 1.439-.88 1.28.64 2.599 1.2 3.998 1.64.16-2.32-.12-4.24-.16-6.199 0-.72-.04-1.4 0-2.12 0-.999.36-1.239 1.24-.719 1.399.8 2.798 1.52 4.278 2.12.88.36.88.36.8-.6-.24-2.52-.28-5.039 0-7.558.24-.96.679-1.12.999-.84.24.2.4.48.6.72 3.078 3.839 6.517 7.278 10.635 10.037 3.598 2.4 7.476 3.72 11.794 3.76 3.239.04 6.357-.64 9.356-1.8 2.799-1.08 5.597-2.2 8.516-2.84 2.958-.64 5.957-.92 8.916-.2 5.037 1.24 8.436 4.48 10.555 9.118.8 1.76 1.24 3.6 1.52 5.519.12.72.12.72.879.68 4.398-.32 8.636.36 12.474 2.639 4.598 2.759 7.157 6.918 8.156 12.077.72 3.799.52 7.558-.08 11.357-.48 2.959-1.28 5.878-2.239 8.717-.24.72-.4.68.48 1 4.478 1.52 7.277 4.6 8.076 9.238 1.12 6.358-2.958 11.997-8.876 13.396-1.08.24-2.199.4-3.318.28-.48-.08-.64.16-.76.6-.84 3.04-1.999 5.999-3.398 8.838-2.879 5.718-6.717 10.637-11.515 14.836-1.08.76-1.16 1.2-.92 1.8.56 1.56 1.04 3.159 1.56 4.718 3.238 10.078 6.517 20.115 9.715 30.193.24.72.56 1 1.28 1.12 3.158.68 5.157 2.639 5.997 5.758.16.68.28 1.4.4 2.08.76-.44 1.08-.88 1.56-1.28 1.358-1.12 2.878-1.36 4.517-.8 1.68.6 2.679 1.84 2.919 3.599.08.6.24.76.84.84 2.798.44 4.437 3.199 3.518 5.918-.24.68-.16 1.16.32 1.72 1.239 1.48 1.959 3.199 2.198 5.119.12.84 0 .84.92.84h16.512c0-1.68-.52-3-.8-4.44-1.878.12-3.158.44-4.397.84-.72.24-1.08.08-1.2-.32-.12-.36.16-.64.84-.84 1.16-.36 2.319-.68 3.478-1.04 1.16-.36.96-.08.96-1.359.04-.6-.2-.68-.52-.68H356.2c-1.04-.04-1.2-.24-1.2-.56.76-.6.96-.56 1.2-.56h5.677c.52 0 .72-.16.8-.68.2-1.359.24-1.359-1.12-1.759-1.12-.36-2.279-.68-3.398-1-.88-.36-1-.6-.92-.88.88-.4 1.12-.32 1.4-.24 1.36.4 2.678.8 4.038 1.24 1.839-2.839 3.398-4.838 5.517-6.358.4-.28.48-.6.48-1.04V236.69c.08-.56.48-.76.96-.48 3.958 3.679 7.436 6.918 10.875 10.117.92.88.64.88 1.679.12a21.562 21.562 0 0 1 24.988 0c.96.68.68.84 1.72-.12 3.518-3.24 6.996-6.438 10.515-9.677.32-.28.6-.76 1.119-.56.56.2.36.76.36 1.16v17.955c0 1.16 0 1.16 1.08.84.959-.28 1.878-.56 2.838-.84 1.36.56 1.28.84.92.96l-2.28.72-2.038.6c-.56.919-.56 1.519-.52 2.079 2.879.24 4.638.24 6.397.24 1 .12 1.2.32 1.16.6-.72.56-1 .56-1.24.56h-5.557c-.8 0-.84 0-.84.76 0 1.239-.08.959.96 1.279 1.079.36 2.198.64 3.318 1 .92.4 1.04.64.92.96-2.36-.12-3.439-.48-4.558-.8-.64 1.64-.64 2.799-.64 3.998 0 .44.12.68.6.64h17.272c.44 0 .88-.04 1.319.2v.76c-1 .24-1.28.24-1.6.24H181z" fill="#151D38"></path><path d="M227.38 263v-.08h44.573c1.046 0 1.046 0 1.046-1.035v-62.036c-.04-1.075-.643-1.712-1.728-1.831-.362-.04-.724 0-1.045 0H184.09c-1.487.04-2.09.677-2.09 2.11v61.916c0 .916 0 .916.965.916h.683c14.55.04 29.14.04 43.731.04z" fill="#CCD6DA"></path><path d="M256.226 196.81h14.533c1.514 0 2.668.883 2.947 2.247.08.36.08.682.08 1.043v16.567c0 .923.08.883.796.963 5.853.722 11.627.401 17.321-1.083 12.981-3.41 22.816-11.032 29.546-22.665 1.911-3.29 3.344-6.82 4.38-10.51.199-.722.199-.722-.478-.923l-1.075-.36c-.677-.281-.876-.522-.757-.923.12-.441.478-.482 1.195-.24 1.911.721 3.822.882 5.813.52 5.894-1.163 9.676-7.18 8.123-12.997-1.592-5.937-7.724-9.306-13.458-7.38-.28.08-.518.24-.797.28-.278.04-.478-.12-.597-.36-.12-.282-.04-.522.16-.683.159-.12.318-.2.517-.24.438-.161.836-.281 1.274-.402.08-.04.2-.08.239-.16.08-.2-.12-.16-.239-.2-.16-.08-.358-.121-.557-.201-2.987-1.043-5.854-2.367-8.482-4.132-4.778-3.129-8.481-7.22-10.87-12.476-1.115-2.487-1.872-5.094-2.31-7.822-.12-.802-.159-.802-.836-.441a5.99 5.99 0 0 0-.677.4c-3.544 2.087-7.167 3.852-10.99 5.296-8.242 3.089-16.684 4.332-25.404 2.768-6.053-1.083-11.707-3.25-16.644-7.06-.638-.482-.638-.482-1.155.04-4.46 4.292-8.004 9.226-10.552 14.842-3.942 8.785-5.137 17.931-3.663 27.439.995 6.458 3.304 12.435 6.729 17.97.398.683.836.964 1.672.964 4.699-.12 9.437-.08 14.216-.08z" fill="#FAE0D6"></path><path d="M274.046 241.011v21.716c0 .482.12.683.64.683 1.08-.04 2.16 0 3.279 0 4.039 0 8.078-.04 12.077-.04.84 0 .92.12.92.965v3.941c0 .644-.08.724.64.724h15.435c.52 0 .64-.201.68-.643.16-1.448.6-2.856 1.36-4.102.28-.443.32-.845.12-1.368-.84-2.493-1.64-5.026-2.44-7.52-1.959-6.112-3.958-12.225-5.918-18.337a3.969 3.969 0 0 1-.2-.644c-.08-.362.08-.643.44-.723.32-.08.56.08.68.361l.12.362 4.199 13.03c1.32 4.102 2.64 8.203 3.999 12.265.24.684.24.724.76.241 1.44-1.407 3.119-2.332 5.078-2.774.6-.161.64-.161.48-.765-.32-1.327-.68-2.694-.96-4.02-.92-4.022 1.52-8.164 5.479-9.21.24-.08.52-.08.76-.16.28-.041.4-.202.28-.483-.04-.161-.08-.322-.16-.443-3.12-9.732-6.279-19.504-9.398-29.235-.56-1.81-1.16-3.62-1.76-5.43-.12-.401-.32-.562-.64-.2-.12.12-.24.2-.4.281-2.638 1.97-5.478 3.7-8.477 5.067-5.839 2.694-11.997 4.223-18.435 4.464-2.72.12-5.439.08-8.118-.322-.44-.08-.6.08-.56.483v.764c.04 7.037.04 14.075.04 21.072z" fill="#FFF3A2"></path><path d="M401.629 268.92h17.513c.838 0 .838 0 .838-.85v-29.592c0-.162.08-.364-.08-.445-.24-.121-.319.121-.478.243-2.155 2.021-4.309 4.002-6.503 6.023-1.317 1.213-2.633 2.466-3.95 3.68-.558.525-.638.484-1.236.08-.2-.121-.36-.283-.52-.404-3.15-2.386-6.661-3.8-10.571-4.083-5.226-.405-9.974 1.05-14.162 4.285-.918.727-.918.727-1.756-.04a.552.552 0 0 0-.16-.122 2090.163 2090.163 0 0 0-9.534-8.975c-.24-.242-.479-.687-.798-.566-.24.122-.12.566-.12.89v10.47c0 .485-.04.89-.558 1.213-5.745 3.921-7.101 11.562-3.75 17.464.319.566.678.809 1.356.809 4.229-.04 8.498 0 12.726-.04.28 0 .679.12.798-.122.12-.242-.279-.444-.478-.647-2.075-2.263-2.713-4.891-1.836-7.802.878-2.91 2.913-4.649 5.785-5.336.599-.162 1.197-.243 1.795-.162.32.04.519.243.519.606 0 .283-.16.486-.479.526-.359.04-.678.08-1.037.121-2.753.364-5.106 2.466-5.665 5.175a6.704 6.704 0 0 0 2.992 7.115 3.714 3.714 0 0 0 1.995.566c5.904-.121 11.649-.08 17.354-.08z" fill="#C27659"></path><path d="M227.453 264.042c-8.157.036-16.314.036-24.472.036h-20.413c-.402 0-.603.142-.563.499v2.14c0 1.283 0 1.283 1.447 1.283 11.452 0 22.945 0 34.397-.036 17.882 0 35.724-.035 53.606-.035h.764c.562-.036.763-.214.763-.713.04-.928 0-1.819 0-2.746 0-.392-.2-.5-.603-.464h-.683c-4.26 0-8.479.036-12.738.036h-31.505zm99.508 4.918h17.559c.355.04.514-.082.474-.488-.198-1.707-.79-3.252-1.819-4.634-.158-.243-.316-.203-.395.082-.04.122-.08.244-.159.365-1.305 2.805-4.547 3.577-6.92 1.626-.435-.366-.712-.447-1.226-.203-1.463.61-2.847.406-4.152-.488-1.385-.975-2.017-2.357-1.899-4.105.04-.61 0-.65-.514-.487-1.226.325-2.372.203-3.48-.447-.277-.163-.514-.163-.83-.163-1.82 0-3.678-.04-5.497 0-4.192.081-7.79 3.048-8.858 7.234a7.954 7.954 0 0 0-.238 1.342c-.04.284.08.406.356.406h.752c5.655-.04 11.27-.04 16.846-.04z" fill="#CCD6DA"></path><path d="M320.007 258.287h2.188c.289 0 .454-.077.33-.386-.826-2.127-.95-4.408-1.445-6.612-.124-.502.083-.812.454-.889.372-.077.62.155.743.657.124.503.207 1.044.29 1.547.247 1.314.453 2.629.742 3.905.413 1.74 2.106 2.745 3.964 2.435 1.816-.348 2.972-1.894 2.683-3.634-.248-1.508-.496-2.977-.867-4.446-.784-3.286-4.293-5.374-7.802-4.756-3.344.58-5.78 3.867-5.202 7.076.29 1.546.784 3.054 1.156 4.6.083.349.289.503.702.503h2.064zm9.993 3.36c.082 1.124.45 2.007 1.348 2.649 1.88 1.364 4.413.682 5.23-1.485a301.196 301.196 0 0 0 2.248-6.46c.082-.24.122-.482.163-.763.123-1.564-.817-2.969-2.37-3.45-1.511-.442-3.187.2-3.922 1.605-.49.963-.9 2.006-1.063 3.09a6.408 6.408 0 0 1-.776 2.246c-.49.843-.776 1.726-.858 2.568z" fill="#FAE0D6"></path><path d="M281.838 268v-.036h7.472c.406-.036.69-.18.69-.577v-3.027c0-.252-.162-.36-.447-.36h-9.908c-1.665 0-3.33.036-4.955.036-.487 0-.69.144-.69.577.04.9 0 1.801 0 2.666 0 .685 0 .721.812.721h7.026z" fill="#CCD6DA"></path><path d="M343 260.398c0-1.79-1.151-3.074-2.9-3.347-.767-.116-.852-.077-1.108.584-.469 1.245-.895 2.49-1.364 3.697-.426 1.09-.64 2.295-1.492 3.23-.299.31-.043.505.17.7 1.791 1.362 4.52.778 5.458-1.245.426-.934.767-1.907 1.108-2.88.128-.311.128-.623.128-.74z" fill="#FAE0D6"></path><path d="M238.982 231.205c-.317 4.863-3.328 8.491-7.766 9.528-5.707 1.355-11.334-2.592-12.126-8.452-.674-4.943 2.496-9.967 7.648-11.163 1.11-.239 1.189-.199 1.347.917.674 3.788 3.21 6.578 6.895 7.415.872.2 1.744.24 2.655.16 1.189-.12 1.308 0 1.347 1.196.04.2 0 .399 0 .399z" fill="#151D38"></path><path d="M229.175 240c.607-.041 1.415-.123 2.223-.328 3.597-.983 6.427-4.424 6.588-8.111.04-.82.04-.82-.727-.82-4.81.082-9.013-3.195-10.104-7.947-.243-1.065-.364-.82-1.01-.614-4.164 1.392-6.75 5.735-6.023 10.2.687 4.342 4.527 7.66 9.053 7.62z" fill="#FFF"></path><path d="M272.814 160.365h13.172c2.018 0 4.035.08 6.053.121.949.04 1.186.365.751 1.175-2.967 5.632-7.318 9.562-13.528 10.9-6.25 1.336-11.749-.406-16.456-4.822-1.86-1.742-3.284-3.85-4.43-6.159-.12-.243-.238-.446-.317-.689-.158-.486 0-.729.514-.85.198-.041.396-.041.554-.041l11.67.122c.672 0 1.305.08 1.977.08.04.082.04.122.04.163z" fill="#151D38"></path><path d="M276.073 161.154h-3.574c-1.486 0-2.932 0-4.418-.077-2.53-.077-5.06-.077-7.59-.077-.562 0-.602.039-.32.502a18.183 18.183 0 0 0 3.855 4.824c4.417 3.86 9.557 5.442 15.42 4.322 5.381-1.042 9.317-4.052 12.208-8.452.522-.81.522-.849-.482-.849-5.02-.077-10.08-.154-15.1-.193z" fill="#FFF"></path><path d="M238 166.5c0-3.27 2.452-6.46 6.539-6.5 3.58-.039 6.461 2.92 6.461 6.5 0 3.62-2.88 6.5-6.5 6.5-3.58-.039-6.5-2.92-6.5-6.5zm76.99 1.02c.156 3.123-2.535 6.441-6.475 6.48-3.59 0-6.476-2.889-6.515-6.48 0-3.67 2.848-6.519 6.515-6.519 3.862-.078 6.67 3.24 6.475 6.52z" fill="#E5384A"></path><path d="M253.478 152c1.975 0 3.564 1.546 3.521 3.521.001 1.933-1.546 3.479-3.435 3.479-1.975 0-3.564-1.546-3.564-3.521 0-1.89 1.546-3.436 3.478-3.479zm45.044 1c1.975 0 3.478 1.546 3.478 3.564-.043 1.932-1.589 3.478-3.521 3.435-1.89 0-3.478-1.588-3.478-3.478a3.43 3.43 0 0 1 3.52-3.52zM335 171.06c-.04 4.067-4.209 6.933-8.177 5.616a1.449 1.449 0 0 1-.36-.155c-.402-.155-.562-.426-.402-.813.12-.349.481-.387.802-.31.2.039.44.155.641.194 2.766.736 5.652-.969 6.213-3.641.561-2.75-1.363-5.346-4.209-5.733-.24-.039-.52-.077-.761-.116-.28-.039-.441-.271-.441-.543 0-.348.2-.503.521-.542.2-.039.44 0 .681 0 3.167.349 5.532 2.944 5.491 6.043zm-59.002-19.375c0 .284-.223.447-.483.568a68.82 68.82 0 0 1-2.378 1.3c-.334.162-.408.324-.074.568.669.487 1.3 1.014 1.969 1.501.186.122.334.244.483.406.186.203.186.487.037.731s-.371.284-.631.203a.761.761 0 0 1-.372-.244c-1.003-.77-2.043-1.542-3.046-2.354-.706-.568-.669-.974.111-1.42 1.115-.65 2.266-1.259 3.418-1.868.557-.203 1.003 0 .966.609zM245 153.924c.114-2.898 2.01-5.3 4.703-5.837.304-.083.607-.125.91-.042.228.042.38.249.38.497.038.29-.076.538-.341.62a5.256 5.256 0 0 1-.797.166c-2.048.456-3.414 2.112-3.641 4.347-.038.249-.038.456-.038.704-.038.373-.19.621-.57.621-.378 0-.53-.29-.568-.662-.038-.125-.038-.249-.038-.414zm61-.021c0 .162 0 .447-.04.69-.077.285-.273.407-.547.407s-.47-.163-.509-.447c-.039-.203 0-.407-.039-.57-.117-2.397-1.643-4.226-3.913-4.673-.117-.04-.234-.04-.352-.081-.391-.082-.665-.285-.587-.732.079-.447.43-.528.783-.488 1.33.163 2.465.691 3.443 1.626 1.096 1.179 1.683 2.56 1.761 4.268zm88.66 112.088c-1.5-.043-2.514-.472-3.285-1.503-.324-.387-.446-.387-.77 0-1.42 1.675-3.488 1.976-5.15.816-.568-.387-1.015-.945-1.339-1.59-.162-.343-.203-.773.203-.988.405-.214.649 0 .851.387.122.258.284.515.487.773 1.338 1.504 3.69 1.031 4.42-.859.163-.43.203-.687-.324-.816-.73-.215-1.176-.816-1.663-1.375a1.489 1.489 0 0 1-.365-.816c-.121-.601.082-.988.69-.988 1.703-.043 3.447-.043 5.15 0 .568 0 .77.387.609.988-.244.988-.974 1.504-1.704 2.02-.243.17-.649.128-.73.429-.08.386.163.773.406 1.117 1.095 1.589 3.285 1.589 4.42 0 .122-.172.244-.43.365-.602.203-.3.487-.343.77-.215.285.172.366.473.244.774a4.074 4.074 0 0 1-1.095 1.546c-.73.601-1.54.945-2.19.902zm13.34-10.99c1.715 0 3 1.328 3 2.999 0 1.714-1.371 3.042-3.085 2.999-1.671-.043-2.957-1.371-2.914-3.085-.043-1.67 1.286-2.956 3-2.913zM372.979 261c-1.66 0-2.979-1.277-2.979-2.979 0-1.702 1.234-2.978 2.936-3.021 1.745 0 3.064 1.277 3.064 2.979-.043 1.702-1.32 3.021-3.021 3.021z" fill="#151D38"></path></g><path d="M338.385 283.781V298h-2.93v-14.219h2.93zm2.47 3.653h2.657l.088 1.22q1.132-1.416 3.037-1.416 1.68 0 2.5.987.82.986.84 2.949V298h-2.823v-6.758q0-.898-.39-1.304-.391-.405-1.3-.405-1.19 0-1.786 1.016V298h-2.823v-10.566zm15.655 8.486q.781 0 1.27-.43.488-.43.507-1.142h2.647q-.01 1.074-.586 1.967-.577.894-1.577 1.387-1.001.493-2.212.493-2.266 0-3.575-1.44-1.308-1.44-1.308-3.98v-.185q0-2.442 1.299-3.897 1.298-1.455 3.564-1.455 1.982 0 3.179 1.128 1.196 1.128 1.216 3.003h-2.647q-.02-.82-.508-1.333t-1.289-.513q-.986 0-1.489.718-.503.718-.503 2.33v.292q0 1.631.498 2.344.498.713 1.514.713zm5.595-3.174v-.127q0-1.572.606-2.803.605-1.23 1.743-1.904 1.138-.674 2.642-.674 2.138 0 3.49 1.309 1.353 1.308 1.51 3.555l.02.722q0 2.432-1.358 3.902-1.358 1.47-3.643 1.47-2.285 0-3.647-1.466-1.363-1.464-1.363-3.984zm2.823.078q0 1.504.566 2.3.567.796 1.621.796 1.026 0 1.602-.786.576-.786.576-2.515 0-1.474-.576-2.285-.576-.81-1.621-.81-1.035 0-1.602.805-.566.806-.566 2.495zm8.926-5.39h2.646l.088 1.181q1.123-1.377 3.037-1.377 2.041 0 2.803 1.612 1.113-1.612 3.174-1.612 1.718 0 2.558 1.001.84 1.001.84 3.013V298h-2.832v-6.738q0-.899-.352-1.314-.351-.415-1.24-.415-1.27 0-1.758 1.211l.01 7.256h-2.822v-6.729q0-.917-.361-1.328-.362-.41-1.23-.41-1.202 0-1.74.996V298h-2.821v-10.566zm20.292 0V298h-2.832v-10.566h2.832zm-2.998-2.735q0-.635.425-1.045.425-.41 1.157-.41.723 0 1.153.41.43.41.43 1.045 0 .645-.435 1.055-.435.41-1.148.41-.712 0-1.147-.41-.435-.41-.435-1.055zm5.264 2.735h2.656l.088 1.22q1.133-1.416 3.037-1.416 1.68 0 2.5.987.82.986.84 2.949V298h-2.822v-6.758q0-.898-.39-1.304-.391-.405-1.3-.405-1.19 0-1.787 1.016V298h-2.822v-10.566zm10.85 5.322v-.117q0-2.432 1.157-3.916 1.157-1.485 3.12-1.485 1.738 0 2.705 1.192l.117-.996h2.559v10.214q0 1.387-.63 2.413-.63 1.025-1.772 1.562-1.143.537-2.676.537-1.162 0-2.266-.464-1.103-.464-1.67-1.196l1.25-1.719q1.055 1.182 2.559 1.182 1.123 0 1.748-.6.625-.601.625-1.705v-.566q-.977 1.103-2.568 1.103-1.905 0-3.082-1.489-1.176-1.49-1.176-3.95zm2.822.088q0 1.435.576 2.25.576.816 1.582.816 1.29 0 1.846-.967V290.5q-.567-.967-1.826-.967-1.016 0-1.597.83t-.581 2.48zm-74.444 13.992h2.823v2.598h1.807v2.07h-1.807v5.273q0 .586.225.84.224.254.859.254.469 0 .83-.068v2.138q-.83.254-1.709.254-2.969 0-3.027-2.998v-5.693h-1.543v-2.07h1.543v-2.598zm12.178 2.53l-.039 2.714q-.576-.078-1.015-.078-1.602 0-2.1 1.084V320h-2.822v-10.566h2.666l.078 1.26q.85-1.456 2.353-1.456.47 0 .88.127zm10 10.634h-2.851q-.196-.38-.283-.947-1.026 1.142-2.666 1.142-1.553 0-2.574-.898-1.02-.899-1.02-2.266 0-1.68 1.245-2.578 1.245-.898 3.599-.908h1.298v-.606q0-.732-.376-1.171-.376-.44-1.186-.44-.713 0-1.118.342-.406.342-.406.937h-2.822q0-.918.567-1.699.566-.781 1.601-1.225 1.035-.445 2.324-.445 1.954 0 3.101.982 1.147.981 1.147 2.759v4.58q.01 1.504.42 2.275V320zm-5.185-1.963q.625 0 1.152-.278.528-.279.781-.747v-1.817h-1.054q-2.12 0-2.256 1.465l-.01.166q0 .528.371.87.371.341 1.016.341zM363.17 320h-2.832v-8.496h-1.572v-2.07h1.572v-.899q0-1.777 1.02-2.759 1.02-.981 2.857-.981.586 0 1.435.195l-.029 2.188q-.351-.088-.86-.088-1.591 0-1.591 1.494v.85h2.1v2.07h-2.1V320zm7.168 0h-2.832v-8.496h-1.572v-2.07h1.572v-.899q0-1.777 1.02-2.759 1.02-.981 2.857-.981.586 0 1.435.195l-.029 2.188q-.351-.088-.86-.088-1.591 0-1.591 1.494v.85h2.1v2.07h-2.1V320zm6.543-10.566V320h-2.832v-10.566h2.832zm-2.998-2.735q0-.635.425-1.045.424-.41 1.157-.41.722 0 1.152.41.43.41.43 1.045 0 .645-.435 1.055-.434.41-1.147.41-.713 0-1.148-.41-.434-.41-.434-1.055zm9.717 11.22q.78 0 1.27-.429.487-.43.507-1.142h2.646q-.01 1.074-.585 1.967-.577.894-1.578 1.387-1 .493-2.212.493-2.265 0-3.574-1.44-1.308-1.44-1.308-3.98v-.185q0-2.442 1.298-3.897 1.3-1.455 3.565-1.455 1.982 0 3.179 1.128 1.196 1.128 1.215 3.003h-2.646q-.02-.82-.508-1.333t-1.289-.513q-.986 0-1.49.718-.502.718-.502 2.33v.292q0 1.631.498 2.344.498.713 1.514.713z" fill="#7DA159" fill-rule="nonzero"></path><path d="M200 780c18.8 0 34 15.2 34 34s-15.2 34-34 34-34-15.2-34-34 15.2-34 34-34zm1.5 45.2l19.6-19.6-6.6-6.6-19.6 19.6-9.3-9.3-6.6 6.6 9.3 9.3 6.6 6.6 6.6-6.6zM427 780c18.8 0 34 15.2 34 34s-15.2 34-34 34-34-15.2-34-34 15.2-34 34-34zm1.5 45.2l19.6-19.6-6.6-6.6-19.6 19.6-9.3-9.3-6.6 6.6 9.3 9.3 6.6 6.6 6.6-6.6zM1025 476c18.8 0 34 15.2 34 34s-15.2 34-34 34-34-15.2-34-34 15.2-34 34-34zm1.5 45.2l19.6-19.6-6.6-6.6-19.6 19.6-9.3-9.3-6.6 6.6 9.3 9.3 6.6 6.6 6.6-6.6z" fill="#00C176" fill-rule="nonzero"></path><g transform="translate(1054 570)" fill-rule="nonzero"><circle fill="#FFF" cx="34" cy="34" r="26"></circle><path d="M49.219 43.067l-6.152 6.152L34 40.152l-9.067 9.067-6.152-6.152L27.848 34l-9.067-9.067 6.152-6.152L34 27.848l9.067-9.067 6.152 6.152L40.153 34l9.066 9.067zM58.07 9.93C51.594 3.562 43.067 0 34 0S16.299 3.562 9.93 9.93C3.562 16.406 0 24.933 0 34s3.562 17.7 9.93 24.07C16.406 64.439 24.933 68 34 68s17.594-3.561 24.07-9.93C64.44 51.594 68 43.067 68 34s-3.561-17.702-9.93-24.07z" fill="#FF003C"></path></g><path d="M624.907 489.523v42.122h22.084V540h-32.484v-50.477h10.4zm39.106 0V540h-10.4v-50.477h10.4zm16.918 0l11.37 37.962 11.441-37.962h11.58L697.744 540h-10.851l-17.508-50.477h11.545zm69.509 20.455v8.147h-19.97v13.52h23.436V540H720.07v-50.477h33.766v8.425H730.47v12.03h19.969zm50.615-20.455V540h-10.4l-20.246-33.212V540h-10.4v-50.477h10.4l20.28 33.282v-33.282h10.366zm39.452 20.455v8.147H820.54v13.52h23.435V540h-33.836v-50.477h33.767v8.425H820.54v12.03h19.968zm35.743 16.779q0-2.947-2.08-4.524-2.08-1.578-7.488-3.328-5.409-1.751-8.563-3.45-8.598-4.645-8.598-12.515 0-4.09 2.305-7.298 2.306-3.206 6.622-5.01 4.316-1.802 9.69-1.802 5.408 0 9.637 1.959 4.23 1.959 6.57 5.53 2.34 3.57 2.34 8.112h-10.4q0-3.467-2.184-5.391t-6.137-1.924q-3.813 0-5.928 1.612-2.115 1.612-2.115 4.247 0 2.461 2.48 4.125 2.478 1.664 7.297 3.12 8.875 2.67 12.93 6.622 4.057 3.952 4.057 9.846 0 6.552-4.957 10.279-4.958 3.726-13.348 3.726-5.824 0-10.608-2.132-4.784-2.132-7.298-5.841-2.513-3.71-2.513-8.598h10.435q0 8.355 9.984 8.355 3.71 0 5.79-1.508t2.08-4.212zm43.647 0q0-2.947-2.08-4.524-2.08-1.578-7.488-3.328-5.409-1.751-8.563-3.45-8.598-4.645-8.598-12.515 0-4.09 2.305-7.298 2.306-3.206 6.622-5.01 4.316-1.802 9.69-1.802 5.408 0 9.637 1.959 4.23 1.959 6.57 5.53 2.34 3.57 2.34 8.112h-10.4q0-3.467-2.184-5.391-2.185-1.924-6.137-1.924-3.813 0-5.928 1.612-2.115 1.612-2.115 4.247 0 2.461 2.48 4.125 2.478 1.664 7.297 3.12 8.875 2.67 12.93 6.622 4.057 3.952 4.057 9.846 0 6.552-4.957 10.279-4.958 3.726-13.348 3.726-5.824 0-10.608-2.132-4.784-2.132-7.298-5.841-2.513-3.71-2.513-8.598h10.435q0 8.355 9.984 8.355 3.71 0 5.79-1.508t2.08-4.212zm-294.67-112.029h-5.779V426h-6.592v-31.992h12.48q3.604 0 6.34 1.318 2.736 1.319 4.208 3.747 1.472 2.427 1.472 5.526 0 4.702-3.219 7.415-3.219 2.714-8.91 2.714zm-5.779-15.38v10.04h5.889q2.615 0 3.988-1.23 1.373-1.23 1.373-3.515 0-2.351-1.384-3.802-1.384-1.45-3.823-1.494h-6.043zm19.3 14.83v-.285q0-3.538 1.363-6.306 1.362-2.769 3.922-4.285t5.943-1.516q4.812 0 7.856 2.944 3.043 2.945 3.394 7.999l.044 1.625q0 5.472-3.054 8.779-3.054 3.306-8.196 3.306-5.141 0-8.206-3.295-3.066-3.296-3.066-8.965zm6.35.176q0 3.384 1.275 5.175 1.274 1.79 3.647 1.79 2.308 0 3.604-1.768 1.296-1.769 1.296-5.658 0-3.318-1.296-5.142-1.296-1.823-3.648-1.823-2.329 0-3.603 1.812-1.274 1.813-1.274 5.614zm17.653-.417q0-5.56 2.494-8.855 2.494-3.296 6.822-3.296 3.472 0 5.735 2.593V392.25h6.372V426h-5.735l-.307-2.527q-2.373 2.966-6.109 2.966-4.197 0-6.734-3.306-2.538-3.307-2.538-9.196zm6.35.461q0 3.34 1.164 5.12 1.165 1.78 3.384 1.78 2.945 0 4.153-2.483v-9.382q-1.186-2.483-4.109-2.483-4.592 0-4.592 7.448zm49.982 6.482V426h-21.929v-4.35l10.35-11.03q2.13-2.33 3.153-4.066 1.021-1.736 1.021-3.296 0-2.131-1.076-3.35-1.077-1.22-3.077-1.22-2.153 0-3.394 1.483-1.242 1.483-1.242 3.9h-6.372q0-2.922 1.395-5.34 1.396-2.416 3.945-3.79 2.548-1.373 5.778-1.373 4.944 0 7.68 2.373 2.735 2.373 2.735 6.702 0 2.373-1.23 4.834-1.23 2.461-4.219 5.735l-7.273 7.668h13.755zM610 440h502v4H610zm32.657 194l-9.464-18.478h-8.286V634h-10.4v-50.477h18.755q8.945 0 13.798 3.987 4.854 3.987 4.854 11.267 0 5.166-2.237 8.615-2.236 3.45-6.777 5.495l10.92 20.628V634h-11.163zm-17.75-42.052v15.15h8.39q3.917 0 6.067-1.994 2.15-1.993 2.15-5.495 0-3.57-2.029-5.616-2.028-2.045-6.223-2.045h-8.355zm65.28 12.03v8.147h-19.969v13.52h23.436V634h-33.836v-50.477h33.766v8.425h-23.366v12.03h19.969zM731.754 634l-3.502-10.4h-18.235L706.55 634h-11.059l18.79-50.477h9.638L742.813 634h-11.06zM719.1 596.281l-6.275 18.894h12.62l-6.345-18.894zM763.163 634h-15.635v-50.477h15.531q6.656 0 11.909 3 5.252 2.998 8.199 8.528 2.946 5.53 2.946 12.567v2.322q0 7.038-2.894 12.516-2.895 5.477-8.165 8.493T763.164 634zm-.104-42.052h-5.13v33.697h5.026q6.102 0 9.326-3.987t3.293-11.406v-2.669q0-7.696-3.19-11.666-3.189-3.97-9.325-3.97zm41.671-8.425V634h-10.4v-50.477h10.4zm50.685 0V634h-10.4l-20.247-33.212V634h-10.4v-50.477h10.4l20.28 33.282v-33.282h10.367zm39.452 20.455v8.147h-19.97v13.52h23.436V634h-33.835v-50.477h33.766v8.425h-23.366v12.03h19.969zm35.742 16.779q0-2.947-2.08-4.524-2.08-1.578-7.488-3.328-5.408-1.751-8.563-3.45-8.598-4.645-8.598-12.515 0-4.09 2.306-7.298 2.305-3.206 6.621-5.01 4.317-1.802 9.69-1.802 5.408 0 9.638 1.959 4.23 1.959 6.57 5.53 2.34 3.57 2.34 8.112h-10.401q0-3.467-2.184-5.391t-6.136-1.924q-3.814 0-5.928 1.612-2.115 1.612-2.115 4.247 0 2.461 2.479 4.125 2.478 1.664 7.297 3.12 8.875 2.67 12.931 6.622 4.056 3.952 4.056 9.845 0 6.553-4.957 10.28-4.958 3.726-13.347 3.726-5.824 0-10.609-2.132-4.784-2.132-7.297-5.841-2.514-3.71-2.514-8.598h10.435q0 8.355 9.985 8.355 3.71 0 5.79-1.508t2.08-4.212zm43.647 0q0-2.947-2.08-4.524-2.08-1.578-7.488-3.328-5.408-1.751-8.563-3.45-8.598-4.645-8.598-12.515 0-4.09 2.306-7.298 2.305-3.206 6.621-5.01 4.317-1.802 9.69-1.802 5.408 0 9.638 1.959 4.23 1.959 6.57 5.53 2.34 3.57 2.34 8.112H974.29q0-3.467-2.184-5.391t-6.136-1.924q-3.814 0-5.929 1.612-2.114 1.612-2.114 4.247 0 2.461 2.478 4.125 2.48 1.664 7.298 3.12 8.875 2.67 12.931 6.622 4.056 3.952 4.056 9.845 0 6.553-4.957 10.28-4.958 3.726-13.347 3.726-5.825 0-10.609-2.132t-7.297-5.841q-2.514-3.71-2.514-8.598h10.435q0 8.355 9.985 8.355 3.71 0 5.79-1.508t2.08-4.212z" fill="#000" fill-rule="nonzero"></path><path d="M817.5 159c9.4 0 17 7.6 17 17s-7.6 17-17 17-17-7.6-17-17 7.6-17 17-17zm.75 22.6l9.8-9.8-3.3-3.3-9.8 9.8-4.65-4.65-3.3 3.3 4.65 4.65 3.3 3.3 3.3-3.3zM849 206c9.4 0 17 7.6 17 17s-7.6 17-17 17-17-7.6-17-17 7.6-17 17-17zm.75 22.6l9.8-9.8-3.3-3.3-9.8 9.8-4.65-4.65-3.3 3.3 4.65 4.65 3.3 3.3 3.3-3.3z" fill="#00C176" fill-rule="nonzero"></path><path d="M617.349 166.617v20.764h10.886v4.119h-16.013v-24.883h5.127zm19.277 0V191.5h-5.127v-24.883h5.127zm8.34 0l5.605 18.714 5.64-18.714h5.708l-8.665 24.883h-5.349l-8.63-24.883h5.69zM679.23 176.7v4.016h-9.844v6.665h11.553v4.119h-16.68v-24.883h16.646v4.153h-11.519v5.93h9.844zm24.951-10.083V191.5h-5.127l-9.98-16.372V191.5h-5.127v-24.883h5.127l9.997 16.406v-16.406h5.11zM723.63 176.7v4.016h-9.843v6.665h11.552v4.119h-16.68v-24.883h16.646v4.153h-11.518v5.93h9.843zm17.62 8.272q0-1.453-1.025-2.23-1.026-.778-3.692-1.641-2.666-.863-4.221-1.7-4.238-2.29-4.238-6.17 0-2.017 1.136-3.597 1.137-1.581 3.264-2.47 2.128-.889 4.777-.889 2.666 0 4.751.966 2.085.966 3.238 2.726 1.154 1.76 1.154 3.999h-5.127q0-1.71-1.077-2.658-1.076-.948-3.024-.948-1.88 0-2.923.795-1.042.794-1.042 2.093 0 1.213 1.222 2.034 1.222.82 3.597 1.538 4.375 1.316 6.375 3.264 1.999 1.948 1.999 4.854 0 3.23-2.444 5.067-2.444 1.837-6.58 1.837-2.87 0-5.229-1.051-2.358-1.051-3.597-2.88-1.24-1.828-1.24-4.238h5.145q0 4.119 4.922 4.119 1.828 0 2.854-.744 1.025-.743 1.025-2.076zm21.516 0q0-1.453-1.025-2.23-1.026-.778-3.692-1.641-2.666-.863-4.22-1.7-4.24-2.29-4.24-6.17 0-2.017 1.137-3.597 1.137-1.581 3.264-2.47 2.128-.889 4.777-.889 2.666 0 4.751.966 2.085.966 3.239 2.726 1.153 1.76 1.153 3.999h-5.127q0-1.71-1.076-2.658-1.077-.948-3.025-.948-1.88 0-2.923.795-1.042.794-1.042 2.093 0 1.213 1.222 2.034 1.222.82 3.597 1.538 4.375 1.316 6.375 3.264 2 1.948 2 4.854 0 3.23-2.445 5.067-2.444 1.837-6.58 1.837-2.87 0-5.229-1.051-2.358-1.051-3.597-2.88-1.24-1.828-1.24-4.238h5.145q0 4.119 4.922 4.119 1.828 0 2.854-.744 1.025-.743 1.025-2.076zM617.444 128.49h-2.825V134h-3.223v-15.64h6.102q1.762 0 3.1.644 1.337.644 2.056 1.831.72 1.187.72 2.702 0 2.299-1.574 3.626-1.573 1.326-4.356 1.326zm-2.825-7.52v4.909h2.879q1.278 0 1.95-.602.671-.601.671-1.718 0-1.15-.677-1.859-.676-.709-1.869-.73h-2.954zm9.42 7.25v-.139q0-1.73.666-3.083.666-1.353 1.917-2.095 1.252-.74 2.906-.74 2.353 0 3.84 1.439 1.488 1.439 1.66 3.91l.022.795q0 2.674-1.494 4.291-1.493 1.617-4.006 1.617-2.514 0-4.013-1.611-1.498-1.612-1.498-4.383zm3.104.087q0 1.654.623 2.53.623.875 1.784.875 1.127 0 1.761-.865.634-.865.634-2.766 0-1.622-.634-2.514-.634-.891-1.783-.891-1.139 0-1.762.886t-.623 2.745zm8.614-.204q0-2.718 1.22-4.33 1.219-1.61 3.335-1.61 1.697 0 2.804 1.267v-5.93h3.115V134h-2.804l-.15-1.235q-1.16 1.45-2.987 1.45-2.051 0-3.292-1.617-1.24-1.617-1.24-4.495zm3.105.225q0 1.633.569 2.503.57.87 1.654.87 1.44 0 2.03-1.214V125.9q-.58-1.213-2.008-1.213-2.245 0-2.245 3.641zm21.224-9.99V134h-3.105v-11.967l-3.706 1.15v-2.525l6.478-2.32h.333zM610 141h251v2H610zm16.099 97.5l-4.666-9.109h-4.084v9.109h-5.127v-24.883h9.245q4.41 0 6.802 1.966 2.393 1.965 2.393 5.554 0 2.546-1.103 4.247-1.102 1.7-3.34 2.708l5.383 10.169v.239h-5.503zm-8.75-20.73v7.468h4.135q1.932 0 2.991-.982 1.06-.983 1.06-2.71 0-1.76-1-2.768-1-1.008-3.068-1.008h-4.118zm32.18 5.93v4.016h-9.844v6.665h11.553v4.119h-16.68v-24.883h16.646v4.153h-11.519v5.93h9.844zm20.49 14.8l-1.726-5.127h-8.989l-1.709 5.127h-5.451l9.262-24.883h4.751l9.314 24.883h-5.451zm-6.237-18.594l-3.094 9.314h6.221l-3.127-9.314zm21.72 18.594h-7.707v-24.883h7.657q3.28 0 5.87 1.478 2.59 1.479 4.042 4.205 1.452 2.725 1.452 6.195v1.145q0 3.469-1.427 6.17-1.427 2.7-4.024 4.186-2.598 1.487-5.862 1.504zm-.05-20.73h-2.53v16.611h2.478q3.008 0 4.598-1.965 1.589-1.965 1.623-5.623v-1.315q0-3.794-1.572-5.751-1.572-1.957-4.597-1.957zm20.542-4.153V238.5h-5.127v-24.883h5.127zm24.985 0V238.5h-5.127l-9.98-16.372V238.5h-5.127v-24.883h5.127l9.997 16.406v-16.406h5.11zm19.448 10.083v4.016h-9.844v6.665h11.553v4.119h-16.68v-24.883h16.646v4.153h-11.519v5.93h9.844zm17.62 8.272q0-1.453-1.026-2.23-1.025-.778-3.69-1.641-2.667-.863-4.222-1.7-4.238-2.29-4.238-6.17 0-2.017 1.136-3.597 1.137-1.581 3.264-2.47 2.128-.889 4.777-.889 2.666 0 4.75.966 2.086.966 3.24 2.726 1.153 1.76 1.153 3.999h-5.127q0-1.71-1.077-2.658-1.076-.948-3.025-.948-1.88 0-2.922.795-1.042.794-1.042 2.093 0 1.213 1.221 2.034 1.222.82 3.598 1.538 4.375 1.316 6.374 3.264 2 1.948 2 4.853 0 3.23-2.444 5.068-2.444 1.837-6.58 1.837-2.87 0-5.229-1.051-2.358-1.051-3.597-2.88-1.24-1.828-1.24-4.238h5.145q0 4.119 4.921 4.119 1.83 0 2.854-.744 1.026-.743 1.026-2.076zm21.516 0q0-1.453-1.025-2.23-1.026-.778-3.692-1.641-2.666-.863-4.221-1.7-4.238-2.29-4.238-6.17 0-2.017 1.136-3.597 1.137-1.581 3.264-2.47 2.128-.889 4.777-.889 2.666 0 4.75.966 2.086.966 3.24 2.726 1.153 1.76 1.153 3.999h-5.127q0-1.71-1.077-2.658-1.076-.948-3.024-.948-1.88 0-2.923.795-1.042.794-1.042 2.093 0 1.213 1.222 2.034 1.222.82 3.597 1.538 4.375 1.316 6.375 3.264 1.999 1.948 1.999 4.853 0 3.23-2.444 5.068-2.444 1.837-6.58 1.837-2.87 0-5.229-1.051-2.358-1.051-3.597-2.88-1.24-1.828-1.24-4.238h5.145q0 4.119 4.922 4.119 1.828 0 2.854-.744 1.025-.743 1.025-2.076z" fill="#000" fill-rule="nonzero"></path><path d="M329.768 573.99h-2.569V579h-2.93v-14.219h5.547q1.602 0 2.818.586t1.87 1.665q.654 1.08.654 2.456 0 2.09-1.43 3.296-1.431 1.206-3.96 1.206zm-2.569-6.836v4.463h2.617q1.163 0 1.773-.547.61-.547.61-1.562 0-1.045-.615-1.69-.615-.644-1.7-.664H327.2zm9.219 6.592v-.127q0-1.572.605-2.803.606-1.23 1.744-1.904 1.137-.674 2.641-.674 2.139 0 3.491 1.309 1.353 1.308 1.51 3.555l.019.722q0 2.432-1.358 3.902-1.357 1.47-3.642 1.47t-3.648-1.466q-1.362-1.464-1.362-3.984zm2.822.078q0 1.504.567 2.3.566.796 1.62.796 1.026 0 1.602-.786.576-.786.576-2.515 0-1.474-.576-2.285-.576-.81-1.62-.81-1.036 0-1.602.805-.567.806-.567 2.495zm8.487-.185q0-2.471 1.108-3.936 1.108-1.465 3.032-1.465 1.543 0 2.549 1.153V564h2.832v15h-2.549l-.137-1.123q-1.054 1.318-2.714 1.318-1.866 0-2.994-1.47-1.127-1.47-1.127-4.086zm2.822.205q0 1.484.517 2.275.518.791 1.504.791 1.309 0 1.846-1.103v-4.17q-.527-1.104-1.826-1.104-2.041 0-2.041 3.31zm23.496 2.88V579h-9.746v-1.934l4.6-4.902q.947-1.035 1.4-1.807.455-.771.455-1.464 0-.948-.479-1.49-.478-.542-1.367-.542-.957 0-1.509.66-.551.659-.551 1.733h-2.832q0-1.299.62-2.373.62-1.074 1.753-1.685 1.132-.61 2.568-.61 2.197 0 3.413 1.055 1.216 1.054 1.216 2.978 0 1.055-.547 2.149-.547 1.093-1.875 2.548l-3.232 3.409h6.113zm-268.277-2.734h-2.569V579h-2.93v-14.219h5.547q1.602 0 2.818.586t1.87 1.665q.654 1.08.654 2.456 0 2.09-1.43 3.296-1.431 1.206-3.96 1.206zm-2.569-6.836v4.463h2.617q1.163 0 1.773-.547.61-.547.61-1.562 0-1.045-.615-1.69-.615-.644-1.7-.664H103.2zm9.219 6.592v-.127q0-1.572.605-2.803.606-1.23 1.744-1.904 1.137-.674 2.641-.674 2.139 0 3.491 1.309 1.353 1.308 1.51 3.555l.019.722q0 2.432-1.358 3.902-1.357 1.47-3.642 1.47t-3.648-1.466q-1.362-1.464-1.362-3.984zm2.822.078q0 1.504.567 2.3.566.796 1.62.796 1.026 0 1.602-.786.576-.786.576-2.515 0-1.474-.576-2.285-.576-.81-1.62-.81-1.036 0-1.602.805-.567.806-.567 2.495zm8.487-.185q0-2.471 1.108-3.936 1.108-1.465 3.032-1.465 1.543 0 2.549 1.153V564h2.832v15h-2.549l-.137-1.123q-1.054 1.318-2.714 1.318-1.866 0-2.994-1.47-1.127-1.47-1.127-4.086zm2.822.205q0 1.484.517 2.275.518.791 1.504.791 1.309 0 1.846-1.103v-4.17q-.527-1.104-1.826-1.104-2.041 0-2.041 3.31zm20.605-9.082V579h-2.822v-10.879l-3.37 1.045v-2.295l5.89-2.11h.302z" fill="#4A4A4A" fill-rule="nonzero"></path></g></svg>