<svg viewBox="0 0 1200 900" xmlns="http://www.w3.org/2000/svg"><g fill="none" fill-rule="evenodd"><path d="M491.06 642.97c-54.993-29.455-95.907-83.682-111.412-148.52-.42-1.768-.719-3.571-1.1-5.35l49.787 3.15L366.302 367 289 483.427l53.355 3.379c.936 5.293 2.005 10.579 3.26 15.804 17.516 73.271 64.012 131.709 124.767 168.956 7.71 4.727 18.073-4.516 20.678-8.505 2.606-3.99 7.333-16.164 0-20.09zm364.806-212.676c-8.561 0-17.952 6.048-17.952 14.148 0 62.66-28.17 122.638-75.052 165.753l-22.709-44.66L664 682.56 803.436 690l-24.124-47.451c58.91-50.315 93.655-123.001 93.655-198.897 0-8.176-8.54-13.358-17.1-13.358zM786 266.322L721.71 142l-28.784 45.108c-48.065-16.661-99.31-19.235-149.323-7.245-34.963 8.395-90.005 39.958-95.261 43.844-5.256 3.886-7.509 17.92-2.674 25.348 4.835 7.426 14.467 8.158 22.573 3.59s52.83-31.269 83.516-38.632c40.671-9.76 82.285-8.435 121.677 3.656l-26.994 42.309L786 266.322z" fill="#E3E3E3" fill-rule="nonzero"></path><g fill="#419EDA" fill-rule="nonzero"><path d="M574.556 675.67c0 5.54-4.32 10.021-9.645 10.021-5.328 0-9.637-4.48-9.637-10.021 0-5.517 4.31-10.015 9.637-10.015 5.325 0 9.645 4.498 9.645 10.015zm12.46.002c0 5.54 4.321 10.021 9.646 10.021 5.323 0 9.64-4.48 9.64-10.021 0-5.519-4.317-10.017-9.64-10.017-5.325 0-9.646 4.498-9.646 10.017z"></path><path d="M652.766 686.85c-.694.06-1.392.088-2.133.088-4.3 0-8.473-1.047-12.237-2.967a122.139 122.139 0 0 0 1.647-22.492 115.84 115.84 0 0 0-14.01-17.25c2.285-4.45 5.661-8.279 9.876-10.993l1.81-1.163-1.41-1.652c-7.267-8.502-15.939-15.075-25.77-19.535l-1.963-.886-.497 2.153a29.169 29.169 0 0 1-6.988 13.18 109.635 109.635 0 0 0-20.19-8.645 109.729 109.729 0 0 0-20.158 8.626 29.162 29.162 0 0 1-6.963-13.149l-.5-2.153-1.954.883c-9.708 4.395-18.619 11.145-25.766 19.52l-1.415 1.657 1.808 1.162c4.202 2.705 7.57 6.51 9.85 10.936a116.328 116.328 0 0 0-13.985 17.184A122.228 122.228 0 0 0 523.424 684c-3.746 1.902-7.895 2.938-12.167 2.938-.75 0-1.451-.029-2.133-.088l-2.124-.168.199 2.204c1.04 11.148 4.372 21.751 9.908 31.518l1.08 1.906 1.622-1.43a27.301 27.301 0 0 1 13.132-6.392 117.827 117.827 0 0 0 11.24 19.021c6.83 2.483 13.948 4.336 21.298 5.438.705 5.051.144 10.275-1.774 15.106l-.809 2.046 2.08.476c5.325 1.217 10.698 1.837 15.958 1.837l15.954-1.837 2.082-.476-.811-2.05c-1.913-4.83-2.474-10.061-1.77-15.113 7.322-1.103 14.413-2.952 21.22-5.427a117.976 117.976 0 0 0 11.25-19.039 27.42 27.42 0 0 1 13.197 6.397l1.622 1.429 1.075-1.902c5.545-9.779 8.876-20.382 9.901-31.512l.2-2.2-2.088.168zm-49.032 26.94c-7.547 2.133-15.212 3.21-22.831 3.21-7.64 0-15.296-1.076-22.85-3.21a93.6 93.6 0 0 1-9.78-21.405c-2.347-7.511-3.722-15.38-4.12-23.483 4.878-6.267 10.426-11.757 16.555-16.379a87.172 87.172 0 0 1 20.195-11.408 87.526 87.526 0 0 1 20.155 11.385c6.153 4.646 11.725 10.178 16.627 16.485-.417 8.056-1.808 15.88-4.16 23.38a93.302 93.302 0 0 1-9.79 21.426z"></path></g><g fill="#419EDA" fill-rule="nonzero"><path d="M361.556 277.67c0 5.54-4.32 10.021-9.645 10.021-5.328 0-9.637-4.48-9.637-10.021 0-5.517 4.31-10.015 9.637-10.015 5.325 0 9.645 4.498 9.645 10.015zm12.46.002c0 5.54 4.321 10.021 9.646 10.021 5.323 0 9.64-4.48 9.64-10.021 0-5.519-4.317-10.017-9.64-10.017-5.325 0-9.646 4.498-9.646 10.017z"></path><path d="M439.766 288.85c-.694.06-1.392.088-2.133.088-4.3 0-8.473-1.047-12.237-2.967a122.139 122.139 0 0 0 1.647-22.492 115.84 115.84 0 0 0-14.01-17.25c2.285-4.45 5.661-8.279 9.876-10.993l1.81-1.163-1.41-1.652c-7.267-8.502-15.939-15.075-25.77-19.535l-1.963-.886-.497 2.153a29.169 29.169 0 0 1-6.988 13.18 109.635 109.635 0 0 0-20.19-8.645 109.729 109.729 0 0 0-20.158 8.626 29.162 29.162 0 0 1-6.963-13.149l-.5-2.153-1.954.883c-9.708 4.395-18.619 11.145-25.766 19.52l-1.415 1.657 1.808 1.162c4.202 2.705 7.57 6.51 9.85 10.936a116.328 116.328 0 0 0-13.985 17.184A122.228 122.228 0 0 0 310.424 286c-3.746 1.902-7.895 2.938-12.167 2.938-.75 0-1.451-.029-2.133-.088l-2.124-.168.199 2.204c1.04 11.148 4.372 21.751 9.908 31.518l1.08 1.906 1.622-1.43a27.301 27.301 0 0 1 13.132-6.392 117.827 117.827 0 0 0 11.24 19.021c6.83 2.483 13.948 4.336 21.298 5.438.705 5.051.144 10.275-1.774 15.106l-.809 2.046 2.08.476c5.325 1.217 10.698 1.837 15.958 1.837l15.954-1.837 2.082-.476-.811-2.05c-1.913-4.83-2.474-10.061-1.77-15.113 7.322-1.103 14.413-2.952 21.22-5.427a117.976 117.976 0 0 0 11.25-19.039 27.42 27.42 0 0 1 13.197 6.397l1.622 1.429 1.075-1.902c5.545-9.779 8.876-20.382 9.901-31.512l.2-2.2-2.088.168zm-49.032 26.94c-7.547 2.133-15.212 3.21-22.831 3.21-7.64 0-15.296-1.076-22.85-3.21a93.6 93.6 0 0 1-9.78-21.405c-2.347-7.511-3.722-15.38-4.12-23.483 4.878-6.267 10.426-11.757 16.555-16.379a87.172 87.172 0 0 1 20.195-11.408 87.526 87.526 0 0 1 20.155 11.385c6.153 4.646 11.725 10.178 16.627 16.485-.417 8.056-1.808 15.88-4.16 23.38a93.302 93.302 0 0 1-9.79 21.426z"></path></g><g fill="#419EDA" fill-rule="nonzero"><path d="M829.556 324.67c0 5.54-4.32 10.021-9.645 10.021-5.328 0-9.637-4.48-9.637-10.021 0-5.517 4.31-10.015 9.637-10.015 5.325 0 9.645 4.498 9.645 10.015zm12.46.002c0 5.54 4.321 10.021 9.646 10.021 5.323 0 9.64-4.48 9.64-10.021 0-5.519-4.317-10.017-9.64-10.017-5.325 0-9.646 4.498-9.646 10.017z"></path><path d="M907.766 335.85c-.694.06-1.392.088-2.133.088-4.3 0-8.473-1.047-12.237-2.967a122.139 122.139 0 0 0 1.647-22.492 115.84 115.84 0 0 0-14.01-17.25c2.285-4.45 5.661-8.279 9.876-10.993l1.81-1.163-1.41-1.652c-7.267-8.502-15.939-15.075-25.77-19.535l-1.963-.886-.497 2.153a29.169 29.169 0 0 1-6.988 13.18 109.635 109.635 0 0 0-20.19-8.645 109.729 109.729 0 0 0-20.158 8.626 29.162 29.162 0 0 1-6.963-13.149l-.5-2.153-1.954.883c-9.708 4.395-18.619 11.145-25.766 19.52l-1.415 1.657 1.808 1.162c4.202 2.705 7.57 6.51 9.85 10.936a116.328 116.328 0 0 0-13.985 17.184A122.228 122.228 0 0 0 778.424 333c-3.746 1.902-7.895 2.938-12.167 2.938-.75 0-1.451-.029-2.133-.088l-2.124-.168.199 2.204c1.04 11.148 4.372 21.751 9.908 31.518l1.08 1.906 1.622-1.43a27.301 27.301 0 0 1 13.132-6.392 117.827 117.827 0 0 0 11.24 19.021c6.83 2.483 13.948 4.336 21.298 5.438.705 5.051.144 10.275-1.774 15.106l-.809 2.046 2.08.476c5.325 1.217 10.698 1.837 15.958 1.837l15.954-1.837 2.082-.476-.811-2.05c-1.913-4.83-2.474-10.061-1.77-15.113 7.322-1.103 14.413-2.952 21.22-5.427a117.976 117.976 0 0 0 11.25-19.039 27.42 27.42 0 0 1 13.197 6.397l1.622 1.429 1.075-1.902c5.545-9.779 8.876-20.382 9.901-31.512l.2-2.2-2.088.168zm-49.032 26.94c-7.547 2.133-15.212 3.21-22.831 3.21-7.64 0-15.296-1.076-22.85-3.21a93.6 93.6 0 0 1-9.78-21.405c-2.347-7.511-3.722-15.38-4.12-23.483 4.878-6.267 10.426-11.757 16.555-16.379a87.172 87.172 0 0 1 20.195-11.408 87.526 87.526 0 0 1 20.155 11.385c6.153 4.646 11.725 10.178 16.627 16.485-.417 8.056-1.808 15.88-4.16 23.38a93.302 93.302 0 0 1-9.79 21.426z"></path></g><path d="M344.144 185.16v3.213h-7.875v5.332h9.242V197h-13.344v-19.906h13.317v3.322h-9.215v4.744h7.875zm19.031-8.066v3.322h-6.098V197h-4.101v-16.584h-6.016v-3.322h16.215zm13.48 13.275h4.102q-.232 3.213-2.372 5.059-2.14 1.845-5.64 1.845-3.828 0-6.022-2.577-2.194-2.577-2.194-7.075v-1.217q0-2.87 1.011-5.058 1.012-2.188 2.892-3.357t4.368-1.169q3.445 0 5.55 1.846 2.106 1.846 2.435 5.182h-4.102q-.15-1.928-1.073-2.796-.923-.868-2.81-.868-2.05 0-3.07 1.47-1.018 1.469-1.045 4.559v1.504q0 3.226.977 4.717.978 1.49 3.083 1.49 1.9 0 2.837-.868.937-.869 1.074-2.687zM389.618 197h-6.166v-19.906h6.125q2.625 0 4.696 1.182 2.071 1.183 3.233 3.364 1.162 2.18 1.162 4.956v.916q0 2.775-1.141 4.935-1.142 2.16-3.22 3.35-2.078 1.19-4.69 1.203zm-.041-16.584h-2.024v13.29h1.983q2.406 0 3.677-1.573 1.272-1.572 1.3-4.498v-1.053q0-3.035-1.259-4.6-1.258-1.566-3.677-1.566zm420.567 50.744v3.213h-7.875v5.332h9.242V243h-13.344v-19.906h13.317v3.322h-9.215v4.744h7.875zm19.031-8.066v3.322h-6.097V243h-4.102v-16.584h-6.016v-3.322h16.215zm13.48 13.275h4.102q-.232 3.213-2.372 5.059-2.14 1.845-5.64 1.845-3.828 0-6.022-2.577-2.194-2.577-2.194-7.075v-1.217q0-2.87 1.011-5.058 1.012-2.188 2.892-3.357t4.368-1.169q3.445 0 5.55 1.846 2.106 1.846 2.435 5.182h-4.102q-.15-1.928-1.073-2.796-.923-.868-2.81-.868-2.05 0-3.07 1.47-1.018 1.469-1.045 4.559v1.504q0 3.226.977 4.717.978 1.49 3.083 1.49 1.9 0 2.837-.868.937-.869 1.074-2.687zM855.618 243h-6.166v-19.906h6.125q2.625 0 4.696 1.182 2.071 1.183 3.233 3.364 1.162 2.18 1.162 4.956v.916q0 2.775-1.141 4.935-1.142 2.16-3.22 3.35-2.078 1.19-4.69 1.203zm-.041-16.584h-2.024v13.29h1.983q2.406 0 3.677-1.573 1.272-1.572 1.3-4.498v-1.053q0-3.035-1.259-4.6-1.258-1.566-3.677-1.566zM557.144 584.16v3.213h-7.875v5.332h9.242V596h-13.344v-19.906h13.317v3.322h-9.215v4.744h7.875zm19.031-8.066v3.322h-6.097V596h-4.102v-16.584h-6.016v-3.322h16.215zm13.48 13.275h4.102q-.232 3.213-2.372 5.059-2.14 1.845-5.64 1.845-3.828 0-6.022-2.577-2.194-2.577-2.194-7.075v-1.217q0-2.87 1.011-5.058 1.012-2.188 2.892-3.357t4.368-1.169q3.445 0 5.55 1.846 2.106 1.846 2.435 5.182h-4.102q-.15-1.928-1.073-2.796-.923-.868-2.81-.868-2.05 0-3.07 1.47-1.018 1.469-1.045 4.559v1.504q0 3.226.977 4.717.978 1.49 3.083 1.49 1.9 0 2.837-.868.937-.869 1.074-2.687zM602.618 596h-6.166v-19.906h6.125q2.625 0 4.696 1.182 2.071 1.183 3.233 3.364 1.162 2.18 1.162 4.956v.916q0 2.775-1.141 4.935-1.142 2.16-3.22 3.35-2.078 1.19-4.69 1.203zm-.041-16.584h-2.024v13.29h1.983q2.406 0 3.677-1.573 1.272-1.572 1.3-4.498v-1.053q0-3.035-1.259-4.6-1.258-1.566-3.677-1.566zM524.941 475l-13.063-25.505H500.44V475h-14.355v-69.672h25.887q12.346 0 19.045 5.503 6.7 5.503 6.7 15.552 0 7.13-3.087 11.89-3.086 4.762-9.355 7.585l15.073 28.472v.67H524.94zm-24.5-58.044v20.911h11.58q5.407 0 8.374-2.751 2.967-2.752 2.967-7.585 0-4.928-2.8-7.752-2.799-2.823-8.589-2.823h-11.532zM592.795 475l-4.833-14.355h-25.17L558.007 475h-15.265l25.936-69.672h13.302L608.06 475h-15.265zm-17.466-52.063l-8.661 26.08h17.418l-8.757-26.08zm81.156 12.011v11.58h-27.562V475h-14.356v-69.672h45.363v11.628h-31.007v17.992h27.562zm65.174-29.62v11.628h-21.342V475h-14.355v-58.044h-21.055v-11.628h56.752z" fill="#4A4A4A" fill-rule="nonzero"></path></g></svg>