<svg viewBox="0 0 1200 900" xmlns="http://www.w3.org/2000/svg"><g fill="none" fill-rule="evenodd"><path d="M596.87 23.327a58.347 58.347 0 0 0-22.3 5.67L270.265 175.106c-15.955 7.656-27.543 22.137-31.485 39.342l-75.073 328.196a57.834 57.834 0 0 0 7.9 44.466 57.999 57.999 0 0 0 3.309 4.615l210.626 263.16c11.045 13.793 27.79 21.825 45.496 21.821l337.773-.078c17.7.013 34.444-8.004 45.496-21.783l210.549-263.198a57.848 57.848 0 0 0 11.247-49.08l-75.19-328.197c-3.942-17.206-15.53-31.686-31.485-39.343L625.085 28.997a58.357 58.357 0 0 0-28.215-5.67z" opacity=".1" fill="#326CE5" fill-rule="nonzero" stroke="#FFF" stroke-width=".5"></path><path fill="#53777A" d="M371 552h220v228H371z"></path><path d="M397.089 653.37h4.101q-.232 3.212-2.372 5.058-2.14 1.845-5.64 1.845-3.828 0-6.022-2.577-2.194-2.577-2.194-7.075v-1.217q0-2.87 1.011-5.058 1.012-2.188 2.892-3.357t4.368-1.169q3.446 0 5.551 1.846 2.106 1.846 2.434 5.182h-4.102q-.15-1.928-1.073-2.796-.923-.868-2.81-.868-2.05 0-3.07 1.47-1.018 1.469-1.045 4.559v1.504q0 3.226.978 4.717.977 1.49 3.083 1.49 1.9 0 2.836-.868.937-.868 1.074-2.687zm23.146-3.76v.888q0 2.94-1.039 5.154-1.039 2.215-2.973 3.418-1.935 1.203-4.437 1.203-2.475 0-4.416-1.189-1.941-1.19-3.008-3.397-1.066-2.208-1.08-5.08v-.984q0-2.94 1.06-5.175t2.994-3.431q1.934-1.197 4.423-1.197 2.488 0 4.423 1.197 1.934 1.196 2.994 3.431 1.06 2.236 1.06 5.161zm-4.156.956v-.97q0-3.131-1.121-4.758-1.121-1.627-3.2-1.627-2.064 0-3.185 1.606-1.121 1.607-1.135 4.71v.971q0 3.049 1.121 4.73 1.122 1.682 3.227 1.682 2.064 0 3.172-1.62 1.107-1.62 1.121-4.724zm23.324-10.472V660h-4.101l-7.985-13.098V660h-4.101v-19.906h4.101l7.998 13.125v-13.125h4.088zm18.17 0v3.322h-6.098V660h-4.101v-16.584h-6.016v-3.322h16.215zM471.013 660l-3.733-7.287h-3.267V660h-4.103v-19.906h7.396q3.528 0 5.442 1.572 1.914 1.572 1.914 4.443 0 2.037-.882 3.398-.882 1.36-2.673 2.167l4.307 8.135V660h-4.402zm-7-16.584v5.975h3.308q1.545 0 2.393-.787.847-.786.847-2.166 0-1.409-.8-2.215-.8-.807-2.454-.807h-3.294zm30.119 6.193v.889q0 2.94-1.04 5.154-1.038 2.215-2.973 3.418-1.935 1.203-4.437 1.203-2.474 0-4.416-1.189-1.94-1.19-3.007-3.397-1.067-2.208-1.08-5.08v-.984q0-2.94 1.06-5.175 1.059-2.235 2.993-3.431 1.935-1.197 4.423-1.197t4.423 1.197q1.935 1.196 2.994 3.431 1.06 2.236 1.06 5.161zm-4.157.957v-.97q0-3.131-1.12-4.758-1.122-1.627-3.2-1.627-2.064 0-3.185 1.606-1.121 1.607-1.135 4.71v.971q0 3.049 1.12 4.73 1.122 1.682 3.227 1.682 2.065 0 3.172-1.62 1.108-1.62 1.121-4.724zm11.239-10.472v16.611h8.709V660h-12.81v-19.906h4.1zm15.162 0v16.611h8.709V660h-12.81v-19.906h4.1zm23.037 8.066v3.213h-7.875v5.332h9.242V660h-13.344v-19.906h13.317v3.322h-9.215v4.744h7.875zM554.288 660l-3.732-7.287h-3.268V660h-4.102v-19.906h7.397q3.527 0 5.441 1.572 1.914 1.572 1.914 4.443 0 2.037-.881 3.398-.882 1.36-2.673 2.167l4.306 8.135V660h-4.402zm-7-16.584v5.975h3.309q1.544 0 2.392-.787.848-.786.848-2.166 0-1.409-.8-2.215-.8-.807-2.454-.807h-3.295zm-136.842 27.678h5.36l5.113 14.437 5.086-14.437h5.387V691h-4.116v-5.441l.41-9.393L422.315 691h-2.817l-5.36-14.82.41 9.379V691h-4.1v-19.906zM447.84 691l-1.38-4.102h-7.192L437.899 691h-4.36l7.41-19.906h3.8L452.2 691h-4.36zm-4.99-14.875l-2.475 7.451h4.977l-2.502-7.451zm27.398-5.031V691h-4.101l-7.985-13.098V691h-4.102v-19.906h4.101l7.998 13.125v-13.125h4.088zM486.694 691l-1.38-4.102h-7.192L476.755 691h-4.361l7.41-19.906h3.8L491.057 691h-4.362zm-4.99-14.875l-2.474 7.451h4.976l-2.502-7.451zm26.674 4.416v7.943q-1.107 1.327-3.13 2.058-2.024.731-4.485.731-2.584 0-4.532-1.127-1.949-1.128-3.008-3.275-1.06-2.146-1.087-5.045v-1.353q0-2.98 1.005-5.161 1.005-2.181 2.898-3.336 1.894-1.156 4.437-1.156 3.54 0 5.537 1.689 1.996 1.688 2.365 4.915h-3.992q-.274-1.71-1.21-2.502-.937-.793-2.577-.793-2.092 0-3.186 1.572-1.094 1.572-1.107 4.676v1.271q0 3.131 1.19 4.73 1.189 1.6 3.486 1.6 2.31 0 3.294-.984v-3.431h-3.732v-3.022h7.834zm15.299-1.38v3.212h-7.875v5.332h9.242V691H511.7v-19.906h13.317v3.322h-9.215v4.744h7.875zM538.552 691l-3.733-7.287h-3.267V691h-4.102v-19.906h7.397q3.527 0 5.441 1.572 1.914 1.572 1.914 4.443 0 2.037-.882 3.398-.881 1.36-2.672 2.167l4.306 8.135V691h-4.402zm-7-16.584v5.975h3.308q1.545 0 2.393-.787.848-.786.848-2.166 0-1.409-.8-2.215-.8-.807-2.454-.807h-3.295z" fill="#FFF" fill-rule="nonzero"></path><path fill="#53777A" d="M614 552h220v228H614z"></path><path d="M648.983 654.777q0-1.162-.82-1.784-.821-.622-2.954-1.312-2.133-.69-3.377-1.36-3.39-1.833-3.39-4.936 0-1.614.909-2.878.909-1.265 2.611-1.976 1.702-.71 3.821-.71 2.133 0 3.801.772 1.668.772 2.591 2.18.923 1.409.923 3.2h-4.102q0-1.368-.861-2.126-.861-.76-2.42-.76-1.504 0-2.338.637-.834.635-.834 1.674 0 .971.978 1.627.977.657 2.878 1.23 3.5 1.054 5.1 2.612 1.599 1.559 1.599 3.883 0 2.584-1.955 4.054-1.955 1.47-5.264 1.47-2.297 0-4.183-.841-1.887-.841-2.878-2.304-.992-1.463-.992-3.39h4.116q0 3.294 3.937 3.294 1.463 0 2.283-.595.82-.594.82-1.66zm18.416-1.408h4.101q-.232 3.213-2.372 5.059-2.14 1.845-5.64 1.845-3.828 0-6.022-2.577-2.194-2.577-2.194-7.075v-1.217q0-2.87 1.011-5.058 1.012-2.188 2.892-3.357t4.368-1.169q3.445 0 5.55 1.846 2.106 1.846 2.435 5.182h-4.102q-.15-1.928-1.073-2.796-.923-.868-2.81-.868-2.05 0-3.07 1.47-1.018 1.469-1.045 4.559v1.504q0 3.226.977 4.717.978 1.49 3.083 1.49 1.9 0 2.837-.868.937-.868 1.074-2.687zm22.996-13.275V660h-4.102v-8.531h-7.998V660h-4.101v-19.906h4.101v8.066h7.998v-8.066h4.102zm15.558 8.066v3.213h-7.875v5.332h9.243V660h-13.344v-19.906h13.316v3.322h-9.215v4.744h7.875zm9.94 11.84h-6.166v-19.906h6.125q2.625 0 4.696 1.182 2.071 1.183 3.233 3.364 1.163 2.18 1.163 4.956v.916q0 2.775-1.142 4.935-1.142 2.16-3.22 3.35-2.078 1.19-4.69 1.203zm-.041-16.584h-2.024v13.29h1.983q2.406 0 3.677-1.573 1.272-1.572 1.3-4.498v-1.053q0-3.035-1.259-4.6-1.257-1.566-3.677-1.566zm23.023-3.322h4.115v13.111q0 3.268-2.044 5.168-2.043 1.9-5.584 1.9-3.487 0-5.538-1.845-2.05-1.846-2.091-5.073v-13.261h4.101v13.138q0 1.956.937 2.851.936.896 2.59.896 3.46 0 3.514-3.637v-13.248zm11.58 0v16.611h8.71V660h-12.811v-19.906h4.101zm23.037 8.066v3.213h-7.875v5.332h9.243V660h-13.344v-19.906h13.316v3.322h-9.215v4.744h7.875zM788.367 660l-3.732-7.287h-3.268V660h-4.101v-19.906h7.396q3.528 0 5.442 1.572 1.914 1.572 1.914 4.443 0 2.037-.882 3.398-.882 1.36-2.673 2.167l4.307 8.135V660h-4.403zm-7-16.584v5.975h3.309q1.545 0 2.393-.787.847-.786.847-2.167 0-1.408-.8-2.214-.8-.807-2.454-.807h-3.295z" fill="#FFF" fill-rule="nonzero"></path><g fill="#B8E986"><path d="M327 350l-65 36v-72z"></path><path d="M0 359v-20h308v20z"></path></g><path fill="#53777A" d="M334 236h220v228H334z"></path><path d="M373.596 327l-1.38-4.102h-7.192L363.657 327h-4.361l7.41-19.906h3.8L377.959 327h-4.362zm-4.99-14.875l-2.474 7.451h4.976l-2.502-7.451zm18.908 7.861h-3.595V327h-4.102v-19.906h7.766q2.242 0 3.944.82t2.618 2.331q.916 1.51.916 3.439 0 2.925-2.003 4.614-2.003 1.688-5.544 1.688zm-3.595-9.57v6.248h3.664q1.627 0 2.481-.766.855-.765.855-2.187 0-1.463-.862-2.365-.86-.903-2.378-.93h-3.76zm18.32-3.322V327h-4.101v-19.906h4.101zm21.096 14.683q0-1.162-.82-1.784-.82-.622-2.954-1.312-2.132-.69-3.377-1.36-3.39-1.833-3.39-4.936 0-1.614.909-2.878.91-1.265 2.611-1.976 1.702-.71 3.822-.71 2.132 0 3.8.772 1.668.772 2.591 2.18.923 1.409.923 3.2h-4.102q0-1.368-.86-2.126-.862-.76-2.42-.76-1.505 0-2.339.637-.834.635-.834 1.674 0 .971.978 1.627.977.657 2.878 1.23 3.5 1.054 5.1 2.612 1.599 1.559 1.599 3.883 0 2.584-1.955 4.054-1.955 1.47-5.264 1.47-2.297 0-4.183-.841-1.887-.841-2.878-2.304-.991-1.463-.991-3.39h4.115q0 3.294 3.937 3.294 1.463 0 2.283-.595.82-.594.82-1.66zm18.867-6.617v3.213h-7.875v5.332h9.242V327h-13.344v-19.906h13.317v3.322h-9.215v4.744h7.875zM457.077 327l-3.732-7.287h-3.268V327h-4.102v-19.906h7.397q3.527 0 5.441 1.572 1.914 1.572 1.914 4.443 0 2.037-.881 3.398-.882 1.36-2.673 2.167l4.306 8.135V327h-4.402zm-7-16.584v5.975h3.309q1.544 0 2.392-.787.848-.786.848-2.166 0-1.409-.8-2.215-.8-.807-2.454-.807h-3.295zm16.379-3.322l4.484 14.97 4.512-14.97h4.566L473.087 327h-4.28l-6.904-19.906h4.553zm27.412 8.066v3.213h-7.875v5.332h9.242V327h-13.344v-19.906h13.317v3.322h-9.215v4.744h7.875zM508.743 327l-3.732-7.287h-3.268V327h-4.102v-19.906h7.397q3.527 0 5.441 1.572 1.914 1.572 1.914 4.443 0 2.037-.881 3.398-.882 1.36-2.673 2.167l4.306 8.135V327h-4.402zm-7-16.584v5.975h3.309q1.544 0 2.392-.787.848-.786.848-2.166 0-1.409-.8-2.215-.8-.807-2.454-.807h-3.295z" fill="#FFF" fill-rule="nonzero"></path><path fill="#53777A" d="M762 230h421v234H762z"></path><path fill="#F1D4AF" d="M879 240h295v46H879z"></path><path d="M898.812 272h-6.607v-21.328h6.563q2.812 0 5.032 1.267 2.219 1.267 3.464 3.603 1.245 2.337 1.245 5.31v.982q0 2.974-1.223 5.288-1.223 2.315-3.45 3.589-2.226 1.274-5.024 1.289zm-.044-17.769H896.6v14.239h2.124q2.578 0 3.94-1.685 1.363-1.684 1.392-4.82v-1.127q0-3.252-1.348-4.93-1.347-1.677-3.94-1.677zm19.951 18.062q-3.486 0-5.676-2.139-2.19-2.138-2.19-5.698v-.41q0-2.388.923-4.27.922-1.882 2.614-2.9 1.692-1.019 3.86-1.019 3.252 0 5.12 2.051 1.868 2.051 1.868 5.816v1.728h-10.093q.205 1.553 1.238 2.49 1.032.938 2.614.938 2.447 0 3.824-1.773l2.08 2.33q-.953 1.347-2.579 2.102-1.625.754-3.603.754zm-.483-13.008q-1.26 0-2.044.85t-1.003 2.431h5.888v-.337q-.029-1.406-.761-2.175-.733-.769-2.08-.769zm23.671 4.717v.22q0 3.662-1.662 5.866-1.663 2.205-4.49 2.205-2.402 0-3.882-1.67v7.47h-4.233V256.15h3.926l.146 1.553q1.538-1.846 4.014-1.846 2.93 0 4.555 2.168 1.626 2.168 1.626 5.977zm-4.233-.088q0-2.212-.784-3.413-.783-1.201-2.277-1.201-1.993 0-2.74 1.523v6.49q.777 1.567 2.769 1.567 3.032 0 3.032-4.966zm11.323-14.414V272h-4.248v-22.5h4.248zm2.827 14.62v-.191q0-2.359.909-4.204.908-1.846 2.614-2.857 1.707-1.01 3.963-1.01 3.208 0 5.237 1.962 2.028 1.963 2.263 5.332l.03 1.084q0 3.648-2.037 5.852-2.036 2.205-5.464 2.205-3.428 0-5.471-2.197-2.044-2.198-2.044-5.977zm4.234.116q0 2.256.85 3.45.85 1.194 2.431 1.194 1.538 0 2.402-1.18.865-1.179.865-3.771 0-2.212-.865-3.428-.864-1.216-2.431-1.216-1.553 0-2.403 1.209-.85 1.208-.85 3.742zm16.142-8.086l2.945 9.859 2.93-9.859h4.54l-6.372 18.31-.351.836q-1.421 3.105-4.688 3.105-.923 0-1.875-.278v-3.208l.645.015q1.201 0 1.794-.367.594-.366.93-1.215l.499-1.304-5.552-15.894h4.555zm12.085 0h3.97l.132 1.773q1.685-2.066 4.556-2.066 3.061 0 4.204 2.417 1.67-2.417 4.76-2.417 2.579 0 3.838 1.502 1.26 1.501 1.26 4.519V272h-4.248v-10.107q0-1.348-.527-1.97-.528-.623-1.86-.623-1.905 0-2.637 1.816l.014 10.884h-4.233v-10.093q0-1.377-.542-1.992t-1.846-.615q-1.802 0-2.607 1.494V272h-4.234v-15.85zm33.267 16.143q-3.486 0-5.676-2.139-2.19-2.138-2.19-5.698v-.41q0-2.388.923-4.27.922-1.882 2.614-2.9 1.692-1.019 3.86-1.019 3.252 0 5.12 2.051 1.868 2.051 1.868 5.816v1.728h-10.093q.205 1.553 1.238 2.49 1.032.938 2.614.938 2.447 0 3.824-1.773l2.08 2.33q-.953 1.347-2.579 2.102-1.625.754-3.603.754zm-.483-13.008q-1.26 0-2.044.85t-1.003 2.431h5.888v-.337q-.029-1.406-.761-2.175-.733-.769-2.08-.769zm9.316-3.135h3.984l.132 1.831q1.7-2.124 4.556-2.124 2.52 0 3.75 1.48t1.26 4.424V272h-4.234v-10.137q0-1.347-.586-1.955-.586-.608-1.948-.608-1.787 0-2.68 1.523V272h-4.234v-15.85zm17.725-3.896h4.233v3.896h2.71v3.106h-2.71v7.91q0 .879.337 1.26.337.38 1.289.38.703 0 1.245-.102v3.208q-1.245.381-2.563.381-4.454 0-4.541-4.497v-8.54h-2.315v-3.106h2.315v-3.896zM1067.972 272l1.055-6.006h-2.828l-1.054 6.006h-2.68l1.054-6.006h-3.325v-2.52h3.764l.733-4.16h-3.399v-2.548h3.853l1.07-6.094h2.665l-1.07 6.094h2.843l1.069-6.094h2.68l-1.069 6.094h3.208v2.548h-3.662l-.732 4.16h3.281v2.52h-3.72l-1.055 6.006h-2.681zm-.615-12.686l-.718 4.16h2.827l.732-4.16h-2.841zm21.504-8.671V272h-4.234v-16.318l-5.054 1.567v-3.442l8.833-3.164h.455z" fill="#4A4A4A" fill-rule="nonzero"></path><path fill="#F1D4AF" d="M879 299h295v46H879z"></path><path d="M900.151 323.485H896.3V331h-4.395v-21.328h8.32q2.403 0 4.227.879 1.823.879 2.805 2.497.981 1.619.981 3.684 0 3.135-2.146 4.944-2.146 1.81-5.94 1.81zm-3.852-10.254v6.695h3.926q1.743 0 2.658-.82.916-.82.916-2.344 0-1.568-.923-2.534-.923-.967-2.549-.997H896.3zm13.828 9.888v-.19q0-2.359.908-4.204.908-1.846 2.615-2.857 1.706-1.01 3.962-1.01 3.208 0 5.237 1.962 2.029 1.963 2.263 5.332l.03 1.084q0 3.648-2.037 5.852-2.036 2.205-5.463 2.205-3.428 0-5.472-2.197-2.043-2.198-2.043-5.977zm4.233.117q0 2.256.85 3.45.85 1.194 2.432 1.194 1.538 0 2.402-1.18.864-1.179.864-3.771 0-2.212-.864-3.428-.864-1.216-2.432-1.216-1.552 0-2.402 1.209-.85 1.208-.85 3.742zm12.73-.278q0-3.706 1.662-5.903 1.663-2.198 4.549-2.198 2.314 0 3.823 1.729V308.5h4.248V331h-3.823l-.205-1.685q-1.582 1.978-4.073 1.978-2.797 0-4.49-2.205-1.691-2.204-1.691-6.13zm4.233.308q0 2.226.777 3.413.776 1.186 2.255 1.186 1.963 0 2.769-1.655v-6.255q-.791-1.655-2.74-1.655-3.06 0-3.06 4.966zm27.89 7.734l1.056-6.006h-2.828L956.387 331h-2.68l1.054-6.006h-3.325v-2.52h3.764l.733-4.16h-3.399v-2.548h3.853l1.07-6.094h2.665l-1.07 6.094h2.843l1.069-6.094h2.68l-1.069 6.094h3.208v2.548h-3.662l-.732 4.16h3.28v2.52h-3.72L961.895 331h-2.681zm-.614-12.686l-.718 4.16h2.827l.732-4.16h-2.84zm21.504-8.671V331h-4.234v-16.318l-5.054 1.567v-3.442l8.833-3.164h.455z" fill="#4A4A4A" fill-rule="nonzero"></path><path d="M1059.77 325.643q0-.747-.527-1.147t-1.898-.844q-1.372-.444-2.171-.875-2.18-1.177-2.18-3.173 0-1.037.584-1.85.585-.813 1.68-1.27 1.093-.457 2.456-.457 1.37 0 2.443.497 1.072.497 1.666 1.402.593.905.593 2.056h-2.637q0-.878-.554-1.366-.553-.488-1.555-.488-.967 0-1.503.409-.536.408-.536 1.076 0 .624.628 1.046.629.422 1.85.791 2.25.677 3.279 1.679 1.028 1.002 1.028 2.496 0 1.661-1.257 2.606-1.257.945-3.384.945-1.476 0-2.69-.54-1.212-.541-1.85-1.482-.637-.94-.637-2.18h2.646q0 2.119 2.531 2.119.94 0 1.468-.383.527-.382.527-1.067zm11.84-.906h2.636q-.15 2.066-1.525 3.252-1.375 1.187-3.625 1.187-2.461 0-3.872-1.657-1.41-1.657-1.41-4.548v-.783q0-1.845.65-3.251.65-1.407 1.859-2.158 1.208-.752 2.808-.752 2.215 0 3.568 1.187 1.354 1.186 1.564 3.33h-2.636q-.097-1.238-.69-1.796-.593-.559-1.806-.559-1.319 0-1.973.945-.655.945-.673 2.931v.967q0 2.074.629 3.032.628.958 1.982.958 1.221 0 1.823-.558.602-.558.69-1.727zm14.782-8.534V329h-2.636v-5.484h-5.142V329h-2.637v-12.797h2.637v5.186h5.142v-5.186h2.636zm10.002 5.186v2.065h-5.062v3.428h5.941V329h-8.578v-12.797h8.56v2.136h-5.923v3.05h5.062zm6.39 7.611h-3.964v-12.797h3.938q1.687 0 3.019.76 1.331.76 2.078 2.162.747 1.402.747 3.187v.588q0 1.785-.734 3.173-.733 1.389-2.07 2.154-1.335.764-3.014.773zm-.026-10.661h-1.301v8.543h1.274q1.547 0 2.365-1.01.817-1.012.834-2.893v-.676q0-1.951-.808-2.958-.809-1.006-2.364-1.006zm14.8-2.136h2.646v8.429q0 2.1-1.314 3.322t-3.59 1.222q-2.242 0-3.56-1.187-1.318-1.186-1.345-3.26v-8.526h2.637v8.446q0 1.257.602 1.833.602.576 1.666.576 2.223 0 2.258-2.338v-8.517zm7.445 0v10.679h5.598V329h-8.235v-12.797h2.637zm14.81 5.186v2.065h-5.063v3.428h5.941V329h-8.578v-12.797h8.56v2.136h-5.923v3.05h5.062zm6.389 7.611h-3.964v-12.797h3.938q1.687 0 3.019.76 1.331.76 2.078 2.162.747 1.402.747 3.187v.588q0 1.785-.734 3.173-.733 1.389-2.07 2.154-1.335.764-3.014.773zm-.026-10.661h-1.301v8.543h1.274q1.547 0 2.364-1.01.818-1.012.835-2.893v-.676q0-1.951-.808-2.958-.809-1.006-2.364-1.006z" fill="#08BF43" fill-rule="nonzero"></path><path fill="#F1D4AF" d="M879 354h295v46H879z"></path><path d="M900.47 378.485h-3.853V386h-4.395v-21.328h8.32q2.403 0 4.227.879 1.823.879 2.805 2.497.981 1.619.981 3.684 0 3.135-2.146 4.944-2.146 1.81-5.94 1.81zm-3.853-10.254v6.695h3.926q1.743 0 2.658-.82.916-.82.916-2.344 0-1.568-.923-2.534-.923-.967-2.549-.997h-4.028zm13.828 9.888v-.19q0-2.359.908-4.204.908-1.846 2.615-2.857 1.706-1.01 3.962-1.01 3.208 0 5.237 1.962 2.029 1.963 2.263 5.332l.03 1.084q0 3.648-2.037 5.852-2.036 2.205-5.463 2.205-3.428 0-5.472-2.197-2.043-2.198-2.043-5.977zm4.233.117q0 2.256.85 3.45.85 1.194 2.432 1.194 1.538 0 2.402-1.18.864-1.179.864-3.771 0-2.212-.864-3.428-.864-1.216-2.432-1.216-1.552 0-2.402 1.209-.85 1.208-.85 3.742zm12.73-.278q0-3.706 1.662-5.903 1.663-2.198 4.549-2.198 2.314 0 3.823 1.729V363.5h4.248V386h-3.823l-.205-1.685q-1.582 1.978-4.073 1.978-2.797 0-4.49-2.205-1.691-2.204-1.691-6.13zm4.233.308q0 2.226.777 3.413.776 1.186 2.255 1.186 1.963 0 2.769-1.655v-6.255q-.791-1.655-2.74-1.655-3.06 0-3.06 4.966zm27.89 7.734l1.056-6.006h-2.828L956.705 386h-2.68l1.054-6.006h-3.325v-2.52h3.764l.733-4.16h-3.399v-2.548h3.853l1.07-6.094h2.665l-1.07 6.094h2.843l1.069-6.094h2.68l-1.069 6.094h3.208v2.548h-3.662l-.732 4.16h3.28v2.52h-3.72L962.213 386h-2.681zm-.614-12.686l-.718 4.16h2.827l.732-4.16h-2.841zm25.84 9.273V386h-14.62v-2.9l6.9-7.354q1.42-1.553 2.102-2.71.681-1.157.681-2.197 0-1.421-.718-2.234t-2.05-.813q-1.436 0-2.264.989-.827.989-.827 2.6h-4.248q0-1.948.93-3.56.93-1.611 2.63-2.527 1.698-.915 3.852-.915 3.296 0 5.12 1.582 1.823 1.582 1.823 4.468 0 1.582-.82 3.222-.82 1.641-2.813 3.824l-4.848 5.112h9.17z" fill="#4A4A4A" fill-rule="nonzero"></path><path d="M1059.77 380.643q0-.747-.527-1.147t-1.898-.844q-1.372-.444-2.171-.875-2.18-1.177-2.18-3.173 0-1.037.584-1.85.585-.813 1.68-1.27 1.093-.457 2.456-.457 1.37 0 2.443.497 1.072.497 1.666 1.402.593.905.593 2.056h-2.637q0-.878-.554-1.366-.553-.488-1.555-.488-.967 0-1.503.409-.536.408-.536 1.076 0 .624.628 1.046.629.422 1.85.791 2.25.677 3.279 1.679 1.028 1.002 1.028 2.496 0 1.661-1.257 2.606-1.257.945-3.384.945-1.476 0-2.69-.54-1.212-.541-1.85-1.482-.637-.94-.637-2.18h2.646q0 2.119 2.531 2.119.94 0 1.468-.383.527-.382.527-1.067zm11.84-.906h2.636q-.15 2.066-1.525 3.252-1.375 1.187-3.625 1.187-2.461 0-3.872-1.657-1.41-1.657-1.41-4.548v-.783q0-1.845.65-3.251.65-1.407 1.859-2.158 1.208-.752 2.808-.752 2.215 0 3.568 1.187 1.354 1.186 1.564 3.33h-2.636q-.097-1.238-.69-1.796-.593-.559-1.806-.559-1.319 0-1.973.945-.655.945-.673 2.931v.967q0 2.074.629 3.032.628.958 1.982.958 1.221 0 1.823-.558.602-.558.69-1.727zm14.782-8.534V384h-2.636v-5.484h-5.142V384h-2.637v-12.797h2.637v5.186h5.142v-5.186h2.636zm10.002 5.186v2.065h-5.062v3.428h5.941V384h-8.578v-12.797h8.56v2.136h-5.923v3.05h5.062zm6.39 7.611h-3.964v-12.797h3.938q1.687 0 3.019.76 1.331.76 2.078 2.162.747 1.402.747 3.187v.588q0 1.785-.734 3.173-.733 1.389-2.07 2.154-1.335.764-3.014.773zm-.026-10.661h-1.301v8.543h1.274q1.547 0 2.365-1.01.817-1.012.834-2.893v-.676q0-1.951-.808-2.958-.809-1.006-2.364-1.006zm14.8-2.136h2.646v8.429q0 2.1-1.314 3.322t-3.59 1.222q-2.242 0-3.56-1.187-1.318-1.186-1.345-3.26v-8.526h2.637v8.446q0 1.257.602 1.833.602.576 1.666.576 2.223 0 2.258-2.338v-8.517zm7.445 0v10.679h5.598V384h-8.235v-12.797h2.637zm14.81 5.186v2.065h-5.063v3.428h5.941V384h-8.578v-12.797h8.56v2.136h-5.923v3.05h5.062zm6.389 7.611h-3.964v-12.797h3.938q1.687 0 3.019.76 1.331.76 2.078 2.162.747 1.402.747 3.187v.588q0 1.785-.734 3.173-.733 1.389-2.07 2.154-1.335.764-3.014.773zm-.026-10.661h-1.301v8.543h1.274q1.547 0 2.364-1.01.818-1.012.835-2.893v-.676q0-1.951-.808-2.958-.809-1.006-2.364-1.006z" fill="#08BF43" fill-rule="nonzero"></path><path fill="#F1D4AF" d="M879 408h295v46H879z"></path><path d="M900.47 432.485h-3.853V440h-4.395v-21.328h8.32q2.403 0 4.227.879 1.823.879 2.805 2.497.981 1.619.981 3.684 0 3.135-2.146 4.944-2.146 1.81-5.94 1.81zm-3.853-10.254v6.695h3.926q1.743 0 2.658-.82.916-.82.916-2.344 0-1.568-.923-2.534-.923-.967-2.549-.997h-4.028zm13.828 9.888v-.19q0-2.359.908-4.204.908-1.846 2.615-2.857 1.706-1.01 3.962-1.01 3.208 0 5.237 1.962 2.029 1.963 2.263 5.332l.03 1.084q0 3.648-2.037 5.852-2.036 2.205-5.463 2.205-3.428 0-5.472-2.197-2.043-2.198-2.043-5.977zm4.233.117q0 2.256.85 3.45.85 1.194 2.432 1.194 1.538 0 2.402-1.18.864-1.179.864-3.771 0-2.212-.864-3.428-.864-1.216-2.432-1.216-1.552 0-2.402 1.209-.85 1.208-.85 3.742zm12.73-.278q0-3.706 1.662-5.903 1.663-2.198 4.549-2.198 2.314 0 3.823 1.729V417.5h4.248V440h-3.823l-.205-1.685q-1.582 1.978-4.073 1.978-2.797 0-4.49-2.205-1.691-2.204-1.691-6.13zm4.233.308q0 2.226.777 3.413.776 1.186 2.255 1.186 1.963 0 2.769-1.655v-6.255q-.791-1.655-2.74-1.655-3.06 0-3.06 4.966zm27.89 7.734l1.056-6.006h-2.828L956.705 440h-2.68l1.054-6.006h-3.325v-2.52h3.764l.733-4.16h-3.399v-2.548h3.853l1.07-6.094h2.665l-1.07 6.094h2.843l1.069-6.094h2.68l-1.069 6.094h3.208v2.548h-3.662l-.732 4.16h3.28v2.52h-3.72L962.213 440h-2.681zm-.614-12.686l-.718 4.16h2.827l.732-4.16h-2.841zm15.527 3.457v-3.31h2.256q1.611 0 2.388-.806.776-.805.776-2.138 0-1.29-.77-2.007-.768-.718-2.116-.718-1.216 0-2.036.666-.82.667-.82 1.736h-4.234q0-1.67.901-2.995.901-1.326 2.52-2.073 1.618-.747 3.567-.747 3.383 0 5.302 1.619 1.92 1.618 1.92 4.46 0 1.465-.894 2.695-.894 1.23-2.344 1.89 1.802.644 2.688 1.934.886 1.289.886 3.046 0 2.842-2.073 4.556-2.072 1.714-5.485 1.714-3.194 0-5.223-1.685-2.028-1.684-2.028-4.453h4.233q0 1.201.9 1.963.902.762 2.22.762 1.509 0 2.366-.798.857-.799.857-2.117 0-3.194-3.516-3.194h-2.241z" fill="#4A4A4A" fill-rule="nonzero"></path><path d="M1058.77 433.643q0-.747-.527-1.147t-1.898-.844q-1.372-.444-2.171-.875-2.18-1.177-2.18-3.173 0-1.037.584-1.85.585-.813 1.68-1.27 1.093-.457 2.456-.457 1.37 0 2.443.497 1.072.497 1.666 1.402.593.905.593 2.056h-2.637q0-.878-.554-1.366-.553-.488-1.555-.488-.967 0-1.503.409-.536.408-.536 1.076 0 .624.628 1.046.629.422 1.85.791 2.25.677 3.279 1.679 1.028 1.002 1.028 2.496 0 1.661-1.257 2.606-1.257.945-3.384.945-1.476 0-2.69-.54-1.212-.541-1.85-1.482-.637-.94-.637-2.18h2.646q0 2.119 2.531 2.119.94 0 1.468-.383.527-.382.527-1.067zm11.84-.906h2.636q-.15 2.066-1.525 3.252-1.375 1.187-3.625 1.187-2.461 0-3.872-1.657-1.41-1.657-1.41-4.548v-.783q0-1.845.65-3.251.65-1.407 1.859-2.158 1.208-.752 2.808-.752 2.215 0 3.568 1.187 1.354 1.186 1.564 3.33h-2.636q-.097-1.238-.69-1.796-.593-.559-1.806-.559-1.319 0-1.973.945-.655.945-.673 2.931v.967q0 2.074.629 3.032.628.958 1.982.958 1.221 0 1.823-.558.602-.558.69-1.727zm14.782-8.534V437h-2.636v-5.484h-5.142V437h-2.637v-12.797h2.637v5.186h5.142v-5.186h2.636zm10.002 5.186v2.065h-5.062v3.428h5.941V437h-8.578v-12.797h8.56v2.136h-5.923v3.05h5.062zm6.39 7.611h-3.964v-12.797h3.938q1.687 0 3.019.76 1.331.76 2.078 2.162.747 1.402.747 3.187v.588q0 1.785-.734 3.173-.733 1.389-2.07 2.154-1.335.764-3.014.773zm-.026-10.661h-1.301v8.543h1.274q1.547 0 2.365-1.01.817-1.012.834-2.893v-.676q0-1.951-.808-2.958-.809-1.006-2.364-1.006zm14.8-2.136h2.646v8.429q0 2.1-1.314 3.322t-3.59 1.222q-2.242 0-3.56-1.187-1.318-1.186-1.345-3.26v-8.526h2.637v8.446q0 1.257.602 1.833.602.576 1.666.576 2.223 0 2.258-2.338v-8.517zm7.445 0v10.679h5.598V437h-8.235v-12.797h2.637zm14.81 5.186v2.065h-5.063v3.428h5.941V437h-8.578v-12.797h8.56v2.136h-5.923v3.05h5.062zm6.389 7.611h-3.964v-12.797h3.938q1.687 0 3.019.76 1.331.76 2.078 2.162.747 1.402.747 3.187v.588q0 1.785-.734 3.173-.733 1.389-2.07 2.154-1.335.764-3.014.773zm-.026-10.661h-1.301v8.543h1.274q1.547 0 2.364-1.01.818-1.012.835-2.893v-.676q0-1.951-.808-2.958-.809-1.006-2.364-1.006z" fill="#08BF43" fill-rule="nonzero"></path><g transform="translate(661 240)"><ellipse stroke="#53777A" stroke-width="21" fill="#FFF" cx="102.5" cy="106.5" rx="102.5" ry="106.5"></ellipse><g fill="#419EDA" fill-rule="nonzero"><path d="M95.991 97.964c0 5.54-4.32 10.021-9.645 10.021-5.328 0-9.637-4.48-9.637-10.021 0-5.517 4.31-10.015 9.637-10.015 5.325 0 9.645 4.498 9.645 10.015zm12.46.002c0 5.54 4.321 10.021 9.646 10.021 5.323 0 9.64-4.48 9.64-10.021 0-5.519-4.317-10.017-9.64-10.017-5.325 0-9.646 4.498-9.646 10.017z"></path><path d="M174.201 109.144c-.694.06-1.392.088-2.133.088-4.3 0-8.473-1.047-12.237-2.967a122.139 122.139 0 0 0 1.647-22.492 115.84 115.84 0 0 0-14.01-17.25c2.285-4.45 5.661-8.279 9.876-10.993l1.81-1.163-1.41-1.652c-7.267-8.502-15.939-15.075-25.77-19.535l-1.963-.886-.497 2.153a29.169 29.169 0 0 1-6.988 13.18 109.635 109.635 0 0 0-20.19-8.645 109.729 109.729 0 0 0-20.158 8.626 29.162 29.162 0 0 1-6.963-13.149l-.5-2.153-1.954.883c-9.708 4.395-18.619 11.145-25.766 19.52l-1.415 1.657 1.808 1.162c4.202 2.705 7.57 6.51 9.85 10.936a116.328 116.328 0 0 0-13.985 17.184 122.228 122.228 0 0 0 1.606 22.646c-3.746 1.902-7.895 2.938-12.167 2.938-.75 0-1.451-.029-2.133-.088l-2.124-.168.199 2.204c1.04 11.148 4.372 21.751 9.908 31.518l1.08 1.906 1.622-1.43a27.301 27.301 0 0 1 13.132-6.392 117.827 117.827 0 0 0 11.24 19.021c6.83 2.483 13.948 4.336 21.298 5.438.705 5.051.144 10.275-1.774 15.106l-.809 2.046 2.08.476c5.325 1.217 10.698 1.837 15.958 1.837l15.954-1.837 2.082-.476-.811-2.05c-1.913-4.83-2.474-10.061-1.77-15.113 7.322-1.103 14.413-2.952 21.22-5.427a117.976 117.976 0 0 0 11.25-19.039 27.42 27.42 0 0 1 13.197 6.397l1.622 1.429 1.075-1.902c5.545-9.779 8.876-20.382 9.901-31.512l.2-2.2-2.088.168zm-49.032 26.94c-7.547 2.133-15.212 3.21-22.831 3.21-7.64 0-15.296-1.076-22.85-3.21a93.6 93.6 0 0 1-9.78-21.405c-2.347-7.511-3.722-15.38-4.12-23.483 4.878-6.267 10.426-11.757 16.555-16.379a87.172 87.172 0 0 1 20.195-11.408 87.526 87.526 0 0 1 20.155 11.385c6.153 4.646 11.725 10.178 16.627 16.485-.417 8.056-1.808 15.88-4.16 23.38a93.302 93.302 0 0 1-9.79 21.426z"></path></g></g><g transform="translate(554 343)" fill-rule="nonzero"><path fill="#9EEBCF" d="M0 6h96v3H0z"></path><circle stroke="#9EEBCF" stroke-width="3" fill="#FFF" cx=".5" cy="7.5" r="6.5"></circle><path fill="#9EEBCF" d="M98 7.5L90 13V2z"></path></g><g transform="translate(554 415)"><path d="M.011 1.045h84.55c5.522 0 10 4.477 10 10v125.97" stroke="#9EEBCF" stroke-width="3"></path><circle stroke="#9EEBCF" stroke-width="3" fill="#FFF" cx=".5" cy=".5" r="6"></circle><path fill="#9EEBCF" d="M94.5 140l-5.5-8h11z"></path></g><g transform="translate(493 464)" fill-rule="nonzero"><path fill="#9EEBCF" d="M7-1v89H4V-1z"></path><circle stroke="#9EEBCF" stroke-width="3" fill="#FFF" cx="5.5" cy="-1.5" r="6.5"></circle><path fill="#9EEBCF" d="M5.5 92L0 84h11z"></path></g></g></svg>