<svg viewBox="0 0 1200 900" xmlns="http://www.w3.org/2000/svg"><g fill="none" fill-rule="evenodd"><path d="M411 553.616c0 1.317-.773 2.384-1.728 2.384H165.728c-.955 0-1.728-1.067-1.728-2.384V350a5 5 0 0 1 5-5h237a5 5 0 0 1 5 5v203.616z" fill="#FF003C"/><path d="M169 345h237a5 5 0 0 1 5 5v18H164v-18a5 5 0 0 1 5-5z" fill="#CCC"/><path d="M181 357.5a4.5 4.5 0 1 1-9 0 4.5 4.5 0 0 1 9 0" fill="#E74C3C"/><path d="M197 357.5a4.5 4.5 0 1 1-9 0 4.5 4.5 0 0 1 9 0" fill="#F1C40F"/><path d="M212 357.5a4.5 4.5 0 1 1-9 0 4.5 4.5 0 0 1 9 0" fill="#2ECC71"/><text font-family="sans-serif" font-size="18" font-weight="bold" fill="#000"><tspan x="169.056" y="323">Is the application available?</tspan></text><text font-family="sans-serif" font-size="18" font-weight="bold" fill="#000"><tspan x="482.056" y="323">Is the application available?</tspan></text><text font-family="sans-serif" font-size="18" font-weight="bold" fill="#000"><tspan x="795.056" y="323">Is the application available?</tspan></text><path d="M724 553.616c0 1.317-.773 2.384-1.728 2.384H478.728c-.955 0-1.728-1.067-1.728-2.384V350a5 5 0 0 1 5-5h237a5 5 0 0 1 5 5v203.616z" fill="#FF003C"/><path d="M482 345h237a5 5 0 0 1 5 5v18H477v-18a5 5 0 0 1 5-5z" fill="#CCC"/><path d="M494 357.5a4.5 4.5 0 1 1-9 0 4.5 4.5 0 0 1 9 0" fill="#E74C3C"/><path d="M510 357.5a4.5 4.5 0 1 1-9 0 4.5 4.5 0 0 1 9 0" fill="#F1C40F"/><path d="M525 357.5a4.5 4.5 0 1 1-9 0 4.5 4.5 0 0 1 9 0" fill="#2ECC71"/><g><path d="M1037 553.616c0 1.317-.773 2.384-1.728 2.384H791.728c-.955 0-1.728-1.067-1.728-2.384V350a5 5 0 0 1 5-5h237a5 5 0 0 1 5 5v203.616z" fill="#FF003C"/><path d="M795 345h237a5 5 0 0 1 5 5v18H790v-18a5 5 0 0 1 5-5z" fill="#CCC"/><path d="M807 357.5a4.5 4.5 0 1 1-9 0 4.5 4.5 0 0 1 9 0" fill="#E74C3C"/><path d="M823 357.5a4.5 4.5 0 1 1-9 0 4.5 4.5 0 0 1 9 0" fill="#F1C40F"/><path d="M838 357.5a4.5 4.5 0 1 1-9 0 4.5 4.5 0 0 1 9 0" fill="#2ECC71"/></g></g></svg>