<svg viewBox="0 0 1200 900" xmlns="http://www.w3.org/2000/svg"><g fill="none" fill-rule="evenodd"><g fill-rule="nonzero" transform="translate(73 36)"><rect fill="#FCF6E5" width="1055" height="828" rx="15"></rect><ellipse fill="#F92672" cx="36.017" cy="34.5" rx="10.505" ry="10.5"></ellipse><ellipse fill="#F4BF75" cx="66.031" cy="34.5" rx="10.505" ry="10.5"></ellipse><ellipse fill="#A6E22E" cx="96.046" cy="34.5" rx="10.505" ry="10.5"></ellipse></g><path fill="#FFF" fill-rule="nonzero" d="M98 569h1004v145H98z"></path><g class="sans-serif" fill-rule="nonzero"><path d="M134.054 145.98l2.764-.018q0 2.855-1.69 4.815-1.689 1.96-4.164 1.96-1.3 0-2.457-.478-1.156-.48-2.683-1.816-1.526-1.337-2.195-1.662-.668-.325-1.427-.325-1.409 0-2.168.966-.759.967-.759 2.665l-2.908.036q0-2.89 1.662-4.751 1.662-1.861 4.173-1.861 1.373 0 2.638.578 1.264.578 2.854 2.032 1.59 1.455 2.746 1.635l.524.036q1.373 0 2.232-1.047.858-1.048.858-2.765z" fill="#D0021B"></path><path d="M151.699 153.225q0-1.662-1.165-2.8-1.166-1.138-3.93-2.06-3.848-1.174-5.61-3.062-1.761-1.888-1.761-4.797 0-2.963 1.725-4.86 1.726-1.896 4.743-2.258v-3.956h2.692v3.974q3.035.416 4.724 2.548 1.69 2.131 1.69 5.835h-3.325q0-2.547-1.21-4.047-1.21-1.5-3.27-1.5-2.15 0-3.289 1.112-1.138 1.11-1.138 3.098 0 1.843 1.202 2.936 1.201 1.093 3.956 1.987 2.755.895 4.3 1.97 1.545 1.074 2.276 2.502.732 1.427.732 3.342 0 3.053-1.834 4.914-1.833 1.86-5.14 2.204v3.45h-2.673v-3.45q-3.36-.307-5.267-2.394-1.906-2.086-1.906-5.663h3.343q0 2.51 1.318 3.866 1.32 1.355 3.74 1.355 2.367 0 3.722-1.138 1.355-1.139 1.355-3.108z" fill="#4A90E2"></path><path fill="#000"></path><path d="M191.071 157.633q1.789 0 3.126-1.084t1.481-2.71h3.162q-.09 1.68-1.157 3.198-1.065 1.518-2.845 2.421-1.78.903-3.767.903-3.993 0-6.35-2.664-2.358-2.665-2.358-7.29v-.56q0-2.855 1.048-5.077t3.008-3.45q1.96-1.23 4.634-1.23 3.288 0 5.465 1.97t2.322 5.113h-3.162q-.144-1.897-1.436-3.117t-3.189-1.22q-2.547 0-3.947 1.835-1.4 1.833-1.4 5.302v.632q0 3.379 1.39 5.204 1.392 1.824 3.975 1.824zm27.1 2.367h-3.505q-.29-.578-.47-2.06-2.33 2.421-5.564 2.421-2.891 0-4.743-1.635-1.852-1.635-1.852-4.146 0-3.053 2.322-4.742 2.321-1.69 6.531-1.69h3.252v-1.535q0-1.753-1.048-2.791-1.048-1.04-3.09-1.04-1.788 0-2.998.904-1.21.903-1.21 2.186h-3.361q0-1.463 1.039-2.827 1.039-1.364 2.818-2.16 1.78-.794 3.911-.794 3.379 0 5.294 1.689 1.915 1.69 1.987 4.652v8.997q0 2.692.687 4.282V160zm-9.052-2.547q1.572 0 2.981-.813 1.41-.813 2.042-2.114v-4.01h-2.62q-6.142 0-6.142 3.594 0 1.572 1.048 2.457 1.047.886 2.691.886zm14.797-21.734h3.342v4.733h3.65v2.584h-3.65v12.122q0 1.175.488 1.762t1.662.587q.578 0 1.59-.217V160q-1.319.361-2.566.361-2.24 0-3.378-1.355t-1.138-3.848v-12.122h-3.56v-2.584h3.56v-4.733zm36.566 14.417v.307q0 4.462-2.041 7.19-2.042 2.728-5.529 2.728-3.559 0-5.6-2.258v9.413h-3.342v-27.064h3.053l.162 2.168q2.042-2.53 5.673-2.53 3.523 0 5.574 2.657 2.05 2.655 2.05 7.389zm-3.342-.073q0-3.306-1.41-5.22-1.408-1.916-3.865-1.916-3.036 0-4.553 2.692v9.34q1.5 2.674 4.589 2.674 2.403 0 3.82-1.906 1.419-1.906 1.419-5.664zm6.703.217v-.235q0-2.872 1.129-5.167 1.129-2.294 3.143-3.54 2.015-1.247 4.598-1.247 3.993 0 6.459 2.764 2.466 2.764 2.466 7.353v.235q0 2.854-1.093 5.122-1.093 2.267-3.125 3.532-2.033 1.264-4.67 1.264-3.975 0-6.441-2.764-2.466-2.764-2.466-7.317zm3.36.163q0 3.252 1.508 5.221 1.509 1.97 4.038 1.97 2.548 0 4.047-1.997 1.5-1.996 1.5-5.592 0-3.215-1.527-5.212-1.526-1.996-4.056-1.996-2.475 0-3.992 1.97-1.518 1.968-1.518 5.636zm17.813-.127v-.253q0-4.498 2.132-7.235t5.583-2.737q3.432 0 5.438 2.348V132.25h3.342V160h-3.071l-.163-2.096q-2.005 2.457-5.582 2.457-3.397 0-5.538-2.782-2.14-2.782-2.14-7.263zm3.343.127q0 3.324 1.373 5.203 1.373 1.879 3.794 1.879 3.18 0 4.643-2.855v-8.979q-1.5-2.764-4.607-2.764-2.457 0-3.83 1.897-1.373 1.897-1.373 5.619zM320.788 160v2.728h-16.549V160h16.549zm19.114-9.864v.307q0 4.462-2.041 7.19-2.042 2.728-5.529 2.728-3.559 0-5.6-2.258v9.413h-3.343v-27.064h3.054l.162 2.168q2.042-2.53 5.673-2.53 3.523 0 5.574 2.657 2.05 2.655 2.05 7.389zm-3.342-.073q0-3.306-1.41-5.22-1.408-1.916-3.866-1.916-3.035 0-4.552 2.692v9.34q1.5 2.674 4.589 2.674 2.402 0 3.82-1.906 1.419-1.906 1.419-5.664zm17.037-9.72v3.108q-.76-.126-1.645-.126-3.288 0-4.462 2.8V160h-3.342v-19.548h3.252l.054 2.258q1.644-2.62 4.661-2.62.976 0 1.482.254zm1.824 9.937v-.235q0-2.872 1.13-5.167 1.129-2.294 3.143-3.54 2.014-1.247 4.598-1.247 3.992 0 6.459 2.764 2.466 2.764 2.466 7.353v.235q0 2.854-1.093 5.122-1.093 2.267-3.126 3.532-2.032 1.264-4.67 1.264-3.975 0-6.44-2.764-2.467-2.764-2.467-7.317zm3.36.163q0 3.252 1.51 5.221 1.508 1.97 4.037 1.97 2.547 0 4.047-1.997 1.5-1.996 1.5-5.592 0-3.215-1.527-5.212-1.527-1.996-4.056-1.996-2.475 0-3.993 1.97-1.517 1.968-1.517 5.636zm17.814-.127v-.253q0-4.498 2.132-7.235t5.582-2.737q3.433 0 5.438 2.348V132.25h3.343V160h-3.072l-.162-2.096q-2.006 2.457-5.583 2.457-3.396 0-5.537-2.782t-2.141-7.263zm3.342.127q0 3.324 1.373 5.203 1.373 1.879 3.794 1.879 3.18 0 4.643-2.855v-8.979q-1.5-2.764-4.607-2.764-2.457 0-3.83 1.897-1.373 1.897-1.373 5.619zM410.415 160l-.072-1.933q-1.951 2.294-5.727 2.294-3.125 0-4.76-1.815-1.635-1.816-1.654-5.375v-12.719h3.343v12.629q0 4.444 3.613 4.444 3.83 0 5.095-2.855v-14.218h3.342V160h-3.18zm16.098-2.367q1.788 0 3.125-1.084t1.481-2.71h3.162q-.09 1.68-1.156 3.198-1.066 1.518-2.846 2.421-1.78.903-3.766.903-3.993 0-6.35-2.664-2.358-2.665-2.358-7.29v-.56q0-2.855 1.047-5.077 1.048-2.222 3.008-3.45 1.96-1.23 4.634-1.23 3.289 0 5.466 1.97t2.321 5.113h-3.162q-.144-1.897-1.436-3.117t-3.189-1.22q-2.547 0-3.947 1.835-1.4 1.833-1.4 5.302v.632q0 3.379 1.39 5.204 1.392 1.824 3.976 1.824zm12.718-21.914h3.343v4.733h3.649v2.584h-3.65v12.122q0 1.175.488 1.762t1.662.587q.579 0 1.59-.217V160q-1.319.361-2.565.361-2.24 0-3.379-1.355-1.138-1.355-1.138-3.848v-12.122h-3.559v-2.584h3.56v-4.733zm14.526 4.733V160h-3.343v-19.548h3.343zm-3.614-5.185q0-.813.497-1.373t1.473-.56q.975 0 1.481.56.506.56.506 1.373t-.506 1.355q-.506.542-1.481.542-.976 0-1.473-.542-.497-.542-.497-1.355zm8.076 15.013v-.235q0-2.872 1.13-5.167 1.128-2.294 3.143-3.54 2.014-1.247 4.598-1.247 3.992 0 6.458 2.764t2.466 7.353v.235q0 2.854-1.093 5.122-1.093 2.267-3.125 3.532-2.032 1.264-4.67 1.264-3.975 0-6.44-2.764-2.467-2.764-2.467-7.317zm3.36.163q0 3.252 1.509 5.221 1.509 1.97 4.038 1.97 2.547 0 4.047-1.997 1.5-1.996 1.5-5.592 0-3.215-1.527-5.212-1.527-1.996-4.056-1.996-2.475 0-3.993 1.97-1.518 1.968-1.518 5.636zm18.627-9.99h3.162l.108 2.456q2.24-2.818 5.853-2.818 6.197 0 6.251 6.992V160h-3.342v-12.936q-.018-2.113-.966-3.125-.949-1.012-2.954-1.012-1.626 0-2.855.867-1.228.868-1.915 2.277V160h-3.342v-19.548zm20.487 17.795q0-.868.515-1.446t1.545-.578q1.03 0 1.563.578.532.578.532 1.446 0 .83-.532 1.39-.533.56-1.563.56-1.03 0-1.545-.56-.515-.56-.515-1.39zm11.183-17.796l4.878 14.652 4.553-14.652h3.577l-7.859 22.565q-1.824 4.878-5.8 4.878l-.631-.054-1.247-.235v-2.71l.903.072q1.699 0 2.647-.686.949-.687 1.563-2.511l.74-1.988-6.973-19.33h3.65zM543.167 160h-3.505q-.289-.578-.47-2.06-2.33 2.421-5.564 2.421-2.89 0-4.742-1.635-1.852-1.635-1.852-4.146 0-3.053 2.322-4.742 2.321-1.69 6.53-1.69h3.253v-1.535q0-1.753-1.048-2.791-1.048-1.04-3.09-1.04-1.788 0-2.999.904-1.21.903-1.21 2.186h-3.36q0-1.463 1.038-2.827 1.04-1.364 2.819-2.16 1.78-.794 3.911-.794 3.378 0 5.293 1.689 1.916 1.69 1.988 4.652v8.997q0 2.692.686 4.282V160zm-9.051-2.547q1.572 0 2.981-.813 1.41-.813 2.042-2.114v-4.01h-2.62q-6.143 0-6.143 3.594 0 1.572 1.048 2.457 1.048.886 2.692.886zm13.586-17h3.162l.09 2.167q2.15-2.53 5.8-2.53 4.1 0 5.582 3.144.975-1.409 2.538-2.276 1.563-.867 3.695-.867 6.431 0 6.54 6.81V160h-3.343v-12.9q0-2.095-.957-3.134-.958-1.039-3.216-1.039-1.86 0-3.09 1.111-1.228 1.111-1.427 2.99V160h-3.36v-12.81q0-4.263-4.173-4.263-3.288 0-4.499 2.8V160h-3.342v-19.548zm36.079-8.203V160h-3.343v-27.75h3.343zm-451.678 76.844h-3.505q-.29-.578-.47-2.06-2.33 2.421-5.565 2.421-2.89 0-4.742-1.635-1.852-1.635-1.852-4.146 0-3.053 2.322-4.742 2.321-1.69 6.53-1.69h3.253v-1.535q0-1.753-1.048-2.791-1.048-1.04-3.09-1.04-1.788 0-2.999.904-1.21.903-1.21 2.186h-3.36q0-1.463 1.039-2.827 1.038-1.364 2.818-2.16 1.78-.794 3.911-.794 3.379 0 5.294 1.689 1.915 1.69 1.987 4.652v8.997q0 2.692.687 4.282v.289zm-9.052-2.547q1.572 0 2.981-.813 1.41-.813 2.042-2.114v-4.01h-2.62q-6.142 0-6.142 3.594 0 1.572 1.047 2.457 1.048.886 2.692.886zm30.117-7.317v.307q0 4.462-2.042 7.19-2.041 2.728-5.528 2.728-3.559 0-5.6-2.258v9.413h-3.343v-27.064h3.053l.163 2.168q2.042-2.53 5.673-2.53 3.523 0 5.573 2.657 2.051 2.655 2.051 7.389zm-3.342-.073q0-3.306-1.41-5.22-1.409-1.916-3.866-1.916-3.035 0-4.552 2.692v9.34q1.5 2.674 4.588 2.674 2.403 0 3.821-1.906 1.419-1.906 1.419-5.664zm11.219-9.61v19.547h-3.342v-19.548h3.342zm-3.613-5.186q0-.813.496-1.373.497-.56 1.473-.56.975 0 1.481.56.506.56.506 1.373t-.506 1.355q-.506.542-1.481.542-.976 0-1.473-.542-.496-.542-.496-1.355zm10.713-1.572l7.48 21.698 7.515-21.698h3.794l-9.756 26.305h-3.071l-9.738-26.305h3.776zm29.105 26.666q-3.975 0-6.468-2.61t-2.493-6.983v-.614q0-2.909 1.111-5.194 1.111-2.286 3.108-3.577 1.996-1.292 4.326-1.292 3.812 0 5.926 2.511 2.114 2.511 2.114 7.19v1.392h-13.243q.073 2.89 1.69 4.67 1.617 1.78 4.11 1.78 1.77 0 2.999-.723 1.228-.723 2.15-1.915l2.041 1.59q-2.457 3.775-7.371 3.775zm-.416-17.524q-2.023 0-3.396 1.472-1.373 1.473-1.698 4.129h9.792v-.253q-.145-2.548-1.373-3.948-1.229-1.4-3.325-1.4zm21.355-2.493v3.107q-.759-.126-1.644-.126-3.288 0-4.462 2.8v13.875h-3.343v-19.548h3.252l.054 2.258q1.644-2.62 4.662-2.62.975 0 1.481.254zm14.453 14.47q0-1.354-1.02-2.104-1.021-.75-3.56-1.292-2.538-.542-4.029-1.3-1.49-.76-2.204-1.807-.713-1.048-.713-2.493 0-2.403 2.032-4.065 2.033-1.662 5.194-1.662 3.325 0 5.393 1.716 2.069 1.716 2.069 4.39h-3.36q0-1.373-1.166-2.366-1.165-.994-2.936-.994-1.824 0-2.854.795t-1.03 2.077q0 1.21.958 1.825.957.614 3.46 1.174 2.501.56 4.055 1.337 1.554.777 2.304 1.87.75 1.093.75 2.665 0 2.62-2.096 4.2-2.096 1.581-5.438 1.581-2.349 0-4.156-.83-1.806-.832-2.827-2.322-1.02-1.49-1.02-3.225h3.342q.09 1.68 1.345 2.665 1.256.984 3.316.984 1.897 0 3.044-.768 1.147-.767 1.147-2.05zm11.328-14.362v19.548h-3.343v-19.548h3.343zm-3.614-5.185q0-.813.497-1.373t1.473-.56q.975 0 1.481.56.506.56.506 1.373t-.506 1.355q-.506.542-1.481.542-.976 0-1.473-.542-.497-.542-.497-1.355zm8.076 15.013v-.235q0-2.872 1.13-5.167 1.128-2.294 3.143-3.54 2.014-1.247 4.598-1.247 3.992 0 6.458 2.764 2.467 2.764 2.467 7.353v.235q0 2.854-1.093 5.122-1.093 2.267-3.126 3.532-2.032 1.264-4.67 1.264-3.975 0-6.44-2.764-2.467-2.764-2.467-7.317zm3.36.163q0 3.252 1.509 5.221 1.509 1.97 4.038 1.97 2.547 0 4.047-1.997 1.5-1.996 1.5-5.592 0-3.215-1.527-5.212-1.527-1.996-4.056-1.996-2.475 0-3.993 1.97-1.518 1.968-1.518 5.636zm18.627-9.99h3.162l.108 2.456q2.24-2.818 5.853-2.818 6.197 0 6.251 6.992v12.917h-3.342v-12.936q-.018-2.113-.966-3.125-.949-1.012-2.954-1.012-1.626 0-2.855.867-1.228.868-1.915 2.277v13.929h-3.342v-19.548zm20.307 17.795q0-.868.514-1.446.515-.578 1.545-.578 1.03 0 1.563.578.533.578.533 1.446 0 .83-.533 1.39-.533.56-1.563.56-1.03 0-1.545-.56-.514-.56-.514-1.39zm.018-15.953q0-.867.515-1.445.514-.579 1.544-.579t1.563.579q.533.578.533 1.445 0 .831-.533 1.391t-1.563.56q-1.03 0-1.544-.56-.515-.56-.515-1.391zm19.692-1.843l4.968 15.013 4.842-15.013h3.415l-7.01 19.548h-2.547l-7.083-19.548h3.415zm27.082-6.883v26.431h-3.36v-22.276l-6.74 2.475v-3.035l9.576-3.595h.524zm-208.722 75.524l-6.81-9.051-2.096 2.186v6.865h-3.343v-27.75h3.343v16.784l1.788-2.15 6.089-6.432h4.065l-7.606 8.166 8.49 11.382h-3.92zm10.118-19.548v19.548h-3.343v-19.548h3.343zm-3.614-5.185q0-.813.497-1.373t1.473-.56q.975 0 1.481.56.506.56.506 1.373t-.506 1.355q-.506.542-1.481.542-.976 0-1.473-.542-.497-.542-.497-1.355zm8.961 5.185h3.162l.108 2.457q2.24-2.818 5.854-2.818 6.197 0 6.25 6.992v12.917h-3.342v-12.936q-.018-2.113-.966-3.125-.949-1.012-2.954-1.012-1.626 0-2.854.867-1.229.868-1.915 2.277v13.929h-3.343v-19.548zm19.602 9.864v-.253q0-4.498 2.132-7.235t5.583-2.737q3.432 0 5.438 2.348v-10.189h3.342v27.75h-3.071l-.163-2.096q-2.005 2.457-5.582 2.457-3.397 0-5.538-2.782-2.14-2.782-2.14-7.263zm3.343.127q0 3.324 1.373 5.203 1.373 1.879 3.794 1.879 3.18 0 4.643-2.855v-8.979q-1.5-2.764-4.607-2.764-2.457 0-3.83 1.897-1.373 1.897-1.373 5.619zm18.229 7.805q0-.868.514-1.446.515-.578 1.545-.578 1.03 0 1.563.578.533.578.533 1.446 0 .83-.533 1.39-.533.56-1.563.56-1.03 0-1.545-.56-.514-.56-.514-1.39zm.018-15.953q0-.867.515-1.445.514-.579 1.544-.579t1.563.579q.533.578.533 1.445 0 .831-.533 1.391t-1.563.56q-1.03 0-1.544-.56-.515-.56-.515-1.391zm28.4 7.407h-6.197v10.298h-3.469v-26.305h9.702q4.318 0 6.766 2.204 2.448 2.205 2.448 5.836 0 3.83-2.394 5.899-2.394 2.068-6.856 2.068zm-6.197-13.152v10.316h6.233q2.782 0 4.264-1.31 1.481-1.31 1.481-3.785 0-2.349-1.481-3.758-1.482-1.409-4.065-1.463h-6.432zm18.23 13.73v-.235q0-2.872 1.128-5.167 1.13-2.294 3.144-3.54 2.014-1.247 4.598-1.247 3.993 0 6.459 2.764 2.466 2.764 2.466 7.353v.235q0 2.854-1.093 5.122-1.093 2.267-3.126 3.532-2.032 1.264-4.67 1.264-3.975 0-6.44-2.764-2.467-2.764-2.467-7.317zm3.36.163q0 3.252 1.508 5.221 1.509 1.97 4.038 1.97 2.547 0 4.047-1.997 1.5-1.996 1.5-5.592 0-3.215-1.527-5.212-1.527-1.996-4.056-1.996-2.475 0-3.993 1.97-1.517 1.968-1.517 5.636zm17.813-.127v-.253q0-4.498 2.132-7.235t5.582-2.737q3.433 0 5.438 2.348v-10.189h3.343v27.75h-3.072l-.162-2.096q-2.006 2.457-5.583 2.457-3.396 0-5.537-2.782-2.14-2.782-2.14-7.263zm3.342.127q0 3.324 1.373 5.203 1.373 1.879 3.794 1.879 3.18 0 4.643-2.855v-8.979q-1.5-2.764-4.607-2.764-2.457 0-3.83 1.897-1.373 1.897-1.373 5.619zm-133.89 39.103h3.162l.09 2.168q2.15-2.53 5.8-2.53 4.1 0 5.582 3.144.976-1.409 2.538-2.276 1.563-.867 3.695-.867 6.432 0 6.54 6.81v13.099h-3.342v-12.9q0-2.095-.958-3.134-.957-1.039-3.216-1.039-1.86 0-3.089 1.111-1.229 1.111-1.427 2.99v12.972h-3.36v-12.81q0-4.263-4.174-4.263-3.288 0-4.498 2.8v14.273h-3.343v-19.548zm40.56 19.91q-3.975 0-6.468-2.611-2.494-2.61-2.494-6.983v-.614q0-2.909 1.111-5.194 1.112-2.286 3.108-3.577 1.996-1.292 4.327-1.292 3.812 0 5.926 2.511 2.113 2.511 2.113 7.19v1.392h-13.242q.072 2.89 1.689 4.67 1.617 1.78 4.11 1.78 1.77 0 2.999-.723t2.15-1.915l2.041 1.59q-2.457 3.775-7.37 3.775zm-.416-17.525q-2.024 0-3.397 1.472-1.373 1.473-1.698 4.129h9.792v-.253q-.144-2.548-1.373-3.948t-3.324-1.4zM169.753 283h3.342v4.733h3.65v2.584h-3.65v12.122q0 1.175.488 1.762t1.662.587q.578 0 1.59-.217v2.71q-1.319.361-2.565.361-2.24 0-3.379-1.355-1.138-1.355-1.138-3.848v-12.122h-3.56v-2.584h3.56V283zm26.467 24.281h-3.505q-.289-.578-.47-2.06-2.33 2.421-5.564 2.421-2.89 0-4.742-1.635-1.852-1.635-1.852-4.146 0-3.053 2.321-4.742 2.322-1.69 6.531-1.69h3.252v-1.535q0-1.753-1.047-2.791-1.048-1.04-3.09-1.04-1.788 0-2.999.904-1.21.903-1.21 2.186h-3.36q0-1.463 1.038-2.827 1.039-1.364 2.819-2.16 1.78-.794 3.91-.794 3.38 0 5.294 1.689 1.915 1.69 1.988 4.652v8.997q0 2.692.686 4.282v.289zm-9.051-2.547q1.572 0 2.98-.813 1.41-.813 2.042-2.114v-4.01h-2.62q-6.142 0-6.142 3.594 0 1.572 1.048 2.457 1.048.886 2.692.886zm12.791-7.137v-.253q0-4.498 2.132-7.235t5.582-2.737q3.433 0 5.438 2.348v-10.189h3.343v27.75h-3.072l-.162-2.096q-2.006 2.457-5.583 2.457-3.396 0-5.537-2.782t-2.141-7.263zm3.342.127q0 3.324 1.373 5.203 1.373 1.879 3.794 1.879 3.18 0 4.643-2.855v-8.979q-1.5-2.764-4.607-2.764-2.457 0-3.83 1.897-1.373 1.897-1.373 5.619zm33.91 9.557h-3.504q-.29-.578-.47-2.06-2.33 2.421-5.564 2.421-2.89 0-4.743-1.635-1.851-1.635-1.851-4.146 0-3.053 2.321-4.742 2.322-1.69 6.531-1.69h3.252v-1.535q0-1.753-1.048-2.791-1.048-1.04-3.09-1.04-1.788 0-2.998.904-1.21.903-1.21 2.186h-3.36q0-1.463 1.038-2.827 1.039-1.364 2.818-2.16 1.78-.794 3.912-.794 3.378 0 5.293 1.689 1.915 1.69 1.987 4.652v8.997q0 2.692.687 4.282v.289zm-9.05-2.547q1.571 0 2.98-.813 1.41-.813 2.042-2.114v-4.01h-2.62q-6.142 0-6.142 3.594 0 1.572 1.048 2.457 1.048.886 2.692.886zM242.958 283h3.342v4.733h3.65v2.584h-3.65v12.122q0 1.175.488 1.762t1.662.587q.578 0 1.59-.217v2.71q-1.319.361-2.565.361-2.24 0-3.379-1.355-1.138-1.355-1.138-3.848v-12.122h-3.56v-2.584h3.56V283zm26.467 24.281h-3.505q-.289-.578-.47-2.06-2.33 2.421-5.564 2.421-2.89 0-4.742-1.635-1.852-1.635-1.852-4.146 0-3.053 2.322-4.742 2.321-1.69 6.53-1.69h3.252v-1.535q0-1.753-1.047-2.791-1.048-1.04-3.09-1.04-1.788 0-2.999.904-1.21.903-1.21 2.186h-3.36q0-1.463 1.038-2.827 1.04-1.364 2.819-2.16 1.78-.794 3.911-.794 3.378 0 5.293 1.689 1.916 1.69 1.988 4.652v8.997q0 2.692.686 4.282v.289zm-9.051-2.547q1.572 0 2.981-.813 1.41-.813 2.041-2.114v-4.01h-2.62q-6.142 0-6.142 3.594 0 1.572 1.048 2.457 1.048.886 2.692.886zm13.496.795q0-.868.515-1.446.514-.578 1.544-.578t1.563.578q.533.578.533 1.446 0 .83-.533 1.39-.533.56-1.563.56-1.03 0-1.544-.56-.515-.56-.515-1.39zm.018-15.953q0-.867.515-1.445.514-.579 1.544-.579t1.563.579q.533.578.533 1.445 0 .831-.533 1.391t-1.563.56q-1.03 0-1.544-.56-.515-.56-.515-1.391zm-148.199 47.25h3.162l.108 2.457q2.24-2.818 5.853-2.818 6.197 0 6.251 6.992v12.917h-3.342v-12.936q-.018-2.113-.966-3.125-.949-1.012-2.954-1.012-1.626 0-2.855.867-1.228.868-1.915 2.277v13.929h-3.342v-19.548zm35.988 19.548h-3.505q-.289-.578-.47-2.06-2.33 2.421-5.564 2.421-2.89 0-4.742-1.635-1.852-1.635-1.852-4.146 0-3.053 2.321-4.742 2.322-1.69 6.531-1.69h3.252v-1.535q0-1.753-1.047-2.791-1.048-1.04-3.09-1.04-1.788 0-2.999.904-1.21.903-1.21 2.186h-3.36q0-1.463 1.038-2.827 1.039-1.364 2.819-2.16 1.78-.794 3.911-.794 3.378 0 5.293 1.689 1.915 1.69 1.988 4.652v8.997q0 2.692.686 4.282v.289zm-9.051-2.547q1.572 0 2.98-.813 1.41-.813 2.042-2.114v-4.01h-2.62q-6.142 0-6.142 3.594 0 1.572 1.048 2.457 1.048.886 2.692.886zm13.586-17h3.162l.09 2.167q2.15-2.53 5.8-2.53 4.1 0 5.582 3.144.975-1.409 2.538-2.276 1.563-.867 3.695-.867 6.431 0 6.54 6.81v13.099h-3.343v-12.9q0-2.095-.957-3.134-.958-1.039-3.216-1.039-1.86 0-3.09 1.111-1.228 1.111-1.427 2.99v12.972h-3.36v-12.81q0-4.263-4.173-4.263-3.288 0-4.499 2.8v14.273h-3.342v-19.548zm40.559 19.908q-3.975 0-6.468-2.61t-2.493-6.983v-.614q0-2.909 1.111-5.194 1.111-2.286 3.108-3.577 1.996-1.292 4.326-1.292 3.812 0 5.926 2.511 2.114 2.511 2.114 7.19v1.392h-13.243q.073 2.89 1.69 4.67 1.616 1.78 4.11 1.78 1.77 0 2.999-.723 1.228-.723 2.15-1.915l2.041 1.59q-2.457 3.775-7.371 3.775zm-.416-17.524q-2.023 0-3.396 1.472-1.373 1.473-1.698 4.129h9.792v-.253q-.145-2.548-1.373-3.948-1.229-1.4-3.325-1.4zm11.798 15.41q0-.867.515-1.445.515-.578 1.544-.578 1.03 0 1.563.578.533.578.533 1.446 0 .83-.533 1.39-.533.56-1.563.56-1.03 0-1.544-.56-.515-.56-.515-1.39zm.018-15.952q0-.867.515-1.445.515-.579 1.544-.579 1.03 0 1.563.579.533.578.533 1.445 0 .831-.533 1.391t-1.563.56q-1.03 0-1.544-.56-.515-.56-.515-1.391zm19.403-6.576h3.343v4.733h3.649v2.584h-3.65v12.122q0 1.175.488 1.762t1.662.587q.579 0 1.59-.217v2.71q-1.319.361-2.565.361-2.24 0-3.379-1.355-1.138-1.355-1.138-3.848V339.41h-3.559v-2.584h3.56v-4.733zm19.006 24.642q-3.975 0-6.468-2.61t-2.493-6.983v-.614q0-2.909 1.111-5.194 1.111-2.286 3.108-3.577 1.996-1.292 4.327-1.292 3.812 0 5.925 2.511 2.114 2.511 2.114 7.19v1.392h-13.243q.073 2.89 1.69 4.67 1.617 1.78 4.11 1.78 1.77 0 2.999-.723 1.228-.723 2.15-1.915l2.041 1.59q-2.457 3.775-7.37 3.775zm-.415-17.524q-2.024 0-3.397 1.472-1.373 1.473-1.698 4.129h9.792v-.253q-.145-2.548-1.373-3.948-1.229-1.4-3.324-1.4zm23.287 11.978q0-1.355-1.02-2.105-1.021-.75-3.56-1.292-2.538-.542-4.028-1.3-1.491-.76-2.205-1.807-.713-1.048-.713-2.493 0-2.403 2.032-4.065 2.033-1.662 5.194-1.662 3.325 0 5.393 1.716 2.069 1.716 2.069 4.39h-3.36q0-1.373-1.166-2.366-1.165-.994-2.936-.994-1.824 0-2.854.795t-1.03 2.077q0 1.21.958 1.825.957.614 3.46 1.174 2.502.56 4.055 1.337 1.554.777 2.304 1.87.75 1.093.75 2.665 0 2.62-2.096 4.2-2.096 1.581-5.438 1.581-2.349 0-4.156-.83-1.806-.832-2.827-2.322-1.02-1.49-1.02-3.225h3.342q.09 1.68 1.346 2.665 1.255.984 3.315.984 1.897 0 3.044-.768 1.147-.767 1.147-2.05zm8.889-19.096h3.342v4.733h3.65v2.584h-3.65v12.122q0 1.175.488 1.762t1.662.587q.578 0 1.59-.217v2.71q-1.319.361-2.566.361-2.24 0-3.378-1.355t-1.138-3.848V339.41h-3.56v-2.584h3.56v-4.733zm17.85 11.743v2.728h-8.817v-2.728h8.816zm19.764 2.674v.307q0 4.462-2.041 7.19-2.042 2.728-5.529 2.728-3.559 0-5.6-2.258v9.413h-3.343v-27.064h3.054l.162 2.168q2.042-2.53 5.673-2.53 3.523 0 5.574 2.657 2.05 2.655 2.05 7.389zm-3.342-.073q0-3.306-1.41-5.22-1.409-1.916-3.866-1.916-3.035 0-4.552 2.692v9.34q1.5 2.674 4.589 2.674 2.402 0 3.82-1.906 1.419-1.906 1.419-5.664zm6.702.217v-.235q0-2.872 1.13-5.167 1.129-2.294 3.143-3.54 2.015-1.247 4.598-1.247 3.993 0 6.459 2.764 2.466 2.764 2.466 7.353v.235q0 2.854-1.093 5.122-1.093 2.267-3.126 3.532-2.032 1.264-4.67 1.264-3.974 0-6.44-2.764-2.467-2.764-2.467-7.317zm3.36.163q0 3.252 1.51 5.221 1.508 1.97 4.037 1.97 2.548 0 4.047-1.997 1.5-1.996 1.5-5.592 0-3.215-1.527-5.212-1.527-1.996-4.056-1.996-2.475 0-3.993 1.97-1.517 1.968-1.517 5.636zm17.814-.127v-.253q0-4.498 2.132-7.235t5.583-2.737q3.432 0 5.438 2.348v-10.189h3.342v27.75h-3.071l-.163-2.096q-2.005 2.457-5.583 2.457-3.396 0-5.537-2.782-2.14-2.782-2.14-7.263zm3.343.127q0 3.324 1.373 5.203 1.373 1.879 3.794 1.879 3.18 0 4.643-2.855v-8.979q-1.5-2.764-4.607-2.764-2.457 0-3.83 1.897-1.373 1.897-1.373 5.619zm-225.921 53.466q0-1.355-1.02-2.105-1.021-.75-3.56-1.292-2.538-.542-4.029-1.3-1.49-.76-2.204-1.807-.713-1.048-.713-2.493 0-2.403 2.032-4.065 2.033-1.662 5.194-1.662 3.325 0 5.393 1.716 2.069 1.716 2.069 4.39h-3.36q0-1.373-1.166-2.366-1.165-.994-2.936-.994-1.824 0-2.854.795t-1.03 2.077q0 1.21.958 1.825.957.614 3.46 1.174 2.501.56 4.055 1.337 1.554.777 2.304 1.87.75 1.093.75 2.665 0 2.62-2.096 4.2-2.096 1.581-5.438 1.581-2.349 0-4.156-.83-1.806-.832-2.827-2.322-1.02-1.49-1.02-3.225h3.342q.09 1.68 1.346 2.665 1.255.984 3.315.984 1.897 0 3.044-.768 1.147-.767 1.147-2.05zm24.21-4.68v.308q0 4.462-2.042 7.19-2.042 2.728-5.529 2.728-3.559 0-5.6-2.258v9.413h-3.343V385.92h3.054l.162 2.168q2.042-2.53 5.673-2.53 3.523 0 5.574 2.657 2.05 2.655 2.05 7.389zm-3.343-.072q0-3.306-1.41-5.22-1.409-1.916-3.866-1.916-3.035 0-4.552 2.692v9.34q1.5 2.674 4.589 2.674 2.402 0 3.82-1.906 1.419-1.906 1.419-5.664zm15.7 10.298q-3.975 0-6.468-2.61t-2.493-6.983v-.614q0-2.909 1.11-5.194 1.112-2.286 3.108-3.577 1.996-1.292 4.327-1.292 3.812 0 5.926 2.511 2.114 2.511 2.114 7.19v1.392h-13.243q.072 2.89 1.69 4.67 1.616 1.78 4.11 1.78 1.77 0 2.998-.723 1.229-.723 2.15-1.915l2.042 1.59q-2.457 3.775-7.371 3.775zm-.416-17.524q-2.023 0-3.396 1.472-1.374 1.473-1.699 4.129h9.792v-.253q-.144-2.548-1.373-3.948-1.228-1.4-3.324-1.4zm19.747 14.796q1.788 0 3.125-1.084t1.482-2.71h3.161q-.09 1.68-1.156 3.198-1.066 1.518-2.846 2.421-1.78.903-3.766.903-3.993 0-6.35-2.664-2.358-2.665-2.358-7.29v-.56q0-2.855 1.047-5.077 1.048-2.222 3.008-3.45 1.96-1.23 4.635-1.23 3.288 0 5.465 1.97t2.321 5.113h-3.161q-.145-1.897-1.437-3.117t-3.188-1.22q-2.548 0-3.948 1.835-1.4 1.833-1.4 5.302v.632q0 3.379 1.391 5.204 1.391 1.824 3.975 1.824zm11.418.615q0-.868.514-1.446.515-.578 1.545-.578 1.03 0 1.563.578.533.578.533 1.446 0 .83-.533 1.39-.533.56-1.563.56-1.03 0-1.545-.56-.514-.56-.514-1.39zm.018-15.953q0-.867.515-1.445.514-.579 1.544-.579t1.563.579q.533.578.533 1.445 0 .831-.533 1.391t-1.563.56q-1.03 0-1.544-.56-.515-.56-.515-1.391zm-61.715 64.431q1.788 0 3.125-1.084t1.482-2.71h3.161q-.09 1.68-1.156 3.198-1.066 1.518-2.845 2.421-1.78.903-3.767.903-3.993 0-6.35-2.664-2.358-2.665-2.358-7.29v-.56q0-2.855 1.048-5.077 1.047-2.222 3.008-3.45 1.96-1.23 4.634-1.23 3.288 0 5.465 1.97t2.321 5.113h-3.161q-.145-1.897-1.437-3.117-1.291-1.22-3.188-1.22-2.548 0-3.948 1.835-1.4 1.833-1.4 5.302v.632q0 3.379 1.391 5.204 1.391 1.824 3.975 1.824zm10.64-7.353v-.235q0-2.872 1.13-5.167 1.13-2.294 3.144-3.54 2.014-1.247 4.598-1.247 3.992 0 6.458 2.764t2.466 7.353v.235q0 2.854-1.093 5.122-1.093 2.267-3.125 3.532-2.033 1.264-4.67 1.264-3.975 0-6.441-2.764-2.466-2.764-2.466-7.317zm3.361.163q0 3.252 1.509 5.221 1.508 1.97 4.038 1.97 2.547 0 4.047-1.997 1.499-1.996 1.499-5.592 0-3.215-1.527-5.212-1.526-1.996-4.055-1.996-2.476 0-3.993 1.97-1.518 1.968-1.518 5.636zm18.627-9.99h3.161l.109 2.456q2.24-2.818 5.853-2.818 6.197 0 6.251 6.992v12.917h-3.342v-12.936q-.018-2.113-.967-3.125-.948-1.012-2.953-1.012-1.626 0-2.855.867-1.228.868-1.915 2.277v13.929h-3.342v-19.548zm21.607-4.734h3.342v4.733h3.65v2.584h-3.65v12.122q0 1.175.488 1.762t1.662.587q.578 0 1.59-.217v2.71q-1.319.361-2.565.361-2.24 0-3.379-1.355-1.138-1.355-1.138-3.848v-12.122h-3.559v-2.584h3.56v-4.733zm26.467 24.281h-3.504q-.29-.578-.47-2.06-2.33 2.421-5.565 2.421-2.89 0-4.742-1.635-1.852-1.635-1.852-4.146 0-3.053 2.322-4.742 2.321-1.69 6.53-1.69h3.253v-1.535q0-1.753-1.048-2.791-1.048-1.04-3.09-1.04-1.788 0-2.999.904-1.21.903-1.21 2.186h-3.36q0-1.463 1.038-2.827 1.04-1.364 2.819-2.16 1.78-.794 3.911-.794 3.379 0 5.294 1.689 1.915 1.69 1.987 4.652v8.997q0 2.692.686 4.282v.289zm-9.05-2.547q1.57 0 2.98-.813t2.042-2.114v-4.01h-2.62q-6.143 0-6.143 3.594 0 1.572 1.048 2.457 1.048.886 2.692.886zm17.235-17v19.547h-3.343v-19.548h3.343zm-3.614-5.186q0-.813.497-1.373t1.472-.56q.976 0 1.482.56t.506 1.373q0 .813-.506 1.355t-1.482.542q-.975 0-1.472-.542t-.497-1.355zm8.961 5.185h3.162l.108 2.457q2.24-2.818 5.854-2.818 6.196 0 6.25 6.992v12.917h-3.342v-12.936q-.018-2.113-.966-3.125-.949-1.012-2.954-1.012-1.626 0-2.855.867-1.228.868-1.915 2.277v13.929h-3.342v-19.548zm28.527 19.91q-3.975 0-6.468-2.611-2.493-2.61-2.493-6.983v-.614q0-2.909 1.111-5.194 1.111-2.286 3.108-3.577 1.996-1.292 4.326-1.292 3.813 0 5.926 2.511 2.114 2.511 2.114 7.19v1.392h-13.243q.073 2.89 1.69 4.67 1.617 1.78 4.11 1.78 1.77 0 2.999-.723 1.228-.723 2.15-1.915l2.041 1.59q-2.457 3.775-7.371 3.775zm-.416-17.525q-2.023 0-3.396 1.472-1.373 1.473-1.698 4.128h9.792v-.252q-.145-2.548-1.373-3.948-1.229-1.4-3.325-1.4zm21.355-2.493v3.107q-.759-.126-1.644-.126-3.288 0-4.462 2.8v13.875h-3.343v-19.548h3.252l.054 2.258q1.644-2.62 4.662-2.62.975 0 1.481.254zm14.453 14.47q0-1.354-1.02-2.104-1.021-.75-3.56-1.292-2.538-.542-4.029-1.3-1.49-.76-2.204-1.807-.713-1.048-.713-2.493 0-2.403 2.032-4.065 2.033-1.662 5.194-1.662 3.325 0 5.393 1.716 2.069 1.716 2.069 4.39h-3.36q0-1.373-1.166-2.366-1.165-.994-2.936-.994-1.824 0-2.854.795t-1.03 2.077q0 1.21.958 1.825.957.614 3.46 1.174 2.501.56 4.055 1.337 1.554.777 2.304 1.87.75 1.093.75 2.665 0 2.62-2.096 4.2-2.096 1.581-5.438 1.581-2.349 0-4.156-.83-1.806-.832-2.827-2.322-1.02-1.49-1.02-3.225h3.342q.09 1.68 1.346 2.665 1.255.984 3.315.984 1.897 0 3.044-.768 1.147-.767 1.147-2.05zm7.588 3.434q0-.868.515-1.446t1.545-.578q1.03 0 1.562.578.533.578.533 1.446 0 .83-.533 1.39-.533.56-1.562.56-1.03 0-1.545-.56-.515-.56-.515-1.39zm.018-15.953q0-.867.515-1.445.515-.579 1.545-.579 1.03 0 1.562.579.533.578.533 1.445 0 .831-.533 1.391t-1.562.56q-1.03 0-1.545-.56-.515-.56-.515-1.391zm-166.644 54.261v2.728h-8.817v-2.728h8.817zm12.411-7.01h3.162l.108 2.457q2.24-2.818 5.854-2.818 6.196 0 6.25 6.992v12.917h-3.342v-12.936q-.018-2.113-.966-3.125-.949-1.012-2.954-1.012-1.626 0-2.855.867-1.228.868-1.915 2.277v13.929h-3.342v-19.548zm35.988 19.548h-3.504q-.29-.578-.47-2.06-2.33 2.421-5.565 2.421-2.89 0-4.742-1.635-1.852-1.635-1.852-4.146 0-3.053 2.322-4.742 2.321-1.69 6.53-1.69h3.253v-1.535q0-1.753-1.048-2.791-1.048-1.04-3.09-1.04-1.788 0-2.999.904-1.21.903-1.21 2.186h-3.36q0-1.463 1.038-2.827 1.04-1.364 2.819-2.16 1.78-.794 3.911-.794 3.379 0 5.294 1.689 1.915 1.69 1.987 4.652v8.997q0 2.692.686 4.282v.289zm-9.05-2.547q1.57 0 2.98-.813t2.042-2.114v-4.01h-2.62q-6.143 0-6.143 3.594 0 1.572 1.048 2.457 1.048.886 2.692.886zm13.585-17h3.162l.09 2.167q2.15-2.53 5.8-2.53 4.1 0 5.582 3.144.975-1.409 2.538-2.276 1.563-.867 3.695-.867 6.431 0 6.54 6.81v13.099h-3.342v-12.9q0-2.095-.958-3.134-.957-1.039-3.216-1.039-1.86 0-3.09 1.111-1.228 1.111-1.426 2.99v12.972h-3.36v-12.81q0-4.263-4.174-4.263-3.288 0-4.499 2.8v14.273h-3.342v-19.548zm40.56 19.908q-3.975 0-6.469-2.61-2.493-2.61-2.493-6.983v-.614q0-2.909 1.111-5.194 1.111-2.286 3.108-3.577 1.996-1.292 4.327-1.292 3.812 0 5.925 2.511 2.114 2.511 2.114 7.19v1.392H220.52q.072 2.89 1.689 4.67 1.617 1.78 4.11 1.78 1.77 0 2.999-.723 1.228-.723 2.15-1.915l2.041 1.59q-2.457 3.775-7.37 3.775zm-.416-17.524q-2.024 0-3.397 1.472-1.373 1.473-1.698 4.128h9.792v-.252q-.145-2.548-1.373-3.948-1.229-1.4-3.324-1.4zm11.797 15.41q0-.867.515-1.445.515-.578 1.545-.578 1.03 0 1.562.578.533.578.533 1.446 0 .83-.533 1.39-.533.56-1.562.56-1.03 0-1.545-.56-.515-.56-.515-1.39zm.018-15.952q0-.867.515-1.445.515-.579 1.545-.579 1.03 0 1.562.579.533.578.533 1.445 0 .831-.533 1.391t-1.562.56q-1.03 0-1.545-.56-.515-.56-.515-1.391zm19.403-6.576h3.343v4.733h3.65v2.584h-3.65v12.122q0 1.175.487 1.762.488.587 1.663.587.578 0 1.59-.217v2.71q-1.32.361-2.566.361-2.24 0-3.378-1.355-1.139-1.355-1.139-3.848v-12.122h-3.559v-2.584h3.56v-4.733zm19.006 24.642q-3.974 0-6.468-2.61-2.493-2.61-2.493-6.983v-.614q0-2.909 1.111-5.194 1.111-2.286 3.108-3.577 1.996-1.292 4.327-1.292 3.812 0 5.926 2.511 2.113 2.511 2.113 7.19v1.392H270.33q.072 2.89 1.689 4.67 1.617 1.78 4.11 1.78 1.77 0 2.999-.723 1.228-.723 2.15-1.915l2.041 1.59q-2.457 3.775-7.37 3.775zm-.415-17.524q-2.024 0-3.397 1.472-1.373 1.473-1.698 4.128h9.792v-.252q-.145-2.548-1.373-3.948-1.229-1.4-3.324-1.4zm23.287 11.978q0-1.355-1.02-2.105-1.021-.75-3.56-1.292-2.538-.542-4.028-1.3-1.49-.76-2.204-1.807-.714-1.048-.714-2.493 0-2.403 2.032-4.065 2.033-1.662 5.195-1.662 3.324 0 5.392 1.716 2.069 1.716 2.069 4.39h-3.36q0-1.373-1.166-2.366-1.165-.994-2.935-.994-1.825 0-2.855.795t-1.03 2.077q0 1.21.958 1.825.957.614 3.46 1.174 2.502.56 4.055 1.337 1.554.777 2.304 1.87.75 1.093.75 2.665 0 2.62-2.096 4.2-2.096 1.581-5.438 1.581-2.349 0-4.155-.83-1.807-.832-2.828-2.322-1.02-1.49-1.02-3.225h3.342q.09 1.68 1.346 2.665 1.255.984 3.315.984 1.897 0 3.044-.768 1.147-.767 1.147-2.05zm8.889-19.096h3.342v4.733h3.65v2.584h-3.65v12.122q0 1.175.488 1.762t1.662.587q.578 0 1.59-.217v2.71q-1.319.361-2.565.361-2.24 0-3.379-1.355-1.138-1.355-1.138-3.848v-12.122h-3.56v-2.584h3.56v-4.733zm17.85 11.743v2.728h-8.817v-2.728h8.817zm11.092 10.171q1.789 0 3.126-1.084t1.481-2.71h3.162q-.09 1.68-1.156 3.198-1.066 1.518-2.846 2.421-1.78.903-3.767.903-3.992 0-6.35-2.664-2.358-2.665-2.358-7.29v-.56q0-2.855 1.048-5.077t3.008-3.45q1.96-1.23 4.634-1.23 3.288 0 5.465 1.97t2.322 5.113h-3.162q-.144-1.897-1.436-3.117t-3.189-1.22q-2.547 0-3.947 1.835-1.4 1.833-1.4 5.302v.632q0 3.379 1.39 5.204 1.392 1.824 3.975 1.824zm10.642-7.353v-.235q0-2.872 1.129-5.167 1.129-2.294 3.143-3.54 2.015-1.247 4.598-1.247 3.993 0 6.459 2.764 2.466 2.764 2.466 7.353v.235q0 2.854-1.093 5.122-1.093 2.267-3.126 3.532-2.032 1.264-4.67 1.264-3.974 0-6.44-2.764t-2.466-7.317zm3.36.163q0 3.252 1.508 5.221 1.509 1.97 4.038 1.97 2.548 0 4.047-1.997 1.5-1.996 1.5-5.592 0-3.215-1.527-5.212-1.527-1.996-4.056-1.996-2.475 0-3.993 1.97-1.517 1.968-1.517 5.636zm18.626-9.99h3.162l.108 2.456q2.24-2.818 5.854-2.818 6.197 0 6.25 6.992v12.917h-3.341v-12.936q-.019-2.113-.967-3.125t-2.954-1.012q-1.626 0-2.854.867-1.229.868-1.915 2.277v13.929h-3.343v-19.548zm21.608-4.734h3.342v4.733h3.65v2.584h-3.65v12.122q0 1.175.488 1.762t1.662.587q.578 0 1.59-.217v2.71q-1.32.361-2.566.361-2.24 0-3.378-1.355t-1.138-3.848v-12.122h-3.56v-2.584h3.56v-4.733zm26.467 24.281h-3.505q-.289-.578-.47-2.06-2.33 2.421-5.564 2.421-2.89 0-4.742-1.635-1.852-1.635-1.852-4.146 0-3.053 2.321-4.742 2.322-1.69 6.531-1.69h3.252v-1.535q0-1.753-1.048-2.791-1.047-1.04-3.089-1.04-1.789 0-2.999.904-1.21.903-1.21 2.186h-3.36q0-1.463 1.038-2.827 1.039-1.364 2.818-2.16 1.78-.794 3.912-.794 3.378 0 5.293 1.689 1.915 1.69 1.988 4.652v8.997q0 2.692.686 4.282v.289zm-9.051-2.547q1.572 0 2.98-.813 1.41-.813 2.042-2.114v-4.01h-2.62q-6.142 0-6.142 3.594 0 1.572 1.048 2.457 1.048.886 2.692.886zm17.235-17v19.547h-3.342v-19.548h3.342zm-3.613-5.186q0-.813.497-1.373.496-.56 1.472-.56t1.482.56q.505.56.505 1.373t-.505 1.355q-.506.542-1.482.542t-1.472-.542q-.497-.542-.497-1.355zm8.96 5.185h3.162l.109 2.457q2.24-2.818 5.853-2.818 6.197 0 6.251 6.992v12.917h-3.342v-12.936q-.018-2.113-.967-3.125-.948-1.012-2.953-1.012-1.626 0-2.855.867-1.228.868-1.915 2.277v13.929h-3.342v-19.548zm28.528 19.91q-3.975 0-6.468-2.611-2.493-2.61-2.493-6.983v-.614q0-2.909 1.11-5.194 1.112-2.286 3.108-3.577 1.997-1.292 4.327-1.292 3.812 0 5.926 2.511 2.114 2.511 2.114 7.19v1.392h-13.243q.072 2.89 1.69 4.67 1.616 1.78 4.11 1.78 1.77 0 2.998-.723 1.229-.723 2.15-1.915l2.042 1.59q-2.457 3.775-7.371 3.775zm-.416-17.525q-2.023 0-3.396 1.472-1.373 1.473-1.699 4.128h9.792v-.252q-.144-2.548-1.373-3.948-1.228-1.4-3.324-1.4zm21.355-2.493v3.107q-.76-.126-1.644-.126-3.289 0-4.463 2.8v13.875h-3.342v-19.548h3.252l.054 2.258q1.644-2.62 4.661-2.62.976 0 1.482.254zM129.32 533.2v19.548h-3.342V533.2h3.342zm-3.613-5.185q0-.813.497-1.373t1.472-.56q.976 0 1.482.56t.506 1.373q0 .813-.506 1.355t-1.482.542q-.975 0-1.472-.542t-.497-1.355zm8.943 5.185h3.162l.09 2.168q2.15-2.53 5.8-2.53 4.1 0 5.582 3.144.975-1.409 2.538-2.276 1.563-.867 3.695-.867 6.431 0 6.54 6.81v13.099h-3.343v-12.9q0-2.095-.957-3.134-.958-1.039-3.216-1.039-1.86 0-3.09 1.111-1.228 1.111-1.427 2.99v12.972h-3.36v-12.81q0-4.263-4.173-4.263-3.288 0-4.499 2.8v14.273h-3.342V533.2zm48.02 19.548h-3.504q-.29-.578-.47-2.06-2.33 2.421-5.565 2.421-2.89 0-4.742-1.635-1.852-1.635-1.852-4.146 0-3.053 2.322-4.742 2.321-1.69 6.53-1.69h3.253v-1.535q0-1.753-1.048-2.791-1.048-1.04-3.09-1.04-1.788 0-2.999.904-1.21.903-1.21 2.186h-3.36q0-1.463 1.038-2.827 1.04-1.364 2.819-2.16 1.78-.794 3.911-.794 3.379 0 5.294 1.689 1.915 1.69 1.987 4.652v8.997q0 2.692.686 4.282v.289zm-9.05-2.547q1.57 0 2.98-.813t2.042-2.114v-4.01h-2.62q-6.143 0-6.143 3.594 0 1.572 1.048 2.457 1.048.886 2.692.886zm12.808-7.39q0-4.57 2.114-7.271 2.114-2.701 5.6-2.701 3.578 0 5.583 2.53l.163-2.169h3.053v19.078q0 3.794-2.25 5.98-2.249 2.186-6.043 2.186-2.113 0-4.137-.903-2.023-.903-3.09-2.475l1.735-2.005q2.15 2.655 5.258 2.655 2.439 0 3.803-1.373 1.364-1.373 1.364-3.866v-1.68q-2.006 2.312-5.475 2.312-3.432 0-5.555-2.764-2.123-2.764-2.123-7.534zm3.36.38q0 3.306 1.356 5.194 1.355 1.888 3.793 1.888 3.162 0 4.644-2.873v-8.924q-1.536-2.8-4.607-2.8-2.44 0-3.812 1.896-1.373 1.897-1.373 5.619zm26.305 9.918q-3.974 0-6.468-2.61-2.493-2.61-2.493-6.983v-.614q0-2.909 1.111-5.194 1.111-2.286 3.108-3.577 1.996-1.292 4.327-1.292 3.812 0 5.926 2.511 2.113 2.511 2.113 7.19v1.392h-13.242q.072 2.89 1.689 4.67 1.617 1.78 4.11 1.78 1.77 0 2.999-.723 1.228-.723 2.15-1.915l2.041 1.59q-2.457 3.775-7.37 3.775zm-.415-17.524q-2.024 0-3.397 1.472-1.373 1.473-1.698 4.129h9.792v-.253q-.145-2.548-1.373-3.948-1.229-1.4-3.324-1.4zm11.797 15.41q0-.867.515-1.445.515-.578 1.545-.578 1.03 0 1.562.578.533.578.533 1.446 0 .83-.533 1.39-.533.56-1.562.56-1.03 0-1.545-.56-.515-.56-.515-1.39zm.018-15.952q0-.867.515-1.445.515-.579 1.545-.579 1.03 0 1.562.579.533.578.533 1.445 0 .831-.533 1.391-.532.56-1.562.56t-1.545-.56q-.515-.56-.515-1.391zm30.478 17.705l-6.81-9.051-2.097 2.186v6.865h-3.342v-27.75h3.342v16.784l1.789-2.15 6.088-6.432h4.065l-7.606 8.166 8.492 11.382h-3.92zm22.095-19.44q0 1.97-1.038 3.505-1.04 1.536-2.81 2.403 2.06.886 3.261 2.584 1.202 1.698 1.202 3.848 0 3.414-2.304 5.438-2.303 2.023-6.061 2.023-3.794 0-6.08-2.032-2.285-2.033-2.285-5.43 0-2.13 1.165-3.847 1.166-1.717 3.225-2.602-1.752-.867-2.764-2.403-1.012-1.535-1.012-3.486 0-3.325 2.132-5.276 2.132-1.951 5.619-1.951 3.469 0 5.61 1.951 2.14 1.951 2.14 5.276zm-2.728 12.268q0-2.204-1.4-3.596-1.4-1.39-3.658-1.39-2.259 0-3.623 1.372-1.364 1.373-1.364 3.614 0 2.24 1.328 3.523 1.328 1.282 3.695 1.282 2.349 0 3.685-1.291 1.337-1.292 1.337-3.514zm-5.022-16.748q-1.97 0-3.189 1.22-1.22 1.219-1.22 3.315 0 2.005 1.202 3.243 1.202 1.237 3.207 1.237t3.207-1.237q1.201-1.238 1.201-3.243 0-2.006-1.246-3.27-1.247-1.265-3.162-1.265zm24.3 18.735q0-1.355-1.022-2.105-1.02-.75-3.559-1.292-2.538-.542-4.028-1.3-1.49-.76-2.205-1.807-.713-1.048-.713-2.493 0-2.403 2.032-4.065 2.033-1.662 5.194-1.662 3.325 0 5.393 1.716 2.069 1.716 2.069 4.39h-3.36q0-1.373-1.166-2.366-1.165-.994-2.936-.994-1.824 0-2.854.795t-1.03 2.077q0 1.21.958 1.825.957.614 3.46 1.174 2.502.56 4.055 1.337 1.554.777 2.304 1.87.75 1.093.75 2.665 0 2.62-2.096 4.2-2.096 1.581-5.438 1.581-2.349 0-4.155-.83-1.807-.832-2.828-2.322-1.02-1.49-1.02-3.225h3.342q.09 1.68 1.346 2.665 1.255.984 3.315.984 1.897 0 3.044-.768 1.147-.767 1.147-2.05zm7.768 3.433q0-.868.515-1.446t1.544-.578q1.03 0 1.563.578.533.578.533 1.446 0 .83-.533 1.39-.533.56-1.563.56-1.03 0-1.544-.56-.515-.56-.515-1.39zm8.87-8.185q0-4.57 2.114-7.271 2.114-2.701 5.6-2.701 3.578 0 5.583 2.53l.163-2.169h3.053v19.078q0 3.794-2.25 5.98-2.248 2.186-6.042 2.186-2.114 0-4.138-.903-2.023-.903-3.089-2.475l1.734-2.005q2.15 2.655 5.258 2.655 2.439 0 3.803-1.373 1.364-1.373 1.364-3.866v-1.68q-2.006 2.312-5.474 2.312-3.433 0-5.556-2.764t-2.123-7.534zm3.36.38q0 3.306 1.356 5.194 1.355 1.888 3.794 1.888 3.161 0 4.643-2.873v-8.924q-1.536-2.8-4.607-2.8-2.44 0-3.812 1.896-1.373 1.897-1.373 5.619zm26.034 7.19q1.789 0 3.126-1.084t1.481-2.71h3.162q-.09 1.68-1.156 3.198-1.066 1.518-2.846 2.421-1.78.903-3.767.903-3.992 0-6.35-2.664-2.358-2.665-2.358-7.29v-.56q0-2.855 1.048-5.077t3.008-3.45q1.96-1.23 4.634-1.23 3.288 0 5.465 1.97t2.322 5.113h-3.162q-.144-1.897-1.436-3.117t-3.189-1.22q-2.547 0-3.947 1.835-1.4 1.833-1.4 5.302v.632q0 3.379 1.39 5.204 1.392 1.824 3.975 1.824zm20.976-17.29v3.108q-.76-.126-1.645-.126-3.288 0-4.462 2.8v13.875h-3.342V533.2h3.252l.054 2.258q1.644-2.62 4.661-2.62.976 0 1.482.254zm.92 17.905q0-.868.516-1.446.515-.578 1.544-.578 1.03 0 1.563.578.533.578.533 1.446 0 .83-.533 1.39-.533.56-1.563.56-1.03 0-1.544-.56-.515-.56-.515-1.39zm13.298-17.796v19.548H374.5V533.2h3.342zm-3.613-5.185q0-.813.496-1.373.497-.56 1.473-.56.975 0 1.481.56.506.56.506 1.373t-.506 1.355q-.506.542-1.481.542-.976 0-1.473-.542-.496-.542-.496-1.355zm8.075 15.013v-.235q0-2.872 1.13-5.167 1.128-2.294 3.143-3.54 2.014-1.247 4.598-1.247 3.992 0 6.459 2.764 2.466 2.764 2.466 7.353v.235q0 2.854-1.093 5.122-1.093 2.267-3.126 3.532-2.032 1.264-4.67 1.264-3.975 0-6.44-2.764-2.467-2.764-2.467-7.317zm3.36.163q0 3.252 1.51 5.221 1.508 1.97 4.037 1.97 2.547 0 4.047-1.997 1.5-1.996 1.5-5.592 0-3.215-1.527-5.212-1.527-1.996-4.056-1.996-2.475 0-3.993 1.97-1.517 1.968-1.517 5.636zm30.262-16.748l-10.967 28.563h-2.872l10.984-28.563h2.855zm20.162 16.459v.289q0 4.48-2.06 7.2-2.06 2.718-5.528 2.718-3.704 0-5.727-2.62l-.163 2.259h-3.07v-27.75h3.341v10.352q2.024-2.511 5.583-2.511t5.591 2.692q2.033 2.692 2.033 7.37zm-3.342-.09q0-3.415-1.32-5.276-1.318-1.86-3.793-1.86-3.306 0-4.752 3.07v8.456q1.536 3.07 4.788 3.07 2.403 0 3.74-1.86 1.337-1.86 1.337-5.6zm19.692 9.936l-.072-1.933q-1.951 2.294-5.727 2.294-3.126 0-4.76-1.815-1.636-1.816-1.654-5.375V533.2h3.342v12.629q0 4.444 3.614 4.444 3.83 0 5.094-2.855V533.2h3.343v19.548h-3.18zm19.638-5.185q0-1.355-1.02-2.105-1.021-.75-3.56-1.292-2.538-.542-4.028-1.3-1.49-.76-2.205-1.807-.713-1.048-.713-2.493 0-2.403 2.032-4.065 2.033-1.662 5.194-1.662 3.325 0 5.393 1.716 2.069 1.716 2.069 4.39h-3.36q0-1.373-1.166-2.366-1.165-.994-2.936-.994-1.824 0-2.854.795t-1.03 2.077q0 1.21.958 1.825.957.614 3.46 1.174 2.502.56 4.055 1.337 1.554.777 2.304 1.87.75 1.093.75 2.665 0 2.62-2.096 4.2-2.096 1.581-5.438 1.581-2.349 0-4.156-.83-1.806-.832-2.827-2.322-1.02-1.49-1.02-3.225h3.342q.09 1.68 1.346 2.665 1.255.984 3.315.984 1.897 0 3.044-.768 1.147-.767 1.147-2.05zm9.214-14.363l4.878 14.652 4.553-14.652h3.577l-7.859 22.565q-1.825 4.878-5.8 4.878l-.632-.054-1.246-.235v-2.71l.903.072q1.698 0 2.647-.686.948-.687 1.563-2.511l.74-1.988-6.973-19.33h3.649zm32.538 9.702v.289q0 4.48-2.06 7.2-2.06 2.718-5.528 2.718-3.704 0-5.727-2.62l-.163 2.259h-3.071v-27.75h3.342v10.352q2.024-2.511 5.583-2.511t5.591 2.692q2.033 2.692 2.033 7.37zm-3.343-.09q0-3.415-1.318-5.276-1.32-1.86-3.794-1.86-3.307 0-4.752 3.07v8.456q1.536 3.07 4.788 3.07 2.403 0 3.74-1.86 1.336-1.86 1.336-5.6zm6.667.216v-.235q0-2.872 1.129-5.167 1.13-2.294 3.144-3.54 2.014-1.247 4.597-1.247 3.993 0 6.46 2.764 2.465 2.764 2.465 7.353v.235q0 2.854-1.093 5.122-1.093 2.267-3.125 3.532-2.033 1.264-4.67 1.264-3.975 0-6.441-2.764-2.466-2.764-2.466-7.317zm3.36.163q0 3.252 1.509 5.221 1.508 1.97 4.038 1.97 2.547 0 4.046-1.997 1.5-1.996 1.5-5.592 0-3.215-1.527-5.212-1.526-1.996-4.056-1.996-2.475 0-3.992 1.97-1.518 1.968-1.518 5.636zm20.524-9.99l4.281 7.135 4.336-7.136h3.903l-6.396 9.666 6.594 9.882h-3.866l-4.516-7.317-4.517 7.317h-3.884l6.594-9.882-6.396-9.666h3.867z" fill="#4A4A4A"></path><path fill="#4A4A4A"></path><path d="M258.043 602.203q-3.974 0-6.468-2.61-2.493-2.61-2.493-6.983v-.614q0-2.909 1.111-5.194 1.111-2.286 3.108-3.577 1.996-1.292 4.327-1.292 3.812 0 5.925 2.511 2.114 2.511 2.114 7.19v1.392h-13.243q.073 2.89 1.69 4.67 1.617 1.78 4.11 1.78 1.77 0 2.999-.723 1.228-.723 2.15-1.915l2.041 1.59q-2.457 3.775-7.37 3.775zm-.415-17.524q-2.024 0-3.397 1.472-1.373 1.473-1.698 4.129h9.792v-.253q-.145-2.548-1.373-3.948-1.229-1.4-3.324-1.4zm11.905-2.385h3.162l.108 2.457q2.24-2.818 5.854-2.818 6.197 0 6.25 6.992v12.917h-3.341v-12.936q-.018-2.113-.967-3.125-.948-1.012-2.954-1.012-1.626 0-2.854.867-1.229.868-1.915 2.277v13.929h-3.343v-19.548zm21.897 0l4.968 15.013 4.842-15.013h3.414l-7.01 19.548h-2.547l-7.082-19.548h3.415zm16.332 17.796q0-.868.515-1.446t1.544-.578q1.03 0 1.563.578.533.578.533 1.446 0 .83-.533 1.39-.533.56-1.563.56-1.03 0-1.544-.56-.515-.56-.515-1.39zm.018-15.953q0-.867.515-1.445.515-.579 1.544-.579 1.03 0 1.563.579.533.578.533 1.445 0 .831-.533 1.391t-1.563.56q-1.03 0-1.544-.56-.515-.56-.515-1.391zm-175.135 54.26v2.728h-8.817v-2.728h8.817zm12.411-7.01h3.162l.108 2.457q2.24-2.818 5.854-2.818 6.196 0 6.25 6.992v12.917h-3.342v-12.936q-.018-2.113-.966-3.125-.949-1.012-2.954-1.012-1.626 0-2.855.867-1.228.868-1.915 2.277v13.929h-3.342v-19.548zm35.988 19.548h-3.504q-.29-.578-.47-2.06-2.33 2.421-5.565 2.421-2.89 0-4.742-1.635-1.852-1.635-1.852-4.146 0-3.053 2.322-4.742 2.321-1.69 6.53-1.69h3.253v-1.535q0-1.753-1.048-2.791-1.048-1.04-3.09-1.04-1.788 0-2.999.904-1.21.903-1.21 2.186h-3.36q0-1.463 1.038-2.827 1.04-1.364 2.819-2.16 1.78-.794 3.911-.794 3.379 0 5.294 1.689 1.915 1.69 1.987 4.652v8.997q0 2.692.686 4.282v.289zm-9.05-2.547q1.57 0 2.98-.813t2.042-2.114v-4.01h-2.62q-6.143 0-6.143 3.594 0 1.572 1.048 2.457 1.048.886 2.692.886zm13.585-17h3.162l.09 2.167q2.15-2.53 5.8-2.53 4.1 0 5.582 3.144.975-1.409 2.538-2.276 1.563-.867 3.695-.867 6.431 0 6.54 6.81v13.099h-3.342v-12.9q0-2.095-.958-3.134-.957-1.039-3.216-1.039-1.86 0-3.09 1.111-1.228 1.111-1.426 2.99v12.972h-3.36v-12.81q0-4.263-4.174-4.263-3.288 0-4.499 2.8v14.273h-3.342v-19.548zm40.56 19.908q-3.975 0-6.469-2.61-2.493-2.61-2.493-6.983v-.614q0-2.909 1.111-5.194 1.111-2.286 3.108-3.577 1.996-1.292 4.327-1.292 3.812 0 5.925 2.511 2.114 2.511 2.114 7.19v1.392H220.52q.072 2.89 1.689 4.67 1.617 1.78 4.11 1.78 1.77 0 2.999-.723 1.228-.723 2.15-1.915l2.041 1.59q-2.457 3.775-7.37 3.775zm-.416-17.524q-2.024 0-3.397 1.472-1.373 1.473-1.698 4.128h9.792v-.252q-.145-2.548-1.373-3.948-1.229-1.4-3.324-1.4zm11.797 15.41q0-.867.515-1.445.515-.578 1.545-.578 1.03 0 1.562.578.533.578.533 1.446 0 .83-.533 1.39-.533.56-1.562.56-1.03 0-1.545-.56-.515-.56-.515-1.39zm.018-15.952q0-.867.515-1.445.515-.579 1.545-.579 1.03 0 1.562.579.533.578.533 1.445 0 .831-.533 1.391t-1.562.56q-1.03 0-1.545-.56-.515-.56-.515-1.391zm33.604 2.71v2.836h-11.4v9.323h13.242v2.836h-16.711V624.63h16.53v2.855h-13.061v8.455h11.4zm26.377-11.31v26.305h-3.487l-13.243-20.27v20.27h-3.487V624.63h3.487l13.279 20.361v-20.36h3.45zm7.389 0l7.48 21.698 7.515-21.698h3.794l-9.756 26.305h-3.071l-9.738-26.305h3.776zM127.17 680.481l4.969 15.013 4.841-15.013h3.415l-7.01 19.548h-2.547l-7.082-19.548h3.414zm31.743 19.548h-3.505q-.289-.578-.47-2.06-2.33 2.421-5.564 2.421-2.89 0-4.742-1.635-1.852-1.635-1.852-4.146 0-3.053 2.321-4.742 2.322-1.69 6.531-1.69h3.252v-1.535q0-1.753-1.048-2.791-1.047-1.04-3.089-1.04-1.789 0-2.999.904-1.21.903-1.21 2.186h-3.36q0-1.463 1.038-2.827 1.039-1.364 2.818-2.16 1.78-.794 3.912-.794 3.378 0 5.293 1.689 1.915 1.69 1.988 4.652v8.997q0 2.692.686 4.282v.289zm-9.051-2.547q1.572 0 2.98-.813 1.41-.813 2.042-2.114v-4.01h-2.62q-6.142 0-6.142 3.594 0 1.572 1.048 2.457 1.048.886 2.692.886zm17.235-25.203v27.75h-3.342v-27.75h3.342zm17.488 27.75l-.072-1.933q-1.951 2.294-5.727 2.294-3.125 0-4.76-1.815-1.635-1.816-1.653-5.375v-12.72h3.342v12.629q0 4.444 3.613 4.444 3.83 0 5.095-2.855V680.48h3.342v19.548h-3.18zm16.369.361q-3.975 0-6.468-2.61t-2.493-6.983v-.614q0-2.909 1.11-5.194 1.112-2.286 3.108-3.577 1.997-1.292 4.327-1.292 3.812 0 5.926 2.511 2.114 2.511 2.114 7.19v1.392h-13.243q.072 2.89 1.69 4.67 1.616 1.78 4.11 1.78 1.77 0 2.998-.723 1.229-.723 2.15-1.915l2.042 1.59q-2.457 3.775-7.371 3.775zm-.416-17.524q-2.023 0-3.396 1.472-1.373 1.473-1.699 4.129h9.792v-.253q-.144-2.548-1.373-3.948-1.228-1.4-3.324-1.4zm11.797 15.41q0-.867.515-1.445.515-.578 1.545-.578 1.03 0 1.563.578.533.578.533 1.446 0 .83-.533 1.39-.533.56-1.563.56-1.03 0-1.545-.56-.515-.56-.515-1.39zm.019-15.952q0-.867.514-1.445.515-.579 1.545-.579 1.03 0 1.563.579.533.578.533 1.445 0 .831-.533 1.391t-1.563.56q-1.03 0-1.545-.56-.514-.56-.514-1.391zm34.723 7.84v.308q0 4.462-2.041 7.19-2.042 2.728-5.529 2.728-3.559 0-5.6-2.258v9.413h-3.343V680.48h3.054l.162 2.168q2.042-2.53 5.673-2.53 3.523 0 5.574 2.657 2.05 2.655 2.05 7.389zm-3.342-.072q0-3.306-1.41-5.22-1.408-1.916-3.866-1.916-3.035 0-4.552 2.692v9.34q1.5 2.674 4.589 2.674 2.402 0 3.82-1.906 1.419-1.906 1.419-5.664zm17.036-9.72v3.108q-.758-.126-1.644-.126-3.288 0-4.462 2.8v13.875h-3.342v-19.548h3.252l.054 2.258q1.644-2.62 4.661-2.62.976 0 1.481.254zm1.825 9.937v-.235q0-2.872 1.13-5.167 1.128-2.294 3.143-3.54 2.014-1.247 4.598-1.247 3.992 0 6.459 2.764 2.466 2.764 2.466 7.353v.235q0 2.854-1.093 5.122-1.093 2.267-3.126 3.532-2.032 1.264-4.67 1.264-3.975 0-6.44-2.764-2.467-2.764-2.467-7.317zm3.36.163q0 3.252 1.51 5.221 1.508 1.97 4.037 1.97 2.547 0 4.047-1.997 1.5-1.996 1.5-5.592 0-3.215-1.527-5.212-1.527-1.996-4.056-1.996-2.475 0-3.993 1.97-1.517 1.968-1.517 5.636zm17.814-.127v-.253q0-4.498 2.132-7.235t5.582-2.737q3.433 0 5.438 2.348V672.28h3.343v27.75h-3.072l-.162-2.096q-2.006 2.457-5.583 2.457-3.396 0-5.537-2.782t-2.141-7.263zm3.342.127q0 3.324 1.373 5.203 1.373 1.879 3.794 1.879 3.18 0 4.643-2.855v-8.979q-1.5-2.764-4.607-2.764-2.457 0-3.83 1.897-1.373 1.897-1.373 5.619zm30.478 9.557l-.072-1.933q-1.951 2.294-5.727 2.294-3.125 0-4.76-1.815-1.635-1.816-1.654-5.375v-12.72h3.343v12.629q0 4.444 3.613 4.444 3.83 0 5.095-2.855V680.48h3.342v19.548h-3.18zm16.098-2.367q1.788 0 3.125-1.084t1.481-2.71h3.162q-.09 1.68-1.156 3.198-1.066 1.518-2.846 2.421-1.78.903-3.767.903-3.992 0-6.35-2.664-2.358-2.665-2.358-7.29v-.56q0-2.855 1.048-5.077t3.008-3.45q1.96-1.23 4.634-1.23 3.289 0 5.466 1.97t2.321 5.113h-3.162q-.144-1.897-1.436-3.117t-3.189-1.22q-2.547 0-3.947 1.835-1.4 1.833-1.4 5.302v.632q0 3.379 1.39 5.204 1.392 1.824 3.976 1.824zm12.718-21.914h3.343v4.733h3.649v2.584h-3.65v12.122q0 1.175.488 1.762t1.662.587q.579 0 1.59-.217v2.71q-1.319.361-2.565.361-2.24 0-3.379-1.355-1.138-1.355-1.138-3.848v-12.122h-3.559v-2.584h3.56v-4.733zm14.526 4.733v19.548h-3.343v-19.548h3.343zm-3.614-5.185q0-.813.497-1.373t1.473-.56q.975 0 1.481.56.506.56.506 1.373t-.506 1.355q-.506.542-1.481.542-.976 0-1.473-.542-.497-.542-.497-1.355zm8.076 15.013v-.235q0-2.872 1.13-5.167 1.128-2.294 3.143-3.54 2.014-1.247 4.598-1.247 3.992 0 6.458 2.764t2.466 7.353v.235q0 2.854-1.093 5.122-1.093 2.267-3.125 3.532-2.033 1.264-4.67 1.264-3.975 0-6.44-2.764-2.467-2.764-2.467-7.317zm3.36.163q0 3.252 1.509 5.221 1.508 1.97 4.038 1.97 2.547 0 4.047-1.997 1.5-1.996 1.5-5.592 0-3.215-1.527-5.212-1.527-1.996-4.056-1.996-2.475 0-3.993 1.97-1.518 1.968-1.518 5.636zm18.627-9.99h3.161l.109 2.456q2.24-2.818 5.853-2.818 6.197 0 6.251 6.992v12.917h-3.342v-12.936q-.018-2.113-.966-3.125-.949-1.012-2.954-1.012-1.626 0-2.855.867-1.228.868-1.915 2.277v13.929h-3.342v-19.548z" fill="#000"></path><path d="M134.054 735.102l2.764-.018q0 2.855-1.69 4.815-1.689 1.96-4.164 1.96-1.3 0-2.457-.478-1.156-.48-2.683-1.816-1.526-1.337-2.195-1.662-.668-.325-1.427-.325-1.409 0-2.168.966-.759.967-.759 2.665l-2.908.036q0-2.89 1.662-4.751 1.662-1.861 4.173-1.861 1.373 0 2.638.578 1.264.578 2.854 2.032 1.59 1.455 2.746 1.635l.524.036q1.373 0 2.232-1.047.858-1.048.858-2.765z" fill="#E20000"></path><path d="M151.699 742.347q0-1.662-1.165-2.8-1.166-1.138-3.93-2.06-3.848-1.174-5.61-3.062-1.761-1.888-1.761-4.797 0-2.963 1.725-4.86 1.726-1.896 4.743-2.258v-3.956h2.692v3.974q3.035.416 4.724 2.548 1.69 2.131 1.69 5.835h-3.325q0-2.547-1.21-4.047-1.21-1.5-3.27-1.5-2.15 0-3.289 1.112-1.138 1.11-1.138 3.098 0 1.843 1.202 2.936 1.201 1.093 3.956 1.987 2.755.895 4.3 1.97 1.545 1.074 2.276 2.502.732 1.427.732 3.342 0 3.053-1.834 4.914-1.833 1.86-5.14 2.204v3.45h-2.673v-3.45q-3.36-.307-5.267-2.394-1.906-2.086-1.906-5.663h3.343q0 2.51 1.318 3.866 1.32 1.355 3.74 1.355 2.367 0 3.722-1.138 1.355-1.139 1.355-3.108z" fill="#3090E9"></path><path d="M184.248 749.122v2.728h-16.55v-2.728h16.55z" fill="#000"></path></g></g></svg>