<svg viewBox="0 0 1200 900" xmlns="http://www.w3.org/2000/svg"><g fill="none" fill-rule="evenodd"><path fill="#000" fill-rule="nonzero" d="M71 159h1038v8H71zm3.047-52.125h9.187L92 131.625l8.719-24.75h9.234V141h-7.055v-9.328l.704-16.102L94.39 141h-4.829l-9.187-25.406.703 16.078V141h-7.031v-34.125zM135.643 141h-6.844q-.469-.914-.68-2.273-2.46 2.742-6.398 2.742-3.727 0-6.176-2.156-2.45-2.157-2.45-5.438 0-4.031 2.989-6.188 2.988-2.156 8.637-2.18h3.117v-1.452q0-1.758-.903-2.813-.902-1.055-2.847-1.055-1.711 0-2.684.82-.972.821-.972 2.25h-6.774q0-2.202 1.36-4.077 1.359-1.875 3.843-2.942 2.485-1.066 5.578-1.066 4.688 0 7.442 2.355 2.754 2.356 2.754 6.621v10.993q.023 3.609 1.008 5.46V141zm-12.446-4.71q1.5 0 2.766-.669 1.265-.668 1.875-1.793v-4.36h-2.531q-5.086 0-5.415 3.516l-.023.399q0 1.265.89 2.086.891.82 2.438.82zm14.955-20.65h6.375l.211 2.93q2.719-3.398 7.29-3.398 4.03 0 6 2.367 1.968 2.367 2.015 7.078V141h-6.774v-16.219q0-2.156-.937-3.129-.938-.972-3.117-.972-2.86 0-4.29 2.437V141h-6.773v-25.36zM185.17 141h-6.844q-.469-.914-.68-2.273-2.46 2.742-6.398 2.742-3.727 0-6.176-2.156-2.45-2.157-2.45-5.438 0-4.031 2.99-6.188 2.987-2.156 8.636-2.18h3.117v-1.452q0-1.758-.902-2.813-.903-1.055-2.848-1.055-1.71 0-2.684.82-.972.821-.972 2.25h-6.774q0-2.202 1.36-4.077t3.843-2.942q2.485-1.066 5.579-1.066 4.687 0 7.441 2.355 2.754 2.356 2.754 6.621v10.993q.023 3.609 1.008 5.46V141zm-12.446-4.71q1.5 0 2.766-.669 1.266-.668 1.875-1.793v-4.36h-2.531q-5.086 0-5.414 3.516l-.024.399q0 1.265.89 2.086.892.82 2.438.82zm14.112-7.876v-.281q0-5.836 2.777-9.399 2.777-3.562 7.488-3.562 4.172 0 6.492 2.86l.282-2.391h6.14v24.515q0 3.328-1.511 5.79-1.512 2.46-4.254 3.75-2.743 1.288-6.422 1.288-2.79 0-5.438-1.113-2.648-1.113-4.007-2.871l3-4.125q2.53 2.836 6.14 2.836 2.695 0 4.195-1.441 1.5-1.442 1.5-4.09v-1.36q-2.343 2.649-6.164 2.649-4.57 0-7.394-3.574-2.824-3.575-2.824-9.48zm6.773.211q0 3.445 1.383 5.402 1.383 1.957 3.797 1.957 3.094 0 4.43-2.32V123q-1.36-2.32-4.383-2.32-2.438 0-3.832 1.992-1.395 1.992-1.395 5.953zm27.213-12.984V141h-6.797v-25.36h6.797zm-7.195-6.563q0-1.523 1.02-2.508 1.019-.984 2.776-.984 1.735 0 2.766.984 1.031.985 1.031 2.508 0 1.547-1.043 2.531-1.043.985-2.754.985-1.71 0-2.753-.985-1.043-.984-1.043-2.53zm11.087 6.563h6.375l.211 2.93q2.72-3.4 7.29-3.4 4.03 0 6 2.368 1.968 2.367 2.015 7.078V141h-6.773v-16.219q0-2.156-.938-3.129-.937-.972-3.117-.972-2.86 0-4.29 2.437V141h-6.773v-25.36zm24.494 12.773v-.281q0-5.836 2.778-9.399 2.777-3.562 7.488-3.562 4.172 0 6.492 2.86l.281-2.391h6.141v24.515q0 3.328-1.512 5.79-1.511 2.46-4.253 3.75-2.743 1.288-6.422 1.288-2.79 0-5.438-1.113-2.648-1.113-4.008-2.871l3-4.125q2.532 2.836 6.14 2.836 2.696 0 4.196-1.441 1.5-1.442 1.5-4.09v-1.36q-2.344 2.649-6.164 2.649-4.57 0-7.394-3.574-2.825-3.575-2.825-9.48zm6.774.211q0 3.445 1.383 5.402 1.382 1.957 3.797 1.957 3.093 0 4.43-2.32V123q-1.36-2.32-4.384-2.32-2.437 0-3.832 1.992-1.394 1.992-1.394 5.953zm44.816-13.148l-.094 6.515q-1.382-.187-2.437-.187-3.844 0-5.04 2.601V141h-6.773v-25.36h6.399l.187 3.024q2.04-3.492 5.649-3.492 1.125 0 2.11.305zm12.846 25.992q-5.578 0-9.082-3.422-3.504-3.422-3.504-9.117v-.657q0-3.82 1.476-6.832 1.477-3.011 4.184-4.64 2.707-1.63 6.176-1.63 5.203 0 8.191 3.282 2.988 3.281 2.988 9.305v2.765h-16.148q.328 2.485 1.98 3.985 1.653 1.5 4.184 1.5 3.914 0 6.117-2.836l3.328 3.726q-1.523 2.157-4.125 3.364-2.601 1.207-5.765 1.207zm-.774-20.813q-2.015 0-3.27 1.36-1.253 1.359-1.605 3.89h9.422v-.539q-.047-2.25-1.219-3.48-1.171-1.23-3.328-1.23zM333.52 105v36h-6.796v-36h6.797zm15.706 36.469q-5.579 0-9.082-3.422-3.504-3.422-3.504-9.117v-.657q0-3.82 1.476-6.832 1.477-3.011 4.184-4.64 2.707-1.63 6.176-1.63 5.203 0 8.191 3.282 2.988 3.281 2.988 9.305v2.765h-16.148q.328 2.485 1.98 3.985 1.653 1.5 4.184 1.5 3.914 0 6.117-2.836l3.328 3.726q-1.523 2.157-4.125 3.364-2.601 1.207-5.765 1.207zm-.774-20.813q-2.015 0-3.27 1.36-1.253 1.359-1.605 3.89H353v-.539q-.047-2.25-1.219-3.48-1.172-1.23-3.328-1.23zM383.493 141h-6.844q-.468-.914-.68-2.273-2.46 2.742-6.398 2.742-3.726 0-6.176-2.156-2.449-2.157-2.449-5.438 0-4.031 2.989-6.188 2.988-2.156 8.636-2.18h3.117v-1.452q0-1.758-.902-2.813-.902-1.055-2.848-1.055-1.71 0-2.683.82-.973.821-.973 2.25h-6.773q0-2.202 1.36-4.077 1.358-1.875 3.843-2.942 2.484-1.066 5.578-1.066 4.688 0 7.441 2.355 2.754 2.356 2.754 6.621v10.993q.024 3.609 1.008 5.46V141zm-12.445-4.71q1.5 0 2.765-.669 1.266-.668 1.875-1.793v-4.36h-2.53q-5.087 0-5.415 3.516l-.023.399q0 1.265.89 2.086.89.82 2.438.82zm28.83-2.298q0-1.242-1.23-1.957-1.231-.715-3.95-1.277-9.047-1.899-9.047-7.688 0-3.375 2.801-5.636 2.8-2.262 7.324-2.262 4.828 0 7.723 2.273 2.894 2.274 2.894 5.907h-6.773q0-1.454-.938-2.403-.937-.949-2.93-.949-1.71 0-2.648.773-.937.774-.937 1.97 0 1.124 1.066 1.816 1.067.691 3.598 1.195 2.531.504 4.266 1.137 5.367 1.968 5.367 6.82 0 3.469-2.977 5.613-2.976 2.145-7.687 2.145-3.188 0-5.66-1.137-2.473-1.137-3.88-3.117-1.406-1.98-1.406-4.278h6.422q.094 1.805 1.336 2.766 1.242.961 3.328.961 1.946 0 2.942-.738.996-.738.996-1.934zm21.072 7.477q-5.578 0-9.082-3.422-3.504-3.422-3.504-9.117v-.657q0-3.82 1.477-6.832 1.476-3.011 4.183-4.64 2.707-1.63 6.176-1.63 5.203 0 8.191 3.282 2.989 3.281 2.989 9.305v2.765h-16.15q.328 2.485 1.98 3.985 1.653 1.5 4.184 1.5 3.914 0 6.118-2.836l3.328 3.726q-1.524 2.157-4.125 3.364-2.602 1.207-5.766 1.207zm-.773-20.813q-2.016 0-3.27 1.36-1.254 1.359-1.605 3.89h9.421v-.539q-.046-2.25-1.218-3.48t-3.328-1.23zm27.236 13.336q0-1.242-1.23-1.957-1.231-.715-3.95-1.277-9.047-1.899-9.047-7.688 0-3.375 2.801-5.636 2.8-2.262 7.324-2.262 4.828 0 7.723 2.273 2.894 2.274 2.894 5.907h-6.773q0-1.454-.938-2.403-.937-.949-2.93-.949-1.71 0-2.648.773-.937.774-.937 1.97 0 1.124 1.066 1.816 1.067.691 3.598 1.195 2.531.504 4.266 1.137 5.367 1.968 5.367 6.82 0 3.469-2.977 5.613-2.976 2.145-7.687 2.145-3.188 0-5.66-1.137-2.473-1.137-3.88-3.117-1.406-1.98-1.406-4.278h6.422q.094 1.805 1.336 2.766 1.242.961 3.328.961 1.946 0 2.942-.738.996-.738.996-1.934z"></path><path d="M120.874 492l-4.784-14.209H91.177L86.44 492H71.332l25.67-68.96h13.167L135.982 492h-15.108zm-17.288-51.531l-8.573 25.813h17.24l-8.667-25.813zM168.973 492l-.379-5.21q-5.068 6.157-14.02 6.157-8.24 0-12.574-4.736t-4.429-13.878v-33.58h13.688v33.107q0 8.004 7.294 8.004 6.963 0 9.568-4.83v-36.281h13.735V492h-12.883zm22.808-63.846h13.688v12.599h8.762v10.04h-8.762v25.577q0 2.842 1.09 4.073 1.089 1.232 4.167 1.232 2.274 0 4.026-.332v10.373q-4.026 1.231-8.288 1.231-14.399 0-14.683-14.54v-27.613h-7.483v-10.041h7.483v-12.599zm23.423 38.365v-.616q0-7.626 2.937-13.593 2.936-5.968 8.454-9.236 5.518-3.268 12.812-3.268 10.373 0 16.932 6.346 6.56 6.347 7.318 17.24l.095 3.505q0 11.794-6.584 18.922-6.583 7.128-17.666 7.128t-17.69-7.104q-6.608-7.105-6.608-19.324zm13.688.378q0 7.294 2.747 11.155 2.748 3.86 7.863 3.86 4.973 0 7.767-3.813 2.795-3.813 2.795-12.196 0-7.152-2.795-11.083-2.794-3.931-7.862-3.931-5.02 0-7.768 3.907-2.747 3.908-2.747 12.101zm38.201-.331v-.568q0-11.794 5.613-18.993 5.612-7.2 15.132-7.2 8.43 0 13.12 5.779l.568-4.831h12.41v49.542q0 6.726-3.055 11.699t-8.597 7.578q-5.541 2.605-12.977 2.605-5.637 0-10.989-2.25-5.352-2.25-8.099-5.802l6.063-8.336q5.115 5.731 12.409 5.731 5.447 0 8.478-2.913 3.031-2.913 3.031-8.265v-2.747q-4.736 5.352-12.456 5.352-9.236 0-14.944-7.223-5.707-7.223-5.707-19.158zm13.688.426q0 6.963 2.795 10.917 2.794 3.955 7.672 3.955 6.252 0 8.952-4.689v-21.55q-2.747-4.689-8.857-4.689-4.926 0-7.744 4.026-2.818 4.026-2.818 12.03zm64.156 25.955q-11.272 0-18.353-6.915-7.081-6.915-7.081-18.424v-1.326q0-7.72 2.984-13.807 2.984-6.086 8.454-9.378 5.47-3.291 12.48-3.291 10.515 0 16.554 6.63 6.039 6.631 6.039 18.804v5.589H333.38q.663 5.02 4.003 8.051 3.339 3.032 8.454 3.032 7.91 0 12.362-5.731l6.725 7.53q-3.078 4.358-8.336 6.797-5.257 2.44-11.651 2.44zm-1.563-42.058q-4.073 0-6.607 2.747t-3.245 7.862h19.04v-1.09q-.094-4.546-2.462-7.033-2.369-2.486-6.726-2.486zm27.023-10.136h12.883l.426 5.92q5.494-6.867 14.73-6.867 8.147 0 12.125 4.783 3.979 4.784 4.073 14.304V492h-13.688v-32.775q0-4.358-1.894-6.323-1.895-1.966-6.3-1.966-5.778 0-8.667 4.926V492h-13.688v-51.247zm75.097 52.194q-11.273 0-18.353-6.915-7.081-6.915-7.081-18.424v-1.326q0-7.72 2.984-13.807 2.984-6.086 8.454-9.378 5.47-3.291 12.48-3.291 10.515 0 16.554 6.63 6.039 6.631 6.039 18.804v5.589h-32.634q.663 5.02 4.002 8.051 3.34 3.032 8.455 3.032 7.91 0 12.362-5.731l6.725 7.53q-3.078 4.358-8.336 6.797-5.257 2.44-11.651 2.44zm-1.563-42.058q-4.073 0-6.607 2.747t-3.245 7.862h19.04v-1.09q-.094-4.546-2.463-7.033-2.368-2.486-6.725-2.486zm56.293-10.468l-.189 13.167q-2.794-.379-4.926-.379-7.767 0-10.183 5.258V492h-13.688v-51.247h12.93l.38 6.11q4.12-7.057 11.414-7.057 2.273 0 4.262.615zm45.4 51.579h-13.83q-.947-1.847-1.373-4.594-4.973 5.541-12.93 5.541-7.531 0-12.48-4.357-4.95-4.358-4.95-10.988 0-8.147 6.039-12.504 6.039-4.358 17.453-4.405h6.3v-2.937q0-3.552-1.824-5.683-1.824-2.132-5.755-2.132-3.457 0-5.423 1.658-1.965 1.658-1.965 4.547h-13.688q0-4.452 2.747-8.241 2.747-3.79 7.767-5.944 5.02-2.155 11.273-2.155 9.472 0 15.038 4.76 5.565 4.76 5.565 13.38v22.213q.047 7.294 2.036 11.036V492zm-25.15-9.52q3.032 0 5.59-1.35 2.557-1.35 3.788-3.623v-8.81h-5.115q-10.278 0-10.94 7.105l-.048.805q0 2.558 1.8 4.215 1.8 1.658 4.926 1.658zm33.228-54.326h13.688v12.599h8.762v10.04h-8.762v25.577q0 2.842 1.09 4.073 1.089 1.232 4.167 1.232 2.274 0 4.026-.332v10.373q-4.026 1.231-8.288 1.231-14.399 0-14.683-14.54v-27.613h-7.483v-10.041h7.483v-12.599zm50.563 64.793q-11.273 0-18.354-6.915-7.08-6.915-7.08-18.424v-1.326q0-7.72 2.984-13.807 2.983-6.086 8.454-9.378 5.47-3.291 12.48-3.291 10.515 0 16.554 6.63 6.038 6.631 6.038 18.804v5.589h-32.633q.663 5.02 4.002 8.051 3.34 3.032 8.455 3.032 7.91 0 12.361-5.731l6.726 7.53q-3.079 4.358-8.336 6.797-5.257 2.44-11.651 2.44zm-1.563-42.058q-4.073 0-6.607 2.747t-3.245 7.862h19.04v-1.09q-.094-4.546-2.463-7.033-2.368-2.486-6.725-2.486zm25.176 15.109q0-11.983 5.375-19.088 5.376-7.104 14.707-7.104 7.483 0 12.361 5.589V419.25h13.736V492h-12.362l-.663-5.447q-5.115 6.394-13.167 6.394-9.046 0-14.517-7.128-5.47-7.128-5.47-19.821zm13.688.994q0 7.2 2.51 11.036 2.51 3.836 7.294 3.836 6.347 0 8.951-5.352v-20.224q-2.557-5.352-8.856-5.352-9.9 0-9.9 16.056zm58.924-.473v-.616q0-7.626 2.937-13.593 2.936-5.968 8.454-9.236 5.518-3.268 12.812-3.268 10.372 0 16.932 6.346 6.56 6.347 7.318 17.24l.095 3.505q0 11.794-6.584 18.922-6.583 7.128-17.666 7.128-11.084 0-17.69-7.104-6.608-7.105-6.608-19.324zm13.688.378q0 7.294 2.747 11.155 2.747 3.86 7.863 3.86 4.973 0 7.767-3.813 2.795-3.813 2.795-12.196 0-7.152-2.795-11.083-2.794-3.931-7.862-3.931-5.02 0-7.768 3.907-2.747 3.908-2.747 12.101zm69.176-26.476l-.189 13.167q-2.794-.379-4.926-.379-7.767 0-10.183 5.258V492h-13.688v-51.247h12.93l.38 6.11q4.12-7.057 11.414-7.057 2.273 0 4.262.615zM825.181 492h-13.735v-41.206h-7.626v-10.041h7.626v-4.357q0-8.62 4.949-13.38 4.95-4.76 13.854-4.76 2.842 0 6.962.947l-.142 10.609q-1.705-.426-4.168-.426-7.72 0-7.72 7.246v4.12h10.183v10.042h-10.183V492zm28.633-51.247V492H840.08v-51.247h13.735zm-14.54-13.262q0-3.078 2.06-5.068 2.06-1.989 5.613-1.989 3.504 0 5.588 1.99 2.084 1.989 2.084 5.067 0 3.126-2.107 5.115-2.108 1.99-5.565 1.99-3.458 0-5.566-1.99-2.107-1.989-2.107-5.115zm33.796 13.262l8.43 15.298 8.62-15.298h14.636l-14.588 25.102L905.37 492h-14.68l-9.141-16.104L872.454 492h-14.73l15.204-26.145-14.54-25.102h14.682zm57.809 52.194q-11.273 0-18.353-6.915-7.081-6.915-7.081-18.424v-1.326q0-7.72 2.984-13.807 2.984-6.086 8.454-9.378 5.47-3.291 12.48-3.291 10.515 0 16.554 6.63 6.039 6.631 6.039 18.804v5.589h-32.634q.663 5.02 4.002 8.051 3.34 3.032 8.455 3.032 7.91 0 12.362-5.731l6.725 7.53q-3.078 4.358-8.336 6.797-5.257 2.44-11.651 2.44zm-1.563-42.058q-4.073 0-6.607 2.747t-3.245 7.862h19.04v-1.09q-.094-4.546-2.462-7.033-2.369-2.486-6.726-2.486zm25.176 15.109q0-11.983 5.376-19.088 5.375-7.104 14.706-7.104 7.483 0 12.362 5.589V419.25h13.735V492h-12.362l-.663-5.447q-5.115 6.394-13.167 6.394-9.046 0-14.517-7.128-5.47-7.128-5.47-19.821zm13.688.994q0 7.2 2.51 11.036 2.51 3.836 7.294 3.836 6.347 0 8.952-5.352v-20.224q-2.558-5.352-8.857-5.352-9.9 0-9.9 16.056zM103.823 587.703H91.366V612H77.157v-68.96h26.903q7.767 0 13.664 2.84 5.897 2.843 9.07 8.076 3.173 5.234 3.173 11.912 0 10.136-6.938 15.985-6.94 5.85-19.206 5.85zm-12.457-33.155v21.645h12.694q5.636 0 8.596-2.652t2.96-7.578q0-5.068-2.984-8.194-2.984-3.126-8.24-3.22H91.365zm73.345 5.873l-.19 13.167q-2.794-.379-4.926-.379-7.767 0-10.183 5.258V612h-13.688v-51.247h12.93l.38 6.11q4.12-7.057 11.414-7.057 2.273 0 4.263.615zm25.98 52.526q-11.272 0-18.353-6.915-7.08-6.915-7.08-18.424v-1.326q0-7.72 2.983-13.807 2.984-6.086 8.455-9.378 5.47-3.291 12.48-3.291 10.515 0 16.553 6.63 6.04 6.631 6.04 18.804v5.589h-32.634q.663 5.02 4.002 8.051 3.34 3.032 8.455 3.032 7.91 0 12.361-5.731l6.726 7.53q-3.079 4.358-8.336 6.797-5.257 2.44-11.651 2.44zm-1.562-42.058q-4.074 0-6.608 2.747-2.533 2.747-3.244 7.862h19.04v-1.09q-.095-4.546-2.463-7.033-2.368-2.486-6.725-2.486zm73.439 15.25v.711q0 11.84-5.376 18.97-5.376 7.127-14.517 7.127-7.767 0-12.551-5.4v24.156h-13.688v-70.95h12.693l.474 5.02q4.973-5.967 12.977-5.967 9.473 0 14.73 7.01 5.258 7.01 5.258 19.324zm-13.688-.284q0-7.151-2.534-11.035-2.534-3.884-7.365-3.884-6.442 0-8.857 4.926v20.982q2.51 5.068 8.951 5.068 9.805 0 9.805-16.057zm16.934.664v-.616q0-7.626 2.937-13.593 2.936-5.968 8.454-9.236 5.518-3.268 12.812-3.268 10.373 0 16.932 6.346 6.56 6.347 7.318 17.24l.095 3.505q0 11.794-6.584 18.922-6.583 7.128-17.666 7.128t-17.69-7.104q-6.608-7.105-6.608-19.324zm13.688.378q0 7.294 2.747 11.155 2.747 3.86 7.863 3.86 4.973 0 7.767-3.813 2.795-3.813 2.795-12.196 0-7.152-2.795-11.083-2.794-3.931-7.862-3.931-5.02 0-7.768 3.907-2.747 3.908-2.747 12.101zm54.636-47.647V612h-13.735v-72.75h13.735zM373.381 612l-.379-5.21q-5.068 6.157-14.02 6.157-8.24 0-12.574-4.736t-4.429-13.878v-33.58h13.688v33.107q0 8.004 7.294 8.004 6.962 0 9.567-4.83v-36.281h13.736V612H373.38zm63.635 0h-13.83q-.948-1.847-1.374-4.594-4.973 5.541-12.93 5.541-7.53 0-12.48-4.357-4.95-4.358-4.95-10.988 0-8.147 6.04-12.504 6.038-4.358 17.453-4.405h6.299v-2.937q0-3.552-1.824-5.683-1.823-2.132-5.754-2.132-3.458 0-5.423 1.658-1.966 1.658-1.966 4.547H392.59q0-4.452 2.747-8.241 2.747-3.79 7.768-5.944 5.02-2.155 11.272-2.155 9.473 0 15.038 4.76 5.565 4.76 5.565 13.38v22.213q.048 7.294 2.037 11.036V612zm-25.15-9.52q3.031 0 5.589-1.35 2.557-1.35 3.789-3.623v-8.81h-5.115q-10.278 0-10.941 7.105l-.048.805q0 2.558 1.8 4.215 1.8 1.658 4.926 1.658zm33.228-54.326h13.688v12.599h8.762v10.04h-8.762v25.577q0 2.842 1.089 4.073 1.09 1.232 4.168 1.232 2.273 0 4.026-.332v10.373q-4.026 1.231-8.289 1.231-14.398 0-14.682-14.54v-27.613h-7.484v-10.041h7.484v-12.599zm50.562 64.793q-11.272 0-18.353-6.915-7.08-6.915-7.08-18.424v-1.326q0-7.72 2.983-13.807 2.984-6.086 8.454-9.378 5.47-3.291 12.48-3.291 10.515 0 16.554 6.63 6.039 6.631 6.039 18.804v5.589H484.1q.663 5.02 4.002 8.051 3.339 3.032 8.454 3.032 7.91 0 12.362-5.731l6.725 7.53q-3.078 4.358-8.335 6.797-5.258 2.44-11.652 2.44zm-1.563-42.058q-4.073 0-6.607 2.747t-3.244 7.862h19.04v-1.09q-.095-4.546-2.463-7.033-2.368-2.486-6.726-2.486zm25.176 15.109q0-11.983 5.376-19.088 5.376-7.104 14.706-7.104 7.483 0 12.362 5.589V539.25h13.735V612h-12.362l-.663-5.447q-5.115 6.394-13.167 6.394-9.046 0-14.516-7.128-5.471-7.128-5.471-19.821zm13.688.994q0 7.2 2.51 11.036 2.51 3.836 7.294 3.836 6.347 0 8.952-5.352v-20.224q-2.558-5.352-8.857-5.352-9.899 0-9.899 16.056zm98.963 20.414q0-2.274 1.35-3.79 1.35-1.515 4.05-1.515 2.7 0 4.097 1.516 1.397 1.515 1.397 3.789 0 2.178-1.397 3.647-1.398 1.468-4.097 1.468-2.7 0-4.05-1.468-1.35-1.469-1.35-3.647zM695.792 612l-14.967-27.897h-16.198V612h-9.141v-68.96h22.829q11.651 0 17.927 5.304t6.276 15.44q0 6.442-3.482 11.225-3.48 4.784-9.685 7.152l16.198 29.27V612h-9.757zm-31.165-61.478v26.145h13.972q6.773 0 10.775-3.505 4.002-3.505 4.002-9.378 0-6.394-3.812-9.804-3.813-3.41-11.012-3.458h-13.925zm67.424 62.425q-10.42 0-16.956-6.844t-6.536-18.306v-1.61q0-7.625 2.913-13.617 2.912-5.991 8.146-9.378 5.234-3.386 11.344-3.386 9.993 0 15.535 6.583 5.541 6.584 5.541 18.85v3.648h-34.717q.19 7.578 4.428 12.243 4.24 4.665 10.776 4.665 4.641 0 7.862-1.894 3.22-1.895 5.636-5.02l5.352 4.167q-6.441 9.9-19.324 9.9zm-1.09-45.942q-5.304 0-8.904 3.86-3.6 3.86-4.452 10.822h25.671v-.663q-.379-6.678-3.6-10.348-3.22-3.671-8.714-3.671zm37.633-27.755V612h-8.762v-72.75h8.762zm32.186 73.697q-10.42 0-16.956-6.844-6.537-6.844-6.537-18.306v-1.61q0-7.625 2.913-13.617 2.913-5.991 8.147-9.378 5.233-3.386 11.343-3.386 9.994 0 15.535 6.583 5.542 6.584 5.542 18.85v3.648H786.05q.19 7.578 4.428 12.243 4.24 4.665 10.775 4.665 4.642 0 7.863-1.894 3.22-1.895 5.636-5.02l5.352 4.167q-6.442 9.9-19.324 9.9zm-1.09-45.942q-5.304 0-8.904 3.86-3.6 3.86-4.452 10.822h25.67v-.663q-.378-6.678-3.599-10.348-3.22-3.671-8.715-3.671zM868.63 612h-9.189q-.758-1.516-1.231-5.4-6.11 6.347-14.588 6.347-7.578 0-12.433-4.286-4.855-4.286-4.855-10.87 0-8.004 6.087-12.433 6.086-4.428 17.121-4.428h8.526v-4.026q0-4.594-2.747-7.318-2.747-2.723-8.1-2.723-4.688 0-7.862 2.368-3.173 2.368-3.173 5.73h-8.81q0-3.836 2.724-7.411 2.723-3.576 7.388-5.66 4.666-2.084 10.255-2.084 8.857 0 13.877 4.428 5.02 4.429 5.21 12.196v23.587q0 7.057 1.8 11.225V612zm-23.73-6.678q4.121 0 7.816-2.132 3.694-2.13 5.352-5.541v-10.515H851.2q-16.103 0-16.103 9.426 0 4.12 2.747 6.441 2.747 2.32 7.057 2.32zm62.404-6.915q0-3.553-2.676-5.518-2.676-1.966-9.33-3.387-6.655-1.42-10.562-3.41-3.908-1.989-5.779-4.736-1.87-2.747-1.87-6.536 0-6.3 5.328-10.657t13.617-4.357q8.715 0 14.138 4.5 5.423 4.499 5.423 11.508h-8.81q0-3.6-3.055-6.204-3.055-2.605-7.696-2.605-4.784 0-7.484 2.084t-2.7 5.447q0 3.173 2.51 4.783 2.511 1.61 9.071 3.079 6.56 1.468 10.633 3.505 4.073 2.036 6.039 4.902 1.965 2.865 1.965 6.986 0 6.868-5.494 11.012t-14.256 4.144q-6.157 0-10.894-2.178-4.736-2.18-7.412-6.087-2.676-3.907-2.676-8.454h8.762q.237 4.405 3.529 6.986 3.292 2.581 8.69 2.581 4.974 0 7.982-2.013 3.007-2.012 3.007-5.375zm38.343 14.54q-10.42 0-16.956-6.844t-6.536-18.306v-1.61q0-7.625 2.913-13.617 2.913-5.991 8.146-9.378 5.234-3.386 11.344-3.386 9.993 0 15.535 6.583 5.541 6.584 5.541 18.85v3.648h-34.717q.19 7.578 4.429 12.243t10.775 4.665q4.641 0 7.862-1.894 3.22-1.895 5.636-5.02l5.352 4.167q-6.441 9.9-19.324 9.9zm-1.09-45.942q-5.304 0-8.904 3.86-3.6 3.86-4.452 10.822h25.671v-.663q-.379-6.678-3.6-10.348-3.22-3.671-8.714-3.671z" fill="#D2D2D2" fill-rule="nonzero"></path><path d="M115.095 303.04h14.257v45.42q0 11.32-7.081 17.904-7.081 6.583-19.348 6.583-12.078 0-19.182-6.394-7.105-6.394-7.247-17.572V303.04h14.21v45.516q0 6.773 3.244 9.875 3.244 3.103 8.975 3.103 11.983 0 12.172-12.599V303.04zm21.624 17.713h12.883l.426 5.92q5.494-6.867 14.73-6.867 8.146 0 12.125 4.783 3.978 4.784 4.073 14.304V372h-13.688v-32.775q0-4.358-1.894-6.323-1.895-1.966-6.3-1.966-5.778 0-8.667 4.926V372h-13.688v-51.247zm65.956 0V372h-13.736v-51.247h13.736zm-14.541-13.262q0-3.078 2.06-5.068 2.06-1.989 5.613-1.989 3.505 0 5.589 1.99 2.084 1.989 2.084 5.067 0 3.126-2.108 5.115-2.108 1.99-5.565 1.99-3.458 0-5.565-1.99-2.108-1.989-2.108-5.115zm20.582 38.412q0-12.078 5.375-19.088 5.376-7.01 14.754-7.01 8.241 0 13.12 6.3l.9-5.352h12.03v70.95h-13.736v-24.108q-4.736 5.352-12.409 5.352-9.14 0-14.588-7.104-5.446-7.105-5.446-19.94zm13.688.994q0 7.342 2.58 11.178 2.582 3.837 7.271 3.837 6.3 0 8.904-5.02V335.72q-2.557-4.831-8.81-4.831-4.735 0-7.34 3.836-2.605 3.837-2.605 12.172zM293.617 372l-.38-5.21q-5.067 6.157-14.019 6.157-8.241 0-12.575-4.736t-4.428-13.878v-33.58h13.688v33.107q0 8.004 7.294 8.004 6.962 0 9.567-4.83v-36.281H306.5V372h-12.882zm43.695.947q-11.273 0-18.354-6.915-7.08-6.915-7.08-18.424v-1.326q0-7.72 2.983-13.807 2.984-6.086 8.455-9.378 5.47-3.291 12.48-3.291 10.515 0 16.553 6.63 6.04 6.631 6.04 18.804v5.589h-32.634q.663 5.02 4.002 8.051 3.34 3.032 8.454 3.032 7.91 0 12.362-5.731l6.726 7.53q-3.079 4.358-8.336 6.797-5.257 2.44-11.651 2.44zm-1.563-42.058q-4.074 0-6.608 2.747t-3.244 7.862h19.04v-1.09q-.095-4.546-2.463-7.033-2.368-2.486-6.725-2.486zm48.078-10.136h12.883l.426 5.92q5.494-6.867 14.73-6.867 8.146 0 12.125 4.783 3.978 4.784 4.073 14.304V372h-13.688v-32.775q0-4.358-1.894-6.323-1.895-1.966-6.3-1.966-5.778 0-8.667 4.926V372h-13.688v-51.247zM478.864 372h-13.83q-.948-1.847-1.374-4.594-4.973 5.541-12.93 5.541-7.531 0-12.48-4.357-4.95-4.358-4.95-10.988 0-8.147 6.039-12.504 6.039-4.358 17.453-4.405h6.3v-2.937q0-3.552-1.824-5.683-1.823-2.132-5.755-2.132-3.457 0-5.423 1.658-1.965 1.658-1.965 4.547h-13.688q0-4.452 2.747-8.241 2.747-3.79 7.767-5.944 5.021-2.155 11.273-2.155 9.473 0 15.038 4.76 5.565 4.76 5.565 13.38v22.213q.047 7.294 2.037 11.036V372zm-25.15-9.52q3.03 0 5.589-1.35 2.557-1.35 3.789-3.623v-8.81h-5.116q-10.277 0-10.94 7.105l-.048.805q0 2.558 1.8 4.215 1.8 1.658 4.926 1.658zm30.528-41.727h12.835l.426 5.73q5.447-6.677 14.73-6.677 9.9 0 13.594 7.815 5.399-7.815 15.393-7.815 8.336 0 12.409 4.854 4.073 4.855 4.073 14.612V372h-13.735v-32.68q0-4.358-1.705-6.371-1.705-2.013-6.016-2.013-6.157 0-8.525 5.873l.047 35.191H514.08v-32.633q0-4.452-1.752-6.442-1.752-1.989-5.968-1.989-5.825 0-8.43 4.831V372h-13.688v-51.247zm104.462 52.194q-11.273 0-18.354-6.915-7.08-6.915-7.08-18.424v-1.326q0-7.72 2.983-13.807 2.984-6.086 8.455-9.378 5.47-3.291 12.48-3.291 10.515 0 16.553 6.63 6.04 6.631 6.04 18.804v5.589h-32.634q.663 5.02 4.002 8.051 3.34 3.032 8.455 3.032 7.91 0 12.361-5.731l6.726 7.53q-3.079 4.358-8.336 6.797-5.257 2.44-11.651 2.44zm-1.563-42.058q-4.074 0-6.608 2.747-2.533 2.747-3.244 7.862h19.04v-1.09q-.095-4.546-2.463-7.033-2.368-2.486-6.725-2.486z" fill="#000" fill-rule="nonzero"></path></g></svg>