<svg viewBox="0 0 1200 900" xmlns="http://www.w3.org/2000/svg"><g fill="none" fill-rule="evenodd"><path d="M1033.562.119H10.128C4.736.119.363 4.49.363 9.885v43.302h1042.965V9.885a9.766 9.766 0 0 0-9.766-9.766" fill="#C8C8C8" mask="url(#mask-2)" transform="translate(78 115.381)"></path><path d="M1111.557 784.506H88.14a9.743 9.743 0 0 1-9.765-9.767V221.203a9.756 9.756 0 0 1 9.765-9.765h1023.417c5.391 0 9.767 4.376 9.767 9.765V774.74a9.757 9.757 0 0 1-9.767 9.767" fill="#F2F2F2"></path><path fill="#E6E6E6" mask="url(#mask-4)" d="M.363 132.519h1042.965v-78.95H.363z" transform="translate(78 115)"></path><path d="M71.042 103.343c.792-.774 8.537-8.906 8.537-8.906.423-.412.636-.954.636-1.494 0-.541-.213-1.083-.636-1.495 0 0-7.745-8.132-8.537-8.904-.792-.774-2.218-.825-3.064 0-.845.825-.912 1.977.001 2.988l7.104 7.411-7.104 7.412c-.913 1.012-.846 2.164-.001 2.988.846.823 2.272.772 3.064 0m-34.27-20.799c-.792.775-8.536 8.905-8.536 8.905a2.082 2.082 0 0 0-.635 1.496c0 .54.212 1.08.635 1.494 0 0 7.744 8.131 8.536 8.905.792.771 2.219.825 3.065 0 .844-.825.912-1.975-.002-2.988l-7.104-7.411 7.104-7.412c.914-1.011.846-2.163.002-2.99-.846-.826-2.273-.772-3.065 0" fill="#C8C8C8" mask="url(#mask-4)" transform="translate(78 115)"></path><path d="M122.088 53.967c14.391.006 13.793-37.01 25.788-37.01l137.193.01c14.391-.005 13.793 37.012 25.788 37.012l-188.769-.012z" fill="#E6E6E6" mask="url(#mask-4)" transform="translate(78 115)"></path><path d="M128.73 92h-3.997l-.028-.263a11.023 11.023 0 0 0-10.988-9.88c-6.096 0-11.056 4.972-11.056 11.085 0 6.115 4.96 11.088 11.056 11.088a10.92 10.92 0 0 0 6.809-2.352l.585-.46-2.708-2.896-.489.362a7.046 7.046 0 0 1-4.197 1.38c-3.913 0-7.095-3.194-7.095-7.122 0-3.926 3.182-7.12 7.095-7.12a7.081 7.081 0 0 1 6.977 5.833l.063.345h-4.424l6.198 6.91 6.2-6.91z" fill="#C8C8C8" mask="url(#mask-4)" transform="translate(78 115)"></path><path d="M89.494 26.675c0 6.053 4.91 10.962 10.965 10.962 6.05 0 10.959-4.91 10.959-10.962s-4.91-10.962-10.96-10.962c-6.055 0-10.964 4.91-10.964 10.962" fill="#70B34A" mask="url(#mask-4)" transform="translate(78 115)"></path><path d="M52.383 26.675c0 6.053 4.91 10.962 10.964 10.962 6.05 0 10.96-4.91 10.96-10.962s-4.91-10.962-10.96-10.962c-6.054 0-10.964 4.91-10.964 10.962" fill="#DDAA54" mask="url(#mask-4)" transform="translate(78 115)"></path><path d="M15.097 26.675c0 6.053 4.91 10.962 10.964 10.962 6.05 0 10.96-4.91 10.96-10.962s-4.91-10.962-10.96-10.962c-6.054 0-10.964 4.91-10.964 10.962" fill="#D5655D" mask="url(#mask-4)" transform="translate(78 115)"></path><path d="M1018.014 99.719h-22.89c-1.053 0-1.907 1.01-1.907 2.259 0 1.246.854 2.26 1.907 2.26h22.89c1.052 0 1.906-1.014 1.906-2.26 0-1.25-.854-2.26-1.906-2.26m-22.89-13.552h22.89c1.052 0 1.906-1.01 1.906-2.257 0-1.25-.854-2.26-1.906-2.26h-22.89c-1.053 0-1.907 1.01-1.907 2.26 0 1.248.854 2.257 1.907 2.257m22.89 4.518h-22.89c-1.053 0-1.907 1.01-1.907 2.258s.854 2.259 1.907 2.259h22.89c1.052 0 1.906-1.011 1.906-2.26 0-1.247-.854-2.257-1.906-2.257" fill="#C8C8C8" mask="url(#mask-4)" transform="translate(78 115)"></path><path d="M979.782 113.523H142.753a2.705 2.705 0 0 1-2.697-2.697V75.06a2.704 2.704 0 0 1 2.697-2.696h837.029a2.705 2.705 0 0 1 2.697 2.696v35.766a2.706 2.706 0 0 1-2.697 2.697" fill="#FFF" mask="url(#mask-4)" transform="translate(78 115)"></path><path d="M604.47 495.424v14.128h13.043v9.43H604.47v14.743h-9.936v-14.743h-13.08v-9.43h13.08v-14.128h9.936z" fill="#4A4A4A" fill-rule="nonzero"></path><rect stroke="#979797" stroke-width="5" fill="#FFF" x="304.5" y="278.5" width="592" height="205" rx="5"></rect><rect stroke="#979797" stroke-width="5" fill="#FFF" x="304.5" y="540.5" width="592" height="205" rx="5"></rect><g fill-rule="nonzero" fill="#090"><path d="M381.966 626.67v54.2c0 5.744-4.669 10.4-10.428 10.4-5.759 0-10.427-4.656-10.427-10.4v-79.31c0-9.265 11.232-13.905 17.8-7.353l61.709 61.553v-54.2c0-5.743 4.669-10.4 10.428-10.4 5.759 0 10.427 4.657 10.427 10.4v79.31c0 9.266-11.232 13.906-17.801 7.354l-61.708-61.554zm117.368-35.407l-2.867 5.33-22.158 40.17-2.868 5.07 2.868 5.07 22.158 38.87 2.998 5.33h58.002l2.867-5.85 16.554-33.28 7.43-15.08h-16.815l-42.36.13c-5.51-.077-10.577 4.905-10.577 10.4s5.067 10.478 10.576 10.4l25.547-.13-6.256 12.61h-32.846l-16.293-28.6 16.423-29.64h34.94l8.147 16.673h20.985l-13.229-31.623-2.867-5.85h-60.359zm105.635-.13c-5.46.068-10.365 5.085-10.297 10.53v27.1h20.854v-27.1c.07-5.532-5.01-10.599-10.557-10.53zm43.997 64.487v-54.2c0-5.744-4.669-10.4-10.428-10.4-5.758 0-10.427 4.656-10.427 10.4v79.31c0 9.265 11.232 13.905 17.801 7.353l61.708-61.553v54.2c0 5.743 4.668 10.4 10.427 10.4 5.759 0 10.427-4.657 10.427-10.4v-79.31c0-9.266-11.232-13.906-17.8-7.353l-61.708 61.552zm92.742 19.607l79.602-79.114c9.848-9.788 24.569 4.946 14.72 14.734l-79.6 79.113c-9.849 9.788-24.57-4.946-14.72-14.734z"></path><path d="M743.597 609.1a10.38 10.38 0 0 1-.026-14.708c4.065-4.068 10.668-4.08 14.747-.026l79.602 79.115a10.38 10.38 0 0 1 .025 14.707c-4.065 4.069-10.667 4.08-14.746.026L743.597 609.1zm-138.628 82.072c-5.46-.068-10.365-5.084-10.297-10.53V637.11h20.854v43.532c.07 5.532-5.01 10.6-10.557 10.53z"></path></g><path d="M603.638 303a2.024 2.024 0 0 0-1.002.268 2.028 2.028 0 0 0-1.003 1.739v51.167c0 .503-.234.952-.668 1.204a1.393 1.393 0 0 1-1.403 0l-8.352-4.816a4 4 0 0 0-4.01 0l-33.342 19.263c-1.246.72-2.004 2.105-2.004 3.545v38.526c0 1.44.759 2.757 2.004 3.478l33.343 19.263a3.99 3.99 0 0 0 4.009 0l33.342-19.263a4.006 4.006 0 0 0 2.005-3.478v-96.047a4.078 4.078 0 0 0-2.072-3.545L604.64 303.2c-.312-.174-.657-.205-1.002-.2zM389.15 351.09c-.636.026-1.233.138-1.804.469l-33.341 19.263A3.997 3.997 0 0 0 352 374.3l.067 51.702c0 .72.37 1.387 1.002 1.74.62.37 1.387.37 2.005 0l19.778-11.371c1.253-.745 2.071-2.041 2.071-3.478v-24.146c0-1.44.757-2.762 2.005-3.478l8.419-4.882a3.945 3.945 0 0 1 2.004-.536c.687 0 1.394.172 2.005.536l8.419 4.882a3.994 3.994 0 0 1 2.005 3.478v24.146c0 1.437.826 2.741 2.07 3.478l19.78 11.37c.62.371 1.388.371 2.004 0a2.012 2.012 0 0 0 1.002-1.739l.067-51.702a3.98 3.98 0 0 0-2.005-3.478l-33.342-19.263c-.564-.331-1.164-.442-1.804-.468h-.401zm299.613.469c-.696 0-1.379.175-2.004.535l-33.342 19.263a4.003 4.003 0 0 0-2.005 3.478v38.526c0 1.448.815 2.762 2.071 3.478l33.075 18.862c1.222.698 2.713.75 3.943.066l20.045-11.17c.636-.353 1.067-1.013 1.07-1.739a1.976 1.976 0 0 0-1.003-1.74l-33.543-19.262c-.628-.359-1.069-1.085-1.069-1.806v-12.04c0-.72.446-1.379 1.07-1.738l10.423-6.02a2 2 0 0 1 2.004 0l10.424 6.02a2 2 0 0 1 1.002 1.739v9.498a2 2 0 0 0 1.003 1.738 1.99 1.99 0 0 0 2.004 0l19.979-11.637a4.021 4.021 0 0 0 2.004-3.479v-9.297a4.015 4.015 0 0 0-2.004-3.478l-33.142-19.263a3.97 3.97 0 0 0-2.005-.535zm-99.693 28.76c.174 0 .379.043.535.133l11.426 6.622c.31.18.534.51.534.87v13.243c0 .36-.222.69-.534.87l-11.426 6.62a1.01 1.01 0 0 1-1.002 0l-11.426-6.62c-.311-.18-.535-.51-.535-.87v-13.244c0-.358.225-.688.535-.869l11.426-6.62a.88.88 0 0 1 .467-.133v-.001z" fill="#404137"></path><path d="M789.003 351.094c-1.156 0-2.28.239-3.274.802l-31.471 18.194c-2.037 1.174-3.274 3.393-3.274 5.752v36.32c0 2.358 1.237 4.574 3.274 5.751l8.218 4.749c3.994 1.97 5.466 1.94 7.284 1.94 5.912 0 9.287-3.591 9.287-9.832v-35.852c0-.507-.438-.87-.935-.87h-3.942c-.505 0-.936.363-.936.87v35.85c0 2.767-2.878 5.549-7.55 3.211l-8.553-5.016c-.302-.165-.535-.456-.535-.803v-36.319c0-.344.23-.695.535-.87l31.405-18.125a.926.926 0 0 1 .935 0l31.405 18.126c.299.18.534.514.534.87v36.318c0 .347-.174.702-.468.87l-31.47 18.126a.968.968 0 0 1-.936 0l-8.085-4.816a.84.84 0 0 0-.802 0c-2.232 1.266-2.652 1.413-4.744 2.14-.516.18-1.3.46.267 1.338l10.557 6.22a6.49 6.49 0 0 0 3.274.87c1.166 0 2.27-.288 3.274-.87l31.472-18.126c2.036-1.186 3.274-3.393 3.274-5.752v-36.319c0-2.36-1.238-4.573-3.274-5.752l-31.472-18.193c-.986-.563-2.118-.802-3.274-.802zm-299.346.735a3.99 3.99 0 0 0-2.004.535l-33.343 19.197c-1.246.719-2.004 2.106-2.004 3.544v38.526c0 1.441.759 2.758 2.004 3.478l33.343 19.263a3.986 3.986 0 0 0 4.009 0l33.342-19.263a4.006 4.006 0 0 0 2.005-3.478v-38.526c0-1.44-.758-2.825-2.005-3.544l-33.342-19.197a3.987 3.987 0 0 0-2.005-.535zm346.052.202v.936h2.606v6.889h1.07v-6.889h2.672v-.936h-6.348zm7.284 0v7.825h1.002v-4.615c0-.188.008-.48 0-.87-.013-.396 0-.742 0-.936v-.201l2.205 6.621h1.069l2.272-6.621c0 .421-.056.828-.067 1.204-.004.366 0 .64 0 .802v4.615h1.002v-7.825h-1.47l-2.271 6.622-2.205-6.622h-1.537zm-45.57 25.015c-8.962 0-14.3 3.817-14.3 10.166 0 6.888 5.298 8.78 13.899 9.632 10.29 1.008 11.091 2.52 11.091 4.548 0 3.517-2.8 5.016-9.421 5.016-8.318 0-10.146-2.078-10.758-6.22-.072-.444-.414-.803-.868-.803h-4.076a.954.954 0 0 0-.936.937c0 5.301 2.881 11.571 16.638 11.571 9.959 0 15.702-3.913 15.702-10.769 0-6.796-4.64-8.62-14.299-9.899-9.76-1.292-10.69-1.925-10.69-4.213 0-1.89.788-4.415 8.017-4.415 6.458 0 8.845 1.394 9.823 5.752.085.41.446.736.868.736h4.076c.252 0 .495-.154.668-.335.172-.192.292-.41.268-.668-.631-7.506-5.632-11.036-15.703-11.036zm-108.38 9.163c-.133 0-.28 0-.4.066l-6.415 3.746a.78.78 0 0 0-.401.669v7.357c0 .277.16.531.4.669l6.415 3.679a.7.7 0 0 0 .735 0l6.415-3.679a.786.786 0 0 0 .4-.669v-7.357a.787.787 0 0 0-.4-.669l-6.415-3.746c-.119-.07-.2-.066-.334-.066z" fill="#83CD29"></path><path d="M938.2 399.236v-8.166h5.565q3.974 0 5.89-1.987 1.914-1.987 1.914-5.275 0-3.18-1.897-4.95-1.897-1.771-5.22-1.771-3 0-5.023 1.644-2.024 1.644-2.024 4.282h-10.442q0-4.12 2.222-7.39 2.222-3.27 6.215-5.112 3.993-1.843 8.798-1.843 8.347 0 13.08 3.993 4.734 3.992 4.734 11.002 0 3.613-2.204 6.649-2.204 3.035-5.782 4.66 4.445 1.59 6.63 4.77 2.187 3.18 2.187 7.516 0 7.01-5.113 11.237-5.113 4.228-13.532 4.228-7.877 0-12.881-4.156-5.005-4.155-5.005-10.984h10.443q0 2.963 2.222 4.842 2.222 1.879 5.474 1.879 3.722 0 5.836-1.97 2.113-1.969 2.113-5.22 0-7.878-8.671-7.878H938.2zm67.243-8.672v9.684q0 10.912-4.516 16.693-4.517 5.782-13.225 5.782-8.6 0-13.152-5.673-4.553-5.673-4.661-16.26v-9.684q0-11.02 4.57-16.729 4.571-5.709 13.17-5.709 8.6 0 13.153 5.655 4.553 5.655 4.661 16.241zm-10.442 11.563v-12.502q0-6.54-1.789-9.521-1.788-2.981-5.582-2.981-3.686 0-5.438 2.836-1.753 2.837-1.86 8.871v12.791q0 6.432 1.751 9.557 1.753 3.126 5.62 3.126 3.83 0 5.527-3 1.699-2.998 1.771-9.177zm52.898-11.563v9.684q0 10.912-4.516 16.693-4.517 5.782-13.225 5.782-8.6 0-13.152-5.673-4.553-5.673-4.661-16.26v-9.684q0-11.02 4.57-16.729 4.571-5.709 13.17-5.709 8.6 0 13.153 5.655 4.553 5.655 4.661 16.241zm-10.442 11.563v-12.502q0-6.54-1.789-9.521-1.788-2.981-5.582-2.981-3.686 0-5.438 2.836-1.752 2.837-1.86 8.871v12.791q0 6.432 1.752 9.557 1.752 3.126 5.618 3.126 3.83 0 5.529-3 1.698-2.998 1.77-9.177zm52.898-11.563v9.684q0 10.912-4.516 16.693-4.517 5.782-13.225 5.782-8.6 0-13.152-5.673-4.553-5.673-4.661-16.26v-9.684q0-11.02 4.57-16.729 4.571-5.709 13.171-5.709t13.152 5.655q4.553 5.655 4.661 16.241zm-10.442 11.563v-12.502q0-6.54-1.788-9.521-1.79-2.981-5.583-2.981-3.686 0-5.438 2.836-1.752 2.837-1.86 8.871v12.791q0 6.432 1.752 9.557 1.752 3.126 5.618 3.126 3.83 0 5.529-3 1.698-2.998 1.77-9.177zM961.867 640.374q0 3.83-1.915 6.793t-5.275 4.733q3.83 1.843 6.07 5.077t2.24 7.606q0 7.01-4.77 11.075-4.769 4.065-12.97 4.065-8.203 0-13.009-4.083-4.805-4.083-4.805-11.057 0-4.372 2.24-7.624t6.034-5.059q-3.36-1.77-5.257-4.733-1.897-2.963-1.897-6.793 0-6.72 4.48-10.713 4.48-3.993 12.177-3.993 7.66 0 12.159 3.957 4.498 3.956 4.498 10.749zm-9.358 23.45q0-3.432-1.988-5.492-1.987-2.06-5.347-2.06-3.324 0-5.312 2.042-1.987 2.041-1.987 5.51 0 3.36 1.951 5.42t5.42 2.06q3.397 0 5.33-1.988 1.933-1.987 1.933-5.492zm-1.084-22.944q0-3.071-1.626-4.932-1.626-1.861-4.589-1.861-2.927 0-4.553 1.807-1.626 1.806-1.626 4.986 0 3.143 1.626 5.058 1.626 1.916 4.59 1.916 2.962 0 4.57-1.916 1.608-1.915 1.608-5.058zm54.018 6.684v9.684q0 10.912-4.516 16.693-4.517 5.782-13.225 5.782-8.6 0-13.152-5.673-4.553-5.673-4.661-16.26v-9.684q0-11.02 4.57-16.729 4.571-5.709 13.17-5.709 8.6 0 13.153 5.655 4.553 5.655 4.661 16.241zm-10.442 11.563v-12.502q0-6.54-1.789-9.521-1.788-2.981-5.582-2.981-3.686 0-5.438 2.836-1.753 2.837-1.86 8.871v12.791q0 6.432 1.751 9.557 1.753 3.126 5.62 3.126 3.83 0 5.527-3 1.699-2.998 1.771-9.177zm51.778-18.753q0 3.83-1.915 6.793t-5.275 4.733q3.83 1.843 6.07 5.077t2.24 7.606q0 7.01-4.77 11.075-4.769 4.065-12.97 4.065-8.203 0-13.009-4.083-4.805-4.083-4.805-11.057 0-4.372 2.24-7.624t6.034-5.059q-3.36-1.77-5.257-4.733-1.897-2.963-1.897-6.793 0-6.72 4.48-10.713 4.48-3.993 12.177-3.993 7.66 0 12.159 3.957 4.498 3.956 4.498 10.749zm-9.358 23.45q0-3.432-1.987-5.492-1.988-2.06-5.348-2.06-3.324 0-5.312 2.042-1.987 2.041-1.987 5.51 0 3.36 1.951 5.42t5.42 2.06q3.397 0 5.33-1.988 1.933-1.987 1.933-5.492zm-1.084-22.944q0-3.071-1.626-4.932-1.626-1.861-4.589-1.861-2.927 0-4.553 1.807-1.626 1.806-1.626 4.986 0 3.143 1.626 5.058 1.626 1.916 4.59 1.916 2.962 0 4.57-1.916 1.608-1.915 1.608-5.058zm54.018 6.684v9.684q0 10.912-4.516 16.693-4.517 5.782-13.225 5.782-8.6 0-13.152-5.673-4.553-5.673-4.661-16.26v-9.684q0-11.02 4.57-16.729 4.571-5.709 13.171-5.709t13.152 5.655q4.553 5.655 4.661 16.241zm-10.442 11.563v-12.502q0-6.54-1.788-9.521-1.79-2.981-5.583-2.981-3.686 0-5.438 2.836-1.752 2.837-1.86 8.871v12.791q0 6.432 1.752 9.557 1.752 3.126 5.618 3.126 3.83 0 5.529-3 1.698-2.998 1.77-9.177zm-147.792-47.139h-3.082V618h-3.516v-17.063h6.657q1.922 0 3.38.704 1.46.703 2.245 1.998.785 1.295.785 2.947 0 2.508-1.717 3.955t-4.752 1.447zm-3.082-8.203v5.356h3.14q1.395 0 2.128-.657.732-.656.732-1.875 0-1.254-.738-2.027-.739-.773-2.04-.797h-3.222zm25.98 5.309v.761q0 2.52-.89 4.418-.89 1.899-2.549 2.93-1.658 1.031-3.803 1.031-2.12 0-3.785-1.02-1.664-1.019-2.578-2.911-.914-1.893-.926-4.354v-.844q0-2.52.908-4.435.909-1.916 2.567-2.941 1.658-1.026 3.79-1.026 2.134 0 3.792 1.026 1.658 1.025 2.566 2.94.909 1.917.909 4.425zm-3.562.82v-.832q0-2.684-.96-4.078-.962-1.395-2.743-1.395-1.77 0-2.73 1.377-.962 1.377-.973 4.037v.832q0 2.614.96 4.055.962 1.442 2.766 1.442 1.77 0 2.72-1.39.948-1.388.96-4.048zM967.09 618l-3.2-6.246h-2.8V618h-3.516v-17.063h6.34q3.024 0 4.664 1.348 1.64 1.348 1.64 3.809 0 1.746-.755 2.912-.756 1.166-2.291 1.857l3.691 6.973V618h-3.773zm-6-14.215v5.121h2.836q1.324 0 2.05-.674.727-.673.727-1.857 0-1.207-.685-1.898-.686-.692-2.104-.692h-2.824zm24.058-2.847v2.847h-5.226V618h-3.516v-14.215h-5.156v-2.847h13.898zm-542.108 193v14.238h7.464V811h-10.98v-17.063h3.515zm22.745 8.156v.761q0 2.52-.89 4.418-.891 1.899-2.55 2.93-1.658 1.031-3.802 1.031-2.121 0-3.785-1.02-1.664-1.019-2.578-2.911-.914-1.893-.926-4.354v-.844q0-2.52.908-4.435.908-1.916 2.567-2.941 1.658-1.026 3.79-1.026 2.133 0 3.792 1.026 1.658 1.025 2.566 2.94.908 1.917.908 4.425zm-3.562.82v-.832q0-2.684-.961-4.078-.961-1.395-2.742-1.395-1.77 0-2.73 1.377-.962 1.377-.974 4.037v.832q0 2.614.961 4.055.961 1.442 2.766 1.442 1.77 0 2.719-1.39.949-1.388.96-4.048zm15.996 2.402h3.515q-.199 2.754-2.033 4.336-1.834 1.582-4.834 1.582-3.281 0-5.162-2.209-1.88-2.209-1.88-6.064v-1.043q0-2.461.866-4.336.868-1.875 2.479-2.877 1.611-1.002 3.744-1.002 2.953 0 4.758 1.582 1.805 1.582 2.086 4.442h-3.516q-.129-1.653-.92-2.397-.79-.744-2.408-.744-1.758 0-2.63 1.26-.874 1.26-.897 3.908v1.289q0 2.766.838 4.043.837 1.277 2.642 1.277 1.63 0 2.432-.744.803-.744.92-2.303zm16.64 5.684l-1.183-3.516h-6.164L486.34 811h-3.738l6.351-17.063h3.258L498.598 811h-3.739zm-4.277-12.75l-2.121 6.387h4.266l-2.145-6.387zm13.125-4.313v14.239h7.465V811h-10.98v-17.063h3.515zm23.367 0V811h-3.515v-7.313h-6.856V811h-3.515v-17.063h3.515v6.915h6.856v-6.914h3.515zm17.086 8.157v.761q0 2.52-.89 4.418-.891 1.899-2.55 2.93-1.658 1.031-3.802 1.031-2.121 0-3.785-1.02-1.664-1.019-2.578-2.911-.914-1.893-.926-4.354v-.844q0-2.52.908-4.435.908-1.916 2.567-2.941 1.658-1.026 3.79-1.026 2.133 0 3.792 1.026 1.658 1.025 2.566 2.94.908 1.917.908 4.425zm-3.562.82v-.832q0-2.684-.961-4.078-.961-1.395-2.742-1.395-1.77 0-2.73 1.377-.962 1.377-.974 4.037v.832q0 2.614.961 4.055.961 1.442 2.766 1.442 1.77 0 2.719-1.39.949-1.388.96-4.048zm14.965 3.61q0-.997-.704-1.53-.703-.533-2.53-1.125-1.829-.592-2.895-1.166-2.907-1.57-2.907-4.23 0-1.383.78-2.467.779-1.084 2.238-1.693 1.459-.61 3.275-.61 1.828 0 3.258.662t2.22 1.87q.792 1.206.792 2.742h-3.516q0-1.172-.738-1.823-.738-.65-2.074-.65-1.29 0-2.004.545-.715.545-.715 1.435 0 .832.838 1.395.838.562 2.467 1.055 3 .902 4.37 2.238 1.372 1.336 1.372 3.328 0 2.215-1.676 3.475-1.676 1.26-4.512 1.26-1.968 0-3.586-.721-1.617-.721-2.466-1.975-.85-1.254-.85-2.906h3.527q0 2.824 3.375 2.824 1.254 0 1.957-.51.703-.51.703-1.424zm18.75-12.587v2.848h-5.227V811h-3.516v-14.215h-5.156v-2.847h13.899zm357.808-438.949h-3.082V361h-3.516v-17.063h6.657q1.922 0 3.38.704 1.46.703 2.245 1.998.785 1.295.785 2.947 0 2.508-1.717 3.955t-4.752 1.447zm-3.082-8.203v5.356h3.14q1.395 0 2.128-.657.732-.656.732-1.875 0-1.254-.738-2.027-.739-.773-2.04-.797h-3.222zm25.98 5.309v.761q0 2.52-.89 4.418-.89 1.899-2.549 2.93-1.658 1.031-3.803 1.031-2.12 0-3.785-1.02-1.664-1.019-2.578-2.911-.914-1.893-.926-4.354v-.844q0-2.52.908-4.435.909-1.916 2.567-2.941 1.658-1.026 3.79-1.026 2.134 0 3.792 1.026 1.658 1.025 2.566 2.94.909 1.917.909 4.425zm-3.562.82v-.832q0-2.684-.96-4.078-.962-1.395-2.743-1.395-1.77 0-2.73 1.377-.962 1.377-.973 4.037v.832q0 2.614.96 4.055.962 1.442 2.766 1.442 1.77 0 2.72-1.39.948-1.388.96-4.048zM967.09 361l-3.2-6.246h-2.8V361h-3.516v-17.063h6.34q3.024 0 4.664 1.348 1.64 1.348 1.64 3.809 0 1.746-.755 2.912-.756 1.166-2.291 1.857l3.691 6.973V361h-3.773zm-6-14.215v5.121h2.836q1.324 0 2.05-.674.727-.673.727-1.857 0-1.207-.685-1.898-.686-.692-2.104-.692h-2.824zm24.058-2.848v2.848h-5.226V361h-3.516v-14.215h-5.156v-2.848h13.898zM466.942 826.318V879H456.5v-40.252l-12.466 3.866v-8.491l21.788-7.805h1.12zm53.152 44.263V879h-36.06v-7.154l17.018-18.139q3.505-3.83 5.185-6.685 1.68-2.854 1.68-5.42 0-3.504-1.77-5.51-1.771-2.005-5.06-2.005-3.54 0-5.582 2.439-2.041 2.439-2.041 6.413h-10.479q0-4.805 2.295-8.78 2.294-3.974 6.486-6.233 4.191-2.258 9.503-2.258 8.13 0 12.628 3.902 4.499 3.903 4.499 11.02 0 3.903-2.024 7.95-2.023 4.047-6.937 9.43l-11.96 12.611h22.619zm42.167-44.19v5.853L541.918 879h-11.02l20.378-44.154h-26.16v-8.455h37.145zm7.66 47.478q0-2.493 1.68-4.047 1.68-1.553 4.21-1.553 2.565 0 4.245 1.553 1.68 1.554 1.68 4.047 0 2.457-1.662 3.993-1.662 1.535-4.263 1.535-2.566 0-4.228-1.535-1.662-1.536-1.662-3.993zm55.933-26.305v9.684q0 10.912-4.516 16.693-4.517 5.782-13.225 5.782-8.6 0-13.152-5.673-4.553-5.673-4.661-16.26v-9.684q0-11.02 4.57-16.729 4.571-5.709 13.171-5.709t13.152 5.655q4.553 5.655 4.661 16.241zm-10.442 11.563v-12.502q0-6.54-1.788-9.521-1.789-2.981-5.583-2.981-3.686 0-5.438 2.836-1.752 2.837-1.86 8.871v12.791q0 6.432 1.752 9.557 1.752 3.126 5.618 3.126 3.83 0 5.529-3 1.698-2.998 1.77-9.177zm18.464 14.742q0-2.493 1.68-4.047 1.68-1.553 4.21-1.553 2.565 0 4.245 1.553 1.68 1.554 1.68 4.047 0 2.457-1.662 3.993-1.662 1.535-4.263 1.535-2.566 0-4.228-1.535-1.662-1.536-1.662-3.993zm55.934-26.305v9.684q0 10.912-4.517 16.693-4.517 5.782-13.225 5.782-8.6 0-13.152-5.673-4.553-5.673-4.661-16.26v-9.684q0-11.02 4.57-16.729 4.571-5.709 13.171-5.709t13.152 5.655q4.553 5.655 4.662 16.241zm-10.443 11.563v-12.502q0-6.54-1.788-9.521-1.789-2.981-5.583-2.981-3.685 0-5.438 2.836-1.752 2.837-1.86 8.871v12.791q0 6.432 1.752 9.557 1.752 3.126 5.618 3.126 3.83 0 5.529-3 1.698-2.998 1.77-9.177zm18.464 14.742q0-2.493 1.68-4.047 1.68-1.553 4.21-1.553 2.565 0 4.245 1.553 1.68 1.554 1.68 4.047 0 2.457-1.662 3.993-1.662 1.535-4.263 1.535-2.566 0-4.228-1.535-1.662-1.536-1.662-3.993zm45.889-47.55V879h-10.443v-40.252l-12.465 3.866v-8.491l21.788-7.805h1.12z" fill="#4A4A4A" fill-rule="nonzero"></path><path fill="#9B9B9B" fill-rule="nonzero" d="M127 276h130v472H127z"></path><g transform="translate(257 366)" fill-rule="nonzero"><path fill="#9EEBCF" d="M0 6h45v3H0z"></path><circle stroke="#9EEBCF" stroke-width="3" fill="#FFF" cx="45.5" cy="7.5" r="6.5"></circle><path fill="#9EEBCF" d="M-4 7.5L4 13V2z"></path></g><g transform="translate(257 628)" fill-rule="nonzero"><path fill="#9EEBCF" d="M0 6h45v3H0z"></path><circle stroke="#9EEBCF" stroke-width="3" fill="#FFF" cx="45.5" cy="7.5" r="6.5"></circle><path fill="#9EEBCF" d="M-4 7.5L4 13V2z"></path></g><path d="M201.298 381.99h-8.491v-20.813h-14.092v24.426h-8.708v-35.266h52.61v35.194h-8.78v-24.354h-12.539v20.813zm7.805 9.286v9.792l-4.372.325q5.094 4.155 5.094 11.237 0 7.552-5.962 10.37 5.962 4.12 5.962 11.744 0 6.359-3.703 9.466-3.704 3.108-11.147 3.108h-24.968v-10.479h24.932q3.324 0 4.86-1.3 1.535-1.301 1.535-4.59 0-4.697-4.48-6.503l-26.847.036v-10.443h24.896q3.396 0 4.914-1.337 1.517-1.336 1.517-4.552 0-4.445-3.685-6.432h-27.642v-10.442h39.096zm-19.367 99.257h-.542q-9.034 0-14.472-4.101-5.438-4.102-5.438-11.075 0-5.926 4.12-9.575h-18.428v-10.443h54.127v9.684l-3.83.361q4.552 3.794 4.552 9.9 0 7.227-5.347 11.238-5.348 4.01-14.742 4.01zm.216-10.443q5.456 0 8.42-1.933 2.962-1.933 2.962-5.619 0-4.914-3.758-6.756H181.57q-3.866 1.915-3.866 6.829 0 7.48 12.25 7.48zm28.762 18.97v10.442h-9.611v6.685h-7.66v-6.685H181.93q-2.168 0-3.108.831-.939.831-.939 3.18 0 1.734.253 3.071h-7.913q-.94-3.071-.94-6.323 0-10.984 11.093-11.201h21.066v-5.71h7.66v5.71h9.611zm-9.611 30.28l-24.318 7.262 24.318 7.226v11.202l-45.166-15.718-2.06-.867q-7.66-3.505-7.66-11.563 0-2.276.686-4.625h7.914l-.037 1.59q0 2.963.904 4.426.903 1.464 2.999 2.295l3.216 1.228 39.204-13.694v11.237zm-39.096 46.791v-16.296h52.61v16.188q0 6.937-3.126 12.411-3.126 5.475-8.889 8.546-5.763 3.071-13.098 3.071h-2.42q-7.336 0-13.045-3.017t-8.852-8.51q-3.144-5.491-3.18-12.393zm43.83-.108v-5.348h-35.122v5.24q0 6.359 4.155 9.72 4.156 3.36 11.888 3.432h2.782q8.022 0 12.159-3.324 4.137-3.325 4.137-9.72zm-4.734 42.24h-39.096v-10.48h39.096v10.48zm10.117-11.094q2.349 0 3.866 1.572 1.518 1.572 1.518 4.282 0 2.674-1.518 4.263-1.517 1.59-3.866 1.59-2.385 0-3.902-1.608-1.518-1.607-1.518-4.245t1.518-4.246q1.517-1.608 3.902-1.608zm-9.864 41.806l-10.045-.145q.289-2.131.289-3.757 0-5.926-4.011-7.769h-25.582v-10.442h39.096v9.864l-4.661.289q5.383 3.144 5.383 8.708 0 1.734-.47 3.252z" fill="#FFF" fill-rule="nonzero"></path></g></svg>