<svg viewBox="0 0 1200 900" xmlns="http://www.w3.org/2000/svg"><g fill="none" fill-rule="evenodd"><path fill="#F0F0F0" d="M130 209h945v112H130z"></path><path d="M128.5 321.5h944" stroke="#4A4A4A" stroke-width="7" stroke-linecap="square"></path><path d="M229.295 250.947V278h-5.362v-20.67l-6.401 1.985v-4.36l11.188-4.008h.575z" fill="#4A4A4A" fill-rule="nonzero"></path><path fill="#F0F0F0" d="M130 324h945v112H130z"></path><path d="M128.5 436.5h944" stroke="#4A4A4A" stroke-width="7" stroke-linecap="square"></path><path d="M234.787 388.677V393H216.27v-3.674l8.74-9.314q1.799-1.967 2.662-3.433.863-1.466.863-2.783 0-1.8-.91-2.83-.909-1.03-2.597-1.03-1.819 0-2.867 1.253-1.048 1.252-1.048 3.293h-5.381q0-2.467 1.178-4.508t3.33-3.201q2.153-1.16 4.88-1.16 4.175 0 6.485 2.004 2.31 2.004 2.31 5.66 0 2.003-1.039 4.081-1.039 2.079-3.562 4.843l-6.142 6.476h11.615z" fill="#4A4A4A" fill-rule="nonzero"></path><path fill="#F0F0F0" d="M130 440h945v112H130z"></path><path d="M128.5 552.5h944" stroke="#4A4A4A" stroke-width="7" stroke-linecap="square"></path><path d="M221.725 497.31v-4.193h2.857q2.041 0 3.025-1.02.983-1.02.983-2.71 0-1.632-.974-2.541-.974-.91-2.681-.91-1.54 0-2.58.845-1.038.844-1.038 2.198h-5.363q0-2.115 1.142-3.794 1.14-1.68 3.191-2.625 2.05-.947 4.518-.947 4.286 0 6.717 2.05 2.43 2.05 2.43 5.65 0 1.856-1.131 3.415-1.132 1.558-2.97 2.393 2.283.817 3.406 2.45 1.122 1.632 1.122 3.859 0 3.6-2.625 5.77-2.626 2.171-6.949 2.171-4.045 0-6.615-2.134-2.57-2.133-2.57-5.64h5.363q0 1.521 1.14 2.486 1.142.965 2.812.965 1.911 0 2.997-1.011 1.085-1.012 1.085-2.682 0-4.044-4.453-4.044h-2.839z" fill="#4A4A4A" fill-rule="nonzero"></path><path fill="#D1FFAC" d="M128 555h945v112H128z"></path><path d="M126.5 667.5h944" stroke="#4A4A4A" stroke-width="7" stroke-linecap="square"></path><path d="M376.479 624l-5.066-9.89h-4.434V624h-5.567v-27.016h10.038q4.787 0 7.385 2.134t2.598 6.03q0 2.765-1.197 4.611-1.197 1.846-3.628 2.941l5.845 11.04v.26h-5.974zm-9.5-22.507v8.109h4.49q2.096 0 3.247-1.067 1.15-1.067 1.15-2.941 0-1.911-1.085-3.006-1.086-1.095-3.33-1.095h-4.472zm17.497 12.525v-.242q0-2.987 1.15-5.325t3.312-3.618q2.162-1.28 5.019-1.28 4.064 0 6.633 2.486 2.57 2.486 2.867 6.754l.037 1.373q0 4.62-2.579 7.413-2.58 2.792-6.92 2.792-4.343 0-6.931-2.783t-2.588-7.57zm5.362.148q0 2.857 1.076 4.37 1.076 1.512 3.08 1.512 1.948 0 3.043-1.494 1.095-1.493 1.095-4.778 0-2.801-1.095-4.341t-3.08-1.54q-1.967 0-3.043 1.53-1.076 1.531-1.076 4.741zm22.618-18.666V624h-5.38v-28.5h5.38zm10.075 0V624h-5.38v-28.5h5.38zm13.656 28.871q-4.416 0-7.19-2.709-2.773-2.709-2.773-7.218v-.52q0-3.024 1.169-5.408 1.169-2.384 3.312-3.674t4.889-1.29q4.119 0 6.485 2.598 2.365 2.598 2.365 7.367v2.19H431.66q.26 1.966 1.568 3.153 1.308 1.188 3.312 1.188 3.099 0 4.843-2.245l2.635 2.95q-1.206 1.707-3.266 2.663-2.06.955-4.565.955zm-.612-16.476q-1.596 0-2.588 1.076-.993 1.076-1.271 3.08h7.459v-.427q-.037-1.781-.965-2.755-.928-.974-2.635-.974zm11.077 5.918q0-4.694 2.106-7.477 2.106-2.783 5.762-2.783 2.931 0 4.842 2.19V595.5h5.381V624H459.9l-.26-2.134q-2.003 2.505-5.158 2.505-3.544 0-5.687-2.792-2.143-2.793-2.143-7.766zm5.363.39q0 2.82.983 4.323.983 1.503 2.857 1.503 2.487 0 3.507-2.096v-7.923q-1.002-2.097-3.47-2.097-3.877 0-3.877 6.29zm44.438-.352v.296q0 4.825-2.06 7.524-2.059 2.7-5.751 2.7-3.266 0-5.214-2.505l-.241 2.134h-4.825v-28.5h5.363v10.224q1.855-2.171 4.88-2.171 3.673 0 5.76 2.7 2.088 2.7 2.088 7.598zm-5.362-.093q0-3.043-.965-4.444-.965-1.4-2.876-1.4-2.56 0-3.525 2.096v7.923q.983 2.115 3.562 2.115 2.598 0 3.414-2.56.39-1.225.39-3.73zM516.808 624h-5.418q-.371-.724-.538-1.8-1.949 2.171-5.066 2.171-2.95 0-4.889-1.707t-1.939-4.305q0-3.191 2.366-4.898 2.365-1.707 6.837-1.726h2.468v-1.15q0-1.392-.714-2.227-.715-.835-2.255-.835-1.354 0-2.124.65t-.77 1.781h-5.363q0-1.744 1.076-3.228 1.077-1.485 3.043-2.329 1.967-.844 4.416-.844 3.711 0 5.892 1.864 2.18 1.865 2.18 5.242v8.702q.018 2.858.798 4.324V624zm-9.853-3.73q1.188 0 2.19-.528 1.001-.53 1.484-1.42v-3.45h-2.004q-4.026 0-4.286 2.782l-.019.316q0 1.002.705 1.651.705.65 1.93.65zm21.524-.222q1.484 0 2.412-.817.927-.816.964-2.17h5.029q-.019 2.04-1.113 3.738-1.095 1.698-2.997 2.635-1.902.937-4.203.937-4.304 0-6.79-2.737-2.487-2.737-2.487-7.56v-.353q0-4.639 2.468-7.404 2.467-2.764 6.772-2.764 3.767 0 6.04 2.143t2.31 5.705h-5.029q-.037-1.558-.964-2.532-.928-.974-2.45-.974-1.874 0-2.83 1.363-.955 1.364-.955 4.426v.556q0 3.099.947 4.453.946 1.355 2.876 1.355zM552.396 624l-5.159-8.053-1.93 1.93V624h-5.362v-28.5h5.363v15.79l1.039-1.336 5.14-6.03h6.438l-7.255 8.368L558.556 624h-6.16zm18.369-25.012h5.362v4.936h3.433v3.933h-3.433v10.02q0 1.113.427 1.596.426.482 1.633.482.89 0 1.577-.13v4.064q-1.577.482-3.247.482-5.641 0-5.752-5.696v-10.818h-2.932v-3.933h2.932v-4.936zm10.39 15.03v-.242q0-2.987 1.15-5.325 1.151-2.338 3.313-3.618 2.161-1.28 5.019-1.28 4.063 0 6.633 2.486 2.57 2.486 2.867 6.754l.037 1.373q0 4.62-2.58 7.413-2.578 2.792-6.92 2.792-4.342 0-6.93-2.783-2.589-2.783-2.589-7.57zm5.363.148q0 2.857 1.076 4.37 1.076 1.512 3.08 1.512 1.948 0 3.043-1.494 1.095-1.493 1.095-4.778 0-2.801-1.095-4.341t-3.08-1.54q-1.967 0-3.043 1.53-1.076 1.531-1.076 4.741zm44.716 5.51V624h-18.517v-3.674l8.74-9.314q1.799-1.967 2.662-3.433.862-1.466.862-2.783 0-1.8-.909-2.83t-2.597-1.03q-1.819 0-2.867 1.253-1.048 1.252-1.048 3.293h-5.381q0-2.467 1.178-4.508t3.33-3.201q2.153-1.16 4.88-1.16 4.175 0 6.485 2.004 2.31 2.004 2.31 5.66 0 2.003-1.039 4.081-1.039 2.079-3.562 4.843l-6.142 6.476h11.615zm-401.1-22.692v16.848h3.062v4.323h-3.062V624h-5.362v-5.845h-11.077l-.241-3.377 11.262-17.794h5.418zm-5.715 7.923l-5.622 8.925h5.975v-9.537l-.353.612z" fill="#4A4A4A" fill-rule="nonzero"></path><path stroke="#4A4A4A" stroke-width="7" d="M125.5 119.5h949v662h-949z"></path><path d="M128.5 208.5h944m-749-89v662" stroke="#4A4A4A" stroke-width="7" stroke-linecap="square"></path><path d="M380.019 150.984l4.434 19.223 3.637-19.223h5.548L387.645 178h-5.604l-4.397-18.072L373.246 178h-5.603l-5.994-27.016h5.548l3.656 19.186 4.453-19.186h4.713zm21.504-1.484v10.613q2.134-2.56 5.363-2.56 6.531 0 6.624 7.589V178h-5.363v-12.71q0-1.726-.742-2.551-.742-.826-2.467-.826-2.357 0-3.415 1.818V178h-5.362v-28.5h5.362zm33.083 28.5h-5.418q-.37-.724-.538-1.8-1.948 2.171-5.065 2.171-2.95 0-4.89-1.707-1.938-1.707-1.938-4.305 0-3.191 2.366-4.898 2.365-1.707 6.837-1.726h2.468v-1.15q0-1.392-.715-2.227-.714-.835-2.254-.835-1.355 0-2.125.65t-.77 1.781h-5.362q0-1.744 1.076-3.228 1.076-1.485 3.043-2.329 1.967-.844 4.416-.844 3.711 0 5.891 1.864 2.18 1.865 2.18 5.242v8.702q.02 2.858.798 4.324V178zm-9.852-3.73q1.187 0 2.19-.528 1.001-.53 1.484-1.42v-3.45h-2.004q-4.027 0-4.286 2.782l-.019.316q0 1.002.705 1.651.705.65 1.93.65zm14.231-21.282h5.363v4.936h3.432v3.933h-3.432v10.02q0 1.113.426 1.596.427.482 1.633.482.89 0 1.577-.13v4.064q-1.577.482-3.247.482-5.64 0-5.752-5.696v-10.818h-2.931v-3.933h2.931v-4.936zm26.478-3.488v10.613q2.134-2.56 5.362-2.56 6.531 0 6.624 7.589V178h-5.362v-12.71q0-1.726-.742-2.551-.742-.826-2.468-.826-2.356 0-3.414 1.818V178H460.1v-28.5h5.362zm33.083 28.5h-5.418q-.371-.724-.538-1.8-1.948 2.171-5.066 2.171-2.95 0-4.889-1.707t-1.939-4.305q0-3.191 2.366-4.898 2.366-1.707 6.837-1.726h2.468v-1.15q0-1.392-.714-2.227-.715-.835-2.255-.835-1.354 0-2.124.65t-.77 1.781h-5.362q0-1.744 1.076-3.228 1.076-1.485 3.043-2.329 1.967-.844 4.416-.844 3.71 0 5.89 1.864 2.181 1.865 2.181 5.242v8.702q.019 2.858.798 4.324V178zm-9.853-3.73q1.188 0 2.19-.528 1.002-.53 1.484-1.42v-3.45h-2.004q-4.026 0-4.286 2.782l-.018.316q0 1.002.705 1.651.705.65 1.93.65zm31.246-6.4v.277q0 4.64-2.106 7.432-2.105 2.792-5.687 2.792-3.042 0-4.917-2.115v9.463h-5.362v-27.795h4.973l.185 1.967q1.949-2.338 5.084-2.338 3.711 0 5.77 2.746 2.06 2.746 2.06 7.57zm-5.362-.112q0-2.802-.993-4.323-.992-1.522-2.885-1.522-2.523 0-3.47 1.93v8.22q.984 1.985 3.507 1.985 3.841 0 3.841-6.29zm26.756.111v.278q0 4.64-2.106 7.432-2.106 2.792-5.687 2.792-3.043 0-4.917-2.115v9.463h-5.362v-27.795h4.972l.186 1.967q1.948-2.338 5.084-2.338 3.71 0 5.77 2.746 2.06 2.746 2.06 7.57zm-5.362-.111q0-2.802-.993-4.323-.993-1.522-2.885-1.522-2.524 0-3.47 1.93v8.22q.983 1.985 3.507 1.985 3.84 0 3.84-6.29zm17.924 10.613q-4.416 0-7.19-2.709t-2.774-7.218v-.52q0-3.024 1.169-5.408 1.169-2.384 3.312-3.674t4.889-1.29q4.119 0 6.485 2.598 2.365 2.598 2.365 7.367v2.19h-12.784q.26 1.966 1.568 3.153 1.308 1.188 3.312 1.188 3.099 0 4.843-2.245l2.635 2.95q-1.206 1.707-3.266 2.663-2.06.955-4.564.955zm-.613-16.476q-1.595 0-2.588 1.076-.993 1.076-1.271 3.08h7.459v-.427q-.037-1.781-.965-2.755-.928-.974-2.635-.974zm11.801-3.971h5.047l.167 2.32q2.152-2.691 5.77-2.691 3.192 0 4.75 1.874 1.559 1.874 1.596 5.603V178h-5.362v-12.84q0-1.707-.742-2.477-.743-.77-2.468-.77-2.264 0-3.396 1.93V178h-5.362v-20.076zm30.634 20.447q-4.416 0-7.19-2.709t-2.774-7.218v-.52q0-3.024 1.169-5.408 1.169-2.384 3.312-3.674t4.889-1.29q4.12 0 6.485 2.598 2.366 2.598 2.366 7.367v2.19h-12.785q.26 1.966 1.568 3.153 1.308 1.188 3.312 1.188 3.099 0 4.843-2.245l2.635 2.95q-1.206 1.707-3.266 2.663-2.06.955-4.564.955zm-.613-16.476q-1.595 0-2.588 1.076-.993 1.076-1.27 3.08h7.458v-.427q-.037-1.781-.965-2.755-.927-.974-2.635-.974zm11.078 5.918q0-4.694 2.106-7.477 2.106-2.783 5.76-2.783 2.932 0 4.844 2.19V149.5h5.38V178h-4.842l-.26-2.134q-2.004 2.505-5.158 2.505-3.544 0-5.687-2.792-2.143-2.793-2.143-7.766zm5.362.39q0 2.82.983 4.323.984 1.503 2.858 1.503 2.486 0 3.507-2.096v-7.923q-1.002-2.097-3.47-2.097-3.878 0-3.878 6.29zM163.788 178l-5.066-9.89h-4.434V178h-5.567v-27.016h10.038q4.787 0 7.385 2.134t2.598 6.03q0 2.765-1.197 4.611-1.197 1.846-3.628 2.941l5.845 11.04v.26h-5.974zm-9.5-22.507v8.109h4.49q2.096 0 3.247-1.067 1.15-1.067 1.15-2.941 0-1.911-1.085-3.006-1.086-1.095-3.33-1.095h-4.472zm27.572 22.878q-4.416 0-7.19-2.709t-2.774-7.218v-.52q0-3.024 1.169-5.408 1.169-2.384 3.312-3.674t4.889-1.29q4.12 0 6.485 2.598 2.366 2.598 2.366 7.367v2.19h-12.785q.26 1.966 1.568 3.153 1.308 1.188 3.312 1.188 3.099 0 4.843-2.245l2.635 2.95q-1.206 1.707-3.266 2.663-2.06.955-4.564.955zm-.613-16.476q-1.595 0-2.588 1.076-.993 1.076-1.27 3.08h7.458v-.427q-.037-1.781-.965-2.755-.927-.974-2.635-.974zm15.457-3.971l3.729 13.526 3.73-13.526h5.603L202.994 178h-5.122l-6.772-20.076h5.604zm21.078 0V178H212.4v-20.076h5.38zm-5.697-5.195q0-1.207.807-1.986.808-.78 2.2-.78 1.372 0 2.189.78.816.78.816 1.986 0 1.224-.826 2.003-.825.78-2.18.78-1.354 0-2.18-.78-.826-.779-.826-2.003zm20.986 19.723q0-.983-.974-1.55-.975-.565-3.127-1.01-7.162-1.503-7.162-6.086 0-2.672 2.217-4.463 2.218-1.79 5.799-1.79 3.822 0 6.113 1.8 2.292 1.8 2.292 4.675h-5.362q0-1.15-.743-1.902-.742-.751-2.319-.751-1.354 0-2.097.612-.742.613-.742 1.559 0 .89.844 1.438.845.547 2.849.946 2.004.4 3.377.9 4.249 1.559 4.249 5.4 0 2.746-2.357 4.443-2.356 1.698-6.086 1.698-2.523 0-4.48-.9-1.958-.9-3.072-2.468-1.113-1.567-1.113-3.386h5.084q.074 1.429 1.058 2.19.983.76 2.635.76 1.54 0 2.328-.584.789-.585.789-1.53zm14.324-14.528V178h-5.38v-20.076h5.38zm-5.696-5.195q0-1.207.807-1.986.807-.78 2.199-.78 1.373 0 2.189.78.816.78.816 1.986 0 1.224-.825 2.003-.826.78-2.18.78-1.355 0-2.18-.78-.826-.779-.826-2.003zm9.277 15.289v-.242q0-2.987 1.15-5.325t3.312-3.618q2.162-1.28 5.02-1.28 4.063 0 6.633 2.486 2.57 2.486 2.866 6.754l.038 1.373q0 4.62-2.58 7.413-2.579 2.792-6.92 2.792-4.342 0-6.93-2.783-2.589-2.783-2.589-7.57zm5.362.148q0 2.857 1.076 4.37 1.077 1.512 3.08 1.512 1.949 0 3.044-1.494 1.094-1.493 1.094-4.778 0-2.801-1.094-4.341-1.095-1.54-3.08-1.54-1.967 0-3.044 1.53-1.076 1.531-1.076 4.741zm16.848-10.242h5.047l.167 2.32q2.152-2.691 5.77-2.691 3.192 0 4.75 1.874 1.559 1.874 1.596 5.603V178h-5.362v-12.84q0-1.707-.742-2.477-.743-.77-2.468-.77-2.264 0-3.396 1.93V178h-5.362v-20.076zm96.145 93.06V278h-5.566v-27.016h5.566zm4.694 6.94h5.047l.167 2.32q2.153-2.691 5.77-2.691 3.192 0 4.75 1.874 1.56 1.874 1.596 5.603V278h-5.362v-12.84q0-1.707-.742-2.477-.742-.77-2.468-.77-2.263 0-3.395 1.93V278h-5.363v-20.076zm32.267 14.528q0-.983-.974-1.55-.974-.565-3.127-1.01-7.162-1.503-7.162-6.086 0-2.672 2.218-4.463 2.217-1.79 5.798-1.79 3.822 0 6.114 1.8 2.291 1.8 2.291 4.675h-5.362q0-1.15-.742-1.902-.742-.751-2.32-.751-1.354 0-2.096.612-.743.613-.743 1.559 0 .89.845 1.438.844.547 2.848.946 2.004.4 3.377.9 4.249 1.559 4.249 5.4 0 2.746-2.357 4.443-2.356 1.698-6.086 1.698-2.523 0-4.48-.9-1.958-.9-3.071-2.468-1.114-1.567-1.114-3.386h5.084q.075 1.429 1.058 2.19.983.76 2.635.76 1.54 0 2.328-.584.789-.585.789-1.53zm9.723-19.464h5.362v4.936h3.433v3.933h-3.433v10.02q0 1.113.427 1.596.426.482 1.633.482.89 0 1.577-.13v4.064q-1.577.482-3.247.482-5.641 0-5.752-5.696v-10.818h-2.932v-3.933h2.932v-4.936zM444.849 278h-5.418q-.371-.724-.538-1.8-1.949 2.171-5.066 2.171-2.95 0-4.889-1.707t-1.939-4.305q0-3.191 2.366-4.898 2.365-1.707 6.837-1.726h2.468v-1.15q0-1.392-.714-2.227-.715-.835-2.255-.835-1.354 0-2.124.65t-.77 1.781h-5.363q0-1.744 1.077-3.228 1.076-1.485 3.042-2.329 1.967-.844 4.416-.844 3.711 0 5.892 1.864 2.18 1.865 2.18 5.242v8.702q.018 2.858.798 4.324V278zm-9.853-3.73q1.188 0 2.19-.528 1.002-.53 1.484-1.42v-3.45h-2.004q-4.026 0-4.286 2.782l-.019.316q0 1.002.705 1.651.705.65 1.93.65zm18.833-24.77V278h-5.38v-28.5h5.38zm10.075 0V278h-5.38v-28.5h5.38zm13.657 28.871q-4.416 0-7.19-2.709t-2.774-7.218v-.52q0-3.024 1.169-5.408 1.169-2.384 3.312-3.674t4.889-1.29q4.119 0 6.485 2.598 2.365 2.598 2.365 7.367v2.19h-12.784q.26 1.966 1.568 3.153 1.308 1.188 3.312 1.188 3.099 0 4.843-2.245l2.635 2.95q-1.206 1.707-3.266 2.663-2.06.955-4.564.955zm-.613-16.476q-1.595 0-2.588 1.076-.993 1.076-1.271 3.08h7.459v-.427q-.037-1.781-.965-2.755-.928-.974-2.635-.974zm11.077 5.918q0-4.694 2.106-7.477 2.106-2.783 5.762-2.783 2.931 0 4.842 2.19V249.5h5.381V278h-4.843l-.26-2.134q-2.003 2.505-5.158 2.505-3.543 0-5.687-2.792-2.143-2.793-2.143-7.766zm5.363.39q0 2.82.983 4.323.983 1.503 2.858 1.503 2.486 0 3.506-2.096v-7.923q-1.002-2.097-3.47-2.097-3.877 0-3.877 6.29zm27.405-15.215h5.362v4.936h3.433v3.933h-3.433v10.02q0 1.113.427 1.596.427.482 1.633.482.89 0 1.577-.13v4.064q-1.577.482-3.247.482-5.64 0-5.752-5.696v-10.818h-2.932v-3.933h2.932v-4.936zm17.015-3.488v10.613q2.133-2.56 5.362-2.56 6.531 0 6.624 7.589V278h-5.362v-12.71q0-1.726-.743-2.551-.742-.826-2.467-.826-2.357 0-3.414 1.818V278h-5.363v-28.5h5.363zm25.271 28.871q-4.416 0-7.19-2.709t-2.774-7.218v-.52q0-3.024 1.17-5.408 1.168-2.384 3.311-3.674t4.89-1.29q4.118 0 6.484 2.598 2.366 2.598 2.366 7.367v2.19h-12.784q.26 1.966 1.568 3.153 1.308 1.188 3.312 1.188 3.098 0 4.842-2.245l2.635 2.95q-1.206 1.707-3.265 2.663-2.06.955-4.565.955zm-.612-16.476q-1.596 0-2.589 1.076-.992 1.076-1.27 3.08h7.458v-.427q-.037-1.781-.964-2.755-.928-.974-2.635-.974zm29.724 12.153q1.485 0 2.413-.817.927-.816.964-2.17h5.029q-.019 2.04-1.114 3.738-1.094 1.698-2.996 2.635-1.902.937-4.203.937-4.305 0-6.79-2.737-2.487-2.737-2.487-7.56v-.353q0-4.639 2.468-7.404 2.467-2.764 6.772-2.764 3.767 0 6.04 2.143t2.31 5.705h-5.029q-.037-1.558-.964-2.532-.928-.974-2.45-.974-1.874 0-2.83 1.363-.955 1.364-.955 4.426v.556q0 3.099.946 4.453.947 1.355 2.876 1.355zm16.7-24.548v10.613q2.133-2.56 5.362-2.56 6.531 0 6.624 7.589V278h-5.362v-12.71q0-1.726-.743-2.551-.742-.826-2.467-.826-2.357 0-3.414 1.818V278h-5.363v-28.5h5.363zm33.083 28.5h-5.418q-.371-.724-.538-1.8-1.949 2.171-5.066 2.171-2.95 0-4.889-1.707t-1.939-4.305q0-3.191 2.366-4.898 2.365-1.707 6.837-1.726h2.468v-1.15q0-1.392-.714-2.227-.715-.835-2.255-.835-1.354 0-2.124.65t-.77 1.781h-5.363q0-1.744 1.077-3.228 1.076-1.485 3.042-2.329 1.967-.844 4.416-.844 3.711 0 5.892 1.864 2.18 1.865 2.18 5.242v8.702q.018 2.858.798 4.324V278zm-9.853-3.73q1.188 0 2.19-.528 1.001-.53 1.484-1.42v-3.45h-2.004q-4.026 0-4.286 2.782l-.019.316q0 1.002.705 1.651.705.65 1.93.65zm24.53-16.476l-.075 5.158q-1.095-.148-1.93-.148-3.042 0-3.989 2.06V278h-5.362v-20.076h5.065l.149 2.393q1.614-2.764 4.471-2.764.891 0 1.67.24zm4.49-4.806h5.362v4.936h3.433v3.933h-3.433v10.02q0 1.113.427 1.596.426.482 1.633.482.89 0 1.577-.13v4.064q-1.577.482-3.247.482-5.641 0-5.752-5.696v-10.818h-2.932v-3.933h2.932v-4.936zM378.274 481.984h5.585v17.794q0 4.435-2.774 7.014-2.773 2.58-7.58 2.58-4.73 0-7.514-2.506-2.783-2.505-2.839-6.884v-17.998h5.567v17.831q0 2.654 1.27 3.87 1.272 1.214 3.517 1.214 4.694 0 4.768-4.935v-17.98zm27.87 16.885v.278q0 4.64-2.106 7.432-2.106 2.792-5.687 2.792-3.043 0-4.917-2.115v9.463h-5.363v-27.795h4.973l.185 1.967q1.949-2.338 5.084-2.338 3.711 0 5.771 2.746t2.06 7.57zm-5.363-.111q0-2.802-.992-4.323-.993-1.522-2.886-1.522-2.523 0-3.47 1.93v8.22q.984 1.985 3.507 1.985 3.841 0 3.841-6.29zm7.905.278v-.223q0-4.62 2.198-7.44 2.199-2.82 5.928-2.82 3.303 0 5.14 2.263l.223-1.892h4.861v19.408q0 2.635-1.197 4.583-1.196 1.948-3.367 2.969-2.171 1.02-5.084 1.02-2.208 0-4.305-.881-2.097-.881-3.173-2.273l2.375-3.266q2.004 2.245 4.861 2.245 2.134 0 3.322-1.14 1.187-1.142 1.187-3.238v-1.077q-1.855 2.097-4.88 2.097-3.618 0-5.854-2.83-2.235-2.83-2.235-7.505zm5.362.167q0 2.728 1.095 4.277 1.094 1.55 3.005 1.55 2.45 0 3.507-1.838v-8.442q-1.076-1.837-3.47-1.837-1.93 0-3.033 1.577-1.104 1.577-1.104 4.713zm28.463-10.41l-.074 5.16q-1.095-.15-1.93-.15-3.043 0-3.99 2.06V509h-5.362v-20.076h5.066l.148 2.393q1.614-2.764 4.472-2.764.89 0 1.67.24zm19 20.207h-5.418q-.371-.724-.538-1.8-1.949 2.171-5.066 2.171-2.95 0-4.889-1.707t-1.939-4.305q0-3.191 2.366-4.898 2.366-1.707 6.837-1.726h2.468v-1.15q0-1.392-.714-2.227-.715-.835-2.255-.835-1.354 0-2.124.65t-.77 1.781h-5.363q0-1.744 1.077-3.228 1.076-1.485 3.043-2.329 1.966-.844 4.416-.844 3.71 0 5.89 1.864 2.18 1.865 2.18 5.242v8.702q.02 2.858.799 4.324V509zm-9.853-3.73q1.188 0 2.19-.528 1.002-.53 1.484-1.42v-3.45h-2.004q-4.026 0-4.286 2.782l-.019.316q0 1.002.706 1.651.705.65 1.93.65zm12.34-6.457q0-4.694 2.105-7.477 2.106-2.783 5.761-2.783 2.932 0 4.843 2.19V480.5h5.38V509h-4.842l-.26-2.134q-2.004 2.505-5.158 2.505-3.544 0-5.687-2.792-2.143-2.793-2.143-7.766zm5.361.39q0 2.82.984 4.323.983 1.503 2.857 1.503 2.487 0 3.507-2.096v-7.923q-1.002-2.097-3.47-2.097-3.878 0-3.878 6.29zm26.125 10.168q-4.416 0-7.19-2.709-2.773-2.709-2.773-7.218v-.52q0-3.024 1.168-5.408 1.17-2.384 3.312-3.674 2.144-1.29 4.89-1.29 4.119 0 6.484 2.598 2.366 2.598 2.366 7.367v2.19h-12.784q.26 1.966 1.568 3.153 1.308 1.188 3.312 1.188 3.099 0 4.843-2.245l2.634 2.95q-1.206 1.707-3.265 2.663-2.06.955-4.565.955zm-.612-16.476q-1.596 0-2.588 1.076-.993 1.076-1.271 3.08h7.459v-.427q-.037-1.781-.965-2.755-.928-.974-2.635-.974zm11.077 5.918q0-4.694 2.106-7.477 2.106-2.783 5.761-2.783 2.932 0 4.843 2.19V480.5h5.381V509h-4.843l-.26-2.134q-2.003 2.505-5.158 2.505-3.544 0-5.687-2.792-2.143-2.793-2.143-7.766zm5.363.39q0 2.82.983 4.323.983 1.503 2.857 1.503 2.487 0 3.507-2.096v-7.923q-1.002-2.097-3.47-2.097-3.877 0-3.877 6.29zm27.405-15.215h5.362v4.936h3.433v3.933h-3.433v10.02q0 1.113.427 1.596.427.482 1.633.482.89 0 1.577-.13v4.064q-1.577.482-3.247.482-5.64 0-5.752-5.696v-10.818h-2.932v-3.933h2.932v-4.936zm10.39 15.03v-.242q0-2.987 1.15-5.325 1.151-2.338 3.313-3.618 2.161-1.28 5.019-1.28 4.063 0 6.633 2.486 2.57 2.486 2.867 6.754l.037 1.373q0 4.62-2.58 7.413-2.578 2.792-6.92 2.792-4.342 0-6.93-2.783-2.589-2.783-2.589-7.57zm5.363.148q0 2.857 1.076 4.37 1.076 1.512 3.08 1.512 1.948 0 3.043-1.494 1.095-1.493 1.095-4.778 0-2.801-1.095-4.341t-3.08-1.54q-1.967 0-3.043 1.53-1.076 1.531-1.076 4.741zm30.207-10.242l3.73 13.526 3.729-13.526h5.603L590.967 509h-5.121l-6.773-20.076h5.604zm33.714 15.753V509h-18.518v-3.674l8.74-9.314q1.8-1.967 2.662-3.433.863-1.466.863-2.783 0-1.8-.91-2.83-.909-1.03-2.597-1.03-1.818 0-2.867 1.253-1.048 1.252-1.048 3.293h-5.381q0-2.467 1.178-4.508t3.33-3.201q2.153-1.16 4.88-1.16 4.175 0 6.485 2.004 2.31 2.004 2.31 5.66 0 2.003-1.039 4.081-1.039 2.079-3.562 4.843l-6.142 6.476h11.616zm3.785 1.688q0-1.28.863-2.078.862-.798 2.161-.798 1.318 0 2.18.798.863.798.863 2.078 0 1.262-.853 2.05-.854.79-2.19.79-1.317 0-2.17-.79-.854-.788-.854-2.05zm28.722-13.508v4.973q0 5.604-2.319 8.572-2.32 2.97-6.79 2.97-4.417 0-6.755-2.914-2.338-2.913-2.393-8.35v-4.972q0-5.66 2.347-8.591 2.347-2.932 6.763-2.932t6.754 2.904q2.338 2.904 2.393 8.34zm-5.362 5.938v-6.42q0-3.358-.918-4.89-.919-1.53-2.867-1.53-1.893 0-2.793 1.457-.9 1.456-.955 4.555v6.568q0 3.303.9 4.908.9 1.605 2.885 1.605 1.967 0 2.839-1.54.872-1.54.91-4.713zm9.482 7.57q0-1.28.862-2.078.863-.798 2.162-.798 1.317 0 2.18.798.863.798.863 2.078 0 1.262-.854 2.05-.853.79-2.189.79-1.317 0-2.17-.79-.854-.788-.854-2.05zm28.722-13.508v4.973q0 5.604-2.32 8.572-2.318 2.97-6.79 2.97-4.416 0-6.754-2.914-2.338-2.913-2.394-8.35v-4.972q0-5.66 2.348-8.591 2.347-2.932 6.763-2.932t6.754 2.904q2.338 2.904 2.393 8.34zm-5.362 5.938v-6.42q0-3.358-.919-4.89-.918-1.53-2.866-1.53-1.893 0-2.793 1.457-.9 1.456-.955 4.555v6.568q0 3.303.9 4.908.9 1.605 2.885 1.605 1.967 0 2.839-1.54.872-1.54.909-4.713zM378.274 365.984h5.585v17.794q0 4.435-2.774 7.014-2.773 2.58-7.58 2.58-4.73 0-7.514-2.506-2.783-2.505-2.839-6.884v-17.998h5.567v17.831q0 2.654 1.27 3.87 1.272 1.214 3.517 1.214 4.694 0 4.768-4.935v-17.98zm27.87 16.885v.278q0 4.64-2.106 7.432-2.106 2.792-5.687 2.792-3.043 0-4.917-2.115v9.463h-5.363v-27.795h4.973l.185 1.967q1.949-2.338 5.084-2.338 3.711 0 5.771 2.746t2.06 7.57zm-5.363-.111q0-2.802-.992-4.323-.993-1.522-2.886-1.522-2.523 0-3.47 1.93v8.22q.984 1.985 3.507 1.985 3.841 0 3.841-6.29zm7.905.278v-.223q0-4.62 2.198-7.44 2.199-2.82 5.928-2.82 3.303 0 5.14 2.263l.223-1.892h4.861v19.408q0 2.635-1.197 4.583-1.196 1.948-3.367 2.969-2.171 1.02-5.084 1.02-2.208 0-4.305-.881-2.097-.881-3.173-2.273l2.375-3.266q2.004 2.245 4.861 2.245 2.134 0 3.322-1.14 1.187-1.142 1.187-3.238v-1.077q-1.855 2.097-4.88 2.097-3.618 0-5.854-2.83-2.235-2.83-2.235-7.505zm5.362.167q0 2.728 1.095 4.277 1.094 1.55 3.005 1.55 2.45 0 3.507-1.838v-8.442q-1.076-1.837-3.47-1.837-1.93 0-3.033 1.577-1.104 1.577-1.104 4.713zm28.463-10.41l-.074 5.16q-1.095-.15-1.93-.15-3.043 0-3.99 2.06V393h-5.362v-20.076h5.066l.148 2.393q1.614-2.764 4.472-2.764.89 0 1.67.24zm19 20.207h-5.418q-.371-.724-.538-1.8-1.949 2.171-5.066 2.171-2.95 0-4.889-1.707t-1.939-4.305q0-3.191 2.366-4.898 2.366-1.707 6.837-1.726h2.468v-1.15q0-1.392-.714-2.227-.715-.835-2.255-.835-1.354 0-2.124.65t-.77 1.781h-5.363q0-1.744 1.077-3.228 1.076-1.485 3.043-2.329 1.966-.844 4.416-.844 3.71 0 5.89 1.864 2.18 1.865 2.18 5.242v8.702q.02 2.858.799 4.324V393zm-9.853-3.73q1.188 0 2.19-.528 1.002-.53 1.484-1.42v-3.45h-2.004q-4.026 0-4.286 2.782l-.019.316q0 1.002.706 1.651.705.65 1.93.65zm12.34-6.457q0-4.694 2.105-7.477 2.106-2.783 5.761-2.783 2.932 0 4.843 2.19V364.5h5.38V393h-4.842l-.26-2.134q-2.004 2.505-5.158 2.505-3.544 0-5.687-2.792-2.143-2.793-2.143-7.766zm5.361.39q0 2.82.984 4.323.983 1.503 2.857 1.503 2.487 0 3.507-2.096v-7.923q-1.002-2.097-3.47-2.097-3.878 0-3.878 6.29zm26.125 10.168q-4.416 0-7.19-2.709-2.773-2.709-2.773-7.218v-.52q0-3.024 1.168-5.408 1.17-2.384 3.312-3.674 2.144-1.29 4.89-1.29 4.119 0 6.484 2.598 2.366 2.598 2.366 7.367v2.19h-12.784q.26 1.966 1.568 3.153 1.308 1.188 3.312 1.188 3.099 0 4.843-2.245l2.634 2.95q-1.206 1.707-3.265 2.663-2.06.955-4.565.955zm-.612-16.476q-1.596 0-2.588 1.076-.993 1.076-1.271 3.08h7.459v-.427q-.037-1.781-.965-2.755-.928-.974-2.635-.974zm11.077 5.918q0-4.694 2.106-7.477 2.106-2.783 5.761-2.783 2.932 0 4.843 2.19V364.5h5.381V393h-4.843l-.26-2.134q-2.003 2.505-5.158 2.505-3.544 0-5.687-2.792-2.143-2.793-2.143-7.766zm5.363.39q0 2.82.983 4.323.983 1.503 2.857 1.503 2.487 0 3.507-2.096v-7.923q-1.002-2.097-3.47-2.097-3.877 0-3.877 6.29zm27.405-15.215h5.362v4.936h3.433v3.933h-3.433v10.02q0 1.113.427 1.596.427.482 1.633.482.89 0 1.577-.13v4.064q-1.577.482-3.247.482-5.64 0-5.752-5.696v-10.818h-2.932v-3.933h2.932v-4.936zm10.39 15.03v-.242q0-2.987 1.15-5.325 1.151-2.338 3.313-3.618 2.161-1.28 5.019-1.28 4.063 0 6.633 2.486 2.57 2.486 2.867 6.754l.037 1.373q0 4.62-2.58 7.413-2.578 2.792-6.92 2.792-4.342 0-6.93-2.783-2.589-2.783-2.589-7.57zm5.363.148q0 2.857 1.076 4.37 1.076 1.512 3.08 1.512 1.948 0 3.043-1.494 1.095-1.493 1.095-4.778 0-2.801-1.095-4.341t-3.08-1.54q-1.967 0-3.043 1.53-1.076 1.531-1.076 4.741zm30.207-10.242l3.73 13.526 3.729-13.526h5.603L590.967 393h-5.121l-6.773-20.076h5.604zm28.221-6.977V393h-5.362v-20.67l-6.401 1.985v-4.36l11.188-4.008h.575zm9.278 24.418q0-1.28.863-2.078.862-.798 2.161-.798 1.318 0 2.18.798.863.798.863 2.078 0 1.262-.853 2.05-.854.79-2.19.79-1.317 0-2.17-.79-.854-.788-.854-2.05zm28.722-13.508v4.973q0 5.604-2.319 8.572-2.32 2.97-6.79 2.97-4.417 0-6.755-2.914-2.338-2.913-2.393-8.35v-4.972q0-5.66 2.347-8.591 2.347-2.932 6.763-2.932t6.754 2.904q2.338 2.904 2.393 8.34zm-5.362 5.938v-6.42q0-3.358-.918-4.89-.919-1.53-2.867-1.53-1.893 0-2.793 1.457-.9 1.456-.955 4.555v6.568q0 3.303.9 4.908.9 1.605 2.885 1.605 1.967 0 2.839-1.54.872-1.54.91-4.713zm9.482 7.57q0-1.28.862-2.078.863-.798 2.162-.798 1.317 0 2.18.798.863.798.863 2.078 0 1.262-.854 2.05-.853.79-2.189.79-1.317 0-2.17-.79-.854-.788-.854-2.05zm28.722-13.508v4.973q0 5.604-2.32 8.572-2.318 2.97-6.79 2.97-4.416 0-6.754-2.914-2.338-2.913-2.394-8.35v-4.972q0-5.66 2.348-8.591 2.347-2.932 6.763-2.932t6.754 2.904q2.338 2.904 2.393 8.34zm-5.362 5.938v-6.42q0-3.358-.919-4.89-.918-1.53-2.866-1.53-1.893 0-2.793 1.457-.9 1.456-.955 4.555v6.568q0 3.303.9 4.908.9 1.605 2.885 1.605 1.967 0 2.839-1.54.872-1.54.909-4.713z" fill="#4A4A4A" fill-rule="nonzero"></path></g></svg>