<svg viewBox="0 0 1200 900" xmlns="http://www.w3.org/2000/svg"><g fill="none" fill-rule="evenodd"><path d="M569 588v19a5 5 0 0 1-5 5H388a5 5 0 0 1-5-5v-19a5 5 0 0 1 5-5h176a5 5 0 0 1 5 5z" fill="#D2D2D2"></path><path fill="#A3A3A3" d="M414 589h4v4h-4zm0 6h4v4h-4zm0 6h4v4h-4zm6-12h4v4h-4zm0 6h4v4h-4zm0 6h4v4h-4zm6-12h4v4h-4zm0 6h4v4h-4zm0 6h4v4h-4zm6-12h4v4h-4zm0 6h4v4h-4zm0 6h4v4h-4zm6-12h4v4h-4zm0 6h4v4h-4zm0 6h4v4h-4zm6-12h4v4h-4zm0 6h4v4h-4zm0 6h4v4h-4zm6-12h4v4h-4zm0 6h4v4h-4zm0 6h4v4h-4zm6-12h4v4h-4zm0 6h4v4h-4zm0 6h4v4h-4zm6-12h4v4h-4zm0 6h4v4h-4zm0 6h4v4h-4zm6-12h4v4h-4zm0 6h4v4h-4zm0 6h4v4h-4zm6-12h4v4h-4zm0 6h4v4h-4zm0 6h4v4h-4zm6-12h4v4h-4zm0 6h4v4h-4zm0 6h4v4h-4zm6-12h4v4h-4zm0 6h4v4h-4zm0 6h4v4h-4zm6-12h4v4h-4zm0 6h4v4h-4zm0 6h4v4h-4zm6-12h4v4h-4zm0 6h4v4h-4zm0 6h4v4h-4zm6-12h4v4h-4zm0 6h4v4h-4zm0 6h4v4h-4zm6-12h4v4h-4zm0 6h4v4h-4zm0 6h4v4h-4zm6-12h4v4h-4zm0 6h4v4h-4zm0 6h4v4h-4zm6-12h4v4h-4zm0 6h4v4h-4zm0 6h4v4h-4zm6-12h4v4h-4zm0 6h4v4h-4zm0 6h4v4h-4zm6-12h4v4h-4zm0 6h4v4h-4zm0 6h4v4h-4zm6-12h4v4h-4zm0 6h4v4h-4zm0 6h4v4h-4zm6-12h4v4h-4zm0 6h4v4h-4zm0 6h4v4h-4zm6-12h4v4h-4zm0 6h4v4h-4zm0 6h4v4h-4zm6-12h4v4h-4zm0 6h4v4h-4zm0 6h4v4h-4z"></path><path d="M569 620v19a5 5 0 0 1-5 5H388a5 5 0 0 1-5-5v-19a5 5 0 0 1 5-5h176a5 5 0 0 1 5 5z" fill="#D2D2D2"></path><path fill="#A3A3A3" d="M414 621h4v4h-4zm0 6h4v4h-4zm0 6h4v4h-4zm6-12h4v4h-4zm0 6h4v4h-4zm0 6h4v4h-4zm6-12h4v4h-4zm0 6h4v4h-4zm0 6h4v4h-4zm6-12h4v4h-4zm0 6h4v4h-4zm0 6h4v4h-4zm6-12h4v4h-4zm0 6h4v4h-4zm0 6h4v4h-4zm6-12h4v4h-4zm0 6h4v4h-4zm0 6h4v4h-4zm6-12h4v4h-4zm0 6h4v4h-4zm0 6h4v4h-4zm6-12h4v4h-4zm0 6h4v4h-4zm0 6h4v4h-4zm6-12h4v4h-4zm0 6h4v4h-4zm0 6h4v4h-4zm6-12h4v4h-4zm0 6h4v4h-4zm0 6h4v4h-4zm6-12h4v4h-4zm0 6h4v4h-4zm0 6h4v4h-4zm6-12h4v4h-4zm0 6h4v4h-4zm0 6h4v4h-4zm6-12h4v4h-4zm0 6h4v4h-4zm0 6h4v4h-4zm6-12h4v4h-4zm0 6h4v4h-4zm0 6h4v4h-4zm6-12h4v4h-4zm0 6h4v4h-4zm0 6h4v4h-4zm6-12h4v4h-4zm0 6h4v4h-4zm0 6h4v4h-4zm6-12h4v4h-4zm0 6h4v4h-4zm0 6h4v4h-4zm6-12h4v4h-4zm0 6h4v4h-4zm0 6h4v4h-4zm6-12h4v4h-4zm0 6h4v4h-4zm0 6h4v4h-4zm6-12h4v4h-4zm0 6h4v4h-4zm0 6h4v4h-4zm6-12h4v4h-4zm0 6h4v4h-4zm0 6h4v4h-4zm6-12h4v4h-4zm0 6h4v4h-4zm0 6h4v4h-4zm6-12h4v4h-4zm0 6h4v4h-4zm0 6h4v4h-4zm6-12h4v4h-4zm0 6h4v4h-4zm0 6h4v4h-4zm6-12h4v4h-4zm0 6h4v4h-4zm0 6h4v4h-4z"></path><g transform="translate(383 256)"><path d="M186 5v314a5 5 0 0 1-5 5H5a5 5 0 0 1-5-5V5a5 5 0 0 1 5-5h176a5 5 0 0 1 5 5z" fill="#D2D2D2"></path><path fill="#A3A3A3" d="M7 6h4v4H7zm0 6h4v4H7zm0 6h4v4H7zm6-12h4v4h-4zm0 6h4v4h-4zm0 6h4v4h-4zm6-12h4v4h-4zm0 6h4v4h-4zm0 6h4v4h-4zm6-12h4v4h-4zm0 6h4v4h-4zm0 6h4v4h-4zm6-12h4v4h-4zm0 6h4v4h-4zm0 6h4v4h-4zm6-12h4v4h-4zm0 6h4v4h-4zm0 6h4v4h-4zm6-12h4v4h-4zm0 6h4v4h-4zm0 6h4v4h-4zm6-12h4v4h-4zm0 6h4v4h-4zm0 6h4v4h-4zm6-12h4v4h-4zm0 6h4v4h-4zm0 6h4v4h-4zm6-12h4v4h-4zm0 6h4v4h-4zm0 6h4v4h-4zm6-12h4v4h-4zm0 6h4v4h-4zm0 6h4v4h-4zm6-12h4v4h-4zm0 6h4v4h-4zm0 6h4v4h-4zm6-12h4v4h-4zm0 6h4v4h-4zm0 6h4v4h-4zm6-12h4v4h-4zm0 6h4v4h-4zm0 6h4v4h-4zm6-12h4v4h-4zm0 6h4v4h-4zm0 6h4v4h-4zm6-12h4v4h-4zm0 6h4v4h-4zm0 6h4v4h-4zm6-12h4v4h-4zm0 6h4v4h-4zm0 6h4v4h-4zm6-12h4v4h-4zm0 6h4v4h-4zm0 6h4v4h-4zm6-12h4v4h-4zm0 6h4v4h-4zm0 6h4v4h-4zm6-12h4v4h-4zm0 6h4v4h-4zm0 6h4v4h-4zm6-12h4v4h-4zm0 6h4v4h-4zm0 6h4v4h-4zm6-12h4v4h-4zm0 6h4v4h-4zm0 6h4v4h-4zm6-12h4v4h-4zm0 6h4v4h-4zm0 6h4v4h-4zm6-12h4v4h-4zm0 6h4v4h-4zm0 6h4v4h-4zm6-12h4v4h-4zm0 6h4v4h-4zm0 6h4v4h-4zm6-12h4v4h-4zm0 6h4v4h-4zm0 6h4v4h-4zm6-12h4v4h-4zm0 6h4v4h-4zm0 6h4v4h-4zm6-12h4v4h-4zm0 6h4v4h-4zm0 6h4v4h-4zm6-12h4v4h-4zm0 6h4v4h-4zm0 6h4v4h-4zM7 313h4v4H7zm6 0h4v4h-4zm6 0h4v4h-4zm6 0h4v4h-4zm6 0h4v4h-4zm6 0h4v4h-4zm6 0h4v4h-4zm6 0h4v4h-4zm6 0h4v4h-4zm6 0h4v4h-4zm6 0h4v4h-4zm6 0h4v4h-4zm6 0h4v4h-4zm6 0h4v4h-4zm6 0h4v4h-4zm6 0h4v4h-4zm6 0h4v4h-4zm6 0h4v4h-4zm6 0h4v4h-4zm6 0h4v4h-4zm6 0h4v4h-4zm6 0h4v4h-4zm6 0h4v4h-4zm6 0h4v4h-4zm6 0h4v4h-4zm6 0h4v4h-4zm6 0h4v4h-4zm6 0h4v4h-4zm6 0h4v4h-4z"></path><rect fill="#FFF" x="7" y="29" width="172" height="278" rx="2"></rect></g><path d="M401.009 596.34h2.375v-2.159h-2.375v2.16zm-2.807 0h2.375v-2.159h-2.375v2.16zm-2.807 0h2.375v-2.159h-2.375v2.16zm-2.806 0h2.375v-2.159h-2.375v2.16zm-2.807 0h2.375v-2.159h-2.375v2.16zm2.807-2.59h2.375v-2.16h-2.375v2.16zm2.806 0h2.375v-2.16h-2.375v2.16zm2.807 0h2.375v-2.16h-2.375v2.16zm0-2.591h2.375V589h-2.375v2.159zm12.318 3.923c-.518-.347-1.71-.475-2.627-.302-.118-.864-.6-1.612-1.475-2.29l-.504-.335-.336.504c-.43.648-.644 1.547-.574 2.408.032.304.131.846.443 1.322-.312.168-.928.399-1.74.383H388.09l-.03.18c-.148.866-.145 3.568 1.61 5.645 1.333 1.579 3.333 2.38 5.942 2.38 5.657 0 9.843-2.605 11.803-7.338.77.015 2.43.004 3.282-1.625.022-.037.073-.135.222-.443l.082-.17-.48-.32z" fill="#A3A3A3"></path><g fill="#A3A3A3"><path d="M397.883 630.606a.34.34 0 0 0-.393-.259l-.003-.004-1.987.337c.307.849.88 1.54 1.6 2.002l.77-1.86-.006-.007a.336.336 0 0 0 .019-.21m-.661-1.431a.34.34 0 0 0 .134-.583l.001-.008-1.511-1.353a3.964 3.964 0 0 0-.563 2.509l1.938-.56.001-.006zm.883-1.526a.34.34 0 0 0 .539-.26l.008-.004.114-2.019a3.965 3.965 0 0 0-2.32 1.111l1.654 1.174.004-.002zm.585 2.12l.558.268.556-.268.138-.6-.385-.481h-.619l-.386.48zm1.157-2.386a.34.34 0 0 0 .54.259l.005.002 1.645-1.166a3.998 3.998 0 0 0-2.307-1.112l.114 2.016h.002z"></path><path d="M406.02 630.867c-.047.205-.27.33-.497.28h-.006l-.007-.002c-.032-.007-.072-.014-.1-.022-.132-.035-.227-.088-.345-.133-.255-.091-.466-.168-.671-.197-.105-.009-.158.041-.216.08a5.777 5.777 0 0 0-.164-.03 5.008 5.008 0 0 1-2.22 2.792c.02.044.05.139.065.155-.024.065-.06.127-.03.227.075.194.196.383.342.611.07.106.142.187.206.307l.05.104c.1.211.027.455-.163.547-.192.092-.43-.006-.533-.218-.014-.03-.035-.07-.047-.099-.055-.125-.074-.232-.112-.353-.087-.256-.16-.468-.264-.647-.059-.087-.13-.098-.197-.12l-.082-.147a4.993 4.993 0 0 1-3.552-.01l-.087.159c-.065.017-.127.034-.166.08-.14.168-.196.436-.298.692-.038.12-.056.228-.11.353l-.048.097v.001l-.001.001c-.103.212-.34.31-.532.217-.19-.091-.262-.335-.163-.547.014-.03.034-.075.05-.103.063-.12.135-.203.206-.308.145-.228.273-.432.348-.626.019-.064-.01-.153-.034-.218l.07-.167a5.009 5.009 0 0 1-2.22-2.772l-.168.029c-.045-.025-.135-.085-.221-.078-.206.03-.416.106-.671.197-.118.045-.214.097-.346.132-.027.008-.067.016-.099.023l-.007.002-.006.001c-.228.05-.45-.076-.497-.281-.047-.206.099-.414.326-.469l.006-.002h.003c.032-.008.073-.019.103-.024.134-.026.243-.02.369-.03.269-.028.492-.051.69-.113.063-.026.123-.113.165-.167l.161-.047a4.98 4.98 0 0 1 .786-3.472l-.124-.11c-.008-.049-.018-.16-.077-.223-.151-.142-.342-.26-.572-.402-.11-.064-.21-.106-.32-.186l-.08-.065-.005-.004c-.185-.147-.227-.401-.095-.567a.37.37 0 0 1 .307-.136.458.458 0 0 1 .268.101c.027.021.062.048.086.069.103.088.166.176.253.268.19.193.347.353.52.47.09.052.159.03.228.021l.139.1a4.95 4.95 0 0 1 3.21-1.545l.01-.162a.42.42 0 0 0 .124-.2c.017-.206-.01-.429-.042-.698-.018-.125-.048-.23-.053-.366v-.108c0-.237.172-.429.385-.429.212 0 .385.192.385.428 0 .034.002.079 0 .11-.005.136-.034.24-.052.365-.032.269-.06.492-.044.699.015.103.076.144.126.192l.01.172a5.044 5.044 0 0 1 3.194 1.544l.147-.105c.05.003.158.018.233-.025.172-.116.33-.277.519-.47.087-.092.15-.18.254-.269l.086-.068c.184-.147.441-.132.574.034.132.167.09.42-.095.568-.026.02-.06.05-.085.068-.11.081-.21.123-.32.187-.23.142-.42.26-.572.402-.071.076-.066.149-.072.218l-.137.122a4.982 4.982 0 0 1 .802 3.464l.155.046c.028.04.086.135.167.167.198.062.42.085.69.113.126.01.235.004.369.03.032.006.079.018.112.026.227.055.372.263.325.469m2.447.084l-1.59-6.902a1.222 1.222 0 0 0-.665-.827l-6.43-3.071a1.239 1.239 0 0 0-1.068 0l-6.43 3.072a1.221 1.221 0 0 0-.666.828l-1.586 6.901a1.211 1.211 0 0 0 .237 1.032l4.45 5.534c.234.29.588.46.962.46l7.137-.002c.374 0 .728-.169.962-.459l4.449-5.534c.233-.29.32-.67.238-1.032"></path><path d="M402.64 627.231l-1.504 1.346v.004a.34.34 0 0 0 .133.583l.003.008 1.947.561c.041-.42.016-.855-.084-1.29a4.013 4.013 0 0 0-.496-1.212m-3.093 4.104a.337.337 0 0 0-.31-.178.34.34 0 0 0-.288.179h-.001l-.977 1.766a3.98 3.98 0 0 0 2.563.003l-.98-1.77h-.007zm1.455-.995a.338.338 0 0 0-.208.028.34.34 0 0 0-.164.44l-.003.002.778 1.88a3.97 3.97 0 0 0 1.605-2.016l-2.005-.339-.003.004z"></path></g><path d="M321 588v19a5 5 0 0 1-5 5H140a5 5 0 0 1-5-5v-19a5 5 0 0 1 5-5h176a5 5 0 0 1 5 5z" fill="#D2D2D2"></path><path fill="#A3A3A3" d="M166 589h4v4h-4zm0 6h4v4h-4zm0 6h4v4h-4zm6-12h4v4h-4zm0 6h4v4h-4zm0 6h4v4h-4zm6-12h4v4h-4zm0 6h4v4h-4zm0 6h4v4h-4zm6-12h4v4h-4zm0 6h4v4h-4zm0 6h4v4h-4zm6-12h4v4h-4zm0 6h4v4h-4zm0 6h4v4h-4zm6-12h4v4h-4zm0 6h4v4h-4zm0 6h4v4h-4zm6-12h4v4h-4zm0 6h4v4h-4zm0 6h4v4h-4zm6-12h4v4h-4zm0 6h4v4h-4zm0 6h4v4h-4zm6-12h4v4h-4zm0 6h4v4h-4zm0 6h4v4h-4zm6-12h4v4h-4zm0 6h4v4h-4zm0 6h4v4h-4zm6-12h4v4h-4zm0 6h4v4h-4zm0 6h4v4h-4zm6-12h4v4h-4zm0 6h4v4h-4zm0 6h4v4h-4zm6-12h4v4h-4zm0 6h4v4h-4zm0 6h4v4h-4zm6-12h4v4h-4zm0 6h4v4h-4zm0 6h4v4h-4zm6-12h4v4h-4zm0 6h4v4h-4zm0 6h4v4h-4zm6-12h4v4h-4zm0 6h4v4h-4zm0 6h4v4h-4zm6-12h4v4h-4zm0 6h4v4h-4zm0 6h4v4h-4zm6-12h4v4h-4zm0 6h4v4h-4zm0 6h4v4h-4zm6-12h4v4h-4zm0 6h4v4h-4zm0 6h4v4h-4zm6-12h4v4h-4zm0 6h4v4h-4zm0 6h4v4h-4zm6-12h4v4h-4zm0 6h4v4h-4zm0 6h4v4h-4zm6-12h4v4h-4zm0 6h4v4h-4zm0 6h4v4h-4zm6-12h4v4h-4zm0 6h4v4h-4zm0 6h4v4h-4zm6-12h4v4h-4zm0 6h4v4h-4zm0 6h4v4h-4zm6-12h4v4h-4zm0 6h4v4h-4zm0 6h4v4h-4z"></path><path d="M321 620v19a5 5 0 0 1-5 5H140a5 5 0 0 1-5-5v-19a5 5 0 0 1 5-5h176a5 5 0 0 1 5 5z" fill="#D2D2D2"></path><path fill="#A3A3A3" d="M166 621h4v4h-4zm0 6h4v4h-4zm0 6h4v4h-4zm6-12h4v4h-4zm0 6h4v4h-4zm0 6h4v4h-4zm6-12h4v4h-4zm0 6h4v4h-4zm0 6h4v4h-4zm6-12h4v4h-4zm0 6h4v4h-4zm0 6h4v4h-4zm6-12h4v4h-4zm0 6h4v4h-4zm0 6h4v4h-4zm6-12h4v4h-4zm0 6h4v4h-4zm0 6h4v4h-4zm6-12h4v4h-4zm0 6h4v4h-4zm0 6h4v4h-4zm6-12h4v4h-4zm0 6h4v4h-4zm0 6h4v4h-4zm6-12h4v4h-4zm0 6h4v4h-4zm0 6h4v4h-4zm6-12h4v4h-4zm0 6h4v4h-4zm0 6h4v4h-4zm6-12h4v4h-4zm0 6h4v4h-4zm0 6h4v4h-4zm6-12h4v4h-4zm0 6h4v4h-4zm0 6h4v4h-4zm6-12h4v4h-4zm0 6h4v4h-4zm0 6h4v4h-4zm6-12h4v4h-4zm0 6h4v4h-4zm0 6h4v4h-4zm6-12h4v4h-4zm0 6h4v4h-4zm0 6h4v4h-4zm6-12h4v4h-4zm0 6h4v4h-4zm0 6h4v4h-4zm6-12h4v4h-4zm0 6h4v4h-4zm0 6h4v4h-4zm6-12h4v4h-4zm0 6h4v4h-4zm0 6h4v4h-4zm6-12h4v4h-4zm0 6h4v4h-4zm0 6h4v4h-4zm6-12h4v4h-4zm0 6h4v4h-4zm0 6h4v4h-4zm6-12h4v4h-4zm0 6h4v4h-4zm0 6h4v4h-4zm6-12h4v4h-4zm0 6h4v4h-4zm0 6h4v4h-4zm6-12h4v4h-4zm0 6h4v4h-4zm0 6h4v4h-4zm6-12h4v4h-4zm0 6h4v4h-4zm0 6h4v4h-4zm6-12h4v4h-4zm0 6h4v4h-4zm0 6h4v4h-4z"></path><g transform="translate(135 256)"><path d="M186 5v314a5 5 0 0 1-5 5H5a5 5 0 0 1-5-5V5a5 5 0 0 1 5-5h176a5 5 0 0 1 5 5z" fill="#D2D2D2"></path><path fill="#A3A3A3" d="M7 6h4v4H7zm0 6h4v4H7zm0 6h4v4H7zm6-12h4v4h-4zm0 6h4v4h-4zm0 6h4v4h-4zm6-12h4v4h-4zm0 6h4v4h-4zm0 6h4v4h-4zm6-12h4v4h-4zm0 6h4v4h-4zm0 6h4v4h-4zm6-12h4v4h-4zm0 6h4v4h-4zm0 6h4v4h-4zm6-12h4v4h-4zm0 6h4v4h-4zm0 6h4v4h-4zm6-12h4v4h-4zm0 6h4v4h-4zm0 6h4v4h-4zm6-12h4v4h-4zm0 6h4v4h-4zm0 6h4v4h-4zm6-12h4v4h-4zm0 6h4v4h-4zm0 6h4v4h-4zm6-12h4v4h-4zm0 6h4v4h-4zm0 6h4v4h-4zm6-12h4v4h-4zm0 6h4v4h-4zm0 6h4v4h-4zm6-12h4v4h-4zm0 6h4v4h-4zm0 6h4v4h-4zm6-12h4v4h-4zm0 6h4v4h-4zm0 6h4v4h-4zm6-12h4v4h-4zm0 6h4v4h-4zm0 6h4v4h-4zm6-12h4v4h-4zm0 6h4v4h-4zm0 6h4v4h-4zm6-12h4v4h-4zm0 6h4v4h-4zm0 6h4v4h-4zm6-12h4v4h-4zm0 6h4v4h-4zm0 6h4v4h-4zm6-12h4v4h-4zm0 6h4v4h-4zm0 6h4v4h-4zm6-12h4v4h-4zm0 6h4v4h-4zm0 6h4v4h-4zm6-12h4v4h-4zm0 6h4v4h-4zm0 6h4v4h-4zm6-12h4v4h-4zm0 6h4v4h-4zm0 6h4v4h-4zm6-12h4v4h-4zm0 6h4v4h-4zm0 6h4v4h-4zm6-12h4v4h-4zm0 6h4v4h-4zm0 6h4v4h-4zm6-12h4v4h-4zm0 6h4v4h-4zm0 6h4v4h-4zm6-12h4v4h-4zm0 6h4v4h-4zm0 6h4v4h-4zm6-12h4v4h-4zm0 6h4v4h-4zm0 6h4v4h-4zm6-12h4v4h-4zm0 6h4v4h-4zm0 6h4v4h-4zm6-12h4v4h-4zm0 6h4v4h-4zm0 6h4v4h-4zm6-12h4v4h-4zm0 6h4v4h-4zm0 6h4v4h-4zM7 313h4v4H7zm6 0h4v4h-4zm6 0h4v4h-4zm6 0h4v4h-4zm6 0h4v4h-4zm6 0h4v4h-4zm6 0h4v4h-4zm6 0h4v4h-4zm6 0h4v4h-4zm6 0h4v4h-4zm6 0h4v4h-4zm6 0h4v4h-4zm6 0h4v4h-4zm6 0h4v4h-4zm6 0h4v4h-4zm6 0h4v4h-4zm6 0h4v4h-4zm6 0h4v4h-4zm6 0h4v4h-4zm6 0h4v4h-4zm6 0h4v4h-4zm6 0h4v4h-4zm6 0h4v4h-4zm6 0h4v4h-4zm6 0h4v4h-4zm6 0h4v4h-4zm6 0h4v4h-4zm6 0h4v4h-4zm6 0h4v4h-4z"></path><rect fill="#FFF" x="7" y="29" width="172" height="278" rx="2"></rect></g><path d="M153.009 596.34h2.375v-2.159h-2.375v2.16zm-2.807 0h2.375v-2.159h-2.375v2.16zm-2.807 0h2.375v-2.159h-2.375v2.16zm-2.806 0h2.375v-2.159h-2.375v2.16zm-2.807 0h2.375v-2.159h-2.375v2.16zm2.807-2.59h2.375v-2.16h-2.375v2.16zm2.806 0h2.375v-2.16h-2.375v2.16zm2.807 0h2.375v-2.16h-2.375v2.16zm0-2.591h2.375V589h-2.375v2.159zm12.318 3.923c-.518-.347-1.71-.475-2.627-.302-.118-.864-.6-1.612-1.475-2.29l-.504-.335-.336.504c-.43.648-.644 1.547-.574 2.408.032.304.131.846.443 1.322-.312.168-.928.399-1.74.383H140.09l-.03.18c-.148.866-.145 3.568 1.61 5.645 1.333 1.579 3.333 2.38 5.942 2.38 5.657 0 9.843-2.605 11.803-7.338.77.015 2.43.004 3.282-1.625.022-.037.073-.135.222-.443l.082-.17-.48-.32z" fill="#A3A3A3"></path><g fill="#A3A3A3"><path d="M149.883 630.606a.34.34 0 0 0-.393-.259l-.003-.004-1.987.337c.307.849.88 1.54 1.6 2.002l.77-1.86-.006-.007a.336.336 0 0 0 .019-.21m-.661-1.431a.34.34 0 0 0 .134-.583l.001-.008-1.511-1.353a3.964 3.964 0 0 0-.563 2.509l1.938-.56.001-.006zm.883-1.526a.34.34 0 0 0 .539-.26l.008-.004.114-2.019a3.965 3.965 0 0 0-2.32 1.111l1.654 1.174.004-.002zm.585 2.12l.558.268.556-.268.138-.6-.385-.481h-.619l-.386.48zm1.157-2.386a.34.34 0 0 0 .54.259l.005.002 1.645-1.166a3.998 3.998 0 0 0-2.307-1.112l.114 2.016h.002z"></path><path d="M158.02 630.867c-.047.205-.27.33-.497.28h-.006l-.007-.002c-.032-.007-.072-.014-.1-.022-.132-.035-.227-.088-.345-.133-.255-.091-.466-.168-.671-.197-.105-.009-.158.041-.216.08a5.777 5.777 0 0 0-.164-.03 5.008 5.008 0 0 1-2.22 2.792c.02.044.05.139.065.155-.024.065-.06.127-.03.227.075.194.196.383.342.611.07.106.142.187.206.307l.05.104c.1.211.027.455-.163.547-.192.092-.43-.006-.533-.218-.014-.03-.035-.07-.047-.099-.055-.125-.074-.232-.112-.353-.087-.256-.16-.468-.264-.647-.059-.087-.13-.098-.197-.12l-.082-.147a4.993 4.993 0 0 1-3.552-.01l-.087.159c-.065.017-.127.034-.166.08-.14.168-.196.436-.298.692-.038.12-.056.228-.11.353l-.048.097v.001l-.001.001c-.103.212-.34.31-.532.217-.19-.091-.262-.335-.163-.547.014-.03.034-.075.05-.103.063-.12.135-.203.206-.308.145-.228.273-.432.348-.626.019-.064-.01-.153-.034-.218l.07-.167a5.009 5.009 0 0 1-2.22-2.772l-.168.029c-.045-.025-.135-.085-.221-.078-.206.03-.416.106-.671.197-.118.045-.214.097-.346.132-.027.008-.067.016-.099.023l-.007.002-.006.001c-.228.05-.45-.076-.497-.281-.047-.206.099-.414.326-.469l.006-.002h.003c.032-.008.073-.019.103-.024.134-.026.243-.02.369-.03.269-.028.492-.051.69-.113.063-.026.123-.113.165-.167l.161-.047a4.98 4.98 0 0 1 .786-3.472l-.124-.11c-.008-.049-.018-.16-.077-.223-.151-.142-.342-.26-.572-.402-.11-.064-.21-.106-.32-.186l-.08-.065-.005-.004c-.185-.147-.227-.401-.095-.567a.37.37 0 0 1 .307-.136.458.458 0 0 1 .268.101c.027.021.062.048.086.069.103.088.166.176.253.268.19.193.347.353.52.47.09.052.159.03.228.021l.139.1a4.95 4.95 0 0 1 3.21-1.545l.01-.162a.42.42 0 0 0 .124-.2c.017-.206-.01-.429-.042-.698-.018-.125-.048-.23-.053-.366v-.108c0-.237.172-.429.385-.429.212 0 .385.192.385.428 0 .034.002.079 0 .11-.005.136-.034.24-.052.365-.032.269-.06.492-.044.699.015.103.076.144.126.192l.01.172a5.044 5.044 0 0 1 3.194 1.544l.147-.105c.05.003.158.018.233-.025.172-.116.33-.277.519-.47.087-.092.15-.18.254-.269l.086-.068c.184-.147.441-.132.574.034.132.167.09.42-.095.568-.026.02-.06.05-.085.068-.11.081-.21.123-.32.187-.23.142-.42.26-.572.402-.071.076-.066.149-.072.218l-.137.122a4.982 4.982 0 0 1 .802 3.464l.155.046c.028.04.086.135.167.167.198.062.42.085.69.113.126.01.235.004.369.03.032.006.079.018.112.026.227.055.372.263.325.469m2.447.084l-1.59-6.902a1.222 1.222 0 0 0-.665-.827l-6.43-3.071a1.239 1.239 0 0 0-1.068 0l-6.43 3.072a1.221 1.221 0 0 0-.666.828l-1.586 6.901a1.211 1.211 0 0 0 .237 1.032l4.45 5.534c.234.29.588.46.962.46l7.137-.002c.374 0 .728-.169.962-.459l4.449-5.534c.233-.29.32-.67.238-1.032"></path><path d="M154.64 627.231l-1.504 1.346v.004a.34.34 0 0 0 .133.583l.003.008 1.947.561c.041-.42.016-.855-.084-1.29a4.013 4.013 0 0 0-.496-1.212m-3.093 4.104a.337.337 0 0 0-.31-.178.34.34 0 0 0-.288.179h-.001l-.977 1.766a3.98 3.98 0 0 0 2.563.003l-.98-1.77h-.007zm1.455-.995a.338.338 0 0 0-.208.028.34.34 0 0 0-.164.44l-.003.002.778 1.88a3.97 3.97 0 0 0 1.605-2.016l-2.005-.339-.003.004z"></path></g><path d="M818 588v19a5 5 0 0 1-5 5H637a5 5 0 0 1-5-5v-19a5 5 0 0 1 5-5h176a5 5 0 0 1 5 5z" fill="#D2D2D2"></path><path fill="#A3A3A3" d="M663 589h4v4h-4zm0 6h4v4h-4zm0 6h4v4h-4zm6-12h4v4h-4zm0 6h4v4h-4zm0 6h4v4h-4zm6-12h4v4h-4zm0 6h4v4h-4zm0 6h4v4h-4zm6-12h4v4h-4zm0 6h4v4h-4zm0 6h4v4h-4zm6-12h4v4h-4zm0 6h4v4h-4zm0 6h4v4h-4zm6-12h4v4h-4zm0 6h4v4h-4zm0 6h4v4h-4zm6-12h4v4h-4zm0 6h4v4h-4zm0 6h4v4h-4zm6-12h4v4h-4zm0 6h4v4h-4zm0 6h4v4h-4zm6-12h4v4h-4zm0 6h4v4h-4zm0 6h4v4h-4zm6-12h4v4h-4zm0 6h4v4h-4zm0 6h4v4h-4zm6-12h4v4h-4zm0 6h4v4h-4zm0 6h4v4h-4zm6-12h4v4h-4zm0 6h4v4h-4zm0 6h4v4h-4zm6-12h4v4h-4zm0 6h4v4h-4zm0 6h4v4h-4zm6-12h4v4h-4zm0 6h4v4h-4zm0 6h4v4h-4zm6-12h4v4h-4zm0 6h4v4h-4zm0 6h4v4h-4zm6-12h4v4h-4zm0 6h4v4h-4zm0 6h4v4h-4zm6-12h4v4h-4zm0 6h4v4h-4zm0 6h4v4h-4zm6-12h4v4h-4zm0 6h4v4h-4zm0 6h4v4h-4zm6-12h4v4h-4zm0 6h4v4h-4zm0 6h4v4h-4zm6-12h4v4h-4zm0 6h4v4h-4zm0 6h4v4h-4zm6-12h4v4h-4zm0 6h4v4h-4zm0 6h4v4h-4zm6-12h4v4h-4zm0 6h4v4h-4zm0 6h4v4h-4zm6-12h4v4h-4zm0 6h4v4h-4zm0 6h4v4h-4zm6-12h4v4h-4zm0 6h4v4h-4zm0 6h4v4h-4zm6-12h4v4h-4zm0 6h4v4h-4zm0 6h4v4h-4z"></path><path d="M818 620v19a5 5 0 0 1-5 5H637a5 5 0 0 1-5-5v-19a5 5 0 0 1 5-5h176a5 5 0 0 1 5 5z" fill="#D2D2D2"></path><path fill="#A3A3A3" d="M663 621h4v4h-4zm0 6h4v4h-4zm0 6h4v4h-4zm6-12h4v4h-4zm0 6h4v4h-4zm0 6h4v4h-4zm6-12h4v4h-4zm0 6h4v4h-4zm0 6h4v4h-4zm6-12h4v4h-4zm0 6h4v4h-4zm0 6h4v4h-4zm6-12h4v4h-4zm0 6h4v4h-4zm0 6h4v4h-4zm6-12h4v4h-4zm0 6h4v4h-4zm0 6h4v4h-4zm6-12h4v4h-4zm0 6h4v4h-4zm0 6h4v4h-4zm6-12h4v4h-4zm0 6h4v4h-4zm0 6h4v4h-4zm6-12h4v4h-4zm0 6h4v4h-4zm0 6h4v4h-4zm6-12h4v4h-4zm0 6h4v4h-4zm0 6h4v4h-4zm6-12h4v4h-4zm0 6h4v4h-4zm0 6h4v4h-4zm6-12h4v4h-4zm0 6h4v4h-4zm0 6h4v4h-4zm6-12h4v4h-4zm0 6h4v4h-4zm0 6h4v4h-4zm6-12h4v4h-4zm0 6h4v4h-4zm0 6h4v4h-4zm6-12h4v4h-4zm0 6h4v4h-4zm0 6h4v4h-4zm6-12h4v4h-4zm0 6h4v4h-4zm0 6h4v4h-4zm6-12h4v4h-4zm0 6h4v4h-4zm0 6h4v4h-4zm6-12h4v4h-4zm0 6h4v4h-4zm0 6h4v4h-4zm6-12h4v4h-4zm0 6h4v4h-4zm0 6h4v4h-4zm6-12h4v4h-4zm0 6h4v4h-4zm0 6h4v4h-4zm6-12h4v4h-4zm0 6h4v4h-4zm0 6h4v4h-4zm6-12h4v4h-4zm0 6h4v4h-4zm0 6h4v4h-4zm6-12h4v4h-4zm0 6h4v4h-4zm0 6h4v4h-4zm6-12h4v4h-4zm0 6h4v4h-4zm0 6h4v4h-4zm6-12h4v4h-4zm0 6h4v4h-4zm0 6h4v4h-4z"></path><g transform="translate(632 256)"><path d="M186 5v314a5 5 0 0 1-5 5H5a5 5 0 0 1-5-5V5a5 5 0 0 1 5-5h176a5 5 0 0 1 5 5z" fill="#D2D2D2"></path><path fill="#A3A3A3" d="M7 6h4v4H7zm0 6h4v4H7zm0 6h4v4H7zm6-12h4v4h-4zm0 6h4v4h-4zm0 6h4v4h-4zm6-12h4v4h-4zm0 6h4v4h-4zm0 6h4v4h-4zm6-12h4v4h-4zm0 6h4v4h-4zm0 6h4v4h-4zm6-12h4v4h-4zm0 6h4v4h-4zm0 6h4v4h-4zm6-12h4v4h-4zm0 6h4v4h-4zm0 6h4v4h-4zm6-12h4v4h-4zm0 6h4v4h-4zm0 6h4v4h-4zm6-12h4v4h-4zm0 6h4v4h-4zm0 6h4v4h-4zm6-12h4v4h-4zm0 6h4v4h-4zm0 6h4v4h-4zm6-12h4v4h-4zm0 6h4v4h-4zm0 6h4v4h-4zm6-12h4v4h-4zm0 6h4v4h-4zm0 6h4v4h-4zm6-12h4v4h-4zm0 6h4v4h-4zm0 6h4v4h-4zm6-12h4v4h-4zm0 6h4v4h-4zm0 6h4v4h-4zm6-12h4v4h-4zm0 6h4v4h-4zm0 6h4v4h-4zm6-12h4v4h-4zm0 6h4v4h-4zm0 6h4v4h-4zm6-12h4v4h-4zm0 6h4v4h-4zm0 6h4v4h-4zm6-12h4v4h-4zm0 6h4v4h-4zm0 6h4v4h-4zm6-12h4v4h-4zm0 6h4v4h-4zm0 6h4v4h-4zm6-12h4v4h-4zm0 6h4v4h-4zm0 6h4v4h-4zm6-12h4v4h-4zm0 6h4v4h-4zm0 6h4v4h-4zm6-12h4v4h-4zm0 6h4v4h-4zm0 6h4v4h-4zm6-12h4v4h-4zm0 6h4v4h-4zm0 6h4v4h-4zm6-12h4v4h-4zm0 6h4v4h-4zm0 6h4v4h-4zm6-12h4v4h-4zm0 6h4v4h-4zm0 6h4v4h-4zm6-12h4v4h-4zm0 6h4v4h-4zm0 6h4v4h-4zm6-12h4v4h-4zm0 6h4v4h-4zm0 6h4v4h-4zm6-12h4v4h-4zm0 6h4v4h-4zm0 6h4v4h-4zm6-12h4v4h-4zm0 6h4v4h-4zm0 6h4v4h-4zm6-12h4v4h-4zm0 6h4v4h-4zm0 6h4v4h-4zM7 313h4v4H7zm6 0h4v4h-4zm6 0h4v4h-4zm6 0h4v4h-4zm6 0h4v4h-4zm6 0h4v4h-4zm6 0h4v4h-4zm6 0h4v4h-4zm6 0h4v4h-4zm6 0h4v4h-4zm6 0h4v4h-4zm6 0h4v4h-4zm6 0h4v4h-4zm6 0h4v4h-4zm6 0h4v4h-4zm6 0h4v4h-4zm6 0h4v4h-4zm6 0h4v4h-4zm6 0h4v4h-4zm6 0h4v4h-4zm6 0h4v4h-4zm6 0h4v4h-4zm6 0h4v4h-4zm6 0h4v4h-4zm6 0h4v4h-4zm6 0h4v4h-4zm6 0h4v4h-4zm6 0h4v4h-4zm6 0h4v4h-4z"></path><rect fill="#FFF" x="7" y="29" width="172" height="278" rx="2"></rect></g><path d="M650.009 596.34h2.375v-2.159h-2.375v2.16zm-2.807 0h2.375v-2.159h-2.375v2.16zm-2.807 0h2.375v-2.159h-2.375v2.16zm-2.806 0h2.375v-2.159h-2.375v2.16zm-2.807 0h2.375v-2.159h-2.375v2.16zm2.807-2.59h2.375v-2.16h-2.375v2.16zm2.806 0h2.375v-2.16h-2.375v2.16zm2.807 0h2.375v-2.16h-2.375v2.16zm0-2.591h2.375V589h-2.375v2.159zm12.318 3.923c-.518-.347-1.71-.475-2.627-.302-.118-.864-.6-1.612-1.475-2.29l-.504-.335-.336.504c-.43.648-.644 1.547-.574 2.408.032.304.131.846.443 1.322-.312.168-.928.399-1.74.383H637.09l-.03.18c-.148.866-.145 3.568 1.61 5.645 1.333 1.579 3.333 2.38 5.942 2.38 5.657 0 9.843-2.605 11.803-7.338.77.015 2.43.004 3.282-1.625.022-.037.073-.135.222-.443l.082-.17-.48-.32z" fill="#A3A3A3"></path><g fill="#A3A3A3"><path d="M646.883 630.606a.34.34 0 0 0-.393-.259l-.003-.004-1.987.337c.307.849.88 1.54 1.6 2.002l.77-1.86-.006-.007a.336.336 0 0 0 .019-.21m-.661-1.431a.34.34 0 0 0 .134-.583l.001-.008-1.511-1.353a3.964 3.964 0 0 0-.563 2.509l1.938-.56.001-.006zm.883-1.526a.34.34 0 0 0 .539-.26l.008-.004.114-2.019a3.965 3.965 0 0 0-2.32 1.111l1.654 1.174.004-.002zm.585 2.12l.558.268.556-.268.138-.6-.385-.481h-.619l-.386.48zm1.157-2.386a.34.34 0 0 0 .54.259l.005.002 1.645-1.166a3.998 3.998 0 0 0-2.307-1.112l.114 2.016h.002z"></path><path d="M655.02 630.867c-.047.205-.27.33-.497.28h-.006l-.007-.002c-.032-.007-.072-.014-.1-.022-.132-.035-.227-.088-.345-.133-.255-.091-.466-.168-.671-.197-.105-.009-.158.041-.216.08a5.777 5.777 0 0 0-.164-.03 5.008 5.008 0 0 1-2.22 2.792c.02.044.05.139.065.155-.024.065-.06.127-.03.227.075.194.196.383.342.611.07.106.142.187.206.307l.05.104c.1.211.027.455-.163.547-.192.092-.43-.006-.533-.218-.014-.03-.035-.07-.047-.099-.055-.125-.074-.232-.112-.353-.087-.256-.16-.468-.264-.647-.059-.087-.13-.098-.197-.12l-.082-.147a4.993 4.993 0 0 1-3.552-.01l-.087.159c-.065.017-.127.034-.166.08-.14.168-.196.436-.298.692-.038.12-.056.228-.11.353l-.048.097v.001l-.001.001c-.103.212-.34.31-.532.217-.19-.091-.262-.335-.163-.547.014-.03.034-.075.05-.103.063-.12.135-.203.206-.308.145-.228.273-.432.348-.626.019-.064-.01-.153-.034-.218l.07-.167a5.009 5.009 0 0 1-2.22-2.772l-.168.029c-.045-.025-.135-.085-.221-.078-.206.03-.416.106-.671.197-.118.045-.214.097-.346.132-.027.008-.067.016-.099.023l-.007.002-.006.001c-.228.05-.45-.076-.497-.281-.047-.206.099-.414.326-.469l.006-.002h.003c.032-.008.073-.019.103-.024.134-.026.243-.02.369-.03.269-.028.492-.051.69-.113.063-.026.123-.113.165-.167l.161-.047a4.98 4.98 0 0 1 .786-3.472l-.124-.11c-.008-.049-.018-.16-.077-.223-.151-.142-.342-.26-.572-.402-.11-.064-.21-.106-.32-.186l-.08-.065-.005-.004c-.185-.147-.227-.401-.095-.567a.37.37 0 0 1 .307-.136.458.458 0 0 1 .268.101c.027.021.062.048.086.069.103.088.166.176.253.268.19.193.347.353.52.47.09.052.159.03.228.021l.139.1a4.95 4.95 0 0 1 3.21-1.545l.01-.162a.42.42 0 0 0 .124-.2c.017-.206-.01-.429-.042-.698-.018-.125-.048-.23-.053-.366v-.108c0-.237.172-.429.385-.429.212 0 .385.192.385.428 0 .034.002.079 0 .11-.005.136-.034.24-.052.365-.032.269-.06.492-.044.699.015.103.076.144.126.192l.01.172a5.044 5.044 0 0 1 3.194 1.544l.147-.105c.05.003.158.018.233-.025.172-.116.33-.277.519-.47.087-.092.15-.18.254-.269l.086-.068c.184-.147.441-.132.574.034.132.167.09.42-.095.568-.026.02-.06.05-.085.068-.11.081-.21.123-.32.187-.23.142-.42.26-.572.402-.071.076-.066.149-.072.218l-.137.122a4.982 4.982 0 0 1 .802 3.464l.155.046c.028.04.086.135.167.167.198.062.42.085.69.113.126.01.235.004.369.03.032.006.079.018.112.026.227.055.372.263.325.469m2.447.084l-1.59-6.902a1.222 1.222 0 0 0-.665-.827l-6.43-3.071a1.239 1.239 0 0 0-1.068 0l-6.43 3.072a1.221 1.221 0 0 0-.666.828l-1.586 6.901a1.211 1.211 0 0 0 .237 1.032l4.45 5.534c.234.29.588.46.962.46l7.137-.002c.374 0 .728-.169.962-.459l4.449-5.534c.233-.29.32-.67.238-1.032"></path><path d="M651.64 627.231l-1.504 1.346v.004a.34.34 0 0 0 .133.583l.003.008 1.947.561c.041-.42.016-.855-.084-1.29a4.013 4.013 0 0 0-.496-1.212m-3.093 4.104a.337.337 0 0 0-.31-.178.34.34 0 0 0-.288.179h-.001l-.977 1.766a3.98 3.98 0 0 0 2.563.003l-.98-1.77h-.007zm1.455-.995a.338.338 0 0 0-.208.028.34.34 0 0 0-.164.44l-.003.002.778 1.88a3.97 3.97 0 0 0 1.605-2.016l-2.005-.339-.003.004z"></path></g><path d="M1066 588v19a5 5 0 0 1-5 5H885a5 5 0 0 1-5-5v-19a5 5 0 0 1 5-5h176a5 5 0 0 1 5 5z" fill="#D2D2D2"></path><path fill="#A3A3A3" d="M911 589h4v4h-4zm0 6h4v4h-4zm0 6h4v4h-4zm6-12h4v4h-4zm0 6h4v4h-4zm0 6h4v4h-4zm6-12h4v4h-4zm0 6h4v4h-4zm0 6h4v4h-4zm6-12h4v4h-4zm0 6h4v4h-4zm0 6h4v4h-4zm6-12h4v4h-4zm0 6h4v4h-4zm0 6h4v4h-4zm6-12h4v4h-4zm0 6h4v4h-4zm0 6h4v4h-4zm6-12h4v4h-4zm0 6h4v4h-4zm0 6h4v4h-4zm6-12h4v4h-4zm0 6h4v4h-4zm0 6h4v4h-4zm6-12h4v4h-4zm0 6h4v4h-4zm0 6h4v4h-4zm6-12h4v4h-4zm0 6h4v4h-4zm0 6h4v4h-4zm6-12h4v4h-4zm0 6h4v4h-4zm0 6h4v4h-4zm6-12h4v4h-4zm0 6h4v4h-4zm0 6h4v4h-4zm6-12h4v4h-4zm0 6h4v4h-4zm0 6h4v4h-4zm6-12h4v4h-4zm0 6h4v4h-4zm0 6h4v4h-4zm6-12h4v4h-4zm0 6h4v4h-4zm0 6h4v4h-4zm6-12h4v4h-4zm0 6h4v4h-4zm0 6h4v4h-4zm6-12h4v4h-4zm0 6h4v4h-4zm0 6h4v4h-4zm6-12h4v4h-4zm0 6h4v4h-4zm0 6h4v4h-4zm6-12h4v4h-4zm0 6h4v4h-4zm0 6h4v4h-4zm6-12h4v4h-4zm0 6h4v4h-4zm0 6h4v4h-4zm6-12h4v4h-4zm0 6h4v4h-4zm0 6h4v4h-4zm6-12h4v4h-4zm0 6h4v4h-4zm0 6h4v4h-4zm6-12h4v4h-4zm0 6h4v4h-4zm0 6h4v4h-4zm6-12h4v4h-4zm0 6h4v4h-4zm0 6h4v4h-4zm6-12h4v4h-4zm0 6h4v4h-4zm0 6h4v4h-4z"></path><path d="M1066 620v19a5 5 0 0 1-5 5H885a5 5 0 0 1-5-5v-19a5 5 0 0 1 5-5h176a5 5 0 0 1 5 5z" fill="#D2D2D2"></path><path fill="#A3A3A3" d="M911 621h4v4h-4zm0 6h4v4h-4zm0 6h4v4h-4zm6-12h4v4h-4zm0 6h4v4h-4zm0 6h4v4h-4zm6-12h4v4h-4zm0 6h4v4h-4zm0 6h4v4h-4zm6-12h4v4h-4zm0 6h4v4h-4zm0 6h4v4h-4zm6-12h4v4h-4zm0 6h4v4h-4zm0 6h4v4h-4zm6-12h4v4h-4zm0 6h4v4h-4zm0 6h4v4h-4zm6-12h4v4h-4zm0 6h4v4h-4zm0 6h4v4h-4zm6-12h4v4h-4zm0 6h4v4h-4zm0 6h4v4h-4zm6-12h4v4h-4zm0 6h4v4h-4zm0 6h4v4h-4zm6-12h4v4h-4zm0 6h4v4h-4zm0 6h4v4h-4zm6-12h4v4h-4zm0 6h4v4h-4zm0 6h4v4h-4zm6-12h4v4h-4zm0 6h4v4h-4zm0 6h4v4h-4zm6-12h4v4h-4zm0 6h4v4h-4zm0 6h4v4h-4zm6-12h4v4h-4zm0 6h4v4h-4zm0 6h4v4h-4zm6-12h4v4h-4zm0 6h4v4h-4zm0 6h4v4h-4zm6-12h4v4h-4zm0 6h4v4h-4zm0 6h4v4h-4zm6-12h4v4h-4zm0 6h4v4h-4zm0 6h4v4h-4zm6-12h4v4h-4zm0 6h4v4h-4zm0 6h4v4h-4zm6-12h4v4h-4zm0 6h4v4h-4zm0 6h4v4h-4zm6-12h4v4h-4zm0 6h4v4h-4zm0 6h4v4h-4zm6-12h4v4h-4zm0 6h4v4h-4zm0 6h4v4h-4zm6-12h4v4h-4zm0 6h4v4h-4zm0 6h4v4h-4zm6-12h4v4h-4zm0 6h4v4h-4zm0 6h4v4h-4zm6-12h4v4h-4zm0 6h4v4h-4zm0 6h4v4h-4zm6-12h4v4h-4zm0 6h4v4h-4zm0 6h4v4h-4z"></path><g transform="translate(880 256)"><path d="M186 5v314a5 5 0 0 1-5 5H5a5 5 0 0 1-5-5V5a5 5 0 0 1 5-5h176a5 5 0 0 1 5 5z" fill="#D2D2D2"></path><path fill="#A3A3A3" d="M7 6h4v4H7zm0 6h4v4H7zm0 6h4v4H7zm6-12h4v4h-4zm0 6h4v4h-4zm0 6h4v4h-4zm6-12h4v4h-4zm0 6h4v4h-4zm0 6h4v4h-4zm6-12h4v4h-4zm0 6h4v4h-4zm0 6h4v4h-4zm6-12h4v4h-4zm0 6h4v4h-4zm0 6h4v4h-4zm6-12h4v4h-4zm0 6h4v4h-4zm0 6h4v4h-4zm6-12h4v4h-4zm0 6h4v4h-4zm0 6h4v4h-4zm6-12h4v4h-4zm0 6h4v4h-4zm0 6h4v4h-4zm6-12h4v4h-4zm0 6h4v4h-4zm0 6h4v4h-4zm6-12h4v4h-4zm0 6h4v4h-4zm0 6h4v4h-4zm6-12h4v4h-4zm0 6h4v4h-4zm0 6h4v4h-4zm6-12h4v4h-4zm0 6h4v4h-4zm0 6h4v4h-4zm6-12h4v4h-4zm0 6h4v4h-4zm0 6h4v4h-4zm6-12h4v4h-4zm0 6h4v4h-4zm0 6h4v4h-4zm6-12h4v4h-4zm0 6h4v4h-4zm0 6h4v4h-4zm6-12h4v4h-4zm0 6h4v4h-4zm0 6h4v4h-4zm6-12h4v4h-4zm0 6h4v4h-4zm0 6h4v4h-4zm6-12h4v4h-4zm0 6h4v4h-4zm0 6h4v4h-4zm6-12h4v4h-4zm0 6h4v4h-4zm0 6h4v4h-4zm6-12h4v4h-4zm0 6h4v4h-4zm0 6h4v4h-4zm6-12h4v4h-4zm0 6h4v4h-4zm0 6h4v4h-4zm6-12h4v4h-4zm0 6h4v4h-4zm0 6h4v4h-4zm6-12h4v4h-4zm0 6h4v4h-4zm0 6h4v4h-4zm6-12h4v4h-4zm0 6h4v4h-4zm0 6h4v4h-4zm6-12h4v4h-4zm0 6h4v4h-4zm0 6h4v4h-4zm6-12h4v4h-4zm0 6h4v4h-4zm0 6h4v4h-4zm6-12h4v4h-4zm0 6h4v4h-4zm0 6h4v4h-4zm6-12h4v4h-4zm0 6h4v4h-4zm0 6h4v4h-4zm6-12h4v4h-4zm0 6h4v4h-4zm0 6h4v4h-4zM7 313h4v4H7zm6 0h4v4h-4zm6 0h4v4h-4zm6 0h4v4h-4zm6 0h4v4h-4zm6 0h4v4h-4zm6 0h4v4h-4zm6 0h4v4h-4zm6 0h4v4h-4zm6 0h4v4h-4zm6 0h4v4h-4zm6 0h4v4h-4zm6 0h4v4h-4zm6 0h4v4h-4zm6 0h4v4h-4zm6 0h4v4h-4zm6 0h4v4h-4zm6 0h4v4h-4zm6 0h4v4h-4zm6 0h4v4h-4zm6 0h4v4h-4zm6 0h4v4h-4zm6 0h4v4h-4zm6 0h4v4h-4zm6 0h4v4h-4zm6 0h4v4h-4zm6 0h4v4h-4zm6 0h4v4h-4zm6 0h4v4h-4z"></path><rect fill="#FFF" x="7" y="29" width="172" height="278" rx="2"></rect></g><path d="M898.009 596.34h2.375v-2.159h-2.375v2.16zm-2.807 0h2.375v-2.159h-2.375v2.16zm-2.807 0h2.375v-2.159h-2.375v2.16zm-2.806 0h2.375v-2.159h-2.375v2.16zm-2.807 0h2.375v-2.159h-2.375v2.16zm2.807-2.59h2.375v-2.16h-2.375v2.16zm2.806 0h2.375v-2.16h-2.375v2.16zm2.807 0h2.375v-2.16h-2.375v2.16zm0-2.591h2.375V589h-2.375v2.159zm12.318 3.923c-.518-.347-1.71-.475-2.627-.302-.118-.864-.6-1.612-1.475-2.29l-.504-.335-.336.504c-.43.648-.644 1.547-.574 2.408.032.304.131.846.443 1.322-.312.168-.928.399-1.74.383H885.09l-.03.18c-.148.866-.145 3.568 1.61 5.645 1.333 1.579 3.333 2.38 5.942 2.38 5.657 0 9.843-2.605 11.803-7.338.77.015 2.43.004 3.282-1.625.022-.037.073-.135.222-.443l.082-.17-.48-.32z" fill="#A3A3A3"></path><g fill="#A3A3A3"><path d="M894.883 630.606a.34.34 0 0 0-.393-.259l-.003-.004-1.987.337c.307.849.88 1.54 1.6 2.002l.77-1.86-.006-.007a.336.336 0 0 0 .019-.21m-.661-1.431a.34.34 0 0 0 .134-.583l.001-.008-1.511-1.353a3.964 3.964 0 0 0-.563 2.509l1.938-.56.001-.006zm.883-1.526a.34.34 0 0 0 .539-.26l.008-.004.114-2.019a3.965 3.965 0 0 0-2.32 1.111l1.654 1.174.004-.002zm.585 2.12l.558.268.556-.268.138-.6-.385-.481h-.619l-.386.48zm1.157-2.386a.34.34 0 0 0 .54.259l.005.002 1.645-1.166a3.998 3.998 0 0 0-2.307-1.112l.114 2.016h.002z"></path><path d="M903.02 630.867c-.047.205-.27.33-.497.28h-.006l-.007-.002c-.032-.007-.072-.014-.1-.022-.132-.035-.227-.088-.345-.133-.255-.091-.466-.168-.671-.197-.105-.009-.158.041-.216.08a5.777 5.777 0 0 0-.164-.03 5.008 5.008 0 0 1-2.22 2.792c.02.044.05.139.065.155-.024.065-.06.127-.03.227.075.194.196.383.342.611.07.106.142.187.206.307l.05.104c.1.211.027.455-.163.547-.192.092-.43-.006-.533-.218-.014-.03-.035-.07-.047-.099-.055-.125-.074-.232-.112-.353-.087-.256-.16-.468-.264-.647-.059-.087-.13-.098-.197-.12l-.082-.147a4.993 4.993 0 0 1-3.552-.01l-.087.159c-.065.017-.127.034-.166.08-.14.168-.196.436-.298.692-.038.12-.056.228-.11.353l-.048.097v.001l-.001.001c-.103.212-.34.31-.532.217-.19-.091-.262-.335-.163-.547.014-.03.034-.075.05-.103.063-.12.135-.203.206-.308.145-.228.273-.432.348-.626.019-.064-.01-.153-.034-.218l.07-.167a5.009 5.009 0 0 1-2.22-2.772l-.168.029c-.045-.025-.135-.085-.221-.078-.206.03-.416.106-.671.197-.118.045-.214.097-.346.132-.027.008-.067.016-.099.023l-.007.002-.006.001c-.228.05-.45-.076-.497-.281-.047-.206.099-.414.326-.469l.006-.002h.003c.032-.008.073-.019.103-.024.134-.026.243-.02.369-.03.269-.028.492-.051.69-.113.063-.026.123-.113.165-.167l.161-.047a4.98 4.98 0 0 1 .786-3.472l-.124-.11c-.008-.049-.018-.16-.077-.223-.151-.142-.342-.26-.572-.402-.11-.064-.21-.106-.32-.186l-.08-.065-.005-.004c-.185-.147-.227-.401-.095-.567a.37.37 0 0 1 .307-.136.458.458 0 0 1 .268.101c.027.021.062.048.086.069.103.088.166.176.253.268.19.193.347.353.52.47.09.052.159.03.228.021l.139.1a4.95 4.95 0 0 1 3.21-1.545l.01-.162a.42.42 0 0 0 .124-.2c.017-.206-.01-.429-.042-.698-.018-.125-.048-.23-.053-.366v-.108c0-.237.172-.429.385-.429.212 0 .385.192.385.428 0 .034.002.079 0 .11-.005.136-.034.24-.052.365-.032.269-.06.492-.044.699.015.103.076.144.126.192l.01.172a5.044 5.044 0 0 1 3.194 1.544l.147-.105c.05.003.158.018.233-.025.172-.116.33-.277.519-.47.087-.092.15-.18.254-.269l.086-.068c.184-.147.441-.132.574.034.132.167.09.42-.095.568-.026.02-.06.05-.085.068-.11.081-.21.123-.32.187-.23.142-.42.26-.572.402-.071.076-.066.149-.072.218l-.137.122a4.982 4.982 0 0 1 .802 3.464l.155.046c.028.04.086.135.167.167.198.062.42.085.69.113.126.01.235.004.369.03.032.006.079.018.112.026.227.055.372.263.325.469m2.447.084l-1.59-6.902a1.222 1.222 0 0 0-.665-.827l-6.43-3.071a1.239 1.239 0 0 0-1.068 0l-6.43 3.072a1.221 1.221 0 0 0-.666.828l-1.586 6.901a1.211 1.211 0 0 0 .237 1.032l4.45 5.534c.234.29.588.46.962.46l7.137-.002c.374 0 .728-.169.962-.459l4.449-5.534c.233-.29.32-.67.238-1.032"></path><path d="M899.64 627.231l-1.504 1.346v.004a.34.34 0 0 0 .133.583l.003.008 1.947.561c.041-.42.016-.855-.084-1.29a4.013 4.013 0 0 0-.496-1.212m-3.093 4.104a.337.337 0 0 0-.31-.178.34.34 0 0 0-.288.179h-.001l-.977 1.766a3.98 3.98 0 0 0 2.563.003l-.98-1.77h-.007zm1.455-.995a.338.338 0 0 0-.208.028.34.34 0 0 0-.164.44l-.003.002.778 1.88a3.97 3.97 0 0 0 1.605-2.016l-2.005-.339-.003.004z"></path></g><g fill-rule="nonzero" stroke="#FFF" stroke-width=".5"><path d="M972.572 360.181a7.974 7.974 0 0 0-3.048.775l-41.59 19.97a7.932 7.932 0 0 0-4.303 5.378l-10.261 44.859a7.905 7.905 0 0 0 1.08 6.078c.14.217.291.428.452.63l28.787 35.97a7.963 7.963 0 0 0 6.218 2.982l46.165-.01a7.963 7.963 0 0 0 6.218-2.978l28.777-35.974a7.907 7.907 0 0 0 1.537-6.709l-10.277-44.858a7.932 7.932 0 0 0-4.303-5.378l-41.594-19.96a7.976 7.976 0 0 0-3.857-.775z" fill="#326CE5"></path><path d="M972.984 375.447c1.375 0 2.49 1.245 2.49 2.78 0 .218.012.51.005.71-.033.886-.225 1.564-.34 2.38-.21 1.745-.39 3.193-.282 4.538.098.673.49.939.813 1.25.008.182.037.784.059 1.118 7.915.706 15.266 4.344 20.665 10.033l.947-.679c.32.02 1.028.117 1.51-.165 1.114-.754 2.129-1.8 3.357-3.053.562-.6.975-1.17 1.643-1.748.153-.132.383-.308.553-.443 1.195-.958 2.856-.856 3.713.224.858 1.08.583 2.731-.611 3.689-.169.136-.388.324-.548.443-.71.526-1.363.796-2.07 1.214-1.488.924-2.723 1.69-3.702 2.613-.462.498-.427.968-.468 1.417-.138.128-.625.56-.883.796a32.466 32.466 0 0 1 4.665 10.836 32.463 32.463 0 0 1 .521 11.68l1.006.293c.18.257.552.882 1.074 1.085 1.281.406 2.723.555 4.463.738.817.068 1.522.028 2.388.192.208.04.51.123.724.172 1.467.355 2.41 1.711 2.106 3.046-.303 1.336-1.736 2.148-3.213 1.829-.01-.003-.026-.003-.037-.006-.017-.004-.031-.012-.048-.016-.206-.045-.463-.09-.643-.139-.852-.229-1.469-.571-2.234-.866-1.648-.593-3.012-1.09-4.34-1.283-.676-.053-1.02.27-1.394.519a37.389 37.389 0 0 0-1.064-.187c-2.386 7.533-7.465 14.056-14.351 18.142.119.288.32.902.415 1.01-.158.422-.394.826-.192 1.476.483 1.259 1.265 2.49 2.208 3.971.456.685.923 1.21 1.335 1.994.098.188.229.476.324.674.64 1.375.17 2.96-1.058 3.554-1.239.6-2.779-.033-3.442-1.416-.095-.196-.228-.457-.308-.642-.353-.812-.476-1.508-.724-2.293-.565-1.664-1.029-3.042-1.707-4.207-.38-.563-.845-.635-1.272-.775-.079-.136-.373-.68-.531-.962a32.183 32.183 0 0 1-4.272 1.294 32.016 32.016 0 0 1-18.702-1.353l-.564 1.027c-.42.113-.824.227-1.072.525-.907 1.087-1.269 2.831-1.928 4.494-.248.785-.365 1.481-.718 2.293-.08.184-.214.44-.308.636v.006l-.006.005c-.664 1.378-2.2 2.01-3.436 1.411-1.229-.595-1.698-2.179-1.058-3.555.095-.198.22-.486.319-.673.412-.784.879-1.315 1.335-2 .942-1.481 1.77-2.81 2.253-4.07.122-.417-.058-.99-.221-1.414l.452-1.09c-6.626-3.946-11.86-10.234-14.356-18.014l-1.085.187c-.291-.164-.876-.552-1.431-.508-1.33.193-2.694.69-4.34 1.283-.766.295-1.383.631-2.235.86-.18.05-.438.1-.643.145-.017.004-.032.012-.048.016l-.038.005c-1.476.32-2.909-.492-3.212-1.828-.304-1.335.639-2.69 2.106-3.047l.037-.01.022-.006c.208-.049.474-.118.664-.155.867-.165 1.572-.124 2.389-.192 1.74-.183 3.182-.332 4.463-.738.406-.167.794-.728 1.069-1.085l1.042-.305c-1.168-8.13.809-16.108 5.08-22.568l-.798-.716c-.05-.312-.118-1.034-.5-1.443-.979-.924-2.213-1.69-3.702-2.614-.707-.418-1.355-.687-2.064-1.214-.15-.112-.352-.283-.516-.417-.012-.01-.025-.017-.037-.026-1.194-.957-1.469-2.608-.612-3.689.482-.607 1.22-.908 1.984-.882a2.95 2.95 0 0 1 1.734.658c.17.135.402.312.554.443.668.578 1.075 1.149 1.638 1.748 1.228 1.253 2.242 2.294 3.356 3.047.585.343 1.035.205 1.479.145.143.106.624.453.899.641a31.985 31.985 0 0 1 16.266-9.338 32.25 32.25 0 0 1 4.5-.695l.058-1.059c.332-.322.704-.786.809-1.293.108-1.345-.067-2.793-.277-4.538-.115-.816-.307-1.494-.34-2.38-.007-.18.003-.432.005-.64 0-.024-.005-.047-.005-.07 0-1.535 1.114-2.78 2.49-2.78zm-3.117 19.404c-.882.108-1.768.258-2.654.46a25.608 25.608 0 0 0-12.351 6.762l10.707 7.627.022-.011c.362.266.809.422 1.292.422a2.2 2.2 0 0 0 2.192-2.111l.053-.027.74-13.123zm6.24 0l.739 13.102.01.005c.02.45.178.898.48 1.278a2.19 2.19 0 0 0 3.01.406l.037.016 10.639-7.58a25.81 25.81 0 0 0-14.915-7.227zm-25.128 12.123a25.868 25.868 0 0 0-3.638 16.31l12.532-3.636.01-.042a2.21 2.21 0 0 0 .862-3.79l.01-.054-9.776-8.788zm43.941.006l-9.723 8.745.005.027a2.181 2.181 0 0 0-.696 1.17 2.207 2.207 0 0 0 1.558 2.62l.01.053 12.596 3.645c.267-2.73.105-5.556-.542-8.386a26.16 26.16 0 0 0-3.208-7.874zm-23.94 9.46l-2.495 3.122.894 3.902 3.606 1.743 3.596-1.738.894-3.902-2.49-3.127h-4.005zm12.84 10.702a2.213 2.213 0 0 0-1.904 3.079l-.016.02 5.032 12.215a25.776 25.776 0 0 0 10.378-13.1l-12.963-2.203-.021.027a2.173 2.173 0 0 0-.506-.037zm-21.77.053a2.211 2.211 0 0 0-.432.037l-.021-.026-12.851 2.191a25.88 25.88 0 0 0 10.344 13.013l4.978-12.091-.037-.048a2.19 2.19 0 0 0 .122-1.358 2.198 2.198 0 0 0-2.106-1.716zm10.855 5.297a2.196 2.196 0 0 0-1.856 1.166h-.01l-6.32 11.482a25.621 25.621 0 0 0 14.048.727 26.31 26.31 0 0 0 2.532-.711l-6.335-11.504h-.048a2.184 2.184 0 0 0-.984-.94 2.164 2.164 0 0 0-1.027-.22z" fill="#FFF"></path></g><g fill-rule="nonzero" stroke="#FFF" stroke-width=".5"><path d="M724.572 360.181a7.974 7.974 0 0 0-3.048.775l-41.59 19.97a7.932 7.932 0 0 0-4.303 5.378l-10.261 44.859a7.905 7.905 0 0 0 1.08 6.078c.14.217.291.428.452.63l28.787 35.97a7.963 7.963 0 0 0 6.218 2.982l46.165-.01a7.963 7.963 0 0 0 6.218-2.978l28.777-35.974a7.907 7.907 0 0 0 1.537-6.709l-10.277-44.858a7.932 7.932 0 0 0-4.303-5.378l-41.594-19.96a7.976 7.976 0 0 0-3.857-.775z" fill="#326CE5"></path><path d="M724.984 375.447c1.375 0 2.49 1.245 2.49 2.78 0 .218.012.51.005.71-.033.886-.225 1.564-.34 2.38-.21 1.745-.39 3.193-.282 4.538.098.673.49.939.813 1.25.008.182.037.784.059 1.118 7.915.706 15.266 4.344 20.665 10.033l.947-.679c.32.02 1.028.117 1.51-.165 1.114-.754 2.129-1.8 3.357-3.053.562-.6.975-1.17 1.643-1.748.153-.132.383-.308.553-.443 1.195-.958 2.856-.856 3.713.224.858 1.08.583 2.731-.611 3.689-.169.136-.388.324-.548.443-.71.526-1.363.796-2.07 1.214-1.488.924-2.723 1.69-3.702 2.613-.462.498-.427.968-.468 1.417-.138.128-.625.56-.883.796A32.466 32.466 0 0 1 756.5 413.4a32.463 32.463 0 0 1 .521 11.68l1.006.293c.18.257.552.882 1.074 1.085 1.281.406 2.723.555 4.463.738.817.068 1.522.028 2.388.192.208.04.51.123.724.172 1.467.355 2.41 1.711 2.106 3.046-.303 1.336-1.736 2.148-3.213 1.829-.01-.003-.026-.003-.037-.006-.017-.004-.031-.012-.048-.016-.206-.045-.463-.09-.643-.139-.852-.229-1.469-.571-2.234-.866-1.648-.593-3.012-1.09-4.34-1.283-.676-.053-1.02.27-1.394.519a37.389 37.389 0 0 0-1.064-.187c-2.386 7.533-7.465 14.056-14.351 18.142.119.288.32.902.415 1.01-.158.422-.394.826-.192 1.476.483 1.259 1.265 2.49 2.208 3.971.456.685.923 1.21 1.335 1.994.098.188.229.476.324.674.64 1.375.17 2.96-1.058 3.554-1.239.6-2.779-.033-3.442-1.416-.095-.196-.228-.457-.308-.642-.353-.812-.476-1.508-.724-2.293-.565-1.664-1.029-3.042-1.707-4.207-.38-.563-.845-.635-1.272-.775-.079-.136-.373-.68-.531-.962a32.183 32.183 0 0 1-4.272 1.294 32.016 32.016 0 0 1-18.702-1.353l-.564 1.027c-.42.113-.824.227-1.072.525-.907 1.087-1.269 2.831-1.928 4.494-.248.785-.365 1.481-.718 2.293-.08.184-.214.44-.308.636v.006l-.006.005c-.664 1.378-2.2 2.01-3.436 1.411-1.229-.595-1.698-2.179-1.058-3.555.095-.198.22-.486.319-.673.412-.784.879-1.315 1.335-2 .942-1.481 1.77-2.81 2.253-4.07.122-.417-.058-.99-.221-1.414l.452-1.09c-6.626-3.946-11.86-10.234-14.356-18.014l-1.085.187c-.291-.164-.876-.552-1.431-.508-1.33.193-2.694.69-4.34 1.283-.766.295-1.383.631-2.235.86-.18.05-.438.1-.643.145-.017.004-.032.012-.048.016l-.038.005c-1.476.32-2.909-.492-3.212-1.828-.304-1.335.639-2.69 2.106-3.047l.037-.01.022-.006c.208-.049.474-.118.664-.155.867-.165 1.572-.124 2.389-.192 1.74-.183 3.182-.332 4.463-.738.406-.167.794-.728 1.069-1.085l1.042-.305c-1.168-8.13.809-16.108 5.08-22.568l-.798-.716c-.05-.312-.118-1.034-.5-1.443-.979-.924-2.213-1.69-3.702-2.614-.707-.418-1.355-.687-2.064-1.214-.15-.112-.352-.283-.516-.417-.012-.01-.025-.017-.037-.026-1.194-.957-1.469-2.608-.612-3.689.482-.607 1.22-.908 1.984-.882a2.95 2.95 0 0 1 1.734.658c.17.135.402.312.554.443.668.578 1.075 1.149 1.638 1.748 1.228 1.253 2.242 2.294 3.356 3.047.585.343 1.035.205 1.479.145.143.106.624.453.899.641a31.985 31.985 0 0 1 16.266-9.338 32.25 32.25 0 0 1 4.5-.695l.058-1.059c.332-.322.704-.786.809-1.293.108-1.345-.067-2.793-.277-4.538-.115-.816-.307-1.494-.34-2.38-.007-.18.003-.432.005-.64 0-.024-.005-.047-.005-.07 0-1.535 1.114-2.78 2.49-2.78zm-3.117 19.404c-.882.108-1.768.258-2.654.46a25.608 25.608 0 0 0-12.351 6.762l10.707 7.627.022-.011c.362.266.809.422 1.292.422a2.2 2.2 0 0 0 2.192-2.111l.053-.027.74-13.123zm6.24 0l.739 13.102.01.005c.02.45.178.898.48 1.278a2.19 2.19 0 0 0 3.01.406l.037.016 10.639-7.58a25.81 25.81 0 0 0-14.915-7.227zm-25.128 12.123a25.868 25.868 0 0 0-3.638 16.31l12.532-3.636.01-.042a2.21 2.21 0 0 0 .862-3.79l.01-.054-9.776-8.788zm43.941.006l-9.723 8.745.005.027a2.181 2.181 0 0 0-.696 1.17 2.207 2.207 0 0 0 1.558 2.62l.01.053 12.596 3.645c.267-2.73.105-5.556-.542-8.386a26.16 26.16 0 0 0-3.208-7.874zm-23.94 9.46l-2.495 3.122.894 3.902 3.606 1.743 3.596-1.738.894-3.902-2.49-3.127h-4.005zm12.84 10.702a2.213 2.213 0 0 0-1.904 3.079l-.016.02 5.032 12.215a25.776 25.776 0 0 0 10.378-13.1l-12.963-2.203-.021.027a2.173 2.173 0 0 0-.506-.037zm-21.77.053a2.211 2.211 0 0 0-.432.037l-.021-.026-12.851 2.191a25.88 25.88 0 0 0 10.344 13.013l4.978-12.091-.037-.048a2.19 2.19 0 0 0 .122-1.358 2.198 2.198 0 0 0-2.106-1.716zm10.855 5.297a2.196 2.196 0 0 0-1.856 1.166h-.01l-6.32 11.482a25.621 25.621 0 0 0 14.048.727 26.31 26.31 0 0 0 2.532-.711l-6.335-11.504h-.048a2.184 2.184 0 0 0-.984-.94 2.164 2.164 0 0 0-1.027-.22z" fill="#FFF"></path></g><g fill-rule="nonzero" stroke="#FFF" stroke-width=".5"><path d="M475.572 360.181a7.974 7.974 0 0 0-3.048.775l-41.59 19.97a7.932 7.932 0 0 0-4.303 5.378l-10.261 44.859a7.905 7.905 0 0 0 1.08 6.078c.14.217.291.428.452.63l28.787 35.97a7.963 7.963 0 0 0 6.218 2.982l46.165-.01a7.963 7.963 0 0 0 6.218-2.978l28.777-35.974a7.907 7.907 0 0 0 1.537-6.709l-10.277-44.858a7.932 7.932 0 0 0-4.303-5.378l-41.594-19.96a7.976 7.976 0 0 0-3.857-.775z" fill="#326CE5"></path><path d="M475.984 375.447c1.375 0 2.49 1.245 2.49 2.78 0 .218.012.51.005.71-.033.886-.225 1.564-.34 2.38-.21 1.745-.39 3.193-.282 4.538.098.673.49.939.813 1.25.008.182.037.784.059 1.118 7.915.706 15.266 4.344 20.665 10.033l.947-.679c.32.02 1.028.117 1.51-.165 1.114-.754 2.129-1.8 3.357-3.053.562-.6.975-1.17 1.643-1.748.153-.132.383-.308.553-.443 1.195-.958 2.856-.856 3.713.224.858 1.08.583 2.731-.611 3.689-.169.136-.388.324-.548.443-.71.526-1.363.796-2.07 1.214-1.488.924-2.723 1.69-3.702 2.613-.462.498-.427.968-.468 1.417-.138.128-.625.56-.883.796A32.466 32.466 0 0 1 507.5 413.4a32.463 32.463 0 0 1 .521 11.68l1.006.293c.18.257.552.882 1.074 1.085 1.281.406 2.723.555 4.463.738.817.068 1.522.028 2.388.192.208.04.51.123.724.172 1.467.355 2.41 1.711 2.106 3.046-.303 1.336-1.736 2.148-3.213 1.829-.01-.003-.026-.003-.037-.006-.017-.004-.031-.012-.048-.016-.206-.045-.463-.09-.643-.139-.852-.229-1.469-.571-2.234-.866-1.648-.593-3.012-1.09-4.34-1.283-.676-.053-1.02.27-1.394.519a37.389 37.389 0 0 0-1.064-.187c-2.386 7.533-7.465 14.056-14.351 18.142.119.288.32.902.415 1.01-.158.422-.394.826-.192 1.476.483 1.259 1.265 2.49 2.208 3.971.456.685.923 1.21 1.335 1.994.098.188.229.476.324.674.64 1.375.17 2.96-1.058 3.554-1.239.6-2.779-.033-3.442-1.416-.095-.196-.228-.457-.308-.642-.353-.812-.476-1.508-.724-2.293-.565-1.664-1.029-3.042-1.707-4.207-.38-.563-.845-.635-1.272-.775-.079-.136-.373-.68-.531-.962a32.183 32.183 0 0 1-4.272 1.294 32.016 32.016 0 0 1-18.702-1.353l-.564 1.027c-.42.113-.824.227-1.072.525-.907 1.087-1.269 2.831-1.928 4.494-.248.785-.365 1.481-.718 2.293-.08.184-.214.44-.308.636v.006l-.006.005c-.664 1.378-2.2 2.01-3.436 1.411-1.229-.595-1.698-2.179-1.058-3.555.095-.198.22-.486.319-.673.412-.784.879-1.315 1.335-2 .942-1.481 1.77-2.81 2.253-4.07.122-.417-.058-.99-.221-1.414l.452-1.09c-6.626-3.946-11.86-10.234-14.356-18.014l-1.085.187c-.291-.164-.876-.552-1.431-.508-1.33.193-2.694.69-4.34 1.283-.766.295-1.383.631-2.235.86-.18.05-.438.1-.643.145-.017.004-.032.012-.048.016l-.038.005c-1.476.32-2.909-.492-3.212-1.828-.304-1.335.639-2.69 2.106-3.047l.037-.01.022-.006c.208-.049.474-.118.664-.155.867-.165 1.572-.124 2.389-.192 1.74-.183 3.182-.332 4.463-.738.406-.167.794-.728 1.069-1.085l1.042-.305c-1.168-8.13.809-16.108 5.08-22.568l-.798-.716c-.05-.312-.118-1.034-.5-1.443-.979-.924-2.213-1.69-3.702-2.614-.707-.418-1.355-.687-2.064-1.214-.15-.112-.352-.283-.516-.417-.012-.01-.025-.017-.037-.026-1.194-.957-1.469-2.608-.612-3.689.482-.607 1.22-.908 1.984-.882a2.95 2.95 0 0 1 1.734.658c.17.135.402.312.554.443.668.578 1.075 1.149 1.638 1.748 1.228 1.253 2.242 2.294 3.356 3.047.585.343 1.035.205 1.479.145.143.106.624.453.899.641a31.985 31.985 0 0 1 16.266-9.338 32.25 32.25 0 0 1 4.5-.695l.058-1.059c.332-.322.704-.786.809-1.293.108-1.345-.067-2.793-.277-4.538-.115-.816-.307-1.494-.34-2.38-.007-.18.003-.432.005-.64 0-.024-.005-.047-.005-.07 0-1.535 1.114-2.78 2.49-2.78zm-3.117 19.404c-.882.108-1.768.258-2.654.46a25.608 25.608 0 0 0-12.351 6.762l10.707 7.627.022-.011c.362.266.809.422 1.292.422a2.2 2.2 0 0 0 2.192-2.111l.053-.027.74-13.123zm6.24 0l.739 13.102.01.005c.02.45.178.898.48 1.278a2.19 2.19 0 0 0 3.01.406l.037.016 10.639-7.58a25.81 25.81 0 0 0-14.915-7.227zm-25.128 12.123a25.868 25.868 0 0 0-3.638 16.31l12.532-3.636.01-.042a2.21 2.21 0 0 0 .862-3.79l.01-.054-9.776-8.788zm43.941.006l-9.723 8.745.005.027a2.181 2.181 0 0 0-.696 1.17 2.207 2.207 0 0 0 1.558 2.62l.01.053 12.596 3.645c.267-2.73.105-5.556-.542-8.386a26.16 26.16 0 0 0-3.208-7.874zm-23.94 9.46l-2.495 3.122.894 3.902 3.606 1.743 3.596-1.738.894-3.902-2.49-3.127h-4.005zm12.84 10.702a2.213 2.213 0 0 0-1.904 3.079l-.016.02 5.032 12.215a25.776 25.776 0 0 0 10.378-13.1l-12.963-2.203-.021.027a2.173 2.173 0 0 0-.506-.037zm-21.77.053a2.211 2.211 0 0 0-.432.037l-.021-.026-12.851 2.191a25.88 25.88 0 0 0 10.344 13.013l4.978-12.091-.037-.048a2.19 2.19 0 0 0 .122-1.358 2.198 2.198 0 0 0-2.106-1.716zm10.855 5.297a2.196 2.196 0 0 0-1.856 1.166h-.01l-6.32 11.482a25.621 25.621 0 0 0 14.048.727 26.31 26.31 0 0 0 2.532-.711l-6.335-11.504h-.048a2.184 2.184 0 0 0-.984-.94 2.164 2.164 0 0 0-1.027-.22z" fill="#FFF"></path></g><path d="M193.78 215.207l2.693 9.42 1.941-9.42h3.815L198.455 230h-3.308l-2.803-9.31-2.803 9.31h-3.295l-3.773-14.793h3.814l1.928 9.406 2.707-9.406h2.857zm9.789 7.438v-.178q0-2.201.847-3.924.848-1.723 2.44-2.666 1.593-.943 3.699-.943 2.994 0 4.888 1.832 1.893 1.832 2.112 4.976l.027 1.012q0 3.404-1.9 5.462-1.9 2.057-5.1 2.057-3.199 0-5.106-2.05-1.907-2.051-1.907-5.578zm3.95.109q0 2.105.794 3.22.793 1.114 2.27 1.114 1.435 0 2.241-1.1.807-1.101.807-3.521 0-2.065-.807-3.2-.806-1.134-2.27-1.134-1.448 0-2.241 1.128-.793 1.128-.793 3.493zm20.864-7.643l-.055 3.801q-.806-.11-1.422-.11-2.242 0-2.939 1.518V230h-3.951v-14.793h3.732l.11 1.764q1.189-2.037 3.294-2.037.657 0 1.231.177zM239.403 230l-3.801-5.934-1.422 1.422V230h-3.951v-21h3.95v11.635l.766-.985 3.788-4.443h4.744l-5.346 6.166 5.81 8.627h-4.538zm12.318.273q-3.254 0-5.298-1.996t-2.044-5.318v-.383q0-2.228.861-3.985.862-1.757 2.44-2.707 1.58-.95 3.603-.95 3.036 0 4.779 1.914 1.743 1.914 1.743 5.427v1.614h-9.42q.191 1.449 1.155 2.324.964.875 2.44.875 2.284 0 3.569-1.654l1.941 2.173q-.888 1.258-2.406 1.962-1.517.704-3.363.704zm-.451-12.14q-1.176 0-1.908.793-.731.793-.936 2.27h5.496v-.315q-.027-1.313-.71-2.03-.684-.718-1.942-.718zm17.144-3.022l-.054 3.801q-.807-.11-1.422-.11-2.243 0-2.94 1.518V230h-3.951v-14.793h3.732l.11 1.764q1.19-2.037 3.295-2.037.656 0 1.23.177zm163.186.096h3.706l.123 1.654q1.572-1.927 4.252-1.927 2.857 0 3.923 2.255 1.56-2.255 4.444-2.255 2.406 0 3.582 1.401 1.176 1.401 1.176 4.218V230h-3.965v-9.434q0-1.257-.492-1.838-.493-.582-1.737-.582-1.777 0-2.46 1.696l.013 10.158h-3.951v-9.42q0-1.285-.506-1.86-.506-.574-1.723-.574-1.681 0-2.433 1.395V230H431.6v-14.793zM468.406 230h-3.992q-.273-.533-.396-1.326-1.436 1.6-3.733 1.6-2.174 0-3.602-1.258-1.43-1.258-1.43-3.172 0-2.352 1.744-3.61 1.743-1.257 5.038-1.271h1.819v-.848q0-1.025-.527-1.64-.526-.616-1.661-.616-.998 0-1.565.479-.568.478-.568 1.312h-3.951q0-1.285.793-2.379.793-1.093 2.242-1.715 1.45-.622 3.254-.622 2.734 0 4.34 1.374 1.607 1.374 1.607 3.862v6.412q.014 2.106.588 3.186V230zm-7.26-2.748q.876 0 1.614-.39.738-.39 1.094-1.046v-2.543h-1.477q-2.967 0-3.158 2.051l-.014.233q0 .738.52 1.216.52.479 1.422.479zm17.72-1.34q0-.725-.719-1.141-.717-.417-2.303-.746-5.278-1.107-5.278-4.484 0-1.969 1.634-3.288 1.634-1.32 4.273-1.32 2.816 0 4.505 1.327 1.688 1.326 1.688 3.445h-3.951q0-.848-.547-1.401-.547-.554-1.709-.554-.998 0-1.545.451-.547.451-.547 1.149 0 .656.622 1.06.622.403 2.099.696 1.476.294 2.488.664 3.131 1.148 3.131 3.978 0 2.023-1.736 3.274-1.737 1.251-4.485 1.251-1.859 0-3.301-.663-1.443-.663-2.263-1.818-.82-1.155-.82-2.495h3.746q.054 1.053.779 1.613t1.941.56q1.135 0 1.716-.43t.581-1.128zm7.163-14.342h3.951v3.637h2.53v2.898h-2.53v7.383q0 .82.315 1.176.314.356 1.203.356.656 0 1.162-.096v2.994q-1.162.355-2.392.355-4.157 0-4.239-4.197v-7.97h-2.16v-2.899h2.16v-3.637zm15.49 18.703q-3.253 0-5.297-1.996-2.044-1.996-2.044-5.318v-.383q0-2.228.861-3.985.861-1.757 2.44-2.707 1.58-.95 3.603-.95 3.035 0 4.778 1.914 1.744 1.914 1.744 5.427v1.614h-9.42q.191 1.449 1.155 2.324.964.875 2.44.875 2.284 0 3.569-1.654l1.941 2.173q-.889 1.258-2.406 1.962-1.518.704-3.363.704zm-.45-12.14q-1.176 0-1.908.793-.731.793-.936 2.27h5.496v-.315q-.028-1.313-.711-2.03-.684-.718-1.942-.718zm17.144-3.022l-.055 3.801q-.806-.11-1.422-.11-2.242 0-2.94 1.518V230h-3.95v-14.793h3.732l.11 1.764q1.189-2.037 3.294-2.037.657 0 1.23.177zm162.387.096h3.706l.123 1.654q1.572-1.927 4.252-1.927 2.857 0 3.923 2.255 1.56-2.255 4.444-2.255 2.406 0 3.582 1.401 1.176 1.401 1.176 4.218V230h-3.965v-9.434q0-1.257-.492-1.838-.493-.582-1.737-.582-1.777 0-2.46 1.696l.013 10.158h-3.951v-9.42q0-1.285-.506-1.86-.506-.574-1.723-.574-1.681 0-2.433 1.395V230H680.6v-14.793zM717.406 230h-3.992q-.273-.533-.396-1.326-1.436 1.6-3.733 1.6-2.174 0-3.602-1.258-1.43-1.258-1.43-3.172 0-2.352 1.744-3.61 1.743-1.257 5.038-1.271h1.819v-.848q0-1.025-.527-1.64-.526-.616-1.661-.616-.998 0-1.565.479-.568.478-.568 1.312h-3.951q0-1.285.793-2.379.793-1.093 2.242-1.715 1.45-.622 3.254-.622 2.734 0 4.34 1.374 1.607 1.374 1.607 3.862v6.412q.014 2.106.588 3.186V230zm-7.26-2.748q.875 0 1.614-.39.738-.39 1.094-1.046v-2.543h-1.477q-2.967 0-3.158 2.051l-.014.233q0 .738.52 1.216.52.479 1.421.479zm17.72-1.34q0-.725-.719-1.141-.717-.417-2.303-.746-5.278-1.107-5.278-4.484 0-1.969 1.634-3.288 1.634-1.32 4.273-1.32 2.816 0 4.505 1.327 1.688 1.326 1.688 3.445h-3.951q0-.848-.547-1.401-.547-.554-1.709-.554-.998 0-1.545.451-.547.451-.547 1.149 0 .656.622 1.06.622.403 2.099.696 1.476.294 2.488.664 3.131 1.148 3.131 3.978 0 2.023-1.736 3.274-1.737 1.251-4.485 1.251-1.859 0-3.301-.663-1.443-.663-2.263-1.818-.82-1.155-.82-2.495h3.746q.054 1.053.779 1.613t1.941.56q1.135 0 1.716-.43t.581-1.128zm7.163-14.342h3.951v3.637h2.53v2.898h-2.53v7.383q0 .82.315 1.176.314.356 1.203.356.656 0 1.162-.096v2.994q-1.162.355-2.392.355-4.157 0-4.239-4.197v-7.97h-2.16v-2.899h2.16v-3.637zm15.49 18.703q-3.253 0-5.297-1.996-2.044-1.996-2.044-5.318v-.383q0-2.228.861-3.985.861-1.757 2.44-2.707 1.58-.95 3.603-.95 3.035 0 4.778 1.914 1.744 1.914 1.744 5.427v1.614h-9.42q.191 1.449 1.155 2.324.964.875 2.44.875 2.284 0 3.569-1.654l1.941 2.173q-.889 1.258-2.406 1.962-1.518.704-3.363.704zm-.45-12.14q-1.176 0-1.908.793-.731.793-.936 2.27h5.496v-.315q-.028-1.313-.711-2.03-.684-.718-1.942-.718zm17.144-3.022l-.055 3.801q-.806-.11-1.422-.11-2.242 0-2.94 1.518V230h-3.95v-14.793h3.732l.11 1.764q1.189-2.037 3.294-2.037.657 0 1.23.177zm161.387.096h3.706l.123 1.654q1.572-1.927 4.252-1.927 2.857 0 3.923 2.255 1.56-2.255 4.444-2.255 2.406 0 3.582 1.401 1.176 1.401 1.176 4.218V230h-3.965v-9.434q0-1.257-.492-1.838-.493-.582-1.737-.582-1.777 0-2.46 1.696l.013 10.158h-3.951v-9.42q0-1.285-.506-1.86-.506-.574-1.723-.574-1.681 0-2.433 1.395V230H928.6v-14.793zM965.406 230h-3.992q-.273-.533-.396-1.326-1.436 1.6-3.733 1.6-2.174 0-3.602-1.258-1.43-1.258-1.43-3.172 0-2.352 1.744-3.61 1.743-1.257 5.038-1.271h1.819v-.848q0-1.025-.527-1.64-.526-.616-1.661-.616-.998 0-1.565.479-.568.478-.568 1.312h-3.951q0-1.285.793-2.379.793-1.093 2.242-1.715 1.45-.622 3.254-.622 2.734 0 4.34 1.374 1.607 1.374 1.607 3.862v6.412q.014 2.106.588 3.186V230zm-7.26-2.748q.875 0 1.614-.39.738-.39 1.094-1.046v-2.543h-1.477q-2.967 0-3.158 2.051l-.014.233q0 .738.52 1.216.52.479 1.421.479zm17.72-1.34q0-.725-.719-1.141-.717-.417-2.303-.746-5.278-1.107-5.278-4.484 0-1.969 1.634-3.288 1.634-1.32 4.273-1.32 2.816 0 4.505 1.327 1.688 1.326 1.688 3.445h-3.951q0-.848-.547-1.401-.547-.554-1.709-.554-.998 0-1.545.451-.547.451-.547 1.149 0 .656.622 1.06.622.403 2.099.696 1.476.294 2.488.664 3.131 1.148 3.131 3.978 0 2.023-1.736 3.274-1.737 1.251-4.485 1.251-1.859 0-3.301-.663-1.443-.663-2.263-1.818-.82-1.155-.82-2.495h3.746q.054 1.053.779 1.613t1.941.56q1.135 0 1.716-.43t.581-1.128zm7.163-14.342h3.951v3.637h2.53v2.898h-2.53v7.383q0 .82.315 1.176.314.356 1.203.356.656 0 1.162-.096v2.994q-1.162.355-2.392.355-4.157 0-4.239-4.197v-7.97h-2.16v-2.899h2.16v-3.637zm15.49 18.703q-3.253 0-5.297-1.996-2.044-1.996-2.044-5.318v-.383q0-2.228.861-3.985.861-1.757 2.44-2.707 1.58-.95 3.603-.95 3.035 0 4.778 1.914 1.744 1.914 1.744 5.427v1.614h-9.42q.191 1.449 1.155 2.324.964.875 2.44.875 2.284 0 3.569-1.654l1.941 2.173q-.889 1.258-2.406 1.962-1.518.704-3.363.704zm-.45-12.14q-1.176 0-1.908.793-.731.793-.936 2.27h5.496v-.315q-.028-1.313-.711-2.03-.684-.718-1.942-.718zm17.144-3.022l-.055 3.801q-.806-.11-1.422-.11-2.242 0-2.94 1.518V230h-3.95v-14.793h3.732l.11 1.764q1.189-2.037 3.294-2.037.657 0 1.23.177z" fill="#4A4A4A" fill-rule="nonzero"></path><path d="M476 689c18.8 0 34 15.2 34 34s-15.2 34-34 34-34-15.2-34-34 15.2-34 34-34zm1.5 45.2l19.6-19.6-6.6-6.6-19.6 19.6-9.3-9.3-6.6 6.6 9.3 9.3 6.6 6.6 6.6-6.6zM725 689c18.8 0 34 15.2 34 34s-15.2 34-34 34-34-15.2-34-34 15.2-34 34-34zm1.5 45.2l19.6-19.6-6.6-6.6-19.6 19.6-9.3-9.3-6.6 6.6 9.3 9.3 6.6 6.6 6.6-6.6zM973 689c18.8 0 34 15.2 34 34s-15.2 34-34 34-34-15.2-34-34 15.2-34 34-34zm1.5 45.2l19.6-19.6-6.6-6.6-19.6 19.6-9.3-9.3-6.6 6.6 9.3 9.3 6.6 6.6 6.6-6.6z" fill="#00C176" fill-rule="nonzero"></path></g></svg>