<svg viewBox="0 0 1200 900" xmlns="http://www.w3.org/2000/svg"><path d="M71 627h1038v8H71zm236.364 35.813V714h-6.785v-23.66h-25.805V714h-6.75v-51.188h6.75v22.008h25.805v-22.008h6.785zm24.86 51.89q-7.735 0-12.587-5.08-4.851-5.08-4.851-13.588v-1.195q0-5.66 2.162-10.108 2.162-4.447 6.047-6.96 3.884-2.514 8.42-2.514 7.418 0 11.53 4.887 4.114 4.886 4.114 13.992v2.707h-25.77q.141 5.625 3.288 9.088 3.146 3.463 7.998 3.463 3.445 0 5.836-1.407 2.39-1.406 4.183-3.726l3.973 3.093q-4.781 7.348-14.344 7.348zm-.81-34.101q-3.937 0-6.609 2.865T321.5 691.5h19.055v-.492q-.281-4.957-2.672-7.682-2.39-2.724-6.468-2.724zM359.755 660v54h-6.504v-54h6.504zm8.476 15.96h6.152l.176 4.22q4.184-4.922 11.285-4.922 7.98 0 10.864 6.117 1.898-2.742 4.939-4.43 3.041-1.687 7.19-1.687 12.515 0 12.726 13.254V714h-6.504v-25.102q0-4.078-1.863-6.1-1.863-2.02-6.258-2.02-3.621 0-6.012 2.161-2.39 2.163-2.777 5.819V714h-6.54v-24.926q0-8.297-8.12-8.297-6.399 0-8.754 5.45V714h-6.504v-38.04zm92.433 33.435q3.48 0 6.082-2.11 2.601-2.11 2.883-5.273h6.152q-.176 3.27-2.25 6.222-2.074 2.953-5.537 4.711-3.463 1.758-7.33 1.758-7.77 0-12.358-5.185-4.588-5.186-4.588-14.186v-1.09q0-5.554 2.04-9.879 2.038-4.324 5.853-6.715 3.814-2.39 9.018-2.39 6.398 0 10.634 3.832 4.237 3.832 4.518 9.95h-6.152q-.282-3.692-2.795-6.065-2.514-2.373-6.205-2.373-4.957 0-7.682 3.568-2.725 3.568-2.725 10.318v1.23q0 6.575 2.707 10.126 2.707 3.55 7.735 3.55zM487.7 660v20.566q4.325-5.308 11.25-5.308 12.059 0 12.164 13.605V714h-6.504v-25.172q-.035-4.113-1.88-6.082-1.846-1.969-5.748-1.969-3.165 0-5.555 1.688-2.39 1.687-3.727 4.43V714h-6.504v-54h6.504zm61.562 54h-6.82q-.563-1.125-.914-4.008-4.535 4.711-10.828 4.711-5.625 0-9.229-3.182-3.603-3.181-3.603-8.068 0-5.941 4.517-9.228 4.518-3.288 12.71-3.288h6.327v-2.988q0-3.41-2.039-5.431-2.039-2.022-6.011-2.022-3.48 0-5.836 1.758-2.356 1.758-2.356 4.254h-6.539q0-2.848 2.022-5.502 2.021-2.654 5.484-4.201 3.463-1.547 7.611-1.547 6.575 0 10.301 3.287 3.727 3.287 3.867 9.053v17.507q0 5.239 1.336 8.332V714zm-17.613-4.957q3.059 0 5.8-1.582 2.743-1.582 3.973-4.113v-7.805h-5.097q-11.953 0-11.953 6.996 0 3.059 2.039 4.781 2.039 1.723 5.238 1.723zm42.964-33.293v6.047q-1.476-.246-3.199-.246-6.398 0-8.683 5.449v27h-6.504v-38.04h6.328l.105 4.395q3.2-5.097 9.07-5.097 1.899 0 2.883.492zm8.16-9h6.504v9.21h7.102v5.028h-7.102v23.59q0 2.285.95 3.428.948 1.142 3.234 1.142 1.125 0 3.093-.421V714q-2.566.703-4.992.703-4.36 0-6.574-2.637-2.215-2.636-2.215-7.488v-23.59h-6.926v-5.027h6.926v-9.211zm53.62 9v6.047q-1.476-.246-3.199-.246-6.398 0-8.684 5.449v27h-6.503v-38.04h6.328l.105 4.395q3.2-5.097 9.07-5.097 1.899 0 2.883.492zm19.199 38.953q-7.734 0-12.586-5.08-4.851-5.08-4.851-13.588v-1.195q0-5.66 2.162-10.108 2.162-4.447 6.046-6.96 3.885-2.514 8.42-2.514 7.418 0 11.532 4.887 4.113 4.886 4.113 13.992v2.707h-25.77q.141 5.625 3.288 9.088 3.146 3.463 7.998 3.463 3.445 0 5.835-1.407 2.391-1.406 4.184-3.726l3.973 3.093q-4.782 7.348-14.344 7.348zm-.809-34.101q-3.937 0-6.609 2.865t-3.305 8.033h19.055v-.492q-.281-4.957-2.672-7.682-2.39-2.724-6.469-2.724zm53.406 14.203v.597q0 8.684-3.972 13.993-3.973 5.308-10.758 5.308-6.926 0-10.899-4.394v18.316h-6.504v-52.664H682l.316 4.219q3.973-4.922 11.04-4.922 6.855 0 10.845 5.168t3.99 14.379zm-6.504-.14q0-6.435-2.742-10.161-2.742-3.727-7.523-3.727-5.907 0-8.86 5.239v18.175q2.918 5.204 8.93 5.204 4.676 0 7.436-3.71 2.76-3.708 2.76-11.02zm11.148.42v-.456q0-5.59 2.198-10.055 2.197-4.465 6.117-6.89 3.92-2.426 8.947-2.426 7.77 0 12.568 5.379 4.8 5.379 4.8 14.308v.457q0 5.555-2.128 9.967-2.127 4.412-6.082 6.873-3.955 2.461-9.088 2.461-7.734 0-12.533-5.379-4.799-5.379-4.799-14.238zm6.54.317q0 6.328 2.935 10.16 2.935 3.833 7.857 3.833 4.957 0 7.875-3.885t2.918-10.881q0-6.258-2.97-10.143-2.971-3.884-7.893-3.884-4.816 0-7.77 3.832-2.953 3.832-2.953 10.968zm56.499 8.508q0-2.637-1.986-4.096-1.987-1.459-6.926-2.513-4.94-1.055-7.84-2.531-2.9-1.477-4.29-3.516-1.388-2.04-1.388-4.852 0-4.675 3.955-7.91 3.955-3.234 10.108-3.234 6.468 0 10.494 3.34 4.025 3.34 4.025 8.543h-6.539q0-2.672-2.267-4.606-2.268-1.933-5.713-1.933-3.551 0-5.555 1.546-2.004 1.547-2.004 4.043 0 2.356 1.863 3.551 1.864 1.196 6.733 2.285 4.869 1.09 7.892 2.602 3.024 1.512 4.483 3.639 1.459 2.127 1.459 5.185 0 5.098-4.078 8.174-4.078 3.076-10.582 3.076-4.57 0-8.086-1.617t-5.502-4.518q-1.987-2.9-1.987-6.275h6.504q.176 3.27 2.62 5.186 2.443 1.916 6.45 1.916 3.692 0 5.924-1.495 2.233-1.494 2.233-3.99zm20.148-27.95V714h-6.504v-38.04h6.504zm-7.031-10.089q0-1.582.966-2.672.967-1.09 2.866-1.09 1.898 0 2.882 1.09.985 1.09.985 2.672t-.985 2.637q-.984 1.054-2.882 1.054-1.899 0-2.866-1.054-.966-1.055-.966-2.637zm17.862.879h6.504v9.21h7.102v5.028h-7.102v23.59q0 2.285.95 3.428.949 1.142 3.234 1.142 1.125 0 3.094-.421V714q-2.567.703-4.993.703-4.359 0-6.574-2.637-2.215-2.636-2.215-7.488v-23.59h-6.925v-5.027h6.925v-9.211zm16.879 28.336v-.457q0-5.59 2.197-10.055t6.117-6.89q3.92-2.426 8.948-2.426 7.77 0 12.568 5.379 4.799 5.379 4.799 14.308v.457q0 5.555-2.127 9.967-2.127 4.412-6.082 6.873-3.955 2.461-9.088 2.461-7.735 0-12.533-5.379-4.8-5.379-4.8-14.238zm6.539.316q0 6.328 2.935 10.16 2.936 3.833 7.858 3.833 4.957 0 7.875-3.885t2.918-10.881q0-6.258-2.97-10.143-2.972-3.884-7.893-3.884-4.817 0-7.77 3.832-2.953 3.832-2.953 10.968zm52.738-19.652v6.047q-1.477-.246-3.2-.246-6.398 0-8.683 5.449v27h-6.504v-38.04h6.328l.106 4.395q3.199-5.097 9.07-5.097 1.898 0 2.883.492zm7.667.21l9.492 28.513 8.86-28.512h6.96l-15.292 43.91q-3.551 9.492-11.285 9.492l-1.23-.105-2.427-.457v-5.274l1.758.141q3.305 0 5.15-1.336 1.846-1.336 3.042-4.887l1.44-3.867-13.57-37.617h7.102z"></path></svg>