<svg viewBox="0 0 1200 900" xmlns="http://www.w3.org/2000/svg"><g fill="none" fill-rule="evenodd"><rect stroke="#76AADF" stroke-width="2.8" fill="#CEE2F6" fill-rule="nonzero" x="252.4" y="83.4" width="696.2" height="696.2" rx="28"></rect><rect stroke="#AD9E6A" stroke-width="2.8" fill="#FFF2C5" fill-rule="nonzero" x="304.4" y="83.4" width="595.2" height="372.2" rx="7"></rect><rect stroke="#AD9E6A" stroke-width="2.8" fill="#FFF2C5" fill-rule="nonzero" x="304.4" y="509.4" width="252.2" height="224.2" rx="7"></rect><g transform="translate(331 508)"><rect stroke="#7C9D6E" stroke-width="2.8" fill="#D6E9CE" fill-rule="nonzero" x="1.4" y="1.4" width="224" height="116.2" rx="7"></rect><path d="M82.677 55.64q-5.23 0-8.514-3.209-3.285-3.208-3.285-8.547v-.615q0-3.582 1.384-6.405 1.385-2.824 3.922-4.35 2.538-1.528 5.79-1.528 4.878 0 7.68 3.076 2.801 3.076 2.801 8.723v2.593H77.316q.308 2.33 1.857 3.736 1.549 1.406 3.922 1.406 3.67 0 5.735-2.659l3.12 3.494q-1.428 2.021-3.867 3.153-2.44 1.131-5.406 1.131zm-.725-19.512q-1.89 0-3.065 1.274-1.175 1.275-1.505 3.648h8.833v-.506q-.044-2.11-1.143-3.263-1.098-1.153-3.12-1.153zM95.87 25.58h6.35v5.845h4.065v4.658h-4.065v11.865q0 1.318.506 1.89.505.571 1.933.571 1.055 0 1.868-.154v4.812q-1.868.571-3.845.571-6.68 0-6.812-6.745v-12.81h-3.472v-4.658h3.472V25.58zm18.707-4.131v12.568q2.527-3.032 6.35-3.032 7.735 0 7.844 8.987V55.2h-6.35V40.149q0-2.044-.879-3.022-.879-.977-2.922-.977-2.79 0-4.043 2.153V55.2h-6.35V21.45h6.35zm38.812 14.634v5.888q0 6.636-2.747 10.152-2.746 3.515-8.042 3.515-5.23 0-7.998-3.45-2.768-3.449-2.834-9.887v-5.889q0-6.701 2.78-10.173 2.779-3.472 8.008-3.472 5.23 0 7.998 3.44 2.77 3.438 2.835 9.876zm-6.35 7.031v-7.602q0-3.978-1.088-5.79-1.087-1.813-3.395-1.813-2.24 0-3.306 1.725-1.066 1.725-1.132 5.394v7.778q0 3.912 1.066 5.812 1.065 1.9 3.416 1.9 2.33 0 3.362-1.823 1.033-1.824 1.077-5.581zM54.346 74.73V96.8H49.97V79.938l-5.222 1.62V78l9.127-3.27h.47zm21.593.03v2.453L67.417 96.8H62.8l8.537-18.497H60.378V74.76h15.56zm17.354 18.513V96.8H78.187v-2.997l7.13-7.599q1.467-1.604 2.171-2.8.704-1.196.704-2.27 0-1.469-.742-2.309-.741-.84-2.119-.84-1.483 0-2.338 1.022t-.855 2.687h-4.39q0-2.014.961-3.679t2.717-2.61q1.756-.947 3.981-.947 3.406 0 5.29 1.635 1.885 1.635 1.885 4.617 0 1.634-.848 3.33-.847 1.695-2.906 3.95l-5.01 5.283h9.475zm2.536 1.378q0-1.045.704-1.696.704-.65 1.763-.65 1.075 0 1.779.65.704.651.704 1.696 0 1.029-.696 1.672-.697.644-1.787.644-1.074 0-1.77-.644-.697-.643-.697-1.672zm18.672-19.92V96.8h-4.375V79.938l-5.222 1.62V78l9.128-3.27h.469zm21.593.03v2.452L127.572 96.8h-4.617l8.537-18.497h-10.959V74.76h15.56zm2.657 19.89q0-1.045.704-1.696.704-.65 1.763-.65 1.075 0 1.779.65.704.651.704 1.696 0 1.029-.697 1.672-.696.644-1.786.644-1.075 0-1.77-.644-.697-.643-.697-1.672zm22.88-11.02v4.057q0 4.571-1.893 6.993-1.892 2.422-5.54 2.422-3.602 0-5.51-2.377-1.907-2.376-1.952-6.811v-4.057q0-4.617 1.915-7.008 1.914-2.392 5.517-2.392 3.603 0 5.51 2.37 1.907 2.368 1.952 6.803zm-4.375 4.844v-5.237q0-2.74-.75-3.989Q155.758 78 154.169 78q-1.544 0-2.278 1.188-.734 1.189-.78 3.716v5.359q0 2.694.735 4.004.734 1.309 2.353 1.309 1.605 0 2.316-1.256.712-1.257.742-3.845zm7.183 6.176q0-1.045.704-1.696.704-.65 1.763-.65 1.075 0 1.779.65.703.651.703 1.696 0 1.029-.696 1.672-.696.644-1.786.644-1.075 0-1.77-.644-.697-.643-.697-1.672zm23.152-1.378V96.8h-15.107v-2.997l7.13-7.599q1.468-1.604 2.172-2.8.704-1.196.704-2.27 0-1.469-.742-2.309-.742-.84-2.119-.84-1.483 0-2.339 1.022-.855 1.022-.855 2.687h-4.39q0-2.014.962-3.679.96-1.665 2.717-2.61 1.756-.947 3.98-.947 3.406 0 5.29 1.635 1.885 1.635 1.885 4.617 0 1.634-.847 3.33-.848 1.695-2.906 3.95l-5.01 5.283h9.475z" fill="#000" fill-rule="nonzero"></path></g><g transform="translate(331 381)"><rect stroke="#7C9D6E" stroke-width="2.8" fill="#D6E9CE" fill-rule="nonzero" x="1.4" y="1.4" width="224" height="74.2" rx="7"></rect><path d="M65.163 28.826l4.417 16.018 4.416-16.018h6.636L72.612 52.6h-6.064l-8.02-23.774h6.635zm27.474 24.213q-5.23 0-8.514-3.208-3.285-3.208-3.285-8.547v-.615q0-3.582 1.384-6.405 1.385-2.824 3.922-4.35 2.538-1.528 5.79-1.528 4.878 0 7.68 3.076 2.801 3.076 2.801 8.723v2.593H87.276q.308 2.33 1.857 3.736 1.549 1.406 3.922 1.406 3.67 0 5.735-2.659l3.12 3.494q-1.428 2.021-3.867 3.153-2.44 1.131-5.406 1.131zm-.725-19.511q-1.89 0-3.065 1.274-1.175 1.275-1.505 3.648h8.833v-.506q-.044-2.11-1.143-3.263-1.098-1.153-3.12-1.153zM105.83 22.98h6.35v5.845h4.065v4.658h-4.065v11.865q0 1.318.506 1.89.505.571 1.933.571 1.055 0 1.868-.154v4.812q-1.868.571-3.845.571-6.68 0-6.812-6.745v-12.81h-3.471v-4.658h3.471V22.98zm18.707-4.131v12.568q2.527-3.032 6.35-3.032 7.735 0 7.844 8.987V52.6h-6.35V37.549q0-2.044-.879-3.022-.878-.977-2.922-.977-2.79 0-4.043 2.153V52.6h-6.35V18.85h6.35zm38.812 14.634v5.888q0 6.636-2.747 10.152-2.746 3.515-8.042 3.515-5.229 0-7.998-3.45-2.768-3.449-2.834-9.887v-5.889q0-6.701 2.78-10.173 2.779-3.472 8.009-3.472 5.229 0 7.998 3.44 2.768 3.438 2.834 9.876zm-6.35 7.031v-7.602q0-3.978-1.088-5.79-1.087-1.813-3.394-1.813-2.242 0-3.307 1.725-1.066 1.725-1.132 5.394v7.778q0 3.912 1.066 5.812 1.065 1.9 3.416 1.9 2.33 0 3.362-1.823 1.033-1.824 1.077-5.581z" fill="#000" fill-rule="nonzero"></path></g><rect stroke="#AD9E6A" stroke-width="2.8" fill="#FFF2C5" fill-rule="nonzero" x="647.4" y="509.4" width="252.2" height="224.2" rx="7"></rect><g transform="translate(646 508)"><rect stroke="#7C9D6E" stroke-width="2.8" fill="#D6E9CE" fill-rule="nonzero" x="1.4" y="1.4" width="224" height="116.2" rx="7"></rect><path d="M82.677 55.64q-5.23 0-8.514-3.209-3.285-3.208-3.285-8.547v-.615q0-3.582 1.384-6.405 1.385-2.824 3.922-4.35 2.538-1.528 5.79-1.528 4.878 0 7.68 3.076 2.801 3.076 2.801 8.723v2.593H77.316q.308 2.33 1.857 3.736 1.549 1.406 3.922 1.406 3.67 0 5.735-2.659l3.12 3.494q-1.428 2.021-3.867 3.153-2.44 1.131-5.406 1.131zm-.725-19.512q-1.89 0-3.065 1.274-1.175 1.275-1.505 3.648h8.833v-.506q-.044-2.11-1.143-3.263-1.098-1.153-3.12-1.153zM95.87 25.58h6.35v5.845h4.065v4.658h-4.065v11.865q0 1.318.506 1.89.505.571 1.933.571 1.055 0 1.868-.154v4.812q-1.868.571-3.845.571-6.68 0-6.812-6.745v-12.81h-3.472v-4.658h3.472V25.58zm18.707-4.131v12.568q2.527-3.032 6.35-3.032 7.735 0 7.844 8.987V55.2h-6.35V40.149q0-2.044-.879-3.022-.879-.977-2.922-.977-2.79 0-4.043 2.153V55.2h-6.35V21.45h6.35zm38.812 14.634v5.888q0 6.636-2.747 10.152-2.746 3.515-8.042 3.515-5.23 0-7.998-3.45-2.768-3.449-2.834-9.887v-5.889q0-6.701 2.78-10.173 2.779-3.472 8.008-3.472 5.23 0 7.998 3.44 2.77 3.438 2.835 9.876zm-6.35 7.031v-7.602q0-3.978-1.088-5.79-1.087-1.813-3.395-1.813-2.24 0-3.306 1.725-1.066 1.725-1.132 5.394v7.778q0 3.912 1.066 5.812 1.065 1.9 3.416 1.9 2.33 0 3.362-1.823 1.033-1.824 1.077-5.581zM54.346 74.73V96.8H49.97V79.938l-5.222 1.62V78l9.127-3.27h.47zm21.593.03v2.453L67.417 96.8H62.8l8.537-18.497H60.378V74.76h15.56zm17.354 18.513V96.8H78.187v-2.997l7.13-7.599q1.467-1.604 2.171-2.8.704-1.196.704-2.27 0-1.469-.742-2.309-.741-.84-2.119-.84-1.483 0-2.338 1.022t-.855 2.687h-4.39q0-2.014.961-3.679t2.717-2.61q1.756-.947 3.981-.947 3.406 0 5.29 1.635 1.885 1.635 1.885 4.617 0 1.634-.848 3.33-.847 1.695-2.906 3.95l-5.01 5.283h9.475zm2.536 1.378q0-1.045.704-1.696.704-.65 1.763-.65 1.075 0 1.779.65.704.651.704 1.696 0 1.029-.696 1.672-.697.644-1.787.644-1.074 0-1.77-.644-.697-.643-.697-1.672zm18.672-19.92V96.8h-4.375V79.938l-5.222 1.62V78l9.128-3.27h.469zm21.593.03v2.452L127.572 96.8h-4.617l8.537-18.497h-10.959V74.76h15.56zm2.657 19.89q0-1.045.704-1.696.704-.65 1.763-.65 1.075 0 1.779.65.704.651.704 1.696 0 1.029-.697 1.672-.696.644-1.786.644-1.075 0-1.77-.644-.697-.643-.697-1.672zm22.88-11.02v4.057q0 4.571-1.893 6.993-1.892 2.422-5.54 2.422-3.602 0-5.51-2.377-1.907-2.376-1.952-6.811v-4.057q0-4.617 1.915-7.008 1.914-2.392 5.517-2.392 3.603 0 5.51 2.37 1.907 2.368 1.952 6.803zm-4.375 4.844v-5.237q0-2.74-.75-3.989Q155.758 78 154.169 78q-1.544 0-2.278 1.188-.734 1.189-.78 3.716v5.359q0 2.694.735 4.004.734 1.309 2.353 1.309 1.605 0 2.316-1.256.712-1.257.742-3.845zm7.183 6.176q0-1.045.704-1.696.704-.65 1.763-.65 1.075 0 1.779.65.703.651.703 1.696 0 1.029-.696 1.672-.696.644-1.786.644-1.075 0-1.77-.644-.697-.643-.697-1.672zm12.496-7.387v-3.421h2.33q1.666 0 2.468-.833.802-.832.802-2.21 0-1.332-.794-2.073-.795-.742-2.188-.742-1.256 0-2.104.689-.847.688-.847 1.793h-4.375q0-1.725.931-3.095.93-1.37 2.604-2.142 1.672-.772 3.685-.772 3.497 0 5.48 1.673 1.983 1.672 1.983 4.609 0 1.514-.924 2.785-.923 1.272-2.421 1.953 1.861.666 2.777 1.998.916 1.332.916 3.148 0 2.937-2.142 4.708-2.142 1.77-5.669 1.77-3.3 0-5.396-1.74t-2.096-4.602h4.374q0 1.242.931 2.029.931.787 2.293.787 1.56 0 2.445-.825.885-.825.885-2.187 0-3.3-3.632-3.3h-2.316z" fill="#000" fill-rule="nonzero"></path></g><g transform="translate(646 381)"><rect stroke="#7C9D6E" stroke-width="2.8" fill="#D6E9CE" fill-rule="nonzero" x="1.4" y="1.4" width="224" height="74.2" rx="7"></rect><path d="M65.163 28.826l4.417 16.018 4.416-16.018h6.636L72.612 52.6h-6.064l-8.02-23.774h6.635zm27.474 24.213q-5.23 0-8.514-3.208-3.285-3.208-3.285-8.547v-.615q0-3.582 1.384-6.405 1.385-2.824 3.922-4.35 2.538-1.528 5.79-1.528 4.878 0 7.68 3.076 2.801 3.076 2.801 8.723v2.593H87.276q.308 2.33 1.857 3.736 1.549 1.406 3.922 1.406 3.67 0 5.735-2.659l3.12 3.494q-1.428 2.021-3.867 3.153-2.44 1.131-5.406 1.131zm-.725-19.511q-1.89 0-3.065 1.274-1.175 1.275-1.505 3.648h8.833v-.506q-.044-2.11-1.143-3.263-1.098-1.153-3.12-1.153zM105.83 22.98h6.35v5.845h4.065v4.658h-4.065v11.865q0 1.318.506 1.89.505.571 1.933.571 1.055 0 1.868-.154v4.812q-1.868.571-3.845.571-6.68 0-6.812-6.745v-12.81h-3.471v-4.658h3.471V22.98zm18.707-4.131v12.568q2.527-3.032 6.35-3.032 7.735 0 7.844 8.987V52.6h-6.35V37.549q0-2.044-.879-3.022-.878-.977-2.922-.977-2.79 0-4.043 2.153V52.6h-6.35V18.85h6.35zm32.704 1.714V52.6h-6.35V28.122l-7.581 2.352V25.31l13.25-4.746h.68z" fill="#000" fill-rule="nonzero"></path></g><path d="M576.306 807.008V839h-6.592l-12.832-21.05V839h-6.592v-31.992h6.592l12.854 21.094v-21.094h6.57zm2.909 20.17v-.285q0-3.538 1.362-6.306 1.362-2.769 3.922-4.285t5.944-1.516q4.812 0 7.855 2.944 3.043 2.945 3.395 7.999l.044 1.625q0 5.472-3.055 8.779-3.054 3.306-8.195 3.306-5.142 0-8.207-3.295-3.065-3.296-3.065-8.965zm6.35.176q0 3.384 1.274 5.175 1.275 1.79 3.648 1.79 2.307 0 3.603-1.768 1.297-1.769 1.297-5.658 0-3.318-1.297-5.142-1.296-1.823-3.647-1.823-2.33 0-3.604 1.812-1.274 1.813-1.274 5.614zm17.652-.417q0-5.56 2.494-8.855 2.494-3.296 6.822-3.296 3.472 0 5.735 2.593V805.25h6.372V839h-5.735l-.307-2.527q-2.373 2.966-6.109 2.966-4.196 0-6.734-3.306-2.538-3.307-2.538-9.196zm6.35.461q0 3.34 1.165 5.12 1.164 1.78 3.383 1.78 2.945 0 4.153-2.483v-9.382q-1.186-2.483-4.109-2.483-4.592 0-4.592 7.448zm29.496 12.041q-5.23 0-8.515-3.208t-3.285-8.547v-.615q0-3.582 1.385-6.405 1.384-2.824 3.922-4.35 2.538-1.528 5.79-1.528 4.877 0 7.679 3.076 2.801 3.076 2.801 8.723v2.593h-15.139q.308 2.33 1.857 3.736 1.549 1.406 3.922 1.406 3.67 0 5.735-2.659l3.12 3.494q-1.428 2.021-3.867 3.153-2.44 1.131-5.405 1.131zm-.726-19.511q-1.89 0-3.065 1.274-1.175 1.275-1.505 3.648h8.833v-.506q-.044-2.11-1.142-3.263-1.099-1.153-3.12-1.153z" fill="#000" fill-rule="nonzero"></path><path d="M362.327 712.485h-3.852V720h-4.395v-21.328h8.32q2.403 0 4.227.879 1.823.879 2.805 2.497.981 1.619.981 3.684 0 3.135-2.146 4.944-2.146 1.81-5.94 1.81zm-3.852-10.254v6.695h3.926q1.743 0 2.658-.82.916-.82.916-2.344 0-1.568-.923-2.534-.923-.967-2.549-.997h-4.028zm12.847 9.888v-.19q0-2.359.908-4.204.908-1.846 2.615-2.857 1.706-1.01 3.962-1.01 3.208 0 5.237 1.962 2.029 1.963 2.263 5.332l.03 1.084q0 3.648-2.037 5.852-2.036 2.205-5.463 2.205-3.428 0-5.472-2.197-2.043-2.198-2.043-5.977zm4.233.117q0 2.256.85 3.45.85 1.194 2.432 1.194 1.538 0 2.402-1.18.864-1.179.864-3.771 0-2.212-.864-3.428-.864-1.216-2.432-1.216-1.552 0-2.402 1.209-.85 1.208-.85 3.742zm11.749-.278q0-3.706 1.662-5.903 1.663-2.198 4.549-2.198 2.314 0 3.823 1.729V697.5h4.248V720h-3.823l-.205-1.685q-1.582 1.978-4.073 1.978-2.797 0-4.49-2.205-1.691-2.204-1.691-6.13zm4.233.308q0 2.226.777 3.413.776 1.186 2.255 1.186 1.963 0 2.769-1.655v-6.255q-.791-1.655-2.74-1.655-3.06 0-3.06 4.966zm22.457-13.623V720h-4.234v-16.318l-5.053 1.567v-3.442l8.833-3.164h.454zm12.525 5.507h3.984l.132 1.831q1.7-2.124 4.556-2.124 2.52 0 3.75 1.48t1.26 4.424V720h-4.234v-10.137q0-1.347-.586-1.955-.586-.608-1.948-.608-1.787 0-2.68 1.523V720h-4.234v-15.85zm23.204 16.143q-3.487 0-5.677-2.139-2.19-2.138-2.19-5.698v-.41q0-2.388.923-4.27.923-1.882 2.615-2.9 1.692-1.019 3.86-1.019 3.252 0 5.12 2.051 1.867 2.051 1.867 5.816v1.728h-10.093q.205 1.553 1.238 2.49 1.033.938 2.615.938 2.446 0 3.823-1.773l2.08 2.33q-.952 1.347-2.578 2.102-1.626.754-3.603.754zm-.484-13.008q-1.26 0-2.043.85-.784.85-1.004 2.431h5.889v-.337q-.03-1.406-.762-2.175-.732-.769-2.08-.769zm9.258-7.031h4.234v3.896h2.71v3.106h-2.71v7.91q0 .879.337 1.26.337.38 1.289.38.703 0 1.245-.102v3.208q-1.245.381-2.564.381-4.453 0-4.54-4.497v-8.54h-2.315v-3.106h2.314v-3.896zm8.233 3.896h3.985l.132 1.831q1.699-2.124 4.555-2.124 2.52 0 3.75 1.48t1.26 4.424V720h-4.233v-10.137q0-1.347-.586-1.955-.586-.608-1.949-.608-1.787 0-2.68 1.523V720h-4.234v-15.85zm24.493 11.47q0-.776-.77-1.223-.768-.447-2.467-.798-5.655-1.187-5.655-4.805 0-2.11 1.75-3.523 1.751-1.414 4.578-1.414 3.018 0 4.827 1.421 1.81 1.421 1.81 3.692h-4.234q0-.908-.586-1.502-.586-.593-1.831-.593-1.07 0-1.655.483-.586.484-.586 1.23 0 .704.666 1.136.667.432 2.249.747t2.666.71q3.354 1.231 3.354 4.263 0 2.168-1.86 3.509-1.86 1.34-4.805 1.34-1.992 0-3.537-.71-1.546-.71-2.425-1.949-.879-1.238-.879-2.673h4.014q.059 1.128.835 1.728.776.601 2.08.601 1.216 0 1.838-.461.623-.462.623-1.209zm214.104-3.135h-3.852V720h-4.395v-21.328h8.32q2.403 0 4.227.879 1.823.879 2.805 2.497.981 1.619.981 3.684 0 3.135-2.146 4.944-2.146 1.81-5.94 1.81zm-3.852-10.254v6.695h3.926q1.743 0 2.658-.82.916-.82.916-2.344 0-1.568-.923-2.534-.923-.967-2.549-.997h-4.028zm12.847 9.888v-.19q0-2.359.908-4.204.908-1.846 2.615-2.857 1.706-1.01 3.962-1.01 3.208 0 5.237 1.962 2.029 1.963 2.263 5.332l.03 1.084q0 3.648-2.037 5.852-2.036 2.205-5.463 2.205-3.428 0-5.472-2.197-2.043-2.198-2.043-5.977zm4.233.117q0 2.256.85 3.45.85 1.194 2.432 1.194 1.538 0 2.402-1.18.864-1.179.864-3.771 0-2.212-.864-3.428-.864-1.216-2.432-1.216-1.552 0-2.402 1.209-.85 1.208-.85 3.742zm11.749-.278q0-3.706 1.662-5.903 1.663-2.198 4.549-2.198 2.314 0 3.823 1.729V697.5h4.248V720h-3.823l-.205-1.685q-1.582 1.978-4.073 1.978-2.797 0-4.49-2.205-1.691-2.204-1.691-6.13zm4.233.308q0 2.226.777 3.413.776 1.186 2.255 1.186 1.963 0 2.769-1.655v-6.255q-.791-1.655-2.74-1.655-3.06 0-3.06 4.966zm26.793 4.32V720h-14.62v-2.9l6.9-7.354q1.42-1.553 2.102-2.71.681-1.157.681-2.197 0-1.421-.718-2.234-.717-.813-2.05-.813-1.436 0-2.264.989-.827.989-.827 2.6h-4.248q0-1.948.93-3.56.93-1.611 2.63-2.527 1.699-.915 3.852-.915 3.296 0 5.12 1.582 1.823 1.582 1.823 4.468 0 1.582-.82 3.222-.82 1.641-2.813 3.824l-4.848 5.112h9.17zm8.189-12.436h3.984l.132 1.831q1.7-2.124 4.556-2.124 2.52 0 3.75 1.48t1.26 4.424V720h-4.234v-10.137q0-1.347-.586-1.955-.586-.608-1.948-.608-1.787 0-2.68 1.523V720h-4.234v-15.85zm23.204 16.143q-3.487 0-5.677-2.139-2.19-2.138-2.19-5.698v-.41q0-2.388.923-4.27.923-1.882 2.615-2.9 1.692-1.019 3.86-1.019 3.252 0 5.12 2.051 1.867 2.051 1.867 5.816v1.728h-10.093q.205 1.553 1.238 2.49 1.033.938 2.615.938 2.446 0 3.823-1.773l2.08 2.33q-.952 1.347-2.578 2.102-1.626.754-3.603.754zm-.484-13.008q-1.26 0-2.043.85-.784.85-1.004 2.431h5.889v-.337q-.03-1.406-.762-2.175-.732-.769-2.08-.769zm9.258-7.031h4.234v3.896h2.71v3.106h-2.71v7.91q0 .879.337 1.26.337.38 1.289.38.703 0 1.245-.102v3.208q-1.245.381-2.564.381-4.453 0-4.54-4.497v-8.54h-2.315v-3.106h2.314v-3.896zm8.233 3.896h3.985l.132 1.831q1.699-2.124 4.555-2.124 2.52 0 3.75 1.48t1.26 4.424V720h-4.233v-10.137q0-1.347-.586-1.955-.586-.608-1.949-.608-1.787 0-2.68 1.523V720h-4.234v-15.85zm24.493 11.47q0-.776-.77-1.223-.768-.447-2.467-.798-5.655-1.187-5.655-4.805 0-2.11 1.75-3.523 1.751-1.414 4.578-1.414 3.018 0 4.827 1.421 1.81 1.421 1.81 3.692h-4.234q0-.908-.586-1.502-.586-.593-1.831-.593-1.07 0-1.655.483-.586.484-.586 1.23 0 .704.666 1.136.667.432 2.249.747t2.666.71q3.354 1.231 3.354 4.263 0 2.168-1.86 3.509-1.86 1.34-4.805 1.34-1.992 0-3.537-.71-1.546-.71-2.425-1.949-.879-1.238-.879-2.673h4.014q.059 1.128.835 1.728.776.601 2.08.601 1.216 0 1.838-.461.623-.462.623-1.209zM748.269 124l-4-7.808h-3.5V124h-4.395v-21.328h7.925q3.78 0 5.83 1.684 2.051 1.685 2.051 4.761 0 2.183-.945 3.64-.945 1.458-2.864 2.322l4.615 8.716V124h-4.717zm-7.5-17.769v6.402h3.545q1.655 0 2.563-.842.908-.843.908-2.322 0-1.509-.857-2.373-.856-.865-2.629-.865h-3.53zm12.832 9.888v-.19q0-2.359.909-4.204.908-1.846 2.614-2.857 1.707-1.01 3.963-1.01 3.208 0 5.236 1.962 2.03 1.963 2.264 5.332l.029 1.084q0 3.648-2.036 5.852-2.036 2.205-5.464 2.205-3.428 0-5.471-2.197-2.044-2.198-2.044-5.977zm4.234.117q0 2.256.85 3.45.849 1.194 2.431 1.194 1.538 0 2.402-1.18.865-1.179.865-3.771 0-2.212-.865-3.428-.864-1.216-2.431-1.216-1.553 0-2.403 1.209-.85 1.208-.85 3.742zm11.748-.117v-.19q0-2.359.908-4.204.909-1.846 2.615-2.857 1.707-1.01 3.963-1.01 3.208 0 5.236 1.962 2.03 1.963 2.264 5.332l.029 1.084q0 3.648-2.036 5.852-2.036 2.205-5.464 2.205-3.428 0-5.471-2.197-2.044-2.198-2.044-5.977zm4.234.117q0 2.256.85 3.45.849 1.194 2.43 1.194 1.539 0 2.403-1.18.864-1.179.864-3.771 0-2.212-.864-3.428-.864-1.216-2.431-1.216-1.553 0-2.403 1.209-.85 1.208-.85 3.742zm13.242-11.982h4.234v3.896h2.71v3.106h-2.71v7.91q0 .879.337 1.26.336.38 1.289.38.703 0 1.245-.102v3.208q-1.245.381-2.564.381-4.453 0-4.54-4.497v-8.54h-2.315v-3.106h2.314v-3.896zm14.723 3.896h3.984l.132 1.831q1.7-2.124 4.556-2.124 2.52 0 3.75 1.48t1.26 4.424V124h-4.234v-10.137q0-1.347-.586-1.955-.586-.608-1.948-.608-1.787 0-2.68 1.523V124h-4.234v-15.85zm23.203 16.143q-3.486 0-5.676-2.139-2.19-2.138-2.19-5.698v-.41q0-2.388.923-4.27.923-1.882 2.615-2.9 1.692-1.019 3.86-1.019 3.252 0 5.12 2.051 1.867 2.051 1.867 5.816v1.728H821.41q.205 1.553 1.238 2.49 1.033.938 2.615.938 2.446 0 3.823-1.773l2.08 2.33q-.952 1.347-2.578 2.102-1.626.754-3.604.754zm-.483-13.008q-1.26 0-2.043.85-.784.85-1.004 2.431h5.889v-.337q-.03-1.406-.762-2.175-.732-.769-2.08-.769zm9.258-7.031h4.234v3.896h2.71v3.106h-2.71v7.91q0 .879.337 1.26.336.38 1.289.38.703 0 1.245-.102v3.208q-1.245.381-2.564.381-4.453 0-4.54-4.497v-8.54h-2.315v-3.106h2.314v-3.896zm8.233 3.896h3.984l.132 1.831q1.7-2.124 4.556-2.124 2.52 0 3.75 1.48t1.26 4.424V124h-4.234v-10.137q0-1.347-.586-1.955-.586-.608-1.948-.608-1.787 0-2.68 1.523V124h-4.234v-15.85zm24.493 11.47q0-.776-.77-1.223-.768-.447-2.468-.798-5.654-1.187-5.654-4.805 0-2.11 1.75-3.523 1.751-1.414 4.578-1.414 3.018 0 4.827 1.421 1.809 1.421 1.809 3.692h-4.233q0-.908-.586-1.502-.586-.593-1.831-.593-1.07 0-1.656.483-.586.484-.586 1.23 0 .704.667 1.136.666.432 2.248.747 1.582.315 2.666.71 3.355 1.231 3.355 4.263 0 2.168-1.86 3.509-1.86 1.34-4.805 1.34-1.992 0-3.538-.71-1.545-.71-2.424-1.949-.879-1.238-.879-2.673h4.014q.058 1.128.835 1.728.776.601 2.08.601 1.216 0 1.838-.461.623-.462.623-1.209z" fill="#AD9E6A" fill-rule="nonzero"></path><g transform="translate(489 82)"><rect stroke="#7C9D6E" stroke-width="2.8" fill="#D6E9CE" fill-rule="nonzero" x="1.4" y="1.4" width="224" height="116.2" rx="7"></rect><path d="M82.677 55.64q-5.23 0-8.514-3.209-3.285-3.208-3.285-8.547v-.615q0-3.582 1.384-6.405 1.385-2.824 3.922-4.35 2.538-1.528 5.79-1.528 4.878 0 7.68 3.076 2.801 3.076 2.801 8.723v2.593H77.316q.308 2.33 1.857 3.736 1.549 1.406 3.922 1.406 3.67 0 5.735-2.659l3.12 3.494q-1.428 2.021-3.867 3.153-2.44 1.131-5.406 1.131zm-.725-19.512q-1.89 0-3.065 1.274-1.175 1.275-1.505 3.648h8.833v-.506q-.044-2.11-1.143-3.263-1.098-1.153-3.12-1.153zM95.87 25.58h6.35v5.845h4.065v4.658h-4.065v11.865q0 1.318.506 1.89.505.571 1.933.571 1.055 0 1.868-.154v4.812q-1.868.571-3.845.571-6.68 0-6.812-6.745v-12.81h-3.472v-4.658h3.472V25.58zm18.707-4.131v12.568q2.527-3.032 6.35-3.032 7.735 0 7.844 8.987V55.2h-6.35V40.149q0-2.044-.879-3.022-.879-.977-2.922-.977-2.79 0-4.043 2.153V55.2h-6.35V21.45h6.35zm38.812 14.634v5.888q0 6.636-2.747 10.152-2.746 3.515-8.042 3.515-5.23 0-7.998-3.45-2.768-3.449-2.834-9.887v-5.889q0-6.701 2.78-10.173 2.779-3.472 8.008-3.472 5.23 0 7.998 3.44 2.77 3.438 2.835 9.876zm-6.35 7.031v-7.602q0-3.978-1.088-5.79-1.087-1.813-3.395-1.813-2.24 0-3.306 1.725-1.066 1.725-1.132 5.394v7.778q0 3.912 1.066 5.812 1.065 1.9 3.416 1.9 2.33 0 3.362-1.823 1.033-1.824 1.077-5.581zM54.346 74.73V96.8H49.97V79.938l-5.222 1.62V78l9.127-3.27h.47zm21.441 8.901v4.057q0 4.571-1.892 6.993-1.892 2.422-5.54 2.422-3.603 0-5.51-2.377-1.907-2.376-1.952-6.811v-4.057q0-4.617 1.914-7.008 1.915-2.392 5.518-2.392 3.602 0 5.51 2.37 1.907 2.368 1.952 6.803zm-4.374 4.844v-5.237q0-2.74-.75-3.989Q69.914 78 68.325 78q-1.544 0-2.278 1.188-.734 1.189-.78 3.716v5.359q0 2.694.734 4.004.734 1.309 2.354 1.309 1.605 0 2.316-1.256.711-1.257.742-3.845zm7.183 6.176q0-1.045.703-1.696.704-.65 1.764-.65 1.075 0 1.778.65.704.651.704 1.696 0 1.029-.696 1.672-.696.644-1.786.644-1.075 0-1.771-.644-.696-.643-.696-1.672zm18.671-19.92V96.8h-4.374V79.938l-5.223 1.62V78l9.128-3.27h.47zm21.442 8.9v4.057q0 4.571-1.892 6.993-1.892 2.422-5.54 2.422-3.603 0-5.51-2.377-1.907-2.376-1.953-6.811v-4.057q0-4.617 1.915-7.008 1.915-2.392 5.517-2.392 3.603 0 5.51 2.37 1.907 2.368 1.953 6.803zm-4.375 4.844v-5.237q0-2.74-.749-3.989-.75-1.249-2.339-1.249-1.544 0-2.278 1.188-.734 1.189-.78 3.716v5.359q0 2.694.735 4.004.734 1.309 2.354 1.309 1.604 0 2.316-1.256.711-1.257.741-3.845zm21.608-4.844v4.057q0 4.571-1.892 6.993-1.892 2.422-5.54 2.422-3.602 0-5.51-2.377-1.907-2.376-1.952-6.811v-4.057q0-4.617 1.915-7.008 1.915-2.392 5.517-2.392 3.603 0 5.51 2.37 1.907 2.368 1.952 6.803zm-4.374 4.844v-5.237q0-2.74-.75-3.989Q130.07 78 128.48 78q-1.544 0-2.278 1.188-.734 1.189-.78 3.716v5.359q0 2.694.735 4.004.734 1.309 2.353 1.309 1.605 0 2.316-1.256.712-1.257.742-3.845zm7.183 6.176q0-1.045.704-1.696.704-.65 1.763-.65 1.075 0 1.779.65.704.651.704 1.696 0 1.029-.697 1.672-.696.644-1.786.644-1.075 0-1.77-.644-.697-.643-.697-1.672zm22.88-11.02v4.057q0 4.571-1.893 6.993-1.892 2.422-5.54 2.422-3.602 0-5.51-2.377-1.907-2.376-1.952-6.811v-4.057q0-4.617 1.915-7.008 1.914-2.392 5.517-2.392 3.603 0 5.51 2.37 1.907 2.368 1.952 6.803zm-4.375 4.844v-5.237q0-2.74-.75-3.989Q155.758 78 154.169 78q-1.544 0-2.278 1.188-.734 1.189-.78 3.716v5.359q0 2.694.735 4.004.734 1.309 2.353 1.309 1.605 0 2.316-1.256.712-1.257.742-3.845zm7.183 6.176q0-1.045.704-1.696.704-.65 1.763-.65 1.075 0 1.779.65.703.651.703 1.696 0 1.029-.696 1.672-.696.644-1.786.644-1.075 0-1.77-.644-.697-.643-.697-1.672zm23.152-1.378V96.8h-15.107v-2.997l7.13-7.599q1.468-1.604 2.172-2.8.704-1.196.704-2.27 0-1.469-.742-2.309-.742-.84-2.119-.84-1.483 0-2.339 1.022-.855 1.022-.855 2.687h-4.39q0-2.014.962-3.679.96-1.665 2.717-2.61 1.756-.947 3.98-.947 3.406 0 5.29 1.635 1.885 1.635 1.885 4.617 0 1.634-.847 3.33-.848 1.695-2.906 3.95l-5.01 5.283h9.475z" fill="#000" fill-rule="nonzero"></path></g><g transform="translate(489 222)"><rect stroke="#7C9D6E" stroke-width="2.8" fill="#D6E9CE" fill-rule="nonzero" x="1.4" y="1.4" width="224" height="116.2" rx="7"></rect><path d="M31.832 43.137q0-5.56 2.494-8.855 2.494-3.296 6.823-3.296 3.471 0 5.734 2.593V21.45h6.373V55.2H47.52l-.308-2.527q-2.373 2.966-6.108 2.966-4.197 0-6.735-3.306-2.538-3.307-2.538-9.196zm6.35.461q0 3.34 1.165 5.12 1.164 1.78 3.384 1.78 2.944 0 4.152-2.483v-9.382q-1.186-2.483-4.108-2.483-4.593 0-4.593 7.448zm17.565-.22v-.285q0-3.538 1.362-6.306 1.362-2.769 3.922-4.285t5.944-1.516q4.812 0 7.855 2.944 3.043 2.945 3.395 7.999l.044 1.625q0 5.472-3.055 8.779-3.054 3.306-8.195 3.306-5.142 0-8.207-3.295-3.065-3.296-3.065-8.965zm6.35.176q0 3.384 1.274 5.175 1.275 1.79 3.648 1.79 2.307 0 3.603-1.768 1.297-1.769 1.297-5.658 0-3.318-1.297-5.142-1.296-1.823-3.647-1.823-2.33 0-3.604 1.812-1.274 1.813-1.274 5.614zm28.528 6.966q1.758 0 2.857-.967 1.099-.967 1.142-2.57h5.955q-.022 2.416-1.318 4.427-1.297 2.01-3.549 3.12-2.252 1.11-4.977 1.11-5.097 0-8.042-3.242-2.944-3.24-2.944-8.953v-.418q0-5.493 2.922-8.767 2.923-3.274 8.02-3.274 4.46 0 7.152 2.538t2.736 6.757h-5.955q-.043-1.846-1.142-3-1.099-1.153-2.9-1.153-2.22 0-3.351 1.615-1.132 1.615-1.132 5.24v.66q0 3.669 1.12 5.273 1.121 1.604 3.406 1.604zm26.881 4.68l-6.108-9.536-2.285 2.285V55.2h-6.35V21.45h6.35v18.699l1.23-1.582 6.087-7.141h7.624l-8.591 9.91L124.8 55.2h-7.295zm18.356.44q-5.23 0-8.515-3.209-3.285-3.208-3.285-8.547v-.615q0-3.582 1.385-6.405 1.384-2.824 3.922-4.35 2.537-1.528 5.79-1.528 4.877 0 7.679 3.076 2.801 3.076 2.801 8.723v2.593H130.5q.308 2.33 1.857 3.736 1.549 1.406 3.922 1.406 3.67 0 5.735-2.659l3.12 3.494q-1.428 2.021-3.867 3.153-2.44 1.131-5.405 1.131zm-.726-19.512q-1.89 0-3.065 1.274-1.175 1.275-1.505 3.648h8.833v-.506q-.044-2.11-1.142-3.263-1.1-1.153-3.12-1.153zm26.112-4.856l-.088 6.108q-1.296-.176-2.285-.176-3.603 0-4.724 2.44V55.2h-6.35V31.426h5.998l.176 2.834q1.912-3.274 5.296-3.274 1.054 0 1.977.286zm22.794 4.812v5.888q0 6.636-2.747 10.152-2.746 3.515-8.042 3.515-5.23 0-7.998-3.45-2.768-3.449-2.834-9.887v-5.889q0-6.701 2.78-10.173 2.779-3.472 8.008-3.472 5.23 0 7.999 3.44 2.768 3.438 2.834 9.876zm-6.35 7.031v-7.602q0-3.978-1.088-5.79-1.087-1.813-3.395-1.813-2.24 0-3.306 1.725-1.066 1.725-1.132 5.394v7.778q0 3.912 1.066 5.812 1.065 1.9 3.416 1.9 2.33 0 3.362-1.823 1.033-1.824 1.077-5.581zM54.346 74.73V96.8H49.97V79.938l-5.222 1.62V78l9.127-3.27h.47zm21.593.03v2.453L67.417 96.8H62.8l8.537-18.497H60.378V74.76h15.56zm17.354 18.513V96.8H78.187v-2.997l7.13-7.599q1.467-1.604 2.171-2.8.704-1.196.704-2.27 0-1.469-.742-2.309-.741-.84-2.119-.84-1.483 0-2.338 1.022t-.855 2.687h-4.39q0-2.014.961-3.679t2.717-2.61q1.756-.947 3.981-.947 3.406 0 5.29 1.635 1.885 1.635 1.885 4.617 0 1.634-.848 3.33-.847 1.695-2.906 3.95l-5.01 5.283h9.475zm2.536 1.378q0-1.045.704-1.696.704-.65 1.763-.65 1.075 0 1.779.65.704.651.704 1.696 0 1.029-.696 1.672-.697.644-1.787.644-1.074 0-1.77-.644-.697-.643-.697-1.672zm18.672-19.92V96.8h-4.375V79.938l-5.222 1.62V78l9.128-3.27h.469zm21.593.03v2.452L127.572 96.8h-4.617l8.537-18.497h-10.959V74.76h15.56zm2.657 19.89q0-1.045.704-1.696.704-.65 1.763-.65 1.075 0 1.779.65.704.651.704 1.696 0 1.029-.697 1.672-.696.644-1.786.644-1.075 0-1.77-.644-.697-.643-.697-1.672zm22.88-11.02v4.057q0 4.571-1.893 6.993-1.892 2.422-5.54 2.422-3.602 0-5.51-2.377-1.907-2.376-1.952-6.811v-4.057q0-4.617 1.915-7.008 1.914-2.392 5.517-2.392 3.603 0 5.51 2.37 1.907 2.368 1.952 6.803zm-4.375 4.844v-5.237q0-2.74-.75-3.989Q155.758 78 154.169 78q-1.544 0-2.278 1.188-.734 1.189-.78 3.716v5.359q0 2.694.735 4.004.734 1.309 2.353 1.309 1.605 0 2.316-1.256.712-1.257.742-3.845zm7.183 6.176q0-1.045.704-1.696.704-.65 1.763-.65 1.075 0 1.779.65.703.651.703 1.696 0 1.029-.696 1.672-.696.644-1.786.644-1.075 0-1.77-.644-.697-.643-.697-1.672zm18.671-19.92V96.8h-4.374V79.938l-5.222 1.62V78l9.127-3.27h.47z" fill="#000" fill-rule="nonzero"></path></g><path fill="#000" fill-rule="nonzero" d="M436 458h18v50h-18z"></path><g fill="#000" fill-rule="nonzero"><path d="M436 273h18.132v108H436z"></path><path d="M489.142 273.051v18.132h-50.494v-18.132z"></path></g><g fill="#000" fill-rule="nonzero"><path d="M769 273h-18.132v108H769z"></path><path d="M715.858 273.051v18.132h50.494v-18.132z"></path></g><path fill="#000" fill-rule="nonzero" d="M751 458h18v50h-18z"></path></g></svg>