<svg viewBox="0 0 1200 900" xmlns="http://www.w3.org/2000/svg"><g fill="none" fill-rule="evenodd"><rect stroke="#76AADF" stroke-width="2.8" fill="#CEE2F6" fill-rule="nonzero" x="252.4" y="83.4" width="696.2" height="696.2" rx="28"/><rect stroke="#AD9E6A" stroke-width="2.8" fill="#FFF2C5" fill-rule="nonzero" x="304.4" y="83.4" width="595.2" height="372.2" rx="7"/><rect stroke="#AD9E6A" stroke-width="2.8" fill="#FFF2C5" fill-rule="nonzero" x="304.4" y="509.4" width="252.2" height="224.2" rx="7"/><g transform="translate(331 508)"><rect stroke="#7C9D6E" stroke-width="2.8" fill="#D6E9CE" fill-rule="nonzero" x="1.4" y="1.4" width="224" height="116.2" rx="7"/><text font-family="sans-serif" font-size="45.29" font-weight="bold" letter-spacing="-1.442" fill="#000"><tspan x="69.296" y="55.2">eth0</tspan></text><text font-family="sans-serif" font-size="31.29" font-weight="bold" letter-spacing="-.552" fill="#000"><tspan x="42.221" y="96.8">172.17.0.2</tspan></text></g><g transform="translate(331 381)"><rect stroke="#7C9D6E" stroke-width="2.8" fill="#D6E9CE" fill-rule="nonzero" x="1.4" y="1.4" width="224" height="74.2" rx="7"/><text font-family="sans-serif" font-size="45.29" font-weight="bold" letter-spacing="-1.442" fill="#000"><tspan x="58.242" y="52.6">veth0</tspan></text></g><rect stroke="#AD9E6A" stroke-width="2.8" fill="#FFF2C5" fill-rule="nonzero" x="647.4" y="509.4" width="252.2" height="224.2" rx="7"/><g transform="translate(646 508)"><rect stroke="#7C9D6E" stroke-width="2.8" fill="#D6E9CE" fill-rule="nonzero" x="1.4" y="1.4" width="224" height="116.2" rx="7"/><text font-family="sans-serif" font-size="45.29" font-weight="bold" letter-spacing="-1.442" fill="#000"><tspan x="69.296" y="55.2">eth0</tspan></text><text font-family="sans-serif" font-size="31.29" font-weight="bold" letter-spacing="-.552" fill="#000"><tspan x="42.221" y="96.8">172.17.0.3</tspan></text></g><g transform="translate(646 381)"><rect stroke="#7C9D6E" stroke-width="2.8" fill="#D6E9CE" fill-rule="nonzero" x="1.4" y="1.4" width="224" height="74.2" rx="7"/><text font-family="sans-serif" font-size="45.29" font-weight="bold" letter-spacing="-1.442" fill="#000"><tspan x="58.242" y="52.6">veth1</tspan></text></g><text font-family="sans-serif" font-size="45.29" font-weight="bold" letter-spacing="-1.442" fill="#000"><tspan x="547.434" y="839">Node</tspan></text><text font-family="sans-serif" font-size="30.8" font-weight="bold" letter-spacing="-.981" fill="#AD9E6A"><tspan x="352.176" y="720">Pod1 netns</tspan></text><text font-family="sans-serif" font-size="30.8" font-weight="bold" letter-spacing="-.981" fill="#AD9E6A"><tspan x="695.176" y="720">Pod2 netns</tspan></text><text font-family="sans-serif" font-size="30.8" font-weight="bold" letter-spacing="-.981" fill="#AD9E6A"><tspan x="734.47" y="124">Root netns</tspan></text><g transform="translate(489 82)"><rect stroke="#7C9D6E" stroke-width="2.8" fill="#D6E9CE" fill-rule="nonzero" x="1.4" y="1.4" width="224" height="116.2" rx="7"/><text font-family="sans-serif" font-size="45.29" font-weight="bold" letter-spacing="-1.442" fill="#000"><tspan x="69.296" y="55.2">eth0</tspan></text><text font-family="sans-serif" font-size="31.29" font-weight="bold" letter-spacing="-.552" fill="#000"><tspan x="42.221" y="96.8">10.100.0.2</tspan></text></g><g transform="translate(489 222)"><rect stroke="#7C9D6E" stroke-width="2.8" fill="#D6E9CE" fill-rule="nonzero" x="1.4" y="1.4" width="224" height="116.2" rx="7"/><text font-family="sans-serif" font-size="45.29" font-weight="bold" letter-spacing="-1.442" fill="#000"><tspan x="30.382" y="55.2">docker0</tspan></text><text font-family="sans-serif" font-size="31.29" font-weight="bold" letter-spacing="-.552" fill="#000"><tspan x="42.221" y="96.8">172.17.0.1</tspan></text></g><path fill="#000" fill-rule="nonzero" d="M436 458h18v50h-18z"/><g fill="#000" fill-rule="nonzero"><path d="M436 273h18.132v108H436z"/><path d="M489.142 273.051v18.132h-50.494v-18.132z"/></g><g fill="#000" fill-rule="nonzero"><path d="M769 273h-18.132v108H769z"/><path d="M715.858 273.051v18.132h50.494v-18.132z"/></g><path fill="#000" fill-rule="nonzero" d="M751 458h18v50h-18z"/></g></svg>