<svg viewBox="0 0 1200 900" xmlns="http://www.w3.org/2000/svg"><g fill="none" fill-rule="evenodd"><rect fill="#BFD5EF" fill-rule="nonzero" x="90" y="727" width="1020" height="112" rx="10"></rect><path d="M541.88 810l-3.748-11.133h-19.52L514.903 810h-11.838l20.113-54.031h10.316L553.718 810H541.88zm-13.545-40.375l-6.717 20.225h13.508l-6.79-20.225zm59.528 6.568l-19.038 25.16h19.631V810h-33.324v-6.531l18.889-24.938h-18.332v-8.683h32.174v6.345zM617.517 810l-.297-4.082q-3.97 4.824-10.984 4.824-6.457 0-9.853-3.71-3.395-3.712-3.47-10.874v-26.31h10.725v25.94q0 6.27 5.715 6.27 5.455 0 7.496-3.785v-28.425h10.762V810h-10.094zm38.894-40.412l-.148 10.316q-2.19-.297-3.86-.297-6.085 0-7.978 4.12V810H633.7v-40.152h10.131l.297 4.787q3.229-5.53 8.944-5.53 1.78 0 3.34.483zm20.786 41.154q-8.832 0-14.38-5.418t-5.548-14.435v-1.04q0-6.048 2.338-10.817 2.338-4.768 6.624-7.347 4.286-2.58 9.778-2.58 8.238 0 12.97 5.196 4.731 5.195 4.731 14.732v4.38h-25.568q.52 3.933 3.136 6.308t6.624 2.375q6.197 0 9.685-4.49l5.27 5.9q-2.412 3.414-6.532 5.325-4.119 1.911-9.128 1.911zm-1.225-32.953q-3.191 0-5.177 2.152-1.985 2.153-2.542 6.16h14.918v-.853q-.074-3.562-1.93-5.51-1.855-1.949-5.269-1.949z" fill="#000" fill-rule="nonzero"></path><g fill="#0078D7" fill-rule="nonzero"><path d="M1074.085 271.74h-37.742c-1.923 0-3.185 1.62-3.185 3.18v46.92c0 1.92 1.622 3.54 3.185 3.54h44.473c1.923 0 3.185-1.62 3.185-3.54v-39.6h-10.217v-10.56l.3.06zm-1.262 40.56h-28.487v-5.4h28.487v5.4zm0-9.9h-28.487V297h28.487v5.4zm0-10.2h-28.487v-5.4h28.487v5.4z"></path><path d="M1089.11 246.18h-60.46l-30.41 52.38 30.41 52.38h60.46l30.41-52.38-30.41-52.38zm-7.994 84.3h-44.473a8.611 8.611 0 0 1-8.654-8.64v-46.92a8.61 8.61 0 0 1 8.654-8.64h40.327l12.8 12.78v42.78a8.61 8.61 0 0 1-8.654 8.64z"></path></g><g fill-rule="nonzero"><path fill="#8C3123" d="M1093.147 391.895v4.225h-77.08v-4.225l38.54-10.335zm-78.122 13.558h79.933V493h-79.933z"></path><path fill="#E05243" d="M1015.025 401.601h79.933v87.174h-79.933zm67.24-20.601h-54.479l-11.719 10.895h77.08z"></path></g><path fill="#D8D8D8" fill-rule="nonzero" d="M939 214h35v321h-35z"></path><path d="M732.98 646.917v27.17a7.15 7.15 0 0 1-7.15 7.15H474.15a7.15 7.15 0 0 1-7.15-7.15v-27.17a7.15 7.15 0 0 1 7.15-7.15h251.68a7.15 7.15 0 0 1 7.15 7.15z" fill="#D2D2D2"></path><path fill="#A3A3A3" d="M511.33 648.347h5.72v5.72h-5.72zm0 8.58h5.72v5.72h-5.72zm0 8.58h5.72v5.72h-5.72zm8.58-17.16h5.72v5.72h-5.72zm0 8.58h5.72v5.72h-5.72zm0 8.58h5.72v5.72h-5.72zm8.58-17.16h5.72v5.72h-5.72zm0 8.58h5.72v5.72h-5.72zm0 8.58h5.72v5.72h-5.72zm8.58-17.16h5.72v5.72h-5.72zm0 8.58h5.72v5.72h-5.72zm0 8.58h5.72v5.72h-5.72zm8.58-17.16h5.72v5.72h-5.72zm0 8.58h5.72v5.72h-5.72zm0 8.58h5.72v5.72h-5.72zm8.58-17.16h5.72v5.72h-5.72zm0 8.58h5.72v5.72h-5.72zm0 8.58h5.72v5.72h-5.72zm8.58-17.16h5.72v5.72h-5.72zm0 8.58h5.72v5.72h-5.72zm0 8.58h5.72v5.72h-5.72zm8.58-17.16h5.72v5.72h-5.72zm0 8.58h5.72v5.72h-5.72zm0 8.58h5.72v5.72h-5.72zm8.58-17.16h5.72v5.72h-5.72zm0 8.58h5.72v5.72h-5.72zm0 8.58h5.72v5.72h-5.72zm8.58-17.16h5.72v5.72h-5.72zm0 8.58h5.72v5.72h-5.72zm0 8.58h5.72v5.72h-5.72zm8.58-17.16h5.72v5.72h-5.72zm0 8.58h5.72v5.72h-5.72zm0 8.58h5.72v5.72h-5.72zm8.58-17.16h5.72v5.72h-5.72zm0 8.58h5.72v5.72h-5.72zm0 8.58h5.72v5.72h-5.72zm8.58-17.16h5.72v5.72h-5.72zm0 8.58h5.72v5.72h-5.72zm0 8.58h5.72v5.72h-5.72zm8.58-17.16h5.72v5.72h-5.72zm0 8.58h5.72v5.72h-5.72zm0 8.58h5.72v5.72h-5.72zm8.58-17.16h5.72v5.72h-5.72zm0 8.58h5.72v5.72h-5.72zm0 8.58h5.72v5.72h-5.72zm8.58-17.16h5.72v5.72h-5.72zm0 8.58h5.72v5.72h-5.72zm0 8.58h5.72v5.72h-5.72zm8.58-17.16h5.72v5.72h-5.72zm0 8.58h5.72v5.72h-5.72zm0 8.58h5.72v5.72h-5.72zm8.58-17.16h5.72v5.72h-5.72zm0 8.58h5.72v5.72h-5.72zm0 8.58h5.72v5.72h-5.72zm8.58-17.16h5.72v5.72h-5.72zm0 8.58h5.72v5.72h-5.72zm0 8.58h5.72v5.72h-5.72zm8.58-17.16h5.72v5.72h-5.72zm0 8.58h5.72v5.72h-5.72zm0 8.58h5.72v5.72h-5.72zm8.58-17.16h5.72v5.72h-5.72zm0 8.58h5.72v5.72h-5.72zm0 8.58h5.72v5.72h-5.72zm8.58-17.16h5.72v5.72h-5.72zm0 8.58h5.72v5.72h-5.72zm0 8.58h5.72v5.72h-5.72zm8.58-17.16h5.72v5.72h-5.72zm0 8.58h5.72v5.72h-5.72zm0 8.58h5.72v5.72h-5.72zm8.58-17.16h5.72v5.72h-5.72zm0 8.58h5.72v5.72h-5.72zm0 8.58h5.72v5.72h-5.72zm8.58-17.16h5.72v5.72h-5.72zm0 8.58h5.72v5.72h-5.72zm0 8.58h5.72v5.72h-5.72z"></path><path d="M732.98 692.595v27.17a7.15 7.15 0 0 1-7.15 7.15H474.15a7.15 7.15 0 0 1-7.15-7.15v-27.17a7.15 7.15 0 0 1 7.15-7.15h251.68a7.15 7.15 0 0 1 7.15 7.15z" fill="#D2D2D2"></path><path fill="#A3A3A3" d="M511.33 694.025h5.72v5.72h-5.72zm0 8.58h5.72v5.72h-5.72zm0 8.58h5.72v5.72h-5.72zm8.58-17.16h5.72v5.72h-5.72zm0 8.58h5.72v5.72h-5.72zm0 8.58h5.72v5.72h-5.72zm8.58-17.16h5.72v5.72h-5.72zm0 8.58h5.72v5.72h-5.72zm0 8.58h5.72v5.72h-5.72zm8.58-17.16h5.72v5.72h-5.72zm0 8.58h5.72v5.72h-5.72zm0 8.58h5.72v5.72h-5.72zm8.58-17.16h5.72v5.72h-5.72zm0 8.58h5.72v5.72h-5.72zm0 8.58h5.72v5.72h-5.72zm8.58-17.16h5.72v5.72h-5.72zm0 8.58h5.72v5.72h-5.72zm0 8.58h5.72v5.72h-5.72zm8.58-17.16h5.72v5.72h-5.72zm0 8.58h5.72v5.72h-5.72zm0 8.58h5.72v5.72h-5.72zm8.58-17.16h5.72v5.72h-5.72zm0 8.58h5.72v5.72h-5.72zm0 8.58h5.72v5.72h-5.72zm8.58-17.16h5.72v5.72h-5.72zm0 8.58h5.72v5.72h-5.72zm0 8.58h5.72v5.72h-5.72zm8.58-17.16h5.72v5.72h-5.72zm0 8.58h5.72v5.72h-5.72zm0 8.58h5.72v5.72h-5.72zm8.58-17.16h5.72v5.72h-5.72zm0 8.58h5.72v5.72h-5.72zm0 8.58h5.72v5.72h-5.72zm8.58-17.16h5.72v5.72h-5.72zm0 8.58h5.72v5.72h-5.72zm0 8.58h5.72v5.72h-5.72zm8.58-17.16h5.72v5.72h-5.72zm0 8.58h5.72v5.72h-5.72zm0 8.58h5.72v5.72h-5.72zm8.58-17.16h5.72v5.72h-5.72zm0 8.58h5.72v5.72h-5.72zm0 8.58h5.72v5.72h-5.72zm8.58-17.16h5.72v5.72h-5.72zm0 8.58h5.72v5.72h-5.72zm0 8.58h5.72v5.72h-5.72zm8.58-17.16h5.72v5.72h-5.72zm0 8.58h5.72v5.72h-5.72zm0 8.58h5.72v5.72h-5.72zm8.58-17.16h5.72v5.72h-5.72zm0 8.58h5.72v5.72h-5.72zm0 8.58h5.72v5.72h-5.72zm8.58-17.16h5.72v5.72h-5.72zm0 8.58h5.72v5.72h-5.72zm0 8.58h5.72v5.72h-5.72zm8.58-17.16h5.72v5.72h-5.72zm0 8.58h5.72v5.72h-5.72zm0 8.58h5.72v5.72h-5.72zm8.58-17.16h5.72v5.72h-5.72zm0 8.58h5.72v5.72h-5.72zm0 8.58h5.72v5.72h-5.72zm8.58-17.16h5.72v5.72h-5.72zm0 8.58h5.72v5.72h-5.72zm0 8.58h5.72v5.72h-5.72zm8.58-17.16h5.72v5.72h-5.72zm0 8.58h5.72v5.72h-5.72zm0 8.58h5.72v5.72h-5.72zm8.58-17.16h5.72v5.72h-5.72zm0 8.58h5.72v5.72h-5.72zm0 8.58h5.72v5.72h-5.72zm8.58-17.16h5.72v5.72h-5.72zm0 8.58h5.72v5.72h-5.72zm0 8.58h5.72v5.72h-5.72zm8.58-17.16h5.72v5.72h-5.72zm0 8.58h5.72v5.72h-5.72zm0 8.58h5.72v5.72h-5.72z"></path><g transform="translate(467 173)"><path d="M265.98 7.15v449.02a7.15 7.15 0 0 1-7.15 7.15H7.15A7.15 7.15 0 0 1 0 456.17V7.15A7.15 7.15 0 0 1 7.15 0h251.68a7.15 7.15 0 0 1 7.15 7.15z" fill="#D2D2D2"></path><path fill="#A3A3A3" d="M10.01 8.58h5.72v5.72h-5.72zm0 8.58h5.72v5.72h-5.72zm0 8.58h5.72v5.72h-5.72zm8.58-17.16h5.72v5.72h-5.72zm0 8.58h5.72v5.72h-5.72zm0 8.58h5.72v5.72h-5.72zm8.58-17.16h5.72v5.72h-5.72zm0 8.58h5.72v5.72h-5.72zm0 8.58h5.72v5.72h-5.72zm8.58-17.16h5.72v5.72h-5.72zm0 8.58h5.72v5.72h-5.72zm0 8.58h5.72v5.72h-5.72zm8.58-17.16h5.72v5.72h-5.72zm0 8.58h5.72v5.72h-5.72zm0 8.58h5.72v5.72h-5.72zm8.58-17.16h5.72v5.72h-5.72zm0 8.58h5.72v5.72h-5.72zm0 8.58h5.72v5.72h-5.72zm8.58-17.16h5.72v5.72h-5.72zm0 8.58h5.72v5.72h-5.72zm0 8.58h5.72v5.72h-5.72zm8.58-17.16h5.72v5.72h-5.72zm0 8.58h5.72v5.72h-5.72zm0 8.58h5.72v5.72h-5.72zm8.58-17.16h5.72v5.72h-5.72zm0 8.58h5.72v5.72h-5.72zm0 8.58h5.72v5.72h-5.72zm8.58-17.16h5.72v5.72h-5.72zm0 8.58h5.72v5.72h-5.72zm0 8.58h5.72v5.72h-5.72zm8.58-17.16h5.72v5.72h-5.72zm0 8.58h5.72v5.72h-5.72zm0 8.58h5.72v5.72h-5.72zm8.58-17.16h5.72v5.72h-5.72zm0 8.58h5.72v5.72h-5.72zm0 8.58h5.72v5.72h-5.72zm8.58-17.16h5.72v5.72h-5.72zm0 8.58h5.72v5.72h-5.72zm0 8.58h5.72v5.72h-5.72zm8.58-17.16h5.72v5.72h-5.72zm0 8.58h5.72v5.72h-5.72zm0 8.58h5.72v5.72h-5.72zm8.58-17.16h5.72v5.72h-5.72zm0 8.58h5.72v5.72h-5.72zm0 8.58h5.72v5.72h-5.72zm8.58-17.16h5.72v5.72h-5.72zm0 8.58h5.72v5.72h-5.72zm0 8.58h5.72v5.72h-5.72zm8.58-17.16h5.72v5.72h-5.72zm0 8.58h5.72v5.72h-5.72zm0 8.58h5.72v5.72h-5.72zm8.58-17.16h5.72v5.72h-5.72zm0 8.58h5.72v5.72h-5.72zm0 8.58h5.72v5.72h-5.72zm8.58-17.16h5.72v5.72h-5.72zm0 8.58h5.72v5.72h-5.72zm0 8.58h5.72v5.72h-5.72zm8.58-17.16h5.72v5.72h-5.72zm0 8.58h5.72v5.72h-5.72zm0 8.58h5.72v5.72h-5.72zm8.58-17.16h5.72v5.72h-5.72zm0 8.58h5.72v5.72h-5.72zm0 8.58h5.72v5.72h-5.72zm8.58-17.16h5.72v5.72h-5.72zm0 8.58h5.72v5.72h-5.72zm0 8.58h5.72v5.72h-5.72zm8.58-17.16h5.72v5.72h-5.72zm0 8.58h5.72v5.72h-5.72zm0 8.58h5.72v5.72h-5.72zm8.58-17.16h5.72v5.72h-5.72zm0 8.58h5.72v5.72h-5.72zm0 8.58h5.72v5.72h-5.72zm8.58-17.16h5.72v5.72h-5.72zm0 8.58h5.72v5.72h-5.72zm0 8.58h5.72v5.72h-5.72zm8.58-17.16h5.72v5.72h-5.72zm0 8.58h5.72v5.72h-5.72zm0 8.58h5.72v5.72h-5.72zm8.58-17.16h5.72v5.72h-5.72zm0 8.58h5.72v5.72h-5.72zm0 8.58h5.72v5.72h-5.72zm8.58-17.16h5.72v5.72h-5.72zm0 8.58h5.72v5.72h-5.72zm0 8.58h5.72v5.72h-5.72zm8.58-17.16h5.72v5.72h-5.72zm0 8.58h5.72v5.72h-5.72zm0 8.58h5.72v5.72h-5.72zM10.01 447.59h5.72v5.72h-5.72zm8.58 0h5.72v5.72h-5.72zm8.58 0h5.72v5.72h-5.72zm8.58 0h5.72v5.72h-5.72zm8.58 0h5.72v5.72h-5.72zm8.58 0h5.72v5.72h-5.72zm8.58 0h5.72v5.72h-5.72zm8.58 0h5.72v5.72h-5.72zm8.58 0h5.72v5.72h-5.72zm8.58 0h5.72v5.72h-5.72zm8.58 0h5.72v5.72h-5.72zm8.58 0h5.72v5.72h-5.72zm8.58 0h5.72v5.72h-5.72zm8.58 0h5.72v5.72h-5.72zm8.58 0h5.72v5.72h-5.72zm8.58 0h5.72v5.72h-5.72zm8.58 0h5.72v5.72h-5.72zm8.58 0h5.72v5.72h-5.72zm8.58 0h5.72v5.72h-5.72zm8.58 0h5.72v5.72h-5.72zm8.58 0h5.72v5.72h-5.72zm8.58 0h5.72v5.72h-5.72zm8.58 0h5.72v5.72h-5.72zm8.58 0h5.72v5.72h-5.72zm8.58 0h5.72v5.72h-5.72zm8.58 0h5.72v5.72h-5.72zm8.58 0h5.72v5.72h-5.72zm8.58 0h5.72v5.72h-5.72zm8.58 0h5.72v5.72h-5.72z"></path><rect fill="#FFF" x="10.01" y="41.47" width="245.96" height="397.54" rx="2.86"></rect></g><path d="M492.752 658.808h3.396v-3.087h-3.396v3.087zm-4.013 0h3.396v-3.087h-3.396v3.087zm-4.014 0h3.397v-3.087h-3.397v3.087zm-4.013 0h3.396v-3.087h-3.396v3.087zm-4.013 0h3.396v-3.087h-3.396v3.087zm4.013-3.705h3.396v-3.087h-3.396v3.087zm4.013 0h3.397v-3.087h-3.397v3.087zm4.014 0h3.396v-3.087h-3.396v3.087zm0-3.704h3.396v-3.088h-3.396v3.088zm17.615 5.609c-.741-.496-2.445-.678-3.757-.43-.169-1.236-.857-2.307-2.11-3.275l-.72-.48-.48.72c-.615.928-.922 2.213-.821 3.445.045.433.187 1.209.633 1.89-.445.24-1.326.57-2.488.548h-22.334l-.044.257c-.21 1.238-.205 5.102 2.303 8.072 1.907 2.257 4.767 3.402 8.498 3.402 8.09 0 14.075-3.723 16.877-10.492 1.103.021 3.476.006 4.695-2.323.031-.054.104-.193.317-.634l.117-.242-.686-.458z" fill="#A3A3A3"></path><g fill="#A3A3A3"><path d="M488.282 707.725a.485.485 0 0 0-.56-.37l-.005-.005-2.842.482a5.7 5.7 0 0 0 2.288 2.863l1.1-2.66-.008-.011a.48.48 0 0 0 .027-.299m-.944-2.047a.485.485 0 0 0 .19-.834l.003-.012-2.162-1.933a5.668 5.668 0 0 0-.804 3.588l2.77-.8.003-.01zm1.262-2.182a.485.485 0 0 0 .77-.372l.012-.005.163-2.888a5.67 5.67 0 0 0-3.318 1.589l2.368 1.678.005-.002zm.837 3.031l.797.383.795-.382.198-.859-.55-.688h-.886l-.552.687zm1.653-3.412a.486.486 0 0 0 .771.37l.01.004 2.351-1.668a5.718 5.718 0 0 0-3.297-1.59l.163 2.883.003.001z"></path><path d="M499.918 708.099c-.067.293-.384.472-.71.402l-.009-.002c-.004 0-.007-.002-.01-.003-.046-.01-.103-.02-.143-.03-.188-.051-.324-.126-.494-.191-.364-.13-.665-.24-.96-.282-.149-.012-.225.059-.307.114a8.261 8.261 0 0 0-.236-.042 7.162 7.162 0 0 1-3.172 3.992c.026.063.07.198.091.222-.035.093-.087.182-.042.325.107.277.28.547.488.873.1.151.204.267.295.44.022.04.05.104.072.147.141.303.038.651-.234.782-.274.132-.614-.007-.761-.311-.021-.043-.05-.1-.068-.141-.078-.18-.105-.332-.16-.505-.125-.366-.228-.67-.378-.925-.084-.124-.186-.14-.28-.171-.018-.03-.083-.15-.118-.212a7.112 7.112 0 0 1-5.08-.013l-.124.226c-.093.025-.183.05-.237.116-.2.239-.28.623-.427.988-.054.173-.08.326-.158.505-.018.04-.048.097-.068.14v.001l-.002.001c-.147.304-.486.442-.76.31-.271-.13-.375-.479-.233-.781.02-.044.048-.107.07-.148.091-.173.194-.29.295-.44.209-.326.392-.619.499-.896.026-.092-.013-.218-.05-.31l.1-.24a7.162 7.162 0 0 1-3.174-3.964l-.24.041c-.064-.036-.193-.121-.316-.112-.294.043-.595.152-.96.283-.169.065-.305.139-.493.189-.04.01-.097.022-.143.032l-.01.003-.008.002c-.327.07-.644-.109-.71-.403-.068-.293.14-.592.465-.67l.008-.002.005-.002c.046-.01.105-.026.147-.034.191-.036.347-.027.528-.042.385-.04.703-.073.987-.162.09-.037.175-.16.236-.239l.23-.067a7.122 7.122 0 0 1 1.124-4.965l-.177-.159c-.011-.068-.026-.227-.11-.317-.217-.204-.49-.372-.819-.575-.156-.092-.3-.152-.456-.267-.034-.025-.078-.063-.114-.092l-.009-.006c-.264-.21-.324-.574-.135-.811a.53.53 0 0 1 .439-.194.655.655 0 0 1 .383.144c.038.03.089.069.123.098.147.127.237.252.362.384.271.276.496.505.742.67.13.076.229.046.327.032.031.024.138.1.199.142a7.08 7.08 0 0 1 4.59-2.208l.014-.233a.6.6 0 0 0 .178-.284c.024-.296-.014-.615-.06-.999-.026-.18-.069-.328-.076-.523-.001-.04 0-.095.001-.141l-.001-.015c0-.338.246-.612.55-.612.304 0 .55.274.55.612 0 .047.004.112.002.156-.007.195-.05.344-.075.523-.047.384-.087.703-.063.999.022.148.109.206.18.275.002.04.008.172.013.246a7.213 7.213 0 0 1 4.569 2.208l.21-.15c.07.005.227.026.333-.036.247-.166.471-.396.742-.671.125-.132.216-.258.364-.385.034-.029.085-.068.122-.097.264-.211.631-.189.82.049.19.238.13.6-.134.811-.038.03-.086.072-.121.098-.157.116-.302.175-.458.267-.329.203-.602.372-.818.575-.103.11-.095.213-.104.312l-.195.175c.474.706.83 1.508 1.031 2.384.2.868.23 1.736.116 2.57l.222.064c.04.057.122.194.237.239.284.089.602.122.987.162.18.015.337.006.528.042l.16.038c.324.078.533.377.466.67m3.498.12l-2.272-9.869a1.747 1.747 0 0 0-.952-1.183l-9.196-4.391a1.771 1.771 0 0 0-1.527 0l-9.195 4.394c-.482.23-.832.665-.951 1.183l-2.269 9.869a1.732 1.732 0 0 0 .339 1.476l6.364 7.913c.334.415.84.656 1.375.656l10.207-.002c.535 0 1.04-.24 1.375-.655l6.362-7.915c.334-.415.459-.958.34-1.476"></path><path d="M495.084 702.899l-2.15 1.925.002.006a.485.485 0 0 0 .19.834l.003.011 2.784.802a5.73 5.73 0 0 0-.12-1.845 5.738 5.738 0 0 0-.709-1.732m-4.423 5.869a.482.482 0 0 0-.444-.256.486.486 0 0 0-.41.256h-.003l-1.397 2.526a5.691 5.691 0 0 0 3.665.004l-1.4-2.53h-.01zm2.081-1.425a.483.483 0 0 0-.298.04.486.486 0 0 0-.235.63l-.004.004 1.113 2.687a5.676 5.676 0 0 0 2.294-2.882l-2.866-.485-.004.006z"></path></g><path d="M379.98 646.917v27.17a7.15 7.15 0 0 1-7.15 7.15H121.15a7.15 7.15 0 0 1-7.15-7.15v-27.17a7.15 7.15 0 0 1 7.15-7.15h251.68a7.15 7.15 0 0 1 7.15 7.15z" fill="#D2D2D2"></path><path fill="#A3A3A3" d="M158.33 648.347h5.72v5.72h-5.72zm0 8.58h5.72v5.72h-5.72zm0 8.58h5.72v5.72h-5.72zm8.58-17.16h5.72v5.72h-5.72zm0 8.58h5.72v5.72h-5.72zm0 8.58h5.72v5.72h-5.72zm8.58-17.16h5.72v5.72h-5.72zm0 8.58h5.72v5.72h-5.72zm0 8.58h5.72v5.72h-5.72zm8.58-17.16h5.72v5.72h-5.72zm0 8.58h5.72v5.72h-5.72zm0 8.58h5.72v5.72h-5.72zm8.58-17.16h5.72v5.72h-5.72zm0 8.58h5.72v5.72h-5.72zm0 8.58h5.72v5.72h-5.72zm8.58-17.16h5.72v5.72h-5.72zm0 8.58h5.72v5.72h-5.72zm0 8.58h5.72v5.72h-5.72zm8.58-17.16h5.72v5.72h-5.72zm0 8.58h5.72v5.72h-5.72zm0 8.58h5.72v5.72h-5.72zm8.58-17.16h5.72v5.72h-5.72zm0 8.58h5.72v5.72h-5.72zm0 8.58h5.72v5.72h-5.72zm8.58-17.16h5.72v5.72h-5.72zm0 8.58h5.72v5.72h-5.72zm0 8.58h5.72v5.72h-5.72zm8.58-17.16h5.72v5.72h-5.72zm0 8.58h5.72v5.72h-5.72zm0 8.58h5.72v5.72h-5.72zm8.58-17.16h5.72v5.72h-5.72zm0 8.58h5.72v5.72h-5.72zm0 8.58h5.72v5.72h-5.72zm8.58-17.16h5.72v5.72h-5.72zm0 8.58h5.72v5.72h-5.72zm0 8.58h5.72v5.72h-5.72zm8.58-17.16h5.72v5.72h-5.72zm0 8.58h5.72v5.72h-5.72zm0 8.58h5.72v5.72h-5.72zm8.58-17.16h5.72v5.72h-5.72zm0 8.58h5.72v5.72h-5.72zm0 8.58h5.72v5.72h-5.72zm8.58-17.16h5.72v5.72h-5.72zm0 8.58h5.72v5.72h-5.72zm0 8.58h5.72v5.72h-5.72zm8.58-17.16h5.72v5.72h-5.72zm0 8.58h5.72v5.72h-5.72zm0 8.58h5.72v5.72h-5.72zm8.58-17.16h5.72v5.72h-5.72zm0 8.58h5.72v5.72h-5.72zm0 8.58h5.72v5.72h-5.72zm8.58-17.16h5.72v5.72h-5.72zm0 8.58h5.72v5.72h-5.72zm0 8.58h5.72v5.72h-5.72zm8.58-17.16h5.72v5.72h-5.72zm0 8.58h5.72v5.72h-5.72zm0 8.58h5.72v5.72h-5.72zm8.58-17.16h5.72v5.72h-5.72zm0 8.58h5.72v5.72h-5.72zm0 8.58h5.72v5.72h-5.72zm8.58-17.16h5.72v5.72h-5.72zm0 8.58h5.72v5.72h-5.72zm0 8.58h5.72v5.72h-5.72zm8.58-17.16h5.72v5.72h-5.72zm0 8.58h5.72v5.72h-5.72zm0 8.58h5.72v5.72h-5.72zm8.58-17.16h5.72v5.72h-5.72zm0 8.58h5.72v5.72h-5.72zm0 8.58h5.72v5.72h-5.72zm8.58-17.16h5.72v5.72h-5.72zm0 8.58h5.72v5.72h-5.72zm0 8.58h5.72v5.72h-5.72zm8.58-17.16h5.72v5.72h-5.72zm0 8.58h5.72v5.72h-5.72zm0 8.58h5.72v5.72h-5.72z"></path><path d="M379.98 692.595v27.17a7.15 7.15 0 0 1-7.15 7.15H121.15a7.15 7.15 0 0 1-7.15-7.15v-27.17a7.15 7.15 0 0 1 7.15-7.15h251.68a7.15 7.15 0 0 1 7.15 7.15z" fill="#D2D2D2"></path><path fill="#A3A3A3" d="M158.33 694.025h5.72v5.72h-5.72zm0 8.58h5.72v5.72h-5.72zm0 8.58h5.72v5.72h-5.72zm8.58-17.16h5.72v5.72h-5.72zm0 8.58h5.72v5.72h-5.72zm0 8.58h5.72v5.72h-5.72zm8.58-17.16h5.72v5.72h-5.72zm0 8.58h5.72v5.72h-5.72zm0 8.58h5.72v5.72h-5.72zm8.58-17.16h5.72v5.72h-5.72zm0 8.58h5.72v5.72h-5.72zm0 8.58h5.72v5.72h-5.72zm8.58-17.16h5.72v5.72h-5.72zm0 8.58h5.72v5.72h-5.72zm0 8.58h5.72v5.72h-5.72zm8.58-17.16h5.72v5.72h-5.72zm0 8.58h5.72v5.72h-5.72zm0 8.58h5.72v5.72h-5.72zm8.58-17.16h5.72v5.72h-5.72zm0 8.58h5.72v5.72h-5.72zm0 8.58h5.72v5.72h-5.72zm8.58-17.16h5.72v5.72h-5.72zm0 8.58h5.72v5.72h-5.72zm0 8.58h5.72v5.72h-5.72zm8.58-17.16h5.72v5.72h-5.72zm0 8.58h5.72v5.72h-5.72zm0 8.58h5.72v5.72h-5.72zm8.58-17.16h5.72v5.72h-5.72zm0 8.58h5.72v5.72h-5.72zm0 8.58h5.72v5.72h-5.72zm8.58-17.16h5.72v5.72h-5.72zm0 8.58h5.72v5.72h-5.72zm0 8.58h5.72v5.72h-5.72zm8.58-17.16h5.72v5.72h-5.72zm0 8.58h5.72v5.72h-5.72zm0 8.58h5.72v5.72h-5.72zm8.58-17.16h5.72v5.72h-5.72zm0 8.58h5.72v5.72h-5.72zm0 8.58h5.72v5.72h-5.72zm8.58-17.16h5.72v5.72h-5.72zm0 8.58h5.72v5.72h-5.72zm0 8.58h5.72v5.72h-5.72zm8.58-17.16h5.72v5.72h-5.72zm0 8.58h5.72v5.72h-5.72zm0 8.58h5.72v5.72h-5.72zm8.58-17.16h5.72v5.72h-5.72zm0 8.58h5.72v5.72h-5.72zm0 8.58h5.72v5.72h-5.72zm8.58-17.16h5.72v5.72h-5.72zm0 8.58h5.72v5.72h-5.72zm0 8.58h5.72v5.72h-5.72zm8.58-17.16h5.72v5.72h-5.72zm0 8.58h5.72v5.72h-5.72zm0 8.58h5.72v5.72h-5.72zm8.58-17.16h5.72v5.72h-5.72zm0 8.58h5.72v5.72h-5.72zm0 8.58h5.72v5.72h-5.72zm8.58-17.16h5.72v5.72h-5.72zm0 8.58h5.72v5.72h-5.72zm0 8.58h5.72v5.72h-5.72zm8.58-17.16h5.72v5.72h-5.72zm0 8.58h5.72v5.72h-5.72zm0 8.58h5.72v5.72h-5.72zm8.58-17.16h5.72v5.72h-5.72zm0 8.58h5.72v5.72h-5.72zm0 8.58h5.72v5.72h-5.72zm8.58-17.16h5.72v5.72h-5.72zm0 8.58h5.72v5.72h-5.72zm0 8.58h5.72v5.72h-5.72zm8.58-17.16h5.72v5.72h-5.72zm0 8.58h5.72v5.72h-5.72zm0 8.58h5.72v5.72h-5.72zm8.58-17.16h5.72v5.72h-5.72zm0 8.58h5.72v5.72h-5.72zm0 8.58h5.72v5.72h-5.72z"></path><g transform="translate(114 173)"><path d="M265.98 7.15v449.02a7.15 7.15 0 0 1-7.15 7.15H7.15A7.15 7.15 0 0 1 0 456.17V7.15A7.15 7.15 0 0 1 7.15 0h251.68a7.15 7.15 0 0 1 7.15 7.15z" fill="#D2D2D2"></path><path fill="#A3A3A3" d="M10.01 8.58h5.72v5.72h-5.72zm0 8.58h5.72v5.72h-5.72zm0 8.58h5.72v5.72h-5.72zm8.58-17.16h5.72v5.72h-5.72zm0 8.58h5.72v5.72h-5.72zm0 8.58h5.72v5.72h-5.72zm8.58-17.16h5.72v5.72h-5.72zm0 8.58h5.72v5.72h-5.72zm0 8.58h5.72v5.72h-5.72zm8.58-17.16h5.72v5.72h-5.72zm0 8.58h5.72v5.72h-5.72zm0 8.58h5.72v5.72h-5.72zm8.58-17.16h5.72v5.72h-5.72zm0 8.58h5.72v5.72h-5.72zm0 8.58h5.72v5.72h-5.72zm8.58-17.16h5.72v5.72h-5.72zm0 8.58h5.72v5.72h-5.72zm0 8.58h5.72v5.72h-5.72zm8.58-17.16h5.72v5.72h-5.72zm0 8.58h5.72v5.72h-5.72zm0 8.58h5.72v5.72h-5.72zm8.58-17.16h5.72v5.72h-5.72zm0 8.58h5.72v5.72h-5.72zm0 8.58h5.72v5.72h-5.72zm8.58-17.16h5.72v5.72h-5.72zm0 8.58h5.72v5.72h-5.72zm0 8.58h5.72v5.72h-5.72zm8.58-17.16h5.72v5.72h-5.72zm0 8.58h5.72v5.72h-5.72zm0 8.58h5.72v5.72h-5.72zm8.58-17.16h5.72v5.72h-5.72zm0 8.58h5.72v5.72h-5.72zm0 8.58h5.72v5.72h-5.72zm8.58-17.16h5.72v5.72h-5.72zm0 8.58h5.72v5.72h-5.72zm0 8.58h5.72v5.72h-5.72zm8.58-17.16h5.72v5.72h-5.72zm0 8.58h5.72v5.72h-5.72zm0 8.58h5.72v5.72h-5.72zm8.58-17.16h5.72v5.72h-5.72zm0 8.58h5.72v5.72h-5.72zm0 8.58h5.72v5.72h-5.72zm8.58-17.16h5.72v5.72h-5.72zm0 8.58h5.72v5.72h-5.72zm0 8.58h5.72v5.72h-5.72zm8.58-17.16h5.72v5.72h-5.72zm0 8.58h5.72v5.72h-5.72zm0 8.58h5.72v5.72h-5.72zm8.58-17.16h5.72v5.72h-5.72zm0 8.58h5.72v5.72h-5.72zm0 8.58h5.72v5.72h-5.72zm8.58-17.16h5.72v5.72h-5.72zm0 8.58h5.72v5.72h-5.72zm0 8.58h5.72v5.72h-5.72zm8.58-17.16h5.72v5.72h-5.72zm0 8.58h5.72v5.72h-5.72zm0 8.58h5.72v5.72h-5.72zm8.58-17.16h5.72v5.72h-5.72zm0 8.58h5.72v5.72h-5.72zm0 8.58h5.72v5.72h-5.72zm8.58-17.16h5.72v5.72h-5.72zm0 8.58h5.72v5.72h-5.72zm0 8.58h5.72v5.72h-5.72zm8.58-17.16h5.72v5.72h-5.72zm0 8.58h5.72v5.72h-5.72zm0 8.58h5.72v5.72h-5.72zm8.58-17.16h5.72v5.72h-5.72zm0 8.58h5.72v5.72h-5.72zm0 8.58h5.72v5.72h-5.72zm8.58-17.16h5.72v5.72h-5.72zm0 8.58h5.72v5.72h-5.72zm0 8.58h5.72v5.72h-5.72zm8.58-17.16h5.72v5.72h-5.72zm0 8.58h5.72v5.72h-5.72zm0 8.58h5.72v5.72h-5.72zm8.58-17.16h5.72v5.72h-5.72zm0 8.58h5.72v5.72h-5.72zm0 8.58h5.72v5.72h-5.72zm8.58-17.16h5.72v5.72h-5.72zm0 8.58h5.72v5.72h-5.72zm0 8.58h5.72v5.72h-5.72zm8.58-17.16h5.72v5.72h-5.72zm0 8.58h5.72v5.72h-5.72zm0 8.58h5.72v5.72h-5.72zm8.58-17.16h5.72v5.72h-5.72zm0 8.58h5.72v5.72h-5.72zm0 8.58h5.72v5.72h-5.72zM10.01 447.59h5.72v5.72h-5.72zm8.58 0h5.72v5.72h-5.72zm8.58 0h5.72v5.72h-5.72zm8.58 0h5.72v5.72h-5.72zm8.58 0h5.72v5.72h-5.72zm8.58 0h5.72v5.72h-5.72zm8.58 0h5.72v5.72h-5.72zm8.58 0h5.72v5.72h-5.72zm8.58 0h5.72v5.72h-5.72zm8.58 0h5.72v5.72h-5.72zm8.58 0h5.72v5.72h-5.72zm8.58 0h5.72v5.72h-5.72zm8.58 0h5.72v5.72h-5.72zm8.58 0h5.72v5.72h-5.72zm8.58 0h5.72v5.72h-5.72zm8.58 0h5.72v5.72h-5.72zm8.58 0h5.72v5.72h-5.72zm8.58 0h5.72v5.72h-5.72zm8.58 0h5.72v5.72h-5.72zm8.58 0h5.72v5.72h-5.72zm8.58 0h5.72v5.72h-5.72zm8.58 0h5.72v5.72h-5.72zm8.58 0h5.72v5.72h-5.72zm8.58 0h5.72v5.72h-5.72zm8.58 0h5.72v5.72h-5.72zm8.58 0h5.72v5.72h-5.72zm8.58 0h5.72v5.72h-5.72zm8.58 0h5.72v5.72h-5.72zm8.58 0h5.72v5.72h-5.72z"></path><rect fill="#FFF" x="10.01" y="41.47" width="245.96" height="397.54" rx="2.86"></rect></g><path d="M139.752 658.808h3.396v-3.087h-3.396v3.087zm-4.013 0h3.396v-3.087h-3.396v3.087zm-4.014 0h3.397v-3.087h-3.397v3.087zm-4.013 0h3.396v-3.087h-3.396v3.087zm-4.013 0h3.396v-3.087h-3.396v3.087zm4.013-3.705h3.396v-3.087h-3.396v3.087zm4.013 0h3.397v-3.087h-3.397v3.087zm4.014 0h3.396v-3.087h-3.396v3.087zm0-3.704h3.396v-3.088h-3.396v3.088zm17.615 5.609c-.741-.496-2.445-.678-3.757-.43-.169-1.236-.857-2.307-2.11-3.275l-.72-.48-.48.72c-.615.928-.922 2.213-.821 3.445.045.433.187 1.209.633 1.89-.445.24-1.326.57-2.488.548h-22.334l-.044.257c-.21 1.238-.205 5.102 2.303 8.072 1.907 2.257 4.767 3.402 8.498 3.402 8.09 0 14.075-3.723 16.877-10.492 1.103.021 3.476.006 4.695-2.323.031-.054.104-.193.317-.634l.117-.242-.686-.458z" fill="#A3A3A3"></path><g fill="#A3A3A3"><path d="M135.282 707.725a.485.485 0 0 0-.56-.37l-.005-.005-2.842.482a5.7 5.7 0 0 0 2.288 2.863l1.1-2.66-.008-.011a.48.48 0 0 0 .027-.299m-.944-2.047a.485.485 0 0 0 .19-.834l.003-.012-2.162-1.933a5.668 5.668 0 0 0-.804 3.588l2.77-.8.003-.01zm1.262-2.182a.485.485 0 0 0 .77-.372l.012-.005.163-2.888a5.67 5.67 0 0 0-3.318 1.589l2.368 1.678.005-.002zm.837 3.031l.797.383.795-.382.198-.859-.55-.688h-.886l-.552.687zm1.653-3.412a.486.486 0 0 0 .771.37l.01.004 2.351-1.668a5.718 5.718 0 0 0-3.297-1.59l.163 2.883.003.001z"></path><path d="M146.918 708.099c-.067.293-.384.472-.71.402l-.009-.002c-.004 0-.007-.002-.01-.003-.046-.01-.103-.02-.143-.03-.188-.051-.324-.126-.494-.191-.364-.13-.665-.24-.96-.282-.149-.012-.225.059-.307.114a8.261 8.261 0 0 0-.236-.042 7.162 7.162 0 0 1-3.172 3.992c.026.063.07.198.091.222-.035.093-.087.182-.042.325.107.277.28.547.488.873.1.151.204.267.295.44.022.04.05.104.072.147.141.303.038.651-.234.782-.274.132-.614-.007-.761-.311-.021-.043-.05-.1-.068-.141-.078-.18-.105-.332-.16-.505-.125-.366-.228-.67-.378-.925-.084-.124-.186-.14-.28-.171-.018-.03-.083-.15-.118-.212a7.112 7.112 0 0 1-5.08-.013l-.124.226c-.093.025-.183.05-.237.116-.2.239-.28.623-.427.988-.054.173-.08.326-.158.505-.018.04-.048.097-.068.14v.001l-.002.001c-.147.304-.486.442-.76.31-.271-.13-.375-.479-.233-.781.02-.044.048-.107.07-.148.091-.173.194-.29.295-.44.209-.326.392-.619.499-.896.026-.092-.013-.218-.05-.31l.1-.24a7.162 7.162 0 0 1-3.174-3.964l-.24.041c-.064-.036-.193-.121-.316-.112-.294.043-.595.152-.96.283-.169.065-.305.139-.493.189-.04.01-.097.022-.143.032l-.01.003-.008.002c-.327.07-.644-.109-.71-.403-.068-.293.14-.592.465-.67l.008-.002.005-.002c.046-.01.105-.026.147-.034.191-.036.347-.027.528-.042.385-.04.703-.073.987-.162.09-.037.175-.16.236-.239l.23-.067a7.122 7.122 0 0 1 1.124-4.965l-.177-.159c-.011-.068-.026-.227-.11-.317-.217-.204-.49-.372-.819-.575-.156-.092-.3-.152-.456-.267-.034-.025-.078-.063-.114-.092l-.009-.006c-.264-.21-.324-.574-.135-.811a.53.53 0 0 1 .439-.194.655.655 0 0 1 .383.144c.038.03.089.069.123.098.147.127.237.252.362.384.271.276.496.505.742.67.13.076.229.046.327.032.031.024.138.1.199.142a7.08 7.08 0 0 1 4.59-2.208l.014-.233a.6.6 0 0 0 .178-.284c.024-.296-.014-.615-.06-.999-.026-.18-.069-.328-.076-.523-.001-.04 0-.095.001-.141l-.001-.015c0-.338.246-.612.55-.612.304 0 .55.274.55.612 0 .047.004.112.002.156-.007.195-.05.344-.075.523-.047.384-.087.703-.063.999.022.148.109.206.18.275.002.04.008.172.013.246a7.213 7.213 0 0 1 4.569 2.208l.21-.15c.07.005.227.026.333-.036.247-.166.471-.396.742-.671.125-.132.216-.258.364-.385.034-.029.085-.068.122-.097.264-.211.631-.189.82.049.19.238.13.6-.134.811-.038.03-.086.072-.121.098-.157.116-.302.175-.458.267-.329.203-.602.372-.818.575-.103.11-.095.213-.104.312l-.195.175c.474.706.83 1.508 1.031 2.384.2.868.23 1.736.116 2.57l.222.064c.04.057.122.194.237.239.284.089.602.122.987.162.18.015.337.006.528.042l.16.038c.324.078.533.377.466.67m3.498.12l-2.272-9.869a1.747 1.747 0 0 0-.952-1.183l-9.196-4.391a1.771 1.771 0 0 0-1.527 0l-9.195 4.394c-.482.23-.832.665-.951 1.183l-2.269 9.869a1.732 1.732 0 0 0 .339 1.476l6.364 7.913c.334.415.84.656 1.375.656l10.207-.002c.535 0 1.04-.24 1.375-.655l6.362-7.915c.334-.415.459-.958.34-1.476"></path><path d="M142.084 702.899l-2.15 1.925.002.006a.485.485 0 0 0 .19.834l.003.011 2.784.802a5.73 5.73 0 0 0-.12-1.845 5.738 5.738 0 0 0-.709-1.732m-4.423 5.869a.482.482 0 0 0-.444-.256.486.486 0 0 0-.41.256h-.003l-1.397 2.526a5.691 5.691 0 0 0 3.665.004l-1.4-2.53h-.01zm2.081-1.425a.483.483 0 0 0-.298.04.486.486 0 0 0-.235.63l-.004.004 1.113 2.687a5.676 5.676 0 0 0 2.294-2.882l-2.866-.485-.004.006z"></path></g><path d="M714 411.434c0 1.158-.717 2.096-1.602 2.096H486.602c-.885 0-1.602-.938-1.602-2.096V235.15a7.15 7.15 0 0 1 7.15-7.15h214.7a7.15 7.15 0 0 1 7.15 7.15v176.284z" fill="#4B91FF"></path><path d="M624.56 356.371c.648-5.124.454-5.876 4.47-5.046l1.019.085c3.087.134 7.126-.472 9.499-1.52 5.108-2.252 8.137-6.014 3.1-5.026-11.489 2.253-12.279-1.445-12.279-1.445 12.132-17.11 17.203-38.83 12.826-44.146-11.94-14.502-32.607-7.644-32.953-7.466l-.11.019c-2.27-.448-4.81-.715-7.664-.76-5.2-.08-9.144 1.297-12.137 3.454 0 0-36.87-14.438-35.154 18.158.365 6.934 10.457 52.47 22.493 38.716 4.399-5.03 8.65-9.282 8.65-9.282a11.61 11.61 0 0 0 7.29 1.769l.205-.166c-.065.624-.036 1.235.082 1.958-3.1 3.293-2.19 3.872-8.389 5.084-6.271 1.23-2.587 3.417-.182 3.988 2.917.694 9.664 1.676 14.224-4.39l-.182.691c1.216.925 1.134 6.649 1.307 10.738.172 4.09.46 7.905 1.337 10.155.877 2.25 1.912 8.045 10.059 6.385 6.81-1.387 12.015-3.383 12.49-21.953" stroke="#000" stroke-width="10.695" fill="#000"></path><path d="M642.649 344.864c-11.49 2.253-12.28-1.445-12.28-1.445 12.132-17.111 17.203-38.832 12.827-44.147-11.941-14.501-32.608-7.643-32.953-7.465l-.11.019c-2.27-.448-4.811-.715-7.667-.76-5.199-.08-9.142 1.296-12.135 3.453 0 0-36.87-14.438-35.155 18.159.365 6.934 10.456 52.47 22.493 38.716 4.4-5.03 8.65-9.282 8.65-9.282 2.111 1.333 4.639 2.013 7.288 1.769l.206-.166c-.064.624-.034 1.235.083 1.958-3.101 3.293-2.19 3.872-8.389 5.084-6.272 1.23-2.587 3.417-.181 3.988 2.916.694 9.663 1.676 14.222-4.39l-.181.691c1.215.925 2.068 6.017 1.925 10.633-.143 4.616-.239 7.785.719 10.26.957 2.475 1.911 8.045 10.06 6.385 6.809-1.387 10.337-4.982 10.828-10.977.348-4.262 1.137-3.632 1.187-7.443l.632-1.804c.729-5.778.116-7.642 4.31-6.775l1.02.085c3.088.133 7.129-.472 9.5-1.52 5.107-2.253 8.136-6.014 3.1-5.026h.001z" fill="#336791"></path><path d="M600.042 348.176c-.316 10.751.08 21.577 1.186 24.209 1.107 2.63 3.477 7.748 11.627 6.089 6.808-1.388 9.285-4.073 10.36-10 .792-4.36 2.318-16.469 2.514-18.95m-35.454-55.245s-36.897-14.334-35.18 18.262c.364 6.935 10.456 52.472 22.493 38.718 4.398-5.03 8.376-8.975 8.376-8.975m24.239-50.621c-1.277.38 20.523-7.575 32.912 7.473 4.377 5.316-.695 27.036-12.826 44.148" stroke="#FFF" stroke-width="3.565" stroke-linecap="round" stroke-linejoin="round"></path><path d="M630.289 343.284s.79 3.699 12.28 1.444c5.035-.988 2.005 2.774-3.1 5.028-4.191 1.849-13.586 2.322-13.74-.232-.394-6.591 4.945-4.589 4.56-6.24-.349-1.487-2.736-2.947-4.316-6.587-1.379-3.177-18.912-27.543 4.862-23.924.871-.171-6.2-21.496-28.45-21.843-22.245-.346-21.515 26.004-21.515 26.004" stroke="#FFF" stroke-width="3.565" stroke-linecap="round" stroke-linejoin="bevel"></path><path d="M593.815 345.538c-3.102 3.293-2.19 3.871-8.389 5.084-6.272 1.23-2.587 3.416-.182 3.988 2.917.694 9.664 1.676 14.223-4.392 1.389-1.848-.008-4.796-1.915-5.547-.922-.363-2.154-.818-3.737.867z" stroke="#FFF" stroke-width="3.565" stroke-linecap="round" stroke-linejoin="round"></path><path d="M593.612 345.481c-.313-1.937.669-4.24 1.721-6.936 1.581-4.044 5.23-8.09 2.31-20.918-2.174-9.56-16.764-1.99-16.773-.693-.01 1.296.66 6.57-.244 12.712-1.18 8.015 5.365 14.793 12.9 14.1" stroke="#FFF" stroke-width="3.565" stroke-linecap="round" stroke-linejoin="round"></path><path d="M590.14 316.74c-.066.442.853 1.624 2.05 1.782 1.196.158 2.22-.765 2.284-1.207.065-.443-.852-.93-2.05-1.09-1.197-.158-2.22.073-2.284.515h0z" stroke="#FFF" stroke-width="1.188" fill="#FFF"></path><path d="M626.555 315.837c.066.443-.852 1.624-2.05 1.782-1.196.158-2.22-.765-2.285-1.207-.063-.443.855-.93 2.051-1.089 1.197-.158 2.22.072 2.285.514h0z" stroke="#FFF" stroke-width=".715" fill="#FFF"></path><path d="M630.835 312.773c.198 3.473-.786 5.838-.91 9.535-.184 5.373 2.695 11.524-1.643 17.682" stroke="#FFF" stroke-width="3.565" stroke-linecap="round" stroke-linejoin="round"></path><path d="M492.15 228h214.7a7.15 7.15 0 0 1 7.15 7.15v25.74H485v-25.74a7.15 7.15 0 0 1 7.15-7.15z" fill="#CCC"></path><path d="M509.31 245.875a6.434 6.434 0 0 1-6.435 6.435 6.434 6.434 0 0 1-6.435-6.435 6.434 6.434 0 0 1 6.435-6.435 6.434 6.434 0 0 1 6.435 6.435" fill="#E74C3C"></path><path d="M532.19 245.875a6.434 6.434 0 0 1-6.435 6.435 6.434 6.434 0 0 1-6.435-6.435 6.434 6.434 0 0 1 6.435-6.435 6.434 6.434 0 0 1 6.435 6.435" fill="#F1C40F"></path><path d="M553.64 245.875a6.434 6.434 0 0 1-6.435 6.435 6.434 6.434 0 0 1-6.435-6.435 6.434 6.434 0 0 1 6.435-6.435 6.434 6.434 0 0 1 6.435 6.435" fill="#2ECC71"></path><g transform="translate(714 314)" fill-rule="nonzero"><path fill="#9EEBCF" d="M0 6h204v3H0z"></path><circle stroke="#9EEBCF" stroke-width="3" fill="#FFF" cx=".5" cy="7.5" r="6.5"></circle><path fill="#9EEBCF" d="M206 7.5l-8 5.5V2z"></path></g><path d="M957 575c18.8 0 34 15.2 34 34s-15.2 34-34 34-34-15.2-34-34 15.2-34 34-34zm1.5 45.2l19.6-19.6-6.6-6.6-19.6 19.6-9.3-9.3-6.6 6.6 9.3 9.3 6.6 6.6 6.6-6.6z" fill="#00C176" fill-rule="nonzero"></path></g></svg>