<svg viewBox="0 0 1200 900" xmlns="http://www.w3.org/2000/svg"><g fill="none" fill-rule="evenodd"><g fill-rule="nonzero"><path d="M1002 160v20H199v-20a5 5 0 0 1 5-5h793a5 5 0 0 1 5 5z" fill="#D2D2D2"/><path fill="#A3A3A3" d="M206 161h4v4h-4zm6 0h4v4h-4zm6 0h4v4h-4z"/></g><path d="M385 614v19a5 5 0 0 1-5 5H204a5 5 0 0 1-5-5v-19a5 5 0 0 1 5-5h176a5 5 0 0 1 5 5z" fill="#D2D2D2"/><path fill="#A3A3A3" d="M230 615h4v4h-4zm0 6h4v4h-4zm0 6h4v4h-4zm6-12h4v4h-4zm0 6h4v4h-4zm0 6h4v4h-4zm6-12h4v4h-4zm0 6h4v4h-4zm0 6h4v4h-4zm6-12h4v4h-4zm0 6h4v4h-4zm0 6h4v4h-4zm6-12h4v4h-4zm0 6h4v4h-4zm0 6h4v4h-4zm6-12h4v4h-4zm0 6h4v4h-4zm0 6h4v4h-4zm6-12h4v4h-4zm0 6h4v4h-4zm0 6h4v4h-4zm6-12h4v4h-4zm0 6h4v4h-4zm0 6h4v4h-4zm6-12h4v4h-4zm0 6h4v4h-4zm0 6h4v4h-4zm6-12h4v4h-4zm0 6h4v4h-4zm0 6h4v4h-4zm6-12h4v4h-4zm0 6h4v4h-4zm0 6h4v4h-4zm6-12h4v4h-4zm0 6h4v4h-4zm0 6h4v4h-4zm6-12h4v4h-4zm0 6h4v4h-4zm0 6h4v4h-4zm6-12h4v4h-4zm0 6h4v4h-4zm0 6h4v4h-4zm6-12h4v4h-4zm0 6h4v4h-4zm0 6h4v4h-4zm6-12h4v4h-4zm0 6h4v4h-4zm0 6h4v4h-4zm6-12h4v4h-4zm0 6h4v4h-4zm0 6h4v4h-4zm6-12h4v4h-4zm0 6h4v4h-4zm0 6h4v4h-4zm6-12h4v4h-4zm0 6h4v4h-4zm0 6h4v4h-4zm6-12h4v4h-4zm0 6h4v4h-4zm0 6h4v4h-4zm6-12h4v4h-4zm0 6h4v4h-4zm0 6h4v4h-4zm6-12h4v4h-4zm0 6h4v4h-4zm0 6h4v4h-4zm6-12h4v4h-4zm0 6h4v4h-4zm0 6h4v4h-4zm6-12h4v4h-4zm0 6h4v4h-4zm0 6h4v4h-4zm6-12h4v4h-4zm0 6h4v4h-4zm0 6h4v4h-4z"/><path d="M385 646v19a5 5 0 0 1-5 5H204a5 5 0 0 1-5-5v-19a5 5 0 0 1 5-5h176a5 5 0 0 1 5 5z" fill="#D2D2D2"/><path fill="#A3A3A3" d="M230 647h4v4h-4zm0 6h4v4h-4zm0 6h4v4h-4zm6-12h4v4h-4zm0 6h4v4h-4zm0 6h4v4h-4zm6-12h4v4h-4zm0 6h4v4h-4zm0 6h4v4h-4zm6-12h4v4h-4zm0 6h4v4h-4zm0 6h4v4h-4zm6-12h4v4h-4zm0 6h4v4h-4zm0 6h4v4h-4zm6-12h4v4h-4zm0 6h4v4h-4zm0 6h4v4h-4zm6-12h4v4h-4zm0 6h4v4h-4zm0 6h4v4h-4zm6-12h4v4h-4zm0 6h4v4h-4zm0 6h4v4h-4zm6-12h4v4h-4zm0 6h4v4h-4zm0 6h4v4h-4zm6-12h4v4h-4zm0 6h4v4h-4zm0 6h4v4h-4zm6-12h4v4h-4zm0 6h4v4h-4zm0 6h4v4h-4zm6-12h4v4h-4zm0 6h4v4h-4zm0 6h4v4h-4zm6-12h4v4h-4zm0 6h4v4h-4zm0 6h4v4h-4zm6-12h4v4h-4zm0 6h4v4h-4zm0 6h4v4h-4zm6-12h4v4h-4zm0 6h4v4h-4zm0 6h4v4h-4zm6-12h4v4h-4zm0 6h4v4h-4zm0 6h4v4h-4zm6-12h4v4h-4zm0 6h4v4h-4zm0 6h4v4h-4zm6-12h4v4h-4zm0 6h4v4h-4zm0 6h4v4h-4zm6-12h4v4h-4zm0 6h4v4h-4zm0 6h4v4h-4zm6-12h4v4h-4zm0 6h4v4h-4zm0 6h4v4h-4zm6-12h4v4h-4zm0 6h4v4h-4zm0 6h4v4h-4zm6-12h4v4h-4zm0 6h4v4h-4zm0 6h4v4h-4zm6-12h4v4h-4zm0 6h4v4h-4zm0 6h4v4h-4zm6-12h4v4h-4zm0 6h4v4h-4zm0 6h4v4h-4zm6-12h4v4h-4zm0 6h4v4h-4zm0 6h4v4h-4z"/><g transform="translate(199 282)"><path d="M186 5v314a5 5 0 0 1-5 5H5a5 5 0 0 1-5-5V5a5 5 0 0 1 5-5h176a5 5 0 0 1 5 5z" fill="#D2D2D2"/><path fill="#A3A3A3" d="M7 6h4v4H7zm0 6h4v4H7zm0 6h4v4H7zm6-12h4v4h-4zm0 6h4v4h-4zm0 6h4v4h-4zm6-12h4v4h-4zm0 6h4v4h-4zm0 6h4v4h-4zm6-12h4v4h-4zm0 6h4v4h-4zm0 6h4v4h-4zm6-12h4v4h-4zm0 6h4v4h-4zm0 6h4v4h-4zm6-12h4v4h-4zm0 6h4v4h-4zm0 6h4v4h-4zm6-12h4v4h-4zm0 6h4v4h-4zm0 6h4v4h-4zm6-12h4v4h-4zm0 6h4v4h-4zm0 6h4v4h-4zm6-12h4v4h-4zm0 6h4v4h-4zm0 6h4v4h-4zm6-12h4v4h-4zm0 6h4v4h-4zm0 6h4v4h-4zm6-12h4v4h-4zm0 6h4v4h-4zm0 6h4v4h-4zm6-12h4v4h-4zm0 6h4v4h-4zm0 6h4v4h-4zm6-12h4v4h-4zm0 6h4v4h-4zm0 6h4v4h-4zm6-12h4v4h-4zm0 6h4v4h-4zm0 6h4v4h-4zm6-12h4v4h-4zm0 6h4v4h-4zm0 6h4v4h-4zm6-12h4v4h-4zm0 6h4v4h-4zm0 6h4v4h-4zm6-12h4v4h-4zm0 6h4v4h-4zm0 6h4v4h-4zm6-12h4v4h-4zm0 6h4v4h-4zm0 6h4v4h-4zm6-12h4v4h-4zm0 6h4v4h-4zm0 6h4v4h-4zm6-12h4v4h-4zm0 6h4v4h-4zm0 6h4v4h-4zm6-12h4v4h-4zm0 6h4v4h-4zm0 6h4v4h-4zm6-12h4v4h-4zm0 6h4v4h-4zm0 6h4v4h-4zm6-12h4v4h-4zm0 6h4v4h-4zm0 6h4v4h-4zm6-12h4v4h-4zm0 6h4v4h-4zm0 6h4v4h-4zm6-12h4v4h-4zm0 6h4v4h-4zm0 6h4v4h-4zm6-12h4v4h-4zm0 6h4v4h-4zm0 6h4v4h-4zm6-12h4v4h-4zm0 6h4v4h-4zm0 6h4v4h-4zm6-12h4v4h-4zm0 6h4v4h-4zm0 6h4v4h-4zm6-12h4v4h-4zm0 6h4v4h-4zm0 6h4v4h-4zM7 313h4v4H7zm6 0h4v4h-4zm6 0h4v4h-4zm6 0h4v4h-4zm6 0h4v4h-4zm6 0h4v4h-4zm6 0h4v4h-4zm6 0h4v4h-4zm6 0h4v4h-4zm6 0h4v4h-4zm6 0h4v4h-4zm6 0h4v4h-4zm6 0h4v4h-4zm6 0h4v4h-4zm6 0h4v4h-4zm6 0h4v4h-4zm6 0h4v4h-4zm6 0h4v4h-4zm6 0h4v4h-4zm6 0h4v4h-4zm6 0h4v4h-4zm6 0h4v4h-4zm6 0h4v4h-4zm6 0h4v4h-4zm6 0h4v4h-4zm6 0h4v4h-4zm6 0h4v4h-4zm6 0h4v4h-4zm6 0h4v4h-4z"/><rect fill="#FFF" x="7" y="29" width="172" height="278" rx="2"/></g><path d="M217.009 622.34h2.375v-2.159h-2.375v2.16zm-2.807 0h2.375v-2.159h-2.375v2.16zm-2.807 0h2.375v-2.159h-2.375v2.16zm-2.806 0h2.375v-2.159h-2.375v2.16zm-2.807 0h2.375v-2.159h-2.375v2.16zm2.807-2.59h2.375v-2.16h-2.375v2.16zm2.806 0h2.375v-2.16h-2.375v2.16zm2.807 0h2.375v-2.16h-2.375v2.16zm0-2.591h2.375V615h-2.375v2.159zm12.318 3.923c-.518-.347-1.71-.475-2.627-.302-.118-.864-.6-1.612-1.475-2.29l-.504-.335-.336.504c-.43.648-.644 1.547-.574 2.408.032.304.131.846.443 1.322-.312.168-.928.399-1.74.383H204.09l-.03.18c-.148.866-.145 3.568 1.61 5.645 1.333 1.579 3.333 2.38 5.942 2.38 5.657 0 9.843-2.605 11.803-7.338.77.015 2.43.004 3.282-1.625.022-.037.073-.135.222-.443l.082-.17-.48-.32z" fill="#A3A3A3"/><g fill="#A3A3A3"><path d="M213.883 656.606a.34.34 0 0 0-.393-.259l-.003-.004-1.987.337c.307.849.88 1.54 1.6 2.002l.77-1.86-.006-.007a.336.336 0 0 0 .019-.21m-.661-1.431a.34.34 0 0 0 .134-.583l.001-.008-1.511-1.353a3.964 3.964 0 0 0-.563 2.509l1.938-.56.001-.006zm.883-1.526a.34.34 0 0 0 .539-.26l.008-.004.114-2.019a3.965 3.965 0 0 0-2.32 1.111l1.654 1.174.004-.002zm.585 2.12l.558.268.556-.268.138-.6-.385-.481h-.619l-.386.48zm1.157-2.386a.34.34 0 0 0 .54.259l.005.002 1.645-1.166a3.998 3.998 0 0 0-2.307-1.112l.114 2.016h.002z"/><path d="M222.02 656.867c-.047.205-.27.33-.497.28h-.006l-.007-.002c-.032-.007-.072-.014-.1-.022-.132-.035-.227-.088-.345-.133-.255-.091-.466-.168-.671-.197-.105-.009-.158.041-.216.08a5.777 5.777 0 0 0-.164-.03 5.008 5.008 0 0 1-2.22 2.792c.02.044.05.139.065.155-.024.065-.06.127-.03.227.075.194.196.383.342.611.07.106.142.187.206.307l.05.104c.1.211.027.455-.163.547-.192.092-.43-.006-.533-.218-.014-.03-.035-.07-.047-.099-.055-.125-.074-.232-.112-.353-.087-.256-.16-.468-.264-.647-.059-.087-.13-.098-.197-.12l-.082-.147a4.993 4.993 0 0 1-3.552-.01l-.087.159c-.065.017-.127.034-.166.08-.14.168-.196.436-.298.692-.038.12-.056.228-.11.353l-.048.097v.001l-.001.001c-.103.212-.34.31-.532.217-.19-.091-.262-.335-.163-.547.014-.03.034-.075.05-.103.063-.12.135-.203.206-.308.145-.228.273-.432.348-.626.019-.064-.01-.153-.034-.218l.07-.167a5.009 5.009 0 0 1-2.22-2.772l-.168.029c-.045-.025-.135-.085-.221-.078-.206.03-.416.106-.671.197-.118.045-.214.097-.346.132-.027.008-.067.016-.099.023l-.007.002-.006.001c-.228.05-.45-.076-.497-.281-.047-.206.099-.414.326-.469l.006-.002h.003c.032-.008.073-.019.103-.024.134-.026.243-.02.369-.03.269-.028.492-.051.69-.113.063-.026.123-.113.165-.167l.161-.047a4.98 4.98 0 0 1 .786-3.472l-.124-.11c-.008-.049-.018-.16-.077-.223-.151-.142-.342-.26-.572-.402-.11-.064-.21-.106-.32-.186l-.08-.065-.005-.004c-.185-.147-.227-.401-.095-.567a.37.37 0 0 1 .307-.136.458.458 0 0 1 .268.101c.027.021.062.048.086.069.103.088.166.176.253.268.19.193.347.353.52.47.09.052.159.03.228.021l.139.1a4.95 4.95 0 0 1 3.21-1.545l.01-.162a.42.42 0 0 0 .124-.2c.017-.206-.01-.429-.042-.698-.018-.125-.048-.23-.053-.366v-.108c0-.237.172-.429.385-.429.212 0 .385.192.385.428 0 .034.002.079 0 .11-.005.136-.034.24-.052.365-.032.269-.06.492-.044.699.015.103.076.144.126.192l.01.172a5.044 5.044 0 0 1 3.194 1.544l.147-.105c.05.003.158.018.233-.025.172-.116.33-.277.519-.47.087-.092.15-.18.254-.269l.086-.068c.184-.147.441-.132.574.034.132.167.09.42-.095.568-.026.02-.06.05-.085.068-.11.081-.21.123-.32.187-.23.142-.42.26-.572.402-.071.076-.066.149-.072.218l-.137.122a4.982 4.982 0 0 1 .802 3.464l.155.046c.028.04.086.135.167.167.198.062.42.085.69.113.126.01.235.004.369.03.032.006.079.018.112.026.227.055.372.263.325.469m2.447.084l-1.59-6.902a1.222 1.222 0 0 0-.665-.827l-6.43-3.071a1.239 1.239 0 0 0-1.068 0l-6.43 3.072a1.221 1.221 0 0 0-.666.828l-1.586 6.901a1.211 1.211 0 0 0 .237 1.032l4.45 5.534c.234.29.588.46.962.46l7.137-.002c.374 0 .728-.169.962-.459l4.449-5.534c.233-.29.32-.67.238-1.032"/><path d="M218.64 653.231l-1.504 1.346v.004a.34.34 0 0 0 .133.583l.003.008 1.947.561c.041-.42.016-.855-.084-1.29a4.013 4.013 0 0 0-.496-1.212m-3.093 4.104a.337.337 0 0 0-.31-.178.34.34 0 0 0-.288.179h-.001l-.977 1.766a3.98 3.98 0 0 0 2.563.003l-.98-1.77h-.007zm1.455-.995a.338.338 0 0 0-.208.028.34.34 0 0 0-.164.44l-.003.002.778 1.88a3.97 3.97 0 0 0 1.605-2.016l-2.005-.339-.003.004z"/></g><path d="M694 614v19a5 5 0 0 1-5 5H513a5 5 0 0 1-5-5v-19a5 5 0 0 1 5-5h176a5 5 0 0 1 5 5z" fill="#D2D2D2"/><path fill="#A3A3A3" d="M539 615h4v4h-4zm0 6h4v4h-4zm0 6h4v4h-4zm6-12h4v4h-4zm0 6h4v4h-4zm0 6h4v4h-4zm6-12h4v4h-4zm0 6h4v4h-4zm0 6h4v4h-4zm6-12h4v4h-4zm0 6h4v4h-4zm0 6h4v4h-4zm6-12h4v4h-4zm0 6h4v4h-4zm0 6h4v4h-4zm6-12h4v4h-4zm0 6h4v4h-4zm0 6h4v4h-4zm6-12h4v4h-4zm0 6h4v4h-4zm0 6h4v4h-4zm6-12h4v4h-4zm0 6h4v4h-4zm0 6h4v4h-4zm6-12h4v4h-4zm0 6h4v4h-4zm0 6h4v4h-4zm6-12h4v4h-4zm0 6h4v4h-4zm0 6h4v4h-4zm6-12h4v4h-4zm0 6h4v4h-4zm0 6h4v4h-4zm6-12h4v4h-4zm0 6h4v4h-4zm0 6h4v4h-4zm6-12h4v4h-4zm0 6h4v4h-4zm0 6h4v4h-4zm6-12h4v4h-4zm0 6h4v4h-4zm0 6h4v4h-4zm6-12h4v4h-4zm0 6h4v4h-4zm0 6h4v4h-4zm6-12h4v4h-4zm0 6h4v4h-4zm0 6h4v4h-4zm6-12h4v4h-4zm0 6h4v4h-4zm0 6h4v4h-4zm6-12h4v4h-4zm0 6h4v4h-4zm0 6h4v4h-4zm6-12h4v4h-4zm0 6h4v4h-4zm0 6h4v4h-4zm6-12h4v4h-4zm0 6h4v4h-4zm0 6h4v4h-4zm6-12h4v4h-4zm0 6h4v4h-4zm0 6h4v4h-4zm6-12h4v4h-4zm0 6h4v4h-4zm0 6h4v4h-4zm6-12h4v4h-4zm0 6h4v4h-4zm0 6h4v4h-4zm6-12h4v4h-4zm0 6h4v4h-4zm0 6h4v4h-4zm6-12h4v4h-4zm0 6h4v4h-4zm0 6h4v4h-4z"/><path d="M694 646v19a5 5 0 0 1-5 5H513a5 5 0 0 1-5-5v-19a5 5 0 0 1 5-5h176a5 5 0 0 1 5 5z" fill="#D2D2D2"/><path fill="#A3A3A3" d="M539 647h4v4h-4zm0 6h4v4h-4zm0 6h4v4h-4zm6-12h4v4h-4zm0 6h4v4h-4zm0 6h4v4h-4zm6-12h4v4h-4zm0 6h4v4h-4zm0 6h4v4h-4zm6-12h4v4h-4zm0 6h4v4h-4zm0 6h4v4h-4zm6-12h4v4h-4zm0 6h4v4h-4zm0 6h4v4h-4zm6-12h4v4h-4zm0 6h4v4h-4zm0 6h4v4h-4zm6-12h4v4h-4zm0 6h4v4h-4zm0 6h4v4h-4zm6-12h4v4h-4zm0 6h4v4h-4zm0 6h4v4h-4zm6-12h4v4h-4zm0 6h4v4h-4zm0 6h4v4h-4zm6-12h4v4h-4zm0 6h4v4h-4zm0 6h4v4h-4zm6-12h4v4h-4zm0 6h4v4h-4zm0 6h4v4h-4zm6-12h4v4h-4zm0 6h4v4h-4zm0 6h4v4h-4zm6-12h4v4h-4zm0 6h4v4h-4zm0 6h4v4h-4zm6-12h4v4h-4zm0 6h4v4h-4zm0 6h4v4h-4zm6-12h4v4h-4zm0 6h4v4h-4zm0 6h4v4h-4zm6-12h4v4h-4zm0 6h4v4h-4zm0 6h4v4h-4zm6-12h4v4h-4zm0 6h4v4h-4zm0 6h4v4h-4zm6-12h4v4h-4zm0 6h4v4h-4zm0 6h4v4h-4zm6-12h4v4h-4zm0 6h4v4h-4zm0 6h4v4h-4zm6-12h4v4h-4zm0 6h4v4h-4zm0 6h4v4h-4zm6-12h4v4h-4zm0 6h4v4h-4zm0 6h4v4h-4zm6-12h4v4h-4zm0 6h4v4h-4zm0 6h4v4h-4zm6-12h4v4h-4zm0 6h4v4h-4zm0 6h4v4h-4zm6-12h4v4h-4zm0 6h4v4h-4zm0 6h4v4h-4zm6-12h4v4h-4zm0 6h4v4h-4zm0 6h4v4h-4z"/><g transform="translate(508 282)"><path d="M186 5v314a5 5 0 0 1-5 5H5a5 5 0 0 1-5-5V5a5 5 0 0 1 5-5h176a5 5 0 0 1 5 5z" fill="#D2D2D2"/><path fill="#A3A3A3" d="M7 6h4v4H7zm0 6h4v4H7zm0 6h4v4H7zm6-12h4v4h-4zm0 6h4v4h-4zm0 6h4v4h-4zm6-12h4v4h-4zm0 6h4v4h-4zm0 6h4v4h-4zm6-12h4v4h-4zm0 6h4v4h-4zm0 6h4v4h-4zm6-12h4v4h-4zm0 6h4v4h-4zm0 6h4v4h-4zm6-12h4v4h-4zm0 6h4v4h-4zm0 6h4v4h-4zm6-12h4v4h-4zm0 6h4v4h-4zm0 6h4v4h-4zm6-12h4v4h-4zm0 6h4v4h-4zm0 6h4v4h-4zm6-12h4v4h-4zm0 6h4v4h-4zm0 6h4v4h-4zm6-12h4v4h-4zm0 6h4v4h-4zm0 6h4v4h-4zm6-12h4v4h-4zm0 6h4v4h-4zm0 6h4v4h-4zm6-12h4v4h-4zm0 6h4v4h-4zm0 6h4v4h-4zm6-12h4v4h-4zm0 6h4v4h-4zm0 6h4v4h-4zm6-12h4v4h-4zm0 6h4v4h-4zm0 6h4v4h-4zm6-12h4v4h-4zm0 6h4v4h-4zm0 6h4v4h-4zm6-12h4v4h-4zm0 6h4v4h-4zm0 6h4v4h-4zm6-12h4v4h-4zm0 6h4v4h-4zm0 6h4v4h-4zm6-12h4v4h-4zm0 6h4v4h-4zm0 6h4v4h-4zm6-12h4v4h-4zm0 6h4v4h-4zm0 6h4v4h-4zm6-12h4v4h-4zm0 6h4v4h-4zm0 6h4v4h-4zm6-12h4v4h-4zm0 6h4v4h-4zm0 6h4v4h-4zm6-12h4v4h-4zm0 6h4v4h-4zm0 6h4v4h-4zm6-12h4v4h-4zm0 6h4v4h-4zm0 6h4v4h-4zm6-12h4v4h-4zm0 6h4v4h-4zm0 6h4v4h-4zm6-12h4v4h-4zm0 6h4v4h-4zm0 6h4v4h-4zm6-12h4v4h-4zm0 6h4v4h-4zm0 6h4v4h-4zm6-12h4v4h-4zm0 6h4v4h-4zm0 6h4v4h-4zm6-12h4v4h-4zm0 6h4v4h-4zm0 6h4v4h-4zm6-12h4v4h-4zm0 6h4v4h-4zm0 6h4v4h-4zM7 313h4v4H7zm6 0h4v4h-4zm6 0h4v4h-4zm6 0h4v4h-4zm6 0h4v4h-4zm6 0h4v4h-4zm6 0h4v4h-4zm6 0h4v4h-4zm6 0h4v4h-4zm6 0h4v4h-4zm6 0h4v4h-4zm6 0h4v4h-4zm6 0h4v4h-4zm6 0h4v4h-4zm6 0h4v4h-4zm6 0h4v4h-4zm6 0h4v4h-4zm6 0h4v4h-4zm6 0h4v4h-4zm6 0h4v4h-4zm6 0h4v4h-4zm6 0h4v4h-4zm6 0h4v4h-4zm6 0h4v4h-4zm6 0h4v4h-4zm6 0h4v4h-4zm6 0h4v4h-4zm6 0h4v4h-4zm6 0h4v4h-4z"/><rect fill="#FFF" x="7" y="29" width="172" height="278" rx="2"/></g><path d="M526.009 622.34h2.375v-2.159h-2.375v2.16zm-2.807 0h2.375v-2.159h-2.375v2.16zm-2.807 0h2.375v-2.159h-2.375v2.16zm-2.806 0h2.375v-2.159h-2.375v2.16zm-2.807 0h2.375v-2.159h-2.375v2.16zm2.807-2.59h2.375v-2.16h-2.375v2.16zm2.806 0h2.375v-2.16h-2.375v2.16zm2.807 0h2.375v-2.16h-2.375v2.16zm0-2.591h2.375V615h-2.375v2.159zm12.318 3.923c-.518-.347-1.71-.475-2.627-.302-.118-.864-.6-1.612-1.475-2.29l-.504-.335-.336.504c-.43.648-.644 1.547-.574 2.408.032.304.131.846.443 1.322-.312.168-.928.399-1.74.383H513.09l-.03.18c-.148.866-.145 3.568 1.61 5.645 1.333 1.579 3.333 2.38 5.942 2.38 5.657 0 9.843-2.605 11.803-7.338.77.015 2.43.004 3.282-1.625.022-.037.073-.135.222-.443l.082-.17-.48-.32z" fill="#A3A3A3"/><g fill="#A3A3A3"><path d="M522.883 656.606a.34.34 0 0 0-.393-.259l-.003-.004-1.987.337c.307.849.88 1.54 1.6 2.002l.77-1.86-.006-.007a.336.336 0 0 0 .019-.21m-.661-1.431a.34.34 0 0 0 .134-.583l.001-.008-1.511-1.353a3.964 3.964 0 0 0-.563 2.509l1.938-.56.001-.006zm.883-1.526a.34.34 0 0 0 .539-.26l.008-.004.114-2.019a3.965 3.965 0 0 0-2.32 1.111l1.654 1.174.004-.002zm.585 2.12l.558.268.556-.268.138-.6-.385-.481h-.619l-.386.48zm1.157-2.386a.34.34 0 0 0 .54.259l.005.002 1.645-1.166a3.998 3.998 0 0 0-2.307-1.112l.114 2.016h.002z"/><path d="M531.02 656.867c-.047.205-.27.33-.497.28h-.006l-.007-.002c-.032-.007-.072-.014-.1-.022-.132-.035-.227-.088-.345-.133-.255-.091-.466-.168-.671-.197-.105-.009-.158.041-.216.08a5.777 5.777 0 0 0-.164-.03 5.008 5.008 0 0 1-2.22 2.792c.02.044.05.139.065.155-.024.065-.06.127-.03.227.075.194.196.383.342.611.07.106.142.187.206.307l.05.104c.1.211.027.455-.163.547-.192.092-.43-.006-.533-.218-.014-.03-.035-.07-.047-.099-.055-.125-.074-.232-.112-.353-.087-.256-.16-.468-.264-.647-.059-.087-.13-.098-.197-.12l-.082-.147a4.993 4.993 0 0 1-3.552-.01l-.087.159c-.065.017-.127.034-.166.08-.14.168-.196.436-.298.692-.038.12-.056.228-.11.353l-.048.097v.001l-.001.001c-.103.212-.34.31-.532.217-.19-.091-.262-.335-.163-.547.014-.03.034-.075.05-.103.063-.12.135-.203.206-.308.145-.228.273-.432.348-.626.019-.064-.01-.153-.034-.218l.07-.167a5.009 5.009 0 0 1-2.22-2.772l-.168.029c-.045-.025-.135-.085-.221-.078-.206.03-.416.106-.671.197-.118.045-.214.097-.346.132-.027.008-.067.016-.099.023l-.007.002-.006.001c-.228.05-.45-.076-.497-.281-.047-.206.099-.414.326-.469l.006-.002h.003c.032-.008.073-.019.103-.024.134-.026.243-.02.369-.03.269-.028.492-.051.69-.113.063-.026.123-.113.165-.167l.161-.047a4.98 4.98 0 0 1 .786-3.472l-.124-.11c-.008-.049-.018-.16-.077-.223-.151-.142-.342-.26-.572-.402-.11-.064-.21-.106-.32-.186l-.08-.065-.005-.004c-.185-.147-.227-.401-.095-.567a.37.37 0 0 1 .307-.136.458.458 0 0 1 .268.101c.027.021.062.048.086.069.103.088.166.176.253.268.19.193.347.353.52.47.09.052.159.03.228.021l.139.1a4.95 4.95 0 0 1 3.21-1.545l.01-.162a.42.42 0 0 0 .124-.2c.017-.206-.01-.429-.042-.698-.018-.125-.048-.23-.053-.366v-.108c0-.237.172-.429.385-.429.212 0 .385.192.385.428 0 .034.002.079 0 .11-.005.136-.034.24-.052.365-.032.269-.06.492-.044.699.015.103.076.144.126.192l.01.172a5.044 5.044 0 0 1 3.194 1.544l.147-.105c.05.003.158.018.233-.025.172-.116.33-.277.519-.47.087-.092.15-.18.254-.269l.086-.068c.184-.147.441-.132.574.034.132.167.09.42-.095.568-.026.02-.06.05-.085.068-.11.081-.21.123-.32.187-.23.142-.42.26-.572.402-.071.076-.066.149-.072.218l-.137.122a4.982 4.982 0 0 1 .802 3.464l.155.046c.028.04.086.135.167.167.198.062.42.085.69.113.126.01.235.004.369.03.032.006.079.018.112.026.227.055.372.263.325.469m2.447.084l-1.59-6.902a1.222 1.222 0 0 0-.665-.827l-6.43-3.071a1.239 1.239 0 0 0-1.068 0l-6.43 3.072a1.221 1.221 0 0 0-.666.828l-1.586 6.901a1.211 1.211 0 0 0 .237 1.032l4.45 5.534c.234.29.588.46.962.46l7.137-.002c.374 0 .728-.169.962-.459l4.449-5.534c.233-.29.32-.67.238-1.032"/><path d="M527.64 653.231l-1.504 1.346v.004a.34.34 0 0 0 .133.583l.003.008 1.947.561c.041-.42.016-.855-.084-1.29a4.013 4.013 0 0 0-.496-1.212m-3.093 4.104a.337.337 0 0 0-.31-.178.34.34 0 0 0-.288.179h-.001l-.977 1.766a3.98 3.98 0 0 0 2.563.003l-.98-1.77h-.007zm1.455-.995a.338.338 0 0 0-.208.028.34.34 0 0 0-.164.44l-.003.002.778 1.88a3.97 3.97 0 0 0 1.605-2.016l-2.005-.339-.003.004z"/></g><path d="M1002 614v19a5 5 0 0 1-5 5H821a5 5 0 0 1-5-5v-19a5 5 0 0 1 5-5h176a5 5 0 0 1 5 5z" fill="#D2D2D2"/><path fill="#A3A3A3" d="M847 615h4v4h-4zm0 6h4v4h-4zm0 6h4v4h-4zm6-12h4v4h-4zm0 6h4v4h-4zm0 6h4v4h-4zm6-12h4v4h-4zm0 6h4v4h-4zm0 6h4v4h-4zm6-12h4v4h-4zm0 6h4v4h-4zm0 6h4v4h-4zm6-12h4v4h-4zm0 6h4v4h-4zm0 6h4v4h-4zm6-12h4v4h-4zm0 6h4v4h-4zm0 6h4v4h-4zm6-12h4v4h-4zm0 6h4v4h-4zm0 6h4v4h-4zm6-12h4v4h-4zm0 6h4v4h-4zm0 6h4v4h-4zm6-12h4v4h-4zm0 6h4v4h-4zm0 6h4v4h-4zm6-12h4v4h-4zm0 6h4v4h-4zm0 6h4v4h-4zm6-12h4v4h-4zm0 6h4v4h-4zm0 6h4v4h-4zm6-12h4v4h-4zm0 6h4v4h-4zm0 6h4v4h-4zm6-12h4v4h-4zm0 6h4v4h-4zm0 6h4v4h-4zm6-12h4v4h-4zm0 6h4v4h-4zm0 6h4v4h-4zm6-12h4v4h-4zm0 6h4v4h-4zm0 6h4v4h-4zm6-12h4v4h-4zm0 6h4v4h-4zm0 6h4v4h-4zm6-12h4v4h-4zm0 6h4v4h-4zm0 6h4v4h-4zm6-12h4v4h-4zm0 6h4v4h-4zm0 6h4v4h-4zm6-12h4v4h-4zm0 6h4v4h-4zm0 6h4v4h-4zm6-12h4v4h-4zm0 6h4v4h-4zm0 6h4v4h-4zm6-12h4v4h-4zm0 6h4v4h-4zm0 6h4v4h-4zm6-12h4v4h-4zm0 6h4v4h-4zm0 6h4v4h-4zm6-12h4v4h-4zm0 6h4v4h-4zm0 6h4v4h-4zm6-12h4v4h-4zm0 6h4v4h-4zm0 6h4v4h-4zm6-12h4v4h-4zm0 6h4v4h-4zm0 6h4v4h-4z"/><path d="M1002 646v19a5 5 0 0 1-5 5H821a5 5 0 0 1-5-5v-19a5 5 0 0 1 5-5h176a5 5 0 0 1 5 5z" fill="#D2D2D2"/><path fill="#A3A3A3" d="M847 647h4v4h-4zm0 6h4v4h-4zm0 6h4v4h-4zm6-12h4v4h-4zm0 6h4v4h-4zm0 6h4v4h-4zm6-12h4v4h-4zm0 6h4v4h-4zm0 6h4v4h-4zm6-12h4v4h-4zm0 6h4v4h-4zm0 6h4v4h-4zm6-12h4v4h-4zm0 6h4v4h-4zm0 6h4v4h-4zm6-12h4v4h-4zm0 6h4v4h-4zm0 6h4v4h-4zm6-12h4v4h-4zm0 6h4v4h-4zm0 6h4v4h-4zm6-12h4v4h-4zm0 6h4v4h-4zm0 6h4v4h-4zm6-12h4v4h-4zm0 6h4v4h-4zm0 6h4v4h-4zm6-12h4v4h-4zm0 6h4v4h-4zm0 6h4v4h-4zm6-12h4v4h-4zm0 6h4v4h-4zm0 6h4v4h-4zm6-12h4v4h-4zm0 6h4v4h-4zm0 6h4v4h-4zm6-12h4v4h-4zm0 6h4v4h-4zm0 6h4v4h-4zm6-12h4v4h-4zm0 6h4v4h-4zm0 6h4v4h-4zm6-12h4v4h-4zm0 6h4v4h-4zm0 6h4v4h-4zm6-12h4v4h-4zm0 6h4v4h-4zm0 6h4v4h-4zm6-12h4v4h-4zm0 6h4v4h-4zm0 6h4v4h-4zm6-12h4v4h-4zm0 6h4v4h-4zm0 6h4v4h-4zm6-12h4v4h-4zm0 6h4v4h-4zm0 6h4v4h-4zm6-12h4v4h-4zm0 6h4v4h-4zm0 6h4v4h-4zm6-12h4v4h-4zm0 6h4v4h-4zm0 6h4v4h-4zm6-12h4v4h-4zm0 6h4v4h-4zm0 6h4v4h-4zm6-12h4v4h-4zm0 6h4v4h-4zm0 6h4v4h-4zm6-12h4v4h-4zm0 6h4v4h-4zm0 6h4v4h-4zm6-12h4v4h-4zm0 6h4v4h-4zm0 6h4v4h-4z"/><g transform="translate(816 282)"><path d="M186 5v314a5 5 0 0 1-5 5H5a5 5 0 0 1-5-5V5a5 5 0 0 1 5-5h176a5 5 0 0 1 5 5z" fill="#D2D2D2"/><path fill="#A3A3A3" d="M7 6h4v4H7zm0 6h4v4H7zm0 6h4v4H7zm6-12h4v4h-4zm0 6h4v4h-4zm0 6h4v4h-4zm6-12h4v4h-4zm0 6h4v4h-4zm0 6h4v4h-4zm6-12h4v4h-4zm0 6h4v4h-4zm0 6h4v4h-4zm6-12h4v4h-4zm0 6h4v4h-4zm0 6h4v4h-4zm6-12h4v4h-4zm0 6h4v4h-4zm0 6h4v4h-4zm6-12h4v4h-4zm0 6h4v4h-4zm0 6h4v4h-4zm6-12h4v4h-4zm0 6h4v4h-4zm0 6h4v4h-4zm6-12h4v4h-4zm0 6h4v4h-4zm0 6h4v4h-4zm6-12h4v4h-4zm0 6h4v4h-4zm0 6h4v4h-4zm6-12h4v4h-4zm0 6h4v4h-4zm0 6h4v4h-4zm6-12h4v4h-4zm0 6h4v4h-4zm0 6h4v4h-4zm6-12h4v4h-4zm0 6h4v4h-4zm0 6h4v4h-4zm6-12h4v4h-4zm0 6h4v4h-4zm0 6h4v4h-4zm6-12h4v4h-4zm0 6h4v4h-4zm0 6h4v4h-4zm6-12h4v4h-4zm0 6h4v4h-4zm0 6h4v4h-4zm6-12h4v4h-4zm0 6h4v4h-4zm0 6h4v4h-4zm6-12h4v4h-4zm0 6h4v4h-4zm0 6h4v4h-4zm6-12h4v4h-4zm0 6h4v4h-4zm0 6h4v4h-4zm6-12h4v4h-4zm0 6h4v4h-4zm0 6h4v4h-4zm6-12h4v4h-4zm0 6h4v4h-4zm0 6h4v4h-4zm6-12h4v4h-4zm0 6h4v4h-4zm0 6h4v4h-4zm6-12h4v4h-4zm0 6h4v4h-4zm0 6h4v4h-4zm6-12h4v4h-4zm0 6h4v4h-4zm0 6h4v4h-4zm6-12h4v4h-4zm0 6h4v4h-4zm0 6h4v4h-4zm6-12h4v4h-4zm0 6h4v4h-4zm0 6h4v4h-4zm6-12h4v4h-4zm0 6h4v4h-4zm0 6h4v4h-4zm6-12h4v4h-4zm0 6h4v4h-4zm0 6h4v4h-4zm6-12h4v4h-4zm0 6h4v4h-4zm0 6h4v4h-4zM7 313h4v4H7zm6 0h4v4h-4zm6 0h4v4h-4zm6 0h4v4h-4zm6 0h4v4h-4zm6 0h4v4h-4zm6 0h4v4h-4zm6 0h4v4h-4zm6 0h4v4h-4zm6 0h4v4h-4zm6 0h4v4h-4zm6 0h4v4h-4zm6 0h4v4h-4zm6 0h4v4h-4zm6 0h4v4h-4zm6 0h4v4h-4zm6 0h4v4h-4zm6 0h4v4h-4zm6 0h4v4h-4zm6 0h4v4h-4zm6 0h4v4h-4zm6 0h4v4h-4zm6 0h4v4h-4zm6 0h4v4h-4zm6 0h4v4h-4zm6 0h4v4h-4zm6 0h4v4h-4zm6 0h4v4h-4zm6 0h4v4h-4z"/><rect fill="#FFF" x="7" y="29" width="172" height="278" rx="2"/></g><path d="M834.009 622.34h2.375v-2.159h-2.375v2.16zm-2.807 0h2.375v-2.159h-2.375v2.16zm-2.807 0h2.375v-2.159h-2.375v2.16zm-2.806 0h2.375v-2.159h-2.375v2.16zm-2.807 0h2.375v-2.159h-2.375v2.16zm2.807-2.59h2.375v-2.16h-2.375v2.16zm2.806 0h2.375v-2.16h-2.375v2.16zm2.807 0h2.375v-2.16h-2.375v2.16zm0-2.591h2.375V615h-2.375v2.159zm12.318 3.923c-.518-.347-1.71-.475-2.627-.302-.118-.864-.6-1.612-1.475-2.29l-.504-.335-.336.504c-.43.648-.644 1.547-.574 2.408.032.304.131.846.443 1.322-.312.168-.928.399-1.74.383H821.09l-.03.18c-.148.866-.145 3.568 1.61 5.645 1.333 1.579 3.333 2.38 5.942 2.38 5.657 0 9.843-2.605 11.803-7.338.77.015 2.43.004 3.282-1.625.022-.037.073-.135.222-.443l.082-.17-.48-.32z" fill="#A3A3A3"/><g fill="#A3A3A3"><path d="M830.883 656.606a.34.34 0 0 0-.393-.259l-.003-.004-1.987.337c.307.849.88 1.54 1.6 2.002l.77-1.86-.006-.007a.336.336 0 0 0 .019-.21m-.661-1.431a.34.34 0 0 0 .134-.583l.001-.008-1.511-1.353a3.964 3.964 0 0 0-.563 2.509l1.938-.56.001-.006zm.883-1.526a.34.34 0 0 0 .539-.26l.008-.004.114-2.019a3.965 3.965 0 0 0-2.32 1.111l1.654 1.174.004-.002zm.585 2.12l.558.268.556-.268.138-.6-.385-.481h-.619l-.386.48zm1.157-2.386a.34.34 0 0 0 .54.259l.005.002 1.645-1.166a3.998 3.998 0 0 0-2.307-1.112l.114 2.016h.002z"/><path d="M839.02 656.867c-.047.205-.27.33-.497.28h-.006l-.007-.002c-.032-.007-.072-.014-.1-.022-.132-.035-.227-.088-.345-.133-.255-.091-.466-.168-.671-.197-.105-.009-.158.041-.216.08a5.777 5.777 0 0 0-.164-.03 5.008 5.008 0 0 1-2.22 2.792c.02.044.05.139.065.155-.024.065-.06.127-.03.227.075.194.196.383.342.611.07.106.142.187.206.307l.05.104c.1.211.027.455-.163.547-.192.092-.43-.006-.533-.218-.014-.03-.035-.07-.047-.099-.055-.125-.074-.232-.112-.353-.087-.256-.16-.468-.264-.647-.059-.087-.13-.098-.197-.12l-.082-.147a4.993 4.993 0 0 1-3.552-.01l-.087.159c-.065.017-.127.034-.166.08-.14.168-.196.436-.298.692-.038.12-.056.228-.11.353l-.048.097v.001l-.001.001c-.103.212-.34.31-.532.217-.19-.091-.262-.335-.163-.547.014-.03.034-.075.05-.103.063-.12.135-.203.206-.308.145-.228.273-.432.348-.626.019-.064-.01-.153-.034-.218l.07-.167a5.009 5.009 0 0 1-2.22-2.772l-.168.029c-.045-.025-.135-.085-.221-.078-.206.03-.416.106-.671.197-.118.045-.214.097-.346.132-.027.008-.067.016-.099.023l-.007.002-.006.001c-.228.05-.45-.076-.497-.281-.047-.206.099-.414.326-.469l.006-.002h.003c.032-.008.073-.019.103-.024.134-.026.243-.02.369-.03.269-.028.492-.051.69-.113.063-.026.123-.113.165-.167l.161-.047a4.98 4.98 0 0 1 .786-3.472l-.124-.11c-.008-.049-.018-.16-.077-.223-.151-.142-.342-.26-.572-.402-.11-.064-.21-.106-.32-.186l-.08-.065-.005-.004c-.185-.147-.227-.401-.095-.567a.37.37 0 0 1 .307-.136.458.458 0 0 1 .268.101c.027.021.062.048.086.069.103.088.166.176.253.268.19.193.347.353.52.47.09.052.159.03.228.021l.139.1a4.95 4.95 0 0 1 3.21-1.545l.01-.162a.42.42 0 0 0 .124-.2c.017-.206-.01-.429-.042-.698-.018-.125-.048-.23-.053-.366v-.108c0-.237.172-.429.385-.429.212 0 .385.192.385.428 0 .034.002.079 0 .11-.005.136-.034.24-.052.365-.032.269-.06.492-.044.699.015.103.076.144.126.192l.01.172a5.044 5.044 0 0 1 3.194 1.544l.147-.105c.05.003.158.018.233-.025.172-.116.33-.277.519-.47.087-.092.15-.18.254-.269l.086-.068c.184-.147.441-.132.574.034.132.167.09.42-.095.568-.026.02-.06.05-.085.068-.11.081-.21.123-.32.187-.23.142-.42.26-.572.402-.071.076-.066.149-.072.218l-.137.122a4.982 4.982 0 0 1 .802 3.464l.155.046c.028.04.086.135.167.167.198.062.42.085.69.113.126.01.235.004.369.03.032.006.079.018.112.026.227.055.372.263.325.469m2.447.084l-1.59-6.902a1.222 1.222 0 0 0-.665-.827l-6.43-3.071a1.239 1.239 0 0 0-1.068 0l-6.43 3.072a1.221 1.221 0 0 0-.666.828l-1.586 6.901a1.211 1.211 0 0 0 .237 1.032l4.45 5.534c.234.29.588.46.962.46l7.137-.002c.374 0 .728-.169.962-.459l4.449-5.534c.233-.29.32-.67.238-1.032"/><path d="M835.64 653.231l-1.504 1.346v.004a.34.34 0 0 0 .133.583l.003.008 1.947.561c.041-.42.016-.855-.084-1.29a4.013 4.013 0 0 0-.496-1.212m-3.093 4.104a.337.337 0 0 0-.31-.178.34.34 0 0 0-.288.179h-.001l-.977 1.766a3.98 3.98 0 0 0 2.563.003l-.98-1.77h-.007zm1.455-.995a.338.338 0 0 0-.208.028.34.34 0 0 0-.164.44l-.003.002.778 1.88a3.97 3.97 0 0 0 1.605-2.016l-2.005-.339-.003.004z"/></g><g fill="#419EDA" fill-rule="nonzero"><path d="M286.352 448.226c0 3.309-2.58 5.986-5.76 5.986-3.184 0-5.757-2.677-5.757-5.986 0-3.296 2.574-5.983 5.756-5.983 3.18 0 5.761 2.687 5.761 5.983zm7.443.001c0 3.31 2.58 5.986 5.761 5.986 3.18 0 5.758-2.677 5.758-5.986 0-3.297-2.578-5.984-5.758-5.984s-5.761 2.687-5.761 5.984z"/><path d="M333.068 454.904a14.59 14.59 0 0 1-1.274.052c-2.569 0-5.06-.625-7.309-1.772a72.955 72.955 0 0 0 .984-13.435 69.193 69.193 0 0 0-8.369-10.304c1.365-2.658 3.38-4.945 5.9-6.565l1.08-.694-.842-.988c-4.34-5.078-9.52-9.005-15.393-11.668l-1.171-.53-.298 1.286a17.423 17.423 0 0 1-4.174 7.872 65.487 65.487 0 0 0-12.059-5.163 65.543 65.543 0 0 0-12.04 5.152 17.419 17.419 0 0 1-4.16-7.854l-.3-1.286-1.166.527c-5.8 2.626-11.122 6.658-15.391 11.66l-.845.99 1.08.694c2.51 1.616 4.521 3.889 5.883 6.532a69.484 69.484 0 0 0-8.353 10.264 73.009 73.009 0 0 0 .96 13.528 16.04 16.04 0 0 1-7.268 1.754c-.448 0-.867-.017-1.274-.052l-1.269-.1.119 1.316a46.754 46.754 0 0 0 5.918 18.826l.645 1.139.97-.855a16.307 16.307 0 0 1 7.843-3.818 70.38 70.38 0 0 0 6.713 11.362 65.825 65.825 0 0 0 12.723 3.248c.42 3.017.085 6.138-1.06 9.023l-.483 1.222 1.242.284c3.18.727 6.39 1.097 9.532 1.097l9.53-1.097 1.243-.284-.484-1.225c-1.143-2.885-1.478-6.009-1.057-9.026a65.74 65.74 0 0 0 12.674-3.242 70.469 70.469 0 0 0 6.72-11.372 16.378 16.378 0 0 1 7.883 3.82l.969.854.642-1.136a46.582 46.582 0 0 0 5.914-18.822l.119-1.314-1.247.1zm-29.287 16.092c-4.508 1.274-9.087 1.917-13.638 1.917-4.563 0-9.136-.642-13.648-1.917a55.91 55.91 0 0 1-5.842-12.785c-1.402-4.487-2.223-9.187-2.461-14.027 2.914-3.744 6.227-7.023 9.889-9.784a52.069 52.069 0 0 1 12.062-6.814 52.28 52.28 0 0 1 12.04 6.8c3.675 2.775 7.003 6.08 9.931 9.846-.25 4.813-1.08 9.486-2.485 13.965a55.73 55.73 0 0 1-5.848 12.8z"/></g><g fill="#B8E986"><path d="M553.5 441L521 459v-36z"/><path d="M342 445.5v-10h202v10z"/></g><g fill="#B8E986"><path d="M361.091 725.692l-24.85-27.618 35.078-8.098z"/><path d="M304.18 499.189l9.744-2.25 50.389 218.26-9.744 2.249z"/></g><g opacity=".3" fill="#B8E986"><path d="M483.948 734.953L451.15 717.5l30.192-19.607z"/><path d="M320.322 491.254l8.387-5.446L483.386 723.99 475 729.437z"/></g><g opacity=".3" fill="#B8E986"><path d="M805.947 734.953L773.151 717.5l30.192-19.607z"/><path d="M642.322 491.254l8.387-5.446L805.386 723.99 797 729.437z"/></g><g opacity=".3" fill="#B8E986"><path d="M394.039 734.953l32.797-17.453-30.192-19.607z"/><path d="M557.664 491.254l-8.386-5.446L394.6 723.99l8.387 5.447z"/></g><g opacity=".3" fill="#B8E986"><path d="M697.039 734.953l32.796-17.453-30.192-19.607z"/><path d="M860.664 491.254l-8.387-5.446L697.6 723.99l8.387 5.447z"/></g><g fill="#B8E986"><path d="M273.065 489.002l-24.85 27.618 35.078 8.098z"/><path d="M216.154 715.505l9.744 2.25 50.389-218.26-9.744-2.249z"/></g><g fill="#B8E986"><path d="M332.5 468l32.5 18v-36z"/><path d="M544 472.5v-10H342v10z"/></g><g fill="#B8E986"><path d="M331.85 781.6l-22.75 12.6V769z"/><path d="M267 784.75v-7h58.2v7zm-6.85 15.85l22.75 12.6V788z"/><path d="M325 803.75v-7h-58.2v7z"/></g><g fill="#B8E986"><path d="M865.5 441L833 459v-36z"/><path d="M654 445.5v-10h202v10z"/></g><g fill="#B8E986"><path d="M644.5 468l32.5 18v-36z"/><path d="M856 472.5v-10H654v10z"/></g><text font-family="sans-serif" font-size="16.8" font-weight="bold" fill="#4A4A4A"><tspan x="267.134" y="401">ETCD</tspan></text><g fill="#419EDA" fill-rule="nonzero"><path d="M206.352 788.226c0 3.309-2.58 5.986-5.76 5.986-3.184 0-5.757-2.677-5.757-5.986 0-3.296 2.574-5.983 5.756-5.983 3.18 0 5.761 2.687 5.761 5.983zm7.443.001c0 3.31 2.58 5.986 5.761 5.986 3.18 0 5.758-2.677 5.758-5.986 0-3.297-2.578-5.984-5.758-5.984s-5.761 2.687-5.761 5.984z"/><path d="M253.068 794.904a14.59 14.59 0 0 1-1.274.052c-2.569 0-5.06-.625-7.309-1.772a72.955 72.955 0 0 0 .984-13.435 69.193 69.193 0 0 0-8.369-10.304c1.365-2.658 3.38-4.945 5.9-6.565l1.08-.694-.842-.988c-4.34-5.078-9.52-9.005-15.393-11.668l-1.171-.53-.298 1.286a17.423 17.423 0 0 1-4.174 7.872 65.487 65.487 0 0 0-12.059-5.163 65.543 65.543 0 0 0-12.04 5.152 17.419 17.419 0 0 1-4.16-7.854l-.3-1.286-1.166.527c-5.8 2.626-11.122 6.658-15.391 11.66l-.845.99 1.08.694c2.51 1.616 4.521 3.889 5.883 6.532a69.484 69.484 0 0 0-8.353 10.264 73.009 73.009 0 0 0 .96 13.528 16.04 16.04 0 0 1-7.268 1.754c-.448 0-.867-.017-1.274-.052l-1.269-.1.119 1.316a46.754 46.754 0 0 0 5.918 18.826l.645 1.139.97-.855a16.307 16.307 0 0 1 7.843-3.818 70.38 70.38 0 0 0 6.713 11.362 65.825 65.825 0 0 0 12.723 3.248c.42 3.017.085 6.138-1.06 9.023l-.483 1.222 1.242.284c3.18.727 6.39 1.097 9.532 1.097l9.53-1.097 1.243-.284-.484-1.225c-1.143-2.885-1.478-6.009-1.057-9.026a65.74 65.74 0 0 0 12.674-3.242 70.469 70.469 0 0 0 6.72-11.372 16.378 16.378 0 0 1 7.883 3.82l.969.854.642-1.136a46.582 46.582 0 0 0 5.914-18.822l.119-1.314-1.247.1zm-29.287 16.092c-4.508 1.274-9.087 1.917-13.638 1.917-4.563 0-9.136-.642-13.648-1.917a55.91 55.91 0 0 1-5.842-12.785c-1.402-4.487-2.223-9.187-2.461-14.027 2.914-3.744 6.227-7.023 9.889-9.784a52.069 52.069 0 0 1 12.062-6.814 52.28 52.28 0 0 1 12.04 6.8c3.675 2.775 7.003 6.08 9.931 9.846-.25 4.813-1.08 9.486-2.485 13.965a55.73 55.73 0 0 1-5.848 12.8z"/></g><text font-family="sans-serif" font-size="16.8" font-weight="bold" fill="#4A4A4A" transform="translate(166 726)"><tspan x="21.134" y="15">ETCD</tspan></text><g fill="#419EDA" fill-rule="nonzero"><path d="M369.352 788.226c0 3.309-2.58 5.986-5.76 5.986-3.184 0-5.757-2.677-5.757-5.986 0-3.296 2.574-5.983 5.756-5.983 3.18 0 5.761 2.687 5.761 5.983zm7.443.001c0 3.31 2.58 5.986 5.761 5.986 3.18 0 5.758-2.677 5.758-5.986 0-3.297-2.578-5.984-5.758-5.984s-5.761 2.687-5.761 5.984z"/><path d="M416.068 794.904a14.59 14.59 0 0 1-1.274.052c-2.569 0-5.06-.625-7.309-1.772a72.955 72.955 0 0 0 .984-13.435 69.193 69.193 0 0 0-8.369-10.304c1.365-2.658 3.38-4.945 5.9-6.565l1.08-.694-.842-.988c-4.34-5.078-9.52-9.005-15.393-11.668l-1.171-.53-.298 1.286a17.423 17.423 0 0 1-4.174 7.872 65.487 65.487 0 0 0-12.059-5.163 65.543 65.543 0 0 0-12.04 5.152 17.419 17.419 0 0 1-4.16-7.854l-.3-1.286-1.166.527c-5.8 2.626-11.122 6.658-15.391 11.66l-.845.99 1.08.694c2.51 1.616 4.521 3.889 5.883 6.532a69.484 69.484 0 0 0-8.353 10.264 73.009 73.009 0 0 0 .96 13.528 16.04 16.04 0 0 1-7.268 1.754c-.448 0-.867-.017-1.274-.052l-1.269-.1.119 1.316a46.754 46.754 0 0 0 5.918 18.826l.645 1.139.97-.855a16.307 16.307 0 0 1 7.843-3.818 70.38 70.38 0 0 0 6.713 11.362 65.825 65.825 0 0 0 12.723 3.248c.42 3.017.085 6.138-1.06 9.023l-.483 1.222 1.242.284c3.18.727 6.39 1.097 9.532 1.097l9.53-1.097 1.243-.284-.484-1.225c-1.143-2.885-1.478-6.009-1.057-9.026a65.74 65.74 0 0 0 12.674-3.242 70.469 70.469 0 0 0 6.72-11.372 16.378 16.378 0 0 1 7.883 3.82l.969.854.642-1.136a46.582 46.582 0 0 0 5.914-18.822l.119-1.314-1.247.1zm-29.287 16.092c-4.508 1.274-9.087 1.917-13.638 1.917-4.563 0-9.136-.642-13.648-1.917a55.91 55.91 0 0 1-5.842-12.785c-1.402-4.487-2.223-9.187-2.461-14.027 2.914-3.744 6.227-7.023 9.889-9.784a52.069 52.069 0 0 1 12.062-6.814 52.28 52.28 0 0 1 12.04 6.8c3.675 2.775 7.003 6.08 9.931 9.846-.25 4.813-1.08 9.486-2.485 13.965a55.73 55.73 0 0 1-5.848 12.8z"/></g><text font-family="sans-serif" font-size="16.8" font-weight="bold" fill="#4A4A4A" transform="translate(166 726)"><tspan x="184.134" y="15">ETCD</tspan></text><g fill="#B8E986"><path d="M671.307 725.565l-24.85-27.618 35.078-8.098z"/><path d="M614.396 499.062l9.744-2.25 50.39 218.26-9.745 2.249z"/></g><g fill="#B8E986"><path d="M583.307 489.002l-24.85 27.618 35.078 8.098z"/><path d="M526.396 715.505l9.744 2.25 50.39-218.26-9.744-2.249z"/></g><g fill="#B8E986"><path d="M642.093 781.6l-22.75 12.6V769z"/><path d="M577.243 784.75v-7h58.2v7zm-6.85 15.85l22.75 12.6V788z"/><path d="M635.243 803.75v-7h-58.2v7z"/></g><g fill="#419EDA" fill-rule="nonzero"><path d="M516.595 788.226c0 3.309-2.58 5.986-5.76 5.986-3.184 0-5.757-2.677-5.757-5.986 0-3.296 2.574-5.983 5.756-5.983 3.18 0 5.761 2.687 5.761 5.983zm7.443.001c0 3.31 2.58 5.986 5.761 5.986 3.18 0 5.758-2.677 5.758-5.986 0-3.297-2.578-5.984-5.758-5.984s-5.761 2.687-5.761 5.984z"/><path d="M563.311 794.904a14.59 14.59 0 0 1-1.274.052c-2.569 0-5.06-.625-7.309-1.772a72.955 72.955 0 0 0 .984-13.435 69.193 69.193 0 0 0-8.369-10.304c1.365-2.658 3.38-4.945 5.9-6.565l1.08-.694-.842-.988c-4.34-5.078-9.52-9.005-15.393-11.668l-1.171-.53-.298 1.286a17.423 17.423 0 0 1-4.174 7.872 65.487 65.487 0 0 0-12.059-5.163 65.543 65.543 0 0 0-12.04 5.152 17.419 17.419 0 0 1-4.16-7.854l-.3-1.286-1.166.527c-5.8 2.626-11.122 6.658-15.391 11.66l-.845.99 1.08.694c2.51 1.616 4.521 3.889 5.883 6.532a69.484 69.484 0 0 0-8.353 10.264 73.009 73.009 0 0 0 .96 13.528 16.04 16.04 0 0 1-7.268 1.754c-.448 0-.867-.017-1.274-.052l-1.269-.1.119 1.316a46.754 46.754 0 0 0 5.918 18.826l.645 1.139.97-.855a16.307 16.307 0 0 1 7.843-3.818 70.38 70.38 0 0 0 6.713 11.362 65.825 65.825 0 0 0 12.723 3.248c.42 3.017.085 6.138-1.06 9.023l-.483 1.222 1.242.284c3.18.727 6.39 1.097 9.532 1.097l9.53-1.097 1.243-.284-.484-1.225c-1.143-2.885-1.478-6.009-1.057-9.026a65.74 65.74 0 0 0 12.674-3.242 70.469 70.469 0 0 0 6.72-11.372 16.378 16.378 0 0 1 7.883 3.82l.969.854.642-1.136a46.582 46.582 0 0 0 5.914-18.822l.119-1.314-1.247.1zm-29.287 16.092c-4.508 1.274-9.087 1.917-13.638 1.917-4.563 0-9.136-.642-13.648-1.917a55.91 55.91 0 0 1-5.842-12.785c-1.402-4.487-2.223-9.187-2.461-14.027 2.914-3.744 6.227-7.023 9.889-9.784a52.069 52.069 0 0 1 12.062-6.814 52.28 52.28 0 0 1 12.04 6.8c3.675 2.775 7.003 6.08 9.931 9.846-.25 4.813-1.08 9.486-2.485 13.965a55.73 55.73 0 0 1-5.848 12.8z"/></g><text font-family="sans-serif" font-size="16.8" font-weight="bold" fill="#4A4A4A" transform="translate(476.243 726)"><tspan x="21.134" y="15">ETCD</tspan></text><g fill="#419EDA" fill-rule="nonzero"><path d="M679.595 788.226c0 3.309-2.58 5.986-5.76 5.986-3.184 0-5.757-2.677-5.757-5.986 0-3.296 2.574-5.983 5.756-5.983 3.18 0 5.761 2.687 5.761 5.983zm7.443.001c0 3.31 2.58 5.986 5.761 5.986 3.18 0 5.758-2.677 5.758-5.986 0-3.297-2.578-5.984-5.758-5.984s-5.761 2.687-5.761 5.984z"/><path d="M726.311 794.904a14.59 14.59 0 0 1-1.274.052c-2.569 0-5.06-.625-7.309-1.772a72.955 72.955 0 0 0 .984-13.435 69.193 69.193 0 0 0-8.369-10.304c1.365-2.658 3.38-4.945 5.9-6.565l1.08-.694-.842-.988c-4.34-5.078-9.52-9.005-15.393-11.668l-1.171-.53-.298 1.286a17.423 17.423 0 0 1-4.174 7.872 65.487 65.487 0 0 0-12.059-5.163 65.543 65.543 0 0 0-12.04 5.152 17.419 17.419 0 0 1-4.16-7.854l-.3-1.286-1.166.527c-5.8 2.626-11.122 6.658-15.391 11.66l-.845.99 1.08.694c2.51 1.616 4.521 3.889 5.883 6.532a69.484 69.484 0 0 0-8.353 10.264 73.009 73.009 0 0 0 .96 13.528 16.04 16.04 0 0 1-7.268 1.754c-.448 0-.867-.017-1.274-.052l-1.269-.1.119 1.316a46.754 46.754 0 0 0 5.918 18.826l.645 1.139.97-.855a16.307 16.307 0 0 1 7.843-3.818 70.38 70.38 0 0 0 6.713 11.362 65.825 65.825 0 0 0 12.723 3.248c.42 3.017.085 6.138-1.06 9.023l-.483 1.222 1.242.284c3.18.727 6.39 1.097 9.532 1.097l9.53-1.097 1.243-.284-.484-1.225c-1.143-2.885-1.478-6.009-1.057-9.026a65.74 65.74 0 0 0 12.674-3.242 70.469 70.469 0 0 0 6.72-11.372 16.378 16.378 0 0 1 7.883 3.82l.969.854.642-1.136a46.582 46.582 0 0 0 5.914-18.822l.119-1.314-1.247.1zm-29.287 16.092c-4.508 1.274-9.087 1.917-13.638 1.917-4.563 0-9.136-.642-13.648-1.917a55.91 55.91 0 0 1-5.842-12.785c-1.402-4.487-2.223-9.187-2.461-14.027 2.914-3.744 6.227-7.023 9.889-9.784a52.069 52.069 0 0 1 12.062-6.814 52.28 52.28 0 0 1 12.04 6.8c3.675 2.775 7.003 6.08 9.931 9.846-.25 4.813-1.08 9.486-2.485 13.965a55.73 55.73 0 0 1-5.848 12.8z"/></g><text font-family="sans-serif" font-size="16.8" font-weight="bold" fill="#4A4A4A" transform="translate(476.243 726)"><tspan x="184.134" y="15">ETCD</tspan></text><g fill="#B8E986"><path d="M978.307 725.565l-24.85-27.618 35.078-8.098z"/><path d="M921.396 499.062l9.744-2.25 50.39 218.26-9.745 2.249z"/></g><g fill="#B8E986"><path d="M890.307 489.002l-24.85 27.618 35.078 8.098z"/><path d="M833.397 715.505l9.743 2.25 50.39-218.26-9.744-2.249z"/></g><g fill="#B8E986"><path d="M949.093 781.6l-22.75 12.6V769z"/><path d="M884.243 784.75v-7h58.2v7zm-6.85 15.85l22.75 12.6V788z"/><path d="M942.243 803.75v-7h-58.2v7z"/></g><g fill="#419EDA" fill-rule="nonzero"><path d="M823.595 788.226c0 3.309-2.58 5.986-5.76 5.986-3.184 0-5.757-2.677-5.757-5.986 0-3.296 2.574-5.983 5.756-5.983 3.18 0 5.761 2.687 5.761 5.983zm7.443.001c0 3.31 2.58 5.986 5.761 5.986 3.18 0 5.758-2.677 5.758-5.986 0-3.297-2.578-5.984-5.758-5.984s-5.761 2.687-5.761 5.984z"/><path d="M870.311 794.904a14.59 14.59 0 0 1-1.274.052c-2.569 0-5.06-.625-7.309-1.772a72.955 72.955 0 0 0 .984-13.435 69.193 69.193 0 0 0-8.369-10.304c1.365-2.658 3.38-4.945 5.9-6.565l1.08-.694-.842-.988c-4.34-5.078-9.52-9.005-15.393-11.668l-1.171-.53-.298 1.286a17.423 17.423 0 0 1-4.174 7.872 65.487 65.487 0 0 0-12.059-5.163 65.543 65.543 0 0 0-12.04 5.152 17.419 17.419 0 0 1-4.16-7.854l-.3-1.286-1.166.527c-5.8 2.626-11.122 6.658-15.391 11.66l-.845.99 1.08.694c2.51 1.616 4.521 3.889 5.883 6.532a69.484 69.484 0 0 0-8.353 10.264 73.009 73.009 0 0 0 .96 13.528 16.04 16.04 0 0 1-7.268 1.754c-.448 0-.867-.017-1.274-.052l-1.269-.1.119 1.316a46.754 46.754 0 0 0 5.918 18.826l.645 1.139.97-.855a16.307 16.307 0 0 1 7.843-3.818 70.38 70.38 0 0 0 6.713 11.362 65.825 65.825 0 0 0 12.723 3.248c.42 3.017.085 6.138-1.06 9.023l-.483 1.222 1.242.284c3.18.727 6.39 1.097 9.532 1.097l9.53-1.097 1.243-.284-.484-1.225c-1.143-2.885-1.478-6.009-1.057-9.026a65.74 65.74 0 0 0 12.674-3.242 70.469 70.469 0 0 0 6.72-11.372 16.378 16.378 0 0 1 7.883 3.82l.969.854.642-1.136a46.582 46.582 0 0 0 5.914-18.822l.119-1.314-1.247.1zm-29.287 16.092c-4.508 1.274-9.087 1.917-13.638 1.917-4.563 0-9.136-.642-13.648-1.917a55.91 55.91 0 0 1-5.842-12.785c-1.402-4.487-2.223-9.187-2.461-14.027 2.914-3.744 6.227-7.023 9.889-9.784a52.069 52.069 0 0 1 12.062-6.814 52.28 52.28 0 0 1 12.04 6.8c3.675 2.775 7.003 6.08 9.931 9.846-.25 4.813-1.08 9.486-2.485 13.965a55.73 55.73 0 0 1-5.848 12.8z"/></g><text font-family="sans-serif" font-size="16.8" font-weight="bold" fill="#4A4A4A" transform="translate(783.243 726)"><tspan x="21.134" y="15">ETCD</tspan></text><g fill="#419EDA" fill-rule="nonzero"><path d="M986.595 788.226c0 3.309-2.58 5.986-5.76 5.986-3.184 0-5.757-2.677-5.757-5.986 0-3.296 2.574-5.983 5.756-5.983 3.18 0 5.761 2.687 5.761 5.983zm7.443.001c0 3.31 2.58 5.986 5.761 5.986 3.18 0 5.758-2.677 5.758-5.986 0-3.297-2.578-5.984-5.758-5.984s-5.761 2.687-5.761 5.984z"/><path d="M1033.311 794.904a14.59 14.59 0 0 1-1.274.052c-2.569 0-5.06-.625-7.309-1.772a72.955 72.955 0 0 0 .984-13.435 69.193 69.193 0 0 0-8.369-10.304c1.365-2.658 3.38-4.945 5.9-6.565l1.08-.694-.842-.988c-4.34-5.078-9.52-9.005-15.393-11.668l-1.171-.53-.298 1.286a17.423 17.423 0 0 1-4.174 7.872 65.487 65.487 0 0 0-12.059-5.163 65.543 65.543 0 0 0-12.04 5.152 17.419 17.419 0 0 1-4.16-7.854l-.3-1.286-1.166.527c-5.8 2.626-11.122 6.658-15.391 11.66l-.845.99 1.08.694c2.51 1.616 4.521 3.889 5.883 6.532a69.484 69.484 0 0 0-8.353 10.264 73.009 73.009 0 0 0 .96 13.528 16.04 16.04 0 0 1-7.268 1.754c-.448 0-.867-.017-1.274-.052l-1.269-.1.119 1.316a46.754 46.754 0 0 0 5.918 18.826l.645 1.139.97-.855a16.307 16.307 0 0 1 7.843-3.818 70.38 70.38 0 0 0 6.713 11.362 65.825 65.825 0 0 0 12.723 3.248c.42 3.017.085 6.138-1.06 9.023l-.483 1.222 1.242.284c3.18.727 6.39 1.097 9.532 1.097l9.53-1.097 1.243-.284-.484-1.225c-1.143-2.885-1.478-6.009-1.057-9.026a65.74 65.74 0 0 0 12.674-3.242 70.469 70.469 0 0 0 6.72-11.372 16.378 16.378 0 0 1 7.883 3.82l.969.854.642-1.136a46.582 46.582 0 0 0 5.914-18.822l.119-1.314-1.247.1zm-29.287 16.092c-4.508 1.274-9.087 1.917-13.638 1.917-4.563 0-9.136-.642-13.648-1.917a55.91 55.91 0 0 1-5.842-12.785c-1.402-4.487-2.223-9.187-2.461-14.027 2.914-3.744 6.227-7.023 9.889-9.784a52.069 52.069 0 0 1 12.062-6.814 52.28 52.28 0 0 1 12.04 6.8c3.675 2.775 7.003 6.08 9.931 9.846-.25 4.813-1.08 9.486-2.485 13.965a55.73 55.73 0 0 1-5.848 12.8z"/></g><text font-family="sans-serif" font-size="16.8" font-weight="bold" fill="#4A4A4A" transform="translate(783.243 726)"><tspan x="184.134" y="15">ETCD</tspan></text><g fill="#419EDA" fill-rule="nonzero"><path d="M596.352 448.226c0 3.309-2.58 5.986-5.76 5.986-3.184 0-5.757-2.677-5.757-5.986 0-3.296 2.574-5.983 5.756-5.983 3.18 0 5.761 2.687 5.761 5.983zm7.443.001c0 3.31 2.58 5.986 5.761 5.986 3.18 0 5.758-2.677 5.758-5.986 0-3.297-2.578-5.984-5.758-5.984s-5.761 2.687-5.761 5.984z"/><path d="M643.068 454.904a14.59 14.59 0 0 1-1.274.052c-2.569 0-5.06-.625-7.309-1.772a72.955 72.955 0 0 0 .984-13.435 69.193 69.193 0 0 0-8.369-10.304c1.365-2.658 3.38-4.945 5.9-6.565l1.08-.694-.842-.988c-4.34-5.078-9.52-9.005-15.393-11.668l-1.171-.53-.298 1.286a17.423 17.423 0 0 1-4.174 7.872 65.487 65.487 0 0 0-12.059-5.163 65.543 65.543 0 0 0-12.04 5.152 17.419 17.419 0 0 1-4.16-7.854l-.3-1.286-1.166.527c-5.8 2.626-11.122 6.658-15.391 11.66l-.845.99 1.08.694c2.51 1.616 4.521 3.889 5.883 6.532a69.484 69.484 0 0 0-8.353 10.264 73.009 73.009 0 0 0 .96 13.528 16.04 16.04 0 0 1-7.268 1.754c-.448 0-.867-.017-1.274-.052l-1.269-.1.119 1.316a46.754 46.754 0 0 0 5.918 18.826l.645 1.139.97-.855a16.307 16.307 0 0 1 7.843-3.818 70.38 70.38 0 0 0 6.713 11.362 65.825 65.825 0 0 0 12.723 3.248c.42 3.017.085 6.138-1.06 9.023l-.483 1.222 1.242.284c3.18.727 6.39 1.097 9.532 1.097l9.53-1.097 1.243-.284-.484-1.225c-1.143-2.885-1.478-6.009-1.057-9.026a65.74 65.74 0 0 0 12.674-3.242 70.469 70.469 0 0 0 6.72-11.372 16.378 16.378 0 0 1 7.883 3.82l.969.854.642-1.136a46.582 46.582 0 0 0 5.914-18.822l.119-1.314-1.247.1zm-29.287 16.092c-4.508 1.274-9.087 1.917-13.638 1.917-4.563 0-9.136-.642-13.648-1.917a55.91 55.91 0 0 1-5.842-12.785c-1.402-4.487-2.223-9.187-2.461-14.027 2.914-3.744 6.227-7.023 9.889-9.784a52.069 52.069 0 0 1 12.062-6.814 52.28 52.28 0 0 1 12.04 6.8c3.675 2.775 7.003 6.08 9.931 9.846-.25 4.813-1.08 9.486-2.485 13.965a55.73 55.73 0 0 1-5.848 12.8z"/></g><text font-family="sans-serif" font-size="16.8" font-weight="bold" fill="#4A4A4A"><tspan x="577.134" y="401">ETCD</tspan></text><g fill="#419EDA" fill-rule="nonzero"><path d="M903.352 448.226c0 3.309-2.58 5.986-5.76 5.986-3.184 0-5.757-2.677-5.757-5.986 0-3.296 2.574-5.983 5.756-5.983 3.18 0 5.761 2.687 5.761 5.983zm7.443.001c0 3.31 2.58 5.986 5.761 5.986 3.18 0 5.758-2.677 5.758-5.986 0-3.297-2.578-5.984-5.758-5.984s-5.761 2.687-5.761 5.984z"/><path d="M950.068 454.904a14.59 14.59 0 0 1-1.274.052c-2.569 0-5.06-.625-7.309-1.772a72.955 72.955 0 0 0 .984-13.435 69.193 69.193 0 0 0-8.369-10.304c1.365-2.658 3.38-4.945 5.9-6.565l1.08-.694-.842-.988c-4.34-5.078-9.52-9.005-15.393-11.668l-1.171-.53-.298 1.286a17.423 17.423 0 0 1-4.174 7.872 65.487 65.487 0 0 0-12.059-5.163 65.543 65.543 0 0 0-12.04 5.152 17.419 17.419 0 0 1-4.16-7.854l-.3-1.286-1.166.527c-5.8 2.626-11.122 6.658-15.391 11.66l-.845.99 1.08.694c2.51 1.616 4.521 3.889 5.883 6.532a69.484 69.484 0 0 0-8.353 10.264 73.009 73.009 0 0 0 .96 13.528 16.04 16.04 0 0 1-7.268 1.754c-.448 0-.867-.017-1.274-.052l-1.269-.1.119 1.316a46.754 46.754 0 0 0 5.918 18.826l.645 1.139.97-.855a16.307 16.307 0 0 1 7.843-3.818 70.38 70.38 0 0 0 6.713 11.362 65.825 65.825 0 0 0 12.723 3.248c.42 3.017.085 6.138-1.06 9.023l-.483 1.222 1.242.284c3.18.727 6.39 1.097 9.532 1.097l9.53-1.097 1.243-.284-.484-1.225c-1.143-2.885-1.478-6.009-1.057-9.026a65.74 65.74 0 0 0 12.674-3.242 70.469 70.469 0 0 0 6.72-11.372 16.378 16.378 0 0 1 7.883 3.82l.969.854.642-1.136a46.582 46.582 0 0 0 5.914-18.822l.119-1.314-1.247.1zm-29.287 16.092c-4.508 1.274-9.087 1.917-13.638 1.917-4.563 0-9.136-.642-13.648-1.917a55.91 55.91 0 0 1-5.842-12.785c-1.402-4.487-2.223-9.187-2.461-14.027 2.914-3.744 6.227-7.023 9.889-9.784a52.069 52.069 0 0 1 12.062-6.814 52.28 52.28 0 0 1 12.04 6.8c3.675 2.775 7.003 6.08 9.931 9.846-.25 4.813-1.08 9.486-2.485 13.965a55.73 55.73 0 0 1-5.848 12.8z"/></g><text font-family="sans-serif" font-size="16.8" font-weight="bold" fill="#4A4A4A"><tspan x="884.134" y="401">ETCD</tspan></text><text font-family="sans-serif" font-size="28" font-weight="bold" fill="#4A4A4A"><tspan x="246.083" y="256">master</tspan></text><text font-family="sans-serif" font-size="28" font-weight="bold" fill="#4A4A4A"><tspan x="555.083" y="256">master</tspan></text><text font-family="sans-serif" font-size="28" font-weight="bold" fill="#4A4A4A"><tspan x="863.083" y="256">master</tspan></text><g transform="translate(353 180)" fill-rule="nonzero"><path fill="#9EEBCF" d="M7-1v103H4V-1z"/><circle stroke="#9EEBCF" stroke-width="3" fill="#FFF" cx="5.5" cy="-1.5" r="6.5"/><path fill="#9EEBCF" d="M5.5 106L0 98h11z"/></g><g transform="translate(661 180)" fill-rule="nonzero"><path fill="#9EEBCF" d="M7-1v103H4V-1z"/><circle stroke="#9EEBCF" stroke-width="3" fill="#FFF" cx="5.5" cy="-1.5" r="6.5"/><path fill="#9EEBCF" d="M5.5 106L0 98h11z"/></g><g transform="translate(969 180)" fill-rule="nonzero"><path fill="#9EEBCF" d="M7-1v103H4V-1z"/><circle stroke="#9EEBCF" stroke-width="3" fill="#FFF" cx="5.5" cy="-1.5" r="6.5"/><path fill="#9EEBCF" d="M5.5 106L0 98h11z"/></g><g opacity=".3" fill="#B8E986"><path d="M476.85 781.6l-22.75 12.6V769z"/><path d="M419 784.75v-7h51.2v7z"/></g><g opacity=".3" fill="#B8E986"><path d="M419.15 800.6l22.75 12.6V788z"/><path d="M474 803.75v-7h-48.2v7z"/></g><g opacity=".3" fill="#B8E986"><path d="M788.335 781.6l-22.75 12.6V769z"/><path d="M730.485 784.75v-7h51.2v7z"/></g><g opacity=".3" fill="#B8E986"><path d="M730.635 800.6l22.75 12.6V788z"/><path d="M785.485 803.75v-7h-48.2v7z"/></g></g></svg>