<svg viewBox="0 0 1200 900" xmlns="http://www.w3.org/2000/svg"><g fill="none" fill-rule="evenodd"><g transform="translate(990 667)"><path d="M144.48 183.12v16.8a1.68 1.68 0 0 1-1.68 1.68H1.68A1.68 1.68 0 0 1 0 199.92v-16.8c0-.928.752-1.68 1.68-1.68H142.8c.928 0 1.68.752 1.68 1.68z" fill="#7C7C7C"/><path fill="#D8D8D8" d="M20.496 185.808h95.424v2.688H20.496z"/><path fill="#D7D7D7" d="M4.368 185.808h6.048v2.688H4.368z"/><path fill="#D7D400" d="M129.36 185.808h2.688v2.688h-2.688z"/><path fill="#FF3C00" d="M125.328 185.808h2.688v2.688h-2.688z"/><path fill="#00CD00" d="M134.064 185.808h6.048v2.688h-6.048z"/><path fill="#D8D8D8" d="M20.496 190.176h95.424v2.688H20.496z"/><path fill="#D7D7D7" d="M4.368 190.176h6.048v2.688H4.368z"/><path fill="#D7D400" d="M129.36 190.176h2.688v2.688h-2.688z"/><path fill="#FF3C00" d="M125.328 190.176h2.688v2.688h-2.688z"/><path fill="#00CD00" d="M134.064 190.176h6.048v2.688h-6.048z"/><g><path fill="#D8D8D8" d="M20.496 194.544h95.424v2.688H20.496z"/><path fill="#D7D7D7" d="M4.368 194.544h6.048v2.688H4.368z"/><path fill="#D7D400" d="M129.36 194.544h2.688v2.688h-2.688z"/><path fill="#FF3C00" d="M125.328 194.544h2.688v2.688h-2.688z"/><path fill="#00CD00" d="M134.064 194.544h6.048v2.688h-6.048z"/></g><path d="M144.48 1.68v175.392a1.68 1.68 0 0 1-1.68 1.68H1.68a1.68 1.68 0 0 1-1.68-1.68V1.68C0 .752.752 0 1.68 0H142.8c.928 0 1.68.752 1.68 1.68z" fill="#7C7C7C"/><rect fill="#FFF" x="4.368" y="10.752" width="135.744" height="155.904" rx=".672"/><path fill="#D7D7D7" d="M4.368 4.032h135.744V6.72H4.368zm0 166.656h135.744v2.688H4.368z"/></g><g transform="translate(836 667)"><path d="M144.48 183.12v16.8a1.68 1.68 0 0 1-1.68 1.68H1.68A1.68 1.68 0 0 1 0 199.92v-16.8c0-.928.752-1.68 1.68-1.68H142.8c.928 0 1.68.752 1.68 1.68z" fill="#7C7C7C"/><path fill="#D8D8D8" d="M20.496 185.808h95.424v2.688H20.496z"/><path fill="#D7D7D7" d="M4.368 185.808h6.048v2.688H4.368z"/><path fill="#D7D400" d="M129.36 185.808h2.688v2.688h-2.688z"/><path fill="#FF3C00" d="M125.328 185.808h2.688v2.688h-2.688z"/><path fill="#00CD00" d="M134.064 185.808h6.048v2.688h-6.048z"/><path fill="#D8D8D8" d="M20.496 190.176h95.424v2.688H20.496z"/><path fill="#D7D7D7" d="M4.368 190.176h6.048v2.688H4.368z"/><path fill="#D7D400" d="M129.36 190.176h2.688v2.688h-2.688z"/><path fill="#FF3C00" d="M125.328 190.176h2.688v2.688h-2.688z"/><path fill="#00CD00" d="M134.064 190.176h6.048v2.688h-6.048z"/><g><path fill="#D8D8D8" d="M20.496 194.544h95.424v2.688H20.496z"/><path fill="#D7D7D7" d="M4.368 194.544h6.048v2.688H4.368z"/><path fill="#D7D400" d="M129.36 194.544h2.688v2.688h-2.688z"/><path fill="#FF3C00" d="M125.328 194.544h2.688v2.688h-2.688z"/><path fill="#00CD00" d="M134.064 194.544h6.048v2.688h-6.048z"/></g><path d="M144.48 1.68v175.392a1.68 1.68 0 0 1-1.68 1.68H1.68a1.68 1.68 0 0 1-1.68-1.68V1.68C0 .752.752 0 1.68 0H142.8c.928 0 1.68.752 1.68 1.68z" fill="#7C7C7C"/><rect fill="#FFF" x="4.368" y="10.752" width="135.744" height="155.904" rx=".672"/><path fill="#D7D7D7" d="M4.368 4.032h135.744V6.72H4.368zm0 166.656h135.744v2.688H4.368z"/></g><g transform="translate(682 667)"><path d="M144.48 183.12v16.8a1.68 1.68 0 0 1-1.68 1.68H1.68A1.68 1.68 0 0 1 0 199.92v-16.8c0-.928.752-1.68 1.68-1.68H142.8c.928 0 1.68.752 1.68 1.68z" fill="#7C7C7C"/><path fill="#D8D8D8" d="M20.496 185.808h95.424v2.688H20.496z"/><path fill="#D7D7D7" d="M4.368 185.808h6.048v2.688H4.368z"/><path fill="#D7D400" d="M129.36 185.808h2.688v2.688h-2.688z"/><path fill="#FF3C00" d="M125.328 185.808h2.688v2.688h-2.688z"/><path fill="#00CD00" d="M134.064 185.808h6.048v2.688h-6.048z"/><path fill="#D8D8D8" d="M20.496 190.176h95.424v2.688H20.496z"/><path fill="#D7D7D7" d="M4.368 190.176h6.048v2.688H4.368z"/><path fill="#D7D400" d="M129.36 190.176h2.688v2.688h-2.688z"/><path fill="#FF3C00" d="M125.328 190.176h2.688v2.688h-2.688z"/><path fill="#00CD00" d="M134.064 190.176h6.048v2.688h-6.048z"/><g><path fill="#D8D8D8" d="M20.496 194.544h95.424v2.688H20.496z"/><path fill="#D7D7D7" d="M4.368 194.544h6.048v2.688H4.368z"/><path fill="#D7D400" d="M129.36 194.544h2.688v2.688h-2.688z"/><path fill="#FF3C00" d="M125.328 194.544h2.688v2.688h-2.688z"/><path fill="#00CD00" d="M134.064 194.544h6.048v2.688h-6.048z"/></g><path d="M144.48 1.68v175.392a1.68 1.68 0 0 1-1.68 1.68H1.68a1.68 1.68 0 0 1-1.68-1.68V1.68C0 .752.752 0 1.68 0H142.8c.928 0 1.68.752 1.68 1.68z" fill="#7C7C7C"/><rect fill="#FFF" x="4.368" y="10.752" width="135.744" height="155.904" rx=".672"/><path fill="#D7D7D7" d="M4.368 4.032h135.744V6.72H4.368zm0 166.656h135.744v2.688H4.368z"/></g><g transform="translate(528 667)"><path d="M144.48 183.12v16.8a1.68 1.68 0 0 1-1.68 1.68H1.68A1.68 1.68 0 0 1 0 199.92v-16.8c0-.928.752-1.68 1.68-1.68H142.8c.928 0 1.68.752 1.68 1.68z" fill="#7C7C7C"/><path fill="#D8D8D8" d="M20.496 185.808h95.424v2.688H20.496z"/><path fill="#D7D7D7" d="M4.368 185.808h6.048v2.688H4.368z"/><path fill="#D7D400" d="M129.36 185.808h2.688v2.688h-2.688z"/><path fill="#FF3C00" d="M125.328 185.808h2.688v2.688h-2.688z"/><path fill="#00CD00" d="M134.064 185.808h6.048v2.688h-6.048z"/><path fill="#D8D8D8" d="M20.496 190.176h95.424v2.688H20.496z"/><path fill="#D7D7D7" d="M4.368 190.176h6.048v2.688H4.368z"/><path fill="#D7D400" d="M129.36 190.176h2.688v2.688h-2.688z"/><path fill="#FF3C00" d="M125.328 190.176h2.688v2.688h-2.688z"/><path fill="#00CD00" d="M134.064 190.176h6.048v2.688h-6.048z"/><g><path fill="#D8D8D8" d="M20.496 194.544h95.424v2.688H20.496z"/><path fill="#D7D7D7" d="M4.368 194.544h6.048v2.688H4.368z"/><path fill="#D7D400" d="M129.36 194.544h2.688v2.688h-2.688z"/><path fill="#FF3C00" d="M125.328 194.544h2.688v2.688h-2.688z"/><path fill="#00CD00" d="M134.064 194.544h6.048v2.688h-6.048z"/></g><path d="M144.48 1.68v175.392a1.68 1.68 0 0 1-1.68 1.68H1.68a1.68 1.68 0 0 1-1.68-1.68V1.68C0 .752.752 0 1.68 0H142.8c.928 0 1.68.752 1.68 1.68z" fill="#7C7C7C"/><rect fill="#FFF" x="4.368" y="10.752" width="135.744" height="155.904" rx=".672"/><path fill="#D7D7D7" d="M4.368 4.032h135.744V6.72H4.368zm0 166.656h135.744v2.688H4.368z"/></g><g transform="translate(374 667)"><path d="M144.48 183.12v16.8a1.68 1.68 0 0 1-1.68 1.68H1.68A1.68 1.68 0 0 1 0 199.92v-16.8c0-.928.752-1.68 1.68-1.68H142.8c.928 0 1.68.752 1.68 1.68z" fill="#7C7C7C"/><path fill="#D8D8D8" d="M20.496 185.808h95.424v2.688H20.496z"/><path fill="#D7D7D7" d="M4.368 185.808h6.048v2.688H4.368z"/><path fill="#D7D400" d="M129.36 185.808h2.688v2.688h-2.688z"/><path fill="#FF3C00" d="M125.328 185.808h2.688v2.688h-2.688z"/><path fill="#00CD00" d="M134.064 185.808h6.048v2.688h-6.048z"/><path fill="#D8D8D8" d="M20.496 190.176h95.424v2.688H20.496z"/><path fill="#D7D7D7" d="M4.368 190.176h6.048v2.688H4.368z"/><path fill="#D7D400" d="M129.36 190.176h2.688v2.688h-2.688z"/><path fill="#FF3C00" d="M125.328 190.176h2.688v2.688h-2.688z"/><path fill="#00CD00" d="M134.064 190.176h6.048v2.688h-6.048z"/><g><path fill="#D8D8D8" d="M20.496 194.544h95.424v2.688H20.496z"/><path fill="#D7D7D7" d="M4.368 194.544h6.048v2.688H4.368z"/><path fill="#D7D400" d="M129.36 194.544h2.688v2.688h-2.688z"/><path fill="#FF3C00" d="M125.328 194.544h2.688v2.688h-2.688z"/><path fill="#00CD00" d="M134.064 194.544h6.048v2.688h-6.048z"/></g><path d="M144.48 1.68v175.392a1.68 1.68 0 0 1-1.68 1.68H1.68a1.68 1.68 0 0 1-1.68-1.68V1.68C0 .752.752 0 1.68 0H142.8c.928 0 1.68.752 1.68 1.68z" fill="#7C7C7C"/><rect fill="#FFF" x="4.368" y="10.752" width="135.744" height="155.904" rx=".672"/><path fill="#D7D7D7" d="M4.368 4.032h135.744V6.72H4.368zm0 166.656h135.744v2.688H4.368z"/></g><g transform="translate(220 667)"><path d="M144.48 183.12v16.8a1.68 1.68 0 0 1-1.68 1.68H1.68A1.68 1.68 0 0 1 0 199.92v-16.8c0-.928.752-1.68 1.68-1.68H142.8c.928 0 1.68.752 1.68 1.68z" fill="#7C7C7C"/><path fill="#D8D8D8" d="M20.496 185.808h95.424v2.688H20.496z"/><path fill="#D7D7D7" d="M4.368 185.808h6.048v2.688H4.368z"/><path fill="#D7D400" d="M129.36 185.808h2.688v2.688h-2.688z"/><path fill="#FF3C00" d="M125.328 185.808h2.688v2.688h-2.688z"/><path fill="#00CD00" d="M134.064 185.808h6.048v2.688h-6.048z"/><path fill="#D8D8D8" d="M20.496 190.176h95.424v2.688H20.496z"/><path fill="#D7D7D7" d="M4.368 190.176h6.048v2.688H4.368z"/><path fill="#D7D400" d="M129.36 190.176h2.688v2.688h-2.688z"/><path fill="#FF3C00" d="M125.328 190.176h2.688v2.688h-2.688z"/><path fill="#00CD00" d="M134.064 190.176h6.048v2.688h-6.048z"/><g><path fill="#D8D8D8" d="M20.496 194.544h95.424v2.688H20.496z"/><path fill="#D7D7D7" d="M4.368 194.544h6.048v2.688H4.368z"/><path fill="#D7D400" d="M129.36 194.544h2.688v2.688h-2.688z"/><path fill="#FF3C00" d="M125.328 194.544h2.688v2.688h-2.688z"/><path fill="#00CD00" d="M134.064 194.544h6.048v2.688h-6.048z"/></g><path d="M144.48 1.68v175.392a1.68 1.68 0 0 1-1.68 1.68H1.68a1.68 1.68 0 0 1-1.68-1.68V1.68C0 .752.752 0 1.68 0H142.8c.928 0 1.68.752 1.68 1.68z" fill="#7C7C7C"/><rect fill="#FFF" x="4.368" y="10.752" width="135.744" height="155.904" rx=".672"/><path fill="#D7D7D7" d="M4.368 4.032h135.744V6.72H4.368zm0 166.656h135.744v2.688H4.368z"/></g><g transform="translate(66 667)"><path d="M144.48 183.12v16.8a1.68 1.68 0 0 1-1.68 1.68H1.68A1.68 1.68 0 0 1 0 199.92v-16.8c0-.928.752-1.68 1.68-1.68H142.8c.928 0 1.68.752 1.68 1.68z" fill="#7C7C7C"/><path fill="#D8D8D8" d="M20.496 185.808h95.424v2.688H20.496z"/><path fill="#D7D7D7" d="M4.368 185.808h6.048v2.688H4.368z"/><path fill="#D7D400" d="M129.36 185.808h2.688v2.688h-2.688z"/><path fill="#FF3C00" d="M125.328 185.808h2.688v2.688h-2.688z"/><path fill="#00CD00" d="M134.064 185.808h6.048v2.688h-6.048z"/><path fill="#D8D8D8" d="M20.496 190.176h95.424v2.688H20.496z"/><path fill="#D7D7D7" d="M4.368 190.176h6.048v2.688H4.368z"/><path fill="#D7D400" d="M129.36 190.176h2.688v2.688h-2.688z"/><path fill="#FF3C00" d="M125.328 190.176h2.688v2.688h-2.688z"/><path fill="#00CD00" d="M134.064 190.176h6.048v2.688h-6.048z"/><g><path fill="#D8D8D8" d="M20.496 194.544h95.424v2.688H20.496z"/><path fill="#D7D7D7" d="M4.368 194.544h6.048v2.688H4.368z"/><path fill="#D7D400" d="M129.36 194.544h2.688v2.688h-2.688z"/><path fill="#FF3C00" d="M125.328 194.544h2.688v2.688h-2.688z"/><path fill="#00CD00" d="M134.064 194.544h6.048v2.688h-6.048z"/></g><path d="M144.48 1.68v175.392a1.68 1.68 0 0 1-1.68 1.68H1.68a1.68 1.68 0 0 1-1.68-1.68V1.68C0 .752.752 0 1.68 0H142.8c.928 0 1.68.752 1.68 1.68z" fill="#7C7C7C"/><rect fill="#FFF" x="4.368" y="10.752" width="135.744" height="155.904" rx=".672"/><path fill="#D7D7D7" d="M4.368 4.032h135.744V6.72H4.368zm0 166.656h135.744v2.688H4.368z"/></g><g transform="translate(990 455)"><path d="M144.48 183.12v16.8a1.68 1.68 0 0 1-1.68 1.68H1.68A1.68 1.68 0 0 1 0 199.92v-16.8c0-.928.752-1.68 1.68-1.68H142.8c.928 0 1.68.752 1.68 1.68z" fill="#7C7C7C"/><path fill="#D8D8D8" d="M20.496 185.808h95.424v2.688H20.496z"/><path fill="#D7D7D7" d="M4.368 185.808h6.048v2.688H4.368z"/><path fill="#D7D400" d="M129.36 185.808h2.688v2.688h-2.688z"/><path fill="#FF3C00" d="M125.328 185.808h2.688v2.688h-2.688z"/><path fill="#00CD00" d="M134.064 185.808h6.048v2.688h-6.048z"/><path fill="#D8D8D8" d="M20.496 190.176h95.424v2.688H20.496z"/><path fill="#D7D7D7" d="M4.368 190.176h6.048v2.688H4.368z"/><path fill="#D7D400" d="M129.36 190.176h2.688v2.688h-2.688z"/><path fill="#FF3C00" d="M125.328 190.176h2.688v2.688h-2.688z"/><path fill="#00CD00" d="M134.064 190.176h6.048v2.688h-6.048z"/><g><path fill="#D8D8D8" d="M20.496 194.544h95.424v2.688H20.496z"/><path fill="#D7D7D7" d="M4.368 194.544h6.048v2.688H4.368z"/><path fill="#D7D400" d="M129.36 194.544h2.688v2.688h-2.688z"/><path fill="#FF3C00" d="M125.328 194.544h2.688v2.688h-2.688z"/><path fill="#00CD00" d="M134.064 194.544h6.048v2.688h-6.048z"/></g><path d="M144.48 1.68v175.392a1.68 1.68 0 0 1-1.68 1.68H1.68a1.68 1.68 0 0 1-1.68-1.68V1.68C0 .752.752 0 1.68 0H142.8c.928 0 1.68.752 1.68 1.68z" fill="#7C7C7C"/><rect fill="#FFF" x="4.368" y="10.752" width="135.744" height="155.904" rx=".672"/><path fill="#D7D7D7" d="M4.368 4.032h135.744V6.72H4.368zm0 166.656h135.744v2.688H4.368z"/></g><g transform="translate(836 455)"><path d="M144.48 183.12v16.8a1.68 1.68 0 0 1-1.68 1.68H1.68A1.68 1.68 0 0 1 0 199.92v-16.8c0-.928.752-1.68 1.68-1.68H142.8c.928 0 1.68.752 1.68 1.68z" fill="#7C7C7C"/><path fill="#D8D8D8" d="M20.496 185.808h95.424v2.688H20.496z"/><path fill="#D7D7D7" d="M4.368 185.808h6.048v2.688H4.368z"/><path fill="#D7D400" d="M129.36 185.808h2.688v2.688h-2.688z"/><path fill="#FF3C00" d="M125.328 185.808h2.688v2.688h-2.688z"/><path fill="#00CD00" d="M134.064 185.808h6.048v2.688h-6.048z"/><path fill="#D8D8D8" d="M20.496 190.176h95.424v2.688H20.496z"/><path fill="#D7D7D7" d="M4.368 190.176h6.048v2.688H4.368z"/><path fill="#D7D400" d="M129.36 190.176h2.688v2.688h-2.688z"/><path fill="#FF3C00" d="M125.328 190.176h2.688v2.688h-2.688z"/><path fill="#00CD00" d="M134.064 190.176h6.048v2.688h-6.048z"/><g><path fill="#D8D8D8" d="M20.496 194.544h95.424v2.688H20.496z"/><path fill="#D7D7D7" d="M4.368 194.544h6.048v2.688H4.368z"/><path fill="#D7D400" d="M129.36 194.544h2.688v2.688h-2.688z"/><path fill="#FF3C00" d="M125.328 194.544h2.688v2.688h-2.688z"/><path fill="#00CD00" d="M134.064 194.544h6.048v2.688h-6.048z"/></g><path d="M144.48 1.68v175.392a1.68 1.68 0 0 1-1.68 1.68H1.68a1.68 1.68 0 0 1-1.68-1.68V1.68C0 .752.752 0 1.68 0H142.8c.928 0 1.68.752 1.68 1.68z" fill="#7C7C7C"/><rect fill="#FFF" x="4.368" y="10.752" width="135.744" height="155.904" rx=".672"/><path fill="#D7D7D7" d="M4.368 4.032h135.744V6.72H4.368zm0 166.656h135.744v2.688H4.368z"/></g><g transform="translate(682 455)"><path d="M144.48 183.12v16.8a1.68 1.68 0 0 1-1.68 1.68H1.68A1.68 1.68 0 0 1 0 199.92v-16.8c0-.928.752-1.68 1.68-1.68H142.8c.928 0 1.68.752 1.68 1.68z" fill="#7C7C7C"/><path fill="#D8D8D8" d="M20.496 185.808h95.424v2.688H20.496z"/><path fill="#D7D7D7" d="M4.368 185.808h6.048v2.688H4.368z"/><path fill="#D7D400" d="M129.36 185.808h2.688v2.688h-2.688z"/><path fill="#FF3C00" d="M125.328 185.808h2.688v2.688h-2.688z"/><path fill="#00CD00" d="M134.064 185.808h6.048v2.688h-6.048z"/><path fill="#D8D8D8" d="M20.496 190.176h95.424v2.688H20.496z"/><path fill="#D7D7D7" d="M4.368 190.176h6.048v2.688H4.368z"/><path fill="#D7D400" d="M129.36 190.176h2.688v2.688h-2.688z"/><path fill="#FF3C00" d="M125.328 190.176h2.688v2.688h-2.688z"/><path fill="#00CD00" d="M134.064 190.176h6.048v2.688h-6.048z"/><g><path fill="#D8D8D8" d="M20.496 194.544h95.424v2.688H20.496z"/><path fill="#D7D7D7" d="M4.368 194.544h6.048v2.688H4.368z"/><path fill="#D7D400" d="M129.36 194.544h2.688v2.688h-2.688z"/><path fill="#FF3C00" d="M125.328 194.544h2.688v2.688h-2.688z"/><path fill="#00CD00" d="M134.064 194.544h6.048v2.688h-6.048z"/></g><path d="M144.48 1.68v175.392a1.68 1.68 0 0 1-1.68 1.68H1.68a1.68 1.68 0 0 1-1.68-1.68V1.68C0 .752.752 0 1.68 0H142.8c.928 0 1.68.752 1.68 1.68z" fill="#7C7C7C"/><rect fill="#FFF" x="4.368" y="10.752" width="135.744" height="155.904" rx=".672"/><path fill="#D7D7D7" d="M4.368 4.032h135.744V6.72H4.368zm0 166.656h135.744v2.688H4.368z"/></g><g transform="translate(528 455)"><path d="M144.48 183.12v16.8a1.68 1.68 0 0 1-1.68 1.68H1.68A1.68 1.68 0 0 1 0 199.92v-16.8c0-.928.752-1.68 1.68-1.68H142.8c.928 0 1.68.752 1.68 1.68z" fill="#7C7C7C"/><path fill="#D8D8D8" d="M20.496 185.808h95.424v2.688H20.496z"/><path fill="#D7D7D7" d="M4.368 185.808h6.048v2.688H4.368z"/><path fill="#D7D400" d="M129.36 185.808h2.688v2.688h-2.688z"/><path fill="#FF3C00" d="M125.328 185.808h2.688v2.688h-2.688z"/><path fill="#00CD00" d="M134.064 185.808h6.048v2.688h-6.048z"/><path fill="#D8D8D8" d="M20.496 190.176h95.424v2.688H20.496z"/><path fill="#D7D7D7" d="M4.368 190.176h6.048v2.688H4.368z"/><path fill="#D7D400" d="M129.36 190.176h2.688v2.688h-2.688z"/><path fill="#FF3C00" d="M125.328 190.176h2.688v2.688h-2.688z"/><path fill="#00CD00" d="M134.064 190.176h6.048v2.688h-6.048z"/><g><path fill="#D8D8D8" d="M20.496 194.544h95.424v2.688H20.496z"/><path fill="#D7D7D7" d="M4.368 194.544h6.048v2.688H4.368z"/><path fill="#D7D400" d="M129.36 194.544h2.688v2.688h-2.688z"/><path fill="#FF3C00" d="M125.328 194.544h2.688v2.688h-2.688z"/><path fill="#00CD00" d="M134.064 194.544h6.048v2.688h-6.048z"/></g><path d="M144.48 1.68v175.392a1.68 1.68 0 0 1-1.68 1.68H1.68a1.68 1.68 0 0 1-1.68-1.68V1.68C0 .752.752 0 1.68 0H142.8c.928 0 1.68.752 1.68 1.68z" fill="#7C7C7C"/><rect fill="#FFF" x="4.368" y="10.752" width="135.744" height="155.904" rx=".672"/><path fill="#D7D7D7" d="M4.368 4.032h135.744V6.72H4.368zm0 166.656h135.744v2.688H4.368z"/></g><g transform="translate(374 455)"><path d="M144.48 183.12v16.8a1.68 1.68 0 0 1-1.68 1.68H1.68A1.68 1.68 0 0 1 0 199.92v-16.8c0-.928.752-1.68 1.68-1.68H142.8c.928 0 1.68.752 1.68 1.68z" fill="#7C7C7C"/><path fill="#D8D8D8" d="M20.496 185.808h95.424v2.688H20.496z"/><path fill="#D7D7D7" d="M4.368 185.808h6.048v2.688H4.368z"/><path fill="#D7D400" d="M129.36 185.808h2.688v2.688h-2.688z"/><path fill="#FF3C00" d="M125.328 185.808h2.688v2.688h-2.688z"/><path fill="#00CD00" d="M134.064 185.808h6.048v2.688h-6.048z"/><path fill="#D8D8D8" d="M20.496 190.176h95.424v2.688H20.496z"/><path fill="#D7D7D7" d="M4.368 190.176h6.048v2.688H4.368z"/><path fill="#D7D400" d="M129.36 190.176h2.688v2.688h-2.688z"/><path fill="#FF3C00" d="M125.328 190.176h2.688v2.688h-2.688z"/><path fill="#00CD00" d="M134.064 190.176h6.048v2.688h-6.048z"/><g><path fill="#D8D8D8" d="M20.496 194.544h95.424v2.688H20.496z"/><path fill="#D7D7D7" d="M4.368 194.544h6.048v2.688H4.368z"/><path fill="#D7D400" d="M129.36 194.544h2.688v2.688h-2.688z"/><path fill="#FF3C00" d="M125.328 194.544h2.688v2.688h-2.688z"/><path fill="#00CD00" d="M134.064 194.544h6.048v2.688h-6.048z"/></g><path d="M144.48 1.68v175.392a1.68 1.68 0 0 1-1.68 1.68H1.68a1.68 1.68 0 0 1-1.68-1.68V1.68C0 .752.752 0 1.68 0H142.8c.928 0 1.68.752 1.68 1.68z" fill="#7C7C7C"/><rect fill="#FFF" x="4.368" y="10.752" width="135.744" height="155.904" rx=".672"/><path fill="#D7D7D7" d="M4.368 4.032h135.744V6.72H4.368zm0 166.656h135.744v2.688H4.368z"/></g><g transform="translate(220 455)"><path d="M144.48 183.12v16.8a1.68 1.68 0 0 1-1.68 1.68H1.68A1.68 1.68 0 0 1 0 199.92v-16.8c0-.928.752-1.68 1.68-1.68H142.8c.928 0 1.68.752 1.68 1.68z" fill="#7C7C7C"/><path fill="#D8D8D8" d="M20.496 185.808h95.424v2.688H20.496z"/><path fill="#D7D7D7" d="M4.368 185.808h6.048v2.688H4.368z"/><path fill="#D7D400" d="M129.36 185.808h2.688v2.688h-2.688z"/><path fill="#FF3C00" d="M125.328 185.808h2.688v2.688h-2.688z"/><path fill="#00CD00" d="M134.064 185.808h6.048v2.688h-6.048z"/><path fill="#D8D8D8" d="M20.496 190.176h95.424v2.688H20.496z"/><path fill="#D7D7D7" d="M4.368 190.176h6.048v2.688H4.368z"/><path fill="#D7D400" d="M129.36 190.176h2.688v2.688h-2.688z"/><path fill="#FF3C00" d="M125.328 190.176h2.688v2.688h-2.688z"/><path fill="#00CD00" d="M134.064 190.176h6.048v2.688h-6.048z"/><g><path fill="#D8D8D8" d="M20.496 194.544h95.424v2.688H20.496z"/><path fill="#D7D7D7" d="M4.368 194.544h6.048v2.688H4.368z"/><path fill="#D7D400" d="M129.36 194.544h2.688v2.688h-2.688z"/><path fill="#FF3C00" d="M125.328 194.544h2.688v2.688h-2.688z"/><path fill="#00CD00" d="M134.064 194.544h6.048v2.688h-6.048z"/></g><path d="M144.48 1.68v175.392a1.68 1.68 0 0 1-1.68 1.68H1.68a1.68 1.68 0 0 1-1.68-1.68V1.68C0 .752.752 0 1.68 0H142.8c.928 0 1.68.752 1.68 1.68z" fill="#7C7C7C"/><rect fill="#FFF" x="4.368" y="10.752" width="135.744" height="155.904" rx=".672"/><path fill="#D7D7D7" d="M4.368 4.032h135.744V6.72H4.368zm0 166.656h135.744v2.688H4.368z"/></g><g transform="translate(66 455)"><path d="M144.48 183.12v16.8a1.68 1.68 0 0 1-1.68 1.68H1.68A1.68 1.68 0 0 1 0 199.92v-16.8c0-.928.752-1.68 1.68-1.68H142.8c.928 0 1.68.752 1.68 1.68z" fill="#7C7C7C"/><path fill="#D8D8D8" d="M20.496 185.808h95.424v2.688H20.496z"/><path fill="#D7D7D7" d="M4.368 185.808h6.048v2.688H4.368z"/><path fill="#D7D400" d="M129.36 185.808h2.688v2.688h-2.688z"/><path fill="#FF3C00" d="M125.328 185.808h2.688v2.688h-2.688z"/><path fill="#00CD00" d="M134.064 185.808h6.048v2.688h-6.048z"/><path fill="#D8D8D8" d="M20.496 190.176h95.424v2.688H20.496z"/><path fill="#D7D7D7" d="M4.368 190.176h6.048v2.688H4.368z"/><path fill="#D7D400" d="M129.36 190.176h2.688v2.688h-2.688z"/><path fill="#FF3C00" d="M125.328 190.176h2.688v2.688h-2.688z"/><path fill="#00CD00" d="M134.064 190.176h6.048v2.688h-6.048z"/><g><path fill="#D8D8D8" d="M20.496 194.544h95.424v2.688H20.496z"/><path fill="#D7D7D7" d="M4.368 194.544h6.048v2.688H4.368z"/><path fill="#D7D400" d="M129.36 194.544h2.688v2.688h-2.688z"/><path fill="#FF3C00" d="M125.328 194.544h2.688v2.688h-2.688z"/><path fill="#00CD00" d="M134.064 194.544h6.048v2.688h-6.048z"/></g><path d="M144.48 1.68v175.392a1.68 1.68 0 0 1-1.68 1.68H1.68a1.68 1.68 0 0 1-1.68-1.68V1.68C0 .752.752 0 1.68 0H142.8c.928 0 1.68.752 1.68 1.68z" fill="#7C7C7C"/><rect fill="#FFF" x="4.368" y="10.752" width="135.744" height="155.904" rx=".672"/><path fill="#D7D7D7" d="M4.368 4.032h135.744V6.72H4.368zm0 166.656h135.744v2.688H4.368z"/></g><g transform="translate(990 243)"><path d="M144.48 183.12v16.8a1.68 1.68 0 0 1-1.68 1.68H1.68A1.68 1.68 0 0 1 0 199.92v-16.8c0-.928.752-1.68 1.68-1.68H142.8c.928 0 1.68.752 1.68 1.68z" fill="#7C7C7C"/><path fill="#D8D8D8" d="M20.496 185.808h95.424v2.688H20.496z"/><path fill="#D7D7D7" d="M4.368 185.808h6.048v2.688H4.368z"/><path fill="#D7D400" d="M129.36 185.808h2.688v2.688h-2.688z"/><path fill="#FF3C00" d="M125.328 185.808h2.688v2.688h-2.688z"/><path fill="#00CD00" d="M134.064 185.808h6.048v2.688h-6.048z"/><path fill="#D8D8D8" d="M20.496 190.176h95.424v2.688H20.496z"/><path fill="#D7D7D7" d="M4.368 190.176h6.048v2.688H4.368z"/><path fill="#D7D400" d="M129.36 190.176h2.688v2.688h-2.688z"/><path fill="#FF3C00" d="M125.328 190.176h2.688v2.688h-2.688z"/><path fill="#00CD00" d="M134.064 190.176h6.048v2.688h-6.048z"/><g><path fill="#D8D8D8" d="M20.496 194.544h95.424v2.688H20.496z"/><path fill="#D7D7D7" d="M4.368 194.544h6.048v2.688H4.368z"/><path fill="#D7D400" d="M129.36 194.544h2.688v2.688h-2.688z"/><path fill="#FF3C00" d="M125.328 194.544h2.688v2.688h-2.688z"/><path fill="#00CD00" d="M134.064 194.544h6.048v2.688h-6.048z"/></g><path d="M144.48 1.68v175.392a1.68 1.68 0 0 1-1.68 1.68H1.68a1.68 1.68 0 0 1-1.68-1.68V1.68C0 .752.752 0 1.68 0H142.8c.928 0 1.68.752 1.68 1.68z" fill="#7C7C7C"/><rect fill="#FFF" x="4.368" y="10.752" width="135.744" height="155.904" rx=".672"/><path fill="#D7D7D7" d="M4.368 4.032h135.744V6.72H4.368zm0 166.656h135.744v2.688H4.368z"/></g><g transform="translate(836 243)"><path d="M144.48 183.12v16.8a1.68 1.68 0 0 1-1.68 1.68H1.68A1.68 1.68 0 0 1 0 199.92v-16.8c0-.928.752-1.68 1.68-1.68H142.8c.928 0 1.68.752 1.68 1.68z" fill="#7C7C7C"/><path fill="#D8D8D8" d="M20.496 185.808h95.424v2.688H20.496z"/><path fill="#D7D7D7" d="M4.368 185.808h6.048v2.688H4.368z"/><path fill="#D7D400" d="M129.36 185.808h2.688v2.688h-2.688z"/><path fill="#FF3C00" d="M125.328 185.808h2.688v2.688h-2.688z"/><path fill="#00CD00" d="M134.064 185.808h6.048v2.688h-6.048z"/><path fill="#D8D8D8" d="M20.496 190.176h95.424v2.688H20.496z"/><path fill="#D7D7D7" d="M4.368 190.176h6.048v2.688H4.368z"/><path fill="#D7D400" d="M129.36 190.176h2.688v2.688h-2.688z"/><path fill="#FF3C00" d="M125.328 190.176h2.688v2.688h-2.688z"/><path fill="#00CD00" d="M134.064 190.176h6.048v2.688h-6.048z"/><g><path fill="#D8D8D8" d="M20.496 194.544h95.424v2.688H20.496z"/><path fill="#D7D7D7" d="M4.368 194.544h6.048v2.688H4.368z"/><path fill="#D7D400" d="M129.36 194.544h2.688v2.688h-2.688z"/><path fill="#FF3C00" d="M125.328 194.544h2.688v2.688h-2.688z"/><path fill="#00CD00" d="M134.064 194.544h6.048v2.688h-6.048z"/></g><path d="M144.48 1.68v175.392a1.68 1.68 0 0 1-1.68 1.68H1.68a1.68 1.68 0 0 1-1.68-1.68V1.68C0 .752.752 0 1.68 0H142.8c.928 0 1.68.752 1.68 1.68z" fill="#7C7C7C"/><rect fill="#FFF" x="4.368" y="10.752" width="135.744" height="155.904" rx=".672"/><path fill="#D7D7D7" d="M4.368 4.032h135.744V6.72H4.368zm0 166.656h135.744v2.688H4.368z"/></g><g transform="translate(682 243)"><path d="M144.48 183.12v16.8a1.68 1.68 0 0 1-1.68 1.68H1.68A1.68 1.68 0 0 1 0 199.92v-16.8c0-.928.752-1.68 1.68-1.68H142.8c.928 0 1.68.752 1.68 1.68z" fill="#7C7C7C"/><path fill="#D8D8D8" d="M20.496 185.808h95.424v2.688H20.496z"/><path fill="#D7D7D7" d="M4.368 185.808h6.048v2.688H4.368z"/><path fill="#D7D400" d="M129.36 185.808h2.688v2.688h-2.688z"/><path fill="#FF3C00" d="M125.328 185.808h2.688v2.688h-2.688z"/><path fill="#00CD00" d="M134.064 185.808h6.048v2.688h-6.048z"/><path fill="#D8D8D8" d="M20.496 190.176h95.424v2.688H20.496z"/><path fill="#D7D7D7" d="M4.368 190.176h6.048v2.688H4.368z"/><path fill="#D7D400" d="M129.36 190.176h2.688v2.688h-2.688z"/><path fill="#FF3C00" d="M125.328 190.176h2.688v2.688h-2.688z"/><path fill="#00CD00" d="M134.064 190.176h6.048v2.688h-6.048z"/><g><path fill="#D8D8D8" d="M20.496 194.544h95.424v2.688H20.496z"/><path fill="#D7D7D7" d="M4.368 194.544h6.048v2.688H4.368z"/><path fill="#D7D400" d="M129.36 194.544h2.688v2.688h-2.688z"/><path fill="#FF3C00" d="M125.328 194.544h2.688v2.688h-2.688z"/><path fill="#00CD00" d="M134.064 194.544h6.048v2.688h-6.048z"/></g><path d="M144.48 1.68v175.392a1.68 1.68 0 0 1-1.68 1.68H1.68a1.68 1.68 0 0 1-1.68-1.68V1.68C0 .752.752 0 1.68 0H142.8c.928 0 1.68.752 1.68 1.68z" fill="#7C7C7C"/><rect fill="#FFF" x="4.368" y="10.752" width="135.744" height="155.904" rx=".672"/><path fill="#D7D7D7" d="M4.368 4.032h135.744V6.72H4.368zm0 166.656h135.744v2.688H4.368z"/></g><g transform="translate(528 243)"><path d="M144.48 183.12v16.8a1.68 1.68 0 0 1-1.68 1.68H1.68A1.68 1.68 0 0 1 0 199.92v-16.8c0-.928.752-1.68 1.68-1.68H142.8c.928 0 1.68.752 1.68 1.68z" fill="#7C7C7C"/><path fill="#D8D8D8" d="M20.496 185.808h95.424v2.688H20.496z"/><path fill="#D7D7D7" d="M4.368 185.808h6.048v2.688H4.368z"/><path fill="#D7D400" d="M129.36 185.808h2.688v2.688h-2.688z"/><path fill="#FF3C00" d="M125.328 185.808h2.688v2.688h-2.688z"/><path fill="#00CD00" d="M134.064 185.808h6.048v2.688h-6.048z"/><path fill="#D8D8D8" d="M20.496 190.176h95.424v2.688H20.496z"/><path fill="#D7D7D7" d="M4.368 190.176h6.048v2.688H4.368z"/><path fill="#D7D400" d="M129.36 190.176h2.688v2.688h-2.688z"/><path fill="#FF3C00" d="M125.328 190.176h2.688v2.688h-2.688z"/><path fill="#00CD00" d="M134.064 190.176h6.048v2.688h-6.048z"/><g><path fill="#D8D8D8" d="M20.496 194.544h95.424v2.688H20.496z"/><path fill="#D7D7D7" d="M4.368 194.544h6.048v2.688H4.368z"/><path fill="#D7D400" d="M129.36 194.544h2.688v2.688h-2.688z"/><path fill="#FF3C00" d="M125.328 194.544h2.688v2.688h-2.688z"/><path fill="#00CD00" d="M134.064 194.544h6.048v2.688h-6.048z"/></g><path d="M144.48 1.68v175.392a1.68 1.68 0 0 1-1.68 1.68H1.68a1.68 1.68 0 0 1-1.68-1.68V1.68C0 .752.752 0 1.68 0H142.8c.928 0 1.68.752 1.68 1.68z" fill="#7C7C7C"/><rect fill="#FFF" x="4.368" y="10.752" width="135.744" height="155.904" rx=".672"/><path fill="#D7D7D7" d="M4.368 4.032h135.744V6.72H4.368zm0 166.656h135.744v2.688H4.368z"/></g><g transform="translate(374 243)"><path d="M144.48 183.12v16.8a1.68 1.68 0 0 1-1.68 1.68H1.68A1.68 1.68 0 0 1 0 199.92v-16.8c0-.928.752-1.68 1.68-1.68H142.8c.928 0 1.68.752 1.68 1.68z" fill="#7C7C7C"/><path fill="#D8D8D8" d="M20.496 185.808h95.424v2.688H20.496z"/><path fill="#D7D7D7" d="M4.368 185.808h6.048v2.688H4.368z"/><path fill="#D7D400" d="M129.36 185.808h2.688v2.688h-2.688z"/><path fill="#FF3C00" d="M125.328 185.808h2.688v2.688h-2.688z"/><path fill="#00CD00" d="M134.064 185.808h6.048v2.688h-6.048z"/><path fill="#D8D8D8" d="M20.496 190.176h95.424v2.688H20.496z"/><path fill="#D7D7D7" d="M4.368 190.176h6.048v2.688H4.368z"/><path fill="#D7D400" d="M129.36 190.176h2.688v2.688h-2.688z"/><path fill="#FF3C00" d="M125.328 190.176h2.688v2.688h-2.688z"/><path fill="#00CD00" d="M134.064 190.176h6.048v2.688h-6.048z"/><g><path fill="#D8D8D8" d="M20.496 194.544h95.424v2.688H20.496z"/><path fill="#D7D7D7" d="M4.368 194.544h6.048v2.688H4.368z"/><path fill="#D7D400" d="M129.36 194.544h2.688v2.688h-2.688z"/><path fill="#FF3C00" d="M125.328 194.544h2.688v2.688h-2.688z"/><path fill="#00CD00" d="M134.064 194.544h6.048v2.688h-6.048z"/></g><path d="M144.48 1.68v175.392a1.68 1.68 0 0 1-1.68 1.68H1.68a1.68 1.68 0 0 1-1.68-1.68V1.68C0 .752.752 0 1.68 0H142.8c.928 0 1.68.752 1.68 1.68z" fill="#7C7C7C"/><rect fill="#FFF" x="4.368" y="10.752" width="135.744" height="155.904" rx=".672"/><path fill="#D7D7D7" d="M4.368 4.032h135.744V6.72H4.368zm0 166.656h135.744v2.688H4.368z"/></g><g transform="translate(220 243)"><path d="M144.48 183.12v16.8a1.68 1.68 0 0 1-1.68 1.68H1.68A1.68 1.68 0 0 1 0 199.92v-16.8c0-.928.752-1.68 1.68-1.68H142.8c.928 0 1.68.752 1.68 1.68z" fill="#7C7C7C"/><path fill="#D8D8D8" d="M20.496 185.808h95.424v2.688H20.496z"/><path fill="#D7D7D7" d="M4.368 185.808h6.048v2.688H4.368z"/><path fill="#D7D400" d="M129.36 185.808h2.688v2.688h-2.688z"/><path fill="#FF3C00" d="M125.328 185.808h2.688v2.688h-2.688z"/><path fill="#00CD00" d="M134.064 185.808h6.048v2.688h-6.048z"/><path fill="#D8D8D8" d="M20.496 190.176h95.424v2.688H20.496z"/><path fill="#D7D7D7" d="M4.368 190.176h6.048v2.688H4.368z"/><path fill="#D7D400" d="M129.36 190.176h2.688v2.688h-2.688z"/><path fill="#FF3C00" d="M125.328 190.176h2.688v2.688h-2.688z"/><path fill="#00CD00" d="M134.064 190.176h6.048v2.688h-6.048z"/><g><path fill="#D8D8D8" d="M20.496 194.544h95.424v2.688H20.496z"/><path fill="#D7D7D7" d="M4.368 194.544h6.048v2.688H4.368z"/><path fill="#D7D400" d="M129.36 194.544h2.688v2.688h-2.688z"/><path fill="#FF3C00" d="M125.328 194.544h2.688v2.688h-2.688z"/><path fill="#00CD00" d="M134.064 194.544h6.048v2.688h-6.048z"/></g><path d="M144.48 1.68v175.392a1.68 1.68 0 0 1-1.68 1.68H1.68a1.68 1.68 0 0 1-1.68-1.68V1.68C0 .752.752 0 1.68 0H142.8c.928 0 1.68.752 1.68 1.68z" fill="#7C7C7C"/><rect fill="#FFF" x="4.368" y="10.752" width="135.744" height="155.904" rx=".672"/><path fill="#D7D7D7" d="M4.368 4.032h135.744V6.72H4.368zm0 166.656h135.744v2.688H4.368z"/></g><g transform="translate(66 243)"><path d="M144.48 183.12v16.8a1.68 1.68 0 0 1-1.68 1.68H1.68A1.68 1.68 0 0 1 0 199.92v-16.8c0-.928.752-1.68 1.68-1.68H142.8c.928 0 1.68.752 1.68 1.68z" fill="#7C7C7C"/><path fill="#D8D8D8" d="M20.496 185.808h95.424v2.688H20.496z"/><path fill="#D7D7D7" d="M4.368 185.808h6.048v2.688H4.368z"/><path fill="#D7D400" d="M129.36 185.808h2.688v2.688h-2.688z"/><path fill="#FF3C00" d="M125.328 185.808h2.688v2.688h-2.688z"/><path fill="#00CD00" d="M134.064 185.808h6.048v2.688h-6.048z"/><path fill="#D8D8D8" d="M20.496 190.176h95.424v2.688H20.496z"/><path fill="#D7D7D7" d="M4.368 190.176h6.048v2.688H4.368z"/><path fill="#D7D400" d="M129.36 190.176h2.688v2.688h-2.688z"/><path fill="#FF3C00" d="M125.328 190.176h2.688v2.688h-2.688z"/><path fill="#00CD00" d="M134.064 190.176h6.048v2.688h-6.048z"/><g><path fill="#D8D8D8" d="M20.496 194.544h95.424v2.688H20.496z"/><path fill="#D7D7D7" d="M4.368 194.544h6.048v2.688H4.368z"/><path fill="#D7D400" d="M129.36 194.544h2.688v2.688h-2.688z"/><path fill="#FF3C00" d="M125.328 194.544h2.688v2.688h-2.688z"/><path fill="#00CD00" d="M134.064 194.544h6.048v2.688h-6.048z"/></g><path d="M144.48 1.68v175.392a1.68 1.68 0 0 1-1.68 1.68H1.68a1.68 1.68 0 0 1-1.68-1.68V1.68C0 .752.752 0 1.68 0H142.8c.928 0 1.68.752 1.68 1.68z" fill="#7C7C7C"/><rect fill="#FFF" x="4.368" y="10.752" width="135.744" height="155.904" rx=".672"/><path fill="#D7D7D7" d="M4.368 4.032h135.744V6.72H4.368zm0 166.656h135.744v2.688H4.368z"/></g><g transform="translate(990 31)"><path d="M144.48 183.12v16.8a1.68 1.68 0 0 1-1.68 1.68H1.68A1.68 1.68 0 0 1 0 199.92v-16.8c0-.928.752-1.68 1.68-1.68H142.8c.928 0 1.68.752 1.68 1.68z" fill="#7C7C7C"/><path fill="#D8D8D8" d="M20.496 185.808h95.424v2.688H20.496z"/><path fill="#D7D7D7" d="M4.368 185.808h6.048v2.688H4.368z"/><path fill="#D7D400" d="M129.36 185.808h2.688v2.688h-2.688z"/><path fill="#FF3C00" d="M125.328 185.808h2.688v2.688h-2.688z"/><path fill="#00CD00" d="M134.064 185.808h6.048v2.688h-6.048z"/><path fill="#D8D8D8" d="M20.496 190.176h95.424v2.688H20.496z"/><path fill="#D7D7D7" d="M4.368 190.176h6.048v2.688H4.368z"/><path fill="#D7D400" d="M129.36 190.176h2.688v2.688h-2.688z"/><path fill="#FF3C00" d="M125.328 190.176h2.688v2.688h-2.688z"/><path fill="#00CD00" d="M134.064 190.176h6.048v2.688h-6.048z"/><g><path fill="#D8D8D8" d="M20.496 194.544h95.424v2.688H20.496z"/><path fill="#D7D7D7" d="M4.368 194.544h6.048v2.688H4.368z"/><path fill="#D7D400" d="M129.36 194.544h2.688v2.688h-2.688z"/><path fill="#FF3C00" d="M125.328 194.544h2.688v2.688h-2.688z"/><path fill="#00CD00" d="M134.064 194.544h6.048v2.688h-6.048z"/></g><path d="M144.48 1.68v175.392a1.68 1.68 0 0 1-1.68 1.68H1.68a1.68 1.68 0 0 1-1.68-1.68V1.68C0 .752.752 0 1.68 0H142.8c.928 0 1.68.752 1.68 1.68z" fill="#7C7C7C"/><rect fill="#FFF" x="4.368" y="10.752" width="135.744" height="155.904" rx=".672"/><path fill="#D7D7D7" d="M4.368 4.032h135.744V6.72H4.368zm0 166.656h135.744v2.688H4.368z"/></g><g transform="translate(836 31)"><path d="M144.48 183.12v16.8a1.68 1.68 0 0 1-1.68 1.68H1.68A1.68 1.68 0 0 1 0 199.92v-16.8c0-.928.752-1.68 1.68-1.68H142.8c.928 0 1.68.752 1.68 1.68z" fill="#7C7C7C"/><path fill="#D8D8D8" d="M20.496 185.808h95.424v2.688H20.496z"/><path fill="#D7D7D7" d="M4.368 185.808h6.048v2.688H4.368z"/><path fill="#D7D400" d="M129.36 185.808h2.688v2.688h-2.688z"/><path fill="#FF3C00" d="M125.328 185.808h2.688v2.688h-2.688z"/><path fill="#00CD00" d="M134.064 185.808h6.048v2.688h-6.048z"/><path fill="#D8D8D8" d="M20.496 190.176h95.424v2.688H20.496z"/><path fill="#D7D7D7" d="M4.368 190.176h6.048v2.688H4.368z"/><path fill="#D7D400" d="M129.36 190.176h2.688v2.688h-2.688z"/><path fill="#FF3C00" d="M125.328 190.176h2.688v2.688h-2.688z"/><path fill="#00CD00" d="M134.064 190.176h6.048v2.688h-6.048z"/><g><path fill="#D8D8D8" d="M20.496 194.544h95.424v2.688H20.496z"/><path fill="#D7D7D7" d="M4.368 194.544h6.048v2.688H4.368z"/><path fill="#D7D400" d="M129.36 194.544h2.688v2.688h-2.688z"/><path fill="#FF3C00" d="M125.328 194.544h2.688v2.688h-2.688z"/><path fill="#00CD00" d="M134.064 194.544h6.048v2.688h-6.048z"/></g><path d="M144.48 1.68v175.392a1.68 1.68 0 0 1-1.68 1.68H1.68a1.68 1.68 0 0 1-1.68-1.68V1.68C0 .752.752 0 1.68 0H142.8c.928 0 1.68.752 1.68 1.68z" fill="#7C7C7C"/><rect fill="#FFF" x="4.368" y="10.752" width="135.744" height="155.904" rx=".672"/><path fill="#D7D7D7" d="M4.368 4.032h135.744V6.72H4.368zm0 166.656h135.744v2.688H4.368z"/></g><g transform="translate(682 31)"><path d="M144.48 183.12v16.8a1.68 1.68 0 0 1-1.68 1.68H1.68A1.68 1.68 0 0 1 0 199.92v-16.8c0-.928.752-1.68 1.68-1.68H142.8c.928 0 1.68.752 1.68 1.68z" fill="#7C7C7C"/><path fill="#D8D8D8" d="M20.496 185.808h95.424v2.688H20.496z"/><path fill="#D7D7D7" d="M4.368 185.808h6.048v2.688H4.368z"/><path fill="#D7D400" d="M129.36 185.808h2.688v2.688h-2.688z"/><path fill="#FF3C00" d="M125.328 185.808h2.688v2.688h-2.688z"/><path fill="#00CD00" d="M134.064 185.808h6.048v2.688h-6.048z"/><path fill="#D8D8D8" d="M20.496 190.176h95.424v2.688H20.496z"/><path fill="#D7D7D7" d="M4.368 190.176h6.048v2.688H4.368z"/><path fill="#D7D400" d="M129.36 190.176h2.688v2.688h-2.688z"/><path fill="#FF3C00" d="M125.328 190.176h2.688v2.688h-2.688z"/><path fill="#00CD00" d="M134.064 190.176h6.048v2.688h-6.048z"/><g><path fill="#D8D8D8" d="M20.496 194.544h95.424v2.688H20.496z"/><path fill="#D7D7D7" d="M4.368 194.544h6.048v2.688H4.368z"/><path fill="#D7D400" d="M129.36 194.544h2.688v2.688h-2.688z"/><path fill="#FF3C00" d="M125.328 194.544h2.688v2.688h-2.688z"/><path fill="#00CD00" d="M134.064 194.544h6.048v2.688h-6.048z"/></g><path d="M144.48 1.68v175.392a1.68 1.68 0 0 1-1.68 1.68H1.68a1.68 1.68 0 0 1-1.68-1.68V1.68C0 .752.752 0 1.68 0H142.8c.928 0 1.68.752 1.68 1.68z" fill="#7C7C7C"/><rect fill="#FFF" x="4.368" y="10.752" width="135.744" height="155.904" rx=".672"/><path fill="#D7D7D7" d="M4.368 4.032h135.744V6.72H4.368zm0 166.656h135.744v2.688H4.368z"/></g><g transform="translate(528 31)"><path d="M144.48 183.12v16.8a1.68 1.68 0 0 1-1.68 1.68H1.68A1.68 1.68 0 0 1 0 199.92v-16.8c0-.928.752-1.68 1.68-1.68H142.8c.928 0 1.68.752 1.68 1.68z" fill="#7C7C7C"/><path fill="#D8D8D8" d="M20.496 185.808h95.424v2.688H20.496z"/><path fill="#D7D7D7" d="M4.368 185.808h6.048v2.688H4.368z"/><path fill="#D7D400" d="M129.36 185.808h2.688v2.688h-2.688z"/><path fill="#FF3C00" d="M125.328 185.808h2.688v2.688h-2.688z"/><path fill="#00CD00" d="M134.064 185.808h6.048v2.688h-6.048z"/><path fill="#D8D8D8" d="M20.496 190.176h95.424v2.688H20.496z"/><path fill="#D7D7D7" d="M4.368 190.176h6.048v2.688H4.368z"/><path fill="#D7D400" d="M129.36 190.176h2.688v2.688h-2.688z"/><path fill="#FF3C00" d="M125.328 190.176h2.688v2.688h-2.688z"/><path fill="#00CD00" d="M134.064 190.176h6.048v2.688h-6.048z"/><g><path fill="#D8D8D8" d="M20.496 194.544h95.424v2.688H20.496z"/><path fill="#D7D7D7" d="M4.368 194.544h6.048v2.688H4.368z"/><path fill="#D7D400" d="M129.36 194.544h2.688v2.688h-2.688z"/><path fill="#FF3C00" d="M125.328 194.544h2.688v2.688h-2.688z"/><path fill="#00CD00" d="M134.064 194.544h6.048v2.688h-6.048z"/></g><path d="M144.48 1.68v175.392a1.68 1.68 0 0 1-1.68 1.68H1.68a1.68 1.68 0 0 1-1.68-1.68V1.68C0 .752.752 0 1.68 0H142.8c.928 0 1.68.752 1.68 1.68z" fill="#7C7C7C"/><rect fill="#FFF" x="4.368" y="10.752" width="135.744" height="155.904" rx=".672"/><path fill="#D7D7D7" d="M4.368 4.032h135.744V6.72H4.368zm0 166.656h135.744v2.688H4.368z"/></g><g transform="translate(374 31)"><path d="M144.48 183.12v16.8a1.68 1.68 0 0 1-1.68 1.68H1.68A1.68 1.68 0 0 1 0 199.92v-16.8c0-.928.752-1.68 1.68-1.68H142.8c.928 0 1.68.752 1.68 1.68z" fill="#7C7C7C"/><path fill="#D8D8D8" d="M20.496 185.808h95.424v2.688H20.496z"/><path fill="#D7D7D7" d="M4.368 185.808h6.048v2.688H4.368z"/><path fill="#D7D400" d="M129.36 185.808h2.688v2.688h-2.688z"/><path fill="#FF3C00" d="M125.328 185.808h2.688v2.688h-2.688z"/><path fill="#00CD00" d="M134.064 185.808h6.048v2.688h-6.048z"/><path fill="#D8D8D8" d="M20.496 190.176h95.424v2.688H20.496z"/><path fill="#D7D7D7" d="M4.368 190.176h6.048v2.688H4.368z"/><path fill="#D7D400" d="M129.36 190.176h2.688v2.688h-2.688z"/><path fill="#FF3C00" d="M125.328 190.176h2.688v2.688h-2.688z"/><path fill="#00CD00" d="M134.064 190.176h6.048v2.688h-6.048z"/><g><path fill="#D8D8D8" d="M20.496 194.544h95.424v2.688H20.496z"/><path fill="#D7D7D7" d="M4.368 194.544h6.048v2.688H4.368z"/><path fill="#D7D400" d="M129.36 194.544h2.688v2.688h-2.688z"/><path fill="#FF3C00" d="M125.328 194.544h2.688v2.688h-2.688z"/><path fill="#00CD00" d="M134.064 194.544h6.048v2.688h-6.048z"/></g><path d="M144.48 1.68v175.392a1.68 1.68 0 0 1-1.68 1.68H1.68a1.68 1.68 0 0 1-1.68-1.68V1.68C0 .752.752 0 1.68 0H142.8c.928 0 1.68.752 1.68 1.68z" fill="#7C7C7C"/><rect fill="#FFF" x="4.368" y="10.752" width="135.744" height="155.904" rx=".672"/><path fill="#D7D7D7" d="M4.368 4.032h135.744V6.72H4.368zm0 166.656h135.744v2.688H4.368z"/></g><g transform="translate(220 31)"><path d="M144.48 183.12v16.8a1.68 1.68 0 0 1-1.68 1.68H1.68A1.68 1.68 0 0 1 0 199.92v-16.8c0-.928.752-1.68 1.68-1.68H142.8c.928 0 1.68.752 1.68 1.68z" fill="#7C7C7C"/><path fill="#D8D8D8" d="M20.496 185.808h95.424v2.688H20.496z"/><path fill="#D7D7D7" d="M4.368 185.808h6.048v2.688H4.368z"/><path fill="#D7D400" d="M129.36 185.808h2.688v2.688h-2.688z"/><path fill="#FF3C00" d="M125.328 185.808h2.688v2.688h-2.688z"/><path fill="#00CD00" d="M134.064 185.808h6.048v2.688h-6.048z"/><path fill="#D8D8D8" d="M20.496 190.176h95.424v2.688H20.496z"/><path fill="#D7D7D7" d="M4.368 190.176h6.048v2.688H4.368z"/><path fill="#D7D400" d="M129.36 190.176h2.688v2.688h-2.688z"/><path fill="#FF3C00" d="M125.328 190.176h2.688v2.688h-2.688z"/><path fill="#00CD00" d="M134.064 190.176h6.048v2.688h-6.048z"/><g><path fill="#D8D8D8" d="M20.496 194.544h95.424v2.688H20.496z"/><path fill="#D7D7D7" d="M4.368 194.544h6.048v2.688H4.368z"/><path fill="#D7D400" d="M129.36 194.544h2.688v2.688h-2.688z"/><path fill="#FF3C00" d="M125.328 194.544h2.688v2.688h-2.688z"/><path fill="#00CD00" d="M134.064 194.544h6.048v2.688h-6.048z"/></g><path d="M144.48 1.68v175.392a1.68 1.68 0 0 1-1.68 1.68H1.68a1.68 1.68 0 0 1-1.68-1.68V1.68C0 .752.752 0 1.68 0H142.8c.928 0 1.68.752 1.68 1.68z" fill="#7C7C7C"/><rect fill="#FFF" x="4.368" y="10.752" width="135.744" height="155.904" rx=".672"/><path fill="#D7D7D7" d="M4.368 4.032h135.744V6.72H4.368zm0 166.656h135.744v2.688H4.368z"/></g><g transform="translate(66 31)"><path d="M144.48 183.12v16.8a1.68 1.68 0 0 1-1.68 1.68H1.68A1.68 1.68 0 0 1 0 199.92v-16.8c0-.928.752-1.68 1.68-1.68H142.8c.928 0 1.68.752 1.68 1.68z" fill="#7C7C7C"/><path fill="#D8D8D8" d="M20.496 185.808h95.424v2.688H20.496z"/><path fill="#D7D7D7" d="M4.368 185.808h6.048v2.688H4.368z"/><path fill="#D7D400" d="M129.36 185.808h2.688v2.688h-2.688z"/><path fill="#FF3C00" d="M125.328 185.808h2.688v2.688h-2.688z"/><path fill="#00CD00" d="M134.064 185.808h6.048v2.688h-6.048z"/><path fill="#D8D8D8" d="M20.496 190.176h95.424v2.688H20.496z"/><path fill="#D7D7D7" d="M4.368 190.176h6.048v2.688H4.368z"/><path fill="#D7D400" d="M129.36 190.176h2.688v2.688h-2.688z"/><path fill="#FF3C00" d="M125.328 190.176h2.688v2.688h-2.688z"/><path fill="#00CD00" d="M134.064 190.176h6.048v2.688h-6.048z"/><g><path fill="#D8D8D8" d="M20.496 194.544h95.424v2.688H20.496z"/><path fill="#D7D7D7" d="M4.368 194.544h6.048v2.688H4.368z"/><path fill="#D7D400" d="M129.36 194.544h2.688v2.688h-2.688z"/><path fill="#FF3C00" d="M125.328 194.544h2.688v2.688h-2.688z"/><path fill="#00CD00" d="M134.064 194.544h6.048v2.688h-6.048z"/></g><path d="M144.48 1.68v175.392a1.68 1.68 0 0 1-1.68 1.68H1.68a1.68 1.68 0 0 1-1.68-1.68V1.68C0 .752.752 0 1.68 0H142.8c.928 0 1.68.752 1.68 1.68z" fill="#7C7C7C"/><rect fill="#FFF" x="4.368" y="10.752" width="135.744" height="155.904" rx=".672"/><path fill="#D7D7D7" d="M4.368 4.032h135.744V6.72H4.368zm0 166.656h135.744v2.688H4.368z"/></g></g></svg>