<svg viewBox="0 0 1200 900" xmlns="http://www.w3.org/2000/svg"><g fill="none" fill-rule="evenodd"><g transform="translate(620 223)"><rect fill="#066DA5" width="157" height="100" rx="5"/><path d="M84.843 47.115H95.25v-9.46H84.843v9.46zm-12.297 0h10.405v-9.46H72.546v9.46zm-12.297 0h10.405v-9.46H60.25v9.46zm-12.298 0h10.406v-9.46H47.95v9.46zm-12.297 0H46.06v-9.46H35.654v9.46zM47.95 35.763h10.406v-9.459H47.95v9.46zm12.298 0h10.405v-9.459H60.25v9.46zm12.297 0H82.95v-9.459H72.546v9.46zm0-11.35H82.95v-9.46H72.546v9.46zm53.973 17.186c-2.272-1.52-7.493-2.078-11.512-1.32-.517-3.785-2.626-7.066-6.463-10.032l-2.206-1.472-1.472 2.209c-1.884 2.841-2.826 6.778-2.517 10.553.139 1.328.575 3.704 1.941 5.792-1.365.734-4.065 1.745-7.623 1.677H28.234l-.134.789c-.643 3.794-.63 15.633 7.058 24.733C41 81.445 49.76 84.952 61.194 84.952c24.787 0 43.125-11.41 51.713-32.15 3.377.068 10.647.02 14.382-7.116.098-.164.322-.592.974-1.944l.358-.741-2.102-1.402z" fill="#FFF"/></g><g transform="translate(175 222)"><path d="M80.05.055h65.248l11.589 4.254v88.803L151.22 100H76.95v-.055H5.78L.113 92.95V4.254L11.702 0H80.05v.055z" fill="#353535"/><path d="M0 16h157V6a6 6 0 0 0-6-6H6a6 6 0 0 0-6 6v10zm0 77h157v1a6 6 0 0 1-6 6H6a6 6 0 0 1-6-6v-1z" fill="#D2D2D2"/><text font-family="sans-serif" font-size="14" fill="#58B311"><tspan x="6" y="38">> docker run</tspan></text><circle fill="#F16F68" cx="9" cy="8" r="3"/><circle fill="#FDD276" cx="18" cy="8" r="3"/><circle fill="#8DC87A" cx="27" cy="8" r="3"/></g><g transform="translate(777 273)"><path d="M.011 0h49.55c5.522 0 10 4.477 10 10v19.051c0 5.523 4.476 10 10 10h48.469" stroke="#9EEBCF" stroke-width="3"/><circle stroke="#9EEBCF" stroke-width="3" fill="#FFF" cx=".5" cy="-.5" r="6"/><path fill="#9EEBCF" d="M122 39.5l-8 5.5V34z"/></g><g transform="matrix(1 0 0 -1 777 272)"><path d="M.011 0h49.55c5.522 0 10 4.477 10 10v19.051c0 5.523 4.476 10 10 10h48.469" stroke="#9EEBCF" stroke-width="3"/><circle stroke="#9EEBCF" stroke-width="3" fill="#FFF" cx=".5" cy="-.5" r="6"/><path fill="#9EEBCF" d="M122 39.5l-8 5.5V34z"/></g><g transform="translate(620 426)"><rect fill="#066DA5" width="157" height="100" rx="5"/><path d="M84.843 47.115H95.25v-9.46H84.843v9.46zm-12.297 0h10.405v-9.46H72.546v9.46zm-12.297 0h10.405v-9.46H60.25v9.46zm-12.298 0h10.406v-9.46H47.95v9.46zm-12.297 0H46.06v-9.46H35.654v9.46zM47.95 35.763h10.406v-9.459H47.95v9.46zm12.298 0h10.405v-9.459H60.25v9.46zm12.297 0H82.95v-9.459H72.546v9.46zm0-11.35H82.95v-9.46H72.546v9.46zm53.973 17.186c-2.272-1.52-7.493-2.078-11.512-1.32-.517-3.785-2.626-7.066-6.463-10.032l-2.206-1.472-1.472 2.209c-1.884 2.841-2.826 6.778-2.517 10.553.139 1.328.575 3.704 1.941 5.792-1.365.734-4.065 1.745-7.623 1.677H28.234l-.134.789c-.643 3.794-.63 15.633 7.058 24.733C41 81.445 49.76 84.952 61.194 84.952c24.787 0 43.125-11.41 51.713-32.15 3.377.068 10.647.02 14.382-7.116.098-.164.322-.592.974-1.944l.358-.741-2.102-1.402z" fill="#FFF"/></g><g transform="translate(777 476)"><path d="M.011 0h49.55c5.522 0 10 4.477 10 10v19.051c0 5.523 4.476 10 10 10h48.469" stroke="#9EEBCF" stroke-width="3"/><circle stroke="#9EEBCF" stroke-width="3" fill="#FFF" cx=".5" cy="-.5" r="6"/><path fill="#9EEBCF" d="M122 39.5l-8 5.5V34z"/></g><g transform="matrix(1 0 0 -1 777 475)"><path d="M.011 0h49.55c5.522 0 10 4.477 10 10v19.051c0 5.523 4.476 10 10 10h48.469" stroke="#9EEBCF" stroke-width="3"/><circle stroke="#9EEBCF" stroke-width="3" fill="#FFF" cx=".5" cy="-.5" r="6"/><path fill="#9EEBCF" d="M122 39.5l-8 5.5V34z"/></g><g transform="translate(620 629)"><rect fill="#066DA5" width="157" height="100" rx="5"/><path d="M84.843 47.115H95.25v-9.46H84.843v9.46zm-12.297 0h10.405v-9.46H72.546v9.46zm-12.297 0h10.405v-9.46H60.25v9.46zm-12.298 0h10.406v-9.46H47.95v9.46zm-12.297 0H46.06v-9.46H35.654v9.46zM47.95 35.763h10.406v-9.459H47.95v9.46zm12.298 0h10.405v-9.459H60.25v9.46zm12.297 0H82.95v-9.459H72.546v9.46zm0-11.35H82.95v-9.46H72.546v9.46zm53.973 17.186c-2.272-1.52-7.493-2.078-11.512-1.32-.517-3.785-2.626-7.066-6.463-10.032l-2.206-1.472-1.472 2.209c-1.884 2.841-2.826 6.778-2.517 10.553.139 1.328.575 3.704 1.941 5.792-1.365.734-4.065 1.745-7.623 1.677H28.234l-.134.789c-.643 3.794-.63 15.633 7.058 24.733C41 81.445 49.76 84.952 61.194 84.952c24.787 0 43.125-11.41 51.713-32.15 3.377.068 10.647.02 14.382-7.116.098-.164.322-.592.974-1.944l.358-.741-2.102-1.402z" fill="#FFF"/></g><g transform="translate(332 272)"><path d="M.011 0h135.327c5.522 0 10 4.477 10 10v186.27c0 5.523 4.477 10 10 10H288.03" stroke="#9EEBCF" stroke-width="3"/><circle stroke="#9EEBCF" stroke-width="3" fill="#FFF" cx=".5" cy="-.5" r="6"/><path fill="#9EEBCF" d="M292 206.5l-8 5.5v-11z"/></g><text font-family="sans-serif" font-size="30" fill="#4D4D4F"><tspan x="185.146" y="205">docker cli</tspan></text><text font-family="sans-serif" font-size="30" fill="#4D4D4F"><tspan x="584.604" y="205">docker daemon</tspan></text><text font-family="sans-serif" font-size="30" fill="#4D4D4F"><tspan x="584.604" y="411">docker daemon</tspan></text><text font-family="sans-serif" font-size="30" fill="#4D4D4F"><tspan x="584.604" y="613">docker daemon</tspan></text><rect width="113" height="71" rx="4" transform="translate(896 184)" fill="#D5FFD5"/><text font-family="sans-serif" font-size="17" font-weight="bold" fill="#4D4D4F" transform="translate(879 184)"><tspan x="23.604" y="40">CONTAINER</tspan></text><rect width="113" height="71" rx="4" transform="translate(896 277)" fill="#D5FFD5"/><text font-family="sans-serif" font-size="17" font-weight="bold" fill="#4D4D4F" transform="translate(879 277)"><tspan x="23.604" y="40">CONTAINER</tspan></text><rect width="113" height="71" rx="4" transform="translate(896 393)" fill="#D5FFD5"/><text font-family="sans-serif" font-size="17" font-weight="bold" fill="#4D4D4F" transform="translate(879 393)"><tspan x="23.604" y="40">CONTAINER</tspan></text><rect width="113" height="71" rx="4" transform="translate(896 486)" fill="#D5FFD5"/><text font-family="sans-serif" font-size="17" font-weight="bold" fill="#4D4D4F" transform="translate(879 486)"><tspan x="23.604" y="40">CONTAINER</tspan></text></g></svg>