<svg viewBox="0 0 1200 900" xmlns="http://www.w3.org/2000/svg"><g fill="none" fill-rule="evenodd"><g transform="translate(620 223)"><rect fill="#066DA5" width="157" height="100" rx="5"></rect><path d="M84.843 47.115H95.25v-9.46H84.843v9.46zm-12.297 0h10.405v-9.46H72.546v9.46zm-12.297 0h10.405v-9.46H60.25v9.46zm-12.298 0h10.406v-9.46H47.95v9.46zm-12.297 0H46.06v-9.46H35.654v9.46zM47.95 35.763h10.406v-9.459H47.95v9.46zm12.298 0h10.405v-9.459H60.25v9.46zm12.297 0H82.95v-9.459H72.546v9.46zm0-11.35H82.95v-9.46H72.546v9.46zm53.973 17.186c-2.272-1.52-7.493-2.078-11.512-1.32-.517-3.785-2.626-7.066-6.463-10.032l-2.206-1.472-1.472 2.209c-1.884 2.841-2.826 6.778-2.517 10.553.139 1.328.575 3.704 1.941 5.792-1.365.734-4.065 1.745-7.623 1.677H28.234l-.134.789c-.643 3.794-.63 15.633 7.058 24.733C41 81.445 49.76 84.952 61.194 84.952c24.787 0 43.125-11.41 51.713-32.15 3.377.068 10.647.02 14.382-7.116.098-.164.322-.592.974-1.944l.358-.741-2.102-1.402z" fill="#FFF"></path></g><g transform="translate(175 222)"><path d="M80.05.055h65.248l11.589 4.254v88.803L151.22 100H76.95v-.055H5.78L.113 92.95V4.254L11.702 0H80.05v.055z" fill="#353535"></path><path d="M0 16h157V6a6 6 0 0 0-6-6H6a6 6 0 0 0-6 6v10zm0 77h157v1a6 6 0 0 1-6 6H6a6 6 0 0 1-6-6v-1z" fill="#D2D2D2"></path><path d="M6.916 35.348l4.519-1.791-4.519-1.77v-1.3l5.838 2.584v.998L6.916 36.66v-1.312zm10.514-1.012v-.096q0-1.702.806-2.738.807-1.035 2.113-1.035 1.298 0 2.057.888V27.5h1.265V38h-1.162l-.062-.793q-.759.93-2.112.93-1.285 0-2.095-1.053-.81-1.053-.81-2.748zm1.264.048q0 1.258.52 1.969.52.71 1.435.71 1.204 0 1.757-1.08v-3.397q-.567-1.046-1.743-1.046-.93 0-1.45.718-.519.718-.519 2.126zm6.604-.062v-.089q0-1.087.427-1.955.427-.868 1.19-1.34.762-.471 1.74-.471 1.51 0 2.443 1.046t.933 2.782v.089q0 1.08-.413 1.938-.414.858-1.183 1.336-.769.479-1.767.479-1.504 0-2.437-1.046-.933-1.046-.933-2.769zm1.271.062q0 1.23.571 1.975.57.745 1.528.745.964 0 1.531-.755.568-.755.568-2.116 0-1.216-.578-1.972-.578-.755-1.535-.755-.936 0-1.51.745-.575.745-.575 2.133zm10.015 2.72q.677 0 1.183-.41.505-.41.56-1.025h1.196q-.034.636-.437 1.21t-1.077.916q-.673.342-1.425.342-1.51 0-2.403-1.009-.892-1.008-.892-2.758v-.212q0-1.08.397-1.92.396-.842 1.138-1.306.741-.465 1.753-.465 1.244 0 2.068.745.824.745.878 1.934h-1.196q-.055-.717-.543-1.179-.49-.461-1.207-.461-.964 0-1.494.694t-.53 2.006v.24q0 1.278.527 1.968.526.69 1.504.69zm9.003.896l-2.577-3.425-.793.827V38h-1.265V27.5h1.265v6.35l.677-.813 2.303-2.433h1.538l-2.878 3.09L47.07 38h-1.483zm5.387.137q-1.504 0-2.448-.988-.943-.988-.943-2.642v-.233q0-1.1.42-1.965t1.176-1.353q.756-.49 1.637-.49 1.443 0 2.243.951.8.95.8 2.72v.527h-5.011q.027 1.094.639 1.767.612.673 1.555.673.67 0 1.135-.273.465-.273.813-.725l.773.602q-.93 1.429-2.79 1.429zm-.158-6.631q-.765 0-1.285.557-.52.557-.642 1.562h3.705v-.096q-.055-.964-.52-1.493-.465-.53-1.258-.53zm8.08-.944v1.176q-.287-.048-.622-.048-1.244 0-1.688 1.06V38H55.32v-7.396h1.23l.021.854q.622-.991 1.764-.991.37 0 .56.096zm8.204 0v1.176q-.287-.048-.622-.048-1.245 0-1.689 1.06V38h-1.265v-7.396h1.23l.021.854q.622-.991 1.764-.991.37 0 .56.096zM72.855 38l-.027-.731q-.738.868-2.167.868-1.182 0-1.801-.687t-.626-2.034v-4.812H69.5v4.778q0 1.681 1.367 1.681 1.45 0 1.928-1.08v-5.38h1.265V38h-1.204zm3.124-7.396h1.197l.04.93q.848-1.067 2.216-1.067 2.344 0 2.365 2.645V38h-1.265v-4.895q-.007-.8-.365-1.182-.36-.383-1.118-.383-.615 0-1.08.328-.465.328-.725.861V38H75.98v-7.396z" fill="#58B311" fill-rule="nonzero"></path><circle fill="#F16F68" cx="9" cy="8" r="3"></circle><circle fill="#FDD276" cx="18" cy="8" r="3"></circle><circle fill="#8DC87A" cx="27" cy="8" r="3"></circle></g><g transform="translate(777 273)"><path d="M.011 0h49.55c5.522 0 10 4.477 10 10v19.051c0 5.523 4.476 10 10 10h48.469" stroke="#9EEBCF" stroke-width="3"></path><circle stroke="#9EEBCF" stroke-width="3" fill="#FFF" cx=".5" cy="-.5" r="6"></circle><path fill="#9EEBCF" d="M122 39.5l-8 5.5V34z"></path></g><g transform="matrix(1 0 0 -1 777 272)"><path d="M.011 0h49.55c5.522 0 10 4.477 10 10v19.051c0 5.523 4.476 10 10 10h48.469" stroke="#9EEBCF" stroke-width="3"></path><circle stroke="#9EEBCF" stroke-width="3" fill="#FFF" cx=".5" cy="-.5" r="6"></circle><path fill="#9EEBCF" d="M122 39.5l-8 5.5V34z"></path></g><g transform="translate(620 426)"><rect fill="#066DA5" width="157" height="100" rx="5"></rect><path d="M84.843 47.115H95.25v-9.46H84.843v9.46zm-12.297 0h10.405v-9.46H72.546v9.46zm-12.297 0h10.405v-9.46H60.25v9.46zm-12.298 0h10.406v-9.46H47.95v9.46zm-12.297 0H46.06v-9.46H35.654v9.46zM47.95 35.763h10.406v-9.459H47.95v9.46zm12.298 0h10.405v-9.459H60.25v9.46zm12.297 0H82.95v-9.459H72.546v9.46zm0-11.35H82.95v-9.46H72.546v9.46zm53.973 17.186c-2.272-1.52-7.493-2.078-11.512-1.32-.517-3.785-2.626-7.066-6.463-10.032l-2.206-1.472-1.472 2.209c-1.884 2.841-2.826 6.778-2.517 10.553.139 1.328.575 3.704 1.941 5.792-1.365.734-4.065 1.745-7.623 1.677H28.234l-.134.789c-.643 3.794-.63 15.633 7.058 24.733C41 81.445 49.76 84.952 61.194 84.952c24.787 0 43.125-11.41 51.713-32.15 3.377.068 10.647.02 14.382-7.116.098-.164.322-.592.974-1.944l.358-.741-2.102-1.402z" fill="#FFF"></path></g><g transform="translate(777 476)"><path d="M.011 0h49.55c5.522 0 10 4.477 10 10v19.051c0 5.523 4.476 10 10 10h48.469" stroke="#9EEBCF" stroke-width="3"></path><circle stroke="#9EEBCF" stroke-width="3" fill="#FFF" cx=".5" cy="-.5" r="6"></circle><path fill="#9EEBCF" d="M122 39.5l-8 5.5V34z"></path></g><g transform="matrix(1 0 0 -1 777 475)"><path d="M.011 0h49.55c5.522 0 10 4.477 10 10v19.051c0 5.523 4.476 10 10 10h48.469" stroke="#9EEBCF" stroke-width="3"></path><circle stroke="#9EEBCF" stroke-width="3" fill="#FFF" cx=".5" cy="-.5" r="6"></circle><path fill="#9EEBCF" d="M122 39.5l-8 5.5V34z"></path></g><g transform="translate(620 629)"><rect fill="#066DA5" width="157" height="100" rx="5"></rect><path d="M84.843 47.115H95.25v-9.46H84.843v9.46zm-12.297 0h10.405v-9.46H72.546v9.46zm-12.297 0h10.405v-9.46H60.25v9.46zm-12.298 0h10.406v-9.46H47.95v9.46zm-12.297 0H46.06v-9.46H35.654v9.46zM47.95 35.763h10.406v-9.459H47.95v9.46zm12.298 0h10.405v-9.459H60.25v9.46zm12.297 0H82.95v-9.459H72.546v9.46zm0-11.35H82.95v-9.46H72.546v9.46zm53.973 17.186c-2.272-1.52-7.493-2.078-11.512-1.32-.517-3.785-2.626-7.066-6.463-10.032l-2.206-1.472-1.472 2.209c-1.884 2.841-2.826 6.778-2.517 10.553.139 1.328.575 3.704 1.941 5.792-1.365.734-4.065 1.745-7.623 1.677H28.234l-.134.789c-.643 3.794-.63 15.633 7.058 24.733C41 81.445 49.76 84.952 61.194 84.952c24.787 0 43.125-11.41 51.713-32.15 3.377.068 10.647.02 14.382-7.116.098-.164.322-.592.974-1.944l.358-.741-2.102-1.402z" fill="#FFF"></path></g><g transform="translate(332 272)"><path d="M.011 0h135.327c5.522 0 10 4.477 10 10v186.27c0 5.523 4.477 10 10 10H288.03" stroke="#9EEBCF" stroke-width="3"></path><circle stroke="#9EEBCF" stroke-width="3" fill="#FFF" cx=".5" cy="-.5" r="6"></circle><path fill="#9EEBCF" d="M292 206.5l-8 5.5v-11z"></path></g><path d="M186.538 197.148v-.205q0-3.647 1.728-5.866 1.729-2.22 4.526-2.22 2.784 0 4.41 1.905V182.5h2.71V205h-2.49l-.132-1.7q-1.626 1.993-4.527 1.993-2.754 0-4.49-2.256-1.735-2.256-1.735-5.889zm2.71.103q0 2.695 1.113 4.219 1.113 1.523 3.076 1.523 2.578 0 3.765-2.314v-7.28q-1.216-2.242-3.736-2.242-1.992 0-3.105 1.538t-1.113 4.556zm14.15-.132v-.19q0-2.33.915-4.19.916-1.86 2.55-2.87 1.633-1.012 3.727-1.012 3.238 0 5.237 2.242 2 2.24 2 5.962v.19q0 2.314-.887 4.153-.886 1.838-2.534 2.864-1.648 1.025-3.786 1.025-3.223 0-5.223-2.241-1.999-2.241-1.999-5.933zm2.725.132q0 2.637 1.223 4.233 1.223 1.597 3.274 1.597 2.065 0 3.28-1.619 1.217-1.618 1.217-4.533 0-2.608-1.238-4.226-1.238-1.619-3.289-1.619-2.007 0-3.237 1.597-1.23 1.596-1.23 4.57zm21.46 5.83q1.45 0 2.534-.879 1.084-.879 1.2-2.197h2.564q-.073 1.362-.937 2.593-.864 1.23-2.307 1.963-1.443.732-3.054.732-3.238 0-5.15-2.16-1.911-2.161-1.911-5.911v-.454q0-2.315.85-4.117.85-1.801 2.439-2.797 1.589-.997 3.757-.997 2.666 0 4.431 1.597 1.765 1.597 1.882 4.146h-2.563q-.117-1.538-1.165-2.527-1.047-.989-2.585-.989-2.066 0-3.2 1.487-1.136 1.487-1.136 4.3v.512q0 2.74 1.128 4.219 1.128 1.48 3.223 1.48zM246.875 205l-5.523-7.339-1.7 1.773V205h-2.71v-22.5h2.71v13.608l1.451-1.743 4.937-5.215h3.295l-6.167 6.621 6.885 9.229h-3.178zm11.542.293q-3.222 0-5.244-2.117-2.021-2.116-2.021-5.661v-.498q0-2.359.9-4.212.902-1.853 2.52-2.9 1.619-1.048 3.509-1.048 3.09 0 4.804 2.037 1.714 2.036 1.714 5.83v1.128h-10.737q.058 2.343 1.37 3.786 1.31 1.443 3.332 1.443 1.436 0 2.432-.586t1.743-1.553l1.655 1.29q-1.992 3.061-5.977 3.061zm-.336-14.209q-1.641 0-2.754 1.194-1.114 1.194-1.377 3.347h7.94v-.205q-.118-2.066-1.114-3.2-.996-1.136-2.695-1.136zm17.314-2.022v2.52q-.615-.103-1.333-.103-2.666 0-3.618 2.271V205h-2.71v-15.85h2.637l.044 1.831q1.333-2.124 3.779-2.124.79 0 1.201.206zm16.274 14.02q1.45 0 2.535-.88 1.084-.879 1.2-2.197h2.564q-.073 1.362-.937 2.593-.864 1.23-2.307 1.963-1.443.732-3.055.732-3.237 0-5.148-2.16-1.912-2.161-1.912-5.911v-.454q0-2.315.85-4.117.85-1.801 2.438-2.797 1.59-.997 3.758-.997 2.666 0 4.43 1.597 1.766 1.597 1.883 4.146h-2.563q-.117-1.538-1.165-2.527-1.047-.989-2.585-.989-2.066 0-3.2 1.487-1.136 1.487-1.136 4.3v.512q0 2.74 1.128 4.219 1.128 1.48 3.222 1.48zm12.29-20.582V205h-2.71v-22.5h2.71zm7.28 6.65V205h-2.71v-15.85h2.71zm-2.929-4.204q0-.659.403-1.113.403-.454 1.194-.454.79 0 1.2.454.411.454.411 1.113 0 .66-.41 1.099-.41.44-1.201.44-.791 0-1.194-.44-.403-.44-.403-1.099zm277.686 12.202v-.205q0-3.647 1.728-5.866 1.729-2.22 4.526-2.22 2.784 0 4.41 1.905V182.5h2.71V205h-2.49l-.132-1.7q-1.626 1.993-4.527 1.993-2.754 0-4.49-2.256-1.735-2.256-1.735-5.889zm2.71.103q0 2.695 1.113 4.219 1.113 1.523 3.076 1.523 2.578 0 3.765-2.314v-7.28q-1.216-2.242-3.736-2.242-1.992 0-3.105 1.538t-1.113 4.556zm14.15-.132v-.19q0-2.33.915-4.19.916-1.86 2.55-2.87 1.633-1.012 3.727-1.012 3.238 0 5.237 2.242 2 2.24 2 5.962v.19q0 2.314-.887 4.153-.886 1.838-2.534 2.864-1.648 1.025-3.786 1.025-3.223 0-5.223-2.241-1.999-2.241-1.999-5.933zm2.725.132q0 2.637 1.223 4.233 1.223 1.597 3.274 1.597 2.065 0 3.28-1.619 1.217-1.618 1.217-4.533 0-2.608-1.238-4.226-1.238-1.619-3.289-1.619-2.006 0-3.237 1.597-1.23 1.596-1.23 4.57zm21.46 5.83q1.45 0 2.534-.879 1.084-.879 1.2-2.197h2.564q-.073 1.362-.937 2.593-.864 1.23-2.307 1.963-1.443.732-3.054.732-3.238 0-5.15-2.16-1.911-2.161-1.911-5.911v-.454q0-2.315.85-4.117.85-1.801 2.439-2.797 1.589-.997 3.757-.997 2.666 0 4.431 1.597 1.765 1.597 1.882 4.146h-2.563q-.117-1.538-1.165-2.527-1.047-.989-2.585-.989-2.066 0-3.2 1.487-1.136 1.487-1.136 4.3v.512q0 2.74 1.128 4.219 1.128 1.48 3.223 1.48zM646.333 205l-5.523-7.339-1.7 1.773V205h-2.71v-22.5h2.71v13.608l1.451-1.743 4.937-5.215h3.295l-6.167 6.621 6.885 9.229h-3.178zm11.542.293q-3.222 0-5.244-2.117-2.021-2.116-2.021-5.661v-.498q0-2.359.9-4.212.902-1.853 2.52-2.9 1.619-1.048 3.509-1.048 3.09 0 4.804 2.037 1.714 2.036 1.714 5.83v1.128H653.32q.058 2.343 1.37 3.786 1.31 1.443 3.332 1.443 1.436 0 2.432-.586t1.743-1.553l1.655 1.29q-1.992 3.061-5.977 3.061zm-.336-14.209q-1.641 0-2.754 1.194-1.114 1.194-1.377 3.347h7.94v-.205q-.118-2.066-1.114-3.2-.996-1.136-2.695-1.136zm17.314-2.022v2.52q-.615-.103-1.333-.103-2.666 0-3.618 2.271V205h-2.71v-15.85h2.637l.044 1.831q1.333-2.124 3.779-2.124.79 0 1.201.206zm9.258 8.086v-.205q0-3.647 1.728-5.866 1.729-2.22 4.527-2.22 2.783 0 4.409 1.905V182.5h2.71V205h-2.49l-.132-1.7q-1.626 1.993-4.527 1.993-2.753 0-4.49-2.256-1.735-2.256-1.735-5.889zm2.71.103q0 2.695 1.113 4.219 1.113 1.523 3.076 1.523 2.578 0 3.765-2.314v-7.28q-1.216-2.242-3.735-2.242-1.993 0-3.106 1.538-1.113 1.538-1.113 4.556zM714.316 205h-2.842q-.234-.469-.38-1.67-1.89 1.963-4.512 1.963-2.344 0-3.846-1.326-1.501-1.325-1.501-3.362 0-2.475 1.882-3.845 1.883-1.37 5.296-1.37h2.636v-1.244q0-1.421-.85-2.264-.849-.842-2.504-.842-1.45 0-2.432.732-.981.733-.981 1.773h-2.725q0-1.187.842-2.293.843-1.106 2.286-1.75 1.442-.645 3.171-.645 2.74 0 4.292 1.37 1.553 1.37 1.611 3.772v7.295q0 2.183.557 3.472V205zm-7.339-2.065q1.274 0 2.417-.66 1.143-.659 1.655-1.713v-3.252h-2.124q-4.98 0-4.98 2.915 0 1.274.85 1.992.849.718 2.182.718zm17.607 2.358q-3.222 0-5.244-2.117-2.021-2.116-2.021-5.661v-.498q0-2.359.9-4.212.902-1.853 2.52-2.9 1.619-1.048 3.509-1.048 3.09 0 4.804 2.037 1.714 2.036 1.714 5.83v1.128H720.03q.058 2.343 1.37 3.786 1.31 1.443 3.332 1.443 1.436 0 2.432-.586t1.743-1.553l1.655 1.29q-1.992 3.061-5.977 3.061zm-.336-14.209q-1.641 0-2.754 1.194-1.114 1.194-1.377 3.347h7.94v-.205q-.118-2.066-1.114-3.2-.996-1.136-2.695-1.136zm9.638-1.934h2.564l.073 1.758q1.743-2.05 4.702-2.05 3.325 0 4.526 2.548.791-1.142 2.059-1.845 1.267-.704 2.995-.704 5.215 0 5.303 5.523V205h-2.71v-10.459q0-1.7-.776-2.541-.777-.843-2.608-.843-1.509 0-2.505.901t-1.157 2.424V205h-2.725v-10.386q0-3.457-3.383-3.457-2.666 0-3.648 2.27V205h-2.71v-15.85zm25.591 7.97v-.191q0-2.33.916-4.19.915-1.86 2.548-2.87 1.634-1.012 3.728-1.012 3.238 0 5.237 2.242 2 2.24 2 5.962v.19q0 2.314-.886 4.153-.887 1.838-2.535 2.864-1.648 1.025-3.786 1.025-3.223 0-5.222-2.241-2-2.241-2-5.933zm2.725.131q0 2.637 1.223 4.233 1.223 1.597 3.274 1.597 2.065 0 3.281-1.619 1.216-1.618 1.216-4.533 0-2.608-1.238-4.226-1.238-1.619-3.289-1.619-2.006 0-3.237 1.597-1.23 1.596-1.23 4.57zm15.102-8.1h2.564l.088 1.992q1.816-2.286 4.746-2.286 5.024 0 5.068 5.67V205h-2.71v-10.488q-.015-1.714-.784-2.534-.769-.82-2.395-.82-1.318 0-2.314.702-.996.703-1.553 1.846V205h-2.71v-15.85zM585.996 403.148v-.205q0-3.647 1.728-5.866 1.729-2.22 4.526-2.22 2.784 0 4.41 1.905V388.5h2.71V411h-2.49l-.132-1.7q-1.626 1.993-4.527 1.993-2.754 0-4.49-2.256-1.735-2.256-1.735-5.889zm2.71.103q0 2.695 1.113 4.219 1.113 1.523 3.076 1.523 2.578 0 3.765-2.314v-7.28q-1.216-2.242-3.736-2.242-1.992 0-3.105 1.538t-1.113 4.556zm14.15-.132v-.19q0-2.33.915-4.19.916-1.86 2.55-2.87 1.633-1.012 3.727-1.012 3.238 0 5.237 2.242 2 2.24 2 5.962v.19q0 2.314-.887 4.153-.886 1.838-2.534 2.864-1.648 1.025-3.786 1.025-3.223 0-5.223-2.241-1.999-2.241-1.999-5.933zm2.725.132q0 2.637 1.223 4.233 1.223 1.597 3.274 1.597 2.065 0 3.28-1.619 1.217-1.618 1.217-4.533 0-2.608-1.238-4.226-1.238-1.619-3.289-1.619-2.006 0-3.237 1.597-1.23 1.596-1.23 4.57zm21.46 5.83q1.45 0 2.534-.879 1.084-.879 1.2-2.197h2.564q-.073 1.362-.937 2.593-.864 1.23-2.307 1.963-1.443.732-3.054.732-3.238 0-5.15-2.16-1.911-2.161-1.911-5.911v-.454q0-2.315.85-4.117.85-1.801 2.439-2.797 1.589-.997 3.757-.997 2.666 0 4.431 1.597 1.765 1.597 1.882 4.146h-2.563q-.117-1.538-1.165-2.527-1.047-.989-2.585-.989-2.066 0-3.2 1.487-1.136 1.487-1.136 4.3v.512q0 2.74 1.128 4.219 1.128 1.48 3.223 1.48zM646.333 411l-5.523-7.339-1.7 1.773V411h-2.71v-22.5h2.71v13.608l1.451-1.743 4.937-5.215h3.295l-6.167 6.621 6.885 9.229h-3.178zm11.542.293q-3.222 0-5.244-2.117-2.021-2.116-2.021-5.661v-.498q0-2.359.9-4.212.902-1.853 2.52-2.9 1.619-1.048 3.509-1.048 3.09 0 4.804 2.037 1.714 2.036 1.714 5.83v1.128H653.32q.058 2.343 1.37 3.786 1.31 1.443 3.332 1.443 1.436 0 2.432-.586t1.743-1.553l1.655 1.29q-1.992 3.061-5.977 3.061zm-.336-14.209q-1.641 0-2.754 1.194-1.114 1.194-1.377 3.347h7.94v-.205q-.118-2.066-1.114-3.2-.996-1.136-2.695-1.136zm17.314-2.022v2.52q-.615-.103-1.333-.103-2.666 0-3.618 2.271V411h-2.71v-15.85h2.637l.044 1.831q1.333-2.124 3.779-2.124.79 0 1.201.205zm9.258 8.086v-.205q0-3.647 1.728-5.866 1.729-2.22 4.527-2.22 2.783 0 4.409 1.905V388.5h2.71V411h-2.49l-.132-1.7q-1.626 1.993-4.527 1.993-2.753 0-4.49-2.256-1.735-2.256-1.735-5.889zm2.71.103q0 2.695 1.113 4.219 1.113 1.523 3.076 1.523 2.578 0 3.765-2.314v-7.28q-1.216-2.242-3.735-2.242-1.993 0-3.106 1.538-1.113 1.538-1.113 4.556zM714.316 411h-2.842q-.234-.469-.38-1.67-1.89 1.963-4.512 1.963-2.344 0-3.846-1.326-1.501-1.325-1.501-3.362 0-2.475 1.882-3.845 1.883-1.37 5.296-1.37h2.636v-1.244q0-1.421-.85-2.264-.849-.842-2.504-.842-1.45 0-2.432.732-.981.733-.981 1.773h-2.725q0-1.187.842-2.293.843-1.106 2.286-1.75 1.442-.645 3.171-.645 2.74 0 4.292 1.37 1.553 1.37 1.611 3.772v7.295q0 2.183.557 3.472V411zm-7.339-2.065q1.274 0 2.417-.66 1.143-.659 1.655-1.713v-3.252h-2.124q-4.98 0-4.98 2.915 0 1.274.85 1.992.849.718 2.182.718zm17.607 2.358q-3.222 0-5.244-2.117-2.021-2.116-2.021-5.661v-.498q0-2.359.9-4.212.902-1.853 2.52-2.9 1.619-1.048 3.509-1.048 3.09 0 4.804 2.037 1.714 2.036 1.714 5.83v1.128H720.03q.058 2.343 1.37 3.786 1.31 1.443 3.332 1.443 1.436 0 2.432-.586t1.743-1.553l1.655 1.29q-1.992 3.061-5.977 3.061zm-.336-14.209q-1.641 0-2.754 1.194-1.114 1.194-1.377 3.347h7.94v-.205q-.118-2.066-1.114-3.2-.996-1.136-2.695-1.136zm9.638-1.934h2.564l.073 1.758q1.743-2.05 4.702-2.05 3.325 0 4.526 2.548.791-1.142 2.059-1.845 1.267-.704 2.995-.704 5.215 0 5.303 5.523V411h-2.71v-10.459q0-1.7-.776-2.541-.777-.843-2.608-.843-1.509 0-2.505.901t-1.157 2.424V411h-2.725v-10.386q0-3.457-3.383-3.457-2.666 0-3.648 2.27V411h-2.71v-15.85zm25.591 7.97v-.191q0-2.33.916-4.19.915-1.86 2.548-2.87 1.634-1.012 3.728-1.012 3.238 0 5.237 2.242 2 2.24 2 5.962v.19q0 2.314-.886 4.153-.887 1.838-2.535 2.864-1.648 1.025-3.786 1.025-3.223 0-5.222-2.241-2-2.241-2-5.933zm2.725.131q0 2.637 1.223 4.233 1.223 1.597 3.274 1.597 2.065 0 3.281-1.619 1.216-1.618 1.216-4.533 0-2.608-1.238-4.226-1.238-1.619-3.289-1.619-2.006 0-3.237 1.597-1.23 1.596-1.23 4.57zm15.102-8.1h2.564l.088 1.992q1.816-2.286 4.746-2.286 5.024 0 5.068 5.67V411h-2.71v-10.488q-.015-1.714-.784-2.534-.769-.82-2.395-.82-1.318 0-2.314.702-.996.703-1.553 1.846V411h-2.71v-15.85zM585.996 605.148v-.205q0-3.647 1.728-5.866 1.729-2.22 4.526-2.22 2.784 0 4.41 1.905V590.5h2.71V613h-2.49l-.132-1.7q-1.626 1.993-4.527 1.993-2.754 0-4.49-2.256-1.735-2.256-1.735-5.889zm2.71.103q0 2.695 1.113 4.219 1.113 1.523 3.076 1.523 2.578 0 3.765-2.314v-7.28q-1.216-2.242-3.736-2.242-1.992 0-3.105 1.538t-1.113 4.556zm14.15-.132v-.19q0-2.33.915-4.19.916-1.86 2.55-2.87 1.633-1.012 3.727-1.012 3.238 0 5.237 2.242 2 2.24 2 5.962v.19q0 2.314-.887 4.153-.886 1.838-2.534 2.864-1.648 1.025-3.786 1.025-3.223 0-5.223-2.241-1.999-2.241-1.999-5.933zm2.725.132q0 2.637 1.223 4.233 1.223 1.597 3.274 1.597 2.065 0 3.28-1.619 1.217-1.618 1.217-4.533 0-2.608-1.238-4.226-1.238-1.619-3.289-1.619-2.006 0-3.237 1.597-1.23 1.596-1.23 4.57zm21.46 5.83q1.45 0 2.534-.879 1.084-.879 1.2-2.197h2.564q-.073 1.362-.937 2.593-.864 1.23-2.307 1.963-1.443.732-3.054.732-3.238 0-5.15-2.16-1.911-2.161-1.911-5.911v-.454q0-2.315.85-4.117.85-1.801 2.439-2.797 1.589-.997 3.757-.997 2.666 0 4.431 1.597 1.765 1.597 1.882 4.146h-2.563q-.117-1.538-1.165-2.527-1.047-.989-2.585-.989-2.066 0-3.2 1.487-1.136 1.487-1.136 4.3v.512q0 2.74 1.128 4.219 1.128 1.48 3.223 1.48zM646.333 613l-5.523-7.339-1.7 1.773V613h-2.71v-22.5h2.71v13.608l1.451-1.743 4.937-5.215h3.295l-6.167 6.621 6.885 9.229h-3.178zm11.542.293q-3.222 0-5.244-2.117-2.021-2.116-2.021-5.661v-.498q0-2.359.9-4.212.902-1.853 2.52-2.9 1.619-1.048 3.509-1.048 3.09 0 4.804 2.037 1.714 2.036 1.714 5.83v1.128H653.32q.058 2.343 1.37 3.786 1.31 1.443 3.332 1.443 1.436 0 2.432-.586t1.743-1.553l1.655 1.29q-1.992 3.061-5.977 3.061zm-.336-14.209q-1.641 0-2.754 1.194-1.114 1.194-1.377 3.347h7.94v-.205q-.118-2.066-1.114-3.2-.996-1.136-2.695-1.136zm17.314-2.021v2.519q-.615-.103-1.333-.103-2.666 0-3.618 2.271V613h-2.71v-15.85h2.637l.044 1.831q1.333-2.124 3.779-2.124.79 0 1.201.206zm9.258 8.085v-.205q0-3.647 1.728-5.866 1.729-2.22 4.527-2.22 2.783 0 4.409 1.905V590.5h2.71V613h-2.49l-.132-1.7q-1.626 1.993-4.527 1.993-2.753 0-4.49-2.256-1.735-2.256-1.735-5.889zm2.71.103q0 2.695 1.113 4.219 1.113 1.523 3.076 1.523 2.578 0 3.765-2.314v-7.28q-1.216-2.242-3.735-2.242-1.993 0-3.106 1.538-1.113 1.538-1.113 4.556zM714.316 613h-2.842q-.234-.469-.38-1.67-1.89 1.963-4.512 1.963-2.344 0-3.846-1.326-1.501-1.325-1.501-3.362 0-2.475 1.882-3.845 1.883-1.37 5.296-1.37h2.636v-1.244q0-1.421-.85-2.264-.849-.842-2.504-.842-1.45 0-2.432.732-.981.733-.981 1.773h-2.725q0-1.187.842-2.293.843-1.106 2.286-1.75 1.442-.645 3.171-.645 2.74 0 4.292 1.37 1.553 1.37 1.611 3.772v7.295q0 2.183.557 3.472V613zm-7.339-2.065q1.274 0 2.417-.66 1.143-.659 1.655-1.713v-3.252h-2.124q-4.98 0-4.98 2.915 0 1.274.85 1.992.849.718 2.182.718zm17.607 2.358q-3.222 0-5.244-2.117-2.021-2.116-2.021-5.661v-.498q0-2.359.9-4.212.902-1.853 2.52-2.9 1.619-1.048 3.509-1.048 3.09 0 4.804 2.037 1.714 2.036 1.714 5.83v1.128H720.03q.058 2.343 1.37 3.786 1.31 1.443 3.332 1.443 1.436 0 2.432-.586t1.743-1.553l1.655 1.29q-1.992 3.061-5.977 3.061zm-.336-14.209q-1.641 0-2.754 1.194-1.114 1.194-1.377 3.347h7.94v-.205q-.118-2.066-1.114-3.2-.996-1.136-2.695-1.136zm9.638-1.934h2.564l.073 1.758q1.743-2.05 4.702-2.05 3.325 0 4.526 2.548.791-1.142 2.059-1.845 1.267-.704 2.995-.704 5.215 0 5.303 5.523V613h-2.71v-10.459q0-1.7-.776-2.541-.777-.843-2.608-.843-1.509 0-2.505.901t-1.157 2.424V613h-2.725v-10.386q0-3.457-3.383-3.457-2.666 0-3.648 2.27V613h-2.71v-15.85zm25.591 7.97v-.191q0-2.33.916-4.19.915-1.86 2.548-2.87 1.634-1.012 3.728-1.012 3.238 0 5.237 2.242 2 2.24 2 5.962v.19q0 2.314-.886 4.153-.887 1.838-2.535 2.864-1.648 1.025-3.786 1.025-3.223 0-5.222-2.241-2-2.241-2-5.933zm2.725.131q0 2.637 1.223 4.233 1.223 1.597 3.274 1.597 2.065 0 3.281-1.619 1.216-1.618 1.216-4.533 0-2.608-1.238-4.226-1.238-1.619-3.289-1.619-2.006 0-3.237 1.597-1.23 1.596-1.23 4.57zm15.102-8.1h2.564l.088 1.992q1.816-2.286 4.746-2.286 5.024 0 5.068 5.67V613h-2.71v-10.488q-.015-1.714-.784-2.534-.769-.82-2.395-.82-1.318 0-2.314.702-.996.703-1.553 1.846V613h-2.71v-15.85z" fill="#4D4D4F" fill-rule="nonzero"></path><rect width="113" height="71" rx="4" transform="translate(896 184)" fill="#D5FFD5"></rect><path d="M910.68 219.974h2.49q-.14 1.95-1.44 3.071-1.298 1.121-3.423 1.121-2.325 0-3.657-1.565-1.332-1.564-1.332-4.295v-.74q0-1.742.614-3.07.614-1.329 1.756-2.038 1.141-.71 2.652-.71 2.092 0 3.37 1.12 1.278 1.121 1.477 3.147h-2.49q-.091-1.17-.651-1.698-.56-.527-1.706-.527-1.245 0-1.864.892-.618.893-.635 2.769v.913q0 1.959.594 2.864.593.904 1.872.904 1.153 0 1.722-.527t.652-1.63zm14.054-2.283v.54q0 1.785-.631 3.13-.63 1.344-1.805 2.075-1.175.73-2.694.73-1.502 0-2.681-.722t-1.826-2.063q-.648-1.34-.656-3.084v-.597q0-1.785.643-3.142.644-1.357 1.818-2.084 1.175-.726 2.685-.726 1.511 0 2.686.726 1.174.727 1.818 2.084.643 1.357.643 3.133zm-2.524.581v-.589q0-1.9-.68-2.889-.68-.987-1.943-.987-1.253 0-1.934.975-.68.975-.689 2.86v.589q0 1.851.681 2.872.68 1.021 1.959 1.021 1.253 0 1.926-.984.672-.983.68-2.868zm14.162-6.358V224h-2.49l-4.848-7.952V224h-2.49v-12.086h2.49l4.856 7.969v-7.969h2.482zm11.031 0v2.017h-3.702V224h-2.49v-10.069h-3.652v-2.017h9.844zM955.488 224l-.838-2.49h-4.366l-.83 2.49h-2.648l4.499-12.086h2.307L958.136 224h-2.648zm-3.03-9.031l-1.502 4.524h3.022l-1.52-4.524zm9.455-3.055V224h-2.49v-12.086h2.49zm12.136 0V224h-2.49l-4.848-7.952V224h-2.49v-12.086h2.49l4.856 7.969v-7.969h2.482zm9.446 4.898v1.95h-4.781V222h5.611v2h-8.101v-12.086h8.085v2.017h-5.595v2.88h4.781zm9.031 7.188l-2.266-4.424h-1.984V224h-2.49v-12.086h4.49q2.142 0 3.305.955 1.162.954 1.162 2.697 0 1.237-.536 2.063-.535.826-1.623 1.316l2.615 4.939V224h-2.673zm-4.25-10.069v3.628h2.01q.937 0 1.452-.478.514-.477.514-1.315 0-.855-.485-1.345-.486-.49-1.49-.49h-2z" fill="#4D4D4F" fill-rule="nonzero"></path><rect width="113" height="71" rx="4" transform="translate(896 277)" fill="#D5FFD5"></rect><path d="M910.68 312.974h2.49q-.14 1.95-1.44 3.071-1.298 1.121-3.423 1.121-2.325 0-3.657-1.565-1.332-1.564-1.332-4.295v-.74q0-1.742.614-3.07.614-1.329 1.756-2.038 1.141-.71 2.652-.71 2.092 0 3.37 1.12 1.278 1.121 1.477 3.147h-2.49q-.091-1.17-.651-1.698-.56-.527-1.706-.527-1.245 0-1.864.892-.618.893-.635 2.769v.913q0 1.959.594 2.864.593.904 1.872.904 1.153 0 1.722-.527t.652-1.63zm14.054-2.283v.54q0 1.785-.631 3.13-.63 1.344-1.805 2.075-1.175.73-2.694.73-1.502 0-2.681-.722t-1.826-2.063q-.648-1.34-.656-3.084v-.597q0-1.785.643-3.142.644-1.357 1.818-2.084 1.175-.726 2.685-.726 1.511 0 2.686.726 1.174.727 1.818 2.084.643 1.357.643 3.133zm-2.524.581v-.589q0-1.9-.68-2.889-.68-.987-1.943-.987-1.253 0-1.934.975-.68.975-.689 2.86v.589q0 1.851.681 2.872.68 1.021 1.959 1.021 1.253 0 1.926-.984.672-.983.68-2.868zm14.162-6.358V317h-2.49l-4.848-7.952V317h-2.49v-12.086h2.49l4.856 7.969v-7.969h2.482zm11.031 0v2.017h-3.702V317h-2.49v-10.069h-3.652v-2.017h9.844zM955.488 317l-.838-2.49h-4.366l-.83 2.49h-2.648l4.499-12.086h2.307L958.136 317h-2.648zm-3.03-9.031l-1.502 4.524h3.022l-1.52-4.524zm9.455-3.055V317h-2.49v-12.086h2.49zm12.136 0V317h-2.49l-4.848-7.952V317h-2.49v-12.086h2.49l4.856 7.969v-7.969h2.482zm9.446 4.898v1.95h-4.781V315h5.611v2h-8.101v-12.086h8.085v2.017h-5.595v2.88h4.781zm9.031 7.188l-2.266-4.424h-1.984V317h-2.49v-12.086h4.49q2.142 0 3.305.955 1.162.954 1.162 2.697 0 1.237-.536 2.063-.535.826-1.623 1.316l2.615 4.939V317h-2.673zm-4.25-10.069v3.628h2.01q.937 0 1.452-.478.514-.477.514-1.315 0-.855-.485-1.345-.486-.49-1.49-.49h-2z" fill="#4D4D4F" fill-rule="nonzero"></path><rect width="113" height="71" rx="4" transform="translate(896 393)" fill="#D5FFD5"></rect><path d="M910.68 428.974h2.49q-.14 1.95-1.44 3.071-1.298 1.121-3.423 1.121-2.325 0-3.657-1.565-1.332-1.564-1.332-4.295v-.74q0-1.742.614-3.07.614-1.329 1.756-2.038 1.141-.71 2.652-.71 2.092 0 3.37 1.12 1.278 1.121 1.477 3.147h-2.49q-.091-1.17-.651-1.698-.56-.527-1.706-.527-1.245 0-1.864.892-.618.893-.635 2.769v.913q0 1.959.594 2.864.593.904 1.872.904 1.153 0 1.722-.527t.652-1.63zm14.054-2.283v.54q0 1.785-.631 3.13-.63 1.344-1.805 2.075-1.175.73-2.694.73-1.502 0-2.681-.722t-1.826-2.063q-.648-1.34-.656-3.084v-.597q0-1.785.643-3.142.644-1.357 1.818-2.084 1.175-.726 2.685-.726 1.511 0 2.686.726 1.174.727 1.818 2.084.643 1.357.643 3.133zm-2.524.581v-.589q0-1.9-.68-2.889-.68-.987-1.943-.987-1.253 0-1.934.975-.68.975-.689 2.86v.589q0 1.851.681 2.872.68 1.021 1.959 1.021 1.253 0 1.926-.984.672-.983.68-2.868zm14.162-6.358V433h-2.49l-4.848-7.952V433h-2.49v-12.086h2.49l4.856 7.969v-7.969h2.482zm11.031 0v2.017h-3.702V433h-2.49v-10.069h-3.652v-2.017h9.844zM955.488 433l-.838-2.49h-4.366l-.83 2.49h-2.648l4.499-12.086h2.307L958.136 433h-2.648zm-3.03-9.031l-1.502 4.524h3.022l-1.52-4.524zm9.455-3.055V433h-2.49v-12.086h2.49zm12.136 0V433h-2.49l-4.848-7.952V433h-2.49v-12.086h2.49l4.856 7.969v-7.969h2.482zm9.446 4.898v1.95h-4.781V431h5.611v2h-8.101v-12.086h8.085v2.017h-5.595v2.88h4.781zm9.031 7.188l-2.266-4.424h-1.984V433h-2.49v-12.086h4.49q2.142 0 3.305.955 1.162.954 1.162 2.697 0 1.237-.536 2.063-.535.826-1.623 1.316l2.615 4.939V433h-2.673zm-4.25-10.069v3.628h2.01q.937 0 1.452-.478.514-.477.514-1.315 0-.855-.485-1.345-.486-.49-1.49-.49h-2z" fill="#4D4D4F" fill-rule="nonzero"></path><rect width="113" height="71" rx="4" transform="translate(896 486)" fill="#D5FFD5"></rect><path d="M910.68 521.974h2.49q-.14 1.95-1.44 3.071-1.298 1.121-3.423 1.121-2.325 0-3.657-1.565-1.332-1.564-1.332-4.295v-.74q0-1.742.614-3.07.614-1.329 1.756-2.038 1.141-.71 2.652-.71 2.092 0 3.37 1.12 1.278 1.121 1.477 3.147h-2.49q-.091-1.17-.651-1.698-.56-.527-1.706-.527-1.245 0-1.864.892-.618.893-.635 2.769v.913q0 1.959.594 2.864.593.904 1.872.904 1.153 0 1.722-.527t.652-1.63zm14.054-2.283v.54q0 1.785-.631 3.13-.63 1.344-1.805 2.075-1.175.73-2.694.73-1.502 0-2.681-.722t-1.826-2.063q-.648-1.34-.656-3.084v-.597q0-1.785.643-3.142.644-1.357 1.818-2.084 1.175-.726 2.685-.726 1.511 0 2.686.726 1.174.727 1.818 2.084.643 1.357.643 3.133zm-2.524.581v-.589q0-1.9-.68-2.889-.68-.987-1.943-.987-1.253 0-1.934.975-.68.975-.689 2.86v.589q0 1.851.681 2.872.68 1.021 1.959 1.021 1.253 0 1.926-.984.672-.983.68-2.868zm14.162-6.358V526h-2.49l-4.848-7.952V526h-2.49v-12.086h2.49l4.856 7.969v-7.969h2.482zm11.031 0v2.017h-3.702V526h-2.49v-10.069h-3.652v-2.017h9.844zM955.488 526l-.838-2.49h-4.366l-.83 2.49h-2.648l4.499-12.086h2.307L958.136 526h-2.648zm-3.03-9.031l-1.502 4.524h3.022l-1.52-4.524zm9.455-3.055V526h-2.49v-12.086h2.49zm12.136 0V526h-2.49l-4.848-7.952V526h-2.49v-12.086h2.49l4.856 7.969v-7.969h2.482zm9.446 4.898v1.95h-4.781V524h5.611v2h-8.101v-12.086h8.085v2.017h-5.595v2.88h4.781zm9.031 7.188l-2.266-4.424h-1.984V526h-2.49v-12.086h4.49q2.142 0 3.305.955 1.162.954 1.162 2.697 0 1.237-.536 2.063-.535.826-1.623 1.316l2.615 4.939V526h-2.673zm-4.25-10.069v3.628h2.01q.937 0 1.452-.478.514-.477.514-1.315 0-.855-.485-1.345-.486-.49-1.49-.49h-2z" fill="#4D4D4F" fill-rule="nonzero"></path></g></svg>