<svg viewBox="0 0 1200 900" xmlns="http://www.w3.org/2000/svg"><g fill="none" fill-rule="evenodd"><path d="M49 34h630.008v576.742H49V34zm742 0h360.008v576.742H791V34z" stroke="#CFCFCF" stroke-dasharray="21" stroke-width="11"/><g fill-rule="nonzero"><path fill="#D0021B" d="M298 491h13v126h-13z"/><path fill="#000" d="M546 491h13v126h-13z"/><path fill="#D0021B" d="M1043 491h13v126h-13zM666 604h13v36h-13z"/><path fill="#D0021B" d="M1056 604v13H298v-13z"/></g><path d="M787 642.577v44.93c0 2.481-1.203 4.493-2.686 4.493H558.686c-1.483 0-2.686-2.012-2.686-4.493v-44.93c0-2.482 1.203-4.493 2.686-4.493h225.628c1.483 0 2.686 2.011 2.686 4.493z" fill="#7C7C7C"/><path fill="#D8D8D8" d="M594.781 650.564h121.817v6.4H594.781z"/><path fill="#D7D7D7" d="M581.656 651h6.4v6.4h-6.4zm-12 0h6.4v6.4h-6.4z"/><path fill="#00CD00" d="M755.126 650.564h6.4v6.4h-6.4z"/><path fill="#D7D400" d="M743.606 650.564h6.4v6.4h-6.4z"/><path fill="#FF3C00" d="M732.086 650.564h6.4v6.4h-6.4z"/><path fill="#00CD00" d="M766.646 650.564h6.4v6.4h-6.4z"/><path fill="#D8D8D8" d="M594.781 661.764h121.817v6.4H594.781z"/><path fill="#D7D7D7" d="M581.656 662h6.4v6.4h-6.4zm-12 0h6.4v6.4h-6.4z"/><path fill="#00CD00" d="M755.126 661.764h6.4v6.4h-6.4z"/><path fill="#D7D400" d="M743.606 661.764h6.4v6.4h-6.4z"/><path fill="#FF3C00" d="M732.086 661.764h6.4v6.4h-6.4z"/><path fill="#00CD00" d="M766.646 661.764h6.4v6.4h-6.4z"/><path fill="#D8D8D8" d="M594.781 672.964h121.817v6.4H594.781z"/><path fill="#D7D7D7" d="M581.656 673h6.4v6.4h-6.4zm-12 0h6.4v6.4h-6.4z"/><path fill="#00CD00" d="M755.126 672.964h6.4v6.4h-6.4z"/><path fill="#D7D400" d="M743.606 672.964h6.4v6.4h-6.4z"/><path fill="#FF3C00" d="M732.086 672.964h6.4v6.4h-6.4z"/><path fill="#00CD00" d="M766.646 672.964h6.4v6.4h-6.4z"/><text font-family="sans-serif" font-size="30" font-weight="bold" fill="#4A4A4A"><tspan x="383.259" y="660">192.168.0.1</tspan></text><text font-family="sans-serif" font-size="30" font-weight="bold" fill="#4A4A4A"><tspan x="391.102" y="693">172.17.0.1</tspan></text><path d="M569 435v19a5 5 0 0 1-5 5H388a5 5 0 0 1-5-5v-19a5 5 0 0 1 5-5h176a5 5 0 0 1 5 5z" fill="#D2D2D2"/><path fill="#A3A3A3" d="M414 436h4v4h-4zm0 6h4v4h-4zm0 6h4v4h-4zm6-12h4v4h-4zm0 6h4v4h-4zm0 6h4v4h-4zm6-12h4v4h-4zm0 6h4v4h-4zm0 6h4v4h-4zm6-12h4v4h-4zm0 6h4v4h-4zm0 6h4v4h-4zm6-12h4v4h-4zm0 6h4v4h-4zm0 6h4v4h-4zm6-12h4v4h-4zm0 6h4v4h-4zm0 6h4v4h-4zm6-12h4v4h-4zm0 6h4v4h-4zm0 6h4v4h-4zm6-12h4v4h-4zm0 6h4v4h-4zm0 6h4v4h-4zm6-12h4v4h-4zm0 6h4v4h-4zm0 6h4v4h-4zm6-12h4v4h-4zm0 6h4v4h-4zm0 6h4v4h-4zm6-12h4v4h-4zm0 6h4v4h-4zm0 6h4v4h-4zm6-12h4v4h-4zm0 6h4v4h-4zm0 6h4v4h-4zm6-12h4v4h-4zm0 6h4v4h-4zm0 6h4v4h-4zm6-12h4v4h-4zm0 6h4v4h-4zm0 6h4v4h-4zm6-12h4v4h-4zm0 6h4v4h-4zm0 6h4v4h-4zm6-12h4v4h-4zm0 6h4v4h-4zm0 6h4v4h-4zm6-12h4v4h-4zm0 6h4v4h-4zm0 6h4v4h-4zm6-12h4v4h-4zm0 6h4v4h-4zm0 6h4v4h-4zm6-12h4v4h-4zm0 6h4v4h-4zm0 6h4v4h-4zm6-12h4v4h-4zm0 6h4v4h-4zm0 6h4v4h-4zm6-12h4v4h-4zm0 6h4v4h-4zm0 6h4v4h-4zm6-12h4v4h-4zm0 6h4v4h-4zm0 6h4v4h-4zm6-12h4v4h-4zm0 6h4v4h-4zm0 6h4v4h-4zm6-12h4v4h-4zm0 6h4v4h-4zm0 6h4v4h-4zm6-12h4v4h-4zm0 6h4v4h-4zm0 6h4v4h-4z"/><path d="M569 467v19a5 5 0 0 1-5 5H388a5 5 0 0 1-5-5v-19a5 5 0 0 1 5-5h176a5 5 0 0 1 5 5z" fill="#D2D2D2"/><path fill="#A3A3A3" d="M414 468h4v4h-4zm0 6h4v4h-4zm0 6h4v4h-4zm6-12h4v4h-4zm0 6h4v4h-4zm0 6h4v4h-4zm6-12h4v4h-4zm0 6h4v4h-4zm0 6h4v4h-4zm6-12h4v4h-4zm0 6h4v4h-4zm0 6h4v4h-4zm6-12h4v4h-4zm0 6h4v4h-4zm0 6h4v4h-4zm6-12h4v4h-4zm0 6h4v4h-4zm0 6h4v4h-4zm6-12h4v4h-4zm0 6h4v4h-4zm0 6h4v4h-4zm6-12h4v4h-4zm0 6h4v4h-4zm0 6h4v4h-4zm6-12h4v4h-4zm0 6h4v4h-4zm0 6h4v4h-4zm6-12h4v4h-4zm0 6h4v4h-4zm0 6h4v4h-4zm6-12h4v4h-4zm0 6h4v4h-4zm0 6h4v4h-4zm6-12h4v4h-4zm0 6h4v4h-4zm0 6h4v4h-4zm6-12h4v4h-4zm0 6h4v4h-4zm0 6h4v4h-4zm6-12h4v4h-4zm0 6h4v4h-4zm0 6h4v4h-4zm6-12h4v4h-4zm0 6h4v4h-4zm0 6h4v4h-4zm6-12h4v4h-4zm0 6h4v4h-4zm0 6h4v4h-4zm6-12h4v4h-4zm0 6h4v4h-4zm0 6h4v4h-4zm6-12h4v4h-4zm0 6h4v4h-4zm0 6h4v4h-4zm6-12h4v4h-4zm0 6h4v4h-4zm0 6h4v4h-4zm6-12h4v4h-4zm0 6h4v4h-4zm0 6h4v4h-4zm6-12h4v4h-4zm0 6h4v4h-4zm0 6h4v4h-4zm6-12h4v4h-4zm0 6h4v4h-4zm0 6h4v4h-4zm6-12h4v4h-4zm0 6h4v4h-4zm0 6h4v4h-4zm6-12h4v4h-4zm0 6h4v4h-4zm0 6h4v4h-4zm6-12h4v4h-4zm0 6h4v4h-4zm0 6h4v4h-4z"/><g transform="translate(383 103)"><path d="M186 5v314a5 5 0 0 1-5 5H5a5 5 0 0 1-5-5V5a5 5 0 0 1 5-5h176a5 5 0 0 1 5 5z" fill="#D2D2D2"/><path fill="#A3A3A3" d="M7 6h4v4H7zm0 6h4v4H7zm0 6h4v4H7zm6-12h4v4h-4zm0 6h4v4h-4zm0 6h4v4h-4zm6-12h4v4h-4zm0 6h4v4h-4zm0 6h4v4h-4zm6-12h4v4h-4zm0 6h4v4h-4zm0 6h4v4h-4zm6-12h4v4h-4zm0 6h4v4h-4zm0 6h4v4h-4zm6-12h4v4h-4zm0 6h4v4h-4zm0 6h4v4h-4zm6-12h4v4h-4zm0 6h4v4h-4zm0 6h4v4h-4zm6-12h4v4h-4zm0 6h4v4h-4zm0 6h4v4h-4zm6-12h4v4h-4zm0 6h4v4h-4zm0 6h4v4h-4zm6-12h4v4h-4zm0 6h4v4h-4zm0 6h4v4h-4zm6-12h4v4h-4zm0 6h4v4h-4zm0 6h4v4h-4zm6-12h4v4h-4zm0 6h4v4h-4zm0 6h4v4h-4zm6-12h4v4h-4zm0 6h4v4h-4zm0 6h4v4h-4zm6-12h4v4h-4zm0 6h4v4h-4zm0 6h4v4h-4zm6-12h4v4h-4zm0 6h4v4h-4zm0 6h4v4h-4zm6-12h4v4h-4zm0 6h4v4h-4zm0 6h4v4h-4zm6-12h4v4h-4zm0 6h4v4h-4zm0 6h4v4h-4zm6-12h4v4h-4zm0 6h4v4h-4zm0 6h4v4h-4zm6-12h4v4h-4zm0 6h4v4h-4zm0 6h4v4h-4zm6-12h4v4h-4zm0 6h4v4h-4zm0 6h4v4h-4zm6-12h4v4h-4zm0 6h4v4h-4zm0 6h4v4h-4zm6-12h4v4h-4zm0 6h4v4h-4zm0 6h4v4h-4zm6-12h4v4h-4zm0 6h4v4h-4zm0 6h4v4h-4zm6-12h4v4h-4zm0 6h4v4h-4zm0 6h4v4h-4zm6-12h4v4h-4zm0 6h4v4h-4zm0 6h4v4h-4zm6-12h4v4h-4zm0 6h4v4h-4zm0 6h4v4h-4zm6-12h4v4h-4zm0 6h4v4h-4zm0 6h4v4h-4zm6-12h4v4h-4zm0 6h4v4h-4zm0 6h4v4h-4zm6-12h4v4h-4zm0 6h4v4h-4zm0 6h4v4h-4zM7 313h4v4H7zm6 0h4v4h-4zm6 0h4v4h-4zm6 0h4v4h-4zm6 0h4v4h-4zm6 0h4v4h-4zm6 0h4v4h-4zm6 0h4v4h-4zm6 0h4v4h-4zm6 0h4v4h-4zm6 0h4v4h-4zm6 0h4v4h-4zm6 0h4v4h-4zm6 0h4v4h-4zm6 0h4v4h-4zm6 0h4v4h-4zm6 0h4v4h-4zm6 0h4v4h-4zm6 0h4v4h-4zm6 0h4v4h-4zm6 0h4v4h-4zm6 0h4v4h-4zm6 0h4v4h-4zm6 0h4v4h-4zm6 0h4v4h-4zm6 0h4v4h-4zm6 0h4v4h-4zm6 0h4v4h-4zm6 0h4v4h-4z"/><rect fill="#FFF" x="7" y="29" width="172" height="278" rx="2"/></g><path d="M401.009 443.34h2.375v-2.159h-2.375v2.16zm-2.807 0h2.375v-2.159h-2.375v2.16zm-2.807 0h2.375v-2.159h-2.375v2.16zm-2.806 0h2.375v-2.159h-2.375v2.16zm-2.807 0h2.375v-2.159h-2.375v2.16zm2.807-2.59h2.375v-2.16h-2.375v2.16zm2.806 0h2.375v-2.16h-2.375v2.16zm2.807 0h2.375v-2.16h-2.375v2.16zm0-2.591h2.375V436h-2.375v2.159zm12.318 3.923c-.518-.347-1.71-.475-2.627-.302-.118-.864-.6-1.612-1.475-2.29l-.504-.335-.336.504c-.43.648-.644 1.547-.574 2.408.032.304.131.846.443 1.322-.312.168-.928.399-1.74.383H388.09l-.03.18c-.148.866-.145 3.568 1.61 5.645 1.333 1.579 3.333 2.38 5.942 2.38 5.657 0 9.843-2.605 11.803-7.338.77.015 2.43.004 3.282-1.625.022-.037.073-.135.222-.443l.082-.17-.48-.32z" fill="#A3A3A3"/><g fill="#A3A3A3"><path d="M397.883 477.606a.34.34 0 0 0-.393-.259l-.003-.004-1.987.337c.307.849.88 1.54 1.6 2.002l.77-1.86-.006-.007a.336.336 0 0 0 .019-.21m-.661-1.431a.34.34 0 0 0 .134-.583l.001-.008-1.511-1.353a3.964 3.964 0 0 0-.563 2.509l1.938-.56.001-.006zm.883-1.526a.34.34 0 0 0 .539-.26l.008-.004.114-2.019a3.965 3.965 0 0 0-2.32 1.111l1.654 1.174.004-.002zm.585 2.12l.558.268.556-.268.138-.6-.385-.481h-.619l-.386.48zm1.157-2.386a.34.34 0 0 0 .54.259l.005.002 1.645-1.166a3.998 3.998 0 0 0-2.307-1.112l.114 2.016h.002z"/><path d="M406.02 477.867c-.047.205-.27.33-.497.28h-.006l-.007-.002c-.032-.007-.072-.014-.1-.022-.132-.035-.227-.088-.345-.133-.255-.091-.466-.168-.671-.197-.105-.009-.158.041-.216.08a5.777 5.777 0 0 0-.164-.03 5.008 5.008 0 0 1-2.22 2.792c.02.044.05.139.065.155-.024.065-.06.127-.03.227.075.194.196.383.342.611.07.106.142.187.206.307l.05.104c.1.211.027.455-.163.547-.192.092-.43-.006-.533-.218-.014-.03-.035-.07-.047-.099-.055-.125-.074-.232-.112-.353-.087-.256-.16-.468-.264-.647-.059-.087-.13-.098-.197-.12l-.082-.147a4.993 4.993 0 0 1-3.552-.01l-.087.159c-.065.017-.127.034-.166.08-.14.168-.196.436-.298.692-.038.12-.056.228-.11.353l-.048.097v.001l-.001.001c-.103.212-.34.31-.532.217-.19-.091-.262-.335-.163-.547.014-.03.034-.075.05-.103.063-.12.135-.203.206-.308.145-.228.273-.432.348-.626.019-.064-.01-.153-.034-.218l.07-.167a5.009 5.009 0 0 1-2.22-2.772l-.168.029c-.045-.025-.135-.085-.221-.078-.206.03-.416.106-.671.197-.118.045-.214.097-.346.132-.027.008-.067.016-.099.023l-.007.002-.006.001c-.228.05-.45-.076-.497-.281-.047-.206.099-.414.326-.469l.006-.002h.003c.032-.008.073-.019.103-.024.134-.026.243-.02.369-.03.269-.028.492-.051.69-.113.063-.026.123-.113.165-.167l.161-.047a4.98 4.98 0 0 1 .786-3.472l-.124-.11c-.008-.049-.018-.16-.077-.223-.151-.142-.342-.26-.572-.402-.11-.064-.21-.106-.32-.186l-.08-.065-.005-.004c-.185-.147-.227-.401-.095-.567a.37.37 0 0 1 .307-.136.458.458 0 0 1 .268.101c.027.021.062.048.086.069.103.088.166.176.253.268.19.193.347.353.52.47.09.052.159.03.228.021l.139.1a4.95 4.95 0 0 1 3.21-1.545l.01-.162a.42.42 0 0 0 .124-.2c.017-.206-.01-.429-.042-.698-.018-.125-.048-.23-.053-.366v-.108c0-.237.172-.429.385-.429.212 0 .385.192.385.428 0 .034.002.079 0 .11-.005.136-.034.24-.052.365-.032.269-.06.492-.044.699.015.103.076.144.126.192l.01.172a5.044 5.044 0 0 1 3.194 1.544l.147-.105c.05.003.158.018.233-.025.172-.116.33-.277.519-.47.087-.092.15-.18.254-.269l.086-.068c.184-.147.441-.132.574.034.132.167.09.42-.095.568-.026.02-.06.05-.085.068-.11.081-.21.123-.32.187-.23.142-.42.26-.572.402-.071.076-.066.149-.072.218l-.137.122a4.982 4.982 0 0 1 .802 3.464l.155.046c.028.04.086.135.167.167.198.062.42.085.69.113.126.01.235.004.369.03.032.006.079.018.112.026.227.055.372.263.325.469m2.447.084l-1.59-6.902a1.222 1.222 0 0 0-.665-.827l-6.43-3.071a1.239 1.239 0 0 0-1.068 0l-6.43 3.072a1.221 1.221 0 0 0-.666.828l-1.586 6.901a1.211 1.211 0 0 0 .237 1.032l4.45 5.534c.234.29.588.46.962.46l7.137-.002c.374 0 .728-.169.962-.459l4.449-5.534c.233-.29.32-.67.238-1.032"/><path d="M402.64 474.231l-1.504 1.346v.004a.34.34 0 0 0 .133.583l.003.008 1.947.561c.041-.42.016-.855-.084-1.29a4.013 4.013 0 0 0-.496-1.212m-3.093 4.104a.337.337 0 0 0-.31-.178.34.34 0 0 0-.288.179h-.001l-.977 1.766a3.98 3.98 0 0 0 2.563.003l-.98-1.77h-.007zm1.455-.995a.338.338 0 0 0-.208.028.34.34 0 0 0-.164.44l-.003.002.778 1.88a3.97 3.97 0 0 0 1.605-2.016l-2.005-.339-.003.004z"/></g><g><path d="M321 435v19a5 5 0 0 1-5 5H140a5 5 0 0 1-5-5v-19a5 5 0 0 1 5-5h176a5 5 0 0 1 5 5z" fill="#D2D2D2"/><path fill="#A3A3A3" d="M166 436h4v4h-4zm0 6h4v4h-4zm0 6h4v4h-4zm6-12h4v4h-4zm0 6h4v4h-4zm0 6h4v4h-4zm6-12h4v4h-4zm0 6h4v4h-4zm0 6h4v4h-4zm6-12h4v4h-4zm0 6h4v4h-4zm0 6h4v4h-4zm6-12h4v4h-4zm0 6h4v4h-4zm0 6h4v4h-4zm6-12h4v4h-4zm0 6h4v4h-4zm0 6h4v4h-4zm6-12h4v4h-4zm0 6h4v4h-4zm0 6h4v4h-4zm6-12h4v4h-4zm0 6h4v4h-4zm0 6h4v4h-4zm6-12h4v4h-4zm0 6h4v4h-4zm0 6h4v4h-4zm6-12h4v4h-4zm0 6h4v4h-4zm0 6h4v4h-4zm6-12h4v4h-4zm0 6h4v4h-4zm0 6h4v4h-4zm6-12h4v4h-4zm0 6h4v4h-4zm0 6h4v4h-4zm6-12h4v4h-4zm0 6h4v4h-4zm0 6h4v4h-4zm6-12h4v4h-4zm0 6h4v4h-4zm0 6h4v4h-4zm6-12h4v4h-4zm0 6h4v4h-4zm0 6h4v4h-4zm6-12h4v4h-4zm0 6h4v4h-4zm0 6h4v4h-4zm6-12h4v4h-4zm0 6h4v4h-4zm0 6h4v4h-4zm6-12h4v4h-4zm0 6h4v4h-4zm0 6h4v4h-4zm6-12h4v4h-4zm0 6h4v4h-4zm0 6h4v4h-4zm6-12h4v4h-4zm0 6h4v4h-4zm0 6h4v4h-4zm6-12h4v4h-4zm0 6h4v4h-4zm0 6h4v4h-4zm6-12h4v4h-4zm0 6h4v4h-4zm0 6h4v4h-4zm6-12h4v4h-4zm0 6h4v4h-4zm0 6h4v4h-4zm6-12h4v4h-4zm0 6h4v4h-4zm0 6h4v4h-4zm6-12h4v4h-4zm0 6h4v4h-4zm0 6h4v4h-4z"/><path d="M321 467v19a5 5 0 0 1-5 5H140a5 5 0 0 1-5-5v-19a5 5 0 0 1 5-5h176a5 5 0 0 1 5 5z" fill="#D2D2D2"/><path fill="#A3A3A3" d="M166 468h4v4h-4zm0 6h4v4h-4zm0 6h4v4h-4zm6-12h4v4h-4zm0 6h4v4h-4zm0 6h4v4h-4zm6-12h4v4h-4zm0 6h4v4h-4zm0 6h4v4h-4zm6-12h4v4h-4zm0 6h4v4h-4zm0 6h4v4h-4zm6-12h4v4h-4zm0 6h4v4h-4zm0 6h4v4h-4zm6-12h4v4h-4zm0 6h4v4h-4zm0 6h4v4h-4zm6-12h4v4h-4zm0 6h4v4h-4zm0 6h4v4h-4zm6-12h4v4h-4zm0 6h4v4h-4zm0 6h4v4h-4zm6-12h4v4h-4zm0 6h4v4h-4zm0 6h4v4h-4zm6-12h4v4h-4zm0 6h4v4h-4zm0 6h4v4h-4zm6-12h4v4h-4zm0 6h4v4h-4zm0 6h4v4h-4zm6-12h4v4h-4zm0 6h4v4h-4zm0 6h4v4h-4zm6-12h4v4h-4zm0 6h4v4h-4zm0 6h4v4h-4zm6-12h4v4h-4zm0 6h4v4h-4zm0 6h4v4h-4zm6-12h4v4h-4zm0 6h4v4h-4zm0 6h4v4h-4zm6-12h4v4h-4zm0 6h4v4h-4zm0 6h4v4h-4zm6-12h4v4h-4zm0 6h4v4h-4zm0 6h4v4h-4zm6-12h4v4h-4zm0 6h4v4h-4zm0 6h4v4h-4zm6-12h4v4h-4zm0 6h4v4h-4zm0 6h4v4h-4zm6-12h4v4h-4zm0 6h4v4h-4zm0 6h4v4h-4zm6-12h4v4h-4zm0 6h4v4h-4zm0 6h4v4h-4zm6-12h4v4h-4zm0 6h4v4h-4zm0 6h4v4h-4zm6-12h4v4h-4zm0 6h4v4h-4zm0 6h4v4h-4zm6-12h4v4h-4zm0 6h4v4h-4zm0 6h4v4h-4zm6-12h4v4h-4zm0 6h4v4h-4zm0 6h4v4h-4z"/><g transform="translate(135 103)"><path d="M186 5v314a5 5 0 0 1-5 5H5a5 5 0 0 1-5-5V5a5 5 0 0 1 5-5h176a5 5 0 0 1 5 5z" fill="#D2D2D2"/><path fill="#A3A3A3" d="M7 6h4v4H7zm0 6h4v4H7zm0 6h4v4H7zm6-12h4v4h-4zm0 6h4v4h-4zm0 6h4v4h-4zm6-12h4v4h-4zm0 6h4v4h-4zm0 6h4v4h-4zm6-12h4v4h-4zm0 6h4v4h-4zm0 6h4v4h-4zm6-12h4v4h-4zm0 6h4v4h-4zm0 6h4v4h-4zm6-12h4v4h-4zm0 6h4v4h-4zm0 6h4v4h-4zm6-12h4v4h-4zm0 6h4v4h-4zm0 6h4v4h-4zm6-12h4v4h-4zm0 6h4v4h-4zm0 6h4v4h-4zm6-12h4v4h-4zm0 6h4v4h-4zm0 6h4v4h-4zm6-12h4v4h-4zm0 6h4v4h-4zm0 6h4v4h-4zm6-12h4v4h-4zm0 6h4v4h-4zm0 6h4v4h-4zm6-12h4v4h-4zm0 6h4v4h-4zm0 6h4v4h-4zm6-12h4v4h-4zm0 6h4v4h-4zm0 6h4v4h-4zm6-12h4v4h-4zm0 6h4v4h-4zm0 6h4v4h-4zm6-12h4v4h-4zm0 6h4v4h-4zm0 6h4v4h-4zm6-12h4v4h-4zm0 6h4v4h-4zm0 6h4v4h-4zm6-12h4v4h-4zm0 6h4v4h-4zm0 6h4v4h-4zm6-12h4v4h-4zm0 6h4v4h-4zm0 6h4v4h-4zm6-12h4v4h-4zm0 6h4v4h-4zm0 6h4v4h-4zm6-12h4v4h-4zm0 6h4v4h-4zm0 6h4v4h-4zm6-12h4v4h-4zm0 6h4v4h-4zm0 6h4v4h-4zm6-12h4v4h-4zm0 6h4v4h-4zm0 6h4v4h-4zm6-12h4v4h-4zm0 6h4v4h-4zm0 6h4v4h-4zm6-12h4v4h-4zm0 6h4v4h-4zm0 6h4v4h-4zm6-12h4v4h-4zm0 6h4v4h-4zm0 6h4v4h-4zm6-12h4v4h-4zm0 6h4v4h-4zm0 6h4v4h-4zm6-12h4v4h-4zm0 6h4v4h-4zm0 6h4v4h-4zm6-12h4v4h-4zm0 6h4v4h-4zm0 6h4v4h-4zm6-12h4v4h-4zm0 6h4v4h-4zm0 6h4v4h-4zM7 313h4v4H7zm6 0h4v4h-4zm6 0h4v4h-4zm6 0h4v4h-4zm6 0h4v4h-4zm6 0h4v4h-4zm6 0h4v4h-4zm6 0h4v4h-4zm6 0h4v4h-4zm6 0h4v4h-4zm6 0h4v4h-4zm6 0h4v4h-4zm6 0h4v4h-4zm6 0h4v4h-4zm6 0h4v4h-4zm6 0h4v4h-4zm6 0h4v4h-4zm6 0h4v4h-4zm6 0h4v4h-4zm6 0h4v4h-4zm6 0h4v4h-4zm6 0h4v4h-4zm6 0h4v4h-4zm6 0h4v4h-4zm6 0h4v4h-4zm6 0h4v4h-4zm6 0h4v4h-4zm6 0h4v4h-4zm6 0h4v4h-4z"/><rect fill="#FFF" x="7" y="29" width="172" height="278" rx="2"/></g><path d="M153.009 443.34h2.375v-2.159h-2.375v2.16zm-2.807 0h2.375v-2.159h-2.375v2.16zm-2.807 0h2.375v-2.159h-2.375v2.16zm-2.806 0h2.375v-2.159h-2.375v2.16zm-2.807 0h2.375v-2.159h-2.375v2.16zm2.807-2.59h2.375v-2.16h-2.375v2.16zm2.806 0h2.375v-2.16h-2.375v2.16zm2.807 0h2.375v-2.16h-2.375v2.16zm0-2.591h2.375V436h-2.375v2.159zm12.318 3.923c-.518-.347-1.71-.475-2.627-.302-.118-.864-.6-1.612-1.475-2.29l-.504-.335-.336.504c-.43.648-.644 1.547-.574 2.408.032.304.131.846.443 1.322-.312.168-.928.399-1.74.383H140.09l-.03.18c-.148.866-.145 3.568 1.61 5.645 1.333 1.579 3.333 2.38 5.942 2.38 5.657 0 9.843-2.605 11.803-7.338.77.015 2.43.004 3.282-1.625.022-.037.073-.135.222-.443l.082-.17-.48-.32z" fill="#A3A3A3"/><g fill="#A3A3A3"><path d="M149.883 477.606a.34.34 0 0 0-.393-.259l-.003-.004-1.987.337c.307.849.88 1.54 1.6 2.002l.77-1.86-.006-.007a.336.336 0 0 0 .019-.21m-.661-1.431a.34.34 0 0 0 .134-.583l.001-.008-1.511-1.353a3.964 3.964 0 0 0-.563 2.509l1.938-.56.001-.006zm.883-1.526a.34.34 0 0 0 .539-.26l.008-.004.114-2.019a3.965 3.965 0 0 0-2.32 1.111l1.654 1.174.004-.002zm.585 2.12l.558.268.556-.268.138-.6-.385-.481h-.619l-.386.48zm1.157-2.386a.34.34 0 0 0 .54.259l.005.002 1.645-1.166a3.998 3.998 0 0 0-2.307-1.112l.114 2.016h.002z"/><path d="M158.02 477.867c-.047.205-.27.33-.497.28h-.006l-.007-.002c-.032-.007-.072-.014-.1-.022-.132-.035-.227-.088-.345-.133-.255-.091-.466-.168-.671-.197-.105-.009-.158.041-.216.08a5.777 5.777 0 0 0-.164-.03 5.008 5.008 0 0 1-2.22 2.792c.02.044.05.139.065.155-.024.065-.06.127-.03.227.075.194.196.383.342.611.07.106.142.187.206.307l.05.104c.1.211.027.455-.163.547-.192.092-.43-.006-.533-.218-.014-.03-.035-.07-.047-.099-.055-.125-.074-.232-.112-.353-.087-.256-.16-.468-.264-.647-.059-.087-.13-.098-.197-.12l-.082-.147a4.993 4.993 0 0 1-3.552-.01l-.087.159c-.065.017-.127.034-.166.08-.14.168-.196.436-.298.692-.038.12-.056.228-.11.353l-.048.097v.001l-.001.001c-.103.212-.34.31-.532.217-.19-.091-.262-.335-.163-.547.014-.03.034-.075.05-.103.063-.12.135-.203.206-.308.145-.228.273-.432.348-.626.019-.064-.01-.153-.034-.218l.07-.167a5.009 5.009 0 0 1-2.22-2.772l-.168.029c-.045-.025-.135-.085-.221-.078-.206.03-.416.106-.671.197-.118.045-.214.097-.346.132-.027.008-.067.016-.099.023l-.007.002-.006.001c-.228.05-.45-.076-.497-.281-.047-.206.099-.414.326-.469l.006-.002h.003c.032-.008.073-.019.103-.024.134-.026.243-.02.369-.03.269-.028.492-.051.69-.113.063-.026.123-.113.165-.167l.161-.047a4.98 4.98 0 0 1 .786-3.472l-.124-.11c-.008-.049-.018-.16-.077-.223-.151-.142-.342-.26-.572-.402-.11-.064-.21-.106-.32-.186l-.08-.065-.005-.004c-.185-.147-.227-.401-.095-.567a.37.37 0 0 1 .307-.136.458.458 0 0 1 .268.101c.027.021.062.048.086.069.103.088.166.176.253.268.19.193.347.353.52.47.09.052.159.03.228.021l.139.1a4.95 4.95 0 0 1 3.21-1.545l.01-.162a.42.42 0 0 0 .124-.2c.017-.206-.01-.429-.042-.698-.018-.125-.048-.23-.053-.366v-.108c0-.237.172-.429.385-.429.212 0 .385.192.385.428 0 .034.002.079 0 .11-.005.136-.034.24-.052.365-.032.269-.06.492-.044.699.015.103.076.144.126.192l.01.172a5.044 5.044 0 0 1 3.194 1.544l.147-.105c.05.003.158.018.233-.025.172-.116.33-.277.519-.47.087-.092.15-.18.254-.269l.086-.068c.184-.147.441-.132.574.034.132.167.09.42-.095.568-.026.02-.06.05-.085.068-.11.081-.21.123-.32.187-.23.142-.42.26-.572.402-.071.076-.066.149-.072.218l-.137.122a4.982 4.982 0 0 1 .802 3.464l.155.046c.028.04.086.135.167.167.198.062.42.085.69.113.126.01.235.004.369.03.032.006.079.018.112.026.227.055.372.263.325.469m2.447.084l-1.59-6.902a1.222 1.222 0 0 0-.665-.827l-6.43-3.071a1.239 1.239 0 0 0-1.068 0l-6.43 3.072a1.221 1.221 0 0 0-.666.828l-1.586 6.901a1.211 1.211 0 0 0 .237 1.032l4.45 5.534c.234.29.588.46.962.46l7.137-.002c.374 0 .728-.169.962-.459l4.449-5.534c.233-.29.32-.67.238-1.032"/><path d="M154.64 474.231l-1.504 1.346v.004a.34.34 0 0 0 .133.583l.003.008 1.947.561c.041-.42.016-.855-.084-1.29a4.013 4.013 0 0 0-.496-1.212m-3.093 4.104a.337.337 0 0 0-.31-.178.34.34 0 0 0-.288.179h-.001l-.977 1.766a3.98 3.98 0 0 0 2.563.003l-.98-1.77h-.007zm1.455-.995a.338.338 0 0 0-.208.028.34.34 0 0 0-.164.44l-.003.002.778 1.88a3.97 3.97 0 0 0 1.605-2.016l-2.005-.339-.003.004z"/></g></g><circle fill="#D0021B" fill-rule="nonzero" cx="305" cy="490" r="15"/><g fill="#4A4A4A" font-family="sans-serif" font-size="30" font-weight="bold"><text transform="translate(131 505)"><tspan x=".259" y="27">192.168.0.2</tspan></text><text transform="translate(131 505)"><tspan x="248.259" y="27">192.168.0.3</tspan></text><text transform="translate(131 505)"><tspan x="748" y="27">172.17.0.9</tspan></text></g><g><path d="M1066 435v19a5 5 0 0 1-5 5H885a5 5 0 0 1-5-5v-19a5 5 0 0 1 5-5h176a5 5 0 0 1 5 5z" fill="#D2D2D2"/><path fill="#A3A3A3" d="M911 436h4v4h-4zm0 6h4v4h-4zm0 6h4v4h-4zm6-12h4v4h-4zm0 6h4v4h-4zm0 6h4v4h-4zm6-12h4v4h-4zm0 6h4v4h-4zm0 6h4v4h-4zm6-12h4v4h-4zm0 6h4v4h-4zm0 6h4v4h-4zm6-12h4v4h-4zm0 6h4v4h-4zm0 6h4v4h-4zm6-12h4v4h-4zm0 6h4v4h-4zm0 6h4v4h-4zm6-12h4v4h-4zm0 6h4v4h-4zm0 6h4v4h-4zm6-12h4v4h-4zm0 6h4v4h-4zm0 6h4v4h-4zm6-12h4v4h-4zm0 6h4v4h-4zm0 6h4v4h-4zm6-12h4v4h-4zm0 6h4v4h-4zm0 6h4v4h-4zm6-12h4v4h-4zm0 6h4v4h-4zm0 6h4v4h-4zm6-12h4v4h-4zm0 6h4v4h-4zm0 6h4v4h-4zm6-12h4v4h-4zm0 6h4v4h-4zm0 6h4v4h-4zm6-12h4v4h-4zm0 6h4v4h-4zm0 6h4v4h-4zm6-12h4v4h-4zm0 6h4v4h-4zm0 6h4v4h-4zm6-12h4v4h-4zm0 6h4v4h-4zm0 6h4v4h-4zm6-12h4v4h-4zm0 6h4v4h-4zm0 6h4v4h-4zm6-12h4v4h-4zm0 6h4v4h-4zm0 6h4v4h-4zm6-12h4v4h-4zm0 6h4v4h-4zm0 6h4v4h-4zm6-12h4v4h-4zm0 6h4v4h-4zm0 6h4v4h-4zm6-12h4v4h-4zm0 6h4v4h-4zm0 6h4v4h-4zm6-12h4v4h-4zm0 6h4v4h-4zm0 6h4v4h-4zm6-12h4v4h-4zm0 6h4v4h-4zm0 6h4v4h-4zm6-12h4v4h-4zm0 6h4v4h-4zm0 6h4v4h-4zm6-12h4v4h-4zm0 6h4v4h-4zm0 6h4v4h-4z"/><path d="M1066 467v19a5 5 0 0 1-5 5H885a5 5 0 0 1-5-5v-19a5 5 0 0 1 5-5h176a5 5 0 0 1 5 5z" fill="#D2D2D2"/><path fill="#A3A3A3" d="M911 468h4v4h-4zm0 6h4v4h-4zm0 6h4v4h-4zm6-12h4v4h-4zm0 6h4v4h-4zm0 6h4v4h-4zm6-12h4v4h-4zm0 6h4v4h-4zm0 6h4v4h-4zm6-12h4v4h-4zm0 6h4v4h-4zm0 6h4v4h-4zm6-12h4v4h-4zm0 6h4v4h-4zm0 6h4v4h-4zm6-12h4v4h-4zm0 6h4v4h-4zm0 6h4v4h-4zm6-12h4v4h-4zm0 6h4v4h-4zm0 6h4v4h-4zm6-12h4v4h-4zm0 6h4v4h-4zm0 6h4v4h-4zm6-12h4v4h-4zm0 6h4v4h-4zm0 6h4v4h-4zm6-12h4v4h-4zm0 6h4v4h-4zm0 6h4v4h-4zm6-12h4v4h-4zm0 6h4v4h-4zm0 6h4v4h-4zm6-12h4v4h-4zm0 6h4v4h-4zm0 6h4v4h-4zm6-12h4v4h-4zm0 6h4v4h-4zm0 6h4v4h-4zm6-12h4v4h-4zm0 6h4v4h-4zm0 6h4v4h-4zm6-12h4v4h-4zm0 6h4v4h-4zm0 6h4v4h-4zm6-12h4v4h-4zm0 6h4v4h-4zm0 6h4v4h-4zm6-12h4v4h-4zm0 6h4v4h-4zm0 6h4v4h-4zm6-12h4v4h-4zm0 6h4v4h-4zm0 6h4v4h-4zm6-12h4v4h-4zm0 6h4v4h-4zm0 6h4v4h-4zm6-12h4v4h-4zm0 6h4v4h-4zm0 6h4v4h-4zm6-12h4v4h-4zm0 6h4v4h-4zm0 6h4v4h-4zm6-12h4v4h-4zm0 6h4v4h-4zm0 6h4v4h-4zm6-12h4v4h-4zm0 6h4v4h-4zm0 6h4v4h-4zm6-12h4v4h-4zm0 6h4v4h-4zm0 6h4v4h-4zm6-12h4v4h-4zm0 6h4v4h-4zm0 6h4v4h-4z"/><g transform="translate(880 103)"><path d="M186 5v314a5 5 0 0 1-5 5H5a5 5 0 0 1-5-5V5a5 5 0 0 1 5-5h176a5 5 0 0 1 5 5z" fill="#D2D2D2"/><path fill="#A3A3A3" d="M7 6h4v4H7zm0 6h4v4H7zm0 6h4v4H7zm6-12h4v4h-4zm0 6h4v4h-4zm0 6h4v4h-4zm6-12h4v4h-4zm0 6h4v4h-4zm0 6h4v4h-4zm6-12h4v4h-4zm0 6h4v4h-4zm0 6h4v4h-4zm6-12h4v4h-4zm0 6h4v4h-4zm0 6h4v4h-4zm6-12h4v4h-4zm0 6h4v4h-4zm0 6h4v4h-4zm6-12h4v4h-4zm0 6h4v4h-4zm0 6h4v4h-4zm6-12h4v4h-4zm0 6h4v4h-4zm0 6h4v4h-4zm6-12h4v4h-4zm0 6h4v4h-4zm0 6h4v4h-4zm6-12h4v4h-4zm0 6h4v4h-4zm0 6h4v4h-4zm6-12h4v4h-4zm0 6h4v4h-4zm0 6h4v4h-4zm6-12h4v4h-4zm0 6h4v4h-4zm0 6h4v4h-4zm6-12h4v4h-4zm0 6h4v4h-4zm0 6h4v4h-4zm6-12h4v4h-4zm0 6h4v4h-4zm0 6h4v4h-4zm6-12h4v4h-4zm0 6h4v4h-4zm0 6h4v4h-4zm6-12h4v4h-4zm0 6h4v4h-4zm0 6h4v4h-4zm6-12h4v4h-4zm0 6h4v4h-4zm0 6h4v4h-4zm6-12h4v4h-4zm0 6h4v4h-4zm0 6h4v4h-4zm6-12h4v4h-4zm0 6h4v4h-4zm0 6h4v4h-4zm6-12h4v4h-4zm0 6h4v4h-4zm0 6h4v4h-4zm6-12h4v4h-4zm0 6h4v4h-4zm0 6h4v4h-4zm6-12h4v4h-4zm0 6h4v4h-4zm0 6h4v4h-4zm6-12h4v4h-4zm0 6h4v4h-4zm0 6h4v4h-4zm6-12h4v4h-4zm0 6h4v4h-4zm0 6h4v4h-4zm6-12h4v4h-4zm0 6h4v4h-4zm0 6h4v4h-4zm6-12h4v4h-4zm0 6h4v4h-4zm0 6h4v4h-4zm6-12h4v4h-4zm0 6h4v4h-4zm0 6h4v4h-4zm6-12h4v4h-4zm0 6h4v4h-4zm0 6h4v4h-4zm6-12h4v4h-4zm0 6h4v4h-4zm0 6h4v4h-4zM7 313h4v4H7zm6 0h4v4h-4zm6 0h4v4h-4zm6 0h4v4h-4zm6 0h4v4h-4zm6 0h4v4h-4zm6 0h4v4h-4zm6 0h4v4h-4zm6 0h4v4h-4zm6 0h4v4h-4zm6 0h4v4h-4zm6 0h4v4h-4zm6 0h4v4h-4zm6 0h4v4h-4zm6 0h4v4h-4zm6 0h4v4h-4zm6 0h4v4h-4zm6 0h4v4h-4zm6 0h4v4h-4zm6 0h4v4h-4zm6 0h4v4h-4zm6 0h4v4h-4zm6 0h4v4h-4zm6 0h4v4h-4zm6 0h4v4h-4zm6 0h4v4h-4zm6 0h4v4h-4zm6 0h4v4h-4zm6 0h4v4h-4z"/><rect fill="#FFF" x="7" y="29" width="172" height="278" rx="2"/></g><path d="M898.009 443.34h2.375v-2.159h-2.375v2.16zm-2.807 0h2.375v-2.159h-2.375v2.16zm-2.807 0h2.375v-2.159h-2.375v2.16zm-2.806 0h2.375v-2.159h-2.375v2.16zm-2.807 0h2.375v-2.159h-2.375v2.16zm2.807-2.59h2.375v-2.16h-2.375v2.16zm2.806 0h2.375v-2.16h-2.375v2.16zm2.807 0h2.375v-2.16h-2.375v2.16zm0-2.591h2.375V436h-2.375v2.159zm12.318 3.923c-.518-.347-1.71-.475-2.627-.302-.118-.864-.6-1.612-1.475-2.29l-.504-.335-.336.504c-.43.648-.644 1.547-.574 2.408.032.304.131.846.443 1.322-.312.168-.928.399-1.74.383H885.09l-.03.18c-.148.866-.145 3.568 1.61 5.645 1.333 1.579 3.333 2.38 5.942 2.38 5.657 0 9.843-2.605 11.803-7.338.77.015 2.43.004 3.282-1.625.022-.037.073-.135.222-.443l.082-.17-.48-.32z" fill="#A3A3A3"/><g fill="#A3A3A3"><path d="M894.883 477.606a.34.34 0 0 0-.393-.259l-.003-.004-1.987.337c.307.849.88 1.54 1.6 2.002l.77-1.86-.006-.007a.336.336 0 0 0 .019-.21m-.661-1.431a.34.34 0 0 0 .134-.583l.001-.008-1.511-1.353a3.964 3.964 0 0 0-.563 2.509l1.938-.56.001-.006zm.883-1.526a.34.34 0 0 0 .539-.26l.008-.004.114-2.019a3.965 3.965 0 0 0-2.32 1.111l1.654 1.174.004-.002zm.585 2.12l.558.268.556-.268.138-.6-.385-.481h-.619l-.386.48zm1.157-2.386a.34.34 0 0 0 .54.259l.005.002 1.645-1.166a3.998 3.998 0 0 0-2.307-1.112l.114 2.016h.002z"/><path d="M903.02 477.867c-.047.205-.27.33-.497.28h-.006l-.007-.002c-.032-.007-.072-.014-.1-.022-.132-.035-.227-.088-.345-.133-.255-.091-.466-.168-.671-.197-.105-.009-.158.041-.216.08a5.777 5.777 0 0 0-.164-.03 5.008 5.008 0 0 1-2.22 2.792c.02.044.05.139.065.155-.024.065-.06.127-.03.227.075.194.196.383.342.611.07.106.142.187.206.307l.05.104c.1.211.027.455-.163.547-.192.092-.43-.006-.533-.218-.014-.03-.035-.07-.047-.099-.055-.125-.074-.232-.112-.353-.087-.256-.16-.468-.264-.647-.059-.087-.13-.098-.197-.12l-.082-.147a4.993 4.993 0 0 1-3.552-.01l-.087.159c-.065.017-.127.034-.166.08-.14.168-.196.436-.298.692-.038.12-.056.228-.11.353l-.048.097v.001l-.001.001c-.103.212-.34.31-.532.217-.19-.091-.262-.335-.163-.547.014-.03.034-.075.05-.103.063-.12.135-.203.206-.308.145-.228.273-.432.348-.626.019-.064-.01-.153-.034-.218l.07-.167a5.009 5.009 0 0 1-2.22-2.772l-.168.029c-.045-.025-.135-.085-.221-.078-.206.03-.416.106-.671.197-.118.045-.214.097-.346.132-.027.008-.067.016-.099.023l-.007.002-.006.001c-.228.05-.45-.076-.497-.281-.047-.206.099-.414.326-.469l.006-.002h.003c.032-.008.073-.019.103-.024.134-.026.243-.02.369-.03.269-.028.492-.051.69-.113.063-.026.123-.113.165-.167l.161-.047a4.98 4.98 0 0 1 .786-3.472l-.124-.11c-.008-.049-.018-.16-.077-.223-.151-.142-.342-.26-.572-.402-.11-.064-.21-.106-.32-.186l-.08-.065-.005-.004c-.185-.147-.227-.401-.095-.567a.37.37 0 0 1 .307-.136.458.458 0 0 1 .268.101c.027.021.062.048.086.069.103.088.166.176.253.268.19.193.347.353.52.47.09.052.159.03.228.021l.139.1a4.95 4.95 0 0 1 3.21-1.545l.01-.162a.42.42 0 0 0 .124-.2c.017-.206-.01-.429-.042-.698-.018-.125-.048-.23-.053-.366v-.108c0-.237.172-.429.385-.429.212 0 .385.192.385.428 0 .034.002.079 0 .11-.005.136-.034.24-.052.365-.032.269-.06.492-.044.699.015.103.076.144.126.192l.01.172a5.044 5.044 0 0 1 3.194 1.544l.147-.105c.05.003.158.018.233-.025.172-.116.33-.277.519-.47.087-.092.15-.18.254-.269l.086-.068c.184-.147.441-.132.574.034.132.167.09.42-.095.568-.026.02-.06.05-.085.068-.11.081-.21.123-.32.187-.23.142-.42.26-.572.402-.071.076-.066.149-.072.218l-.137.122a4.982 4.982 0 0 1 .802 3.464l.155.046c.028.04.086.135.167.167.198.062.42.085.69.113.126.01.235.004.369.03.032.006.079.018.112.026.227.055.372.263.325.469m2.447.084l-1.59-6.902a1.222 1.222 0 0 0-.665-.827l-6.43-3.071a1.239 1.239 0 0 0-1.068 0l-6.43 3.072a1.221 1.221 0 0 0-.666.828l-1.586 6.901a1.211 1.211 0 0 0 .237 1.032l4.45 5.534c.234.29.588.46.962.46l7.137-.002c.374 0 .728-.169.962-.459l4.449-5.534c.233-.29.32-.67.238-1.032"/><path d="M899.64 474.231l-1.504 1.346v.004a.34.34 0 0 0 .133.583l.003.008 1.947.561c.041-.42.016-.855-.084-1.29a4.013 4.013 0 0 0-.496-1.212m-3.093 4.104a.337.337 0 0 0-.31-.178.34.34 0 0 0-.288.179h-.001l-.977 1.766a3.98 3.98 0 0 0 2.563.003l-.98-1.77h-.007zm1.455-.995a.338.338 0 0 0-.208.028.34.34 0 0 0-.164.44l-.003.002.778 1.88a3.97 3.97 0 0 0 1.605-2.016l-2.005-.339-.003.004z"/></g></g><g><g transform="translate(496 708)"><rect stroke="#B38D62" stroke-width="3" fill="#FCCA91" fill-rule="nonzero" x="1.5" y="1.5" width="349" height="148" rx="5"/><text font-family="sans-serif" font-size="40.8" font-weight="bold" letter-spacing="-1.299" fill="#000"><tspan x="54.151" y="50">Routing table</tspan></text></g><path fill="#E6C8A5" fill-rule="nonzero" d="M508 773h157v73H508zm171 0h157v73H679z"/><path fill="#858585" fill-rule="nonzero" d="M689 786h138v17H689zm0 26h138v17H689zm-171-26h138v17H518zm0 26h138v17H518z"/></g></g></svg>