<svg viewBox="0 0 1200 900" xmlns="http://www.w3.org/2000/svg"><g fill="none" fill-rule="evenodd"><path d="M207.87 173.88v18.519h17.098v12.362H207.87v19.324h-13.025v-19.324H177.7v-12.362h17.145v-18.52h13.025zm84.122 34.149H306.2q-.805 11.13-8.218 17.524-7.412 6.394-19.537 6.394-13.262 0-20.864-8.928-7.601-8.928-7.601-24.51v-4.216q0-9.946 3.505-17.524 3.504-7.578 10.017-11.628 6.512-4.05 15.132-4.05 11.936 0 19.23 6.395 7.294 6.394 8.43 17.95h-14.208q-.521-6.678-3.718-9.685-3.197-3.008-9.734-3.008-7.104 0-10.633 5.092-3.528 5.091-3.623 15.795v5.21q0 11.178 3.387 16.34 3.386 5.163 10.68 5.163 6.583 0 9.828-3.007 3.244-3.008 3.718-9.307zm17.408-2.51v-.616q0-7.626 2.937-13.593 2.936-5.968 8.454-9.236 5.518-3.268 12.812-3.268 10.372 0 16.932 6.346 6.56 6.347 7.318 17.24l.095 3.505q0 11.794-6.584 18.922-6.583 7.128-17.666 7.128t-17.69-7.104q-6.608-7.105-6.608-19.324zm13.688.378q0 7.294 2.747 11.155 2.747 3.86 7.863 3.86 4.973 0 7.767-3.813 2.795-3.813 2.795-12.196 0-7.152-2.795-11.083-2.794-3.931-7.862-3.931-5.02 0-7.768 3.907-2.747 3.908-2.747 12.101zm39.906-26.144h12.883l.426 5.92q5.494-6.867 14.73-6.867 8.147 0 12.125 4.783 3.979 4.784 4.073 14.304V231h-13.688v-32.775q0-4.358-1.894-6.323-1.895-1.966-6.3-1.966-5.778 0-8.667 4.926V231h-13.688v-51.247zm54.21-12.599h13.688v12.599h8.762v10.04h-8.762v25.577q0 2.842 1.089 4.073 1.09 1.232 4.168 1.232 2.273 0 4.026-.332v10.373q-4.026 1.231-8.289 1.231-14.398 0-14.682-14.54v-27.613h-7.484v-10.041h7.484v-12.599zm55.962 12.267l-.19 13.167q-2.794-.379-4.926-.379-7.767 0-10.183 5.258V231H444.18v-51.247h12.93l.38 6.11q4.12-7.057 11.414-7.057 2.273 0 4.263.615zm-.543 26.098v-.616q0-7.626 2.937-13.593 2.936-5.968 8.454-9.236 5.518-3.268 12.812-3.268 10.372 0 16.932 6.346 6.56 6.347 7.318 17.24l.095 3.505q0 11.794-6.584 18.922-6.583 7.128-17.666 7.128t-17.69-7.104q-6.608-7.105-6.608-19.324zm13.688.378q0 7.294 2.747 11.155 2.747 3.86 7.863 3.86 4.973 0 7.767-3.813 2.795-3.813 2.795-12.196 0-7.152-2.795-11.083-2.794-3.931-7.862-3.931-5.02 0-7.768 3.907-2.747 3.908-2.747 12.101zm54.636-47.647V231h-13.735v-72.75h13.735zm27.239 47.316v-.568q0-11.794 5.612-18.993 5.613-7.2 15.133-7.2 8.43 0 13.12 5.779l.568-4.831h12.409v49.542q0 6.726-3.055 11.699t-8.597 7.578q-5.541 2.605-12.977 2.605-5.636 0-10.988-2.25-5.352-2.25-8.1-5.802l6.063-8.336q5.115 5.731 12.41 5.731 5.446 0 8.477-2.913 3.031-2.913 3.031-8.265v-2.747q-4.736 5.352-12.456 5.352-9.236 0-14.943-7.223-5.707-7.223-5.707-19.158zm13.688.426q0 6.963 2.794 10.917 2.794 3.955 7.673 3.955 6.252 0 8.951-4.689v-21.55q-2.747-4.689-8.856-4.689-4.926 0-7.744 4.026-2.818 4.026-2.818 12.03zm69.555-26.57l-.19 13.166q-2.794-.379-4.925-.379-7.768 0-10.184 5.258V231h-13.688v-51.247h12.93l.38 6.11q4.12-7.057 11.414-7.057 2.274 0 4.263.615zm-.543 26.097v-.616q0-7.626 2.937-13.593 2.936-5.968 8.454-9.236 5.518-3.268 12.812-3.268 10.373 0 16.932 6.346 6.56 6.347 7.318 17.24l.095 3.505q0 11.794-6.584 18.922-6.583 7.128-17.666 7.128t-17.69-7.104q-6.608-7.105-6.608-19.324zm13.688.378q0 7.294 2.747 11.155 2.748 3.86 7.863 3.86 4.973 0 7.767-3.813 2.795-3.813 2.795-12.196 0-7.152-2.795-11.083-2.794-3.931-7.862-3.931-5.02 0-7.768 3.907-2.747 3.908-2.747 12.101zM735.834 231l-.378-5.21q-5.068 6.157-14.02 6.157-8.24 0-12.575-4.736-4.333-4.736-4.428-13.878v-33.58h13.688v33.107q0 8.004 7.294 8.004 6.962 0 9.567-4.83v-36.281h13.736V231h-12.883zm66.24-25.86v.71q0 11.84-5.375 18.97-5.376 7.127-14.517 7.127-7.768 0-12.551-5.4v24.156h-13.688v-70.95h12.693l.474 5.02q4.973-5.967 12.977-5.967 9.473 0 14.73 7.01 5.258 7.01 5.258 19.324zm-13.687-.285q0-7.151-2.534-11.035-2.534-3.884-7.365-3.884-6.442 0-8.857 4.926v20.982q2.51 5.068 8.951 5.068 9.805 0 9.805-16.057zm46.82 11.983q0-2.51-2.486-3.954-2.487-1.445-7.98-2.582-18.283-3.836-18.283-15.535 0-6.82 5.66-11.39 5.66-4.571 14.8-4.571 9.758 0 15.607 4.594 5.85 4.594 5.85 11.935h-13.688q0-2.936-1.895-4.854-1.895-1.918-5.92-1.918-3.458 0-5.352 1.562-1.895 1.563-1.895 3.979 0 2.273 2.155 3.67 2.155 1.398 7.27 2.416 5.116 1.018 8.62 2.297 10.847 3.979 10.847 13.783 0 7.01-6.016 11.344-6.015 4.333-15.535 4.333-6.441 0-11.438-2.297-4.997-2.297-7.839-6.3-2.841-4.001-2.841-8.643h12.977q.19 3.647 2.7 5.589 2.51 1.942 6.725 1.942 3.932 0 5.945-1.492 2.013-1.492 2.013-3.908zM207.87 289.88v18.519h17.098v12.362H207.87v19.324h-13.025v-19.324H177.7v-12.362h17.145v-18.52h13.025zm100.273-11.84V347h-14.21l-27.66-45.374V347h-14.208v-68.96h14.209l27.707 45.468v-45.469h14.162zM360.079 347h-13.83q-.947-1.847-1.374-4.594-4.973 5.541-12.93 5.541-7.53 0-12.48-4.357-4.95-4.358-4.95-10.988 0-8.147 6.04-12.504 6.038-4.358 17.453-4.405h6.299v-2.937q0-3.552-1.824-5.683-1.823-2.132-5.754-2.132-3.458 0-5.423 1.658-1.966 1.658-1.966 4.547h-13.688q0-4.452 2.747-8.241 2.747-3.79 7.768-5.944 5.02-2.155 11.272-2.155 9.473 0 15.038 4.76 5.565 4.76 5.565 13.38v22.213q.048 7.294 2.037 11.036V347zm-25.15-9.52q3.031 0 5.589-1.35 2.557-1.35 3.789-3.623v-8.81h-5.115q-10.278 0-10.941 7.105l-.048.805q0 2.558 1.8 4.215 1.8 1.658 4.926 1.658zm30.528-41.727h12.835l.427 5.73q5.446-6.677 14.73-6.677 9.899 0 13.593 7.815 5.4-7.815 15.393-7.815 8.336 0 12.41 4.854 4.072 4.855 4.072 14.612V347h-13.735v-32.68q0-4.358-1.705-6.371-1.705-2.013-6.015-2.013-6.157 0-8.526 5.873l.048 35.191h-13.688v-32.633q0-4.452-1.753-6.442-1.752-1.989-5.967-1.989-5.826 0-8.431 4.831V347h-13.688v-51.247zm104.462 52.194q-11.273 0-18.353-6.915-7.081-6.915-7.081-18.424v-1.326q0-7.72 2.984-13.807 2.984-6.086 8.454-9.378 5.47-3.291 12.48-3.291 10.515 0 16.554 6.63 6.039 6.631 6.039 18.804v5.589h-32.634q.663 5.02 4.003 8.051 3.339 3.032 8.454 3.032 7.91 0 12.362-5.731l6.725 7.53q-3.078 4.358-8.336 6.797-5.257 2.44-11.651 2.44zm-1.563-42.058q-4.073 0-6.607 2.747t-3.245 7.862h19.04v-1.09q-.094-4.546-2.462-7.033-2.369-2.486-6.726-2.486zm55.062 26.95q0-2.51-2.487-3.955-2.486-1.445-7.98-2.582-18.282-3.836-18.282-15.535 0-6.82 5.66-11.39 5.66-4.571 14.8-4.571 9.757 0 15.607 4.594t5.85 11.935h-13.689q0-2.936-1.894-4.854-1.895-1.918-5.92-1.918-3.458 0-5.353 1.562-1.894 1.563-1.894 3.979 0 2.273 2.155 3.67 2.155 1.398 7.27 2.416t8.62 2.297q10.846 3.979 10.846 13.783 0 7.01-6.015 11.344-6.015 4.333-15.535 4.333-6.442 0-11.438-2.297-4.997-2.297-7.839-6.3-2.842-4.001-2.842-8.643h12.978q.19 3.647 2.7 5.589 2.51 1.942 6.725 1.942 3.931 0 5.944-1.492t2.013-3.908zm65.15-11.7v.711q0 11.84-5.375 18.97-5.376 7.127-14.517 7.127-7.768 0-12.551-5.4v24.156h-13.688v-70.95h12.693l.474 5.02q4.973-5.967 12.977-5.967 9.473 0 14.73 7.01 5.258 7.01 5.258 19.324zm-13.687-.284q0-7.151-2.534-11.035-2.534-3.884-7.365-3.884-6.442 0-8.857 4.926v20.982q2.51 5.068 8.951 5.068 9.805 0 9.805-16.057zM637.473 347h-13.83q-.947-1.847-1.373-4.594-4.973 5.541-12.93 5.541-7.531 0-12.48-4.357-4.95-4.358-4.95-10.988 0-8.147 6.039-12.504 6.039-4.358 17.453-4.405h6.3v-2.937q0-3.552-1.824-5.683-1.824-2.132-5.755-2.132-3.457 0-5.423 1.658-1.965 1.658-1.965 4.547h-13.688q0-4.452 2.747-8.241 2.747-3.79 7.767-5.944 5.02-2.155 11.273-2.155 9.472 0 15.038 4.76 5.565 4.76 5.565 13.38v22.213q.047 7.294 2.036 11.036V347zm-25.15-9.52q3.032 0 5.59-1.35 2.557-1.35 3.788-3.623v-8.81h-5.115q-10.278 0-10.94 7.105l-.048.805q0 2.558 1.8 4.215 1.8 1.658 4.926 1.658zm51.842-.568q3.789 0 6.157-2.084t2.463-5.542h12.836q-.048 5.21-2.842 9.544-2.795 4.334-7.65 6.725-4.854 2.392-10.727 2.392-10.989 0-17.335-6.986-6.347-6.986-6.347-19.3v-.9q0-11.841 6.3-18.898 6.299-7.057 17.287-7.057 9.615 0 15.417 5.47t5.897 14.564h-12.836q-.095-3.978-2.463-6.465-2.368-2.486-6.252-2.486-4.783 0-7.223 3.48-2.439 3.482-2.439 11.297v1.42q0 7.91 2.416 11.368 2.415 3.458 7.34 3.458zm49.757 11.035q-11.272 0-18.353-6.915-7.08-6.915-7.08-18.424v-1.326q0-7.72 2.983-13.807 2.984-6.086 8.455-9.378 5.47-3.291 12.48-3.291 10.514 0 16.553 6.63 6.04 6.632 6.04 18.804v5.589h-32.633q.663 5.02 4.002 8.051 3.339 3.032 8.454 3.032 7.91 0 12.362-5.731l6.726 7.53q-3.079 4.358-8.336 6.797-5.258 2.44-11.652 2.44zm-1.563-42.058q-4.073 0-6.607 2.747t-3.244 7.862h19.04v-1.09q-.095-4.546-2.463-7.033-2.368-2.486-6.726-2.486zm55.062 26.95q0-2.51-2.486-3.955-2.487-1.445-7.98-2.582-18.283-3.836-18.283-15.535 0-6.82 5.66-11.39 5.66-4.571 14.8-4.571 9.758 0 15.607 4.594 5.85 4.594 5.85 11.935H766.9q0-2.936-1.894-4.854-1.895-1.918-5.92-1.918-3.458 0-5.353 1.562-1.894 1.563-1.894 3.979 0 2.273 2.155 3.67 2.155 1.398 7.27 2.416t8.62 2.297q10.847 3.979 10.847 13.783 0 7.01-6.016 11.344-6.015 4.333-15.535 4.333-6.441 0-11.438-2.297-4.997-2.297-7.839-6.3-2.841-4.001-2.841-8.643h12.977q.19 3.647 2.7 5.589 2.51 1.942 6.725 1.942 3.932 0 5.945-1.492 2.012-1.492 2.012-3.908zM207.87 405.88v18.519h17.098v12.362H207.87v19.324h-13.025v-19.324H177.7v-12.362h17.145v-18.52h13.025zm43.91 31.591v-2.51q0-10.846 2.89-20.65 2.889-9.805 8.525-17.36 5.636-7.554 12.22-10.49l2.652 7.389q-6.915 5.115-10.799 15.819-3.884 10.704-3.884 25.008v1.468q0 14.351 3.837 25.103 3.836 10.751 10.846 16.056l-2.652 7.246q-6.442-2.889-12.007-10.206-5.565-7.318-8.502-16.886-2.936-9.567-3.126-19.987zm58.094 11.367q0-2.51-2.487-3.954-2.486-1.445-7.98-2.582-18.283-3.836-18.283-15.535 0-6.82 5.66-11.39 5.66-4.571 14.801-4.571 9.757 0 15.606 4.594 5.85 4.594 5.85 11.935h-13.688q0-2.936-1.895-4.854-1.894-1.918-5.92-1.918-3.458 0-5.352 1.562-1.895 1.563-1.895 3.979 0 2.273 2.155 3.67 2.155 1.398 7.27 2.416 5.116 1.018 8.62 2.297 10.847 3.979 10.847 13.783 0 7.01-6.015 11.344-6.015 4.333-15.535 4.333-6.442 0-11.439-2.297-4.996-2.297-7.838-6.3-2.842-4.001-2.842-8.643h12.978q.189 3.647 2.7 5.589 2.51 1.942 6.725 1.942 3.93 0 5.944-1.492 2.013-1.492 2.013-3.908zm42.605 15.11q-11.272 0-18.353-6.916-7.08-6.915-7.08-18.424v-1.326q0-7.72 2.983-13.807 2.984-6.086 8.455-9.378 5.47-3.291 12.48-3.291 10.514 0 16.553 6.63 6.04 6.631 6.04 18.804v5.589h-32.634q.663 5.02 4.002 8.051 3.34 3.032 8.454 3.032 7.91 0 12.362-5.731l6.726 7.53q-3.079 4.358-8.336 6.797-5.258 2.44-11.652 2.44zm-1.563-42.06q-4.073 0-6.607 2.748-2.534 2.747-3.244 7.862h19.04v-1.09q-.095-4.546-2.463-7.033-2.368-2.486-6.726-2.486zm48.621 31.024q3.79 0 6.157-2.084 2.368-2.084 2.463-5.542h12.836q-.048 5.21-2.842 9.544-2.795 4.334-7.65 6.725-4.854 2.392-10.727 2.392-10.988 0-17.335-6.986-6.347-6.986-6.347-19.3v-.9q0-11.841 6.3-18.898 6.299-7.057 17.287-7.057 9.615 0 15.417 5.47t5.897 14.564h-12.836q-.094-3.978-2.463-6.465-2.368-2.486-6.252-2.486-4.783 0-7.223 3.48-2.439 3.482-2.439 11.297v1.42q0 7.91 2.416 11.368 2.415 3.458 7.341 3.458zm55.157-41.49l-.19 13.166q-2.794-.379-4.925-.379-7.768 0-10.183 5.258V463h-13.688v-51.247h12.93l.379 6.11q4.12-7.057 11.414-7.057 2.274 0 4.263.615zm25.981 52.525q-11.272 0-18.353-6.915-7.081-6.915-7.081-18.424v-1.326q0-7.72 2.984-13.807 2.984-6.086 8.454-9.378 5.47-3.291 12.48-3.291 10.515 0 16.554 6.63 6.039 6.631 6.039 18.804v5.589h-32.634q.663 5.02 4.003 8.051 3.339 3.032 8.454 3.032 7.91 0 12.362-5.731l6.725 7.53q-3.078 4.358-8.336 6.797-5.257 2.44-11.651 2.44zm-1.563-42.058q-4.073 0-6.607 2.747t-3.245 7.862h19.04v-1.09q-.094-4.546-2.462-7.033-2.369-2.486-6.726-2.486zm30.007-22.735h13.688v12.599h8.762v10.04h-8.762v25.577q0 2.842 1.09 4.073 1.089 1.232 4.167 1.232 2.274 0 4.026-.332v10.373q-4.026 1.231-8.288 1.231-14.399 0-14.683-14.54v-27.613h-7.483v-10.041h7.483v-12.599zm75.786 49.684q0-2.51-2.487-3.954-2.486-1.445-7.98-2.582-18.283-3.836-18.283-15.535 0-6.82 5.66-11.39 5.66-4.571 14.801-4.571 9.757 0 15.606 4.594 5.85 4.594 5.85 11.935h-13.688q0-2.936-1.895-4.854-1.894-1.918-5.92-1.918-3.458 0-5.352 1.562-1.895 1.563-1.895 3.979 0 2.273 2.155 3.67 2.155 1.398 7.27 2.416 5.116 1.018 8.62 2.297 10.847 3.979 10.847 13.783 0 7.01-6.015 11.344-6.015 4.333-15.535 4.333-6.442 0-11.439-2.297-4.996-2.297-7.838-6.3-2.842-4.001-2.842-8.643h12.977q.19 3.647 2.7 5.589 2.51 1.942 6.726 1.942 3.93 0 5.944-1.492 2.013-1.492 2.013-3.908zM647.45 463h-13.83q-.947-1.847-1.373-4.594-4.973 5.541-12.93 5.541-7.531 0-12.48-4.357-4.95-4.358-4.95-10.988 0-8.147 6.039-12.504 6.038-4.358 17.453-4.405h6.3v-2.937q0-3.552-1.824-5.683-1.824-2.132-5.755-2.132-3.457 0-5.423 1.658-1.965 1.658-1.965 4.547h-13.688q0-4.452 2.747-8.241 2.747-3.79 7.767-5.944 5.02-2.155 11.273-2.155 9.472 0 15.037 4.76 5.566 4.76 5.566 13.38v22.213q.047 7.294 2.036 11.036V463zm-25.15-9.52q3.032 0 5.59-1.35 2.557-1.35 3.788-3.623v-8.81h-5.115q-10.278 0-10.94 7.105l-.048.805q0 2.558 1.8 4.215 1.8 1.658 4.925 1.658zm61.6 9.52l-.38-5.21q-5.067 6.157-14.019 6.157-8.241 0-12.575-4.736-4.333-4.736-4.428-13.878v-33.58h13.688v33.107q0 8.004 7.294 8.004 6.962 0 9.567-4.83v-36.281h13.735V463H683.9zm41.421-10.088q3.79 0 6.157-2.084 2.369-2.084 2.463-5.542h12.836q-.048 5.21-2.842 9.544-2.795 4.334-7.65 6.725-4.854 2.392-10.727 2.392-10.988 0-17.335-6.986-6.347-6.986-6.347-19.3v-.9q0-11.841 6.3-18.898 6.299-7.057 17.287-7.057 9.615 0 15.417 5.47t5.897 14.564H733.94q-.094-3.978-2.463-6.465-2.368-2.486-6.252-2.486-4.783 0-7.223 3.48-2.439 3.482-2.439 11.297v1.42q0 7.91 2.416 11.368 2.415 3.458 7.341 3.458zm49.758 11.035q-11.273 0-18.354-6.915-7.08-6.915-7.08-18.424v-1.326q0-7.72 2.983-13.807 2.984-6.086 8.455-9.378 5.47-3.291 12.48-3.291 10.515 0 16.553 6.63 6.04 6.631 6.04 18.804v5.589H763.52q.663 5.02 4.002 8.051 3.34 3.032 8.454 3.032 7.91 0 12.362-5.731l6.726 7.53q-3.079 4.358-8.336 6.797-5.257 2.44-11.651 2.44zm-1.563-42.058q-4.074 0-6.608 2.747t-3.244 7.862h19.04v-1.09q-.095-4.546-2.463-7.033-2.368-2.486-6.725-2.486zm50.894 12.03v2.131q0 10.704-3.079 20.603-3.079 9.9-8.857 17.477-5.778 7.578-12.362 10.42l-2.652-7.246q6.726-5.068 10.61-15.63 3.883-10.562 4.025-24.298v-2.51q0-14.161-3.86-24.96-3.86-10.8-10.775-16.198l2.652-7.247q6.442 2.794 12.149 10.136 5.707 7.341 8.857 17.098 3.15 9.757 3.292 20.224zM223.784 678.49v11.177h-42.343v-11.178h42.343zm0 20.508v11.177h-42.343v-11.177h42.343z" fill="#000" fill-rule="nonzero"></path><path fill="#099CEC" d="M343.529 683.963h23.093V663.03h-23.093zm27.291 0h23.093V663.03H370.82zm27.291 0h23.093V663.03h-23.093zm27.292 0h23.092V663.03h-23.092zm27.291 0h23.092V663.03h-23.092zm-81.874-25.12h23.093V637.91H370.82zm27.291 0h23.093V637.91h-23.093zm27.292 0h23.092V637.91h-23.092zm0-25.12h23.092V612.79h-23.092z"></path><path d="M544.569 669.492c-4.74-3.182-17.194-4.538-26.246-2.108-.489-8.993-5.137-16.57-13.645-23.18l-3.15-2.108-2.099 3.161c-4.125 6.243-5.863 14.564-5.248 22.127.485 4.66 2.112 9.897 5.248 13.699-2.406 1.863-9.873 5.46-19.943 5.269H329.385c-2.67 15.804 1.9 75.866 71.376 75.866 51.576 0 93.957-23.129 113.364-71.652 6.384.104 23.239 1.14 31.49-14.752.199-.268 2.099-4.214 2.099-4.214l-3.145-2.108" fill="#099CEC"></path><path d="M384.842 733.682c-17.126 5.924-35.568 6.78-39.423 6.609 12.846 10.684 35.741 30.843 73.476 19.332-6.892-1.868-23.147-8.114-34.053-25.941m14.061-21.075c4.03 0 7.3 3.282 7.3 7.326 0 4.049-3.27 7.327-7.3 7.327-4.03 0-7.3-3.278-7.3-7.327 0-4.044 3.27-7.326 7.3-7.326" fill="#FFF"></path><path d="M400 717.875c0-.67.335-1.243.822-1.628a4.12 4.12 0 0 0-1.898-.48 4.179 4.179 0 0 0-4.171 4.187 4.176 4.176 0 0 0 4.17 4.187 4.176 4.176 0 0 0 4.17-4.187l-.025-.238a2.03 2.03 0 0 1-.968.267c-1.159 0-2.1-.942-2.1-2.108" fill="#4D5C64"></path><path d="M543.947 669.11c-3.244-1.835-9.15-2.97-15.248-2.97-3.558 0-7.18.386-10.377 1.244-.01-.188-.023-.379-.037-.567 2.882-.76 6.188-1.099 9.49-1.099 6.561 0 13.092 1.342 16.172 3.391" fill="#F3F3F3"></path><path d="M411.2 761.586a83.18 83.18 0 0 0 7.695-1.963c-3.227-.875-8.51-2.709-14.334-6.247 47.982-1.164 83.12-25.72 111.207-83.687l1.927-2.709c.195-.056.392-.11.59-.163.014.188.027.379.037.567 3.198-.858 6.819-1.243 10.377-1.243 6.099 0 12.004 1.134 15.248 2.968.004.004.01.009.016.01l3.17 2.144-1.595 3.37c-7.28 14.715-23.088 15.822-30.49 15.822-.603 0-1.15-.008-1.632-.015-18.142 44.802-55.83 67.906-102.215 71.146" fill="#F3F3F3"></path><path d="M411.2 761.586a83.18 83.18 0 0 0 7.695-1.963c-3.227-.876-8.51-2.71-14.334-6.247 47.982-1.164 83.12-25.72 111.207-83.687l1.927-2.71c.195-.056.392-.11.59-.162.014.188.027.379.037.567 3.198-.858 6.819-1.243 10.378-1.243 6.099 0 12.004 1.134 15.248 2.968.004.004.01.008.016.01l3.17 2.144-1.595 3.37c-7.28 14.714-23.088 15.822-30.49 15.822-.603 0-1.15-.009-1.632-.015-18.142 44.801-55.83 67.906-102.215 71.146" fill="#0994E0"></path><path d="M374.948 759.108c-46.318-11.907-49.23-57.362-48.29-71.055h2.487c-1.722 15.058 2.542 56.835 43.328 70.08.81.34 1.635.664 2.475.974" fill="#F3F3F3"></path><path d="M372.473 758.134c-40.786-13.246-45.05-55.023-43.328-70.08h5.91c2.126 21.64 7.374 39.962 21.444 51.642-4.465.463-8.007.614-10.008.614-.43 0-.789-.007-1.072-.02 6.36 5.29 15.186 12.902 27.054 17.844" fill="#F3F3F3"></path><path d="M372.473 758.134c-40.786-13.246-45.05-55.023-43.328-70.08h5.91c2.126 21.64 7.374 39.962 21.444 51.642-4.465.463-8.007.614-10.008.614-.43 0-.789-.007-1.072-.02 6.36 5.29 15.186 12.902 27.054 17.844" fill="#0994E0"></path><path d="M399.636 761.984c-9.36 0-17.54-1.038-24.688-2.876-.84-.31-1.665-.634-2.475-.974-11.868-4.942-20.693-12.553-27.054-17.843.283.012.642.019 1.072.019 2.001 0 5.543-.151 10.008-.614 10.381 8.62 25.561 13.626 47.833 13.687l.229-.007c5.823 3.538 11.107 5.372 14.334 6.247a83.18 83.18 0 0 1-7.694 1.963c-3.798.266-7.659.398-11.565.398" fill="#F3F3F3"></path><path d="M73.636 154.984c-9.36 0-17.54-1.038-24.688-2.876-.84-.31-1.665-.634-2.475-.974-11.868-4.942-20.693-12.553-27.054-17.843.283.012.642.019 1.072.019 2.001 0 5.543-.151 10.008-.614 10.381 8.62 25.561 13.626 47.833 13.687l.229-.007c5.823 3.538 11.107 5.372 14.334 6.247a83.18 83.18 0 0 1-7.694 1.963c-3.798.266-7.659.398-11.565.398" fill="#F2F2F2" mask="url(#mask-2)" transform="translate(326 607)"></path><path d="M218.04 65.521c-.261.528-.482.974-.652 1.307a13.7 13.7 0 0 1-.371.688c-3.116 6.004-7.692 9.764-13.497 11.796-4.595 1.612-8.76 1.972-15.004 1.844l-1.091-.023-1.445-.023-.54 1.346c-18.364 45.922-58.467 70.328-111.412 70.328-23.191 0-40.185-6.728-51.775-18.637a61.5 61.5 0 0 0 6.755.385c10.915 0 21.098-2.847 29.966-7.85a50.617 50.617 0 0 1-2.045-3.688c-8.24 4.689-17.794 7.322-27.92 7.322-3.771 0-7.451-.374-11.016-1.074a60.416 60.416 0 0 1-4.879-7.387c-4.2-7.526-6.877-15.968-8.13-24.611-.87-5.994-.985-11.81-.506-16.11h8.853v.016h140.654v-.042c8.315-.094 16.091-2.658 19.994-5.681l1.721-1.333-1.388-1.68c-2.6-3.15-4.276-7.766-4.778-12.572-.596-7.337 1.189-15.11 4.91-20.745l.933-1.402 1.34.896c8.149 6.349 12.333 13.401 12.776 21.584l.142 2.594 2.496-.672c8.175-2.196 20.145-1.124 24.535 1.823l1.625 1.086c-.076.155-.15.304-.252.515zM17.53 76.92h23.092V56.03H17.529v20.89zm27.29-25.077h23.093V30.91H44.82v20.933zm27.291 0h23.093V30.91H72.11v20.933zm27.292-25.12h23.092V5.79H99.403v20.933zm0 25.12h23.092V30.91H99.403v20.933zm27.29 25.077h23.093V56.03h-23.092v20.89zm-81.873 0h23.093V56.03H44.82v20.89zm27.291 0h23.093V56.03H72.11v20.89zm27.292 0h23.092V56.03H99.403v20.89zm94.047-19.443c-1.161-8.468-5.922-15.818-14.28-22.311l-4.956-3.316-3.265 4.913c-4.268 6.462-6.268 15.177-5.594 23.468.495 4.757 1.969 9.345 4.335 12.977-3.573 1.987-9.437 3.611-15.705 3.695v-25.06h-27.291V1.603h-31.49v25.12H40.622v25.12H13.33V76.92H.878l-.296 1.754c-.82 4.842-.807 11.905.247 19.177 1.325 9.13 4.153 18.063 8.624 26.068C21.098 144.76 42.253 157 74.028 157c54.066 0 95.481-24.89 114.761-71.623 6.517.117 11.018-.298 16.115-2.085 6.755-2.368 12.17-6.802 15.8-13.754.203-.337.5-.929 1.13-2.218.232-.465.473-.966.714-1.464l.322-.665.793-1.65-4.662-3.125c-5.045-3.385-16.541-4.662-25.551-2.94z" fill="#066DA5" mask="url(#mask-2)" transform="translate(326 607)"></path><path fill="#066DA5" d="M347.728 679.777h2.099v-12.56h-2.099zm6.298 0h2.099v-12.56h-2.099zm6.298 0h2.099v-12.56h-2.099zm14.695 0h2.099v-12.56h-2.099zm6.298 0h2.099v-12.56h-2.099zm6.298 0h2.099v-12.56h-2.099zm14.695 0h2.099v-12.56h-2.099zm6.298 0h2.099v-12.56h-2.099zm6.298 0h2.099v-12.56h-2.099zm14.695 0h2.1v-12.56h-2.1zm6.298 0h2.099v-12.56h-2.099zm6.298 0h2.099v-12.56h-2.099zm14.695 0h2.1v-12.56h-2.1zm6.298 0h2.1v-12.56h-2.1zm6.298 0h2.1v-12.56h-2.1zm-88.171-25.12h2.099v-12.56h-2.099zm6.298 0h2.099v-12.56h-2.099zm14.695 0h2.099v-12.56h-2.099zm6.298 0h2.099v-12.56h-2.099zm6.298 0h2.099v-12.56h-2.099zm14.695 0h2.1v-12.56h-2.1zm6.298 0h2.099v-12.56h-2.099zm6.298 0h2.099v-12.56h-2.099zm-6.298-25.12h2.099v-12.56h-2.099zm-6.298 0h2.1v-12.56h-2.1zm12.596 0h2.099v-12.56h-2.099zm-67.178 25.12h2.099v-12.56h-2.099zm457.852 52.62c.6-2.08 1.522-3.982 2.763-5.704a19.633 19.633 0 0 1 4.398-4.428 20.553 20.553 0 0 1 5.582-2.866 19.503 19.503 0 0 1 6.258-1.021c2.144 0 4.22.339 6.23 1.021a20.22 20.22 0 0 1 5.526 2.866 20.446 20.446 0 0 1 4.398 4.428 19.108 19.108 0 0 1 2.847 5.704h-38.002zm41.33-16.575c-6.24-6.207-13.682-9.31-22.329-9.31-8.72 0-16.165 3.103-22.328 9.31-6.166 6.207-9.248 13.7-9.248 22.48 0 8.78 3.082 16.274 9.248 22.48 6.163 6.207 13.608 9.31 22.328 9.31 7.931 0 14.81-2.573 20.638-7.72 1.128-1.173 1.69-2.592 1.69-4.256 0-1.704-.554-3.115-1.664-4.231-1.107-1.116-2.507-1.675-4.199-1.675a6.13 6.13 0 0 0-3.89 1.476c-1.768 1.514-3.684 2.65-5.754 3.406-2.066.758-4.34 1.135-6.82 1.135a19.44 19.44 0 0 1-6.288-1.022 20.12 20.12 0 0 1-5.524-2.866 19.922 19.922 0 0 1-4.372-4.427 19.452 19.452 0 0 1-2.818-5.707h44.655c1.654 0 3.054-.558 4.203-1.674 1.146-1.116 1.719-2.527 1.719-4.229 0-4.39-.773-8.467-2.311-12.233-1.541-3.766-3.855-7.182-6.937-10.247zm61.856-5.336c-1.054-1.022-2.379-1.825-3.976-2.414-1.596-.586-3.345-.992-5.244-1.22a45.19 45.19 0 0 0-5.328-.34c-3.758 0-7.291.606-10.598 1.816-3.31 1.212-6.373 2.953-9.193 5.225v-1.137c0-1.626-.573-3.019-1.72-4.172-1.147-1.153-2.527-1.731-4.143-1.731-1.654 0-3.055.578-4.2 1.731-1.147 1.153-1.722 2.546-1.722 4.172v51.772c0 1.627.575 3.017 1.721 4.172 1.146 1.156 2.547 1.732 4.2 1.732 1.617 0 2.997-.576 4.145-1.732 1.146-1.155 1.72-2.545 1.72-4.172v-25.886c0-2.76.518-5.355 1.55-7.776 1.034-2.422 2.444-4.533 4.23-6.33 1.783-1.799 3.88-3.218 6.286-4.259 2.406-1.04 4.982-1.56 7.724-1.56 2.783 0 5.357.472 7.725 1.42.938.415 1.768.624 2.481.624.828 0 1.596-.15 2.312-.454a5.551 5.551 0 0 0 1.86-1.277 6.567 6.567 0 0 0 1.268-1.9 5.68 5.68 0 0 0 .48-2.33c0-1.627-.526-2.952-1.578-3.974m-122.134 1.93a5.53 5.53 0 0 0-.479-2.27 6.598 6.598 0 0 0-1.27-1.902 5.585 5.585 0 0 0-1.858-1.277 5.861 5.861 0 0 0-2.313-.454c-1.165 0-2.22.301-3.158.908l-33.717 22.083v-44.28c0-1.665-.575-3.073-1.721-4.229-1.146-1.153-2.528-1.731-4.144-1.731-1.652 0-3.053.578-4.199 1.731-1.148 1.156-1.721 2.564-1.721 4.229v78.908c0 1.626.573 3.027 1.721 4.201 1.146 1.172 2.547 1.759 4.199 1.759 1.616 0 2.998-.587 4.144-1.759 1.146-1.174 1.721-2.575 1.721-4.201V718.52l6.878-4.542 26.05 29.461c1.052 1.022 2.368 1.533 3.947 1.533.827 0 1.597-.151 2.313-.453a5.56 5.56 0 0 0 1.858-1.279 6.56 6.56 0 0 0 1.27-1.9 5.54 5.54 0 0 0 .479-2.272c0-1.55-.544-2.932-1.636-4.144l-24.245-27.473 23.626-15.443c1.503-1.021 2.255-2.593 2.255-4.712m-205.219 33.579c-1.035 2.403-2.443 4.513-4.228 6.328-1.786 1.817-3.881 3.256-6.287 4.317-2.406 1.06-4.98 1.587-7.726 1.587-2.781 0-5.376-.528-7.78-1.587-2.408-1.061-4.492-2.49-6.26-4.287-1.765-1.798-3.166-3.909-4.199-6.33-1.034-2.423-1.55-4.995-1.55-7.72 0-2.726.516-5.297 1.55-7.721 1.033-2.422 2.434-4.532 4.2-6.33 1.767-1.798 3.851-3.226 6.26-4.285 2.403-1.06 4.998-1.59 7.78-1.59 2.745 0 5.319.53 7.725 1.59 2.406 1.059 4.5 2.497 6.287 4.314 1.785 1.817 3.193 3.927 4.228 6.33 1.035 2.403 1.552 4.966 1.552 7.691 0 2.726-.517 5.288-1.552 7.693zm7.415-66.731c-1.692 0-3.092.559-4.2 1.675-1.111 1.115-1.663 2.526-1.663 4.228v28.327c-5.715-4.653-12.313-6.981-19.793-6.981-8.72 0-16.162 3.102-22.328 9.309-6.164 6.207-9.245 13.7-9.245 22.48 0 8.78 3.081 16.274 9.245 22.48 6.166 6.207 13.608 9.31 22.328 9.31 8.645 0 16.09-3.103 22.33-9.31 6.164-6.13 9.246-13.625 9.246-22.48v-53.135c0-1.702-.57-3.113-1.72-4.228-1.145-1.116-2.546-1.675-4.2-1.675zm62.448 66.731a20.434 20.434 0 0 1-4.23 6.328c-1.784 1.817-3.881 3.256-6.285 4.317-2.408 1.06-4.982 1.587-7.726 1.587-2.781 0-5.374-.528-7.782-1.587-2.403-1.061-4.49-2.49-6.256-4.287-1.767-1.798-3.168-3.909-4.2-6.33-1.035-2.423-1.552-4.995-1.552-7.72 0-2.726.517-5.297 1.552-7.721 1.032-2.422 2.433-4.532 4.2-6.33 1.766-1.798 3.853-3.226 6.256-4.285 2.408-1.06 5-1.59 7.782-1.59 2.744 0 5.318.53 7.726 1.59 2.404 1.059 4.5 2.497 6.285 4.314a20.468 20.468 0 0 1 4.23 6.33c1.033 2.403 1.55 4.966 1.55 7.691 0 2.726-.517 5.288-1.55 7.693zm4.088-30.173c-6.242-6.207-13.684-9.31-22.329-9.31-8.72 0-16.162 3.103-22.326 9.31-6.165 6.207-9.25 13.7-9.25 22.48 0 8.78 3.085 16.274 9.25 22.48 6.164 6.207 13.606 9.31 22.326 9.31 8.645 0 16.087-3.103 22.329-9.31 6.165-6.13 9.247-13.625 9.247-22.48-.038-4.39-.816-8.457-2.34-12.204-1.523-3.747-3.823-7.172-6.907-10.276zm33.381 8.373c1.805-1.798 3.911-3.217 6.317-4.258 2.406-1.04 4.98-1.56 7.723-1.56 2.484 0 4.774.417 6.88 1.249 2.105.833 4.116 2.061 6.033 3.69 1.127.909 2.406 1.36 3.833 1.36 1.692 0 3.093-.567 4.201-1.701 1.11-1.135 1.663-2.554 1.663-4.258 0-1.777-.676-3.274-2.028-4.484-5.79-5.147-12.65-7.72-20.582-7.72-8.718 0-16.162 3.102-22.328 9.309-6.164 6.207-9.246 13.7-9.246 22.48 0 8.78 3.082 16.274 9.246 22.48 6.166 6.207 13.61 9.31 22.328 9.31 7.896 0 14.754-2.573 20.582-7.72 1.238-1.25 1.86-2.705 1.86-4.371 0-1.704-.554-3.111-1.665-4.229-1.108-1.118-2.509-1.675-4.2-1.675-1.426.038-2.667.455-3.72 1.248-1.882 1.629-3.872 2.849-5.977 3.661-2.106.814-4.396 1.22-6.88 1.22-2.744 0-5.317-.519-7.723-1.559-2.406-1.04-4.512-2.46-6.317-4.258-1.803-1.796-3.223-3.908-4.255-6.328-1.035-2.424-1.552-5.016-1.552-7.779 0-2.76.517-5.355 1.552-7.776 1.032-2.422 2.452-4.533 4.255-6.33m202.244 44.455c-1.86 0-3.223-1.454-3.223-3.288 0-1.809 1.363-3.289 3.2-3.289 1.839 0 3.17 1.48 3.17 3.314 0 1.809-1.331 3.263-3.147 3.263zm-.023-7.406c-2.366 0-4.256 1.834-4.256 4.118 0 2.336 1.89 4.168 4.256 4.168 2.39 0 4.228-1.832 4.228-4.168 0-2.284-1.837-4.118-4.228-4.118z"></path><path d="M918.08 740.069h-.453v-1.183c.1-.025.277-.048.529-.048.605 0 .882.251.882.626 0 .43-.429.605-.958.605zm1.134.3v-.05c.502-.152.854-.501.854-.953 0-.404-.176-.73-.403-.905-.302-.176-.653-.301-1.434-.301-.68 0-1.209.05-1.587.125v4.118h.958v-1.658h.453c.53 0 .781.199.855.651.128.48.203.856.327 1.007h1.035c-.103-.15-.176-.404-.304-1.03-.126-.552-.353-.854-.754-1.005z" fill="#066DA5"></path><path fill="#000" fill-rule="nonzero" d="M175 517h826v28H175z"></path></g></svg>