<svg viewBox="0 0 1200 900" xmlns="http://www.w3.org/2000/svg"><g fill="none" fill-rule="evenodd"><text font-family="sans-serif" font-size="97.35" font-weight="bold" letter-spacing="-3.1" fill="#000"><tspan x="175" y="231">+ Control groups</tspan></text><text font-family="sans-serif" font-size="97.35" font-weight="bold" letter-spacing="-3.1" fill="#000"><tspan x="175" y="347">+ Namespaces</tspan></text><text font-family="sans-serif" font-size="97.35" font-weight="bold" letter-spacing="-3.1" fill="#000"><tspan x="175" y="463">+ (secret sauce)</tspan></text><text font-family="sans-serif" font-size="97.35" font-weight="bold" letter-spacing="-3.1" fill="#000"><tspan x="175" y="725">=</tspan></text><path fill="#099CEC" d="M343.529 683.963h23.093V663.03h-23.093zm27.291 0h23.093V663.03H370.82zm27.291 0h23.093V663.03h-23.093zm27.292 0h23.092V663.03h-23.092zm27.291 0h23.092V663.03h-23.092zm-81.874-25.12h23.093V637.91H370.82zm27.291 0h23.093V637.91h-23.093zm27.292 0h23.092V637.91h-23.092zm0-25.12h23.092V612.79h-23.092z"/><path d="M544.569 669.492c-4.74-3.182-17.194-4.538-26.246-2.108-.489-8.993-5.137-16.57-13.645-23.18l-3.15-2.108-2.099 3.161c-4.125 6.243-5.863 14.564-5.248 22.127.485 4.66 2.112 9.897 5.248 13.699-2.406 1.863-9.873 5.46-19.943 5.269H329.385c-2.67 15.804 1.9 75.866 71.376 75.866 51.576 0 93.957-23.129 113.364-71.652 6.384.104 23.239 1.14 31.49-14.752.199-.268 2.099-4.214 2.099-4.214l-3.145-2.108" fill="#099CEC"/><path d="M384.842 733.682c-17.126 5.924-35.568 6.78-39.423 6.609 12.846 10.684 35.741 30.843 73.476 19.332-6.892-1.868-23.147-8.114-34.053-25.941m14.061-21.075c4.03 0 7.3 3.282 7.3 7.326 0 4.049-3.27 7.327-7.3 7.327-4.03 0-7.3-3.278-7.3-7.327 0-4.044 3.27-7.326 7.3-7.326" fill="#FFF"/><path d="M400 717.875c0-.67.335-1.243.822-1.628a4.12 4.12 0 0 0-1.898-.48 4.179 4.179 0 0 0-4.171 4.187 4.176 4.176 0 0 0 4.17 4.187 4.176 4.176 0 0 0 4.17-4.187l-.025-.238a2.03 2.03 0 0 1-.968.267c-1.159 0-2.1-.942-2.1-2.108" fill="#4D5C64"/><path d="M543.947 669.11c-3.244-1.835-9.15-2.97-15.248-2.97-3.558 0-7.18.386-10.377 1.244-.01-.188-.023-.379-.037-.567 2.882-.76 6.188-1.099 9.49-1.099 6.561 0 13.092 1.342 16.172 3.391" fill="#F3F3F3"/><path d="M411.2 761.586a83.18 83.18 0 0 0 7.695-1.963c-3.227-.875-8.51-2.709-14.334-6.247 47.982-1.164 83.12-25.72 111.207-83.687l1.927-2.709c.195-.056.392-.11.59-.163.014.188.027.379.037.567 3.198-.858 6.819-1.243 10.377-1.243 6.099 0 12.004 1.134 15.248 2.968.004.004.01.009.016.01l3.17 2.144-1.595 3.37c-7.28 14.715-23.088 15.822-30.49 15.822-.603 0-1.15-.008-1.632-.015-18.142 44.802-55.83 67.906-102.215 71.146" fill="#F3F3F3"/><path d="M411.2 761.586a83.18 83.18 0 0 0 7.695-1.963c-3.227-.876-8.51-2.71-14.334-6.247 47.982-1.164 83.12-25.72 111.207-83.687l1.927-2.71c.195-.056.392-.11.59-.162.014.188.027.379.037.567 3.198-.858 6.819-1.243 10.378-1.243 6.099 0 12.004 1.134 15.248 2.968.004.004.01.008.016.01l3.17 2.144-1.595 3.37c-7.28 14.714-23.088 15.822-30.49 15.822-.603 0-1.15-.009-1.632-.015-18.142 44.801-55.83 67.906-102.215 71.146" fill="#0994E0"/><path d="M374.948 759.108c-46.318-11.907-49.23-57.362-48.29-71.055h2.487c-1.722 15.058 2.542 56.835 43.328 70.08.81.34 1.635.664 2.475.974" fill="#F3F3F3"/><path d="M372.473 758.134c-40.786-13.246-45.05-55.023-43.328-70.08h5.91c2.126 21.64 7.374 39.962 21.444 51.642-4.465.463-8.007.614-10.008.614-.43 0-.789-.007-1.072-.02 6.36 5.29 15.186 12.902 27.054 17.844" fill="#F3F3F3"/><path d="M372.473 758.134c-40.786-13.246-45.05-55.023-43.328-70.08h5.91c2.126 21.64 7.374 39.962 21.444 51.642-4.465.463-8.007.614-10.008.614-.43 0-.789-.007-1.072-.02 6.36 5.29 15.186 12.902 27.054 17.844" fill="#0994E0"/><path d="M399.636 761.984c-9.36 0-17.54-1.038-24.688-2.876-.84-.31-1.665-.634-2.475-.974-11.868-4.942-20.693-12.553-27.054-17.843.283.012.642.019 1.072.019 2.001 0 5.543-.151 10.008-.614 10.381 8.62 25.561 13.626 47.833 13.687l.229-.007c5.823 3.538 11.107 5.372 14.334 6.247a83.18 83.18 0 0 1-7.694 1.963c-3.798.266-7.659.398-11.565.398" fill="#F3F3F3"/><path d="M73.636 154.984c-9.36 0-17.54-1.038-24.688-2.876-.84-.31-1.665-.634-2.475-.974-11.868-4.942-20.693-12.553-27.054-17.843.283.012.642.019 1.072.019 2.001 0 5.543-.151 10.008-.614 10.381 8.62 25.561 13.626 47.833 13.687l.229-.007c5.823 3.538 11.107 5.372 14.334 6.247a83.18 83.18 0 0 1-7.694 1.963c-3.798.266-7.659.398-11.565.398" fill="#F2F2F2" mask="url(#mask-2)" transform="translate(326 607)"/><path d="M218.04 65.521c-.261.528-.482.974-.652 1.307a13.7 13.7 0 0 1-.371.688c-3.116 6.004-7.692 9.764-13.497 11.796-4.595 1.612-8.76 1.972-15.004 1.844l-1.091-.023-1.445-.023-.54 1.346c-18.364 45.922-58.467 70.328-111.412 70.328-23.191 0-40.185-6.728-51.775-18.637a61.5 61.5 0 0 0 6.755.385c10.915 0 21.098-2.847 29.966-7.85a50.617 50.617 0 0 1-2.045-3.688c-8.24 4.689-17.794 7.322-27.92 7.322-3.771 0-7.451-.374-11.016-1.074a60.416 60.416 0 0 1-4.879-7.387c-4.2-7.526-6.877-15.968-8.13-24.611-.87-5.994-.985-11.81-.506-16.11h8.853v.016h140.654v-.042c8.315-.094 16.091-2.658 19.994-5.681l1.721-1.333-1.388-1.68c-2.6-3.15-4.276-7.766-4.778-12.572-.596-7.337 1.189-15.11 4.91-20.745l.933-1.402 1.34.896c8.149 6.349 12.333 13.401 12.776 21.584l.142 2.594 2.496-.672c8.175-2.196 20.145-1.124 24.535 1.823l1.625 1.086c-.076.155-.15.304-.252.515zM17.53 76.92h23.092V56.03H17.529v20.89zm27.29-25.077h23.093V30.91H44.82v20.933zm27.291 0h23.093V30.91H72.11v20.933zm27.292-25.12h23.092V5.79H99.403v20.933zm0 25.12h23.092V30.91H99.403v20.933zm27.29 25.077h23.093V56.03h-23.092v20.89zm-81.873 0h23.093V56.03H44.82v20.89zm27.291 0h23.093V56.03H72.11v20.89zm27.292 0h23.092V56.03H99.403v20.89zm94.047-19.443c-1.161-8.468-5.922-15.818-14.28-22.311l-4.956-3.316-3.265 4.913c-4.268 6.462-6.268 15.177-5.594 23.468.495 4.757 1.969 9.345 4.335 12.977-3.573 1.987-9.437 3.611-15.705 3.695v-25.06h-27.291V1.603h-31.49v25.12H40.622v25.12H13.33V76.92H.878l-.296 1.754c-.82 4.842-.807 11.905.247 19.177 1.325 9.13 4.153 18.063 8.624 26.068C21.098 144.76 42.253 157 74.028 157c54.066 0 95.481-24.89 114.761-71.623 6.517.117 11.018-.298 16.115-2.085 6.755-2.368 12.17-6.802 15.8-13.754.203-.337.5-.929 1.13-2.218.232-.465.473-.966.714-1.464l.322-.665.793-1.65-4.662-3.125c-5.045-3.385-16.541-4.662-25.551-2.94z" fill="#066DA5" mask="url(#mask-2)" transform="translate(326 607)"/><path fill="#066DA5" d="M347.728 679.777h2.099v-12.56h-2.099zm6.298 0h2.099v-12.56h-2.099zm6.298 0h2.099v-12.56h-2.099zm14.695 0h2.099v-12.56h-2.099zm6.298 0h2.099v-12.56h-2.099zm6.298 0h2.099v-12.56h-2.099zm14.695 0h2.099v-12.56h-2.099zm6.298 0h2.099v-12.56h-2.099zm6.298 0h2.099v-12.56h-2.099zm14.695 0h2.1v-12.56h-2.1zm6.298 0h2.099v-12.56h-2.099zm6.298 0h2.099v-12.56h-2.099zm14.695 0h2.1v-12.56h-2.1zm6.298 0h2.1v-12.56h-2.1zm6.298 0h2.1v-12.56h-2.1zm-88.171-25.12h2.099v-12.56h-2.099zm6.298 0h2.099v-12.56h-2.099zm14.695 0h2.099v-12.56h-2.099zm6.298 0h2.099v-12.56h-2.099zm6.298 0h2.099v-12.56h-2.099zm14.695 0h2.1v-12.56h-2.1zm6.298 0h2.099v-12.56h-2.099zm6.298 0h2.099v-12.56h-2.099zm-6.298-25.12h2.099v-12.56h-2.099zm-6.298 0h2.1v-12.56h-2.1zm12.596 0h2.099v-12.56h-2.099zm-67.178 25.12h2.099v-12.56h-2.099zm457.852 52.62c.6-2.08 1.522-3.982 2.763-5.704a19.633 19.633 0 0 1 4.398-4.428 20.553 20.553 0 0 1 5.582-2.866 19.503 19.503 0 0 1 6.258-1.021c2.144 0 4.22.339 6.23 1.021a20.22 20.22 0 0 1 5.526 2.866 20.446 20.446 0 0 1 4.398 4.428 19.108 19.108 0 0 1 2.847 5.704h-38.002zm41.33-16.575c-6.24-6.207-13.682-9.31-22.329-9.31-8.72 0-16.165 3.103-22.328 9.31-6.166 6.207-9.248 13.7-9.248 22.48 0 8.78 3.082 16.274 9.248 22.48 6.163 6.207 13.608 9.31 22.328 9.31 7.931 0 14.81-2.573 20.638-7.72 1.128-1.173 1.69-2.592 1.69-4.256 0-1.704-.554-3.115-1.664-4.231-1.107-1.116-2.507-1.675-4.199-1.675a6.13 6.13 0 0 0-3.89 1.476c-1.768 1.514-3.684 2.65-5.754 3.406-2.066.758-4.34 1.135-6.82 1.135a19.44 19.44 0 0 1-6.288-1.022 20.12 20.12 0 0 1-5.524-2.866 19.922 19.922 0 0 1-4.372-4.427 19.452 19.452 0 0 1-2.818-5.707h44.655c1.654 0 3.054-.558 4.203-1.674 1.146-1.116 1.719-2.527 1.719-4.229 0-4.39-.773-8.467-2.311-12.233-1.541-3.766-3.855-7.182-6.937-10.247zm61.856-5.336c-1.054-1.022-2.379-1.825-3.976-2.414-1.596-.586-3.345-.992-5.244-1.22a45.19 45.19 0 0 0-5.328-.34c-3.758 0-7.291.606-10.598 1.816-3.31 1.212-6.373 2.953-9.193 5.225v-1.137c0-1.626-.573-3.019-1.72-4.172-1.147-1.153-2.527-1.731-4.143-1.731-1.654 0-3.055.578-4.2 1.731-1.147 1.153-1.722 2.546-1.722 4.172v51.772c0 1.627.575 3.017 1.721 4.172 1.146 1.156 2.547 1.732 4.2 1.732 1.617 0 2.997-.576 4.145-1.732 1.146-1.155 1.72-2.545 1.72-4.172v-25.886c0-2.76.518-5.355 1.55-7.776 1.034-2.422 2.444-4.533 4.23-6.33 1.783-1.799 3.88-3.218 6.286-4.259 2.406-1.04 4.982-1.56 7.724-1.56 2.783 0 5.357.472 7.725 1.42.938.415 1.768.624 2.481.624.828 0 1.596-.15 2.312-.454a5.551 5.551 0 0 0 1.86-1.277 6.567 6.567 0 0 0 1.268-1.9 5.68 5.68 0 0 0 .48-2.33c0-1.627-.526-2.952-1.578-3.974m-122.134 1.93a5.53 5.53 0 0 0-.479-2.27 6.598 6.598 0 0 0-1.27-1.902 5.585 5.585 0 0 0-1.858-1.277 5.861 5.861 0 0 0-2.313-.454c-1.165 0-2.22.301-3.158.908l-33.717 22.083v-44.28c0-1.665-.575-3.073-1.721-4.229-1.146-1.153-2.528-1.731-4.144-1.731-1.652 0-3.053.578-4.199 1.731-1.148 1.156-1.721 2.564-1.721 4.229v78.908c0 1.626.573 3.027 1.721 4.201 1.146 1.172 2.547 1.759 4.199 1.759 1.616 0 2.998-.587 4.144-1.759 1.146-1.174 1.721-2.575 1.721-4.201V718.52l6.878-4.542 26.05 29.461c1.052 1.022 2.368 1.533 3.947 1.533.827 0 1.597-.151 2.313-.453a5.56 5.56 0 0 0 1.858-1.279 6.56 6.56 0 0 0 1.27-1.9 5.54 5.54 0 0 0 .479-2.272c0-1.55-.544-2.932-1.636-4.144l-24.245-27.473 23.626-15.443c1.503-1.021 2.255-2.593 2.255-4.712m-205.219 33.579c-1.035 2.403-2.443 4.513-4.228 6.328-1.786 1.817-3.881 3.256-6.287 4.317-2.406 1.06-4.98 1.587-7.726 1.587-2.781 0-5.376-.528-7.78-1.587-2.408-1.061-4.492-2.49-6.26-4.287-1.765-1.798-3.166-3.909-4.199-6.33-1.034-2.423-1.55-4.995-1.55-7.72 0-2.726.516-5.297 1.55-7.721 1.033-2.422 2.434-4.532 4.2-6.33 1.767-1.798 3.851-3.226 6.26-4.285 2.403-1.06 4.998-1.59 7.78-1.59 2.745 0 5.319.53 7.725 1.59 2.406 1.059 4.5 2.497 6.287 4.314 1.785 1.817 3.193 3.927 4.228 6.33 1.035 2.403 1.552 4.966 1.552 7.691 0 2.726-.517 5.288-1.552 7.693zm7.415-66.731c-1.692 0-3.092.559-4.2 1.675-1.111 1.115-1.663 2.526-1.663 4.228v28.327c-5.715-4.653-12.313-6.981-19.793-6.981-8.72 0-16.162 3.102-22.328 9.309-6.164 6.207-9.245 13.7-9.245 22.48 0 8.78 3.081 16.274 9.245 22.48 6.166 6.207 13.608 9.31 22.328 9.31 8.645 0 16.09-3.103 22.33-9.31 6.164-6.13 9.246-13.625 9.246-22.48v-53.135c0-1.702-.57-3.113-1.72-4.228-1.145-1.116-2.546-1.675-4.2-1.675zm62.448 66.731a20.434 20.434 0 0 1-4.23 6.328c-1.784 1.817-3.881 3.256-6.285 4.317-2.408 1.06-4.982 1.587-7.726 1.587-2.781 0-5.374-.528-7.782-1.587-2.403-1.061-4.49-2.49-6.256-4.287-1.767-1.798-3.168-3.909-4.2-6.33-1.035-2.423-1.552-4.995-1.552-7.72 0-2.726.517-5.297 1.552-7.721 1.032-2.422 2.433-4.532 4.2-6.33 1.766-1.798 3.853-3.226 6.256-4.285 2.408-1.06 5-1.59 7.782-1.59 2.744 0 5.318.53 7.726 1.59 2.404 1.059 4.5 2.497 6.285 4.314a20.468 20.468 0 0 1 4.23 6.33c1.033 2.403 1.55 4.966 1.55 7.691 0 2.726-.517 5.288-1.55 7.693zm4.088-30.173c-6.242-6.207-13.684-9.31-22.329-9.31-8.72 0-16.162 3.103-22.326 9.31-6.165 6.207-9.25 13.7-9.25 22.48 0 8.78 3.085 16.274 9.25 22.48 6.164 6.207 13.606 9.31 22.326 9.31 8.645 0 16.087-3.103 22.329-9.31 6.165-6.13 9.247-13.625 9.247-22.48-.038-4.39-.816-8.457-2.34-12.204-1.523-3.747-3.823-7.172-6.907-10.276zm33.381 8.373c1.805-1.798 3.911-3.217 6.317-4.258 2.406-1.04 4.98-1.56 7.723-1.56 2.484 0 4.774.417 6.88 1.249 2.105.833 4.116 2.061 6.033 3.69 1.127.909 2.406 1.36 3.833 1.36 1.692 0 3.093-.567 4.201-1.701 1.11-1.135 1.663-2.554 1.663-4.258 0-1.777-.676-3.274-2.028-4.484-5.79-5.147-12.65-7.72-20.582-7.72-8.718 0-16.162 3.102-22.328 9.309-6.164 6.207-9.246 13.7-9.246 22.48 0 8.78 3.082 16.274 9.246 22.48 6.166 6.207 13.61 9.31 22.328 9.31 7.896 0 14.754-2.573 20.582-7.72 1.238-1.25 1.86-2.705 1.86-4.371 0-1.704-.554-3.111-1.665-4.229-1.108-1.118-2.509-1.675-4.2-1.675-1.426.038-2.667.455-3.72 1.248-1.882 1.629-3.872 2.849-5.977 3.661-2.106.814-4.396 1.22-6.88 1.22-2.744 0-5.317-.519-7.723-1.559-2.406-1.04-4.512-2.46-6.317-4.258-1.803-1.796-3.223-3.908-4.255-6.328-1.035-2.424-1.552-5.016-1.552-7.779 0-2.76.517-5.355 1.552-7.776 1.032-2.422 2.452-4.533 4.255-6.33m202.244 44.455c-1.86 0-3.223-1.454-3.223-3.288 0-1.809 1.363-3.289 3.2-3.289 1.839 0 3.17 1.48 3.17 3.314 0 1.809-1.331 3.263-3.147 3.263zm-.023-7.406c-2.366 0-4.256 1.834-4.256 4.118 0 2.336 1.89 4.168 4.256 4.168 2.39 0 4.228-1.832 4.228-4.168 0-2.284-1.837-4.118-4.228-4.118z"/><path d="M918.08 740.069h-.453v-1.183c.1-.025.277-.048.529-.048.605 0 .882.251.882.626 0 .43-.429.605-.958.605zm1.134.3v-.05c.502-.152.854-.501.854-.953 0-.404-.176-.73-.403-.905-.302-.176-.653-.301-1.434-.301-.68 0-1.209.05-1.587.125v4.118h.958v-1.658h.453c.53 0 .781.199.855.651.128.48.203.856.327 1.007h1.035c-.103-.15-.176-.404-.304-1.03-.126-.552-.353-.854-.754-1.005z" fill="#066DA5"/><path fill="#000" fill-rule="nonzero" d="M175 517h826v28H175z"/></g></svg>