<svg viewBox="0 0 1400 1000" xmlns="http://www.w3.org/2000/svg"><g fill="none" fill-rule="evenodd"><path fill="#203370" d="M0 999.999h1400v-1000H0z"></path><g transform="translate(482.000000, 74.000000)"><path fill="#0851BA" d="M131.102 622.277v302.081H.002V546.569z"></path><path fill="#203370" d="M131.102 622.277v302.081h131.101V546.569z"></path><path fill="#2F96EA" d="M262.201 546.569l-131.1-75.706L0 546.569h.012H0l131.101 75.708 131.1-75.708h-.01zM131.102 868.833v14.442L10.31 813.476v-14.444z"></path><path fill="#203370" d="M131.102 895.185L.002 819.427l10.308-5.951 120.612 69.797z"></path><path fill="#203370" d="M10.31 799.034L.002 793.081v26.348l10.308-5.953z"></path><path fill="#2F96EA" d="M131.102 868.833v14.442l120.79-69.799v-14.444z"></path><path fill="#203370" d="M131.102 895.185l131.101-75.758-10.311-5.951-120.61 69.797z"></path><path fill="#203370" d="M251.892 799.034l10.309-5.953v26.348l-10.309-5.953z"></path><path fill="#2F96EA" d="M131.102 717.32v14.442L10.31 661.963v-14.442z"></path><path fill="#203370" d="M131.102 743.672L.002 667.915l10.308-5.952 120.612 69.799z"></path><path fill="#203370" d="M10.31 647.523L.002 641.568v26.35l10.308-5.955z"></path><path fill="#2F96EA" d="M131.102 717.32v14.442l120.79-69.799v-14.442z"></path><path fill="#203370" d="M131.102 743.672l131.101-75.757-10.311-5.952-120.61 69.799z"></path><path fill="#203370" d="M251.892 647.523l10.309-5.955v26.35l-10.309-5.955z"></path><path fill="#0851BA" d="M524.404 395.155v399.807l-131.101-75.707V319.449z"></path><path fill="#203370" d="M524.404 395.155v399.807l131.101-75.707V319.449z"></path><path fill="#2F96EA" d="M655.505 319.447l-131.101-75.708-131.101 75.708h.012-.012l131.101 75.706 131.101-75.706h-.012zM524.404 641.711v14.441l-120.792-69.798v-14.443z"></path><path fill="#203370" d="M524.404 668.063l-131.101-75.757 10.309-5.952 120.612 69.798zm-120.792-96.152l-10.309-5.954v26.349l10.309-5.954z"></path><path fill="#2F96EA" d="M524.404 641.711v14.441l120.792-69.798v-14.443z"></path><path fill="#203370" d="M524.404 668.063l131.101-75.757-10.309-5.952-120.612 69.798zm120.792-96.152l10.309-5.954v26.349l-10.309-5.954z"></path><path fill="#2F96EA" d="M524.404 490.2v14.44l-120.792-69.797V420.4z"></path><path fill="#203370" d="M524.404 516.55l-131.101-75.757 10.309-5.95 120.612 69.797z"></path><path fill="#203370" d="M403.612 420.4l-10.309-5.954v26.349l10.309-5.954z"></path><path fill="#2F96EA" d="M524.404 490.2v14.44l120.792-69.797V420.4z"></path><path fill="#203370" d="M524.404 516.55l131.101-75.757-10.309-5.95-120.612 69.797z"></path><path fill="#203370" d="M645.196 420.4l10.309-5.954v26.349l-10.309-5.954zm273.187-145.486l-.687.002v76.097"></path><path fill="#0851BA" d="M917.694 168.033v399.808l-131.101-75.71V92.325z"></path><path fill="#203370" d="M917.694 168.033v399.808l131.101-75.71V92.325z"></path><path fill="#2F96EA" d="M1048.796 92.325l-131.1-75.708-131.101 75.708h.012-.012l131.101 75.706 131.1-75.706h-.012zM917.694 414.587v14.442L796.902 359.23v-14.441z"></path><path fill="#203370" d="M917.694 440.939l-131.101-75.757 10.309-5.952 120.612 69.799z"></path><path fill="#203370" d="M796.904 344.791l-10.309-5.955v26.349l10.309-5.955z"></path><path fill="#2F96EA" d="M917.694 414.587v14.442l120.792-69.799v-14.441z"></path><path fill="#203370" d="M917.694 440.939l131.101-75.757-10.309-5.952-120.612 69.799z"></path><path fill="#2F96EA" d="M917.694 263.077v14.441L796.902 207.72v-14.444z"></path><path fill="#203370" d="M917.694 289.428l-131.101-75.757 10.309-5.951 120.612 69.797z"></path><path fill="#203370" d="M796.904 193.278l-10.309-5.953v26.348l10.309-5.953z"></path><path fill="#2F96EA" d="M917.694 263.077v14.441l120.792-69.798v-14.444z"></path><path fill="#203370" d="M917.694 289.428l131.101-75.757-10.309-5.951-120.612 69.797z"></path><path fill="#0851BA" d="M393.298 774.066v150.293h-131.1V698.358z"></path><path fill="#203370" d="M393.298 774.066v150.293h131.101V698.358z"></path><path fill="#2F96EA" d="M524.399 698.358L393.298 622.65l-131.1 75.708h.01-.01l131.1 75.708 131.101-75.708h-.012zM393.298 869.111v14.441l-120.791-69.798v-14.443z"></path><path fill="#203370" d="M393.298 895.462l-131.1-75.756 10.309-5.952 120.611 69.796zm-120.791-96.151l-10.309-5.953v26.348l10.309-5.953z"></path><path fill="#2F96EA" d="M393.298 869.111v14.441l120.79-69.798v-14.443z"></path><path fill="#203370" d="M393.298 895.462l131.101-75.756-10.311-5.952-120.609 69.796z"></path><path fill="#203370" d="M514.087 799.311l10.31-5.953v26.348l-10.31-5.953z"></path><path fill="#2F96EA" d="M917.699 471.237l-131.101-75.706L655.5 471.237h.01-.01l131.098 75.707 131.101-75.707h-.01z"></path><path fill="#0851BA" d="M786.598 546.944L655.5 471.237v399.805l93.896 54.225h37.202z"></path><path fill="#203370" d="M823.801 925.267l93.898-54.223V471.237l-131.101 75.707v378.323z"></path><path fill="#2F96EA" d="M786.598 793.5v14.44l-120.79-69.797V723.7z"></path><path fill="#203370" d="M786.598 819.851L655.5 744.093l10.308-5.95 120.61 69.797z"></path><path fill="#203370" d="M665.808 723.7l-10.308-5.953v26.348l10.308-5.953z"></path><path fill="#2F96EA" d="M786.598 793.5v14.44l120.792-69.797V723.7z"></path><path fill="#203370" d="M786.598 819.851l131.101-75.758-10.309-5.95-120.611 69.797z"></path><path fill="#203370" d="M907.39 723.7l10.309-5.953v26.348l-10.309-5.953z"></path><path fill="#2F96EA" d="M786.598 641.988v14.441l-120.79-69.798v-14.443z"></path><path fill="#203370" d="M786.598 668.34L655.5 592.583l10.308-5.952 120.61 69.798z"></path><path fill="#203370" d="M665.808 572.188l-10.308-5.954v26.349l10.308-5.954z"></path><path fill="#2F96EA" d="M786.598 641.988v14.441l120.792-69.798v-14.443z"></path><path fill="#203370" d="M786.598 668.34l131.101-75.757-10.309-5.952-120.611 69.798zm120.792-96.152l10.309-5.954v26.349l-10.309-5.954z"></path><path fill="#0851BA" d="M655.488 925.481v.012H524.387v-75.72z"></path><path fill="#203370" d="M655.488 925.481v.012h131.1v-75.72z"></path><path fill="#2F96EA" d="M786.588 849.773l-131.1-75.705-131.101 75.705h.012-.012l131.101 75.708 131.1-75.708h-.012z"></path><path fill="#0851BA" d="M1048.791 698.358v227.134l-131.1-.003V622.65z"></path><path fill="#2F96EA" d="M1048.791 546.944l-131.1 75.706h.01-.01l131.1 75.708z"></path><path fill="#203370" d="M927.999 875.115l-10.308-5.953v26.348l10.308-5.953zm120.792-55.361l-131.1-75.758 10.308-5.951 120.612 69.798z"></path><path fill="#203370" d="M927.999 723.605l-10.308-5.955V744l10.308-5.955z"></path><path fill="#0851BA" d="M917.694 74.171v55.24l-64.221-37.086V37.086z"></path><path fill="#FFF" d="M917.694 74.171l-64.221-37.085L918.031 0l63.884 37.086z"></path><path fill="#203370" d="M917.694 74.171v55.24l64.221-37.086V37.086z"></path><path fill="#0851BA" d="M524.404 301.294v55.24l-64.221-37.085v-55.24z"></path><path stroke="#FAAF40" stroke-width="22.1" d="M97.138 537.492L897.422 76.429"></path><path fill="#0851BA" d="M917.694 74.171v27.601l-64.221-37.085V37.086zm-393.29 227.123v27.602l-64.221-37.086v-27.601z"></path><path fill="#FFF" d="M524.404 301.294l-64.221-37.085 64.558-37.086 63.884 37.086z"></path><path fill="#203370" d="M524.404 301.294v55.24l64.221-37.085v-55.24z"></path><path fill="#0851BA" d="M131.102 528.416v55.238l-64.221-37.085v-55.238z"></path><path fill="#FFF" d="M131.102 528.416l-64.221-37.085 64.558-37.086 63.884 37.086z"></path><path fill="#203370" d="M131.102 528.416v55.238l64.221-37.085v-55.238z"></path><path fill="#0851BA" d="M786.598 454.981v55.238l-64.219-37.085v-55.238z"></path><path fill="#FAAF40" d="M353.818 681.605l11.033 19.149 683.966-394.05v-25.505z"></path><path fill="#203370" d="M786.598 454.981v55.238l64.221-37.085v-55.238zm-393.3 227.124v55.238l64.221-37.086v-55.238z"></path><path stroke="#FAAF40" stroke-width="22.1" d="M148.022 528.416l537.95 312.28"></path><path d="M1031.766 591.593l-415.757 239.53 11.033 19.148 419.016-241.407c-4.499-5.991-9.109-11.878-14.292-17.27" fill="#FAAF40"></path><path fill="#0851BA" d="M655.488 831.621v55.238l-64.221-37.085v-55.238z"></path><path fill="#FFF" d="M655.488 831.621l-64.221-37.085 64.557-37.087 63.885 37.087z"></path><path fill="#203370" d="M655.488 831.621v55.238l64.221-37.085v-55.238zM131.102 528.416v27.6l64.221-37.086v-27.599zm262.196 153.689v27.599l64.221-37.085v-27.6z"></path><path fill="#FFF" d="M393.298 682.105l-64.221-37.086 64.558-37.087 63.884 37.087z"></path><path fill="#0851BA" d="M393.298 682.105v55.238l-64.221-37.086v-55.238z"></path><path fill="#FAAF40" d="M546.875 291.739l-11.096 19.111 513.033 297.82v-25.556z"></path><path fill="#FFF" d="M786.598 454.981l-64.219-37.085 64.556-37.088 63.884 37.088z"></path><path fill="#0851BA" d="M786.598 454.981v27.6l-64.219-37.086v-27.599z"></path><path fill="#203370" d="M524.404 301.294v27.602l64.221-37.086v-27.601zm262.194 153.687v27.6l64.221-37.086v-27.599zM940.165 64.617l20.881 12.121 20.871-12.051V37.086l-64.223 37.085v27.601l21.286-12.291-9.911-5.753zm-12.166 824.94l-10.308 5.952 51.887 29.984h20.517z"></path><path fill="#FAAF40" d="M677.958 822.066l-11.096 19.11 145.247 84.317h44.02z"></path><path fill="#203370" d="M655.488 831.621v27.599l64.221-37.085v-27.599z"></path></g><path d="M78.754 144H74.67V77.09h4.084v38.846h.458l35.284-38.845h5.423l-29.044 31.658L119.658 144h-5.097l-26.3-32.311-9.507 10.52V144zm96.024-22.837V77.091h4.084v44.301q0 6.828-3.169 12.17-3.169 5.341-8.74 8.429-5.57 3.087-12.79 3.087-7.187 0-12.774-3.087-5.586-3.088-8.772-8.446-3.185-5.357-3.153-12.153V77.091h4.084v44.072q0 5.783 2.63 10.292 2.63 4.508 7.27 7.105 4.639 2.598 10.715 2.598 6.077 0 10.716-2.598 4.64-2.597 7.27-7.105 2.63-4.509 2.63-10.292zM218.693 144h-23.49V77.09h21.726q6.077 0 10.258 2.157 4.182 2.156 6.355 6.044 2.172 3.888 2.172 9.05 0 4.051-1.306 7.187-1.307 3.137-3.643 5.179-2.336 2.042-5.472 2.826v.392q3.463.261 6.436 2.401 2.973 2.14 4.786 5.799 1.813 3.66 1.813 8.527 0 5.13-2.205 9.033-2.205 3.904-6.583 6.11Q225.162 144 218.693 144zm-19.406-32.115v28.325h19.406q7.547 0 11.615-3.79 4.067-3.79 4.067-9.768 0-4.215-1.977-7.547-1.976-3.332-5.472-5.276-3.496-1.944-8.102-1.944h-19.537zm0-31.004v27.28h19.047q4.28 0 7.269-1.863 2.99-1.862 4.574-4.998 1.584-3.137 1.584-6.96 0-6.206-3.855-9.833-3.855-3.626-10.977-3.626h-17.642zM289.463 144h-38.028V77.09h37.244v3.79h-33.16v27.738h31.167v3.79h-31.168v27.802h33.945V144zm17.19 0h-4.083V77.09h20.615q6.338 0 10.912 2.484 4.573 2.483 7.024 6.877 2.45 4.394 2.45 10.21 0 5.75-2.45 10.111-2.45 4.362-7.008 6.812t-10.896 2.45H304.76v-3.822h18.36q5.162 0 8.821-1.928 3.66-1.927 5.62-5.407t1.96-8.216q0-4.77-1.96-8.315t-5.636-5.505q-3.675-1.96-8.837-1.96h-16.434V144zm18.786-30.318h4.606L346.511 144h-4.704l-16.368-30.318zm78.545-36.591h4.052V144h-3.986l-42.668-59.493h-.392V144h-4.084V77.09h4.019l42.667 59.56h.392V77.09zM462.404 144h-38.028V77.09h37.245v3.79h-33.16v27.738h31.167v3.79H428.46v27.802h33.945V144zm30.063-63.12h-21.399v-3.79h46.882v3.79h-21.399V144h-4.084V80.88zm75.41 63.12h-38.029V77.09h37.244v3.79h-33.16v27.738h31.167v3.79h-31.167v27.802h33.944V144zm53.193-50.182h-4.019q-.523-6.24-5.08-10.095-4.558-3.855-11.778-3.855-4.868 0-8.657 1.797-3.79 1.797-5.947 4.9-2.156 3.104-2.156 7.123 0 2.58.997 4.655.996 2.075 2.826 3.692t4.345 2.826q2.515 1.209 5.554 2.123l7.318 2.157q3.757 1.143 6.942 2.646 3.186 1.503 5.554 3.577 2.37 2.075 3.692 4.852 1.323 2.777 1.323 6.403 0 5.293-2.728 9.475-2.728 4.182-7.743 6.583-5.014 2.401-11.81 2.401-6.469 0-11.255-2.189-4.786-2.189-7.563-6.093t-3.136-9h4.181q.327 4.149 2.663 7.17 2.336 3.023 6.224 4.656 3.888 1.634 8.886 1.634 5.39 0 9.507-1.846t6.436-5.146q2.32-3.3 2.32-7.677 0-3.529-1.666-6.044-1.666-2.516-4.917-4.346-3.25-1.83-8.053-3.267l-7.809-2.352q-7.84-2.385-11.973-6.501-4.133-4.117-4.133-10.259 0-5.162 2.744-9.164t7.465-6.289q4.721-2.287 10.667-2.287 5.979 0 10.553 2.303 4.574 2.304 7.253 6.306 2.679 4.002 2.973 9.131zM94.11 184.35L72.09 246h-4.313l24.143-66.91h4.705L120.768 246h-4.312l-22.02-61.65h-.327zM78.198 224.6v-3.789h32.148v3.79H78.199zm70.574 21.4h-18.557v-66.91h19.994q9.41 0 16.107 3.987 6.697 3.986 10.275 11.418 3.577 7.433 3.544 17.822-.032 10.618-3.724 18.148-3.692 7.53-10.683 11.533Q158.737 246 148.773 246zM134.3 182.88v59.33h14.31q8.951 0 15.093-3.577 6.142-3.578 9.295-10.275 3.153-6.697 3.12-16.041 0-9.213-3.038-15.796-3.039-6.583-8.838-10.112-5.799-3.528-14.195-3.528H134.3zm48.75-3.79h4.312l21.955 61.65h.457l21.955-61.65h4.312L211.898 246h-4.705l-24.143-66.91zm76.128 5.26L237.158 246h-4.313l24.144-66.91h4.704L285.837 246h-4.313l-22.02-61.65h-.326zm-15.911 40.25v-3.789h32.148v3.79h-32.148zm99.095-45.51h4.051V246h-3.985l-42.668-59.493h-.392V246h-4.084v-66.91h4.019l42.667 59.56h.392v-59.56zM413.72 200h-4.182q-.653-3.398-2.45-6.583-1.797-3.185-4.623-5.75-2.826-2.565-6.55-4.068-3.725-1.502-8.233-1.502-6.6 0-12.137 3.512-5.538 3.512-8.854 10.307-3.316 6.796-3.316 16.63 0 9.899 3.316 16.694 3.316 6.796 8.854 10.275 5.537 3.48 12.137 3.48 4.508 0 8.233-1.487 3.724-1.487 6.55-4.051 2.826-2.565 4.623-5.767 1.797-3.201 2.45-6.6h4.182q-.719 4.052-2.76 7.94-2.042 3.888-5.358 7.04-3.316 3.153-7.809 4.999-4.492 1.846-10.111 1.846-8.364 0-14.735-4.264-6.37-4.263-9.98-12.006-3.61-7.743-3.61-18.1 0-10.356 3.61-18.099t9.98-12.006q6.371-4.264 14.735-4.264 5.62 0 10.111 1.846 4.493 1.846 7.809 4.966t5.358 7.008q2.041 3.888 2.76 8.004zm50.71 46h-38.028v-66.91h37.244v3.79h-33.16v27.738h31.167v3.79h-31.167v27.802h33.944V246zm31.664 0h-18.557v-66.91h19.994q9.41 0 16.107 3.987 6.697 3.986 10.275 11.418 3.577 7.433 3.544 17.822-.032 10.618-3.724 18.148-3.692 7.53-10.683 11.533Q506.058 246 496.094 246zm-14.473-63.12v59.33h14.31q8.951 0 15.093-3.577 6.142-3.578 9.295-10.275 3.153-6.697 3.12-16.041 0-9.213-3.038-15.796-3.039-6.583-8.838-10.112-5.799-3.528-14.195-3.528H481.62zm-359.872 98.21h4.05V348h-3.985l-42.668-59.493h-.392V348H74.67v-66.91h4.019l42.668 59.56h.392v-59.56zm58.42 66.91h-38.028v-66.91h37.244v3.79h-33.16v27.738h31.167v3.79h-31.168v27.802h33.945V348zm30.063-63.12h-21.4v-3.79h46.882v3.79h-21.399V348h-4.083v-63.12zM263.425 348h-4.705l-18.393-66.91h4.247l16.335 60.605h.392l16.074-60.604h4.966l16.074 60.604h.392l16.335-60.604h4.215L300.963 348h-4.704l-16.238-60.212h-.36L263.426 348zm115.07-33.455q0 10.357-3.593 18.084-3.594 7.726-9.98 12.006-6.388 4.28-14.719 4.28-8.364 0-14.75-4.296-6.388-4.297-9.981-12.023-3.594-7.727-3.594-18.05 0-10.357 3.61-18.067 3.61-7.71 9.98-12.007 6.371-4.296 14.735-4.296 8.331 0 14.718 4.28 6.387 4.28 9.981 12.006 3.594 7.727 3.594 18.083zm-3.985 0q0-9.31-3.12-16.139-3.12-6.828-8.609-10.569-5.488-3.74-12.578-3.74-7.09 0-12.578 3.708-5.489 3.708-8.609 10.552-3.12 6.845-3.12 16.188 0 9.246 3.088 16.09 3.087 6.845 8.576 10.602 5.488 3.757 12.643 3.757 7.09 0 12.578-3.74 5.489-3.741 8.609-10.57 3.12-6.827 3.12-16.139zM395.523 348h-4.084v-66.91h20.615q6.338 0 10.912 2.484 4.574 2.483 7.024 6.877t2.45 10.21q0 5.75-2.45 10.111-2.45 4.362-7.008 6.812-4.557 2.45-10.895 2.45h-18.46v-3.822h18.362q5.162 0 8.82-1.928 3.66-1.927 5.62-5.407t1.96-8.216q0-4.77-1.96-8.315t-5.636-5.505q-3.675-1.96-8.837-1.96h-16.433V348zm18.785-30.318h4.607L435.38 348h-4.705l-16.368-30.318zM449.86 348h-4.083v-66.91h4.083v38.846h.458l35.284-38.845h5.423l-29.044 31.658L490.763 348h-5.097l-26.3-32.311-9.507 10.52V348zm50.71-66.91h4.084V348h-4.083v-66.91zm67.503 0h4.052V348h-3.986l-42.668-59.493h-.392V348h-4.084v-66.91h4.019l42.667 59.56h.392v-59.56zM639.528 302h-4.181q-.752-3.398-2.549-6.583t-4.59-5.75q-2.793-2.565-6.534-4.068-3.74-1.502-8.38-1.502-7.09 0-12.562 3.708-5.472 3.708-8.56 10.552-3.087 6.845-3.087 16.188 0 9.246 3.071 16.107 3.071 6.86 8.609 10.602 5.538 3.74 12.888 3.74 6.567 0 11.647-3.038t7.923-8.69q2.842-5.652 2.777-13.526l1.438.686h-22.74v-3.79h25.288v3.79q0 8.854-3.382 15.24-3.381 6.388-9.343 9.818-5.963 3.43-13.608 3.43-8.625 0-15.06-4.28-6.437-4.279-9.981-12.005-3.545-7.727-3.545-18.084 0-7.775 2.025-14.113 2.026-6.338 5.783-10.863 3.757-4.525 8.952-6.959 5.194-2.434 11.467-2.434 5.685 0 10.226 1.879 4.541 1.878 7.857 5.03 3.316 3.154 5.374 7.025 2.059 3.872 2.777 7.89zM154.864 664.301q-25.466 0-43.446-14.678-17.98-14.678-27.588-42.502t-9.608-66.848q0-38.907 9.608-66.671 9.609-27.765 27.706-42.562 18.098-14.796 43.328-14.796 25.23 0 43.327 14.796 18.097 14.797 27.706 42.562 9.609 27.764 9.609 66.67 0 39.025-9.609 66.849-9.609 27.824-27.588 42.502-17.98 14.678-43.445 14.678zm0-19.807q27.941 0 43.622-27.293 15.68-27.293 15.68-76.928 0-33.012-7.133-56.414-7.132-23.403-20.396-35.782-13.263-12.38-31.773-12.38-27.706 0-43.505 27.53-15.798 27.529-15.798 77.046 0 33.011 7.133 56.355 7.133 23.344 20.396 35.605 13.264 12.261 31.774 12.261zm173.021 19.807q-14.973-.118-29.239-6.072-14.265-5.953-25.701-19.217-11.436-13.263-18.157-35.074-6.72-21.812-6.72-53.644 0-29.592 5.188-54.174 5.187-24.582 15.562-42.561 10.375-17.98 25.938-27.824 15.562-9.844 36.43-9.844 19.571 0 34.544 8.135 14.973 8.135 24.287 22.518 9.314 14.384 11.672 33.365h-21.693q-3.301-19.335-15.68-31.773-12.38-12.439-33.13-12.439-29.71 0-45.98 27.589-16.27 27.588-16.388 78.401h1.533q5.777-10.728 14.914-18.568 9.137-7.84 20.809-12.262 11.672-4.42 24.523-4.42 20.16 0 36.902 10.197 16.741 10.198 26.762 27.942 10.022 17.744 10.022 40.498 0 21.575-9.491 39.731-9.49 18.157-26.645 28.885-17.154 10.729-40.262 10.611zm0-19.807q15.798 0 28.236-8.017 12.439-8.017 19.63-21.516 7.192-13.5 7.192-29.887 0-16.388-7.192-29.71-7.191-13.323-19.63-21.222-12.438-7.9-28.236-7.9-12.026 0-22.4 4.894-10.376 4.892-17.98 13.322-7.604 8.43-11.554 19.276-3.95 10.847-3.006 22.755 1.297 16.623 8.665 29.769 7.369 13.145 19.335 20.69 11.967 7.546 26.94 7.546z" fill="#FFF" fill-rule="nonzero"></path><g transform="translate(75.000000, 852.000000)" fill="#FFF"><path d="M50.391 31.8c-1.386 0-2.559 1.173-2.559 2.558 0 1.387 1.173 2.559 2.557 2.559 1.386 0 2.56-1.172 2.56-2.56 0-1.384-1.173-2.557-2.56-2.557"></path><path d="M36.747 1.04c-1.386-1.387-3.517-1.387-4.904 0L1.04 31.845c-1.387 1.386-1.387 3.517 0 4.904l30.803 30.803c1.387 1.388 3.518 1.388 4.904 0l30.805-30.804c1.385-1.386 1.385-3.518 0-4.903L36.747 1.04zm13.644 39.12c-2.025 0-3.838-1.067-4.798-2.666a73.27 73.27 0 0 0-2.237 6.077c-2.346 6.5-3.944 10.659-5.97 12.151-1.067 1.065-2.451 1.704-4.157 1.704a5.731 5.731 0 0 1-5.755-5.708v-.048c0-2.025 1.065-3.838 2.664-4.795a73.293 73.293 0 0 0-6.077-2.24c-6.5-2.344-10.657-3.941-12.15-5.968-1.066-1.067-1.705-2.451-1.705-4.158a5.729 5.729 0 0 1 5.708-5.754h.047c2.025 0 3.839 1.065 4.796 2.664a73.493 73.493 0 0 0 2.24-6.076c2.344-6.502 3.943-10.658 5.97-12.15 1.065-1.067 2.45-1.706 4.156-1.706a5.73 5.73 0 0 1 5.756 5.708v.047c0 2.024-1.067 3.836-2.664 4.796a73.499 73.499 0 0 0 6.074 2.24c6.503 2.346 10.66 3.943 12.152 5.97 1.066 1.064 1.707 2.449 1.707 4.156 0 3.091-2.559 5.755-5.759 5.755h.002z"></path><path d="M190.455 37.284c-.107-.428-.426-.962-.746-1.281-.32-.426-.853-.745-1.494-1.063-.638-.322-1.384-.641-2.346-1.067-.424-.215-.85-.321-1.171-.427-.318-.107-.531-.32-.746-.428-.213-.105-.319-.21-.319-.425-.107-.106-.107-.32-.107-.427 0-.745.64-1.065 2.024-1.065.748 0 1.387.105 1.92.215.534.105 1.066.318 1.599.424l.747-3.303c-.534-.215-1.173-.321-2.025-.534-.853-.213-1.707-.213-2.666-.213-1.811 0-3.304.426-4.264 1.28-.958.852-1.597 1.917-1.597 3.303 0 .745.105 1.385.319 1.811.213.534.532.96.852 1.28.426.323.852.639 1.386.959.532.32 1.172.533 1.812.746a19 19 0 0 1 1.918.852c.427.214.641.535.641.854 0 .426-.215.745-.534.852-.32.108-.852.215-1.706.215-.745 0-1.492-.107-2.238-.215l-2.239-.639-.745 3.411c.319.106.96.321 1.812.534.851.212 2.024.32 3.304.32 2.023 0 3.624-.428 4.69-1.173 1.065-.747 1.704-1.919 1.704-3.411.428-.32.321-.852.215-1.385zm-16.524-4.647c.745-.425 1.28-1.065 1.812-1.917.534-.747.745-1.598.745-2.559 0-.64-.105-1.28-.317-1.917-.215-.64-.641-1.174-1.173-1.707a5.511 5.511 0 0 0-2.025-1.28 8.31 8.31 0 0 0-2.986-.532c-.96 0-1.918.106-2.665.427-.76.273-1.452.71-2.024 1.28-.534.533-1.066 1.172-1.279 1.812-.321.744-.428 1.384-.428 2.236 0 .96.215 1.814.534 2.454a7.518 7.518 0 0 0 1.813 1.918 9.647 9.647 0 0 0-1.067.96c-.321.319-.639.637-.852 1.066-.321.425-.428.85-.64 1.278a6.39 6.39 0 0 0-.212 1.598c0 .534.105 1.172.32 1.813.213.639.638 1.28 1.171 1.812a6.17 6.17 0 0 0 2.132 1.385c.852.32 2.025.533 3.304.533 1.173 0 2.132-.106 3.091-.424a7.706 7.706 0 0 0 2.238-1.281c.641-.531 1.065-1.173 1.28-1.919.321-.747.426-1.492.426-2.346 0-1.066-.213-1.916-.745-2.663-.641-.64-1.386-1.385-2.453-2.026v-.001zm-6.288-5.009c.107-.212.213-.532.426-.747.213-.212.428-.425.747-.532.32-.105.639-.213 1.065-.213.428 0 .853.108 1.066.213.32.107.535.321.746.532.178.188.322.404.427.64.106.214.106.427.106.64 0 .747-.214 1.28-.533 1.812a3.24 3.24 0 0 1-1.385 1.28c-1.067-.428-1.811-.852-2.345-1.385-.428-.535-.64-1.066-.64-1.707.106 0 .212-.213.32-.533zm4.37 11.724c-.427.428-1.174.748-2.132.748-.534 0-.958-.107-1.28-.214a2.312 2.312 0 0 1-.85-.532 3.285 3.285 0 0 1-.536-.747c-.105-.32-.105-.532-.105-.745 0-.748.213-1.387.533-1.92.32-.532.852-.959 1.385-1.383.534.21 1.066.319 1.494.532.425.212.852.425 1.173.639.317.212.637.531.852.85.213.323.319.748.319 1.174-.11.61-.408 1.17-.854 1.6v-.002zm-13.328-.718c-.532-.747-1.173-1.492-1.812-2.238a14.561 14.561 0 0 0-1.812-1.812c1.173-1.173 2.24-2.238 3.198-3.305a897.944 897.944 0 0 1 2.985-3.304h-5.01c-.32.32-.534.745-.96 1.173-.32.425-.745.852-1.172 1.384-.425.533-.852.962-1.279 1.494-.428.533-.852.959-1.278 1.385V20.833l-4.264.64v21.53h4.264v-6.607c.426.425.959.852 1.493 1.386.53.533.958 1.172 1.384 1.706.428.64.852 1.171 1.278 1.812.428.64.747 1.171 1.068 1.599h4.902c-.32-.641-.745-1.279-1.173-2.133-.639-.533-1.173-1.279-1.812-2.132zm-16.797-8.811c-.428-.637-1.067-1.065-1.918-1.384-.746-.322-1.813-.533-2.986-.533-1.279 0-2.45.105-3.517.212-.96.213-1.812.322-2.451.532v14.391h2.664V30.462c.106 0 .213 0 .426-.105.213 0 .428-.105.747-.105.32 0 .534 0 .852-.11h.853c.746 0 1.28.11 1.813.322.425.213.851.426 1.172.852.32.427.533.958.64 1.598.106.641.211 1.386.211 2.345v7.782h2.667v-8.314c0-.96-.107-1.919-.321-2.772-.107-.851-.426-1.598-.85-2.132h-.002zm-14.663-1.764c-.319 0-.533-.107-.851-.107h-.748c-1.171 0-2.238.107-3.091.32-.959.215-1.706.426-2.346.64v14.175h2.667V30.618c.105 0 .426-.108.959-.214.534-.105.958-.105 1.492-.105.745 0 1.385.105 1.918.105.533.106.854.214 1.067.32l.426-2.346c-.106 0-.321-.106-.534-.106-.426-.106-.639-.213-.959-.213zm-12.742 1.313c-.426-.533-1.067-.852-1.812-1.174-.747-.32-1.599-.425-2.666-.425-.958 0-1.811.105-2.558.214-.745.105-1.385.32-1.704.426l.319 2.238c.32-.107.852-.213 1.493-.427.773-.139 1.558-.21 2.344-.213.64 0 1.28.108 1.706.32.425.215.746.427 1.066.852.213.32.426.747.534 1.173.105.426.105.852.105 1.28v.744c-.105 0-.213 0-.426-.105-.213 0-.427-.106-.64-.106-.212 0-.533-.107-.851-.107h-.853c-.854 0-1.601.107-2.453.213-.746.213-1.385.426-2.025.852a4.323 4.323 0 0 0-1.386 1.386c-.32.639-.534 1.28-.534 2.132 0 .853.108 1.6.428 2.239.32.639.639 1.065 1.173 1.492a9.546 9.546 0 0 0 1.812.852c.745.212 1.492.212 2.344.212.64 0 1.173 0 1.812-.105.64 0 1.173-.105 1.706-.105.532-.108.96-.108 1.385-.214.426-.107.747-.107.959-.107v-9.273c0-.854-.105-1.6-.32-2.345a5.388 5.388 0 0 0-.958-1.92zm-1.385 11.618c-.322.107-.746.107-1.172.107h-1.706c-1.067 0-1.92-.213-2.453-.532-.64-.322-.96-1.067-.96-2.027 0-.534.108-.958.322-1.278.212-.321.532-.532.958-.747.427-.213.745-.321 1.28-.321.425-.105.852-.105 1.277-.105.641 0 1.173 0 1.6.105.427.11.746.11.961.215v4.584h-.106zM95.194 27.798c-.852 0-1.704.212-2.558.531-.853.321-1.492.855-2.131 1.494a6.34 6.34 0 0 0-1.494 2.451c-.426.96-.531 2.133-.531 3.413 0 1.171.105 2.13.424 3.088a6.99 6.99 0 0 0 1.388 2.454 7.576 7.576 0 0 0 2.344 1.598c.959.425 2.025.534 3.305.534.933.012 1.865-.098 2.77-.322.853-.212 1.387-.318 1.708-.532l-.323-2.24c-.318.11-.85.322-1.49.428-.64.215-1.387.215-2.346.215-1.705 0-2.878-.428-3.624-1.173-.747-.748-1.279-1.92-1.386-3.518h10.127v-.96c0-2.559-.534-4.476-1.599-5.649-1.067-1.171-2.665-1.812-4.584-1.812zm-3.942 6.395a33.6 33.6 0 0 1 .318-1.493c.213-.533.427-.959.747-1.278.32-.426.745-.639 1.173-.96.426-.212.959-.321 1.597-.321 1.066 0 1.919.428 2.558 1.175.64.747.962 1.704.853 2.983h-7.246v-.106zm-6.767 6.31c-.214-.213-.32-.426-.32-.638-.107-.32-.107-.64-.107-1.066V20.89l-2.664.427v17.801c0 1.385.321 2.45 1.065 3.092.64.639 1.812 1.065 3.519 1.065l.32-2.238c-.428-.106-.748-.106-1.067-.213a.97.97 0 0 1-.746-.321zM33.161 19.625c1.384 0 2.557-1.174 2.557-2.56 0-1.386-1.173-2.559-2.558-2.559-1.387 0-2.558 1.174-2.558 2.56 0 1.492 1.171 2.559 2.558 2.559zm-4.025 1.552c-.321-.321-.64-.64-.852-1.067a73.262 73.262 0 0 0-2.24 6.076c-2.344 6.504-3.943 10.66-5.968 12.151-.321.32-.64.64-1.067.853a73.826 73.826 0 0 0 6.077 2.239c6.501 2.344 10.657 3.943 12.15 5.968.321.32.639.64.854 1.065a74.001 74.001 0 0 0 2.237-6.075c2.345-6.502 3.944-10.657 5.969-12.15.321-.321.64-.64 1.066-.853a74.77 74.77 0 0 0-6.075-2.24c-6.502-2.236-10.765-3.837-12.151-5.968v.001zm4.024 27.852c-1.387 0-2.558 1.173-2.558 2.559 0 1.386 1.171 2.557 2.558 2.557 1.385 0 2.558-1.173 2.558-2.557 0-1.386-1.173-2.559-2.558-2.559zM15.93 31.8c-1.383 0-2.556 1.173-2.556 2.558 0 1.387 1.173 2.559 2.556 2.559 1.387 0 2.559-1.172 2.559-2.56 0-1.384-1.172-2.557-2.56-2.557z"></path></g></g></svg>