<svg viewBox="0 0 1400 1000" xmlns="http://www.w3.org/2000/svg"><g fill="none" fill-rule="evenodd"><path fill="#3C92A0" d="M0 1012.115h1431.213V.144H0z"></path><path d="M151.334 732.586c15.79 0 28.29-6.388 37.5-19.163 9.21-12.776 13.815-31.175 13.815-55.199v-41.892c0-23.853-4.648-42.231-13.943-55.134-9.295-12.903-21.837-19.355-37.626-19.355-15.79 0-28.31 6.452-37.563 19.355-9.253 12.903-13.88 31.28-13.88 55.134v41.892c0 23.939 4.648 42.317 13.943 55.135 9.296 12.818 21.88 19.227 37.754 19.227zm0-19.61c-8.319 0-14.707-4.328-19.163-12.987-4.457-8.659-6.685-21.392-6.685-38.2v-49.15c0-16.722 2.186-29.392 6.558-38.008 4.371-8.616 10.717-12.924 19.036-12.924s14.706 4.287 19.163 12.86c4.457 8.574 6.685 21.265 6.685 38.073v49.15c0 16.892-2.207 29.647-6.621 38.263-4.415 8.616-10.739 12.924-18.973 12.924zm105.731 19.61c16.893 0 30.687-6.218 41.383-18.654 10.696-12.436 16.044-29.944 16.044-52.524v-48.386c0-23.005-4.86-40.62-14.58-52.843-9.72-12.224-22.601-18.336-38.645-18.336-14.346 0-26.379 6.303-36.098 18.909-9.72 12.606-14.58 28.374-14.58 47.304 0 19.524 4.308 34.995 12.924 46.412 8.616 11.417 20.31 17.126 35.08 17.126 6.112 0 11.757-1.55 16.935-4.647 5.178-3.099 9.55-7.662 13.115-13.689v9.04c0 16.384-2.907 28.926-8.722 37.627-5.815 8.701-13.433 13.052-22.856 13.052-5.687 0-10.844-.53-15.47-1.592-4.627-1.06-9.19-2.822-13.689-5.284l-3.438 18.845c4.924 2.462 10.272 4.35 16.044 5.666 5.772 1.316 11.29 1.974 16.553 1.974zm4.202-80.346c-7.81 0-13.9-4.096-18.272-12.288-4.372-8.191-6.557-18.824-6.557-31.896 0-13.073 2.398-24.066 7.194-32.98 4.796-8.912 10.802-13.369 18.017-13.369 8.489 0 15.11 4.138 19.864 12.415 4.754 8.276 7.13 20.394 7.13 36.353v21.519c-2.376 5.942-5.878 10.802-10.504 14.58-4.627 3.777-10.25 5.666-16.872 5.666zm-131.954-446.9c6.523 0 11.79-1.712 15.8-5.136 4.012-3.425 6.018-8.056 6.018-13.893 0-5.544-1.696-10.061-5.088-13.55-3.391-3.49-8.332-6.246-14.822-8.268-4.957-1.696-8.512-3.58-10.664-5.65-2.153-2.071-3.23-4.623-3.23-7.656 0-3.36 1.004-6.123 3.01-8.292 2.005-2.169 4.85-3.253 8.536-3.253 3.88 0 6.89 1.296 9.025 3.889 2.136 2.593 3.205 5.96 3.205 10.102h9.539l.098-.294c.13-5.87-1.819-10.884-5.846-15.042-4.028-4.158-9.336-6.237-15.923-6.237-6.327 0-11.505 1.801-15.532 5.405-4.028 3.604-6.042 8.21-6.042 13.82 0 5.446 1.81 9.824 5.43 13.134 3.62 3.31 8.822 5.993 15.606 8.048 4.728 1.63 8.039 3.522 9.93 5.674 1.892 2.153 2.837 4.908 2.837 8.268 0 3.49-1.051 6.27-3.155 8.34-2.103 2.071-5.014 3.107-8.732 3.107-4.142 0-7.493-1.174-10.053-3.523-2.56-2.348-3.84-5.968-3.84-10.86h-9.54l-.097.294c-.163 6.849 2.128 12.156 6.873 15.923 4.745 3.767 10.298 5.65 16.657 5.65zm76.583-1.027v-7.534h-30.624v-25.535h26.417v-7.583h-26.417v-22.943h30.33v-7.631h-40.26v71.226h40.554zm22.723 0V173.64h13.452c3.164 0 5.65 1.157 7.46 3.473 1.81 2.315 2.715 5.463 2.715 9.441v6.017c0 2.414.155 4.705.465 6.873.31 2.17 1.02 3.792 2.128 4.868h10.224v-1.125c-1.076-1.076-1.834-2.552-2.275-4.427-.44-1.876-.66-3.906-.66-6.09v-6.214c0-4.24-.79-7.802-2.373-10.688-1.581-2.887-4.15-4.933-7.704-6.14 3.228-1.565 5.699-3.734 7.41-6.506 1.713-2.772 2.57-6.017 2.57-9.735 0-6.522-1.843-11.528-5.529-15.018-3.685-3.49-8.903-5.234-15.654-5.234h-22.16v71.177h9.93zm11.74-38.255h-11.74v-25.34h12.23c3.782 0 6.603 1.125 8.462 3.376 1.86 2.25 2.789 5.413 2.789 9.49 0 3.979-.954 7.052-2.862 9.221-1.908 2.169-4.868 3.253-8.879 3.253zm63.032 38.255l21.427-71.226H314.3l-14.529 55.523-1.027 4.11h-.294l-.978-4.159-14.48-55.474h-10.567l21.378 71.226h9.588zm43.611 0v-71.226h-9.881v71.226h9.881zm38.769 1.027c6.848 0 12.148-1.948 15.898-5.846 3.75-3.897 5.642-9.4 5.675-16.51l-.147-.293h-9.441c-.065 5.283-1.052 9.123-2.96 11.52-1.908 2.397-4.916 3.596-9.025 3.596-4.175 0-7.412-1.647-9.71-4.941-2.3-3.294-3.45-8.04-3.45-14.236v-19.91c0-6.098 1.126-10.794 3.376-14.088 2.25-3.294 5.414-4.941 9.49-4.941 4.207 0 7.29 1.223 9.246 3.669 1.957 2.446 2.984 6.261 3.082 11.447h9.392l.147-.294c-.098-7.337-2.022-12.914-5.772-16.73-3.75-3.816-9.116-5.723-16.095-5.723-6.881 0-12.384 2.364-16.51 7.093-4.126 4.729-6.188 11.3-6.188 19.714v19.763c0 8.414 2.087 14.97 6.261 19.666 4.175 4.696 9.752 7.044 16.73 7.044zm76.436-1.027v-7.534h-30.624v-25.535H458v-7.583h-26.417v-22.943h30.33v-7.631h-40.26v71.226h40.554zm-343.999 102v-27.346l-.929-27.346.293-.048 17.073 54.74h6.555l17.122-54.79.294.05-.881 27.394v27.346h9.833v-71.226H154.75l-16.681 58.116h-.294l-16.632-58.116h-12.768v71.226h9.832zm107.06 0v-7.534h-30.624v-25.535h26.417v-7.583h-26.417v-22.943h30.33v-7.631h-40.26v71.226h40.554zm33.485 1.027c6.522 0 11.79-1.712 15.8-5.136 4.012-3.425 6.017-8.056 6.017-13.893 0-5.544-1.695-10.061-5.087-13.55-3.392-3.49-8.333-6.246-14.823-8.268-4.957-1.696-8.511-3.58-10.664-5.65-2.152-2.071-3.229-4.623-3.229-7.656 0-3.36 1.003-6.123 3.009-8.292 2.006-2.169 4.851-3.253 8.536-3.253 3.881 0 6.89 1.296 9.026 3.889s3.204 5.96 3.204 10.102h9.54l.097-.294c.13-5.87-1.818-10.884-5.846-15.042-4.027-4.158-9.335-6.237-15.923-6.237-6.327 0-11.504 1.801-15.532 5.405-4.027 3.604-6.041 8.21-6.041 13.82 0 5.446 1.81 9.824 5.43 13.134 3.62 3.31 8.822 5.993 15.605 8.048 4.729 1.63 8.04 3.522 9.93 5.674 1.892 2.153 2.838 4.908 2.838 8.268 0 3.49-1.052 6.27-3.155 8.34-2.104 2.071-5.015 3.107-8.732 3.107-4.142 0-7.493-1.174-10.053-3.523-2.56-2.348-3.84-5.968-3.84-10.86h-9.54l-.097.294c-.163 6.849 2.128 12.156 6.873 15.923 4.745 3.767 10.297 5.65 16.657 5.65zm45.959-1.027v-31.406h27.297v31.406h9.881v-71.226h-9.881v32.237h-27.297v-32.237h-9.93v71.226h9.93zm95.123 0v-7.534h-30.623v-25.535h26.416v-7.583h-26.416v-22.943h30.33v-7.631h-40.26v71.226h40.553zm33.485 1.027c6.522 0 11.79-1.712 15.8-5.136 4.012-3.425 6.018-8.056 6.018-13.893 0-5.544-1.696-10.061-5.088-13.55-3.391-3.49-8.332-6.246-14.822-8.268-4.957-1.696-8.512-3.58-10.665-5.65-2.152-2.071-3.228-4.623-3.228-7.656 0-3.36 1.003-6.123 3.008-8.292 2.006-2.169 4.851-3.253 8.537-3.253 3.88 0 6.89 1.296 9.025 3.889 2.136 2.593 3.204 5.96 3.204 10.102h9.54l.097-.294c.13-5.87-1.818-10.884-5.845-15.042-4.028-4.158-9.336-6.237-15.923-6.237-6.327 0-11.505 1.801-15.532 5.405-4.028 3.604-6.042 8.21-6.042 13.82 0 5.446 1.81 9.824 5.43 13.134 3.62 3.31 8.822 5.993 15.605 8.048 4.73 1.63 8.04 3.522 9.93 5.674 1.892 2.153 2.838 4.908 2.838 8.268 0 3.49-1.052 6.27-3.155 8.34-2.104 2.071-5.014 3.107-8.732 3.107-4.142 0-7.493-1.174-10.053-3.523-2.56-2.348-3.84-5.968-3.84-10.86h-9.54l-.097.294c-.163 6.849 2.128 12.156 6.873 15.923 4.745 3.767 10.297 5.65 16.657 5.65z" fill="#FFF" fill-rule="nonzero"></path><path fill="#CCEFFF" d="M1555.197 479v675.178L725.725 675.175V0zM862.48 962.38l-78.552 45.65-79.067-45.65 78.553-45.65zm-306.187 60.524l-78.542 45.643-79.057-45.643 78.542-45.645zm203.769-1.006l-78.542 45.645-79.067-45.65 78.542-45.646zm-305.111-57.503l-78.542 45.644-79.055-45.644 78.542-45.644zm203.76-1.01l-78.542 45.643-79.055-45.643 78.542-45.643z"></path><path fill="#3C92A0" d="M557.37 904.876l-78.541 45.643-79.057-45.643 78.543-45.643z"></path><path fill="#CCEFFF" d="M761.131 903.865l-78.554 45.65-79.055-45.644 78.552-45.65zM659.79 845.356l-78.551 45.65-79.056-45.644 78.552-45.65zm102.41-59.514l-78.543 45.645-79.055-45.643 78.541-45.645zm101.339 58.509l-78.542 45.643-79.057-45.643 78.544-45.643zm100.281 176.536l-78.552 45.652-79.057-45.645 78.552-45.65zm102.41-59.513l-78.542 45.645-79.055-45.644 78.542-45.644zm-101.341-58.509l-78.541 45.645-79.067-45.65 78.541-45.644zm202.681 117.018l-78.543 45.645-79.055-45.644 78.541-45.645z"></path><path fill="#3C92A0" d="M1394.539 611.335l-.257 90.853 79.055 45.644.257-90.853zm.335-118.446l-.257 90.843 79.057 45.642.257-90.841zm-101.349-58.514l-.259 90.842 79.066 45.648.258-90.841zm-102.012 178.393l-.258 90.842 79.056 45.641.257-90.839zm.335-118.456l-.257 90.852 79.055 45.645.257-90.853zm.335-118.445l-.257 90.841 79.057 45.641.257-90.839zm-102.01 178.393l-.257 90.841 79.055 45.643.258-90.841zm.334-118.457l-.256 90.854 79.057 45.643.256-90.853zm.337-118.445l-.257 90.841 79.055 45.642.257-90.84zm-101.677 59.937l-.257 90.853 79.056 45.643.256-90.853zm.337-118.446l-.257 90.841 79.057 45.643.257-90.841zM887.147 555.694l-.257 90.841 79.064 45.649.258-90.841zm.335-118.457l-.257 90.841 79.065 45.648.259-90.841zm.335-118.456l-.257 90.851 79.065 45.65.259-90.853zm.338-118.448l-.259 90.843 79.066 45.648.258-90.841zm-102.35 296.852l-.257 90.842 79.057 45.643.256-90.841zm.336-118.456l-.256 90.842 79.056 45.641.257-90.839z"></path><path fill="#CCEFFF" d="M786.478 260.272l-.257 90.851 79.055 45.643.257-90.851z"></path><path fill="#3C92A0" d="M786.813 141.824l-.257 90.843 79.055 45.642.259-90.84zm505.704 647.911l-.257 90.841 79.064 45.649.258-90.84zm.335-118.458l-.257 90.842 79.065 45.648.259-90.841zm.335-118.456l-.255 90.852 79.065 45.65.257-90.852zm100.679 295.428l-.257 90.843 79.057 45.642.256-90.842zm.336-118.458l-.256 90.843 79.055 45.642.256-90.841zM988.496 614.208l-.257 90.843 79.057 45.642.256-90.841zm.336-118.457l-.258 90.842 79.057 45.642.256-90.841zm202.344 235.475l-.256 90.843 79.056 45.642.257-90.842zm-101.34-58.509l-.257 90.843 79.055 45.642.257-90.841zM827.35 325.128l-4.193-2.42-2.598 2.238.91 5.197 3.755 4.257 3.767.085.954-4.12-2.594-5.237m-20.905-29.253l11.094 15.463.051.008c.406.582.88 1.02 1.353 1.294.67.388 1.333.43 1.78.043.332-.267.498-.699.517-1.243l.821-15.207c-5.909-2.575-11.395-2.651-15.616-.358m24.915 6.276a46.462 46.462 0 0 0-2.77-2.147l.715 16.113.066.075c.046 1.433 1.053 3.133 2.287 3.847.494.285.96.363 1.372.299l11.21-2.664c-3.421-5.865-7.815-11.27-12.88-15.523m-12.247 53.445c2.015 1.688 4.026 3.102 6.003 4.245 3.002 1.732 5.93 2.846 8.685 3.36l-6.577-17.545c-.394-1.081-1.15-2.011-1.945-2.51l-.09-.054a2.112 2.112 0 0 0-.982-.297c-.46-.02-.808.178-1.073.5l-6.673 9.912a63.174 63.174 0 0 0 2.652 2.389m15.413-9.71l5.156 17.441c4.875-.768 8.768-3.918 10.866-9.293l-13.454-10.367-.443-.298c-1.04-.578-1.967-.297-2.219.77-.1.51-.053 1.092.128 1.707l-.034.04m-36.137-29.334l13.176 3.242v-.077c1.192.328 1.92-.639 1.643-2.184a5.48 5.48 0 0 0-.72-1.843l-10.118-16.301c-1.526 1.95-2.69 4.43-3.39 7.46-.688 2.983-.863 6.28-.591 9.703m12.21 30.046l5.27-11.6c.499-1 .008-2.804-1.096-4.07-.28-.31-.574-.577-.874-.749a2.493 2.493 0 0 0-.144-.092c-.133-.076-.262-.13-.416-.233l-13.553-5.185c1.962 7.552 5.743 15.278 10.812 21.929m37.684-20.722l-10.243 4.607v.077c-.926.376-1.064 1.907-.29 3.458a5.006 5.006 0 0 0 1.183 1.577l.019.067 13.085 11.903c.68-6.615-.736-14.248-3.754-21.689m-65.875-13.596c.908.338 1.647.823 2.49 1.21 1.835.87 3.353 1.596 4.674 1.828.545.086.94-.466 1.124-.662l1.059.25c-.533-4.83-.371-9.46.583-13.637.955-4.214 2.648-7.586 4.903-10.139-.262-.435-.774-1.243-.92-1.48-.034-.55.017-1.11-.476-1.966-1.002-1.717-2.302-3.378-3.87-5.365-.72-.93-1.416-1.635-2.153-2.688-.167-.248-.398-.607-.578-.865-1.235-1.868-1.524-4.012-.612-4.777.483-.415 1.207-.354 1.968.087.653.377 1.33 1.026 1.908 1.885.165.265.41.617.574.862.694 1.088 1.12 2.031 1.712 3.079 1.267 2.249 2.302 4.12 3.485 5.676.279.347.622.59.933.77.262.15.5.257.652.335l.987 1.387c5.663-3.55 13.36-3.453 21.63.47.032-.383.052-1.092.067-1.293.33-.19.777-.234.847-1.011.168-1.498-.04-3.364-.265-5.585-.114-1.05-.327-1.968-.354-3.05l.002-.855c.005-1.836 1.178-2.641 2.615-1.812 1.436.83 2.6 2.984 2.582 4.91-.002.246.012.556.012.767-.034 1.043-.25 1.713-.37 2.631-.237 1.953-.489 3.553-.297 5.262.067.642.492 1.443.84 2.038l.06 1.288a60.252 60.252 0 0 1 4.697 3.55c6.744 5.66 12.556 13.019 16.96 20.975.283-.063.796-.184.944-.232.235.174.474.38.733.53.25.144.517.232.82.193 1.19-.167 2.231-.836 3.506-1.62.597-.355 1.027-.811 1.72-1.093.167-.058.399-.135.582-.197.546-.179 1.188-.073 1.93.333.751.433 1.477 1.212 1.96 2.18.887 1.801.57 3.573-.704 4.035a7.01 7.01 0 0 1-.529.207c-.746.196-1.421.11-2.167.193-1.57.175-2.875.331-3.885.887-.396.25-.464 1.083-.515 1.433l-.845.365c4.45 10.296 6.482 21.02 5.236 30.041l1.088.991c.293.587.689 1.517 1.117 1.935 1.318 1.31 2.836 2.32 4.668 3.587.838.578 1.583.935 2.49 1.663.198.156.479.392.756.647 1.533 1.302 2.502 3.478 2.184 4.908-.27 1.197-1.396 1.464-2.667.731a5.98 5.98 0 0 1-.787-.56c-.214-.185-.476-.409-.673-.577-.891-.782-1.515-1.563-2.326-2.37-1.71-1.712-3.126-3.155-4.655-4.236-.537-.31-1.088-.186-1.377-.175l-1.125-.881c-2.649 7.794-8.131 12.146-15.072 12.867l.474 1.585c-.18.39-.383.974-.233 1.558.442 1.79 1.343 3.887 2.343 6.209.46 1.105.953 2.014 1.38 3.19.099.286.23.703.328 1.005.673 2.024.172 3.652-1.118 3.607-.335-.002-.7-.125-1.063-.334-1.03-.597-2.064-1.912-2.528-3.446-.098-.284-.231-.665-.31-.937-.377-1.188-.458-2.072-.752-3.172-.622-2.387-1.044-4.683-1.996-6.541-.265-.498-.677-.886-1.122-1.275l-.59-1.558c-3.798-.515-7.886-1.97-12.08-4.39-2.46-1.422-4.96-3.18-7.455-5.272a62.846 62.846 0 0 1-4.469-4.14c-.165.247-.462.723-.547.845-.444-.087-.956-.306-1.338.156-.748.934-1.212 2.34-1.795 3.995-.27.774-.402 1.534-.769 2.294-.082.178-.231.416-.331.583-.517.93-1.539 1.076-2.559.488a4.214 4.214 0 0 1-1.042-.877c-1.266-1.43-1.773-3.623-1.095-4.885.104-.166.252-.445.35-.593.43-.702.929-1.02 1.408-1.58.995-1.19 1.841-2.165 2.307-3.416.25-.63-.029-1.285-.194-1.879.1-.076.316-.69.45-.952-7.194-9.037-12.467-19.9-14.95-30.355-.329-.114-.909-.335-1.106-.408-.357-.464-.687-1.018-1.448-1.445-1.404-.642-2.826-.833-4.541-1.103-.813-.126-1.455-.061-2.346-.311-.182-.046-.445-.14-.762-.25a3.515 3.515 0 0 1-.666-.301c-1.282-.74-2.41-2.297-2.674-3.812-.325-1.78.67-2.839 2.205-2.371.228.076.546.144.758.228m343.372 613.066c-2.044-6.382-6.423-12.62-11.612-16.064a45.317 45.317 0 0 1-3.048 3.239 39.538 39.538 0 0 1-1.943 1.74c-.243.205-.488.412-.736.61-.446.355-.898.688-1.35 1.018-.218.156-.433.32-.653.472-.675.464-1.358.905-2.05 1.302a24.898 24.898 0 0 1-1.75.922c-.341.166-.683.323-1.021.469-.12.051-.243.105-.365.156a22.65 22.65 0 0 1-.934.356c-.083.029-.17.064-.253.093-.233.08-.46.143-.69.213.892 5.797 4.035 11.963 8.241 16.432 2.681-.6 5.52-1.72 8.461-3.42 3.405-1.966 6.671-4.536 9.702-7.538"></path><path d="M1116.077 932.882c-2.94 1.7-5.78 2.82-8.46 3.422 1.66 1.763 3.486 3.264 5.404 4.37 7.704 4.448 13.972.876 14-7.976.004-2.366-.446-4.87-1.242-7.354-3.031 3.002-6.297 5.574-9.702 7.538m-16.964-16.296c-.004 1.072.09 2.17.26 3.286.23-.07.459-.135.692-.213l.253-.095c.31-.11.619-.228.934-.355.12-.05.243-.106.365-.157.338-.146.678-.302 1.02-.467a25.494 25.494 0 0 0 1.751-.921 31.03 31.03 0 0 0 2.05-1.304c.218-.152.434-.315.651-.473.454-.328.906-.663 1.35-1.018.25-.198.493-.405.738-.61a38.964 38.964 0 0 0 1.941-1.74 44.582 44.582 0 0 0 3.048-3.238 20.014 20.014 0 0 0-1.055-.672c-7.71-4.452-13.973-.875-13.998 7.977" fill="#3C92A0"></path><path d="M1115.914 874.908c2.948-1.703 5.763-2.641 8.328-2.881 1.039 2.293 1.619 5.12 1.627 8.43a31.24 31.24 0 0 1-.095 2.379c-.019.251-.05.504-.075.758-.061.625-.13 1.25-.228 1.88-.018.122-.034.243-.054.367a39.525 39.525 0 0 1-.43 2.191c-.082.368-.179.735-.27 1.104a53.79 53.79 0 0 1-.364 1.361c.092.009.173-.001.267.01 3.68.512 6.934 2.224 10.37 3.542 2.58.99 5.21 1.688 7.87 2.315 1.301-4.529 2.025-9.058 2.014-13.364-.026-9.124-3.271-15.541-8.489-18.545.016.009.033.015.048.026l-11.665-6.78-.159-.09c-.059-.034-.125-.058-.187-.092a13.816 13.816 0 0 0-1.069-.522c-.066-.03-.129-.07-.197-.098-.056-.023-.117-.036-.172-.06a14.672 14.672 0 0 0-1.322-.466c-.014-.003-.026-.01-.038-.013-.001 0-.005 0-.006-.002a14.911 14.911 0 0 0-1.447-.333c-.058-.01-.112-.03-.172-.041-.075-.012-.153-.015-.23-.026-.43-.07-.87-.12-1.315-.154-.07-.005-.134-.019-.202-.024-.024-.002-.046.002-.07 0a18.309 18.309 0 0 0-1.676-.014c-.058.002-.11-.005-.169-.001-.175.008-.353.025-.528.039-.133.01-.26.015-.391.027a22.46 22.46 0 0 0-1.105.133c-.04.006-.075.008-.114.015l-.016.002a22.85 22.85 0 0 0-1.292.24c-.125.026-.253.062-.379.093-.287.066-.576.13-.867.21l-.074.021c-.512.141-1.03.3-1.556.48-.114.04-.23.088-.345.129-.413.148-.826.302-1.245.474-.057.024-.117.04-.175.066-.103.043-.212.1-.316.145-.452.193-.908.4-1.363.622-.175.085-.349.168-.525.257-.602.304-1.21.625-1.823.979-.763.442-1.518.921-2.268 1.421l-.386.257a47.81 47.81 0 0 0-2.527 1.86 51.181 51.181 0 0 0-2.103 1.742l-.17.153a55.153 55.153 0 0 0-1.97 1.836c-.067.065-.138.124-.205.19l-.127.133a61.163 61.163 0 0 0-1.488 1.525 59.31 59.31 0 0 0-1.418 1.569l-.122.136c-.054.061-.102.127-.155.189a66.022 66.022 0 0 0-2.135 2.6l-.058.07c-.052.067-.098.136-.15.203a69.087 69.087 0 0 0-1.612 2.188c-.055.074-.113.148-.165.224-.028.036-.05.075-.075.11a69.712 69.712 0 0 0-1.462 2.183c-.046.072-.095.138-.14.208-.068.108-.132.217-.198.326a69.49 69.49 0 0 0-1.12 1.834c-.059.099-.122.192-.18.293-.021.035-.042.076-.062.112a68.37 68.37 0 0 0-1.199 2.15c-.032.06-.068.118-.098.177-.063.12-.12.242-.184.36-.3.579-.597 1.16-.882 1.745-.06.119-.124.238-.182.36-.036.072-.066.143-.099.213-.353.74-.693 1.48-1.02 2.225-.01.026-.022.05-.032.075-.037.082-.066.166-.102.25a65.924 65.924 0 0 0-.824 2.014c-.045.112-.094.221-.137.332-.035.092-.062.183-.098.274a66.34 66.34 0 0 0-.862 2.403l-.019.055c-.018.054-.032.109-.05.165-.273.82-.52 1.644-.754 2.47-.03.102-.066.207-.097.31-.013.055-.024.111-.039.167-.263.963-.5 1.927-.709 2.887-.018.087-.044.173-.063.258-.027.126-.046.249-.071.371-.076.376-.148.75-.216 1.122a45.7 45.7 0 0 0-.141.792c-.063.388-.12.772-.175 1.16-.026.183-.06.37-.083.555-.005.046-.007.092-.014.14a44.29 44.29 0 0 0-.243 2.47c-.012.177-.022.35-.03.525a38.817 38.817 0 0 0-.08 2.5c.023 9.094 3.246 15.502 8.438 18.517l11.664 6.778c-.151-.086-.294-.187-.442-.28 3.402 2.154 7.703 2.788 12.532 1.705-4.206-4.47-7.349-10.635-8.241-16.432-.157.047-.316.102-.473.144-.231.065-.459.12-.688.172-.1.022-.2.05-.298.073-.326.07-.651.13-.97.178-.307.048-.604.062-.902.09-1.032-2.29-1.61-5.106-1.62-8.403-.037-13.662 9.602-30.355 21.49-37.218" fill="#3C92A0"></path><path d="M1124.293 843.923c-12.705-7.334-23.04-1.447-23.08 13.16-.043 14.597 10.225 32.38 22.929 39.716 12.71 7.337 23.045 1.449 23.086-13.15.043-14.606-10.224-32.39-22.935-39.726m108.746 143.247c-2.043-6.38-6.423-12.62-11.611-16.064a44.957 44.957 0 0 1-3.048 3.239 39.713 39.713 0 0 1-1.943 1.74 27.44 27.44 0 0 1-.736.61c-.446.354-.898.69-1.35 1.017-.218.157-.434.323-.653.475-.675.462-1.358.903-2.05 1.302a28.1 28.1 0 0 1-1.362.731c-.13.066-.258.127-.388.19-.341.167-.685.322-1.021.468-.123.05-.243.105-.366.156-.313.13-.624.245-.935.356-.081.029-.168.066-.253.093-.231.08-.459.143-.689.213.893 5.796 4.036 11.962 8.242 16.431 2.681-.6 5.52-1.72 8.461-3.418 3.405-1.967 6.67-4.538 9.702-7.54" fill="#3C92A0"></path><path d="M1223.337 994.708c-2.941 1.698-5.78 2.819-8.46 3.42 1.66 1.763 3.486 3.264 5.403 4.371 7.703 4.447 13.973.876 13.998-7.976.005-2.367-.444-4.87-1.24-7.354-3.032 3.002-6.296 5.574-9.701 7.54m-16.964-16.298c-.004 1.071.09 2.171.26 3.285.23-.07.459-.133.69-.213.083-.029.17-.064.253-.095a19.3 19.3 0 0 0 .935-.355c.121-.05.242-.106.366-.157.336-.146.678-.3 1.02-.466.129-.063.26-.124.39-.192a27.59 27.59 0 0 0 1.36-.729c.693-.401 1.374-.84 2.051-1.304.218-.151.433-.316.651-.474.454-.327.906-.663 1.35-1.019.25-.197.493-.402.738-.608a41.59 41.59 0 0 0 1.941-1.74 44.234 44.234 0 0 0 3.048-3.24c-.35-.232-.7-.464-1.057-.67-7.708-4.452-13.97-.876-13.996 7.977" fill="#3C92A0"></path><path d="M1223.172 936.732c2.95-1.703 5.765-2.641 8.33-2.881 1.037 2.293 1.619 5.122 1.625 8.432.004.782-.034 1.576-.093 2.376-.02.254-.051.507-.075.759-.061.625-.13 1.25-.228 1.88-.02.122-.035.245-.056.369a37.942 37.942 0 0 1-.428 2.19c-.084.368-.18.735-.27 1.103-.116.455-.237.907-.364 1.361.09.009.173-.001.265.012 3.68.512 6.936 2.224 10.371 3.541 2.581.99 5.211 1.688 7.871 2.314 1.3-4.529 2.025-9.058 2.012-13.362-.026-9.124-3.27-15.541-8.489-18.545l.05.024-11.666-6.778c-.052-.033-.107-.062-.16-.092-.059-.032-.123-.058-.185-.092a14.124 14.124 0 0 0-1.069-.522c-.068-.03-.13-.068-.199-.097-.054-.022-.115-.037-.17-.06a14.533 14.533 0 0 0-1.324-.467l-.036-.012-.008-.001a14.76 14.76 0 0 0-1.445-.334c-.058-.012-.114-.03-.174-.04-.075-.014-.153-.016-.228-.026-.431-.07-.87-.122-1.317-.155-.068-.005-.133-.02-.202-.023-.023-.002-.046 0-.07-.002a18.272 18.272 0 0 0-1.675-.014c-.06.002-.112-.003-.168-.001-.177.008-.353.027-.53.04-.131.009-.26.014-.391.028a21.46 21.46 0 0 0-1.105.132l-.114.014-.016.001c-.425.067-.855.148-1.29.242-.126.025-.253.063-.379.092-.289.066-.576.13-.869.21-.023.006-.049.016-.073.023-.511.14-1.032.3-1.555.477-.114.041-.23.089-.347.131-.411.146-.826.301-1.244.473-.058.025-.116.04-.176.066-.103.043-.212.1-.316.145-.452.193-.906.4-1.363.622-.175.085-.349.168-.524.258-.603.303-1.21.626-1.822.98-.763.44-1.52.92-2.268 1.42-.13.086-.258.169-.387.257a46.747 46.747 0 0 0-2.119 1.539 23.88 23.88 0 0 0-.408.321 50.06 50.06 0 0 0-2.104 1.74c-.056.052-.112.105-.17.154a60.108 60.108 0 0 0-1.969 1.836c-.068.066-.138.124-.204.19l-.13.133c-.492.49-.98.99-1.463 1.5-.007.008-.015.016-.022.026-.48.512-.952 1.036-1.418 1.57-.042.044-.083.09-.122.136-.054.06-.104.125-.157.187a65.298 65.298 0 0 0-2.135 2.6c-.018.024-.039.047-.056.072-.053.065-.1.136-.151.202a67.07 67.07 0 0 0-1.612 2.187c-.054.076-.112.147-.166.224-.026.036-.048.075-.075.11a74.16 74.16 0 0 0-1.462 2.185c-.046.07-.094.138-.138.207-.068.107-.132.218-.2.325a77.32 77.32 0 0 0-1.12 1.834c-.058.099-.121.194-.178.293-.022.037-.042.076-.062.114a64.788 64.788 0 0 0-1.2 2.15c-.031.06-.067.116-.098.175-.064.12-.12.242-.185.36-.3.579-.595 1.16-.882 1.745-.058.12-.122.238-.18.36-.036.072-.067.143-.1.214a70.62 70.62 0 0 0-1.051 2.299c-.038.083-.066.166-.104.25a60.385 60.385 0 0 0-.823 2.016c-.046.11-.093.22-.136.331-.035.09-.063.182-.098.272a64.573 64.573 0 0 0-.864 2.406c-.005.017-.012.034-.017.053-.019.054-.034.108-.05.165a59.773 59.773 0 0 0-.756 2.47c-.029.103-.066.207-.095.31-.015.055-.024.113-.04.167a56.597 56.597 0 0 0-.708 2.887c-.019.087-.046.175-.063.26-.027.124-.047.246-.071.369-.078.376-.148.751-.216 1.124a39.81 39.81 0 0 0-.316 1.95c-.026.185-.062.372-.085.555-.005.046-.007.094-.012.14a44.35 44.35 0 0 0-.243 2.472c-.014.175-.022.348-.033.523-.049.84-.081 1.675-.08 2.5.026 9.094 3.25 15.501 8.44 18.517l11.665 6.78c-.152-.087-.296-.189-.444-.282 3.402 2.153 7.704 2.788 12.534 1.705-4.206-4.47-7.349-10.636-8.243-16.432-.157.047-.315.103-.471.144-.233.065-.46.12-.69.173-.099.02-.197.05-.298.072-.326.07-.65.13-.969.178-.307.048-.603.063-.902.092-1.032-2.29-1.609-5.108-1.619-8.403-.037-13.663 9.6-30.355 21.488-37.22" fill="#3C92A0"></path><path d="M1231.551 905.746c-12.704-7.333-23.038-1.446-23.079 13.16-.042 14.598 10.226 32.382 22.93 39.717 12.71 7.34 23.045 1.449 23.086-13.15.042-14.606-10.224-32.39-22.937-39.727M912.397 802.08c-2.042-6.381-6.421-12.619-11.61-16.063a44.95 44.95 0 0 1-3.05 3.237 37.578 37.578 0 0 1-1.941 1.74c-.245.206-.49.414-.736.611-.445.355-.897.688-1.351 1.018-.218.157-.432.322-.651.473-.675.464-1.359.903-2.05 1.302a26.867 26.867 0 0 1-2.773 1.389c-.121.053-.242.107-.364.158a25.47 25.47 0 0 1-.935.355c-.083.03-.168.065-.253.094-.233.078-.46.143-.689.212.893 5.797 4.036 11.963 8.242 16.433 2.679-.6 5.518-1.72 8.46-3.42 3.406-1.968 6.67-4.536 9.7-7.539" fill="#3C92A0"></path><path d="M902.697 809.616c-2.943 1.7-5.782 2.82-8.461 3.423 1.66 1.763 3.485 3.264 5.402 4.37 7.705 4.447 13.974.876 14-7.976.005-2.366-.446-4.87-1.241-7.354-3.031 3.002-6.295 5.572-9.7 7.538m-16.965-16.297c-.001 1.071.09 2.171.262 3.286.23-.07.457-.134.69-.212.084-.03.169-.065.254-.095.309-.11.62-.228.935-.356.12-.049.241-.105.363-.158a25.556 25.556 0 0 0 1.41-.656c.45-.226.904-.467 1.363-.73a31.385 31.385 0 0 0 2.05-1.305c.218-.151.432-.314.65-.472a33.05 33.05 0 0 0 1.351-1.019c.248-.197.492-.404.738-.61a37.064 37.064 0 0 0 1.94-1.74 44.226 44.226 0 0 0 3.05-3.238c-.35-.232-.7-.465-1.058-.671-7.71-4.452-13.97-.876-13.998 7.976" fill="#3C92A0"></path><path d="M902.533 751.643c2.948-1.703 5.763-2.642 8.329-2.881 1.038 2.293 1.618 5.12 1.627 8.43a31.24 31.24 0 0 1-.096 2.378c-.018.252-.049.505-.074.758-.062.626-.131 1.25-.228 1.88-.019.123-.034.244-.055.368a39.525 39.525 0 0 1-.43 2.191c-.081.367-.178.734-.27 1.103a53.86 53.86 0 0 1-.364 1.362c.092.009.174-.002.267.01 3.68.512 6.934 2.224 10.37 3.541 2.58.991 5.21 1.688 7.871 2.316 1.3-4.529 2.025-9.058 2.013-13.364-.026-9.124-3.27-15.541-8.488-18.545.015.008.032.015.047.025l-11.665-6.78-.158-.09c-.06-.033-.126-.057-.187-.091a13.816 13.816 0 0 0-1.07-.522c-.066-.03-.129-.07-.197-.099-.056-.022-.117-.035-.171-.06a14.672 14.672 0 0 0-1.323-.465c-.013-.003-.025-.01-.037-.014l-.007-.001a14.844 14.844 0 0 0-1.447-.333c-.058-.01-.112-.03-.171-.041-.075-.012-.154-.016-.23-.026-.43-.07-.87-.12-1.316-.154-.07-.006-.134-.02-.202-.024-.024-.002-.046.001-.07 0a18.309 18.309 0 0 0-1.676-.014c-.058.002-.11-.005-.168-.002-.175.009-.354.026-.529.04-.133.01-.26.015-.391.027-.365.035-.734.078-1.105.132-.04.007-.075.009-.114.016l-.015.001a22.85 22.85 0 0 0-1.292.24c-.126.027-.253.063-.38.093-.287.067-.576.131-.866.211-.024.005-.05.014-.075.02-.512.142-1.03.302-1.556.48-.114.04-.23.088-.345.13-.413.147-.826.302-1.244.474-.058.023-.117.04-.175.066-.104.042-.213.1-.316.144-.453.194-.908.402-1.364.623-.175.085-.348.168-.525.256a37.14 37.14 0 0 0-1.822.98c-.764.442-1.519.92-2.268 1.42l-.386.257a47.81 47.81 0 0 0-2.12 1.54l-.408.32a51.181 51.181 0 0 0-2.103 1.743l-.17.153a55.153 55.153 0 0 0-1.97 1.836c-.067.064-.138.124-.204.19l-.128.133a61.163 61.163 0 0 0-1.487 1.525 57.77 57.77 0 0 0-1.418 1.569c-.04.046-.082.09-.123.136-.054.06-.101.127-.154.188-.73.845-1.443 1.71-2.135 2.601-.02.023-.041.046-.058.07-.053.066-.099.136-.15.202a69.087 69.087 0 0 0-1.613 2.188c-.054.075-.112.148-.165.225-.027.035-.05.075-.075.11a69.712 69.712 0 0 0-1.462 2.183c-.046.071-.095.138-.14.207l-.198.327a69.49 69.49 0 0 0-1.12 1.834c-.058.099-.121.192-.179.293-.022.035-.042.076-.063.112a68.37 68.37 0 0 0-1.198 2.15c-.033.06-.068.118-.099.177-.063.119-.119.241-.183.36-.301.578-.597 1.16-.883 1.745-.06.119-.124.238-.182.36-.035.071-.066.143-.098.212-.354.74-.694 1.481-1.02 2.226l-.033.075c-.037.081-.066.166-.102.25a65.924 65.924 0 0 0-.824 2.014c-.044.112-.094.221-.136.331-.036.092-.063.184-.099.274-.302.8-.591 1.6-.862 2.404l-.018.054c-.019.055-.033.11-.051.165-.272.821-.52 1.644-.753 2.47-.031.102-.067.208-.097.311-.014.055-.024.111-.04.167-.263.962-.5 1.926-.708 2.887-.019.086-.044.173-.063.258-.027.126-.046.248-.072.37-.076.376-.147.75-.216 1.123a45.7 45.7 0 0 0-.14.792c-.063.387-.121.772-.176 1.16-.025.183-.06.37-.083.555-.005.046-.007.092-.014.14a44.29 44.29 0 0 0-.243 2.47c-.012.177-.022.35-.03.525a38.82 38.82 0 0 0-.08 2.499c.024 9.095 3.247 15.502 8.439 18.518l11.663 6.778c-.151-.087-.294-.187-.442-.28 3.402 2.153 7.703 2.788 12.533 1.705-4.206-4.47-7.35-10.636-8.242-16.433-.156.048-.316.102-.473.145-.23.065-.458.119-.688.172-.1.022-.199.05-.298.073-.326.07-.65.129-.97.178-.306.048-.604.061-.901.09-1.032-2.29-1.61-5.106-1.62-8.403-.038-13.663 9.601-30.355 21.49-37.218" fill="#3C92A0"></path><path d="M910.911 720.657c-12.704-7.334-23.038-1.447-23.08 13.158-.042 14.6 10.225 32.383 22.93 39.719 12.711 7.337 23.046 1.448 23.087-13.15.042-14.606-10.226-32.39-22.937-39.727m108.746 143.247c-2.042-6.381-6.423-12.619-11.61-16.063a44.977 44.977 0 0 1-3.05 3.239c-.24.229-.48.453-.724.674-.4.366-.806.72-1.219 1.065a29.63 29.63 0 0 1-.734.61c-.445.355-.9.69-1.352 1.018-.217.157-.431.323-.652.473-.673.464-1.359.904-2.05 1.304-.458.265-.91.503-1.362.73-.13.067-.259.128-.386.191-.344.167-.685.321-1.024.468-.12.05-.243.105-.363.156-.315.127-.626.245-.935.355-.084.03-.169.065-.254.094-.232.08-.459.143-.69.212.893 5.797 4.036 11.963 8.242 16.433 2.68-.6 5.52-1.72 8.462-3.42 3.404-1.966 6.67-4.536 9.7-7.539" fill="#3C92A0"></path><path d="M1009.956 871.444c-2.942 1.698-5.781 2.818-8.462 3.42 1.662 1.763 3.486 3.264 5.404 4.37 7.704 4.448 13.974.876 14-7.976.005-2.366-.446-4.87-1.241-7.354-3.032 3.003-6.297 5.575-9.7 7.54m-16.965-16.296c-.003 1.07.09 2.169.26 3.284.231-.07.46-.133.692-.212.083-.031.168-.065.253-.096.31-.109.62-.228.935-.355.12-.05.242-.105.364-.156.339-.147.678-.301 1.022-.466.127-.063.258-.124.387-.192.451-.226.905-.466 1.362-.73.692-.4 1.375-.84 2.05-1.305.22-.15.434-.315.651-.473.454-.326.908-.663 1.352-1.018.248-.197.491-.403.736-.609a39.315 39.315 0 0 0 1.941-1.74 44.253 44.253 0 0 0 3.05-3.239c-.35-.233-.7-.464-1.057-.67-7.71-4.454-13.972-.877-13.998 7.977" fill="#3C92A0"></path><path d="M1009.792 813.467c2.947-1.703 5.762-2.642 8.328-2.881 1.038 2.293 1.618 5.122 1.627 8.432a31.23 31.23 0 0 1-.095 2.376c-.02.253-.05.507-.075.758a34.774 34.774 0 0 1-.228 1.88c-.019.123-.034.245-.055.37a39.469 39.469 0 0 1-.43 2.189c-.081.369-.178.736-.27 1.103-.115.456-.235.908-.364 1.362.092.008.174-.002.267.012 3.68.512 6.934 2.224 10.37 3.541 2.58.99 5.21 1.688 7.871 2.314 1.3-4.53 2.025-9.058 2.013-13.362-.025-9.124-3.27-15.542-8.488-18.546a.621.621 0 0 1 .048.024l-11.666-6.778c-.05-.032-.105-.06-.158-.091-.06-.033-.126-.058-.187-.092a13.816 13.816 0 0 0-1.07-.522c-.066-.03-.129-.068-.197-.097-.056-.022-.117-.037-.171-.06a14.683 14.683 0 0 0-1.323-.467l-.037-.012c-.002-.002-.005-.002-.007-.002-.47-.136-.955-.243-1.447-.333-.058-.012-.112-.03-.171-.04-.075-.014-.153-.016-.23-.026-.43-.07-.87-.123-1.316-.155-.07-.005-.134-.02-.202-.024l-.07-.001a18.309 18.309 0 0 0-1.676-.014c-.058.002-.11-.003-.168-.002-.175.009-.354.028-.529.041-.133.009-.26.014-.39.027a21.48 21.48 0 0 0-1.106.133c-.039.005-.075.008-.114.014l-.015.001a22.98 22.98 0 0 0-1.292.242c-.126.025-.253.063-.38.091-.287.067-.576.131-.866.211-.024.005-.05.015-.075.022a28.84 28.84 0 0 0-1.555.478c-.114.04-.23.088-.346.13-.413.147-.826.302-1.244.474-.058.025-.117.04-.175.066-.104.042-.213.1-.316.144-.452.194-.908.401-1.364.622-.175.086-.348.169-.525.259a34.75 34.75 0 0 0-1.822.98c-.764.44-1.519.92-2.268 1.42-.128.085-.257.169-.386.257a47.765 47.765 0 0 0-2.12 1.538c-.136.106-.272.213-.408.322a51.132 51.132 0 0 0-2.103 1.74l-.17.154a58.47 58.47 0 0 0-1.97 1.836c-.067.066-.138.124-.204.19-.043.044-.085.09-.128.133-.494.49-.982.989-1.465 1.499-.005.009-.014.017-.022.027-.48.512-.952 1.035-1.418 1.57l-.122.135c-.055.06-.102.126-.155.187-.73.845-1.443 1.71-2.135 2.601-.019.024-.041.046-.058.072-.053.064-.099.136-.15.202a67.114 67.114 0 0 0-1.613 2.186c-.054.077-.112.148-.165.225-.027.035-.05.074-.075.11a67.844 67.844 0 0 0-1.462 2.185c-.046.07-.095.137-.14.207-.067.107-.132.218-.198.325a69.49 69.49 0 0 0-1.12 1.834c-.058.099-.121.194-.179.292l-.063.114a64.745 64.745 0 0 0-1.198 2.15c-.033.06-.068.116-.099.176-.063.12-.119.241-.183.36-.301.578-.597 1.16-.883 1.745-.06.12-.124.238-.182.36-.035.071-.066.143-.098.214a70.666 70.666 0 0 0-1.02 2.225c-.01.026-.022.048-.032.073-.038.084-.067.167-.103.25a64.29 64.29 0 0 0-.824 2.017c-.044.11-.094.22-.136.331-.036.09-.063.182-.099.272a67.75 67.75 0 0 0-.861 2.406c-.007.017-.012.034-.02.052-.018.055-.032.11-.05.165-.272.823-.52 1.646-.753 2.47-.03.104-.067.208-.097.311-.014.055-.024.113-.04.167-.263.964-.5 1.926-.708 2.887-.019.086-.044.175-.063.26-.027.124-.046.246-.072.369-.076.375-.147.751-.215 1.123-.05.266-.097.529-.141.79-.063.388-.121.774-.176 1.16-.025.186-.06.372-.083.556-.005.046-.007.094-.014.14a44.35 44.35 0 0 0-.243 2.471c-.011.175-.022.349-.03.524a38.86 38.86 0 0 0-.08 2.499c.024 9.095 3.247 15.502 8.439 18.518l11.663 6.78c-.15-.087-.294-.19-.442-.283 3.402 2.154 7.703 2.788 12.533 1.705-4.206-4.469-7.35-10.635-8.242-16.432-.156.048-.316.104-.472.145-.232.064-.46.119-.689.173-.1.02-.199.05-.297.072-.327.07-.651.13-.971.178-.306.048-.604.063-.901.092-1.032-2.29-1.61-5.109-1.62-8.403-.038-13.663 9.601-30.355 21.49-37.22" fill="#3C92A0"></path><path d="M1018.17 782.481c-12.705-7.334-23.04-1.447-23.08 13.16-.043 14.598 10.225 32.381 22.931 39.717 12.711 7.339 23.045 1.448 23.085-13.15.042-14.606-10.224-32.39-22.935-39.727m-213.032-41.536c-2.042-6.382-6.421-12.62-11.61-16.063a44.957 44.957 0 0 1-3.048 3.238 39.713 39.713 0 0 1-1.943 1.74c-.245.207-.49.412-.736.61-.445.355-.898.69-1.351 1.018-.218.156-.432.323-.652.472a30.12 30.12 0 0 1-2.05 1.304c-.459.266-.91.504-1.361.731-.131.067-.259.128-.388.19-.343.167-.685.322-1.023.468-.121.051-.242.106-.364.157-.313.127-.624.245-.935.355-.083.029-.168.065-.254.094-.232.08-.458.142-.688.212.893 5.797 4.036 11.963 8.242 16.432 2.679-.6 5.518-1.72 8.46-3.418 3.406-1.967 6.67-4.538 9.7-7.54" fill="#3C92A0"></path><path d="M795.438 748.483c-2.942 1.698-5.781 2.818-8.46 3.42 1.66 1.763 3.485 3.264 5.404 4.37 7.703 4.448 13.972.876 13.998-7.976.005-2.366-.446-4.87-1.241-7.354-3.031 3.003-6.295 5.575-9.7 7.54m-16.965-16.295c-.003 1.071.09 2.17.26 3.285.23-.07.458-.133.69-.213.084-.03.169-.064.254-.095.31-.109.62-.228.935-.355.12-.05.241-.106.364-.157.338-.146.678-.3 1.021-.466a28.252 28.252 0 0 0 1.751-.921c.692-.401 1.374-.84 2.05-1.305.218-.15.432-.315.65-.473.456-.327.908-.663 1.351-1.018.249-.198.492-.403.738-.609a41.59 41.59 0 0 0 1.942-1.74 44.234 44.234 0 0 0 3.048-3.24c-.35-.232-.7-.463-1.058-.67-7.707-4.453-13.97-.876-13.996 7.977" fill="#3C92A0"></path><path d="M795.274 690.508c2.95-1.704 5.764-2.642 8.33-2.882 1.037 2.293 1.618 5.122 1.625 8.432.003.782-.034 1.576-.094 2.377-.02.253-.05.506-.074.758a34.774 34.774 0 0 1-.228 1.88c-.02.123-.036.245-.056.37a37.942 37.942 0 0 1-.429 2.189c-.083.369-.18.736-.27 1.103-.116.456-.236.908-.364 1.362.09.008.173-.002.265.012 3.68.511 6.936 2.223 10.372 3.54 2.58.99 5.21 1.689 7.871 2.314 1.299-4.528 2.025-9.057 2.011-13.362-.025-9.124-3.269-15.541-8.488-18.545l.05.024-11.666-6.778c-.053-.032-.107-.061-.16-.092-.06-.032-.124-.058-.185-.092a14.124 14.124 0 0 0-1.07-.522c-.068-.03-.13-.067-.198-.096-.055-.023-.116-.038-.17-.06a14.533 14.533 0 0 0-1.325-.467l-.035-.012c-.004-.002-.005-.002-.009-.002a14.76 14.76 0 0 0-1.445-.333c-.058-.012-.114-.03-.173-.041-.075-.014-.153-.015-.228-.026-.432-.07-.87-.122-1.318-.154-.068-.005-.132-.02-.202-.024-.022-.002-.046 0-.07-.002a18.272 18.272 0 0 0-1.674-.013c-.06.001-.112-.004-.168-.002-.177.008-.354.027-.53.04-.132.01-.26.014-.392.028a21.46 21.46 0 0 0-1.105.133l-.114.013c-.005.002-.01.002-.015.002a23.24 23.24 0 0 0-1.29.241c-.126.026-.254.063-.38.092-.288.066-.576.131-.868.21-.024.006-.05.016-.073.023-.512.141-1.032.3-1.556.478-.114.04-.23.088-.346.13-.412.147-.827.302-1.245.473-.058.026-.115.041-.175.067-.104.042-.212.1-.316.144-.452.194-.906.401-1.364.622-.175.085-.348.169-.523.259a34.35 34.35 0 0 0-1.823.979c-.763.44-1.52.921-2.267 1.421-.13.085-.259.168-.388.257a46.747 46.747 0 0 0-2.118 1.538c-.138.106-.272.213-.408.322a50.06 50.06 0 0 0-2.105 1.74c-.056.051-.112.104-.17.153a60.108 60.108 0 0 0-1.968 1.836c-.068.067-.138.124-.204.19l-.13.133c-.493.49-.98.99-1.463 1.5-.007.008-.016.017-.022.027a59.31 59.31 0 0 0-1.418 1.569c-.043.044-.083.09-.123.136-.054.06-.103.126-.156.187-.73.845-1.443 1.71-2.135 2.601-.019.024-.04.046-.056.071-.053.065-.1.136-.152.203a67.07 67.07 0 0 0-1.611 2.186c-.055.076-.112.148-.167.224-.025.036-.047.075-.075.11a74.16 74.16 0 0 0-1.462 2.185c-.045.07-.093.138-.137.208-.068.107-.133.217-.2.324a76.148 76.148 0 0 0-1.121 1.835c-.058.098-.12.193-.177.292-.022.037-.043.077-.063.114a64.788 64.788 0 0 0-1.2 2.15c-.03.06-.066.116-.097.176-.065.12-.12.241-.185.36-.301.578-.595 1.16-.883 1.744-.057.12-.122.238-.18.36-.036.072-.066.143-.1.215a70.62 70.62 0 0 0-1.05 2.298c-.038.084-.067.167-.104.25a60.385 60.385 0 0 0-.823 2.016c-.046.11-.094.221-.136.332-.036.09-.063.182-.099.272a64.573 64.573 0 0 0-.863 2.405c-.005.017-.012.034-.017.053-.02.054-.034.109-.051.165-.272.823-.52 1.645-.755 2.47-.03.104-.067.207-.095.311-.016.055-.024.112-.041.167a56.597 56.597 0 0 0-.707 2.886c-.02.087-.046.175-.063.26-.028.125-.048.247-.072.37-.078.375-.148.75-.216 1.123-.049.265-.098.529-.14.79a39.81 39.81 0 0 0-.176 1.16c-.025.185-.061.372-.085.556-.005.046-.007.093-.012.14a44.35 44.35 0 0 0-.243 2.471c-.013.175-.022.349-.032.524-.05.84-.082 1.674-.08 2.499.025 9.095 3.249 15.502 8.439 18.518l11.665 6.78c-.151-.087-.296-.19-.443-.283 3.401 2.154 7.704 2.788 12.534 1.705-4.206-4.47-7.35-10.635-8.244-16.432-.156.048-.314.104-.47.144-.234.065-.461.12-.69.174-.1.02-.198.05-.298.071-.327.07-.65.131-.97.179-.307.047-.603.063-.902.092-1.032-2.29-1.608-5.109-1.618-8.404-.038-13.662 9.6-30.355 21.488-37.22" fill="#3C92A0"></path><path d="M803.653 659.522c-12.704-7.334-23.038-1.447-23.08 13.16-.042 14.597 10.225 32.381 22.93 39.717 12.711 7.338 23.045 1.448 23.086-13.15.043-14.606-10.225-32.39-22.936-39.727m520.819 335.827c2.947-1.704 5.763-2.642 8.328-2.882 1.039 2.294 1.618 5.12 1.627 8.43a31.24 31.24 0 0 1-.095 2.379c-.019.252-.05.505-.075.758-.061.626-.131 1.25-.228 1.88-.019.123-.034.243-.054.368a39.525 39.525 0 0 1-.43 2.19c-.082.368-.179.735-.27 1.104-.116.454-.235.906-.365 1.362.092.008.174-.002.267.01 3.68.512 6.935 2.224 10.37 3.541 2.581.991 5.21 1.688 7.871 2.316 1.3-4.53 2.025-9.058 2.013-13.364-.025-9.124-3.27-15.542-8.488-18.545.015.008.032.015.048.025l-11.666-6.78c-.05-.03-.105-.06-.158-.09-.06-.034-.126-.058-.187-.092a13.816 13.816 0 0 0-1.07-.522c-.065-.03-.128-.07-.196-.099-.056-.022-.118-.035-.172-.059a14.672 14.672 0 0 0-1.323-.466c-.013-.003-.025-.01-.037-.013-.002 0-.005 0-.007-.002-.47-.136-.955-.243-1.447-.333-.057-.01-.112-.03-.171-.041-.075-.012-.153-.015-.23-.026-.43-.07-.87-.12-1.315-.154-.07-.005-.135-.019-.203-.024-.024-.002-.046.002-.07 0a18.309 18.309 0 0 0-1.676-.014c-.058.002-.11-.005-.168-.001-.175.008-.354.025-.529.039-.132.01-.26.015-.39.027-.366.036-.735.078-1.106.133-.039.006-.074.008-.114.015l-.015.001a22.85 22.85 0 0 0-1.292.24c-.126.027-.253.063-.379.094-.287.066-.576.13-.867.21l-.075.02c-.511.142-1.03.302-1.555.48-.114.041-.23.089-.345.13-.414.147-.827.302-1.245.474-.058.024-.117.04-.175.066-.104.043-.212.1-.316.145-.452.193-.908.4-1.363.622-.176.085-.349.168-.526.257-.602.304-1.21.625-1.822.979-.764.442-1.518.921-2.268 1.42-.127.086-.257.17-.386.258a47.81 47.81 0 0 0-2.12 1.54 51.613 51.613 0 0 0-2.51 2.063 55.153 55.153 0 0 0-2.14 1.989c-.067.064-.139.124-.205.19l-.128.132c-.494.49-.982.988-1.465 1.5-.005.008-.014.017-.022.025-.48.512-.952 1.036-1.418 1.57l-.122.135c-.055.062-.102.128-.155.19-.73.844-1.443 1.71-2.135 2.6-.019.022-.04.046-.058.07-.053.066-.098.136-.15.202a69.087 69.087 0 0 0-1.613 2.188c-.054.075-.112.148-.165.224-.027.036-.049.075-.074.11a69.712 69.712 0 0 0-1.462 2.184c-.046.071-.096.137-.14.207-.068.109-.133.218-.199.327a69.49 69.49 0 0 0-1.12 1.834c-.058.098-.12.192-.179.292-.022.036-.042.077-.063.112a68.37 68.37 0 0 0-1.198 2.15c-.032.06-.068.118-.099.178-.063.119-.119.241-.183.36-.301.578-.597 1.16-.882 1.744-.06.12-.125.238-.182.36-.036.072-.067.144-.099.213-.354.74-.694 1.48-1.02 2.226l-.032.074c-.038.082-.067.167-.102.25a65.924 65.924 0 0 0-.825 2.015c-.044.112-.093.22-.136.331-.036.092-.063.184-.098.274-.303.799-.592 1.6-.862 2.404l-.019.054c-.019.055-.032.109-.051.165-.272.821-.52 1.644-.753 2.47-.03.102-.066.208-.097.311-.014.055-.024.11-.04.167a56.648 56.648 0 0 0-.708 2.886c-.019.087-.044.174-.063.259-.027.126-.046.248-.071.37-.077.376-.148.75-.216 1.122a45.7 45.7 0 0 0-.141.793c-.063.387-.121.771-.175 1.159-.026.184-.06.37-.084.556-.005.046-.006.092-.013.14a44.29 44.29 0 0 0-.243 2.47c-.012.176-.023.35-.031.525a38.817 38.817 0 0 0-.08 2.499c.024 9.095 3.247 15.502 8.439 18.518l11.664 6.778c-.152-.087-.294-.187-.442-.28 3.401 2.153 7.702 2.787 12.532 1.704-4.206-4.469-7.35-10.635-8.242-16.432-.156.048-.316.102-.472.145-.231.064-.46.119-.689.171-.1.022-.199.051-.297.073-.327.07-.651.13-.97.179-.307.048-.604.061-.902.09-1.032-2.29-1.61-5.107-1.62-8.403-.037-13.663 9.602-30.355 21.49-37.218" fill="#3C92A0"></path><path d="M1332.851 964.362c-12.706-7.333-23.04-1.445-23.081 13.16-.04 14.6 10.226 32.383 22.931 39.717 12.711 7.339 23.046 1.45 23.087-13.15.042-14.604-10.226-32.388-22.937-39.727" fill="#3C92A0"></path><path d="M530.419 925.489c1.713.76 4.054.574 5.29-.376.468-.356.735-.803.733-1.262.008-.586-.383-1.128-1.07-1.524a4.344 4.344 0 0 0-.977-.407l-.867-.416a56.486 56.486 0 0 0-3.245-.874c-2.129-.522-4.167-1.16-6.025-1.9-.542-.354-.888-.762-1.034-1.22l-1.443-.584c5.476-6.216 6.803-13.308 3.794-20.035l1.512-.353c.25-.4.678-.754 1.271-1.014a58.444 58.444 0 0 1 6.8-1.147 45.21 45.21 0 0 0 3.563-.396l1.061-.218c1.98-.314 3.142-1.493 2.596-2.64-.168-.364-.52-.71-.986-.98-1.365-.647-2.84-.75-4.117-.407l-1.024.197c-1.08.294-2.159.605-3.182.97-.774.198-1.511.399-2.23.606-1.617.459-3.164.898-4.64.98a4.789 4.789 0 0 1-1.73-.332l-1.73.29c-2.497-3.23-5.929-6.094-10.124-8.517-4.145-2.393-9.038-4.357-14.478-5.771l.429-.939c-.454-.363-.636-.824-.53-1.281a17.932 17.932 0 0 1 2.643-3.672c.609-.606 1.181-1.231 1.646-1.857l.358-.585c.391-.522.425-1.106.08-1.637-.2-.299-.498-.564-.874-.782a4.259 4.259 0 0 0-1.08-.428c-.718-.187-1.512-.23-2.303-.146-1.35.178-2.446.772-2.783 1.553l-.355.626a9.502 9.502 0 0 0-.692 2.055c-.39 1.253-.993 2.545-1.797 3.85-.43.395-1.13.676-1.904.793a7.55 7.55 0 0 1-.608.855c-11.712-1.67-23.989-.855-34.594 2.336l-1.03-.762c-.756-.042-1.46-.217-2-.532-1.214-1.011-2.263-2.116-3.389-3.536a17.083 17.083 0 0 0-1.469-1.907l-.29-.252-.252-.227a3.74 3.74 0 0 0-.756-.587c-1.107-.64-2.85-.828-4.31-.386-.702.2-1.277.554-1.634.95-.625.742-.459 1.607.41 2.253l.578.563a29.369 29.369 0 0 0 2.368 1.598 24.79 24.79 0 0 1 4.034 3.221c.2.449.221.918.007 1.357l.78.822c-9.574 4.225-16.075 10.284-18.34 17.106h-1.874c-.503.333-1.258.542-2.032.574a60.747 60.747 0 0 1-6.773-.668 42.568 42.568 0 0 0-3.496-.542l-1.046-.063c-2.02-.27-4.012.447-4.456 1.607-.212.48-.102.979.277 1.428.179.22.422.418.713.586.686.396 1.644.63 2.643.624l1.063.073c1.19.02 2.395-.01 3.602-.063a59.097 59.097 0 0 1 6.79.114c.547.124 1 .303 1.378.522.169.095.323.2.461.313l1.785.178c-.25 6.967 3.858 13.704 11.542 19.011-.29.232-.631.471-.881.636-.087.597-.247 1.046-.694 1.43-1.56.97-3.286 1.846-5.135 2.628-.988.388-1.94.794-2.873 1.253l-.808.47c-1.6.822-1.734 2.22-.325 3.16 1.644.845 4.072.751 5.491-.157l.755-.437a23.705 23.705 0 0 0 2.134-1.681 31.352 31.352 0 0 1 4.59-2.961c.683-.23 1.475-.334 2.268-.313l1.22-.627a58.144 58.144 0 0 0 5.597 2.38c8.226 3.002 17.688 4.494 27.356 4.316l.347.97c.255.079.484.179.683.295.354.202.612.455.763.729a11.93 11.93 0 0 1 .366 3.973 10.285 10.285 0 0 0-.099 2.086l.131.613c.094.555.492 1.056 1.124 1.462.886.512 1.952.73 3.012.657 2.105-.2 3.54-1.367 3.208-2.598l-.129-.575a12.245 12.245 0 0 0-.911-2.02c-.675-1.325-1.076-2.641-1.23-3.953.125-.45.482-.867 1.002-1.21l-.095-.992c11.839-1.377 22.263-5.193 29.432-10.763l1.516.439a9.324 9.324 0 0 1 2.304 0 40.72 40.72 0 0 1 5.613 2.326c.886.49 1.806.936 2.763 1.365l.867.313m5.399-.313c-.61.48-1.527.782-2.533.865-1.027.073-2.037-.073-2.885-.439l-.937-.353a36.165 36.165 0 0 1-2.78-1.377 42.439 42.439 0 0 0-5.541-2.305 9.147 9.147 0 0 0-2.251.01l-1.462-.447c-7.154 5.559-17.575 9.375-29.342 10.752l.078.939c-.54.353-.879.763-.986 1.2.136 1.282.556 2.608 1.194 3.91.38.658.69 1.334.93 2.035l.129.574c.35 1.28-1.122 2.49-3.334 2.71-1.119.063-2.217-.156-3.01-.615-.796-.5-1.194-1.022-1.306-1.585l-.131-.615a10.61 10.61 0 0 1 .097-2.106c.119-1.304-.014-2.629-.364-3.934-.14-.265-.393-.505-.728-.699a3.506 3.506 0 0 0-.646-.28l-.33-.939c-9.667.157-19.147-1.346-27.373-4.348a62.164 62.164 0 0 1-5.525-2.336l-1.147.603a6.389 6.389 0 0 0-2.234.293 31.01 31.01 0 0 0-4.556 2.942 23.359 23.359 0 0 1-2.152 1.688l-.752.44c-1.47.938-4.01 1.031-5.69.186-1.5-1.011-1.346-2.46.325-3.327l.787-.459a36.918 36.918 0 0 1 2.895-1.261 36.987 36.987 0 0 0 5.115-2.618c.395-.356.572-.794.425-1.231.502-.355.808-.573 1.095-.741-7.684-5.308-11.772-12.057-11.541-18.972l-1.691-.167a4.85 4.85 0 0 0-.485-.326 4.635 4.635 0 0 0-1.304-.497 61.077 61.077 0 0 0-6.771-.127c-1.19.064-2.412.085-3.602.066l-1.08-.066c-1.04 0-2.028-.247-2.742-.658a2.801 2.801 0 0 1-.741-.604c-.398-.457-.49-.989-.315-1.49.48-1.199 2.566-1.95 4.657-1.678l1.043.06c1.19.147 2.36.326 3.531.545 2.2.355 4.47.583 6.722.677.738-.031 1.455-.24 1.942-.563l1.819.01c2.3-6.8 8.767-12.86 18.305-17.063l-.761-.792c.23-.449.21-.898.01-1.324a24.468 24.468 0 0 0-3.997-3.203 28.578 28.578 0 0 1-2.385-1.607l-.581-.562c-.903-.668-1.053-1.566-.408-2.336.338-.429.95-.784 1.684-1.003 1.532-.447 3.35-.25 4.507.418.27.156.524.345.705.552l.307.262.288.252c.582.644 1.09 1.29 1.49 1.938 1.123 1.397 2.174 2.504 3.296 3.463.578.335 1.263.5 2.003.532l.957.762c10.625-3.183 22.882-4.006 34.505-2.306.233-.282.43-.562.59-.845.809-.136 1.472-.396 1.885-.782.785-1.293 1.407-2.577 1.798-3.828a9.904 9.904 0 0 1 .67-2.064l.376-.617c.357-.813 1.469-1.438 2.907-1.627a6.84 6.84 0 0 1 2.397.157c.43.115.81.27 1.124.453 1.116.645 1.487 1.643.819 2.52l-.355.583c-.468.626-1.039 1.251-1.666 1.868-1.073 1.168-1.967 2.399-2.627 3.64-.103.437.095.886.548 1.23l-.463.897c5.43 1.42 10.317 3.384 14.464 5.778 4.197 2.42 7.631 5.284 10.105 8.47l1.654-.273c.523.22 1.1.323 1.695.334 1.457-.073 2.986-.5 4.584-.97a64.1 64.1 0 0 1 2.23-.605 38.747 38.747 0 0 1 3.199-.958l1.008-.21c1.33-.355 2.881-.251 4.034.293.78.428 1.12.785 1.287 1.158.583 1.188-.634 2.419-2.705 2.743l-1.06.22c-1.169.175-2.376.31-3.581.406a59.535 59.535 0 0 0-6.746 1.136c-.557.24-.969.584-1.219.98l-1.494.324c3.01 6.706 1.699 13.807-3.721 19.993l1.372.563c.144.459.472.855.979 1.188 1.841.731 3.878 1.367 5.987 1.9 1.19.271 2.273.563 3.283.876l.848.407a4.7 4.7 0 0 1 1.017.426c.717.415 1.13.974 1.12 1.576.002.48-.282.96-.785 1.335" fill="#939393"></path><path d="M439.297 904.357c.136 4.903 3.062 9.71 8.269 13.59l13.06-8.51c.861-.52 1.145-1.273.728-1.95a2.186 2.186 0 0 0-.771-.7c-.51-.296-1.185-.486-1.938-.53l-19.348-1.9m22.202 3.108c.433.689.134 1.493-.765 2.033l-13.185 8.585-.036-.04c-5.28-3.902-8.26-8.783-8.38-13.736v-.062l.09.009 19.44 1.909c.78.05 1.484.251 2.018.56.354.205.634.457.818.742" fill="#939393"></path><path d="M475.96 907.914l6.03-.386 3.295-2.961-2.016-3.348-5.77-1.19-5.21 1.879-.683 3.473 4.353 2.533m-28.444 10.129l.036.04 13.185-8.583c.897-.542 1.198-1.345.763-2.035-.182-.286-.462-.537-.816-.741-.536-.31-1.24-.51-2.02-.561l-19.437-1.908-.09-.01v.062c.117 4.953 3.097 9.834 8.379 13.736m30.477 8.74l.09.008-3.413-11.407c-.116-.43-.457-.815-.952-1.1a3.918 3.918 0 0 0-1.289-.446c-1.225-.209-2.466-.073-3.383.376l-.054-.03-14.776 7.665-.072.02.072.041a49.08 49.08 0 0 0 3.303 1.389c6.152 2.242 13.219 3.45 20.474 3.483m20.85-41.896l-3.59-1.136-5.431 11.065.058.051c-.342.7-.012 1.43.872 1.942l.073.04.09.052.036-.063c.886.45 2.055.607 3.172.438l19.031-3.148.074-.02-.038-.041c-1.914-2.24-4.43-4.266-7.45-6.01-2.073-1.197-4.385-2.263-6.898-3.17m-.814 18.742c-1.04.25-1.794.772-2.025 1.41-.231.656.116 1.312.893 1.781l.542.272 16.114 6.623.073.02.053-.05c3.596-4.476 4.575-9.609 2.71-14.426l-.017-.052-18.251 4.392-.092.03m-57.788-4.755l19.72.636c1.243.053 2.43-.303 3.11-.91.645-.603.694-1.365.079-1.988l.053-.033-9.672-10.076-.054-.052-.053.032c-6.61 3.15-11.301 7.551-13.272 12.381l.089.01m47.256 27.282c8.332-1.176 15.841-3.953 21.204-7.82l.034-.044-17.44-5.58-.092.01c-1.064-.343-2.395-.32-3.422.063-1.057.388-1.649 1.065-1.59 1.785l-.055.031 1.198 11.504.163.05m-26.13-42.572l-.092.032 11.65 9.428.253.167.306.156.11-.001c.27.136.613.251.936.336 1.75.406 3.747-.085 4.442-1.096l7.575-10.617.017-.053-.088-.01c-8.505-1.084-17.434-.501-25.11 1.658m74.345 41.53c-1.236.951-3.577 1.136-5.2.428l-.957-.364a36.603 36.603 0 0 1-2.763-1.365 40.274 40.274 0 0 0-5.595-2.317 9.149 9.149 0 0 0-2.322-.01l-1.424-.448c-7.261 5.58-17.685 9.396-29.434 10.763l.005 1.001c-.52.344-.877.762-1.001 1.21.153 1.313.554 2.627 1.23 3.953.36.646.672 1.324.912 2.021l.127.575c.332 1.23-1.103 2.399-3.208 2.596-1.06.073-2.126-.143-2.885-.582-.758-.48-1.157-.98-1.25-1.535l-.132-.613a10.302 10.302 0 0 1 .099-2.088 11.88 11.88 0 0 0-.366-3.971c-.15-.275-.41-.527-.763-.73a3.294 3.294 0 0 0-.682-.293l-.277-.971c-9.739.178-19.2-1.314-27.427-4.316a58.923 58.923 0 0 1-5.56-2.358l-1.257.603c-.793-.019-1.585.085-2.268.315a31.443 31.443 0 0 0-4.59 2.961c-.699.615-1.4 1.17-2.134 1.68l-.755.438c-1.417.906-3.847 1.001-5.453.197-1.447-.98-1.313-2.378.287-3.2l.808-.47a37.571 37.571 0 0 1 2.873-1.253c1.85-.782 3.575-1.657 5.135-2.628.45-.384.607-.833.46-1.294.486-.3.825-.54 1.113-.709-7.683-5.37-11.79-12.107-11.558-19.043l-1.767-.21a3.312 3.312 0 0 0-.46-.312 5.064 5.064 0 0 0-1.345-.522 59.82 59.82 0 0 0-6.824-.114 59.422 59.422 0 0 1-3.6.063l-1.063-.073c-1 .007-1.959-.228-2.645-.624a2.55 2.55 0 0 1-.713-.586c-.379-.45-.49-.949-.277-1.428.446-1.16 2.436-1.879 4.456-1.607l1.046.063c1.17.134 2.342.311 3.496.542 2.216.344 4.485.573 6.773.668.774-.032 1.53-.24 2.033-.574l1.78.03c2.358-6.852 8.859-12.911 18.379-17.103l-.726-.855c.214-.439.192-.908-.007-1.357a24.718 24.718 0 0 0-4.034-3.221 29.037 29.037 0 0 1-2.366-1.598l-.58-.563c-.869-.646-1.035-1.511-.408-2.253.357-.397.93-.751 1.634-.95 1.458-.444 3.2-.253 4.31.386.268.156.5.338.681.544l.325.27.29.252a17.192 17.192 0 0 1 1.47 1.907c1.125 1.42 2.173 2.525 3.333 3.504.595.345 1.299.522 2.057.564l.92.74c10.713-3.169 22.99-3.983 34.613-2.283.323-.313.519-.595.697-.886.774-.117 1.474-.398 1.904-.794.804-1.304 1.408-2.596 1.797-3.849a9.69 9.69 0 0 1 .692-2.055l.355-.625c.337-.782 1.433-1.377 2.783-1.554.793-.084 1.585-.041 2.304.146.408.102.77.248 1.08.428.377.218.673.483.875.782.343.53.31 1.115-.082 1.637l-.358.583c-.465.628-1.037 1.253-1.646 1.859a17.97 17.97 0 0 0-2.644 3.67c-.105.459.077.918.53 1.283l-.465.876c5.477 1.477 10.37 3.439 14.515 5.834 4.195 2.421 7.627 5.287 10.09 8.477l1.764-.252c.505.209 1.1.325 1.73.335 1.476-.083 3.023-.522 4.64-.981a73.976 73.976 0 0 1 2.23-.605c1.023-.366 2.101-.677 3.182-.971l1.024-.197c1.277-.345 2.754-.24 3.855.27.728.406 1.08.753 1.248 1.117.548 1.147-.615 2.326-2.596 2.64l-1.06.218a45.21 45.21 0 0 1-3.564.396 59.64 59.64 0 0 0-6.781 1.137c-.61.27-1.04.624-1.29 1.024l-1.495.3c2.992 6.78 1.665 13.872-3.758 20.057l1.39.615c.148.458.492.866 1.034 1.22 1.858.74 3.896 1.378 6.025 1.898 1.173.282 2.252.573 3.245.876l.796.375c.443.148.77.286 1.048.447.689.397 1.078.939 1.07 1.525.001.46-.265.907-.733 1.262" fill="#CCEFFF"></path><path d="M108.968 378v-8.24l-.28-8.24.088-.015L113.921 378h1.975l5.16-16.51.088.015-.265 8.255V378h2.963v-21.463h-3.863l-5.026 17.512h-.089l-5.012-17.512h-3.847V378h2.963zm25.187-20.136v-2.86h-2.992v2.86h2.992zm0 20.136v-15.95h-2.992V378h2.992zm12.57.31c1.503 0 2.783-.516 3.84-1.548 1.056-1.032 1.564-2.3 1.525-3.803l-.03-.089h-2.682c0 .963-.256 1.732-.767 2.307-.51.575-1.14.862-1.887.862-1.15 0-1.963-.457-2.44-1.37-.476-.914-.714-2.089-.714-3.524v-2.196c0-1.415.238-2.585.715-3.509.476-.923 1.285-1.385 2.425-1.385.805 0 1.452.331 1.938.995.487.663.73 1.526.73 2.587h2.683l.044-.089c.03-1.71-.46-3.103-1.467-4.179-1.007-1.076-2.317-1.614-3.928-1.614-1.976 0-3.492.678-4.548 2.034-1.057 1.357-1.585 3.076-1.585 5.16v2.196c0 2.084.528 3.799 1.585 5.145 1.056 1.346 2.577 2.02 4.562 2.02zm14.426-.31v-11.365c.216-.679.528-1.204.936-1.578.408-.373.921-.56 1.54-.56l1.4.074.354-2.639a2.26 2.26 0 0 0-.486-.125 3.674 3.674 0 0 0-.604-.052c-.708 0-1.332.239-1.872.715-.541.477-.978 1.138-1.312 1.983l-.222-2.403h-2.727V378h2.993zm15.075.31c1.916 0 3.427-.676 4.533-2.027 1.105-1.352 1.658-3.094 1.658-5.226v-2.034c0-2.123-.555-3.865-1.666-5.226-1.11-1.361-2.624-2.042-4.54-2.042-1.926 0-3.442.683-4.548 2.05-1.105 1.365-1.658 3.105-1.658 5.218v2.034c0 2.132.553 3.874 1.658 5.226 1.106 1.35 2.627 2.027 4.563 2.027zm0-2.27c-1.091 0-1.902-.467-2.433-1.401-.53-.934-.796-2.128-.796-3.582v-2.034c0-1.445.266-2.634.796-3.568.531-.933 1.337-1.4 2.418-1.4 1.071 0 1.875.47 2.41 1.408.536.938.804 2.125.804 3.56v2.034c0 1.454-.268 2.648-.804 3.582-.535.934-1.334 1.4-2.395 1.4zm17.345 2.27c1.631 0 2.948-.413 3.95-1.239 1.003-.825 1.504-1.896 1.504-3.213 0-1.19-.405-2.165-1.216-2.926-.81-.762-2.051-1.443-3.722-2.042-1.19-.57-1.963-1.032-2.322-1.386-.359-.354-.538-.835-.538-1.444 0-.57.209-1.067.627-1.49.417-.422 1-.633 1.746-.633.757 0 1.35.273 1.777.818.427.545.641 1.197.641 1.953h2.875l.029-.088c.04-1.386-.427-2.543-1.4-3.472-.973-.928-2.28-1.393-3.922-1.393-1.572 0-2.842.43-3.81 1.29-.968.86-1.452 1.904-1.452 3.133 0 1.15.395 2.085 1.187 2.808.79.722 2.007 1.403 3.648 2.041 1.13.511 1.9.98 2.307 1.408.408.428.612.951.612 1.57 0 .63-.219 1.143-.656 1.54-.438.399-1.044.598-1.82.598-.787 0-1.445-.229-1.976-.686-.53-.457-.816-1.201-.855-2.233h-2.786l-.03.088c-.049 1.337.433 2.504 1.445 3.501 1.012.998 2.398 1.497 4.157 1.497zm17.39 0c1.1 0 2.073-.182 2.918-.546.845-.363 1.518-.83 2.02-1.4l-.944-1.858c-.53.502-1.09.882-1.68 1.143-.59.26-1.297.39-2.123.39-1.11 0-1.968-.45-2.572-1.348-.605-.9-.907-2.037-.907-3.413v-.634h8.58v-2.064c0-2.083-.487-3.741-1.46-4.975-.973-1.233-2.363-1.85-4.172-1.85-1.72 0-3.137.678-4.252 2.034-1.116 1.357-1.674 3.076-1.674 5.16v2.329c0 2.054.57 3.74 1.71 5.056 1.14 1.317 2.659 1.976 4.555 1.976zm2.329-9.803h-5.617c.06-1.288.349-2.352.87-3.192.52-.84 1.214-1.26 2.078-1.26.875 0 1.538.359 1.99 1.076.452.717.679 1.641.679 2.771v.605zM225.298 378v-11.365c.217-.679.529-1.204.936-1.578.408-.373.922-.56 1.54-.56l1.401.074.354-2.639c-.118-.05-.28-.09-.486-.125a3.674 3.674 0 0 0-.605-.052 2.75 2.75 0 0 0-1.872.715c-.54.477-.978 1.138-1.312 1.983l-.221-2.403h-2.727V378h2.992zm16.24 0l4.776-15.95h-3.08l-2.713 11.16-.25 1.237h-.09l-.25-1.238-2.742-11.159h-3.095l4.805 15.95h2.639zm13.498-20.136v-2.86h-2.993v2.86h2.993zm0 20.136v-15.95h-2.993V378h2.993zm12.569.31c1.503 0 2.783-.516 3.84-1.548 1.056-1.032 1.565-2.3 1.526-3.803l-.03-.089h-2.683c0 .963-.255 1.732-.766 2.307s-1.14.862-1.887.862c-1.15 0-1.963-.457-2.44-1.37-.477-.914-.715-2.089-.715-3.524v-2.196c0-1.415.238-2.585.715-3.509.477-.923 1.285-1.385 2.425-1.385.806 0 1.452.331 1.938.995.487.663.73 1.526.73 2.587h2.683l.044-.089c.03-1.71-.46-3.103-1.466-4.179-1.008-1.076-2.317-1.614-3.929-1.614-1.975 0-3.491.678-4.548 2.034-1.056 1.357-1.584 3.076-1.584 5.16v2.196c0 2.084.528 3.799 1.584 5.145 1.057 1.346 2.578 2.02 4.563 2.02zm17.197 0c1.101 0 2.074-.182 2.92-.546.844-.363 1.518-.83 2.019-1.4l-.944-1.858c-.53.502-1.09.882-1.68 1.143-.59.26-1.297.39-2.123.39-1.11 0-1.968-.45-2.572-1.348-.605-.9-.907-2.037-.907-3.413v-.634h8.58v-2.064c0-2.083-.487-3.741-1.46-4.975-.973-1.233-2.363-1.85-4.172-1.85-1.72 0-3.137.678-4.252 2.034-1.116 1.357-1.674 3.076-1.674 5.16v2.329c0 2.054.57 3.74 1.71 5.056 1.14 1.317 2.659 1.976 4.555 1.976zm2.33-9.803h-5.617c.06-1.288.35-2.352.87-3.192.52-.84 1.214-1.26 2.078-1.26.875 0 1.538.359 1.99 1.076.453.717.679 1.641.679 2.771v.605zm13.925 9.803c1.631 0 2.948-.413 3.95-1.239 1.003-.825 1.504-1.896 1.504-3.213 0-1.19-.405-2.165-1.216-2.926-.81-.762-2.052-1.443-3.722-2.042-1.19-.57-1.963-1.032-2.322-1.386-.359-.354-.538-.835-.538-1.444 0-.57.209-1.067.626-1.49.418-.422 1-.633 1.747-.633.757 0 1.35.273 1.777.818.427.545.64 1.197.64 1.953h2.875l.03-.088c.04-1.386-.428-2.543-1.4-3.472-.973-.928-2.28-1.393-3.922-1.393-1.572 0-2.842.43-3.81 1.29-.968.86-1.452 1.904-1.452 3.133 0 1.15.395 2.085 1.186 2.808.791.722 2.008 1.403 3.649 2.041 1.13.511 1.899.98 2.307 1.408.408.428.612.951.612 1.57 0 .63-.22 1.143-.656 1.54-.438.399-1.045.598-1.82.598-.787 0-1.446-.229-1.976-.686-.53-.457-.816-1.201-.855-2.233h-2.786l-.03.088c-.049 1.337.433 2.504 1.445 3.501 1.012.998 2.398 1.497 4.157 1.497zm25.433 0c.815 0 1.557-.226 2.226-.679a5.692 5.692 0 0 0 1.665-1.754c.02.354.064.705.133 1.054.069.35.157.705.265 1.069h3.022a10.316 10.316 0 0 1-.36-1.688 14.08 14.08 0 0 1-.111-1.79v-7.401c0-1.72-.49-3.044-1.467-3.973-.978-.928-2.253-1.393-3.825-1.393-1.632 0-2.963.48-3.995 1.437-1.032.959-1.524 2.052-1.474 3.28l.044.089 2.845.015c0-.737.219-1.352.656-1.843.437-.491 1.015-.737 1.732-.737.796 0 1.41.273 1.843.818.432.545.648 1.305.648 2.278v1.636h-2.226c-1.877 0-3.334.435-4.37 1.304-1.037.87-1.556 2.067-1.556 3.59 0 1.425.381 2.562 1.143 3.412.761.85 1.815 1.276 3.162 1.276zm.678-2.3c-.639 0-1.13-.221-1.474-.663-.344-.443-.516-1.022-.516-1.74 0-.845.253-1.56.759-2.145.506-.584 1.216-.877 2.13-.877h2.27v3.258a3.655 3.655 0 0 1-1.26 1.548 3.199 3.199 0 0 1-1.91.619zm17.374 2.3a6.562 6.562 0 0 0 2.418-.457l-.31-2.064c-.275.059-.513.103-.714.132-.202.03-.42.045-.656.045-.394 0-.713-.175-.959-.524-.245-.348-.368-.936-.368-1.761v-9.494h2.491v-2.137h-2.491v-3.965h-2.978v3.965h-2.078v2.137h2.078v9.494c0 1.602.312 2.774.936 3.516.624.742 1.501 1.113 2.631 1.113zm23.134 0c1.631 0 2.948-.413 3.95-1.239 1.003-.825 1.504-1.896 1.504-3.213 0-1.19-.405-2.165-1.216-2.926-.81-.762-2.052-1.443-3.722-2.042-1.19-.57-1.963-1.032-2.322-1.386-.359-.354-.538-.835-.538-1.444 0-.57.209-1.067.626-1.49.418-.422 1-.633 1.747-.633.757 0 1.35.273 1.777.818.427.545.64 1.197.64 1.953h2.875l.03-.088c.04-1.386-.428-2.543-1.4-3.472-.974-.928-2.28-1.393-3.922-1.393-1.572 0-2.842.43-3.81 1.29-.968.86-1.452 1.904-1.452 3.133 0 1.15.395 2.085 1.186 2.808.791.722 2.008 1.403 3.649 2.041 1.13.511 1.899.98 2.307 1.408.408.428.611.951.611 1.57 0 .63-.218 1.143-.655 1.54-.438.399-1.045.598-1.821.598-.786 0-1.445-.229-1.975-.686-.531-.457-.816-1.201-.855-2.233h-2.786l-.03.088c-.049 1.337.433 2.504 1.445 3.501 1.012.998 2.398 1.497 4.157 1.497zm17.168 0c1.504 0 2.784-.516 3.84-1.548 1.057-1.032 1.565-2.3 1.526-3.803l-.03-.089h-2.683c0 .963-.255 1.732-.766 2.307s-1.14.862-1.887.862c-1.15 0-1.963-.457-2.44-1.37-.476-.914-.715-2.089-.715-3.524v-2.196c0-1.415.239-2.585.715-3.509.477-.923 1.285-1.385 2.425-1.385.806 0 1.452.331 1.939.995.486.663.73 1.526.73 2.587h2.682l.045-.089c.03-1.71-.46-3.103-1.467-4.179-1.007-1.076-2.317-1.614-3.929-1.614-1.975 0-3.49.678-4.547 2.034-1.057 1.357-1.585 3.076-1.585 5.16v2.196c0 2.084.528 3.799 1.585 5.145 1.056 1.346 2.577 2.02 4.562 2.02zm15.267 0c.815 0 1.557-.226 2.226-.679a5.692 5.692 0 0 0 1.665-1.754c.02.354.064.705.133 1.054.069.35.157.705.265 1.069h3.022a10.316 10.316 0 0 1-.36-1.688 14.08 14.08 0 0 1-.111-1.79v-7.401c0-1.72-.49-3.044-1.467-3.973-.978-.928-2.253-1.393-3.825-1.393-1.632 0-2.963.48-3.995 1.437-1.032.959-1.524 2.052-1.474 3.28l.044.089 2.845.015c0-.737.218-1.352.656-1.843.437-.491 1.015-.737 1.732-.737.796 0 1.41.273 1.843.818.432.545.648 1.305.648 2.278v1.636h-2.226c-1.877 0-3.334.435-4.37 1.304-1.037.87-1.556 2.067-1.556 3.59 0 1.425.381 2.562 1.143 3.412.761.85 1.815 1.276 3.162 1.276zm.678-2.3c-.639 0-1.13-.221-1.474-.663-.344-.443-.516-1.022-.516-1.74 0-.845.253-1.56.759-2.145.506-.584 1.216-.877 2.13-.877h2.27v3.258a3.655 3.655 0 0 1-1.26 1.548 3.199 3.199 0 0 1-1.91.619zM416.94 378v-22.996h-2.993V378h2.993zm12.79.31c1.1 0 2.074-.182 2.919-.546.845-.363 1.518-.83 2.02-1.4l-.944-1.858c-.53.502-1.09.882-1.68 1.143-.59.26-1.298.39-2.123.39-1.11 0-1.968-.45-2.573-1.348-.604-.9-.906-2.037-.906-3.413v-.634h8.58v-2.064c0-2.083-.487-3.741-1.46-4.975-.973-1.233-2.364-1.85-4.172-1.85-1.72 0-3.137.678-4.253 2.034-1.115 1.357-1.673 3.076-1.673 5.16v2.329c0 2.054.57 3.74 1.71 5.056 1.14 1.317 2.658 1.976 4.555 1.976zm2.33-9.803h-5.617c.059-1.288.349-2.352.87-3.192.52-.84 1.213-1.26 2.078-1.26.875 0 1.538.359 1.99 1.076.452.717.678 1.641.678 2.771v.605z" fill="#FFF" fill-rule="nonzero"></path></g></svg>