<svg viewBox="0 0 1400 1000" xmlns="http://www.w3.org/2000/svg" xmlns:xlink="http://www.w3.org/1999/xlink"><defs><path id="path-1" d="M0 0h1431.4v1011.5H0z"></path></defs><g transform="translate(-16.000000, 0.000000)" fill="none" fill-rule="evenodd"><mask id="mask-2" fill="#fff"><use xlink:href="#path-1"></use></mask><use fill="#D8D8D8" xlink:href="#path-1"></use><g mask="url(#mask-2)"><g transform="translate(-11.900000, 0.000000)"><path fill="#FAAF40" d="M11.156 1011.968h1431.213V.001H11.156z"></path><path fill="#EA9C34" d="M261.506 202.949l-.463 82.16 44.32-25.589 387.858 225.4 53.657-30.979L359.02 228.543l44.32-25.589zm142.295-82.156l-.461 82.161 44.319-25.588 387.857 225.4 53.659-30.979-387.86-225.398 44.32-25.589zm142.297-82.155l-.463 82.161 44.319-25.589 387.859 225.398 53.659-30.977L643.611 64.233l44.321-25.589z"></path><path fill="#FFF8E3" d="M960.894 0L262.703 405.744l1050.01 606.224h129.655V0z"></path><path fill="#EA9C34" d="M22.593 1040.161l53.657 30.979 353.967-205.704-52.101-31.882z"></path><path fill="#8C4F04" d="M530.261 549.177l-.091 31.623-44.319-25.588.092-31.624zm97.976 56.565l-.09 31.625-44.319-25.588.09-31.625zM196.059 805.553l-.09 31.624-53.656-30.979.091-31.624z"></path><path fill="#CC801B" d="M583.918 580.156l-.09 31.625-387.859 225.396.09-31.622z"></path><path fill="#FFD592" d="M627.774 523.583l.463 82.159-44.319-25.588-387.859 225.399-53.657-30.977 387.859-225.399-44.319-25.589z"></path><path fill="#8C4F04" d="M672.207 631.076l-.09 31.623-44.319-25.588.09-31.624zm97.976 56.565l-.09 31.626-44.319-25.589.09-31.625zM338.006 887.453l-.09 31.623-53.656-30.979.091-31.625z"></path><path fill="#CC801B" d="M725.864 662.053l-.09 31.625-387.858 225.396.09-31.621z"></path><path fill="#FFD592" d="M769.721 605.482l.462 82.159-44.319-25.588-387.858 225.4-53.657-30.979 387.858-225.398-44.321-25.589z"></path><path fill="#8C4F04" d="M814.3 713.123l-.09 31.623-44.319-25.588.09-31.624zm97.976 56.567l-.09 31.624-44.319-25.589.09-31.623zM480.099 969.501l-.09 31.624-53.658-30.979.091-31.625z"></path><path fill="#CC801B" d="M867.957 744.102l-.09 31.623-387.858 225.398.09-31.622z"></path><path fill="#FFD592" d="M911.814 687.529l.462 82.161-44.319-25.588-387.858 225.399-53.659-30.979L814.3 713.125l-44.321-25.589z"></path><path fill="#8C4F04" d="M956.247 795.02l-.09 31.625-44.32-25.588.091-31.623zm97.976 56.57l-.09 31.623-44.319-25.588.09-31.624z"></path><path fill="#CC801B" d="M1009.902 826.001l-.09 31.624-387.857 225.397.09-31.624z"></path><path fill="#FFD592" d="M1053.76 769.427l.461 82.161-44.319-25.589-387.857 225.399-53.659-30.977L956.247 795.02l-44.321-25.586z"></path><path fill="#8C4F04" d="M1098.457 877.163l-.09 31.625-44.319-25.589.09-31.625zm97.978 56.567l-.091 31.624-44.319-25.589.091-31.623z"></path><path fill="#FFD592" d="M1195.97 851.569l.463 82.161-44.319-25.588-387.859 225.397-53.658-30.977 387.86-225.399-44.321-25.589z"></path><path fill="#8C4F04" d="M1240.713 959.278l-.09 31.625-44.318-25.589.09-31.625zm97.977 56.568l-.09 31.624-44.319-25.589.09-31.622zM245.825 384.928l-.09 31.623-44.319-25.588.09-31.624zm97.976 56.565l-.09 31.625-44.319-25.588.09-31.625z"></path><path fill="#8C4F04" d="M388.037 467.068l-.09 31.624-44.319-25.589.09-31.623zm97.976 56.566l-.09 31.623-44.319-25.588.09-31.623zM53.835 723.447l-.09 31.623L.088 724.091l.09-31.625z"></path><path fill="#CC801B" d="M441.694 498.047l-.09 31.624L53.746 755.069l.09-31.622z"></path><path fill="#FFD592" d="M485.551 441.473l.462 82.161-44.319-25.588L53.835 723.445.177 692.466l387.86-225.398-44.321-25.588z"></path><path fill="#FFD592" d="M627.774 523.583l.463 82.159-44.319-25.588-387.859 225.399-53.657-30.977 387.859-225.399-44.319-25.589z"></path><path fill="#FFD592" d="M769.721 605.482l.462 82.159-44.319-25.588-387.858 225.4-53.657-30.979 387.858-225.398-44.321-25.589z"></path><path fill="#FFD592" d="M911.814 687.529l.462 82.161-44.319-25.588-387.858 225.399-53.659-30.979L814.3 713.125l-44.321-25.589z"></path><path fill="#FFD592" d="M1053.76 769.427l.461 82.161-44.319-25.589-387.857 225.399-53.659-30.977L956.247 795.02l-44.321-25.586z"></path><path fill="#FFD592" d="M1195.97 851.569l.463 82.161-44.319-25.588-387.859 225.397-53.658-30.977 387.86-225.399-44.321-25.589zM485.551 441.473l.462 82.161-44.319-25.588L53.835 723.445.177 692.466l387.86-225.398-44.321-25.588z"></path><path fill="#FAAF40" d="M83.278 541.55l16.57-9.628v-62.161l-16.57 9.629z"></path><path fill="#D3862A" d="M83.278 1066.674l16.57-9.631v-62.16l-16.57 9.63z"></path><path d="M925.88 215.381h-23.11l-5.28 18.33h-10.26l22.313-72.517h9.76l22.115 72.517h-10.26l-5.279-18.33zm-20.77-8.017h18.478l-9.064-31.676h-.3l-9.113 31.676zm50.63 26.346v-72.516h19.922c7.703 0 13.986 2.905 18.852 8.716 4.863 5.81 7.296 13.282 7.296 22.413v10.308c0 9.165-2.433 16.637-7.296 22.413-4.866 5.779-11.149 8.667-18.852 8.667H955.74zm10.11-64.745v57.076h9.464c5.08 0 9.088-2.175 12.027-6.525 2.938-4.349 4.408-9.977 4.408-16.885v-10.409c0-6.839-1.47-12.425-4.408-16.758-2.939-4.333-6.948-6.5-12.027-6.5h-9.464zm70.762 48.708l.997 4.233h.299l1.045-4.184 14.792-56.528h10.708l-21.814 72.517h-9.761l-21.766-72.517h10.758zm70.777-2.292h-23.11l-5.28 18.33h-10.26l22.313-72.517h9.76l22.115 72.517h-10.26l-5.278-18.33zm-20.77-8.017h18.478l-9.064-31.676h-.3l-9.113 31.676zm98.592 26.347h-10.061l-27.492-53.939-.299.1v53.839h-10.11v-72.517h10.11l27.492 53.79.299-.099v-53.691h10.061zm62.139-22.013l.15.297c-.035 7.239-1.961 12.842-5.78 16.81-3.817 3.968-9.213 5.951-16.185 5.951-7.106 0-12.784-2.39-17.034-7.172-4.25-4.78-6.375-11.454-6.375-20.02v-20.122c0-8.566 2.1-15.257 6.3-20.072 4.201-4.814 9.804-7.221 16.81-7.221 7.106 0 12.566 1.943 16.384 5.827 3.82 3.885 5.779 9.563 5.88 17.034l-.15.298h-9.563c-.1-5.279-1.146-9.163-3.138-11.654-1.993-2.49-5.13-3.735-9.413-3.735-4.152 0-7.371 1.676-9.663 5.03-2.29 3.353-3.436 8.135-3.436 14.343v20.271c0 6.309 1.17 11.14 3.51 14.493 2.342 3.354 5.638 5.03 9.888 5.03 4.184 0 7.245-1.22 9.189-3.66 1.941-2.441 2.946-6.35 3.012-11.728h9.613zm56.037-11.656h-26.896v25.999h31.178v7.67h-41.288v-72.517h40.989v7.771h-30.879v23.358h26.896zm17.768 33.668v-72.516h19.922c7.703 0 13.986 2.905 18.852 8.716 4.863 5.81 7.296 13.282 7.296 22.413v10.308c0 9.165-2.433 16.637-7.296 22.413-4.866 5.779-11.149 8.667-18.852 8.667h-19.922zm10.11-64.745v57.076h9.464c5.08 0 9.088-2.175 12.027-6.525 2.938-4.349 4.408-9.977 4.408-16.885v-10.409c0-6.839-1.47-12.425-4.408-16.758-2.939-4.333-6.948-6.5-12.027-6.5h-9.464zM778.872 338.363v-72.517h19.922c7.703 0 13.986 2.905 18.852 8.716 4.863 5.81 7.296 13.282 7.296 22.413v10.308c0 9.165-2.433 16.637-7.296 22.413-4.866 5.779-11.149 8.667-18.852 8.667h-19.922zm10.11-64.746v57.075h9.464c5.08 0 9.088-2.174 12.027-6.524 2.938-4.349 4.408-9.977 4.408-16.885v-10.409c0-6.839-1.47-12.425-4.408-16.758-2.939-4.333-6.948-6.5-12.027-6.5h-9.464zm89.218 31.077h-26.896v25.998h31.178v7.671h-41.288v-72.517h40.989v7.771h-30.879v23.358H878.2zm27.946 5.08v28.589h-10.11v-72.517h23.807c6.773 0 12.085 2.018 15.937 6.052 3.853 4.034 5.777 9.338 5.777 15.912 0 6.608-1.924 11.92-5.777 15.938-3.852 4.018-9.164 6.026-15.937 6.026h-13.697zm0-7.769h13.697c3.818 0 6.706-1.336 8.666-4.009 1.959-2.674 2.938-6.035 2.938-10.086 0-4.117-.97-7.529-2.914-10.235-1.941-2.705-4.838-4.058-8.69-4.058h-13.697v28.388zm60.52 28.687h28.29v7.671h-38.4v-72.517h10.11zm85.365-18.577c0 8.6-2.223 15.298-6.674 20.097-4.449 4.798-10.409 7.196-17.879 7.196-7.37 0-13.23-2.398-17.581-7.196-4.35-4.799-6.525-11.497-6.525-20.097v-19.92c0-8.569 2.183-15.275 6.55-20.122 4.366-4.848 10.217-7.272 17.556-7.272 7.438 0 13.39 2.424 17.855 7.272 4.466 4.847 6.698 11.553 6.698 20.121v19.92zm-10.06-20.07c0-6.309-1.262-11.1-3.784-14.37-2.525-3.27-6.093-4.905-10.709-4.905-4.549 0-8.036 1.636-10.458 4.905-2.424 3.27-3.636 8.061-3.636 14.37v20.07c0 6.375 1.22 11.206 3.66 14.494 2.44 3.286 5.92 4.93 10.434 4.93 4.648 0 8.227-1.635 10.732-4.906 2.508-3.27 3.76-8.11 3.76-14.518v-20.07zm47.313 9.013h.297l14.843-35.212h11.206l-21.316 46.418v26.099h-10.061v-26.746l-21.068-45.771h11.305zm50.056-35.212l16.934 59.168h.299l16.983-59.168h13.049v72.517h-10.011v-27.841l.896-27.89-.298-.051-17.432 55.782h-6.674l-17.382-55.731-.298.049.945 27.841v27.841h-10.009v-72.517zm105.346 38.848h-26.896v25.998h31.178v7.671h-41.288v-72.517h40.989v7.771h-30.879v23.358h26.896zm65.73 33.669h-10.061l-27.492-53.939-.299.1v53.839h-10.11v-72.517h10.11l27.492 53.79.299-.099v-53.691h10.061zm59.803-64.746h-18.627v64.746h-10.11v-64.746h-18.527v-7.771h47.264zM870.386 424.786c0-3.42-.963-6.226-2.888-8.417-1.926-2.191-5.297-4.117-10.112-5.778-6.905-2.091-12.2-4.821-15.886-8.192-3.686-3.37-5.528-7.827-5.528-13.373 0-5.71 2.05-10.4 6.15-14.069 4.1-3.67 9.37-5.505 15.814-5.505 6.706 0 12.11 2.117 16.21 6.352 4.101 4.233 6.085 9.338 5.952 15.313l-.1.3h-9.712c0-4.216-1.086-7.645-3.262-10.285-2.174-2.639-5.238-3.96-9.189-3.96-3.752 0-6.648 1.105-8.69 3.313-2.043 2.207-3.063 5.022-3.063 8.441 0 3.089 1.094 5.687 3.286 7.795 2.193 2.11 5.81 4.025 10.857 5.752 6.608 2.059 11.639 4.864 15.091 8.417 3.453 3.553 5.18 8.151 5.18 13.796 0 5.944-2.041 10.659-6.126 14.145-4.084 3.487-9.446 5.23-16.086 5.23-6.475 0-12.128-1.918-16.96-5.753-4.83-3.836-7.163-9.238-6.996-16.212l.098-.299h9.712c0 4.981 1.304 8.667 3.91 11.057 2.606 2.39 6.018 3.587 10.236 3.587 3.784 0 6.747-1.056 8.89-3.164 2.141-2.108 3.212-4.938 3.212-8.491zm65.731-46.517H917.49v64.746h-10.11v-64.746h-18.526v-7.771h47.263zm25.296 33.519v31.227h-10.11v-72.466h22.562c6.872 0 12.184 1.776 15.938 5.33 3.752 3.55 5.627 8.647 5.627 15.29 0 3.784-.872 7.088-2.615 9.91-1.742 2.822-4.258 5.03-7.546 6.623 3.62 1.23 6.234 3.312 7.846 6.251 1.61 2.94 2.415 6.566 2.415 10.882v6.326c0 2.225.223 4.29.672 6.201.448 1.91 1.22 3.41 2.315 4.507v1.146h-10.409c-1.129-1.097-1.85-2.747-2.166-4.956a49.391 49.391 0 0 1-.472-6.999v-6.125c0-4.05-.922-7.255-2.765-9.611-1.842-2.358-4.375-3.536-7.595-3.536h-13.697zm0-7.72h11.954c4.084 0 7.096-1.105 9.04-3.313 1.942-2.207 2.913-5.337 2.913-9.388 0-4.151-.947-7.371-2.839-9.663-1.892-2.29-4.765-3.435-8.616-3.435h-12.452v25.799zm81.103 20.617h-23.11l-5.28 18.33h-10.259l22.313-72.517h9.76l22.114 72.517h-10.259l-5.279-18.33zm-20.768-8.017h18.477l-9.064-31.676h-.3l-9.113 31.676zm86.353-38.399h-18.627v64.746h-10.11v-64.746h-18.528v-7.771h47.265zm52.088 31.077h-26.896v25.998h31.178v7.671h-41.288v-72.517h40.989v7.771h-30.879v23.358h26.896zm63.588 23.358c-1.659 2.923-4.357 5.546-8.093 7.87-3.735 2.324-8.507 3.486-14.318 3.486-7.604 0-13.73-2.307-18.379-6.922-4.647-4.615-6.973-11.19-6.973-19.723v-21.516c0-8.401 2.208-14.909 6.625-19.522 4.417-4.616 10.277-6.925 17.581-6.925 7.404 0 13.065 1.869 16.983 5.604 3.919 3.735 6.01 8.972 6.275 15.713l-.099.299h-9.562c-.167-4.515-1.353-7.953-3.562-10.309-2.208-2.358-5.502-3.536-9.885-3.536-4.417 0-7.903 1.585-10.46 4.755-2.557 3.172-3.835 7.78-3.835 13.821v21.616c0 6.176 1.37 10.883 4.109 14.12 2.74 3.237 6.466 4.855 11.182 4.855 3.453 0 6.134-.588 8.043-1.768 1.909-1.178 3.328-2.68 4.258-4.507V413.63h-12.401v-7.322h22.511v26.396zm19.239 10.311h10.061v-72.516h-10.061zm65.909-33.669h-26.894v25.998h31.178v7.671h-41.288v-72.517h40.989v7.771h-30.879v23.358h26.894zm50.919 15.44c0-3.42-.964-6.226-2.889-8.417-1.926-2.191-5.297-4.117-10.111-5.778-6.906-2.091-12.201-4.821-15.887-8.192-3.685-3.37-5.528-7.827-5.528-13.373 0-5.71 2.05-10.4 6.15-14.069 4.1-3.67 9.37-5.505 15.814-5.505 6.706 0 12.11 2.117 16.211 6.352 4.1 4.233 6.084 9.338 5.952 15.313l-.1.3h-9.713c0-4.216-1.086-7.645-3.262-10.285-2.174-2.639-5.238-3.96-9.188-3.96-3.752 0-6.65 1.105-8.69 3.313-2.044 2.207-3.064 5.022-3.064 8.441 0 3.089 1.094 5.687 3.286 7.795 2.193 2.11 5.81 4.025 10.858 5.752 6.608 2.059 11.638 4.864 15.09 8.417 3.453 3.553 5.18 8.151 5.18 13.796 0 5.944-2.041 10.659-6.126 14.145-4.084 3.487-9.446 5.23-16.086 5.23-6.475 0-12.128-1.918-16.959-5.753-4.831-3.836-7.164-9.238-6.997-16.212l.098-.299h9.713c0 4.981 1.303 8.667 3.91 11.057 2.606 2.39 6.018 3.587 10.235 3.587 3.784 0 6.748-1.056 8.89-3.164 2.142-2.108 3.213-4.938 3.213-8.491z" fill="#5B534C"></path><path d="M960.228 528.255h-6.934l-1.583 5.5h-3.079l6.695-21.756h2.927l6.635 21.755h-3.078l-1.583-5.5zm-6.23-2.406h5.541l-2.718-9.501h-.09l-2.734 9.501zm23.612-5.707l-1.419-.075c-.627 0-1.148.19-1.56.568-.414.38-.73.911-.95 1.598v11.521h-3.034v-16.167h2.764l.225 2.436c.34-.857.782-1.526 1.331-2.01a2.776 2.776 0 0 1 1.897-.725c.2 0 .403.019.612.053.21.035.374.076.493.127l-.359 2.674zm10.743 11.625c.756 0 1.394-.293 1.912-.874.519-.583.777-1.363.777-2.34h2.72l.03.09c.04 1.524-.475 2.81-1.546 3.856-1.071 1.046-2.368 1.568-3.893 1.568-2.011 0-3.553-.682-4.624-2.047-1.071-1.363-1.607-3.102-1.607-5.214v-2.227c0-2.111.536-3.854 1.607-5.229 1.07-1.374 2.608-2.062 4.608-2.062 1.634 0 2.962.546 3.984 1.637 1.02 1.09 1.516 2.502 1.485 4.235l-.044.09h-2.72c0-1.076-.246-1.95-.74-2.622-.492-.673-1.147-1.01-1.965-1.01-1.154 0-1.973.47-2.456 1.406-.485.936-.726 2.122-.726 3.555v2.227c0 1.454.241 2.645.726 3.572.483.925 1.307 1.389 2.472 1.389zm14.567-12.014c.449-.777 1.001-1.382 1.66-1.814a3.904 3.904 0 0 1 2.196-.651c1.453 0 2.584.539 3.391 1.615.808 1.074 1.21 2.728 1.21 4.959v9.892h-3.032v-9.921c0-1.484-.218-2.553-.651-3.205-.432-.652-1.078-.979-1.935-.979-.617 0-1.168.177-1.65.53-.483.354-.88.84-1.189 1.457v12.118h-3.033v-23.309h3.033v9.308zm18.08 14.001h-3.033v-16.167H1021v16.167zm0-20.41h-3.033v-2.899H1021v2.899zm10.71.224v4.02h2.524v2.165h-2.524v9.624c0 .836.124 1.431.374 1.785.248.353.572.53.97.53.24 0 .461-.015.665-.044.204-.03.445-.075.724-.136l.315 2.093a6.282 6.282 0 0 1-1.144.336 6.751 6.751 0 0 1-1.308.126c-1.144 0-2.033-.376-2.665-1.127-.633-.753-.95-1.94-.95-3.563v-9.624h-2.107v-2.166h2.106v-4.019h3.02zm14.059 20.499c-1.923 0-3.462-.667-4.618-2.001-1.154-1.335-1.732-3.043-1.732-5.125v-2.362c0-2.111.564-3.854 1.695-5.229 1.13-1.374 2.567-2.062 4.311-2.062 1.833 0 3.242.625 4.228 1.875.986 1.251 1.48 2.93 1.48 5.044v2.09h-8.696v.644c0 1.394.306 2.548.92 3.459.611.911 1.48 1.367 2.605 1.367.837 0 1.554-.133 2.153-.396a6.056 6.056 0 0 0 1.703-1.158l.955 1.882c-.506.578-1.19 1.05-2.046 1.42-.857.368-1.843.552-2.958.552zm-.344-14.448c-.877 0-1.58.426-2.106 1.278-.529.852-.823 1.93-.882 3.235h5.693v-.614c0-1.145-.23-2.08-.689-2.808-.457-.728-1.13-1.091-2.016-1.091zm17.476 12.148c.757 0 1.394-.293 1.913-.874.516-.583.777-1.363.777-2.34h2.718l.03.09c.04 1.524-.476 2.81-1.546 3.856-1.071 1.046-2.369 1.568-3.892 1.568-2.013 0-3.554-.682-4.624-2.047-1.07-1.363-1.606-3.102-1.606-5.214v-2.227c0-2.111.535-3.854 1.606-5.229 1.07-1.374 2.606-2.062 4.609-2.062 1.634 0 2.961.546 3.981 1.637 1.022 1.09 1.517 2.502 1.488 4.235l-.046.09h-2.718c0-1.076-.247-1.95-.74-2.622-.493-.673-1.15-1.01-1.965-1.01-1.156 0-1.976.47-2.458 1.406-.483.936-.725 2.122-.725 3.555v2.227c0 1.454.242 2.645.725 3.572.482.925 1.307 1.389 2.473 1.389zm15.474-18.199v4.02h2.524v2.165h-2.524v9.624c0 .836.124 1.431.374 1.785.248.353.572.53.97.53.24 0 .461-.015.665-.044.204-.03.445-.075.724-.136l.315 2.093a6.282 6.282 0 0 1-1.144.336 6.751 6.751 0 0 1-1.308.126c-1.144 0-2.033-.376-2.665-1.127-.633-.753-.95-1.94-.95-3.563v-9.624h-2.107v-2.166h2.106v-4.019h3.02zm11.444 20.186h-3.033v-16.167h3.033v16.167zm0-20.41h-3.033v-2.899h3.033v2.899zm9.59 4.243l.163 2.39c.449-.846 1.017-1.506 1.703-1.978a4.011 4.011 0 0 1 2.331-.711c1.414 0 2.516.524 3.303 1.569.787 1.046 1.18 2.669 1.18 4.87v10.027h-3.033v-9.996c0-1.504-.214-2.565-.642-3.182-.429-.617-1.077-.927-1.944-.927-.617 0-1.164.192-1.642.575-.48.384-.867.904-1.166 1.562v11.968h-3.033v-16.167h2.78zm14.553 7.441c0-2.32.475-4.19 1.427-5.61.95-1.42 2.273-2.13 3.966-2.13.817 0 1.535.192 2.152.576.617.383 1.146.939 1.584 1.666l.223-1.943h2.616v16.092c0 2.073-.55 3.691-1.652 4.856-1.1 1.166-2.637 1.749-4.609 1.749a8.334 8.334 0 0 1-2.174-.315 8.326 8.326 0 0 1-2.069-.851l.643-2.272a6.78 6.78 0 0 0 1.673.725 6.827 6.827 0 0 0 1.897.261c1.106 0 1.926-.353 2.458-1.06.534-.708.799-1.743.799-3.108V532.2c-.428.617-.938 1.083-1.532 1.398-.591.313-1.271.469-2.038.469-1.683 0-2.999-.644-3.946-1.935-.945-1.29-1.418-2.995-1.418-5.117v-1.987zm3.033 1.987c0 1.435.248 2.577.747 3.43.498.85 1.28 1.278 2.346 1.278.657 0 1.217-.17 1.68-.509.463-.34.839-.817 1.128-1.435v-8.052c-.298-.638-.677-1.144-1.136-1.517-.457-.374-1.004-.56-1.642-.56-1.056 0-1.841.497-2.354 1.494-.512.996-.769 2.291-.769 3.884v1.987zm18.443 6.38l-1.897 4.408h-1.807l.881-4.513v-2.734h2.823z" fill="#58595B"></path><path d="M1265.864 612.525c0 22.238-4.263 39.27-12.789 51.097-8.527 11.827-20.097 17.74-34.714 17.74-14.695 0-26.343-5.933-34.949-17.8-8.603-11.865-12.906-28.877-12.906-51.037v-38.78c0-22.081 4.282-39.093 12.849-51.038 8.564-11.944 20.155-17.916 34.772-17.916 14.614 0 26.225 5.972 34.83 17.916 8.604 11.945 12.907 28.957 12.907 51.038v38.78zm-23.81-42.199c0-15.558-2.064-27.305-6.188-35.243-4.126-7.937-10.038-11.905-17.74-11.905-7.7 0-13.576 3.989-17.622 11.965-4.047 7.975-6.07 19.703-6.07 35.183v45.499c0 15.558 2.062 27.346 6.188 35.362 4.125 8.015 10.038 12.022 17.74 12.022 7.622 0 13.477-3.988 17.562-11.963 4.087-7.976 6.13-19.783 6.13-35.421v-45.499zm61.98 12.142h16.385c7.935 0 13.73-2.652 17.386-7.956 3.653-5.304 5.48-12.475 5.48-21.512 0-9.272-1.905-16.562-5.716-21.866-3.812-5.304-9.37-7.956-16.68-7.956-6.678 0-12.16 2.652-16.442 7.956-4.284 5.304-6.424 12.28-6.424 20.922h-22.75l-.353-.707c-.314-13.28 3.85-24.36 12.495-33.238 8.643-8.881 19.645-13.32 33.004-13.32 14.144 0 25.46 4.223 33.945 12.67 8.489 8.448 12.732 20.373 12.732 35.775 0 7.621-2.005 14.91-6.013 21.865-4.007 6.953-9.704 12.239-17.09 15.853 8.643 3.222 15.048 8.429 19.213 15.618 4.164 7.19 6.246 15.5 6.246 24.93 0 15.559-4.576 27.758-13.73 36.6-9.155 8.84-20.884 13.26-35.186 13.26-13.358 0-24.655-4.225-33.888-12.672-9.232-8.447-13.693-20.215-13.379-35.302l.354-.707h22.867c0 9.037 2.24 16.384 6.72 22.042 4.478 5.657 10.371 8.486 17.68 8.486 7.7 0 13.732-2.73 18.093-8.192 4.36-5.46 6.542-13.221 6.542-23.28 0-10.686-2.083-18.564-6.248-23.632-4.165-5.07-10.45-7.604-18.858-7.604h-16.385v-18.033z" fill="#EA9C34"></path><path d="M915.797 573.05c0-2.58.464-4.655 1.395-6.222.932-1.57 2.245-2.355 3.938-2.355.758 0 1.431.17 2.024.508.594.339 1.104.827 1.532 1.464v-8.814h3.018v23.308h-2.644l-.224-1.853c-.429.707-.954 1.245-1.576 1.614-.624.368-1.338.552-2.146.552-1.683 0-2.99-.716-3.922-2.15-.931-1.435-1.395-3.348-1.395-5.738v-.314zm3.033.314c0 1.703.243 3.053.73 4.05.489.996 1.262 1.494 2.318 1.494.656 0 1.217-.18 1.68-.54.463-.358.84-.861 1.128-1.509V569c-.289-.666-.665-1.195-1.129-1.582-.462-.39-1.013-.584-1.65-.584-1.056 0-1.833.573-2.331 1.72-.498 1.145-.746 2.643-.746 4.496v.314zm21.675 7.888c-1.923 0-3.462-.666-4.618-2-1.156-1.335-1.732-3.044-1.732-5.126v-2.362c0-2.111.565-3.854 1.695-5.229 1.13-1.373 2.567-2.062 4.311-2.062 1.833 0 3.242.626 4.228 1.875.986 1.251 1.48 2.931 1.48 5.044v2.091h-8.696v.643c0 1.394.306 2.548.918 3.46.613.91 1.482 1.366 2.607 1.366.837 0 1.554-.133 2.153-.396a6.056 6.056 0 0 0 1.703-1.158l.955 1.882c-.508.578-1.19 1.05-2.046 1.42-.857.368-1.843.552-2.958.552zm-.344-14.448c-.877 0-1.58.427-2.108 1.278-.527.852-.82 1.93-.88 3.235h5.693v-.613c0-1.146-.23-2.081-.689-2.809-.457-.727-1.13-1.091-2.016-1.091zm16.325 9.278l.255 1.257h.09l.254-1.257 2.749-11.31h3.123l-4.842 16.167h-2.674l-4.871-16.167h3.138zm17.106 5.17c-1.921 0-3.462-.666-4.616-2-1.156-1.335-1.734-3.044-1.734-5.126v-2.362c0-2.111.566-3.854 1.697-5.229 1.13-1.373 2.567-2.062 4.31-2.062 1.832 0 3.241.626 4.229 1.875.986 1.251 1.479 2.931 1.479 5.044v2.091h-8.697v.643c0 1.394.307 2.548.92 3.46.611.91 1.482 1.366 2.607 1.366.837 0 1.554-.133 2.15-.396a6.008 6.008 0 0 0 1.704-1.158l.957 1.882c-.508.578-1.19 1.05-2.047 1.42-.856.368-1.842.552-2.96.552zm-.344-14.448c-.875 0-1.577.427-2.106 1.278-.529.852-.821 1.93-.882 3.235h5.693v-.613c0-1.146-.23-2.081-.687-2.809-.459-.727-1.13-1.091-2.018-1.091zm12.077 14.135h3.033v-23.308h-3.033zm9.275-9.099c0-2.141.561-3.906 1.682-5.29 1.12-1.383 2.657-2.077 4.61-2.077 1.941 0 3.475.69 4.602 2.07 1.125 1.38 1.688 3.146 1.688 5.296v2.062c0 2.163-.561 3.927-1.681 5.298-1.12 1.37-2.652 2.053-4.595 2.053-1.962 0-3.504-.683-4.624-2.053-1.12-1.37-1.682-3.135-1.682-5.298v-2.062zm3.035 2.061c0 1.474.268 2.685.806 3.632.538.946 1.36 1.419 2.465 1.419 1.076 0 1.885-.473 2.429-1.42.542-.946.814-2.157.814-3.63v-2.063c0-1.453-.272-2.657-.814-3.607-.544-.952-1.358-1.428-2.443-1.428-1.097 0-1.913.474-2.451 1.42s-.806 2.151-.806 3.615v2.062zm27.938.299c0 2.132-.468 3.84-1.405 5.126-.936 1.284-2.235 1.926-3.9 1.926-.787 0-1.478-.153-2.077-.462a4.344 4.344 0 0 1-1.538-1.36v7.725h-3.033v-22.383h2.705l.193 1.853c.429-.687.952-1.217 1.57-1.59.617-.375 1.334-.562 2.15-.562 1.685 0 2.994.707 3.93 2.122.937 1.414 1.405 3.288 1.405 5.618v1.988zm-3.033-1.987c0-1.584-.262-2.876-.784-3.877-.524-1.002-1.304-1.502-2.34-1.502-.647 0-1.2.184-1.658.553-.458.369-.827.872-1.105 1.51v8.171c.268.609.632 1.075 1.091 1.398.457.324 1.02.486 1.688.486 1.046 0 1.826-.435 2.338-1.307.513-.872.77-2.02.77-3.444v-1.988zm12.396 8.727h-3.034v-16.168h3.034v16.167zm0-20.41h-3.034v-2.9h3.034v2.9zm9.646 4.242l.165 2.39c.447-.846 1.015-1.506 1.703-1.978a4.004 4.004 0 0 1 2.331-.71c1.414 0 2.514.523 3.301 1.568.787 1.046 1.182 2.67 1.182 4.87v10.027h-3.035v-9.996c0-1.504-.214-2.565-.642-3.182-.429-.617-1.075-.927-1.942-.927a2.56 2.56 0 0 0-1.643.575c-.478.384-.868.904-1.167 1.562v11.968h-3.033v-16.167h2.78zm14.554 7.441c0-2.32.476-4.19 1.426-5.61.952-1.42 2.275-2.13 3.968-2.13.816 0 1.533.192 2.15.576.62.383 1.146.939 1.585 1.666l.224-1.943h2.615v16.092c0 2.073-.551 3.691-1.651 4.856-1.102 1.166-2.638 1.749-4.61 1.749a8.297 8.297 0 0 1-2.173-.315 8.339 8.339 0 0 1-2.07-.851l.642-2.271c.508.309 1.066.55 1.675.724a6.81 6.81 0 0 0 1.897.262c1.105 0 1.924-.354 2.458-1.061.532-.707.799-1.743.799-3.108v-1.464c-.428.618-.938 1.083-1.532 1.398-.593.313-1.273.47-2.04.47-1.683 0-2.997-.645-3.944-1.936-.947-1.29-1.42-2.995-1.42-5.116v-1.988zm3.033 1.988c0 1.434.25 2.577.747 3.428.499.852 1.279 1.279 2.345 1.279.658 0 1.219-.17 1.681-.509.464-.34.84-.817 1.129-1.434v-8.053c-.3-.638-.678-1.144-1.136-1.517-.459-.374-1.006-.56-1.644-.56-1.055 0-1.84.497-2.352 1.494-.514.996-.77 2.291-.77 3.884v1.988zm33.981 6.739c-.109-.37-.2-.73-.269-1.084a7.822 7.822 0 0 1-.134-1.069 5.77 5.77 0 0 1-1.688 1.778 3.935 3.935 0 0 1-2.256.687c-1.365 0-2.433-.43-3.206-1.292-.772-.862-1.158-2.014-1.158-3.46 0-1.543.525-2.755 1.576-3.637 1.052-.881 2.528-1.321 4.43-1.321h2.258v-1.66c0-.986-.22-1.756-.658-2.308-.439-.553-1.061-.83-1.869-.83-.725 0-1.312.25-1.754.748-.444.498-.666 1.12-.666 1.867l-2.884-.014-.044-.09c-.05-1.246.447-2.353 1.495-3.325 1.045-.97 2.395-1.457 4.049-1.457 1.593 0 2.885.471 3.876 1.413.991.942 1.487 2.283 1.487 4.027v7.5c0 .628.038 1.233.113 1.814.074.584.195 1.155.365 1.712h-3.063zm-3.66-2.019c.707 0 1.351-.209 1.934-.627a3.715 3.715 0 0 0 1.279-1.569v-3.301h-2.302c-.927 0-1.646.295-2.16.889-.513.593-.77 1.317-.77 2.174 0 .726.176 1.314.524 1.763.349.447.847.671 1.495.671zm15.895-14.149l.163 2.39c.449-.846 1.016-1.506 1.703-1.978a4.011 4.011 0 0 1 2.331-.71c1.414 0 2.516.523 3.303 1.568.787 1.046 1.18 2.67 1.18 4.87v10.027h-3.033v-9.996c0-1.504-.214-2.565-.642-3.182-.429-.617-1.077-.927-1.944-.927-.617 0-1.164.193-1.642.575-.48.384-.867.904-1.166 1.562v11.968h-3.033v-16.167h2.78zm14.553 8.278c0-2.58.464-4.655 1.396-6.222.932-1.57 2.244-2.355 3.937-2.355.759 0 1.432.17 2.025.508.593.339 1.103.827 1.532 1.464v-8.814h3.017v23.308h-2.643l-.225-1.853c-.428.707-.953 1.245-1.576 1.614-.624.368-1.338.552-2.145.552-1.683 0-2.99-.716-3.922-2.15-.932-1.435-1.396-3.348-1.396-5.738v-.314zm3.033.314c0 1.703.243 3.053.731 4.05.488.996 1.262 1.494 2.317 1.494.657 0 1.217-.18 1.68-.54.464-.358.84-.861 1.129-1.509V569c-.29-.666-.665-1.195-1.13-1.582-.462-.39-1.012-.584-1.65-.584-1.055 0-1.832.573-2.33 1.72-.499 1.145-.747 2.643-.747 4.496v.314zm-323.302 46.878c0-2.58.464-4.655 1.395-6.222.932-1.57 2.244-2.355 3.938-2.355.758 0 1.43.17 2.024.508.594.339 1.104.827 1.532 1.464v-8.814h3.017v23.308h-2.643l-.225-1.853c-.428.707-.953 1.245-1.575 1.614-.624.368-1.338.552-2.146.552-1.683 0-2.99-.716-3.922-2.15-.931-1.435-1.395-3.348-1.395-5.738v-.314zm3.032.314c0 1.703.243 3.053.731 4.05.488.996 1.262 1.494 2.317 1.494.657 0 1.218-.18 1.68-.54.464-.358.84-.861 1.129-1.509v-7.859c-.29-.666-.665-1.195-1.129-1.582-.462-.39-1.013-.584-1.65-.584-1.056 0-1.833.573-2.331 1.72-.498 1.145-.747 2.643-.747 4.496v.314zm21.621 7.888c-1.921 0-3.461-.666-4.615-2-1.156-1.335-1.735-3.044-1.735-5.126v-2.362c0-2.111.567-3.854 1.697-5.229 1.13-1.373 2.567-2.062 4.31-2.062 1.832 0 3.243.626 4.23 1.875.985 1.251 1.478 2.931 1.478 5.044v2.091h-8.697v.643c0 1.394.308 2.548.92 3.46.612.91 1.482 1.366 2.608 1.366.836 0 1.553-.133 2.15-.396a6.008 6.008 0 0 0 1.703-1.158l.957 1.882c-.508.578-1.19 1.05-2.046 1.42-.857.368-1.843.552-2.96.552zm-.343-14.448c-.876 0-1.578.427-2.107 1.278-.528.852-.82 1.93-.882 3.235h5.693v-.613c0-1.146-.23-2.081-.687-2.809-.458-.727-1.13-1.091-2.017-1.091zm23.728 7.397c0 2.131-.467 3.84-1.404 5.125-.937 1.284-2.236 1.926-3.9 1.926-.787 0-1.479-.153-2.076-.462a4.335 4.335 0 0 1-1.54-1.36v7.725h-3.033v-22.383h2.705l.194 1.853c.428-.687.952-1.217 1.57-1.59.616-.375 1.334-.562 2.151-.562 1.683 0 2.992.707 3.929 2.122.937 1.414 1.404 3.287 1.404 5.618v1.988zm-3.033-1.988c0-1.584-.261-2.876-.783-3.877-.524-1.002-1.303-1.502-2.34-1.502-.647 0-1.2.184-1.657.553-.459.369-.828.872-1.107 1.51v8.171c.269.609.633 1.075 1.092 1.398.457.324 1.02.486 1.688.486 1.045 0 1.826-.435 2.339-1.307.512-.872.768-2.02.768-3.444v-1.988zm9.52 8.726h3.034v-23.308h-3.034zm9.276-9.1c0-2.14.56-3.905 1.68-5.288 1.121-1.384 2.658-2.078 4.61-2.078 1.943 0 3.476.69 4.601 2.07 1.126 1.38 1.689 3.146 1.689 5.296v2.062c0 2.163-.56 3.927-1.68 5.298-1.122 1.37-2.654 2.053-4.595 2.053-1.962 0-3.504-.683-4.624-2.053-1.12-1.37-1.681-3.135-1.681-5.298v-2.062zm3.032 2.062c0 1.474.269 2.685.808 3.632.537.946 1.36 1.419 2.465 1.419 1.076 0 1.885-.473 2.428-1.42.542-.946.814-2.157.814-3.63v-2.063c0-1.453-.272-2.657-.815-3.607-.542-.952-1.356-1.428-2.442-1.428-1.095 0-1.913.474-2.45 1.42-.539.946-.808 2.151-.808 3.615v2.062zm20.302 1.466l.224 1.06h.09l3.108-11.655h3.301l-5.662 18.676c-.378 1.117-.891 2.066-1.539 2.848-.648.782-1.58 1.173-2.795 1.173-.248 0-.515-.027-.799-.083a15.504 15.504 0 0 1-.843-.187l.328-2.24c.109.02.259.04.449.059.189.02.338.03.447.03.588 0 1.054-.251 1.397-.755.344-.503.61-1.098.8-1.785l.538-1.644-4.99-16.092h3.287l2.659 10.595zm14.491 5.572h-3.033v-16.167h3.033v16.167zm0-20.41h-3.033v-2.898h3.033v2.898zm9.588 4.243l.164 2.39c.45-.846 1.017-1.506 1.704-1.978a4.004 4.004 0 0 1 2.33-.71c1.415 0 2.517.523 3.304 1.568.785 1.046 1.18 2.67 1.18 4.87v10.027h-3.033v-9.996c0-1.504-.215-2.565-.643-3.182-.428-.617-1.076-.927-1.943-.927-.617 0-1.164.192-1.644.575-.478.384-.865.904-1.164 1.562v11.968h-3.033v-16.167h2.778zm14.553 7.441c0-2.32.476-4.19 1.428-5.61.95-1.42 2.273-2.13 3.966-2.13.818 0 1.535.192 2.153.576.617.383 1.145.939 1.582 1.666l.225-1.943h2.614v16.092c0 2.073-.549 3.691-1.65 4.856-1.1 1.166-2.637 1.749-4.61 1.749a8.334 8.334 0 0 1-2.173-.314 8.326 8.326 0 0 1-2.07-.852l.643-2.271a6.8 6.8 0 0 0 1.673.724 6.81 6.81 0 0 0 1.897.262c1.107 0 1.925-.354 2.458-1.061.533-.707.8-1.743.8-3.108v-1.464c-.429.618-.939 1.083-1.532 1.398-.592.313-1.272.47-2.038.47-1.685 0-3-.645-3.946-1.936-.945-1.29-1.42-2.995-1.42-5.116v-1.988zm3.033 1.988c0 1.434.25 2.577.748 3.428.498.852 1.28 1.279 2.346 1.279.658 0 1.217-.17 1.681-.509.463-.34.838-.817 1.127-1.434v-8.053c-.299-.638-.676-1.144-1.135-1.517-.457-.374-1.006-.56-1.644-.56-1.056 0-1.84.497-2.353 1.494-.513.996-.77 2.291-.77 3.884v1.988zm33.981 6.738c-.11-.369-.199-.729-.268-1.083a7.826 7.826 0 0 1-.136-1.069 5.73 5.73 0 0 1-1.688 1.778 3.93 3.93 0 0 1-2.256.687c-1.365 0-2.433-.43-3.205-1.292-.772-.862-1.157-2.014-1.157-3.46 0-1.543.525-2.755 1.576-3.637 1.05-.881 2.527-1.321 4.43-1.321h2.256v-1.66c0-.986-.22-1.756-.658-2.308-.437-.553-1.061-.83-1.867-.83-.727 0-1.312.25-1.756.748-.444.498-.665 1.12-.665 1.867l-2.883-.014-.046-.09c-.05-1.246.449-2.353 1.495-3.325 1.045-.97 2.395-1.457 4.049-1.457 1.594 0 2.886.471 3.878 1.413.99.942 1.485 2.283 1.485 4.027v7.5c0 .628.038 1.233.113 1.814a10.4 10.4 0 0 0 .367 1.712h-3.064zm-3.661-2.018c.707 0 1.353-.209 1.936-.627a3.71 3.71 0 0 0 1.277-1.569v-3.301h-2.3c-.927 0-1.648.295-2.16.889-.513.593-.77 1.317-.77 2.174 0 .726.174 1.314.524 1.763.348.447.847.671 1.493.671zm25.098-4.72c0 2.131-.467 3.84-1.404 5.125-.936 1.284-2.235 1.926-3.9 1.926-.787 0-1.479-.153-2.077-.462a4.344 4.344 0 0 1-1.538-1.36v7.725h-3.033v-22.383h2.704l.194 1.853c.429-.687.952-1.217 1.57-1.59.616-.375 1.334-.562 2.151-.562 1.683 0 2.993.707 3.93 2.122.936 1.414 1.403 3.287 1.403 5.618v1.988zm-3.032-1.988c0-1.584-.262-2.876-.784-3.877-.524-1.002-1.302-1.502-2.34-1.502-.647 0-1.2.184-1.657.553-.459.369-.828.872-1.106 1.51v8.171c.268.609.632 1.075 1.09 1.398.458.324 1.02.486 1.689.486 1.046 0 1.826-.435 2.338-1.307.513-.872.77-2.02.77-3.444v-1.988zm21.122 1.988c0 2.131-.47 3.84-1.406 5.125-.935 1.284-2.235 1.926-3.9 1.926-.785 0-1.479-.153-2.075-.462a4.335 4.335 0 0 1-1.54-1.36v7.725h-3.033v-22.383h2.704l.194 1.853c.429-.687.952-1.217 1.57-1.59.616-.375 1.334-.562 2.152-.562 1.683 0 2.993.707 3.928 2.122.937 1.414 1.406 3.287 1.406 5.618v1.988zm-3.034-1.988c0-1.584-.26-2.876-.784-3.877-.524-1.002-1.302-1.502-2.34-1.502-.645 0-1.2.184-1.657.553-.459.369-.826.872-1.106 1.51v8.171c.27.609.634 1.075 1.09 1.398.46.324 1.023.486 1.689.486 1.045 0 1.826-.435 2.34-1.307.51-.872.768-2.02.768-3.444v-1.988zm9.363 8.726h3.033v-23.308h-3.033zm13.158 0h-3.033v-16.167h3.033v16.167zm0-20.41h-3.033v-2.898h3.033v2.898zm12.516 18.423c.756 0 1.394-.292 1.912-.874.517-.583.777-1.363.777-2.339h2.718l.03.09c.04 1.523-.475 2.809-1.546 3.856-1.071 1.045-2.368 1.567-3.891 1.567-2.013 0-3.555-.682-4.626-2.047-1.07-1.363-1.605-3.102-1.605-5.214v-2.227c0-2.111.536-3.854 1.605-5.229 1.07-1.373 2.608-2.062 4.61-2.062 1.634 0 2.962.546 3.982 1.637 1.021 1.09 1.516 2.503 1.487 4.235l-.046.09h-2.718c0-1.076-.247-1.95-.74-2.621-.493-.674-1.149-1.01-1.965-1.01-1.156 0-1.975.469-2.458 1.406-.483.935-.724 2.121-.724 3.554v2.227c0 1.454.241 2.646.724 3.572.483.925 1.307 1.389 2.474 1.389zm19.816 1.987a12.469 12.469 0 0 1-.268-1.083 7.822 7.822 0 0 1-.134-1.069 5.77 5.77 0 0 1-1.688 1.778 3.935 3.935 0 0 1-2.256.687c-1.366 0-2.433-.43-3.207-1.292-.771-.862-1.157-2.014-1.157-3.46 0-1.543.525-2.755 1.577-3.637 1.05-.881 2.526-1.321 4.43-1.321h2.256v-1.66c0-.986-.219-1.756-.658-2.308-.438-.553-1.06-.83-1.868-.83-.726 0-1.312.25-1.754.748-.444.498-.665 1.12-.665 1.867l-2.885-.014-.044-.09c-.05-1.246.449-2.353 1.494-3.325 1.046-.97 2.396-1.457 4.05-1.457 1.593 0 2.885.471 3.876 1.413.99.942 1.487 2.283 1.487 4.027v7.5c0 .628.038 1.233.112 1.814.075.584.198 1.155.366 1.712h-3.063zm-3.66-2.018c.708 0 1.352-.209 1.935-.627a3.715 3.715 0 0 0 1.278-1.569v-3.301h-2.301c-.927 0-1.646.295-2.16.889-.513.593-.768 1.317-.768 2.174 0 .726.174 1.314.522 1.763.349.447.847.671 1.494.671zm17.009-18.167v4.018h2.526v2.166h-2.526v9.624c0 .836.126 1.431.374 1.785.25.353.573.53.97.53.24 0 .461-.015.665-.044.206-.03.447-.075.726-.136l.313 2.093a6.18 6.18 0 0 1-1.142.336 6.751 6.751 0 0 1-1.308.126c-1.145 0-2.035-.376-2.667-1.127-.632-.753-.949-1.94-.949-3.563v-9.624h-2.106v-2.166h2.106v-4.019h3.018zm11.445 20.185h-3.034v-16.167h3.033v16.167zm0-20.41h-3.034v-2.898h3.033v2.898zm6.242 11.31c0-2.14.56-3.905 1.681-5.288 1.12-1.384 2.657-2.078 4.61-2.078 1.942 0 3.477.69 4.602 2.07 1.126 1.38 1.688 3.146 1.688 5.296v2.062c0 2.163-.56 3.927-1.68 5.298-1.121 1.37-2.653 2.053-4.596 2.053-1.962 0-3.504-.683-4.624-2.053-1.12-1.37-1.681-3.135-1.681-5.298v-2.062zm3.034 2.062c0 1.474.269 2.685.806 3.632.539.946 1.36 1.419 2.465 1.419 1.076 0 1.885-.473 2.43-1.42.542-.946.814-2.157.814-3.63v-2.063c0-1.453-.272-2.657-.815-3.607-.544-.952-1.358-1.428-2.443-1.428-1.096 0-1.912.474-2.451 1.42-.537.946-.806 2.151-.806 3.615v2.062zm18.734-9.129l.165 2.39c.449-.846 1.017-1.506 1.703-1.978a4.004 4.004 0 0 1 2.331-.71c1.415 0 2.514.523 3.302 1.568.787 1.046 1.181 2.67 1.181 4.87v10.027h-3.034v-9.996c0-1.504-.215-2.565-.641-3.182-.429-.617-1.076-.927-1.943-.927a2.56 2.56 0 0 0-1.644.575c-.478.384-.867.904-1.165 1.562v11.968h-3.034v-16.167h2.78zm22.653 12.118c0-.627-.208-1.158-.62-1.591-.414-.434-1.194-.91-2.34-1.427-1.663-.647-2.895-1.337-3.697-2.07-.803-.731-1.202-1.68-1.202-2.846 0-1.244.49-2.303 1.47-3.176.983-.87 2.27-1.307 3.862-1.307 1.665 0 2.99.471 3.975 1.413.986.942 1.46 2.115 1.42 3.519l-.03.088h-2.913c0-.766-.218-1.426-.651-1.979-.432-.552-1.032-.83-1.8-.83-.757 0-1.347.215-1.77.643-.424.429-.636.932-.636 1.51 0 .617.182 1.105.546 1.464.363.358 1.147.826 2.352 1.404 1.694.608 2.952 1.297 3.774 2.069.822.773 1.233 1.761 1.233 2.966 0 1.335-.508 2.421-1.525 3.257-1.015.837-2.351 1.255-4.003 1.255-1.784 0-3.188-.505-4.215-1.516-1.025-1.01-1.513-2.193-1.463-3.548l.029-.09h2.825c.039 1.045.328 1.8.865 2.264.54.462 1.206.694 2.003.694.787 0 1.402-.2 1.846-.606.442-.402.665-.923.665-1.56zm-101.536 51.241c-.109-.369-.2-.729-.269-1.083a7.822 7.822 0 0 1-.134-1.069 5.77 5.77 0 0 1-1.688 1.778 3.935 3.935 0 0 1-2.256.687c-1.365 0-2.433-.43-3.206-1.292-.772-.862-1.158-2.014-1.158-3.46 0-1.543.525-2.755 1.576-3.637 1.052-.881 2.528-1.321 4.43-1.321h2.258v-1.66c0-.986-.22-1.756-.658-2.308-.439-.553-1.061-.83-1.869-.83-.725 0-1.312.25-1.754.748-.444.498-.666 1.12-.666 1.867l-2.884-.014-.044-.09c-.05-1.246.447-2.353 1.495-3.325 1.045-.97 2.395-1.457 4.049-1.457 1.593 0 2.885.471 3.876 1.413.991.942 1.487 2.283 1.487 4.027v7.5c0 .628.038 1.233.113 1.814.074.583.195 1.155.365 1.712h-3.063zm-3.66-2.018c.707 0 1.351-.209 1.934-.627a3.715 3.715 0 0 0 1.279-1.569v-3.301h-2.302c-.927 0-1.646.295-2.16.889-.513.593-.77 1.317-.77 2.174 0 .726.176 1.314.524 1.763.349.447.847.671 1.495.671zm17.015-18.167v4.018h2.525v2.166h-2.525v9.624c0 .836.124 1.431.374 1.785.248.353.573.53.97.53.24 0 .461-.015.665-.044.204-.03.446-.075.725-.136l.314 2.093c-.338.14-.72.251-1.144.336a6.751 6.751 0 0 1-1.307.126c-1.144 0-2.034-.376-2.666-1.127-.632-.753-.95-1.94-.95-3.563v-9.624h-2.107v-2.166h2.107v-4.018h3.019zm25.816 16.136c0-.627-.206-1.158-.62-1.591-.413-.434-1.192-.91-2.338-1.427-1.664-.647-2.897-1.337-3.697-2.07-.803-.731-1.204-1.68-1.204-2.846 0-1.244.491-2.303 1.472-3.176.981-.87 2.268-1.307 3.863-1.307 1.662 0 2.988.471 3.974 1.413.986.942 1.459 2.115 1.42 3.519l-.03.088h-2.915c0-.766-.216-1.426-.649-1.979-.434-.552-1.034-.83-1.8-.83-.757 0-1.348.215-1.772.643-.423.429-.634.932-.634 1.51 0 .617.182 1.105.546 1.464.362.358 1.147.826 2.353 1.404 1.693.608 2.95 1.297 3.772 2.069.823.773 1.233 1.761 1.233 2.966 0 1.335-.509 2.421-1.524 3.257-1.016.837-2.35 1.255-4.005 1.255-1.783 0-3.187-.505-4.213-1.516-1.026-1.01-1.514-2.193-1.465-3.548l.03-.09h2.824c.041 1.045.329 1.8.867 2.264.538.462 1.206.694 2.003.694.787 0 1.4-.2 1.845-.606.443-.402.664-.923.664-1.56zm15.102 2.062c.756 0 1.393-.292 1.912-.874.518-.583.777-1.363.777-2.339h2.72l.029.09c.04 1.523-.475 2.808-1.546 3.856-1.07 1.045-2.368 1.567-3.893 1.567-2.01 0-3.553-.682-4.624-2.047-1.07-1.363-1.606-3.102-1.606-5.214v-2.227c0-2.111.535-3.854 1.606-5.229 1.071-1.373 2.608-2.062 4.609-2.062 1.634 0 2.961.546 3.983 1.637 1.02 1.09 1.516 2.503 1.486 4.235l-.044.09h-2.72c0-1.076-.247-1.95-.74-2.621-.493-.674-1.147-1.01-1.965-1.01-1.154 0-1.974.469-2.457 1.406-.484.935-.725 2.121-.725 3.554v2.227c0 1.454.241 2.646.726 3.572.482.925 1.307 1.389 2.471 1.389zm19.818 1.987c-.11-.369-.199-.729-.269-1.083a7.565 7.565 0 0 1-.134-1.069 5.755 5.755 0 0 1-1.69 1.778 3.927 3.927 0 0 1-2.256.687c-1.363 0-2.432-.43-3.204-1.292-.772-.862-1.158-2.014-1.158-3.46 0-1.543.525-2.755 1.576-3.637 1.05-.881 2.528-1.321 4.43-1.321h2.256v-1.66c0-.986-.22-1.756-.658-2.308-.437-.553-1.06-.83-1.866-.83-.728 0-1.313.25-1.756.748-.444.498-.665 1.12-.665 1.867l-2.883-.014-.046-.09c-.05-1.246.449-2.353 1.494-3.325 1.045-.97 2.395-1.457 4.05-1.457 1.594 0 2.886.471 3.877 1.413.991.942 1.486 2.283 1.486 4.027v7.5c0 .628.037 1.233.112 1.814a10.4 10.4 0 0 0 .367 1.712h-3.063zm-3.66-2.018c.707 0 1.351-.209 1.934-.627a3.71 3.71 0 0 0 1.277-1.569v-3.301h-2.3c-.927 0-1.647.295-2.159.889-.513.593-.77 1.317-.77 2.174 0 .726.175 1.314.523 1.763.349.447.847.671 1.495.671zm13.333 2.018h3.033v-23.308h-3.033zm15.715.313c-1.923 0-3.461-.666-4.617-2-1.155-1.335-1.733-3.044-1.733-5.126v-2.362c0-2.111.565-3.854 1.695-5.229 1.13-1.373 2.567-2.062 4.311-2.062 1.833 0 3.242.626 4.228 1.875.986 1.251 1.48 2.931 1.48 5.044v2.091h-8.696v.643c0 1.394.306 2.548.92 3.46.611.91 1.48 1.366 2.605 1.366.837 0 1.554-.133 2.153-.396a6.056 6.056 0 0 0 1.703-1.158l.956 1.882c-.507.578-1.19 1.05-2.047 1.42-.857.369-1.843.552-2.958.552zm-.344-14.448c-.877 0-1.579.427-2.106 1.278-.529.852-.823 1.93-.882 3.235h5.693v-.613c0-1.146-.23-2.081-.688-2.809-.458-.727-1.131-1.091-2.017-1.091z" fill="#58595B"></path></g></g></g></svg>