<svg viewBox="0 0 1400 1000" xmlns="http://www.w3.org/2000/svg"><g fill="none" fill-rule="evenodd"><path fill="#2F96EA" d="M0 999h1412V0H0z"></path><path fill="#CCEFFF" d="M0 1000h1400V0H0z"></path><path fill="#203370" d="M0 324l261 171 640-351.768L654.109 0 0 .207zm1086 288.505L1413 801V425zM865.263 921L885 932.357 802.737 980 783 968.643zm217.568-65.966l13.656-7.982L1097 958l-13.824-8.03-13.659 7.985L1069 847zM781 582.642L863.263 535 883 546.358 800.739 594z"></path><path fill="#FAAF40" d="M1167 612.999l-32.317 18.802-19.603 11.405L1082.777 662l-32.529-18.801-19.73-11.404L998 613.001l32.307-18.796 19.601-11.403L1082.223 564zm-334-.002L748.771 662l-32.519-18.797-19.734-11.405L664 613.003 748.229 564l32.519 18.797 19.732 11.405z"></path><path fill="#203370" d="M1050 643.357L967.738 691 948 679.643 1030.262 632zm-435 36.287L697.264 632 717 643.359 634.736 691z"></path><path fill="#FAAF40" d="M1000 710.001l-70.409 40.962L915.777 759l-14.004-8.091L831 710.001l70.392-40.954L915.224 661l13.988 8.084 18.529 10.712 19.731 11.403z"></path><path fill="#203370" d="M596.78 751.044L597 798l-27.778-.126L569 751l13.974 8.076z"></path><path fill="#FAAF40" d="M667 709.997l-70.403 40.96L582.771 759l-13.996-8.087-18.524-10.708-19.732-11.406L498 710.004 582.23 661l32.519 18.797 19.732 11.404z"></path><path fill="#203370" d="M680 797.891l-14.384 8.38L678.97 814l-81.658-.375-27.749-.128-79.968-.366 11.6-6.758L485 797l84.488.385 27.75.128z"></path><path fill="#FAAF40" d="M1167 805.999l-70.409 40.964-13.814 8.037-13.995-8.088L998 806.001 1082.224 757z"></path><path fill="#FFF" d="M834 805.999l-70.407 40.964L749.776 855l-13.999-8.089-57.39-33.173L665 806.001l14.419-8.389L749.224 757z"></path><path fill="#203370" d="M915.833 759.038l13.652-7.983L930 862l-13.82-8.03-13.665 7.992L902 751z"></path><path fill="#FAAF40" d="M1001 902.999L916.776 952l-32.527-18.801-19.731-11.404L832 903.001l70.395-40.955L916.224 854l13.988 8.084zm-333 0L583.777 952l-32.529-18.801-19.731-11.404L499 903.001l70.396-40.955L583.223 854l13.99 8.084z"></path><path fill="#203370" d="M749.831 855.037l13.654-7.985L764 958l-13.823-8.03-13.665 7.99L736 847zM532.262 922L552 933.357 469.738 981 450 969.644zM569 813l27.773.129L597 862l-13.966-8.136-13.806 8.097zm546-169.62l19.569-11.38L1217 679.62 1197.429 691z"></path><path fill="#FAAF40" d="M1334 709.999l-32.317 18.802-19.602 11.405L1249.777 759 1165 710.001l32.305-18.796 19.603-11.404L1249.223 661z"></path><path fill="#203370" d="M1282 739.38l19.569-11.38L1384 775.62 1364.429 787zM914.826 566.035l13.661-7.988L929 669l-13.816-8.03-13.667 7.993L901 558zM948 546.378L967.568 535 1050 582.622 1030.432 594zM449 776.642L531.263 729 551 740.358 468.737 788zm-336.276 193L198.263 922 218 933.358 132.461 981z"></path><path fill="#FAAF40" d="M335 902.997l-70.405 40.959L250.772 952l-13.985-8.083-18.535-10.714-19.733-11.405L166 903.003 250.231 854l32.518 18.797 19.732 11.403zm166-97l-11.63 6.765L416.77 855l-32.519-18.797-19.734-11.404L332 806.004 416.229 757l32.52 18.797 19.732 11.403 16.283 9.413z"></path><path fill="#203370" d="M283 872.645L365.264 825 385 836.359 302.738 884z"></path><path fill="#FAAF40" d="M1346.316 991.246L1333 999h59.054l19.946-.08V953z"></path><path fill="#203370" d="M780 450.37L799.555 439 882 486.63 862.445 498zm499-290l19.555-11.37L1381 196.63 1361.445 208zM948 546.371L967.557 535 1050 582.629 1030.443 594zm312.78-375.327L1261 218l-27.78-.126L1233 171l13.973 8.078z"></path><path fill="#FAAF40" d="M1331 130.997l-70.404 40.959-13.825 8.044-13.995-8.088-18.524-10.709-19.734-11.403L1162 131.003 1246.229 82l32.519 18.797 19.732 11.405z"></path><path fill="#203370" d="M1343 218.889l-14.384 8.381 13.354 7.73-81.658-.375-27.749-.128-79.967-.366 11.599-6.757L1148 218l84.488.385 27.75.126zM1195.262 342L1215 353.357 1132.738 401 1113 389.644z"></path><path fill="#FAAF40" d="M1166 420.001L1081.776 469 997 420.001 1081.223 371l32.518 18.796 19.731 11.403zm-334-.004l-32.318 18.801-19.595 11.399L747.771 469 663 420.003 747.229 371l32.519 18.797 19.732 11.405z"></path><path fill="#203370" d="M928.485 365.037L929 476l-13.824-8.031-13.656 7.988L901 365l13.819 8.027z"></path><path fill="#FAAF40" d="M1333 516.999L1248.776 566l-32.529-18.801-19.731-11.404L1164 517.001 1248.223 468l32.518 18.796 19.731 11.403zm-166 96l-32.317 18.802-19.591 11.398L1082.777 662 998 613.001l32.317-18.801 19.591-11.399L1082.223 564l32.521 18.796 19.729 11.403z"></path><path fill="#203370" d="M1281 679.648L1363.271 632 1383 643.354 1300.73 691z"></path><path fill="#FAAF40" d="M1334 709.999l-32.315 18.802-19.593 11.398L1249.777 759 1165 710.001l32.315-18.801 19.593-11.399L1249.223 661l32.529 18.801 19.721 11.398z"></path><path fill="#203370" d="M1282 739.371L1301.557 728 1384 775.629 1364.443 787zM1233 234l27.773.127L1261 283l-13.965-8.137-13.807 8.096zm-118 409.371L1134.557 632 1217 679.629 1197.443 691zm-3-446.727L1194.261 149 1214 160.358 1131.737 208zm-332 193L862.265 342 882 353.358 799.739 401z"></path><path fill="#FAAF40" d="M999 323.997l-70.405 40.959L914.77 373l-13.983-8.083-18.536-10.714-19.734-11.403L830 324.003 914.229 275l32.52 18.797 19.732 11.405zm166-97l-11.628 6.767L1080.771 276l-32.52-18.797-19.734-11.403L996 227.003 1080.229 178l32.52 18.797 19.732 11.405 16.283 9.411z"></path><path fill="#203370" d="M946 293.643L1028.262 246 1048 257.359 965.736 305zM1362.263 439L1382 450.357 1299.738 498 1280 486.644zM1114 582.643L1196.262 535 1216 546.359 1133.737 594z"></path><path fill="#FFF" d="M999 516.497L915.268 565l-32.325-18.604-19.617-11.287L831 516.503 914.73 468l32.328 18.605 19.616 11.288zm168 290L1083.268 855l-32.326-18.604-19.616-11.287L999 806.503 1082.73 758l32.327 18.604 19.617 11.289z"></path><path fill="#FFF" d="M999 487.497L915.268 536l-32.325-18.605-19.617-11.288L831 487.503 914.73 439l32.328 18.604 19.616 11.287z"></path><path fill="#CCEFFF" d="M831 487v29.37L915 565v-29.37z"></path><path fill="#91C3ED" d="M999 487v29.368L915 565v-29.368z"></path><path fill="#FFF" d="M834 776.496L750.267 825l-32.324-18.605-19.615-11.287L666 776.504 749.731 728l32.326 18.605 19.617 11.287z"></path><path fill="#CCEFFF" d="M666 777v29.37L750 855v-29.371z"></path><path fill="#91C3ED" d="M834 777v29.369L750 855v-29.368z"></path><path fill="#FFF" d="M1167 776.497L1083.268 825l-32.326-18.604-19.616-11.289L999 776.503 1082.73 728l32.327 18.604 19.617 11.287z"></path><path fill="#CCEFFF" d="M999 777v29.37l84 48.63v-29.37z"></path><path fill="#91C3ED" d="M1167 777v29.368L1083 855v-29.368z"></path><path fill="#FFF" d="M1331 294.497L1247.267 343l-32.324-18.605-19.615-11.288L1163 294.503 1246.731 246l32.326 18.604 19.617 11.287z"></path><path fill="#CCEFFF" d="M1163 294v29.37l84 48.63v-29.37z"></path><path fill="#91C3ED" d="M1331 294v29.368L1247 372v-29.368z"></path><path fill="#FAAF40" d="M1390 772l12.536-7.085L1413 759zm-16 9l-10.05 5.982L1332 806l31.962-19.025zm39 72l-28.641-16.62-19.761-11.466L1332 806zm-69.673-634.74L1329 226.659l13.302 7.746 57.026 33.215L1412 275v-97zm56.534 160.871L1330 420.158l32.271 18.826 19.58 11.425L1412 468v-96zM1331 612.656l32.636 18.843 19.784 11.424 18.594 10.737L1413 660v-95zM1389 772l-5.838 3.5L1374 781l9.162-5.5z"></path><path fill="#FAAF40" d="M1402.559 765.015l-12.512 7.206-6.027 3.471-9.462 5.449-10.172 5.859L1332 805.651 1413 852v-93zm-333.086 193.082L1000 999h167l-13.317-7.79-56.536-33.069-13.921-8.141zm-333.039.859L667 999h167l-31.656-18.137-19.68-11.277-18.485-10.59L750.225 951zM334 999h167l-31.535-18.07-19.727-11.303L417.229 951zm-334 1h167l-31.23-18-19.651-11.329L83.73 952z"></path><path fill="#203370" d="M237.262 999H265l-.257-54.963-13.792 8.006L237 944z"></path><g transform="translate(1162.000000, 869.000000)" fill="#203370"><path d="M50.391 31.8c-1.386 0-2.559 1.173-2.559 2.558 0 1.387 1.173 2.559 2.557 2.559 1.386 0 2.56-1.172 2.56-2.56 0-1.384-1.173-2.557-2.56-2.557"></path><path d="M36.747 1.04c-1.386-1.387-3.517-1.387-4.904 0L1.04 31.845c-1.387 1.386-1.387 3.517 0 4.904l30.803 30.803c1.387 1.388 3.518 1.388 4.904 0l30.805-30.804c1.385-1.386 1.385-3.518 0-4.903L36.747 1.04zm13.644 39.12c-2.025 0-3.838-1.067-4.798-2.666a73.27 73.27 0 0 0-2.237 6.077c-2.346 6.5-3.944 10.659-5.97 12.151-1.067 1.065-2.451 1.704-4.157 1.704a5.731 5.731 0 0 1-5.755-5.708v-.048c0-2.025 1.065-3.838 2.664-4.795a73.293 73.293 0 0 0-6.077-2.24c-6.5-2.344-10.657-3.941-12.15-5.968-1.066-1.067-1.705-2.451-1.705-4.158a5.729 5.729 0 0 1 5.708-5.754h.047c2.025 0 3.839 1.065 4.796 2.664a73.493 73.493 0 0 0 2.24-6.076c2.344-6.502 3.943-10.658 5.97-12.15 1.065-1.067 2.45-1.706 4.156-1.706a5.73 5.73 0 0 1 5.756 5.708v.047c0 2.024-1.067 3.836-2.664 4.796a73.499 73.499 0 0 0 6.074 2.24c6.503 2.346 10.66 3.943 12.152 5.97 1.066 1.064 1.707 2.449 1.707 4.156 0 3.091-2.559 5.755-5.759 5.755h.002z"></path><path d="M190.455 37.284c-.107-.428-.426-.962-.746-1.281-.32-.426-.853-.745-1.494-1.063-.638-.322-1.384-.641-2.346-1.067-.424-.215-.85-.321-1.171-.427-.318-.107-.531-.32-.746-.428-.213-.105-.319-.21-.319-.425-.107-.106-.107-.32-.107-.427 0-.745.64-1.065 2.024-1.065.748 0 1.387.105 1.92.215.534.105 1.066.318 1.599.424l.747-3.303c-.534-.215-1.173-.321-2.025-.534-.853-.213-1.707-.213-2.666-.213-1.811 0-3.304.426-4.264 1.28-.958.852-1.597 1.917-1.597 3.303 0 .745.105 1.385.319 1.811.213.534.532.96.852 1.28.426.323.852.639 1.386.959.532.32 1.172.533 1.812.746a19 19 0 0 1 1.918.852c.427.214.641.535.641.854 0 .426-.215.745-.534.852-.32.108-.852.215-1.706.215-.745 0-1.492-.107-2.238-.215l-2.239-.639-.745 3.411c.319.106.96.321 1.812.534.851.212 2.024.32 3.304.32 2.023 0 3.624-.428 4.69-1.173 1.065-.747 1.704-1.919 1.704-3.411.428-.32.321-.852.215-1.385zm-16.524-4.647c.745-.425 1.28-1.065 1.812-1.917.534-.747.745-1.598.745-2.559 0-.64-.105-1.28-.317-1.917-.215-.64-.641-1.174-1.173-1.707a5.511 5.511 0 0 0-2.025-1.28 8.31 8.31 0 0 0-2.986-.532c-.96 0-1.918.106-2.665.427-.76.273-1.452.71-2.024 1.28-.534.533-1.066 1.172-1.279 1.812-.321.744-.428 1.384-.428 2.236 0 .96.215 1.814.534 2.454a7.518 7.518 0 0 0 1.813 1.918 9.647 9.647 0 0 0-1.067.96c-.321.319-.639.637-.852 1.066-.321.425-.428.85-.64 1.278a6.39 6.39 0 0 0-.212 1.598c0 .534.105 1.172.32 1.813.213.639.638 1.28 1.171 1.812a6.17 6.17 0 0 0 2.132 1.385c.852.32 2.025.533 3.304.533 1.173 0 2.132-.106 3.091-.424a7.706 7.706 0 0 0 2.238-1.281c.641-.531 1.065-1.173 1.28-1.919.321-.747.426-1.492.426-2.346 0-1.066-.213-1.916-.745-2.663-.641-.64-1.386-1.385-2.453-2.026v-.001zm-6.288-5.009c.107-.212.213-.532.426-.747.213-.212.428-.425.747-.532.32-.105.639-.213 1.065-.213.428 0 .853.108 1.066.213.32.107.535.321.746.532.178.188.322.404.427.64.106.214.106.427.106.64 0 .747-.214 1.28-.533 1.812a3.24 3.24 0 0 1-1.385 1.28c-1.067-.428-1.811-.852-2.345-1.385-.428-.535-.64-1.066-.64-1.707.106 0 .212-.213.32-.533zm4.37 11.724c-.427.428-1.174.748-2.132.748-.534 0-.958-.107-1.28-.214a2.312 2.312 0 0 1-.85-.532 3.285 3.285 0 0 1-.536-.747c-.105-.32-.105-.532-.105-.745 0-.748.213-1.387.533-1.92.32-.532.852-.959 1.385-1.383.534.21 1.066.319 1.494.532.425.212.852.425 1.173.639.317.212.637.531.852.85.213.323.319.748.319 1.174-.11.61-.408 1.17-.854 1.6v-.002zm-13.328-.718c-.532-.747-1.173-1.492-1.812-2.238a14.561 14.561 0 0 0-1.812-1.812c1.173-1.173 2.24-2.238 3.198-3.305a897.944 897.944 0 0 1 2.985-3.304h-5.01c-.32.32-.534.745-.96 1.173-.32.425-.745.852-1.172 1.384-.425.533-.852.962-1.279 1.494-.428.533-.852.959-1.278 1.385V20.833l-4.264.64v21.53h4.264v-6.607c.426.425.959.852 1.493 1.386.53.533.958 1.172 1.384 1.706.428.64.852 1.171 1.278 1.812.428.64.747 1.171 1.068 1.599h4.902c-.32-.641-.745-1.279-1.173-2.133-.639-.533-1.173-1.279-1.812-2.132zm-16.797-8.811c-.428-.637-1.067-1.065-1.918-1.384-.746-.322-1.813-.533-2.986-.533-1.279 0-2.45.105-3.517.212-.96.213-1.812.322-2.451.532v14.391h2.664V30.462c.106 0 .213 0 .426-.105.213 0 .428-.105.747-.105.32 0 .534 0 .852-.11h.853c.746 0 1.28.11 1.813.322.425.213.851.426 1.172.852.32.427.533.958.64 1.598.106.641.211 1.386.211 2.345v7.782h2.667v-8.314c0-.96-.107-1.919-.321-2.772-.107-.851-.426-1.598-.85-2.132h-.002zm-14.663-1.764c-.319 0-.533-.107-.851-.107h-.748c-1.171 0-2.238.107-3.091.32-.959.215-1.706.426-2.346.64v14.175h2.667V30.618c.105 0 .426-.108.959-.214.534-.105.958-.105 1.492-.105.745 0 1.385.105 1.918.105.533.106.854.214 1.067.32l.426-2.346c-.106 0-.321-.106-.534-.106-.426-.106-.639-.213-.959-.213zm-12.742 1.313c-.426-.533-1.067-.852-1.812-1.174-.747-.32-1.599-.425-2.666-.425-.958 0-1.811.105-2.558.214-.745.105-1.385.32-1.704.426l.319 2.238c.32-.107.852-.213 1.493-.427.773-.139 1.558-.21 2.344-.213.64 0 1.28.108 1.706.32.425.215.746.427 1.066.852.213.32.426.747.534 1.173.105.426.105.852.105 1.28v.744c-.105 0-.213 0-.426-.105-.213 0-.427-.106-.64-.106-.212 0-.533-.107-.851-.107h-.853c-.854 0-1.601.107-2.453.213-.746.213-1.385.426-2.025.852a4.323 4.323 0 0 0-1.386 1.386c-.32.639-.534 1.28-.534 2.132 0 .853.108 1.6.428 2.239.32.639.639 1.065 1.173 1.492a9.546 9.546 0 0 0 1.812.852c.745.212 1.492.212 2.344.212.64 0 1.173 0 1.812-.105.64 0 1.173-.105 1.706-.105.532-.108.96-.108 1.385-.214.426-.107.747-.107.959-.107v-9.273c0-.854-.105-1.6-.32-2.345a5.388 5.388 0 0 0-.958-1.92zm-1.385 11.618c-.322.107-.746.107-1.172.107h-1.706c-1.067 0-1.92-.213-2.453-.532-.64-.322-.96-1.067-.96-2.027 0-.534.108-.958.322-1.278.212-.321.532-.532.958-.747.427-.213.745-.321 1.28-.321.425-.105.852-.105 1.277-.105.641 0 1.173 0 1.6.105.427.11.746.11.961.215v4.584h-.106zM95.194 27.798c-.852 0-1.704.212-2.558.531-.853.321-1.492.855-2.131 1.494a6.34 6.34 0 0 0-1.494 2.451c-.426.96-.531 2.133-.531 3.413 0 1.171.105 2.13.424 3.088a6.99 6.99 0 0 0 1.388 2.454 7.576 7.576 0 0 0 2.344 1.598c.959.425 2.025.534 3.305.534.933.012 1.865-.098 2.77-.322.853-.212 1.387-.318 1.708-.532l-.323-2.24c-.318.11-.85.322-1.49.428-.64.215-1.387.215-2.346.215-1.705 0-2.878-.428-3.624-1.173-.747-.748-1.279-1.92-1.386-3.518h10.127v-.96c0-2.559-.534-4.476-1.599-5.649-1.067-1.171-2.665-1.812-4.584-1.812zm-3.942 6.395a33.6 33.6 0 0 1 .318-1.493c.213-.533.427-.959.747-1.278.32-.426.745-.639 1.173-.96.426-.212.959-.321 1.597-.321 1.066 0 1.919.428 2.558 1.175.64.747.962 1.704.853 2.983h-7.246v-.106zm-6.767 6.31c-.214-.213-.32-.426-.32-.638-.107-.32-.107-.64-.107-1.066V20.89l-2.664.427v17.801c0 1.385.321 2.45 1.065 3.092.64.639 1.812 1.065 3.519 1.065l.32-2.238c-.428-.106-.748-.106-1.067-.213a.97.97 0 0 1-.746-.321zM33.161 19.625c1.384 0 2.557-1.174 2.557-2.56 0-1.386-1.173-2.559-2.558-2.559-1.387 0-2.558 1.174-2.558 2.56 0 1.492 1.171 2.559 2.558 2.559zm-4.025 1.552c-.321-.321-.64-.64-.852-1.067a73.262 73.262 0 0 0-2.24 6.076c-2.344 6.504-3.943 10.66-5.968 12.151-.321.32-.64.64-1.067.853a73.826 73.826 0 0 0 6.077 2.239c6.501 2.344 10.657 3.943 12.15 5.968.321.32.639.64.854 1.065a74.001 74.001 0 0 0 2.237-6.075c2.345-6.502 3.944-10.657 5.969-12.15.321-.321.64-.64 1.066-.853a74.77 74.77 0 0 0-6.075-2.24c-6.502-2.236-10.765-3.837-12.151-5.968v.001zm4.024 27.852c-1.387 0-2.558 1.173-2.558 2.559 0 1.386 1.171 2.557 2.558 2.557 1.385 0 2.558-1.173 2.558-2.557 0-1.386-1.173-2.559-2.558-2.559zM15.93 31.8c-1.383 0-2.556 1.173-2.556 2.558 0 1.387 1.173 2.559 2.556 2.559 1.387 0 2.559-1.172 2.559-2.56 0-1.384-1.172-2.557-2.56-2.557z"></path></g><path d="M121.757 70.818h-4.018q-.523-6.24-5.08-10.095-4.558-3.855-11.778-3.855-4.868 0-8.658 1.797-3.79 1.797-5.946 4.9-2.156 3.104-2.156 7.123 0 2.58.996 4.655.997 2.075 2.826 3.692 1.83 1.617 4.345 2.826 2.516 1.209 5.554 2.123l7.319 2.157q3.757 1.143 6.942 2.646t5.554 3.577q2.369 2.075 3.692 4.852t1.323 6.403q0 5.293-2.728 9.475-2.728 4.182-7.743 6.583-5.015 2.401-11.81 2.401-6.47 0-11.255-2.189-4.787-2.189-7.564-6.093t-3.136-9h4.182q.327 4.149 2.663 7.17 2.335 3.023 6.223 4.656 3.888 1.634 8.887 1.634 5.39 0 9.507-1.846 4.116-1.846 6.436-5.146 2.32-3.3 2.32-7.677 0-3.529-1.667-6.044-1.666-2.516-4.917-4.346-3.25-1.83-8.053-3.267l-7.808-2.352q-7.841-2.385-11.974-6.501-4.133-4.117-4.133-10.259 0-5.162 2.745-9.164 2.744-4.002 7.465-6.289 4.72-2.287 10.667-2.287 5.978 0 10.552 2.303 4.574 2.304 7.253 6.306 2.68 4.002 2.973 9.131zM173.807 121h-38.029V54.09h37.245v3.79h-33.16v27.738h31.167v3.79h-31.168v27.802h33.945V121zm17.19 0h-4.084V54.09h20.615q6.338 0 10.912 2.484 4.574 2.483 7.024 6.877t2.45 10.21q0 5.75-2.45 10.111-2.45 4.362-7.007 6.812-4.558 2.45-10.896 2.45h-18.459v-3.822h18.361q5.162 0 8.821-1.928 3.66-1.927 5.62-5.407t1.96-8.216q0-4.77-1.96-8.315t-5.636-5.505q-3.676-1.96-8.838-1.96h-16.433V121zm18.786-30.318h4.606L230.855 121h-4.704l-16.368-30.318zm23.365-36.591h4.312l21.955 61.65h.457l21.955-61.65h4.312L261.996 121h-4.705l-24.143-66.91zm62.439 0h4.083V121h-4.083V54.09zM366.977 75h-4.182q-.653-3.398-2.45-6.583-1.797-3.185-4.623-5.75-2.826-2.565-6.55-4.068-3.725-1.502-8.233-1.502-6.6 0-12.137 3.512-5.538 3.512-8.854 10.307-3.316 6.796-3.316 16.63 0 9.899 3.316 16.694 3.316 6.796 8.854 10.275 5.537 3.48 12.137 3.48 4.508 0 8.233-1.487 3.724-1.487 6.55-4.051 2.826-2.565 4.623-5.767 1.797-3.201 2.45-6.6h4.182q-.718 4.052-2.76 7.94-2.042 3.888-5.358 7.04-3.316 3.153-7.809 4.999-4.492 1.846-10.111 1.846-8.364 0-14.734-4.264-6.371-4.263-9.981-12.006-3.61-7.743-3.61-18.1 0-10.356 3.61-18.099t9.98-12.006q6.371-4.264 14.735-4.264 5.62 0 10.111 1.846 4.493 1.846 7.809 4.966t5.358 7.008q2.042 3.888 2.76 8.004zm50.71 46H379.66V54.09h37.244v3.79h-33.16v27.738h31.168v3.79h-31.168v27.802h33.945V121zM81.67 223v-66.91h4.444l25.777 61.03h.457l25.777-61.03h4.443V223h-3.92v-57.206h-.392L114.046 223h-3.854l-24.209-57.206h-.392V223h-3.92zm115.267 0H158.91v-66.91h37.244v3.79h-33.16v27.738h31.168v3.79h-31.168v27.802h33.945V223zm53.194-50.182h-4.019q-.523-6.24-5.08-10.095-4.558-3.855-11.778-3.855-4.868 0-8.657 1.797-3.79 1.797-5.946 4.9-2.157 3.104-2.157 7.123 0 2.58.997 4.655.996 2.075 2.826 3.692t4.345 2.826q2.516 1.209 5.554 2.123l7.318 2.157q3.757 1.143 6.943 2.646 3.185 1.503 5.554 3.577 2.368 2.075 3.691 4.852t1.323 6.403q0 5.293-2.728 9.475-2.728 4.182-7.742 6.583-5.015 2.401-11.81 2.401-6.47 0-11.256-2.189-4.786-2.189-7.563-6.093t-3.136-9h4.181q.327 4.149 2.663 7.17 2.336 3.023 6.224 4.656 3.888 1.634 8.886 1.634 5.39 0 9.507-1.846t6.436-5.146q2.32-3.3 2.32-7.677 0-3.529-1.666-6.044-1.666-2.516-4.917-4.346-3.25-1.83-8.053-3.267l-7.809-2.352q-7.84-2.385-11.973-6.501-4.133-4.117-4.133-10.259 0-5.162 2.744-9.164t7.465-6.289q4.721-2.287 10.667-2.287 5.979 0 10.553 2.303 4.574 2.304 7.253 6.306 2.679 4.002 2.973 9.131zM268.236 223h-4.084v-66.91h4.084v31.528h40.315V156.09h4.084V223h-4.084v-31.592h-40.315V223zm98.768 0h-38.028v-66.91h37.244v3.79h-33.16v27.738h31.167v3.79H333.06v27.802h33.944V223zm53.193-50.182h-4.018q-.523-6.24-5.08-10.095-4.558-3.855-11.778-3.855-4.868 0-8.658 1.797-3.79 1.797-5.946 4.9-2.156 3.104-2.156 7.123 0 2.58.997 4.655.996 2.075 2.826 3.692t4.345 2.826q2.515 1.209 5.554 2.123l7.318 2.157q3.757 1.143 6.942 2.646 3.186 1.503 5.554 3.577 2.369 2.075 3.692 4.852t1.323 6.403q0 5.293-2.728 9.475-2.728 4.182-7.743 6.583-5.015 2.401-11.81 2.401-6.469 0-11.255-2.189-4.786-2.189-7.563-6.093t-3.137-9h4.182q.327 4.149 2.663 7.17 2.336 3.023 6.224 4.656 3.887 1.634 8.886 1.634 5.39 0 9.507-1.846t6.436-5.146q2.32-3.3 2.32-7.677 0-3.529-1.666-6.044-1.667-2.516-4.917-4.346-3.251-1.83-8.054-3.267l-7.808-2.352q-7.84-2.385-11.974-6.501-4.132-4.117-4.132-10.259 0-5.162 2.744-9.164t7.465-6.289q4.721-2.287 10.667-2.287 5.979 0 10.553 2.303 4.573 2.304 7.252 6.306 2.68 4.002 2.973 9.131zM461.177 223h-4.083v-66.91h37.342v3.79h-33.258v27.738h30.154v3.79h-30.154V223zm50.874 0h-4.084v-66.91h20.615q6.338 0 10.912 2.484 4.574 2.483 7.024 6.877t2.45 10.21q0 5.75-2.45 10.111-2.45 4.362-7.007 6.812-4.558 2.45-10.896 2.45h-18.459v-3.822h18.361q5.162 0 8.821-1.928 3.66-1.927 5.62-5.407t1.96-8.216q0-4.77-1.96-8.315t-5.636-5.505q-3.676-1.96-8.838-1.96h-16.433V223zm18.786-30.318h4.606L551.91 223h-4.704l-16.368-30.318zm84.687-3.137q0 10.357-3.594 18.084-3.593 7.726-9.98 12.006-6.388 4.28-14.718 4.28-8.364 0-14.751-4.296-6.387-4.297-9.981-12.023-3.594-7.727-3.594-18.05 0-10.357 3.61-18.067 3.61-7.71 9.981-12.007 6.37-4.296 14.735-4.296 8.33 0 14.718 4.28 6.387 4.28 9.98 12.006 3.594 7.727 3.594 18.083zm-3.986 0q0-9.31-3.12-16.139-3.12-6.828-8.608-10.569-5.489-3.74-12.578-3.74-7.09 0-12.579 3.708-5.488 3.708-8.608 10.552-3.12 6.845-3.12 16.188 0 9.246 3.087 16.09 3.087 6.845 8.576 10.602 5.489 3.757 12.644 3.757 7.089 0 12.578-3.74 5.488-3.741 8.608-10.57 3.12-6.827 3.12-16.139zM628.468 223v-66.91h4.443l25.777 61.03h.457l25.777-61.03h4.443V223h-3.92v-57.206h-.392L660.843 223h-3.854l-24.21-57.206h-.391V223h-3.92zm-506.711 51.818h-4.018q-.523-6.24-5.08-10.095-4.558-3.855-11.778-3.855-4.868 0-8.658 1.797-3.79 1.797-5.946 4.9-2.156 3.104-2.156 7.123 0 2.58.996 4.655.997 2.075 2.826 3.692 1.83 1.617 4.345 2.826 2.516 1.209 5.554 2.123l7.319 2.157q3.757 1.143 6.942 2.646t5.554 3.577q2.369 2.075 3.692 4.852t1.323 6.403q0 5.293-2.728 9.475-2.728 4.182-7.743 6.583-5.015 2.401-11.81 2.401-6.47 0-11.255-2.189-4.787-2.189-7.564-6.093t-3.136-9h4.182q.327 4.149 2.663 7.17 2.335 3.023 6.223 4.656 3.888 1.634 8.887 1.634 5.39 0 9.507-1.846 4.116-1.846 6.436-5.146 2.32-3.3 2.32-7.677 0-3.529-1.667-6.044-1.666-2.516-4.917-4.346-3.25-1.83-8.053-3.267l-7.808-2.352q-7.841-2.385-11.974-6.501-4.133-4.117-4.133-10.259 0-5.162 2.745-9.164 2.744-4.002 7.465-6.289 4.72-2.287 10.667-2.287 5.978 0 10.552 2.303 4.574 2.304 7.253 6.306 2.68 4.002 2.973 9.131zM186.744 279h-4.181q-.654-3.398-2.45-6.583-1.798-3.185-4.624-5.75-2.826-2.565-6.55-4.068-3.725-1.502-8.233-1.502-6.6 0-12.137 3.512-5.538 3.512-8.854 10.307-3.316 6.796-3.316 16.63 0 9.899 3.316 16.694 3.316 6.796 8.854 10.275 5.538 3.48 12.137 3.48 4.508 0 8.233-1.487 3.724-1.487 6.55-4.051 2.826-2.565 4.623-5.767 1.797-3.201 2.45-6.6h4.182q-.718 4.052-2.76 7.94-2.042 3.888-5.358 7.04-3.316 3.153-7.809 4.999-4.492 1.846-10.111 1.846-8.364 0-14.734-4.264-6.371-4.263-9.981-12.006-3.61-7.743-3.61-18.1 0-10.356 3.61-18.099t9.98-12.006q6.371-4.264 14.735-4.264 5.62 0 10.111 1.846 4.493 1.846 7.809 4.966t5.358 7.008q2.042 3.888 2.76 8.004zm16.766 46h-4.084v-66.91h20.615q6.338 0 10.912 2.484 4.574 2.483 7.024 6.877t2.45 10.21q0 5.75-2.45 10.111-2.45 4.362-7.008 6.812-4.557 2.45-10.895 2.45h-18.459v-3.822h18.36q5.163 0 8.822-1.928 3.659-1.927 5.62-5.407 1.96-3.48 1.96-8.216 0-4.77-1.96-8.315-1.961-3.545-5.636-5.505-3.676-1.96-8.838-1.96H203.51V325zm18.785-30.318h4.607L243.368 325h-4.705l-16.368-30.318zm50.907-31.331L251.182 325h-4.313l24.144-66.91h4.704L299.861 325h-4.313l-22.02-61.65h-.326zm-15.91 40.25v-3.79h32.147v3.79H257.29zm61.131-41.72h-21.399v-3.79h46.882v3.79h-21.399V325h-4.084v-63.12zM404.026 279h-4.182q-.654-3.398-2.45-6.583-1.797-3.185-4.623-5.75-2.826-2.565-6.55-4.068-3.725-1.502-8.234-1.502-6.6 0-12.137 3.512-5.538 3.512-8.854 10.307-3.316 6.796-3.316 16.63 0 9.899 3.316 16.694 3.317 6.796 8.854 10.275 5.538 3.48 12.137 3.48 4.509 0 8.233-1.487 3.725-1.487 6.55-4.051 2.827-2.565 4.623-5.767 1.797-3.201 2.45-6.6h4.183q-.72 4.052-2.761 7.94-2.042 3.888-5.358 7.04-3.316 3.153-7.808 4.999-4.492 1.846-10.112 1.846-8.363 0-14.734-4.264-6.37-4.263-9.981-12.006-3.61-7.743-3.61-18.1 0-10.356 3.61-18.099t9.98-12.006q6.372-4.264 14.735-4.264 5.62 0 10.112 1.846t7.808 4.966q3.316 3.12 5.358 7.008t2.76 8.004zm16.765 46h-4.084v-66.91h4.084v31.528h40.316V258.09h4.083V325h-4.083v-31.592H420.79V325z" fill="#FFF" fill-rule="nonzero"></path><path d="M177.864 754.301q-25.466 0-43.446-14.678-17.98-14.678-27.588-42.502t-9.608-66.848q0-38.907 9.608-66.671 9.609-27.765 27.706-42.562 18.098-14.796 43.328-14.796 25.23 0 43.327 14.796 18.097 14.797 27.706 42.562 9.609 27.764 9.609 66.67 0 39.025-9.609 66.849-9.609 27.824-27.588 42.502-17.98 14.678-43.445 14.678zm0-19.807q27.941 0 43.622-27.293 15.68-27.293 15.68-76.928 0-33.012-7.133-56.414-7.132-23.403-20.396-35.782-13.263-12.38-31.773-12.38-27.706 0-43.505 27.53-15.798 27.529-15.798 77.046 0 33.011 7.133 56.355 7.133 23.344 20.396 35.605 13.264 12.261 31.774 12.261zm169.602-228.721q15.09.118 29.298 6.13 14.206 6.013 25.642 19.218 11.436 13.204 18.157 35.015 6.72 21.811 6.72 53.644 0 29.592-5.188 54.233-5.187 24.64-15.503 42.62-10.316 17.98-25.938 27.824-15.621 9.844-36.49 9.844-19.452 0-34.484-8.135t-24.346-22.577q-9.314-14.443-11.554-33.424h21.693q3.183 19.335 15.622 31.832 12.438 12.497 33.07 12.497 29.592 0 45.98-27.588 16.388-27.588 16.388-78.52H405q-5.659 10.611-14.796 18.51-9.137 7.9-20.81 12.32-11.67 4.422-24.64 4.422-20.16 0-36.902-10.198-16.741-10.199-26.762-27.942-10.022-17.744-10.022-40.498 0-21.575 9.491-39.673 9.49-18.097 26.645-28.885 17.154-10.787 40.262-10.67zm0 19.807q-15.68 0-28.119 8.017-12.438 8.017-19.689 21.516-7.25 13.5-7.25 29.887 0 16.388 7.25 29.77 7.251 13.38 19.69 21.22 12.438 7.841 28.118 7.841 12.026 0 22.4-4.893 10.376-4.893 17.98-13.381 7.604-8.489 11.554-19.276 3.95-10.788 3.124-22.696-1.415-16.623-8.783-29.769-7.369-13.146-19.335-20.691-11.967-7.545-26.94-7.545z" fill="#203370" fill-rule="nonzero"></path><path fill="#FAAF40" d="M958 148.997l-32.318 18.801-19.595 11.399L873.771 198 789 149.003 873.229 100l32.519 18.797 19.732 11.405z"></path></g></svg>