<svg viewBox="0 0 1400 1000" xmlns="http://www.w3.org/2000/svg"><g fill="none" fill-rule="evenodd"><path fill="#FAAF40" d="M0 1000.001h1400V.001H0z"></path><path fill="#EA9C34" d="M234.506 202.949l-.463 82.16 44.32-25.589 387.858 225.4 53.657-30.979L332.02 228.543l44.32-25.589zm142.295-82.156l-.461 82.161 44.319-25.588 387.857 225.4 53.659-30.979-387.86-225.398 44.32-25.589zm142.297-82.155l-.463 82.161 44.319-25.589 387.859 225.398 53.659-30.977L616.611 64.233l44.321-25.589z"></path><path fill="#FFF8E3" d="M933.894 0L235.703 405.744 1266.203 1000H1400V.001z"></path><path fill="#8C4F04" d="M414.694 498.046l44.249 25.548v-.006l44.318 25.589-.09 31.623-44.249-25.548.001.005-44.319-25.588zm142.224 82.108l43.97 25.386v-.053l44.319 25.589-.09 31.623-43.971-25.388.001.056-44.319-25.588zM169.059 805.553l-.09 31.624-53.656-30.979.091-31.624z"></path><path fill="#CC801B" d="M556.918 580.156l-.09 31.625-387.859 225.396.09-31.622z"></path><path fill="#FFD592" d="M600.774 523.583l.463 82.159-44.319-25.588-387.859 225.399-53.657-30.977 387.859-225.399-44.319-25.589z"></path><path fill="#8C4F04" d="M698.864 662.053l44.319 25.588v.01l44.117 25.472-.09 31.623-44.319-25.588-.001-.009-44.116-25.471zm-387.858 225.4l-.09 31.623-53.656-30.979.091-31.625z"></path><path fill="#CC801B" d="M698.864 662.053l-.09 31.625-387.858 225.396.09-31.621z"></path><path fill="#FFD592" d="M742.721 605.482l.462 82.159-44.319-25.588-387.858 225.4-53.657-30.979 387.858-225.398-44.321-25.589z"></path><path fill="#8C4F04" d="M840.957 744.102l43.97 25.386.001-.054 44.319 25.586-.09 31.625-43.971-25.386v.055l-44.319-25.589zM453.099 969.501l-.09 31.624-53.658-30.979.091-31.625z"></path><path fill="#CC801B" d="M840.957 744.102l-.09 31.623-387.858 225.398.09-31.622z"></path><path fill="#FFD592" d="M884.814 687.529l.462 82.161-44.319-25.588-387.858 225.399-53.659-30.979L787.3 713.125l-44.321-25.589z"></path><path fill="#8C4F04" d="M982.904 826.001l44.319 25.589v.033l44.234 25.54-.09 31.625-44.319-25.589v-.035l-44.234-25.539z"></path><path fill="#CC801B" d="M982.902 826.001l-.09 31.624-387.857 225.397.09-31.624zM1124.947 908l-.09 31.623L737 1165.021l.09-31.624z"></path><path fill="#FFD592" d="M1026.76 769.427l.461 82.161-44.319-25.589-387.857 225.399-53.659-30.977L929.247 795.02l-44.321-25.586z"></path><path fill="#8C4F04" d="M1169.435 933.73l-.091 31.624-44.319-25.589.091-31.623z"></path><path fill="#FFD592" d="M1168.97 851.569l.463 82.161-44.319-25.588-387.859 225.397-53.658-30.977 387.86-225.399-44.321-25.589z"></path><path fill="#8C4F04" d="M361.037 467.068l-.09 31.624-44.319-25.589.09-31.623zM26.835 723.447l-.09 31.623-53.657-30.979.09-31.625z"></path><path fill="#CC801B" d="M414.694 498.047l-.09 31.624L26.746 755.069l.09-31.622z"></path><path fill="#FFD592" d="M458.551 441.473l.462 82.161-44.319-25.588L26.835 723.445l-53.658-30.979 387.86-225.398-44.321-25.588z"></path><path fill="#FFD592" d="M600.774 523.583l.463 82.159-44.319-25.588-387.859 225.399-53.657-30.977 387.859-225.399-44.319-25.589z"></path><path fill="#FFD592" d="M742.721 605.482l.462 82.159-44.319-25.588-387.858 225.4-53.657-30.979 387.858-225.398-44.321-25.589z"></path><path fill="#FFD592" d="M884.814 687.529l.462 82.161-44.319-25.588-387.858 225.399-53.659-30.979L787.3 713.125l-44.321-25.589z"></path><path fill="#FFD592" d="M1026.76 769.427l.461 82.161-44.319-25.589-387.857 225.399-53.659-30.977L929.247 795.02l-44.321-25.586z"></path><path fill="#FFD592" d="M1168.97 851.569l.463 82.161-44.319-25.588-387.859 225.397-53.658-30.977 387.86-225.399-44.321-25.589zM458.551 441.473l.462 82.161-44.319-25.588L26.835 723.445l-53.658-30.979 387.86-225.398-44.321-25.588z"></path><path fill="#FAAF40" d="M56.278 541.55l16.57-9.628v-62.161l-16.57 9.629z"></path><path fill="#D3862A" d="M56.278 1066.674l16.57-9.631v-62.16l-16.57 9.63z"></path><path d="M906.358 143.35L884.338 205h-4.312l24.143-66.91h4.705L933.017 205h-4.312l-22.02-61.65h-.327zm-15.91 40.25v-3.789h32.148v3.79h-32.148zm70.574 21.4h-18.557v-66.91h19.994q9.41 0 16.107 3.987 6.697 3.986 10.275 11.418 3.577 7.433 3.544 17.822-.032 10.618-3.724 18.148-3.692 7.53-10.683 11.533Q970.986 205 961.022 205zm-14.473-63.12v59.33h14.31q8.951 0 15.093-3.577 6.142-3.578 9.295-10.275 3.153-6.697 3.12-16.041 0-9.213-3.038-15.796-3.039-6.583-8.838-10.112-5.799-3.528-14.195-3.528h-15.747zm48.75-3.79h4.312l21.955 61.65h.457l21.955-61.65h4.312L1024.147 205h-4.705L995.3 138.09zm76.128 5.26l-22.02 61.65h-4.313l24.144-66.91h4.704l24.144 66.91h-4.313l-22.02-61.65h-.326zm-15.911 40.25v-3.789h32.148v3.79h-32.148zm99.095-45.51h4.051V205h-3.985l-42.668-59.493h-.392V205h-4.084v-66.91h4.019l42.667 59.56h.392v-59.56zM1225.97 159h-4.182q-.653-3.398-2.45-6.583-1.797-3.185-4.623-5.75-2.826-2.565-6.55-4.068-3.725-1.502-8.233-1.502-6.6 0-12.137 3.512-5.538 3.512-8.854 10.307-3.316 6.796-3.316 16.63 0 9.899 3.316 16.694 3.316 6.796 8.854 10.275 5.537 3.48 12.137 3.48 4.508 0 8.233-1.487 3.724-1.487 6.55-4.051 2.826-2.565 4.623-5.767 1.797-3.201 2.45-6.6h4.182q-.719 4.052-2.76 7.94-2.042 3.888-5.358 7.04-3.316 3.153-7.809 4.999-4.492 1.846-10.111 1.846-8.364 0-14.735-4.264-6.37-4.263-9.98-12.006-3.61-7.743-3.61-18.1 0-10.356 3.61-18.099t9.98-12.006q6.371-4.264 14.735-4.264 5.62 0 10.111 1.846 4.493 1.846 7.809 4.966t5.358 7.008q2.041 3.888 2.76 8.004zm50.71 46h-38.028v-66.91h37.244v3.79h-33.16v27.738h31.167v3.79h-31.167v27.802h33.944V205zm31.664 0h-18.557v-66.91h19.994q9.41 0 16.107 3.987 6.697 3.986 10.275 11.418 3.577 7.433 3.544 17.822-.032 10.618-3.724 18.148-3.692 7.53-10.683 11.533-6.992 4.002-16.956 4.002zm-14.473-63.12v59.33h14.31q8.951 0 15.093-3.577 6.142-3.578 9.295-10.275 3.153-6.697 3.12-16.041 0-9.213-3.038-15.796-3.039-6.583-8.838-10.112-5.799-3.528-14.195-3.528h-15.747zM788.227 307H769.67v-66.91h19.995q9.409 0 16.106 3.987 6.698 3.986 10.275 11.418 3.578 7.433 3.545 17.822-.033 10.618-3.725 18.148-3.691 7.53-10.683 11.533Q798.192 307 788.227 307zm-14.473-63.12v59.33h14.31q8.952 0 15.094-3.577 6.142-3.578 9.294-10.275 3.153-6.697 3.12-16.041 0-9.213-3.038-15.796-3.038-6.584-8.837-10.112-5.8-3.528-14.196-3.528h-15.747zM870.562 307h-38.028v-66.91h37.244v3.79h-33.16v27.738h31.168v3.79h-31.168v27.802h33.944V307zm17.19 0h-4.083v-66.91h20.615q6.37 0 10.928 2.615 4.558 2.613 7.008 7.154 2.45 4.542 2.45 10.357 0 5.75-2.45 10.291t-7.008 7.171q-4.557 2.63-10.895 2.63h-17.773v-3.79h17.675q5.162 0 8.82-2.107 3.66-2.107 5.62-5.782 1.96-3.676 1.96-8.413 0-4.77-1.96-8.462-1.96-3.691-5.636-5.782-3.675-2.091-8.837-2.091h-16.433V307zm86.355 0h-36.755v-66.91h4.084v63.12h32.67V307zm62.602-33.455q0 10.357-3.594 18.084-3.594 7.726-9.98 12.006-6.388 4.28-14.719 4.28-8.363 0-14.75-4.296-6.388-4.297-9.981-12.023-3.594-7.727-3.594-18.05 0-10.357 3.61-18.067 3.61-7.71 9.98-12.007 6.372-4.296 14.735-4.296 8.331 0 14.718 4.28 6.387 4.28 9.981 12.006 3.594 7.727 3.594 18.083zm-3.986 0q0-9.31-3.12-16.139-3.12-6.828-8.609-10.569-5.488-3.74-12.578-3.74-7.09 0-12.578 3.708-5.489 3.708-8.609 10.552-3.12 6.845-3.12 16.188 0 9.246 3.088 16.09 3.087 6.845 8.576 10.602 5.488 3.757 12.643 3.757 7.09 0 12.578-3.74 5.489-3.741 8.609-10.57 3.12-6.827 3.12-16.139zm31.075 3.104l-24.078-36.558h4.835l21.073 32.278h.457l21.073-32.278h4.835l-24.078 36.558V307h-4.117v-30.35zm37.74 30.351v-66.91h4.444l25.777 61.03h.457l25.777-61.03h4.443V307h-3.92v-57.206h-.392L1133.914 307h-3.854l-24.21-57.206h-.391V307h-3.92zm115.267 0h-38.028v-66.91h37.244v3.79h-33.16v27.738h31.167v3.79h-31.167v27.802h33.944V307zm60.185-66.91h4.051V307h-3.986l-42.667-59.493h-.392V307h-4.084v-66.91h4.018l42.668 59.56h.392v-59.56zm37.348 3.79h-21.4v-3.79h46.883v3.79h-21.4V307h-4.083v-63.12zM885.69 358.818h-4.018q-.523-6.24-5.08-10.095-4.558-3.855-11.778-3.855-4.868 0-8.658 1.797-3.79 1.797-5.946 4.9-2.156 3.104-2.156 7.123 0 2.58.996 4.655.997 2.075 2.826 3.692 1.83 1.617 4.345 2.826 2.516 1.209 5.554 2.123l7.319 2.157q3.757 1.143 6.942 2.646t5.554 3.577q2.369 2.075 3.692 4.852t1.323 6.403q0 5.293-2.728 9.475-2.728 4.182-7.743 6.583-5.015 2.401-11.81 2.401-6.47 0-11.255-2.189-4.787-2.189-7.564-6.093t-3.136-9h4.182q.327 4.149 2.663 7.17 2.335 3.023 6.223 4.656 3.888 1.634 8.887 1.634 5.39 0 9.507-1.846 4.116-1.846 6.436-5.146 2.32-3.3 2.32-7.677 0-3.529-1.667-6.044-1.666-2.516-4.917-4.346-3.25-1.83-8.053-3.267l-7.808-2.352q-7.841-2.385-11.974-6.501-4.133-4.117-4.133-10.259 0-5.162 2.745-9.164 2.744-4.002 7.465-6.289 4.72-2.287 10.667-2.287 5.978 0 10.552 2.303 4.574 2.304 7.253 6.306 2.68 4.002 2.973 9.131zm30.977-12.937h-21.399v-3.79h46.882v3.79h-21.399V409h-4.084v-63.12zM958.132 409h-4.084v-66.91h20.615q6.338 0 10.912 2.484 4.574 2.483 7.024 6.877t2.45 10.21q0 5.75-2.45 10.111-2.45 4.362-7.008 6.812-4.557 2.45-10.895 2.45h-18.459v-3.822h18.36q5.163 0 8.822-1.928 3.659-1.927 5.62-5.407 1.96-3.48 1.96-8.216 0-4.77-1.96-8.315-1.961-3.545-5.637-5.505-3.675-1.96-8.837-1.96h-16.433V409zm18.785-30.318h4.607L997.99 409h-4.705l-16.368-30.318zm50.907-31.331L1005.804 409h-4.313l24.144-66.91h4.704l24.144 66.91h-4.313l-22.02-61.65h-.326zm-15.91 40.25v-3.79h32.147v3.79h-32.148zm61.131-41.72h-21.399v-3.79h46.882v3.79h-21.399V409h-4.084v-63.12zm75.41 63.119h-38.03v-66.91h37.245v3.79h-33.16v27.738h31.167v3.79h-31.167v27.802h33.944V409zm64.17-46h-4.182q-.751-3.398-2.548-6.583-1.797-3.185-4.59-5.75-2.794-2.565-6.535-4.068-3.74-1.502-8.38-1.502-7.09 0-12.561 3.708-5.473 3.708-8.56 10.552-3.087 6.845-3.087 16.188 0 9.246 3.07 16.107 3.072 6.86 8.61 10.602 5.537 3.74 12.888 3.74 6.567 0 11.647-3.038t7.922-8.69q2.843-5.652 2.777-13.526l1.438.686h-22.739v-3.79h25.287v3.79q0 8.854-3.381 15.24-3.382 6.388-9.344 9.818-5.962 3.43-13.607 3.43-8.625 0-15.061-4.28-6.436-4.279-9.981-12.005-3.545-7.727-3.545-18.084 0-7.775 2.026-14.113 2.025-6.338 5.782-10.863 3.757-4.525 8.952-6.959 5.195-2.434 11.467-2.434 5.685 0 10.226 1.879 4.541 1.878 7.857 5.03 3.317 3.154 5.375 7.025 2.058 3.872 2.777 7.89zm14.021-20.91h4.084V409h-4.084v-66.91zM1285.1 409h-38.028v-66.91h37.244v3.79h-33.16v27.738h31.167v3.79h-31.167v27.802h33.944V409zm53.193-50.182h-4.018q-.523-6.24-5.08-10.095-4.558-3.855-11.778-3.855-4.868 0-8.658 1.797-3.79 1.797-5.946 4.9-2.156 3.104-2.156 7.123 0 2.58.996 4.655.997 2.075 2.826 3.692 1.83 1.617 4.346 2.826 2.515 1.209 5.554 2.123l7.318 2.157q3.757 1.143 6.942 2.646 3.186 1.503 5.554 3.577 2.369 2.075 3.692 4.852t1.323 6.403q0 5.293-2.728 9.475-2.728 4.182-7.743 6.583-5.015 2.401-11.81 2.401-6.469 0-11.255-2.189-4.786-2.189-7.563-6.093t-3.137-9h4.182q.327 4.149 2.663 7.17 2.336 3.023 6.224 4.656 3.887 1.634 8.886 1.634 5.39 0 9.507-1.846 4.116-1.846 6.436-5.146 2.32-3.3 2.32-7.677 0-3.529-1.667-6.044-1.666-2.516-4.916-4.346-3.251-1.83-8.054-3.267l-7.808-2.352q-7.84-2.385-11.974-6.501-4.132-4.117-4.132-10.259 0-5.162 2.744-9.164t7.465-6.289q4.72-2.287 10.667-2.287 5.979 0 10.553 2.303 4.573 2.304 7.252 6.306 2.68 4.002 2.973 9.131z" fill="#5B534C" fill-rule="nonzero"></path><path d="M1095.864 719.301q-25.466 0-43.446-14.678-17.98-14.678-27.588-42.502t-9.608-66.848q0-38.907 9.608-66.671 9.609-27.765 27.706-42.562 18.098-14.796 43.328-14.796 25.23 0 43.327 14.796 18.097 14.797 27.706 42.562 9.609 27.764 9.609 66.67 0 39.025-9.609 66.849-9.609 27.824-27.588 42.502-17.98 14.678-43.445 14.678zm0-19.807q27.941 0 43.622-27.293 15.68-27.293 15.68-76.928 0-33.012-7.133-56.414-7.132-23.403-20.396-35.782-13.263-12.38-31.773-12.38-27.706 0-43.505 27.53-15.798 27.529-15.798 77.046 0 33.011 7.133 56.355 7.133 23.344 20.396 35.605 13.264 12.261 31.774 12.261zm175.379 19.807q-22.283 0-39.85-8.076-17.566-8.076-27.823-22.46-10.257-14.383-10.847-33.129h22.283q.59 13.205 8.135 23.05 7.545 9.844 20.042 15.326 12.497 5.482 27.824 5.482 16.742 0 29.534-6.248 12.791-6.249 20.042-17.154 7.25-10.906 7.25-24.7 0-14.62-7.427-25.82-7.427-11.2-21.28-17.448-13.853-6.249-33.07-6.249h-14.148v-19.807h14.147q15.68 0 27.765-5.718t19.04-16.093q6.957-10.375 6.957-24.405 0-13.322-6.013-23.461-6.013-10.14-16.918-15.917-10.906-5.777-25.407-5.777-14.03 0-25.702 5.424-11.672 5.423-18.805 15.326-7.132 9.904-7.604 23.462h-21.34q.472-18.864 10.434-33.188 9.963-14.325 26.527-22.4 16.565-8.077 36.726-8.077 21.339 0 36.902 8.725 15.562 8.724 24.11 23.167 8.547 14.442 8.547 31.773 0 20.632-11.2 35.31-11.2 14.679-30.182 20.338v1.532q23.108 4.598 36.372 20.456 13.263 15.857 13.263 38.847 0 19.335-10.14 34.72-10.138 15.387-27.764 24.288-17.626 8.901-40.38 8.901z" fill="#EA9C34" fill-rule="nonzero"></path><g transform="translate(45.000000, 52.000000)" fill="#FFF"><path d="M50.391 31.8c-1.386 0-2.559 1.173-2.559 2.558 0 1.387 1.173 2.559 2.557 2.559 1.386 0 2.56-1.172 2.56-2.56 0-1.384-1.173-2.557-2.56-2.557"></path><path d="M36.747 1.04c-1.386-1.387-3.517-1.387-4.904 0L1.04 31.845c-1.387 1.386-1.387 3.517 0 4.904l30.803 30.803c1.387 1.388 3.518 1.388 4.904 0l30.805-30.804c1.385-1.386 1.385-3.518 0-4.903L36.747 1.04zm13.644 39.12c-2.025 0-3.838-1.067-4.798-2.666a73.27 73.27 0 0 0-2.237 6.077c-2.346 6.5-3.944 10.659-5.97 12.151-1.067 1.065-2.451 1.704-4.157 1.704a5.731 5.731 0 0 1-5.755-5.708v-.048c0-2.025 1.065-3.838 2.664-4.795a73.293 73.293 0 0 0-6.077-2.24c-6.5-2.344-10.657-3.941-12.15-5.968-1.066-1.067-1.705-2.451-1.705-4.158a5.729 5.729 0 0 1 5.708-5.754h.047c2.025 0 3.839 1.065 4.796 2.664a73.493 73.493 0 0 0 2.24-6.076c2.344-6.502 3.943-10.658 5.97-12.15 1.065-1.067 2.45-1.706 4.156-1.706a5.73 5.73 0 0 1 5.756 5.708v.047c0 2.024-1.067 3.836-2.664 4.796a73.499 73.499 0 0 0 6.074 2.24c6.503 2.346 10.66 3.943 12.152 5.97 1.066 1.064 1.707 2.449 1.707 4.156 0 3.091-2.559 5.755-5.759 5.755h.002z"></path><path d="M190.455 37.284c-.107-.428-.426-.962-.746-1.281-.32-.426-.853-.745-1.494-1.063-.638-.322-1.384-.641-2.346-1.067-.424-.215-.85-.321-1.171-.427-.318-.107-.531-.32-.746-.428-.213-.105-.319-.21-.319-.425-.107-.106-.107-.32-.107-.427 0-.745.64-1.065 2.024-1.065.748 0 1.387.105 1.92.215.534.105 1.066.318 1.599.424l.747-3.303c-.534-.215-1.173-.321-2.025-.534-.853-.213-1.707-.213-2.666-.213-1.811 0-3.304.426-4.264 1.28-.958.852-1.597 1.917-1.597 3.303 0 .745.105 1.385.319 1.811.213.534.532.96.852 1.28.426.323.852.639 1.386.959.532.32 1.172.533 1.812.746a19 19 0 0 1 1.918.852c.427.214.641.535.641.854 0 .426-.215.745-.534.852-.32.108-.852.215-1.706.215-.745 0-1.492-.107-2.238-.215l-2.239-.639-.745 3.411c.319.106.96.321 1.812.534.851.212 2.024.32 3.304.32 2.023 0 3.624-.428 4.69-1.173 1.065-.747 1.704-1.919 1.704-3.411.428-.32.321-.852.215-1.385zm-16.524-4.647c.745-.425 1.28-1.065 1.812-1.917.534-.747.745-1.598.745-2.559 0-.64-.105-1.28-.317-1.917-.215-.64-.641-1.174-1.173-1.707a5.511 5.511 0 0 0-2.025-1.28 8.31 8.31 0 0 0-2.986-.532c-.96 0-1.918.106-2.665.427-.76.273-1.452.71-2.024 1.28-.534.533-1.066 1.172-1.279 1.812-.321.744-.428 1.384-.428 2.236 0 .96.215 1.814.534 2.454a7.518 7.518 0 0 0 1.813 1.918 9.647 9.647 0 0 0-1.067.96c-.321.319-.639.637-.852 1.066-.321.425-.428.85-.64 1.278a6.39 6.39 0 0 0-.212 1.598c0 .534.105 1.172.32 1.813.213.639.638 1.28 1.171 1.812a6.17 6.17 0 0 0 2.132 1.385c.852.32 2.025.533 3.304.533 1.173 0 2.132-.106 3.091-.424a7.706 7.706 0 0 0 2.238-1.281c.641-.531 1.065-1.173 1.28-1.919.321-.747.426-1.492.426-2.346 0-1.066-.213-1.916-.745-2.663-.641-.64-1.386-1.385-2.453-2.026v-.001zm-6.288-5.009c.107-.212.213-.532.426-.747.213-.212.428-.425.747-.532.32-.105.639-.213 1.065-.213.428 0 .853.108 1.066.213.32.107.535.321.746.532.178.188.322.404.427.64.106.214.106.427.106.64 0 .747-.214 1.28-.533 1.812a3.24 3.24 0 0 1-1.385 1.28c-1.067-.428-1.811-.852-2.345-1.385-.428-.535-.64-1.066-.64-1.707.106 0 .212-.213.32-.533zm4.37 11.724c-.427.428-1.174.748-2.132.748-.534 0-.958-.107-1.28-.214a2.312 2.312 0 0 1-.85-.532 3.285 3.285 0 0 1-.536-.747c-.105-.32-.105-.532-.105-.745 0-.748.213-1.387.533-1.92.32-.532.852-.959 1.385-1.383.534.21 1.066.319 1.494.532.425.212.852.425 1.173.639.317.212.637.531.852.85.213.323.319.748.319 1.174-.11.61-.408 1.17-.854 1.6v-.002zm-13.328-.718c-.532-.747-1.173-1.492-1.812-2.238a14.561 14.561 0 0 0-1.812-1.812c1.173-1.173 2.24-2.238 3.198-3.305a897.944 897.944 0 0 1 2.985-3.304h-5.01c-.32.32-.534.745-.96 1.173-.32.425-.745.852-1.172 1.384-.425.533-.852.962-1.279 1.494-.428.533-.852.959-1.278 1.385V20.833l-4.264.64v21.53h4.264v-6.607c.426.425.959.852 1.493 1.386.53.533.958 1.172 1.384 1.706.428.64.852 1.171 1.278 1.812.428.64.747 1.171 1.068 1.599h4.902c-.32-.641-.745-1.279-1.173-2.133-.639-.533-1.173-1.279-1.812-2.132zm-16.797-8.811c-.428-.637-1.067-1.065-1.918-1.384-.746-.322-1.813-.533-2.986-.533-1.279 0-2.45.105-3.517.212-.96.213-1.812.322-2.451.532v14.391h2.664V30.462c.106 0 .213 0 .426-.105.213 0 .428-.105.747-.105.32 0 .534 0 .852-.11h.853c.746 0 1.28.11 1.813.322.425.213.851.426 1.172.852.32.427.533.958.64 1.598.106.641.211 1.386.211 2.345v7.782h2.667v-8.314c0-.96-.107-1.919-.321-2.772-.107-.851-.426-1.598-.85-2.132h-.002zm-14.663-1.764c-.319 0-.533-.107-.851-.107h-.748c-1.171 0-2.238.107-3.091.32-.959.215-1.706.426-2.346.64v14.175h2.667V30.618c.105 0 .426-.108.959-.214.534-.105.958-.105 1.492-.105.745 0 1.385.105 1.918.105.533.106.854.214 1.067.32l.426-2.346c-.106 0-.321-.106-.534-.106-.426-.106-.639-.213-.959-.213zm-12.742 1.313c-.426-.533-1.067-.852-1.812-1.174-.747-.32-1.599-.425-2.666-.425-.958 0-1.811.105-2.558.214-.745.105-1.385.32-1.704.426l.319 2.238c.32-.107.852-.213 1.493-.427.773-.139 1.558-.21 2.344-.213.64 0 1.28.108 1.706.32.425.215.746.427 1.066.852.213.32.426.747.534 1.173.105.426.105.852.105 1.28v.744c-.105 0-.213 0-.426-.105-.213 0-.427-.106-.64-.106-.212 0-.533-.107-.851-.107h-.853c-.854 0-1.601.107-2.453.213-.746.213-1.385.426-2.025.852a4.323 4.323 0 0 0-1.386 1.386c-.32.639-.534 1.28-.534 2.132 0 .853.108 1.6.428 2.239.32.639.639 1.065 1.173 1.492a9.546 9.546 0 0 0 1.812.852c.745.212 1.492.212 2.344.212.64 0 1.173 0 1.812-.105.64 0 1.173-.105 1.706-.105.532-.108.96-.108 1.385-.214.426-.107.747-.107.959-.107v-9.273c0-.854-.105-1.6-.32-2.345a5.388 5.388 0 0 0-.958-1.92zm-1.385 11.618c-.322.107-.746.107-1.172.107h-1.706c-1.067 0-1.92-.213-2.453-.532-.64-.322-.96-1.067-.96-2.027 0-.534.108-.958.322-1.278.212-.321.532-.532.958-.747.427-.213.745-.321 1.28-.321.425-.105.852-.105 1.277-.105.641 0 1.173 0 1.6.105.427.11.746.11.961.215v4.584h-.106zM95.194 27.798c-.852 0-1.704.212-2.558.531-.853.321-1.492.855-2.131 1.494a6.34 6.34 0 0 0-1.494 2.451c-.426.96-.531 2.133-.531 3.413 0 1.171.105 2.13.424 3.088a6.99 6.99 0 0 0 1.388 2.454 7.576 7.576 0 0 0 2.344 1.598c.959.425 2.025.534 3.305.534.933.012 1.865-.098 2.77-.322.853-.212 1.387-.318 1.708-.532l-.323-2.24c-.318.11-.85.322-1.49.428-.64.215-1.387.215-2.346.215-1.705 0-2.878-.428-3.624-1.173-.747-.748-1.279-1.92-1.386-3.518h10.127v-.96c0-2.559-.534-4.476-1.599-5.649-1.067-1.171-2.665-1.812-4.584-1.812zm-3.942 6.395a33.6 33.6 0 0 1 .318-1.493c.213-.533.427-.959.747-1.278.32-.426.745-.639 1.173-.96.426-.212.959-.321 1.597-.321 1.066 0 1.919.428 2.558 1.175.64.747.962 1.704.853 2.983h-7.246v-.106zm-6.767 6.31c-.214-.213-.32-.426-.32-.638-.107-.32-.107-.64-.107-1.066V20.89l-2.664.427v17.801c0 1.385.321 2.45 1.065 3.092.64.639 1.812 1.065 3.519 1.065l.32-2.238c-.428-.106-.748-.106-1.067-.213a.97.97 0 0 1-.746-.321zM33.161 19.625c1.384 0 2.557-1.174 2.557-2.56 0-1.386-1.173-2.559-2.558-2.559-1.387 0-2.558 1.174-2.558 2.56 0 1.492 1.171 2.559 2.558 2.559zm-4.025 1.552c-.321-.321-.64-.64-.852-1.067a73.262 73.262 0 0 0-2.24 6.076c-2.344 6.504-3.943 10.66-5.968 12.151-.321.32-.64.64-1.067.853a73.826 73.826 0 0 0 6.077 2.239c6.501 2.344 10.657 3.943 12.15 5.968.321.32.639.64.854 1.065a74.001 74.001 0 0 0 2.237-6.075c2.345-6.502 3.944-10.657 5.969-12.15.321-.321.64-.64 1.066-.853a74.77 74.77 0 0 0-6.075-2.24c-6.502-2.236-10.765-3.837-12.151-5.968v.001zm4.024 27.852c-1.387 0-2.558 1.173-2.558 2.559 0 1.386 1.171 2.557 2.558 2.557 1.385 0 2.558-1.173 2.558-2.557 0-1.386-1.173-2.559-2.558-2.559zM15.93 31.8c-1.383 0-2.556 1.173-2.556 2.558 0 1.387 1.173 2.559 2.556 2.559 1.387 0 2.559-1.172 2.559-2.56 0-1.384-1.172-2.557-2.56-2.557z"></path></g></g></svg>