<svg viewBox="0 0 1400 1000" xmlns="http://www.w3.org/2000/svg"><g fill="none" fill-rule="evenodd"><path fill="#FFF" d="M0 0h1400v1000H0z"></path><path fill="#2E72E8" d="M1400.213 1000H.213v-20.108L1400 171.926z"></path><path fill="#57B3FF" d="M1399.71 172.094v680.383L810.471 512.206z"></path><g transform="translate(272.000000, 213.000000)"><path d="M894.238 254.437l57.185 61.532-.122.883-.211 1.487c-4.344 29.999-52.564 336.887-224.687 468.676L411.251 787l-16.532-119.99L840.09 295.086l54.147-40.649z" fill="#0B4489"></path><path d="M488.611 786.999H.265l380.653-217.081 1.764-.971c27.87-15.387 377.182-210.019 424.312-325.06 25.594-4.228 90.743 45.958 90.743 45.958l-.147.786c-3.187 16.816-59.534 298.899-274.8 419.848L488.612 787z" fill="#145BAF"></path><path d="M632.892 14.266L657.08.21l134.708 77.775.897.524c.793.466 1.584.946 2.372 1.435l1.497.934a136.15 136.15 0 0 1 3.883 2.566l.378.27c.49.337.974.692 1.46 1.037l1.427 1.006c.237.17.474.34.71.514l.704.537c.58.432 1.152.875 1.728 1.317l1.056.8c.175.133.35.268.525.406l.96.783c.62.499 1.237 1.003 1.85 1.512.419.345.842.675 1.257 1.025.387.328.767.675 1.152 1.006.63.54 1.255 1.087 1.877 1.637l1.036.903c.436.394.865.81 1.298 1.207a160.32 160.32 0 0 1 1.872 1.743c.282.265.568.52.848.79.497.476.983.972 1.476 1.457l.867.852 1.515 1.502c.581.592 1.149 1.207 1.725 1.81l.793.825.788.832c.143.154.29.3.435.454.77.833 1.527 1.686 2.285 2.534l.547.603.545.606c.059.068.12.133.181.2.795.906 1.583 1.82 2.365 2.743l1.204 1.438.57.702c.982 1.193 1.96 2.39 2.92 3.61l.173.23c.98 1.247 1.95 2.508 2.906 3.782l.952 1.28.032.045a217.143 217.143 0 0 1 5.193 7.395l.599.854.596.92c.609.92 1.204 1.849 1.799 2.779.534.833 1.068 1.664 1.59 2.506.584.941 1.156 1.89 1.725 2.839.354.59.72 1.17 1.07 1.76l.336.6a224.871 224.871 0 0 1 2.987 5.267l.962 1.774.223.396c.392.734.761 1.477 1.146 2.216l.95 1.827.74 1.446c.557 1.117 1.09 2.244 1.63 3.368l.705 1.458c.687 1.467 1.358 2.94 2.01 4.415l.205.48c.197.447.384.897.577 1.344.363.845.736 1.688 1.088 2.535l.51 1.27.352.869.923 2.301c.29.748.562 1.5.844 2.248l.297.784.542 1.448c.334.921.658 1.846.977 2.77l.648 1.89c.527 1.575 1.032 3.15 1.514 4.727l.142.481c.171.57.331 1.138.498 1.707l.52 1.762c.086.294.17.588.251.882l.259.984c.183.673.355 1.345.53 2.018.16.615.333 1.232.486 1.848.128.513.237 1.023.357 1.535.16.668.317 1.338.468 2.004l.292 1.251c.162.748.303 1.496.454 2.243l.189.916.325 1.61c.16.858.31 1.713.454 2.568l.345 2.052c.241 1.537.46 3.067.652 4.594l.055.486c.061.488.107.97.163 1.457l.193 1.691c.031.282.06.563.088.844l.093 1.164c.051.588.097 1.177.141 1.765.038.505.089 1.015.12 1.516.042.66.06 1.313.093 1.969l.041.836.073 1.617c.027.92.045 1.838.053 2.753l.003 1.371-.068 24.239-24.188 14.055.07-24.238a128 128 0 0 0-.094-4.905c-.02-.56-.05-1.12-.078-1.68a134.893 134.893 0 0 0-.592-7.701l-.136-1.232c-.054-.491-.102-.98-.163-1.47-.212-1.72-.45-3.441-.724-5.172l-.12-.704c-.245-1.5-.512-3.002-.801-4.508l-.185-.926-.191-.924a173.734 173.734 0 0 0-.743-3.474 174.916 174.916 0 0 0-1.31-5.39c-.176-.676-.35-1.351-.533-2.026-.217-.801-.443-1.602-.674-2.404l-.35-1.202c-.17-.576-.33-1.152-.506-1.73-.355-1.17-.72-2.34-1.097-3.508l-.577-1.754-.155-.443c-.544-1.61-1.11-3.215-1.698-4.818l-.293-.787-.297-.784a197.535 197.535 0 0 0-3.173-7.951l-.54-1.263c-.195-.452-.384-.906-.583-1.358a208.44 208.44 0 0 0-2.304-5.075c-.2-.428-.414-.853-.618-1.28-.62-1.3-1.25-2.597-1.898-3.886l-.469-.921-.955-1.838c-.45-.867-.9-1.74-1.362-2.603a225.206 225.206 0 0 0-3.952-7.045l-.695-1.172-.703-1.17c-.573-.956-1.147-1.91-1.735-2.856-.519-.837-1.05-1.665-1.58-2.492a206.394 206.394 0 0 0-1.809-2.794l-.592-.883-.596-.88a233.093 233.093 0 0 0-4.132-5.941l-1.063-1.459a201.764 201.764 0 0 0-6.946-8.898l-.61-.756a198.029 198.029 0 0 0-3.747-4.376l-1.104-1.224c-.897-1-1.797-1.997-2.71-2.975l-.786-.829-.79-.821c-.79-.828-1.582-1.653-2.383-2.462-.571-.573-1.147-1.137-1.722-1.703a207.73 207.73 0 0 0-2.334-2.256 199.878 199.878 0 0 0-4.199-3.846 141.418 141.418 0 0 0-1.884-1.642 171.45 171.45 0 0 0-4.255-3.54c-.562-.45-1.126-.894-1.692-1.333l-.85-.657c-.575-.442-1.148-.887-1.726-1.317a144.817 144.817 0 0 0-2.846-2.06c-.485-.344-.967-.698-1.455-1.034a136.359 136.359 0 0 0-4.298-2.856l-.269-.165a134.88 134.88 0 0 0-3.342-2.052l-1.12-.656-134.708-77.774z" fill="#FFF"></path><path d="M767.6 92.04c50.497 29.155 91.307 99.84 91.144 157.867l-.07 24.238L745.06 208.55C682.906 172.665 632.69 85.687 632.89 14.266L767.6 92.04z" fill="#145BAF"></path><path d="M944.664 194.31a136.84 136.84 0 0 0-4.487-2.394c-.672-.342-1.341-.673-2.008-.995l-1-.475c-.434-.206-.873-.418-1.306-.616-1.057-.48-2.11-.945-3.157-1.381l-1.065-.436a90.46 90.46 0 0 0-4.146-1.535l-.66-.22-.657-.212a88.417 88.417 0 0 0-2.792-.865 88.111 88.111 0 0 0-4.143-1.075 74.46 74.46 0 0 0-1.61-.357 57.707 57.707 0 0 0-1.567-.299l-.779-.136c-.618-.107-1.239-.217-1.85-.306a50.94 50.94 0 0 0-1.452-.182l-.721-.08c-.658-.073-1.318-.15-1.97-.2a37.743 37.743 0 0 0-1.267-.075l-.631-.029a59.693 59.693 0 0 0-2.324-.076c-.554-.005-1.098.013-1.645.025a53.35 53.35 0 0 0-2.877.136c-.688.051-1.377.102-2.055.18-.294.036-.592.067-.886.106a50.03 50.03 0 0 0-3.294.542c-.286.058-.563.138-.847.2-.872.196-1.74.4-2.59.638l-.411.125-.816.261c-.681.214-1.36.432-2.026.673-.82.301-1.62.64-2.416.985l-.782.327c-.13.055-.26.111-.387.17-.933.439-1.851.901-2.75 1.399l-.669.38 24.188-14.054a43.13 43.13 0 0 1 3.418-1.78c.128-.06.257-.117.387-.172l.783-.326a45.451 45.451 0 0 1 2.416-.984l.397-.162c.533-.189 1.085-.342 1.627-.512l.816-.262c.137-.043.273-.084.412-.123a46.44 46.44 0 0 1 2.59-.636l.423-.103.521-.122a48.584 48.584 0 0 1 4.085-.624l.787-.099c.131-.015.263-.03.396-.042.286-.027.583-.02.87-.042a55.06 55.06 0 0 1 2.877-.136c.335-.007.656-.044.993-.046l.653.022c.766.003 1.543.04 2.322.075.444.022.875.013 1.32.044l.58.06c.65.05 1.31.127 1.967.2.509.056 1.009.087 1.52.155l.655.107c.612.09 1.232.2 1.85.306l.996.16c.166.026.333.055.501.088.28.055.568.13.848.189.536.109 1.073.233 1.612.357l.857.187c.143.031.286.064.43.1.274.067.552.148.83.227l.414.115c.536.143 1.073.289 1.612.445.308.089.612.16.921.254.617.188 1.246.406 1.869.612l.658.212 1.133.372c.91.32 1.826.66 2.745 1.017l.958.379c1.209.483 2.422.998 3.645 1.545l.542.255c.439.2.88.413 1.32.62l1.225.573c.205.096.41.195.615.297.386.188.776.402 1.16.601l.742.38 1.843.958c.644.348 1.29.706 1.936 1.072l.971.553 134.708 77.774-24.187 14.057-134.708-77.773-1.006-.572z" fill="#FFF"></path><path d="M1080.378 272.656a146.9 146.9 0 0 1-.155 6.183c-.025.575-.073 1.132-.105 1.702-.082 1.39-.174 2.77-.294 4.122-.07.786-.158 1.557-.242 2.33a124.332 124.332 0 0 1-.41 3.406c-.112.826-.237 1.642-.367 2.455a109.803 109.803 0 0 1-1.067 5.75 103.564 103.564 0 0 1-1.418 5.77 93.026 93.026 0 0 1-.682 2.355 88.856 88.856 0 0 1-1.185 3.574c-.224.634-.438 1.276-.675 1.895a79.615 79.615 0 0 1-2.407 5.712 74.393 74.393 0 0 1-2.098 4.128c-.006.012-.013.023-.018.035a69.33 69.33 0 0 1-2.363 3.953c-.167.258-.345.501-.514.758a65.119 65.119 0 0 1-1.93 2.756c-.266.36-.54.714-.813 1.066a58.968 58.968 0 0 1-1.938 2.37c-.252.292-.497.591-.752.877a57.55 57.55 0 0 1-2.807 2.939c-.136.133-.28.252-.416.382a55.061 55.061 0 0 1-2.586 2.31c-.32.27-.646.528-.97.788a54.05 54.05 0 0 1-2.306 1.75c-.323.23-.644.468-.972.693a54.303 54.303 0 0 1-3.339 2.126l24.188-14.057a51.981 51.981 0 0 0 3.339-2.127c.328-.222.647-.46.972-.693a53.92 53.92 0 0 0 2.303-1.746c.327-.26.653-.522.975-.79a58.195 58.195 0 0 0 2.578-2.304c.138-.134.284-.255.422-.39a57.482 57.482 0 0 0 2.805-2.937c.257-.286.502-.585.755-.879a59.202 59.202 0 0 0 1.936-2.37c.274-.352.546-.705.813-1.066a63.026 63.026 0 0 0 1.93-2.755c.17-.255.348-.5.513-.758.049-.077.102-.147.15-.223a68.362 68.362 0 0 0 2.233-3.766 72.835 72.835 0 0 0 2.015-3.932c.028-.061.052-.13.081-.194a79.502 79.502 0 0 0 2.409-5.712c.065-.17.145-.32.207-.493.169-.452.305-.943.466-1.404a88.9 88.9 0 0 0 1.187-3.571c.098-.323.22-.624.314-.95.135-.456.238-.943.366-1.405.282-1.013.55-2.04.804-3.084.104-.425.23-.826.328-1.258.107-.466.187-.96.287-1.433.19-.886.37-1.781.54-2.688.088-.465.196-.912.278-1.385.095-.55.163-1.124.252-1.68.127-.807.251-1.621.365-2.444.056-.422.133-.826.187-1.253.089-.71.146-1.447.223-2.166.085-.768.17-1.533.24-2.315.028-.318.07-.62.096-.939.087-1.045.138-2.125.2-3.192.032-.57.078-1.126.105-1.7.005-.141.018-.276.025-.417.075-1.787.12-3.599.128-5.442l.001-.324-24.187 14.057z" fill="#0B4489"></path><path d="M945.67 194.883l134.708 77.773c-.202 71.42-50.747 100.224-112.887 64.348l-113.616-65.596.07-24.238c.165-58.025 41.226-81.442 91.725-52.287" fill="#145BAF"></path><path fill="#DCEDFF" d="M590.681 495.234v89.976l-78.285-45.209v-89.974z"></path><path fill="#FFF" d="M590.681 495.234l-78.285-45.207 78.695-45.206 77.873 45.206z"></path><path fill="#A1C3E5" d="M590.681 495.234v89.976l78.283-45.209v-89.974zm-17.372 8.996l-4.364-2.52c-.005.057-.033.104-.033.162v51.735l4.37 2.522c.001-.047.027-.086.027-.136V504.23zm-19.572-11.303l-4.364-2.52c-.004.056-.033.106-.033.164v51.732l4.368 2.523c.003-.048.029-.087.029-.136v-51.763zm-19.573-11.302l-4.362-2.52c-.005.059-.034.106-.034.164v51.733l4.37 2.522c.003-.047.026-.086.026-.136v-51.763z"></path><path d="M612.417 501.709l-4.364 2.52v51.764c0 .048.024.087.027.136l4.37-2.524v-51.733c0-.058-.03-.107-.033-.163m19.571-11.302l-4.363 2.52v51.765c0 .047.024.086.028.136l4.369-2.525v-51.73c0-.06-.03-.108-.034-.166m19.572-11.303l-4.363 2.52v51.764c0 .048.024.087.028.136l4.369-2.522v-51.733c0-.06-.03-.107-.034-.165" fill="#2E72E8"></path><path fill="#DCEDFF" d="M468.859 585.427v89.974l-78.285-45.208v-89.974z"></path><path fill="#FFF" d="M468.859 585.427l-78.285-45.208 78.695-45.206 77.875 45.206z"></path><path fill="#A1C3E5" d="M468.859 585.429v89.974l78.285-45.208v-89.976zm-17.374 8.993l-4.364-2.52c-.003.057-.032.104-.032.162v51.734l4.369 2.523c.003-.047.027-.087.027-.136v-51.763zm-19.57-11.302l-4.364-2.52c-.004.059-.033.106-.033.166v51.732l4.37 2.522c.003-.046.027-.087.027-.136V583.12zm-19.573-11.301l-4.363-2.52c-.004.058-.033.106-.033.163v51.735l4.37 2.52c0-.045.026-.086.026-.135v-51.763z"></path><path d="M490.593 591.902l-4.363 2.52v51.765c0 .047.023.088.027.136l4.37-2.523v-51.734c0-.058-.03-.107-.034-.164m19.573-11.299l-4.364 2.517v51.765c0 .048.025.089.027.136l4.37-2.523v-51.73c0-.06-.03-.11-.033-.165m19.572-11.303l-4.364 2.517v51.765c0 .048.025.088.027.138l4.37-2.525v-51.733c0-.057-.03-.107-.033-.163" fill="#2E72E8"></path><path fill="#DCEDFF" d="M412.342 682.317v89.974l-78.285-45.208v-89.974z"></path><path fill="#FFF" d="M412.342 682.317l-78.285-45.208 78.695-45.207 77.875 45.207z"></path><path fill="#A1C3E5" d="M412.342 682.317v89.974l78.285-45.208v-89.974zm-17.372 8.995l-4.364-2.52c-.003.056-.032.106-.032.163v51.735l4.369 2.52c.003-.045.027-.084.027-.135v-51.763zm-19.572-11.304l-4.364-2.517c-.003.056-.032.105-.032.163v51.733l4.369 2.52c.003-.045.027-.084.027-.135v-51.764zm-19.572-11.301l-4.364-2.518c-.003.056-.032.105-.032.163v51.733l4.369 2.523c.001-.048.027-.087.027-.138v-51.763z"></path><path d="M434.079 688.792l-4.364 2.518v51.765c0 .05.024.088.027.138l4.37-2.525v-51.733c0-.057-.03-.107-.033-.163m19.57-11.302l-4.364 2.52v51.763c0 .05.026.089.027.138l4.371-2.524v-51.731c0-.06-.03-.11-.034-.165m19.572-11.304l-4.364 2.52v51.763c0 .05.026.088.027.138l4.371-2.525v-51.73c0-.06-.03-.11-.034-.166" fill="#2E72E8"></path><path fill="#DCEDFF" d="M231.85 654.93v89.976l-78.285-45.208v-89.974z"></path><path fill="#FFF" d="M231.85 654.93l-78.285-45.206 78.695-45.207 77.873 45.207z"></path><path fill="#A1C3E5" d="M231.85 654.93v89.976l78.283-45.208v-89.974zm-17.372 8.996l-4.364-2.52c-.004.057-.032.105-.032.162v51.735l4.369 2.523c.001-.048.027-.087.027-.136v-51.764zm-19.572-11.301l-4.364-2.52c-.004.058-.033.106-.033.164V702l4.37 2.523c.001-.048.027-.087.027-.136v-51.763zm-19.572-11.304l-4.364-2.519c-.004.058-.033.105-.033.163v51.733l4.37 2.523c.001-.048.027-.087.027-.136V641.32z"></path><path d="M253.586 661.407l-4.364 2.52v51.764c0 .048.024.087.028.136l4.369-2.524V661.57c0-.058-.03-.107-.033-.163m19.571-11.303l-4.364 2.519v51.765c0 .048.024.087.027.136l4.369-2.523V650.27c0-.06-.029-.108-.032-.165m19.572-11.303l-4.364 2.52v51.764c0 .048.025.087.027.136l4.37-2.522v-51.733c0-.06-.03-.107-.033-.165" fill="#2E72E8"></path><path fill="#DCEDFF" d="M390.574 540.44v89.974l-78.283-45.206v-89.976z"></path><path fill="#FFF" d="M390.574 540.44l-78.283-45.208 78.694-45.205 77.874 45.205z"></path><path fill="#A1C3E5" d="M390.574 540.44v89.974l78.285-45.206v-89.976zm-17.372 8.995l-4.364-2.518c-.004.056-.033.104-.033.162v51.734l4.37 2.523c.003-.048.027-.087.027-.136v-51.765zm-19.572-11.302l-4.363-2.52c-.005.057-.034.106-.034.164v51.733l4.37 2.522c.003-.047.027-.086.027-.136v-51.763zm-19.573-11.301l-4.362-2.52c-.005.056-.034.106-.034.163v51.733l4.37 2.523c.003-.048.026-.087.026-.136v-51.763z"></path><path d="M412.308 546.915l-4.363 2.52V601.2c0 .047.025.086.028.136l4.37-2.525V547.08c0-.058-.03-.108-.035-.164m19.572-11.302l-4.363 2.52v51.764c0 .048.025.087.029.136l4.369-2.524v-51.731c0-.06-.031-.11-.034-.165m19.572-11.304l-4.363 2.52v51.765c0 .047.024.087.028.136l4.369-2.525v-51.73c0-.06-.03-.108-.034-.166" fill="#2E72E8"></path><g transform="translate(435.000000, 285.458714)"><path fill="#DCEDFF" d="M78.285 90.415v89.974L0 135.181V45.206z"></path><path fill="#FFF" d="M78.285 90.415L0 45.206 78.695 0l77.873 45.206z"></path><path fill="#A1C3E5" d="M78.285 90.415v89.974l78.283-45.208V45.206zM60.913 99.41l-4.364-2.52c-.004.056-.032.105-.032.163v51.734l4.369 2.522c.001-.046.027-.087.027-.136V99.409zM41.34 88.108l-4.363-2.52c-.004.058-.033.107-.033.165v51.733l4.37 2.52c.001-.045.027-.086.027-.135V88.108zM21.769 76.804l-4.364-2.517c-.004.056-.033.105-.033.163v51.733l4.37 2.522c.001-.047.027-.088.027-.137V76.804z"></path><path d="M100.021 96.888l-4.364 2.52v51.765c0 .049.024.088.028.137l4.369-2.524V97.053c0-.06-.03-.107-.033-.165m19.571-11.3l-4.364 2.518v51.765c0 .05.024.088.027.138l4.369-2.525v-51.73c0-.06-.029-.11-.032-.166m19.572-11.301l-4.364 2.519v51.763c0 .05.025.089.027.138l4.37-2.524V74.452c0-.06-.03-.11-.033-.165" fill="#2E72E8"></path></g></g><g transform="translate(1169.000000, 894.000000)" fill="#FFF"><path d="M50.391 31.8c-1.386 0-2.559 1.173-2.559 2.558 0 1.387 1.173 2.559 2.557 2.559 1.386 0 2.56-1.172 2.56-2.56 0-1.384-1.173-2.557-2.56-2.557"></path><path d="M36.747 1.04c-1.386-1.387-3.517-1.387-4.904 0L1.04 31.845c-1.387 1.386-1.387 3.517 0 4.904l30.803 30.803c1.387 1.388 3.518 1.388 4.904 0l30.805-30.804c1.385-1.386 1.385-3.518 0-4.903L36.747 1.04zm13.644 39.12c-2.025 0-3.838-1.067-4.798-2.666a73.27 73.27 0 0 0-2.237 6.077c-2.346 6.5-3.944 10.659-5.97 12.151-1.067 1.065-2.451 1.704-4.157 1.704a5.731 5.731 0 0 1-5.755-5.708v-.048c0-2.025 1.065-3.838 2.664-4.795a73.293 73.293 0 0 0-6.077-2.24c-6.5-2.344-10.657-3.941-12.15-5.968-1.066-1.067-1.705-2.451-1.705-4.158a5.729 5.729 0 0 1 5.708-5.754h.047c2.025 0 3.839 1.065 4.796 2.664a73.493 73.493 0 0 0 2.24-6.076c2.344-6.502 3.943-10.658 5.97-12.15 1.065-1.067 2.45-1.706 4.156-1.706a5.73 5.73 0 0 1 5.756 5.708v.047c0 2.024-1.067 3.836-2.664 4.796a73.499 73.499 0 0 0 6.074 2.24c6.503 2.346 10.66 3.943 12.152 5.97 1.066 1.064 1.707 2.449 1.707 4.156 0 3.091-2.559 5.755-5.759 5.755h.002z"></path><path d="M190.455 37.284c-.107-.428-.426-.962-.746-1.281-.32-.426-.853-.745-1.494-1.063-.638-.322-1.384-.641-2.346-1.067-.424-.215-.85-.321-1.171-.427-.318-.107-.531-.32-.746-.428-.213-.105-.319-.21-.319-.425-.107-.106-.107-.32-.107-.427 0-.745.64-1.065 2.024-1.065.748 0 1.387.105 1.92.215.534.105 1.066.318 1.599.424l.747-3.303c-.534-.215-1.173-.321-2.025-.534-.853-.213-1.707-.213-2.666-.213-1.811 0-3.304.426-4.264 1.28-.958.852-1.597 1.917-1.597 3.303 0 .745.105 1.385.319 1.811.213.534.532.96.852 1.28.426.323.852.639 1.386.959.532.32 1.172.533 1.812.746a19 19 0 0 1 1.918.852c.427.214.641.535.641.854 0 .426-.215.745-.534.852-.32.108-.852.215-1.706.215-.745 0-1.492-.107-2.238-.215l-2.239-.639-.745 3.411c.319.106.96.321 1.812.534.851.212 2.024.32 3.304.32 2.023 0 3.624-.428 4.69-1.173 1.065-.747 1.704-1.919 1.704-3.411.428-.32.321-.852.215-1.385zm-16.524-4.647c.745-.425 1.28-1.065 1.812-1.917.534-.747.745-1.598.745-2.559 0-.64-.105-1.28-.317-1.917-.215-.64-.641-1.174-1.173-1.707a5.511 5.511 0 0 0-2.025-1.28 8.31 8.31 0 0 0-2.986-.532c-.96 0-1.918.106-2.665.427-.76.273-1.452.71-2.024 1.28-.534.533-1.066 1.172-1.279 1.812-.321.744-.428 1.384-.428 2.236 0 .96.215 1.814.534 2.454a7.518 7.518 0 0 0 1.813 1.918 9.647 9.647 0 0 0-1.067.96c-.321.319-.639.637-.852 1.066-.321.425-.428.85-.64 1.278a6.39 6.39 0 0 0-.212 1.598c0 .534.105 1.172.32 1.813.213.639.638 1.28 1.171 1.812a6.17 6.17 0 0 0 2.132 1.385c.852.32 2.025.533 3.304.533 1.173 0 2.132-.106 3.091-.424a7.706 7.706 0 0 0 2.238-1.281c.641-.531 1.065-1.173 1.28-1.919.321-.747.426-1.492.426-2.346 0-1.066-.213-1.916-.745-2.663-.641-.64-1.386-1.385-2.453-2.026v-.001zm-6.288-5.009c.107-.212.213-.532.426-.747.213-.212.428-.425.747-.532.32-.105.639-.213 1.065-.213.428 0 .853.108 1.066.213.32.107.535.321.746.532.178.188.322.404.427.64.106.214.106.427.106.64 0 .747-.214 1.28-.533 1.812a3.24 3.24 0 0 1-1.385 1.28c-1.067-.428-1.811-.852-2.345-1.385-.428-.535-.64-1.066-.64-1.707.106 0 .212-.213.32-.533zm4.37 11.724c-.427.428-1.174.748-2.132.748-.534 0-.958-.107-1.28-.214a2.312 2.312 0 0 1-.85-.532 3.285 3.285 0 0 1-.536-.747c-.105-.32-.105-.532-.105-.745 0-.748.213-1.387.533-1.92.32-.532.852-.959 1.385-1.383.534.21 1.066.319 1.494.532.425.212.852.425 1.173.639.317.212.637.531.852.85.213.323.319.748.319 1.174-.11.61-.408 1.17-.854 1.6v-.002zm-13.328-.718c-.532-.747-1.173-1.492-1.812-2.238a14.561 14.561 0 0 0-1.812-1.812c1.173-1.173 2.24-2.238 3.198-3.305a897.944 897.944 0 0 1 2.985-3.304h-5.01c-.32.32-.534.745-.96 1.173-.32.425-.745.852-1.172 1.384-.425.533-.852.962-1.279 1.494-.428.533-.852.959-1.278 1.385V20.833l-4.264.64v21.53h4.264v-6.607c.426.425.959.852 1.493 1.386.53.533.958 1.172 1.384 1.706.428.64.852 1.171 1.278 1.812.428.64.747 1.171 1.068 1.599h4.902c-.32-.641-.745-1.279-1.173-2.133-.639-.533-1.173-1.279-1.812-2.132zm-16.797-8.811c-.428-.637-1.067-1.065-1.918-1.384-.746-.322-1.813-.533-2.986-.533-1.279 0-2.45.105-3.517.212-.96.213-1.812.322-2.451.532v14.391h2.664V30.462c.106 0 .213 0 .426-.105.213 0 .428-.105.747-.105.32 0 .534 0 .852-.11h.853c.746 0 1.28.11 1.813.322.425.213.851.426 1.172.852.32.427.533.958.64 1.598.106.641.211 1.386.211 2.345v7.782h2.667v-8.314c0-.96-.107-1.919-.321-2.772-.107-.851-.426-1.598-.85-2.132h-.002zm-14.663-1.764c-.319 0-.533-.107-.851-.107h-.748c-1.171 0-2.238.107-3.091.32-.959.215-1.706.426-2.346.64v14.175h2.667V30.618c.105 0 .426-.108.959-.214.534-.105.958-.105 1.492-.105.745 0 1.385.105 1.918.105.533.106.854.214 1.067.32l.426-2.346c-.106 0-.321-.106-.534-.106-.426-.106-.639-.213-.959-.213zm-12.742 1.313c-.426-.533-1.067-.852-1.812-1.174-.747-.32-1.599-.425-2.666-.425-.958 0-1.811.105-2.558.214-.745.105-1.385.32-1.704.426l.319 2.238c.32-.107.852-.213 1.493-.427.773-.139 1.558-.21 2.344-.213.64 0 1.28.108 1.706.32.425.215.746.427 1.066.852.213.32.426.747.534 1.173.105.426.105.852.105 1.28v.744c-.105 0-.213 0-.426-.105-.213 0-.427-.106-.64-.106-.212 0-.533-.107-.851-.107h-.853c-.854 0-1.601.107-2.453.213-.746.213-1.385.426-2.025.852a4.323 4.323 0 0 0-1.386 1.386c-.32.639-.534 1.28-.534 2.132 0 .853.108 1.6.428 2.239.32.639.639 1.065 1.173 1.492a9.546 9.546 0 0 0 1.812.852c.745.212 1.492.212 2.344.212.64 0 1.173 0 1.812-.105.64 0 1.173-.105 1.706-.105.532-.108.96-.108 1.385-.214.426-.107.747-.107.959-.107v-9.273c0-.854-.105-1.6-.32-2.345a5.388 5.388 0 0 0-.958-1.92zm-1.385 11.618c-.322.107-.746.107-1.172.107h-1.706c-1.067 0-1.92-.213-2.453-.532-.64-.322-.96-1.067-.96-2.027 0-.534.108-.958.322-1.278.212-.321.532-.532.958-.747.427-.213.745-.321 1.28-.321.425-.105.852-.105 1.277-.105.641 0 1.173 0 1.6.105.427.11.746.11.961.215v4.584h-.106zM95.194 27.798c-.852 0-1.704.212-2.558.531-.853.321-1.492.855-2.131 1.494a6.34 6.34 0 0 0-1.494 2.451c-.426.96-.531 2.133-.531 3.413 0 1.171.105 2.13.424 3.088a6.99 6.99 0 0 0 1.388 2.454 7.576 7.576 0 0 0 2.344 1.598c.959.425 2.025.534 3.305.534.933.012 1.865-.098 2.77-.322.853-.212 1.387-.318 1.708-.532l-.323-2.24c-.318.11-.85.322-1.49.428-.64.215-1.387.215-2.346.215-1.705 0-2.878-.428-3.624-1.173-.747-.748-1.279-1.92-1.386-3.518h10.127v-.96c0-2.559-.534-4.476-1.599-5.649-1.067-1.171-2.665-1.812-4.584-1.812zm-3.942 6.395a33.6 33.6 0 0 1 .318-1.493c.213-.533.427-.959.747-1.278.32-.426.745-.639 1.173-.96.426-.212.959-.321 1.597-.321 1.066 0 1.919.428 2.558 1.175.64.747.962 1.704.853 2.983h-7.246v-.106zm-6.767 6.31c-.214-.213-.32-.426-.32-.638-.107-.32-.107-.64-.107-1.066V20.89l-2.664.427v17.801c0 1.385.321 2.45 1.065 3.092.64.639 1.812 1.065 3.519 1.065l.32-2.238c-.428-.106-.748-.106-1.067-.213a.97.97 0 0 1-.746-.321zM33.161 19.625c1.384 0 2.557-1.174 2.557-2.56 0-1.386-1.173-2.559-2.558-2.559-1.387 0-2.558 1.174-2.558 2.56 0 1.492 1.171 2.559 2.558 2.559zm-4.025 1.552c-.321-.321-.64-.64-.852-1.067a73.262 73.262 0 0 0-2.24 6.076c-2.344 6.504-3.943 10.66-5.968 12.151-.321.32-.64.64-1.067.853a73.826 73.826 0 0 0 6.077 2.239c6.501 2.344 10.657 3.943 12.15 5.968.321.32.639.64.854 1.065a74.001 74.001 0 0 0 2.237-6.075c2.345-6.502 3.944-10.657 5.969-12.15.321-.321.64-.64 1.066-.853a74.77 74.77 0 0 0-6.075-2.24c-6.502-2.236-10.765-3.837-12.151-5.968v.001zm4.024 27.852c-1.387 0-2.558 1.173-2.558 2.559 0 1.386 1.171 2.557 2.558 2.557 1.385 0 2.558-1.173 2.558-2.557 0-1.386-1.173-2.559-2.558-2.559zM15.93 31.8c-1.383 0-2.556 1.173-2.556 2.558 0 1.387 1.173 2.559 2.556 2.559 1.387 0 2.559-1.172 2.559-2.56 0-1.384-1.172-2.557-2.56-2.557z"></path></g><path d="M157.425 171H120.67v-66.91h4.084v63.12h32.67V171zm11.995-66.91h4.084V171h-4.084v-66.91zm67.503 0h4.051V171h-3.985l-42.668-59.493h-.392V171h-4.084v-66.91h4.019l42.667 59.56h.392v-59.56zm65.706 44.073v-44.072h4.084v44.301q0 6.828-3.169 12.17-3.169 5.341-8.74 8.429-5.57 3.087-12.79 3.087-7.187 0-12.774-3.087-5.587-3.088-8.772-8.446-3.185-5.357-3.153-12.153v-44.301h4.084v44.072q0 5.783 2.63 10.292 2.63 4.508 7.27 7.105 4.639 2.598 10.715 2.598 6.077 0 10.716-2.598 4.64-2.597 7.27-7.105 2.63-4.509 2.63-10.292zm13.662-44.072h4.933l19.766 30.285h.36l19.765-30.285h4.933l-21.987 33.454L366.048 171h-4.933l-19.766-30.09h-.359L321.224 171h-4.933l22.183-33.455-22.183-33.454zM449.467 125h-4.181q-.654-3.398-2.45-6.583-1.798-3.185-4.624-5.75-2.826-2.565-6.55-4.068-3.724-1.502-8.233-1.502-6.6 0-12.137 3.512-5.538 3.512-8.854 10.307-3.316 6.796-3.316 16.63 0 9.899 3.316 16.694 3.316 6.796 8.854 10.275 5.538 3.48 12.137 3.48 4.509 0 8.233-1.487t6.55-4.051q2.826-2.565 4.623-5.767 1.797-3.201 2.45-6.6h4.182q-.718 4.052-2.76 7.94-2.042 3.888-5.358 7.04-3.316 3.153-7.809 4.999-4.492 1.846-10.111 1.846-8.364 0-14.734-4.264-6.371-4.263-9.981-12.006-3.61-7.743-3.61-18.1 0-10.356 3.61-18.099t9.98-12.006q6.371-4.264 14.735-4.264 5.62 0 10.111 1.846 4.493 1.846 7.809 4.966t5.358 7.008q2.042 3.888 2.76 8.004zm65.902 12.545q0 10.357-3.593 18.084-3.594 7.726-9.981 12.006-6.387 4.28-14.718 4.28-8.364 0-14.751-4.296-6.387-4.297-9.98-12.023-3.595-7.727-3.595-18.05 0-10.357 3.61-18.067 3.61-7.71 9.981-12.007 6.371-4.296 14.735-4.296 8.33 0 14.718 4.28 6.387 4.28 9.98 12.006 3.594 7.727 3.594 18.083zm-3.985 0q0-9.31-3.12-16.139-3.12-6.828-8.61-10.569-5.488-3.74-12.577-3.74-7.09 0-12.578 3.708-5.49 3.708-8.61 10.552-3.12 6.845-3.12 16.188 0 9.246 3.088 16.09 3.088 6.845 8.576 10.602 5.489 3.757 12.644 3.757 7.09 0 12.578-3.74 5.488-3.741 8.608-10.57 3.12-6.827 3.12-16.139zm64.007-33.454h4.05V171h-3.985l-42.668-59.493h-.392V171h-4.083v-66.91h4.018l42.668 59.56h.392v-59.56zm37.348 3.79h-21.4v-3.79h46.883v3.79h-21.4V171h-4.083v-63.12zm48.978 1.47L639.697 171h-4.312l24.143-66.91h4.705L688.376 171h-4.312l-22.02-61.65h-.327zm-15.91 40.25v-3.79h32.148v3.79h-32.148zm52.017-45.51h4.084V171h-4.084v-66.91zm67.503 0h4.05V171h-3.985l-42.668-59.493h-.392V171h-4.083v-66.91h4.018l42.668 59.56h.392v-59.56zM823.747 171H785.72v-66.91h37.244v3.79h-33.16v27.738h31.167v3.79h-31.167v27.802h33.944V171zm17.19 0h-4.083v-66.91h20.615q6.338 0 10.912 2.484 4.574 2.483 7.024 6.877t2.45 10.21q0 5.75-2.45 10.111-2.45 4.362-7.008 6.812t-10.896 2.45h-18.458v-3.822h18.36q5.162 0 8.821-1.928 3.66-1.927 5.62-5.407t1.96-8.216q0-4.77-1.96-8.315t-5.636-5.505q-3.675-1.96-8.837-1.96h-16.433V171zm18.786-30.318h4.607L880.795 171h-4.704l-16.368-30.318zm71.554-19.864h-4.018q-.523-6.24-5.08-10.095-4.558-3.855-11.778-3.855-4.868 0-8.658 1.797-3.79 1.797-5.946 4.9-2.156 3.104-2.156 7.123 0 2.58.996 4.655.997 2.075 2.826 3.692 1.83 1.617 4.345 2.826 2.516 1.209 5.554 2.123l7.318 2.157q3.758 1.143 6.943 2.646 3.185 1.503 5.554 3.577 2.368 2.075 3.692 4.852 1.323 2.777 1.323 6.403 0 5.293-2.728 9.475-2.728 4.182-7.743 6.583-5.015 2.401-11.81 2.401-6.47 0-11.255-2.189-4.787-2.189-7.564-6.093t-3.136-9h4.182q.326 4.149 2.662 7.17 2.336 3.023 6.224 4.656 3.888 1.634 8.887 1.634 5.39 0 9.507-1.846 4.116-1.846 6.436-5.146 2.32-3.3 2.32-7.677 0-3.529-1.667-6.044-1.666-2.516-4.917-4.346-3.25-1.83-8.053-3.267l-7.808-2.352q-7.841-2.385-11.974-6.501-4.133-4.117-4.133-10.259 0-5.162 2.744-9.164 2.745-4.002 7.466-6.289 4.72-2.287 10.667-2.287 5.978 0 10.552 2.303 4.574 2.304 7.253 6.306 2.679 4.002 2.973 9.131zM140.11 211.35L118.09 273h-4.313l24.143-66.91h4.705L166.768 273h-4.312l-22.02-61.65h-.327zm-15.911 40.25v-3.789h32.148v3.79h-32.148zm99.095-45.51h4.051V273h-3.986l-42.667-59.493h-.392V273h-4.084v-66.91h4.018l42.668 59.56h.392v-59.56zM262.243 273h-18.557v-66.91h19.994q9.41 0 16.107 3.987 6.697 3.986 10.275 11.418 3.577 7.433 3.545 17.822-.033 10.618-3.725 18.148-3.692 7.53-10.683 11.533Q272.207 273 262.243 273zm-14.473-63.12v59.33h14.31q8.951 0 15.093-3.577 6.142-3.578 9.295-10.275 3.153-6.697 3.12-16.041 0-9.213-3.038-15.796-3.039-6.583-8.838-10.112-5.799-3.528-14.195-3.528H247.77zM333.509 273h-4.084v-66.91h4.084v38.846h.457l35.284-38.845h5.423l-29.044 31.658L374.412 273h-5.097l-26.3-32.311-9.506 10.52V273zm96.024-22.837v-44.072h4.083v44.301q0 6.828-3.169 12.17-3.169 5.341-8.739 8.429-5.57 3.087-12.79 3.087-7.188 0-12.775-3.087-5.586-3.088-8.772-8.446-3.185-5.358-3.152-12.153v-44.301h4.084v44.072q0 5.783 2.63 10.292 2.63 4.508 7.269 7.105 4.639 2.598 10.716 2.598 6.076 0 10.716-2.598 4.639-2.597 7.269-7.105 2.63-4.509 2.63-10.292zM473.447 273h-23.49v-66.91h21.726q6.077 0 10.259 2.157 4.182 2.156 6.354 6.044 2.173 3.888 2.173 9.05 0 4.051-1.307 7.187-1.307 3.137-3.643 5.179-2.336 2.042-5.472 2.826v.392q3.463.261 6.436 2.401 2.973 2.14 4.786 5.799 1.813 3.66 1.813 8.527 0 5.13-2.205 9.033-2.205 3.904-6.583 6.11Q479.916 273 473.447 273zm-19.406-32.115v28.325h19.406q7.547 0 11.615-3.79 4.067-3.79 4.067-9.768 0-4.214-1.976-7.547-1.977-3.332-5.473-5.276-3.495-1.944-8.102-1.944h-19.537zm0-31.004v27.28h19.047q4.28 0 7.27-1.863 2.989-1.862 4.573-4.998 1.585-3.137 1.585-6.96 0-6.206-3.855-9.833-3.856-3.626-10.978-3.626h-17.642zM544.217 273H506.19v-66.91h37.244v3.79h-33.16v27.738h31.167v3.79h-31.167v27.802h33.944V273zm17.19 0h-4.083v-66.91h20.615q6.338 0 10.912 2.484 4.574 2.483 7.024 6.877t2.45 10.21q0 5.75-2.45 10.111-2.45 4.362-7.008 6.812-4.557 2.45-10.895 2.45h-18.46v-3.822h18.362q5.162 0 8.82-1.928 3.66-1.927 5.62-5.407t1.96-8.216q0-4.77-1.96-8.315t-5.636-5.505q-3.675-1.96-8.837-1.96h-16.433V273zm18.786-30.318h4.607L601.266 273h-4.705l-16.368-30.318zm78.546-36.591h4.05V273h-3.985l-42.668-59.493h-.392V273h-4.083v-66.91h4.018l42.668 59.56h.392v-59.56zM717.159 273h-38.028v-66.91h37.244v3.79h-33.16v27.738h31.167v3.79h-31.168v27.802h33.945V273zm30.063-63.12h-21.4v-3.79h46.883v3.79h-21.4V273h-4.083v-63.12zM822.63 273h-38.029v-66.91h37.245v3.79h-33.16v27.738h31.167v3.79h-31.168v27.802h33.945V273zm53.193-50.182h-4.019q-.522-6.24-5.08-10.095-4.557-3.855-11.778-3.855-4.867 0-8.657 1.797t-5.946 4.9q-2.157 3.104-2.157 7.123 0 2.58.997 4.655.996 2.075 2.826 3.692t4.345 2.826q2.516 1.209 5.554 2.123l7.318 2.157q3.757 1.143 6.943 2.646 3.185 1.503 5.554 3.577 2.368 2.075 3.691 4.852 1.324 2.777 1.324 6.403 0 5.293-2.728 9.475-2.728 4.182-7.743 6.583-5.015 2.401-11.81 2.401-6.47 0-11.256-2.189-4.786-2.189-7.563-6.093t-3.136-9h4.182q.326 4.149 2.662 7.17 2.336 3.023 6.224 4.656 3.888 1.634 8.886 1.634 5.391 0 9.507-1.846 4.117-1.846 6.437-5.146 2.32-3.3 2.32-7.677 0-3.529-1.667-6.044-1.666-2.516-4.917-4.346-3.25-1.83-8.053-3.267l-7.808-2.352q-7.841-2.385-11.974-6.501-4.133-4.117-4.133-10.259 0-5.162 2.744-9.164 2.745-4.002 7.466-6.289 4.72-2.287 10.666-2.287 5.98 0 10.553 2.303 4.574 2.304 7.253 6.306 2.679 4.002 2.973 9.131zM197.864 593.301q-25.466 0-43.446-14.678-17.98-14.678-27.588-42.502t-9.608-66.848q0-38.907 9.608-66.671 9.609-27.765 27.706-42.562 18.098-14.796 43.328-14.796 25.23 0 43.327 14.796 18.097 14.797 27.706 42.562 9.609 27.764 9.609 66.67 0 39.025-9.609 66.849-9.609 27.824-27.588 42.502-17.98 14.678-43.445 14.678zm0-19.807q27.941 0 43.622-27.293 15.68-27.293 15.68-76.928 0-33.012-7.133-56.414-7.132-23.403-20.396-35.782-13.263-12.38-31.773-12.38-27.706 0-43.505 27.53-15.798 27.529-15.798 77.046 0 33.011 7.133 56.355 7.133 23.344 20.396 35.605 13.264 12.261 31.774 12.261zm148.498-224.949h22.99V590h-22.047V371.653h-1.414l-56.591 37.61V386.39l57.062-37.846z" fill="#0B469B" fill-rule="nonzero"></path></g></svg>