<svg viewBox="0 0 1400 1000" xmlns="http://www.w3.org/2000/svg"><g fill="none" fill-rule="evenodd"><path fill="#203370" d="M.001 1012.192h1431.213V.221H.001z"></path><path fill="#2F96EA" d="M1346.247 509.873l84.968 49.577v-27.554l-72.974-42.578zm-50.152 29.748l135.118 78.839v-27.555l-123.124-71.839zm-50.148 29.751l185.266 108.102v-27.556l-173.274-101.102zm-50.15 29.749l235.416 137.363v-27.555l-223.424-130.365zm-50.15 29.751l285.568 166.624v-27.555L1157.64 608.316z"></path><path fill="#203370" d="M1100.072 462.409v192.212l331.143-191.227-329.408-.991z"></path><path fill="#0851BA" d="M768.927 1011.071h331.145V192.437L768.927 1.209z"></path><path fill="#203370" d="M1100.072 192.437v818.633h331.143V1.209z"></path><path fill="#2F96EA" d="M768.927 1.209l331.145 191.228L1431.213 1.209 1101.807.221z"></path><path fill="#FFF" d="M1100.072 766.516v36.477L794.969 626.69v-36.477z"></path><path fill="#203370" d="M1100.072 833.077L768.929 641.725l26.04-15.034 304.645 176.302z"></path><path fill="#203370" d="M794.969 590.213l-26.04-15.038v66.555l26.04-15.04z"></path><path fill="#FFF" d="M1100.072 766.516v36.477l305.1-176.303v-36.477z"></path><path fill="#203370" d="M1100.072 833.077l331.143-191.352-26.043-15.034-304.643 176.302z"></path><path fill="#FFF" d="M1100.072 432.507v36.477L794.969 292.68v-36.476z"></path><path fill="#203370" d="M1100.072 499.066L768.929 307.714l26.04-15.034 304.645 176.302z"></path><path fill="#203370" d="M794.969 256.204l-26.04-15.04v66.555l26.04-15.039z"></path><path fill="#FFF" d="M1100.072 432.507v36.477l305.1-176.304v-36.476z"></path><path fill="#203370" d="M1100.072 499.066l331.143-191.352-26.043-15.034-304.643 176.302z"></path><path d="M135.54 329.642h-6.933l-1.583 5.498h-3.078l6.693-21.755h2.929l6.634 21.755h-3.078l-1.584-5.498zm-6.23-2.407h5.543l-2.72-9.502h-.09l-2.733 9.502zm16.083.015c0-2.579.466-4.655 1.397-6.222.932-1.57 2.244-2.355 3.937-2.355.757 0 1.432.17 2.025.509.593.338 1.103.828 1.531 1.465v-8.816h3.019v23.309h-2.645l-.224-1.853c-.428.707-.954 1.244-1.576 1.613-.623.369-1.338.553-2.145.553-1.683 0-2.99-.716-3.922-2.151-.931-1.435-1.397-3.347-1.397-5.738v-.314zm3.033.315c0 1.703.244 3.053.733 4.049.488.996 1.26 1.494 2.315 1.494.658 0 1.218-.18 1.681-.539.463-.358.84-.862 1.128-1.51v-7.858c-.288-.667-.665-1.196-1.128-1.583-.463-.39-1.013-.583-1.65-.583-1.057 0-1.834.573-2.332 1.718-.498 1.146-.747 2.644-.747 4.497v.315zm20.464 2.718l.254 1.256h.09l.254-1.256 2.749-11.31h3.123l-4.842 16.167h-2.674l-4.871-16.167h3.138zm19.465 4.857a12.3 12.3 0 0 1-.269-1.083 7.822 7.822 0 0 1-.134-1.07 5.77 5.77 0 0 1-1.688 1.779 3.935 3.935 0 0 1-2.256.686c-1.365 0-2.433-.43-3.204-1.291-.774-.862-1.16-2.015-1.16-3.458 0-1.546.525-2.758 1.578-3.64 1.05-.88 2.526-1.32 4.43-1.32h2.256v-1.66c0-.986-.22-1.756-.658-2.309-.439-.552-1.06-.83-1.868-.83-.726 0-1.313.25-1.755.749-.444.498-.665 1.12-.665 1.866l-2.884-.013-.045-.09c-.049-1.247.45-2.353 1.495-3.326 1.045-.97 2.395-1.457 4.05-1.457 1.592 0 2.884.471 3.875 1.413.991.942 1.488 2.283 1.488 4.027v7.5c0 .628.037 1.233.112 1.817.075.58.197 1.152.365 1.71h-3.063zm-3.66-2.018a3.25 3.25 0 0 0 1.934-.627 3.692 3.692 0 0 0 1.279-1.57v-3.301h-2.302c-.927 0-1.646.296-2.159.89-.513.592-.768 1.317-.768 2.173 0 .726.173 1.315.522 1.763.348.45.846.672 1.494.672zm15.895-14.149l.163 2.39c.449-.847 1.017-1.506 1.703-1.979a4.025 4.025 0 0 1 2.333-.71c1.414 0 2.514.523 3.301 1.569.787 1.045 1.18 2.67 1.18 4.87v10.027h-3.033v-9.996c0-1.505-.214-2.566-.642-3.183-.429-.617-1.077-.926-1.942-.926-.619 0-1.166.192-1.644.574-.477.385-.867.905-1.166 1.563v11.968h-3.033v-16.167h2.78zm20.738 14.179c.758 0 1.396-.29 1.913-.873.518-.584.776-1.362.776-2.34h2.72l.031.09c.04 1.525-.476 2.809-1.547 3.856-1.07 1.046-2.368 1.567-3.893 1.567-2.011 0-3.553-.681-4.624-2.046-1.07-1.364-1.606-3.103-1.606-5.214v-2.227c0-2.112.535-3.854 1.606-5.23 1.071-1.373 2.608-2.062 4.61-2.062 1.632 0 2.96.546 3.982 1.638 1.02 1.09 1.516 2.502 1.486 4.234l-.044.09h-2.72c0-1.076-.247-1.95-.74-2.621-.493-.673-1.147-1.01-1.963-1.01-1.156 0-1.976.47-2.459 1.406-.482.935-.726 2.122-.726 3.555v2.227c0 1.453.244 2.645.726 3.572.483.924 1.308 1.388 2.472 1.388zm17.417 2.3c-1.923 0-3.462-.666-4.618-2-1.156-1.335-1.732-3.043-1.732-5.126v-2.361c0-2.112.564-3.854 1.695-5.23 1.13-1.373 2.567-2.062 4.311-2.062 1.833 0 3.242.626 4.228 1.876.986 1.25 1.48 2.932 1.48 5.043v2.091h-8.696v.643c0 1.394.306 2.548.92 3.46.611.91 1.48 1.366 2.605 1.366.837 0 1.554-.132 2.153-.396a6.056 6.056 0 0 0 1.703-1.157l.955 1.882c-.508.577-1.19 1.05-2.046 1.419-.857.369-1.843.553-2.958.553zm-.344-14.448c-.877 0-1.58.427-2.106 1.279-.529.851-.823 1.93-.882 3.235h5.693v-.614c0-1.144-.23-2.08-.689-2.808-.457-.728-1.13-1.092-2.016-1.092zm11.259 6.246c0-2.579.466-4.655 1.398-6.222.931-1.57 2.244-2.355 3.937-2.355.756 0 1.431.17 2.025.509.593.338 1.103.828 1.531 1.465v-8.816h3.018v23.309h-2.644l-.224-1.853c-.429.707-.954 1.244-1.576 1.613-.624.369-1.338.553-2.145.553-1.683 0-2.99-.716-3.922-2.151-.932-1.435-1.398-3.347-1.398-5.738v-.314zm3.035.315c0 1.703.243 3.053.73 4.049.489.996 1.26 1.494 2.318 1.494.656 0 1.217-.18 1.68-.539.464-.358.84-.862 1.128-1.51v-7.858c-.289-.667-.664-1.196-1.128-1.583-.463-.39-1.014-.583-1.651-.583-1.056 0-1.833.573-2.33 1.718-.499 1.146-.747 2.644-.747 4.497v.315zm31.409-2.182h-2.076v9.757h-3.034v-21.755h3.034v9.562h1.807l5.753-9.562h3.616l-6.844 10.324 7.366 11.431h-3.704zm22.508 7.589c-.428.798-.976 1.411-1.644 1.84-.666.426-1.433.64-2.3.64-1.465 0-2.604-.562-3.422-1.688-.816-1.125-1.226-2.873-1.226-5.244v-9.547h3.02v9.577c0 1.655.197 2.828.59 3.52.392.691.984 1.038 1.769 1.038.748 0 1.374-.175 1.875-.523.503-.349.904-.847 1.204-1.495v-12.117h3.032v16.167h-2.704l-.194-2.168zm21.208-4.572c0 2.143-.463 3.853-1.39 5.133-.926 1.28-2.231 1.92-3.915 1.92-.846 0-1.586-.186-2.218-.56-.632-.374-1.163-.925-1.591-1.65l-.225 1.897h-2.63v-23.31h3.033v8.845c.42-.648.927-1.142 1.525-1.486.597-.345 1.29-.517 2.078-.517 1.703 0 3.017.686 3.944 2.056.926 1.37 1.389 3.194 1.389 5.476v2.196zm-3.018-2.195c0-1.554-.247-2.804-.74-3.75-.493-.948-1.273-1.42-2.339-1.42-.676 0-1.25.202-1.725.605-.473.403-.843.944-1.114 1.622v7.769c.27.658.643 1.168 1.122 1.531.478.364 1.061.546 1.748.546 1.066 0 1.84-.423 2.324-1.27.483-.848.724-1.992.724-3.437v-2.197zm15.038 9.247c-1.922 0-3.461-.666-4.617-2-1.156-1.335-1.734-3.043-1.734-5.126v-2.361c0-2.112.566-3.854 1.697-5.23 1.13-1.373 2.567-2.062 4.31-2.062 1.833 0 3.243.626 4.229 1.876.986 1.25 1.479 2.932 1.479 5.043v2.091h-8.696v.643c0 1.394.306 2.548.918 3.46.614.91 1.483 1.366 2.608 1.366.836 0 1.554-.132 2.152-.396a6.056 6.056 0 0 0 1.704-1.157l.955 1.882c-.508.577-1.19 1.05-2.047 1.419-.857.369-1.843.553-2.958.553zm-.343-14.448c-.877 0-1.58.427-2.108 1.279-.527.851-.821 1.93-.88 3.235h5.69v-.614c0-1.144-.227-2.08-.686-2.808-.457-.728-1.13-1.092-2.016-1.092zm18.844.524l-1.42-.075c-.626 0-1.147.189-1.56.568-.415.379-.73.911-.95 1.6v11.519h-3.033v-16.167h2.764l.225 2.436c.338-.857.782-1.527 1.33-2.01a2.783 2.783 0 0 1 1.898-.726c.199 0 .403.02.612.053.21.036.374.078.493.128l-.359 2.674zm8.199-2.555l.164 2.39c.448-.847 1.016-1.506 1.703-1.979a4.024 4.024 0 0 1 2.33-.71c1.415 0 2.517.523 3.304 1.569.787 1.045 1.18 2.67 1.18 4.87v10.027h-3.033v-9.996c0-1.505-.214-2.566-.643-3.183-.428-.617-1.076-.926-1.943-.926-.617 0-1.164.192-1.642.574-.48.385-.867.905-1.166 1.563v11.968h-3.033v-16.167h2.78zm20.914 16.479c-1.923 0-3.461-.666-4.617-2-1.156-1.335-1.734-3.043-1.734-5.126v-2.361c0-2.112.566-3.854 1.696-5.23 1.13-1.373 2.567-2.062 4.311-2.062 1.833 0 3.242.626 4.228 1.876.986 1.25 1.48 2.932 1.48 5.043v2.091h-8.696v.643c0 1.394.306 2.548.918 3.46.613.91 1.482 1.366 2.608 1.366.836 0 1.553-.132 2.152-.396a6.056 6.056 0 0 0 1.703-1.157l.956 1.882c-.509.577-1.19 1.05-2.047 1.419-.857.369-1.843.553-2.958.553zm-.344-14.448c-.877 0-1.579.427-2.108 1.279-.527.851-.82 1.93-.88 3.235h5.691v-.614c0-1.144-.227-2.08-.686-2.808-.458-.728-1.13-1.092-2.017-1.092zm15.753-6.05v4.019h2.524v2.167h-2.524v9.622c0 .837.124 1.432.372 1.785.25.354.573.53.972.53.238 0 .461-.015.665-.044.204-.03.445-.074.724-.134l.315 2.091a6.62 6.62 0 0 1-2.451.462c-1.147 0-2.036-.375-2.668-1.127-.632-.751-.949-1.94-.949-3.563v-9.622h-2.106v-2.167h2.106v-4.02h3.02zm14.059 20.498c-1.923 0-3.462-.666-4.618-2-1.156-1.335-1.734-3.043-1.734-5.126v-2.361c0-2.112.567-3.854 1.697-5.23 1.13-1.373 2.567-2.062 4.311-2.062 1.833 0 3.242.626 4.228 1.876.986 1.25 1.48 2.932 1.48 5.043v2.091h-8.696v.643c0 1.394.306 2.548.918 3.46.613.91 1.482 1.366 2.607 1.366.837 0 1.554-.132 2.153-.396a6.056 6.056 0 0 0 1.703-1.157l.955 1.882c-.508.577-1.19 1.05-2.046 1.419-.857.369-1.843.553-2.958.553zm-.344-14.448c-.877 0-1.58.427-2.108 1.279-.527.851-.82 1.93-.88 3.235h5.691v-.614c0-1.144-.228-2.08-.687-2.808-.457-.728-1.13-1.092-2.016-1.092zm19.412 10.086c0-.627-.207-1.157-.62-1.59-.413-.434-1.192-.91-2.337-1.427-1.665-.648-2.897-1.338-3.7-2.07-.8-.732-1.202-1.68-1.202-2.847 0-1.244.49-2.303 1.473-3.175.98-.87 2.267-1.308 3.862-1.308 1.663 0 2.987.471 3.973 1.413.988.942 1.46 2.115 1.42 3.52l-.03.088h-2.913c0-.767-.216-1.427-.65-1.98-.433-.552-1.033-.829-1.8-.829-.758 0-1.348.214-1.771.643-.424.428-.635.931-.635 1.51 0 .616.18 1.104.544 1.463.364.359 1.15.826 2.355 1.404 1.693.609 2.95 1.297 3.772 2.07.821.773 1.233 1.76 1.233 2.966 0 1.334-.509 2.42-1.525 3.257-1.015.836-2.35 1.255-4.004 1.255-1.783 0-3.187-.505-4.212-1.517-1.027-1.01-1.515-2.193-1.466-3.548l.031-.09h2.824c.039 1.046.328 1.8.867 2.264.537.463 1.205.694 2 .694.788 0 1.403-.2 1.847-.603.443-.405.664-.925.664-1.563zm23.076 4.05h-3.034v-16.167h3.034v16.167zm0-20.41h-3.034v-2.899h3.034v2.898zm9.588 4.243l.165 2.39c.449-.847 1.017-1.506 1.704-1.979a4.016 4.016 0 0 1 2.33-.71c1.415 0 2.516.523 3.302 1.569.787 1.045 1.181 2.67 1.181 4.87v10.027h-3.033v-9.996c0-1.505-.214-2.566-.642-3.183-.429-.617-1.076-.926-1.943-.926-.617 0-1.165.192-1.644.574-.478.385-.865.905-1.165 1.563v11.968h-3.032v-16.167h2.777zm36.742 9.427c0 2.133-.467 3.841-1.404 5.126-.937 1.286-2.235 1.926-3.9 1.926-.787 0-1.479-.152-2.077-.462a4.344 4.344 0 0 1-1.538-1.36v7.725h-3.033v-22.382h2.704l.194 1.853c.429-.687.952-1.218 1.57-1.591.616-.375 1.334-.562 2.15-.562 1.685 0 2.993.708 3.93 2.122.937 1.414 1.404 3.288 1.404 5.619v1.987zm-3.032-1.986c0-1.585-.262-2.877-.784-3.878-.524-1.001-1.304-1.501-2.34-1.501-.647 0-1.2.183-1.657.552-.459.37-.828.872-1.107 1.51v8.174c.27.606.633 1.072 1.092 1.395.457.325 1.02.486 1.688.486 1.046 0 1.826-.435 2.338-1.307.513-.872.77-2.02.77-3.444v-1.987zm16.189-4.886l-1.42-.075c-.627 0-1.149.189-1.562.568-.413.379-.73.911-.949 1.6v11.519h-3.032v-16.167h2.764l.224 2.436c.338-.857.782-1.527 1.33-2.01a2.776 2.776 0 0 1 1.897-.726c.199 0 .403.02.613.053.21.036.373.078.493.128l-.358 2.674zm13.04 13.612a12.65 12.65 0 0 1-.268-1.083 7.822 7.822 0 0 1-.135-1.07 5.77 5.77 0 0 1-1.688 1.779 3.935 3.935 0 0 1-2.255.686c-1.366 0-2.433-.43-3.207-1.291-.771-.862-1.157-2.015-1.157-3.458 0-1.546.525-2.758 1.577-3.64 1.05-.88 2.526-1.32 4.429-1.32h2.257v-1.66c0-.986-.219-1.756-.658-2.309-.438-.552-1.06-.83-1.868-.83-.726 0-1.312.25-1.754.749-.444.498-.667 1.12-.667 1.866l-2.883-.013-.044-.09c-.05-1.247.447-2.353 1.494-3.326 1.046-.97 2.396-1.457 4.05-1.457 1.592 0 2.885.471 3.876 1.413.99.942 1.487 2.283 1.487 4.027v7.5c0 .628.038 1.233.112 1.817.075.58.196 1.152.366 1.71h-3.064zm-3.66-2.018c.707 0 1.352-.21 1.935-.627a3.705 3.705 0 0 0 1.278-1.57v-3.301h-2.301c-.927 0-1.646.296-2.16.89-.513.592-.77 1.317-.77 2.173 0 .726.176 1.315.524 1.763.349.45.847.672 1.494.672zm18.758.03c.757 0 1.394-.29 1.913-.873.516-.584.776-1.362.776-2.34h2.719l.03.09c.04 1.525-.476 2.809-1.547 3.856-1.07 1.046-2.368 1.567-3.89 1.567-2.014 0-3.556-.681-4.627-2.046-1.069-1.364-1.604-3.103-1.604-5.214v-2.227c0-2.112.535-3.854 1.604-5.23 1.071-1.373 2.608-2.062 4.61-2.062 1.635 0 2.962.546 3.982 1.638 1.022 1.09 1.517 2.502 1.488 4.234l-.046.09h-2.719c0-1.076-.246-1.95-.739-2.621-.493-.673-1.15-1.01-1.965-1.01-1.156 0-1.976.47-2.458 1.406-.483.935-.725 2.122-.725 3.555v2.227c0 1.453.242 2.645.725 3.572.482.924 1.307 1.388 2.473 1.388zm15.455-18.198v4.019h2.524v2.167h-2.524v9.622c0 .837.124 1.432.374 1.785.248.354.573.53.97.53.24 0 .461-.015.665-.044.204-.03.446-.074.724-.134l.315 2.091a6.18 6.18 0 0 1-1.142.337 6.65 6.65 0 0 1-1.31.125c-1.144 0-2.033-.375-2.665-1.127-.633-.751-.949-1.94-.949-3.563v-9.622h-2.108v-2.167h2.108v-4.02h3.018zm11.444 20.186h-3.033v-16.167h3.033v16.167zm0-20.41h-3.033v-2.899h3.033v2.898zm12.458 18.422c.758 0 1.395-.29 1.912-.873.519-.584.777-1.362.777-2.34h2.72l.03.09c.04 1.525-.475 2.809-1.546 3.856-1.071 1.046-2.368 1.567-3.893 1.567-2.011 0-3.553-.681-4.624-2.046-1.071-1.364-1.607-3.103-1.607-5.214v-2.227c0-2.112.536-3.854 1.607-5.23 1.07-1.373 2.608-2.062 4.609-2.062 1.633 0 2.96.546 3.983 1.638 1.02 1.09 1.516 2.502 1.485 4.234l-.044.09h-2.72c0-1.076-.246-1.95-.74-2.621-.492-.673-1.147-1.01-1.964-1.01-1.155 0-1.974.47-2.457 1.406-.485.935-.726 2.122-.726 3.555v2.227c0 1.453.241 2.645.726 3.572.483.924 1.307 1.388 2.472 1.388zm17.422 2.3c-1.923 0-3.462-.666-4.618-2-1.154-1.335-1.732-3.043-1.732-5.126v-2.361c0-2.112.564-3.854 1.695-5.23 1.13-1.373 2.568-2.062 4.311-2.062 1.833 0 3.242.626 4.228 1.876.986 1.25 1.479 2.932 1.479 5.043v2.091h-8.696v.643c0 1.394.306 2.548.92 3.46.612.91 1.48 1.366 2.606 1.366.838 0 1.554-.132 2.152-.396a6.032 6.032 0 0 0 1.704-1.157l.955 1.882c-.506.577-1.19 1.05-2.047 1.419-.856.369-1.842.553-2.958.553zm-.344-14.448c-.877 0-1.58.427-2.106 1.279-.529.851-.823 1.93-.883 3.235h5.694v-.614c0-1.144-.23-2.08-.689-2.808-.457-.728-1.13-1.092-2.016-1.092zM147.171 127.293h-6.8v31.944h-9.93V88.011h9.93v31.309h5.919l18.834-31.309h11.839l-22.405 33.803 24.117 37.423h-12.132zm86.343-39.283v49.36c0 7.371-2.112 13.029-6.335 16.975-4.224 3.945-9.744 5.92-16.56 5.92-6.718 0-12.147-1.975-16.289-5.92-4.143-3.946-6.213-9.604-6.213-16.975V88.01h9.833v49.36c0 5.088 1.14 8.92 3.424 11.496 2.283 2.577 5.365 3.865 9.246 3.865 4.044 0 7.223-1.239 9.538-3.718 2.316-2.478 3.474-6.36 3.474-11.643V88.01h9.882zm16.046 71.227V88.011h19.861c6.719 0 11.961 1.598 15.728 4.794 3.766 3.196 5.65 7.99 5.65 14.382 0 3.391-.856 6.385-2.57 8.977-1.711 2.593-4.082 4.492-7.115 5.699 3.847.848 6.807 2.86 8.877 6.042 2.072 3.179 3.108 6.905 3.108 11.177 0 6.555-1.852 11.553-5.553 14.994-3.702 3.44-8.814 5.161-15.337 5.161H249.56zm9.931-33.216v25.682h12.718c3.522 0 6.237-1.085 8.147-3.252 1.907-2.17 2.86-5.275 2.86-9.32 0-4.012-.815-7.2-2.446-9.564-1.63-2.365-4.14-3.546-7.532-3.546H259.49zm0-7.142h10.91c3.26 0 5.82-.987 7.678-2.96 1.86-1.973 2.79-4.819 2.79-8.537 0-3.913-.97-6.847-2.91-8.804-1.942-1.957-4.788-2.936-8.538-2.936h-9.93v23.237zm84.827 7.288h-26.416v25.536h30.622v7.534H307.97V88.011h40.261v7.631h-30.329v22.943h26.416zm27.384 2.397v30.673h-9.932V88.06h22.161c6.751 0 11.968 1.744 15.654 5.234s5.528 8.495 5.528 15.018c0 3.718-.856 6.963-2.568 9.736-1.712 2.771-4.184 4.94-7.412 6.506 3.554 1.207 6.123 3.252 7.704 6.139 1.583 2.886 2.373 6.45 2.373 10.69v6.211c0 2.185.221 4.216.662 6.091.44 1.875 1.198 3.35 2.274 4.427v1.125h-10.225c-1.109-1.076-1.818-2.7-2.127-4.867a48.435 48.435 0 0 1-.466-6.873v-6.018c0-3.978-.904-7.126-2.715-9.442-1.808-2.315-4.296-3.473-7.46-3.473h-13.451zm0-7.582h11.74c4.01 0 6.97-1.084 8.879-3.254 1.907-2.167 2.861-5.24 2.861-9.22 0-4.077-.93-7.24-2.788-9.49-1.86-2.25-4.68-3.376-8.463-3.376h-12.23v25.34zm94.384 38.255h-9.882l-27.003-52.979-.294.097v52.882h-9.93V88.011h9.93l27.004 52.832.293-.097V88.011h9.882zm55.26-33.07H494.93v25.536h30.623v7.534H485V88.011h40.259v7.631H494.93v22.943h26.416zm59.624-30.525h-18.296v63.595h-9.931V95.642h-18.197v-7.631h46.424zm51.313 30.525h-26.417v25.536h30.623v7.534h-40.554V88.011h40.261v7.631h-30.33v22.943h26.417zm49.981 15.166c0-3.36-.945-6.115-2.837-8.267-1.89-2.152-5.2-4.044-9.93-5.675-6.783-2.055-11.985-4.738-15.606-8.048-3.619-3.31-5.43-7.689-5.43-13.134 0-5.61 2.015-10.217 6.042-13.82 4.028-3.603 9.206-5.405 15.533-5.405 6.588 0 11.895 2.079 15.923 6.237 4.027 4.158 5.977 9.172 5.846 15.042l-.099.294h-9.538c0-4.141-1.068-7.509-3.205-10.102-2.135-2.592-5.144-3.89-9.025-3.89-3.686 0-6.532 1.085-8.536 3.255-2.006 2.167-3.009 4.931-3.009 8.29 0 3.033 1.076 5.585 3.228 7.657 2.153 2.071 5.707 3.955 10.664 5.65 6.491 2.022 11.431 4.778 14.823 8.267 3.391 3.49 5.088 8.007 5.088 13.55 0 5.838-2.006 10.469-6.017 13.894-4.011 3.424-9.278 5.136-15.801 5.136-6.36 0-11.912-1.883-16.657-5.65-4.744-3.766-7.036-9.074-6.873-15.923l.097-.294h9.54c0 4.893 1.28 8.512 3.84 10.861 2.56 2.348 5.912 3.521 10.053 3.521 3.718 0 6.628-1.035 8.731-3.106 2.105-2.07 3.155-4.85 3.155-8.34z" fill="#FFF"></path><path fill="#2F96EA" d="M449.193 843.595l23.796-13.742 284.045-164.029V346.212l99.662-57.554-11.903-20.609-111.559 64.423v319.612L449.193 816.112.001 556.714v27.484l425.395 245.655z"></path><path fill="#2F96EA" d="M894.941 296.29l-111.557 64.423v319.61L349.112 931.105 0 729.502v27.484l325.315 187.862 23.797 13.741 23.797-13.741 434.275-250.786v-319.61l99.661-57.553zM793.12 878.317l164.514-95.005V463.7l99.661-57.551-11.904-20.609-111.557 64.421v319.612l-164.511 95.001-23.795 13.743 23.795 13.741 205.425 118.626h47.591z"></path><path fill="#2F96EA" d="M907.484 753.562V433.95l99.661-57.551-11.904-20.609-111.557 64.421v319.612L601.251 902.921l-23.795 13.741 23.795 13.743 139.017 80.279h47.592l-162.812-94.022z"></path><path fill="#FAAF40" d="M857.334 725.324V405.712l99.661-57.552-11.904-20.609-111.557 64.421v319.612l-520.559 300.611h47.592z"></path><path fill="#0851BA" d="M1358.239 268.076l-11.994 20.557 84.968 49.577v-27.554zm-62.142 50.307l135.118 78.839v-27.555l-123.124-71.841zm-50.15 29.75l185.268 108.101v-27.555L1257.94 327.576zm-50.15 29.75l235.418 137.363v-27.555l-223.424-130.365zm-50.15 29.75l285.568 166.625v-27.557L1157.64 387.076z"></path><path fill="#203370" d="M1101.807 241.164l-1.735.005v192.212l331.143-191.226z"></path><path fill="#0851BA" d="M1358.239 600.994l-11.994 20.557 84.968 49.577v-27.554zm-62.142 50.307l135.118 78.839v-27.555l-123.124-71.841zm-50.15 29.75l185.268 108.101v-27.555L1257.94 660.494zm-50.15 29.75l235.418 137.363v-27.555l-223.424-130.365zm-50.15 29.75l285.568 166.625v-27.557L1157.64 719.994z"></path><path fill="#203370" d="M1101.807 574.082l-1.735.005v192.212l331.143-191.226z"></path><path fill="#0851BA" d="M768.929 242.155l331.143 191.226V241.169z"></path><path fill="#FFF" d="M177.55 274.05h-9.882l-27.003-52.979-.294.097v52.882h-9.93v-71.226h9.93l27.004 52.832.293-.097v-52.735h9.882zm55.26-33.068h-26.416v25.535h30.623v7.533h-40.553v-71.226h40.259v7.631h-30.329v22.943h26.416zm59.634-30.527h-18.295v63.595h-9.932v-63.595h-18.198v-7.631h46.425zm62.717 43.148h.294l9.588-50.779h9.734l-14.382 71.226h-9.148l-12.083-50.582h-.293l-12.18 50.582h-9.15l-14.332-71.226h9.734l9.637 50.779h.294l12.131-50.779h7.877zm78.637-5.333c0 8.447-2.185 15.026-6.556 19.738-4.369 4.713-10.224 7.069-17.56 7.069-7.241 0-12.997-2.356-17.27-7.069-4.271-4.712-6.408-11.291-6.408-19.738v-19.567c0-8.415 2.145-15.003 6.433-19.764 4.289-4.762 10.036-7.142 17.244-7.142 7.305 0 13.151 2.38 17.538 7.142 4.385 4.761 6.579 11.349 6.579 19.764v19.567zm-9.883-19.715c0-6.195-1.239-10.9-3.718-14.112-2.476-3.213-5.983-4.82-10.516-4.82-4.469 0-7.893 1.607-10.273 4.82-2.382 3.211-3.572 7.917-3.572 14.112v19.715c0 6.26 1.199 11.007 3.596 14.235 2.397 3.229 5.814 4.844 10.25 4.844 4.564 0 8.08-1.607 10.541-4.82 2.462-3.211 3.692-7.964 3.692-14.26v-19.714zm38.685 14.824v30.671h-9.93v-71.177h22.159c6.752 0 11.97 1.744 15.655 5.234 3.686 3.49 5.527 8.497 5.527 15.018 0 3.718-.855 6.963-2.567 9.736-1.712 2.77-4.184 4.94-7.412 6.506 3.554 1.207 6.123 3.254 7.704 6.139 1.583 2.886 2.373 6.45 2.373 10.69v6.21c0 2.187.22 4.217.66 6.092.44 1.875 1.198 3.35 2.276 4.427v1.125H488.82c-1.109-1.076-1.818-2.698-2.127-4.867a48.435 48.435 0 0 1-.466-6.873v-6.018c0-3.978-.904-7.125-2.715-9.44-1.81-2.316-4.296-3.473-7.46-3.473h-13.451zm0-7.584h11.74c4.011 0 6.97-1.084 8.88-3.252 1.907-2.17 2.861-5.243 2.861-9.222 0-4.077-.93-7.24-2.788-9.49-1.86-2.25-4.68-3.376-8.464-3.376H462.6v25.34zm64.006 6.311h-6.8v31.944h-9.93v-71.226h9.93v31.308h5.919l18.834-31.308h11.839l-22.406 33.802 24.118 37.424h-12.133zm42.562 31.944h9.882v-71.226h-9.882zm75.479 0h-9.881l-27.004-52.979-.292.097v52.882h-9.932v-71.226h9.932l27.002 52.832.294-.097v-52.735h9.881zm63.92-10.127c-1.63 2.872-4.28 5.447-7.95 7.73-3.668 2.283-8.357 3.424-14.063 3.424-7.469 0-13.487-2.266-18.053-6.8-4.564-4.532-6.847-10.99-6.847-19.371v-21.133c0-8.25 2.167-14.644 6.505-19.176 4.337-4.534 10.093-6.8 17.27-6.8 7.272 0 12.832 1.834 16.68 5.503 3.848 3.67 5.904 8.814 6.164 15.434l-.097.294h-9.393c-.163-4.435-1.33-7.811-3.498-10.127-2.17-2.315-5.406-3.473-9.71-3.473-4.337 0-7.763 1.557-10.274 4.672-2.51 3.114-3.767 7.64-3.767 13.574v21.231c0 6.066 1.346 10.69 4.036 13.87 2.69 3.18 6.353 4.77 10.983 4.77 3.392 0 6.025-.58 7.9-1.738s3.27-2.633 4.182-4.427v-16.192h-12.18v-7.191h22.112v25.926z"></path><path d="M186.995 592.635c15.56 0 27.88-6.295 36.956-18.886 9.077-12.59 13.616-30.723 13.616-54.399v-41.286c0-23.508-4.58-41.62-13.741-54.336-9.16-12.716-21.521-19.074-37.082-19.074-15.56 0-27.9 6.358-37.019 19.074-9.119 12.716-13.678 30.828-13.678 54.336v41.286c0 23.592 4.58 41.704 13.74 54.337 9.161 12.632 21.564 18.948 37.208 18.948zm0-19.325c-8.198 0-14.494-4.267-18.886-12.8-4.392-8.533-6.588-21.082-6.588-37.646v-48.439c0-16.48 2.154-28.967 6.463-37.458 4.308-8.491 10.562-12.737 18.76-12.737 8.199 0 14.494 4.225 18.886 12.674 4.392 8.45 6.588 20.957 6.588 37.521v48.439c0 16.648-2.175 29.218-6.525 37.709-4.35 8.491-10.583 12.737-18.698 12.737zm115.216 19.325c16.48 0 29.009-5.626 37.584-16.878 8.575-11.252 12.862-25.955 12.862-44.11 0-18.739-4.1-33.525-12.298-44.36-8.198-10.833-19.492-16.166-33.882-15.999-5.27.167-9.955 1.276-14.054 3.326-4.1 2.05-7.697 4.664-10.792 7.843l4.768-54.211h60.737v-20.957h-81.944l-8.784 100.642 21.96 2.133c1.422-6.19 3.911-10.855 7.467-13.992 3.555-3.137 8.93-4.706 16.125-4.706 8.115 0 14.347 3.702 18.698 11.106 4.35 7.404 6.525 17.213 6.525 29.427 0 12.967-2.091 23.11-6.274 30.43-4.183 7.321-10.416 10.981-18.698 10.981-7.195 0-12.988-2.803-17.38-8.408-4.392-5.605-6.588-13.594-6.588-23.968l-23.969.502-.25.627c-.335 16.314 4.182 28.821 13.552 37.521 9.37 8.701 20.915 13.051 34.635 13.051z" fill="#FFF" fill-rule="nonzero"></path></g></svg>