<svg viewBox="0 0 1400 1000" xmlns="http://www.w3.org/2000/svg" xmlns:xlink="http://www.w3.org/1999/xlink"><defs><path d="M.845 78.453L1.065.415c-.001.628-.001 1.256.002 1.883l-.22 78.037" id="path-1"></path><path d="M.84 78.687L1.06.65c-.001.888-.001 1.777.004 2.665l-.22 78.038" id="path-3"></path></defs><g fill="none" fill-rule="evenodd"><path fill="#203370" d="M0 632.173v366.31l914.775.071L139.45 551.181z"></path><path fill="#203370" d="M0 0h1400v1000H0z"></path><path fill="#FFF" d="M0 642.774L315.401 459.59l384.599.06 60.688-185.987 369.22-215.485 270.091-14.936L1400 0 0-1.231z"></path><path d="M729.857 525.961c.037-.876.08-1.753.128-2.628a295.727 295.727 0 0 1 .337-5.077 228.796 228.796 0 0 1 .445-5.057c.081-.812.165-1.624.253-2.437a245.774 245.774 0 0 1 1.318-10.049 269.797 269.797 0 0 1 .816-4.995c.151-.865.31-1.73.47-2.596.149-.795.298-1.59.454-2.387.168-.86.347-1.72.525-2.58.166-.796.33-1.595.506-2.391.186-.857.384-1.715.581-2.572.181-.792.363-1.585.553-2.378.207-.855.422-1.708.637-2.561.198-.793.396-1.584.603-2.372.224-.853.459-1.703.69-2.553.214-.786.43-1.57.651-2.354.244-.857.5-1.713.751-2.568.23-.773.457-1.547.693-2.32.265-.858.54-1.716.811-2.573.244-.767.486-1.535.736-2.299.281-.853.573-1.701.863-2.553.262-.77.519-1.537.79-2.304.295-.843.604-1.685.91-2.526.28-.77.553-1.539.84-2.306.29-.771.589-1.542.884-2.313.335-.87.666-1.74 1.012-2.608.304-.77.622-1.535.933-2.303.35-.861.699-1.721 1.058-2.58.325-.77.66-1.54.99-2.309.368-.853.733-1.706 1.11-2.558.34-.769.692-1.538 1.041-2.306.383-.843.763-1.684 1.155-2.526.363-.776.733-1.548 1.102-2.32.397-.834.793-1.665 1.198-2.493.379-.775.768-1.547 1.153-2.32.415-.823.827-1.647 1.249-2.467.396-.774.801-1.545 1.205-2.318.43-.82.859-1.636 1.297-2.452.412-.766.83-1.53 1.25-2.294.45-.82.896-1.636 1.353-2.45.388-.694.785-1.386 1.18-2.078a285.58 285.58 0 0 1 4.786-8.084c.408-.668.817-1.335 1.232-2.002a291.038 291.038 0 0 1 1.966-3.105c.395-.618.787-1.238 1.186-1.854.76-1.17 1.533-2.335 2.311-3.5.314-.472.624-.946.943-1.42a358.809 358.809 0 0 1 3.356-4.875c.208-.3.425-.593.637-.892.936-1.322 1.88-2.644 2.838-3.96.412-.566.834-1.127 1.249-1.692a337.676 337.676 0 0 1 2.34-3.139c.475-.628.955-1.254 1.434-1.88.75-.978 1.506-1.956 2.269-2.93.459-.586.922-1.17 1.386-1.757a362.16 362.16 0 0 1 3.363-4.177c.348-.423.689-.85 1.039-1.273a356.877 356.877 0 0 1 4.44-5.28c.329-.386.667-.768.998-1.154a398.471 398.471 0 0 1 5.09-5.778 405.92 405.92 0 0 1 3.84-4.208c.323-.35.642-.702.966-1.05a386.162 386.162 0 0 1 4.872-5.136c.41-.425.828-.848 1.242-1.275a389.27 389.27 0 0 1 3.885-3.94c.511-.51 1.022-1.023 1.536-1.532a422.425 422.425 0 0 1 4.464-4.36l.742-.722c1.743-1.67 3.51-3.329 5.294-4.983.628-.583 1.264-1.162 1.897-1.743.89-.813 1.777-1.626 2.672-2.436a444.69 444.69 0 0 1 2.062-1.842c.893-.796 1.788-1.594 2.69-2.383a457.521 457.521 0 0 1 9.772-8.344c.735-.613 1.475-1.226 2.216-1.836.937-.77 1.88-1.535 2.826-2.301.738-.598 1.478-1.196 2.22-1.792.977-.781 1.961-1.559 2.946-2.335.726-.572 1.449-1.145 2.18-1.714 1.038-.81 2.087-1.614 3.136-2.419.692-.532 1.381-1.066 2.077-1.595a550.38 550.38 0 0 1 3.47-2.605c.61-.456 1.215-.916 1.832-1.37a524.211 524.211 0 0 1 4.79-3.503l.586-.428a503.403 503.403 0 0 1 5.47-3.895c.56-.395 1.127-.782 1.69-1.177 1.28-.894 2.563-1.787 3.857-2.676.72-.492 1.447-.98 2.17-1.47a727.93 727.93 0 0 1 3.458-2.339c.788-.527 1.585-1.05 2.376-1.575 1.111-.734 2.222-1.47 3.343-2.199a423.01 423.01 0 0 1 2.487-1.609c1.1-.708 2.201-1.417 3.309-2.123a746.843 746.843 0 0 1 5.882-3.693c.872-.54 1.747-1.08 2.625-1.619a598.809 598.809 0 0 1 5.652-3.426 634.346 634.346 0 0 1 7.87-4.647c.251-.145.508-.29.759-.434a654.118 654.118 0 0 1 7.43-4.232c.626-.351 1.251-.702 1.88-1.052a687.606 687.606 0 0 1 8.11-4.45c.413-.222.828-.442 1.238-.662a675.838 675.838 0 0 1 7.364-3.895c.62-.324 1.237-.648 1.859-.969a707.44 707.44 0 0 1 8.36-4.263c.525-.263 1.054-.524 1.58-.786a737.33 737.33 0 0 1 7.483-3.676c.583-.284 1.165-.568 1.748-.848a729.925 729.925 0 0 1 8.621-4.08c.617-.289 1.239-.573 1.86-.86a816.683 816.683 0 0 1 7.717-3.518c.526-.235 1.049-.474 1.578-.71a754.196 754.196 0 0 1 8.892-3.902c.68-.294 1.363-.585 2.047-.877a782.486 782.486 0 0 1 8.16-3.448c.414-.171.824-.346 1.237-.519a856.26 856.26 0 0 1 11.389-4.605 852.057 852.057 0 0 1 8.82-3.443l.686-.267a841.132 841.132 0 0 1 11.782-4.402 890.77 890.77 0 0 1 9.653-3.475c.07-.026.143-.049.215-.076a931.134 931.134 0 0 1 11.939-4.106 917.822 917.822 0 0 1 9.804-3.247l.665-.211a932.126 932.126 0 0 1 14.695-4.618l1.193-.36a964.9 964.9 0 0 1 14.382-4.246l1.559-.442a947.171 947.171 0 0 1 14.274-3.95c.592-.16 1.182-.316 1.773-.474a998.371 998.371 0 0 1 14.342-3.708l1.831-.456c4.828-1.2 9.687-2.371 14.572-3.51.583-.134 1.165-.272 1.75-.406 4.964-1.149 9.956-2.263 14.974-3.344l1.506-.328a1056.234 1056.234 0 0 1 15.6-3.214c.346-.07.69-.14 1.034-.207a1085.871 1085.871 0 0 1 16.815-3.18c3.24-.585 6.492-1.155 9.752-1.714.936-.161 1.877-.316 2.815-.475a1219.194 1219.194 0 0 1 10.278-1.685c2.947-.468 5.902-.927 8.866-1.374.35-.053.697-.109 1.049-.161 3.292-.492 6.597-.967 9.908-1.434.961-.135 1.926-.266 2.887-.398a1262.259 1262.259 0 0 1 10.485-1.396c2.878-.37 5.767-.73 8.661-1.078.49-.059.976-.121 1.467-.18 3.35-.4 6.709-.78 10.076-1.152.948-.104 1.901-.205 2.85-.307 2.516-.27 5.035-.533 7.56-.788.894-.093 1.786-.18 2.68-.269a1154.02 1154.02 0 0 1 17.023-1.552c.483-.038.965-.082 1.449-.122 6.048-.5 12.12-.954 18.217-1.364l.304-.019c6.184-.413 12.397-.774 18.63-1.091l1.205-.057a1173.64 1173.64 0 0 1 17.682-.748 1218.231 1218.231 0 0 1 20.442-.54l1.704-.03c6.658-.11 13.336-.172 20.04-.172l.222-78.038c-6.7 0-13.377.063-20.032.172-.575.008-1.15.022-1.726.032-6.228.11-12.436.272-18.623.478-.33.01-.664.014-.995.024-.27.01-.54.025-.81.035-5.915.207-11.81.455-17.682.747l-1.205.06c-6.233.315-12.446.678-18.63 1.09-.103.006-.202.014-.303.021-6.098.408-12.17.863-18.22 1.362-.482.04-.963.082-1.445.123-5.699.477-11.374.994-17.025 1.552-.294.028-.59.05-.883.08-.6.059-1.196.126-1.796.187-2.526.257-5.045.519-7.56.79-.95.103-1.903.2-2.85.306-3.368.37-6.73.753-10.079 1.153-.487.057-.971.119-1.458.18-2.898.347-5.788.708-8.672 1.076-1.033.133-2.065.269-3.097.405-2.467.322-4.927.653-7.384.992-.963.133-1.926.264-2.889.4-3.31.465-6.616.94-9.908 1.433-.35.052-.694.109-1.044.16-2.96.446-5.913.904-8.86 1.371-1.008.162-2.016.326-3.024.49-2.419.39-4.83.788-7.238 1.193l-2.854.482c-3.251.558-6.497 1.126-9.726 1.71-.034.007-.068.012-.101.017l-.194.037a1077.584 1077.584 0 0 0-16.522 3.125c-.355.07-.708.143-1.06.212a1091.469 1091.469 0 0 0-15.586 3.213c-.5.107-1.001.218-1.504.327a1032.429 1032.429 0 0 0-16.724 3.75 1014.772 1014.772 0 0 0-16.404 3.968 976.696 976.696 0 0 0-14.341 3.708 994.887 994.887 0 0 0-16.049 4.42l-1.558.444a966.011 966.011 0 0 0-14.381 4.246l-1.194.36a934.351 934.351 0 0 0-14.696 4.618c-.142.047-.289.09-.433.134-.077.027-.153.054-.23.078a869.554 869.554 0 0 0-9.801 3.245 892.118 892.118 0 0 0-11.942 4.108c-.072.025-.144.048-.215.075a856.418 856.418 0 0 0-9.653 3.475l-2.295.842a909.467 909.467 0 0 0-9.478 3.558c-.244.091-.483.187-.725.28a869.51 869.51 0 0 0-8.789 3.43l-2.216.882a821.033 821.033 0 0 0-9.166 3.724c-.425.174-.847.356-1.272.53a847.101 847.101 0 0 0-19.072 8.217c-.53.235-1.052.475-1.578.71a776.599 776.599 0 0 0-7.718 3.519c-.62.287-1.242.573-1.86.86a741.05 741.05 0 0 0-8.612 4.076c-.593.285-1.181.573-1.773.858a767.541 767.541 0 0 0-7.45 3.662l-1.604.797a717.276 717.276 0 0 0-8.344 4.255c-.628.324-1.254.653-1.88.98a668.492 668.492 0 0 0-7.324 3.875c-.425.225-.852.452-1.276.68a671.072 671.072 0 0 0-8.09 4.44c-.636.354-1.27.711-1.904 1.066a671.498 671.498 0 0 0-7.38 4.202l-.804.46a666.323 666.323 0 0 0-7.853 4.637c-.295.178-.598.351-.892.53-.482.288-.956.582-1.438.873a650.933 650.933 0 0 0-9.261 5.715c-.863.543-1.725 1.083-2.58 1.628-1.101.7-2.193 1.404-3.286 2.106-.84.544-1.682 1.086-2.52 1.632-1.105.72-2.2 1.445-3.294 2.17a671.07 671.07 0 0 0-2.42 1.6c-1.146.768-2.28 1.54-3.417 2.31-.736.5-1.477.998-2.208 1.5a522.164 522.164 0 0 0-3.793 2.632c-.584.406-1.174.81-1.754 1.22a543.904 543.904 0 0 0-5.458 3.885l-.691.504a526.446 526.446 0 0 0-4.692 3.432c-.615.453-1.22.913-1.83 1.37-1.161.867-2.32 1.732-3.47 2.605-.703.532-1.397 1.073-2.096 1.609-1.039.798-2.079 1.594-3.109 2.397-.74.576-1.47 1.157-2.206 1.736-.98.773-1.958 1.546-2.926 2.32-.746.596-1.484 1.196-2.222 1.794-.948.764-1.889 1.531-2.826 2.3-.743.61-1.48 1.223-2.217 1.834a463.63 463.63 0 0 0-4.937 4.16 529.77 529.77 0 0 0-4.833 4.184c-.903.791-1.799 1.588-2.69 2.385a314.495 314.495 0 0 0-4.735 4.278c-.469.43-.948.857-1.417 1.288-.16.151-.317.306-.48.455a455.822 455.822 0 0 0-5.294 4.984c-.25.24-.494.482-.744.722a438.875 438.875 0 0 0-6.003 5.895 447.595 447.595 0 0 0-3.872 3.927c-.417.43-.84.858-1.255 1.288a420.18 420.18 0 0 0-4.87 5.134c-.321.344-.636.692-.953 1.036a345.352 345.352 0 0 0-3.85 4.223c-.483.532-.958 1.068-1.434 1.602a396.958 396.958 0 0 0-3.65 4.165c-.334.39-.675.776-1.008 1.166a374.486 374.486 0 0 0-4.437 5.275c-.35.425-.692.852-1.038 1.277a319.773 319.773 0 0 0-3.358 4.17c-.232.289-.474.578-.702.87-.237.3-.464.603-.698.9-.758.968-1.505 1.938-2.248 2.907-.486.634-.972 1.265-1.45 1.9a333.53 333.53 0 0 0-2.326 3.12c-.42.57-.846 1.137-1.26 1.709a323.25 323.25 0 0 0-2.836 3.951c-.21.301-.428.598-.638.896a349.945 349.945 0 0 0-3.356 4.879c-.321.473-.632.95-.948 1.426a337.002 337.002 0 0 0-2.304 3.486c-.403.622-.795 1.243-1.192 1.863a307.557 307.557 0 0 0-1.96 3.099c-.416.668-.826 1.336-1.238 2.007a309.873 309.873 0 0 0-3.027 5.045 278.805 278.805 0 0 0-1.759 3.043c-.242.423-.492.843-.732 1.267-.152.267-.294.535-.442.804a226.8 226.8 0 0 0-1.358 2.454c-.417.76-.834 1.522-1.244 2.284a248.69 248.69 0 0 0-1.307 2.472c-.402.764-.803 1.53-1.197 2.296-.425.83-.842 1.66-1.257 2.49-.383.767-.768 1.531-1.142 2.299-.409.836-.81 1.674-1.209 2.512a190.99 190.99 0 0 0-1.092 2.304c-.393.84-.773 1.683-1.156 2.523-.351.773-.704 1.547-1.047 2.321-.372.838-.733 1.68-1.094 2.521-.338.783-.677 1.562-1.005 2.346-.355.845-.698 1.695-1.044 2.542-.319.779-.638 1.558-.95 2.34-.339.856-.665 1.714-.994 2.569-.24.626-.49 1.25-.726 1.876-.059.158-.114.317-.173.477-.282.754-.555 1.51-.829 2.265-.309.854-.621 1.709-.922 2.565-.267.763-.525 1.528-.785 2.293-.289.851-.581 1.701-.862 2.55-.254.773-.498 1.551-.745 2.325-.268.85-.542 1.698-.803 2.55-.237.777-.465 1.557-.697 2.334-.252.854-.506 1.703-.748 2.558-.222.781-.435 1.564-.649 2.343-.235.857-.469 1.712-.694 2.57-.205.784-.403 1.572-.601 2.36-.216.856-.43 1.711-.637 2.568-.192.792-.372 1.587-.555 2.378-.197.856-.393 1.713-.58 2.571-.174.796-.34 1.594-.505 2.39-.113.546-.237 1.087-.345 1.63-.064.317-.118.634-.18.952-.158.796-.306 1.593-.455 2.39-.16.861-.318 1.724-.47 2.586a299.93 299.93 0 0 0-.817 5 230.924 230.924 0 0 0-1.316 10.052 233.246 233.246 0 0 0-.498 5.057 235.733 235.733 0 0 0-.764 12.596c-.014.377-.032.751-.044 1.13-.008.295-.003.589-.01.884-.06 2.415-.1 4.832-.086 7.256l-.224 78.037c-.01-2.425.028-4.844.088-7.26.017-.665.032-1.336.054-2 .028-.822.062-1.645.099-2.465" fill="#1D346D"></path><path d="M854.02 521.722c.1-1.31.238-2.618.366-3.925.14-1.456.279-2.915.453-4.368.158-1.31.35-2.614.535-3.919.203-1.442.403-2.883.64-4.32.212-1.304.459-2.604.7-3.902.263-1.43.525-2.856.821-4.278.272-1.305.571-2.607.869-3.907.322-1.41.647-2.821 1-4.225.326-1.297.679-2.59 1.032-3.884.383-1.395.766-2.79 1.18-4.183a188.6 188.6 0 0 1 1.192-3.858 209.17 209.17 0 0 1 1.353-4.147c.435-1.278.89-2.553 1.353-3.826.49-1.352.987-2.704 1.502-4.047.535-1.39 1.093-2.77 1.656-4.149.53-1.295 1.062-2.59 1.618-3.88.592-1.375 1.21-2.747 1.833-4.116.584-1.28 1.168-2.558 1.775-3.833a247.51 247.51 0 0 1 2.01-4.08c.637-1.267 1.272-2.535 1.934-3.795.71-1.349 1.444-2.692 2.182-4.034.798-1.456 1.593-2.913 2.424-4.362.237-.408.471-.816.71-1.224a253.76 253.76 0 0 1 3.984-6.598c.237-.377.477-.754.718-1.132a262.725 262.725 0 0 1 4.386-6.726c.11-.161.225-.323.334-.487a282.527 282.527 0 0 1 4.605-6.562c.18-.247.353-.499.534-.746 1.58-2.171 3.208-4.33 4.865-6.478.298-.384.595-.77.896-1.154a293.5 293.5 0 0 1 5.191-6.474c.29-.351.592-.7.884-1.051a323.111 323.111 0 0 1 4.667-5.464c.457-.522.91-1.046 1.374-1.567a317.468 317.468 0 0 1 5.642-6.223c.252-.268.512-.535.765-.806a340.451 340.451 0 0 1 5.258-5.47c.512-.52 1.022-1.041 1.538-1.56 2.02-2.03 4.065-4.05 6.155-6.053.185-.177.377-.353.561-.528a361.804 361.804 0 0 1 5.405-5.033 390.802 390.802 0 0 1 4.408-3.962c1.12-.993 2.235-1.99 3.374-2.978a397.475 397.475 0 0 1 4.723-4.01c1.114-.935 2.216-1.877 3.347-2.806a421.347 421.347 0 0 1 5.21-4.187c1.048-.83 2.077-1.672 3.139-2.499a429.58 429.58 0 0 1 6.339-4.825c.77-.576 1.516-1.164 2.292-1.735a449.712 449.712 0 0 1 8.91-6.43c.674-.476 1.373-.938 2.054-1.412a460.854 460.854 0 0 1 7.125-4.879c1.141-.762 2.312-1.51 3.464-2.267 1.984-1.303 3.966-2.605 5.984-3.888 1.309-.833 2.647-1.653 3.97-2.477 1.905-1.186 3.809-2.374 5.743-3.544a546.712 546.712 0 0 1 7.3-4.343c.346-.202.683-.407 1.029-.607a564.32 564.32 0 0 1 8.797-4.991c.856-.474 1.723-.943 2.583-1.414a563.91 563.91 0 0 1 6.601-3.57c.98-.522 1.96-1.042 2.946-1.56a607.028 607.028 0 0 1 7.248-3.733c.69-.351 1.371-.706 2.064-1.053a625.448 625.448 0 0 1 9.392-4.612c.773-.372 1.558-.734 2.336-1.106a659.952 659.952 0 0 1 7.369-3.446 666.715 666.715 0 0 1 10.409-4.667c.906-.397 1.807-.8 2.717-1.193a661.303 661.303 0 0 1 9.96-4.219c.547-.226 1.103-.445 1.651-.67a676.943 676.943 0 0 1 8.552-3.443c1.086-.428 2.176-.851 3.265-1.275 2.48-.964 4.973-1.916 7.482-2.858 1.05-.395 2.099-.795 3.156-1.184a725.732 725.732 0 0 1 10.295-3.732c.075-.027.15-.056.228-.082a745.117 745.117 0 0 1 10.688-3.67c1.072-.36 2.153-.712 3.23-1.068a735.96 735.96 0 0 1 13.722-4.384 697.014 697.014 0 0 1 5.747-1.762c2.284-.687 4.58-1.36 6.882-2.032 1.927-.561 3.853-1.122 5.792-1.671a798.632 798.632 0 0 1 7.043-1.948c1.934-.53 3.867-1.06 5.813-1.577a810.058 810.058 0 0 1 7.228-1.868c1.93-.494 3.857-.993 5.8-1.473 2.478-.615 4.977-1.206 7.474-1.799 1.904-.453 3.802-.915 5.714-1.357 2.606-.601 5.236-1.176 7.861-1.755 1.832-.405 3.655-.82 5.496-1.213 2.858-.61 5.74-1.192 8.62-1.777 1.629-.33 3.249-.676 4.888-1a919.56 919.56 0 0 1 11.28-2.134c.792-.146 1.575-.304 2.37-.448a909.86 909.86 0 0 1 16.05-2.734c1.586-.257 3.18-.5 4.772-.75a895.505 895.505 0 0 1 12-1.796c1.659-.239 3.316-.479 4.98-.706a922.042 922.042 0 0 1 15.185-1.967c.45-.053.894-.117 1.346-.17a954.103 954.103 0 0 1 16.652-1.821c1.976-.2 3.962-.383 5.945-.573a949.82 949.82 0 0 1 8.623-.784c2.134-.184 4.274-.353 6.413-.523a949.695 949.695 0 0 1 15.09-1.073c2.86-.181 5.728-.348 8.602-.502a929.25 929.25 0 0 1 6.552-.34c2.91-.139 5.831-.258 8.755-.369 2.13-.082 4.259-.168 6.393-.237 3.564-.114 7.144-.198 10.728-.275 1.725-.035 3.445-.086 5.173-.113a986.71 986.71 0 0 1 15.89-.136h.085l.222-78.039c-5.348 0-10.671.052-15.982.136-1.717.027-3.425.077-5.139.113-3.594.077-7.186.163-10.765.277-.7.022-1.405.03-2.102.055-1.426.049-2.839.124-4.262.18-2.934.112-5.864.233-8.786.371-2.18.104-4.352.22-6.525.338-2.884.156-5.761.322-8.631.505-2.172.138-4.34.28-6.504.43-2.865.202-5.722.417-8.576.642-2.139.17-4.278.337-6.409.522-2.882.245-5.754.512-8.621.786-1.425.134-2.862.249-4.284.39-.558.053-1.107.126-1.663.181a937.547 937.547 0 0 0-16.647 1.82c-.464.056-.92.12-1.383.175a939.027 939.027 0 0 0-15.154 1.962c-1.663.228-3.32.469-4.977.705-4.02.575-8.023 1.174-12.007 1.798-1.59.25-3.183.493-4.77.75a894.982 894.982 0 0 0-16.13 2.75c-.715.127-1.42.272-2.133.403a889.568 889.568 0 0 0-11.441 2.165c-1.614.319-3.207.658-4.813.984-2.906.591-5.815 1.177-8.697 1.794-1.822.388-3.626.8-5.441 1.2-2.644.582-5.289 1.163-7.914 1.766-1.902.44-3.788.898-5.68 1.348-2.509.598-5.018 1.191-7.509 1.808-1.939.48-3.858.977-5.787 1.47a838.687 838.687 0 0 0-7.233 1.87c-1.944.516-3.872 1.046-5.801 1.574-2.363.645-4.72 1.291-7.065 1.955-1.93.544-3.85 1.105-5.768 1.662a919.521 919.521 0 0 0-6.903 2.038 818.2 818.2 0 0 0-5.74 1.76c-2.26.7-4.513 1.406-6.755 2.123-.877.28-1.767.546-2.64.83-1.448.466-2.875.952-4.315 1.427-1.084.358-2.171.714-3.25 1.077-3.58 1.2-7.142 2.418-10.673 3.664-.094.032-.185.066-.28.1a726.188 726.188 0 0 0-10.244 3.713c-1.063.395-2.119.794-3.177 1.192a731.155 731.155 0 0 0-10.739 4.13 692.367 692.367 0 0 0-8.552 3.445c-.546.223-1.097.442-1.642.665a681.191 681.191 0 0 0-9.955 4.217c-.92.397-1.827.803-2.74 1.203a691.196 691.196 0 0 0-10.402 4.664 644.99 644.99 0 0 0-7.35 3.438c-.782.371-1.571.739-2.35 1.112a616.037 616.037 0 0 0-9.38 4.605c-.704.354-1.397.714-2.096 1.07a581.116 581.116 0 0 0-10.173 5.282 582.606 582.606 0 0 0-6.603 3.57c-.857.471-1.721.938-2.575 1.413a537.815 537.815 0 0 0-8.8 4.992c-.347.2-.684.406-1.03.608a506.013 506.013 0 0 0-6.096 3.597c-.405.246-.796.497-1.2.743a479.524 479.524 0 0 0-5.767 3.559c-1.316.82-2.644 1.632-3.944 2.458a479.733 479.733 0 0 0-6.005 3.904c-1.148.752-2.314 1.496-3.448 2.257a478.02 478.02 0 0 0-7.068 4.839c-.701.487-1.422.965-2.118 1.454a454.204 454.204 0 0 0-8.905 6.428c-.773.57-1.516 1.153-2.282 1.728a430.416 430.416 0 0 0-6.346 4.828c-1.065.832-2.098 1.675-3.152 2.511-1.745 1.388-3.49 2.775-5.2 4.179-1.129.929-2.231 1.87-3.346 2.805-1.584 1.332-3.17 2.664-4.722 4.009-1.14.987-2.253 1.985-3.374 2.98a389.382 389.382 0 0 0-4.41 3.961c-.417.383-.855.758-1.27 1.142a351.81 351.81 0 0 0-4.133 3.89c-.185.177-.378.351-.561.528a361.69 361.69 0 0 0-6.152 6.05c-.52.522-1.03 1.046-1.545 1.568a340.023 340.023 0 0 0-5.255 5.467c-.252.27-.512.536-.764.806a328.65 328.65 0 0 0-5.645 6.22c-.46.523-.914 1.047-1.373 1.57a317.701 317.701 0 0 0-4.665 5.465c-.293.35-.595.698-.886 1.05a321.068 321.068 0 0 0-4.305 5.327c-.3.381-.588.764-.888 1.147l-.892 1.154a288.048 288.048 0 0 0-4.865 6.476c-.181.249-.355.499-.536.746a282.526 282.526 0 0 0-4.603 6.563c-.11.163-.225.325-.334.49a261.072 261.072 0 0 0-4.388 6.722c-.239.38-.48.756-.716 1.134a249.167 249.167 0 0 0-4.694 7.821c-.353.614-.714 1.223-1.062 1.838-.472.836-.902 1.683-1.364 2.523-.736 1.343-1.472 2.685-2.18 4.035a217.858 217.858 0 0 0-1.934 3.796 234.992 234.992 0 0 0-2.01 4.08 225.21 225.21 0 0 0-1.775 3.832 229.89 229.89 0 0 0-1.835 4.115 220.377 220.377 0 0 0-1.616 3.883 223.998 223.998 0 0 0-1.656 4.145c-.203.531-.433 1.057-.633 1.588-.306.816-.573 1.644-.87 2.462a203.09 203.09 0 0 0-1.352 3.826 216.926 216.926 0 0 0-1.354 4.146 208.535 208.535 0 0 0-1.194 3.858c-.411 1.39-.794 2.788-1.178 4.184a197.096 197.096 0 0 0-1.031 3.881 205.436 205.436 0 0 0-1 4.226c-.3 1.303-.597 2.603-.87 3.908-.092.442-.204.879-.293 1.32-.197.981-.346 1.972-.53 2.956-.24 1.3-.485 2.599-.699 3.904-.235 1.437-.435 2.877-.64 4.321-.185 1.305-.375 2.607-.533 3.918-.174 1.453-.312 2.911-.455 4.369-.128 1.308-.266 2.613-.365 3.925-.114 1.468-.186 2.942-.265 4.417-.073 1.31-.155 2.62-.2 3.932-.009.307-.037.613-.046.922-.064 2.224-.09 4.452-.079 6.686l-.222 78.037c-.011-2.542.04-5.077.127-7.606.043-1.315.126-2.624.198-3.934.079-1.472.153-2.949.265-4.417" fill="#1D346D"></path><path d="M977.691 525.189c.08-1.026.187-2.05.288-3.074.11-1.14.218-2.28.356-3.42.122-1.025.272-2.047.417-3.066.16-1.129.315-2.257.502-3.38.166-1.022.36-2.04.546-3.058.207-1.117.414-2.232.644-3.345.213-1.023.447-2.04.68-3.06.252-1.104.506-2.207.784-3.307.255-1.015.53-2.028.806-3.037.3-1.095.6-2.188.923-3.277.299-1.01.615-2.015.936-3.021.343-1.083.69-2.165 1.057-3.243.341-1.003.699-1.999 1.059-2.997.383-1.058.77-2.114 1.178-3.167a165.25 165.25 0 0 1 1.294-3.248c.415-1.015.831-2.026 1.267-3.035.462-1.077.946-2.147 1.433-3.218a185.74 185.74 0 0 1 1.392-3.008c.509-1.067 1.04-2.128 1.57-3.188.498-.99.997-1.984 1.515-2.971.555-1.058 1.131-2.108 1.707-3.16.526-.955 1.05-1.914 1.595-2.865.79-1.383 1.615-2.76 2.449-4.138.46-.762.909-1.53 1.383-2.29a200.813 200.813 0 0 1 3.262-5.046c.284-.428.553-.863.842-1.292a220.295 220.295 0 0 1 4.39-6.252c.42-.577.866-1.146 1.295-1.72a217.659 217.659 0 0 1 7.206-9.224c.227-.274.462-.544.689-.818a232.522 232.522 0 0 1 3.655-4.28c.358-.41.714-.82 1.077-1.229a246.414 246.414 0 0 1 4.411-4.866c.202-.215.409-.428.61-.643a271.295 271.295 0 0 1 4.106-4.273c.401-.406.801-.814 1.203-1.219a292.402 292.402 0 0 1 4.82-4.74c.143-.136.289-.27.43-.406a298.834 298.834 0 0 1 7.69-7.047c.879-.78 1.75-1.56 2.642-2.331 1.213-1.054 2.455-2.097 3.694-3.138.872-.73 1.734-1.468 2.62-2.195 1.335-1.098 2.702-2.182 4.065-3.268.826-.655 1.638-1.319 2.473-1.97a360.127 360.127 0 0 1 4.946-3.764c.607-.454 1.195-.917 1.807-1.367a353.21 353.21 0 0 1 6.969-5.029c.542-.384 1.107-.759 1.655-1.139a379.978 379.978 0 0 1 5.53-3.787c.893-.594 1.805-1.177 2.703-1.768 1.558-1.022 3.114-2.046 4.698-3.052 1.017-.648 2.056-1.285 3.086-1.927a403.728 403.728 0 0 1 4.515-2.786 424.605 424.605 0 0 1 5.72-3.403c.266-.154.527-.312.792-.467a435.492 435.492 0 0 1 6.892-3.91c.667-.369 1.344-.735 2.015-1.105a515.45 515.45 0 0 1 5.17-2.794 459.547 459.547 0 0 1 7.97-4.138c.544-.276 1.08-.557 1.627-.83a481.079 481.079 0 0 1 7.345-3.606c.61-.293 1.227-.58 1.838-.87 1.904-.906 3.82-1.804 5.753-2.69a531.826 531.826 0 0 1 8.157-3.66c.708-.31 1.41-.622 2.12-.93a532.406 532.406 0 0 1 7.797-3.301c.432-.178.867-.351 1.3-.528 2.217-.91 4.452-1.808 6.699-2.697.84-.333 1.685-.66 2.53-.99a553.319 553.319 0 0 1 5.877-2.243c.82-.31 1.637-.62 2.459-.924a589.98 589.98 0 0 1 8.082-2.929c.052-.018.104-.039.158-.057a587.212 587.212 0 0 1 8.357-2.87c.847-.284 1.699-.561 2.547-.843 1.805-.597 3.62-1.184 5.442-1.764a657.563 657.563 0 0 1 9.777-3.038c1.793-.54 3.596-1.07 5.403-1.596 1.506-.438 3.008-.876 4.522-1.303a600.304 600.304 0 0 1 5.51-1.527c1.516-.413 3.032-.83 4.556-1.234 1.88-.497 3.773-.981 5.665-1.465 1.506-.384 3.007-.772 4.52-1.149 1.952-.482 3.918-.947 5.884-1.415 1.48-.351 2.955-.71 4.444-1.053 2.062-.477 4.14-.933 6.217-1.391 1.41-.31 2.812-.63 4.227-.932 2.264-.482 4.542-.944 6.823-1.406 1.255-.254 2.5-.52 3.76-.77 2.952-.58 5.921-1.138 8.899-1.682.597-.11 1.186-.23 1.785-.338a711.82 711.82 0 0 1 12.567-2.141c1.238-.202 2.487-.391 3.73-.586 3.118-.487 6.245-.958 9.388-1.406 1.304-.188 2.606-.376 3.913-.554a698.365 698.365 0 0 1 11.86-1.535c.36-.046.714-.094 1.074-.136 4.319-.516 8.666-.983 13.032-1.426 1.546-.156 3.099-.3 4.652-.449 2.246-.213 4.497-.421 6.755-.614 1.669-.143 3.344-.276 5.02-.409a783.18 783.18 0 0 1 6.693-.5 735.796 735.796 0 0 1 11.848-.734 788.03 788.03 0 0 1 5.125-.264 710.56 710.56 0 0 1 6.869-.29c1.66-.064 3.32-.131 4.984-.185a776.08 776.08 0 0 1 8.396-.215c1.356-.028 2.705-.067 4.065-.089 4.153-.065 8.317-.107 12.496-.107l.222-78.038c-4.18 0-8.345.04-12.496.108-1.363.02-2.716.06-4.072.089-2.8.06-5.594.126-8.38.215-.552.018-1.107.023-1.656.042-1.124.038-2.235.099-3.356.142a699.792 699.792 0 0 0-11.987.556 725.711 725.711 0 0 0-18.53 1.233c-1.675.131-3.349.264-5.019.406-2.259.195-4.509.405-6.757.619-1.114.104-2.239.194-3.35.304-.436.043-.865.099-1.3.142-4.365.442-8.714.91-13.033 1.426-.36.042-.717.09-1.077.135-3.972.48-7.922.996-11.856 1.535-1.307.18-2.61.37-3.915.554-3.141.45-6.269.919-9.383 1.407-1.247.193-2.495.385-3.735.586a709.298 709.298 0 0 0-12.628 2.154c-.578.102-1.147.22-1.722.324-2.98.546-5.95 1.102-8.898 1.684-1.263.247-2.511.516-3.768.77-2.276.461-4.556.922-6.815 1.405-1.418.304-2.823.623-4.234.936-2.074.457-4.151.912-6.212 1.385-1.49.345-2.966.704-4.448 1.057-1.963.465-3.927.93-5.878 1.412-1.514.378-3.018.768-4.524 1.15-1.892.485-3.783.967-5.662 1.465-1.524.403-3.038.82-4.554 1.233-1.844.506-3.685 1.01-5.514 1.529-1.512.428-3.013.863-4.517 1.301a653.852 653.852 0 0 0-5.41 1.597c-1.5.452-2.992.912-4.485 1.376a640.08 640.08 0 0 0-5.288 1.66c-.686.221-1.385.43-2.07.65-1.132.367-2.25.747-3.377 1.12-.847.278-1.695.557-2.54.84-2.804.94-5.595 1.894-8.361 2.87l-.157.057a550.354 550.354 0 0 0-8.081 2.929c-.822.304-1.639.614-2.459.922-1.97.739-3.93 1.488-5.878 2.247-.844.328-1.689.655-2.53.988a526.78 526.78 0 0 0-6.71 2.7c-.426.175-.86.346-1.285.523a525.135 525.135 0 0 0-7.8 3.302c-.71.309-1.413.621-2.12.932a517.902 517.902 0 0 0-8.154 3.656 466.94 466.94 0 0 0-5.757 2.692c-.612.29-1.229.576-1.837.87a481.352 481.352 0 0 0-7.346 3.606c-.546.274-1.084.554-1.626.828a447.19 447.19 0 0 0-13.14 6.935c-.672.37-1.348.736-2.015 1.107-2.32 1.288-4.62 2.59-6.892 3.908-.267.153-.526.31-.793.467a447.942 447.942 0 0 0-4.781 2.823c-.318.192-.622.388-.94.58a389.383 389.383 0 0 0-4.505 2.781c-1.034.643-2.075 1.281-3.099 1.933a378.989 378.989 0 0 0-4.673 3.037c-.908.594-1.827 1.184-2.726 1.783a378.25 378.25 0 0 0-5.519 3.78c-.551.384-1.117.758-1.665 1.143a364.452 364.452 0 0 0-6.97 5.029c-.61.451-1.198.915-1.804 1.367-1.662 1.25-3.32 2.5-4.946 3.767-.837.651-1.652 1.315-2.479 1.972-1.36 1.085-2.724 2.166-4.058 3.263-.887.727-1.755 1.468-2.628 2.203a282.144 282.144 0 0 0-3.687 3.131c-.893.771-1.763 1.552-2.642 2.331a296.622 296.622 0 0 0-3.454 3.102c-.326.3-.667.592-.991.89a314.992 314.992 0 0 0-3.245 3.056c-.141.137-.29.27-.43.406a273.664 273.664 0 0 0-6.023 5.96 271.123 271.123 0 0 0-4.106 4.27c-.201.217-.408.43-.61.645a246.981 246.981 0 0 0-4.413 4.866c-.361.408-.717.817-1.077 1.227a251.623 251.623 0 0 0-3.653 4.281c-.229.272-.463.545-.69.818a239.05 239.05 0 0 0-3.369 4.169c-.156.198-.299.4-.454.598a223.2 223.2 0 0 0-3.377 4.45c-.43.577-.878 1.148-1.301 1.729a220.127 220.127 0 0 0-4.39 6.25c-.29.43-.56.87-.848 1.303a204.798 204.798 0 0 0-3.255 5.035c-.476.759-.921 1.525-1.385 2.287a205.751 205.751 0 0 0-2.45 4.144c-.17.297-.357.59-.523.886-.37.652-.706 1.316-1.067 1.97a180.57 180.57 0 0 0-1.71 3.166c-.518.988-1.016 1.979-1.513 2.972a174.895 174.895 0 0 0-1.572 3.187c-.478 1-.936 2.002-1.393 3.008-.487 1.072-.97 2.142-1.433 3.217-.435 1.01-.85 2.022-1.266 3.036-.442 1.08-.877 2.163-1.294 3.248-.16.414-.34.825-.495 1.242-.24.638-.45 1.284-.683 1.926-.36.996-.717 1.994-1.058 2.995-.367 1.078-.715 2.16-1.057 3.244a149.372 149.372 0 0 0-.938 3.024 160.171 160.171 0 0 0-.92 3.27 150.395 150.395 0 0 0-.808 3.043 151.867 151.867 0 0 0-.783 3.304c-.233 1.02-.469 2.038-.68 3.061-.07.346-.16.687-.229 1.033-.155.768-.272 1.542-.415 2.313-.19 1.016-.38 2.035-.546 3.057-.187 1.123-.345 2.25-.503 3.379-.144 1.021-.294 2.044-.416 3.068-.138 1.137-.246 2.278-.357 3.42-.1 1.023-.206 2.047-.287 3.073-.09 1.15-.145 2.303-.207 3.455-.055 1.026-.12 2.05-.156 3.08-.008.24-.03.48-.035.72-.052 1.743-.07 3.488-.062 5.236l-.223 78.037c-.01-1.991.033-3.975.098-5.953.035-1.032.101-2.055.156-3.08.063-1.155.118-2.307.207-3.457" fill="#1D346D"></path><path d="M1101.365 528.657c.057-.74.134-1.481.208-2.22.08-.823.158-1.651.255-2.47.091-.742.2-1.479.303-2.216.114-.816.228-1.628.361-2.437.121-.742.26-1.478.397-2.219.15-.803.297-1.607.465-2.407.152-.742.323-1.478.493-2.217.181-.794.363-1.59.563-2.384.184-.734.384-1.467.584-2.197a97.645 97.645 0 0 1 1.342-4.547c.247-.782.499-1.562.762-2.341a145.618 145.618 0 0 1 1.615-4.452c.303-.785.619-1.567.938-2.35a105.88 105.88 0 0 1 1.95-4.515c.329-.727.66-1.45 1.004-2.171.369-.768.752-1.537 1.135-2.305.361-.715.72-1.434 1.095-2.144.4-.765.816-1.522 1.232-2.281.38-.69.758-1.382 1.153-2.07.572-1.004 1.168-2 1.768-2.994.334-.55.657-1.102.998-1.648a141.41 141.41 0 0 1 2.356-3.644c.205-.31.402-.627.61-.937a159.505 159.505 0 0 1 3.173-4.518c.3-.41.617-.815.92-1.223.806-1.085 1.62-2.168 2.46-3.241.344-.439.702-.874 1.052-1.309a182.114 182.114 0 0 1 3.129-3.804c.42-.494.838-.99 1.265-1.481a178.794 178.794 0 0 1 3.801-4.251c.192-.21.377-.42.57-.63 1.49-1.599 3.03-3.18 4.598-4.751.434-.437.879-.865 1.316-1.297a193.572 193.572 0 0 1 3.684-3.53c.524-.49 1.045-.984 1.576-1.468.822-.756 1.658-1.502 2.497-2.246.632-.56 1.262-1.122 1.902-1.68.881-.762 1.778-1.516 2.676-2.272.628-.524 1.248-1.058 1.887-1.58.968-.796 1.956-1.58 2.946-2.365.593-.475 1.176-.95 1.778-1.419 1.178-.917 2.38-1.822 3.586-2.73.432-.323.854-.654 1.29-.977a257.418 257.418 0 0 1 5.035-3.634c.397-.276.805-.548 1.202-.823a260 260 0 0 1 3.991-2.734c.646-.432 1.306-.852 1.956-1.28a261.17 261.17 0 0 1 3.388-2.204c.738-.468 1.49-.929 2.235-1.394 1.08-.673 2.16-1.343 3.255-2.01.557-.334 1.121-.665 1.681-.998a293.68 293.68 0 0 1 6.441-3.733l1.335-.76a319.404 319.404 0 0 1 9.337-4.986 340.32 340.32 0 0 1 7.05-3.529c.377-.184.749-.37 1.125-.552a336.374 336.374 0 0 1 10.061-4.636 356.106 356.106 0 0 1 7.867-3.386c.232-.097.459-.198.689-.292a388.189 388.189 0 0 1 8.634-3.44c.698-.27 1.398-.535 2.1-.802a412.45 412.45 0 0 1 8.923-3.282c.037-.012.075-.024.11-.037a419.54 419.54 0 0 1 9.045-3.057c.88-.289 1.763-.576 2.649-.861a590.24 590.24 0 0 1 3.813-1.198 433.54 433.54 0 0 1 3.25-.996c1.29-.388 2.59-.77 3.892-1.147 1.089-.32 2.18-.635 3.277-.947 1.319-.373 2.65-.736 3.98-1.1 1.092-.3 2.184-.602 3.283-.889 1.361-.363 2.732-.714 4.104-1.065 1.085-.275 2.168-.556 3.257-.824 1.411-.351 2.835-.687 4.253-1.025 1.069-.255 2.134-.512 3.206-.76 1.483-.342 2.976-.67 4.469-1 1.028-.225 2.05-.46 3.085-.68 1.617-.346 3.25-.675 4.882-1.008.921-.186 1.833-.38 2.756-.56 2.16-.426 4.33-.836 6.507-1.234.403-.072.802-.156 1.207-.228 3.003-.54 6.03-1.053 9.073-1.547.9-.144 1.806-.282 2.71-.423 2.249-.353 4.506-.692 6.773-1.015.94-.136 1.88-.27 2.826-.403 2.842-.391 5.699-.759 8.57-1.106.258-.032.513-.066.774-.101 3.119-.371 6.26-.707 9.412-1.028 1.115-.114 2.236-.215 3.355-.324 1.626-.153 3.253-.303 4.887-.444a523.13 523.13 0 0 1 3.614-.292c1.614-.13 3.229-.25 4.85-.364a330.05 330.05 0 0 1 3.68-.242 517.68 517.68 0 0 1 13.54-.689c1.197-.045 2.39-.094 3.59-.134a553.01 553.01 0 0 1 6.073-.153c.977-.02 1.95-.049 2.93-.065 3-.048 6.007-.076 9.027-.076l.222-78.038c-3.02 0-6.028.026-9.028.074-.981.015-1.957.047-2.937.066-2.023.042-4.043.092-6.057.154-.396.014-.798.017-1.195.034-.81.027-1.614.069-2.423.1-1.652.065-3.3.133-4.946.21a675.3 675.3 0 0 0-8.572.476 521.445 521.445 0 0 0-8.532.606c-1.206.098-2.413.192-3.615.294-1.633.143-3.261.294-4.888.447-.802.076-1.612.14-2.412.22-.316.032-.626.07-.94.104-3.152.316-6.29.655-9.41 1.026-.27.032-.536.07-.806.104-2.86.346-5.707.714-8.54 1.104-.947.13-1.886.267-2.83.401a516.75 516.75 0 0 0-6.768 1.016c-.904.141-1.812.28-2.713.427a502.79 502.79 0 0 0-9.113 1.55c-.383.07-.76.146-1.141.217-2.188.401-4.371.81-6.539 1.238-.907.178-1.805.37-2.709.552-1.645.336-3.292.667-4.925 1.015-1.037.223-2.062.458-3.094.685-1.487.33-2.976.653-4.452.994-1.08.25-2.15.507-3.226.763-1.414.34-2.832.673-4.237 1.02-1.092.273-2.173.552-3.258.83-1.372.35-2.743.7-4.108 1.06-1.095.293-2.184.59-3.273.889a394.794 394.794 0 0 0-7.262 2.047 623.22 623.22 0 0 0-3.895 1.15 442.077 442.077 0 0 0-7.061 2.195c-.498.159-1.004.31-1.498.47-.388.125-.765.265-1.151.389a435.482 435.482 0 0 0-9.045 3.058c-.037.016-.073.026-.11.037a403.423 403.423 0 0 0-8.92 3.282c-.705.267-1.407.533-2.106.801a401.357 401.357 0 0 0-8.631 3.438c-.23.098-.457.197-.69.293a369.288 369.288 0 0 0-7.867 3.387c-.652.289-1.306.578-1.955.87a364.548 364.548 0 0 0-8.108 3.767c-.373.18-.741.368-1.114.546a332.862 332.862 0 0 0-7.057 3.536c-.59.302-1.18.602-1.764.908a319.15 319.15 0 0 0-7.573 4.078c-.449.25-.889.506-1.338.76a300.82 300.82 0 0 0-6.443 3.734c-.327.197-.67.383-.996.58-.229.136-.45.279-.679.416-1.1.667-2.185 1.34-3.267 2.016-.741.463-1.489.922-2.222 1.389-1.149.727-2.277 1.47-3.404 2.212-.647.425-1.303.843-1.941 1.271a257.598 257.598 0 0 0-4.007 2.743c-.393.274-.796.54-1.188.814a266.44 266.44 0 0 0-5.033 3.632c-.442.325-.867.66-1.302.987a252.837 252.837 0 0 0-3.578 2.726c-.602.463-1.181.94-1.775 1.412a218.37 218.37 0 0 0-2.946 2.367c-.641.524-1.265 1.058-1.897 1.59-.894.751-1.788 1.502-2.663 2.261-.646.561-1.278 1.124-1.913 1.688-.835.742-1.67 1.486-2.489 2.237-.235.217-.484.428-.72.647-.293.273-.567.552-.86.823a210.597 210.597 0 0 0-3.68 3.528c-.438.432-.884.864-1.319 1.299a181.785 181.785 0 0 0-4.594 4.753c-.195.21-.382.423-.577.633a188.495 188.495 0 0 0-3.798 4.247c-.427.492-.845.986-1.263 1.478a179.713 179.713 0 0 0-3.124 3.8c-.24.298-.496.589-.733.888-.113.144-.217.29-.328.433a159.217 159.217 0 0 0-2.443 3.22c-.31.416-.63.825-.935 1.243a153.334 153.334 0 0 0-3.17 4.514c-.21.314-.41.63-.618.944a153.343 153.343 0 0 0-2.35 3.636c-.34.548-.663 1.097-.994 1.646-.601.995-1.2 1.994-1.774 3-.123.213-.258.423-.379.641-.267.47-.51.95-.77 1.423-.418.76-.833 1.522-1.236 2.284-.371.71-.733 1.43-1.092 2.147a132.85 132.85 0 0 0-1.135 2.302c-.346.722-.677 1.45-1.006 2.177-.352.77-.7 1.542-1.036 2.32-.312.728-.615 1.462-.914 2.196-.319.776-.633 1.559-.934 2.341-.116.301-.247.598-.36.897-.174.466-.324.93-.492 1.394-.259.72-.52 1.44-.763 2.16-.266.783-.52 1.565-.766 2.35-.23.725-.46 1.45-.674 2.176-.234.787-.452 1.578-.667 2.37-.199.728-.399 1.46-.584 2.192-.2.795-.383 1.594-.566 2.39-.168.737-.338 1.47-.49 2.209-.053.248-.117.497-.165.747-.113.553-.197 1.114-.301 1.671-.134.734-.274 1.466-.393 2.207a97.435 97.435 0 0 0-.363 2.447c-.106.734-.212 1.47-.303 2.205-.097.825-.176 1.655-.257 2.483-.072.735-.15 1.47-.205 2.208-.065.832-.107 1.668-.151 2.504-.04.741-.088 1.477-.111 2.22-.007.17-.022.347-.027.521-.037 1.255-.05 2.515-.044 3.78l-.223 78.037c-.007-1.438.022-2.869.072-4.298.024-.748.072-1.488.111-2.229.045-.835.087-1.666.15-2.494" fill="#1D346D"></path><path d="M1225.036 532.122c.036-.455.084-.909.128-1.364.049-.507.098-1.016.158-1.523.055-.455.121-.909.185-1.364.072-.5.141-1.003.223-1.501.076-.456.162-.91.246-1.364.09-.496.181-.99.285-1.485.095-.455.199-.909.301-1.362.115-.49.227-.98.348-1.47.116-.45.237-.9.36-1.348a61.126 61.126 0 0 1 .823-2.795 65.183 65.183 0 0 1 .943-2.778 67.615 67.615 0 0 1 1.101-2.856c.185-.45.37-.903.563-1.353.206-.478.421-.954.638-1.43.202-.446.407-.89.619-1.338.227-.472.462-.945.697-1.417.224-.44.445-.882.676-1.322.245-.469.5-.937.758-1.402.231-.427.467-.854.71-1.277.352-.616.718-1.228 1.088-1.839.205-.34.405-.682.615-1.02.47-.753.96-1.5 1.453-2.248.126-.188.244-.38.372-.568a96.89 96.89 0 0 1 1.953-2.783c.19-.257.388-.51.578-.77.492-.66.988-1.32 1.502-1.976.213-.274.437-.544.655-.816a98.827 98.827 0 0 1 1.921-2.335c.257-.304.514-.608.778-.91a112.59 112.59 0 0 1 2.34-2.62c.12-.128.233-.259.35-.386.92-.985 1.868-1.96 2.832-2.928.266-.265.54-.53.809-.794.744-.73 1.499-1.456 2.268-2.177.323-.302.644-.605.972-.902.504-.463 1.016-.922 1.532-1.379.392-.347.778-.695 1.175-1.038.543-.468 1.094-.932 1.647-1.397.386-.324.77-.652 1.161-.974.595-.487 1.2-.97 1.807-1.451.368-.292.73-.588 1.104-.88.726-.566 1.469-1.126 2.213-1.685.262-.196.521-.398.785-.594a157.964 157.964 0 0 1 3.105-2.24c.229-.162.468-.318.698-.48.823-.572 1.652-1.143 2.494-1.708.396-.263.801-.524 1.203-.787.692-.454 1.385-.91 2.09-1.357.45-.288.911-.57 1.367-.855.667-.413 1.332-.83 2.011-1.24.341-.206.688-.408 1.032-.613a183.197 183.197 0 0 1 3.968-2.3c.274-.155.544-.311.822-.466a193.907 193.907 0 0 1 5.749-3.073c1.426-.734 2.87-1.458 4.334-2.169.231-.112.462-.23.697-.34a204.532 204.532 0 0 1 4.988-2.32l1.2-.533a225.93 225.93 0 0 1 4.85-2.089c.14-.059.279-.12.418-.176a218.666 218.666 0 0 1 5.314-2.116 260.027 260.027 0 0 1 6.79-2.516l.056-.02a277.876 277.876 0 0 1 14.706-4.691c.318-.09.632-.183.951-.274a285.435 285.435 0 0 1 8.309-2.222c.269-.07.536-.138.808-.205 2.897-.72 5.83-1.4 8.798-2.042.181-.039.36-.081.54-.118a302.24 302.24 0 0 1 9.465-1.871l.096-.018c1.847-.335 3.712-.649 5.584-.951.552-.09 1.108-.175 1.66-.262a322.58 322.58 0 0 1 4.168-.625c.584-.082 1.165-.166 1.751-.247 1.742-.24 3.49-.468 5.25-.68.167-.02.333-.044.5-.064a368.02 368.02 0 0 1 5.792-.633c.382-.037.767-.072 1.15-.11 3.2-.313 6.424-.58 9.673-.802.381-.025.76-.052 1.142-.074a333.84 333.84 0 0 1 9.804-.495c.444-.017.886-.036 1.333-.05 1.24-.04 2.487-.07 3.734-.095.605-.013 1.203-.03 1.81-.04 1.845-.029 3.697-.049 5.556-.049l.222-78.037c-1.859 0-3.71.018-5.558.047-.605.01-1.205.027-1.808.04-1.247.025-2.494.056-3.736.096-.243.008-.487.01-.73.018-.202.007-.399.024-.6.032a340.252 340.252 0 0 0-10.942.57c-3.254.221-6.48.49-9.684.802-.186.019-.378.029-.566.046-.191.02-.381.043-.573.064-1.944.196-3.88.406-5.804.634-.153.017-.306.04-.46.06-1.774.213-3.537.441-5.291.683-.58.08-1.155.164-1.733.245-1.403.202-2.801.412-4.193.628-.546.086-1.092.17-1.636.259a287.8 287.8 0 0 0-5.598.954.143.143 0 0 0-.029.003l-.052.012a304.874 304.874 0 0 0-9.474 1.87c-.18.041-.36.082-.542.12a295.584 295.584 0 0 0-8.802 2.042c-.267.066-.533.136-.8.204-2.806.705-5.58 1.447-8.317 2.225-.316.09-.627.181-.94.272-2.686.774-5.336 1.58-7.948 2.42-.158.05-.323.096-.479.146-.237.078-.467.162-.704.239a249.47 249.47 0 0 0-5.594 1.893c-.014.001-.027.006-.043.012a248.265 248.265 0 0 0-5.495 2.02l-1.292.494a241.477 241.477 0 0 0-5.315 2.118c-.143.058-.281.119-.424.18-1.637.68-3.25 1.378-4.848 2.087-.4.176-.802.354-1.2.532-1.682.76-3.348 1.529-4.988 2.318-.233.111-.464.23-.697.343a204.08 204.08 0 0 0-4.34 2.171c-.359.185-.72.37-1.078.556-1.578.823-3.134 1.66-4.665 2.513-.278.154-.548.312-.822.467a182.897 182.897 0 0 0-3.964 2.3c-.202.12-.415.234-.617.357-.141.084-.277.171-.419.258-.672.405-1.332.817-1.994 1.23-.462.289-.931.574-1.388.867-.703.446-1.394.9-2.084 1.353-.4.262-.805.52-1.2.785-.829.554-1.644 1.116-2.454 1.68-.247.172-.5.342-.748.513a156.882 156.882 0 0 0-3.093 2.234c-.281.208-.553.421-.832.63-.731.549-1.46 1.096-2.171 1.654-.377.29-.74.588-1.11.883-.603.479-1.206.958-1.798 1.443-.396.328-.784.658-1.176.986-.548.462-1.096.92-1.632 1.386-.398.346-.79.695-1.181 1.043-.514.456-1.027.913-1.53 1.375-.146.133-.299.264-.443.396-.18.168-.348.34-.528.508-.77.72-1.524 1.444-2.268 2.176-.27.264-.543.528-.809.793-.968.97-1.914 1.945-2.831 2.93-.118.127-.23.256-.348.382a108.793 108.793 0 0 0-5.042 5.865c-.148.186-.307.366-.454.553-.068.089-.134.18-.203.268a101.96 101.96 0 0 0-1.5 1.975c-.192.259-.392.513-.579.77-.67.92-1.322 1.847-1.952 2.78-.128.19-.247.384-.377.577a93.926 93.926 0 0 0-1.45 2.242c-.208.338-.407.677-.612 1.015-.371.613-.74 1.226-1.092 1.845-.074.131-.156.262-.232.393-.165.293-.316.587-.476.88-.257.467-.512.934-.76 1.403-.228.44-.45.882-.671 1.322-.24.473-.474.947-.701 1.42a68.95 68.95 0 0 0-.615 1.332 64.415 64.415 0 0 0-1.204 2.787c-.196.48-.39.96-.576 1.444-.07.183-.151.365-.22.551-.106.284-.2.571-.303.855-.16.445-.319.888-.472 1.333a90.422 90.422 0 0 0-.885 2.788c-.143.484-.278.97-.409 1.455-.122.448-.247.9-.361 1.352-.123.49-.235.98-.348 1.471-.102.454-.208.907-.302 1.36-.032.153-.073.306-.101.457-.07.343-.121.687-.185 1.028-.082.454-.168.909-.244 1.364-.082.499-.151 1.001-.223 1.502-.064.453-.13.908-.185 1.362a65.73 65.73 0 0 0-.158 1.526c-.045.454-.094.907-.128 1.362-.04.511-.064 1.025-.092 1.537-.025.457-.054.914-.07 1.372-.003.108-.013.214-.016.32-.022.774-.03 1.55-.027 2.327l-.221 78.04c-.006-.887.014-1.77.043-2.65.015-.458.045-.914.069-1.373.028-.512.054-1.023.092-1.535" fill="#1D346D"></path><path d="M1423.099 416.519c-1.396 0-2.785.028-4.164.07-.091.003-.187.002-.28.005-.408.015-.81.044-1.216.062-.822.036-1.643.072-2.457.123-.541.035-1.077.079-1.615.12-.764.058-1.527.118-2.284.189-.203.02-.408.03-.61.05-.272.029-.537.067-.81.098-1.072.114-2.137.24-3.193.38-.421.056-.847.112-1.268.17a126.11 126.11 0 0 0-4.227.676c-.003.001-.007.001-.01.003-.097.017-.193.04-.294.057-1.092.2-2.178.413-3.247.642-.405.087-.796.185-1.195.274-.76.173-1.524.342-2.273.527-.462.114-.916.24-1.373.361-.674.176-1.346.351-2.008.537-.48.135-.947.28-1.419.422-.627.186-1.254.373-1.872.57-.114.036-.235.07-.351.107-.187.06-.361.13-.548.193-1.223.405-2.427.83-3.606 1.271-.266.101-.538.197-.804.301a87.303 87.303 0 0 0-3.895 1.614c-.277.121-.548.249-.822.375a81.286 81.286 0 0 0-3.258 1.57c-.202.104-.41.201-.61.307a72.962 72.962 0 0 0-3.444 1.923c-.106.064-.225.123-.33.187-.236.143-.456.29-.688.435a58.022 58.022 0 0 0-2.49 1.617 61.51 61.51 0 0 0-2.345 1.685 62.718 62.718 0 0 0-2.195 1.75c-.4.336-.786.678-1.17 1.021-.196.176-.406.346-.6.524-.082.074-.149.153-.228.228a44.629 44.629 0 0 0-2.188 2.179c-.054.057-.102.117-.156.174a40.597 40.597 0 0 0-1.798 2.098c-.078.096-.168.188-.244.282-.13.165-.239.335-.365.5a36.669 36.669 0 0 0-1.497 2.112c-.28.43-.544.863-.803 1.298-.108.185-.234.363-.34.55-.062.109-.11.221-.171.332-.195.353-.371.709-.551 1.065-.163.33-.33.658-.483.992-.163.36-.309.723-.457 1.087-.097.235-.21.469-.299.705-.038.105-.067.212-.104.316-.121.331-.225.669-.333 1.003-.116.363-.23.725-.33 1.088-.093.34-.17.68-.25 1.021-.057.244-.129.486-.178.73-.023.127-.035.253-.058.377-.064.343-.113.687-.163 1.031a28.43 28.43 0 0 0-.143 1.122 30.56 30.56 0 0 0-.074 1.048c-.012.232-.042.46-.049.69-.01.291-.013.582-.012.872v.005l-.222 78.038c-.001-.528.032-1.048.063-1.57a23.9 23.9 0 0 1 .074-1.042c.037-.38.087-.752.142-1.129.05-.342.098-.685.162-1.024.069-.375.153-.744.238-1.112.08-.34.157-.68.247-1.018.101-.364.216-.727.333-1.09.106-.334.21-.671.331-1.002.125-.343.264-.68.404-1.02.147-.364.294-.729.457-1.088.153-.333.319-.664.485-.994.177-.356.355-.71.548-1.062.161-.297.34-.59.511-.885.259-.435.523-.865.803-1.295a34.99 34.99 0 0 1 1.5-2.113c.198-.262.398-.524.606-.782a40.738 40.738 0 0 1 1.801-2.102c.053-.055.1-.114.153-.17a45.479 45.479 0 0 1 2.19-2.18c.269-.254.55-.501.827-.752.383-.342.77-.683 1.168-1.02a65.788 65.788 0 0 1 2.194-1.749 59.696 59.696 0 0 1 3.425-2.408 74.669 74.669 0 0 1 2.43-1.515 73.039 73.039 0 0 1 3.446-1.925c.198-.104.406-.203.608-.306a79.221 79.221 0 0 1 3.26-1.574c.274-.124.543-.25.818-.372a88.131 88.131 0 0 1 3.896-1.613c.267-.104.541-.201.812-.302a93.08 93.08 0 0 1 3.596-1.27c.302-.099.601-.205.907-.3.614-.199 1.24-.383 1.864-.57.474-.14.943-.287 1.423-.423.657-.187 1.33-.36 1.998-.536.463-.12.918-.247 1.384-.361.747-.186 1.507-.354 2.265-.526.4-.092.796-.19 1.201-.275 1.066-.229 2.143-.44 3.232-.64l.32-.062c1.39-.25 2.8-.472 4.224-.675.424-.06.852-.116 1.279-.172 1.052-.14 2.112-.267 3.181-.38.474-.051.948-.103 1.424-.147.754-.072 1.517-.131 2.278-.191.541-.04 1.08-.084 1.625-.118.807-.052 1.622-.089 2.435-.124.506-.022 1.01-.049 1.518-.066 1.364-.045 2.736-.07 4.119-.07l.042-.002.22-78.037z" fill="#1D346D"></path><path d="M1422.99 397.066l.107 19.453c-41.064 0-74.375 19.348-74.243 43.121l-33.612.007c-.194-34.51 48.147-62.587 107.748-62.58m-.425-77.347l.13 25.13c-109.34 0-197.998 51.492-197.642 114.79l-43.41.007c-.433-77.154 107.646-139.926 240.922-139.926" fill="#FFF"></path><path fill="#B2B2B2" d="M1225.053 459.64l-.22 78.039-43.411.006.222-78.038z"></path><path d="M1422.12 242.375l.174 30.808c-177.596 0-321.618 83.647-321.04 186.457h-53.219c-.324-58.034 38.405-112.592 109.057-153.626 70.663-41.04 164.777-63.639 265.027-63.639" fill="#FFF"></path><path fill="#B2B2B2" d="M1101.254 459.64l-.222 78.039h-53.217l.222-78.037zm-123.801.002l-.222 78.037-63.023.007.221-78.037z"></path><path d="M1421.694 165.03l.195 36.486c-245.868 0-445.236 115.793-444.436 258.126l-63.027.007c-.44-78.701 52.083-152.684 147.882-208.325 95.809-55.646 223.437-86.294 359.386-86.294" fill="#FFF"></path><path d="M1421.247 87.684l.239 42.163c-314.122 0-568.858 147.95-567.835 329.795h-72.833c-.279-50.198 16.44-98.916 49.71-144.785 32.102-44.298 78.205-84.069 137.006-118.219 58.81-34.156 127.36-60.978 203.773-79.705 79.128-19.41 163.22-29.242 249.94-29.249" fill="#FFF"></path><g transform="translate(779.754495, 457.344056)"><mask id="mask-2" fill="#fff"><use xlink:href="#path-1"></use></mask><path d="M1.067 2.298l-.222 78.04a234.44 234.44 0 0 1-.001-1.884L1.065.415c-.001.628-.001 1.256.002 1.883" fill="#858585" mask="url(#mask-2)"></path></g><path fill="#B2B2B2" d="M853.651 459.642l-.22 78.039H780.6l.222-78.039zm-123.811.007l-.222 78.039h-82.625l.222-78.038z"></path><path d="M1420.812 10.345l.269 47.832c-382.396.001-692.486 180.104-691.24 401.473h-82.63c-.337-60.649 19.864-119.49 60.043-174.899 38.776-53.504 94.468-101.554 165.495-142.806 71.038-41.256 153.845-73.65 246.15-96.277 95.585-23.442 197.159-35.328 301.913-35.323" fill="#FFF"></path><path d="M1420.388-67l.301 53.503c-450.67.002-816.117 212.253-814.647 473.146h-92.427c-.395-71.086 23.266-140.06 70.364-205.005 45.463-62.717 110.737-119.036 193.99-167.39C861.23 38.896 958.304.924 1066.49-25.6 1178.52-53.075 1297.594-67 1420.388-67" fill="#FFF"></path><g transform="translate(512.554140, 456.333341)"><mask id="mask-4" fill="#fff"><use xlink:href="#path-3"></use></mask><path d="M1.064 3.317L.842 81.355c-.005-.889-.007-1.78-.003-2.666L1.06.65c-.003.888-.001 1.779.004 2.667" fill="#858585" mask="url(#mask-4)"></path></g><path d="M1418.558 522.149c-.83-.024-1.652-.066-2.478-.1-.979-.038-1.958-.075-2.928-.129-.828-.047-1.648-.109-2.47-.166-.958-.067-1.914-.13-2.864-.211-.847-.073-1.685-.162-2.526-.247-.919-.091-1.843-.18-2.756-.286-.838-.094-1.667-.208-2.499-.314-.89-.117-1.783-.23-2.663-.358-.973-.14-1.933-.3-2.892-.456-.79-.128-1.583-.25-2.363-.388-.966-.172-1.918-.36-2.872-.546-.75-.146-1.504-.286-2.245-.44a171.632 171.632 0 0 1-5.366-1.213l-.015-.003c-1.761-.43-3.496-.895-5.208-1.38-.4-.11-.792-.236-1.19-.35a156.037 156.037 0 0 1-6.485-2.05 138.347 138.347 0 0 1-5.66-2.06c-.812-.32-1.603-.657-2.4-.988-.593-.246-1.198-.483-1.783-.737-.821-.354-1.62-.73-2.423-1.1-.546-.25-1.102-.492-1.638-.747-.876-.417-1.725-.855-2.578-1.29-.439-.222-.89-.435-1.323-.662a110.212 110.212 0 0 1-3.737-2.057c-19.637-11.33-31.851-26.974-31.954-44.226l-.22 78.038c.101 17.252 12.315 32.895 31.952 44.227 1.218.702 2.465 1.387 3.74 2.057.402.212.824.41 1.23.617.885.45 1.764.901 2.671 1.335.531.253 1.084.492 1.623.74.807.372 1.609.748 2.434 1.106.595.257 1.208.497 1.81.749.753.31 1.494.633 2.26.933.039.014.077.027.114.042a137.54 137.54 0 0 0 5.662 2.063c.5.173 1.008.336 1.516.504 1.633.537 3.29 1.055 4.974 1.545.277.08.541.173.82.254.12.035.244.062.361.097 3.435.967 6.971 1.836 10.594 2.593.126.029.247.059.375.086.615.126 1.244.232 1.862.353.956.186 1.91.376 2.877.547.782.138 1.573.26 2.361.39.961.154 1.923.314 2.894.455.212.03.417.07.629.099.672.096 1.356.17 2.035.257.831.107 1.66.22 2.5.317.91.106 1.829.193 2.746.286.845.084 1.687.173 2.538.247.195.015.385.038.58.055.754.062 1.52.1 2.282.155.821.057 1.638.12 2.465.166.978.055 1.966.092 2.953.13.818.035 1.631.075 2.453.098.146.004.29.014.435.017 1.562.039 3.13.059 4.707.059l.222-78.038c-1.724 0-3.435-.03-5.139-.075" fill="#2F96EA"></path><path d="M1423.596 502.765l.101 19.46c-29.802-.004-56.863-7.023-76.501-18.354-19.637-11.332-31.851-26.974-31.954-44.226l33.612-.006c.067 11.892 8.482 22.673 22.015 30.483 13.531 7.808 32.183 12.643 52.727 12.643" fill="#203370"></path><path d="M1424.13 599.563c-3.207 0-6.395-.047-9.573-.119-.516-.012-1.032-.02-1.546-.034a407.867 407.867 0 0 1-10.517-.413c-.494-.027-.988-.048-1.48-.077-3.455-.19-6.887-.425-10.302-.7a227.73 227.73 0 0 1-1.507-.121c-3.44-.29-6.857-.622-10.251-.995l-1.498-.166a405.712 405.712 0 0 1-10.07-1.275c-.476-.067-.952-.132-1.43-.201a385.73 385.73 0 0 1-10.586-1.671 375.675 375.675 0 0 1-11.76-2.21c-.508-.105-1.019-.207-1.526-.311-1.38-.29-2.751-.59-4.118-.892-.647-.143-1.297-.28-1.942-.428a339.31 339.31 0 0 1-5.961-1.403c-.046-.01-.09-.023-.136-.033-1.926-.472-3.84-.961-5.74-1.463-.64-.168-1.271-.345-1.907-.516a332.73 332.73 0 0 1-3.915-1.075c-.614-.173-1.222-.35-1.832-.527a315.62 315.62 0 0 1-5.52-1.641c-.47-.144-.946-.286-1.415-.433a324.72 324.72 0 0 1-6.512-2.106c-.483-.163-.96-.33-1.439-.493a321.81 321.81 0 0 1-5.265-1.847c-.526-.19-1.055-.376-1.578-.57a295.656 295.656 0 0 1-6.23-2.36c-.235-.091-.465-.186-.699-.278a287.766 287.766 0 0 1-8.728-3.608c-.171-.075-.338-.15-.506-.226a267.641 267.641 0 0 1-8.542-3.893c-.116-.054-.228-.113-.343-.168a256.425 256.425 0 0 1-8.354-4.187c-.058-.032-.114-.063-.174-.094a237.856 237.856 0 0 1-8.156-4.492c-43.908-25.335-71.21-60.315-71.428-98.892l-.222 78.04c.219 38.577 27.52 73.554 71.428 98.89a237.776 237.776 0 0 0 8.16 4.493c.056.028.113.062.17.092a258.144 258.144 0 0 0 8.354 4.189c.115.055.229.112.343.166a268.08 268.08 0 0 0 8.549 3.898c.166.072.328.148.496.22a285.8 285.8 0 0 0 8.737 3.611c.15.059.289.123.438.18.083.034.168.064.25.096 2.06.806 4.141 1.594 6.242 2.364.521.19 1.044.378 1.568.565a295.84 295.84 0 0 0 5.265 1.847c.482.163.96.331 1.442.494 2.15.719 4.319 1.423 6.51 2.108.47.144.948.287 1.422.431 1.825.561 3.663 1.109 5.515 1.641.35.101.69.21 1.039.311.262.072.53.141.795.217 1.302.368 2.615.725 3.93 1.08.63.171 1.254.342 1.884.509a341.8 341.8 0 0 0 5.748 1.466l.136.032c1.971.483 3.96.95 5.96 1.404.644.144 1.294.284 1.941.426 1.368.303 2.74.603 4.118.89.272.06.54.121.813.177.237.049.477.089.714.136 3.44.704 6.914 1.365 10.423 1.983.448.078.895.153 1.344.229 3.492.601 7.018 1.159 10.574 1.668.234.033.459.075.692.109.249.033.503.06.75.096a397.363 397.363 0 0 0 11.562 1.439c3.39.373 6.804.704 10.244.994.234.02.459.047.692.067.274.024.555.034.829.056 3.411.275 6.841.509 10.293.698.492.029.986.053 1.48.078 3.486.18 6.991.319 10.517.413.185.005.368.018.553.022.33.008.664.005.993.013 3.178.072 6.366.118 9.574.118l.222-78.038z" fill="#2F96EA"></path><path d="M1424 574.434l.13 25.13c-66.638 0-127.15-15.69-171.058-41.027-43.908-25.335-71.21-60.315-71.428-98.892l43.41-.006c.179 31.649 22.58 60.348 58.603 81.134 36.025 20.788 85.673 33.661 140.343 33.661" fill="#203370"></path><path d="M1424.356 754.948l.222-78.04c-2.965 0-5.924-.023-8.875-.061-.98-.014-1.956-.036-2.934-.054-1.951-.035-3.9-.072-5.847-.123-1.57-.043-3.134-.099-4.7-.15-1.54-.055-3.084-.103-4.621-.165-1.565-.064-3.123-.143-4.682-.217-1.533-.076-3.067-.145-4.596-.23-1.557-.084-3.106-.185-4.659-.282-1.524-.094-3.05-.187-4.572-.291-1.548-.11-3.09-.23-4.637-.348-1.516-.117-3.033-.23-4.544-.356-1.546-.129-3.084-.273-4.625-.415-1.502-.137-3.006-.27-4.503-.416-1.54-.153-3.07-.32-4.605-.482-1.492-.158-2.986-.312-4.472-.48-1.53-.173-3.05-.362-4.573-.545-1.482-.178-2.966-.354-4.443-.542-1.516-.193-3.025-.401-4.539-.608-1.464-.2-2.93-.395-4.39-.601-1.749-.25-3.488-.518-5.23-.783-1.286-.195-2.58-.385-3.863-.588-1.826-.289-3.643-.598-5.46-.903-1.186-.2-2.376-.39-3.559-.597-2.01-.35-4.006-.722-6.006-1.091-.98-.182-1.964-.353-2.94-.54a596.546 596.546 0 0 1-8.585-1.7 556.416 556.416 0 0 1-9.594-2.07c-.995-.223-1.98-.459-2.971-.687a555.271 555.271 0 0 1-6.263-1.473c-1.163-.282-2.316-.573-3.474-.86a588.609 588.609 0 0 1-5.7-1.453 565.355 565.355 0 0 1-9.159-2.479 514.358 514.358 0 0 1-13.535-3.977c-.364-.112-.722-.231-1.085-.346a499.455 499.455 0 0 1-11.912-3.891 476.394 476.394 0 0 1-8.728-3.06c-.439-.158-.88-.31-1.32-.47a457.847 457.847 0 0 1-13.366-5.13c-1.141-.457-2.282-.912-3.413-1.377a450.528 450.528 0 0 1-3.99-1.668c-1.114-.468-2.228-.934-3.332-1.412-1.331-.571-2.647-1.16-3.965-1.744-1.083-.48-2.17-.957-3.246-1.444-1.328-.601-2.64-1.218-3.956-1.83-1.045-.488-2.096-.97-3.134-1.465-1.343-.64-2.672-1.293-4.003-1.945-.988-.485-1.987-.962-2.968-1.453-1.385-.692-2.751-1.4-4.12-2.106-.91-.469-1.827-.929-2.73-1.4-1.497-.787-2.974-1.59-4.453-2.389-.756-.41-1.523-.81-2.276-1.226a371.62 371.62 0 0 1-6.592-3.712c-71.114-41.036-110.468-95.597-110.796-153.633l-.22 78.04c.326 58.034 39.68 112.597 110.794 153.629a361.338 361.338 0 0 0 6.593 3.713c.744.41 1.505.808 2.255 1.215 1.487.804 2.971 1.612 4.478 2.401.893.469 1.8.924 2.7 1.388 1.377.708 2.752 1.42 4.145 2.118.983.492 1.981.969 2.973 1.454 1.33.652 2.655 1.305 4 1.945 1.036.495 2.087.977 3.134 1.463 1.314.613 2.626 1.23 3.954 1.83 1.079.49 2.166.968 3.253 1.448 1.314.583 2.627 1.168 3.953 1.74 1.109.479 2.228.946 3.344 1.418 1.324.557 2.647 1.115 3.983 1.663 1.134.466 2.275.922 3.418 1.38.894.36 1.78.726 2.679 1.08.322.128.655.245.98.371a467.41 467.41 0 0 0 9.703 3.675c.438.16.882.314 1.319.472a536.744 536.744 0 0 0 11.51 3.997 495.66 495.66 0 0 0 9.128 2.953c.365.114.725.233 1.09.346a532.431 532.431 0 0 0 10.267 3.057c.37.104.731.22 1.1.324.717.205 1.446.393 2.167.596a565.58 565.58 0 0 0 5.583 1.533 533.409 533.409 0 0 0 9.276 2.397c1.156.289 2.31.581 3.474.862 2.077.503 4.167.992 6.261 1.473.992.228 1.978.463 2.973.686 3.087.692 6.19 1.37 9.308 2.01.002.003.005.003.007.004.096.02.192.037.286.057 2.843.586 5.7 1.152 8.57 1.698 1.005.195 2.024.37 3.032.556 1.968.365 3.936.73 5.915 1.075 1.202.21 2.41.403 3.617.606 1.796.303 3.594.608 5.4.896 1.293.205 2.596.394 3.893.59 1.734.265 3.465.532 5.206.78.288.04.572.087.86.128 1.174.166 2.357.314 3.533.473 1.512.205 3.022.414 4.537.608 1.478.19 2.963.365 4.445.545 1.521.183 3.044.37 4.57.544 1.494.168 2.994.324 4.495.482 1.522.161 3.045.326 4.574.475 1.508.15 3.02.282 4.53.422 1.537.139 3.068.283 4.605.413.33.027.654.062.985.087 1.183.1 2.375.178 3.561.267 1.545.121 3.089.242 4.64.351 1.52.104 3.045.197 4.57.29 1.552.096 3.102.199 4.658.283 1.53.084 3.063.154 4.596.228 1.56.074 3.119.153 4.682.217 1.538.064 3.079.11 4.621.163 1.566.054 3.133.109 4.7.15.357.01.71.026 1.064.036 1.592.039 3.188.06 4.783.09.978.016 1.955.041 2.934.055 2.953.038 5.91.062 8.875.062" fill="#2F96EA"></path><path d="M1424.403 646.101l.175 30.808c-100.252 0-194.631-22.602-265.745-63.637-71.116-41.035-110.47-95.596-110.796-153.633h53.217c.289 51.412 36.672 98.028 95.187 131.79 58.512 33.764 139.154 54.674 227.962 54.672" fill="#203370"></path><path d="M1424.781 832.293l.222-78.037c-4.025 0-8.04-.032-12.05-.086-1.302-.017-2.599-.05-3.898-.074a901.928 901.928 0 0 1-7.998-.168c-2.12-.055-4.236-.132-6.352-.203-2.097-.072-4.194-.138-6.285-.223-2.112-.086-4.216-.192-6.324-.292-2.089-.101-4.176-.197-6.258-.311-2.097-.116-4.188-.25-6.28-.381-2.082-.13-4.166-.254-6.241-.398-2.086-.145-4.165-.311-6.245-.47-2.067-.159-4.136-.311-6.198-.484-2.087-.177-4.166-.37-6.246-.561-2.045-.187-4.094-.367-6.134-.568-2.077-.207-4.148-.428-6.22-.648-2.03-.215-4.061-.425-6.083-.654-2.065-.235-4.122-.488-6.183-.737-2.015-.244-4.033-.48-6.04-.737-2.051-.262-4.091-.546-6.135-.822-1.991-.27-3.99-.535-5.976-.82-2.363-.338-4.712-.698-7.066-1.056-1.755-.267-3.513-.524-5.26-.8-2.459-.39-4.902-.805-7.35-1.218-1.628-.272-3.264-.534-4.886-.818-2.694-.469-5.37-.968-8.05-1.463-1.357-.25-2.724-.489-4.077-.746a783.884 783.884 0 0 1-11.77-2.336c-.082-.017-.166-.03-.248-.049a802.388 802.388 0 0 1-12.621-2.726c-1.353-.305-2.696-.626-4.045-.937a742.905 742.905 0 0 1-8.48-1.992c-1.576-.384-3.144-.777-4.712-1.169a720.745 720.745 0 0 1-12.582-3.253 744.537 744.537 0 0 1-7.567-2.078c-1.476-.414-2.953-.826-4.422-1.25a705.604 705.604 0 0 1-13.921-4.137c-.506-.158-1.003-.325-1.51-.484a662.672 662.672 0 0 1-16.12-5.264 656.172 656.172 0 0 1-11.82-4.145c-.6-.218-1.21-.425-1.81-.645a647.322 647.322 0 0 1-13.147-4.98 567.068 567.068 0 0 1-4.973-1.975c-1.546-.62-3.095-1.236-4.631-1.867-1.812-.743-3.605-1.5-5.4-2.258-1.512-.636-3.027-1.27-4.529-1.918-1.803-.779-3.59-1.573-5.38-2.366-1.465-.65-2.935-1.295-4.39-1.955-1.809-.821-3.6-1.66-5.391-2.494-1.41-.655-2.825-1.305-4.224-1.972-1.825-.868-3.628-1.758-5.434-2.644-1.343-.655-2.694-1.305-4.025-1.971-1.879-.937-3.732-1.9-5.591-2.855-1.23-.634-2.472-1.257-3.694-1.898-2.047-1.072-4.063-2.169-6.083-3.262-1.012-.546-2.034-1.083-3.039-1.636a502.84 502.84 0 0 1-8.943-5.037C968.228 612.32 914.874 538.338 914.43 459.65l-.22 78.037c.442 78.688 53.796 152.672 150.234 208.317a502.934 502.934 0 0 0 8.944 5.038c1.008.555 2.035 1.09 3.048 1.641 2.017 1.09 4.03 2.184 6.07 3.255 1.228.643 2.475 1.268 3.71 1.905 1.856.954 3.704 1.913 5.58 2.85 1.332.667 2.685 1.315 4.028 1.973 1.805.884 3.605 1.772 5.426 2.639 1.402.668 2.822 1.318 4.233 1.977 1.79.834 3.578 1.67 5.385 2.49 1.455.66 2.926 1.307 4.391 1.955 1.79.793 3.576 1.59 5.381 2.367 1.5.648 3.016 1.281 4.527 1.918 1.795.757 3.59 1.516 5.4 2.257 1.537.632 3.087 1.25 4.636 1.87 1.212.486 2.412.987 3.633 1.466.44.174.891.334 1.331.505 4.35 1.7 8.729 3.366 13.155 4.983.594.217 1.199.424 1.794.64a657.62 657.62 0 0 0 15.606 5.42 659.924 659.924 0 0 0 12.359 3.997c.5.158.995.323 1.494.476 4.604 1.427 9.25 2.8 13.921 4.141.5.143.99.301 1.489.444.975.277 1.961.532 2.938.806 2.517.704 5.038 1.399 7.572 2.08a730.13 730.13 0 0 0 12.567 3.25c1.574.392 3.146.787 4.727 1.17 2.81.682 5.635 1.338 8.465 1.992 1.353.31 2.697.631 4.055.937 4.184.939 8.387 1.85 12.614 2.726l.011.001.48.094c3.828.791 7.673 1.554 11.534 2.291 1.348.256 2.713.492 4.067.743 2.68.497 5.361.996 8.058 1.464 1.624.286 3.26.546 4.89.82 2.446.41 4.887.828 7.346 1.217 1.743.276 3.499.531 5.248.798 2.358.358 4.716.72 7.087 1.058.386.057.771.12 1.16.175 1.59.227 3.196.427 4.794.643 2.047.277 4.092.561 6.147.823 2.01.257 4.028.496 6.045.737 2.059.25 4.114.503 6.177.738 2.025.228 4.06.438 6.092.655 2.07.216 4.138.442 6.213.645 2.04.201 4.089.384 6.134.57 2.082.189 4.16.385 6.25.56.443.039.887.084 1.332.12 1.61.132 3.229.24 4.842.364 2.092.161 4.18.326 6.275.472 2.06.14 4.13.267 6.198.394 2.107.131 4.211.267 6.323.383 2.067.116 4.143.209 6.217.31 2.12.102 4.24.208 6.365.295 2.08.086 4.161.151 6.243.22 2.131.072 4.259.148 6.395.207.48.011.958.031 1.44.045 2.163.054 4.336.082 6.505.12 1.318.024 2.63.056 3.95.075 4.006.053 8.017.085 12.04.085" fill="#2F96EA"></path><path d="M1424.795 717.777l.206 36.477c-135.929 0-263.901-30.644-360.337-86.289-96.437-55.646-149.792-129.629-150.235-208.316h63.013c.405 71.171 50.772 135.694 131.786 182.44 80.995 46.734 192.648 75.688 315.567 75.688" fill="#203370"></path><path d="M1425.227 909.638l.221-78.04c-5.115 0-10.22-.039-15.317-.107-1.654-.024-3.3-.063-4.951-.093-3.395-.06-6.79-.127-10.174-.218-2.58-.069-5.15-.161-7.722-.247-2.76-.092-5.519-.183-8.273-.296-2.571-.105-5.139-.233-7.705-.357-2.741-.131-5.48-.259-8.213-.412-2.574-.143-5.14-.307-7.71-.467-2.716-.171-5.431-.339-8.139-.529a884.477 884.477 0 0 1-7.688-.578c-2.704-.206-5.406-.414-8.103-.641-2.523-.213-5.04-.447-7.558-.679a990.56 990.56 0 0 1-8.116-.766 925.321 925.321 0 0 1-7.516-.784c-2.69-.285-5.382-.573-8.066-.88-2.504-.287-4.998-.59-7.492-.892-2.672-.326-5.342-.651-8.006-.996-2.492-.322-4.979-.661-7.465-1-2.616-.358-5.23-.72-7.837-1.096-2.738-.394-5.469-.811-8.2-1.228-2.497-.38-4.994-.76-7.485-1.16-2.729-.437-5.45-.894-8.17-1.352-2.474-.418-4.95-.835-7.416-1.27a947.592 947.592 0 0 1-8.137-1.478c-2.452-.453-4.906-.903-7.35-1.374-2.705-.519-5.399-1.064-8.092-1.605-2.385-.479-4.771-.954-7.148-1.45a987.104 987.104 0 0 1-10.903-2.354c-1.76-.392-3.53-.765-5.288-1.163a972.948 972.948 0 0 1-16.039-3.765 946.995 946.995 0 0 1-15.797-4.02c-1.679-.44-3.339-.9-5.01-1.346a944.712 944.712 0 0 1-19.555-5.475c-.844-.247-1.694-.49-2.536-.74a861.16 861.16 0 0 1-12.194-3.706c-.981-.304-1.956-.62-2.934-.927a857.568 857.568 0 0 1-9.482-3.055c-1.146-.377-2.295-.754-3.44-1.134a876.238 876.238 0 0 1-11.536-3.928c-.131-.05-.266-.091-.399-.138a816.893 816.893 0 0 1-11.734-4.22c-1.096-.404-2.187-.812-3.28-1.218a756.644 756.644 0 0 1-8.995-3.415c-.968-.373-1.94-.74-2.905-1.118-2.343-.917-4.659-1.856-6.981-2.792-1.936-.777-3.882-1.548-5.803-2.34-2.245-.923-4.462-1.87-6.687-2.81-1.894-.802-3.796-1.595-5.677-2.408-2.226-.964-4.424-1.951-6.633-2.932-1.841-.82-3.693-1.628-5.518-2.457-2.229-1.015-4.425-2.051-6.632-3.082-1.77-.827-3.556-1.643-5.312-2.483-2.262-1.078-4.493-2.186-6.733-3.286-1.664-.815-3.343-1.618-4.993-2.444-2.338-1.17-4.64-2.37-6.952-3.562-1.521-.785-3.06-1.554-4.57-2.347-2.527-1.326-5.02-2.685-7.515-4.037-1.259-.684-2.538-1.35-3.788-2.04a626.949 626.949 0 0 1-11.083-6.245c-59.184-34.148-105.736-73.933-138.347-118.224-14.772-20.068-26.388-40.678-34.807-61.722a244.517 244.517 0 0 1-4.971-13.588 231.453 231.453 0 0 1-5.253-18.286 229.083 229.083 0 0 1-2.035-9.216 221.222 221.222 0 0 1-4.26-41.978l-.222 78.037c.284 50.212 17.561 98.921 51.326 144.79 32.612 44.291 79.165 84.076 138.347 118.226 3.657 2.11 7.353 4.19 11.083 6.246 1.25.689 2.53 1.354 3.788 2.036 2.496 1.355 4.988 2.712 7.515 4.039 1.521.8 3.07 1.574 4.602 2.365 2.3 1.184 4.59 2.376 6.917 3.542 1.66.83 3.349 1.64 5.023 2.46 2.233 1.095 4.455 2.199 6.708 3.274 1.758.838 3.541 1.654 5.312 2.48 2.205 1.031 4.403 2.07 6.63 3.084 1.827.83 3.682 1.637 5.524 2.457 2.206.98 4.403 1.968 6.63 2.932 1.883.817 3.794 1.611 5.693 2.412 2.216.94 4.425 1.881 6.66 2.802 1.937.8 3.898 1.575 5.853 2.361 1.837.737 3.657 1.492 5.509 2.22.47.185.947.365 1.421.548.975.383 1.958.754 2.936 1.134 2.97 1.147 5.958 2.28 8.962 3.399 1.1.41 2.197.821 3.3 1.226a795.621 795.621 0 0 0 11.724 4.216c.138.05.277.095.415.142a804.522 804.522 0 0 0 11.512 3.922c1.149.385 2.307.763 3.46 1.142a890.286 890.286 0 0 0 9.458 3.045c.984.31 1.966.628 2.954.936a875.793 875.793 0 0 0 12.187 3.705c.844.25 1.694.492 2.54.739 2.182.64 4.358 1.281 6.555 1.906.78.222 1.576.425 2.354.645 3.53.996 7.085 1.965 10.651 2.922 1.67.45 3.326.909 5.001 1.349a934.913 934.913 0 0 0 15.797 4.016 969.188 969.188 0 0 0 16.04 3.769c1.757.396 3.526.77 5.287 1.158 3.627.802 7.257 1.596 10.904 2.357.631.132 1.257.277 1.888.408 1.75.361 3.513.692 5.267 1.043 2.689.54 5.378 1.083 8.077 1.602 2.453.472 4.917.926 7.379 1.379 2.7.499 5.398.998 8.107 1.473 2.477.438 4.96.857 7.444 1.273 2.71.46 5.423.914 8.142 1.349 2.497.4 5.001.785 7.507 1.166 2.726.415 5.452.828 8.186 1.224.97.14 1.932.298 2.904.435 1.64.232 3.29.435 4.934.66 2.485.34 4.972.677 7.464 1.001 2.664.345 5.334.67 8.006.996 2.494.304 4.99.607 7.494.892 2.679.306 5.366.593 8.053.88 2.51.267 5.02.538 7.535.786 2.7.269 5.405.518 8.109.764 2.515.232 5.028.464 7.548.677.822.07 1.636.153 2.456.22 1.889.157 3.787.28 5.678.427 2.551.196 5.1.396 7.656.576 2.718.19 5.442.358 8.164.527 2.565.162 5.126.326 7.697.467 2.726.151 5.462.28 8.193.412 2.577.122 5.152.252 7.733.36 2.741.11 5.489.199 8.235.293 2.586.086 5.169.178 7.76.247.666.02 1.331.049 1.998.065 2.704.068 5.418.105 8.129.152 1.665.03 3.327.072 4.998.095 5.093.07 10.195.108 15.308.108" fill="#2F96EA"></path><path d="M1425.201 789.445l.247 42.156c-86.732 0-170.932-9.845-250.277-29.242-76.616-18.733-145.49-45.552-204.674-79.702S864.76 648.725 832.149 604.434c-33.764-45.871-51.043-94.583-51.326-144.792h72.83c.513 90.94 64.857 173.374 168.363 233.1 103.48 59.71 246.137 96.7 403.185 96.703" fill="#203370"></path><path d="M1425.603 861.112l.269 47.833c-104.753-.005-206.472-11.886-302.308-35.319-92.552-22.633-175.735-55.02-247.236-96.275-71.5-41.26-127.715-89.307-167.116-142.81-40.79-55.404-61.646-114.25-61.997-174.892h82.625c.625 110.684 78.967 211.05 204.951 283.745 125.986 72.695 299.616 117.72 490.812 117.718" fill="#203370"></path><path d="M1425.536 986.983h.116l.22-78.038c-6.173 0-12.332-.048-18.482-.132-2.009-.029-4.012-.078-6.018-.113a1285.58 1285.58 0 0 1-12.236-.263c-3.13-.081-6.251-.194-9.374-.298-3.32-.114-6.638-.22-9.95-.358-3.124-.127-6.24-.282-9.357-.433-3.297-.158-6.596-.314-9.887-.495-3.11-.175-6.214-.371-9.318-.566-3.282-.205-6.567-.408-9.841-.639-3.1-.216-6.194-.456-9.288-.695-3.264-.252-6.53-.504-9.787-.78-3.052-.256-6.096-.538-9.14-.817-3.266-.3-6.531-.6-9.786-.924-3.042-.302-6.072-.625-9.105-.949a1141.64 1141.64 0 0 1-9.722-1.063c-3.03-.344-6.052-.712-9.075-1.08-3.22-.39-6.438-.784-9.648-1.199-3.016-.391-6.022-.8-9.03-1.21-3.158-.433-6.316-.868-9.465-1.323-3.3-.477-6.594-.976-9.887-1.48a1211.4 1211.4 0 0 1-9.058-1.404c-3.285-.529-6.559-1.078-9.834-1.629-3.001-.507-6-1.01-8.992-1.537a1226.69 1226.69 0 0 1-9.787-1.78c-2.975-.549-5.948-1.095-8.912-1.664-3.259-.628-6.504-1.282-9.75-1.935-2.886-.58-5.771-1.154-8.647-1.755-4.406-.92-8.795-1.88-13.18-2.847-2.122-.47-4.255-.919-6.372-1.397a1179.107 1179.107 0 0 1-19.38-4.554 1171.787 1171.787 0 0 1-19.08-4.852c-2.027-.534-4.034-1.088-6.052-1.632a1110.633 1110.633 0 0 1-12.842-3.522 1091.474 1091.474 0 0 1-10.769-3.085c-1.027-.301-2.06-.595-3.082-.896a1108.928 1108.928 0 0 1-14.716-4.474c-1.193-.373-2.378-.756-3.568-1.13a1033.44 1033.44 0 0 1-11.43-3.682c-1.39-.457-2.785-.913-4.172-1.375a1020.208 1020.208 0 0 1-13.893-4.731c-.17-.06-.347-.12-.52-.18a982.614 982.614 0 0 1-14.17-5.098c-1.325-.485-2.642-.977-3.963-1.47a995.402 995.402 0 0 1-10.853-4.116c-1.176-.455-2.358-.905-3.529-1.362-2.818-1.101-5.603-2.233-8.396-3.355-2.352-.946-4.717-1.883-7.051-2.844-2.7-1.112-5.37-2.25-8.048-3.384-2.292-.97-4.6-1.928-6.875-2.914-2.692-1.164-5.349-2.358-8.018-3.546-2.22-.987-4.455-1.961-6.66-2.964-2.693-1.226-5.352-2.482-8.02-3.728-2.136-.998-4.286-1.979-6.405-2.992-2.72-1.298-5.403-2.628-8.097-3.95-2.023-.993-4.066-1.97-6.073-2.976-2.795-1.4-5.544-2.832-8.307-4.254-1.867-.964-3.756-1.908-5.61-2.882-3.064-1.61-6.083-3.255-9.108-4.894-1.507-.817-3.04-1.618-4.539-2.442a776.392 776.392 0 0 1-13.39-7.547c-71.5-41.257-127.715-89.305-167.116-142.81-40.79-55.402-61.644-114.25-61.996-174.89l-.221 78.037c.352 60.643 21.206 119.488 61.997 174.893 39.4 53.502 95.614 101.552 167.116 142.808a782.81 782.81 0 0 0 13.39 7.548c1.48.813 2.99 1.602 4.475 2.408 3.047 1.651 6.087 3.307 9.173 4.928 1.84.967 3.715 1.906 5.57 2.862 2.775 1.429 5.54 2.868 8.346 4.274 2.003 1.001 4.04 1.979 6.058 2.966 2.699 1.325 5.384 2.657 8.11 3.96 2.12 1.01 4.269 1.994 6.405 2.992 2.668 1.246 5.327 2.502 8.02 3.727 2.205 1.002 4.44 1.978 6.66 2.964 2.67 1.186 5.326 2.38 8.018 3.547 2.276.984 4.583 1.943 6.877 2.913 2.677 1.133 5.346 2.274 8.048 3.385 2.334.961 4.698 1.897 7.05 2.842 2.221.894 4.423 1.806 6.661 2.686.575.227 1.158.445 1.734.668 1.172.46 2.353.909 3.531 1.364a961.985 961.985 0 0 0 10.853 4.117c1.319.492 2.636.985 3.96 1.47a992.885 992.885 0 0 0 14.18 5.1c.157.055.318.107.476.164a996.128 996.128 0 0 0 18.096 6.119 1073.35 1073.35 0 0 0 11.446 3.685c1.183.373 2.361.754 3.55 1.125 4.878 1.522 9.786 3.013 14.727 4.478 1.019.3 2.05.593 3.07.892 2.637.772 5.27 1.55 7.926 2.306.94.265 1.9.512 2.841.779 4.262 1.2 8.556 2.37 12.863 3.527 2.015.542 4.016 1.097 6.04 1.627a1138.179 1138.179 0 0 0 19.08 4.854 1165.912 1165.912 0 0 0 19.378 4.553c2.118.479 4.248.93 6.373 1.398 4.386.969 8.779 1.928 13.19 2.848.761.161 1.514.334 2.277.492 2.104.437 4.226.833 6.337 1.257 3.257.656 6.515 1.311 9.786 1.941 2.952.568 5.913 1.112 8.874 1.66 3.27.604 6.543 1.207 9.825 1.785 2.98.524 5.972 1.028 8.962 1.532 3.282.554 6.566 1.105 9.86 1.634 3.01.482 6.027.94 9.046 1.404 3.293.502 6.589 1 9.893 1.48 1.166.166 2.324.354 3.492.52 1.986.28 3.988.53 5.977.801 3.003.41 6.006.82 9.018 1.208 3.216.415 6.441.813 9.668 1.202 3.018.368 6.035.734 9.06 1.08 3.236.37 6.48.717 9.723 1.063 3.033.323 6.067.645 9.107.948 3.253.324 6.515.623 9.777.923 3.048.28 6.093.561 9.148.818.985.086 1.962.185 2.946.266 2.27.188 4.556.339 6.832.512 3.1.24 6.199.482 9.305.699 3.265.23 6.537.431 9.807.636 3.117.193 6.23.393 9.352.568 3.285.18 6.577.336 9.87.495 3.12.15 6.24.304 9.367.434 3.305.134 6.618.241 9.93.354 3.132.106 6.263.217 9.4.3.812.024 1.62.06 2.432.08 3.257.082 6.524.124 9.786.183 2.011.037 4.016.085 6.028.112 6.113.082 12.236.133 18.368.133m72.305-527.338c0 23.82-33.355 43.129-74.498 43.129-41.144 0-74.499-19.31-74.499-43.129s33.355-43.126 74.499-43.126c41.143 0 74.498 19.307 74.498 43.126" fill="#2F96EA"></path><path d="M79.11 86.35L57.09 148h-4.313L76.92 81.09h4.705L105.768 148h-4.312l-22.02-61.65h-.327zM63.198 126.6v-3.789h32.148v3.79H63.199zm97.33-1.437V81.091h4.085v44.301q0 6.828-3.17 12.17-3.168 5.341-8.739 8.429-5.57 3.087-12.79 3.087-7.188 0-12.774-3.087-5.587-3.088-8.772-8.446-3.186-5.357-3.153-12.153V81.091h4.084v44.072q0 5.783 2.63 10.292 2.63 4.508 7.269 7.105 4.64 2.598 10.716 2.598t10.716-2.598q4.639-2.597 7.269-7.105 2.63-4.509 2.63-10.292zm37.382-40.282h-21.4v-3.79h46.882v3.79h-21.399V148h-4.083V84.88zM239.375 148h-4.084V81.09h4.084v31.528h40.315V81.09h4.084V148h-4.084v-31.592h-40.315V148zm98.768 0h-38.028V81.09h37.244v3.79H304.2v27.738h31.167v3.79H304.2v27.802h33.944V148zm60.185-66.91h4.051V148h-3.986l-42.667-59.493h-.392V148h-4.084V81.09h4.018l42.668 59.56h.392V81.09zm37.348 3.79h-21.399v-3.79h46.882v3.79h-21.4V148h-4.083V84.88zm37.38-3.79h4.085V148h-4.084V81.09zM544.448 102h-4.181q-.654-3.398-2.45-6.583-1.798-3.185-4.624-5.75-2.826-2.565-6.55-4.068-3.724-1.502-8.233-1.502-6.6 0-12.137 3.512-5.538 3.512-8.854 10.307-3.316 6.796-3.316 16.63 0 9.899 3.316 16.694 3.316 6.796 8.854 10.275 5.538 3.48 12.137 3.48 4.509 0 8.233-1.487t6.55-4.051q2.826-2.565 4.623-5.767 1.797-3.201 2.45-6.6h4.182q-.718 4.052-2.76 7.94-2.042 3.888-5.358 7.04-3.316 3.153-7.808 4.999-4.493 1.846-10.112 1.846-8.364 0-14.734-4.264-6.371-4.263-9.981-12.006-3.61-7.743-3.61-18.1 0-10.356 3.61-18.099t9.98-12.006q6.371-4.264 14.735-4.264 5.62 0 10.112 1.846t7.808 4.966q3.316 3.12 5.358 7.008t2.76 8.004zm32.121-15.65L554.548 148h-4.312l24.143-66.91h4.705L603.227 148h-4.312l-22.02-61.65h-.327zm-15.91 40.25v-3.789h32.147v3.79h-32.147zm61.132-41.72h-21.4v-3.79h46.883v3.79h-21.4V148h-4.083V84.88zm37.38-3.79h4.084V148h-4.084V81.09zm73.645 33.455q0 10.357-3.593 18.084-3.594 7.726-9.981 12.006-6.387 4.28-14.718 4.28-8.364 0-14.751-4.296-6.387-4.297-9.98-12.023-3.595-7.727-3.595-18.05 0-10.357 3.61-18.067 3.61-7.71 9.981-12.007 6.371-4.296 14.735-4.296 8.33 0 14.718 4.28 6.387 4.28 9.98 12.006 3.594 7.727 3.594 18.083zm-3.985 0q0-9.31-3.12-16.139-3.12-6.828-8.61-10.569-5.488-3.74-12.577-3.74-7.09 0-12.578 3.708-5.489 3.708-8.61 10.552-3.12 6.845-3.12 16.188 0 9.246 3.088 16.09 3.088 6.845 8.576 10.602 5.489 3.757 12.644 3.757 7.09 0 12.578-3.74 5.488-3.741 8.609-10.57 3.12-6.827 3.12-16.139zm64.007-33.454h4.05V148h-3.985l-42.668-59.493h-.392V148h-4.083V81.09h4.018l42.668 59.56h.392V81.09zM59.67 183.09h4.084V250H59.67v-66.91zm67.503 0h4.051V250h-3.985L84.57 190.507h-.392V250h-4.084v-66.91h4.019l42.667 59.56h.392v-59.56zM174.524 250h-4.084v-66.91h4.084v38.846h.458l35.284-38.845h5.423l-29.044 31.658L215.428 250h-5.097l-26.3-32.311-9.507 10.52V250zm96.024-22.837v-44.072h4.084v44.301q0 6.828-3.169 12.17-3.169 5.341-8.74 8.429-5.57 3.087-12.79 3.087-7.187 0-12.774-3.087-5.587-3.088-8.772-8.446-3.185-5.357-3.153-12.153v-44.301h4.084v44.072q0 5.783 2.63 10.292 2.63 4.508 7.27 7.105 4.639 2.598 10.715 2.598 6.077 0 10.716-2.598 4.64-2.597 7.27-7.105 2.63-4.509 2.63-10.292zM314.463 250h-23.49v-66.91h21.726q6.077 0 10.258 2.157 4.182 2.156 6.355 6.044 2.172 3.888 2.172 9.05 0 4.051-1.306 7.187-1.307 3.137-3.643 5.179-2.336 2.042-5.473 2.826v.392q3.464.261 6.437 2.401 2.973 2.14 4.786 5.799 1.813 3.66 1.813 8.527 0 5.13-2.205 9.033-2.205 3.904-6.583 6.11Q320.932 250 314.463 250zm-19.406-32.115v28.325h19.406q7.547 0 11.614-3.79 4.068-3.79 4.068-9.768 0-4.214-1.977-7.547-1.976-3.332-5.472-5.276-3.496-1.944-8.102-1.944h-19.537zm0-31.004v27.28h19.047q4.28 0 7.269-1.863 2.99-1.862 4.574-4.998 1.584-3.137 1.584-6.96 0-6.206-3.855-9.833-3.855-3.626-10.977-3.626h-17.642zM385.233 250h-38.028v-66.91h37.244v3.79h-33.16v27.738h31.167v3.79h-31.168v27.802h33.945V250zm17.19 0h-4.084v-66.91h20.616q6.338 0 10.911 2.484 4.574 2.483 7.025 6.877 2.45 4.394 2.45 10.21 0 5.75-2.45 10.111-2.45 4.362-7.008 6.812t-10.896 2.45h-18.459v-3.822h18.361q5.162 0 8.821-1.928 3.66-1.927 5.62-5.407t1.96-8.216q0-4.77-1.96-8.315t-5.636-5.505q-3.676-1.96-8.837-1.96h-16.434V250zm18.786-30.318h4.606L442.281 250h-4.704l-16.368-30.318zm78.545-36.591h4.051V250h-3.985l-42.668-59.493h-.392V250h-4.084v-66.91h4.019l42.667 59.56h.392v-59.56zM558.174 250h-38.028v-66.91h37.245v3.79h-33.16v27.738h31.167v3.79H524.23v27.802h33.945V250zm30.063-63.12h-21.399v-3.79h46.882v3.79h-21.399V250h-4.084v-63.12zm75.41 63.12h-38.03v-66.91h37.245v3.79h-33.16v27.738h31.167v3.79h-31.167v27.802h33.944V250zm53.192-50.182h-4.018q-.523-6.24-5.08-10.095-4.558-3.855-11.778-3.855-4.868 0-8.658 1.797-3.79 1.797-5.946 4.9-2.156 3.104-2.156 7.123 0 2.58.997 4.655.996 2.075 2.826 3.692t4.345 2.826q2.515 1.209 5.554 2.123l7.318 2.157q3.757 1.143 6.942 2.646 3.186 1.503 5.554 3.577 2.369 2.075 3.692 4.852t1.323 6.403q0 5.293-2.728 9.475-2.728 4.182-7.743 6.583-5.015 2.401-11.81 2.401-6.469 0-11.255-2.189-4.786-2.189-7.563-6.093t-3.137-9h4.182q.327 4.149 2.663 7.17 2.336 3.023 6.224 4.656 3.887 1.634 8.886 1.634 5.39 0 9.507-1.846t6.436-5.146q2.32-3.3 2.32-7.677 0-3.529-1.666-6.044-1.667-2.516-4.917-4.346-3.251-1.83-8.054-3.267l-7.808-2.352q-7.84-2.385-11.974-6.501-4.132-4.117-4.132-10.259 0-5.162 2.744-9.164t7.465-6.289q4.721-2.287 10.667-2.287 5.979 0 10.553 2.303 4.573 2.304 7.252 6.306 2.68 4.002 2.973 9.131z" fill="#203370" fill-rule="nonzero"></path><path d="M192.402 668.545h22.99V910h-22.047V691.653h-1.415l-56.59 37.61V706.39l57.062-37.846zm116.195 0h22.99V910H309.54V691.653h-1.415l-56.59 37.61V706.39l57.062-37.846z" fill="#FFF" fill-rule="nonzero"></path><g transform="translate(50.000000, 345.000000)" fill="#1D346D"><path d="M50.391 31.8c-1.386 0-2.559 1.173-2.559 2.558 0 1.387 1.173 2.559 2.557 2.559 1.386 0 2.56-1.172 2.56-2.56 0-1.384-1.173-2.557-2.56-2.557"></path><path d="M36.747 1.04c-1.386-1.387-3.517-1.387-4.904 0L1.04 31.845c-1.387 1.386-1.387 3.517 0 4.904l30.803 30.803c1.387 1.388 3.518 1.388 4.904 0l30.805-30.804c1.385-1.386 1.385-3.518 0-4.903L36.747 1.04zm13.644 39.12c-2.025 0-3.838-1.067-4.798-2.666a73.27 73.27 0 0 0-2.237 6.077c-2.346 6.5-3.944 10.659-5.97 12.151-1.067 1.065-2.451 1.704-4.157 1.704a5.731 5.731 0 0 1-5.755-5.708v-.048c0-2.025 1.065-3.838 2.664-4.795a73.293 73.293 0 0 0-6.077-2.24c-6.5-2.344-10.657-3.941-12.15-5.968-1.066-1.067-1.705-2.451-1.705-4.158a5.729 5.729 0 0 1 5.708-5.754h.047c2.025 0 3.839 1.065 4.796 2.664a73.493 73.493 0 0 0 2.24-6.076c2.344-6.502 3.943-10.658 5.97-12.15 1.065-1.067 2.45-1.706 4.156-1.706a5.73 5.73 0 0 1 5.756 5.708v.047c0 2.024-1.067 3.836-2.664 4.796a73.499 73.499 0 0 0 6.074 2.24c6.503 2.346 10.66 3.943 12.152 5.97 1.066 1.064 1.707 2.449 1.707 4.156 0 3.091-2.559 5.755-5.759 5.755h.002z"></path><path d="M190.455 37.284c-.107-.428-.426-.962-.746-1.281-.32-.426-.853-.745-1.494-1.063-.638-.322-1.384-.641-2.346-1.067-.424-.215-.85-.321-1.171-.427-.318-.107-.531-.32-.746-.428-.213-.105-.319-.21-.319-.425-.107-.106-.107-.32-.107-.427 0-.745.64-1.065 2.024-1.065.748 0 1.387.105 1.92.215.534.105 1.066.318 1.599.424l.747-3.303c-.534-.215-1.173-.321-2.025-.534-.853-.213-1.707-.213-2.666-.213-1.811 0-3.304.426-4.264 1.28-.958.852-1.597 1.917-1.597 3.303 0 .745.105 1.385.319 1.811.213.534.532.96.852 1.28.426.323.852.639 1.386.959.532.32 1.172.533 1.812.746a19 19 0 0 1 1.918.852c.427.214.641.535.641.854 0 .426-.215.745-.534.852-.32.108-.852.215-1.706.215-.745 0-1.492-.107-2.238-.215l-2.239-.639-.745 3.411c.319.106.96.321 1.812.534.851.212 2.024.32 3.304.32 2.023 0 3.624-.428 4.69-1.173 1.065-.747 1.704-1.919 1.704-3.411.428-.32.321-.852.215-1.385zm-16.524-4.647c.745-.425 1.28-1.065 1.812-1.917.534-.747.745-1.598.745-2.559 0-.64-.105-1.28-.317-1.917-.215-.64-.641-1.174-1.173-1.707a5.511 5.511 0 0 0-2.025-1.28 8.31 8.31 0 0 0-2.986-.532c-.96 0-1.918.106-2.665.427-.76.273-1.452.71-2.024 1.28-.534.533-1.066 1.172-1.279 1.812-.321.744-.428 1.384-.428 2.236 0 .96.215 1.814.534 2.454a7.518 7.518 0 0 0 1.813 1.918 9.647 9.647 0 0 0-1.067.96c-.321.319-.639.637-.852 1.066-.321.425-.428.85-.64 1.278a6.39 6.39 0 0 0-.212 1.598c0 .534.105 1.172.32 1.813.213.639.638 1.28 1.171 1.812a6.17 6.17 0 0 0 2.132 1.385c.852.32 2.025.533 3.304.533 1.173 0 2.132-.106 3.091-.424a7.706 7.706 0 0 0 2.238-1.281c.641-.531 1.065-1.173 1.28-1.919.321-.747.426-1.492.426-2.346 0-1.066-.213-1.916-.745-2.663-.641-.64-1.386-1.385-2.453-2.026v-.001zm-6.288-5.009c.107-.212.213-.532.426-.747.213-.212.428-.425.747-.532.32-.105.639-.213 1.065-.213.428 0 .853.108 1.066.213.32.107.535.321.746.532.178.188.322.404.427.64.106.214.106.427.106.64 0 .747-.214 1.28-.533 1.812a3.24 3.24 0 0 1-1.385 1.28c-1.067-.428-1.811-.852-2.345-1.385-.428-.535-.64-1.066-.64-1.707.106 0 .212-.213.32-.533zm4.37 11.724c-.427.428-1.174.748-2.132.748-.534 0-.958-.107-1.28-.214a2.312 2.312 0 0 1-.85-.532 3.285 3.285 0 0 1-.536-.747c-.105-.32-.105-.532-.105-.745 0-.748.213-1.387.533-1.92.32-.532.852-.959 1.385-1.383.534.21 1.066.319 1.494.532.425.212.852.425 1.173.639.317.212.637.531.852.85.213.323.319.748.319 1.174-.11.61-.408 1.17-.854 1.6v-.002zm-13.328-.718c-.532-.747-1.173-1.492-1.812-2.238a14.561 14.561 0 0 0-1.812-1.812c1.173-1.173 2.24-2.238 3.198-3.305a897.944 897.944 0 0 1 2.985-3.304h-5.01c-.32.32-.534.745-.96 1.173-.32.425-.745.852-1.172 1.384-.425.533-.852.962-1.279 1.494-.428.533-.852.959-1.278 1.385V20.833l-4.264.64v21.53h4.264v-6.607c.426.425.959.852 1.493 1.386.53.533.958 1.172 1.384 1.706.428.64.852 1.171 1.278 1.812.428.64.747 1.171 1.068 1.599h4.902c-.32-.641-.745-1.279-1.173-2.133-.639-.533-1.173-1.279-1.812-2.132zm-16.797-8.811c-.428-.637-1.067-1.065-1.918-1.384-.746-.322-1.813-.533-2.986-.533-1.279 0-2.45.105-3.517.212-.96.213-1.812.322-2.451.532v14.391h2.664V30.462c.106 0 .213 0 .426-.105.213 0 .428-.105.747-.105.32 0 .534 0 .852-.11h.853c.746 0 1.28.11 1.813.322.425.213.851.426 1.172.852.32.427.533.958.64 1.598.106.641.211 1.386.211 2.345v7.782h2.667v-8.314c0-.96-.107-1.919-.321-2.772-.107-.851-.426-1.598-.85-2.132h-.002zm-14.663-1.764c-.319 0-.533-.107-.851-.107h-.748c-1.171 0-2.238.107-3.091.32-.959.215-1.706.426-2.346.64v14.175h2.667V30.618c.105 0 .426-.108.959-.214.534-.105.958-.105 1.492-.105.745 0 1.385.105 1.918.105.533.106.854.214 1.067.32l.426-2.346c-.106 0-.321-.106-.534-.106-.426-.106-.639-.213-.959-.213zm-12.742 1.313c-.426-.533-1.067-.852-1.812-1.174-.747-.32-1.599-.425-2.666-.425-.958 0-1.811.105-2.558.214-.745.105-1.385.32-1.704.426l.319 2.238c.32-.107.852-.213 1.493-.427.773-.139 1.558-.21 2.344-.213.64 0 1.28.108 1.706.32.425.215.746.427 1.066.852.213.32.426.747.534 1.173.105.426.105.852.105 1.28v.744c-.105 0-.213 0-.426-.105-.213 0-.427-.106-.64-.106-.212 0-.533-.107-.851-.107h-.853c-.854 0-1.601.107-2.453.213-.746.213-1.385.426-2.025.852a4.323 4.323 0 0 0-1.386 1.386c-.32.639-.534 1.28-.534 2.132 0 .853.108 1.6.428 2.239.32.639.639 1.065 1.173 1.492a9.546 9.546 0 0 0 1.812.852c.745.212 1.492.212 2.344.212.64 0 1.173 0 1.812-.105.64 0 1.173-.105 1.706-.105.532-.108.96-.108 1.385-.214.426-.107.747-.107.959-.107v-9.273c0-.854-.105-1.6-.32-2.345a5.388 5.388 0 0 0-.958-1.92zm-1.385 11.618c-.322.107-.746.107-1.172.107h-1.706c-1.067 0-1.92-.213-2.453-.532-.64-.322-.96-1.067-.96-2.027 0-.534.108-.958.322-1.278.212-.321.532-.532.958-.747.427-.213.745-.321 1.28-.321.425-.105.852-.105 1.277-.105.641 0 1.173 0 1.6.105.427.11.746.11.961.215v4.584h-.106zM95.194 27.798c-.852 0-1.704.212-2.558.531-.853.321-1.492.855-2.131 1.494a6.34 6.34 0 0 0-1.494 2.451c-.426.96-.531 2.133-.531 3.413 0 1.171.105 2.13.424 3.088a6.99 6.99 0 0 0 1.388 2.454 7.576 7.576 0 0 0 2.344 1.598c.959.425 2.025.534 3.305.534.933.012 1.865-.098 2.77-.322.853-.212 1.387-.318 1.708-.532l-.323-2.24c-.318.11-.85.322-1.49.428-.64.215-1.387.215-2.346.215-1.705 0-2.878-.428-3.624-1.173-.747-.748-1.279-1.92-1.386-3.518h10.127v-.96c0-2.559-.534-4.476-1.599-5.649-1.067-1.171-2.665-1.812-4.584-1.812zm-3.942 6.395a33.6 33.6 0 0 1 .318-1.493c.213-.533.427-.959.747-1.278.32-.426.745-.639 1.173-.96.426-.212.959-.321 1.597-.321 1.066 0 1.919.428 2.558 1.175.64.747.962 1.704.853 2.983h-7.246v-.106zm-6.767 6.31c-.214-.213-.32-.426-.32-.638-.107-.32-.107-.64-.107-1.066V20.89l-2.664.427v17.801c0 1.385.321 2.45 1.065 3.092.64.639 1.812 1.065 3.519 1.065l.32-2.238c-.428-.106-.748-.106-1.067-.213a.97.97 0 0 1-.746-.321zM33.161 19.625c1.384 0 2.557-1.174 2.557-2.56 0-1.386-1.173-2.559-2.558-2.559-1.387 0-2.558 1.174-2.558 2.56 0 1.492 1.171 2.559 2.558 2.559zm-4.025 1.552c-.321-.321-.64-.64-.852-1.067a73.262 73.262 0 0 0-2.24 6.076c-2.344 6.504-3.943 10.66-5.968 12.151-.321.32-.64.64-1.067.853a73.826 73.826 0 0 0 6.077 2.239c6.501 2.344 10.657 3.943 12.15 5.968.321.32.639.64.854 1.065a74.001 74.001 0 0 0 2.237-6.075c2.345-6.502 3.944-10.657 5.969-12.15.321-.321.64-.64 1.066-.853a74.77 74.77 0 0 0-6.075-2.24c-6.502-2.236-10.765-3.837-12.151-5.968v.001zm4.024 27.852c-1.387 0-2.558 1.173-2.558 2.559 0 1.386 1.171 2.557 2.558 2.557 1.385 0 2.558-1.173 2.558-2.557 0-1.386-1.173-2.559-2.558-2.559zM15.93 31.8c-1.383 0-2.556 1.173-2.556 2.558 0 1.387 1.173 2.559 2.556 2.559 1.387 0 2.559-1.172 2.559-2.56 0-1.384-1.172-2.557-2.56-2.557z"></path></g></g></svg>