<svg viewBox="0 0 1400 1000" xmlns="http://www.w3.org/2000/svg"><g fill="none" fill-rule="evenodd"><path fill="#C44" d="M0 1000h1400V0H0z"></path><path fill="#93192E" d="M1363.469 0L0 786.548V0zM1400 137.412v630.295l-398.865 232.27H0v-58.343z"></path><path fill="#93192E" d="M650.747 999.977h764.466V558.515z"></path><path fill="#C44" d="M1021.848 999.977h179.231V713.089l-179.231-103.501z"></path><path fill="#FFF" d="M1021.848 609.586l179.231 103.503 179.23-103.501-178.291-103.499z"></path><path fill="#93192E" d="M1201.078 713.089v286.887h179.231V609.588z"></path><path fill="#C44" d="M1021.848 596.711l179.231 103.502v-72.112l-179.231-103.503z"></path><path fill="#FFF" d="M1021.848 524.598l179.231 103.503 179.23-103.503-178.291-103.497z"></path><path fill="#93192E" d="M1201.079 700.213l179.231-103.502v-72.113l-179.231 103.503z"></path><path fill="#C44" d="M1021.848 498.007l179.231 103.503v-58.399L1021.848 439.61z"></path><path fill="#FFF" d="M1021.848 439.61l179.231 103.501 179.23-103.501-178.291-103.498z"></path><path fill="#93192E" d="M1201.079 601.508l179.231-103.503V439.61l-179.231 103.5z"></path><path fill="#C44" d="M1021.848 399.301l179.231 103.502v-44.68l-179.231-103.501z"></path><path fill="#FFF" d="M1021.848 354.622l179.231 103.501 179.23-103.501-178.291-103.499z"></path><path fill="#93192E" d="M1201.079 502.803l179.231-103.502v-44.679l-179.231 103.501z"></path><path fill="#C44" d="M1021.848 300.598l179.231 103.501v-30.964l-179.231-103.501z"></path><path fill="#FFF" d="M1021.848 269.632l179.231 103.503 179.23-103.501-178.291-103.499z"></path><path fill="#93192E" d="M1201.079 404.097l179.231-103.501v-30.964l-179.231 103.501z"></path><path fill="#C44" d="M1021.848 201.892l179.231 103.501v-17.248l-179.231-103.501z"></path><path fill="#FFF" d="M1021.848 184.642l179.231 103.503 179.23-103.503-178.291-103.497z"></path><path fill="#93192E" d="M1201.079 305.393l179.231-103.501v-17.248l-179.231 103.501z"></path><g transform="translate(715.069700, 318.068800)"><path fill="#C44" d="M.002 741.908h179.231V631.943L.002 528.442z"></path><path fill="#FFF" d="M0 528.443l179.231 103.501 179.231-103.501-178.291-103.499z"></path><path fill="#93192E" d="M179.231 631.944v109.964h179.231V528.442z"></path><path fill="#C44" d="M0 515.566l179.231 103.502v-72.113L0 443.454z"></path><path fill="#FFF" d="M.002 443.452l179.231 103.503 179.231-103.501-178.291-103.5z"></path><path fill="#93192E" d="M179.231 619.067l179.231-103.501v-72.112L179.231 546.955z"></path><path fill="#C44" d="M0 416.862l179.231 103.501v-58.397L0 358.464z"></path><path fill="#FFF" d="M.002 358.464l179.231 103.502 179.231-103.502-178.291-103.498z"></path><path fill="#93192E" d="M179.231 520.363l179.231-103.501v-58.397L179.231 461.966z"></path><path fill="#C44" d="M0 318.155l179.231 103.503v-44.681L0 273.476z"></path><path fill="#FFF" d="M0 273.476l179.231 103.501 179.231-103.501-178.291-103.498z"></path><path fill="#93192E" d="M179.231 421.658l179.231-103.503v-44.679L179.231 376.977z"></path><path fill="#C44" d="M.002 219.451l179.231 103.503v-30.965L.002 188.488z"></path><path fill="#FFF" d="M0 188.488l179.231 103.501 179.231-103.501-178.291-103.5z"></path><path fill="#93192E" d="M179.231 322.954l179.231-103.503v-30.963L179.231 291.989z"></path><path fill="#C44" d="M.002 120.746l179.231 103.503v-17.25L.002 103.498z"></path><path fill="#FFF" d="M0 103.499L179.231 207l179.231-103.501L180.171 0z"></path><path fill="#93192E" d="M179.231 224.249l179.231-103.503v-17.247L179.231 207z"></path></g><g transform="translate(408.292800, 524.992900)"><path fill="#FFF" d="M0 528.441l63.279 36.543h231.904l63.277-36.543-178.291-103.495z"></path><path fill="#C44" d="M0 515.565l85.576 49.419h93.655v-18.031L0 443.452z"></path><path fill="#FFF" d="M0 443.453l179.231 103.501L358.46 443.453 180.169 339.954z"></path><path fill="#93192E" d="M179.231 546.954v18.03h93.655l85.576-49.419v-72.112z"></path><path fill="#C44" d="M0 416.86l179.231 103.502v-58.397L0 358.464z"></path><path fill="#FFF" d="M0 358.464l179.231 103.502L358.46 358.464l-178.291-103.5z"></path><path fill="#93192E" d="M179.231 520.361L358.462 416.86v-58.395l-179.231 103.5z"></path><path fill="#C44" d="M0 318.157l179.231 103.501v-44.68L0 273.476z"></path><path fill="#FFF" d="M0 273.474l179.231 103.503L358.46 273.474 180.169 169.976z"></path><path fill="#93192E" d="M179.231 421.656l179.231-103.501v-44.681L179.231 376.977z"></path><path fill="#C44" d="M.002 219.451l179.231 103.501v-30.965L.002 188.486z"></path><path fill="#FFF" d="M0 188.486l179.231 103.501L358.46 188.486 180.169 84.988z"></path><path fill="#93192E" d="M179.231 322.952l179.231-103.501v-30.965L179.231 291.987z"></path><path fill="#C44" d="M.002 120.746l179.231 103.503v-17.25L.002 103.498z"></path><path fill="#FFF" d="M0 103.498l179.231 103.501L358.46 103.498 180.169 0z"></path><path fill="#93192E" d="M179.231 224.247l179.231-103.503v-17.246L179.231 206.999z"></path></g><path d="M1400 697.587v302.389H876.36L1400 697.588z" fill="#C44"></path><path d="M108.754 137h-4.084V70.09h4.084v38.846h.458l35.284-38.845h5.423l-29.044 31.658L149.658 137h-5.097l-26.3-32.311-9.507 10.52V137zm96.024-22.837V70.091h4.084v44.301q0 6.828-3.169 12.17-3.169 5.341-8.74 8.429-5.57 3.087-12.79 3.087-7.187 0-12.774-3.087-5.586-3.088-8.772-8.446-3.185-5.358-3.153-12.153V70.091h4.084v44.072q0 5.783 2.63 10.292 2.63 4.508 7.27 7.105 4.639 2.598 10.715 2.598 6.077 0 10.716-2.598 4.64-2.597 7.27-7.105 2.63-4.509 2.63-10.292zM248.693 137h-23.49V70.09h21.726q6.077 0 10.258 2.157 4.182 2.156 6.355 6.044 2.172 3.888 2.172 9.05 0 4.051-1.306 7.187-1.307 3.137-3.643 5.179-2.336 2.042-5.472 2.826v.392q3.463.261 6.436 2.401 2.973 2.14 4.786 5.799 1.813 3.66 1.813 8.527 0 5.13-2.205 9.033-2.205 3.904-6.583 6.11Q255.162 137 248.693 137zm-19.406-32.115v28.325h19.406q7.547 0 11.615-3.79 4.067-3.79 4.067-9.768 0-4.215-1.977-7.547-1.976-3.332-5.472-5.276-3.496-1.944-8.102-1.944h-19.537zm0-31.004v27.28h19.047q4.28 0 7.269-1.863 2.99-1.862 4.574-4.998 1.584-3.137 1.584-6.96 0-6.206-3.855-9.833-3.855-3.626-10.977-3.626h-17.642zM319.463 137h-38.028V70.09h37.244v3.79h-33.16v27.738h31.167v3.79h-31.168v27.802h33.945V137zm17.19 0h-4.083V70.09h20.615q6.338 0 10.912 2.484 4.573 2.483 7.024 6.877 2.45 4.394 2.45 10.21 0 5.75-2.45 10.111-2.45 4.362-7.008 6.812t-10.896 2.45H334.76v-3.822h18.36q5.162 0 8.821-1.928 3.66-1.927 5.62-5.407t1.96-8.216q0-4.77-1.96-8.315t-5.636-5.505q-3.675-1.96-8.837-1.96h-16.434V137zm18.786-30.318h4.606L376.511 137h-4.704l-16.368-30.318zm78.545-36.591h4.052V137h-3.986l-42.668-59.493h-.392V137h-4.084V70.09h4.019l42.667 59.56h.392V70.09zM492.404 137h-38.028V70.09h37.245v3.79h-33.16v27.738h31.167v3.79H458.46v27.802h33.945V137zm30.063-63.12h-21.399v-3.79h46.882v3.79h-21.399V137h-4.084V73.88zm75.41 63.12h-38.029V70.09h37.244v3.79h-33.16v27.738h31.167v3.79h-31.167v27.802h33.944V137zm53.193-50.182h-4.019q-.523-6.24-5.08-10.095-4.558-3.855-11.778-3.855-4.868 0-8.657 1.797-3.79 1.797-5.947 4.9-2.156 3.104-2.156 7.123 0 2.58.997 4.655.996 2.075 2.826 3.692t4.345 2.826q2.515 1.209 5.554 2.123l7.318 2.157q3.757 1.143 6.942 2.646 3.186 1.503 5.554 3.577 2.37 2.075 3.692 4.852 1.323 2.777 1.323 6.403 0 5.293-2.728 9.475-2.728 4.182-7.743 6.583-5.014 2.401-11.81 2.401-6.469 0-11.255-2.189-4.786-2.189-7.563-6.093t-3.136-9h4.181q.327 4.149 2.663 7.17 2.336 3.023 6.224 4.656 3.888 1.634 8.886 1.634 5.39 0 9.507-1.846t6.436-5.146q2.32-3.3 2.32-7.677 0-3.529-1.666-6.044-1.666-2.516-4.917-4.346-3.25-1.83-8.053-3.267l-7.809-2.352q-7.84-2.385-11.973-6.501-4.133-4.117-4.133-10.259 0-5.162 2.744-9.164t7.465-6.289q4.721-2.287 10.667-2.287 5.979 0 10.553 2.303 4.574 2.304 7.253 6.306 2.679 4.002 2.973 9.131zM124.11 177.35L102.09 239h-4.313l24.143-66.91h4.705L150.768 239h-4.312l-22.02-61.65h-.327zm-15.911 40.25v-3.789h32.148v3.79h-32.148zm97.33-1.437v-44.072h4.085v44.301q0 6.828-3.17 12.17-3.168 5.341-8.739 8.429-5.57 3.087-12.79 3.087-7.188 0-12.774-3.087-5.587-3.088-8.772-8.446-3.186-5.357-3.153-12.153v-44.301h4.084v44.072q0 5.783 2.63 10.292 2.63 4.508 7.269 7.105 4.64 2.598 10.716 2.598t10.716-2.598q4.639-2.597 7.269-7.105 2.63-4.509 2.63-10.292zm37.382-40.282h-21.4v-3.79h46.882v3.79h-21.399V239h-4.083v-63.12zm87.856 29.664q0 10.357-3.594 18.084-3.593 7.726-9.98 12.006-6.388 4.28-14.719 4.28-8.363 0-14.75-4.296-6.387-4.297-9.981-12.023-3.594-7.727-3.594-18.05 0-10.357 3.61-18.067 3.61-7.71 9.981-12.007 6.37-4.296 14.734-4.296 8.331 0 14.718 4.28 6.388 4.28 9.981 12.006 3.594 7.727 3.594 18.083zm-3.986 0q0-9.31-3.12-16.139-3.12-6.828-8.608-10.569-5.49-3.74-12.579-3.74-7.09 0-12.578 3.708-5.488 3.708-8.608 10.552-3.12 6.845-3.12 16.188 0 9.246 3.087 16.09 3.087 6.845 8.576 10.602 5.489 3.757 12.643 3.757 7.09 0 12.579-3.74 5.488-3.741 8.608-10.57 3.12-6.827 3.12-16.139zm57.016-16.727h-4.019q-.522-6.24-5.08-10.095-4.557-3.855-11.778-3.855-4.867 0-8.657 1.797t-5.946 4.9q-2.156 3.104-2.156 7.123 0 2.58.996 4.655t2.826 3.692q1.83 1.617 4.345 2.826 2.516 1.209 5.554 2.123l7.318 2.157q3.757 1.143 6.943 2.646 3.185 1.503 5.554 3.577 2.368 2.075 3.691 4.852 1.324 2.777 1.324 6.403 0 5.293-2.728 9.475-2.728 4.182-7.743 6.583-5.015 2.401-11.81 2.401-6.47 0-11.256-2.189-4.786-2.189-7.563-6.093t-3.136-9h4.182q.326 4.149 2.662 7.17 2.336 3.023 6.224 4.656 3.888 1.634 8.886 1.634 5.391 0 9.507-1.846 4.117-1.846 6.437-5.146 2.32-3.3 2.32-7.677 0-3.529-1.667-6.044-1.666-2.516-4.917-4.346-3.25-1.83-8.053-3.267l-7.808-2.352q-7.841-2.385-11.974-6.501-4.133-4.117-4.133-10.259 0-5.162 2.744-9.164 2.745-4.002 7.466-6.289 4.72-2.287 10.666-2.287 5.98 0 10.553 2.303 4.574 2.304 7.253 6.306 2.679 4.002 2.973 9.131zM448.784 193h-4.182q-.653-3.398-2.45-6.583-1.797-3.185-4.623-5.75-2.826-2.565-6.55-4.068-3.725-1.502-8.233-1.502-6.6 0-12.137 3.512-5.538 3.512-8.854 10.307-3.316 6.796-3.316 16.63 0 9.899 3.316 16.694 3.316 6.796 8.854 10.275 5.537 3.48 12.137 3.48 4.508 0 8.233-1.487 3.724-1.487 6.55-4.051 2.826-2.565 4.623-5.767 1.797-3.201 2.45-6.6h4.182q-.719 4.052-2.76 7.94-2.042 3.888-5.359 7.04-3.316 3.153-7.808 4.999-4.492 1.846-10.111 1.846-8.364 0-14.735-4.264-6.37-4.263-9.98-12.006-3.61-7.743-3.61-18.1 0-10.356 3.61-18.099t9.98-12.006q6.371-4.264 14.735-4.264 5.62 0 10.111 1.846 4.492 1.846 7.808 4.966 3.317 3.12 5.358 7.008 2.042 3.888 2.761 8.004zm32.12-15.65L458.885 239h-4.312l24.144-66.91h4.704L507.564 239h-4.313l-22.02-61.65h-.326zm-15.91 40.25v-3.789h32.148v3.79h-32.148zm88.772 21.4H517.01v-66.91h4.084v63.12h32.67V239zm11.995-66.91h4.084V239h-4.084v-66.91zm67.503 0h4.051V239h-3.985l-42.668-59.493h-.392V239h-4.084v-66.91h4.019l42.667 59.56h.392v-59.56zM704.72 193h-4.182q-.751-3.398-2.548-6.583-1.797-3.185-4.59-5.75t-6.534-4.068q-3.741-1.502-8.38-1.502-7.09 0-12.562 3.708-5.472 3.708-8.56 10.552-3.087 6.845-3.087 16.188 0 9.246 3.071 16.107 3.071 6.86 8.609 10.602 5.537 3.74 12.888 3.74 6.567 0 11.647-3.038t7.923-8.69q2.842-5.652 2.777-13.526l1.437.686h-22.738v-3.79h25.287v3.79q0 8.854-3.382 15.24-3.381 6.388-9.344 9.818-5.962 3.43-13.607 3.43-8.625 0-15.06-4.28-6.437-4.279-9.982-12.005-3.544-7.727-3.544-18.084 0-7.775 2.025-14.113 2.026-6.338 5.783-10.863 3.757-4.525 8.951-6.959 5.195-2.434 11.468-2.434 5.684 0 10.226 1.879 4.54 1.878 7.857 5.03 3.316 3.154 5.374 7.025 2.058 3.872 2.777 7.89zM179.864 545.301q-25.466 0-43.446-14.678-17.98-14.678-27.588-42.502t-9.608-66.848q0-38.907 9.608-66.671 9.609-27.765 27.706-42.562 18.098-14.796 43.328-14.796 25.23 0 43.327 14.796 18.097 14.797 27.706 42.562 9.609 27.764 9.609 66.67 0 39.025-9.609 66.849-9.609 27.824-27.588 42.502-17.98 14.678-43.445 14.678zm0-19.807q27.941 0 43.622-27.293 15.68-27.293 15.68-76.928 0-33.012-7.133-56.414-7.132-23.403-20.396-35.782-13.263-12.38-31.773-12.38-27.706 0-43.505 27.53-15.798 27.529-15.798 77.046 0 33.011 7.133 56.355 7.133 23.344 20.396 35.605 13.264 12.261 31.774 12.261zm171.606 19.807q-23.108 0-41.146-8.724-18.038-8.725-28.296-23.875-10.257-15.15-10.257-34.249 0-14.973 6.249-28 6.249-13.028 17.213-21.93 10.964-8.9 24.64-11.612v-1.297q-17.802-5.188-28.649-20.456-10.846-15.267-10.728-34.72-.118-18.039 9.196-32.304 9.314-14.266 25.407-22.578t36.371-8.312q20.16 0 36.195 8.312 16.034 8.312 25.407 22.578 9.373 14.265 9.49 32.303-.117 19.336-10.964 34.721-10.847 15.386-28.531 20.456v1.297q13.676 2.593 24.523 11.553 10.846 8.96 17.213 21.988 6.366 13.028 6.366 28.001 0 19.1-10.316 34.25-10.316 15.15-28.295 23.874-17.98 8.724-41.088 8.724zm0-19.807q17.213 0 30.241-6.19 13.028-6.189 20.396-17.036 7.369-10.846 7.369-24.876 0-14.501-7.663-25.879-7.664-11.377-20.75-18.038-13.087-6.661-29.593-6.661-16.505 0-29.651 6.661t-20.75 18.038q-7.604 11.378-7.604 25.879 0 14.03 7.25 24.876 7.251 10.847 20.397 17.037 13.145 6.19 30.358 6.19zm0-117.544q14.148 0 25.348-6.012 11.2-6.013 17.744-16.447 6.543-10.434 6.661-23.757-.118-13.204-6.602-23.402-6.485-10.198-17.626-15.917-11.141-5.718-25.525-5.718-14.383 0-25.643 5.718-11.259 5.719-17.684 15.917-6.426 10.198-6.308 23.402-.118 13.323 6.426 23.757 6.543 10.434 17.802 16.447 11.26 6.012 25.407 6.012z" fill="#FFF" fill-rule="nonzero"></path><g transform="translate(1138.000000, 870.000000)" fill="#FFF"><path d="M50.391 31.8c-1.386 0-2.559 1.173-2.559 2.558 0 1.387 1.173 2.559 2.557 2.559 1.386 0 2.56-1.172 2.56-2.56 0-1.384-1.173-2.557-2.56-2.557"></path><path d="M36.747 1.04c-1.386-1.387-3.517-1.387-4.904 0L1.04 31.845c-1.387 1.386-1.387 3.517 0 4.904l30.803 30.803c1.387 1.388 3.518 1.388 4.904 0l30.805-30.804c1.385-1.386 1.385-3.518 0-4.903L36.747 1.04zm13.644 39.12c-2.025 0-3.838-1.067-4.798-2.666a73.27 73.27 0 0 0-2.237 6.077c-2.346 6.5-3.944 10.659-5.97 12.151-1.067 1.065-2.451 1.704-4.157 1.704a5.731 5.731 0 0 1-5.755-5.708v-.048c0-2.025 1.065-3.838 2.664-4.795a73.293 73.293 0 0 0-6.077-2.24c-6.5-2.344-10.657-3.941-12.15-5.968-1.066-1.067-1.705-2.451-1.705-4.158a5.729 5.729 0 0 1 5.708-5.754h.047c2.025 0 3.839 1.065 4.796 2.664a73.493 73.493 0 0 0 2.24-6.076c2.344-6.502 3.943-10.658 5.97-12.15 1.065-1.067 2.45-1.706 4.156-1.706a5.73 5.73 0 0 1 5.756 5.708v.047c0 2.024-1.067 3.836-2.664 4.796a73.499 73.499 0 0 0 6.074 2.24c6.503 2.346 10.66 3.943 12.152 5.97 1.066 1.064 1.707 2.449 1.707 4.156 0 3.091-2.559 5.755-5.759 5.755h.002z"></path><path d="M190.455 37.284c-.107-.428-.426-.962-.746-1.281-.32-.426-.853-.745-1.494-1.063-.638-.322-1.384-.641-2.346-1.067-.424-.215-.85-.321-1.171-.427-.318-.107-.531-.32-.746-.428-.213-.105-.319-.21-.319-.425-.107-.106-.107-.32-.107-.427 0-.745.64-1.065 2.024-1.065.748 0 1.387.105 1.92.215.534.105 1.066.318 1.599.424l.747-3.303c-.534-.215-1.173-.321-2.025-.534-.853-.213-1.707-.213-2.666-.213-1.811 0-3.304.426-4.264 1.28-.958.852-1.597 1.917-1.597 3.303 0 .745.105 1.385.319 1.811.213.534.532.96.852 1.28.426.323.852.639 1.386.959.532.32 1.172.533 1.812.746a19 19 0 0 1 1.918.852c.427.214.641.535.641.854 0 .426-.215.745-.534.852-.32.108-.852.215-1.706.215-.745 0-1.492-.107-2.238-.215l-2.239-.639-.745 3.411c.319.106.96.321 1.812.534.851.212 2.024.32 3.304.32 2.023 0 3.624-.428 4.69-1.173 1.065-.747 1.704-1.919 1.704-3.411.428-.32.321-.852.215-1.385zm-16.524-4.647c.745-.425 1.28-1.065 1.812-1.917.534-.747.745-1.598.745-2.559 0-.64-.105-1.28-.317-1.917-.215-.64-.641-1.174-1.173-1.707a5.511 5.511 0 0 0-2.025-1.28 8.31 8.31 0 0 0-2.986-.532c-.96 0-1.918.106-2.665.427-.76.273-1.452.71-2.024 1.28-.534.533-1.066 1.172-1.279 1.812-.321.744-.428 1.384-.428 2.236 0 .96.215 1.814.534 2.454a7.518 7.518 0 0 0 1.813 1.918 9.647 9.647 0 0 0-1.067.96c-.321.319-.639.637-.852 1.066-.321.425-.428.85-.64 1.278a6.39 6.39 0 0 0-.212 1.598c0 .534.105 1.172.32 1.813.213.639.638 1.28 1.171 1.812a6.17 6.17 0 0 0 2.132 1.385c.852.32 2.025.533 3.304.533 1.173 0 2.132-.106 3.091-.424a7.706 7.706 0 0 0 2.238-1.281c.641-.531 1.065-1.173 1.28-1.919.321-.747.426-1.492.426-2.346 0-1.066-.213-1.916-.745-2.663-.641-.64-1.386-1.385-2.453-2.026v-.001zm-6.288-5.009c.107-.212.213-.532.426-.747.213-.212.428-.425.747-.532.32-.105.639-.213 1.065-.213.428 0 .853.108 1.066.213.32.107.535.321.746.532.178.188.322.404.427.64.106.214.106.427.106.64 0 .747-.214 1.28-.533 1.812a3.24 3.24 0 0 1-1.385 1.28c-1.067-.428-1.811-.852-2.345-1.385-.428-.535-.64-1.066-.64-1.707.106 0 .212-.213.32-.533zm4.37 11.724c-.427.428-1.174.748-2.132.748-.534 0-.958-.107-1.28-.214a2.312 2.312 0 0 1-.85-.532 3.285 3.285 0 0 1-.536-.747c-.105-.32-.105-.532-.105-.745 0-.748.213-1.387.533-1.92.32-.532.852-.959 1.385-1.383.534.21 1.066.319 1.494.532.425.212.852.425 1.173.639.317.212.637.531.852.85.213.323.319.748.319 1.174-.11.61-.408 1.17-.854 1.6v-.002zm-13.328-.718c-.532-.747-1.173-1.492-1.812-2.238a14.561 14.561 0 0 0-1.812-1.812c1.173-1.173 2.24-2.238 3.198-3.305a897.944 897.944 0 0 1 2.985-3.304h-5.01c-.32.32-.534.745-.96 1.173-.32.425-.745.852-1.172 1.384-.425.533-.852.962-1.279 1.494-.428.533-.852.959-1.278 1.385V20.833l-4.264.64v21.53h4.264v-6.607c.426.425.959.852 1.493 1.386.53.533.958 1.172 1.384 1.706.428.64.852 1.171 1.278 1.812.428.64.747 1.171 1.068 1.599h4.902c-.32-.641-.745-1.279-1.173-2.133-.639-.533-1.173-1.279-1.812-2.132zm-16.797-8.811c-.428-.637-1.067-1.065-1.918-1.384-.746-.322-1.813-.533-2.986-.533-1.279 0-2.45.105-3.517.212-.96.213-1.812.322-2.451.532v14.391h2.664V30.462c.106 0 .213 0 .426-.105.213 0 .428-.105.747-.105.32 0 .534 0 .852-.11h.853c.746 0 1.28.11 1.813.322.425.213.851.426 1.172.852.32.427.533.958.64 1.598.106.641.211 1.386.211 2.345v7.782h2.667v-8.314c0-.96-.107-1.919-.321-2.772-.107-.851-.426-1.598-.85-2.132h-.002zm-14.663-1.764c-.319 0-.533-.107-.851-.107h-.748c-1.171 0-2.238.107-3.091.32-.959.215-1.706.426-2.346.64v14.175h2.667V30.618c.105 0 .426-.108.959-.214.534-.105.958-.105 1.492-.105.745 0 1.385.105 1.918.105.533.106.854.214 1.067.32l.426-2.346c-.106 0-.321-.106-.534-.106-.426-.106-.639-.213-.959-.213zm-12.742 1.313c-.426-.533-1.067-.852-1.812-1.174-.747-.32-1.599-.425-2.666-.425-.958 0-1.811.105-2.558.214-.745.105-1.385.32-1.704.426l.319 2.238c.32-.107.852-.213 1.493-.427.773-.139 1.558-.21 2.344-.213.64 0 1.28.108 1.706.32.425.215.746.427 1.066.852.213.32.426.747.534 1.173.105.426.105.852.105 1.28v.744c-.105 0-.213 0-.426-.105-.213 0-.427-.106-.64-.106-.212 0-.533-.107-.851-.107h-.853c-.854 0-1.601.107-2.453.213-.746.213-1.385.426-2.025.852a4.323 4.323 0 0 0-1.386 1.386c-.32.639-.534 1.28-.534 2.132 0 .853.108 1.6.428 2.239.32.639.639 1.065 1.173 1.492a9.546 9.546 0 0 0 1.812.852c.745.212 1.492.212 2.344.212.64 0 1.173 0 1.812-.105.64 0 1.173-.105 1.706-.105.532-.108.96-.108 1.385-.214.426-.107.747-.107.959-.107v-9.273c0-.854-.105-1.6-.32-2.345a5.388 5.388 0 0 0-.958-1.92zm-1.385 11.618c-.322.107-.746.107-1.172.107h-1.706c-1.067 0-1.92-.213-2.453-.532-.64-.322-.96-1.067-.96-2.027 0-.534.108-.958.322-1.278.212-.321.532-.532.958-.747.427-.213.745-.321 1.28-.321.425-.105.852-.105 1.277-.105.641 0 1.173 0 1.6.105.427.11.746.11.961.215v4.584h-.106zM95.194 27.798c-.852 0-1.704.212-2.558.531-.853.321-1.492.855-2.131 1.494a6.34 6.34 0 0 0-1.494 2.451c-.426.96-.531 2.133-.531 3.413 0 1.171.105 2.13.424 3.088a6.99 6.99 0 0 0 1.388 2.454 7.576 7.576 0 0 0 2.344 1.598c.959.425 2.025.534 3.305.534.933.012 1.865-.098 2.77-.322.853-.212 1.387-.318 1.708-.532l-.323-2.24c-.318.11-.85.322-1.49.428-.64.215-1.387.215-2.346.215-1.705 0-2.878-.428-3.624-1.173-.747-.748-1.279-1.92-1.386-3.518h10.127v-.96c0-2.559-.534-4.476-1.599-5.649-1.067-1.171-2.665-1.812-4.584-1.812zm-3.942 6.395a33.6 33.6 0 0 1 .318-1.493c.213-.533.427-.959.747-1.278.32-.426.745-.639 1.173-.96.426-.212.959-.321 1.597-.321 1.066 0 1.919.428 2.558 1.175.64.747.962 1.704.853 2.983h-7.246v-.106zm-6.767 6.31c-.214-.213-.32-.426-.32-.638-.107-.32-.107-.64-.107-1.066V20.89l-2.664.427v17.801c0 1.385.321 2.45 1.065 3.092.64.639 1.812 1.065 3.519 1.065l.32-2.238c-.428-.106-.748-.106-1.067-.213a.97.97 0 0 1-.746-.321zM33.161 19.625c1.384 0 2.557-1.174 2.557-2.56 0-1.386-1.173-2.559-2.558-2.559-1.387 0-2.558 1.174-2.558 2.56 0 1.492 1.171 2.559 2.558 2.559zm-4.025 1.552c-.321-.321-.64-.64-.852-1.067a73.262 73.262 0 0 0-2.24 6.076c-2.344 6.504-3.943 10.66-5.968 12.151-.321.32-.64.64-1.067.853a73.826 73.826 0 0 0 6.077 2.239c6.501 2.344 10.657 3.943 12.15 5.968.321.32.639.64.854 1.065a74.001 74.001 0 0 0 2.237-6.075c2.345-6.502 3.944-10.657 5.969-12.15.321-.321.64-.64 1.066-.853a74.77 74.77 0 0 0-6.075-2.24c-6.502-2.236-10.765-3.837-12.151-5.968v.001zm4.024 27.852c-1.387 0-2.558 1.173-2.558 2.559 0 1.386 1.171 2.557 2.558 2.557 1.385 0 2.558-1.173 2.558-2.557 0-1.386-1.173-2.559-2.558-2.559zM15.93 31.8c-1.383 0-2.556 1.173-2.556 2.558 0 1.387 1.173 2.559 2.556 2.559 1.387 0 2.559-1.172 2.559-2.56 0-1.384-1.172-2.557-2.56-2.557z"></path></g></g></svg>