<svg viewBox="0 0 1200 900" xmlns="http://www.w3.org/2000/svg"><g fill="none" fill-rule="evenodd"><path d="M400 582.349v35a3.5 3.5 0 0 1-3.5 3.5h-294a3.5 3.5 0 0 1-3.5-3.5v-35a3.5 3.5 0 0 1 3.5-3.5h294a3.5 3.5 0 0 1 3.5 3.5z" fill="#7C7C7C"/><path fill="#D8D8D8" d="M141.7 587.952h198.8v5.602H141.7z"/><path fill="#D7D7D7" d="M116.5 587.952h5.6v5.6h-5.6zm-8.4 0h5.6v5.6h-5.6z"/><path fill="#00CD00" d="M376.9 587.952h5.6v5.6h-5.6z"/><path fill="#D7D400" d="M368.5 587.952h5.6v5.6h-5.6z"/><path fill="#FF3C00" d="M360.1 587.952h5.6v5.6h-5.6z"/><path fill="#00CD00" d="M385.3 587.952h5.6v5.6h-5.6z"/><path fill="#D8D8D8" d="M141.7 597.056h198.8v5.602H141.7z"/><path fill="#D7D7D7" d="M116.5 597.056h5.6v5.6h-5.6zm-8.4 0h5.6v5.6h-5.6z"/><path fill="#00CD00" d="M376.9 597.056h5.6v5.6h-5.6z"/><path fill="#D7D400" d="M368.5 597.056h5.6v5.6h-5.6z"/><path fill="#FF3C00" d="M360.1 597.056h5.6v5.6h-5.6z"/><path fill="#00CD00" d="M385.3 597.056h5.6v5.6h-5.6z"/><path fill="#D8D8D8" d="M141.7 606.159h198.8v5.602H141.7z"/><path fill="#D7D7D7" d="M116.5 606.159h5.6v5.6h-5.6zm-8.4 0h5.6v5.6h-5.6z"/><path fill="#00CD00" d="M376.9 606.159h5.6v5.6h-5.6z"/><path fill="#D7D400" d="M368.5 606.159h5.6v5.6h-5.6z"/><path fill="#FF3C00" d="M360.1 606.159h5.6v5.6h-5.6z"/><path fill="#00CD00" d="M385.3 606.159h5.6v5.6h-5.6z"/><path d="M400 628.566v35a3.5 3.5 0 0 1-3.5 3.5h-294a3.5 3.5 0 0 1-3.5-3.5v-35a3.5 3.5 0 0 1 3.5-3.5h294a3.5 3.5 0 0 1 3.5 3.5z" fill="#7C7C7C"/><path fill="#D8D8D8" d="M141.7 634.169h198.8v5.602H141.7z"/><path fill="#D7D7D7" d="M116.5 634.169h5.6v5.6h-5.6zm-8.4 0h5.6v5.6h-5.6z"/><path fill="#00CD00" d="M376.9 634.169h5.6v5.6h-5.6z"/><path fill="#D7D400" d="M368.5 634.169h5.6v5.6h-5.6z"/><path fill="#FF3C00" d="M360.1 634.169h5.6v5.6h-5.6z"/><path fill="#00CD00" d="M385.3 634.169h5.6v5.6h-5.6z"/><path fill="#D8D8D8" d="M141.7 643.273h198.8v5.602H141.7z"/><path fill="#D7D7D7" d="M116.5 643.273h5.6v5.6h-5.6zm-8.4 0h5.6v5.6h-5.6z"/><path fill="#00CD00" d="M376.9 643.273h5.6v5.6h-5.6z"/><path fill="#D7D400" d="M368.5 643.273h5.6v5.6h-5.6z"/><path fill="#FF3C00" d="M360.1 643.273h5.6v5.6h-5.6z"/><path fill="#00CD00" d="M385.3 643.273h5.6v5.6h-5.6z"/><path fill="#D8D8D8" d="M141.7 652.376h198.8v5.602H141.7z"/><path fill="#D7D7D7" d="M116.5 652.376h5.6v5.6h-5.6zm-8.4 0h5.6v5.6h-5.6z"/><path fill="#00CD00" d="M376.9 652.376h5.6v5.6h-5.6z"/><path fill="#D7D400" d="M368.5 652.376h5.6v5.6h-5.6z"/><path fill="#FF3C00" d="M360.1 652.376h5.6v5.6h-5.6z"/><path fill="#00CD00" d="M385.3 652.376h5.6v5.6h-5.6z"/><path d="M400 675.484v35a3.5 3.5 0 0 1-3.5 3.5h-294a3.5 3.5 0 0 1-3.5-3.5v-35a3.5 3.5 0 0 1 3.5-3.5h294a3.5 3.5 0 0 1 3.5 3.5z" fill="#7C7C7C"/><path fill="#D8D8D8" d="M141.7 681.087h198.8v5.602H141.7z"/><path fill="#D7D7D7" d="M116.5 681.087h5.6v5.6h-5.6zm-8.4 0h5.6v5.6h-5.6z"/><path fill="#00CD00" d="M376.9 681.087h5.6v5.6h-5.6z"/><path fill="#D7D400" d="M368.5 681.087h5.6v5.6h-5.6z"/><path fill="#FF3C00" d="M360.1 681.087h5.6v5.6h-5.6z"/><path fill="#00CD00" d="M385.3 681.087h5.6v5.6h-5.6z"/><path fill="#D8D8D8" d="M141.7 690.191h198.8v5.602H141.7z"/><path fill="#D7D7D7" d="M116.5 690.191h5.6v5.6h-5.6zm-8.4 0h5.6v5.6h-5.6z"/><path fill="#00CD00" d="M376.9 690.191h5.6v5.6h-5.6z"/><path fill="#D7D400" d="M368.5 690.191h5.6v5.6h-5.6z"/><path fill="#FF3C00" d="M360.1 690.191h5.6v5.6h-5.6z"/><path fill="#00CD00" d="M385.3 690.191h5.6v5.6h-5.6z"/><path fill="#D8D8D8" d="M141.7 699.294h198.8v5.602H141.7z"/><path fill="#D7D7D7" d="M116.5 699.294h5.6v5.6h-5.6zm-8.4 0h5.6v5.6h-5.6z"/><path fill="#00CD00" d="M376.9 699.294h5.6v5.6h-5.6z"/><path fill="#D7D400" d="M368.5 699.294h5.6v5.6h-5.6z"/><path fill="#FF3C00" d="M360.1 699.294h5.6v5.6h-5.6z"/><path fill="#00CD00" d="M385.3 699.294h5.6v5.6h-5.6z"/><g transform="translate(99 186)"><path d="M301 3.5v380.8a3.5 3.5 0 0 1-3.5 3.5H3.5a3.5 3.5 0 0 1-3.5-3.5V3.5A3.5 3.5 0 0 1 3.5 0h294a3.5 3.5 0 0 1 3.5 3.5z" fill="#7C7C7C"/><path d="M252.7 373.993h5.6v5.6h-5.6zm-8.4 0h5.6v5.6h-5.6zm-8.4 0h5.6v5.6h-5.6zm-8.4 0h5.6v5.6h-5.6zm-8.4 0h5.6v5.6h-5.6zm-8.4 0h5.6v5.6h-5.6zm-8.4 0h5.6v5.6h-5.6zm-8.4 0h5.6v5.6h-5.6zm-8.4 0h5.6v5.6h-5.6zm-8.4 0h5.6v5.6h-5.6zm-8.4 0h5.6v5.6h-5.6zm-8.4 0h5.6v5.6h-5.6zm-8.4 0h5.6v5.6h-5.6zm-8.4 0h5.6v5.6h-5.6zm-8.4 0h5.6v5.6h-5.6zm-8.4 0h5.6v5.6h-5.6zm-8.4 0h5.6v5.6h-5.6zm-8.4 0h5.6v5.6h-5.6zm-8.4 0h5.6v5.6h-5.6zm-8.4 0h5.6v5.6h-5.6zm-8.4 0h5.6v5.6h-5.6zm-8.4 0h5.6v5.6h-5.6zm-8.4 0h5.6v5.6h-5.6zm-8.4 0h5.6v5.6h-5.6zm-8.4 0h5.6v5.6h-5.6zm-8.4 0h5.6v5.6h-5.6zm-8.4 0h5.6v5.6h-5.6zm-8.4 0h5.6v5.6h-5.6zm-8.4 0h5.6v5.6h-5.6zm-8.4 0h5.6v5.6H9.1zm268.8 0h5.6v5.6h-5.6zm-8.4 0h5.6v5.6h-5.6zm-8.4 0h5.6v5.6h-5.6zm25.2 0h5.6v5.6h-5.6zM252.7 25.204h5.6v5.6h-5.6zm-8.4 0h5.6v5.6h-5.6zm-8.4 0h5.6v5.6h-5.6zm-8.4 0h5.6v5.6h-5.6zm-8.4 0h5.6v5.6h-5.6zm-8.4 0h5.6v5.6h-5.6zm-8.4 0h5.6v5.6h-5.6zm-8.4 0h5.6v5.6h-5.6zm-8.4 0h5.6v5.6h-5.6zm-8.4 0h5.6v5.6h-5.6zm-8.4 0h5.6v5.6h-5.6zm-8.4 0h5.6v5.6h-5.6zm-8.4 0h5.6v5.6h-5.6zm-8.4 0h5.6v5.6h-5.6zm-8.4 0h5.6v5.6h-5.6zm-8.4 0h5.6v5.6h-5.6zm-8.4 0h5.6v5.6h-5.6zm-8.4 0h5.6v5.6h-5.6zm-8.4 0h5.6v5.6h-5.6zm-8.4 0h5.6v5.6h-5.6zm-8.4 0h5.6v5.6h-5.6zm-8.4 0h5.6v5.6h-5.6zm-8.4 0h5.6v5.6h-5.6zm-8.4 0h5.6v5.6h-5.6zm-8.4 0h5.6v5.6h-5.6zm-8.4 0h5.6v5.6h-5.6zm-8.4 0h5.6v5.6h-5.6zm-8.4 0h5.6v5.6h-5.6zm-8.4 0h5.6v5.6h-5.6zm-8.4 0h5.6v5.6H9.1zm243.6-8.4h5.6v5.6h-5.6zm-8.4 0h5.6v5.6h-5.6zm-8.4 0h5.6v5.6h-5.6zm-8.4 0h5.6v5.6h-5.6zm-8.4 0h5.6v5.6h-5.6zm-8.4 0h5.6v5.6h-5.6zm-8.4 0h5.6v5.6h-5.6zm-8.4 0h5.6v5.6h-5.6zm-8.4 0h5.6v5.6h-5.6zm-8.4 0h5.6v5.6h-5.6zm-8.4 0h5.6v5.6h-5.6zm-8.4 0h5.6v5.6h-5.6zm-8.4 0h5.6v5.6h-5.6zm-8.4 0h5.6v5.6h-5.6zm-8.4 0h5.6v5.6h-5.6zm-8.4 0h5.6v5.6h-5.6zm-8.4 0h5.6v5.6h-5.6zm-8.4 0h5.6v5.6h-5.6zm-8.4 0h5.6v5.6h-5.6zm-8.4 0h5.6v5.6h-5.6zm-8.4 0h5.6v5.6h-5.6zm-8.4 0h5.6v5.6h-5.6zm-8.4 0h5.6v5.6h-5.6zm-8.4 0h5.6v5.6h-5.6zm-8.4 0h5.6v5.6h-5.6zm-8.4 0h5.6v5.6h-5.6zm-8.4 0h5.6v5.6h-5.6zm-8.4 0h5.6v5.6h-5.6zm-8.4 0h5.6v5.6h-5.6zm-8.4 0h5.6v5.6H9.1zm243.6-8.4h5.6v5.6h-5.6zm-8.4 0h5.6v5.6h-5.6zm-8.4 0h5.6v5.6h-5.6zm-8.4 0h5.6v5.6h-5.6zm50.4 16.8h5.6v5.6h-5.6zm-8.4 0h5.6v5.6h-5.6zm-8.4 0h5.6v5.6h-5.6zm16.8-8.4h5.6v5.6h-5.6zm-8.4 0h5.6v5.6h-5.6zm-8.4 0h5.6v5.6h-5.6zm16.8-8.4h5.6v5.6h-5.6zm8.4 16.8h5.6v5.6h-5.6zm0-8.4h5.6v5.6h-5.6zm0-8.4h5.6v5.6h-5.6zm-16.8 0h5.6v5.6h-5.6zm-8.4 0h5.6v5.6h-5.6zm-42 0h5.6v5.6h-5.6zm-8.4 0h5.6v5.6h-5.6zm-8.4 0h5.6v5.6h-5.6zm-8.4 0h5.6v5.6h-5.6zm-8.4 0h5.6v5.6h-5.6zm-8.4 0h5.6v5.6h-5.6zm-8.4 0h5.6v5.6h-5.6zm-8.4 0h5.6v5.6h-5.6zm-8.4 0h5.6v5.6h-5.6zm-8.4 0h5.6v5.6h-5.6zm-8.4 0h5.6v5.6h-5.6zm-8.4 0h5.6v5.6h-5.6zm-8.4 0h5.6v5.6h-5.6zm-8.4 0h5.6v5.6h-5.6zm-8.4 0h5.6v5.6h-5.6zm-8.4 0h5.6v5.6h-5.6zm-8.4 0h5.6v5.6h-5.6zm-8.4 0h5.6v5.6h-5.6zm-8.4 0h5.6v5.6h-5.6zm-8.4 0h5.6v5.6h-5.6zm-8.4 0h5.6v5.6h-5.6zm-8.4 0h5.6v5.6h-5.6zm-8.4 0h5.6v5.6h-5.6zm-8.4 0h5.6v5.6h-5.6zm-8.4 0h5.6v5.6h-5.6zm-8.4 0h5.6v5.6H9.1z" fill="#D7D7D7"/><rect fill="#FFF" x="9.1" y="39.22" width="282.8" height="324.968" rx="1.4"/></g><g><path d="M1102 582.349v35a3.5 3.5 0 0 1-3.5 3.5h-294a3.5 3.5 0 0 1-3.5-3.5v-35a3.5 3.5 0 0 1 3.5-3.5h294a3.5 3.5 0 0 1 3.5 3.5z" fill="#7C7C7C"/><path fill="#D8D8D8" d="M843.7 587.952h198.8v5.602H843.7z"/><path fill="#D7D7D7" d="M818.5 587.952h5.6v5.6h-5.6zm-8.4 0h5.6v5.6h-5.6z"/><path fill="#00CD00" d="M1078.9 587.952h5.6v5.6h-5.6z"/><path fill="#D7D400" d="M1070.5 587.952h5.6v5.6h-5.6z"/><path fill="#FF3C00" d="M1062.1 587.952h5.6v5.6h-5.6z"/><path fill="#00CD00" d="M1087.3 587.952h5.6v5.6h-5.6z"/><path fill="#D8D8D8" d="M843.7 597.056h198.8v5.602H843.7z"/><path fill="#D7D7D7" d="M818.5 597.056h5.6v5.6h-5.6zm-8.4 0h5.6v5.6h-5.6z"/><path fill="#00CD00" d="M1078.9 597.056h5.6v5.6h-5.6z"/><path fill="#D7D400" d="M1070.5 597.056h5.6v5.6h-5.6z"/><path fill="#FF3C00" d="M1062.1 597.056h5.6v5.6h-5.6z"/><path fill="#00CD00" d="M1087.3 597.056h5.6v5.6h-5.6z"/><path fill="#D8D8D8" d="M843.7 606.159h198.8v5.602H843.7z"/><path fill="#D7D7D7" d="M818.5 606.159h5.6v5.6h-5.6zm-8.4 0h5.6v5.6h-5.6z"/><path fill="#00CD00" d="M1078.9 606.159h5.6v5.6h-5.6z"/><path fill="#D7D400" d="M1070.5 606.159h5.6v5.6h-5.6z"/><path fill="#FF3C00" d="M1062.1 606.159h5.6v5.6h-5.6z"/><path fill="#00CD00" d="M1087.3 606.159h5.6v5.6h-5.6z"/><g><path d="M1102 628.566v35a3.5 3.5 0 0 1-3.5 3.5h-294a3.5 3.5 0 0 1-3.5-3.5v-35a3.5 3.5 0 0 1 3.5-3.5h294a3.5 3.5 0 0 1 3.5 3.5z" fill="#7C7C7C"/><path fill="#D8D8D8" d="M843.7 634.169h198.8v5.602H843.7z"/><path fill="#D7D7D7" d="M818.5 634.169h5.6v5.6h-5.6zm-8.4 0h5.6v5.6h-5.6z"/><path fill="#00CD00" d="M1078.9 634.169h5.6v5.6h-5.6z"/><path fill="#D7D400" d="M1070.5 634.169h5.6v5.6h-5.6z"/><path fill="#FF3C00" d="M1062.1 634.169h5.6v5.6h-5.6z"/><path fill="#00CD00" d="M1087.3 634.169h5.6v5.6h-5.6z"/><path fill="#D8D8D8" d="M843.7 643.273h198.8v5.602H843.7z"/><path fill="#D7D7D7" d="M818.5 643.273h5.6v5.6h-5.6zm-8.4 0h5.6v5.6h-5.6z"/><path fill="#00CD00" d="M1078.9 643.273h5.6v5.6h-5.6z"/><path fill="#D7D400" d="M1070.5 643.273h5.6v5.6h-5.6z"/><path fill="#FF3C00" d="M1062.1 643.273h5.6v5.6h-5.6z"/><path fill="#00CD00" d="M1087.3 643.273h5.6v5.6h-5.6z"/><path fill="#D8D8D8" d="M843.7 652.376h198.8v5.602H843.7z"/><path fill="#D7D7D7" d="M818.5 652.376h5.6v5.6h-5.6zm-8.4 0h5.6v5.6h-5.6z"/><path fill="#00CD00" d="M1078.9 652.376h5.6v5.6h-5.6z"/><path fill="#D7D400" d="M1070.5 652.376h5.6v5.6h-5.6z"/><path fill="#FF3C00" d="M1062.1 652.376h5.6v5.6h-5.6z"/><path fill="#00CD00" d="M1087.3 652.376h5.6v5.6h-5.6z"/></g><g><path d="M1102 675.484v35a3.5 3.5 0 0 1-3.5 3.5h-294a3.5 3.5 0 0 1-3.5-3.5v-35a3.5 3.5 0 0 1 3.5-3.5h294a3.5 3.5 0 0 1 3.5 3.5z" fill="#7C7C7C"/><path fill="#D8D8D8" d="M843.7 681.087h198.8v5.602H843.7z"/><path fill="#D7D7D7" d="M818.5 681.087h5.6v5.6h-5.6zm-8.4 0h5.6v5.6h-5.6z"/><path fill="#00CD00" d="M1078.9 681.087h5.6v5.6h-5.6z"/><path fill="#D7D400" d="M1070.5 681.087h5.6v5.6h-5.6z"/><path fill="#FF3C00" d="M1062.1 681.087h5.6v5.6h-5.6z"/><path fill="#00CD00" d="M1087.3 681.087h5.6v5.6h-5.6z"/><path fill="#D8D8D8" d="M843.7 690.191h198.8v5.602H843.7z"/><path fill="#D7D7D7" d="M818.5 690.191h5.6v5.6h-5.6zm-8.4 0h5.6v5.6h-5.6z"/><path fill="#00CD00" d="M1078.9 690.191h5.6v5.6h-5.6z"/><path fill="#D7D400" d="M1070.5 690.191h5.6v5.6h-5.6z"/><path fill="#FF3C00" d="M1062.1 690.191h5.6v5.6h-5.6z"/><path fill="#00CD00" d="M1087.3 690.191h5.6v5.6h-5.6z"/><path fill="#D8D8D8" d="M843.7 699.294h198.8v5.602H843.7z"/><path fill="#D7D7D7" d="M818.5 699.294h5.6v5.6h-5.6zm-8.4 0h5.6v5.6h-5.6z"/><path fill="#00CD00" d="M1078.9 699.294h5.6v5.6h-5.6z"/><path fill="#D7D400" d="M1070.5 699.294h5.6v5.6h-5.6z"/><path fill="#FF3C00" d="M1062.1 699.294h5.6v5.6h-5.6z"/><path fill="#00CD00" d="M1087.3 699.294h5.6v5.6h-5.6z"/></g><g transform="translate(801 186)"><path d="M301 3.5v380.8a3.5 3.5 0 0 1-3.5 3.5H3.5a3.5 3.5 0 0 1-3.5-3.5V3.5A3.5 3.5 0 0 1 3.5 0h294a3.5 3.5 0 0 1 3.5 3.5z" fill="#7C7C7C"/><path d="M272.7 373.993h5.6v5.6h-5.6zm-8.4 0h5.6v5.6h-5.6zm-8.4 0h5.6v5.6h-5.6zm-8.4 0h5.6v5.6h-5.6zm-8.4 0h5.6v5.6h-5.6zm-8.4 0h5.6v5.6h-5.6zm-8.4 0h5.6v5.6h-5.6zm-8.4 0h5.6v5.6h-5.6zm-8.4 0h5.6v5.6h-5.6zm-8.4 0h5.6v5.6h-5.6zm-8.4 0h5.6v5.6h-5.6zm-8.4 0h5.6v5.6h-5.6zm-8.4 0h5.6v5.6h-5.6zm-8.4 0h5.6v5.6h-5.6zm-8.4 0h5.6v5.6h-5.6zm-8.4 0h5.6v5.6h-5.6zm-8.4 0h5.6v5.6h-5.6zm-8.4 0h5.6v5.6h-5.6zm-8.4 0h5.6v5.6h-5.6zm-8.4 0h5.6v5.6h-5.6zm-8.4 0h5.6v5.6h-5.6zm-8.4 0h5.6v5.6h-5.6zm-8.4 0h5.6v5.6h-5.6zm-8.4 0h5.6v5.6h-5.6zm-8.4 0h5.6v5.6h-5.6zm-8.4 0h5.6v5.6h-5.6zm-8.4 0h5.6v5.6h-5.6zm-8.4 0h5.6v5.6h-5.6zm-8.4 0h5.6v5.6h-5.6zm-8.4 0h5.6v5.6h-5.6zm252 0h5.6v5.6h-5.6zm2-349.193h5.6v5.6h-5.6zm-8.4 0h5.6v5.6h-5.6zm-8.4 0h5.6v5.6h-5.6zm-8.4 0h5.6v5.6h-5.6zm-8.4 0h5.6v5.6h-5.6zm-8.4 0h5.6v5.6h-5.6zm-8.4 0h5.6v5.6h-5.6zm-8.4 0h5.6v5.6h-5.6zm-8.4 0h5.6v5.6h-5.6zm-8.4 0h5.6v5.6h-5.6zm-8.4 0h5.6v5.6h-5.6zm-8.4 0h5.6v5.6h-5.6zm-8.4 0h5.6v5.6h-5.6zm-8.4 0h5.6v5.6h-5.6zm-8.4 0h5.6v5.6h-5.6zm-8.4 0h5.6v5.6h-5.6zm126-8.4h5.6V22h-5.6zm-8.4 0h5.6V22h-5.6zm-8.4 0h5.6V22h-5.6zm-8.4 0h5.6V22h-5.6zm-8.4 0h5.6V22h-5.6zm-8.4 0h5.6V22h-5.6zm-8.4 0h5.6V22h-5.6zm-8.4 0h5.6V22h-5.6zm-8.4 0h5.6V22h-5.6zm-8.4 0h5.6V22h-5.6zm-8.4 0h5.6V22h-5.6zm-8.4 0h5.6V22h-5.6zm-8.4 0h5.6V22h-5.6zm-8.4 0h5.6V22h-5.6zm-8.4 0h5.6V22h-5.6zm-8.4 0h5.6V22h-5.6zm126-8.4h5.6v5.6h-5.6zm-8.4 0h5.6v5.6h-5.6zm-8.4 0h5.6v5.6h-5.6zm-8.4 0h5.6v5.6h-5.6zm-8.4 0h5.6v5.6h-5.6zm-8.4 0h5.6v5.6h-5.6zm-8.4 0h5.6v5.6h-5.6zm-8.4 0h5.6v5.6h-5.6zm-8.4 0h5.6v5.6h-5.6zm-8.4 0h5.6v5.6h-5.6zm-8.4 0h5.6v5.6h-5.6zm-8.4 0h5.6v5.6h-5.6zm-8.4 0h5.6v5.6h-5.6zm-8.4 0h5.6v5.6h-5.6zm-8.4 0h5.6v5.6h-5.6zm-8.4 0h5.6v5.6h-5.6z" fill="#D7D7D7"/><rect fill="#FFF" x="9.1" y="39.22" width="282.8" height="324.968" rx="1.4"/></g></g><path fill="#7C7C7C" d="M392 186h416v39H392z"/><g fill="#D7D7D7"><path d="M637.6 210.8h5.6v5.6h-5.6zm-8.4 0h5.6v5.6h-5.6zm-8.4 0h5.6v5.6h-5.6zm-8.4 0h5.6v5.6h-5.6zm-8.4 0h5.6v5.6H604zm-8.4 0h5.6v5.6h-5.6zm-8.4 0h5.6v5.6h-5.6zm-8.4 0h5.6v5.6h-5.6zm-8.4 0h5.6v5.6h-5.6zm-8.4 0h5.6v5.6H562zm-8.4 0h5.6v5.6h-5.6zm-8.4 0h5.6v5.6h-5.6zm-8.4 0h5.6v5.6h-5.6zm-8.4 0h5.6v5.6h-5.6zm-8.4 0h5.6v5.6H520zm-8.4 0h5.6v5.6h-5.6zm-8.4 0h5.6v5.6h-5.6zm-8.4 0h5.6v5.6h-5.6zm-8.4 0h5.6v5.6h-5.6zm-8.4 0h5.6v5.6H478zm-8.4 0h5.6v5.6h-5.6zm-8.4 0h5.6v5.6h-5.6zm-8.4 0h5.6v5.6h-5.6zm-8.4 0h5.6v5.6h-5.6zm-8.4 0h5.6v5.6H436zm-8.4 0h5.6v5.6h-5.6zm-8.4 0h5.6v5.6h-5.6zm-8.4 0h5.6v5.6h-5.6zm-8.4 0h5.6v5.6h-5.6zm-8.4 0h5.6v5.6H394zm243.6-8.4h5.6v5.6h-5.6zm-8.4 0h5.6v5.6h-5.6zm-8.4 0h5.6v5.6h-5.6zm-8.4 0h5.6v5.6h-5.6zm-8.4 0h5.6v5.6H604zm-8.4 0h5.6v5.6h-5.6zm-8.4 0h5.6v5.6h-5.6zm-8.4 0h5.6v5.6h-5.6zm-8.4 0h5.6v5.6h-5.6zm-8.4 0h5.6v5.6H562zm-8.4 0h5.6v5.6h-5.6zm-8.4 0h5.6v5.6h-5.6zm-8.4 0h5.6v5.6h-5.6zm-8.4 0h5.6v5.6h-5.6zm-8.4 0h5.6v5.6H520zm-8.4 0h5.6v5.6h-5.6zm-8.4 0h5.6v5.6h-5.6zm-8.4 0h5.6v5.6h-5.6zm-8.4 0h5.6v5.6h-5.6zm-8.4 0h5.6v5.6H478zm-8.4 0h5.6v5.6h-5.6zm-8.4 0h5.6v5.6h-5.6zm-8.4 0h5.6v5.6h-5.6zm-8.4 0h5.6v5.6h-5.6zm-8.4 0h5.6v5.6H436zm-8.4 0h5.6v5.6h-5.6zm-8.4 0h5.6v5.6h-5.6zm-8.4 0h5.6v5.6h-5.6zm-8.4 0h5.6v5.6h-5.6zm-8.4 0h5.6v5.6H394zm243.6-8.4h5.6v5.6h-5.6zm-8.4 0h5.6v5.6h-5.6zm-8.4 0h5.6v5.6h-5.6zm-8.4 0h5.6v5.6h-5.6zm50.4 16.8h5.6v5.6h-5.6zm-8.4 0h5.6v5.6h-5.6zm-8.4 0h5.6v5.6H646zm16.8-8.4h5.6v5.6h-5.6zm-8.4 0h5.6v5.6h-5.6zm-8.4 0h5.6v5.6H646zm16.8-8.4h5.6v5.6h-5.6zm8.4 16.8h5.6v5.6h-5.6zm0-8.4h5.6v5.6h-5.6zm0-8.4h5.6v5.6h-5.6zm-16.8 0h5.6v5.6h-5.6zm-8.4 0h5.6v5.6H646zm-42 0h5.6v5.6H604zm-8.4 0h5.6v5.6h-5.6zm-8.4 0h5.6v5.6h-5.6zm-8.4 0h5.6v5.6h-5.6zm-8.4 0h5.6v5.6h-5.6zm-8.4 0h5.6v5.6H562zm-8.4 0h5.6v5.6h-5.6zm-8.4 0h5.6v5.6h-5.6zm-8.4 0h5.6v5.6h-5.6zm-8.4 0h5.6v5.6h-5.6zm-8.4 0h5.6v5.6H520zm-8.4 0h5.6v5.6h-5.6zm-8.4 0h5.6v5.6h-5.6zm-8.4 0h5.6v5.6h-5.6zm-8.4 0h5.6v5.6h-5.6zm-8.4 0h5.6v5.6H478zm-8.4 0h5.6v5.6h-5.6zm-8.4 0h5.6v5.6h-5.6zm-8.4 0h5.6v5.6h-5.6zm-8.4 0h5.6v5.6h-5.6zm-8.4 0h5.6v5.6H436zm-8.4 0h5.6v5.6h-5.6zm-8.4 0h5.6v5.6h-5.6zm-8.4 0h5.6v5.6h-5.6zm-8.4 0h5.6v5.6h-5.6zm-8.4 0h5.6v5.6H394z"/></g><g fill="#D7D7D7"><path d="M915.6 210.8h5.6v5.6h-5.6zm-8.4 0h5.6v5.6h-5.6zm-8.4 0h5.6v5.6h-5.6zm-8.4 0h5.6v5.6h-5.6zm-8.4 0h5.6v5.6H882zm-8.4 0h5.6v5.6h-5.6zm-8.4 0h5.6v5.6h-5.6zm-8.4 0h5.6v5.6h-5.6zm-8.4 0h5.6v5.6h-5.6zm-8.4 0h5.6v5.6H840zm-8.4 0h5.6v5.6h-5.6zm-8.4 0h5.6v5.6h-5.6zm-8.4 0h5.6v5.6h-5.6zm-8.4 0h5.6v5.6h-5.6zm-8.4 0h5.6v5.6H798zm-8.4 0h5.6v5.6h-5.6zm-8.4 0h5.6v5.6h-5.6zm-8.4 0h5.6v5.6h-5.6zm-8.4 0h5.6v5.6h-5.6zm-8.4 0h5.6v5.6H756zm-8.4 0h5.6v5.6h-5.6zm-8.4 0h5.6v5.6h-5.6zm-8.4 0h5.6v5.6h-5.6zm-8.4 0h5.6v5.6h-5.6zm-8.4 0h5.6v5.6H714zm-8.4 0h5.6v5.6h-5.6zm-8.4 0h5.6v5.6h-5.6zm-8.4 0h5.6v5.6h-5.6zm-8.4 0h5.6v5.6h-5.6zm-8.4 0h5.6v5.6H672zm243.6-8.4h5.6v5.6h-5.6zm-8.4 0h5.6v5.6h-5.6zm-8.4 0h5.6v5.6h-5.6zm-8.4 0h5.6v5.6h-5.6zm-8.4 0h5.6v5.6H882zm-8.4 0h5.6v5.6h-5.6zm-8.4 0h5.6v5.6h-5.6zm-8.4 0h5.6v5.6h-5.6zm-8.4 0h5.6v5.6h-5.6zm-8.4 0h5.6v5.6H840zm-8.4 0h5.6v5.6h-5.6zm-8.4 0h5.6v5.6h-5.6zm-8.4 0h5.6v5.6h-5.6zm-8.4 0h5.6v5.6h-5.6zm-8.4 0h5.6v5.6H798zm-8.4 0h5.6v5.6h-5.6zm-8.4 0h5.6v5.6h-5.6zm-8.4 0h5.6v5.6h-5.6zm-8.4 0h5.6v5.6h-5.6zm-8.4 0h5.6v5.6H756zm-8.4 0h5.6v5.6h-5.6zm-8.4 0h5.6v5.6h-5.6zm-8.4 0h5.6v5.6h-5.6zm-8.4 0h5.6v5.6h-5.6zm-8.4 0h5.6v5.6H714zm-8.4 0h5.6v5.6h-5.6zm-8.4 0h5.6v5.6h-5.6zm-8.4 0h5.6v5.6h-5.6zm-8.4 0h5.6v5.6h-5.6zm-8.4 0h5.6v5.6H672zm243.6-8.4h5.6v5.6h-5.6zm-8.4 0h5.6v5.6h-5.6zm-8.4 0h5.6v5.6h-5.6zm-8.4 0h5.6v5.6h-5.6zm50.4 16.8h5.6v5.6h-5.6zm-8.4 0h5.6v5.6h-5.6zm-8.4 0h5.6v5.6H924zm16.8-8.4h5.6v5.6h-5.6zm-8.4 0h5.6v5.6h-5.6zm-8.4 0h5.6v5.6H924zm16.8-8.4h5.6v5.6h-5.6zm8.4 16.8h5.6v5.6h-5.6zm0-8.4h5.6v5.6h-5.6zm0-8.4h5.6v5.6h-5.6zm-16.8 0h5.6v5.6h-5.6zm-8.4 0h5.6v5.6H924zm-42 0h5.6v5.6H882zm-8.4 0h5.6v5.6h-5.6zm-8.4 0h5.6v5.6h-5.6zm-8.4 0h5.6v5.6h-5.6zm-8.4 0h5.6v5.6h-5.6zm-8.4 0h5.6v5.6H840zm-8.4 0h5.6v5.6h-5.6zm-8.4 0h5.6v5.6h-5.6zm-8.4 0h5.6v5.6h-5.6zm-8.4 0h5.6v5.6h-5.6zm-8.4 0h5.6v5.6H798zm-8.4 0h5.6v5.6h-5.6zm-8.4 0h5.6v5.6h-5.6zm-8.4 0h5.6v5.6h-5.6zm-8.4 0h5.6v5.6h-5.6zm-8.4 0h5.6v5.6H756zm-8.4 0h5.6v5.6h-5.6zm-8.4 0h5.6v5.6h-5.6zm-8.4 0h5.6v5.6h-5.6zm-8.4 0h5.6v5.6h-5.6zm-8.4 0h5.6v5.6H714zm-8.4 0h5.6v5.6h-5.6zm-8.4 0h5.6v5.6h-5.6zm-8.4 0h5.6v5.6h-5.6zm-8.4 0h5.6v5.6h-5.6zm-8.4 0h5.6v5.6H672z"/></g><path fill="#7C7C7C" d="M349 579h487v42H349zm0-29h487v24H349z"/><g fill="#D7D7D7"><path d="M595.7 559.993h5.6v5.6h-5.6zm-8.4 0h5.6v5.6h-5.6zm-8.4 0h5.6v5.6h-5.6zm-8.4 0h5.6v5.6h-5.6zm-8.4 0h5.6v5.6h-5.6zm-8.4 0h5.6v5.6h-5.6zm-8.4 0h5.6v5.6h-5.6zm-8.4 0h5.6v5.6h-5.6zm-8.4 0h5.6v5.6h-5.6zm-8.4 0h5.6v5.6h-5.6zm-8.4 0h5.6v5.6h-5.6zm-8.4 0h5.6v5.6h-5.6zm-8.4 0h5.6v5.6h-5.6zm-8.4 0h5.6v5.6h-5.6zm-8.4 0h5.6v5.6h-5.6zm-8.4 0h5.6v5.6h-5.6zm-8.4 0h5.6v5.6h-5.6zm-8.4 0h5.6v5.6h-5.6zm-8.4 0h5.6v5.6h-5.6zm-8.4 0h5.6v5.6h-5.6zm-8.4 0h5.6v5.6h-5.6zm-8.4 0h5.6v5.6h-5.6zm-8.4 0h5.6v5.6h-5.6zm-8.4 0h5.6v5.6h-5.6zm-8.4 0h5.6v5.6h-5.6zm-8.4 0h5.6v5.6h-5.6zm-8.4 0h5.6v5.6h-5.6zm-8.4 0h5.6v5.6h-5.6zm-8.4 0h5.6v5.6h-5.6zm-8.4 0h5.6v5.6h-5.6zm268.8 0h5.6v5.6h-5.6zm-8.4 0h5.6v5.6h-5.6zm-8.4 0h5.6v5.6h-5.6zm25.2 0h5.6v5.6h-5.6z"/></g><g fill="#D7D7D7"><path d="M830.7 559.993h5.6v5.6h-5.6zm-8.4 0h5.6v5.6h-5.6zm-8.4 0h5.6v5.6h-5.6zm-8.4 0h5.6v5.6h-5.6zm-8.4 0h5.6v5.6h-5.6zm-8.4 0h5.6v5.6h-5.6zm-8.4 0h5.6v5.6h-5.6zm-8.4 0h5.6v5.6h-5.6zm-8.4 0h5.6v5.6h-5.6zm-8.4 0h5.6v5.6h-5.6zm-8.4 0h5.6v5.6h-5.6zm-8.4 0h5.6v5.6h-5.6zm-8.4 0h5.6v5.6h-5.6zm-8.4 0h5.6v5.6h-5.6zm-8.4 0h5.6v5.6h-5.6zm-8.4 0h5.6v5.6h-5.6zm-8.4 0h5.6v5.6h-5.6zm-8.4 0h5.6v5.6h-5.6zm-8.4 0h5.6v5.6h-5.6zm-8.4 0h5.6v5.6h-5.6zm-8.4 0h5.6v5.6h-5.6zm-8.4 0h5.6v5.6h-5.6zm-8.4 0h5.6v5.6h-5.6zm-8.4 0h5.6v5.6h-5.6zm-8.4 0h5.6v5.6h-5.6z"/></g><path fill="#7C7C7C" d="M349 625h487v42H349zm0 47h487v42H349z"/><path fill="#FFF" d="M344 225h506v325H344z"/><g><path d="M362 448.5c0 .994-.651 1.8-1.455 1.8h-205.09c-.804 0-1.455-.806-1.455-1.8v-151a6.5 6.5 0 0 1 6.5-6.5h195a6.5 6.5 0 0 1 6.5 6.5v151z" fill="#FF003C"/><path d="M160.5 291h195a6.5 6.5 0 0 1 6.5 6.5v23.4H154v-23.4a6.5 6.5 0 0 1 6.5-6.5z" fill="#CCC"/><path d="M176.1 307.25a5.85 5.85 0 1 1-11.7 0 5.85 5.85 0 1 1 11.7 0" fill="#E74C3C"/><path d="M196.9 307.25a5.85 5.85 0 1 1-11.7 0 5.85 5.85 0 1 1 11.7 0" fill="#F1C40F"/><path d="M216.4 307.25a5.85 5.85 0 1 1-11.7 0 5.85 5.85 0 1 1 11.7 0" fill="#2ECC71"/></g><g><path d="M590 448.5c0 .994-.651 1.8-1.455 1.8h-205.09c-.804 0-1.455-.806-1.455-1.8v-151a6.5 6.5 0 0 1 6.5-6.5h195a6.5 6.5 0 0 1 6.5 6.5v151z" fill="#FF003C"/><path d="M388.5 291h195a6.5 6.5 0 0 1 6.5 6.5v23.4H382v-23.4a6.5 6.5 0 0 1 6.5-6.5z" fill="#CCC"/><path d="M404.1 307.25a5.85 5.85 0 1 1-11.7 0 5.85 5.85 0 1 1 11.7 0" fill="#E74C3C"/><path d="M424.9 307.25a5.85 5.85 0 1 1-11.7 0 5.85 5.85 0 1 1 11.7 0" fill="#F1C40F"/><path d="M444.4 307.25a5.85 5.85 0 1 1-11.7 0 5.85 5.85 0 1 1 11.7 0" fill="#2ECC71"/></g><path fill="#D8D8D8" d="M337 588h509v5.5H337zm0 9h509v5.5H337zm0 9h509v5.5H337zm0 28.25h509v5.5H337zm0 9h509v5.5H337zm0 9h509v5.5H337zm0 28.75h509v5.5H337zm0 9h509v5.5H337zm0 9h509v5.5H337z"/></g></svg>