<svg viewBox="0 0 1200 900" xmlns="http://www.w3.org/2000/svg"><g fill="none" fill-rule="evenodd"><g fill-rule="nonzero" transform="translate(73 147)"><rect fill="#FCF6E5" width="1055" height="606" rx="15"></rect><ellipse fill="#F92672" cx="36.017" cy="34.5" rx="10.505" ry="10.5"></ellipse><ellipse fill="#F4BF75" cx="66.031" cy="34.5" rx="10.505" ry="10.5"></ellipse><ellipse fill="#A6E22E" cx="96.046" cy="34.5" rx="10.505" ry="10.5"></ellipse></g><g class="sans-serif" fill-rule="nonzero"><path d="M158.474 282.191l3.51-.023q0 3.626-2.145 6.116-2.146 2.49-5.29 2.49-1.652 0-3.12-.608-1.47-.608-3.409-2.306-1.939-1.698-2.788-2.111-.85-.414-1.813-.414-1.79 0-2.754 1.228t-.964 3.385l-3.695.046q0-3.672 2.112-6.036 2.111-2.363 5.3-2.363 1.745 0 3.352.734 1.606.734 3.626 2.582 2.019 1.847 3.488 2.077l.665.046q1.744 0 2.835-1.331 1.09-1.331 1.09-3.512z" fill="#D0021B"></path><path d="M180.88 291.394q0-2.111-1.48-3.557-1.48-1.446-4.992-2.616-4.888-1.492-7.126-3.89-2.237-2.398-2.237-6.093 0-3.764 2.191-6.174 2.192-2.41 6.024-2.868v-5.026h3.42v5.049q3.855.528 6.001 3.236 2.146 2.708 2.146 7.412h-4.223q0-3.236-1.537-5.14-1.538-1.905-4.154-1.905-2.731 0-4.177 1.411-1.446 1.412-1.446 3.936 0 2.34 1.526 3.73 1.526 1.388 5.026 2.524 3.5 1.136 5.462 2.501 1.962 1.366 2.892 3.179.93 1.813.93 4.245 0 3.879-2.33 6.242-2.33 2.364-6.53 2.8v4.383h-3.396v-4.383q-4.268-.39-6.69-3.04-2.42-2.651-2.42-7.195h4.245q0 3.19 1.675 4.91 1.676 1.722 4.75 1.722 3.007 0 4.728-1.446 1.722-1.445 1.722-3.947z" fill="#4A90E2"></path><path d="M214.277 296.994q2.272 0 3.97-1.377 1.699-1.377 1.882-3.443h4.016q-.114 2.135-1.468 4.062-1.354 1.928-3.615 3.076-2.26 1.147-4.785 1.147-5.072 0-8.067-3.385-2.994-3.385-2.994-9.26v-.711q0-3.626 1.33-6.45 1.332-2.822 3.822-4.382 2.49-1.561 5.886-1.561 4.177 0 6.942 2.501 2.766 2.502 2.95 6.495h-4.017q-.183-2.41-1.824-3.959t-4.05-1.549q-3.237 0-5.015 2.33-1.779 2.329-1.779 6.735v.803q0 4.292 1.767 6.61 1.767 2.318 5.05 2.318zM248.701 300h-4.452q-.367-.734-.597-2.616-2.96 3.075-7.068 3.075-3.672 0-6.024-2.077-2.353-2.077-2.353-5.267 0-3.878 2.95-6.024 2.948-2.146 8.295-2.146h4.131v-1.95q0-2.226-1.33-3.546-1.332-1.32-3.925-1.32-2.272 0-3.81 1.148-1.537 1.147-1.537 2.777h-4.269q0-1.86 1.32-3.592 1.32-1.733 3.58-2.742 2.26-1.01 4.968-1.01 4.292 0 6.724 2.146 2.433 2.145 2.525 5.91v11.428q0 3.42.872 5.439V300zm-11.498-3.236q1.997 0 3.787-1.033 1.79-1.032 2.593-2.685v-5.094h-3.327q-7.803 0-7.803 4.567 0 1.996 1.33 3.12 1.332 1.125 3.42 1.125zM256 269.156h4.245v6.013h4.636v3.282h-4.636v15.399q0 1.491.62 2.237t2.111.746q.735 0 2.02-.275V300q-1.675.459-3.259.459-2.846 0-4.291-1.721Q256 297.017 256 293.85v-15.4h-4.521v-3.281h4.52v-6.013zM291.386 300h-9.248v-33.414h9.432q4.36 0 7.711 1.928 3.35 1.927 5.175 5.485 1.825 3.557 1.847 8.17v2.134q0 4.727-1.824 8.284-1.824 3.558-5.21 5.462-3.384 1.905-7.883 1.951zm.299-29.788h-5.14v26.185h4.635q5.095 0 7.929-3.167 2.834-3.167 2.834-9.02v-1.95q0-5.691-2.673-8.847-2.674-3.155-7.585-3.201zm19.484 17.441v-.298q0-3.649 1.434-6.563 1.434-2.915 3.993-4.499 2.559-1.583 5.84-1.583 5.073 0 8.205 3.511 3.133 3.511 3.133 9.34v.299q0 3.626-1.389 6.506-1.388 2.88-3.97 4.487-2.582 1.606-5.932 1.606-5.05 0-8.182-3.511-3.132-3.511-3.132-9.295zm4.268.207q0 4.13 1.917 6.632 1.916 2.502 5.129 2.502 3.236 0 5.14-2.536 1.905-2.536 1.905-7.103 0-4.085-1.94-6.62-1.938-2.537-5.151-2.537-3.144 0-5.072 2.502-1.928 2.501-1.928 7.16zm33.62 9.134q2.273 0 3.971-1.377t1.882-3.443h4.016q-.115 2.135-1.469 4.062-1.354 1.928-3.614 3.076-2.26 1.147-4.785 1.147-5.072 0-8.067-3.385t-2.995-9.26v-.711q0-3.626 1.331-6.45 1.331-2.822 3.821-4.382 2.49-1.561 5.887-1.561 4.177 0 6.942 2.501 2.765 2.502 2.949 6.495h-4.016q-.184-2.41-1.825-3.959-1.64-1.549-4.05-1.549-3.236 0-5.014 2.33-1.78 2.329-1.78 6.735v.803q0 4.292 1.768 6.61 1.767 2.318 5.049 2.318zM379.283 300l-8.652-11.498-2.662 2.777V300h-4.246v-35.25h4.246v21.32l2.272-2.731 7.734-8.17h5.163l-9.661 10.373L384.262 300h-4.98zm18.084.459q-5.049 0-8.216-3.316-3.167-3.316-3.167-8.87v-.78q0-3.695 1.412-6.598 1.41-2.903 3.947-4.544 2.536-1.641 5.496-1.641 4.842 0 7.527 3.19 2.686 3.19 2.686 9.134v1.767H390.23q.092 3.672 2.146 5.932 2.053 2.26 5.22 2.26 2.25 0 3.81-.917 1.56-.918 2.731-2.433l2.593 2.02q-3.12 4.796-9.363 4.796zm-.528-22.26q-2.57 0-4.314 1.87-1.744 1.87-2.158 5.243h12.439v-.32q-.184-3.237-1.744-5.015-1.56-1.779-4.223-1.779zm27.126-3.168v3.948q-.964-.161-2.088-.161-4.177 0-5.669 3.557V300h-4.245v-24.831h4.13l.07 2.869q2.088-3.328 5.92-3.328 1.24 0 1.882.321zM434.544 300h-4.246v-21.55h-3.924v-3.281h3.924v-2.547q0-3.994 2.134-6.174 2.135-2.18 6.036-2.18 1.469 0 2.915.39l-.23 3.443q-1.079-.207-2.295-.207-2.065 0-3.19 1.205-1.124 1.205-1.124 3.454v2.616h5.301v3.282h-5.301V300zm14.595-24.831V300h-4.245v-24.831h4.245zm-4.59-6.586q0-1.033.632-1.745.63-.711 1.87-.711 1.24 0 1.882.711.642.712.642 1.745 0 1.032-.642 1.72-.643.69-1.882.69-1.24 0-1.87-.69-.631-.688-.631-1.72zm15.996-3.833V300H456.3v-35.25h4.245zm17.097 35.709q-5.048 0-8.215-3.316t-3.167-8.87v-.78q0-3.695 1.41-6.598 1.412-2.903 3.948-4.544 2.536-1.641 5.497-1.641 4.842 0 7.527 3.19 2.685 3.19 2.685 9.134v1.767h-16.822q.092 3.672 2.146 5.932 2.054 2.26 5.22 2.26 2.25 0 3.81-.917 1.56-.918 2.731-2.433l2.594 2.02q-3.121 4.796-9.364 4.796zm-.527-22.26q-2.57 0-4.315 1.87-1.744 1.87-2.157 5.243h12.438v-.32q-.183-3.237-1.744-5.015-1.56-1.779-4.222-1.779zm-321.808 129.37v3.603h-14.022v14.756h-4.407v-33.414h20.7v3.626h-16.293v11.429h14.022zm27.057 18.359l-7.252-13.517h-7.849v13.517h-4.429v-33.414h11.062q5.645 0 8.686 2.57 3.04 2.57 3.04 7.482 0 3.12-1.686 5.439-1.687 2.318-4.693 3.465l7.848 14.183v.275h-4.727zm-15.1-29.788v12.668h6.77q3.28 0 5.22-1.698 1.94-1.699 1.94-4.544 0-3.098-1.848-4.75-1.847-1.653-5.336-1.676h-6.747zm50.235 12.048v2.112q0 4.91-1.652 8.571-1.653 3.66-4.682 5.588-3.03 1.928-7.068 1.928-3.948 0-7-1.94-3.052-1.938-4.739-5.53-1.687-3.592-1.733-8.32v-2.409q0-4.82 1.676-8.514 1.675-3.695 4.739-5.657 3.064-1.962 7.01-1.962 4.017 0 7.08 1.94 3.064 1.938 4.717 5.622 1.652 3.683 1.652 8.571zm-4.383 2.433v-2.479q0-5.943-2.387-9.122-2.387-3.178-6.678-3.178-4.177 0-6.575 3.178-2.398 3.179-2.467 8.824v2.456q0 5.76 2.42 9.053 2.422 3.293 6.668 3.293 4.268 0 6.61-3.11 2.34-3.109 2.409-8.915zm10.992-18.107h5.692l10.924 27.264 10.923-27.264h5.715v33.414h-4.406v-13.012l.413-14.045-10.97 27.057h-3.374L228.08 398.94l.436 13.976v13.012h-4.407v-33.414zm67.425 33.414l-.092-2.456q-2.478 2.915-7.274 2.915-3.97 0-6.048-2.306-2.077-2.307-2.1-6.828v-16.156h4.246v16.041q0 5.646 4.59 5.646 4.865 0 6.472-3.626v-18.061h4.245v24.831h-4.039zm31.51-12.507v.367q0 5.691-2.617 9.145-2.616 3.454-7.022 3.454-4.705 0-7.275-3.328l-.207 2.869h-3.901v-35.25h4.246v13.15q2.57-3.19 7.09-3.19 4.522 0 7.104 3.42 2.581 3.419 2.581 9.363zm-4.246-.115q0-4.337-1.675-6.701-1.676-2.364-4.82-2.364-4.2 0-6.035 3.901v10.74q1.95 3.902 6.081 3.902 3.052 0 4.75-2.364 1.699-2.364 1.699-7.114zm25.015 12.622l-.092-2.456q-2.479 2.915-7.275 2.915-3.97 0-6.047-2.306-2.077-2.307-2.1-6.828v-16.156h4.245v16.041q0 5.646 4.59 5.646 4.866 0 6.472-3.626v-18.061h4.246v24.831h-4.04zm10.487-24.831h4.016l.138 3.121q2.846-3.58 7.436-3.58 7.871 0 7.94 8.881v16.409h-4.246v-16.432q-.022-2.685-1.227-3.97-1.205-1.285-3.752-1.285-2.066 0-3.626 1.102-1.561 1.101-2.433 2.891v17.694h-4.246v-24.831zm27.448-6.013h4.245v6.013h4.636v3.282h-4.636v15.399q0 1.491.62 2.237t2.111.746q.735 0 2.02-.275v3.442q-1.676.459-3.26.459-2.845 0-4.29-1.721-1.446-1.721-1.446-4.888v-15.4h-4.521v-3.281h4.52v-6.013zm29.26 30.844l-.092-2.456q-2.478 2.915-7.275 2.915-3.97 0-6.047-2.306-2.077-2.307-2.1-6.828v-16.156h4.246v16.041q0 5.646 4.59 5.646 4.865 0 6.471-3.626v-18.061h4.246v24.831h-4.04zm-254.622 62.929l-7.252-13.517h-7.848v13.517h-4.43v-33.414h11.062q5.645 0 8.686 2.57 3.041 2.57 3.041 7.482 0 3.12-1.687 5.439-1.686 2.318-4.693 3.465l7.849 14.183v.275h-4.728zm-15.1-29.788v12.668h6.77q3.281 0 5.22-1.698 1.94-1.699 1.94-4.544 0-3.098-1.848-4.75-1.847-1.653-5.335-1.676h-6.747zm43.626-3.626h4.43v22.72q-.024 4.727-2.973 7.734-2.949 3.006-7.997 3.373l-1.17.046q-5.486 0-8.744-2.96-3.26-2.96-3.305-8.147v-22.766h4.36v22.628q0 3.626 1.997 5.634 1.996 2.008 5.691 2.008 3.74 0 5.726-1.997 1.985-1.996 1.985-5.622v-22.651zm37.063 0v33.414h-4.43l-16.82-25.749v25.749h-4.43v-33.414h4.43l16.867 25.864v-25.864h4.383zm38.578 33.414H256.1q-.368-.734-.597-2.616-2.96 3.075-7.068 3.075-3.672 0-6.025-2.077-2.352-2.077-2.352-5.267 0-3.878 2.95-6.024 2.948-2.146 8.295-2.146h4.131v-1.95q0-2.226-1.331-3.546-1.331-1.32-3.924-1.32-2.272 0-3.81 1.148-1.537 1.147-1.537 2.777h-4.269q0-1.86 1.32-3.592 1.32-1.733 3.58-2.742 2.26-1.01 4.968-1.01 4.292 0 6.724 2.146 2.433 2.145 2.525 5.91v11.428q0 3.42.872 5.439v.367zm-11.498-3.236q1.997 0 3.787-1.033 1.79-1.032 2.593-2.685v-5.094h-3.328q-7.802 0-7.802 4.567 0 1.996 1.33 3.12 1.332 1.125 3.42 1.125zm38.257-9.294v.39q0 5.668-2.594 9.134-2.593 3.465-7.022 3.465-4.521 0-7.114-2.869v11.957h-4.246v-34.378h3.878l.207 2.754q2.593-3.213 7.206-3.213 4.475 0 7.08 3.373 2.605 3.374 2.605 9.387zm-4.246-.092q0-4.2-1.79-6.632-1.79-2.433-4.911-2.433-3.856 0-5.783 3.42v11.864q1.904 3.397 5.829 3.397 3.052 0 4.853-2.421 1.802-2.422 1.802-7.195zm11.153-18.222h4.246v6.013h4.636v3.282h-4.636v15.399q0 1.491.62 2.237t2.11.746q.735 0 2.02-.275v3.442q-1.675.459-3.258.459-2.846 0-4.292-1.721-1.446-1.721-1.446-4.888v-15.4h-4.52v-3.281h4.52v-6.013zm22.674 14.917v3.466h-11.2v-3.466h11.2zm3.121 3.305q0-5.806 2.685-9.237t7.115-3.431q4.543 0 7.09 3.213l.207-2.754h3.879v24.234q0 4.82-2.857 7.597-2.858 2.776-7.677 2.776-2.685 0-5.255-1.147-2.57-1.148-3.925-3.144l2.204-2.547q2.73 3.373 6.678 3.373 3.098 0 4.83-1.744 1.733-1.744 1.733-4.911v-2.135q-2.547 2.938-6.953 2.938-4.36 0-7.057-3.511t-2.697-9.57zm4.269.482q0 4.2 1.72 6.598 1.722 2.398 4.82 2.398 4.016 0 5.898-3.649v-11.337q-1.95-3.557-5.852-3.557-3.098 0-4.842 2.41-1.744 2.41-1.744 7.137zm33.414 12.599q-5.049 0-8.216-3.316-3.167-3.316-3.167-8.87v-.78q0-3.695 1.411-6.598 1.412-2.903 3.948-4.544 2.536-1.641 5.496-1.641 4.842 0 7.527 3.19 2.685 3.19 2.685 9.134v1.767h-16.82q.091 3.672 2.145 5.932 2.054 2.26 5.221 2.26 2.25 0 3.81-.917 1.56-.918 2.73-2.433l2.594 2.02q-3.121 4.796-9.363 4.796zm-.528-22.26q-2.57 0-4.314 1.87-1.745 1.87-2.158 5.244h12.439v-.322q-.184-3.236-1.744-5.014-1.56-1.779-4.223-1.779zm16.638-9.043h4.246v6.013h4.635v3.282h-4.635v15.399q0 1.491.62 2.237.619.746 2.11.746.735 0 2.02-.275v3.442q-1.675.459-3.259.459-2.845 0-4.291-1.721-1.446-1.721-1.446-4.888v-15.4h-4.52v-3.281h4.52v-6.013zm40.896 30.844l-.092-2.456q-2.479 2.915-7.275 2.915-3.97 0-6.047-2.306-2.077-2.307-2.1-6.828v-16.156h4.246v16.041q0 5.646 4.59 5.646 4.865 0 6.471-3.626v-18.061h4.246v24.831h-4.04zm31.463-12.53v.39q0 5.668-2.593 9.134-2.593 3.465-7.023 3.465-4.52 0-7.114-2.869v11.957h-4.246v-34.378h3.879l.206 2.754q2.594-3.213 7.206-3.213 4.476 0 7.08 3.373 2.605 3.374 2.605 9.387zm-4.246-.092q0-4.2-1.79-6.632-1.79-2.433-4.91-2.433-3.856 0-5.784 3.42v11.864q1.905 3.397 5.83 3.397 3.051 0 4.853-2.421 1.801-2.422 1.801-7.195zm8.606.321v-.321q0-5.714 2.708-9.191 2.708-3.477 7.092-3.477 4.36 0 6.907 2.983v-12.943h4.246v35.25h-3.901l-.207-2.662q-2.547 3.121-7.091 3.121-4.315 0-7.034-3.534-2.72-3.534-2.72-9.226zm4.246.16q0 4.224 1.744 6.61 1.744 2.387 4.82 2.387 4.039 0 5.897-3.626v-11.406q-1.904-3.511-5.852-3.511-3.12 0-4.865 2.41-1.744 2.41-1.744 7.137zm43.076 12.141h-4.452q-.368-.734-.597-2.616-2.96 3.075-7.069 3.075-3.671 0-6.024-2.077-2.352-2.077-2.352-5.267 0-3.878 2.949-6.024t8.296-2.146h4.131v-1.95q0-2.226-1.331-3.546-1.331-1.32-3.924-1.32-2.272 0-3.81 1.148-1.538 1.147-1.538 2.777h-4.268q0-1.86 1.32-3.592 1.32-1.733 3.58-2.742 2.26-1.01 4.968-1.01 4.292 0 6.724 2.146 2.433 2.145 2.525 5.91v11.428q0 3.42.872 5.439v.367zm-11.498-3.236q1.997 0 3.787-1.033 1.79-1.032 2.593-2.685v-5.094h-3.328q-7.802 0-7.802 4.567 0 1.996 1.33 3.12 1.332 1.125 3.42 1.125zm18.796-27.608h4.245v6.013h4.636v3.282h-4.636v15.399q0 1.491.62 2.237t2.111.746q.734 0 2.02-.275v3.442q-1.676.459-3.26.459-2.845 0-4.29-1.721-1.446-1.721-1.446-4.888v-15.4h-4.521v-3.281h4.52v-6.013zm24.142 31.303q-5.049 0-8.216-3.316-3.167-3.316-3.167-8.87v-.78q0-3.695 1.412-6.598 1.411-2.903 3.947-4.544 2.536-1.641 5.496-1.641 4.843 0 7.528 3.19 2.685 3.19 2.685 9.134v1.767H522.15q.092 3.672 2.146 5.932 2.054 2.26 5.22 2.26 2.25 0 3.81-.917 1.56-.918 2.731-2.433l2.593 2.02q-3.12 4.796-9.363 4.796zm-.528-22.26q-2.57 0-4.314 1.87-1.744 1.87-2.157 5.244h12.438v-.322q-.184-3.236-1.744-5.014-1.56-1.779-4.223-1.779zm-372.374 84.729l-7.252-13.517h-7.848v13.517h-4.43v-33.414h11.062q5.645 0 8.686 2.57 3.041 2.57 3.041 7.482 0 3.12-1.687 5.439-1.686 2.318-4.693 3.465l7.849 14.183v.275h-4.728zm-15.1-29.788v12.668h6.77q3.281 0 5.22-1.698 1.94-1.699 1.94-4.544 0-3.098-1.848-4.75-1.847-1.653-5.335-1.676h-6.747zm43.626-3.626h4.43v22.72q-.024 4.727-2.973 7.734-2.949 3.006-7.997 3.373l-1.17.046q-5.486 0-8.744-2.96-3.26-2.96-3.305-8.147V518.37h4.36v22.628q0 3.626 1.997 5.634 1.996 2.008 5.691 2.008 3.74 0 5.726-1.997 1.985-1.996 1.985-5.622V518.37zm37.063 0v33.414h-4.43l-16.82-25.749v25.749h-4.43v-33.414h4.43l16.867 25.864V518.37h4.383zm38.578 33.414H256.1q-.368-.734-.597-2.616-2.96 3.075-7.068 3.075-3.672 0-6.025-2.077-2.352-2.077-2.352-5.267 0-3.878 2.95-6.024 2.948-2.146 8.295-2.146h4.131v-1.95q0-2.226-1.331-3.546-1.331-1.32-3.924-1.32-2.272 0-3.81 1.148-1.537 1.147-1.537 2.777h-4.269q0-1.86 1.32-3.592 1.32-1.733 3.58-2.742 2.26-1.01 4.968-1.01 4.292 0 6.724 2.146 2.433 2.145 2.525 5.91v11.428q0 3.42.872 5.439v.367zm-11.498-3.236q1.997 0 3.787-1.033 1.79-1.032 2.593-2.685v-5.094h-3.328q-7.802 0-7.802 4.567 0 1.996 1.33 3.12 1.332 1.125 3.42 1.125zm38.257-9.294v.39q0 5.668-2.594 9.134-2.593 3.465-7.022 3.465-4.521 0-7.114-2.869v11.957h-4.246v-34.378h3.878l.207 2.754q2.593-3.213 7.206-3.213 4.475 0 7.08 3.373 2.605 3.374 2.605 9.387zm-4.246-.092q0-4.2-1.79-6.632-1.79-2.433-4.911-2.433-3.856 0-5.783 3.42v11.864q1.904 3.397 5.829 3.397 3.052 0 4.853-2.421 1.802-2.422 1.802-7.195zm11.153-18.222h4.246v6.013h4.636v3.282h-4.636v15.399q0 1.491.62 2.237t2.11.746q.735 0 2.02-.275v3.442q-1.675.459-3.258.459-2.846 0-4.292-1.721-1.446-1.721-1.446-4.888v-15.4h-4.52v-3.281h4.52v-6.013zm22.674 14.917v3.466h-11.2v-3.466h11.2zm3.121 3.305q0-5.806 2.685-9.237t7.115-3.431q4.543 0 7.09 3.213l.207-2.754h3.879v24.234q0 4.82-2.857 7.597-2.858 2.776-7.677 2.776-2.685 0-5.255-1.147-2.57-1.148-3.925-3.144l2.204-2.548q2.73 3.374 6.678 3.374 3.098 0 4.83-1.744 1.733-1.744 1.733-4.911v-2.135q-2.547 2.938-6.953 2.938-4.36 0-7.057-3.511t-2.697-9.57zm4.269.482q0 4.2 1.72 6.598 1.722 2.398 4.82 2.398 4.016 0 5.898-3.649v-11.337q-1.95-3.557-5.852-3.557-3.098 0-4.842 2.41-1.744 2.41-1.744 7.137zm33.414 12.599q-5.049 0-8.216-3.316-3.167-3.316-3.167-8.87v-.78q0-3.695 1.411-6.598 1.412-2.903 3.948-4.544 2.536-1.641 5.496-1.641 4.842 0 7.527 3.19 2.685 3.19 2.685 9.134v1.767h-16.82q.091 3.672 2.145 5.932 2.054 2.26 5.221 2.26 2.25 0 3.81-.917 1.56-.918 2.73-2.433l2.594 2.02q-3.121 4.796-9.363 4.796zm-.528-22.26q-2.57 0-4.314 1.87-1.745 1.87-2.158 5.243h12.439v-.32q-.184-3.237-1.744-5.015-1.56-1.779-4.223-1.779zm16.638-9.043h4.246v6.013h4.635v3.282h-4.635v15.399q0 1.491.62 2.237.619.746 2.11.746.735 0 2.02-.275v3.442q-1.675.459-3.259.459-2.845 0-4.291-1.721-1.446-1.721-1.446-4.888v-15.4h-4.52v-3.281h4.52v-6.013zm34.31 14.917v3.466h-11.2v-3.466h11.2zm6.058-8.904l6.196 18.612 5.783-18.612h4.544l-9.983 28.664q-2.318 6.196-7.366 6.196l-.804-.069-1.583-.298v-3.443l1.147.092q2.158 0 3.362-.872 1.205-.872 1.986-3.19l.94-2.524-8.858-24.556h4.636zm36.558 0v24.831h-4.246v-24.831h4.246zm-4.59-6.586q0-1.033.631-1.745.631-.711 1.87-.711 1.24 0 1.882.711.643.712.643 1.745 0 1.032-.643 1.72-.642.69-1.881.69-1.24 0-1.87-.69-.632-.688-.632-1.72zm11.383 6.586h4.016l.138 3.121q2.845-3.58 7.435-3.58 7.872 0 7.94 8.881v16.409h-4.245v-16.432q-.023-2.685-1.228-3.97-1.205-1.285-3.752-1.285-2.065 0-3.626 1.102-1.56 1.101-2.432 2.891v17.694h-4.246v-24.831zm40.39 18.245q0-1.722-1.296-2.674-1.297-.952-4.521-1.64-3.224-.69-5.118-1.653-1.893-.964-2.8-2.295-.906-1.331-.906-3.167 0-3.052 2.582-5.164 2.582-2.111 6.598-2.111 4.222 0 6.85 2.18 2.628 2.18 2.628 5.577h-4.269q0-1.744-1.48-3.007-1.48-1.262-3.73-1.262-2.317 0-3.625 1.01-1.308 1.01-1.308 2.64 0 1.537 1.216 2.317 1.216.78 4.395 1.492 3.178.711 5.152 1.698 1.973.987 2.926 2.375.952 1.389.952 3.385 0 3.328-2.662 5.336-2.662 2.008-6.908 2.008-2.983 0-5.278-1.056-2.295-1.055-3.592-2.949-1.296-1.893-1.296-4.096h4.245q.115 2.134 1.71 3.385 1.595 1.25 4.211 1.25 2.41 0 3.867-.975 1.458-.975 1.458-2.604zm11.292-24.258h4.245v6.013h4.636v3.282h-4.636v15.399q0 1.491.62 2.237t2.111.746q.734 0 2.02-.275v3.442q-1.676.459-3.26.459-2.845 0-4.29-1.721-1.446-1.721-1.446-4.888v-15.4h-4.521v-3.281h4.52v-6.013zm33.62 30.844h-4.452q-.367-.734-.597-2.616-2.96 3.075-7.068 3.075-3.672 0-6.024-2.077-2.353-2.077-2.353-5.267 0-3.878 2.95-6.024 2.948-2.146 8.296-2.146h4.13v-1.95q0-2.226-1.33-3.546-1.332-1.32-3.925-1.32-2.272 0-3.81 1.148-1.537 1.147-1.537 2.777h-4.269q0-1.86 1.32-3.592 1.32-1.733 3.58-2.742 2.26-1.01 4.969-1.01 4.291 0 6.724 2.146 2.432 2.145 2.524 5.91v11.428q0 3.42.872 5.439v.367zm-11.497-3.236q1.996 0 3.786-1.033 1.79-1.032 2.593-2.685v-5.094h-3.327q-7.803 0-7.803 4.567 0 1.996 1.331 3.12 1.331 1.125 3.42 1.125zm21.893-32.014v35.25h-4.245v-35.25h4.245zm11.406 0v35.25h-4.246v-35.25h4.246zm24.762 35.25h-4.245v-21.55h-3.925v-3.281h3.925v-2.547q0-3.994 2.134-6.174t6.035-2.18q1.47 0 2.915.39l-.23 3.443q-1.078-.207-2.294-.207-2.066 0-3.19 1.205-1.125 1.205-1.125 3.454v2.616h5.301v3.282h-5.3v21.549zm14.596-24.831v24.831h-4.246v-24.831h4.246zm-4.59-6.586q0-1.033.631-1.745.631-.711 1.87-.711 1.24 0 1.882.711.643.712.643 1.745 0 1.032-.643 1.72-.642.69-1.882.69-1.239 0-1.87-.69-.631-.688-.631-1.72zm10.373 18.795q0-5.806 2.685-9.237t7.114-3.431q4.544 0 7.092 3.213l.206-2.754h3.879v24.234q0 4.82-2.858 7.597-2.857 2.776-7.676 2.776-2.685 0-5.255-1.147-2.57-1.148-3.925-3.144l2.203-2.548q2.731 3.374 6.679 3.374 3.098 0 4.83-1.744 1.733-1.744 1.733-4.911v-2.135q-2.547 2.938-6.954 2.938-4.36 0-7.056-3.511-2.697-3.511-2.697-9.57zm4.269.482q0 4.2 1.72 6.598 1.722 2.398 4.82 2.398 4.016 0 5.898-3.649v-11.337q-1.95-3.557-5.852-3.557-3.098 0-4.842 2.41-1.744 2.41-1.744 7.137zm27.722-23.11v35.25h-4.245v-35.25h4.245zm17.097 35.709q-5.048 0-8.215-3.316t-3.167-8.87v-.78q0-3.695 1.411-6.598t3.947-4.544q2.536-1.641 5.497-1.641 4.842 0 7.527 3.19 2.685 3.19 2.685 9.134v1.767h-16.822q.092 3.672 2.146 5.932 2.054 2.26 5.22 2.26 2.25 0 3.81-.917 1.561-.918 2.731-2.433l2.594 2.02q-3.121 4.796-9.364 4.796zm-.527-22.26q-2.57 0-4.315 1.87-1.744 1.87-2.157 5.243h12.438v-.32q-.183-3.237-1.744-5.015-1.56-1.779-4.222-1.779zm16.638-9.043h4.245v6.013h4.636v3.282h-4.636v15.399q0 1.491.62 2.237t2.111.746q.735 0 2.02-.275v3.442q-1.675.459-3.259.459-2.846 0-4.291-1.721-1.446-1.721-1.446-4.888v-15.4h-4.521v-3.281h4.52v-6.013z" fill="#000"></path><path d="M158.474 659.905l3.51-.023q0 3.626-2.145 6.116-2.146 2.49-5.29 2.49-1.652 0-3.12-.608-1.47-.608-3.409-2.306-1.939-1.698-2.788-2.111-.85-.414-1.813-.414-1.79 0-2.754 1.228t-.964 3.385l-3.695.046q0-3.672 2.112-6.036 2.111-2.363 5.3-2.363 1.745 0 3.352.734 1.606.734 3.626 2.582 2.019 1.847 3.488 2.077l.665.046q1.744 0 2.835-1.331 1.09-1.331 1.09-3.512z" fill="#E20000"></path><path d="M180.88 669.108q0-2.111-1.48-3.557-1.48-1.446-4.992-2.616-4.888-1.492-7.126-3.89-2.237-2.398-2.237-6.093 0-3.764 2.191-6.174 2.192-2.41 6.024-2.868v-5.026h3.42v5.049q3.855.528 6.001 3.236 2.146 2.708 2.146 7.412h-4.223q0-3.236-1.537-5.14-1.538-1.905-4.154-1.905-2.731 0-4.177 1.411-1.446 1.412-1.446 3.936 0 2.34 1.526 3.73 1.526 1.388 5.026 2.524 3.5 1.136 5.462 2.501 1.962 1.366 2.892 3.179.93 1.813.93 4.245 0 3.879-2.33 6.242-2.33 2.364-6.53 2.8v4.383h-3.396v-4.383q-4.268-.39-6.69-3.04-2.42-2.651-2.42-7.195h4.245q0 3.19 1.675 4.91 1.676 1.722 4.75 1.722 3.007 0 4.728-1.446 1.722-1.445 1.722-3.947z" fill="#2C90E9"></path></g></g></svg>