<svg viewBox="0 0 1200 900" xmlns="http://www.w3.org/2000/svg"><path d="M71 159h1038v8H71zm24.68-18l-2.368-7.031H80.984L78.641 141h-7.477l12.703-34.125h6.516L103.156 141H95.68zm-8.555-25.5l-4.242 12.773h8.531L87.125 115.5zm30.963 18.492q0-1.242-1.23-1.957-1.231-.715-3.95-1.277-9.047-1.899-9.047-7.688 0-3.375 2.801-5.636 2.8-2.262 7.324-2.262 4.828 0 7.723 2.273 2.894 2.274 2.894 5.907h-6.773q0-1.454-.938-2.403-.937-.949-2.93-.949-1.71 0-2.648.773-.937.774-.937 1.97 0 1.124 1.066 1.816 1.067.691 3.598 1.195 2.531.504 4.266 1.137 5.367 1.968 5.367 6.82 0 3.469-2.977 5.613-2.976 2.145-7.687 2.145-3.188 0-5.66-1.137-2.473-1.137-3.88-3.117-1.406-1.98-1.406-4.278h6.422q.094 1.805 1.336 2.766 1.242.961 3.328.961 1.946 0 2.942-.738.996-.738.996-1.934zm23.135 0q0-1.242-1.231-1.957-1.23-.715-3.95-1.277-9.046-1.899-9.046-7.688 0-3.375 2.8-5.636 2.802-2.262 7.325-2.262 4.828 0 7.723 2.273 2.894 2.274 2.894 5.907h-6.773q0-1.454-.938-2.403-.937-.949-2.93-.949-1.71 0-2.648.773-.937.774-.937 1.97 0 1.124 1.066 1.816 1.066.691 3.598 1.195 2.53.504 4.265 1.137 5.367 1.968 5.367 6.82 0 3.469-2.976 5.613-2.977 2.145-7.688 2.145-3.187 0-5.66-1.137-2.472-1.137-3.879-3.117-1.406-1.98-1.406-4.278h6.422q.094 1.805 1.336 2.766 1.242.961 3.328.961 1.945 0 2.941-.738.996-.738.996-1.934zm16.548-18.351V141h-6.797v-25.36h6.797zm-7.195-6.563q0-1.523 1.02-2.508 1.019-.984 2.777-.984 1.734 0 2.765.984 1.032.985 1.032 2.508 0 1.547-1.043 2.531-1.043.985-2.754.985t-2.754-.985q-1.043-.984-1.043-2.53zm10.244 19.336v-.281q0-5.836 2.777-9.399 2.778-3.562 7.489-3.562 4.171 0 6.492 2.86l.281-2.391H184v24.515q0 3.328-1.511 5.79-1.512 2.46-4.254 3.75-2.742 1.288-6.422 1.288-2.789 0-5.437-1.113-2.649-1.113-4.008-2.871l3-4.125q2.531 2.836 6.14 2.836 2.696 0 4.196-1.441 1.5-1.442 1.5-4.09v-1.36q-2.344 2.649-6.164 2.649-4.57 0-7.395-3.574-2.824-3.575-2.824-9.48zm6.773.211q0 3.445 1.383 5.402 1.383 1.957 3.797 1.957 3.094 0 4.43-2.32V123q-1.36-2.32-4.383-2.32-2.438 0-3.832 1.992-1.395 1.992-1.395 5.953zm19.924-12.984h6.375l.211 2.93q2.719-3.4 7.29-3.4 4.03 0 6 2.368 1.968 2.367 2.015 7.078V141h-6.774v-16.219q0-2.156-.937-3.129-.938-.972-3.117-.972-2.86 0-4.29 2.437V141h-6.773v-25.36zm32.627 0V141h-6.797v-25.36h6.797zm-7.195-6.563q0-1.523 1.02-2.508 1.019-.984 2.777-.984 1.734 0 2.765.984 1.031.985 1.031 2.508 0 1.547-1.042 2.531-1.043.985-2.754.985t-2.754-.985q-1.043-.984-1.043-2.53zm11.088 6.563h6.375l.21 2.93q2.72-3.4 7.29-3.4 4.03 0 6 2.368 1.968 2.367 2.015 7.078V141h-6.773v-16.219q0-2.156-.938-3.129-.937-.972-3.117-.972-2.86 0-4.289 2.437V141h-6.773v-25.36zm24.494 12.773v-.281q0-5.836 2.777-9.399 2.777-3.562 7.488-3.562 4.172 0 6.492 2.86l.282-2.391h6.14v24.515q0 3.328-1.511 5.79-1.512 2.46-4.254 3.75-2.743 1.288-6.422 1.288-2.79 0-5.438-1.113-2.648-1.113-4.008-2.871l3-4.125q2.532 2.836 6.141 2.836 2.695 0 4.195-1.441 1.5-1.442 1.5-4.09v-1.36q-2.343 2.649-6.164 2.649-4.57 0-7.394-3.574-2.824-3.575-2.824-9.48zm6.773.211q0 3.445 1.383 5.402 1.383 1.957 3.797 1.957 3.094 0 4.43-2.32V123q-1.36-2.32-4.383-2.32-2.438 0-3.832 1.992-1.395 1.992-1.395 5.953zm42.144 12.844q-5.578 0-9.082-3.422-3.503-3.422-3.503-9.117v-.657q0-3.82 1.476-6.832 1.477-3.011 4.184-4.64 2.707-1.63 6.175-1.63 5.204 0 8.192 3.282 2.988 3.281 2.988 9.305v2.765H291.73q.328 2.485 1.98 3.985 1.653 1.5 4.184 1.5 3.914 0 6.117-2.836l3.328 3.726q-1.523 2.157-4.125 3.364-2.601 1.207-5.766 1.207zm-.773-20.813q-2.016 0-3.27 1.36-1.253 1.359-1.605 3.89h9.422v-.539q-.047-2.25-1.219-3.48-1.172-1.23-3.328-1.23zm13.361-5.015h6.375l.211 2.93q2.719-3.4 7.29-3.4 4.03 0 6 2.368 1.968 2.367 2.015 7.078V141h-6.774v-16.219q0-2.156-.937-3.129-.938-.972-3.117-.972-2.86 0-4.29 2.437V141h-6.773v-25.36zm24.424 12.492q0-5.93 2.66-9.446 2.66-3.515 7.277-3.515 3.704 0 6.118 2.766V105h6.797v36h-6.118l-.328-2.695q-2.531 3.164-6.515 3.164-4.477 0-7.184-3.528-2.707-3.527-2.707-9.808zm6.773.492q0 3.563 1.243 5.46 1.242 1.9 3.609 1.9 3.14 0 4.43-2.65v-10.007q-1.266-2.648-4.383-2.648-4.899 0-4.899 7.945zm42.612-.422v.352q0 5.86-2.66 9.386-2.66 3.528-7.184 3.528-3.844 0-6.211-2.672v11.953h-6.773v-35.11h6.28l.235 2.485q2.461-2.953 6.422-2.953 4.688 0 7.29 3.469 2.6 3.468 2.6 9.562zm-6.774-.14q0-3.54-1.254-5.461-1.254-1.922-3.644-1.922-3.188 0-4.383 2.437V133.5q1.242 2.508 4.43 2.508 4.851 0 4.851-7.946zm8.37.328v-.305q0-3.774 1.452-6.727 1.454-2.953 4.184-4.57 2.73-1.617 6.34-1.617 5.133 0 8.379 3.14 3.246 3.141 3.62 8.532l.048 1.734q0 5.836-3.258 9.363-3.258 3.528-8.742 3.528-5.485 0-8.754-3.516-3.27-3.516-3.27-9.562zm6.773.187q0 3.61 1.36 5.52 1.358 1.91 3.89 1.91 2.46 0 3.844-1.887 1.382-1.887 1.382-6.035 0-3.54-1.382-5.484-1.383-1.946-3.891-1.946-2.484 0-3.844 1.934-1.36 1.933-1.36 5.988zm27.025-12.937V141h-6.797v-25.36h6.797zm-7.195-6.563q0-1.523 1.02-2.508 1.019-.984 2.777-.984 1.734 0 2.765.984 1.031.985 1.031 2.508 0 1.547-1.042 2.531-1.043.985-2.754.985t-2.754-.985q-1.043-.984-1.043-2.53zm11.088 6.563h6.375l.21 2.93q2.72-3.4 7.29-3.4 4.03 0 6 2.368 1.968 2.367 2.015 7.078V141h-6.773v-16.219q0-2.156-.938-3.129-.937-.972-3.117-.972-2.86 0-4.289 2.437V141h-6.773v-25.36zm26.814-6.235h6.773v6.235h4.336v4.968h-4.336v12.657q0 1.406.54 2.015.538.61 2.062.61 1.125 0 1.992-.164v5.132q-1.992.61-4.101.61-7.125 0-7.266-7.196V120.61h-3.703v-4.968h3.703v-6.235zm27.072 24.586q0-1.242-1.23-1.957-1.23-.715-3.95-1.277-9.046-1.899-9.046-7.688 0-3.375 2.8-5.636 2.801-2.262 7.325-2.262 4.828 0 7.722 2.273 2.895 2.274 2.895 5.907h-6.774q0-1.454-.937-2.403-.938-.949-2.93-.949-1.71 0-2.648.773-.938.774-.938 1.97 0 1.124 1.067 1.816 1.066.691 3.597 1.195 2.531.504 4.266 1.137 5.367 1.968 5.367 6.82 0 3.469-2.976 5.613-2.977 2.145-7.688 2.145-3.188 0-5.66-1.137-2.473-1.137-3.88-3.117-1.405-1.98-1.405-4.278h6.422q.093 1.805 1.336 2.766 1.242.961 3.328.961 1.945 0 2.941-.738.996-.738.996-1.934zm-368.08 168.952V372H95.25v-52.763l-16.34 5.068v-11.13l28.56-10.23h1.468zm20.582 62.33q0-3.268 2.202-5.304 2.202-2.037 5.518-2.037 3.363 0 5.565 2.037 2.202 2.036 2.202 5.304 0 3.221-2.178 5.234-2.179 2.013-5.59 2.013-3.362 0-5.54-2.013-2.18-2.013-2.18-5.234zm77.015-11.509h11.279q-.64 8.836-6.523 13.911-5.884 5.076-15.51 5.076-10.527 0-16.561-7.087-6.035-7.087-6.035-19.457v-3.346q0-7.896 2.783-13.911 2.782-6.016 7.952-9.23 5.17-3.215 12.012-3.215 9.475 0 15.265 5.076 5.79 5.075 6.692 14.25h-11.28q-.413-5.302-2.95-7.69-2.539-2.387-7.727-2.387-5.64 0-8.44 4.042-2.802 4.041-2.877 12.538v4.136q0 8.873 2.688 12.971 2.689 4.099 8.479 4.099 5.226 0 7.801-2.388 2.576-2.387 2.952-7.388zm13.18-1.993v-.488q0-6.054 2.33-10.79 2.331-4.738 6.712-7.332 4.38-2.595 10.17-2.595 8.234 0 13.44 5.038 5.208 5.039 5.81 13.686l.075 2.782q0 9.362-5.226 15.02-5.226 5.659-14.024 5.659-8.798 0-14.043-5.64-5.245-5.64-5.245-15.34zm10.865.301q0 5.79 2.18 8.854 2.181 3.065 6.242 3.065 3.948 0 6.166-3.027 2.218-3.027 2.218-9.681 0-5.678-2.218-8.798t-6.241-3.12q-3.986 0-6.166 3.101-2.181 3.102-2.181 9.606zm31.039-20.754h10.226l.339 4.7q4.361-5.452 11.693-5.452 6.466 0 9.625 3.798 3.158 3.797 3.233 11.354V372h-10.866v-26.018q0-3.459-1.504-5.019t-5-1.56q-4.587 0-6.88 3.91V372h-10.866v-40.68zm42.393-10h10.866v10h6.955v7.971h-6.955v20.303q0 2.256.864 3.233.865.978 3.309.978 1.805 0 3.196-.263v8.233q-3.196.978-6.58.978-11.43 0-11.655-11.543V339.29h-5.94v-7.97h5.94v-10.002zM359.339 372H348.36q-.752-1.466-1.09-3.647-3.948 4.399-10.264 4.399-5.978 0-9.907-3.459-3.93-3.459-3.93-8.723 0-6.466 4.794-9.925 4.794-3.46 13.855-3.497h5v-2.331q0-2.82-1.447-4.512-1.447-1.692-4.568-1.692-2.745 0-4.305 1.316-1.56 1.316-1.56 3.61h-10.866q0-3.535 2.18-6.542 2.181-3.008 6.167-4.719 3.985-1.71 8.948-1.71 7.52 0 11.937 3.778 4.418 3.779 4.418 10.621v17.634q.038 5.79 1.617 8.76V372zm-19.965-7.557q2.407 0 4.437-1.072 2.03-1.071 3.008-2.876v-6.993h-4.06q-8.16 0-8.686 5.64l-.038.639q0 2.03 1.43 3.346 1.428 1.316 3.91 1.316zm35.062-33.124V372h-10.903v-40.68h10.903zm-11.543-10.527q0-2.444 1.636-4.023 1.635-1.58 4.455-1.58 2.782 0 4.437 1.58 1.654 1.58 1.654 4.023 0 2.481-1.673 4.06-1.673 1.58-4.418 1.58-2.744 0-4.417-1.58-1.674-1.579-1.674-4.06zm17.166 10.527h10.226l.338 4.7q4.362-5.452 11.693-5.452 6.467 0 9.625 3.798 3.159 3.797 3.234 11.354V372h-10.866v-26.018q0-3.459-1.504-5.019t-5-1.56q-4.587 0-6.88 3.91V372h-10.866v-40.68zm58.973 41.433q-8.948 0-14.569-5.49-5.62-5.489-5.62-14.625v-1.053q0-6.128 2.368-10.96 2.369-4.83 6.711-7.444 4.343-2.613 9.907-2.613 8.347 0 13.14 5.264 4.794 5.264 4.794 14.926v4.437h-25.905q.527 3.985 3.177 6.391 2.651 2.407 6.712 2.407 6.278 0 9.813-4.55l5.338 5.978q-2.443 3.46-6.617 5.396-4.173 1.936-9.249 1.936zm-1.24-33.387q-3.234 0-5.245 2.18-2.012 2.182-2.576 6.242h15.114v-.865q-.075-3.609-1.955-5.583-1.88-1.974-5.338-1.974zm44.047-8.309l-.15 10.452q-2.219-.3-3.91-.3-6.167 0-8.084 4.173V372h-10.866v-40.68h10.264l.301 4.85q3.271-5.603 9.061-5.603 1.805 0 3.384.49zM531.133 372l-10.264-20.04h-8.986V372h-11.28v-54.742h20.341q9.7 0 14.964 4.324 5.264 4.323 5.264 12.219 0 5.602-2.425 9.343-2.425 3.74-7.35 5.959l11.843 22.37V372h-12.107zm-19.25-45.606v16.43h9.099q4.248 0 6.58-2.162 2.33-2.162 2.33-5.959 0-3.872-2.199-6.09-2.2-2.219-6.749-2.219h-9.06zM570.593 372l-.3-4.136q-4.023 4.888-11.129 4.888-6.542 0-9.982-3.76-3.44-3.76-3.516-11.016V331.32h10.866v26.28q0 6.354 5.79 6.354 5.527 0 7.595-3.835v-28.8h10.903V372h-10.226zm15.098-40.68h10.227l.338 4.699q4.361-5.452 11.693-5.452 6.467 0 9.625 3.798 3.158 3.797 3.233 11.354V372h-10.866v-26.018q0-3.459-1.503-5.019-1.504-1.56-5-1.56-4.588 0-6.881 3.91V372H585.69v-40.68zm42.393-10.002h10.866v10.001h6.955v7.971h-6.955v20.303q0 2.256.865 3.233.864.978 3.308.978 1.805 0 3.196-.263v8.233q-3.196.978-6.58.978-11.43 0-11.655-11.543V339.29h-5.94v-7.97h5.94v-10.002zm32.242 10.001V372h-10.903v-40.68h10.903zm-11.543-10.527q0-2.444 1.636-4.023 1.635-1.58 4.455-1.58 2.782 0 4.437 1.58 1.654 1.58 1.654 4.023 0 2.481-1.673 4.06-1.673 1.58-4.418 1.58-2.744 0-4.417-1.58-1.674-1.579-1.674-4.06zm17.391 10.527h10.19l.338 4.55q4.323-5.302 11.692-5.302 7.858 0 10.79 6.204 4.287-6.204 12.22-6.204 6.617 0 9.85 3.854 3.234 3.854 3.234 11.599V372h-10.903v-25.942q0-3.46-1.354-5.057-1.353-1.598-4.775-1.598-4.887 0-6.767 4.662l.037 27.935h-10.865v-25.905q0-3.534-1.391-5.113-1.392-1.58-4.738-1.58-4.624 0-6.692 3.836V372h-10.866v-40.68zm82.284 41.433q-8.948 0-14.569-5.49-5.62-5.489-5.62-14.625v-1.053q0-6.128 2.368-10.96 2.369-4.83 6.711-7.444 4.343-2.613 9.907-2.613 8.347 0 13.14 5.264 4.794 5.264 4.794 14.926v4.437h-25.904q.526 3.985 3.177 6.391 2.65 2.407 6.71 2.407 6.28 0 9.814-4.55l5.339 5.978q-2.444 3.46-6.618 5.396-4.173 1.936-9.249 1.936zm-1.24-33.387q-3.234 0-5.245 2.18-2.012 2.182-2.576 6.242h15.115v-.865q-.076-3.609-1.955-5.583-1.88-1.974-5.34-1.974zm49.82-22.107V372h-11.28v-54.742h11.28zm6.412 14.061h10.227l.338 4.7q4.362-5.452 11.693-5.452 6.467 0 9.625 3.798 3.158 3.797 3.234 11.354V372H827.7v-26.018q0-3.459-1.504-5.019t-5-1.56q-4.587 0-6.88 3.91V372H803.45v-40.68zm42.394-10h10.865v10h6.956v7.971h-6.956v20.303q0 2.256.865 3.233.865.978 3.309.978 1.804 0 3.195-.263v8.233q-3.195.978-6.58.978-11.429 0-11.654-11.543V339.29h-5.94v-7.97h5.94v-10.002zm39.498 51.433q-8.948 0-14.57-5.49-5.62-5.489-5.62-14.625v-1.053q0-6.128 2.368-10.96 2.37-4.83 6.712-7.444 4.342-2.613 9.907-2.613 8.346 0 13.14 5.264 4.794 5.264 4.794 14.926v4.437h-25.905q.526 3.985 3.177 6.391 2.65 2.407 6.711 2.407 6.279 0 9.813-4.55l5.339 5.978q-2.444 3.46-6.617 5.396-4.174 1.936-9.25 1.936zm-1.241-33.387q-3.233 0-5.245 2.18-2.011 2.182-2.575 6.242h15.114v-.865q-.075-3.609-1.955-5.583-1.88-1.974-5.339-1.974zm44.047-8.309l-.15 10.452q-2.218-.3-3.91-.3-6.166 0-8.084 4.173V372H905.14v-40.68h10.264l.3 4.85q3.272-5.603 9.062-5.603 1.804 0 3.383.49zM944.75 372h-10.904v-32.71h-6.053v-7.97h6.053v-3.46q0-6.842 3.93-10.621 3.928-3.779 10.997-3.779 2.255 0 5.526.752l-.112 8.422q-1.354-.338-3.309-.338-6.128 0-6.128 5.752v3.271h8.083v7.971h-8.083V372zm45.175 0h-10.978q-.752-1.466-1.09-3.647-3.949 4.399-10.265 4.399-5.978 0-9.907-3.459-3.929-3.459-3.929-8.723 0-6.466 4.794-9.925 4.794-3.46 13.855-3.497h5v-2.331q0-2.82-1.447-4.512-1.448-1.692-4.569-1.692-2.744 0-4.305 1.316-1.56 1.316-1.56 3.61h-10.866q0-3.535 2.181-6.542 2.18-3.008 6.166-4.719 3.985-1.71 8.948-1.71 7.52 0 11.938 3.778 4.417 3.779 4.417 10.621v17.634q.038 5.79 1.617 8.76V372zm-19.964-7.557q2.406 0 4.436-1.072 2.03-1.071 3.008-2.876v-6.993h-4.06q-8.16 0-8.686 5.64l-.037.639q0 2.03 1.429 3.346 1.428 1.316 3.91 1.316zm40.513-.451q3.008 0 4.888-1.655 1.88-1.654 1.955-4.399h10.189q-.038 4.136-2.256 7.576-2.218 3.44-6.072 5.34-3.854 1.898-8.516 1.898-8.723 0-13.76-5.546-5.039-5.545-5.039-15.32v-.715q0-9.4 5-15.002 5.001-5.602 13.724-5.602 7.632 0 12.238 4.343 4.606 4.342 4.68 11.561h-10.188q-.075-3.158-1.955-5.132-1.88-1.974-4.963-1.974-3.798 0-5.734 2.764-1.936 2.763-1.936 8.967v1.128q0 6.278 1.917 9.023 1.918 2.745 5.828 2.745zm38.859 8.76q-8.948 0-14.57-5.49-5.62-5.489-5.62-14.625v-1.053q0-6.128 2.369-10.96 2.368-4.83 6.71-7.444 4.343-2.613 9.908-2.613 8.347 0 13.14 5.264 4.794 5.264 4.794 14.926v4.437h-25.905q.526 3.985 3.177 6.391 2.65 2.407 6.711 2.407 6.28 0 9.813-4.55l5.34 5.978q-2.445 3.46-6.618 5.396t-9.249 1.936zm-1.24-33.387q-3.234 0-5.246 2.18-2.011 2.182-2.575 6.242h15.114v-.865q-.075-3.609-1.955-5.583-1.88-1.974-5.339-1.974zM122.958 480.964V492H75.689v-9.378l22.308-23.776q4.594-5.02 6.797-8.763 2.202-3.741 2.202-7.104 0-4.594-2.32-7.223-2.322-2.629-6.632-2.629-4.641 0-7.317 3.197t-2.676 8.407H74.315q0-6.299 3.008-11.509t8.502-8.17q5.494-2.96 12.456-2.96 10.657 0 16.554 5.115 5.896 5.115 5.896 14.446 0 5.115-2.652 10.42-2.652 5.304-9.094 12.362l-15.677 16.53h29.65zm6.562 4.31q0-3.268 2.202-5.304 2.202-2.037 5.518-2.037 3.363 0 5.565 2.037 2.202 2.036 2.202 5.304 0 3.221-2.178 5.234-2.179 2.013-5.59 2.013-3.362 0-5.54-2.013-2.18-2.013-2.18-5.234zm77.015-11.509h11.279q-.64 8.836-6.523 13.911-5.884 5.076-15.51 5.076-10.527 0-16.561-7.087-6.035-7.087-6.035-19.457v-3.346q0-7.896 2.783-13.911 2.782-6.016 7.952-9.23 5.17-3.215 12.012-3.215 9.475 0 15.265 5.076 5.79 5.075 6.692 14.25h-11.28q-.413-5.302-2.95-7.69-2.539-2.387-7.727-2.387-5.64 0-8.44 4.042-2.802 4.041-2.877 12.538v4.136q0 8.873 2.688 12.971 2.689 4.099 8.479 4.099 5.226 0 7.801-2.388 2.576-2.387 2.952-7.388zm13.18-1.993v-.488q0-6.054 2.33-10.79 2.331-4.738 6.712-7.332 4.38-2.595 10.17-2.595 8.234 0 13.44 5.038 5.208 5.039 5.81 13.686l.075 2.782q0 9.362-5.226 15.02-5.226 5.659-14.024 5.659-8.798 0-14.043-5.64-5.245-5.64-5.245-15.34zm10.865.301q0 5.79 2.18 8.854 2.181 3.065 6.242 3.065 3.948 0 6.166-3.027 2.218-3.027 2.218-9.681 0-5.678-2.218-8.798t-6.241-3.12q-3.986 0-6.166 3.101-2.181 3.102-2.181 9.606zm31.039-20.754h10.226l.339 4.7q4.361-5.452 11.693-5.452 6.466 0 9.625 3.798 3.158 3.797 3.233 11.354V492h-10.866v-26.018q0-3.459-1.504-5.019t-5-1.56q-4.587 0-6.88 3.91V492h-10.866v-40.68zm42.393-10h10.866v10h6.955v7.971h-6.955v20.303q0 2.256.864 3.233.865.978 3.309.978 1.805 0 3.196-.263v8.233q-3.196.978-6.58.978-11.43 0-11.655-11.543V459.29h-5.94v-7.97h5.94v-10.002zM359.339 492H348.36q-.752-1.466-1.09-3.647-3.948 4.399-10.264 4.399-5.978 0-9.907-3.459-3.93-3.459-3.93-8.723 0-6.466 4.794-9.925 4.794-3.46 13.855-3.497h5v-2.331q0-2.82-1.447-4.512-1.447-1.692-4.568-1.692-2.745 0-4.305 1.316-1.56 1.316-1.56 3.61h-10.866q0-3.535 2.18-6.542 2.181-3.008 6.167-4.719 3.985-1.71 8.948-1.71 7.52 0 11.937 3.778 4.418 3.779 4.418 10.621v17.634q.038 5.79 1.617 8.76V492zm-19.965-7.557q2.407 0 4.437-1.072 2.03-1.071 3.008-2.876v-6.993h-4.06q-8.16 0-8.686 5.64l-.038.639q0 2.03 1.43 3.346 1.428 1.316 3.91 1.316zm35.062-33.124V492h-10.903v-40.68h10.903zm-11.543-10.527q0-2.444 1.636-4.023 1.635-1.58 4.455-1.58 2.782 0 4.437 1.58 1.654 1.58 1.654 4.023 0 2.481-1.673 4.06-1.673 1.58-4.418 1.58-2.744 0-4.417-1.58-1.674-1.579-1.674-4.06zm17.166 10.527h10.226l.338 4.7q4.362-5.452 11.693-5.452 6.467 0 9.625 3.798 3.159 3.797 3.234 11.354V492h-10.866v-26.018q0-3.459-1.504-5.019t-5-1.56q-4.587 0-6.88 3.91V492h-10.866v-40.68zm58.973 41.433q-8.948 0-14.569-5.49-5.62-5.489-5.62-14.625v-1.053q0-6.128 2.368-10.96 2.369-4.83 6.711-7.444 4.343-2.613 9.907-2.613 8.347 0 13.14 5.264 4.794 5.264 4.794 14.926v4.437h-25.905q.527 3.985 3.177 6.391 2.651 2.407 6.712 2.407 6.278 0 9.813-4.55l5.338 5.978q-2.443 3.46-6.617 5.396-4.173 1.936-9.249 1.936zm-1.24-33.387q-3.234 0-5.245 2.18-2.012 2.182-2.576 6.242h15.114v-.865q-.075-3.609-1.955-5.583-1.88-1.974-5.338-1.974zm44.047-8.309l-.15 10.452q-2.219-.3-3.91-.3-6.167 0-8.084 4.173V492h-10.866v-40.68h10.264l.301 4.85q3.271-5.603 9.061-5.603 1.805 0 3.384.49zm63.28-13.798V492H533.84l-21.957-36.019V492h-11.28v-54.742h11.28l21.995 36.094v-36.094h11.241zm24.76 55.494q-8.948 0-14.569-5.49-5.62-5.489-5.62-14.625v-1.053q0-6.128 2.368-10.96 2.369-4.83 6.711-7.444 4.343-2.613 9.907-2.613 8.347 0 13.14 5.264 4.794 5.264 4.794 14.926v4.437h-25.904q.526 3.985 3.177 6.391 2.65 2.407 6.71 2.407 6.28 0 9.814-4.55l5.339 5.978q-2.444 3.46-6.618 5.396-4.173 1.936-9.249 1.936zm-1.24-33.387q-3.234 0-5.245 2.18-2.012 2.182-2.576 6.242h15.115v-.865q-.076-3.609-1.956-5.583-1.88-1.974-5.338-1.974zm23.18-18.047h10.866v10.001h6.956v7.971h-6.956v20.303q0 2.256.865 3.233.865.978 3.308.978 1.805 0 3.196-.263v8.233q-3.196.978-6.58.978-11.429 0-11.655-11.543V459.29h-5.94v-7.97h5.94v-10.002zm48.748 10.001l7.406 25.905 5.34-25.905h10.489L653.425 492h-9.099l-7.707-25.604L628.91 492h-9.06l-10.378-40.68h10.49l5.301 25.867 7.445-25.868h7.858zm23.82 20.453v-.488q0-6.054 2.33-10.79 2.332-4.738 6.712-7.332 4.38-2.595 10.17-2.595 8.234 0 13.441 5.038 5.207 5.039 5.809 13.686l.075 2.782q0 9.362-5.226 15.02-5.226 5.659-14.024 5.659-8.798 0-14.043-5.64-5.245-5.64-5.245-15.34zm10.865.301q0 5.79 2.18 8.854 2.182 3.065 6.242 3.065 3.948 0 6.166-3.027 2.218-3.027 2.218-9.681 0-5.678-2.218-8.798t-6.241-3.12q-3.985 0-6.166 3.101-2.18 3.102-2.18 9.606zm54.274-21.017l-.15 10.452q-2.218-.3-3.91-.3-6.166 0-8.084 4.173V492h-10.866v-40.68h10.265l.3 4.85q3.271-5.603 9.061-5.603 1.805 0 3.384.49zM756.73 492l-10.452-16.317-3.91 3.91V492h-10.866v-57.75h10.866v31.996l2.105-2.707 10.415-12.22h13.046l-14.7 16.957L769.211 492H756.73zm41.587-54.742V492h-11.28v-54.742h11.28zm6.412 14.061h10.226l.339 4.7q4.361-5.452 11.693-5.452 6.466 0 9.625 3.798 3.158 3.797 3.233 11.354V492h-10.866v-26.018q0-3.459-1.504-5.019t-5-1.56q-4.587 0-6.88 3.91V492h-10.866v-40.68zm42.393-10h10.866v10h6.955v7.971h-6.955v20.303q0 2.256.864 3.233.865.978 3.309.978 1.805 0 3.196-.263v8.233q-3.196.978-6.58.978-11.43 0-11.655-11.543V459.29h-5.94v-7.97h5.94v-10.002zm39.498 51.433q-8.948 0-14.569-5.49-5.62-5.489-5.62-14.625v-1.053q0-6.128 2.368-10.96 2.368-4.83 6.711-7.444 4.342-2.613 9.907-2.613 8.347 0 13.14 5.264 4.794 5.264 4.794 14.926v4.437h-25.905q.527 3.985 3.177 6.391 2.65 2.407 6.711 2.407 6.28 0 9.813-4.55l5.34 5.978q-2.445 3.46-6.618 5.396t-9.249 1.936zm-1.24-33.387q-3.234 0-5.246 2.18-2.011 2.182-2.575 6.242h15.114v-.865q-.075-3.609-1.955-5.583-1.88-1.974-5.339-1.974zm44.047-8.309l-.15 10.452q-2.219-.3-3.91-.3-6.167 0-8.084 4.173V492h-10.866v-40.68h10.264l.301 4.85q3.271-5.603 9.061-5.603 1.805 0 3.384.49zM946.028 492h-10.903v-32.71h-6.054v-7.97h6.054v-3.46q0-6.842 3.929-10.621 3.929-3.779 10.997-3.779 2.256 0 5.527.752l-.113 8.422q-1.354-.338-3.309-.338-6.128 0-6.128 5.752v3.271h8.083v7.971h-8.083V492zm45.175 0h-10.978q-.752-1.466-1.09-3.647-3.948 4.399-10.265 4.399-5.978 0-9.907-3.459-3.929-3.459-3.929-8.723 0-6.466 4.794-9.925 4.794-3.46 13.855-3.497h5v-2.331q0-2.82-1.447-4.512-1.448-1.692-4.568-1.692-2.745 0-4.305 1.316-1.56 1.316-1.56 3.61h-10.866q0-3.535 2.18-6.542 2.181-3.008 6.166-4.719 3.986-1.71 8.949-1.71 7.52 0 11.937 3.778 4.418 3.779 4.418 10.621v17.634q.037 5.79 1.616 8.76V492zm-19.964-7.557q2.406 0 4.437-1.072 2.03-1.071 3.007-2.876v-6.993h-4.06q-8.159 0-8.685 5.64l-.038.639q0 2.03 1.429 3.346 1.429 1.316 3.91 1.316zm40.513-.451q3.008 0 4.888-1.655 1.88-1.654 1.955-4.399h10.189q-.038 4.136-2.256 7.576-2.218 3.44-6.072 5.34-3.854 1.898-8.516 1.898-8.722 0-13.76-5.546-5.039-5.545-5.039-15.32v-.715q0-9.4 5-15.002 5.001-5.602 13.724-5.602 7.632 0 12.238 4.343 4.606 4.342 4.681 11.561h-10.189q-.075-3.158-1.955-5.132-1.88-1.974-4.963-1.974-3.797 0-5.734 2.764-1.936 2.763-1.936 8.967v1.128q0 6.278 1.918 9.023 1.917 2.745 5.827 2.745zm38.86 8.76q-8.949 0-14.57-5.49-5.62-5.489-5.62-14.625v-1.053q0-6.128 2.368-10.96 2.369-4.83 6.711-7.444 4.343-2.613 9.907-2.613 8.347 0 13.14 5.264 4.794 5.264 4.794 14.926v4.437h-25.905q.527 3.985 3.177 6.391 2.651 2.407 6.712 2.407 6.278 0 9.813-4.55l5.338 5.978q-2.443 3.46-6.617 5.396-4.173 1.936-9.249 1.936zm-1.241-33.387q-3.234 0-5.245 2.18-2.012 2.182-2.576 6.242h15.115v-.865q-.076-3.609-1.956-5.583-1.88-1.974-5.338-1.974zM89.614 582.161v-10.704h7.294q5.21 0 7.72-2.605t2.51-6.915q0-4.168-2.486-6.489-2.487-2.32-6.844-2.32-3.932 0-6.584 2.154-2.652 2.155-2.652 5.613H74.884q0-5.4 2.913-9.686 2.912-4.286 8.146-6.702 5.234-2.415 11.533-2.415 10.941 0 17.146 5.233 6.204 5.234 6.204 14.423 0 4.736-2.889 8.714-2.89 3.979-7.578 6.11 5.826 2.084 8.691 6.252 2.866 4.168 2.866 9.852 0 9.188-6.702 14.73-6.702 5.541-17.738 5.541-10.325 0-16.885-5.447-6.56-5.446-6.56-14.398H87.72q0 3.884 2.913 6.347 2.913 2.463 7.176 2.463 4.878 0 7.649-2.582 2.77-2.581 2.77-6.844 0-10.325-11.367-10.325h-7.246zm39.906 23.113q0-3.268 2.202-5.304 2.202-2.037 5.518-2.037 3.363 0 5.565 2.037 2.202 2.036 2.202 5.304 0 3.221-2.178 5.234-2.179 2.013-5.59 2.013-3.362 0-5.54-2.013-2.18-2.013-2.18-5.234zm77.015-11.509h11.279q-.64 8.836-6.523 13.911-5.884 5.076-15.51 5.076-10.527 0-16.561-7.087-6.035-7.087-6.035-19.457v-3.346q0-7.896 2.783-13.911 2.782-6.016 7.952-9.23 5.17-3.215 12.012-3.215 9.475 0 15.265 5.076 5.79 5.075 6.692 14.25h-11.28q-.413-5.302-2.95-7.69-2.539-2.387-7.727-2.387-5.64 0-8.44 4.042-2.802 4.041-2.877 12.538v4.136q0 8.873 2.688 12.971 2.689 4.099 8.479 4.099 5.226 0 7.801-2.388 2.576-2.387 2.952-7.388zm13.18-1.993v-.488q0-6.054 2.33-10.79 2.331-4.738 6.712-7.332 4.38-2.595 10.17-2.595 8.234 0 13.44 5.038 5.208 5.039 5.81 13.686l.075 2.782q0 9.362-5.226 15.02-5.226 5.659-14.024 5.659-8.798 0-14.043-5.64-5.245-5.64-5.245-15.34zm10.865.301q0 5.79 2.18 8.854 2.181 3.065 6.242 3.065 3.948 0 6.166-3.027 2.218-3.027 2.218-9.681 0-5.678-2.218-8.798t-6.241-3.12q-3.986 0-6.166 3.101-2.181 3.102-2.181 9.606zm31.039-20.754h10.226l.339 4.7q4.361-5.452 11.693-5.452 6.466 0 9.625 3.798 3.158 3.797 3.233 11.354V612h-10.866v-26.018q0-3.459-1.504-5.019t-5-1.56q-4.587 0-6.88 3.91V612h-10.866v-40.68zm42.393-10h10.866v10h6.955v7.971h-6.955v20.303q0 2.256.864 3.233.865.978 3.309.978 1.805 0 3.196-.263v8.233q-3.196.978-6.58.978-11.43 0-11.655-11.543V579.29h-5.94v-7.97h5.94v-10.002zM359.339 612H348.36q-.752-1.466-1.09-3.647-3.948 4.399-10.264 4.399-5.978 0-9.907-3.459-3.93-3.459-3.93-8.723 0-6.466 4.794-9.925 4.794-3.46 13.855-3.497h5v-2.331q0-2.82-1.447-4.512-1.447-1.692-4.568-1.692-2.745 0-4.305 1.316-1.56 1.316-1.56 3.61h-10.866q0-3.535 2.18-6.542 2.181-3.008 6.167-4.719 3.985-1.71 8.948-1.71 7.52 0 11.937 3.778 4.418 3.779 4.418 10.621v17.634q.038 5.79 1.617 8.76V612zm-19.965-7.557q2.407 0 4.437-1.072 2.03-1.071 3.008-2.876v-6.993h-4.06q-8.16 0-8.686 5.64l-.038.639q0 2.03 1.43 3.346 1.428 1.316 3.91 1.316zm35.062-33.124V612h-10.903v-40.68h10.903zm-11.543-10.527q0-2.444 1.636-4.023 1.635-1.58 4.455-1.58 2.782 0 4.437 1.58 1.654 1.58 1.654 4.023 0 2.481-1.673 4.06-1.673 1.58-4.418 1.58-2.744 0-4.417-1.58-1.674-1.579-1.674-4.06zm17.166 10.527h10.226l.338 4.7q4.362-5.452 11.693-5.452 6.467 0 9.625 3.798 3.159 3.797 3.234 11.354V612h-10.866v-26.018q0-3.459-1.504-5.019t-5-1.56q-4.587 0-6.88 3.91V612h-10.866v-40.68zm58.973 41.433q-8.948 0-14.569-5.49-5.62-5.489-5.62-14.625v-1.053q0-6.128 2.368-10.96 2.369-4.83 6.711-7.444 4.343-2.613 9.907-2.613 8.347 0 13.14 5.264 4.794 5.264 4.794 14.926v4.437h-25.905q.527 3.985 3.177 6.391 2.651 2.407 6.712 2.407 6.278 0 9.813-4.55l5.338 5.978q-2.443 3.46-6.617 5.396-4.173 1.936-9.249 1.936zm-1.24-33.387q-3.234 0-5.245 2.18-2.012 2.182-2.576 6.242h15.114v-.865q-.075-3.609-1.955-5.583-1.88-1.974-5.338-1.974zm44.047-8.309l-.15 10.452q-2.219-.3-3.91-.3-6.167 0-8.084 4.173V612h-10.866v-40.68h10.264l.301 4.85q3.271-5.603 9.061-5.603 1.805 0 3.384.49zm47.151 26.582q0-3.196-2.256-4.907-2.256-1.71-8.12-3.61-5.866-1.898-9.287-3.74-9.325-5.038-9.325-13.573 0-4.436 2.5-7.914 2.5-3.478 7.182-5.433 4.68-1.955 10.508-1.955 5.865 0 10.452 2.124t7.125 5.997q2.538 3.873 2.538 8.798h-11.28q0-3.76-2.368-5.847-2.369-2.086-6.655-2.086-4.135 0-6.429 1.748-2.293 1.748-2.293 4.606 0 2.67 2.688 4.474 2.688 1.805 7.914 3.384 9.625 2.895 14.024 7.18 4.399 4.287 4.399 10.678 0 7.106-5.376 11.148-5.377 4.042-14.476 4.042-6.316 0-11.504-2.312-5.189-2.313-7.915-6.336-2.726-4.022-2.726-9.324h11.317q0 9.061 10.828 9.061 4.023 0 6.28-1.635 2.255-1.636 2.255-4.568zm17.278-36.32h10.866v10.001h6.955v7.971h-6.955v20.303q0 2.256.864 3.233.865.978 3.31.978 1.804 0 3.195-.263v8.233q-3.196.978-6.58.978-11.43 0-11.655-11.543V579.29h-5.94v-7.97h5.94v-10.002zm17.955 30.454v-.488q0-6.054 2.33-10.79 2.332-4.738 6.712-7.332 4.38-2.595 10.17-2.595 8.234 0 13.441 5.038 5.208 5.039 5.81 13.686l.074 2.782q0 9.362-5.226 15.02-5.226 5.659-14.024 5.659-8.798 0-14.042-5.64-5.245-5.64-5.245-15.34zm10.865.301q0 5.79 2.181 8.854 2.18 3.065 6.241 3.065 3.948 0 6.166-3.027 2.219-3.027 2.219-9.681 0-5.678-2.219-8.798-2.218-3.12-6.24-3.12-3.986 0-6.167 3.101-2.18 3.102-2.18 9.606zm54.274-21.017l-.15 10.452q-2.218-.3-3.91-.3-6.166 0-8.084 4.173V612h-10.865v-40.68h10.264l.3 4.85q3.272-5.603 9.062-5.603 1.804 0 3.383.49zm35.4 40.944h-10.978q-.752-1.466-1.09-3.647-3.948 4.399-10.265 4.399-5.978 0-9.907-3.459-3.928-3.459-3.928-8.723 0-6.466 4.793-9.925 4.794-3.46 13.855-3.497h5v-2.331q0-2.82-1.447-4.512-1.448-1.692-4.568-1.692-2.745 0-4.305 1.316-1.56 1.316-1.56 3.61h-10.866q0-3.535 2.18-6.542 2.181-3.008 6.167-4.719 3.985-1.71 8.948-1.71 7.52 0 11.937 3.778 4.418 3.779 4.418 10.621v17.634q.037 5.79 1.616 8.76V612zm-19.964-7.557q2.406 0 4.437-1.072 2.03-1.071 3.007-2.876v-6.993h-4.06q-8.159 0-8.685 5.64l-.038.639q0 2.03 1.429 3.346 1.429 1.316 3.91 1.316zm22.015-12.633v-.451q0-9.362 4.456-15.077 4.455-5.715 12.012-5.715 6.692 0 10.415 4.587l.45-3.835h9.851v39.327q0 5.34-2.425 9.287-2.425 3.948-6.824 6.016t-10.301 2.068q-4.474 0-8.723-1.786-4.249-1.786-6.43-4.606l4.813-6.617q4.06 4.55 9.85 4.55 4.325 0 6.73-2.313 2.407-2.312 2.407-6.56v-2.182q-3.76 4.249-9.888 4.249-7.332 0-11.862-5.734-4.53-5.733-4.53-15.208zm10.866.338q0 5.527 2.218 8.667 2.219 3.14 6.091 3.14 4.963 0 7.106-3.723v-17.107q-2.18-3.722-7.03-3.722-3.91 0-6.148 3.196-2.237 3.195-2.237 9.55zm50.289 20.604q-8.949 0-14.57-5.49-5.62-5.489-5.62-14.625v-1.053q0-6.128 2.368-10.96 2.37-4.83 6.712-7.444 4.342-2.613 9.907-2.613 8.346 0 13.14 5.264 4.794 5.264 4.794 14.926v4.437h-25.905q.526 3.985 3.177 6.391 2.65 2.407 6.711 2.407 6.279 0 9.813-4.55l5.339 5.978q-2.444 3.46-6.617 5.396-4.174 1.936-9.25 1.936zm-1.241-33.387q-3.233 0-5.245 2.18-2.011 2.182-2.575 6.242h15.114v-.865q-.075-3.609-1.955-5.583-1.88-1.974-5.339-1.974zm49.82-22.107V612h-11.279v-54.742h11.28zm6.413 14.061h10.226l.339 4.7q4.361-5.452 11.693-5.452 6.466 0 9.625 3.798 3.158 3.797 3.233 11.354V612H807.21v-26.018q0-3.459-1.504-5.019t-5-1.56q-4.587 0-6.88 3.91V612H782.96v-40.68zm42.393-10h10.866v10h6.955v7.971h-6.955v20.303q0 2.256.864 3.233.865.978 3.309.978 1.805 0 3.196-.263v8.233q-3.196.978-6.58.978-11.43 0-11.655-11.543V579.29h-5.94v-7.97h5.94v-10.002zm39.498 51.433q-8.948 0-14.57-5.49-5.62-5.489-5.62-14.625v-1.053q0-6.128 2.369-10.96 2.368-4.83 6.71-7.444 4.343-2.613 9.908-2.613 8.347 0 13.14 5.264 4.794 5.264 4.794 14.926v4.437h-25.905q.527 3.985 3.177 6.391 2.65 2.407 6.711 2.407 6.28 0 9.813-4.55l5.34 5.978q-2.445 3.46-6.618 5.396t-9.249 1.936zm-1.24-33.387q-3.234 0-5.246 2.18-2.011 2.182-2.575 6.242h15.114v-.865q-.075-3.609-1.955-5.583-1.88-1.974-5.339-1.974zm44.047-8.309l-.15 10.452q-2.219-.3-3.91-.3-6.167 0-8.084 4.173V612h-10.866v-40.68h10.264l.3 4.85q3.272-5.603 9.062-5.603 1.805 0 3.384.49zm16.6 40.944h-10.902v-32.71h-6.054v-7.97h6.054v-3.46q0-6.842 3.929-10.621 3.929-3.779 10.997-3.779 2.256 0 5.527.752l-.113 8.422q-1.354-.338-3.309-.338-6.128 0-6.128 5.752v3.271h8.083v7.971h-8.083V612zm45.176 0h-10.978q-.752-1.466-1.09-3.647-3.948 4.399-10.265 4.399-5.978 0-9.907-3.459-3.929-3.459-3.929-8.723 0-6.466 4.794-9.925 4.794-3.46 13.855-3.497h5v-2.331q0-2.82-1.447-4.512-1.448-1.692-4.568-1.692-2.745 0-4.305 1.316-1.56 1.316-1.56 3.61h-10.866q0-3.535 2.18-6.542 2.181-3.008 6.166-4.719 3.986-1.71 8.949-1.71 7.52 0 11.937 3.778 4.418 3.779 4.418 10.621v17.634q.037 5.79 1.616 8.76V612zm-19.964-7.557q2.406 0 4.436-1.072 2.03-1.071 3.008-2.876v-6.993h-4.06q-8.159 0-8.685 5.64l-.038.639q0 2.03 1.429 3.346 1.429 1.316 3.91 1.316zm40.513-.451q3.008 0 4.888-1.655 1.88-1.654 1.955-4.399h10.189q-.038 4.136-2.256 7.576-2.218 3.44-6.072 5.34-3.854 1.898-8.516 1.898-8.722 0-13.76-5.546-5.039-5.545-5.039-15.32v-.715q0-9.4 5-15.002 5.001-5.602 13.724-5.602 7.632 0 12.238 4.343 4.606 4.342 4.681 11.561h-10.189q-.075-3.158-1.955-5.132-1.88-1.974-4.963-1.974-3.797 0-5.734 2.764-1.936 2.763-1.936 8.967v1.128q0 6.278 1.918 9.023 1.917 2.745 5.827 2.745zm38.86 8.76q-8.949 0-14.57-5.49-5.62-5.489-5.62-14.625v-1.053q0-6.128 2.368-10.96 2.369-4.83 6.711-7.444 4.343-2.613 9.907-2.613 8.347 0 13.14 5.264 4.794 5.264 4.794 14.926v4.437h-25.905q.527 3.985 3.177 6.391 2.651 2.407 6.712 2.407 6.278 0 9.813-4.55l5.338 5.978q-2.443 3.46-6.617 5.396-4.173 1.936-9.249 1.936zm-1.241-33.387q-3.234 0-5.245 2.18-2.012 2.182-2.576 6.242h15.114v-.865q-.075-3.609-1.955-5.583-1.88-1.974-5.338-1.974z"></path></svg>