<svg viewBox="0 0 1200 900" xmlns="http://www.w3.org/2000/svg"><path d="M122.416 380l-4.932-14.648H91.801L86.918 380H71.342l26.465-71.094h13.574L137.992 380h-15.576zm-17.822-53.125l-8.838 26.611h17.773l-8.935-26.611zm38.432-12.695h14.112v12.988h9.033v10.352h-9.033v26.367q0 2.93 1.123 4.199 1.123 1.27 4.296 1.27 2.344 0 4.15-.342v10.693q-4.15 1.27-8.544 1.27-14.844 0-15.137-14.99V337.52h-7.715v-10.352h7.715V314.18zm31.157 0h14.112v12.988h9.033v10.352h-9.033v26.367q0 2.93 1.123 4.199 1.123 1.27 4.297 1.27 2.343 0 4.15-.342v10.693q-4.15 1.27-8.545 1.27-14.844 0-15.137-14.99V337.52h-7.715v-10.352h7.715V314.18zM247.43 380h-14.258q-.976-1.904-1.416-4.736-5.127 5.713-13.33 5.713-7.763 0-12.866-4.493-5.102-4.492-5.102-11.328 0-8.398 6.225-12.89 6.226-4.493 17.993-4.541h6.494v-3.028q0-3.662-1.88-5.86-1.88-2.196-5.932-2.196-3.565 0-5.59 1.709-2.027 1.709-2.027 4.687h-14.112q0-4.59 2.832-8.496 2.832-3.906 8.008-6.128 5.176-2.222 11.621-2.222 9.766 0 15.503 4.908 5.738 4.907 5.738 13.794v22.9q.048 7.52 2.1 11.377v.83zm-25.928-9.814q3.125 0 5.762-1.392 2.637-1.392 3.906-3.735v-9.082h-5.273q-10.596 0-11.28 7.324l-.048.83q0 2.637 1.855 4.346 1.856 1.709 5.078 1.709zm54.01-.586q3.905 0 6.347-2.149 2.441-2.148 2.539-5.713h13.232q-.049 5.371-2.93 9.84-2.88 4.467-7.885 6.933t-11.06 2.466q-11.328 0-17.87-7.203-6.544-7.202-6.544-19.897v-.928q0-12.207 6.494-19.482 6.494-7.276 17.823-7.276 9.912 0 15.893 5.64 5.982 5.64 6.08 15.015h-13.233q-.098-4.102-2.54-6.665-2.44-2.564-6.445-2.564-4.931 0-7.446 3.59-2.515 3.588-2.515 11.645v1.464q0 8.155 2.49 11.72 2.49 3.564 7.57 3.564zm41.312-64.6v27.93q5.616-6.739 14.112-6.739 17.187 0 17.431 19.971V380h-14.111v-33.447q0-4.541-1.953-6.714t-6.494-2.173q-6.201 0-8.985 4.785V380h-14.111v-75h14.111zm54.448 22.168V380h-14.16v-52.832h14.16zm-14.99-13.672q0-3.174 2.124-5.225 2.124-2.05 5.786-2.05 3.614 0 5.762 2.05 2.149 2.051 2.149 5.225 0 3.223-2.173 5.274-2.173 2.05-5.738 2.05-3.564 0-5.737-2.05-2.173-2.051-2.173-5.274zm23.687 13.672h13.28l.44 6.103q5.664-7.08 15.186-7.08 8.398 0 12.5 4.932 4.101 4.932 4.199 14.746V380h-14.111v-33.79q0-4.491-1.953-6.518-1.954-2.026-6.495-2.026-5.957 0-8.935 5.078V380h-14.111v-52.832zm51.616 26.611v-.586q0-12.158 5.786-19.58 5.786-7.422 15.6-7.422 8.692 0 13.526 5.957l.586-4.98h12.793v51.074q0 6.934-3.15 12.06-3.15 5.128-8.862 7.813-5.713 2.686-13.379 2.686-5.81 0-11.328-2.32-5.518-2.319-8.35-5.981l6.25-8.594q5.274 5.908 12.793 5.908 5.615 0 8.74-3.002 3.125-3.003 3.125-8.521v-2.832q-4.882 5.518-12.841 5.518-9.522 0-15.406-7.447-5.883-7.446-5.883-19.75zm14.111.44q0 7.177 2.88 11.255 2.882 4.077 7.911 4.077 6.445 0 9.228-4.834V342.5q-2.832-4.834-9.13-4.834-5.078 0-7.984 4.15-2.905 4.15-2.905 12.403zm67.441-40.04h14.111v12.989h9.034v10.352h-9.034v26.367q0 2.93 1.123 4.199 1.123 1.27 4.297 1.27 2.344 0 4.15-.342v10.693q-4.15 1.27-8.544 1.27-14.844 0-15.137-14.99V337.52h-7.715v-10.352h7.715V314.18zm24.712 39.551v-.634q0-7.862 3.027-14.014 3.027-6.152 8.716-9.521 5.688-3.37 13.208-3.37 10.693 0 17.456 6.543t7.544 17.774l.098 3.613q0 12.158-6.788 19.507-6.787 7.349-18.212 7.349-11.426 0-18.238-7.325-6.811-7.324-6.811-19.922zm14.111.391q0 7.52 2.832 11.5 2.832 3.979 8.106 3.979 5.127 0 8.007-3.931 2.881-3.93 2.881-12.573 0-7.373-2.88-11.426-2.881-4.053-8.106-4.053-5.176 0-8.008 4.029-2.832 4.028-2.832 12.475zm94.15-27.295l-.195 13.574q-2.881-.39-5.078-.39-8.008 0-10.498 5.42V380h-14.112v-52.832h13.33l.391 6.299q4.248-7.276 11.768-7.276 2.343 0 4.394.635zM682.101 380l-.39-5.371q-5.225 6.348-14.454 6.348-8.496 0-12.963-4.883-4.468-4.883-4.566-14.307v-34.619h14.112v34.13q0 8.253 7.519 8.253 7.178 0 9.863-4.98v-37.403h14.16V380h-13.28zm21.001-52.832h13.281l.44 6.103q5.664-7.08 15.185-7.08 8.399 0 12.5 4.932 4.102 4.932 4.2 14.746V380h-14.112v-33.79q0-4.491-1.953-6.518-1.953-2.026-6.494-2.026-5.957 0-8.936 5.078V380h-14.111v-52.832zm53.374 0h13.281l.44 6.103q5.664-7.08 15.185-7.08 8.399 0 12.5 4.932 4.102 4.932 4.2 14.746V380H787.97v-33.79q0-4.491-1.953-6.518-1.953-2.026-6.494-2.026-5.957 0-8.936 5.078V380h-14.111v-52.832zm68.56 0V380h-14.16v-52.832h14.16zm-14.99-13.672q0-3.174 2.123-5.225 2.124-2.05 5.786-2.05 3.613 0 5.762 2.05 2.148 2.051 2.148 5.225 0 3.223-2.172 5.274-2.173 2.05-5.738 2.05-3.564 0-5.737-2.05-2.173-2.051-2.173-5.274zm23.685 13.672h13.282l.44 6.103q5.663-7.08 15.185-7.08 8.398 0 12.5 4.932 4.101 4.932 4.199 14.746V380h-14.111v-33.79q0-4.491-1.954-6.518-1.953-2.026-6.494-2.026-5.957 0-8.935 5.078V380H833.73v-52.832zm51.616 26.611v-.586q0-12.158 5.787-19.58 5.786-7.422 15.6-7.422 8.692 0 13.526 5.957l.586-4.98h12.792v51.074q0 6.934-3.149 12.06-3.15 5.128-8.862 7.813-5.713 2.686-13.38 2.686-5.81 0-11.327-2.32-5.518-2.319-8.35-5.981l6.25-8.594q5.274 5.908 12.793 5.908 5.615 0 8.74-3.002 3.125-3.003 3.125-8.521v-2.832q-4.882 5.518-12.841 5.518-9.522 0-15.406-7.447-5.884-7.446-5.884-19.75zm14.112.44q0 7.177 2.88 11.255 2.882 4.077 7.91 4.077 6.446 0 9.23-4.834V342.5q-2.833-4.834-9.132-4.834-5.078 0-7.983 4.15-2.905 4.15-2.905 12.403zM98.393 453.6q3.906 0 6.347-2.149 2.442-2.148 2.54-5.713h13.232q-.05 5.371-2.93 9.84-2.88 4.467-7.886 6.933-5.005 2.466-11.06 2.466-11.327 0-17.87-7.203-6.543-7.202-6.543-19.897v-.928q0-12.207 6.494-19.482 6.494-7.276 17.822-7.276 9.912 0 15.894 5.64 5.981 5.64 6.079 15.015h-13.233q-.097-4.102-2.539-6.665-2.441-2.564-6.445-2.564-4.932 0-7.446 3.59-2.515 3.588-2.515 11.645v1.464q0 8.155 2.49 11.72 2.49 3.564 7.569 3.564zm25.346-15.87v-.634q0-7.862 3.027-14.014 3.028-6.152 8.716-9.521 5.689-3.37 13.208-3.37 10.694 0 17.456 6.543 6.763 6.543 7.544 17.774l.098 3.613q0 12.158-6.787 19.507-6.787 7.349-18.213 7.349-11.426 0-18.237-7.325-6.812-7.324-6.812-19.922zm14.111.391q0 7.52 2.832 11.5 2.832 3.979 8.106 3.979 5.127 0 8.008-3.931 2.88-3.93 2.88-12.573 0-7.373-2.88-11.426-2.881-4.053-8.106-4.053-5.176 0-8.008 4.029-2.832 4.028-2.832 12.475zm41.704-26.953h13.282l.44 6.103q5.663-7.08 15.185-7.08 8.398 0 12.5 4.932 4.101 4.932 4.199 14.746V464h-14.112v-33.79q0-4.491-1.953-6.518-1.953-2.026-6.494-2.026-5.957 0-8.935 5.078V464h-14.112v-52.832zm56.45-12.988h14.112v12.988h9.033v10.352h-9.033v26.367q0 2.93 1.123 4.199 1.123 1.27 4.297 1.27 2.343 0 4.15-.342v10.693q-4.15 1.27-8.545 1.27-14.844 0-15.137-14.99V421.52h-7.714v-10.352h7.714V398.18zM309.251 464h-14.258q-.976-1.904-1.416-4.736-5.126 5.713-13.33 5.713-7.763 0-12.866-4.493-5.102-4.492-5.102-11.328 0-8.398 6.225-12.89 6.226-4.493 17.993-4.541h6.495v-3.028q0-3.662-1.88-5.86-1.88-2.196-5.933-2.196-3.564 0-5.59 1.709-2.027 1.709-2.027 4.687H263.45q0-4.59 2.832-8.496 2.832-3.906 8.007-6.128 5.176-2.222 11.621-2.222 9.766 0 15.503 4.908 5.738 4.907 5.738 13.794v22.9q.049 7.52 2.1 11.377v.83zm-25.927-9.814q3.125 0 5.761-1.392 2.637-1.392 3.907-3.735v-9.082h-5.274q-10.596 0-11.28 7.324l-.048.83q0 2.637 1.855 4.346 1.856 1.709 5.079 1.709zm46.928-43.018V464h-14.16v-52.832h14.16zm-14.99-13.672q0-3.174 2.124-5.225 2.124-2.05 5.786-2.05 3.613 0 5.762 2.05 2.148 2.051 2.148 5.225 0 3.223-2.173 5.274-2.173 2.05-5.737 2.05t-5.737-2.05q-2.173-2.051-2.173-5.274zm23.686 13.672h13.281l.44 6.103q5.664-7.08 15.185-7.08 8.399 0 12.5 4.932 4.102 4.932 4.2 14.746V464h-14.112v-33.79q0-4.491-1.953-6.518-1.953-2.026-6.494-2.026-5.957 0-8.935 5.078V464h-14.112v-52.832zm77.983 53.809q-11.62 0-18.92-7.13-7.3-7.128-7.3-18.993v-1.368q0-7.959 3.076-14.233 3.076-6.274 8.716-9.668 5.64-3.394 12.866-3.394 10.84 0 17.065 6.836 6.226 6.836 6.226 19.385v5.762h-33.643q.684 5.176 4.126 8.3 3.443 3.126 8.716 3.126 8.155 0 12.744-5.909l6.934 7.764q-3.174 4.492-8.594 7.007-5.42 2.515-12.012 2.515zm-1.61-43.36q-4.2 0-6.812 2.832-2.613 2.832-3.345 8.106h19.629v-1.123q-.098-4.688-2.54-7.251-2.44-2.564-6.933-2.564zm58.598-10.79l-.196 13.573q-2.88-.39-5.078-.39-8.008 0-10.498 5.42V464h-14.111v-52.832h13.33l.39 6.299q4.249-7.276 11.768-7.276 2.344 0 4.395.635zm32.573 38.573q0-2.587-2.564-4.077-2.563-1.489-8.227-2.66-18.848-3.956-18.848-16.017 0-7.03 5.835-11.743 5.835-4.712 15.259-4.712 10.058 0 16.089 4.737 6.03 4.736 6.03 12.304h-14.111q0-3.027-1.954-5.004-1.953-1.978-6.103-1.978-3.565 0-5.518 1.611-1.953 1.612-1.953 4.102 0 2.344 2.222 3.784t7.495 2.49q5.273 1.05 8.887 2.368 11.181 4.102 11.181 14.21 0 7.226-6.2 11.694-6.202 4.468-16.016 4.468-6.641 0-11.792-2.369-5.152-2.368-8.081-6.494-2.93-4.126-2.93-8.91h13.379q.195 3.759 2.783 5.76 2.588 2.003 6.934 2.003 4.052 0 6.127-1.538 2.076-1.538 2.076-4.029zM71 498h1038v19H71zm20.11 128H76.94v-51.188h14.45q6.68 0 11.812 2.954 5.133 2.953 7.928 8.402 2.795 5.45 2.83 12.516v3.27q0 7.241-2.795 12.69-2.795 5.45-7.98 8.368Q98 625.93 91.109 626zm.456-45.633h-7.875v40.113h7.102q7.805 0 12.146-4.851 4.342-4.852 4.342-13.817v-2.988q0-8.719-4.095-13.553-4.096-4.833-11.62-4.904zm27.953 26.719v-.457q0-5.59 2.197-10.055 2.198-4.465 6.118-6.89 3.92-2.426 8.947-2.426 7.77 0 12.568 5.379 4.799 5.379 4.799 14.308v.457q0 5.555-2.127 9.967-2.127 4.412-6.082 6.873-3.955 2.461-9.088 2.461-7.734 0-12.533-5.379-4.799-5.379-4.799-14.238zm6.54.316q0 6.328 2.935 10.16 2.935 3.833 7.857 3.833 4.957 0 7.875-3.885t2.918-10.881q0-6.258-2.97-10.143-2.971-3.884-7.893-3.884-4.817 0-7.77 3.832-2.953 3.832-2.953 10.968zm49.608 13.993q3.48 0 6.082-2.11t2.883-5.273h6.152q-.176 3.27-2.25 6.222-2.074 2.953-5.537 4.711-3.463 1.758-7.33 1.758-7.77 0-12.357-5.185-4.588-5.186-4.588-14.186v-1.09q0-5.554 2.039-9.879 2.039-4.324 5.853-6.715 3.815-2.39 9.018-2.39 6.398 0 10.635 3.832 4.236 3.832 4.517 9.95h-6.152q-.281-3.692-2.795-6.065t-6.205-2.373q-4.957 0-7.682 3.568-2.724 3.568-2.724 10.318v1.23q0 6.575 2.707 10.126 2.707 3.55 7.734 3.55zM220.073 626l-13.254-17.613-4.078 4.254V626h-6.504v-54h6.504v32.66l3.48-4.183 11.848-12.516h7.91l-14.8 15.89L227.701 626h-7.63zm25.808.703q-7.734 0-12.586-5.08t-4.852-13.588v-1.195q0-5.66 2.163-10.108 2.162-4.447 6.046-6.96 3.885-2.514 8.42-2.514 7.418 0 11.532 4.887 4.113 4.886 4.113 13.992v2.707h-25.77q.141 5.625 3.287 9.088 3.147 3.463 7.998 3.463 3.446 0 5.836-1.407 2.391-1.406 4.184-3.726l3.973 3.093q-4.782 7.348-14.344 7.348zm-.809-34.101q-3.937 0-6.609 2.865t-3.305 8.033h19.055v-.492q-.281-4.957-2.672-7.682-2.39-2.724-6.469-2.724zm39.66-4.852v6.047q-1.477-.246-3.2-.246-6.398 0-8.683 5.449v27h-6.504v-38.04h6.328l.106 4.395q3.2-5.097 9.07-5.097 1.899 0 2.883.492z"></path></svg>