<svg viewBox="0 0 1200 900" xmlns="http://www.w3.org/2000/svg"><g fill="none" fill-rule="evenodd"><path d="M569 728v19a5 5 0 0 1-5 5H388a5 5 0 0 1-5-5v-19a5 5 0 0 1 5-5h176a5 5 0 0 1 5 5z" fill="#D2D2D2"/><path fill="#A3A3A3" d="M414 729h4v4h-4zm0 6h4v4h-4zm0 6h4v4h-4zm6-12h4v4h-4zm0 6h4v4h-4zm0 6h4v4h-4zm6-12h4v4h-4zm0 6h4v4h-4zm0 6h4v4h-4zm6-12h4v4h-4zm0 6h4v4h-4zm0 6h4v4h-4zm6-12h4v4h-4zm0 6h4v4h-4zm0 6h4v4h-4zm6-12h4v4h-4zm0 6h4v4h-4zm0 6h4v4h-4zm6-12h4v4h-4zm0 6h4v4h-4zm0 6h4v4h-4zm6-12h4v4h-4zm0 6h4v4h-4zm0 6h4v4h-4zm6-12h4v4h-4zm0 6h4v4h-4zm0 6h4v4h-4zm6-12h4v4h-4zm0 6h4v4h-4zm0 6h4v4h-4zm6-12h4v4h-4zm0 6h4v4h-4zm0 6h4v4h-4zm6-12h4v4h-4zm0 6h4v4h-4zm0 6h4v4h-4zm6-12h4v4h-4zm0 6h4v4h-4zm0 6h4v4h-4zm6-12h4v4h-4zm0 6h4v4h-4zm0 6h4v4h-4zm6-12h4v4h-4zm0 6h4v4h-4zm0 6h4v4h-4zm6-12h4v4h-4zm0 6h4v4h-4zm0 6h4v4h-4zm6-12h4v4h-4zm0 6h4v4h-4zm0 6h4v4h-4zm6-12h4v4h-4zm0 6h4v4h-4zm0 6h4v4h-4zm6-12h4v4h-4zm0 6h4v4h-4zm0 6h4v4h-4zm6-12h4v4h-4zm0 6h4v4h-4zm0 6h4v4h-4zm6-12h4v4h-4zm0 6h4v4h-4zm0 6h4v4h-4zm6-12h4v4h-4zm0 6h4v4h-4zm0 6h4v4h-4zm6-12h4v4h-4zm0 6h4v4h-4zm0 6h4v4h-4zm6-12h4v4h-4zm0 6h4v4h-4zm0 6h4v4h-4zm6-12h4v4h-4zm0 6h4v4h-4zm0 6h4v4h-4z"/><path d="M569 760v19a5 5 0 0 1-5 5H388a5 5 0 0 1-5-5v-19a5 5 0 0 1 5-5h176a5 5 0 0 1 5 5z" fill="#D2D2D2"/><path fill="#A3A3A3" d="M414 761h4v4h-4zm0 6h4v4h-4zm0 6h4v4h-4zm6-12h4v4h-4zm0 6h4v4h-4zm0 6h4v4h-4zm6-12h4v4h-4zm0 6h4v4h-4zm0 6h4v4h-4zm6-12h4v4h-4zm0 6h4v4h-4zm0 6h4v4h-4zm6-12h4v4h-4zm0 6h4v4h-4zm0 6h4v4h-4zm6-12h4v4h-4zm0 6h4v4h-4zm0 6h4v4h-4zm6-12h4v4h-4zm0 6h4v4h-4zm0 6h4v4h-4zm6-12h4v4h-4zm0 6h4v4h-4zm0 6h4v4h-4zm6-12h4v4h-4zm0 6h4v4h-4zm0 6h4v4h-4zm6-12h4v4h-4zm0 6h4v4h-4zm0 6h4v4h-4zm6-12h4v4h-4zm0 6h4v4h-4zm0 6h4v4h-4zm6-12h4v4h-4zm0 6h4v4h-4zm0 6h4v4h-4zm6-12h4v4h-4zm0 6h4v4h-4zm0 6h4v4h-4zm6-12h4v4h-4zm0 6h4v4h-4zm0 6h4v4h-4zm6-12h4v4h-4zm0 6h4v4h-4zm0 6h4v4h-4zm6-12h4v4h-4zm0 6h4v4h-4zm0 6h4v4h-4zm6-12h4v4h-4zm0 6h4v4h-4zm0 6h4v4h-4zm6-12h4v4h-4zm0 6h4v4h-4zm0 6h4v4h-4zm6-12h4v4h-4zm0 6h4v4h-4zm0 6h4v4h-4zm6-12h4v4h-4zm0 6h4v4h-4zm0 6h4v4h-4zm6-12h4v4h-4zm0 6h4v4h-4zm0 6h4v4h-4zm6-12h4v4h-4zm0 6h4v4h-4zm0 6h4v4h-4zm6-12h4v4h-4zm0 6h4v4h-4zm0 6h4v4h-4zm6-12h4v4h-4zm0 6h4v4h-4zm0 6h4v4h-4zm6-12h4v4h-4zm0 6h4v4h-4zm0 6h4v4h-4z"/><g transform="translate(383 396)"><path d="M186 5v314a5 5 0 0 1-5 5H5a5 5 0 0 1-5-5V5a5 5 0 0 1 5-5h176a5 5 0 0 1 5 5z" fill="#D2D2D2"/><path fill="#A3A3A3" d="M7 6h4v4H7zm0 6h4v4H7zm0 6h4v4H7zm6-12h4v4h-4zm0 6h4v4h-4zm0 6h4v4h-4zm6-12h4v4h-4zm0 6h4v4h-4zm0 6h4v4h-4zm6-12h4v4h-4zm0 6h4v4h-4zm0 6h4v4h-4zm6-12h4v4h-4zm0 6h4v4h-4zm0 6h4v4h-4zm6-12h4v4h-4zm0 6h4v4h-4zm0 6h4v4h-4zm6-12h4v4h-4zm0 6h4v4h-4zm0 6h4v4h-4zm6-12h4v4h-4zm0 6h4v4h-4zm0 6h4v4h-4zm6-12h4v4h-4zm0 6h4v4h-4zm0 6h4v4h-4zm6-12h4v4h-4zm0 6h4v4h-4zm0 6h4v4h-4zm6-12h4v4h-4zm0 6h4v4h-4zm0 6h4v4h-4zm6-12h4v4h-4zm0 6h4v4h-4zm0 6h4v4h-4zm6-12h4v4h-4zm0 6h4v4h-4zm0 6h4v4h-4zm6-12h4v4h-4zm0 6h4v4h-4zm0 6h4v4h-4zm6-12h4v4h-4zm0 6h4v4h-4zm0 6h4v4h-4zm6-12h4v4h-4zm0 6h4v4h-4zm0 6h4v4h-4zm6-12h4v4h-4zm0 6h4v4h-4zm0 6h4v4h-4zm6-12h4v4h-4zm0 6h4v4h-4zm0 6h4v4h-4zm6-12h4v4h-4zm0 6h4v4h-4zm0 6h4v4h-4zm6-12h4v4h-4zm0 6h4v4h-4zm0 6h4v4h-4zm6-12h4v4h-4zm0 6h4v4h-4zm0 6h4v4h-4zm6-12h4v4h-4zm0 6h4v4h-4zm0 6h4v4h-4zm6-12h4v4h-4zm0 6h4v4h-4zm0 6h4v4h-4zm6-12h4v4h-4zm0 6h4v4h-4zm0 6h4v4h-4zm6-12h4v4h-4zm0 6h4v4h-4zm0 6h4v4h-4zm6-12h4v4h-4zm0 6h4v4h-4zm0 6h4v4h-4zm6-12h4v4h-4zm0 6h4v4h-4zm0 6h4v4h-4zm6-12h4v4h-4zm0 6h4v4h-4zm0 6h4v4h-4zm6-12h4v4h-4zm0 6h4v4h-4zm0 6h4v4h-4zM7 313h4v4H7zm6 0h4v4h-4zm6 0h4v4h-4zm6 0h4v4h-4zm6 0h4v4h-4zm6 0h4v4h-4zm6 0h4v4h-4zm6 0h4v4h-4zm6 0h4v4h-4zm6 0h4v4h-4zm6 0h4v4h-4zm6 0h4v4h-4zm6 0h4v4h-4zm6 0h4v4h-4zm6 0h4v4h-4zm6 0h4v4h-4zm6 0h4v4h-4zm6 0h4v4h-4zm6 0h4v4h-4zm6 0h4v4h-4zm6 0h4v4h-4zm6 0h4v4h-4zm6 0h4v4h-4zm6 0h4v4h-4zm6 0h4v4h-4zm6 0h4v4h-4zm6 0h4v4h-4zm6 0h4v4h-4zm6 0h4v4h-4z"/><rect fill="#FFF" x="7" y="29" width="172" height="278" rx="2"/></g><path d="M401.009 736.34h2.375v-2.159h-2.375v2.16zm-2.807 0h2.375v-2.159h-2.375v2.16zm-2.807 0h2.375v-2.159h-2.375v2.16zm-2.806 0h2.375v-2.159h-2.375v2.16zm-2.807 0h2.375v-2.159h-2.375v2.16zm2.807-2.59h2.375v-2.16h-2.375v2.16zm2.806 0h2.375v-2.16h-2.375v2.16zm2.807 0h2.375v-2.16h-2.375v2.16zm0-2.591h2.375V729h-2.375v2.159zm12.318 3.923c-.518-.347-1.71-.475-2.627-.302-.118-.864-.6-1.612-1.475-2.29l-.504-.335-.336.504c-.43.648-.644 1.547-.574 2.408.032.304.131.846.443 1.322-.312.168-.928.399-1.74.383H388.09l-.03.18c-.148.866-.145 3.568 1.61 5.645 1.333 1.579 3.333 2.38 5.942 2.38 5.657 0 9.843-2.605 11.803-7.338.77.015 2.43.004 3.282-1.625.022-.037.073-.135.222-.443l.082-.17-.48-.32z" fill="#A3A3A3"/><g fill="#A3A3A3"><path d="M397.883 770.606a.34.34 0 0 0-.393-.259l-.003-.004-1.987.337c.307.849.88 1.54 1.6 2.002l.77-1.86-.006-.007a.336.336 0 0 0 .019-.21m-.661-1.431a.34.34 0 0 0 .134-.583l.001-.008-1.511-1.353a3.964 3.964 0 0 0-.563 2.509l1.938-.56.001-.006zm.883-1.526a.34.34 0 0 0 .539-.26l.008-.004.114-2.019a3.965 3.965 0 0 0-2.32 1.111l1.654 1.174.004-.002zm.585 2.12l.558.268.556-.268.138-.6-.385-.481h-.619l-.386.48zm1.157-2.386a.34.34 0 0 0 .54.259l.005.002 1.645-1.166a3.998 3.998 0 0 0-2.307-1.112l.114 2.016h.002z"/><path d="M406.02 770.867c-.047.205-.27.33-.497.28h-.006l-.007-.002c-.032-.007-.072-.014-.1-.022-.132-.035-.227-.088-.345-.133-.255-.091-.466-.168-.671-.197-.105-.009-.158.041-.216.08a5.777 5.777 0 0 0-.164-.03 5.008 5.008 0 0 1-2.22 2.792c.02.044.05.139.065.155-.024.065-.06.127-.03.227.075.194.196.383.342.611.07.106.142.187.206.307l.05.104c.1.211.027.455-.163.547-.192.092-.43-.006-.533-.218-.014-.03-.035-.07-.047-.099-.055-.125-.074-.232-.112-.353-.087-.256-.16-.468-.264-.647-.059-.087-.13-.098-.197-.12l-.082-.147a4.993 4.993 0 0 1-3.552-.01l-.087.159c-.065.017-.127.034-.166.08-.14.168-.196.436-.298.692-.038.12-.056.228-.11.353l-.048.097v.001l-.001.001c-.103.212-.34.31-.532.217-.19-.091-.262-.335-.163-.547.014-.03.034-.075.05-.103.063-.12.135-.203.206-.308.145-.228.273-.432.348-.626.019-.064-.01-.153-.034-.218l.07-.167a5.009 5.009 0 0 1-2.22-2.772l-.168.029c-.045-.025-.135-.085-.221-.078-.206.03-.416.106-.671.197-.118.045-.214.097-.346.132-.027.008-.067.016-.099.023l-.007.002-.006.001c-.228.05-.45-.076-.497-.281-.047-.206.099-.414.326-.469l.006-.002h.003c.032-.008.073-.019.103-.024.134-.026.243-.02.369-.03.269-.028.492-.051.69-.113.063-.026.123-.113.165-.167l.161-.047a4.98 4.98 0 0 1 .786-3.472l-.124-.11c-.008-.049-.018-.16-.077-.223-.151-.142-.342-.26-.572-.402-.11-.064-.21-.106-.32-.186l-.08-.065-.005-.004c-.185-.147-.227-.401-.095-.567a.37.37 0 0 1 .307-.136.458.458 0 0 1 .268.101c.027.021.062.048.086.069.103.088.166.176.253.268.19.193.347.353.52.47.09.052.159.03.228.021l.139.1a4.95 4.95 0 0 1 3.21-1.545l.01-.162a.42.42 0 0 0 .124-.2c.017-.206-.01-.429-.042-.698-.018-.125-.048-.23-.053-.366v-.108c0-.237.172-.429.385-.429.212 0 .385.192.385.428 0 .034.002.079 0 .11-.005.136-.034.24-.052.365-.032.269-.06.492-.044.699.015.103.076.144.126.192l.01.172a5.044 5.044 0 0 1 3.194 1.544l.147-.105c.05.003.158.018.233-.025.172-.116.33-.277.519-.47.087-.092.15-.18.254-.269l.086-.068c.184-.147.441-.132.574.034.132.167.09.42-.095.568-.026.02-.06.05-.085.068-.11.081-.21.123-.32.187-.23.142-.42.26-.572.402-.071.076-.066.149-.072.218l-.137.122a4.982 4.982 0 0 1 .802 3.464l.155.046c.028.04.086.135.167.167.198.062.42.085.69.113.126.01.235.004.369.03.032.006.079.018.112.026.227.055.372.263.325.469m2.447.084l-1.59-6.902a1.222 1.222 0 0 0-.665-.827l-6.43-3.071a1.239 1.239 0 0 0-1.068 0l-6.43 3.072a1.221 1.221 0 0 0-.666.828l-1.586 6.901a1.211 1.211 0 0 0 .237 1.032l4.45 5.534c.234.29.588.46.962.46l7.137-.002c.374 0 .728-.169.962-.459l4.449-5.534c.233-.29.32-.67.238-1.032"/><path d="M402.64 767.231l-1.504 1.346v.004a.34.34 0 0 0 .133.583l.003.008 1.947.561c.041-.42.016-.855-.084-1.29a4.013 4.013 0 0 0-.496-1.212m-3.093 4.104a.337.337 0 0 0-.31-.178.34.34 0 0 0-.288.179h-.001l-.977 1.766a3.98 3.98 0 0 0 2.563.003l-.98-1.77h-.007zm1.455-.995a.338.338 0 0 0-.208.028.34.34 0 0 0-.164.44l-.003.002.778 1.88a3.97 3.97 0 0 0 1.605-2.016l-2.005-.339-.003.004z"/></g><path d="M321 728v19a5 5 0 0 1-5 5H140a5 5 0 0 1-5-5v-19a5 5 0 0 1 5-5h176a5 5 0 0 1 5 5z" fill="#D2D2D2"/><path fill="#A3A3A3" d="M166 729h4v4h-4zm0 6h4v4h-4zm0 6h4v4h-4zm6-12h4v4h-4zm0 6h4v4h-4zm0 6h4v4h-4zm6-12h4v4h-4zm0 6h4v4h-4zm0 6h4v4h-4zm6-12h4v4h-4zm0 6h4v4h-4zm0 6h4v4h-4zm6-12h4v4h-4zm0 6h4v4h-4zm0 6h4v4h-4zm6-12h4v4h-4zm0 6h4v4h-4zm0 6h4v4h-4zm6-12h4v4h-4zm0 6h4v4h-4zm0 6h4v4h-4zm6-12h4v4h-4zm0 6h4v4h-4zm0 6h4v4h-4zm6-12h4v4h-4zm0 6h4v4h-4zm0 6h4v4h-4zm6-12h4v4h-4zm0 6h4v4h-4zm0 6h4v4h-4zm6-12h4v4h-4zm0 6h4v4h-4zm0 6h4v4h-4zm6-12h4v4h-4zm0 6h4v4h-4zm0 6h4v4h-4zm6-12h4v4h-4zm0 6h4v4h-4zm0 6h4v4h-4zm6-12h4v4h-4zm0 6h4v4h-4zm0 6h4v4h-4zm6-12h4v4h-4zm0 6h4v4h-4zm0 6h4v4h-4zm6-12h4v4h-4zm0 6h4v4h-4zm0 6h4v4h-4zm6-12h4v4h-4zm0 6h4v4h-4zm0 6h4v4h-4zm6-12h4v4h-4zm0 6h4v4h-4zm0 6h4v4h-4zm6-12h4v4h-4zm0 6h4v4h-4zm0 6h4v4h-4zm6-12h4v4h-4zm0 6h4v4h-4zm0 6h4v4h-4zm6-12h4v4h-4zm0 6h4v4h-4zm0 6h4v4h-4zm6-12h4v4h-4zm0 6h4v4h-4zm0 6h4v4h-4zm6-12h4v4h-4zm0 6h4v4h-4zm0 6h4v4h-4zm6-12h4v4h-4zm0 6h4v4h-4zm0 6h4v4h-4zm6-12h4v4h-4zm0 6h4v4h-4zm0 6h4v4h-4z"/><path d="M321 760v19a5 5 0 0 1-5 5H140a5 5 0 0 1-5-5v-19a5 5 0 0 1 5-5h176a5 5 0 0 1 5 5z" fill="#326CE5"/><path fill="#FFF" d="M166 761h4v4h-4zm0 6h4v4h-4zm0 6h4v4h-4zm6-12h4v4h-4zm0 6h4v4h-4zm0 6h4v4h-4zm6-12h4v4h-4zm0 6h4v4h-4zm0 6h4v4h-4zm6-12h4v4h-4zm0 6h4v4h-4zm0 6h4v4h-4zm6-12h4v4h-4zm0 6h4v4h-4zm0 6h4v4h-4zm6-12h4v4h-4zm0 6h4v4h-4zm0 6h4v4h-4zm6-12h4v4h-4zm0 6h4v4h-4zm0 6h4v4h-4zm6-12h4v4h-4zm0 6h4v4h-4zm0 6h4v4h-4zm6-12h4v4h-4zm0 6h4v4h-4zm0 6h4v4h-4zm6-12h4v4h-4zm0 6h4v4h-4zm0 6h4v4h-4zm6-12h4v4h-4zm0 6h4v4h-4zm0 6h4v4h-4zm6-12h4v4h-4zm0 6h4v4h-4zm0 6h4v4h-4zm6-12h4v4h-4zm0 6h4v4h-4zm0 6h4v4h-4zm6-12h4v4h-4zm0 6h4v4h-4zm0 6h4v4h-4zm6-12h4v4h-4zm0 6h4v4h-4zm0 6h4v4h-4zm6-12h4v4h-4zm0 6h4v4h-4zm0 6h4v4h-4zm6-12h4v4h-4zm0 6h4v4h-4zm0 6h4v4h-4zm6-12h4v4h-4zm0 6h4v4h-4zm0 6h4v4h-4zm6-12h4v4h-4zm0 6h4v4h-4zm0 6h4v4h-4zm6-12h4v4h-4zm0 6h4v4h-4zm0 6h4v4h-4zm6-12h4v4h-4zm0 6h4v4h-4zm0 6h4v4h-4zm6-12h4v4h-4zm0 6h4v4h-4zm0 6h4v4h-4zm6-12h4v4h-4zm0 6h4v4h-4zm0 6h4v4h-4zm6-12h4v4h-4zm0 6h4v4h-4zm0 6h4v4h-4zm6-12h4v4h-4zm0 6h4v4h-4zm0 6h4v4h-4z"/><g transform="translate(135 396)"><path d="M186 5v314a5 5 0 0 1-5 5H5a5 5 0 0 1-5-5V5a5 5 0 0 1 5-5h176a5 5 0 0 1 5 5z" fill="#D2D2D2"/><path fill="#A3A3A3" d="M7 6h4v4H7zm0 6h4v4H7zm0 6h4v4H7zm6-12h4v4h-4zm0 6h4v4h-4zm0 6h4v4h-4zm6-12h4v4h-4zm0 6h4v4h-4zm0 6h4v4h-4zm6-12h4v4h-4zm0 6h4v4h-4zm0 6h4v4h-4zm6-12h4v4h-4zm0 6h4v4h-4zm0 6h4v4h-4zm6-12h4v4h-4zm0 6h4v4h-4zm0 6h4v4h-4zm6-12h4v4h-4zm0 6h4v4h-4zm0 6h4v4h-4zm6-12h4v4h-4zm0 6h4v4h-4zm0 6h4v4h-4zm6-12h4v4h-4zm0 6h4v4h-4zm0 6h4v4h-4zm6-12h4v4h-4zm0 6h4v4h-4zm0 6h4v4h-4zm6-12h4v4h-4zm0 6h4v4h-4zm0 6h4v4h-4zm6-12h4v4h-4zm0 6h4v4h-4zm0 6h4v4h-4zm6-12h4v4h-4zm0 6h4v4h-4zm0 6h4v4h-4zm6-12h4v4h-4zm0 6h4v4h-4zm0 6h4v4h-4zm6-12h4v4h-4zm0 6h4v4h-4zm0 6h4v4h-4zm6-12h4v4h-4zm0 6h4v4h-4zm0 6h4v4h-4zm6-12h4v4h-4zm0 6h4v4h-4zm0 6h4v4h-4zm6-12h4v4h-4zm0 6h4v4h-4zm0 6h4v4h-4zm6-12h4v4h-4zm0 6h4v4h-4zm0 6h4v4h-4zm6-12h4v4h-4zm0 6h4v4h-4zm0 6h4v4h-4zm6-12h4v4h-4zm0 6h4v4h-4zm0 6h4v4h-4zm6-12h4v4h-4zm0 6h4v4h-4zm0 6h4v4h-4zm6-12h4v4h-4zm0 6h4v4h-4zm0 6h4v4h-4zm6-12h4v4h-4zm0 6h4v4h-4zm0 6h4v4h-4zm6-12h4v4h-4zm0 6h4v4h-4zm0 6h4v4h-4zm6-12h4v4h-4zm0 6h4v4h-4zm0 6h4v4h-4zm6-12h4v4h-4zm0 6h4v4h-4zm0 6h4v4h-4zm6-12h4v4h-4zm0 6h4v4h-4zm0 6h4v4h-4zm6-12h4v4h-4zm0 6h4v4h-4zm0 6h4v4h-4zM7 313h4v4H7zm6 0h4v4h-4zm6 0h4v4h-4zm6 0h4v4h-4zm6 0h4v4h-4zm6 0h4v4h-4zm6 0h4v4h-4zm6 0h4v4h-4zm6 0h4v4h-4zm6 0h4v4h-4zm6 0h4v4h-4zm6 0h4v4h-4zm6 0h4v4h-4zm6 0h4v4h-4zm6 0h4v4h-4zm6 0h4v4h-4zm6 0h4v4h-4zm6 0h4v4h-4zm6 0h4v4h-4zm6 0h4v4h-4zm6 0h4v4h-4zm6 0h4v4h-4zm6 0h4v4h-4zm6 0h4v4h-4zm6 0h4v4h-4zm6 0h4v4h-4zm6 0h4v4h-4zm6 0h4v4h-4zm6 0h4v4h-4z"/><rect fill="#FFF" x="7" y="29" width="172" height="278" rx="2"/></g><path d="M153.009 736.34h2.375v-2.159h-2.375v2.16zm-2.807 0h2.375v-2.159h-2.375v2.16zm-2.807 0h2.375v-2.159h-2.375v2.16zm-2.806 0h2.375v-2.159h-2.375v2.16zm-2.807 0h2.375v-2.159h-2.375v2.16zm2.807-2.59h2.375v-2.16h-2.375v2.16zm2.806 0h2.375v-2.16h-2.375v2.16zm2.807 0h2.375v-2.16h-2.375v2.16zm0-2.591h2.375V729h-2.375v2.159zm12.318 3.923c-.518-.347-1.71-.475-2.627-.302-.118-.864-.6-1.612-1.475-2.29l-.504-.335-.336.504c-.43.648-.644 1.547-.574 2.408.032.304.131.846.443 1.322-.312.168-.928.399-1.74.383H140.09l-.03.18c-.148.866-.145 3.568 1.61 5.645 1.333 1.579 3.333 2.38 5.942 2.38 5.657 0 9.843-2.605 11.803-7.338.77.015 2.43.004 3.282-1.625.022-.037.073-.135.222-.443l.082-.17-.48-.32z" fill="#A3A3A3"/><g fill-rule="nonzero" stroke="#FFF" stroke-width=".5"><path d="M151.432 760.028a1.292 1.292 0 0 0-.482.12l-6.585 3.072a1.228 1.228 0 0 0-.682.827l-1.623 6.901a1.188 1.188 0 0 0 .24 1.032l4.558 5.534c.24.29.601.459.985.459l7.31-.002c.382 0 .744-.168.984-.458l4.556-5.534c.239-.29.329-.67.243-1.033l-1.627-6.9a1.228 1.228 0 0 0-.681-.828l-6.585-3.07c-.19-.09-.4-.13-.61-.12z" fill="#326CE5"/><path d="M151.498 762.377c.217 0 .394.191.394.427 0 .034.002.079 0 .11-.005.136-.035.24-.053.365-.034.27-.062.492-.045.699.016.103.078.144.129.192l.01.172a5.215 5.215 0 0 1 3.271 1.544l.15-.105c.05.003.163.018.24-.025.175-.116.336-.277.53-.47.09-.092.155-.18.26-.269l.088-.068c.19-.147.452-.132.588.034.136.167.092.42-.097.568-.026.02-.061.05-.086.068-.113.081-.216.123-.328.187-.236.142-.431.26-.586.402-.073.076-.068.149-.074.218l-.14.122a4.923 4.923 0 0 1 .821 3.464l.16.045c.028.04.087.136.17.167.202.063.43.086.706.114.13.01.241.004.378.03.033.006.08.018.115.026.232.055.381.263.333.469-.048.205-.275.33-.509.28h-.005c-.003 0-.005-.002-.008-.003-.033-.006-.073-.013-.102-.02-.135-.036-.232-.089-.354-.134-.26-.091-.476-.168-.687-.197-.107-.009-.161.041-.22.08a6.077 6.077 0 0 0-.169-.03 5.031 5.031 0 0 1-2.272 2.792c.019.044.05.138.065.155-.024.065-.062.127-.03.227.077.194.2.383.35.611.072.105.146.186.211.307.016.029.036.073.051.103.102.212.027.456-.167.547-.196.093-.44-.005-.545-.218l-.049-.098c-.056-.125-.075-.232-.114-.353-.09-.256-.163-.468-.27-.647-.06-.087-.135-.098-.202-.12a4.177 4.177 0 0 1-.084-.148 5.207 5.207 0 0 1-3.638-.009l-.089.158c-.066.018-.13.035-.17.081-.143.167-.2.436-.305.691-.04.121-.058.228-.114.353-.012.029-.034.068-.049.098 0 0 0 0 0 0v.002c-.106.212-.349.309-.544.217-.195-.092-.27-.335-.168-.547l.05-.104c.066-.12.14-.202.212-.307.15-.228.28-.433.357-.626.019-.065-.01-.153-.035-.218l.071-.168a5.033 5.033 0 0 1-2.273-2.771l-.172.029c-.046-.025-.138-.085-.226-.078-.21.03-.427.106-.688.197-.12.045-.218.097-.353.132-.029.008-.07.016-.102.023l-.008.002h-.006c-.233.05-.46-.075-.508-.28-.048-.206.1-.414.333-.47h.006l.003-.002c.033-.007.076-.018.106-.023.137-.026.249-.02.378-.03.275-.028.504-.051.706-.114.065-.025.126-.112.17-.167l.165-.046a4.888 4.888 0 0 1 .804-3.472l-.126-.11c-.008-.049-.019-.16-.08-.223-.154-.142-.35-.26-.586-.402-.111-.064-.214-.106-.326-.186l-.082-.065-.006-.004c-.189-.147-.232-.401-.097-.567a.384.384 0 0 1 .314-.136.476.476 0 0 1 .275.101c.027.021.064.048.088.069.105.088.17.176.259.268.194.193.355.353.531.47.093.052.164.03.235.021.022.017.098.07.142.1a5.1 5.1 0 0 1 2.574-1.439c.238-.052.476-.087.713-.107l.009-.162a.419.419 0 0 0 .128-.2c.017-.206-.01-.429-.044-.698-.018-.125-.048-.23-.054-.365l.001-.1v-.01c0-.236.176-.427.394-.427zm-.494 2.985a4.09 4.09 0 0 0-2.376 1.111l1.695 1.173.004-.001a.351.351 0 0 0 .205.065.344.344 0 0 0 .346-.325l.009-.004.117-2.02zm.988 0l.117 2.015.002.001c.003.07.028.138.075.197a.354.354 0 0 0 .477.062l.006.003 1.684-1.166a4.135 4.135 0 0 0-2.361-1.112zm-3.979 1.865a3.889 3.889 0 0 0-.576 2.509l1.984-.56.002-.006a.348.348 0 0 0 .18-.116.333.333 0 0 0-.043-.467l.001-.008-1.548-1.352zm6.958 0l-1.54 1.346.001.004a.335.335 0 0 0 .136.583l.002.008 1.994.561a3.961 3.961 0 0 0-.594-2.502zm-3.791 1.457l-.395.48.141.6.572.269.569-.267.141-.6-.394-.482h-.634zm2.033 1.647a.353.353 0 0 0-.133.033.336.336 0 0 0-.168.44l-.003.004.797 1.879a3.987 3.987 0 0 0 1.643-2.016l-2.053-.339-.003.004a.354.354 0 0 0-.08-.005zm-3.447.008a.36.36 0 0 0-.068.006l-.004-.005-2.034.338c.314.848.9 1.54 1.638 2.001l.788-1.86-.006-.007a.329.329 0 0 0 .02-.21.346.346 0 0 0-.334-.263zm1.719.815a.349.349 0 0 0-.294.18h-.002l-1 1.766a4.17 4.17 0 0 0 2.625.002l-1.003-1.77h-.008a.351.351 0 0 0-.318-.178z" fill="#FFF"/></g><path d="M818 728v19a5 5 0 0 1-5 5H637a5 5 0 0 1-5-5v-19a5 5 0 0 1 5-5h176a5 5 0 0 1 5 5z" fill="#D2D2D2"/><path fill="#A3A3A3" d="M663 729h4v4h-4zm0 6h4v4h-4zm0 6h4v4h-4zm6-12h4v4h-4zm0 6h4v4h-4zm0 6h4v4h-4zm6-12h4v4h-4zm0 6h4v4h-4zm0 6h4v4h-4zm6-12h4v4h-4zm0 6h4v4h-4zm0 6h4v4h-4zm6-12h4v4h-4zm0 6h4v4h-4zm0 6h4v4h-4zm6-12h4v4h-4zm0 6h4v4h-4zm0 6h4v4h-4zm6-12h4v4h-4zm0 6h4v4h-4zm0 6h4v4h-4zm6-12h4v4h-4zm0 6h4v4h-4zm0 6h4v4h-4zm6-12h4v4h-4zm0 6h4v4h-4zm0 6h4v4h-4zm6-12h4v4h-4zm0 6h4v4h-4zm0 6h4v4h-4zm6-12h4v4h-4zm0 6h4v4h-4zm0 6h4v4h-4zm6-12h4v4h-4zm0 6h4v4h-4zm0 6h4v4h-4zm6-12h4v4h-4zm0 6h4v4h-4zm0 6h4v4h-4zm6-12h4v4h-4zm0 6h4v4h-4zm0 6h4v4h-4zm6-12h4v4h-4zm0 6h4v4h-4zm0 6h4v4h-4zm6-12h4v4h-4zm0 6h4v4h-4zm0 6h4v4h-4zm6-12h4v4h-4zm0 6h4v4h-4zm0 6h4v4h-4zm6-12h4v4h-4zm0 6h4v4h-4zm0 6h4v4h-4zm6-12h4v4h-4zm0 6h4v4h-4zm0 6h4v4h-4zm6-12h4v4h-4zm0 6h4v4h-4zm0 6h4v4h-4zm6-12h4v4h-4zm0 6h4v4h-4zm0 6h4v4h-4zm6-12h4v4h-4zm0 6h4v4h-4zm0 6h4v4h-4zm6-12h4v4h-4zm0 6h4v4h-4zm0 6h4v4h-4zm6-12h4v4h-4zm0 6h4v4h-4zm0 6h4v4h-4zm6-12h4v4h-4zm0 6h4v4h-4zm0 6h4v4h-4z"/><path d="M818 760v19a5 5 0 0 1-5 5H637a5 5 0 0 1-5-5v-19a5 5 0 0 1 5-5h176a5 5 0 0 1 5 5z" fill="#D2D2D2"/><path fill="#A3A3A3" d="M663 761h4v4h-4zm0 6h4v4h-4zm0 6h4v4h-4zm6-12h4v4h-4zm0 6h4v4h-4zm0 6h4v4h-4zm6-12h4v4h-4zm0 6h4v4h-4zm0 6h4v4h-4zm6-12h4v4h-4zm0 6h4v4h-4zm0 6h4v4h-4zm6-12h4v4h-4zm0 6h4v4h-4zm0 6h4v4h-4zm6-12h4v4h-4zm0 6h4v4h-4zm0 6h4v4h-4zm6-12h4v4h-4zm0 6h4v4h-4zm0 6h4v4h-4zm6-12h4v4h-4zm0 6h4v4h-4zm0 6h4v4h-4zm6-12h4v4h-4zm0 6h4v4h-4zm0 6h4v4h-4zm6-12h4v4h-4zm0 6h4v4h-4zm0 6h4v4h-4zm6-12h4v4h-4zm0 6h4v4h-4zm0 6h4v4h-4zm6-12h4v4h-4zm0 6h4v4h-4zm0 6h4v4h-4zm6-12h4v4h-4zm0 6h4v4h-4zm0 6h4v4h-4zm6-12h4v4h-4zm0 6h4v4h-4zm0 6h4v4h-4zm6-12h4v4h-4zm0 6h4v4h-4zm0 6h4v4h-4zm6-12h4v4h-4zm0 6h4v4h-4zm0 6h4v4h-4zm6-12h4v4h-4zm0 6h4v4h-4zm0 6h4v4h-4zm6-12h4v4h-4zm0 6h4v4h-4zm0 6h4v4h-4zm6-12h4v4h-4zm0 6h4v4h-4zm0 6h4v4h-4zm6-12h4v4h-4zm0 6h4v4h-4zm0 6h4v4h-4zm6-12h4v4h-4zm0 6h4v4h-4zm0 6h4v4h-4zm6-12h4v4h-4zm0 6h4v4h-4zm0 6h4v4h-4zm6-12h4v4h-4zm0 6h4v4h-4zm0 6h4v4h-4zm6-12h4v4h-4zm0 6h4v4h-4zm0 6h4v4h-4zm6-12h4v4h-4zm0 6h4v4h-4zm0 6h4v4h-4z"/><g transform="translate(632 396)"><path d="M186 5v314a5 5 0 0 1-5 5H5a5 5 0 0 1-5-5V5a5 5 0 0 1 5-5h176a5 5 0 0 1 5 5z" fill="#D2D2D2"/><path fill="#A3A3A3" d="M7 6h4v4H7zm0 6h4v4H7zm0 6h4v4H7zm6-12h4v4h-4zm0 6h4v4h-4zm0 6h4v4h-4zm6-12h4v4h-4zm0 6h4v4h-4zm0 6h4v4h-4zm6-12h4v4h-4zm0 6h4v4h-4zm0 6h4v4h-4zm6-12h4v4h-4zm0 6h4v4h-4zm0 6h4v4h-4zm6-12h4v4h-4zm0 6h4v4h-4zm0 6h4v4h-4zm6-12h4v4h-4zm0 6h4v4h-4zm0 6h4v4h-4zm6-12h4v4h-4zm0 6h4v4h-4zm0 6h4v4h-4zm6-12h4v4h-4zm0 6h4v4h-4zm0 6h4v4h-4zm6-12h4v4h-4zm0 6h4v4h-4zm0 6h4v4h-4zm6-12h4v4h-4zm0 6h4v4h-4zm0 6h4v4h-4zm6-12h4v4h-4zm0 6h4v4h-4zm0 6h4v4h-4zm6-12h4v4h-4zm0 6h4v4h-4zm0 6h4v4h-4zm6-12h4v4h-4zm0 6h4v4h-4zm0 6h4v4h-4zm6-12h4v4h-4zm0 6h4v4h-4zm0 6h4v4h-4zm6-12h4v4h-4zm0 6h4v4h-4zm0 6h4v4h-4zm6-12h4v4h-4zm0 6h4v4h-4zm0 6h4v4h-4zm6-12h4v4h-4zm0 6h4v4h-4zm0 6h4v4h-4zm6-12h4v4h-4zm0 6h4v4h-4zm0 6h4v4h-4zm6-12h4v4h-4zm0 6h4v4h-4zm0 6h4v4h-4zm6-12h4v4h-4zm0 6h4v4h-4zm0 6h4v4h-4zm6-12h4v4h-4zm0 6h4v4h-4zm0 6h4v4h-4zm6-12h4v4h-4zm0 6h4v4h-4zm0 6h4v4h-4zm6-12h4v4h-4zm0 6h4v4h-4zm0 6h4v4h-4zm6-12h4v4h-4zm0 6h4v4h-4zm0 6h4v4h-4zm6-12h4v4h-4zm0 6h4v4h-4zm0 6h4v4h-4zm6-12h4v4h-4zm0 6h4v4h-4zm0 6h4v4h-4zm6-12h4v4h-4zm0 6h4v4h-4zm0 6h4v4h-4zm6-12h4v4h-4zm0 6h4v4h-4zm0 6h4v4h-4zM7 313h4v4H7zm6 0h4v4h-4zm6 0h4v4h-4zm6 0h4v4h-4zm6 0h4v4h-4zm6 0h4v4h-4zm6 0h4v4h-4zm6 0h4v4h-4zm6 0h4v4h-4zm6 0h4v4h-4zm6 0h4v4h-4zm6 0h4v4h-4zm6 0h4v4h-4zm6 0h4v4h-4zm6 0h4v4h-4zm6 0h4v4h-4zm6 0h4v4h-4zm6 0h4v4h-4zm6 0h4v4h-4zm6 0h4v4h-4zm6 0h4v4h-4zm6 0h4v4h-4zm6 0h4v4h-4zm6 0h4v4h-4zm6 0h4v4h-4zm6 0h4v4h-4zm6 0h4v4h-4zm6 0h4v4h-4zm6 0h4v4h-4z"/><rect fill="#FFF" x="7" y="29" width="172" height="278" rx="2"/></g><path d="M650.009 736.34h2.375v-2.159h-2.375v2.16zm-2.807 0h2.375v-2.159h-2.375v2.16zm-2.807 0h2.375v-2.159h-2.375v2.16zm-2.806 0h2.375v-2.159h-2.375v2.16zm-2.807 0h2.375v-2.159h-2.375v2.16zm2.807-2.59h2.375v-2.16h-2.375v2.16zm2.806 0h2.375v-2.16h-2.375v2.16zm2.807 0h2.375v-2.16h-2.375v2.16zm0-2.591h2.375V729h-2.375v2.159zm12.318 3.923c-.518-.347-1.71-.475-2.627-.302-.118-.864-.6-1.612-1.475-2.29l-.504-.335-.336.504c-.43.648-.644 1.547-.574 2.408.032.304.131.846.443 1.322-.312.168-.928.399-1.74.383H637.09l-.03.18c-.148.866-.145 3.568 1.61 5.645 1.333 1.579 3.333 2.38 5.942 2.38 5.657 0 9.843-2.605 11.803-7.338.77.015 2.43.004 3.282-1.625.022-.037.073-.135.222-.443l.082-.17-.48-.32z" fill="#A3A3A3"/><g fill="#A3A3A3"><path d="M646.883 770.606a.34.34 0 0 0-.393-.259l-.003-.004-1.987.337c.307.849.88 1.54 1.6 2.002l.77-1.86-.006-.007a.336.336 0 0 0 .019-.21m-.661-1.431a.34.34 0 0 0 .134-.583l.001-.008-1.511-1.353a3.964 3.964 0 0 0-.563 2.509l1.938-.56.001-.006zm.883-1.526a.34.34 0 0 0 .539-.26l.008-.004.114-2.019a3.965 3.965 0 0 0-2.32 1.111l1.654 1.174.004-.002zm.585 2.12l.558.268.556-.268.138-.6-.385-.481h-.619l-.386.48zm1.157-2.386a.34.34 0 0 0 .54.259l.005.002 1.645-1.166a3.998 3.998 0 0 0-2.307-1.112l.114 2.016h.002z"/><path d="M655.02 770.867c-.047.205-.27.33-.497.28h-.006l-.007-.002c-.032-.007-.072-.014-.1-.022-.132-.035-.227-.088-.345-.133-.255-.091-.466-.168-.671-.197-.105-.009-.158.041-.216.08a5.777 5.777 0 0 0-.164-.03 5.008 5.008 0 0 1-2.22 2.792c.02.044.05.139.065.155-.024.065-.06.127-.03.227.075.194.196.383.342.611.07.106.142.187.206.307l.05.104c.1.211.027.455-.163.547-.192.092-.43-.006-.533-.218-.014-.03-.035-.07-.047-.099-.055-.125-.074-.232-.112-.353-.087-.256-.16-.468-.264-.647-.059-.087-.13-.098-.197-.12l-.082-.147a4.993 4.993 0 0 1-3.552-.01l-.087.159c-.065.017-.127.034-.166.08-.14.168-.196.436-.298.692-.038.12-.056.228-.11.353l-.048.097v.001l-.001.001c-.103.212-.34.31-.532.217-.19-.091-.262-.335-.163-.547.014-.03.034-.075.05-.103.063-.12.135-.203.206-.308.145-.228.273-.432.348-.626.019-.064-.01-.153-.034-.218l.07-.167a5.009 5.009 0 0 1-2.22-2.772l-.168.029c-.045-.025-.135-.085-.221-.078-.206.03-.416.106-.671.197-.118.045-.214.097-.346.132-.027.008-.067.016-.099.023l-.007.002-.006.001c-.228.05-.45-.076-.497-.281-.047-.206.099-.414.326-.469l.006-.002h.003c.032-.008.073-.019.103-.024.134-.026.243-.02.369-.03.269-.028.492-.051.69-.113.063-.026.123-.113.165-.167l.161-.047a4.98 4.98 0 0 1 .786-3.472l-.124-.11c-.008-.049-.018-.16-.077-.223-.151-.142-.342-.26-.572-.402-.11-.064-.21-.106-.32-.186l-.08-.065-.005-.004c-.185-.147-.227-.401-.095-.567a.37.37 0 0 1 .307-.136.458.458 0 0 1 .268.101c.027.021.062.048.086.069.103.088.166.176.253.268.19.193.347.353.52.47.09.052.159.03.228.021l.139.1a4.95 4.95 0 0 1 3.21-1.545l.01-.162a.42.42 0 0 0 .124-.2c.017-.206-.01-.429-.042-.698-.018-.125-.048-.23-.053-.366v-.108c0-.237.172-.429.385-.429.212 0 .385.192.385.428 0 .034.002.079 0 .11-.005.136-.034.24-.052.365-.032.269-.06.492-.044.699.015.103.076.144.126.192l.01.172a5.044 5.044 0 0 1 3.194 1.544l.147-.105c.05.003.158.018.233-.025.172-.116.33-.277.519-.47.087-.092.15-.18.254-.269l.086-.068c.184-.147.441-.132.574.034.132.167.09.42-.095.568-.026.02-.06.05-.085.068-.11.081-.21.123-.32.187-.23.142-.42.26-.572.402-.071.076-.066.149-.072.218l-.137.122a4.982 4.982 0 0 1 .802 3.464l.155.046c.028.04.086.135.167.167.198.062.42.085.69.113.126.01.235.004.369.03.032.006.079.018.112.026.227.055.372.263.325.469m2.447.084l-1.59-6.902a1.222 1.222 0 0 0-.665-.827l-6.43-3.071a1.239 1.239 0 0 0-1.068 0l-6.43 3.072a1.221 1.221 0 0 0-.666.828l-1.586 6.901a1.211 1.211 0 0 0 .237 1.032l4.45 5.534c.234.29.588.46.962.46l7.137-.002c.374 0 .728-.169.962-.459l4.449-5.534c.233-.29.32-.67.238-1.032"/><path d="M651.64 767.231l-1.504 1.346v.004a.34.34 0 0 0 .133.583l.003.008 1.947.561c.041-.42.016-.855-.084-1.29a4.013 4.013 0 0 0-.496-1.212m-3.093 4.104a.337.337 0 0 0-.31-.178.34.34 0 0 0-.288.179h-.001l-.977 1.766a3.98 3.98 0 0 0 2.563.003l-.98-1.77h-.007zm1.455-.995a.338.338 0 0 0-.208.028.34.34 0 0 0-.164.44l-.003.002.778 1.88a3.97 3.97 0 0 0 1.605-2.016l-2.005-.339-.003.004z"/></g><g fill-rule="nonzero"><path d="M476 225l.038-70.382a2.799 2.799 0 0 1 2.799-2.798l54.217-.001c1.119-.44.72-.72.56-1-3.48-5.759-5.758-11.957-6.638-18.675-1.959-15.396 2.4-28.793 12.874-40.27.6-.64 1.2-1.24 1.84-1.84.52-.52.52-.52.04-1-1.64-1.559-3.119-3.278-4.358-5.198-2.8-4.439-4.358-9.277-4.478-14.556-.04-1.32.24-1.48 1.439-.88 1.28.64 2.599 1.2 3.998 1.64.16-2.32-.12-4.24-.16-6.199 0-.72-.04-1.4 0-2.12 0-.999.36-1.239 1.24-.719 1.399.8 2.798 1.52 4.278 2.12.88.36.88.36.8-.6-.24-2.52-.28-5.039 0-7.558.24-.96.679-1.12.999-.84.24.2.4.48.6.72 3.078 3.839 6.517 7.278 10.635 10.037 3.598 2.4 7.476 3.72 11.794 3.76 3.239.04 6.357-.64 9.356-1.8 2.799-1.08 5.597-2.2 8.516-2.84 2.958-.64 5.957-.92 8.916-.2 5.037 1.24 8.436 4.48 10.555 9.118.8 1.76 1.24 3.6 1.52 5.519.12.72.12.72.879.68 4.398-.32 8.636.36 12.474 2.639 4.598 2.759 7.157 6.918 8.156 12.077.72 3.799.52 7.558-.08 11.357-.48 2.959-1.28 5.878-2.239 8.717-.24.72-.4.68.48 1 4.478 1.52 7.277 4.6 8.076 9.238 1.12 6.358-2.958 11.997-8.876 13.396-1.08.24-2.199.4-3.318.28-.48-.08-.64.16-.76.6-.84 3.04-1.999 5.999-3.398 8.838-2.879 5.718-6.717 10.637-11.515 14.836-1.08.76-1.16 1.2-.92 1.8.56 1.56 1.04 3.159 1.56 4.718 3.238 10.078 6.517 20.115 9.715 30.193.24.72.56 1 1.28 1.12 3.158.68 5.157 2.639 5.997 5.758.16.68.28 1.4.4 2.08.76-.44 1.08-.88 1.56-1.28 1.358-1.12 2.878-1.36 4.517-.8 1.68.6 2.679 1.84 2.919 3.599.08.6.24.76.84.84 2.798.44 4.437 3.199 3.518 5.918-.24.68-.16 1.16.32 1.72 1.239 1.48 1.959 3.199 2.198 5.119.12.84 0 .84.92.84h16.512c0-1.68-.52-3-.8-4.44-1.878.12-3.158.44-4.397.84-.72.24-1.08.08-1.2-.32-.12-.36.16-.64.84-.84 1.16-.36 2.319-.68 3.478-1.04 1.16-.36.96-.08.96-1.359.04-.6-.2-.68-.52-.68H651.2c-1.04-.04-1.2-.24-1.2-.56.76-.6.96-.56 1.2-.56h5.677c.52 0 .72-.16.8-.68.2-1.359.24-1.359-1.12-1.759-1.12-.36-2.279-.68-3.398-1-.88-.36-1-.6-.92-.88.88-.4 1.12-.32 1.4-.24 1.36.4 2.678.8 4.038 1.24 1.839-2.839 3.398-4.838 5.517-6.358.4-.28.48-.6.48-1.04V191.69c.08-.56.48-.76.96-.48 3.958 3.679 7.436 6.918 10.875 10.117.92.88.64.88 1.679.12a21.562 21.562 0 0 1 24.988 0c.96.68.68.84 1.72-.12 3.518-3.24 6.996-6.438 10.515-9.677.32-.28.6-.76 1.119-.56.56.2.36.76.36 1.16v17.955c0 1.16 0 1.16 1.08.84.959-.28 1.878-.56 2.838-.84 1.36.56 1.28.84.92.96l-2.28.72-2.038.6c-.56.919-.56 1.519-.52 2.079 2.879.24 4.638.24 6.397.24 1 .12 1.2.32 1.16.6-.72.56-1 .56-1.24.56h-5.557c-.8 0-.84 0-.84.76 0 1.239-.08.959.96 1.279 1.079.36 2.198.64 3.318 1 .92.4 1.04.64.92.96-2.36-.12-3.439-.48-4.558-.8-.64 1.64-.64 2.799-.64 3.998 0 .44.12.68.6.64h17.272c.44 0 .88-.04 1.319.2v.76c-1 .24-1.28.24-1.6.24H476z" fill="#151D38"/><path d="M522.38 218v-.08h44.573c1.046 0 1.046 0 1.046-1.035v-62.036c-.04-1.075-.643-1.712-1.728-1.831-.362-.04-.724 0-1.045 0H479.09c-1.487.04-2.09.677-2.09 2.11v61.916c0 .916 0 .916.965.916h.683c14.55.04 29.14.04 43.731.04z" fill="#CCD6DA"/><path d="M551.226 151.81h14.533c1.514 0 2.668.883 2.947 2.247.08.36.08.682.08 1.043v16.567c0 .923.08.883.796.963 5.853.722 11.627.401 17.321-1.083 12.981-3.41 22.816-11.032 29.546-22.665 1.911-3.29 3.344-6.82 4.38-10.51.199-.722.199-.722-.478-.923l-1.075-.36c-.677-.281-.876-.522-.757-.923.12-.441.478-.482 1.195-.24 1.911.721 3.822.882 5.813.52 5.894-1.163 9.676-7.18 8.123-12.997-1.592-5.937-7.724-9.306-13.458-7.38-.28.08-.518.24-.797.28-.278.04-.478-.12-.597-.36-.12-.282-.04-.522.16-.683.159-.12.318-.2.517-.24.438-.161.836-.281 1.274-.402.08-.04.2-.08.239-.16.08-.2-.12-.16-.239-.2-.16-.08-.358-.121-.557-.201-2.987-1.043-5.854-2.367-8.482-4.132-4.778-3.129-8.481-7.22-10.87-12.476-1.115-2.487-1.872-5.094-2.31-7.822-.12-.802-.159-.802-.836-.441a5.99 5.99 0 0 0-.677.4c-3.544 2.087-7.167 3.852-10.99 5.296-8.242 3.089-16.684 4.332-25.404 2.768-6.053-1.083-11.707-3.25-16.644-7.06-.638-.482-.638-.482-1.155.04-4.46 4.292-8.004 9.226-10.552 14.842-3.942 8.785-5.137 17.931-3.663 27.439.995 6.458 3.304 12.435 6.729 17.97.398.683.836.964 1.672.964 4.699-.12 9.437-.08 14.216-.08z" fill="#FAE0D6"/><path d="M569.046 196.011v21.716c0 .482.12.683.64.683 1.08-.04 2.16 0 3.279 0 4.039 0 8.078-.04 12.077-.04.84 0 .92.12.92.965v3.941c0 .644-.08.724.64.724h15.435c.52 0 .64-.201.68-.643.16-1.448.6-2.856 1.36-4.102.28-.443.32-.845.12-1.368-.84-2.493-1.64-5.026-2.44-7.52-1.959-6.112-3.958-12.225-5.918-18.337a3.969 3.969 0 0 1-.2-.644c-.08-.362.08-.643.44-.723.32-.08.56.08.68.361l.12.362 4.199 13.03c1.32 4.102 2.64 8.203 3.999 12.265.24.684.24.724.76.241 1.44-1.407 3.119-2.332 5.078-2.774.6-.161.64-.161.48-.765-.32-1.327-.68-2.694-.96-4.02-.92-4.022 1.52-8.164 5.479-9.21.24-.08.52-.08.76-.16.28-.041.4-.202.28-.483-.04-.161-.08-.322-.16-.443-3.12-9.732-6.279-19.504-9.398-29.235-.56-1.81-1.16-3.62-1.76-5.43-.12-.401-.32-.562-.64-.2-.12.12-.24.2-.4.281-2.638 1.97-5.478 3.7-8.477 5.067-5.839 2.694-11.997 4.223-18.435 4.464-2.72.12-5.439.08-8.118-.322-.44-.08-.6.08-.56.483v.764c.04 7.037.04 14.075.04 21.072z" fill="#FFF3A2"/><path d="M696.629 223.92h17.513c.838 0 .838 0 .838-.85v-29.592c0-.162.08-.364-.08-.445-.24-.121-.319.121-.478.243-2.155 2.021-4.309 4.002-6.503 6.023-1.317 1.213-2.633 2.466-3.95 3.68-.558.525-.638.484-1.236.08-.2-.121-.36-.283-.52-.404-3.15-2.386-6.661-3.8-10.571-4.083-5.226-.405-9.974 1.05-14.162 4.285-.918.727-.918.727-1.756-.04a.552.552 0 0 0-.16-.122 2090.163 2090.163 0 0 0-9.534-8.975c-.24-.242-.479-.687-.798-.566-.24.122-.12.566-.12.89v10.47c0 .485-.04.89-.558 1.213-5.745 3.921-7.101 11.562-3.75 17.464.319.566.678.809 1.356.809 4.229-.04 8.498 0 12.726-.04.28 0 .679.12.798-.122.12-.242-.279-.444-.478-.647-2.075-2.263-2.713-4.891-1.836-7.802.878-2.91 2.913-4.649 5.785-5.336.599-.162 1.197-.243 1.795-.162.32.04.519.243.519.606 0 .283-.16.486-.479.526-.359.04-.678.08-1.037.121-2.753.364-5.106 2.466-5.665 5.175a6.704 6.704 0 0 0 2.992 7.115 3.714 3.714 0 0 0 1.995.566c5.904-.121 11.649-.08 17.354-.08z" fill="#C27659"/><path d="M522.453 219.042c-8.157.036-16.314.036-24.472.036h-20.413c-.402 0-.603.142-.563.499v2.14c0 1.283 0 1.283 1.447 1.283 11.452 0 22.945 0 34.397-.036 17.882 0 35.724-.035 53.606-.035h.764c.562-.036.763-.214.763-.713.04-.928 0-1.819 0-2.746 0-.392-.2-.5-.603-.464h-.683c-4.26 0-8.479.036-12.738.036h-31.505zm99.508 4.918h17.559c.355.04.514-.082.474-.488-.198-1.707-.79-3.252-1.819-4.634-.158-.243-.316-.203-.395.082-.04.122-.08.244-.159.365-1.305 2.805-4.547 3.577-6.92 1.626-.435-.366-.712-.447-1.226-.203-1.463.61-2.847.406-4.152-.488-1.385-.975-2.017-2.357-1.899-4.105.04-.61 0-.65-.514-.487-1.226.325-2.372.203-3.48-.447-.277-.163-.514-.163-.83-.163-1.82 0-3.678-.04-5.497 0-4.192.081-7.79 3.048-8.858 7.234a7.954 7.954 0 0 0-.238 1.342c-.04.284.08.406.356.406h.752c5.655-.04 11.27-.04 16.846-.04z" fill="#CCD6DA"/><path d="M615.007 213.287h2.188c.289 0 .454-.077.33-.386-.826-2.127-.95-4.408-1.445-6.612-.124-.502.083-.812.454-.889.372-.077.62.155.743.657.124.503.207 1.044.29 1.547.247 1.314.453 2.629.742 3.905.413 1.74 2.106 2.745 3.964 2.435 1.816-.348 2.972-1.894 2.683-3.634-.248-1.508-.496-2.977-.867-4.446-.784-3.286-4.293-5.374-7.802-4.756-3.344.58-5.78 3.867-5.202 7.076.29 1.546.784 3.054 1.156 4.6.083.349.289.503.702.503h2.064zm9.993 3.36c.082 1.124.45 2.007 1.348 2.649 1.88 1.364 4.413.682 5.23-1.485a301.196 301.196 0 0 0 2.248-6.46c.082-.24.122-.482.163-.763.123-1.564-.817-2.969-2.37-3.45-1.511-.442-3.187.2-3.922 1.605-.49.963-.9 2.006-1.063 3.09a6.408 6.408 0 0 1-.776 2.246c-.49.843-.776 1.726-.858 2.568z" fill="#FAE0D6"/><path d="M576.838 223v-.036h7.472c.406-.036.69-.18.69-.577v-3.027c0-.252-.162-.36-.447-.36h-9.908c-1.665 0-3.33.036-4.955.036-.487 0-.69.144-.69.577.04.9 0 1.801 0 2.666 0 .685 0 .721.812.721h7.026z" fill="#CCD6DA"/><path d="M638 215.398c0-1.79-1.151-3.074-2.9-3.347-.767-.116-.852-.077-1.108.584-.469 1.245-.895 2.49-1.364 3.697-.426 1.09-.64 2.295-1.492 3.23-.299.31-.043.505.17.7 1.791 1.362 4.52.778 5.458-1.245.426-.934.767-1.907 1.108-2.88.128-.311.128-.623.128-.74z" fill="#FAE0D6"/><path d="M533.982 186.205c-.317 4.863-3.328 8.491-7.766 9.528-5.707 1.355-11.334-2.592-12.126-8.452-.674-4.943 2.496-9.967 7.648-11.163 1.11-.239 1.189-.199 1.347.917.674 3.788 3.21 6.578 6.895 7.415.872.2 1.744.24 2.655.16 1.189-.12 1.308 0 1.347 1.196.04.2 0 .399 0 .399z" fill="#151D38"/><path d="M524.175 195c.607-.041 1.415-.123 2.223-.328 3.597-.983 6.427-4.424 6.588-8.111.04-.82.04-.82-.727-.82-4.81.082-9.013-3.195-10.104-7.947-.243-1.065-.364-.82-1.01-.614-4.164 1.392-6.75 5.735-6.023 10.2.687 4.342 4.527 7.66 9.053 7.62z" fill="#FFF"/><path d="M567.814 115.365h13.172c2.018 0 4.035.08 6.053.121.949.04 1.186.365.751 1.175-2.967 5.632-7.318 9.562-13.528 10.9-6.25 1.336-11.749-.406-16.456-4.822-1.86-1.742-3.284-3.85-4.43-6.159-.12-.243-.238-.446-.317-.689-.158-.486 0-.729.514-.85.198-.041.396-.041.554-.041l11.67.122c.672 0 1.305.08 1.977.08.04.082.04.122.04.163z" fill="#151D38"/><path d="M571.073 116.154h-3.574c-1.486 0-2.932 0-4.418-.077-2.53-.077-5.06-.077-7.59-.077-.562 0-.602.039-.32.502a18.183 18.183 0 0 0 3.855 4.824c4.417 3.86 9.557 5.442 15.42 4.322 5.381-1.042 9.317-4.052 12.208-8.452.522-.81.522-.849-.482-.849-5.02-.077-10.08-.154-15.1-.193z" fill="#FFF"/><path d="M533 121.5c0-3.27 2.452-6.46 6.539-6.5 3.58-.039 6.461 2.92 6.461 6.5 0 3.62-2.88 6.5-6.5 6.5-3.58-.039-6.5-2.92-6.5-6.5zm76.99 1.02c.156 3.123-2.535 6.441-6.475 6.48-3.59 0-6.476-2.889-6.515-6.48 0-3.67 2.848-6.519 6.515-6.519 3.862-.078 6.67 3.24 6.475 6.52z" fill="#E5384A"/><path d="M548.478 107c1.975 0 3.564 1.546 3.521 3.521.001 1.933-1.546 3.479-3.435 3.479-1.975 0-3.564-1.546-3.564-3.521 0-1.89 1.546-3.436 3.478-3.479zm45.044 1c1.975 0 3.478 1.546 3.478 3.564-.043 1.932-1.589 3.478-3.521 3.435-1.89 0-3.478-1.588-3.478-3.478a3.43 3.43 0 0 1 3.52-3.52zM630 126.06c-.04 4.067-4.209 6.933-8.177 5.616a1.449 1.449 0 0 1-.36-.155c-.402-.155-.562-.426-.402-.813.12-.349.481-.387.802-.31.2.039.44.155.641.194 2.766.736 5.652-.969 6.213-3.641.561-2.75-1.363-5.346-4.209-5.733-.24-.039-.52-.077-.761-.116-.28-.039-.441-.271-.441-.543 0-.348.2-.503.521-.542.2-.039.44 0 .681 0 3.167.349 5.532 2.944 5.491 6.043zm-59.002-19.375c0 .284-.223.447-.483.568a68.82 68.82 0 0 1-2.378 1.3c-.334.162-.408.324-.074.568.669.487 1.3 1.014 1.969 1.501.186.122.334.244.483.406.186.203.186.487.037.731s-.371.284-.631.203a.761.761 0 0 1-.372-.244c-1.003-.77-2.043-1.542-3.046-2.354-.706-.568-.669-.974.111-1.42 1.115-.65 2.266-1.259 3.418-1.868.557-.203 1.003 0 .966.609zM540 108.924c.114-2.898 2.01-5.3 4.703-5.837.304-.083.607-.125.91-.042.228.042.38.249.38.497.038.29-.076.538-.341.62a5.256 5.256 0 0 1-.797.166c-2.048.456-3.414 2.112-3.641 4.347-.038.249-.038.456-.038.704-.038.373-.19.621-.57.621-.378 0-.53-.29-.568-.662-.038-.125-.038-.249-.038-.414zm61-.021c0 .162 0 .447-.04.69-.077.285-.273.407-.547.407s-.47-.163-.509-.447c-.039-.203 0-.407-.039-.57-.117-2.397-1.643-4.226-3.913-4.673-.117-.04-.234-.04-.352-.081-.391-.082-.665-.285-.587-.732.079-.447.43-.528.783-.488 1.33.163 2.465.691 3.443 1.626 1.096 1.179 1.683 2.56 1.761 4.268zm88.66 112.088c-1.5-.043-2.514-.472-3.285-1.503-.324-.387-.446-.387-.77 0-1.42 1.675-3.488 1.976-5.15.816-.568-.387-1.015-.945-1.339-1.59-.162-.343-.203-.773.203-.988.405-.214.649 0 .851.387.122.258.284.515.487.773 1.338 1.504 3.69 1.031 4.42-.859.163-.43.203-.687-.324-.816-.73-.215-1.176-.816-1.663-1.375a1.489 1.489 0 0 1-.365-.816c-.121-.601.082-.988.69-.988 1.703-.043 3.447-.043 5.15 0 .568 0 .77.387.609.988-.244.988-.974 1.504-1.704 2.02-.243.17-.649.128-.73.429-.08.386.163.773.406 1.117 1.095 1.589 3.285 1.589 4.42 0 .122-.172.244-.43.365-.602.203-.3.487-.343.77-.215.285.172.366.473.244.774a4.074 4.074 0 0 1-1.095 1.546c-.73.601-1.54.945-2.19.902zm13.34-10.99c1.715 0 3 1.328 3 2.999 0 1.714-1.371 3.042-3.085 2.999-1.671-.043-2.957-1.371-2.914-3.085-.043-1.67 1.286-2.956 3-2.913zM667.979 216c-1.66 0-2.979-1.277-2.979-2.979 0-1.702 1.234-2.978 2.936-3.021 1.745 0 3.064 1.277 3.064 2.979-.043 1.702-1.32 3.021-3.021 3.021z" fill="#151D38"/></g><path d="M556 563.531c0 .811-.501 1.469-1.12 1.469H397.12c-.62 0-1.12-.658-1.12-1.469V440a5 5 0 0 1 5-5h150a5 5 0 0 1 5 5v123.531z" fill="#FF003C"/><path d="M401 435h150a5 5 0 0 1 5 5v18H396v-18a5 5 0 0 1 5-5z" fill="#CCC"/><path d="M413 447.5a4.5 4.5 0 1 1-9 0 4.5 4.5 0 0 1 9 0" fill="#E74C3C"/><path d="M429 447.5a4.5 4.5 0 1 1-9 0 4.5 4.5 0 0 1 9 0" fill="#F1C40F"/><path d="M444 447.5a4.5 4.5 0 1 1-9 0 4.5 4.5 0 0 1 9 0" fill="#2ECC71"/><path d="M805 563.531c0 .811-.501 1.469-1.12 1.469H646.12c-.62 0-1.12-.658-1.12-1.469V440a5 5 0 0 1 5-5h150a5 5 0 0 1 5 5v123.531z" fill="#FF003C"/><path d="M650 435h150a5 5 0 0 1 5 5v18H645v-18a5 5 0 0 1 5-5z" fill="#CCC"/><path d="M662 447.5a4.5 4.5 0 1 1-9 0 4.5 4.5 0 0 1 9 0" fill="#E74C3C"/><path d="M678 447.5a4.5 4.5 0 1 1-9 0 4.5 4.5 0 0 1 9 0" fill="#F1C40F"/><path d="M693 447.5a4.5 4.5 0 1 1-9 0 4.5 4.5 0 0 1 9 0" fill="#2ECC71"/><rect fill="#EEE" x="140" y="277" width="678" height="81" rx="3"/><path fill="#F68D11" d="M444.99 310l-7.99-2.625V296l8 2.333zm2.01-11.667l8-2.333-.028 11.367L447 310zM445.954 293L439 295.154l6.964 1.846 7.036-1.846zm19.036 17l-7.99-2.625V296l8 2.333zm1.01-11.667l8-2.333-.028 11.367L466 310zM464.954 293L458 295.154l6.964 1.846 7.036-1.846zM408 324.375l7.99 2.625.01-11.667-8-2.333zm10-9.042l8-2.333-.028 11.367L418 327zm6-4.179L416.954 309 410 311.154l6.964 1.846zM434.99 327l-7.99-2.625V313l8 2.333zm2.01-11.667l8-2.333-.028 11.367L437 327zm6-4.179L435.954 309 429 311.154l6.964 1.846zm-25 29.221l7.991 2.625.009-11.667-8-2.333zm9-9.042V343l7.972-2.632L435 329zm6-3.179L425.954 326 419 328.154l6.964 1.846z"/><path d="M459.392 333.104l-.571.002c-.21 0-.477.141-.542.37l-1.732 6.087-1.713-6.073c-.051-.19-.231-.384-.476-.384h-.676c-.243 0-.42.196-.47.388l-1.594 6.01-1.646-6.03c-.065-.22-.339-.368-.553-.368h-.822a.526.526 0 0 0-.426.195.283.283 0 0 0-.048.256l2.543 8.984c.056.188.22.379.46.379h.817c.221 0 .414-.16.47-.388l1.566-5.984 1.703 5.99c.052.184.217.382.458.382h.803a.483.483 0 0 0 .468-.382l2.448-8.977a.29.29 0 0 0-.046-.263.52.52 0 0 0-.421-.194m4.963-.064c-2.915 0-4.243 2.571-4.243 4.96 0 2.98 1.65 4.907 4.205 4.907 1.828 0 3.221-.922 3.823-2.532a.339.339 0 0 0-.028-.281.476.476 0 0 0-.315-.221l-.81-.155c-.216-.034-.465.095-.548.281-.393.894-1.11 1.402-2.008 1.428a2.331 2.331 0 0 1-2.024-1.305c-.296-.626-.34-1.243-.345-1.87l5.86-.002a.49.49 0 0 0 .34-.145.37.37 0 0 0 .114-.262c-.014-2.322-1.078-4.803-4.021-4.803m2.1 3.878h-4.315c.1-1.208.886-2.46 2.218-2.509 1.418.046 2.066 1.27 2.098 2.51m7.379-3.962h-.155c-.968 0-1.728.4-2.312 1.223v-3.787c0-.213-.22-.407-.464-.407h-.843c-.22 0-.466.174-.467.407v11.82c.001.216.221.411.464.411l.247-.001c.234 0 .4-.188.457-.362l.263-.835c.613.867 1.535 1.377 2.522 1.377h.15c2.6 0 3.764-2.523 3.764-5.023 0-1.244-.307-2.434-.843-3.264-.62-.961-1.686-1.56-2.783-1.56m1.749 5.058c0 .55-.1 3.296-2.056 3.366-.655-.025-1.318-.41-1.688-.977-.272-.43-.431-1.024-.472-1.76v-1.615c.032-1.238.905-2.596 2.154-2.649 1.963.078 2.062 3.041 2.062 3.635m11.103-.266c-.548-.393-1.207-.524-1.866-.655l-1.266-.234c-.908-.15-1.433-.392-1.433-1.191 0-.845.877-1.168 1.622-1.188.908.023 1.592.427 1.923 1.139.08.167.254.28.436.28a.444.444 0 0 0 .092-.01l.79-.174a.489.489 0 0 0 .313-.231.337.337 0 0 0 .033-.279c-.484-1.404-1.71-2.146-3.566-2.146-1.677.004-3.469.748-3.469 2.825 0 1.42.895 2.32 2.66 2.68l1.417.27c.777.147 1.572.411 1.572 1.244 0 1.233-1.438 1.359-1.873 1.368-.975-.021-2.08-.455-2.348-1.374-.053-.203-.308-.345-.532-.299l-.826.17a.476.476 0 0 0-.304.216.36.36 0 0 0-.046.285c.426 1.525 1.902 2.444 3.948 2.46h.046c1.827 0 3.78-.78 3.78-2.97 0-.891-.403-1.688-1.103-2.186m6.251-4.699c-2.916 0-4.244 2.57-4.244 4.959 0 2.98 1.65 4.906 4.206 4.906 1.828 0 3.221-.921 3.824-2.53a.34.34 0 0 0-.029-.283.474.474 0 0 0-.315-.22l-.81-.155c-.19-.03-.454.067-.547.281-.394.894-1.11 1.401-2.009 1.429a2.33 2.33 0 0 1-2.023-1.306c-.296-.624-.34-1.241-.345-1.87l5.859-.002a.49.49 0 0 0 .338-.143.37.37 0 0 0 .115-.264c-.013-2.322-1.076-4.802-4.02-4.802m2.102 3.878h-4.317c.098-1.209.885-2.462 2.217-2.508 1.417.045 2.067 1.268 2.1 2.508m7.45-3.769a3.005 3.005 0 0 0-.33-.019c-.984 0-1.782.533-2.336 1.552l.002-.892c-.001-.216-.217-.406-.463-.406h-.732c-.24 0-.451.19-.453.41l-.001 8.666c0 .217.212.409.453.409h.854c.222 0 .472-.175.474-.409v-4.37c0-.72.068-1.262.413-1.905.493-.914 1.182-1.363 2.105-1.37a.447.447 0 0 0 .434-.432v-.81c0-.213-.185-.399-.42-.424m8.964-.17h-.674c-.211 0-.482.151-.548.373l-2.185 6.852-2.232-6.845c-.066-.227-.337-.38-.55-.38l-.962-.001a.545.545 0 0 0-.435.2.281.281 0 0 0-.046.26l3.054 9.038c.059.179.215.388.46.388h1.166c.214 0 .39-.145.47-.389l2.962-9.034a.281.281 0 0 0-.045-.26.543.543 0 0 0-.435-.202m2.216-3.475a1.127 1.127 0 0 0 0 2.253c.62 0 1.126-.505 1.126-1.126 0-.622-.506-1.127-1.127-1.127m.464 3.42l-.925-.002c-.251 0-.48.204-.48.426l-.005 9.202c0 .111.058.222.157.304a.52.52 0 0 0 .325.118l.931.001c.256-.002.48-.2.48-.422v-9.203c0-.226-.226-.424-.483-.424m8.64 6.24l-.772.003a.499.499 0 0 0-.477.353c-.282 1.214-.92 1.842-1.89 1.87-1.885-.056-2.032-2.679-2.032-3.481 0-1.6.556-3.327 2.107-3.373.936.029 1.617.698 1.822 1.79.038.222.21.39.444.42l.826.008c.247-.027.44-.213.439-.444-.292-1.972-1.662-3.247-3.493-3.247l-.064.002-.071-.002c-2.663 0-3.855 2.479-3.855 4.936 0 2.252 1.005 4.882 3.84 4.882h.136c1.785 0 3.132-1.248 3.518-3.272a.363.363 0 0 0-.093-.271.546.546 0 0 0-.385-.174m5.523-6.124c-2.916 0-4.243 2.57-4.243 4.959 0 2.98 1.65 4.906 4.205 4.906 1.828 0 3.22-.92 3.824-2.53a.344.344 0 0 0-.03-.283.47.47 0 0 0-.314-.22l-.81-.155c-.19-.03-.453.067-.547.281-.394.894-1.111 1.401-2.01 1.43a2.331 2.331 0 0 1-2.022-1.307c-.296-.625-.34-1.242-.345-1.87l5.859-.001a.49.49 0 0 0 .34-.145.37.37 0 0 0 .114-.263c-.014-2.322-1.077-4.802-4.021-4.802m2.102 3.878h-4.318c.099-1.21.886-2.462 2.219-2.508 1.417.045 2.066 1.268 2.099 2.508m9.259.821c-.55-.393-1.209-.524-1.867-.655l-1.265-.234c-.908-.15-1.433-.392-1.433-1.191 0-1.09 1.356-1.18 1.62-1.188.91.023 1.593.427 1.924 1.139.08.167.255.28.437.28a.454.454 0 0 0 .093-.01l.79-.174a.488.488 0 0 0 .312-.231.337.337 0 0 0 .032-.279c-.482-1.404-1.71-2.146-3.566-2.146-1.676.004-3.467.748-3.467 2.825 0 1.42.894 2.321 2.66 2.68l1.416.27c.777.147 1.573.411 1.573 1.244 0 1.233-1.439 1.359-1.873 1.368-.905-.02-2.062-.392-2.348-1.373-.052-.204-.307-.346-.535-.3l-.824.17a.48.48 0 0 0-.305.217.36.36 0 0 0-.045.284c.425 1.525 1.9 2.444 3.947 2.46h.045c1.828 0 3.78-.78 3.78-2.97 0-.892-.401-1.689-1.101-2.186m-37.585-22.533v-2.09a.519.519 0 0 1 .532-.529h9.385c.3 0 .541.218.541.527v1.792c-.003.3-.257.693-.707 1.315l-4.86 6.924c1.803-.043 3.712.227 5.351 1.146.37.207.469.514.5.815v2.23c0 .307-.338.662-.692.477-2.889-1.51-6.722-1.674-9.917.017-.326.174-.668-.176-.668-.483v-2.119c0-.338.007-.919.349-1.436l5.633-8.06h-4.904c-.3 0-.54-.213-.543-.526m-34.233 13.047h-2.856a.537.537 0 0 1-.51-.483l.002-14.618c0-.292.247-.526.55-.526l2.66-.001a.54.54 0 0 1 .52.49v1.91h.053c.692-1.845 1.998-2.705 3.757-2.705 1.785 0 2.905.86 3.705 2.707.693-1.847 2.265-2.707 3.945-2.707 1.2 0 2.504.491 3.304 1.598.906 1.231.72 3.014.72 4.584l-.003 9.225a.538.538 0 0 1-.55.527h-2.851a.536.536 0 0 1-.513-.526v-7.75c0-.615.052-2.153-.08-2.737-.214-.985-.854-1.26-1.68-1.26-.693 0-1.413.46-1.706 1.197-.293.74-.266 1.97-.266 2.8v7.749a.539.539 0 0 1-.55.527h-2.853a.536.536 0 0 1-.512-.526l-.004-7.75c0-1.63.267-4.028-1.758-4.028-2.052 0-1.972 2.337-1.972 4.028l-.002 7.749a.537.537 0 0 1-.55.527m52.771-15.935c4.237 0 6.53 3.63 6.53 8.242 0 4.461-2.533 7.999-6.53 7.999-4.158 0-6.424-3.63-6.424-8.152 0-4.553 2.291-8.089 6.424-8.089m.026 2.983c-2.107 0-2.24 2.86-2.24 4.645 0 1.784-.026 5.598 2.214 5.598 2.212 0 2.318-3.076 2.318-4.953 0-1.23-.052-2.706-.425-3.875-.321-1.015-.96-1.415-1.867-1.415m12 12.951h-2.846a.536.536 0 0 1-.513-.526l-.004-14.624a.54.54 0 0 1 .548-.477l2.649-.001c.25.013.455.183.507.41v2.236h.054c.798-2 1.919-2.952 3.89-2.952 1.28 0 2.533.46 3.332 1.722.747 1.168.747 3.136.747 4.55v9.2a.54.54 0 0 1-.546.46h-2.863a.54.54 0 0 1-.509-.46v-7.937c0-1.6.187-3.938-1.786-3.938-.692 0-1.331.463-1.651 1.17-.4.891-.454 1.783-.454 2.768v7.872a.546.546 0 0 1-.555.527m-38.579-3.962c-.454.803-1.176 1.296-1.977 1.296-1.095 0-1.735-.832-1.735-2.066 0-2.425 2.181-2.866 4.246-2.866v.616c0 1.11.027 2.035-.534 3.02m5.62 1.282c-.524-.72-1.08-1.305-1.08-2.64v-4.437c0-1.88.134-3.607-1.254-4.902-1.096-1.048-2.913-1.418-4.3-1.418-2.718 0-5.75 1.012-6.386 4.362-.067.356.192.542.426.595l2.767.299c.259-.012.448-.267.496-.523.238-1.154 1.206-1.71 2.295-1.71.588 0 1.256.214 1.602.739.402.585.348 1.387.348 2.065v.369c-1.655.186-3.82.31-5.368.987-1.79.772-3.045 2.344-3.045 4.655 0 2.96 1.87 4.44 4.274 4.44 2.03 0 3.14-.478 4.707-2.07.518.747.688 1.112 1.636 1.898a.593.593 0 0 0 .674-.066l.008.006c.57-.507 1.606-1.404 2.189-1.891.232-.19.191-.498.01-.758m-43.048-1.282c-.454.803-1.176 1.296-1.976 1.296-1.097 0-1.737-.832-1.737-2.066 0-2.425 2.181-2.866 4.247-2.866v.616c0 1.11.026 2.035-.534 3.02m5.618 1.282c-.522-.72-1.078-1.305-1.078-2.64v-4.437c0-1.88.134-3.607-1.255-4.902-1.095-1.048-2.911-1.418-4.301-1.418-2.717 0-5.749 1.012-6.385 4.362-.067.356.193.542.426.595l2.768.299c.259-.012.447-.267.496-.523.237-1.154 1.206-1.71 2.295-1.71.587 0 1.255.214 1.603.739.4.585.347 1.387.347 2.065v.369c-1.656.186-3.82.31-5.369.987-1.79.772-3.045 2.344-3.045 4.655 0 2.96 1.87 4.44 4.273 4.44 2.03 0 3.141-.478 4.708-2.07.519.747.688 1.112 1.636 1.898a.595.595 0 0 0 .676-.066l.007.006c.569-.507 1.605-1.404 2.189-1.891.232-.19.19-.498.009-.758" fill="#100F0D"/><g transform="translate(223 358)" fill-rule="nonzero"><path fill="#9EEBCF" d="M7-1v39H4V-1z"/><circle stroke="#9EEBCF" stroke-width="3" fill="#FFF" cx="5.5" cy="-1.5" r="6.5"/><path fill="#9EEBCF" d="M5.5 42L0 34h11z"/></g><g transform="translate(471 358)" fill-rule="nonzero"><path fill="#9EEBCF" d="M7-1v39H4V-1z"/><circle stroke="#9EEBCF" stroke-width="3" fill="#FFF" cx="5.5" cy="-1.5" r="6.5"/><path fill="#9EEBCF" d="M5.5 42L0 34h11z"/></g><g transform="translate(720 358)" fill-rule="nonzero"><path fill="#9EEBCF" d="M7-1v39H4V-1z"/><circle stroke="#9EEBCF" stroke-width="3" fill="#FFF" cx="5.5" cy="-1.5" r="6.5"/><path fill="#9EEBCF" d="M5.5 42L0 34h11z"/></g><g fill="#B8E986"><path d="M606 314l-36-65h72z"/><path d="M596 228h20v68h-20z"/></g><path fill="#FFFABD" d="M860 464.2h112.4v22H860z"/><path fill="#F3F3F3" d="M976.4 464.2h86.5v22h-86.5z"/><text font-family="sans-serif" font-size="12" font-weight="bold" fill="#4A4A4A" transform="translate(860 464)"><tspan x="10" y="15.6">Pod name</tspan></text><text font-family="sans-serif" font-size="12" font-weight="bold" fill="#4A4A4A" transform="translate(860 464)"><tspan x="154.731" y="15.6">IP</tspan></text><path fill="#F3F3F3" d="M1066.8 464.2h86.5v22h-86.5z"/><text font-family="sans-serif" font-size="12" font-weight="bold" fill="#4A4A4A" transform="translate(860 464)"><tspan x="235.4" y="15.6">Node</tspan></text><g fill="#4A4A4A" font-family="sans-serif" font-weight="bold"><text font-size="16" transform="translate(870 498.6)"><tspan x="0" y="14">Pod 1</tspan></text><text font-size="14.4" transform="translate(870 498.6)"><tspan x="122.777" y="14.2">10.0.1.1</tspan></text><text font-size="14.4" transform="translate(870 498.6)"><tspan x="212.385" y="14.2">worker2</tspan></text></g><g fill="#4A4A4A" font-family="sans-serif" font-weight="bold"><text font-size="16" transform="translate(870 539.4)"><tspan x="0" y="14">Pod 2</tspan></text><text font-size="14.4" transform="translate(870 539.4)"><tspan x="122.777" y="14.2">10.0.2.1</tspan></text><text font-size="14.4" transform="translate(870 539.4)"><tspan x="212.385" y="14.2">worker3</tspan></text></g><g><path fill="#FFFABD" d="M860 627.2h112.4v22H860z"/><path fill="#F3F3F3" d="M976.4 627.2H1154v22H976.4z"/><text font-family="sans-serif" font-size="12" font-weight="bold" fill="#4A4A4A" transform="translate(860 627)"><tspan x="10" y="15.6">Service name</tspan></text><text font-family="sans-serif" font-size="12" font-weight="bold" fill="#4A4A4A" transform="translate(860 627)"><tspan x="131.071" y="15.6">Endpoints</tspan></text><g fill="#4A4A4A" font-family="sans-serif" font-weight="bold"><text font-size="16" transform="translate(870 661.6)"><tspan x="0" y="14">Service 1</tspan></text><text font-size="14.4" transform="translate(870 661.6)"><tspan x="114.294" y="14">Pod1, Pod2</tspan></text></g></g><text font-family="sans-serif" font-size="25.29" font-weight="bold" letter-spacing="-.805" fill="#000"><tspan x="50" y="203">TO:</tspan></text><text font-family="sans-serif" font-size="45.29" font-weight="bold" letter-spacing="-1.442" fill="#000"><tspan x="50" y="252">Requester</tspan></text><text font-family="sans-serif" font-size="25.29" font-weight="bold" letter-spacing="-.805" fill="#000"><tspan x="50" y="61">FROM:</tspan></text><path fill="#FF003C" fill-rule="nonzero" d="M209 133h28v28h-28z"/><text font-family="sans-serif" font-size="45.29" font-weight="bold" letter-spacing="-1.442"><tspan x="50" y="161" fill="#000">Service </tspan> <tspan x="244.733" y="161" font-size="35.29" fill="#9B9B9B">(172.17.0.1)</tspan></text><path stroke="#F5A623" stroke-width="6" d="M228.898 396.373v-64.406H482V226"/><path stroke="#4A90E2" stroke-width="6" d="M246 396.373v-24.406h253.102v62.832"/><text font-family="sans-serif" font-size="45.29" font-weight="bold" letter-spacing="-1.442" fill="#9B9B9B" text-decoration="line-through"><tspan x="50" y="110">Pod1 </tspan> <tspan x="166.113" y="110" font-size="35.29">(10.0.1.1)</tspan></text></g></svg>