<svg viewBox="0 0 1200 900" xmlns="http://www.w3.org/2000/svg"><path d="M149.782 455.413q0-3.123-1.733-4.97-1.733-1.847-5.884-3.409-4.152-1.561-7.16-3.104-3.01-1.542-5.161-3.542-2.152-2-3.352-4.703-1.2-2.705-1.2-6.437 0-6.436 4.114-10.55 4.113-4.113 10.93-4.799v-8.15h6.094v8.265q6.742.952 10.55 5.617 3.809 4.666 3.809 12.093h-11.007q0-4.57-1.885-6.837-1.886-2.266-5.047-2.266-3.123 0-4.837 1.771-1.714 1.771-1.714 4.894 0 2.895 1.676 4.647 1.676 1.752 6.227 3.58 4.552 1.828 7.484 3.446 2.933 1.62 4.951 3.657 2.019 2.037 3.085 4.646 1.067 2.61 1.067 6.075 0 6.475-4.037 10.512-4.037 4.037-11.121 4.76v7.58h-6.056v-7.542q-7.808-.837-12.092-5.541-4.285-4.704-4.285-12.511h11.007q0 4.532 2.152 6.95 2.151 2.419 6.189 2.419 3.351 0 5.294-1.771 1.942-1.771 1.942-4.78zm31.61-6.322q0-9.636 4.323-15.349 4.323-5.713 11.826-5.713 6.017 0 9.94 4.494V411.5h11.045V470h-9.94l-.533-4.38q-4.114 5.142-10.588 5.142-7.275 0-11.674-5.732-4.399-5.732-4.399-15.94zm11.007.8q0 5.789 2.019 8.874 2.018 3.085 5.865 3.085 5.104 0 7.198-4.304v-16.263q-2.056-4.304-7.122-4.304-7.96 0-7.96 12.912zm30.45-.381v-.495q0-6.132 2.361-10.931 2.361-4.799 6.798-7.427 4.437-2.628 10.303-2.628 8.34 0 13.615 5.104 5.275 5.103 5.885 13.863l.076 2.818q0 9.484-5.294 15.216-5.294 5.732-14.206 5.732-8.912 0-14.225-5.713-5.313-5.713-5.313-15.54zm11.006.304q0 5.866 2.21 8.97 2.208 3.104 6.322 3.104 3.999 0 6.246-3.066 2.247-3.066 2.247-9.807 0-5.751-2.247-8.912-2.247-3.162-6.322-3.162-4.038 0-6.247 3.142-2.209 3.143-2.209 9.731zm49.455 12.074q3.047 0 4.95-1.676 1.905-1.676 1.981-4.456h10.322q-.038 4.19-2.286 7.674-2.247 3.485-6.15 5.408-3.904 1.924-8.627 1.924-8.836 0-13.94-5.618-5.103-5.618-5.103-15.52v-.724q0-9.521 5.066-15.196 5.065-5.675 13.901-5.675 7.731 0 12.397 4.4 4.665 4.398 4.742 11.71H290.24q-.076-3.199-1.98-5.198-1.904-2-5.027-2-3.847 0-5.809 2.8-1.961 2.799-1.961 9.083v1.143q0 6.36 1.942 9.14 1.943 2.78 5.904 2.78zM329.907 470l-10.587-16.53-3.961 3.962V470h-11.007v-58.5h11.007v32.411l2.132-2.742 10.55-12.378h13.216l-14.892 17.177L342.552 470h-12.645zm31.82.762q-9.064 0-14.757-5.56-5.694-5.561-5.694-14.816v-1.067q0-6.208 2.4-11.102 2.399-4.894 6.798-7.54 4.398-2.648 10.035-2.648 8.455 0 13.311 5.332t4.856 15.12v4.495h-26.241q.533 4.037 3.218 6.474 2.685 2.438 6.799 2.438 6.36 0 9.94-4.609l5.408 6.056q-2.475 3.504-6.703 5.465-4.227 1.962-9.37 1.962zm-1.256-33.82q-3.275 0-5.313 2.208-2.038 2.21-2.609 6.323h15.31v-.876q-.075-3.657-1.98-5.656-1.904-2-5.408-2zm45.265-8.418l-.153 10.588q-2.247-.304-3.96-.304-6.247 0-8.189 4.227V470h-11.007v-41.209h10.398l.304 4.913q3.314-5.675 9.18-5.675 1.827 0 3.427.495zm41.894 30.088q0-2.018-2-3.18-2-1.161-6.417-2.076-14.702-3.085-14.702-12.492 0-5.484 4.552-9.16 4.551-3.675 11.902-3.675 7.845 0 12.549 3.695 4.704 3.694 4.704 9.597H447.21q0-2.361-1.524-3.904-1.523-1.542-4.76-1.542-2.78 0-4.304 1.257-1.524 1.257-1.524 3.2 0 1.827 1.733 2.95 1.733 1.124 5.846 1.943 4.114.819 6.932 1.847 8.722 3.2 8.722 11.083 0 5.637-4.837 9.122-4.837 3.485-12.492 3.485-5.18 0-9.198-1.847-4.018-1.848-6.303-5.066t-2.285-6.95h10.435q.152 2.932 2.171 4.494 2.019 1.561 5.408 1.561 3.161 0 4.78-1.2 1.619-1.2 1.619-3.142zm17.462-39.952h11.006v10.131h7.046v8.074h-7.046v20.567q0 2.285.876 3.275.876.99 3.352.99 1.828 0 3.237-.266v8.34q-3.237.99-6.665.99-11.578 0-11.806-11.692v-22.204h-6.018v-8.074h6.018v-10.13zm18.833 30.85v-.495q0-6.132 2.361-10.931 2.361-4.799 6.798-7.427 4.437-2.628 10.303-2.628 8.34 0 13.615 5.104 5.275 5.103 5.885 13.863l.076 2.818q0 9.484-5.294 15.216-5.294 5.732-14.206 5.732-8.912 0-14.225-5.713-5.313-5.713-5.313-15.54zm11.007.304q0 5.866 2.209 8.97 2.209 3.104 6.322 3.104 3.999 0 6.246-3.066 2.247-3.066 2.247-9.807 0-5.751-2.247-8.912-2.247-3.162-6.322-3.162-4.037 0-6.246 3.142-2.21 3.143-2.21 9.731zm69.41-.609v.571q0 9.522-4.322 15.254-4.323 5.732-11.673 5.732-6.246 0-10.093-4.342v19.424h-11.007V428.79h10.207l.381 4.037q4-4.799 10.436-4.799 7.617 0 11.844 5.637 4.228 5.637 4.228 15.54zm-11.006-.228q0-5.751-2.038-8.874-2.037-3.124-5.922-3.124-5.18 0-7.122 3.961v16.873q2.019 4.075 7.198 4.075 7.884 0 7.884-12.911zm49.054-43.495v8.494h-5.408v60.442h5.408v8.493h-16.453v-77.429h16.453zm19.519 56.406q3.047 0 4.95-1.676 1.905-1.676 1.981-4.456h10.322q-.039 4.19-2.286 7.674-2.247 3.485-6.15 5.408-3.904 1.924-8.627 1.924-8.836 0-13.94-5.618-5.103-5.618-5.103-15.52v-.724q0-9.521 5.066-15.196 5.065-5.675 13.9-5.675 7.732 0 12.398 4.4 4.665 4.398 4.742 11.71H628.84q-.076-3.199-1.98-5.198-1.904-2-5.028-2-3.846 0-5.808 2.8-1.961 2.799-1.961 9.083v1.143q0 6.36 1.942 9.14 1.943 2.78 5.904 2.78zm19.328-12.378v-.495q0-6.132 2.361-10.931 2.362-4.799 6.799-7.427 4.437-2.628 10.302-2.628 8.34 0 13.616 5.104 5.274 5.103 5.884 13.863l.076 2.818q0 9.484-5.294 15.216-5.294 5.732-14.206 5.732-8.912 0-14.225-5.713-5.313-5.713-5.313-15.54zm11.007.304q0 5.866 2.209 8.97 2.209 3.104 6.322 3.104 3.999 0 6.246-3.066 2.247-3.066 2.247-9.807 0-5.751-2.247-8.912-2.247-3.162-6.322-3.162-4.037 0-6.246 3.142-2.21 3.143-2.21 9.731zm32.087-21.023h10.36l.342 4.76q4.418-5.522 11.845-5.522 6.55 0 9.75 3.847 3.199 3.847 3.275 11.502V470h-11.007v-26.355q0-3.504-1.523-5.085-1.524-1.58-5.066-1.58-4.646 0-6.97 3.96V470h-11.006v-41.209zm43.589-10.13h11.007v10.13h7.045v8.074h-7.045v20.567q0 2.285.876 3.275.876.99 3.351.99 1.828 0 3.237-.266v8.34q-3.237.99-6.665.99-11.578 0-11.806-11.692v-22.204h-6.018v-8.074h6.018v-10.13zM784.61 470h-11.12q-.763-1.485-1.105-3.694-4 4.456-10.398 4.456-6.055 0-10.035-3.504-3.98-3.504-3.98-8.836 0-6.55 4.856-10.055 4.856-3.504 14.034-3.542h5.066v-2.361q0-2.857-1.467-4.57-1.466-1.714-4.627-1.714-2.78 0-4.36 1.333-1.581 1.333-1.581 3.656h-11.007q0-3.58 2.209-6.627 2.209-3.047 6.246-4.78 4.037-1.733 9.064-1.733 7.617 0 12.092 3.828 4.476 3.828 4.476 10.76v17.862q.038 5.865 1.637 8.874V470zm-20.223-7.655q2.437 0 4.494-1.086 2.056-1.085 3.047-2.913v-7.084h-4.114q-8.264 0-8.797 5.713l-.039.647q0 2.057 1.448 3.39 1.447 1.333 3.96 1.333zm36.162-33.554V470h-11.045v-41.209h11.045zm-11.692-10.664q0-2.476 1.656-4.075 1.657-1.6 4.513-1.6 2.819 0 4.495 1.6 1.675 1.6 1.675 4.075 0 2.514-1.694 4.113-1.695 1.6-4.476 1.6-2.78 0-4.475-1.6-1.695-1.6-1.695-4.113zm18.033 10.664h10.36l.342 4.76q4.418-5.522 11.845-5.522 6.55 0 9.75 3.847 3.199 3.847 3.275 11.502V470h-11.007v-26.355q0-3.504-1.523-5.085-1.524-1.58-5.066-1.58-4.646 0-6.97 3.96V470H806.89v-41.209zm60.385 41.97q-9.065 0-14.759-5.56-5.693-5.56-5.693-14.815v-1.067q0-6.208 2.399-11.102 2.4-4.894 6.798-7.54 4.4-2.648 10.036-2.648 8.455 0 13.311 5.332t4.856 15.12v4.495h-26.241q.533 4.037 3.218 6.474 2.685 2.438 6.798 2.438 6.36 0 9.94-4.609l5.409 6.056q-2.476 3.504-6.703 5.465-4.228 1.962-9.37 1.962zm-1.257-33.82q-3.276 0-5.313 2.21-2.038 2.208-2.609 6.322h15.31v-.876q-.076-3.657-1.98-5.656-1.904-2-5.408-2zm45.265-8.417l-.153 10.588q-2.247-.304-3.96-.304-6.247 0-8.19 4.227V470h-11.006v-41.209h10.397l.305 4.913q3.314-5.675 9.179-5.675 1.828 0 3.428.495zm31.191.267V470H931.43v-41.209h11.045zm-11.692-10.664q0-2.476 1.657-4.075 1.656-1.6 4.513-1.6 2.818 0 4.494 1.6 1.676 1.6 1.676 4.075 0 2.514-1.695 4.113-1.695 1.6-4.475 1.6-2.78 0-4.475-1.6-1.695-1.6-1.695-4.113zm16.548 30.964q0-9.636 4.323-15.349 4.322-5.713 11.825-5.713 6.018 0 9.94 4.494V411.5h11.046V470h-9.94l-.534-4.38q-4.113 5.142-10.588 5.142-7.274 0-11.673-5.732-4.4-5.732-4.4-15.94zm11.007.8q0 5.789 2.018 8.874 2.019 3.085 5.865 3.085 5.104 0 7.199-4.304v-16.263q-2.057-4.304-7.122-4.304-7.96 0-7.96 12.912zm28.43-35.915v-8.494h16.454v77.43h-16.454v-8.494h5.447v-60.442h-5.447zM71 627h1038v8H71zm113.26 35.813l8.086 35.05.985 6.75 1.441-6.082 10.125-35.718h5.696l9.878 35.718 1.407 6.188 1.09-6.89 7.945-35.016h6.785L225.288 714h-6.152l-10.547-37.3-.809-3.903-.809 3.902L196.038 714h-6.152l-12.375-51.188h6.75zM271.417 714h-6.82q-.563-1.125-.914-4.008-4.535 4.711-10.828 4.711-5.625 0-9.229-3.182-3.603-3.181-3.603-8.068 0-5.941 4.517-9.228 4.518-3.288 12.71-3.288h6.327v-2.988q0-3.41-2.039-5.431-2.039-2.022-6.011-2.022-3.48 0-5.836 1.758-2.356 1.758-2.356 4.254h-6.539q0-2.848 2.022-5.502 2.021-2.654 5.484-4.201 3.463-1.547 7.611-1.547 6.575 0 10.301 3.287 3.727 3.287 3.867 9.053v17.507q0 5.239 1.336 8.332V714zm-17.613-4.957q3.059 0 5.8-1.582 2.743-1.582 3.973-4.113v-7.805h-5.097q-11.953 0-11.953 6.996 0 3.059 2.039 4.781 2.039 1.723 5.238 1.723zm31.644-33.082V714h-6.504v-38.04h6.504zm-7.031-10.09q0-1.582.967-2.672.966-1.09 2.865-1.09 1.898 0 2.883 1.09.984 1.09.984 2.672t-.984 2.637q-.985 1.054-2.883 1.054-1.899 0-2.865-1.054-.967-1.055-.967-2.637zm17.863.879h6.504v9.21h7.101v5.028h-7.101v23.59q0 2.285.949 3.428.949 1.142 3.234 1.142 1.125 0 3.094-.421V714q-2.567.703-4.992.703-4.36 0-6.575-2.637-2.214-2.636-2.214-7.488v-23.59h-6.926v-5.027h6.926v-9.211zM341.215 714h-6.504v-33.012H328.7v-5.027h6.011v-3.902q0-6.118 3.27-9.457 3.27-3.34 9.246-3.34 2.25 0 4.465.597l-.352 5.274q-1.652-.317-3.515-.317-3.164 0-4.887 1.846-1.723 1.846-1.723 5.291v4.008h8.121v5.027h-8.12V714zm11.676-18.914v-.457q0-5.59 2.197-10.055t6.117-6.89q3.92-2.426 8.947-2.426 7.77 0 12.569 5.379 4.798 5.379 4.798 14.308v.457q0 5.555-2.127 9.967-2.126 4.412-6.082 6.873-3.955 2.461-9.087 2.461-7.735 0-12.534-5.379-4.798-5.379-4.798-14.238zm6.539.316q0 6.328 2.935 10.16 2.936 3.833 7.858 3.833 4.957 0 7.875-3.885t2.918-10.881q0-6.258-2.971-10.143-2.97-3.884-7.893-3.884-4.816 0-7.77 3.832-2.952 3.832-2.952 10.968zm52.737-19.652v6.047q-1.476-.246-3.199-.246-6.398 0-8.683 5.449v27h-6.504v-38.04h6.328l.105 4.395q3.2-5.097 9.07-5.097 1.899 0 2.883.492zM462.483 714h-6.82q-.563-1.125-.915-4.008-4.535 4.711-10.828 4.711-5.625 0-9.228-3.182-3.604-3.181-3.604-8.068 0-5.941 4.518-9.228 4.517-3.288 12.709-3.288h6.328v-2.988q0-3.41-2.039-5.431-2.04-2.022-6.012-2.022-3.48 0-5.836 1.758-2.355 1.758-2.355 4.254h-6.54q0-2.848 2.022-5.502t5.485-4.201q3.463-1.547 7.611-1.547 6.574 0 10.3 3.287 3.727 3.287 3.868 9.053v17.507q0 5.239 1.336 8.332V714zm-17.613-4.957q3.058 0 5.8-1.582 2.743-1.582 3.973-4.113v-7.805h-5.098q-11.953 0-11.953 6.996 0 3.059 2.04 4.781 2.038 1.723 5.238 1.723zm55.764.352q3.48 0 6.082-2.11t2.883-5.273h6.152q-.175 3.27-2.25 6.222-2.074 2.953-5.537 4.711-3.463 1.758-7.33 1.758-7.77 0-12.357-5.185-4.588-5.186-4.588-14.186v-1.09q0-5.554 2.039-9.879 2.04-4.324 5.854-6.715 3.814-2.39 9.017-2.39 6.399 0 10.635 3.832t4.517 9.95H509.6q-.281-3.692-2.795-6.065-2.513-2.373-6.205-2.373-4.957 0-7.682 3.568-2.724 3.568-2.724 10.318v1.23q0 6.575 2.707 10.126 2.707 3.55 7.734 3.55zm18.812-14.31v-.456q0-5.59 2.198-10.055 2.197-4.465 6.117-6.89 3.92-2.426 8.947-2.426 7.77 0 12.568 5.379 4.8 5.379 4.8 14.308v.457q0 5.555-2.128 9.967-2.127 4.412-6.082 6.873-3.955 2.461-9.088 2.461-7.734 0-12.533-5.379-4.799-5.379-4.799-14.238zm6.54.317q0 6.328 2.935 10.16 2.935 3.833 7.857 3.833 4.957 0 7.875-3.885t2.918-10.881q0-6.258-2.97-10.143-2.971-3.884-7.893-3.884-4.816 0-7.77 3.832-2.953 3.832-2.953 10.968zm34.35-19.441h6.153l.21 4.781q4.36-5.484 11.391-5.484 12.059 0 12.164 13.605V714h-6.503v-25.172q-.036-4.113-1.881-6.082-1.846-1.969-5.748-1.969-3.164 0-5.555 1.688-2.39 1.687-3.727 4.43V714h-6.504v-38.04zm40.152-9.211h6.504v9.21h7.102v5.028h-7.102v23.59q0 2.285.95 3.428.949 1.142 3.234 1.142 1.125 0 3.094-.421V714q-2.567.703-4.993.703-4.359 0-6.574-2.637-2.215-2.636-2.215-7.488v-23.59h-6.925v-5.027h6.925v-9.211zm49.61 47.25h-6.821q-.563-1.125-.914-4.008-4.535 4.711-10.828 4.711-5.625 0-9.229-3.182-3.603-3.181-3.603-8.068 0-5.941 4.517-9.228 4.518-3.288 12.71-3.288h6.327v-2.988q0-3.41-2.039-5.431-2.039-2.022-6.011-2.022-3.48 0-5.836 1.758-2.356 1.758-2.356 4.254h-6.539q0-2.848 2.022-5.502 2.021-2.654 5.484-4.201 3.463-1.547 7.611-1.547 6.575 0 10.301 3.287 3.727 3.287 3.867 9.053v17.507q0 5.239 1.336 8.332V714zm-17.614-4.957q3.059 0 5.8-1.582 2.743-1.582 3.973-4.113v-7.805h-5.097q-11.953 0-11.953 6.996 0 3.059 2.039 4.781 2.039 1.723 5.238 1.723zm31.644-33.082V714h-6.504v-38.04h6.504zm-7.031-10.09q0-1.582.967-2.672.966-1.09 2.865-1.09 1.898 0 2.883 1.09.984 1.09.984 2.672t-.984 2.637q-.985 1.054-2.883 1.054-1.899 0-2.865-1.054-.967-1.055-.967-2.637zm15.542 10.09h6.153l.21 4.781q4.36-5.484 11.391-5.484 12.059 0 12.164 13.605V714h-6.504v-25.172q-.035-4.113-1.88-6.082-1.846-1.969-5.749-1.969-3.164 0-5.554 1.688-2.39 1.687-3.727 4.43V714h-6.504v-38.04zm53.617 38.742q-7.734 0-12.586-5.08-4.851-5.08-4.851-13.588v-1.195q0-5.66 2.162-10.108 2.162-4.447 6.046-6.96 3.885-2.514 8.42-2.514 7.418 0 11.532 4.887 4.113 4.886 4.113 13.992v2.707h-25.77q.141 5.625 3.288 9.088 3.146 3.463 7.998 3.463 3.445 0 5.836-1.407 2.39-1.406 4.183-3.726l3.973 3.093q-4.782 7.348-14.344 7.348zm-.809-34.101q-3.937 0-6.609 2.865t-3.305 8.033h19.055v-.492q-.281-4.957-2.672-7.682-2.39-2.724-6.469-2.724zm39.66-4.852v6.047q-1.476-.246-3.2-.246-6.398 0-8.683 5.449v27h-6.504v-38.04h6.328l.106 4.395q3.2-5.097 9.07-5.097 1.899 0 2.883.492zm22.331-9h6.504v9.21h7.102v5.028h-7.102v23.59q0 2.285.95 3.428.949 1.142 3.234 1.142 1.125 0 3.093-.421V714q-2.566.703-4.992.703-4.36 0-6.574-2.637-2.215-2.636-2.215-7.488v-23.59h-6.926v-5.027h6.926v-9.211zm16.879 28.336v-.457q0-5.59 2.197-10.055t6.117-6.89q3.92-2.426 8.947-2.426 7.77 0 12.569 5.379 4.799 5.379 4.799 14.308v.457q0 5.555-2.127 9.967-2.127 4.412-6.082 6.873-3.956 2.461-9.088 2.461-7.735 0-12.534-5.379-4.798-5.379-4.798-14.238zm6.539.316q0 6.328 2.935 10.16 2.936 3.833 7.858 3.833 4.957 0 7.875-3.885t2.918-10.881q0-6.258-2.971-10.143-2.97-3.884-7.893-3.884-4.816 0-7.77 3.832-2.952 3.832-2.952 10.968zm72.428 8.508q0-2.637-1.986-4.096t-6.926-2.513q-4.94-1.055-7.84-2.531-2.9-1.477-4.289-3.516-1.388-2.04-1.388-4.852 0-4.675 3.955-7.91 3.955-3.234 10.107-3.234 6.469 0 10.494 3.34 4.026 3.34 4.026 8.543h-6.54q0-2.672-2.267-4.606-2.267-1.933-5.713-1.933-3.55 0-5.554 1.546-2.004 1.547-2.004 4.043 0 2.356 1.863 3.551 1.863 1.196 6.732 2.285 4.87 1.09 7.893 2.602 3.023 1.512 4.482 3.639 1.46 2.127 1.46 5.185 0 5.098-4.079 8.174-4.078 3.076-10.582 3.076-4.57 0-8.086-1.617-3.515-1.617-5.502-4.518-1.986-2.9-1.986-6.275h6.504q.176 3.27 2.619 5.186t6.451 1.916q3.692 0 5.924-1.495 2.232-1.494 2.232-3.99zm15.402-37.16h6.504v9.21h7.102v5.028h-7.102v23.59q0 2.285.95 3.428.949 1.142 3.234 1.142 1.125 0 3.094-.421V714q-2.567.703-4.993.703-4.359 0-6.574-2.637-2.215-2.636-2.215-7.488v-23.59h-6.925v-5.027h6.925v-9.211zm16.879 28.336v-.457q0-5.59 2.197-10.055t6.117-6.89q3.92-2.426 8.947-2.426 7.77 0 12.569 5.379 4.799 5.379 4.799 14.308v.457q0 5.555-2.127 9.967-2.127 4.412-6.082 6.873-3.955 2.461-9.088 2.461-7.735 0-12.533-5.379-4.8-5.379-4.8-14.238zm6.539.316q0 6.328 2.935 10.16 2.936 3.833 7.858 3.833 4.957 0 7.875-3.885t2.918-10.881q0-6.258-2.971-10.143-2.97-3.884-7.893-3.884-4.816 0-7.77 3.832-2.952 3.832-2.952 10.968zm66.484-.597v.597q0 8.684-3.973 13.993-3.973 5.308-10.758 5.308-6.926 0-10.898-4.394v18.316h-6.504v-52.664h5.941l.317 4.219q3.972-4.922 11.039-4.922 6.855 0 10.845 5.168t3.99 14.379zm-6.504-.14q0-6.435-2.742-10.161-2.743-3.727-7.524-3.727-5.906 0-8.86 5.239v18.175q2.919 5.204 8.93 5.204 4.676 0 7.436-3.71 2.76-3.708 2.76-11.02z"></path></svg>