<svg viewBox="0 0 1200 900" xmlns="http://www.w3.org/2000/svg"><g fill="none" fill-rule="evenodd"><rect fill="#EEE" x="223" y="294" width="645" height="484" rx="30"/><g transform="translate(668 124)"><rect fill="#066DA5" width="157" height="100" rx="5"/><path d="M84.843 47.115H95.25v-9.46H84.843v9.46zm-12.297 0h10.405v-9.46H72.546v9.46zm-12.297 0h10.405v-9.46H60.25v9.46zm-12.298 0h10.406v-9.46H47.95v9.46zm-12.297 0H46.06v-9.46H35.654v9.46zM47.95 35.763h10.406v-9.459H47.95v9.46zm12.298 0h10.405v-9.459H60.25v9.46zm12.297 0H82.95v-9.459H72.546v9.46zm0-11.35H82.95v-9.46H72.546v9.46zm53.973 17.186c-2.272-1.52-7.493-2.078-11.512-1.32-.517-3.785-2.626-7.066-6.463-10.032l-2.206-1.472-1.472 2.209c-1.884 2.841-2.826 6.778-2.517 10.553.139 1.328.575 3.704 1.941 5.792-1.365.734-4.065 1.745-7.623 1.677H28.234l-.134.789c-.643 3.794-.63 15.633 7.058 24.733C41 81.445 49.76 84.952 61.194 84.952c24.787 0 43.125-11.41 51.713-32.15 3.377.068 10.647.02 14.382-7.116.098-.164.322-.592.974-1.944l.358-.741-2.102-1.402z" fill="#FFF"/></g><g transform="translate(668 358)"><rect fill="#066DA5" width="157" height="100" rx="5"/><path d="M84.843 47.115H95.25v-9.46H84.843v9.46zm-12.297 0h10.405v-9.46H72.546v9.46zm-12.297 0h10.405v-9.46H60.25v9.46zm-12.298 0h10.406v-9.46H47.95v9.46zm-12.297 0H46.06v-9.46H35.654v9.46zM47.95 35.763h10.406v-9.459H47.95v9.46zm12.298 0h10.405v-9.459H60.25v9.46zm12.297 0H82.95v-9.459H72.546v9.46zm0-11.35H82.95v-9.46H72.546v9.46zm53.973 17.186c-2.272-1.52-7.493-2.078-11.512-1.32-.517-3.785-2.626-7.066-6.463-10.032l-2.206-1.472-1.472 2.209c-1.884 2.841-2.826 6.778-2.517 10.553.139 1.328.575 3.704 1.941 5.792-1.365.734-4.065 1.745-7.623 1.677H28.234l-.134.789c-.643 3.794-.63 15.633 7.058 24.733C41 81.445 49.76 84.952 61.194 84.952c24.787 0 43.125-11.41 51.713-32.15 3.377.068 10.647.02 14.382-7.116.098-.164.322-.592.974-1.944l.358-.741-2.102-1.402z" fill="#FFF"/></g><g transform="translate(223 123)"><path d="M80.05.055h65.248l11.589 4.254v88.803L151.22 100H76.95v-.055H5.78L.113 92.95V4.254L11.702 0H80.05v.055z" fill="#353535"/><path d="M0 16h157V6a6 6 0 0 0-6-6H6a6 6 0 0 0-6 6v10zm0 77h157v1a6 6 0 0 1-6 6H6a6 6 0 0 1-6-6v-1z" fill="#D2D2D2"/><text font-family="sans-serif" font-size="14" fill="#58B311"><tspan x="6" y="38">> docker run</tspan></text><circle fill="#F16F68" cx="9" cy="8" r="3"/><circle fill="#FDD276" cx="18" cy="8" r="3"/><circle fill="#8DC87A" cx="27" cy="8" r="3"/></g><g transform="translate(380 203)"><path d="M.011 0h135.327c5.522 0 10 4.477 10 10v185.269c0 5.523 4.477 10 10 10H288.03" stroke="#9EEBCF" stroke-width="3"/><circle stroke="#9EEBCF" stroke-width="3" fill="#FFF" cx=".5" cy="-.5" r="6"/><path fill="#9EEBCF" d="M292 205.5l-8 5.5v-11z"/></g><g transform="rotate(90 146.5 604.5)"><path d="M.011 1.045h62.55c5.522 0 10 4.477 10 10v362.97" stroke="#9EEBCF" stroke-width="3"/><circle stroke="#9EEBCF" stroke-width="3" fill="#FFF" cx=".5" cy=".5" r="6"/><path fill="#9EEBCF" d="M72.5 377l-5.5-8h11z"/></g><g transform="rotate(90 146.5 604.5)"><path d="M.011 1.045h154.55c5.522 0 10 4.477 10 10v362.97" stroke="#9EEBCF" stroke-width="3"/><circle stroke="#9EEBCF" stroke-width="3" fill="#FFF" cx=".5" cy=".5" r="6"/><path fill="#9EEBCF" d="M164.5 377l-5.5-8h11z"/></g><g transform="rotate(90 146.5 604.5)"><path d="M.011 1.045h245.55c5.522 0 10 4.477 10 10v362.97" stroke="#9EEBCF" stroke-width="3"/><circle stroke="#9EEBCF" stroke-width="3" fill="#FFF" cx=".5" cy=".5" r="6"/><path fill="#9EEBCF" d="M255.5 377l-5.5-8h11z"/></g><g transform="translate(825 174)"><path d="M.011 0h49.55c5.522 0 10 4.477 10 10v19.051c0 5.523 4.476 10 10 10h48.469" stroke="#9EEBCF" stroke-width="3"/><circle stroke="#9EEBCF" stroke-width="3" fill="#FFF" cx=".5" cy="-.5" r="6"/><path fill="#9EEBCF" d="M122 39.5l-8 5.5V34z"/></g><g transform="matrix(1 0 0 -1 825 173)"><path d="M.011 0h49.55c5.522 0 10 4.477 10 10v19.051c0 5.523 4.476 10 10 10h48.469" stroke="#9EEBCF" stroke-width="3"/><circle stroke="#9EEBCF" stroke-width="3" fill="#FFF" cx=".5" cy="-.5" r="6"/><path fill="#9EEBCF" d="M122 39.5l-8 5.5V34z"/></g><path d="M15.41.047c8.46 0 15.316 6.011 15.316 13.427 0 7.415-6.857 13.426-15.315 13.426C6.952 26.9.095 20.889.095 13.474.095 6.058 6.952.047 15.411.047" fill="#323A53" mask="url(#mask-2)" transform="translate(261.064 350.078)"/><path d="M15.41 26.9C6.953 26.9.097 20.889.097 13.474.096 6.058 6.953.047 15.41.047V26.9z" fill="#EFF1F4" mask="url(#mask-4)" transform="translate(261.064 350.078)"/><path d="M294.403 323.988c2.223.962 4.451 1.915 6.667 2.893.522.23.909.617.902 1.253-.11.207-.232.4-.508.398-.285-.05-.52.065-.742.225-.175.1-.342.24-.567.138-.28-.517-.275-.507-.809-.211-.394.218-.744.535-1.225.573-.857-.212-1.716-.416-2.553-.702-.5-.172-.574-.3-.257-.698.258-.324.117-.452-.162-.59-.316-.154-.625-.327-.963-.437-3.695-1.682-7.387-3.37-11.09-5.033-.162-.072-.313-.194-.48-.222-.269-.045-.49-.596-.816-.091-.754-.164-1.414-.558-2.102-.876-1.157-.536-2.348-1.003-3.461-1.629-.185-.209-.402-.195-.633-.09-.661.329-1.355.586-2.003.94-.636.18-1.16.647-1.84.718-.123-.016-.247-.023-.37-.034-.655-.053-.848-.45-.512-1.017.49-.829 1.275-1.317 2.086-1.762a25.618 25.618 0 0 1 2.392-1.163 1.643 1.643 0 0 1 1.343.012c3.412 1.453 6.799 2.966 10.213 4.413 2.4 1.016 4.78 2.083 7.234 2.966.083.03.167.065.257.026" fill="#D2E2ED"/><path d="M250.313 332.05c-.264-.488-.077-1.03-.179-1.548-.14-.718-.127-1.469-.134-2.207-.006-.654.304-1.158.918-1.425 2.156-.941 4.32-1.867 6.477-2.806 2.123-.923 4.243-1.856 6.365-2.784 1.783-.781 3.566-1.56 5.35-2.336.094-.041.207-.038.311-.056-.086.506-.556.603-.908.788-1.144.604-2.305 1.178-3.464 1.755-.281.14-.716.287-.704.57.012.32.498.297.77.437.333.17.684.132 1.044.08.254-.039.569-.18.721.197-.103.158-.275.218-.432.295-2.63 1.303-5.334 2.45-8 3.676-.61.28-1.21.588-1.85.799-.453.44-.974.398-1.56.32-1.087-.144-2.188-.068-3.283-.038-.403.01-.705.207-.856.597-.413.37-.346.846-.291 1.316.08.69.113 1.385.12 2.08-.074.188-.207.294-.415.29" fill="#EBF0F5"/><path d="M2.879 6.623c-.184-.168-.426-.141-.605-.074-.786.293-1.402-.19-2.075-.408-.227-.074-.197-.224-.04-.352.178-.145.352-.304.553-.407C1.94 4.756 3.18 4.15 4.41 3.527c.375-.19.75-.39 1.032-.716.622-.417 1.337-.637 2.012-.94C8.73 1.298 10.034.79 11.3.198c.537-.251.99-.221 1.508.008 3.027 1.34 6.059 2.67 9.095 3.99 2.662 1.16 5.33 2.302 7.995 3.453.18.078.35.173.525.26-.187.212-.369.023-.536-.024-1.438-.407-2.758-1.106-4.14-1.657-3.883-1.545-7.674-3.305-11.519-4.938-.505-.214-1.015-.42-1.513-.649-.508-.234-.986-.189-1.48.05-1.214.583-2.449 1.128-3.523 1.956-.356.274-.585.662-.816 1.034-.169.272.056.587.388.617.17.015.36-.058.506.092-.05.222-.246.287-.42.364-1.304.578-2.596 1.18-3.891 1.779-.187.085-.379.205-.6.09" fill="#E1EAF1" mask="url(#mask-6)" transform="translate(263.98 316.079)"/><path d="M252.234 355.825c-.174-.518-.136-1.065-.217-1.597-.138-1.715-.279-3.431-.412-5.147-.082-1.052-.141-2.105-.227-3.157-.13-1.592-.299-3.182-.401-4.777-.065-1-.154-1.998-.232-2.996-.13-1.663-.23-3.329-.415-4.988-.04-.367-.013-.742-.017-1.113.104-.072.207-.145.311-.216.213.122.254.331.267.545.115 1.918.294 3.83.446 5.744.16 2.002.33 4.003.486 6.005.12 1.546.278 3.088.353 4.637.16 1.827.29 3.658.442 5.487.038.46.394.692.632 1.01.093.233.248.448.211.718-.158.195-.267.01-.393-.05-.146-.114-.305-.213-.44-.342-.047-.041-.094-.083-.15-.11-.199.036-.093.282-.244.347" fill="#DBE0E8"/><path d="M301.68 332.683l-.218 2.976c.27.454-.034.923.035 1.383-.092.557-.09 1.123-.147 1.683a22.237 22.237 0 0 0-.183 2.395c-.03.22-.078.431-.213.614-.157.122-.317.224-.509.06-.098-.653.037-1.295.087-1.943.064-1.63.249-3.25.373-4.876.033-.438.07-.874.067-1.313.12-1.328.25-2.655.327-3.987a.766.766 0 0 1 .076-.303c.323-.245.306.211.496.24.04 1.03-.147 2.046-.191 3.071" fill="#8D9EBD"/><path d="M.575 1.534c-.424.201-.27-.162-.32-.325C.064.944.061.659.154.36.395.37.484.124.675.054c-.03.493.117.999-.101 1.479" fill="#B5C2D4" mask="url(#mask-8)" transform="translate(301.296 328.079)"/><path d="M273.564 319.721l2.037-.947c.238-.064.454.004.665.106l5.544 2.533c.81.055 1.455.541 2.158.856 3.301 1.478 6.583 3.003 9.887 4.477.205.11.411.218.624.314.113.05.225.101.337.154.216.101.54.127.546.422.004.252-.285.33-.478.443-1.095.64-2.203 1.26-3.294 1.906a4.424 4.424 0 0 0-.644.36c-.063.04-.13.077-.196.112-2.94 1.692-5.887 3.374-8.819 5.08a378.56 378.56 0 0 0-5.164 2.964c-.533.31-1.004.316-1.544.01-1.912-1.083-3.786-2.23-5.726-3.264-1.26-.714-2.557-1.361-3.764-2.164-1.28-.8-2.607-1.517-3.91-2.273-1.628-.943-3.262-1.875-4.894-2.81-.166-.095-.363-.173-.345-.421.116-.175.311-.223.488-.302 1.97-.881 3.93-1.788 5.896-2.679 2.757-1.249 5.512-2.504 8.268-3.755.783-.356 1.604-.642 2.328-1.122" fill="#27334E"/><path d="M265.805 332.973l3.723 2.17c.436.499.721 1.092 1.039 1.662.462.831 1.084 1.46 1.971 1.856.956.427 1.893.89 2.865 1.288.627.256 1.245.282 1.878.218.581-.058 1.17-.155 1.719-.358 1.61-.597 3.238-1.138 4.74-2.014 2.177-1.268 4.365-2.519 6.52-3.823.181-.11.377-.201.496-.39.571-.535 1.296-.835 1.949-1.245.326-.206.667-.39 1-.588 1.331-.796 2.668-1.584 3.998-2.382.135-.082.272-.166.437-.18.459-.245.914-.499 1.378-.736.514-.264.6-.206.646.405-.14.384-.504.526-.81.717-1.875 1.17-3.796 2.263-5.67 3.435-5.52 3.246-10.983 6.588-16.475 9.882-.434.26-.621.568-.61 1.069.023 1.147.004 2.296.01 3.445.002.155-.022.31-.072.457-.16.598-.275 1.2-.172 1.82.026.159.032.317.039.476.155 3.39.102 6.784.107 10.176.003 2.034 0 4.068.002 6.1a575.378 575.378 0 0 0 0 3.201c0 .21.02.422-.102.61-.322.24-.604.164-.862-.108-.097-.177-.107-.371-.107-.565.001-3.016-.019-6.031.008-9.046.178-1.979.313-3.957.14-5.947-.075-.877-.02-1.763-.018-2.644 0-.548-.1-1.084-.185-1.62-.102-1.302-.027-2.604-.046-3.906-.01-.774-.001-1.549-.002-2.324 0-.301-.012-.6-.184-.863-.158-.381-.492-.538-.855-.659-1.028-.424-1.89-1.139-2.881-1.63-2.42-1.497-4.868-2.944-7.301-4.418-2.236-1.347-4.463-2.709-6.712-4.034-1.225-.777-2.48-1.507-3.72-2.26-.312-.193-.63-.375-.94-.572-.158-.101-.352-.176-.363-.41.22-.492.36-.551.903-.313 1.122.492 2.174 1.115 3.232 1.726.465.269.938.5 1.487.53.07.003.149.006.207.041.884.534 1.904.737 2.834 1.157.226.102.436.257.691.254 1.102-.01 2.178.32 3.284.227.272-.021.523.081.784.113" fill="#FDFDFE"/><path d="M293.655 332.898c1.596-.974 3.187-1.958 4.792-2.92a25.94 25.94 0 0 0 1.717-1.122c.221.048.34-.183.538-.195.153.267.016.496-.149.667-.586.606-.779 1.403-1.093 2.14a8.733 8.733 0 0 0-.355 1.047c-.18.633-.671 1.007-1.129 1.414-.1.152-.25.247-.401.34-4.312 2.672-8.623 5.346-12.933 8.018-.136.084-.265.18-.424.219-.3-.052-.514.33-.836.167-.1-.215.038-.35.187-.44.863-.52 1.45-1.287 1.953-2.128.847-1.419 2.208-2.275 3.539-3.146a42.49 42.49 0 0 0 3.092-2.25c.596-.471 1.24-1.014 1.502-1.81z" fill="#516494"/><path d="M298.14 329.187c-.587.515-1.303.827-1.96 1.232-.795.49-1.611.947-2.419 1.419-1.46.48-2.968.357-4.467.35-.2-.002-.413-.058-.462-.282-.052-.235.11-.402.288-.526.532-.376 1.142-.632 1.644-1.054l.118-.07c.274-.009.45-.188.628-.36l3.817-2.244c-.26-.284-.663-.264-.919-.508-.02-.151-.193-.196-.237-.332l.02-.068c.498.038.883.347 1.306.555.313.155.156.358-.013.55-.383.436-.36.404.191.603.81.29 1.676.384 2.465.735" fill="#DAE7F0"/><path d="M297.93 333.86c-.123-.19.069-.2.156-.241.466-.223.705-.63.865-1.08.275-.777.526-1.558.871-2.31.156-.34.29-.667.583-.911.203-.17.233-.422.297-.657.219-.178.421-.41.75-.221.17.266.087.562.098.847-.235.51-.11 1.065-.175 1.596-.113.913-.146 1.84-.248 2.76-.597 1.541-1.08 3.128-1.84 4.606-.144.283-.293.564-.505.804-.104.117-.218.26-.397.206-.16-.05-.153-.222-.173-.358-.017-.122-.064-.237-.084-.36.052-1.175.148-2.348.24-3.52.03-.37.074-.733.009-1.098-.13-.148-.308.027-.446-.064" fill="#5A6E9E"/><path d="M293.84 326.867c-1.856-.83-3.715-1.655-5.566-2.494-2.158-.98-4.31-1.973-6.464-2.96.098-.264.222-.291.499-.164 3.759 1.727 7.527 3.436 11.29 5.154.207.094.434.16.593.34l-.002.004c-.094.103-.204.165-.35.12" fill="#ECEEEF"/><path d="M273.564 319.721c-.192.391-.617.434-.948.59-1.489.699-2.996 1.359-4.494 2.038-3.27 1.483-6.54 2.969-9.81 4.456-.563.256-1.121.524-1.682.787-.073-.064-.072-.134-.017-.208l8.842-4.024c.47-.215.936-.439 1.405-.66 1.637-.743 3.273-1.488 4.91-2.232l1.794-.747" fill="#2D2E31"/><path d="M276.266 318.88c-.236.052-.445-.062-.665-.107.248-.125.492-.232.665.106" fill="#868887"/><path d="M252.443 329.298l1.289.836a.983.983 0 0 1 .302.547c.137.873.445 1.703.665 2.555.097.377.058.625-.375.689-.294.106-.511-.285-.814-.125-.122.617.033 1.229.08 1.832.05.663.09 1.331.144 1.994.127 1.556.211 3.117.35 4.673.01.122-.002.246-.028.368-.122.432-.09.875-.049 1.31.168 1.796.25 3.598.401 5.395.02.226.02.457-.028.682-.207.423-.512.373-.826.147-.56-.404-1.09-.845-1.53-1.381-.14-1.642-.283-3.284-.417-4.926-.083-1.014-.145-2.03-.227-3.044-.134-1.642-.283-3.284-.414-4.926-.086-1.085-.16-2.171-.22-3.258-.017-.284-.028-.562-.122-.832-.069-.968-.139-1.935-.207-2.903-.021-.316.072-.553.431-.6.622.174 1.146.51 1.595.967" fill="#C0BFCC"/><path d="M252.443 329.298l-1.595-.967c-.057-.666.496-.714.887-.716 1.339-.008 2.687-.154 4.014.141.21.047.324.004.443-.166.091-.132.152-.405.42-.206l.018.208c.089.195.291.242.454.336l8.279 4.761c.152.087.295.19.443.284-.728.07-1.456.044-2.183 0-.28-.017-.566-.155-.833-.12-1.197.158-2.128-.682-3.244-.811-.18-.021-.318-.143-.47-.234-.439-.261-.873-.479-1.42-.528-.737-.065-1.32-.574-1.948-.931a44.867 44.867 0 0 0-2.492-1.313c-.355-.174-.641-.193-.773.262" fill="#FDFDFD"/><path d="M252.023 348.82c.56.24.871.781 1.366 1.104.272.178.497.448.874.276.308.053.26.315.235.492-.15 1.032.261 1.742 1.161 2.253.393.223.737.546 1.085.845 1.64 1.263 3.333 2.453 4.985 3.701.195.148.423.267.522.513.041.695-.266.995-.94.902-.333-.048-.655-.158-.985-.225-.678-.139-1.354-.268-2.052-.283a3.214 3.214 0 0 1-1.756-.534c-1.15-.767-2.316-1.506-3.322-2.462-.86-.481-.756-1.36-.839-2.129-.122-1.132-.165-2.272-.227-3.41-.02-.35-.173-.685-.107-1.043" fill="#CFCACE"/><path d="M253.196 355.402c.734.357 1.3.95 1.979 1.388.607.39 1.21.787 1.812 1.185.358.236.787.266 1.173.272 1.037.015 2.027.253 3.022.49.72.172.968-.024.978-.783.63.18 1.137.577 1.643.962.526.4 1.042.803 1.634 1.107.342.175.565.509.849.762.396.354.825.647 1.276.93.484.302 1.091.514 1.275 1.16.08.635-.192.903-.856.815-.71-.094-1.387-.342-2.017-.653a22.097 22.097 0 0 0-5.038-1.76c-.438-.16-.794-.452-1.153-.733-.68-.533-1.436-.95-2.143-1.44-.096-.065-.197-.068-.304-.054-.6-.198-.975-.723-1.506-1.023-.375-.306-.777-.577-1.173-.855-.327-.313-.725-.54-1.061-.842-.082-.088-.171-.173-.178-.305l-.212-.623" fill="#DBD5D6"/><path d="M300.49 341.816l.418-.107c.246.271.172.598.136.905-.04.332-.073.664-.078.999-.111.984-.176 1.972-.252 2.96-.157 1.027-.132 2.071-.277 3.1.02.66-.134 1.308-.122 1.967-.041.27-.104.537-.103.812-.098.56-.088 1.131-.14 1.696-.086.524-.136 1.065-.66 1.383-.353.241-.683.514-1.01.791-1.346.932-2.566 2.028-3.91 2.964-.058.049-.114.096-.17.146-2.783 2.112-5.566 4.22-8.34 6.342-2.127 1.626-4.288 3.206-6.414 4.831-.184.14-.368.28-.579.377-.282.084-.517.232-.659.5-.268.254-.452.633-.909.605-.137-.16-.062-.337-.042-.51.075-.24.29-.34.473-.475 1.387-1.023 2.746-2.083 4.106-3.142 2.82-2.122 5.605-4.29 8.43-6.408.34-.255.67-.524 1.006-.785 2.19-1.656 4.366-3.329 6.558-4.982 1.428-1.076 1.42-1.072 1.535-2.818.141-2.145.321-4.287.51-6.427.048-.543.09-1.087.12-1.633.01-.91.109-1.812.216-2.714.017-.14.039-.279.157-.377" fill="#8EA2C6"/><path d="M300.49 341.816l-.218 3.182c-.377.97-.83 1.91-1.131 2.905-.37 1.22-.806 2.417-1.173 3.636-.071.238-.15.566-.54.313-.087-.163-.085-.341-.069-.515.118-1.183.147-2.371.237-3.556a3.948 3.948 0 0 0 .003-1.63c.04-.944.068-1.89.22-2.825.061-.128.131-.221.263-.061.09.11.029.272.14.4.407-.797 1.044-1.422 1.484-2.184.238-.411.49-.81.651-1.26.056-.158.092-.357.341-.317l-.208 1.912" fill="#768EBA"/><path d="M300.698 339.904c-.307.152-.226.493-.353.735a14.67 14.67 0 0 1-1.6 2.415c-.233.288-.298.681-.622.934-.208-.247.03-.572-.176-.792a.293.293 0 0 1-.144-.267c.128-1.377.14-2.761.34-4.132.01-.07.065-.122.125-.163.16.156.03.379.151.607.616-.574.903-1.315 1.202-2.032.433-1.038.803-2.1 1.203-3.151.062-.163.12-.337.303-.416.004 1.34-.18 2.665-.304 3.994-.071.753-.085 1.512-.125 2.268z" fill="#6D83B3"/><path d="M291.367 327.659c-.065.164-.216.195-.335.26-4.952 2.77-9.907 5.533-14.857 8.306-.238.134-.412.171-.672.023-4.912-2.803-9.832-5.594-14.75-8.387-.074-.042-.14-.095-.28-.19l.456-.214c4.865-2.235 9.73-4.468 14.592-6.706.231-.107.425-.178.694-.054 5.007 2.302 10.021 4.593 15.033 6.887.042.02.079.05.119.075" fill="#FEFEFD"/><path d="M290.879 333.642c-.48.542-1.161.785-1.755 1.155-2.387 1.487-4.786 2.979-7.352 4.123-1.67.744-3.405 1.468-5.33 1.427-.606-.013-1.095-.288-1.61-.487a26.456 26.456 0 0 1-2.844-1.309c-.915-.485-1.415-1.366-1.857-2.253-.194-.39-.574-.684-.602-1.155.343.053.598.286.885.448a325.64 325.64 0 0 1 4.968 2.856c.438.259.794.25 1.227-.008 1.637-.976 3.29-1.924 4.939-2.878.103-.06.226-.086.34-.127.05-.023.13-.031.137.015.07.55.5.539.905.613 2.025.373 3.82-.253 5.53-1.241.613-.354 1.23-.704 1.838-1.065.175-.104.35-.268.581-.114" fill="#FDFDFD"/><path d="M290.879 333.642c-.806.323-1.51.828-2.26 1.253-1.525.864-3.097 1.544-4.909 1.4-.386-.031-.77-.095-1.155-.117-.483-.03-.666-.3-.666-.744 2.065-1.2 4.128-2.403 6.195-3.596.889-.513 1.788-1.009 2.681-1.513-.177.42-.645.462-.952.714-.317.262-.94.416-.843.834.089.384.677.145 1.04.17 1.258.087 2.504-.102 3.752-.206-.855.514-1.71 1.03-2.567 1.54-.121.073-.259.12-.316.265" fill="#EAF4F8"/><path d="M293.84 326.867l.35-.121c-.044.196.555.042.219.397-.201-.068-.406-.13-.57-.276" fill="#D2E2ED"/><path d="M291.511 329.895c-.13.258-.28.482-.629.36l.63-.36z" fill="#EAF4F8"/><path d="M275.613 360.498l.002 9.657c.134.138.157.318.138.49-.047.462.16.73.6.841a.339.339 0 0 1 .11.218c.004.242-.112.447-.349.439-.56-.022-1.17.092-1.612-.409-.803-.704-1.705-1.288-2.494-2.009-.177-.162-.42-.277-.387-.576.177-.27.573-.148.75-.419.402-1.114 1.07-2.104 1.47-3.222.208-.582.316-1.127.218-1.75-.194-1.238-.227-2.493-.24-3.746-.01-.848-.171-1.685-.218-2.532-.088-1.572-.42-3.113-.624-4.67-.126-.963-.095-1.947-.305-2.894-.316-1.418-.142-2.845-.192-4.268-.011-.29-.038-.559-.268-.774a.838.838 0 0 1-.24-.522c-.133-1.088-.364-2.16-.558-3.238a.376.376 0 0 1 .036-.257c.464.126.844.416 1.24.662.535.334 1.065.67 1.638.935.279.188.607.3.857.533.27.266.33.586.327.959-.014 2.12-.005 4.241-.004 6.362.09.414.099.841.095 1.257-.018 1.977.106 3.954.056 5.931-.024 1.001-.063 2.001-.046 3.002" fill="#EEE7DD"/><path d="M293.655 332.898c.185.306-.036.488-.21.688-1.263 1.455-2.875 2.476-4.45 3.548-1.444.983-2.88 1.978-3.723 3.592-.356.683-.952 1.167-1.594 1.584-.14.09-.275.168-.27.358-.003.288-.257.357-.439.472-.823.523-1.641 1.058-2.488 1.541-.534.305-.97.635-.99 1.305-.747.626-1.654.967-2.515 1.39-.16.08-.339.103-.49-.043l-.02-3.604c-.002-.395.15-.646.527-.868 1.906-1.119 3.783-2.289 5.675-3.432 1.914-1.155 3.833-2.301 5.751-3.448 1.663-.994 3.329-1.985 4.995-2.975.075-.045.16-.072.24-.108" fill="#495C8F"/><path d="M271.45 340.858c.35 1.056.474 2.156.636 3.248.042.283.063.549.314.751.187.151.23.384.228.626-.007.548.032 1.099-.009 1.644-.108 1.438.318 2.822.393 4.235.066 1.252.271 2.48.478 3.706.26 1.543.255 3.11.498 4.654.063.398.01.828.016 1.245.017 1.128.084 2.248.311 3.355.038.182-.013.345-.07.517-.352 1.05-.783 2.072-1.347 3.023-.197.332-.133.774-.487 1.018-.227-.256-.204-.577-.126-.852.218-.763.203-1.529.126-2.302a.666.666 0 0 1 .03-.26c.08-.16.138-.322.138-.505.001-1.379.007-2.758-.003-4.136a1.093 1.093 0 0 0-.061-.311c-.11-.6.048-1.218-.111-1.816-.061-.314-.046-.633-.046-.95-.002-3.781-.017-7.562.012-11.342.006-.755-.215-1.25-.89-1.641-.965-.559-1.938-1.114-2.823-1.8a3.915 3.915 0 0 1-.948-1.754c-.247-.981-.916-1.707-1.532-2.454-.516-.625-.994-1.293-1.695-1.752-.183-.12-.443-.278-.293-.595 2.313 1.395 4.627 2.791 6.942 4.185.12.072.261.117.32.263" fill="#E6DED8"/><path d="M276.485 347.333a.939.939 0 0 0 .511-.1c.818-.43 1.638-.854 2.457-1.28.194.182.152.423.152.646.004 2.501.002 5.003.003 7.503 0 .46-.142.904-.126 1.363-.044.244-.14.473-.23.703-.241.619-.582.79-1.248.64-.104-.024-.209-.064-.314-.045-.71.127-1.013-.338-1.274-.864a172.15 172.15 0 0 0-.093-6.508c-.018-.537-.022-1.094.126-1.628l.036-.43" fill="#526596"/><path d="M254.254 333.877c.364-.122.39-.324.28-.688-.303-1.008-.54-2.035-.802-3.055 1.274.699 2.508 1.463 3.731 2.245 1.267 1.924 3.129 3.25 4.839 4.726.651.562 1.256 1.144 1.603 1.947.136.312.343.573.583.815.129.13.322.246.234.486-.237.111-.409-.041-.584-.15-3.108-1.937-6.22-3.868-9.331-5.801-.214-.133-.498-.216-.553-.525" fill="#CBC6D0"/><path d="M264.71 340.362c-.856-.805-1.135-2.027-2.059-2.791-1.142-.945-2.309-1.869-3.374-2.895-.699-.672-1.524-1.289-1.814-2.298 1.835 1.096 3.67 2.19 5.503 3.287.41.245.816.495 1.223.743.008.223.168.36.322.461 1.148.75 1.794 1.956 2.688 2.935.283.31.42.77.566 1.18.227.645.426 1.297.896 1.82-.192.087-.344-.019-.49-.111-1.057-.667-2.126-1.312-3.18-1.981-.133-.084-.283-.158-.28-.35" fill="#D7D2D1"/><path d="M276.363 371.742l-.021-.21a1.301 1.301 0 0 1 .007-1.271l.019-3.802c.065-.045.119-.034.162.033.21.789.058 1.59.095 2.386.002.678.106.8.772.683 1.299-.226 2.552-.598 3.707-1.258.276-.158.537-.435.917-.269-.789.755-1.735 1.315-2.562 2.021-.654.56-1.425.97-2.03 1.587a1.017 1.017 0 0 1-.748.49c-.245-.019-.239-.239-.318-.39" fill="#7E91B4"/><path d="M275.185 342.987c-.315-.13-.631-.26-.856-.533.34.093.672.196.856.533zm1.164 27.274l-.007 1.271c-.656-.013-.726-.083-.729-.741l.002-.637c.24.06.48.14.734.107zm-.736-9.763c-.158-.14-.103-.329-.104-.498-.002-3.231 0-6.462 0-9.693.183.39.201.827.194 1.225-.042 1.94.227 3.878.105 5.813-.068 1.05.008 2.112-.195 3.153zm.836 5.913a.692.692 0 0 0-.081.048c-.002-4.587.034-9.175-.036-13.76-.016-1.062-.033-2.137-.15-3.207-.06-.559-.063-1.19.267-1.729l.01 7.586c.001.23.012.459.018.688.146.174.162.386.162.598-.004 2.125.023 4.25-.013 6.376.01 1.013.034 2.027-.012 3.04-.008.14-.039.272-.165.36z" fill="#FDFDFD"/><path d="M297.93 333.86l.427-.197c.142.167.105.37.099.56-.04 1.268-.172 2.53-.255 3.796-.086 1.318-.184 2.636-.274 3.954-.081 1.178-.147 2.358-.262 3.531-.064.651-.027 1.3-.069 1.95-.088 1.404-.297 2.805-.246 4.218.156.527-.317.602-.594.819a2851.68 2851.68 0 0 1-12.43 9.154c-1.382 1.038-2.785 2.045-4.172 3.074-.186.138-.357.37-.648.203a.504.504 0 0 1-.07-.167c-.05-1.583-.01-3.166-.024-4.748.016-4.713.165-9.426.093-14.14-.007-.485.18-.767.597-1.015 1.215-.723 2.404-1.489 3.609-2.229.137-.084.267-.173.43-.193 2.619-1.618 5.239-3.235 7.857-4.854a2759.98 2759.98 0 0 0 5.456-3.387c.164-.102.318-.22.477-.33" fill="#27334E"/><path d="M284.141 342.43c-1.308.816-2.603 1.653-3.931 2.437-.48.282-.643.624-.642 1.158.01 4.42-.001 8.838-.006 13.256 0 .23-.009.46-.013.69-.09.501-.014 1.008-.042 1.511-.108.612-.047 1.23-.043 1.844.002.358-.085.632-.359.884-.664.608-1.319 1.224-2.065 1.734-.169.116-.34.27-.579.18l.01-3.081c.459-.309.996-.453 1.482-.708.815-.428 1.275-.98 1.274-1.99 0-1.161-.057-2.322-.033-3.482a5.06 5.06 0 0 1 .155-1.25c.208-3.217.068-6.44.104-9.66-.073-.551.13-.894.643-1.189 1.132-.65 2.211-1.392 3.312-2.097.279.025.407-.407.733-.237" fill="#6B7997"/><path d="M297.278 351.793c-.143-.125-.108-.295-.097-.447.097-1.385.214-2.768.298-4.153.036-.598.073-1.194.117-1.79.132-1.79.2-3.583.34-5.371.167-2.122.38-4.24.421-6.369.34.016.216.28.206.436-.086 1.336-.19 2.671-.286 4.008-.013.175-.007.351-.009.527l-.32 4.562-.215 2.978c.098.438-.028.872-.023 1.308-.114 1.22-.176 2.444-.263 3.667-.017.226.001.458-.169.644" fill="#25272B"/><path d="M264.71 340.362c1.298.844 2.604 1.675 3.95 2.442 1.095.69 2.18 1.395 3.288 2.06.403.241.55.531.549.99-.004 4.085.01 8.171.02 12.257 0 .194.011.389.017.583.104 2.002.1 4.006.084 6.01-.004.448-.206.537-.62.249-.899-.626-1.764-1.298-2.642-1.953-4.109-3.148-8.362-6.106-12.502-9.215-.716-.474-1.362-1.046-2.092-1.498-.267-.166-.235-.399-.23-.643.02-1.59-.178-3.164-.29-4.744-.04-.562-.053-1.125-.11-1.688-.127-1.225-.104-2.46-.188-3.69-.127-1.845-.258-3.69-.393-5.534-.044-.615-.072-1.23-.136-1.845-.021-.204-.05-.427.102-.61.303-.008.467.281.738.344l10.456 6.485z" fill="#27334E"/><path d="M253.516 333.533c.022 1.563.184 3.116.31 4.672.099 1.224.138 2.453.226 3.679.127 1.765.27 3.53.415 5.294.04.49.031.983.056 1.474.052 1.045.314 2.089.092 3.142-.175-.136-.183-.335-.189-.526-.043-1.508-.173-3.012-.276-4.517-.086-1.257-.235-2.51-.26-3.77-.001-.105-.013-.212.038-.312-.12-1.731-.236-3.463-.359-5.195-.083-1.174-.182-2.348-.256-3.524-.01-.147-.155-.422.203-.417" fill="#2E2F31"/><path d="M253.928 342.669c.034 2.362.419 4.7.48 7.063.017.675-.059 1.396.207 2.062-.05.246.133.32.295.437.674.483 1.336.985 2.003 1.48.074.202.059.32-.199.205-.671-.511-1.34-1.028-2.017-1.53-.356-.263-.264-.654-.324-1.001-.068-.39.11-.806-.11-1.185-.057-2.085-.25-4.16-.41-6.24-.033-.424-.122-.871.075-1.291" fill="#DDDCDE"/><path d="M256.715 353.916c.186.046.132-.137.198-.205 2.344 1.71 4.695 3.414 7.033 5.132 1.797 1.32 3.58 2.657 5.37 3.987.041.13.102.276-.07.349-.134.056-.228-.045-.284-.153-.063-.123-.202-.118-.288-.195-.004-.424-.436-.474-.662-.659-.593-.486-1.296-.814-1.876-1.359-.292-.274-.497-.858-1.09-.766-.148-.436-.78-.275-.93-.763-.047-.148-.347-.297-.508-.392a25.193 25.193 0 0 1-1.45-.938c-1.814-1.347-3.628-2.692-5.443-4.038" fill="#E8E7E8"/><path d="M268.675 362.83c.121.047.322-.2.37.09.02.117.05.229.172.183.059-.022.067-.177.099-.273l3.219 2.309v-6.445c.194.593.037 1.205.092 1.805.111 1.266.023 2.534.047 3.801.008.402.05.811-.156 1.187.126.837.22 1.664-.083 2.497-.097.268-.02.595-.024.896-.137.366-.554.083-.748.319-.226.154-.37-.034-.509-.144-2.276-1.799-4.66-3.456-6.958-5.226-.966-.744-1.974-1.435-2.94-2.18-.171-.133-.421-.222-.374-.517.65.16 1.28.38 1.953.47.552.074 1.076.292 1.58.58 1.08.613 2.25 1.03 3.452 1.35.27.071.565.124.799-.117.184-.19.11-.388.009-.585" fill="#E2DCDB"/><path d="M260.882 361.133c.708.718 1.57 1.246 2.37 1.85 2.56 1.933 5.176 3.795 7.708 5.768.215.167.399.409.703.448.757.815 1.682 1.43 2.552 2.112.125.098.26.18.333.328-.232.19-.47.017-.705.012-.37-.11-.629-.387-.925-.61-3.44-2.583-6.86-5.196-10.283-7.802-.38-.29-.741-.605-1.143-.866-1.25-1.032-2.603-1.93-3.859-2.957-.095-.131-.309-.184-.277-.402.178-.366.296-.022.42.046 1.096.6 2.037 1.43 3.106 2.073" fill="#DBE0E8"/><path d="M282.022 368.033c-.256.024-.475.157-.677.29-1.155.76-2.48 1.052-3.792 1.382-.1.026-.21.022-.316.025-.76.02-.777.004-.758-.748.099-.094.221-.099.348-.096.775.016 1.453-.28 2.11-.645 1.165-.645 2.22-1.45 3.324-2.186 1.85-1.232 3.48-2.728 5.168-4.154 1.234-1.042 2.076-2.4 2.81-3.822a.781.781 0 0 0 .065-.564c.048-.234.252-.333.418-.457 1.616-1.21 3.26-2.384 4.88-3.59.155-.114.307-.245.517-.252.431.157.313.46.168.731-.367.685-.703 1.392-1.183 2.007-.83 1.06-1.561 2.187-2.302 3.306a10.751 10.751 0 0 1-1.389 1.66c-2.3 1.746-4.6 3.494-6.901 5.238-.828.629-1.66 1.25-2.49 1.875" fill="#7689B6"/><path d="M291.413 360.92c.515-.706 1.076-1.385 1.536-2.125 1.03-1.66 2.372-3.116 3.221-4.893.104-.218.288-.446-.06-.622-.01-.28.24-.355.405-.484.35-.278.735-.515.987-.9.258-.01.273-.198.334-.393.483-1.52.967-3.038 1.488-4.544.194-.56.503-1.082.623-1.672.036-.178.139-.279.324-.289-.176 1.992-.359 3.984-.525 5.976a63.621 63.621 0 0 0-.21 3.208c-.021.653-.479.956-.905 1.281-2.4 1.827-4.81 3.64-7.218 5.457" fill="#7E95BE"/><path d="M277.43 372.074l-.208.224c-.175.295-.417.479-.778.466a.193.193 0 0 1-.113-.086c-.007-.27.151-.449.343-.608l.755-.43c.107.145-.052.29.002.434" fill="#92A3C1"/><path d="M278.949 370.911c-.19.21-.378.423-.67.5.086-.35.345-.47.67-.5" fill="#7E91B4"/><path d="M297.502 351.897c-.059.527-.536.68-.87.963-.17.144-.347.28-.521.42l-5.767 4.243c-.028.177-.168.261-.297.353-2.618 1.869-5.17 3.826-7.785 5.698-.17.122-.35.4-.613.114.165-.435.624-.538.94-.795.558-.452 1.14-.877 1.733-1.285 4.006-2.944 8.005-5.898 12.019-8.832.123-.09.285-.16.312-.342.14-.28.681-.173.625-.641.116-1.45.232-2.898.346-4.347.225.05.137.186.09.313l-.212 4.138" fill="#929DB2"/><path d="M297.713 347.76c-.007-.112.019-.231-.089-.313l.108-1.273c.133.53.16 1.059-.019 1.585" fill="#7E95BE"/><path d="M279.206 325.14l.794-1.006-.06-.086-7.993 3.248-.062-.088 2.048-2.032c.783-.78.783-.78-.248-1.25-.463-.21-.925-.423-1.498-.686.904-.421 1.749-.738 2.512-1.192.848-.503 1.558-.447 2.45-.019 3.88 1.863 7.805 3.639 11.713 5.446.126.058.251.118.371.175-.016.186-.166.2-.263.253-2.543 1.408-5.091 2.806-7.631 4.22-.281.157-.506.172-.785.015-.556-.312-1.128-.597-1.693-.893-.665-.35-.663-.348-.208-.91l4.027-4.979-2.037.758c-.049.022-.116.038-.145-.002-.329-.46-.812-.713-1.292-.972" fill="#293550"/><path d="M278.204 332.036l1.667.872c-.877.488-1.667.934-2.465 1.369-.526.287-1.06.774-1.592.777-.51.003-1.024-.5-1.534-.786l-11.13-6.248c-.154-.086-.306-.176-.456-.263.007-.21.192-.204.302-.255 2.586-1.206 5.177-2.401 7.762-3.61.28-.13.519-.158.801-.015.38.19.77.366 1.17.506.405.142.491.254.133.596-1.5 1.434-2.972 2.898-4.457 4.347-.14.136-.3.25-.388.457l3.219-1.241c.378.127.376.458.344.746-.074.638.24.97.787 1.212 1.376.61 2.735 1.258 4.106 1.88a.957.957 0 0 0 .863-.005c.28-.129.518-.383.869-.339" fill="#2B3753"/><path d="M278.204 332.036l-.263.177c-.624.428-1.2.527-1.941.113-1.104-.617-2.3-1.07-3.457-1.594-.145-.066-.284-.143-.429-.208-.475-.212-.777-.51-.672-1.092.056-.308.04-.634-.207-.89l5.664-2.368.074.096-3.01 3.486.041.076 5.501-2.256.065.076-1.3 1.62c-.444.552-.882 1.108-1.337 1.65-.168.2-.164.3.083.427.406.208.793.456 1.188.687" fill="#32415F"/><path d="M279.206 325.14c.72-.027 1.045.523 1.439.974l-3.355 1.416-.086-.112 2-2.279" fill="#32415E"/><path d="M276.673 372.07c-.012.252-.242.396-.311.62-.044.162-.173.207-.317.228-.613.09-1.984-.761-2.237-1.386l.74.108c.414.477 1.019.275 1.53.41.175.046.269-.131.285-.308.123.09.142.278.31.328" fill="#CBD7DF"/><path d="M272.516 365.487c-.094-.042-.377-.063-.149-.194.3-.172.254-.39.255-.623.004-1.39.002-2.78.002-4.17.148.12.102.288.102.44.004 1.334.003 2.668.003 4.002 0 .209.032.43-.213.545" fill="#EEE7DD"/><path d="M279.349 355.613c.05 1.126-.008 2.25.07 3.38.047.7-.043 1.436-.078 2.156-.02.37-.303.598-.56.806-.677.549-1.432.953-2.31 1.088l.006-7.006c.017.003.045-.002.05.008.388.658 1.113.513 1.697.692.405.125.662-.119.842-.457.114-.214.105-.48.283-.667" fill="#5E7195"/><path d="M281.698 363.678c.216.11.312-.08.443-.176 2.735-1.992 5.468-3.986 8.203-5.98.269.116.178.29.087.476-.95 1.92-2.221 3.577-3.94 4.887-1.133.865-2.118 1.913-3.33 2.681-1.19.755-2.215 1.745-3.497 2.368-.362.177-.688.428-1.045.617-.667.355-1.374.55-2.14.43l-.03-2.57.012-.288c1.076-.567 1.898-1.447 2.785-2.247.16-.144.086-.328.103-.497.06-.605-.122-1.224.106-1.819.119.94.018 1.883.056 2.824.008.186-.066.385.065.559l-.013.01c.378.07.548-.266.79-.433.358-.248.737-.474 1.056-.78.072-.069.177-.116.29-.062" fill="#6D82A9"/><path d="M294.084 346.833c-.302.525-.31 1.104-.324 1.685-.019.822-.148 1.608-.71 2.268-.29.34-.643.604-1.005.845-.97.646-1.839 1.432-2.856 2.008-.362.205-.754.263-1.173.286-.981.057-1.888.43-2.808.74-.568.19-1.111.472-1.741.422-.181-.014-.352-.031-.51-.125.515-.982.223-2.065.419-3.086-.023-.074-.133-.022-.063-.03.025-.004.035.01.03.043a14.364 14.364 0 0 0-.216 2.197c-.004.211.06.473-.236.576-.326-.003-.425-.357-.697-.444a.477.477 0 0 1-.074-.402c.178-.859.291-1.73.538-2.574a.67.67 0 0 1 .438-.192c.132.047.268.094.34-.087.07-.18.025-.33-.136-.442.127-.756.629-1.302 1.134-1.8 1.662-1.635 3.32-3.281 5.077-4.814.976-.851 2.144-1.485 3.225-2.216.146-.1.288-.204.439-.294.211-.126.42-.253.687-.117.282.145.339.375.33.662-.013.423-.005.847-.003 1.27.002.17-.044.372.217.409.054.158-.042.276-.125.385-.456.594-.49 1.308-.584 2.006-.048.358.16.594.387.82" fill="#32405D"/><path d="M282.658 351.242c.085.653-.17 1.26-.256 1.89-.05.365-.137.724-.208 1.087-.086.372-.206.74-.25 1.117-.047.426-.281.653-.725.831-.123-1.155-.25-2.273-.357-3.393-.03-.313.274-.355.496-.528l.242 2.626.085.012c.179-.952.378-1.9.524-2.857.053-.342.162-.6.45-.785" fill="#FBFBFA"/><path d="M294.084 346.833c-.63-.01-.548-.496-.523-.861.06-.855.248-1.68.846-2.35.575-.326.756-.235.755.43-.004 1.058-.099 2.092-1.078 2.78" fill="#FCFCFB"/><path d="M296.653 352.434c.075.18.074.179-.113.316-1.538 1.124-3.077 2.248-4.615 3.374l-7.559 5.539c-.11.044-.128-.004-.102-.1 3.044-2.25 6.088-4.5 9.135-6.749 1.08-.798 2.169-1.587 3.254-2.38" fill="#C4CCD7"/><path d="M295.976 344.596c-.29.421-.112 1.017-.691 1.279-.035-.347.107-.633.217-.903.242-.597.324-1.178.02-1.77-.145-.281.064-.384.242-.492.31-.19.177.21.367.253.209-.269.082-.786.576-.895.094.166-.034.327-.093.461-.297.677-.388 1.346-.03 2.028.203.388-.122.478-.39.658l-.218-.62" fill="#FAFAFA"/><path d="M282.892 354.662c.064-.79.144-1.579.184-2.37.015-.287.106-.465.458-.58-.062.972-.117 1.91-.186 2.845-.016.226-.257.272-.39.405l-.066-.3z" fill="#F9FAF9"/><path d="M284.265 361.564l.102.099-2.668 2.014c-.567.406-1.134.812-1.7 1.22-.138.1-.26.271-.436.057l4.095-2.976c.198-.144.404-.276.607-.414" fill="#AFB9C4"/><path d="M279.575 364.943c-.189-.124-.115-.318-.116-.483-.007-.966-.004-1.933-.004-2.9.054-.528-.106-1.07.093-1.59l.027 4.973" fill="#5E7195"/><path d="M283.3 350.52c.095-.023.224-.162.274-.064.115.222.066.468-.059.687-.06.104-.135.227-.27.206-.159-.024-.096-.198-.15-.298l.206-.53z" fill="#E8E9EC"/><path d="M256.788 342.578c.337-.475-.025-.94-.033-1.41-.003-.245-.081-.492.02-.727.413-.95.815-1.028 1.88-.376 1.3.797 2.516 1.758 3.645 2.799.93.857 1.653 1.88 2.214 3.008.536 1.075 1.16 2.098 1.789 3.12.083.137.147.282.131.45.008.966.198 1.917.264 2.879.01.14.038.298.145.389.557.474 1.083 1.002 1.827 1.197.295.281.175.663.247.999.119.55.264 1.094.37 1.645.088.453.07.885-.426 1.137-.502.256-1.067.222-1.416-.177-.499-.57-1.005-1.139-1.349-1.825-.348-.696-.675-1.404-1.056-2.083-.678-1.209-1.583-2.225-2.846-2.843-.83-.407-1.713-.642-2.537.072-.21.181-.383.03-.512-.095a1.97 1.97 0 0 1-.4-.554c-.551-1.176-.846-2.42-.955-3.708.404.05.824.131.886-.465.077-.117.076-.327.309-.263.214.473.09 1.01.318 1.558a7.406 7.406 0 0 1-.053-1.257c.03-.148.043-.357.239-.331.287.038.176.315.226.494.393.874.692 1.8 1.39 2.507.106.093.217.18.34.253.134.104.292.124.456.12.548.275 1.04.639 1.57.943.152.126.227.302.303.474.087.195.215.309.444.252a.369.369 0 0 1 .215.05c.413.601.954 1.048 1.693 1.438-.13-.416-.408-.53-.636-.672-.732-.455-1.219-1.068-1.361-1.931-.036-.215-.053-.42.026-.625.145-.377.346-.453.701-.252.154.088.283.216.436.306.133.077.24.217.5.184-.413-.43-.876-.705-1.335-.98-.171-.102-.342.035-.51.078-.265.02-.366-.178-.482-.357a8.418 8.418 0 0 1-.699-1.31 11.693 11.693 0 0 0-2.67-3.928c-.37-.357-.651-.795-1.04-1.137-.12-.105-.23-.224-.373-.298-.163-.084-.338-.148-.507-.042-.183.115-.154.31-.117.482.149.693.362 1.368.604 2.033.109.3.22.596.287.907a.95.95 0 0 1-.004.488c-.033.08-.083.14-.174.154-.224-.073-.24-.281-.297-.46-.245-.77-.628-1.44-1.352-1.872-.163-.098-.333-.21-.335-.438" fill="#33415E"/><path d="M258.772 346.056c-.202.727-.313.774-.982.418-.794-.585-1.61-1.147-1.883-2.182-.122-.46-.27-.915-.213-1.395.077-.649.371-.771.909-.404.055.037.123.057.185.086.596.516 1.324.91 1.598 1.722.116.34.24.678.36 1.017.225.239.018.492.026.738" fill="#FCFCFB"/><path d="M270.53 354.286l-1.55-1.104c.11.561.327.956.715 1.25.352.27.713.528 1.08.775.179.12.248.25.134.437-.15.245-.264.015-.376-.048-1.16-.65-1.847-1.623-2.02-2.942-.018-.14-.042-.283-.034-.422.016-.298.016-.626.335-.784.297-.147.495.105.707.247.324.218.629.464.956.675.196.126.209.276.105.442-.158.25-.269-.007-.372-.068-.229-.134-.433-.308-.653-.457-.184-.124-.377-.34-.59-.062-.217.282.036.401.221.535.418.3.837.599 1.251.903.282.208.28.212.092.623" fill="#FBFBFB"/><path d="M268.67 353.907c-.092.107-.135.279-.349.112-.475-.37-.973-.711-1.463-1.063-.205-.147-.277-.364-.301-.597-.095-.913-.178-1.828-.276-2.742-.015-.141.006-.2.153-.175a.6.6 0 0 1 .23.442c.04.542.177 1.083.161 1.62-.02.72.294 1.153.883 1.524.356.226.853.362.963.879" fill="#FAFAFA"/><path d="M273.808 371.531c.583.447 1.082 1.012 1.837 1.207.255.065.486.082.717-.048l.004.049c.832.072 1.571-.247 2.285-.589 1.92-.922 3.72-2.035 5.342-3.426.255-.217.466-.61.923-.487.044.232-.123.356-.265.482a24.411 24.411 0 0 1-6.46 4.12 5.204 5.204 0 0 1-2.227.421c-.684-.088-1.296-.36-1.865-.736-1.525-1.011-2.924-2.185-4.342-3.335a168.927 168.927 0 0 0-7.777-5.935c-.199-.144-.426-.261-.545-.495-.046-.174-.058-.342.094-.477.94.588 1.775 1.318 2.658 1.982 2.19 1.645 4.363 3.311 6.546 4.964 1.02.773 2.05 1.536 3.075 2.303" fill="#404354"/><path d="M262.484 366.968a.606.606 0 0 1 0-.104c-.025-.214.129-.169.24-.15.174.029.335.105.495.18.045.029.1.055.12.102.422.995 1.292 1.544 2.104 2.178 1.565 1.221 3.081 2.506 4.598 3.788.29.245.664.345.967.558.314.222.755.375.673.899a.32.32 0 0 1-.22.059c-.529-.071-.995-.342-1.538-.5-.046.398.546.762.037 1.132a3.574 3.574 0 0 1-1.773-.854c-.08-.425-.315-.78-.527-1.145-.07-.12-.175-.255-.06-.388.132-.155.294-.055.437.005.209.087.388.228.603.317-1.626-1.247-3.044-2.73-4.643-4.006a.895.895 0 0 0-.478-.212c-.25-.112-.313-.38-.473-.567-.25-.403-.479-.816-.562-1.292" fill="#E1E3E9"/><path d="M263.229 366.977c-.268.09-.462-.306-.746-.113-.183-.253-.255-.549-.323-.846-.11-.22.011-.278.2-.266.137.009.258.08.378.143a.742.742 0 0 1 .124.087c.159.163.243.37.339.57.04.14.113.277.028.425" fill="#C6CBD3"/><path d="M262.803 366.016c-.214.118-.43-.46-.643.002l-.213-.427-.004-.21c.592-.164.913.075.86.635" fill="#A8ADBE"/><path d="M284.9 368.245c-.58.275-1.008.751-1.51 1.131-1.937 1.468-3.947 2.8-6.328 3.47-.271.077-.483.052-.695-.107.312-.094.588-.258.855-.44.072.308.252.15.406.09 1.417-.548 2.7-1.348 3.897-2.25 2.282-1.72 4.504-3.515 6.734-5.301.632-.506 1.093-1.213 1.85-1.58.112-.054.118-.162.132-.27.046-.374.402-.492.643-.496.192-.002.07.358.098.556-.626.335-.896 1.005-1.407 1.467-1.323 1.196-2.71 2.31-4.084 3.445-.165.136-.319.347-.591.285" fill="#323A53"/><path d="M284.9 368.245c1.588-1.252 3.188-2.49 4.63-3.911.291-.287.702-.444.792-.941.034-.188.36-.373.66-.345-.036.246.102.515-.097.74-.418.197-.632.59-.918.921-.948 1.096-2.047 2.04-3.147 2.98-.523.446-1.018.928-1.602 1.302-.86.598-1.613 1.343-2.515 1.875-1.803 1.064-3.616 2.121-5.736 2.464-.248.04-.496.058-.744.024-.13-.018-.304-.01-.288-.225 1.62.055 2.945-.727 4.303-1.458 1.53-.826 2.906-1.857 4.234-2.963.16-.134.286-.308.428-.463" fill="#434E6D"/><path d="M285.221 368.882c1.162-1.028 2.387-1.983 3.491-3.079.55-.544 1.146-1.027 1.523-1.724.12-.222.383-.304.65-.292-.03.286.063.589-.123.852-.297.193-.645.329-.784.697-1.524 1.738-3.23 3.279-5.042 4.717-1.856 1.472-3.888 2.594-6.152 3.306-.162.01-.324.014-.471-.076-.104-.324.182-.315.349-.39 1.015-.457 2.038-.896 3.023-1.42 1.008-.534 1.86-1.275 2.746-1.972.263-.207.54-.397.79-.619" fill="#566284"/><path d="M289.918 365.271c.102-.448.399-.638.844-.632l-.081.309c.19.457.019.842-.24 1.211-.546.045-.843.412-1.094.84-.417.279-.732.667-1.074 1.025-1.31 1.213-2.654 2.39-4.111 3.43-.55.394-1.151.695-1.72 1.053-.457.183-.906.384-1.376.529-.198.06-.4.15-.61.038-.124-.263.117-.293.252-.341 1.814-.642 3.267-1.858 4.742-3.014 1.521-1.192 2.883-2.568 4.173-4.007.117-.13.194-.295.295-.44" fill="#6A7799"/><path d="M285.953 373.76c-.912.514-1.765 1.133-2.742 1.532-.145.06-.291.116-.437.174-.076.163-.22.252-.373.33-1.17.474-2.391.76-3.636.954a1.04 1.04 0 0 1-.576-.05c-.186-.129-.32-.28-.224-.528.15-.139.34-.183.535-.202.846-.08 1.671-.271 2.491-.487 1.196-.357 2.35-.812 3.42-1.464.482-.18.833-.594 1.332-.748.056 0 .107.012.156.039.113.1.178.21.072.353a.6.6 0 0 1-.018.096" fill="#5D697E"/><path d="M285.971 373.663l-.108-.325c-.064-.143.02-.254.119-.313.625-.368.664-.975.676-1.596.111-.346.315-.6.695-.671.333.172.166.498.236.826.611-.555 1.062-1.178 1.455-1.838.189-.318-.136-.642-.093-.978a.718.718 0 0 1 .142-.358c.259-.2.22-.665.649-.714.355.295.375.662.205 1.05-.126.29-.278.566-.347.877a11.982 11.982 0 0 1-3.629 4.04" fill="#647490"/><path d="M289.6 369.624c-.089-.234-.02-.442.108-.639.277-.425.28-.848-.002-1.27-.058-.6.282-1.05.575-1.517.27.095.324.375.484.564-.22 1.022-.586 1.985-1.165 2.862" fill="#43506C"/><path d="M290.765 366.762c-.321-.042-.36-.304-.426-.545-.034-.023-.045-.044-.032-.065.012-.02.024-.03.037-.03.238-.356.278-.768.337-1.174.241.042.321-.123.37-.337a4.816 4.816 0 0 1-.286 2.151" fill="#303A52"/><path d="M291.823 346.806c.099-.675-.02-1.36.135-2.036.087-.382.566-.894.965-.935.243-.025.388.061.4.3.01.19.012.393-.04.575-.11.388-.214.695-.013 1.157.245.561-.102 1.2-.466 1.703a2.602 2.602 0 0 1-1.059.882v-.76c.082-.29-.155-.608.078-.886" fill="#FCFCFB"/><path d="M290.04 349.79c-.194 1.016-1.173 1.118-1.853 1.561-.185.121-.432.147-.65.216-.071-.2-.003-.36.191-.418.29-.088.324-.324.317-.543-.027-.807.162-1.604.112-2.41.155-.33.472-.323.765-.367.117-.08.027.357.249.088.122-.147.344-.339.543-.135.203.207.115.478-.067.665-.388.398-.733.81-.807 1.385-.022.169-.135.379.062.479.205.104.318-.104.408-.244.161-.251.375-.36.669-.321l.06.045" fill="#344361"/><path d="M288.215 348.165c.195.148.097.356.09.532a29.767 29.767 0 0 1-.128 1.933c-.03.268.12.733-.47.632-.038-.007-.113.199-.17.306l-.29.32c-.477.164-.54-.162-.574-.493-.07-.636.063-1.261.107-1.892.008-.3.055-.576.427-.634.318.06.264.324.292.54.055.436-.11.864-.01 1.308.173-.654.211-1.329.26-2.002.044-.276.102-.541.466-.55" fill="#FAFBFA"/><path d="M287.257 348.895c-.228.119-.373.288-.344.562-.149.217-.374.174-.588.173a.324.324 0 0 1-.14-.049c-.097-.115-.11-.228.007-.338.487-.086.778-.472 1.117-.763.695-.594 1.388-1.189 2.096-1.769.412-.337.86-.463 1.373-.437.19.216.144.461.09.707-.11.296-.328.398-.63.351-.365-.217-.659-.133-.92.19-.107.132-.206.29-.39.343-.203.182-.488.172-.713.3-.182.143-.346.298-.346.553-.13.313-.371.243-.612.177" fill="#344360"/><path d="M286.31 349.574a.116.116 0 0 0 .083-.004c.19.212.14.439-.008.63-.438.566-.179 1.237-.296 1.85-.015.08.036-.018.063-.02.305-.032.2.146.156.293-.19.261-.34.725-.693.589-.29-.111-.113-.568-.118-.877-.008-.485.21-.986-.107-1.456-.042-.062-.008-.237.053-.298.288-.288.308-.647.338-1.017.013-.157.053-.351.295-.34.102.158.032.334.05.5.013.118.034.21.185.15" fill="#F9FAF9"/><path d="M286.308 352.323c-.01-.07-.02-.2-.028-.2-.58.014-.316-.413-.302-.64.03-.502-.145-1.065.386-1.455.112-.082.055-.3.029-.458l.52-.112c-.03.683-.069 1.366-.086 2.05-.007.26.032.525.42.381l-.939.434" fill="#344361"/><path d="M290.752 347.02l.026-.746c.002-.374-.035-.749.1-1.116.064-.176.149-.353.333-.324.173.026.083.231.09.358.009.207-.003.415-.005.622a1.8 1.8 0 0 0 .008.878c.08.313.079.633-.042.928-.117.285-.09.54.034.803.037.433-.167.692-.58.803-.327-.25-.192-.607-.209-.924-.024-.445.108-.866.245-1.282" fill="#F8F8F8"/><path d="M284.02 354.137c.057-.966.103-1.846.163-2.725.02-.288.037-.296.417-.26.131.012.074-.083.101-.125.112-.169.123-.405.408-.532.012.317.047.565-.214.806-.22.203-.3.509-.32.818-.028.476-.087.95-.09 1.426-.003.3-.146.44-.464.592" fill="#F7F8F8"/><path d="M290.752 347.02c.034.735-.204 1.467-.037 2.206-.326.068-.332.517-.675.565l-.016-.016a.357.357 0 0 1-.136-.278c.003-.704.07-1.404.14-2.104.007-.07.065-.123.124-.165.224 0 .464.044.6-.208" fill="#344361"/><path d="M291.295 348.422c-.178.048-.212-.05-.2-.196l.201-2.412c.016.24-.015.498.064.717.056.16.175.411.463.275.013.299.03.598-.077.887-.026-.077-.05-.243-.118-.188-.16.13-.417.241-.336.519.04.14.086.264.003.398" fill="#344360"/><path d="M286.31 349.574c-.094.106-.203.26-.227-.035-.016-.204-.005-.41-.007-.615.217.042.047.223.115.319-.01.127-.021.256.118.33" fill="#344361"/><path d="M294.077 345.562c.007-.505.052-.871.228-1.208.057-.108.136-.232.28-.198.12.027.13.154.135.261.017.46 0 .918-.163 1.355-.06.162-.143.38-.346.337-.189-.039-.12-.264-.133-.415-.007-.087-.001-.176-.001-.132" fill="#313D59"/><path d="M258.831 344.681c-.324-.905-.648-1.81-.878-2.746-.07-.286-.205-.639.123-.81.323-.171.657-.02.913.243 1.548 1.601 3.116 3.184 3.93 5.327.181.474.484.901.723 1.353.072.135.157.234.32.241.11.67.017 1.372.326 2.012.08.164.228.333.082.537l-.216.01c-.263-.057-.28-.297-.353-.486-.387-.988-.74-1.99-1.114-2.982-.067-.178-.094-.453-.294-.468-.243-.02-.201.283-.286.442-.29.539-.305 1.196-.725 1.68-.136-.006-.225-.08-.288-.193-.1-.364-.37-.64-.514-.98-.087-.204-.17-.413.174-.473.348-.06.328-.335.293-.58-.094-.652-.352-1.226-.9-1.627-.384-.28-.768-.564-1.173-.824-.052.111 0 .261-.143.324" fill="#344461"/><path d="M264.37 350.838c-.363-.813-.689-1.633-.408-2.549.193-.317.447-.226.677-.072.41.273.798.577 1.206.853.18.123.159.247.071.403-.136.241-.24.017-.327-.037-.255-.16-.488-.353-.74-.519-.38-.25-.612-.152-.611.305 0 .73.22 1.395.824 1.87.335.262.68.51 1.035.745.197.13.266.26.134.474-.177.293-.36-.006-.414-.053-.506-.447-1.196-.718-1.447-1.42zm-2.988-1.804l.756-2.185c.04-.111.044-.265.21-.259.14.005.21.126.256.24.176.439.348.88.517 1.321l1.033 2.696c-.28.212-.38-.017-.446-.208a2.066 2.066 0 0 0-.28-.545c-.25-.218-.54-.376-.815-.556-.29-.192-.49-.441-.426-.82.29-.393.462.04.697.072-.1-.327-.225-.668-.369-1.044-.146.306-.192.624-.349.897-.072.184-.102.395-.306.499-.22.232-.346.045-.478-.108zm-2.55-4.353c.048-.167-.07-.346.053-.543.987.7 2.15 1.22 2.3 2.64.061.585-.088.795-.618.742.186.357.368.691.533 1.034.04.083.218.198-.006.287-.252-.105-.38-.313-.496-.548-.331-.679-.677-1.352-1.016-2.027.313-.15.479.125.699.243.09.05.174.165.277.1.133-.083.064-.224.032-.337-.06-.213-.21-.364-.384-.491-.242-.176-.493-.338-.82-.59.088.367-.147.615-.01.901.018.402-.032.807.09 1.204.03.1.09.28-.07.317-.164.037-.25-.121-.269-.262-.07-.534-.125-1.07-.187-1.604-.16-.168-.012-.378-.076-.559l-.033-.507z" fill="#FBFBFB"/><path d="M259.377 346.092c-.139-.337-.088-.693-.136-1.203.569.544 1.302.709 1.52 1.448.052.176.133.413-.057.533-.15.095-.272-.114-.407-.185-.245-.128-.41-.393-.715-.42-.017-.059-.054-.121-.045-.176.018-.106.132-.262-.043-.28-.154-.016-.084.182-.117.283" fill="#354461"/><path d="M258.864 345.187c.093.178.093.367.076.559l-.168.31-.025-.738.117-.13zm3.383 3.525c.032.565.502.773.878 1.053.125.093.258.167.302.33-.575-.233-1.071-.592-1.567-.953.072-.177.071-.382.216-.53.088-.019.146.013.171.1z" fill="#344461"/><path d="M256.069 343.51c0-.19-.033-.405.164-.525.216-.134.36.054.517.153.809.511 1.531 1.087 1.631 2.137.02.196.026.385-.054.57-.065.144-.155.217-.332.17-.965-.259-1.923-1.496-1.926-2.505" fill="#2C3854"/><path d="M285.221 368.882c-.597.656-1.347 1.13-2.018 1.697-1.306 1.104-2.88 1.701-4.422 2.362-.176.076-.37.13-.499.291-.561.414-1.217.415-1.869.412-1.446-.008-2.544-.813-3.624-1.619-2.386-1.779-4.62-3.748-6.983-5.555-1.14-.873-2.31-1.7-3.476-2.538-.212-.152-.432-.314-.707-.351-.186-.228-.064-.494-.094-.742.627.295 1.142.755 1.69 1.16a278.352 278.352 0 0 1 5.074 3.827c1.532 1.192 3.008 2.455 4.546 3.64.931.718 1.855 1.494 3.096 1.661.577.277 1.165.088 1.698-.07a18.527 18.527 0 0 0 6.271-3.23c.423-.332.79-.751 1.317-.945" fill="#565B70"/><path d="M262.803 366.016c-.059-.517-.439-.604-.86-.636l-.187-.526c.302-.169.498.073.718.192 1.654.89 3.058 2.12 4.51 3.286 1.618 1.3 3.123 2.738 4.82 3.94.91.647 1.82 1.297 2.852 1.756.53.236 1.087.278 1.652.36 1.98.289 3.722-.548 5.535-1.064.254-.073.488-.215.752-.266a.33.33 0 0 1 .152.035c.117.258-.116.362-.234.513-.133.172-.361.271-.403.517-.346.302-.796.346-1.211.473-.755.232-1.53.395-2.314.485-.41.053-.818.136-1.235.107l-.266-.001c-.348-.019-.698.025-1.044-.037-.605-.247-1.206-.5-1.837-.694-.682-.21-1.207-.732-1.81-1.101-2.364-1.446-4.269-3.45-6.39-5.19a32.823 32.823 0 0 0-2.508-1.888c-.214-.145-.454-.196-.692-.261" fill="#A4AABB"/><path d="M282.656 373.123c-1.026.495-2.116.795-3.22 1.058-.378.09-.738.266-1.118.318-1.948.272-3.694-.135-5.361-1.261-2.633-1.778-4.918-3.967-7.404-5.915-1.191-.933-2.39-1.86-3.797-2.47l-.103-.53c.198-.18.358-.018.527.058 1.056.481 1.966 1.188 2.872 1.888 1.158.894 2.324 1.783 3.413 2.764a33.505 33.505 0 0 0 4.404 3.591c.942.642 1.926 1.194 3.068 1.431a6.5 6.5 0 0 0 3.137-.111c.99-.281 1.954-.651 2.908-1.037.263-.052.502-.247.792-.122.1.16.026.262-.118.338" fill="#8C91A7"/><path d="M261.622 363.581c.085-.324.25-.09.344-.029a55.311 55.311 0 0 1 3.903 2.808c1.346 1.052 2.693 2.102 4.015 3.183 1.241 1.016 2.485 2.022 3.793 2.955 1.433 1.022 2.946 1.264 4.606.735h.534c-.13.462-.618.348-.903.559-.85.215-1.7.135-2.55.013a1.658 1.658 0 0 1-.51-.1c-.23-.08-.47-.138-.66-.302-.65-.566-1.337-1.079-2.122-1.451-.448-.203-.798-.536-1.15-.865-.934-1.024-2.059-1.832-3.133-2.69-1.465-1.168-2.908-2.365-4.456-3.43-.566-.39-1.217-.66-1.693-1.177l-.018-.209" fill="#6B6C86"/><path d="M261.64 363.79c1.228.627 2.332 1.441 3.41 2.289a589.106 589.106 0 0 1 5.36 4.28c.23.183.41.429.612.645-.278.213-.433-.05-.588-.179-.694-.576-1.392-1.148-2.08-1.732-1.685-1.405-3.383-2.797-5.2-4.033-.456-.31-.945-.604-1.5-.735l-.015-.535z" fill="#787D93"/><path d="M263.229 366.977c-.067-.136-.124-.273-.106-.429.288-.166.464.064.656.197 1.558 1.082 2.972 2.344 4.416 3.565a62.085 62.085 0 0 0 4.574 3.532c.36.251.798.387 1.156.65.16.117.47.2.237.511-.377.117-.731-.055-1.098-.074-.342-.074-.688-.133-1.022-.238-.152-.048-.365-.042-.378-.285-.1-.394-.397-.632-.731-.783-1.15-.522-1.968-1.474-2.953-2.208-1.266-.944-2.365-2.094-3.738-2.918-.522-.313-.735-.97-1.013-1.52" fill="#C5CAD5"/><path d="M265.573 372.4l-.415-.454c-.151-.444.253-.453.5-.63-.466-.466-.938-.932-1.408-1.4-.201-.21-.346-.466-.555-.67-.094-.144-.231-.274-.145-.472.196-.186.346-.004.45.097.293.286.682.46.955.745 1.15 1.199 2.467 2.203 3.727 3.275.099.084.189.204.151.375-.434-.07-.705-.472-1.183-.534.097.546.679.883.596 1.467-.117.092-.24.055-.347-.007a13.403 13.403 0 0 1-2.048-1.411c-.124-.106-.169-.266-.278-.382" fill="#EFF1F4"/><path d="M271.664 374.407c.427.255.949.194 1.388.41.18.194.295.432.41.664.212.421.077.646-.393.623-.298-.016-.554.001-.752.246-.725 0-1.387-.192-1.972-.628-.012-.179.04-.33.2-.429.256-.098.482.027.717.09.098.025.21.099.292-.003.077-.094.004-.2-.026-.298-.068-.222-.278-.429-.078-.682l.214.007" fill="#9DA7BE"/><path d="M270.597 375.355l-.64-.32c.27-.373-.087-.604-.209-.886-.047-.11-.161-.206-.047-.324.09-.091.194-.025.292.013.485.189.971.375 1.457.562-.023.317.218.541.291.823.073.276.064.499-.344.348-.258-.095-.533-.145-.8-.216" fill="#C5CAD5"/><path d="M274.219 374.922c-.16-.336-.517-.429-.799-.587-1.95-1.094-3.629-2.54-5.336-3.956-1.49-1.238-2.942-2.526-4.524-3.653-.13-.093-.27-.172-.437-.178l-.32-.532c.205-.144.4-.096.591.031a28.476 28.476 0 0 1 2.708 2.03c1.249 1.063 2.536 2.086 3.726 3.209 1.22 1.152 2.687 1.94 4.046 2.885.443.309 1.048.385 1.574.581.174.065.4.061.485.283-.45.286-.935.145-1.412.114-.13-.038-.24-.101-.302-.227" fill="#A8ADBE"/><path d="M277.962 373.657c.24-.229.635-.152.855-.424 2.428-.804 4.597-2.057 6.553-3.696 1.165-.976 2.328-1.95 3.379-3.049.388-.407.687-.899 1.169-1.217-.024.424-.333.679-.592.957-2.03 2.187-4.263 4.138-6.771 5.772-.668.434-1.443.643-2.138 1.02-.755.454-1.54.79-2.455.637" fill="#66718E"/><path d="M268.354 369.093c.631.3 1.069.85 1.628 1.24.337.235.563.648 1.04.671.32.33.684.601 1.067.85l2.137 1.484.64.214c.22.296.58.235.87.289.978.181 1.96.151 2.919-.155 1.305-.313 2.592-.68 3.79-1.301 2.136-1.212 3.958-2.825 5.765-4.457.149.256-.064.389-.198.532-1.154 1.226-2.468 2.27-3.835 3.243-.686.489-1.355 1.016-2.16 1.318-1.093.5-2.222.973-3.382 1.203-1.863.368-3.644-.05-5.264-1.092-1.76-1.132-3.34-2.483-4.895-3.866-.05-.047-.081-.115-.122-.173z" fill="#7F89A2"/><path d="M282.018 373.02c.578-.393 1.158-.781 1.732-1.18 1.513-1.047 2.945-2.19 4.221-3.517.11-.114.243-.214.24-.396.338-.338.572-.791 1.066-.958-.014.555-.323.966-.672 1.358-.546.289-.89.804-1.31 1.22-.898.892-1.91 1.626-2.944 2.338-.365.252-.71.527-1.074.779-.148.101-.284.298-.51.144l-.75.212" fill="#7F8EAE"/><path d="M288.53 368.243c.35-.366.517-.838.747-1.274.22-.45.384-.973 1.067-.848a1.693 1.693 0 0 0-.005.096l-.633 1.497c-.253.197-.24.578-.527.752-.211-.102-.46.045-.666-.1-.028-.046-.022-.086.018-.123" fill="#96A4BC"/><path d="M282.446 372.384c-.171.321-.53.32-.808.444-.78.35-1.583.653-2.41.883-.164.046-.345.036-.52.053-.974.29-1.963.356-2.961.149-.166-.034-.395-.01-.454-.256.89.115 1.78.205 2.669 0 .857-.064 1.638-.418 2.455-.637.737-.024 1.343-.455 2.029-.636" fill="#767C92"/><path d="M278.606 374.947c1.207-.226 2.42-.433 3.546-.952.73-.438 1.477-.839 2.314-1.048.46.375.173.761.02 1.146-1.047.707-2.206 1.158-3.421 1.48-.629.109-1.26.205-1.9.142-.512-.051-.666-.278-.56-.768" fill="#222A42"/><path d="M278.17 376.622c-1.243.176-2.488.19-3.733.01.424-.38.432-.472.084-.941-.114-.153-.268-.282-.304-.48-.032-.175.017-.277.22-.171l1.497-.005 1.176.01c-.068.295-.323.188-.507.239-.18.049-.46-.138-.53.156-.057.24.347.689.594.716.214.024.42-.046.63-.072a1.83 1.83 0 0 1 .37-.012c.114.014.22.04.293.138l.21.411z" fill="#6D7B93"/><path d="M277.96 376.21l-.315-.01c-.163-.254-.08-.62-.406-.814-.105-.062-.091-.257.085-.335l1.282-.105c.003.467.235.65.705.627.583-.027 1.17-.002 1.754 0-.998.393-2.063.463-3.105.637" fill="#323C58"/><path d="M284.486 374.093a1.56 1.56 0 0 1 .062-.616c.052-.169.12-.393-.173-.453.282-.523.804-.702 1.313-.895.062-.023.12.058.154.121.1.373.133.74-.095 1.084-.422.25-.772.619-1.26.759" fill="#364567"/><path d="M285.747 373.335l.005-1.194c.2-.39.475-.683.945-.724.213.51.03 1.213-.419 1.542-.153.114-.33.195-.416.38a6.326 6.326 0 0 0-.115-.004" fill="#4E6089"/><path d="M286.697 371.417c-.315.24-.63.483-.945.724l-1.378.883c-.736.333-1.431.76-2.222.97-.034-.457.497-.516.618-.865.306-.42.806-.554 1.226-.797 1.577-.917 2.932-2.077 4.035-3.524.142-.186.279-.363.5-.455.205.107.507-.348.648.113l-.126.297c-.42.796-.911 1.53-1.7 2.02l-.656.634z" fill="#B2BED2"/><path d="M287.354 370.782l1.7-2.019c-.036.35.354.652.134 1.01-.432.708-.917 1.378-1.537 1.941-.05.046-.107.103-.184.057-.108-.067-.124-.178-.08-.28a.75.75 0 0 0-.033-.709" fill="#7B8FB9"/><path d="M292.278 347.506c0-.35-.01-.662.004-.975.01-.233.186-.373.387-.354.25.022.179.263.163.424-.036.376-.147.716-.554.905z" fill="#35435F"/><path d="M292.348 345.731c.019-.35.018-.628.054-.903a.291.291 0 0 1 .303-.248c.194.015.173.2.154.333-.045.296-.118.587-.511.818" fill="#384561"/><path d="M290.152 347.228l-.129 2.547c-.36.088-.606.314-.801.62-.074.114-.216.215-.362.171-.184-.055-.196-.24-.192-.396.02-.62.21-1.176.67-1.617.089-.086.19-.16.276-.247.147-.147.15-.357.04-.479-.116-.126-.247.047-.35.129-.11.085-.206.187-.309.283-.102-.126-.057-.254-.066-.374.11-.306.365-.495.586-.708.226-.218.454-.211.637.071" fill="#FBFBFA"/><path d="M287.257 348.895c.2-.072.442-.004.612-.177-.033.615-.062 1.23-.103 1.844a.613.613 0 0 1-.1.293c-.071.106-.139.281-.307.218-.136-.05-.098-.214-.091-.332.025-.474.067-.948.086-1.423.006-.142.101-.321-.097-.423" fill="#344361"/><path d="M262.247 348.712l-.171-.1.422-1.269.638 1.732c-.38 0-.49-.511-.889-.363" fill="#384764"/><path d="M288.532 368.353c-1.47 2.129-3.435 3.669-5.762 4.777l-.114-.007.11-.314c.74-.506 1.476-1.014 2.218-1.515.966-.654 1.813-1.449 2.666-2.234.294-.271.452-.687.88-.816l.002.11z" fill="#929FBE"/><path d="M277.324 375.052c-.1.141-.059.325.051.373.395.17.251.495.27.775-.106.004-.213 0-.318.013-1.06.132-1.154.08-1.524-.842-.102-.255.09-.205.216-.222.363-.045.743.086 1.091-.105l.214.008" fill="#4D5A79"/><path d="M274.227 373.338a6.312 6.312 0 0 1-2.137-1.484c.194-.03.332.076.48.178.473.33.948.66 1.43.978.127.084.223.17.227.328" fill="#767C92"/><path d="M275.293 373.657c.96.452 1.95.35 2.947.176.156-.028.313-.047.469-.069-1.255.496-2.505.422-3.75-.037-.046-.017-.063-.115-.093-.175.134.07.272.122.427.105" fill="#787D93"/><path d="M274.437 375.04c-.327.09-.071.251-.015.33.129.182.303.326.404.535.232.478.166.609-.39.726-.73-.003-1.436-.152-2.136-.337.062-.344.228-.482.59-.342.171.067.413.125.532-.052.121-.184-.065-.352-.17-.506-.121-.176-.22-.356-.2-.578l1.166.105c.074.04.146.08.219.118" fill="#8290A8"/><path d="M289.562 348.834c.046.029.07.035.07.046.044.342.004.657-.311.871-.065.044-.152.023-.165-.055-.06-.364.094-.638.406-.862" fill="#3E4C69"/><text font-family="sans-serif" font-size="30" fill="#4D4D4F"><tspan x="233.146" y="107">docker cli</tspan></text><text font-family="sans-serif" font-size="30" fill="#4D4D4F"><tspan x="632.604" y="107">docker daemon</tspan></text><text font-family="sans-serif" font-size="30" fill="#4D4D4F"><tspan x="632.604" y="341">docker daemon</tspan></text><text font-family="sans-serif" font-size="30" fill="#4D4D4F"><tspan x="223" y="825">minikube VM</tspan></text><rect width="113" height="71" rx="4" transform="translate(960 92)" fill="#D5FFD5"/><text font-family="sans-serif" font-size="17" font-weight="bold" fill="#4D4D4F" transform="translate(943 92)"><tspan x="23.604" y="40">CONTAINER</tspan></text><rect width="113" height="71" rx="4" transform="translate(960 185)" fill="#D5FFD5"/><text font-family="sans-serif" font-size="17" font-weight="bold" fill="#4D4D4F" transform="translate(943 185)"><tspan x="23.604" y="40">CONTAINER</tspan></text><rect width="113" height="71" rx="4" transform="translate(263 495)" fill="#D5FFD5"/><text font-family="sans-serif" font-size="17" font-weight="bold" fill="#4D4D4F" transform="translate(246 495)"><tspan x="23.604" y="40">CONTAINER</tspan></text><g><rect width="113" height="71" rx="4" transform="translate(263 680)" fill="#D5FFD5"/><text font-family="sans-serif" font-size="17" font-weight="bold" fill="#4D4D4F" transform="translate(246 680)"><tspan x="23.604" y="40">CONTAINER</tspan></text></g><g><rect width="113" height="71" rx="4" transform="translate(263 589)" fill="#D5FFD5"/><text font-family="sans-serif" font-size="17" font-weight="bold" fill="#4D4D4F" transform="translate(246 589)"><tspan x="23.604" y="40">CONTAINER</tspan></text></g></g></svg>