<svg viewBox="0 0 1200 900" xmlns="http://www.w3.org/2000/svg"><g fill="none" fill-rule="evenodd"><path d="M224.466 374c42.231 0 76.466 34.25 76.466 76.5S266.697 527 224.466 527C182.236 527 148 492.75 148 450.5c.01-42.246 34.24-76.49 76.466-76.5" fill="#C00"/><path d="M179.54 462.2l62.163-79.2c1.385 2.736 0 4.284-.54 5.922-5.65 15.498-11.21 31.104-17.129 46.512-1.457 3.906-.827 4.824 3.275 4.824h40.014c1.08 0 2.555-.54 3.185.648.63 1.188-.738 2.088-1.368 3.006l-50.97 67.482c-.81 1.098-1.62 2.736-3.095 1.926-1.475-.81-.54-2.466 0-3.834 3.923-14.4 7.665-28.638 11.767-42.948 1.008-3.366 0-4.104-3.094-4.014h-37.965l-6.243-.324z" fill="#FFF"/><path d="M325.635 425.822c0-9.342 4.427-19.548 16.571-19.548 12.145 0 16.57 10.206 16.57 19.548 0 9.342-4.371 19.548-16.57 19.548-12.198 0-16.57-10.17-16.57-19.548zm26.449 0c0-6.21-2.537-13.338-9.878-13.338-7.34 0-9.877 7.506-9.877 13.338 0 6.156 2.536 13.338 9.877 13.338 7.34 0 9.878-7.56 9.878-13.338zm14.519-18.9h15.707c9.392 0 12.685 5.94 12.685 11.718 0 5.4-3.599 11.772-12.685 11.772h-9.23v14.31h-6.477v-37.8zm21.699 11.718a5.221 5.221 0 0 0-5.668-5.562h-9.553v11.178h9.553a5.288 5.288 0 0 0 5.668-5.616z" fill="#000" fill-rule="nonzero"/><path fill="#000" d="M400.932 406.922h24.613v6.102h-18.136v9.126h11.173v6.102h-11.173v10.368h19.324v6.102h-25.801z"/><path d="M434.074 406.922h16.732c9.392 0 12.415 5.562 12.415 11.502a11.07 11.07 0 0 1-7.773 10.8l7.557 15.498h-7.341l-7.197-14.796h-7.88v14.796h-6.513v-37.8zm16.84 16.848c4.21 0 5.614-2.592 5.614-5.4 0-2.808-1.188-5.4-5.614-5.4h-10.363v10.692l10.363.108zm41.184 12.69h-14.951l-2.97 8.262h-6.854l14.088-37.8h6.423l14.034 37.8h-6.801l-2.97-8.262zm-6.207-17.172a31.744 31.744 0 0 1-1.242-3.834 79.61 79.61 0 0 1-1.241 3.834l-4.21 11.34h10.795l-4.102-11.34z" fill="#000" fill-rule="nonzero"/><path fill="#000" d="M518.114 444.722h-6.477v-31.59h-10.795v-6.21h27.96v6.21h-10.796z"/><path d="M532.472 425.822c0-9.342 4.426-19.548 16.57-19.548 12.145 0 16.571 10.206 16.571 19.548 0 9.342-4.372 19.548-16.57 19.548-12.199 0-16.57-10.17-16.57-19.548zm26.448 0c0-6.21-2.537-13.338-9.877-13.338-7.341 0-9.878 7.506-9.878 13.338 0 6.156 2.537 13.338 9.878 13.338 7.34 0 9.877-7.56 9.877-13.338zm14.52-18.9h16.733c9.391 0 12.414 5.562 12.414 11.502a11.07 11.07 0 0 1-7.772 10.8l7.556 15.498h-7.287l-7.286-14.796h-7.88v14.796h-6.478v-37.8zm16.84 16.848c4.21 0 5.614-2.592 5.614-5.4 0-2.808-1.187-5.4-5.613-5.4h-10.364v10.692l10.364.108z" fill="#000" fill-rule="nonzero"/><path fill="#000" d="M328.514 460.922h8.636v42.12h24.47v8.28h-33.106zm41.022 0h8.636v50.4h-8.636zm21.231 0h32.511v8.136h-23.875v12.168h15.257v8.136h-15.257v21.96h-8.636zm40.806 0h32.799v8.136h-24.163v12.168h14.879v8.136h-14.879v13.824h25.746v8.136h-34.382zm40.517 25.2c0-11.592 5.542-26.064 21.07-26.064 9.571 0 15.4 5.4 17.56 10.8l-7.773 3.6c-2.519-3.816-5.038-5.976-9.788-5.976-9.265 0-12.144 9.864-12.144 17.784 0 8.352 3.598 17.712 12.144 17.712 4.534 0 7.341-2.664 9.644-6.48l7.989 3.024c-3.095 6.984-8.637 11.808-17.633 11.808-15.67-.144-21.068-13.752-21.068-26.208zm61.534 5.472l-18.136-30.6h9.787l12.595 21.816 12.594-21.816h9.788l-18.208 30.6v19.8h-8.546zm29.075-5.472c0-11.592 5.541-26.064 21.068-26.064 9.572 0 15.402 5.4 17.56 10.8l-7.772 3.6c-2.519-3.816-5.038-5.976-9.788-5.976-9.284 0-12.144 9.864-12.144 17.784 0 8.352 3.598 17.712 12.144 17.712 4.534 0 7.341-2.664 9.644-6.48l7.989 2.88c-3.095 6.984-8.637 11.808-17.633 11.808-15.67 0-21.068-13.608-21.068-26.064zm48.218-25.2h8.619v42.12h24.469v8.28h-33.088zm40.662 0h32.8v8.136h-24.181v12.168h14.969v8.136H660.27v13.824h25.692v8.136h-34.383zm98.939 50.4v-26.784c0-1.8.144-4.68.288-6.048-.648 1.944-1.584 4.392-2.303 6.192l-12.163 27.504-12.235-27.648c-.791-1.8-1.799-4.104-2.375-6.048.144 1.368.288 4.248.288 6.048v26.784h-8.636v-50.4h8.564l12.955 29.592a47.922 47.922 0 0 1 1.367 3.744c.36-1.152.864-2.52 1.367-3.744l13.099-29.592h8.42v50.4h-8.636z"/><path d="M799.888 500.306h-19.935l-3.959 11.016h-9.068l18.784-50.4h8.564l18.712 50.4h-8.996l-4.102-11.016zm-8.276-22.896a42.331 42.331 0 0 1-1.656-5.112c-.432 1.512-1.151 3.6-1.655 5.112l-5.614 15.12h14.394l-5.47-15.12z" fill="#000" fill-rule="nonzero"/><path d="M851.92 511.322l-20.87-31.824c-.648-1.008-1.44-2.448-2.087-3.744.144 1.243.216 2.493.216 3.744v31.824h-8.564v-50.4h8.348l20.367 31.32a37.805 37.805 0 0 1 2.16 3.816 36.988 36.988 0 0 1-.217-3.816v-31.32h8.564v50.4h-7.916z" fill="#000"/><path d="M900.5 500.306h-19.936l-3.958 11.016h-9.14l18.784-50.4h8.564l18.712 50.4h-8.996l-4.03-11.016zm-8.277-22.896a42.331 42.331 0 0 1-1.655-5.112c-.432 1.512-1.152 3.6-1.655 5.112l-5.614 15.12h14.394l-5.47-15.12z" fill="#000" fill-rule="nonzero"/><path d="M917.412 486.122c0-12.312 6.98-26.064 22.094-26.064 9.716 0 14.394 4.896 17.632 10.152l-7.7 4.392c-2.231-3.312-5.182-6.192-9.932-6.192-10.147 0-13.17 9.864-13.17 17.712 0 9 3.814 17.712 13.17 17.712a9.39 9.39 0 0 0 6.865-2.647 9.398 9.398 0 0 0 2.85-6.785v-.792h-8.851v-8.136h17.632v6.984c0 12.816-8.06 19.8-18.496 19.8-15.545-.072-22.094-12.96-22.094-26.136zm50.881-25.2h32.818v8.136H976.93v12.168h14.897v8.136H976.93v13.824h25.692v8.136h-34.329z" fill="#000"/><path d="M1012.41 460.922h22.31c12.595 0 16.553 7.416 16.553 15.336a14.76 14.76 0 0 1-10.364 14.4l10.076 20.664h-9.716l-9.716-19.8h-10.507v19.8h-8.636v-50.4zm22.454 22.464c5.614 0 7.485-3.456 7.485-7.2 0-3.384-1.584-7.2-7.485-7.2h-13.818v14.256l13.818.144z" fill="#000" fill-rule="nonzero"/></g></svg>