<svg viewBox="0 0 1200 900" xmlns="http://www.w3.org/2000/svg"><g fill="none" fill-rule="evenodd"><path fill="#FFFDEA" d="M60 680h1080v90H60z"></path><path fill="#F2F2F2" d="M60 590h1080v90H60z"></path><path fill="#FFFDEA" d="M60 500h1080v90H60z"></path><path fill="#F2F2F2" d="M60 410h1080v90H60z"></path><path fill="#FFFDEA" d="M60 320h1080v90H60z"></path><path fill="#F2F2F2" d="M60 230h1080v90H60z"></path><path fill="#EBEBEB" opacity=".7" d="M881 140h238v630H881zm-288 0h238v630H593zm-288 0h238v630H305z"></path><text font-size="36" font-weight="bold" letter-spacing=".18" fill="#4A4A4A" class="sans-serif"><tspan x="390.147" y="201">DEV</tspan></text><text font-size="36" font-weight="bold" letter-spacing=".18" fill="#4A4A4A" class="sans-serif"><tspan x="636.944" y="201">STAGING</tspan></text><text font-size="36" font-weight="bold" letter-spacing=".18" fill="#4A4A4A" class="sans-serif"><tspan x="951.924" y="201">PROD</tspan></text><path d="M84 252h46.599v47H84z" fill="#3D1C00"></path><path d="M400 252h46.599v47H400z" opacity=".5" fill="#3D1C00"></path><path d="M84 342h46.599v47H84z" fill="#F2D694"></path><path d="M84 432h46.599v47H84z" fill="#86B8B1"></path><path fill="#3D1C00" d="M84 521h46.599v47H84z"></path><text font-size="44.4" font-weight="bold" letter-spacing=".222" fill="#4A4A4A" transform="translate(84 512)" class="sans-serif"><tspan x="71.5" y="47">new</tspan></text><path fill="#F2D694" d="M84 611h46.599v47H84z"></path><text font-size="44.4" font-weight="bold" letter-spacing=".222" fill="#4A4A4A" transform="translate(84 602)" class="sans-serif"><tspan x="71.55" y="47">new</tspan></text><path fill="#86B8B1" d="M84 701h46.599v47H84z"></path><text font-size="44.4" font-weight="bold" letter-spacing=".222" fill="#4A4A4A" transform="translate(84 692)" class="sans-serif"><tspan x="71.55" y="47">new</tspan></text><path d="M400 342h46.599v47H400z" opacity=".5" fill="#F2D694"></path><path d="M400 432h46.599v47H400zm288 0h46.599v47H688z" opacity=".5" fill="#86B8B1"></path><path d="M400 521h46.599v47H400zm288 0h46.599v47H688z" opacity=".5" fill="#3D1C00"></path><path d="M973 432h46.599v47H973z" opacity=".5" fill="#86B8B1"></path><path d="M400 611h46.599v47H400z" opacity=".5" fill="#F2D694"></path><path d="M400 701h46.599v47H400z" fill="#86B8B1"></path><path d="M377 705c9.4 0 17 7.6 17 17s-7.6 17-17 17-17-7.6-17-17 7.6-17 17-17zm.75 22.6l9.8-9.8-3.3-3.3-9.8 9.8-4.65-4.65-3.3 3.3 4.65 4.65 3.3 3.3 3.3-3.3z" fill="#00C176" fill-rule="nonzero"></path><path d="M688 611h46.599v47H688z" fill="#F2D694"></path><path d="M665 615c9.4 0 17 7.6 17 17s-7.6 17-17 17-17-7.6-17-17 7.6-17 17-17zm.75 22.6l9.8-9.8-3.3-3.3-9.8 9.8-4.65-4.65-3.3 3.3 4.65 4.65 3.3 3.3 3.3-3.3z" fill="#00C176" fill-rule="nonzero"></path><path d="M973 611h46.599v47H973z" fill="#F2D694"></path><path d="M957.61 636.533l-3.077 3.076-4.533-4.533-4.534 4.533-3.076-3.076 4.534-4.533-4.534-4.534 3.076-3.076 4.534 4.534 4.533-4.534 3.076 3.076-4.533 4.534 4.533 4.533zm4.425-16.568C958.797 616.78 954.533 615 950 615c-4.534 0-8.85 1.781-12.035 4.965C934.78 623.203 933 627.466 933 632c0 4.533 1.78 8.85 4.965 12.035C941.203 647.219 945.466 649 950 649c4.533 0 8.797-1.78 12.035-4.965C965.22 640.797 967 636.533 967 632c0-4.534-1.78-8.851-4.965-12.035z" fill="#FF003C" fill-rule="nonzero"></path></g></svg>