<svg viewBox="0 0 1200 900" xmlns="http://www.w3.org/2000/svg"><g fill="none" fill-rule="evenodd"><path d="M1033.562.119H10.128C4.736.119.363 4.49.363 9.885v43.302h1042.965V9.885a9.766 9.766 0 0 0-9.766-9.766" fill="#C8C8C8" mask="url(#mask-2)" transform="translate(78 115.381)"/><path d="M1111.557 784.506H88.14a9.743 9.743 0 0 1-9.765-9.767V221.203a9.756 9.756 0 0 1 9.765-9.765h1023.417c5.391 0 9.767 4.376 9.767 9.765V774.74a9.757 9.757 0 0 1-9.767 9.767" fill="#F2F2F2"/><path fill="#E6E6E6" mask="url(#mask-4)" d="M.363 132.519h1042.965v-78.95H.363z" transform="translate(78 115)"/><path d="M71.042 103.343c.792-.774 8.537-8.906 8.537-8.906.423-.412.636-.954.636-1.494 0-.541-.213-1.083-.636-1.495 0 0-7.745-8.132-8.537-8.904-.792-.774-2.218-.825-3.064 0-.845.825-.912 1.977.001 2.988l7.104 7.411-7.104 7.412c-.913 1.012-.846 2.164-.001 2.988.846.823 2.272.772 3.064 0m-34.27-20.799c-.792.775-8.536 8.905-8.536 8.905a2.082 2.082 0 0 0-.635 1.496c0 .54.212 1.08.635 1.494 0 0 7.744 8.131 8.536 8.905.792.771 2.219.825 3.065 0 .844-.825.912-1.975-.002-2.988l-7.104-7.411 7.104-7.412c.914-1.011.846-2.163.002-2.99-.846-.826-2.273-.772-3.065 0" fill="#C8C8C8" mask="url(#mask-4)" transform="translate(78 115)"/><path d="M122.088 53.967c14.391.006 13.793-37.01 25.788-37.01l137.193.01c14.391-.005 13.793 37.012 25.788 37.012l-188.769-.012z" fill="#E6E6E6" mask="url(#mask-4)" transform="translate(78 115)"/><path d="M128.73 92h-3.997l-.028-.263a11.023 11.023 0 0 0-10.988-9.88c-6.096 0-11.056 4.972-11.056 11.085 0 6.115 4.96 11.088 11.056 11.088a10.92 10.92 0 0 0 6.809-2.352l.585-.46-2.708-2.896-.489.362a7.046 7.046 0 0 1-4.197 1.38c-3.913 0-7.095-3.194-7.095-7.122 0-3.926 3.182-7.12 7.095-7.12a7.081 7.081 0 0 1 6.977 5.833l.063.345h-4.424l6.198 6.91 6.2-6.91z" fill="#C8C8C8" mask="url(#mask-4)" transform="translate(78 115)"/><path d="M89.494 26.675c0 6.053 4.91 10.962 10.965 10.962 6.05 0 10.959-4.91 10.959-10.962s-4.91-10.962-10.96-10.962c-6.055 0-10.964 4.91-10.964 10.962" fill="#70B34A" mask="url(#mask-4)" transform="translate(78 115)"/><path d="M52.383 26.675c0 6.053 4.91 10.962 10.964 10.962 6.05 0 10.96-4.91 10.96-10.962s-4.91-10.962-10.96-10.962c-6.054 0-10.964 4.91-10.964 10.962" fill="#DDAA54" mask="url(#mask-4)" transform="translate(78 115)"/><path d="M15.097 26.675c0 6.053 4.91 10.962 10.964 10.962 6.05 0 10.96-4.91 10.96-10.962s-4.91-10.962-10.96-10.962c-6.054 0-10.964 4.91-10.964 10.962" fill="#D5655D" mask="url(#mask-4)" transform="translate(78 115)"/><path d="M1018.014 99.719h-22.89c-1.053 0-1.907 1.01-1.907 2.259 0 1.246.854 2.26 1.907 2.26h22.89c1.052 0 1.906-1.014 1.906-2.26 0-1.25-.854-2.26-1.906-2.26m-22.89-13.552h22.89c1.052 0 1.906-1.01 1.906-2.257 0-1.25-.854-2.26-1.906-2.26h-22.89c-1.053 0-1.907 1.01-1.907 2.26 0 1.248.854 2.257 1.907 2.257m22.89 4.518h-22.89c-1.053 0-1.907 1.01-1.907 2.258s.854 2.259 1.907 2.259h22.89c1.052 0 1.906-1.011 1.906-2.26 0-1.247-.854-2.257-1.906-2.257" fill="#C8C8C8" mask="url(#mask-4)" transform="translate(78 115)"/><path d="M979.782 113.523H142.753a2.705 2.705 0 0 1-2.697-2.697V75.06a2.704 2.704 0 0 1 2.697-2.696h837.029a2.705 2.705 0 0 1 2.697 2.696v35.766a2.706 2.706 0 0 1-2.697 2.697" fill="#FFF" mask="url(#mask-4)" transform="translate(78 115)"/><text font-family="sans-serif" font-size="74" font-weight="bold" fill="#4A4A4A"><tspan x="579.393" y="539">+</tspan></text><rect stroke="#979797" stroke-width="5" fill="#FFF" x="304.5" y="278.5" width="592" height="205" rx="5"/><rect stroke="#979797" stroke-width="5" fill="#FFF" x="304.5" y="540.5" width="592" height="205" rx="5"/><g fill-rule="nonzero" fill="#090"><path d="M381.966 626.67v54.2c0 5.744-4.669 10.4-10.428 10.4-5.759 0-10.427-4.656-10.427-10.4v-79.31c0-9.265 11.232-13.905 17.8-7.353l61.709 61.553v-54.2c0-5.743 4.669-10.4 10.428-10.4 5.759 0 10.427 4.657 10.427 10.4v79.31c0 9.266-11.232 13.906-17.801 7.354l-61.708-61.554zm117.368-35.407l-2.867 5.33-22.158 40.17-2.868 5.07 2.868 5.07 22.158 38.87 2.998 5.33h58.002l2.867-5.85 16.554-33.28 7.43-15.08h-16.815l-42.36.13c-5.51-.077-10.577 4.905-10.577 10.4s5.067 10.478 10.576 10.4l25.547-.13-6.256 12.61h-32.846l-16.293-28.6 16.423-29.64h34.94l8.147 16.673h20.985l-13.229-31.623-2.867-5.85h-60.359zm105.635-.13c-5.46.068-10.365 5.085-10.297 10.53v27.1h20.854v-27.1c.07-5.532-5.01-10.599-10.557-10.53zm43.997 64.487v-54.2c0-5.744-4.669-10.4-10.428-10.4-5.758 0-10.427 4.656-10.427 10.4v79.31c0 9.265 11.232 13.905 17.801 7.353l61.708-61.553v54.2c0 5.743 4.668 10.4 10.427 10.4 5.759 0 10.427-4.657 10.427-10.4v-79.31c0-9.266-11.232-13.906-17.8-7.353l-61.708 61.552zm92.742 19.607l79.602-79.114c9.848-9.788 24.569 4.946 14.72 14.734l-79.6 79.113c-9.849 9.788-24.57-4.946-14.72-14.734z"/><path d="M743.597 609.1a10.38 10.38 0 0 1-.026-14.708c4.065-4.068 10.668-4.08 14.747-.026l79.602 79.115a10.38 10.38 0 0 1 .025 14.707c-4.065 4.069-10.667 4.08-14.746.026L743.597 609.1zm-138.628 82.072c-5.46-.068-10.365-5.084-10.297-10.53V637.11h20.854v43.532c.07 5.532-5.01 10.6-10.557 10.53z"/></g><path d="M603.638 303a2.024 2.024 0 0 0-1.002.268 2.028 2.028 0 0 0-1.003 1.739v51.167c0 .503-.234.952-.668 1.204a1.393 1.393 0 0 1-1.403 0l-8.352-4.816a4 4 0 0 0-4.01 0l-33.342 19.263c-1.246.72-2.004 2.105-2.004 3.545v38.526c0 1.44.759 2.757 2.004 3.478l33.343 19.263a3.99 3.99 0 0 0 4.009 0l33.342-19.263a4.006 4.006 0 0 0 2.005-3.478v-96.047a4.078 4.078 0 0 0-2.072-3.545L604.64 303.2c-.312-.174-.657-.205-1.002-.2zM389.15 351.09c-.636.026-1.233.138-1.804.469l-33.341 19.263A3.997 3.997 0 0 0 352 374.3l.067 51.702c0 .72.37 1.387 1.002 1.74.62.37 1.387.37 2.005 0l19.778-11.371c1.253-.745 2.071-2.041 2.071-3.478v-24.146c0-1.44.757-2.762 2.005-3.478l8.419-4.882a3.945 3.945 0 0 1 2.004-.536c.687 0 1.394.172 2.005.536l8.419 4.882a3.994 3.994 0 0 1 2.005 3.478v24.146c0 1.437.826 2.741 2.07 3.478l19.78 11.37c.62.371 1.388.371 2.004 0a2.012 2.012 0 0 0 1.002-1.739l.067-51.702a3.98 3.98 0 0 0-2.005-3.478l-33.342-19.263c-.564-.331-1.164-.442-1.804-.468h-.401zm299.613.469c-.696 0-1.379.175-2.004.535l-33.342 19.263a4.003 4.003 0 0 0-2.005 3.478v38.526c0 1.448.815 2.762 2.071 3.478l33.075 18.862c1.222.698 2.713.75 3.943.066l20.045-11.17c.636-.353 1.067-1.013 1.07-1.739a1.976 1.976 0 0 0-1.003-1.74l-33.543-19.262c-.628-.359-1.069-1.085-1.069-1.806v-12.04c0-.72.446-1.379 1.07-1.738l10.423-6.02a2 2 0 0 1 2.004 0l10.424 6.02a2 2 0 0 1 1.002 1.739v9.498a2 2 0 0 0 1.003 1.738 1.99 1.99 0 0 0 2.004 0l19.979-11.637a4.021 4.021 0 0 0 2.004-3.479v-9.297a4.015 4.015 0 0 0-2.004-3.478l-33.142-19.263a3.97 3.97 0 0 0-2.005-.535zm-99.693 28.76c.174 0 .379.043.535.133l11.426 6.622c.31.18.534.51.534.87v13.243c0 .36-.222.69-.534.87l-11.426 6.62a1.01 1.01 0 0 1-1.002 0l-11.426-6.62c-.311-.18-.535-.51-.535-.87v-13.244c0-.358.225-.688.535-.869l11.426-6.62a.88.88 0 0 1 .467-.133v-.001z" fill="#404137"/><path d="M789.003 351.094c-1.156 0-2.28.239-3.274.802l-31.471 18.194c-2.037 1.174-3.274 3.393-3.274 5.752v36.32c0 2.358 1.237 4.574 3.274 5.751l8.218 4.749c3.994 1.97 5.466 1.94 7.284 1.94 5.912 0 9.287-3.591 9.287-9.832v-35.852c0-.507-.438-.87-.935-.87h-3.942c-.505 0-.936.363-.936.87v35.85c0 2.767-2.878 5.549-7.55 3.211l-8.553-5.016c-.302-.165-.535-.456-.535-.803v-36.319c0-.344.23-.695.535-.87l31.405-18.125a.926.926 0 0 1 .935 0l31.405 18.126c.299.18.534.514.534.87v36.318c0 .347-.174.702-.468.87l-31.47 18.126a.968.968 0 0 1-.936 0l-8.085-4.816a.84.84 0 0 0-.802 0c-2.232 1.266-2.652 1.413-4.744 2.14-.516.18-1.3.46.267 1.338l10.557 6.22a6.49 6.49 0 0 0 3.274.87c1.166 0 2.27-.288 3.274-.87l31.472-18.126c2.036-1.186 3.274-3.393 3.274-5.752v-36.319c0-2.36-1.238-4.573-3.274-5.752l-31.472-18.193c-.986-.563-2.118-.802-3.274-.802zm-299.346.735a3.99 3.99 0 0 0-2.004.535l-33.343 19.197c-1.246.719-2.004 2.106-2.004 3.544v38.526c0 1.441.759 2.758 2.004 3.478l33.343 19.263a3.986 3.986 0 0 0 4.009 0l33.342-19.263a4.006 4.006 0 0 0 2.005-3.478v-38.526c0-1.44-.758-2.825-2.005-3.544l-33.342-19.197a3.987 3.987 0 0 0-2.005-.535zm346.052.202v.936h2.606v6.889h1.07v-6.889h2.672v-.936h-6.348zm7.284 0v7.825h1.002v-4.615c0-.188.008-.48 0-.87-.013-.396 0-.742 0-.936v-.201l2.205 6.621h1.069l2.272-6.621c0 .421-.056.828-.067 1.204-.004.366 0 .64 0 .802v4.615h1.002v-7.825h-1.47l-2.271 6.622-2.205-6.622h-1.537zm-45.57 25.015c-8.962 0-14.3 3.817-14.3 10.166 0 6.888 5.298 8.78 13.899 9.632 10.29 1.008 11.091 2.52 11.091 4.548 0 3.517-2.8 5.016-9.421 5.016-8.318 0-10.146-2.078-10.758-6.22-.072-.444-.414-.803-.868-.803h-4.076a.954.954 0 0 0-.936.937c0 5.301 2.881 11.571 16.638 11.571 9.959 0 15.702-3.913 15.702-10.769 0-6.796-4.64-8.62-14.299-9.899-9.76-1.292-10.69-1.925-10.69-4.213 0-1.89.788-4.415 8.017-4.415 6.458 0 8.845 1.394 9.823 5.752.085.41.446.736.868.736h4.076c.252 0 .495-.154.668-.335.172-.192.292-.41.268-.668-.631-7.506-5.632-11.036-15.703-11.036zm-108.38 9.163c-.133 0-.28 0-.4.066l-6.415 3.746a.78.78 0 0 0-.401.669v7.357c0 .277.16.531.4.669l6.415 3.679a.7.7 0 0 0 .735 0l6.415-3.679a.786.786 0 0 0 .4-.669v-7.357a.787.787 0 0 0-.4-.669l-6.415-3.746c-.119-.07-.2-.066-.334-.066z" fill="#83CD29"/><text font-family="sans-serif" font-size="74" font-weight="bold" fill="#4A4A4A"><tspan x="924" y="422">3000</tspan></text><text font-family="sans-serif" font-size="74" font-weight="bold" fill="#4A4A4A"><tspan x="924" y="679">8080</tspan></text><text font-family="sans-serif" font-size="24" font-weight="bold" fill="#4A4A4A"><tspan x="924" y="618">PORT</tspan></text><text font-family="sans-serif" font-size="24" font-weight="bold" fill="#4A4A4A"><tspan x="438" y="811">LOCALHOST</tspan></text><text font-family="sans-serif" font-size="24" font-weight="bold" fill="#4A4A4A"><tspan x="924" y="361">PORT</tspan></text><text font-family="sans-serif" font-size="74" font-weight="bold" fill="#4A4A4A"><tspan x="438" y="879">127.0.0.1</tspan></text></g></svg>