<svg viewBox="0 0 1200 900" xmlns="http://www.w3.org/2000/svg"><style>.sans-serif{font-family:-apple-system,BlinkMacSystemFont,'avenir next', avenir,'helvetica neue',helvetica,ubuntu,roboto,noto,'segoe ui',arial,sans-serif}</style><g fill="none" fill-rule="evenodd"><g transform="translate(19.000000, 590.000000)"><path stroke="#FFF" fill="#2469D4" d="M.5.5h134v134H.5z"></path><path d="M26.34 49.781h3.828l3.652 10.313 3.633-10.313H41.3V64h-2.939v-3.887l.293-6.709L34.816 64h-2.012l-3.828-10.586.293 6.7V64h-2.93V49.781zm25.274 5.762v2.295h-5.625v3.808h6.601V64h-9.53V49.781h9.51v2.373h-6.58v3.389h5.625zm12.794-5.762v2.373h-4.356V64h-2.93V52.154h-4.297v-2.373h11.582zM73.207 64l-2.667-5.205h-2.334V64h-2.93V49.781h5.284q2.52 0 3.886 1.123 1.368 1.123 1.368 3.174 0 1.455-.63 2.427t-1.91 1.548l3.077 5.81V64h-3.145zm-5-11.846v4.268h2.362q1.104 0 1.71-.562.605-.561.605-1.547 0-1.006-.571-1.583-.572-.576-1.753-.576h-2.354zm12.148-2.373V64h-2.93V49.781h2.93zm10.148 9.483h2.93q-.167 2.295-1.695 3.613t-4.028 1.318q-2.735 0-4.302-1.84-1.568-1.841-1.568-5.054v-.87q0-2.05.723-3.613.723-1.562 2.066-2.397 1.342-.835 3.12-.835 2.46 0 3.965 1.318 1.503 1.319 1.738 3.701h-2.93q-.107-1.376-.766-1.997-.66-.62-2.007-.62-1.465 0-2.193 1.05-.727 1.05-.747 3.257v1.074q0 2.305.698 3.37.699 1.064 2.203 1.064 1.357 0 2.026-.62.669-.62.767-1.92zm11.426 1.006q0-.83-.586-1.275-.586-.444-2.11-.937-1.523-.494-2.411-.972Q94.4 55.777 94.4 53.56q0-1.153.65-2.056.649-.903 1.865-1.411 1.215-.508 2.729-.508 1.523 0 2.715.552 1.191.551 1.85 1.557.66 1.006.66 2.285h-2.93q0-.976-.615-1.518-.616-.542-1.729-.542-1.074 0-1.67.454-.595.454-.595 1.196 0 .694.698 1.162.698.47 2.055.88 2.5.751 3.643 1.865 1.143 1.113 1.143 2.773 0 1.846-1.397 2.896-1.396 1.05-3.76 1.05-1.64 0-2.988-.601-1.348-.6-2.056-1.646-.708-1.045-.708-2.422h2.94q0 2.354 2.812 2.354 1.045 0 1.631-.425.586-.425.586-1.186zm-65.676 24q0-.83-.586-1.275-.586-.444-2.11-.937-1.523-.494-2.412-.972-2.422-1.309-2.422-3.525 0-1.153.65-2.056t1.865-1.411q1.216-.508 2.73-.508 1.523 0 2.714.552 1.192.551 1.85 1.557.66 1.006.66 2.285h-2.93q0-.976-.615-1.518t-1.728-.542q-1.075 0-1.67.454-.596.454-.596 1.196 0 .694.698 1.162.698.47 2.056.88 2.5.751 3.642 1.865 1.143 1.113 1.143 2.773 0 1.846-1.396 2.896-1.397 1.05-3.76 1.05-1.64 0-2.989-.601-1.347-.6-2.055-1.646-.708-1.045-.708-2.422h2.94q0 2.354 2.812 2.354 1.045 0 1.63-.425.587-.425.587-1.186zm15.801-3.692v.635q0 2.1-.742 3.682-.742 1.582-2.124 2.44-1.382.86-3.169.86-1.768 0-3.154-.85-1.387-.849-2.149-2.426-.761-1.577-.771-3.628v-.703q0-2.1.757-3.696.756-1.597 2.138-2.452 1.382-.854 3.16-.854 1.777 0 3.159.854 1.381.855 2.138 2.452.757 1.596.757 3.686zm-2.969.684v-.694q0-2.236-.8-3.398-.801-1.162-2.286-1.162-1.474 0-2.275 1.147-.8 1.148-.81 3.365v.693q0 2.178.8 3.379.801 1.201 2.305 1.201 1.475 0 2.266-1.157.79-1.157.8-3.374zm12.12-7.48h2.94v9.364q0 2.334-1.46 3.692-1.46 1.357-3.99 1.357-2.49 0-3.955-1.318-1.464-1.318-1.494-3.623V73.78h2.93v9.385q0 1.397.669 2.036.669.64 1.85.64 2.471 0 2.51-2.598V73.78zM73.677 88l-2.666-5.205h-2.334V88h-2.93V73.781h5.283q2.52 0 3.887 1.123t1.367 3.174q0 1.455-.63 2.427t-1.909 1.548l3.076 5.81V88h-3.144zm-5-11.846v4.268h2.363q1.104 0 1.71-.562.605-.561.605-1.547 0-1.006-.572-1.583-.571-.576-1.753-.576h-2.353zm17.266 7.11h2.93q-.166 2.295-1.694 3.613-1.529 1.318-4.029 1.318-2.734 0-4.302-1.84-1.567-1.841-1.567-5.054v-.87q0-2.05.723-3.613.722-1.562 2.065-2.397 1.343-.835 3.12-.835 2.461 0 3.965 1.318 1.504 1.319 1.738 3.701h-2.93q-.107-1.376-.766-1.997-.659-.62-2.007-.62-1.465 0-2.192 1.05-.728 1.05-.747 3.257v1.074q0 2.305.698 3.37.698 1.064 2.202 1.064 1.358 0 2.027-.62t.766-1.92zm12.608-3.721v2.295h-5.625v3.808h6.602V88h-9.531V73.781h9.511v2.373h-6.582v3.389h5.625z" fill="#FFF" fill-rule="nonzero"></path><g transform="translate(10.000000, 10.000000)"><path stroke="#FFF" fill="#2469D4" d="M.5.5h134v134H.5z"></path><path d="M26.34 49.781h3.828l3.652 10.313 3.633-10.313H41.3V64h-2.939v-3.887l.293-6.709L34.816 64h-2.012l-3.828-10.586.293 6.7V64h-2.93V49.781zm25.274 5.762v2.295h-5.625v3.808h6.601V64h-9.53V49.781h9.51v2.373h-6.58v3.389h5.625zm12.794-5.762v2.373h-4.356V64h-2.93V52.154h-4.297v-2.373h11.582zM73.207 64l-2.667-5.205h-2.334V64h-2.93V49.781h5.284q2.52 0 3.886 1.123 1.368 1.123 1.368 3.174 0 1.455-.63 2.427t-1.91 1.548l3.077 5.81V64h-3.145zm-5-11.846v4.268h2.362q1.104 0 1.71-.562.605-.561.605-1.547 0-1.006-.571-1.583-.572-.576-1.753-.576h-2.354zm12.148-2.373V64h-2.93V49.781h2.93zm10.148 9.483h2.93q-.167 2.295-1.695 3.613t-4.028 1.318q-2.735 0-4.302-1.84-1.568-1.841-1.568-5.054v-.87q0-2.05.723-3.613.723-1.562 2.066-2.397 1.342-.835 3.12-.835 2.46 0 3.965 1.318 1.503 1.319 1.738 3.701h-2.93q-.107-1.376-.766-1.997-.66-.62-2.007-.62-1.465 0-2.193 1.05-.727 1.05-.747 3.257v1.074q0 2.305.698 3.37.699 1.064 2.203 1.064 1.357 0 2.026-.62.669-.62.767-1.92zm11.426 1.006q0-.83-.586-1.275-.586-.444-2.11-.937-1.523-.494-2.411-.972Q94.4 55.777 94.4 53.56q0-1.153.65-2.056.649-.903 1.865-1.411 1.215-.508 2.729-.508 1.523 0 2.715.552 1.191.551 1.85 1.557.66 1.006.66 2.285h-2.93q0-.976-.615-1.518-.616-.542-1.729-.542-1.074 0-1.67.454-.595.454-.595 1.196 0 .694.698 1.162.698.47 2.055.88 2.5.751 3.643 1.865 1.143 1.113 1.143 2.773 0 1.846-1.397 2.896-1.396 1.05-3.76 1.05-1.64 0-2.988-.601-1.348-.6-2.056-1.646-.708-1.045-.708-2.422h2.94q0 2.354 2.812 2.354 1.045 0 1.631-.425.586-.425.586-1.186zm-65.676 24q0-.83-.586-1.275-.586-.444-2.11-.937-1.523-.494-2.412-.972-2.422-1.309-2.422-3.525 0-1.153.65-2.056t1.865-1.411q1.216-.508 2.73-.508 1.523 0 2.714.552 1.192.551 1.85 1.557.66 1.006.66 2.285h-2.93q0-.976-.615-1.518t-1.728-.542q-1.075 0-1.67.454-.596.454-.596 1.196 0 .694.698 1.162.698.47 2.056.88 2.5.751 3.642 1.865 1.143 1.113 1.143 2.773 0 1.846-1.396 2.896-1.397 1.05-3.76 1.05-1.64 0-2.989-.601-1.347-.6-2.055-1.646-.708-1.045-.708-2.422h2.94q0 2.354 2.812 2.354 1.045 0 1.63-.425.587-.425.587-1.186zm15.801-3.692v.635q0 2.1-.742 3.682-.742 1.582-2.124 2.44-1.382.86-3.169.86-1.768 0-3.154-.85-1.387-.849-2.149-2.426-.761-1.577-.771-3.628v-.703q0-2.1.757-3.696.756-1.597 2.138-2.452 1.382-.854 3.16-.854 1.777 0 3.159.854 1.381.855 2.138 2.452.757 1.596.757 3.686zm-2.969.684v-.694q0-2.236-.8-3.398-.801-1.162-2.286-1.162-1.474 0-2.275 1.147-.8 1.148-.81 3.365v.693q0 2.178.8 3.379.801 1.201 2.305 1.201 1.475 0 2.266-1.157.79-1.157.8-3.374zm12.12-7.48h2.94v9.364q0 2.334-1.46 3.692-1.46 1.357-3.99 1.357-2.49 0-3.955-1.318-1.464-1.318-1.494-3.623V73.78h2.93v9.385q0 1.397.669 2.036.669.64 1.85.64 2.471 0 2.51-2.598V73.78zM73.677 88l-2.666-5.205h-2.334V88h-2.93V73.781h5.283q2.52 0 3.887 1.123t1.367 3.174q0 1.455-.63 2.427t-1.909 1.548l3.076 5.81V88h-3.144zm-5-11.846v4.268h2.363q1.104 0 1.71-.562.605-.561.605-1.547 0-1.006-.572-1.583-.571-.576-1.753-.576h-2.353zm17.266 7.11h2.93q-.166 2.295-1.694 3.613-1.529 1.318-4.029 1.318-2.734 0-4.302-1.84-1.567-1.841-1.567-5.054v-.87q0-2.05.723-3.613.722-1.562 2.065-2.397 1.343-.835 3.12-.835 2.461 0 3.965 1.318 1.504 1.319 1.738 3.701h-2.93q-.107-1.376-.766-1.997-.659-.62-2.007-.62-1.465 0-2.192 1.05-.728 1.05-.747 3.257v1.074q0 2.305.698 3.37.698 1.064 2.202 1.064 1.358 0 2.027-.62t.766-1.92zm12.608-3.721v2.295h-5.625v3.808h6.602V88h-9.531V73.781h9.511v2.373h-6.582v3.389h5.625z" fill="#FFF" fill-rule="nonzero"></path></g><g transform="translate(20.000000, 20.000000)"><path stroke="#FFF" fill="#2469D4" d="M.5.5h134v134H.5z"></path><path d="M26.34 49.781h3.828l3.652 10.313 3.633-10.313H41.3V64h-2.939v-3.887l.293-6.709L34.816 64h-2.012l-3.828-10.586.293 6.7V64h-2.93V49.781zm25.274 5.762v2.295h-5.625v3.808h6.601V64h-9.53V49.781h9.51v2.373h-6.58v3.389h5.625zm12.794-5.762v2.373h-4.356V64h-2.93V52.154h-4.297v-2.373h11.582zM73.207 64l-2.667-5.205h-2.334V64h-2.93V49.781h5.284q2.52 0 3.886 1.123 1.368 1.123 1.368 3.174 0 1.455-.63 2.427t-1.91 1.548l3.077 5.81V64h-3.145zm-5-11.846v4.268h2.362q1.104 0 1.71-.562.605-.561.605-1.547 0-1.006-.571-1.583-.572-.576-1.753-.576h-2.354zm12.148-2.373V64h-2.93V49.781h2.93zm10.148 9.483h2.93q-.167 2.295-1.695 3.613t-4.028 1.318q-2.735 0-4.302-1.84-1.568-1.841-1.568-5.054v-.87q0-2.05.723-3.613.723-1.562 2.066-2.397 1.342-.835 3.12-.835 2.46 0 3.965 1.318 1.503 1.319 1.738 3.701h-2.93q-.107-1.376-.766-1.997-.66-.62-2.007-.62-1.465 0-2.193 1.05-.727 1.05-.747 3.257v1.074q0 2.305.698 3.37.699 1.064 2.203 1.064 1.357 0 2.026-.62.669-.62.767-1.92zm11.426 1.006q0-.83-.586-1.275-.586-.444-2.11-.937-1.523-.494-2.411-.972Q94.4 55.777 94.4 53.56q0-1.153.65-2.056.649-.903 1.865-1.411 1.215-.508 2.729-.508 1.523 0 2.715.552 1.191.551 1.85 1.557.66 1.006.66 2.285h-2.93q0-.976-.615-1.518-.616-.542-1.729-.542-1.074 0-1.67.454-.595.454-.595 1.196 0 .694.698 1.162.698.47 2.055.88 2.5.751 3.643 1.865 1.143 1.113 1.143 2.773 0 1.846-1.397 2.896-1.396 1.05-3.76 1.05-1.64 0-2.988-.601-1.348-.6-2.056-1.646-.708-1.045-.708-2.422h2.94q0 2.354 2.812 2.354 1.045 0 1.631-.425.586-.425.586-1.186zm-65.676 24q0-.83-.586-1.275-.586-.444-2.11-.937-1.523-.494-2.412-.972-2.422-1.309-2.422-3.525 0-1.153.65-2.056t1.865-1.411q1.216-.508 2.73-.508 1.523 0 2.714.552 1.192.551 1.85 1.557.66 1.006.66 2.285h-2.93q0-.976-.615-1.518t-1.728-.542q-1.075 0-1.67.454-.596.454-.596 1.196 0 .694.698 1.162.698.47 2.056.88 2.5.751 3.642 1.865 1.143 1.113 1.143 2.773 0 1.846-1.396 2.896-1.397 1.05-3.76 1.05-1.64 0-2.989-.601-1.347-.6-2.055-1.646-.708-1.045-.708-2.422h2.94q0 2.354 2.812 2.354 1.045 0 1.63-.425.587-.425.587-1.186zm15.801-3.692v.635q0 2.1-.742 3.682-.742 1.582-2.124 2.44-1.382.86-3.169.86-1.768 0-3.154-.85-1.387-.849-2.149-2.426-.761-1.577-.771-3.628v-.703q0-2.1.757-3.696.756-1.597 2.138-2.452 1.382-.854 3.16-.854 1.777 0 3.159.854 1.381.855 2.138 2.452.757 1.596.757 3.686zm-2.969.684v-.694q0-2.236-.8-3.398-.801-1.162-2.286-1.162-1.474 0-2.275 1.147-.8 1.148-.81 3.365v.693q0 2.178.8 3.379.801 1.201 2.305 1.201 1.475 0 2.266-1.157.79-1.157.8-3.374zm12.12-7.48h2.94v9.364q0 2.334-1.46 3.692-1.46 1.357-3.99 1.357-2.49 0-3.955-1.318-1.464-1.318-1.494-3.623V73.78h2.93v9.385q0 1.397.669 2.036.669.64 1.85.64 2.471 0 2.51-2.598V73.78zM73.677 88l-2.666-5.205h-2.334V88h-2.93V73.781h5.283q2.52 0 3.887 1.123t1.367 3.174q0 1.455-.63 2.427t-1.909 1.548l3.076 5.81V88h-3.144zm-5-11.846v4.268h2.363q1.104 0 1.71-.562.605-.561.605-1.547 0-1.006-.572-1.583-.571-.576-1.753-.576h-2.353zm17.266 7.11h2.93q-.166 2.295-1.694 3.613-1.529 1.318-4.029 1.318-2.734 0-4.302-1.84-1.567-1.841-1.567-5.054v-.87q0-2.05.723-3.613.722-1.562 2.065-2.397 1.343-.835 3.12-.835 2.461 0 3.965 1.318 1.504 1.319 1.738 3.701h-2.93q-.107-1.376-.766-1.997-.659-.62-2.007-.62-1.465 0-2.192 1.05-.728 1.05-.747 3.257v1.074q0 2.305.698 3.37.698 1.064 2.202 1.064 1.358 0 2.027-.62t.766-1.92zm12.608-3.721v2.295h-5.625v3.808h6.602V88h-9.531V73.781h9.511v2.373h-6.582v3.389h5.625z" fill="#FFF" fill-rule="nonzero"></path></g><g transform="translate(30.000000, 30.000000)"><path stroke="#FFF" fill="#2469D4" d="M.5.5h134v134H.5z"></path><path d="M27.374 55.543v2.295H21.75v3.808h6.602V64H18.82V49.781h9.511v2.373H21.75v3.389h5.625zm4.317-5.762l2.666 4.903 2.666-4.903h3.37l-4.141 7.051L40.5 64h-3.408l-2.735-4.98L31.623 64h-3.408l4.248-7.168-4.14-7.05h3.368zm20.187 0v2.373h-4.356V64h-2.93V52.154h-4.296v-2.373h11.582zm9.424 5.762v2.295h-5.625v3.808h6.602V64h-9.531V49.781h9.511v2.373h-6.582v3.389h5.625zM71.127 64l-2.666-5.205h-2.334V64h-2.93V49.781h5.284q2.52 0 3.887 1.123t1.367 3.174q0 1.455-.63 2.427t-1.91 1.548l3.077 5.81V64h-3.145zm-5-11.846v4.268h2.364q1.103 0 1.709-.562.605-.561.605-1.547 0-1.006-.571-1.583-.572-.576-1.753-.576h-2.354zm20.597-2.373V64h-2.93l-5.703-9.355V64h-2.93V49.781h2.93l5.713 9.375v-9.375h2.92zM97.672 64l-.986-2.93h-5.137L90.572 64h-3.115l5.293-14.219h2.715L100.787 64h-3.115zm-3.565-10.625l-1.767 5.322h3.555l-1.788-5.322zm10.138-3.594v11.865h6.22V64h-9.15V49.781h2.93zM14.482 83.264h2.93q-.166 2.295-1.695 3.613-1.528 1.318-4.028 1.318-2.734 0-4.302-1.84Q5.82 84.513 5.82 81.3v-.87q0-2.05.723-3.613.722-1.562 2.065-2.397 1.343-.835 3.12-.835 2.461 0 3.965 1.318 1.504 1.319 1.738 3.701h-2.93q-.107-1.376-.766-1.997-.66-.62-2.007-.62-1.465 0-2.192 1.05-.728 1.05-.747 3.257v1.074q0 2.305.698 3.37.698 1.064 2.202 1.064 1.357 0 2.026-.62.67-.62.767-1.92zm15.733-2.686v.635q0 2.1-.742 3.682-.742 1.582-2.124 2.44-1.382.86-3.169.86-1.768 0-3.154-.85-1.387-.849-2.149-2.426-.761-1.577-.771-3.628v-.703q0-2.1.757-3.696.756-1.597 2.138-2.452 1.382-.854 3.16-.854 1.777 0 3.159.854 1.381.855 2.138 2.452.757 1.596.757 3.686zm-2.969.684v-.694q0-2.236-.8-3.398-.801-1.162-2.286-1.162-1.474 0-2.275 1.147-.8 1.148-.81 3.365v.693q0 2.178.8 3.379.801 1.201 2.305 1.201 1.475 0 2.266-1.157.79-1.157.8-3.374zm4.298-7.48h3.828l3.653 10.312 3.632-10.313h3.848V88h-2.94v-3.887l.294-6.709L40.02 88h-2.012L34.18 77.414l.293 6.7V88h-2.93V73.781zm22.218 9.208h-2.569V88h-2.93V73.781h5.547q1.602 0 2.818.586t1.87 1.665q.654 1.08.654 2.456 0 2.09-1.43 3.296-1.431 1.206-3.96 1.206zm-2.569-6.836v4.463h2.617q1.163 0 1.773-.547.61-.547.61-1.562 0-1.045-.615-1.69-.615-.644-1.7-.664h-2.685zm20.85 4.424v.635q0 2.1-.742 3.682-.742 1.582-2.124 2.44-1.381.86-3.168.86-1.768 0-3.155-.85-1.386-.849-2.148-2.426-.762-1.577-.772-3.628v-.703q0-2.1.757-3.696.757-1.597 2.139-2.452 1.382-.854 3.159-.854t3.16.854q1.381.855 2.138 2.452.757 1.596.757 3.686zm-2.968.684v-.694q0-2.236-.8-3.398-.802-1.162-2.286-1.162-1.475 0-2.275 1.147-.801 1.148-.811 3.365v.693q0 2.178.8 3.379.802 1.201 2.306 1.201 1.474 0 2.265-1.157.791-1.157.8-3.374zm15.86-7.48V88h-2.93l-5.703-9.355V88h-2.93V73.781h2.93l5.713 9.375v-9.375h2.92zm10.313 5.761v2.295h-5.625v3.808h6.602V88h-9.531V73.781h9.511v2.373h-6.582v3.389h5.625zm13.458-5.762V88h-2.93l-5.703-9.355V88h-2.93V73.781h2.93l5.713 9.375v-9.375h2.92zm12.179 0v2.373h-4.356V88h-2.93V76.154h-4.296v-2.373h11.582z" fill="#FFF" fill-rule="nonzero"></path></g></g><path d="M1017.965 645.18l.028 22 146-.186.013 10-146 .186.029 22L964 672.25l53.965-27.07zm-794.11-.468l.117 21.998 138.001-.737.054 10-138.002.737.119 22L170 672l53.855-27.288z" fill="#2469D4" fill-rule="nonzero"></path><g transform="translate(221.000000, 124.000000)"><path d="M0 0h578v651.1H0z" fill="#2469D4" fill-opacity="0.6"></path><g transform="translate(578.000016, 0.000000)"><path fill-opacity="0.5" fill="#333" d="M0 0h187v212.5H0z"></path><path d="M28.054 80.7l-3.733-7.287h-3.267V80.7h-4.102V60.794h7.397q3.527 0 5.441 1.572 1.914 1.572 1.914 4.443 0 2.037-.882 3.398-.881 1.36-2.672 2.167l4.306 8.135v.191h-4.402zm-7-16.584v5.975h3.309q1.544 0 2.392-.787.848-.786.848-2.166 0-1.409-.8-2.215-.8-.807-2.454-.807h-3.295zm24.918 4.744v3.213h-7.875v5.332h9.242V80.7H33.995V60.794h13.317v3.322h-9.215v4.744h7.875zm13.27 6.617q0-1.162-.82-1.784-.82-.622-2.954-1.312-2.133-.69-3.377-1.36-3.39-1.833-3.39-4.936 0-1.614.909-2.878.91-1.265 2.611-1.976 1.702-.71 3.822-.71 2.132 0 3.8.772 1.668.772 2.591 2.18.923 1.409.923 3.2h-4.102q0-1.368-.86-2.126-.862-.76-2.42-.76-1.505 0-2.339.637-.834.635-.834 1.674 0 .971.978 1.627.977.657 2.878 1.23 3.5 1.054 5.1 2.612 1.599 1.559 1.599 3.883 0 2.584-1.955 4.054-1.955 1.47-5.264 1.47-2.297 0-4.183-.841-1.887-.841-2.878-2.304-.991-1.463-.991-3.39H52.2q0 3.294 3.937 3.294 1.463 0 2.283-.595.82-.594.82-1.66zm22.416-5.168v.889q0 2.94-1.04 5.154-1.038 2.215-2.973 3.418-1.934 1.203-4.436 1.203-2.475 0-4.416-1.189-1.942-1.19-3.008-3.397-1.067-2.208-1.08-5.08v-.984q0-2.94 1.06-5.175 1.059-2.235 2.994-3.431 1.934-1.197 4.422-1.197 2.489 0 4.423 1.197 1.935 1.196 2.994 3.431 1.06 2.236 1.06 5.161zm-4.156.957v-.97q0-3.131-1.121-4.758-1.121-1.627-3.2-1.627-2.064 0-3.185 1.606-1.121 1.607-1.135 4.71v.971q0 3.049 1.121 4.73 1.121 1.682 3.227 1.682 2.064 0 3.172-1.62 1.107-1.62 1.12-4.724zm17.262-10.472h4.115v13.111q0 3.268-2.044 5.168-2.044 1.9-5.585 1.9-3.486 0-5.537-1.845-2.051-1.846-2.092-5.073V60.794h4.102v13.138q0 1.956.936 2.851.937.896 2.59.896 3.46 0 3.515-3.637V60.794zM112.518 80.7l-3.733-7.287h-3.267V80.7h-4.102V60.794h7.397q3.527 0 5.441 1.572 1.914 1.572 1.914 4.443 0 2.037-.882 3.398-.882 1.36-2.673 2.167l4.307 8.135v.191h-4.402zm-7-16.584v5.975h3.308q1.545 0 2.393-.787.847-.786.847-2.166 0-1.409-.8-2.215-.8-.807-2.453-.807h-3.295zm24.467 9.953h4.101q-.232 3.213-2.372 5.059-2.14 1.845-5.64 1.845-3.828 0-6.022-2.577-2.194-2.577-2.194-7.075v-1.217q0-2.87 1.011-5.058 1.012-2.188 2.892-3.357t4.368-1.169q3.445 0 5.55 1.846 2.106 1.846 2.435 5.182h-4.102q-.15-1.928-1.073-2.796-.923-.868-2.81-.868-2.05 0-3.07 1.47-1.018 1.469-1.045 4.559v1.504q0 3.226.977 4.717.978 1.49 3.083 1.49 1.9 0 2.837-.868.937-.868 1.074-2.687zm17.945-5.209v3.213h-7.875v5.332h9.242V80.7h-13.343V60.794h13.316v3.322h-9.215v4.744h7.875zM32.087 94.794h5.36l5.113 14.437 5.086-14.437h5.387V114.7h-4.116v-5.441l.41-9.393-5.372 14.834h-2.817l-5.36-14.82.41 9.379v5.441h-4.1V94.794zm35.678 8.066v3.213H59.89v5.332h9.242v3.295H55.79V94.794h13.316v3.322H59.89v4.744h7.875zm18.206-8.066v3.322h-6.098V114.7H75.77V98.116h-6.015v-3.322H85.97zM98.584 114.7l-3.732-7.287h-3.268v7.287h-4.102V94.794h7.397q3.527 0 5.441 1.572 1.914 1.572 1.914 4.443 0 2.037-.881 3.398-.882 1.36-2.673 2.167l4.306 8.135v.191h-4.402zm-7-16.584v5.975h3.309q1.544 0 2.392-.787.848-.786.848-2.166 0-1.409-.8-2.215-.8-.807-2.454-.807h-3.295zm17.303-3.322V114.7h-4.102V94.794h4.102zm14.5 13.275h4.102q-.233 3.213-2.372 5.059-2.14 1.845-5.64 1.845-3.828 0-6.023-2.577-2.194-2.577-2.194-7.075v-1.217q0-2.87 1.012-5.058 1.012-2.188 2.891-3.357 1.88-1.169 4.369-1.169 3.445 0 5.55 1.846 2.106 1.846 2.434 5.182h-4.102q-.15-1.928-1.073-2.796-.923-.868-2.81-.868-2.05 0-3.069 1.47-1.018 1.469-1.046 4.559v1.504q0 3.226.978 4.717.977 1.49 3.083 1.49 1.9 0 2.837-.868.936-.868 1.073-2.687zm16.291 1.408q0-1.162-.82-1.784-.82-.622-2.953-1.312-2.133-.69-3.377-1.36-3.39-1.833-3.39-4.936 0-1.614.908-2.878.91-1.265 2.612-1.976 1.702-.71 3.821-.71 2.133 0 3.8.772 1.669.772 2.592 2.18.922 1.409.922 3.2h-4.101q0-1.368-.861-2.126-.862-.76-2.42-.76-1.504 0-2.338.637-.834.635-.834 1.674 0 .971.977 1.627.978.657 2.878 1.23 3.5 1.054 5.1 2.612 1.6 1.559 1.6 3.883 0 2.584-1.956 4.054-1.955 1.47-5.263 1.47-2.297 0-4.184-.841t-2.878-2.304q-.991-1.463-.991-3.39h4.115q0 3.294 3.938 3.294 1.463 0 2.283-.595.82-.594.82-1.66zM85.335 148.7l-1.38-4.102h-7.192l-1.367 4.102h-4.361l7.41-19.906h3.8l7.452 19.906h-4.362zm-4.99-14.875l-2.474 7.451h4.976l-2.502-7.451zm18.082 7.861h-3.595v7.014H90.73v-19.906h7.766q2.242 0 3.944.82t2.618 2.331q.916 1.51.916 3.439 0 2.925-2.003 4.614-2.003 1.688-5.544 1.688zm-3.595-9.57v6.248h3.664q1.627 0 2.481-.766.855-.765.855-2.187 0-1.463-.862-2.365-.86-.903-2.378-.93h-3.76zm17.494-3.322V148.7h-4.101v-19.906h4.101z" fill="#FFF" fill-rule="nonzero"></path></g><g transform="translate(578.000016, 222.700006)"><path fill-opacity="0.5" fill="#333" d="M0 0h187v209.1H0z"></path><path d="M45.31 72.37h4.101q-.232 3.212-2.372 5.058-2.14 1.845-5.64 1.845-3.828 0-6.022-2.577-2.194-2.577-2.194-7.075v-1.217q0-2.87 1.011-5.058 1.012-2.188 2.892-3.357t4.368-1.169q3.446 0 5.551 1.846 2.106 1.846 2.434 5.182h-4.102q-.15-1.928-1.073-2.796-.923-.868-2.81-.868-2.05 0-3.07 1.47-1.018 1.469-1.045 4.559v1.504q0 3.226.978 4.717.977 1.49 3.083 1.49 1.9 0 2.836-.868.937-.868 1.074-2.687zm16.92-13.276h4.115v13.111q0 3.268-2.044 5.168-2.044 1.9-5.585 1.9-3.486 0-5.537-1.845-2.05-1.846-2.092-5.073V59.094h4.102v13.138q0 1.956.936 2.851.937.896 2.591.896 3.46 0 3.514-3.637V59.094zm16.975 14.683q0-1.162-.82-1.784-.821-.622-2.954-1.312-2.133-.69-3.377-1.36-3.39-1.833-3.39-4.936 0-1.614.909-2.878.909-1.265 2.611-1.976 1.702-.71 3.821-.71 2.133 0 3.801.772 1.668.772 2.591 2.18.923 1.409.923 3.2h-4.102q0-1.368-.861-2.126-.861-.76-2.42-.76-1.504 0-2.338.637-.834.635-.834 1.674 0 .971.978 1.627.977.657 2.878 1.23 3.5 1.054 5.1 2.612 1.599 1.559 1.599 3.883 0 2.584-1.955 4.054-1.955 1.47-5.264 1.47-2.297 0-4.183-.841-1.887-.841-2.878-2.304-.992-1.463-.992-3.39h4.116q0 3.294 3.937 3.294 1.463 0 2.283-.595.82-.594.82-1.66zm21.049-14.683v3.322h-6.098V79h-4.102V62.416H84.04v-3.322h16.215zm17.48 9.515v.889q0 2.94-1.039 5.154-1.039 2.215-2.973 3.418-1.935 1.203-4.437 1.203-2.475 0-4.416-1.189-1.941-1.19-3.008-3.397-1.066-2.208-1.08-5.08v-.984q0-2.94 1.06-5.175t2.994-3.431q1.934-1.197 4.423-1.197 2.488 0 4.423 1.197 1.934 1.196 2.994 3.431 1.06 2.236 1.06 5.161zm-4.156.957v-.97q0-3.131-1.121-4.758-1.121-1.627-3.2-1.627-2.064 0-3.185 1.606-1.121 1.607-1.135 4.71v.971q0 3.049 1.121 4.73 1.122 1.682 3.227 1.682 2.064 0 3.172-1.62 1.107-1.62 1.121-4.724zm6.31-10.472h5.36l5.113 14.437 5.086-14.437h5.387V79h-4.115v-5.441l.41-9.393L131.756 79h-2.816l-5.36-14.82.41 9.379V79h-4.101V59.094zm-87.801 34h5.36l5.113 14.437 5.086-14.437h5.387V113h-4.116v-5.441l.41-9.393L43.956 113h-2.817l-5.36-14.82.41 9.379V113h-4.1V93.094zm35.678 8.066v3.213H59.89v5.332h9.242V113H55.79V93.094h13.316v3.322H59.89v4.744h7.875zm18.206-8.066v3.322h-6.098V113H75.77V96.416h-6.015v-3.322H85.97zM98.584 113l-3.732-7.287h-3.268V113h-4.102V93.094h7.397q3.527 0 5.441 1.572 1.914 1.572 1.914 4.443 0 2.037-.881 3.398-.882 1.36-2.673 2.167l4.306 8.135V113h-4.402zm-7-16.584v5.975h3.309q1.544 0 2.392-.787.848-.786.848-2.166 0-1.409-.8-2.215-.8-.807-2.454-.807h-3.295zm17.303-3.322V113h-4.102V93.094h4.102zm14.5 13.275h4.102q-.233 3.213-2.372 5.059-2.14 1.845-5.64 1.845-3.828 0-6.023-2.577-2.194-2.577-2.194-7.075v-1.217q0-2.87 1.012-5.058 1.012-2.188 2.891-3.357 1.88-1.169 4.369-1.169 3.445 0 5.55 1.846 2.106 1.846 2.434 5.182h-4.102q-.15-1.928-1.073-2.796-.923-.868-2.81-.868-2.05 0-3.069 1.47-1.018 1.469-1.046 4.559v1.504q0 3.226.978 4.717.977 1.49 3.083 1.49 1.9 0 2.837-.868.936-.868 1.073-2.687zm16.291 1.408q0-1.162-.82-1.784-.82-.622-2.953-1.312-2.133-.69-3.377-1.36-3.39-1.833-3.39-4.936 0-1.614.908-2.878.91-1.265 2.612-1.976 1.702-.71 3.821-.71 2.133 0 3.8.772 1.669.772 2.592 2.18.922 1.409.922 3.2h-4.101q0-1.368-.861-2.126-.862-.76-2.42-.76-1.504 0-2.338.637-.834.635-.834 1.674 0 .971.977 1.627.978.657 2.878 1.23 3.5 1.054 5.1 2.612 1.6 1.559 1.6 3.883 0 2.584-1.956 4.054-1.955 1.47-5.263 1.47-2.297 0-4.184-.841t-2.878-2.304q-.991-1.463-.991-3.39h4.115q0 3.294 3.938 3.294 1.463 0 2.283-.595.82-.594.82-1.66zM85.335 147l-1.38-4.102h-7.192L75.396 147h-4.361l7.41-19.906h3.8L89.698 147h-4.362zm-4.99-14.875l-2.474 7.451h4.976l-2.502-7.451zm18.082 7.861h-3.595V147H90.73v-19.906h7.766q2.242 0 3.944.82t2.618 2.331q.916 1.51.916 3.439 0 2.925-2.003 4.614-2.003 1.688-5.544 1.688zm-3.595-9.57v6.248h3.664q1.627 0 2.481-.766.855-.765.855-2.187 0-1.463-.862-2.365-.86-.903-2.378-.93h-3.76zm17.494-3.322V147h-4.101v-19.906h4.101z" fill="#FFF" fill-rule="nonzero"></path></g><g transform="translate(578.000016, 442.000012)"><path fill="#333" d="M0 0h187v209.1H0z"></path><path d="M33.755 67.16v3.213H25.88v5.332h9.242V79H21.778V59.094h13.317v3.322H25.88v4.744h7.875zm6.338-8.066l3.732 6.863 3.733-6.863h4.717l-5.797 9.87L52.425 79h-4.771l-3.829-6.973L39.997 79h-4.771l5.947-10.035-5.797-9.871h4.717zm28.555 0v3.322H62.55V79h-4.1V62.416h-6.016v-3.322h16.215zm13.488 8.066v3.213h-7.875v5.332h9.242V79H70.16V59.094h13.316v3.322h-9.215v4.744h7.875zM96.186 79l-3.733-7.287h-3.268V79h-4.101V59.094h7.396q3.528 0 5.442 1.572 1.914 1.572 1.914 4.443 0 2.037-.882 3.398-.882 1.36-2.673 2.167l4.307 8.135V79h-4.403zm-7-16.584v5.975h3.308q1.545 0 2.392-.787.848-.786.848-2.166 0-1.409-.8-2.215-.8-.807-2.454-.807h-3.295zm29.128-3.322V79h-4.101l-7.985-13.098V79h-4.101V59.094h4.101l7.998 13.125V59.094h4.088zM133.936 79l-1.381-4.102h-7.192L123.996 79h-4.361l7.41-19.906h3.8L138.298 79h-4.361zm-4.99-14.875l-2.475 7.451h4.976l-2.502-7.451zm14.486-5.031v16.611h8.709V79h-12.81V59.094h4.1zm-111.345 34h5.36l5.113 14.437 5.086-14.437h5.387V113h-4.116v-5.441l.41-9.393L43.956 113h-2.817l-5.36-14.82.41 9.379V113h-4.1V93.094zm35.678 8.066v3.213H59.89v5.332h9.242V113H55.79V93.094h13.316v3.322H59.89v4.744h7.875zm18.206-8.066v3.322h-6.098V113H75.77V96.416h-6.015v-3.322H85.97zM98.584 113l-3.732-7.287h-3.268V113h-4.102V93.094h7.397q3.527 0 5.441 1.572 1.914 1.572 1.914 4.443 0 2.037-.881 3.398-.882 1.36-2.673 2.167l4.306 8.135V113h-4.402zm-7-16.584v5.975h3.309q1.544 0 2.392-.787.848-.786.848-2.166 0-1.409-.8-2.215-.8-.807-2.454-.807h-3.295zm17.303-3.322V113h-4.102V93.094h4.102zm14.5 13.275h4.102q-.233 3.213-2.372 5.059-2.14 1.845-5.64 1.845-3.828 0-6.023-2.577-2.194-2.577-2.194-7.075v-1.217q0-2.87 1.012-5.058 1.012-2.188 2.891-3.357 1.88-1.169 4.369-1.169 3.445 0 5.55 1.846 2.106 1.846 2.434 5.182h-4.102q-.15-1.928-1.073-2.796-.923-.868-2.81-.868-2.05 0-3.069 1.47-1.018 1.469-1.046 4.559v1.504q0 3.226.978 4.717.977 1.49 3.083 1.49 1.9 0 2.837-.868.936-.868 1.073-2.687zm16.291 1.408q0-1.162-.82-1.784-.82-.622-2.953-1.312-2.133-.69-3.377-1.36-3.39-1.833-3.39-4.936 0-1.614.908-2.878.91-1.265 2.612-1.976 1.702-.71 3.821-.71 2.133 0 3.8.772 1.669.772 2.592 2.18.922 1.409.922 3.2h-4.101q0-1.368-.861-2.126-.862-.76-2.42-.76-1.504 0-2.338.637-.834.635-.834 1.674 0 .971.977 1.627.978.657 2.878 1.23 3.5 1.054 5.1 2.612 1.6 1.559 1.6 3.883 0 2.584-1.956 4.054-1.955 1.47-5.263 1.47-2.297 0-4.184-.841t-2.878-2.304q-.991-1.463-.991-3.39h4.115q0 3.294 3.938 3.294 1.463 0 2.283-.595.82-.594.82-1.66zM85.335 147l-1.38-4.102h-7.192L75.396 147h-4.361l7.41-19.906h3.8L89.698 147h-4.362zm-4.99-14.875l-2.474 7.451h4.976l-2.502-7.451zm18.082 7.861h-3.595V147H90.73v-19.906h7.766q2.242 0 3.944.82t2.618 2.331q.916 1.51.916 3.439 0 2.925-2.003 4.614-2.003 1.688-5.544 1.688zm-3.595-9.57v6.248h3.664q1.627 0 2.481-.766.855-.765.855-2.187 0-1.463-.862-2.365-.86-.903-2.378-.93h-3.76zm17.494-3.322V147h-4.101v-19.906h4.101z" fill="#FFF" fill-rule="nonzero"></path></g><g transform="translate(20.400001, 472.600013)"><path d="M275.4 73.95h-27.2m300.9 0h-27.2" stroke="#2469D4" stroke-width="17" stroke-linecap="square"></path><path fill="#2469D4" d="M0 0h241.4v147.9H0z"></path><path d="M31.535 77.086h-3.596V84.1h-4.102V64.194h7.766q2.242 0 3.944.82t2.618 2.331q.916 1.51.916 3.439 0 2.925-2.002 4.614-2.003 1.688-5.544 1.688zm-3.596-9.57v6.248h3.664q1.627 0 2.481-.766.855-.765.855-2.187 0-1.463-.861-2.365-.862-.903-2.38-.93h-3.76zM52.173 84.1l-3.732-7.287h-3.268V84.1h-4.101V64.194h7.396q3.528 0 5.442 1.572 1.914 1.572 1.914 4.443 0 2.037-.882 3.398-.882 1.36-2.673 2.167l4.307 8.135v.191h-4.403zm-7-16.584v5.975h3.309q1.545 0 2.393-.787.847-.786.847-2.166 0-1.409-.8-2.215-.8-.807-2.454-.807h-3.295zm29.294 6.193v.889q0 2.94-1.04 5.154-1.039 2.215-2.973 3.418-1.935 1.203-4.437 1.203-2.474 0-4.416-1.189-1.941-1.19-3.007-3.397-1.067-2.208-1.08-5.08v-.984q0-2.94 1.059-5.175 1.06-2.235 2.994-3.431 1.935-1.197 4.423-1.197t4.423 1.197q1.934 1.196 2.994 3.431 1.06 2.236 1.06 5.161zm-4.157.957v-.97q0-3.131-1.12-4.758-1.122-1.627-3.2-1.627-2.064 0-3.186 1.606-1.12 1.607-1.134 4.71v.971q0 3.049 1.12 4.73 1.122 1.682 3.227 1.682 2.065 0 3.172-1.62 1.108-1.62 1.121-4.724zm6.311-10.472h5.36l5.113 14.437 5.086-14.437h5.386V84.1h-4.115v-5.441l.41-9.393L88.488 84.1h-2.816l-5.36-14.82.41 9.379V84.1h-4.1V64.194zM112.3 72.26v3.213h-7.875v5.332h9.242V84.1h-13.344V64.194h13.317v3.322h-9.215v4.744h7.875zm18.205-8.066v3.322h-6.097V84.1h-4.102V67.516h-6.016v-3.322h16.215zm17.713 0V84.1h-4.101v-8.531h-7.998V84.1h-4.102V64.194h4.102v8.066h7.998v-8.066h4.101zm14.733 8.066v3.213h-7.875v5.332h9.242V84.1h-13.344V64.194h13.317v3.322h-9.215v4.744h7.875zm13.898-8.066h4.116v13.111q0 3.268-2.044 5.168-2.044 1.9-5.585 1.9-3.487 0-5.537-1.845-2.051-1.846-2.092-5.073V64.194h4.101v13.138q0 1.956.937 2.851.937.896 2.59.896 3.46 0 3.514-3.637V64.194zm16.975 14.683q0-1.162-.82-1.784-.82-.622-2.953-1.312-2.133-.69-3.377-1.36-3.39-1.833-3.39-4.936 0-1.614.908-2.878.91-1.265 2.612-1.976 1.702-.71 3.821-.71 2.133 0 3.8.772 1.669.772 2.592 2.18.923 1.409.923 3.2h-4.102q0-1.368-.861-2.126-.862-.76-2.42-.76-1.504 0-2.338.637-.834.635-.834 1.674 0 .971.977 1.627.978.657 2.878 1.23 3.5 1.054 5.1 2.612 1.6 1.559 1.6 3.883 0 2.584-1.956 4.054-1.955 1.47-5.263 1.47-2.297 0-4.184-.841t-2.878-2.304q-.991-1.463-.991-3.39h4.115q0 3.294 3.938 3.294 1.463 0 2.283-.595.82-.594.82-1.66z" fill="#FFF" fill-rule="nonzero"></path><g transform="translate(275.400008, 0.000000)"><path fill="#2469D4" d="M0 0h241.4v147.9H0z"></path><path d="M32.385 60.086h-3.596V67.1h-4.102V47.194h7.766q2.242 0 3.944.82t2.618 2.331q.916 1.51.916 3.439 0 2.925-2.002 4.614-2.003 1.688-5.544 1.688zm-3.596-9.57v6.248h3.664q1.627 0 2.481-.766.855-.765.855-2.187 0-1.463-.861-2.365-.862-.903-2.38-.93h-3.76zM53.023 67.1l-3.732-7.287h-3.268V67.1h-4.101V47.194h7.396q3.528 0 5.442 1.572 1.914 1.572 1.914 4.443 0 2.037-.882 3.398-.882 1.36-2.673 2.167l4.307 8.135v.191h-4.403zm-7-16.584v5.975h3.309q1.545 0 2.393-.787.847-.786.847-2.166 0-1.409-.8-2.215-.8-.807-2.454-.807h-3.295zm29.294 6.193v.889q0 2.94-1.04 5.154-1.039 2.215-2.973 3.418-1.935 1.203-4.437 1.203-2.474 0-4.416-1.189-1.941-1.19-3.007-3.397-1.067-2.208-1.08-5.08v-.984q0-2.94 1.059-5.175 1.06-2.235 2.994-3.431 1.935-1.197 4.423-1.197t4.423 1.197q1.934 1.196 2.994 3.431 1.06 2.236 1.06 5.161zm-4.157.957v-.97q0-3.131-1.12-4.758-1.122-1.627-3.2-1.627-2.064 0-3.186 1.606-1.12 1.607-1.134 4.71v.971q0 3.049 1.12 4.73 1.122 1.682 3.227 1.682 2.065 0 3.172-1.62 1.108-1.62 1.121-4.724zm6.311-10.472h5.36l5.113 14.437 5.086-14.437h5.386V67.1h-4.115v-5.441l.41-9.393L89.338 67.1h-2.816l-5.36-14.82.41 9.379V67.1h-4.1V47.194zm35.678 8.066v3.213h-7.875v5.332h9.242V67.1h-13.344V47.194h13.317v3.322h-9.215v4.744h7.875zm18.205-8.066v3.322h-6.097V67.1h-4.102V50.516h-6.016v-3.322h16.215zm17.713 0V67.1h-4.101v-8.531h-7.998V67.1h-4.102V47.194h4.102v8.066h7.998v-8.066h4.101zM163.8 55.26v3.213h-7.875v5.332h9.242V67.1h-13.344V47.194h13.317v3.322h-9.215v4.744h7.875zm13.898-8.066h4.116v13.111q0 3.268-2.044 5.168-2.044 1.9-5.585 1.9-3.487 0-5.537-1.845-2.051-1.846-2.092-5.073V47.194h4.101v13.138q0 1.956.937 2.851.937.896 2.59.896 3.46 0 3.514-3.637V47.194zm16.975 14.683q0-1.162-.82-1.784-.82-.622-2.953-1.312-2.133-.69-3.377-1.36-3.39-1.833-3.39-4.936 0-1.614.908-2.878.91-1.265 2.612-1.976 1.702-.71 3.821-.71 2.133 0 3.8.772 1.669.772 2.592 2.18.922 1.409.922 3.2h-4.101q0-1.368-.861-2.126-.862-.76-2.42-.76-1.504 0-2.338.637-.834.635-.834 1.674 0 .971.977 1.627.978.657 2.878 1.23 3.5 1.054 5.1 2.612 1.6 1.559 1.6 3.883 0 2.584-1.956 4.054-1.955 1.47-5.263 1.47-2.297 0-4.184-.841t-2.878-2.304q-.991-1.463-.991-3.39h4.115q0 3.294 3.938 3.294 1.463 0 2.283-.595.82-.594.82-1.66zM70.068 101.1l-1.38-4.102h-7.192L60.13 101.1h-4.361l7.41-19.906h3.8L74.43 101.1h-4.362zm-4.99-14.875l-2.474 7.451h4.976l-2.502-7.451zM81.63 101.1h-6.166V81.194h6.125q2.625 0 4.696 1.182 2.072 1.183 3.234 3.364 1.162 2.18 1.162 4.956v.916q0 2.775-1.142 4.935-1.141 2.16-3.22 3.35-2.077 1.19-4.689 1.203zm-.04-16.584h-2.024v13.29h1.982q2.406 0 3.678-1.573 1.271-1.572 1.299-4.498v-1.053q0-3.035-1.258-4.6-1.258-1.566-3.678-1.566zm23.577 16.584l-1.38-4.102h-7.192l-1.367 4.102h-4.361l7.41-19.906h3.8l7.452 19.906h-4.362zm-4.99-14.875l-2.474 7.451h4.976l-2.502-7.451zm18.082 7.861h-3.595v7.014h-4.102V81.194h7.766q2.242 0 3.944.82t2.618 2.331q.916 1.51.916 3.439 0 2.925-2.003 4.614-2.003 1.688-5.544 1.688zm-3.595-9.57v6.248h3.664q1.627 0 2.481-.766.855-.765.855-2.187 0-1.463-.862-2.365-.86-.903-2.378-.93h-3.76zm28.117-3.322v3.322h-6.098V101.1h-4.101V84.516h-6.016v-3.322h16.215zm13.489 8.066v3.213h-7.875v5.332h9.242v3.295h-13.344V81.194h13.316v3.322h-9.214v4.744h7.875zm14.049 11.84l-3.733-7.287h-3.267v7.287h-4.102V81.194h7.396q3.528 0 5.442 1.572 1.914 1.572 1.914 4.443 0 2.037-.882 3.398-.882 1.36-2.673 2.167l4.307 8.135v.191h-4.402zm-7-16.584v5.975h3.308q1.545 0 2.393-.787.847-.786.847-2.166 0-1.409-.8-2.215-.8-.807-2.454-.807h-3.294z" fill="#FFF" fill-rule="nonzero"></path></g></g></g><g transform="translate(1047.000000, 605.000000)"><path stroke="#979797" fill="#2469D4" d="M.5.5h134v134H.5z"></path><path d="M43.612 71.264h2.93q-.166 2.295-1.695 3.613-1.528 1.318-4.028 1.318-2.734 0-4.302-1.84-1.567-1.841-1.567-5.054v-.87q0-2.05.722-3.613.723-1.562 2.066-2.397 1.343-.835 3.12-.835 2.461 0 3.965 1.318 1.504 1.319 1.738 3.701h-2.93q-.107-1.376-.766-1.997-.66-.62-2.007-.62-1.465 0-2.192 1.05-.728 1.05-.747 3.257v1.074q0 2.305.698 3.37.698 1.064 2.202 1.064 1.357 0 2.026-.62.67-.62.767-1.92zm6.983-9.483v11.865h6.22V76h-9.15V61.781h2.93zm10.216 0V76h-2.93V61.781h2.93zm10.47 5.762v2.295h-5.626v3.808h6.602V76h-9.531V61.781h9.511v2.373h-6.582v3.389h5.625zm13.457-5.762V76h-2.93l-5.703-9.355V76h-2.93V61.781h2.93l5.713 9.375v-9.375h2.92zm12.179 0v2.373H92.56V76h-2.93V64.154h-4.296v-2.373h11.582z" fill="#FFF" fill-rule="nonzero"></path></g></g></svg>