<svg viewBox="0 0 1200 900" xmlns="http://www.w3.org/2000/svg"><g fill="none" fill-rule="evenodd"><g transform="translate(102 90)"><circle fill="#D1F2A5" cx="84.5" cy="135.5" r="75.5"></circle><text font-size="30" font-weight="bold" fill="#4A4A4A" class="sans-serif"><tspan x=".315" y="27">ClusterRole</tspan></text><text font-size="26" font-weight="bold" fill="#4A4A4A" class="sans-serif"><tspan x="27.205" y="143">read only</tspan></text></g><g fill-rule="nonzero"><path d="M432.954 721.013c-7.217 13.492-22.75 18.45-35.771 11.744-2.746-1.422-6.491-2.885-9.237-4.307-1.138-.61-1.06-.57-1.06.69v25.643c-.038.406.158.569.55.569l3.746-1c1.216-.04 2.392.162 3.451.731.353.163.628.204.98 0 2.04-1.016 4.12-.975 6.159-.04.431.203.745.162 1.137-.04 1.373-.692 2.824-.854 4.315-.57 3.49.691 5.844 3.658 5.883 7.396.04 2.357 0 4.674 0 7.03 0 .691.04 1.342-.117 2.032-.118.61-.079.61.549.61h18.748c.589 0 .856.029.974-.08l3.223.08c.157 0 .157.474 0 1.422h-23.26c-.548 0-.98.122-1.45.529-1.648 1.463-3.844 1.422-5.492 0-.823-.691-.862-.691-1.647 0-1.647 1.422-3.883 1.463-5.53.04-.746-.69-.98-.69-1.49-.203-1.609 1.626-4.394 1.666-5.963-.04-.196-.244-.47-.326-.745-.326l-133.26 1c-.549 0-1.137.04-1.647-.244.392-.853.824-.975 1.334-.975h11.001c-.51-1.422-.784-2.56-.784-3.82-.04-3.82-.118-7.68-.196-11.5-.118-6.705-.235-13.451-.392-20.156-.04-1.788-.118-3.577-.118-5.365 0-2.56 1.843-4.51 4.314-4.551 1.844-.04 3.687 0 5.57 0h12.63c2.196 0 4.393.081 6.59.081 2.392 0 4.392 2.154 4.235 4.511-.039.569 0 1.179 0 1.747 1.256-.04 2.118-.284 3.06-.325 4.275-.203 8.04 3.048 8.433 7.356.431 4.592-2.51 8.574-6.864 9.184-1.49.203-2.942.04-4.315-.57-.627-.284-.627-.243-.627.407l-.118 6.827c-.078 4.349-.196 8.697-.275 13.045-.039 1.057-.392 1.95-1.02 2.763.393.447.589.447.746.447h26.966c-6.001-3.698-8.825-8.655-8.825-15.28 0-1.584.313-3.169.823-4.673 5.295-15.767 10.59-31.534 15.886-47.261a7.666 7.666 0 0 0 .431-3.13c-.118-1.543-.04-3.128-.078-4.673l-.353-16.58c-.079-3.332-.118-6.705-.196-10.037-.118-4.47-.236-8.981-.314-13.451l-.236-11.988c-.078-3.942-.196-7.925-.313-11.866-.04-1.707-.04-3.373-.079-5.08 0-.935 0-.935-.863-.853-3.569.325-6.668-.773-9.335-3.251-4.746-4.47-4.981-12.598-.51-17.353 3.02-3.21 6.707-4.43 10.983-3.657.51-.853.196-1.382.039-1.91-1.294-3.901-2.275-7.924-2.471-12.07-.157-3.047.118-6.054 1.177-8.899 2-5.445 5.844-8.696 11.217-10.119a15.024 15.024 0 0 1 4.472-.569c.549 0 .823-.162 1.059-.69a21.473 21.473 0 0 1 2.55-4.674c2.902-4.064 6.824-6.42 11.57-7.355.745-.163 1.49-.04 2.197-.366h3.961c.588.325 1.216.163 1.844.244 2.431.325 4.745 1.178 7.099 1.95 20.984 6.868 41.93 13.736 62.874 20.644.863.244 1.06.447 1.06.772 0 .285-.158.488-.432.57-.196.08-.392.162-.628.243-3.412 1.341-6.864 2.682-10.276 4.023-1.02.407-1.02.447-.667.854.667.731 1.373 1.422 2.079 2.153 1.726 1.789 3.451 3.617 5.177 5.405.746.854.628 1.341-.078 1.504-.745.162-1.49.284-2.236.447l-8.237 1.585c-.666.162-.666.325-.51.569 2.393 3.576 4.472 6.664 6.55 9.793.158.203.314.407.393.65.196.488-.118.935-.628.854-.235-.04-.47-.122-.706-.203a767.546 767.546 0 0 0-5.216-1.707 3.758 3.758 0 0 0-.628-.203c-.196.487-.118.65-.078.853 1.412 4.348 2 8.86 1.843 13.451-.157 3.86-.98 7.6-2.314 11.175-1.883 5.161-4.197 10.079-6.629 14.955-6.628 13.207-14.042 25.968-21.415 38.728-3.217 5.567-6.472 11.134-9.61 16.742-.392.65-.628 1.341-.55 2.114.08.65-.195 1.381.118 1.91.314.528 1.06.65 1.609.934 5.216 2.723 11.394 5.446 16.61 8.168 3.374 1.748 7.217 1.22 10.002-1.34.942-.895 1.648-1.951 2.197-3.13 1.922-4.185 3.804-8.412 5.726-12.597 4.432-9.794 7.904-19.547 12.297-29.381.784-1.748 1.333-3.658 1.922-5.486.235-.732.823-1.463.588-2.195-.196-.65-.863-1.178-1.334-1.747-.98-1.179-2-2.317-2.98-3.536-2.08-2.56-1.02-6.38 2.04-7.315 1.725-.528 3.294-.203 4.549 1.22.51.528.941 1.137 1.451 1.666.47.528.47.528.824-.04.941-1.626 1.883-3.211 2.824-4.837.863-1.463 1.726-2.966 2.589-4.43.706-1.178 1.647-2.031 2.98-2.316 1.687-.406 3.138.082 4.276 1.382 1.137 1.26 1.373 2.804.902 4.47a6.517 6.517 0 0 1-.628 1.422c-.823 1.342-1.608 2.723-2.431 4.064-.118.203-.432.488-.275.65 2.157-1.503 3.726-2.763 5.295-3.982 1.295-1.016 2.589-2.073 3.883-3.048 2.589-1.91 6.08-.569 6.864 2.6.393 1.667.04 3.17-1.176 4.39a7.631 7.631 0 0 1-1.412 1.138c.274.243.549.04.823-.082.98-.406 1.961-.853 2.981-1.219 1.726-.61 3.687 0 4.825 1.463 1.176 1.504 1.372 3.576.431 5.202-.51.894-1.216 1.544-2.157 1.95-1.53.65-3.02 1.26-4.51 1.91-.236.082-.471.204-.707.285.98.487 1.726.894 2.393 1.544a4.844 4.844 0 0 1 1.098 5.12c-.667 1.748-2.196 2.845-4.118 2.804-3.53-.08-7.1-.203-10.63-.325-1.726-.081-1.647-.081-2.706 1.382-2.236 3.21-2.687 6.868-4.335 10.403-2.196 4.795-4.353 9.59-6.51 14.386-.354.772-10.198 22.27-10.277 22.391z" fill="#151D38"></path><path d="M360.298 711.198c2 0 3.844-.122 5.648-.366 6.982-.813 13.414-3.129 19.376-6.949.393-.244.667-.569.902-.975 3.413-6.137 6.943-12.192 10.473-18.287 6.315-10.891 12.59-21.782 18.395-32.998 3.1-5.933 6.002-11.988 8.473-18.246 3.373-8.534 3.53-17.109.627-25.764-.235-.772-.667-1.138-1.373-1.382a32939.66 32939.66 0 0 1-59.54-19.303c-1.804-.569-3.57-1.178-5.374-1.747-.862-.285-.706-.325-1.02.569-.078.162-.117.365-.195.569-1.295 3.535-3.178 6.624-5.766 9.265-4.001 4.145-8.825 6.786-14.199 8.453-.196.08-.431.121-.627.203-.236.081-.197.203 0 .284.313.203.666.366.98.61.314.203.353.528.157.853-.157.325-.47.325-.745.203a4.24 4.24 0 0 1-.589-.325c-6.903-3.982-15.453.854-15.885 9.022-.353 6.746 5.138 12.557 12.277 11.582 1.569-.204 1.569-.244 1.608 1.381.078 3.454.118 6.868.196 10.322.118 4.51.235 9.022.314 13.532.078 3.333.157 6.706.196 10.038.078 4.714.196 9.428.275 14.142l.117 6.908c.079 4.186.196 8.371.314 12.557.078 2.48.157 4.917.157 7.396 0 .732.235 1.097.824 1.463 7.452 4.673 15.532 6.909 24.004 6.99z" fill="#FAE0D6"></path><path d="M386.373 730.178V706.2c0-1.381 0-1.219-1.02-.61-10.001 5.893-20.71 7.844-32.005 6.015-5.923-.934-11.453-3.048-16.63-6.217-.825-.529-.785-.65-1.138.487-5.256 15.686-10.551 31.413-15.807 47.1a14.381 14.381 0 0 0-.706 6.054c.627 7.6 6.825 13.492 14.199 13.492 9.295 0 18.591-.04 27.848.04 2.902.041 6.236-2.072 6.55-6.176 0-.244-.04-.488.118-.65.392-.407.314-.895.314-1.382v-7.152c0-.691-.04-.691-.706-.691h-25.064c-1.059-.04-1.961-.407-2.706-1.179-1.452-1.422-1.687-3.129-1.099-4.998 1.726-5.446 3.491-10.891 5.256-16.377.079-.203.118-.447.236-.65.157-.285.431-.366.745-.244a.476.476 0 0 1 .314.61 8.517 8.517 0 0 1-.275.934L339.62 750.7c-.785 2.478.627 4.55 3.138 4.592h42.556c.981 0 1.06.203 1.02-1.057v-.488c.04-7.843.04-15.686.04-23.57zm1.627-12.52v8.086c0 .61.157.976.706 1.3 3.256 1.667 6.472 3.414 9.767 5.08a22.902 22.902 0 0 0 9.02 2.48c7.179.446 13.493-1.789 18.906-6.665 2.981-2.682 5.1-5.974 6.668-9.672.235-.528 8.59-18.856 8.904-19.587a667.425 667.425 0 0 1 4.197-9.347l1.882-4.145c.157-.325.157-.528-.196-.69-.157-.041-.274-.163-.431-.204-2.903-1.422-5.766-2.845-8.669-4.226l-4-1.95c-.392-.204-.628-.163-.785.284l-.588 1.34a22927.595 22927.595 0 0 0-14.905 32.876c-.863 1.91-2.157 3.455-3.922 4.511-3.216 1.91-6.55 2.073-9.884.325a2931.594 2931.594 0 0 1-15.768-8.25c-.196-.121-.392-.202-.588-.324-.196-.081-.314 0-.314.203v8.575z" fill="#EBBE62"></path><path d="M283.572 728.059v-.04h-4.512c-2.589 0-5.217-.042-7.805 0-1.962.04-3.217 1.34-3.256 3.372 0 .935.04 1.87.04 2.845.078 5.404.156 10.85.274 16.255 0 1.097.078 2.194.117 3.291 0 .488.197.65.628.61h.47c9.218 0 18.435.04 27.653.04.235 0 .431-.04.667 0 .47.041.666-.121.666-.65 0-.894.04-1.747.04-2.641.039-1.22.039-2.48.078-3.698.04-.691.432-.935 1.02-.61.157.082.314.203.47.325 3.374 2.073 7.767.732 9.571-2.885 1.804-3.617.196-8.168-3.412-9.712-2.158-.935-4.236-.732-6.237.447-.784.447-1.098.284-1.137-.65 0-.935-.04-1.87.039-2.845.157-1.788-1.373-3.536-3.373-3.495-3.962.081-7.963.04-12.002.04z" fill="#FFF"></path><path d="M466.563 671.743v.04h1.138c1.843-.04 3.255-1.463 3.295-3.291.039-1.788-1.334-3.373-3.099-3.536a25.655 25.655 0 0 1-1.765-.162c-.51-.04-.98 0-1.451.244-1.49.65-2.942 1.26-4.433 1.869-.235.081-.47.203-.706.244-.274.04-.51-.041-.627-.325-.118-.326-.04-.57.274-.732.197-.122.393-.203.589-.284a1716.17 1716.17 0 0 0 12.786-5.405 9.241 9.241 0 0 0 1.099-.528 3.266 3.266 0 0 0 1.451-3.495c-.47-2.195-2.55-3.333-4.59-2.52-2.47 1.016-4.941 2.073-7.412 3.089a4.16 4.16 0 0 0-1.06.65c-1.607 1.3-3.216 2.56-4.863 3.86-.314.244-.667.326-.902 0-.275-.325-.118-.65.196-.934.118-.082.235-.203.353-.285 2.157-1.706 4.275-3.413 6.433-5.08 1.294-1.015 2.628-2.031 3.844-3.128 1.372-1.22 1.45-3.17.313-4.633-1.098-1.382-2.941-1.666-4.393-.65-.235.162-.47.325-.666.528-3.687 2.885-7.335 5.77-10.983 8.696-.353.285-.745.65-1.177.285-.47-.407-.039-.854.157-1.22 1.06-1.787 2.118-3.535 3.138-5.323a38.143 38.143 0 0 0 1.57-2.763c.823-1.666.313-3.454-1.138-4.43-1.452-.934-3.256-.61-4.354.894-.392.529-.706 1.057-1.06 1.626a1809.05 1809.05 0 0 0-5.294 9.103c-.51.853-.745.853-1.412.122-.706-.813-1.412-1.667-2.118-2.48-.942-1.056-2.118-1.34-3.413-.893-2.235.772-3.02 3.494-1.49 5.364 1.333 1.666 2.745 3.291 4.157 4.917.628.69.667 1.26.393 2.113-.706 1.829-1.295 3.739-1.922 5.608-.275.813-.275.813.431 1.179 1.255.61 2.55 1.219 3.844 1.869 2.942 1.422 5.883 2.885 8.825 4.307.824.407.824.407 1.373-.447.745-1.178 1.53-2.316 2.196-3.494.393-.65.824-.854 1.53-.813 1.334.081 2.707.122 4.04.162 2.354-.04 4.628 0 6.903.082zM384.04 756h-7.334c-.706 0-.706 0-.706.772v14.426c0 .773 0 .773.706.773h12.708c.628 0 .589 0 .51-.691-.04-.325-.04-.65-.04-.976v-8.168c0-.365.236-.569.51-.569.354 0 .59.204.628.61v.772c0 2.52-.039 4.998 0 7.518.04 1.87 1.49 3.251 3.256 3.13 1.569-.123 2.745-1.464 2.745-3.252v-7.884c0-3.698-2.627-6.38-6.197-6.38-2.275-.081-4.55-.081-6.785-.081z" fill="#FAE0D6"></path><path d="M283.944 763.04V763h-14.199c-.706 0-.745.04-.745.772l.118 5.567a3.53 3.53 0 0 0 3.569 3.536c7.452-.081 14.905-.081 22.396 0 1.726 0 3.57-1.341 3.57-3.657 0-1.83.078-3.617.117-5.446 0-.61-.039-.65-.627-.69h-.667c-4.51-.041-9.021-.041-13.532-.041z" fill="#FFF"></path><path d="M406.345 766.147v3.333c0 .487 0 .975.039 1.463.157 1.219.863 2.072 2 2.478 1.098.407 2.118.122 2.981-.65.667-.61.98-1.422.98-2.357v-8.371c0-.203-.039-.406-.078-.569-.392-3.78-4.197-6.34-7.688-5.202-.706.244-.745.285-.235.854 1.334 1.463 1.961 3.21 1.961 5.242.04 1.26.04 2.52.04 3.78zm-8.072-.095v4.266c.04 1.87 1.334 3.252 3.06 3.252 1.686 0 2.941-1.382 2.98-3.21.04-1.301 0-2.601 0-3.902 0-1.544.04-3.129-.039-4.673-.235-3.901-4.08-6.665-7.688-5.527-.706.244-.745.325-.274.854 1.333 1.503 2 3.25 1.961 5.323v3.617z" fill="#FAE0D6"></path><path d="M450.558 677.916c0-.325-.235-.366-.431-.447-1.02-.488-2.04-.975-3.06-1.504l-9.766-4.754c-.706-.325-.706-.325-1.02.365a254.393 254.393 0 0 1-2.157 4.755c-.196.406-.196.69.274.894.706.285 1.373.65 2.04.975 3.608 1.788 7.256 3.536 10.865 5.324.588.284.588.284.902-.325.745-1.626 1.451-3.21 2.196-4.836.04-.163.118-.325.157-.447zM370 763.928v7.315c0 .731.04.731.667.731h4.432c.628 0 .667-.04.667-.731V757.02c0-1.138.078-1.016-1.02-1.016h-3.844c-.863 0-.863 0-.863.934-.039 2.317-.039 4.674-.039 6.99z" fill="#151D38"></path><path d="M284.166 757h-13.61c-1.648 0-1.648 0-1.49 1.707v.203c0 .284.156.406.43.366h.471c4.393 0 8.786.04 13.18.04h14.316c1.647 0 1.686-.04 1.53-1.706-.04-.366-.118-.529-.51-.529h-.471c-4.668-.04-9.335.082-13.846-.081z" fill="#E5384A"></path><path d="M368.253 771.23v-.975c0-.082 0-.204-.118-.244-.117-.04-.156.04-.196.122-.392.61-.823 1.138-1.294 1.666-.235.244-.745.325-.628.731.079.204.589.082.903.082 1.372 0 1.372 0 1.333-1.382z" fill="#FFF"></path><path d="M297.767 686.375c0-2.032-.393-4.43-1.216-6.787-.863-2.438-2.118-4.714-3.374-6.949-1.059-1.869-2.118-3.738-3.02-5.73-1.686-3.698-2-7.599-1.49-11.622.353-2.763 1.02-5.405 2.275-7.884.51-.975 1.059-1.91 1.726-2.763.156-.163.274-.325.47-.488.236-.203.51-.203.745 0 .236.244.236.529.079.813-.04.081-.118.163-.196.244-2 2.438-3.06 5.283-3.648 8.33-.431 2.276-.628 4.552-.47 6.868.156 2.276.823 4.39 1.764 6.421.942 2.032 2.08 3.942 3.177 5.852 1.334 2.357 2.59 4.755 3.374 7.396 1.53 5.08 1.176 10.078-.824 14.955-.902 2.235-2.079 4.388-3.256 6.502-.94 1.706-1.882 3.373-2.667 5.16-1.137 2.52-1.922 5.162-2 7.966-.04.772-.196 1.015-.628.975-.431-.04-.588-.325-.588-1.057.118-3.129.98-6.055 2.314-8.859 1.06-2.235 2.275-4.348 3.452-6.502 1.49-2.722 2.824-5.526 3.49-8.615.314-1.219.432-2.479.51-4.226zm-13.177.433c.039 4.145-1.217 7.924-3.06 11.5-1.334 2.56-2.746 5.12-4.08 7.681-.391.732-.705 1.544-1.058 2.276-.157.325-.432.487-.785.325-.353-.163-.431-.447-.314-.813.04-.162.118-.325.157-.447.353-.772.667-1.544 1.06-2.276 1.255-2.357 2.549-4.714 3.765-7.07 1.333-2.52 2.392-5.162 2.824-8.006.627-4.023.04-7.884-1.57-11.582-.94-2.194-2.156-4.267-3.333-6.34-1.098-1.91-2.118-3.82-2.942-5.892-1.137-2.926-1.412-5.973-1.176-9.103.156-2.031.51-4.063 1.098-6.014.078-.284.196-.569.314-.813.117-.203.353-.284.588-.203a.561.561 0 0 1 .431.57c0 .202-.078.446-.156.65-.903 2.925-1.256 5.973-1.177 9.02.078 2.236.667 4.349 1.569 6.38.784 1.83 1.804 3.577 2.785 5.324 1.333 2.357 2.667 4.714 3.608 7.275.98 2.438 1.49 4.957 1.451 7.558z" fill="#151D38"></path><path d="M291.443 687.837c0 3.942-1.137 7.64-2.942 11.175-1.059 2.113-2.235 4.145-3.334 6.218-.078.122-.156.284-.235.406-.196.284-.47.325-.745.163-.314-.163-.353-.447-.235-.773.117-.284.274-.569.431-.853 1.177-2.113 2.393-4.186 3.412-6.38 1.02-2.154 1.844-4.389 2.236-6.787.588-3.576.196-7.03-1.059-10.403-.824-2.194-1.922-4.226-3.06-6.258-1.098-1.95-2.235-3.86-3.137-5.892-1.02-2.317-1.687-4.755-1.765-7.315 0-.244-.04-.447.039-.691.04-.284.275-.447.55-.447.274 0 .47.122.548.447.04.163.079.325.079.488.039 3.21 1.098 6.095 2.55 8.859 1.254 2.316 2.588 4.592 3.804 6.949 1.294 2.479 2.275 5.08 2.667 7.843.118 1.016.235 2.072.196 3.25zm-13.03-.77c0 3.982-.98 7.396-2.51 10.606-.51 1.057-1.06 2.072-1.57 3.088a3.402 3.402 0 0 1-.313.488c-.196.244-.431.285-.667.163-.274-.163-.431-.407-.313-.732.117-.284.274-.569.431-.853 1.098-2.073 2.157-4.186 2.824-6.462 1.294-4.226 1.216-8.452-.235-12.638-.079-.244-.196-.488-.275-.731-.118-.366-.118-.732.275-.935.353-.163.666 0 .863.488.353.853.627 1.788.823 2.682.471 1.747.628 3.454.667 4.836zM398.62 625.98c-2.039 0-3.843-.204-5.608-.692-.392-.122-.667-.203-.902.325-1.412 3.251-4 4.633-7.335 4.552-3.687-.081-6.864-2.56-7.844-6.014a6.882 6.882 0 0 1-.197-2.967c.118-.69.079-.732-.588-.935-4.314-1.422-7.766-4.185-10.786-7.558-.118-.122-.236-.244-.275-.366-.235-.488.04-.935.55-.894.117 0 .235.04.352.081 3.687 1.097 7.374 1.016 11.061.163.98-.203 1.961-.366 2.942-.57 2.667-.446 4.707.53 6.276 2.805.549.813.549.813 1.45.447 2.393-1.057 4.59-.732 6.59.975 1.06.935 2.04 1.95 3.02 2.926 2.471 2.398 5.296 4.226 8.59 5.283.392.122.863.162.863.731 0 .57-.51.61-.902.691-2.393.61-4.903.976-7.256 1.016z" fill="#151D38"></path><path d="M385.379 628.695c.117 0 .431-.04.745-.04s.47-.163.392-.489c-.274-1.34-.784-2.52-1.843-3.413-.236-.163-.47-.488-.745-.366s0 .447-.04.691c-.039.325-.157.569-.47.61-.314.04-.55-.082-.628-.447-.078-.244-.118-.488-.196-.773-.235-.894-.55-1.706-1.177-2.397-.745-.854-1.686-1.22-2.785-1.016-.47.081-.666.325-.627.772.04.569.078 1.097.235 1.626.824 3.088 3.687 5.242 7.139 5.242z" fill="#E5384A"></path><path d="M391.525 625.068c0-.325-.275-.365-.432-.447-1.137-.528-2.196-1.26-3.138-2.113-.666-.61-1.255-1.34-1.804-2.113-.157-.203-.235-.488-.588-.366a13.598 13.598 0 0 1-3.334.935c-.236.04-.314.203-.118.406.47.488.863 1.016 1.177 1.626.157.284.392.366.667.447 1.608.488 2.667 1.625 3.334 3.17.235.528.392 1.097.51 1.666.078.366.235.406.51.244 1.372-.65 2.431-1.667 3.059-3.13.078-.08.117-.203.157-.325z" fill="#FFF"></path><path d="M361.179 612.787c0 3.82-2.981 6.908-6.629 6.868-3.648-.041-6.55-3.089-6.55-6.828 0-3.454 2.51-6.867 6.629-6.827 4.393 0 6.59 3.739 6.55 6.787zm60 17.122c0 3.78-2.942 6.786-6.59 6.786-3.687 0-6.589-3.088-6.589-6.908 0-3.78 2.98-6.827 6.59-6.787 3.726.041 6.628 3.048 6.589 6.909z" fill="#E5384A"></path><path d="M367.433 603.332c0 1.829-1.452 3.373-3.217 3.373-1.765 0-3.216-1.463-3.216-3.332 0-1.87 1.373-3.332 3.177-3.373 1.804 0 3.216 1.463 3.256 3.332zM409 617.292c.04-1.869 1.491-3.332 3.256-3.291 1.805.04 3.177 1.544 3.138 3.413-.04 1.83-1.53 3.333-3.295 3.292-1.765-.04-3.137-1.544-3.098-3.414zm-77.454-7.039c-3.02-.122-5.413 2.275-5.334 5.323.039 2.967 2.51 5.283 5.412 5.08.275 0 .55-.082.824-.082.314 0 .55.082.628.447.039.407-.118.65-.471.732-.47.081-.941.162-1.412.162-3.06-.04-5.687-2.397-6.119-5.404-.47-3.333 1.334-6.3 4.393-7.234.824-.244 1.648-.366 2.51-.203.393.081.746.163.785.65 0 .407-.314.57-.902.57-.157 0-.275-.041-.314-.041zM389.697 605c.274 0 .47.163.627.366 1.02 1.016 2.04 2.032 3.02 3.048.628.65.51 1.056-.274 1.34-1.334.488-2.667.895-4 1.342-.08.04-.197.04-.275.08-.353.123-.628.042-.745-.324-.157-.407.078-.691.431-.813a67.85 67.85 0 0 1 2.667-.894c.902-.325.902-.325.196-1.016-.588-.569-1.176-1.178-1.765-1.747-.157-.163-.314-.325-.431-.529-.157-.447.117-.853.549-.853zm31.134 11.1c-.039.326-.117.854-.235 1.342-.157.61-.392.813-.784.731-.393-.08-.51-.365-.353-1.016.117-.487.196-1.016.156-1.544-.156-1.95-1.059-3.332-2.745-4.226-.196-.122-.432-.163-.589-.285-.235-.162-.353-.406-.235-.65.118-.284.314-.487.667-.447.196.04.353.122.55.203 2.117.976 3.608 3.292 3.568 5.893zm-57.648-19.87c-2.314-.122-4.236 1.22-4.942 3.455-.236.772-.47.975-.863.853-.392-.122-.47-.488-.275-1.179.785-2.682 3.256-4.713 6.55-4.307.157 0 .314.081.432.122.235.122.353.366.314.65-.04.325-.275.447-.51.447-.235.04-.51-.04-.706-.04zm-55.279 145.363c0 2.641-1.922 4.592-4.472 4.592-2.51 0-4.432-2.032-4.432-4.633 0-2.56 1.922-4.551 4.432-4.551 2.55-.041 4.472 1.95 4.472 4.592zm-4.433-3.414c-1.804 0-3.294 1.544-3.294 3.414 0 1.869 1.49 3.413 3.294 3.413 1.765 0 3.217-1.503 3.256-3.332.04-1.95-1.412-3.495-3.256-3.495zm145.373-59.106c-.04 1.097-.902 1.95-1.961 1.91-1.02-.041-1.883-.976-1.883-2.032.04-1.057.941-1.951 1.961-1.951 1.098.081 1.922.975 1.883 2.073zm-1.177-.041a.716.716 0 0 0-.706-.732.673.673 0 0 0-.667.691c-.039.407.275.732.667.772a.716.716 0 0 0 .706-.731z" fill="#151D38"></path><path d="M371.001 768.952c0-1.097.863-1.991 1.922-1.95 1.06 0 1.883.934 1.883 2.031-.04 1.097-.863 1.91-1.961 1.87-1.06-.082-1.883-.894-1.844-1.951zm2.59 0a.716.716 0 0 0-.707-.732c-.392 0-.628.244-.667.65-.039.407.275.773.667.773.353.04.706-.285.706-.691z" fill="#EBBE62"></path></g><g transform="translate(308 90)"><circle fill="#D1F2A5" cx="84.5" cy="135.5" r="75.5"></circle><text font-size="30" font-weight="bold" fill="#4A4A4A" class="sans-serif"><tspan x=".315" y="27">ClusterRole</tspan></text><text font-size="26" font-weight="bold" fill="#4A4A4A" class="sans-serif"><tspan x="19.606" y="143">read+write</tspan></text></g><g transform="translate(556 90)"><circle fill="#FFC48C" cx="75.5" cy="135.5" r="75.5"></circle><text font-size="30" font-weight="bold" fill="#4A4A4A" class="sans-serif"><tspan x="42.995" y="27">Role</tspan></text><text font-size="26" font-weight="bold" fill="#4A4A4A" class="sans-serif"><tspan x="18.205" y="134">read only</tspan> <tspan x="49.27" y="164">DEV</tspan></text></g><g transform="translate(744 90)"><circle fill="#FFC48C" cx="75.5" cy="135.5" r="75.5"></circle><text font-size="30" font-weight="bold" fill="#4A4A4A" class="sans-serif"><tspan x="42.995" y="27">Role</tspan></text><text font-size="26" font-weight="bold" fill="#4A4A4A" class="sans-serif"><tspan x="10.606" y="134">read+write</tspan> <tspan x="49.27" y="164">DEV</tspan></text></g><g transform="translate(932 90)"><circle fill="#FFC48C" cx="75.5" cy="135.5" r="75.5"></circle><text font-size="30" font-weight="bold" fill="#4A4A4A" class="sans-serif"><tspan x="42.995" y="27">Role</tspan></text><text font-size="26" font-weight="bold" fill="#4A4A4A" class="sans-serif"><tspan x="10.606" y="134">read+write</tspan> <tspan x="56.5" y="164">QA</tspan></text></g><g fill-rule="nonzero"><path d="M673 776l.038-70.382a2.799 2.799 0 0 1 2.799-2.798l54.217-.001c1.119-.44.72-.72.56-1-3.48-5.759-5.758-11.957-6.638-18.675-1.959-15.396 2.4-28.793 12.874-40.27.6-.64 1.2-1.24 1.84-1.84.52-.52.52-.52.04-1-1.64-1.559-3.119-3.278-4.358-5.198-2.8-4.439-4.358-9.277-4.478-14.556-.04-1.32.24-1.48 1.439-.88 1.28.64 2.599 1.2 3.998 1.64.16-2.32-.12-4.24-.16-6.199 0-.72-.04-1.4 0-2.12 0-.999.36-1.239 1.24-.719 1.399.8 2.798 1.52 4.278 2.12.88.36.88.36.8-.6-.24-2.52-.28-5.039 0-7.558.24-.96.679-1.12.999-.84.24.2.4.48.6.72 3.078 3.839 6.517 7.278 10.635 10.037 3.598 2.4 7.476 3.72 11.794 3.76 3.239.04 6.357-.64 9.356-1.8 2.799-1.08 5.597-2.2 8.516-2.84 2.958-.64 5.957-.92 8.916-.2 5.037 1.24 8.436 4.48 10.555 9.118.8 1.76 1.24 3.6 1.52 5.519.12.72.12.72.879.68 4.398-.32 8.636.36 12.474 2.639 4.598 2.759 7.157 6.918 8.156 12.077.72 3.799.52 7.558-.08 11.357-.48 2.959-1.28 5.878-2.239 8.717-.24.72-.4.68.48 1 4.478 1.52 7.277 4.6 8.076 9.238 1.12 6.358-2.958 11.997-8.876 13.396-1.08.24-2.199.4-3.318.28-.48-.08-.64.16-.76.6-.84 3.04-1.999 5.999-3.398 8.838-2.879 5.718-6.717 10.637-11.515 14.836-1.08.76-1.16 1.2-.92 1.8.56 1.56 1.04 3.159 1.56 4.718 3.238 10.078 6.517 20.115 9.715 30.193.24.72.56 1 1.28 1.12 3.158.68 5.157 2.639 5.997 5.758.16.68.28 1.4.4 2.08.76-.44 1.08-.88 1.56-1.28 1.358-1.12 2.878-1.36 4.517-.8 1.68.6 2.679 1.84 2.919 3.599.08.6.24.76.84.84 2.798.44 4.437 3.199 3.518 5.918-.24.68-.16 1.16.32 1.72 1.239 1.48 1.959 3.199 2.198 5.119.12.84 0 .84.92.84h16.512c0-1.68-.52-3-.8-4.44-1.878.12-3.158.44-4.397.84-.72.24-1.08.08-1.2-.32-.12-.36.16-.64.84-.84 1.16-.36 2.319-.68 3.478-1.04 1.16-.36.96-.08.96-1.359.04-.6-.2-.68-.52-.68H848.2c-1.04-.04-1.2-.24-1.2-.56.76-.6.96-.56 1.2-.56h5.677c.52 0 .72-.16.8-.68.2-1.359.24-1.359-1.12-1.759-1.12-.36-2.279-.68-3.398-1-.88-.36-1-.6-.92-.88.88-.4 1.12-.32 1.4-.24 1.36.4 2.678.8 4.038 1.24 1.839-2.839 3.398-4.838 5.517-6.358.4-.28.48-.6.48-1.04V742.69c.08-.56.48-.76.96-.48 3.958 3.679 7.436 6.918 10.875 10.117.92.88.64.88 1.679.12a21.562 21.562 0 0 1 24.988 0c.96.68.68.84 1.72-.12 3.518-3.24 6.996-6.438 10.515-9.677.32-.28.6-.76 1.119-.56.56.2.36.76.36 1.16v17.955c0 1.16 0 1.16 1.08.84.959-.28 1.878-.56 2.838-.84 1.36.56 1.28.84.92.96l-2.28.72-2.038.6c-.56.919-.56 1.519-.52 2.079 2.879.24 4.638.24 6.397.24 1 .12 1.2.32 1.16.6-.72.56-1 .56-1.24.56h-5.557c-.8 0-.84 0-.84.76 0 1.239-.08.959.96 1.279 1.079.36 2.198.64 3.318 1 .92.4 1.04.64.92.96-2.36-.12-3.439-.48-4.558-.8-.64 1.64-.64 2.799-.64 3.998 0 .44.12.68.6.64h17.272c.44 0 .88-.04 1.319.2v.76c-1 .24-1.28.24-1.6.24H673z" fill="#151D38"></path><path d="M719.38 769v-.08h44.573c1.046 0 1.046 0 1.046-1.035v-62.036c-.04-1.075-.643-1.712-1.728-1.831-.362-.04-.724 0-1.045 0H676.09c-1.487.04-2.09.677-2.09 2.11v61.916c0 .916 0 .916.965.916h.683c14.55.04 29.14.04 43.731.04z" fill="#CCD6DA"></path><path d="M748.226 702.81h14.533c1.514 0 2.668.883 2.947 2.247.08.36.08.682.08 1.043v16.567c0 .923.08.883.796.963 5.853.722 11.627.401 17.321-1.083 12.981-3.41 22.816-11.032 29.546-22.665 1.911-3.29 3.344-6.82 4.38-10.51.199-.722.199-.722-.478-.923l-1.075-.36c-.677-.281-.876-.522-.757-.923.12-.441.478-.482 1.195-.24 1.911.721 3.822.882 5.813.52 5.894-1.163 9.676-7.18 8.123-12.997-1.592-5.937-7.724-9.306-13.458-7.38-.28.08-.518.24-.797.28-.278.04-.478-.12-.597-.36-.12-.282-.04-.522.16-.683.159-.12.318-.2.517-.24.438-.161.836-.281 1.274-.402.08-.04.2-.08.239-.16.08-.2-.12-.16-.239-.2-.16-.08-.358-.121-.557-.201-2.987-1.043-5.854-2.367-8.482-4.132-4.778-3.129-8.481-7.22-10.87-12.476-1.115-2.487-1.872-5.094-2.31-7.822-.12-.802-.159-.802-.836-.441a5.99 5.99 0 0 0-.677.4c-3.544 2.087-7.167 3.852-10.99 5.296-8.242 3.089-16.684 4.332-25.404 2.768-6.053-1.083-11.707-3.25-16.644-7.06-.638-.482-.638-.482-1.155.04-4.46 4.292-8.004 9.226-10.552 14.842-3.942 8.785-5.137 17.931-3.663 27.439.995 6.458 3.304 12.435 6.729 17.97.398.683.836.964 1.672.964 4.699-.12 9.437-.08 14.216-.08z" fill="#FAE0D6"></path><path d="M766.046 747.011v21.716c0 .482.12.683.64.683 1.08-.04 2.16 0 3.279 0 4.039 0 8.078-.04 12.077-.04.84 0 .92.12.92.965v3.941c0 .644-.08.724.64.724h15.435c.52 0 .64-.201.68-.643.16-1.448.6-2.856 1.36-4.102.28-.443.32-.845.12-1.368-.84-2.493-1.64-5.026-2.44-7.52-1.959-6.112-3.958-12.225-5.918-18.337a3.969 3.969 0 0 1-.2-.644c-.08-.362.08-.643.44-.723.32-.08.56.08.68.361l.12.362 4.199 13.03c1.32 4.102 2.64 8.203 3.999 12.265.24.684.24.724.76.241 1.44-1.407 3.119-2.332 5.078-2.774.6-.161.64-.161.48-.765-.32-1.327-.68-2.694-.96-4.02-.92-4.022 1.52-8.164 5.479-9.21.24-.08.52-.08.76-.16.28-.041.4-.202.28-.483-.04-.161-.08-.322-.16-.443-3.12-9.732-6.279-19.504-9.398-29.235-.56-1.81-1.16-3.62-1.76-5.43-.12-.401-.32-.562-.64-.2-.12.12-.24.2-.4.281-2.638 1.97-5.478 3.7-8.477 5.067-5.839 2.694-11.997 4.223-18.435 4.464-2.72.12-5.439.08-8.118-.322-.44-.08-.6.08-.56.483v.764c.04 7.037.04 14.075.04 21.072z" fill="#FFF3A2"></path><path d="M893.629 774.92h17.513c.838 0 .838 0 .838-.85v-29.592c0-.162.08-.364-.08-.445-.24-.121-.319.121-.478.243-2.155 2.021-4.309 4.002-6.503 6.023-1.317 1.213-2.633 2.466-3.95 3.68-.558.525-.638.484-1.236.08-.2-.121-.36-.283-.52-.404-3.15-2.386-6.661-3.8-10.571-4.083-5.226-.405-9.974 1.05-14.162 4.285-.918.727-.918.727-1.756-.04a.552.552 0 0 0-.16-.122 2090.163 2090.163 0 0 0-9.534-8.975c-.24-.242-.479-.687-.798-.566-.24.122-.12.566-.12.89v10.47c0 .485-.04.89-.558 1.213-5.745 3.921-7.101 11.562-3.75 17.464.319.566.678.809 1.356.809 4.229-.04 8.498 0 12.726-.04.28 0 .679.12.798-.122.12-.242-.279-.444-.478-.647-2.075-2.263-2.713-4.891-1.836-7.802.878-2.91 2.913-4.649 5.785-5.336.599-.162 1.197-.243 1.795-.162.32.04.519.243.519.606 0 .283-.16.486-.479.526-.359.04-.678.08-1.037.121-2.753.364-5.106 2.466-5.665 5.175a6.704 6.704 0 0 0 2.992 7.115 3.714 3.714 0 0 0 1.995.566c5.904-.121 11.649-.08 17.354-.08z" fill="#C27659"></path><path d="M719.453 770.042c-8.157.036-16.314.036-24.472.036h-20.413c-.402 0-.603.142-.563.499v2.14c0 1.283 0 1.283 1.447 1.283 11.452 0 22.945 0 34.397-.036 17.882 0 35.724-.035 53.606-.035h.764c.562-.036.763-.214.763-.713.04-.928 0-1.819 0-2.746 0-.392-.2-.5-.603-.464h-.683c-4.26 0-8.479.036-12.738.036h-31.505zm99.508 4.918h17.559c.355.04.514-.082.474-.488-.198-1.707-.79-3.252-1.819-4.634-.158-.243-.316-.203-.395.082-.04.122-.08.244-.159.365-1.305 2.805-4.547 3.577-6.92 1.626-.435-.366-.712-.447-1.226-.203-1.463.61-2.847.406-4.152-.488-1.385-.975-2.017-2.357-1.899-4.105.04-.61 0-.65-.514-.487-1.226.325-2.372.203-3.48-.447-.277-.163-.514-.163-.83-.163-1.82 0-3.678-.04-5.497 0-4.192.081-7.79 3.048-8.858 7.234a7.954 7.954 0 0 0-.238 1.342c-.04.284.08.406.356.406h.752c5.655-.04 11.27-.04 16.846-.04z" fill="#CCD6DA"></path><path d="M812.007 764.287h2.188c.289 0 .454-.077.33-.386-.826-2.127-.95-4.408-1.445-6.612-.124-.502.083-.812.454-.889.372-.077.62.155.743.657.124.503.207 1.044.29 1.547.247 1.314.453 2.629.742 3.905.413 1.74 2.106 2.745 3.964 2.435 1.816-.348 2.972-1.894 2.683-3.634-.248-1.508-.496-2.977-.867-4.446-.784-3.286-4.293-5.374-7.802-4.756-3.344.58-5.78 3.867-5.202 7.076.29 1.546.784 3.054 1.156 4.6.083.349.289.503.702.503h2.064zm9.993 3.36c.082 1.124.45 2.007 1.348 2.649 1.88 1.364 4.413.682 5.23-1.485a301.196 301.196 0 0 0 2.248-6.46c.082-.24.122-.482.163-.763.123-1.564-.817-2.969-2.37-3.45-1.511-.442-3.187.2-3.922 1.605-.49.963-.9 2.006-1.063 3.09a6.408 6.408 0 0 1-.776 2.246c-.49.843-.776 1.726-.858 2.568z" fill="#FAE0D6"></path><path d="M773.838 774v-.036h7.472c.406-.036.69-.18.69-.577v-3.027c0-.252-.162-.36-.447-.36h-9.908c-1.665 0-3.33.036-4.955.036-.487 0-.69.144-.69.577.04.9 0 1.801 0 2.666 0 .685 0 .721.812.721h7.026z" fill="#CCD6DA"></path><path d="M835 766.398c0-1.79-1.151-3.074-2.9-3.347-.767-.116-.852-.077-1.108.584-.469 1.245-.895 2.49-1.364 3.697-.426 1.09-.64 2.295-1.492 3.23-.299.31-.043.505.17.7 1.791 1.362 4.52.778 5.458-1.245.426-.934.767-1.907 1.108-2.88.128-.311.128-.623.128-.74z" fill="#FAE0D6"></path><path d="M730.982 737.205c-.317 4.863-3.328 8.491-7.766 9.528-5.707 1.355-11.334-2.592-12.126-8.452-.674-4.943 2.496-9.967 7.648-11.163 1.11-.239 1.189-.199 1.347.917.674 3.788 3.21 6.578 6.895 7.415.872.2 1.744.24 2.655.16 1.189-.12 1.308 0 1.347 1.196.04.2 0 .399 0 .399z" fill="#151D38"></path><path d="M721.175 746c.607-.041 1.415-.123 2.223-.328 3.597-.983 6.427-4.424 6.588-8.111.04-.82.04-.82-.727-.82-4.81.082-9.013-3.195-10.104-7.947-.243-1.065-.364-.82-1.01-.614-4.164 1.392-6.75 5.735-6.023 10.2.687 4.342 4.527 7.66 9.053 7.62z" fill="#FFF"></path><path d="M764.814 666.365h13.172c2.018 0 4.035.08 6.053.121.949.04 1.186.365.751 1.175-2.967 5.632-7.318 9.562-13.528 10.9-6.25 1.336-11.749-.406-16.456-4.822-1.86-1.742-3.284-3.85-4.43-6.159-.12-.243-.238-.446-.317-.689-.158-.486 0-.729.514-.85.198-.041.396-.041.554-.041l11.67.122c.672 0 1.305.08 1.977.08.04.082.04.122.04.163z" fill="#151D38"></path><path d="M768.073 667.154h-3.574c-1.486 0-2.932 0-4.418-.077-2.53-.077-5.06-.077-7.59-.077-.562 0-.602.039-.32.502a18.183 18.183 0 0 0 3.855 4.824c4.417 3.86 9.557 5.442 15.42 4.322 5.381-1.042 9.317-4.052 12.208-8.452.522-.81.522-.849-.482-.849-5.02-.077-10.08-.154-15.1-.193z" fill="#FFF"></path><path d="M730 672.5c0-3.27 2.452-6.46 6.539-6.5 3.58-.039 6.461 2.92 6.461 6.5 0 3.62-2.88 6.5-6.5 6.5-3.58-.039-6.5-2.92-6.5-6.5zm76.99 1.02c.156 3.123-2.535 6.441-6.475 6.48-3.59 0-6.476-2.889-6.515-6.48 0-3.67 2.848-6.519 6.515-6.519 3.862-.078 6.67 3.24 6.475 6.52z" fill="#E5384A"></path><path d="M745.478 658c1.975 0 3.564 1.546 3.521 3.521.001 1.933-1.546 3.479-3.435 3.479-1.975 0-3.564-1.546-3.564-3.521 0-1.89 1.546-3.436 3.478-3.479zm45.044 1c1.975 0 3.478 1.546 3.478 3.564-.043 1.932-1.589 3.478-3.521 3.435-1.89 0-3.478-1.588-3.478-3.478a3.43 3.43 0 0 1 3.52-3.52zM827 677.06c-.04 4.067-4.209 6.933-8.177 5.616a1.449 1.449 0 0 1-.36-.155c-.402-.155-.562-.426-.402-.813.12-.349.481-.387.802-.31.2.039.44.155.641.194 2.766.736 5.652-.969 6.213-3.641.561-2.75-1.363-5.346-4.209-5.733-.24-.039-.52-.077-.761-.116-.28-.039-.441-.271-.441-.543 0-.348.2-.503.521-.542.2-.039.44 0 .681 0 3.167.349 5.532 2.944 5.491 6.043zm-59.002-19.375c0 .284-.223.447-.483.568a68.82 68.82 0 0 1-2.378 1.3c-.334.162-.408.324-.074.568.669.487 1.3 1.014 1.969 1.501.186.122.334.244.483.406.186.203.186.487.037.731s-.371.284-.631.203a.761.761 0 0 1-.372-.244c-1.003-.77-2.043-1.542-3.046-2.354-.706-.568-.669-.974.111-1.42 1.115-.65 2.266-1.259 3.418-1.868.557-.203 1.003 0 .966.609zM737 659.924c.114-2.898 2.01-5.3 4.703-5.837.304-.083.607-.125.91-.042.228.042.38.249.38.497.038.29-.076.538-.341.62a5.256 5.256 0 0 1-.797.166c-2.048.456-3.414 2.112-3.641 4.347-.038.249-.038.456-.038.704-.038.373-.19.621-.57.621-.378 0-.53-.29-.568-.662-.038-.125-.038-.249-.038-.414zm61-.021c0 .162 0 .447-.04.69-.077.285-.273.407-.547.407s-.47-.163-.509-.447c-.039-.203 0-.407-.039-.57-.117-2.397-1.643-4.226-3.913-4.673-.117-.04-.234-.04-.352-.081-.391-.082-.665-.285-.587-.732.079-.447.43-.528.783-.488 1.33.163 2.465.691 3.443 1.626 1.096 1.179 1.683 2.56 1.761 4.268zm88.66 112.088c-1.5-.043-2.514-.472-3.285-1.503-.324-.387-.446-.387-.77 0-1.42 1.675-3.488 1.976-5.15.816-.568-.387-1.015-.945-1.339-1.59-.162-.343-.203-.773.203-.988.405-.214.649 0 .851.387.122.258.284.515.487.773 1.338 1.504 3.69 1.031 4.42-.859.163-.43.203-.687-.324-.816-.73-.215-1.176-.816-1.663-1.375a1.489 1.489 0 0 1-.365-.816c-.121-.601.082-.988.69-.988 1.703-.043 3.447-.043 5.15 0 .568 0 .77.387.609.988-.244.988-.974 1.504-1.704 2.02-.243.17-.649.128-.73.429-.08.386.163.773.406 1.117 1.095 1.589 3.285 1.589 4.42 0 .122-.172.244-.43.365-.602.203-.3.487-.343.77-.215.285.172.366.473.244.774a4.074 4.074 0 0 1-1.095 1.546c-.73.601-1.54.945-2.19.902zm13.34-10.99c1.715 0 3 1.328 3 2.999 0 1.714-1.371 3.042-3.085 2.999-1.671-.043-2.957-1.371-2.914-3.085-.043-1.67 1.286-2.956 3-2.913zM864.979 767c-1.66 0-2.979-1.277-2.979-2.979 0-1.702 1.234-2.978 2.936-3.021 1.745 0 3.064 1.277 3.064 2.979-.043 1.702-1.32 3.021-3.021 3.021z" fill="#151D38"></path></g><path d="M363.719 531.79c27.176-57.312 42.1-98.492 44.773-123.54 2.672-25.048-4.79-53.814-22.387-86.297" stroke="#979797" stroke-width="5"></path><path stroke="#979797" stroke-width="5" d="M378.072 345.309l8.869-22.625 22.651 8.545"></path><text font-size="26" font-weight="bold" fill="#4A4A4A" class="sans-serif"><tspan x="124.165" y="451">ClusterRoleBinding</tspan></text><text font-size="26" font-weight="bold" fill="#4A4A4A" class="sans-serif"><tspan x="477.454" y="468">RoleBinding</tspan></text><path d="M414.914 540.031c-5.513-47.816 25.318-93.985 92.492-138.508 67.175-44.522 154.646-76.761 262.414-96.718" stroke="#979797" stroke-width="5"></path><path stroke="#979797" stroke-width="5" d="M742.803 294.969l27.269 10.625-22.066 16.744"></path></g></svg>