<svg viewBox="0 0 1200 900" xmlns="http://www.w3.org/2000/svg"><g fill="none" fill-rule="evenodd"><g transform="rotate(90 368.5 637.5)"><path d="M.011 1.045h209.55c5.522 0 10 4.477 10 10v119.97" stroke="#9EEBCF" stroke-width="3"></path><circle stroke="#9EEBCF" stroke-width="3" fill="#FFF" cx=".5" cy=".5" r="6"></circle><path fill="#9EEBCF" d="M219.5 134l-5.5-8h11z"></path></g><path d="M1005.204 134.126a5.511 5.511 0 0 0-2.108.536l-28.767 13.826a5.49 5.49 0 0 0-2.976 3.723l-7.097 31.056a5.477 5.477 0 0 0 1.06 4.644l19.91 24.902a5.506 5.506 0 0 0 4.302 2.065l31.93-.008a5.506 5.506 0 0 0 4.301-2.061l19.904-24.906a5.478 5.478 0 0 0 1.063-4.644l-7.108-31.056a5.49 5.49 0 0 0-2.976-3.723l-28.77-13.818a5.512 5.512 0 0 0-2.668-.536z" opacity=".1" fill="#326CE5" fill-rule="nonzero" stroke="#FFF" stroke-width=".5"></path><path d="M927.555 253l-5.565-8.688-2.082 2.082V253h-5.786v-30.75h5.786v17.037l1.12-1.442 5.546-6.506h6.947l-7.828 9.029L934.202 253h-6.647zm21.601 0l-.16-2.202q-2.142 2.602-5.926 2.602-3.483 0-5.315-2.002-1.832-2.002-1.872-5.865v-14.194h5.786v13.994q0 3.383 3.083 3.383 2.943 0 4.044-2.042v-15.335h5.806V253h-5.446zm29.329-10.95v.32q0 5.205-2.222 8.118-2.222 2.912-6.206 2.912-3.524 0-5.626-2.702l-.26 2.302h-5.205v-30.75h5.786v11.03q2.002-2.342 5.265-2.342 3.964 0 6.216 2.913 2.252 2.913 2.252 8.198zm-5.786-.1q0-3.284-1.04-4.795-1.042-1.512-3.104-1.512-2.762 0-3.803 2.262v8.549q1.06 2.282 3.843 2.282 2.803 0 3.684-2.763.42-1.321.42-4.024zm19.32 11.45q-4.765 0-7.758-2.922-2.993-2.923-2.993-7.788v-.56q0-3.264 1.26-5.836 1.262-2.573 3.574-3.964 2.313-1.392 5.276-1.392 4.444 0 6.996 2.803 2.553 2.803 2.553 7.948v2.362h-13.794q.28 2.122 1.692 3.404 1.411 1.28 3.574 1.28 3.343 0 5.225-2.422l2.842 3.184q-1.3 1.841-3.523 2.872-2.222 1.031-4.925 1.031zm-.661-17.777q-1.722 0-2.793 1.161-1.071 1.161-1.372 3.323h8.048v-.46q-.04-1.922-1.04-2.973-1.002-1.051-2.843-1.051zm24.103 2.563v4.664h-11.271v-4.664h11.271zm3.744 3.823q0-5.065 2.272-8.068 2.272-3.003 6.216-3.003 3.163 0 5.225 2.363V222.25h5.806V253h-5.225l-.28-2.302q-2.163 2.702-5.566 2.702-3.824 0-6.136-3.013-2.312-3.012-2.312-8.378zm5.785.42q0 3.044 1.061 4.665 1.061 1.622 3.083 1.622 2.683 0 3.784-2.262v-8.549q-1.081-2.262-3.744-2.262-4.184 0-4.184 6.787zm18.098-11.09h5.445l.18 2.502q2.323-2.903 6.227-2.903 3.443 0 5.125 2.022 1.681 2.022 1.721 6.046V253h-5.785v-13.854q0-1.841-.801-2.672-.801-.83-2.663-.83-2.442 0-3.663 2.081V253h-5.786v-21.661zm34.814 15.675q0-1.06-1.051-1.671t-3.373-1.092q-7.728-1.621-7.728-6.566 0-2.883 2.392-4.815 2.393-1.932 6.257-1.932 4.124 0 6.596 1.942 2.472 1.942 2.472 5.045h-5.785q0-1.24-.801-2.052-.8-.81-2.502-.81-1.462 0-2.263.66-.8.66-.8 1.682 0 .96.91 1.551.911.59 3.073 1.021 2.163.43 3.644.971 4.584 1.682 4.584 5.826 0 2.963-2.542 4.795-2.543 1.831-6.566 1.831-2.723 0-4.835-.97-2.112-.972-3.313-2.663-1.202-1.692-1.202-3.654h5.486q.08 1.542 1.14 2.363 1.062.82 2.844.82 1.661 0 2.512-.63t.851-1.652z" fill="#4A4A4A" fill-rule="nonzero"></path><g class="sans-serif"><path d="M657.513 480.05V495h-2.963v-11.423l-3.538 1.097v-2.41l6.184-2.214h.317zm14.9 6.03v2.747q0 3.097-1.282 4.737-1.282 1.641-3.753 1.641-2.44 0-3.733-1.61-1.292-1.61-1.323-4.614v-2.748q0-3.128 1.298-4.748 1.297-1.62 3.737-1.62 2.44 0 3.733 1.605 1.292 1.605 1.322 4.61zm-2.964 3.28v-3.548q0-1.855-.508-2.701-.507-.846-1.584-.846-1.046 0-1.543.805-.497.805-.528 2.517v3.63q0 1.825.497 2.712.497.887 1.595.887 1.087 0 1.568-.851.482-.851.503-2.605zm5.24 4.184q0-.708.476-1.148.477-.441 1.195-.441.728 0 1.205.44.477.441.477 1.149 0 .697-.472 1.133-.472.436-1.21.436-.728 0-1.2-.436-.471-.436-.471-1.133zm12.756-4.512q-1.16 1.138-2.708 1.138-1.979 0-3.168-1.358-1.19-1.359-1.19-3.666 0-1.466.641-2.692.641-1.225 1.79-1.907 1.148-.682 2.584-.682 1.476 0 2.625.739 1.148.738 1.784 2.122.636 1.384.646 3.169v1.097q0 3.732-1.856 5.865t-5.26 2.276l-.728.01v-2.47l.656-.01q3.866-.175 4.184-3.63zm-1.98-1.128q.718 0 1.236-.369t.785-.892v-1.22q0-1.507-.575-2.338-.574-.83-1.538-.83-.892 0-1.466.815t-.574 2.045q0 1.22.559 2.005.558.784 1.574.784zm14.643-7.987h.492v2.44h-.287q-2.01.03-3.235 1.046-1.225 1.015-1.471 2.82 1.19-1.21 3.004-1.21 1.948 0 3.097 1.394 1.148 1.395 1.148 3.671 0 1.456-.63 2.635-.631 1.18-1.785 1.836-1.153.656-2.61.656-2.358 0-3.809-1.64-1.45-1.641-1.45-4.379v-1.066q0-2.43.917-4.292.918-1.86 2.635-2.881 1.718-1.02 3.984-1.03zm-2.4 7.475q-.717 0-1.302.374-.584.374-.86.99v.902q0 1.487.584 2.322.584.836 1.64.836.954 0 1.543-.754.59-.753.59-1.953 0-1.22-.595-1.969-.594-.748-1.6-.748zm7.178 6.152q0-.708.477-1.148.477-.441 1.195-.441.728 0 1.205.44.476.441.476 1.149 0 .697-.471 1.133-.472.436-1.21.436-.728 0-1.2-.436t-.472-1.133zm15.873-7.465v2.748q0 3.097-1.281 4.737-1.282 1.641-3.753 1.641-2.44 0-3.733-1.61-1.292-1.61-1.322-4.614v-2.748q0-3.128 1.297-4.748t3.737-1.62q2.44 0 3.733 1.605 1.292 1.605 1.322 4.61zm-2.963 3.281v-3.548q0-1.855-.507-2.701-.508-.846-1.585-.846-1.046 0-1.543.805-.497.805-.528 2.517v3.63q0 1.825.497 2.712.498.887 1.595.887 1.087 0 1.569-.851t.502-2.605zm5.24 4.184q0-.708.477-1.148.476-.441 1.194-.441.728 0 1.205.44.477.441.477 1.149 0 .697-.472 1.133-.471.436-1.21.436-.728 0-1.2-.436-.471-.436-.471-1.133zm13.022-13.494V495h-2.963v-11.423l-3.538 1.097v-2.41l6.183-2.214h.318z" fill="#4D4D4F" fill-rule="nonzero"></path><path d="M636.68 484.958v9.242h-1.218v-9.242h1.218zm5.624 5.624h-2.177v3.618h-1.219v-9.242h3.41q1.516 0 2.376.774.86.775.86 2.05 0 1.346-.84 2.073-.842.727-2.41.727zm-2.177-4.621v3.624h2.19q.978 0 1.498-.46t.52-1.33q0-.825-.52-1.32-.52-.495-1.428-.514h-2.26z" fill="#8C8C90" fill-rule="nonzero"></path><path d="M795.03 488.54v-2.317h1.579q1.128 0 1.671-.564.544-.564.544-1.497 0-.903-.539-1.405-.538-.503-1.481-.503-.851 0-1.426.467-.574.466-.574 1.215h-2.963q0-1.169.63-2.097.631-.928 1.764-1.45 1.133-.524 2.497-.524 2.369 0 3.712 1.133t1.343 3.123q0 1.025-.625 1.886-.626.862-1.641 1.323 1.261.451 1.882 1.354.62.902.62 2.132 0 1.99-1.451 3.19-1.45 1.2-3.84 1.2-2.235 0-3.656-1.18-1.42-1.18-1.42-3.117h2.964q0 .84.63 1.374.63.533 1.554.533 1.056 0 1.656-.559.6-.559.6-1.482 0-2.235-2.461-2.235h-1.57zm19.082-2.46v2.747q0 3.097-1.281 4.737-1.282 1.641-3.753 1.641-2.44 0-3.733-1.61-1.292-1.61-1.323-4.614v-2.748q0-3.128 1.298-4.748 1.297-1.62 3.737-1.62 2.44 0 3.733 1.605 1.292 1.605 1.322 4.61zm-2.963 3.28v-3.548q0-1.855-.508-2.701-.507-.846-1.584-.846-1.046 0-1.543.805-.497.805-.528 2.517v3.63q0 1.825.497 2.712.497.887 1.595.887 1.087 0 1.568-.851.482-.851.503-2.605zm15.012-3.28v2.747q0 3.097-1.282 4.737-1.282 1.641-3.753 1.641-2.44 0-3.732-1.61-1.292-1.61-1.323-4.614v-2.748q0-3.128 1.297-4.748t3.737-1.62q2.44 0 3.733 1.605 1.292 1.605 1.323 4.61zm-2.964 3.28v-3.548q0-1.855-.507-2.701-.508-.846-1.585-.846-1.045 0-1.543.805-.497.805-.528 2.517v3.63q0 1.825.497 2.712.498.887 1.595.887 1.087 0 1.569-.851t.502-2.605zm15.012-3.28v2.747q0 3.097-1.282 4.737-1.281 1.641-3.753 1.641-2.44 0-3.732-1.61-1.292-1.61-1.323-4.614v-2.748q0-3.128 1.297-4.748t3.738-1.62q2.44 0 3.732 1.605 1.292 1.605 1.323 4.61zm-2.963 3.28v-3.548q0-1.855-.508-2.701-.508-.846-1.584-.846-1.046 0-1.543.805-.498.805-.528 2.517v3.63q0 1.825.497 2.712.497.887 1.594.887 1.087 0 1.57-.851.481-.851.502-2.605z" fill="#4D4D4F" fill-rule="nonzero"></path><path d="M754.369 490.582h-2.177v3.618h-1.22v-9.242h3.41q1.517 0 2.377.774.86.775.86 2.05 0 1.346-.841 2.073-.841.727-2.41.727zm-2.177-4.621v3.624h2.19q.977 0 1.497-.46.521-.46.521-1.33 0-.825-.52-1.32-.521-.495-1.429-.514h-2.26zm14.091 3.332v.584q0 1.359-.457 2.371-.457 1.013-1.295 1.546-.838.533-1.955.533-1.092 0-1.936-.536-.844-.537-1.31-1.53-.467-.994-.48-2.301v-.667q0-1.333.464-2.355.463-1.022 1.31-1.564.848-.543 1.94-.543 1.11 0 1.958.536.847.537 1.304 1.555.457 1.02.457 2.371zm-1.212.673v-.685q0-1.644-.66-2.524-.66-.879-1.847-.879-1.156 0-1.819.88-.663.879-.682 2.44v.68q0 1.593.67 2.503.669.911 1.843.911 1.18 0 1.828-.86.648-.86.667-2.466zm8.436 4.234l-2.006-3.739h-2.17v3.739h-1.226v-9.242h3.06q1.561 0 2.402.71.841.712.841 2.07 0 .863-.466 1.504-.467.642-1.298.959l2.17 3.923v.076h-1.307zm-4.177-8.24v3.505h1.873q.907 0 1.444-.47.536-.47.536-1.257 0-.857-.51-1.314-.512-.457-1.477-.463h-1.866zm12.664-1.002v1.003h-2.971v8.239h-1.212v-8.24h-2.965v-1.002h7.148z" fill="#8C8C90" fill-rule="nonzero"></path></g><g fill-rule="nonzero"><path d="M949 388v20H259v-20a5 5 0 0 1 5-5h680a5 5 0 0 1 5 5z" fill="#353535"></path><path fill="#A3A3A3" d="M266 389h4v4h-4zm6 0h4v4h-4zm6 0h4v4h-4z"></path></g><path d="M263.385 354.781V369h-2.93v-14.219h2.93zm2.47 3.653h2.657l.088 1.22q1.132-1.416 3.037-1.416 1.68 0 2.5.987.82.986.84 2.949V369h-2.823v-6.758q0-.898-.39-1.304-.391-.405-1.3-.405-1.19 0-1.786 1.016V369h-2.823v-10.566zm10.85 5.322v-.117q0-2.432 1.157-3.916 1.158-1.485 3.12-1.485 1.739 0 2.705 1.192l.118-.996h2.558v10.214q0 1.387-.63 2.413-.63 1.025-1.772 1.562-1.143.537-2.676.537-1.162 0-2.265-.464-1.104-.464-1.67-1.196l1.25-1.719q1.054 1.182 2.558 1.182 1.123 0 1.748-.6.625-.601.625-1.705v-.566q-.976 1.103-2.568 1.103-1.904 0-3.081-1.489-1.177-1.49-1.177-3.95zm2.822.088q0 1.435.577 2.25.576.816 1.582.816 1.289 0 1.845-.967V361.5q-.566-.967-1.826-.967-1.016 0-1.597.83-.58.83-.58 2.48zm14.98-5.479l-.038 2.715q-.576-.078-1.016-.078-1.601 0-2.1 1.084V369h-2.822v-10.566h2.666l.078 1.26q.85-1.456 2.354-1.456.469 0 .879.127zm5.997 10.83q-2.324 0-3.784-1.425-1.46-1.426-1.46-3.8v-.273q0-1.592.615-2.846.615-1.255 1.743-1.934 1.128-.679 2.573-.679 2.168 0 3.413 1.367 1.246 1.368 1.246 3.877v1.153h-6.729q.137 1.035.825 1.66.689.625 1.743.625 1.631 0 2.55-1.182l1.386 1.553q-.635.898-1.719 1.401t-2.402.503zm-.322-8.672q-.84 0-1.363.567-.522.566-.669 1.62h3.926v-.224q-.02-.937-.508-1.45-.488-.513-1.386-.513zm11.992 5.557q0-.517-.513-.815-.513-.298-1.645-.533-3.77-.79-3.77-3.203 0-1.406 1.167-2.348 1.167-.943 3.052-.943 2.012 0 3.218.948 1.206.947 1.206 2.46h-2.823q0-.605-.39-1-.39-.396-1.22-.396-.714 0-1.104.322-.391.323-.391.82 0 .47.444.757.445.288 1.5.498 1.054.21 1.777.474 2.236.82 2.236 2.842 0 1.445-1.24 2.339-1.24.893-3.203.893-1.329 0-2.359-.473-1.03-.474-1.616-1.3-.586-.824-.586-1.781h2.676q.039.752.556 1.152.518.4 1.387.4.81 0 1.226-.307.415-.308.415-.806zm10.283 0q0-.517-.513-.815-.512-.298-1.645-.533-3.77-.79-3.77-3.203 0-1.406 1.167-2.348 1.167-.943 3.052-.943 2.012 0 3.218.948 1.206.947 1.206 2.46h-2.822q0-.605-.391-1-.39-.396-1.22-.396-.714 0-1.104.322-.39.323-.39.82 0 .47.443.757.445.288 1.5.498 1.054.21 1.777.474 2.236.82 2.236 2.842 0 1.445-1.24 2.339-1.24.893-3.203.893-1.328 0-2.359-.473-1.03-.474-1.616-1.3-.586-.824-.586-1.781h2.676q.04.752.557 1.152.517.4 1.386.4.811 0 1.226-.307.415-.308.415-.806z" fill="#4A4A4A" fill-rule="nonzero"></path><g fill-rule="nonzero"><path d="M841 526v20H391v-20a5 5 0 0 1 5-5h440a5 5 0 0 1 5 5z" fill="#D2D2D2"></path><path fill="#A3A3A3" d="M398 527h4v4h-4zm6 0h4v4h-4zm6 0h4v4h-4z"></path></g><g transform="translate(596 408)" fill-rule="nonzero"><path fill="#9EEBCF" d="M7-1v114H4V-1z"></path><circle stroke="#9EEBCF" stroke-width="3" fill="#FFF" cx="5.5" cy="-1.5" r="6.5"></circle><path fill="#9EEBCF" d="M5.5 117L0 109h11z"></path></g><path d="M412.643 503.27q0-.83-.586-1.275-.586-.444-2.11-.937-1.523-.494-2.412-.972-2.422-1.309-2.422-3.525 0-1.153.65-2.056t1.865-1.411q1.216-.508 2.73-.508 1.523 0 2.714.552 1.192.551 1.85 1.557.66 1.006.66 2.285h-2.93q0-.976-.615-1.518t-1.728-.542q-1.075 0-1.67.454-.596.454-.596 1.196 0 .694.698 1.162.698.47 2.056.88 2.5.751 3.642 1.865 1.143 1.113 1.143 2.773 0 1.846-1.396 2.896-1.397 1.05-3.76 1.05-1.64 0-2.988-.601-1.348-.6-2.056-1.646-.708-1.045-.708-2.422h2.94q0 2.354 2.812 2.354 1.045 0 1.63-.425.587-.425.587-1.186zm9.6 3.925q-2.325 0-3.785-1.425-1.46-1.426-1.46-3.8v-.273q0-1.592.615-2.846.616-1.255 1.743-1.934 1.128-.679 2.574-.679 2.168 0 3.413 1.367 1.245 1.368 1.245 3.877v1.153h-6.729q.137 1.035.826 1.66.688.625 1.743.625 1.63 0 2.549-1.182l1.386 1.553q-.634.898-1.718 1.401t-2.403.503zm-.323-8.672q-.84 0-1.362.567-.523.566-.67 1.62h3.926v-.224q-.02-.937-.507-1.45-.489-.513-1.387-.513zm12.246-2.158l-.039 2.715q-.576-.078-1.016-.078-1.601 0-2.1 1.084V507h-2.822v-10.566h2.666l.079 1.26q.85-1.456 2.353-1.456.469 0 .879.127zm3.486.069l1.963 7.119 1.963-7.12h2.95L440.962 507h-2.695l-3.565-10.566h2.95zm11.094 0V507h-2.832v-10.566h2.832zm-2.998-2.735q0-.635.425-1.045.425-.41 1.157-.41.723 0 1.152.41.43.41.43 1.045 0 .645-.434 1.055-.435.41-1.148.41-.713 0-1.147-.41-.435-.41-.435-1.055zm9.717 11.22q.781 0 1.27-.429.488-.43.507-1.142h2.647q-.01 1.074-.586 1.967-.576.894-1.577 1.387t-2.212.493q-2.266 0-3.575-1.44-1.308-1.44-1.308-3.98v-.185q0-2.442 1.299-3.897 1.299-1.455 3.564-1.455 1.983 0 3.179 1.128 1.196 1.128 1.216 3.003h-2.647q-.02-.82-.508-1.333t-1.289-.513q-.986 0-1.489.718-.503.718-.503 2.33v.292q0 1.631.498 2.344.498.713 1.514.713zm10.898 2.276q-2.324 0-3.784-1.425-1.46-1.426-1.46-3.8v-.273q0-1.592.615-2.846.616-1.255 1.744-1.934 1.127-.679 2.573-.679 2.168 0 3.413 1.367 1.245 1.368 1.245 3.877v1.153h-6.729q.137 1.035.826 1.66.688.625 1.743.625 1.63 0 2.549-1.182l1.386 1.553q-.634.898-1.718 1.401t-2.403.503zm-.322-8.672q-.84 0-1.362.567-.523.566-.67 1.62h3.927v-.224q-.02-.937-.508-1.45-.489-.513-1.387-.513zm-52.217 305.02v2.295H408.2v3.808h6.602V812h-9.531v-14.219h9.511v2.373H408.2v3.389h5.625zm2.451-2.11h2.657l.088 1.221q1.132-1.416 3.037-1.416 1.68 0 2.5.987.82.986.84 2.949V812h-2.823v-6.758q0-.898-.39-1.304-.391-.405-1.3-.405-1.19 0-1.786 1.016V812h-2.823v-10.566zm10.82 5.206q0-2.471 1.11-3.936 1.107-1.465 3.031-1.465 1.543 0 2.55 1.153V797h2.831v15h-2.549l-.136-1.123q-1.055 1.318-2.715 1.318-1.865 0-2.993-1.47t-1.128-4.086zm2.823.205q0 1.484.518 2.275.517.791 1.503.791 1.309 0 1.846-1.103v-4.17q-.527-1.104-1.826-1.104-2.041 0-2.041 3.31zm18.398-.176v.146q0 2.442-1.108 3.912-1.108 1.47-2.993 1.47-1.602 0-2.588-1.114v4.98h-2.822v-14.628h2.617l.098 1.035q1.025-1.23 2.675-1.23 1.953 0 3.037 1.445 1.084 1.445 1.084 3.984zm-2.822-.059q0-1.474-.522-2.275-.523-.8-1.519-.8-1.328 0-1.826 1.015v4.326q.518 1.045 1.846 1.045 2.021 0 2.021-3.31zm4.131.137v-.127q0-1.572.605-2.803.606-1.23 1.744-1.904 1.137-.674 2.641-.674 2.139 0 3.491 1.309 1.353 1.308 1.51 3.555l.019.722q0 2.432-1.358 3.902-1.357 1.47-3.642 1.47t-3.648-1.466q-1.362-1.464-1.362-3.984zm2.822.078q0 1.504.567 2.3.566.796 1.62.796 1.026 0 1.602-.786.576-.786.576-2.515 0-1.474-.576-2.285-.576-.81-1.62-.81-1.036 0-1.602.805-.567.806-.567 2.495zm11.905-5.39V812h-2.832v-10.566h2.832zm-2.998-2.735q0-.635.424-1.045.425-.41 1.158-.41.722 0 1.152.41.43.41.43 1.045 0 .645-.435 1.055-.435.41-1.147.41-.713 0-1.148-.41-.434-.41-.434-1.055zm5.263 2.735h2.656l.088 1.22q1.133-1.416 3.037-1.416 1.68 0 2.5.987.82.986.84 2.949V812h-2.822v-6.758q0-.898-.39-1.304-.391-.405-1.3-.405-1.19 0-1.787 1.016V812h-2.822v-10.566zm11.817-2.598h2.822v2.598h1.807v2.07h-1.807v5.273q0 .586.224.84.225.254.86.254.469 0 .83-.068v2.138q-.83.254-1.71.254-2.968 0-3.026-2.998v-5.693h-1.543v-2.07h1.543v-2.598z" fill="#4A4A4A" fill-rule="nonzero"></path><path d="M391 546h450v228c0 5.523-4.477 10-10 10H401c-5.523 0-10-4.477-10-10V546z" fill-opacity="0.465" fill="#F5A623" fill-rule="nonzero"></path><g fill="#B8E986"><path d="M600 401l-36-65h72z"></path><path d="M590 270h20v113h-20z"></path></g><g fill-rule="nonzero"><path d="M471 270l.038-70.382a2.799 2.799 0 0 1 2.799-2.798l54.217-.001c1.119-.44.72-.72.56-1-3.48-5.759-5.758-11.957-6.638-18.675-1.959-15.396 2.4-28.793 12.874-40.27.6-.64 1.2-1.24 1.84-1.84.52-.52.52-.52.04-1-1.64-1.559-3.119-3.278-4.358-5.198-2.8-4.439-4.358-9.277-4.478-14.556-.04-1.32.24-1.48 1.439-.88 1.28.64 2.599 1.2 3.998 1.64.16-2.32-.12-4.24-.16-6.199 0-.72-.04-1.4 0-2.12 0-.999.36-1.239 1.24-.719 1.399.8 2.798 1.52 4.278 2.12.88.36.88.36.8-.6-.24-2.52-.28-5.039 0-7.558.24-.96.679-1.12.999-.84.24.2.4.48.6.72 3.078 3.839 6.517 7.278 10.635 10.037 3.598 2.4 7.476 3.72 11.794 3.76 3.239.04 6.357-.64 9.356-1.8 2.799-1.08 5.597-2.2 8.516-2.84 2.958-.64 5.957-.92 8.916-.2 5.037 1.24 8.436 4.48 10.555 9.118.8 1.76 1.24 3.6 1.52 5.519.12.72.12.72.879.68 4.398-.32 8.636.36 12.474 2.639 4.598 2.759 7.157 6.918 8.156 12.077.72 3.799.52 7.558-.08 11.357-.48 2.959-1.28 5.878-2.239 8.717-.24.72-.4.68.48 1 4.478 1.52 7.277 4.6 8.076 9.238 1.12 6.358-2.958 11.997-8.876 13.396-1.08.24-2.199.4-3.318.28-.48-.08-.64.16-.76.6-.84 3.04-1.999 5.999-3.398 8.838-2.879 5.718-6.717 10.637-11.515 14.836-1.08.76-1.16 1.2-.92 1.8.56 1.56 1.04 3.159 1.56 4.718 3.238 10.078 6.517 20.115 9.715 30.193.24.72.56 1 1.28 1.12 3.158.68 5.157 2.639 5.997 5.758.16.68.28 1.4.4 2.08.76-.44 1.08-.88 1.56-1.28 1.358-1.12 2.878-1.36 4.517-.8 1.68.6 2.679 1.84 2.919 3.599.08.6.24.76.84.84 2.798.44 4.437 3.199 3.518 5.918-.24.68-.16 1.16.32 1.72 1.239 1.48 1.959 3.199 2.198 5.119.12.84 0 .84.92.84h16.512c0-1.68-.52-3-.8-4.44-1.878.12-3.158.44-4.397.84-.72.24-1.08.08-1.2-.32-.12-.36.16-.64.84-.84 1.16-.36 2.319-.68 3.478-1.04 1.16-.36.96-.08.96-1.359.04-.6-.2-.68-.52-.68H646.2c-1.04-.04-1.2-.24-1.2-.56.76-.6.96-.56 1.2-.56h5.677c.52 0 .72-.16.8-.68.2-1.359.24-1.359-1.12-1.759-1.12-.36-2.279-.68-3.398-1-.88-.36-1-.6-.92-.88.88-.4 1.12-.32 1.4-.24 1.36.4 2.678.8 4.038 1.24 1.839-2.839 3.398-4.838 5.517-6.358.4-.28.48-.6.48-1.04V236.69c.08-.56.48-.76.96-.48 3.958 3.679 7.436 6.918 10.875 10.117.92.88.64.88 1.679.12a21.562 21.562 0 0 1 24.988 0c.96.68.68.84 1.72-.12 3.518-3.24 6.996-6.438 10.515-9.677.32-.28.6-.76 1.119-.56.56.2.36.76.36 1.16v17.955c0 1.16 0 1.16 1.08.84.959-.28 1.878-.56 2.838-.84 1.36.56 1.28.84.92.96l-2.28.72-2.038.6c-.56.919-.56 1.519-.52 2.079 2.879.24 4.638.24 6.397.24 1 .12 1.2.32 1.16.6-.72.56-1 .56-1.24.56h-5.557c-.8 0-.84 0-.84.76 0 1.239-.08.959.96 1.279 1.079.36 2.198.64 3.318 1 .92.4 1.04.64.92.96-2.36-.12-3.439-.48-4.558-.8-.64 1.64-.64 2.799-.64 3.998 0 .44.12.68.6.64h17.272c.44 0 .88-.04 1.319.2v.76c-1 .24-1.28.24-1.6.24H471z" fill="#151D38"></path><path d="M517.38 263v-.08h44.573c1.046 0 1.046 0 1.046-1.035v-62.036c-.04-1.075-.643-1.712-1.728-1.831-.362-.04-.724 0-1.045 0H474.09c-1.487.04-2.09.677-2.09 2.11v61.916c0 .916 0 .916.965.916h.683c14.55.04 29.14.04 43.731.04z" fill="#CCD6DA"></path><path d="M546.226 196.81h14.533c1.514 0 2.668.883 2.947 2.247.08.36.08.682.08 1.043v16.567c0 .923.08.883.796.963 5.853.722 11.627.401 17.321-1.083 12.981-3.41 22.816-11.032 29.546-22.665 1.911-3.29 3.344-6.82 4.38-10.51.199-.722.199-.722-.478-.923l-1.075-.36c-.677-.281-.876-.522-.757-.923.12-.441.478-.482 1.195-.24 1.911.721 3.822.882 5.813.52 5.894-1.163 9.676-7.18 8.123-12.997-1.592-5.937-7.724-9.306-13.458-7.38-.28.08-.518.24-.797.28-.278.04-.478-.12-.597-.36-.12-.282-.04-.522.16-.683.159-.12.318-.2.517-.24.438-.161.836-.281 1.274-.402.08-.04.2-.08.239-.16.08-.2-.12-.16-.239-.2-.16-.08-.358-.121-.557-.201-2.987-1.043-5.854-2.367-8.482-4.132-4.778-3.129-8.481-7.22-10.87-12.476-1.115-2.487-1.872-5.094-2.31-7.822-.12-.802-.159-.802-.836-.441a5.99 5.99 0 0 0-.677.4c-3.544 2.087-7.167 3.852-10.99 5.296-8.242 3.089-16.684 4.332-25.404 2.768-6.053-1.083-11.707-3.25-16.644-7.06-.638-.482-.638-.482-1.155.04-4.46 4.292-8.004 9.226-10.552 14.842-3.942 8.785-5.137 17.931-3.663 27.439.995 6.458 3.304 12.435 6.729 17.97.398.683.836.964 1.672.964 4.699-.12 9.437-.08 14.216-.08z" fill="#FAE0D6"></path><path d="M564.046 241.011v21.716c0 .482.12.683.64.683 1.08-.04 2.16 0 3.279 0 4.039 0 8.078-.04 12.077-.04.84 0 .92.12.92.965v3.941c0 .644-.08.724.64.724h15.435c.52 0 .64-.201.68-.643.16-1.448.6-2.856 1.36-4.102.28-.443.32-.845.12-1.368-.84-2.493-1.64-5.026-2.44-7.52-1.959-6.112-3.958-12.225-5.918-18.337a3.969 3.969 0 0 1-.2-.644c-.08-.362.08-.643.44-.723.32-.08.56.08.68.361l.12.362 4.199 13.03c1.32 4.102 2.64 8.203 3.999 12.265.24.684.24.724.76.241 1.44-1.407 3.119-2.332 5.078-2.774.6-.161.64-.161.48-.765-.32-1.327-.68-2.694-.96-4.02-.92-4.022 1.52-8.164 5.479-9.21.24-.08.52-.08.76-.16.28-.041.4-.202.28-.483-.04-.161-.08-.322-.16-.443-3.12-9.732-6.279-19.504-9.398-29.235-.56-1.81-1.16-3.62-1.76-5.43-.12-.401-.32-.562-.64-.2-.12.12-.24.2-.4.281-2.638 1.97-5.478 3.7-8.477 5.067-5.839 2.694-11.997 4.223-18.435 4.464-2.72.12-5.439.08-8.118-.322-.44-.08-.6.08-.56.483v.764c.04 7.037.04 14.075.04 21.072z" fill="#FFF3A2"></path><path d="M691.629 268.92h17.513c.838 0 .838 0 .838-.85v-29.592c0-.162.08-.364-.08-.445-.24-.121-.319.121-.478.243-2.155 2.021-4.309 4.002-6.503 6.023-1.317 1.213-2.633 2.466-3.95 3.68-.558.525-.638.484-1.236.08-.2-.121-.36-.283-.52-.404-3.15-2.386-6.661-3.8-10.571-4.083-5.226-.405-9.974 1.05-14.162 4.285-.918.727-.918.727-1.756-.04a.552.552 0 0 0-.16-.122 2090.163 2090.163 0 0 0-9.534-8.975c-.24-.242-.479-.687-.798-.566-.24.122-.12.566-.12.89v10.47c0 .485-.04.89-.558 1.213-5.745 3.921-7.101 11.562-3.75 17.464.319.566.678.809 1.356.809 4.229-.04 8.498 0 12.726-.04.28 0 .679.12.798-.122.12-.242-.279-.444-.478-.647-2.075-2.263-2.713-4.891-1.836-7.802.878-2.91 2.913-4.649 5.785-5.336.599-.162 1.197-.243 1.795-.162.32.04.519.243.519.606 0 .283-.16.486-.479.526-.359.04-.678.08-1.037.121-2.753.364-5.106 2.466-5.665 5.175a6.704 6.704 0 0 0 2.992 7.115 3.714 3.714 0 0 0 1.995.566c5.904-.121 11.649-.08 17.354-.08z" fill="#C27659"></path><path d="M517.453 264.042c-8.157.036-16.314.036-24.472.036h-20.413c-.402 0-.603.142-.563.499v2.14c0 1.283 0 1.283 1.447 1.283 11.452 0 22.945 0 34.397-.036 17.882 0 35.724-.035 53.606-.035h.764c.562-.036.763-.214.763-.713.04-.928 0-1.819 0-2.746 0-.392-.2-.5-.603-.464h-.683c-4.26 0-8.479.036-12.738.036h-31.505zm99.508 4.918h17.559c.355.04.514-.082.474-.488-.198-1.707-.79-3.252-1.819-4.634-.158-.243-.316-.203-.395.082-.04.122-.08.244-.159.365-1.305 2.805-4.547 3.577-6.92 1.626-.435-.366-.712-.447-1.226-.203-1.463.61-2.847.406-4.152-.488-1.385-.975-2.017-2.357-1.899-4.105.04-.61 0-.65-.514-.487-1.226.325-2.372.203-3.48-.447-.277-.163-.514-.163-.83-.163-1.82 0-3.678-.04-5.497 0-4.192.081-7.79 3.048-8.858 7.234a7.954 7.954 0 0 0-.238 1.342c-.04.284.08.406.356.406h.752c5.655-.04 11.27-.04 16.846-.04z" fill="#CCD6DA"></path><path d="M610.007 258.287h2.188c.289 0 .454-.077.33-.386-.826-2.127-.95-4.408-1.445-6.612-.124-.502.083-.812.454-.889.372-.077.62.155.743.657.124.503.207 1.044.29 1.547.247 1.314.453 2.629.742 3.905.413 1.74 2.106 2.745 3.964 2.435 1.816-.348 2.972-1.894 2.683-3.634-.248-1.508-.496-2.977-.867-4.446-.784-3.286-4.293-5.374-7.802-4.756-3.344.58-5.78 3.867-5.202 7.076.29 1.546.784 3.054 1.156 4.6.083.349.289.503.702.503h2.064zm9.993 3.36c.082 1.124.45 2.007 1.348 2.649 1.88 1.364 4.413.682 5.23-1.485a301.196 301.196 0 0 0 2.248-6.46c.082-.24.122-.482.163-.763.123-1.564-.817-2.969-2.37-3.45-1.511-.442-3.187.2-3.922 1.605-.49.963-.9 2.006-1.063 3.09a6.408 6.408 0 0 1-.776 2.246c-.49.843-.776 1.726-.858 2.568z" fill="#FAE0D6"></path><path d="M571.838 268v-.036h7.472c.406-.036.69-.18.69-.577v-3.027c0-.252-.162-.36-.447-.36h-9.908c-1.665 0-3.33.036-4.955.036-.487 0-.69.144-.69.577.04.9 0 1.801 0 2.666 0 .685 0 .721.812.721h7.026z" fill="#CCD6DA"></path><path d="M633 260.398c0-1.79-1.151-3.074-2.9-3.347-.767-.116-.852-.077-1.108.584-.469 1.245-.895 2.49-1.364 3.697-.426 1.09-.64 2.295-1.492 3.23-.299.31-.043.505.17.7 1.791 1.362 4.52.778 5.458-1.245.426-.934.767-1.907 1.108-2.88.128-.311.128-.623.128-.74z" fill="#FAE0D6"></path><path d="M528.982 231.205c-.317 4.863-3.328 8.491-7.766 9.528-5.707 1.355-11.334-2.592-12.126-8.452-.674-4.943 2.496-9.967 7.648-11.163 1.11-.239 1.189-.199 1.347.917.674 3.788 3.21 6.578 6.895 7.415.872.2 1.744.24 2.655.16 1.189-.12 1.308 0 1.347 1.196.04.2 0 .399 0 .399z" fill="#151D38"></path><path d="M519.175 240c.607-.041 1.415-.123 2.223-.328 3.597-.983 6.427-4.424 6.588-8.111.04-.82.04-.82-.727-.82-4.81.082-9.013-3.195-10.104-7.947-.243-1.065-.364-.82-1.01-.614-4.164 1.392-6.75 5.735-6.023 10.2.687 4.342 4.527 7.66 9.053 7.62z" fill="#FFF"></path><path d="M562.814 160.365h13.172c2.018 0 4.035.08 6.053.121.949.04 1.186.365.751 1.175-2.967 5.632-7.318 9.562-13.528 10.9-6.25 1.336-11.749-.406-16.456-4.822-1.86-1.742-3.284-3.85-4.43-6.159-.12-.243-.238-.446-.317-.689-.158-.486 0-.729.514-.85.198-.041.396-.041.554-.041l11.67.122c.672 0 1.305.08 1.977.08.04.082.04.122.04.163z" fill="#151D38"></path><path d="M566.073 161.154h-3.574c-1.486 0-2.932 0-4.418-.077-2.53-.077-5.06-.077-7.59-.077-.562 0-.602.039-.32.502a18.183 18.183 0 0 0 3.855 4.824c4.417 3.86 9.557 5.442 15.42 4.322 5.381-1.042 9.317-4.052 12.208-8.452.522-.81.522-.849-.482-.849-5.02-.077-10.08-.154-15.1-.193z" fill="#FFF"></path><path d="M528 166.5c0-3.27 2.452-6.46 6.539-6.5 3.58-.039 6.461 2.92 6.461 6.5 0 3.62-2.88 6.5-6.5 6.5-3.58-.039-6.5-2.92-6.5-6.5zm76.99 1.02c.156 3.123-2.535 6.441-6.475 6.48-3.59 0-6.476-2.889-6.515-6.48 0-3.67 2.848-6.519 6.515-6.519 3.862-.078 6.67 3.24 6.475 6.52z" fill="#E5384A"></path><path d="M543.478 152c1.975 0 3.564 1.546 3.521 3.521.001 1.933-1.546 3.479-3.435 3.479-1.975 0-3.564-1.546-3.564-3.521 0-1.89 1.546-3.436 3.478-3.479zm45.044 1c1.975 0 3.478 1.546 3.478 3.564-.043 1.932-1.589 3.478-3.521 3.435-1.89 0-3.478-1.588-3.478-3.478a3.43 3.43 0 0 1 3.52-3.52zM625 171.06c-.04 4.067-4.209 6.933-8.177 5.616a1.449 1.449 0 0 1-.36-.155c-.402-.155-.562-.426-.402-.813.12-.349.481-.387.802-.31.2.039.44.155.641.194 2.766.736 5.652-.969 6.213-3.641.561-2.75-1.363-5.346-4.209-5.733-.24-.039-.52-.077-.761-.116-.28-.039-.441-.271-.441-.543 0-.348.2-.503.521-.542.2-.039.44 0 .681 0 3.167.349 5.532 2.944 5.491 6.043zm-59.002-19.375c0 .284-.223.447-.483.568a68.82 68.82 0 0 1-2.378 1.3c-.334.162-.408.324-.074.568.669.487 1.3 1.014 1.969 1.501.186.122.334.244.483.406.186.203.186.487.037.731s-.371.284-.631.203a.761.761 0 0 1-.372-.244c-1.003-.77-2.043-1.542-3.046-2.354-.706-.568-.669-.974.111-1.42 1.115-.65 2.266-1.259 3.418-1.868.557-.203 1.003 0 .966.609zM535 153.924c.114-2.898 2.01-5.3 4.703-5.837.304-.083.607-.125.91-.042.228.042.38.249.38.497.038.29-.076.538-.341.62a5.256 5.256 0 0 1-.797.166c-2.048.456-3.414 2.112-3.641 4.347-.038.249-.038.456-.038.704-.038.373-.19.621-.57.621-.378 0-.53-.29-.568-.662-.038-.125-.038-.249-.038-.414zm61-.021c0 .162 0 .447-.04.69-.077.285-.273.407-.547.407s-.47-.163-.509-.447c-.039-.203 0-.407-.039-.57-.117-2.397-1.643-4.226-3.913-4.673-.117-.04-.234-.04-.352-.081-.391-.082-.665-.285-.587-.732.079-.447.43-.528.783-.488 1.33.163 2.465.691 3.443 1.626 1.096 1.179 1.683 2.56 1.761 4.268zm88.66 112.088c-1.5-.043-2.514-.472-3.285-1.503-.324-.387-.446-.387-.77 0-1.42 1.675-3.488 1.976-5.15.816-.568-.387-1.015-.945-1.339-1.59-.162-.343-.203-.773.203-.988.405-.214.649 0 .851.387.122.258.284.515.487.773 1.338 1.504 3.69 1.031 4.42-.859.163-.43.203-.687-.324-.816-.73-.215-1.176-.816-1.663-1.375a1.489 1.489 0 0 1-.365-.816c-.121-.601.082-.988.69-.988 1.703-.043 3.447-.043 5.15 0 .568 0 .77.387.609.988-.244.988-.974 1.504-1.704 2.02-.243.17-.649.128-.73.429-.08.386.163.773.406 1.117 1.095 1.589 3.285 1.589 4.42 0 .122-.172.244-.43.365-.602.203-.3.487-.343.77-.215.285.172.366.473.244.774a4.074 4.074 0 0 1-1.095 1.546c-.73.601-1.54.945-2.19.902zm13.34-10.99c1.715 0 3 1.328 3 2.999 0 1.714-1.371 3.042-3.085 2.999-1.671-.043-2.957-1.371-2.914-3.085-.043-1.67 1.286-2.956 3-2.913zM662.979 261c-1.66 0-2.979-1.277-2.979-2.979 0-1.702 1.234-2.978 2.936-3.021 1.745 0 3.064 1.277 3.064 2.979-.043 1.702-1.32 3.021-3.021 3.021z" fill="#151D38"></path></g><path d="M628.385 283.781V298h-2.93v-14.219h2.93zm2.47 3.653h2.657l.088 1.22q1.132-1.416 3.037-1.416 1.68 0 2.5.987.82.986.84 2.949V298h-2.823v-6.758q0-.898-.39-1.304-.391-.405-1.3-.405-1.19 0-1.786 1.016V298h-2.823v-10.566zm15.655 8.486q.781 0 1.27-.43.488-.43.507-1.142h2.647q-.01 1.074-.586 1.967-.577.894-1.577 1.387-1.001.493-2.212.493-2.266 0-3.575-1.44-1.308-1.44-1.308-3.98v-.185q0-2.442 1.299-3.897 1.298-1.455 3.564-1.455 1.982 0 3.179 1.128 1.196 1.128 1.216 3.003h-2.647q-.02-.82-.508-1.333t-1.289-.513q-.986 0-1.489.718-.503.718-.503 2.33v.292q0 1.631.498 2.344.498.713 1.514.713zm5.595-3.174v-.127q0-1.572.606-2.803.605-1.23 1.743-1.904 1.138-.674 2.642-.674 2.138 0 3.49 1.309 1.353 1.308 1.51 3.555l.02.722q0 2.432-1.358 3.902-1.358 1.47-3.643 1.47-2.285 0-3.647-1.466-1.363-1.464-1.363-3.984zm2.823.078q0 1.504.566 2.3.567.796 1.621.796 1.026 0 1.602-.786.576-.786.576-2.515 0-1.474-.576-2.285-.576-.81-1.621-.81-1.035 0-1.602.805-.566.806-.566 2.495zm8.926-5.39h2.646l.088 1.181q1.123-1.377 3.037-1.377 2.041 0 2.803 1.612 1.113-1.612 3.174-1.612 1.718 0 2.558 1.001.84 1.001.84 3.013V298h-2.832v-6.738q0-.899-.352-1.314-.351-.415-1.24-.415-1.27 0-1.758 1.211l.01 7.256h-2.822v-6.729q0-.917-.361-1.328-.362-.41-1.23-.41-1.202 0-1.74.996V298h-2.821v-10.566zm20.292 0V298h-2.832v-10.566h2.832zm-2.998-2.735q0-.635.425-1.045.425-.41 1.157-.41.723 0 1.153.41.43.41.43 1.045 0 .645-.435 1.055-.435.41-1.148.41-.712 0-1.147-.41-.435-.41-.435-1.055zm5.264 2.735h2.656l.088 1.22q1.133-1.416 3.037-1.416 1.68 0 2.5.987.82.986.84 2.949V298h-2.822v-6.758q0-.898-.39-1.304-.391-.405-1.3-.405-1.19 0-1.787 1.016V298h-2.822v-10.566zm10.85 5.322v-.117q0-2.432 1.157-3.916 1.157-1.485 3.12-1.485 1.738 0 2.705 1.192l.117-.996h2.559v10.214q0 1.387-.63 2.413-.63 1.025-1.772 1.562-1.143.537-2.676.537-1.162 0-2.266-.464-1.103-.464-1.67-1.196l1.25-1.719q1.055 1.182 2.559 1.182 1.123 0 1.748-.6.625-.601.625-1.705v-.566q-.977 1.103-2.568 1.103-1.905 0-3.082-1.489-1.176-1.49-1.176-3.95zm2.822.088q0 1.435.576 2.25.576.816 1.582.816 1.29 0 1.846-.967V290.5q-.567-.967-1.826-.967-1.016 0-1.597.83t-.581 2.48zm-74.444 13.992h2.823v2.598h1.807v2.07h-1.807v5.273q0 .586.225.84.224.254.859.254.469 0 .83-.068v2.138q-.83.254-1.709.254-2.969 0-3.027-2.998v-5.693h-1.543v-2.07h1.543v-2.598zm12.178 2.53l-.039 2.714q-.576-.078-1.015-.078-1.602 0-2.1 1.084V320h-2.822v-10.566h2.666l.078 1.26q.85-1.456 2.353-1.456.47 0 .88.127zm10 10.634h-2.851q-.196-.38-.283-.947-1.026 1.142-2.666 1.142-1.553 0-2.574-.898-1.02-.899-1.02-2.266 0-1.68 1.245-2.578 1.245-.898 3.599-.908h1.298v-.606q0-.732-.376-1.171-.376-.44-1.186-.44-.713 0-1.118.342-.406.342-.406.937h-2.822q0-.918.567-1.699.566-.781 1.601-1.225 1.035-.445 2.324-.445 1.954 0 3.101.982 1.147.981 1.147 2.759v4.58q.01 1.504.42 2.275V320zm-5.185-1.963q.625 0 1.152-.278.528-.279.781-.747v-1.817h-1.054q-2.12 0-2.256 1.465l-.01.166q0 .528.371.87.371.341 1.016.341zM653.17 320h-2.832v-8.496h-1.572v-2.07h1.572v-.899q0-1.777 1.02-2.759 1.02-.981 2.857-.981.586 0 1.435.195l-.029 2.188q-.351-.088-.86-.088-1.591 0-1.591 1.494v.85h2.1v2.07h-2.1V320zm7.168 0h-2.832v-8.496h-1.572v-2.07h1.572v-.899q0-1.777 1.02-2.759 1.02-.981 2.857-.981.586 0 1.435.195l-.029 2.188q-.351-.088-.86-.088-1.591 0-1.591 1.494v.85h2.1v2.07h-2.1V320zm6.543-10.566V320h-2.832v-10.566h2.832zm-2.998-2.735q0-.635.425-1.045.424-.41 1.157-.41.722 0 1.152.41.43.41.43 1.045 0 .645-.435 1.055-.434.41-1.147.41-.713 0-1.148-.41-.434-.41-.434-1.055zm9.717 11.22q.78 0 1.27-.429.487-.43.507-1.142h2.646q-.01 1.074-.585 1.967-.577.894-1.578 1.387-1 .493-2.212.493-2.265 0-3.574-1.44-1.308-1.44-1.308-3.98v-.185q0-2.442 1.298-3.897 1.3-1.455 3.565-1.455 1.982 0 3.179 1.128 1.196 1.128 1.215 3.003h-2.646q-.02-.82-.508-1.333t-1.289-.513q-.986 0-1.49.718-.502.718-.502 2.33v.292q0 1.631.498 2.344.498.713 1.514.713z" fill="#7DA159" fill-rule="nonzero"></path><path d="M406 557h420a2 2 0 0 1 2 2v62a2 2 0 0 1-2 2H406a2 2 0 0 1-2-2v-62a2 2 0 0 1 2-2z" fill="#F3F3F3"></path><path d="M437.5 570c11.335 0 20.5 8.941 20.5 20s-9.165 20-20.5 20-20.5-8.94-20.5-20 9.165-20 20.5-20zm.904 26.588l11.818-11.53-3.98-3.881-11.817 11.529-5.607-5.47-3.98 3.882 5.608 5.47 3.979 3.883 3.98-3.883z" fill="#00C176" fill-rule="nonzero"></path><g class="sans-serif"><path d="M520.58 577.371V603h-5.08v-19.582l-6.064 1.88v-4.13l10.6-3.797h.544zm25.541 10.336v4.711q0 5.309-2.197 8.121-2.197 2.813-6.434 2.813-4.183 0-6.398-2.76t-2.268-7.91v-4.711q0-5.362 2.224-8.139 2.223-2.777 6.407-2.777t6.399 2.75q2.214 2.752 2.267 7.902zm-5.08 5.625v-6.082q0-3.182-.87-4.632-.87-1.45-2.716-1.45-1.793 0-2.645 1.38-.853 1.38-.906 4.315v6.223q0 3.129.853 4.65.852 1.52 2.733 1.52 1.864 0 2.69-1.46.826-1.458.861-4.464zm8.982 7.172q0-1.213.818-1.969.817-.756 2.048-.756 1.248 0 2.065.756t.817 1.969q0 1.195-.808 1.942-.809.747-2.074.747-1.248 0-2.057-.747-.809-.747-.809-1.942zm27.211-12.797v4.711q0 5.309-2.197 8.121-2.197 2.813-6.433 2.813-4.184 0-6.399-2.76t-2.268-7.91v-4.711q0-5.362 2.224-8.139 2.224-2.777 6.407-2.777 4.184 0 6.399 2.75 2.215 2.752 2.267 7.902zm-5.08 5.625v-6.082q0-3.182-.87-4.632-.87-1.45-2.716-1.45-1.793 0-2.645 1.38-.853 1.38-.905 4.315v6.223q0 3.129.852 4.65.853 1.52 2.734 1.52 1.863 0 2.689-1.46.826-1.458.861-4.464zm8.983 7.172q0-1.213.817-1.969t2.048-.756q1.248 0 2.065.756.818.756.818 1.969 0 1.195-.809 1.942-.808.747-2.074.747-1.248 0-2.057-.747-.808-.747-.808-1.942zm27.21-12.797v4.711q0 5.309-2.197 8.121-2.197 2.813-6.433 2.813-4.184 0-6.399-2.76-2.214-2.76-2.267-7.91v-4.711q0-5.362 2.223-8.139 2.224-2.777 6.408-2.777 4.183 0 6.398 2.75 2.215 2.752 2.268 7.902zm-5.08 5.625v-6.082q0-3.182-.87-4.632-.87-1.45-2.715-1.45-1.793 0-2.646 1.38-.852 1.38-.905 4.315v6.223q0 3.129.852 4.65.853 1.52 2.734 1.52 1.863 0 2.69-1.46.825-1.458.86-4.464zm8.983 7.172q0-1.213.817-1.969.818-.756 2.048-.756 1.248 0 2.066.756.817.756.817 1.969 0 1.195-.809 1.942-.808.747-2.074.747-1.248 0-2.056-.747-.809-.747-.809-1.942zm22.324-23.133V603h-5.08v-19.582l-6.064 1.88v-4.13l10.6-3.797h.544z" fill="#4D4D4F" fill-rule="nonzero"></path><path d="M485.711 586.648V603h-2.156v-16.352h2.156zm9.95 9.95h-3.851V603h-2.157v-16.352h6.031q2.684 0 4.206 1.37 1.522 1.37 1.522 3.628 0 2.38-1.488 3.667-1.488 1.286-4.262 1.286zm-3.851-8.175v6.412h3.874q1.73 0 2.65-.814.921-.814.921-2.353 0-1.46-.92-2.335-.921-.876-2.527-.91h-3.998z" fill="#8C8C90" fill-rule="nonzero"></path><path d="M732.908 591.926v-3.973h2.707q1.934 0 2.865-.967.932-.966.932-2.566 0-1.547-.923-2.408-.923-.862-2.54-.862-1.459 0-2.443.8-.985.8-.985 2.083h-5.08q0-2.004 1.081-3.595 1.082-1.59 3.024-2.487 1.942-.896 4.28-.896 4.06 0 6.363 1.942 2.303 1.942 2.303 5.353 0 1.757-1.072 3.234t-2.813 2.268q2.163.773 3.226 2.32 1.063 1.547 1.063 3.656 0 3.41-2.487 5.467-2.487 2.057-6.583 2.057-3.832 0-6.266-2.022-2.435-2.021-2.435-5.344h5.08q0 1.442 1.081 2.356 1.081.914 2.663.914 1.81 0 2.84-.958 1.027-.958 1.027-2.54 0-3.832-4.218-3.832h-2.69zm32.713-4.219v4.711q0 5.309-2.197 8.121-2.197 2.813-6.434 2.813-4.183 0-6.398-2.76t-2.268-7.91v-4.711q0-5.362 2.224-8.139 2.223-2.777 6.407-2.777t6.399 2.75q2.214 2.752 2.267 7.902zm-5.08 5.625v-6.082q0-3.182-.87-4.632-.87-1.45-2.716-1.45-1.793 0-2.645 1.38-.853 1.38-.906 4.315v6.223q0 3.129.853 4.65.852 1.52 2.733 1.52 1.864 0 2.69-1.46.826-1.458.861-4.464zm25.734-5.625v4.711q0 5.309-2.197 8.121-2.197 2.813-6.433 2.813-4.184 0-6.399-2.76t-2.267-7.91v-4.711q0-5.362 2.223-8.139 2.224-2.777 6.407-2.777 4.184 0 6.399 2.75 2.215 2.752 2.267 7.902zm-5.08 5.625v-6.082q0-3.182-.87-4.632-.87-1.45-2.716-1.45-1.793 0-2.645 1.38-.853 1.38-.905 4.315v6.223q0 3.129.852 4.65.853 1.52 2.734 1.52 1.863 0 2.689-1.46.826-1.458.861-4.464zm25.735-5.625v4.711q0 5.309-2.198 8.121-2.197 2.813-6.433 2.813-4.184 0-6.399-2.76-2.214-2.76-2.267-7.91v-4.711q0-5.362 2.223-8.139 2.224-2.777 6.408-2.777 4.183 0 6.398 2.75 2.215 2.752 2.268 7.902zm-5.08 5.625v-6.082q0-3.182-.87-4.632-.87-1.45-2.716-1.45-1.793 0-2.646 1.38-.852 1.38-.905 4.315v6.223q0 3.129.852 4.65.853 1.52 2.734 1.52 1.863 0 2.69-1.46.825-1.458.86-4.464z" fill="#4D4D4F" fill-rule="nonzero"></path><path d="M665.406 596.599h-3.852V603h-2.156v-16.352h6.03q2.685 0 4.207 1.37 1.521 1.37 1.521 3.628 0 2.38-1.488 3.667-1.488 1.286-4.262 1.286zm-3.852-8.176v6.412h3.875q1.73 0 2.65-.814.921-.814.921-2.353 0-1.46-.92-2.335-.922-.876-2.528-.91h-3.998zm24.932 5.896v1.033q0 2.403-.809 4.195-.808 1.79-2.29 2.734-1.483.944-3.46.944-1.931 0-3.425-.95-1.494-.948-2.32-2.706-.825-1.757-.847-4.071v-1.18q0-2.358.82-4.166.82-1.808 2.319-2.768 1.5-.96 3.43-.96 1.966 0 3.465.949 1.5.949 2.308 2.751.809 1.803.809 4.195zm-2.145 1.19v-1.213q0-2.908-1.168-4.464-1.168-1.555-3.268-1.555-2.044 0-3.218 1.555-1.173 1.556-1.207 4.318v1.202q0 2.819 1.185 4.43 1.185 1.612 3.262 1.612 2.09 0 3.235-1.522 1.145-1.521 1.179-4.363zM699.266 603l-3.549-6.615h-3.84V603h-2.168v-16.352h5.413q2.763 0 4.25 1.258 1.489 1.258 1.489 3.661 0 1.528-.826 2.662-.825 1.134-2.296 1.696l3.84 6.94V603h-2.313zm-7.39-14.577v6.2h3.313q1.606 0 2.555-.832.95-.831.95-2.224 0-1.516-.905-2.324-.904-.809-2.61-.82h-3.303zm22.405-1.775v1.775h-5.256V603h-2.145v-14.577h-5.244v-1.775h12.645z" fill="#8C8C90" fill-rule="nonzero"></path></g><path d="M406 631h420a2 2 0 0 1 2 2v62a2 2 0 0 1-2 2H406a2 2 0 0 1-2-2v-62a2 2 0 0 1 2-2z" fill="#F3F3F3"></path><path d="M437.5 644c11.335 0 20.5 8.941 20.5 20s-9.165 20-20.5 20-20.5-8.94-20.5-20 9.165-20 20.5-20zm.904 26.588l11.818-11.53-3.98-3.881-11.817 11.529-5.607-5.47-3.98 3.882 5.608 5.47 3.979 3.883 3.98-3.883z" fill="#00C176" fill-rule="nonzero"></path><g class="sans-serif"><path d="M520.58 651.371V677h-5.08v-19.582l-6.064 1.88v-4.13l10.6-3.797h.544zm25.541 10.336v4.711q0 5.309-2.197 8.121-2.197 2.813-6.434 2.813-4.183 0-6.398-2.76t-2.268-7.91v-4.711q0-5.362 2.224-8.139 2.223-2.777 6.407-2.777t6.399 2.75q2.214 2.752 2.267 7.902zm-5.08 5.625v-6.082q0-3.182-.87-4.632-.87-1.45-2.716-1.45-1.793 0-2.645 1.38-.853 1.38-.906 4.315v6.223q0 3.129.853 4.65.852 1.52 2.733 1.52 1.864 0 2.69-1.46.826-1.458.861-4.464zm8.982 7.172q0-1.213.818-1.969.817-.756 2.048-.756 1.248 0 2.065.756t.817 1.969q0 1.195-.808 1.942-.809.747-2.074.747-1.248 0-2.057-.747-.809-.747-.809-1.942zm27.211-12.797v4.711q0 5.309-2.197 8.121-2.197 2.813-6.433 2.813-4.184 0-6.399-2.76t-2.268-7.91v-4.711q0-5.362 2.224-8.139 2.224-2.777 6.407-2.777 4.184 0 6.399 2.75 2.215 2.752 2.267 7.902zm-5.08 5.625v-6.082q0-3.182-.87-4.632-.87-1.45-2.716-1.45-1.793 0-2.645 1.38-.853 1.38-.905 4.315v6.223q0 3.129.852 4.65.853 1.52 2.734 1.52 1.863 0 2.689-1.46.826-1.458.861-4.464zm8.983 7.172q0-1.213.817-1.969t2.048-.756q1.248 0 2.065.756.818.756.818 1.969 0 1.195-.809 1.942-.808.747-2.074.747-1.248 0-2.057-.747-.808-.747-.808-1.942zm27.21-12.797v4.711q0 5.309-2.197 8.121-2.197 2.813-6.433 2.813-4.184 0-6.399-2.76-2.214-2.76-2.267-7.91v-4.711q0-5.362 2.223-8.139 2.224-2.777 6.408-2.777 4.183 0 6.398 2.75 2.215 2.752 2.268 7.902zm-5.08 5.625v-6.082q0-3.182-.87-4.632-.87-1.45-2.715-1.45-1.793 0-2.646 1.38-.852 1.38-.905 4.315v6.223q0 3.129.852 4.65.853 1.52 2.734 1.52 1.863 0 2.69-1.46.825-1.458.86-4.464zm8.983 7.172q0-1.213.817-1.969.818-.756 2.048-.756 1.248 0 2.066.756.817.756.817 1.969 0 1.195-.809 1.942-.808.747-2.074.747-1.248 0-2.056-.747-.809-.747-.809-1.942zm27.527-1.6V677h-17.543v-3.48l8.28-8.825q1.705-1.863 2.522-3.252.818-1.388.818-2.636 0-1.705-.862-2.681-.861-.976-2.46-.976-1.723 0-2.717 1.187-.993 1.186-.993 3.12h-5.097q0-2.338 1.116-4.271 1.116-1.934 3.155-3.033 2.04-1.098 4.623-1.098 3.955 0 6.144 1.898 2.188 1.899 2.188 5.361 0 1.899-.984 3.868-.985 1.968-3.375 4.588l-5.819 6.134h11.004z" fill="#4D4D4F" fill-rule="nonzero"></path><path d="M485.711 660.648V677h-2.156v-16.352h2.156zm9.95 9.95h-3.851V677h-2.157v-16.352h6.031q2.684 0 4.206 1.37 1.522 1.37 1.522 3.628 0 2.38-1.488 3.667-1.488 1.286-4.262 1.286zm-3.851-8.175v6.412h3.874q1.73 0 2.65-.814.921-.814.921-2.353 0-1.46-.92-2.335-.921-.876-2.527-.91h-3.998z" fill="#8C8C90" fill-rule="nonzero"></path><path d="M732.908 665.926v-3.973h2.707q1.934 0 2.865-.967.932-.966.932-2.566 0-1.547-.923-2.408-.923-.862-2.54-.862-1.459 0-2.443.8-.985.8-.985 2.083h-5.08q0-2.004 1.081-3.595 1.082-1.59 3.024-2.487 1.942-.896 4.28-.896 4.06 0 6.363 1.942 2.303 1.942 2.303 5.353 0 1.757-1.072 3.234t-2.813 2.268q2.163.773 3.226 2.32 1.063 1.547 1.063 3.656 0 3.41-2.487 5.467-2.487 2.057-6.583 2.057-3.832 0-6.266-2.022-2.435-2.021-2.435-5.344h5.08q0 1.442 1.081 2.356 1.081.914 2.663.914 1.81 0 2.84-.958 1.027-.958 1.027-2.54 0-3.832-4.218-3.832h-2.69zm32.713-4.219v4.711q0 5.309-2.197 8.121-2.197 2.813-6.434 2.813-4.183 0-6.398-2.76t-2.268-7.91v-4.711q0-5.362 2.224-8.139 2.223-2.777 6.407-2.777t6.399 2.75q2.214 2.752 2.267 7.902zm-5.08 5.625v-6.082q0-3.182-.87-4.632-.87-1.45-2.716-1.45-1.793 0-2.645 1.38-.853 1.38-.906 4.315v6.223q0 3.129.853 4.65.852 1.52 2.733 1.52 1.864 0 2.69-1.46.826-1.458.861-4.464zm25.734-5.625v4.711q0 5.309-2.197 8.121-2.197 2.813-6.433 2.813-4.184 0-6.399-2.76t-2.267-7.91v-4.711q0-5.362 2.223-8.139 2.224-2.777 6.407-2.777 4.184 0 6.399 2.75 2.215 2.752 2.267 7.902zm-5.08 5.625v-6.082q0-3.182-.87-4.632-.87-1.45-2.716-1.45-1.793 0-2.645 1.38-.853 1.38-.905 4.315v6.223q0 3.129.852 4.65.853 1.52 2.734 1.52 1.863 0 2.689-1.46.826-1.458.861-4.464zm25.735-5.625v4.711q0 5.309-2.198 8.121-2.197 2.813-6.433 2.813-4.184 0-6.399-2.76-2.214-2.76-2.267-7.91v-4.711q0-5.362 2.223-8.139 2.224-2.777 6.408-2.777 4.183 0 6.398 2.75 2.215 2.752 2.268 7.902zm-5.08 5.625v-6.082q0-3.182-.87-4.632-.87-1.45-2.716-1.45-1.793 0-2.646 1.38-.852 1.38-.905 4.315v6.223q0 3.129.852 4.65.853 1.52 2.734 1.52 1.863 0 2.69-1.46.825-1.458.86-4.464z" fill="#4D4D4F" fill-rule="nonzero"></path><path d="M665.406 670.599h-3.852V677h-2.156v-16.352h6.03q2.685 0 4.207 1.37 1.521 1.37 1.521 3.628 0 2.38-1.488 3.667-1.488 1.286-4.262 1.286zm-3.852-8.176v6.412h3.875q1.73 0 2.65-.814.921-.814.921-2.353 0-1.46-.92-2.335-.922-.876-2.528-.91h-3.998zm24.932 5.896v1.033q0 2.403-.809 4.195-.808 1.79-2.29 2.734-1.483.944-3.46.944-1.931 0-3.425-.95-1.494-.948-2.32-2.706-.825-1.757-.847-4.071v-1.18q0-2.358.82-4.166.82-1.808 2.319-2.768 1.5-.96 3.43-.96 1.966 0 3.465.949 1.5.949 2.308 2.751.809 1.803.809 4.195zm-2.145 1.19v-1.213q0-2.908-1.168-4.464-1.168-1.555-3.268-1.555-2.044 0-3.218 1.555-1.173 1.556-1.207 4.318v1.202q0 2.819 1.185 4.43 1.185 1.612 3.262 1.612 2.09 0 3.235-1.522 1.145-1.521 1.179-4.363zM699.266 677l-3.549-6.615h-3.84V677h-2.168v-16.352h5.413q2.763 0 4.25 1.258 1.489 1.258 1.489 3.661 0 1.528-.826 2.662-.825 1.134-2.296 1.696l3.84 6.94V677h-2.313zm-7.39-14.577v6.2h3.313q1.606 0 2.555-.832.95-.831.95-2.224 0-1.516-.905-2.324-.904-.809-2.61-.82h-3.303zm22.405-1.775v1.775h-5.256V677h-2.145v-14.577h-5.244v-1.775h12.645z" fill="#8C8C90" fill-rule="nonzero"></path></g></g></svg>