<svg viewBox="0 0 1200 900" xmlns="http://www.w3.org/2000/svg"><g fill="none" fill-rule="evenodd"><path d="M917 96v708c0 9.389-7.623 17-17.027 17H301.027c-9.404 0-17.027-7.611-17.027-17V96c0-9.389 7.623-17 17.027-17h598.946C909.377 79 917 86.611 917 96z" fill="#D2D2D2"></path><path fill="#A3A3A3" d="M580 787h312v13.05H580zm0-21h312v13.05H580zm0-20h312v13.05H580zM308 102h584v13H308z"></path><path d="M314.849 138H886.15c3.762 0 6.811 3.044 6.811 6.8v570.4c0 3.756-3.05 6.8-6.81 6.8H314.848c-3.762 0-6.811-3.044-6.811-6.8V144.8c0-3.756 3.05-6.8 6.81-6.8z" fill="#FFF"></path><path d="M362.162 781.501h8.35q-.474 6.541-4.83 10.298-4.355 3.758-11.48 3.758-7.793 0-12.26-5.247-4.467-5.246-4.467-14.403v-2.477q0-5.845 2.06-10.298 2.059-4.453 5.886-6.832 3.827-2.38 8.892-2.38 7.014 0 11.3 3.757 4.286 3.758 4.954 10.549h-8.35q-.306-3.925-2.185-5.692-1.878-1.767-5.72-1.767-4.174 0-6.247 2.992-2.074 2.991-2.13 9.282v3.061q0 6.568 1.99 9.602 1.99 3.034 6.277 3.034 3.868 0 5.775-1.768 1.906-1.767 2.185-5.469zm25.338 14.056q-6.624 0-10.785-4.064-4.161-4.063-4.161-10.826v-.78q0-4.536 1.753-8.113 1.754-3.576 4.968-5.51 3.215-1.935 7.334-1.935 6.179 0 9.727 3.897 3.549 3.896 3.549 11.049v3.284h-19.176q.39 2.95 2.351 4.732 1.963 1.78 4.968 1.78 4.648 0 7.265-3.367l3.952 4.425q-1.81 2.56-4.899 3.994-3.089 1.434-6.846 1.434zm-.919-24.715q-2.393 0-3.882 1.614-1.49 1.614-1.907 4.62h11.189v-.64q-.056-2.672-1.448-4.133-1.391-1.461-3.952-1.461zm15.875-5.956h7.57l.251 3.479q3.229-4.036 8.656-4.036 4.787 0 7.125 2.811t2.393 8.405V795h-8.043v-19.26q0-2.56-1.113-3.715-1.114-1.155-3.702-1.155-3.395 0-5.093 2.894V795h-8.044v-30.114zm31.851-7.404h8.044v7.404h5.148v5.9h-5.148v15.03q0 1.67.64 2.393.64.724 2.449.724 1.336 0 2.366-.195v6.095q-2.366.724-4.871.724-8.46 0-8.628-8.545v-16.226h-4.397v-5.9h4.397v-7.404zm49.663 16.366v1.809q0 5.984-2.115 10.492-2.115 4.51-6.053 6.958-3.939 2.45-9.032 2.45-5.037 0-8.99-2.422-3.952-2.421-6.123-6.916-2.17-4.495-2.198-10.34v-2.004q0-5.983 2.157-10.534 2.157-4.55 6.095-6.986 3.938-2.435 9.004-2.435 5.065 0 9.003 2.435 3.938 2.436 6.095 6.986 2.157 4.55 2.157 10.507zm-8.46 1.948v-1.976q0-6.374-2.283-9.686-2.282-3.312-6.512-3.312-4.203 0-6.485 3.27-2.283 3.27-2.31 9.589v1.976q0 6.206 2.282 9.63 2.282 3.423 6.568 3.423 4.203 0 6.457-3.298 2.255-3.298 2.282-9.616zm33.715 8.572q0-2.366-1.67-3.632t-6.012-2.672q-4.342-1.405-6.874-2.77-6.903-3.729-6.903-10.046 0-3.285 1.851-5.86 1.851-2.574 5.316-4.02 3.465-1.448 7.78-1.448 4.341 0 7.737 1.572 3.395 1.573 5.274 4.44 1.878 2.866 1.878 6.512h-8.35q0-2.783-1.753-4.328-1.753-1.544-4.926-1.544-3.061 0-4.76 1.294-1.697 1.294-1.697 3.41 0 1.975 1.99 3.311 1.99 1.336 5.859 2.505 7.125 2.143 10.381 5.316 3.256 3.173 3.256 7.904 0 5.26-3.98 8.253-3.98 2.992-10.715 2.992-4.676 0-8.517-1.712-3.84-1.712-5.858-4.69-2.018-2.978-2.018-6.902h8.377q0 6.707 8.016 6.707 2.978 0 4.648-1.21 1.67-1.21 1.67-3.382z" fill="#4A4A4A" fill-rule="nonzero"></path><path fill="#555" d="M357 177h486.4L357 676.2z"></path><path fill="#3A3A3A" d="M843.4 177v499.2H357z"></path></g></svg>