<svg viewBox="0 0 1200 900" xmlns="http://www.w3.org/2000/svg"><g fill="none" fill-rule="evenodd"><path d="M917 96v708c0 9.389-7.623 17-17.027 17H301.027c-9.404 0-17.027-7.611-17.027-17V96c0-9.389 7.623-17 17.027-17h598.946C909.377 79 917 86.611 917 96z" fill="#D2D2D2"></path><path fill="#A3A3A3" d="M580 787h312v13.05H580zm0-21h312v13.05H580zm0-20h312v13.05H580zM308 102h584v13H308z"></path><path d="M314.849 138H886.15c3.762 0 6.811 3.044 6.811 6.8v570.4c0 3.756-3.05 6.8-6.81 6.8H314.848c-3.762 0-6.811-3.044-6.811-6.8V144.8c0-3.756 3.05-6.8 6.81-6.8z" fill="#FFF"></path><text font-size="57.35" font-weight="bold" letter-spacing="-1.826" fill="#4A4A4A" transform="translate(284 79)" class="sans-serif"><tspan x="51.081" y="716">CentOS</tspan></text><path fill="#555" d="M357 177h486.4L357 676.2z"></path><path fill="#3A3A3A" d="M843.4 177v499.2H357z"></path></g></svg>