<svg viewBox="0 0 1200 900" xmlns="http://www.w3.org/2000/svg"><g fill="none" fill-rule="evenodd"><path fill="#000" fill-rule="nonzero" d="M71 159h1038v8H71z"/><text font-family="sans-serif" font-size="48.5" font-weight="bold" letter-spacing="-1.545" fill="#000"><tspan x="71" y="141">When to use each Service</tspan></text><text font-family="sans-serif" font-size="97.35" font-weight="bold" letter-spacing="-3.1" fill="#000"><tspan x="71" y="372">ClusterIP</tspan></text><path d="M565.587 292c22.996 0 41.588 18.592 41.588 41.588 0 22.995-18.592 41.587-41.588 41.587-22.995 0-41.587-18.592-41.587-41.587C524 310.592 542.592 292 565.587 292zm1.835 55.287l23.974-23.974-8.073-8.073-23.973 23.974-11.376-11.374-8.074 8.072 11.375 11.375 8.073 8.073 8.073-8.073z" fill="#00C176" fill-rule="nonzero"/><text font-family="sans-serif" font-size="97.35" font-weight="bold" letter-spacing="-3.1" fill="#000"><tspan x="71" y="492">NodePort</tspan></text><path d="M567.02 417c-11.473 0-22.397 4.507-30.456 12.564C528.507 437.758 524 448.547 524 460.02c0 11.472 4.507 22.396 12.564 30.455 8.194 8.059 18.983 12.565 30.456 12.565 11.472 0 22.261-4.505 30.456-12.564 8.058-8.195 12.564-18.984 12.564-30.456 0-11.473-4.505-22.398-12.563-30.456C589.281 421.507 578.492 417 567.02 417z" fill="#F5A623" fill-rule="nonzero"/><path d="M567.02 489.121h-.1c-4.295 0-7.492-3.092-7.492-7.64 0-4.35 3.197-7.543 7.592-7.543s7.591 3.192 7.591 7.543c0 4.548-3.196 7.64-7.591 7.64zm7.779-46.6c-2.052 10.704-3.673 13.915-5.293 25.417-.324 1.2-4.753 1.303-4.97 0-1.619-11.502-3.346-14.713-5.401-25.417-.648-3.8-.972-5.603-.972-7.301 0-2.402 1.837-4.302 8.858-4.302h.106c6.698 0 8.75 1.9 8.75 4.302.002 1.698-.43 3.501-1.078 7.301z" fill="#FFF"/><text font-family="sans-serif" font-size="97.35" font-weight="bold" letter-spacing="-3.1" fill="#000"><tspan x="71" y="612">LoadBalancer</tspan></text><g transform="translate(709 548)" fill-rule="nonzero"><circle fill="#FFF" cx="41.587" cy="41.587" r="31.802"/><path d="M60.202 52.678l-7.525 7.524-11.09-11.09-11.09 11.09-7.525-7.524 11.09-11.09-11.09-11.091 7.525-7.525 11.09 11.09 11.09-11.09 7.525 7.525-11.089 11.09 11.09 11.09zM71.03 12.146C63.107 4.356 52.677 0 41.587 0S19.936 4.357 12.146 12.146C4.356 20.067 0 30.496 0 41.587c0 11.09 4.357 21.651 12.146 29.442 7.92 7.79 18.35 12.146 29.441 12.146 11.09 0 21.52-4.356 29.443-12.146 7.789-7.922 12.144-18.351 12.144-29.442 0-11.09-4.355-21.652-12.144-29.441z" fill="#FF003C"/></g><text font-family="sans-serif" font-size="97.35" font-weight="bold" letter-spacing="-3.1" fill="#000"><tspan x="71" y="728">Headless</tspan></text><path d="M565.587 661c22.996 0 41.588 18.592 41.588 41.588 0 22.995-18.592 41.587-41.588 41.587-22.995 0-41.587-18.592-41.587-41.587C524 679.592 542.592 661 565.587 661zm1.835 55.287l23.974-23.974-8.073-8.073-23.973 23.974-11.376-11.374-8.074 8.072 11.375 11.375 8.073 8.073 8.073-8.073zM674.587 661c22.996 0 41.588 18.592 41.588 41.588 0 22.995-18.592 41.587-41.588 41.587-22.995 0-41.587-18.592-41.587-41.587C633 679.592 651.592 661 674.587 661zm1.835 55.287l23.974-23.974-8.073-8.073-23.973 23.974-11.376-11.374-8.074 8.072 11.375 11.375 8.073 8.073 8.073-8.073z" fill="#00C176" fill-rule="nonzero"/></g></svg>