<svg viewBox="0 0 1200 900" xmlns="http://www.w3.org/2000/svg"><g fill="none" fill-rule="evenodd"><path fill="#000" fill-rule="nonzero" d="M71 159h1038v8H71zm24.023-52.125l5.602 24.281 4.594-24.281h7.008L104.657 141h-7.079l-5.555-22.828L86.47 141h-7.08l-7.57-34.125h7.007l4.617 24.234 5.625-24.234h5.953zm25.62-1.875v13.406q2.695-3.234 6.773-3.234 8.25 0 8.367 9.586V141h-6.773v-16.055q0-2.18-.938-3.222-.937-1.043-3.117-1.043-2.977 0-4.313 2.297V141h-6.773v-36h6.773zm30.376 36.469q-5.578 0-9.082-3.422-3.504-3.422-3.504-9.117v-.657q0-3.82 1.477-6.832 1.477-3.011 4.184-4.64 2.707-1.63 6.175-1.63 5.203 0 8.192 3.282 2.988 3.281 2.988 9.305v2.765h-16.148q.328 2.485 1.98 3.985t4.184 1.5q3.914 0 6.117-2.836l3.328 3.726q-1.523 2.157-4.125 3.364-2.602 1.207-5.766 1.207zm-.773-20.813q-2.016 0-3.27 1.36-1.254 1.359-1.605 3.89h9.422v-.539q-.047-2.25-1.219-3.48-1.172-1.23-3.328-1.23zm13.361-5.015h6.375l.211 2.93q2.719-3.4 7.29-3.4 4.03 0 6 2.368 1.968 2.367 2.015 7.078V141h-6.774v-16.219q0-2.156-.937-3.129-.938-.972-3.117-.972-2.86 0-4.29 2.437V141h-6.773v-25.36zm37.223-6.235h6.773v6.235h4.336v4.968h-4.336v12.657q0 1.406.54 2.015.538.61 2.062.61 1.125 0 1.992-.164v5.132q-1.992.61-4.102.61-7.125 0-7.265-7.196V120.61h-3.703v-4.968h3.703v-6.235zm11.58 18.985v-.305q0-3.774 1.453-6.727 1.453-2.953 4.183-4.57 2.73-1.617 6.34-1.617 5.133 0 8.38 3.14 3.245 3.141 3.62 8.532l.047 1.734q0 5.836-3.258 9.363-3.258 3.528-8.742 3.528-5.484 0-8.754-3.516-3.27-3.516-3.27-9.562zm6.773.187q0 3.61 1.36 5.52 1.359 1.91 3.89 1.91 2.461 0 3.844-1.887t1.383-6.035q0-3.54-1.383-5.484-1.383-1.946-3.89-1.946-2.485 0-3.845 1.934-1.359 1.933-1.359 5.988zM264.843 141l-.187-2.578q-2.508 3.047-6.938 3.047-4.078 0-6.223-2.344-2.144-2.344-2.19-6.867V115.64h6.772v16.382q0 3.961 3.61 3.961 3.445 0 4.734-2.39V115.64h6.797V141h-6.375zm23.674-7.008q0-1.242-1.23-1.957-1.231-.715-3.95-1.277-9.047-1.899-9.047-7.688 0-3.375 2.801-5.636 2.8-2.262 7.324-2.262 4.828 0 7.723 2.273 2.895 2.274 2.895 5.907h-6.774q0-1.454-.937-2.403-.938-.949-2.93-.949-1.711 0-2.649.773-.937.774-.937 1.97 0 1.124 1.066 1.816 1.067.691 3.598 1.195 2.531.504 4.266 1.137 5.367 1.968 5.367 6.82 0 3.469-2.977 5.613-2.976 2.145-7.687 2.145-3.188 0-5.66-1.137-2.473-1.137-3.88-3.117-1.406-1.98-1.406-4.278h6.422q.094 1.805 1.336 2.766 1.242.961 3.328.961 1.946 0 2.942-.738.996-.738.996-1.934zm21.072 7.477q-5.578 0-9.082-3.422-3.504-3.422-3.504-9.117v-.657q0-3.82 1.477-6.832 1.476-3.011 4.183-4.64 2.707-1.63 6.176-1.63 5.203 0 8.191 3.282 2.989 3.281 2.989 9.305v2.765H303.87q.328 2.485 1.98 3.985 1.653 1.5 4.184 1.5 3.914 0 6.118-2.836l3.328 3.726q-1.524 2.157-4.125 3.364-2.602 1.207-5.766 1.207zm-.773-20.813q-2.016 0-3.27 1.36-1.254 1.359-1.605 3.89h9.422v-.539q-.047-2.25-1.22-3.48-1.171-1.23-3.327-1.23zm35.582 20.813q-5.579 0-9.083-3.422-3.503-3.422-3.503-9.117v-.657q0-3.82 1.476-6.832 1.477-3.011 4.184-4.64 2.707-1.63 6.175-1.63 5.204 0 8.192 3.282 2.988 3.281 2.988 9.305v2.765H338.68q.328 2.485 1.98 3.985 1.653 1.5 4.184 1.5 3.914 0 6.117-2.836l3.328 3.726q-1.523 2.157-4.125 3.364-2.601 1.207-5.766 1.207zm-.774-20.813q-2.016 0-3.27 1.36-1.253 1.359-1.605 3.89h9.422v-.539q-.047-2.25-1.219-3.48-1.172-1.23-3.328-1.23zM378.665 141h-6.844q-.469-.914-.68-2.273-2.46 2.742-6.398 2.742-3.726 0-6.176-2.156-2.449-2.157-2.449-5.438 0-4.031 2.988-6.188 2.989-2.156 8.637-2.18h3.117v-1.452q0-1.758-.902-2.813-.902-1.055-2.848-1.055-1.71 0-2.683.82-.973.821-.973 2.25h-6.773q0-2.202 1.359-4.077 1.36-1.875 3.844-2.942 2.484-1.066 5.578-1.066 4.687 0 7.441 2.355 2.754 2.356 2.754 6.621v10.993q.024 3.609 1.008 5.46V141zm-12.445-4.71q1.5 0 2.765-.669 1.266-.668 1.875-1.793v-4.36h-2.53q-5.087 0-5.415 3.516l-.023.399q0 1.265.89 2.086.89.82 2.438.82zm25.642-.282q1.875 0 3.047-1.031 1.172-1.032 1.219-2.743h6.351q-.023 2.578-1.406 4.723t-3.785 3.328q-2.402 1.184-5.309 1.184-5.437 0-8.578-3.457-3.14-3.457-3.14-9.551v-.445q0-5.86 3.117-9.352t8.555-3.492q4.757 0 7.628 2.707 2.872 2.707 2.918 7.207h-6.351q-.047-1.969-1.219-3.2-1.172-1.23-3.094-1.23-2.367 0-3.574 1.723-1.207 1.723-1.207 5.59v.703q0 3.914 1.195 5.625 1.196 1.71 3.633 1.71zM411.411 105v13.406q2.695-3.234 6.773-3.234 8.25 0 8.368 9.586V141h-6.774v-16.055q0-2.18-.937-3.222-.938-1.043-3.118-1.043-2.976 0-4.312 2.297V141h-6.774v-36h6.774zm47.254 27.047q0-1.992-1.407-3.059-1.406-1.066-5.062-2.25-3.656-1.183-5.79-2.332-5.812-3.14-5.812-8.46 0-2.766 1.559-4.934t4.477-3.387q2.918-1.219 6.55-1.219 3.657 0 6.516 1.324 2.86 1.325 4.441 3.739 1.582 2.414 1.582 5.484h-7.03q0-2.344-1.477-3.644-1.477-1.301-4.149-1.301-2.578 0-4.008 1.09-1.43 1.09-1.43 2.87 0 1.665 1.676 2.79t4.934 2.11q6 1.804 8.742 4.476 2.742 2.672 2.742 6.656 0 4.43-3.351 6.95-3.352 2.519-9.024 2.519-3.937 0-7.171-1.442-3.235-1.441-4.934-3.949-1.7-2.508-1.7-5.812h7.055q0 5.648 6.75 5.648 2.508 0 3.914-1.02 1.407-1.019 1.407-2.847zm21.494 9.422q-5.578 0-9.082-3.422-3.504-3.422-3.504-9.117v-.657q0-3.82 1.476-6.832 1.477-3.011 4.184-4.64 2.707-1.63 6.176-1.63 5.203 0 8.191 3.282 2.988 3.281 2.988 9.305v2.765H474.44q.328 2.485 1.98 3.985 1.653 1.5 4.184 1.5 3.914 0 6.117-2.836l3.328 3.726q-1.523 2.157-4.125 3.364-2.601 1.207-5.765 1.207zm-.774-20.813q-2.015 0-3.27 1.36-1.253 1.359-1.605 3.89h9.422v-.539q-.047-2.25-1.219-3.48-1.171-1.23-3.328-1.23zm27.846-5.18l-.094 6.516q-1.383-.187-2.437-.187-3.844 0-5.04 2.601V141h-6.773v-25.36h6.399l.187 3.024q2.04-3.492 5.649-3.492 1.125 0 2.109.305zm6.822.165l4.711 17.086 4.711-17.086h7.078L521.998 141h-6.468l-8.555-25.36h7.078zm25.08 0V141h-6.797v-25.36h6.797zm-7.195-6.563q0-1.523 1.02-2.508 1.019-.984 2.777-.984 1.734 0 2.765.984 1.032.985 1.032 2.508 0 1.547-1.043 2.531-1.043.985-2.754.985t-2.754-.985q-1.043-.984-1.043-2.53zm21.775 26.93q1.875 0 3.047-1.031 1.172-1.032 1.219-2.743h6.351q-.023 2.578-1.406 4.723t-3.785 3.328q-2.402 1.184-5.309 1.184-5.437 0-8.578-3.457-3.14-3.457-3.14-9.551v-.445q0-5.86 3.117-9.352t8.554-3.492q4.758 0 7.63 2.707 2.87 2.707 2.917 7.207h-6.351q-.047-1.969-1.219-3.2-1.172-1.23-3.094-1.23-2.367 0-3.574 1.723-1.207 1.723-1.207 5.59v.703q0 3.914 1.195 5.625 1.196 1.71 3.633 1.71zm24.611 5.46q-5.578 0-9.082-3.421-3.504-3.422-3.504-9.117v-.657q0-3.82 1.477-6.832 1.477-3.011 4.184-4.64 2.707-1.63 6.175-1.63 5.204 0 8.192 3.282 2.988 3.281 2.988 9.305v2.765h-16.148q.328 2.485 1.98 3.985t4.184 1.5q3.914 0 6.117-2.836l3.328 3.726q-1.523 2.157-4.125 3.364-2.602 1.207-5.766 1.207zm-.773-20.812q-2.016 0-3.27 1.36-1.253 1.359-1.605 3.89h9.422v-.539q-.047-2.25-1.219-3.48-1.172-1.23-3.328-1.23zM117.084 349.029h14.21q-.806 11.13-8.218 17.524t-19.537 6.394q-13.262 0-20.864-8.928t-7.602-24.51v-4.216q0-9.946 3.505-17.524 3.505-7.578 10.017-11.628 6.513-4.05 15.133-4.05 11.936 0 19.23 6.395 7.293 6.394 8.43 17.95H117.18q-.52-6.678-3.718-9.685-3.197-3.008-9.733-3.008-7.104 0-10.633 5.092-3.529 5.091-3.623 15.795v5.21q0 11.178 3.386 16.34 3.387 5.163 10.68 5.163 6.584 0 9.828-3.007 3.245-3.008 3.718-9.307zm33.986-49.779V372h-13.735v-72.75h13.735zM190.313 372l-.38-5.21q-5.067 6.157-14.019 6.157-8.241 0-12.575-4.736-4.333-4.736-4.428-13.878v-33.58h13.688v33.107q0 8.004 7.294 8.004 6.962 0 9.567-4.83v-36.281h13.736V372h-12.883zm47.863-14.162q0-2.51-2.487-3.954-2.487-1.445-7.98-2.582-18.283-3.836-18.283-15.535 0-6.82 5.66-11.39 5.66-4.571 14.801-4.571 9.757 0 15.606 4.594 5.85 4.594 5.85 11.935h-13.688q0-2.936-1.895-4.854-1.894-1.918-5.92-1.918-3.458 0-5.352 1.562-1.895 1.563-1.895 3.979 0 2.273 2.155 3.67 2.155 1.398 7.27 2.416 5.116 1.018 8.62 2.297 10.847 3.979 10.847 13.783 0 7.01-6.015 11.344-6.016 4.333-15.536 4.333-6.441 0-11.438-2.297-4.997-2.297-7.838-6.3-2.842-4.001-2.842-8.643h12.977q.19 3.647 2.7 5.589 2.51 1.942 6.726 1.942 3.93 0 5.944-1.492 2.013-1.492 2.013-3.908zm21.718-49.684h13.688v12.599h8.762v10.04h-8.762v25.577q0 2.842 1.09 4.073 1.089 1.232 4.167 1.232 2.274 0 4.026-.332v10.373q-4.026 1.231-8.288 1.231-14.399 0-14.683-14.54v-27.613h-7.483v-10.041h7.483v-12.599zm50.563 64.793q-11.273 0-18.354-6.915-7.08-6.915-7.08-18.424v-1.326q0-7.72 2.983-13.807 2.984-6.086 8.455-9.378 5.47-3.291 12.48-3.291 10.515 0 16.553 6.63 6.04 6.631 6.04 18.804v5.589H298.9q.663 5.02 4.002 8.051 3.34 3.032 8.454 3.032 7.91 0 12.362-5.731l6.726 7.53q-3.079 4.358-8.336 6.797-5.257 2.44-11.651 2.44zm-1.563-42.058q-4.074 0-6.608 2.747t-3.244 7.862h19.04v-1.09q-.095-4.546-2.463-7.033-2.368-2.486-6.725-2.486zm56.293-10.468l-.19 13.167q-2.794-.379-4.925-.379-7.768 0-10.183 5.258V372H336.2v-51.247h12.93l.379 6.11q4.12-7.057 11.414-7.057 2.274 0 4.263.615zm19.303-17.382V372h-14.21v-68.96h14.209zm36.732 44.664h-12.456V372h-14.21v-68.96h26.903q7.768 0 13.665 2.84 5.896 2.843 9.07 8.076 3.173 5.234 3.173 11.912 0 10.136-6.939 15.985-6.938 5.85-19.206 5.85zm-12.456-33.155v21.645h12.693q5.637 0 8.597-2.652t2.96-7.578q0-5.068-2.984-8.194-2.984-3.126-8.241-3.22h-13.025z"></path><path d="M565.587 292c22.996 0 41.588 18.592 41.588 41.588 0 22.995-18.592 41.587-41.588 41.587-22.995 0-41.587-18.592-41.587-41.587C524 310.592 542.592 292 565.587 292zm1.835 55.287l23.974-23.974-8.073-8.073-23.973 23.974-11.376-11.374-8.074 8.072 11.375 11.375 8.073 8.073 8.073-8.073z" fill="#00C176" fill-rule="nonzero"></path><path d="M133.235 423.04V492h-14.209l-27.66-45.374V492H77.157v-68.96h14.21l27.707 45.468v-45.469h14.161zm6.278 43.479v-.616q0-7.626 2.937-13.593 2.936-5.968 8.454-9.236 5.518-3.268 12.812-3.268 10.372 0 16.932 6.346 6.56 6.347 7.318 17.24l.095 3.505q0 11.794-6.584 18.922-6.583 7.128-17.666 7.128t-17.69-7.104q-6.608-7.105-6.608-19.324zm13.688.378q0 7.294 2.747 11.155 2.747 3.86 7.863 3.86 4.973 0 7.767-3.813 2.795-3.813 2.795-12.196 0-7.152-2.795-11.083-2.794-3.931-7.862-3.931-5.02 0-7.768 3.907-2.747 3.908-2.747 12.101zm38.059-.9q0-11.982 5.376-19.087 5.375-7.104 14.706-7.104 7.483 0 12.362 5.589V419.25h13.735V492h-12.362l-.663-5.447q-5.115 6.394-13.167 6.394-9.046 0-14.517-7.128-5.47-7.128-5.47-19.821zm13.688.995q0 7.2 2.51 11.036 2.51 3.836 7.294 3.836 6.347 0 8.952-5.352v-20.224q-2.558-5.352-8.857-5.352-9.9 0-9.9 16.056zm63.587 25.955q-11.272 0-18.353-6.915-7.08-6.915-7.08-18.424v-1.326q0-7.72 2.983-13.807 2.984-6.086 8.455-9.378 5.47-3.291 12.48-3.291 10.514 0 16.553 6.63 6.04 6.631 6.04 18.804v5.589h-32.634q.663 5.02 4.002 8.051 3.34 3.032 8.454 3.032 7.91 0 12.362-5.731l6.726 7.53q-3.079 4.358-8.336 6.797-5.258 2.44-11.652 2.44zm-1.563-42.058q-4.073 0-6.607 2.747t-3.244 7.862h19.04v-1.09q-.095-4.546-2.463-7.033-2.368-2.486-6.726-2.486zm54.873 16.814H309.39V492h-14.21v-68.96h26.903q7.768 0 13.664 2.84 5.897 2.843 9.07 8.076 3.174 5.234 3.174 11.912 0 10.136-6.94 15.985-6.938 5.85-19.205 5.85zm-12.456-33.155v21.645h12.693q5.636 0 8.596-2.652t2.96-7.578q0-5.068-2.983-8.194-2.984-3.126-8.242-3.22H309.39zm41.61 31.97v-.615q0-7.626 2.937-13.593 2.937-5.968 8.454-9.236 5.518-3.268 12.812-3.268 10.373 0 16.933 6.346 6.56 6.347 7.317 17.24l.095 3.505q0 11.794-6.584 18.922-6.583 7.128-17.666 7.128t-17.69-7.104Q351 478.738 351 466.519zm13.688.38q0 7.293 2.748 11.154 2.747 3.86 7.862 3.86 4.973 0 7.767-3.813 2.795-3.813 2.795-12.196 0-7.152-2.795-11.083-2.794-3.931-7.862-3.931-5.02 0-7.767 3.907-2.748 3.908-2.748 12.101zm69.177-26.477l-.19 13.167q-2.794-.379-4.925-.379-7.768 0-10.183 5.258V492h-13.688v-51.247h12.93l.379 6.11q4.12-7.057 11.414-7.057 2.274 0 4.263.615zm8.362-12.267h13.688v12.599h8.762v10.04h-8.762v25.577q0 2.842 1.09 4.073 1.088 1.232 4.167 1.232 2.274 0 4.026-.332v10.373q-4.026 1.231-8.289 1.231-14.398 0-14.682-14.54v-27.613h-7.484v-10.041h7.484v-12.599z" fill="#000" fill-rule="nonzero"></path><path d="M567.02 417c-11.473 0-22.397 4.507-30.456 12.564C528.507 437.758 524 448.547 524 460.02c0 11.472 4.507 22.396 12.564 30.455 8.194 8.059 18.983 12.565 30.456 12.565 11.472 0 22.261-4.505 30.456-12.564 8.058-8.195 12.564-18.984 12.564-30.456 0-11.473-4.505-22.398-12.563-30.456C589.281 421.507 578.492 417 567.02 417z" fill="#F5A623" fill-rule="nonzero"></path><path d="M567.02 489.121h-.1c-4.295 0-7.492-3.092-7.492-7.64 0-4.35 3.197-7.543 7.592-7.543s7.591 3.192 7.591 7.543c0 4.548-3.196 7.64-7.591 7.64zm7.779-46.6c-2.052 10.704-3.673 13.915-5.293 25.417-.324 1.2-4.753 1.303-4.97 0-1.619-11.502-3.346-14.713-5.401-25.417-.648-3.8-.972-5.603-.972-7.301 0-2.402 1.837-4.302 8.858-4.302h.106c6.698 0 8.75 1.9 8.75 4.302.002 1.698-.43 3.501-1.078 7.301z" fill="#FFF"></path><path d="M91.366 543.04v57.545h30.17V612H77.158v-68.96h14.21zm32.186 43.479v-.616q0-7.626 2.936-13.593 2.937-5.968 8.455-9.236 5.518-3.268 12.811-3.268 10.373 0 16.933 6.346 6.56 6.347 7.317 17.24l.095 3.505q0 11.794-6.583 18.922-6.584 7.128-17.667 7.128-11.083 0-17.69-7.104-6.607-7.105-6.607-19.324zm13.688.378q0 7.294 2.747 11.155 2.747 3.86 7.862 3.86 4.973 0 7.768-3.813 2.794-3.813 2.794-12.196 0-7.152-2.794-11.083-2.795-3.931-7.863-3.931-5.02 0-7.767 3.907-2.747 3.908-2.747 12.101zM220.957 612h-13.83q-.948-1.847-1.374-4.594-4.973 5.541-12.93 5.541-7.53 0-12.48-4.357-4.95-4.358-4.95-10.988 0-8.147 6.04-12.504 6.038-4.358 17.452-4.405h6.3v-2.937q0-3.552-1.824-5.683-1.823-2.132-5.754-2.132-3.458 0-5.423 1.658-1.966 1.658-1.966 4.547H176.53q0-4.452 2.747-8.241 2.747-3.79 7.768-5.944 5.02-2.155 11.272-2.155 9.473 0 15.038 4.76 5.565 4.76 5.565 13.38v22.213q.047 7.294 2.037 11.036V612zm-25.15-9.52q3.031 0 5.589-1.35 2.557-1.35 3.789-3.623v-8.81h-5.115q-10.278 0-10.941 7.105l-.048.805q0 2.558 1.8 4.215 1.8 1.658 4.926 1.658zm28.396-16.482q0-11.983 5.376-19.088 5.376-7.104 14.706-7.104 7.484 0 12.362 5.589V539.25h13.736V612H258.02l-.663-5.447q-5.116 6.394-13.167 6.394-9.047 0-14.517-7.128-5.47-7.128-5.47-19.821zm13.688.994q0 7.2 2.51 11.036 2.51 3.836 7.295 3.836 6.346 0 8.951-5.352v-20.224q-2.557-5.352-8.857-5.352-9.899 0-9.899 16.056zM305.6 612h-26.808v-68.96h24.155q12.551 0 19.04 4.806 6.489 4.808 6.489 14.091 0 5.068-2.605 8.928-2.605 3.86-7.247 5.66 5.305 1.326 8.36 5.352 3.055 4.026 3.055 9.852 0 9.946-6.347 15.061-6.346 5.115-18.092 5.21zm.426-30.028H293v18.613h12.172q5.02 0 7.839-2.391 2.818-2.392 2.818-6.608 0-9.472-9.804-9.614zM293 554.548v17.383h10.515q10.751-.19 10.751-8.573 0-4.69-2.723-6.75-2.724-2.06-8.597-2.06H293zM380.223 612h-13.83q-.948-1.847-1.374-4.594-4.973 5.541-12.93 5.541-7.53 0-12.48-4.357-4.95-4.358-4.95-10.988 0-8.147 6.039-12.504 6.039-4.358 17.453-4.405h6.3v-2.937q0-3.552-1.824-5.683-1.823-2.132-5.754-2.132-3.458 0-5.424 1.658-1.965 1.658-1.965 4.547h-13.688q0-4.452 2.747-8.241 2.747-3.79 7.768-5.944 5.02-2.155 11.272-2.155 9.473 0 15.038 4.76 5.565 4.76 5.565 13.38v22.213q.047 7.294 2.037 11.036V612zm-25.15-9.52q3.031 0 5.589-1.35 2.557-1.35 3.789-3.623v-8.81h-5.116q-10.277 0-10.94 7.105l-.048.805q0 2.558 1.8 4.215 1.8 1.658 4.926 1.658zm44.973-63.23V612h-13.735v-72.75h13.735zm51.7 72.75h-13.83q-.948-1.847-1.374-4.594-4.973 5.541-12.93 5.541-7.53 0-12.48-4.357-4.95-4.358-4.95-10.988 0-8.147 6.04-12.504 6.038-4.358 17.453-4.405h6.299v-2.937q0-3.552-1.824-5.683-1.823-2.132-5.754-2.132-3.458 0-5.423 1.658-1.966 1.658-1.966 4.547h-13.688q0-4.452 2.747-8.241 2.747-3.79 7.768-5.944 5.02-2.155 11.272-2.155 9.473 0 15.038 4.76 5.565 4.76 5.565 13.38v22.213q.048 7.294 2.037 11.036V612zm-25.15-9.52q3.031 0 5.589-1.35 2.557-1.35 3.789-3.623v-8.81h-5.115q-10.278 0-10.941 7.105l-.048.805q0 2.558 1.8 4.215 1.8 1.658 4.926 1.658zm30.244-41.727h12.882l.427 5.92q5.494-6.867 14.73-6.867 8.146 0 12.125 4.783 3.978 4.784 4.073 14.304V612h-13.688v-32.775q0-4.358-1.895-6.323-1.894-1.966-6.299-1.966-5.778 0-8.667 4.926V612H456.84v-51.247zm72.823 41.159q3.79 0 6.157-2.084 2.368-2.084 2.463-5.542h12.836q-.048 5.21-2.842 9.544-2.795 4.334-7.65 6.725-4.854 2.392-10.727 2.392-10.988 0-17.335-6.986-6.347-6.986-6.347-19.3v-.9q0-11.841 6.3-18.898 6.299-7.057 17.287-7.057 9.615 0 15.417 5.47t5.897 14.564h-12.836q-.095-3.978-2.463-6.465-2.368-2.486-6.252-2.486-4.783 0-7.223 3.48-2.439 3.482-2.439 11.297v1.42q0 7.91 2.416 11.368 2.415 3.458 7.341 3.458zm49.757 11.035q-11.272 0-18.353-6.915-7.08-6.915-7.08-18.424v-1.326q0-7.72 2.983-13.807 2.984-6.086 8.455-9.378 5.47-3.291 12.48-3.291 10.514 0 16.553 6.63 6.04 6.631 6.04 18.804v5.589h-32.634q.663 5.02 4.002 8.051 3.34 3.032 8.454 3.032 7.91 0 12.362-5.731l6.726 7.53q-3.079 4.358-8.336 6.797-5.258 2.44-11.652 2.44zm-1.563-42.058q-4.073 0-6.607 2.747t-3.244 7.862h19.04v-1.09q-.095-4.546-2.463-7.033-2.368-2.486-6.726-2.486zm56.294-10.468l-.19 13.167q-2.794-.379-4.925-.379-7.768 0-10.183 5.258V612h-13.688v-51.247h12.93l.379 6.11q4.12-7.057 11.414-7.057 2.274 0 4.263.615z" fill="#000" fill-rule="nonzero"></path><g transform="translate(709 548)" fill-rule="nonzero"><circle fill="#FFF" cx="41.587" cy="41.587" r="31.802"></circle><path d="M60.202 52.678l-7.525 7.524-11.09-11.09-11.09 11.09-7.525-7.524 11.09-11.09-11.09-11.091 7.525-7.525 11.09 11.09 11.09-11.09 7.525 7.525-11.089 11.09 11.09 11.09zM71.03 12.146C63.107 4.356 52.677 0 41.587 0S19.936 4.357 12.146 12.146C4.356 20.067 0 30.496 0 41.587c0 11.09 4.357 21.651 12.146 29.442 7.92 7.79 18.35 12.146 29.441 12.146 11.09 0 21.52-4.356 29.443-12.146 7.789-7.922 12.144-18.351 12.144-29.442 0-11.09-4.355-21.652-12.144-29.441z" fill="#FF003C"></path></g><path d="M133.283 659.04V728h-14.21v-29.555H91.367V728h-14.21v-68.96h14.21v27.943h27.707V659.04h14.209zm31.996 69.907q-11.273 0-18.353-6.915-7.081-6.915-7.081-18.424v-1.326q0-7.72 2.984-13.807 2.984-6.086 8.454-9.378 5.47-3.291 12.48-3.291 10.515 0 16.554 6.63 6.039 6.631 6.039 18.804v5.589h-32.634q.663 5.02 4.002 8.051 3.34 3.032 8.455 3.032 7.91 0 12.362-5.731l6.725 7.53q-3.078 4.358-8.336 6.797-5.257 2.44-11.651 2.44zm-1.563-42.058q-4.073 0-6.607 2.747t-3.245 7.862h19.04v-1.09q-.094-4.546-2.462-7.033-2.369-2.486-6.726-2.486zM234.55 728h-13.83q-.947-1.847-1.374-4.594-4.973 5.541-12.93 5.541-7.53 0-12.48-4.357-4.95-4.358-4.95-10.988 0-8.147 6.04-12.504 6.038-4.358 17.453-4.405h6.299v-2.937q0-3.552-1.823-5.683-1.824-2.132-5.755-2.132-3.458 0-5.423 1.658-1.966 1.658-1.966 4.547h-13.688q0-4.452 2.747-8.241 2.747-3.79 7.768-5.944 5.02-2.155 11.272-2.155 9.473 0 15.038 4.76 5.565 4.76 5.565 13.38v22.213q.048 7.294 2.037 11.036V728zm-25.15-9.52q3.031 0 5.589-1.35 2.558-1.35 3.789-3.623v-8.81h-5.115q-10.278 0-10.941 7.105l-.047.805q0 2.558 1.8 4.215 1.8 1.658 4.925 1.658zm28.397-16.482q0-11.983 5.375-19.088 5.376-7.104 14.707-7.104 7.483 0 12.362 5.589V655.25h13.735V728h-12.362l-.663-5.447q-5.115 6.394-13.167 6.394-9.046 0-14.517-7.128-5.47-7.128-5.47-19.821zm13.688.994q0 7.2 2.51 11.036 2.51 3.836 7.294 3.836 6.347 0 8.952-5.352v-20.224q-2.558-5.352-8.857-5.352-9.9 0-9.9 16.056zm54.446-47.742V728h-13.735v-72.75h13.735zm31.76 73.697q-11.273 0-18.354-6.915-7.08-6.915-7.08-18.424v-1.326q0-7.72 2.983-13.807 2.984-6.086 8.455-9.378 5.47-3.291 12.48-3.291 10.514 0 16.553 6.63 6.04 6.631 6.04 18.804v5.589h-32.634q.663 5.02 4.002 8.051 3.34 3.032 8.454 3.032 7.91 0 12.362-5.731l6.726 7.53q-3.079 4.358-8.336 6.797-5.258 2.44-11.652 2.44zm-1.564-42.058q-4.073 0-6.607 2.747t-3.244 7.862h19.04v-1.09q-.095-4.546-2.463-7.033-2.368-2.486-6.726-2.486zm55.063 26.95q0-2.51-2.487-3.955-2.487-1.445-7.98-2.582-18.283-3.836-18.283-15.535 0-6.82 5.66-11.39 5.66-4.571 14.801-4.571 9.757 0 15.606 4.594 5.85 4.594 5.85 11.935h-13.688q0-2.936-1.895-4.854-1.895-1.918-5.92-1.918-3.458 0-5.352 1.562-1.895 1.563-1.895 3.979 0 2.273 2.155 3.67 2.155 1.398 7.27 2.416 5.116 1.018 8.62 2.297 10.847 3.979 10.847 13.783 0 7.01-6.016 11.344-6.015 4.333-15.535 4.333-6.441 0-11.438-2.297-4.997-2.297-7.839-6.3-2.841-4.001-2.841-8.643h12.977q.19 3.647 2.7 5.589 2.51 1.942 6.726 1.942 3.93 0 5.944-1.492 2.013-1.492 2.013-3.908zm46.773 0q0-2.51-2.486-3.955-2.487-1.445-7.981-2.582-18.282-3.836-18.282-15.535 0-6.82 5.66-11.39 5.66-4.571 14.8-4.571 9.757 0 15.607 4.594t5.85 11.935h-13.689q0-2.936-1.894-4.854-1.895-1.918-5.92-1.918-3.458 0-5.353 1.562-1.894 1.563-1.894 3.979 0 2.273 2.155 3.67 2.155 1.398 7.27 2.416t8.62 2.297q10.846 3.979 10.846 13.783 0 7.01-6.015 11.344-6.015 4.333-15.535 4.333-6.442 0-11.438-2.297-4.997-2.297-7.839-6.3-2.842-4.001-2.842-8.643h12.978q.19 3.647 2.7 5.589 2.51 1.942 6.725 1.942 3.931 0 5.944-1.492t2.013-3.908z" fill="#000" fill-rule="nonzero"></path><path d="M565.587 661c22.996 0 41.588 18.592 41.588 41.588 0 22.995-18.592 41.587-41.588 41.587-22.995 0-41.587-18.592-41.587-41.587C524 679.592 542.592 661 565.587 661zm1.835 55.287l23.974-23.974-8.073-8.073-23.973 23.974-11.376-11.374-8.074 8.072 11.375 11.375 8.073 8.073 8.073-8.073zM674.587 661c22.996 0 41.588 18.592 41.588 41.588 0 22.995-18.592 41.587-41.588 41.587-22.995 0-41.587-18.592-41.587-41.587C633 679.592 651.592 661 674.587 661zm1.835 55.287l23.974-23.974-8.073-8.073-23.973 23.974-11.376-11.374-8.074 8.072 11.375 11.375 8.073 8.073 8.073-8.073z" fill="#00C176" fill-rule="nonzero"></path></g></svg>