<svg xmlns="http://www.w3.org/2000/svg" viewBox="0 0 900 900"><path d="M145.9 471.2c-27.6.2-50.9-16.2-59.5-41.9-.3-1-.6-1.9-.9-2.9-9.4-32.8 8.8-67.2 41.4-78.2L650 173c6.2-1.8 12.6-2.7 19.1-2.8 28.3-.2 52.3 16.6 61.1 42.8l.8 2.5c9.8 34.2-14.5 64.7-43.7 74.5 0 0-5.3 1.8-520.2 177.6-6.8 2.3-14 3.5-21.2 3.6z" fill="#70cadb"/><path d="M233.1 728.5c-27.8.2-51.2-16-59.7-41.3-.3-1-.6-1.9-.9-2.9-9.5-33.2 8.7-68 41.4-79L737 428.5c6.8-2.3 13.7-3.4 20.8-3.5 27.9-.2 52.3 16.8 61 42.4l.8 2.7c5.1 17.7 2.1 37.5-8 53.2-7.5 11.7-31.1 21.9-31.1 21.9L255.3 724.7c-7.1 2.4-14.6 3.7-22.2 3.8z" fill="#e01765"/><path d="M668.6 729.6c-27.8.3-52.6-17.4-61.5-43.8L432.5 167.2l-.9-2.9c-9.5-33.1 8.7-67.6 41.3-78.6 6.5-2.2 13.3-3.3 20.1-3.4 10.1-.1 19.8 2.2 29 6.7 15.3 7.6 26.9 20.9 32.4 37.1L729 644.8l.5 1.7c9.8 34.3-8.3 68.9-41 79.8-6.4 2.1-13.1 3.2-19.9 3.3z" fill="#e8a723"/><path d="M409.1 817c-27.8.3-52.7-17.4-61.5-43.8L173 254.6c-11.4-33.6 6.7-70 40.3-81.4h.1c6.5-2.2 13.2-3.3 20-3.4 27.8-.3 52.7 17.4 61.5 43.8l174.6 518.6c11.4 33.6-6.7 70-40.3 81.4-.1 0-.1 0-.2.1-6.4 2.1-13.2 3.2-19.9 3.3z" fill="#3eb890"/><path d="M582.5 612.8l121.7-41.6L664.5 453l-121.9 41.2 39.9 118.6z" fill="#cc2027"/><path d="M323.4 701.4l121.7-41.6L405 540.7l-121.9 41.2 40.3 119.5z" fill="#361238"/><path d="M495.8 355.4l121.7-41.6L578.3 197l-122 40.9 39.5 117.5z" fill="#65863a"/><path d="M236.7 443.9l121.7-41.6L318.6 284l-122 40.9 40.1 119z" fill="#1a937d"/></svg>