<svg xmlns="http://www.w3.org/2000/svg" viewBox="0 0 60 60"><path d="M50.2 12.7c-1.7 1-3.5 1.8-5.5 2.2-1.6-1.8-3.8-2.9-6.3-2.9-4.8 0-8.6 4.1-8.6 9.1 0 .7.1 1.4.2 2.1-7.2-.4-13.5-4-17.8-9.5-.7 1.3-1.2 2.9-1.2 4.6 0 3.2 1.5 5.9 3.8 7.6-1.4 0-2.7-.5-3.9-1.1v.1c0 4.4 3 8.1 6.9 8.9-.7.2-1.5.3-2.3.3-.6 0-1.1-.1-1.6-.2 1.1 3.6 4.3 6.2 8 6.3-3 2.4-6.7 3.9-10.7 3.9-.7 0-1.4 0-2.1-.1 3.8 2.6 8.3 4.1 13.2 4.1C38.4 48 47 34.2 47 22.1v-1.2c1.7-1.3 3.1-2.9 4.3-4.7-1.5.7-3.2 1.2-4.9 1.4 1.7-1 3.1-2.8 3.8-4.9z"/></svg>