<svg viewBox="0 0 1200 800" xmlns="http://www.w3.org/2000/svg"><g transform="translate(26.000000, 14.000000)" fill="none" fill-rule="evenodd"><path d="M1146.606 368.506c-1.882-40.096-11.072-81.736-37.262-112.14-41.058-47.657-73.7-27.59-136.602-56.2-39.528-17.979-34.83-76.468-93.572-98.316-47.005-17.482-80.057 16.646-162.192 2.6-49.168-8.407-114.722-64.512-160.191-85.033-84.013-37.916-179.57-14.54-249.969 44.979-93.481 79.032-88.22 184.621-189.744 233.566C-11.328 359.865-4.177 494.717 3.664 531.55c11.236 52.792 27.602 87.461 62.974 128.212 35.372 40.75 87.156 69.18 141.089 68.289 50.847-.839 97.791-26.606 147.762-36.045 123.44-23.319 240.12 61.057 364.781 76.556 108.827 13.531 225.17-30.342 305.632-104.904 80.458-74.562 125.84-185.536 120.704-295.152" fill="#D3EAF2"></path><path d="M1146.611 368.124c-1.882-39.998-11.074-81.537-37.268-111.867-34.18-39.569-62.526-32.34-107.343-45.257 6.168 14.924 13.6 29.478 20.498 43.069 14.443 28.453 31.671 55.578 52.406 79.902 20.557 24.128 44.88 45.492 71.926 62.029a361.44 361.44 0 0 0-.219-27.876M1136 475.574a467.915 467.915 0 0 1-18.808-12.771c-55.178-39.51-101.847-91.086-134.705-150.566-13.824-25.027-25.68-51.876-46-71.977-20.945-20.72-49.384-32.513-78.29-38.134-39.059-7.598-76.116-2.191-113.454-17.041-34.267-13.629-63.14-37.584-96.308-53.394-48.696-23.212-104.808-28.023-158.178-20.237-53.994 7.878-119.495 26.436-163.546 59.8-42.845 32.453-72.952 79.231-105.003 121.563C158.6 376.164 84.041 450.75 1 514.202c.693 7.262 1.655 13.346 2.627 17.916 11.238 52.816 27.604 87.5 62.977 128.269a214.228 214.228 0 0 0 28.65 27.407c.551-.514 1.098-1.036 1.658-1.543C165.85 623.666 271.18 623 361.84 644.044c90.659 21.046 177.989 60.095 270.928 64.927 87.94 4.571 176.088-21.928 263.443-10.82 22.315 2.837 43.91 8.022 65.012 14.849 23.269-14.154 45.037-30.518 64.665-48.714 54.186-50.233 92.458-116.982 110.112-188.712" fill="#C1DEE5"></path><path d="M1054.893 465.13c-55.707-42.421-121.277-70.946-174.846-116.045-36.052-30.352-66.027-67.704-103.895-95.75-37.869-28.047-87.77-46.19-132.216-30.585-39.014 13.698-68.037 51.203-108.875 57.645-34.796 5.49-68.795-13.159-103.954-15.315-41.684-2.556-81.78 18.522-112.752 46.58-30.974 28.057-54.779 62.962-81.101 95.435a743.474 743.474 0 0 1-54.178 59.855 751.7 751.7 0 0 1-109.34 89.638C56.622 568.108 39.053 578.872 21 588.82c10.498 24.925 24.778 46.949 45.73 71.108 121.975-88.937 177.449-123.494 273.392-147.587 115.625-29.035 236.313 14.358 351.241 46.044 63.714 17.566 125.596 41.164 186.262 67.277 30.028 12.925 59.778 26.482 89.418 40.27A6968.85 6968.85 0 0 1 1003.482 683c7.7-6.136 15.15-12.53 22.31-19.173 11.923-11.059 23.072-22.923 33.405-35.46.01-12.39 5.353-19.998 14.313-18.517 17.931-24.756 32.88-51.702 44.49-80.016-17.193-24.678-39.427-46.666-63.107-64.703M58.36 226.631c-1.797 16.185 2.99 35.044 17.474 42.372 9.713 4.914 21.713 3.368 31.392-1.614 13.257-6.824 24.647-20.536 35.188-31.052a404.303 404.303 0 0 0 33.788-38.28c20.89-26.912 44.828-76.312 28.267-93.278-12.564-12.872-51.006 3.543-62.895 10.785-11.966 7.288-22.807 16.82-33.175 26.196-23.712 21.445-46.421 52.303-50.038 84.871" fill="#D3EAF2"></path><path d="M279.329 176.478s-78.529 61.089-59.811 287.915c5.867 71.108 100.52 86.708 170.19 62.776 69.67-23.93 113.481-13.377 129.184 1.462 15.702 14.839 68.734 116.806 106.169 135.535 37.435 18.728 184.621 10.264 228.547-11.402 43.925-21.665 5.721-117.036 5.721-117.036L476.362 172.016l-197.033 4.462zM967.867 536.88s12.478 110.986-22.877 196.998c.694.694 72.096-31.214 72.096-31.214l-14.915-166.198-34.304.414z" fill="#81C3D3" mask="url(#mask-2)"></path><path d="M407.413 596.552c.5 2.808 1.922 5.46 1.904 8.313-.05 7.91-10.465 12.13-12.012 19.886-.912 4.572 1.65 9.277 5.266 12.218 3.614 2.94 8.143 4.468 12.564 5.938 14.408 4.791 28.947 9.612 44.036 11.295 15.09 1.684 30.972.014 44.161-7.51 14.829-8.46 25.128-24.033 28.189-40.835 1.65-9.053 1.009-19.276-5.087-26.167-6.191-6.997-16.281-8.787-25.588-9.567-20.583-1.728-40.722-.081-61.037 3.26-6.368 1.047-13.064-.071-18.995 2.74-7.474 3.54-14.992 11.511-13.4 20.43" fill="#81C3D3" mask="url(#mask-2)"></path><path d="M981.514 523.887c1.671 8.068-1.116 16.283-7.458 21.981l-112.277 100.7c-6.358 5.699-15.886 8.525-25.497 7.552l-169.72-17.146c-5.809-.594-11.427-2.555-16.194-5.535-3.111-1.945-5.869-4.323-8.073-7.046l-99.414-122.08c-5.609-6.896-7.416-15.57-4.83-23.2l45.79-135.097c.3-.844.636-1.656 1.004-2.44 3.097-6.524 9.406-11.609 17.3-13.95l156.486-46.389c8.847-2.618 19.175-1.573 27.618 2.797l149.365 77.27c.86.446 1.699.924 2.514 1.435 2.696 1.685 5.128 3.707 7.145 5.949 3.316 3.693 5.566 8.005 6.498 12.468l29.743 142.73z" fill="#0F53B7" mask="url(#mask-2)"></path><path d="M659.94 414.433c23.757 14.853 29.919 42.365 13.754 61.457-16.165 19.093-48.528 22.528-72.284 7.675-23.748-14.849-29.903-42.368-13.738-61.46s48.522-22.521 72.269-7.672" fill="#1A3877" mask="url(#mask-2)"></path><path d="M659.94 414.433c-19.696-12.316-45.309-12.046-62.7-.705 14.868-3.365 33.73-3.913 48.492 3.358 24.485 12.06 31.196 45.309 15.031 64.4-2.757 3.258-10.02 7.512-13.598 9.845 10.437-2.363 19.861-7.566 26.529-15.44 16.165-19.093 10.003-46.604-13.753-61.458" fill="#09224B" mask="url(#mask-2)"></path><path d="M982.771 547.632s7.28 112.09-24.956 192.87c-1.04.66 116.46-53.445 116.46-53.445s1.04-84.28-19.758-152.952c0 2.081-.343-78.383-27.032-123.124-26.69-44.74-79.029-70.406-99.48-75.261.347.347 53.726 99.887 53.726 99.887l1.04 112.025z" fill="#FDBDB4" mask="url(#mask-2)"></path><path d="M968.08 392.484c2.507 2.31 4.169 5.375 5.786 8.38 9.656 17.95 19.515 36.556 21.184 56.873.313 3.817-.697 8.907-4.507 9.275-3.073.296-5.214-2.88-6.622-5.628l-24.815-48.414c-1.906-3.717-3.845-7.548-4.248-11.706-.823-8.508 5.79-15.628 13.221-8.78" fill="#FD9F90" mask="url(#mask-2)"></path><path d="M952.247 353.548l-5.153 29.038c-.772-3.75-2.666-7.367-5.455-10.472-1.685-1.877-3.733-3.574-5.997-4.99a30.4 30.4 0 0 0-2.112-1.207l5.153-29.038c.719.374 1.426.778 2.111 1.207 2.265 1.415 4.314 3.113 5.998 4.99 2.79 3.105 4.684 6.723 5.455 10.472" fill="#1A3877" mask="url(#mask-2)"></path><path d="M19.737 17.537L14.52 46.686c-.781-3.764-2.699-7.395-5.522-10.512-1.705-1.884-3.78-3.587-6.07-5.009-.694-.43-1.41-.836-2.139-1.211L6.006.805a31.15 31.15 0 0 1 2.137 1.212c2.293 1.42 4.366 3.125 6.072 5.009 2.823 3.117 4.74 6.748 5.522 10.511" fill="#1A3877" mask="url(#mask-4)" transform="translate(933.000000, 336.000000)"></path><path fill="#1A3877" mask="url(#mask-6)" d="M981.99 496.278l-5.153 29.038-29.743-142.73 5.153-29.038zm.093 7.102l-5.154 29.038a18.761 18.761 0 0 0-.092-7.102l5.153-29.038c.49 2.358.507 4.766.093 7.102"></path><path d="M5.442 8.01L.486 36.692a19.026 19.026 0 0 0-.089-7.015L5.353.995c.471 2.329.487 4.707.089 7.014" fill="#1A3877" mask="url(#mask-8)" transform="translate(977.000000, 496.000000)"></path><path d="M987.218 504.352l-5.154 29.037c-.894 5.045-3.504 9.756-7.588 13.424l5.154-29.038c4.083-3.668 6.692-8.38 7.588-13.423" fill="#1A3877" mask="url(#mask-10)"></path><g transform="translate(974.000000, 504.000000)"><path d="M13.332.762L7.995 29.999a22.376 22.376 0 0 1-1.037 3.771l5.336-29.237A22.21 22.21 0 0 0 13.332.762" fill="#1A3877" mask="url(#mask-12)"></path><path d="M12.295 4.533L6.958 33.77c-1.35 3.635-3.66 6.983-6.82 9.744l5.337-29.237c3.16-2.76 5.469-6.109 6.82-9.744" fill="#1A3877" mask="url(#mask-12)"></path></g><path d="M789.326 259.614l-5.154 29.038c-6.98-3.608-15.831-4.505-23.132-2.349l5.152-29.038c7.302-2.156 16.153-1.259 23.134 2.349" fill="#1A3877" mask="url(#mask-14)"></path><g transform="translate(760.000000, 256.000000)"><path d="M29.041 3.622l-5.127 28.78c-4.124-2.123-8.906-3.3-13.631-3.457L15.41.165c4.725.158 9.507 1.333 13.631 3.457" fill="#1A3877" mask="url(#mask-16)"></path><path d="M15.41.165l-5.126 28.78c-2.779-.093-5.539.167-8.133.794L7.278.96C9.872.333 12.63.072 15.41.165M7.277.96L2.15 29.74c-.421.101-.837.213-1.249.334l5.126-28.78c.412-.12.829-.232 1.25-.334" fill="#1A3877" mask="url(#mask-16)"></path></g><path fill="#1A3877" mask="url(#mask-18)" d="M938.683 336.88l-5.153 29.038-149.357-77.266 5.154-29.038zm-172.49-79.615l-5.153 29.038-156.484 46.387 5.153-29.038zm-156.484 46.386l-5.154 29.038c-6.504 1.924-11.912 6.295-14.465 11.674a20.13 20.13 0 0 0-.848 2.045l5.154-29.037c.248-.697.525-1.386.847-2.044 2.553-5.382 7.961-9.752 14.466-11.676"></path><g transform="translate(588.000000, 303.000000)"><path d="M21.309.876l-5.192 29.237a25.789 25.789 0 0 0-7.44 3.566l5.191-29.237a25.795 25.795 0 0 1 7.44-3.566" fill="#1A3877" mask="url(#mask-20)"></path><path d="M13.868 4.442L8.676 33.679c-3.128 2.186-5.625 5.013-7.133 8.19-.313.64-.583 1.308-.827 1.983l5.192-29.237c.243-.676.513-1.344.826-1.984 1.509-3.176 4.005-6.004 7.134-8.19" fill="#1A3877" mask="url(#mask-20)"></path><path d="M5.908 14.615L.716 43.852l-.027.075L5.881 14.69l.027-.075" fill="#1A3877" mask="url(#mask-20)"></path></g><path fill="#1A3877" mask="url(#mask-22)" d="M594.396 317.371l-5.154 29.038-45.787 135.079 5.154-29.038zm-51.601 166.694l5.154-29.038c.154-.875.374-1.736.659-2.577l-5.153 29.038c-.286.84-.505 1.702-.66 2.577"></path><path d="M6.582.87L1.626 29.65a17.852 17.852 0 0 0-.634 2.555l4.955-28.78c.15-.867.361-1.72.635-2.555" fill="#1A3877" mask="url(#mask-24)" transform="translate(542.000000, 452.000000)"></path><path d="M537.656 483.238l5.154-29.038c-1.206 6.788.803 14.066 5.646 20.02l-5.154 29.037c-4.842-5.953-6.85-13.23-5.646-20.019" fill="#1A3877" mask="url(#mask-26)"></path><path d="M11.435 20.59L6.479 49.66c-4.656-5.959-6.588-13.245-5.43-20.04L6.005.549c-1.158 6.795.773 14.081 5.43 20.04" fill="#1A3877" mask="url(#mask-28)" transform="translate(537.000000, 454.000000)"></path><path fill="#1A3877" mask="url(#mask-30)" d="M979.631 517.775l-5.154 29.038-112.276 100.7 5.153-29.038z"></path><path d="M867.354 618.475l-5.154 29.038c-6.357 5.699-15.886 8.525-25.496 7.552l5.152-29.039c9.612.973 19.14-1.852 25.498-7.55" fill="#1A3877" mask="url(#mask-30)"></path><g transform="translate(836.000000, 618.000000)"><path d="M31.081.421l-5.116 28.684a26.409 26.409 0 0 1-2.505 1.974l5.116-28.683A26.409 26.409 0 0 0 31.081.42" fill="#1A3877" mask="url(#mask-32)"></path><path d="M28.576 2.396L23.46 31.079c-3.087 2.15-6.705 3.732-10.596 4.671l5.115-28.684c3.891-.94 7.51-2.521 10.597-4.67" fill="#1A3877" mask="url(#mask-32)"></path><path d="M17.979 7.066l-5.116 28.683a36.391 36.391 0 0 1-9.724.98L8.254 8.047a36.44 36.44 0 0 0 9.725-.98m-9.725.979L3.138 36.73a37.459 37.459 0 0 1-2.483-.166L5.77 7.88c.83.083 1.658.139 2.484.166" fill="#1A3877" mask="url(#mask-32)"></path></g><path fill="#1A3877" mask="url(#mask-34)" d="M647.869 596.3l-5.153 29.038-99.414-122.081 5.154-29.039zm193.987 29.726l-5.153 29.038-169.719-17.146 5.152-29.038z"></path><path d="M975.754 514.689c5.237-4.697 7.62-11.754 6.236-18.41l-29.743-142.731c-.771-3.75-2.666-7.367-5.455-10.473-1.684-1.876-3.733-3.574-5.998-4.989a29.961 29.961 0 0 0-2.11-1.207l-149.357-77.265c-6.98-3.608-15.832-4.505-23.134-2.35L609.71 303.651c-6.505 1.924-11.913 6.294-14.466 11.676a19.914 19.914 0 0 0-.847 2.043L548.61 452.449c-2.14 6.312-.585 13.767 4.061 19.463L652.078 594c1.818 2.236 4.124 4.218 6.732 5.848 4.04 2.527 8.808 4.214 13.619 4.71l169.72 17.145c7.921.798 16.091-1.62 21.327-6.315l112.278-100.7zm11.335-18.896c1.67 8.069-1.115 16.284-7.458 21.98L867.354 618.476c-6.357 5.699-15.886 8.524-25.497 7.551l-169.72-17.146c-5.81-.593-11.428-2.555-16.194-5.535-3.112-1.945-5.868-4.323-8.074-7.045l-99.413-122.082c-5.609-6.895-7.416-15.569-4.83-23.199l45.789-135.096a27.26 27.26 0 0 1 1.004-2.44c3.1-6.524 9.407-11.61 17.302-13.952l156.485-46.387c8.846-2.618 19.175-1.574 27.618 2.797l149.364 77.27c.86.445 1.7.924 2.516 1.434 2.695 1.686 5.127 3.706 7.144 5.95 3.317 3.691 5.566 8.004 6.498 12.468l29.743 142.73z" fill="#326DE6" mask="url(#mask-34)"></path><path d="M672.137 608.88l-5.153 29.038c-5.809-.593-11.428-2.555-16.194-5.536-3.111-1.944-5.869-4.322-8.074-7.045l5.153-29.037c2.206 2.722 4.962 5.1 8.074 7.045 4.766 2.98 10.385 4.942 16.194 5.535" fill="#1A3877" mask="url(#mask-34)"></path><path d="M29.354 12.783l-5.126 29.269a37.553 37.553 0 0 1-16.11-5.58c-3.096-1.96-5.839-4.356-8.033-7.1L5.212.101c2.194 2.744 4.936 5.14 8.031 7.102a37.57 37.57 0 0 0 16.111 5.579" fill="#1A3877" mask="url(#mask-36)" transform="translate(643.000000, 596.000000)"></path><path d="M438.796 550.036l-5.567 12.927c-4.72 10.956-4.204 23.623 1.967 33.832 3.717 6.15 9.18 11.734 16.254 16.157.655.41 1.318.8 1.986 1.181.206.118.415.23.623.346a52.686 52.686 0 0 0 2.124 1.121c.507.254 1.016.498 1.528.736.184.085.367.175.552.258.692.313 1.388.613 2.09.898.134.055.272.105.408.158.57.228 1.145.446 1.722.655.233.085.468.165.703.247.499.174 1 .34 1.502.5.236.075.471.15.707.222.589.18 1.179.348 1.77.51.135.035.27.076.405.112a61.2 61.2 0 0 0 2.18.53c.197.044.394.082.592.125a58.209 58.209 0 0 0 3.934.705c.224.033.449.068.674.098a61.022 61.022 0 0 0 2.249.262c.722.07 1.445.123 2.167.167.229.013.458.023.687.033.304.015.608.036.911.046.207.006.414.005.621.01a54.294 54.294 0 0 0 2.323.008c.25-.005.5-.006.748-.012a60.158 60.158 0 0 0 1.89-.084c.11-.007.218-.01.328-.018.736-.048 1.47-.111 2.201-.187.212-.022.423-.051.635-.075.521-.06 1.041-.125 1.56-.198.26-.037.518-.078.778-.118.475-.075.95-.155 1.421-.242.261-.048.521-.094.781-.146.497-.098.991-.205 1.483-.316.22-.05.439-.095.657-.147l.207-.046c.32-.078.633-.17.95-.252.378-.1.759-.195 1.135-.302.376-.107.745-.225 1.116-.34.373-.115.748-.227 1.118-.35.366-.121.726-.254 1.089-.385.367-.13.737-.259 1.1-.398.359-.137.711-.287 1.067-.432.357-.147.717-.29 1.07-.444.352-.154.697-.319 1.045-.48.348-.162.7-.321 1.045-.49.34-.168.674-.348 1.01-.524.34-.178.684-.353 1.02-.54.33-.183.654-.378.98-.57.33-.193.663-.382.987-.584.322-.2.634-.41.95-.617.32-.208.64-.413.953-.63.054-.037.11-.071.164-.109.16-.112.311-.235.468-.35.483-.345.96-.698 1.427-1.063.241-.188.478-.382.715-.575a43.884 43.884 0 0 0 1.949-1.687 42.83 42.83 0 0 0 1.246-1.204c.19-.191.384-.376.572-.572a40.368 40.368 0 0 0 1.698-1.874 39.243 39.243 0 0 0 1.747-2.232c.41-.56.804-1.126 1.178-1.699.027-.043.057-.083.084-.126a37.032 37.032 0 0 0 1.38-2.335c.306-.56.598-1.124.871-1.694.038-.077.078-.153.115-.23.298-.635.573-1.276.832-1.921.064-.163.126-.326.189-.49.08-.208.167-.417.243-.626.136-.377.262-.757.385-1.138.023-.072.05-.143.073-.214.207-.654.39-1.311.556-1.972.04-.156.077-.311.114-.466l.006-.021c.296-1.24.405-2.519.365-3.795l-.727-22.774c-.119.674-92.82 1.66-90.086-13.75" fill="#EA932A" mask="url(#mask-38)"></path><path d="M508.725 533.186c21.031 13.15 26.485 37.505 12.175 54.408-14.31 16.901-42.96 19.943-63.992 6.793-21.024-13.145-26.472-37.508-12.162-54.41 14.31-16.9 42.955-19.937 63.98-6.791" fill="#FFC255" mask="url(#mask-38)"></path><path d="M433.229 562.963c3.323 7.747-2.02 15.949 3.143 22.61 1.727 2.229 4.311 3.707 5.877 6.05 2.204 3.299 2.256 8.077 5.482 10.38 3.171 2.263 7.733.88 11.293 2.462 2.948 1.31 4.764 4.457 7.713 5.765 3.964 1.76 8.49-.302 12.822-.482 6.607-.275 12.94 3.906 19.485 2.973 7.256-1.033 12.191-7.88 18.87-10.898 2.477-1.12 5.409-1.876 6.83-4.195 1.858-3.03.148-7.127 1.435-10.441 1.22-3.144 3.18-3.605 3.438-6.966.134-1.759-.38-3.41-.734-5.138-.355-1.727-.616-3.186.14-6.887 3.263 9.452 13.535 57.546-48.385 58.944-16.349.37-27.276-6.52-35.014-12.389-21.568-16.357-15.64-46.016-12.395-51.788" fill="#F2F2F2" mask="url(#mask-38)"></path><path d="M643.887 352.88c3.323 7.747-2.019 15.95 3.143 22.61 1.727 2.23 4.312 3.708 5.878 6.052 2.203 3.297 2.255 8.075 5.481 10.379 3.171 2.264 7.734.88 11.293 2.462 2.948 1.31 4.765 4.457 7.713 5.765 3.965 1.76 8.49-.303 12.822-.483 6.607-.273 12.94 3.906 19.486 2.974 7.255-1.033 12.19-7.879 18.868-10.898 2.478-1.12 5.41-1.875 6.831-4.195 1.858-3.03.149-7.128 1.435-10.442 1.22-3.143 3.18-3.604 3.438-6.966.135-1.758-.38-3.41-.734-5.138-.355-1.727 3.246-3.643 4.002-7.347 3.263 9.452 8.002 60.834-52.246 59.405-16.349-.388-27.277-6.52-35.014-12.39-21.569-16.357-15.642-46.016-12.396-51.787" fill="#1A3877" mask="url(#mask-38)"></path><path d="M651.87 330.537l-5.567 12.927c-4.72 10.957-4.203 23.625 1.968 33.832 3.717 6.151 9.18 11.734 16.255 16.157.654.41 1.317.8 1.985 1.181.206.118.416.231.623.347a61.274 61.274 0 0 0 2.124 1.12 53.51 53.51 0 0 0 1.528.736c.185.085.367.175.552.258.691.313 1.388.614 2.089.898.135.055.272.105.408.16.571.226 1.145.445 1.722.654.234.084.468.164.703.246.5.174 1 .34 1.504.5a59.937 59.937 0 0 0 2.476.73c.136.038.27.078.404.115.725.19 1.452.366 2.18.53.198.043.395.081.593.124.54.116 1.082.225 1.624.326a65.162 65.162 0 0 0 2.31.38c.224.033.449.068.673.097a59.03 59.03 0 0 0 2.208.26l.041.003c.723.07 1.446.122 2.169.166.228.014.457.023.686.034.304.015.607.035.91.045.208.007.415.005.623.01a53.934 53.934 0 0 0 2.322.008c.25-.004.499-.005.748-.012.632-.017 1.26-.046 1.89-.084.109-.007.22-.01.328-.017a57.18 57.18 0 0 0 2.2-.188c.214-.022.425-.05.637-.075.521-.06 1.04-.124 1.558-.197a63.8 63.8 0 0 0 2.982-.506c.496-.098.99-.205 1.482-.316.22-.05.439-.095.657-.148l.207-.046c.32-.077.632-.17.95-.252.379-.099.76-.194 1.136-.302.374-.107.743-.225 1.116-.34.372-.114.747-.226 1.116-.348.367-.123.727-.256 1.09-.385.366-.132.736-.26 1.1-.4.358-.137.712-.287 1.066-.432.358-.146.719-.289 1.071-.444.353-.154.697-.318 1.044-.48.35-.162.701-.32 1.045-.49.34-.168.674-.348 1.01-.524.341-.178.684-.353 1.02-.539.332-.183.654-.379.98-.57.33-.194.663-.383.988-.585.322-.199.635-.41.951-.617.318-.208.639-.413.952-.63.054-.037.11-.071.165-.109.16-.111.31-.235.468-.348.482-.347.96-.7 1.426-1.065.242-.188.478-.382.715-.575.426-.348.845-.703 1.257-1.067.233-.205.464-.41.692-.619.424-.392.838-.796 1.245-1.205.19-.19.385-.376.572-.57a40.337 40.337 0 0 0 1.698-1.876 40.024 40.024 0 0 0 1.747-2.23c.41-.561.805-1.127 1.178-1.7.027-.042.058-.084.085-.126a38.384 38.384 0 0 0 2.25-4.03c.038-.076.079-.152.115-.23.3-.635.573-1.276.832-1.92.066-.163.127-.327.19-.49.08-.21.167-.416.243-.626.137-.378.262-.758.385-1.139.023-.072.05-.141.072-.214.207-.654.39-1.311.558-1.972.04-.155.076-.311.114-.466l.004-.02c.297-1.241.406-2.52.365-3.795l-.726-22.775c-.12.675-92.821 1.66-90.086-13.75" fill="#EA932A" mask="url(#mask-38)"></path><path d="M721.8 313.686c21.03 13.15 26.485 37.505 12.174 54.408-14.31 16.901-42.96 19.943-63.992 6.793-21.023-13.144-26.472-37.507-12.161-54.409 14.31-16.902 42.955-19.937 63.979-6.792" fill="#FFC255" mask="url(#mask-38)"></path><path fill="#BFD16C" mask="url(#mask-38)" d="M706.108 320.992l3.559 3.03-.014.052-1.114 3.993-4.756.86-3.564-3.023 1.109-3.954z"></path><path fill="#ECBA14" mask="url(#mask-38)" d="M718.397 324.171l3.606 3.058-1.164 3.978-.011.039-4.705.882-3.605-3.059 1.104-3.946z"></path><path d="M703.782 328.928l4.755-.86 1.14-3.973-.025-.021.015-.051-3.56-3.03-4.78.957-1.11 3.954 3.565 3.024zm7.594-5.228l-1.498 5.443-6.443 1.253-4.91-4.178 1.54-5.406 6.439-1.248 4.872 4.136zm4.747 8.43l4.705-.883.011-.039 1.164-3.978-3.606-3.058-4.77.944-1.109 3.954 3.605 3.06zm7.59-5.223l-1.577 5.451-6.438 1.247-4.913-4.17 1.528-5.424 6.493-1.269 4.906 4.165z" fill="#343434" mask="url(#mask-38)"></path><path fill="#8FBE3A" mask="url(#mask-38)" d="M697.498 328.169l3.572 3.029-.014.053-1.127 3.994-4.751.854-3.564-3.024 1.118-3.95z"></path><path fill="#DB2227" mask="url(#mask-38)" d="M709.794 331.342l3.605 3.058-1.167 4.022-4.713.877-3.605-3.059 1.105-3.946 1.264-.253z"></path><path d="M695.178 336.099l4.752-.853 1.142-3.98v-.068l-3.574-3.029-4.766.957-1.117 3.95 3.563 3.023zm7.596-5.228l-1.538 5.474-6.444 1.254-4.914-4.17 1.546-5.414 6.477-1.28 4.873 4.136z" fill="#343434" mask="url(#mask-38)"></path><path fill="#E46E21" mask="url(#mask-38)" d="M722.1 334.57l3.56 3.03-1.137 4.04-4.748.865-3.564-3.024 1.109-3.952 4.706-.944z"></path><path d="M707.52 339.3l4.712-.878 1.167-4.02-3.605-3.06-3.51.7-1.26.245-1.11 3.954 3.605 3.06zm7.588-5.222l-1.583 5.446-6.445 1.242-4.915-4.17 1.54-5.407 6.498-1.276 4.905 4.165zm4.667 8.427l4.748-.865 1.137-4.04-3.56-3.03-.072.015-4.748.908-1.118 3.949 3.613 3.063zm7.587-5.233l-1.491 5.447-6.445 1.243-4.915-4.17 1.54-5.408 6.446-1.242 4.865 4.13zm-28.439 9.204l4.707-.9.037-.015 1.128-3.99-3.605-3.058-4.737.92-1.142 3.98 3.612 3.063zm7.616-5.253l-1.573 5.434-6.444 1.252-4.914-4.17 1.546-5.414 6.479-1.267 4.906 4.165z" fill="#343434" mask="url(#mask-38)"></path><path fill="#5D82BB" mask="url(#mask-38)" d="M701.19 338.514l3.605 3.058-1.128 3.99-.033.006-4.711.909-3.612-3.065 1.137-3.958z"></path><path fill="#795CA0" mask="url(#mask-38)" d="M713.492 341.747l3.565 3.023-1.137 4.041-4.748.865-3.564-3.024 1.109-3.953 4.713-.94z"></path><path d="M711.171 349.676l4.748-.865 1.137-4.04-3.565-3.024-.062.012-4.753.905-1.11 3.954.04.034 3.565 3.024zm7.595-5.227l-1.537 5.474-6.452 1.248-4.906-4.165 1.546-5.415 6.476-1.278 4.873 4.136z" fill="#343434" mask="url(#mask-38)"></path><path d="M668.708 336.774c.388.28.762.505 1.098.79.433.366.777.751 1.082 1.141.304.38.497.765.65 1.154l-1.128.942c-.248-.43-.5-.815-.755-1.153-.28-.365-.543-.68-.896-.988a5.346 5.346 0 0 0-.588-.424 6.424 6.424 0 0 0-.624-.341c-.452-.218-.931-.319-1.49-.355-.54-.016-1.083.07-1.678.257-.576.208-1.165.568-1.785 1.08-.436.36-.792.754-1.042 1.203-.249.431-.38.85-.405 1.3-.031.453.087.896.275 1.315.224.445.586.88 1.078 1.3a8.699 8.699 0 0 0 1.19.848c.436.235.887.441 1.356.639l-1.129.943a4.66 4.66 0 0 1-.584-.187c-.214-.095-.447-.222-.73-.36a4.07 4.07 0 0 1-.3-.172 7.071 7.071 0 0 1-.441-.303c-.245-.17-.521-.345-.742-.529-.592-.512-1.058-1.032-1.416-1.652a4.903 4.903 0 0 1-.626-1.82 3.83 3.83 0 0 1 .424-1.894c.321-.642.799-1.26 1.54-1.886.547-.453 1.089-.815 1.664-1.061a5.673 5.673 0 0 1 1.647-.541 6.938 6.938 0 0 1 1.577-.084c.507.043.995.148 1.464.29a7.56 7.56 0 0 1 1.314.548m-2.835 11.764l8.281-6.901 1.43 1.218-8.272 6.904zm21.209 4.078l1.44 1.222-5.066 4.216c-.462.392-.784.76-.953 1.126-.225.418-.243.843-.123 1.286.106.445.452.899.944 1.32.183.153.366.289.551.404.354.222.713.367 1.091.423.555.083 1.086.055 1.608-.159.383-.147.797-.4 1.21-.748l5.065-4.216 1.431 1.217-5.086 4.24a8.052 8.052 0 0 1-.82.595 3.925 3.925 0 0 1-.828.42c-.392.144-.818.216-1.251.268a6.094 6.094 0 0 1-1.323-.08c-.461-.08-.897-.247-1.385-.477a7.353 7.353 0 0 1-1.404-.944 7.19 7.19 0 0 1-1.088-1.135 5.06 5.06 0 0 1-.571-1.133c-.087-.386-.157-.733-.076-1.107a2.51 2.51 0 0 1 .307-1.03c.123-.245.302-.483.5-.746.239-.24.452-.476.77-.741l5.057-4.22zm-12.459 3.351l8.273-6.906 1.438 1.223-8.281 6.899zm8.236-14.235l1.439 1.221-12.617 10.521-1.439-1.222zm-5.283-2.981l1.431 1.216-1.519 1.266-1.43-1.217zm8.746 7.418l1.431 1.216-1.524 1.272-1.43-1.217zm10.587 14.788l1.119.946-.88 1.191c.365.001.7-.007 1.081.004.349.047.71.093 1.058.169a3.88 3.88 0 0 1 1.038.403c.108.053.213.112.316.176.23.145.451.315.676.5.656.562 1.045 1.146 1.192 1.75.134.622.062 1.222-.2 1.862.923-.086 1.788-.037 2.564.146a5.09 5.09 0 0 1 1.532.645c.221.139.434.294.637.465.294.25.566.57.846.936.28.364.425.749.518 1.167.097.429.009.866-.2 1.35-.184.481-.57.979-1.196 1.496l-5.544 4.627-1.38-1.165 5.337-4.454c.358-.297.602-.599.783-.883.182-.284.273-.558.26-.822a1.716 1.716 0 0 0-.208-.783c-.142-.25-.364-.474-.64-.704a3.928 3.928 0 0 0-1.77-.86 7.36 7.36 0 0 0-2.209-.075l-5.848 4.891-1.437-1.211 5.326-4.44a3.78 3.78 0 0 0 .788-.89c.182-.284.267-.552.268-.817a1.672 1.672 0 0 0-.221-.782c-.141-.25-.364-.473-.636-.71a3.983 3.983 0 0 0-1.768-.859 6.979 6.979 0 0 0-2.185-.05l-5.89 4.911-1.428-1.206 8.3-6.924z" fill="#1C2020" mask="url(#mask-38)"></path><path d="M646.302 343.464c3.324 7.747-2.02 15.949 3.144 22.61 1.727 2.229 4.312 3.707 5.878 6.052 2.202 3.297 2.254 8.076 5.481 10.378 3.17 2.265 7.733.88 11.293 2.462 2.948 1.31 4.764 4.458 7.712 5.766 3.965 1.759 8.49-.303 12.823-.483 6.606-.274 12.94 3.906 19.486 2.973 7.255-1.033 12.19-7.878 18.868-10.898 2.478-1.12 5.41-1.875 6.83-4.195 1.859-3.03.15-7.127 1.436-10.441 1.22-3.142 3.18-3.604 3.437-6.966.136-1.759-.38-3.41-.734-5.138-.354-1.727-.615-3.185.14-6.887 3.264 9.452 13.535 57.546-48.384 58.945-16.35.369-27.276-6.52-35.014-12.39-21.568-16.357-15.641-46.016-12.396-51.788" fill="#F2F2F2" mask="url(#mask-38)"></path><path d="M836.505 442.738c3.324 7.746-3.087 15.949 2.076 22.61 1.727 2.229 4.312 3.707 5.877 6.05 2.203 3.299 2.255 8.077 5.482 10.38 3.17 2.263 7.732.88 11.292 2.462 2.948 1.31 4.765 4.457 7.714 5.765 3.963 1.76 8.489-.302 12.822-.482 6.606-.275 12.94 3.906 19.486 2.973 7.255-1.033 12.189-7.88 18.868-10.898 2.478-1.12 5.41-1.876 6.83-4.195 1.859-3.03.15-7.127 1.436-10.441 1.22-3.144 3.18-3.605 3.438-6.966.134-1.759-.38-3.41-.735-5.138-.354-1.727 3.247-3.645 4.003-7.347 3.263 9.452 8.002 60.833-52.248 59.404-16.348-.388-27.276-6.52-35.013-12.389-21.568-16.357-14.573-46.016-11.328-51.788" fill="#1A3877" mask="url(#mask-38)"></path><path d="M844.093 424.104l-5.568 12.927c-4.72 10.956-4.202 23.623 1.968 33.831 3.717 6.15 9.18 11.735 16.254 16.158.655.41 1.319.8 1.985 1.181.207.118.416.23.624.346a52.688 52.688 0 0 0 2.124 1.121 62.3 62.3 0 0 0 1.528.736c.184.085.366.175.551.258.693.313 1.388.613 2.09.898.135.055.273.105.409.158.57.228 1.145.446 1.72.654.235.086.47.166.705.248.499.174 1 .34 1.502.5.235.074.471.15.707.222.589.18 1.179.348 1.77.509.136.036.27.077.405.113.724.19 1.45.367 2.18.529.197.045.395.083.592.126a58.209 58.209 0 0 0 3.934.705c.224.033.45.068.674.098a61.024 61.024 0 0 0 2.249.262c.722.07 1.444.123 2.167.167.229.013.459.023.687.033.303.015.608.035.91.046.208.006.415.005.622.01a54.293 54.293 0 0 0 2.323.008c.25-.005.498-.006.748-.013a56.976 56.976 0 0 0 1.89-.084c.108-.006.219-.01.328-.017.736-.048 1.47-.111 2.201-.187.212-.022.423-.051.635-.075.521-.06 1.041-.125 1.56-.198.26-.037.518-.078.778-.118.475-.075.95-.155 1.42-.242.261-.048.522-.094.782-.146.497-.098.99-.205 1.483-.316.219-.05.44-.095.657-.147.07-.017.139-.03.206-.046.32-.078.633-.17.95-.252.38-.1.76-.195 1.136-.302.376-.107.745-.226 1.116-.34.373-.116.748-.227 1.118-.35.366-.121.726-.255 1.088-.385.368-.13.737-.259 1.1-.398.36-.137.712-.287 1.068-.432.357-.147.717-.29 1.07-.444.352-.154.697-.319 1.044-.48.35-.162.7-.321 1.045-.491.34-.167.675-.348 1.01-.523.342-.178.685-.353 1.02-.54.331-.183.655-.378.98-.57.33-.193.663-.383.988-.584.321-.2.634-.411.95-.617.319-.208.64-.414.952-.63.054-.037.111-.072.165-.109.16-.112.31-.235.468-.35.483-.346.96-.698 1.427-1.063.241-.188.478-.382.715-.575a43.883 43.883 0 0 0 1.948-1.687c.424-.391.838-.795 1.247-1.204.19-.191.384-.377.57-.572a40.335 40.335 0 0 0 1.7-1.874 39.996 39.996 0 0 0 1.746-2.232c.41-.56.806-1.126 1.178-1.699.028-.043.058-.083.085-.126a37.032 37.032 0 0 0 1.38-2.335c.306-.56.598-1.124.87-1.694.038-.077.08-.153.115-.23a34.902 34.902 0 0 0 1.022-2.41c.08-.21.167-.418.243-.627.136-.377.262-.757.385-1.138.023-.072.05-.143.073-.214.207-.654.389-1.312.556-1.973.04-.155.077-.31.114-.465a14.32 14.32 0 0 0 .37-3.815l-.726-22.775c-.12.674-92.82 1.66-90.086-13.75" fill="#EA932A" mask="url(#mask-38)"></path><path d="M914.022 407.253c21.031 13.15 26.485 37.506 12.175 54.408-14.31 16.902-42.96 19.943-63.993 6.794-21.023-13.145-26.471-37.508-12.161-54.41 14.31-16.9 42.955-19.937 63.98-6.792" fill="#FFC255" mask="url(#mask-38)"></path><path d="M838.547 437.048l.093-.13c1.43 2.685 1.647 6.146.807 9.112-.76 2.684-1.858 5.503-1.05 8.172.99 3.272 4.53 5.195 5.765 8.382 1.042 2.687.318 5.97 1.951 8.345 2.119 3.079 6.678 2.753 10.148 4.137 2.92 1.164 5.1 3.603 7.38 5.769 3.03 2.876 6.849 5.148 11.147 4.046 4.795-1.229 9.249-1.707 13.973.263 2.892 1.206 5.537 3.141 8.632 3.626 3.704.58 7.406-1.029 10.568-3.044 3.161-2.015 6.067-4.488 9.514-5.964 2.575-1.104 5.413-1.633 7.788-3.123 2.55-1.6 4.35-4.198 5.506-6.98 1.45-3.494 2.137-7.346 2.645-11.042.203-1.472 1.371-2.662 1.499-4.328.134-1.759-.38-3.41-.734-5.137-.355-1.729-.616-3.186.14-6.888 3.263 9.451 13.535 57.546-48.385 58.944-16.349.37-27.277-6.52-35.014-12.388-7.864-5.964-12.887-14.685-14.754-24.321-1.09-5.633-1.19-11.47-.43-17.153.425-3.167.892-7.582 2.811-10.298" fill="#F2F2F2" mask="url(#mask-38)"></path><path d="M918.577 449.12l-1.945 2.296c.035.037.05.06.07.072.58.363 1.158.728 1.739 1.091.483.302.969.603 1.456.898.456.274.96.459 1.528.45 1.087-.015 2.108-1.303 1.205-2.29a4.124 4.124 0 0 0-.733-.64 97.542 97.542 0 0 0-1.403-.89l-.705-.44c-.314-.197-.628-.393-.935-.59-.05-.03-.11-.047-.176-.077l-.101.12m-.039 9.486c1.36-.67 1.463-2.087.169-2.965a55.871 55.871 0 0 0-1.789-1.157l-.735-.458c-.354-.22-.706-.44-1.056-.664l-.088-.035-2.36 2.788.054.05c.729.454 1.457.911 2.187 1.368.365.229.73.457 1.097.683.203.128.424.25.653.344.628.259 1.26.346 1.868.046m3.857-.014c-.33 1.78-2.507 3.056-4.677 2.753a7.774 7.774 0 0 1-3.006-1.105 487.334 487.334 0 0 1-2.853-1.772c-1.138-.711-2.275-1.426-3.415-2.138-.04-.025-.072-.051-.126-.088 3.058-3.61 6.11-7.218 9.181-10.845.062.034.108.059.153.087l.624.391 1.251.78 1.488.929c.991.62 1.978 1.242 2.956 1.875 1.065.69 1.872 1.568 2.133 2.696.3 1.315-.123 2.417-1.32 3.227-.687.466-1.56.508-2.436.488-.179-.003-.354-.01-.575-.019.05.103.085.187.13.27.39.804.648 1.619.492 2.471m-49.903-43.984l2.371 4.244-5.41-.655-9.27 10.949-2.323-4.295 6.146-7.26-5.494-.638 3.097-3.66zm4.754 8.498l-6.145 7.258-5.464-.614 6.185-7.305z" fill="#FFF" mask="url(#mask-38)"></path><path d="M871.1 430.364l6.145-7.258-5.424-.661-6.185 7.305 5.464.614zm-10.918-1.218l9.27-10.949 5.411.655-2.372-4.245-10.882-1.314-3.098 3.66 5.495.638-6.146 7.26 2.322 4.295zm15.372-18.156l7.113 12.757-9.2 10.866-16.317-1.887-7.109-12.76 9.2-10.867 16.313 1.89z" fill="#E30C34" mask="url(#mask-38)"></path><path d="M897.16 432.683l-1.56 1.843-3.93-2.457-7.62 9-2.784-1.742 7.605-8.984-4.09-2.558 1.573-1.859 10.806 6.757m3.822 2.398l-1.562 1.846-2.574-1.609 1.563-1.845c.855.533 1.702 1.064 2.573 1.608m-2.374 2.811l-6.797 8.029a4628.62 4628.62 0 0 0-2.57-1.608l6.797-8.029 2.57 1.608m6.932 11.481c1.685-.977 2.824-2.34 3.443-3.99.517-1.372 0-2.462-1.44-3.37l-.732-.46-1.466-.915c-.083-.05-.165-.103-.257-.16l-6.038 7.13c.532.332 1.048.66 1.562.98.343.215.686.427 1.03.637 1.304.799 2.653.871 3.897.148m6.699-3.435c-.758 2.7-2.516 4.77-5.434 6.043-1.94.848-3.934.724-5.826-.385-1.453-.852-2.872-1.74-4.291-2.627-.637-.398-1.273-.796-1.913-1.192-.02-.012-.038-.032-.08-.066l9.167-10.827c.048.022.09.032.126.054.195.123.39.247.588.37.394.246.79.492 1.183.739.393.243.785.488 1.176.732.96.6 1.917 1.204 2.865 1.814 1.056.684 1.92 1.517 2.339 2.602.35.92.35 1.845.1 2.743" fill="#FFF" mask="url(#mask-38)"></path><path d="M284.948 170.322s-47.625 50.365-60.751 86.584c-15.078 41.608-20.277 140.55-19.584 191.88.694 51.33 11.785 205.342 36.049 322.214 0-.358 133.794-43.364 134.488-47.526.693-4.162-66.205-218.202-65.511-246.595.693-28.393.693-28.393 13.518-60.002l-38.209-246.555z" fill="#FDBDB4" mask="url(#mask-38)"></path><path d="M704.542 318.054L660.89 155.489c-1.252-4.674-3.734-9.102-7.148-12.754a32.146 32.146 0 0 0-5.56-4.751 32.74 32.74 0 0 0-4.061-2.335L485.665 59.276c-8.165-3.938-17.974-4.22-25.91-.752L305.858 125.87c-7.078 3.089-12.554 9.075-14.851 16.214a24.65 24.65 0 0 0-.718 2.658L256.804 305.08c-1.724 8.263.742 17.469 6.533 24.298l112.167 132.596a31.665 31.665 0 0 0 6.474 5.78c5.079 3.428 11.143 5.475 17.195 5.66l173.332 5.014c8.94.265 17.655-3.543 23.021-10.066l104.013-126.331c5.361-6.516 7.254-15.595 5.003-23.977" fill="#326CE5" mask="url(#mask-38)"></path><path d="M702.167 338.12c-.094.173-.192.345-.29.517a25.572 25.572 0 0 1-1.176 1.856c-.027.036-.05.077-.075.113-.345.486-.707.962-1.086 1.424L595.527 468.362c-5.367 6.522-14.084 10.331-23.022 10.065l-173.33-5.014c-6.054-.184-12.118-2.231-17.196-5.658a31.648 31.648 0 0 1-6.475-5.782L263.338 329.377c-5.792-6.83-8.258-16.034-6.534-24.298L290.29 144.74c.19-.894.428-1.788.717-2.658a25.36 25.36 0 0 1 .913-2.41l-8.272 18.856a25.34 25.34 0 0 0-.913 2.408c-.29.871-.527 1.765-.717 2.659l-33.487 160.337c-1.724 8.265.742 17.47 6.534 24.299l112.167 132.596a31.64 31.64 0 0 0 6.474 5.781c5.078 3.428 11.142 5.474 17.195 5.66l173.33 5.014c8.94.265 17.656-3.543 23.023-10.066l104.013-126.333c.38-.46.741-.936 1.086-1.423.005-.009.012-.015.018-.023.02-.03.035-.06.055-.089.422-.6.81-1.224 1.177-1.859a26.25 26.25 0 0 0 1.324-2.582l8.272-18.856a26.25 26.25 0 0 1-1.033 2.068" fill="#1A3877" mask="url(#mask-38)"></path><path d="M578.376 286.196l-.028.298-48.135-14.476a9.414 9.414 0 0 1-2.519-1.193c-2.832-1.911-4.378-5.275-3.672-8.594a7.46 7.46 0 0 1 2.47-4.166l.101-.142 36.108-30.603.178.268c11.614 17.582 17.113 38.398 15.497 58.608m-4.637 21.842c-3.363 9.53-8.376 18.37-14.887 26.271a89.326 89.326 0 0 1-22.859 19.72l-.263.159-20.315-44.482.125-.147c-1.813-4.03-.098-8.536 3.934-10.316 1.58-.686 3.329-.886 5.286-.608l49.082 9.115-.103.288m-58.69 55.297c-20.179 6.163-42.57 5.624-63.048-1.531l-.313-.107.153-.264 23.062-40.938c2.101-3.717 6.94-5.081 11.085-3.096.427.204.834.436 1.215.694a8.87 8.87 0 0 1 1.54 1.312c.392.413.739.89 1.278 1.582l25.328 42.265-.3.083m-66.482-55.047l-17.8 43.307-.277-.176c-.875-.559-1.752-1.13-2.619-1.715a106.811 106.811 0 0 1-5.592-4.038c-14.486-11.18-25.595-25.711-32.125-42.044l-.116-.29 48.848-6.66c2.213-.293 4.486.275 6.333 1.522a9.15 9.15 0 0 1 1.635 1.409 8.46 8.46 0 0 1 1.917 3.53c.447 1.672.348 3.355-.204 5.155m-64.246-26.784c-2.789-20.642 1.47-40.683 12.309-57.959l.162-.259 37.858 32.616c.397.343.754.709 1.068 1.09 2.5 3.038 2.572 7.178.186 10.07a7.934 7.934 0 0 1-4.19 2.625l-.186.244-47.168 11.873-.039-.3m26.512-75.241c5.564-5.265 11.833-9.795 18.613-13.504 11.3-6.182 24.02-10.086 37.269-11.314l.317-.028h.001l-1.527 47.498-.09.046-.09.045c-.151 4.294-3.782 7.548-8.31 7.435a9.528 9.528 0 0 1-1.075-.106c-.076-.012-.155-.01-.23-.022-1.304-.222-2.595-.725-3.937-1.512l-41.154-28.333.213-.205m62.115 52.636l15.298.434.08.095 9.816 11.604-.028.118-2.968 14.025-13.618 5.952-13.962-6.693-3.816-14.354 9.198-11.181m17.357-76.876c15.747 2.205 30.88 8.06 44.15 17.014 1.85 1.25 3.662 2.557 5.437 3.925a110.192 110.192 0 0 1 7.79 6.65l.232.219-.26.172-39.646 26.286-.206-.097c-2.942 1.937-6.849 1.77-9.774-.206a8.932 8.932 0 0 1-1.855-1.674c-1.145-1.352-1.831-2.945-2.074-4.806l-4.108-47.526.314.043M647.218 314.3c.176-.822.206-1.66.103-2.491-.178-1.445-.764-2.871-1.736-4.17a10.58 10.58 0 0 0-1.555-1.647 11.043 11.043 0 0 0-1.046-.81 11.558 11.558 0 0 0-1.112-.655c-.13-.067-.264-.132-.398-.195-.81-.376-1.765-.705-2.982-1.008a56.641 56.641 0 0 0-2.046-.492 30.49 30.49 0 0 0-1.576-.278c-1.532-.23-2.946-.326-4.423-.427a72.677 72.677 0 0 1-2.676-.214c-.108-.01-.208-.014-.318-.025-.106-.015-.206-.026-.312-.04-.05-.005-.09-.01-.143-.014-5.9-.74-11.047-1.394-15.615-2.745-.305-.09-.616-.174-.915-.27a5.626 5.626 0 0 1-1.072-.57c-.083-.055-.151-.127-.231-.185-1.186-.878-2.098-2.108-2.7-2.94l-4.611-1.604c3.308-28.337-4.263-57.047-21.284-81.063.047-.055.1-.114.15-.169-.037-.054-.072-.108-.11-.162.864-.745 2.422-2.045 3.023-3.062.003-.062.005-.124.009-.183.055-1.285.183-2.707 1.46-4.137.065-.073.117-.145.186-.217 3.527-3.157 8.066-5.756 13.322-8.767l.136-.073.324-.186a56.038 56.038 0 0 1 1.81-.934 212.96 212.96 0 0 1 .824-.41c.423-.207.841-.412 1.256-.62.83-.418 1.65-.851 2.487-1.357.418-.253.84-.524 1.27-.82.186-.133.397-.29.618-.459l.014-.011c.223-.17.454-.35.68-.531 5.007-3.77 5.866-9.507 2.626-13.339a8.775 8.775 0 0 0-3.166-2.359 9.575 9.575 0 0 0-1.898-.602 12.6 12.6 0 0 0-.395-.076c-2.818-.46-6.03.3-9.023 2.553-.432.317-.876.636-1.214.902l-.006.004a26.015 26.015 0 0 0-2.151 1.971c-.65.66-1.252 1.327-1.871 2.01-.257.287-.523.58-.8.882l-.28.302c-.19.204-.391.414-.6.63-.1.102-.19.203-.292.305-1.133 1.097-2.22 2.151-3.28 3.156-.455.432-.905.852-1.352 1.266-.063.057-.128.12-.19.177-1.8 1.657-3.552 3.151-5.333 4.463-.749.55-1.5 1.078-2.265 1.557-.682.32-1.433.505-2.19.6-.757.095-1.52.1-2.233.058a16.039 16.039 0 0 1-1.337-.138l-.008.005-3.276 2.186a132.625 132.625 0 0 0-13.07-11.573 131.519 131.519 0 0 0-10.107-7.065 130.322 130.322 0 0 0-56.111-19.446c-.018-.07-.034-.143-.05-.214-.065-.007-.13-.017-.194-.025-.123-1.159-.289-3.146-.764-4.248-1.058-.938-2.25-2-2.69-4.015-.018-.084-.044-.158-.06-.245a37.884 37.884 0 0 1-.223-3.696v-.028c-.052-3.771.35-7.822.803-12.337l.005-.04c.006-.063.013-.122.018-.186.014-.12.034-.233.049-.352.042-.33.085-.644.13-.94.023-.149.043-.294.067-.441.063-.387.123-.758.185-1.118.151-.91.297-1.795.41-2.71.112-.914.192-1.861.207-2.896a33.948 33.948 0 0 0-.053-1.87c-.081-2.923-.884-5.141-2.29-6.913a10.004 10.004 0 0 0-2.256-2.104 9.453 9.453 0 0 0-1.13-.655 8.915 8.915 0 0 0-3.743-.925 8.365 8.365 0 0 0-3.47.638 8.414 8.414 0 0 0-2.894 2.027c-.11.118-.207.243-.31.365-1.471 1.751-2.25 4.069-2.163 7.342.004.571.014 1.168.04 1.63.142 2.067.527 3.793.928 5.624.2.926.42 1.887.592 2.898.83 5.388 1.56 10.131 1.54 14.49-.003.623-.02 1.238-.056 1.846a4.05 4.05 0 0 1-.145.684c-.415 1.4-1.492 2.6-2.296 3.432-.093.099-.184.191-.275.285l-.344 4.193c-14.47.84-28.308 4.103-41 9.496-.499.212-1.006.405-1.501.624l-.054.025c-13.052 5.785-24.884 13.893-34.885 24.071l-4.065-2.417a49.35 49.35 0 0 1-1.51-.03c-1.468-.058-2.786-.222-3.724-.738-.093-.064-.185-.133-.279-.197-.018-.01-.039-.018-.059-.03-3.564-2.405-6.958-5.526-10.767-9.189-.054-.052-.106-.1-.159-.153a718.59 718.59 0 0 1-1.76-1.7c-.086-.088-.165-.174-.25-.261a47.74 47.74 0 0 1-.78-.816l-.174-.187c-.316-.34-.616-.671-.91-.995a94.673 94.673 0 0 0-1.484-1.592 31.397 31.397 0 0 0-2.766-2.6 24.396 24.396 0 0 0-.513-.405c-.246-.19-.574-.435-1.043-.784-5.233-3.544-10.458-3.484-13.476-.712a7.425 7.425 0 0 0-.686.714c-2.99 3.625-1.87 9.367 3.403 13.517.407.321.844.661 1.632 1.226a45.896 45.896 0 0 0 4.457 2.652l.438.233.153.08.692.368c.36.19.721.392 1.088.595l.238.132c.172.097.34.187.512.286.855.518 1.669 1.01 2.456 1.488 1.26.766 2.467 1.512 3.632 2.254.843.536 1.663 1.066 2.446 1.594a64.647 64.647 0 0 1 3.022 2.156 43.114 43.114 0 0 1 2.723 2.242c1.375 1.402 1.774 3.59 2.023 4.897l3.342 3.173-.12.182.001.001a107.26 107.26 0 0 0-15.954 36.994c-2.882 13.035-3.37 26.707-1.327 40.462.124.827.256 1.655.398 2.483.013.074.022.149.036.225l-4.35 1.08c-.502.835-1.173 1.847-1.988 2.633a5.506 5.506 0 0 1-1.045.81 3.72 3.72 0 0 1-.571.272 37.4 37.4 0 0 1-1.818.455c-1.24.28-2.541.515-3.906.72-.682.1-1.38.195-2.096.284-2.862.352-5.992.603-9.432.86-1.052.06-2.06.075-3.036.092-1.468.02-2.87.04-4.379.188-.502.05-1.017.114-1.549.198-.505.081-1.151.214-1.776.35-5.88 1.203-9.187 5.383-8.561 9.732a7.905 7.905 0 0 0 1.102 3.02 8.883 8.883 0 0 0 1.483 1.815c.383.361.8.694 1.245.994 2.307 1.557 5.364 2.249 9.346 1.496a43.9 43.9 0 0 0 .814-.145l.16-.03c.258-.05.509-.1.722-.146.517-.12 1.007-.252 1.482-.392 1.42-.42 2.682-.916 4.006-1.43a68.26 68.26 0 0 1 2.82-1.06 72.79 72.79 0 0 0 2.821-.815c.926-.286 1.839-.58 2.735-.866 1.613-.517 3.19-1.023 4.733-1.445 1.028-.28 2.04-.524 3.037-.706a21.261 21.261 0 0 1 2.943-.347c.483-.02.962-.02 1.436.005h.002a4 4 0 0 1 .803.125c.109.027.216.063.323.097.1.033.199.065.302.106.679.257 1.328.625 1.938 1.037l5.243-.045c6.97 19.56 18.815 36.968 34.55 50.952a130.301 130.301 0 0 0 6.979 5.779 128.491 128.491 0 0 0 6.715 4.85 133.054 133.054 0 0 0 7.348 4.611c-.009.07-.025.139-.037.208.053.037.104.069.157.105-.21.532-.53 1.295-.813 1.99a.47.47 0 0 0-.02.05c-.257.615-.485 1.178-.39 1.968l.155.37c.479 1.092.916 2.325.607 3.923-.039.2-.08.401-.144.612-1.694 4.446-4.546 8.795-7.845 13.834l-.026.038-.113.174c-.09.13-.18.251-.27.378-.13.188-.256.365-.38.536-.122.169-.242.337-.364.502-.233.316-.458.618-.68.91-1.111 1.476-2.152 2.87-3.125 4.682-.195.366-.432.859-.809 1.666-1.288 2.697-1.528 5.08-.953 7.29.05.195.098.391.16.583a9.128 9.128 0 0 0 1.846 3.166c.497.563 1.042 1.082 1.67 1.506a9.04 9.04 0 0 0 1.146.656c.443.212.898.371 1.357.504 4.24 1.22 9.008-.883 11.395-5.66a42.9 42.9 0 0 0 .832-1.746c.817-1.884 1.256-3.56 1.718-5.347.116-.444.233-.897.358-1.359.124-.462.256-.932.401-1.407 1.21-3.625 2.316-6.94 3.58-9.93.757-1.795 1.572-3.473 2.5-5.033 1.17-1.684 2.552-2.136 3.91-2.493l.29-.079c.667-.551 1.101-1.288 1.726-2.307.261-.416.505-.82.677-1.126l.155.055c.057-.053.107-.106.173-.16a130.346 130.346 0 0 0 43.566 8.689c14.734.333 29.379-1.864 43.263-6.62.047.054.094.117.141.175.063-.02.126-.037.188-.058.6.974 1.61 2.678 2.57 3.549.796.244 1.651.522 2.488 1.04.07.043.144.077.213.124.285.193.566.417.843.683.275.265.545.572.805.929.331.527.652 1.066.964 1.62 2.177 3.865 3.89 8.344 5.826 13.435l.007.018.084.222c.06.165.108.323.164.486.082.238.158.466.231.687.07.214.14.426.205.636.114.354.22.696.323 1.028.278.905.548 1.784.864 2.675.317.893.68 1.8 1.14 2.76.095.194.21.414.334.643l.005.007c.123.23.257.47.39.706.922 1.706 1.764 2.878 2.623 3.76l.061.06a11.357 11.357 0 0 0 1.537 1.273 10.832 10.832 0 0 0 3.315 1.508c1.928.5 3.94.417 5.738-.373 3.59-1.57 5.306-5.512 4.502-9.529a10.738 10.738 0 0 0-.967-2.765c-.04-.071-.081-.154-.122-.234-.114-.217-.232-.452-.359-.702-.272-.533-.544-1.084-.779-1.495-.793-1.382-1.627-2.537-2.495-3.668-.29-.377-.584-.752-.88-1.13l-.112-.145-.565-.729a50.043 50.043 0 0 1-.98-1.311c-.067-.092-.135-.179-.201-.272a8.442 8.442 0 0 1-.083-.122l-.071-.098c-2.611-3.813-4.96-7.244-6.793-10.58a41.603 41.603 0 0 1-1.806-3.66c-.635-1.81-.003-3.914.38-5.175l-1.553-3.98c11.292-6.204 21.133-14.019 29.462-23.316a110.346 110.346 0 0 0 2.973-3.438c.883-1.073 1.726-2.17 2.565-3.27 7.707-10.113 13.5-21.338 17.214-33.439.077-.005.155.001.232 0 .017-.055.038-.108.057-.163.665.111 1.624.295 2.506.457.758.142 1.446.27 2.288.037 1.186-.76 2.527-1.627 4.826-1.393.633.102 1.27.222 1.91.358.973.205 1.964.457 2.964.73.605.165 1.216.34 1.834.526.712.214 1.435.441 2.166.68 2.434.798 4.981 1.718 7.715 2.712.933.358 1.808.742 2.662 1.114l.232.101c1.795.778 3.494 1.515 5.594 2.108.22.06.478.123.747.185.294.07.666.153 1.154.263 6.302 1.425 11.489-1.265 12.467-5.86" fill="#F2F2F2" mask="url(#mask-38)"></path><path d="M375.15 723.474c.693-4.162-66.205-218.202-65.511-246.595.693-28.393.693-28.393 13.518-60.002 8.319-17.448-5.527-82.657-19.885-128.313l-47.008 88.424 13.25 61.611s5.622 204.475 62.04 301.902c23.96-8.297 43.332-15.45 43.596-17.027" fill="#FD9F90" mask="url(#mask-38)"></path><path d="M237.195 372.83s14.904-63.867 28.77-81.703c13.864-17.837 45.889-65.352 50.673-70.208 4.785-4.856 14.838-13.526 25.236 0 10.399 13.526-10.745 47.563-21.837 65.575-11.092 18.01-14.122 59.798-13.864 71.77.692 32.254-12.478 62.428-27.7 75.29-12.2 10.31-33.999 7.774-33.999 7.774" fill="#FDBDB4" mask="url(#mask-38)"></path><path d="M310.125 228.852c-1.209 1.936-.914 4.48.75 6.042 2.762 2.592 9.286 5.195 13.322 3.97 5.684-1.726 11.958-21.02 11.958-22.453 0-1.433-3.64-5.225-7.885-5.203-7.212.036-8.72 2.555-18.145 17.644" fill="#FD9F90" mask="url(#mask-38)"></path><path d="M966.347 409.412c-5.569-9.797-13.21-21.314-20.886-31.287-4.764-6.192-10.024-16.77-16.003-18.33-5.98-1.56-11.917.81-13.477 9.393-1.56 8.584 1.28 24.712 4.139 32.515 2.86 7.804 22.877 41.62 24.437 62.69 1.56 21.07 15.332 60.051 38.214 83.239l13.778-37.198 5.623-53.669s-30.257-37.555-35.825-47.353" fill="#FDBDB4" mask="url(#mask-38)"></path><path d="M916.394 367.107c1.858 6.784 4.862 11.317 9.06 15.63a4.888 4.888 0 0 0 3.876 1.466c4.18-.328 12.546-1.953 12.573-9.729a4.764 4.764 0 0 0-.737-2.523c-6.082-9.717-13.07-15.895-17.493-15.075-4.68.867-8.054 7.403-7.279 10.231m63.589 363.302c24.858-57.41 28.092-187.98 28.092-187.98-15.945-15.26-36.742-42.313-44.714-65.897-7.972-23.585-26.66-39.638-26.66-39.638h-.002c3.986 9.588 7.263 19.468 7.858 27.499 1.56 21.07 15.332 60.05 38.214 83.239 0 0 7.28 112.09-24.956 192.87-.294.186 8.87-3.997 22.168-10.093" fill="#FD9F90" mask="url(#mask-38)"></path><path d="M639.781 532.243c3.325 7.746-2.018 15.948 3.144 22.61 1.727 2.228 4.312 3.707 5.878 6.051 2.202 3.297 2.254 8.075 5.481 10.379 3.172 2.264 7.733.88 11.293 2.462 2.948 1.31 4.765 4.457 7.713 5.765 3.964 1.76 8.489-.303 12.822-.483 6.606-.273 12.94 3.906 19.486 2.974 7.255-1.033 12.19-7.88 18.868-10.898 2.479-1.12 5.41-1.876 6.832-4.195 1.857-3.03.147-7.128 1.434-10.442 1.22-3.143 3.18-3.604 3.438-6.966.135-1.758-.38-3.41-.735-5.138-.354-1.727 3.247-3.644 4.003-7.346 3.263 9.451 8.002 60.833-52.247 59.404-16.348-.388-27.276-6.52-35.014-12.39-21.568-16.357-15.641-46.016-12.396-51.787" fill="#1A3877" mask="url(#mask-38)"></path><path d="M647.766 511.822l-5.568 12.927c-4.719 10.957-4.202 23.624 1.968 33.832 3.718 6.151 9.18 11.734 16.254 16.158.655.41 1.319.8 1.986 1.18.206.118.415.231.623.347a59.186 59.186 0 0 0 2.125 1.121c.506.253 1.016.498 1.527.735.184.086.367.175.552.26.692.311 1.389.612 2.09.896.135.055.272.105.408.16a57.355 57.355 0 0 0 3.928 1.4c.236.076.47.152.707.222.588.18 1.178.349 1.77.51.135.036.269.076.404.113a61.5 61.5 0 0 0 2.18.53c.197.043.395.082.592.124a60.64 60.64 0 0 0 1.625.326 63 63 0 0 0 2.31.38c.224.033.448.068.673.097a58.773 58.773 0 0 0 2.25.262c.72.07 1.445.124 2.166.167.229.013.459.023.688.034.303.015.607.035.91.045.207.007.414.006.621.01.275.007.548.012.822.015a65.64 65.64 0 0 0 1.501-.006c.25-.004.5-.006.748-.013a60.158 60.158 0 0 0 1.89-.084c.11-.006.219-.01.328-.017a57.23 57.23 0 0 0 2.201-.188c.212-.022.424-.05.636-.075.52-.06 1.04-.124 1.558-.198.26-.037.52-.078.78-.118a58.689 58.689 0 0 0 2.202-.387c.497-.1.99-.205 1.483-.317.219-.048.438-.094.657-.146.068-.017.138-.03.207-.047.319-.077.632-.169.95-.252.378-.099.758-.194 1.135-.302.375-.106.744-.225 1.115-.339.374-.115.748-.227 1.118-.35.366-.122.726-.255 1.089-.384.367-.133.737-.26 1.1-.399.359-.138.711-.287 1.067-.433.358-.146.717-.289 1.071-.444.351-.153.697-.318 1.044-.48.348-.162.7-.32 1.045-.49.34-.168.674-.348 1.01-.524.34-.178.684-.353 1.02-.54.33-.182.654-.378.98-.57.33-.193.663-.382.987-.584.323-.199.635-.41.95-.617.32-.208.64-.413.953-.63.054-.037.11-.071.165-.109.16-.111.31-.235.467-.348.483-.347.96-.7 1.427-1.064a48.095 48.095 0 0 0 1.973-1.643c.232-.205.464-.41.691-.619.425-.392.837-.796 1.246-1.205.19-.19.385-.376.572-.57a40.934 40.934 0 0 0 1.698-1.876c.492-.58.955-1.171 1.403-1.768a38.525 38.525 0 0 0 1.522-2.163c.027-.041.057-.083.084-.125a37.538 37.538 0 0 0 1.38-2.335c.306-.56.598-1.124.872-1.694.037-.077.078-.153.114-.23.298-.635.573-1.277.832-1.921.064-.162.127-.327.19-.49.08-.21.167-.416.242-.627.137-.377.263-.757.385-1.138.023-.072.05-.141.073-.213a34.394 34.394 0 0 0 .67-2.44c.003-.005.004-.013.006-.019a14.41 14.41 0 0 0 .365-3.795l-.727-22.774c-.12.674-92.82 1.659-90.086-13.75" fill="#EA932A" mask="url(#mask-38)"></path><path d="M717.695 494.972c21.032 13.15 26.486 37.506 12.175 54.408-14.31 16.901-42.96 19.943-63.992 6.793-21.023-13.144-26.472-37.507-12.162-54.41 14.31-16.9 42.956-19.936 63.98-6.791" fill="#FFC255" mask="url(#mask-38)"></path><path d="M642.198 524.75c1.76 4.102 1.114 8.446.562 12.729-.484 3.765-.373 8.114 2.442 10.66 1.74 1.573 4.36 2.287 5.382 4.397.589 1.213.504 2.638.879 3.932.699 2.413 2.866 4.058 4.904 5.525 2.484 1.79 5.033 3.61 7.972 4.461 3.441.995 7.191.59 10.577 1.756 3.227 1.112 5.822 3.544 8.899 5.02 2.525 1.21 4.978 1.295 7.65 1.804 2.726.518 4.866.271 7.454-.9 2.178-.986 4.262-2.249 6.59-2.789 2.882-.668 5.894-.176 8.845-.367a18.52 18.52 0 0 0 5.448-1.214c1.446-.559 2.687-1.609 4.104-2.107 1.656-.585 3.11-.93 4.587-1.98 1.306-.926 2.46-2.06 3.504-3.273 1.483-1.723 2.84-3.715 3.04-5.981.181-2.049-.605-4.136-.162-6.144.402-1.829 1.753-3.281 2.578-4.961 1.372-2.802.764-5.75.351-8.683-.13-.924-.306-1.804-.3-2.746.005-.62.061-1.24.139-1.854.061-.484.498-1.623.35-2.052 3.262 9.452 13.534 57.546-48.386 58.944-16.349.369-27.275-6.52-35.014-12.389-21.568-16.357-15.64-46.016-12.395-51.788" fill="#F2F2F2" mask="url(#mask-38)"></path><path d="M700.541 514.303c.763.246 1.513.092 1.962-.42.03-.035.058-.07.087-.108.256-.36.572-.815.128-1.168-.011-.01-.024-.018-.037-.026-.29-.181-.829-.128-1.213-.18-.506.32-.958.548-1.316.845a1.241 1.241 0 0 0-.17.184c-.152.22-.125.434.06.61.04.036.084.07.136.104l.078.044a1.689 1.689 0 0 0 .285.114m8.872 10.081c.004.051-.027.087-.06.181-.568-.44-1.098-.857-1.652-1.26-2.298-1.682-4.665-3.323-6.553-5.365-.674-.734-1.282-1.531-1.74-2.367-.584-1.061-.598-1.887-.004-2.551.27-.302.666-.571 1.192-.814.974-.44 2.113-.647 3.333-1.002.354 1.113.738 2.147 1.019 3.194.437 1.598 1.317 3.047 2.25 4.491 1.016 1.583 2.022 3.177 2.2 4.983.02.172.017.341.015.51m-16.083 11.066c.132.083.251.179.354.286.37.38.533.89.366 1.383a5.38 5.38 0 0 1-1.028 1.828c-.98 1.132-2.44 1.82-4.277 2.142-.79.14-1.62.161-2.424.235l-.092-.227c.602-.335 1.192-.684 1.812-.997.821-.424 1.515-.923 2.03-1.542a4.192 4.192 0 0 0 .86-1.678c.103-.427.31-.838.482-1.25a.88.88 0 0 1 .12-.212c.204-.26.538-.334.978-.266a2.214 2.214 0 0 1 .819.298" fill="#336791" mask="url(#mask-38)"></path><path d="M688.746 541.087c1.836-.323 3.296-1.01 4.276-2.142a5.364 5.364 0 0 0 1.03-1.829c.165-.493.001-1.003-.367-1.382a1.882 1.882 0 0 0-.658-.441 2.24 2.24 0 0 0-.515-.143c-.44-.068-.774.006-.978.267a.855.855 0 0 0-.12.21c-.173.413-.38.824-.482 1.252a4.195 4.195 0 0 1-.86 1.676c-.515.62-1.209 1.119-2.031 1.542-.619.314-1.21.664-1.81.998l.09.227c.805-.074 1.636-.095 2.425-.235m23.869-12.165c-.32.176-.547.334-.695.501-.282.32-.276.682-.094 1.306.033.112.064.212.096.298.046.121.093.218.149.29a.464.464 0 0 0 .122.114c.126.08.3.09.561.046.086-.015.184-.035.292-.061 1.112-.27 2.225-.568 3.269-.967 1.51-.586 2.782-1.414 3.788-2.585.232-.27.449-.558.653-.866-.219.063-.307.084-.397.121-1.057.428-2.084.903-3.173 1.272-1.268.439-2.596.687-4.033.422a.868.868 0 0 0-.538.109m-3.261-4.358c.033-.094.063-.13.059-.181a4.193 4.193 0 0 0-.015-.51c-.178-1.806-1.184-3.4-2.2-4.983-.933-1.444-1.813-2.893-2.25-4.491-.28-1.047-.665-2.081-1.02-3.194-1.218.355-2.358.561-3.332 1.002-.525.243-.921.511-1.192.813-.594.665-.58 1.49.004 2.552.458.836 1.066 1.633 1.741 2.366 1.888 2.042 4.255 3.684 6.552 5.366.554.403 1.084.82 1.653 1.26m-21.265 9.497c.189-.03.315-.074.389-.157.073-.082.096-.202.08-.383a56.094 56.094 0 0 1-.131-3.964c.02-1.68-.123-3.332-.888-4.946-.827-1.89-1.963-3.65-3.358-5.3a4.127 4.127 0 0 0-.518-.517 3.08 3.08 0 0 0-.815-.494c-.47-.188-.982-.243-1.548-.172-.253.03-.516.086-.79.166-1.856.534-3.212 1.608-4.436 2.83l-.068.074c-.318.366-.243.689-.02 1.13.914 1.897 1.769 3.823 2.646 5.734.437.946.747 1.944 1.347 2.82.161.237.339.463.53.677l.103.115a7.333 7.333 0 0 0 1.317 1.106l.155.1.162.097c1.274.756 2.795 1.173 4.348 1.19a8.975 8.975 0 0 0 1.495-.106m3.015-33.581c-.733.28-1.426.613-2.278.98.263.05.356.08.451.092.51.057 1.013.127 1.508.21 3.383.569 6.407 1.754 9.162 3.43.103.06.205.123.306.187.104.065.208.13.31.197.277.178.551.36.821.548a32.032 32.032 0 0 1 2.078 1.572c1.5 1.232 2.395 2.68 2.823 4.33.633 2.507 1.781 4.85 3.306 7.112 1.333 1.96 2.118 4.05 1.816 6.284-.02.148.041.3.068.449l.214.011c.052-.213.11-.423.15-.635 1.05-5.704 1.086-11.464-.297-17.26-.382-1.593-1.045-3.162-1.708-4.703a5.38 5.38 0 0 0-.39-.739 4.91 4.91 0 0 0-1.551-1.544 5.503 5.503 0 0 0-1.062-.513c-.749-.27-1.471-.598-2.231-.827-4.772-1.43-9.213-.79-13.496.819m-10.86 41.954c.323-.45.546-.964.764-1.472.503-1.191.976-2.39 1.464-3.58.274-.671.571-1.328.843-1.981l-.12-.095a6.56 6.56 0 0 0-.338-.145 12.223 12.223 0 0 1-1.894-.96l-.189-.12c-1.921-1.258-3.178-2.958-3.913-5.053-.654-1.858-1.413-3.714-2.383-5.475-1.196-2.177-2.084-4.398-2.582-6.717-.64-2.984-.605-5.905.755-8.765-.703.024-1.29.036-1.872.069-3.528.217-6.951.755-9.98 2.232-1.289.625-2.316 1.378-3.068 2.265-1.173 1.382-1.675 3.084-1.454 5.12.295 2.768 1.525 5.308 3.235 7.711a86.982 86.982 0 0 0 10.025 11.739l.202.199c.808.79 1.63 1.566 2.502 2.3.834.7 1.712 1.36 2.661 1.954l.17.105c.171.105.345.207.52.307.759.427 1.61.77 2.463 1.03.872.26 1.609.045 2.095-.544.033-.04.064-.08.094-.124m30.677 7.141c.935-.483 1.68-1.035 2.221-1.666 1.033-1.204 1.319-2.693.754-4.518-.537-1.718-1.003-3.449-1.57-5.157-.725-2.204-1.526-4.389-2.268-6.585-.19-.583-.345-1.192-.386-1.785-.035-.56.17-1.029.507-1.436.231-.277.525-.526.844-.757-.667-.416-1.332-.805-1.976-1.208a32.407 32.407 0 0 1-.545-.35c-.18-.117-.357-.237-.531-.36-1.36-.954-2.653-1.971-3.968-2.963-1.885-1.434-3.703-2.903-5.175-4.656-.767-.915-1.435-1.88-1.729-2.964-.332-1.22-.102-2.318.632-3.196.502-.601 1.24-1.1 2.193-1.464.918-.345 1.9-.573 2.843-.854-.029-.104-.024-.138-.049-.163-.08-.088-.15-.171-.24-.246l-.2-.176a25.657 25.657 0 0 0-1.413-1.15l-.127-.096a24.207 24.207 0 0 0-1.925-1.296 23.866 23.866 0 0 0-5.736-2.508 22.835 22.835 0 0 0-.863-.234c-4.273-1.073-8.371-.796-12.283.61-1.816.648-3.28 1.593-4.347 2.853a8.128 8.128 0 0 0-1.343 2.24c-.937 2.331-.844 4.755-.321 7.211.208.964.512 1.91.795 2.969.194-.145.282-.194.342-.251 1.025-.96 2.186-1.775 3.563-2.372 1.963-.835 3.986-.936 5.695.048l.164.1c.101.063.2.13.299.2a6.25 6.25 0 0 1 1.198 1.147c.55.684 1.08 1.394 1.553 2.116 1.007 1.509 1.883 3.061 2.397 4.735.521 1.68.556 3.349.522 5.031-.022 1.056.07 2.116.104 3.16.153.03.197.047.228.039a4.203 4.203 0 0 1 .879-.19 4.369 4.369 0 0 1 2.8.668c.362.226.684.495.958.79.351.38.621.802.784 1.23.288.787.628 1.568 1.016 2.321a577.847 577.847 0 0 0 4.393 8.36 8.178 8.178 0 0 0 1.16 1.64 7.773 7.773 0 0 0 2.13 1.638c.842.451 1.74.671 2.71.596 1.242-.104 2.283-.57 3.31-1.1m4.954-6.198c.614 2.185.227 3.998-1.02 5.476-.653.774-1.543 1.458-2.648 2.055-1.13.61-2.295 1.14-3.648 1.344-.12.02-.239.036-.357.048-1.63.176-3.11-.185-4.5-.953a9.515 9.515 0 0 1-.462-.271c-1.693-1.069-2.782-2.468-3.615-4.003-1.347-2.498-2.634-5.026-3.95-7.533-.089-.16-.17-.314-.297-.555-.184.282-.38.548-.586.796-1.688 2.022-4.135 2.93-7.082 3.127-.86.058-1.81-.072-2.647-.322a2.46 2.46 0 0 1-.501-.21 1.706 1.706 0 0 1-.473-.4c-.328-.42-.334-.954.05-1.412.878-.817 1.744-1.354 2.638-1.797.677-.336 1.213-.739 1.61-1.222.448-.547.719-1.197.81-1.97-.486.073-.955.17-1.43.214-.5.036-1.032.12-1.517.026-.536-.095-.834.004-1.038.257a1.596 1.596 0 0 0-.231.435c-.644 1.651-1.346 3.286-2.033 4.92-.197.482-.38.963-.637 1.418a4.3 4.3 0 0 1-.448.646c-1.148 1.364-2.988 1.727-5.096.98a12.861 12.861 0 0 1-1.427-.602c-.065-.03-.13-.064-.193-.096a15.816 15.816 0 0 1-1.554-.913 27.608 27.608 0 0 1-2.223-1.665l-.357-.293c-3.778-3.148-6.964-6.702-9.907-10.388-1.502-1.886-2.962-3.792-4.245-5.768-1.474-2.265-2.4-4.69-2.578-7.234-.165-2.33.454-4.272 1.783-5.853.97-1.155 2.318-2.118 4.015-2.902 3.753-1.733 7.944-2.245 12.26-2.32 1.008-.023 1.672-.224 2.313-.883 1.875-1.95 4.515-2.941 7.386-3.55.892-.19 1.828-.267 2.74-.425a2.42 2.42 0 0 0 .79-.293c3.805-2.353 8.02-3.882 12.916-4.058 3.621-.13 7.042.655 10.234 2.31a6.266 6.266 0 0 1 .668.404c1.196.832 1.893 1.974 2.474 3.16 1.39 2.837 2.005 5.797 2.375 8.783.605 5.016.36 9.964-.669 14.84-.03.132-.053.27-.107.529.603-.03 1.169-.018 1.704-.108 1.762-.3 3.268-1.062 4.788-1.787.413-.196.86-.361 1.32-.462.427-.054.662-.035.874.02.16.042.307.106.436.187.428.303.624.7.526 1.16a5.258 5.258 0 0 1-.933 2.047c-.127.17-.257.334-.392.493-2.021 2.39-4.965 3.669-8.437 4.274-.18.03-.36.05-.624.084.246.779.51 1.54.741 2.31.813 2.628 1.66 5.258 2.41 7.905" fill="#FFF" mask="url(#mask-38)"></path><path d="M680.671 520.638c.99.483 2.333.192 2.749-.732.115-.253.12-.479.02-.654a.612.612 0 0 0-.205-.205 1.145 1.145 0 0 0-.458-.148c-.594-.078-1.202-.014-1.698-.012-.386.204-.669.33-.904.495a.908.908 0 0 0-.17.151c-.188.224-.135.475.145.742a1.973 1.973 0 0 0 .521.363m7.887 12.883c.017.18-.005.301-.08.383-.074.084-.2.127-.39.157a8.887 8.887 0 0 1-1.494.107c-1.553-.018-3.074-.435-4.348-1.19-.055-.032-.108-.065-.162-.098l-.155-.1a7.333 7.333 0 0 1-1.316-1.106l-.105-.114a6.658 6.658 0 0 1-.53-.677c-.6-.877-.909-1.875-1.345-2.82-.878-1.912-1.732-3.838-2.647-5.734-.223-.441-.298-.765.02-1.13.021-.025.044-.049.068-.074 1.224-1.223 2.58-2.296 4.435-2.83a5.02 5.02 0 0 1 .79-.167c.567-.07 1.08-.015 1.549.172.157.063.309.14.456.233.123.076.243.164.36.26.178.15.35.322.517.52 1.395 1.648 2.531 3.408 3.358 5.298.765 1.615.91 3.266.888 4.946-.01 1.32.048 2.643.13 3.964" fill="#336791" mask="url(#mask-38)"></path><path d="M712.206 550.91c1.104-.598 1.995-1.28 2.648-2.056 1.247-1.478 1.634-3.29 1.02-5.476-.751-2.647-1.598-5.277-2.41-7.905-.233-.77-.496-1.531-.742-2.31.264-.034.445-.053.624-.084 3.472-.605 6.416-1.884 8.437-4.274.135-.16.265-.324.392-.493a5.258 5.258 0 0 0 .933-2.048c.098-.459-.098-.855-.453-1.11a1.724 1.724 0 0 0-.509-.235 1.907 1.907 0 0 0-.69-.049 6.148 6.148 0 0 0-1.504.49c-1.52.725-3.026 1.488-4.788 1.787-.535.091-1.1.078-1.704.108.054-.26.077-.397.107-.53a45.173 45.173 0 0 0 .669-14.84c-.37-2.984-.986-5.945-2.375-8.782-.581-1.186-1.278-2.328-2.474-3.16a5.949 5.949 0 0 0-.669-.404c-3.19-1.655-6.612-2.44-10.233-2.31-4.895.176-9.111 1.705-12.917 4.058a2.42 2.42 0 0 1-.79.293c-.911.158-1.847.235-2.74.425-2.87.609-5.51 1.6-7.385 3.55-.64.659-1.305.86-2.314.883-4.315.075-8.507.587-12.259 2.32-1.697.784-3.044 1.747-4.015 2.902-1.329 1.581-1.948 3.523-1.783 5.853.178 2.544 1.104 4.969 2.578 7.234 1.283 1.976 2.743 3.882 4.245 5.768 2.943 3.686 6.13 7.24 9.907 10.388.119.099.237.195.357.293a27.2 27.2 0 0 0 2.223 1.665 16.782 16.782 0 0 0 1.747 1.01c.456.224.93.426 1.426.6 2.109.748 3.95.385 5.097-.98a4.3 4.3 0 0 0 .448-.645c.256-.455.44-.936.637-1.419.687-1.633 1.389-3.268 2.033-4.92.066-.173.139-.32.231-.434.204-.253.502-.352 1.038-.257.485.095 1.016.01 1.517-.026.475-.045.944-.14 1.43-.214-.091.773-.362 1.423-.81 1.97-.397.483-.933.886-1.61 1.222-.894.443-1.76.98-2.46 1.612-.562.645-.556 1.177-.228 1.599.105.133.243.256.411.36a2.228 2.228 0 0 0 .482.224c.918.274 1.867.404 2.728.347 2.947-.198 5.394-1.106 7.082-3.128.207-.248.402-.514.586-.796.127.24.208.395.296.555 1.317 2.507 2.603 5.035 3.95 7.533.834 1.535 1.923 2.934 3.58 3.98.19.118.342.209.497.294 1.39.768 2.871 1.13 4.495.953.124-.012.244-.028.363-.048 1.352-.205 2.519-.734 3.648-1.344m5.48-7.431c.43 3.413-.612 6.272-3.897 8.26-.955.586-1.998 1.08-3 1.608l-1.36.398c-.598.053-1.201.139-1.809.148-1.72.017-3.18-.467-4.478-1.279a11.46 11.46 0 0 1-1.615-1.235c-2.323-2.096-3.746-4.604-5.09-7.148-.37-.704-.697-1.43-1.056-2.174-3.408 2.203-7.031 3.27-11.453 1.982-.655.954-1.566 1.765-2.883 2.182-2.061.652-4.052.221-5.986-.666a18.578 18.578 0 0 1-2.147-1.16c-1.478-.924-2.802-2.012-4.08-3.142-4.025-3.565-7.426-7.52-10.618-11.607-1.782-2.278-3.466-4.6-4.508-7.182-1.174-2.911-1.765-5.817-.796-8.742.932-2.797 3.053-4.774 5.974-6.165 3.798-1.8 8.031-2.447 12.425-2.586 1.006-.035 1.72-.251 2.406-.882 2.085-1.905 4.826-2.945 7.806-3.599.873-.183 1.767-.334 2.647-.513a3.36 3.36 0 0 0 .78-.25c1.624-.764 3.243-1.55 4.858-2.33.083-.043.15-.095.23-.149 1.095-.318 2.196-.644 3.295-.969.561-.093 1.136-.189 1.706-.276 5.045-.813 9.887-.16 14.517 2.147a8.182 8.182 0 0 1 3.019 2.597c1.682 2.367 2.472 4.954 3.045 7.574 1.186 5.512 1.192 10.986.37 16.436-.028.171-.043.342-.077.661 1.208-.55 2.275-1.018 3.329-1.524 1.724-.815 3.106-.802 4.562.108.233.147.47.315.709.509.22.45.443.91.657 1.366.005.885-.18 1.715-.64 2.496-1.398 2.374-3.588 4.043-6.406 5.158-1.033.414-2.125.744-3.226 1.125.181.482.362.964.56 1.439 1.018 2.416 1.913 4.85 2.23 7.384" fill="#000" mask="url(#mask-38)"></path><path d="M702.681 512.58a.81.81 0 0 1 .037.027c.443.353.128.808-.128 1.168a1.764 1.764 0 0 1-.087.107c-.45.513-1.199.667-1.962.42a1.897 1.897 0 0 1-.285-.115.838.838 0 0 1-.214-.149c-.185-.174-.212-.39-.06-.61a.976.976 0 0 1 .17-.183c.358-.296.81-.525 1.316-.843.384.05.923-.002 1.213.179" fill="#FFF" mask="url(#mask-38)"></path><path d="M707.89 501.001a4.905 4.905 0 0 1 1.554 1.544c.149.236.279.483.39.74.663 1.541 1.325 3.11 1.708 4.702 1.383 5.797 1.346 11.557.296 17.26-.038.213-.097.422-.149.636l-.214-.011c-.027-.149-.087-.3-.068-.449.302-2.234-.483-4.325-1.816-6.284-1.526-2.261-2.673-4.606-3.306-7.113-.43-1.649-1.323-3.097-2.823-4.33a31.857 31.857 0 0 0-2.078-1.572 30.37 30.37 0 0 0-.82-.547l-.311-.197c-.1-.064-.204-.126-.306-.189-2.756-1.675-5.78-2.859-9.15-3.427a26.82 26.82 0 0 0-1.52-.211c-.095-.012-.188-.042-.451-.093.852-.366 1.545-.7 2.277-.979 4.284-1.61 8.725-2.25 13.497-.82.76.23 1.482.559 2.231.828a5.528 5.528 0 0 1 1.06.512" fill="#336791" mask="url(#mask-38)"></path><path d="M683.234 519.047c.09.057.158.126.205.205.1.175.095.401-.02.654-.416.923-1.759 1.215-2.749.732a2.053 2.053 0 0 1-.52-.363c-.281-.267-.334-.518-.145-.742a.884.884 0 0 1 .17-.15c.234-.166.518-.292.903-.496.496-.002 1.104-.066 1.698.01.188.027.341.078.458.15" fill="#FFF" mask="url(#mask-38)"></path><path d="M720.755 526.999a8.58 8.58 0 0 1-.653.867c-1.006 1.17-2.278 1.997-3.788 2.584-1.044.398-2.156.696-3.269.967a4.225 4.225 0 0 1-.292.06c-.26.044-.434.034-.561-.046a.446.446 0 0 1-.122-.113 1.121 1.121 0 0 1-.149-.29 4.496 4.496 0 0 1-.095-.3c-.184-.622-.189-.983.093-1.304.149-.168.374-.324.695-.501a.855.855 0 0 1 .538-.109c1.437.265 2.766.016 4.033-.422 1.09-.37 2.116-.845 3.173-1.273.091-.037.18-.058.397-.12m-48.104-18.927c-1.361 2.86-1.396 5.781-.756 8.765.5 2.319 1.386 4.54 2.582 6.717.97 1.761 1.73 3.618 2.384 5.475.734 2.095 1.992 3.795 3.913 5.053l.189.12c.573.359 1.203.68 1.893.96.117.045.227.095.337.145l.12.095c-.27.653-.567 1.31-.84 1.98-.49 1.191-.963 2.39-1.466 3.581-.217.508-.44 1.022-.763 1.472a2.776 2.776 0 0 1-.095.124c-.486.59-1.222.804-2.095.542a12.362 12.362 0 0 1-2.461-1.028 15.88 15.88 0 0 1-.69-.412 23.554 23.554 0 0 1-2.662-1.955 45.7 45.7 0 0 1-2.503-2.3l-.202-.198a87.057 87.057 0 0 1-10.025-11.739c-1.71-2.403-2.94-4.943-3.235-7.71-.22-2.037.282-3.74 1.455-5.121.752-.886 1.78-1.64 3.068-2.265 3.028-1.477 6.451-2.015 9.98-2.232.582-.033 1.17-.045 1.872-.069" fill="#336791" mask="url(#mask-38)"></path><path d="M699.106 506.71c.075.045.15.093.224.14.48.309.95.634 1.408.976l.127.095a23.796 23.796 0 0 1 1.414 1.151l.2.176c.089.075.16.157.24.245.024.026.02.06.048.164-.943.28-1.925.508-2.842.853-.954.364-1.692.863-2.194 1.465-.734.878-.964 1.976-.632 3.195.295 1.084.962 2.05 1.73 2.965 1.47 1.753 3.29 3.221 5.174 4.655 1.315.993 2.609 2.01 3.968 2.964a21.586 21.586 0 0 0 1.077.709c.643.403 1.308.792 1.975 1.208-.32.23-.612.48-.844.758-.336.407-.542.874-.507 1.436.04.593.197 1.202.386 1.784.743 2.197 1.543 4.382 2.268 6.586.567 1.708 1.034 3.439 1.57 5.156.565 1.826.279 3.314-.754 4.518-.54.632-1.286 1.185-2.221 1.667-1.028.53-2.07.997-3.311 1.101-.97.075-1.868-.146-2.71-.597a8.831 8.831 0 0 1-.26-.144c-.874-.54-1.41-.992-1.87-1.494a8.1 8.1 0 0 1-1.16-1.64 572.564 572.564 0 0 1-4.393-8.36 20.68 20.68 0 0 1-1.016-2.32 3.865 3.865 0 0 0-.783-1.23 4.71 4.71 0 0 0-1.151-.905 4.376 4.376 0 0 0-2.608-.555 4.341 4.341 0 0 0-.88.19c-.03.01-.074-.009-.227-.037-.034-1.044-.126-2.105-.104-3.16.036-1.682 0-3.351-.522-5.03-.514-1.676-1.39-3.227-2.397-4.737a27.23 27.23 0 0 0-1.553-2.116 6.249 6.249 0 0 0-1.198-1.147 5.965 5.965 0 0 0-.299-.2c-.054-.034-.109-.066-.164-.099-1.71-.985-3.73-.884-5.695-.048-1.376.596-2.538 1.412-3.563 2.37-.06.058-.148.107-.342.252-.283-1.058-.587-2.005-.795-2.968-.523-2.457-.615-4.88.321-7.21a8.118 8.118 0 0 1 1.343-2.242c1.067-1.26 2.531-2.204 4.347-2.852 3.912-1.406 8.01-1.684 12.284-.611.29.073.577.152.862.235a23.822 23.822 0 0 1 6.029 2.687" fill="#336791" mask="url(#mask-38)"></path><path d="M781.366 550.041c3.324 7.747-3.088 15.95 2.076 22.611 1.727 2.228 4.312 3.706 5.877 6.05 2.203 3.298 2.255 8.077 5.482 10.38 3.17 2.264 7.733.88 11.293 2.461 2.948 1.31 4.764 4.458 7.712 5.767 3.965 1.758 8.49-.303 12.823-.484 6.606-.274 12.94 3.906 19.485 2.974 7.256-1.034 12.19-7.88 18.869-10.899 2.478-1.12 5.409-1.875 6.83-4.194 1.859-3.03.15-7.128 1.435-10.441 1.221-3.143 3.18-3.605 3.438-6.967.134-1.759-.38-3.41-.734-5.137-.355-1.728 3.247-3.645 4.002-7.347 3.264 9.452 8.002 60.833-52.247 59.404-16.348-.388-27.275-6.52-35.013-12.388-21.569-16.359-14.574-46.017-11.328-51.79" fill="#1A3877" mask="url(#mask-38)"></path><path d="M789.609 527.874L784.04 540.8c-4.72 10.956-4.203 23.624 1.968 33.831 3.717 6.152 9.18 11.735 16.254 16.158.655.41 1.318.8 1.986 1.18.206.118.415.232.623.346.474.264.951.52 1.432.77a55.535 55.535 0 0 0 2.22 1.088c.184.085.367.174.552.258.691.313 1.388.612 2.089.898.135.055.272.105.409.158.57.228 1.144.446 1.722.655.233.085.468.165.703.247.499.174 1 .34 1.502.5.236.074.471.15.707.222.589.179 1.178.348 1.77.509.135.036.27.077.405.113a61.5 61.5 0 0 0 2.18.53c.197.043.394.082.592.125a58.21 58.21 0 0 0 3.934.705c.224.032.449.068.673.098a58.775 58.775 0 0 0 2.25.262c.721.07 1.445.123 2.167.167.228.013.458.022.687.033.304.015.607.035.911.046.207.007.414.005.62.01a54.294 54.294 0 0 0 2.324.007c.25-.004.499-.005.747-.011a60.161 60.161 0 0 0 1.89-.084c.11-.008.22-.01.328-.017a59.58 59.58 0 0 0 2.202-.188c.212-.022.423-.051.635-.075.521-.06 1.041-.124 1.559-.198.26-.037.519-.078.779-.119.475-.075.95-.155 1.421-.241.261-.048.521-.095.781-.147.497-.098.991-.205 1.483-.315.22-.05.439-.096.657-.148.069-.015.139-.029.207-.046.32-.077.632-.17.95-.251.378-.1.759-.195 1.135-.302.375-.107.745-.226 1.116-.34.373-.116.747-.226 1.118-.35.366-.122.725-.255 1.088-.385.367-.131.738-.259 1.1-.398.36-.138.712-.288 1.067-.432.358-.147.718-.29 1.071-.444.352-.154.697-.319 1.045-.48.348-.162.7-.32 1.045-.491.34-.168.673-.348 1.01-.524.34-.178.683-.352 1.02-.539.33-.183.653-.378.979-.57.33-.193.663-.383.988-.585.322-.198.634-.41.95-.617.32-.208.64-.413.953-.629.054-.037.11-.072.164-.11.16-.11.31-.234.468-.349.482-.345.96-.698 1.427-1.063.24-.189.478-.382.715-.576a43.883 43.883 0 0 0 1.949-1.685c.424-.392.837-.796 1.245-1.205.19-.19.385-.377.572-.571a40.933 40.933 0 0 0 1.698-1.875 39.243 39.243 0 0 0 1.747-2.232c.41-.56.805-1.126 1.179-1.7.027-.04.057-.082.084-.124a37.538 37.538 0 0 0 1.38-2.335c.305-.56.598-1.126.871-1.695.038-.077.078-.153.114-.23a36.566 36.566 0 0 0 1.022-2.41c.08-.21.167-.417.243-.627.136-.378.262-.758.385-1.138.023-.072.05-.143.072-.215.207-.653.39-1.31.557-1.971.04-.155.077-.311.114-.467l.005-.02c.297-1.24.406-2.52.365-3.795l-.726-22.774c-.119.674-92.821 1.66-90.086-13.75" fill="#EA932A" mask="url(#mask-38)"></path><path d="M859.538 511.023c21.031 13.15 26.485 37.506 12.175 54.408-14.31 16.902-42.961 19.943-63.992 6.794-21.024-13.145-26.473-37.508-12.162-54.41 14.31-16.901 42.955-19.936 63.979-6.792" fill="#FFC255" mask="url(#mask-38)"></path><path d="M784.04 540.893c1.726 2.169 2.334 5.447 1.568 8.067-.623 2.14-1.632 4.353-1.052 6.504.698 2.59 3.424 4.077 4.743 6.413 1.143 2.023 1.123 4.468 1.486 6.763.215 1.356.631 2.772 1.448 3.894 1 1.37 2.1 1.778 2.913 3.348 2.009 3.886 4.777 7.995 9.068 8.842 3.518.695 7.362-1.01 10.66.402 3.914 1.676 5.29 7.014 9.253 8.577 5.341 2.107 10.638-3.991 16.377-3.844 4.72.12 9.526 4.42 13.613 2.058 2.376-1.374 3.234-4.504 5.514-6.034 2.007-1.347 4.631-1.16 6.988-1.697 4.615-1.052 8.147-4.982 9.973-9.352 1.321-3.16 1.83-6.51 2.243-9.887.296-2.423 1.415-4.558 1.594-6.889.134-1.758-.38-3.41-.734-5.137-.355-1.728-.616-3.186.14-6.888 3.263 9.452 13.535 57.547-48.386 58.945-16.348.37-27.275-6.52-35.014-12.39-11.486-8.71-17.29-24.656-16.045-38.784.372-4.206 1.273-9.344 3.65-12.91" fill="#F2F2F2" mask="url(#mask-38)"></path><path d="M856.48 514.947c1.17.78.569 2.003.191 2.95-.864 2.147-2.301 3.985-4.348 5.44-.547.397-.76.746-.093 1.267 3.195 2.47 5.592 5.399 7.324 8.696.113.213.307.4.412.542 1.938-.605 3.752-1.316 5.678-1.713 1.423-.302 2.992-.305 4.492-.228.364.017.853.2 1.227.433.267.168.476.361.54.54.17.455-.294 1.225-.782 1.592-2.252 1.715-5.064 2.504-8.11 2.833-.51.059-1.038.041-1.596.062.25 2.362.494 4.577.763 7.026-1.585-.157-2.886-.29-4.302-.426.077-7.506-3.321-13.786-10.558-18.424-.092-.06-.186-.119-.277-.176-7.131-4.458-14.982-5.41-23.224-3.283-.53-1.07-1.021-2.078-1.663-3.378 2.599-.467 5.09-.906 7.727-1.378-.061-.36-.136-.785-.209-1.2-.437-2.432-.436-4.825.705-7.036.278-.537 1.028-1.213 1.585-1.205.192.005.416.096.64.235.418.262.834.694 1.04 1.05 1.277 2.22 1.3 4.544 1.03 6.865-.053.467-.129.931-.199 1.39 2.414.543 4.762.942 7.009 1.626 2.216.667 4.324 1.626 6.515 2.475.748-1.094 1.402-2.256 2.296-3.268.84-.951 1.873-1.81 2.962-2.568.891-.612 2.065-1.464 3.225-.74m-14.153 22.327c2.265 1.416 2.058 1.66.12 3.95-2.117 2.5-4.212 5.014-6.37 7.48-.59.684-.505 1.142.3 1.644l.057.036a122.968 122.968 0 0 1 2.086 1.304l.91.57c.455.285.914.568 1.381.843l.072.044c.729.456.907.857.316 1.514-1.545 1.727-1.477 2.038-2.584 1.346-.142-.09-.304-.194-.49-.315-.254-.159-.558-.358-.912-.58a157.63 157.63 0 0 1-1.681-1.039c-.559-.348-1.116-.7-1.674-1.049a354.19 354.19 0 0 0-4.087-2.546l-.072-.043c-.808-.506-.926-.905-.32-1.593 1.767-1.99 3.442-4.037 5.156-6.061 1.66-1.963 3.34-3.903 4.962-5.89.532-.641.958-.755 1.823-.232.378.23.714.433 1.007.617m25.307 15.824c.094.059.19.125.286.2.311.237.64.458.978.67.41.256.835.499 1.259.738l.11.064c.647.406.631.81.186 1.323-3.44 4.05-6.866 8.097-10.285 12.15-.453.549-.875.644-1.633.218-.58-.327-1.054-.593-1.425-.826-1.608-1.005-1.327-1.382.393-3.312 1.625-1.823 3.421-3.54 5.132-5.31.305-.32.57-.674.853-1.009l-.238-.149c-3.018 1.549-6.042 3.103-9.061 4.651-.66.342-1.22.742-2.102.193-.926-.609-.565-1.188-.403-1.768.714-2.61 1.472-5.203 2.208-7.81.104-.36.175-.723.26-1.087a7.897 7.897 0 0 0-.338-.117c-.99 1.435-1.948 2.9-2.997 4.307a65.099 65.099 0 0 1-3.425 4.239c-.196.217-1.027.294-1.356.127-.794-.408-1.402-.722-1.841-.997-1.44-.901-1.041-1.371.641-3.36 2.92-3.447 5.861-6.88 8.734-10.356.65-.78 1.142-.847 2.099-.25 3.347 2.122 3.381 2.096 2.406 5.32-.607 2.024-1.23 4.04-1.844 6.06-.1.354-.164.72-.318 1.419.725-.37 1.101-.55 1.466-.758 2.687-1.49 5.415-2.947 8.054-4.505.828-.483 1.46-.528 2.201-.065m-41.128-25.704l.074.047a307.363 307.363 0 0 0 8.616 5.388l.061.037c.852.533.872.948.275 1.612-1.589 1.752-1.496 2.082-2.62 1.378-.139-.086-.297-.189-.479-.307-.271-.179-.602-.386-.995-.632-.448-.273-.893-.55-1.336-.826-.885-.554-1.76-1.11-2.623-1.648-.285.086-.345.087-.366.112-2.219 1.981-2.219 1.981.538 3.705l1.417.887c1.778 1.11 1.778 1.11.574 2.535-1.234 1.472-1.234 1.472-3.09.31-1.102-.687-2.208-1.37-3.314-2.053-.116-.071-.266-.089-.598-.212-.582.687-1.271 1.363-1.733 2.145-.14.234.238.886.59 1.125a77.187 77.187 0 0 0 2.496 1.625c.73.456 1.468.904 2.21 1.345.027.018.055.034.084.052.759.474.81.893.246 1.518-1.514 1.701-1.466 1.998-2.549 1.322-.137-.086-.29-.188-.469-.302-.246-.154-.534-.345-.865-.55-.57-.35-1.138-.7-1.703-1.055-.566-.352-1.128-.707-1.69-1.059-.733-.462-1.464-.924-2.197-1.383a187.958 187.958 0 0 0-2.3-1.417c-.824-.515-.829-.924-.255-1.59 3.38-3.936 6.73-7.88 10.04-11.857.625-.751 1.095-.794 1.96-.252m15.467 34.129c.499 1.107.966 2.156 1.502 3.372-1.973.356-3.782.683-5.769 1.04.07.405.138.826.22 1.245.463 2.429.542 4.826-.592 7.041-.309.602-1.113 1.008-1.692 1.498-.617-.537-1.462-1-1.788-1.629-1.155-2.198-1.162-4.484-.875-6.757.056-.428.126-.858.209-1.402-.744-.095-1.391-.18-2.037-.251-3.74-.436-7.3-1.422-10.628-3.04-.857-.422-1.148-.244-1.636.36-1.303 1.58-2.736 3.078-4.172 4.566-.366.376-.928.678-1.478.827-.668.177-1.651.406-2.095.138-.439-.275-.667-1.231-.488-1.734.513-1.412 1.155-2.809 2.004-4.076.697-1.032 1.76-1.871 2.793-2.939-3.645-2.79-6.627-6-8.513-9.781-1.743.5-3.235 1.053-4.816 1.362a16.819 16.819 0 0 1-4.2.288c-.766-.043-1.531-.654-2.293-1.007.358-.59.573-1.316 1.113-1.746 1.831-1.44 4.168-2.098 6.628-2.529.586-.107 1.19-.183 1.826-.278-.256-1.853-.507-3.63-.78-5.56 1.325.062 2.408.104 3.493.158.265.014.45.068.58.15.399.249.268.752.303 1.13.276 3.012 1.247 5.873 2.995 8.593 1.938 3.028 4.586 5.561 7.676 7.493 5.98 3.739 13.621 5.234 21.02 3.739.45-.088.904-.164 1.49-.27m-33.733-45.551l.075.047c2.948 1.9 2.98 1.863.963 4.246-.562.662-1.096 1.35-1.688 1.992-.505.557-.528 1.033.224 1.504a381.847 381.847 0 0 1 3.687 2.306c.722.45 1.186.296 1.627-.252.991-1.226 2.062-2.392 3.04-3.618.472-.596.918-.69 1.576-.279.047.03.095.061.145.097.374.266.76.523 1.156.77.395.246.797.484 1.203.714.047.026.092.053.133.078.633.396.59.777.142 1.295-1.738 2.01-3.436 4.043-5.149 6.067-1.661 1.962-3.353 3.904-4.968 5.896-.583.714-1.03.897-2.025.276l-.218-.136c-2.938-1.838-2.891-1.853-.81-4.368.81-.97 2.198-2.053 2.044-3.01-.064-.38-.496-.743-1.057-1.094-.329-.205-.702-.406-1.072-.607-.345-.19-.687-.37-.977-.553a1.754 1.754 0 0 1-.102-.064c-.172-.11-.328-.21-.472-.3-1.38-.864-1.498-.727-2.655.625-.88 1.04-1.797 2.068-2.636 3.142-.505.64-.946.77-1.825.25-.425-.257-.796-.48-1.115-.68-2.168-1.354-1.936-1.629-.004-3.91 2.866-3.385 5.763-6.751 8.575-10.17.689-.826 1.21-.873 2.183-.264" fill="#257396" mask="url(#mask-38)"></path><path d="M762.358 345.187c3.324 7.747-3.087 15.949 2.076 22.61 1.727 2.229 4.312 3.707 5.877 6.052 2.204 3.297 2.256 8.076 5.482 10.378 3.17 2.265 7.733.88 11.293 2.462 2.947 1.31 4.764 4.458 7.713 5.766 3.964 1.76 8.489-.303 12.822-.483 6.606-.274 12.94 3.906 19.486 2.974 7.255-1.034 12.19-7.879 18.868-10.899 2.478-1.12 5.41-1.874 6.83-4.195 1.86-3.03.15-7.127 1.436-10.441 1.22-3.143 3.18-3.604 3.438-6.966.134-1.759-.38-3.41-.734-5.138-.355-1.727 3.246-3.644 4.002-7.347 3.263 9.453 8.002 60.833-52.248 59.405-16.348-.389-27.276-6.52-35.013-12.39-21.568-16.357-14.573-46.016-11.328-51.788" fill="#1A3877" mask="url(#mask-38)"></path><path d="M770.288 324.768l-5.567 12.927c-4.72 10.956-4.203 23.623 1.967 33.831 3.718 6.152 9.18 11.735 16.254 16.158.655.409 1.319.8 1.986 1.18.206.119.415.23.623.346a52.686 52.686 0 0 0 2.125 1.122c.506.254 1.016.497 1.527.736.184.085.367.174.552.258.692.313 1.389.613 2.09.898.135.055.272.105.408.158.571.228 1.145.446 1.722.654.233.086.468.166.703.248.5.174 1 .34 1.503.5.236.074.47.15.707.222.588.179 1.178.347 1.77.509.135.036.269.077.404.113.725.19 1.45.366 2.18.529.197.044.395.083.592.126a58.205 58.205 0 0 0 3.934.705c.225.032.45.068.674.098a60.91 60.91 0 0 0 2.208.259l.041.003c.722.07 1.446.123 2.167.167.229.013.459.022.688.033.303.014.607.035.91.046.207.006.414.005.621.01a54.294 54.294 0 0 0 2.323.007c.25-.004.5-.005.748-.011a60.158 60.158 0 0 0 1.89-.084c.11-.008.219-.01.328-.018a57.23 57.23 0 0 0 2.201-.187c.212-.022.424-.051.636-.075.52-.06 1.04-.125 1.558-.198.26-.037.52-.078.78-.119.474-.074.949-.155 1.42-.241.262-.048.522-.095.782-.147a57.63 57.63 0 0 0 1.483-.315c.219-.05.438-.096.657-.148l.207-.045c.319-.079.632-.17.949-.252.379-.1.76-.195 1.136-.302.375-.107.744-.226 1.115-.34.374-.116.748-.227 1.118-.35.366-.122.726-.255 1.089-.385.367-.13.737-.259 1.1-.398.359-.138.711-.288 1.067-.432.358-.147.717-.29 1.071-.444.351-.154.697-.319 1.044-.48.348-.162.7-.322 1.045-.491.34-.168.674-.348 1.01-.524.34-.177.684-.352 1.02-.539.33-.184.654-.378.98-.57.33-.193.663-.383.987-.584.323-.2.635-.41.95-.617.32-.209.64-.414.953-.63.054-.037.11-.072.164-.11.16-.112.311-.234.468-.349.483-.345.96-.698 1.427-1.063a48.73 48.73 0 0 0 2.664-2.262 42.83 42.83 0 0 0 1.246-1.204c.19-.192.385-.377.572-.572a40.367 40.367 0 0 0 1.698-1.874 39.244 39.244 0 0 0 1.747-2.232c.41-.56.805-1.126 1.178-1.7.027-.042.057-.082.084-.125a37.032 37.032 0 0 0 1.38-2.335c.306-.56.598-1.125.872-1.694.037-.077.078-.153.114-.23.298-.636.573-1.276.832-1.922l.19-.489c.08-.209.167-.417.242-.626.137-.378.262-.757.385-1.138.023-.072.05-.143.073-.215a34.124 34.124 0 0 0 .67-2.437l.006-.021c.296-1.24.405-2.52.365-3.795l-.727-22.774c-.119.674-92.82 1.66-90.086-13.75" fill="#EA932A" mask="url(#mask-38)"></path><path d="M840.217 307.916c21.032 13.15 26.486 37.506 12.175 54.408-14.31 16.902-42.96 19.943-63.992 6.794-21.023-13.145-26.472-37.508-12.162-54.41 14.31-16.901 42.956-19.937 63.98-6.792" fill="#FFC255" mask="url(#mask-38)"></path><path d="M764.72 337.695c1.147 2.674 1.042 4.836.726 7.585-.32 2.783.434 5.625 1.592 8.138 1.495 3.243 3.666 6.12 5.454 9.212 2.671 4.623 2.766 9.86 5.952 14.218 1.601 2.192 3.77 4.069 6.376 4.824 2.657.77 5.5.323 8.256.57 7.098.632 13.07 5.766 20.078 7.066 2.54.472 5.332.374 7.482-1.058 1.387-.923 2.395-2.323 3.742-3.304 2.536-1.846 6.128-2.1 9.163-1.856.558.045 1.077.265 1.63.311.806.067 1.68-.191 2.469-.336 1.807-.33 3.605-.73 5.346-1.325 2.682-.918 5.252-2.332 7.145-4.443 2.213-2.47 3.333-5.668 4.268-8.792.44-1.474 1.005-2.948 2-4.132 1.007-1.2 1.917-2.354 2.555-3.804 2.31-5.264.54-10.836 1.322-16.286.045-.313.336-1.074.238-1.356 3.263 9.452 13.535 57.547-48.385 58.945-16.349.37-27.276-6.52-35.014-12.389-21.568-16.357-15.64-46.017-12.395-51.788" fill="#F2F2F2" mask="url(#mask-38)"></path><path d="M814.842 354.768c-.198.095-.38.198-.56.313l.201 1.224-.607.036-.32-1.904.497-.03.072.207c.172-.12.356-.213.564-.291l.153.445zm1.651 1.042c.207-.022.28-.108.249-.28l-.114-.687c-.011-.082-.044-.143-.105-.182a.384.384 0 0 0-.223-.042.89.89 0 0 0-.491.204l.162.964c.17.02.343.025.522.023m.363.378l-.19.014a3.615 3.615 0 0 1-.619-.019l.128.782-.598.108-.46-2.739.462-.033.081.155c.2-.14.44-.227.708-.238.215-.018.39.017.527.103.16.1.264.27.304.501l.122.663c.11.315-.097.63-.465.703m-4.468-.106c.313-.022.412-.14.371-.354l-.082-.516c-.007-.12-.053-.204-.137-.258-.085-.052-.204-.071-.36-.06l.006.02c-.308.017-.412.14-.378.35l.089.52c.018.107.062.188.144.238.079.05.192.07.347.06m.87-.904l.083.487c.064.372-.091.748-.888.8-.37.025-.627-.035-.803-.145-.206-.13-.302-.326-.343-.534l-.071-.472c-.073-.386.09-.758.886-.809.369-.024.626.037.802.148.204.128.3.321.334.525m-8.318.775c.124.077.158.193.194.393.067.393-.065.604-.762.65a3.66 3.66 0 0 1-.827-.053l.017-.369c.24.037.475.051.71.038.253-.022.29-.065.264-.214-.01-.07-.016-.113-.067-.144-.055-.035-.162-.055-.38-.08-.252-.03-.406-.069-.506-.131-.133-.083-.168-.21-.207-.417-.063-.37.12-.56.784-.607.237-.015.468-.01.701.02l.012.376c-.214-.01-.43-.021-.652-.009-.249.016-.29.065-.263.186.01.06.016.103.07.137.046.03.132.052.295.072.321.044.505.083.617.152m-2.911.818c.155-.017.298-.06.428-.13l-.043-.282-.437.03c-.19.014-.24.058-.207.201.01.075.033.123.078.151.04.025.099.033.18.03m.59-1.485c.164.102.246.27.285.508l.237 1.236-.476.035-.063-.135a1.376 1.376 0 0 1-.669.206.706.706 0 0 1-.44-.088.612.612 0 0 1-.265-.429c-.054-.325.12-.53.595-.564l.535-.034-.036-.194c-.017-.106-.046-.175-.113-.217-.072-.046-.189-.057-.383-.046a4.18 4.18 0 0 0-.632.107l-.132-.358c.246-.082.507-.127.782-.144.366-.023.611.015.774.117m32.093 2.487l.376 2.241 2.396-.159.11 1.566-2.244.148.692 4.135c.002.21.132.406.329.528.122.076.27.125.43.135l.201-.016a5.066 5.066 0 0 0 1.145-.24l.537 1.508c-.63.242-1.31.394-2.006.45-.833.053-1.492-.069-1.978-.372-.508-.318-.824-.834-.945-1.56l-.742-4.41-1.405.087-.253-1.55 1.397-.092-.335-1.97 2.295-.429zm-4.91-.96l1.916 11.439-2.339.147-1.873-11.157zm-15.238 11.126a3.841 3.841 0 0 0 1.7-.518l-.189-1.169-1.73.11c-.764.053-.952.248-.85.851.051.308.143.505.32.616.165.103.402.133.75.11m3.484-4.06l.873 5.214-1.927.12-.258-.502c-.747.506-1.672.819-2.665.879-.709.048-1.28-.09-1.722-.366-.614-.384-.975-1.036-1.106-1.828-.27-1.616.45-2.284 2.348-2.412l2.246-.15-.138-.823c-.071-.432-.189-.722-.464-.894-.29-.182-.756-.232-1.526-.18-.866.065-1.724.2-2.55.412l-.534-1.498a13.717 13.717 0 0 1 3.142-.582c1.446-.095 2.424.055 3.083.468.683.427 1.026 1.135 1.198 2.143m-10.385-9.796l.657-.046.033.468-.658.046zm2.571 2.052c.256-.01.507-.042.76-.091l.133.414a4.052 4.052 0 0 1-.854.147c-.416.029-.72-.027-.927-.156a.718.718 0 0 1-.33-.516l-.175-1.17c-.08-.476.218-.773 1.006-.828.296-.015.595-.007.882.03l.003.428a5.886 5.886 0 0 0-.791-.04c-.416.032-.533.157-.486.435l.17.996c.02.133.069.227.161.284.096.06.238.081.448.067m-2.449-1.322l.614-.043.319 1.904-.615.032zm-.657.099c.14.087.218.246.252.45l.235 1.378-.582.034-.223-1.322c-.008-.053-.028-.09-.063-.11-.035-.022-.085-.03-.153-.025a1.77 1.77 0 0 0-.578.196l.215 1.317-.609.037-.442-2.663.617.037.14.835c.25-.128.53-.208.827-.24a.602.602 0 0 1 .364.076m2.987 3.799l-2 11.111-3.577.233-5.638-10.605 2.52-.165 4.598 8.827 1.584-9.23zm-10.222-4.12l.613-.042.436 2.629-.613.043-.179-1.096-1.174.079.179 1.097-.609.036-.441-2.623.606-.048.186 1.101 1.183-.075zm26.91 5.97l1.33 7.93-1.782.116-.35-.672a9.918 9.918 0 0 1-3.584 1.09c-.607.04-1.084-.07-1.456-.302-.584-.365-.905-1.033-1.05-1.899l-.962-5.75 2.326-.146.925 5.53c.04.225.128.387.282.484.136.084.324.119.578.1a6.577 6.577 0 0 0 2.325-.827l-.926-5.501 2.344-.153zM816.66 317.61l-2.73.176.383 2.303 2.736-.172-.39-2.308zm1.59 9.276l-.386-2.324-2.742.179.39 2.307 2.739-.162zm-5.644-9.01l-2.769.182.391 2.307 2.768-.181-.39-2.307zm5.061 5.512l-.393-2.318-2.742.179.362 2.326 2.773-.187zm-11.344-1.583l.392 2.346 2.73-.177-.392-2.346-2.73.177zm7.262 1.87l-.392-2.318-2.77.181.394 2.318 2.768-.18zm-1.604 7.138l2.768-.18-.392-2.32-2.768.182.392 2.318zm-.978-5.799l.393 2.319 2.768-.182-.393-2.319-2.768.182zm-5.265-6.69l.392 2.346 2.742-.177-.4-2.352-2.734.183zm1.551 9.31l2.743-.18-.393-2.346-2.742.178.392 2.347zm26.171-19.255l-16.972 41.579-30.232-38.476 47.204-3.103z" fill="#000" mask="url(#mask-38)"></path><path d="M2.71 11.443c3.325-.467 7.45-.75 11.098.289-2.374-.697-4.948-1.173-7.217-2.489a10.512 10.512 0 0 1-2.306-1.796C2.946 6.064 1.81 3.502.65.734c1.13 3.004 2.266 6.998 2.061 10.709z" mask="url(#mask-40)" transform="translate(494.000000, 543.000000)"></path><path d="M.641 1.3a44.675 44.675 0 0 0 4.348 2.298c.125-.402.225-.816.305-1.237A14.849 14.849 0 0 0 5.517.443C3.431.759 1.681 1.159.641 1.3z" mask="url(#mask-42)" transform="translate(491.000000, 555.000000)"></path><path d="M7.532 6.15c2.374 1.434 5.19 2.759 8.255 3.461 3.18.729 5.89.87 8.333.699.245-.021.998-.159 1.887-.619a6.707 6.707 0 0 0 1.84-1.403 9.671 9.671 0 0 0 2.14-3.69 46.787 46.787 0 0 1-4.5-2.301c-2.007.258-6.92 1.22-13.356.87a65.875 65.875 0 0 1-1.265-.085c-.252-.02-.502-.042-.746-.066l-.082-.008-.402-.041C6.034 2.577 3.57 1.854 2.05 1.261c-.32-.124-.596-.243-.831-.351L1.103.856A12.079 12.079 0 0 1 .943.78L.846.734a12.52 12.52 0 0 1-.432-.23L.254.411C.174.361.137.335.134.334.28.489 3.04 3.437 7.532 6.15z" mask="url(#mask-44)" transform="translate(466.000000, 554.000000)"></path><path d="M13.223 14.423C8.203 18.581.539 14.342.135 14.118c.002.001.04.029.132.09l.149.09c.111.066.257.149.436.244l.095.049c.052.026.105.053.162.08.038.02.077.038.116.057.237.115.515.24.843.374 1.521.626 3.998 1.391 7.62 1.804l.403.044.083.008a37.891 37.891 0 0 0 1.164.104c.28.02.567.04.858.056 6.471.37 11.409-.648 13.428-.921-.2-.12-.395-.242-.645-.403C15.912 10.006 15.31 3.58 15.377.94c-.153 5.015 1.729 10.268-2.154 13.483z" mask="url(#mask-46)" transform="translate(466.000000, 540.000000)"></path><path d="M5.153.369C2.786.782 1.046 4.033.842 9.104c-.006.051-.004.104-.008.185-.067 2.565.55 8.888 9.87 14.621.196.12.396.24.599.358 1.108-.144 2.964-.56 5.18-.893.205-3.861-.914-8.023-2.03-11.152-.593-1.494-1.196-3.048-1.836-4.519-.144-.332-.295-.66-.442-.983-1.19-2.568-2.533-4.771-4.21-5.8C7.32.527 6.624.305 5.866.305c-.232 0-.469.021-.712.065z" mask="url(#mask-48)" transform="translate(480.000000, 532.000000)"></path><path d="M.6.445C.584.71.563.976.536 1.239c-.041.379-.096.753-.17 1.122-.085.421-.19.835-.322 1.237 5.761 2.495 9.512 2.554 12.438 3.151l.14.029a12.43 12.43 0 0 1 3.887 1.519c.065.039.128.076.187.113l.658.39c.477.282.37-.421.078-.924-.227-.398-.485-.808-.592-1.217-.109-.418.102-1.256.125-1.522.064-.802-.19-1.606-1.385-2.507a8.491 8.491 0 0 0-.808-.542c-1.006-.595-2.125-1-3.291-1.352C9.688.215 7.775.027 5.903.027 4.043.027 2.223.213.6.445zm12.671 4.299c-.426-.253-.54-.722-.251-1.046.29-.324.873-.379 1.3-.126.429.254.543.722.254 1.046-.168.188-.433.285-.71.285-.203 0-.411-.052-.593-.159z" mask="url(#mask-50)" transform="translate(496.000000, 555.000000)"></path><path d="M510.063 558.296c.424.264.536.752.25 1.089-.285.337-.859.395-1.282.13-.421-.263-.534-.75-.248-1.087.285-.337.86-.396 1.28-.132" fill="#FFF" mask="url(#mask-52)"></path><path d="M4.14 4.291a6.852 6.852 0 0 1-1.881 1.4c-.907.46-1.675.598-1.925.619 5.843-.401 10.19-2.517 15.743-2.751a11.838 11.838 0 0 1 2.822.218l-.14-.028c-2.926-.597-6.676-.656-12.437-3.151A9.595 9.595 0 0 1 4.14 4.291z" mask="url(#mask-54)" transform="translate(490.000000, 558.000000)"></path><path d="M458.33 556.334l-.96 1.135-1.051-.657c-.84-.525-2.043-.38-2.63.314l-.126.15 1.911 1.195-.96 1.135-1.91-1.196-4.866 5.746-1.422-.889 4.866-5.747-.822-.513.96-1.133.82.513.128-.15c.535-.632 1.348-1.038 2.291-1.152a4.222 4.222 0 0 1 2.72.592l1.052.657zm11.778 10.847l-3.6 4.254c-1.362 1.607-4.111 1.89-6.129.63-2.017-1.263-2.548-3.596-1.187-5.204l3.602-4.254 1.421.889-3.6 4.253c-.834.985-.508 2.41.724 3.181 1.233.771 2.914.6 3.747-.384l3.6-4.253 1.422.888zm1.202 5.367l4.979 3.114c.818-1.091.435-2.61-.894-3.44-1.331-.832-3.13-.678-4.086.326m5.048-1.46c2.157 1.349 2.73 3.847 1.272 5.569-.48.567-1.453.668-2.166.223l-5.114-3.198c-.818 1.09-.434 2.609.896 3.441l2.49 1.557-.96 1.133-2.49-1.556c-2.157-1.35-2.728-3.848-1.27-5.57l.784-.927c1.458-1.722 4.397-2.024 6.558-.673m-14.367-12.476l-8.007 9.456-1.419-.888 8.005-9.456zm23.365 18.103c2.018 1.261 2.552 3.595 1.191 5.203l-3.603 4.254-1.421-.888 3.602-4.255c.833-.983.507-2.41-.727-3.182-1.233-.77-2.912-.597-3.745.385l-3.602 4.256-1.421-.889 3.602-4.255c1.36-1.608 4.11-1.889 6.124-.629m14.182 14.043l.396-.469c.833-.984.508-2.41-.727-3.181-1.232-.771-2.912-.599-3.744.385l-.396.468-.145.171-.593.699c-.831.984-.507 2.41.726 3.18 1.235.772 2.914.6 3.747-.385l.173-.205.418-.493.145-.17zm4.799-5.669l1.421.889-4.404 5.203-.396.466-.144.172-.42.494-.173.206c-1.362 1.608-4.11 1.889-6.127.628-2.015-1.26-2.55-3.594-1.188-5.202l.593-.7.144-.17.395-.468c1.362-1.607 4.112-1.89 6.127-.63.842.526 1.427 1.24 1.72 2.008l2.452-2.896zm-9.273-5.798l-1.935 2.284 1.924 1.204-.959 1.131-1.926-1.2-3.066 3.622c-.575.678-.354 1.66.497 2.192l.634.396-.96 1.136-.629-.393c-1.636-1.023-2.067-2.916-.962-4.221l3.067-3.623-1.262-.79.959-1.132 1.26.79 1.936-2.285 1.422.888z" fill="#181B1C" mask="url(#mask-56)"></path><path d="M713.218 445.177c3.324 7.745-3.087 15.949 2.076 22.61 1.727 2.229 4.312 3.707 5.877 6.05 2.203 3.299 2.255 8.076 5.482 10.38 3.17 2.263 7.732.88 11.293 2.462 2.948 1.31 4.763 4.457 7.712 5.765 3.964 1.76 8.49-.303 12.823-.483 6.606-.274 12.94 3.906 19.486 2.974 7.255-1.033 12.19-7.88 18.868-10.898 2.478-1.12 5.409-1.876 6.83-4.195 1.859-3.03.15-7.127 1.436-10.441 1.22-3.144 3.18-3.605 3.437-6.966.134-1.759-.38-3.41-.734-5.138-.354-1.728 3.247-3.645 4.003-7.347 3.263 9.452 8.001 60.833-52.248 59.404-16.348-.388-27.275-6.52-35.013-12.389-21.569-16.357-14.574-46.016-11.328-51.788" fill="#1A3877" mask="url(#mask-56)"></path><path d="M720.709 426.59l-5.567 12.928c-4.72 10.956-4.203 23.624 1.967 33.831 3.717 6.152 9.18 11.735 16.254 16.158.655.41 1.319.8 1.986 1.18.206.118.415.232.623.346a55.781 55.781 0 0 0 3.652 1.858c.184.085.367.174.552.258.692.313 1.388.613 2.09.898.134.055.272.105.408.158.57.228 1.145.446 1.722.655.233.085.468.165.703.247.499.174 1 .34 1.502.5.236.074.471.15.707.222.589.179 1.179.349 1.77.509.135.036.27.077.405.113.725.19 1.45.366 2.18.53.197.043.395.082.592.125a58.205 58.205 0 0 0 3.934.705c.224.032.45.068.674.098.735.099 1.471.188 2.207.259l.042.003c.722.07 1.445.123 2.167.167.229.013.459.022.687.033.304.015.608.035.911.046.207.007.414.005.621.01a54.307 54.307 0 0 0 2.323.007c.25-.004.5-.005.748-.011a60.161 60.161 0 0 0 1.89-.084c.11-.008.219-.01.328-.017.736-.049 1.47-.112 2.201-.188.212-.022.423-.051.635-.075.521-.06 1.041-.124 1.56-.198.26-.037.518-.078.778-.119.475-.075.95-.155 1.421-.241.261-.048.521-.095.781-.147.497-.097.991-.205 1.483-.315.22-.05.44-.096.657-.148.07-.015.139-.029.207-.045.32-.077.633-.17.95-.252.378-.1.759-.195 1.135-.302.376-.107.745-.226 1.116-.34.373-.116.748-.226 1.118-.35.366-.122.726-.255 1.089-.385.367-.131.737-.259 1.1-.398.359-.138.711-.288 1.067-.432.357-.147.717-.29 1.07-.444.352-.154.697-.319 1.045-.48.348-.162.7-.32 1.045-.491.34-.168.674-.348 1.01-.524.34-.178.684-.352 1.02-.539.33-.183.654-.378.98-.57.33-.193.663-.383.987-.584.322-.2.634-.41.95-.618.32-.208.64-.413.953-.629.054-.037.11-.072.164-.11.16-.11.311-.234.468-.349.483-.345.96-.698 1.427-1.063.241-.189.478-.382.715-.576.427-.347.845-.703 1.257-1.066.232-.205.464-.41.692-.62a43.9 43.9 0 0 0 1.246-1.204c.19-.19.384-.377.572-.571a40.933 40.933 0 0 0 1.698-1.875 39.243 39.243 0 0 0 1.747-2.232c.41-.56.805-1.126 1.178-1.7.027-.04.057-.082.084-.124a37.538 37.538 0 0 0 1.38-2.335c.306-.56.598-1.126.871-1.695.038-.077.078-.153.115-.23.298-.636.573-1.277.832-1.922.064-.162.126-.325.189-.489.08-.209.167-.416.243-.626.136-.378.262-.757.385-1.138.023-.072.05-.143.073-.215.207-.653.39-1.31.556-1.971.04-.155.077-.311.114-.466l.006-.02c.296-1.242.405-2.52.365-3.796l-.727-22.774c-.119.674-92.82 1.66-90.086-13.75" fill="#EA932A" mask="url(#mask-56)"></path><path d="M790.638 409.74c21.031 13.15 26.485 37.506 12.175 54.408-14.31 16.902-42.96 19.943-63.992 6.794-21.024-13.145-26.472-37.508-12.162-54.41 14.31-16.901 42.956-19.936 63.98-6.792" fill="#FFC255" mask="url(#mask-56)"></path><path d="M715.14 439.519c3.324 7.746-2.019 15.948 3.144 22.61 1.727 2.228 4.311 3.707 5.877 6.051 2.204 3.297 2.256 8.075 5.482 10.379 3.17 2.264 7.734.88 11.293 2.462 2.948 1.31 4.765 4.457 7.713 5.765 3.965 1.76 8.49-.303 12.822-.483 6.607-.273 12.94 3.906 19.485 2.974 7.256-1.033 12.191-7.879 18.87-10.898 2.477-1.12 5.409-1.876 6.83-4.195 1.858-3.03.149-7.128 1.435-10.442 1.22-3.143 3.18-3.604 3.438-6.966.134-1.758-.38-3.41-.734-5.138-.355-1.727-.616-3.185.14-6.886 3.263 9.451 13.535 57.546-48.385 58.944-16.349.37-27.276-6.52-35.014-12.389-21.568-16.357-15.64-46.017-12.395-51.788" fill="#F2F2F2" mask="url(#mask-56)"></path><path d="M769 469.068c1.614-1.04 2.696-2.462 3.158-4.313.088-.353.125-.496.004-.578-.082-.055-.237-.08-.5-.126-3.277-.566-6.558-1.125-9.836-1.691-.657-.108-1.319-.226-1.976-.333-2.694-.467-5.385-.923-8.086-1.397-.309-.05-.456-.003-.449.308.01.292-.022.577-.006.86.15 2.327 1.277 4.237 3.083 5.804.398.344.809.658 1.231.943 2.011 1.357 4.28 2.051 6.762 2.174 2.418.114 4.645-.387 6.615-1.651m-24.038-12.292c11.483 1.972 22.93 3.93 34.414 5.901.266-1.981.53-3.942.8-5.925-11.49-1.964-22.94-3.934-34.415-5.9l-.8 5.924m1.332-8.974c.134.09.29.146.483.181 10.684 1.823 21.371 3.657 32.062 5.485.538.099 1.13.33 1.598.203.508-.133.905-.592 1.32-.934 2.166-1.797 3.945-3.886 5.222-6.366.07-.133.106-.277.18-.48-4.07.079-8.063.147-12.095.22l.104-.13c3.387-2.913 4.608-6.728 4.544-11.075-.04-2.145-.527-4.225-1.312-6.274-.553-1.46-1.182-2.907-1.576-4.396-.69-2.553-.785-5.086.564-7.411-.227-.018-.327.043-.419.107-.818.534-1.469 1.223-2.023 1.998-1.953 2.72-2.918 5.856-3.725 9.044-.307 1.185-.545 2.384-.803 3.581-.035-1.395.01-2.777.023-4.16.027-1.227.13-2.465-.012-3.678-.187-1.539-.558-3.076-.9-4.604-.388-1.739-.858-3.458-1.25-5.19-.216-.967-.174-1.94.194-2.842.18-.447.457-.85.71-1.302l-.279-.01c-.678.017-1.258.269-1.767.643-1.679 1.23-2.683 2.892-3.174 4.849-.361 1.422-.589 2.882-.965 4.294-.508 1.851-1.27 3.594-2.334 5.196-.345.515-.751.99-1.128 1.484-.056-1.335.033-2.488-.004-3.64-.051-1.617-.3-3.23-1.035-4.738-.273-.564-.678-1.09-1.086-1.577a1.172 1.172 0 0 0-.242-.21c-.188-.126-.41-.225-.6-.347l-.03.411c.172.95.122 1.886-.096 2.804-.34 1.406-.986 2.698-1.657 3.976-1.063 2.003-2.162 3.992-3.142 6.04-.836 1.734-1.3 3.605-1.305 5.573-.004 2.655.757 5.14 2.212 7.472.042.071.07.143.158.308-3.634-1.398-7.163-2.768-10.698-4.13.067.708.208 1.33.379 1.942.747 2.634 2.112 5.011 3.587 7.346.095.148.197.257.317.337m55.05-1.217c-2.571 19.123-20.938 31.762-41.223 28.352a40.167 40.167 0 0 1-15.573-6.262c-11.407-7.698-18.165-20.894-16.325-34.575 2.567-19.136 20.948-31.807 41.213-28.338a39.835 39.835 0 0 1 15.596 6.241c11.393 7.687 18.148 20.904 16.313 34.582" fill="#DA4E2A" mask="url(#mask-56)"></path></g></svg>