<svg xmlns="http://www.w3.org/2000/svg" fill="white" viewBox="0 0 139 52"><path d="M37.11 24.48c-.993 0-1.833.84-1.833 1.832 0 .993.84 1.833 1.832 1.833.993 0 1.833-.84 1.833-1.833 0-.992-.84-1.832-1.833-1.832"/><path d="M37.11 30.468c-1.451 0-2.75-.764-3.437-1.91a52.731 52.731 0 0 0-1.603 4.353c-1.68 4.658-2.825 7.636-4.276 8.705-.764.763-1.756 1.221-2.978 1.221a4.106 4.106 0 0 1-4.123-4.123c0-1.45.763-2.749 1.909-3.436a52.731 52.731 0 0 0-4.353-1.603c-4.657-1.68-7.635-2.825-8.704-4.276-.764-.764-1.222-1.756-1.222-2.978a4.106 4.106 0 0 1 4.123-4.123c1.451 0 2.75.763 3.436 1.909a52.772 52.772 0 0 0 1.604-4.353c1.68-4.657 2.825-7.635 4.276-8.704.763-.764 1.756-1.222 2.978-1.222a4.106 4.106 0 0 1 4.123 4.123c0 1.45-.764 2.749-1.909 3.436 1.45.611 3.13 1.222 4.352 1.604 4.658 1.68 7.636 2.825 8.705 4.276.764.763 1.222 1.756 1.222 2.978 0 2.214-1.833 4.123-4.124 4.123M27.336 2.445c-.993-.993-2.52-.993-3.513 0L1.757 24.512c-.993.993-.993 2.52 0 3.512l22.066 22.067c.993.993 2.52.993 3.513 0l22.067-22.067c.992-.992.992-2.52 0-3.512L27.336 2.445z"/><path d="M12.424 24.48c-.992 0-1.832.84-1.832 1.832 0 .993.84 1.833 1.832 1.833.993 0 1.833-.84 1.833-1.833 0-.992-.84-1.832-1.833-1.832m12.343 12.342c-.993 0-1.833.84-1.833 1.833s.84 1.832 1.833 1.832c.992 0 1.832-.84 1.832-1.832 0-.993-.84-1.833-1.832-1.833M21.884 16.87c-.229-.23-.458-.459-.61-.764a52.731 52.731 0 0 0-1.604 4.352c-1.68 4.658-2.825 7.636-4.276 8.705-.23.229-.458.458-.764.61a52.639 52.639 0 0 0 4.353 1.604c4.657 1.68 7.635 2.825 8.704 4.276.23.229.458.458.611.763.61-1.45 1.222-3.13 1.603-4.352 1.68-4.658 2.826-7.635 4.276-8.704.23-.23.459-.459.764-.611a52.731 52.731 0 0 0-4.352-1.604c-4.658-1.603-7.712-2.749-8.705-4.276m2.883-1.111c.992 0 1.832-.84 1.832-1.833s-.84-1.833-1.832-1.833c-.993 0-1.833.84-1.833 1.833 0 1.069.84 1.833 1.833 1.833m36.766 14.957c-.153-.153-.23-.306-.23-.458-.076-.23-.076-.458-.076-.764V16.665l-1.909.306v12.751c0 .993.23 1.756.764 2.215.458.458 1.298.763 2.52.763l.229-1.603c-.306-.077-.535-.077-.764-.153a.693.693 0 0 1-.534-.23m4.847-4.52c.075-.382.152-.763.228-1.069.153-.382.306-.687.535-.916.229-.306.534-.458.84-.687.305-.153.687-.23 1.145-.23.763 0 1.374.306 1.832.84.459.535.688 1.222.611 2.138H66.38zm2.824-4.581c-.61 0-1.221.152-1.832.381-.611.23-1.07.611-1.527 1.07a4.532 4.532 0 0 0-1.07 1.756c-.305.687-.381 1.527-.381 2.443 0 .84.076 1.527.305 2.214a5.01 5.01 0 0 0 .993 1.757c.458.458.992.84 1.68 1.145.687.305 1.45.382 2.367.382a7.88 7.88 0 0 0 1.985-.23c.61-.152.993-.228 1.222-.381l-.23-1.604c-.228.077-.61.23-1.068.306-.458.153-.993.153-1.68.153-1.222 0-2.062-.306-2.596-.84-.535-.535-.917-1.375-.993-2.52h7.254v-.687c0-1.833-.382-3.207-1.145-4.047-.764-.84-1.91-1.298-3.284-1.298m12.826 9.45c-.23.077-.535.077-.84.077h-1.222c-.764 0-1.375-.153-1.756-.382-.459-.23-.688-.764-.688-1.451 0-.382.077-.687.23-.916.152-.23.381-.382.687-.535s.534-.229.916-.229c.305-.076.61-.076.916-.076.458 0 .84 0 1.145.076.306.077.535.077.688.153v3.283zm.992-8.323c-.305-.381-.764-.61-1.298-.84-.535-.229-1.145-.305-1.909-.305-.687 0-1.298.076-1.833.153-.534.076-.992.229-1.221.305l.229 1.604c.229-.077.61-.153 1.069-.306a9.723 9.723 0 0 1 1.68-.153c.458 0 .916.077 1.221.23s.535.305.764.61c.153.23.305.535.382.84.076.306.076.611.076.917v.534c-.076 0-.153 0-.305-.076-.153 0-.306-.077-.459-.077-.152 0-.381-.076-.61-.076h-.611c-.611 0-1.146.076-1.756.153-.535.152-.993.305-1.451.61-.382.23-.764.611-.993.993-.229.458-.382.916-.382 1.527 0 .611.077 1.146.306 1.604s.458.763.84 1.069c.382.229.84.458 1.298.61.534.153 1.069.153 1.68.153.458 0 .84 0 1.298-.076.458 0 .84-.076 1.221-.076.382-.077.688-.077.993-.153.305-.076.535-.076.687-.076v-6.643c0-.611-.076-1.146-.229-1.68a3.876 3.876 0 0 0-.687-1.375m9.128-.94c-.229 0-.382-.076-.61-.076h-.535c-.84 0-1.604.076-2.215.229-.687.153-1.221.305-1.68.458v10.155h1.91v-8.933c.076 0 .305-.077.687-.153.382-.076.687-.076 1.069-.076.534 0 .992.076 1.374.076.382.076.611.153.764.229l.305-1.68c-.076 0-.229-.076-.382-.076-.305-.077-.458-.153-.687-.153m10.503 1.264c-.305-.458-.763-.763-1.374-.993-.534-.229-1.298-.381-2.138-.381-.916 0-1.756.076-2.52.152-.687.153-1.298.23-1.756.382v10.308h1.909v-9.01c.076 0 .153 0 .305-.076.153 0 .306-.076.535-.076.229 0 .382 0 .61-.077h.612c.534 0 .916.077 1.298.23.305.152.61.305.84.61.229.306.381.687.458 1.145.076.459.152.993.152 1.68v5.574h1.91v-5.956c0-.687-.077-1.374-.23-1.985-.076-.61-.305-1.145-.61-1.527m12.032 6.312c-.381-.535-.84-1.07-1.298-1.604a10.45 10.45 0 0 0-1.298-1.298c.84-.84 1.604-1.603 2.291-2.367a618.04 618.04 0 0 1 2.138-2.367h-3.589c-.229.229-.382.534-.687.84-.229.305-.534.61-.84.992-.305.382-.61.688-.916 1.07-.306.381-.611.687-.916.992v-9.01l-3.055.458v15.424h3.055v-4.734c.305.305.687.61 1.069.993.381.381.687.84.992 1.221.306.459.611.84.916 1.298.306.459.535.84.764 1.146h3.512c-.229-.458-.534-.916-.84-1.527-.458-.382-.84-.917-1.298-1.527m9.547.514c-.305.306-.84.535-1.527.535-.382 0-.687-.076-.916-.152a1.663 1.663 0 0 1-.61-.382 2.32 2.32 0 0 1-.383-.535c-.076-.229-.076-.381-.076-.534 0-.535.153-.993.382-1.375.229-.381.61-.687.992-.992.382.152.764.229 1.07.382.305.152.61.305.84.458.228.152.457.381.61.61.153.23.23.535.23.84a2.12 2.12 0 0 1-.612 1.146m-3.13-8.4c.076-.152.152-.381.305-.534.153-.153.306-.305.535-.382.229-.076.458-.152.763-.152.306 0 .611.076.764.152.229.077.382.23.534.382a1.6 1.6 0 0 1 .306.458c.076.153.076.306.076.458 0 .535-.153.917-.382 1.298a2.32 2.32 0 0 1-.992.917c-.764-.306-1.298-.611-1.68-.993-.306-.382-.458-.763-.458-1.222.076 0 .152-.152.229-.381m4.505 3.588c.534-.305.916-.763 1.298-1.374.382-.535.534-1.145.534-1.833 0-.458-.076-.916-.229-1.374-.153-.458-.458-.84-.84-1.222a3.941 3.941 0 0 0-1.45-.916 5.942 5.942 0 0 0-2.138-.382c-.688 0-1.375.077-1.91.306a3.943 3.943 0 0 0-1.45.916c-.382.382-.764.84-.916 1.298-.23.534-.306.993-.306 1.603 0 .688.153 1.299.382 1.757a5.37 5.37 0 0 0 1.298 1.374 7.12 7.12 0 0 0-.764.687c-.229.23-.458.458-.61.764-.23.305-.306.61-.459.916a4.621 4.621 0 0 0-.152 1.145c0 .382.076.84.229 1.299.153.458.458.916.84 1.298a4.42 4.42 0 0 0 1.527.992c.61.23 1.45.382 2.367.382.84 0 1.527-.076 2.214-.305a5.493 5.493 0 0 0 1.604-.917c.458-.381.763-.84.916-1.374.23-.535.305-1.07.305-1.68 0-.764-.152-1.374-.534-1.909-.458-.458-.993-.992-1.756-1.45m11.836 3.327c-.076-.306-.305-.688-.534-.917-.23-.305-.611-.534-1.07-.763-.458-.23-.992-.458-1.68-.764-.305-.153-.61-.229-.84-.305-.228-.077-.38-.23-.534-.306-.152-.076-.229-.152-.229-.305-.076-.076-.076-.23-.076-.306 0-.534.458-.763 1.45-.763.535 0 .993.076 1.375.153.382.076.764.229 1.145.305l.535-2.367c-.382-.153-.84-.229-1.45-.382-.612-.152-1.223-.152-1.91-.152-1.298 0-2.367.305-3.054.916s-1.145 1.374-1.145 2.367c0 .534.076.992.229 1.298.152.382.382.687.61.916.306.23.611.458.993.687.382.23.84.382 1.298.535.611.229 1.07.458 1.375.61.305.153.458.383.458.612 0 .305-.153.534-.382.61-.229.077-.61.153-1.222.153-.534 0-1.069-.076-1.603-.153l-1.604-.458-.534 2.444c.229.076.687.229 1.298.381.61.153 1.45.23 2.367.23 1.45 0 2.596-.306 3.36-.84.763-.535 1.221-1.375 1.221-2.444.306-.229.23-.61.153-.992"/></svg>