<svg xmlns="http://www.w3.org/2000/svg" viewBox="0 0 155.001 55.769"><g transform="translate(-151.66971,-164.67653)"><path d="M192.647 190.478a2.08 2.08 0 0 0-2.078 2.078c0 1.145.933 2.077 2.078 2.077s2.078-.932 2.078-2.077a2.08 2.08 0 0 0-2.078-2.078" fill="#326ce5"></path><path d="M192.647 197.23a4.666 4.666 0 0 1-3.936-2.16c-.674 1.637-1.344 3.51-1.853 4.934-1.877 5.256-3.178 8.676-4.892 9.839a4.658 4.658 0 0 1-3.342 1.41 4.675 4.675 0 0 1-4.674-4.675 4.666 4.666 0 0 1 2.16-3.936c-1.637-.674-3.51-1.344-4.934-1.853-5.256-1.877-8.676-3.178-9.838-4.892a4.655 4.655 0 0 1-1.41-3.341 4.674 4.674 0 0 1 4.674-4.675 4.666 4.666 0 0 1 3.936 2.16c.675-1.637 1.344-3.51 1.853-4.934 1.877-5.256 3.178-8.676 4.892-9.838a4.655 4.655 0 0 1 3.341-1.41 4.674 4.674 0 0 1 4.675 4.674 4.666 4.666 0 0 1-2.16 3.936c1.637.674 3.51 1.344 4.934 1.853 5.256 1.877 8.676 3.178 9.839 4.892a4.658 4.658 0 0 1 1.41 3.342 4.675 4.675 0 0 1-4.675 4.674m-11.092-31.725a2.829 2.829 0 0 0-4.001 0l-25.055 25.055a2.829 2.829 0 0 0 0 4.002l25.055 25.055a2.829 2.829 0 0 0 4 0l25.056-25.055a2.83 2.83 0 0 0 0-4.002z" fill="#326ce5"></path><path d="M164.602 190.478a2.08 2.08 0 0 0-2.078 2.078c0 1.145.933 2.077 2.078 2.077s2.078-.932 2.078-2.077a2.08 2.08 0 0 0-2.078-2.078m14.023 14.022a2.08 2.08 0 0 0-2.078 2.078 2.078 2.078 0 0 0 4.155 0 2.08 2.08 0 0 0-2.077-2.077m-3.265-22.626a4.704 4.704 0 0 1-.671-.828c-.675 1.637-1.344 3.51-1.853 4.934-1.877 5.257-3.178 8.676-4.892 9.839a4.707 4.707 0 0 1-.827.672c1.636.674 3.509 1.344 4.933 1.852 5.256 1.877 8.676 3.179 9.84 4.892.253.249.478.526.67.827.675-1.636 1.344-3.509 1.853-4.933 1.877-5.256 3.178-8.676 4.892-9.84a4.69 4.69 0 0 1 .828-.67c-1.637-.675-3.51-1.344-4.934-1.853-5.256-1.877-8.676-3.179-9.839-4.892m3.265-1.265c1.145 0 2.077-.932 2.077-2.077s-.932-2.077-2.077-2.077-2.078.932-2.078 2.077a2.08 2.08 0 0 0 2.078 2.078m41.729 16.942a1.217 1.217 0 0 1-.303-.556 3.516 3.516 0 0 1-.092-.884V181.6l-2.16.372v14.49c0 1.146.28 1.99.837 2.532.556.542 1.5.829 2.832.86l.302-1.812a5.786 5.786 0 0 1-.859-.174 1.304 1.304 0 0 1-.557-.314m5.456-5.132c.047-.419.144-.829.29-1.231.148-.404.353-.759.616-1.07a3.11 3.11 0 0 1 .964-.754c.38-.193.817-.29 1.313-.29.881 0 1.574.313 2.078.94.502.628.747 1.43.731 2.405zm3.205-5.179a5.52 5.52 0 0 0-2.043.394 5.007 5.007 0 0 0-1.765 1.184c-.511.527-.921 1.19-1.231 1.986-.31.798-.464 1.73-.464 2.799 0 .913.12 1.753.36 2.52.24.765.607 1.427 1.103 1.985s1.126.995 1.893 1.312c.766.317 1.675.476 2.729.476.835 0 1.582-.078 2.24-.233.658-.154 1.118-.301 1.382-.44l-.302-1.812c-.264.124-.654.252-1.173.383-.519.132-1.157.198-1.915.198-1.347 0-2.338-.326-2.973-.976-.635-.65-.999-1.602-1.092-2.857h8.268a3.36 3.36 0 0 0 .023-.406v-.36c0-2.073-.434-3.618-1.3-4.633-.868-1.013-2.114-1.52-3.74-1.52m14.584 10.658a5.818 5.818 0 0 1-.987.129 23.76 23.76 0 0 1-1.359.034c-.851 0-1.524-.15-2.02-.453-.496-.301-.743-.839-.743-1.613 0-.419.1-.755.302-1.01a2.13 2.13 0 0 1 .755-.604 3.11 3.11 0 0 1 .999-.29c.363-.047.707-.07 1.033-.07a8.5 8.5 0 0 1 1.266.08c.348.055.599.122.754.198zm1.103-9.37c-.364-.41-.844-.728-1.44-.952-.596-.225-1.328-.336-2.194-.336-.76 0-1.463.057-2.114.174-.65.116-1.114.236-1.392.36l.255 1.788c.263-.109.662-.212 1.196-.314.534-.1 1.157-.15 1.87-.15.557 0 1.01.08 1.358.243a2.121 2.121 0 0 1 .824.65c.201.272.34.581.418.93a4.872 4.872 0 0 1 .116 1.056v.604a8.83 8.83 0 0 0-.325-.07c-.154-.03-.337-.066-.545-.104a7.88 7.88 0 0 0-.662-.093 6.632 6.632 0 0 0-.674-.035c-.682 0-1.332.07-1.95.209-.62.14-1.161.356-1.626.65a3.241 3.241 0 0 0-1.104 1.161c-.27.48-.406 1.053-.406 1.719 0 .696.117 1.292.349 1.788a3.028 3.028 0 0 0 .975 1.196c.418.302.913.522 1.486.662.573.139 1.2.209 1.881.209.48 0 .964-.02 1.452-.058a43.844 43.844 0 0 0 1.358-.128c.418-.047.793-.097 1.126-.15l.779-.128v-7.548c0-.681-.078-1.304-.233-1.87a3.606 3.606 0 0 0-.778-1.462m10.392-1.115a10.62 10.62 0 0 0-.708-.093 6.574 6.574 0 0 0-.64-.035c-.943 0-1.795.081-2.554.244-.759.162-1.393.336-1.904.523v11.564h2.16v-10.15c.124-.03.384-.088.778-.173a5.689 5.689 0 0 1 1.196-.128c.619 0 1.126.043 1.521.128a7.212 7.212 0 0 1 .848.22l.37-1.88a4.023 4.023 0 0 0-.428-.105 23.042 23.042 0 0 0-.639-.116m11.878 1.417c-.38-.488-.887-.867-1.521-1.137-.635-.271-1.432-.407-2.392-.407-1.068 0-2.013.07-2.833.209a27.215 27.215 0 0 0-1.974.395v11.727h2.16v-10.195c.077-.014.205-.038.383-.069.178-.03.378-.058.604-.081a15.268 15.268 0 0 1 1.428-.081c.572 0 1.053.072 1.44.22a1.984 1.984 0 0 1 .929.708c.232.325.398.752.499 1.277.1.527.15 1.161.15 1.904v6.317h2.16v-6.781a10.209 10.209 0 0 0-.231-2.252c-.155-.682-.423-1.266-.802-1.754m13.713 7.228a36.4 36.4 0 0 0-1.44-1.803 16.082 16.082 0 0 0-1.44-1.5 67.61 67.61 0 0 0 2.567-2.653 159.949 159.949 0 0 0 2.403-2.7h-4.114a82.969 82.969 0 0 1-.778.924c-.301.354-.622.726-.963 1.12a70.183 70.183 0 0 1-1.055 1.188c-.363.4-.715.785-1.055 1.154V181.6l-3.461.557v17.463h3.46v-5.354a9.51 9.51 0 0 1 1.17 1.141 19.993 19.993 0 0 1 1.125 1.408c.355.49.692.978 1.008 1.467.317.489.599.935.846 1.338h3.98a26.547 26.547 0 0 0-2.253-3.559m10.845.515c-.371.389-.96.583-1.766.583-.417 0-.773-.062-1.068-.186a2.236 2.236 0 0 1-.72-.466 1.758 1.758 0 0 1-.406-.616 1.771 1.771 0 0 1-.128-.618c0-.606.148-1.126.442-1.56a4.77 4.77 0 0 1 1.09-1.14c.435.138.84.29 1.22.454a4.765 4.765 0 0 1 .988.558c.277.209.498.454.66.734.163.278.244.597.244.954 0 .481-.185.915-.556 1.303m-3.623-9.475a1.79 1.79 0 0 1 .975-.997c.247-.108.542-.162.882-.162.356 0 .659.058.907.174.246.116.453.26.615.428a1.6 1.6 0 0 1 .452 1.089c0 .587-.13 1.08-.394 1.482-.264.401-.643.757-1.138 1.065-.883-.308-1.506-.68-1.87-1.112-.363-.431-.545-.895-.545-1.389 0-.185.038-.378.116-.578m5.109 4.031a4.623 4.623 0 0 0 1.475-1.519 3.888 3.888 0 0 0 .592-2.075 4.38 4.38 0 0 0-.29-1.542 3.771 3.771 0 0 0-.941-1.402c-.433-.418-.987-.761-1.661-1.033-.673-.27-1.482-.406-2.427-.406-.804 0-1.536.129-2.194.384a5.298 5.298 0 0 0-1.684 1.02 4.481 4.481 0 0 0-1.08 1.495 4.326 4.326 0 0 0-.383 1.786c0 .819.16 1.492.476 2.017.318.526.81 1.06 1.475 1.6-.31.233-.6.481-.871.745a5.712 5.712 0 0 0-.732.871 4.091 4.091 0 0 0-.51 1.058 4.192 4.192 0 0 0-.186 1.28c0 .45.092.942.28 1.476a3.94 3.94 0 0 0 .94 1.477c.44.45 1.021.826 1.741 1.128.72.302 1.621.453 2.705.453.945 0 1.777-.12 2.497-.36s1.32-.577 1.8-1.012a4.19 4.19 0 0 0 1.08-1.522 4.99 4.99 0 0 0 .36-1.92c0-.836-.19-1.568-.57-2.197-.379-.627-1.009-1.228-1.892-1.802m13.481 3.808a2.734 2.734 0 0 0-.604-1.054c-.287-.316-.678-.612-1.173-.884a14.21 14.21 0 0 0-1.88-.832 10.73 10.73 0 0 1-.918-.386 3.791 3.791 0 0 1-.569-.327.788.788 0 0 1-.28-.313.944.944 0 0 1-.069-.372c0-.603.542-.905 1.626-.905.588 0 1.118.055 1.591.162.472.109.909.232 1.311.372l.604-2.695c-.402-.154-.944-.297-1.625-.429a11.265 11.265 0 0 0-2.136-.197c-1.487 0-2.656.333-3.507 1-.851.665-1.278 1.57-1.278 2.715 0 .59.085 1.092.256 1.51a3.157 3.157 0 0 0 .72 1.08 4.332 4.332 0 0 0 1.127.777 15.567 15.567 0 0 0 1.474.628c.697.263 1.215.5 1.556.708.34.209.511.453.511.731 0 .357-.131.597-.395.721s-.712.186-1.347.186a8.774 8.774 0 0 1-1.835-.198 11.298 11.298 0 0 1-1.81-.546l-.582 2.81c.279.124.779.279 1.498.464.72.186 1.622.28 2.706.28 1.657 0 2.938-.31 3.843-.927.906-.619 1.359-1.53 1.359-2.735 0-.509-.058-.957-.174-1.344" fill="#326ce5"></path></g></svg>