<svg xmlns="http://www.w3.org/2000/svg" xmlns:xlink="http://www.w3.org/1999/xlink" viewBox="0 0 150 120"><path fill="#3974B0" d="M120 79.9l-.8-1.8-.1-.1c-.2-.1-.4-.1-.5-.1s-.1.2.1.2c-.1 0-.1-.1-.1-.1l.5 1.5-1.2-.3-.1-.1-.1-.3-.2-.1-.2.1-.4.2-3-.8L84 61l-.3-.7-1.3-.7-.5.2-37-21.2-2.5-6.5.7-.3-.7-1.9-2.4-1.4-3.3 1.6-.3-.9-5.8-3.3-.9.4-.2-.6c.3 0 .6 0 .9-.1.3-.2.4-.4.3-.7l-.1-.2c-.1-.3-.4-.6-.9-.9-.4-.2-.8-.4-1.2-.5l-.8-1.9-.1-.1c-.1-.1-.3-.1-.4-.1s-.1.1.1.2l-.1-.1.6 1.8c-.4 0-.7 0-1 .1-.4.2-.4.5-.2.8l-.1-.1.1.2c.1.3.4.6.9.9.3.2.7.4 1.1.5l.5 1.2-.1.1-.4-.8-4.4-2.6-5 2.2 2.4 8.8-4.4 2c-1.9.9-2.4 2.4-1.7 4.1l.1.1c.2.3.3.7.6 1l4.7 7.9s.9 2 3.3 4.4c1.5 1.6 4.9 3.7 6.9 4.9.9.5 1.5.9 1.5.9l75.4 43.5h.2c.7.3 4.3 2.1 8.4 3 .2 0 .4.1.7.1.2 0 .4.1.6.1h.1c.2 0 .4.1.6.1h.1c.2 0 .4 0 .6.1h2.9c.2 0 .3 0 .5-.1h.2c.2 0 .3-.1.5-.1h.2c.2 0 .3-.1.5-.1h.2c.2 0 .3-.1.4-.1s.1 0 .2-.1h.2c1.7-.6 12.9-5.5 13-5.6 3.1-1.4-2.9-11.5-18.1-20.6zM41 36.4l-1.2-3 .8-.4 1.6 4.2-1.2-.8zm78.2 41.8h-.2.2zM30.6 25.1c-.1 0-.1 0 0 0zm.1-.2c-.1 0-.1 0 0 0-.1 0-.1 0 0 0zm-3.1-3.5h-.2.2zm-1.2 2.7l.1.1s0-.1-.1-.1zm.2.2s.1.1.2.1c0 0-.1 0-.2-.1zm.3.2c.1.1.2.2.3.2-.1 0-.2-.1-.3-.2z"/><path fill="#A84300" d="M131.3 87.3c-.2.2-14.8 8.3-16.3 9.1-9.5 4.7-19.5-.4-19.5-.4L23.3 54.1s-6-3.3-7.6-5.9c-1.8-2.7-1.9-5.2-1.9-5.2l-2.3-11c-.1.1 119.9 55.2 119.8 55.3z"/><path fill="#8F3900" d="M133.9 86c-.2.2-17.4 9.7-18.9 10.4-9.5 4.7-19.5-.4-19.5-.4L23.3 54.1s-6-3.3-7.6-5.9c-1.8-2.7-1.9-5.2-1.9-5.2l-2.3-11c-.1.1 122.5 53.8 122.4 54z"/><path fill="#F29B12" d="M133.9 86c-4.8 2.7-27.1 1.1-42.7-7.9l-.8-.5L121 61.8c14.9 9 17.5 21.5 12.9 24.2z"/><path fill="#F29B12" d="M15.4 26.3l9.7-5.6c5.3-3.1 14-3.1 19.3 0l70.8 40.7 2.4 1.4c.3.2.5.3.8.5L84 76.9 15.3 37.5c-5.3-3.1-5.3-8.1.1-11.2z"/><path fill="#F87928" d="M130.8 72.8c2.2 3.1 3.4 6.3 3.4 8.8 0 .9-.2 2.5-1.4 3.2-.4.2-2.1 1-7.1 1-8.8 0-22-2.5-32.4-7.9l-.1-.1 25.9-15.1c5 2.9 9 6.4 11.7 10.1z"/><path fill="#F0650E" d="M12.8 31.9c0 1.6 1.2 3.1 3.3 4.3l29.5 17h.1l.1.1.5.3.2.1.2.1 39.7 22.8 6.9 1.3 25.9-15.1-6.1-.9L43.6 22c-2.4-1.4-5.5-2.1-8.9-2.1s-6.5.7-8.9 2.1l-9.7 5.6c-2.1 1.2-3.3 2.7-3.3 4.3z"/><path opacity=".3" fill="#F0650E" d="M113.4 63.4L43.9 23.5c-2.4-1.4-5.5-2.1-8.9-2.1s-6.5.7-8.9 2.1l-9.7 5.6c-2 1.2-3.1 2.6-3.2 4.1-.2-.4-.3-.9-.3-1.3 0-1.6 1.2-3.1 3.3-4.3l9.7-5.6c2.4-1.4 5.5-2.1 8.9-2.1s6.5.7 8.9 2.1l69.5 39.9 6.1.9-2.1 1.2-3.8-.6z"/><path opacity=".2" fill="#F87928" d="M131.7 82.6c0-2.5-1.2-5.7-3.4-8.8-2.6-3.7-6.4-7.1-11.2-9.9l2.1-1.2c4.9 2.8 8.9 6.3 11.6 10.1 2.2 3.1 3.4 6.3 3.4 8.8 0 .9-.2 2.5-1.4 3.2-.2.1-.8.4-2 .6.8-.7.9-2 .9-2.8z"/><path fill="#F9F9F9" d="M83.7 51.9l6.5-3.8-3.6-2-6.4 3.7 3.5 2.1z"/><path fill="#DCDCDC" d="M83.7 55.5l6.4-3.8.1-3.6-6.5 3.8v3.6z"/><path fill="#C3C3C3" d="M83.7 51.9v3.6l-3.5-2.1v-3.6l3.5 2.1z"/><path fill="#AFAFAF" d="M83.7 43.9v5.4l1.2.7v-5.5l-1.2-.6z"/><path fill="#DCDCDC" d="M84.9 44.5V50l1.2-.7v-5.4l-1.2.6z"/><path fill="#F9F9F9" d="M83.7 43.9l1.2.6 1.2-.6-1.2-.7-1.2.7z"/><path fill="#025074" d="M101.4 93.8c3.1 1.4 8.3 2.6 13.5 2.6-9.4 4.6-19.3-.4-19.3-.4L23.4 54.1s-6-3.3-7.6-5.9C14 45.5 13.9 43 13.9 43l-.1-.7c2.6 2.1 6 3.9 6 3.9s59.9 38.1 81.6 47.6z"/><path fill="#461D00" d="M51.9 33.1l1-.6.1-2.2-1 .6-.1 2.2z"/><defs><path id="a" d="M51.4 28.7l-1 .6c.2-.1.4-.1.7.1l1-.6c-.3-.2-.6-.2-.7-.1z"/></defs><clipPath id="b"><use xlink:href="#a" overflow="visible"/></clipPath><g clip-path="url(#b)"><path fill="#5A2600" d="M51 29.3l1-.6c-.3-.1-.5-.2-.7-.1l-1 .6c.3 0 .5 0 .7.1z"/></g><defs><path id="c" d="M52 30.9l1-.6c0-.6-.4-1.3-.9-1.6l-1 .6c.5.3.9 1 .9 1.6z"/></defs><clipPath id="d"><use xlink:href="#c" overflow="visible"/></clipPath><g clip-path="url(#d)"><path fill="#5A2600" d="M52 30.9l1-.6c0-.6-.4-1.3-.9-1.6l-1 .6c.5.3.9 1 .9 1.6z"/></g><path fill="#853800" d="M51 29.3c-.5-.3-.9-.1-.9.5V32l1.8 1.1v-2.2c.1-.6-.3-1.3-.9-1.6z"/><path fill="#8C3800" d="M32.1 39.9l18.4-10.7c.1-.1.2-.1.4 0L32.5 39.9h-.4z"/><path fill="#AF4600" d="M32.4 39.9l18.4-10.7c.1 0 .2.1.3.1L32.7 40c-.1 0-.2-.1-.3-.1zm.3.1l18.4-10.7s.1 0 .1.1L32.7 40c.1 0 0 0 0 0z"/><path fill="#D25400" d="M32.8 40.1l18.4-10.7c.3.2.6.6.7 1L33.5 41.1c-.1-.4-.4-.8-.7-1z"/><path fill="#AF4600" d="M33.5 41.1l18.4-10.7c0 .1.1.3.1.4L33.6 41.5c0-.1 0-.2-.1-.4z"/><path fill="#8C3800" d="M33.6 41.5L52 30.8c0 .3-.1.5-.3.6L33.3 42.1c.2 0 .3-.2.3-.6 0 .1 0 .1 0 0z"/><path fill="#833400" d="M32.7 40c.5.3.9 1 .9 1.6s-.4.8-.9.5-.9-1-.9-1.6c0-.5.4-.8.9-.5z"/><path fill="#8C3800" d="M41.6 36.3l60.7 35.3.1-.1-60.5-35.2c-.1-.1-.2-.1-.3 0z"/><path fill="#AF4600" d="M41.4 36.3l60.7 35.3.2-.1-60.7-35.3c-.1.1-.1.1-.2.1z"/><path fill="#AF4600" d="M41.4 36.4l60.7 35.3h.1L41.4 36.4c0-.1 0-.1 0 0z"/><path fill="#D25400" d="M40.9 37l60.3 35 .9-.4-60.7-35.3c-.2.2-.4.5-.5.7z"/><path fill="#AF4600" d="M40.8 37.3l60.1 34.9.3-.1-60.3-35s-.1.1-.1.2z"/><path fill="#8C3800" d="M40.8 37.3c0 .2.1.3.2.4l59.6 34.7.3-.1-60.1-35zm3.3-2.3l60.7 35.3.1-.1L44.4 35c-.1-.1-.2-.1-.3 0z"/><path fill="#AF4600" d="M44 35l60.7 35.3.2-.1L44 35zm-.1.1l60.7 35.3h.1L43.9 35.1c0-.1 0-.1 0 0z"/><path fill="#D25400" d="M43.4 35.7l60.3 35 .9-.4L43.9 35c-.2.2-.4.5-.5.7z"/><path fill="#AF4600" d="M43.4 36l60.1 34.9.3-.1-60.3-35c-.1 0-.1.1-.1.2z"/><path fill="#8C3800" d="M43.4 36c0 .2.1.3.2.4l59.6 34.7.3-.1-60.1-35zm3.5-2.5l60.7 35.3.1-.1-60.5-35.2h-.3z"/><path fill="#AF4600" d="M46.7 33.6l60.7 35.3.2-.1-60.7-35.3c-.1 0-.1.1-.2.1z"/><path fill="#AF4600" d="M46.6 33.6l60.7 35.3h.1L46.6 33.6c.1 0 .1 0 0 0z"/><path fill="#D25400" d="M46.2 34.3l60.3 35 .9-.4-60.7-35.3c-.3.2-.4.4-.5.7z"/><path fill="#AF4600" d="M46.1 34.6l60.1 34.9.3-.1-60.3-35c-.1 0-.1.1-.1.2z"/><path fill="#8C3800" d="M46.1 34.6c0 .2.1.3.2.4l59.6 34.7.3-.1-60.1-35z"/><path fill="#F9F9F9" d="M67.3 61.5l6.5-3.7-3.6-2.1-6.4 3.8 3.5 2z"/><path fill="#DCDCDC" d="M67.3 65.1l6.4-3.7.1-3.6-6.5 3.7v3.6z"/><path fill="#C3C3C3" d="M67.3 61.5v3.6l-3.5-2v-3.6l3.5 2z"/><path fill="#AFAFAF" d="M65.5 54.5l.1 5.4 1.2.7-.1-5.4-1.2-.7z"/><path fill="#DCDCDC" d="M66.7 55.2l.1 5.4 1.2-.7-.1-5.4-1.2.7z"/><path fill="#F9F9F9" d="M65.5 54.5l1.2.7 1.2-.7-1.1-.7-1.3.7z"/><path fill="#8C3800" d="M103.6 61.7v1.2-1.2zm0 .1v1.1c0 .1-.1.2-.2.2 0 0-.1 0-.1.1v-1.1s.1 0 .1-.1c.1 0 .2-.1.2-.2z"/><path fill="#A84300" d="M103.3 62.1v1.1-1.1c-.1 0 0 0 0 0zm-.1 0v1.1c-.2.1-.4.1-.6 0v-1.1c.2.1.4.1.6 0z"/><path fill="#702D00" d="M102.6 62.2v1.1c-.1 0-.3-.1-.4-.1-.2-.1-.2-.2-.2-.3v-1.1c0 .1.1.2.2.3.2 0 .3.1.4.1z"/><path fill="#7D3200" d="M103.4 61.4c.3.2.3.5 0 .7s-.8.2-1.2 0c-.3-.2-.3-.5 0-.7.4-.2.9-.2 1.2 0z"/><path fill="#8C3800" d="M105.4 60.7v1.2-1.2zm0 .1v1.1c0 .1-.1.2-.2.2 0 0-.1 0-.1.1v-1.1s.1 0 .1-.1c.1 0 .1-.1.2-.2z"/><path fill="#A84300" d="M105 61.1v1.1-1.1zm0 0v1.1c-.2.1-.4.1-.6 0v-1.1c.2.1.4.1.6 0z"/><path fill="#702D00" d="M104.4 61.2v1.1c-.1 0-.3-.1-.4-.1-.2-.1-.2-.2-.2-.3v-1.1c0 .1.1.2.2.3.1 0 .2.1.4.1z"/><path fill="#7D3200" d="M105.1 60.4c.3.2.3.5 0 .7s-.8.2-1.2 0c-.3-.2-.3-.5 0-.7.4-.2.9-.2 1.2 0z"/><path fill="#8C3800" d="M85.6 72.2v1.2-1.2zm-.1.1v1.1c0 .1-.1.2-.2.2 0 0-.1 0-.1.1v-1.1s.1 0 .1-.1c.1 0 .2-.1.2-.2z"/><path fill="#A84300" d="M85.2 72.6v1.1-1.1zm0 0v1.1c-.2.1-.4.1-.6 0v-1.1c.2.1.4.1.6 0z"/><path fill="#702D00" d="M84.6 72.7v1.1c-.1 0-.3-.1-.4-.1-.2-.1-.2-.2-.2-.3v-1.1c0 .1.1.2.2.3.1 0 .2.1.4.1z"/><path fill="#7D3200" d="M85.3 71.9c.3.2.3.5 0 .7s-.8.2-1.2 0c-.3-.2-.3-.5 0-.7.4-.2.9-.2 1.2 0z"/><path fill="#8C3800" d="M87.3 71.2v1.2-1.2zm0 .1v1.1c0 .1-.1.2-.2.2 0 0-.1 0-.1.1v-1.1s.1 0 .1-.1c.1 0 .2-.1.2-.2z"/><path fill="#A84300" d="M86.9 71.6v1.1-1.1zm0 0v1.1c-.2.1-.4.1-.6 0v-1.1c.2.1.4.1.6 0z"/><path fill="#702D00" d="M86.3 71.7v1.1c-.1 0-.3-.1-.4-.1-.2-.1-.2-.2-.2-.3v-1.1c0 .1.1.2.2.3.1 0 .3 0 .4.1z"/><path fill="#7D3200" d="M87.1 70.9c.3.2.3.5 0 .7s-.8.2-1.2 0c-.3-.2-.3-.5 0-.7s.8-.2 1.2 0z"/><path fill="#8C3800" d="M80.7 47.6v1.2-1.2zm0 .1v1.1c0 .1-.1.2-.2.2 0 0-.1 0-.1.1V48s.1 0 .1-.1c.1 0 .2-.1.2-.2z"/><path fill="#A84300" d="M80.3 48v1.1V48zm0 0v1.1c-.2.1-.4.1-.6 0V48c.2.1.4.1.6 0z"/><path fill="#702D00" d="M79.7 48.1v1.1c-.1 0-.3-.1-.4-.1-.2-.1-.2-.2-.2-.3v-1.1c0 .1.1.2.2.3.1 0 .3 0 .4.1z"/><path fill="#7D3200" d="M80.5 47.3c.3.2.3.5 0 .7s-.8.2-1.2 0c-.3-.2-.3-.5 0-.7s.9-.2 1.2 0z"/><path fill="#8C3800" d="M82.5 46.6v1.2-1.2c-.1.1 0 0 0 0zm-.1.1v1.1c0 .1-.1.2-.2.2 0 0-.1 0-.1.1V47s.1 0 .1-.1c.1 0 .2-.1.2-.2z"/><path fill="#A84300" d="M82.1 47v1.1V47zm-.1 0v1.1c-.2.1-.4.1-.6 0V47c.2.1.5.1.6 0z"/><path fill="#702D00" d="M81.5 47v1.1c-.1 0-.3-.1-.4-.1-.2-.1-.2-.2-.2-.3v-1.1c0 .1.1.2.2.3s.2.1.4.1z"/><path fill="#7D3200" d="M82.2 46.2c.3.2.3.5 0 .7s-.8.2-1.2 0c-.3-.2-.3-.5 0-.7.4-.1.9-.1 1.2 0z"/><path fill="#8C3800" d="M72.4 42.8V44v-1.2zm0 .1V44c0 .1-.1.2-.2.2 0 0-.1 0-.1.1v-1.1s.1 0 .1-.1c.1 0 .1-.1.2-.2z"/><path fill="#A84300" d="M72 43.2v1.1-1.1zm0 0v1.1c-.2.1-.4.1-.6 0v-1.1c.2.1.4.1.6 0z"/><path fill="#702D00" d="M71.4 43.3v1.1c-.1 0-.3-.1-.4-.1-.2-.1-.2-.2-.2-.3v-1.1c0 .1.1.2.2.3.1 0 .2.1.4.1z"/><path fill="#7D3200" d="M72.2 42.5c.3.2.3.5 0 .7s-.8.2-1.2 0c-.3-.2-.3-.5 0-.7s.8-.2 1.2 0z"/><path fill="#8C3800" d="M74.1 41.8V43v-1.2zm0 .1V43c0 .1-.1.2-.2.2 0 0-.1 0-.1.1v-1.1s.1 0 .1-.1c.1 0 .2-.1.2-.2z"/><path fill="#A84300" d="M73.8 42.2v1.1-1.1c-.1 0 0 0 0 0zm-.1 0v1.1c-.2.1-.4.1-.6 0v-1.1c.2.1.4.1.6 0z"/><path fill="#702D00" d="M73.1 42.3v1.1c-.1 0-.3-.1-.4-.1-.2-.1-.2-.2-.2-.3v-1.1c0 .1.1.2.2.3.2 0 .3 0 .4.1z"/><path fill="#7D3200" d="M73.9 41.5c.3.2.3.5 0 .7s-.8.2-1.2 0c-.3-.2-.3-.5 0-.7.4-.2.9-.2 1.2 0z"/><path fill="#8C3800" d="M62.7 58v1.2V58zm0 .2v1.1c0 .1-.1.2-.2.2 0 0-.1 0-.1.1v-1.1s.1 0 .1-.1c.1-.1.1-.2.2-.2z"/><path fill="#A84300" d="M62.3 58.4v1.1-1.1c0 .1 0 0 0 0zm0 .1v1.1c-.2.1-.4.1-.6 0v-1.1h.6z"/><path fill="#702D00" d="M61.7 58.5v1.1c-.1 0-.3-.1-.4-.1-.2-.1-.2-.2-.2-.3v-1.1c0 .1.1.2.2.3.1 0 .2.1.4.1z"/><path fill="#7D3200" d="M62.5 57.7c.3.2.3.5 0 .7s-.8.2-1.2 0c-.3-.2-.3-.5 0-.7s.8-.2 1.2 0z"/><path fill="#8C3800" d="M64.4 57v1.2V57zm0 .1v1.1c0 .1-.1.2-.2.2 0 0-.1 0-.1.1v-1.1s.1 0 .1-.1c.1 0 .2-.1.2-.2z"/><path fill="#A84300" d="M64.1 57.4v1.1-1.1c-.1 0 0 0 0 0zm-.1 0v1.1c-.2.1-.4.1-.6 0v-1.1c.2.1.4.1.6 0z"/><path fill="#702D00" d="M63.4 57.5v1.1c-.1 0-.3-.1-.4-.1-.2-.1-.2-.2-.2-.3v-1.1c0 .1.1.2.2.3.2 0 .3.1.4.1z"/><path fill="#7D3200" d="M64.2 56.7c.3.2.3.5 0 .7s-.8.2-1.2 0c-.3-.2-.3-.5 0-.7.4-.2.9-.2 1.2 0z"/><path fill="#8C3800" d="M54.3 53.3v1.2-1.2zm0 .1v1.1c0 .1-.1.2-.2.2 0 0-.1 0-.1.1v-1.1s.1 0 .1-.1c.1 0 .2-.1.2-.2z"/><path fill="#A84300" d="M54 53.7v1.1-1.1c-.1 0-.1 0 0 0zm-.1 0v1.1c-.2.1-.4.1-.6 0v-1.1c.2.1.4.1.6 0z"/><path fill="#702D00" d="M53.3 53.8v1.1c-.1 0-.3-.1-.4-.1-.2-.1-.2-.2-.2-.3v-1.1c0 .1.1.2.2.3.1 0 .3 0 .4.1z"/><path fill="#7D3200" d="M54.1 53c.3.2.3.5 0 .7s-.8.2-1.2 0c-.3-.2-.3-.5 0-.7s.9-.2 1.2 0z"/><path fill="#8C3800" d="M56.1 52.3v1.2-1.2zm-.1.1v1.1c0 .1-.1.2-.2.2 0 0-.1 0-.1.1v-1.1s.1 0 .1-.1c.1 0 .2-.1.2-.2z"/><path fill="#A84300" d="M55.7 52.7v1.1-1.1zm0 0v1.1c-.2.1-.4.1-.6 0v-1.1c.2.1.4.1.6 0z"/><path fill="#702D00" d="M55.1 52.7v1.1c-.1 0-.3-.1-.4-.1-.2-.1-.2-.2-.2-.3v-1.1c0 .1.1.2.2.3s.2.1.4.1z"/><path fill="#7D3200" d="M55.8 51.9c.3.2.3.5 0 .7s-.8.2-1.2 0c-.3-.2-.3-.5 0-.7.4-.1.9-.1 1.2 0z"/><path fill="#8C3800" d="M62.8 37.7v1.2-1.2zm-.1.1v1.1c0 .1-.1.2-.2.2 0 0-.1 0-.1.1v-1.1s.1 0 .1-.1c.1-.1.2-.1.2-.2z"/><path fill="#A84300" d="M62.4 38.1v1.1-1.1zm0 0v1.1c-.2.1-.4.1-.6 0v-1.1c.2.1.4 0 .6 0z"/><path fill="#702D00" d="M61.8 38.1v1.1c-.1 0-.3-.1-.4-.1-.2-.1-.2-.2-.2-.3v-1.1c0 .1.1.2.2.3s.2.1.4.1z"/><path fill="#7D3200" d="M62.5 37.3c.3.2.3.5 0 .7s-.8.2-1.2 0c-.3-.2-.3-.5 0-.7.4-.2.9-.2 1.2 0z"/><path fill="#8C3800" d="M64.5 36.6v1.2-1.2zm0 .2v1.1c0 .1-.1.2-.2.2 0 0-.1 0-.1.1v-1.1s.1 0 .1-.1l.2-.2z"/><path fill="#A84300" d="M64.1 37v1.1V37c0 .1 0 0 0 0zm0 .1v1.1c-.2.1-.4.1-.6 0v-1.1h.6z"/><path fill="#702D00" d="M63.5 37.1v1.1c-.1 0-.3-.1-.4-.1-.2-.1-.2-.2-.2-.3v-1.1c0 .1.1.2.2.3.1 0 .3.1.4.1z"/><path fill="#7D3200" d="M64.3 36.3c.3.2.3.5 0 .7s-.8.2-1.2 0c-.3-.2-.3-.5 0-.7s.8-.2 1.2 0z"/><path fill="#8C3800" d="M54.4 32.9v1.2-1.2zm0 .1v1.1c0 .1-.1.2-.2.2 0 0-.1 0-.1.1v-1.1s.1 0 .1-.1c.1 0 .2-.1.2-.2z"/><path fill="#A84300" d="M54.1 33.3v1.1-1.1zm-.1 0v1.1c-.2.1-.4.1-.6 0v-1.1c.2.1.5.1.6 0z"/><path fill="#702D00" d="M53.4 33.3v1.1c-.1 0-.3-.1-.4-.1-.2-.1-.2-.2-.2-.3v-1.1c0 .1.1.2.2.3.2.1.3.1.4.1z"/><path fill="#7D3200" d="M54.2 32.6c.3.2.3.5 0 .7s-.8.2-1.2 0c-.3-.2-.3-.5 0-.7.4-.2.9-.2 1.2 0z"/><path fill="#8C3800" d="M56.2 31.9v1.2-1.2zm0 .1v1.1c0 .1-.1.2-.2.2 0 0-.1 0-.1.1v-1.1s.1 0 .1-.1l.2-.2z"/><path fill="#A84300" d="M55.8 32.3v1.1-1.1zm0 0v1.1c-.2.1-.4.1-.6 0v-1.1c.2.1.4 0 .6 0z"/><path fill="#702D00" d="M55.2 32.3v1.1c-.1 0-.3-.1-.4-.1-.2-.1-.2-.2-.2-.3v-1.1c0 .1.1.2.2.3.1.1.2.1.4.1z"/><path fill="#7D3200" d="M55.9 31.5c.3.2.3.5 0 .7s-.8.2-1.2 0c-.3-.2-.3-.5 0-.7.4-.2.9-.2 1.2 0z"/><path fill="#8C3800" d="M44.7 48.1v1.2-1.2zm0 .1v1.1c0 .1-.1.2-.2.2 0 0-.1 0-.1.1v-1.1s.1 0 .1-.1c.1 0 .2-.1.2-.2z"/><path fill="#A84300" d="M44.4 48.5v1.1-1.1zm-.1 0v1.1c-.2.1-.4.1-.6 0v-1.1c.2.1.5.1.6 0z"/><path fill="#702D00" d="M43.7 48.6v1.1c-.1 0-.3-.1-.4-.1-.2-.1-.2-.2-.2-.3v-1.1c0 .1.1.2.2.3.2 0 .3.1.4.1z"/><path fill="#7D3200" d="M44.5 47.8c.3.2.3.5 0 .7s-.8.2-1.2 0c-.3-.2-.3-.5 0-.7.4-.2.9-.2 1.2 0z"/><path fill="#8C3800" d="M46.5 47.1v1.2-1.2zm0 .1v1.1c0 .1-.1.2-.2.2 0 0-.1 0-.1.1v-1.1s.1 0 .1-.1c.1 0 .1-.1.2-.2z"/><path fill="#A84300" d="M46.1 47.5v1.1-1.1zm0 0v1.1c-.2.1-.4.1-.6 0v-1.1c.2.1.4.1.6 0z"/><path fill="#702D00" d="M45.5 47.6v1.1c-.1 0-.3-.1-.4-.1-.2-.1-.2-.2-.2-.3v-1.1c0 .1.1.2.2.3.1 0 .2 0 .4.1z"/><path fill="#7D3200" d="M46.2 46.8c.3.2.3.5 0 .7s-.8.2-1.2 0c-.3-.2-.3-.5 0-.7.4-.2.9-.2 1.2 0z"/><path fill="#8C3800" d="M36.4 43.4v1.2-1.2zm0 .1v1.1c0 .1-.1.2-.2.2 0 0-.1 0-.1.1v-1.1s.1 0 .1-.1.1-.1.2-.2z"/><path fill="#A84300" d="M36 43.8v1.1-1.1zm0 0v1.1c-.2.1-.4.1-.6 0v-1.1c.2.1.4 0 .6 0z"/><path fill="#702D00" d="M35.4 43.8v1.1c-.1 0-.3-.1-.4-.1-.2-.1-.2-.2-.2-.3v-1.1c0 .1.1.2.2.3.1.1.2.1.4.1z"/><path fill="#7D3200" d="M36.1 43c.3.2.3.5 0 .7s-.8.2-1.2 0c-.3-.2-.3-.5 0-.7.4-.2.9-.2 1.2 0z"/><path fill="#8C3800" d="M38.1 42.4v1.2-1.2zm0 .1v1.1c0 .1-.1.2-.2.2 0 0-.1 0-.1.1v-1.1s.1 0 .1-.1l.2-.2z"/><path fill="#A84300" d="M37.8 42.7v1.1-1.1c-.1.1-.1 0 0 0zm-.1.1v1.1c-.2.1-.4.1-.6 0v-1.1h.6z"/><path fill="#702D00" d="M37.1 42.8v1.1c-.1 0-.3-.1-.4-.1-.2-.1-.2-.2-.2-.3v-1.1c0 .1.1.2.2.3.1 0 .3.1.4.1z"/><path fill="#7D3200" d="M37.9 42c.3.2.3.5 0 .7s-.8.2-1.2 0c-.3-.2-.3-.5 0-.7s.9-.2 1.2 0z"/><path fill="#F29B12" d="M93.3 77.8l-7.7-1.7-1.6.8 7.9 1.6 1.4-.7zm27.7-16l-6.3-.7-1.6.8 6.1.9 1.8-1z"/><path fill="#7D3200" d="M36.8 45.9l3.4 2.1 3.5-2.1-3.4-2-3.5 2zm51.5 9.4l3.4 2 3.5-2-3.5-2-3.4 2z"/><g><path fill="#AFAFAF" d="M111.4 80.3l.1 1.4 2.5 1.4v-1.3l-2.6-1.5z"/><path fill="#DCDCDC" d="M114 81.8v1.3l2.6-1.4v-1.4l-2.6 1.5z"/><path fill="#F9F9F9" d="M111.4 80.3l2.6 1.5 2.6-1.5-2.6-1.4-2.6 1.4z"/></g><g><path fill="#AFAFAF" d="M105.2 63.3l.1 1.3 2.5 1.5v-1.3l-2.6-1.5z"/><path fill="#DCDCDC" d="M107.8 64.8v1.3l2.6-1.5v-1.3l-2.6 1.5z"/><path fill="#EDEDED" d="M105.2 63.3l2.6 1.5 2.6-1.5-2.6-1.5-2.6 1.5z"/></g><g><path fill="#AFAFAF" d="M56.2 35.1l.1 1.3 2.5 1.5v-1.3l-2.6-1.5z"/><path fill="#DCDCDC" d="M58.8 36.6v1.3l2.6-1.5v-1.3l-2.6 1.5z"/><path fill="#FFF" d="M56.2 35.1l2.6 1.5 2.6-1.5-2.6-1.5-2.6 1.5z"/></g><g><path fill="#AFAFAF" d="M124.4 79.7V81l2.6 1.5-.1-1.3-2.5-1.5z"/><path fill="#DCDCDC" d="M126.9 81.2l.1 1.3 2.5-1.5v-1.3l-2.6 1.5z"/><path fill="#F9F9F9" d="M124.4 79.7l2.5 1.5 2.6-1.5-2.5-1.5-2.6 1.5z"/></g><g><path fill="#EDEDED" d="M105.9 76.4l6.4-3.8-3.5-2-6.5 3.7 3.6 2.1z"/><path fill="#DCDCDC" d="M105.8 77.6l6.5-3.7v-1.3l-6.4 3.8-.1 1.2z"/></g><path fill="#C3C3C3" d="M105.9 76.4l-.1 1.2-3.5-2v-1.3l3.6 2.1z"/><g><path fill="#949494" d="M87.5 74.6v.5c0 .1 0 .2.1.3v-.5c-.1-.1-.1-.2-.1-.3z"/><path fill="#B2B2B2" d="M87.6 74.9v.5c.1.2.3.5.7.7.5.3 1.2.4 1.8.4V76c-.7 0-1.3-.1-1.8-.4-.4-.2-.6-.5-.7-.7z"/><path fill="#949494" d="M90.1 76v.5c.6 0 1.3-.1 1.7-.4.5-.3.7-.7.7-1v-.5c0 .4-.2.8-.7 1-.5.3-1.1.4-1.7.4z"/><path fill="#CCC" d="M88.2 73.5c-1 .6-1 1.5 0 2.1s2.6.6 3.6 0 1-1.5 0-2.1-2.6-.6-3.6 0z"/></g><g><path fill="#EDEDED" d="M24.9 31.5L39 23.3l-7.7-4.5-14.1 8.3 7.7 4.4z"/><path fill="#DCDCDC" d="M24.8 35L39 26.8v-3.5l-14.1 8.2-.1 3.5z"/></g><path fill="#B3B3B3" d="M24.9 31.5l-.1 3.5-7.6-4.4v-3.5l7.7 4.4z"/><g><path fill="#9C9C9C" d="M27.1 13.8l-4.2-2.5-1.6 15 4.2 2.4 1.6-14.9z"/><path fill="#22313F" d="M24.6 13.2s1.1 2 1.1 2.7c0 .7-.5 1-1.1.6-.6-.3-1.1-1.2-1.1-1.8 0-.7 1.1-1.5 1.1-1.5z"/><path fill="#FFF" d="M34.4 9.7l-4.3-2.5-7.2 4.1 4.2 2.5 7.3-4.1z"/><path fill="#DCDCDC" d="M27.1 13.8l-1.6 14.9 9.9-5.6-1-13.4-7.3 4.1z"/></g><g><path fill="#B0B0B0" d="M46.2 11.9v15.9l1.2.7V12.6l-1.2-.7z"/><path fill="#C7C7C7" d="M47.4 12.6v15.9l1.3-.7-.1-15.9-1.2.7z"/><path fill="#CCC" d="M46.2 11.9l1.2.7 1.2-.7-1.2-.7-1.2.7z"/></g><g><path fill="#FFF" d="M44.1 15.3l5.6-3.3-2.2-1.3-5.7 3.3 2.3 1.3z"/><path fill="#DCDCDC" d="M44 17.7l5.7-3.3V12l-5.6 3.3-.1 2.4z"/></g><path fill="#C3C3C3" d="M44.1 15.3l-.1 2.4-2.2-1.3V14l2.3 1.3z"/><g><path fill="#FFF" d="M31.9 22.3l13-7.5-7.1-4.1-13 7.5 7.1 4.1z"/><path fill="#DCDCDC" d="M31.9 39.1l13-7.6V14.8l-13 7.5v16.8z"/><path fill="#025074" d="M43 18.8l1-.5v-1.6l-1 .6v1.5zm0 2.5l1-.6v-1.5l-1 .6v1.5zm0 2.5l1-.6v-1.5l-1 .5v1.6zm0 2.4l1-.5v-1.6l-1 .6v1.5zm0 2.5l1-.6v-1.5l-1 .6v1.5zm0 2.5l1-.6v-1.5l-1 .5v1.6zm-2.2-11.1l1-.6V18l-1 .5v1.6zm0 2.4l1-.5v-1.6l-1 .6v1.5zm0 2.5l1-.6v-1.5l-1 .6V25zm0 2.5l1-.6v-1.5l-1 .5v1.6zm0 2.4l1-.5v-1.6l-1 .6v1.5zm0 2.5l1-.6v-1.5l-1 .6v1.5zm-2.1-11.1l1-.6v-1.5l-1 .6v1.5zm0 2.5l1-.6v-1.5l-1 .5v1.6zm0 2.4l1-.5v-1.6l-1 .6v1.5zm0 2.5l1-.6v-1.5l-1 .6v1.5zm0 2.5l1-.6v-1.5l-1 .5v1.6zm0 2.4l1-.5v-1.6l-1 .6v1.5zm-3.5-10.2l.9-.5v-1.6l-.9.6v1.5zm0 2.5l.9-.6v-1.5l-.9.6v1.5zm0 2.4l.9-.5v-1.5l-.9.5v1.5zm0 2.5l.9-.5v-1.6l-.9.6v1.5zm0 2.5l.9-.6v-1.5l-.9.6v1.5zm0 2.4l.9-.5v-1.5l-.9.5v1.5zm-1.8-11.3l1-.6v-1.5l-1 .6v1.5zm0 2.5l1-.6v-1.5l-1 .5v1.6zm0 2.4l1-.5v-1.6l-1 .6v1.5zm0 2.5l1-.6v-1.5l-1 .6v1.5zm0 2.5l1-.6v-1.5l-1 .5v1.6zm0 2.4l1-.5v-1.6l-1 .6v1.5z"/></g><path fill="#B3B3B3" d="M31.9 22.3v16.8L24.8 35V18.2l7.1 4.1z"/><g><path fill="#FFF" d="M32.6 18.2l10.1-5.9-5.5-3.2L27 15l5.6 3.2z"/><path fill="#DCDCDC" d="M32.5 21l10.2-5.9v-2.8l-10.1 5.9-.1 2.8z"/></g><path fill="#C3C3C3" d="M32.6 18.2l-.1 2.8-5.5-3.2V15l5.6 3.2z"/><path fill="#025074" d="M39.5 14.5l2.9-1.7v2.1l-2.9 1.7v-2.1zm-3.3 1.9l2.9-1.7v2.1l-2.9 1.7v-2.1zm-3.3 2l2.9-1.7v2.1l-2.9 1.7v-2.1z"/><path fill="#134663" d="M30.5 19.4l-1.3-.7v-2.1l1.3.7v2.1zm-1.7-.8l-1.3-.8v-2.1l1.3.8v2.1zm2-1.1l1.3.8v2.1l-1.3-.8v-2.1z"/><g><path fill="#A3A3A3" d="M25 24.3v15.9l1.2.7V25l-1.2-.7z"/><path fill="#C7C7C7" d="M26.2 25v15.9l1.3-.7V24.3l-1.3.7z"/><path fill="#CCC" d="M25 24.3l1.2.7 1.3-.7-1.3-.7-1.2.7z"/></g><g><path fill="#FFF" d="M26.3 25.7l5.6-3.4-2.2-1.3-5.7 3.4 2.3 1.3z"/><path fill="#DCDCDC" d="M26.2 28.1l5.7-3.3v-2.5l-5.6 3.4-.1 2.4z"/></g><path fill="#C2C2C2" d="M26.3 25.7l-.1 2.4-2.2-1.3v-2.4l2.3 1.3z"/><g><path fill="#949494" d="M34.6 7.2v7.2-7.2z"/><path fill="#B3B3B3" d="M34.6 7.2v7.1c0 .1.1.1.2.2s.3.1.4.1V7.5c-.2 0-.3 0-.4-.1-.1 0-.1-.1-.2-.2z"/><path fill="#DCDCDC" d="M35.3 7.5v7.1c.2 0 .3 0 .4-.1.1-.1.2-.2.2-.3V7.1c0 .1-.1.2-.2.3-.1.1-.3.1-.4.1z"/><path fill="#CCC" d="M34.8 6.9c-.2.1-.2.4 0 .5s.6.1.9 0c.2-.1.2-.4 0-.5-.3-.1-.6-.1-.9 0z"/></g><g><defs><path id="e" d="M32.8 7.5v.3c0 .4.2.7.7 1 1 .6 2.5.6 3.5 0 .5-.3.7-.7.7-1v-.3c0 .4-.2.7-.7 1-1 .6-2.5.6-3.5 0-.5-.3-.7-.7-.7-1z"/></defs><clipPath id="f"><use xlink:href="#e" overflow="visible"/></clipPath><g clip-path="url(#f)"><path fill="#C3C3C3" d="M32.8 7.5v.3c0 .4.2.7.7 1 1 .6 2.5.6 3.5 0 .5-.3.7-.7.7-1v-.3c0 .4-.2.7-.7 1-1 .6-2.5.6-3.5 0-.5-.3-.7-.7-.7-1z"/></g><path fill="#FFF" d="M33.5 6.5c-1 .6-1 1.5 0 2 1 .6 2.5.6 3.5 0s1-1.5 0-2c-1-.6-2.5-.6-3.5 0z"/></g><g><path fill="#949494" d="M34.9 3.7l-.2 3.8v.1l.2-3.9c0 .1 0 .1 0 0z"/><path fill="#C3C3C3" d="M34.9 3.8l-.2 3.8c0 .1.1.1.1.1.1.1.3.1.4.1V3.9s-.1 0-.3-.1c.1.1 0 0 0 0z"/><path fill="#DCDCDC" d="M35.2 3.9v3.9c.1 0 .3 0 .4-.1.1-.1.2-.1.2-.2l-.2-3.8s0 .1-.1.1c-.1.1-.2.1-.3.1z"/><path fill="#FFF" d="M35 3.6c-.1.1-.1.2 0 .3s.3.1.5 0c.1-.1.1-.2 0-.3-.2-.1-.4-.1-.5 0z"/></g><g><path fill="#B3B3B3" d="M118.9 63.5l-.3-.1v-1.9l.2.1.1 1.9z"/><path fill="#EDEDED" d="M118.8 61.2l-.2-.1.3-.2.3.2-.4.1z"/><path fill="#B3B3B3" d="M117.5 64.3l-.2-.2v-1.9l.2.2v1.9z"/><path fill="#EDEDED" d="M117.9 61.8l-.3-.1 1-.6.2.1-.9.6zm-.4.2l-.2-.1.3-.2.3.1-.4.2z"/><path fill="#B3B3B3" d="M116.2 65l-.2-.1V63l.2.1V65z"/><path fill="#EDEDED" d="M116.6 62.6l-.3-.2 1-.5.2.1-.9.6z"/><path fill="#EDEDED" d="M116.2 62.7l-.2-.1.3-.2.3.2-.4.1z"/><path fill="#B3B3B3" d="M114.9 65.8l-.2-.2v-1.9l.2.2v1.9z"/><path fill="#EDEDED" d="M115.3 63.3l-.3-.1 1-.6.2.1-.9.6z"/><path fill="#EDEDED" d="M114.9 63.5l-.2-.1.3-.2.3.1-.4.2z"/><path fill="#B3B3B3" d="M113.6 66.5l-.2-.1v-1.9l.2.1v1.9z"/><path fill="#EDEDED" d="M114 64.1l-.3-.2 1-.5.2.1-.9.6zm-.4.1l-.2-.1.3-.2.3.2-.4.1z"/><path fill="#B3B3B3" d="M112.3 67.3l-.2-.2v-1.9l.2.2v1.9z"/><path fill="#EDEDED" d="M112.7 64.8l-.3-.1 1-.6.2.1-.9.6zm-.4.2l-.2-.1.3-.2.3.1-.4.2z"/><path fill="#B3B3B3" d="M111 68l-.2-.1V66l.2.1V68z"/><path fill="#EDEDED" d="M111.4 65.6l-.3-.2 1-.5.2.1-.9.6zm-.4.2l-.2-.2.3-.2.3.2-.4.2z"/><path fill="#B3B3B3" d="M109.7 68.8l-.2-.2v-1.9l.2.2v1.9z"/><path fill="#EDEDED" d="M110.1 66.3l-.3-.1 1-.6.2.2-.9.5z"/><path fill="#EDEDED" d="M109.7 66.5l-.2-.1.3-.2.3.1-.4.2z"/><path fill="#B3B3B3" d="M108.4 69.5l-.2-.1v-1.9l.2.1v1.9z"/><path fill="#EDEDED" d="M108.8 67.1l-.3-.2 1-.5.2.1-.9.6zm-.4.2l-.2-.2.3-.2.3.2-.4.2z"/><path fill="#B3B3B3" d="M107.1 70.3l-.2-.2v-1.9l.2.2v1.9z"/><path fill="#EDEDED" d="M107.5 67.8l-.3-.1 1-.6.2.2-.9.5z"/><path fill="#EDEDED" d="M107.1 68l-.2-.1.3-.2.3.1-.4.2zm-1.3 3l-.2-.1V69l.2.1V71zm.4-2.4l-.3-.2 1-.5.2.1-.9.6zm-.4.5l-.2-.1v-.4l.2.2v.3z"/><path fill="#DCDCDC" d="M119.2 61.1v2.2l-.3.2-.1-1.9-.9.6v1.9l-.4.2v-1.9l-.9.5v1.9l-.4.2v-1.9l-.9.6v1.9l-.4.2v-1.9l-.9.5v1.9l-.4.2v-1.9l-.9.6v1.9l-.4.2v-1.9l-.9.5v1.9l-.4.2v-1.9l-.9.6v1.9l-.4.2v-1.9l-.9.5v1.9l-.4.2v-1.9l-.9.6v1.9l-.4.2v-1.9l-.9.5v1.9l-.4.2v-2.2l.4-.2.9-.6.4-.2.9-.5.4-.2.9-.6.4-.2.9-.5.4-.2.9-.6.4-.2.9-.6.4-.1.9-.6.4-.2.9-.6.4-.1.9-.6.4-.2.9-.6.4-.1z"/><path fill="#EDEDED" d="M105.8 68.8l-.2-.2.3-.2.3.2-.4.2z"/></g><g><path fill="#B3B3B3" d="M105.8 71l-.2-.1V69l.2.1V71z"/><path fill="#EDEDED" d="M105.8 68.8l-.2-.2.3-.2.3.2-.4.2z"/><path fill="#B3B3B3" d="M104.5 71.8l-.2-.2v-1.9l.2.2v1.9z"/><path fill="#EDEDED" d="M104.9 69.3l-.3-.1 1-.6.2.2-.9.5z"/><path fill="#EDEDED" d="M104.5 69.5l-.2-.1.3-.2.3.1-.4.2z"/><path fill="#B3B3B3" d="M103.2 72.5l-.2-.1v-1.9l.2.1v1.9z"/><path fill="#EDEDED" d="M103.5 70.1l-.2-.2 1-.5.2.1-1 .6zm-.3.2l-.2-.2.3-.2.2.2-.3.2z"/><path fill="#B3B3B3" d="M101.9 73.3l-.2-.2v-1.8l.2.1v1.9z"/><path fill="#EDEDED" d="M102.2 70.8l-.2-.1 1-.6.2.2-1 .5z"/><path fill="#EDEDED" d="M101.9 71l-.2-.1.3-.2.2.1-.3.2z"/><path fill="#B3B3B3" d="M100.6 74l-.2-.1V72l.2.1V74z"/><path fill="#EDEDED" d="M100.9 71.6l-.2-.2 1-.5.2.1-1 .6zm-.3.2l-.2-.2.3-.2.2.2-.3.2z"/><path fill="#B3B3B3" d="M99.3 74.8l-.2-.2v-1.8l.2.1v1.9z"/><path fill="#EDEDED" d="M99.6 72.3l-.2-.1 1-.6.2.2-1 .5z"/><path fill="#EDEDED" d="M99.3 72.5l-.2-.1.3-.2.2.1-.3.2z"/><path fill="#B3B3B3" d="M98 75.5l-.2-.1v-1.9l.2.1v1.9z"/><path fill="#EDEDED" d="M98.3 73.1l-.2-.2 1-.5.2.1-1 .6zm-.3.2l-.2-.2.3-.2.2.2-.3.2z"/><path fill="#B3B3B3" d="M96.7 76.3l-.2-.2v-1.8l.2.1v1.9z"/><path fill="#EDEDED" d="M97 73.8l-.2-.1 1-.6.2.2-1 .5z"/><path fill="#EDEDED" d="M96.7 74l-.2-.1.3-.2.2.1-.3.2z"/><path fill="#B3B3B3" d="M95.4 77l-.2-.1V75l.2.1V77z"/><path fill="#EDEDED" d="M95.7 74.6l-.2-.2 1-.5.2.1-1 .6z"/><path fill="#EDEDED" d="M95.4 74.8l-.2-.2.3-.2.2.2-.3.2z"/><path fill="#B3B3B3" d="M94.1 77.8l-.2-.2v-1.8l.2.1v1.9z"/><path fill="#EDEDED" d="M94.4 75.3l-.2-.1 1-.6.2.2-1 .5z"/><path fill="#EDEDED" d="M94.1 75.5l-.2-.1.3-.2.2.1-.3.2z"/><path fill="#B3B3B3" d="M92.8 77.7h-.2v-1.2l.2.2v1z"/><path fill="#EDEDED" d="M93.1 76.1l-.2-.2 1-.5.2.1-1 .6z"/><path fill="#B3B3B3" d="M92.8 76.7l-.2-.2v-.4l.2.2v.4z"/><path fill="#DCDCDC" d="M92.8 76.3v1.4l.3.1v-1.3l1-.6v1.9l.3-.2v-1.9l1-.6V77l.3-.2V75l1-.6v1.9l.3-.2v-1.9l1-.6v1.9l.3-.2v-1.8l1-.6v1.9l.3-.2v-1.9l1-.6V74l.4-.2-.1-1.8 1-.6v1.9l.4-.2-.1-1.9 1-.6v1.9l.4-.2v-1.9l.9-.5v1.9l.4-.2v-1.9l.9-.6V71l.4-.2v-2.2l-.4.2-.9.5-.4.2-1 .6-.3.2-1 .5-.3.2-1 .6-.3.2-1 .5-.3.2-1 .6-.3.2-1 .5-.3.2-1 .6-.3.2-1 .5-.3.2-1 .6-.3.2z"/><path fill="#EDEDED" d="M92.8 76.3l-.2-.2.3-.2.2.2-.3.2z"/></g><g><path fill="#F9F9F9" d="M119.8 78.1l5.3-3.1-2.9-1.7-5.3 3.1 2.9 1.7z"/><path fill="#DCDCDC" d="M119.8 80.1l5.3-3.1v-2l-5.3 3.1v2z"/></g><path fill="#9C9C9C" d="M119.8 78.1v2l-2.9-1.7v-2l2.9 1.7z"/><g><path fill="#949494" d="M120.3 72.1v3.6-3.6c0 .1 0 .1 0 0z"/><path fill="#B3B3B3" d="M120.3 72.2v3.5c0 .1.1.1.2.2s.3.1.5.1v-3.5c-.2 0-.4 0-.5-.1-.1 0-.2-.1-.2-.2z"/><path fill="#DCDCDC" d="M121 72.6v3.5c.2 0 .4 0 .5-.1s.2-.2.2-.3v-3.5c0 .1-.1.2-.2.3-.1 0-.3.1-.5.1z"/><path fill="#CCC" d="M120.5 71.9c-.3.2-.3.4 0 .6s.7.2 1 0 .3-.4 0-.6-.7-.2-1 0z"/></g><g><defs><path id="g" d="M118.1 71.9v.3c0 .4.3.8.8 1.2 1.1.7 2.9.7 4.1 0 .6-.3.8-.8.8-1.2v-.3c0 .4-.3.9-.8 1.2-1.1.7-2.9.7-4.1 0-.5-.3-.8-.7-.8-1.2z"/></defs><clipPath id="h"><use xlink:href="#g" overflow="visible"/></clipPath><g clip-path="url(#h)"><path fill="#C3C3C3" d="M118.1 71.9v.3c0 .4.3.8.8 1.2 1.1.7 2.9.7 4.1 0 .6-.3.8-.8.8-1.2v-.3c0 .4-.3.9-.8 1.2-1.1.7-2.9.7-4.1 0-.5-.3-.8-.7-.8-1.2z"/></g><path fill="#FFF" d="M119 70.7c-1.1.7-1.1 1.7 0 2.4s2.9.7 4.1 0c1.1-.7 1.1-1.7 0-2.4-1.2-.6-3-.6-4.1 0z"/></g><g><path fill="#949494" d="M120.3 68.3v3.6-3.6c0 .1 0 0 0 0z"/><path fill="#B3B3B3" d="M120.3 68.4v3.5c0 .1.1.1.2.2s.3.1.5.1v-3.5c-.2 0-.4 0-.5-.1s-.2-.1-.2-.2z"/><path fill="#DCDCDC" d="M121 68.7v3.5c.2 0 .4 0 .5-.1s.2-.2.2-.3v-3.5c0 .1-.1.2-.2.3-.1.1-.3.1-.5.1z"/><path fill="#CCC" d="M120.5 68c-.3.2-.3.4 0 .6s.7.2 1 0 .3-.4 0-.6c-.3-.1-.7-.1-1 0z"/></g><g><defs><path id="i" d="M118.6 68.2v.3c0 .4.2.7.7 1 .9.5 2.5.5 3.4 0 .5-.3.7-.6.7-1v-.3c0 .4-.2.7-.7 1-.9.5-2.5.5-3.4 0-.4-.3-.7-.7-.7-1z"/></defs><clipPath id="j"><use xlink:href="#i" overflow="visible"/></clipPath><g clip-path="url(#j)"><path fill="#C3C3C3" d="M118.6 68.2v.3c0 .4.2.7.7 1 .9.5 2.5.5 3.4 0 .5-.3.7-.6.7-1v-.3c0 .4-.2.7-.7 1-.9.5-2.5.5-3.4 0-.4-.3-.7-.7-.7-1z"/></g><path fill="#FFF" d="M119.3 67.2c-.9.5-.9 1.4 0 2 .9.5 2.5.5 3.4 0s.9-1.4 0-2-2.4-.6-3.4 0z"/></g><g><path fill="#949494" d="M120.3 64.6v3.6-3.6z"/><path fill="#B3B3B3" d="M120.3 64.7v3.5c0 .1.1.1.2.2s.3.1.5.1V65c-.2 0-.4 0-.5-.1l-.2-.2z"/><path fill="#DCDCDC" d="M121 65v3.5c.2 0 .4 0 .5-.1s.2-.2.2-.3v-3.5c0 .1-.1.2-.2.3-.1 0-.3.1-.5.1z"/><path fill="#CCC" d="M120.5 64.3c-.3.2-.3.4 0 .6s.7.2 1 0 .3-.4 0-.6-.7-.2-1 0z"/></g><g><defs><path id="k" d="M119 64.3v.2c0 .3.2.6.6.8.8.5 2.1.5 2.9 0 .4-.2.6-.5.6-.8v-.2c0 .3-.2.6-.6.8-.8.5-2.1.5-2.9 0-.4-.2-.6-.5-.6-.8z"/></defs><clipPath id="l"><use xlink:href="#k" overflow="visible"/></clipPath><g clip-path="url(#l)"><path fill="#C3C3C3" d="M119 64.3v.2c0 .3.2.6.6.8.8.5 2.1.5 2.9 0 .4-.2.6-.5.6-.8v-.2c0 .3-.2.6-.6.8-.8.5-2.1.5-2.9 0-.4-.2-.6-.5-.6-.8z"/></g><path fill="#FFF" d="M119.6 63.4c-.8.5-.8 1.2 0 1.7s2.1.5 2.9 0 .8-1.2 0-1.7c-.8-.4-2.1-.4-2.9 0z"/></g><g><path fill="#949494" d="M120.6 59.9l-.2 4.4v.1l.2-4.5z"/><path fill="#C3C3C3" d="M120.6 60l-.2 4.4c0 .1.1.1.2.2s.3.1.5.1v-4.5c-.1 0-.2 0-.3-.1s-.2-.1-.2-.1z"/><path fill="#DCDCDC" d="M121 60.1v4.5c.2 0 .3 0 .4-.1s.2-.2.2-.3l-.3-4.4c0 .1 0 .1-.1.2 0 .1-.1.1-.2.1z"/><path fill="#FFF" d="M120.7 59.8c-.1.1-.1.2 0 .3s.4.1.5 0 .1-.2 0-.3-.3-.1-.5 0z"/></g><g><path fill="#461D00" d="M32.6 44.4l1-.6v-2.2l-1 .6v2.2z"/><defs><path id="m" d="M32.1 40l-1 .6c.2-.1.4-.1.7.1l1-.6c-.3-.2-.6-.2-.7-.1z"/></defs><clipPath id="n"><use xlink:href="#m" overflow="visible"/></clipPath><g clip-path="url(#n)"><path fill="#5A2600" d="M31.7 40.6l1-.6c-.3-.1-.5-.2-.7-.1l-1 .6c.2-.1.5-.1.7.1z"/></g><g><defs><path id="o" d="M32.6 42.2l1-.6c0-.6-.4-1.3-.9-1.6l-1 .6c.5.3.9 1 .9 1.6z"/></defs><clipPath id="p"><use xlink:href="#o" overflow="visible"/></clipPath><g clip-path="url(#p)"><path fill="#5A2600" d="M32.6 42.2l1-.6c0-.6-.4-1.3-.9-1.6l-1 .6c.5.3.9 1 .9 1.6z"/></g></g><path fill="#853800" d="M31.7 40.6c-.5-.3-.9-.1-.9.5v2.2l1.8 1.1v-2.2c0-.6-.4-1.3-.9-1.6z"/></g><g><path fill="#CFCFCF" d="M73.3 48.3l-2.7-1.6 2.7 1.6z"/><path fill="silver" d="M73.3 48.2l-2.7-1.6v.1l2.7 1.5z"/><path fill="#9B9B9B" d="M73.3 48v.3H75l.1-.2-1.8-.1z"/><path fill="#CFCFCF" d="M75.1 48.1l-2.7-1.6h-1.8l2.7 1.5 1.8.1z"/><path fill="#F9F9F9" d="M66.3 52.3l-2.7-1.5 2.7 1.5z"/><path fill="#929292" d="M66.3 52.2l-2.7-1.5v.1l2.7 1.6v-.2z"/><path fill="#F9F9F9" d="M73.3 48l-2.7-1.5-7 4 2.7 1.6 7-4.1z"/><path fill="#9B9B9B" d="M66.3 52.1v.3-.1l7-4V48l-7 4.1z"/><path fill="#929292" d="M66.3 52.1l-2.7-1.6v.2l2.7 1.4z"/><path fill="#DCDCDC" d="M66.3 52.1l-2.7-1.6-1.8 2.2 2.7 1.5 1.8-2.1z"/><path fill="#9B9B9B" d="M66.3 52.1l-1.8 2.1.1.2 1.7-2.1V52.1z"/><path fill="gray" d="M64.5 54.2l-2.7-1.5.1.1 2.7 1.6-.1-.2z"/></g><g><path fill="#CFCFCF" d="M102.7 65.7l-2.7-1.6 2.7 1.6z"/><path fill="silver" d="M102.8 65.6l-2.7-1.6-.1.1 2.8 1.5z"/><path fill="#9B9B9B" d="M102.8 65.4l-.1.3h1.8l.1-.2-1.8-.1z"/><path fill="#CFCFCF" d="M104.6 65.5l-2.7-1.6h-1.8l2.7 1.5 1.8.1z"/><path fill="#F9F9F9" d="M95.8 69.7L93 68.2l2.7 1.5h.1z"/><path fill="#929292" d="M95.7 69.6L93 68.1v.1l2.7 1.4z"/><path fill="#F9F9F9" d="M102.8 65.4l-2.7-1.5-7.1 4 2.7 1.6 7.1-4.1z"/><path fill="#9B9B9B" d="M95.7 69.5v.2h.1l6.9-4 .1-.1v-.2l-7.1 4.1z"/><path fill="#929292" d="M95.7 69.5L93 67.9v.2l2.7 1.4z"/><path fill="#DCDCDC" d="M95.7 69.5L93 67.9 91.2 70l2.7 1.6 1.8-2.1z"/><path fill="#9B9B9B" d="M95.7 69.5l-1.8 2.1.1.2 1.8-2.1h-.1v-.2z"/><path fill="gray" d="M93.9 71.6L91.2 70l.1.2 2.7 1.6-.1-.2z"/></g><g><path fill="#CFCFCF" d="M53.5 36.3l-2.7-1.6 2.7 1.6z"/><path fill="silver" d="M53.6 36.2l-2.7-1.6-.1.1 2.8 1.5z"/><path fill="#9B9B9B" d="M53.6 36l-.1.3h1.8l.1-.2-1.8-.1z"/><path fill="#CFCFCF" d="M55.4 36.1l-2.7-1.6h-1.8l2.7 1.5 1.8.1z"/><path fill="#F9F9F9" d="M46.5 40.3l-2.7-1.5 2.7 1.5z"/><path fill="#929292" d="M46.5 40.2l-2.7-1.5v.1l2.7 1.6v-.2z"/><path fill="#F9F9F9" d="M53.6 36l-2.7-1.5-7.1 4 2.7 1.6 7.1-4.1z"/><path fill="#9B9B9B" d="M46.5 40.1v.3-.1l7-4 .1-.1V36l-7.1 4.1z"/><path fill="#929292" d="M46.5 40.1l-2.7-1.6v.2l2.7 1.4z"/><path fill="#DCDCDC" d="M46.5 40.1l-2.7-1.6-1.8 2.2 2.7 1.5 1.8-2.1z"/><path fill="#9B9B9B" d="M46.5 40.1l-1.8 2.1.1.2 1.7-2.1v.1-.3z"/><path fill="gray" d="M44.7 42.2L42 40.7l.1.1 2.7 1.6-.1-.2z"/></g></svg>