<svg viewBox="0 0 30 30" xmlns="http://www.w3.org/2000/svg"><g fill="none"><path d="M15 30C6.696 30 0 23.304 0 15S6.696 0 15 0s15 6.696 15 15-6.696 15-15 15z" fill="#F26C4F"></path><path d="M14.758 6.575a2.526 2.526 0 0 0-2.301 2.532l-.001 3.349h-3.35c-.711 0-1.344.285-1.801.742-.434.434-.746 1.02-.73 2.044a2.526 2.526 0 0 0 2.532 2.301h3.349v3.35c0 .712.285 1.345.742 1.802.434.434 1.02.746 2.044.73a2.526 2.526 0 0 0 2.301-2.532v-3.35h3.35c.712 0 1.345-.284 1.802-.74.434-.435.746-1.022.73-2.045a2.526 2.526 0 0 0-2.532-2.301l-3.35-.001V9.107a2.47 2.47 0 0 0-.813-1.855c-.456-.413-1.093-.688-1.972-.677z" fill="#FFF"></path></g></svg>