<?xml version="1.0" standalone="no"?>
<!DOCTYPE svg PUBLIC "-//W3C//DTD SVG 20010904//EN"
 "http://www.w3.org/TR/2001/REC-SVG-20010904/DTD/svg10.dtd">
<svg version="1.0" xmlns="http://www.w3.org/2000/svg"
 width="400.000000pt" height="400.000000pt" viewBox="0 0 400.000000 400.000000"
 preserveAspectRatio="xMidYMid meet">
<metadata>
Created by potrace 1.11, written by Peter Selinger 2001-2013
</metadata>
<g transform="translate(0.000000,400.000000) scale(0.100000,-0.100000)"
fill="#000000" stroke="none">
<path d="M1915 3920 c-26 -13 -352 -332 -936 -917 -944 -945 -922 -922 -922
-1008 0 -85 -19 -65 927 -1011 650 -650 912 -906 940 -918 21 -9 54 -16 74
-16 93 0 58 -32 1003 914 490 489 902 904 915 922 30 39 40 113 24 173 -11 41
-92 126 -903 937 -491 490 -910 903 -931 918 -49 33 -131 36 -191 6z m161
-651 c201 -94 248 -364 92 -520 -28 -28 -49 -51 -47 -53 8 -6 100 -40 352
-132 308 -112 336 -123 453 -180 149 -72 234 -147 287 -254 32 -65 32 -205 -1
-271 -100 -201 -360 -247 -519 -92 l-54 52 -10 -27 c-11 -28 -65 -173 -181
-487 -103 -280 -167 -404 -251 -487 -37 -38 -82 -75 -100 -85 -217 -112 -468
30 -481 272 -5 88 29 173 100 246 l45 46 -163 61 c-90 33 -221 81 -293 107
-341 124 -448 178 -546 276 -109 109 -142 203 -114 325 23 101 85 178 181 225
40 20 64 24 134 24 105 0 158 -22 229 -93 l49 -49 26 66 c14 36 66 176 115
311 49 135 99 270 111 300 32 81 108 230 138 270 57 77 151 147 222 167 63 18
166 9 226 -18z"/>
<path d="M1874 3106 c-48 -21 -77 -69 -77 -130 -3 -184 269 -197 287 -13 5 48
-31 115 -74 138 -41 22 -92 24 -136 5z"/>
<path d="M1650 2776 c-5 -15 -10 -33 -10 -40 0 -6 -4 -16 -8 -21 -5 -6 -25
-55 -45 -110 -219 -610 -280 -741 -393 -834 -29 -24 -51 -48 -49 -52 3 -4 69
-30 147 -59 568 -208 660 -246 767 -314 45 -29 111 -93 139 -135 l16 -23 9 23
c20 51 188 505 190 514 9 37 69 179 120 284 52 109 69 133 133 195 l74 72 -33
12 c-17 7 -135 51 -262 97 -342 125 -352 129 -463 178 -151 67 -216 112 -289
201 l-32 40 -11 -28z"/>
<path d="M879 2116 c-89 -61 -82 -199 13 -247 101 -52 212 17 212 132 0 113
-130 180 -225 115z"/>
<path d="M2839 2117 c-79 -52 -90 -161 -23 -224 128 -120 321 45 220 188 -43
61 -134 78 -197 36z"/>
<path d="M1910 1162 c-30 -5 -85 -45 -100 -73 -33 -60 -10 -152 47 -193 38
-28 122 -28 159 0 69 51 86 116 51 186 -31 61 -88 90 -157 80z"/>
</g>
</svg>
