<svg xmlns="http://www.w3.org/2000/svg" xmlns:xlink="http://www.w3.org/1999/xlink" viewBox="0 0 350 90"><path d="M326.4 37.7l-4.5 3.8L280 67.6l-19.7 1.3 10 9.1 1.8 6.2v.1c.5.8 7.1 1.2 13.1-2.4l1.4-.9 2 .3 2.8-1.7.1-2 5.8-1.7.5.1c.1 0 .3 0 .5-.1.1-.1.2-.2.3-.2l2.6.5c0 .1-.1.1-.1.2s0 .2.1.2h.1c.1 0 .2 0 .4-.1.1-.1.2-.1.3-.2l1 .1h.1c.1 0 .1-.1.1-.1l-.9-.2c0-.1.1-.2.1-.2 0-.1-.1-.2-.2-.2h-.1c-.1 0-.2 0-.4.1-.1 0-.2.1-.2.2l-2.6-.5s0-.1.1-.1l2.2-1.3v-.4l-.4-.1-2.3 1.4-3.8-.7 4.9-2 7.3-.8c.1 0 .2-.1.3-.2.2-.2.3-.5.2-.6 0-.1-.1-.1-.2-.1h-.2l-1.6-3.7.6-.4 22-14.2v.4l.7.1 1-.6.1-.9 3.7-2.2c.8-.5 1.6-1.2 2.1-2 .3-.5.5-1 .6-1.4v-.6h.3l-.1 1.5.9.2.1-.1.1-1.4.7.1-.1 1.1h.2l.1-.1.1-1 .7.1v.7h.2l.1-.1v-.6l.8.1v.3h.2l.1-.1v-.3l.5.1v.2l1.2.2.1-.1v-.6l-1.2-.2-.1.1v.1l-.5-.1v-.5h-.2l-.1.1v.4l-.8-.1.1-.9h-.2l-.1.1-.1.8-.7-.1.1-1.3h-.2l-.1.1-.1 1.2-.7-.1.1-1.7-.9-.2-.1.1-.1 1.6h-.3l.2-3 2.2.4c0 .1-.1.2-.1.3s.1.2.2.3h.1c.1 0 .3 0 .5-.1l.3-.3 1.3.2h.1c.1 0 .1-.1.1-.2l-1.2-.3c.1-.1.1-.2.1-.3 0-.2-.1-.2-.2-.3h-.1c-.1 0-.3 0-.5.1-.1.1-.2.1-.3.2l-2.5-.4.2-3.4c0-.7-.3-1-1-1l-9.2.8zm-23.5 38.5c-.1 0-.1 0 0 0zm-2.6-6.5l5.8.8-8.6.9 1.1-.7 1.7-1zm-2.2 5.3l-.2.2.2-.2zm-2.8.6c-1.3.2-3 .6-3.8 1.6l.1-1.2-1.2-.2 1.4-.8 3.5.6zm45.8-33.5c-.1 0-.1 0 0 0-.1 0-.1 0 0 0zm-1.3-.9s-.1 0 0 0c-.1 0 0 0 0 0zm-.2 0s0 .1 0 0c0 .1 0 0 0 0zm.1 0c-.1 0-.1 0 0 0zm-.4.2c.1-.1.1-.1 0 0 .1-.1.1-.1 0 0zm.1-.1s.1 0 0 0zm1.6.8c-.1.1-.1.1 0 0zm-2.3.5s.1 0 0 0zm-.1-.1s.1 0 0 0zm-31.7 27.9l-.7.1c-.9-.2-3.2-.5-5.6-.9l.8-.5v.1l1.4.2 2.1-1.3v-.3c.5 1.6 1.8 2.5 2 2.6zm.2 0c-.1 0-.1 0 0 0zM294.2 74l-.7-.1 2.2-1.3 3.5-.4c-1.4.4-3.7 1.1-5 1.8zm7.4 1.6c.1 0 .1-.1 0 0zm1.2.7s0-.1 0 0zm-11.4 1.3l4.9-1.9.9.2c-1 .2-3.9.8-5.8 1.7z" fill="#3974b0"/><path d="M271.9 27.2l-.8-.4v-.6l.8.4v.6z" fill="#9e9e9e"/><path d="M271.9 26.6l-.8-.4 3.4-2.1.7.5-3.3 2z" fill="#fafbfd"/><path d="M275.2 24.6v.6l-3.3 2v-.6l3.3-2z" fill="#c2c2c2"/><path d="M326.4 38.9L280 67.6 260.6 69l-12.7-12.7 32.1-7 48.4-25-2 14.6z" fill="#36343a"/><path d="M327 22.2l-13.4-8.3c-1.9-1.2-4.9-1.2-6.8 0l-18 11.4-9.8 6.1-14 8.6 15 9.3v6.4l19.2-11.8 16.9-10.7 10.9-6.8c1.9-1.1 1.9-3 0-4.2z" fill="#5c5a63"/><path d="M280 49.3l-14-8.6 23.2-14.4 18-11.4c.7-.5 1.8-.7 2.9-.7 1.1 0 2.2.3 2.9.7l13.4 8.3c.6.4.9.8.9 1.2s-.3.8-.9 1.2l-10.9 6.8L298.7 43 280 54.5v-5.2z" fill="#e8e9eb"/><path d="M312.3 14.5c-.3.1-.7.3-.9.4l-18 11.4-17.7 11-1.2.7-1.2.7-1.2.8-1.2.7-.7.4.7.4 1.2.7.1.1.8.5.8.5 12.4 7.7-6.2 3.8v-5.2l-6.9-4.3-.8-.5-.2-.1-.6-.3-.6-.4-1.2-.7-3.7-2.3 3.8-2.3 1.2-.7 1.2-.7 2.4-1.5 1.2-.7 1.2-.7 12.3-7.6 18-11.4c.7-.5 1.8-.7 2.9-.7.7-.1 1.5.1 2.1.3z" fill="#d9d9d9"/><defs><path id="a" d="M294.7 26.1v1.5c0 .2-.1.4-.3.5-.4.3-1.2.3-1.6 0-.2-.1-.3-.3-.3-.5v-1.5c0 .2.1.4.3.5.4.3 1.2.3 1.6 0 .2-.2.3-.3.3-.5z"/></defs><clipPath id="b"><use xlink:href="#a" overflow="visible"/></clipPath><g clip-path="url(#b)"><path d="M294.7 26.1v1.5c0 .1-.1.3-.2.4v-1.5c.1-.1.2-.3.2-.4z" fill="#919191"/><path d="M294.5 26.5V28l-.1.1c-.2.1-.5.2-.9.2v-1.5c.3 0 .6-.1.9-.2 0 0 0-.1.1-.1z" fill="#b5b5b5"/><path d="M293.5 26.8v1.5c-.3 0-.5-.1-.7-.2-.2-.1-.3-.3-.3-.5v-1.5c0 .2.1.4.3.5.2.1.4.2.7.2z" fill="#919191"/></g><path d="M294.3 25.6c.4.3.4.7 0 1-.4.3-1.2.3-1.6 0-.4-.3-.4-.7 0-1 .5-.3 1.2-.3 1.6 0z" fill="#fff"/><defs><path id="c" d="M299.1 23.6v1.5c0 .2-.1.4-.3.5-.4.3-1.2.3-1.6 0-.2-.1-.3-.3-.3-.5v-1.5c0 .2.1.4.3.5.4.3 1.2.3 1.6 0 .2-.2.3-.4.3-.5z"/></defs><clipPath id="d"><use xlink:href="#c" overflow="visible"/></clipPath><g clip-path="url(#d)"><path d="M299.1 23.6v1.5c0 .1-.1.3-.2.4V24c.2-.2.2-.3.2-.4z" fill="#919191"/><path d="M298.9 24v1.5l-.1.1c-.2.1-.5.2-.9.2v-1.5c.3 0 .6-.1.9-.2l.1-.1z" fill="#b5b5b5"/><path d="M297.9 24.3v1.5c-.3 0-.5-.1-.7-.2-.2-.1-.3-.3-.3-.5v-1.5c0 .2.1.4.3.5.2.1.5.1.7.2z" fill="#919191"/></g><path d="M298.8 23.1c.4.3.4.7 0 1-.4.3-1.2.3-1.6 0-.4-.3-.4-.7 0-1 .4-.3 1.2-.3 1.6 0z" fill="#fff"/><defs><path id="e" d="M307.9 34.8v1.5c0 .2-.1.4-.3.5-.4.3-1.2.3-1.6 0-.2-.1-.3-.3-.3-.5v-1.5c0 .2.1.4.3.5.4.3 1.2.3 1.6 0 .2-.1.3-.3.3-.5z"/></defs><clipPath id="f"><use xlink:href="#e" overflow="visible"/></clipPath><g clip-path="url(#f)"><path d="M307.9 34.8v1.5c0 .1-.1.3-.2.4v-1.5c.1-.1.2-.2.2-.4z" fill="#919191"/><path d="M307.7 35.2v1.5l-.1.1c-.2.1-.5.2-.9.2v-1.5c.3 0 .6-.1.9-.2 0 0 .1 0 .1-.1z" fill="#b5b5b5"/><path d="M306.7 35.5V37c-.3 0-.5-.1-.7-.2-.2-.1-.3-.3-.3-.5v-1.5c0 .2.1.4.3.5.2.2.5.2.7.2z" fill="#919191"/></g><path d="M307.6 34.3c.4.3.4.7 0 1s-1.2.3-1.6 0c-.4-.3-.4-.7 0-1 .4-.2 1.1-.2 1.6 0z" fill="#fff"/><defs><path id="g" d="M312.4 32.3v1.5c0 .2-.1.4-.3.5-.4.3-1.2.3-1.6 0-.2-.1-.3-.3-.3-.5v-1.5c0 .2.1.4.3.5.4.3 1.2.3 1.6 0 .2-.1.3-.3.3-.5z"/></defs><clipPath id="h"><use xlink:href="#g" overflow="visible"/></clipPath><g clip-path="url(#h)"><path d="M312.4 32.3v1.5c0 .1-.1.3-.2.4v-1.5c.1-.1.2-.3.2-.4z" fill="#919191"/><path d="M312.2 32.7v1.5l-.1.1c-.2.1-.5.2-.9.2V33c.3 0 .6-.1.9-.2 0 0 0-.1.1-.1z" fill="#b5b5b5"/><path d="M311.2 33v1.5c-.3 0-.5-.1-.7-.2-.2-.1-.3-.3-.3-.5v-1.5c0 .2.1.4.3.5.1.1.4.2.7.2z" fill="#919191"/></g><path d="M312 31.8c.4.3.4.7 0 1s-1.2.3-1.6 0-.4-.7 0-1c.5-.3 1.2-.3 1.6 0zM280.7 43.2c-.1 0-.1-.1-.1-.1 1.1-5.3 1.1-23.7 1.1-23.9 0-.1 0-.1.1-.1s.1 0 .1.1c0 .2 0 18.6-1.2 24 .1 0 0 0 0 0z" fill="#fff"/><path d="M286.4 28.3v7.2c0 .3-.2.5-.5.7-.6.4-1.6.4-2.3 0-.3-.2-.5-.5-.5-.7v-7.2c0 .3.2.5.5.7.6.4 1.6.4 2.3 0 .3-.2.5-.5.5-.7z" fill="#22313f"/><defs><path id="i" d="M286.4 28.3v7.2c0 .3-.2.5-.5.7-.6.4-1.6.4-2.3 0-.3-.2-.5-.5-.5-.7v-7.2c0 .3.2.5.5.7.6.4 1.6.4 2.3 0 .3-.2.5-.5.5-.7z"/></defs><clipPath id="j"><use xlink:href="#i" overflow="visible"/></clipPath><g clip-path="url(#j)"><path d="M286.4 28.3v7.2c0 .2-.1.4-.3.6v-7.2c.2-.2.3-.4.3-.6z" fill="#22313f"/><path d="M286.1 28.9v7.2l-.1.1c-.2.1-.4.2-.6.2v-7.2c.2 0 .4-.1.6-.2 0-.1 0-.1.1-.1z" fill="#10334b"/><path d="M285.3 29.2v7.2c-.2 0-.5.1-.7 0v-7.2c.2.1.5.1.7 0z" fill="#1a4b6c"/><path d="M284.6 29.3v7.2c-.3 0-.6-.1-.9-.2v-7.2c.3.1.6.1.9.2z" fill="#10334b"/><path d="M283.8 29v7.2s-.1 0-.1-.1c-.3-.2-.5-.5-.5-.7v-7.2c0 .3.2.5.5.7 0 .1 0 .1.1.1z" fill="#22313f"/></g><path d="M285.9 27.6c.6.4.6 1 0 1.4s-1.6.4-2.3 0c-.6-.4-.6-1 0-1.4.7-.4 1.7-.4 2.3 0z" fill="#a1a1a1"/><defs><path id="k" d="M296.8 34.8V42c0 .3-.2.5-.5.7-.6.4-1.6.4-2.3 0-.3-.2-.5-.5-.5-.7v-7.2c0 .3.2.5.5.7.6.4 1.6.4 2.3 0 .4-.2.5-.4.5-.7z"/></defs><clipPath id="l"><use xlink:href="#k" overflow="visible"/></clipPath><g clip-path="url(#l)"><path d="M296.8 34.8V42c0 .2-.1.4-.3.6v-7.2c.2-.1.3-.4.3-.6z" fill="#22313f"/><path d="M296.5 35.4v7.2l-.1.1c-.2.1-.4.2-.6.2v-7.2c.2 0 .4-.1.6-.2l.1-.1z" fill="#10334b"/><path d="M295.7 35.8V43c-.2 0-.5.1-.7 0v-7.2h.7z" fill="#1a4b6c"/><path d="M295 35.8V43c-.3 0-.6-.1-.9-.2v-7.2c.3.1.6.2.9.2z" fill="#10334b"/><path d="M294.2 35.6v7.2s-.1 0-.1-.1c-.3-.2-.5-.5-.5-.7v-7.2c0 .3.2.5.5.7 0 .1.1.1.1.1z" fill="#22313f"/></g><path d="M296.3 34.1c.6.4.6 1 0 1.4-.6.4-1.6.4-2.3 0-.6-.4-.6-1 0-1.4.7-.4 1.7-.4 2.3 0z" fill="#a1a1a1"/><path d="M295.4 36.9l2.8-1.7v-2.5l-2.8 1.8v2.4z" fill="#9e9e9e"/><path d="M295.4 34.5l2.8-1.8-12.9-7.8-2.8 1.7 12.9 7.9z" fill="#fafbfd"/><path d="M282.5 26.6V29l12.9 7.9v-2.4l-12.9-7.9z" fill="#c2c2c2"/><path d="M289.9 28.4c-5.6-2.7-7.9-9.3-8-9.4 0-.1 0-.1.1-.1s.1 0 .1.1 2.3 6.6 7.8 9.2c.1 0 .2.1 0 .2.1 0 .1 0 0 0z" fill="#bfbfbf"/><path d="M256 39.1c-8.3 5.2-9.5 16.4-7.9 17.4s19.8.3 28.1-4.9l3.8-2.3-20.2-12.5-3.8 2.3z" fill="#5c5a63"/><path d="M251.7 55.8c-1.8 0-2.8-.1-3.1-.2-.1-.4-.3-1.8.2-4.1.3-1.5 1-3.7 2.4-6.1 1.4-2.3 3.2-4.1 5.3-5.4l4.3-2.6L279 48.7l-3.2 2c-6.1 3.7-18 5.1-24.1 5.1z" fill="#fafbfd"/><path d="M251 52.4c.3-1.5 1-3.7 2.4-6.1 1.4-2.3 3.2-4.1 5.3-5.4l3.9-2.4-1.8-1.1-4.3 2.6c-2.1 1.3-3.9 3.1-5.3 5.4-1.4 2.3-2.1 4.6-2.4 6.1-.5 2.3-.3 3.7-.2 4.1.3.1.9.2 2.1.2-.1-.7 0-1.8.3-3.4z" fill="#d9d9d9"/><path d="M251.6 49.3v5.8-5.8z" fill="#949494"/><path d="M251.6 49.4v5.7s0 .1-.1.1-.2.1-.3.1v-5.7c.2-.1.3-.1.4-.2z" fill="#b3b3b3"/><path d="M251.3 49.5v5.7c-.1 0-.2 0-.2-.1-.1 0-.1-.1-.1-.2v-5.7c0 .1 0 .1.1.2 0 .1.1.1.2.1z" fill="#dcdcdc"/><path d="M251.5 49.2c.1.1.1.2 0 .3s-.4.1-.5 0-.1-.2 0-.3c.2-.1.4-.1.5 0z" fill="#ccc"/><defs><path id="m" d="M252.3 49.1v.1c0 .2-.1.3-.3.4-.4.2-1 .2-1.4 0-.2-.1-.3-.3-.3-.4v-.1c0 .2.1.3.3.4.4.2 1 .2 1.4 0 .2-.1.3-.2.3-.4z"/></defs><clipPath id="n"><use xlink:href="#m" overflow="visible"/></clipPath><g clip-path="url(#n)"><path d="M252.3 49.1v.1c0 .2-.1.3-.3.4-.4.2-1 .2-1.4 0-.2-.1-.3-.3-.3-.4v-.1c0 .2.1.3.3.4.4.2 1 .2 1.4 0 .2-.1.3-.2.3-.4z" fill="#c3c3c3"/></g><path d="M252 48.7c.4.2.4.6 0 .9-.4.2-1 .2-1.4 0s-.4-.6 0-.9c.4-.3 1-.3 1.4 0z" fill="#fff"/><g><path d="M251.5 46.8l.1 2.3-.1-2.3z" fill="#949494"/><path d="M251.5 46.8l.1 2.3s0 .1-.1.1-.1.1-.2.1v-2.4s.1 0 .2-.1c-.1.1 0 .1 0 0z" fill="#c3c3c3"/><path d="M251.3 46.9v2.4c-.1 0-.2 0-.2-.1-.1 0-.1-.1-.1-.1l.1-2.3s0 .1.2.1z" fill="#dcdcdc"/><path d="M251.4 46.7c.1 0 .1.1 0 .2h-.3c-.1 0-.1-.1 0-.2h.3z" fill="#fff"/></g><g><path d="M270 44.3v6l-5.6 3.4v-5.9l5.6-3.5z" fill="#c2c2c2"/><path d="M264.4 47.8v5.9l-9.5-5.8v-6l9.5 5.9z" fill="#dcdcdc"/><path d="M270 44.3l-5.6 3.5-9.5-5.9 5.6-3.5 9.5 5.9z" fill="#fff"/></g><path d="M257.9 44.5l-2-1.2v2.5l2 1.3v-2.6zm2.5 1.6l-2-1.2v2.5l2 1.2v-2.5zm2.5 1.6l-1.9-1.2V49l1.9 1.2v-2.5z" fill="#1a4b6c"/><g><path d="M267.9 36.1v8l-3.7 2.3v-8l3.7-2.3z" fill="#c2c2c2"/><path d="M264.2 38.4v8l-6.3-3.9v-8l6.3 3.9z" fill="#dcdcdc"/><path d="M267.9 36.1l-3.7 2.3-6.3-3.9 3.7-2.3 6.3 3.9z" fill="#fff"/></g><path d="M259.9 36.3l-1.3-.8v1.6l1.3.8v-1.6zm1.6 1l-1.3-.8v1.6l1.3.8v-1.6zm1.7 1l-1.3-.8v1.7l1.3.8v-1.7z" fill="#1a4b6c"/><g><path d="M316.5 24.8l6.6-4.1V24l-6.6 4.1v-3.3z" fill="#c2c2c2"/><path d="M304.2 17.2l6.7-4.1 12.2 7.6-6.6 4.1-12.3-7.6z" fill="#f2f3f5"/><path d="M316.5 24.8v3.3l-12.3-7.6v-3.3l12.3 7.6z" fill="#dcdcdc"/><path d="M309 20.8V22l-4.5-2.8V18l4.5 2.8zm6.9 4V26l-4.5-2.7.1-1.2 4.4 2.7zm1.9-.3v1.2l4.5-2.7-.1-1.2-4.4 2.7z" fill="#1a4b6c"/></g><path d="M280 64.3l-22 2.2 2.6 2.5 19.4-1.4v-3.3z" fill="#c24d00"/><path d="M326.9 35.3l-46.9 29v3.3l46.4-28.7.5-3.6z" fill="#a84300"/><g><path d="M315.6 19.3l-4.2-2.6 2.3-1.4 4.1 2.6-2.2 1.4z" fill="#fff"/><path d="M315.6 21l-4.2-2.6v-1.7l4.2 2.6V21z" fill="#c7c7c7"/></g><path d="M315.6 19.3V21l2.2-1.4v-1.7l-2.2 1.4z" fill="#9c9c9c"/><g><path d="M321.1 13.5v7.6-7.6c0 .1 0 0 0 0z" fill="#949494"/><path d="M321.1 13.6v7.5l-.1.1c-.1.1-.2.1-.3.1v-7.5c.1 0 .2 0 .3-.1l.1-.1z" fill="#b3b3b3"/><path d="M320.6 13.8v7.5c-.1 0-.2 0-.3-.1-.1-.1-.1-.1-.1-.2v-7.5c0 .1 0 .1.1.2s.2.1.3.1z" fill="#dcdcdc"/><path d="M321 13.3c.2.1.2.3 0 .4-.2.1-.5.1-.6 0-.2-.1-.2-.3 0-.4.1-.1.4-.1.6 0z" fill="#ccc"/></g><g><defs><path id="o" d="M321.9 13.2v.1c0 .2-.1.4-.4.6-.5.3-1.3.3-1.8 0-.3-.2-.4-.4-.4-.6v-.1c0 .2.1.4.4.6.5.3 1.3.3 1.8 0 .3-.1.4-.3.4-.6z"/></defs><clipPath id="p"><use xlink:href="#o" overflow="visible"/></clipPath><g clip-path="url(#p)"><path d="M321.9 13.2v.1c0 .2-.1.4-.4.6-.5.3-1.3.3-1.8 0-.3-.2-.4-.4-.4-.6v-.1c0 .2.1.4.4.6.5.3 1.3.3 1.8 0 .3-.1.4-.3.4-.6z" fill="#c3c3c3"/></g><path d="M321.6 12.7c.5.3.5.8 0 1.1s-1.3.3-1.8 0-.5-.8 0-1.1c.4-.3 1.2-.3 1.8 0z" fill="#fff"/></g><g><path d="M320.9 10.3l.2 3v.1l-.2-3.1z" fill="#949494"/><path d="M320.9 10.3l.1 3-.1.1c-.1.1-.2.1-.3.1v-3.1c.1 0 .2 0 .3-.1-.1 0 0 0 0 0z" fill="#c3c3c3"/><path d="M320.6 10.4v3.1c-.1 0-.2 0-.3-.1-.1 0-.1-.1-.1-.2l.2-3s0 .1.1.1c0 .1.1.1.1.1z" fill="#dcdcdc"/><path d="M320.8 10.2c.1.1.1.2 0 .2-.1.1-.2.1-.3 0s-.1-.2 0-.2c.1-.1.2-.1.3 0z" fill="#fff"/></g><g><path d="M299.9 27.2l5-3.1.5 6.1-5 3-.5-6z" fill="#c2c2c2"/><path d="M296.3 24.9l5-3 3.6 2.2-5 3.1-3.6-2.3z" fill="#fafbfd"/><path d="M299.9 27.2l.5 6-5-3 .9-5.3 3.6 2.3z" fill="#dcdcdc"/><path d="M298.2 24.4v.3c0 .4.2.7.7 1 .9.6 2.3.6 3.2 0 .5-.3.7-.6.7-1v-.3c0 .4-.2.7-.7 1-.9.6-2.3.6-3.2 0-.5-.3-.7-.6-.7-1z" fill="#c2c2c2"/><path d="M298.9 23.4c-.9.6-.9 1.4 0 2s2.3.6 3.2 0c.9-.6.9-1.4 0-2-.9-.6-2.3-.6-3.2 0z" fill="#fafbfd"/><g><path d="M299.6 17v7.4c0 .1.1.3.3.4.3.2.9.2 1.3 0 .2-.1.3-.2.3-.4V17c0 .1-.1.3-.3.4-.3.2-.9.2-1.3 0-.2-.2-.3-.3-.3-.4z" fill="#22313f"/><path d="M299.9 16.6c-.3.2-.3.6 0 .8s.9.2 1.3 0c.3-.2.3-.6 0-.8-.4-.2-1-.2-1.3 0z" fill="#444544"/></g><g><path d="M305.3 20.6v2c0 .1 0 .1.1.2s.4.1.5 0c.1 0 .1-.1.1-.2v-2c0 .1 0 .1-.1.2s-.4.1-.5 0c-.1-.1-.1-.2-.1-.2z" fill="#22313f"/><path d="M305.4 20.4c-.1.1-.1.2 0 .3s.4.1.5 0 .1-.2 0-.3-.4-.1-.5 0z" fill="#444544"/></g><g><path d="M305.1 21.7l1.3-.8v-1.1l-1.3.8v1.1z" fill="#9e9e9e"/><path d="M305.1 20.6l1.3-.8-6.1-3.8-1.3.9 6.1 3.7z" fill="#fafbfd"/><path d="M299 16.9V18l6.1 3.7v-1.1l-6.1-3.7z" fill="#c2c2c2"/></g></g><g><path d="M266.9 45l-.1-.1v-.8l.1.1v.8zm0-1.1l-.1-.1v-1h.1v1.1z" fill="#121a22"/><path d="M266 44.5l-.2-.1 1-.6.1.1-.9.6z" fill="#17212a"/><path d="M266.9 42.6l-.1-.1v-1h.1v1.1z" fill="#121a22"/><path d="M266 43.2l-.2-.1 1-.6.1.1-.9.6z" fill="#17212a"/><path d="M266.9 41.3l-.1-.1v-1.1l.1.1v1.1z" fill="#121a22"/><path d="M266 41.9l-.2-.1 1-.6.1.1-.9.6z" fill="#17212a"/><path d="M266.9 40l-.1-.1v-1.1l.1.1V40z" fill="#121a22"/><path d="M266 40.6l-.2-.1 1-.6.1.1-.9.6z" fill="#17212a"/><path d="M266.9 38.7l-.1-.1v-1.1l.1.1v1.1z" fill="#121a22"/><path d="M265.9 39.3l-.1-.1 1-.6.1.1-1 .6z" fill="#17212a"/><path d="M266.9 37.4l-.1-.1v-.9l.1.1v.9z" fill="#121a22"/><path d="M266.9 36.5l-.1-.1.2-.1.1.1-.2.1zm-1 1.5l-.1-.1 1-.6.1.1-1 .6zm-.2-.7l-.1-.1.2-.2.1.1-.2.2z" fill="#17212a"/><path d="M266.9 36.5l.2-.1v8.4l-.2.1v-.8l-1 .6v.8l-.2.1v-8.4l.2-.1v.8l1-.6v-.8zm0 6.1v-1l-1 .6v1l1-.6zm0-2.6v-1l-1 .6v1l1-.6zm0 1.3v-1l-1 .6v1l1-.6zm0-2.6v-1l-1 .6v1l1-.6zm0 5.2v-1l-1 .6v1l1-.6z" fill="#202e3c"/><path d="M265.7 45.7l-.1-.1v-8.4l.1.1v8.4z" fill="#121a22"/></g><g><path d="M268.5 51.5l-.1-.1v-.9l.1.1v.9zm0-1.2l-.1-.1v-1.1l.1.1v1.1z" fill="#121a22"/><path d="M267.5 50.9h-.2l1.1-.7.1.1-1 .6z" fill="#17212a"/><path d="M268.5 48.9l-.1-.1v-1.1l.1.1v1.1z" fill="#121a22"/><path d="M267.5 49.6l-.2-.1 1.1-.7.1.1-1 .7z" fill="#17212a"/><path d="M268.5 47.6l-.1-.1v-1.1l.1.1v1.1z" fill="#121a22"/><path d="M267.5 48.2l-.2-.1 1.1-.6.1.1-1 .6z" fill="#17212a"/><path d="M268.5 46.2l-.1-.1v-.9l.1.1v.9z" fill="#121a22"/><path d="M268.5 45.3l-.1-.1.2-.1.1.1-.2.1zm-1 1.5l-.2-.1 1.1-.6.1.1-1 .6z" fill="#17212a"/><path d="M267.3 52.2l-.2-.1V46l.2.1v6.1z" fill="#121a22"/><path d="M268.5 45.3l.2-.1v6.1l-.2.1v-.9l-1 .6v.9l-.2.1V46l.2-.1v.9l1-.6v-.9zm0 2.3v-1.1l-1 .6v1.1l1-.6zm0 2.7v-1.1l-1 .6v1.1l1-.6zm0-1.4v-1.1l-1 .6v1.1l1-.6z" fill="#202e3c"/><path d="M267.3 46.1l-.2-.1.2-.1.2.1-.2.1z" fill="#17212a"/></g><g><path d="M260.6 34.6l2.3-1.4-1.2-.8-2.3 1.4 1.2.8z" fill="#fff"/><path d="M260.6 35.6l2.3-1.5v-.9l-2.3 1.4v1z" fill="#c7c7c7"/><path d="M260.6 34.6v1l-1.2-.8v-1l1.2.8z" fill="#9c9c9c"/></g><g><path d="M317.1 12.4l.1-.1v.3l-.1.1v-.3z" fill="#747474"/><path d="M312.7 9.7l.2-.1 4.3 2.7-.1.1-4.4-2.7z" fill="#fff"/><path d="M317.1 12.4v.3l-4.4-2.7v-.3l4.4 2.7z" fill="#c7c7c7"/><path d="M317.8 14.6l.2-.1V16l-.2.1v-1.5z" fill="#747474"/><path d="M312 11l.2-.1 5.8 3.6-.2.1L312 11z" fill="#fff"/><path d="M317.8 14.6v1.5l-5.8-3.6V11l5.8 3.6z" fill="#c7c7c7"/><path d="M317.5 14.7v1l-5.3-3.2v-1.1l5.3 3.3z" fill="#1a4b6c"/><g><path d="M316.4 10.3l.1-.1v.2l-.1.1v-.2z" fill="#747474"/><path d="M313.4 8.4l.2-.1 2.9 1.9-.1.1-3-1.9z" fill="#fff"/><path d="M316.4 10.3v.2l-3-1.8v-.3l3 1.9z" fill="#c7c7c7"/></g><g><path d="M315.8 8h.1v.2l-.1.1V8z" fill="#747474"/><path d="M314 7l.2-.1 1.7 1.1h-.1L314 7z" fill="#fff"/><path d="M315.8 8v.3L314 7.2V7l1.8 1z" fill="#c7c7c7"/></g><g><path d="M314.9 17.4l.1-.1.1-11.3-.2.1v11.3z" fill="#747474"/><path d="M314.9 6.1l.2-.1-.3-.2-.2.1.3.2z" fill="#d9d9d9"/><path d="M314.6 5.9v11.4l.3.1V6.1l-.3-.2z" fill="#c7c7c7"/></g><g><path d="M315.2 4.7l.2-.1v2l-.2.1v-2z" fill="#b0b0b0"/><path d="M314.3 4.1l.1-.1 1 .6-.2.1-.9-.6z" fill="#a1a1a1"/><path d="M315.2 4.7v2l-.9-.6v-2l.9.6z" fill="#c7c7c7"/><path d="M315.1 4.9v1.5l-.7-.5V4.4l.7.5z" fill="#1a4b6c"/></g></g><g><defs><path id="q" d="M274.4 38.6v1.5c0 .2-.1.4-.3.5-.4.3-1.2.3-1.6 0-.2-.1-.3-.3-.3-.5v-1.5c0 .2.1.4.3.5.4.3 1.2.3 1.6 0 .2-.1.3-.3.3-.5z"/></defs><clipPath id="r"><use xlink:href="#q" overflow="visible"/></clipPath><g clip-path="url(#r)"><path d="M274.4 38.6v1.5c0 .1-.1.3-.2.4V39c.1-.1.2-.3.2-.4z" fill="#919191"/><path d="M274.2 39v1.5l-.1.1c-.2.1-.5.2-.9.2v-1.5c.3 0 .6-.1.9-.2 0 0 0-.1.1-.1z" fill="#b5b5b5"/><path d="M273.2 39.3v1.5c-.3 0-.5-.1-.7-.2-.2-.1-.3-.3-.3-.5v-1.5c0 .2.1.4.3.5s.4.2.7.2z" fill="#919191"/></g><path d="M274 38.1c.4.3.4.7 0 1s-1.2.3-1.6 0-.4-.7 0-1c.5-.3 1.2-.3 1.6 0z" fill="#fff"/><g><defs><path id="s" d="M278.8 36.1v1.5c0 .2-.1.4-.3.5-.4.3-1.2.3-1.6 0-.2-.1-.3-.3-.3-.5v-1.5c0 .2.1.4.3.5.4.3 1.2.3 1.6 0 .2-.2.3-.4.3-.5z"/></defs><clipPath id="t"><use xlink:href="#s" overflow="visible"/></clipPath><g clip-path="url(#t)"><path d="M278.8 36.1v1.5c0 .1-.1.3-.2.4v-1.5c.2-.2.2-.3.2-.4z" fill="#919191"/><path d="M278.6 36.5V38l-.1.1c-.2.1-.5.2-.9.2v-1.5c.3 0 .6-.1.9-.2 0-.1.1-.1.1-.1z" fill="#b5b5b5"/><path d="M277.6 36.8v1.5c-.3 0-.5-.1-.7-.2-.2-.1-.3-.3-.3-.5v-1.5c0 .2.1.4.3.5.2.1.5.2.7.2z" fill="#919191"/></g><path d="M278.5 35.6c.4.3.4.7 0 1s-1.2.3-1.6 0-.4-.7 0-1 1.1-.3 1.6 0z" fill="#fff"/></g><g><defs><path id="u" d="M287.6 47.3v1.5c0 .2-.1.4-.3.5-.4.3-1.2.3-1.6 0-.2-.1-.3-.3-.3-.5v-1.5c0 .2.1.4.3.5.4.3 1.2.3 1.6 0 .2-.1.3-.3.3-.5z"/></defs><clipPath id="v"><use xlink:href="#u" overflow="visible"/></clipPath><g clip-path="url(#v)"><path d="M287.6 47.3v1.5c0 .1-.1.3-.2.4v-1.5c.1-.1.2-.2.2-.4z" fill="#919191"/><path d="M287.4 47.7v1.5l-.1.1c-.2.1-.5.2-.9.2V48c.3 0 .6-.1.9-.2 0 0 .1 0 .1-.1z" fill="#b5b5b5"/><path d="M286.4 48v1.5c-.3 0-.5-.1-.7-.2-.2-.1-.3-.3-.3-.5v-1.5c0 .2.1.4.3.5.2.2.4.2.7.2z" fill="#919191"/></g><path d="M287.3 46.9c.4.3.4.7 0 1-.4.3-1.2.3-1.6 0-.4-.3-.4-.7 0-1 .4-.3 1.1-.3 1.6 0z" fill="#fff"/></g><g><defs><path id="w" d="M292.1 44.8v1.5c0 .2-.1.4-.3.5-.4.3-1.2.3-1.6 0-.2-.1-.3-.3-.3-.5v-1.5c0 .2.1.4.3.5.4.3 1.2.3 1.6 0 .1-.1.3-.3.3-.5z"/></defs><clipPath id="x"><use xlink:href="#w" overflow="visible"/></clipPath><g clip-path="url(#x)"><path d="M292.1 44.8v1.5c0 .1-.1.3-.2.4v-1.5c.1-.1.2-.2.2-.4z" fill="#919191"/><path d="M291.9 45.2v1.5l-.1.1c-.2.1-.5.2-.9.2v-1.5c.3 0 .6-.1.9-.2 0 0 0-.1.1-.1z" fill="#b5b5b5"/><path d="M290.9 45.5V47c-.3 0-.5-.1-.7-.2-.2-.1-.3-.3-.3-.5v-1.5c0 .2.1.4.3.5.1.1.4.2.7.2z" fill="#919191"/></g><path d="M291.7 44.3c.4.3.4.7 0 1-.4.3-1.2.3-1.6 0-.4-.3-.4-.7 0-1 .5-.3 1.2-.3 1.6 0z" fill="#fff"/></g></g><g><path d="M282.2 18.7l-5.3 15.2-1.2 3.4-2 5.6-.7 2.1.7-2.1 1.9-5.6 1.2-3.4 5.2-15.1c.1.1.1 0 .2-.1 0 .1 0 .1 0 0 0 .1 0 .1 0 0 0 .1 0 .1 0 0z" fill="#949494"/><path d="M282.1 18.9L276.9 34l-1.2 3.4-1.9 5.6-.7 2.1-.8-.5.7-2.1 1.5-4.4 1.2-3.4 5.5-15.7h.6c.1 0 .2 0 .3-.1-.1 0 0 0 0 0z" fill="#b3b3b3"/><path d="M281.2 18.9l-5.5 15.7-1.2 3.4-1.5 4.4-.7 2.1-.2-.1-.6-.3.6-1.6v-.1l.1-.3 1.1-3.2 1.2-3.5 6-17.3v.1c0 .1.1.2.1.3l.1.1h.1c.2.2.3.3.4.3z" fill="#dcdcdc"/><path d="M271.1 34.9c-.1 0-.1 0-.1-.1s0-.1.1-.1c1.6-.1 4.8-4.7 6.1-6.5.5-.7.5-.7.6-.7s.1 0 .1.1v.1s-.2.3-.5.7c-2.2 2.9-4.8 6.4-6.3 6.5.1 0 0 0 0 0z" fill="#fff"/><path d="M282.1 18.3c.3.3.1.6-.2.7-.4.1-.9-.1-1.2-.5-.3-.3-.1-.6.2-.7.4 0 .9.2 1.2.5z" fill="#ccc"/></g><g><path d="M272.2 26.6v17.9-17.9z" fill="#949494"/><path d="M272.1 26.7v17.7l-.6-.3-.6-.4V27.3c.3 0 .6-.1.8-.2h.1s.1 0 .1-.1c.2-.1.2-.2.2-.3 0 .1 0 .1 0 0 0 .1 0 .1 0 0 0 .1 0 0 0 0z" fill="#b3b3b3"/><path d="M271 27.3v16.4l-1.2-.7V26.6c0 .1 0 .2.1.2 0 0 0 .1.1.1l.1.1s.1 0 .1.1c0 0 .1 0 .1.1.1 0 .1.1.2.1h.5c-.1 0-.1 0 0 0z" fill="#dcdcdc"/><path d="M271.8 26c.5.3.5.8 0 1-.5.3-1.2.3-1.7 0s-.5-.8 0-1c.5-.3 1.3-.3 1.7 0z" fill="#fafbfd"/></g><path d="M265.1 34.5s-.1 0 0 0c-.1-.1-.1-.2-.1-.2 2.6-2.1 4.8-7.1 4.9-7.2 0-.1.1-.1.1-.1.1 0 .1.1 0 .1.1.2-2.2 5.2-4.9 7.4z" fill="#fff"/><path d="M265.7 34.9c-.2 0-.4 0-.7-.1-.1 0-.1-.1-.1-.1 0-.1.1-.1.1-.1.9.2 1.7 0 2.5-.6 2.1-1.6 2.8-5.8 2.8-5.8 0-.1.1-.1.1-.1.1 0 .1.1.1.1 0 .2-.7 4.3-2.9 6-.5.5-1.2.7-1.9.7z" fill="#fff"/><path d="M281 42.9c-.2-.2-.6-.2-.9 0-.2.2-.2.4 0 .6.2.2.6.2.9 0s.3-.5 0-.6zm9.4-14.8c-.2-.2-.6-.2-.9 0-.2.2-.2.4 0 .6.2.2.6.2.9 0 .2-.2.2-.5 0-.6z" fill="#1a4b6c"/><path d="M270.7 28.4c0-.1-.1-.3-.2-.3-.1-.1-.2 0-.2.1s.1.3.2.3.2 0 .2-.1zm-.5-1.1c0-.1-.1-.3-.2-.3-.1-.1-.2 0-.2.1s.1.3.2.3c.1.1.2 0 .2-.1z" fill="#fff"/><g><path d="M271.3 20.9v5.8-5.8z" fill="#949494"/><path d="M271.3 20.9v5.7s0 .1-.1.1-.2.1-.3.1v-5.7c.2 0 .3 0 .4-.2 0 .1 0 .1 0 0z" fill="#b3b3b3"/><path d="M271 21.1v5.7c-.1 0-.2 0-.2-.1-.1 0-.1-.1-.1-.2v-5.7c0 .1 0 .1.1.2 0 .1.1.1.2.1z" fill="#dcdcdc"/><path d="M271.2 20.7c.1.1.1.2 0 .3-.1.1-.4.1-.5 0-.1-.1-.1-.2 0-.3.2-.1.4-.1.5 0z" fill="#ccc"/><g><defs><path id="y" d="M272 20.7v.1c0 .2-.1.3-.3.4-.4.2-1 .2-1.4 0-.2-.1-.3-.3-.3-.4v-.1c0 .2.1.3.3.4.4.2 1 .2 1.4 0 .2-.1.3-.3.3-.4z"/></defs><clipPath id="z"><use xlink:href="#y" overflow="visible"/></clipPath><g clip-path="url(#z)"><path d="M272 20.7v.1c0 .2-.1.3-.3.4-.4.2-1 .2-1.4 0-.2-.1-.3-.3-.3-.4v-.1c0 .2.1.3.3.4.4.2 1 .2 1.4 0 .2-.1.3-.3.3-.4z" fill="#c3c3c3"/></g><path d="M271.7 20.2c.4.2.4.6 0 .9-.4.2-1 .2-1.4 0-.4-.2-.4-.6 0-.9.4-.2 1-.2 1.4 0z" fill="#fff"/></g><g><path d="M271.2 18.4l.1 2.3-.1-2.3z" fill="#949494"/><path d="M271.2 18.4l.1 2.3s0 .1-.1.1-.1.1-.2.1v-2.4s.1 0 .2-.1z" fill="#c3c3c3"/><path d="M271 18.5v2.4c-.1 0-.2 0-.2-.1-.1 0-.1-.1-.1-.1l.1-2.3s0 .1.2.1z" fill="#dcdcdc"/><path d="M271.1 18.3c.1 0 .1.1 0 .2h-.3c-.1 0-.1-.1 0-.2s.3-.1.3 0z" fill="#fff"/></g></g></svg>