<svg xmlns="http://www.w3.org/2000/svg" xmlns:xlink="http://www.w3.org/1999/xlink" viewBox="0 0 110 90"><path fill="#3974B0" d="M86.4 37.7l-4.5 3.8L40 67.6l-19.7 1.3 10 9.1 1.8 6.2v.1c.5.8 7.1 1.2 13.1-2.4l1.4-.9 2 .3 2.8-1.7.1-2 5.8-1.7.5.1c.1 0 .3 0 .5-.1.1-.1.2-.2.3-.2l2.6.5c0 .1-.1.1-.1.2s0 .2.1.2h.1c.1 0 .2 0 .4-.1.1-.1.2-.1.3-.2l1 .1h.1c.1 0 .1-.1.1-.1l-.9-.2c0-.1.1-.2.1-.2 0-.1-.1-.2-.2-.2h-.1c-.1 0-.2 0-.4.1-.1 0-.2.1-.2.2l-2.6-.5s0-.1.1-.1l2.2-1.3v-.4l-.4-.1-2.3 1.4-3.8-.7 4.9-2 7.3-.8c.1 0 .2-.1.3-.2.2-.2.3-.5.2-.6 0-.1-.1-.1-.2-.1H67l-1.6-3.7.6-.4 22-14.2v.4l.7.1 1-.6.1-.9 3.7-2.2c.8-.5 1.6-1.2 2.1-2 .3-.5.5-1 .6-1.4v-.6h.3l-.1 1.5.9.2.1-.1.1-1.4.7.1-.1 1.1h.2l.1-.1.1-1 .7.1v.7h.2l.1-.1v-.6l.8.1v.3h.2l.1-.1v-.3l.5.1v.2l1.2.2.1-.1v-.6l-1.2-.2-.1.1v.1l-.5-.1v-.5h-.2l-.1.1v.4l-.8-.1.1-.9h-.2l-.1.1-.1.8-.7-.1.1-1.3h-.2l-.1.1-.1 1.2-.7-.1.1-1.7-.9-.2-.1.1-.1 1.6h-.3l.2-3 2.2.4c0 .1-.1.2-.1.3s.1.2.2.3h.1c.1 0 .3 0 .5-.1l.3-.3 1.3.2h.1c.1 0 .1-.1.1-.2l-1.2-.3c.1-.1.1-.2.1-.3 0-.2-.1-.2-.2-.3h-.1c-.1 0-.3 0-.5.1-.1.1-.2.1-.3.2l-2.5-.4.2-3.4c0-.7-.3-1-1-1l-9.2.8zM62.9 76.2c-.1 0-.1 0 0 0zm-2.6-6.5l5.8.8-8.6.9 1.1-.7 1.7-1zM58.1 75l-.2.2.2-.2zm-2.8.6c-1.3.2-3 .6-3.8 1.6l.1-1.2-1.2-.2 1.4-.8 3.5.6zm45.8-33.5c-.1 0-.1 0 0 0-.1 0-.1 0 0 0zm-1.3-.9s-.1 0 0 0c-.1 0 0 0 0 0zm-.2 0s0 .1 0 0c0 .1 0 0 0 0zm.1 0c-.1 0-.1 0 0 0zm-.4.2c.1-.1.1-.1 0 0 .1-.1.1-.1 0 0zm.1-.1s.1 0 0 0zm1.6.8c-.1.1-.1.1 0 0zm-2.3.5s.1 0 0 0zm-.1-.1s.1 0 0 0zM66.9 70.4l-.7.1c-.9-.2-3.2-.5-5.6-.9l.8-.5v.1l1.4.2 2.1-1.3v-.3c.5 1.6 1.8 2.5 2 2.6zm.2 0c-.1 0-.1 0 0 0zM54.2 74l-.7-.1 2.2-1.3 3.5-.4c-1.4.4-3.7 1.1-5 1.8zm7.4 1.6c.1 0 .1-.1 0 0zm1.2.7s0-.1 0 0zm-11.4 1.3l4.9-1.9.9.2c-1 .2-3.9.8-5.8 1.7z"/><path fill="#9E9E9E" d="M31.9 27.2l-.8-.4v-.6l.8.4v.6z"/><path fill="#FAFBFD" d="M31.9 26.6l-.8-.4 3.4-2.1.7.5-3.3 2z"/><path fill="#C2C2C2" d="M35.2 24.6v.6l-3.3 2v-.6l3.3-2z"/><path fill="#36343A" d="M86.4 38.9L40 67.6 20.6 69 7.9 56.3l32.1-7 48.4-25-2 14.6z"/><path fill="#5C5A63" d="M87 22.2l-13.4-8.3c-1.9-1.2-4.9-1.2-6.8 0l-18 11.4-9.8 6.1L25 40l15 9.3v6.4l19.2-11.8 16.9-10.7L87 26.4c1.9-1.1 1.9-3 0-4.2z"/><path fill="#E8E9EB" d="M40 49.3l-14-8.6 23.2-14.4 18-11.4c.7-.5 1.8-.7 2.9-.7s2.2.3 2.9.7l13.4 8.3c.6.4.9.8.9 1.2s-.3.8-.9 1.2l-10.9 6.8L58.7 43 40 54.5v-5.2z"/><path fill="#D9D9D9" d="M72.3 14.5c-.3.1-.7.3-.9.4l-18 11.4-17.7 11-1.2.7-1.2.7-1.2.8-1.2.7-.7.4.7.4 1.2.7.1.1.8.5.8.5 12.4 7.7-6.2 3.8v-5.2l-6.9-4.3-.8-.5-.2-.1-.6-.3-.6-.4-1.2-.7-3.7-2.3 3.8-2.3 1.2-.7 1.2-.7 2.4-1.5 1.2-.7 1.2-.7 12.3-7.6 18-11.4c.7-.5 1.8-.7 2.9-.7.7-.1 1.5.1 2.1.3z"/><defs><path id="a" d="M54.7 26.1v1.5c0 .2-.1.4-.3.5-.4.3-1.2.3-1.6 0-.2-.1-.3-.3-.3-.5v-1.5c0 .2.1.4.3.5.4.3 1.2.3 1.6 0 .2-.2.3-.3.3-.5z"/></defs><clipPath id="b"><use xlink:href="#a" overflow="visible"/></clipPath><g clip-path="url(#b)"><path fill="#919191" d="M54.7 26.1v1.5c0 .1-.1.3-.2.4v-1.5c.1-.1.2-.3.2-.4z"/><path fill="#B5B5B5" d="M54.5 26.5V28l-.1.1c-.2.1-.5.2-.9.2v-1.5c.3 0 .6-.1.9-.2 0 0 0-.1.1-.1z"/><path fill="#919191" d="M53.5 26.8v1.5c-.3 0-.5-.1-.7-.2s-.3-.3-.3-.5v-1.5c0 .2.1.4.3.5.2.1.4.2.7.2z"/></g><path fill="#FFF" d="M54.3 25.6c.4.3.4.7 0 1s-1.2.3-1.6 0-.4-.7 0-1c.5-.3 1.2-.3 1.6 0z"/><defs><path id="c" d="M59.1 23.6v1.5c0 .2-.1.4-.3.5-.4.3-1.2.3-1.6 0-.2-.1-.3-.3-.3-.5v-1.5c0 .2.1.4.3.5.4.3 1.2.3 1.6 0 .2-.2.3-.4.3-.5z"/></defs><clipPath id="d"><use xlink:href="#c" overflow="visible"/></clipPath><g clip-path="url(#d)"><path fill="#919191" d="M59.1 23.6v1.5c0 .1-.1.3-.2.4V24c.2-.2.2-.3.2-.4z"/><path fill="#B5B5B5" d="M58.9 24v1.5l-.1.1c-.2.1-.5.2-.9.2v-1.5c.3 0 .6-.1.9-.2l.1-.1z"/><path fill="#919191" d="M57.9 24.3v1.5c-.3 0-.5-.1-.7-.2s-.3-.3-.3-.5v-1.5c0 .2.1.4.3.5.2.1.5.1.7.2z"/></g><path fill="#FFF" d="M58.8 23.1c.4.3.4.7 0 1s-1.2.3-1.6 0-.4-.7 0-1 1.2-.3 1.6 0z"/><defs><path id="e" d="M67.9 34.8v1.5c0 .2-.1.4-.3.5-.4.3-1.2.3-1.6 0-.2-.1-.3-.3-.3-.5v-1.5c0 .2.1.4.3.5.4.3 1.2.3 1.6 0 .2-.1.3-.3.3-.5z"/></defs><clipPath id="f"><use xlink:href="#e" overflow="visible"/></clipPath><g clip-path="url(#f)"><path fill="#919191" d="M67.9 34.8v1.5c0 .1-.1.3-.2.4v-1.5c.1-.1.2-.2.2-.4z"/><path fill="#B5B5B5" d="M67.7 35.2v1.5l-.1.1c-.2.1-.5.2-.9.2v-1.5c.3 0 .6-.1.9-.2 0 0 .1 0 .1-.1z"/><path fill="#919191" d="M66.7 35.5V37c-.3 0-.5-.1-.7-.2-.2-.1-.3-.3-.3-.5v-1.5c0 .2.1.4.3.5.2.2.5.2.7.2z"/></g><path fill="#FFF" d="M67.6 34.3c.4.3.4.7 0 1s-1.2.3-1.6 0-.4-.7 0-1c.4-.2 1.1-.2 1.6 0z"/><defs><path id="g" d="M72.4 32.3v1.5c0 .2-.1.4-.3.5-.4.3-1.2.3-1.6 0-.2-.1-.3-.3-.3-.5v-1.5c0 .2.1.4.3.5.4.3 1.2.3 1.6 0 .2-.1.3-.3.3-.5z"/></defs><clipPath id="h"><use xlink:href="#g" overflow="visible"/></clipPath><g clip-path="url(#h)"><path fill="#919191" d="M72.4 32.3v1.5c0 .1-.1.3-.2.4v-1.5c.1-.1.2-.3.2-.4z"/><path fill="#B5B5B5" d="M72.2 32.7v1.5l-.1.1c-.2.1-.5.2-.9.2V33c.3 0 .6-.1.9-.2 0 0 0-.1.1-.1z"/><path fill="#919191" d="M71.2 33v1.5c-.3 0-.5-.1-.7-.2-.2-.1-.3-.3-.3-.5v-1.5c0 .2.1.4.3.5.1.1.4.2.7.2z"/></g><path fill="#FFF" d="M72 31.8c.4.3.4.7 0 1s-1.2.3-1.6 0-.4-.7 0-1c.5-.3 1.2-.3 1.6 0zM40.7 43.2c-.1 0-.1-.1-.1-.1 1.1-5.3 1.1-23.7 1.1-23.9 0-.1 0-.1.1-.1s.1 0 .1.1c0 .2 0 18.6-1.2 24 .1 0 0 0 0 0z"/><path fill="#22313F" d="M46.4 28.3v7.2c0 .3-.2.5-.5.7-.6.4-1.6.4-2.3 0-.3-.2-.5-.5-.5-.7v-7.2c0 .3.2.5.5.7.6.4 1.6.4 2.3 0 .3-.2.5-.5.5-.7z"/><defs><path id="i" d="M46.4 28.3v7.2c0 .3-.2.5-.5.7-.6.4-1.6.4-2.3 0-.3-.2-.5-.5-.5-.7v-7.2c0 .3.2.5.5.7.6.4 1.6.4 2.3 0 .3-.2.5-.5.5-.7z"/></defs><clipPath id="j"><use xlink:href="#i" overflow="visible"/></clipPath><g clip-path="url(#j)"><path fill="#22313F" d="M46.4 28.3v7.2c0 .2-.1.4-.3.6v-7.2c.2-.2.3-.4.3-.6z"/><path fill="#10334B" d="M46.1 28.9v7.2l-.1.1c-.2.1-.4.2-.6.2v-7.2c.2 0 .4-.1.6-.2 0-.1 0-.1.1-.1z"/><path fill="#1A4B6C" d="M45.3 29.2v7.2c-.2 0-.5.1-.7 0v-7.2c.2.1.5.1.7 0z"/><path fill="#10334B" d="M44.6 29.3v7.2c-.3 0-.6-.1-.9-.2v-7.2c.3.1.6.1.9.2z"/><path fill="#22313F" d="M43.8 29v7.2s-.1 0-.1-.1c-.3-.2-.5-.5-.5-.7v-7.2c0 .3.2.5.5.7 0 .1 0 .1.1.1z"/></g><path fill="#A1A1A1" d="M45.9 27.6c.6.4.6 1 0 1.4s-1.6.4-2.3 0c-.6-.4-.6-1 0-1.4.7-.4 1.7-.4 2.3 0z"/><defs><path id="k" d="M56.8 34.8V42c0 .3-.2.5-.5.7-.6.4-1.6.4-2.3 0-.3-.2-.5-.5-.5-.7v-7.2c0 .3.2.5.5.7.6.4 1.6.4 2.3 0 .4-.2.5-.4.5-.7z"/></defs><clipPath id="l"><use xlink:href="#k" overflow="visible"/></clipPath><g clip-path="url(#l)"><path fill="#22313F" d="M56.8 34.8V42c0 .2-.1.4-.3.6v-7.2c.2-.1.3-.4.3-.6z"/><path fill="#10334B" d="M56.5 35.4v7.2l-.1.1c-.2.1-.4.2-.6.2v-7.2c.2 0 .4-.1.6-.2l.1-.1z"/><path fill="#1A4B6C" d="M55.7 35.8V43c-.2 0-.5.1-.7 0v-7.2h.7z"/><path fill="#10334B" d="M55 35.8V43c-.3 0-.6-.1-.9-.2v-7.2c.3.1.6.2.9.2z"/><path fill="#22313F" d="M54.2 35.6v7.2s-.1 0-.1-.1c-.3-.2-.5-.5-.5-.7v-7.2c0 .3.2.5.5.7 0 .1.1.1.1.1z"/></g><path fill="#A1A1A1" d="M56.3 34.1c.6.4.6 1 0 1.4s-1.6.4-2.3 0c-.6-.4-.6-1 0-1.4.7-.4 1.7-.4 2.3 0z"/><path fill="#9E9E9E" d="M55.4 36.9l2.8-1.7v-2.5l-2.8 1.8v2.4z"/><path fill="#FAFBFD" d="M55.4 34.5l2.8-1.8-12.9-7.8-2.8 1.7 12.9 7.9z"/><path fill="#C2C2C2" d="M42.5 26.6V29l12.9 7.9v-2.4l-12.9-7.9z"/><path fill="#BFBFBF" d="M49.9 28.4c-5.6-2.7-7.9-9.3-8-9.4 0-.1 0-.1.1-.1s.1 0 .1.1 2.3 6.6 7.8 9.2c.1 0 .2.1 0 .2.1 0 .1 0 0 0z"/><path fill="#5C5A63" d="M16 39.1c-8.3 5.2-9.5 16.4-7.9 17.4s19.8.3 28.1-4.9l3.8-2.3-20.2-12.5-3.8 2.3z"/><path fill="#FAFBFD" d="M11.7 55.8c-1.8 0-2.8-.1-3.1-.2-.1-.4-.3-1.8.2-4.1.3-1.5 1-3.7 2.4-6.1 1.4-2.3 3.2-4.1 5.3-5.4l4.3-2.6L39 48.7l-3.2 2c-6.1 3.7-18 5.1-24.1 5.1z"/><path fill="#D9D9D9" d="M11 52.4c.3-1.5 1-3.7 2.4-6.1 1.4-2.3 3.2-4.1 5.3-5.4l3.9-2.4-1.8-1.1-4.3 2.6c-2.1 1.3-3.9 3.1-5.3 5.4-1.4 2.3-2.1 4.6-2.4 6.1-.5 2.3-.3 3.7-.2 4.1.3.1.9.2 2.1.2-.1-.7 0-1.8.3-3.4z"/><path fill="#949494" d="M11.6 49.3v5.8-5.8z"/><path fill="#B3B3B3" d="M11.6 49.4v5.7s0 .1-.1.1-.2.1-.3.1v-5.7c.2-.1.3-.1.4-.2z"/><path fill="#DCDCDC" d="M11.3 49.5v5.7c-.1 0-.2 0-.2-.1-.1 0-.1-.1-.1-.2v-5.7c0 .1 0 .1.1.2 0 .1.1.1.2.1z"/><path fill="#CCC" d="M11.5 49.2c.1.1.1.2 0 .3s-.4.1-.5 0-.1-.2 0-.3c.2-.1.4-.1.5 0z"/><defs><path id="m" d="M12.3 49.1c0 .3-.1.4-.3.5-.4.2-1 .2-1.4 0-.2-.1-.3-.3-.3-.4v-.1c0 .2.1.3.3.4.4.2 1 .2 1.4 0 .2-.1.3-.2.3-.4z"/></defs><clipPath id="n"><use xlink:href="#m" overflow="visible"/></clipPath><g clip-path="url(#n)"><path fill="#C3C3C3" d="M12.3 49.1c0 .3-.1.4-.3.5-.4.2-1 .2-1.4 0-.2-.1-.3-.3-.3-.4v-.1c0 .2.1.3.3.4.4.2 1 .2 1.4 0 .2-.1.3-.2.3-.4z"/></g><path fill="#FFF" d="M12 48.7c.4.2.4.6 0 .9-.4.2-1 .2-1.4 0s-.4-.6 0-.9c.4-.3 1-.3 1.4 0z"/><path fill="#949494" d="M11.5 46.8l.1 2.3-.1-2.3z"/><path fill="#C3C3C3" d="M11.5 46.8l.1 2.3s0 .1-.1.1-.1.1-.2.1v-2.4s.1 0 .2-.1c-.1.1 0 .1 0 0z"/><path fill="#DCDCDC" d="M11.3 46.9v2.4c-.1 0-.2 0-.2-.1-.1 0-.1-.1-.1-.1l.1-2.3s0 .1.2.1z"/><path fill="#FFF" d="M11.4 46.7c.1 0 .1.1 0 .2h-.3c-.1 0-.1-.1 0-.2h.3z"/><path fill="#C2C2C2" d="M30 44.3v6l-5.6 3.4v-5.9l5.6-3.5z"/><path fill="#DCDCDC" d="M24.4 47.8v5.9l-9.5-5.8v-6l9.5 5.9z"/><path fill="#FFF" d="M30 44.3l-5.6 3.5-9.5-5.9 5.6-3.5 9.5 5.9z"/><path fill="#1A4B6C" d="M17.9 44.5l-2-1.2v2.5l2 1.3v-2.6zm2.5 1.6l-2-1.2v2.5l2 1.2v-2.5zm2.5 1.6L21 46.5V49l1.9 1.2v-2.5z"/><path fill="#C2C2C2" d="M27.9 36.1v8l-3.7 2.3v-8l3.7-2.3z"/><path fill="#DCDCDC" d="M24.2 38.4v8l-6.3-3.9v-8l6.3 3.9z"/><path fill="#FFF" d="M27.9 36.1l-3.7 2.3-6.3-3.9 3.7-2.3 6.3 3.9z"/><path fill="#1A4B6C" d="M19.9 36.3l-1.3-.8v1.6l1.3.8v-1.6zm1.6 1l-1.3-.8v1.6l1.3.8v-1.6zm1.7 1l-1.3-.8v1.7l1.3.8v-1.7z"/><g><path fill="#C2C2C2" d="M76.5 24.8l6.6-4.1V24l-6.6 4.1v-3.3z"/><path fill="#F2F3F5" d="M64.2 17.2l6.7-4.1 12.2 7.6-6.6 4.1-12.3-7.6z"/><path fill="#DCDCDC" d="M76.5 24.8v3.3l-12.3-7.6v-3.3l12.3 7.6z"/><path fill="#1A4B6C" d="M69 20.8V22l-4.5-2.8V18l4.5 2.8zm6.9 4V26l-4.5-2.7.1-1.2 4.4 2.7zm1.9-.3v1.2l4.5-2.7-.1-1.2-4.4 2.7z"/></g><path fill="#C24D00" d="M40 64.3l-22 2.2 2.6 2.5L40 67.6v-3.3z"/><path fill="#A84300" d="M86.9 35.3L40 64.3v3.3l46.4-28.7.5-3.6z"/><g><path fill="#FFF" d="M75.6 19.3l-4.2-2.6 2.3-1.4 4.1 2.6-2.2 1.4z"/><path fill="#C7C7C7" d="M75.6 21l-4.2-2.6v-1.7l4.2 2.6V21z"/></g><path fill="#9C9C9C" d="M75.6 19.3V21l2.2-1.4v-1.7l-2.2 1.4z"/><g><path fill="#949494" d="M81.1 13.5v7.6-7.6c0 .1 0 0 0 0z"/><path fill="#B3B3B3" d="M81.1 13.6v7.5l-.1.1c-.1.1-.2.1-.3.1v-7.5c.1 0 .2 0 .3-.1l.1-.1z"/><path fill="#DCDCDC" d="M80.6 13.8v7.5c-.1 0-.2 0-.3-.1-.1-.1-.1-.1-.1-.2v-7.5c0 .1 0 .1.1.2s.2.1.3.1z"/><path fill="#CCC" d="M81 13.3c.2.1.2.3 0 .4-.2.1-.5.1-.6 0-.2-.1-.2-.3 0-.4.1-.1.4-.1.6 0z"/></g><g><defs><path id="o" d="M81.9 13.2v.1c0 .2-.1.4-.4.6-.5.3-1.3.3-1.8 0-.3-.2-.4-.4-.4-.6v-.1c0 .2.1.4.4.6.5.3 1.3.3 1.8 0 .3-.1.4-.3.4-.6z"/></defs><clipPath id="p"><use xlink:href="#o" overflow="visible"/></clipPath><g clip-path="url(#p)"><path fill="#C3C3C3" d="M81.9 13.2v.1c0 .2-.1.4-.4.6-.5.3-1.3.3-1.8 0-.3-.2-.4-.4-.4-.6v-.1c0 .2.1.4.4.6.5.3 1.3.3 1.8 0 .3-.1.4-.3.4-.6z"/></g><path fill="#FFF" d="M81.6 12.7c.5.3.5.8 0 1.1s-1.3.3-1.8 0-.5-.8 0-1.1c.4-.3 1.2-.3 1.8 0z"/></g><g><path fill="#949494" d="M80.9 10.3l.2 3v.1l-.2-3.1z"/><path fill="#C3C3C3" d="M80.9 10.3l.1 3-.1.1c-.1.1-.2.1-.3.1v-3.1c.1 0 .2 0 .3-.1-.1 0 0 0 0 0z"/><path fill="#DCDCDC" d="M80.6 10.4v3.1c-.1 0-.2 0-.3-.1-.1 0-.1-.1-.1-.2l.2-3s0 .1.2.2c-.1 0 0 0 0 0z"/><path fill="#FFF" d="M80.8 10.2c.1.1.1.2 0 .2-.1.1-.2.1-.3 0s-.1-.2 0-.2c.1-.1.2-.1.3 0z"/></g><g><path fill="#C2C2C2" d="M59.9 27.2l5-3.1.5 6.1-5 3-.5-6z"/><path fill="#FAFBFD" d="M56.3 24.9l5-3 3.6 2.2-5 3.1-3.6-2.3z"/><path fill="#DCDCDC" d="M59.9 27.2l.5 6-5-3 .9-5.3 3.6 2.3z"/><path fill="#C2C2C2" d="M58.2 24.4v.3c0 .4.2.7.7 1 .9.6 2.3.6 3.2 0 .5-.3.7-.6.7-1v-.3c0 .4-.2.7-.7 1-.9.6-2.3.6-3.2 0-.5-.3-.7-.6-.7-1z"/><path fill="#FAFBFD" d="M58.9 23.4c-.9.6-.9 1.4 0 2s2.3.6 3.2 0c.9-.6.9-1.4 0-2s-2.3-.6-3.2 0z"/><path fill="#22313F" d="M59.6 17v7.4c0 .1.1.3.3.4.3.2.9.2 1.3 0 .2-.1.3-.2.3-.4V17c0 .1-.1.3-.3.4-.3.2-.9.2-1.3 0-.2-.2-.3-.3-.3-.4z"/><path fill="#444544" d="M59.9 16.6c-.3.2-.3.6 0 .8s.9.2 1.3 0c.3-.2.3-.6 0-.8-.4-.2-1-.2-1.3 0z"/><path fill="#22313F" d="M65.3 20.6v2c0 .1 0 .1.1.2s.4.1.5 0c.1 0 .1-.1.1-.2v-2c0 .1 0 .1-.1.2s-.4.1-.5 0-.1-.2-.1-.2z"/><path fill="#444544" d="M65.4 20.4c-.1.1-.1.2 0 .3s.4.1.5 0 .1-.2 0-.3-.4-.1-.5 0z"/><g><path fill="#9E9E9E" d="M65.1 21.7l1.3-.8v-1.1l-1.3.8v1.1z"/><path fill="#FAFBFD" d="M65.1 20.6l1.3-.8-6.1-3.8-1.3.9 6.1 3.7z"/><path fill="#C2C2C2" d="M59 16.9V18l6.1 3.7v-1.1L59 16.9z"/></g></g><g><path fill="#121A22" d="M26.9 45l-.1-.1v-.8l.1.1v.8zm0-1.1l-.1-.1v-1h.1v1.1z"/><path fill="#17212A" d="M26 44.5l-.2-.1 1-.6.1.1-.9.6z"/><path fill="#121A22" d="M26.9 42.6l-.1-.1v-1h.1v1.1z"/><path fill="#17212A" d="M26 43.2l-.2-.1 1-.6.1.1-.9.6z"/><path fill="#121A22" d="M26.9 41.3l-.1-.1v-1.1l.1.1v1.1z"/><path fill="#17212A" d="M26 41.9l-.2-.1 1-.6.1.1-.9.6z"/><path fill="#121A22" d="M26.9 40l-.1-.1v-1.1l.1.1V40z"/><path fill="#17212A" d="M26 40.6l-.2-.1 1-.6.1.1-.9.6z"/><path fill="#121A22" d="M26.9 38.7l-.1-.1v-1.1l.1.1v1.1z"/><path fill="#17212A" d="M25.9 39.3l-.1-.1 1-.6.1.1-1 .6z"/><path fill="#121A22" d="M26.9 37.4l-.1-.1v-.9l.1.1v.9z"/><path fill="#17212A" d="M26.9 36.5l-.1-.1.2-.1.1.1-.2.1zm-1 1.5l-.1-.1 1-.6.1.1-1 .6zm-.2-.7l-.1-.1.2-.2.1.1-.2.2z"/><path fill="#202E3C" d="M26.9 36.5l.2-.1v8.4l-.2.1v-.8l-1 .6v.8l-.2.1v-8.4l.2-.1v.8l1-.6v-.8zm0 6.1v-1l-1 .6v1l1-.6zm0-2.6v-1l-1 .6v1l1-.6zm0 1.3v-1l-1 .6v1l1-.6zm0-2.6v-1l-1 .6v1l1-.6zm0 5.2v-1l-1 .6v1l1-.6z"/><path fill="#121A22" d="M25.7 45.7l-.1-.1v-8.4l.1.1v8.4z"/></g><g><path fill="#121A22" d="M28.5 51.5l-.1-.1v-.9l.1.1v.9zm0-1.2l-.1-.1v-1.1l.1.1v1.1z"/><path fill="#17212A" d="M27.5 50.9h-.2l1.1-.7.1.1-1 .6z"/><path fill="#121A22" d="M28.5 48.9l-.1-.1v-1.1l.1.1v1.1z"/><path fill="#17212A" d="M27.5 49.6l-.2-.1 1.1-.7.1.1-1 .7z"/><path fill="#121A22" d="M28.5 47.6l-.1-.1v-1.1l.1.1v1.1z"/><path fill="#17212A" d="M27.5 48.2l-.2-.1 1.1-.6.1.1-1 .6z"/><path fill="#121A22" d="M28.5 46.2l-.1-.1v-.9l.1.1v.9z"/><path fill="#17212A" d="M28.5 45.3l-.1-.1.2-.1.1.1-.2.1zm-1 1.5l-.2-.1 1.1-.6.1.1-1 .6z"/><path fill="#121A22" d="M27.3 52.2l-.2-.1V46l.2.1v6.1z"/><path fill="#202E3C" d="M28.5 45.3l.2-.1v6.1l-.2.1v-.9l-1 .6v.9l-.2.1V46l.2-.1v.9l1-.6v-.9zm0 2.3v-1.1l-1 .6v1.1l1-.6zm0 2.7v-1.1l-1 .6v1.1l1-.6zm0-1.4v-1.1l-1 .6v1.1l1-.6z"/><path fill="#17212A" d="M27.3 46.1l-.2-.1.2-.1.2.1-.2.1z"/></g><g><path fill="#FFF" d="M20.6 34.6l2.3-1.4-1.2-.8-2.3 1.4 1.2.8z"/><path fill="#C7C7C7" d="M20.6 35.6l2.3-1.5v-.9l-2.3 1.4v1z"/><path fill="#9C9C9C" d="M20.6 34.6v1l-1.2-.8v-1l1.2.8z"/></g><g><path fill="#747474" d="M77.1 12.4l.1-.1v.3l-.1.1v-.3z"/><path fill="#FFF" d="M72.7 9.7l.2-.1 4.3 2.7-.1.1-4.4-2.7z"/><path fill="#C7C7C7" d="M77.1 12.4v.3L72.7 10v-.3l4.4 2.7z"/><path fill="#747474" d="M77.8 14.6l.2-.1V16l-.2.1v-1.5z"/><path fill="#FFF" d="M72 11l.2-.1 5.8 3.6-.2.1L72 11z"/><path fill="#C7C7C7" d="M77.8 14.6v1.5L72 12.5V11l5.8 3.6z"/><path fill="#1A4B6C" d="M77.5 14.7v1l-5.3-3.2v-1.1l5.3 3.3z"/><path fill="#747474" d="M76.4 10.3l.1-.1v.2l-.1.1v-.2z"/><path fill="#FFF" d="M73.4 8.4l.2-.1 2.9 1.9-.1.1-3-1.9z"/><path fill="#C7C7C7" d="M76.4 10.3v.2l-3-1.8v-.3l3 1.9z"/><path fill="#747474" d="M75.8 8h.1v.2l-.1.1V8z"/><path fill="#FFF" d="M74 7l.2-.1L75.9 8h-.1L74 7z"/><path fill="#C7C7C7" d="M75.8 8v.3L74 7.2V7l1.8 1z"/><g><path fill="#747474" d="M74.9 17.4l.1-.1.1-11.3-.2.1v11.3z"/><path fill="#D9D9D9" d="M74.9 6.1l.2-.1-.3-.2-.2.1.3.2z"/><path fill="#C7C7C7" d="M74.6 5.9v11.4l.3.1V6.1l-.3-.2z"/></g><g><path fill="#B0B0B0" d="M75.2 4.7l.2-.1v2l-.2.1v-2z"/><path fill="#A1A1A1" d="M74.3 4.1l.1-.1 1 .6-.2.1-.9-.6z"/><path fill="#C7C7C7" d="M75.2 4.7v2l-.9-.6v-2l.9.6z"/><path fill="#1A4B6C" d="M75.1 4.9v1.5l-.7-.5V4.4l.7.5z"/></g></g><g><defs><path id="q" d="M34.4 38.6v1.5c0 .2-.1.4-.3.5-.4.3-1.2.3-1.6 0-.2-.1-.3-.3-.3-.5v-1.5c0 .2.1.4.3.5.4.3 1.2.3 1.6 0 .2-.1.3-.3.3-.5z"/></defs><clipPath id="r"><use xlink:href="#q" overflow="visible"/></clipPath><g clip-path="url(#r)"><path fill="#919191" d="M34.4 38.6v1.5c0 .1-.1.3-.2.4V39c.1-.1.2-.3.2-.4z"/><path fill="#B5B5B5" d="M34.2 39v1.5l-.1.1c-.2.1-.5.2-.9.2v-1.5c.3 0 .6-.1.9-.2 0 0 0-.1.1-.1z"/><path fill="#919191" d="M33.2 39.3v1.5c-.3 0-.5-.1-.7-.2-.2-.1-.3-.3-.3-.5v-1.5c0 .2.1.4.3.5s.4.2.7.2z"/></g><path fill="#FFF" d="M34 38.1c.4.3.4.7 0 1s-1.2.3-1.6 0-.4-.7 0-1c.5-.3 1.2-.3 1.6 0z"/><defs><path id="s" d="M38.8 36.1v1.5c0 .2-.1.4-.3.5-.4.3-1.2.3-1.6 0-.2-.1-.3-.3-.3-.5v-1.5c0 .2.1.4.3.5.4.3 1.2.3 1.6 0 .2-.2.3-.4.3-.5z"/></defs><clipPath id="t"><use xlink:href="#s" overflow="visible"/></clipPath><g clip-path="url(#t)"><path fill="#919191" d="M38.8 36.1v1.5c0 .1-.1.3-.2.4v-1.5c.2-.2.2-.3.2-.4z"/><path fill="#B5B5B5" d="M38.6 36.5V38l-.1.1c-.2.1-.5.2-.9.2v-1.5c.3 0 .6-.1.9-.2 0-.1.1-.1.1-.1z"/><path fill="#919191" d="M37.6 36.8v1.5c-.3 0-.5-.1-.7-.2-.2-.1-.3-.3-.3-.5v-1.5c0 .2.1.4.3.5.2.1.5.2.7.2z"/></g><path fill="#FFF" d="M38.5 35.6c.4.3.4.7 0 1s-1.2.3-1.6 0-.4-.7 0-1 1.1-.3 1.6 0z"/><g><defs><path id="u" d="M47.6 47.3v1.5c0 .2-.1.4-.3.5-.4.3-1.2.3-1.6 0-.2-.1-.3-.3-.3-.5v-1.5c0 .2.1.4.3.5.4.3 1.2.3 1.6 0 .2-.1.3-.3.3-.5z"/></defs><clipPath id="v"><use xlink:href="#u" overflow="visible"/></clipPath><g clip-path="url(#v)"><path fill="#919191" d="M47.6 47.3v1.5c0 .1-.1.3-.2.4v-1.5c.1-.1.2-.2.2-.4z"/><path fill="#B5B5B5" d="M47.4 47.7v1.5l-.1.1c-.2.1-.5.2-.9.2V48c.3 0 .6-.1.9-.2 0 0 .1 0 .1-.1z"/><path fill="#919191" d="M46.4 48v1.5c-.3 0-.5-.1-.7-.2-.2-.1-.3-.3-.3-.5v-1.5c0 .2.1.4.3.5.2.2.4.2.7.2z"/></g><path fill="#FFF" d="M47.3 46.9c.4.3.4.7 0 1s-1.2.3-1.6 0-.4-.7 0-1 1.1-.3 1.6 0z"/></g><g><defs><path id="w" d="M52.1 44.8v1.5c0 .2-.1.4-.3.5-.4.3-1.2.3-1.6 0-.2-.1-.3-.3-.3-.5v-1.5c0 .2.1.4.3.5.4.3 1.2.3 1.6 0 .1-.1.3-.3.3-.5z"/></defs><clipPath id="x"><use xlink:href="#w" overflow="visible"/></clipPath><g clip-path="url(#x)"><path fill="#919191" d="M52.1 44.8v1.5c0 .1-.1.3-.2.4v-1.5c.1-.1.2-.2.2-.4z"/><path fill="#B5B5B5" d="M51.9 45.2v1.5l-.1.1c-.2.1-.5.2-.9.2v-1.5c.3 0 .6-.1.9-.2 0 0 0-.1.1-.1z"/><path fill="#919191" d="M50.9 45.5V47c-.3 0-.5-.1-.7-.2-.2-.1-.3-.3-.3-.5v-1.5c0 .2.1.4.3.5.1.1.4.2.7.2z"/></g><path fill="#FFF" d="M51.7 44.3c.4.3.4.7 0 1s-1.2.3-1.6 0-.4-.7 0-1c.5-.3 1.2-.3 1.6 0z"/></g></g><g><path fill="#949494" d="M42.2 18.7l-5.3 15.2-1.2 3.4-2 5.6L33 45l.7-2.1 1.9-5.6 1.2-3.4L42 18.8c.1.1.1 0 .2-.1 0 .1 0 .1 0 0 0 .1 0 .1 0 0 0 .1 0 .1 0 0z"/><path fill="#B3B3B3" d="M42.1 18.9L36.9 34l-1.2 3.4-1.9 5.6-.7 2.1-.8-.5.7-2.1 1.5-4.4 1.2-3.4L41.2 19h.6c.1 0 .2 0 .3-.1-.1 0 0 0 0 0z"/><path fill="#DCDCDC" d="M41.2 18.9l-5.5 15.7-1.2 3.4-1.5 4.4-.7 2.1-.2-.1-.6-.3.6-1.6v-.1l.1-.3 1.1-3.2 1.2-3.5 6-17.3v.1c0 .1.1.2.1.3l.1.1h.1c.2.2.3.3.4.3z"/><path fill="#FFF" d="M31.1 34.9c-.1 0-.1 0-.1-.1s0-.1.1-.1c1.6-.1 4.8-4.7 6.1-6.5.5-.7.5-.7.6-.7s.1 0 .1.1v.1s-.2.3-.5.7c-2.2 2.9-4.8 6.4-6.3 6.5.1 0 0 0 0 0z"/><path fill="#CCC" d="M42.1 18.3c.3.3.1.6-.2.7-.4.1-.9-.1-1.2-.5-.3-.3-.1-.6.2-.7.4 0 .9.2 1.2.5z"/></g><g><path fill="#949494" d="M32.2 26.6v17.9-17.9z"/><path fill="#B3B3B3" d="M32.1 26.7v17.7l-.6-.3-.6-.4V27.3c.3 0 .6-.1.8-.2h.1s.1 0 .1-.1c.2-.1.2-.2.2-.3 0 .1 0 .1 0 0 0 .1 0 .1 0 0 0 .1 0 0 0 0z"/><path fill="#DCDCDC" d="M31 27.3v16.4l-1.2-.7V26.6c0 .1 0 .2.1.2 0 0 0 .1.1.1l.1.1s.1 0 .1.1c0 0 .1 0 .1.1.1 0 .1.1.2.1h.5c-.1 0-.1 0 0 0z"/><path fill="#FAFBFD" d="M31.8 26c.5.3.5.8 0 1-.5.3-1.2.3-1.7 0s-.5-.8 0-1c.5-.3 1.3-.3 1.7 0z"/></g><path fill="#FFF" d="M25.1 34.5s-.1 0 0 0c-.1-.1-.1-.2-.1-.2 2.6-2.1 4.8-7.1 4.9-7.2 0-.1.1-.1.1-.1.1 0 .1.1 0 .1.1.2-2.2 5.2-4.9 7.4z"/><path fill="#FFF" d="M25.7 34.9c-.2 0-.4 0-.7-.1-.1 0-.1-.1-.1-.1 0-.1.1-.1.1-.1.9.2 1.7 0 2.5-.6 2.1-1.6 2.8-5.8 2.8-5.8 0-.1.1-.1.1-.1.1 0 .1.1.1.1 0 .2-.7 4.3-2.9 6-.5.5-1.2.7-1.9.7z"/><path fill="#1A4B6C" d="M41 42.9c-.2-.2-.6-.2-.9 0-.2.2-.2.4 0 .6.2.2.6.2.9 0s.3-.5 0-.6zm9.4-14.8c-.2-.2-.6-.2-.9 0-.2.2-.2.4 0 .6s.6.2.9 0c.2-.2.2-.5 0-.6z"/><path fill="#FFF" d="M30.7 28.4c0-.1-.1-.3-.2-.3-.1-.1-.2 0-.2.1s.1.3.2.3.2 0 .2-.1zm-.5-1.1c0-.1-.1-.3-.2-.3-.1-.1-.2 0-.2.1s.1.3.2.3c.1.1.2 0 .2-.1z"/><g><path fill="#949494" d="M31.3 20.9v0z"/><path fill="#B3B3B3" d="M31.3 20.9v5.7s0 .1-.1.1-.2.1-.3.1v-5.7c.2 0 .3 0 .4-.2 0 .1 0 .1 0 0z"/><path fill="#DCDCDC" d="M31 21.1v5.7c-.1 0-.2 0-.2-.1-.1 0-.1-.1-.1-.2v-5.7c0 .1 0 .1.1.2 0 .1.1.1.2.1z"/><path fill="#CCC" d="M31.2 20.7c.1.1.1.2 0 .3-.1.1-.4.1-.5 0s-.1-.2 0-.3c.2-.1.4-.1.5 0z"/><defs><path id="y" d="M32 20.7v.1c0 .2-.1.3-.3.4-.4.2-1 .2-1.4 0-.2-.1-.3-.3-.3-.4v-.1c0 .2.1.3.3.4.4.2 1 .2 1.4 0 .2-.1.3-.3.3-.4z"/></defs><clipPath id="z"><use xlink:href="#y" overflow="visible"/></clipPath><g clip-path="url(#z)"><path fill="#C3C3C3" d="M32 20.7v.1c0 .2-.1.3-.3.4-.4.2-1 .2-1.4 0-.2-.1-.3-.3-.3-.4v-.1c0 .2.1.3.3.4.4.2 1 .2 1.4 0 .2-.1.3-.3.3-.4z"/></g><path fill="#FFF" d="M31.7 20.2c.4.2.4.6 0 .9-.4.2-1 .2-1.4 0s-.4-.6 0-.9c.4-.2 1-.2 1.4 0z"/><g><path fill="#949494" d="M31.2 18.4l.1 2.3-.1-2.3z"/><path fill="#C3C3C3" d="M31.2 18.4l.1 2.3s0 .1-.1.1-.1.1-.2.1v-2.4s.1 0 .2-.1z"/><path fill="#DCDCDC" d="M31 18.5v2.4c-.1 0-.2 0-.2-.1-.1 0-.1-.1-.1-.1l.1-2.3s0 .1.2.1z"/><path fill="#FFF" d="M31.1 18.3c.1 0 .1.1 0 .2h-.3c-.1 0-.1-.1 0-.2s.3-.1.3 0z"/></g></g></svg>