<svg xmlns="http://www.w3.org/2000/svg" viewBox="0 0 101 150"><path fill="#FFDBA7" d="M65.1 20.9c.9 2 1.9 2.8 1.9 4.3 0 1.8-.1 3.6.2 6.1l-1.7.6-1.6-1.1-.6-9.5 1.8-.4z"/><path fill="#084478" d="M65.7 103.7l3.6-2.1v-3.7l-3.6 2.1v3.7z"/><path fill="#032747" d="M65.7 100l3.6-2.1-11.9-7-3.7 2.2 12 6.9z"/><path fill="#05345E" d="M53.7 93.1v3.7l12 6.9V100l-12-6.9z"/><path fill="#929190" d="M63.9 62.3l-2.1-1.2-2.2 1.2 2.2 1.3 2.1-1.3z"/><path fill="#05345E" d="M61.8 63.6l-.6 14.1.7 19.2 2.1-1.2-.1-33.4-2.1 1.3z"/><path fill="#032747" d="M61.8 63.6l-2.2-1.3.1 33.4 2.2 1.2-.1-33.3z"/><path fill="#084478" d="M20.4 129.9l3.7-2.1V124l-3.7 2.2v3.7z"/><path fill="#032747" d="M20.4 126.2l3.7-2.2-12-6.9-3.6 2.1 11.9 7z"/><path fill="#05345E" d="M8.5 119.2l-.1 3.8 12 6.9v-3.7l-11.9-7zm8.3-29.4l-1.3 16 1.3 17.3 2.2-1.2-.1-33.4-2.1 1.3z"/><path fill="#032747" d="M16.8 89.8l-2.2-1.3.1 33.4 2.1 1.2V89.8z"/><path fill="#929190" d="M18.9 88.5l-2.1-1.2-2.2 1.2 2.2 1.3 2.1-1.3z"/><path fill="#05345E" d="M11.9 90.1L9 88.4v3.1l2.9 1.7v-3.1z"/><path fill="#032747" d="M66.9 58.5L64 56.8 9 88.4l2.9 1.7 55-31.6z"/><path fill="#084478" d="M11.9 90.1v3.1l55-31.6v-3.1l-55 31.6z"/><path fill="#D1D2D2" d="M65.3 12l-1.1-.7-53.6 31 1.2.7 53.5-31z"/><path fill="#E4ECED" d="M11.8 43l-1.2-.7.1 46.3 1.2.7-.1-46.3z"/><path fill="#F7FCFC" d="M11.8 43l.1 46.3 53.6-31.1-.2-46.2-53.5 31z"/><path fill="#C5D7D9" d="M17.8 48.2l-.9.5v.5l.9-.5v-.5zm4.4 30v-1l-.4.3v1l.4-.3zm0-2v-1l-.4.3v1l.4-.3zm0-2.1v-1l-.4.3v1l.4-.3zm0-2.1v-1l-.4.3v1l.4-.3zm-.1-2.1v-1l-.4.3v1l.4-.3zm0-2.1v-1l-.4.3v1l.4-.3zm0-2.1v-1l-.4.3v1l.4-.3zm0-2.1v-1l-.4.3v1l.4-.3zm0-2.1v-1l-.4.3v1l.4-.3zm0-2v-1l-.4.3v1l.4-.3zm0-2.1v-1l-.4.3v1l.4-.3zm0-2.1v-1l-.4.3v1l.4-.3zm0-2.1v-1l-.4.3v1l.4-.3zm0-2.1v-1l-.4.3v1l.4-.3zm0-2.1v-1l-.4.3v1l.4-.3zm0-2v-1l-.4.3v1l.4-.3zm0-2.1v-1l-.4.3v1l.4-.3zm0-3.2l-.4.3v1l.4-.3v-1zm6.1 33.1v-1l-.4.3v1l.4-.3zm0-2.1v-1l-.4.3v1l.4-.3zm0-4.2v-1l-.4.3v1l.4-.3zm-.1-2.1v-1l-.4.3v1l.4-.3zm0-4.2v-1l-.4.3v1l.4-.3zm0-2v-1l-.4.3v1l.4-.3zm0-2.1v-1l-.4.3v1l.4-.3zm0-4.2v-1l-.4.3v1l.4-.3zm0-2.1v-1l-.4.3v1l.4-.3zm0-4.1v-1l-.4.3v1l.4-.3zm0-2.1v-1l-.4.3v1l.4-.3zm-.3-3l-.1.1v1l.4-.3v-.7l.6-.3v-.5l-.9.5v.2zm.3-1.2v-1l-.4.3v1l.4-.3zm0-3.1l-.4.3v1l.4-.3v-1zm6.1 33v-1l-.4.3v1l.4-.3zm0-2.1v-1l-.4.3v1l.4-.3zm0-2.1v-1l-.4.3v.5l-.5.3v.5l.9-.6zm0-2.1v-1l-.4.3v1l.4-.3zm0-2.1v-1l-.4.3v1l.4-.3zm0-4.1v-1l-.4.3v1l.4-.3zm0-2.1v-1l-.4.3v1l.4-.3zm-.1-6.3v-1l-.4.3v1l.4-.3zm0-2v-1l-.4.3v1l.4-.3zm0-4.2v-1l-.4.3v1l.4-.3zm0-2.1v-1l-.4.3v1l.4-.3zm0-4.2v-1l-.4.3v1l.4-.3zm0-3.1l-.4.3v1l.4-.3v-1zm6.1 33v-1l-.5.3v1l.5-.3zm0-2.1v-1l-.5.3v1l.5-.3zm0-2.1v-1l-.5.3v1l.5-.3zm0-2.1v-1l-.5.3v1l.5-.3zm0-2v-1l-.5.3v1l.5-.3zm0-2.1v-1l-.5.3v1l.5-.3zm0-2.1v-1l-.5.3v1l.5-.3zm0-2.1v-1l-.5.3v1l.5-.3zm0-2.1v-1l-.5.3v1l.5-.3zm0-2.1v-1l-.5.3v1l.5-.3zm0-2.1v-1l-.5.3v1l.5-.3zm0-2v-1l-.5.3v1l.5-.3zm0-2.1v-1l-.5.3v1l.5-.3zm0-2.1v-1l-.5.3v1l.5-.3zm0-2.1v-1l-.5.3v1l.5-.3zm0-2.1v-1l-.5.3v1l.5-.3zm-.1-2.1v-1l-.5.3v1l.5-.3zm0-3.1l-.5.3v1l.5-.3v-1zm6.1 33v-1l-.4.3v1l.4-.3zm0-2v-1l-.4.3v1l.4-.3zm0-2.6v-.5l-.4.3v1l.1-.1.9-.5v-.5l-.6.3zm0-1.6v-1l-.4.3v1l.4-.3zm0-2.1v-1l-.4.3v1l.4-.3zm-.3-2.9l-.1 1.1.4-.3v-.7l.6-.3v-.5l-.9.5v.2zm.3-1.3v-1l-.4.3v1l.4-.3zm0-2.1v-1l-.4.3v1l.4-.3zm0-2.1v-1l-.4.3v1l.4-.3zm0-2v-1l-.4.3v1l.4-.3zm0-2.1v-1l-.4.3v1l.4-.3zm0-2.1v-1l-.4.3v1l.4-.3zm0-4.2v-1l-.4.3v1l.4-.3zm0-2.1v-1l-.4.3v1l.4-.3zm-.1-4.1v-1l-.4.3v1l.4-.3zm0-3.1l-.4.3v1l.4-.3v-1zm12.2 29.5v-1l-.4.3v1l.4-.3zm0-2.1v-1l-.4.3v1l.4-.3zm0-2.1v-1l-.4.3v1l.4-.3zm0-2.1v-1l-.4.3v1l.4-.3zm0-2.1v-1l-.4.3v1l.4-.3zm0-2v-1l-.4.3v1l.4-.3zm0-2.1v-1l-.4.3v1l.4-.3zm-.1-2.1v-1l-.4.3v1l.4-.3zm0-2.1v-1l-.4.3v1l.4-.3zm0-2.1v-1l-.4.3v1l.4-.3zm0-2.1v-1l-.4.3v1l.4-.3zm0-2v-1l-.4.3v1l.4-.3zm0-2.1v-1l-.4.3v1l.4-.3zm0-2.1v-1l-.4.3v1l.4-.3zm0-2.1v-1l-.4.3v1l.4-.3zm0-2.1v-1l-.4.3v1l.4-.3zm0-2.1v-1l-.4.3v1l.4-.3zm0-3.1l-.4.3v1l.4-.3v-1zm-5.9 40v-1l-.5.3v1l.5-.3zm0-2.1v-1l-.5.3v1l.5-.3zm0-2.1v-1l-.5.3v.5l-.5.3v.5l1-.6zm0-2.1v-1l-.5.3v1l.5-.3zm0-2.1v-1l-.5.3v1l.5-.3zm-.1-4.2v-1l-.5.3v1l.5-.3zm0-2.1v-1l-.5.3v1l.5-.3zm0-6.2v-1l-.5.3v1l.5-.3zm0-2.1v-1l-.5.3v1l.5-.3zm0-4.1v-1l-.5.3v1l.5-.3zm0-2.1v-1l-.5.3v1l.5-.3zm0-4.2v-1l-.5.3v1l.5-.3zm0-3.1l-.5.3v1l.5-.3v-1zM63 50.5V50l-.9.5v.5l.9-.5zm-1.8 1V51l-.9.5v.5l.9-.5zm-1.8 1.1v-.5l-.9.5v.5l.9-.5zm-1.8 1v-.5l-.9.5v.5l.9-.5zm-1.8 1.1v-.5l-.9.5v.5l.9-.5zm-1.8 1v-.5l-.9.5v.5l.9-.5zm-3.6 2.1v-.5l-.9.5v.5l.9-.5zm-1.8 1v-.5l-.9.5v.5l.9-.5zM45 60.9v-.5l-.9.5v.5l.9-.5zM43.2 62v-.5l-.9.5v.5l.9-.5zm-1.8 1v-.5l-.9.5v.5l.9-.5zm-1.8 1v-.5l-.9.5v.5l.9-.5zm-1.8 1.1v-.5l-.9.5v.5l.9-.5zm-1.8 1v-.5l-.9.5v.5l.9-.5zm-3.6 2.1v-.5l-.9.5v.5l.9-.5zm-1.9 1.1v-.5l-.9.5v.5l.9-.5zm-2.7 1.5l.9-.5v-.5l-.6.3v-.5l-.4.3v1l.1-.1zm-.9.5v-.5l-.9.5v.5l.9-.5zm-1.8 1.1v-.5l-.9.5v.5l.9-.5zm-1.8 1v-.5l-.9.5v.5l.9-.5zm-1.8 1.1V74l-.9.5v.5l.9-.5zm-1.8 1V75l-.9.5v.5l.9-.5zm-1.8.5l-.9.5v.5l.9-.5V76zM63 43.5V43l-.9.5v.5l.9-.5zm-1.8 1.1v-.5l-.9.5v.5l.9-.5zm-1.8 1v-.5l-.9.5v.5l.9-.5zm-1.8 1v-.5l-.9.5v.5l.9-.5zm-1.8 1.1v-.5l-.9.5v.5l.9-.5zm-1.8 1v-.5l-.9.5v.5l.9-.5zm-1.8.7l-.9.4v.5l.5-.3v.7l.5-.3-.1-1zm-1.8 1.4v-.5l-.9.5v.5l.9-.5zm-1.8 1.1v-.5l-.9.5v.5l.9-.5zm-3.6 2v-.5l-.9.5v.5l.9-.5zM43.2 55v-.5l-.9.5v.5l.9-.5zm-1.8 1v-.5l-.9.5v.5l.9-.5zm-1.8 1.1v-.5l-.9.5v.5l.9-.5zm-1.9 1v-.5l-.9.5v.5l.9-.5zm-1.8 1.1v-.5l-.9.5v.5l.9-.5zm-1.8.6l-.9.4v.5l.5-.3v.7l.4-.3v-1zm-1.8 1.4v-.5l-.9.5v.5l.9-.5zm-1.8 1.1v-.5l-.9.5v.5l.9-.5zm-1.8 1v-.5l-.9.5v.1l-.1.1v1l.4-.3v-.7l.6-.2zm-1.8 1.1v-.5l-.9.5v.5l.9-.5zm-1.8 1v-.5l-.9.5v.5l.9-.5zm-1.8 1.1V66l-.9.5v.5l.9-.5zm-1.8 1V67l-.9.5v.5l.9-.5zm-1.8 1.1v-.5l-.9.5v.5l.9-.5zm-1.8.5l-.9.5v.5l.9-.5v-.5zM63 36.6v-.5l-.9.5v.5l.9-.5zm-1.8 1v-.5l-.9.5v.5l.9-.5zm-1.8 1.1v-.5l-.9.5v.5l.9-.5zm-1.8 1v-.5l-.9.5v.5l.9-.5zm-1.8 1v-.5l-.9.5v.5l.9-.5zM54 41.8v-.5l-.9.5v.5l.9-.5zm-1.8 1v-.5l-.9.5v.5l.9-.5zm0 1.4l-.5.3v-1l.5-.3v1zm0-2.1l-.5.3v-1l.5-.3v1zm-1.8 1.8v-.5l-.9.5v.5l.9-.5zm-1.8 1v-.5l-.9.5v.5l.9-.5zM46.8 46l-.9.5V46l.9-.5v.5zM45 47v-.5l-.9.5v.5l.9-.5zm-1.9 1.1v-.5l-.9.5v.5l.9-.5zm-1.8 1v-.5l-.9.5v.5l.9-.5zm-1.7 1v-.5l-.9.5v.5l.9-.5zm-1.9 1.1v-.5l-.9.5v.5l.9-.5zm-1.8 1v-.5l-.9.5v.5l.9-.5zm-1.8 1.1v-.5l-.9.5v.5l.9-.5zm.1 1.3l-.4.3v-1l.4-.3v1zm0-2.1l-.4.3v-1l.4-.3v1zm-1.9 1.8v-.5l-.9.5v.5l.9-.5zm-1.8 1.1v-.5l-.9.5v.5l.9-.5zm-1.8 1v-.5l-.9.5v.5l.9-.5zm-.6-.4l-.4.3v-1l.4-.3v1zm-1.2 1.4v-.5l-.9.5v.5l.9-.5zm-1.8 1.1V58l-.9.5v.5l.9-.5zm-1.8 1V59l-.9.5v.5l.9-.5zm-1.8 1.1v-.5l-.9.5v.5l.9-.5zm-1.8 1v-.5l-.9.5v.5l.9-.5zm-1.8.5l-.9.5v.5l.9-.5v-.5zM63 29.6v-.5l-.9.5v.5l.9-.5zm-1.8 1.1v-.5l-.9.5v.5l.9-.5zm-1.8 1v-.5l-.9.5v.5l.9-.5zm-1.8 1v-.5l-.9.5v.5l.9-.5zm-1.8 1.1v-.5l-.9.5v.5l.9-.5zm-1.8 1v-.5l-.9.5v.5l.9-.5zm-2.3.8l-.5.3v.5l.5-.3.4-.2h.1v-1l-.5.3v.4zm-1.3 1.3v-.5l-.9.5v.5l.9-.5zM48.6 38v-.5l-.9.5v.5l.9-.5zm-1.9.5l-.6.3v-.5l-.4.3v1l.1-.1.3-.2.6-.3v-.5zM44.9 40v-.5l-.9.5v.5l.9-.5zm-1.8 1.1v-.5l-.9.5v.5l.9-.5zm-1.8 1v-.5l-.9.5v.5l.9-.5zm-1.8 1.1v-.5l-.9.5v.5l.9-.5zm-1.8 1v-.5l-.9.5v.5l.9-.5zm-1.8 1.1v-.5l-.9.5v.5l.9-.5zm-2.2.7l-.5.3v.5l.5-.3.4-.2v-1l-.4.3v.4zm-1.4 1.3v-.5l-.9.5v.5l.9-.5zm-1.8 1.1v-.5l-.9.5v.5l.9-.5zm-1.8.5l-.6.3v-.5l-.4.3v1l.1-.1.3-.2.6-.3v-.5zm-1.8 1.6V50l-.9.5v.5l.9-.5zm-1.8 1V51l-.9.5v.5l.9-.5zm-1.8 1V52l-.9.5v.5l.9-.5zm-1.9 1.1v-.5l-.9.5v.5l.9-.5zm-1.8 1.1v-.5l-.9.5v.5l.9-.5zm-1.8.5l-.9.5v.5l.9-.5v-.5zM63 22.7v-.5l-.9.5v.5l.9-.5zm-1.8 1v-.5l-.9.5v.5l.9-.5zm-1.8 1.1v-.5l-.9.5v.5l.9-.5zm-1.8 1v-.5l-.9.5v.5l.9-.5zm-1.8 1v-.5l-.9.5v.5l.9-.5zm-1.9 1.1v-.5l-.9.5v.5l.9-.5zm-1.8.7v-.2l-.9.5v.5l.5-.3v.7l.5-.3-.1-.9zM50.3 30v-.5l-.9.5v.5l.9-.5zm-1.8 1v-.5l-.9.5v.5l.9-.5zm-1.8 1.1v-.5l-.9.5v.2l-.1.1v1l.4-.3v-.7l.6-.3zm-1.8 1v-.5l-.9.5v.5l.9-.5zm-1.8 1v-.5l-.9.5v.5l.9-.5zm-1.8 1.1v-.5l-.9.5v.5l.9-.5zm-1.8 1v-.5l-.9.5v.5l.9-.5zm-1.8 1.1v-.5l-.9.5v.5l.9-.5zm-1.8 1v-.5l-.9.5v.5l.9-.5zm-1.8.7v-.2l-.9.5v.5l.5-.3v.7l.4-.3V39zm-1.8 1.4v-.5l-.9.5v.5l.9-.5zm-1.8 1.1V41l-.9.5v.5l.9-.5zm-3.6 2V43l-.9.5v.5l.9-.5zM25 44.6v-.5l-.9.5v.5l.9-.5zm-1.7 1v-.5l-.9.5v.5l.9-.5zm-1.9 1.1v-.5l-.9.5v.5l.9-.5zm-1.8 1v-.5l-.9.5v.5l.9-.5z"/><path fill="#05345E" d="M11.9 40.9L9 39.2v3.1l2.9 1.7v-3.1z"/><path fill="#032747" d="M66.9 9.3L64 7.5 9 39.2l2.9 1.7 55-31.6z"/><path fill="#084478" d="M11.9 40.9V44l55-31.7v-3l-55 31.6z"/><path fill="#A9CCE8" d="M67.3 30.7c1 3.2 3.1 7.7 4.2 10.8.4 1.3.3 2 .5 3.4-2.5 1.5-4 .9-4.7-1-1-2.7-2.3-9.1-2.6-11.9l2.6-1.3z"/><path fill="#FFDBA7" d="M66.5 26.8c-.8-.2-1.4-1-1.6-2-.1-.4-.2-.8-.4-1-.1-.1-.3-.2-.4-.2-.3 0-.7.8-.3 1.8l.6 1.5c-.5 2-.4 2.7 1 4.1l1.5-.6V28l-.4-1.2z"/><path fill="#087872" d="M57.5 30.4l1.9 2 1.5-6.3.5.1-1.6 6.7-.1.4-.3-.3-2.3-2.2.4-.4z"/><path fill="#120878" d="M56.5 34.5h-.3c-.5-.1-.8-.4-1-.9-.2-.4-.3-1-.3-1.5 0-.4 0-.7.1-1.1.2-.9.8-1.6 1.5-2.1.9-.6 2-1 2.8-.9.8 0 1.4.4 1.8 1 .5.6.7 1.4.8 2.3 0 .4 0 .8-.1 1.1-.2 1.2-.8 2.3-1.6 3.2-.8.9-1.9 1.4-3.1 1.5-.3 0-.5 0-.8-.1-.9-.2-1.6-.9-2.1-1.8-.5-1-.7-2.3-.5-3.4l.5.1c-.2 1 0 2.2.5 3.1.4.8 1 1.4 1.7 1.5.2 0 .5.1.7 0 1 0 2-.6 2.7-1.3.8-.8 1.3-1.8 1.5-2.9.1-.3.1-.7.1-1 0-.8-.3-1.5-.7-2s-.9-.7-1.5-.8c-.7 0-1.7.3-2.5.8-.6.4-1.2 1.1-1.3 1.8-.1.3-.1.7-.1 1 0 .5.1 1 .3 1.3s.4.6.7.6h.2v.5z"/><g><g fill="#120878"><path d="M58.5 32.6l2.9 6.3c.5 1-.9 1.2-1.2.6l-2.9-6.3c-.3-.8.8-1.5 1.2-.6z"/><path d="M57.6 31.7l1 2.2c.2.4-.3.4-.4.2l-1-2.2c-.1-.2.3-.5.4-.2z"/></g><path fill="#C6DEF2" d="M81.3 31.5c3.3 1.9 5.1 3.9 4 4.6-1.1.6-4.6-.4-7.9-2.3-3.3-1.9-5.1-3.9-4-4.6s4.6.4 7.9 2.3z"/><path fill="#F0C17D" d="M75.6 87.8c.7 1.7 2.9 7.5 3.1 9.1.1.7.2 1.5.1 2.8 0 0 1.8-.1 2-.2s2.3-2 2.3-2-.9-4.6-1.1-4.9c-1.4-2.7.2-3.1-2.3-4.3-1.1-.5-1.6-1.9-2.1-2.9l-2 2.4z"/><path fill="#1C3347" d="M78.8 98.4c.1 1.2-.3 1.7 0 2.3.4.7 2 0 2.5-.3.7-.4 1.8-1.8 2-2.8-.6-1.7-.8-3.3-1.2-5.1l2 3.9.3-.2c-.6-1.4-1.2-3.2-1.5-4.5-.1-.5-.2-1.1-.3-1.4-.5-1.2-1.7-1.5-2.8-2 .6 2.3 2.7 7.3 1.1 9.4-.5.6-1.6.8-2.1.7z"/><path fill="#365A78" d="M66.8 72.2l9.3 19.2c0 .1.1.1.2.1.5 0 1.5-1.2 2.2-2.6.6-1.1.8-2 .6-2.4-1.2-4.1-2.5-8.9-4.9-12.6-.8-1.3-1.1-1.1-2-2.2-2-2.6-5.6-1.7-5.4.5z"/><path fill="#FFDBA7" d="M75.7 93.8c-.1 1.9-.8 8-1.3 9.5-.2.7-.5 1.4-1.1 2.5 0 0 1.7.7 1.9.7s3-.8 3-.8 1.2-4.6 1.2-4.8c0-3 1.6-2.7-.2-4.9-.8-1-.6-2.4-.6-3.6l-2.9 1.4z"/><path fill="#234159" d="M73.9 104.7c-.5 1.1-1.1 1.4-1 2 .1.8 1.8.9 2.4.8.8 0 2.4-.8 3-1.6.3-1.8.8-3.3 1.2-5.1v4.3h.4c.1-1.6.4-3.4.6-4.7.1-.5.3-1 .4-1.3.1-1.3-.8-2.1-1.6-3-.5 2.4-.9 7.7-3.2 8.9-.8.3-1.8 0-2.2-.3z"/><path fill="#365A78" d="M66.9 71.5c-.6 2 3.6 4 5.7 1.3l10.2-17.6-9.9-7.3c-1.2 3.5-1.6 4.2-2.5 7.9-1.3 5-2.7 11.4-3.5 15.7z"/><path fill="#406A8C" d="M77.3 51.5h-.8l-.5 4.1C74.2 60 74.4 70 74.5 74.2V76c-.1 3.4 5.1 2.2 5.8.4 1.1-3.2 1.4-4.6 2.4-8.3 1.6-6.2 5.3-11.2-1.1-16.8l-4.3.2z"/><path fill="#406A8C" d="M74.5 76l.3 21.4c0 .1.1.2.2.2.5.2 1.9-.4 3.1-1.3 1-.7 1.6-1.5 1.6-1.9.9-5 1.4-7.9 1.3-11.6-.1-3.5-.6-5.4-.5-6.9-.1-3.4-5.9-6.3-6 .1z"/><path fill="#632404" d="M78.8 14.9c-2.1-.2-3.6.1-4.3 1.1-3.1 4.2.2 9.2-2.3 12.6l4.2.5 5-7.8-2.6-6.4z"/><path fill="#A9CCE8" d="M72.9 30.8c-1.7 2.5-4.2 8-5.1 11.7-.6 2.5 2.1 4.3 3.4 2.3 2.3-3.2 5.7-8.5 5.7-11.8 0-2.9-2.8-3.9-4-2.2z"/><path fill="#F0C17D" d="M80.6 24.4c-.2 1-1.1 3.3 0 5.8L77 32.9l-1.7-1.6c.5-2.1.6-3.4.1-5.4l5.2-1.5z"/><path fill="#C6DEF2" d="M80.6 29.5c.8 1.8 1.8 2.8 3.4 3.7 2.9 1.7.9 7-.5 10.5-.8 2-.9 3.5-.9 4.7 0 .8 0 1.5.4 2.3 1.6 3.1 2.9 6.9 2.2 9.3-4-1.3-9.9-4.1-14-7.1.6-1.8 1.3-4.8 1.2-5.7-.1-.8-.6-4.5-1.3-6.4-1-1.4-1.3-2.9-1.3-4.1 0-1.3 2.5-6.1 3.5-7.3.4-.5 1.6-.3 2.4.1-.4 1.4 3.1 2.7 4.9 0z"/><path fill="#D8ECFC" d="M82.3 33.8c-2.4 1.8-6.5 6.3-8.5 9.6-1.3 2.2.6 4.7 2.6 3.3 3.2-2.4 8.1-6.3 9.1-9.5.8-2.8-1.6-4.7-3.2-3.4z"/><path fill="#FFDBA7" d="M65.8 40.7l-2.3-1c-2.3.4-2.5-1-4.3-1.2-.4-.1-1.4-1.8-1.1-2.8 1-.2 2.3-.3 3.7-.2 1.7 1.3 3 2.3 4.5 3.8l-.5 1.4z"/><path fill="#D8ECFC" d="M64.4 37.2c2.9 1.6 7.5 3.4 10.5 4.9 1.2.6 1.6 1.2 2.8 2.1-.8 2.8-2.3 3.3-4.1 2.5-2.6-1.2-8-5-10.1-6.8l.9-2.7z"/><path fill="#FFDBA7" d="M75.1 16.2c-2 2.9-1.2 4.9-1.5 7.3-.2 1.3.2 2.3.5 3 .4 1.1.9 1.6 1.5 1.8 1.2.4 6.1-1.7 6.5-3.3l1.5-6.2-8.5-2.6z"/><path fill="#632404" d="M80.3 24.2c.1-1.4.9-1.5 1.2-1.4 1.3.4-.2 2.4-.8 3.3-1.2 1-1.7 3.2-2.5 4.3 4.8-.8 6.4-1.7 6.7-8.9.1-4-1.9-7.7-7-6.9-1.1.1-2.8.6-3.4 2.3-1.3 3.5 4.8 4.4 5.8 7.3z"/><path fill="#C6DEF2" d="M80.2 55.1c3.7 2.1 5.7 4.4 4.5 5.1-1.2.7-5.2-.5-8.9-2.6s-5.7-4.4-4.5-5.1c1.2-.7 5.2.5 8.9 2.6z"/></g><g><path fill="#FFDBA7" d="M62.4 56.3c-.5-.5-1.3-.6-2.6-1.5-.9-.8-1.6-.9-2-.7-.3.2-.5.4.2 1.1l1.6 1.5-1.7.1-1-.2-2.4-1.8c-.7-.6-1-.1-1.6.7-.9 1.1.7 2.3 2.2 3.9 1.5 1.2 1.2 1.5 3.1 1.4l2.9-.1 1.3 1.5 2.7-2.5c-.4-.3-1.1-.9-1.4-1.3-.6-.6-.6-1.4-1.3-2.1z"/><path fill="#9DAFB0" d="M63.6 58c-1.2.3-2.2 2.5-2.5 3.2l10 8.6c1.4 1.3 4.6 2.6 6.2.9s.4-3-.2-4.1c-2.3-3.7-9.1-5.5-13.5-8.6zm17.2 18.7c-.6-5-1.2-5.5-3.9-4.8-5.2 1.5-9.8 5-8.9 8.5.6 2.2 1.4 2.4 3.2 2 3.2-.7 7.8-4.6 9.6-5.7z"/><path fill="#041D33" d="M86.9 131.5l2.9 2.2c0 2.7 0 4-1.1 4.7-1.3.8-3.4.2-4.7-.4l-.3-1c-1.2-.2-1 .2-2.3-.5-2.2-1.2-5.5-3.2-6-5.4-.1-.6.3-1.6.9-1.5l6.5 1.1 4.1.8z"/><path fill="#D0DBDF" d="M89.5 137.2c-.1.5-.4.8-.7 1.1-1.2.9-3.4.2-4.8-.4l-.4-1c-1.8-.2-1.3.1-3.1-.8-2.2-1.1-4.8-2.7-5.3-4.7-.1-.4.1-1.1.4-1.4v.6c.5 2 3.1 3.5 5.3 4.7 1.8.9 1.3.7 3.1.8l.4 1c1.3.5 3.5 1.3 4.7.4.2 0 .3-.1.4-.3z"/><path fill="#08355C" d="M79.9 135.5l3 2.1c.1 2.7.1 4-.9 4.7-1.2.9-3.4.3-4.7-.2l-.4-1c-1.8-.2-1.3.1-3.1-.8-2.2-1.1-4.8-2.7-5.3-4.7-.1-.6.3-1.6.8-1.5l6.4.8 4.2.6z"/><path fill="#D0DBDF" d="M82.7 141.2c-.1.5-.4.8-.7 1.1-1.2.9-3.4.3-4.7-.2l-.4-1c-1.8-.2-1.3.1-3.1-.8-2.2-1.1-4.8-2.7-5.3-4.7-.1-.4.1-1.1.4-1.4v.6c.5 2 3.1 3.5 5.3 4.7 1.8.9 1.3.7 3.1.8l.4 1c1.3.5 3.5 1.1 4.7.2.1 0 .2-.2.3-.3z"/><path fill="#9DAFB0" d="M91.9 62.9c-2.9 3.8-10.1 6.5-14.5 8.3-3.9 1.7-5.7-3.4-2.7-5.5l9.5-7.1c3.1-1.7 5.5-1.7 7-1.1 2.8 1.2 1.9 3.8.7 5.4z"/><path fill="#25232B" d="M91.8 83.9c.2 2.5 1.2 7.4 1.2 8.8-.2 7.6-1.5 13.8-1.9 21.4L90 134.5c0 .2 0 .3-.2.4-.7.4-3-.3-5.1-1.5-.9-.5-1.6-1-2.1-1.5-.3-.2-.5-.3-.8-.5l1.3-36.3.5-8.9 8.2-2.3z"/><path fill="#33303B" d="M84.6 88.4c.3 2.5 2 4.9 1.9 7.4-.8 7.9-2.4 15.2-2.7 22.8l-.6 20.1c0 .1-.1.2-.2.3-.7.4-3-.3-5.1-1.5-2-1.2-3.2-2.4-2.7-2.9l.2-35.9 1.8-8.8 7.4-1.5z"/><path fill="#AFC6C7" d="M90.3 57.3c.3.1.6.3 1 .5 5.9 3.1.2 18.6.5 24.4.1 1.8 1 5.3 1.2 8.9-.7 3-10.7 9.1-16.7 3.2.1-4.5-2-22.3-2.9-26.7-.5-2.6 2.2-6.1 6.9-8.4 3-1.4 7.8-2.7 10-1.9z"/><path fill="#F0C17D" d="M87.1 51.5c-.5 4.4-.6 4.1.2 7.4.4 1.8-5.4 1.6-6.2.9 0-4-.4-5.4-2-10.8l8 2.5z"/><path fill="#FFDBA7" d="M77 45.7c-.5 1.2-.8 2.2-.7 3.7.1 1.2.4 3 .6 4.2.2 1 .7 4.7 1.5 5.1.6.3 3.5-.9 4.4-2.1.7-.8-.1-3 .2-3.5l-2.5-7.4H77z"/><path fill="#331202" d="M85.7 43.5c3.2.9 3.5 5.6 2.1 8.7-.6 1.4-1 2.3-1.1 4.7-2 .8-3.2.4-4.8-1.5-1.6-2-1.4-4.2-2.6-4.2-.5 0-.9.6-.6 2.5-.5-1-2.2-6.7-3.9-7.2.4-1.4 1.7-2.3 3.3-3 2.7-1.2 6-1.7 7.6 0z"/><path fill="#F7FCFC" d="M87.2 57.1c-.4 1.5-4.5 2.3-6.2 1.6l-.2 1.4c1.6 2.2 6.9 1.5 6.8-1.2l-.4-1.8z"/><path fill="#C1D8D9" d="M72.7 64.7c-4.8 13.1-6.1 16.3-3.4 17.8 4.6 1.6 9.1-10.3 9.6-14.1.6-5.1-2.9-8-6.2-3.7z"/><path fill="#331202" d="M85.7 43.5c-1-1.5-3.4-1.6-4.4-1.3.5.1.8.1 1.1.3-1.6-.3-2.7-.3-3.9.3.6-.1 1.3-.1 1.7 0-1.6 0-2.4.4-3.2 1.1.8-.2 1.3-.3 1.6-.1l7.1-.3zM85.7 43.5c2.6-.1 3.8 3.8 3.2 5.7 0-.5-.2-.9-.4-1.3.4 1.5.5 2.8-.2 4 .1-.6 0-1.1-.1-1.4L87 51.9l-1.3-8.4z"/></g><path fill="#120878" d="M25.6 65.4h-.3c-.5-.1-.8-.4-1-.9-.2-.4-.3-1-.3-1.5 0-.4 0-.7.1-1.1.2-.9.8-1.6 1.5-2.1.9-.6 2-1 2.8-.9.8 0 1.4.4 1.8 1 .5.6.7 1.4.8 2.3 0 .4 0 .8-.1 1.1-.2 1.2-.8 2.3-1.6 3.2s-1.9 1.4-3.1 1.5c-.3 0-.5 0-.8-.1-.9-.2-1.6-.9-2.1-1.8-.5-1-.7-2.3-.5-3.4l.5.1c-.2 1 0 2.2.5 3.1.4.8 1 1.4 1.7 1.5.2 0 .5.1.7 0 1 0 2-.6 2.7-1.3.8-.8 1.3-1.8 1.5-2.9.1-.3.1-.7.1-1 0-.8-.3-1.5-.7-2s-.9-.7-1.5-.8c-.7 0-1.7.3-2.5.8-.6.4-1.2 1.1-1.3 1.8-.1.3-.1.7-.1 1 0 .5.1 1 .3 1.3.2.3.4.6.7.6h.2v.5z"/><ellipse fill="#120878" cx="27.5" cy="63.5" rx=".7" ry="1.3"/><g><path fill="#326CE5" d="M42.7 39.2c-.2.1-.3.2-.5.4L36 46.2c-.3.3-.6.8-.6 1.2L33.9 55c-.1.4 0 .6.2.8l.1.1 4.3 2.9c.2.2.6.1.9-.1l6.9-4c.4-.2.7-.6.9-1l4.3-7.8c.2-.4.3-.8.2-1.1L50.2 39c-.1-.3-.3-.5-.6-.4l-6.2.6c-.4-.2-.6-.1-.7 0z"/><path fill="#FFF" stroke="#FFF" stroke-width=".25" d="M42.7 41.5c-.2.1-.4.4-.4.6v.1c0 .1 0 .2.1.3 0 .2.1.4 0 .7 0 .1-.1.2-.1.3v.2c-.2.1-.4.3-.7.5-1 .8-1.8 1.8-2.4 2.8h-.1c-.1 0-.1.1-.2.1-.2 0-.3-.1-.5-.2-.1 0-.1-.1-.2-.1h-.1c-.1 0-.2 0-.3.1l-.3.3c-.1.2-.1.5.1.5h.4c.2 0 .4 0 .6.1.1 0 .1.1.1.2h.1c-.6 1.3-.9 2.7-.8 3.8l-.2.1c0 .1-.1.2-.2.3-.2.2-.4.3-.7.5-.1.1-.2.1-.4.2l-.1.1c-.2.2-.4.5-.3.6 0 .2.3.2.5 0l.1-.1.3-.3c.2-.2.5-.4.6-.6.1-.1.2 0 .2 0l.2-.1c.4.9 1.2 1.4 2.1 1.4l-.1.2s.1.1 0 .2c-.1.2-.2.5-.3.8-.1.1-.1.3-.2.4v.1c-.1.3 0 .5.2.4.2 0 .4-.2.5-.5v-.1c.1-.2.1-.3.1-.4.1-.3.2-.6.3-.8 0-.1.1-.1.2-.2l.1-.2c.9-.2 1.8-.6 2.8-1.4l.6-.6.1.1h.2c.1.1.2.3.3.5 0 .1.1.2.1.3v.1c.1.1.3.1.5-.1s.3-.5.2-.6V52l-.2-.2c-.1-.1-.3-.3-.3-.4v-.2s0-.1-.1-.1c1-1.2 1.8-2.6 2.1-3.9 0 0 .1-.1.2-.1l.2-.2c.2-.1.4-.1.6-.2.1 0 .2 0 .3-.1h.1c.2-.1.4-.3.5-.5 0-.2-.1-.3-.3-.3h-.1c-.1.1-.2.1-.4.2-.3.1-.5.2-.7.3-.1 0-.1 0-.2-.1h-.2c.1-.6.1-1.2-.1-1.7-.1-.5-.4-.9-.7-1.2 0-.1.1-.2.1-.2 0-.1 0-.1.1-.3s.3-.4.6-.7c.1-.1.2-.2.3-.4l.1-.1c.2-.2.2-.5.1-.6s-.4 0-.6.3l-.1.1c-.1.1-.2.3-.2.4-.2.3-.3.5-.5.7-.1.1-.2.1-.2.2l-.1.2c-.8-.4-1.9-.3-3.1.3V43s-.1 0-.1-.1v-.7c0-.1 0-.2.1-.4v-.1c.2-.3 0-.4-.2-.2zm-.5 3.1l-.1 2c0 .2-.2.4-.3.5-.1 0-.1.1-.2 0l-1.6-.2c.5-.8 1.1-1.5 1.8-2.1.2 0 .3-.1.4-.2zm1-.5c.8-.4 1.6-.5 2.2-.2l-1.6 2c-.1.2-.3.3-.5.2l-.1-.1v-1.9zM39.4 48l1.5.5c.1 0 .2.2 0 .4 0 .1-.1.2-.2.2l-1.9 1.6c0-.7.2-1.7.6-2.7zm6.6-3.7c.2.2.4.5.5.9s.1.8.1 1.2l-1.9.5c-.2.1-.3-.1-.2-.3 0-.1.1-.2.1-.2l1.4-2.1zm-3.6 3.4l.6-.3.4.3-.1.7-.5.6-.5.1-.1-.5.2-.9zm1.9.5c.1 0 .1 0 0 0l2-.8c-.3 1-.8 2-1.6 2.8l-.8-1.4c-.1-.1 0-.3.2-.5.1 0 .2-.1.2-.1zm-3.2 1.9c.1-.1.3-.1.3.1v.2l-.7 2.2c-.7 0-1.3-.4-1.5-1l1.9-1.5c-.1 0 0 0 0 0zm1.6-.1c.1 0 .1-.1.2-.1s.1 0 .1.1l.9 1.2c-.1.1-.2.2-.4.3-.7.6-1.4 1-2.1 1.1l.9-2.3c.2-.2.3-.3.4-.3z"/></g></svg>