<svg viewBox="0 0 56 56" xmlns="http://www.w3.org/2000/svg"><g fill="none"><path d="M28 56C12.5 56 0 43.5 0 28S12.5 0 28 0s28 12.5 28 28-12.5 28-28 28z" fill="#F26C4F"></path><path d="M18.454 37.546a2.476 2.476 0 0 1 0-3.536L34.01 18.454c.99-.99 2.546-.99 3.536 0s.99 2.546 0 3.536L21.99 37.546c-.99.99-2.546.99-3.536 0z" fill="#FFF"></path><path d="M18.454 18.454c.99-.99 2.546-.99 3.536 0L37.546 34.01c.99.99.99 2.546 0 3.536s-2.546.99-3.536 0L18.454 21.99a2.476 2.476 0 0 1 0-3.536z" fill="#FFF"></path></g></svg>