<svg viewBox="0 0 546 458" xmlns="http://www.w3.org/2000/svg"><style>.sans-serif{font-family:-apple-system,BlinkMacSystemFont,'avenir next', avenir,'helvetica neue',helvetica,ubuntu,roboto,noto,'segoe ui',arial,sans-serif}</style><g fill="none" fill-rule="evenodd"><path d="M239.507 219.319l27.987-16.45c1.546-.909 2.506-2.602 2.506-4.419v-32.9c0-1.817-.96-3.51-2.506-4.42l-27.987-16.45a4.954 4.954 0 0 0-5.012 0l-27.989 16.45c-1.546.91-2.506 2.604-2.506 4.42v32.9c0 1.817.961 3.51 2.506 4.418l27.989 16.45a4.95 4.95 0 0 0 5.012 0zm134 0l27.987-16.45c1.546-.909 2.506-2.602 2.506-4.419v-32.9c0-1.817-.96-3.51-2.506-4.42l-27.987-16.45a4.954 4.954 0 0 0-5.012 0l-27.989 16.45c-1.546.91-2.506 2.604-2.506 4.42v32.9c0 1.817.961 3.51 2.506 4.418l27.989 16.45a4.95 4.95 0 0 0 5.012 0zm134 0l27.987-16.45c1.546-.909 2.506-2.602 2.506-4.419v-32.9c0-1.817-.96-3.51-2.506-4.42l-27.987-16.45a4.954 4.954 0 0 0-5.012 0l-27.989 16.45c-1.546.91-2.506 2.604-2.506 4.42v32.9c0 1.817.961 3.51 2.506 4.418l27.989 16.45a4.95 4.95 0 0 0 5.012 0z" fill="#FFF900" fill-rule="nonzero"></path><path d="M239.507 338.319l27.987-16.45c1.546-.909 2.506-2.602 2.506-4.419v-32.9c0-1.817-.96-3.51-2.506-4.42l-27.987-16.45a4.954 4.954 0 0 0-5.012 0l-27.989 16.45c-1.546.91-2.506 2.604-2.506 4.42v32.9c0 1.817.961 3.51 2.506 4.418l27.989 16.45a4.95 4.95 0 0 0 5.012 0zm134 0l27.987-16.45c1.546-.909 2.506-2.602 2.506-4.419v-32.9c0-1.817-.96-3.51-2.506-4.42l-27.987-16.45a4.954 4.954 0 0 0-5.012 0l-27.989 16.45c-1.546.91-2.506 2.604-2.506 4.42v32.9c0 1.817.961 3.51 2.506 4.418l27.989 16.45a4.95 4.95 0 0 0 5.012 0zm134 0l27.987-16.45c1.546-.909 2.506-2.602 2.506-4.419v-32.9c0-1.817-.96-3.51-2.506-4.42l-27.987-16.45a4.954 4.954 0 0 0-5.012 0l-27.989 16.45c-1.546.91-2.506 2.604-2.506 4.42v32.9c0 1.817.961 3.51 2.506 4.418l27.989 16.45a4.95 4.95 0 0 0 5.012 0z" fill="#4AFF00" fill-rule="nonzero"></path><path d="M239.507 457.319l27.987-16.45c1.546-.909 2.506-2.602 2.506-4.419v-32.9c0-1.817-.96-3.51-2.506-4.42l-27.987-16.45a4.954 4.954 0 0 0-5.012 0l-27.989 16.45c-1.546.91-2.506 2.604-2.506 4.42v32.9c0 1.817.961 3.51 2.506 4.418l27.989 16.45a4.95 4.95 0 0 0 5.012 0zm134 0l27.987-16.45c1.546-.909 2.506-2.602 2.506-4.419v-32.9c0-1.817-.96-3.51-2.506-4.42l-27.987-16.45a4.954 4.954 0 0 0-5.012 0l-27.989 16.45c-1.546.91-2.506 2.604-2.506 4.42v32.9c0 1.817.961 3.51 2.506 4.418l27.989 16.45a4.95 4.95 0 0 0 5.012 0zm134 0l27.987-16.45c1.546-.909 2.506-2.602 2.506-4.419v-32.9c0-1.817-.96-3.51-2.506-4.42l-27.987-16.45a4.954 4.954 0 0 0-5.012 0l-27.989 16.45c-1.546.91-2.506 2.604-2.506 4.42v32.9c0 1.817.961 3.51 2.506 4.418l27.989 16.45a4.95 4.95 0 0 0 5.012 0z" fill="#FF5353" fill-rule="nonzero"></path><text font-size="28" font-weight="bold" letter-spacing="-.16" fill="#333" class="sans-serif"><tspan x="103.184" y="193">APP 1</tspan></text><text font-size="28" font-weight="bold" letter-spacing="-.16" fill="#333" class="sans-serif"><tspan x="259.174" y="28">ENVIRONMENTS</tspan></text><text transform="translate(17.500000, 301.000000) rotate(-90.000000) translate(-17.500000, -301.000000)" font-size="28" font-weight="bold" letter-spacing="-.16" fill="#333" class="sans-serif"><tspan x="-84.735" y="312">APPLICATIONS</tspan></text><text font-size="28" font-weight="bold" letter-spacing="-.16" fill="#333" class="sans-serif"><tspan x="208.454" y="122">DEV</tspan></text><text font-size="28" font-weight="bold" letter-spacing="-.16" fill="#333" class="sans-serif"><tspan x="336.041" y="122">TEST</tspan></text><text font-size="28" font-weight="bold" letter-spacing="-.16" fill="#333" class="sans-serif"><tspan x="465.372" y="122">PROD</tspan></text><text font-size="28" font-weight="bold" letter-spacing="-.16" fill="#333" class="sans-serif"><tspan x="103.184" y="312">APP 2</tspan></text><text font-size="28" font-weight="bold" letter-spacing="-.16" fill="#333" class="sans-serif"><tspan x="103.184" y="431">APP 3</tspan></text><g transform="translate(44.000000, 154.000000)"><path d="M1 148c11.905-6.401 18.072-13.217 18.5-20.447C23.805 54.84 7.615 2.22 38 0" stroke="#333" stroke-width="5"></path><path d="M1 147c11.905 6.401 18.072 13.217 18.5 20.447C23.805 240.16 7.615 292.78 38 295" stroke="#333" stroke-width="5"></path><path fill="#333" d="M0 146h5v4H0z"></path></g><g transform="translate(371.500000, 58.000000) rotate(90.000000) translate(-371.500000, -58.000000) translate(352.000000, -110.000000)"><path d="M1.5 168.5c11.905-7.266 18.072-15.003 18.5-23.21C24.305 62.75 8.115 3.02 38.5.5" stroke="#333" stroke-width="5"></path><path d="M1.5 167.5c11.905 7.266 18.072 15.003 18.5 23.21 4.305 82.54-11.885 142.27 18.5 144.79" stroke="#333" stroke-width="5"></path><path fill="#333" d="M.5 166.5h5v4h-5z"></path></g></g></svg>