<?xml version="1.0" encoding="UTF-8"?>
<svg width="800px" height="458px" viewBox="0 0 800 458" version="1.1" xmlns="http://www.w3.org/2000/svg" xmlns:xlink="http://www.w3.org/1999/xlink">
    <!-- Generator: Sketch 60.1 (88133) - https://sketch.com -->
    <title>apps-and-envs</title>
    <desc>Created with Sketch.</desc>
    <g id="apps-and-envs" stroke="none" stroke-width="1" fill="none" fill-rule="evenodd">
        <rect fill="#FFFFFF" x="0" y="0" width="800" height="458"></rect>
        <g id="Group" transform="translate(331.000000, 144.000000)" fill="#FFF900" fill-rule="nonzero">
            <path d="M70.3188394,35.4932564 L53.8689396,7.50607533 C52.9607255,5.95965978 51.2674335,5 49.4510054,5 L16.549845,5 C14.7327366,5 13.0394446,5.95965978 12.1305502,7.50607533 L-4.31934968,35.4932564 C-5.22688344,37.0403402 -5.22688344,38.9603281 -4.31934968,40.505407 L12.1305502,68.4939247 C13.0394446,70.0396719 14.7327366,71 16.549845,71 L49.450325,71 C51.2667532,71 52.9600452,70.0390036 53.8682593,68.4939247 L70.3188394,40.505407 C71.2270535,38.9603281 71.2270535,37.0403402 70.3188394,35.4932564 Z" id="Path" transform="translate(33.000000, 38.000000) rotate(90.000000) translate(-33.000000, -38.000000) "></path>
        </g>
        <g id="Group" transform="translate(465.000000, 144.000000)" fill="#FFF900" fill-rule="nonzero">
            <path d="M70.3188394,35.4932564 L53.8689396,7.50607533 C52.9607255,5.95965978 51.2674335,5 49.4510054,5 L16.549845,5 C14.7327366,5 13.0394446,5.95965978 12.1305502,7.50607533 L-4.31934968,35.4932564 C-5.22688344,37.0403402 -5.22688344,38.9603281 -4.31934968,40.505407 L12.1305502,68.4939247 C13.0394446,70.0396719 14.7327366,71 16.549845,71 L49.450325,71 C51.2667532,71 52.9600452,70.0390036 53.8682593,68.4939247 L70.3188394,40.505407 C71.2270535,38.9603281 71.2270535,37.0403402 70.3188394,35.4932564 Z" id="Path" transform="translate(33.000000, 38.000000) rotate(90.000000) translate(-33.000000, -38.000000) "></path>
        </g>
        <g id="Group" transform="translate(599.000000, 144.000000)" fill="#FFF900" fill-rule="nonzero">
            <path d="M70.3188394,35.4932564 L53.8689396,7.50607533 C52.9607255,5.95965978 51.2674335,5 49.4510054,5 L16.549845,5 C14.7327366,5 13.0394446,5.95965978 12.1305502,7.50607533 L-4.31934968,35.4932564 C-5.22688344,37.0403402 -5.22688344,38.9603281 -4.31934968,40.505407 L12.1305502,68.4939247 C13.0394446,70.0396719 14.7327366,71 16.549845,71 L49.450325,71 C51.2667532,71 52.9600452,70.0390036 53.8682593,68.4939247 L70.3188394,40.505407 C71.2270535,38.9603281 71.2270535,37.0403402 70.3188394,35.4932564 Z" id="Path" transform="translate(33.000000, 38.000000) rotate(90.000000) translate(-33.000000, -38.000000) "></path>
        </g>
        <g id="Group" transform="translate(331.000000, 263.000000)" fill="#4AFF00" fill-rule="nonzero">
            <path d="M70.3188394,35.4932564 L53.8689396,7.50607533 C52.9607255,5.95965978 51.2674335,5 49.4510054,5 L16.549845,5 C14.7327366,5 13.0394446,5.95965978 12.1305502,7.50607533 L-4.31934968,35.4932564 C-5.22688344,37.0403402 -5.22688344,38.9603281 -4.31934968,40.505407 L12.1305502,68.4939247 C13.0394446,70.0396719 14.7327366,71 16.549845,71 L49.450325,71 C51.2667532,71 52.9600452,70.0390036 53.8682593,68.4939247 L70.3188394,40.505407 C71.2270535,38.9603281 71.2270535,37.0403402 70.3188394,35.4932564 Z" id="Path" transform="translate(33.000000, 38.000000) rotate(90.000000) translate(-33.000000, -38.000000) "></path>
        </g>
        <g id="Group" transform="translate(465.000000, 263.000000)" fill="#4AFF00" fill-rule="nonzero">
            <path d="M70.3188394,35.4932564 L53.8689396,7.50607533 C52.9607255,5.95965978 51.2674335,5 49.4510054,5 L16.549845,5 C14.7327366,5 13.0394446,5.95965978 12.1305502,7.50607533 L-4.31934968,35.4932564 C-5.22688344,37.0403402 -5.22688344,38.9603281 -4.31934968,40.505407 L12.1305502,68.4939247 C13.0394446,70.0396719 14.7327366,71 16.549845,71 L49.450325,71 C51.2667532,71 52.9600452,70.0390036 53.8682593,68.4939247 L70.3188394,40.505407 C71.2270535,38.9603281 71.2270535,37.0403402 70.3188394,35.4932564 Z" id="Path" transform="translate(33.000000, 38.000000) rotate(90.000000) translate(-33.000000, -38.000000) "></path>
        </g>
        <g id="Group" transform="translate(599.000000, 263.000000)" fill="#4AFF00" fill-rule="nonzero">
            <path d="M70.3188394,35.4932564 L53.8689396,7.50607533 C52.9607255,5.95965978 51.2674335,5 49.4510054,5 L16.549845,5 C14.7327366,5 13.0394446,5.95965978 12.1305502,7.50607533 L-4.31934968,35.4932564 C-5.22688344,37.0403402 -5.22688344,38.9603281 -4.31934968,40.505407 L12.1305502,68.4939247 C13.0394446,70.0396719 14.7327366,71 16.549845,71 L49.450325,71 C51.2667532,71 52.9600452,70.0390036 53.8682593,68.4939247 L70.3188394,40.505407 C71.2270535,38.9603281 71.2270535,37.0403402 70.3188394,35.4932564 Z" id="Path" transform="translate(33.000000, 38.000000) rotate(90.000000) translate(-33.000000, -38.000000) "></path>
        </g>
        <g id="Group" transform="translate(331.000000, 382.000000)" fill="#FF5353" fill-rule="nonzero">
            <path d="M70.3188394,35.4932564 L53.8689396,7.50607533 C52.9607255,5.95965978 51.2674335,5 49.4510054,5 L16.549845,5 C14.7327366,5 13.0394446,5.95965978 12.1305502,7.50607533 L-4.31934968,35.4932564 C-5.22688344,37.0403402 -5.22688344,38.9603281 -4.31934968,40.505407 L12.1305502,68.4939247 C13.0394446,70.0396719 14.7327366,71 16.549845,71 L49.450325,71 C51.2667532,71 52.9600452,70.0390036 53.8682593,68.4939247 L70.3188394,40.505407 C71.2270535,38.9603281 71.2270535,37.0403402 70.3188394,35.4932564 Z" id="Path" transform="translate(33.000000, 38.000000) rotate(90.000000) translate(-33.000000, -38.000000) "></path>
        </g>
        <g id="Group" transform="translate(465.000000, 382.000000)" fill="#FF5353" fill-rule="nonzero">
            <path d="M70.3188394,35.4932564 L53.8689396,7.50607533 C52.9607255,5.95965978 51.2674335,5 49.4510054,5 L16.549845,5 C14.7327366,5 13.0394446,5.95965978 12.1305502,7.50607533 L-4.31934968,35.4932564 C-5.22688344,37.0403402 -5.22688344,38.9603281 -4.31934968,40.505407 L12.1305502,68.4939247 C13.0394446,70.0396719 14.7327366,71 16.549845,71 L49.450325,71 C51.2667532,71 52.9600452,70.0390036 53.8682593,68.4939247 L70.3188394,40.505407 C71.2270535,38.9603281 71.2270535,37.0403402 70.3188394,35.4932564 Z" id="Path" transform="translate(33.000000, 38.000000) rotate(90.000000) translate(-33.000000, -38.000000) "></path>
        </g>
        <g id="Group" transform="translate(599.000000, 382.000000)" fill="#FF5353" fill-rule="nonzero">
            <path d="M70.3188394,35.4932564 L53.8689396,7.50607533 C52.9607255,5.95965978 51.2674335,5 49.4510054,5 L16.549845,5 C14.7327366,5 13.0394446,5.95965978 12.1305502,7.50607533 L-4.31934968,35.4932564 C-5.22688344,37.0403402 -5.22688344,38.9603281 -4.31934968,40.505407 L12.1305502,68.4939247 C13.0394446,70.0396719 14.7327366,71 16.549845,71 L49.450325,71 C51.2667532,71 52.9600452,70.0390036 53.8682593,68.4939247 L70.3188394,40.505407 C71.2270535,38.9603281 71.2270535,37.0403402 70.3188394,35.4932564 Z" id="Path" transform="translate(33.000000, 38.000000) rotate(90.000000) translate(-33.000000, -38.000000) "></path>
        </g>
        <text id="APP-1" font-family="Helvetica-Bold, Helvetica" font-size="28" font-weight="bold" letter-spacing="-0.16" fill="#333333">
            <tspan x="230.18418" y="193">APP 1</tspan>
        </text>
        <text id="ENVIRONMENTS" font-family="Helvetica-Bold, Helvetica" font-size="28" font-weight="bold" letter-spacing="-0.16" fill="#333333">
            <tspan x="386.173867" y="28">ENVIRONMENTS</tspan>
        </text>
        <text id="APPLICATIONS" transform="translate(144.500000, 301.000000) rotate(-90.000000) translate(-144.500000, -301.000000) " font-family="Helvetica-Bold, Helvetica" font-size="28" font-weight="bold" letter-spacing="-0.16" fill="#333333">
            <tspan x="42.2646875" y="312">APPLICATIONS</tspan>
        </text>
        <text id="DEV" font-family="Helvetica-Bold, Helvetica" font-size="28" font-weight="bold" letter-spacing="-0.16" fill="#333333">
            <tspan x="335.453867" y="122">DEV</tspan>
        </text>
        <text id="TEST" font-family="Helvetica-Bold, Helvetica" font-size="28" font-weight="bold" letter-spacing="-0.16" fill="#333333">
            <tspan x="463.040703" y="122">TEST</tspan>
        </text>
        <text id="PROD" font-family="Helvetica-Bold, Helvetica" font-size="28" font-weight="bold" letter-spacing="-0.16" fill="#333333">
            <tspan x="592.371758" y="122">PROD</tspan>
        </text>
        <text id="APP-2" font-family="Helvetica-Bold, Helvetica" font-size="28" font-weight="bold" letter-spacing="-0.16" fill="#333333">
            <tspan x="230.18418" y="312">APP 2</tspan>
        </text>
        <text id="APP-3" font-family="Helvetica-Bold, Helvetica" font-size="28" font-weight="bold" letter-spacing="-0.16" fill="#333333">
            <tspan x="230.18418" y="431">APP 3</tspan>
        </text>
        <g id="Group-2" transform="translate(171.000000, 154.000000)">
            <path d="M1,148 C12.9052989,141.598894 19.0719655,134.783348 19.5,127.553364 C23.8048771,54.8391417 7.61483034,2.2199593 38,0" id="Path-2" stroke="#333333" stroke-width="5"></path>
            <path d="M1,295 C12.9052989,288.598894 19.0719655,281.783348 19.5,274.553364 C23.8048771,201.839142 7.61483034,149.219959 38,147" id="Path-2" stroke="#333333" stroke-width="5" transform="translate(19.500000, 221.000000) scale(1, -1) translate(-19.500000, -221.000000) "></path>
            <rect id="Rectangle" fill="#333333" x="0" y="146" width="5" height="4"></rect>
        </g>
        <g id="Group-2" transform="translate(498.500000, 58.000000) rotate(90.000000) translate(-498.500000, -58.000000) translate(479.000000, -110.000000)">
            <path d="M1.5,168.5 C13.4052989,161.233879 19.5719655,153.497314 20,145.290305 C24.3048771,62.7498365 8.11483034,3.0199538 38.5,0.5" id="Path-2" stroke="#333333" stroke-width="5"></path>
            <path d="M1.5,335.5 C13.4052989,328.233879 19.5719655,320.497314 20,312.290305 C24.3048771,229.749836 8.11483034,170.019954 38.5,167.5" id="Path-2" stroke="#333333" stroke-width="5" transform="translate(20.000000, 251.500000) scale(1, -1) translate(-20.000000, -251.500000) "></path>
            <rect id="Rectangle" fill="#333333" x="0.5" y="166.5" width="5" height="4"></rect>
        </g>
    </g>
</svg>