<svg viewBox="0 0 640 611" xmlns="http://www.w3.org/2000/svg"><style>.sans-serif{font-family:-apple-system,BlinkMacSystemFont,'avenir next', avenir,'helvetica neue',helvetica,ubuntu,roboto,noto,'segoe ui',arial,sans-serif}</style><g fill="none" fill-rule="evenodd"><path d="M318.018.05a38.113 38.113 0 0 0-14.573 3.706L104.59 99.284a37.937 37.937 0 0 0-20.575 25.723l-49.06 214.579a37.829 37.829 0 0 0 5.163 29.072 37.92 37.92 0 0 0 2.162 3.018l137.64 172.057A38.077 38.077 0 0 0 209.65 558l220.727-.051a38.068 38.068 0 0 0 29.731-14.242l137.59-172.082a37.837 37.837 0 0 0 7.349-32.09l-49.135-214.58a37.938 37.938 0 0 0-20.575-25.722L336.456 3.756A38.118 38.118 0 0 0 318.018.05z" fill="#326CE5" fill-rule="nonzero"></path><g transform="translate(144.000000, 107.000000)"><g transform="translate(0.000000, 50.523125)"><path d="M35.507 75.319l27.987-16.45C65.04 57.96 66 56.267 66 54.45v-32.9c0-1.817-.96-3.51-2.506-4.42L35.507.68a4.954 4.954 0 0 0-5.012 0L2.506 17.13C.96 18.04 0 19.734 0 21.55v32.9c0 1.817.961 3.51 2.506 4.418l27.989 16.45a4.95 4.95 0 0 0 5.012 0z" fill="#FFF900" fill-rule="nonzero"></path><text font-size="19" font-weight="bold" letter-spacing="-.16" fill="#333" class="sans-serif"><tspan x="13.73" y="45.477">DEV</tspan></text></g><g transform="translate(74.000000, 50.523125)"><path d="M35.507 75.319l27.987-16.45C65.04 57.96 66 56.267 66 54.45v-32.9c0-1.817-.96-3.51-2.506-4.42L35.507.68a4.954 4.954 0 0 0-5.012 0L2.506 17.13C.96 18.04 0 19.734 0 21.55v32.9c0 1.817.961 3.51 2.506 4.418l27.989 16.45a4.95 4.95 0 0 0 5.012 0z" fill="#FFF900" fill-rule="nonzero"></path><text font-size="19" font-weight="bold" letter-spacing="-.16" fill="#333" class="sans-serif"><tspan x="8.564" y="45.477">TEST</tspan></text></g><g transform="translate(37.000000, 114.523125)"><path d="M35.507 75.319l27.987-16.45C65.04 57.96 66 56.267 66 54.45v-32.9c0-1.817-.96-3.51-2.506-4.42L35.507.68a4.954 4.954 0 0 0-5.012 0L2.506 17.13C.96 18.04 0 19.734 0 21.55v32.9c0 1.817.961 3.51 2.506 4.418l27.989 16.45a4.95 4.95 0 0 0 5.012 0z" fill="#FFF900" fill-rule="nonzero"></path><text font-size="19" font-weight="bold" letter-spacing="-.16" fill="#333" class="sans-serif"><tspan x="5.896" y="45.477">PROD</tspan></text></g><text font-size="38" font-weight="bold" letter-spacing="-.16" fill="#FFF" class="sans-serif"><tspan x="15.845" y="37">APP 1</tspan></text></g><g transform="translate(356.000000, 107.000000)"><g transform="translate(0.000000, 50.523125)"><path d="M35.507 75.319l27.987-16.45C65.04 57.96 66 56.267 66 54.45v-32.9c0-1.817-.96-3.51-2.506-4.42L35.507.68a4.954 4.954 0 0 0-5.012 0L2.506 17.13C.96 18.04 0 19.734 0 21.55v32.9c0 1.817.961 3.51 2.506 4.418l27.989 16.45a4.95 4.95 0 0 0 5.012 0z" fill="#4AFF00" fill-rule="nonzero"></path><text font-size="19" font-weight="bold" letter-spacing="-.16" fill="#333" class="sans-serif"><tspan x="13.73" y="45.477">DEV</tspan></text></g><g transform="translate(74.000000, 50.523125)"><path d="M35.507 75.319l27.987-16.45C65.04 57.96 66 56.267 66 54.45v-32.9c0-1.817-.96-3.51-2.506-4.42L35.507.68a4.954 4.954 0 0 0-5.012 0L2.506 17.13C.96 18.04 0 19.734 0 21.55v32.9c0 1.817.961 3.51 2.506 4.418l27.989 16.45a4.95 4.95 0 0 0 5.012 0z" fill="#4AFF00" fill-rule="nonzero"></path><text font-size="19" font-weight="bold" letter-spacing="-.16" fill="#333" class="sans-serif"><tspan x="8.564" y="45.477">TEST</tspan></text></g><g transform="translate(37.000000, 114.523125)"><path d="M35.507 75.319l27.987-16.45C65.04 57.96 66 56.267 66 54.45v-32.9c0-1.817-.96-3.51-2.506-4.42L35.507.68a4.954 4.954 0 0 0-5.012 0L2.506 17.13C.96 18.04 0 19.734 0 21.55v32.9c0 1.817.961 3.51 2.506 4.418l27.989 16.45a4.95 4.95 0 0 0 5.012 0z" fill="#4AFF00" fill-rule="nonzero"></path><text font-size="19" font-weight="bold" letter-spacing="-.16" fill="#333" class="sans-serif"><tspan x="5.896" y="45.477">PROD</tspan></text></g><text font-size="38" font-weight="bold" letter-spacing="-.16" fill="#FFF" class="sans-serif"><tspan x="15.845" y="37">APP 2</tspan></text></g><g transform="translate(250.000000, 317.000000)"><g transform="translate(0.000000, 50.523125)"><path d="M35.507 75.319l27.987-16.45C65.04 57.96 66 56.267 66 54.45v-32.9c0-1.817-.96-3.51-2.506-4.42L35.507.68a4.954 4.954 0 0 0-5.012 0L2.506 17.13C.96 18.04 0 19.734 0 21.55v32.9c0 1.817.961 3.51 2.506 4.418l27.989 16.45a4.95 4.95 0 0 0 5.012 0z" fill="#FF5353" fill-rule="nonzero"></path><text font-size="19" font-weight="bold" letter-spacing="-.16" fill="#333" class="sans-serif"><tspan x="13.73" y="45.477">DEV</tspan></text></g><g transform="translate(74.000000, 50.523125)"><path d="M35.507 75.319l27.987-16.45C65.04 57.96 66 56.267 66 54.45v-32.9c0-1.817-.96-3.51-2.506-4.42L35.507.68a4.954 4.954 0 0 0-5.012 0L2.506 17.13C.96 18.04 0 19.734 0 21.55v32.9c0 1.817.961 3.51 2.506 4.418l27.989 16.45a4.95 4.95 0 0 0 5.012 0z" fill="#FF5353" fill-rule="nonzero"></path><text font-size="19" font-weight="bold" letter-spacing="-.16" fill="#333" class="sans-serif"><tspan x="8.564" y="45.477">TEST</tspan></text></g><g transform="translate(37.000000, 114.523125)"><path d="M35.507 75.319l27.987-16.45C65.04 57.96 66 56.267 66 54.45v-32.9c0-1.817-.96-3.51-2.506-4.42L35.507.68a4.954 4.954 0 0 0-5.012 0L2.506 17.13C.96 18.04 0 19.734 0 21.55v32.9c0 1.817.961 3.51 2.506 4.418l27.989 16.45a4.95 4.95 0 0 0 5.012 0z" fill="#FF5353" fill-rule="nonzero"></path><text font-size="19" font-weight="bold" letter-spacing="-.16" fill="#333" class="sans-serif"><tspan x="5.896" y="45.477">PROD</tspan></text></g><text font-size="38" font-weight="bold" letter-spacing="-.16" fill="#FFF" class="sans-serif"><tspan x="15.845" y="37">APP 3</tspan></text></g><path d="M203.394 602v-10.81a19.059 19.059 0 0 1 2.374 2.303 40.226 40.226 0 0 1 2.279 2.843 66.96 66.96 0 0 1 2.044 2.962 127.66 127.66 0 0 1 1.716 2.702h8.037a48.256 48.256 0 0 0-1.974-3.431 53.769 53.769 0 0 0-2.585-3.76 74.127 74.127 0 0 0-2.914-3.642c-1.003-1.176-1.974-2.186-2.914-3.032a134.985 134.985 0 0 0 5.194-5.381 319.807 319.807 0 0 0 4.864-5.476h-8.319c-.439.533-.964 1.16-1.575 1.88-.61.72-1.26 1.48-1.95 2.28-.69.798-1.402 1.605-2.138 2.42-.737.815-1.45 1.598-2.139 2.35v-20.68l-7.003 1.128V602h7.003zm30.155.564a37.85 37.85 0 0 0 5.922-.447c1.88-.297 3.415-.618 4.606-.963v-23.876h-7.003v19.082c-.439.063-.94.117-1.504.164a19.29 19.29 0 0 1-1.598.071c-1.63 0-2.742-.501-3.337-1.504-.595-1.003-.893-2.632-.893-4.888v-12.925h-7.003v13.771c0 1.692.172 3.243.517 4.653.345 1.41.924 2.624 1.739 3.643.815 1.018 1.92 1.809 3.314 2.373 1.394.564 3.14.846 5.24.846zm27.053.047c2.037 0 3.854-.305 5.452-.917 1.598-.61 2.945-1.48 4.042-2.608 1.097-1.128 1.935-2.491 2.514-4.089.58-1.598.87-3.384.87-5.358 0-1.943-.235-3.705-.705-5.288-.47-1.582-1.16-2.937-2.068-4.065a9.112 9.112 0 0 0-3.384-2.608c-1.347-.611-2.898-.917-4.653-.917-.971 0-1.88.094-2.726.282a13.12 13.12 0 0 0-2.444.799v-12.314l-7.003 1.128v34.545c.627.188 1.347.368 2.162.54a37.71 37.71 0 0 0 2.561.447 50.94 50.94 0 0 0 2.727.306c.924.078 1.809.117 2.655.117zm-.047-5.969c-.627 0-1.206-.024-1.739-.07a14.929 14.929 0 0 1-1.316-.165V583.67c.439-.282 1.01-.517 1.716-.705a8.266 8.266 0 0 1 2.138-.282c3.321 0 4.982 2.256 4.982 6.768 0 2.162-.486 3.901-1.457 5.217-.971 1.316-2.413 1.974-4.324 1.974zm30.061 6.016c.877 0 1.755-.047 2.632-.141a33.42 33.42 0 0 0 2.468-.353 19.68 19.68 0 0 0 2.091-.493c.627-.188 1.128-.376 1.504-.564l-.94-5.687c-.783.345-1.794.635-3.031.87a20.238 20.238 0 0 1-3.784.352c-2.005 0-3.603-.423-4.794-1.269-1.19-.846-1.864-1.99-2.021-3.431h15.886c.031-.376.063-.807.094-1.293.031-.485.047-.932.047-1.339 0-4.167-1.018-7.324-3.055-9.47-2.037-2.147-4.81-3.22-8.319-3.22-1.504 0-2.969.282-4.394.846a11.047 11.047 0 0 0-3.784 2.491c-1.097 1.097-1.982 2.467-2.656 4.112-.673 1.646-1.01 3.565-1.01 5.758 0 1.817.258 3.51.775 5.076.517 1.567 1.317 2.922 2.398 4.065 1.08 1.144 2.443 2.045 4.089 2.703 1.644.658 3.58.987 5.804.987zm3.384-15.51h-9.259c.094-.595.243-1.183.447-1.763a4.73 4.73 0 0 1 .869-1.527 4.176 4.176 0 0 1 1.41-1.057c.564-.267 1.238-.4 2.021-.4.815 0 1.496.141 2.045.423a4.254 4.254 0 0 1 1.363 1.081c.36.439.626.94.798 1.504.173.564.275 1.144.306 1.739zM313.016 602v-18.894c.313-.094.775-.18 1.386-.259a12.649 12.649 0 0 1 1.575-.117c.971 0 1.88.086 2.726.259.846.172 1.582.336 2.209.493l1.175-5.781a7.519 7.519 0 0 0-1.363-.4 28.45 28.45 0 0 0-3.196-.47 15.87 15.87 0 0 0-1.363-.07c-2.1 0-4.003.196-5.71.587-1.708.392-3.189.807-4.442 1.246V602h7.003zm19.674 0v-19.082c.439-.063.94-.117 1.504-.164a19.29 19.29 0 0 1 1.598-.071c1.63 0 2.742.47 3.337 1.41.595.94.893 2.538.893 4.794V602h7.003v-13.959c0-1.692-.172-3.227-.517-4.606-.345-1.379-.924-2.57-1.739-3.572-.815-1.003-1.92-1.778-3.314-2.327-1.394-.548-3.14-.822-5.24-.822a37.85 37.85 0 0 0-5.922.446c-1.88.298-3.415.62-4.606.964V602h7.003zm32.411.658c.877 0 1.755-.047 2.632-.141.877-.094 1.7-.212 2.467-.353a19.68 19.68 0 0 0 2.092-.493c.627-.188 1.128-.376 1.504-.564l-.94-5.687c-.783.345-1.794.635-3.031.87a20.238 20.238 0 0 1-3.784.352c-2.005 0-3.603-.423-4.794-1.269-1.19-.846-1.864-1.99-2.021-3.431h15.886c.031-.376.063-.807.094-1.293.031-.485.047-.932.047-1.339 0-4.167-1.018-7.324-3.055-9.47-2.037-2.147-4.81-3.22-8.319-3.22-1.504 0-2.969.282-4.394.846a11.047 11.047 0 0 0-3.784 2.491c-1.097 1.097-1.982 2.467-2.656 4.112-.673 1.646-1.01 3.565-1.01 5.758 0 1.817.258 3.51.775 5.076.517 1.567 1.317 2.922 2.397 4.065 1.082 1.144 2.445 2.045 4.09 2.703 1.644.658 3.58.987 5.804.987zm3.384-15.51h-9.259c.094-.595.243-1.183.447-1.763a4.73 4.73 0 0 1 .869-1.527 4.176 4.176 0 0 1 1.41-1.057c.564-.267 1.238-.4 2.021-.4.815 0 1.496.141 2.044.423a4.254 4.254 0 0 1 1.363 1.081c.36.439.627.94.8 1.504a7.23 7.23 0 0 1 .305 1.739zm21.554 15.416c1.504 0 2.773-.125 3.807-.376a19.925 19.925 0 0 0 2.82-.893l-.987-5.452a11.99 11.99 0 0 1-2.185.588 13.38 13.38 0 0 1-2.327.211c-1.567 0-2.608-.439-3.125-1.316-.517-.877-.776-2.052-.776-3.525v-8.695h8.413v-5.828h-8.413v-7.285l-7.003 1.128v20.774c0 1.598.149 3.055.447 4.371.297 1.316.822 2.436 1.574 3.36.752.925 1.755 1.645 3.008 2.163 1.253.517 2.836.775 4.747.775zm22.118.094c.877 0 1.755-.047 2.632-.141a33.42 33.42 0 0 0 2.468-.353 19.68 19.68 0 0 0 2.091-.493c.627-.188 1.128-.376 1.504-.564l-.94-5.687c-.783.345-1.794.635-3.031.87a20.238 20.238 0 0 1-3.784.352c-2.005 0-3.603-.423-4.794-1.269-1.19-.846-1.864-1.99-2.021-3.431h15.886c.031-.376.063-.807.094-1.293.031-.485.047-.932.047-1.339 0-4.167-1.018-7.324-3.055-9.47-2.037-2.147-4.81-3.22-8.319-3.22-1.504 0-2.969.282-4.394.846a11.047 11.047 0 0 0-3.784 2.491c-1.097 1.097-1.982 2.467-2.656 4.112-.673 1.646-1.01 3.565-1.01 5.758 0 1.817.258 3.51.775 5.076.518 1.567 1.317 2.922 2.398 4.065 1.08 1.144 2.443 2.045 4.089 2.703 1.644.658 3.58.987 5.804.987zm3.384-15.51h-9.259c.094-.595.243-1.183.447-1.763a4.73 4.73 0 0 1 .869-1.527 4.176 4.176 0 0 1 1.41-1.057c.564-.267 1.238-.4 2.021-.4.815 0 1.496.141 2.045.423a4.254 4.254 0 0 1 1.363 1.081c.36.439.626.94.798 1.504.173.564.275 1.144.306 1.739zm19.063 15.51c3.353 0 5.946-.627 7.779-1.88 1.833-1.253 2.749-3.102 2.749-5.546 0-1.034-.118-1.943-.353-2.726a5.545 5.545 0 0 0-1.221-2.139c-.58-.642-1.371-1.237-2.374-1.785-1.003-.549-2.272-1.105-3.807-1.669a22.55 22.55 0 0 1-1.856-.775 7.86 7.86 0 0 1-1.152-.659c-.282-.203-.47-.415-.564-.634a1.893 1.893 0 0 1-.141-.752c0-1.222 1.097-1.833 3.29-1.833 1.19 0 2.264.11 3.22.329.955.22 1.84.47 2.655.752l1.222-5.452c-.815-.313-1.911-.603-3.29-.87a22.789 22.789 0 0 0-4.324-.399c-3.008 0-5.374.674-7.097 2.021-1.723 1.347-2.585 3.18-2.585 5.499 0 1.19.172 2.209.517 3.055.345.846.83 1.574 1.457 2.185.627.611 1.387 1.136 2.28 1.575a32.27 32.27 0 0 0 2.984 1.269c1.41.533 2.46 1.01 3.149 1.433.69.423 1.034.917 1.034 1.481 0 .72-.266 1.206-.799 1.457-.533.25-1.441.376-2.726.376a17.78 17.78 0 0 1-3.713-.4 22.972 22.972 0 0 1-3.666-1.104l-1.175 5.687c.564.25 1.575.564 3.031.94 1.458.376 3.283.564 5.476.564z" fill="#000" fill-rule="nonzero"></path></g></svg>