<svg viewBox="0 0 640 531" xmlns="http://www.w3.org/2000/svg"><style>.sans-serif{font-family:-apple-system,BlinkMacSystemFont,'avenir next', avenir,'helvetica neue',helvetica,ubuntu,roboto,noto,'segoe ui',arial,sans-serif}</style><g fill="none" fill-rule="evenodd"><path d="M117.508.012a9.436 9.436 0 0 0-3.618.924L64.524 24.732a9.444 9.444 0 0 0-5.108 6.408L47.237 84.592a9.45 9.45 0 0 0 1.282 7.242c.166.26.345.51.537.752l34.169 42.86a9.44 9.44 0 0 0 7.38 3.554l54.796-.013a9.438 9.438 0 0 0 7.381-3.547l34.157-42.867a9.45 9.45 0 0 0 1.824-7.993l-12.197-53.453a9.444 9.444 0 0 0-5.108-6.408L122.085.936a9.435 9.435 0 0 0-4.577-.924z" fill="#326CE5" fill-rule="nonzero"></path><g transform="translate(85.000000, 36.000000)"><path d="M35.507 75.319l27.987-16.45C65.04 57.96 66 56.267 66 54.45v-32.9c0-1.817-.96-3.51-2.506-4.42L35.507.68a4.954 4.954 0 0 0-5.012 0L2.506 17.13C.96 18.04 0 19.734 0 21.55v32.9c0 1.817.961 3.51 2.506 4.418l27.989 16.45a4.95 4.95 0 0 0 5.012 0z" fill="#FFF900" fill-rule="nonzero"></path><text font-size="19" font-weight="bold" letter-spacing="-.16" fill="#333" class="sans-serif"><tspan x="6.111" y="34">APP 1</tspan> <tspan x="13.707" y="57">DEV</tspan></text></g><path d="M318.508.012a9.436 9.436 0 0 0-3.618.924l-49.366 23.796a9.444 9.444 0 0 0-5.108 6.408l-12.179 53.452a9.45 9.45 0 0 0 1.282 7.242c.166.26.345.51.537.752l34.169 42.86a9.44 9.44 0 0 0 7.38 3.554l54.796-.013a9.438 9.438 0 0 0 7.381-3.547l34.157-42.867a9.45 9.45 0 0 0 1.824-7.993l-12.197-53.453a9.444 9.444 0 0 0-5.108-6.408L323.085.936a9.435 9.435 0 0 0-4.577-.924z" fill="#326CE5" fill-rule="nonzero"></path><g transform="translate(286.000000, 36.000000)"><path d="M35.507 75.319l27.987-16.45C65.04 57.96 66 56.267 66 54.45v-32.9c0-1.817-.96-3.51-2.506-4.42L35.507.68a4.954 4.954 0 0 0-5.012 0L2.506 17.13C.96 18.04 0 19.734 0 21.55v32.9c0 1.817.961 3.51 2.506 4.418l27.989 16.45a4.95 4.95 0 0 0 5.012 0z" fill="#FFF900" fill-rule="nonzero"></path><text font-size="19" font-weight="bold" letter-spacing="-.16" fill="#333" class="sans-serif"><tspan x="6.111" y="34">APP 1</tspan> <tspan x="9.041" y="57">TEST</tspan></text></g><path d="M519.508.012a9.436 9.436 0 0 0-3.618.924l-49.366 23.796a9.444 9.444 0 0 0-5.108 6.408l-12.179 53.452a9.45 9.45 0 0 0 1.282 7.242c.166.26.345.51.537.752l34.169 42.86a9.44 9.44 0 0 0 7.38 3.554l54.796-.013a9.438 9.438 0 0 0 7.381-3.547l34.157-42.867a9.45 9.45 0 0 0 1.824-7.993l-12.197-53.453a9.444 9.444 0 0 0-5.108-6.408L524.085.936a9.435 9.435 0 0 0-4.577-.924z" fill="#326CE5" fill-rule="nonzero"></path><g transform="translate(487.000000, 36.000000)"><path d="M35.507 75.319l27.987-16.45C65.04 57.96 66 56.267 66 54.45v-32.9c0-1.817-.96-3.51-2.506-4.42L35.507.68a4.954 4.954 0 0 0-5.012 0L2.506 17.13C.96 18.04 0 19.734 0 21.55v32.9c0 1.817.961 3.51 2.506 4.418l27.989 16.45a4.95 4.95 0 0 0 5.012 0z" fill="#FFF900" fill-rule="nonzero"></path><text font-size="19" font-weight="bold" letter-spacing="-.16" fill="#333" class="sans-serif"><tspan x="6.111" y="34">APP 1</tspan> <tspan x="5.873" y="57">PROD</tspan></text></g><path d="M117.508 189.012a9.436 9.436 0 0 0-3.618.924l-49.366 23.796a9.444 9.444 0 0 0-5.108 6.408l-12.179 53.452a9.45 9.45 0 0 0 1.282 7.242c.166.26.345.51.537.752l34.169 42.86a9.44 9.44 0 0 0 7.38 3.554l54.796-.013a9.438 9.438 0 0 0 7.381-3.547l34.157-42.867a9.45 9.45 0 0 0 1.824-7.993l-12.197-53.453a9.444 9.444 0 0 0-5.108-6.408l-49.373-23.783a9.435 9.435 0 0 0-4.577-.924z" fill="#326CE5" fill-rule="nonzero"></path><g transform="translate(85.000000, 225.000000)"><path d="M35.507 75.319l27.987-16.45C65.04 57.96 66 56.267 66 54.45v-32.9c0-1.817-.96-3.51-2.506-4.42L35.507.68a4.954 4.954 0 0 0-5.012 0L2.506 17.13C.96 18.04 0 19.734 0 21.55v32.9c0 1.817.961 3.51 2.506 4.418l27.989 16.45a4.95 4.95 0 0 0 5.012 0z" fill="#4AFF00" fill-rule="nonzero"></path><text font-size="19" font-weight="bold" letter-spacing="-.16" fill="#333" class="sans-serif"><tspan x="6.111" y="34">APP 2</tspan> <tspan x="13.707" y="57">DEV</tspan></text></g><path d="M318.508 189.012a9.436 9.436 0 0 0-3.618.924l-49.366 23.796a9.444 9.444 0 0 0-5.108 6.408l-12.179 53.452a9.45 9.45 0 0 0 1.282 7.242c.166.26.345.51.537.752l34.169 42.86a9.44 9.44 0 0 0 7.38 3.554l54.796-.013a9.438 9.438 0 0 0 7.381-3.547l34.157-42.867a9.45 9.45 0 0 0 1.824-7.993l-12.197-53.453a9.444 9.444 0 0 0-5.108-6.408l-49.373-23.783a9.435 9.435 0 0 0-4.577-.924z" fill="#326CE5" fill-rule="nonzero"></path><g transform="translate(286.000000, 225.000000)"><path d="M35.507 75.319l27.987-16.45C65.04 57.96 66 56.267 66 54.45v-32.9c0-1.817-.96-3.51-2.506-4.42L35.507.68a4.954 4.954 0 0 0-5.012 0L2.506 17.13C.96 18.04 0 19.734 0 21.55v32.9c0 1.817.961 3.51 2.506 4.418l27.989 16.45a4.95 4.95 0 0 0 5.012 0z" fill="#4AFF00" fill-rule="nonzero"></path><text font-size="19" font-weight="bold" letter-spacing="-.16" fill="#333" class="sans-serif"><tspan x="6.111" y="34">APP 2</tspan> <tspan x="9.041" y="57">TEST</tspan></text></g><path d="M519.508 189.012a9.436 9.436 0 0 0-3.618.924l-49.366 23.796a9.444 9.444 0 0 0-5.108 6.408l-12.179 53.452a9.45 9.45 0 0 0 1.282 7.242c.166.26.345.51.537.752l34.169 42.86a9.44 9.44 0 0 0 7.38 3.554l54.796-.013a9.438 9.438 0 0 0 7.381-3.547l34.157-42.867a9.45 9.45 0 0 0 1.824-7.993l-12.197-53.453a9.444 9.444 0 0 0-5.108-6.408l-49.373-23.783a9.435 9.435 0 0 0-4.577-.924z" fill="#326CE5" fill-rule="nonzero"></path><g transform="translate(487.000000, 225.000000)"><path d="M35.507 75.319l27.987-16.45C65.04 57.96 66 56.267 66 54.45v-32.9c0-1.817-.96-3.51-2.506-4.42L35.507.68a4.954 4.954 0 0 0-5.012 0L2.506 17.13C.96 18.04 0 19.734 0 21.55v32.9c0 1.817.961 3.51 2.506 4.418l27.989 16.45a4.95 4.95 0 0 0 5.012 0z" fill="#4AFF00" fill-rule="nonzero"></path><text font-size="19" font-weight="bold" letter-spacing="-.16" fill="#333" class="sans-serif"><tspan x="6.111" y="34">APP 2</tspan> <tspan x="5.873" y="57">PROD</tspan></text></g><path d="M117.508 378.012a9.436 9.436 0 0 0-3.618.924l-49.366 23.796a9.444 9.444 0 0 0-5.108 6.408l-12.179 53.452a9.45 9.45 0 0 0 1.282 7.242c.166.26.345.51.537.752l34.169 42.86a9.44 9.44 0 0 0 7.38 3.554l54.796-.013a9.438 9.438 0 0 0 7.381-3.547l34.157-42.867a9.45 9.45 0 0 0 1.824-7.993l-12.197-53.453a9.444 9.444 0 0 0-5.108-6.408l-49.373-23.783a9.435 9.435 0 0 0-4.577-.924z" fill="#326CE5" fill-rule="nonzero"></path><g transform="translate(85.000000, 414.000000)"><path d="M35.507 75.319l27.987-16.45C65.04 57.96 66 56.267 66 54.45v-32.9c0-1.817-.96-3.51-2.506-4.42L35.507.68a4.954 4.954 0 0 0-5.012 0L2.506 17.13C.96 18.04 0 19.734 0 21.55v32.9c0 1.817.961 3.51 2.506 4.418l27.989 16.45a4.95 4.95 0 0 0 5.012 0z" fill="#FF5353" fill-rule="nonzero"></path><text font-size="19" font-weight="bold" letter-spacing="-.16" fill="#333" class="sans-serif"><tspan x="6.111" y="34">APP 3</tspan> <tspan x="13.707" y="57">DEV</tspan></text></g><path d="M318.508 378.012a9.436 9.436 0 0 0-3.618.924l-49.366 23.796a9.444 9.444 0 0 0-5.108 6.408l-12.179 53.452a9.45 9.45 0 0 0 1.282 7.242c.166.26.345.51.537.752l34.169 42.86a9.44 9.44 0 0 0 7.38 3.554l54.796-.013a9.438 9.438 0 0 0 7.381-3.547l34.157-42.867a9.45 9.45 0 0 0 1.824-7.993l-12.197-53.453a9.444 9.444 0 0 0-5.108-6.408l-49.373-23.783a9.435 9.435 0 0 0-4.577-.924z" fill="#326CE5" fill-rule="nonzero"></path><g transform="translate(286.000000, 414.000000)"><path d="M35.507 75.319l27.987-16.45C65.04 57.96 66 56.267 66 54.45v-32.9c0-1.817-.96-3.51-2.506-4.42L35.507.68a4.954 4.954 0 0 0-5.012 0L2.506 17.13C.96 18.04 0 19.734 0 21.55v32.9c0 1.817.961 3.51 2.506 4.418l27.989 16.45a4.95 4.95 0 0 0 5.012 0z" fill="#FF5353" fill-rule="nonzero"></path><text font-size="19" font-weight="bold" letter-spacing="-.16" fill="#333" class="sans-serif"><tspan x="6.111" y="34">APP 3</tspan> <tspan x="9.041" y="57">TEST</tspan></text></g><path d="M519.508 378.012a9.436 9.436 0 0 0-3.618.924l-49.366 23.796a9.444 9.444 0 0 0-5.108 6.408l-12.179 53.452a9.45 9.45 0 0 0 1.282 7.242c.166.26.345.51.537.752l34.169 42.86a9.44 9.44 0 0 0 7.38 3.554l54.796-.013a9.438 9.438 0 0 0 7.381-3.547l34.157-42.867a9.45 9.45 0 0 0 1.824-7.993l-12.197-53.453a9.444 9.444 0 0 0-5.108-6.408l-49.373-23.783a9.435 9.435 0 0 0-4.577-.924z" fill="#326CE5" fill-rule="nonzero"></path><g transform="translate(487.000000, 414.000000)"><path d="M35.507 75.319l27.987-16.45C65.04 57.96 66 56.267 66 54.45v-32.9c0-1.817-.96-3.51-2.506-4.42L35.507.68a4.954 4.954 0 0 0-5.012 0L2.506 17.13C.96 18.04 0 19.734 0 21.55v32.9c0 1.817.961 3.51 2.506 4.418l27.989 16.45a4.95 4.95 0 0 0 5.012 0z" fill="#FF5353" fill-rule="nonzero"></path><text font-size="19" font-weight="bold" letter-spacing="-.16" fill="#333" class="sans-serif"><tspan x="6.111" y="34">APP 3</tspan> <tspan x="5.873" y="57">PROD</tspan></text></g><path d="M88.824 151v-2.76c.2.16.402.356.606.588.204.232.398.474.582.726.184.252.358.504.522.756.164.252.31.482.438.69h2.052a13.728 13.728 0 0 0-1.164-1.836c-.24-.32-.488-.63-.744-.93a8.22 8.22 0 0 0-.744-.774c.48-.472.922-.93 1.326-1.374.404-.444.818-.91 1.242-1.398h-2.124a89.104 89.104 0 0 1-.9 1.062c-.176.204-.358.41-.546.618l-.546.6v-5.28l-1.788.288V151h1.788zm7.58.144c.528 0 1.032-.038 1.512-.114.48-.076.872-.158 1.176-.246v-6.096h-1.788v4.872a6.648 6.648 0 0 1-.792.06c-.416 0-.7-.128-.852-.384-.152-.256-.228-.672-.228-1.248v-3.3h-1.788v3.516c0 .432.044.828.132 1.188.088.36.236.67.444.93.208.26.49.462.846.606.356.144.802.216 1.338.216zm6.788.012c.52 0 .984-.078 1.392-.234a2.821 2.821 0 0 0 1.032-.666c.28-.288.494-.636.642-1.044a3.99 3.99 0 0 0 .222-1.368c0-.496-.06-.946-.18-1.35a2.991 2.991 0 0 0-.528-1.038 2.326 2.326 0 0 0-.864-.666 2.85 2.85 0 0 0-1.188-.234 3.205 3.205 0 0 0-1.32.276v-3.144l-1.788.288v8.82c.16.048.344.094.552.138.208.044.426.082.654.114.228.032.46.058.696.078.236.02.462.03.678.03zm-.012-1.524a5.072 5.072 0 0 1-.78-.06v-3.252c.112-.072.258-.132.438-.18a2.11 2.11 0 0 1 .546-.072c.848 0 1.272.576 1.272 1.728 0 .552-.124.996-.372 1.332-.248.336-.616.504-1.104.504zm7.556 1.536c.224 0 .448-.012.672-.036.224-.024.434-.054.63-.09s.374-.078.534-.126a2.47 2.47 0 0 0 .384-.144l-.24-1.452c-.2.088-.458.162-.774.222s-.638.09-.966.09c-.512 0-.92-.108-1.224-.324a1.188 1.188 0 0 1-.516-.876h4.056c.008-.096.016-.206.024-.33.008-.124.012-.238.012-.342 0-1.064-.26-1.87-.78-2.418s-1.228-.822-2.124-.822c-.384 0-.758.072-1.122.216a2.82 2.82 0 0 0-.966.636c-.28.28-.506.63-.678 1.05-.172.42-.258.91-.258 1.47 0 .464.066.896.198 1.296s.336.746.612 1.038c.276.292.624.522 1.044.69.42.168.914.252 1.482.252zm.864-3.96h-2.364a2.56 2.56 0 0 1 .114-.45c.052-.148.126-.278.222-.39.096-.112.216-.202.36-.27a1.2 1.2 0 0 1 .516-.102c.208 0 .382.036.522.108a1.086 1.086 0 0 1 .552.66c.044.144.07.292.078.444zm4.736 3.792v-4.824c.08-.024.198-.046.354-.066a3.23 3.23 0 0 1 1.098.036c.216.044.404.086.564.126l.3-1.476a1.92 1.92 0 0 0-.348-.102 7.264 7.264 0 0 0-.816-.12 4.052 4.052 0 0 0-.348-.018c-.536 0-1.022.05-1.458.15-.436.1-.814.206-1.134.318V151h1.788zm4.904 0v-4.872a6.648 6.648 0 0 1 .792-.06c.416 0 .7.12.852.36.152.24.228.648.228 1.224V151h1.788v-3.564c0-.432-.044-.824-.132-1.176a2.314 2.314 0 0 0-.444-.912 2.01 2.01 0 0 0-.846-.594c-.356-.14-.802-.21-1.338-.21-.528 0-1.032.038-1.512.114-.48.076-.872.158-1.176.246V151h1.788zm8.156.168c.224 0 .448-.012.672-.036.224-.024.434-.054.63-.09s.374-.078.534-.126a2.47 2.47 0 0 0 .384-.144l-.24-1.452c-.2.088-.458.162-.774.222s-.638.09-.966.09c-.512 0-.92-.108-1.224-.324a1.188 1.188 0 0 1-.516-.876h4.056c.008-.096.016-.206.024-.33.008-.124.012-.238.012-.342 0-1.064-.26-1.87-.78-2.418s-1.228-.822-2.124-.822c-.384 0-.758.072-1.122.216a2.82 2.82 0 0 0-.966.636c-.28.28-.506.63-.678 1.05-.172.42-.258.91-.258 1.47 0 .464.066.896.198 1.296s.336.746.612 1.038c.276.292.624.522 1.044.69.42.168.914.252 1.482.252zm.864-3.96h-2.364a2.56 2.56 0 0 1 .114-.45c.052-.148.126-.278.222-.39.096-.112.216-.202.36-.27a1.2 1.2 0 0 1 .516-.102c.208 0 .382.036.522.108a1.086 1.086 0 0 1 .552.66c.044.144.07.292.078.444zm5.384 3.936c.384 0 .708-.032.972-.096s.504-.14.72-.228l-.252-1.392a3.416 3.416 0 0 1-1.152.204c-.4 0-.666-.112-.798-.336-.132-.224-.198-.524-.198-.9v-2.22h2.148v-1.488h-2.148v-1.86l-1.788.288v5.304c0 .408.038.78.114 1.116.076.336.21.622.402.858.192.236.448.42.768.552.32.132.724.198 1.212.198zm5.528.024c.224 0 .448-.012.672-.036.224-.024.434-.054.63-.09s.374-.078.534-.126a2.47 2.47 0 0 0 .384-.144l-.24-1.452c-.2.088-.458.162-.774.222s-.638.09-.966.09c-.512 0-.92-.108-1.224-.324a1.188 1.188 0 0 1-.516-.876h4.056c.008-.096.016-.206.024-.33.008-.124.012-.238.012-.342 0-1.064-.26-1.87-.78-2.418s-1.228-.822-2.124-.822c-.384 0-.758.072-1.122.216a2.82 2.82 0 0 0-.966.636c-.28.28-.506.63-.678 1.05-.172.42-.258.91-.258 1.47 0 .464.066.896.198 1.296s.336.746.612 1.038c.276.292.624.522 1.044.69.42.168.914.252 1.482.252zm.864-3.96h-2.364a2.56 2.56 0 0 1 .114-.45c.052-.148.126-.278.222-.39.096-.112.216-.202.36-.27a1.2 1.2 0 0 1 .516-.102c.208 0 .382.036.522.108a1.086 1.086 0 0 1 .552.66c.044.144.07.292.078.444zm4.748 3.96c.856 0 1.518-.16 1.986-.48.468-.32.702-.792.702-1.416 0-.264-.03-.496-.09-.696-.06-.2-.164-.382-.312-.546a2.284 2.284 0 0 0-.606-.456 7.323 7.323 0 0 0-.972-.426 5.757 5.757 0 0 1-.474-.198 2.007 2.007 0 0 1-.294-.168.41.41 0 0 1-.144-.162.483.483 0 0 1-.036-.192c0-.312.28-.468.84-.468.304 0 .578.028.822.084.244.056.47.12.678.192l.312-1.392a5.137 5.137 0 0 0-.84-.222 5.81 5.81 0 0 0-1.104-.102c-.768 0-1.372.172-1.812.516-.44.344-.66.812-.66 1.404 0 .304.044.564.132.78.088.216.212.402.372.558.16.156.354.29.582.402.228.112.482.22.762.324.36.136.628.258.804.366.176.108.264.234.264.378 0 .184-.068.308-.204.372-.136.064-.368.096-.696.096-.312 0-.628-.034-.948-.102a5.865 5.865 0 0 1-.936-.282l-.3 1.452c.144.064.402.144.774.24s.838.144 1.398.144zM87.824 340v-2.76c.2.16.402.356.606.588.204.232.398.474.582.726.184.252.358.504.522.756.164.252.31.482.438.69h2.052a13.728 13.728 0 0 0-1.164-1.836c-.24-.32-.488-.63-.744-.93a8.22 8.22 0 0 0-.744-.774c.48-.472.922-.93 1.326-1.374.404-.444.818-.91 1.242-1.398h-2.124a89.104 89.104 0 0 1-.9 1.062c-.176.204-.358.41-.546.618l-.546.6v-5.28l-1.788.288V340h1.788zm7.58.144c.528 0 1.032-.038 1.512-.114.48-.076.872-.158 1.176-.246v-6.096h-1.788v4.872a6.648 6.648 0 0 1-.792.06c-.416 0-.7-.128-.852-.384-.152-.256-.228-.672-.228-1.248v-3.3h-1.788v3.516c0 .432.044.828.132 1.188.088.36.236.67.444.93.208.26.49.462.846.606.356.144.802.216 1.338.216zm6.788.012c.52 0 .984-.078 1.392-.234a2.821 2.821 0 0 0 1.032-.666c.28-.288.494-.636.642-1.044a3.99 3.99 0 0 0 .222-1.368c0-.496-.06-.946-.18-1.35a2.991 2.991 0 0 0-.528-1.038 2.326 2.326 0 0 0-.864-.666 2.85 2.85 0 0 0-1.188-.234 3.205 3.205 0 0 0-1.32.276v-3.144l-1.788.288v8.82c.16.048.344.094.552.138.208.044.426.082.654.114.228.032.46.058.696.078.236.02.462.03.678.03zm-.012-1.524a5.072 5.072 0 0 1-.78-.06v-3.252c.112-.072.258-.132.438-.18a2.11 2.11 0 0 1 .546-.072c.848 0 1.272.576 1.272 1.728 0 .552-.124.996-.372 1.332-.248.336-.616.504-1.104.504zm7.556 1.536c.224 0 .448-.012.672-.036.224-.024.434-.054.63-.09s.374-.078.534-.126a2.47 2.47 0 0 0 .384-.144l-.24-1.452c-.2.088-.458.162-.774.222s-.638.09-.966.09c-.512 0-.92-.108-1.224-.324a1.188 1.188 0 0 1-.516-.876h4.056c.008-.096.016-.206.024-.33.008-.124.012-.238.012-.342 0-1.064-.26-1.87-.78-2.418s-1.228-.822-2.124-.822c-.384 0-.758.072-1.122.216a2.82 2.82 0 0 0-.966.636c-.28.28-.506.63-.678 1.05-.172.42-.258.91-.258 1.47 0 .464.066.896.198 1.296s.336.746.612 1.038c.276.292.624.522 1.044.69.42.168.914.252 1.482.252zm.864-3.96h-2.364a2.56 2.56 0 0 1 .114-.45c.052-.148.126-.278.222-.39.096-.112.216-.202.36-.27a1.2 1.2 0 0 1 .516-.102c.208 0 .382.036.522.108a1.086 1.086 0 0 1 .552.66c.044.144.07.292.078.444zm4.736 3.792v-4.824c.08-.024.198-.046.354-.066a3.23 3.23 0 0 1 1.098.036c.216.044.404.086.564.126l.3-1.476a1.92 1.92 0 0 0-.348-.102 7.264 7.264 0 0 0-.816-.12 4.052 4.052 0 0 0-.348-.018c-.536 0-1.022.05-1.458.15-.436.1-.814.206-1.134.318V340h1.788zm4.904 0v-4.872a6.648 6.648 0 0 1 .792-.06c.416 0 .7.12.852.36.152.24.228.648.228 1.224V340h1.788v-3.564c0-.432-.044-.824-.132-1.176a2.314 2.314 0 0 0-.444-.912 2.01 2.01 0 0 0-.846-.594c-.356-.14-.802-.21-1.338-.21-.528 0-1.032.038-1.512.114-.48.076-.872.158-1.176.246V340h1.788zm8.156.168c.224 0 .448-.012.672-.036.224-.024.434-.054.63-.09s.374-.078.534-.126a2.47 2.47 0 0 0 .384-.144l-.24-1.452c-.2.088-.458.162-.774.222s-.638.09-.966.09c-.512 0-.92-.108-1.224-.324a1.188 1.188 0 0 1-.516-.876h4.056c.008-.096.016-.206.024-.33.008-.124.012-.238.012-.342 0-1.064-.26-1.87-.78-2.418s-1.228-.822-2.124-.822c-.384 0-.758.072-1.122.216a2.82 2.82 0 0 0-.966.636c-.28.28-.506.63-.678 1.05-.172.42-.258.91-.258 1.47 0 .464.066.896.198 1.296s.336.746.612 1.038c.276.292.624.522 1.044.69.42.168.914.252 1.482.252zm.864-3.96h-2.364a2.56 2.56 0 0 1 .114-.45c.052-.148.126-.278.222-.39.096-.112.216-.202.36-.27a1.2 1.2 0 0 1 .516-.102c.208 0 .382.036.522.108a1.086 1.086 0 0 1 .552.66c.044.144.07.292.078.444zm5.384 3.936c.384 0 .708-.032.972-.096s.504-.14.72-.228l-.252-1.392a3.416 3.416 0 0 1-1.152.204c-.4 0-.666-.112-.798-.336-.132-.224-.198-.524-.198-.9v-2.22h2.148v-1.488h-2.148v-1.86l-1.788.288v5.304c0 .408.038.78.114 1.116.076.336.21.622.402.858.192.236.448.42.768.552.32.132.724.198 1.212.198zm5.528.024c.224 0 .448-.012.672-.036.224-.024.434-.054.63-.09s.374-.078.534-.126a2.47 2.47 0 0 0 .384-.144l-.24-1.452c-.2.088-.458.162-.774.222s-.638.09-.966.09c-.512 0-.92-.108-1.224-.324a1.188 1.188 0 0 1-.516-.876h4.056c.008-.096.016-.206.024-.33.008-.124.012-.238.012-.342 0-1.064-.26-1.87-.78-2.418s-1.228-.822-2.124-.822c-.384 0-.758.072-1.122.216a2.82 2.82 0 0 0-.966.636c-.28.28-.506.63-.678 1.05-.172.42-.258.91-.258 1.47 0 .464.066.896.198 1.296s.336.746.612 1.038c.276.292.624.522 1.044.69.42.168.914.252 1.482.252zm.864-3.96h-2.364a2.56 2.56 0 0 1 .114-.45c.052-.148.126-.278.222-.39.096-.112.216-.202.36-.27a1.2 1.2 0 0 1 .516-.102c.208 0 .382.036.522.108a1.086 1.086 0 0 1 .552.66c.044.144.07.292.078.444zm4.748 3.96c.856 0 1.518-.16 1.986-.48.468-.32.702-.792.702-1.416 0-.264-.03-.496-.09-.696-.06-.2-.164-.382-.312-.546a2.284 2.284 0 0 0-.606-.456 7.323 7.323 0 0 0-.972-.426 5.757 5.757 0 0 1-.474-.198 2.007 2.007 0 0 1-.294-.168.41.41 0 0 1-.144-.162.483.483 0 0 1-.036-.192c0-.312.28-.468.84-.468.304 0 .578.028.822.084.244.056.47.12.678.192l.312-1.392a5.137 5.137 0 0 0-.84-.222 5.81 5.81 0 0 0-1.104-.102c-.768 0-1.372.172-1.812.516-.44.344-.66.812-.66 1.404 0 .304.044.564.132.78.088.216.212.402.372.558.16.156.354.29.582.402.228.112.482.22.762.324.36.136.628.258.804.366.176.108.264.234.264.378 0 .184-.068.308-.204.372-.136.064-.368.096-.696.096-.312 0-.628-.034-.948-.102a5.865 5.865 0 0 1-.936-.282l-.3 1.452c.144.064.402.144.774.24s.838.144 1.398.144zM88.824 529v-2.76c.2.16.402.356.606.588.204.232.398.474.582.726.184.252.358.504.522.756.164.252.31.482.438.69h2.052a13.728 13.728 0 0 0-1.164-1.836c-.24-.32-.488-.63-.744-.93a8.22 8.22 0 0 0-.744-.774c.48-.472.922-.93 1.326-1.374.404-.444.818-.91 1.242-1.398h-2.124a89.104 89.104 0 0 1-.9 1.062c-.176.204-.358.41-.546.618l-.546.6v-5.28l-1.788.288V529h1.788zm7.58.144c.528 0 1.032-.038 1.512-.114.48-.076.872-.158 1.176-.246v-6.096h-1.788v4.872a6.648 6.648 0 0 1-.792.06c-.416 0-.7-.128-.852-.384-.152-.256-.228-.672-.228-1.248v-3.3h-1.788v3.516c0 .432.044.828.132 1.188.088.36.236.67.444.93.208.26.49.462.846.606.356.144.802.216 1.338.216zm6.788.012c.52 0 .984-.078 1.392-.234a2.821 2.821 0 0 0 1.032-.666c.28-.288.494-.636.642-1.044a3.99 3.99 0 0 0 .222-1.368c0-.496-.06-.946-.18-1.35a2.991 2.991 0 0 0-.528-1.038 2.326 2.326 0 0 0-.864-.666 2.85 2.85 0 0 0-1.188-.234 3.205 3.205 0 0 0-1.32.276v-3.144l-1.788.288v8.82c.16.048.344.094.552.138.208.044.426.082.654.114.228.032.46.058.696.078.236.02.462.03.678.03zm-.012-1.524a5.072 5.072 0 0 1-.78-.06v-3.252c.112-.072.258-.132.438-.18a2.11 2.11 0 0 1 .546-.072c.848 0 1.272.576 1.272 1.728 0 .552-.124.996-.372 1.332-.248.336-.616.504-1.104.504zm7.556 1.536c.224 0 .448-.012.672-.036.224-.024.434-.054.63-.09s.374-.078.534-.126a2.47 2.47 0 0 0 .384-.144l-.24-1.452c-.2.088-.458.162-.774.222s-.638.09-.966.09c-.512 0-.92-.108-1.224-.324a1.188 1.188 0 0 1-.516-.876h4.056c.008-.096.016-.206.024-.33.008-.124.012-.238.012-.342 0-1.064-.26-1.87-.78-2.418s-1.228-.822-2.124-.822c-.384 0-.758.072-1.122.216a2.82 2.82 0 0 0-.966.636c-.28.28-.506.63-.678 1.05-.172.42-.258.91-.258 1.47 0 .464.066.896.198 1.296s.336.746.612 1.038c.276.292.624.522 1.044.69.42.168.914.252 1.482.252zm.864-3.96h-2.364a2.56 2.56 0 0 1 .114-.45c.052-.148.126-.278.222-.39.096-.112.216-.202.36-.27a1.2 1.2 0 0 1 .516-.102c.208 0 .382.036.522.108a1.086 1.086 0 0 1 .552.66c.044.144.07.292.078.444zm4.736 3.792v-4.824c.08-.024.198-.046.354-.066a3.23 3.23 0 0 1 1.098.036c.216.044.404.086.564.126l.3-1.476a1.92 1.92 0 0 0-.348-.102 7.264 7.264 0 0 0-.816-.12 4.052 4.052 0 0 0-.348-.018c-.536 0-1.022.05-1.458.15-.436.1-.814.206-1.134.318V529h1.788zm4.904 0v-4.872a6.648 6.648 0 0 1 .792-.06c.416 0 .7.12.852.36.152.24.228.648.228 1.224V529h1.788v-3.564c0-.432-.044-.824-.132-1.176a2.314 2.314 0 0 0-.444-.912 2.01 2.01 0 0 0-.846-.594c-.356-.14-.802-.21-1.338-.21-.528 0-1.032.038-1.512.114-.48.076-.872.158-1.176.246V529h1.788zm8.156.168c.224 0 .448-.012.672-.036.224-.024.434-.054.63-.09s.374-.078.534-.126a2.47 2.47 0 0 0 .384-.144l-.24-1.452c-.2.088-.458.162-.774.222s-.638.09-.966.09c-.512 0-.92-.108-1.224-.324a1.188 1.188 0 0 1-.516-.876h4.056c.008-.096.016-.206.024-.33.008-.124.012-.238.012-.342 0-1.064-.26-1.87-.78-2.418s-1.228-.822-2.124-.822c-.384 0-.758.072-1.122.216a2.82 2.82 0 0 0-.966.636c-.28.28-.506.63-.678 1.05-.172.42-.258.91-.258 1.47 0 .464.066.896.198 1.296s.336.746.612 1.038c.276.292.624.522 1.044.69.42.168.914.252 1.482.252zm.864-3.96h-2.364a2.56 2.56 0 0 1 .114-.45c.052-.148.126-.278.222-.39.096-.112.216-.202.36-.27a1.2 1.2 0 0 1 .516-.102c.208 0 .382.036.522.108a1.086 1.086 0 0 1 .552.66c.044.144.07.292.078.444zm5.384 3.936c.384 0 .708-.032.972-.096s.504-.14.72-.228l-.252-1.392a3.416 3.416 0 0 1-1.152.204c-.4 0-.666-.112-.798-.336-.132-.224-.198-.524-.198-.9v-2.22h2.148v-1.488h-2.148v-1.86l-1.788.288v5.304c0 .408.038.78.114 1.116.076.336.21.622.402.858.192.236.448.42.768.552.32.132.724.198 1.212.198zm5.528.024c.224 0 .448-.012.672-.036.224-.024.434-.054.63-.09s.374-.078.534-.126a2.47 2.47 0 0 0 .384-.144l-.24-1.452c-.2.088-.458.162-.774.222s-.638.09-.966.09c-.512 0-.92-.108-1.224-.324a1.188 1.188 0 0 1-.516-.876h4.056c.008-.096.016-.206.024-.33.008-.124.012-.238.012-.342 0-1.064-.26-1.87-.78-2.418s-1.228-.822-2.124-.822c-.384 0-.758.072-1.122.216a2.82 2.82 0 0 0-.966.636c-.28.28-.506.63-.678 1.05-.172.42-.258.91-.258 1.47 0 .464.066.896.198 1.296s.336.746.612 1.038c.276.292.624.522 1.044.69.42.168.914.252 1.482.252zm.864-3.96h-2.364a2.56 2.56 0 0 1 .114-.45c.052-.148.126-.278.222-.39.096-.112.216-.202.36-.27a1.2 1.2 0 0 1 .516-.102c.208 0 .382.036.522.108a1.086 1.086 0 0 1 .552.66c.044.144.07.292.078.444zm4.748 3.96c.856 0 1.518-.16 1.986-.48.468-.32.702-.792.702-1.416 0-.264-.03-.496-.09-.696-.06-.2-.164-.382-.312-.546a2.284 2.284 0 0 0-.606-.456 7.323 7.323 0 0 0-.972-.426 5.757 5.757 0 0 1-.474-.198 2.007 2.007 0 0 1-.294-.168.41.41 0 0 1-.144-.162.483.483 0 0 1-.036-.192c0-.312.28-.468.84-.468.304 0 .578.028.822.084.244.056.47.12.678.192l.312-1.392a5.137 5.137 0 0 0-.84-.222 5.81 5.81 0 0 0-1.104-.102c-.768 0-1.372.172-1.812.516-.44.344-.66.812-.66 1.404 0 .304.044.564.132.78.088.216.212.402.372.558.16.156.354.29.582.402.228.112.482.22.762.324.36.136.628.258.804.366.176.108.264.234.264.378 0 .184-.068.308-.204.372-.136.064-.368.096-.696.096-.312 0-.628-.034-.948-.102a5.865 5.865 0 0 1-.936-.282l-.3 1.452c.144.064.402.144.774.24s.838.144 1.398.144zm143.04-.168v-2.76c.2.16.402.356.606.588.204.232.398.474.582.726.184.252.358.504.522.756.164.252.31.482.438.69h2.052a13.728 13.728 0 0 0-1.164-1.836c-.24-.32-.488-.63-.744-.93a8.22 8.22 0 0 0-.744-.774c.48-.472.922-.93 1.326-1.374.404-.444.818-.91 1.242-1.398h-2.124a89.104 89.104 0 0 1-.9 1.062c-.176.204-.358.41-.546.618l-.546.6v-5.28l-1.788.288V529h1.788zm7.58.144c.528 0 1.032-.038 1.512-.114.48-.076.872-.158 1.176-.246v-6.096h-1.788v4.872a6.648 6.648 0 0 1-.792.06c-.416 0-.7-.128-.852-.384-.152-.256-.228-.672-.228-1.248v-3.3h-1.788v3.516c0 .432.044.828.132 1.188.088.36.236.67.444.93.208.26.49.462.846.606.356.144.802.216 1.338.216zm6.788.012c.52 0 .984-.078 1.392-.234a2.821 2.821 0 0 0 1.032-.666c.28-.288.494-.636.642-1.044a3.99 3.99 0 0 0 .222-1.368c0-.496-.06-.946-.18-1.35a2.991 2.991 0 0 0-.528-1.038 2.326 2.326 0 0 0-.864-.666 2.85 2.85 0 0 0-1.188-.234 3.205 3.205 0 0 0-1.32.276v-3.144l-1.788.288v8.82c.16.048.344.094.552.138.208.044.426.082.654.114.228.032.46.058.696.078.236.02.462.03.678.03zm-.012-1.524a5.072 5.072 0 0 1-.78-.06v-3.252c.112-.072.258-.132.438-.18a2.11 2.11 0 0 1 .546-.072c.848 0 1.272.576 1.272 1.728 0 .552-.124.996-.372 1.332-.248.336-.616.504-1.104.504zm7.556 1.536c.224 0 .448-.012.672-.036.224-.024.434-.054.63-.09s.374-.078.534-.126a2.47 2.47 0 0 0 .384-.144l-.24-1.452c-.2.088-.458.162-.774.222s-.638.09-.966.09c-.512 0-.92-.108-1.224-.324a1.188 1.188 0 0 1-.516-.876h4.056c.008-.096.016-.206.024-.33.008-.124.012-.238.012-.342 0-1.064-.26-1.87-.78-2.418s-1.228-.822-2.124-.822c-.384 0-.758.072-1.122.216a2.82 2.82 0 0 0-.966.636c-.28.28-.506.63-.678 1.05-.172.42-.258.91-.258 1.47 0 .464.066.896.198 1.296s.336.746.612 1.038c.276.292.624.522 1.044.69.42.168.914.252 1.482.252zm.864-3.96h-2.364a2.56 2.56 0 0 1 .114-.45c.052-.148.126-.278.222-.39.096-.112.216-.202.36-.27a1.2 1.2 0 0 1 .516-.102c.208 0 .382.036.522.108a1.086 1.086 0 0 1 .552.66c.044.144.07.292.078.444zm4.736 3.792v-4.824c.08-.024.198-.046.354-.066a3.23 3.23 0 0 1 1.098.036c.216.044.404.086.564.126l.3-1.476a1.92 1.92 0 0 0-.348-.102 7.264 7.264 0 0 0-.816-.12 4.052 4.052 0 0 0-.348-.018c-.536 0-1.022.05-1.458.15-.436.1-.814.206-1.134.318V529h1.788zm4.904 0v-4.872a6.648 6.648 0 0 1 .792-.06c.416 0 .7.12.852.36.152.24.228.648.228 1.224V529h1.788v-3.564c0-.432-.044-.824-.132-1.176a2.314 2.314 0 0 0-.444-.912 2.01 2.01 0 0 0-.846-.594c-.356-.14-.802-.21-1.338-.21-.528 0-1.032.038-1.512.114-.48.076-.872.158-1.176.246V529h1.788zm8.156.168c.224 0 .448-.012.672-.036.224-.024.434-.054.63-.09s.374-.078.534-.126a2.47 2.47 0 0 0 .384-.144l-.24-1.452c-.2.088-.458.162-.774.222s-.638.09-.966.09c-.512 0-.92-.108-1.224-.324a1.188 1.188 0 0 1-.516-.876h4.056c.008-.096.016-.206.024-.33.008-.124.012-.238.012-.342 0-1.064-.26-1.87-.78-2.418s-1.228-.822-2.124-.822c-.384 0-.758.072-1.122.216a2.82 2.82 0 0 0-.966.636c-.28.28-.506.63-.678 1.05-.172.42-.258.91-.258 1.47 0 .464.066.896.198 1.296s.336.746.612 1.038c.276.292.624.522 1.044.69.42.168.914.252 1.482.252zm.864-3.96h-2.364a2.56 2.56 0 0 1 .114-.45c.052-.148.126-.278.222-.39.096-.112.216-.202.36-.27a1.2 1.2 0 0 1 .516-.102c.208 0 .382.036.522.108a1.086 1.086 0 0 1 .552.66c.044.144.07.292.078.444zm5.384 3.936c.384 0 .708-.032.972-.096s.504-.14.72-.228l-.252-1.392a3.416 3.416 0 0 1-1.152.204c-.4 0-.666-.112-.798-.336-.132-.224-.198-.524-.198-.9v-2.22h2.148v-1.488h-2.148v-1.86l-1.788.288v5.304c0 .408.038.78.114 1.116.076.336.21.622.402.858.192.236.448.42.768.552.32.132.724.198 1.212.198zm5.528.024c.224 0 .448-.012.672-.036.224-.024.434-.054.63-.09s.374-.078.534-.126a2.47 2.47 0 0 0 .384-.144l-.24-1.452c-.2.088-.458.162-.774.222s-.638.09-.966.09c-.512 0-.92-.108-1.224-.324a1.188 1.188 0 0 1-.516-.876h4.056c.008-.096.016-.206.024-.33.008-.124.012-.238.012-.342 0-1.064-.26-1.87-.78-2.418s-1.228-.822-2.124-.822c-.384 0-.758.072-1.122.216a2.82 2.82 0 0 0-.966.636c-.28.28-.506.63-.678 1.05-.172.42-.258.91-.258 1.47 0 .464.066.896.198 1.296s.336.746.612 1.038c.276.292.624.522 1.044.69.42.168.914.252 1.482.252zm.864-3.96h-2.364a2.56 2.56 0 0 1 .114-.45c.052-.148.126-.278.222-.39.096-.112.216-.202.36-.27a1.2 1.2 0 0 1 .516-.102c.208 0 .382.036.522.108a1.086 1.086 0 0 1 .552.66c.044.144.07.292.078.444zm4.748 3.96c.856 0 1.518-.16 1.986-.48.468-.32.702-.792.702-1.416 0-.264-.03-.496-.09-.696-.06-.2-.164-.382-.312-.546a2.284 2.284 0 0 0-.606-.456 7.323 7.323 0 0 0-.972-.426 5.757 5.757 0 0 1-.474-.198 2.007 2.007 0 0 1-.294-.168.41.41 0 0 1-.144-.162.483.483 0 0 1-.036-.192c0-.312.28-.468.84-.468.304 0 .578.028.822.084.244.056.47.12.678.192l.312-1.392a5.137 5.137 0 0 0-.84-.222 5.81 5.81 0 0 0-1.104-.102c-.768 0-1.372.172-1.812.516-.44.344-.66.812-.66 1.404 0 .304.044.564.132.78.088.216.212.402.372.558.16.156.354.29.582.402.228.112.482.22.762.324.36.136.628.258.804.366.176.108.264.234.264.378 0 .184-.068.308-.204.372-.136.064-.368.096-.696.096-.312 0-.628-.034-.948-.102a5.865 5.865 0 0 1-.936-.282l-.3 1.452c.144.064.402.144.774.24s.838.144 1.398.144zm143.04-.168v-2.76c.2.16.402.356.606.588.204.232.398.474.582.726.184.252.358.504.522.756.164.252.31.482.438.69h2.052a13.728 13.728 0 0 0-1.164-1.836c-.24-.32-.488-.63-.744-.93a8.22 8.22 0 0 0-.744-.774c.48-.472.922-.93 1.326-1.374.404-.444.818-.91 1.242-1.398h-2.124a89.104 89.104 0 0 1-.9 1.062c-.176.204-.358.41-.546.618l-.546.6v-5.28l-1.788.288V529h1.788zm7.58.144c.528 0 1.032-.038 1.512-.114.48-.076.872-.158 1.176-.246v-6.096h-1.788v4.872a6.648 6.648 0 0 1-.792.06c-.416 0-.7-.128-.852-.384-.152-.256-.228-.672-.228-1.248v-3.3h-1.788v3.516c0 .432.044.828.132 1.188.088.36.236.67.444.93.208.26.49.462.846.606.356.144.802.216 1.338.216zm6.788.012c.52 0 .984-.078 1.392-.234a2.821 2.821 0 0 0 1.032-.666c.28-.288.494-.636.642-1.044a3.99 3.99 0 0 0 .222-1.368c0-.496-.06-.946-.18-1.35a2.991 2.991 0 0 0-.528-1.038 2.326 2.326 0 0 0-.864-.666 2.85 2.85 0 0 0-1.188-.234 3.205 3.205 0 0 0-1.32.276v-3.144l-1.788.288v8.82c.16.048.344.094.552.138.208.044.426.082.654.114.228.032.46.058.696.078.236.02.462.03.678.03zm-.012-1.524a5.072 5.072 0 0 1-.78-.06v-3.252c.112-.072.258-.132.438-.18a2.11 2.11 0 0 1 .546-.072c.848 0 1.272.576 1.272 1.728 0 .552-.124.996-.372 1.332-.248.336-.616.504-1.104.504zm7.556 1.536c.224 0 .448-.012.672-.036.224-.024.434-.054.63-.09s.374-.078.534-.126a2.47 2.47 0 0 0 .384-.144l-.24-1.452c-.2.088-.458.162-.774.222s-.638.09-.966.09c-.512 0-.92-.108-1.224-.324a1.188 1.188 0 0 1-.516-.876h4.056c.008-.096.016-.206.024-.33.008-.124.012-.238.012-.342 0-1.064-.26-1.87-.78-2.418s-1.228-.822-2.124-.822c-.384 0-.758.072-1.122.216a2.82 2.82 0 0 0-.966.636c-.28.28-.506.63-.678 1.05-.172.42-.258.91-.258 1.47 0 .464.066.896.198 1.296s.336.746.612 1.038c.276.292.624.522 1.044.69.42.168.914.252 1.482.252zm.864-3.96h-2.364a2.56 2.56 0 0 1 .114-.45c.052-.148.126-.278.222-.39.096-.112.216-.202.36-.27a1.2 1.2 0 0 1 .516-.102c.208 0 .382.036.522.108a1.086 1.086 0 0 1 .552.66c.044.144.07.292.078.444zm4.736 3.792v-4.824c.08-.024.198-.046.354-.066a3.23 3.23 0 0 1 1.098.036c.216.044.404.086.564.126l.3-1.476a1.92 1.92 0 0 0-.348-.102 7.264 7.264 0 0 0-.816-.12 4.052 4.052 0 0 0-.348-.018c-.536 0-1.022.05-1.458.15-.436.1-.814.206-1.134.318V529h1.788zm4.904 0v-4.872a6.648 6.648 0 0 1 .792-.06c.416 0 .7.12.852.36.152.24.228.648.228 1.224V529h1.788v-3.564c0-.432-.044-.824-.132-1.176a2.314 2.314 0 0 0-.444-.912 2.01 2.01 0 0 0-.846-.594c-.356-.14-.802-.21-1.338-.21-.528 0-1.032.038-1.512.114-.48.076-.872.158-1.176.246V529h1.788zm8.156.168c.224 0 .448-.012.672-.036.224-.024.434-.054.63-.09s.374-.078.534-.126a2.47 2.47 0 0 0 .384-.144l-.24-1.452c-.2.088-.458.162-.774.222s-.638.09-.966.09c-.512 0-.92-.108-1.224-.324a1.188 1.188 0 0 1-.516-.876h4.056c.008-.096.016-.206.024-.33.008-.124.012-.238.012-.342 0-1.064-.26-1.87-.78-2.418s-1.228-.822-2.124-.822c-.384 0-.758.072-1.122.216a2.82 2.82 0 0 0-.966.636c-.28.28-.506.63-.678 1.05-.172.42-.258.91-.258 1.47 0 .464.066.896.198 1.296s.336.746.612 1.038c.276.292.624.522 1.044.69.42.168.914.252 1.482.252zm.864-3.96h-2.364a2.56 2.56 0 0 1 .114-.45c.052-.148.126-.278.222-.39.096-.112.216-.202.36-.27a1.2 1.2 0 0 1 .516-.102c.208 0 .382.036.522.108a1.086 1.086 0 0 1 .552.66c.044.144.07.292.078.444zm5.384 3.936c.384 0 .708-.032.972-.096s.504-.14.72-.228l-.252-1.392a3.416 3.416 0 0 1-1.152.204c-.4 0-.666-.112-.798-.336-.132-.224-.198-.524-.198-.9v-2.22h2.148v-1.488h-2.148v-1.86l-1.788.288v5.304c0 .408.038.78.114 1.116.076.336.21.622.402.858.192.236.448.42.768.552.32.132.724.198 1.212.198zm5.528.024c.224 0 .448-.012.672-.036.224-.024.434-.054.63-.09s.374-.078.534-.126a2.47 2.47 0 0 0 .384-.144l-.24-1.452c-.2.088-.458.162-.774.222s-.638.09-.966.09c-.512 0-.92-.108-1.224-.324a1.188 1.188 0 0 1-.516-.876h4.056c.008-.096.016-.206.024-.33.008-.124.012-.238.012-.342 0-1.064-.26-1.87-.78-2.418s-1.228-.822-2.124-.822c-.384 0-.758.072-1.122.216a2.82 2.82 0 0 0-.966.636c-.28.28-.506.63-.678 1.05-.172.42-.258.91-.258 1.47 0 .464.066.896.198 1.296s.336.746.612 1.038c.276.292.624.522 1.044.69.42.168.914.252 1.482.252zm.864-3.96h-2.364a2.56 2.56 0 0 1 .114-.45c.052-.148.126-.278.222-.39.096-.112.216-.202.36-.27a1.2 1.2 0 0 1 .516-.102c.208 0 .382.036.522.108a1.086 1.086 0 0 1 .552.66c.044.144.07.292.078.444zm4.748 3.96c.856 0 1.518-.16 1.986-.48.468-.32.702-.792.702-1.416 0-.264-.03-.496-.09-.696-.06-.2-.164-.382-.312-.546a2.284 2.284 0 0 0-.606-.456 7.323 7.323 0 0 0-.972-.426 5.757 5.757 0 0 1-.474-.198 2.007 2.007 0 0 1-.294-.168.41.41 0 0 1-.144-.162.483.483 0 0 1-.036-.192c0-.312.28-.468.84-.468.304 0 .578.028.822.084.244.056.47.12.678.192l.312-1.392a5.137 5.137 0 0 0-.84-.222 5.81 5.81 0 0 0-1.104-.102c-.768 0-1.372.172-1.812.516-.44.344-.66.812-.66 1.404 0 .304.044.564.132.78.088.216.212.402.372.558.16.156.354.29.582.402.228.112.482.22.762.324.36.136.628.258.804.366.176.108.264.234.264.378 0 .184-.068.308-.204.372-.136.064-.368.096-.696.096-.312 0-.628-.034-.948-.102a5.865 5.865 0 0 1-.936-.282l-.3 1.452c.144.064.402.144.774.24s.838.144 1.398.144zM289.824 340v-2.76c.2.16.402.356.606.588.204.232.398.474.582.726.184.252.358.504.522.756.164.252.31.482.438.69h2.052a13.728 13.728 0 0 0-1.164-1.836c-.24-.32-.488-.63-.744-.93a8.22 8.22 0 0 0-.744-.774c.48-.472.922-.93 1.326-1.374.404-.444.818-.91 1.242-1.398h-2.124a89.104 89.104 0 0 1-.9 1.062c-.176.204-.358.41-.546.618l-.546.6v-5.28l-1.788.288V340h1.788zm7.58.144c.528 0 1.032-.038 1.512-.114.48-.076.872-.158 1.176-.246v-6.096h-1.788v4.872a6.648 6.648 0 0 1-.792.06c-.416 0-.7-.128-.852-.384-.152-.256-.228-.672-.228-1.248v-3.3h-1.788v3.516c0 .432.044.828.132 1.188.088.36.236.67.444.93.208.26.49.462.846.606.356.144.802.216 1.338.216zm6.788.012c.52 0 .984-.078 1.392-.234a2.821 2.821 0 0 0 1.032-.666c.28-.288.494-.636.642-1.044a3.99 3.99 0 0 0 .222-1.368c0-.496-.06-.946-.18-1.35a2.991 2.991 0 0 0-.528-1.038 2.326 2.326 0 0 0-.864-.666 2.85 2.85 0 0 0-1.188-.234 3.205 3.205 0 0 0-1.32.276v-3.144l-1.788.288v8.82c.16.048.344.094.552.138.208.044.426.082.654.114.228.032.46.058.696.078.236.02.462.03.678.03zm-.012-1.524a5.072 5.072 0 0 1-.78-.06v-3.252c.112-.072.258-.132.438-.18a2.11 2.11 0 0 1 .546-.072c.848 0 1.272.576 1.272 1.728 0 .552-.124.996-.372 1.332-.248.336-.616.504-1.104.504zm7.556 1.536c.224 0 .448-.012.672-.036.224-.024.434-.054.63-.09s.374-.078.534-.126a2.47 2.47 0 0 0 .384-.144l-.24-1.452c-.2.088-.458.162-.774.222s-.638.09-.966.09c-.512 0-.92-.108-1.224-.324a1.188 1.188 0 0 1-.516-.876h4.056c.008-.096.016-.206.024-.33.008-.124.012-.238.012-.342 0-1.064-.26-1.87-.78-2.418s-1.228-.822-2.124-.822c-.384 0-.758.072-1.122.216a2.82 2.82 0 0 0-.966.636c-.28.28-.506.63-.678 1.05-.172.42-.258.91-.258 1.47 0 .464.066.896.198 1.296s.336.746.612 1.038c.276.292.624.522 1.044.69.42.168.914.252 1.482.252zm.864-3.96h-2.364a2.56 2.56 0 0 1 .114-.45c.052-.148.126-.278.222-.39.096-.112.216-.202.36-.27a1.2 1.2 0 0 1 .516-.102c.208 0 .382.036.522.108a1.086 1.086 0 0 1 .552.66c.044.144.07.292.078.444zm4.736 3.792v-4.824c.08-.024.198-.046.354-.066a3.23 3.23 0 0 1 1.098.036c.216.044.404.086.564.126l.3-1.476a1.92 1.92 0 0 0-.348-.102 7.264 7.264 0 0 0-.816-.12 4.052 4.052 0 0 0-.348-.018c-.536 0-1.022.05-1.458.15-.436.1-.814.206-1.134.318V340h1.788zm4.904 0v-4.872a6.648 6.648 0 0 1 .792-.06c.416 0 .7.12.852.36.152.24.228.648.228 1.224V340h1.788v-3.564c0-.432-.044-.824-.132-1.176a2.314 2.314 0 0 0-.444-.912 2.01 2.01 0 0 0-.846-.594c-.356-.14-.802-.21-1.338-.21-.528 0-1.032.038-1.512.114-.48.076-.872.158-1.176.246V340h1.788zm8.156.168c.224 0 .448-.012.672-.036.224-.024.434-.054.63-.09s.374-.078.534-.126a2.47 2.47 0 0 0 .384-.144l-.24-1.452c-.2.088-.458.162-.774.222s-.638.09-.966.09c-.512 0-.92-.108-1.224-.324a1.188 1.188 0 0 1-.516-.876h4.056c.008-.096.016-.206.024-.33.008-.124.012-.238.012-.342 0-1.064-.26-1.87-.78-2.418s-1.228-.822-2.124-.822c-.384 0-.758.072-1.122.216a2.82 2.82 0 0 0-.966.636c-.28.28-.506.63-.678 1.05-.172.42-.258.91-.258 1.47 0 .464.066.896.198 1.296s.336.746.612 1.038c.276.292.624.522 1.044.69.42.168.914.252 1.482.252zm.864-3.96h-2.364a2.56 2.56 0 0 1 .114-.45c.052-.148.126-.278.222-.39.096-.112.216-.202.36-.27a1.2 1.2 0 0 1 .516-.102c.208 0 .382.036.522.108a1.086 1.086 0 0 1 .552.66c.044.144.07.292.078.444zm5.384 3.936c.384 0 .708-.032.972-.096s.504-.14.72-.228l-.252-1.392a3.416 3.416 0 0 1-1.152.204c-.4 0-.666-.112-.798-.336-.132-.224-.198-.524-.198-.9v-2.22h2.148v-1.488h-2.148v-1.86l-1.788.288v5.304c0 .408.038.78.114 1.116.076.336.21.622.402.858.192.236.448.42.768.552.32.132.724.198 1.212.198zm5.528.024c.224 0 .448-.012.672-.036.224-.024.434-.054.63-.09s.374-.078.534-.126a2.47 2.47 0 0 0 .384-.144l-.24-1.452c-.2.088-.458.162-.774.222s-.638.09-.966.09c-.512 0-.92-.108-1.224-.324a1.188 1.188 0 0 1-.516-.876h4.056c.008-.096.016-.206.024-.33.008-.124.012-.238.012-.342 0-1.064-.26-1.87-.78-2.418s-1.228-.822-2.124-.822c-.384 0-.758.072-1.122.216a2.82 2.82 0 0 0-.966.636c-.28.28-.506.63-.678 1.05-.172.42-.258.91-.258 1.47 0 .464.066.896.198 1.296s.336.746.612 1.038c.276.292.624.522 1.044.69.42.168.914.252 1.482.252zm.864-3.96h-2.364a2.56 2.56 0 0 1 .114-.45c.052-.148.126-.278.222-.39.096-.112.216-.202.36-.27a1.2 1.2 0 0 1 .516-.102c.208 0 .382.036.522.108a1.086 1.086 0 0 1 .552.66c.044.144.07.292.078.444zm4.748 3.96c.856 0 1.518-.16 1.986-.48.468-.32.702-.792.702-1.416 0-.264-.03-.496-.09-.696-.06-.2-.164-.382-.312-.546a2.284 2.284 0 0 0-.606-.456 7.323 7.323 0 0 0-.972-.426 5.757 5.757 0 0 1-.474-.198 2.007 2.007 0 0 1-.294-.168.41.41 0 0 1-.144-.162.483.483 0 0 1-.036-.192c0-.312.28-.468.84-.468.304 0 .578.028.822.084.244.056.47.12.678.192l.312-1.392a5.137 5.137 0 0 0-.84-.222 5.81 5.81 0 0 0-1.104-.102c-.768 0-1.372.172-1.812.516-.44.344-.66.812-.66 1.404 0 .304.044.564.132.78.088.216.212.402.372.558.16.156.354.29.582.402.228.112.482.22.762.324.36.136.628.258.804.366.176.108.264.234.264.378 0 .184-.068.308-.204.372-.136.064-.368.096-.696.096-.312 0-.628-.034-.948-.102a5.865 5.865 0 0 1-.936-.282l-.3 1.452c.144.064.402.144.774.24s.838.144 1.398.144zm143.04-.168v-2.76c.2.16.402.356.606.588.204.232.398.474.582.726.184.252.358.504.522.756.164.252.31.482.438.69h2.052a13.728 13.728 0 0 0-1.164-1.836c-.24-.32-.488-.63-.744-.93a8.22 8.22 0 0 0-.744-.774c.48-.472.922-.93 1.326-1.374.404-.444.818-.91 1.242-1.398h-2.124a89.104 89.104 0 0 1-.9 1.062c-.176.204-.358.41-.546.618l-.546.6v-5.28l-1.788.288V340h1.788zm7.58.144c.528 0 1.032-.038 1.512-.114.48-.076.872-.158 1.176-.246v-6.096h-1.788v4.872a6.648 6.648 0 0 1-.792.06c-.416 0-.7-.128-.852-.384-.152-.256-.228-.672-.228-1.248v-3.3h-1.788v3.516c0 .432.044.828.132 1.188.088.36.236.67.444.93.208.26.49.462.846.606.356.144.802.216 1.338.216zm6.788.012c.52 0 .984-.078 1.392-.234a2.821 2.821 0 0 0 1.032-.666c.28-.288.494-.636.642-1.044a3.99 3.99 0 0 0 .222-1.368c0-.496-.06-.946-.18-1.35a2.991 2.991 0 0 0-.528-1.038 2.326 2.326 0 0 0-.864-.666 2.85 2.85 0 0 0-1.188-.234 3.205 3.205 0 0 0-1.32.276v-3.144l-1.788.288v8.82c.16.048.344.094.552.138.208.044.426.082.654.114.228.032.46.058.696.078.236.02.462.03.678.03zm-.012-1.524a5.072 5.072 0 0 1-.78-.06v-3.252c.112-.072.258-.132.438-.18a2.11 2.11 0 0 1 .546-.072c.848 0 1.272.576 1.272 1.728 0 .552-.124.996-.372 1.332-.248.336-.616.504-1.104.504zm7.556 1.536c.224 0 .448-.012.672-.036.224-.024.434-.054.63-.09s.374-.078.534-.126a2.47 2.47 0 0 0 .384-.144l-.24-1.452c-.2.088-.458.162-.774.222s-.638.09-.966.09c-.512 0-.92-.108-1.224-.324a1.188 1.188 0 0 1-.516-.876h4.056c.008-.096.016-.206.024-.33.008-.124.012-.238.012-.342 0-1.064-.26-1.87-.78-2.418s-1.228-.822-2.124-.822c-.384 0-.758.072-1.122.216a2.82 2.82 0 0 0-.966.636c-.28.28-.506.63-.678 1.05-.172.42-.258.91-.258 1.47 0 .464.066.896.198 1.296s.336.746.612 1.038c.276.292.624.522 1.044.69.42.168.914.252 1.482.252zm.864-3.96h-2.364a2.56 2.56 0 0 1 .114-.45c.052-.148.126-.278.222-.39.096-.112.216-.202.36-.27a1.2 1.2 0 0 1 .516-.102c.208 0 .382.036.522.108a1.086 1.086 0 0 1 .552.66c.044.144.07.292.078.444zm4.736 3.792v-4.824c.08-.024.198-.046.354-.066a3.23 3.23 0 0 1 1.098.036c.216.044.404.086.564.126l.3-1.476a1.92 1.92 0 0 0-.348-.102 7.264 7.264 0 0 0-.816-.12 4.052 4.052 0 0 0-.348-.018c-.536 0-1.022.05-1.458.15-.436.1-.814.206-1.134.318V340h1.788zm4.904 0v-4.872a6.648 6.648 0 0 1 .792-.06c.416 0 .7.12.852.36.152.24.228.648.228 1.224V340h1.788v-3.564c0-.432-.044-.824-.132-1.176a2.314 2.314 0 0 0-.444-.912 2.01 2.01 0 0 0-.846-.594c-.356-.14-.802-.21-1.338-.21-.528 0-1.032.038-1.512.114-.48.076-.872.158-1.176.246V340h1.788zm8.156.168c.224 0 .448-.012.672-.036.224-.024.434-.054.63-.09s.374-.078.534-.126a2.47 2.47 0 0 0 .384-.144l-.24-1.452c-.2.088-.458.162-.774.222s-.638.09-.966.09c-.512 0-.92-.108-1.224-.324a1.188 1.188 0 0 1-.516-.876h4.056c.008-.096.016-.206.024-.33.008-.124.012-.238.012-.342 0-1.064-.26-1.87-.78-2.418s-1.228-.822-2.124-.822c-.384 0-.758.072-1.122.216a2.82 2.82 0 0 0-.966.636c-.28.28-.506.63-.678 1.05-.172.42-.258.91-.258 1.47 0 .464.066.896.198 1.296s.336.746.612 1.038c.276.292.624.522 1.044.69.42.168.914.252 1.482.252zm.864-3.96h-2.364a2.56 2.56 0 0 1 .114-.45c.052-.148.126-.278.222-.39.096-.112.216-.202.36-.27a1.2 1.2 0 0 1 .516-.102c.208 0 .382.036.522.108a1.086 1.086 0 0 1 .552.66c.044.144.07.292.078.444zm5.384 3.936c.384 0 .708-.032.972-.096s.504-.14.72-.228l-.252-1.392a3.416 3.416 0 0 1-1.152.204c-.4 0-.666-.112-.798-.336-.132-.224-.198-.524-.198-.9v-2.22h2.148v-1.488h-2.148v-1.86l-1.788.288v5.304c0 .408.038.78.114 1.116.076.336.21.622.402.858.192.236.448.42.768.552.32.132.724.198 1.212.198zm5.528.024c.224 0 .448-.012.672-.036.224-.024.434-.054.63-.09s.374-.078.534-.126a2.47 2.47 0 0 0 .384-.144l-.24-1.452c-.2.088-.458.162-.774.222s-.638.09-.966.09c-.512 0-.92-.108-1.224-.324a1.188 1.188 0 0 1-.516-.876h4.056c.008-.096.016-.206.024-.33.008-.124.012-.238.012-.342 0-1.064-.26-1.87-.78-2.418s-1.228-.822-2.124-.822c-.384 0-.758.072-1.122.216a2.82 2.82 0 0 0-.966.636c-.28.28-.506.63-.678 1.05-.172.42-.258.91-.258 1.47 0 .464.066.896.198 1.296s.336.746.612 1.038c.276.292.624.522 1.044.69.42.168.914.252 1.482.252zm.864-3.96h-2.364a2.56 2.56 0 0 1 .114-.45c.052-.148.126-.278.222-.39.096-.112.216-.202.36-.27a1.2 1.2 0 0 1 .516-.102c.208 0 .382.036.522.108a1.086 1.086 0 0 1 .552.66c.044.144.07.292.078.444zm4.748 3.96c.856 0 1.518-.16 1.986-.48.468-.32.702-.792.702-1.416 0-.264-.03-.496-.09-.696-.06-.2-.164-.382-.312-.546a2.284 2.284 0 0 0-.606-.456 7.323 7.323 0 0 0-.972-.426 5.757 5.757 0 0 1-.474-.198 2.007 2.007 0 0 1-.294-.168.41.41 0 0 1-.144-.162.483.483 0 0 1-.036-.192c0-.312.28-.468.84-.468.304 0 .578.028.822.084.244.056.47.12.678.192l.312-1.392a5.137 5.137 0 0 0-.84-.222 5.81 5.81 0 0 0-1.104-.102c-.768 0-1.372.172-1.812.516-.44.344-.66.812-.66 1.404 0 .304.044.564.132.78.088.216.212.402.372.558.16.156.354.29.582.402.228.112.482.22.762.324.36.136.628.258.804.366.176.108.264.234.264.378 0 .184-.068.308-.204.372-.136.064-.368.096-.696.096-.312 0-.628-.034-.948-.102a5.865 5.865 0 0 1-.936-.282l-.3 1.452c.144.064.402.144.774.24s.838.144 1.398.144zM289.824 151v-2.76c.2.16.402.356.606.588.204.232.398.474.582.726.184.252.358.504.522.756.164.252.31.482.438.69h2.052a13.728 13.728 0 0 0-1.164-1.836c-.24-.32-.488-.63-.744-.93a8.22 8.22 0 0 0-.744-.774c.48-.472.922-.93 1.326-1.374.404-.444.818-.91 1.242-1.398h-2.124a89.104 89.104 0 0 1-.9 1.062c-.176.204-.358.41-.546.618l-.546.6v-5.28l-1.788.288V151h1.788zm7.58.144c.528 0 1.032-.038 1.512-.114.48-.076.872-.158 1.176-.246v-6.096h-1.788v4.872a6.648 6.648 0 0 1-.792.06c-.416 0-.7-.128-.852-.384-.152-.256-.228-.672-.228-1.248v-3.3h-1.788v3.516c0 .432.044.828.132 1.188.088.36.236.67.444.93.208.26.49.462.846.606.356.144.802.216 1.338.216zm6.788.012c.52 0 .984-.078 1.392-.234a2.821 2.821 0 0 0 1.032-.666c.28-.288.494-.636.642-1.044a3.99 3.99 0 0 0 .222-1.368c0-.496-.06-.946-.18-1.35a2.991 2.991 0 0 0-.528-1.038 2.326 2.326 0 0 0-.864-.666 2.85 2.85 0 0 0-1.188-.234 3.205 3.205 0 0 0-1.32.276v-3.144l-1.788.288v8.82c.16.048.344.094.552.138.208.044.426.082.654.114.228.032.46.058.696.078.236.02.462.03.678.03zm-.012-1.524a5.072 5.072 0 0 1-.78-.06v-3.252c.112-.072.258-.132.438-.18a2.11 2.11 0 0 1 .546-.072c.848 0 1.272.576 1.272 1.728 0 .552-.124.996-.372 1.332-.248.336-.616.504-1.104.504zm7.556 1.536c.224 0 .448-.012.672-.036.224-.024.434-.054.63-.09s.374-.078.534-.126a2.47 2.47 0 0 0 .384-.144l-.24-1.452c-.2.088-.458.162-.774.222s-.638.09-.966.09c-.512 0-.92-.108-1.224-.324a1.188 1.188 0 0 1-.516-.876h4.056c.008-.096.016-.206.024-.33.008-.124.012-.238.012-.342 0-1.064-.26-1.87-.78-2.418s-1.228-.822-2.124-.822c-.384 0-.758.072-1.122.216a2.82 2.82 0 0 0-.966.636c-.28.28-.506.63-.678 1.05-.172.42-.258.91-.258 1.47 0 .464.066.896.198 1.296s.336.746.612 1.038c.276.292.624.522 1.044.69.42.168.914.252 1.482.252zm.864-3.96h-2.364a2.56 2.56 0 0 1 .114-.45c.052-.148.126-.278.222-.39.096-.112.216-.202.36-.27a1.2 1.2 0 0 1 .516-.102c.208 0 .382.036.522.108a1.086 1.086 0 0 1 .552.66c.044.144.07.292.078.444zm4.736 3.792v-4.824c.08-.024.198-.046.354-.066a3.23 3.23 0 0 1 1.098.036c.216.044.404.086.564.126l.3-1.476a1.92 1.92 0 0 0-.348-.102 7.264 7.264 0 0 0-.816-.12 4.052 4.052 0 0 0-.348-.018c-.536 0-1.022.05-1.458.15-.436.1-.814.206-1.134.318V151h1.788zm4.904 0v-4.872a6.648 6.648 0 0 1 .792-.06c.416 0 .7.12.852.36.152.24.228.648.228 1.224V151h1.788v-3.564c0-.432-.044-.824-.132-1.176a2.314 2.314 0 0 0-.444-.912 2.01 2.01 0 0 0-.846-.594c-.356-.14-.802-.21-1.338-.21-.528 0-1.032.038-1.512.114-.48.076-.872.158-1.176.246V151h1.788zm8.156.168c.224 0 .448-.012.672-.036.224-.024.434-.054.63-.09s.374-.078.534-.126a2.47 2.47 0 0 0 .384-.144l-.24-1.452c-.2.088-.458.162-.774.222s-.638.09-.966.09c-.512 0-.92-.108-1.224-.324a1.188 1.188 0 0 1-.516-.876h4.056c.008-.096.016-.206.024-.33.008-.124.012-.238.012-.342 0-1.064-.26-1.87-.78-2.418s-1.228-.822-2.124-.822c-.384 0-.758.072-1.122.216a2.82 2.82 0 0 0-.966.636c-.28.28-.506.63-.678 1.05-.172.42-.258.91-.258 1.47 0 .464.066.896.198 1.296s.336.746.612 1.038c.276.292.624.522 1.044.69.42.168.914.252 1.482.252zm.864-3.96h-2.364a2.56 2.56 0 0 1 .114-.45c.052-.148.126-.278.222-.39.096-.112.216-.202.36-.27a1.2 1.2 0 0 1 .516-.102c.208 0 .382.036.522.108a1.086 1.086 0 0 1 .552.66c.044.144.07.292.078.444zm5.384 3.936c.384 0 .708-.032.972-.096s.504-.14.72-.228l-.252-1.392a3.416 3.416 0 0 1-1.152.204c-.4 0-.666-.112-.798-.336-.132-.224-.198-.524-.198-.9v-2.22h2.148v-1.488h-2.148v-1.86l-1.788.288v5.304c0 .408.038.78.114 1.116.076.336.21.622.402.858.192.236.448.42.768.552.32.132.724.198 1.212.198zm5.528.024c.224 0 .448-.012.672-.036.224-.024.434-.054.63-.09s.374-.078.534-.126a2.47 2.47 0 0 0 .384-.144l-.24-1.452c-.2.088-.458.162-.774.222s-.638.09-.966.09c-.512 0-.92-.108-1.224-.324a1.188 1.188 0 0 1-.516-.876h4.056c.008-.096.016-.206.024-.33.008-.124.012-.238.012-.342 0-1.064-.26-1.87-.78-2.418s-1.228-.822-2.124-.822c-.384 0-.758.072-1.122.216a2.82 2.82 0 0 0-.966.636c-.28.28-.506.63-.678 1.05-.172.42-.258.91-.258 1.47 0 .464.066.896.198 1.296s.336.746.612 1.038c.276.292.624.522 1.044.69.42.168.914.252 1.482.252zm.864-3.96h-2.364a2.56 2.56 0 0 1 .114-.45c.052-.148.126-.278.222-.39.096-.112.216-.202.36-.27a1.2 1.2 0 0 1 .516-.102c.208 0 .382.036.522.108a1.086 1.086 0 0 1 .552.66c.044.144.07.292.078.444zm4.748 3.96c.856 0 1.518-.16 1.986-.48.468-.32.702-.792.702-1.416 0-.264-.03-.496-.09-.696-.06-.2-.164-.382-.312-.546a2.284 2.284 0 0 0-.606-.456 7.323 7.323 0 0 0-.972-.426 5.757 5.757 0 0 1-.474-.198 2.007 2.007 0 0 1-.294-.168.41.41 0 0 1-.144-.162.483.483 0 0 1-.036-.192c0-.312.28-.468.84-.468.304 0 .578.028.822.084.244.056.47.12.678.192l.312-1.392a5.137 5.137 0 0 0-.84-.222 5.81 5.81 0 0 0-1.104-.102c-.768 0-1.372.172-1.812.516-.44.344-.66.812-.66 1.404 0 .304.044.564.132.78.088.216.212.402.372.558.16.156.354.29.582.402.228.112.482.22.762.324.36.136.628.258.804.366.176.108.264.234.264.378 0 .184-.068.308-.204.372-.136.064-.368.096-.696.096-.312 0-.628-.034-.948-.102a5.865 5.865 0 0 1-.936-.282l-.3 1.452c.144.064.402.144.774.24s.838.144 1.398.144zm143.04-.168v-2.76c.2.16.402.356.606.588.204.232.398.474.582.726.184.252.358.504.522.756.164.252.31.482.438.69h2.052a13.728 13.728 0 0 0-1.164-1.836c-.24-.32-.488-.63-.744-.93a8.22 8.22 0 0 0-.744-.774c.48-.472.922-.93 1.326-1.374.404-.444.818-.91 1.242-1.398h-2.124a89.104 89.104 0 0 1-.9 1.062c-.176.204-.358.41-.546.618l-.546.6v-5.28l-1.788.288V151h1.788zm7.58.144c.528 0 1.032-.038 1.512-.114.48-.076.872-.158 1.176-.246v-6.096h-1.788v4.872a6.648 6.648 0 0 1-.792.06c-.416 0-.7-.128-.852-.384-.152-.256-.228-.672-.228-1.248v-3.3h-1.788v3.516c0 .432.044.828.132 1.188.088.36.236.67.444.93.208.26.49.462.846.606.356.144.802.216 1.338.216zm6.788.012c.52 0 .984-.078 1.392-.234a2.821 2.821 0 0 0 1.032-.666c.28-.288.494-.636.642-1.044a3.99 3.99 0 0 0 .222-1.368c0-.496-.06-.946-.18-1.35a2.991 2.991 0 0 0-.528-1.038 2.326 2.326 0 0 0-.864-.666 2.85 2.85 0 0 0-1.188-.234 3.205 3.205 0 0 0-1.32.276v-3.144l-1.788.288v8.82c.16.048.344.094.552.138.208.044.426.082.654.114.228.032.46.058.696.078.236.02.462.03.678.03zm-.012-1.524a5.072 5.072 0 0 1-.78-.06v-3.252c.112-.072.258-.132.438-.18a2.11 2.11 0 0 1 .546-.072c.848 0 1.272.576 1.272 1.728 0 .552-.124.996-.372 1.332-.248.336-.616.504-1.104.504zm7.556 1.536c.224 0 .448-.012.672-.036.224-.024.434-.054.63-.09s.374-.078.534-.126a2.47 2.47 0 0 0 .384-.144l-.24-1.452c-.2.088-.458.162-.774.222s-.638.09-.966.09c-.512 0-.92-.108-1.224-.324a1.188 1.188 0 0 1-.516-.876h4.056c.008-.096.016-.206.024-.33.008-.124.012-.238.012-.342 0-1.064-.26-1.87-.78-2.418s-1.228-.822-2.124-.822c-.384 0-.758.072-1.122.216a2.82 2.82 0 0 0-.966.636c-.28.28-.506.63-.678 1.05-.172.42-.258.91-.258 1.47 0 .464.066.896.198 1.296s.336.746.612 1.038c.276.292.624.522 1.044.69.42.168.914.252 1.482.252zm.864-3.96h-2.364a2.56 2.56 0 0 1 .114-.45c.052-.148.126-.278.222-.39.096-.112.216-.202.36-.27a1.2 1.2 0 0 1 .516-.102c.208 0 .382.036.522.108a1.086 1.086 0 0 1 .552.66c.044.144.07.292.078.444zm4.736 3.792v-4.824c.08-.024.198-.046.354-.066a3.23 3.23 0 0 1 1.098.036c.216.044.404.086.564.126l.3-1.476a1.92 1.92 0 0 0-.348-.102 7.264 7.264 0 0 0-.816-.12 4.052 4.052 0 0 0-.348-.018c-.536 0-1.022.05-1.458.15-.436.1-.814.206-1.134.318V151h1.788zm4.904 0v-4.872a6.648 6.648 0 0 1 .792-.06c.416 0 .7.12.852.36.152.24.228.648.228 1.224V151h1.788v-3.564c0-.432-.044-.824-.132-1.176a2.314 2.314 0 0 0-.444-.912 2.01 2.01 0 0 0-.846-.594c-.356-.14-.802-.21-1.338-.21-.528 0-1.032.038-1.512.114-.48.076-.872.158-1.176.246V151h1.788zm8.156.168c.224 0 .448-.012.672-.036.224-.024.434-.054.63-.09s.374-.078.534-.126a2.47 2.47 0 0 0 .384-.144l-.24-1.452c-.2.088-.458.162-.774.222s-.638.09-.966.09c-.512 0-.92-.108-1.224-.324a1.188 1.188 0 0 1-.516-.876h4.056c.008-.096.016-.206.024-.33.008-.124.012-.238.012-.342 0-1.064-.26-1.87-.78-2.418s-1.228-.822-2.124-.822c-.384 0-.758.072-1.122.216a2.82 2.82 0 0 0-.966.636c-.28.28-.506.63-.678 1.05-.172.42-.258.91-.258 1.47 0 .464.066.896.198 1.296s.336.746.612 1.038c.276.292.624.522 1.044.69.42.168.914.252 1.482.252zm.864-3.96h-2.364a2.56 2.56 0 0 1 .114-.45c.052-.148.126-.278.222-.39.096-.112.216-.202.36-.27a1.2 1.2 0 0 1 .516-.102c.208 0 .382.036.522.108a1.086 1.086 0 0 1 .552.66c.044.144.07.292.078.444zm5.384 3.936c.384 0 .708-.032.972-.096s.504-.14.72-.228l-.252-1.392a3.416 3.416 0 0 1-1.152.204c-.4 0-.666-.112-.798-.336-.132-.224-.198-.524-.198-.9v-2.22h2.148v-1.488h-2.148v-1.86l-1.788.288v5.304c0 .408.038.78.114 1.116.076.336.21.622.402.858.192.236.448.42.768.552.32.132.724.198 1.212.198zm5.528.024c.224 0 .448-.012.672-.036.224-.024.434-.054.63-.09s.374-.078.534-.126a2.47 2.47 0 0 0 .384-.144l-.24-1.452c-.2.088-.458.162-.774.222s-.638.09-.966.09c-.512 0-.92-.108-1.224-.324a1.188 1.188 0 0 1-.516-.876h4.056c.008-.096.016-.206.024-.33.008-.124.012-.238.012-.342 0-1.064-.26-1.87-.78-2.418s-1.228-.822-2.124-.822c-.384 0-.758.072-1.122.216a2.82 2.82 0 0 0-.966.636c-.28.28-.506.63-.678 1.05-.172.42-.258.91-.258 1.47 0 .464.066.896.198 1.296s.336.746.612 1.038c.276.292.624.522 1.044.69.42.168.914.252 1.482.252zm.864-3.96h-2.364a2.56 2.56 0 0 1 .114-.45c.052-.148.126-.278.222-.39.096-.112.216-.202.36-.27a1.2 1.2 0 0 1 .516-.102c.208 0 .382.036.522.108a1.086 1.086 0 0 1 .552.66c.044.144.07.292.078.444zm4.748 3.96c.856 0 1.518-.16 1.986-.48.468-.32.702-.792.702-1.416 0-.264-.03-.496-.09-.696-.06-.2-.164-.382-.312-.546a2.284 2.284 0 0 0-.606-.456 7.323 7.323 0 0 0-.972-.426 5.757 5.757 0 0 1-.474-.198 2.007 2.007 0 0 1-.294-.168.41.41 0 0 1-.144-.162.483.483 0 0 1-.036-.192c0-.312.28-.468.84-.468.304 0 .578.028.822.084.244.056.47.12.678.192l.312-1.392a5.137 5.137 0 0 0-.84-.222 5.81 5.81 0 0 0-1.104-.102c-.768 0-1.372.172-1.812.516-.44.344-.66.812-.66 1.404 0 .304.044.564.132.78.088.216.212.402.372.558.16.156.354.29.582.402.228.112.482.22.762.324.36.136.628.258.804.366.176.108.264.234.264.378 0 .184-.068.308-.204.372-.136.064-.368.096-.696.096-.312 0-.628-.034-.948-.102a5.865 5.865 0 0 1-.936-.282l-.3 1.452c.144.064.402.144.774.24s.838.144 1.398.144z" fill="#000" fill-rule="nonzero"></path></g></svg>