<?xml version="1.0" encoding="UTF-8"?>
<svg width="640px" height="611px" viewBox="0 0 640 611" version="1.1" xmlns="http://www.w3.org/2000/svg" xmlns:xlink="http://www.w3.org/1999/xlink">
    <!-- Generator: Sketch 60.1 (88133) - https://sketch.com -->
    <title>cluster-for-all</title>
    <desc>Created with Sketch.</desc>
    <g id="cluster-for-all" stroke="none" stroke-width="1" fill="none" fill-rule="evenodd">
        <rect fill="#FFFFFF" x="0" y="0" width="640" height="611"></rect>
        <path d="M318.017678,0.049288798 C312.962369,0.304956261 308.00854,1.56516416 303.445119,3.75641135 L104.588509,99.2844481 C94.162268,104.290044 86.5897654,113.757918 84.0137553,125.006779 L34.9552044,339.585754 C32.666799,349.576099 34.5298597,360.06792 40.1176803,368.658226 C40.7887915,369.698731 41.5104425,370.705721 42.2800389,371.675575 L179.919488,543.733136 C187.137152,552.751185 198.07964,558 209.650121,558 L430.377332,557.949003 C441.943892,557.957502 452.885726,552.715879 460.107965,543.706983 L597.697096,371.624577 C604.915324,362.611928 607.622204,350.793496 605.046762,339.535411 L555.911755,124.955781 C553.335745,113.706266 545.763242,104.239047 535.337001,99.2327968 L336.455558,3.75641135 C330.715287,1.00006987 324.376583,-0.274390858 318.017678,0.049288798 Z" id="Path" fill="#326CE5" fill-rule="nonzero"></path>
        <g id="App-1" transform="translate(144.000000, 107.000000)">
            <g id="Group" transform="translate(0.000000, 50.523125)">
                <path d="M70.3188394,35.4932564 L53.8689396,7.50607533 C52.9607255,5.95965978 51.2674335,5 49.4510054,5 L16.549845,5 C14.7327366,5 13.0394446,5.95965978 12.1305502,7.50607533 L-4.31934968,35.4932564 C-5.22688344,37.0403402 -5.22688344,38.9603281 -4.31934968,40.505407 L12.1305502,68.4939247 C13.0394446,70.0396719 14.7327366,71 16.549845,71 L49.450325,71 C51.2667532,71 52.9600452,70.0390036 53.8682593,68.4939247 L70.3188394,40.505407 C71.2270535,38.9603281 71.2270535,37.0403402 70.3188394,35.4932564 Z" id="Path" fill="#FFF900" fill-rule="nonzero" transform="translate(33.000000, 38.000000) rotate(90.000000) translate(-33.000000, -38.000000) "></path>
                <text id="DEV" font-family="Helvetica-Bold, Helvetica" font-size="19" font-weight="bold" letter-spacing="-0.16" fill="#333333">
                    <tspan x="13.7296777" y="45.476875">DEV</tspan>
                </text>
            </g>
            <g id="Group-2" transform="translate(74.000000, 50.523125)">
                <path d="M70.3188394,35.4932564 L53.8689396,7.50607533 C52.9607255,5.95965978 51.2674335,5 49.4510054,5 L16.549845,5 C14.7327366,5 13.0394446,5.95965978 12.1305502,7.50607533 L-4.31934968,35.4932564 C-5.22688344,37.0403402 -5.22688344,38.9603281 -4.31934968,40.505407 L12.1305502,68.4939247 C13.0394446,70.0396719 14.7327366,71 16.549845,71 L49.450325,71 C51.2667532,71 52.9600452,70.0390036 53.8682593,68.4939247 L70.3188394,40.505407 C71.2270535,38.9603281 71.2270535,37.0403402 70.3188394,35.4932564 Z" id="Path" fill="#FFF900" fill-rule="nonzero" transform="translate(33.000000, 38.000000) rotate(90.000000) translate(-33.000000, -38.000000) "></path>
                <text id="TEST" font-family="Helvetica-Bold, Helvetica" font-size="19" font-weight="bold" letter-spacing="-0.16" fill="#333333">
                    <tspan x="8.56431641" y="45.476875">TEST</tspan>
                </text>
            </g>
            <g id="Group-3" transform="translate(37.000000, 114.523125)">
                <path d="M70.3188394,35.4932564 L53.8689396,7.50607533 C52.9607255,5.95965978 51.2674335,5 49.4510054,5 L16.549845,5 C14.7327366,5 13.0394446,5.95965978 12.1305502,7.50607533 L-4.31934968,35.4932564 C-5.22688344,37.0403402 -5.22688344,38.9603281 -4.31934968,40.505407 L12.1305502,68.4939247 C13.0394446,70.0396719 14.7327366,71 16.549845,71 L49.450325,71 C51.2667532,71 52.9600452,70.0390036 53.8682593,68.4939247 L70.3188394,40.505407 C71.2270535,38.9603281 71.2270535,37.0403402 70.3188394,35.4932564 Z" id="Path" fill="#FFF900" fill-rule="nonzero" transform="translate(33.000000, 38.000000) rotate(90.000000) translate(-33.000000, -38.000000) "></path>
                <text id="PROD" font-family="Helvetica-Bold, Helvetica" font-size="19" font-weight="bold" letter-spacing="-0.16" fill="#333333">
                    <tspan x="5.89610352" y="45.476875">PROD</tspan>
                </text>
            </g>
            <text id="APP-1" font-family="Helvetica-Bold, Helvetica" font-size="38" font-weight="bold" letter-spacing="-0.16" fill="#FFFFFF">
                <tspan x="15.8445117" y="37">APP 1</tspan>
            </text>
        </g>
        <g id="App-2" transform="translate(356.000000, 107.000000)">
            <g id="Group" transform="translate(0.000000, 50.523125)">
                <path d="M70.3188394,35.4932564 L53.8689396,7.50607533 C52.9607255,5.95965978 51.2674335,5 49.4510054,5 L16.549845,5 C14.7327366,5 13.0394446,5.95965978 12.1305502,7.50607533 L-4.31934968,35.4932564 C-5.22688344,37.0403402 -5.22688344,38.9603281 -4.31934968,40.505407 L12.1305502,68.4939247 C13.0394446,70.0396719 14.7327366,71 16.549845,71 L49.450325,71 C51.2667532,71 52.9600452,70.0390036 53.8682593,68.4939247 L70.3188394,40.505407 C71.2270535,38.9603281 71.2270535,37.0403402 70.3188394,35.4932564 Z" id="Path" fill="#4AFF00" fill-rule="nonzero" transform="translate(33.000000, 38.000000) rotate(90.000000) translate(-33.000000, -38.000000) "></path>
                <text id="DEV" font-family="Helvetica-Bold, Helvetica" font-size="19" font-weight="bold" letter-spacing="-0.16" fill="#333333">
                    <tspan x="13.7296777" y="45.476875">DEV</tspan>
                </text>
            </g>
            <g id="Group-2" transform="translate(74.000000, 50.523125)">
                <path d="M70.3188394,35.4932564 L53.8689396,7.50607533 C52.9607255,5.95965978 51.2674335,5 49.4510054,5 L16.549845,5 C14.7327366,5 13.0394446,5.95965978 12.1305502,7.50607533 L-4.31934968,35.4932564 C-5.22688344,37.0403402 -5.22688344,38.9603281 -4.31934968,40.505407 L12.1305502,68.4939247 C13.0394446,70.0396719 14.7327366,71 16.549845,71 L49.450325,71 C51.2667532,71 52.9600452,70.0390036 53.8682593,68.4939247 L70.3188394,40.505407 C71.2270535,38.9603281 71.2270535,37.0403402 70.3188394,35.4932564 Z" id="Path" fill="#4AFF00" fill-rule="nonzero" transform="translate(33.000000, 38.000000) rotate(90.000000) translate(-33.000000, -38.000000) "></path>
                <text id="TEST" font-family="Helvetica-Bold, Helvetica" font-size="19" font-weight="bold" letter-spacing="-0.16" fill="#333333">
                    <tspan x="8.56431641" y="45.476875">TEST</tspan>
                </text>
            </g>
            <g id="Group-3" transform="translate(37.000000, 114.523125)">
                <path d="M70.3188394,35.4932564 L53.8689396,7.50607533 C52.9607255,5.95965978 51.2674335,5 49.4510054,5 L16.549845,5 C14.7327366,5 13.0394446,5.95965978 12.1305502,7.50607533 L-4.31934968,35.4932564 C-5.22688344,37.0403402 -5.22688344,38.9603281 -4.31934968,40.505407 L12.1305502,68.4939247 C13.0394446,70.0396719 14.7327366,71 16.549845,71 L49.450325,71 C51.2667532,71 52.9600452,70.0390036 53.8682593,68.4939247 L70.3188394,40.505407 C71.2270535,38.9603281 71.2270535,37.0403402 70.3188394,35.4932564 Z" id="Path" fill="#4AFF00" fill-rule="nonzero" transform="translate(33.000000, 38.000000) rotate(90.000000) translate(-33.000000, -38.000000) "></path>
                <text id="PROD" font-family="Helvetica-Bold, Helvetica" font-size="19" font-weight="bold" letter-spacing="-0.16" fill="#333333">
                    <tspan x="5.89610352" y="45.476875">PROD</tspan>
                </text>
            </g>
            <text id="APP-2" font-family="Helvetica-Bold, Helvetica" font-size="38" font-weight="bold" letter-spacing="-0.16" fill="#FFFFFF">
                <tspan x="15.8445117" y="37">APP 2</tspan>
            </text>
        </g>
        <g id="App-3" transform="translate(250.000000, 317.000000)">
            <g id="Group" transform="translate(0.000000, 50.523125)">
                <path d="M70.3188394,35.4932564 L53.8689396,7.50607533 C52.9607255,5.95965978 51.2674335,5 49.4510054,5 L16.549845,5 C14.7327366,5 13.0394446,5.95965978 12.1305502,7.50607533 L-4.31934968,35.4932564 C-5.22688344,37.0403402 -5.22688344,38.9603281 -4.31934968,40.505407 L12.1305502,68.4939247 C13.0394446,70.0396719 14.7327366,71 16.549845,71 L49.450325,71 C51.2667532,71 52.9600452,70.0390036 53.8682593,68.4939247 L70.3188394,40.505407 C71.2270535,38.9603281 71.2270535,37.0403402 70.3188394,35.4932564 Z" id="Path" fill="#FF5353" fill-rule="nonzero" transform="translate(33.000000, 38.000000) rotate(90.000000) translate(-33.000000, -38.000000) "></path>
                <text id="DEV" font-family="Helvetica-Bold, Helvetica" font-size="19" font-weight="bold" letter-spacing="-0.16" fill="#333333">
                    <tspan x="13.7296777" y="45.476875">DEV</tspan>
                </text>
            </g>
            <g id="Group-2" transform="translate(74.000000, 50.523125)">
                <path d="M70.3188394,35.4932564 L53.8689396,7.50607533 C52.9607255,5.95965978 51.2674335,5 49.4510054,5 L16.549845,5 C14.7327366,5 13.0394446,5.95965978 12.1305502,7.50607533 L-4.31934968,35.4932564 C-5.22688344,37.0403402 -5.22688344,38.9603281 -4.31934968,40.505407 L12.1305502,68.4939247 C13.0394446,70.0396719 14.7327366,71 16.549845,71 L49.450325,71 C51.2667532,71 52.9600452,70.0390036 53.8682593,68.4939247 L70.3188394,40.505407 C71.2270535,38.9603281 71.2270535,37.0403402 70.3188394,35.4932564 Z" id="Path" fill="#FF5353" fill-rule="nonzero" transform="translate(33.000000, 38.000000) rotate(90.000000) translate(-33.000000, -38.000000) "></path>
                <text id="TEST" font-family="Helvetica-Bold, Helvetica" font-size="19" font-weight="bold" letter-spacing="-0.16" fill="#333333">
                    <tspan x="8.56431641" y="45.476875">TEST</tspan>
                </text>
            </g>
            <g id="Group-3" transform="translate(37.000000, 114.523125)">
                <path d="M70.3188394,35.4932564 L53.8689396,7.50607533 C52.9607255,5.95965978 51.2674335,5 49.4510054,5 L16.549845,5 C14.7327366,5 13.0394446,5.95965978 12.1305502,7.50607533 L-4.31934968,35.4932564 C-5.22688344,37.0403402 -5.22688344,38.9603281 -4.31934968,40.505407 L12.1305502,68.4939247 C13.0394446,70.0396719 14.7327366,71 16.549845,71 L49.450325,71 C51.2667532,71 52.9600452,70.0390036 53.8682593,68.4939247 L70.3188394,40.505407 C71.2270535,38.9603281 71.2270535,37.0403402 70.3188394,35.4932564 Z" id="Path" fill="#FF5353" fill-rule="nonzero" transform="translate(33.000000, 38.000000) rotate(90.000000) translate(-33.000000, -38.000000) "></path>
                <text id="PROD" font-family="Helvetica-Bold, Helvetica" font-size="19" font-weight="bold" letter-spacing="-0.16" fill="#333333">
                    <tspan x="5.89610352" y="45.476875">PROD</tspan>
                </text>
            </g>
            <text id="APP-3" font-family="Helvetica-Bold, Helvetica" font-size="38" font-weight="bold" letter-spacing="-0.16" fill="#FFFFFF">
                <tspan x="15.8445117" y="37">APP 3</tspan>
            </text>
        </g>
        <path d="M203.394,602 L203.394,591.19 C204.177333,591.816667 204.9685,592.584333 205.7675,593.493 C206.5665,594.401667 207.326333,595.3495 208.047,596.3365 C208.767667,597.3235 209.449167,598.3105 210.0915,599.2975 C210.733833,600.2845 211.305667,601.185333 211.807,602 L211.807,602 L219.844,602 C219.311333,600.966 218.653333,599.822333 217.87,598.569 C217.086667,597.315667 216.225,596.062333 215.285,594.809 C214.345,593.555667 213.373667,592.3415 212.371,591.1665 C211.368333,589.9915 210.397,588.981 209.457,588.135 C211.337,586.286333 213.068167,584.4925 214.6505,582.7535 C216.232833,581.0145 217.854333,579.189333 219.515,577.278 L219.515,577.278 L211.196,577.278 C210.757333,577.810667 210.2325,578.437333 209.6215,579.158 C209.0105,579.878667 208.360333,580.6385 207.671,581.4375 C206.981667,582.2365 206.268833,583.043333 205.5325,583.858 C204.796167,584.672667 204.083333,585.456 203.394,586.208 L203.394,586.208 L203.394,565.528 L196.391,566.656 L196.391,602 L203.394,602 Z M233.549,602.564 C235.617,602.564 237.591,602.415167 239.471,602.1175 C241.351,601.819833 242.886333,601.498667 244.077,601.154 L244.077,601.154 L244.077,577.278 L237.074,577.278 L237.074,596.36 C236.635333,596.422667 236.134,596.4775 235.57,596.5245 C235.006,596.5715 234.473333,596.595 233.972,596.595 C232.342667,596.595 231.230333,596.093667 230.635,595.091 C230.039667,594.088333 229.742,592.459 229.742,590.203 L229.742,590.203 L229.742,577.278 L222.739,577.278 L222.739,591.049 C222.739,592.741 222.911333,594.292 223.256,595.702 C223.600667,597.112 224.180333,598.326167 224.995,599.3445 C225.809667,600.362833 226.914167,601.154 228.3085,601.718 C229.702833,602.282 231.449667,602.564 233.549,602.564 Z M260.602,602.611 C262.638667,602.611 264.456,602.3055 266.054,601.6945 C267.652,601.0835 268.999333,600.214 270.096,599.086 C271.192667,597.958 272.030833,596.595 272.6105,594.997 C273.190167,593.399 273.48,591.613 273.48,589.639 C273.48,587.696333 273.245,585.933833 272.775,584.3515 C272.305,582.769167 271.615667,581.414 270.707,580.286 C269.798333,579.158 268.670333,578.2885 267.323,577.6775 C265.975667,577.0665 264.424667,576.761 262.67,576.761 C261.698667,576.761 260.79,576.855 259.944,577.043 C259.098,577.231 258.283333,577.497333 257.5,577.842 L257.5,577.842 L257.5,565.528 L250.497,566.656 L250.497,601.201 C251.123667,601.389 251.844333,601.569167 252.659,601.7415 C253.473667,601.913833 254.3275,602.062667 255.2205,602.188 C256.1135,602.313333 257.022167,602.415167 257.9465,602.4935 C258.870833,602.571833 259.756,602.611 260.602,602.611 Z M260.555,596.642 C259.928333,596.642 259.348667,596.6185 258.816,596.5715 C258.283333,596.5245 257.844667,596.469667 257.5,596.407 L257.5,596.407 L257.5,583.67 C257.938667,583.388 258.5105,583.153 259.2155,582.965 C259.9205,582.777 260.633333,582.683 261.354,582.683 C264.675333,582.683 266.336,584.939 266.336,589.451 C266.336,591.613 265.850333,593.352 264.879,594.668 C263.907667,595.984 262.466333,596.642 260.555,596.642 Z M290.616,602.658 C291.493333,602.658 292.370667,602.611 293.248,602.517 C294.125333,602.423 294.947833,602.3055 295.7155,602.1645 C296.483167,602.0235 297.180333,601.859 297.807,601.671 C298.433667,601.483 298.935,601.295 299.311,601.107 L299.311,601.107 L298.371,595.42 C297.587667,595.764667 296.577167,596.0545 295.3395,596.2895 C294.101833,596.5245 292.840667,596.642 291.556,596.642 C289.550667,596.642 287.952667,596.219 286.762,595.373 C285.571333,594.527 284.897667,593.383333 284.741,591.942 L284.741,591.942 L300.627,591.942 C300.658333,591.566 300.689667,591.135167 300.721,590.6495 C300.752333,590.163833 300.768,589.717333 300.768,589.31 C300.768,585.142667 299.749667,581.985833 297.713,579.8395 C295.676333,577.693167 292.903333,576.62 289.394,576.62 C287.89,576.62 286.425167,576.902 284.9995,577.466 C283.573833,578.03 282.312667,578.860333 281.216,579.957 C280.119333,581.053667 279.234167,582.4245 278.5605,584.0695 C277.886833,585.7145 277.55,587.633667 277.55,589.827 C277.55,591.644333 277.8085,593.336333 278.3255,594.903 C278.8425,596.469667 279.6415,597.824833 280.7225,598.9685 C281.8035,600.112167 283.1665,601.013 284.8115,601.671 C286.4565,602.329 288.391333,602.658 290.616,602.658 Z M294,587.148 L284.741,587.148 C284.835,586.552667 284.983833,585.965167 285.1875,585.3855 C285.391167,584.805833 285.681,584.296667 286.057,583.858 C286.433,583.419333 286.903,583.066833 287.467,582.8005 C288.031,582.534167 288.704667,582.401 289.488,582.401 C290.302667,582.401 290.984167,582.542 291.5325,582.824 C292.080833,583.106 292.535167,583.466333 292.8955,583.905 C293.255833,584.343667 293.522167,584.845 293.6945,585.409 C293.866833,585.973 293.968667,586.552667 294,587.148 L294,587.148 Z M313.016,602 L313.016,583.106 C313.329333,583.012 313.7915,582.925833 314.4025,582.8475 C315.0135,582.769167 315.538333,582.73 315.977,582.73 C316.948333,582.73 317.857,582.816167 318.703,582.9885 C319.549,583.160833 320.285333,583.325333 320.912,583.482 L320.912,583.482 L322.087,577.701 C321.711,577.544333 321.256667,577.411167 320.724,577.3015 C320.191333,577.191833 319.658667,577.097833 319.126,577.0195 C318.593333,576.941167 318.060667,576.8785 317.528,576.8315 C316.995333,576.7845 316.541,576.761 316.165,576.761 C314.065667,576.761 312.162167,576.956833 310.4545,577.3485 C308.746833,577.740167 307.266333,578.155333 306.013,578.594 L306.013,578.594 L306.013,602 L313.016,602 Z M332.69,602 L332.69,582.918 C333.128667,582.855333 333.63,582.8005 334.194,582.7535 C334.758,582.7065 335.290667,582.683 335.792,582.683 C337.421333,582.683 338.533667,583.153 339.129,584.093 C339.724333,585.033 340.022,586.631 340.022,588.887 L340.022,588.887 L340.022,602 L347.025,602 L347.025,588.041 C347.025,586.349 346.852667,584.813667 346.508,583.435 C346.163333,582.056333 345.583667,580.865667 344.769,579.863 C343.954333,578.860333 342.849833,578.084833 341.4555,577.5365 C340.061167,576.988167 338.314333,576.714 336.215,576.714 C334.147,576.714 332.173,576.862833 330.293,577.1605 C328.413,577.458167 326.877667,577.779333 325.687,578.124 L325.687,578.124 L325.687,602 L332.69,602 Z M365.101,602.658 C365.978333,602.658 366.855667,602.611 367.733,602.517 C368.610333,602.423 369.432833,602.3055 370.2005,602.1645 C370.968167,602.0235 371.665333,601.859 372.292,601.671 C372.918667,601.483 373.42,601.295 373.796,601.107 L373.796,601.107 L372.856,595.42 C372.072667,595.764667 371.062167,596.0545 369.8245,596.2895 C368.586833,596.5245 367.325667,596.642 366.041,596.642 C364.035667,596.642 362.437667,596.219 361.247,595.373 C360.056333,594.527 359.382667,593.383333 359.226,591.942 L359.226,591.942 L375.112,591.942 C375.143333,591.566 375.174667,591.135167 375.206,590.6495 C375.237333,590.163833 375.253,589.717333 375.253,589.31 C375.253,585.142667 374.234667,581.985833 372.198,579.8395 C370.161333,577.693167 367.388333,576.62 363.879,576.62 C362.375,576.62 360.910167,576.902 359.4845,577.466 C358.058833,578.03 356.797667,578.860333 355.701,579.957 C354.604333,581.053667 353.719167,582.4245 353.0455,584.0695 C352.371833,585.7145 352.035,587.633667 352.035,589.827 C352.035,591.644333 352.2935,593.336333 352.8105,594.903 C353.3275,596.469667 354.1265,597.824833 355.2075,598.9685 C356.2885,600.112167 357.6515,601.013 359.2965,601.671 C360.9415,602.329 362.876333,602.658 365.101,602.658 Z M368.485,587.148 L359.226,587.148 C359.32,586.552667 359.468833,585.965167 359.6725,585.3855 C359.876167,584.805833 360.166,584.296667 360.542,583.858 C360.918,583.419333 361.388,583.066833 361.952,582.8005 C362.516,582.534167 363.189667,582.401 363.973,582.401 C364.787667,582.401 365.469167,582.542 366.0175,582.824 C366.565833,583.106 367.020167,583.466333 367.3805,583.905 C367.740833,584.343667 368.007167,584.845 368.1795,585.409 C368.351833,585.973 368.453667,586.552667 368.485,587.148 L368.485,587.148 Z M390.039,602.564 C391.543,602.564 392.812,602.438667 393.846,602.188 C394.88,601.937333 395.82,601.639667 396.666,601.295 L396.666,601.295 L395.679,595.843 C395.021,596.093667 394.2925,596.2895 393.4935,596.4305 C392.6945,596.5715 391.919,596.642 391.167,596.642 C389.600333,596.642 388.5585,596.203333 388.0415,595.326 C387.5245,594.448667 387.266,593.273667 387.266,591.801 L387.266,591.801 L387.266,583.106 L395.679,583.106 L395.679,577.278 L387.266,577.278 L387.266,569.993 L380.263,571.121 L380.263,591.895 C380.263,593.493 380.411833,594.95 380.7095,596.266 C381.007167,597.582 381.532,598.702167 382.284,599.6265 C383.036,600.550833 384.038667,601.2715 385.292,601.7885 C386.545333,602.3055 388.127667,602.564 390.039,602.564 Z M412.157,602.658 C413.034333,602.658 413.911667,602.611 414.789,602.517 C415.666333,602.423 416.488833,602.3055 417.2565,602.1645 C418.024167,602.0235 418.721333,601.859 419.348,601.671 C419.974667,601.483 420.476,601.295 420.852,601.107 L420.852,601.107 L419.912,595.42 C419.128667,595.764667 418.118167,596.0545 416.8805,596.2895 C415.642833,596.5245 414.381667,596.642 413.097,596.642 C411.091667,596.642 409.493667,596.219 408.303,595.373 C407.112333,594.527 406.438667,593.383333 406.282,591.942 L406.282,591.942 L422.168,591.942 C422.199333,591.566 422.230667,591.135167 422.262,590.6495 C422.293333,590.163833 422.309,589.717333 422.309,589.31 C422.309,585.142667 421.290667,581.985833 419.254,579.8395 C417.217333,577.693167 414.444333,576.62 410.935,576.62 C409.431,576.62 407.966167,576.902 406.5405,577.466 C405.114833,578.03 403.853667,578.860333 402.757,579.957 C401.660333,581.053667 400.775167,582.4245 400.1015,584.0695 C399.427833,585.7145 399.091,587.633667 399.091,589.827 C399.091,591.644333 399.3495,593.336333 399.8665,594.903 C400.3835,596.469667 401.1825,597.824833 402.2635,598.9685 C403.3445,600.112167 404.7075,601.013 406.3525,601.671 C407.9975,602.329 409.932333,602.658 412.157,602.658 Z M415.541,587.148 L406.282,587.148 C406.376,586.552667 406.524833,585.965167 406.7285,585.3855 C406.932167,584.805833 407.222,584.296667 407.598,583.858 C407.974,583.419333 408.444,583.066833 409.008,582.8005 C409.572,582.534167 410.245667,582.401 411.029,582.401 C411.843667,582.401 412.525167,582.542 413.0735,582.824 C413.621833,583.106 414.076167,583.466333 414.4365,583.905 C414.796833,584.343667 415.063167,584.845 415.2355,585.409 C415.407833,585.973 415.509667,586.552667 415.541,587.148 L415.541,587.148 Z M434.604,602.658 C437.956667,602.658 440.5495,602.031333 442.3825,600.778 C444.2155,599.524667 445.132,597.676 445.132,595.232 C445.132,594.198 445.0145,593.289333 444.7795,592.506 C444.5445,591.722667 444.137167,591.009833 443.5575,590.3675 C442.977833,589.725167 442.186667,589.129833 441.184,588.5815 C440.181333,588.033167 438.912333,587.477 437.377,586.913 C436.625,586.631 436.006167,586.3725 435.5205,586.1375 C435.034833,585.9025 434.651,585.683167 434.369,585.4795 C434.087,585.275833 433.899,585.064333 433.805,584.845 C433.711,584.625667 433.664,584.375 433.664,584.093 C433.664,582.871 434.760667,582.26 436.954,582.26 C438.144667,582.26 439.217833,582.369667 440.1735,582.589 C441.129167,582.808333 442.014333,583.059 442.829,583.341 L442.829,583.341 L444.051,577.889 C443.236333,577.575667 442.139667,577.285833 440.761,577.0195 C439.382333,576.753167 437.941,576.62 436.437,576.62 C433.429,576.62 431.063333,577.293667 429.34,578.641 C427.616667,579.988333 426.755,581.821333 426.755,584.14 C426.755,585.330667 426.927333,586.349 427.272,587.195 C427.616667,588.041 428.102333,588.7695 428.729,589.3805 C429.355667,589.9915 430.1155,590.516333 431.0085,590.955 C431.9015,591.393667 432.896333,591.816667 433.993,592.224 C435.403,592.756667 436.452667,593.2345 437.142,593.6575 C437.831333,594.0805 438.176,594.574 438.176,595.138 C438.176,595.858667 437.909667,596.344333 437.377,596.595 C436.844333,596.845667 435.935667,596.971 434.651,596.971 C433.429,596.971 432.191333,596.837833 430.938,596.5715 C429.684667,596.305167 428.462667,595.937 427.272,595.467 L427.272,595.467 L426.097,601.154 C426.661,601.404667 427.6715,601.718 429.1285,602.094 C430.5855,602.47 432.410667,602.658 434.604,602.658 Z" id="kubernetes" fill="#000000" fill-rule="nonzero"></path>
    </g>
</svg>