<svg viewBox="0 0 640 597" xmlns="http://www.w3.org/2000/svg"><style>.sans-serif{font-family:-apple-system,BlinkMacSystemFont,'avenir next', avenir,'helvetica neue',helvetica,ubuntu,roboto,noto,'segoe ui',arial,sans-serif}</style><g fill="none" fill-rule="evenodd"><g transform="translate(1.000000, 0.000000)"><path d="M140.023.024a18.795 18.795 0 0 0-7.185 1.827l-98.037 47.08a18.698 18.698 0 0 0-10.144 12.676L.471 167.36a18.638 18.638 0 0 0 2.545 14.327c.33.513.687 1.01 1.066 1.487L71.94 267.97A18.775 18.775 0 0 0 86.597 275l108.82-.025a18.77 18.77 0 0 0 14.657-7.02l67.833-84.807a18.642 18.642 0 0 0 3.623-15.814L257.306 61.582a18.699 18.699 0 0 0-10.143-12.677l-98.05-47.054a18.798 18.798 0 0 0-9.09-1.827z" fill="#326CE5" fill-rule="nonzero"></path><g transform="translate(71.000000, 47.000000)"><g transform="translate(0.000000, 50.523125)"><path d="M35.507 75.319l27.987-16.45C65.04 57.96 66 56.267 66 54.45v-32.9c0-1.817-.96-3.51-2.506-4.42L35.507.68a4.954 4.954 0 0 0-5.012 0L2.506 17.13C.96 18.04 0 19.734 0 21.55v32.9c0 1.817.961 3.51 2.506 4.418l27.989 16.45a4.95 4.95 0 0 0 5.012 0z" fill="#FFF900" fill-rule="nonzero"></path><text font-size="19" font-weight="bold" letter-spacing="-.16" fill="#333" class="sans-serif"><tspan x="6.134" y="45.477">APP 1</tspan></text></g><g transform="translate(74.000000, 50.523125)"><path d="M35.507 75.319l27.987-16.45C65.04 57.96 66 56.267 66 54.45v-32.9c0-1.817-.96-3.51-2.506-4.42L35.507.68a4.954 4.954 0 0 0-5.012 0L2.506 17.13C.96 18.04 0 19.734 0 21.55v32.9c0 1.817.961 3.51 2.506 4.418l27.989 16.45a4.95 4.95 0 0 0 5.012 0z" fill="#4AFF00" fill-rule="nonzero"></path><text font-size="19" font-weight="bold" letter-spacing="-.16" fill="#333" class="sans-serif"><tspan x="5.634" y="45.477">APP 2</tspan></text></g><g transform="translate(37.000000, 114.523125)"><path d="M35.507 75.319l27.987-16.45C65.04 57.96 66 56.267 66 54.45v-32.9c0-1.817-.96-3.51-2.506-4.42L35.507.68a4.954 4.954 0 0 0-5.012 0L2.506 17.13C.96 18.04 0 19.734 0 21.55v32.9c0 1.817.961 3.51 2.506 4.418l27.989 16.45a4.95 4.95 0 0 0 5.012 0z" fill="#FF5353" fill-rule="nonzero"></path><text font-size="19" font-weight="bold" letter-spacing="-.16" fill="#333" class="sans-serif"><tspan x="6.134" y="45.477">APP 3</tspan></text></g><text font-size="38" font-weight="bold" letter-spacing="-.16" fill="#FFF" class="sans-serif"><tspan x="31.196" y="37">DEV</tspan></text></g><path d="M84.346 296v-5.29c.383.307.77.682 1.161 1.127.391.445.763.909 1.116 1.392.353.483.686.966 1 1.449.315.483.595.923.84 1.322h3.933a26.313 26.313 0 0 0-2.231-3.519 36.275 36.275 0 0 0-1.426-1.783 15.66 15.66 0 0 0-1.426-1.483 66.057 66.057 0 0 0 2.541-2.633 156.5 156.5 0 0 0 2.381-2.68h-4.071a120.44 120.44 0 0 1-1.725 2.035c-.337.392-.686.786-1.046 1.185s-.71.782-1.047 1.15v-10.12l-3.427.552V296h3.427zm14.675.276a18.48 18.48 0 0 0 2.898-.219c.92-.145 1.671-.302 2.254-.471v-11.684h-3.427v9.338c-.215.03-.46.058-.736.08a9.44 9.44 0 0 1-.782.035c-.797 0-1.342-.245-1.633-.736-.291-.49-.437-1.288-.437-2.392v-6.325h-3.427v6.739c0 .828.084 1.587.253 2.277.169.69.452 1.284.851 1.782.399.499.94.886 1.622 1.162.682.276 1.537.414 2.564.414zm13.157.023c.997 0 1.886-.15 2.668-.448a5.407 5.407 0 0 0 1.978-1.277 5.535 5.535 0 0 0 1.23-2.001c.284-.782.426-1.656.426-2.622 0-.95-.115-1.813-.345-2.588-.23-.774-.567-1.437-1.012-1.989a4.459 4.459 0 0 0-1.656-1.276c-.66-.3-1.418-.449-2.277-.449a6.142 6.142 0 0 0-2.53.529v-6.026l-3.427.552v16.905c.307.092.66.18 1.058.264.399.085.817.158 1.254.219.436.061.881.111 1.334.15.452.038.885.057 1.299.057zm-.023-2.921c-.307 0-.59-.012-.851-.034a7.306 7.306 0 0 1-.644-.081v-6.233c.215-.138.495-.253.84-.345a4.045 4.045 0 0 1 1.046-.138c1.625 0 2.438 1.104 2.438 3.312 0 1.058-.238 1.909-.713 2.553-.475.644-1.18.966-2.116.966zm14.629 2.944c.43 0 .859-.023 1.288-.069.43-.046.832-.103 1.208-.173a9.63 9.63 0 0 0 1.023-.241 4.72 4.72 0 0 0 .736-.276l-.46-2.783c-.383.169-.878.31-1.484.425a9.904 9.904 0 0 1-1.851.173c-.981 0-1.763-.207-2.346-.621a2.277 2.277 0 0 1-.989-1.679h7.774a34.3 34.3 0 0 0 .046-.632c.015-.238.023-.457.023-.656 0-2.04-.498-3.584-1.495-4.635-.997-1.05-2.354-1.575-4.071-1.575-.736 0-1.453.138-2.15.414a5.406 5.406 0 0 0-1.852 1.219c-.537.537-.97 1.207-1.3 2.012-.33.805-.494 1.745-.494 2.818 0 .89.126 1.717.38 2.484.252.767.644 1.43 1.172 1.99.53.56 1.197 1 2.002 1.322.805.322 1.751.483 2.84.483zm1.656-7.59h-4.531c.046-.291.119-.579.218-.863.1-.283.242-.532.426-.747a2.05 2.05 0 0 1 .69-.518c.276-.13.606-.195.989-.195.399 0 .732.069 1 .207.269.138.491.314.668.529.176.215.306.46.39.736.085.276.135.56.15.851zm9.224 7.268v-9.246a4.61 4.61 0 0 1 .679-.127 6.19 6.19 0 0 1 2.104.07c.414.084.774.164 1.081.241l.575-2.829a3.68 3.68 0 0 0-.667-.195 13.922 13.922 0 0 0-1.564-.23 7.766 7.766 0 0 0-.667-.035c-1.027 0-1.959.096-2.794.288a20.39 20.39 0 0 0-2.174.609V296h3.427zm9.546 0v-9.338c.215-.03.46-.058.736-.08a9.44 9.44 0 0 1 .782-.035c.797 0 1.342.23 1.633.69.291.46.437 1.242.437 2.346V296h3.427v-6.831a9.3 9.3 0 0 0-.253-2.254 4.436 4.436 0 0 0-.851-1.748c-.399-.49-.94-.87-1.621-1.138-.683-.269-1.538-.403-2.565-.403a18.48 18.48 0 0 0-2.898.219c-.92.145-1.671.302-2.254.471V296h3.427zm15.779.322c.43 0 .859-.023 1.288-.069.43-.046.832-.103 1.208-.173a9.63 9.63 0 0 0 1.023-.241 4.72 4.72 0 0 0 .736-.276l-.46-2.783c-.383.169-.878.31-1.483.425a9.904 9.904 0 0 1-1.852.173c-.981 0-1.763-.207-2.346-.621a2.277 2.277 0 0 1-.989-1.679h7.774a34.3 34.3 0 0 0 .046-.632c.015-.238.023-.457.023-.656 0-2.04-.498-3.584-1.495-4.635-.997-1.05-2.354-1.575-4.071-1.575-.736 0-1.453.138-2.15.414a5.406 5.406 0 0 0-1.852 1.219c-.537.537-.97 1.207-1.3 2.012-.33.805-.494 1.745-.494 2.818 0 .89.126 1.717.38 2.484.252.767.644 1.43 1.173 1.99s1.196 1 2 1.322c.805.322 1.752.483 2.841.483zm1.656-7.59h-4.531c.046-.291.119-.579.219-.863.1-.283.241-.532.425-.747a2.05 2.05 0 0 1 .69-.518c.276-.13.606-.195.989-.195.399 0 .732.069 1 .207a2.066 2.066 0 0 1 1.058 1.265c.085.276.135.56.15.851zm10.466 7.544c.736 0 1.357-.061 1.863-.184a9.75 9.75 0 0 0 1.38-.437l-.483-2.668a5.868 5.868 0 0 1-1.07.287c-.39.07-.77.104-1.138.104-.767 0-1.276-.215-1.53-.644-.252-.43-.379-1.004-.379-1.725v-4.255h4.117v-2.852h-4.117v-3.565l-3.427.552v10.166c0 .782.073 1.495.219 2.139.145.644.402 1.192.77 1.644.368.453.859.805 1.472 1.058s1.388.38 2.323.38zm10.742.046c.43 0 .859-.023 1.288-.069.43-.046.832-.103 1.208-.173a9.63 9.63 0 0 0 1.023-.241 4.72 4.72 0 0 0 .736-.276l-.46-2.783c-.383.169-.878.31-1.483.425a9.904 9.904 0 0 1-1.852.173c-.981 0-1.763-.207-2.346-.621a2.277 2.277 0 0 1-.989-1.679h7.774a34.3 34.3 0 0 0 .046-.632c.015-.238.023-.457.023-.656 0-2.04-.498-3.584-1.495-4.635-.997-1.05-2.354-1.575-4.071-1.575-.736 0-1.453.138-2.15.414a5.406 5.406 0 0 0-1.852 1.219c-.537.537-.97 1.207-1.3 2.012-.33.805-.494 1.745-.494 2.818 0 .89.126 1.717.38 2.484.252.767.643 1.43 1.173 1.99.529.56 1.196 1 2 1.322.805.322 1.752.483 2.841.483zm1.656-7.59h-4.531c.046-.291.119-.579.218-.863.1-.283.242-.532.426-.747a2.05 2.05 0 0 1 .69-.518c.276-.13.606-.195.989-.195.399 0 .732.069 1 .207.269.138.491.314.668.529.176.215.306.46.39.736.085.276.135.56.15.851zm9.247 7.59c1.64 0 2.91-.307 3.806-.92.897-.613 1.346-1.518 1.346-2.714 0-.506-.057-.95-.172-1.334a2.714 2.714 0 0 0-.599-1.046c-.283-.315-.67-.606-1.161-.875-.49-.268-1.112-.54-1.863-.816-.368-.138-.67-.264-.909-.38a3.846 3.846 0 0 1-.563-.322.785.785 0 0 1-.276-.31.927.927 0 0 1-.069-.368c0-.598.537-.897 1.61-.897.583 0 1.108.054 1.576.161.467.107.9.23 1.299.368l.598-2.668c-.399-.153-.935-.295-1.61-.425s-1.38-.196-2.116-.196c-1.472 0-2.63.33-3.473.989-.843.66-1.265 1.556-1.265 2.691 0 .583.084 1.081.253 1.495.169.414.406.77.713 1.07.307.298.679.555 1.115.77a15.7 15.7 0 0 0 1.461.621c.69.26 1.204.495 1.541.702.337.207.506.448.506.724 0 .353-.13.59-.391.713-.26.123-.705.184-1.334.184a8.724 8.724 0 0 1-1.817-.195 11.23 11.23 0 0 1-1.794-.541l-.575 2.783c.276.123.77.276 1.484.46.713.184 1.606.276 2.679.276z" fill="#000" fill-rule="nonzero"></path></g><g transform="translate(179.000000, 297.000000)"><path d="M140.023.024a18.795 18.795 0 0 0-7.185 1.827l-98.037 47.08a18.698 18.698 0 0 0-10.144 12.676L.471 167.36a18.638 18.638 0 0 0 2.545 14.327c.33.513.687 1.01 1.066 1.487L71.94 267.97A18.775 18.775 0 0 0 86.597 275l108.82-.025a18.77 18.77 0 0 0 14.657-7.02l67.833-84.807a18.642 18.642 0 0 0 3.623-15.814L257.306 61.582a18.699 18.699 0 0 0-10.143-12.677l-98.05-47.054a18.798 18.798 0 0 0-9.09-1.827z" fill="#326CE5" fill-rule="nonzero"></path><g transform="translate(71.000000, 42.000000)"><g transform="translate(0.000000, 50.523125)"><path d="M35.507 75.319l27.987-16.45C65.04 57.96 66 56.267 66 54.45v-32.9c0-1.817-.96-3.51-2.506-4.42L35.507.68a4.954 4.954 0 0 0-5.012 0L2.506 17.13C.96 18.04 0 19.734 0 21.55v32.9c0 1.817.961 3.51 2.506 4.418l27.989 16.45a4.95 4.95 0 0 0 5.012 0z" fill="#FFF900" fill-rule="nonzero"></path><text font-size="19" font-weight="bold" letter-spacing="-.16" fill="#333" class="sans-serif"><tspan x="6.134" y="45.477">APP 1</tspan></text></g><g transform="translate(74.000000, 50.523125)"><path d="M35.507 75.319l27.987-16.45C65.04 57.96 66 56.267 66 54.45v-32.9c0-1.817-.96-3.51-2.506-4.42L35.507.68a4.954 4.954 0 0 0-5.012 0L2.506 17.13C.96 18.04 0 19.734 0 21.55v32.9c0 1.817.961 3.51 2.506 4.418l27.989 16.45a4.95 4.95 0 0 0 5.012 0z" fill="#4AFF00" fill-rule="nonzero"></path><text font-size="19" font-weight="bold" letter-spacing="-.16" fill="#333" class="sans-serif"><tspan x="5.634" y="45.477">APP 2</tspan></text></g><g transform="translate(37.000000, 114.523125)"><path d="M35.507 75.319l27.987-16.45C65.04 57.96 66 56.267 66 54.45v-32.9c0-1.817-.96-3.51-2.506-4.42L35.507.68a4.954 4.954 0 0 0-5.012 0L2.506 17.13C.96 18.04 0 19.734 0 21.55v32.9c0 1.817.961 3.51 2.506 4.418l27.989 16.45a4.95 4.95 0 0 0 5.012 0z" fill="#FF5353" fill-rule="nonzero"></path><text font-size="19" font-weight="bold" letter-spacing="-.16" fill="#333" class="sans-serif"><tspan x="6.134" y="45.477">APP 3</tspan></text></g><text font-size="38" font-weight="bold" letter-spacing="-.16" fill="#FFF" class="sans-serif"><tspan x="15.449" y="37">PROD</tspan></text></g><path d="M84.346 296v-5.29c.383.307.77.682 1.161 1.127.391.445.763.909 1.116 1.392.353.483.686.966 1 1.449.315.483.595.923.84 1.322h3.933a26.313 26.313 0 0 0-2.231-3.519 36.275 36.275 0 0 0-1.426-1.783 15.66 15.66 0 0 0-1.426-1.483 66.057 66.057 0 0 0 2.541-2.633 156.5 156.5 0 0 0 2.381-2.68h-4.071a120.44 120.44 0 0 1-1.725 2.035c-.337.392-.686.786-1.046 1.185s-.71.782-1.047 1.15v-10.12l-3.427.552V296h3.427zm14.675.276a18.48 18.48 0 0 0 2.898-.219c.92-.145 1.671-.302 2.254-.471v-11.684h-3.427v9.338c-.215.03-.46.058-.736.08a9.44 9.44 0 0 1-.782.035c-.797 0-1.342-.245-1.633-.736-.291-.49-.437-1.288-.437-2.392v-6.325h-3.427v6.739c0 .828.084 1.587.253 2.277.169.69.452 1.284.851 1.782.399.499.94.886 1.622 1.162.682.276 1.537.414 2.564.414zm13.157.023c.997 0 1.886-.15 2.668-.448a5.407 5.407 0 0 0 1.978-1.277 5.535 5.535 0 0 0 1.23-2.001c.284-.782.426-1.656.426-2.622 0-.95-.115-1.813-.345-2.588-.23-.774-.567-1.437-1.012-1.989a4.459 4.459 0 0 0-1.656-1.276c-.66-.3-1.418-.449-2.277-.449a6.142 6.142 0 0 0-2.53.529v-6.026l-3.427.552v16.905c.307.092.66.18 1.058.264.399.085.817.158 1.254.219.436.061.881.111 1.334.15.452.038.885.057 1.299.057zm-.023-2.921c-.307 0-.59-.012-.851-.034a7.306 7.306 0 0 1-.644-.081v-6.233c.215-.138.495-.253.84-.345a4.045 4.045 0 0 1 1.046-.138c1.625 0 2.438 1.104 2.438 3.312 0 1.058-.238 1.909-.713 2.553-.475.644-1.18.966-2.116.966zm14.629 2.944c.43 0 .859-.023 1.288-.069.43-.046.832-.103 1.208-.173a9.63 9.63 0 0 0 1.023-.241 4.72 4.72 0 0 0 .736-.276l-.46-2.783c-.383.169-.878.31-1.484.425a9.904 9.904 0 0 1-1.851.173c-.981 0-1.763-.207-2.346-.621a2.277 2.277 0 0 1-.989-1.679h7.774a34.3 34.3 0 0 0 .046-.632c.015-.238.023-.457.023-.656 0-2.04-.498-3.584-1.495-4.635-.997-1.05-2.354-1.575-4.071-1.575-.736 0-1.453.138-2.15.414a5.406 5.406 0 0 0-1.852 1.219c-.537.537-.97 1.207-1.3 2.012-.33.805-.494 1.745-.494 2.818 0 .89.126 1.717.38 2.484.252.767.644 1.43 1.172 1.99.53.56 1.197 1 2.002 1.322.805.322 1.751.483 2.84.483zm1.656-7.59h-4.531c.046-.291.119-.579.218-.863.1-.283.242-.532.426-.747a2.05 2.05 0 0 1 .69-.518c.276-.13.606-.195.989-.195.399 0 .732.069 1 .207.269.138.491.314.668.529.176.215.306.46.39.736.085.276.135.56.15.851zm9.224 7.268v-9.246a4.61 4.61 0 0 1 .679-.127 6.19 6.19 0 0 1 2.104.07c.414.084.774.164 1.081.241l.575-2.829a3.68 3.68 0 0 0-.667-.195 13.922 13.922 0 0 0-1.564-.23 7.766 7.766 0 0 0-.667-.035c-1.027 0-1.959.096-2.794.288a20.39 20.39 0 0 0-2.174.609V296h3.427zm9.546 0v-9.338c.215-.03.46-.058.736-.08a9.44 9.44 0 0 1 .782-.035c.797 0 1.342.23 1.633.69.291.46.437 1.242.437 2.346V296h3.427v-6.831a9.3 9.3 0 0 0-.253-2.254 4.436 4.436 0 0 0-.851-1.748c-.399-.49-.94-.87-1.621-1.138-.683-.269-1.538-.403-2.565-.403a18.48 18.48 0 0 0-2.898.219c-.92.145-1.671.302-2.254.471V296h3.427zm15.779.322c.43 0 .859-.023 1.288-.069.43-.046.832-.103 1.208-.173a9.63 9.63 0 0 0 1.023-.241 4.72 4.72 0 0 0 .736-.276l-.46-2.783c-.383.169-.878.31-1.483.425a9.904 9.904 0 0 1-1.852.173c-.981 0-1.763-.207-2.346-.621a2.277 2.277 0 0 1-.989-1.679h7.774a34.3 34.3 0 0 0 .046-.632c.015-.238.023-.457.023-.656 0-2.04-.498-3.584-1.495-4.635-.997-1.05-2.354-1.575-4.071-1.575-.736 0-1.453.138-2.15.414a5.406 5.406 0 0 0-1.852 1.219c-.537.537-.97 1.207-1.3 2.012-.33.805-.494 1.745-.494 2.818 0 .89.126 1.717.38 2.484.252.767.644 1.43 1.173 1.99s1.196 1 2 1.322c.805.322 1.752.483 2.841.483zm1.656-7.59h-4.531c.046-.291.119-.579.219-.863.1-.283.241-.532.425-.747a2.05 2.05 0 0 1 .69-.518c.276-.13.606-.195.989-.195.399 0 .732.069 1 .207a2.066 2.066 0 0 1 1.058 1.265c.085.276.135.56.15.851zm10.466 7.544c.736 0 1.357-.061 1.863-.184a9.75 9.75 0 0 0 1.38-.437l-.483-2.668a5.868 5.868 0 0 1-1.07.287c-.39.07-.77.104-1.138.104-.767 0-1.276-.215-1.53-.644-.252-.43-.379-1.004-.379-1.725v-4.255h4.117v-2.852h-4.117v-3.565l-3.427.552v10.166c0 .782.073 1.495.219 2.139.145.644.402 1.192.77 1.644.368.453.859.805 1.472 1.058s1.388.38 2.323.38zm10.742.046c.43 0 .859-.023 1.288-.069.43-.046.832-.103 1.208-.173a9.63 9.63 0 0 0 1.023-.241 4.72 4.72 0 0 0 .736-.276l-.46-2.783c-.383.169-.878.31-1.483.425a9.904 9.904 0 0 1-1.852.173c-.981 0-1.763-.207-2.346-.621a2.277 2.277 0 0 1-.989-1.679h7.774a34.3 34.3 0 0 0 .046-.632c.015-.238.023-.457.023-.656 0-2.04-.498-3.584-1.495-4.635-.997-1.05-2.354-1.575-4.071-1.575-.736 0-1.453.138-2.15.414a5.406 5.406 0 0 0-1.852 1.219c-.537.537-.97 1.207-1.3 2.012-.33.805-.494 1.745-.494 2.818 0 .89.126 1.717.38 2.484.252.767.643 1.43 1.173 1.99.529.56 1.196 1 2 1.322.805.322 1.752.483 2.841.483zm1.656-7.59h-4.531c.046-.291.119-.579.218-.863.1-.283.242-.532.426-.747a2.05 2.05 0 0 1 .69-.518c.276-.13.606-.195.989-.195.399 0 .732.069 1 .207.269.138.491.314.668.529.176.215.306.46.39.736.085.276.135.56.15.851zm9.247 7.59c1.64 0 2.91-.307 3.806-.92.897-.613 1.346-1.518 1.346-2.714 0-.506-.057-.95-.172-1.334a2.714 2.714 0 0 0-.599-1.046c-.283-.315-.67-.606-1.161-.875-.49-.268-1.112-.54-1.863-.816-.368-.138-.67-.264-.909-.38a3.846 3.846 0 0 1-.563-.322.785.785 0 0 1-.276-.31.927.927 0 0 1-.069-.368c0-.598.537-.897 1.61-.897.583 0 1.108.054 1.576.161.467.107.9.23 1.299.368l.598-2.668c-.399-.153-.935-.295-1.61-.425s-1.38-.196-2.116-.196c-1.472 0-2.63.33-3.473.989-.843.66-1.265 1.556-1.265 2.691 0 .583.084 1.081.253 1.495.169.414.406.77.713 1.07.307.298.679.555 1.115.77a15.7 15.7 0 0 0 1.461.621c.69.26 1.204.495 1.541.702.337.207.506.448.506.724 0 .353-.13.59-.391.713-.26.123-.705.184-1.334.184a8.724 8.724 0 0 1-1.817-.195 11.23 11.23 0 0 1-1.794-.541l-.575 2.783c.276.123.77.276 1.484.46.713.184 1.606.276 2.679.276z" fill="#000" fill-rule="nonzero"></path></g><g transform="translate(357.000000, 0.000000)"><path d="M140.023.024a18.795 18.795 0 0 0-7.185 1.827l-98.037 47.08a18.698 18.698 0 0 0-10.144 12.676L.471 167.36a18.638 18.638 0 0 0 2.545 14.327c.33.513.687 1.01 1.066 1.487L71.94 267.97A18.775 18.775 0 0 0 86.597 275l108.82-.025a18.77 18.77 0 0 0 14.657-7.02l67.833-84.807a18.642 18.642 0 0 0 3.623-15.814L257.306 61.582a18.699 18.699 0 0 0-10.143-12.677l-98.05-47.054a18.798 18.798 0 0 0-9.09-1.827z" fill="#326CE5" fill-rule="nonzero"></path><g transform="translate(71.000000, 47.000000)"><g transform="translate(0.000000, 50.523125)"><path d="M35.507 75.319l27.987-16.45C65.04 57.96 66 56.267 66 54.45v-32.9c0-1.817-.96-3.51-2.506-4.42L35.507.68a4.954 4.954 0 0 0-5.012 0L2.506 17.13C.96 18.04 0 19.734 0 21.55v32.9c0 1.817.961 3.51 2.506 4.418l27.989 16.45a4.95 4.95 0 0 0 5.012 0z" fill="#FFF900" fill-rule="nonzero"></path><text font-size="19" font-weight="bold" letter-spacing="-.16" fill="#333" class="sans-serif"><tspan x="6.134" y="45.477">APP 1</tspan></text></g><g transform="translate(74.000000, 50.523125)"><path d="M35.507 75.319l27.987-16.45C65.04 57.96 66 56.267 66 54.45v-32.9c0-1.817-.96-3.51-2.506-4.42L35.507.68a4.954 4.954 0 0 0-5.012 0L2.506 17.13C.96 18.04 0 19.734 0 21.55v32.9c0 1.817.961 3.51 2.506 4.418l27.989 16.45a4.95 4.95 0 0 0 5.012 0z" fill="#4AFF00" fill-rule="nonzero"></path><text font-size="19" font-weight="bold" letter-spacing="-.16" fill="#333" class="sans-serif"><tspan x="5.634" y="45.477">APP 2</tspan></text></g><g transform="translate(37.000000, 114.523125)"><path d="M35.507 75.319l27.987-16.45C65.04 57.96 66 56.267 66 54.45v-32.9c0-1.817-.96-3.51-2.506-4.42L35.507.68a4.954 4.954 0 0 0-5.012 0L2.506 17.13C.96 18.04 0 19.734 0 21.55v32.9c0 1.817.961 3.51 2.506 4.418l27.989 16.45a4.95 4.95 0 0 0 5.012 0z" fill="#FF5353" fill-rule="nonzero"></path><text font-size="19" font-weight="bold" letter-spacing="-.16" fill="#333" class="sans-serif"><tspan x="6.134" y="45.477">APP 3</tspan></text></g><text font-size="38" font-weight="bold" letter-spacing="-.16" fill="#FFF" class="sans-serif"><tspan x="21.786" y="37">TEST</tspan></text></g><path d="M84.346 296v-5.29c.383.307.77.682 1.161 1.127.391.445.763.909 1.116 1.392.353.483.686.966 1 1.449.315.483.595.923.84 1.322h3.933a26.313 26.313 0 0 0-2.231-3.519 36.275 36.275 0 0 0-1.426-1.783 15.66 15.66 0 0 0-1.426-1.483 66.057 66.057 0 0 0 2.541-2.633 156.5 156.5 0 0 0 2.381-2.68h-4.071a120.44 120.44 0 0 1-1.725 2.035c-.337.392-.686.786-1.046 1.185s-.71.782-1.047 1.15v-10.12l-3.427.552V296h3.427zm14.675.276a18.48 18.48 0 0 0 2.898-.219c.92-.145 1.671-.302 2.254-.471v-11.684h-3.427v9.338c-.215.03-.46.058-.736.08a9.44 9.44 0 0 1-.782.035c-.797 0-1.342-.245-1.633-.736-.291-.49-.437-1.288-.437-2.392v-6.325h-3.427v6.739c0 .828.084 1.587.253 2.277.169.69.452 1.284.851 1.782.399.499.94.886 1.622 1.162.682.276 1.537.414 2.564.414zm13.157.023c.997 0 1.886-.15 2.668-.448a5.407 5.407 0 0 0 1.978-1.277 5.535 5.535 0 0 0 1.23-2.001c.284-.782.426-1.656.426-2.622 0-.95-.115-1.813-.345-2.588-.23-.774-.567-1.437-1.012-1.989a4.459 4.459 0 0 0-1.656-1.276c-.66-.3-1.418-.449-2.277-.449a6.142 6.142 0 0 0-2.53.529v-6.026l-3.427.552v16.905c.307.092.66.18 1.058.264.399.085.817.158 1.254.219.436.061.881.111 1.334.15.452.038.885.057 1.299.057zm-.023-2.921c-.307 0-.59-.012-.851-.034a7.306 7.306 0 0 1-.644-.081v-6.233c.215-.138.495-.253.84-.345a4.045 4.045 0 0 1 1.046-.138c1.625 0 2.438 1.104 2.438 3.312 0 1.058-.238 1.909-.713 2.553-.475.644-1.18.966-2.116.966zm14.629 2.944c.43 0 .859-.023 1.288-.069.43-.046.832-.103 1.208-.173a9.63 9.63 0 0 0 1.023-.241 4.72 4.72 0 0 0 .736-.276l-.46-2.783c-.383.169-.878.31-1.484.425a9.904 9.904 0 0 1-1.851.173c-.981 0-1.763-.207-2.346-.621a2.277 2.277 0 0 1-.989-1.679h7.774a34.3 34.3 0 0 0 .046-.632c.015-.238.023-.457.023-.656 0-2.04-.498-3.584-1.495-4.635-.997-1.05-2.354-1.575-4.071-1.575-.736 0-1.453.138-2.15.414a5.406 5.406 0 0 0-1.852 1.219c-.537.537-.97 1.207-1.3 2.012-.33.805-.494 1.745-.494 2.818 0 .89.126 1.717.38 2.484.252.767.644 1.43 1.172 1.99.53.56 1.197 1 2.002 1.322.805.322 1.751.483 2.84.483zm1.656-7.59h-4.531c.046-.291.119-.579.218-.863.1-.283.242-.532.426-.747a2.05 2.05 0 0 1 .69-.518c.276-.13.606-.195.989-.195.399 0 .732.069 1 .207.269.138.491.314.668.529.176.215.306.46.39.736.085.276.135.56.15.851zm9.224 7.268v-9.246a4.61 4.61 0 0 1 .679-.127 6.19 6.19 0 0 1 2.104.07c.414.084.774.164 1.081.241l.575-2.829a3.68 3.68 0 0 0-.667-.195 13.922 13.922 0 0 0-1.564-.23 7.766 7.766 0 0 0-.667-.035c-1.027 0-1.959.096-2.794.288a20.39 20.39 0 0 0-2.174.609V296h3.427zm9.546 0v-9.338c.215-.03.46-.058.736-.08a9.44 9.44 0 0 1 .782-.035c.797 0 1.342.23 1.633.69.291.46.437 1.242.437 2.346V296h3.427v-6.831a9.3 9.3 0 0 0-.253-2.254 4.436 4.436 0 0 0-.851-1.748c-.399-.49-.94-.87-1.621-1.138-.683-.269-1.538-.403-2.565-.403a18.48 18.48 0 0 0-2.898.219c-.92.145-1.671.302-2.254.471V296h3.427zm15.779.322c.43 0 .859-.023 1.288-.069.43-.046.832-.103 1.208-.173a9.63 9.63 0 0 0 1.023-.241 4.72 4.72 0 0 0 .736-.276l-.46-2.783c-.383.169-.878.31-1.483.425a9.904 9.904 0 0 1-1.852.173c-.981 0-1.763-.207-2.346-.621a2.277 2.277 0 0 1-.989-1.679h7.774a34.3 34.3 0 0 0 .046-.632c.015-.238.023-.457.023-.656 0-2.04-.498-3.584-1.495-4.635-.997-1.05-2.354-1.575-4.071-1.575-.736 0-1.453.138-2.15.414a5.406 5.406 0 0 0-1.852 1.219c-.537.537-.97 1.207-1.3 2.012-.33.805-.494 1.745-.494 2.818 0 .89.126 1.717.38 2.484.252.767.644 1.43 1.173 1.99s1.196 1 2 1.322c.805.322 1.752.483 2.841.483zm1.656-7.59h-4.531c.046-.291.119-.579.219-.863.1-.283.241-.532.425-.747a2.05 2.05 0 0 1 .69-.518c.276-.13.606-.195.989-.195.399 0 .732.069 1 .207a2.066 2.066 0 0 1 1.058 1.265c.085.276.135.56.15.851zm10.466 7.544c.736 0 1.357-.061 1.863-.184a9.75 9.75 0 0 0 1.38-.437l-.483-2.668a5.868 5.868 0 0 1-1.07.287c-.39.07-.77.104-1.138.104-.767 0-1.276-.215-1.53-.644-.252-.43-.379-1.004-.379-1.725v-4.255h4.117v-2.852h-4.117v-3.565l-3.427.552v10.166c0 .782.073 1.495.219 2.139.145.644.402 1.192.77 1.644.368.453.859.805 1.472 1.058s1.388.38 2.323.38zm10.742.046c.43 0 .859-.023 1.288-.069.43-.046.832-.103 1.208-.173a9.63 9.63 0 0 0 1.023-.241 4.72 4.72 0 0 0 .736-.276l-.46-2.783c-.383.169-.878.31-1.483.425a9.904 9.904 0 0 1-1.852.173c-.981 0-1.763-.207-2.346-.621a2.277 2.277 0 0 1-.989-1.679h7.774a34.3 34.3 0 0 0 .046-.632c.015-.238.023-.457.023-.656 0-2.04-.498-3.584-1.495-4.635-.997-1.05-2.354-1.575-4.071-1.575-.736 0-1.453.138-2.15.414a5.406 5.406 0 0 0-1.852 1.219c-.537.537-.97 1.207-1.3 2.012-.33.805-.494 1.745-.494 2.818 0 .89.126 1.717.38 2.484.252.767.643 1.43 1.173 1.99.529.56 1.196 1 2 1.322.805.322 1.752.483 2.841.483zm1.656-7.59h-4.531c.046-.291.119-.579.218-.863.1-.283.242-.532.426-.747a2.05 2.05 0 0 1 .69-.518c.276-.13.606-.195.989-.195.399 0 .732.069 1 .207.269.138.491.314.668.529.176.215.306.46.39.736.085.276.135.56.15.851zm9.247 7.59c1.64 0 2.91-.307 3.806-.92.897-.613 1.346-1.518 1.346-2.714 0-.506-.057-.95-.172-1.334a2.714 2.714 0 0 0-.599-1.046c-.283-.315-.67-.606-1.161-.875-.49-.268-1.112-.54-1.863-.816-.368-.138-.67-.264-.909-.38a3.846 3.846 0 0 1-.563-.322.785.785 0 0 1-.276-.31.927.927 0 0 1-.069-.368c0-.598.537-.897 1.61-.897.583 0 1.108.054 1.576.161.467.107.9.23 1.299.368l.598-2.668c-.399-.153-.935-.295-1.61-.425s-1.38-.196-2.116-.196c-1.472 0-2.63.33-3.473.989-.843.66-1.265 1.556-1.265 2.691 0 .583.084 1.081.253 1.495.169.414.406.77.713 1.07.307.298.679.555 1.115.77a15.7 15.7 0 0 0 1.461.621c.69.26 1.204.495 1.541.702.337.207.506.448.506.724 0 .353-.13.59-.391.713-.26.123-.705.184-1.334.184a8.724 8.724 0 0 1-1.817-.195 11.23 11.23 0 0 1-1.794-.541l-.575 2.783c.276.123.77.276 1.484.46.713.184 1.606.276 2.679.276z" fill="#000" fill-rule="nonzero"></path></g></g></svg>