<svg viewBox="0 0 900 1200" xmlns="http://www.w3.org/2000/svg"><g transform="translate(7.000000, 63.000000)" fill="none" fill-rule="evenodd"><path d="M141.595 636.548c-132.714 76.6-133.414 200.65-1.563 277.25 131.748 76.537 346.09 76.601 478.8.004 132.61-76.54 133.31-200.715 1.563-277.25-131.85-76.6-346.192-76.54-478.8-.004" fill="#83B5DF"></path><path fill="#6EA2FF" d="M455.516 577.661l-10.982-6.276-45.769 25.973 10.982 6.272z"></path><path fill="#3968D1" d="M410.374 603.634l-10.933-6.453-10.994 6.445 10.932 6.453z"></path><path fill="#0F53B7" d="M353.622 636.022l.034 12.751 101.86-59.482-.034-12.747-45.459 26.544-10.97 6.406z"></path><path fill="#4279F2" d="M353.585 635.899l-11.572-6.473.037 12.871 11.572 6.476z"></path><path fill="#6EA2FF" d="M400.055 609.909l-10.987-6.279-45.765 25.974 10.99 6.271z"></path><path fill="#3968D1" d="M409.083 362.44l-10.932-6.453-10.994 6.445 10.936 6.453z"></path><path fill="#4279F2" d="M398.082 368.8l-10.926-6.364.682 241.279 10.926 6.364z"></path><path fill="#0F53B7" d="M398.765 368.792l.678 241.287 10.93-6.356-.682-241.287z"></path><path fill="#6EA2FF" d="M727.666 736.307l-10.983-6.276-45.769 25.977 10.983 6.268z"></path><path fill="#3968D1" d="M682.522 762.278l-10.932-6.451-10.995 6.447 10.933 6.451z"></path><path fill="#0F53B7" d="M625.77 795.962l.036 12.748 101.86-59.482-.035-12.748-45.458 26.544-10.97 6.407z"></path><path fill="#4279F2" d="M625.734 795.839l-11.571-6.477.037 12.875 11.57 6.473z"></path><path fill="#6EA2FF" d="M670.914 769.841l-10.987-6.275-45.764 25.97 10.991 6.275z"></path><path fill="#3968D1" d="M681.233 522.376l-10.932-6.453-10.995 6.445 10.936 6.453z"></path><path fill="#4279F2" d="M670.232 527.446l-10.926-6.364.682 241.283 10.926 6.36z"></path><path fill="#0F53B7" d="M670.914 527.439l.679 241.286 10.93-6.356-.683-241.287z"></path><path d="M639.945 846.755c-56.37 32.505-56.669 85.146-.66 117.65 55.958 32.482 147 32.505 203.375 0 56.327-32.477 56.622-85.168.664-117.646-56.008-32.505-147.051-32.477-203.379-.004" fill="#83B5DF"></path><g transform="translate(0.214236, 426.628761)"><path d="M222.665 363.705l-2.782-1.269s-.015 5.14-.573 8.157c-.562 3.016 4.54 8.764 9.61 9.9 6.615-.634 7.867-4.152 6.755-5.016-1.116-.856-13.01-11.772-13.01-11.772" fill="#326CE5"></path><path d="M92.908 27.865c18.329-2.131 34.692-.555 46.013 13.236 11.263 13.713 20.36 29.025 30.096 43.818 12.81 19.473 27.335 38.695 47.394 50.545 13.004 7.681 27.83 11.947 40.622 19.978 25.01 15.705 39.823 45.488 39.623 75.034-.242 35.108-22.097 73.865-52.833 91.444-26.342 15.064-54.231 26.748-84.258 29.511-1.54.14-3.08.249-4.623.334-35.646 2.01-74.127-4.572-106.4-19.935-38.4-18.282-50.072-59.298-48.385-99.41 1.43-33.909 71.086-202.04 92.75-204.555" fill="#FFDCA9"></path><path d="M240.003 318.898a31.4 31.4 0 0 1-3.45 4.896c-5.304 6.135-16.193 9.388-23.577 12.51-17.093 7.223-35.125 12.409-53.65 14.11-1.934.177-4.085.317-6.418.414-3.9-4.586-7.06-9.73-11.32-14.156-8.382-8.715-18.149-17.158-21.849-29.087-4.103-13.223 4.003-27.181-4.01-38.971-7.026-10.341-21.16-12.483-27.342-23.494-4.39-7.82-3.97-17.615-.966-26.058 3-8.447 8.323-15.845 13.576-23.115 8.125-11.243 17.085-23.13 30.237-27.588 19.721-6.689 40.452 5.59 61.17 7.75 11.542 1.205 23.422-.763 34.68 2.045 11.464 2.859 20.695 8.58 25.758 19.718 3.07 6.759 3.58 14.888.295 21.546-2.26 4.59-6.1 8.184-9.139 12.297-5.536 7.487-8.42 16.887-8.036 26.178.613 14.884 9.232 28.738 8.855 43.63-.147 5.919-1.797 12.112-4.814 17.375" fill="#F7BA61"></path><path d="M232.165 174.448a10.9 10.9 0 0 1 .875.494c1.826 1.143 14.27 11.63 9.752 15.396-2.654 2.212-13.281-2.86-17.5-3.765-2.903-.62-14.232.372-15.944-1.987-3.833-5.29-.48-8.147 3.486-10.218 1.802-.95 3.392-1.064 5.395-1.208 2.09-.152 4.18-.35 6.278-.323 2.638.03 5.339.429 7.658 1.61" fill="#FDBDB4"></path><path d="M223.095 194.611c-.415 2.023-2.855 1.543-4.26.793-1.41-.741-2.337-2.145-3.165-3.506-1.12-1.828-7.897-12.267-1.28-11.256 2.37.36 3.64 3.621 4.69 5.458 1.56 2.724 4.432 6.492 4.016 8.511" fill="#FDBDB4"></path><path d="M144.881 2.076c.882-2.506 7.887 1.725 8.822 2.343 4.16 2.736 5.758 5.414 7.413 9.847 1.998 5.344 5.042 10.046 6.6 15.627 1.652 5.927 2.36 12.128 2.033 18.277-.323 6.075-1.613 12.21-.508 18.2.674 3.65 2.217 7.067 3.391 10.586 1.174 3.522 1.986 7.317 1.147 10.932-1.074 4.616-4.734 6.286-8.229 8.508-2.31 1.472-4.084 2.67-6.924 2.88-5.839.433-11.662-2.829-16.38-5.943-8.307-5.476-15.716-12.684-22.194-20.258-.03-.039-.065-.078-.1-.117l24.93-70.882" fill="#326CE5"></path><path d="M153.79 73.585c2.677.616 6.16 2.319 8.486 3.878 3.402 2.283 7.687 6.908 8.551 10.836.29 1.293.178 2.814.263 4.133.393 6.273.79 12.547 1.184 18.82.91 14.474-2.434 34.044-1.528 48.518l47.232 14.35c-7.838 3.63-8.49 7.206-5.794 12.902 0 0-53.804-3.382-56.647-7.902-4.162-6.63-6.646-7.315-9.268-14.695-4.849-13.653-8.32-36.339-8.259-50.832a66.564 66.564 0 0 1 8.205-31.676c1.091-1.989 2.349-3.986 4.23-5.247 1.158-.778 1.035-3.619 3.345-3.085" fill="#E55B2E"></path><path d="M104.474 90.39c0-13.108 1.296-13.34 14.443-13.34 5.78 0 26.492-4.82 26.492-4.82s10.658 9.152 10.658 16.487c0 13.093-3.108 81.538-16.26 81.538-13.146 0-35.333-66.775-35.333-79.864" fill="#FDBDB4"></path><path d="M161.177 77.122c-.687-1.099-1.696-2.031-3.333-2.817-3.962-1.892-7.744-2.302-12.047-1.973 0 0 13.645 22.069-3.473 30.1-17.118 8.029-35.415-20.722-35.415-20.722-7.663 3.312-16.575 11.797-21.782 19.748 9.308 15.56 5.657 49.395 6.305 68.028.415 11.584 1.913 19.624 2.188 31.556 15.48 6.233 29.704 14.485 47.33 10.91 4.525-.92 14.065-5.138 20.743-5.656-.272-2.7-.536-5.328-.82-7.858a60.98 60.98 0 0 1-.36-5.773c-.202-10.779 1.614-21.639 4.163-32.089 1.284-5.258 2.274-11.824 4.96-16.482 3.165-5.502 6.144-11.185 5.741-17.74-.458-7.455-3.946-22.501-7.178-29.241-2.126-4.43-3.647-9.108-4.97-13.824-.69-2.472-1.009-4.507-2.052-6.167" fill="#E55B2E"></path><path d="M114.032 153.775c10.692.343 21.515.793 31.976-1.5 10.46-2.292 20.712-7.682 26.653-16.77l.173-.075c-1.081 2.944-2.588 5.757-4.144 8.527-2.337 4.156-3.388 9.763-4.47 14.703-.154.71-3.148 2.025-3.79 2.27-1.532.595-3.21.745-4.835.745-2.488.004-5.002-.315-7.444.178-3.673.734-6.74 3.196-9.996 5.082-5.725 3.315-12.38 4.87-18.947 4.574-2.731-.122-6.424-.245-8.761-1.863-2.032-1.404-4.581-3.437-5.956-5.493-1.264-1.89-1.766-4.435-.804-6.503 1.677-3.599 6.447-3.997 10.345-3.875" fill="#D83D13"></path><path d="M141.54 84.69c-3.675.952-7.602.193-11.229-.778-5.594-1.487-8.803-6.46-8.803-6.46l-.266-13.481 24.915-2.06.881 16.61c-.758 2.777-2.031 5.266-5.499 6.169" fill="#FDBDB4"></path><path d="M108.192 44.662c2.565 5.749 11.508 22.243 16.824 24.295 7.482 2.886 23.98 6.233 30.714-1.432 8.982-10.252 5.41-30.346.208-49.567C150.732-1.27 134.95-.956 124.57 10.584c-10.372 11.506-24.533 15.877-16.377 34.078" fill="#FDBDB4"></path><path d="M221.849 370.143s9.236 2.252 14.108-.122c3.903-1.905 2.408-6.777 2.286-7.585 5.328 5.433 27.472 24.74 14.316 31.887-6.406 3.482-30.954-19.46-30.71-24.18" fill="#326CE5"></path><path d="M201.908 321.559c1.222-.653 2.7-.38 4.037-.036a52.844 52.844 0 0 1 10.977 4.158c1.47.75 3.735 1.602 4.88 2.825 1.065 1.137 1.329 2.935 1.815 4.454 2.272 7.112 4.765 14.138 8.745 20.464 1.869 2.97 5.818 9.046 5.883 9.143h-.004c.123.833 1.574 5.826-2.221 7.78-2.172 1.114-5.23 1.239-7.91 1.04-3.44-.25-6.4-2.556-7.564-5.87-.111-.316-.222-.633-.334-.945-1.547-4.416-4.85-11.258-7.327-15.204a5659.06 5659.06 0 0 1-5.57-8.901c-2.78-4.467-7.86-9.91-7.36-15.536.118-1.356.766-2.743 1.953-3.372" fill="#DEB09D"></path><path d="M251.04 350.81l-2.782-1.272s-.015 5.144-.573 8.159c-.558 3.015 4.54 8.758 9.61 9.898 6.616-.638 7.868-4.151 6.756-5.015-1.112-.86-13.01-11.77-13.01-11.77" fill="#326CE5"></path><path d="M251.515 357.499s9.242 2.33 14.11-.126c3.906-1.964 2.41-6.997 2.288-7.835 5.33 5.615 27.455 25.516 14.32 32.942-8.35 4.718-30.962-20.102-30.718-24.981" fill="#326CE5"></path><path d="M230.283 308.658c1.222-.65 2.7-.376 4.037-.036a53.288 53.288 0 0 1 10.978 4.158c1.47.754 3.734 1.606 4.88 2.825 1.064 1.141 1.332 2.939 1.815 4.459 2.271 7.107 4.764 14.133 8.748 20.463 1.865 2.966 5.814 9.046 5.88 9.144 0 0-.005 0-.005-.004.123.836 1.575 5.83-2.22 7.78-2.169 1.117-5.229 1.238-7.91 1.043-3.44-.254-6.4-2.56-7.565-5.87l-.333-.949c-1.548-4.411-4.85-11.253-7.327-15.204a3333.3 3333.3 0 0 1-5.57-8.901c-2.78-4.462-7.86-9.91-7.36-15.532.118-1.356.77-2.743 1.952-3.376" fill="#DEB09D"></path><path d="M93.847 201.21c-2.164 7.115-4.344 14.316-4.777 21.742-.434 7.43 1.037 15.227 5.547 21.132 7.82 10.24 22.037 12.188 34.279 16.113 9.918 3.182 18.865 2.653 32.66 23.707 16.98 25.913 44.375 64.383 52.269 74.642 8.912.303 16.426-2.685 22.21-9.773 0 0-27.282-54.964-34.967-71.389-7.344-15.7-15.28-32.125-29.44-42.053-10.467-7.337-23.24-10.32-35.191-14.822-13.116-4.944-31.49-10.713-42.59-19.299" fill="#326CE5"></path><path d="M93.673 201.915c.217-1.67 47.082 6.706 66.894-7.154 0 0 .443 1.605 1.812 2.266 15.192 3.349 49.185 26.722 59.21 45.698 9.442 17.877 42.822 97.126 42.822 97.126-3.546 4.822-10.479 6.995-20.046 7.107l-48.894-81.433c-7.755 6.752-16.305 12.07-23.843 11.826-10.77-.356-16.926-18.67-16.973-18.694-9.676-4.52-49.022-5.503-54.46-11.837-12.256-14.266-8.42-30.426-6.522-44.905" fill="#326CE5"></path><path d="M146.737 224.836c-.864-1.636-1.354-3.456-.658-5.11.72-1.72 2.595-2.76 4.46-2.983 1.868-.219 3.747.243 5.544.797 6.798 2.074 13.13 5.387 19.419 8.685 4.352 2.282 8.879 4.718 11.663 8.743 3.147 4.544 3.575 10.417 6.068 15.342 3.582 7.096 11.084 11.598 14.876 18.586 2.73 5.03 4.757 14.761 2.345 21.31l-15-24.792c-.063.057-.13.104-.191.161-5.997-11.498-13.122-22.388-23.725-29.707-7.47-5.16-16.117-8.138-24.801-11.032" fill="#0F53B7"></path><path d="M141.89 232.383c-.347-11.952 7.485-10.614 11.159-11.826 1.159.596 10.402 3.59 15.53 9.441 5.613 6.409 6.985 15.877 4.024 20.647-4.217 6.796-10.666-4.039-17.41-10.775-5.136-5.126-10.9-5.58-13.303-7.487" fill="#E9C2B0"></path><path d="M80.15 104.812c-.45-8.99 6.473-16.639 15.457-17.085 8.984-.442 16.633 6.476 17.078 15.46 0 0-6.19 57.837-.164 73.358 6.022 15.518 40.966 45.288 40.966 45.288-6.966 2.724-8.96 3.962-11.048 11.622 0 0-48.42-29.103-56.26-44.884-7.84-15.786-6.03-83.759-6.03-83.759" fill="#E55B2E"></path><path d="M213.014 358.547c-7.93-10.232-35.43-48.586-52.47-74.422-13.847-20.996-22.83-20.465-32.785-23.638-12.293-3.914-26.56-5.857-34.414-16.07-4.524-5.884-6-13.657-5.565-21.066.182-3.118.719-6.194 1.395-9.243 12.49 9.197 22.144 22.276 35.976 29.312 10.769 5.481 23.664 7.048 32.87 14.868 9.86 8.382 13.257 22.02 21.026 32.36 8.398 11.183 21.942 18.557 27.41 31.427 2.67 6.272 3.11 13.254 5.15 19.75 1.873 5.986 7.337 10.411 10.24 15.776-2.767.729-5.71 1.051-8.834.946" fill="#0F53B7"></path><path d="M49.674 331.793C11.4 313.481-.239 272.402 1.446 232.223c.924-21.997 30.357-100.346 56.855-153.545.832 8.764-.815 18.169-4.124 26.026-4.604 10.906-11.079 21.473-11.663 33.304-.684 13.895 6.935 27.204 6.19 41.095-.91 16.796-13.74 30.789-16.38 47.398-2.323 14.63 3.495 29.186 9.197 42.845 6.216 14.89 12.722 30.217 24.245 41.464 20.352 19.86 51.227 22.624 79.473 25.147 10.537.941 23.418 4.013 26.305 14.009a153.09 153.09 0 0 1-11.218 1.465c-1.53.14-3.065.245-4.604.335-35.528 2.01-73.883-4.584-106.049-19.973" fill="#F7BA61"></path><path d="M99.083 16.497l.16-.296c1.852-3.46 5.23-6.047 8.442-8.222A46.957 46.957 0 0 1 129.201.184c13.45-1.336 28.16 4.529 29.445 19.715-.027-.307-12.953 3.744-13.93 4.233-2.478 1.24-4.744 3.084-6.014 5.554-2.46 4.793-.73 10.693-2.062 15.916-1.123 4.39-4.305 7.916-6.262 11.998-2.772 5.779-3 12.482-2.29 18.86.5 4.513 1.437 8.956 2.174 13.43.637 3.884 2.197 8.052.56 11.873-1.035 2.432-3.197 4.234-5.563 5.383-4.293 2.078-22.69 2-29.75-4.715-2.645-2.516-3.49-8.016-3.47-11.407.022-4.99-2.607-10.078-3.989-14.832-1.444-4.956-2.328-10.289-.93-15.264.95-3.383 2.922-6.451 3.528-9.912.552-3.153-.07-6.377-.24-9.573a33.716 33.716 0 0 1 1.352-11.256c1.552-5.259 4.783-9.041 7.324-13.69" fill="#326CE5"></path></g><path fill="#BDD9F9" d="M357.097 16.768l-.895 316.883 366.7 211.938.895-316.879z"></path><path fill="#F7F7F7" d="M629.62 282.468l.02-6.925-39.964-22.741-.02 6.925zM357.072 336.64l.007-3.447-3.033-1.712-.012 3.443zm42.982-35.297l-39.964-22.745-.02 6.922 39.965 22.744zm45.125 34.007l.019-6.925-39.964-22.741-.02 6.925zm-45.125-86.889l-39.964-22.745-.02 6.922 39.965 22.744zm91.558 112.685l.019-6.92-39.965-22.745-.019 6.924zm-46.433-78.678l.019-6.925-39.964-22.741-.02 6.925zm-45.125-86.888l-39.964-22.746-.02 6.924 39.965 22.742zm136.701 192.652l.02-6.925-39.965-22.74-.02 6.924zm-45.143-79.968l.019-6.924-39.965-22.742-.019 6.921zm-46.433-78.678l.019-6.925-39.964-22.741-.02 6.925zm-45.125-86.892l-39.964-22.742-.02 6.92 39.965 22.746zm183.134 271.334l.02-6.921-39.965-22.744-.02 6.921zm-46.433-78.678l.02-6.925-39.965-22.741-.02 6.925zm-45.143-79.968l.019-6.921-39.965-22.745-.019 6.922zm-45.144-78.678l.02-6.925-39.965-22.741-.02 6.925zm-46.414-86.913L360.09 67.07l-.02 6.945 39.965 22.721zm-45.602-75.603l-.83 316.367 2.81 1.751 2.808 1.754.01-3.493.122-45.732.014-6.983.122-45.732.018-6.983.122-45.767.018-6.983.118-45.736.018-6.983.122-45.732.018-7.014.118-45.732.01-3.493-2.81-1.755zm273.879 426.926l.02-6.925-39.965-22.74-.02 6.924zm-45.143-79.968l.02-6.921-39.965-22.744-.02 6.921zm-45.144-78.678l.02-6.925-39.96-22.741-.024 6.925zM491.612 202.5l.019-6.921-39.965-22.745-.019 6.921zm-45.144-78.678l.02-6.95-39.965-22.716-.02 6.945z"></path><path fill="#F7F7F7" d="M400.885 41.274l-.01 3.489-.119 45.736-.02 7.014-.12 45.736-.017 6.983-.119 45.732-.02 6.983-.119 45.767-.018 6.979-.118 45.736-.022 6.983-.118 45.732-.01 3.497 5.618 3.505.01-3.493.118-45.732.018-6.983.122-45.732.018-6.983.118-45.771.022-6.979.118-45.736.018-6.983.118-45.732.021-7.014.12-45.732.01-3.497z"></path><path fill="#F7F7F7" d="M359.27 331.481l-.007 3.487-3.05-1.754-.011 3.522 367.583 211.432.012-3.522-3.046-1.749.008-3.491-39.838-22.915-.012 3.491-6.091-3.507.008-3.491-39.87-22.926-.007 3.487-6.095-3.507.008-3.491-39.838-22.915-.008 3.491-6.1-3.507.013-3.49-39.865-22.931-.011 3.491-6.095-3.503.01-3.491-39.84-22.919-.008 3.495-6.095-3.511.007-3.487-39.865-22.93-.011 3.49-6.095-3.51.01-3.487-39.836-22.915-.012 3.487-6.095-3.503.01-3.491zM674.764 466.91l.02-6.92-39.965-22.745-.02 6.924zm-45.144-78.678l.02-6.925-39.964-22.74-.02 6.924zm-46.432-79.968l.02-6.924-39.965-22.742-.02 6.925zm-45.144-78.678l.02-6.925-39.96-22.741-.024 6.925zm-46.432-79.968l.019-6.949-39.965-22.717-.019 6.945z"></path><path fill="#F7F7F7" d="M725.964 547.303l-3.037-1.714-.008 3.444 3.038 1.715zM446.026 67.07l-.008 3.49-.121 45.735-.022 7.014-.118 45.732-.018 6.983-.118 45.732-.022 6.983-.118 45.771-.018 6.979-.118 45.736-.022 6.983-.118 45.732-.007 3.493 5.618 3.509.01-3.493.122-45.732.015-6.983.122-45.732.017-6.987.122-45.767.018-6.979.118-45.736.018-6.983.122-45.732.018-7.018.118-45.732.01-3.493zm275.172 426.926l.019-6.924-39.964-22.741-.02 6.925zm-46.434-79.968l.02-6.924-39.965-22.741-.02 6.92zM629.62 335.35l.02-6.925-39.964-22.741-.02 6.925zm-46.432-79.968l.02-6.921-39.965-22.745-.02 6.922zm-45.144-78.678l.02-6.952-39.965-22.714-.019 6.948zM492.46 94.156l-.009 3.489-.12 45.736-.019 7.014-.119 45.735-.02 6.983-.119 45.731-.018 6.983-.122 45.77-.018 6.979-.118 45.736-.018 6.983-.122 45.731-.007 3.493 5.621 3.509.008-3.497.121-45.731.018-6.983.118-45.732.018-6.983.122-45.766.018-6.979.122-45.735.018-6.983.118-45.732.018-7.017.122-45.732.007-3.493zm228.738 346.958l.019-6.925-39.964-22.74-.02 6.924zm-46.434-79.968l.02-6.921-39.965-22.744-.02 6.921zM583.188 202.5l.02-6.946-39.965-22.72-.02 6.942z"></path><path fill="#F7F7F7" d="M537.602 121.242l-.007 3.489-.122 45.736-.018 7.014-.121 45.736-.018 6.983-.12 45.732-.016 6.983-.122 45.767-.018 6.979-.118 45.736-.022 6.987-.118 45.732-.007 3.493 5.617 3.505.01-3.493.123-45.732.014-6.983.122-45.732.018-6.983.122-45.767.018-6.983.118-45.736.022-6.983.118-45.732.018-7.014.118-45.732.01-3.493zm183.596 266.99l.019-6.925-39.964-22.74-.02 6.924zm-46.434-79.968l.02-6.921-39.965-22.745-.02 6.922zm-45.144-78.678l.02-6.949-39.964-22.717-.02 6.946zm-45.582-82.548l-.01 3.49-.12 45.736-.02 7.013-.118 45.732-.018 6.987-.118 45.732-.022 6.983-.118 45.767-.018 6.979-.118 45.736-.022 6.983-.118 45.732-.01 3.494 5.618 3.508.01-3.493.122-45.732.015-6.983.12-45.732.019-6.983.122-45.771.018-6.979.118-45.736.018-6.983.122-45.732.018-7.014.118-45.732.01-3.497zm137.16 188.312l.019-6.929-39.964-22.737-.02 6.925zm-46.434-78.678l.02-6.949-39.965-22.717-.02 6.945z"></path><path fill="#F7F7F7" d="M629.178 174.124l-.007 3.49-.122 45.735-.018 7.014-.122 45.732-.018 6.983-.118 45.732-.018 6.983-.122 45.771-.018 6.979-.118 45.736-.018 6.983-.122 45.732-.007 3.493 5.618 3.509.011-3.493.122-45.732.014-6.987.122-45.732.018-6.983.122-45.767.017-6.979.12-45.736.017-6.983.121-45.732.018-7.017.12-45.732.01-3.494zm92.02 108.344l.019-6.949-39.964-22.717-.02 6.95zm-45.586-82.548l-.007 3.49-.122 45.735-.018 7.014-.122 45.735-.018 6.983-.118 45.732-.022 6.982-.118 45.771-.018 6.979-.118 45.735-.021 6.983-.12 45.731-.006 3.494 5.618 3.509.01-3.498.123-45.731.014-6.983.122-45.731.018-6.983.12-45.767.019-6.979.119-45.735.018-6.983.12-45.731.019-7.018.119-45.732.01-3.493zm46.433 27.086l-.007 3.49-.122 45.736-.018 7.014-.122 45.735-.018 6.983-.118 45.732-.018 6.983-.122 45.767-.018 6.979-.118 45.736-.021 6.983-.12 45.732-.006 3.497 2.809 1.751 2.809 1.755.83-316.364-2.808-1.754z"></path><path fill="#F7F7F7" d="M357.502 12.898l-.01 3.488 3.048 1.753-.01 3.492 39.867 22.934.008-3.491 6.095 3.507-.008 3.491 39.838 22.919.012-3.491 6.091 3.507-.008 3.487 39.865 22.935.012-3.488 6.095 3.507-.008 3.488 39.838 22.919.008-3.488 6.095 3.507-.008 3.488 39.866 22.934.011-3.487 6.095 3.503-.01 3.491 39.84 22.919.008-3.487 6.095 3.503-.008 3.491 39.865 22.931.012-3.488 6.095 3.507-.012 3.492 39.838 22.915.012-3.488 3.05 1.754.007-3.488zm-.423.436l-3.037-1.726-.008 3.433 3.034 1.727z"></path><path fill="#F7F7F7" d="M724.216 224.427l-.008 3.433 3.034 1.726.011-3.437z"></path><path fill="#0F53B7" d="M358.781 331.481l9.435-5.271.883-299.124-9.436 5.271z"></path><path fill="#6EA2FF" d="M712.13 535.27l9.086-5.289-352.059-203.66-9.087 5.293z"></path><path fill="#0F53B7" d="M726.376 561.066l9.34-5.268.979-333.951-9.345 5.273z"></path><path fill="#6EA2FF" d="M727.626 225.716l9.068-5.269L354.951 0l-9.069 5.269z"></path><path d="M359.852 331.857l.849-299.13L712.404 235.69l-.846 299.13-351.706-202.963zm367.814-104.888L345.539 6.449l-.946 334.098 382.127 220.52.946-334.098z" fill="#4279F2"></path><path d="M617.008 355.877l-38.32 32.46c-1.977 1.663-5.106 1.57-8.26-.245l-61.226-35.264c-3.16-1.823-6.274-5.33-8.233-9.268l-38.023-76.44c-.213-.43-.412-.865-.598-1.3-1.524-3.564-2.04-7.265-1.407-10.023l13.802-60.05c.712-3.095 2.885-4.934 5.73-4.853l55.246 1.56c1.263.035 2.647.43 4.042 1.156.183.093.366.194.544.298 1.579.904 3.153 2.223 4.572 3.822l55.078 61.996c2.837 3.193 4.99 7.522 5.683 11.429l13.437 75.75c.692 3.902-.09 7.304-2.068 8.972" fill="#326CE5"></path><path d="M536.74 277.125l5.33 3.067 3.299 6.657-1.22 5.22-4.79-.131-4.784-5.406-1.16-6.592 3.326-2.815m6.9-28.653c3.715 2.664 7.317 5.95 10.693 9.774 3.35 3.789 6.393 8 9.067 12.546l-14.21 3.29c-.523.128-1.125-.007-1.72-.351-.864-.495-1.714-1.42-2.292-2.587-.385-.78-.606-1.573-.648-2.327l-.89-20.345m-28.188-5.29c4.513-2.478 10.184-2.752 16.398-.792 1.13.356 2.317.804 3.55 1.38l-1.035 19.251h-.07c-.082 1.748-1.366 2.416-2.938 1.508-.625-.36-1.215-.916-1.755-1.636l-14.15-19.71m34.853 85.195a30.29 30.29 0 0 1-3.361-.862c-2.523-.793-5.085-1.937-7.635-3.406-3.73-2.142-7.436-4.976-10.995-8.452l8.44-12.512c.494-.758 1.44-.885 2.478-.332a.85.85 0 0 1 .116.062 5.135 5.135 0 0 1 1.258 1.059c.562.638 1.013 1.384 1.374 2.227l8.325 22.216m-22.736-35.516l-6.684 14.437a82.302 82.302 0 0 1-8.162-13.103c-2.367-4.745-4.215-9.593-5.476-14.457l17.073 6.546c.179.07.35.147.559.267 1.355.804 2.51 2.544 2.81 4.233.136.774.078 1.45-.163 1.964l.043.113m45.817 15.678l-16.681-15.106-.012-.093c-1.51-1.35-2.41-3.615-2.057-5.173.14-.611.458-1.036.928-1.292l12.959-5.749c1.96 4.79 3.38 9.612 4.215 14.329.827 4.663 1.06 9.063.648 13.084m-67.994-39.07c-.404-4.585-.171-8.811.69-12.562.839-3.661 2.252-6.781 4.243-9.271l12.924 20.723-.016.074c1.176 1.86 1.328 3.975.346 4.817-.392.329-.908.43-1.541.329l-16.646-4.11m66.2 47.255c-1.272 3.321-3.1 6.031-5.44 8.05-2.364 2.045-5.178 3.329-8.41 3.785l-6.6-22.301c-.61-2.007.024-3.55 1.445-3.515a2.54 2.54 0 0 1 1.122.313 1.516 1.516 0 0 1 .135.074c.167.093.338.208.57.344l17.179 13.25m22.613 10.215c-.21-.182-.427-.367-.593-.503-.753-.591-1.398-.993-2.077-1.415-.353-.216-.71-.44-1.168-.754-2.228-1.546-4.153-2.884-5.83-4.454-.62-.634-1.07-1.659-1.428-2.467l-1.34-1.245c.727-5.463.509-11.518-.64-18.001-1.16-6.55-3.222-13.235-6.125-19.924.174-.081.423-.19.652-.294.217-.096.419-.19.53-.487.04-.576.079-1.18.618-1.527 1.297-.646 2.967-.87 4.92-1.125.325-.031.644-.043.958-.05.602-.02 1.172-.04 1.785-.205.14-.035.31-.097.726-.252 1.572-.53 1.94-2.799.823-5.057a6.794 6.794 0 0 0-2.48-2.745c-.858-.491-1.692-.626-2.597-.325a7.059 7.059 0 0 0-.535.182c-.586.243-1.022.557-1.48.893-.222.162-.455.333-.815.557-1.56.912-2.904 1.701-4.347 1.983-.373.035-.831-.174-1.238-.41a12.76 12.76 0 0 1-.773-.49l-1.288.278c-7.216-12.864-16.915-23.821-27.328-30.896-.027-.519-.062-1.427-.24-2-.392-.63-.792-1.283-.9-2.234-.14-2.065.092-4.098.387-6.643.055-.386.12-.75.183-1.101.128-.704.248-1.361.28-2.224.007-.193.003-.448-.005-1.078.008-2.293-1.451-5.003-3.256-6.04-1.805-1.036-3.272-.011-3.28 2.71-.004.225-.007.457-.004.643.028.9.144 1.693.264 2.532.062.43.125.862.179 1.369.268 2.725.493 5.069.34 7.006-.142.715-.662 1.125-1.074 1.345l-.104 1.558a45.656 45.656 0 0 0-5.958-2.381c-8.28-2.606-15.734-2.015-21.603 1.681-.37-.494-.99-1.368-1.405-1.732a4.17 4.17 0 0 1-.671-.305c-.326-.186-.676-.464-1.071-.955-1.456-1.964-2.81-4.323-4.437-7.16-.252-.453-.485-.898-.71-1.32-.446-.85-.87-1.654-1.451-2.563-.144-.232-.354-.537-.73-1.086-.66-.986-1.463-1.798-2.4-2.374-.992-.568-1.893-.61-2.483-.104-.547.464-.764 1.345-.617 2.474.152 1.133.648 2.378 1.66 3.886.168.255.339.51.475.711.617.874 1.184 1.547 1.785 2.258.303.368.62.739.94 1.14 1.932 2.483 3.597 4.621 4.898 6.77.458.824.574 1.81.663 2.568l1.048 1.72c-5.86 6.697-8.282 17.403-6.835 30.178l-1.502-.217c-.364.34-.815.762-1.3.708-1.692-.364-3.625-1.241-5.92-2.29a34.89 34.89 0 0 1-1.082-.552c-.683-.364-1.33-.708-2.08-.97-.178-.07-.407-.136-.958-.302-1.922-.568-3.168.762-2.78 2.965.334 1.891 1.763 3.859 3.373 4.783.276.159.56.29 1.238.507.202.07.404.135.567.181.745.201 1.347.252 1.98.302.314.027.636.054 1.102.124 2.096.34 3.908.645 5.756 1.415.62.355 1.253 1.14 1.78 1.794l1.46.576c3.175 13.223 9.893 26.747 18.937 38.13l-.602 1.291c.202.731.45 1.752.283 2.316-.632 1.497-1.688 2.834-3.004 4.423-.205.232-.415.445-.617.642-.411.402-.795.785-1.156 1.357a13.77 13.77 0 0 0-.427.77c-.842 1.573-.225 4.315 1.374 6.116a5.2 5.2 0 0 0 1.292 1.083c1.285.738 2.573.56 3.373-.85.1-.167.206-.34.272-.48.31-.626.477-1.241.655-1.89.094-.337.19-.681.303-1.021a26.376 26.376 0 0 0 .71-1.837c.524-1.45 1.017-2.815 1.867-3.484.346-.266.916-.116 1.429.02l.776-1.102c4.92 4.995 10.09 9.059 15.288 12.051 3.16 1.818 6.326 3.236 9.458 4.222a39.566 39.566 0 0 0 5.694 1.33c.105.279.248.67.388 1.033.128.344.248.672.524 1.017.505.464 1.025.947 1.467 1.948.885 2.247 1.502 4.702 2.243 7.652.113.468.206.908.295 1.345.179.863.346 1.674.652 2.66.078.248.19.576.408 1.207.42 1.237 1.118 2.416 1.972 3.305.407.43.826.762 1.242 1.002.45.259.892.402 1.304.41 1.603.038 2.23-1.988 1.284-4.868-.1-.306-.217-.657-.31-.913-.357-.99-.741-1.805-1.145-2.675-.202-.43-.411-.882-.617-1.346-1.215-2.896-2.267-5.393-2.907-7.682-.233-.994-.027-1.45.256-2.084-.09-.19-.23-.711-.365-1.21a6.887 6.887 0 0 1-.16-.658c9.06-.912 15.832-6.742 19.098-16.428.415.317 1.145.882 1.595 1.044.396-.085.804-.178 1.66.325 1.74 1.291 3.556 3.081 5.749 5.247.35.351.676.703.99 1.044.629.676 1.223 1.31 1.964 1.964.15.135.35.293.966.796.28.228.563.425.835.584 1.614.928 3.05.607 3.388-.89.4-1.755-.83-4.511-2.756-6.15-.1-.09-.23-.198-.357-.306" fill="#FFF"></path><g transform="translate(487.232430, 341.743969)"><path d="M229.998 121.695l7.326-30.119s-18.205.311-27.41 38.114c-9.205 37.8-18.838 68.532-18.838 68.532l-46.253-36.93-8.104 11.01s41.438 74.06 63.051 60.87c21.614-13.196 37.554-88.706 37.554-88.706l-7.326-22.771z" fill="#BDD9F9"></path><path d="M229.998 121.695l7.326-30.119s-18.205.311-27.41 38.114c-9.205 37.8-18.838 68.532-18.838 68.532l-46.253-36.93-8.104 11.01s41.438 74.06 63.051 60.87c21.614-13.196 37.554-88.706 37.554-88.706l-7.326-22.771z" fill="#E6F1FF"></path><path fill="#FDBDB4" d="M310.126 532.691l2.353 4.327.129 1.066.359 1.488.457 6.709-15.564 9.626-5.073-6.518.874-3.413 1.21-8.958z"></path><path d="M313.23 537.85c.851 2.827-.318 5.286-2.36 7.431-2.044 2.153-4.243 3.62-7.064 4.578-2.58.877-4.284 1.329-6.75.18-2.217-1.042-2.848-2.027-2.615-4.447 0 0-31.92 36.34-17.056 40.7 13.87 4.071 23.302-14.76 29.765-20.651 5.91-5.386 9.222-2.092 8.82-12.626-.29-7.515-2.74-15.165-2.74-15.165" fill="#0F53B7"></path><path fill="#FDBDB4" d="M250.23 510.764l2.294 4.321.278 2.987-.612 8.755-19.56 4.574-3.044-7.64 1.442-4.964 2.934-4.488z"></path><path d="M312.121 282.353c-.328 10.344-3.546 55.253-4.979 79.035-1.44 23.782-1.758 52.915-1.758 52.915s1.754 17.414 4.403 37.776c2.645 20.369 2.335 84.52 2.335 84.52s-7.66 5.716-17.467 0c0 0-10.916-51.423-15.973-74.588-5.069-23.169-5.932-36.53-8.557-50.892-3.172-17.38-10.014-98.449-10.014-98.449l-10.029 91.673s.655 14.813.736 28.562c.085 15.042 1.77 82.125 1.77 82.125s-9.355 7.06-18.889-.772c0 0-16.68-82.968-18.23-114.461-.492-9.987 1.708-141.835 1.708-141.835l94.945 24.391z" fill="#E55B2E"></path><path d="M312.74 282.353c9.097 28.488-3.568 55.253-5.01 79.035-1.45 23.782-1.77 52.915-1.77 52.915s1.767 17.414 4.432 37.776c2.662 20.369 2.35 84.52 2.35 84.52s-7.708 5.716-17.58 0c0 0-10.985-51.423-16.074-74.588-5.101-23.169-5.97-36.53-8.612-50.892-3.192-17.38-10.078-98.449-10.078-98.449l-10.093 91.673s.659 14.813.74 28.562c.086 15.042 1.78 82.125 1.78 82.125s-9.414 7.06-19.008-.772c0 0-16.788-82.968-18.347-114.461-.495-9.987 1.719-141.835 1.719-141.835l95.553 24.391z" fill="#E55B2E"></path><path d="M307.745 361.557c-1.447 23.74-1.77 52.82-1.77 52.82s1.766 17.38 4.427 37.706c2.657 20.337 2.345 84.375 2.345 84.375s-.988.721-2.688 1.392c-4.096-6.345-7.044-13.52-7.2-21.02-.12-6.015 1.544-11.902 2.365-17.86.778-5.616.42-10.76-1.762-16.003-2.038-4.888-4.812-9.547-6.702-14.528-2.72-7.174-4.22-14.965-3.112-22.554.984-6.736 3.983-13.158 4.115-19.965.117-6.251-2.194-12.255-3.55-18.356-1.833-8.225-1.86-16.713-.308-24.984 1.295-6.907-.164-13.586 1.894-20.617a51.406 51.406 0 0 1 .587-1.856c1.996-5.95 4.96-11.705 5.088-17.953.121-5.907-2.318-11.547-3.248-17.384-1.28-8.043 6.17-22.636 6.17-40.077 0-6.783.88 4.957 6.025-.283a13.718 13.718 0 0 0 1.56-1.942l.766.194c9.08 28.434-3.563 55.154-5.002 78.895" fill="#D83D13"></path><path d="M287.582 82.548s-1.164 22.378-.66 24.358c.5 1.98 10.416 8.536 13.303 10.89 2.883 2.35-15.69 20.414-24.722 24.497-9.032 4.083-37.645-6.68-38.145-20.537-.504-13.86 4.89-25.49 9.286-26.11 4.39-.62 40.938-13.098 40.938-13.098" fill="#FDBDB4"></path><path d="M290.258 111.558s-19.452 32.682-36.93 25.895c-17.472-6.783-9.911-31.558.008-39.616 0 0-9.297-7.926-15.35-5.942-6.054 1.98-12.108 5.582-16.306 18.427-4.198 12.845-6.127 27.748-5.744 51.631.17 10.818 3.127 31.225 3.084 50.838-.046 23.69-3.622 47.271-3.622 47.271s3.71 14.174 24.262 25.659c20.546 11.48 35.835 12.605 49.775 9.345 11.504-2.698 21.014-6.756 24.98-15.128-1.032-16.736-8.485-60.423-5.702-81.473 2.783-21.05 7.217-36.76 8.365-53.779 1.14-17.02-2.234-16.674-10.746-22.74-11.45-8.16-16.074-10.388-16.074-10.388" fill="#E6F1FF"></path><path d="M286.267 246.861c2.058-11.584 5.02-23.03 6.138-34.742 1.055-11.078-.073-22.253.558-33.362.447-7.875 1.811-25.789 11.15-28.66 4.924-1.514 8.846.727 11.89 4.359-1.777 13.69-5.128 27.311-7.402 44.506-2.77 20.982 4.654 64.538 5.683 81.219-3.413 7.21-10.96 11.206-20.342 13.895-6.03-10.9-11.377-26.357-7.675-47.215" fill="#BDD9F9"></path><path d="M237.516 48.789c1.181-7.736 3.843-16.454 11.806-19.258 2.654-.932 5.458-1.317 8.239-1.697 5.189-.71 10.609-1.398 15.54.373 4.67 1.681 8.34 5.378 11.451 9.273 2.3 2.882 4.39 5.942 6.178 9.173.92 1.666 1.57 2.994 1.535 4.943-.03 1.76-.396 3.503-.285 5.263.116 1.832.75 3.588 1.423 5.289.377.959.781 1.96.647 2.982-.112.866-.597 1.627-1.012 2.392-1.373 2.54-2.042 5.387-2.435 8.23-.196 1.41-.196 2.877-.446 4.267-.17.928-1.443 1.627-2.073 2.385-.008.007-4.682 5.499-5.809 6.827-6.323 7.475-22.11 12.081-27.607 11.285-7.054-1.017-11.19-4.944-14.547-12.734-5.94-13.747-4.07-30.337-2.605-38.993" fill="#FDBDB4"></path><path d="M239.904 35c7.45-11.3 21.123-17.99 36.022-14.898 9.086 1.884 16.889 7.466 21.833 14.98 6.922 2.688 6.728 12.743 6.596 15.865-.57 13.448-3.672 29.635-16.097 31.6.38-1.18 9.466-14.735.105-17.734-.943 1.091-1.404 2.507-1.656 3.904-.14.785-.178 1.574-.256 2.364-.097.97-.202.944-1.117.537-2.501-1.11-4.134-3.648-4.878-6.19-.865-2.944-.791-6.066-1.012-9.13a46.938 46.938 0 0 0-1.137-7.374c-.52-2.194-1.24-4.422-2.757-6.093-2.858-3.153-6.608-1.621-10.257-1.354a47.22 47.22 0 0 1-13.173-.882c-6.24-1.32-10.478-3.66-12.216-5.595" fill="#326CE5"></path><path d="M298.06 34.774s4.194-3.98-3.263-12.6c-8.696-10.056-18.815-13.75-34.463-7.491-10.006 4-24.123-1.525-26.715 14.497-2.794 17.253 31.032 20.89 45.153 9.105 1.014-.324 11.257-5.325 19.29-3.51" fill="#326CE5"></path><path d="M253.317 518.503c.046 2.96-2.955 5.376-5.528 6.905-2.572 1.524-11.034 3.026-14.284.36-1.9-1.559-3.348-4.285-2.46-6.551 0 0-5.718 4.593-11.786 10.526-9.361 9.152-19.56 21.487-10.903 25.074 12.526 5.184 25.86-9.647 33.416-12.47 7.555-2.819 13.234-2.139 12.198-12.842-.723-7.504-.653-11.002-.653-11.002" fill="#0F53B7"></path><path d="M282.725 68.953c-1.041 5.29 1.175 10.18 4.949 10.92 3.777.746 7.683-2.945 8.725-8.235 1.042-5.294-1.175-10.18-4.952-10.923-3.777-.739-7.68 2.948-8.722 8.238" fill="#FDBDB4"></path><path d="M236.031 384.468c1.5-4.142 4.391-7.705 5.793-11.881 1.607-4.787 1.137-9.974 1.56-15.001.407-4.849 1.69-9.624 3.723-14.053 1.955-4.266 5.394-7.47 7.515-11.508.683-1.309 4.233-9.258 5.92-14.732l-9.65 86.535s.666 14.825.75 28.583c.09 15.051 1.803 82.172 1.803 82.172s-2.586 1.896-6.42 2.63c-2.44-6.108-4.395-16.217-4.696-19.896-1.042-12.744.447-25.708-2.337-38.3-1.252-5.677-3.388-11.236-3.534-17.049-.178-6.954 2.511-13.71 2.685-20.665.316-12.456-7.364-25.098-3.112-36.835" fill="#D83D13"></path><path d="M144.458 162.365c-2.406-2.359-8.01-7.649-11.29-12.84-1.607-2.541-4.025-3.781-6.913-4.652l-5.548-1.133c-2.594-.512-3.592-.664-4.717-.52-.853.111-13.05 1.932-12.802 4.737.253 2.802 6.665 1.721 10.124 1.924 2.433 4.98 4.606 8.53 5.75 13.976 5.25 4.984 7.705 8.263 12.354 8.946 1.641.244 3.963-1.011 6.393-1.473l3.198-4.31 3.451-4.655z" fill="#FDBDB4"></path><path d="M140.59 178.043s-.078 2.198-2.418 4.085c-2.34 1.883-4.47.595-4.47.595S-1.619 1.313.014.013c2.212-1.77 140.574 178.03 140.574 178.03" fill="#0F53B7"></path><path d="M112.375 150.942c1.507-.207 3.868.566 4.826.847 1.613.462 3.092 2.65 3.843 3.963.922 1.608 1.45 3.416 1.486 5.238.016.806-.095 1.693-.723 2.248-.763.684-1.97.61-3.02.488-1.348-.16-2.727-.337-3.92-.947-1.68-.857-2.777-2.502-3.318-4.214-.536-1.719-.58-3.534-.62-5.32-.016-.558-.02-1.146.26-1.641.217-.392.646-.588 1.187-.662" fill="#FDBDB4"></path><path d="M129.783 149.547c-4.3-1.178-10.809-.989-14.59-3.678-1.596-1.131-3.165-2.282-4.438-2.662-.812-.123-1.526.04-2.05.637-.942 1.06-.193 5.07 4.053 7.329l6.697 3.564c4.108 8.54 6.528 10.727 16.158 11.648l3.686-6.672s-5.215-8.987-9.516-10.166m177.739 156.137c-2.53 3.736-4.6 6.31-7.333 9.484-2.74 3.167-2.966 12.608-3.503 15.49-.576 3.096 3.452 5.225 4.624 1.243.444-1.513.479-3.108.794-4.644.218-1.06.856-3.248 2.176-3.44.6-.081 1.136.39 1.483.89 1.3 1.883 1.125 4.457.307 6.598-.77 2.027-2.296 3.993-4.433 4.324-.81.125-1.631.004-2.445-.074-.813-.074-1.658-.097-2.417.207-.76.304-1.41 1.014-1.41 1.833 0 .694.449 1.306.912 1.82 3.29 3.682 16.224 2.001 16.224 2.001s6.453-.515 9.096-13.777c.845-4.239 2.145-18.453 2.145-18.453l-16.22-3.502z" fill="#FDBDB4"></path><path d="M315.205 128.106c18.237 11.485 30.464 59.94 30.464 94.555 0 34.61-18.663 89.859-18.663 89.859-6.928 2.166-18.911.384-23.394-4.778l12.795-79.627-22.01-59.724c-2.254-29.922 7.625-43.297 20.807-40.285" fill="#E6F1FF"></path></g><g transform="translate(347.227642, 664.747140)"><path d="M39.083 288.496c-.491 2.667-1.7 4.818-4.11 5.52-4.214 1.22-10.406 3.922-12.388-5.058-.297-1.35-1.914-6.526-3.266-11.821-2.608-10.184-5.41-25.305-.575-26.758 7.35-2.213 18.1 19.599 20.426 32.03.258 1.359.163 4.72-.087 6.087m4.109 51.87v4.15s-.757 7.007-4.997 9.582c-4.57 2.773-11.653 3.719-17.43-5.958-5.74-9.614-24.945-20.063-19.013-27.63 4.267-5.446 20.476.488 41.44 19.856" fill="#D83D13"></path><path d="M142.011 130.463c.195-.008.387-.023.578-.04 2.33-.192 4.88-1.063 5.9-3.22.711-1.5.504-3.282.08-4.893-.514-1.955-1.357-4.594-2.75-6.09-1.36-1.457-3.678-2.553-5.367-3.598-6.832-4.253-15.12-8-20.839-6.534-12.198 3.126-11.547 8.514-9.437 13.666.624 1.516 1.938 2.62 3.252 3.491 4.186 2.78 9.265 4.155 13.937 5.808 1.306.464 2.643.892 3.91 1.453.935.409 1.808 1.092 2.865 1.053 1.38-.051 2.724-.81 4.13-.939 1.244-.118 2.496-.086 3.741-.157" fill="#FDBDB4"></path><path d="M143.332 114.858c7.034 1.624 14.824 2.826 21.858 4.455 10.33 2.385 22.583 2.776 29.037 12.408 1.364 2.036 2.405 4.378 2.45 6.832.074 3.66-2.116 7.094-5.04 9.298-10.436 7.877-56.506-13.073-57.59-14.19-2.715-2.812 4.94-20.055 9.285-18.803" fill="#E55B2E"></path><path d="M75.316 221.612c19.306-5.481 76.114 11.732 96.23 20.95 4.056 1.856 1.935 5.407 6.056 7.028 2.579 1.017 4.723 2.977 6.076 5.395 7.596 13.584-2.062 28.538-14.908 33.52-10.306 4-22.028 2.596-32.462-1.055-13.583-4.75-25.831-13.225-35.048-24.257-1.725-2.066-4.323-4.46-6.708-3.203-.911.483-1.485 1.404-2.02 2.286-16.65 27.506-35.118 52.486-50.476 80.697-8.76.564-15.401-.716-17.848-8.56-.624-2-.407-4.159.38-6.104 7.662-18.88 32.458-101.514 50.728-106.697" fill="#326CE5"></path><path d="M215.63 250.755c15.367 12.905 14.986 32.177-24.314 36.837-39.304 4.661-140.265 8.608-158.675 5.201-6.187-4.46-9.73-16.181-.987-22.007 13.194-1.652 168.606-32.933 183.974-20.03" fill="#326CE5"></path><path d="M163.573 46.324c.023-.324.05-.649.078-.973.318-3.832.73-7.71 2.133-11.303 1.11-2.855 3.23-6.455 6.165-7.85 2.698-1.278 6.852.769 9.2 2.283 2.377 1.53 3.97 3.778 6.115 5.555 4.56 3.782 6.099 9.634 8.463 14.834 1.885 4.137 4.229 8.205 4.724 12.713.306 2.792-.134 5.59-.927 8.27-.722 2.453-2.297 4.875-2.655 7.398-.475 3.337 1.76 9.676-3.447 10.422-1.461.212-2.67-.618-3.994-1.02-1.873-.568-3.63-1.472-5.521-1.874-2.57-.544-5.133-.834-7.638-1.676-3.103-1.043-6.064-2.72-8.114-5.234-1.97-2.415-2.992-5.45-3.671-8.48-1.697-7.54-1.512-15.358-.911-23.065" fill="#FDBDB4"></path><path d="M207.522 95.528c-1.006 8.648-16.467 9.128-28.19 8.91-.032 0-.048.015-.075.015-2.143-2.463-3.215-4.72-3.215-4.72l1.75-17.425 31.785-7.5-1.788 20.474c-.077.07-.255.172-.267.246" fill="#FDBDB4"></path><path d="M191.008 79.333c-.038.046-.08.081-.12.128l-.147-.275c.09.046.182.104.267.147" fill="#594A43"></path><path d="M155.055 11.12c1.864-4.828 7.12-8.445 12.206-7.47 1.585.306 3.108 1.017 4.71 1.118a6.874 6.874 0 0 0 .398.012c1.666-.008 3.228-.747 4.762-1.39A44.364 44.364 0 0 1 202.1.723c3.438.634 6.856 1.702 9.762 3.648 3.515 2.344 6.064 5.806 8.378 9.272 1.14 1.71 1.802 3.412 3.328 4.882 1.605 1.544 3.511 2.755 4.992 4.438 2.642 2.998 3.611 7.38 2.48 11.214-.686 2.333-2.077 4.418-2.717 6.766-1.662 6.128 2.077 12.538 1.38 18.848-.372 3.392-2.004 6.514-3.775 9.435-2.394 3.95-5.014 9.787-9.784 11.288a75.87 75.87 0 0 1-17.008 3.308c-1.984.154-9.347-.681-10.897-5.637-.608-1.953-1.348-13.721-1.37-15.663-.025-1.876-.036-2.325 1.134-3.741.9-1.08 1.724-2.255 2.112-3.621.554-1.934-.035-4.352-1.845-5.242.252 2.047-1.085 4.167-3.038 4.832-1.949.661-5.386-.062-6.436-1.83-.62-1.048-.539-2.364-.365-3.516.171-1.15.117-1.69-.155-2.86-.538-2.359-.453-4.858.295-7.164.52-1.586 1.34-3.106 1.438-4.77.224-3.632-3.31-4.502-6.17-4.646-4.367-.216-9.834 2.7-13.686-.034-1.4-.998-2.445-2.422-3.306-3.907-2.584-4.488-3.654-10.078-1.79-14.902" fill="#326CE5"></path><path d="M170.198 102.183c1.483-2.691 3.637-5.618 6.95-8.156 5.316 5.335 19.15 7.152 25.996 3.969 3.806-1.767 5.113-6.42 5.113-6.42s2.837 2.405 4.466 4.989c3.5 7.068 4.807 19.132-16.605 20.712-6.693.485-13.942-.866-19.53-4.415-4.788-3.069-11.65-6.588-6.39-10.68" fill="#E55B2E"></path><path d="M203.138 283.376c-24.122 9.927-54.113 6.77-73.867-11.534-4.534-4.195-8.215-9.184-11.27-14.652l8.9-93.472c5.202-55.522 29.154-57.404 43.017-61.281 0 0 7.732 11.298 28.127 9.303 20.778-2.025 14.678-15.004 14.678-15.004 6.833.918 18.898 1.282 22.228 5.41 9.534 11.814 6.532 36.462 6.03 45.63-1.273 23.278-12.377 71.917-17.47 110.413-3.322 8.997-10.2 20.992-20.372 25.187" fill="#E55B2E"></path><path d="M165.308 146.26c-1.126-.897-2.454-2.031-3.038-2.314 1.2.573 2.17 1.397 3.038 2.314m.514.576c-.135.058-.263.124-.398.186-.322-.457-.71-.855-1.088-1.258.608.488 1.169.921 1.486 1.072m-40.087 28.168c11.27-11.9 24.938-21.494 39.96-27.966 2.937 4.238 3.272 10.57 1.611 15.73-2.25 6.98-7.048 12.844-9.885 19.603-4.455 10.605-3.807 22.566-3.333 34.066.474 11.5.57 23.592-4.783 33.768-5.017 9.532-16.452 16.477-26.503 13.514a66.347 66.347 0 0 1-4.8-7.413l7.733-81.302z" fill="#D83D13"></path><path d="M22.593 94.945a12.355 12.355 0 0 1 .198-1.425 12.62 12.62 0 0 1 .918-2.763 10.116 10.116 0 0 1 .984-1.643c.655-.9 1.464-1.674 2.379-2.195l70.423-40.973a8.284 8.284 0 0 1 .763-.389 5.633 5.633 0 0 1 1.495-.393 4.737 4.737 0 0 1 1.127.027c.062 0 .124 0 .182.016l4.04.654c-.061 0-.123-.016-.19-.027a5.413 5.413 0 0 0-1.122-.016c-.5.058-1 .19-1.5.405a7.188 7.188 0 0 0-.763.362L31.116 87.56c-.918.533-1.724 1.304-2.39 2.207a9.584 9.584 0 0 0-.976 1.643c-.221.451-.407.93-.562 1.409a11.89 11.89 0 0 0-.357 1.354c-.096.464-.166.946-.201 1.425a11.95 11.95 0 0 0-.023 1.627c.046.74.162 1.471.348 2.168l16.089 60.497c.786 2.978 2.7 4.858 4.908 5.204l-4.037-.654c-2.208-.346-4.122-2.226-4.912-5.188l-16.08-60.497a11.006 11.006 0 0 1-.35-2.168 12.31 12.31 0 0 1 .02-1.643" fill="#0F53B7"></path><path d="M30.974 87.953l70.934-40.733c3.29-1.88 6.841-.275 8.281 3.583.098.279.191.55.27.84 0 0 0 .016.003.031l16.198 60.128.004.011a7.943 7.943 0 0 1 .195.871c.761 4.26-1.088 8.99-4.374 10.897L51.542 164.31c-.928.538-1.888.785-2.805.785-2.338 0-4.453-1.621-5.479-4.396a9.867 9.867 0 0 1-.258-.84h-.01l-16.2-60.142-.004-.016a8.759 8.759 0 0 1-.195-.878c-.754-4.25 1.096-8.963 4.382-10.87" fill="#4279F2"></path><path d="M36.958 89.05l63.66-36.748c2.948-1.696 6.136-.248 7.43 3.236.089.244.17.496.24.755 0 0 0 .012.004.027l14.537 54.245.008.016a7.073 7.073 0 0 1 .17.782c.684 3.844-.974 8.107-3.926 9.83l-63.664 36.749c-.835.48-1.697.704-2.52.704-2.098 0-3.993-1.463-4.917-3.968a6.955 6.955 0 0 1-.23-.755h-.011l-14.533-54.26-.004-.012a7.348 7.348 0 0 1-.178-.797c-.676-3.833.986-8.084 3.934-9.803" fill="#0F53B7"></path><path d="M72.517 96.11c.8-1.876 1.99-3.482 3.437-4.584l1.302 4.68.045.229.012.314-.563.392-.195-.037.008.026-4.046-1.02zm5.5.206l-.065-.185-1.592-5.844-.367.258c-1.872 1.28-3.4 3.319-4.276 5.69l-.15.47 5.202 1.32.027-.01.502-.123c.31-.159.558-.495.666-.91l.034-.625.02-.04z" fill="#F4F4F4"></path><path d="M79.405 99.377l1.702-.885 1.618 1.055.253 2.214-1.252 1.696-1.832-.089-1.054-1.8.565-2.191zm-3.226-8.86l.379-.27 1.642 6.104.064.194-.016.042-.036.653c-.11.433-.367.784-.687.95l-.517.128-.028.012-5.366-1.38.15-.49c.905-2.477 2.484-4.606 4.415-5.943zm8.758-.908l.406.193-2.977 5.576-.09.197-.028.015-.44.375c-.532.274-1.09.085-1.42-.452l-2.342-6.043.423-.147a5.42 5.42 0 0 1 1.019-.305c1.86-.41 3.723-.224 5.449.591zm-3.55 23.704l-.423.035.723-6.483.043-.248.028-.011.245-.576.466-.39.027-.016a1.015 1.015 0 0 1 .964.097l4.288 4.096-.32.355a10.889 10.889 0 0 1-2.823 2.137c-.715.37-1.43.672-2.184.838-.351.07-.675.128-1.034.166zm7.459-5l-3.696-4.477-.127-.194-.011-.034-.186-.576c-.067-.672.225-1.31.734-1.569l.012-.05 5.44-1.634.013.513c.04 2.701-.636 5.398-1.942 7.604l-.237.418zm-16.888-1.228a14.19 14.19 0 0 1-.971-3.74c-.154-1.333-.154-2.674.063-4.018l.079-.522 4.99 2.055.186.09.012.034.38.398c.303.549.26 1.279-.084 1.758l-4.446 4.397-.21-.452zm1.374 2.415l-.276-.379 4.615-3.593.174-.128.04.016.027-.012.466-.096c.573.038 1.01.521 1.098 1.182l.012.03-.103 6.759-.43-.078c-2.164-.436-4.174-1.738-5.623-3.701zm17.34-12.117l.1.506-5.3.823-.21.035-.007-.031-.525-.178c-.474-.309-.69-.981-.53-1.622l-.007-.035 2.5-6.175.347.302c1.777 1.534 3.048 3.813 3.633 6.375zm-23.23 14.582c-.287.263-.413.738-.215 1.043.138.278.458.348.726.209a.89.89 0 0 0 .146-.1l.217-.19.435-.487.248-.278c.478-.545.913-1.032 1.414-1.406l.648-.112.229-.155.268-.22.186.282c1.84 2.689 4.418 4.4 7.3 4.841l.289.031-.012.53.024.173c.114.163.217.375.236.73 0 .673-.086 1.353-.225 2.168l-.094.386-.103.65-.02.309c-.035.463.213.854.533.873a.428.428 0 0 0 .206-.054c.22-.116.406-.402.43-.761l.024-.31-.024-.656-.047-.421c-.04-.8-.052-1.503.04-2.183l.343-.661.079-.711.308-.012c.552-.027 1.11-.131 1.638-.224a10.492 10.492 0 0 0 2.523-.931c1.347-.7 2.59-1.696 3.676-2.96l.225-.27.466.467.49.082c.39.243.68.653 1.015 1.108l.395.545.193.305.344.491.193.197c.205.205.49.26.707.147a.524.524 0 0 0 .185-.162c.218-.302.162-.758-.098-1.07l-.186-.198-.462-.355-.26-.24c-.59-.47-1.035-.873-1.406-1.352l-.202-.715-.418-.525.186-.282c1.804-2.875 2.684-6.387 2.515-9.876v-.371l.564-.182.55-.51c.536-.166 1.089-.193 1.784-.258l.308-.008.54-.058.297-.047a1.38 1.38 0 0 0 .134-.054c.292-.154.482-.467.427-.8-.06-.374-.387-.614-.68-.571l-.146.038-.197.062-.525.201-.332.135c-.632.255-1.157.456-1.725.526l-.608-.24-.593.085-.087-.367c-.64-3.392-2.345-6.336-4.714-8.268l-.257-.205.269-.622.035-.839c.24-.61.577-1.197.987-1.85l.214-.302.32-.537.094-.197c.24-.498.15-.974-.13-1.163l-.498-.004-.355.445-.107.243-.23.641-.101.352c-.277.777-.506 1.414-.814 1.986l-.572.448-.3.603-.296-.143c-2.101-1.105-4.454-1.445-6.768-.912-.55.14-1.082.305-1.64.518l-.291.15-.245-.656-.51-.514c-.22-.591-.374-1.256-.532-2.029l-.063-.378-.142-.634-.095-.286c-.134-.413-.49-.641-.782-.487-.292.151-.446.638-.308 1.055l.09.286.277.56.19.39c.308.657.568 1.268.738 1.886l-.087.788.08.333.086.367-.264.139c-2.595 1.684-4.62 4.45-5.714 7.778l-.142.332-.577-.147-.667.158c-.525-.096-1.02-.363-1.682-.687l-.272-.159-.518-.247-.237-.066-.54.062-.273.398.05.537.428.367.24.062.53.097.328.054c.655.104 1.212.189 1.757.425l.458.545.58.258-.067.367a16.8 16.8 0 0 0-.166 5.228c.213 1.712.652 3.346 1.354 4.845l.158.29-.47.468-.323.722c-.415.445-.928.785-1.51 1.198l-.32.166-.456.313-.245.201z" fill="#F4F4F4"></path><path d="M71.926 105.684a14.062 14.062 0 0 1-.783-3.11 13.49 13.49 0 0 1-.02-3.335l4.501 1.781.267.212-.119.83-.194.212-3.652 3.41zm-1.464-7.116c-.233 1.386-.233 2.772-.068 4.153a14.245 14.245 0 0 0 1.037 3.866l.224.467 4.765-4.548c.368-.495.415-1.246.089-1.817l-.406-.411-.009-.032-.199-.096-5.353-2.125-.08.543z" fill="#F4F4F4"></path><path d="M71.639 99.315a17.085 17.085 0 0 0 .64 6.449l2.906-3.412.158-.212.094-.83-.215-.213-3.583-1.782zm4.915-7.739c-1.556 1.266-2.832 3.108-3.697 5.26l4.352 1.177-.008-.034.21.046.605-.454-.012-.36-.05-.26-1.4-5.375z" fill="#3067DB"></path><path d="M73.961 109.596l3.711-2.773.206-.14.08-.04.027-.016.178-.018.435.544-.02.225.012.03-.095 5.112c-1.733-.428-3.315-1.438-4.534-2.924zm3.7-3.745l-.175.123-4.629 3.495.281.364c1.448 1.906 3.462 3.17 5.634 3.595l.428.075.106-6.564-.01-.03c-.092-.642-.53-1.111-1.1-1.145l-.472.09-.024.015-.04-.018zm2.713-6.249l.997-.578.956.686.163 1.453-.754 1.095-1.085-.032-.613-1.196.336-1.428zm2.566-.477l-1.514-1.1-1.591.923-.528 2.275.986 1.87 1.713.092 1.17-1.762-.236-2.298z" fill="#F4F4F4"></path><path d="M81.783 95.401a.454.454 0 0 0 .203-.198l.129-.166 2.35-4.217a8.292 8.292 0 0 0-4.63-.357l-.528.155 1.768 4.34.097.198a.447.447 0 0 0 .612.245" fill="#3067DB"></path><path d="M79.638 90.12a8.431 8.431 0 0 1 4.983.41l-2.533 4.804-.134.185a.51.51 0 0 1-.222.226c-.23.119-.532.028-.653-.28l-.11-.225-1.9-4.944.569-.177zm2.86 6.068l.1-.21 3.158-5.924-.431-.206c-1.834-.866-3.811-1.063-5.78-.628-.372.074-.732.18-1.084.324l-.444.152 2.484 6.426c.347.571.942.772 1.503.48l.465-.402.03-.012zm-.636 16.257l-.492.123.585-5.419.136-.33.157-.16.023-.012.42.108.17.164 3.137 3.135a9.45 9.45 0 0 1-2.17 1.644 7.67 7.67 0 0 1-1.966.747zm-.537-5.618l-.042.25-.686 6.426.4-.03c.343-.043.65-.1.985-.165.717-.169 1.396-.464 2.076-.836a10.338 10.338 0 0 0 2.683-2.119l.305-.353-4.077-4.062a.931.931 0 0 0-.916-.095l-.026.015-.443.387-.233.57-.026.012z" fill="#F4F4F4"></path><path d="M84.656 97.97l.277.055 4.692-.73c-.562-2.258-1.631-4.267-3.052-5.719l-2.033 5.26.009.034-.083.258.19.842zm1.48 4.045l-.085.045-.295.621.15.356.136.208 3.183 3.809c1.046-1.904 1.635-4.177 1.69-6.449l-4.51 1.312-.013.045-.256.053z" fill="#3067DB"></path><path d="M90.023 96.516l-4.366.632-.257-.049-.181-.728.08-.224-.007-.026 1.89-4.559c1.319 1.257 2.319 3.001 2.84 4.954zm-4.47 1.51l.2-.034 5.162-.788-.096-.488c-.573-2.465-1.81-4.66-3.536-6.14l-.338-.29-2.437 5.947.01.033c-.16.618.055 1.261.516 1.562l.508.168.01.03z" fill="#F4F4F4"></path><path d="M67.494 113.24c-.4-.687-.212-1.73.405-2.287l.23-.235.576-.386.262-.14c.54-.406.999-.687 1.338-1.062l.104-.43.039-.171.16-.164a18.362 18.362 0 0 1-1.252-4.852 18.7 18.7 0 0 1 .093-5.206l-.27-.192-.077-.148-.135-.23c-.432-.215-.948-.316-1.527-.418l-.285-.035-.64-.105-.27-.082c-.34-.117-.605-.387-.78-.746a1.981 1.981 0 0 1-.145-1.237 1.762 1.762 0 0 1 .617-.933.519.519 0 0 1 .1-.058 1.28 1.28 0 0 1 .97-.106l.27.082.56.336.29.148c.578.289 1.02.535 1.44.613l.348-.148.093-.09.243.097c1.126-3.278 3.088-6.026 5.548-7.763l-.04-.133-.02-.25.075-.152.058-.296c-.135-.527-.36-1.046-.68-1.776l-.126-.312-.3-.66-.074-.226c-.3-.968-.004-1.956.644-2.303.652-.351 1.392.078 1.666.944l.1.32.146.754.074.335c.154.781.285 1.39.455 1.823l.293.258.13.043.093.288a6.44 6.44 0 0 1 1.38-.44c2.314-.57 4.623-.274 6.755.803l.22-.273.104-.05.23-.133c.248-.469.456-1.07.71-1.807l.1-.356.228-.725.147-.305a1.897 1.897 0 0 1 .66-.804c.362-.195.786-.199 1.133.031.582.398.778 1.421.397 2.229l-.05.137-.085.199-.401.667-.166.238c-.374.652-.69 1.198-.864 1.71l.02.44.023.172-.077.235c2.236 1.99 3.844 4.89 4.545 8.274h.274l.343.227c.467-.059.93-.235 1.558-.461l.262-.14.613-.254.204-.035c.86-.16 1.52.386 1.608 1.24.096.73-.29 1.433-.833 1.73a1.257 1.257 0 0 1-.266.101l-.331.102-.652.054-.274-.003c-.651.05-1.13.082-1.565.242l-.262.327-.3.2c.119 3.473-.76 6.955-2.434 9.847l.205.265-.012.156.027.367c.305.398.729.773 1.268 1.234l.236.171.505.445.204.266c.555.605.605 1.631.147 2.295l-.455.39c-.39.21-.86.164-1.238-.16l-.154.086-.093-.289-.146-.183-.393-.582-.147-.261-.41-.531c-.245-.394-.515-.773-.777-.933l-.24.016-.138.039-.22-.223c-1.064 1.214-2.27 2.182-3.57 2.88a10.89 10.89 0 0 1-2.622 1.015c-.455.094-.921.16-1.36.207l-.1.36-.113.132-.14.223c-.068.565-.05 1.194-.037 2.014l.038.32.016.82-.012.343c-.05.694-.385 1.272-.84 1.518a.984.984 0 0 1-.528.121c-.675-.012-1.2-.82-1.153-1.827l.035-.277.12-.78.065-.375c.12-.777.227-1.401.23-1.967l-.188-.312-.127-.118.07-.265c-2.77-.578-5.24-2.26-7.068-4.887l-.285.153-.135-.036-.24.012c-.392.289-.774.718-1.24 1.273l-.193.253-.49.566-.123.102-.116.101c-.085.07-.173.133-.266.18-.574.308-1.23.16-1.55-.445zm-5.077 2.884c.13 1.097.67 2.045 1.41 2.553l14.659 9.902a2.466 2.466 0 0 0 2.52.105l15.85-8.532c.807-.433 1.462-1.346 1.736-2.4l5.089-20.53.077-.34c.154-.952-.02-1.987-.447-2.767L93.846 77.05c-.486-.866-1.33-1.428-2.202-1.487L74.73 74.81a2.295 2.295 0 0 0-1.164.254c-.058.027-.112.05-.17.082-.39.21-.763.53-1.057.952L60.728 92.206c-.586.843-.867 1.971-.736 3.064l2.425 20.854z" fill="#3067DB"></path><path fill="#3067DB" d="M81.733 102.809l.793-1.056-.174-1.401-1.002-.661-1.045.557-.348 1.377.638 1.153z"></path><path d="M85.366 102.918l-.148-.355.287-.62.082-.046.242-.053.016-.045 4.33-1.311c-.05 2.271-.615 4.543-1.62 6.446l-3.058-3.807-.131-.209zm-.685.483l.127.208 3.842 4.735.246-.441c1.353-2.337 2.058-5.189 2.017-8.04l-.012-.548-5.65 1.732-.016.054c-.525.273-.83.947-.76 1.658l.194.605.012.037z" fill="#F4F4F4"></path><path d="M82.69 105.952l-.15.36-.653 5.901.548-.133a8.706 8.706 0 0 0 2.192-.818 10.375 10.375 0 0 0 2.419-1.787l-3.498-3.419-.19-.18-.467-.112-.025.013-.176.175z" fill="#3067DB"></path><path d="M67.95 112.25c-.193-.301-.071-.771.22-1.035l.243-.195.456-.31.315-.164c.58-.413 1.088-.75 1.505-1.185l.322-.715.468-.462-.158-.29c-.7-1.48-1.135-3.097-1.351-4.794-.22-1.724-.15-3.494.169-5.168l.062-.367-.577-.252-.452-.54c-.543-.232-1.097-.317-1.75-.42l-.33-.053-.526-.096-.236-.061-.428-.367-.051-.527.275-.398.534-.057.24.06.515.25.267.156c.664.321 1.152.585 1.678.677l.66-.157.574.145.142-.325c1.089-3.295 3.105-6.032 5.687-7.694l.267-.138-.087-.363-.078-.329.086-.78c-.17-.611-.432-1.215-.735-1.865l-.188-.386-.275-.554-.095-.287c-.133-.409.02-.89.31-1.04.292-.152.645.07.775.482l.094.283.142.623.063.378c.157.765.31 1.422.534 2.003l.507.513.244.65.29-.15a13.081 13.081 0 0 1 1.628-.512c2.307-.531 4.645-.195 6.736.898l.295.146.302-.6.566-.44c.31-.566.535-1.197.814-1.969l.102-.344.224-.634.11-.241.35-.44.495.004c.279.188.37.658.16 1.055l-.12.287-.323.535-.212.294c-.41.65-.743 1.227-.98 1.835l-.04.826-.262.619.252.199c2.362 1.911 4.056 4.827 4.692 8.184l.087.363.59-.088.608.24c.562-.072 1.09-.27 1.718-.52l.326-.133.527-.199.192-.065.146-.034c.294-.042.62.19.68.566.055.328-.134.638-.425.787a.95.95 0 0 1-.133.057l-.3.046-.538.054-.306.011c-.692.065-1.238.092-1.773.256l-.55.501-.558.18-.004.37c.17 3.448-.707 6.923-2.5 9.77l-.188.28.42.52.197.707c.373.47.814.871 1.4 1.337l.263.234.455.355.134.115c.31.39.37.84.153 1.135a.486.486 0 0 1-.184.16c-.22.111-.5.062-.708-.14l-.188-.2-.342-.485-.197-.302-.39-.535c-.333-.455-.624-.856-1.01-1.097l-.49-.08-.46-.463-.224.264c-1.08 1.25-2.323 2.236-3.663 2.932-.805.412-1.643.722-2.507.92-.53.092-1.085.196-1.631.222l-.31.012-.08.7-.337.657c-.09.673-.083 1.368-.04 2.16l.044.416.027.65-.027.199c-.024.462-.205.745-.425.856a.417.417 0 0 1-.208.057c-.314-.019-.566-.409-.53-.867l.023-.306.102-.642.09-.379c.138-.806.229-1.48.229-2.144-.024-.356-.122-.562-.236-.723l-.028-.172.016-.523-.29-.035c-2.866-.432-5.436-2.125-7.264-4.79l-.184-.274-.271.217-.228.153-.645.111c-.5.371-.931.853-1.403 1.388l-.251.279-.433.481-.216.184a.607.607 0 0 1-.141.103c-.268.138-.586.065-.727-.206zm-.09-1.792c-.7.615-.893 1.64-.484 2.313.33.592.994.737 1.58.435a1.718 1.718 0 0 0 .27-.176l.119-.099.125-.103.5-.55.196-.253c.476-.539.865-.963 1.266-1.242l.243-.015.138.038.22-.073c1.933 2.496 4.453 4.144 7.263 4.679l-.06.287.13.118.193.306c-.004.554-.114 1.162-.236 1.926l-.067.363-.122.765-.035.275c-.047.986.487 1.778 1.175 1.79a1.042 1.042 0 0 0 .539-.123c.463-.237.805-.807.856-1.483l.012-.337-.016-.802-.04-.314c-.011-.803-.03-1.418.04-1.972l.14-.218.116-.134.102-.348c.448-.046.924-.11 1.387-.202a11.591 11.591 0 0 0 2.673-.994 13.194 13.194 0 0 0 3.639-2.821l.224.214.14-.034.245-.016c.267.157.542.524.794.914l.417.52.149.256.4.57.142.145.102.317.158-.084c.385.317.864.363 1.26.156l.465-.382c.468-.65.416-1.655-.15-2.247l-.208-.264-.515-.432-.24-.168c-.55-.451-.982-.822-1.292-1.208l-.028-.36.012-.152-.208-.26a17.655 17.655 0 0 0 2.48-9.644l.247-.092.326-.428c.444-.157.932-.184 1.596-.233l.279.004.664-.054.326-.057c.106-.065.197-.1.283-.146.554-.286.947-.974.85-1.69-.091-.84-.763-1.371-1.498-1.253l-.35.069-.625.252-.267.138c-.64.222-1.112.394-1.588.45l-.267-.156-.362-.065c-.715-3.318-2.354-6.154-4.633-8.107l.078-.226-.023-.168-.02-.432c.177-.5.5-1.036.88-1.674l.17-.233.408-.654.087-.195.05-.134c.39-.79.19-1.792-.404-2.182-.354-.226-.786-.222-1.155-.03a1.872 1.872 0 0 0-.672.787l-.15.298-.232.707-.102.352c-.26.722-.471 1.31-.723 1.77l-.236.126-.106.053-.224.264c-2.173-1.051-4.527-1.342-6.885-.788a7.078 7.078 0 0 0-1.407.436l-.095-.287-.133-.038-.3-.252c-.172-.424-.305-1.02-.463-1.789l-.074-.329-.15-.734-.06-.187c-.321-.978-1.075-1.395-1.74-1.051-.66.34-.962 1.307-.687 2.156l.106.317.306.65.13.302c.326.718.554 1.227.692 1.74l-.06.293-.074.15.02.244.039.126c-2.507 1.705-4.508 4.396-5.655 7.607l-.248-.096-.094.088-.354.145c-.428-.076-.88-.317-1.47-.603l-.294-.146-.57-.328-.177-.054c-.433-.115-.778-.084-1.09.077-.034.019-.07.038-.101.06a1.73 1.73 0 0 0-.63.914c-.081.413-.04.83.15 1.212.177.348.449.615.794.73l.276.08.652.103.29.035c.59.1 1.117.195 1.557.409l.138.225.078.146.275.187a17.614 17.614 0 0 0-.094 5.1 17.418 17.418 0 0 0 1.277 4.75l-.165.16-.04.17-.105.42c-.346.367-.814.642-1.364 1.035l-.267.142-.586.374-.165.161z" fill="#F4F4F4"></path><path d="M78.505 105.846l-.224.151-4.134 3.024c1.356 1.625 3.117 2.722 5.045 3.192l.106-5.577-.013-.029.022-.25-.48-.593-.203.02-.026.017-.093.045z" fill="#3067DB"></path><path d="M78.07 153.484c1.938-.051 3.868-.732 5.73-2.388 2.22-1.966 3.36-4.996 3.236-7.937-.113-2.588-1.594-5.093-3.575-6.722-2.305-1.903-4.465-3.759-6.657-5.873a126.776 126.776 0 0 0-15.918-12.994c-.88-.603-1.794-1.21-2.837-1.42-1.043-.208-2.254.07-2.856.95-.65.936-.414 2.236.117 3.238.535 1.007 1.329 1.856 1.84 2.87 1.692 3.34-.035 7.302-.324 11.033-.215 2.702.399 5.458 1.684 7.843 1.489 2.76 3.64 3.856 6.212 5.477 3.97 2.498 8.678 6.05 13.347 5.924" fill="#FDBDB4"></path><path d="M83.002 134.04c-.994-2.77-2.55-5.522-5.156-6.978-1.245-.703-2.959-1.01-4.04-.077-.78.676-.974 1.795-.946 2.813.066 2.367 1.065 4.646 2.522 6.54 1.458 1.887 3.36 3.409 5.368 4.731 1.281.845 3.662 1.541 3.713-.68.048-2.064-.77-4.423-1.46-6.349" fill="#FDBDB4"></path><path d="M85.548 136.431l32.488 32.302 18.988-44.748c4.382-9.184 12.645-15.973 21.845-11.806 11.5 5.208 16.042 18.209 11.66 27.377 0 0-29.267 65.025-51.971 61.517-22.62-3.496-49.375-50.639-49.375-50.639-2.028-3.41 12.368-16.246 16.365-14.003" fill="#E55B2E"></path><path d="M352.815 237.023c-2.389-31.746-22.044-173.204-107.452-144.108-38.4 13.083-54.586 106.926-57.796 116.45-.155.46-.314.921-.473 1.375-7.71 21.878-27.597 37.01-50.648 39.529-3.493.384-6.955.821-10.35 1.422-33.8 5.976-43.125 14.484-48.523 20.939-15.194 18.182-21.038 43.38-18.219 66.409 5.607 45.852 55.892 56.328 75.833 60.8 19.551 4.381 39.648 5.249 59.597 6.101 39.958 1.705 118.908.023 147.32-73.735 12.733-33.052 13.263-61.284 10.711-95.182" fill="#FFDCA9"></path><path d="M70.131 323.112c6.015.45 11.916 3.655 16.478 7.28 6.624 5.258 11.881 12.057 18.42 17.424 6.534 5.363 15.122 9.313 23.342 7.307 6.744-1.65 12.01-6.985 18.543-9.325 15.236-5.468 33.87 6.19 47.652-2.286 6.298-3.873 9.745-11.137 11.372-18.347 1.623-7.21 1.774-14.684 3.293-21.918 3.711-17.664 14.796-26.365 26.332-38.697 11.504-12.298 14.61-28.342 14.843-44.687.268-18.848-1.864-37.689-.955-56.513.904-18.825 5.183-38.178 16.726-53.08 5.972-7.702 14.222-13.904 23.3-17.404 49.57 21.743 62.7 118.312 64.627 143.881 2.554 33.954 2.026 62.231-10.74 95.34-28.495 73.88-107.654 75.56-147.719 73.852-20.007-.853-40.154-1.723-59.757-6.108-19.992-4.482-70.416-14.975-76.038-60.902-.33-2.693-2.05-10.563-.62-12.891 1.004-1.638 4.945-2.557 7.275-2.848a18.277 18.277 0 0 1 3.626-.078" fill="#F7BA61"></path><path d="M181.459 54.766c-1.042 5.29 1.175 10.176 4.948 10.92 3.777.742 7.684-2.949 8.725-8.24 1.042-5.29-1.175-10.18-4.948-10.919-3.777-.738-7.684 2.945-8.725 8.239m-66.029 52.742a3.063 3.063 0 0 1 .1-1.027c.653-2.308 3.387-2.158 5.351-1.802 2.516.459 4.865 1.483 7.176 2.495 2.951 1.296 6.335 3.002 9.29 4.293 0 0-3.363.437-3.92 1.222-.552.789-1.135 1.655-2.08 1.967-.475.154-.992.15-1.498.12-3.39-.183-6.51-1.13-9.617-2.45-1.292-.547-2.579-1.182-3.536-2.165-.704-.73-1.2-1.684-1.268-2.653" fill="#FDBDB4"></path></g></g></svg>