<svg viewBox="0 0 900 900" xmlns="http://www.w3.org/2000/svg"><path d="m145.9 471.2c-27.6.2-50.9-16.2-59.5-41.9-.3-1-.6-1.9-.9-2.9-9.4-32.8 8.8-67.2 41.4-78.2l523.1-175.2c6.2-1.8 12.6-2.7 19.1-2.8 28.3-.2 52.3 16.6 61.1 42.8l.8 2.5c9.8 34.2-14.5 64.7-43.7 74.5 0 0-5.3 1.8-520.2 177.6-6.8 2.3-14 3.5-21.2 3.6z" fill="#70cadb"/><path d="m233.1 728.5c-27.8.2-51.2-16-59.7-41.3-.3-1-.6-1.9-.9-2.9-9.5-33.2 8.7-68 41.4-79l523.1-176.8c6.8-2.3 13.7-3.4 20.8-3.5 27.9-.2 52.3 16.8 61 42.4l.8 2.7c5.1 17.7 2.1 37.5-8 53.2-7.5 11.7-31.1 21.9-31.1 21.9l-525.2 179.5c-7.1 2.4-14.6 3.7-22.2 3.8z" fill="#e01765"/><path d="m668.6 729.6c-27.8.3-52.6-17.4-61.5-43.8l-174.6-518.6-.9-2.9c-9.5-33.1 8.7-67.6 41.3-78.6 6.5-2.2 13.3-3.3 20.1-3.4 10.1-.1 19.8 2.2 29 6.7 15.3 7.6 26.9 20.9 32.4 37.1l174.6 518.7.5 1.7c9.8 34.3-8.3 68.9-41 79.8-6.4 2.1-13.1 3.2-19.9 3.3z" fill="#e8a723"/><path d="m409.1 817c-27.8.3-52.7-17.4-61.5-43.8l-174.6-518.6c-11.4-33.6 6.7-70 40.3-81.4h.1c6.5-2.2 13.2-3.3 20-3.4 27.8-.3 52.7 17.4 61.5 43.8l174.6 518.6c11.4 33.6-6.7 70-40.3 81.4-.1 0-.1 0-.2.1-6.4 2.1-13.2 3.2-19.9 3.3z" fill="#3eb890"/><path d="m582.5 612.8 121.7-41.6-39.7-118.2-121.9 41.2z" fill="#cc2027"/><path d="m323.4 701.4 121.7-41.6-40.1-119.1-121.9 41.2z" fill="#361238"/><path d="m495.8 355.4 121.7-41.6-39.2-116.8-122 40.9z" fill="#65863a"/><path d="m236.7 443.9 121.7-41.6-39.8-118.3-122 40.9z" fill="#1a937d"/></svg>