<svg xmlns="http://www.w3.org/2000/svg" viewBox="0 0 800 608" id="allocations">
  <g fill="none" fill-rule="evenodd">
    <g transform="translate(512 77)">
      <g>
        <path fill="#7C7C7C" d="M196,364.019306 L196,394.212368 C196,395.879884 194.979626,397.231674 193.72093,397.231674 L2.27906963,397.231674 C1.02037423,397.231674 1.54145729e-16,395.879884 0,394.212368 L0,364.019306 C-1.54145729e-16,362.351789 1.02037423,361 2.27906963,361 L193.72093,361 C194.979626,361 196,362.351789 196,364.019306 Z"/>
        <g transform="translate(8.38 371.073)">
          <polygon fill="#D8D8D8" points="31 0 142.01 0 142.01 4.314 31 4.314"/>
          <polygon fill="#D7D7D7" points="8 0 12.301 0 12.301 4.301 8 4.301"/>
          <polygon fill="#D7D7D7" points="0 0 4.301 0 4.301 4.301 0 4.301"/>
          <polygon fill="#00CD00" points="167 0 171.301 0 171.301 4.301 167 4.301"/>
          <polygon fill="#D7D400" points="160 0 164.301 0 164.301 4.301 160 4.301"/>
          <polygon fill="#FF3C00" points="153 0 157.301 0 157.301 4.301 153 4.301"/>
          <polygon fill="#00CD00" points="174 0 178.301 0 178.301 4.301 174 4.301"/>
        </g>
        <g transform="translate(8.38 378.621)">
          <polygon fill="#D8D8D8" points="31 0 142.01 0 142.01 4.314 31 4.314"/>
          <polygon fill="#D7D7D7" points="8 0 12.301 0 12.301 4.301 8 4.301"/>
          <polygon fill="#D7D7D7" points="0 0 4.301 0 4.301 4.301 0 4.301"/>
          <polygon fill="#00CD00" points="167 0 171.301 0 171.301 4.301 167 4.301"/>
          <polygon fill="#D7D400" points="160 0 164.301 0 164.301 4.301 160 4.301"/>
          <polygon fill="#FF3C00" points="153 0 157.301 0 157.301 4.301 153 4.301"/>
          <polygon fill="#00CD00" points="174 0 178.301 0 178.301 4.301 174 4.301"/>
        </g>
        <g transform="translate(8.38 386.17)">
          <polygon fill="#D8D8D8" points="31 0 142.01 0 142.01 4.314 31 4.314"/>
          <polygon fill="#D7D7D7" points="8 0 12.301 0 12.301 4.301 8 4.301"/>
          <polygon fill="#D7D7D7" points="0 0 4.301 0 4.301 4.301 0 4.301"/>
          <polygon fill="#00CD00" points="167 0 171.301 0 171.301 4.301 167 4.301"/>
          <polygon fill="#D7D400" points="160 0 164.301 0 164.301 4.301 160 4.301"/>
          <polygon fill="#FF3C00" points="153 0 157.301 0 157.301 4.301 153 4.301"/>
          <polygon fill="#00CD00" points="174 0 178.301 0 178.301 4.301 174 4.301"/>
        </g>
        <path fill="#7C7C7C" d="M196,3.22559985 L196,354.170863 C196,355.952313 194.979626,357.396463 193.72093,357.396463 L2.27906963,357.396463 C1.02037423,357.396463 1.54145729e-16,355.952313 0,354.170863 L0,3.22559985 C-1.54145729e-16,1.44415024 1.02037423,3.27246984e-16 2.27906963,0 L193.72093,0 C194.979626,1.70774491e-14 196,1.44415024 196,3.22559985 Z"/>
        <polygon fill="#D7D7D7" points="9 344 186.814 344 186.814 348.301 9 348.301"/>
        <polygon fill="#D7D7D7" points="8 23 185.82 23 185.82 27.301 8 27.301"/>
        <polygon fill="#D7D7D7" points="8 15 185.82 15 185.82 19.301 8 19.301"/>
        <polygon fill="#D7D7D7" points="8 7 185.82 7 185.82 11.301 8 11.301"/>
        <path fill="#FFF" d="M8.88029467,36 L184.93924,36 C185.425414,36 185.819535,36.5793677 185.819535,37.294054 L185.819535,334.926469 C185.819535,335.641155 185.425414,336.220523 184.93924,336.220523 L8.88029467,336.220523 C8.39412135,336.220523 8,335.641155 8,334.926469 L8,37.294054 C8,36.5793677 8.39412135,36 8.88029467,36 Z"/>
      </g>
      <g id="allocations-animejs-app1" transform="translate(20 47)">
        <g>
          <path fill="#00C176" d="M155.231996,131.223855 C155.231996,132.052078 154.745952,132.723357 154.146147,132.723357 L1.08584878,132.723357 C0.486044752,132.723357 0,132.052078 0,131.223855 L4.4408921e-16,3.88079991 C1.81609852e-16,1.7374933 1.7374933,4.83461113e-15 3.88079991,4.4408921e-15 L151.351196,4.4408921e-16 C153.494503,-1.51787392e-14 155.231996,1.7374933 155.231996,3.88079991 L155.231996,131.223855 Z"/>
          <text fill="#FFF" font-size="26.389" font-weight="bold" class="sans-serif">
            <tspan x="50.486" y="84.54">APP</tspan>
          </text>
          <path fill="#CCC" d="M3.88079991,0 L151.351196,0 C153.494503,-3.93719036e-16 155.231996,1.7374933 155.231996,3.88079991 L155.231996,17.8516796 L0,17.8516796 L0,3.88079991 C-2.62479357e-16,1.7374933 1.7374933,-9.38548593e-16 3.88079991,-1.33226763e-15 Z"/>
          <path fill="#E74C3C" d="M13.1947197,9.70199977 C13.1947197,11.6311916 11.6311916,13.1947197 9.70199977,13.1947197 C7.7728079,13.1947197 6.20927985,11.6311916 6.20927985,9.70199977 C6.20927985,7.7728079 7.7728079,6.20927985 9.70199977,6.20927985 C11.6311916,6.20927985 13.1947197,7.7728079 13.1947197,9.70199977"/>
          <path fill="#F1C40F" d="M25.6132794,9.70199977 C25.6132794,11.6311916 24.0497513,13.1947197 22.1205595,13.1947197 C20.1913676,13.1947197 18.6278396,11.6311916 18.6278396,9.70199977 C18.6278396,7.7728079 20.1913676,6.20927985 22.1205595,6.20927985 C24.0497513,6.20927985 25.6132794,7.7728079 25.6132794,9.70199977"/>
          <path fill="#2ECC71" d="M37.2556791,9.70199977 C37.2556791,11.6311916 35.6921511,13.1947197 33.7629592,13.1947197 C31.8337673,13.1947197 30.2702393,11.6311916 30.2702393,9.70199977 C30.2702393,7.7728079 31.8337673,6.20927985 33.7629592,6.20927985 C35.6921511,6.20927985 37.2556791,7.7728079 37.2556791,9.70199977"/>
        </g>
      </g>
      <g id="allocations-animejs-app2" transform="translate(20 190)">
        <g>
          <path fill="#00C176" d="M155.231996,131.223855 C155.231996,132.052078 154.745952,132.723357 154.146147,132.723357 L1.08584878,132.723357 C0.486044752,132.723357 0,132.052078 0,131.223855 L4.4408921e-16,3.88079991 C1.81609852e-16,1.7374933 1.7374933,4.83461113e-15 3.88079991,4.4408921e-15 L151.351196,4.4408921e-16 C153.494503,-1.51787392e-14 155.231996,1.7374933 155.231996,3.88079991 L155.231996,131.223855 Z"/>
          <text fill="#FFF" font-size="26.389" font-weight="bold" class="sans-serif">
            <tspan x="50.486" y="84.54">APP</tspan>
          </text>
          <path fill="#CCC" d="M3.88079991,0 L151.351196,0 C153.494503,-3.93719036e-16 155.231996,1.7374933 155.231996,3.88079991 L155.231996,17.8516796 L0,17.8516796 L0,3.88079991 C-2.62479357e-16,1.7374933 1.7374933,-9.38548593e-16 3.88079991,-1.33226763e-15 Z"/>
          <path fill="#E74C3C" d="M13.1947197,9.70199977 C13.1947197,11.6311916 11.6311916,13.1947197 9.70199977,13.1947197 C7.7728079,13.1947197 6.20927985,11.6311916 6.20927985,9.70199977 C6.20927985,7.7728079 7.7728079,6.20927985 9.70199977,6.20927985 C11.6311916,6.20927985 13.1947197,7.7728079 13.1947197,9.70199977"/>
          <path fill="#F1C40F" d="M25.6132794,9.70199977 C25.6132794,11.6311916 24.0497513,13.1947197 22.1205595,13.1947197 C20.1913676,13.1947197 18.6278396,11.6311916 18.6278396,9.70199977 C18.6278396,7.7728079 20.1913676,6.20927985 22.1205595,6.20927985 C24.0497513,6.20927985 25.6132794,7.7728079 25.6132794,9.70199977"/>
          <path fill="#2ECC71" d="M37.2556791,9.70199977 C37.2556791,11.6311916 35.6921511,13.1947197 33.7629592,13.1947197 C31.8337673,13.1947197 30.2702393,11.6311916 30.2702393,9.70199977 C30.2702393,7.7728079 31.8337673,6.20927985 33.7629592,6.20927985 C35.6921511,6.20927985 37.2556791,7.7728079 37.2556791,9.70199977"/>
        </g>
      </g>
    </g>
    <g transform="translate(302 77)">
      <g>
        <path fill="#7C7C7C" d="M196,364.019306 L196,394.212368 C196,395.879884 194.979626,397.231674 193.72093,397.231674 L2.27906963,397.231674 C1.02037423,397.231674 1.54145729e-16,395.879884 0,394.212368 L0,364.019306 C-1.54145729e-16,362.351789 1.02037423,361 2.27906963,361 L193.72093,361 C194.979626,361 196,362.351789 196,364.019306 Z"/>
        <g transform="translate(8.38 371.073)">
          <polygon fill="#D8D8D8" points="31 0 142.01 0 142.01 4.314 31 4.314"/>
          <polygon fill="#D7D7D7" points="8 0 12.301 0 12.301 4.301 8 4.301"/>
          <polygon fill="#D7D7D7" points="0 0 4.301 0 4.301 4.301 0 4.301"/>
          <polygon fill="#00CD00" points="167 0 171.301 0 171.301 4.301 167 4.301"/>
          <polygon fill="#D7D400" points="160 0 164.301 0 164.301 4.301 160 4.301"/>
          <polygon fill="#FF3C00" points="153 0 157.301 0 157.301 4.301 153 4.301"/>
          <polygon fill="#00CD00" points="174 0 178.301 0 178.301 4.301 174 4.301"/>
        </g>
        <g transform="translate(8.38 378.621)">
          <polygon fill="#D8D8D8" points="31 0 142.01 0 142.01 4.314 31 4.314"/>
          <polygon fill="#D7D7D7" points="8 0 12.301 0 12.301 4.301 8 4.301"/>
          <polygon fill="#D7D7D7" points="0 0 4.301 0 4.301 4.301 0 4.301"/>
          <polygon fill="#00CD00" points="167 0 171.301 0 171.301 4.301 167 4.301"/>
          <polygon fill="#D7D400" points="160 0 164.301 0 164.301 4.301 160 4.301"/>
          <polygon fill="#FF3C00" points="153 0 157.301 0 157.301 4.301 153 4.301"/>
          <polygon fill="#00CD00" points="174 0 178.301 0 178.301 4.301 174 4.301"/>
        </g>
        <g transform="translate(8.38 386.17)">
          <polygon fill="#D8D8D8" points="31 0 142.01 0 142.01 4.314 31 4.314"/>
          <polygon fill="#D7D7D7" points="8 0 12.301 0 12.301 4.301 8 4.301"/>
          <polygon fill="#D7D7D7" points="0 0 4.301 0 4.301 4.301 0 4.301"/>
          <polygon fill="#00CD00" points="167 0 171.301 0 171.301 4.301 167 4.301"/>
          <polygon fill="#D7D400" points="160 0 164.301 0 164.301 4.301 160 4.301"/>
          <polygon fill="#FF3C00" points="153 0 157.301 0 157.301 4.301 153 4.301"/>
          <polygon fill="#00CD00" points="174 0 178.301 0 178.301 4.301 174 4.301"/>
        </g>
        <path fill="#7C7C7C" d="M196,3.22559985 L196,354.170863 C196,355.952313 194.979626,357.396463 193.72093,357.396463 L2.27906963,357.396463 C1.02037423,357.396463 1.54145729e-16,355.952313 0,354.170863 L0,3.22559985 C-1.54145729e-16,1.44415024 1.02037423,3.27246984e-16 2.27906963,0 L193.72093,0 C194.979626,1.70774491e-14 196,1.44415024 196,3.22559985 Z"/>
        <polygon fill="#D7D7D7" points="9 344 186.814 344 186.814 348.301 9 348.301"/>
        <polygon fill="#D7D7D7" points="8 23 185.82 23 185.82 27.301 8 27.301"/>
        <polygon fill="#D7D7D7" points="8 15 185.82 15 185.82 19.301 8 19.301"/>
        <polygon fill="#D7D7D7" points="8 7 185.82 7 185.82 11.301 8 11.301"/>
        <path fill="#FFF" d="M8.88029467,36 L184.93924,36 C185.425414,36 185.819535,36.5793677 185.819535,37.294054 L185.819535,334.926469 C185.819535,335.641155 185.425414,336.220523 184.93924,336.220523 L8.88029467,336.220523 C8.39412135,336.220523 8,335.641155 8,334.926469 L8,37.294054 C8,36.5793677 8.39412135,36 8.88029467,36 Z"/>
      </g>
      <g transform="translate(20 47)">
        <path fill="#EC3344" d="M155.231996,131.223855 C155.231996,132.052078 154.745952,132.723357 154.146147,132.723357 L1.08584878,132.723357 C0.486044752,132.723357 0,132.052078 0,131.223855 L4.4408921e-16,3.88079991 C1.81609852e-16,1.7374933 1.7374933,4.83461113e-15 3.88079991,4.4408921e-15 L151.351196,4.4408921e-16 C153.494503,-1.51787392e-14 155.231996,1.7374933 155.231996,3.88079991 L155.231996,131.223855 Z"/>
        <text fill="#FFF" font-size="26.389" font-weight="bold" class="sans-serif">
          <tspan x="50.486" y="84.54">APP</tspan>
        </text>
        <path fill="#CCC" d="M3.88079991,0 L151.351196,0 C153.494503,-3.93719036e-16 155.231996,1.7374933 155.231996,3.88079991 L155.231996,17.8516796 L0,17.8516796 L0,3.88079991 C-2.62479357e-16,1.7374933 1.7374933,-9.38548593e-16 3.88079991,-1.33226763e-15 Z"/>
        <path fill="#E74C3C" d="M13.1947197,9.70199977 C13.1947197,11.6311916 11.6311916,13.1947197 9.70199977,13.1947197 C7.7728079,13.1947197 6.20927985,11.6311916 6.20927985,9.70199977 C6.20927985,7.7728079 7.7728079,6.20927985 9.70199977,6.20927985 C11.6311916,6.20927985 13.1947197,7.7728079 13.1947197,9.70199977"/>
        <path fill="#F1C40F" d="M25.6132794,9.70199977 C25.6132794,11.6311916 24.0497513,13.1947197 22.1205595,13.1947197 C20.1913676,13.1947197 18.6278396,11.6311916 18.6278396,9.70199977 C18.6278396,7.7728079 20.1913676,6.20927985 22.1205595,6.20927985 C24.0497513,6.20927985 25.6132794,7.7728079 25.6132794,9.70199977"/>
        <path fill="#2ECC71" d="M37.2556791,9.70199977 C37.2556791,11.6311916 35.6921511,13.1947197 33.7629592,13.1947197 C31.8337673,13.1947197 30.2702393,11.6311916 30.2702393,9.70199977 C30.2702393,7.7728079 31.8337673,6.20927985 33.7629592,6.20927985 C35.6921511,6.20927985 37.2556791,7.7728079 37.2556791,9.70199977"/>
      </g>
    </g>
    <g transform="translate(92 77)">
      <g>
        <path fill="#7C7C7C" d="M196,364.019306 L196,394.212368 C196,395.879884 194.979626,397.231674 193.72093,397.231674 L2.27906963,397.231674 C1.02037423,397.231674 1.54145729e-16,395.879884 0,394.212368 L0,364.019306 C-1.54145729e-16,362.351789 1.02037423,361 2.27906963,361 L193.72093,361 C194.979626,361 196,362.351789 196,364.019306 Z"/>
        <g transform="translate(8.38 371.073)">
          <polygon fill="#D8D8D8" points="31 0 142.01 0 142.01 4.314 31 4.314"/>
          <polygon fill="#D7D7D7" points="8 0 12.301 0 12.301 4.301 8 4.301"/>
          <polygon fill="#D7D7D7" points="0 0 4.301 0 4.301 4.301 0 4.301"/>
          <polygon fill="#00CD00" points="167 0 171.301 0 171.301 4.301 167 4.301"/>
          <polygon fill="#D7D400" points="160 0 164.301 0 164.301 4.301 160 4.301"/>
          <polygon fill="#FF3C00" points="153 0 157.301 0 157.301 4.301 153 4.301"/>
          <polygon fill="#00CD00" points="174 0 178.301 0 178.301 4.301 174 4.301"/>
        </g>
        <g transform="translate(8.38 378.621)">
          <polygon fill="#D8D8D8" points="31 0 142.01 0 142.01 4.314 31 4.314"/>
          <polygon fill="#D7D7D7" points="8 0 12.301 0 12.301 4.301 8 4.301"/>
          <polygon fill="#D7D7D7" points="0 0 4.301 0 4.301 4.301 0 4.301"/>
          <polygon fill="#00CD00" points="167 0 171.301 0 171.301 4.301 167 4.301"/>
          <polygon fill="#D7D400" points="160 0 164.301 0 164.301 4.301 160 4.301"/>
          <polygon fill="#FF3C00" points="153 0 157.301 0 157.301 4.301 153 4.301"/>
          <polygon fill="#00CD00" points="174 0 178.301 0 178.301 4.301 174 4.301"/>
        </g>
        <g transform="translate(8.38 386.17)">
          <polygon fill="#D8D8D8" points="31 0 142.01 0 142.01 4.314 31 4.314"/>
          <polygon fill="#D7D7D7" points="8 0 12.301 0 12.301 4.301 8 4.301"/>
          <polygon fill="#D7D7D7" points="0 0 4.301 0 4.301 4.301 0 4.301"/>
          <polygon fill="#00CD00" points="167 0 171.301 0 171.301 4.301 167 4.301"/>
          <polygon fill="#D7D400" points="160 0 164.301 0 164.301 4.301 160 4.301"/>
          <polygon fill="#FF3C00" points="153 0 157.301 0 157.301 4.301 153 4.301"/>
          <polygon fill="#00CD00" points="174 0 178.301 0 178.301 4.301 174 4.301"/>
        </g>
        <path fill="#7C7C7C" d="M196,3.22559985 L196,354.170863 C196,355.952313 194.979626,357.396463 193.72093,357.396463 L2.27906963,357.396463 C1.02037423,357.396463 1.54145729e-16,355.952313 0,354.170863 L0,3.22559985 C-1.54145729e-16,1.44415024 1.02037423,3.27246984e-16 2.27906963,0 L193.72093,0 C194.979626,1.70774491e-14 196,1.44415024 196,3.22559985 Z"/>
        <polygon fill="#D7D7D7" points="9 344 186.814 344 186.814 348.301 9 348.301"/>
        <polygon fill="#D7D7D7" points="8 23 185.82 23 185.82 27.301 8 27.301"/>
        <polygon fill="#D7D7D7" points="8 15 185.82 15 185.82 19.301 8 19.301"/>
        <polygon fill="#D7D7D7" points="8 7 185.82 7 185.82 11.301 8 11.301"/>
        <path fill="#FFF" d="M8.88029467,36 L184.93924,36 C185.425414,36 185.819535,36.5793677 185.819535,37.294054 L185.819535,334.926469 C185.819535,335.641155 185.425414,336.220523 184.93924,336.220523 L8.88029467,336.220523 C8.39412135,336.220523 8,335.641155 8,334.926469 L8,37.294054 C8,36.5793677 8.39412135,36 8.88029467,36 Z"/>
      </g>
      <g id="allocations-animejs-app3" transform="translate(20 190)">
        <g>
          <path fill="#00C176" d="M155.231996,131.223855 C155.231996,132.052078 154.745952,132.723357 154.146147,132.723357 L1.08584878,132.723357 C0.486044752,132.723357 0,132.052078 0,131.223855 L4.4408921e-16,3.88079991 C1.81609852e-16,1.7374933 1.7374933,4.83461113e-15 3.88079991,4.4408921e-15 L151.351196,4.4408921e-16 C153.494503,-1.51787392e-14 155.231996,1.7374933 155.231996,3.88079991 L155.231996,131.223855 Z"/>
          <text fill="#FFF" font-size="26.389" font-weight="bold" class="sans-serif">
            <tspan x="50.486" y="84.54">APP</tspan>
          </text>
          <path fill="#CCC" d="M3.88079991,0 L151.351196,0 C153.494503,-3.93719036e-16 155.231996,1.7374933 155.231996,3.88079991 L155.231996,17.8516796 L0,17.8516796 L0,3.88079991 C-2.62479357e-16,1.7374933 1.7374933,-9.38548593e-16 3.88079991,-1.33226763e-15 Z"/>
          <path fill="#E74C3C" d="M13.1947197,9.70199977 C13.1947197,11.6311916 11.6311916,13.1947197 9.70199977,13.1947197 C7.7728079,13.1947197 6.20927985,11.6311916 6.20927985,9.70199977 C6.20927985,7.7728079 7.7728079,6.20927985 9.70199977,6.20927985 C11.6311916,6.20927985 13.1947197,7.7728079 13.1947197,9.70199977"/>
          <path fill="#F1C40F" d="M25.6132794,9.70199977 C25.6132794,11.6311916 24.0497513,13.1947197 22.1205595,13.1947197 C20.1913676,13.1947197 18.6278396,11.6311916 18.6278396,9.70199977 C18.6278396,7.7728079 20.1913676,6.20927985 22.1205595,6.20927985 C24.0497513,6.20927985 25.6132794,7.7728079 25.6132794,9.70199977"/>
          <path fill="#2ECC71" d="M37.2556791,9.70199977 C37.2556791,11.6311916 35.6921511,13.1947197 33.7629592,13.1947197 C31.8337673,13.1947197 30.2702393,11.6311916 30.2702393,9.70199977 C30.2702393,7.7728079 31.8337673,6.20927985 33.7629592,6.20927985 C35.6921511,6.20927985 37.2556791,7.7728079 37.2556791,9.70199977"/>
        </g>
      </g>
      <g transform="translate(20 47)">
        <path fill="#EC3344" d="M155.231996,131.223855 C155.231996,132.052078 154.745952,132.723357 154.146147,132.723357 L1.08584878,132.723357 C0.486044752,132.723357 0,132.052078 0,131.223855 L4.4408921e-16,3.88079991 C1.81609852e-16,1.7374933 1.7374933,4.83461113e-15 3.88079991,4.4408921e-15 L151.351196,4.4408921e-16 C153.494503,-1.51787392e-14 155.231996,1.7374933 155.231996,3.88079991 L155.231996,131.223855 Z"/>
        <text fill="#FFF" font-size="26.389" font-weight="bold" class="sans-serif">
          <tspan x="50.486" y="84.54">APP</tspan>
        </text>
        <path fill="#CCC" d="M3.88079991,0 L151.351196,0 C153.494503,-3.93719036e-16 155.231996,1.7374933 155.231996,3.88079991 L155.231996,17.8516796 L0,17.8516796 L0,3.88079991 C-2.62479357e-16,1.7374933 1.7374933,-9.38548593e-16 3.88079991,-1.33226763e-15 Z"/>
        <path fill="#E74C3C" d="M13.1947197,9.70199977 C13.1947197,11.6311916 11.6311916,13.1947197 9.70199977,13.1947197 C7.7728079,13.1947197 6.20927985,11.6311916 6.20927985,9.70199977 C6.20927985,7.7728079 7.7728079,6.20927985 9.70199977,6.20927985 C11.6311916,6.20927985 13.1947197,7.7728079 13.1947197,9.70199977"/>
        <path fill="#F1C40F" d="M25.6132794,9.70199977 C25.6132794,11.6311916 24.0497513,13.1947197 22.1205595,13.1947197 C20.1913676,13.1947197 18.6278396,11.6311916 18.6278396,9.70199977 C18.6278396,7.7728079 20.1913676,6.20927985 22.1205595,6.20927985 C24.0497513,6.20927985 25.6132794,7.7728079 25.6132794,9.70199977"/>
        <path fill="#2ECC71" d="M37.2556791,9.70199977 C37.2556791,11.6311916 35.6921511,13.1947197 33.7629592,13.1947197 C31.8337673,13.1947197 30.2702393,11.6311916 30.2702393,9.70199977 C30.2702393,7.7728079 31.8337673,6.20927985 33.7629592,6.20927985 C35.6921511,6.20927985 37.2556791,7.7728079 37.2556791,9.70199977"/>
      </g>
    </g>
  </g>
</svg>
