<svg xmlns="http://www.w3.org/2000/svg" viewBox="0 0 800 780" id="k8s">
  <defs>
    <linearGradient id="linearGradient-1" x1="50%" x2="50%" y1="0%" y2="100%">
      <stop offset="0%" stop-color="#E8E8E8"/>
      <stop offset="100%" stop-color="#B7B3B3"/>
    </linearGradient>
    <linearGradient x1="50%" x2="50%" y1="0%" y2="100%">
      <stop offset="0%" stop-color="#BBB7B7"/>
      <stop offset="100%" stop-color="#888"/>
    </linearGradient>
  </defs>
  <g fill="none" fill-rule="evenodd">
    <g id="k8s-animejs-k8s" fill-rule="nonzero" transform="translate(338 99)">
      <path fill="#326CE5" d="M67.5137286,0.0117203812 C66.3117084,0.0727598226 65.1339837,0.373188117 64.0496461,0.895380572 L16.7797314,23.6633424 C14.3013695,24.8564681 12.5012533,27.1129595 11.8889064,29.7941159 L0.227099842,80.9367112 C-0.31695066,83.3173305 0.125730558,85.8167503 1.45434024,87.865826 C1.61379744,88.1137668 1.78529216,88.3537592 1.96820937,88.5849425 L34.6865593,129.59287 C36.4021247,131.742381 39.0032487,132.993978 41.7537713,132.993438 L94.2228324,132.981249 C96.9723262,132.983269 99.5732668,131.734004 101.290044,129.586775 L133.996303,88.5727541 C135.712787,86.4221651 136.355898,83.6069207 135.743458,80.9245228 L124.063515,29.7819275 C123.451168,27.1007711 121.651052,24.8442797 119.17269,23.651154 L71.89673,0.895380572 C70.5327966,0.238503883 69.0256905,-0.0653448868 67.5137286,0.0117203812 Z"/>
      <path fill="#FFF" d="M67.982118,17.4162174 C66.4195767,17.4163773 65.1526293,18.8351265 65.152815,20.5852057 C65.1528169,20.612065 65.1582705,20.6377309 65.1588509,20.6644304 C65.1565487,20.9022234 65.1451541,21.1887 65.152815,21.3957354 C65.1900786,22.4051312 65.4083518,23.1776799 65.5397282,24.107658 C65.777734,26.0981064 65.9771665,27.7480669 65.8540952,29.2816408 C65.7344056,29.8599373 65.3118596,30.388819 64.9351763,30.7564392 L64.8686756,31.9630924 C63.1707417,32.1049012 61.46145,32.3645769 59.7541664,32.7553395 C52.4077269,34.436791 46.0825719,38.2514513 41.2669686,43.4019212 C40.9544936,43.1870287 40.407822,42.791693 40.2452662,42.6706162 C39.7401181,42.7393823 39.2295784,42.8964998 38.5646119,42.5060726 C37.2984557,41.6469101 36.1452686,40.4609675 34.7498893,39.0323739 C34.110519,38.3490055 33.6475116,37.6982767 32.8878693,37.0395678 C32.7153602,36.8899779 32.4520928,36.6876541 32.2591353,36.5337485 C31.6652468,36.0564365 30.9647752,35.80751 30.2882961,35.7841609 C29.4185364,35.7541404 28.5812465,36.0969352 28.0333174,36.7897053 C27.0592227,38.021297 27.3710922,39.9037092 28.7285521,40.994709 C28.7423262,41.0057663 28.7569941,41.0143625 28.7708708,41.02518 C28.9574055,41.1776074 29.1858275,41.3729165 29.3572861,41.5005282 C30.1633947,42.1005006 30.8997544,42.4076292 31.7029476,42.8839135 C33.3951126,43.9373457 34.7979381,44.8108261 35.9106289,45.8639813 C36.3451364,46.3308796 36.4210797,47.1535977 36.4789078,47.5094175 L37.3857356,48.3260414 C32.5312476,55.6905128 30.2845508,64.7871238 31.6122745,74.0557885 L30.4273527,74.4031584 C30.1150557,74.8096879 29.6737599,75.4493613 29.2121937,75.6402826 C27.7564075,76.1025083 26.1180021,76.2722452 24.1400031,76.4812834 C23.2113513,76.5591235 22.4100792,76.512671 21.4255649,76.7006749 C21.208878,76.7420531 20.9069619,76.8213441 20.669875,76.8774069 C20.6616338,76.879162 20.6539342,76.8816192 20.645693,76.8834914 C20.6327701,76.8865141 20.6157923,76.8928326 20.6033743,76.8956798 C18.9357512,77.3018544 17.8644659,78.8469965 18.2093487,80.3693785 C18.5543128,81.8921173 20.1832136,82.8181327 21.8608423,82.4535977 C21.8729527,82.450809 21.8905379,82.4503409 21.903161,82.4475132 C21.9221004,82.4431449 21.9387744,82.4338817 21.9575706,82.4292403 C22.1914307,82.3774912 22.4845019,82.3199151 22.6890784,82.2646967 C23.6570077,82.0034492 24.3580171,81.619596 25.2281965,81.2835292 C27.1002646,80.6066782 28.6507787,80.0412429 30.1613402,79.8209192 C30.792237,79.7711086 31.4569404,80.2133199 31.7875848,80.399869 L33.0208708,80.1865717 C35.8589141,89.0563885 41.8065404,96.2255566 49.3377271,100.724053 L48.823858,101.967272 C49.0090772,102.450015 49.2133654,103.103174 49.0753941,103.579911 C48.5262327,105.015452 47.5855905,106.530672 46.5144696,108.219929 C45.9958415,109.000363 45.4650584,109.606018 44.9970443,110.499163 C44.8850523,110.712878 44.7424206,111.041172 44.6343132,111.267034 C43.9071407,112.835412 44.4405393,114.641801 45.8373715,115.319682 C47.2429789,116.00182 48.9877099,115.282368 49.7427769,113.710811 C49.7439376,113.708588 49.7477487,113.70695 49.7488127,113.704727 C49.7495866,113.702971 49.7480389,113.700339 49.7488127,113.698642 C49.8563611,113.475828 50.0087275,113.182951 50.0994528,112.973431 C50.5003201,112.047693 50.6337046,111.254365 50.9155979,110.359016 C51.6642015,108.463446 52.0755,106.474513 53.1060259,105.235179 C53.3882172,104.895809 53.8482822,104.765292 54.3252708,104.636555 L54.9660958,103.466467 C61.5316728,106.006884 68.8807839,106.688589 76.2221413,105.008301 C77.8968894,104.624986 79.5136973,104.128892 81.0766932,103.533503 C81.2567975,103.855536 81.5915064,104.474585 81.6812452,104.63046 C82.1659681,104.789432 82.6950429,104.871526 83.1261243,105.514121 C83.8971243,106.841971 84.4243922,108.41285 85.0667359,110.310262 C85.3486757,111.205596 85.4880109,111.998959 85.8889265,112.924678 C85.9803038,113.135674 86.131908,113.432664 86.2395666,113.655983 C86.9930453,115.232645 88.7433054,115.954556 90.1510176,115.270948 C91.5476776,114.592706 92.0816643,112.786481 91.3540759,111.218299 C91.2459549,110.992445 91.0973009,110.664138 90.9852992,110.450429 C90.5172387,109.557309 89.9865408,108.957693 89.4678739,108.17729 C88.396664,106.488088 87.5082203,105.084806 86.9589834,103.649293 C86.7293291,102.908906 86.9977289,102.448443 87.1766221,101.967291 C87.0694897,101.843502 86.8402378,101.144312 86.7050716,100.815486 C94.5318233,96.1569445 100.304793,88.7204251 103.015882,80.1317433 C103.38198,80.1897446 104.018286,80.3032314 104.224986,80.3450406 C104.650502,80.0621329 105.041748,79.6930052 105.808912,79.7539024 C107.319483,79.9741461 108.869953,80.5397589 110.742056,81.2165124 C111.612253,81.5525344 112.313233,81.9425773 113.281174,82.2037741 C113.485752,82.2589808 113.778818,82.3104862 114.012682,82.3622235 C114.031486,82.3668649 114.048142,82.3761476 114.067092,82.3804964 C114.079724,82.3833436 114.0973,82.3837922 114.10941,82.3865809 C115.787136,82.7506635 117.416327,81.8251902 117.760904,80.3023617 C118.1054,78.77989 117.03461,77.234389 115.366878,76.828663 C115.124297,76.7730585 114.780269,76.6786226 114.544688,76.6336483 C113.560164,76.4456971 112.758905,76.4920482 111.830249,76.4142568 C109.852241,76.205322 108.213868,76.0354038 106.758059,75.5732561 C106.164484,75.341134 105.742212,74.6291433 105.536854,74.3361318 L104.394251,74.0009504 C104.986666,69.6805136 104.826927,65.1840762 103.80179,60.6851054 C102.767109,56.1442456 100.938561,51.991188 98.4998699,48.3321454 C98.7929664,48.0635537 99.3464728,47.5694606 99.5034261,47.4241084 C99.5493063,46.9123567 99.5098876,46.3758012 100.035432,45.8091432 C101.148067,44.7559295 102.551004,43.8825972 104.243113,42.8290754 C105.046281,42.3527482 105.788743,42.0457054 106.59482,41.4456901 C106.777105,41.3100067 107.026016,41.0951337 107.217509,40.9398708 C108.57468,39.8485044 108.887151,37.9662054 107.912743,36.7348672 C106.938335,35.503529 105.050143,35.387544 103.692971,36.4789104 C103.499793,36.6331378 103.237665,36.8343285 103.064237,36.9847297 C102.30463,37.6434814 101.835507,38.2941342 101.196171,38.9775358 C99.8008676,40.4062035 98.6475605,41.598098 97.3814489,42.4573287 C96.832804,42.7793096 96.0291949,42.6679016 95.6645117,42.6462491 L94.5884093,43.4202136 C88.4521977,36.9339147 80.0976074,32.7869494 71.1016059,31.981375 C71.0764449,31.601346 71.0434819,30.9144166 71.0351052,30.7076855 C70.6668199,30.352437 70.2219258,30.0491483 70.1101408,29.2816408 C69.9870695,27.7480669 70.1925475,26.0981064 70.4305533,24.107658 C70.5619297,23.1776799 70.7802029,22.4051312 70.8174665,21.3957354 C70.8259399,21.1662752 70.8123399,20.8333111 70.8114307,20.5852057 C70.8112449,18.8351265 69.544669,17.4160575 67.9821277,17.4162174 L67.982118,17.4162174 Z M64.4394437,39.5381932 L63.5991166,54.4994744 L63.5386614,54.5299454 C63.4822997,55.8683993 62.3895368,56.9371576 61.0479075,56.9371576 C60.498334,56.9371576 59.9910656,56.7592477 59.5788463,56.4557152 L59.5546642,56.4679036 L47.3850341,47.7714685 C51.1252565,44.0640155 55.9092955,41.3242077 61.4227297,40.0622951 C62.4298629,39.8317819 63.4365472,39.6607404 64.4394437,39.5381932 Z M71.5308378,39.5381932 C77.9678106,40.3362556 83.9207686,43.274444 88.4824736,47.7775627 L76.3914352,56.4191499 L76.3491166,56.4008771 C75.2759257,57.191016 73.7638726,56.9949678 72.9273527,55.9377172 C72.5846791,55.5045975 72.4048806,54.9953303 72.383256,54.4812015 L72.3711649,54.475117 L71.5308378,39.5381932 Z M42.971805,53.3598574 L54.0834693,63.3787357 L54.0713783,63.4396778 C55.074329,64.318603 55.2222285,65.8438069 54.3857453,66.9011881 C54.0430949,67.3343254 53.5844325,67.6248368 53.0920042,67.7604714 L53.0799132,67.8092251 L38.8366699,71.9532867 C38.1117338,65.2710761 39.6740565,58.7754361 42.971805,53.3598574 Z M92.9138392,53.3659419 C94.5648173,56.0634939 95.815021,59.0763885 96.5592873,62.3427106 C97.2946275,65.5698678 97.4791715,68.7912546 97.1759302,71.9045233 L82.8601408,67.7482733 L82.8480497,67.6873312 C81.5661095,67.3341518 80.7782709,66.0196399 81.0767126,64.7011691 C81.198983,64.1610526 81.483401,63.7041294 81.8686756,63.3665376 L81.8626398,63.3360665 L92.9138489,53.3659419 L92.9138392,53.3659419 Z M65.7029573,64.1526904 L70.2552332,64.1526904 L73.0845362,67.7178022 L72.068889,72.1665742 L67.982118,74.1471919 L63.883256,72.16048 L62.8676087,67.711708 L65.7029573,64.1526904 Z M80.2968406,76.3532952 C80.4902914,76.343447 80.6828988,76.3610178 80.8711649,76.3959547 L80.895347,76.3654837 L95.6282773,78.8762974 C93.4721066,84.9828111 89.3461974,90.2729894 83.8334693,93.8132018 L78.1144082,79.887936 L78.1325351,79.8635592 C77.6071823,78.6330186 78.132922,77.189994 79.3416389,76.6031578 C79.6511018,76.4529165 79.9744142,76.3697233 80.2968309,76.3532952 L80.2968406,76.3532952 Z M55.5525305,76.4142373 C56.6768501,76.430131 57.6853162,77.2167714 57.9465561,78.3704782 C58.0688575,78.9105869 58.0093328,79.4457403 57.8075092,79.9184071 L57.8498278,79.9732549 L52.1912218,93.7583539 C46.9007328,90.3361196 42.6868396,85.2120255 40.432687,78.9250609 L55.0386614,76.4264355 L55.0628435,76.4569065 C55.2262195,76.4265993 55.3919132,76.4119752 55.5525305,76.4142471 L55.5525305,76.4142373 Z M67.8914352,82.4536074 C68.2830784,82.4390983 68.680477,82.5201035 69.0582204,82.70347 C69.5533746,82.9438314 69.9358808,83.3222885 70.1766415,83.7760506 L70.2310511,83.7760506 L77.4312645,96.8907867 C76.496813,97.2065603 75.5361461,97.4764313 74.5535974,97.7013164 C69.0469458,98.9616766 63.5577904,98.5797931 58.5873812,96.872504 L65.769458,83.7821448 L65.781549,83.7821448 C66.2125065,82.9700238 67.029822,82.4855177 67.8914352,82.4536074 Z"/>
    </g>
    <g fill-rule="nonzero" transform="rotate(180 238 167)">
      <g id="k8s-animejs-wifi-3" fill="#F8E71C">
        <path d="M67.8405848,0.0133962275 C94.1681871,0.36973585 116.175556,9.29698113 134.419532,27.2559623 C138.199064,30.977434 139.062573,35.4490943 136.644211,38.5329057 C134.177427,41.6783396 129.27614,42.0293208 124.853684,39.2723774 C123.590129,38.4622036 122.411362,37.5278275 121.335088,36.483283 C92.2690058,8.88169811 47.6893567,7.98415094 17.4019883,34.4416981 C14.4698246,37.0030566 11.2659649,38.7526038 7.2497076,38.4793208 C4.44128655,38.2890943 2.18163743,37.0887925 0.917309942,34.484566 C-0.379298246,31.8053208 0.395438596,29.3645283 2.08748538,27.1541509 C2.85010228,26.2046086 3.70028209,25.3282455 4.62690058,24.5365283 C22.814386,8.28422642 44.2433918,0.417962265 67.8405848,0.0133962275 Z"/>
      </g>
      <g id="k8s-animejs-wifi-2" fill="#FFF67F" transform="translate(20 30)">
        <path d="M49.7128655,0.503207547 C67.8492398,0.867584906 82.8490058,7.70769811 96.1890058,18.6497358 C97.8622222,20.0215094 99.048538,21.8835849 99.8421053,23.9144528 C100.850877,26.4918868 101.017661,29.0853962 99.0700585,31.3198868 C97.0740351,33.605283 94.402807,33.9857358 91.5836257,33.3561132 C88.5546199,32.6809434 86.2223392,30.8161887 83.9546199,28.8013962 C65.8693567,12.6776981 39.0467836,11.5631321 19.9312281,26.1221509 C18.2176608,27.4269434 16.6466667,28.9166038 15.0218713,30.3339245 C12.5281871,32.5067925 9.7251462,33.8624906 6.31684211,33.5918868 C1.87824561,33.2409057 -0.698830409,29.508717 0.519766082,25.2647925 C1.15769696,23.0942633 2.39339618,21.14514 4.08678363,19.6383774 C17.1470175,7.6889434 32.3189474,0.757735849 49.7128655,0.503207547 Z"/>
      </g>
      <g id="k8s-animejs-wifi-1" fill="#FFF9AC" transform="translate(38 62)">
        <path d="M35.0969591,0.271018868 C44.488837,0.440510178 53.419411,4.35744937 59.885848,11.1433962 C62.1697076,13.5198868 63.7460819,16.1991321 62.8449123,19.7169811 C61.7043275,24.1993585 56.2919298,26.2998868 52.5231579,22.8222264 C40.7945029,11.9980755 24.4792982,11.9176981 12.0431579,22.2033208 C8.57298246,25.0727925 6.34561404,25.308566 3.57216374,23.0955094 C0.79871345,20.8824528 0.12619883,17.1368679 1.97157895,13.7181509 C2.96690058,11.8748302 4.42222222,10.4226792 6.03625731,9.10984906 C13.1595322,3.33339623 22.3460819,0.252264151 35.0969591,0.271018868 Z"/>
      </g>
    </g>
    <g fill-rule="nonzero" transform="translate(552.76 356.2)">
      <rect width="182.84" height="282.4" x="1.2" y="1.2" fill="url(#linearGradient-1)" stroke="url(#linearGradient-2)" stroke-width="2.4"/>
      <rect width="32.001" height="31.971" x="143.721" y="244.8" fill="#1B4996" rx="7.022"/>
      <rect width="32.001" height="31.971" x="110.186" y="244.8" fill="#1B4996" rx="7.022"/>
      <rect width="32.001" height="31.971" x="76.651" y="244.8" fill="#1B4996" rx="7.022"/>
      <rect width="32.001" height="31.971" x="43.116" y="244.8" fill="#1B4996" rx="7.022"/>
      <rect width="32.001" height="31.971" x="9.581" y="244.8" fill="#1B4996" rx="7.022"/>
      <rect width="32.001" height="31.971" x="143.721" y="211.2" fill="#1B4996" rx="7.022"/>
      <rect width="32.001" height="31.971" x="110.186" y="211.2" fill="#1B4996" rx="7.022"/>
      <rect width="32.001" height="31.971" x="76.651" y="211.2" fill="#1B4996" rx="7.022"/>
      <rect width="32.001" height="31.971" x="43.116" y="211.2" fill="#1B4996" rx="7.022"/>
      <rect width="32.001" height="31.971" x="9.581" y="211.2" fill="#1B4996" rx="7.022"/>
      <rect width="32.001" height="31.971" x="143.721" y="177.6" fill="#1B4996" rx="7.022"/>
      <rect width="32.001" height="31.971" x="110.186" y="177.6" fill="#1B4996" rx="7.022"/>
      <rect width="32.001" height="31.971" x="76.651" y="177.6" fill="#1B4996" rx="7.022"/>
      <rect width="32.001" height="31.971" x="43.116" y="177.6" fill="#1B4996" rx="7.022"/>
      <rect width="32.001" height="31.971" x="9.581" y="177.6" fill="#1B4996" rx="7.022"/>
      <rect width="32.001" height="31.971" x="143.721" y="144" fill="#1B4996" rx="7.022"/>
      <rect width="32.001" height="31.971" x="110.186" y="144" fill="#1B4996" rx="7.022"/>
      <rect width="32.001" height="31.971" x="76.651" y="144" fill="#1B4996" rx="7.022"/>
      <rect width="32.001" height="31.971" x="43.116" y="144" fill="#1B4996" rx="7.022"/>
      <rect width="32.001" height="31.971" x="9.581" y="144" fill="#1B4996" rx="7.022"/>
      <rect width="32.001" height="31.971" x="143.721" y="110.4" fill="#1B4996" rx="7.022"/>
      <rect width="32.001" height="31.971" x="110.186" y="110.4" fill="#1B4996" rx="7.022"/>
      <rect width="32.001" height="31.971" x="76.651" y="110.4" fill="#1B4996" rx="7.022"/>
      <rect width="32.001" height="31.971" x="43.116" y="110.4" fill="#1B4996" rx="7.022"/>
      <rect width="32.001" height="31.971" x="9.581" y="110.4" fill="#1B4996" rx="7.022"/>
      <rect width="32.001" height="31.971" x="143.721" y="76.8" fill="#1B4996" rx="7.022"/>
      <rect width="32.001" height="31.971" x="110.186" y="76.8" fill="#1B4996" rx="7.022"/>
      <rect width="32.001" height="31.971" x="76.651" y="76.8" fill="#1B4996" rx="7.022"/>
      <rect width="32.001" height="31.971" x="43.116" y="76.8" fill="#1B4996" rx="7.022"/>
      <rect width="32.001" height="31.971" x="9.581" y="76.8" fill="#1B4996" rx="7.022"/>
      <rect width="32.001" height="31.971" x="143.721" y="43.2" fill="#1B4996" rx="7.022"/>
      <rect width="32.001" height="31.971" x="110.186" y="43.2" fill="#1B4996" rx="7.022"/>
      <rect width="32.001" height="31.971" x="76.651" y="43.2" fill="#1B4996" rx="7.022"/>
      <rect width="32.001" height="31.971" x="43.116" y="43.2" fill="#1B4996" rx="7.022"/>
      <rect width="32.001" height="31.971" x="9.581" y="43.2" fill="#1B4996" rx="7.022"/>
      <rect width="32.001" height="31.971" x="143.721" y="8" fill="#1B4996" rx="7.022"/>
      <rect width="32.001" height="31.971" x="110.186" y="8" fill="#1B4996" rx="7.022"/>
      <rect width="32.001" height="31.971" x="76.651" y="8" fill="#1B4996" rx="7.022"/>
      <rect width="32.001" height="31.971" x="43.116" y="8" fill="#1B4996" rx="7.022"/>
      <rect width="32.001" height="31.971" x="9.581" y="8" fill="#1B4996" rx="7.022"/>
      <rect width="1" height="268.443" x="167.674" y="8" fill="#C3BFBF"/>
      <rect width="1" height="268.443" x="153.302" y="8" fill="#C3BFBF"/>
      <rect width="1" height="268.443" x="134.14" y="8" fill="#C3BFBF"/>
      <rect width="1" height="268.443" x="119.767" y="8" fill="#C3BFBF"/>
      <rect width="1" height="268.443" x="99.008" y="8" fill="#C3BFBF"/>
      <rect width="1" height="268.443" x="84.636" y="8" fill="#C3BFBF"/>
      <rect width="1" height="268.443" x="65.473" y="8" fill="#C3BFBF"/>
      <rect width="1" height="268.443" x="51.101" y="8" fill="#C3BFBF"/>
      <rect width="1" height="268.443" x="31.938" y="8" fill="#C3BFBF"/>
      <rect width="1" height="268.443" x="17.566" y="8" fill="#C3BFBF"/>
    </g>
    <g fill-rule="nonzero" transform="translate(313.76 356.2)">
      <rect width="182.84" height="282.4" x="1.2" y="1.2" fill="url(#linearGradient-1)" stroke="url(#linearGradient-2)" stroke-width="2.4"/>
      <rect width="32.001" height="31.971" x="143.721" y="244.8" fill="#1B4996" rx="7.022"/>
      <rect width="32.001" height="31.971" x="110.186" y="244.8" fill="#1B4996" rx="7.022"/>
      <rect width="32.001" height="31.971" x="76.651" y="244.8" fill="#1B4996" rx="7.022"/>
      <rect width="32.001" height="31.971" x="43.116" y="244.8" fill="#1B4996" rx="7.022"/>
      <rect width="32.001" height="31.971" x="9.581" y="244.8" fill="#1B4996" rx="7.022"/>
      <rect width="32.001" height="31.971" x="143.721" y="211.2" fill="#1B4996" rx="7.022"/>
      <rect width="32.001" height="31.971" x="110.186" y="211.2" fill="#1B4996" rx="7.022"/>
      <rect width="32.001" height="31.971" x="76.651" y="211.2" fill="#1B4996" rx="7.022"/>
      <rect width="32.001" height="31.971" x="43.116" y="211.2" fill="#1B4996" rx="7.022"/>
      <rect width="32.001" height="31.971" x="9.581" y="211.2" fill="#1B4996" rx="7.022"/>
      <rect width="32.001" height="31.971" x="143.721" y="177.6" fill="#1B4996" rx="7.022"/>
      <rect width="32.001" height="31.971" x="110.186" y="177.6" fill="#1B4996" rx="7.022"/>
      <rect width="32.001" height="31.971" x="76.651" y="177.6" fill="#1B4996" rx="7.022"/>
      <rect width="32.001" height="31.971" x="43.116" y="177.6" fill="#1B4996" rx="7.022"/>
      <rect width="32.001" height="31.971" x="9.581" y="177.6" fill="#1B4996" rx="7.022"/>
      <rect width="32.001" height="31.971" x="143.721" y="144" fill="#1B4996" rx="7.022"/>
      <rect width="32.001" height="31.971" x="110.186" y="144" fill="#1B4996" rx="7.022"/>
      <rect width="32.001" height="31.971" x="76.651" y="144" fill="#1B4996" rx="7.022"/>
      <rect width="32.001" height="31.971" x="43.116" y="144" fill="#1B4996" rx="7.022"/>
      <rect width="32.001" height="31.971" x="9.581" y="144" fill="#1B4996" rx="7.022"/>
      <rect width="32.001" height="31.971" x="143.721" y="110.4" fill="#1B4996" rx="7.022"/>
      <rect width="32.001" height="31.971" x="110.186" y="110.4" fill="#1B4996" rx="7.022"/>
      <rect width="32.001" height="31.971" x="76.651" y="110.4" fill="#1B4996" rx="7.022"/>
      <rect width="32.001" height="31.971" x="43.116" y="110.4" fill="#1B4996" rx="7.022"/>
      <rect width="32.001" height="31.971" x="9.581" y="110.4" fill="#1B4996" rx="7.022"/>
      <rect width="32.001" height="31.971" x="143.721" y="76.8" fill="#1B4996" rx="7.022"/>
      <rect width="32.001" height="31.971" x="110.186" y="76.8" fill="#1B4996" rx="7.022"/>
      <rect width="32.001" height="31.971" x="76.651" y="76.8" fill="#1B4996" rx="7.022"/>
      <rect width="32.001" height="31.971" x="43.116" y="76.8" fill="#1B4996" rx="7.022"/>
      <rect width="32.001" height="31.971" x="9.581" y="76.8" fill="#1B4996" rx="7.022"/>
      <rect width="32.001" height="31.971" x="143.721" y="43.2" fill="#1B4996" rx="7.022"/>
      <rect width="32.001" height="31.971" x="110.186" y="43.2" fill="#1B4996" rx="7.022"/>
      <rect width="32.001" height="31.971" x="76.651" y="43.2" fill="#1B4996" rx="7.022"/>
      <rect width="32.001" height="31.971" x="43.116" y="43.2" fill="#1B4996" rx="7.022"/>
      <rect width="32.001" height="31.971" x="9.581" y="43.2" fill="#1B4996" rx="7.022"/>
      <rect width="32.001" height="31.971" x="143.721" y="8" fill="#1B4996" rx="7.022"/>
      <rect width="32.001" height="31.971" x="110.186" y="8" fill="#1B4996" rx="7.022"/>
      <rect width="32.001" height="31.971" x="76.651" y="8" fill="#1B4996" rx="7.022"/>
      <rect width="32.001" height="31.971" x="43.116" y="8" fill="#1B4996" rx="7.022"/>
      <rect width="32.001" height="31.971" x="9.581" y="8" fill="#1B4996" rx="7.022"/>
      <rect width="1" height="268.443" x="167.674" y="8" fill="#C3BFBF"/>
      <rect width="1" height="268.443" x="153.302" y="8" fill="#C3BFBF"/>
      <rect width="1" height="268.443" x="134.14" y="8" fill="#C3BFBF"/>
      <rect width="1" height="268.443" x="119.767" y="8" fill="#C3BFBF"/>
      <rect width="1" height="268.443" x="99.008" y="8" fill="#C3BFBF"/>
      <rect width="1" height="268.443" x="84.636" y="8" fill="#C3BFBF"/>
      <rect width="1" height="268.443" x="65.473" y="8" fill="#C3BFBF"/>
      <rect width="1" height="268.443" x="51.101" y="8" fill="#C3BFBF"/>
      <rect width="1" height="268.443" x="31.938" y="8" fill="#C3BFBF"/>
      <rect width="1" height="268.443" x="17.566" y="8" fill="#C3BFBF"/>
    </g>
    <g fill-rule="nonzero" transform="translate(75.76 356.2)">
      <rect width="182.84" height="282.4" x="1.2" y="1.2" fill="url(#linearGradient-1)" stroke="url(#linearGradient-2)" stroke-width="2.4"/>
      <rect width="32.001" height="31.971" x="143.721" y="244.8" fill="#1B4996" rx="7.022"/>
      <rect width="32.001" height="31.971" x="110.186" y="244.8" fill="#1B4996" rx="7.022"/>
      <rect width="32.001" height="31.971" x="76.651" y="244.8" fill="#1B4996" rx="7.022"/>
      <rect width="32.001" height="31.971" x="43.116" y="244.8" fill="#1B4996" rx="7.022"/>
      <rect width="32.001" height="31.971" x="9.581" y="244.8" fill="#1B4996" rx="7.022"/>
      <rect width="32.001" height="31.971" x="143.721" y="211.2" fill="#1B4996" rx="7.022"/>
      <rect width="32.001" height="31.971" x="110.186" y="211.2" fill="#1B4996" rx="7.022"/>
      <rect width="32.001" height="31.971" x="76.651" y="211.2" fill="#1B4996" rx="7.022"/>
      <rect width="32.001" height="31.971" x="43.116" y="211.2" fill="#1B4996" rx="7.022"/>
      <rect width="32.001" height="31.971" x="9.581" y="211.2" fill="#1B4996" rx="7.022"/>
      <rect width="32.001" height="31.971" x="143.721" y="177.6" fill="#1B4996" rx="7.022"/>
      <rect width="32.001" height="31.971" x="110.186" y="177.6" fill="#1B4996" rx="7.022"/>
      <rect width="32.001" height="31.971" x="76.651" y="177.6" fill="#1B4996" rx="7.022"/>
      <rect width="32.001" height="31.971" x="43.116" y="177.6" fill="#1B4996" rx="7.022"/>
      <rect width="32.001" height="31.971" x="9.581" y="177.6" fill="#1B4996" rx="7.022"/>
      <rect width="32.001" height="31.971" x="143.721" y="144" fill="#1B4996" rx="7.022"/>
      <rect width="32.001" height="31.971" x="110.186" y="144" fill="#1B4996" rx="7.022"/>
      <rect width="32.001" height="31.971" x="76.651" y="144" fill="#1B4996" rx="7.022"/>
      <rect width="32.001" height="31.971" x="43.116" y="144" fill="#1B4996" rx="7.022"/>
      <rect width="32.001" height="31.971" x="9.581" y="144" fill="#1B4996" rx="7.022"/>
      <rect width="32.001" height="31.971" x="143.721" y="110.4" fill="#1B4996" rx="7.022"/>
      <rect width="32.001" height="31.971" x="110.186" y="110.4" fill="#1B4996" rx="7.022"/>
      <rect width="32.001" height="31.971" x="76.651" y="110.4" fill="#1B4996" rx="7.022"/>
      <rect width="32.001" height="31.971" x="43.116" y="110.4" fill="#1B4996" rx="7.022"/>
      <rect width="32.001" height="31.971" x="9.581" y="110.4" fill="#1B4996" rx="7.022"/>
      <rect width="32.001" height="31.971" x="143.721" y="76.8" fill="#1B4996" rx="7.022"/>
      <rect width="32.001" height="31.971" x="110.186" y="76.8" fill="#1B4996" rx="7.022"/>
      <rect width="32.001" height="31.971" x="76.651" y="76.8" fill="#1B4996" rx="7.022"/>
      <rect width="32.001" height="31.971" x="43.116" y="76.8" fill="#1B4996" rx="7.022"/>
      <rect width="32.001" height="31.971" x="9.581" y="76.8" fill="#1B4996" rx="7.022"/>
      <rect width="32.001" height="31.971" x="143.721" y="43.2" fill="#1B4996" rx="7.022"/>
      <rect width="32.001" height="31.971" x="110.186" y="43.2" fill="#1B4996" rx="7.022"/>
      <rect width="32.001" height="31.971" x="76.651" y="43.2" fill="#1B4996" rx="7.022"/>
      <rect width="32.001" height="31.971" x="43.116" y="43.2" fill="#1B4996" rx="7.022"/>
      <rect width="32.001" height="31.971" x="9.581" y="43.2" fill="#1B4996" rx="7.022"/>
      <rect width="32.001" height="31.971" x="143.721" y="8" fill="#1B4996" rx="7.022"/>
      <rect width="32.001" height="31.971" x="110.186" y="8" fill="#1B4996" rx="7.022"/>
      <rect width="32.001" height="31.971" x="76.651" y="8" fill="#1B4996" rx="7.022"/>
      <rect width="32.001" height="31.971" x="43.116" y="8" fill="#1B4996" rx="7.022"/>
      <rect width="32.001" height="31.971" x="9.581" y="8" fill="#1B4996" rx="7.022"/>
      <rect width="1" height="268.443" x="167.674" y="8" fill="#C3BFBF"/>
      <rect width="1" height="268.443" x="153.302" y="8" fill="#C3BFBF"/>
      <rect width="1" height="268.443" x="134.14" y="8" fill="#C3BFBF"/>
      <rect width="1" height="268.443" x="119.767" y="8" fill="#C3BFBF"/>
      <rect width="1" height="268.443" x="99.008" y="8" fill="#C3BFBF"/>
      <rect width="1" height="268.443" x="84.636" y="8" fill="#C3BFBF"/>
      <rect width="1" height="268.443" x="65.473" y="8" fill="#C3BFBF"/>
      <rect width="1" height="268.443" x="51.101" y="8" fill="#C3BFBF"/>
      <rect width="1" height="268.443" x="31.938" y="8" fill="#C3BFBF"/>
      <rect width="1" height="268.443" x="17.566" y="8" fill="#C3BFBF"/>
    </g>
    <g id="k8s-animejs-k8s1" fill-rule="nonzero" transform="translate(55 337)">
      <path fill="#326CE5" d="M20.6112363,0.00352492669 C20.2442721,0.0218826534 19.8847251,0.112237028 19.5536881,0.26928739 L5.12267678,7.11679472 C4.36605878,7.4756295 3.8165021,8.15427353 3.62955897,8.96063636 L0.0693312103,24.341868 C-0.0967617268,25.0578438 0.0383842265,25.809549 0.443994889,26.4258123 C0.492675507,26.500381 0.545031054,26.5725592 0.600873769,26.642088 L10.5894443,38.9752991 C11.1131885,39.6217688 11.9072846,39.9981889 12.7469904,39.9980264 L28.7652468,39.9943607 C29.6046386,39.9949682 30.3986786,39.6192492 30.9227928,38.9734663 L40.9076722,26.6384223 C41.4316966,25.9916286 41.6280319,25.1449385 41.4410603,24.3382023 L37.8752957,8.95697067 C37.6883525,8.15060784 37.1387959,7.47196381 36.3821779,7.11312903 L21.9493209,0.26928739 C21.5329263,0.0717304911 21.0728225,-0.0196525975 20.6112363,0.00352492669 Z"/>
      <path fill="#FFF" d="M20.7542307,5.23796012 C20.2772032,5.23800821 19.8904174,5.66469971 19.8904741,6.1910393 C19.8904747,6.1991173 19.8921396,6.20683636 19.8923168,6.21486628 C19.8916139,6.28638299 19.8881353,6.37254135 19.8904741,6.43480762 C19.9018503,6.73838534 19.9684868,6.97073079 20.0085946,7.25042346 C20.0812553,7.84905455 20.14214,8.34528328 20.1045676,8.8065085 C20.0680276,8.98043226 19.9390287,9.13949443 19.8240313,9.25005689 L19.8037293,9.61296012 C19.2853678,9.65560938 18.7635389,9.73370733 18.242323,9.85122991 C15.9995318,10.3569296 14.068528,11.5041959 12.5983746,13.0532094 C12.5029792,12.9885801 12.3360861,12.8696821 12.2864595,12.833268 C12.1322431,12.8539496 11.9763806,12.9012029 11.7733733,12.7837812 C11.3868291,12.5253865 11.0347731,12.168712 10.6087783,11.7390598 C10.4135853,11.5335355 10.2722339,11.3378276 10.0403231,11.1397196 C9.98765785,11.0947302 9.90728507,11.0338809 9.84837716,10.9875935 C9.66706918,10.8440411 9.45322252,10.769176 9.24670052,10.7621537 C8.98117197,10.7531249 8.72555611,10.8562211 8.55827908,11.064573 C8.26089814,11.4349765 8.35610864,12.0011155 8.77052697,12.3292358 C8.77473207,12.3325613 8.77921002,12.3351466 8.78344641,12.3384 C8.84039352,12.3842428 8.91012836,12.4429824 8.9624729,12.4813619 C9.20856942,12.6618047 9.43337236,12.7541742 9.67857884,12.8974176 C10.1951792,13.2142393 10.6234471,13.4769402 10.96314,13.7936786 C11.0957906,13.9340991 11.1189753,14.1815331 11.1366296,14.2885466 L11.4134747,14.5341478 C9.93145018,16.7490264 9.24555711,19.4848493 9.65089729,22.2724176 L9.28915305,22.3768897 C9.19381203,22.4991543 9.05908903,22.6915372 8.91817768,22.7489572 C8.47374137,22.8879724 7.97355332,22.9390211 7.36969086,23.0018897 C7.08618318,23.0253003 6.84156316,23.0113296 6.54100124,23.0678721 C6.474849,23.0803167 6.38267716,23.1041636 6.31029701,23.1210246 C6.30778104,23.1215525 6.30543044,23.1222915 6.30291447,23.1228545 C6.29896924,23.1237636 6.29378611,23.1256639 6.28999503,23.1265202 C5.78088711,23.248678 5.45383488,23.7133824 5.55912402,24.1712416 C5.66443795,24.6292082 6.16172436,24.9077091 6.67388688,24.7980745 C6.67758406,24.7972358 6.68295264,24.797095 6.68680632,24.7962446 C6.69258832,24.7949308 6.69767873,24.7921449 6.70341702,24.790749 C6.77481205,24.7751853 6.86428365,24.7578692 6.92673872,24.7412622 C7.22223741,24.6626915 7.43624825,24.5472469 7.70190495,24.4461742 C8.27342778,24.24261 8.74678356,24.0725543 9.2079422,24.0062915 C9.40054842,23.9913109 9.60347542,24.1243067 9.70441772,24.1804117 L10.080927,24.1162622 C10.947352,26.7838762 12.7631002,28.940017 15.0622929,30.2929484 L14.905414,30.6668487 C14.9619595,30.8120346 15.0243266,31.0084733 14.9822054,31.1518528 C14.8145521,31.5835947 14.5273839,32.0392997 14.2003819,32.5473472 C14.0420501,32.7820639 13.8800076,32.9642158 13.7371278,33.2328311 C13.7029378,33.2971062 13.6593938,33.3958411 13.6263897,33.4637695 C13.4043916,33.9354622 13.5672326,34.4787372 13.9936709,34.6826111 C14.4227881,34.8877654 14.9554363,34.6713889 15.1859504,34.1987402 C15.1863047,34.1980716 15.1874682,34.1975789 15.187793,34.1969103 C15.1880293,34.1963824 15.1875568,34.1955906 15.187793,34.1950804 C15.2206264,34.1280686 15.2671423,34.0399853 15.2948398,33.9769718 C15.4172204,33.6985543 15.4579413,33.4599595 15.5440004,33.1906815 C15.7725412,32.6205853 15.8981063,32.02241 16.2127152,31.649678 C16.2988652,31.5476117 16.4393183,31.5083584 16.5849379,31.4696405 L16.7805751,31.1177343 C18.7849772,31.8817695 21.0285841,32.0867935 23.2698238,31.581444 C23.7811069,31.4661613 24.2747015,31.3169601 24.7518678,31.1378956 C24.8068518,31.2347478 24.9090349,31.4209279 24.9364312,31.4678076 C25.0844121,31.5156188 25.2459331,31.5403085 25.3775377,31.7335701 C25.612916,32.1329238 25.7738854,32.6053683 25.9699862,33.1760188 C26.0560595,33.4452921 26.098597,33.6838974 26.2209924,33.9623091 C26.2488889,34.0257666 26.2951721,34.1150868 26.3280392,34.1822504 C26.5580683,34.6564346 27.0924044,34.8735507 27.5221643,34.6679543 C27.94855,34.4639718 28.1115706,33.920746 27.8894454,33.4491126 C27.8564372,33.3811865 27.8110547,33.2824475 27.7768618,33.2181742 C27.6339678,32.9495666 27.4719512,32.7692311 27.3136076,32.5345232 C26.9865785,32.0264927 26.7153459,31.6044528 26.5476696,31.1727196 C26.4775585,30.9500469 26.5594982,30.8115619 26.6141124,30.6668545 C26.581406,30.6296246 26.5114178,30.4193419 26.470153,30.3204469 C28.8595785,28.9193818 30.6220059,26.6828346 31.4496732,24.0997724 C31.5614389,24.1172164 31.7556964,24.1513478 31.8188,24.163922 C31.9487054,24.078837 32.0681489,23.9678211 32.302356,23.9861361 C32.7635176,24.0523748 33.2368598,24.2224839 33.8083933,24.4260188 C34.0740553,24.527078 34.2880573,24.6443842 34.5835595,24.7229396 C34.6460152,24.7395431 34.735485,24.7550334 34.8068812,24.7705935 C34.8126219,24.7719894 34.817707,24.7747812 34.8234919,24.7760891 C34.8273486,24.7769455 34.8327142,24.7770804 34.8364114,24.7779191 C35.3486034,24.8874176 35.8459784,24.6090798 35.9511742,24.1510862 C36.0563452,23.6932 35.7294442,23.2283877 35.2203032,23.1063648 C35.1462457,23.0896416 35.0412177,23.0612399 34.969297,23.0477138 C34.6687321,22.9911871 34.4241162,23.0051273 34.1406074,22.9817314 C33.536742,22.9188938 33.036564,22.8677906 32.5921206,22.7287988 C32.4109082,22.6589877 32.2819932,22.4448551 32.2192996,22.3567314 L31.8704748,22.2559249 C32.0513327,20.9565455 32.002566,19.6042334 31.6896026,18.2511595 C31.3737252,16.8854874 30.8154886,15.6364475 30.0709817,14.5359836 C30.160461,14.4552041 30.3294407,14.3066047 30.3773569,14.2628897 C30.3913637,14.1089795 30.3793296,13.9476094 30.5397727,13.7771859 C30.8794485,13.4604299 31.3077507,13.1977736 31.8243339,12.8809249 C32.0695327,12.7376686 32.2961984,12.6453249 32.5422855,12.4648692 C32.597935,12.4240622 32.673925,12.3594387 32.7323858,12.3127431 C33.1467161,11.9845126 33.2421103,11.4184076 32.9446337,11.0480804 C32.6471571,10.6777531 32.0707116,10.6428704 31.6563812,10.9711009 C31.597406,11.017485 31.5173811,11.0779935 31.4644353,11.123227 C31.2325351,11.3213478 31.0893169,11.5170328 30.8941344,11.7225672 C30.4681627,12.1522416 30.1160701,12.5107062 29.7295394,12.7691214 C29.5620439,12.8659578 29.3167104,12.8324516 29.2053765,12.8259396 L28.8768536,13.0587109 C27.0035323,11.1079443 24.4529631,9.86073666 21.7065778,9.61845865 C21.6988964,9.50416422 21.6888332,9.29756891 21.6862758,9.23539413 C21.5738422,9.12855249 21.4380207,9.03733783 21.4038939,8.8065085 C21.3663215,8.34528328 21.4290518,7.84905455 21.5017125,7.25042346 C21.5418203,6.97073079 21.6084568,6.73838534 21.619833,6.43480762 C21.6224199,6.36579707 21.6182679,6.26565748 21.6179903,6.1910393 C21.6179336,5.66469971 21.2312612,5.23791202 20.7542337,5.23796012 L20.7542307,5.23796012 Z M19.6726893,11.8911859 L19.4161462,16.3908194 L19.3976898,16.3999836 C19.3804832,16.8025261 19.0468741,17.1239572 18.6372887,17.1239572 C18.4695096,17.1239572 18.3146459,17.0704504 18.1887996,16.9791625 L18.1814171,16.9828282 L14.4661561,14.3673589 C15.608007,13.2523355 17.0685241,12.4283331 18.751718,12.0488106 C19.0591852,11.9794833 19.3665154,11.9280422 19.6726893,11.8911859 Z M21.8376178,11.8911859 C23.8027584,12.1312047 25.6201343,13.0148704 27.0127752,14.3691918 L23.3215075,16.9681654 L23.308588,16.9626698 C22.9809541,17.2003056 22.5193401,17.1413437 22.2639592,16.8233736 C22.1593446,16.693112 22.104454,16.539949 22.0978522,16.3853238 L22.0941609,16.3834938 L21.8376178,11.8911859 Z M13.1188434,16.0480774 L16.5111184,19.0612739 L16.5074272,19.0796023 C16.8136175,19.3439408 16.8587697,19.8026487 16.6034001,20.1206581 C16.4987926,20.2509249 16.3587677,20.3382968 16.2084345,20.3790891 L16.2047432,20.3937519 L11.8564298,21.6400862 C11.6351144,19.6303988 12.1120752,17.6768229 13.1188434,16.0480774 Z M28.3656249,16.0499073 C28.8696512,16.8612012 29.2513254,17.7673349 29.4785421,18.7496874 C29.7030338,19.720261 29.7593732,20.6890991 29.6667968,21.6254205 L25.2963357,20.3754205 L25.2926445,20.3570921 C24.9012815,20.2508727 24.6607626,19.8555308 24.7518737,19.4589982 C24.7892016,19.2965572 24.8760314,19.1591367 24.9936518,19.0576053 L24.9918091,19.0484411 L28.3656278,16.0499073 L28.3656249,16.0499073 Z M20.0584268,19.2940422 L21.4481891,19.2940422 L22.3119457,20.3662563 L22.0018792,21.7042328 L20.7542307,22.2999073 L19.502891,21.7024 L19.1928245,20.3644235 L20.0584268,19.2940422 Z M24.513787,22.9633971 C24.5728455,22.9604352 24.6316465,22.9657196 24.6891222,22.976227 L24.6965047,22.9670628 L29.1943145,23.7221947 C28.5360581,25.5587402 27.2764611,27.1497713 25.5934828,28.2144968 L23.8475131,24.0264469 L23.8530471,24.0191155 C23.6926624,23.6490282 23.8531652,23.2150358 24.2221738,23.0385437 C24.3166496,22.9933584 24.4153535,22.9683378 24.513784,22.9633971 L24.513787,22.9633971 Z M16.9596075,22.9817255 C17.3028505,22.9865056 17.6107247,23.2230891 17.6904785,23.5700686 C17.7278158,23.7325073 17.7096435,23.8934557 17.6480289,24.0356111 L17.6609483,24.0521067 L15.933435,28.1980012 C14.318304,27.1687578 13.0318464,25.6276768 12.3436771,23.7368604 L16.8027286,22.9853941 L16.8101111,22.9945584 C16.8599881,22.9854434 16.9105727,22.9810452 16.9596075,22.9817284 L16.9596075,22.9817255 Z M20.7265462,24.7980774 C20.8461108,24.7937138 20.9674325,24.8180762 21.0827536,24.873224 C21.233919,24.9455132 21.3506941,25.0593349 21.4241958,25.1958047 L21.4408065,25.1958047 L23.6389565,29.1400862 C23.3536782,29.2350557 23.0603966,29.3162199 22.7604348,29.3838545 C21.0793115,29.7629103 19.4035297,29.6480581 17.8861157,29.1345877 L20.0787287,25.1976375 L20.08242,25.1976375 C20.2139868,24.9533906 20.4635047,24.8076745 20.7265462,24.7980774 Z"/>
    </g>
    <g id="k8s-animejs-k8s2" fill-rule="nonzero" transform="translate(293 337)">
      <path fill="#326CE5" d="M20.6112363,0.00352492669 C20.2442721,0.0218826534 19.8847251,0.112237028 19.5536881,0.26928739 L5.12267678,7.11679472 C4.36605878,7.4756295 3.8165021,8.15427353 3.62955897,8.96063636 L0.0693312103,24.341868 C-0.0967617268,25.0578438 0.0383842265,25.809549 0.443994889,26.4258123 C0.492675507,26.500381 0.545031054,26.5725592 0.600873769,26.642088 L10.5894443,38.9752991 C11.1131885,39.6217688 11.9072846,39.9981889 12.7469904,39.9980264 L28.7652468,39.9943607 C29.6046386,39.9949682 30.3986786,39.6192492 30.9227928,38.9734663 L40.9076722,26.6384223 C41.4316966,25.9916286 41.6280319,25.1449385 41.4410603,24.3382023 L37.8752957,8.95697067 C37.6883525,8.15060784 37.1387959,7.47196381 36.3821779,7.11312903 L21.9493209,0.26928739 C21.5329263,0.0717304911 21.0728225,-0.0196525975 20.6112363,0.00352492669 Z"/>
      <path fill="#FFF" d="M20.7542307,5.23796012 C20.2772032,5.23800821 19.8904174,5.66469971 19.8904741,6.1910393 C19.8904747,6.1991173 19.8921396,6.20683636 19.8923168,6.21486628 C19.8916139,6.28638299 19.8881353,6.37254135 19.8904741,6.43480762 C19.9018503,6.73838534 19.9684868,6.97073079 20.0085946,7.25042346 C20.0812553,7.84905455 20.14214,8.34528328 20.1045676,8.8065085 C20.0680276,8.98043226 19.9390287,9.13949443 19.8240313,9.25005689 L19.8037293,9.61296012 C19.2853678,9.65560938 18.7635389,9.73370733 18.242323,9.85122991 C15.9995318,10.3569296 14.068528,11.5041959 12.5983746,13.0532094 C12.5029792,12.9885801 12.3360861,12.8696821 12.2864595,12.833268 C12.1322431,12.8539496 11.9763806,12.9012029 11.7733733,12.7837812 C11.3868291,12.5253865 11.0347731,12.168712 10.6087783,11.7390598 C10.4135853,11.5335355 10.2722339,11.3378276 10.0403231,11.1397196 C9.98765785,11.0947302 9.90728507,11.0338809 9.84837716,10.9875935 C9.66706918,10.8440411 9.45322252,10.769176 9.24670052,10.7621537 C8.98117197,10.7531249 8.72555611,10.8562211 8.55827908,11.064573 C8.26089814,11.4349765 8.35610864,12.0011155 8.77052697,12.3292358 C8.77473207,12.3325613 8.77921002,12.3351466 8.78344641,12.3384 C8.84039352,12.3842428 8.91012836,12.4429824 8.9624729,12.4813619 C9.20856942,12.6618047 9.43337236,12.7541742 9.67857884,12.8974176 C10.1951792,13.2142393 10.6234471,13.4769402 10.96314,13.7936786 C11.0957906,13.9340991 11.1189753,14.1815331 11.1366296,14.2885466 L11.4134747,14.5341478 C9.93145018,16.7490264 9.24555711,19.4848493 9.65089729,22.2724176 L9.28915305,22.3768897 C9.19381203,22.4991543 9.05908903,22.6915372 8.91817768,22.7489572 C8.47374137,22.8879724 7.97355332,22.9390211 7.36969086,23.0018897 C7.08618318,23.0253003 6.84156316,23.0113296 6.54100124,23.0678721 C6.474849,23.0803167 6.38267716,23.1041636 6.31029701,23.1210246 C6.30778104,23.1215525 6.30543044,23.1222915 6.30291447,23.1228545 C6.29896924,23.1237636 6.29378611,23.1256639 6.28999503,23.1265202 C5.78088711,23.248678 5.45383488,23.7133824 5.55912402,24.1712416 C5.66443795,24.6292082 6.16172436,24.9077091 6.67388688,24.7980745 C6.67758406,24.7972358 6.68295264,24.797095 6.68680632,24.7962446 C6.69258832,24.7949308 6.69767873,24.7921449 6.70341702,24.790749 C6.77481205,24.7751853 6.86428365,24.7578692 6.92673872,24.7412622 C7.22223741,24.6626915 7.43624825,24.5472469 7.70190495,24.4461742 C8.27342778,24.24261 8.74678356,24.0725543 9.2079422,24.0062915 C9.40054842,23.9913109 9.60347542,24.1243067 9.70441772,24.1804117 L10.080927,24.1162622 C10.947352,26.7838762 12.7631002,28.940017 15.0622929,30.2929484 L14.905414,30.6668487 C14.9619595,30.8120346 15.0243266,31.0084733 14.9822054,31.1518528 C14.8145521,31.5835947 14.5273839,32.0392997 14.2003819,32.5473472 C14.0420501,32.7820639 13.8800076,32.9642158 13.7371278,33.2328311 C13.7029378,33.2971062 13.6593938,33.3958411 13.6263897,33.4637695 C13.4043916,33.9354622 13.5672326,34.4787372 13.9936709,34.6826111 C14.4227881,34.8877654 14.9554363,34.6713889 15.1859504,34.1987402 C15.1863047,34.1980716 15.1874682,34.1975789 15.187793,34.1969103 C15.1880293,34.1963824 15.1875568,34.1955906 15.187793,34.1950804 C15.2206264,34.1280686 15.2671423,34.0399853 15.2948398,33.9769718 C15.4172204,33.6985543 15.4579413,33.4599595 15.5440004,33.1906815 C15.7725412,32.6205853 15.8981063,32.02241 16.2127152,31.649678 C16.2988652,31.5476117 16.4393183,31.5083584 16.5849379,31.4696405 L16.7805751,31.1177343 C18.7849772,31.8817695 21.0285841,32.0867935 23.2698238,31.581444 C23.7811069,31.4661613 24.2747015,31.3169601 24.7518678,31.1378956 C24.8068518,31.2347478 24.9090349,31.4209279 24.9364312,31.4678076 C25.0844121,31.5156188 25.2459331,31.5403085 25.3775377,31.7335701 C25.612916,32.1329238 25.7738854,32.6053683 25.9699862,33.1760188 C26.0560595,33.4452921 26.098597,33.6838974 26.2209924,33.9623091 C26.2488889,34.0257666 26.2951721,34.1150868 26.3280392,34.1822504 C26.5580683,34.6564346 27.0924044,34.8735507 27.5221643,34.6679543 C27.94855,34.4639718 28.1115706,33.920746 27.8894454,33.4491126 C27.8564372,33.3811865 27.8110547,33.2824475 27.7768618,33.2181742 C27.6339678,32.9495666 27.4719512,32.7692311 27.3136076,32.5345232 C26.9865785,32.0264927 26.7153459,31.6044528 26.5476696,31.1727196 C26.4775585,30.9500469 26.5594982,30.8115619 26.6141124,30.6668545 C26.581406,30.6296246 26.5114178,30.4193419 26.470153,30.3204469 C28.8595785,28.9193818 30.6220059,26.6828346 31.4496732,24.0997724 C31.5614389,24.1172164 31.7556964,24.1513478 31.8188,24.163922 C31.9487054,24.078837 32.0681489,23.9678211 32.302356,23.9861361 C32.7635176,24.0523748 33.2368598,24.2224839 33.8083933,24.4260188 C34.0740553,24.527078 34.2880573,24.6443842 34.5835595,24.7229396 C34.6460152,24.7395431 34.735485,24.7550334 34.8068812,24.7705935 C34.8126219,24.7719894 34.817707,24.7747812 34.8234919,24.7760891 C34.8273486,24.7769455 34.8327142,24.7770804 34.8364114,24.7779191 C35.3486034,24.8874176 35.8459784,24.6090798 35.9511742,24.1510862 C36.0563452,23.6932 35.7294442,23.2283877 35.2203032,23.1063648 C35.1462457,23.0896416 35.0412177,23.0612399 34.969297,23.0477138 C34.6687321,22.9911871 34.4241162,23.0051273 34.1406074,22.9817314 C33.536742,22.9188938 33.036564,22.8677906 32.5921206,22.7287988 C32.4109082,22.6589877 32.2819932,22.4448551 32.2192996,22.3567314 L31.8704748,22.2559249 C32.0513327,20.9565455 32.002566,19.6042334 31.6896026,18.2511595 C31.3737252,16.8854874 30.8154886,15.6364475 30.0709817,14.5359836 C30.160461,14.4552041 30.3294407,14.3066047 30.3773569,14.2628897 C30.3913637,14.1089795 30.3793296,13.9476094 30.5397727,13.7771859 C30.8794485,13.4604299 31.3077507,13.1977736 31.8243339,12.8809249 C32.0695327,12.7376686 32.2961984,12.6453249 32.5422855,12.4648692 C32.597935,12.4240622 32.673925,12.3594387 32.7323858,12.3127431 C33.1467161,11.9845126 33.2421103,11.4184076 32.9446337,11.0480804 C32.6471571,10.6777531 32.0707116,10.6428704 31.6563812,10.9711009 C31.597406,11.017485 31.5173811,11.0779935 31.4644353,11.123227 C31.2325351,11.3213478 31.0893169,11.5170328 30.8941344,11.7225672 C30.4681627,12.1522416 30.1160701,12.5107062 29.7295394,12.7691214 C29.5620439,12.8659578 29.3167104,12.8324516 29.2053765,12.8259396 L28.8768536,13.0587109 C27.0035323,11.1079443 24.4529631,9.86073666 21.7065778,9.61845865 C21.6988964,9.50416422 21.6888332,9.29756891 21.6862758,9.23539413 C21.5738422,9.12855249 21.4380207,9.03733783 21.4038939,8.8065085 C21.3663215,8.34528328 21.4290518,7.84905455 21.5017125,7.25042346 C21.5418203,6.97073079 21.6084568,6.73838534 21.619833,6.43480762 C21.6224199,6.36579707 21.6182679,6.26565748 21.6179903,6.1910393 C21.6179336,5.66469971 21.2312612,5.23791202 20.7542337,5.23796012 L20.7542307,5.23796012 Z M19.6726893,11.8911859 L19.4161462,16.3908194 L19.3976898,16.3999836 C19.3804832,16.8025261 19.0468741,17.1239572 18.6372887,17.1239572 C18.4695096,17.1239572 18.3146459,17.0704504 18.1887996,16.9791625 L18.1814171,16.9828282 L14.4661561,14.3673589 C15.608007,13.2523355 17.0685241,12.4283331 18.751718,12.0488106 C19.0591852,11.9794833 19.3665154,11.9280422 19.6726893,11.8911859 Z M21.8376178,11.8911859 C23.8027584,12.1312047 25.6201343,13.0148704 27.0127752,14.3691918 L23.3215075,16.9681654 L23.308588,16.9626698 C22.9809541,17.2003056 22.5193401,17.1413437 22.2639592,16.8233736 C22.1593446,16.693112 22.104454,16.539949 22.0978522,16.3853238 L22.0941609,16.3834938 L21.8376178,11.8911859 Z M13.1188434,16.0480774 L16.5111184,19.0612739 L16.5074272,19.0796023 C16.8136175,19.3439408 16.8587697,19.8026487 16.6034001,20.1206581 C16.4987926,20.2509249 16.3587677,20.3382968 16.2084345,20.3790891 L16.2047432,20.3937519 L11.8564298,21.6400862 C11.6351144,19.6303988 12.1120752,17.6768229 13.1188434,16.0480774 Z M28.3656249,16.0499073 C28.8696512,16.8612012 29.2513254,17.7673349 29.4785421,18.7496874 C29.7030338,19.720261 29.7593732,20.6890991 29.6667968,21.6254205 L25.2963357,20.3754205 L25.2926445,20.3570921 C24.9012815,20.2508727 24.6607626,19.8555308 24.7518737,19.4589982 C24.7892016,19.2965572 24.8760314,19.1591367 24.9936518,19.0576053 L24.9918091,19.0484411 L28.3656278,16.0499073 L28.3656249,16.0499073 Z M20.0584268,19.2940422 L21.4481891,19.2940422 L22.3119457,20.3662563 L22.0018792,21.7042328 L20.7542307,22.2999073 L19.502891,21.7024 L19.1928245,20.3644235 L20.0584268,19.2940422 Z M24.513787,22.9633971 C24.5728455,22.9604352 24.6316465,22.9657196 24.6891222,22.976227 L24.6965047,22.9670628 L29.1943145,23.7221947 C28.5360581,25.5587402 27.2764611,27.1497713 25.5934828,28.2144968 L23.8475131,24.0264469 L23.8530471,24.0191155 C23.6926624,23.6490282 23.8531652,23.2150358 24.2221738,23.0385437 C24.3166496,22.9933584 24.4153535,22.9683378 24.513784,22.9633971 L24.513787,22.9633971 Z M16.9596075,22.9817255 C17.3028505,22.9865056 17.6107247,23.2230891 17.6904785,23.5700686 C17.7278158,23.7325073 17.7096435,23.8934557 17.6480289,24.0356111 L17.6609483,24.0521067 L15.933435,28.1980012 C14.318304,27.1687578 13.0318464,25.6276768 12.3436771,23.7368604 L16.8027286,22.9853941 L16.8101111,22.9945584 C16.8599881,22.9854434 16.9105727,22.9810452 16.9596075,22.9817284 L16.9596075,22.9817255 Z M20.7265462,24.7980774 C20.8461108,24.7937138 20.9674325,24.8180762 21.0827536,24.873224 C21.233919,24.9455132 21.3506941,25.0593349 21.4241958,25.1958047 L21.4408065,25.1958047 L23.6389565,29.1400862 C23.3536782,29.2350557 23.0603966,29.3162199 22.7604348,29.3838545 C21.0793115,29.7629103 19.4035297,29.6480581 17.8861157,29.1345877 L20.0787287,25.1976375 L20.08242,25.1976375 C20.2139868,24.9533906 20.4635047,24.8076745 20.7265462,24.7980774 Z"/>
    </g>
    <g id="k8s-animejs-k8s3" fill-rule="nonzero" transform="translate(532 337)">
      <path fill="#326CE5" d="M20.6112363,0.00352492669 C20.2442721,0.0218826534 19.8847251,0.112237028 19.5536881,0.26928739 L5.12267678,7.11679472 C4.36605878,7.4756295 3.8165021,8.15427353 3.62955897,8.96063636 L0.0693312103,24.341868 C-0.0967617268,25.0578438 0.0383842265,25.809549 0.443994889,26.4258123 C0.492675507,26.500381 0.545031054,26.5725592 0.600873769,26.642088 L10.5894443,38.9752991 C11.1131885,39.6217688 11.9072846,39.9981889 12.7469904,39.9980264 L28.7652468,39.9943607 C29.6046386,39.9949682 30.3986786,39.6192492 30.9227928,38.9734663 L40.9076722,26.6384223 C41.4316966,25.9916286 41.6280319,25.1449385 41.4410603,24.3382023 L37.8752957,8.95697067 C37.6883525,8.15060784 37.1387959,7.47196381 36.3821779,7.11312903 L21.9493209,0.26928739 C21.5329263,0.0717304911 21.0728225,-0.0196525975 20.6112363,0.00352492669 Z"/>
      <path fill="#FFF" d="M20.7542307,5.23796012 C20.2772032,5.23800821 19.8904174,5.66469971 19.8904741,6.1910393 C19.8904747,6.1991173 19.8921396,6.20683636 19.8923168,6.21486628 C19.8916139,6.28638299 19.8881353,6.37254135 19.8904741,6.43480762 C19.9018503,6.73838534 19.9684868,6.97073079 20.0085946,7.25042346 C20.0812553,7.84905455 20.14214,8.34528328 20.1045676,8.8065085 C20.0680276,8.98043226 19.9390287,9.13949443 19.8240313,9.25005689 L19.8037293,9.61296012 C19.2853678,9.65560938 18.7635389,9.73370733 18.242323,9.85122991 C15.9995318,10.3569296 14.068528,11.5041959 12.5983746,13.0532094 C12.5029792,12.9885801 12.3360861,12.8696821 12.2864595,12.833268 C12.1322431,12.8539496 11.9763806,12.9012029 11.7733733,12.7837812 C11.3868291,12.5253865 11.0347731,12.168712 10.6087783,11.7390598 C10.4135853,11.5335355 10.2722339,11.3378276 10.0403231,11.1397196 C9.98765785,11.0947302 9.90728507,11.0338809 9.84837716,10.9875935 C9.66706918,10.8440411 9.45322252,10.769176 9.24670052,10.7621537 C8.98117197,10.7531249 8.72555611,10.8562211 8.55827908,11.064573 C8.26089814,11.4349765 8.35610864,12.0011155 8.77052697,12.3292358 C8.77473207,12.3325613 8.77921002,12.3351466 8.78344641,12.3384 C8.84039352,12.3842428 8.91012836,12.4429824 8.9624729,12.4813619 C9.20856942,12.6618047 9.43337236,12.7541742 9.67857884,12.8974176 C10.1951792,13.2142393 10.6234471,13.4769402 10.96314,13.7936786 C11.0957906,13.9340991 11.1189753,14.1815331 11.1366296,14.2885466 L11.4134747,14.5341478 C9.93145018,16.7490264 9.24555711,19.4848493 9.65089729,22.2724176 L9.28915305,22.3768897 C9.19381203,22.4991543 9.05908903,22.6915372 8.91817768,22.7489572 C8.47374137,22.8879724 7.97355332,22.9390211 7.36969086,23.0018897 C7.08618318,23.0253003 6.84156316,23.0113296 6.54100124,23.0678721 C6.474849,23.0803167 6.38267716,23.1041636 6.31029701,23.1210246 C6.30778104,23.1215525 6.30543044,23.1222915 6.30291447,23.1228545 C6.29896924,23.1237636 6.29378611,23.1256639 6.28999503,23.1265202 C5.78088711,23.248678 5.45383488,23.7133824 5.55912402,24.1712416 C5.66443795,24.6292082 6.16172436,24.9077091 6.67388688,24.7980745 C6.67758406,24.7972358 6.68295264,24.797095 6.68680632,24.7962446 C6.69258832,24.7949308 6.69767873,24.7921449 6.70341702,24.790749 C6.77481205,24.7751853 6.86428365,24.7578692 6.92673872,24.7412622 C7.22223741,24.6626915 7.43624825,24.5472469 7.70190495,24.4461742 C8.27342778,24.24261 8.74678356,24.0725543 9.2079422,24.0062915 C9.40054842,23.9913109 9.60347542,24.1243067 9.70441772,24.1804117 L10.080927,24.1162622 C10.947352,26.7838762 12.7631002,28.940017 15.0622929,30.2929484 L14.905414,30.6668487 C14.9619595,30.8120346 15.0243266,31.0084733 14.9822054,31.1518528 C14.8145521,31.5835947 14.5273839,32.0392997 14.2003819,32.5473472 C14.0420501,32.7820639 13.8800076,32.9642158 13.7371278,33.2328311 C13.7029378,33.2971062 13.6593938,33.3958411 13.6263897,33.4637695 C13.4043916,33.9354622 13.5672326,34.4787372 13.9936709,34.6826111 C14.4227881,34.8877654 14.9554363,34.6713889 15.1859504,34.1987402 C15.1863047,34.1980716 15.1874682,34.1975789 15.187793,34.1969103 C15.1880293,34.1963824 15.1875568,34.1955906 15.187793,34.1950804 C15.2206264,34.1280686 15.2671423,34.0399853 15.2948398,33.9769718 C15.4172204,33.6985543 15.4579413,33.4599595 15.5440004,33.1906815 C15.7725412,32.6205853 15.8981063,32.02241 16.2127152,31.649678 C16.2988652,31.5476117 16.4393183,31.5083584 16.5849379,31.4696405 L16.7805751,31.1177343 C18.7849772,31.8817695 21.0285841,32.0867935 23.2698238,31.581444 C23.7811069,31.4661613 24.2747015,31.3169601 24.7518678,31.1378956 C24.8068518,31.2347478 24.9090349,31.4209279 24.9364312,31.4678076 C25.0844121,31.5156188 25.2459331,31.5403085 25.3775377,31.7335701 C25.612916,32.1329238 25.7738854,32.6053683 25.9699862,33.1760188 C26.0560595,33.4452921 26.098597,33.6838974 26.2209924,33.9623091 C26.2488889,34.0257666 26.2951721,34.1150868 26.3280392,34.1822504 C26.5580683,34.6564346 27.0924044,34.8735507 27.5221643,34.6679543 C27.94855,34.4639718 28.1115706,33.920746 27.8894454,33.4491126 C27.8564372,33.3811865 27.8110547,33.2824475 27.7768618,33.2181742 C27.6339678,32.9495666 27.4719512,32.7692311 27.3136076,32.5345232 C26.9865785,32.0264927 26.7153459,31.6044528 26.5476696,31.1727196 C26.4775585,30.9500469 26.5594982,30.8115619 26.6141124,30.6668545 C26.581406,30.6296246 26.5114178,30.4193419 26.470153,30.3204469 C28.8595785,28.9193818 30.6220059,26.6828346 31.4496732,24.0997724 C31.5614389,24.1172164 31.7556964,24.1513478 31.8188,24.163922 C31.9487054,24.078837 32.0681489,23.9678211 32.302356,23.9861361 C32.7635176,24.0523748 33.2368598,24.2224839 33.8083933,24.4260188 C34.0740553,24.527078 34.2880573,24.6443842 34.5835595,24.7229396 C34.6460152,24.7395431 34.735485,24.7550334 34.8068812,24.7705935 C34.8126219,24.7719894 34.817707,24.7747812 34.8234919,24.7760891 C34.8273486,24.7769455 34.8327142,24.7770804 34.8364114,24.7779191 C35.3486034,24.8874176 35.8459784,24.6090798 35.9511742,24.1510862 C36.0563452,23.6932 35.7294442,23.2283877 35.2203032,23.1063648 C35.1462457,23.0896416 35.0412177,23.0612399 34.969297,23.0477138 C34.6687321,22.9911871 34.4241162,23.0051273 34.1406074,22.9817314 C33.536742,22.9188938 33.036564,22.8677906 32.5921206,22.7287988 C32.4109082,22.6589877 32.2819932,22.4448551 32.2192996,22.3567314 L31.8704748,22.2559249 C32.0513327,20.9565455 32.002566,19.6042334 31.6896026,18.2511595 C31.3737252,16.8854874 30.8154886,15.6364475 30.0709817,14.5359836 C30.160461,14.4552041 30.3294407,14.3066047 30.3773569,14.2628897 C30.3913637,14.1089795 30.3793296,13.9476094 30.5397727,13.7771859 C30.8794485,13.4604299 31.3077507,13.1977736 31.8243339,12.8809249 C32.0695327,12.7376686 32.2961984,12.6453249 32.5422855,12.4648692 C32.597935,12.4240622 32.673925,12.3594387 32.7323858,12.3127431 C33.1467161,11.9845126 33.2421103,11.4184076 32.9446337,11.0480804 C32.6471571,10.6777531 32.0707116,10.6428704 31.6563812,10.9711009 C31.597406,11.017485 31.5173811,11.0779935 31.4644353,11.123227 C31.2325351,11.3213478 31.0893169,11.5170328 30.8941344,11.7225672 C30.4681627,12.1522416 30.1160701,12.5107062 29.7295394,12.7691214 C29.5620439,12.8659578 29.3167104,12.8324516 29.2053765,12.8259396 L28.8768536,13.0587109 C27.0035323,11.1079443 24.4529631,9.86073666 21.7065778,9.61845865 C21.6988964,9.50416422 21.6888332,9.29756891 21.6862758,9.23539413 C21.5738422,9.12855249 21.4380207,9.03733783 21.4038939,8.8065085 C21.3663215,8.34528328 21.4290518,7.84905455 21.5017125,7.25042346 C21.5418203,6.97073079 21.6084568,6.73838534 21.619833,6.43480762 C21.6224199,6.36579707 21.6182679,6.26565748 21.6179903,6.1910393 C21.6179336,5.66469971 21.2312612,5.23791202 20.7542337,5.23796012 L20.7542307,5.23796012 Z M19.6726893,11.8911859 L19.4161462,16.3908194 L19.3976898,16.3999836 C19.3804832,16.8025261 19.0468741,17.1239572 18.6372887,17.1239572 C18.4695096,17.1239572 18.3146459,17.0704504 18.1887996,16.9791625 L18.1814171,16.9828282 L14.4661561,14.3673589 C15.608007,13.2523355 17.0685241,12.4283331 18.751718,12.0488106 C19.0591852,11.9794833 19.3665154,11.9280422 19.6726893,11.8911859 Z M21.8376178,11.8911859 C23.8027584,12.1312047 25.6201343,13.0148704 27.0127752,14.3691918 L23.3215075,16.9681654 L23.308588,16.9626698 C22.9809541,17.2003056 22.5193401,17.1413437 22.2639592,16.8233736 C22.1593446,16.693112 22.104454,16.539949 22.0978522,16.3853238 L22.0941609,16.3834938 L21.8376178,11.8911859 Z M13.1188434,16.0480774 L16.5111184,19.0612739 L16.5074272,19.0796023 C16.8136175,19.3439408 16.8587697,19.8026487 16.6034001,20.1206581 C16.4987926,20.2509249 16.3587677,20.3382968 16.2084345,20.3790891 L16.2047432,20.3937519 L11.8564298,21.6400862 C11.6351144,19.6303988 12.1120752,17.6768229 13.1188434,16.0480774 Z M28.3656249,16.0499073 C28.8696512,16.8612012 29.2513254,17.7673349 29.4785421,18.7496874 C29.7030338,19.720261 29.7593732,20.6890991 29.6667968,21.6254205 L25.2963357,20.3754205 L25.2926445,20.3570921 C24.9012815,20.2508727 24.6607626,19.8555308 24.7518737,19.4589982 C24.7892016,19.2965572 24.8760314,19.1591367 24.9936518,19.0576053 L24.9918091,19.0484411 L28.3656278,16.0499073 L28.3656249,16.0499073 Z M20.0584268,19.2940422 L21.4481891,19.2940422 L22.3119457,20.3662563 L22.0018792,21.7042328 L20.7542307,22.2999073 L19.502891,21.7024 L19.1928245,20.3644235 L20.0584268,19.2940422 Z M24.513787,22.9633971 C24.5728455,22.9604352 24.6316465,22.9657196 24.6891222,22.976227 L24.6965047,22.9670628 L29.1943145,23.7221947 C28.5360581,25.5587402 27.2764611,27.1497713 25.5934828,28.2144968 L23.8475131,24.0264469 L23.8530471,24.0191155 C23.6926624,23.6490282 23.8531652,23.2150358 24.2221738,23.0385437 C24.3166496,22.9933584 24.4153535,22.9683378 24.513784,22.9633971 L24.513787,22.9633971 Z M16.9596075,22.9817255 C17.3028505,22.9865056 17.6107247,23.2230891 17.6904785,23.5700686 C17.7278158,23.7325073 17.7096435,23.8934557 17.6480289,24.0356111 L17.6609483,24.0521067 L15.933435,28.1980012 C14.318304,27.1687578 13.0318464,25.6276768 12.3436771,23.7368604 L16.8027286,22.9853941 L16.8101111,22.9945584 C16.8599881,22.9854434 16.9105727,22.9810452 16.9596075,22.9817284 L16.9596075,22.9817255 Z M20.7265462,24.7980774 C20.8461108,24.7937138 20.9674325,24.8180762 21.0827536,24.873224 C21.233919,24.9455132 21.3506941,25.0593349 21.4241958,25.1958047 L21.4408065,25.1958047 L23.6389565,29.1400862 C23.3536782,29.2350557 23.0603966,29.3162199 22.7604348,29.3838545 C21.0793115,29.7629103 19.4035297,29.6480581 17.8861157,29.1345877 L20.0787287,25.1976375 L20.08242,25.1976375 C20.2139868,24.9533906 20.4635047,24.8076745 20.7265462,24.7980774 Z"/>
    </g>
    <g id="k8s-animejs-app1" transform="translate(90 493)">
      <g transform="translate(.132 .8)">
        <path fill="#00C176" d="M158.400002,134.890599 C158.400002,135.741965 157.904038,136.432001 157.291993,136.432001 L1.108009,136.432001 C0.49596405,136.432001 0,135.741965 0,134.890599 L-4.4408921e-16,3.96000004 C-7.11925298e-16,1.77295241 1.77295241,-1.29209222e-14 3.96000004,-1.33226763e-14 L154.440002,-4.4408921e-16 C156.627049,-8.45843342e-16 158.400002,1.77295241 158.400002,3.96000004 L158.400002,134.890599 Z"/>
        <text fill="#FFF" font-size="26.928" font-weight="bold" class="sans-serif">
          <tspan x="51.516" y="86.234">APP</tspan>
        </text>
        <path fill="#CCC" d="M3.96000004,0 L154.440002,0 C156.627049,-4.01754132e-16 158.400002,1.77295241 158.400002,3.96000004 L158.400002,18.2160002 L0,18.2160002 L0,3.96000004 C-2.67836088e-16,1.77295241 1.77295241,-4.23350776e-17 3.96000004,-4.4408921e-16 Z"/>
        <path fill="#E74C3C" d="M13.4640001,9.9000001 C13.4640001,11.8685633 11.8685633,13.4640001 9.9000001,13.4640001 C7.9314369,13.4640001 6.33600006,11.8685633 6.33600006,9.9000001 C6.33600006,7.9314369 7.9314369,6.33600006 9.9000001,6.33600006 C11.8685633,6.33600006 13.4640001,7.9314369 13.4640001,9.9000001"/>
        <path fill="#F1C40F" d="M26.1360003,9.9000001 C26.1360003,11.8685633 24.5405634,13.4640001 22.5720002,13.4640001 C20.603437,13.4640001 19.0080002,11.8685633 19.0080002,9.9000001 C19.0080002,7.9314369 20.603437,6.33600006 22.5720002,6.33600006 C24.5405634,6.33600006 26.1360003,7.9314369 26.1360003,9.9000001"/>
        <path fill="#2ECC71" d="M38.0160004,9.9000001 C38.0160004,11.8685633 36.4205635,13.4640001 34.4520003,13.4640001 C32.4834372,13.4640001 30.8880003,11.8685633 30.8880003,9.9000001 C30.8880003,7.9314369 32.4834372,6.33600006 34.4520003,6.33600006 C36.4205635,6.33600006 38.0160004,7.9314369 38.0160004,9.9000001"/>
      </g>
    </g>
    <g id="k8s-animejs-app2" transform="translate(328 493)">
      <g transform="translate(.132 .8)">
        <path fill="#00C176" d="M158.400002,134.890599 C158.400002,135.741965 157.904038,136.432001 157.291993,136.432001 L1.108009,136.432001 C0.49596405,136.432001 0,135.741965 0,134.890599 L-4.4408921e-16,3.96000004 C-7.11925298e-16,1.77295241 1.77295241,-1.29209222e-14 3.96000004,-1.33226763e-14 L154.440002,-4.4408921e-16 C156.627049,-8.45843342e-16 158.400002,1.77295241 158.400002,3.96000004 L158.400002,134.890599 Z"/>
        <text fill="#FFF" font-size="26.928" font-weight="bold" class="sans-serif">
          <tspan x="51.516" y="86.234">APP</tspan>
        </text>
        <path fill="#CCC" d="M3.96000004,0 L154.440002,0 C156.627049,-4.01754132e-16 158.400002,1.77295241 158.400002,3.96000004 L158.400002,18.2160002 L0,18.2160002 L0,3.96000004 C-2.67836088e-16,1.77295241 1.77295241,-4.23350776e-17 3.96000004,-4.4408921e-16 Z"/>
        <path fill="#E74C3C" d="M13.4640001,9.9000001 C13.4640001,11.8685633 11.8685633,13.4640001 9.9000001,13.4640001 C7.9314369,13.4640001 6.33600006,11.8685633 6.33600006,9.9000001 C6.33600006,7.9314369 7.9314369,6.33600006 9.9000001,6.33600006 C11.8685633,6.33600006 13.4640001,7.9314369 13.4640001,9.9000001"/>
        <path fill="#F1C40F" d="M26.1360003,9.9000001 C26.1360003,11.8685633 24.5405634,13.4640001 22.5720002,13.4640001 C20.603437,13.4640001 19.0080002,11.8685633 19.0080002,9.9000001 C19.0080002,7.9314369 20.603437,6.33600006 22.5720002,6.33600006 C24.5405634,6.33600006 26.1360003,7.9314369 26.1360003,9.9000001"/>
        <path fill="#2ECC71" d="M38.0160004,9.9000001 C38.0160004,11.8685633 36.4205635,13.4640001 34.4520003,13.4640001 C32.4834372,13.4640001 30.8880003,11.8685633 30.8880003,9.9000001 C30.8880003,7.9314369 32.4834372,6.33600006 34.4520003,6.33600006 C36.4205635,6.33600006 38.0160004,7.9314369 38.0160004,9.9000001"/>
      </g>
    </g>
    <g id="k8s-animejs-app3" transform="translate(567 493)">
      <g transform="translate(.132 .8)">
        <path fill="#00C176" d="M158.400002,134.890599 C158.400002,135.741965 157.904038,136.432001 157.291993,136.432001 L1.108009,136.432001 C0.49596405,136.432001 0,135.741965 0,134.890599 L-4.4408921e-16,3.96000004 C-7.11925298e-16,1.77295241 1.77295241,-1.29209222e-14 3.96000004,-1.33226763e-14 L154.440002,-4.4408921e-16 C156.627049,-8.45843342e-16 158.400002,1.77295241 158.400002,3.96000004 L158.400002,134.890599 Z"/>
        <text fill="#FFF" font-size="26.928" font-weight="bold" class="sans-serif">
          <tspan x="51.516" y="86.234">APP</tspan>
        </text>
        <path fill="#CCC" d="M3.96000004,0 L154.440002,0 C156.627049,-4.01754132e-16 158.400002,1.77295241 158.400002,3.96000004 L158.400002,18.2160002 L0,18.2160002 L0,3.96000004 C-2.67836088e-16,1.77295241 1.77295241,-4.23350776e-17 3.96000004,-4.4408921e-16 Z"/>
        <path fill="#E74C3C" d="M13.4640001,9.9000001 C13.4640001,11.8685633 11.8685633,13.4640001 9.9000001,13.4640001 C7.9314369,13.4640001 6.33600006,11.8685633 6.33600006,9.9000001 C6.33600006,7.9314369 7.9314369,6.33600006 9.9000001,6.33600006 C11.8685633,6.33600006 13.4640001,7.9314369 13.4640001,9.9000001"/>
        <path fill="#F1C40F" d="M26.1360003,9.9000001 C26.1360003,11.8685633 24.5405634,13.4640001 22.5720002,13.4640001 C20.603437,13.4640001 19.0080002,11.8685633 19.0080002,9.9000001 C19.0080002,7.9314369 20.603437,6.33600006 22.5720002,6.33600006 C24.5405634,6.33600006 26.1360003,7.9314369 26.1360003,9.9000001"/>
        <path fill="#2ECC71" d="M38.0160004,9.9000001 C38.0160004,11.8685633 36.4205635,13.4640001 34.4520003,13.4640001 C32.4834372,13.4640001 30.8880003,11.8685633 30.8880003,9.9000001 C30.8880003,7.9314369 32.4834372,6.33600006 34.4520003,6.33600006 C36.4205635,6.33600006 38.0160004,7.9314369 38.0160004,9.9000001"/>
      </g>
    </g>
  </g>
</svg>
