<svg version="1.1" xmlns="http://www.w3.org/2000/svg" xlink="http://www.w3.org/1999/xlink" viewBox="0 0 733.7 426" id="layers">
<g>
  <polygon style="fill:#005FAD;" points="345.5,230.8 345.5,219 52.5,219 52.5,230.8 199,315.3 	"/>
  <polygon style="fill:#0071CE;" points="345.5,219 199,134.4 52.5,219 199,303.5 	"/>
  <g>
    <path style="fill:#2D536D;" d="M158.4,258.5l-32.3-10.1l6.2-3.6l21.6,7.2l0.1,0l-12.5-12.5l5.9-3.4l17.6,18.6L158.4,258.5z"/>
    <path style="fill:#2D536D;" d="M182.9,244.3L161,231.7l-7.3,4.2l-5.2-3c1.1-0.6,2-1.2,2.7-1.9c0.8-0.7,1.2-1.4,1.5-2.1
      s0.2-1.5-0.2-2.3c-0.3-0.8-1.1-1.6-2.2-2.5l4.7-2.7l33.7,19.5L182.9,244.3z"/>
    <path style="fill:#2D536D;" d="M197.3,227.4l7.4,4.3l-6.6,3.8l-7.4-4.3L197.3,227.4z"/>
    <path style="fill:#2D536D;" d="M183.8,214.6c-1.7-1.6-2.7-3.1-3.1-4.4s-0.2-2.6,0.5-3.6s1.8-2,3.2-2.9c1.5-0.9,3.1-1.5,5-1.9
      c1.9-0.4,4-0.5,6.3-0.3c2.3,0.2,4.9,0.8,7.7,1.8c2.8,1,5.8,2.4,9.1,4.3c3.4,1.9,5.9,3.7,7.6,5.4c1.7,1.6,2.7,3.1,3.1,4.5
      c0.4,1.3,0.2,2.6-0.5,3.6c-0.7,1.1-1.8,2-3.3,2.9c-1.4,0.8-3.1,1.5-5,1.9c-1.9,0.4-4,0.5-6.3,0.3c-2.3-0.2-4.9-0.8-7.7-1.8
      c-2.8-1-5.9-2.4-9.3-4.4C187.9,218,185.4,216.3,183.8,214.6z M200.7,218.5c1.4,0.8,2.9,1.4,4.5,2c1.6,0.6,3.1,0.9,4.7,1.1
      c1.5,0.2,2.9-0.1,4.1-0.8c1.2-0.7,1.7-1.5,1.5-2.4c-0.2-0.9-0.9-1.8-1.8-2.7c-1-0.9-2.1-1.8-3.4-2.6c-1.3-0.8-2.4-1.5-3.4-2.1
      c-0.6-0.3-1.3-0.7-2.1-1.2c-0.8-0.5-1.7-0.9-2.7-1.4c-1-0.4-2-0.9-3-1.2c-1-0.4-2.1-0.7-3.1-0.9c-1-0.2-2-0.2-3-0.2
      c-1,0.1-1.9,0.4-2.7,0.8c-0.8,0.5-1.3,1-1.4,1.5s0,1.1,0.3,1.7c0.3,0.6,0.8,1.2,1.5,1.8c0.7,0.6,1.4,1.2,2.2,1.7
      c0.8,0.5,1.6,1.1,2.4,1.5s1.5,0.9,2.1,1.2C198.1,217,199.3,217.7,200.7,218.5z"/>
    <path style="fill:#2D536D;" d="M232.2,207.3l7.4,4.3l-6.6,3.8l-7.4-4.3L232.2,207.3z"/>
    <path style="fill:#2D536D;" d="M218.6,194.5c-1.7-1.6-2.7-3.1-3.1-4.4c-0.4-1.3-0.2-2.6,0.5-3.6s1.8-2,3.2-2.9
      c1.5-0.9,3.1-1.5,5-1.9s4-0.5,6.3-0.3c2.3,0.2,4.9,0.8,7.7,1.8c2.8,1,5.8,2.4,9.1,4.3c3.4,1.9,5.9,3.7,7.6,5.4
      c1.7,1.6,2.7,3.1,3.1,4.5c0.4,1.3,0.2,2.6-0.5,3.6c-0.7,1.1-1.8,2-3.3,2.9c-1.4,0.8-3.1,1.5-5,1.9c-1.9,0.4-4,0.5-6.3,0.3
      c-2.3-0.2-4.9-0.8-7.7-1.8c-2.8-1-5.9-2.4-9.3-4.4C222.7,197.9,220.2,196.2,218.6,194.5z M235.5,198.4c1.4,0.8,2.9,1.4,4.5,2
      c1.6,0.6,3.1,0.9,4.7,1.1c1.5,0.1,2.9-0.1,4.1-0.8c1.2-0.7,1.7-1.5,1.5-2.4c-0.2-0.9-0.9-1.8-1.8-2.7s-2.1-1.8-3.4-2.6
      c-1.3-0.8-2.4-1.5-3.4-2.1c-0.6-0.3-1.3-0.7-2.1-1.2c-0.8-0.5-1.7-0.9-2.7-1.4c-1-0.4-2-0.9-3-1.2c-1-0.4-2.1-0.7-3.1-0.9
      s-2-0.2-3-0.2c-1,0.1-1.9,0.4-2.7,0.8c-0.8,0.5-1.3,1-1.4,1.5c-0.1,0.6,0,1.1,0.3,1.7c0.3,0.6,0.8,1.2,1.5,1.8
      c0.7,0.6,1.4,1.2,2.2,1.7c0.8,0.5,1.6,1.1,2.4,1.5c0.8,0.5,1.5,0.9,2.1,1.2C232.9,196.9,234.1,197.6,235.5,198.4z"/>
  </g>
</g>
<g>
  <polygon style="fill:#BF534F;" points="345.8,148.6 345.8,136.8 52.8,136.8 52.8,148.6 199.3,233.2 	"/>
  <polygon style="fill:#FF6D68;" points="345.5,136.8 199,52.2 52.5,136.8 199,221.4 	"/>
  <g>
    <path style="fill:#933131;" d="M163.7,171.8l-32.3-10.1l6.2-3.6l21.6,7.2l0.1,0l-12.5-12.5l5.9-3.4l17.6,18.6L163.7,171.8z"/>
    <path style="fill:#933131;" d="M153.8,147.4c-1.2-1.2-2-2.4-2.3-3.7c-0.3-1.2-0.2-2.4,0.5-3.6c0.7-1.2,1.9-2.3,3.6-3.3
      c1.3-0.8,2.9-1.4,4.5-1.8c1.7-0.4,3.4-0.6,5.3-0.6s3.7,0.2,5.5,0.7c1.9,0.4,3.6,1.1,5.2,2.1c1.7,1,2.9,2,3.7,2.9
      c0.7,1,1.2,2,1.4,3s0.1,2-0.1,3c-0.2,1-0.4,2-0.7,3c-0.2,1-0.4,2-0.5,3.1c-0.1,1,0.1,2.1,0.5,3.2l13.8-8l5.9,3.4l-21.5,12.4
      c-2-1.1-3.4-2.3-4.4-3.4c-1-1.1-1.6-2.2-1.9-3.4c-0.3-1.1-0.4-2.3-0.2-3.5c0.2-1.2,0.4-2.5,0.6-3.8c0.1-0.7,0.3-1.4,0.5-2.1
      c0.2-0.7,0.3-1.4,0.2-2.2c0-0.7-0.3-1.4-0.7-2.1c-0.4-0.7-1.1-1.3-2.1-1.9c-1.6-0.9-3.3-1.4-5.1-1.5c-1.7-0.1-3.2,0.3-4.5,1
      c-0.9,0.5-1.4,1.1-1.5,1.7c-0.1,0.6,0,1.2,0.4,1.9s1,1.3,1.7,1.9c0.8,0.6,1.6,1.2,2.5,1.7l-5.7,3.3
      C156.6,149.7,155,148.6,153.8,147.4z"/>
    <path style="fill:#933131;" d="M202.7,140.8l7.4,4.3l-6.6,3.8l-7.4-4.3L202.7,140.8z"/>
    <path style="fill:#933131;" d="M189.1,128c-1.7-1.6-2.7-3.1-3.1-4.4c-0.4-1.3-0.2-2.6,0.5-3.6s1.8-2,3.2-2.9
      c1.5-0.9,3.1-1.5,5-1.9c1.9-0.4,4-0.5,6.3-0.3c2.3,0.2,4.9,0.8,7.7,1.8c2.8,1,5.8,2.4,9.1,4.3c3.4,1.9,5.9,3.7,7.6,5.4
      c1.7,1.6,2.7,3.1,3.1,4.5c0.4,1.3,0.2,2.6-0.5,3.6c-0.7,1.1-1.8,2-3.3,2.9c-1.4,0.8-3.1,1.5-5,1.9c-1.9,0.4-4,0.5-6.3,0.3
      c-2.3-0.2-4.9-0.8-7.7-1.8c-2.8-1-5.9-2.4-9.3-4.4C193.2,131.4,190.8,129.6,189.1,128z M206,131.8c1.4,0.8,2.9,1.4,4.5,2
      c1.6,0.6,3.1,0.9,4.7,1.1c1.5,0.1,2.9-0.1,4.1-0.8c1.2-0.7,1.7-1.5,1.5-2.4c-0.2-0.9-0.9-1.8-1.8-2.7c-1-0.9-2.1-1.8-3.4-2.6
      s-2.4-1.5-3.4-2.1c-0.6-0.3-1.3-0.7-2.1-1.2c-0.8-0.5-1.7-0.9-2.7-1.4c-1-0.4-2-0.9-3-1.2c-1-0.4-2.1-0.7-3.1-0.9
      c-1-0.2-2-0.2-3-0.2c-1,0.1-1.9,0.4-2.7,0.8c-0.8,0.5-1.3,1-1.4,1.5s0,1.1,0.3,1.7c0.3,0.6,0.8,1.2,1.5,1.8
      c0.7,0.6,1.4,1.2,2.2,1.7c0.8,0.5,1.6,1.1,2.4,1.5s1.5,0.9,2.1,1.2C203.4,130.4,204.6,131.1,206,131.8z"/>
    <path style="fill:#933131;" d="M237.5,120.7l7.4,4.3l-6.6,3.8l-7.4-4.3L237.5,120.7z"/>
    <path style="fill:#933131;" d="M223.9,107.9c-1.7-1.6-2.7-3.1-3.1-4.4c-0.4-1.3-0.2-2.6,0.5-3.6c0.7-1.1,1.8-2,3.2-2.9
      c1.5-0.9,3.1-1.5,5-1.9s4-0.5,6.3-0.3c2.3,0.2,4.9,0.8,7.7,1.8c2.8,1,5.8,2.4,9.1,4.3c3.4,1.9,5.9,3.7,7.6,5.4
      c1.7,1.6,2.7,3.1,3.1,4.5c0.4,1.3,0.2,2.6-0.5,3.6c-0.7,1.1-1.8,2-3.3,2.9c-1.4,0.8-3.1,1.5-5,1.9c-1.9,0.4-4,0.5-6.3,0.3
      c-2.3-0.2-4.9-0.8-7.7-1.8c-2.8-1-5.9-2.4-9.3-4.4C228,111.3,225.6,109.5,223.9,107.9z M240.8,111.7c1.4,0.8,2.9,1.4,4.5,2
      c1.6,0.6,3.1,0.9,4.7,1.1c1.5,0.1,2.9-0.1,4.1-0.8c1.2-0.7,1.7-1.5,1.5-2.4c-0.2-0.9-0.9-1.8-1.8-2.7s-2.1-1.8-3.4-2.6
      s-2.4-1.5-3.4-2.1c-0.6-0.3-1.3-0.7-2.1-1.2c-0.8-0.5-1.7-0.9-2.7-1.4c-1-0.4-2-0.9-3-1.2c-1-0.4-2.1-0.7-3.1-0.9s-2-0.2-3-0.2
      c-1,0.1-1.9,0.4-2.7,0.8c-0.8,0.5-1.3,1-1.4,1.5c-0.1,0.6,0,1.1,0.3,1.7c0.3,0.6,0.8,1.2,1.5,1.8c0.7,0.6,1.4,1.2,2.2,1.7
      s1.6,1.1,2.4,1.5c0.8,0.5,1.5,0.9,2.1,1.2C238.2,110.3,239.4,111,240.8,111.7z"/>
  </g>
</g>
<g>
  <polygon style="fill:#005FAD;" points="671.6,230.8 671.6,219 378.6,219 378.6,230.8 525.1,315.3 	"/>
  <polygon style="fill:#0071CE;" points="671.6,219 525.1,134.4 378.6,219 525.1,303.5 	"/>
  <g>
    <path style="fill:#2D536D;" d="M484.5,258.5l-32.3-10.1l6.2-3.6L480,252l0.1,0l-12.5-12.5l5.9-3.4l17.6,18.6L484.5,258.5z"/>
    <path style="fill:#2D536D;" d="M509.1,244.3l-21.9-12.6l-7.3,4.2l-5.2-3c1.1-0.6,2-1.2,2.7-1.9c0.8-0.7,1.2-1.4,1.5-2.1
      s0.2-1.5-0.2-2.3c-0.3-0.8-1.1-1.6-2.2-2.5l4.7-2.7l33.7,19.5L509.1,244.3z"/>
    <path style="fill:#2D536D;" d="M523.5,227.4l7.4,4.3l-6.6,3.8l-7.4-4.3L523.5,227.4z"/>
    <path style="fill:#2D536D;" d="M509.9,214.6c-1.7-1.6-2.7-3.1-3.1-4.4c-0.4-1.3-0.2-2.6,0.5-3.6c0.7-1.1,1.8-2,3.2-2.9
      c1.5-0.9,3.2-1.5,5-1.9c1.9-0.4,4-0.5,6.3-0.3c2.3,0.2,4.9,0.8,7.7,1.8c2.8,1,5.8,2.4,9.1,4.3c3.4,1.9,5.9,3.7,7.6,5.4
      c1.7,1.6,2.7,3.1,3.1,4.5c0.4,1.3,0.2,2.6-0.5,3.6c-0.7,1.1-1.8,2-3.3,2.9c-1.4,0.8-3.1,1.5-5,1.9c-1.9,0.4-4,0.5-6.3,0.3
      c-2.3-0.2-4.9-0.8-7.7-1.8c-2.8-1-5.9-2.4-9.3-4.4C514,218,511.5,216.3,509.9,214.6z M526.8,218.5c1.4,0.8,2.9,1.4,4.5,2
      c1.6,0.6,3.1,0.9,4.7,1.1c1.5,0.2,2.9-0.1,4.1-0.8c1.2-0.7,1.7-1.5,1.5-2.4c-0.2-0.9-0.9-1.8-1.8-2.7c-1-0.9-2.1-1.8-3.4-2.6
      c-1.3-0.8-2.4-1.5-3.4-2.1c-0.6-0.3-1.3-0.7-2.1-1.2c-0.8-0.5-1.7-0.9-2.7-1.4c-1-0.4-2-0.9-3-1.2c-1-0.4-2.1-0.7-3.1-0.9
      c-1-0.2-2-0.2-3-0.2c-1,0.1-1.9,0.4-2.7,0.8c-0.8,0.5-1.3,1-1.4,1.5s0,1.1,0.3,1.7c0.3,0.6,0.8,1.2,1.5,1.8
      c0.7,0.6,1.4,1.2,2.2,1.7c0.8,0.5,1.6,1.1,2.4,1.5s1.5,0.9,2.1,1.2C524.2,217,525.4,217.7,526.8,218.5z"/>
    <path style="fill:#2D536D;" d="M558.3,207.3l7.4,4.3l-6.6,3.8l-7.4-4.3L558.3,207.3z"/>
    <path style="fill:#2D536D;" d="M544.7,194.5c-1.7-1.6-2.7-3.1-3.1-4.4c-0.4-1.3-0.2-2.6,0.5-3.6s1.8-2,3.2-2.9
      c1.5-0.9,3.1-1.5,5-1.9s4-0.5,6.3-0.3c2.3,0.2,4.9,0.8,7.7,1.8c2.8,1,5.8,2.4,9.1,4.3c3.4,1.9,5.9,3.7,7.6,5.4
      c1.7,1.6,2.7,3.1,3.1,4.5c0.4,1.3,0.2,2.6-0.5,3.6c-0.7,1.1-1.8,2-3.3,2.9c-1.4,0.8-3.1,1.5-5,1.9c-1.9,0.4-4,0.5-6.3,0.3
      c-2.3-0.2-4.9-0.8-7.7-1.8c-2.8-1-5.9-2.4-9.3-4.4C548.8,197.9,546.4,196.2,544.7,194.5z M561.6,198.4c1.4,0.8,2.9,1.4,4.5,2
      c1.6,0.6,3.1,0.9,4.7,1.1c1.5,0.1,2.9-0.1,4.1-0.8c1.2-0.7,1.7-1.5,1.5-2.4c-0.2-0.9-0.9-1.8-1.8-2.7s-2.1-1.8-3.4-2.6
      c-1.3-0.8-2.4-1.5-3.4-2.1c-0.6-0.3-1.3-0.7-2.1-1.2c-0.8-0.5-1.7-0.9-2.7-1.4c-1-0.4-2-0.9-3-1.2c-1-0.4-2.1-0.7-3.1-0.9
      s-2-0.2-3-0.2c-1,0.1-1.9,0.4-2.7,0.8c-0.8,0.5-1.3,1-1.4,1.5c-0.1,0.6,0,1.1,0.3,1.7c0.3,0.6,0.8,1.2,1.5,1.8
      c0.7,0.6,1.4,1.2,2.2,1.7c0.8,0.5,1.6,1.1,2.4,1.5c0.8,0.5,1.5,0.9,2.1,1.2C559,196.9,560.2,197.6,561.6,198.4z"/>
  </g>
</g>
<g>
  <polygon style="fill:#BF534F;" points="671.6,148.6 671.6,136.8 378.6,136.8 378.6,148.6 525.1,233.2 	"/>
  <polygon style="fill:#FF6D68;" points="671.4,136.8 524.9,52.2 378.4,136.8 524.9,221.4 	"/>
  <g>
    <path style="fill:#933131;" d="M489.6,171.8l-32.3-10.1l6.2-3.6l21.6,7.2l0.1,0l-12.5-12.5l5.9-3.4l17.6,18.6L489.6,171.8z"/>
    <path style="fill:#933131;" d="M479.7,147.4c-1.2-1.2-2-2.4-2.3-3.7c-0.3-1.2-0.2-2.4,0.5-3.6c0.7-1.2,1.9-2.3,3.6-3.3
      c1.3-0.8,2.9-1.4,4.5-1.8c1.7-0.4,3.4-0.6,5.3-0.6s3.7,0.2,5.5,0.7c1.9,0.4,3.6,1.1,5.2,2.1c1.7,1,2.9,2,3.7,2.9
      c0.7,1,1.2,2,1.4,3s0.1,2-0.1,3s-0.4,2-0.7,3c-0.2,1-0.4,2-0.5,3.1c-0.1,1,0.1,2.1,0.5,3.2l13.8-8l5.9,3.4l-21.5,12.4
      c-2-1.1-3.4-2.3-4.4-3.4c-1-1.1-1.6-2.2-1.9-3.4c-0.3-1.1-0.4-2.3-0.2-3.5c0.2-1.2,0.4-2.5,0.6-3.8c0.1-0.7,0.3-1.4,0.5-2.1
      c0.2-0.7,0.3-1.4,0.2-2.2c0-0.7-0.3-1.4-0.7-2.1c-0.4-0.7-1.1-1.3-2.1-1.9c-1.6-0.9-3.3-1.4-5.1-1.5c-1.7-0.1-3.2,0.3-4.5,1
      c-0.9,0.5-1.4,1.1-1.5,1.7c-0.1,0.6,0,1.2,0.4,1.9s1,1.3,1.7,1.9s1.6,1.2,2.5,1.7l-5.7,3.3C482.5,149.7,480.9,148.6,479.7,147.4z"/>
    <path style="fill:#933131;" d="M528.5,140.8l7.4,4.3l-6.6,3.8l-7.4-4.3L528.5,140.8z"/>
    <path style="fill:#933131;" d="M515,128c-1.7-1.6-2.7-3.1-3.1-4.4c-0.4-1.3-0.2-2.6,0.5-3.6c0.7-1.1,1.8-2,3.2-2.9
      c1.5-0.9,3.2-1.5,5-1.9c1.9-0.4,4-0.5,6.3-0.3c2.3,0.2,4.9,0.8,7.7,1.8c2.8,1,5.8,2.4,9.1,4.3c3.4,1.9,5.9,3.7,7.6,5.4
      c1.7,1.6,2.7,3.1,3.1,4.5c0.4,1.3,0.2,2.6-0.5,3.6c-0.7,1.1-1.8,2-3.3,2.9c-1.4,0.8-3.1,1.5-5,1.9c-1.9,0.4-4,0.5-6.3,0.3
      c-2.3-0.2-4.9-0.8-7.7-1.8c-2.8-1-5.9-2.4-9.3-4.4C519.1,131.4,516.6,129.6,515,128z M531.9,131.8c1.4,0.8,2.9,1.4,4.5,2
      c1.6,0.6,3.1,0.9,4.7,1.1c1.5,0.1,2.9-0.1,4.1-0.8c1.2-0.7,1.7-1.5,1.5-2.4c-0.2-0.9-0.9-1.8-1.8-2.7c-1-0.9-2.1-1.8-3.4-2.6
      s-2.4-1.5-3.4-2.1c-0.6-0.3-1.3-0.7-2.1-1.2c-0.8-0.5-1.7-0.9-2.7-1.4c-1-0.4-2-0.9-3-1.2c-1-0.4-2.1-0.7-3.1-0.9
      c-1-0.2-2-0.2-3-0.2c-1,0.1-1.9,0.4-2.7,0.8c-0.8,0.5-1.3,1-1.4,1.5s0,1.1,0.3,1.7c0.3,0.6,0.8,1.2,1.5,1.8
      c0.7,0.6,1.4,1.2,2.2,1.7c0.8,0.5,1.6,1.1,2.4,1.5s1.5,0.9,2.1,1.2C529.3,130.4,530.5,131.1,531.9,131.8z"/>
    <path style="fill:#933131;" d="M563.4,120.7l7.4,4.3l-6.6,3.8l-7.4-4.3L563.4,120.7z"/>
    <path style="fill:#933131;" d="M549.8,107.9c-1.7-1.6-2.7-3.1-3.1-4.4c-0.4-1.3-0.2-2.6,0.5-3.6c0.7-1.1,1.8-2,3.2-2.9
      c1.5-0.9,3.1-1.5,5-1.9s4-0.5,6.3-0.3c2.3,0.2,4.9,0.8,7.7,1.8c2.8,1,5.8,2.4,9.1,4.3c3.4,1.9,5.9,3.7,7.6,5.4
      c1.7,1.6,2.7,3.1,3.1,4.5c0.4,1.3,0.2,2.6-0.5,3.6c-0.7,1.1-1.8,2-3.3,2.9c-1.4,0.8-3.1,1.5-5,1.9c-1.9,0.4-4,0.5-6.3,0.3
      c-2.3-0.2-4.9-0.8-7.7-1.8c-2.8-1-5.9-2.4-9.3-4.4C553.9,111.3,551.4,109.5,549.8,107.9z M566.7,111.7c1.4,0.8,2.9,1.4,4.5,2
      c1.6,0.6,3.1,0.9,4.7,1.1c1.5,0.1,2.9-0.1,4.1-0.8c1.2-0.7,1.7-1.5,1.5-2.4c-0.2-0.9-0.9-1.8-1.8-2.7s-2.1-1.8-3.4-2.6
      s-2.4-1.5-3.4-2.1c-0.6-0.3-1.3-0.7-2.1-1.2c-0.8-0.5-1.7-0.9-2.7-1.4c-1-0.4-2-0.9-3-1.2c-1-0.4-2.1-0.7-3.1-0.9s-2-0.2-3-0.2
      c-1,0.1-1.9,0.4-2.7,0.8c-0.8,0.5-1.3,1-1.4,1.5c-0.1,0.6,0,1.1,0.3,1.7c0.3,0.6,0.8,1.2,1.5,1.8c0.7,0.6,1.4,1.2,2.2,1.7
      s1.6,1.1,2.4,1.5c0.8,0.5,1.5,0.9,2.1,1.2C564.1,110.3,565.3,111,566.7,111.7z"/>
  </g>
</g>
<g>
  <polygon style="fill:#E0B03B;" points="345.9,100.4 345.9,88.6 52.9,88.6 52.9,100.4 199.4,185 	"/>
  <polygon style="fill:#FFC843;" points="345.6,88.6 199.1,4.1 52.6,88.6 199.1,173.2 	"/>
  <g>
    <path style="fill:#A58234;" d="M163.7,126.3l-32.3-10.1l6.2-3.6l21.6,7.2l0.1,0l-12.5-12.5l5.9-3.4l17.6,18.6L163.7,126.3z"/>
    <path style="fill:#A58234;" d="M169.3,99.9c0.7-0.5,1.2-1,1.5-1.5c0.3-0.5,0.4-1.1,0.2-1.7s-0.7-1.1-1.7-1.7
      c-1.4-0.8-3-1.2-4.6-1.2c-1.6,0-3,0.4-4,1c-1.5,0.9-2.1,1.9-1.7,3c0.4,1.1,1.4,2.1,3.2,3.1l-5.6,3.3c-1.7-1-3-2.1-3.9-3.2
      c-0.9-1.1-1.5-2.2-1.6-3.3c-0.2-1.1,0.1-2.2,0.8-3.2c0.7-1,1.7-2,3.2-2.8c1.2-0.7,2.5-1.2,4.1-1.7c1.6-0.4,3.2-0.7,5-0.8
      c1.7-0.1,3.5,0.1,5.2,0.4c1.7,0.3,3.4,0.9,4.9,1.8c1.6,0.9,2.7,2,3.3,3.1c0.6,1.1,0.4,2.2-0.5,3.2l0.1,0.1c2-0.7,4.2-0.9,6.5-0.6
      c2.3,0.3,4.4,1,6.3,2.1c1.8,1,3,2.1,3.8,3.2c0.8,1.1,1.1,2.3,1.1,3.4c-0.1,1.1-0.5,2.2-1.3,3.2c-0.8,1-1.9,2-3.4,2.8
      c-1.6,0.9-3.4,1.7-5.3,2.1c-1.9,0.5-3.8,0.7-5.8,0.6c-2-0.1-4-0.4-6-0.9c-2-0.6-4-1.4-5.9-2.6l5.6-3.3c0.9,0.5,1.9,0.9,3,1.3
      c1,0.3,2.1,0.6,3.1,0.7c1,0.1,2,0.1,3-0.1c1-0.2,1.9-0.5,2.8-1c1.3-0.8,2-1.7,2-2.8c0-1.1-0.9-2.1-2.5-3c-1.3-0.7-2.5-1.2-3.6-1.3
      c-1.1-0.1-2.1-0.1-3.1,0.1c-1,0.2-1.9,0.5-2.7,1c-0.8,0.4-1.6,0.9-2.3,1.3l-4.8-2.8C167.9,100.7,168.6,100.3,169.3,99.9z"/>
    <path style="fill:#A58234;" d="M202.7,95.2l7.4,4.3l-6.6,3.8l-7.4-4.3L202.7,95.2z"/>
    <path style="fill:#A58234;" d="M189.1,82.5c-1.7-1.6-2.7-3.1-3.1-4.4c-0.4-1.3-0.2-2.6,0.5-3.6s1.8-2,3.2-2.9
      c1.5-0.9,3.1-1.5,5-1.9c1.9-0.4,4-0.5,6.3-0.3c2.3,0.2,4.9,0.8,7.7,1.8c2.8,1,5.8,2.4,9.1,4.3c3.4,1.9,5.9,3.7,7.6,5.4
      c1.7,1.6,2.7,3.1,3.1,4.5c0.4,1.3,0.2,2.6-0.5,3.6c-0.7,1.1-1.8,2-3.3,2.9c-1.4,0.8-3.1,1.5-5,1.9c-1.9,0.4-4,0.5-6.3,0.3
      c-2.3-0.2-4.9-0.8-7.7-1.8c-2.8-1-5.9-2.4-9.3-4.4C193.2,85.8,190.8,84.1,189.1,82.5z M206,86.3c1.4,0.8,2.9,1.4,4.5,2
      c1.6,0.6,3.1,0.9,4.7,1.1c1.5,0.1,2.9-0.1,4.1-0.8c1.2-0.7,1.7-1.5,1.5-2.4c-0.2-0.9-0.9-1.8-1.8-2.7c-1-0.9-2.1-1.8-3.4-2.6
      s-2.4-1.5-3.4-2.1c-0.6-0.3-1.3-0.7-2.1-1.2c-0.8-0.5-1.7-0.9-2.7-1.4c-1-0.4-2-0.9-3-1.2c-1-0.4-2.1-0.7-3.1-0.9
      c-1-0.2-2-0.2-3-0.2c-1,0.1-1.9,0.4-2.7,0.8c-0.8,0.5-1.3,1-1.4,1.5s0,1.1,0.3,1.7c0.3,0.6,0.8,1.2,1.5,1.8
      c0.7,0.6,1.4,1.2,2.2,1.7c0.8,0.5,1.6,1.1,2.4,1.5s1.5,0.9,2.1,1.2C203.4,84.9,204.6,85.5,206,86.3z"/>
    <path style="fill:#A58234;" d="M237.5,75.1l7.4,4.3l-6.6,3.8l-7.4-4.3L237.5,75.1z"/>
    <path style="fill:#A58234;" d="M223.9,62.4c-1.7-1.6-2.7-3.1-3.1-4.4c-0.4-1.3-0.2-2.6,0.5-3.6c0.7-1.1,1.8-2,3.2-2.9
      c1.5-0.9,3.1-1.5,5-1.9s4-0.5,6.3-0.3c2.3,0.2,4.9,0.8,7.7,1.8c2.8,1,5.8,2.4,9.1,4.3c3.4,1.9,5.9,3.7,7.6,5.4
      c1.7,1.6,2.7,3.1,3.1,4.5c0.4,1.3,0.2,2.6-0.5,3.6c-0.7,1.1-1.8,2-3.3,2.9c-1.4,0.8-3.1,1.5-5,1.9c-1.9,0.4-4,0.5-6.3,0.3
      c-2.3-0.2-4.9-0.8-7.7-1.8c-2.8-1-5.9-2.4-9.3-4.4C228,65.7,225.6,64,223.9,62.4z M240.8,66.2c1.4,0.8,2.9,1.4,4.5,2
      c1.6,0.6,3.1,0.9,4.7,1.1c1.5,0.1,2.9-0.1,4.1-0.8c1.2-0.7,1.7-1.5,1.5-2.4c-0.2-0.9-0.9-1.8-1.8-2.7s-2.1-1.8-3.4-2.6
      s-2.4-1.5-3.4-2.1c-0.6-0.3-1.3-0.7-2.1-1.2c-0.8-0.5-1.7-0.9-2.7-1.4c-1-0.4-2-0.9-3-1.2c-1-0.4-2.1-0.7-3.1-0.9s-2-0.2-3-0.2
      c-1,0.1-1.9,0.4-2.7,0.8c-0.8,0.5-1.3,1-1.4,1.5c-0.1,0.6,0,1.1,0.3,1.7c0.3,0.6,0.8,1.2,1.5,1.8c0.7,0.6,1.4,1.2,2.2,1.7
      s1.6,1.1,2.4,1.5c0.8,0.5,1.5,0.9,2.1,1.2C238.2,64.8,239.4,65.4,240.8,66.2z"/>
  </g>
</g>
</svg>
