<svg xmlns="http://www.w3.org/2000/svg" viewBox="0 0 800 663" id="over_the_air">
  <defs>
    <linearGradient id="linearGradient-1" x1="50%" x2="50%" y1="0%" y2="100%">
      <stop offset="0%" stop-color="#E8E8E8"/>
      <stop offset="100%" stop-color="#B7B3B3"/>
    </linearGradient>
    <linearGradient x1="50%" x2="50%" y1="0%" y2="100%">
      <stop offset="0%" stop-color="#BBB7B7"/>
      <stop offset="100%" stop-color="#888"/>
    </linearGradient>
  </defs>
  <g fill="none" fill-rule="evenodd">
    <g id="over_the_air-animejs-wifi-1-3" fill="#F8E71C" fill-rule="nonzero" transform="translate(127 239)">
      <path d="M33.9202924,0.00677510358 C47.0840936,0.186992844 58.0877778,4.70192149 67.2097661,13.7846246 C69.0995322,15.6667482 69.5312865,17.9282776 68.3221053,19.4879063 C67.0887135,21.0787005 64.6380702,21.2562082 62.4268421,19.861892 C61.7950643,19.4521489 61.2056808,18.9795909 60.6675439,18.4513156 C46.1345029,4.4918933 23.8446784,4.0379614 8.70099415,17.4187899 C7.23491228,18.7141895 5.63298246,19.599018 3.6248538,19.4608059 C2.22064327,19.3645994 1.09081871,18.7575502 0.458654971,17.4404702 C-0.189649123,16.0854496 0.197719298,14.8510258 1.04374269,13.7331338 C1.42505114,13.2529055 1.85014104,12.8096874 2.31345029,12.4092787 C11.407193,4.1897237 22.1216959,0.211383215 33.9202924,0.00677510358 Z"/>
    </g>
    <g id="over_the_air-animejs-wifi-1-2" fill="#FFF67F" fill-rule="nonzero" transform="translate(137 254)">
      <path d="M24.8564327,0.426909564 C33.9246199,0.611192366 41.4245029,4.07055997 48.0945029,9.60446411 C48.9311111,10.2982347 49.524269,11.239974 49.9210526,12.2670796 C50.4254386,13.5706094 50.5088304,14.8822694 49.5350292,16.0123565 C48.5370175,17.1681891 47.2014035,17.360602 45.7918129,17.0421722 C44.2773099,16.700707 43.1111696,15.7576127 41.9773099,14.7386372 C32.9346784,6.58412318 19.5233918,6.02043461 9.96561404,13.3836166 C9.10883041,14.0435116 8.32333333,14.7969031 7.51093567,15.513709 C6.26409357,16.6126307 4.8625731,17.2982711 3.15842105,17.161414 C0.939122807,16.9839063 -0.349415205,15.0963626 0.259883041,12.95001 C0.57884848,11.8522711 1.19669809,10.8665076 2.04339181,10.1044667 C8.57350877,4.06107482 16.1594737,0.555636521 24.8564327,0.426909564 Z"/>
    </g>
    <g id="over_the_air-animejs-wifi-1-1" fill="#FFF9AC" fill-rule="nonzero" transform="translate(146 270)">
      <path d="M17.5484795,0.493388853 C22.2444185,0.579108596 26.7097055,2.56008934 29.942924,5.99206246 C31.0848538,7.19396573 31.8730409,8.54898634 31.4224561,10.3281284 C30.8521637,12.5950779 28.1459649,13.657414 26.2615789,11.8985973 C20.3972515,6.42431403 12.2396491,6.38366341 6.02157895,11.5855875 C4.28649123,13.0368146 3.17280702,13.1560564 1.78608187,12.0368094 C0.399356725,10.9175624 0.0630994152,9.02324355 0.985789474,7.29423726 C1.48345029,6.36198308 2.21111111,5.62756192 3.01812865,4.96360182 C6.57976608,2.0421774 11.1730409,0.483903709 17.5484795,0.493388853 Z"/>
    </g>
    <g id="over_the_air-animejs-wifi-2-3" fill="#F8E71C" fill-rule="nonzero" transform="translate(366 239)">
      <path d="M33.9202924,0.00677510358 C47.0840936,0.186992844 58.0877778,4.70192149 67.2097661,13.7846246 C69.0995322,15.6667482 69.5312865,17.9282776 68.3221053,19.4879063 C67.0887135,21.0787005 64.6380702,21.2562082 62.4268421,19.861892 C61.7950643,19.4521489 61.2056808,18.9795909 60.6675439,18.4513156 C46.1345029,4.4918933 23.8446784,4.0379614 8.70099415,17.4187899 C7.23491228,18.7141895 5.63298246,19.599018 3.6248538,19.4608059 C2.22064327,19.3645994 1.09081871,18.7575502 0.458654971,17.4404702 C-0.189649123,16.0854496 0.197719298,14.8510258 1.04374269,13.7331338 C1.42505114,13.2529055 1.85014104,12.8096874 2.31345029,12.4092787 C11.407193,4.1897237 22.1216959,0.211383215 33.9202924,0.00677510358 Z"/>
    </g>
    <g id="over_the_air-animejs-wifi-2-2" fill="#FFF67F" fill-rule="nonzero" transform="translate(376 254)">
      <path d="M24.8564327,0.426909564 C33.9246199,0.611192366 41.4245029,4.07055997 48.0945029,9.60446411 C48.9311111,10.2982347 49.524269,11.239974 49.9210526,12.2670796 C50.4254386,13.5706094 50.5088304,14.8822694 49.5350292,16.0123565 C48.5370175,17.1681891 47.2014035,17.360602 45.7918129,17.0421722 C44.2773099,16.700707 43.1111696,15.7576127 41.9773099,14.7386372 C32.9346784,6.58412318 19.5233918,6.02043461 9.96561404,13.3836166 C9.10883041,14.0435116 8.32333333,14.7969031 7.51093567,15.513709 C6.26409357,16.6126307 4.8625731,17.2982711 3.15842105,17.161414 C0.939122807,16.9839063 -0.349415205,15.0963626 0.259883041,12.95001 C0.57884848,11.8522711 1.19669809,10.8665076 2.04339181,10.1044667 C8.57350877,4.06107482 16.1594737,0.555636521 24.8564327,0.426909564 Z"/>
    </g>
    <g id="over_the_air-animejs-down-1" fill="#FF003C" fill-rule="nonzero" transform="translate(213 242)">
      <g>
        <path d="M29.53128,25.84014 L25.84008,29.53134 L20.39988,24.09114 L14.95968,29.53134 L11.26848,25.84014 L16.70868,20.39994 L11.26848,14.95974 L14.95968,11.26854 L20.39988,16.70874 L25.84008,11.26854 L29.53128,14.95974 L24.09168,20.39994 L29.53128,25.84014 Z M34.84248,5.95794 C30.95628,2.13714 25.84008,-6e-05 20.39988,-6e-05 C14.95968,-6e-05 9.77928,2.13714 5.95788,5.95794 C2.13708,9.84354 -0.00012,14.95974 -0.00012,20.39994 C-0.00012,25.84014 2.13708,31.02054 5.95788,34.84194 C9.84348,38.66334 14.95968,40.79994 20.39988,40.79994 C25.84008,40.79994 30.95628,38.66334 34.84248,34.84194 C38.66328,30.95634 40.79988,25.84014 40.79988,20.39994 C40.79988,14.95974 38.66328,9.77874 34.84248,5.95794 Z"/>
      </g>
    </g>
    <g id="over_the_air-animejs-down-3" fill="#FF003C" fill-rule="nonzero" transform="translate(690 242)">
      <g>
        <path d="M29.53128,25.84014 L25.84008,29.53134 L20.39988,24.09114 L14.95968,29.53134 L11.26848,25.84014 L16.70868,20.39994 L11.26848,14.95974 L14.95968,11.26854 L20.39988,16.70874 L25.84008,11.26854 L29.53128,14.95974 L24.09168,20.39994 L29.53128,25.84014 Z M34.84248,5.95794 C30.95628,2.13714 25.84008,-6e-05 20.39988,-6e-05 C14.95968,-6e-05 9.77928,2.13714 5.95788,5.95794 C2.13708,9.84354 -0.00012,14.95974 -0.00012,20.39994 C-0.00012,25.84014 2.13708,31.02054 5.95788,34.84194 C9.84348,38.66334 14.95968,40.79994 20.39988,40.79994 C25.84008,40.79994 30.95628,38.66334 34.84248,34.84194 C38.66328,30.95634 40.79988,25.84014 40.79988,20.39994 C40.79988,14.95974 38.66328,9.77874 34.84248,5.95794 Z"/>
      </g>
    </g>
    <g id="over_the_air-animejs-down-2" fill="#FF003C" fill-rule="nonzero" transform="translate(451 242)">
      <g>
        <path d="M29.53128,25.84014 L25.84008,29.53134 L20.39988,24.09114 L14.95968,29.53134 L11.26848,25.84014 L16.70868,20.39994 L11.26848,14.95974 L14.95968,11.26854 L20.39988,16.70874 L25.84008,11.26854 L29.53128,14.95974 L24.09168,20.39994 L29.53128,25.84014 Z M34.84248,5.95794 C30.95628,2.13714 25.84008,-6e-05 20.39988,-6e-05 C14.95968,-6e-05 9.77928,2.13714 5.95788,5.95794 C2.13708,9.84354 -0.00012,14.95974 -0.00012,20.39994 C-0.00012,25.84014 2.13708,31.02054 5.95788,34.84194 C9.84348,38.66334 14.95968,40.79994 20.39988,40.79994 C25.84008,40.79994 30.95628,38.66334 34.84248,34.84194 C38.66328,30.95634 40.79988,25.84014 40.79988,20.39994 C40.79988,14.95974 38.66328,9.77874 34.84248,5.95794 Z"/>
      </g>
    </g>
    <g id="over_the_air-animejs-wifi-2-1" fill="#FFF9AC" fill-rule="nonzero" transform="translate(385 270)">
      <path d="M17.5484795,0.493388853 C22.2444185,0.579108596 26.7097055,2.56008934 29.942924,5.99206246 C31.0848538,7.19396573 31.8730409,8.54898634 31.4224561,10.3281284 C30.8521637,12.5950779 28.1459649,13.657414 26.2615789,11.8985973 C20.3972515,6.42431403 12.2396491,6.38366341 6.02157895,11.5855875 C4.28649123,13.0368146 3.17280702,13.1560564 1.78608187,12.0368094 C0.399356725,10.9175624 0.0630994152,9.02324355 0.985789474,7.29423726 C1.48345029,6.36198308 2.21111111,5.62756192 3.01812865,4.96360182 C6.57976608,2.0421774 11.1730409,0.483903709 17.5484795,0.493388853 Z"/>
    </g>
    <g id="over_the_air-animejs-wifi-3-3" fill="#F8E71C" fill-rule="nonzero" transform="translate(604 239)">
      <path d="M33.9202924,0.00677510358 C47.0840936,0.186992844 58.0877778,4.70192149 67.2097661,13.7846246 C69.0995322,15.6667482 69.5312865,17.9282776 68.3221053,19.4879063 C67.0887135,21.0787005 64.6380702,21.2562082 62.4268421,19.861892 C61.7950643,19.4521489 61.2056808,18.9795909 60.6675439,18.4513156 C46.1345029,4.4918933 23.8446784,4.0379614 8.70099415,17.4187899 C7.23491228,18.7141895 5.63298246,19.599018 3.6248538,19.4608059 C2.22064327,19.3645994 1.09081871,18.7575502 0.458654971,17.4404702 C-0.189649123,16.0854496 0.197719298,14.8510258 1.04374269,13.7331338 C1.42505114,13.2529055 1.85014104,12.8096874 2.31345029,12.4092787 C11.407193,4.1897237 22.1216959,0.211383215 33.9202924,0.00677510358 Z"/>
    </g>
    <g id="over_the_air-animejs-wifi-3-2" fill="#FFF67F" fill-rule="nonzero" transform="translate(614 254)">
      <path d="M24.8564327,0.426909564 C33.9246199,0.611192366 41.4245029,4.07055997 48.0945029,9.60446411 C48.9311111,10.2982347 49.524269,11.239974 49.9210526,12.2670796 C50.4254386,13.5706094 50.5088304,14.8822694 49.5350292,16.0123565 C48.5370175,17.1681891 47.2014035,17.360602 45.7918129,17.0421722 C44.2773099,16.700707 43.1111696,15.7576127 41.9773099,14.7386372 C32.9346784,6.58412318 19.5233918,6.02043461 9.96561404,13.3836166 C9.10883041,14.0435116 8.32333333,14.7969031 7.51093567,15.513709 C6.26409357,16.6126307 4.8625731,17.2982711 3.15842105,17.161414 C0.939122807,16.9839063 -0.349415205,15.0963626 0.259883041,12.95001 C0.57884848,11.8522711 1.19669809,10.8665076 2.04339181,10.1044667 C8.57350877,4.06107482 16.1594737,0.555636521 24.8564327,0.426909564 Z"/>
    </g>
    <g id="over_the_air-animejs-wifi-3-1" fill="#FFF9AC" fill-rule="nonzero" transform="translate(623 270)">
      <path d="M17.5484795,0.493388853 C22.2444185,0.579108596 26.7097055,2.56008934 29.942924,5.99206246 C31.0848538,7.19396573 31.8730409,8.54898634 31.4224561,10.3281284 C30.8521637,12.5950779 28.1459649,13.657414 26.2615789,11.8985973 C20.3972515,6.42431403 12.2396491,6.38366341 6.02157895,11.5855875 C4.28649123,13.0368146 3.17280702,13.1560564 1.78608187,12.0368094 C0.399356725,10.9175624 0.0630994152,9.02324355 0.985789474,7.29423726 C1.48345029,6.36198308 2.21111111,5.62756192 3.01812865,4.96360182 C6.57976608,2.0421774 11.1730409,0.483903709 17.5484795,0.493388853 Z"/>
    </g>
    <g transform="translate(77 87)">
      <rect width="640" height="102" x="3.5" y="3.5" fill="#34302E" stroke="#7CB050" stroke-width="7"/>
      <text fill="#FFF" font-size="46" font-weight="bold" letter-spacing=".23" class="sans-serif">
        <tspan x="217.094" y="70">BACKEND</tspan>
      </text>
    </g>
    <g fill-rule="nonzero" transform="translate(307 297)">
      <rect width="182.6" height="282.6" x="1.2" y="1.2" fill="url(#linearGradient-1)" stroke="url(#linearGradient-2)" stroke-width="2.4"/>
      <rect width="31.96" height="31.994" x="143.534" y="244.972" fill="#1B4996" rx="7.022"/>
      <rect width="31.96" height="31.994" x="110.043" y="244.972" fill="#1B4996" rx="7.022"/>
      <rect width="31.96" height="31.994" x="76.552" y="244.972" fill="#1B4996" rx="7.022"/>
      <rect width="31.96" height="31.994" x="43.06" y="244.972" fill="#1B4996" rx="7.022"/>
      <rect width="31.96" height="31.994" x="9.569" y="244.972" fill="#1B4996" rx="7.022"/>
      <rect width="31.96" height="31.994" x="143.534" y="211.348" fill="#1B4996" rx="7.022"/>
      <rect width="31.96" height="31.994" x="110.043" y="211.348" fill="#1B4996" rx="7.022"/>
      <rect width="31.96" height="31.994" x="76.552" y="211.348" fill="#1B4996" rx="7.022"/>
      <rect width="31.96" height="31.994" x="43.06" y="211.348" fill="#1B4996" rx="7.022"/>
      <rect width="31.96" height="31.994" x="9.569" y="211.348" fill="#1B4996" rx="7.022"/>
      <rect width="31.96" height="31.994" x="143.534" y="177.725" fill="#1B4996" rx="7.022"/>
      <rect width="31.96" height="31.994" x="110.043" y="177.725" fill="#1B4996" rx="7.022"/>
      <rect width="31.96" height="31.994" x="76.552" y="177.725" fill="#1B4996" rx="7.022"/>
      <rect width="31.96" height="31.994" x="43.06" y="177.725" fill="#1B4996" rx="7.022"/>
      <rect width="31.96" height="31.994" x="9.569" y="177.725" fill="#1B4996" rx="7.022"/>
      <rect width="31.96" height="31.994" x="143.534" y="144.101" fill="#1B4996" rx="7.022"/>
      <rect width="31.96" height="31.994" x="110.043" y="144.101" fill="#1B4996" rx="7.022"/>
      <rect width="31.96" height="31.994" x="76.552" y="144.101" fill="#1B4996" rx="7.022"/>
      <rect width="31.96" height="31.994" x="43.06" y="144.101" fill="#1B4996" rx="7.022"/>
      <rect width="31.96" height="31.994" x="9.569" y="144.101" fill="#1B4996" rx="7.022"/>
      <rect width="31.96" height="31.994" x="143.534" y="110.478" fill="#1B4996" rx="7.022"/>
      <rect width="31.96" height="31.994" x="110.043" y="110.478" fill="#1B4996" rx="7.022"/>
      <rect width="31.96" height="31.994" x="76.552" y="110.478" fill="#1B4996" rx="7.022"/>
      <rect width="31.96" height="31.994" x="43.06" y="110.478" fill="#1B4996" rx="7.022"/>
      <rect width="31.96" height="31.994" x="9.569" y="110.478" fill="#1B4996" rx="7.022"/>
      <rect width="31.96" height="31.994" x="143.534" y="76.854" fill="#1B4996" rx="7.022"/>
      <rect width="31.96" height="31.994" x="110.043" y="76.854" fill="#1B4996" rx="7.022"/>
      <rect width="31.96" height="31.994" x="76.552" y="76.854" fill="#1B4996" rx="7.022"/>
      <rect width="31.96" height="31.994" x="43.06" y="76.854" fill="#1B4996" rx="7.022"/>
      <rect width="31.96" height="31.994" x="9.569" y="76.854" fill="#1B4996" rx="7.022"/>
      <rect width="31.96" height="31.994" x="143.534" y="43.23" fill="#1B4996" rx="7.022"/>
      <rect width="31.96" height="31.994" x="110.043" y="43.23" fill="#1B4996" rx="7.022"/>
      <rect width="31.96" height="31.994" x="76.552" y="43.23" fill="#1B4996" rx="7.022"/>
      <rect width="31.96" height="31.994" x="43.06" y="43.23" fill="#1B4996" rx="7.022"/>
      <rect width="31.96" height="31.994" x="9.569" y="43.23" fill="#1B4996" rx="7.022"/>
      <rect width="31.96" height="31.994" x="143.534" y="8.006" fill="#1B4996" rx="7.022"/>
      <rect width="31.96" height="31.994" x="110.043" y="8.006" fill="#1B4996" rx="7.022"/>
      <rect width="31.96" height="31.994" x="76.552" y="8.006" fill="#1B4996" rx="7.022"/>
      <rect width="31.96" height="31.994" x="43.06" y="8.006" fill="#1B4996" rx="7.022"/>
      <rect width="31.96" height="31.994" x="9.569" y="8.006" fill="#1B4996" rx="7.022"/>
      <rect width="1" height="268.632" x="167.457" y="8.006" fill="#C3BFBF"/>
      <rect width="1" height="268.632" x="153.103" y="8.006" fill="#C3BFBF"/>
      <rect width="1" height="268.632" x="133.966" y="8.006" fill="#C3BFBF"/>
      <rect width="1" height="268.632" x="119.612" y="8.006" fill="#C3BFBF"/>
      <rect width="1" height="268.632" x="98.879" y="8.006" fill="#C3BFBF"/>
      <rect width="1" height="268.632" x="84.526" y="8.006" fill="#C3BFBF"/>
      <rect width="1" height="268.632" x="65.388" y="8.006" fill="#C3BFBF"/>
      <rect width="1" height="268.632" x="51.034" y="8.006" fill="#C3BFBF"/>
      <rect width="1" height="268.632" x="31.897" y="8.006" fill="#C3BFBF"/>
      <rect width="1" height="268.632" x="17.543" y="8.006" fill="#C3BFBF"/>
    </g>
    <g fill-rule="nonzero" transform="translate(69 297)">
      <rect width="182.6" height="282.6" x="1.2" y="1.2" fill="url(#linearGradient-1)" stroke="url(#linearGradient-2)" stroke-width="2.4"/>
      <rect width="31.96" height="31.994" x="143.534" y="244.972" fill="#1B4996" rx="7.022"/>
      <rect width="31.96" height="31.994" x="110.043" y="244.972" fill="#1B4996" rx="7.022"/>
      <rect width="31.96" height="31.994" x="76.552" y="244.972" fill="#1B4996" rx="7.022"/>
      <rect width="31.96" height="31.994" x="43.06" y="244.972" fill="#1B4996" rx="7.022"/>
      <rect width="31.96" height="31.994" x="9.569" y="244.972" fill="#1B4996" rx="7.022"/>
      <rect width="31.96" height="31.994" x="143.534" y="211.348" fill="#1B4996" rx="7.022"/>
      <rect width="31.96" height="31.994" x="110.043" y="211.348" fill="#1B4996" rx="7.022"/>
      <rect width="31.96" height="31.994" x="76.552" y="211.348" fill="#1B4996" rx="7.022"/>
      <rect width="31.96" height="31.994" x="43.06" y="211.348" fill="#1B4996" rx="7.022"/>
      <rect width="31.96" height="31.994" x="9.569" y="211.348" fill="#1B4996" rx="7.022"/>
      <rect width="31.96" height="31.994" x="143.534" y="177.725" fill="#1B4996" rx="7.022"/>
      <rect width="31.96" height="31.994" x="110.043" y="177.725" fill="#1B4996" rx="7.022"/>
      <rect width="31.96" height="31.994" x="76.552" y="177.725" fill="#1B4996" rx="7.022"/>
      <rect width="31.96" height="31.994" x="43.06" y="177.725" fill="#1B4996" rx="7.022"/>
      <rect width="31.96" height="31.994" x="9.569" y="177.725" fill="#1B4996" rx="7.022"/>
      <rect width="31.96" height="31.994" x="143.534" y="144.101" fill="#1B4996" rx="7.022"/>
      <rect width="31.96" height="31.994" x="110.043" y="144.101" fill="#1B4996" rx="7.022"/>
      <rect width="31.96" height="31.994" x="76.552" y="144.101" fill="#1B4996" rx="7.022"/>
      <rect width="31.96" height="31.994" x="43.06" y="144.101" fill="#1B4996" rx="7.022"/>
      <rect width="31.96" height="31.994" x="9.569" y="144.101" fill="#1B4996" rx="7.022"/>
      <rect width="31.96" height="31.994" x="143.534" y="110.478" fill="#1B4996" rx="7.022"/>
      <rect width="31.96" height="31.994" x="110.043" y="110.478" fill="#1B4996" rx="7.022"/>
      <rect width="31.96" height="31.994" x="76.552" y="110.478" fill="#1B4996" rx="7.022"/>
      <rect width="31.96" height="31.994" x="43.06" y="110.478" fill="#1B4996" rx="7.022"/>
      <rect width="31.96" height="31.994" x="9.569" y="110.478" fill="#1B4996" rx="7.022"/>
      <rect width="31.96" height="31.994" x="143.534" y="76.854" fill="#1B4996" rx="7.022"/>
      <rect width="31.96" height="31.994" x="110.043" y="76.854" fill="#1B4996" rx="7.022"/>
      <rect width="31.96" height="31.994" x="76.552" y="76.854" fill="#1B4996" rx="7.022"/>
      <rect width="31.96" height="31.994" x="43.06" y="76.854" fill="#1B4996" rx="7.022"/>
      <rect width="31.96" height="31.994" x="9.569" y="76.854" fill="#1B4996" rx="7.022"/>
      <rect width="31.96" height="31.994" x="143.534" y="43.23" fill="#1B4996" rx="7.022"/>
      <rect width="31.96" height="31.994" x="110.043" y="43.23" fill="#1B4996" rx="7.022"/>
      <rect width="31.96" height="31.994" x="76.552" y="43.23" fill="#1B4996" rx="7.022"/>
      <rect width="31.96" height="31.994" x="43.06" y="43.23" fill="#1B4996" rx="7.022"/>
      <rect width="31.96" height="31.994" x="9.569" y="43.23" fill="#1B4996" rx="7.022"/>
      <rect width="31.96" height="31.994" x="143.534" y="8.006" fill="#1B4996" rx="7.022"/>
      <rect width="31.96" height="31.994" x="110.043" y="8.006" fill="#1B4996" rx="7.022"/>
      <rect width="31.96" height="31.994" x="76.552" y="8.006" fill="#1B4996" rx="7.022"/>
      <rect width="31.96" height="31.994" x="43.06" y="8.006" fill="#1B4996" rx="7.022"/>
      <rect width="31.96" height="31.994" x="9.569" y="8.006" fill="#1B4996" rx="7.022"/>
      <rect width="1" height="268.632" x="167.457" y="8.006" fill="#C3BFBF"/>
      <rect width="1" height="268.632" x="153.103" y="8.006" fill="#C3BFBF"/>
      <rect width="1" height="268.632" x="133.966" y="8.006" fill="#C3BFBF"/>
      <rect width="1" height="268.632" x="119.612" y="8.006" fill="#C3BFBF"/>
      <rect width="1" height="268.632" x="98.879" y="8.006" fill="#C3BFBF"/>
      <rect width="1" height="268.632" x="84.526" y="8.006" fill="#C3BFBF"/>
      <rect width="1" height="268.632" x="65.388" y="8.006" fill="#C3BFBF"/>
      <rect width="1" height="268.632" x="51.034" y="8.006" fill="#C3BFBF"/>
      <rect width="1" height="268.632" x="31.897" y="8.006" fill="#C3BFBF"/>
      <rect width="1" height="268.632" x="17.543" y="8.006" fill="#C3BFBF"/>
    </g>
    <g fill-rule="nonzero" transform="translate(546 297)">
      <rect width="182.6" height="282.6" x="1.2" y="1.2" fill="url(#linearGradient-1)" stroke="url(#linearGradient-2)" stroke-width="2.4"/>
      <rect width="31.96" height="31.994" x="143.534" y="244.972" fill="#1B4996" rx="7.022"/>
      <rect width="31.96" height="31.994" x="110.043" y="244.972" fill="#1B4996" rx="7.022"/>
      <rect width="31.96" height="31.994" x="76.552" y="244.972" fill="#1B4996" rx="7.022"/>
      <rect width="31.96" height="31.994" x="43.06" y="244.972" fill="#1B4996" rx="7.022"/>
      <rect width="31.96" height="31.994" x="9.569" y="244.972" fill="#1B4996" rx="7.022"/>
      <rect width="31.96" height="31.994" x="143.534" y="211.348" fill="#1B4996" rx="7.022"/>
      <rect width="31.96" height="31.994" x="110.043" y="211.348" fill="#1B4996" rx="7.022"/>
      <rect width="31.96" height="31.994" x="76.552" y="211.348" fill="#1B4996" rx="7.022"/>
      <rect width="31.96" height="31.994" x="43.06" y="211.348" fill="#1B4996" rx="7.022"/>
      <rect width="31.96" height="31.994" x="9.569" y="211.348" fill="#1B4996" rx="7.022"/>
      <rect width="31.96" height="31.994" x="143.534" y="177.725" fill="#1B4996" rx="7.022"/>
      <rect width="31.96" height="31.994" x="110.043" y="177.725" fill="#1B4996" rx="7.022"/>
      <rect width="31.96" height="31.994" x="76.552" y="177.725" fill="#1B4996" rx="7.022"/>
      <rect width="31.96" height="31.994" x="43.06" y="177.725" fill="#1B4996" rx="7.022"/>
      <rect width="31.96" height="31.994" x="9.569" y="177.725" fill="#1B4996" rx="7.022"/>
      <rect width="31.96" height="31.994" x="143.534" y="144.101" fill="#1B4996" rx="7.022"/>
      <rect width="31.96" height="31.994" x="110.043" y="144.101" fill="#1B4996" rx="7.022"/>
      <rect width="31.96" height="31.994" x="76.552" y="144.101" fill="#1B4996" rx="7.022"/>
      <rect width="31.96" height="31.994" x="43.06" y="144.101" fill="#1B4996" rx="7.022"/>
      <rect width="31.96" height="31.994" x="9.569" y="144.101" fill="#1B4996" rx="7.022"/>
      <rect width="31.96" height="31.994" x="143.534" y="110.478" fill="#1B4996" rx="7.022"/>
      <rect width="31.96" height="31.994" x="110.043" y="110.478" fill="#1B4996" rx="7.022"/>
      <rect width="31.96" height="31.994" x="76.552" y="110.478" fill="#1B4996" rx="7.022"/>
      <rect width="31.96" height="31.994" x="43.06" y="110.478" fill="#1B4996" rx="7.022"/>
      <rect width="31.96" height="31.994" x="9.569" y="110.478" fill="#1B4996" rx="7.022"/>
      <rect width="31.96" height="31.994" x="143.534" y="76.854" fill="#1B4996" rx="7.022"/>
      <rect width="31.96" height="31.994" x="110.043" y="76.854" fill="#1B4996" rx="7.022"/>
      <rect width="31.96" height="31.994" x="76.552" y="76.854" fill="#1B4996" rx="7.022"/>
      <rect width="31.96" height="31.994" x="43.06" y="76.854" fill="#1B4996" rx="7.022"/>
      <rect width="31.96" height="31.994" x="9.569" y="76.854" fill="#1B4996" rx="7.022"/>
      <rect width="31.96" height="31.994" x="143.534" y="43.23" fill="#1B4996" rx="7.022"/>
      <rect width="31.96" height="31.994" x="110.043" y="43.23" fill="#1B4996" rx="7.022"/>
      <rect width="31.96" height="31.994" x="76.552" y="43.23" fill="#1B4996" rx="7.022"/>
      <rect width="31.96" height="31.994" x="43.06" y="43.23" fill="#1B4996" rx="7.022"/>
      <rect width="31.96" height="31.994" x="9.569" y="43.23" fill="#1B4996" rx="7.022"/>
      <rect width="31.96" height="31.994" x="143.534" y="8.006" fill="#1B4996" rx="7.022"/>
      <rect width="31.96" height="31.994" x="110.043" y="8.006" fill="#1B4996" rx="7.022"/>
      <rect width="31.96" height="31.994" x="76.552" y="8.006" fill="#1B4996" rx="7.022"/>
      <rect width="31.96" height="31.994" x="43.06" y="8.006" fill="#1B4996" rx="7.022"/>
      <rect width="31.96" height="31.994" x="9.569" y="8.006" fill="#1B4996" rx="7.022"/>
      <rect width="1" height="268.632" x="167.457" y="8.006" fill="#C3BFBF"/>
      <rect width="1" height="268.632" x="153.103" y="8.006" fill="#C3BFBF"/>
      <rect width="1" height="268.632" x="133.966" y="8.006" fill="#C3BFBF"/>
      <rect width="1" height="268.632" x="119.612" y="8.006" fill="#C3BFBF"/>
      <rect width="1" height="268.632" x="98.879" y="8.006" fill="#C3BFBF"/>
      <rect width="1" height="268.632" x="84.526" y="8.006" fill="#C3BFBF"/>
      <rect width="1" height="268.632" x="65.388" y="8.006" fill="#C3BFBF"/>
      <rect width="1" height="268.632" x="51.034" y="8.006" fill="#C3BFBF"/>
      <rect width="1" height="268.632" x="31.897" y="8.006" fill="#C3BFBF"/>
      <rect width="1" height="268.632" x="17.543" y="8.006" fill="#C3BFBF"/>
    </g>
  </g>
</svg>
