<svg xmlns="http://www.w3.org/2000/svg" viewBox="0 0 800 564" id="scaling">
  <g fill="none" fill-rule="evenodd">
    <g id="scaling-animejs-server2" transform="translate(555 110)">
      <g>
        <path fill="#7C7C7C" d="M140,260.436888 L140,282.003361 C140,283.194445 139.271161,284.160008 138.372093,284.160008 L1.62790688,284.160008 C0.728838736,284.160008 1.10104092e-16,283.194445 0,282.003361 L0,260.436888 C-1.10104092e-16,259.245805 0.728838736,258.280241 1.62790688,258.280241 L138.372093,258.280241 C139.271161,258.280241 140,259.245805 140,260.436888 Z"/>
        <g transform="translate(5.986 265.052)">
          <polygon fill="#D8D8D8" points="22.141 0 101.434 0 101.434 3.081 22.141 3.081"/>
          <polygon fill="#D7D7D7" points="5.53 0 8.602 0 8.602 3.072 5.53 3.072"/>
          <polygon fill="#D7D7D7" points="0 0 3.072 0 3.072 3.072 0 3.072"/>
          <polygon fill="#00CD00" points="119 0 122.072 0 122.072 3.072 119 3.072"/>
          <polygon fill="#D7D400" points="114 0 117.072 0 117.072 3.072 114 3.072"/>
          <polygon fill="#FF3C00" points="109 0 112.072 0 112.072 3.072 109 3.072"/>
          <polygon fill="#00CD00" points="124 0 127.072 0 127.072 3.072 124 3.072"/>
        </g>
        <g transform="translate(5.986 270.444)">
          <polygon fill="#D8D8D8" points="22.141 0 101.434 0 101.434 3.081 22.141 3.081"/>
          <polygon fill="#D7D7D7" points="5.53 0 8.602 0 8.602 3.072 5.53 3.072"/>
          <polygon fill="#D7D7D7" points="0 0 3.072 0 3.072 3.072 0 3.072"/>
          <polygon fill="#00CD00" points="119 0 122.072 0 122.072 3.072 119 3.072"/>
          <polygon fill="#D7D400" points="114 0 117.072 0 117.072 3.072 114 3.072"/>
          <polygon fill="#FF3C00" points="109 0 112.072 0 112.072 3.072 109 3.072"/>
          <polygon fill="#00CD00" points="124 0 127.072 0 127.072 3.072 124 3.072"/>
        </g>
        <g transform="translate(5.986 275.836)">
          <polygon fill="#D8D8D8" points="22.141 0 101.434 0 101.434 3.081 22.141 3.081"/>
          <polygon fill="#D7D7D7" points="5.53 0 8.602 0 8.602 3.072 5.53 3.072"/>
          <polygon fill="#D7D7D7" points="0 0 3.072 0 3.072 3.072 0 3.072"/>
          <polygon fill="#00CD00" points="119 0 122.072 0 122.072 3.072 119 3.072"/>
          <polygon fill="#D7D400" points="114 0 117.072 0 117.072 3.072 114 3.072"/>
          <polygon fill="#FF3C00" points="109 0 112.072 0 112.072 3.072 109 3.072"/>
          <polygon fill="#00CD00" points="124 0 127.072 0 127.072 3.072 124 3.072"/>
        </g>
        <path fill="#7C7C7C" d="M140,2.30399993 L140,252.979192 C140,254.251656 139.271161,255.283192 138.372093,255.283192 L1.62790688,255.283192 C0.728838736,255.283192 1.10104092e-16,254.251656 0,252.979192 L0,2.30399993 C-1.10104092e-16,1.03153591 0.728838736,2.33747849e-16 1.62790688,0 L138.372093,0 C139.271161,1.21981781e-14 140,1.03153591 140,2.30399993 Z"/>
        <polygon fill="#D7D7D7" points="6.758 246.067 133.768 246.067 133.768 249.139 6.758 249.139"/>
        <polygon fill="#D7D7D7" points="5.99 16.589 133.004 16.589 133.004 19.661 5.99 19.661"/>
        <polygon fill="#D7D7D7" points="5.99 11.059 133.004 11.059 133.004 14.131 5.99 14.131"/>
        <polygon fill="#D7D7D7" points="5.99 5.53 133.004 5.53 133.004 8.602 5.99 8.602"/>
        <path fill="#FFF" d="M6.61482842,25.8810795 L132.371218,25.8810795 C132.718485,25.8810795 133,26.2949136 133,26.8054038 L133,239.399986 C133,239.910476 132.718485,240.32431 132.371218,240.32431 L6.61482842,240.32431 C6.26756176,240.32431 5.98604651,239.910476 5.98604651,239.399986 L5.98604651,26.8054038 C5.98604651,26.2949136 6.26756176,25.8810795 6.61482842,25.8810795 Z"/>
      </g>
      <g id="scaling-animejs-app6" transform="translate(14 34)">
        <g>
          <path fill="#00C176" d="M110.879999,93.7313264 C110.879999,94.3229146 110.532824,94.8023993 110.104393,94.8023993 L0.775606287,94.8023993 C0.347174829,94.8023993 0,94.3229146 0,93.7313264 L0,2.77199998 C-1.87485259e-16,1.24106666 1.24106666,-3.27148579e-15 2.77199998,-3.55271368e-15 L108.107999,0 C109.638933,-2.81227888e-16 110.879999,1.24106666 110.879999,2.77199998 L110.879999,93.7313264 Z"/>
          <text fill="#FFF" font-size="18.85" font-weight="bold" class="sans-serif">
            <tspan x="36.061" y="60.243">APP</tspan>
          </text>
          <path fill="#CCC" d="M2.77199998,0 L108.107999,-4.4408921e-16 C109.638933,-7.25317098e-16 110.879999,1.24106666 110.879999,2.77199998 L110.879999,12.7511999 L0,12.7511999 L-4.4408921e-16,2.77199998 C-6.31574468e-16,1.24106666 1.24106666,-1.62861322e-16 2.77199998,-4.4408921e-16 Z"/>
          <path fill="#E74C3C" d="M9.42479993,6.92999995 C9.42479993,8.30799417 8.30799417,9.42479993 6.92999995,9.42479993 C5.55200574,9.42479993 4.43519997,8.30799417 4.43519997,6.92999995 C4.43519997,5.55200574 5.55200574,4.43519997 6.92999995,4.43519997 C8.30799417,4.43519997 9.42479993,5.55200574 9.42479993,6.92999995"/>
          <path fill="#F1C40F" d="M18.2951999,6.92999995 C18.2951999,8.30799417 17.1783941,9.42479993 15.8003999,9.42479993 C14.4224057,9.42479993 13.3055999,8.30799417 13.3055999,6.92999995 C13.3055999,5.55200574 14.4224057,4.43519997 15.8003999,4.43519997 C17.1783941,4.43519997 18.2951999,5.55200574 18.2951999,6.92999995"/>
          <path fill="#2ECC71" d="M26.6111998,6.92999995 C26.6111998,8.30799417 25.494394,9.42479993 24.1163998,9.42479993 C22.7384056,9.42479993 21.6215998,8.30799417 21.6215998,6.92999995 C21.6215998,5.55200574 22.7384056,4.43519997 24.1163998,4.43519997 C25.494394,4.43519997 26.6111998,5.55200574 26.6111998,6.92999995"/>
        </g>
      </g>
    </g>
    <g transform="translate(405 110)">
      <g>
        <path fill="#7C7C7C" d="M140,260.436888 L140,282.003361 C140,283.194445 139.271161,284.160008 138.372093,284.160008 L1.62790688,284.160008 C0.728838736,284.160008 1.10104092e-16,283.194445 0,282.003361 L0,260.436888 C-1.10104092e-16,259.245805 0.728838736,258.280241 1.62790688,258.280241 L138.372093,258.280241 C139.271161,258.280241 140,259.245805 140,260.436888 Z"/>
        <g transform="translate(5.986 265.052)">
          <polygon fill="#D8D8D8" points="22.141 0 101.434 0 101.434 3.081 22.141 3.081"/>
          <polygon fill="#D7D7D7" points="5.53 0 8.602 0 8.602 3.072 5.53 3.072"/>
          <polygon fill="#D7D7D7" points="0 0 3.072 0 3.072 3.072 0 3.072"/>
          <polygon fill="#00CD00" points="119 0 122.072 0 122.072 3.072 119 3.072"/>
          <polygon fill="#D7D400" points="114 0 117.072 0 117.072 3.072 114 3.072"/>
          <polygon fill="#FF3C00" points="109 0 112.072 0 112.072 3.072 109 3.072"/>
          <polygon fill="#00CD00" points="124 0 127.072 0 127.072 3.072 124 3.072"/>
        </g>
        <g transform="translate(5.986 270.444)">
          <polygon fill="#D8D8D8" points="22.141 0 101.434 0 101.434 3.081 22.141 3.081"/>
          <polygon fill="#D7D7D7" points="5.53 0 8.602 0 8.602 3.072 5.53 3.072"/>
          <polygon fill="#D7D7D7" points="0 0 3.072 0 3.072 3.072 0 3.072"/>
          <polygon fill="#00CD00" points="119 0 122.072 0 122.072 3.072 119 3.072"/>
          <polygon fill="#D7D400" points="114 0 117.072 0 117.072 3.072 114 3.072"/>
          <polygon fill="#FF3C00" points="109 0 112.072 0 112.072 3.072 109 3.072"/>
          <polygon fill="#00CD00" points="124 0 127.072 0 127.072 3.072 124 3.072"/>
        </g>
        <g transform="translate(5.986 275.836)">
          <polygon fill="#D8D8D8" points="22.141 0 101.434 0 101.434 3.081 22.141 3.081"/>
          <polygon fill="#D7D7D7" points="5.53 0 8.602 0 8.602 3.072 5.53 3.072"/>
          <polygon fill="#D7D7D7" points="0 0 3.072 0 3.072 3.072 0 3.072"/>
          <polygon fill="#00CD00" points="119 0 122.072 0 122.072 3.072 119 3.072"/>
          <polygon fill="#D7D400" points="114 0 117.072 0 117.072 3.072 114 3.072"/>
          <polygon fill="#FF3C00" points="109 0 112.072 0 112.072 3.072 109 3.072"/>
          <polygon fill="#00CD00" points="124 0 127.072 0 127.072 3.072 124 3.072"/>
        </g>
        <path fill="#7C7C7C" d="M140,2.30399993 L140,252.979192 C140,254.251656 139.271161,255.283192 138.372093,255.283192 L1.62790688,255.283192 C0.728838736,255.283192 1.10104092e-16,254.251656 0,252.979192 L0,2.30399993 C-1.10104092e-16,1.03153591 0.728838736,2.33747849e-16 1.62790688,0 L138.372093,0 C139.271161,1.21981781e-14 140,1.03153591 140,2.30399993 Z"/>
        <polygon fill="#D7D7D7" points="6.758 246.067 133.768 246.067 133.768 249.139 6.758 249.139"/>
        <polygon fill="#D7D7D7" points="5.99 16.589 133.004 16.589 133.004 19.661 5.99 19.661"/>
        <polygon fill="#D7D7D7" points="5.99 11.059 133.004 11.059 133.004 14.131 5.99 14.131"/>
        <polygon fill="#D7D7D7" points="5.99 5.53 133.004 5.53 133.004 8.602 5.99 8.602"/>
        <path fill="#FFF" d="M6.61482842,25.8810795 L132.371218,25.8810795 C132.718485,25.8810795 133,26.2949136 133,26.8054038 L133,239.399986 C133,239.910476 132.718485,240.32431 132.371218,240.32431 L6.61482842,240.32431 C6.26756176,240.32431 5.98604651,239.910476 5.98604651,239.399986 L5.98604651,26.8054038 C5.98604651,26.2949136 6.26756176,25.8810795 6.61482842,25.8810795 Z"/>
      </g>
      <g id="scaling-animejs-app4" transform="translate(14 136)">
        <g>
          <path fill="#00C176" d="M110.879999,93.7313264 C110.879999,94.3229146 110.532824,94.8023993 110.104393,94.8023993 L0.775606287,94.8023993 C0.347174829,94.8023993 0,94.3229146 0,93.7313264 L0,2.77199998 C-1.87485259e-16,1.24106666 1.24106666,-3.27148579e-15 2.77199998,-3.55271368e-15 L108.107999,0 C109.638933,-2.81227888e-16 110.879999,1.24106666 110.879999,2.77199998 L110.879999,93.7313264 Z"/>
          <text fill="#FFF" font-size="18.85" font-weight="bold" class="sans-serif">
            <tspan x="36.061" y="60.243">APP</tspan>
          </text>
          <path fill="#CCC" d="M2.77199998,0 L108.107999,-4.4408921e-16 C109.638933,-7.25317098e-16 110.879999,1.24106666 110.879999,2.77199998 L110.879999,12.7511999 L0,12.7511999 L-4.4408921e-16,2.77199998 C-6.31574468e-16,1.24106666 1.24106666,-1.62861322e-16 2.77199998,-4.4408921e-16 Z"/>
          <path fill="#E74C3C" d="M9.42479993,6.92999995 C9.42479993,8.30799417 8.30799417,9.42479993 6.92999995,9.42479993 C5.55200574,9.42479993 4.43519997,8.30799417 4.43519997,6.92999995 C4.43519997,5.55200574 5.55200574,4.43519997 6.92999995,4.43519997 C8.30799417,4.43519997 9.42479993,5.55200574 9.42479993,6.92999995"/>
          <path fill="#F1C40F" d="M18.2951999,6.92999995 C18.2951999,8.30799417 17.1783941,9.42479993 15.8003999,9.42479993 C14.4224057,9.42479993 13.3055999,8.30799417 13.3055999,6.92999995 C13.3055999,5.55200574 14.4224057,4.43519997 15.8003999,4.43519997 C17.1783941,4.43519997 18.2951999,5.55200574 18.2951999,6.92999995"/>
          <path fill="#2ECC71" d="M26.6111998,6.92999995 C26.6111998,8.30799417 25.494394,9.42479993 24.1163998,9.42479993 C22.7384056,9.42479993 21.6215998,8.30799417 21.6215998,6.92999995 C21.6215998,5.55200574 22.7384056,4.43519997 24.1163998,4.43519997 C25.494394,4.43519997 26.6111998,5.55200574 26.6111998,6.92999995"/>
        </g>
      </g>
      <g id="scaling-animejs-app2" transform="translate(14 34)">
        <g>
          <path fill="#00C176" d="M110.879999,93.7313264 C110.879999,94.3229146 110.532824,94.8023993 110.104393,94.8023993 L0.775606287,94.8023993 C0.347174829,94.8023993 0,94.3229146 0,93.7313264 L0,2.77199998 C-1.87485259e-16,1.24106666 1.24106666,-3.27148579e-15 2.77199998,-3.55271368e-15 L108.107999,0 C109.638933,-2.81227888e-16 110.879999,1.24106666 110.879999,2.77199998 L110.879999,93.7313264 Z"/>
          <text fill="#FFF" font-size="18.85" font-weight="bold" class="sans-serif">
            <tspan x="36.061" y="60.243">APP</tspan>
          </text>
          <path fill="#CCC" d="M2.77199998,0 L108.107999,-4.4408921e-16 C109.638933,-7.25317098e-16 110.879999,1.24106666 110.879999,2.77199998 L110.879999,12.7511999 L0,12.7511999 L-4.4408921e-16,2.77199998 C-6.31574468e-16,1.24106666 1.24106666,-1.62861322e-16 2.77199998,-4.4408921e-16 Z"/>
          <path fill="#E74C3C" d="M9.42479993,6.92999995 C9.42479993,8.30799417 8.30799417,9.42479993 6.92999995,9.42479993 C5.55200574,9.42479993 4.43519997,8.30799417 4.43519997,6.92999995 C4.43519997,5.55200574 5.55200574,4.43519997 6.92999995,4.43519997 C8.30799417,4.43519997 9.42479993,5.55200574 9.42479993,6.92999995"/>
          <path fill="#F1C40F" d="M18.2951999,6.92999995 C18.2951999,8.30799417 17.1783941,9.42479993 15.8003999,9.42479993 C14.4224057,9.42479993 13.3055999,8.30799417 13.3055999,6.92999995 C13.3055999,5.55200574 14.4224057,4.43519997 15.8003999,4.43519997 C17.1783941,4.43519997 18.2951999,5.55200574 18.2951999,6.92999995"/>
          <path fill="#2ECC71" d="M26.6111998,6.92999995 C26.6111998,8.30799417 25.494394,9.42479993 24.1163998,9.42479993 C22.7384056,9.42479993 21.6215998,8.30799417 21.6215998,6.92999995 C21.6215998,5.55200574 22.7384056,4.43519997 24.1163998,4.43519997 C25.494394,4.43519997 26.6111998,5.55200574 26.6111998,6.92999995"/>
        </g>
      </g>
    </g>
    <g transform="translate(255 110)">
      <g>
        <path fill="#7C7C7C" d="M140,260.436888 L140,282.003361 C140,283.194445 139.271161,284.160008 138.372093,284.160008 L1.62790688,284.160008 C0.728838736,284.160008 1.10104092e-16,283.194445 0,282.003361 L0,260.436888 C-1.10104092e-16,259.245805 0.728838736,258.280241 1.62790688,258.280241 L138.372093,258.280241 C139.271161,258.280241 140,259.245805 140,260.436888 Z"/>
        <g transform="translate(5.986 265.052)">
          <polygon fill="#D8D8D8" points="22.141 0 101.434 0 101.434 3.081 22.141 3.081"/>
          <polygon fill="#D7D7D7" points="5.53 0 8.602 0 8.602 3.072 5.53 3.072"/>
          <polygon fill="#D7D7D7" points="0 0 3.072 0 3.072 3.072 0 3.072"/>
          <polygon fill="#00CD00" points="119 0 122.072 0 122.072 3.072 119 3.072"/>
          <polygon fill="#D7D400" points="114 0 117.072 0 117.072 3.072 114 3.072"/>
          <polygon fill="#FF3C00" points="109 0 112.072 0 112.072 3.072 109 3.072"/>
          <polygon fill="#00CD00" points="124 0 127.072 0 127.072 3.072 124 3.072"/>
        </g>
        <g transform="translate(5.986 270.444)">
          <polygon fill="#D8D8D8" points="22.141 0 101.434 0 101.434 3.081 22.141 3.081"/>
          <polygon fill="#D7D7D7" points="5.53 0 8.602 0 8.602 3.072 5.53 3.072"/>
          <polygon fill="#D7D7D7" points="0 0 3.072 0 3.072 3.072 0 3.072"/>
          <polygon fill="#00CD00" points="119 0 122.072 0 122.072 3.072 119 3.072"/>
          <polygon fill="#D7D400" points="114 0 117.072 0 117.072 3.072 114 3.072"/>
          <polygon fill="#FF3C00" points="109 0 112.072 0 112.072 3.072 109 3.072"/>
          <polygon fill="#00CD00" points="124 0 127.072 0 127.072 3.072 124 3.072"/>
        </g>
        <g transform="translate(5.986 275.836)">
          <polygon fill="#D8D8D8" points="22.141 0 101.434 0 101.434 3.081 22.141 3.081"/>
          <polygon fill="#D7D7D7" points="5.53 0 8.602 0 8.602 3.072 5.53 3.072"/>
          <polygon fill="#D7D7D7" points="0 0 3.072 0 3.072 3.072 0 3.072"/>
          <polygon fill="#00CD00" points="119 0 122.072 0 122.072 3.072 119 3.072"/>
          <polygon fill="#D7D400" points="114 0 117.072 0 117.072 3.072 114 3.072"/>
          <polygon fill="#FF3C00" points="109 0 112.072 0 112.072 3.072 109 3.072"/>
          <polygon fill="#00CD00" points="124 0 127.072 0 127.072 3.072 124 3.072"/>
        </g>
        <path fill="#7C7C7C" d="M140,2.30399993 L140,252.979192 C140,254.251656 139.271161,255.283192 138.372093,255.283192 L1.62790688,255.283192 C0.728838736,255.283192 1.10104092e-16,254.251656 0,252.979192 L0,2.30399993 C-1.10104092e-16,1.03153591 0.728838736,2.33747849e-16 1.62790688,0 L138.372093,0 C139.271161,1.21981781e-14 140,1.03153591 140,2.30399993 Z"/>
        <polygon fill="#D7D7D7" points="6.758 246.067 133.768 246.067 133.768 249.139 6.758 249.139"/>
        <polygon fill="#D7D7D7" points="5.99 16.589 133.004 16.589 133.004 19.661 5.99 19.661"/>
        <polygon fill="#D7D7D7" points="5.99 11.059 133.004 11.059 133.004 14.131 5.99 14.131"/>
        <polygon fill="#D7D7D7" points="5.99 5.53 133.004 5.53 133.004 8.602 5.99 8.602"/>
        <path fill="#FFF" d="M6.61482842,25.8810795 L132.371218,25.8810795 C132.718485,25.8810795 133,26.2949136 133,26.8054038 L133,239.399986 C133,239.910476 132.718485,240.32431 132.371218,240.32431 L6.61482842,240.32431 C6.26756176,240.32431 5.98604651,239.910476 5.98604651,239.399986 L5.98604651,26.8054038 C5.98604651,26.2949136 6.26756176,25.8810795 6.61482842,25.8810795 Z"/>
      </g>
      <g id="scaling-animejs-app3" transform="translate(14 136)">
        <g>
          <path fill="#00C176" d="M110.879999,93.7313264 C110.879999,94.3229146 110.532824,94.8023993 110.104393,94.8023993 L0.775606287,94.8023993 C0.347174829,94.8023993 0,94.3229146 0,93.7313264 L0,2.77199998 C-1.87485259e-16,1.24106666 1.24106666,-3.27148579e-15 2.77199998,-3.55271368e-15 L108.107999,0 C109.638933,-2.81227888e-16 110.879999,1.24106666 110.879999,2.77199998 L110.879999,93.7313264 Z"/>
          <text fill="#FFF" font-size="18.85" font-weight="bold" class="sans-serif">
            <tspan x="36.061" y="60.243">APP</tspan>
          </text>
          <path fill="#CCC" d="M2.77199998,0 L108.107999,-4.4408921e-16 C109.638933,-7.25317098e-16 110.879999,1.24106666 110.879999,2.77199998 L110.879999,12.7511999 L0,12.7511999 L-4.4408921e-16,2.77199998 C-6.31574468e-16,1.24106666 1.24106666,-1.62861322e-16 2.77199998,-4.4408921e-16 Z"/>
          <path fill="#E74C3C" d="M9.42479993,6.92999995 C9.42479993,8.30799417 8.30799417,9.42479993 6.92999995,9.42479993 C5.55200574,9.42479993 4.43519997,8.30799417 4.43519997,6.92999995 C4.43519997,5.55200574 5.55200574,4.43519997 6.92999995,4.43519997 C8.30799417,4.43519997 9.42479993,5.55200574 9.42479993,6.92999995"/>
          <path fill="#F1C40F" d="M18.2951999,6.92999995 C18.2951999,8.30799417 17.1783941,9.42479993 15.8003999,9.42479993 C14.4224057,9.42479993 13.3055999,8.30799417 13.3055999,6.92999995 C13.3055999,5.55200574 14.4224057,4.43519997 15.8003999,4.43519997 C17.1783941,4.43519997 18.2951999,5.55200574 18.2951999,6.92999995"/>
          <path fill="#2ECC71" d="M26.6111998,6.92999995 C26.6111998,8.30799417 25.494394,9.42479993 24.1163998,9.42479993 C22.7384056,9.42479993 21.6215998,8.30799417 21.6215998,6.92999995 C21.6215998,5.55200574 22.7384056,4.43519997 24.1163998,4.43519997 C25.494394,4.43519997 26.6111998,5.55200574 26.6111998,6.92999995"/>
        </g>
      </g>
      <g id="scaling-animejs-app1" transform="translate(14 34)">
        <g>
          <path fill="#00C176" d="M110.879999,93.7313264 C110.879999,94.3229146 110.532824,94.8023993 110.104393,94.8023993 L0.775606287,94.8023993 C0.347174829,94.8023993 0,94.3229146 0,93.7313264 L0,2.77199998 C-1.87485259e-16,1.24106666 1.24106666,-3.27148579e-15 2.77199998,-3.55271368e-15 L108.107999,0 C109.638933,-2.81227888e-16 110.879999,1.24106666 110.879999,2.77199998 L110.879999,93.7313264 Z"/>
          <text fill="#FFF" font-size="18.85" font-weight="bold" class="sans-serif">
            <tspan x="36.061" y="60.243">APP</tspan>
          </text>
          <path fill="#CCC" d="M2.77199998,0 L108.107999,-4.4408921e-16 C109.638933,-7.25317098e-16 110.879999,1.24106666 110.879999,2.77199998 L110.879999,12.7511999 L0,12.7511999 L-4.4408921e-16,2.77199998 C-6.31574468e-16,1.24106666 1.24106666,-1.62861322e-16 2.77199998,-4.4408921e-16 Z"/>
          <path fill="#E74C3C" d="M9.42479993,6.92999995 C9.42479993,8.30799417 8.30799417,9.42479993 6.92999995,9.42479993 C5.55200574,9.42479993 4.43519997,8.30799417 4.43519997,6.92999995 C4.43519997,5.55200574 5.55200574,4.43519997 6.92999995,4.43519997 C8.30799417,4.43519997 9.42479993,5.55200574 9.42479993,6.92999995"/>
          <path fill="#F1C40F" d="M18.2951999,6.92999995 C18.2951999,8.30799417 17.1783941,9.42479993 15.8003999,9.42479993 C14.4224057,9.42479993 13.3055999,8.30799417 13.3055999,6.92999995 C13.3055999,5.55200574 14.4224057,4.43519997 15.8003999,4.43519997 C17.1783941,4.43519997 18.2951999,5.55200574 18.2951999,6.92999995"/>
          <path fill="#2ECC71" d="M26.6111998,6.92999995 C26.6111998,8.30799417 25.494394,9.42479993 24.1163998,9.42479993 C22.7384056,9.42479993 21.6215998,8.30799417 21.6215998,6.92999995 C21.6215998,5.55200574 22.7384056,4.43519997 24.1163998,4.43519997 C25.494394,4.43519997 26.6111998,5.55200574 26.6111998,6.92999995"/>
        </g>
      </g>
    </g>
    <g transform="translate(105 110)">
      <g id="scaling-animejs-server1">
        <path fill="#7C7C7C" d="M140,260.436888 L140,282.003361 C140,283.194445 139.271161,284.160008 138.372093,284.160008 L1.62790688,284.160008 C0.728838736,284.160008 1.10104092e-16,283.194445 0,282.003361 L0,260.436888 C-1.10104092e-16,259.245805 0.728838736,258.280241 1.62790688,258.280241 L138.372093,258.280241 C139.271161,258.280241 140,259.245805 140,260.436888 Z"/>
        <g transform="translate(5.986 265.052)">
          <polygon fill="#D8D8D8" points="22.141 0 101.434 0 101.434 3.081 22.141 3.081"/>
          <polygon fill="#D7D7D7" points="5.53 0 8.602 0 8.602 3.072 5.53 3.072"/>
          <polygon fill="#D7D7D7" points="0 0 3.072 0 3.072 3.072 0 3.072"/>
          <polygon fill="#00CD00" points="119 0 122.072 0 122.072 3.072 119 3.072"/>
          <polygon fill="#D7D400" points="114 0 117.072 0 117.072 3.072 114 3.072"/>
          <polygon fill="#FF3C00" points="109 0 112.072 0 112.072 3.072 109 3.072"/>
          <polygon fill="#00CD00" points="124 0 127.072 0 127.072 3.072 124 3.072"/>
        </g>
        <g transform="translate(5.986 270.444)">
          <polygon fill="#D8D8D8" points="22.141 0 101.434 0 101.434 3.081 22.141 3.081"/>
          <polygon fill="#D7D7D7" points="5.53 0 8.602 0 8.602 3.072 5.53 3.072"/>
          <polygon fill="#D7D7D7" points="0 0 3.072 0 3.072 3.072 0 3.072"/>
          <polygon fill="#00CD00" points="119 0 122.072 0 122.072 3.072 119 3.072"/>
          <polygon fill="#D7D400" points="114 0 117.072 0 117.072 3.072 114 3.072"/>
          <polygon fill="#FF3C00" points="109 0 112.072 0 112.072 3.072 109 3.072"/>
          <polygon fill="#00CD00" points="124 0 127.072 0 127.072 3.072 124 3.072"/>
        </g>
        <g transform="translate(5.986 275.836)">
          <polygon fill="#D8D8D8" points="22.141 0 101.434 0 101.434 3.081 22.141 3.081"/>
          <polygon fill="#D7D7D7" points="5.53 0 8.602 0 8.602 3.072 5.53 3.072"/>
          <polygon fill="#D7D7D7" points="0 0 3.072 0 3.072 3.072 0 3.072"/>
          <polygon fill="#00CD00" points="119 0 122.072 0 122.072 3.072 119 3.072"/>
          <polygon fill="#D7D400" points="114 0 117.072 0 117.072 3.072 114 3.072"/>
          <polygon fill="#FF3C00" points="109 0 112.072 0 112.072 3.072 109 3.072"/>
          <polygon fill="#00CD00" points="124 0 127.072 0 127.072 3.072 124 3.072"/>
        </g>
        <path fill="#7C7C7C" d="M140,2.30399993 L140,252.979192 C140,254.251656 139.271161,255.283192 138.372093,255.283192 L1.62790688,255.283192 C0.728838736,255.283192 1.10104092e-16,254.251656 0,252.979192 L0,2.30399993 C-1.10104092e-16,1.03153591 0.728838736,2.33747849e-16 1.62790688,0 L138.372093,0 C139.271161,1.21981781e-14 140,1.03153591 140,2.30399993 Z"/>
        <polygon fill="#D7D7D7" points="6.758 246.067 133.768 246.067 133.768 249.139 6.758 249.139"/>
        <polygon fill="#D7D7D7" points="5.99 16.589 133.004 16.589 133.004 19.661 5.99 19.661"/>
        <polygon fill="#D7D7D7" points="5.99 11.059 133.004 11.059 133.004 14.131 5.99 14.131"/>
        <polygon fill="#D7D7D7" points="5.99 5.53 133.004 5.53 133.004 8.602 5.99 8.602"/>
        <path fill="#FFF" d="M6.61482842,25.8810795 L132.371218,25.8810795 C132.718485,25.8810795 133,26.2949136 133,26.8054038 L133,239.399986 C133,239.910476 132.718485,240.32431 132.371218,240.32431 L6.61482842,240.32431 C6.26756176,240.32431 5.98604651,239.910476 5.98604651,239.399986 L5.98604651,26.8054038 C5.98604651,26.2949136 6.26756176,25.8810795 6.61482842,25.8810795 Z"/>
      </g>
      <g id="scaling-animejs-app5" transform="translate(14 34)">
        <g>
          <path fill="#00C176" d="M110.879999,93.7313264 C110.879999,94.3229146 110.532824,94.8023993 110.104393,94.8023993 L0.775606287,94.8023993 C0.347174829,94.8023993 0,94.3229146 0,93.7313264 L0,2.77199998 C-1.87485259e-16,1.24106666 1.24106666,-3.27148579e-15 2.77199998,-3.55271368e-15 L108.107999,0 C109.638933,-2.81227888e-16 110.879999,1.24106666 110.879999,2.77199998 L110.879999,93.7313264 Z"/>
          <text fill="#FFF" font-size="18.85" font-weight="bold" class="sans-serif">
            <tspan x="36.061" y="60.243">APP</tspan>
          </text>
          <path fill="#CCC" d="M2.77199998,0 L108.107999,-4.4408921e-16 C109.638933,-7.25317098e-16 110.879999,1.24106666 110.879999,2.77199998 L110.879999,12.7511999 L0,12.7511999 L-4.4408921e-16,2.77199998 C-6.31574468e-16,1.24106666 1.24106666,-1.62861322e-16 2.77199998,-4.4408921e-16 Z"/>
          <path fill="#E74C3C" d="M9.42479993,6.92999995 C9.42479993,8.30799417 8.30799417,9.42479993 6.92999995,9.42479993 C5.55200574,9.42479993 4.43519997,8.30799417 4.43519997,6.92999995 C4.43519997,5.55200574 5.55200574,4.43519997 6.92999995,4.43519997 C8.30799417,4.43519997 9.42479993,5.55200574 9.42479993,6.92999995"/>
          <path fill="#F1C40F" d="M18.2951999,6.92999995 C18.2951999,8.30799417 17.1783941,9.42479993 15.8003999,9.42479993 C14.4224057,9.42479993 13.3055999,8.30799417 13.3055999,6.92999995 C13.3055999,5.55200574 14.4224057,4.43519997 15.8003999,4.43519997 C17.1783941,4.43519997 18.2951999,5.55200574 18.2951999,6.92999995"/>
          <path fill="#2ECC71" d="M26.6111998,6.92999995 C26.6111998,8.30799417 25.494394,9.42479993 24.1163998,9.42479993 C22.7384056,9.42479993 21.6215998,8.30799417 21.6215998,6.92999995 C21.6215998,5.55200574 22.7384056,4.43519997 24.1163998,4.43519997 C25.494394,4.43519997 26.6111998,5.55200574 26.6111998,6.92999995"/>
        </g>
      </g>
    </g>
  </g>
</svg>
