<svg viewBox="0 0 1200 900" xmlns="http://www.w3.org/2000/svg"><style>.sans-serif{font-family:-apple-system,BlinkMacSystemFont,'avenir next', avenir,'helvetica neue',helvetica,ubuntu,roboto,noto,'segoe ui',arial,sans-serif}</style><g fill="none" fill-rule="evenodd"><g transform="translate(49.000000, 211.000000)"><g transform="translate(93.000000, 20.000000)"><g transform="translate(0.000000, 44.799999)" fill-rule="nonzero"><path d="M915.6 7v28H0V7a7 7 0 0 1 7-7h901.6a7 7 0 0 1 7 7z" fill="#D2D2D2"></path><path fill="#A3A3A3" d="M9.8 8.4h5.6V14H9.8zm8.4 0h5.6V14h-5.6zm8.4 0h5.6V14h-5.6z"></path></g><g transform="translate(132.999998, 79.799999)" fill-rule="nonzero"><path fill="#9EEBCF" d="M9.8-1.4V119H5.6V-1.4z"></path><circle stroke="#9EEBCF" stroke-width="4.2" fill="#FFF" cx="7.7" cy="-2.1" r="9.1"></circle><path fill="#9EEBCF" d="M7.7 124.6L0 113.4h15.4z"></path></g><g transform="translate(0.000000, 198.799997)"><path d="M280 236.695c0 1.494-.877 2.705-1.959 2.705H1.96c-1.083 0-1.96-1.21-1.96-2.705V7a7 7 0 0 1 7-7h266a7 7 0 0 1 7 7v229.695z" fill="#FF003C"></path><path d="M7 0h266a7 7 0 0 1 7 7v25.2H0V7a7 7 0 0 1 7-7z" fill="#CCC"></path><path d="M23.8 17.5a6.3 6.3 0 0 1-6.3 6.3 6.3 6.3 0 0 1-6.3-6.3 6.3 6.3 0 0 1 6.3-6.3 6.3 6.3 0 0 1 6.3 6.3" fill="#E74C3C"></path><path d="M46.2 17.5a6.3 6.3 0 0 1-6.3 6.3 6.3 6.3 0 0 1-6.3-6.3 6.3 6.3 0 0 1 6.3-6.3 6.3 6.3 0 0 1 6.3 6.3" fill="#F1C40F"></path><path d="M67.2 17.5a6.3 6.3 0 0 1-6.3 6.3 6.3 6.3 0 0 1-6.3-6.3 6.3 6.3 0 0 1 6.3-6.3 6.3 6.3 0 0 1 6.3 6.3" fill="#2ECC71"></path></g><text font-size="28" font-weight="bold" fill="#4A4A4A" class="sans-serif"><tspan x="0" y="179">Pod 1</tspan></text><g transform="translate(450.449992, 79.799999)" fill-rule="nonzero"><path fill="#9EEBCF" d="M9.8-1.4V119H5.6V-1.4z"></path><circle stroke="#9EEBCF" stroke-width="4.2" fill="#FFF" cx="7.7" cy="-2.1" r="9.1"></circle><path fill="#9EEBCF" d="M7.7 124.6L0 113.4h15.4z"></path></g><g transform="translate(317.449995, 198.799997)"><path d="M280 236.695c0 1.494-.877 2.705-1.959 2.705H1.96c-1.083 0-1.96-1.21-1.96-2.705V7a7 7 0 0 1 7-7h266a7 7 0 0 1 7 7v229.695z" fill="#FF003C"></path><path d="M7 0h266a7 7 0 0 1 7 7v25.2H0V7a7 7 0 0 1 7-7z" fill="#CCC"></path><path d="M23.8 17.5a6.3 6.3 0 0 1-6.3 6.3 6.3 6.3 0 0 1-6.3-6.3 6.3 6.3 0 0 1 6.3-6.3 6.3 6.3 0 0 1 6.3 6.3" fill="#E74C3C"></path><path d="M46.2 17.5a6.3 6.3 0 0 1-6.3 6.3 6.3 6.3 0 0 1-6.3-6.3 6.3 6.3 0 0 1 6.3-6.3 6.3 6.3 0 0 1 6.3 6.3" fill="#F1C40F"></path><path d="M67.2 17.5a6.3 6.3 0 0 1-6.3 6.3 6.3 6.3 0 0 1-6.3-6.3 6.3 6.3 0 0 1 6.3-6.3 6.3 6.3 0 0 1 6.3 6.3" fill="#2ECC71"></path></g><text font-size="28" font-weight="bold" fill="#4A4A4A" class="sans-serif"><tspan x="317.45" y="179">Pod 2</tspan></text><g transform="translate(767.899987, 79.799999)" fill-rule="nonzero"><path fill="#9EEBCF" d="M9.8-1.4V119H5.6V-1.4z"></path><circle stroke="#9EEBCF" stroke-width="4.2" fill="#FFF" cx="7.7" cy="-2.1" r="9.1"></circle><path fill="#9EEBCF" d="M7.7 124.6L0 113.4h15.4z"></path></g><g transform="translate(634.899989, 198.799997)"><path d="M280 236.695c0 1.494-.877 2.705-1.959 2.705H1.96c-1.083 0-1.96-1.21-1.96-2.705V7a7 7 0 0 1 7-7h266a7 7 0 0 1 7 7v229.695z" fill="#FF003C"></path><path d="M7 0h266a7 7 0 0 1 7 7v25.2H0V7a7 7 0 0 1 7-7z" fill="#CCC"></path><path d="M23.8 17.5a6.3 6.3 0 0 1-6.3 6.3 6.3 6.3 0 0 1-6.3-6.3 6.3 6.3 0 0 1 6.3-6.3 6.3 6.3 0 0 1 6.3 6.3" fill="#E74C3C"></path><path d="M46.2 17.5a6.3 6.3 0 0 1-6.3 6.3 6.3 6.3 0 0 1-6.3-6.3 6.3 6.3 0 0 1 6.3-6.3 6.3 6.3 0 0 1 6.3 6.3" fill="#F1C40F"></path><path d="M67.2 17.5a6.3 6.3 0 0 1-6.3 6.3 6.3 6.3 0 0 1-6.3-6.3 6.3 6.3 0 0 1 6.3-6.3 6.3 6.3 0 0 1 6.3 6.3" fill="#2ECC71"></path></g><text font-size="28" font-weight="bold" fill="#4A4A4A" class="sans-serif"><tspan x="634.9" y="179">Pod 3</tspan></text><text font-size="28" font-weight="bold" fill="#4A4A4A" class="sans-serif"><tspan x="0" y="25">Service</tspan></text></g><path fill-opacity="0.7" fill="#FFF" d="M0 111h1069v411H0z"></path><text font-size="37" font-weight="bold" fill="#4A4A4A" class="sans-serif"><tspan x="792" y="33">10.96.45.152</tspan></text></g><path d="M100 178h998c11.046 0 20 8.954 20 20v133c0 11.046-8.954 20-20 20H100c-11.046 0-20-8.954-20-20V198c0-11.046 8.954-20 20-20z" stroke="#EEE" stroke-dasharray="45 10 15 10" stroke-width="4"></path><text font-size="44" font-weight="bold" fill="#4A4A4A" class="sans-serif"><tspan x="504.417" y="122">SERVICE</tspan></text></g></svg>