<svg xmlns="http://www.w3.org/2000/svg" viewBox="0 0 1200 900"><style>.sans-serif{font-family:-apple-system,BlinkMacSystemFont,'avenir next', avenir,'helvetica neue',helvetica,ubuntu,roboto,noto,'segoe ui',arial,sans-serif}@keyframes anime-dot-2_t{0%{transform:translate(325.5px,576.5px)}8.3333%{transform:translate(325.5px,576.5px)}41.6666%{transform:translate(646.522837px,576.5px)}100%{transform:translate(646.522837px,576.5px)}}@keyframes anime-dot-2_o{0%{opacity:0}16.6667%{opacity:1}33.3333%{opacity:1}50%{opacity:0}100%{opacity:0}}@keyframes anime-dot-1_t{0%{transform:translate(325.5px,634.5px)}41.6666%{transform:translate(325.5px,634.5px)}91.6666%{transform:translate(937.502637px,634.5px)}100%{transform:translate(937.502637px,634.5px)}}@keyframes anime-dot-1_o{0%{opacity:0}33.3333%{opacity:0}50%{opacity:1}83.3333%{opacity:1}100%{opacity:0}}</style><g fill="none" fill-rule="evenodd" transform="translate(111,231)"><g transform="translate(0,153) translate(0,0.799999)"><g transform="translate(0,45)"><path d="M280 236.695c0 1.494-.877 2.705-1.959 2.705H1.959C.877 239.4 0 238.189 0 236.695V7a7 7 0 0 1 7-7h266a7 7 0 0 1 7 7v229.695z" fill="#FF003C"></path><path d="M7 0h266a7 7 0 0 1 7 7v25.2H0V7a7 7 0 0 1 7-7z" fill="#CCC"></path><path d="M23.8 17.5a6.3 6.3 0 0 1-6.3 6.3 6.3 6.3 0 0 1-6.3-6.3 6.3 6.3 0 0 1 6.3-6.3 6.3 6.3 0 0 1 6.3 6.3" fill="#E74C3C"></path><path d="M46.2 17.5a6.3 6.3 0 0 1-6.3 6.3 6.3 6.3 0 0 1-6.3-6.3 6.3 6.3 0 0 1 6.3-6.3 6.3 6.3 0 0 1 6.3 6.3" fill="#F1C40F"></path><path d="M67.2 17.5a6.3 6.3 0 0 1-6.3 6.3 6.3 6.3 0 0 1-6.3-6.3 6.3 6.3 0 0 1 6.3-6.3 6.3 6.3 0 0 1 6.3 6.3" fill="#2ECC71"></path></g><text font-size="28" font-weight="bold" fill="#4A4A4A" class="sans-serif"><tspan x="0" y="25.2">Pod 1</tspan></text></g><g fill-rule="nonzero" transform="translate(399,44.8)"><path d="M580 7v28H0V7a7 7 0 0 1 7-7h566a7 7 0 0 1 7 7z" fill="#D2D2D2"></path><path fill="#A3A3A3" d="M9.8 8.4h5.6V14H9.8zm8.4 0h5.6V14h-5.6zm8.4 0h5.6V14h-5.6z"></path></g><g transform="translate(399,79.8)"><g fill-rule="nonzero" transform="translate(133,0)"><path fill="#9EEBCF" d="M9.8-1.4V119H5.6V-1.4z"></path><ellipse stroke="#9EEBCF" stroke-width="4.2" fill="#FFF" rx="9.1" ry="9.1" transform="translate(0,0) translate(7.7,-2.1)"></ellipse><path fill="#9EEBCF" d="M7.7 124.6L0 113.4h15.4z"></path></g><g transform="translate(0,119)"><path d="M280 236.695c0 1.494-.877 2.705-1.959 2.705H1.959C.877 239.4 0 238.189 0 236.695V7a7 7 0 0 1 7-7h266a7 7 0 0 1 7 7v229.695z" fill="#E3CEBC"></path><path d="M162.491 151.976l2.743-6.565a29.062 29.062 0 0 0 8.104-1.331l4.717 5.342a2.696 2.696 0 0 0 3.435.511l2.977-1.846 2.976-1.847a2.696 2.696 0 0 0 1.067-3.305l-2.695-6.599a27.457 27.457 0 0 0 4.864-6.851l7.037.441a2.697 2.697 0 0 0 2.803-2.083l.804-3.432.803-3.431a2.723 2.723 0 0 0-1.587-3.111l-6.62-2.789c-.067-2.787-.57-5.513-1.37-8.082l5.352-4.617a2.695 2.695 0 0 0 .511-3.434l-1.848-2.977-1.846-2.976a2.697 2.697 0 0 0-3.306-1.067l-6.636 2.719a28.845 28.845 0 0 0-6.688-4.728l.441-7.038a2.697 2.697 0 0 0-2.083-2.803l-3.431-.803-3.432-.804a2.72 2.72 0 0 0-3.11 1.588l-2.789 6.619c-2.788.066-5.513.568-8.082 1.37l-4.662-5.298a2.697 2.697 0 0 0-3.436-.511l-2.976 1.846-2.977 1.847a2.698 2.698 0 0 0-1.067 3.305l2.719 6.636a29.01 29.01 0 0 0-4.653 6.509l-7.101-.455a2.696 2.696 0 0 0-2.803 2.083l-.804 3.431-.803 3.432a2.723 2.723 0 0 0 1.587 3.111l6.565 2.742a29.069 29.069 0 0 0 1.331 8.105l-5.342 4.716a2.698 2.698 0 0 0-.511 3.436l1.847 2.976 1.846 2.977a2.699 2.699 0 0 0 3.306 1.067l6.598-2.695a29.05 29.05 0 0 0 6.672 4.789l-.455 7.101a2.697 2.697 0 0 0 2.083 2.803l3.432.803 3.431.804c1.256.229 2.555-.445 3.062-1.631zm5.527-50.725c8.308 1.945 13.467 10.255 11.522 18.563-1.944 8.307-10.255 13.466-18.562 11.522-8.308-1.945-13.467-10.255-11.522-18.563 1.944-8.308 10.255-13.467 18.562-11.522zm-37.252 85.187l.721-4.31a17.824 17.824 0 0 0 4.66-1.931l3.569 2.535a1.654 1.654 0 0 0 2.125-.175l1.522-1.521 1.522-1.522a1.654 1.654 0 0 0 .175-2.125l-2.536-3.569a16.882 16.882 0 0 0 1.95-4.778l4.272-.721a1.655 1.655 0 0 0 1.384-1.638v-4.329c0-.799-.585-1.502-1.384-1.638l-4.349-.741c-.428-1.657-1.111-3.217-1.95-4.641l2.555-3.509a1.655 1.655 0 0 0-.175-2.126l-1.522-1.521-1.521-1.522a1.654 1.654 0 0 0-2.126-.175l-3.588 2.555a17.695 17.695 0 0 0-4.66-1.892l-.721-4.271a1.658 1.658 0 0 0-1.638-1.385h-4.329c-.8 0-1.502.586-1.638 1.385l-.741 4.348c-1.657.429-3.217 1.112-4.641 1.951l-3.529-2.516a1.654 1.654 0 0 0-2.125.175l-1.522 1.522-1.522 1.521a1.654 1.654 0 0 0-.175 2.126l2.555 3.588a17.828 17.828 0 0 0-1.872 4.544l-4.31.721c-.8.137-1.385.819-1.385 1.638v4.329c0 .799.585 1.502 1.385 1.638l4.31.721a17.83 17.83 0 0 0 1.931 4.661l-2.536 3.568c-.467.664-.39 1.56.175 2.125l1.522 1.522 1.522 1.522a1.653 1.653 0 0 0 2.125.175l3.569-2.535a17.787 17.787 0 0 0 4.66 1.93l.721 4.311a1.655 1.655 0 0 0 1.638 1.384h4.329a1.72 1.72 0 0 0 1.598-1.404zm-3.793-31.109c5.24 0 9.489 4.249 9.489 9.489 0 5.24-4.249 9.489-9.489 9.489-5.24 0-9.489-4.249-9.489-9.489 0-5.24 4.249-9.489 9.489-9.489zm-22.018-11.291l.598-4.175a17.2 17.2 0 0 0 4.453-1.97l3.502 2.365a1.597 1.597 0 0 0 2.047-.219l1.433-1.502 1.434-1.502a1.596 1.596 0 0 0 .12-2.055l-2.528-3.385a16.258 16.258 0 0 0 1.772-4.655l4.105-.794a1.6 1.6 0 0 0 1.3-1.613l-.05-2.089-.049-2.089a1.614 1.614 0 0 0-1.373-1.549l-4.214-.616a17.5 17.5 0 0 0-1.988-4.434l2.385-3.446a1.595 1.595 0 0 0-.218-2.046l-1.502-1.434-1.502-1.434a1.597 1.597 0 0 0-2.056-.12l-3.404 2.547a17.113 17.113 0 0 0-4.541-1.72l-.793-4.104a1.6 1.6 0 0 0-1.613-1.3l-2.089.049-2.089.049c-.771.019-1.435.6-1.55 1.374l-.616 4.214a17.458 17.458 0 0 0-4.433 1.988l-3.464-2.347a1.598 1.598 0 0 0-2.047.219l-1.433 1.502-1.434 1.502a1.596 1.596 0 0 0-.12 2.055l2.546 3.405a17.209 17.209 0 0 0-1.702 4.427l-4.143.795a1.6 1.6 0 0 0-1.299 1.613l.049 2.089.049 2.089a1.614 1.614 0 0 0 1.373 1.549l4.175.598a17.206 17.206 0 0 0 1.97 4.454l-2.365 3.501a1.598 1.598 0 0 0 .219 2.047l1.502 1.433 1.502 1.434a1.596 1.596 0 0 0 2.055.12l3.386-2.528a17.218 17.218 0 0 0 4.541 1.757l.795 4.143a1.6 1.6 0 0 0 1.613 1.299l2.089-.049 2.089-.049a1.668 1.668 0 0 0 1.513-1.393zm-4.371-29.932a9.16 9.16 0 1 1 .433 18.313 9.16 9.16 0 0 1-.433-18.313z" fill="#6C431E" fill-rule="nonzero"></path><path d="M7 0h266a7 7 0 0 1 7 7v25.2H0V7a7 7 0 0 1 7-7z" fill="#CCC"></path><path d="M23.8 17.5a6.3 6.3 0 0 1-6.3 6.3 6.3 6.3 0 0 1-6.3-6.3 6.3 6.3 0 0 1 6.3-6.3 6.3 6.3 0 0 1 6.3 6.3" fill="#E74C3C"></path><path d="M46.2 17.5a6.3 6.3 0 0 1-6.3 6.3 6.3 6.3 0 0 1-6.3-6.3 6.3 6.3 0 0 1 6.3-6.3 6.3 6.3 0 0 1 6.3 6.3" fill="#F1C40F"></path><path d="M67.2 17.5a6.3 6.3 0 0 1-6.3 6.3 6.3 6.3 0 0 1-6.3-6.3 6.3 6.3 0 0 1 6.3-6.3 6.3 6.3 0 0 1 6.3 6.3" fill="#2ECC71"></path></g><text font-size="28" font-weight="bold" fill="#4A4A4A" class="sans-serif"><tspan x="0" y="99.2">Pod 5</tspan></text><g fill-rule="nonzero" transform="translate(433,0)"><path fill="#9EEBCF" d="M9.8-1.4V119H5.6V-1.4z"></path><ellipse stroke="#9EEBCF" stroke-width="4.2" fill="#FFF" rx="9.1" ry="9.1" transform="translate(0,0) translate(7.7,-2.1)"></ellipse><path fill="#9EEBCF" d="M7.7 124.6L0 113.4h15.4z"></path></g><g transform="translate(300,119)"><path d="M280 236.695c0 1.494-.877 2.705-1.959 2.705H1.959C.877 239.4 0 238.189 0 236.695V7a7 7 0 0 1 7-7h266a7 7 0 0 1 7 7v229.695z" fill="#E3CEBC"></path><path d="M162.491 151.976l2.743-6.565a29.062 29.062 0 0 0 8.104-1.331l4.717 5.342a2.696 2.696 0 0 0 3.435.511l2.977-1.846 2.976-1.847a2.696 2.696 0 0 0 1.067-3.305l-2.695-6.599a27.457 27.457 0 0 0 4.864-6.851l7.037.441a2.697 2.697 0 0 0 2.803-2.083l.804-3.432.803-3.431a2.723 2.723 0 0 0-1.587-3.111l-6.62-2.789c-.067-2.787-.57-5.513-1.37-8.082l5.352-4.617a2.695 2.695 0 0 0 .511-3.434l-1.848-2.977-1.846-2.976a2.697 2.697 0 0 0-3.306-1.067l-6.636 2.719a28.845 28.845 0 0 0-6.688-4.728l.441-7.038a2.697 2.697 0 0 0-2.083-2.803l-3.431-.803-3.432-.804a2.72 2.72 0 0 0-3.11 1.588l-2.789 6.619c-2.788.066-5.513.568-8.082 1.37l-4.662-5.298a2.697 2.697 0 0 0-3.436-.511l-2.976 1.846-2.977 1.847a2.698 2.698 0 0 0-1.067 3.305l2.719 6.636a29.01 29.01 0 0 0-4.653 6.509l-7.101-.455a2.696 2.696 0 0 0-2.803 2.083l-.804 3.431-.803 3.432a2.723 2.723 0 0 0 1.587 3.111l6.565 2.742a29.069 29.069 0 0 0 1.331 8.105l-5.342 4.716a2.698 2.698 0 0 0-.511 3.436l1.847 2.976 1.846 2.977a2.699 2.699 0 0 0 3.306 1.067l6.598-2.695a29.05 29.05 0 0 0 6.672 4.789l-.455 7.101a2.697 2.697 0 0 0 2.083 2.803l3.432.803 3.431.804c1.256.229 2.555-.445 3.062-1.631zm5.527-50.725c8.308 1.945 13.467 10.255 11.522 18.563-1.944 8.307-10.255 13.466-18.562 11.522-8.308-1.945-13.467-10.255-11.522-18.563 1.944-8.308 10.255-13.467 18.562-11.522zm-37.252 85.187l.721-4.31a17.824 17.824 0 0 0 4.66-1.931l3.569 2.535a1.654 1.654 0 0 0 2.125-.175l1.522-1.521 1.522-1.522a1.654 1.654 0 0 0 .175-2.125l-2.536-3.569a16.882 16.882 0 0 0 1.95-4.778l4.272-.721a1.655 1.655 0 0 0 1.384-1.638v-4.329c0-.799-.585-1.502-1.384-1.638l-4.349-.741c-.428-1.657-1.111-3.217-1.95-4.641l2.555-3.509a1.655 1.655 0 0 0-.175-2.126l-1.522-1.521-1.521-1.522a1.654 1.654 0 0 0-2.126-.175l-3.588 2.555a17.695 17.695 0 0 0-4.66-1.892l-.721-4.271a1.658 1.658 0 0 0-1.638-1.385h-4.329c-.8 0-1.502.586-1.638 1.385l-.741 4.348c-1.657.429-3.217 1.112-4.641 1.951l-3.529-2.516a1.654 1.654 0 0 0-2.125.175l-1.522 1.522-1.522 1.521a1.654 1.654 0 0 0-.175 2.126l2.555 3.588a17.828 17.828 0 0 0-1.872 4.544l-4.31.721c-.8.137-1.385.819-1.385 1.638v4.329c0 .799.585 1.502 1.385 1.638l4.31.721a17.83 17.83 0 0 0 1.931 4.661l-2.536 3.568c-.467.664-.39 1.56.175 2.125l1.522 1.522 1.522 1.522a1.653 1.653 0 0 0 2.125.175l3.569-2.535a17.787 17.787 0 0 0 4.66 1.93l.721 4.311a1.655 1.655 0 0 0 1.638 1.384h4.329a1.72 1.72 0 0 0 1.598-1.404zm-3.793-31.109c5.24 0 9.489 4.249 9.489 9.489 0 5.24-4.249 9.489-9.489 9.489-5.24 0-9.489-4.249-9.489-9.489 0-5.24 4.249-9.489 9.489-9.489zm-22.018-11.291l.598-4.175a17.2 17.2 0 0 0 4.453-1.97l3.502 2.365a1.597 1.597 0 0 0 2.047-.219l1.433-1.502 1.434-1.502a1.596 1.596 0 0 0 .12-2.055l-2.528-3.385a16.258 16.258 0 0 0 1.772-4.655l4.105-.794a1.6 1.6 0 0 0 1.3-1.613l-.05-2.089-.049-2.089a1.614 1.614 0 0 0-1.373-1.549l-4.214-.616a17.5 17.5 0 0 0-1.988-4.434l2.385-3.446a1.595 1.595 0 0 0-.218-2.046l-1.502-1.434-1.502-1.434a1.597 1.597 0 0 0-2.056-.12l-3.404 2.547a17.113 17.113 0 0 0-4.541-1.72l-.793-4.104a1.6 1.6 0 0 0-1.613-1.3l-2.089.049-2.089.049c-.771.019-1.435.6-1.55 1.374l-.616 4.214a17.458 17.458 0 0 0-4.433 1.988l-3.464-2.347a1.598 1.598 0 0 0-2.047.219l-1.433 1.502-1.434 1.502a1.596 1.596 0 0 0-.12 2.055l2.546 3.405a17.209 17.209 0 0 0-1.702 4.427l-4.143.795a1.6 1.6 0 0 0-1.299 1.613l.049 2.089.049 2.089a1.614 1.614 0 0 0 1.373 1.549l4.175.598a17.206 17.206 0 0 0 1.97 4.454l-2.365 3.501a1.598 1.598 0 0 0 .219 2.047l1.502 1.433 1.502 1.434a1.596 1.596 0 0 0 2.055.12l3.386-2.528a17.218 17.218 0 0 0 4.541 1.757l.795 4.143a1.6 1.6 0 0 0 1.613 1.299l2.089-.049 2.089-.049a1.668 1.668 0 0 0 1.513-1.393zm-4.371-29.932a9.16 9.16 0 1 1 .433 18.313 9.16 9.16 0 0 1-.433-18.313z" fill="#6C431E" fill-rule="nonzero"></path><path d="M7 0h266a7 7 0 0 1 7 7v25.2H0V7a7 7 0 0 1 7-7z" fill="#CCC"></path><path d="M23.8 17.5a6.3 6.3 0 0 1-6.3 6.3 6.3 6.3 0 0 1-6.3-6.3 6.3 6.3 0 0 1 6.3-6.3 6.3 6.3 0 0 1 6.3 6.3" fill="#E74C3C"></path><path d="M46.2 17.5a6.3 6.3 0 0 1-6.3 6.3 6.3 6.3 0 0 1-6.3-6.3 6.3 6.3 0 0 1 6.3-6.3 6.3 6.3 0 0 1 6.3 6.3" fill="#F1C40F"></path><path d="M67.2 17.5a6.3 6.3 0 0 1-6.3 6.3 6.3 6.3 0 0 1-6.3-6.3 6.3 6.3 0 0 1 6.3-6.3 6.3 6.3 0 0 1 6.3 6.3" fill="#2ECC71"></path></g><text font-size="28" font-weight="bold" fill="#4A4A4A" class="sans-serif"><tspan x="300" y="99.2">Pod 6</tspan></text></g><text font-size="28" font-weight="bold" fill="#4A4A4A" class="sans-serif"><tspan x="399" y="25">Backend service</tspan></text></g><g fill="none" fill-rule="evenodd" transform="translate(103,701)"><path d="M1.4 0h294a1.4 1.4 0 0 1 1.4 1.4v43.4a1.4 1.4 0 0 1-1.4 1.4H1.4A1.4 1.4 0 0 1 0 44.8V1.4A1.4 1.4 0 0 1 1.4 0z" fill="#F3F3F3"></path><path d="M23.45 9.1c7.935 0 14.35 6.26 14.35 14s-6.415 14-14.35 14S9.1 30.841 9.1 23.1s6.415-14 14.35-14zm6.12 7.824l-8.272 8.07-3.926-3.83-2.785 2.718 3.925 3.83 2.785 2.718 2.786-2.718 8.272-8.07-2.785-2.718z" fill="#00C176" fill-rule="nonzero"></path></g><g fill="none" fill-rule="evenodd" transform="translate(157,711)"><text font-size="20.2" font-weight="bold" fill="#4D4D4F" class="sans-serif"><tspan x="20.85" y="24">172.17.0.8</tspan></text><text font-size="16.1" fill="#8C8C90" class="sans-serif"><tspan x=".35" y="23.4">IP</tspan></text><text font-size="25.2" font-weight="bold" fill="#4D4D4F" class="sans-serif"><tspan x="171.5" y="23">3000</tspan></text><text font-size="16.1" fill="#8C8C90" class="sans-serif"><tspan x="123.55" y="23.4">PORT</tspan></text></g><g fill="none" fill-rule="evenodd" transform="translate(103,753)"><path d="M1.4 0h294a1.4 1.4 0 0 1 1.4 1.4v43.4a1.4 1.4 0 0 1-1.4 1.4H1.4A1.4 1.4 0 0 1 0 44.8V1.4A1.4 1.4 0 0 1 1.4 0z" fill="#F3F3F3"></path><path d="M23.45 9.1c7.935 0 14.35 6.26 14.35 14s-6.415 14-14.35 14S9.1 30.841 9.1 23.1s6.415-14 14.35-14zm6.12 7.824l-8.272 8.07-3.926-3.83-2.785 2.718 3.925 3.83 2.785 2.718 2.786-2.718 8.272-8.07-2.785-2.718z" fill="#00C176" fill-rule="nonzero"></path></g><g fill="none" fill-rule="evenodd" transform="translate(103,753)"><path d="M1.4 0h294a1.4 1.4 0 0 1 1.4 1.4v43.4a1.4 1.4 0 0 1-1.4 1.4H1.4A1.4 1.4 0 0 1 0 44.8V1.4A1.4 1.4 0 0 1 1.4 0z" fill="#F3F3F3"></path><path d="M23.45 9.1c7.935 0 14.35 6.26 14.35 14s-6.415 14-14.35 14S9.1 30.841 9.1 23.1s6.415-14 14.35-14zm6.12 7.824l-8.272 8.07-3.926-3.83-2.785 2.718 3.925 3.83 2.785 2.718 2.786-2.718 8.272-8.07-2.785-2.718z" fill="#00C176" fill-rule="nonzero"></path></g><g fill="none" fill-rule="evenodd" transform="translate(103,753)"><path d="M1.4 0h294a1.4 1.4 0 0 1 1.4 1.4v43.4a1.4 1.4 0 0 1-1.4 1.4H1.4A1.4 1.4 0 0 1 0 44.8V1.4A1.4 1.4 0 0 1 1.4 0z" fill="#F3F3F3"></path><path d="M23.45 9.1c7.935 0 14.35 6.26 14.35 14s-6.415 14-14.35 14S9.1 30.841 9.1 23.1s6.415-14 14.35-14zm6.12 7.824l-8.272 8.07-3.926-3.83-2.785 2.718 3.925 3.83 2.785 2.718 2.786-2.718 8.272-8.07-2.785-2.718z" fill="#00C176" fill-rule="nonzero"></path></g><g fill="none" fill-rule="evenodd" transform="translate(157,763)"><text font-size="20.2" font-weight="bold" fill="#4D4D4F" class="sans-serif"><tspan x="20.85" y="24">172.17.0.9</tspan></text><text font-size="16.1" fill="#8C8C90" class="sans-serif"><tspan x=".35" y="23.4">IP</tspan></text><text font-size="25.2" font-weight="bold" fill="#4D4D4F" class="sans-serif"><tspan x="171.5" y="23">3000</tspan></text><text font-size="16.1" fill="#8C8C90" class="sans-serif"><tspan x="123.55" y="23.4">PORT</tspan></text></g><text font-size="37" font-weight="bold" fill="#C7C7CC" fill-rule="evenodd" class="sans-serif"><tspan x="567" y="726">172.17.0.8</tspan></text><text font-size="37" font-weight="bold" fill="#C7C7CC" fill-rule="evenodd" class="sans-serif"><tspan x="870" y="726">172.17.0.9</tspan></text><text font-size="37" font-weight="bold" fill="#C7C7CC" fill-rule="evenodd" class="sans-serif"><tspan x="873" y="244">10.96.45.152</tspan></text><path stroke="#FF9500" stroke-width="14" d="M325.55 576.883H650" fill="none" fill-rule="evenodd"></path><ellipse id="anime-dot-2" fill="#FF9500" rx="17.5" ry="17.5" stroke="none" stroke-width="1" fill-rule="evenodd" opacity="0" transform="translate(0,0) translate(325.5,576.5)" style="animation:1.2s linear infinite both anime-dot-2_t, 1.2s linear infinite both anime-dot-2_o"></ellipse><ellipse id="anime-dot-1" fill="#FF9500" rx="17.5" ry="17.5" stroke="none" stroke-width="1" fill-rule="evenodd" opacity="0" transform="translate(0,0) translate(325.5,634.5)" style="animation:1.2s linear infinite both anime-dot-1_t, 1.2s linear infinite both anime-dot-1_o"></ellipse><path stroke="#FF9500" stroke-width="14" d="M325.55 634.609H943" fill="none" fill-rule="evenodd"></path></svg>