<svg xmlns="http://www.w3.org/2000/svg" viewBox="0 0 1200 900"><style>@keyframes anime-dot-1_t{0%{transform:translate(374.5px,329.5px)}9.0909%{transform:translate(374.5px,329.5px)}54.5454%{transform:translate(892.979301px,309.542042px)}100%{transform:translate(892.979301px,309.542042px)}}@keyframes anime-dot-1_o{0%{opacity:0}18.1818%{opacity:1}45.4545%{opacity:1}63.6364%{opacity:0}100%{opacity:0}}@keyframes anime-dot-2_t{0%{transform:translate(374.5px,618.5px)}27.2727%{transform:translate(374.5px,618.5px)}90.909%{transform:translate(892.979309px,453.542042px)}100%{transform:translate(892.979309px,453.542042px)}}@keyframes anime-dot-2_o{0%{opacity:0}18.1818%{opacity:0}36.3636%{opacity:1}81.8182%{opacity:1}100%{opacity:0}}</style><g transform="translate(94,209) translate(0,-2e-06)" fill="none" fill-rule="evenodd"><path d="M280 236.695c0 1.494-.877 2.705-1.959 2.705H1.959C.877 239.4 0 238.189 0 236.695V7a7 7 0 0 1 7-7h266a7 7 0 0 1 7 7v229.695z" fill="#FF003C"></path><path d="M7 0h266a7 7 0 0 1 7 7v25.2H0V7a7 7 0 0 1 7-7z" fill="#CCC"></path><path d="M23.8 17.5a6.3 6.3 0 0 1-6.3 6.3 6.3 6.3 0 0 1-6.3-6.3 6.3 6.3 0 0 1 6.3-6.3 6.3 6.3 0 0 1 6.3 6.3" fill="#E74C3C"></path><path d="M46.2 17.5a6.3 6.3 0 0 1-6.3 6.3 6.3 6.3 0 0 1-6.3-6.3 6.3 6.3 0 0 1 6.3-6.3 6.3 6.3 0 0 1 6.3 6.3" fill="#F1C40F"></path><path d="M67.2 17.5a6.3 6.3 0 0 1-6.3 6.3 6.3 6.3 0 0 1-6.3-6.3 6.3 6.3 0 0 1 6.3-6.3 6.3 6.3 0 0 1 6.3 6.3" fill="#2ECC71"></path></g><g transform="translate(94,498) translate(0,-2e-06)" fill="none" fill-rule="evenodd"><path d="M280 236.695c0 1.494-.877 2.705-1.959 2.705H1.959C.877 239.4 0 238.189 0 236.695V7a7 7 0 0 1 7-7h266a7 7 0 0 1 7 7v229.695z" fill="#FF003C"></path><path d="M7 0h266a7 7 0 0 1 7 7v25.2H0V7a7 7 0 0 1 7-7z" fill="#CCC"></path><path d="M23.8 17.5a6.3 6.3 0 0 1-6.3 6.3 6.3 6.3 0 0 1-6.3-6.3 6.3 6.3 0 0 1 6.3-6.3 6.3 6.3 0 0 1 6.3 6.3" fill="#E74C3C"></path><path d="M46.2 17.5a6.3 6.3 0 0 1-6.3 6.3 6.3 6.3 0 0 1-6.3-6.3 6.3 6.3 0 0 1 6.3-6.3 6.3 6.3 0 0 1 6.3 6.3" fill="#F1C40F"></path><path d="M67.2 17.5a6.3 6.3 0 0 1-6.3 6.3 6.3 6.3 0 0 1-6.3-6.3 6.3 6.3 0 0 1 6.3-6.3 6.3 6.3 0 0 1 6.3 6.3" fill="#2ECC71"></path></g><g fill="none" fill-rule="evenodd" transform="translate(892,105)"><path d="M140 118.348c0 .747-.438 1.352-.979 1.352H.979c-.54 0-.979-.605-.979-1.352V3.5A3.5 3.5 0 0 1 3.5 0h133a3.5 3.5 0 0 1 3.5 3.5v114.848z" fill="#E3CEBC"></path><path d="M81.246 75.987l1.37-3.282a14.519 14.519 0 0 0 4.054-.666l2.358 2.672a1.348 1.348 0 0 0 1.718.255l1.488-.923 1.488-.924a1.349 1.349 0 0 0 .533-1.652l-1.347-3.3a13.736 13.736 0 0 0 2.432-3.425l3.519.22c.66.04 1.25-.392 1.4-1.04l.403-1.717.402-1.716a1.361 1.361 0 0 0-.794-1.555l-3.31-1.394a14.784 14.784 0 0 0-.685-4.04l2.676-2.31a1.347 1.347 0 0 0 .256-1.717l-.924-1.488-.924-1.489a1.349 1.349 0 0 0-1.652-.533l-3.318 1.36a14.425 14.425 0 0 0-3.344-2.364l.22-3.52a1.346 1.346 0 0 0-1.041-1.4l-1.716-.403-1.716-.4a1.361 1.361 0 0 0-1.555.792l-1.395 3.31a14.759 14.759 0 0 0-4.04.685l-2.332-2.65a1.348 1.348 0 0 0-1.718-.255l-1.488.924-1.488.923a1.348 1.348 0 0 0-.533 1.653l1.36 3.318c-.91.96-1.707 2.063-2.328 3.254l-3.55-.228c-.66-.04-1.25.393-1.401 1.042l-.402 1.716-.402 1.715a1.361 1.361 0 0 0 .794 1.556l3.282 1.371a14.519 14.519 0 0 0 .666 4.052l-2.672 2.36a1.348 1.348 0 0 0-.255 1.717l.923 1.488.924 1.488c.343.553 1.04.781 1.652.533l3.3-1.347a14.514 14.514 0 0 0 3.336 2.394l-.228 3.55A1.35 1.35 0 0 0 76.284 76l1.715.401 1.716.403a1.403 1.403 0 0 0 1.53-.817zm2.764-25.362a7.724 7.724 0 1 1-3.52 15.042 7.724 7.724 0 0 1 3.52-15.042zM65.383 93.22l.36-2.156a8.898 8.898 0 0 0 2.33-.965l1.785 1.268a.828.828 0 0 0 1.063-.088l.76-.76.762-.762a.827.827 0 0 0 .087-1.062l-1.267-1.784a8.445 8.445 0 0 0 .975-2.39l2.135-.36a.828.828 0 0 0 .693-.82v-2.162c0-.4-.293-.752-.693-.82l-2.174-.37a9.054 9.054 0 0 0-.975-2.32l1.278-1.757a.828.828 0 0 0-.088-1.063l-.76-.76-.762-.762a.827.827 0 0 0-1.062-.087l-1.794 1.277a8.85 8.85 0 0 0-2.33-.945l-.361-2.136a.828.828 0 0 0-.82-.692h-2.163c-.4 0-.75.292-.82.692l-.37 2.174a9.038 9.038 0 0 0-2.32.975l-1.764-1.258a.828.828 0 0 0-1.063.088l-.76.76-.761.762a.827.827 0 0 0-.088 1.062l1.278 1.794a8.885 8.885 0 0 0-.936 2.273l-2.156.36a.829.829 0 0 0-.692.82v2.164c0 .4.293.75.692.82l2.156.36a8.898 8.898 0 0 0 .965 2.33l-1.268 1.784a.828.828 0 0 0 .088 1.062l.76.761.76.761a.827.827 0 0 0 1.064.088l1.783-1.267c.722.43 1.502.75 2.33.965l.36 2.155c.069.4.41.693.82.693h2.164a.86.86 0 0 0 .798-.702zm-1.896-15.555a4.745 4.745 0 1 1 0 9.49 4.745 4.745 0 0 1 0-9.49zm-11.01-5.646l.3-2.087a8.604 8.604 0 0 0 2.227-.985l1.75 1.182a.798.798 0 0 0 1.024-.109l.717-.75.716-.752a.798.798 0 0 0 .06-1.028l-1.264-1.692a8.131 8.131 0 0 0 .887-2.328l2.052-.397a.8.8 0 0 0 .65-.806l-.025-1.044-.024-1.045a.808.808 0 0 0-.687-.775l-2.107-.308a8.749 8.749 0 0 0-.994-2.217l1.193-1.722a.798.798 0 0 0-.11-1.024l-.75-.716-.752-.717a.798.798 0 0 0-1.027-.06l-1.703 1.273a8.557 8.557 0 0 0-2.27-.86L51.943 51a.8.8 0 0 0-.806-.65l-1.045.026-1.044.023a.81.81 0 0 0-.775.687l-.308 2.107a8.74 8.74 0 0 0-2.217.994l-1.731-1.173a.798.798 0 0 0-1.024.11l-.717.75-.716.751a.798.798 0 0 0-.06 1.028l1.273 1.702a8.61 8.61 0 0 0-.852 2.214l-2.07.397a.8.8 0 0 0-.65.806l.024 1.045.025 1.044c.009.386.3.718.686.775l2.088.3a8.604 8.604 0 0 0 .985 2.226l-1.183 1.75a.798.798 0 0 0 .11 1.024l.75.717.752.716a.798.798 0 0 0 1.027.06l1.693-1.263c.706.397 1.466.69 2.27.878l.398 2.071a.8.8 0 0 0 .807.65l1.044-.025 1.044-.024a.834.834 0 0 0 .757-.697zm-2.184-14.966a4.58 4.58 0 1 1 .216 9.157 4.58 4.58 0 0 1-.216-9.157z" fill="#6C431E" fill-rule="nonzero"></path><path d="M3.5 0h133a3.5 3.5 0 0 1 3.5 3.5v12.6H0V3.5A3.5 3.5 0 0 1 3.5 0z" fill="#CCC"></path><path d="M11.9 8.75a3.15 3.15 0 1 1-6.3 0 3.15 3.15 0 0 1 6.3 0" fill="#E74C3C"></path><path d="M23.1 8.75a3.15 3.15 0 1 1-6.3 0 3.15 3.15 0 0 1 6.3 0" fill="#F1C40F"></path><path d="M33.6 8.75a3.15 3.15 0 1 1-6.3 0 3.15 3.15 0 0 1 6.3 0" fill="#2ECC71"></path></g><g fill="none" fill-rule="evenodd" transform="translate(892,250)"><path d="M140 118.348c0 .747-.438 1.352-.979 1.352H.979c-.54 0-.979-.605-.979-1.352V3.5A3.5 3.5 0 0 1 3.5 0h133a3.5 3.5 0 0 1 3.5 3.5v114.848z" fill="#E3CEBC"></path><path d="M81.246 75.987l1.37-3.282a14.519 14.519 0 0 0 4.054-.666l2.358 2.672a1.348 1.348 0 0 0 1.718.255l1.488-.923 1.488-.924a1.349 1.349 0 0 0 .533-1.652l-1.347-3.3a13.736 13.736 0 0 0 2.432-3.425l3.519.22c.66.04 1.25-.392 1.4-1.04l.403-1.717.402-1.716a1.361 1.361 0 0 0-.794-1.555l-3.31-1.394a14.784 14.784 0 0 0-.685-4.04l2.676-2.31a1.347 1.347 0 0 0 .256-1.717l-.924-1.488-.924-1.489a1.349 1.349 0 0 0-1.652-.533l-3.318 1.36a14.425 14.425 0 0 0-3.344-2.364l.22-3.52a1.346 1.346 0 0 0-1.041-1.4l-1.716-.403-1.716-.4a1.361 1.361 0 0 0-1.555.792l-1.395 3.31a14.759 14.759 0 0 0-4.04.685l-2.332-2.65a1.348 1.348 0 0 0-1.718-.255l-1.488.924-1.488.923a1.348 1.348 0 0 0-.533 1.653l1.36 3.318c-.91.96-1.707 2.063-2.328 3.254l-3.55-.228c-.66-.04-1.25.393-1.401 1.042l-.402 1.716-.402 1.715a1.361 1.361 0 0 0 .794 1.556l3.282 1.371a14.519 14.519 0 0 0 .666 4.052l-2.672 2.36a1.348 1.348 0 0 0-.255 1.717l.923 1.488.924 1.488c.343.553 1.04.781 1.652.533l3.3-1.347a14.514 14.514 0 0 0 3.336 2.394l-.228 3.55A1.35 1.35 0 0 0 76.284 76l1.715.401 1.716.403a1.403 1.403 0 0 0 1.53-.817zm2.764-25.362a7.724 7.724 0 1 1-3.52 15.042 7.724 7.724 0 0 1 3.52-15.042zM65.383 93.22l.36-2.156a8.898 8.898 0 0 0 2.33-.965l1.785 1.268a.828.828 0 0 0 1.063-.088l.76-.76.762-.762a.827.827 0 0 0 .087-1.062l-1.267-1.784a8.445 8.445 0 0 0 .975-2.39l2.135-.36a.828.828 0 0 0 .693-.82v-2.162c0-.4-.293-.752-.693-.82l-2.174-.37a9.054 9.054 0 0 0-.975-2.32l1.278-1.757a.828.828 0 0 0-.088-1.063l-.76-.76-.762-.762a.827.827 0 0 0-1.062-.087l-1.794 1.277a8.85 8.85 0 0 0-2.33-.945l-.361-2.136a.828.828 0 0 0-.82-.692h-2.163c-.4 0-.75.292-.82.692l-.37 2.174a9.038 9.038 0 0 0-2.32.975l-1.764-1.258a.828.828 0 0 0-1.063.088l-.76.76-.761.762a.827.827 0 0 0-.088 1.062l1.278 1.794a8.885 8.885 0 0 0-.936 2.273l-2.156.36a.829.829 0 0 0-.692.82v2.164c0 .4.293.75.692.82l2.156.36a8.898 8.898 0 0 0 .965 2.33l-1.268 1.784a.828.828 0 0 0 .088 1.062l.76.761.76.761a.827.827 0 0 0 1.064.088l1.783-1.267c.722.43 1.502.75 2.33.965l.36 2.155c.069.4.41.693.82.693h2.164a.86.86 0 0 0 .798-.702zm-1.896-15.555a4.745 4.745 0 1 1 0 9.49 4.745 4.745 0 0 1 0-9.49zm-11.01-5.646l.3-2.087a8.604 8.604 0 0 0 2.227-.985l1.75 1.182a.798.798 0 0 0 1.024-.109l.717-.75.716-.752a.798.798 0 0 0 .06-1.028l-1.264-1.692a8.131 8.131 0 0 0 .887-2.328l2.052-.397a.8.8 0 0 0 .65-.806l-.025-1.044-.024-1.045a.808.808 0 0 0-.687-.775l-2.107-.308a8.749 8.749 0 0 0-.994-2.217l1.193-1.722a.798.798 0 0 0-.11-1.024l-.75-.716-.752-.717a.798.798 0 0 0-1.027-.06l-1.703 1.273a8.557 8.557 0 0 0-2.27-.86L51.943 51a.8.8 0 0 0-.806-.65l-1.045.026-1.044.023a.81.81 0 0 0-.775.687l-.308 2.107a8.74 8.74 0 0 0-2.217.994l-1.731-1.173a.798.798 0 0 0-1.024.11l-.717.75-.716.751a.798.798 0 0 0-.06 1.028l1.273 1.702a8.61 8.61 0 0 0-.852 2.214l-2.07.397a.8.8 0 0 0-.65.806l.024 1.045.025 1.044c.009.386.3.718.686.775l2.088.3a8.604 8.604 0 0 0 .985 2.226l-1.183 1.75a.798.798 0 0 0 .11 1.024l.75.717.752.716a.798.798 0 0 0 1.027.06l1.693-1.263c.706.397 1.466.69 2.27.878l.398 2.071a.8.8 0 0 0 .807.65l1.044-.025 1.044-.024a.834.834 0 0 0 .757-.697zm-2.184-14.966a4.58 4.58 0 1 1 .216 9.157 4.58 4.58 0 0 1-.216-9.157z" fill="#6C431E" fill-rule="nonzero"></path><path d="M3.5 0h133a3.5 3.5 0 0 1 3.5 3.5v12.6H0V3.5A3.5 3.5 0 0 1 3.5 0z" fill="#CCC"></path><path d="M11.9 8.75a3.15 3.15 0 1 1-6.3 0 3.15 3.15 0 0 1 6.3 0" fill="#E74C3C"></path><path d="M23.1 8.75a3.15 3.15 0 1 1-6.3 0 3.15 3.15 0 0 1 6.3 0" fill="#F1C40F"></path><path d="M33.6 8.75a3.15 3.15 0 1 1-6.3 0 3.15 3.15 0 0 1 6.3 0" fill="#2ECC71"></path></g><g fill="none" fill-rule="evenodd" transform="translate(892,394)"><path d="M140 118.348c0 .747-.438 1.352-.979 1.352H.979c-.54 0-.979-.605-.979-1.352V3.5A3.5 3.5 0 0 1 3.5 0h133a3.5 3.5 0 0 1 3.5 3.5v114.848z" fill="#E3CEBC"></path><path d="M81.246 75.987l1.37-3.282a14.519 14.519 0 0 0 4.054-.666l2.358 2.672a1.348 1.348 0 0 0 1.718.255l1.488-.923 1.488-.924a1.349 1.349 0 0 0 .533-1.652l-1.347-3.3a13.736 13.736 0 0 0 2.432-3.425l3.519.22c.66.04 1.25-.392 1.4-1.04l.403-1.717.402-1.716a1.361 1.361 0 0 0-.794-1.555l-3.31-1.394a14.784 14.784 0 0 0-.685-4.04l2.676-2.31a1.347 1.347 0 0 0 .256-1.717l-.924-1.488-.924-1.489a1.349 1.349 0 0 0-1.652-.533l-3.318 1.36a14.425 14.425 0 0 0-3.344-2.364l.22-3.52a1.346 1.346 0 0 0-1.041-1.4l-1.716-.403-1.716-.4a1.361 1.361 0 0 0-1.555.792l-1.395 3.31a14.759 14.759 0 0 0-4.04.685l-2.332-2.65a1.348 1.348 0 0 0-1.718-.255l-1.488.924-1.488.923a1.348 1.348 0 0 0-.533 1.653l1.36 3.318c-.91.96-1.707 2.063-2.328 3.254l-3.55-.228c-.66-.04-1.25.393-1.401 1.042l-.402 1.716-.402 1.715a1.361 1.361 0 0 0 .794 1.556l3.282 1.371a14.519 14.519 0 0 0 .666 4.052l-2.672 2.36a1.348 1.348 0 0 0-.255 1.717l.923 1.488.924 1.488c.343.553 1.04.781 1.652.533l3.3-1.347a14.514 14.514 0 0 0 3.336 2.394l-.228 3.55A1.35 1.35 0 0 0 76.284 76l1.715.401 1.716.403a1.403 1.403 0 0 0 1.53-.817zm2.764-25.362a7.724 7.724 0 1 1-3.52 15.042 7.724 7.724 0 0 1 3.52-15.042zM65.383 93.22l.36-2.156a8.898 8.898 0 0 0 2.33-.965l1.785 1.268a.828.828 0 0 0 1.063-.088l.76-.76.762-.762a.827.827 0 0 0 .087-1.062l-1.267-1.784a8.445 8.445 0 0 0 .975-2.39l2.135-.36a.828.828 0 0 0 .693-.82v-2.162c0-.4-.293-.752-.693-.82l-2.174-.37a9.054 9.054 0 0 0-.975-2.32l1.278-1.757a.828.828 0 0 0-.088-1.063l-.76-.76-.762-.762a.827.827 0 0 0-1.062-.087l-1.794 1.277a8.85 8.85 0 0 0-2.33-.945l-.361-2.136a.828.828 0 0 0-.82-.692h-2.163c-.4 0-.75.292-.82.692l-.37 2.174a9.038 9.038 0 0 0-2.32.975l-1.764-1.258a.828.828 0 0 0-1.063.088l-.76.76-.761.762a.827.827 0 0 0-.088 1.062l1.278 1.794a8.885 8.885 0 0 0-.936 2.273l-2.156.36a.829.829 0 0 0-.692.82v2.164c0 .4.293.75.692.82l2.156.36a8.898 8.898 0 0 0 .965 2.33l-1.268 1.784a.828.828 0 0 0 .088 1.062l.76.761.76.761a.827.827 0 0 0 1.064.088l1.783-1.267c.722.43 1.502.75 2.33.965l.36 2.155c.069.4.41.693.82.693h2.164a.86.86 0 0 0 .798-.702zm-1.896-15.555a4.745 4.745 0 1 1 0 9.49 4.745 4.745 0 0 1 0-9.49zm-11.01-5.646l.3-2.087a8.604 8.604 0 0 0 2.227-.985l1.75 1.182a.798.798 0 0 0 1.024-.109l.717-.75.716-.752a.798.798 0 0 0 .06-1.028l-1.264-1.692a8.131 8.131 0 0 0 .887-2.328l2.052-.397a.8.8 0 0 0 .65-.806l-.025-1.044-.024-1.045a.808.808 0 0 0-.687-.775l-2.107-.308a8.749 8.749 0 0 0-.994-2.217l1.193-1.722a.798.798 0 0 0-.11-1.024l-.75-.716-.752-.717a.798.798 0 0 0-1.027-.06l-1.703 1.273a8.557 8.557 0 0 0-2.27-.86L51.943 51a.8.8 0 0 0-.806-.65l-1.045.026-1.044.023a.81.81 0 0 0-.775.687l-.308 2.107a8.74 8.74 0 0 0-2.217.994l-1.731-1.173a.798.798 0 0 0-1.024.11l-.717.75-.716.751a.798.798 0 0 0-.06 1.028l1.273 1.702a8.61 8.61 0 0 0-.852 2.214l-2.07.397a.8.8 0 0 0-.65.806l.024 1.045.025 1.044c.009.386.3.718.686.775l2.088.3a8.604 8.604 0 0 0 .985 2.226l-1.183 1.75a.798.798 0 0 0 .11 1.024l.75.717.752.716a.798.798 0 0 0 1.027.06l1.693-1.263c.706.397 1.466.69 2.27.878l.398 2.071a.8.8 0 0 0 .807.65l1.044-.025 1.044-.024a.834.834 0 0 0 .757-.697zm-2.184-14.966a4.58 4.58 0 1 1 .216 9.157 4.58 4.58 0 0 1-.216-9.157z" fill="#6C431E" fill-rule="nonzero"></path><path d="M3.5 0h133a3.5 3.5 0 0 1 3.5 3.5v12.6H0V3.5A3.5 3.5 0 0 1 3.5 0z" fill="#CCC"></path><path d="M11.9 8.75a3.15 3.15 0 1 1-6.3 0 3.15 3.15 0 0 1 6.3 0" fill="#E74C3C"></path><path d="M23.1 8.75a3.15 3.15 0 1 1-6.3 0 3.15 3.15 0 0 1 6.3 0" fill="#F1C40F"></path><path d="M33.6 8.75a3.15 3.15 0 1 1-6.3 0 3.15 3.15 0 0 1 6.3 0" fill="#2ECC71"></path></g><g fill="none" fill-rule="evenodd" transform="translate(892,539)"><path d="M140 118.348c0 .747-.438 1.352-.979 1.352H.979c-.54 0-.979-.605-.979-1.352V3.5A3.5 3.5 0 0 1 3.5 0h133a3.5 3.5 0 0 1 3.5 3.5v114.848z" fill="#E3CEBC"></path><path d="M81.246 75.987l1.37-3.282a14.519 14.519 0 0 0 4.054-.666l2.358 2.672a1.348 1.348 0 0 0 1.718.255l1.488-.923 1.488-.924a1.349 1.349 0 0 0 .533-1.652l-1.347-3.3a13.736 13.736 0 0 0 2.432-3.425l3.519.22c.66.04 1.25-.392 1.4-1.04l.403-1.717.402-1.716a1.361 1.361 0 0 0-.794-1.555l-3.31-1.394a14.784 14.784 0 0 0-.685-4.04l2.676-2.31a1.347 1.347 0 0 0 .256-1.717l-.924-1.488-.924-1.489a1.349 1.349 0 0 0-1.652-.533l-3.318 1.36a14.425 14.425 0 0 0-3.344-2.364l.22-3.52a1.346 1.346 0 0 0-1.041-1.4l-1.716-.403-1.716-.4a1.361 1.361 0 0 0-1.555.792l-1.395 3.31a14.759 14.759 0 0 0-4.04.685l-2.332-2.65a1.348 1.348 0 0 0-1.718-.255l-1.488.924-1.488.923a1.348 1.348 0 0 0-.533 1.653l1.36 3.318c-.91.96-1.707 2.063-2.328 3.254l-3.55-.228c-.66-.04-1.25.393-1.401 1.042l-.402 1.716-.402 1.715a1.361 1.361 0 0 0 .794 1.556l3.282 1.371a14.519 14.519 0 0 0 .666 4.052l-2.672 2.36a1.348 1.348 0 0 0-.255 1.717l.923 1.488.924 1.488c.343.553 1.04.781 1.652.533l3.3-1.347a14.514 14.514 0 0 0 3.336 2.394l-.228 3.55A1.35 1.35 0 0 0 76.284 76l1.715.401 1.716.403a1.403 1.403 0 0 0 1.53-.817zm2.764-25.362a7.724 7.724 0 1 1-3.52 15.042 7.724 7.724 0 0 1 3.52-15.042zM65.383 93.22l.36-2.156a8.898 8.898 0 0 0 2.33-.965l1.785 1.268a.828.828 0 0 0 1.063-.088l.76-.76.762-.762a.827.827 0 0 0 .087-1.062l-1.267-1.784a8.445 8.445 0 0 0 .975-2.39l2.135-.36a.828.828 0 0 0 .693-.82v-2.162c0-.4-.293-.752-.693-.82l-2.174-.37a9.054 9.054 0 0 0-.975-2.32l1.278-1.757a.828.828 0 0 0-.088-1.063l-.76-.76-.762-.762a.827.827 0 0 0-1.062-.087l-1.794 1.277a8.85 8.85 0 0 0-2.33-.945l-.361-2.136a.828.828 0 0 0-.82-.692h-2.163c-.4 0-.75.292-.82.692l-.37 2.174a9.038 9.038 0 0 0-2.32.975l-1.764-1.258a.828.828 0 0 0-1.063.088l-.76.76-.761.762a.827.827 0 0 0-.088 1.062l1.278 1.794a8.885 8.885 0 0 0-.936 2.273l-2.156.36a.829.829 0 0 0-.692.82v2.164c0 .4.293.75.692.82l2.156.36a8.898 8.898 0 0 0 .965 2.33l-1.268 1.784a.828.828 0 0 0 .088 1.062l.76.761.76.761a.827.827 0 0 0 1.064.088l1.783-1.267c.722.43 1.502.75 2.33.965l.36 2.155c.069.4.41.693.82.693h2.164a.86.86 0 0 0 .798-.702zm-1.896-15.555a4.745 4.745 0 1 1 0 9.49 4.745 4.745 0 0 1 0-9.49zm-11.01-5.646l.3-2.087a8.604 8.604 0 0 0 2.227-.985l1.75 1.182a.798.798 0 0 0 1.024-.109l.717-.75.716-.752a.798.798 0 0 0 .06-1.028l-1.264-1.692a8.131 8.131 0 0 0 .887-2.328l2.052-.397a.8.8 0 0 0 .65-.806l-.025-1.044-.024-1.045a.808.808 0 0 0-.687-.775l-2.107-.308a8.749 8.749 0 0 0-.994-2.217l1.193-1.722a.798.798 0 0 0-.11-1.024l-.75-.716-.752-.717a.798.798 0 0 0-1.027-.06l-1.703 1.273a8.557 8.557 0 0 0-2.27-.86L51.943 51a.8.8 0 0 0-.806-.65l-1.045.026-1.044.023a.81.81 0 0 0-.775.687l-.308 2.107a8.74 8.74 0 0 0-2.217.994l-1.731-1.173a.798.798 0 0 0-1.024.11l-.717.75-.716.751a.798.798 0 0 0-.06 1.028l1.273 1.702a8.61 8.61 0 0 0-.852 2.214l-2.07.397a.8.8 0 0 0-.65.806l.024 1.045.025 1.044c.009.386.3.718.686.775l2.088.3a8.604 8.604 0 0 0 .985 2.226l-1.183 1.75a.798.798 0 0 0 .11 1.024l.75.717.752.716a.798.798 0 0 0 1.027.06l1.693-1.263c.706.397 1.466.69 2.27.878l.398 2.071a.8.8 0 0 0 .807.65l1.044-.025 1.044-.024a.834.834 0 0 0 .757-.697zm-2.184-14.966a4.58 4.58 0 1 1 .216 9.157 4.58 4.58 0 0 1-.216-9.157z" fill="#6C431E" fill-rule="nonzero"></path><path d="M3.5 0h133a3.5 3.5 0 0 1 3.5 3.5v12.6H0V3.5A3.5 3.5 0 0 1 3.5 0z" fill="#CCC"></path><path d="M11.9 8.75a3.15 3.15 0 1 1-6.3 0 3.15 3.15 0 0 1 6.3 0" fill="#E74C3C"></path><path d="M23.1 8.75a3.15 3.15 0 1 1-6.3 0 3.15 3.15 0 0 1 6.3 0" fill="#F1C40F"></path><path d="M33.6 8.75a3.15 3.15 0 1 1-6.3 0 3.15 3.15 0 0 1 6.3 0" fill="#2ECC71"></path></g><g fill="none" fill-rule="evenodd" transform="translate(892,676)"><path d="M140 118.348c0 .747-.438 1.352-.979 1.352H.979c-.54 0-.979-.605-.979-1.352V3.5A3.5 3.5 0 0 1 3.5 0h133a3.5 3.5 0 0 1 3.5 3.5v114.848z" fill="#E3CEBC"></path><path d="M81.246 75.987l1.37-3.282a14.519 14.519 0 0 0 4.054-.666l2.358 2.672a1.348 1.348 0 0 0 1.718.255l1.488-.923 1.488-.924a1.349 1.349 0 0 0 .533-1.652l-1.347-3.3a13.736 13.736 0 0 0 2.432-3.425l3.519.22c.66.04 1.25-.392 1.4-1.04l.403-1.717.402-1.716a1.361 1.361 0 0 0-.794-1.555l-3.31-1.394a14.784 14.784 0 0 0-.685-4.04l2.676-2.31a1.347 1.347 0 0 0 .256-1.717l-.924-1.488-.924-1.489a1.349 1.349 0 0 0-1.652-.533l-3.318 1.36a14.425 14.425 0 0 0-3.344-2.364l.22-3.52a1.346 1.346 0 0 0-1.041-1.4l-1.716-.403-1.716-.4a1.361 1.361 0 0 0-1.555.792l-1.395 3.31a14.759 14.759 0 0 0-4.04.685l-2.332-2.65a1.348 1.348 0 0 0-1.718-.255l-1.488.924-1.488.923a1.348 1.348 0 0 0-.533 1.653l1.36 3.318c-.91.96-1.707 2.063-2.328 3.254l-3.55-.228c-.66-.04-1.25.393-1.401 1.042l-.402 1.716-.402 1.715a1.361 1.361 0 0 0 .794 1.556l3.282 1.371a14.519 14.519 0 0 0 .666 4.052l-2.672 2.36a1.348 1.348 0 0 0-.255 1.717l.923 1.488.924 1.488c.343.553 1.04.781 1.652.533l3.3-1.347a14.514 14.514 0 0 0 3.336 2.394l-.228 3.55A1.35 1.35 0 0 0 76.284 76l1.715.401 1.716.403a1.403 1.403 0 0 0 1.53-.817zm2.764-25.362a7.724 7.724 0 1 1-3.52 15.042 7.724 7.724 0 0 1 3.52-15.042zM65.383 93.22l.36-2.156a8.898 8.898 0 0 0 2.33-.965l1.785 1.268a.828.828 0 0 0 1.063-.088l.76-.76.762-.762a.827.827 0 0 0 .087-1.062l-1.267-1.784a8.445 8.445 0 0 0 .975-2.39l2.135-.36a.828.828 0 0 0 .693-.82v-2.162c0-.4-.293-.752-.693-.82l-2.174-.37a9.054 9.054 0 0 0-.975-2.32l1.278-1.757a.828.828 0 0 0-.088-1.063l-.76-.76-.762-.762a.827.827 0 0 0-1.062-.087l-1.794 1.277a8.85 8.85 0 0 0-2.33-.945l-.361-2.136a.828.828 0 0 0-.82-.692h-2.163c-.4 0-.75.292-.82.692l-.37 2.174a9.038 9.038 0 0 0-2.32.975l-1.764-1.258a.828.828 0 0 0-1.063.088l-.76.76-.761.762a.827.827 0 0 0-.088 1.062l1.278 1.794a8.885 8.885 0 0 0-.936 2.273l-2.156.36a.829.829 0 0 0-.692.82v2.164c0 .4.293.75.692.82l2.156.36a8.898 8.898 0 0 0 .965 2.33l-1.268 1.784a.828.828 0 0 0 .088 1.062l.76.761.76.761a.827.827 0 0 0 1.064.088l1.783-1.267c.722.43 1.502.75 2.33.965l.36 2.155c.069.4.41.693.82.693h2.164a.86.86 0 0 0 .798-.702zm-1.896-15.555a4.745 4.745 0 1 1 0 9.49 4.745 4.745 0 0 1 0-9.49zm-11.01-5.646l.3-2.087a8.604 8.604 0 0 0 2.227-.985l1.75 1.182a.798.798 0 0 0 1.024-.109l.717-.75.716-.752a.798.798 0 0 0 .06-1.028l-1.264-1.692a8.131 8.131 0 0 0 .887-2.328l2.052-.397a.8.8 0 0 0 .65-.806l-.025-1.044-.024-1.045a.808.808 0 0 0-.687-.775l-2.107-.308a8.749 8.749 0 0 0-.994-2.217l1.193-1.722a.798.798 0 0 0-.11-1.024l-.75-.716-.752-.717a.798.798 0 0 0-1.027-.06l-1.703 1.273a8.557 8.557 0 0 0-2.27-.86L51.943 51a.8.8 0 0 0-.806-.65l-1.045.026-1.044.023a.81.81 0 0 0-.775.687l-.308 2.107a8.74 8.74 0 0 0-2.217.994l-1.731-1.173a.798.798 0 0 0-1.024.11l-.717.75-.716.751a.798.798 0 0 0-.06 1.028l1.273 1.702a8.61 8.61 0 0 0-.852 2.214l-2.07.397a.8.8 0 0 0-.65.806l.024 1.045.025 1.044c.009.386.3.718.686.775l2.088.3a8.604 8.604 0 0 0 .985 2.226l-1.183 1.75a.798.798 0 0 0 .11 1.024l.75.717.752.716a.798.798 0 0 0 1.027.06l1.693-1.263c.706.397 1.466.69 2.27.878l.398 2.071a.8.8 0 0 0 .807.65l1.044-.025 1.044-.024a.834.834 0 0 0 .757-.697zm-2.184-14.966a4.58 4.58 0 1 1 .216 9.157 4.58 4.58 0 0 1-.216-9.157z" fill="#6C431E" fill-rule="nonzero"></path><path d="M3.5 0h133a3.5 3.5 0 0 1 3.5 3.5v12.6H0V3.5A3.5 3.5 0 0 1 3.5 0z" fill="#CCC"></path><path d="M11.9 8.75a3.15 3.15 0 1 1-6.3 0 3.15 3.15 0 0 1 6.3 0" fill="#E74C3C"></path><path d="M23.1 8.75a3.15 3.15 0 1 1-6.3 0 3.15 3.15 0 0 1 6.3 0" fill="#F1C40F"></path><path d="M33.6 8.75a3.15 3.15 0 1 1-6.3 0 3.15 3.15 0 0 1 6.3 0" fill="#2ECC71"></path></g><path stroke="#FF9500" stroke-width="10" d="M374 328.7L892 310" fill="none" fill-rule="evenodd"></path><ellipse id="anime-dot-1" fill="#FF9500" rx="17.5" ry="17.5" stroke="none" stroke-width="1" fill-rule="evenodd" opacity="0" transform="translate(0,0) translate(374.5,329.5)" style="animation:1.1s linear infinite both anime-dot-1_t, 1.1s linear infinite both anime-dot-1_o"></ellipse><ellipse id="anime-dot-2" fill="#FF9500" rx="17.5" ry="17.5" stroke="none" stroke-width="1" fill-rule="evenodd" opacity="0" transform="translate(0,0) translate(374.5,618.5)" style="animation:1.1s linear infinite both anime-dot-2_t, 1.1s linear infinite both anime-dot-2_o"></ellipse><path stroke="#FF9500" stroke-width="10" d="M374 617.7L892 454" fill="none" fill-rule="evenodd"></path><path d="M1051.35 113v-2.436h-4.29c-.184 0-.661.023-1.43.069l1.41-1.529 4.005-4.616v-1.963h-8.66v2.298l3.698-.02c.526-.006.95-.02 1.273-.039-.31.31-.786.832-1.43 1.568L1042 110.84V113h9.35zm23.315-6v-6.047h-10.555c-.453 0-1.626.057-3.518.171l3.47-3.794 9.85-11.458V81h-21.302v5.704l9.098-.049a66.695 66.695 0 0 0 3.13-.098c-.76.768-1.933 2.065-3.518 3.893l-9.655 11.188V107h23zm-23.315 461v-2.436h-4.29c-.184 0-.661.023-1.43.069l1.41-1.529 4.005-4.616v-1.963h-8.66v2.298l3.698-.02c.526-.006.95-.02 1.273-.039-.31.31-.786.832-1.43 1.568L1042 565.84V568h9.35zm23.315-6v-6.047h-10.555c-.453 0-1.626.057-3.518.171l3.47-3.794 9.85-11.458V536h-21.302v5.704l9.098-.049a66.695 66.695 0 0 0 3.13-.098c-.76.768-1.933 2.065-3.518 3.893l-9.655 11.188V562h23zm-23.315 146v-2.436h-4.29c-.184 0-.661.023-1.43.069l1.41-1.529 4.005-4.616v-1.963h-8.66v2.298l3.698-.02c.526-.006.95-.02 1.273-.039-.31.31-.786.832-1.43 1.568L1042 705.84V708h9.35zm23.315-6v-6.047h-10.555c-.453 0-1.626.057-3.518.171l3.47-3.794 9.85-11.458V676h-21.302v5.704l9.098-.049a66.695 66.695 0 0 0 3.13-.098c-.76.768-1.933 2.065-3.518 3.893l-9.655 11.188V702h23z"></path></svg>