<svg viewBox="0 0 1200 900" xmlns="http://www.w3.org/2000/svg"><style>.sans-serif{font-family:-apple-system,BlinkMacSystemFont,'avenir next', avenir,'helvetica neue',helvetica,ubuntu,roboto,noto,'segoe ui',arial,sans-serif}</style><g fill="none" fill-rule="evenodd"><g transform="translate(111.000000, 231.000000)"><g transform="translate(0.000000, 153.000000) translate(0.000000, 0.799999)"><g transform="translate(0.000000, 44.999998)"><path d="M280 236.695c0 1.494-.877 2.705-1.959 2.705H1.96c-1.083 0-1.96-1.21-1.96-2.705V7a7 7 0 0 1 7-7h266a7 7 0 0 1 7 7v229.695z" fill="#FF003C"></path><path d="M7 0h266a7 7 0 0 1 7 7v25.2H0V7a7 7 0 0 1 7-7z" fill="#CCC"></path><path d="M23.8 17.5a6.3 6.3 0 0 1-6.3 6.3 6.3 6.3 0 0 1-6.3-6.3 6.3 6.3 0 0 1 6.3-6.3 6.3 6.3 0 0 1 6.3 6.3" fill="#E74C3C"></path><path d="M46.2 17.5a6.3 6.3 0 0 1-6.3 6.3 6.3 6.3 0 0 1-6.3-6.3 6.3 6.3 0 0 1 6.3-6.3 6.3 6.3 0 0 1 6.3 6.3" fill="#F1C40F"></path><path d="M67.2 17.5a6.3 6.3 0 0 1-6.3 6.3 6.3 6.3 0 0 1-6.3-6.3 6.3 6.3 0 0 1 6.3-6.3 6.3 6.3 0 0 1 6.3 6.3" fill="#2ECC71"></path></g><text font-size="28" font-weight="bold" fill="#4A4A4A" class="sans-serif"><tspan x="0" y="25.2">Pod 1</tspan></text></g><g transform="translate(399.000000, 44.799999)" fill-rule="nonzero"><path d="M580 7v28H0V7a7 7 0 0 1 7-7h566a7 7 0 0 1 7 7z" fill="#D2D2D2"></path><path fill="#A3A3A3" d="M9.8 8.4h5.6V14H9.8zm8.4 0h5.6V14h-5.6zm8.4 0h5.6V14h-5.6z"></path></g><g transform="translate(399.000000, 80.000000)"><g transform="translate(63.839999, 0.000000)" fill-rule="nonzero"><path fill="#9EEBCF" d="M4.704-.672V57.12H2.688V-.672z"></path><circle stroke="#9EEBCF" stroke-width="2.016" fill="#FFF" cx="3.696" cy="-1.008" r="4.368"></circle><path fill="#9EEBCF" d="M3.696 59.808L0 54.432h7.392z"></path></g><g transform="translate(0.000000, 57.119999)"><path d="M134.4 113.614c0 .717-.42 1.298-.94 1.298H.94c-.52 0-.94-.581-.94-1.298V3.36A3.36 3.36 0 0 1 3.36 0h127.68a3.36 3.36 0 0 1 3.36 3.36v110.254z" fill="#E3CEBC"></path><path d="M77.996 72.948l1.316-3.15a13.938 13.938 0 0 0 3.89-.64l2.264 2.565a1.294 1.294 0 0 0 1.65.245l1.428-.886 1.43-.887c.53-.33.75-.998.511-1.586l-1.294-3.168a13.186 13.186 0 0 0 2.335-3.288l3.378.211a1.294 1.294 0 0 0 1.345-1l.386-1.647.386-1.647a1.307 1.307 0 0 0-.762-1.493l-3.178-1.339a14.193 14.193 0 0 0-.658-3.879l2.57-2.216a1.294 1.294 0 0 0 .245-1.649l-.887-1.428-.887-1.429c-.33-.53-.998-.75-1.586-.512l-3.186 1.305a13.848 13.848 0 0 0-3.21-2.27l.212-3.378a1.294 1.294 0 0 0-1-1.345l-1.647-.386-1.647-.385a1.307 1.307 0 0 0-1.493.762l-1.339 3.177a14.232 14.232 0 0 0-3.88.657l-2.237-2.543a1.294 1.294 0 0 0-1.65-.245l-1.428.886-1.429.887c-.53.33-.75.998-.512 1.586l1.305 3.186a13.934 13.934 0 0 0-2.233 3.124l-3.409-.219a1.294 1.294 0 0 0-1.345 1l-.386 1.647-.385 1.647a1.307 1.307 0 0 0 .762 1.494l3.15 1.316a13.938 13.938 0 0 0 .64 3.89l-2.565 2.264a1.294 1.294 0 0 0-.245 1.65l.886 1.428.887 1.429c.33.53.998.75 1.586.512l3.167-1.294a13.933 13.933 0 0 0 3.203 2.299l-.218 3.408c-.038.633.377 1.2 1 1.346l1.647.385 1.647.386a1.347 1.347 0 0 0 1.47-.783zM80.65 48.6a7.416 7.416 0 1 1-3.38 14.441 7.415 7.415 0 0 1 3.38-14.44zM62.767 89.49l.346-2.069a8.542 8.542 0 0 0 2.238-.926l1.712 1.217a.794.794 0 0 0 1.02-.084l.731-.731.73-.73a.794.794 0 0 0 .085-1.02l-1.217-1.713a8.108 8.108 0 0 0 .936-2.294l2.05-.346a.795.795 0 0 0 .664-.786V77.93a.802.802 0 0 0-.664-.786l-2.087-.356a8.692 8.692 0 0 0-.936-2.228l1.226-1.684a.794.794 0 0 0-.084-1.02l-.73-.73-.73-.731a.794.794 0 0 0-1.02-.084l-1.723 1.226a8.497 8.497 0 0 0-2.237-.908l-.347-2.05a.795.795 0 0 0-.786-.665h-2.078a.803.803 0 0 0-.786.665l-.355 2.087a8.714 8.714 0 0 0-2.228.936l-1.694-1.207a.794.794 0 0 0-1.02.084l-.73.73-.73.73a.794.794 0 0 0-.085 1.02l1.226 1.723a8.555 8.555 0 0 0-.898 2.181l-2.07.346a.795.795 0 0 0-.664.787v2.078c0 .383.281.72.665.786l2.07.346a8.542 8.542 0 0 0 .925 2.237l-1.217 1.713a.794.794 0 0 0 .084 1.02l.73.73.731.73a.794.794 0 0 0 1.02.085l1.713-1.217a8.542 8.542 0 0 0 2.237.927l.347 2.069a.795.795 0 0 0 .786.664h2.078a.826.826 0 0 0 .766-.674zm-1.82-14.932a4.555 4.555 0 1 1 0 9.11 4.555 4.555 0 0 1 0-9.11zm-10.569-5.42l.287-2.004a8.26 8.26 0 0 0 2.138-.945l1.68 1.135a.767.767 0 0 0 .983-.105l.688-.721.688-.721a.766.766 0 0 0 .058-.987l-1.213-1.625a7.806 7.806 0 0 0 .85-2.234l1.97-.381a.768.768 0 0 0 .624-.774l-.023-1.003-.024-1.002a.775.775 0 0 0-.66-.744l-2.022-.296a8.399 8.399 0 0 0-.954-2.128l1.145-1.654a.767.767 0 0 0-.105-.983l-.72-.688-.722-.688a.766.766 0 0 0-.986-.058l-1.635 1.223a8.215 8.215 0 0 0-2.179-.825l-.38-1.97a.768.768 0 0 0-.775-.625l-1.003.024-1.002.024a.773.773 0 0 0-.744.659l-.296 2.023a8.4 8.4 0 0 0-2.128.954l-1.663-1.126a.767.767 0 0 0-.982.104l-.688.722-.688.72a.766.766 0 0 0-.058.987l1.222 1.634a8.278 8.278 0 0 0-.817 2.125l-1.988.382a.768.768 0 0 0-.624.774l.023 1.003.024 1.002a.775.775 0 0 0 .66.744l2.003.287a8.26 8.26 0 0 0 .946 2.138l-1.135 1.68a.767.767 0 0 0 .104.983l.721.688.722.688a.766.766 0 0 0 .986.058l1.625-1.214a8.26 8.26 0 0 0 2.18.844l.382 1.988a.768.768 0 0 0 .774.624l1.002-.024 1.003-.023a.8.8 0 0 0 .726-.669zm-2.097-14.367a4.397 4.397 0 1 1 .208 8.79 4.397 4.397 0 0 1-.208-8.79z" fill="#6C431E" fill-rule="nonzero"></path><path d="M3.36 0h127.68a3.36 3.36 0 0 1 3.36 3.36v12.096H0V3.36A3.36 3.36 0 0 1 3.36 0z" fill="#CCC"></path><path d="M11.424 8.4a3.024 3.024 0 1 1-6.048 0 3.024 3.024 0 0 1 6.048 0" fill="#E74C3C"></path><path d="M22.176 8.4a3.024 3.024 0 1 1-6.048 0 3.024 3.024 0 0 1 6.048 0" fill="#F1C40F"></path><path d="M32.256 8.4a3.024 3.024 0 1 1-6.048 0 3.024 3.024 0 0 1 6.048 0" fill="#2ECC71"></path></g><text font-size="13.44" font-weight="bold" fill="#4A4A4A" class="sans-serif"><tspan x="0" y="47.616">Pod 5</tspan></text><g transform="translate(207.839999, -0.000000)" fill-rule="nonzero"><path fill="#9EEBCF" d="M4.704-.672V57.12H2.688V-.672z"></path><circle stroke="#9EEBCF" stroke-width="2.016" fill="#FFF" cx="3.696" cy="-1.008" r="4.368"></circle><path fill="#9EEBCF" d="M3.696 59.808L0 54.432h7.392z"></path></g><g transform="translate(144.000000, 57.119999)"><path d="M134.4 113.614c0 .717-.42 1.298-.94 1.298H.94c-.52 0-.94-.581-.94-1.298V3.36A3.36 3.36 0 0 1 3.36 0h127.68a3.36 3.36 0 0 1 3.36 3.36v110.254z" fill="#E3CEBC"></path><path d="M77.996 72.948l1.316-3.15a13.938 13.938 0 0 0 3.89-.64l2.264 2.565a1.294 1.294 0 0 0 1.65.245l1.428-.886 1.43-.887c.53-.33.75-.998.511-1.586l-1.294-3.168a13.186 13.186 0 0 0 2.335-3.288l3.378.211a1.294 1.294 0 0 0 1.345-1l.386-1.647.386-1.647a1.307 1.307 0 0 0-.762-1.493l-3.178-1.339a14.193 14.193 0 0 0-.658-3.879l2.57-2.216a1.294 1.294 0 0 0 .245-1.649l-.887-1.428-.887-1.429c-.33-.53-.998-.75-1.586-.512l-3.186 1.305a13.848 13.848 0 0 0-3.21-2.27l.212-3.378a1.294 1.294 0 0 0-1-1.345l-1.647-.386-1.647-.385a1.307 1.307 0 0 0-1.493.762l-1.339 3.177a14.232 14.232 0 0 0-3.88.657l-2.237-2.543a1.294 1.294 0 0 0-1.65-.245l-1.428.886-1.429.887c-.53.33-.75.998-.512 1.586l1.305 3.186a13.934 13.934 0 0 0-2.233 3.124l-3.409-.219a1.294 1.294 0 0 0-1.345 1l-.386 1.647-.385 1.647a1.307 1.307 0 0 0 .762 1.494l3.15 1.316a13.938 13.938 0 0 0 .64 3.89l-2.565 2.264a1.294 1.294 0 0 0-.245 1.65l.886 1.428.887 1.429c.33.53.998.75 1.586.512l3.167-1.294a13.933 13.933 0 0 0 3.203 2.299l-.218 3.408c-.038.633.377 1.2 1 1.346l1.647.385 1.647.386a1.347 1.347 0 0 0 1.47-.783zM80.65 48.6a7.416 7.416 0 1 1-3.38 14.441 7.415 7.415 0 0 1 3.38-14.44zM62.767 89.49l.346-2.069a8.542 8.542 0 0 0 2.238-.926l1.712 1.217a.794.794 0 0 0 1.02-.084l.731-.731.73-.73a.794.794 0 0 0 .085-1.02l-1.217-1.713a8.108 8.108 0 0 0 .936-2.294l2.05-.346a.795.795 0 0 0 .664-.786V77.93a.802.802 0 0 0-.664-.786l-2.087-.356a8.692 8.692 0 0 0-.936-2.228l1.226-1.684a.794.794 0 0 0-.084-1.02l-.73-.73-.73-.731a.794.794 0 0 0-1.02-.084l-1.723 1.226a8.497 8.497 0 0 0-2.237-.908l-.347-2.05a.795.795 0 0 0-.786-.665h-2.078a.803.803 0 0 0-.786.665l-.355 2.087a8.714 8.714 0 0 0-2.228.936l-1.694-1.207a.794.794 0 0 0-1.02.084l-.73.73-.73.73a.794.794 0 0 0-.085 1.02l1.226 1.723a8.555 8.555 0 0 0-.898 2.181l-2.07.346a.795.795 0 0 0-.664.787v2.078c0 .383.281.72.665.786l2.07.346a8.542 8.542 0 0 0 .925 2.237l-1.217 1.713a.794.794 0 0 0 .084 1.02l.73.73.731.73a.794.794 0 0 0 1.02.085l1.713-1.217a8.542 8.542 0 0 0 2.237.927l.347 2.069a.795.795 0 0 0 .786.664h2.078a.826.826 0 0 0 .766-.674zm-1.82-14.932a4.555 4.555 0 1 1 0 9.11 4.555 4.555 0 0 1 0-9.11zm-10.569-5.42l.287-2.004a8.26 8.26 0 0 0 2.138-.945l1.68 1.135a.767.767 0 0 0 .983-.105l.688-.721.688-.721a.766.766 0 0 0 .058-.987l-1.213-1.625a7.806 7.806 0 0 0 .85-2.234l1.97-.381a.768.768 0 0 0 .624-.774l-.023-1.003-.024-1.002a.775.775 0 0 0-.66-.744l-2.022-.296a8.399 8.399 0 0 0-.954-2.128l1.145-1.654a.767.767 0 0 0-.105-.983l-.72-.688-.722-.688a.766.766 0 0 0-.986-.058l-1.635 1.223a8.215 8.215 0 0 0-2.179-.825l-.38-1.97a.768.768 0 0 0-.775-.625l-1.003.024-1.002.024a.773.773 0 0 0-.744.659l-.296 2.023a8.4 8.4 0 0 0-2.128.954l-1.663-1.126a.767.767 0 0 0-.982.104l-.688.722-.688.72a.766.766 0 0 0-.058.987l1.222 1.634a8.278 8.278 0 0 0-.817 2.125l-1.988.382a.768.768 0 0 0-.624.774l.023 1.003.024 1.002a.775.775 0 0 0 .66.744l2.003.287a8.26 8.26 0 0 0 .946 2.138l-1.135 1.68a.767.767 0 0 0 .104.983l.721.688.722.688a.766.766 0 0 0 .986.058l1.625-1.214a8.26 8.26 0 0 0 2.18.844l.382 1.988a.768.768 0 0 0 .774.624l1.002-.024 1.003-.023a.8.8 0 0 0 .726-.669zm-2.097-14.367a4.397 4.397 0 1 1 .208 8.79 4.397 4.397 0 0 1-.208-8.79z" fill="#6C431E" fill-rule="nonzero"></path><path d="M3.36 0h127.68a3.36 3.36 0 0 1 3.36 3.36v12.096H0V3.36A3.36 3.36 0 0 1 3.36 0z" fill="#CCC"></path><path d="M11.424 8.4a3.024 3.024 0 1 1-6.048 0 3.024 3.024 0 0 1 6.048 0" fill="#E74C3C"></path><path d="M22.176 8.4a3.024 3.024 0 1 1-6.048 0 3.024 3.024 0 0 1 6.048 0" fill="#F1C40F"></path><path d="M32.256 8.4a3.024 3.024 0 1 1-6.048 0 3.024 3.024 0 0 1 6.048 0" fill="#2ECC71"></path></g><text font-size="13.44" font-weight="bold" fill="#4A4A4A" class="sans-serif"><tspan x="144" y="47.616">Pod 6</tspan></text></g><g transform="translate(399.000000, 80.000000)"><g transform="translate(364.839999, 0.000000)" fill-rule="nonzero"><path fill="#9EEBCF" d="M4.704-.672V57.12H2.688V-.672z"></path><circle stroke="#9EEBCF" stroke-width="2.016" fill="#FFF" cx="3.696" cy="-1.008" r="4.368"></circle><path fill="#9EEBCF" d="M3.696 59.808L0 54.432h7.392z"></path></g><g transform="translate(301.000000, 57.119999)"><path d="M134.4 113.614c0 .717-.42 1.298-.94 1.298H.94c-.52 0-.94-.581-.94-1.298V3.36A3.36 3.36 0 0 1 3.36 0h127.68a3.36 3.36 0 0 1 3.36 3.36v110.254z" fill="#E3CEBC"></path><path d="M77.996 72.948l1.316-3.15a13.938 13.938 0 0 0 3.89-.64l2.264 2.565a1.294 1.294 0 0 0 1.65.245l1.428-.886 1.43-.887c.53-.33.75-.998.511-1.586l-1.294-3.168a13.186 13.186 0 0 0 2.335-3.288l3.378.211a1.294 1.294 0 0 0 1.345-1l.386-1.647.386-1.647a1.307 1.307 0 0 0-.762-1.493l-3.178-1.339a14.193 14.193 0 0 0-.658-3.879l2.57-2.216a1.294 1.294 0 0 0 .245-1.649l-.887-1.428-.887-1.429c-.33-.53-.998-.75-1.586-.512l-3.186 1.305a13.848 13.848 0 0 0-3.21-2.27l.212-3.378a1.294 1.294 0 0 0-1-1.345l-1.647-.386-1.647-.385a1.307 1.307 0 0 0-1.493.762l-1.339 3.177a14.232 14.232 0 0 0-3.88.657l-2.237-2.543a1.294 1.294 0 0 0-1.65-.245l-1.428.886-1.429.887c-.53.33-.75.998-.512 1.586l1.305 3.186a13.934 13.934 0 0 0-2.233 3.124l-3.409-.219a1.294 1.294 0 0 0-1.345 1l-.386 1.647-.385 1.647a1.307 1.307 0 0 0 .762 1.494l3.15 1.316a13.938 13.938 0 0 0 .64 3.89l-2.565 2.264a1.294 1.294 0 0 0-.245 1.65l.886 1.428.887 1.429c.33.53.998.75 1.586.512l3.167-1.294a13.933 13.933 0 0 0 3.203 2.299l-.218 3.408c-.038.633.377 1.2 1 1.346l1.647.385 1.647.386a1.347 1.347 0 0 0 1.47-.783zM80.65 48.6a7.416 7.416 0 1 1-3.38 14.441 7.415 7.415 0 0 1 3.38-14.44zM62.767 89.49l.346-2.069a8.542 8.542 0 0 0 2.238-.926l1.712 1.217a.794.794 0 0 0 1.02-.084l.731-.731.73-.73a.794.794 0 0 0 .085-1.02l-1.217-1.713a8.108 8.108 0 0 0 .936-2.294l2.05-.346a.795.795 0 0 0 .664-.786V77.93a.802.802 0 0 0-.664-.786l-2.087-.356a8.692 8.692 0 0 0-.936-2.228l1.226-1.684a.794.794 0 0 0-.084-1.02l-.73-.73-.73-.731a.794.794 0 0 0-1.02-.084l-1.723 1.226a8.497 8.497 0 0 0-2.237-.908l-.347-2.05a.795.795 0 0 0-.786-.665h-2.078a.803.803 0 0 0-.786.665l-.355 2.087a8.714 8.714 0 0 0-2.228.936l-1.694-1.207a.794.794 0 0 0-1.02.084l-.73.73-.73.73a.794.794 0 0 0-.085 1.02l1.226 1.723a8.555 8.555 0 0 0-.898 2.181l-2.07.346a.795.795 0 0 0-.664.787v2.078c0 .383.281.72.665.786l2.07.346a8.542 8.542 0 0 0 .925 2.237l-1.217 1.713a.794.794 0 0 0 .084 1.02l.73.73.731.73a.794.794 0 0 0 1.02.085l1.713-1.217a8.542 8.542 0 0 0 2.237.927l.347 2.069a.795.795 0 0 0 .786.664h2.078a.826.826 0 0 0 .766-.674zm-1.82-14.932a4.555 4.555 0 1 1 0 9.11 4.555 4.555 0 0 1 0-9.11zm-10.569-5.42l.287-2.004a8.26 8.26 0 0 0 2.138-.945l1.68 1.135a.767.767 0 0 0 .983-.105l.688-.721.688-.721a.766.766 0 0 0 .058-.987l-1.213-1.625a7.806 7.806 0 0 0 .85-2.234l1.97-.381a.768.768 0 0 0 .624-.774l-.023-1.003-.024-1.002a.775.775 0 0 0-.66-.744l-2.022-.296a8.399 8.399 0 0 0-.954-2.128l1.145-1.654a.767.767 0 0 0-.105-.983l-.72-.688-.722-.688a.766.766 0 0 0-.986-.058l-1.635 1.223a8.215 8.215 0 0 0-2.179-.825l-.38-1.97a.768.768 0 0 0-.775-.625l-1.003.024-1.002.024a.773.773 0 0 0-.744.659l-.296 2.023a8.4 8.4 0 0 0-2.128.954l-1.663-1.126a.767.767 0 0 0-.982.104l-.688.722-.688.72a.766.766 0 0 0-.058.987l1.222 1.634a8.278 8.278 0 0 0-.817 2.125l-1.988.382a.768.768 0 0 0-.624.774l.023 1.003.024 1.002a.775.775 0 0 0 .66.744l2.003.287a8.26 8.26 0 0 0 .946 2.138l-1.135 1.68a.767.767 0 0 0 .104.983l.721.688.722.688a.766.766 0 0 0 .986.058l1.625-1.214a8.26 8.26 0 0 0 2.18.844l.382 1.988a.768.768 0 0 0 .774.624l1.002-.024 1.003-.023a.8.8 0 0 0 .726-.669zm-2.097-14.367a4.397 4.397 0 1 1 .208 8.79 4.397 4.397 0 0 1-.208-8.79z" fill="#6C431E" fill-rule="nonzero"></path><path d="M3.36 0h127.68a3.36 3.36 0 0 1 3.36 3.36v12.096H0V3.36A3.36 3.36 0 0 1 3.36 0z" fill="#CCC"></path><path d="M11.424 8.4a3.024 3.024 0 1 1-6.048 0 3.024 3.024 0 0 1 6.048 0" fill="#E74C3C"></path><path d="M22.176 8.4a3.024 3.024 0 1 1-6.048 0 3.024 3.024 0 0 1 6.048 0" fill="#F1C40F"></path><path d="M32.256 8.4a3.024 3.024 0 1 1-6.048 0 3.024 3.024 0 0 1 6.048 0" fill="#2ECC71"></path></g><text font-size="13.44" font-weight="bold" fill="#4A4A4A" class="sans-serif"><tspan x="301" y="47.616">Pod 5</tspan></text><g transform="translate(508.839999, 0.000000)" fill-rule="nonzero"><path fill="#9EEBCF" d="M4.704-.672V57.12H2.688V-.672z"></path><circle stroke="#9EEBCF" stroke-width="2.016" fill="#FFF" cx="3.696" cy="-1.008" r="4.368"></circle><path fill="#9EEBCF" d="M3.696 59.808L0 54.432h7.392z"></path></g><g transform="translate(445.000000, 57.119999)"><path d="M134.4 113.614c0 .717-.42 1.298-.94 1.298H.94c-.52 0-.94-.581-.94-1.298V3.36A3.36 3.36 0 0 1 3.36 0h127.68a3.36 3.36 0 0 1 3.36 3.36v110.254z" fill="#E3CEBC"></path><path d="M77.996 72.948l1.316-3.15a13.938 13.938 0 0 0 3.89-.64l2.264 2.565a1.294 1.294 0 0 0 1.65.245l1.428-.886 1.43-.887c.53-.33.75-.998.511-1.586l-1.294-3.168a13.186 13.186 0 0 0 2.335-3.288l3.378.211a1.294 1.294 0 0 0 1.345-1l.386-1.647.386-1.647a1.307 1.307 0 0 0-.762-1.493l-3.178-1.339a14.193 14.193 0 0 0-.658-3.879l2.57-2.216a1.294 1.294 0 0 0 .245-1.649l-.887-1.428-.887-1.429c-.33-.53-.998-.75-1.586-.512l-3.186 1.305a13.848 13.848 0 0 0-3.21-2.27l.212-3.378a1.294 1.294 0 0 0-1-1.345l-1.647-.386-1.647-.385a1.307 1.307 0 0 0-1.493.762l-1.339 3.177a14.232 14.232 0 0 0-3.88.657l-2.237-2.543a1.294 1.294 0 0 0-1.65-.245l-1.428.886-1.429.887c-.53.33-.75.998-.512 1.586l1.305 3.186a13.934 13.934 0 0 0-2.233 3.124l-3.409-.219a1.294 1.294 0 0 0-1.345 1l-.386 1.647-.385 1.647a1.307 1.307 0 0 0 .762 1.494l3.15 1.316a13.938 13.938 0 0 0 .64 3.89l-2.565 2.264a1.294 1.294 0 0 0-.245 1.65l.886 1.428.887 1.429c.33.53.998.75 1.586.512l3.167-1.294a13.933 13.933 0 0 0 3.203 2.299l-.218 3.408c-.038.633.377 1.2 1 1.346l1.647.385 1.647.386a1.347 1.347 0 0 0 1.47-.783zM80.65 48.6a7.416 7.416 0 1 1-3.38 14.441 7.415 7.415 0 0 1 3.38-14.44zM62.767 89.49l.346-2.069a8.542 8.542 0 0 0 2.238-.926l1.712 1.217a.794.794 0 0 0 1.02-.084l.731-.731.73-.73a.794.794 0 0 0 .085-1.02l-1.217-1.713a8.108 8.108 0 0 0 .936-2.294l2.05-.346a.795.795 0 0 0 .664-.786V77.93a.802.802 0 0 0-.664-.786l-2.087-.356a8.692 8.692 0 0 0-.936-2.228l1.226-1.684a.794.794 0 0 0-.084-1.02l-.73-.73-.73-.731a.794.794 0 0 0-1.02-.084l-1.723 1.226a8.497 8.497 0 0 0-2.237-.908l-.347-2.05a.795.795 0 0 0-.786-.665h-2.078a.803.803 0 0 0-.786.665l-.355 2.087a8.714 8.714 0 0 0-2.228.936l-1.694-1.207a.794.794 0 0 0-1.02.084l-.73.73-.73.73a.794.794 0 0 0-.085 1.02l1.226 1.723a8.555 8.555 0 0 0-.898 2.181l-2.07.346a.795.795 0 0 0-.664.787v2.078c0 .383.281.72.665.786l2.07.346a8.542 8.542 0 0 0 .925 2.237l-1.217 1.713a.794.794 0 0 0 .084 1.02l.73.73.731.73a.794.794 0 0 0 1.02.085l1.713-1.217a8.542 8.542 0 0 0 2.237.927l.347 2.069a.795.795 0 0 0 .786.664h2.078a.826.826 0 0 0 .766-.674zm-1.82-14.932a4.555 4.555 0 1 1 0 9.11 4.555 4.555 0 0 1 0-9.11zm-10.569-5.42l.287-2.004a8.26 8.26 0 0 0 2.138-.945l1.68 1.135a.767.767 0 0 0 .983-.105l.688-.721.688-.721a.766.766 0 0 0 .058-.987l-1.213-1.625a7.806 7.806 0 0 0 .85-2.234l1.97-.381a.768.768 0 0 0 .624-.774l-.023-1.003-.024-1.002a.775.775 0 0 0-.66-.744l-2.022-.296a8.399 8.399 0 0 0-.954-2.128l1.145-1.654a.767.767 0 0 0-.105-.983l-.72-.688-.722-.688a.766.766 0 0 0-.986-.058l-1.635 1.223a8.215 8.215 0 0 0-2.179-.825l-.38-1.97a.768.768 0 0 0-.775-.625l-1.003.024-1.002.024a.773.773 0 0 0-.744.659l-.296 2.023a8.4 8.4 0 0 0-2.128.954l-1.663-1.126a.767.767 0 0 0-.982.104l-.688.722-.688.72a.766.766 0 0 0-.058.987l1.222 1.634a8.278 8.278 0 0 0-.817 2.125l-1.988.382a.768.768 0 0 0-.624.774l.023 1.003.024 1.002a.775.775 0 0 0 .66.744l2.003.287a8.26 8.26 0 0 0 .946 2.138l-1.135 1.68a.767.767 0 0 0 .104.983l.721.688.722.688a.766.766 0 0 0 .986.058l1.625-1.214a8.26 8.26 0 0 0 2.18.844l.382 1.988a.768.768 0 0 0 .774.624l1.002-.024 1.003-.023a.8.8 0 0 0 .726-.669zm-2.097-14.367a4.397 4.397 0 1 1 .208 8.79 4.397 4.397 0 0 1-.208-8.79z" fill="#6C431E" fill-rule="nonzero"></path><path d="M3.36 0h127.68a3.36 3.36 0 0 1 3.36 3.36v12.096H0V3.36A3.36 3.36 0 0 1 3.36 0z" fill="#CCC"></path><path d="M11.424 8.4a3.024 3.024 0 1 1-6.048 0 3.024 3.024 0 0 1 6.048 0" fill="#E74C3C"></path><path d="M22.176 8.4a3.024 3.024 0 1 1-6.048 0 3.024 3.024 0 0 1 6.048 0" fill="#F1C40F"></path><path d="M32.256 8.4a3.024 3.024 0 1 1-6.048 0 3.024 3.024 0 0 1 6.048 0" fill="#2ECC71"></path></g><g transform="translate(0.000000, 191.000000)"><path d="M134.4 113.614c0 .717-.42 1.298-.94 1.298H.94c-.52 0-.94-.581-.94-1.298V3.36A3.36 3.36 0 0 1 3.36 0h127.68a3.36 3.36 0 0 1 3.36 3.36v110.254z" fill="#E3CEBC"></path><path d="M77.996 72.948l1.316-3.15a13.938 13.938 0 0 0 3.89-.64l2.264 2.565a1.294 1.294 0 0 0 1.65.245l1.428-.886 1.43-.887c.53-.33.75-.998.511-1.586l-1.294-3.168a13.186 13.186 0 0 0 2.335-3.288l3.378.211a1.294 1.294 0 0 0 1.345-1l.386-1.647.386-1.647a1.307 1.307 0 0 0-.762-1.493l-3.178-1.339a14.193 14.193 0 0 0-.658-3.879l2.57-2.216a1.294 1.294 0 0 0 .245-1.649l-.887-1.428-.887-1.429c-.33-.53-.998-.75-1.586-.512l-3.186 1.305a13.848 13.848 0 0 0-3.21-2.27l.212-3.378a1.294 1.294 0 0 0-1-1.345l-1.647-.386-1.647-.385a1.307 1.307 0 0 0-1.493.762l-1.339 3.177a14.232 14.232 0 0 0-3.88.657l-2.237-2.543a1.294 1.294 0 0 0-1.65-.245l-1.428.886-1.429.887c-.53.33-.75.998-.512 1.586l1.305 3.186a13.934 13.934 0 0 0-2.233 3.124l-3.409-.219a1.294 1.294 0 0 0-1.345 1l-.386 1.647-.385 1.647a1.307 1.307 0 0 0 .762 1.494l3.15 1.316a13.938 13.938 0 0 0 .64 3.89l-2.565 2.264a1.294 1.294 0 0 0-.245 1.65l.886 1.428.887 1.429c.33.53.998.75 1.586.512l3.167-1.294a13.933 13.933 0 0 0 3.203 2.299l-.218 3.408c-.038.633.377 1.2 1 1.346l1.647.385 1.647.386a1.347 1.347 0 0 0 1.47-.783zM80.65 48.6a7.416 7.416 0 1 1-3.38 14.441 7.415 7.415 0 0 1 3.38-14.44zM62.767 89.49l.346-2.069a8.542 8.542 0 0 0 2.238-.926l1.712 1.217a.794.794 0 0 0 1.02-.084l.731-.731.73-.73a.794.794 0 0 0 .085-1.02l-1.217-1.713a8.108 8.108 0 0 0 .936-2.294l2.05-.346a.795.795 0 0 0 .664-.786V77.93a.802.802 0 0 0-.664-.786l-2.087-.356a8.692 8.692 0 0 0-.936-2.228l1.226-1.684a.794.794 0 0 0-.084-1.02l-.73-.73-.73-.731a.794.794 0 0 0-1.02-.084l-1.723 1.226a8.497 8.497 0 0 0-2.237-.908l-.347-2.05a.795.795 0 0 0-.786-.665h-2.078a.803.803 0 0 0-.786.665l-.355 2.087a8.714 8.714 0 0 0-2.228.936l-1.694-1.207a.794.794 0 0 0-1.02.084l-.73.73-.73.73a.794.794 0 0 0-.085 1.02l1.226 1.723a8.555 8.555 0 0 0-.898 2.181l-2.07.346a.795.795 0 0 0-.664.787v2.078c0 .383.281.72.665.786l2.07.346a8.542 8.542 0 0 0 .925 2.237l-1.217 1.713a.794.794 0 0 0 .084 1.02l.73.73.731.73a.794.794 0 0 0 1.02.085l1.713-1.217a8.542 8.542 0 0 0 2.237.927l.347 2.069a.795.795 0 0 0 .786.664h2.078a.826.826 0 0 0 .766-.674zm-1.82-14.932a4.555 4.555 0 1 1 0 9.11 4.555 4.555 0 0 1 0-9.11zm-10.569-5.42l.287-2.004a8.26 8.26 0 0 0 2.138-.945l1.68 1.135a.767.767 0 0 0 .983-.105l.688-.721.688-.721a.766.766 0 0 0 .058-.987l-1.213-1.625a7.806 7.806 0 0 0 .85-2.234l1.97-.381a.768.768 0 0 0 .624-.774l-.023-1.003-.024-1.002a.775.775 0 0 0-.66-.744l-2.022-.296a8.399 8.399 0 0 0-.954-2.128l1.145-1.654a.767.767 0 0 0-.105-.983l-.72-.688-.722-.688a.766.766 0 0 0-.986-.058l-1.635 1.223a8.215 8.215 0 0 0-2.179-.825l-.38-1.97a.768.768 0 0 0-.775-.625l-1.003.024-1.002.024a.773.773 0 0 0-.744.659l-.296 2.023a8.4 8.4 0 0 0-2.128.954l-1.663-1.126a.767.767 0 0 0-.982.104l-.688.722-.688.72a.766.766 0 0 0-.058.987l1.222 1.634a8.278 8.278 0 0 0-.817 2.125l-1.988.382a.768.768 0 0 0-.624.774l.023 1.003.024 1.002a.775.775 0 0 0 .66.744l2.003.287a8.26 8.26 0 0 0 .946 2.138l-1.135 1.68a.767.767 0 0 0 .104.983l.721.688.722.688a.766.766 0 0 0 .986.058l1.625-1.214a8.26 8.26 0 0 0 2.18.844l.382 1.988a.768.768 0 0 0 .774.624l1.002-.024 1.003-.023a.8.8 0 0 0 .726-.669zm-2.097-14.367a4.397 4.397 0 1 1 .208 8.79 4.397 4.397 0 0 1-.208-8.79z" fill="#6C431E" fill-rule="nonzero"></path><path d="M3.36 0h127.68a3.36 3.36 0 0 1 3.36 3.36v12.096H0V3.36A3.36 3.36 0 0 1 3.36 0z" fill="#CCC"></path><path d="M11.424 8.4a3.024 3.024 0 1 1-6.048 0 3.024 3.024 0 0 1 6.048 0" fill="#E74C3C"></path><path d="M22.176 8.4a3.024 3.024 0 1 1-6.048 0 3.024 3.024 0 0 1 6.048 0" fill="#F1C40F"></path><path d="M32.256 8.4a3.024 3.024 0 1 1-6.048 0 3.024 3.024 0 0 1 6.048 0" fill="#2ECC71"></path></g><g transform="translate(144.000000, 191.000000)"><path d="M134.4 113.614c0 .717-.42 1.298-.94 1.298H.94c-.52 0-.94-.581-.94-1.298V3.36A3.36 3.36 0 0 1 3.36 0h127.68a3.36 3.36 0 0 1 3.36 3.36v110.254z" fill="#E3CEBC"></path><path d="M77.996 72.948l1.316-3.15a13.938 13.938 0 0 0 3.89-.64l2.264 2.565a1.294 1.294 0 0 0 1.65.245l1.428-.886 1.43-.887c.53-.33.75-.998.511-1.586l-1.294-3.168a13.186 13.186 0 0 0 2.335-3.288l3.378.211a1.294 1.294 0 0 0 1.345-1l.386-1.647.386-1.647a1.307 1.307 0 0 0-.762-1.493l-3.178-1.339a14.193 14.193 0 0 0-.658-3.879l2.57-2.216a1.294 1.294 0 0 0 .245-1.649l-.887-1.428-.887-1.429c-.33-.53-.998-.75-1.586-.512l-3.186 1.305a13.848 13.848 0 0 0-3.21-2.27l.212-3.378a1.294 1.294 0 0 0-1-1.345l-1.647-.386-1.647-.385a1.307 1.307 0 0 0-1.493.762l-1.339 3.177a14.232 14.232 0 0 0-3.88.657l-2.237-2.543a1.294 1.294 0 0 0-1.65-.245l-1.428.886-1.429.887c-.53.33-.75.998-.512 1.586l1.305 3.186a13.934 13.934 0 0 0-2.233 3.124l-3.409-.219a1.294 1.294 0 0 0-1.345 1l-.386 1.647-.385 1.647a1.307 1.307 0 0 0 .762 1.494l3.15 1.316a13.938 13.938 0 0 0 .64 3.89l-2.565 2.264a1.294 1.294 0 0 0-.245 1.65l.886 1.428.887 1.429c.33.53.998.75 1.586.512l3.167-1.294a13.933 13.933 0 0 0 3.203 2.299l-.218 3.408c-.038.633.377 1.2 1 1.346l1.647.385 1.647.386a1.347 1.347 0 0 0 1.47-.783zM80.65 48.6a7.416 7.416 0 1 1-3.38 14.441 7.415 7.415 0 0 1 3.38-14.44zM62.767 89.49l.346-2.069a8.542 8.542 0 0 0 2.238-.926l1.712 1.217a.794.794 0 0 0 1.02-.084l.731-.731.73-.73a.794.794 0 0 0 .085-1.02l-1.217-1.713a8.108 8.108 0 0 0 .936-2.294l2.05-.346a.795.795 0 0 0 .664-.786V77.93a.802.802 0 0 0-.664-.786l-2.087-.356a8.692 8.692 0 0 0-.936-2.228l1.226-1.684a.794.794 0 0 0-.084-1.02l-.73-.73-.73-.731a.794.794 0 0 0-1.02-.084l-1.723 1.226a8.497 8.497 0 0 0-2.237-.908l-.347-2.05a.795.795 0 0 0-.786-.665h-2.078a.803.803 0 0 0-.786.665l-.355 2.087a8.714 8.714 0 0 0-2.228.936l-1.694-1.207a.794.794 0 0 0-1.02.084l-.73.73-.73.73a.794.794 0 0 0-.085 1.02l1.226 1.723a8.555 8.555 0 0 0-.898 2.181l-2.07.346a.795.795 0 0 0-.664.787v2.078c0 .383.281.72.665.786l2.07.346a8.542 8.542 0 0 0 .925 2.237l-1.217 1.713a.794.794 0 0 0 .084 1.02l.73.73.731.73a.794.794 0 0 0 1.02.085l1.713-1.217a8.542 8.542 0 0 0 2.237.927l.347 2.069a.795.795 0 0 0 .786.664h2.078a.826.826 0 0 0 .766-.674zm-1.82-14.932a4.555 4.555 0 1 1 0 9.11 4.555 4.555 0 0 1 0-9.11zm-10.569-5.42l.287-2.004a8.26 8.26 0 0 0 2.138-.945l1.68 1.135a.767.767 0 0 0 .983-.105l.688-.721.688-.721a.766.766 0 0 0 .058-.987l-1.213-1.625a7.806 7.806 0 0 0 .85-2.234l1.97-.381a.768.768 0 0 0 .624-.774l-.023-1.003-.024-1.002a.775.775 0 0 0-.66-.744l-2.022-.296a8.399 8.399 0 0 0-.954-2.128l1.145-1.654a.767.767 0 0 0-.105-.983l-.72-.688-.722-.688a.766.766 0 0 0-.986-.058l-1.635 1.223a8.215 8.215 0 0 0-2.179-.825l-.38-1.97a.768.768 0 0 0-.775-.625l-1.003.024-1.002.024a.773.773 0 0 0-.744.659l-.296 2.023a8.4 8.4 0 0 0-2.128.954l-1.663-1.126a.767.767 0 0 0-.982.104l-.688.722-.688.72a.766.766 0 0 0-.058.987l1.222 1.634a8.278 8.278 0 0 0-.817 2.125l-1.988.382a.768.768 0 0 0-.624.774l.023 1.003.024 1.002a.775.775 0 0 0 .66.744l2.003.287a8.26 8.26 0 0 0 .946 2.138l-1.135 1.68a.767.767 0 0 0 .104.983l.721.688.722.688a.766.766 0 0 0 .986.058l1.625-1.214a8.26 8.26 0 0 0 2.18.844l.382 1.988a.768.768 0 0 0 .774.624l1.002-.024 1.003-.023a.8.8 0 0 0 .726-.669zm-2.097-14.367a4.397 4.397 0 1 1 .208 8.79 4.397 4.397 0 0 1-.208-8.79z" fill="#6C431E" fill-rule="nonzero"></path><path d="M3.36 0h127.68a3.36 3.36 0 0 1 3.36 3.36v12.096H0V3.36A3.36 3.36 0 0 1 3.36 0z" fill="#CCC"></path><path d="M11.424 8.4a3.024 3.024 0 1 1-6.048 0 3.024 3.024 0 0 1 6.048 0" fill="#E74C3C"></path><path d="M22.176 8.4a3.024 3.024 0 1 1-6.048 0 3.024 3.024 0 0 1 6.048 0" fill="#F1C40F"></path><path d="M32.256 8.4a3.024 3.024 0 1 1-6.048 0 3.024 3.024 0 0 1 6.048 0" fill="#2ECC71"></path></g><g transform="translate(301.000000, 191.000000)"><path d="M134.4 113.614c0 .717-.42 1.298-.94 1.298H.94c-.52 0-.94-.581-.94-1.298V3.36A3.36 3.36 0 0 1 3.36 0h127.68a3.36 3.36 0 0 1 3.36 3.36v110.254z" fill="#E3CEBC"></path><path d="M77.996 72.948l1.316-3.15a13.938 13.938 0 0 0 3.89-.64l2.264 2.565a1.294 1.294 0 0 0 1.65.245l1.428-.886 1.43-.887c.53-.33.75-.998.511-1.586l-1.294-3.168a13.186 13.186 0 0 0 2.335-3.288l3.378.211a1.294 1.294 0 0 0 1.345-1l.386-1.647.386-1.647a1.307 1.307 0 0 0-.762-1.493l-3.178-1.339a14.193 14.193 0 0 0-.658-3.879l2.57-2.216a1.294 1.294 0 0 0 .245-1.649l-.887-1.428-.887-1.429c-.33-.53-.998-.75-1.586-.512l-3.186 1.305a13.848 13.848 0 0 0-3.21-2.27l.212-3.378a1.294 1.294 0 0 0-1-1.345l-1.647-.386-1.647-.385a1.307 1.307 0 0 0-1.493.762l-1.339 3.177a14.232 14.232 0 0 0-3.88.657l-2.237-2.543a1.294 1.294 0 0 0-1.65-.245l-1.428.886-1.429.887c-.53.33-.75.998-.512 1.586l1.305 3.186a13.934 13.934 0 0 0-2.233 3.124l-3.409-.219a1.294 1.294 0 0 0-1.345 1l-.386 1.647-.385 1.647a1.307 1.307 0 0 0 .762 1.494l3.15 1.316a13.938 13.938 0 0 0 .64 3.89l-2.565 2.264a1.294 1.294 0 0 0-.245 1.65l.886 1.428.887 1.429c.33.53.998.75 1.586.512l3.167-1.294a13.933 13.933 0 0 0 3.203 2.299l-.218 3.408c-.038.633.377 1.2 1 1.346l1.647.385 1.647.386a1.347 1.347 0 0 0 1.47-.783zM80.65 48.6a7.416 7.416 0 1 1-3.38 14.441 7.415 7.415 0 0 1 3.38-14.44zM62.767 89.49l.346-2.069a8.542 8.542 0 0 0 2.238-.926l1.712 1.217a.794.794 0 0 0 1.02-.084l.731-.731.73-.73a.794.794 0 0 0 .085-1.02l-1.217-1.713a8.108 8.108 0 0 0 .936-2.294l2.05-.346a.795.795 0 0 0 .664-.786V77.93a.802.802 0 0 0-.664-.786l-2.087-.356a8.692 8.692 0 0 0-.936-2.228l1.226-1.684a.794.794 0 0 0-.084-1.02l-.73-.73-.73-.731a.794.794 0 0 0-1.02-.084l-1.723 1.226a8.497 8.497 0 0 0-2.237-.908l-.347-2.05a.795.795 0 0 0-.786-.665h-2.078a.803.803 0 0 0-.786.665l-.355 2.087a8.714 8.714 0 0 0-2.228.936l-1.694-1.207a.794.794 0 0 0-1.02.084l-.73.73-.73.73a.794.794 0 0 0-.085 1.02l1.226 1.723a8.555 8.555 0 0 0-.898 2.181l-2.07.346a.795.795 0 0 0-.664.787v2.078c0 .383.281.72.665.786l2.07.346a8.542 8.542 0 0 0 .925 2.237l-1.217 1.713a.794.794 0 0 0 .084 1.02l.73.73.731.73a.794.794 0 0 0 1.02.085l1.713-1.217a8.542 8.542 0 0 0 2.237.927l.347 2.069a.795.795 0 0 0 .786.664h2.078a.826.826 0 0 0 .766-.674zm-1.82-14.932a4.555 4.555 0 1 1 0 9.11 4.555 4.555 0 0 1 0-9.11zm-10.569-5.42l.287-2.004a8.26 8.26 0 0 0 2.138-.945l1.68 1.135a.767.767 0 0 0 .983-.105l.688-.721.688-.721a.766.766 0 0 0 .058-.987l-1.213-1.625a7.806 7.806 0 0 0 .85-2.234l1.97-.381a.768.768 0 0 0 .624-.774l-.023-1.003-.024-1.002a.775.775 0 0 0-.66-.744l-2.022-.296a8.399 8.399 0 0 0-.954-2.128l1.145-1.654a.767.767 0 0 0-.105-.983l-.72-.688-.722-.688a.766.766 0 0 0-.986-.058l-1.635 1.223a8.215 8.215 0 0 0-2.179-.825l-.38-1.97a.768.768 0 0 0-.775-.625l-1.003.024-1.002.024a.773.773 0 0 0-.744.659l-.296 2.023a8.4 8.4 0 0 0-2.128.954l-1.663-1.126a.767.767 0 0 0-.982.104l-.688.722-.688.72a.766.766 0 0 0-.058.987l1.222 1.634a8.278 8.278 0 0 0-.817 2.125l-1.988.382a.768.768 0 0 0-.624.774l.023 1.003.024 1.002a.775.775 0 0 0 .66.744l2.003.287a8.26 8.26 0 0 0 .946 2.138l-1.135 1.68a.767.767 0 0 0 .104.983l.721.688.722.688a.766.766 0 0 0 .986.058l1.625-1.214a8.26 8.26 0 0 0 2.18.844l.382 1.988a.768.768 0 0 0 .774.624l1.002-.024 1.003-.023a.8.8 0 0 0 .726-.669zm-2.097-14.367a4.397 4.397 0 1 1 .208 8.79 4.397 4.397 0 0 1-.208-8.79z" fill="#6C431E" fill-rule="nonzero"></path><path d="M3.36 0h127.68a3.36 3.36 0 0 1 3.36 3.36v12.096H0V3.36A3.36 3.36 0 0 1 3.36 0z" fill="#CCC"></path><path d="M11.424 8.4a3.024 3.024 0 1 1-6.048 0 3.024 3.024 0 0 1 6.048 0" fill="#E74C3C"></path><path d="M22.176 8.4a3.024 3.024 0 1 1-6.048 0 3.024 3.024 0 0 1 6.048 0" fill="#F1C40F"></path><path d="M32.256 8.4a3.024 3.024 0 1 1-6.048 0 3.024 3.024 0 0 1 6.048 0" fill="#2ECC71"></path></g><g transform="translate(445.000000, 191.000000)"><path d="M134.4 113.614c0 .717-.42 1.298-.94 1.298H.94c-.52 0-.94-.581-.94-1.298V3.36A3.36 3.36 0 0 1 3.36 0h127.68a3.36 3.36 0 0 1 3.36 3.36v110.254z" fill="#E3CEBC"></path><path d="M77.996 72.948l1.316-3.15a13.938 13.938 0 0 0 3.89-.64l2.264 2.565a1.294 1.294 0 0 0 1.65.245l1.428-.886 1.43-.887c.53-.33.75-.998.511-1.586l-1.294-3.168a13.186 13.186 0 0 0 2.335-3.288l3.378.211a1.294 1.294 0 0 0 1.345-1l.386-1.647.386-1.647a1.307 1.307 0 0 0-.762-1.493l-3.178-1.339a14.193 14.193 0 0 0-.658-3.879l2.57-2.216a1.294 1.294 0 0 0 .245-1.649l-.887-1.428-.887-1.429c-.33-.53-.998-.75-1.586-.512l-3.186 1.305a13.848 13.848 0 0 0-3.21-2.27l.212-3.378a1.294 1.294 0 0 0-1-1.345l-1.647-.386-1.647-.385a1.307 1.307 0 0 0-1.493.762l-1.339 3.177a14.232 14.232 0 0 0-3.88.657l-2.237-2.543a1.294 1.294 0 0 0-1.65-.245l-1.428.886-1.429.887c-.53.33-.75.998-.512 1.586l1.305 3.186a13.934 13.934 0 0 0-2.233 3.124l-3.409-.219a1.294 1.294 0 0 0-1.345 1l-.386 1.647-.385 1.647a1.307 1.307 0 0 0 .762 1.494l3.15 1.316a13.938 13.938 0 0 0 .64 3.89l-2.565 2.264a1.294 1.294 0 0 0-.245 1.65l.886 1.428.887 1.429c.33.53.998.75 1.586.512l3.167-1.294a13.933 13.933 0 0 0 3.203 2.299l-.218 3.408c-.038.633.377 1.2 1 1.346l1.647.385 1.647.386a1.347 1.347 0 0 0 1.47-.783zM80.65 48.6a7.416 7.416 0 1 1-3.38 14.441 7.415 7.415 0 0 1 3.38-14.44zM62.767 89.49l.346-2.069a8.542 8.542 0 0 0 2.238-.926l1.712 1.217a.794.794 0 0 0 1.02-.084l.731-.731.73-.73a.794.794 0 0 0 .085-1.02l-1.217-1.713a8.108 8.108 0 0 0 .936-2.294l2.05-.346a.795.795 0 0 0 .664-.786V77.93a.802.802 0 0 0-.664-.786l-2.087-.356a8.692 8.692 0 0 0-.936-2.228l1.226-1.684a.794.794 0 0 0-.084-1.02l-.73-.73-.73-.731a.794.794 0 0 0-1.02-.084l-1.723 1.226a8.497 8.497 0 0 0-2.237-.908l-.347-2.05a.795.795 0 0 0-.786-.665h-2.078a.803.803 0 0 0-.786.665l-.355 2.087a8.714 8.714 0 0 0-2.228.936l-1.694-1.207a.794.794 0 0 0-1.02.084l-.73.73-.73.73a.794.794 0 0 0-.085 1.02l1.226 1.723a8.555 8.555 0 0 0-.898 2.181l-2.07.346a.795.795 0 0 0-.664.787v2.078c0 .383.281.72.665.786l2.07.346a8.542 8.542 0 0 0 .925 2.237l-1.217 1.713a.794.794 0 0 0 .084 1.02l.73.73.731.73a.794.794 0 0 0 1.02.085l1.713-1.217a8.542 8.542 0 0 0 2.237.927l.347 2.069a.795.795 0 0 0 .786.664h2.078a.826.826 0 0 0 .766-.674zm-1.82-14.932a4.555 4.555 0 1 1 0 9.11 4.555 4.555 0 0 1 0-9.11zm-10.569-5.42l.287-2.004a8.26 8.26 0 0 0 2.138-.945l1.68 1.135a.767.767 0 0 0 .983-.105l.688-.721.688-.721a.766.766 0 0 0 .058-.987l-1.213-1.625a7.806 7.806 0 0 0 .85-2.234l1.97-.381a.768.768 0 0 0 .624-.774l-.023-1.003-.024-1.002a.775.775 0 0 0-.66-.744l-2.022-.296a8.399 8.399 0 0 0-.954-2.128l1.145-1.654a.767.767 0 0 0-.105-.983l-.72-.688-.722-.688a.766.766 0 0 0-.986-.058l-1.635 1.223a8.215 8.215 0 0 0-2.179-.825l-.38-1.97a.768.768 0 0 0-.775-.625l-1.003.024-1.002.024a.773.773 0 0 0-.744.659l-.296 2.023a8.4 8.4 0 0 0-2.128.954l-1.663-1.126a.767.767 0 0 0-.982.104l-.688.722-.688.72a.766.766 0 0 0-.058.987l1.222 1.634a8.278 8.278 0 0 0-.817 2.125l-1.988.382a.768.768 0 0 0-.624.774l.023 1.003.024 1.002a.775.775 0 0 0 .66.744l2.003.287a8.26 8.26 0 0 0 .946 2.138l-1.135 1.68a.767.767 0 0 0 .104.983l.721.688.722.688a.766.766 0 0 0 .986.058l1.625-1.214a8.26 8.26 0 0 0 2.18.844l.382 1.988a.768.768 0 0 0 .774.624l1.002-.024 1.003-.023a.8.8 0 0 0 .726-.669zm-2.097-14.367a4.397 4.397 0 1 1 .208 8.79 4.397 4.397 0 0 1-.208-8.79z" fill="#6C431E" fill-rule="nonzero"></path><path d="M3.36 0h127.68a3.36 3.36 0 0 1 3.36 3.36v12.096H0V3.36A3.36 3.36 0 0 1 3.36 0z" fill="#CCC"></path><path d="M11.424 8.4a3.024 3.024 0 1 1-6.048 0 3.024 3.024 0 0 1 6.048 0" fill="#E74C3C"></path><path d="M22.176 8.4a3.024 3.024 0 1 1-6.048 0 3.024 3.024 0 0 1 6.048 0" fill="#F1C40F"></path><path d="M32.256 8.4a3.024 3.024 0 1 1-6.048 0 3.024 3.024 0 0 1 6.048 0" fill="#2ECC71"></path></g><text font-size="13.44" font-weight="bold" fill="#4A4A4A" class="sans-serif"><tspan x="445" y="47.616">Pod 6</tspan></text></g><text font-size="28" font-weight="bold" fill="#4A4A4A" class="sans-serif"><tspan x="399" y="25">Backend service</tspan></text></g><text font-size="37" font-weight="bold" fill="#C7C7CC" class="sans-serif"><tspan x="873" y="244">10.96.45.152</tspan></text><path d="M577.536 390.852V293.3H800V184.5H251l.7 383.602" stroke="#FF9500" stroke-width="13" stroke-dasharray="12"></path></g></svg>