<svg viewBox="0 0 1200 900" xmlns="http://www.w3.org/2000/svg"><style>.sans-serif{font-family:-apple-system,BlinkMacSystemFont,'avenir next', avenir,'helvetica neue',helvetica,ubuntu,roboto,noto,'segoe ui',arial,sans-serif}</style><g fill="none" fill-rule="evenodd"><g transform="translate(111.000000, 231.000000)"><g transform="translate(0.000000, 153.000000) translate(0.000000, 0.799999)"><g transform="translate(0.000000, 44.999998)"><path d="M280 236.695c0 1.494-.877 2.705-1.959 2.705H1.96c-1.083 0-1.96-1.21-1.96-2.705V7a7 7 0 0 1 7-7h266a7 7 0 0 1 7 7v229.695z" fill="#FF003C"></path><path d="M7 0h266a7 7 0 0 1 7 7v25.2H0V7a7 7 0 0 1 7-7z" fill="#CCC"></path><path d="M23.8 17.5a6.3 6.3 0 0 1-6.3 6.3 6.3 6.3 0 0 1-6.3-6.3 6.3 6.3 0 0 1 6.3-6.3 6.3 6.3 0 0 1 6.3 6.3" fill="#E74C3C"></path><path d="M46.2 17.5a6.3 6.3 0 0 1-6.3 6.3 6.3 6.3 0 0 1-6.3-6.3 6.3 6.3 0 0 1 6.3-6.3 6.3 6.3 0 0 1 6.3 6.3" fill="#F1C40F"></path><path d="M67.2 17.5a6.3 6.3 0 0 1-6.3 6.3 6.3 6.3 0 0 1-6.3-6.3 6.3 6.3 0 0 1 6.3-6.3 6.3 6.3 0 0 1 6.3 6.3" fill="#2ECC71"></path></g><text font-size="28" font-weight="bold" fill="#4A4A4A" class="sans-serif"><tspan x="0" y="25.2">Pod 1</tspan></text></g><g transform="translate(399.000000, 44.799999)" fill-rule="nonzero"><path d="M580 7v28H0V7a7 7 0 0 1 7-7h566a7 7 0 0 1 7 7z" fill="#D2D2D2"></path><path fill="#A3A3A3" d="M9.8 8.4h5.6V14H9.8zm8.4 0h5.6V14h-5.6zm8.4 0h5.6V14h-5.6z"></path></g><g transform="translate(399.000000, 79.799999)"><g transform="translate(132.999998, 0.000000)" fill-rule="nonzero"><path fill="#9EEBCF" d="M9.8-1.4V119H5.6V-1.4z"></path><circle stroke="#9EEBCF" stroke-width="4.2" fill="#FFF" cx="7.7" cy="-2.1" r="9.1"></circle><path fill="#9EEBCF" d="M7.7 124.6L0 113.4h15.4z"></path></g><g transform="translate(0.000000, 118.999998)"><path d="M280 236.695c0 1.494-.877 2.705-1.959 2.705H1.96c-1.083 0-1.96-1.21-1.96-2.705V7a7 7 0 0 1 7-7h266a7 7 0 0 1 7 7v229.695z" fill="#E3CEBC"></path><path d="M162.491 151.976l2.743-6.565a29.037 29.037 0 0 0 8.104-1.331l4.717 5.342a2.696 2.696 0 0 0 3.435.51l2.977-1.845 2.976-1.847a2.697 2.697 0 0 0 1.067-3.305l-2.695-6.6a27.472 27.472 0 0 0 4.864-6.85l7.037.44a2.697 2.697 0 0 0 2.803-2.082l.804-3.432.803-3.431a2.722 2.722 0 0 0-1.587-3.111l-6.62-2.79c-.067-2.786-.57-5.512-1.37-8.081l5.352-4.617a2.695 2.695 0 0 0 .511-3.434l-1.848-2.977-1.846-2.976a2.697 2.697 0 0 0-3.306-1.067l-6.636 2.719a28.85 28.85 0 0 0-6.688-4.728l.441-7.038a2.697 2.697 0 0 0-2.083-2.803l-3.43-.803-3.433-.804a2.722 2.722 0 0 0-3.11 1.588l-2.79 6.619c-2.787.066-5.512.568-8.08 1.37l-4.663-5.298a2.696 2.696 0 0 0-3.436-.511l-2.976 1.846-2.977 1.847a2.697 2.697 0 0 0-1.067 3.305l2.72 6.636a29.044 29.044 0 0 0-4.654 6.509l-7.1-.455a2.697 2.697 0 0 0-2.804 2.083l-.804 3.43-.803 3.433a2.722 2.722 0 0 0 1.587 3.11l6.565 2.743c.066 2.788.507 5.5 1.331 8.105l-5.342 4.716a2.696 2.696 0 0 0-.51 3.436l1.846 2.976 1.846 2.977a2.697 2.697 0 0 0 3.306 1.067l6.598-2.695a29.028 29.028 0 0 0 6.672 4.789l-.455 7.1a2.697 2.697 0 0 0 2.083 2.804l3.432.803 3.431.804c1.256.23 2.555-.445 3.062-1.631zm5.527-50.725c8.308 1.945 13.467 10.255 11.522 18.563-1.944 8.307-10.255 13.466-18.562 11.522-8.308-1.945-13.467-10.255-11.522-18.563 1.944-8.308 10.255-13.467 18.562-11.522zm-37.252 85.187l.72-4.31a17.797 17.797 0 0 0 4.661-1.931l3.57 2.535c.662.468 1.56.39 2.124-.175l1.522-1.521 1.522-1.522a1.654 1.654 0 0 0 .175-2.125l-2.536-3.57a16.89 16.89 0 0 0 1.95-4.777l4.272-.721a1.655 1.655 0 0 0 1.384-1.638v-4.33c0-.8-.585-1.502-1.384-1.638l-4.349-.74a18.048 18.048 0 0 0-1.95-4.642l2.555-3.51a1.655 1.655 0 0 0-.175-2.125l-1.522-1.521-1.52-1.522a1.654 1.654 0 0 0-2.127-.175l-3.588 2.555a17.702 17.702 0 0 0-4.66-1.892l-.72-4.271a1.658 1.658 0 0 0-1.639-1.385h-4.329c-.8 0-1.502.586-1.638 1.385l-.74 4.348c-1.658.429-3.218 1.112-4.642 1.95l-3.53-2.515a1.654 1.654 0 0 0-2.124.175l-1.522 1.522-1.522 1.52a1.654 1.654 0 0 0-.175 2.127l2.555 3.588a17.823 17.823 0 0 0-1.872 4.544l-4.31.72c-.8.138-1.385.82-1.385 1.639v4.33c0 .8.585 1.502 1.385 1.638l4.31.72a17.797 17.797 0 0 0 1.93 4.66l-2.535 3.57a1.655 1.655 0 0 0 .175 2.125l1.522 1.522 1.522 1.522a1.654 1.654 0 0 0 2.125.175l3.57-2.535a17.797 17.797 0 0 0 4.66 1.93l.72 4.31a1.655 1.655 0 0 0 1.638 1.385h4.33a1.72 1.72 0 0 0 1.598-1.404zm-3.793-31.11c5.24 0 9.49 4.25 9.49 9.49s-4.25 9.49-9.49 9.49-9.49-4.25-9.49-9.49 4.25-9.49 9.49-9.49zm-22.018-11.29l.598-4.175a17.208 17.208 0 0 0 4.453-1.97l3.502 2.365a1.597 1.597 0 0 0 2.047-.22l1.433-1.501 1.434-1.502a1.596 1.596 0 0 0 .12-2.055l-2.528-3.385a16.262 16.262 0 0 0 1.772-4.655l4.105-.794a1.6 1.6 0 0 0 1.3-1.613l-.05-2.09-.049-2.088a1.616 1.616 0 0 0-1.373-1.55l-4.214-.615a17.498 17.498 0 0 0-1.988-4.434l2.385-3.446a1.597 1.597 0 0 0-.218-2.046l-1.502-1.434-1.502-1.434a1.596 1.596 0 0 0-2.056-.12l-3.404 2.547a17.114 17.114 0 0 0-4.54-1.72l-.794-4.104a1.6 1.6 0 0 0-1.613-1.3l-2.089.05-2.089.048c-.77.019-1.435.6-1.55 1.374l-.616 4.214a17.498 17.498 0 0 0-4.433 1.988l-3.464-2.347a1.597 1.597 0 0 0-2.047.219l-1.433 1.502-1.434 1.502a1.596 1.596 0 0 0-.12 2.055l2.546 3.405a17.22 17.22 0 0 0-1.702 4.427l-4.143.795a1.6 1.6 0 0 0-1.3 1.613l.05 2.089.05 2.089a1.615 1.615 0 0 0 1.372 1.55l4.175.597a17.208 17.208 0 0 0 1.97 4.454l-2.365 3.5a1.598 1.598 0 0 0 .22 2.048l1.501 1.433 1.502 1.434a1.596 1.596 0 0 0 2.055.12l3.386-2.528a17.209 17.209 0 0 0 4.541 1.757l.795 4.143a1.6 1.6 0 0 0 1.613 1.3l2.09-.05 2.088-.05a1.668 1.668 0 0 0 1.513-1.392zm-4.37-29.932a9.16 9.16 0 1 1 .431 18.314 9.16 9.16 0 0 1-.432-18.314z" fill="#6C431E" fill-rule="nonzero"></path><path d="M7 0h266a7 7 0 0 1 7 7v25.2H0V7a7 7 0 0 1 7-7z" fill="#CCC"></path><path d="M23.8 17.5a6.3 6.3 0 0 1-6.3 6.3 6.3 6.3 0 0 1-6.3-6.3 6.3 6.3 0 0 1 6.3-6.3 6.3 6.3 0 0 1 6.3 6.3" fill="#E74C3C"></path><path d="M46.2 17.5a6.3 6.3 0 0 1-6.3 6.3 6.3 6.3 0 0 1-6.3-6.3 6.3 6.3 0 0 1 6.3-6.3 6.3 6.3 0 0 1 6.3 6.3" fill="#F1C40F"></path><path d="M67.2 17.5a6.3 6.3 0 0 1-6.3 6.3 6.3 6.3 0 0 1-6.3-6.3 6.3 6.3 0 0 1 6.3-6.3 6.3 6.3 0 0 1 6.3 6.3" fill="#2ECC71"></path></g><text font-size="28" font-weight="bold" fill="#4A4A4A" class="sans-serif"><tspan x="0" y="99.2">Pod 5</tspan></text><g transform="translate(432.999998, -0.000000)" fill-rule="nonzero"><path fill="#9EEBCF" d="M9.8-1.4V119H5.6V-1.4z"></path><circle stroke="#9EEBCF" stroke-width="4.2" fill="#FFF" cx="7.7" cy="-2.1" r="9.1"></circle><path fill="#9EEBCF" d="M7.7 124.6L0 113.4h15.4z"></path></g><g transform="translate(300.000000, 118.999998)"><path d="M280 236.695c0 1.494-.877 2.705-1.959 2.705H1.96c-1.083 0-1.96-1.21-1.96-2.705V7a7 7 0 0 1 7-7h266a7 7 0 0 1 7 7v229.695z" fill="#E3CEBC"></path><path d="M162.491 151.976l2.743-6.565a29.037 29.037 0 0 0 8.104-1.331l4.717 5.342a2.696 2.696 0 0 0 3.435.51l2.977-1.845 2.976-1.847a2.697 2.697 0 0 0 1.067-3.305l-2.695-6.6a27.472 27.472 0 0 0 4.864-6.85l7.037.44a2.697 2.697 0 0 0 2.803-2.082l.804-3.432.803-3.431a2.722 2.722 0 0 0-1.587-3.111l-6.62-2.79c-.067-2.786-.57-5.512-1.37-8.081l5.352-4.617a2.695 2.695 0 0 0 .511-3.434l-1.848-2.977-1.846-2.976a2.697 2.697 0 0 0-3.306-1.067l-6.636 2.719a28.85 28.85 0 0 0-6.688-4.728l.441-7.038a2.697 2.697 0 0 0-2.083-2.803l-3.43-.803-3.433-.804a2.722 2.722 0 0 0-3.11 1.588l-2.79 6.619c-2.787.066-5.512.568-8.08 1.37l-4.663-5.298a2.696 2.696 0 0 0-3.436-.511l-2.976 1.846-2.977 1.847a2.697 2.697 0 0 0-1.067 3.305l2.72 6.636a29.044 29.044 0 0 0-4.654 6.509l-7.1-.455a2.697 2.697 0 0 0-2.804 2.083l-.804 3.43-.803 3.433a2.722 2.722 0 0 0 1.587 3.11l6.565 2.743c.066 2.788.507 5.5 1.331 8.105l-5.342 4.716a2.696 2.696 0 0 0-.51 3.436l1.846 2.976 1.846 2.977a2.697 2.697 0 0 0 3.306 1.067l6.598-2.695a29.028 29.028 0 0 0 6.672 4.789l-.455 7.1a2.697 2.697 0 0 0 2.083 2.804l3.432.803 3.431.804c1.256.23 2.555-.445 3.062-1.631zm5.527-50.725c8.308 1.945 13.467 10.255 11.522 18.563-1.944 8.307-10.255 13.466-18.562 11.522-8.308-1.945-13.467-10.255-11.522-18.563 1.944-8.308 10.255-13.467 18.562-11.522zm-37.252 85.187l.72-4.31a17.797 17.797 0 0 0 4.661-1.931l3.57 2.535c.662.468 1.56.39 2.124-.175l1.522-1.521 1.522-1.522a1.654 1.654 0 0 0 .175-2.125l-2.536-3.57a16.89 16.89 0 0 0 1.95-4.777l4.272-.721a1.655 1.655 0 0 0 1.384-1.638v-4.33c0-.8-.585-1.502-1.384-1.638l-4.349-.74a18.048 18.048 0 0 0-1.95-4.642l2.555-3.51a1.655 1.655 0 0 0-.175-2.125l-1.522-1.521-1.52-1.522a1.654 1.654 0 0 0-2.127-.175l-3.588 2.555a17.702 17.702 0 0 0-4.66-1.892l-.72-4.271a1.658 1.658 0 0 0-1.639-1.385h-4.329c-.8 0-1.502.586-1.638 1.385l-.74 4.348c-1.658.429-3.218 1.112-4.642 1.95l-3.53-2.515a1.654 1.654 0 0 0-2.124.175l-1.522 1.522-1.522 1.52a1.654 1.654 0 0 0-.175 2.127l2.555 3.588a17.823 17.823 0 0 0-1.872 4.544l-4.31.72c-.8.138-1.385.82-1.385 1.639v4.33c0 .8.585 1.502 1.385 1.638l4.31.72a17.797 17.797 0 0 0 1.93 4.66l-2.535 3.57a1.655 1.655 0 0 0 .175 2.125l1.522 1.522 1.522 1.522a1.654 1.654 0 0 0 2.125.175l3.57-2.535a17.797 17.797 0 0 0 4.66 1.93l.72 4.31a1.655 1.655 0 0 0 1.638 1.385h4.33a1.72 1.72 0 0 0 1.598-1.404zm-3.793-31.11c5.24 0 9.49 4.25 9.49 9.49s-4.25 9.49-9.49 9.49-9.49-4.25-9.49-9.49 4.25-9.49 9.49-9.49zm-22.018-11.29l.598-4.175a17.208 17.208 0 0 0 4.453-1.97l3.502 2.365a1.597 1.597 0 0 0 2.047-.22l1.433-1.501 1.434-1.502a1.596 1.596 0 0 0 .12-2.055l-2.528-3.385a16.262 16.262 0 0 0 1.772-4.655l4.105-.794a1.6 1.6 0 0 0 1.3-1.613l-.05-2.09-.049-2.088a1.616 1.616 0 0 0-1.373-1.55l-4.214-.615a17.498 17.498 0 0 0-1.988-4.434l2.385-3.446a1.597 1.597 0 0 0-.218-2.046l-1.502-1.434-1.502-1.434a1.596 1.596 0 0 0-2.056-.12l-3.404 2.547a17.114 17.114 0 0 0-4.54-1.72l-.794-4.104a1.6 1.6 0 0 0-1.613-1.3l-2.089.05-2.089.048c-.77.019-1.435.6-1.55 1.374l-.616 4.214a17.498 17.498 0 0 0-4.433 1.988l-3.464-2.347a1.597 1.597 0 0 0-2.047.219l-1.433 1.502-1.434 1.502a1.596 1.596 0 0 0-.12 2.055l2.546 3.405a17.22 17.22 0 0 0-1.702 4.427l-4.143.795a1.6 1.6 0 0 0-1.3 1.613l.05 2.089.05 2.089a1.615 1.615 0 0 0 1.372 1.55l4.175.597a17.208 17.208 0 0 0 1.97 4.454l-2.365 3.5a1.598 1.598 0 0 0 .22 2.048l1.501 1.433 1.502 1.434a1.596 1.596 0 0 0 2.055.12l3.386-2.528a17.209 17.209 0 0 0 4.541 1.757l.795 4.143a1.6 1.6 0 0 0 1.613 1.3l2.09-.05 2.088-.05a1.668 1.668 0 0 0 1.513-1.392zm-4.37-29.932a9.16 9.16 0 1 1 .431 18.314 9.16 9.16 0 0 1-.432-18.314z" fill="#6C431E" fill-rule="nonzero"></path><path d="M7 0h266a7 7 0 0 1 7 7v25.2H0V7a7 7 0 0 1 7-7z" fill="#CCC"></path><path d="M23.8 17.5a6.3 6.3 0 0 1-6.3 6.3 6.3 6.3 0 0 1-6.3-6.3 6.3 6.3 0 0 1 6.3-6.3 6.3 6.3 0 0 1 6.3 6.3" fill="#E74C3C"></path><path d="M46.2 17.5a6.3 6.3 0 0 1-6.3 6.3 6.3 6.3 0 0 1-6.3-6.3 6.3 6.3 0 0 1 6.3-6.3 6.3 6.3 0 0 1 6.3 6.3" fill="#F1C40F"></path><path d="M67.2 17.5a6.3 6.3 0 0 1-6.3 6.3 6.3 6.3 0 0 1-6.3-6.3 6.3 6.3 0 0 1 6.3-6.3 6.3 6.3 0 0 1 6.3 6.3" fill="#2ECC71"></path></g><text font-size="28" font-weight="bold" fill="#4A4A4A" class="sans-serif"><tspan x="300" y="99.2">Pod 6</tspan></text></g><text font-size="28" font-weight="bold" fill="#4A4A4A" class="sans-serif"><tspan x="399" y="25">Backend service</tspan></text></g><text font-size="37" font-weight="bold" fill="#C7C7CC" class="sans-serif"><tspan x="567" y="726">172.17.0.8</tspan></text><text font-size="37" font-weight="bold" fill="#C7C7CC" class="sans-serif"><tspan x="870" y="726">172.17.0.9</tspan></text><text font-size="37" font-weight="bold" fill="#C7C7CC" class="sans-serif"><tspan x="873" y="244">10.96.45.152</tspan></text><path d="M800 293.3V184.5H251l.7 383.602" stroke="#FF9500" stroke-width="13" stroke-dasharray="12"></path></g></svg>