<svg viewBox="0 0 1200 900" xmlns="http://www.w3.org/2000/svg"><style>.sans-serif{font-family:-apple-system,BlinkMacSystemFont,'avenir next', avenir,'helvetica neue',helvetica,ubuntu,roboto,noto,'segoe ui',arial,sans-serif}</style><g fill="none" fill-rule="evenodd"><g transform="translate(467.000000, 264.000000)"><g transform="translate(0.000000, 466.902062)"><path d="M266 7.15v27.17a7.15 7.15 0 0 1-7.15 7.15H7.15A7.15 7.15 0 0 1 0 34.32V7.15A7.15 7.15 0 0 1 7.15 0h251.7A7.15 7.15 0 0 1 266 7.15z" fill="#D2D2D2"></path><path fill="#A3A3A3" d="M44.33 8.58h5.72v5.72h-5.72zm0 8.58h5.72v5.72h-5.72zm0 8.58h5.72v5.72h-5.72zm8.58-17.16h5.72v5.72h-5.72zm0 8.58h5.72v5.72h-5.72zm0 8.58h5.72v5.72h-5.72zm8.58-17.16h5.72v5.72h-5.72zm0 8.58h5.72v5.72h-5.72zm0 8.58h5.72v5.72h-5.72zm8.58-17.16h5.72v5.72h-5.72zm0 8.58h5.72v5.72h-5.72zm0 8.58h5.72v5.72h-5.72zm8.58-17.16h5.72v5.72h-5.72zm0 8.58h5.72v5.72h-5.72zm0 8.58h5.72v5.72h-5.72zm8.58-17.16h5.72v5.72h-5.72zm0 8.58h5.72v5.72h-5.72zm0 8.58h5.72v5.72h-5.72zm8.58-17.16h5.72v5.72h-5.72zm0 8.58h5.72v5.72h-5.72zm0 8.58h5.72v5.72h-5.72zm8.58-17.16h5.72v5.72h-5.72zm0 8.58h5.72v5.72h-5.72zm0 8.58h5.72v5.72h-5.72zm8.58-17.16h5.72v5.72h-5.72zm0 8.58h5.72v5.72h-5.72zm0 8.58h5.72v5.72h-5.72zm8.58-17.16h5.72v5.72h-5.72zm0 8.58h5.72v5.72h-5.72zm0 8.58h5.72v5.72h-5.72zm8.58-17.16h5.72v5.72h-5.72zm0 8.58h5.72v5.72h-5.72zm0 8.58h5.72v5.72h-5.72zm8.58-17.16h5.72v5.72h-5.72zm0 8.58h5.72v5.72h-5.72zm0 8.58h5.72v5.72h-5.72zm8.58-17.16h5.72v5.72h-5.72zm0 8.58h5.72v5.72h-5.72zm0 8.58h5.72v5.72h-5.72zm8.58-17.16h5.72v5.72h-5.72zm0 8.58h5.72v5.72h-5.72zm0 8.58h5.72v5.72h-5.72zm8.58-17.16h5.72v5.72h-5.72zm0 8.58h5.72v5.72h-5.72zm0 8.58h5.72v5.72h-5.72zm8.58-17.16h5.72v5.72h-5.72zm0 8.58h5.72v5.72h-5.72zm0 8.58h5.72v5.72h-5.72zm8.58-17.16h5.72v5.72h-5.72zm0 8.58h5.72v5.72h-5.72zm0 8.58h5.72v5.72h-5.72zm8.58-17.16h5.72v5.72h-5.72zm0 8.58h5.72v5.72h-5.72zm0 8.58h5.72v5.72h-5.72zm8.58-17.16h5.72v5.72h-5.72zm0 8.58h5.72v5.72h-5.72zm0 8.58h5.72v5.72h-5.72zm8.58-17.16h5.72v5.72h-5.72zm0 8.58h5.72v5.72h-5.72zm0 8.58h5.72v5.72h-5.72zm8.58-17.16h5.72v5.72h-5.72zm0 8.58h5.72v5.72h-5.72zm0 8.58h5.72v5.72h-5.72zm8.58-17.16h5.72v5.72h-5.72zm0 8.58h5.72v5.72h-5.72zm0 8.58h5.72v5.72h-5.72zm8.58-17.16h5.72v5.72h-5.72zm0 8.58h5.72v5.72h-5.72zm0 8.58h5.72v5.72h-5.72zm8.58-17.16h5.72v5.72h-5.72zm0 8.58h5.72v5.72h-5.72zm0 8.58h5.72v5.72h-5.72zm8.58-17.16h5.72v5.72h-5.72zm0 8.58h5.72v5.72h-5.72zm0 8.58h5.72v5.72h-5.72z"></path></g><g transform="translate(0.000000, 512.592784)"><path d="M266 7.15v27.17a7.15 7.15 0 0 1-7.15 7.15H7.15A7.15 7.15 0 0 1 0 34.32V7.15A7.15 7.15 0 0 1 7.15 0h251.7A7.15 7.15 0 0 1 266 7.15z" fill="#D2D2D2"></path><path fill="#A3A3A3" d="M44.33 8.58h5.72v5.72h-5.72zm0 8.58h5.72v5.72h-5.72zm0 8.58h5.72v5.72h-5.72zm8.58-17.16h5.72v5.72h-5.72zm0 8.58h5.72v5.72h-5.72zm0 8.58h5.72v5.72h-5.72zm8.58-17.16h5.72v5.72h-5.72zm0 8.58h5.72v5.72h-5.72zm0 8.58h5.72v5.72h-5.72zm8.58-17.16h5.72v5.72h-5.72zm0 8.58h5.72v5.72h-5.72zm0 8.58h5.72v5.72h-5.72zm8.58-17.16h5.72v5.72h-5.72zm0 8.58h5.72v5.72h-5.72zm0 8.58h5.72v5.72h-5.72zm8.58-17.16h5.72v5.72h-5.72zm0 8.58h5.72v5.72h-5.72zm0 8.58h5.72v5.72h-5.72zm8.58-17.16h5.72v5.72h-5.72zm0 8.58h5.72v5.72h-5.72zm0 8.58h5.72v5.72h-5.72zm8.58-17.16h5.72v5.72h-5.72zm0 8.58h5.72v5.72h-5.72zm0 8.58h5.72v5.72h-5.72zm8.58-17.16h5.72v5.72h-5.72zm0 8.58h5.72v5.72h-5.72zm0 8.58h5.72v5.72h-5.72zm8.58-17.16h5.72v5.72h-5.72zm0 8.58h5.72v5.72h-5.72zm0 8.58h5.72v5.72h-5.72zm8.58-17.16h5.72v5.72h-5.72zm0 8.58h5.72v5.72h-5.72zm0 8.58h5.72v5.72h-5.72zm8.58-17.16h5.72v5.72h-5.72zm0 8.58h5.72v5.72h-5.72zm0 8.58h5.72v5.72h-5.72zm8.58-17.16h5.72v5.72h-5.72zm0 8.58h5.72v5.72h-5.72zm0 8.58h5.72v5.72h-5.72zm8.58-17.16h5.72v5.72h-5.72zm0 8.58h5.72v5.72h-5.72zm0 8.58h5.72v5.72h-5.72zm8.58-17.16h5.72v5.72h-5.72zm0 8.58h5.72v5.72h-5.72zm0 8.58h5.72v5.72h-5.72zm8.58-17.16h5.72v5.72h-5.72zm0 8.58h5.72v5.72h-5.72zm0 8.58h5.72v5.72h-5.72zm8.58-17.16h5.72v5.72h-5.72zm0 8.58h5.72v5.72h-5.72zm0 8.58h5.72v5.72h-5.72zm8.58-17.16h5.72v5.72h-5.72zm0 8.58h5.72v5.72h-5.72zm0 8.58h5.72v5.72h-5.72zm8.58-17.16h5.72v5.72h-5.72zm0 8.58h5.72v5.72h-5.72zm0 8.58h5.72v5.72h-5.72zm8.58-17.16h5.72v5.72h-5.72zm0 8.58h5.72v5.72h-5.72zm0 8.58h5.72v5.72h-5.72zm8.58-17.16h5.72v5.72h-5.72zm0 8.58h5.72v5.72h-5.72zm0 8.58h5.72v5.72h-5.72zm8.58-17.16h5.72v5.72h-5.72zm0 8.58h5.72v5.72h-5.72zm0 8.58h5.72v5.72h-5.72zm8.58-17.16h5.72v5.72h-5.72zm0 8.58h5.72v5.72h-5.72zm0 8.58h5.72v5.72h-5.72zm8.58-17.16h5.72v5.72h-5.72zm0 8.58h5.72v5.72h-5.72zm0 8.58h5.72v5.72h-5.72zm8.58-17.16h5.72v5.72h-5.72zm0 8.58h5.72v5.72h-5.72zm0 8.58h5.72v5.72h-5.72z"></path></g><path d="M266 7.15v449.02a7.15 7.15 0 0 1-7.15 7.15H7.15A7.15 7.15 0 0 1 0 456.17V7.15A7.15 7.15 0 0 1 7.15 0h251.7A7.15 7.15 0 0 1 266 7.15z" fill="#D2D2D2"></path><path fill="#A3A3A3" d="M10.01 8.58h5.72v5.72h-5.72zm0 8.58h5.72v5.72h-5.72zm0 8.58h5.72v5.72h-5.72zm8.58-17.16h5.72v5.72h-5.72zm0 8.58h5.72v5.72h-5.72zm0 8.58h5.72v5.72h-5.72zm8.58-17.16h5.72v5.72h-5.72zm0 8.58h5.72v5.72h-5.72zm0 8.58h5.72v5.72h-5.72zm8.58-17.16h5.72v5.72h-5.72zm0 8.58h5.72v5.72h-5.72zm0 8.58h5.72v5.72h-5.72zm8.58-17.16h5.72v5.72h-5.72zm0 8.58h5.72v5.72h-5.72zm0 8.58h5.72v5.72h-5.72zm8.58-17.16h5.72v5.72h-5.72zm0 8.58h5.72v5.72h-5.72zm0 8.58h5.72v5.72h-5.72zm8.58-17.16h5.72v5.72h-5.72zm0 8.58h5.72v5.72h-5.72zm0 8.58h5.72v5.72h-5.72zm8.58-17.16h5.72v5.72h-5.72zm0 8.58h5.72v5.72h-5.72zm0 8.58h5.72v5.72h-5.72zm8.58-17.16h5.72v5.72h-5.72zm0 8.58h5.72v5.72h-5.72zm0 8.58h5.72v5.72h-5.72zm8.58-17.16h5.72v5.72h-5.72zm0 8.58h5.72v5.72h-5.72zm0 8.58h5.72v5.72h-5.72zm8.58-17.16h5.72v5.72h-5.72zm0 8.58h5.72v5.72h-5.72zm0 8.58h5.72v5.72h-5.72zm8.58-17.16h5.72v5.72h-5.72zm0 8.58h5.72v5.72h-5.72zm0 8.58h5.72v5.72h-5.72zm8.58-17.16h5.72v5.72h-5.72zm0 8.58h5.72v5.72h-5.72zm0 8.58h5.72v5.72h-5.72zm8.58-17.16h5.72v5.72h-5.72zm0 8.58h5.72v5.72h-5.72zm0 8.58h5.72v5.72h-5.72zm8.58-17.16h5.72v5.72h-5.72zm0 8.58h5.72v5.72h-5.72zm0 8.58h5.72v5.72h-5.72zm8.58-17.16h5.72v5.72h-5.72zm0 8.58h5.72v5.72h-5.72zm0 8.58h5.72v5.72h-5.72zm8.58-17.16h5.72v5.72h-5.72zm0 8.58h5.72v5.72h-5.72zm0 8.58h5.72v5.72h-5.72zm8.58-17.16h5.72v5.72h-5.72zm0 8.58h5.72v5.72h-5.72zm0 8.58h5.72v5.72h-5.72zm8.58-17.16h5.72v5.72h-5.72zm0 8.58h5.72v5.72h-5.72zm0 8.58h5.72v5.72h-5.72zm8.58-17.16h5.72v5.72h-5.72zm0 8.58h5.72v5.72h-5.72zm0 8.58h5.72v5.72h-5.72zm8.58-17.16h5.72v5.72h-5.72zm0 8.58h5.72v5.72h-5.72zm0 8.58h5.72v5.72h-5.72zm8.58-17.16h5.72v5.72h-5.72zm0 8.58h5.72v5.72h-5.72zm0 8.58h5.72v5.72h-5.72zm8.58-17.16h5.72v5.72h-5.72zm0 8.58h5.72v5.72h-5.72zm0 8.58h5.72v5.72h-5.72zm8.58-17.16h5.72v5.72h-5.72zm0 8.58h5.72v5.72h-5.72zm0 8.58h5.72v5.72h-5.72zm8.58-17.16h5.72v5.72h-5.72zm0 8.58h5.72v5.72h-5.72zm0 8.58h5.72v5.72h-5.72zm8.58-17.16h5.72v5.72h-5.72zm0 8.58h5.72v5.72h-5.72zm0 8.58h5.72v5.72h-5.72zm8.58-17.16h5.72v5.72h-5.72zm0 8.58h5.72v5.72h-5.72zm0 8.58h5.72v5.72h-5.72zm8.58-17.16h5.72v5.72h-5.72zm0 8.58h5.72v5.72h-5.72zm0 8.58h5.72v5.72h-5.72zm8.58-17.16h5.72v5.72h-5.72zm0 8.58h5.72v5.72h-5.72zm0 8.58h5.72v5.72h-5.72zM10.01 447.59h5.72v5.72h-5.72zm8.58 0h5.72v5.72h-5.72zm8.58 0h5.72v5.72h-5.72zm8.58 0h5.72v5.72h-5.72zm8.58 0h5.72v5.72h-5.72zm8.58 0h5.72v5.72h-5.72zm8.58 0h5.72v5.72h-5.72zm8.58 0h5.72v5.72h-5.72zm8.58 0h5.72v5.72h-5.72zm8.58 0h5.72v5.72h-5.72zm8.58 0h5.72v5.72h-5.72zm8.58 0h5.72v5.72h-5.72zm8.58 0h5.72v5.72h-5.72zm8.58 0h5.72v5.72h-5.72zm8.58 0h5.72v5.72h-5.72zm8.58 0h5.72v5.72h-5.72zm8.58 0h5.72v5.72h-5.72zm8.58 0h5.72v5.72h-5.72zm8.58 0h5.72v5.72h-5.72zm8.58 0h5.72v5.72h-5.72zm8.58 0h5.72v5.72h-5.72zm8.58 0h5.72v5.72h-5.72zm8.58 0h5.72v5.72h-5.72zm8.58 0h5.72v5.72h-5.72zm8.58 0h5.72v5.72h-5.72zm8.58 0h5.72v5.72h-5.72zm8.58 0h5.72v5.72h-5.72zm8.58 0h5.72v5.72h-5.72zm8.58 0h5.72v5.72h-5.72z"></path><rect fill="#FFF" x="10.011" y="41.409" width="245.978" height="396.957" rx="2.86"></rect><path d="M25.752 485.949h3.396v-3.088h-3.396v3.088zm-4.013 0h3.396v-3.088h-3.396v3.088zm-4.014 0h3.397v-3.088h-3.397v3.088zm-4.013 0h3.396v-3.088h-3.396v3.088zm-4.013 0h3.396v-3.088H9.699v3.088zm4.013-3.705h3.396v-3.087h-3.396v3.087zm4.013 0h3.397v-3.087h-3.397v3.087zm4.014 0h3.396v-3.087h-3.396v3.087zm0-3.705h3.396v-3.087h-3.396v3.087zm17.615 5.61c-.741-.497-2.445-.679-3.757-.431-.169-1.236-.857-2.307-2.11-3.275l-.72-.48-.48.72c-.615.928-.922 2.213-.821 3.445.045.434.187 1.209.633 1.89-.445.24-1.326.57-2.488.548H7.277l-.044.257c-.21 1.238-.205 5.102 2.303 8.073 1.907 2.257 4.767 3.402 8.498 3.402 8.09 0 14.075-3.724 16.877-10.493 1.103.022 3.476.006 4.695-2.323a12.4 12.4 0 0 0 .317-.634l.117-.242-.686-.458z" fill="#A3A3A3"></path><g transform="translate(10.010000, 519.711521)" fill="#A3A3A3"><path d="M11.272 15.166a.485.485 0 0 0-.56-.37l-.005-.005-2.842.482a5.7 5.7 0 0 0 2.288 2.863l1.1-2.66-.008-.011a.48.48 0 0 0 .027-.299m-.944-2.047a.485.485 0 0 0 .19-.834l.003-.012-2.162-1.933a5.668 5.668 0 0 0-.804 3.588l2.77-.8.003-.01zm1.262-2.182a.485.485 0 0 0 .77-.372l.012-.005.163-2.888a5.67 5.67 0 0 0-3.318 1.589l2.368 1.678.005-.002zm.837 3.031l.797.383.795-.382.198-.859-.55-.688h-.886l-.552.687zm1.653-3.412a.486.486 0 0 0 .771.37l.01.004 2.351-1.668a5.718 5.718 0 0 0-3.297-1.59l.163 2.883.003.001z"></path><path d="M22.908 15.54c-.067.293-.384.472-.71.402l-.009-.002c-.004 0-.007-.002-.01-.003-.046-.01-.103-.02-.143-.03-.188-.051-.324-.126-.494-.191-.364-.13-.665-.24-.96-.282-.149-.012-.225.059-.307.114a8.261 8.261 0 0 0-.236-.042 7.162 7.162 0 0 1-3.172 3.992c.026.063.07.198.091.222-.035.093-.087.182-.042.325.107.277.28.547.488.873.1.15.204.267.295.44.022.04.05.104.072.147.141.303.038.65-.234.782-.274.132-.614-.007-.761-.311-.021-.043-.05-.1-.068-.141-.078-.18-.105-.332-.16-.505-.125-.366-.228-.67-.378-.925-.084-.124-.186-.14-.28-.171-.018-.03-.083-.15-.118-.212a7.112 7.112 0 0 1-5.08-.013l-.124.226c-.093.025-.183.05-.237.116-.2.239-.28.623-.427.988-.054.173-.08.326-.158.505-.018.04-.048.097-.068.14l-.002.002c-.147.304-.486.442-.76.31-.271-.13-.375-.48-.233-.781.02-.044.048-.107.07-.148.091-.173.194-.29.295-.44.209-.326.392-.62.499-.896.026-.092-.013-.218-.05-.31l.1-.24a7.162 7.162 0 0 1-3.174-3.964l-.24.04c-.064-.035-.193-.12-.316-.111-.294.043-.595.152-.96.283-.169.065-.305.139-.493.189-.04.01-.097.022-.143.032l-.01.003-.008.002c-.327.07-.644-.11-.71-.403-.068-.293.14-.592.465-.67l.008-.002.005-.002c.046-.01.105-.026.147-.034.191-.036.347-.027.528-.042.385-.04.703-.073.987-.162.09-.037.175-.16.236-.24l.23-.066a7.122 7.122 0 0 1 1.124-4.965l-.177-.16c-.011-.067-.026-.226-.11-.316-.217-.204-.49-.372-.819-.575-.156-.092-.3-.152-.456-.267-.034-.025-.078-.063-.114-.092l-.009-.006c-.264-.21-.324-.574-.135-.811a.53.53 0 0 1 .439-.194.655.655 0 0 1 .383.144c.038.03.089.069.123.098.147.127.237.252.362.384.271.276.496.505.742.67.13.076.229.046.327.032.031.024.138.1.199.142a7.08 7.08 0 0 1 4.59-2.208l.014-.233a.6.6 0 0 0 .178-.284c.024-.296-.014-.615-.06-1-.026-.18-.069-.327-.076-.522-.001-.04 0-.095.001-.141l-.001-.015c0-.338.246-.612.55-.612.304 0 .55.274.55.612 0 .047.004.112.002.156-.007.195-.05.344-.075.523-.047.384-.087.703-.063.999.022.148.109.206.18.275.002.04.008.172.013.246A7.213 7.213 0 0 1 18.4 8.422l.21-.15c.07.005.227.026.333-.036.247-.166.471-.396.742-.671.125-.132.216-.258.364-.385.034-.03.085-.068.122-.097.264-.211.631-.19.82.049.19.238.13.6-.134.81-.038.03-.086.073-.121.099-.157.116-.302.175-.458.267-.329.203-.602.372-.818.575-.103.11-.095.213-.104.312l-.195.175c.474.706.83 1.508 1.031 2.384.2.868.23 1.736.116 2.57l.222.064c.04.057.122.194.237.239.284.089.602.122.987.162.18.015.337.006.528.042l.16.038c.324.078.533.377.466.67m3.498.12l-2.272-9.87a1.747 1.747 0 0 0-.952-1.182L13.986.216a1.771 1.771 0 0 0-1.527 0L3.264 4.61c-.482.23-.832.665-.951 1.183L.044 15.662a1.732 1.732 0 0 0 .339 1.476l6.364 7.913c.334.415.84.656 1.375.656l10.207-.002c.535 0 1.04-.24 1.375-.655l6.362-7.915c.334-.415.459-.958.34-1.476"></path><path d="M18.074 10.34l-2.15 1.925.002.006a.485.485 0 0 0 .19.834l.003.011 2.784.802a5.73 5.73 0 0 0-.12-1.845 5.738 5.738 0 0 0-.709-1.732m-4.423 5.869a.482.482 0 0 0-.444-.256.486.486 0 0 0-.41.256h-.003l-1.397 2.526a5.691 5.691 0 0 0 3.665.004l-1.4-2.53h-.01zm2.081-1.425a.483.483 0 0 0-.298.04.486.486 0 0 0-.235.63l-.004.004 1.113 2.687a5.676 5.676 0 0 0 2.294-2.882l-2.866-.485-.004.006z"></path></g></g><g transform="translate(114.000000, 264.000000)"><g transform="translate(0.000000, 466.902062)"><path d="M266 7.15v27.17a7.15 7.15 0 0 1-7.15 7.15H7.15A7.15 7.15 0 0 1 0 34.32V7.15A7.15 7.15 0 0 1 7.15 0h251.7A7.15 7.15 0 0 1 266 7.15z" fill="#D2D2D2"></path><path fill="#A3A3A3" d="M44.33 8.58h5.72v5.72h-5.72zm0 8.58h5.72v5.72h-5.72zm0 8.58h5.72v5.72h-5.72zm8.58-17.16h5.72v5.72h-5.72zm0 8.58h5.72v5.72h-5.72zm0 8.58h5.72v5.72h-5.72zm8.58-17.16h5.72v5.72h-5.72zm0 8.58h5.72v5.72h-5.72zm0 8.58h5.72v5.72h-5.72zm8.58-17.16h5.72v5.72h-5.72zm0 8.58h5.72v5.72h-5.72zm0 8.58h5.72v5.72h-5.72zm8.58-17.16h5.72v5.72h-5.72zm0 8.58h5.72v5.72h-5.72zm0 8.58h5.72v5.72h-5.72zm8.58-17.16h5.72v5.72h-5.72zm0 8.58h5.72v5.72h-5.72zm0 8.58h5.72v5.72h-5.72zm8.58-17.16h5.72v5.72h-5.72zm0 8.58h5.72v5.72h-5.72zm0 8.58h5.72v5.72h-5.72zm8.58-17.16h5.72v5.72h-5.72zm0 8.58h5.72v5.72h-5.72zm0 8.58h5.72v5.72h-5.72zm8.58-17.16h5.72v5.72h-5.72zm0 8.58h5.72v5.72h-5.72zm0 8.58h5.72v5.72h-5.72zm8.58-17.16h5.72v5.72h-5.72zm0 8.58h5.72v5.72h-5.72zm0 8.58h5.72v5.72h-5.72zm8.58-17.16h5.72v5.72h-5.72zm0 8.58h5.72v5.72h-5.72zm0 8.58h5.72v5.72h-5.72zm8.58-17.16h5.72v5.72h-5.72zm0 8.58h5.72v5.72h-5.72zm0 8.58h5.72v5.72h-5.72zm8.58-17.16h5.72v5.72h-5.72zm0 8.58h5.72v5.72h-5.72zm0 8.58h5.72v5.72h-5.72zm8.58-17.16h5.72v5.72h-5.72zm0 8.58h5.72v5.72h-5.72zm0 8.58h5.72v5.72h-5.72zm8.58-17.16h5.72v5.72h-5.72zm0 8.58h5.72v5.72h-5.72zm0 8.58h5.72v5.72h-5.72zm8.58-17.16h5.72v5.72h-5.72zm0 8.58h5.72v5.72h-5.72zm0 8.58h5.72v5.72h-5.72zm8.58-17.16h5.72v5.72h-5.72zm0 8.58h5.72v5.72h-5.72zm0 8.58h5.72v5.72h-5.72zm8.58-17.16h5.72v5.72h-5.72zm0 8.58h5.72v5.72h-5.72zm0 8.58h5.72v5.72h-5.72zm8.58-17.16h5.72v5.72h-5.72zm0 8.58h5.72v5.72h-5.72zm0 8.58h5.72v5.72h-5.72zm8.58-17.16h5.72v5.72h-5.72zm0 8.58h5.72v5.72h-5.72zm0 8.58h5.72v5.72h-5.72zm8.58-17.16h5.72v5.72h-5.72zm0 8.58h5.72v5.72h-5.72zm0 8.58h5.72v5.72h-5.72zm8.58-17.16h5.72v5.72h-5.72zm0 8.58h5.72v5.72h-5.72zm0 8.58h5.72v5.72h-5.72zm8.58-17.16h5.72v5.72h-5.72zm0 8.58h5.72v5.72h-5.72zm0 8.58h5.72v5.72h-5.72zm8.58-17.16h5.72v5.72h-5.72zm0 8.58h5.72v5.72h-5.72zm0 8.58h5.72v5.72h-5.72zm8.58-17.16h5.72v5.72h-5.72zm0 8.58h5.72v5.72h-5.72zm0 8.58h5.72v5.72h-5.72z"></path></g><g transform="translate(0.000000, 512.592784)"><path d="M266 7.15v27.17a7.15 7.15 0 0 1-7.15 7.15H7.15A7.15 7.15 0 0 1 0 34.32V7.15A7.15 7.15 0 0 1 7.15 0h251.7A7.15 7.15 0 0 1 266 7.15z" fill="#D2D2D2"></path><path fill="#A3A3A3" d="M44.33 8.58h5.72v5.72h-5.72zm0 8.58h5.72v5.72h-5.72zm0 8.58h5.72v5.72h-5.72zm8.58-17.16h5.72v5.72h-5.72zm0 8.58h5.72v5.72h-5.72zm0 8.58h5.72v5.72h-5.72zm8.58-17.16h5.72v5.72h-5.72zm0 8.58h5.72v5.72h-5.72zm0 8.58h5.72v5.72h-5.72zm8.58-17.16h5.72v5.72h-5.72zm0 8.58h5.72v5.72h-5.72zm0 8.58h5.72v5.72h-5.72zm8.58-17.16h5.72v5.72h-5.72zm0 8.58h5.72v5.72h-5.72zm0 8.58h5.72v5.72h-5.72zm8.58-17.16h5.72v5.72h-5.72zm0 8.58h5.72v5.72h-5.72zm0 8.58h5.72v5.72h-5.72zm8.58-17.16h5.72v5.72h-5.72zm0 8.58h5.72v5.72h-5.72zm0 8.58h5.72v5.72h-5.72zm8.58-17.16h5.72v5.72h-5.72zm0 8.58h5.72v5.72h-5.72zm0 8.58h5.72v5.72h-5.72zm8.58-17.16h5.72v5.72h-5.72zm0 8.58h5.72v5.72h-5.72zm0 8.58h5.72v5.72h-5.72zm8.58-17.16h5.72v5.72h-5.72zm0 8.58h5.72v5.72h-5.72zm0 8.58h5.72v5.72h-5.72zm8.58-17.16h5.72v5.72h-5.72zm0 8.58h5.72v5.72h-5.72zm0 8.58h5.72v5.72h-5.72zm8.58-17.16h5.72v5.72h-5.72zm0 8.58h5.72v5.72h-5.72zm0 8.58h5.72v5.72h-5.72zm8.58-17.16h5.72v5.72h-5.72zm0 8.58h5.72v5.72h-5.72zm0 8.58h5.72v5.72h-5.72zm8.58-17.16h5.72v5.72h-5.72zm0 8.58h5.72v5.72h-5.72zm0 8.58h5.72v5.72h-5.72zm8.58-17.16h5.72v5.72h-5.72zm0 8.58h5.72v5.72h-5.72zm0 8.58h5.72v5.72h-5.72zm8.58-17.16h5.72v5.72h-5.72zm0 8.58h5.72v5.72h-5.72zm0 8.58h5.72v5.72h-5.72zm8.58-17.16h5.72v5.72h-5.72zm0 8.58h5.72v5.72h-5.72zm0 8.58h5.72v5.72h-5.72zm8.58-17.16h5.72v5.72h-5.72zm0 8.58h5.72v5.72h-5.72zm0 8.58h5.72v5.72h-5.72zm8.58-17.16h5.72v5.72h-5.72zm0 8.58h5.72v5.72h-5.72zm0 8.58h5.72v5.72h-5.72zm8.58-17.16h5.72v5.72h-5.72zm0 8.58h5.72v5.72h-5.72zm0 8.58h5.72v5.72h-5.72zm8.58-17.16h5.72v5.72h-5.72zm0 8.58h5.72v5.72h-5.72zm0 8.58h5.72v5.72h-5.72zm8.58-17.16h5.72v5.72h-5.72zm0 8.58h5.72v5.72h-5.72zm0 8.58h5.72v5.72h-5.72zm8.58-17.16h5.72v5.72h-5.72zm0 8.58h5.72v5.72h-5.72zm0 8.58h5.72v5.72h-5.72zm8.58-17.16h5.72v5.72h-5.72zm0 8.58h5.72v5.72h-5.72zm0 8.58h5.72v5.72h-5.72zm8.58-17.16h5.72v5.72h-5.72zm0 8.58h5.72v5.72h-5.72zm0 8.58h5.72v5.72h-5.72z"></path></g><path d="M266 7.15v449.02a7.15 7.15 0 0 1-7.15 7.15H7.15A7.15 7.15 0 0 1 0 456.17V7.15A7.15 7.15 0 0 1 7.15 0h251.7A7.15 7.15 0 0 1 266 7.15z" fill="#D2D2D2"></path><path fill="#A3A3A3" d="M10.01 8.58h5.72v5.72h-5.72zm0 8.58h5.72v5.72h-5.72zm0 8.58h5.72v5.72h-5.72zm8.58-17.16h5.72v5.72h-5.72zm0 8.58h5.72v5.72h-5.72zm0 8.58h5.72v5.72h-5.72zm8.58-17.16h5.72v5.72h-5.72zm0 8.58h5.72v5.72h-5.72zm0 8.58h5.72v5.72h-5.72zm8.58-17.16h5.72v5.72h-5.72zm0 8.58h5.72v5.72h-5.72zm0 8.58h5.72v5.72h-5.72zm8.58-17.16h5.72v5.72h-5.72zm0 8.58h5.72v5.72h-5.72zm0 8.58h5.72v5.72h-5.72zm8.58-17.16h5.72v5.72h-5.72zm0 8.58h5.72v5.72h-5.72zm0 8.58h5.72v5.72h-5.72zm8.58-17.16h5.72v5.72h-5.72zm0 8.58h5.72v5.72h-5.72zm0 8.58h5.72v5.72h-5.72zm8.58-17.16h5.72v5.72h-5.72zm0 8.58h5.72v5.72h-5.72zm0 8.58h5.72v5.72h-5.72zm8.58-17.16h5.72v5.72h-5.72zm0 8.58h5.72v5.72h-5.72zm0 8.58h5.72v5.72h-5.72zm8.58-17.16h5.72v5.72h-5.72zm0 8.58h5.72v5.72h-5.72zm0 8.58h5.72v5.72h-5.72zm8.58-17.16h5.72v5.72h-5.72zm0 8.58h5.72v5.72h-5.72zm0 8.58h5.72v5.72h-5.72zm8.58-17.16h5.72v5.72h-5.72zm0 8.58h5.72v5.72h-5.72zm0 8.58h5.72v5.72h-5.72zm8.58-17.16h5.72v5.72h-5.72zm0 8.58h5.72v5.72h-5.72zm0 8.58h5.72v5.72h-5.72zm8.58-17.16h5.72v5.72h-5.72zm0 8.58h5.72v5.72h-5.72zm0 8.58h5.72v5.72h-5.72zm8.58-17.16h5.72v5.72h-5.72zm0 8.58h5.72v5.72h-5.72zm0 8.58h5.72v5.72h-5.72zm8.58-17.16h5.72v5.72h-5.72zm0 8.58h5.72v5.72h-5.72zm0 8.58h5.72v5.72h-5.72zm8.58-17.16h5.72v5.72h-5.72zm0 8.58h5.72v5.72h-5.72zm0 8.58h5.72v5.72h-5.72zm8.58-17.16h5.72v5.72h-5.72zm0 8.58h5.72v5.72h-5.72zm0 8.58h5.72v5.72h-5.72zm8.58-17.16h5.72v5.72h-5.72zm0 8.58h5.72v5.72h-5.72zm0 8.58h5.72v5.72h-5.72zm8.58-17.16h5.72v5.72h-5.72zm0 8.58h5.72v5.72h-5.72zm0 8.58h5.72v5.72h-5.72zm8.58-17.16h5.72v5.72h-5.72zm0 8.58h5.72v5.72h-5.72zm0 8.58h5.72v5.72h-5.72zm8.58-17.16h5.72v5.72h-5.72zm0 8.58h5.72v5.72h-5.72zm0 8.58h5.72v5.72h-5.72zm8.58-17.16h5.72v5.72h-5.72zm0 8.58h5.72v5.72h-5.72zm0 8.58h5.72v5.72h-5.72zm8.58-17.16h5.72v5.72h-5.72zm0 8.58h5.72v5.72h-5.72zm0 8.58h5.72v5.72h-5.72zm8.58-17.16h5.72v5.72h-5.72zm0 8.58h5.72v5.72h-5.72zm0 8.58h5.72v5.72h-5.72zm8.58-17.16h5.72v5.72h-5.72zm0 8.58h5.72v5.72h-5.72zm0 8.58h5.72v5.72h-5.72zm8.58-17.16h5.72v5.72h-5.72zm0 8.58h5.72v5.72h-5.72zm0 8.58h5.72v5.72h-5.72zm8.58-17.16h5.72v5.72h-5.72zm0 8.58h5.72v5.72h-5.72zm0 8.58h5.72v5.72h-5.72zm8.58-17.16h5.72v5.72h-5.72zm0 8.58h5.72v5.72h-5.72zm0 8.58h5.72v5.72h-5.72zM10.01 447.59h5.72v5.72h-5.72zm8.58 0h5.72v5.72h-5.72zm8.58 0h5.72v5.72h-5.72zm8.58 0h5.72v5.72h-5.72zm8.58 0h5.72v5.72h-5.72zm8.58 0h5.72v5.72h-5.72zm8.58 0h5.72v5.72h-5.72zm8.58 0h5.72v5.72h-5.72zm8.58 0h5.72v5.72h-5.72zm8.58 0h5.72v5.72h-5.72zm8.58 0h5.72v5.72h-5.72zm8.58 0h5.72v5.72h-5.72zm8.58 0h5.72v5.72h-5.72zm8.58 0h5.72v5.72h-5.72zm8.58 0h5.72v5.72h-5.72zm8.58 0h5.72v5.72h-5.72zm8.58 0h5.72v5.72h-5.72zm8.58 0h5.72v5.72h-5.72zm8.58 0h5.72v5.72h-5.72zm8.58 0h5.72v5.72h-5.72zm8.58 0h5.72v5.72h-5.72zm8.58 0h5.72v5.72h-5.72zm8.58 0h5.72v5.72h-5.72zm8.58 0h5.72v5.72h-5.72zm8.58 0h5.72v5.72h-5.72zm8.58 0h5.72v5.72h-5.72zm8.58 0h5.72v5.72h-5.72zm8.58 0h5.72v5.72h-5.72zm8.58 0h5.72v5.72h-5.72z"></path><rect fill="#FFF" x="10.011" y="41.409" width="245.978" height="396.957" rx="2.86"></rect><path d="M25.752 485.949h3.396v-3.088h-3.396v3.088zm-4.013 0h3.396v-3.088h-3.396v3.088zm-4.014 0h3.397v-3.088h-3.397v3.088zm-4.013 0h3.396v-3.088h-3.396v3.088zm-4.013 0h3.396v-3.088H9.699v3.088zm4.013-3.705h3.396v-3.087h-3.396v3.087zm4.013 0h3.397v-3.087h-3.397v3.087zm4.014 0h3.396v-3.087h-3.396v3.087zm0-3.705h3.396v-3.087h-3.396v3.087zm17.615 5.61c-.741-.497-2.445-.679-3.757-.431-.169-1.236-.857-2.307-2.11-3.275l-.72-.48-.48.72c-.615.928-.922 2.213-.821 3.445.045.434.187 1.209.633 1.89-.445.24-1.326.57-2.488.548H7.277l-.044.257c-.21 1.238-.205 5.102 2.303 8.073 1.907 2.257 4.767 3.402 8.498 3.402 8.09 0 14.075-3.724 16.877-10.493 1.103.022 3.476.006 4.695-2.323a12.4 12.4 0 0 0 .317-.634l.117-.242-.686-.458z" fill="#A3A3A3"></path><g transform="translate(10.010000, 519.711521)" fill="#A3A3A3"><path d="M11.272 15.166a.485.485 0 0 0-.56-.37l-.005-.005-2.842.482a5.7 5.7 0 0 0 2.288 2.863l1.1-2.66-.008-.011a.48.48 0 0 0 .027-.299m-.944-2.047a.485.485 0 0 0 .19-.834l.003-.012-2.162-1.933a5.668 5.668 0 0 0-.804 3.588l2.77-.8.003-.01zm1.262-2.182a.485.485 0 0 0 .77-.372l.012-.005.163-2.888a5.67 5.67 0 0 0-3.318 1.589l2.368 1.678.005-.002zm.837 3.031l.797.383.795-.382.198-.859-.55-.688h-.886l-.552.687zm1.653-3.412a.486.486 0 0 0 .771.37l.01.004 2.351-1.668a5.718 5.718 0 0 0-3.297-1.59l.163 2.883.003.001z"></path><path d="M22.908 15.54c-.067.293-.384.472-.71.402l-.009-.002c-.004 0-.007-.002-.01-.003-.046-.01-.103-.02-.143-.03-.188-.051-.324-.126-.494-.191-.364-.13-.665-.24-.96-.282-.149-.012-.225.059-.307.114a8.261 8.261 0 0 0-.236-.042 7.162 7.162 0 0 1-3.172 3.992c.026.063.07.198.091.222-.035.093-.087.182-.042.325.107.277.28.547.488.873.1.15.204.267.295.44.022.04.05.104.072.147.141.303.038.65-.234.782-.274.132-.614-.007-.761-.311-.021-.043-.05-.1-.068-.141-.078-.18-.105-.332-.16-.505-.125-.366-.228-.67-.378-.925-.084-.124-.186-.14-.28-.171-.018-.03-.083-.15-.118-.212a7.112 7.112 0 0 1-5.08-.013l-.124.226c-.093.025-.183.05-.237.116-.2.239-.28.623-.427.988-.054.173-.08.326-.158.505-.018.04-.048.097-.068.14l-.002.002c-.147.304-.486.442-.76.31-.271-.13-.375-.48-.233-.781.02-.044.048-.107.07-.148.091-.173.194-.29.295-.44.209-.326.392-.62.499-.896.026-.092-.013-.218-.05-.31l.1-.24a7.162 7.162 0 0 1-3.174-3.964l-.24.04c-.064-.035-.193-.12-.316-.111-.294.043-.595.152-.96.283-.169.065-.305.139-.493.189-.04.01-.097.022-.143.032l-.01.003-.008.002c-.327.07-.644-.11-.71-.403-.068-.293.14-.592.465-.67l.008-.002.005-.002c.046-.01.105-.026.147-.034.191-.036.347-.027.528-.042.385-.04.703-.073.987-.162.09-.037.175-.16.236-.24l.23-.066a7.122 7.122 0 0 1 1.124-4.965l-.177-.16c-.011-.067-.026-.226-.11-.316-.217-.204-.49-.372-.819-.575-.156-.092-.3-.152-.456-.267-.034-.025-.078-.063-.114-.092l-.009-.006c-.264-.21-.324-.574-.135-.811a.53.53 0 0 1 .439-.194.655.655 0 0 1 .383.144c.038.03.089.069.123.098.147.127.237.252.362.384.271.276.496.505.742.67.13.076.229.046.327.032.031.024.138.1.199.142a7.08 7.08 0 0 1 4.59-2.208l.014-.233a.6.6 0 0 0 .178-.284c.024-.296-.014-.615-.06-1-.026-.18-.069-.327-.076-.522-.001-.04 0-.095.001-.141l-.001-.015c0-.338.246-.612.55-.612.304 0 .55.274.55.612 0 .047.004.112.002.156-.007.195-.05.344-.075.523-.047.384-.087.703-.063.999.022.148.109.206.18.275.002.04.008.172.013.246A7.213 7.213 0 0 1 18.4 8.422l.21-.15c.07.005.227.026.333-.036.247-.166.471-.396.742-.671.125-.132.216-.258.364-.385.034-.03.085-.068.122-.097.264-.211.631-.19.82.049.19.238.13.6-.134.81-.038.03-.086.073-.121.099-.157.116-.302.175-.458.267-.329.203-.602.372-.818.575-.103.11-.095.213-.104.312l-.195.175c.474.706.83 1.508 1.031 2.384.2.868.23 1.736.116 2.57l.222.064c.04.057.122.194.237.239.284.089.602.122.987.162.18.015.337.006.528.042l.16.038c.324.078.533.377.466.67m3.498.12l-2.272-9.87a1.747 1.747 0 0 0-.952-1.182L13.986.216a1.771 1.771 0 0 0-1.527 0L3.264 4.61c-.482.23-.832.665-.951 1.183L.044 15.662a1.732 1.732 0 0 0 .339 1.476l6.364 7.913c.334.415.84.656 1.375.656l10.207-.002c.535 0 1.04-.24 1.375-.655l6.362-7.915c.334-.415.459-.958.34-1.476"></path><path d="M18.074 10.34l-2.15 1.925.002.006a.485.485 0 0 0 .19.834l.003.011 2.784.802a5.73 5.73 0 0 0-.12-1.845 5.738 5.738 0 0 0-.709-1.732m-4.423 5.869a.482.482 0 0 0-.444-.256.486.486 0 0 0-.41.256h-.003l-1.397 2.526a5.691 5.691 0 0 0 3.665.004l-1.4-2.53h-.01zm2.081-1.425a.483.483 0 0 0-.298.04.486.486 0 0 0-.235.63l-.004.004 1.113 2.687a5.676 5.676 0 0 0 2.294-2.882l-2.866-.485-.004.006z"></path></g></g><g transform="translate(36.000000, 260.000000)"><g transform="translate(0.000000, 25.000000)" fill-rule="nonzero"><path fill="#FFF" d="M3 3h36.763L56 19.076V77H3z"></path><path fill="#D8D8D8" d="M38.567 1.734v17.877h18.008z"></path><path d="M39.2 0H0v79.66h58.64V19.02L39.2 0zm.89 5.07l13.37 13.08H40.09V5.06v.01zM3 76.66V3h34.09v18.15h18.55v55.51H3z" fill="#000"></path><path fill="#000" d="M23.16 27.86h26.79v3H23.16zm-10.39 1.6l-3.04-3.05-2.12 2.12 5.16 5.17 7.24-7.24-2.12-2.13zM23.16 41.8h26.79v3H23.16zm-10.39 2.25L9.73 41l-2.12 2.12 5.16 5.17 7.24-7.25-2.12-2.12zm10.39 11.7h26.79v3H23.16zm-10.39 2.88l-3.04-3.04-2.12 2.12 5.16 5.17 7.24-7.25-2.12-2.12z"></path></g><text font-size="15.29" font-weight="bold" letter-spacing="-.487" fill="#000" class="sans-serif"><tspan x="13.244" y="15">rules</tspan></text></g><g transform="translate(823.000000, 264.000000)"><g transform="translate(0.000000, 466.902062)"><path d="M266 7.15v27.17a7.15 7.15 0 0 1-7.15 7.15H7.15A7.15 7.15 0 0 1 0 34.32V7.15A7.15 7.15 0 0 1 7.15 0h251.7A7.15 7.15 0 0 1 266 7.15z" fill="#D2D2D2"></path><path fill="#A3A3A3" d="M44.33 8.58h5.72v5.72h-5.72zm0 8.58h5.72v5.72h-5.72zm0 8.58h5.72v5.72h-5.72zm8.58-17.16h5.72v5.72h-5.72zm0 8.58h5.72v5.72h-5.72zm0 8.58h5.72v5.72h-5.72zm8.58-17.16h5.72v5.72h-5.72zm0 8.58h5.72v5.72h-5.72zm0 8.58h5.72v5.72h-5.72zm8.58-17.16h5.72v5.72h-5.72zm0 8.58h5.72v5.72h-5.72zm0 8.58h5.72v5.72h-5.72zm8.58-17.16h5.72v5.72h-5.72zm0 8.58h5.72v5.72h-5.72zm0 8.58h5.72v5.72h-5.72zm8.58-17.16h5.72v5.72h-5.72zm0 8.58h5.72v5.72h-5.72zm0 8.58h5.72v5.72h-5.72zm8.58-17.16h5.72v5.72h-5.72zm0 8.58h5.72v5.72h-5.72zm0 8.58h5.72v5.72h-5.72zm8.58-17.16h5.72v5.72h-5.72zm0 8.58h5.72v5.72h-5.72zm0 8.58h5.72v5.72h-5.72zm8.58-17.16h5.72v5.72h-5.72zm0 8.58h5.72v5.72h-5.72zm0 8.58h5.72v5.72h-5.72zm8.58-17.16h5.72v5.72h-5.72zm0 8.58h5.72v5.72h-5.72zm0 8.58h5.72v5.72h-5.72zm8.58-17.16h5.72v5.72h-5.72zm0 8.58h5.72v5.72h-5.72zm0 8.58h5.72v5.72h-5.72zm8.58-17.16h5.72v5.72h-5.72zm0 8.58h5.72v5.72h-5.72zm0 8.58h5.72v5.72h-5.72zm8.58-17.16h5.72v5.72h-5.72zm0 8.58h5.72v5.72h-5.72zm0 8.58h5.72v5.72h-5.72zm8.58-17.16h5.72v5.72h-5.72zm0 8.58h5.72v5.72h-5.72zm0 8.58h5.72v5.72h-5.72zm8.58-17.16h5.72v5.72h-5.72zm0 8.58h5.72v5.72h-5.72zm0 8.58h5.72v5.72h-5.72zm8.58-17.16h5.72v5.72h-5.72zm0 8.58h5.72v5.72h-5.72zm0 8.58h5.72v5.72h-5.72zm8.58-17.16h5.72v5.72h-5.72zm0 8.58h5.72v5.72h-5.72zm0 8.58h5.72v5.72h-5.72zm8.58-17.16h5.72v5.72h-5.72zm0 8.58h5.72v5.72h-5.72zm0 8.58h5.72v5.72h-5.72zm8.58-17.16h5.72v5.72h-5.72zm0 8.58h5.72v5.72h-5.72zm0 8.58h5.72v5.72h-5.72zm8.58-17.16h5.72v5.72h-5.72zm0 8.58h5.72v5.72h-5.72zm0 8.58h5.72v5.72h-5.72zm8.58-17.16h5.72v5.72h-5.72zm0 8.58h5.72v5.72h-5.72zm0 8.58h5.72v5.72h-5.72zm8.58-17.16h5.72v5.72h-5.72zm0 8.58h5.72v5.72h-5.72zm0 8.58h5.72v5.72h-5.72zm8.58-17.16h5.72v5.72h-5.72zm0 8.58h5.72v5.72h-5.72zm0 8.58h5.72v5.72h-5.72zm8.58-17.16h5.72v5.72h-5.72zm0 8.58h5.72v5.72h-5.72zm0 8.58h5.72v5.72h-5.72zm8.58-17.16h5.72v5.72h-5.72zm0 8.58h5.72v5.72h-5.72zm0 8.58h5.72v5.72h-5.72z"></path></g><g transform="translate(0.000000, 512.592784)"><path d="M266 7.15v27.17a7.15 7.15 0 0 1-7.15 7.15H7.15A7.15 7.15 0 0 1 0 34.32V7.15A7.15 7.15 0 0 1 7.15 0h251.7A7.15 7.15 0 0 1 266 7.15z" fill="#D2D2D2"></path><path fill="#A3A3A3" d="M44.33 8.58h5.72v5.72h-5.72zm0 8.58h5.72v5.72h-5.72zm0 8.58h5.72v5.72h-5.72zm8.58-17.16h5.72v5.72h-5.72zm0 8.58h5.72v5.72h-5.72zm0 8.58h5.72v5.72h-5.72zm8.58-17.16h5.72v5.72h-5.72zm0 8.58h5.72v5.72h-5.72zm0 8.58h5.72v5.72h-5.72zm8.58-17.16h5.72v5.72h-5.72zm0 8.58h5.72v5.72h-5.72zm0 8.58h5.72v5.72h-5.72zm8.58-17.16h5.72v5.72h-5.72zm0 8.58h5.72v5.72h-5.72zm0 8.58h5.72v5.72h-5.72zm8.58-17.16h5.72v5.72h-5.72zm0 8.58h5.72v5.72h-5.72zm0 8.58h5.72v5.72h-5.72zm8.58-17.16h5.72v5.72h-5.72zm0 8.58h5.72v5.72h-5.72zm0 8.58h5.72v5.72h-5.72zm8.58-17.16h5.72v5.72h-5.72zm0 8.58h5.72v5.72h-5.72zm0 8.58h5.72v5.72h-5.72zm8.58-17.16h5.72v5.72h-5.72zm0 8.58h5.72v5.72h-5.72zm0 8.58h5.72v5.72h-5.72zm8.58-17.16h5.72v5.72h-5.72zm0 8.58h5.72v5.72h-5.72zm0 8.58h5.72v5.72h-5.72zm8.58-17.16h5.72v5.72h-5.72zm0 8.58h5.72v5.72h-5.72zm0 8.58h5.72v5.72h-5.72zm8.58-17.16h5.72v5.72h-5.72zm0 8.58h5.72v5.72h-5.72zm0 8.58h5.72v5.72h-5.72zm8.58-17.16h5.72v5.72h-5.72zm0 8.58h5.72v5.72h-5.72zm0 8.58h5.72v5.72h-5.72zm8.58-17.16h5.72v5.72h-5.72zm0 8.58h5.72v5.72h-5.72zm0 8.58h5.72v5.72h-5.72zm8.58-17.16h5.72v5.72h-5.72zm0 8.58h5.72v5.72h-5.72zm0 8.58h5.72v5.72h-5.72zm8.58-17.16h5.72v5.72h-5.72zm0 8.58h5.72v5.72h-5.72zm0 8.58h5.72v5.72h-5.72zm8.58-17.16h5.72v5.72h-5.72zm0 8.58h5.72v5.72h-5.72zm0 8.58h5.72v5.72h-5.72zm8.58-17.16h5.72v5.72h-5.72zm0 8.58h5.72v5.72h-5.72zm0 8.58h5.72v5.72h-5.72zm8.58-17.16h5.72v5.72h-5.72zm0 8.58h5.72v5.72h-5.72zm0 8.58h5.72v5.72h-5.72zm8.58-17.16h5.72v5.72h-5.72zm0 8.58h5.72v5.72h-5.72zm0 8.58h5.72v5.72h-5.72zm8.58-17.16h5.72v5.72h-5.72zm0 8.58h5.72v5.72h-5.72zm0 8.58h5.72v5.72h-5.72zm8.58-17.16h5.72v5.72h-5.72zm0 8.58h5.72v5.72h-5.72zm0 8.58h5.72v5.72h-5.72zm8.58-17.16h5.72v5.72h-5.72zm0 8.58h5.72v5.72h-5.72zm0 8.58h5.72v5.72h-5.72zm8.58-17.16h5.72v5.72h-5.72zm0 8.58h5.72v5.72h-5.72zm0 8.58h5.72v5.72h-5.72zm8.58-17.16h5.72v5.72h-5.72zm0 8.58h5.72v5.72h-5.72zm0 8.58h5.72v5.72h-5.72z"></path></g><path d="M266 7.15v449.02a7.15 7.15 0 0 1-7.15 7.15H7.15A7.15 7.15 0 0 1 0 456.17V7.15A7.15 7.15 0 0 1 7.15 0h251.7A7.15 7.15 0 0 1 266 7.15z" fill="#D2D2D2"></path><path fill="#A3A3A3" d="M10.01 8.58h5.72v5.72h-5.72zm0 8.58h5.72v5.72h-5.72zm0 8.58h5.72v5.72h-5.72zm8.58-17.16h5.72v5.72h-5.72zm0 8.58h5.72v5.72h-5.72zm0 8.58h5.72v5.72h-5.72zm8.58-17.16h5.72v5.72h-5.72zm0 8.58h5.72v5.72h-5.72zm0 8.58h5.72v5.72h-5.72zm8.58-17.16h5.72v5.72h-5.72zm0 8.58h5.72v5.72h-5.72zm0 8.58h5.72v5.72h-5.72zm8.58-17.16h5.72v5.72h-5.72zm0 8.58h5.72v5.72h-5.72zm0 8.58h5.72v5.72h-5.72zm8.58-17.16h5.72v5.72h-5.72zm0 8.58h5.72v5.72h-5.72zm0 8.58h5.72v5.72h-5.72zm8.58-17.16h5.72v5.72h-5.72zm0 8.58h5.72v5.72h-5.72zm0 8.58h5.72v5.72h-5.72zm8.58-17.16h5.72v5.72h-5.72zm0 8.58h5.72v5.72h-5.72zm0 8.58h5.72v5.72h-5.72zm8.58-17.16h5.72v5.72h-5.72zm0 8.58h5.72v5.72h-5.72zm0 8.58h5.72v5.72h-5.72zm8.58-17.16h5.72v5.72h-5.72zm0 8.58h5.72v5.72h-5.72zm0 8.58h5.72v5.72h-5.72zm8.58-17.16h5.72v5.72h-5.72zm0 8.58h5.72v5.72h-5.72zm0 8.58h5.72v5.72h-5.72zm8.58-17.16h5.72v5.72h-5.72zm0 8.58h5.72v5.72h-5.72zm0 8.58h5.72v5.72h-5.72zm8.58-17.16h5.72v5.72h-5.72zm0 8.58h5.72v5.72h-5.72zm0 8.58h5.72v5.72h-5.72zm8.58-17.16h5.72v5.72h-5.72zm0 8.58h5.72v5.72h-5.72zm0 8.58h5.72v5.72h-5.72zm8.58-17.16h5.72v5.72h-5.72zm0 8.58h5.72v5.72h-5.72zm0 8.58h5.72v5.72h-5.72zm8.58-17.16h5.72v5.72h-5.72zm0 8.58h5.72v5.72h-5.72zm0 8.58h5.72v5.72h-5.72zm8.58-17.16h5.72v5.72h-5.72zm0 8.58h5.72v5.72h-5.72zm0 8.58h5.72v5.72h-5.72zm8.58-17.16h5.72v5.72h-5.72zm0 8.58h5.72v5.72h-5.72zm0 8.58h5.72v5.72h-5.72zm8.58-17.16h5.72v5.72h-5.72zm0 8.58h5.72v5.72h-5.72zm0 8.58h5.72v5.72h-5.72zm8.58-17.16h5.72v5.72h-5.72zm0 8.58h5.72v5.72h-5.72zm0 8.58h5.72v5.72h-5.72zm8.58-17.16h5.72v5.72h-5.72zm0 8.58h5.72v5.72h-5.72zm0 8.58h5.72v5.72h-5.72zm8.58-17.16h5.72v5.72h-5.72zm0 8.58h5.72v5.72h-5.72zm0 8.58h5.72v5.72h-5.72zm8.58-17.16h5.72v5.72h-5.72zm0 8.58h5.72v5.72h-5.72zm0 8.58h5.72v5.72h-5.72zm8.58-17.16h5.72v5.72h-5.72zm0 8.58h5.72v5.72h-5.72zm0 8.58h5.72v5.72h-5.72zm8.58-17.16h5.72v5.72h-5.72zm0 8.58h5.72v5.72h-5.72zm0 8.58h5.72v5.72h-5.72zm8.58-17.16h5.72v5.72h-5.72zm0 8.58h5.72v5.72h-5.72zm0 8.58h5.72v5.72h-5.72zm8.58-17.16h5.72v5.72h-5.72zm0 8.58h5.72v5.72h-5.72zm0 8.58h5.72v5.72h-5.72zm8.58-17.16h5.72v5.72h-5.72zm0 8.58h5.72v5.72h-5.72zm0 8.58h5.72v5.72h-5.72zm8.58-17.16h5.72v5.72h-5.72zm0 8.58h5.72v5.72h-5.72zm0 8.58h5.72v5.72h-5.72zM10.01 447.59h5.72v5.72h-5.72zm8.58 0h5.72v5.72h-5.72zm8.58 0h5.72v5.72h-5.72zm8.58 0h5.72v5.72h-5.72zm8.58 0h5.72v5.72h-5.72zm8.58 0h5.72v5.72h-5.72zm8.58 0h5.72v5.72h-5.72zm8.58 0h5.72v5.72h-5.72zm8.58 0h5.72v5.72h-5.72zm8.58 0h5.72v5.72h-5.72zm8.58 0h5.72v5.72h-5.72zm8.58 0h5.72v5.72h-5.72zm8.58 0h5.72v5.72h-5.72zm8.58 0h5.72v5.72h-5.72zm8.58 0h5.72v5.72h-5.72zm8.58 0h5.72v5.72h-5.72zm8.58 0h5.72v5.72h-5.72zm8.58 0h5.72v5.72h-5.72zm8.58 0h5.72v5.72h-5.72zm8.58 0h5.72v5.72h-5.72zm8.58 0h5.72v5.72h-5.72zm8.58 0h5.72v5.72h-5.72zm8.58 0h5.72v5.72h-5.72zm8.58 0h5.72v5.72h-5.72zm8.58 0h5.72v5.72h-5.72zm8.58 0h5.72v5.72h-5.72zm8.58 0h5.72v5.72h-5.72zm8.58 0h5.72v5.72h-5.72zm8.58 0h5.72v5.72h-5.72z"></path><rect fill="#FFF" x="10.011" y="41.409" width="245.978" height="396.957" rx="2.86"></rect><path d="M25.752 485.949h3.396v-3.088h-3.396v3.088zm-4.013 0h3.396v-3.088h-3.396v3.088zm-4.014 0h3.397v-3.088h-3.397v3.088zm-4.013 0h3.396v-3.088h-3.396v3.088zm-4.013 0h3.396v-3.088H9.699v3.088zm4.013-3.705h3.396v-3.087h-3.396v3.087zm4.013 0h3.397v-3.087h-3.397v3.087zm4.014 0h3.396v-3.087h-3.396v3.087zm0-3.705h3.396v-3.087h-3.396v3.087zm17.615 5.61c-.741-.497-2.445-.679-3.757-.431-.169-1.236-.857-2.307-2.11-3.275l-.72-.48-.48.72c-.615.928-.922 2.213-.821 3.445.045.434.187 1.209.633 1.89-.445.24-1.326.57-2.488.548H7.277l-.044.257c-.21 1.238-.205 5.102 2.303 8.073 1.907 2.257 4.767 3.402 8.498 3.402 8.09 0 14.075-3.724 16.877-10.493 1.103.022 3.476.006 4.695-2.323a12.4 12.4 0 0 0 .317-.634l.117-.242-.686-.458z" fill="#A3A3A3"></path><g transform="translate(10.010000, 519.711521)" fill="#A3A3A3"><path d="M11.272 15.166a.485.485 0 0 0-.56-.37l-.005-.005-2.842.482a5.7 5.7 0 0 0 2.288 2.863l1.1-2.66-.008-.011a.48.48 0 0 0 .027-.299m-.944-2.047a.485.485 0 0 0 .19-.834l.003-.012-2.162-1.933a5.668 5.668 0 0 0-.804 3.588l2.77-.8.003-.01zm1.262-2.182a.485.485 0 0 0 .77-.372l.012-.005.163-2.888a5.67 5.67 0 0 0-3.318 1.589l2.368 1.678.005-.002zm.837 3.031l.797.383.795-.382.198-.859-.55-.688h-.886l-.552.687zm1.653-3.412a.486.486 0 0 0 .771.37l.01.004 2.351-1.668a5.718 5.718 0 0 0-3.297-1.59l.163 2.883.003.001z"></path><path d="M22.908 15.54c-.067.293-.384.472-.71.402l-.009-.002c-.004 0-.007-.002-.01-.003-.046-.01-.103-.02-.143-.03-.188-.051-.324-.126-.494-.191-.364-.13-.665-.24-.96-.282-.149-.012-.225.059-.307.114a8.261 8.261 0 0 0-.236-.042 7.162 7.162 0 0 1-3.172 3.992c.026.063.07.198.091.222-.035.093-.087.182-.042.325.107.277.28.547.488.873.1.15.204.267.295.44.022.04.05.104.072.147.141.303.038.65-.234.782-.274.132-.614-.007-.761-.311-.021-.043-.05-.1-.068-.141-.078-.18-.105-.332-.16-.505-.125-.366-.228-.67-.378-.925-.084-.124-.186-.14-.28-.171-.018-.03-.083-.15-.118-.212a7.112 7.112 0 0 1-5.08-.013l-.124.226c-.093.025-.183.05-.237.116-.2.239-.28.623-.427.988-.054.173-.08.326-.158.505-.018.04-.048.097-.068.14l-.002.002c-.147.304-.486.442-.76.31-.271-.13-.375-.48-.233-.781.02-.044.048-.107.07-.148.091-.173.194-.29.295-.44.209-.326.392-.62.499-.896.026-.092-.013-.218-.05-.31l.1-.24a7.162 7.162 0 0 1-3.174-3.964l-.24.04c-.064-.035-.193-.12-.316-.111-.294.043-.595.152-.96.283-.169.065-.305.139-.493.189-.04.01-.097.022-.143.032l-.01.003-.008.002c-.327.07-.644-.11-.71-.403-.068-.293.14-.592.465-.67l.008-.002.005-.002c.046-.01.105-.026.147-.034.191-.036.347-.027.528-.042.385-.04.703-.073.987-.162.09-.037.175-.16.236-.24l.23-.066a7.122 7.122 0 0 1 1.124-4.965l-.177-.16c-.011-.067-.026-.226-.11-.316-.217-.204-.49-.372-.819-.575-.156-.092-.3-.152-.456-.267-.034-.025-.078-.063-.114-.092l-.009-.006c-.264-.21-.324-.574-.135-.811a.53.53 0 0 1 .439-.194.655.655 0 0 1 .383.144c.038.03.089.069.123.098.147.127.237.252.362.384.271.276.496.505.742.67.13.076.229.046.327.032.031.024.138.1.199.142a7.08 7.08 0 0 1 4.59-2.208l.014-.233a.6.6 0 0 0 .178-.284c.024-.296-.014-.615-.06-1-.026-.18-.069-.327-.076-.522-.001-.04 0-.095.001-.141l-.001-.015c0-.338.246-.612.55-.612.304 0 .55.274.55.612 0 .047.004.112.002.156-.007.195-.05.344-.075.523-.047.384-.087.703-.063.999.022.148.109.206.18.275.002.04.008.172.013.246A7.213 7.213 0 0 1 18.4 8.422l.21-.15c.07.005.227.026.333-.036.247-.166.471-.396.742-.671.125-.132.216-.258.364-.385.034-.03.085-.068.122-.097.264-.211.631-.19.82.049.19.238.13.6-.134.81-.038.03-.086.073-.121.099-.157.116-.302.175-.458.267-.329.203-.602.372-.818.575-.103.11-.095.213-.104.312l-.195.175c.474.706.83 1.508 1.031 2.384.2.868.23 1.736.116 2.57l.222.064c.04.057.122.194.237.239.284.089.602.122.987.162.18.015.337.006.528.042l.16.038c.324.078.533.377.466.67m3.498.12l-2.272-9.87a1.747 1.747 0 0 0-.952-1.182L13.986.216a1.771 1.771 0 0 0-1.527 0L3.264 4.61c-.482.23-.832.665-.951 1.183L.044 15.662a1.732 1.732 0 0 0 .339 1.476l6.364 7.913c.334.415.84.656 1.375.656l10.207-.002c.535 0 1.04-.24 1.375-.655l6.362-7.915c.334-.415.459-.958.34-1.476"></path><path d="M18.074 10.34l-2.15 1.925.002.006a.485.485 0 0 0 .19.834l.003.011 2.784.802a5.73 5.73 0 0 0-.12-1.845 5.738 5.738 0 0 0-.709-1.732m-4.423 5.869a.482.482 0 0 0-.444-.256.486.486 0 0 0-.41.256h-.003l-1.397 2.526a5.691 5.691 0 0 0 3.665.004l-1.4-2.53h-.01zm2.081-1.425a.483.483 0 0 0-.298.04.486.486 0 0 0-.235.63l-.004.004 1.113 2.687a5.676 5.676 0 0 0 2.294-2.882l-2.866-.485-.004.006z"></path></g></g><text font-size="40" font-weight="bold" fill="#000" class="sans-serif"><tspan x="174.215" y="561">10.0.0.1</tspan></text><text font-size="40" font-weight="bold" fill="#000" class="sans-serif"><tspan x="528.215" y="561">10.0.1.2</tspan></text><text font-size="40" font-weight="bold" fill="#000" class="sans-serif"><tspan x="884.215" y="561">10.0.2.3</tspan></text><text font-size="25.29" font-weight="bold" letter-spacing="-.805" fill="#000" class="sans-serif"><tspan x="65.129" y="138">TO:</tspan></text><text font-size="45.29" font-weight="bold" letter-spacing="-1.442" fill="#C7C7CC" class="sans-serif"><tspan x="65" y="187">Service </tspan> <tspan x="270.881" y="187" font-size="35.29">(172.17.0.1)</tspan></text><text font-size="45.29" font-weight="bold" letter-spacing="-1.442" class="sans-serif"><tspan x="65" y="230" fill="#000">Pod </tspan> <tspan x="201.967" y="230" font-size="35.29" fill="#9B9B9B">(10.0.1.2)</tspan></text><path fill="#E3CEBC" fill-rule="nonzero" d="M160 202h28v28h-28zm65-41h28v28h-28z"></path><path fill="#FF003C" fill-rule="nonzero" d="M157 65h28v28h-28z"></path><path fill="#9B9B9B" fill-rule="nonzero" d="M56 174h392v4H56z"></path><text font-size="25.29" font-weight="bold" letter-spacing="-.805" fill="#000" class="sans-serif"><tspan x="65.063" y="44">FROM:</tspan></text><text font-size="45.29" font-weight="bold" letter-spacing="-1.442" class="sans-serif"><tspan x="65" y="93" fill="#000">Pod </tspan> <tspan x="201.967" y="93" font-size="35.29" fill="#9B9B9B">(10.0.0.1)</tspan></text><g transform="translate(133.000000, 319.000000)"><path d="M229 183.899c0 1.16-.717 2.101-1.602 2.101H1.602C.717 186 0 185.06 0 183.899V7.15A7.15 7.15 0 0 1 7.15 0h214.7A7.15 7.15 0 0 1 229 7.15v176.749z" fill="#FF003C"></path><path d="M7.15 0h214.7A7.15 7.15 0 0 1 229 7.15v25.74H0V7.15A7.15 7.15 0 0 1 7.15 0z" fill="#CCC"></path><path d="M24.31 17.875a6.434 6.434 0 0 1-6.435 6.435 6.434 6.434 0 0 1-6.435-6.435 6.434 6.434 0 0 1 6.435-6.435 6.434 6.434 0 0 1 6.435 6.435" fill="#E74C3C"></path><path d="M47.19 17.875a6.434 6.434 0 0 1-6.435 6.435 6.434 6.434 0 0 1-6.435-6.435 6.434 6.434 0 0 1 6.435-6.435 6.434 6.434 0 0 1 6.435 6.435" fill="#F1C40F"></path><path d="M68.64 17.875a6.434 6.434 0 0 1-6.435 6.435 6.434 6.434 0 0 1-6.435-6.435 6.434 6.434 0 0 1 6.435-6.435 6.434 6.434 0 0 1 6.435 6.435" fill="#2ECC71"></path></g><path stroke="#FF9500" stroke-width="13" stroke-dasharray="12" d="M253 251.504L251.7 365"></path><g transform="translate(486.000000, 319.000000)"><path d="M229 183.899c0 1.16-.717 2.101-1.602 2.101H1.602C.717 186 0 185.06 0 183.899V7.15A7.15 7.15 0 0 1 7.15 0h214.7A7.15 7.15 0 0 1 229 7.15v176.749z" fill="#E3CEBC"></path><path d="M131.986 118.848l2.131-5.37a21.534 21.534 0 0 0 6.297-1.088l3.665 4.37c.682.808 1.808.979 2.67.418l2.311-1.51 2.313-1.51c.86-.563 1.214-1.702.83-2.704l-2.095-5.397a22.495 22.495 0 0 0 3.78-5.603l5.466.36c1.025.066 1.942-.642 2.178-1.703l.624-2.807.625-2.806c.23-1.036-.288-2.124-1.234-2.544l-5.144-2.281c-.05-2.28-.44-4.51-1.063-6.61l4.158-3.776a2.287 2.287 0 0 0 .397-2.81l-1.436-2.433-1.434-2.435c-.534-.904-1.617-1.277-2.569-.872l-5.155 2.224a22.459 22.459 0 0 0-5.196-3.867l.342-5.756c.062-1.08-.61-2.044-1.618-2.292l-2.666-.658-2.666-.657c-.985-.243-2.018.304-2.417 1.299l-2.167 5.413c-2.166.054-4.283.465-6.28 1.12l-3.62-4.333c-.683-.808-1.81-.98-2.67-.418l-2.313 1.51-2.313 1.51c-.859.563-1.214 1.702-.828 2.704l2.112 5.428a23.772 23.772 0 0 0-3.616 5.323l-5.517-.372c-1.024-.066-1.94.642-2.177 1.703l-.625 2.807-.624 2.806c-.23 1.036.288 2.124 1.234 2.544l5.1 2.243a24.89 24.89 0 0 0 1.034 6.629l-4.15 3.857a2.289 2.289 0 0 0-.397 2.81l1.434 2.434 1.435 2.435c.534.904 1.616 1.277 2.568.872l5.126-2.204a22.62 22.62 0 0 0 5.185 3.917l-.354 5.807c-.062 1.079.61 2.044 1.62 2.293l2.665.657 2.666.657c.975.188 1.985-.364 2.378-1.334zm4.295-41.484c6.454 1.59 10.462 8.387 8.952 15.18-1.51 6.796-7.968 11.015-14.422 9.425-6.455-1.59-10.463-8.388-8.952-15.182 1.51-6.794 7.967-11.014 14.422-9.423zm-28.943 69.67l.56-3.525a13.41 13.41 0 0 0 3.62-1.58l2.773 2.075a1.238 1.238 0 0 0 1.652-.143l1.182-1.245 1.182-1.245a1.406 1.406 0 0 0 .136-1.738l-1.97-2.918a14.232 14.232 0 0 0 1.516-3.908l3.318-.59c.621-.11 1.076-.67 1.076-1.34v-3.54c0-.654-.455-1.228-1.076-1.34l-3.378-.605a15.243 15.243 0 0 0-1.516-3.796l1.986-2.87a1.407 1.407 0 0 0-.136-1.74l-1.183-1.243-1.182-1.245a1.237 1.237 0 0 0-1.65-.143l-2.789 2.09a13.371 13.371 0 0 0-3.62-1.547l-.56-3.494c-.108-.653-.638-1.132-1.274-1.132h-3.363c-.62 0-1.167.479-1.273 1.132l-.575 3.557c-1.288.35-2.5.909-3.606 1.595l-2.742-2.058a1.238 1.238 0 0 0-1.65.143l-1.184 1.245-1.182 1.245c-.44.462-.5 1.196-.136 1.738l1.985 2.934a15.014 15.014 0 0 0-1.454 3.717l-3.35.59c-.62.112-1.075.67-1.075 1.34v3.54c0 .653.455 1.228 1.076 1.34l3.35.589a14.989 14.989 0 0 0 1.5 3.812l-1.97 2.918a1.407 1.407 0 0 0 .135 1.738l1.182 1.245 1.183 1.245c.44.462 1.136.526 1.65.143l2.773-2.074a13.454 13.454 0 0 0 3.621 1.58l.56 3.525c.106.653.637 1.132 1.273 1.132h3.363c.605-.032 1.136-.51 1.242-1.148zm-2.947-25.442c4.071 0 7.372 3.475 7.372 7.76 0 4.286-3.3 7.76-7.372 7.76-4.07 0-7.373-3.474-7.373-7.76 0-4.285 3.302-7.76 7.373-7.76zm-17.107-9.235l.465-3.414a13.044 13.044 0 0 0 3.46-1.611l2.72 1.934a1.195 1.195 0 0 0 1.59-.18l1.114-1.228 1.114-1.228a1.358 1.358 0 0 0 .094-1.681l-1.965-2.77a13.735 13.735 0 0 0 1.377-3.806l3.19-.65c.597-.122 1.023-.671 1.01-1.318l-.04-1.708-.037-1.71c-.014-.63-.466-1.172-1.067-1.266l-3.274-.504a14.714 14.714 0 0 0-1.545-3.626l1.854-2.818a1.357 1.357 0 0 0-.17-1.674l-1.167-1.173-1.167-1.172a1.194 1.194 0 0 0-1.597-.1l-2.645 2.084a12.895 12.895 0 0 0-3.528-1.406l-.617-3.357c-.116-.63-.638-1.077-1.253-1.063l-1.623.04-1.622.04c-.6.016-1.115.49-1.205 1.124l-.478 3.446a13.28 13.28 0 0 0-3.445 1.626l-2.69-1.92a1.195 1.195 0 0 0-1.59.18l-1.115 1.228-1.114 1.229a1.358 1.358 0 0 0-.093 1.68l1.978 2.785a14.54 14.54 0 0 0-1.323 3.62l-3.218.65c-.597.124-1.024.673-1.01 1.32l.04 1.709.037 1.708c.014.63.465 1.174 1.067 1.268l3.243.488c.352 1.3.862 2.52 1.53 3.643l-1.836 2.863c-.34.533-.265 1.24.17 1.674l1.166 1.173 1.167 1.172a1.194 1.194 0 0 0 1.597.099l2.63-2.068a12.976 12.976 0 0 0 3.53 1.437l.617 3.388c.116.629.638 1.077 1.253 1.063l1.623-.04 1.623-.04c.585-.048 1.086-.522 1.175-1.14zm-3.395-24.48c3.928-.097 7.188 3.175 7.282 7.312.092 4.136-3.016 7.567-6.946 7.666-3.93.097-7.19-3.176-7.283-7.312-.092-4.136 3.018-7.57 6.947-7.666z" fill="#6C431E" fill-rule="nonzero"></path><path d="M7.15 0h214.7A7.15 7.15 0 0 1 229 7.15v25.74H0V7.15A7.15 7.15 0 0 1 7.15 0z" fill="#CCC"></path><path d="M24.31 17.875a6.434 6.434 0 0 1-6.435 6.435 6.434 6.434 0 0 1-6.435-6.435 6.434 6.434 0 0 1 6.435-6.435 6.434 6.434 0 0 1 6.435 6.435" fill="#E74C3C"></path><path d="M47.19 17.875a6.434 6.434 0 0 1-6.435 6.435 6.434 6.434 0 0 1-6.435-6.435 6.434 6.434 0 0 1 6.435-6.435 6.434 6.434 0 0 1 6.435 6.435" fill="#F1C40F"></path><path d="M68.64 17.875a6.434 6.434 0 0 1-6.435 6.435 6.434 6.434 0 0 1-6.435-6.435 6.434 6.434 0 0 1 6.435-6.435 6.434 6.434 0 0 1 6.435 6.435" fill="#2ECC71"></path></g><g transform="translate(842.000000, 319.000000)"><path d="M229 183.899c0 1.16-.717 2.101-1.602 2.101H1.602C.717 186 0 185.06 0 183.899V7.15A7.15 7.15 0 0 1 7.15 0h214.7A7.15 7.15 0 0 1 229 7.15v176.749z" fill="#E3CEBC"></path><path d="M131.986 118.848l2.131-5.37a21.534 21.534 0 0 0 6.297-1.088l3.665 4.37c.682.808 1.808.979 2.67.418l2.311-1.51 2.313-1.51c.86-.563 1.214-1.702.83-2.704l-2.095-5.397a22.495 22.495 0 0 0 3.78-5.603l5.466.36c1.025.066 1.942-.642 2.178-1.703l.624-2.807.625-2.806c.23-1.036-.288-2.124-1.234-2.544l-5.144-2.281c-.05-2.28-.44-4.51-1.063-6.61l4.158-3.776a2.287 2.287 0 0 0 .397-2.81l-1.436-2.433-1.434-2.435c-.534-.904-1.617-1.277-2.569-.872l-5.155 2.224a22.459 22.459 0 0 0-5.196-3.867l.342-5.756c.062-1.08-.61-2.044-1.618-2.292l-2.666-.658-2.666-.657c-.985-.243-2.018.304-2.417 1.299l-2.167 5.413c-2.166.054-4.283.465-6.28 1.12l-3.62-4.333c-.683-.808-1.81-.98-2.67-.418l-2.313 1.51-2.313 1.51c-.859.563-1.214 1.702-.828 2.704l2.112 5.428a23.772 23.772 0 0 0-3.616 5.323l-5.517-.372c-1.024-.066-1.94.642-2.177 1.703l-.625 2.807-.624 2.806c-.23 1.036.288 2.124 1.234 2.544l5.1 2.243a24.89 24.89 0 0 0 1.034 6.629l-4.15 3.857a2.289 2.289 0 0 0-.397 2.81l1.434 2.434 1.435 2.435c.534.904 1.616 1.277 2.568.872l5.126-2.204a22.62 22.62 0 0 0 5.185 3.917l-.354 5.807c-.062 1.079.61 2.044 1.62 2.293l2.665.657 2.666.657c.975.188 1.985-.364 2.378-1.334zm4.295-41.484c6.454 1.59 10.462 8.387 8.952 15.18-1.51 6.796-7.968 11.015-14.422 9.425-6.455-1.59-10.463-8.388-8.952-15.182 1.51-6.794 7.967-11.014 14.422-9.423zm-28.943 69.67l.56-3.525a13.41 13.41 0 0 0 3.62-1.58l2.773 2.075a1.238 1.238 0 0 0 1.652-.143l1.182-1.245 1.182-1.245a1.406 1.406 0 0 0 .136-1.738l-1.97-2.918a14.232 14.232 0 0 0 1.516-3.908l3.318-.59c.621-.11 1.076-.67 1.076-1.34v-3.54c0-.654-.455-1.228-1.076-1.34l-3.378-.605a15.243 15.243 0 0 0-1.516-3.796l1.986-2.87a1.407 1.407 0 0 0-.136-1.74l-1.183-1.243-1.182-1.245a1.237 1.237 0 0 0-1.65-.143l-2.789 2.09a13.371 13.371 0 0 0-3.62-1.547l-.56-3.494c-.108-.653-.638-1.132-1.274-1.132h-3.363c-.62 0-1.167.479-1.273 1.132l-.575 3.557c-1.288.35-2.5.909-3.606 1.595l-2.742-2.058a1.238 1.238 0 0 0-1.65.143l-1.184 1.245-1.182 1.245c-.44.462-.5 1.196-.136 1.738l1.985 2.934a15.014 15.014 0 0 0-1.454 3.717l-3.35.59c-.62.112-1.075.67-1.075 1.34v3.54c0 .653.455 1.228 1.076 1.34l3.35.589a14.989 14.989 0 0 0 1.5 3.812l-1.97 2.918a1.407 1.407 0 0 0 .135 1.738l1.182 1.245 1.183 1.245c.44.462 1.136.526 1.65.143l2.773-2.074a13.454 13.454 0 0 0 3.621 1.58l.56 3.525c.106.653.637 1.132 1.273 1.132h3.363c.605-.032 1.136-.51 1.242-1.148zm-2.947-25.442c4.071 0 7.372 3.475 7.372 7.76 0 4.286-3.3 7.76-7.372 7.76-4.07 0-7.373-3.474-7.373-7.76 0-4.285 3.302-7.76 7.373-7.76zm-17.107-9.235l.465-3.414a13.044 13.044 0 0 0 3.46-1.611l2.72 1.934a1.195 1.195 0 0 0 1.59-.18l1.114-1.228 1.114-1.228a1.358 1.358 0 0 0 .094-1.681l-1.965-2.77a13.735 13.735 0 0 0 1.377-3.806l3.19-.65c.597-.122 1.023-.671 1.01-1.318l-.04-1.708-.037-1.71c-.014-.63-.466-1.172-1.067-1.266l-3.274-.504a14.714 14.714 0 0 0-1.545-3.626l1.854-2.818a1.357 1.357 0 0 0-.17-1.674l-1.167-1.173-1.167-1.172a1.194 1.194 0 0 0-1.597-.1l-2.645 2.084a12.895 12.895 0 0 0-3.528-1.406l-.617-3.357c-.116-.63-.638-1.077-1.253-1.063l-1.623.04-1.622.04c-.6.016-1.115.49-1.205 1.124l-.478 3.446a13.28 13.28 0 0 0-3.445 1.626l-2.69-1.92a1.195 1.195 0 0 0-1.59.18l-1.115 1.228-1.114 1.229a1.358 1.358 0 0 0-.093 1.68l1.978 2.785a14.54 14.54 0 0 0-1.323 3.62l-3.218.65c-.597.124-1.024.673-1.01 1.32l.04 1.709.037 1.708c.014.63.465 1.174 1.067 1.268l3.243.488c.352 1.3.862 2.52 1.53 3.643l-1.836 2.863c-.34.533-.265 1.24.17 1.674l1.166 1.173 1.167 1.172a1.194 1.194 0 0 0 1.597.099l2.63-2.068a12.976 12.976 0 0 0 3.53 1.437l.617 3.388c.116.629.638 1.077 1.253 1.063l1.623-.04 1.623-.04c.585-.048 1.086-.522 1.175-1.14zm-3.395-24.48c3.928-.097 7.188 3.175 7.282 7.312.092 4.136-3.016 7.567-6.946 7.666-3.93.097-7.19-3.176-7.283-7.312-.092-4.136 3.018-7.57 6.947-7.666z" fill="#6C431E" fill-rule="nonzero"></path><path d="M7.15 0h214.7A7.15 7.15 0 0 1 229 7.15v25.74H0V7.15A7.15 7.15 0 0 1 7.15 0z" fill="#CCC"></path><path d="M24.31 17.875a6.434 6.434 0 0 1-6.435 6.435 6.434 6.434 0 0 1-6.435-6.435 6.434 6.434 0 0 1 6.435-6.435 6.434 6.434 0 0 1 6.435 6.435" fill="#E74C3C"></path><path d="M47.19 17.875a6.434 6.434 0 0 1-6.435 6.435 6.434 6.434 0 0 1-6.435-6.435 6.434 6.434 0 0 1 6.435-6.435 6.434 6.434 0 0 1 6.435 6.435" fill="#F1C40F"></path><path d="M68.64 17.875a6.434 6.434 0 0 1-6.435 6.435 6.434 6.434 0 0 1-6.435-6.435 6.434 6.434 0 0 1 6.435-6.435 6.434 6.434 0 0 1 6.435 6.435" fill="#2ECC71"></path></g></g></svg>