<svg viewBox="0 0 1200 900" xmlns="http://www.w3.org/2000/svg"><g fill="none" fill-rule="evenodd"><path stroke="#000" stroke-width="16" d="M574.4 353.316l.1 154.184"></path><path stroke="#000" stroke-width="10" d="M574.4 563.316l.1 154.184"></path><path stroke="#000" stroke-width="31" d="M574.4 224.316v75.372"></path><g transform="translate(624.000000, 311.000000)"><path d="M180.018 14.759c1.25-.695 1.244-1.825 0-2.517l-18.87-10.484c-1.251-.695-2.265-.09-2.265 1.342v20.8c0 1.436 1.02 2.033 2.265 1.342l18.87-10.483z" fill="#000"></path><path stroke="#000" stroke-width="3.9" d="M0 13.5h171.883"></path></g><g transform="translate(624.000000, 520.000000)"><path d="M180.018 14.759c1.25-.695 1.244-1.825 0-2.517l-18.87-10.484c-1.251-.695-2.265-.09-2.265 1.342v20.8c0 1.436 1.02 2.033 2.265 1.342l18.87-10.483z" fill="#000"></path><path stroke="#000" stroke-width="3.9" d="M0 13.5h171.883"></path></g><g transform="translate(624.000000, 730.000000)"><path d="M180.018 14.759c1.25-.695 1.244-1.825 0-2.517l-18.87-10.484c-1.251-.695-2.265-.09-2.265 1.342v20.8c0 1.436 1.02 2.033 2.265 1.342l18.87-10.483z" fill="#000"></path><path stroke="#000" stroke-width="3.9" d="M0 13.5h171.883"></path></g><g transform="translate(256.000000, 90.000000)"><g transform="translate(176.000000, 0.000000)"><rect stroke="#000" stroke-width="3.276" fill="#F0F0FF" x="1.638" y="1.638" width="280.644" height="131.04" rx="3.276"></rect><path d="M50.567 93.362c6.295 0 11.272-1.461 14.93-4.385 3.657-2.924 5.486-6.886 5.486-11.888 0-1.816-.242-3.465-.728-4.945-.485-1.48-1.138-2.737-1.96-3.77-.82-1.033-1.834-1.941-3.041-2.725a18.777 18.777 0 0 0-3.732-1.885c-1.282-.472-2.719-.87-4.311-1.194l-7.727-1.68c-4.628-.92-6.942-2.811-6.942-5.673 0-1.866.76-3.353 2.277-4.46 1.518-1.107 3.583-1.661 6.196-1.661 2.787 0 4.964.647 6.531 1.94 1.568 1.295 2.427 2.875 2.576 4.74h10.077c-.05-4.478-1.84-8.154-5.374-11.028-3.534-2.874-8.125-4.311-13.773-4.311-3.633 0-6.892.597-9.779 1.791-2.886 1.195-5.194 2.992-6.924 5.394-1.729 2.4-2.594 5.231-2.594 8.49 0 2.116.343 4.013 1.027 5.693.684 1.68 1.642 3.073 2.874 4.18a17.142 17.142 0 0 0 4.124 2.743c1.518.722 3.222 1.282 5.114 1.68l7.651 1.68c2.687.572 4.653 1.325 5.897 2.258 1.244.933 1.866 2.22 1.866 3.863 0 1.94-.802 3.49-2.407 4.647s-3.875 1.735-6.812 1.735c-3.06 0-5.48-.665-7.26-1.997-1.778-1.33-2.743-2.967-2.892-4.908H30.561a16.48 16.48 0 0 0 .672 4.423c.423 1.43 1.132 2.837 2.127 4.218.996 1.38 2.234 2.581 3.714 3.602 1.48 1.02 3.378 1.847 5.692 2.482 2.314.634 4.914.951 7.8.951zm50.76-.97V50.775h14.296v-9.33H76.246v9.33H90.54v41.617h10.787zm25.232 0l3.807-12.354h16.61l3.732 12.354h11.57l-16.796-50.948h-12.84l-16.87 50.948h10.787zm18.326-20.603h-12.391l5.971-19.931h.523l5.897 19.931zm35.72 20.603v-18.55h8.397l8.846 18.55h12.019L199.64 72.2c1.02-.399 2.034-.97 3.042-1.717 1.007-.747 1.99-1.686 2.948-2.818.958-1.132 1.736-2.55 2.333-4.255.597-1.705.896-3.552.896-5.543 0-4.877-1.55-8.833-4.647-11.869-3.098-3.036-7.595-4.554-13.493-4.554h-20.752v50.948h10.637zm8.397-26.724h-8.398V50.029h8.548c2.563 0 4.634.69 6.214 2.072 1.58 1.38 2.37 3.352 2.37 5.915 0 2.489-.771 4.386-2.314 5.692-1.543 1.307-3.683 1.96-6.42 1.96zm50.65 26.724V50.775h14.295v-9.33h-39.378v9.33h14.296v41.617h10.786z" fill="#000" fill-rule="nonzero"></path></g><g transform="translate(550.799967, 165.399984)" stroke="#000"><circle stroke-width="4.68" fill="#FDF2D0" cx="69" cy="69" r="66.66"></circle><path d="M31.57 80.2v-8.252h5.046c2.44 0 4.38-.724 5.816-2.172 1.437-1.448 2.155-3.323 2.155-5.624 0-2.3-.715-4.187-2.146-5.659-1.43-1.471-3.367-2.207-5.808-2.207h0-9.303V80.2h4.24zm3.048-11.738h-3.066v-8.637h4.38c1.367 0 2.43.376 3.189 1.13.76.753 1.139 1.819 1.139 3.197 0 1.612-.468 2.733-1.402 3.364-.934.63-2.348.946-4.24.946h0zm21.48 12.053c2.51 0 4.525-.75 6.044-2.25 1.518-1.502 2.277-3.595 2.277-6.282h0v-2.207c0-2.593-.765-4.652-2.295-6.176-1.53-1.524-3.539-2.286-6.027-2.286-2.476 0-4.485.777-6.026 2.33-1.542 1.553-2.313 3.603-2.313 6.15h0V72c0 2.698.756 4.791 2.269 6.28 1.512 1.49 3.536 2.234 6.07 2.234zm0-3.38c-1.344 0-2.375-.486-3.093-1.455-.718-.97-1.077-2.225-1.077-3.767h0v-1.997c0-1.53.368-2.786 1.103-3.767.736-.98 1.758-1.471 3.066-1.471 1.308 0 2.325.49 3.049 1.471.724.97 1.086 2.225 1.086 3.767h0v1.997c0 1.542-.353 2.798-1.06 3.767-.707.97-1.732 1.454-3.075 1.454zm19.323 3.31c1.449 0 2.658-.312 3.627-.937.97-.625 1.588-1.381 1.857-2.269h.21V80.2h4.047V55.024H81.01v9.408h-.193c-.338-.887-.963-1.617-1.874-2.19-.911-.572-2.062-.858-3.452-.858-2.16 0-3.877.721-5.15 2.164-1.273 1.442-1.91 3.401-1.91 5.877h0v2.979c0 2.488.634 4.45 1.901 5.886 1.267 1.437 2.964 2.155 5.09 2.155zm1.384-3.451c-1.284 0-2.298-.444-3.04-1.332-.74-.887-1.112-2.149-1.112-3.784h0v-1.927c0-1.623.365-2.879 1.095-3.767.73-.887 1.726-1.331 2.987-1.331 1.25 0 2.275.426 3.075 1.279.8.852 1.2 1.974 1.2 3.364h0v2.592c0 1.53-.382 2.73-1.147 3.6-.765.87-1.784 1.306-3.058 1.306zm31.693 3.206V56.286h-4.204l-5.66 4.1v4.081l5.467-3.889h.193V80.2h4.204z" stroke-width="1.56" fill="#000" fill-rule="nonzero"></path></g><g transform="translate(550.799967, 374.199972)" stroke="#000"><circle stroke-width="4.68" fill="#FDF2D0" cx="69" cy="69" r="66.66"></circle><path d="M29.643 80.2v-8.252h5.045c2.442 0 4.38-.724 5.817-2.172 1.437-1.448 2.155-3.323 2.155-5.624 0-2.3-.716-4.187-2.146-5.659-1.431-1.471-3.367-2.207-5.808-2.207h0-9.303V80.2h4.24zm3.048-11.738h-3.066v-8.637h4.38c1.367 0 2.43.376 3.189 1.13.759.753 1.139 1.819 1.139 3.197 0 1.612-.468 2.733-1.402 3.364-.934.63-2.348.946-4.24.946h0zm21.48 12.053c2.51 0 4.525-.75 6.043-2.25 1.519-1.502 2.278-3.595 2.278-6.282h0v-2.207c0-2.593-.765-4.652-2.295-6.176-1.53-1.524-3.539-2.286-6.027-2.286-2.476 0-4.485.777-6.027 2.33-1.541 1.553-2.312 3.603-2.312 6.15h0V72c0 2.698.756 4.791 2.269 6.28 1.512 1.49 3.536 2.234 6.07 2.234zm0-3.38c-1.344 0-2.375-.486-3.093-1.455-.718-.97-1.077-2.225-1.077-3.767h0v-1.997c0-1.53.367-2.786 1.103-3.767.736-.98 1.758-1.471 3.066-1.471 1.308 0 2.324.49 3.049 1.471.724.97 1.086 2.225 1.086 3.767h0v1.997c0 1.542-.354 2.798-1.06 3.767-.707.97-1.732 1.454-3.075 1.454zm19.323 3.31c1.449 0 2.657-.312 3.627-.937.97-.625 1.588-1.381 1.857-2.269h.21V80.2h4.047V55.024h-4.152v9.408h-.193c-.338-.887-.963-1.617-1.874-2.19-.911-.572-2.062-.858-3.452-.858-2.16 0-3.877.721-5.15 2.164-1.274 1.442-1.91 3.401-1.91 5.877h0v2.979c0 2.488.634 4.45 1.9 5.886 1.268 1.437 2.965 2.155 5.09 2.155zm1.384-3.451c-1.284 0-2.298-.444-3.04-1.332-.741-.887-1.112-2.149-1.112-3.784h0v-1.927c0-1.623.365-2.879 1.095-3.767.73-.887 1.726-1.331 2.987-1.331 1.25 0 2.275.426 3.075 1.279.8.852 1.2 1.974 1.2 3.364h0v2.592c0 1.53-.383 2.73-1.148 3.6-.765.87-1.784 1.306-3.057 1.306zm38.018 3.206v-3.609h-10.32v-.21l5.747-6.307a6.88 6.88 0 0 1 .333-.35 38.43 38.43 0 0 0 1.463-1.665c.403-.49.797-1.03 1.182-1.62a7.21 7.21 0 0 0 .876-1.875c.199-.66.298-1.352.298-2.076 0-1.927-.73-3.522-2.19-4.783-1.46-1.261-3.375-1.892-5.746-1.892-1.297 0-2.465.207-3.504.622-1.04.414-1.878.97-2.514 1.664a7.53 7.53 0 0 0-1.463 2.321 7.194 7.194 0 0 0-.508 2.68h0v.211h4.047a1.61 1.61 0 0 0-.009-.105 1.444 1.444 0 0 1-.009-.123c0-1.027.35-1.903 1.052-2.628.7-.724 1.64-1.086 2.82-1.086 1.098 0 2.006.327 2.725.981.718.654 1.077 1.495 1.077 2.523 0 .63-.152 1.27-.456 1.919-.303.648-.61 1.165-.92 1.55-.309.385-.75.888-1.322 1.507h0l-8.83 9.618V80.2h16.17z" stroke-width="1.56" fill="#000" fill-rule="nonzero"></path></g><g transform="translate(550.799967, 582.999960)" stroke="#000"><circle stroke-width="4.68" fill="#FDF2D0" cx="69" cy="69" r="66.66"></circle><path d="M29.424 80.2v-8.252h5.045c2.442 0 4.38-.724 5.817-2.172 1.437-1.448 2.155-3.323 2.155-5.624 0-2.3-.716-4.187-2.146-5.659-1.431-1.471-3.367-2.207-5.808-2.207h0-9.303V80.2h4.24zm3.048-11.738h-3.066v-8.637h4.38c1.367 0 2.43.376 3.189 1.13.759.753 1.139 1.819 1.139 3.197 0 1.612-.468 2.733-1.402 3.364-.934.63-2.348.946-4.24.946h0zm21.48 12.053c2.51 0 4.525-.75 6.043-2.25 1.519-1.502 2.278-3.595 2.278-6.282h0v-2.207c0-2.593-.765-4.652-2.295-6.176-1.53-1.524-3.539-2.286-6.027-2.286-2.476 0-4.485.777-6.027 2.33-1.541 1.553-2.312 3.603-2.312 6.15h0V72c0 2.698.756 4.791 2.269 6.28 1.512 1.49 3.536 2.234 6.07 2.234zm0-3.38c-1.344 0-2.375-.486-3.093-1.455-.718-.97-1.077-2.225-1.077-3.767h0v-1.997c0-1.53.367-2.786 1.103-3.767.736-.98 1.758-1.471 3.066-1.471 1.308 0 2.324.49 3.049 1.471.724.97 1.086 2.225 1.086 3.767h0v1.997c0 1.542-.354 2.798-1.06 3.767-.707.97-1.732 1.454-3.075 1.454zm19.323 3.31c1.449 0 2.657-.312 3.627-.937.97-.625 1.588-1.381 1.857-2.269h.21V80.2h4.047V55.024h-4.152v9.408h-.193c-.338-.887-.963-1.617-1.874-2.19-.911-.572-2.062-.858-3.452-.858-2.16 0-3.877.721-5.15 2.164-1.274 1.442-1.91 3.401-1.91 5.877h0v2.979c0 2.488.634 4.45 1.9 5.886 1.268 1.437 2.965 2.155 5.09 2.155zm1.384-3.451c-1.284 0-2.298-.444-3.04-1.332-.741-.887-1.112-2.149-1.112-3.784h0v-1.927c0-1.623.365-2.879 1.095-3.767.73-.887 1.726-1.331 2.987-1.331 1.25 0 2.275.426 3.075 1.279.8.852 1.2 1.974 1.2 3.364h0v2.592c0 1.53-.383 2.73-1.148 3.6-.765.87-1.784 1.306-3.057 1.306zm29.45 3.697c1.66 0 3.16-.284 4.503-.85 1.343-.567 2.412-1.402 3.206-2.505.794-1.104 1.18-2.38 1.156-3.828-.011-.9-.186-1.717-.525-2.453-.339-.736-.771-1.323-1.297-1.76a6.913 6.913 0 0 0-1.646-1.035 5.689 5.689 0 0 0-1.7-.464h0v-.228c.467-.07.952-.242 1.454-.516a6.6 6.6 0 0 0 1.437-1.078c.455-.444.826-1.013 1.112-1.708a5.636 5.636 0 0 0 .412-2.251c-.035-1.81-.78-3.3-2.234-4.468-1.454-1.168-3.372-1.746-5.755-1.734-2.44.011-4.368.636-5.781 1.874-1.413 1.238-2.15 2.792-2.208 4.66h3.96c.058-.852.45-1.58 1.174-2.18.724-.602 1.646-.903 2.768-.903 1.133 0 2.067.316 2.803.946.736.63 1.104 1.448 1.104 2.453.011 1.004-.354 1.84-1.095 2.505-.742.666-1.68.999-2.812.999h0-2.506V69.6h2.628c1.332 0 2.41.35 3.233 1.05.823.702 1.24 1.601 1.252 2.699.012 1.133-.406 2.058-1.252 2.777-.847.718-1.965 1.071-3.355 1.06-1.238 0-2.275-.292-3.11-.876-.835-.584-1.294-1.32-1.375-2.208h0-3.907c.07 1.869.852 3.434 2.347 4.695 1.495 1.262 3.498 1.893 6.01 1.893z" stroke-width="1.56" fill="#000" fill-rule="nonzero"></path></g><g transform="translate(262.799984, 178.599984)"><g transform="translate(0.120012, 0.240003)" stroke="#000"><path d="M55.409 107.104L3.714 55.409 55.409 3.714l51.695 51.695-51.695 51.695z" stroke-width="4.68" fill="#FDF2D0"></path><path d="M29.619 54.6v-4.471h2.81l2.068 4.471h1.49l-2.271-4.74c.271-.098.522-.227.753-.387.23-.16.45-.362.656-.607.206-.244.369-.547.488-.908.12-.36.18-.759.18-1.193 0-.44-.071-.853-.212-1.238a3.202 3.202 0 0 0-.627-1.043c-.277-.309-.645-.553-1.104-.733-.459-.179-.984-.268-1.576-.268h0-3.95V54.6h1.295zm2.427-5.644h-2.427v-4.3h2.492c.733 0 1.307.188 1.723.566.415.377.623.921.623 1.633 0 .673-.204 1.191-.611 1.555-.407.364-1.007.546-1.8.546h0zm9.66 5.782c1.058 0 1.927-.332 2.606-.997.678-.665 1.018-1.579 1.018-2.74h0v-1.353c0-1.156-.34-2.067-1.018-2.732-.68-.666-1.548-.998-2.607-.998-1.053 0-1.922.34-2.606 1.022-.684.681-1.026 1.584-1.026 2.708h0V51c0 1.173.335 2.09 1.006 2.749.67.66 1.546.99 2.626.99zm0-1.14c-.74 0-1.317-.245-1.735-.737-.419-.491-.628-1.158-.628-2h0v-1.074c0-.82.216-1.483.648-1.988.432-.505 1.003-.757 1.714-.757.712 0 1.279.252 1.703.757.423.5.635 1.162.635 1.988h0v1.075c0 .847-.207 1.515-.62 2.003-.412.489-.985.733-1.718.733zM49.23 54.6V42.896h-1.279V54.6h1.279zm4.373 0V42.896h-1.278V54.6h1.278zm9.635.081c.457 0 .785-.021.986-.065h0V53.55a5.152 5.152 0 0 1-.66.041c-.548 0-.921-.088-1.12-.265-.198-.176-.297-.525-.297-1.046h0v-5.131h1.939v-1.092h-1.939v-2.15H60.87v2.15h-1.303v1.092h1.303v5.066c0 .45.03.817.09 1.1.06.282.174.533.342.753.168.22.41.377.725.472.315.095.72.142 1.213.142zm4.643-.081v-4.789c0-.809.203-1.476.61-2 .408-.523.989-.785 1.744-.785.619 0 1.103.184 1.453.553.35.37.526.894.526 1.572h0V54.6h1.287v-5.848c0-.917-.265-1.62-.795-2.105-.529-.486-1.225-.73-2.089-.73-.423 0-.806.06-1.148.18-.342.12-.612.273-.81.46a3.115 3.115 0 0 0-.469.542 1.881 1.881 0 0 0-.244.521h0-.065v-4.724h-1.279V54.6h1.279zm11.736.138c.494 0 .948-.07 1.36-.211.413-.141.747-.323 1.002-.546.255-.223.457-.453.607-.692.15-.24.243-.475.28-.709h0-1.36c-.086.282-.3.523-.643.72-.342.2-.76.298-1.254.298-.728 0-1.29-.233-1.69-.7-.4-.467-.599-1.062-.599-1.784h0v-.432h5.669V49.64c0-1.119-.323-2.019-.97-2.7-.645-.681-1.482-1.022-2.508-1.022s-1.862.34-2.508 1.022c-.646.681-.97 1.581-.97 2.7h0v1.385c0 1.134.317 2.037.95 2.708.632.67 1.51 1.005 2.634 1.005zm2.085-5.05H77.32v-.154c0-.75.201-1.352.603-1.808.402-.456.931-.684 1.588-.684s1.187.228 1.588.684c.402.456.603 1.059.603 1.808h0v.155zM43.607 74.73c.695 0 1.273-.15 1.735-.452.461-.301.746-.647.855-1.038h.065v1.36h1.214V62.896h-1.279v4.406h-.065c-.158-.39-.447-.72-.868-.99-.42-.268-.96-.402-1.616-.402-1.016 0-1.827.324-2.435.973-.609.649-.913 1.5-.913 2.553h0v1.776c0 1.07.303 1.923.909 2.561.605.638 1.404.957 2.398.957zm.26-1.124c-.71 0-1.27-.239-1.677-.716-.407-.478-.61-1.149-.61-2.012h0v-1.116c0-.852.199-1.517.598-1.995.399-.478.946-.717 1.64-.717.696 0 1.266.225 1.711.676.445.45.668 1.02.668 1.71h0v1.597c0 .787-.21 1.413-.631 1.877-.421.464-.987.696-1.698.696zm7.477-9.26a.95.95 0 0 0 .7-.273.916.916 0 0 0 .278-.68.936.936 0 0 0-.277-.696.957.957 0 0 0-.7-.273.92.92 0 0 0-.677.277.94.94 0 0 0-.277.692c0 .272.093.498.277.68.185.182.41.273.676.273zm.652 10.254v-8.544h-1.279V74.6h1.279zm6.296.138a4.55 4.55 0 0 0 1.441-.211c.424-.141.763-.327 1.018-.558.256-.231.451-.485.587-.762.135-.277.211-.564.228-.863h0-1.279c-.206.798-.866 1.197-1.979 1.197-.695 0-1.243-.22-1.645-.66-.402-.44-.603-1.04-.603-1.8h0v-1.457c0-.793.193-1.422.578-1.886.386-.464.942-.696 1.67-.696.331 0 .623.047.875.142.253.095.447.22.583.375.136.155.239.3.31.436.07.136.119.277.146.423H61.5a2.203 2.203 0 0 0-.228-.892 2.812 2.812 0 0 0-.595-.802c-.255-.244-.59-.44-1.006-.586a4.125 4.125 0 0 0-1.38-.22c-1.075 0-1.928.331-2.558.994-.63.662-.944 1.547-.944 2.655h0v1.498c0 1.124.314 2.017.944 2.68.63.662 1.483.993 2.558.993zm8.845 0c.494 0 .947-.07 1.36-.211.412-.141.746-.323 1.002-.546.255-.223.457-.453.606-.692.15-.24.243-.475.281-.709h0-1.36c-.087.282-.301.523-.643.72-.342.2-.76.298-1.255.298-.727 0-1.29-.233-1.69-.7-.399-.467-.598-1.062-.598-1.784h0v-.432h5.668V69.64c0-1.119-.323-2.019-.969-2.7-.646-.681-1.482-1.022-2.508-1.022s-1.863.34-2.509 1.022c-.646.681-.969 1.581-.969 2.7h0v1.385c0 1.134.316 2.037.949 2.708.632.67 1.51 1.005 2.635 1.005zm2.085-5.05H64.84v-.154c0-.75.2-1.352.603-1.808.401-.456.93-.684 1.588-.684.657 0 1.186.228 1.588.684.402.456.603 1.059.603 1.808h0v.155z" stroke-width="1.56" fill="#000" fill-rule="nonzero"></path></g><g transform="translate(126.480011, 37.680003)"><rect stroke="#000" stroke-width="3.12" fill="#FFF" x="1.56" y="1.56" width="62.4" height="34.32" rx="4.68"></rect><path d="M16.337 26.901c1.154 0 2.198-.197 3.133-.59.934-.395 1.677-.976 2.23-1.744.552-.767.82-1.655.804-2.663a4.164 4.164 0 0 0-.365-1.706c-.236-.512-.537-.92-.902-1.225a4.809 4.809 0 0 0-1.146-.719 3.957 3.957 0 0 0-1.182-.323v-.158a3.07 3.07 0 0 0 1.011-.36c.35-.19.683-.44 1-.75.317-.308.575-.704.774-1.188a3.92 3.92 0 0 0 .286-1.566c-.024-1.259-.542-2.295-1.554-3.107-1.011-.813-2.346-1.215-4.003-1.207-1.698.008-3.04.443-4.022 1.304-.983.861-1.495 1.942-1.536 3.242h2.755c.04-.593.312-1.099.816-1.517.504-.419 1.146-.628 1.926-.628.788 0 1.438.22 1.95.658.512.439.768 1.008.768 1.706a2.206 2.206 0 0 1-.762 1.743c-.516.463-1.168.695-1.956.695h-1.743v2.389h1.828c.926 0 1.676.243 2.249.73.572.488.863 1.114.871 1.878.008.788-.282 1.432-.871 1.931-.59.5-1.367.746-2.334.738-.862 0-1.583-.203-2.164-.61-.58-.406-.9-.918-.956-1.535h-2.718c.049 1.3.593 2.389 1.633 3.266 1.04.877 2.433 1.316 4.18 1.316zm14.686 0c1.154 0 2.198-.197 3.132-.59.935-.395 1.678-.976 2.23-1.744.553-.767.821-1.655.805-2.663a4.164 4.164 0 0 0-.365-1.706c-.236-.512-.537-.92-.902-1.225a4.809 4.809 0 0 0-1.146-.719 3.957 3.957 0 0 0-1.182-.323v-.158a3.07 3.07 0 0 0 1.011-.36c.35-.19.683-.44 1-.75.317-.308.575-.704.774-1.188a3.92 3.92 0 0 0 .286-1.566c-.024-1.259-.542-2.295-1.554-3.107-1.011-.813-2.346-1.215-4.003-1.207-1.699.008-3.04.443-4.022 1.304-.983.861-1.495 1.942-1.536 3.242h2.754c.041-.593.313-1.099.817-1.517.504-.419 1.146-.628 1.926-.628.788 0 1.438.22 1.95.658.512.439.767 1.008.767 1.706a2.206 2.206 0 0 1-.761 1.743c-.516.463-1.168.695-1.956.695h-1.743v2.389h1.828c.926 0 1.676.243 2.249.73.572.488.863 1.114.871 1.878.008.788-.282 1.432-.871 1.931-.59.5-1.367.746-2.334.738-.862 0-1.583-.203-2.164-.61-.58-.406-.9-.918-.956-1.535H25.21c.049 1.3.593 2.389 1.633 3.266 1.04.877 2.433 1.316 4.18 1.316zm11.53-8.665c1.097 0 1.962-.392 2.596-1.176.633-.784.95-1.75.95-2.895v-.353c0-1.178-.317-2.151-.95-2.919-.634-.768-1.487-1.152-2.56-1.152-1.072 0-1.93.384-2.571 1.152-.642.768-.963 1.733-.963 2.895v.353c0 1.186.313 2.165.938 2.937.626.772 1.479 1.158 2.56 1.158zm-.39 8.324l6.203-8.141 6.557-8.495h-2.255l-6.13 8.044-6.63 8.592h2.255zm.414-10.043c-.504 0-.898-.223-1.182-.67-.285-.447-.427-1.056-.427-1.828v-.122c0-.747.14-1.338.42-1.773.281-.435.681-.652 1.201-.652.504 0 .896.217 1.176.652.28.435.42 1.034.42 1.798v.121c0 .764-.143 1.367-.432 1.81-.288.443-.68.664-1.176.664zm9.738 10.214c1.097 0 1.962-.392 2.596-1.176.634-.785.95-1.75.95-2.895v-.366c0-1.178-.314-2.149-.944-2.912-.63-.764-1.485-1.146-2.566-1.146-1.072 0-1.927.382-2.565 1.146-.638.763-.957 1.726-.957 2.888v.366c0 1.186.313 2.165.939 2.937.625.772 1.474 1.158 2.547 1.158zM52.339 25c-.504 0-.898-.221-1.182-.664-.284-.443-.427-1.05-.427-1.822v-.122c0-.748.143-1.34.427-1.78.284-.438.683-.658 1.194-.658.504 0 .896.218 1.176.652.28.435.421 1.038.421 1.81v.122c0 .764-.144 1.365-.433 1.804-.288.439-.68.658-1.176.658z" fill="#000" fill-rule="nonzero"></path></g><g transform="translate(23.520012, 126.600002)"><rect stroke="#000" stroke-width="3.12" fill="#FFF" x="1.56" y="1.56" width="62.4" height="34.32" rx="4.68"></rect><path d="M16.514 26.877c1.763 0 3.203-.516 4.32-1.548 1.118-1.032 1.676-2.45 1.676-4.253 0-.845-.148-1.613-.445-2.304-.296-.69-.69-1.251-1.182-1.682a5.44 5.44 0 0 0-3.59-1.34c-1.063 0-1.943.23-2.638.688-.694.46-1.18 1.018-1.456 1.676h-.17c-.025-1.852.298-3.323.968-4.412.67-1.089 1.566-1.633 2.688-1.633.73 0 1.322.163 1.773.488.45.325.741.698.871 1.12h2.84a3.499 3.499 0 0 0-.28-1.157 4.135 4.135 0 0 0-.701-1.097 5.023 5.023 0 0 0-1.085-.926 5.396 5.396 0 0 0-1.499-.64 7.086 7.086 0 0 0-1.87-.238c-2.032 0-3.63.766-4.796 2.298-1.166 1.531-1.75 3.8-1.75 6.806 0 2.3.415 4.132 1.244 5.497 1.089 1.771 2.783 2.657 5.082 2.657zm.012-2.438c-.894 0-1.639-.29-2.236-.871-.597-.581-.896-1.367-.896-2.358 0-.918.293-1.67.878-2.255s1.34-.877 2.266-.877c.87 0 1.607.276 2.212.828.606.553.908 1.325.908 2.316 0 1.032-.292 1.826-.877 2.383-.585.556-1.337.834-2.255.834zm15.308 2.438c1.763 0 3.203-.516 4.32-1.548 1.117-1.032 1.676-2.45 1.676-4.253 0-.845-.148-1.613-.445-2.304-.296-.69-.69-1.251-1.182-1.682a5.44 5.44 0 0 0-3.59-1.34c-1.064 0-1.943.23-2.638.688-.695.46-1.18 1.018-1.456 1.676h-.17c-.025-1.852.298-3.323.968-4.412.67-1.089 1.566-1.633 2.687-1.633.732 0 1.323.163 1.774.488.45.325.741.698.871 1.12h2.84a3.499 3.499 0 0 0-.28-1.157 4.135 4.135 0 0 0-.701-1.097 5.023 5.023 0 0 0-1.085-.926 5.396 5.396 0 0 0-1.5-.64 7.086 7.086 0 0 0-1.87-.238c-2.031 0-3.63.766-4.796 2.298-1.166 1.531-1.749 3.8-1.749 6.806 0 2.3.415 4.132 1.244 5.497 1.088 1.771 2.782 2.657 5.082 2.657zm.012-2.438c-.894 0-1.64-.29-2.236-.871-.598-.581-.896-1.367-.896-2.358 0-.918.292-1.67.877-2.255s1.34-.877 2.267-.877c.87 0 1.607.276 2.212.828.605.553.908 1.325.908 2.316 0 1.032-.292 1.826-.877 2.383-.585.556-1.337.834-2.255.834zm11.359-6.203c1.097 0 1.962-.392 2.596-1.176.633-.784.95-1.75.95-2.895v-.353c0-1.178-.317-2.151-.95-2.919-.634-.768-1.487-1.152-2.56-1.152-1.072 0-1.93.384-2.571 1.152-.642.768-.963 1.733-.963 2.895v.353c0 1.186.313 2.165.938 2.937.626.772 1.48 1.158 2.56 1.158zm-.39 8.324l6.203-8.141 6.557-8.495H53.32l-6.13 8.044-6.63 8.592h2.255zm.414-10.043c-.504 0-.898-.223-1.182-.67-.285-.447-.427-1.056-.427-1.828v-.122c0-.747.14-1.338.42-1.773.281-.435.681-.652 1.201-.652.504 0 .896.217 1.176.652.28.435.42 1.034.42 1.798v.121c0 .764-.143 1.367-.432 1.81-.288.443-.68.664-1.176.664zm9.738 10.214c1.097 0 1.962-.392 2.596-1.176.634-.785.95-1.75.95-2.895v-.366c0-1.178-.314-2.149-.944-2.912-.63-.764-1.485-1.146-2.566-1.146-1.072 0-1.927.382-2.565 1.146-.638.763-.957 1.726-.957 2.888v.366c0 1.186.313 2.165.939 2.937.625.772 1.474 1.158 2.547 1.158zM52.99 25c-.504 0-.898-.221-1.182-.664-.284-.443-.427-1.05-.427-1.822v-.122c0-.748.143-1.34.427-1.78.284-.438.683-.658 1.194-.658.504 0 .896.218 1.177.652.28.435.42 1.038.42 1.81v.122c0 .764-.144 1.365-.433 1.804-.288.439-.68.658-1.176.658z" fill="#000" fill-rule="nonzero"></path></g></g><path d="M12.175 646.868c.56 0 1.016-.16 1.365-.481.35-.32.524-.73.524-1.225 0-.504-.174-.916-.524-1.237-.35-.32-.804-.481-1.365-.481-.552 0-1 .16-1.34.481-.342.321-.512.733-.512 1.237 0 .496.172.904.518 1.225.345.32.79.481 1.334.481zm1.45 15.052v-12.907H10.75v12.907h2.877zm7.18 4.35v-6.312h.145a3.377 3.377 0 0 0 1.317 1.541c.609.395 1.393.592 2.352.592 1.503 0 2.695-.502 3.577-1.506.881-1.003 1.322-2.403 1.322-4.198v-1.865c0-1.787-.437-3.18-1.31-4.18-.873-1-2.05-1.5-3.528-1.5-.975 0-1.792.208-2.45.622-.658.415-1.11.947-1.353 1.597h-.146V649h-2.815v17.27h2.888zm2.936-6.58c-.877 0-1.586-.297-2.126-.89-.54-.593-.81-1.377-.81-2.352v-1.804c0-1.064.257-1.9.773-2.505s1.225-.907 2.127-.907c.902 0 1.606.312 2.114.938.508.626.762 1.527.762 2.706v1.182c0 1.194-.256 2.098-.768 2.711-.512.614-1.202.92-2.072.92zm14.016 2.315c.764 0 1.357-.044 1.78-.134v-2.23a9.94 9.94 0 0 1-1.073.049c-.723 0-1.23-.124-1.518-.372-.288-.248-.432-.7-.432-1.359v-6.52h2.888v-2.316h-2.888v-3.217H33.71v3.217H31.7v2.316h1.962v6.837c0 1.349.296 2.307.89 2.876.593.569 1.661.853 3.205.853zm8.482.11c.886 0 1.623-.173 2.212-.518.59-.345 1.038-.79 1.347-1.335h.134v1.658h2.73v-8.702c0-.788-.132-1.473-.396-2.054-.264-.58-.636-1.037-1.115-1.37a5.092 5.092 0 0 0-1.615-.738 7.769 7.769 0 0 0-1.993-.238c-1.592 0-2.813.34-3.662 1.018-.849.678-1.314 1.578-1.395 2.7h2.73c.219-.935.97-1.402 2.254-1.402.732 0 1.302.169 1.713.506.41.337.615.843.615 1.517v1.182h-3.23c-1.462 0-2.59.346-3.382 1.036-.792.69-1.188 1.625-1.188 2.803 0 1.195.39 2.15 1.17 2.864.78.715 1.804 1.073 3.071 1.073zm.902-2.218c-.625 0-1.158-.165-1.596-.494-.44-.329-.658-.798-.658-1.407 0-.537.184-.967.554-1.292.37-.325.92-.488 1.651-.488h2.706v1.377c0 .659-.256 1.207-.768 1.646-.512.438-1.141.658-1.889.658zm16.185 2.194c1.503 0 2.696-.502 3.577-1.506.882-1.003 1.323-2.403 1.323-4.198v-1.865c0-1.795-.437-3.191-1.31-4.186-.874-.996-2.054-1.493-3.541-1.493-1 0-1.826.213-2.48.64-.654.426-1.079.952-1.274 1.578h-.146v-6.654h-2.876v17.513h2.815v-1.962h.146c.252.625.701 1.137 1.347 1.535.646.399 1.452.598 2.42.598zm-.877-2.401c-.878 0-1.593-.303-2.145-.908-.553-.606-.829-1.396-.829-2.37v-1.72c0-1.072.264-1.917.792-2.534.528-.618 1.243-.926 2.145-.926.894 0 1.595.316 2.103.95.507.634.761 1.54.761 2.718v1.17c0 1.194-.254 2.096-.761 2.706-.508.609-1.197.914-2.066.914zm12.138 2.23v-17.513h-2.876v17.513h2.876zm9.239.22c.682 0 1.314-.082 1.895-.244.58-.163 1.066-.376 1.456-.64a5.07 5.07 0 0 0 1.018-.902c.288-.337.504-.672.646-1.006.142-.333.23-.662.262-.987h-2.779c-.09.415-.362.76-.817 1.036-.455.276-1.02.415-1.694.415-.893 0-1.602-.283-2.126-.848-.524-.564-.786-1.297-.786-2.2v-.62h8.336v-1.5c0-1.787-.516-3.211-1.548-4.272-1.032-1.06-2.372-1.59-4.022-1.59-1.641 0-2.986.52-4.034 1.56-1.048 1.04-1.572 2.474-1.572 4.302v1.633c0 1.853.514 3.293 1.542 4.32 1.027 1.028 2.435 1.542 4.223 1.542zm2.608-7.862H80.9v-.146c0-.918.254-1.66.761-2.224.508-.565 1.18-.847 2.017-.847.83 0 1.495.282 2 .847.503.565.755 1.306.755 2.224v.146zm10.457 7.861c1.673 0 2.992-.365 3.954-1.097.963-.73 1.445-1.75 1.445-3.059 0-.585-.104-1.09-.311-1.517a2.703 2.703 0 0 0-.908-1.054 5.282 5.282 0 0 0-1.31-.658 10.445 10.445 0 0 0-1.688-.402c-.081-.017-.24-.045-.476-.086a21.02 21.02 0 0 1-1-.189 2.995 2.995 0 0 1-.48-.134c-.11-.044-.248-.1-.415-.164a1.235 1.235 0 0 1-.377-.214 4.165 4.165 0 0 1-.269-.268.914.914 0 0 1-.2-.341 1.365 1.365 0 0 1-.062-.42c0-.512.203-.917.61-1.213.406-.297.946-.445 1.62-.445.7 0 1.25.163 1.652.488.402.325.624.71.664 1.157h2.584c0-1.153-.443-2.065-1.328-2.736-.886-.67-2.052-1.005-3.498-1.005a7.65 7.65 0 0 0-1.926.231 5.336 5.336 0 0 0-1.602.701c-.476.313-.85.733-1.122 1.262-.272.528-.408 1.133-.408 1.816 0 .487.075.924.225 1.31.15.386.346.705.585.956.24.252.553.476.939.67.386.196.768.35 1.146.464.377.114.826.223 1.346.329.081.016.2.036.354.06.438.082.81.161 1.115.238.305.078.6.175.883.293.285.118.498.278.64.481.142.204.214.447.214.732 0 .512-.204.924-.61 1.237-.406.312-1.024.469-1.852.469-1.48 0-2.292-.544-2.438-1.633h-2.803c0 1.154.46 2.066 1.377 2.736.918.67 2.161 1.005 3.73 1.005zm17.355-.219v-7.532c0-.902.27-1.625.81-2.17.54-.544 1.33-.816 2.37-.816.577 0 .976.033 1.195.098v-2.596a5.108 5.108 0 0 0-.95-.086c-.504 0-.961.071-1.372.214-.41.142-.743.33-1 .566a3.827 3.827 0 0 0-.615.707 3.103 3.103 0 0 0-.353.72h-.146v-2.012h-2.877v12.907h2.938zm11.346.195c1.032 0 1.871-.238 2.517-.713.646-.475 1.074-1.018 1.286-1.627h.158v2.145h2.828v-12.907h-2.889v7.874c0 .788-.276 1.444-.829 1.968-.552.524-1.235.786-2.047.786a3.24 3.24 0 0 1-.945-.128 2.394 2.394 0 0 1-.78-.408c-.24-.187-.426-.453-.56-.799-.134-.345-.201-.761-.201-1.249v-8.044h-2.877v8.788c0 1.462.386 2.547 1.158 3.254.772.707 1.832 1.06 3.181 1.06zm13.735-.195v-17.513h-2.876v17.513h2.876zm9.239.22c.682 0 1.314-.082 1.895-.244.58-.163 1.066-.376 1.456-.64a5.07 5.07 0 0 0 1.018-.902c.288-.337.504-.672.646-1.006.142-.333.23-.662.262-.987h-2.779c-.09.415-.362.76-.817 1.036-.455.276-1.02.415-1.694.415-.893 0-1.602-.283-2.126-.848-.524-.564-.786-1.297-.786-2.2v-.62h8.336v-1.5c0-1.787-.516-3.211-1.548-4.272-1.032-1.06-2.372-1.59-4.022-1.59-1.641 0-2.986.52-4.034 1.56-1.048 1.04-1.572 2.474-1.572 4.302v1.633c0 1.853.514 3.293 1.542 4.32 1.027 1.028 2.435 1.542 4.223 1.542zm2.608-7.862h-5.533v-.146c0-.918.254-1.66.761-2.224.508-.565 1.18-.847 2.017-.847.83 0 1.495.282 2 .847.503.565.755 1.306.755 2.224v.146zm16.782 7.983c1.154 0 2.198-.197 3.132-.59.934-.395 1.678-.976 2.23-1.744.553-.768.821-1.655.805-2.663a4.164 4.164 0 0 0-.366-1.706c-.235-.512-.536-.92-.902-1.225a4.809 4.809 0 0 0-1.145-.719 3.957 3.957 0 0 0-1.183-.323v-.158a3.07 3.07 0 0 0 1.012-.36c.35-.19.683-.44 1-.75.316-.308.574-.704.773-1.188a3.92 3.92 0 0 0 .287-1.566c-.025-1.259-.543-2.295-1.554-3.107-1.012-.813-2.346-1.215-4.004-1.207-1.698.008-3.039.443-4.022 1.304-.983.861-1.495 1.942-1.535 3.242h2.754c.04-.593.313-1.099.817-1.517.503-.419 1.145-.628 1.925-.628.788 0 1.438.22 1.95.658.512.439.768 1.008.768 1.706a2.206 2.206 0 0 1-.762 1.743c-.516.463-1.168.695-1.956.695h-1.743v2.389h1.829c.926 0 1.675.243 2.248.73.573.488.863 1.114.872 1.878.008.788-.283 1.432-.872 1.931-.589.5-1.367.746-2.334.738-.86 0-1.582-.203-2.163-.61-.58-.406-.9-.918-.957-1.535h-2.718c.05 1.3.594 2.388 1.634 3.266 1.04.877 2.433 1.316 4.18 1.316zM12.328 436.868c.56 0 1.015-.16 1.365-.481.349-.32.524-.73.524-1.225 0-.504-.175-.916-.524-1.237-.35-.32-.805-.481-1.365-.481-.553 0-1 .16-1.341.481-.341.321-.512.733-.512 1.237 0 .496.173.904.518 1.225.345.32.79.481 1.335.481zm1.45 15.052v-12.907h-2.876v12.907h2.876zm7.178 4.35v-6.312h.147a3.377 3.377 0 0 0 1.316 1.541c.61.395 1.393.592 2.352.592 1.503 0 2.696-.502 3.577-1.506.882-1.003 1.322-2.403 1.322-4.198v-1.865c0-1.787-.436-3.18-1.31-4.18-.873-1-2.05-1.5-3.528-1.5-.975 0-1.792.208-2.45.622-.658.415-1.109.947-1.352 1.597h-.147V439h-2.815v17.27h2.888zm2.938-6.58c-.878 0-1.587-.297-2.127-.89-.54-.593-.81-1.377-.81-2.352v-1.804c0-1.064.257-1.9.773-2.505s1.225-.907 2.127-.907c.902 0 1.607.312 2.115.938.507.626.761 1.527.761 2.706v1.182c0 1.194-.256 2.098-.768 2.712-.511.613-1.202.92-2.071.92zm14.015 2.315c.764 0 1.357-.044 1.78-.134v-2.23a9.94 9.94 0 0 1-1.073.049c-.723 0-1.229-.124-1.517-.372-.289-.248-.433-.7-.433-1.359v-6.52h2.889v-2.316h-2.889v-3.217h-2.803v3.217h-2.011v2.316h1.962v6.837c0 1.349.297 2.307.89 2.876s1.661.853 3.205.853zm8.483.11c.885 0 1.623-.173 2.212-.518.589-.345 1.038-.79 1.346-1.335h.135v1.658h2.73v-8.702c0-.788-.133-1.473-.397-2.054-.264-.58-.635-1.037-1.115-1.37a5.092 5.092 0 0 0-1.615-.738 7.769 7.769 0 0 0-1.992-.238c-1.593 0-2.814.34-3.663 1.018-.849.678-1.314 1.578-1.395 2.7h2.73c.22-.935.97-1.402 2.255-1.402.73 0 1.302.169 1.712.506.41.337.615.843.615 1.517v1.182h-3.23c-1.462 0-2.59.346-3.381 1.036-.792.69-1.189 1.625-1.189 2.803 0 1.195.39 2.15 1.17 2.864.78.715 1.804 1.073 3.072 1.073zm.902-2.218c-.626 0-1.158-.165-1.597-.494-.439-.329-.658-.798-.658-1.407 0-.537.185-.967.554-1.292.37-.325.92-.488 1.652-.488h2.705v1.377c0 .659-.255 1.207-.767 1.646-.512.438-1.142.658-1.89.658zm16.185 2.194c1.503 0 2.695-.502 3.577-1.506.881-1.003 1.322-2.403 1.322-4.198v-1.865c0-1.795-.437-3.19-1.31-4.186-.874-.996-2.054-1.493-3.54-1.493-1 0-1.827.213-2.48.64-.655.426-1.08.952-1.274 1.578h-.147v-6.654h-2.876v17.513h2.815v-1.962h.147c.252.625.7 1.137 1.346 1.535.646.399 1.453.598 2.42.598zm-.878-2.401c-.877 0-1.592-.303-2.145-.908-.552-.606-.829-1.396-.829-2.37v-1.72c0-1.072.264-1.917.793-2.534.528-.618 1.243-.926 2.145-.926.893 0 1.594.316 2.102.95.508.634.762 1.54.762 2.718v1.17c0 1.194-.254 2.096-.762 2.706-.508.609-1.197.914-2.066.914zm12.139 2.23v-17.513h-2.876v17.513h2.876zm9.238.22c.682 0 1.314-.082 1.895-.244.581-.163 1.067-.376 1.457-.64a5.07 5.07 0 0 0 1.017-.902c.289-.337.504-.672.646-1.006.142-.333.23-.662.262-.987h-2.779c-.089.415-.361.76-.816 1.036-.455.276-1.02.415-1.694.415-.894 0-1.603-.283-2.127-.848-.524-.564-.786-1.297-.786-2.2v-.62h8.336v-1.5c0-1.787-.516-3.211-1.548-4.272-1.031-1.06-2.372-1.59-4.021-1.59-1.642 0-2.986.52-4.035 1.56-1.048 1.04-1.572 2.474-1.572 4.302v1.633c0 1.853.514 3.293 1.542 4.32 1.028 1.028 2.435 1.542 4.223 1.542zm2.608-7.862h-5.533v-.146c0-.918.254-1.66.762-2.224.507-.565 1.18-.847 2.017-.847.828 0 1.495.282 1.998.847.504.565.756 1.306.756 2.224v.146zm10.457 7.861c1.674 0 2.992-.365 3.955-1.097.963-.73 1.444-1.75 1.444-3.059 0-.585-.104-1.09-.31-1.517a2.703 2.703 0 0 0-.909-1.054 5.282 5.282 0 0 0-1.31-.658 10.445 10.445 0 0 0-1.688-.402 22.3 22.3 0 0 0-.475-.086 21.01 21.01 0 0 1-1-.189 2.995 2.995 0 0 1-.48-.134c-.11-.044-.249-.1-.415-.164a1.235 1.235 0 0 1-.378-.214 4.164 4.164 0 0 1-.268-.268.914.914 0 0 1-.201-.34 1.365 1.365 0 0 1-.061-.421c0-.512.203-.916.61-1.213.405-.297.946-.445 1.62-.445.699 0 1.25.163 1.651.488.403.325.624.71.665 1.157h2.583c0-1.153-.442-2.065-1.328-2.736-.886-.67-2.052-1.005-3.498-1.005-.69 0-1.332.077-1.925.231a5.336 5.336 0 0 0-1.603.701c-.475.313-.85.733-1.121 1.262-.273.528-.409 1.133-.409 1.816 0 .487.075.924.226 1.31.15.386.345.705.585.956.24.252.552.476.938.67.386.196.768.35 1.146.464.378.114.827.223 1.347.329.08.016.199.036.353.06.439.082.81.161 1.115.238.305.078.6.175.884.293.284.118.497.278.64.481.142.204.213.447.213.732 0 .512-.203.924-.61 1.237-.406.313-1.023.469-1.852.469-1.479 0-2.291-.544-2.437-1.633h-2.804c0 1.154.46 2.066 1.378 2.736.918.67 2.16 1.005 3.729 1.005zm17.355-.219v-7.532c0-.902.27-1.625.81-2.17.54-.544 1.33-.816 2.37-.816.578 0 .976.033 1.195.098v-2.596a5.108 5.108 0 0 0-.95-.086 4.17 4.17 0 0 0-1.371.214c-.41.142-.744.33-1 .566a3.826 3.826 0 0 0-.615.707 3.103 3.103 0 0 0-.354.72h-.146v-2.012h-2.876v12.907h2.937zm11.347.195c1.031 0 1.87-.238 2.516-.713.646-.475 1.075-1.018 1.286-1.627h.158v2.145h2.828v-12.907h-2.888v7.874c0 .788-.277 1.444-.83 1.968-.552.524-1.234.786-2.047.786a3.24 3.24 0 0 1-.944-.128 2.394 2.394 0 0 1-.78-.408c-.24-.187-.427-.453-.56-.799-.135-.345-.202-.761-.202-1.249v-8.044h-2.876v8.788c0 1.462.386 2.547 1.158 3.254.771.707 1.832 1.06 3.18 1.06zm13.735-.195v-17.513h-2.876v17.513h2.876zm9.238.22c.682 0 1.314-.082 1.895-.244.581-.163 1.067-.376 1.457-.64a5.07 5.07 0 0 0 1.017-.902c.289-.337.504-.672.646-1.006.142-.333.23-.662.262-.987h-2.779c-.089.415-.361.76-.816 1.036-.455.276-1.02.415-1.694.415-.894 0-1.603-.283-2.127-.848-.524-.564-.786-1.297-.786-2.2v-.62h8.336v-1.5c0-1.787-.516-3.211-1.548-4.272-1.031-1.06-2.372-1.59-4.021-1.59-1.642 0-2.986.52-4.035 1.56-1.048 1.04-1.572 2.474-1.572 4.302v1.633c0 1.853.514 3.293 1.542 4.32 1.028 1.028 2.435 1.542 4.223 1.542zm2.608-7.862h-5.533v-.146c0-.918.254-1.66.762-2.224.507-.565 1.18-.847 2.017-.847.828 0 1.495.282 1.998.847.504.565.756 1.306.756 2.224v.146zm22.742 7.642v-2.51h-7.178v-.147l3.997-4.387c.049-.057.126-.139.232-.244.398-.43.737-.817 1.017-1.158.28-.341.555-.717.823-1.127.268-.41.471-.845.61-1.304.137-.46.206-.94.206-1.445 0-1.34-.507-2.45-1.523-3.327-1.016-.877-2.348-1.316-3.997-1.316-.902 0-1.715.144-2.438.433-.723.288-1.306.674-1.749 1.157a5.239 5.239 0 0 0-1.018 1.615 5.005 5.005 0 0 0-.353 1.865v.146h2.815l-.006-.073a1.005 1.005 0 0 1-.006-.085c0-.715.244-1.325.731-1.828.488-.504 1.142-.756 1.963-.756.763 0 1.395.228 1.895.683.5.455.75 1.04.75 1.755 0 .438-.106.883-.318 1.334-.21.451-.424.81-.64 1.079a21.13 21.13 0 0 1-.92 1.048l-6.142 6.69v1.902h11.249zm-160.4-225.052c.56 0 1.016-.16 1.365-.481.35-.32.524-.73.524-1.225 0-.504-.174-.916-.524-1.237-.35-.32-.804-.481-1.365-.481-.552 0-1 .16-1.34.481-.342.321-.512.733-.512 1.237 0 .496.172.904.518 1.225.345.321.79.481 1.334.481zm1.45 15.052v-12.907h-2.876v12.907h2.877zm7.179 4.35v-6.312h.146a3.377 3.377 0 0 0 1.317 1.542c.609.394 1.393.59 2.352.59 1.503 0 2.695-.501 3.577-1.505.881-1.003 1.322-2.403 1.322-4.198v-1.865c0-1.787-.437-3.18-1.31-4.18-.874-1-2.05-1.5-3.528-1.5-.975 0-1.792.208-2.45.622-.658.415-1.11.947-1.353 1.597h-.146V229h-2.815v17.27h2.888zm2.937-6.58c-.877 0-1.586-.297-2.127-.89-.54-.593-.81-1.377-.81-2.352v-1.804c0-1.064.258-1.9.774-2.504.516-.606 1.225-.908 2.127-.908.902 0 1.606.312 2.114.938.508.626.762 1.527.762 2.706v1.182c0 1.194-.256 2.098-.768 2.712-.512.613-1.202.92-2.072.92zm14.016 2.315c.764 0 1.357-.044 1.78-.134v-2.23a9.94 9.94 0 0 1-1.073.049c-.723 0-1.23-.124-1.518-.372-.288-.248-.432-.7-.432-1.359v-6.52h2.888v-2.316h-2.888v-3.217h-2.803v3.217h-2.011v2.316h1.962v6.837c0 1.349.296 2.307.89 2.876.593.569 1.661.853 3.205.853zm8.482.11c.886 0 1.623-.173 2.212-.518.59-.345 1.038-.79 1.347-1.335h.134v1.658h2.73v-8.702c0-.788-.132-1.473-.396-2.053a3.288 3.288 0 0 0-1.115-1.372 5.092 5.092 0 0 0-1.615-.737 7.769 7.769 0 0 0-1.993-.238c-1.592 0-2.813.34-3.662 1.018-.849.679-1.314 1.578-1.395 2.7h2.73c.219-.935.97-1.402 2.254-1.402.732 0 1.302.169 1.713.506.41.337.615.843.615 1.517v1.182h-3.23c-1.462 0-2.59.346-3.382 1.036-.792.69-1.188 1.625-1.188 2.803 0 1.195.39 2.15 1.17 2.864.78.715 1.804 1.073 3.071 1.073zm.902-2.218c-.625 0-1.158-.165-1.596-.494-.44-.329-.658-.798-.658-1.407 0-.537.184-.967.554-1.292.37-.325.92-.488 1.651-.488h2.706v1.377c0 .659-.256 1.207-.768 1.646-.512.438-1.141.658-1.889.658zm16.185 2.194c1.503 0 2.696-.502 3.577-1.506.882-1.003 1.323-2.403 1.323-4.198v-1.865c0-1.795-.437-3.19-1.31-4.186-.874-.996-2.054-1.493-3.541-1.493-1 0-1.826.213-2.48.64-.654.426-1.079.952-1.274 1.578h-.146v-6.654h-2.876v17.513h2.815v-1.962h.146c.252.625.701 1.137 1.347 1.535.646.399 1.452.598 2.42.598zm-.877-2.401c-.878 0-1.593-.303-2.145-.908-.553-.606-.829-1.396-.829-2.37v-1.72c0-1.072.264-1.917.792-2.534.528-.618 1.243-.926 2.145-.926.894 0 1.595.316 2.102.95.508.634.762 1.54.762 2.718v1.17c0 1.194-.254 2.096-.762 2.706-.507.609-1.196.914-2.065.914zm12.138 2.23v-17.513h-2.876v17.513h2.876zm9.239.22c.682 0 1.314-.082 1.895-.244.58-.163 1.066-.376 1.456-.64a5.07 5.07 0 0 0 1.018-.902c.288-.337.504-.672.646-1.006.142-.333.23-.662.262-.987h-2.779c-.09.415-.362.76-.817 1.036-.455.276-1.02.415-1.694.415-.893 0-1.602-.283-2.126-.847-.524-.565-.786-1.298-.786-2.2v-.622h8.336v-1.499c0-1.787-.516-3.211-1.548-4.272-1.032-1.06-2.372-1.59-4.022-1.59-1.641 0-2.986.52-4.034 1.56-1.048 1.04-1.572 2.474-1.572 4.302v1.633c0 1.853.514 3.293 1.542 4.32 1.027 1.028 2.435 1.542 4.223 1.542zm2.608-7.862h-5.533v-.146c0-.918.253-1.66.761-2.224.508-.565 1.18-.847 2.017-.847.83 0 1.495.282 2 .847.503.565.755 1.306.755 2.224v.146zm10.457 7.861c1.673 0 2.992-.365 3.954-1.097.963-.73 1.445-1.75 1.445-3.059 0-.585-.104-1.09-.311-1.517a2.703 2.703 0 0 0-.908-1.054 5.282 5.282 0 0 0-1.31-.658 10.445 10.445 0 0 0-1.688-.402c-.081-.017-.24-.045-.476-.086a21.02 21.02 0 0 1-1-.189 2.995 2.995 0 0 1-.48-.134c-.11-.044-.248-.1-.415-.164a1.235 1.235 0 0 1-.378-.214 4.165 4.165 0 0 1-.268-.268.914.914 0 0 1-.2-.34 1.365 1.365 0 0 1-.062-.421c0-.512.203-.916.61-1.213.406-.297.946-.445 1.62-.445.7 0 1.25.163 1.652.488.402.325.624.71.664 1.157h2.584c0-1.153-.443-2.065-1.328-2.736-.886-.67-2.052-1.005-3.498-1.005a7.65 7.65 0 0 0-1.926.231 5.336 5.336 0 0 0-1.603.701 3.262 3.262 0 0 0-1.12 1.262c-.273.528-.409 1.133-.409 1.816 0 .487.075.924.225 1.31.15.386.346.705.585.956.24.252.553.476.939.67.386.196.768.35 1.145.464.378.114.827.223 1.347.329.081.016.2.036.354.06.438.082.81.161 1.115.239.304.077.599.174.883.292.285.118.498.278.64.481.142.204.214.447.214.732 0 .512-.204.924-.61 1.237-.406.313-1.024.469-1.852.469-1.48 0-2.292-.544-2.438-1.633h-2.803c0 1.154.46 2.066 1.377 2.736.918.67 2.161 1.005 3.73 1.005zm17.355-.219v-7.532c0-.902.27-1.625.81-2.17.54-.544 1.33-.816 2.37-.816.577 0 .976.033 1.195.098v-2.596a5.108 5.108 0 0 0-.95-.086c-.504 0-.962.072-1.372.214-.41.142-.743.33-1 .566a3.826 3.826 0 0 0-.615.707 3.103 3.103 0 0 0-.353.72h-.146v-2.012H112.8v12.907h2.938zm11.346.195c1.032 0 1.87-.238 2.517-.713.646-.475 1.074-1.018 1.286-1.627h.158v2.145h2.828v-12.907h-2.889v7.874c0 .788-.276 1.444-.829 1.968-.552.524-1.235.786-2.047.786a3.24 3.24 0 0 1-.945-.128 2.394 2.394 0 0 1-.78-.408c-.24-.187-.426-.453-.56-.799-.134-.345-.201-.761-.201-1.249v-8.044h-2.877v8.788c0 1.462.386 2.547 1.158 3.254.772.707 1.832 1.06 3.181 1.06zm13.735-.195v-17.513h-2.876v17.513h2.876zm9.239.22c.682 0 1.314-.082 1.895-.244.58-.163 1.066-.376 1.456-.64a5.07 5.07 0 0 0 1.018-.902c.288-.337.504-.672.646-1.006.142-.333.23-.662.262-.987h-2.779c-.09.415-.362.76-.817 1.036-.455.276-1.02.415-1.694.415-.893 0-1.602-.283-2.126-.847-.524-.565-.786-1.298-.786-2.2v-.622h8.336v-1.499c0-1.787-.516-3.211-1.548-4.272-1.032-1.06-2.372-1.59-4.022-1.59-1.641 0-2.986.52-4.034 1.56-1.048 1.04-1.572 2.474-1.572 4.302v1.633c0 1.853.514 3.293 1.542 4.32 1.027 1.028 2.435 1.542 4.223 1.542zm2.608-7.862h-5.533v-.146c0-.918.253-1.66.761-2.224.508-.565 1.18-.847 2.017-.847.83 0 1.495.282 2 .847.503.565.755 1.306.755 2.224v.146zm18.342 7.642v-16.636h-2.925l-3.937 2.852v2.84l3.803-2.706h.134v13.65h2.925z" fill="#000" fill-rule="nonzero"></path><g transform="translate(262.799984, 387.399971)"><g transform="translate(0.120012, 0.240003)" stroke="#000"><path d="M55.409 107.104L3.714 55.409 55.409 3.714l51.695 51.695-51.695 51.695z" stroke-width="4.68" fill="#FDF2D0"></path><path d="M29.619 54.6v-4.471h2.81l2.068 4.471h1.49l-2.271-4.74c.271-.098.522-.227.753-.387.23-.16.45-.362.656-.607.206-.244.369-.547.488-.908.12-.36.18-.759.18-1.193 0-.44-.071-.853-.212-1.238a3.202 3.202 0 0 0-.627-1.043c-.277-.309-.645-.553-1.104-.733-.459-.179-.984-.268-1.576-.268h0-3.95V54.6h1.295zm2.427-5.644h-2.427v-4.3h2.492c.733 0 1.307.188 1.723.566.415.377.623.921.623 1.633 0 .673-.204 1.191-.611 1.555-.407.364-1.007.546-1.8.546h0zm9.66 5.782c1.058 0 1.927-.332 2.606-.997.678-.665 1.018-1.579 1.018-2.74h0v-1.353c0-1.156-.34-2.067-1.018-2.732-.68-.666-1.548-.998-2.607-.998-1.053 0-1.922.34-2.606 1.022-.684.681-1.026 1.584-1.026 2.708h0V51c0 1.173.335 2.09 1.006 2.749.67.66 1.546.99 2.626.99zm0-1.14c-.74 0-1.317-.245-1.735-.737-.419-.491-.628-1.158-.628-2h0v-1.074c0-.82.216-1.483.648-1.988.432-.505 1.003-.757 1.714-.757.712 0 1.279.252 1.703.757.423.5.635 1.162.635 1.988h0v1.075c0 .847-.207 1.515-.62 2.003-.412.489-.985.733-1.718.733zM49.23 54.6V42.896h-1.279V54.6h1.279zm4.373 0V42.896h-1.278V54.6h1.278zm9.635.081c.457 0 .785-.021.986-.065h0V53.55a5.152 5.152 0 0 1-.66.041c-.548 0-.921-.088-1.12-.265-.198-.176-.297-.525-.297-1.046h0v-5.131h1.939v-1.092h-1.939v-2.15H60.87v2.15h-1.303v1.092h1.303v5.066c0 .45.03.817.09 1.1.06.282.174.533.342.753.168.22.41.377.725.472.315.095.72.142 1.213.142zm4.643-.081v-4.789c0-.809.203-1.476.61-2 .408-.523.989-.785 1.744-.785.619 0 1.103.184 1.453.553.35.37.526.894.526 1.572h0V54.6h1.287v-5.848c0-.917-.265-1.62-.795-2.105-.529-.486-1.225-.73-2.089-.73-.423 0-.806.06-1.148.18-.342.12-.612.273-.81.46a3.115 3.115 0 0 0-.469.542 1.881 1.881 0 0 0-.244.521h0-.065v-4.724h-1.279V54.6h1.279zm11.736.138c.494 0 .948-.07 1.36-.211.413-.141.747-.323 1.002-.546.255-.223.457-.453.607-.692.15-.24.243-.475.28-.709h0-1.36c-.086.282-.3.523-.643.72-.342.2-.76.298-1.254.298-.728 0-1.29-.233-1.69-.7-.4-.467-.599-1.062-.599-1.784h0v-.432h5.669V49.64c0-1.119-.323-2.019-.97-2.7-.645-.681-1.482-1.022-2.508-1.022s-1.862.34-2.508 1.022c-.646.681-.97 1.581-.97 2.7h0v1.385c0 1.134.317 2.037.95 2.708.632.67 1.51 1.005 2.634 1.005zm2.085-5.05H77.32v-.154c0-.75.201-1.352.603-1.808.402-.456.931-.684 1.588-.684s1.187.228 1.588.684c.402.456.603 1.059.603 1.808h0v.155zM43.607 74.73c.695 0 1.273-.15 1.735-.452.461-.301.746-.647.855-1.038h.065v1.36h1.214V62.896h-1.279v4.406h-.065c-.158-.39-.447-.72-.868-.99-.42-.268-.96-.402-1.616-.402-1.016 0-1.827.324-2.435.973-.609.649-.913 1.5-.913 2.553h0v1.776c0 1.07.303 1.923.909 2.561.605.638 1.404.957 2.398.957zm.26-1.124c-.71 0-1.27-.239-1.677-.716-.407-.478-.61-1.149-.61-2.012h0v-1.116c0-.852.199-1.517.598-1.995.399-.478.946-.717 1.64-.717.696 0 1.266.225 1.711.676.445.45.668 1.02.668 1.71h0v1.597c0 .787-.21 1.413-.631 1.877-.421.464-.987.696-1.698.696zm7.477-9.26a.95.95 0 0 0 .7-.273.916.916 0 0 0 .278-.68.936.936 0 0 0-.277-.696.957.957 0 0 0-.7-.273.92.92 0 0 0-.677.277.94.94 0 0 0-.277.692c0 .272.093.498.277.68.185.182.41.273.676.273zm.652 10.254v-8.544h-1.279V74.6h1.279zm6.296.138a4.55 4.55 0 0 0 1.441-.211c.424-.141.763-.327 1.018-.558.256-.231.451-.485.587-.762.135-.277.211-.564.228-.863h0-1.279c-.206.798-.866 1.197-1.979 1.197-.695 0-1.243-.22-1.645-.66-.402-.44-.603-1.04-.603-1.8h0v-1.457c0-.793.193-1.422.578-1.886.386-.464.942-.696 1.67-.696.331 0 .623.047.875.142.253.095.447.22.583.375.136.155.239.3.31.436.07.136.119.277.146.423H61.5a2.203 2.203 0 0 0-.228-.892 2.812 2.812 0 0 0-.595-.802c-.255-.244-.59-.44-1.006-.586a4.125 4.125 0 0 0-1.38-.22c-1.075 0-1.928.331-2.558.994-.63.662-.944 1.547-.944 2.655h0v1.498c0 1.124.314 2.017.944 2.68.63.662 1.483.993 2.558.993zm8.845 0c.494 0 .947-.07 1.36-.211.412-.141.746-.323 1.002-.546.255-.223.457-.453.606-.692.15-.24.243-.475.281-.709h0-1.36c-.087.282-.301.523-.643.72-.342.2-.76.298-1.255.298-.727 0-1.29-.233-1.69-.7-.399-.467-.598-1.062-.598-1.784h0v-.432h5.668V69.64c0-1.119-.323-2.019-.969-2.7-.646-.681-1.482-1.022-2.508-1.022s-1.863.34-2.509 1.022c-.646.681-.969 1.581-.969 2.7h0v1.385c0 1.134.316 2.037.949 2.708.632.67 1.51 1.005 2.635 1.005zm2.085-5.05H64.84v-.154c0-.75.2-1.352.603-1.808.401-.456.93-.684 1.588-.684.657 0 1.186.228 1.588.684.402.456.603 1.059.603 1.808h0v.155z" stroke-width="1.56" fill="#000" fill-rule="nonzero"></path></g><g transform="translate(126.480011, 37.680003)"><rect stroke="#000" stroke-width="3.12" fill="#FFF" x="1.56" y="1.56" width="62.4" height="34.32" rx="4.68"></rect><path d="M16.203 26.89c1.837 0 3.321-.54 4.455-1.616 1.133-1.076 1.7-2.496 1.7-4.26 0-1.104-.248-2.073-.743-2.906-.496-.833-1.142-1.454-1.938-1.865-.797-.41-1.682-.615-2.657-.615-.837 0-1.548.15-2.133.45-.585.301-.987.622-1.207.964h-.146l.39-4.644h7.532V9.912h-9.92l-.707 9.677h2.547c.235-.423.601-.796 1.097-1.121.495-.326 1.1-.488 1.816-.488.885 0 1.639.288 2.26.865.622.577.933 1.333.933 2.267 0 1.008-.317 1.814-.95 2.42-.635.605-1.378.907-2.231.907-.764 0-1.438-.176-2.023-.53-.585-.353-.943-.859-1.073-1.517h-2.73c.065 1.3.624 2.374 1.676 3.223 1.052.85 2.403 1.274 4.052 1.274zm15.235 0c1.324 0 2.46-.363 3.406-1.086.947-.723 1.651-1.7 2.115-2.93.463-1.232.694-2.656.694-4.272v-.707c0-2.527-.54-4.542-1.62-6.045-1.081-1.503-2.597-2.255-4.547-2.255-1.291 0-2.41.347-3.357 1.042-.947.695-1.662 1.666-2.145 2.913-.484 1.247-.725 2.695-.725 4.345v.707c0 1.649.237 3.093.713 4.332.475 1.24 1.18 2.208 2.114 2.907.934.699 2.052 1.048 3.352 1.048zm.024-2.524c-1 0-1.792-.506-2.377-1.517-.585-1.012-.877-2.436-.877-4.272v-.67c0-1.836.292-3.26.877-4.272.585-1.011 1.378-1.517 2.377-1.517 1 0 1.792.506 2.377 1.517.585 1.012.877 2.436.877 4.272v.67c0 1.836-.292 3.26-.877 4.272-.585 1.011-1.378 1.517-2.377 1.517zm11.651-6.13c1.097 0 1.962-.392 2.596-1.176.634-.784.95-1.75.95-2.895v-.353c0-1.178-.316-2.151-.95-2.919-.634-.768-1.487-1.152-2.56-1.152-1.072 0-1.929.384-2.57 1.152-.643.768-.964 1.733-.964 2.895v.353c0 1.186.313 2.165.939 2.937.626.772 1.479 1.158 2.56 1.158zm-.39 8.324l6.204-8.141 6.557-8.495h-2.255l-6.13 8.044-6.63 8.592h2.254zm.415-10.043c-.504 0-.898-.223-1.183-.67-.284-.447-.426-1.056-.426-1.828v-.122c0-.747.14-1.338.42-1.773.28-.435.68-.652 1.2-.652.505 0 .897.217 1.177.652.28.435.42 1.034.42 1.798v.121c0 .764-.144 1.367-.432 1.81-.289.443-.68.664-1.176.664zm9.737 10.214c1.097 0 1.963-.392 2.596-1.176.634-.785.951-1.75.951-2.895v-.366c0-1.178-.315-2.149-.945-2.912-.63-.764-1.484-1.146-2.565-1.146-1.072 0-1.928.382-2.565 1.146-.638.763-.957 1.726-.957 2.888v.366c0 1.186.313 2.165.938 2.937.626.772 1.475 1.158 2.547 1.158zM52.9 25c-.504 0-.898-.221-1.182-.664-.285-.443-.427-1.05-.427-1.822v-.122c0-.748.142-1.34.427-1.78.284-.438.682-.658 1.194-.658.504 0 .896.218 1.176.652.28.435.42 1.038.42 1.81v.122c0 .764-.144 1.365-.432 1.804-.289.439-.68.658-1.176.658z" fill="#000" fill-rule="nonzero"></path></g><g transform="translate(23.520012, 126.600002)"><rect stroke="#000" stroke-width="3.12" fill="#FFF" x="1.56" y="1.56" width="62.4" height="34.32" rx="4.68"></rect><path d="M16.203 26.89c1.837 0 3.321-.54 4.455-1.616 1.133-1.076 1.7-2.496 1.7-4.26 0-1.104-.248-2.073-.743-2.906-.496-.833-1.142-1.454-1.938-1.865-.797-.41-1.682-.615-2.657-.615-.837 0-1.548.15-2.133.45-.585.301-.987.622-1.207.964h-.146l.39-4.644h7.532V9.912h-9.92l-.707 9.677h2.547c.235-.423.601-.796 1.097-1.121.495-.326 1.1-.488 1.816-.488.885 0 1.639.288 2.26.865.622.577.933 1.333.933 2.267 0 1.008-.317 1.814-.95 2.42-.635.605-1.378.907-2.231.907-.764 0-1.438-.176-2.023-.53-.585-.353-.943-.859-1.073-1.517h-2.73c.065 1.3.624 2.374 1.676 3.223 1.052.85 2.403 1.274 4.052 1.274zm15.235 0c1.324 0 2.46-.363 3.406-1.086.947-.723 1.651-1.7 2.115-2.93.463-1.232.694-2.656.694-4.272v-.707c0-2.527-.54-4.542-1.62-6.045-1.081-1.503-2.597-2.255-4.547-2.255-1.291 0-2.41.347-3.357 1.042-.947.695-1.662 1.666-2.145 2.913-.484 1.247-.725 2.695-.725 4.345v.707c0 1.649.237 3.093.713 4.332.475 1.24 1.18 2.208 2.114 2.907.934.699 2.052 1.048 3.352 1.048zm.024-2.524c-1 0-1.792-.506-2.377-1.517-.585-1.012-.877-2.436-.877-4.272v-.67c0-1.836.292-3.26.877-4.272.585-1.011 1.378-1.517 2.377-1.517 1 0 1.792.506 2.377 1.517.585 1.012.877 2.436.877 4.272v.67c0 1.836-.292 3.26-.877 4.272-.585 1.011-1.378 1.517-2.377 1.517zm11.651-6.13c1.097 0 1.962-.392 2.596-1.176.634-.784.95-1.75.95-2.895v-.353c0-1.178-.316-2.151-.95-2.919-.634-.768-1.487-1.152-2.56-1.152-1.072 0-1.929.384-2.57 1.152-.643.768-.964 1.733-.964 2.895v.353c0 1.186.313 2.165.939 2.937.626.772 1.479 1.158 2.56 1.158zm-.39 8.324l6.204-8.141 6.557-8.495h-2.255l-6.13 8.044-6.63 8.592h2.254zm.415-10.043c-.504 0-.898-.223-1.183-.67-.284-.447-.426-1.056-.426-1.828v-.122c0-.747.14-1.338.42-1.773.28-.435.68-.652 1.2-.652.505 0 .897.217 1.177.652.28.435.42 1.034.42 1.798v.121c0 .764-.144 1.367-.432 1.81-.289.443-.68.664-1.176.664zm9.737 10.214c1.097 0 1.963-.392 2.596-1.176.634-.785.951-1.75.951-2.895v-.366c0-1.178-.315-2.149-.945-2.912-.63-.764-1.484-1.146-2.565-1.146-1.072 0-1.928.382-2.565 1.146-.638.763-.957 1.726-.957 2.888v.366c0 1.186.313 2.165.938 2.937.626.772 1.475 1.158 2.547 1.158zM52.9 25c-.504 0-.898-.221-1.182-.664-.285-.443-.427-1.05-.427-1.822v-.122c0-.748.142-1.34.427-1.78.284-.438.682-.658 1.194-.658.504 0 .896.218 1.176.652.28.435.42 1.038.42 1.81v.122c0 .764-.144 1.365-.432 1.804-.289.439-.68.658-1.176.658z" fill="#000" fill-rule="nonzero"></path></g></g><g transform="translate(220.799987, 603.399958)"><rect stroke="#000" stroke-width="4.68" fill="#EFEFF4" x="2.34" y="2.34" width="188.52" height="93.72" rx="4.68"></rect><path d="M39.471 58.33c.934 0 1.784-.125 2.547-.373.764-.247 1.388-.572 1.871-.975.483-.402.89-.865 1.219-1.389a5.69 5.69 0 0 0 .7-1.572 6.17 6.17 0 0 0 .208-1.578v-3.34h-6.508v2.34h3.68v1.158c0 .894-.341 1.64-1.023 2.236-.683.598-1.573.896-2.67.896-1.324 0-2.317-.447-2.98-1.34-.662-.894-.993-2.125-.993-3.693v-2.12c0-1.65.366-2.89 1.097-3.718.731-.829 1.69-1.243 2.876-1.243.96 0 1.768.262 2.426.786.658.524 1.048 1.27 1.17 2.236h2.888a6.414 6.414 0 0 0-.323-1.694 5.384 5.384 0 0 0-.81-1.53 5.872 5.872 0 0 0-1.274-1.242c-.491-.354-1.082-.632-1.773-.835a7.962 7.962 0 0 0-2.255-.305c-2.153 0-3.855.674-5.106 2.023-1.252 1.349-1.877 3.181-1.877 5.497v2.157c0 1.13.14 2.153.42 3.071a6.96 6.96 0 0 0 1.256 2.401c.556.683 1.28 1.21 2.169 1.584.89.374 1.911.561 3.065.561zm15.466-.11c1.747 0 3.148-.523 4.205-1.567 1.056-1.044 1.584-2.5 1.584-4.369v-1.536c0-1.803-.532-3.235-1.596-4.296-1.065-1.06-2.462-1.59-4.193-1.59-1.722 0-3.12.54-4.192 1.62-1.073 1.081-1.61 2.507-1.61 4.279v1.535c0 1.877.527 3.334 1.58 4.37 1.051 1.035 2.459 1.553 4.222 1.553zm0-2.353c-.934 0-1.651-.337-2.151-1.011-.5-.675-.75-1.548-.75-2.62v-1.39c0-1.064.256-1.938.768-2.62.512-.683 1.223-1.024 2.133-1.024.91 0 1.617.341 2.12 1.024.504.674.756 1.547.756 2.62v1.39c0 1.072-.246 1.945-.737 2.62-.492.674-1.205 1.011-2.139 1.011zm19.695 2.218c.764 0 1.357-.044 1.78-.134v-2.23a9.94 9.94 0 0 1-1.073.049c-.723 0-1.229-.124-1.517-.372-.289-.248-.433-.7-.433-1.359v-6.52h2.888v-2.316H73.39v-3.217h-2.803v3.217h-2.011v2.316h1.962v6.837c0 1.349.297 2.307.89 2.876s1.661.853 3.205.853zm10.043.134c1.746 0 3.148-.522 4.204-1.566 1.056-1.044 1.585-2.5 1.585-4.369v-1.536c0-1.803-.533-3.235-1.597-4.296-1.064-1.06-2.462-1.59-4.192-1.59-1.723 0-3.12.54-4.193 1.62-1.072 1.081-1.609 2.507-1.609 4.279v1.535c0 1.877.526 3.334 1.579 4.37 1.052 1.035 2.46 1.553 4.223 1.553zm0-2.352c-.935 0-1.652-.337-2.152-1.011-.5-.675-.75-1.548-.75-2.62v-1.39c0-1.064.257-1.938.769-2.62.512-.683 1.223-1.024 2.133-1.024.91 0 1.616.341 2.12 1.024.504.674.756 1.547.756 2.62v1.39c0 1.072-.246 1.945-.738 2.62-.491.674-1.204 1.011-2.138 1.011zM102.54 58v-5.74h3.51c1.699 0 3.047-.504 4.047-1.512.999-1.007 1.499-2.311 1.499-3.912 0-1.6-.498-2.913-1.493-3.936-.996-1.024-2.342-1.536-4.04-1.536h-6.472V58h2.95zm2.121-8.166h-2.133v-6.008h3.047c.95 0 1.69.262 2.218.786s.792 1.266.792 2.224c0 1.122-.325 1.901-.975 2.34-.65.439-1.633.658-2.949.658zm14.942 8.385c1.747 0 3.148-.522 4.205-1.566 1.056-1.044 1.584-2.5 1.584-4.369v-1.536c0-1.803-.532-3.235-1.597-4.296-1.064-1.06-2.461-1.59-4.192-1.59-1.723 0-3.12.54-4.193 1.62-1.072 1.081-1.608 2.507-1.608 4.279v1.535c0 1.877.526 3.334 1.578 4.37 1.052 1.035 2.46 1.553 4.223 1.553zm0-2.352c-.934 0-1.652-.337-2.151-1.011-.5-.675-.75-1.548-.75-2.62v-1.39c0-1.064.256-1.938.768-2.62.512-.683 1.223-1.024 2.133-1.024.91 0 1.617.341 2.12 1.024.504.674.756 1.547.756 2.62v1.39c0 1.072-.246 1.945-.737 2.62-.492.674-1.205 1.011-2.14 1.011zm13.443 2.304c1.007 0 1.848-.218 2.523-.652.674-.435 1.105-.961 1.291-1.579h.147V58h2.815V40.487h-2.888v6.544h-.135c-.235-.617-.67-1.125-1.304-1.523-.633-.398-1.434-.597-2.4-.597-1.504 0-2.698.501-3.584 1.505-.885 1.003-1.328 2.366-1.328 4.089v2.072c0 1.73.44 3.095 1.322 4.095.882.999 2.062 1.499 3.54 1.499zm.963-2.401c-.894 0-1.6-.31-2.115-.927-.516-.617-.774-1.495-.774-2.632v-1.34c0-1.13.254-2.004.762-2.621s1.2-.926 2.078-.926c.87 0 1.582.296 2.139.89.556.593.835 1.373.835 2.34v1.803c0 1.065-.267 1.9-.799 2.505s-1.24.908-2.126.908zm20.487 2.571c1.153 0 2.198-.197 3.132-.59.934-.395 1.678-.976 2.23-1.744.553-.767.82-1.655.805-2.663a4.164 4.164 0 0 0-.366-1.706c-.236-.512-.536-.92-.902-1.225a4.809 4.809 0 0 0-1.146-.719 3.957 3.957 0 0 0-1.182-.323v-.158a3.07 3.07 0 0 0 1.012-.36c.35-.19.682-.44 1-.75.316-.308.574-.704.773-1.188a3.92 3.92 0 0 0 .287-1.566c-.025-1.259-.543-2.295-1.554-3.107-1.012-.813-2.346-1.215-4.004-1.207-1.698.008-3.039.443-4.022 1.304-.983.861-1.495 1.942-1.535 3.242h2.754c.04-.593.313-1.099.816-1.517.504-.419 1.146-.628 1.926-.628.788 0 1.438.22 1.95.658.512.439.768 1.008.768 1.706a2.206 2.206 0 0 1-.762 1.743c-.516.463-1.168.695-1.956.695h-1.743v2.389h1.828c.927 0 1.676.243 2.249.73.573.488.863 1.114.871 1.878.009.788-.282 1.432-.871 1.931-.59.5-1.367.746-2.334.738-.861 0-1.582-.203-2.163-.61-.581-.406-.9-.918-.957-1.535h-2.718c.049 1.3.593 2.389 1.633 3.266 1.04.878 2.434 1.316 4.18 1.316z" fill="#000" fill-rule="nonzero"></path></g></g><path d="M645.202 470.263c1.06 0 1.968-.289 2.725-.867.758-.579 1.322-1.36 1.692-2.345.37-.985.556-2.124.556-3.418v-.565c0-2.022-.432-3.634-1.297-4.836-.864-1.203-2.077-1.804-3.637-1.804-1.033 0-1.929.278-2.686.834-.757.555-1.329 1.332-1.716 2.33s-.58 2.156-.58 3.476v.565c0 1.32.19 2.475.57 3.466.38.992.945 1.767 1.692 2.326.748.559 1.641.838 2.681.838zm.02-2.018c-.8 0-1.433-.405-1.901-1.214-.468-.81-.702-1.948-.702-3.417v-.536c0-1.47.234-2.609.702-3.418.468-.81 1.101-1.214 1.9-1.214.8 0 1.434.405 1.902 1.214.468.81.702 1.949.702 3.417v.537c0 1.469-.234 2.608-.702 3.417-.468.81-1.102 1.214-1.901 1.214zm8.853 1.94c.468 0 .856-.146 1.165-.438.309-.293.463-.673.463-1.141 0-.475-.156-.861-.468-1.16-.312-.3-.699-.449-1.16-.449-.455 0-.835.15-1.14.448-.306.3-.46.686-.46 1.16 0 .462.155.84.464 1.137a1.58 1.58 0 0 0 1.136.443zm8.99.068c1.41 0 2.562-.412 3.456-1.238.893-.825 1.34-1.96 1.34-3.402 0-.676-.118-1.29-.356-1.843-.237-.553-.552-1.001-.945-1.346a4.352 4.352 0 0 0-2.871-1.072c-.852 0-1.556.183-2.112.55-.555.368-.944.815-1.165 1.341h-.136c-.02-1.482.239-2.658.775-3.53.536-.87 1.253-1.306 2.15-1.306.585 0 1.058.13 1.418.39.361.26.594.56.698.897h2.271a2.8 2.8 0 0 0-.224-.926 3.308 3.308 0 0 0-.56-.877 4.018 4.018 0 0 0-.868-.741 4.316 4.316 0 0 0-1.2-.512 5.669 5.669 0 0 0-1.496-.19c-1.625 0-2.904.612-3.837 1.837-.933 1.226-1.399 3.04-1.399 5.446 0 1.84.332 3.305.995 4.397.87 1.417 2.226 2.125 4.065 2.125zm.01-1.95c-.716 0-1.312-.232-1.79-.697-.478-.464-.717-1.093-.717-1.886 0-.735.234-1.336.702-1.804.468-.468 1.073-.702 1.814-.702.695 0 1.285.221 1.77.663.484.442.726 1.06.726 1.852 0 .826-.234 1.461-.702 1.907-.468.445-1.07.667-1.804.667zm12.245 1.95c1.41 0 2.563-.412 3.456-1.238.894-.825 1.341-1.96 1.341-3.402 0-.676-.119-1.29-.356-1.843-.237-.553-.552-1.001-.946-1.346a4.352 4.352 0 0 0-2.871-1.072c-.851 0-1.555.183-2.11.55-.557.368-.945.815-1.166 1.341h-.136c-.02-1.482.238-2.658.775-3.53.536-.87 1.253-1.306 2.15-1.306.585 0 1.057.13 1.418.39s.593.56.697.897h2.272a2.8 2.8 0 0 0-.224-.926 3.308 3.308 0 0 0-.56-.877 4.018 4.018 0 0 0-.869-.741 4.316 4.316 0 0 0-1.199-.512 5.669 5.669 0 0 0-1.496-.19c-1.625 0-2.904.612-3.837 1.837-.933 1.226-1.4 3.04-1.4 5.446 0 1.84.332 3.305.995 4.397.871 1.417 2.227 2.125 4.066 2.125zm.01-1.95c-.715 0-1.312-.232-1.79-.697-.477-.464-.716-1.093-.716-1.886 0-.735.234-1.336.702-1.804.468-.468 1.073-.702 1.814-.702.695 0 1.285.221 1.77.663.483.442.726 1.06.726 1.852 0 .826-.234 1.461-.702 1.907-.468.445-1.07.667-1.804.667zM687.667 470l1.286-2.139h.053l1.28 2.139h1.571l-2.033-3.138 2.05-3.05h-1.536l-1.286 2.127h-.058l-1.256-2.128h-1.608l2.017 3.115-1.97 3.074h1.49zm15.256.263c1.06 0 1.968-.289 2.725-.867.758-.579 1.321-1.36 1.692-2.345.37-.985.556-2.124.556-3.418v-.565c0-2.022-.433-3.634-1.297-4.836-.865-1.203-2.077-1.804-3.637-1.804-1.033 0-1.929.278-2.686.834-.757.555-1.33 1.332-1.716 2.33-.387.998-.58 2.156-.58 3.476v.565c0 1.32.19 2.475.57 3.466.38.992.944 1.767 1.692 2.326.747.559 1.641.838 2.681.838zm.02-2.018c-.8 0-1.434-.405-1.902-1.214-.468-.81-.702-1.948-.702-3.417v-.536c0-1.47.234-2.609.702-3.418.468-.81 1.102-1.214 1.902-1.214.8 0 1.433.405 1.9 1.214.469.81.703 1.949.703 3.417v.537c0 1.469-.234 2.608-.702 3.417-.468.81-1.102 1.214-1.901 1.214zm8.853 1.94c.468 0 .856-.146 1.165-.438.309-.293.463-.673.463-1.141 0-.475-.156-.861-.468-1.16-.312-.3-.699-.449-1.16-.449-.455 0-.836.15-1.141.448-.306.3-.458.686-.458 1.16 0 .462.154.84.463 1.137a1.58 1.58 0 0 0 1.136.443zm9.028.078c1.47 0 2.657-.43 3.564-1.292.907-.86 1.36-1.997 1.36-3.407 0-.884-.198-1.66-.595-2.326-.396-.666-.913-1.163-1.55-1.491-.637-.329-1.346-.493-2.126-.493-.67 0-1.238.12-1.706.361-.468.24-.79.497-.965.77h-.117l.312-3.714h6.025v-1.99h-7.936l-.566 7.742h2.038c.189-.338.481-.637.878-.897.396-.26.88-.39 1.452-.39.709 0 1.312.23 1.809.692.497.462.746 1.066.746 1.814 0 .806-.254 1.45-.76 1.935a2.5 2.5 0 0 1-1.785.726c-.61 0-1.15-.14-1.618-.424a1.764 1.764 0 0 1-.858-1.214h-2.184c.052 1.04.499 1.9 1.34 2.58.842.679 1.923 1.018 3.242 1.018zm20.69-6.678v-1.892h-8.785v1.892h8.785zm0 4.007v-1.882h-8.785v1.882h8.785zm11.553 2.681c.923 0 1.759-.158 2.506-.473.748-.315 1.342-.78 1.784-1.394.442-.614.657-1.325.644-2.13a3.332 3.332 0 0 0-.293-1.365 2.74 2.74 0 0 0-.721-.98 3.847 3.847 0 0 0-.917-.576 3.166 3.166 0 0 0-.945-.258v-.127c.26-.039.53-.135.809-.287.28-.153.546-.353.8-.6.253-.247.46-.564.619-.95.159-.387.235-.805.229-1.253-.02-1.008-.434-1.837-1.243-2.487-.81-.65-1.877-.971-3.203-.965-1.359.007-2.431.354-3.218 1.043-.786.69-1.196 1.554-1.228 2.594h2.203c.033-.475.25-.88.653-1.214.403-.335.917-.502 1.54-.502.631 0 1.151.175 1.56.526.41.351.615.806.615 1.365a1.765 1.765 0 0 1-.61 1.395c-.412.37-.934.555-1.564.555h-1.394v1.911h1.462c.741 0 1.34.195 1.799.585.458.39.69.89.697 1.502.007.63-.226 1.145-.697 1.545-.471.4-1.094.596-1.867.59-.69 0-1.266-.162-1.73-.487-.465-.326-.72-.735-.766-1.229h-2.174c.039 1.04.474 1.911 1.306 2.613.832.702 1.947 1.053 3.344 1.053zm11.75 0c.922 0 1.757-.158 2.505-.473.747-.315 1.342-.78 1.784-1.394.442-.614.657-1.325.644-2.13a3.332 3.332 0 0 0-.293-1.365 2.74 2.74 0 0 0-.721-.98 3.847 3.847 0 0 0-.917-.576 3.166 3.166 0 0 0-.946-.258v-.127c.26-.039.53-.135.81-.287.28-.153.546-.353.8-.6.253-.247.459-.564.618-.95.16-.387.236-.805.23-1.253-.02-1.008-.434-1.837-1.244-2.487-.809-.65-1.877-.971-3.203-.965-1.358.007-2.43.354-3.217 1.043-.787.69-1.196 1.554-1.229 2.594h2.204c.032-.475.25-.88.653-1.214.403-.335.917-.502 1.54-.502.631 0 1.151.175 1.56.526.41.351.615.806.615 1.365a1.765 1.765 0 0 1-.61 1.395c-.412.37-.934.555-1.564.555h-1.395v1.911h1.463c.74 0 1.34.195 1.799.585.458.39.69.89.697 1.502.006.63-.226 1.145-.697 1.545-.471.4-1.094.596-1.867.59-.69 0-1.266-.162-1.731-.487-.465-.326-.72-.735-.765-1.229h-2.175c.04 1.04.475 1.911 1.307 2.613s1.947 1.053 3.344 1.053zm9.223-6.932c.877 0 1.57-.314 2.076-.941.507-.627.76-1.4.76-2.316v-.282c0-.943-.253-1.721-.76-2.336-.507-.614-1.19-.921-2.047-.921-.858 0-1.544.307-2.057.921-.514.615-.77 1.387-.77 2.316v.283c0 .949.25 1.732.75 2.35.5.617 1.183.926 2.048.926zm-.312 6.659l4.962-6.513 5.246-6.796h-1.804l-4.904 6.435-5.304 6.874h1.804zm.331-8.034c-.403 0-.718-.179-.946-.536-.227-.358-.34-.845-.34-1.463v-.097c0-.598.111-1.071.336-1.419.224-.348.544-.521.96-.521.403 0 .717.173.94.521.225.348.337.827.337 1.438v.098c0 .61-.115 1.093-.346 1.448-.23.354-.544.531-.94.531zm7.79 8.17c.878 0 1.57-.313 2.077-.94.507-.628.76-1.4.76-2.316v-.293c0-.942-.251-1.719-.755-2.33-.504-.61-1.188-.916-2.052-.916-.858 0-1.542.305-2.053.916-.51.611-.765 1.382-.765 2.311v.293c0 .949.25 1.732.75 2.35.501.617 1.18.925 2.038.925zm.02-1.384c-.403 0-.718-.177-.946-.531-.227-.355-.341-.84-.341-1.458v-.097c0-.599.114-1.073.341-1.424.228-.351.546-.526.956-.526.403 0 .716.173.94.521.225.348.337.83.337 1.448v.098c0 .61-.115 1.091-.346 1.442-.231.351-.545.527-.941.527zM645.202 671.263c1.06 0 1.968-.289 2.725-.868.758-.578 1.322-1.36 1.692-2.344.37-.985.556-2.124.556-3.418v-.565c0-2.022-.432-3.634-1.297-4.836-.864-1.203-2.077-1.804-3.637-1.804-1.033 0-1.929.278-2.686.834-.757.555-1.329 1.332-1.716 2.33s-.58 2.156-.58 3.476v.565c0 1.32.19 2.475.57 3.466.38.992.945 1.767 1.692 2.326.748.559 1.641.838 2.681.838zm.02-2.018c-.8 0-1.433-.405-1.901-1.214-.468-.81-.702-1.948-.702-3.417v-.537c0-1.468.234-2.608.702-3.417.468-.81 1.101-1.214 1.9-1.214.8 0 1.434.405 1.902 1.214.468.81.702 1.949.702 3.418v.536c0 1.469-.234 2.608-.702 3.417-.468.81-1.102 1.214-1.901 1.214zm8.853 1.94c.468 0 .856-.146 1.165-.438.309-.293.463-.673.463-1.141 0-.475-.156-.861-.468-1.16-.312-.3-.699-.449-1.16-.449-.455 0-.835.15-1.14.449-.306.298-.46.685-.46 1.16 0 .461.155.84.464 1.136a1.58 1.58 0 0 0 1.136.443zm8.99.069c1.41 0 2.562-.413 3.456-1.239.893-.825 1.34-1.96 1.34-3.403 0-.675-.118-1.29-.356-1.842-.237-.553-.552-1.001-.945-1.346a4.352 4.352 0 0 0-2.871-1.072c-.852 0-1.556.183-2.112.55-.555.368-.944.815-1.165 1.341h-.136c-.02-1.482.239-2.658.775-3.53.536-.87 1.253-1.306 2.15-1.306.585 0 1.058.13 1.418.39.361.26.594.56.698.897h2.271a2.8 2.8 0 0 0-.224-.926 3.308 3.308 0 0 0-.56-.877 4.018 4.018 0 0 0-.868-.741 4.316 4.316 0 0 0-1.2-.512 5.669 5.669 0 0 0-1.496-.19c-1.625 0-2.904.612-3.837 1.837-.933 1.226-1.399 3.04-1.399 5.446 0 1.84.332 3.305.995 4.397.87 1.417 2.226 2.125 4.065 2.125zm.01-1.95c-.716 0-1.312-.233-1.79-.698-.478-.464-.717-1.093-.717-1.886 0-.735.234-1.336.702-1.804.468-.468 1.073-.702 1.814-.702.695 0 1.285.221 1.77.663.484.442.726 1.06.726 1.853 0 .825-.234 1.46-.702 1.906-.468.445-1.07.668-1.804.668zm12.245 1.95c1.41 0 2.563-.413 3.456-1.239.894-.825 1.341-1.96 1.341-3.403 0-.675-.119-1.29-.356-1.842-.237-.553-.552-1.001-.946-1.346a4.352 4.352 0 0 0-2.871-1.072c-.851 0-1.555.183-2.11.55-.557.368-.945.815-1.166 1.341h-.136c-.02-1.482.238-2.658.775-3.53.536-.87 1.253-1.306 2.15-1.306.585 0 1.057.13 1.418.39s.593.56.697.897h2.272a2.8 2.8 0 0 0-.224-.926 3.308 3.308 0 0 0-.56-.877 4.018 4.018 0 0 0-.869-.741 4.316 4.316 0 0 0-1.199-.512 5.669 5.669 0 0 0-1.496-.19c-1.625 0-2.904.612-3.837 1.837-.933 1.226-1.4 3.04-1.4 5.446 0 1.84.332 3.305.995 4.397.871 1.417 2.227 2.125 4.066 2.125zm.01-1.95c-.715 0-1.312-.233-1.79-.698-.477-.464-.716-1.093-.716-1.886 0-.735.234-1.336.702-1.804.468-.468 1.073-.702 1.814-.702.695 0 1.285.221 1.77.663.483.442.726 1.06.726 1.853 0 .825-.234 1.46-.702 1.906-.468.445-1.07.668-1.804.668zM687.667 671l1.286-2.139h.053l1.28 2.139h1.571l-2.033-3.138 2.05-3.05h-1.536l-1.286 2.127h-.058l-1.256-2.128h-1.608l2.017 3.115-1.97 3.074h1.49zm15.256.263c1.06 0 1.968-.289 2.725-.868.758-.578 1.321-1.36 1.692-2.344.37-.985.556-2.124.556-3.418v-.565c0-2.022-.433-3.634-1.297-4.836-.865-1.203-2.077-1.804-3.637-1.804-1.033 0-1.929.278-2.686.834-.757.555-1.33 1.332-1.716 2.33-.387.998-.58 2.156-.58 3.476v.565c0 1.32.19 2.475.57 3.466.38.992.944 1.767 1.692 2.326.747.559 1.641.838 2.681.838zm.02-2.018c-.8 0-1.434-.405-1.902-1.214-.468-.81-.702-1.948-.702-3.417v-.537c0-1.468.234-2.608.702-3.417.468-.81 1.102-1.214 1.902-1.214.8 0 1.433.405 1.9 1.214.469.81.703 1.949.703 3.418v.536c0 1.469-.234 2.608-.702 3.417-.468.81-1.102 1.214-1.901 1.214zm8.853 1.94c.468 0 .856-.146 1.165-.438.309-.293.463-.673.463-1.141 0-.475-.156-.861-.468-1.16-.312-.3-.699-.449-1.16-.449-.455 0-.836.15-1.141.449-.306.298-.458.685-.458 1.16 0 .461.154.84.463 1.136a1.58 1.58 0 0 0 1.136.443zm9.028.078c1.47 0 2.657-.43 3.564-1.292.907-.86 1.36-1.997 1.36-3.407 0-.884-.198-1.66-.595-2.326-.396-.666-.913-1.163-1.55-1.491-.637-.329-1.346-.493-2.126-.493-.67 0-1.238.12-1.706.361-.468.24-.79.497-.965.77h-.117l.312-3.714h6.025v-1.99h-7.936l-.566 7.742h2.038c.189-.338.481-.637.878-.897.396-.26.88-.39 1.452-.39.709 0 1.312.23 1.809.692.497.462.746 1.066.746 1.814 0 .806-.254 1.45-.76 1.935a2.5 2.5 0 0 1-1.785.726c-.61 0-1.15-.14-1.618-.424a1.764 1.764 0 0 1-.858-1.214h-2.184c.052 1.04.499 1.9 1.34 2.58.842.679 1.923 1.018 3.242 1.018zm20.69-6.678v-1.892h-8.785v1.892h8.785zm0 4.007v-1.882h-8.785v1.882h8.785zm11.553 2.681c.923 0 1.759-.158 2.506-.473.748-.315 1.342-.78 1.784-1.394.442-.614.657-1.324.644-2.13a3.332 3.332 0 0 0-.293-1.365 2.74 2.74 0 0 0-.721-.98 3.847 3.847 0 0 0-.917-.576 3.166 3.166 0 0 0-.945-.258v-.127c.26-.039.53-.135.809-.287.28-.153.546-.353.8-.6.253-.247.46-.564.619-.95.159-.387.235-.805.229-1.253-.02-1.008-.434-1.837-1.243-2.487-.81-.65-1.877-.971-3.203-.965-1.359.007-2.431.354-3.218 1.043-.786.69-1.196 1.554-1.228 2.594h2.203c.033-.475.25-.88.653-1.214.403-.335.917-.502 1.54-.502.631 0 1.151.175 1.56.526.41.351.615.806.615 1.365a1.765 1.765 0 0 1-.61 1.395c-.412.37-.934.555-1.564.555h-1.394v1.911h1.462c.741 0 1.34.195 1.799.585.458.39.69.89.697 1.502.007.63-.226 1.145-.697 1.545-.471.4-1.094.597-1.867.59-.69 0-1.266-.163-1.73-.487-.465-.326-.72-.735-.766-1.229h-2.174c.039 1.04.474 1.911 1.306 2.613.832.702 1.947 1.053 3.344 1.053zm11.75 0c.922 0 1.757-.158 2.505-.473.747-.315 1.342-.78 1.784-1.394.442-.614.657-1.324.644-2.13a3.332 3.332 0 0 0-.293-1.365 2.74 2.74 0 0 0-.721-.98 3.847 3.847 0 0 0-.917-.576 3.166 3.166 0 0 0-.946-.258v-.127c.26-.039.53-.135.81-.287.28-.153.546-.353.8-.6.253-.247.459-.564.618-.95.16-.387.236-.805.23-1.253-.02-1.008-.434-1.837-1.244-2.487-.809-.65-1.877-.971-3.203-.965-1.358.007-2.43.354-3.217 1.043-.787.69-1.196 1.554-1.229 2.594h2.204c.032-.475.25-.88.653-1.214.403-.335.917-.502 1.54-.502.631 0 1.151.175 1.56.526.41.351.615.806.615 1.365a1.765 1.765 0 0 1-.61 1.395c-.412.37-.934.555-1.564.555h-1.395v1.911h1.463c.74 0 1.34.195 1.799.585.458.39.69.89.697 1.502.006.63-.226 1.145-.697 1.545-.471.4-1.094.597-1.867.59-.69 0-1.266-.163-1.731-.487-.465-.326-.72-.735-.765-1.229h-2.175c.04 1.04.475 1.911 1.307 2.613s1.947 1.053 3.344 1.053zm9.223-6.932c.877 0 1.57-.314 2.076-.941.507-.627.76-1.4.76-2.316v-.282c0-.943-.253-1.721-.76-2.336-.507-.614-1.19-.921-2.047-.921-.858 0-1.544.307-2.057.921-.514.615-.77 1.387-.77 2.316v.283c0 .949.25 1.732.75 2.35.5.617 1.183.926 2.048.926zm-.312 6.659l4.962-6.513 5.246-6.796h-1.804l-4.904 6.435-5.304 6.874h1.804zm.331-8.034c-.403 0-.718-.179-.946-.536-.227-.358-.34-.845-.34-1.463v-.097c0-.598.111-1.071.336-1.419.224-.348.544-.521.96-.521.403 0 .717.173.94.521.225.348.337.827.337 1.438v.098c0 .61-.115 1.093-.346 1.448-.23.354-.544.531-.94.531zm7.79 8.17c.878 0 1.57-.313 2.077-.94.507-.628.76-1.4.76-2.316v-.293c0-.942-.251-1.719-.755-2.33-.504-.61-1.188-.916-2.052-.916-.858 0-1.542.305-2.053.916-.51.611-.765 1.382-.765 2.311v.293c0 .948.25 1.732.75 2.35.501.617 1.18.925 2.038.925zm.02-1.384c-.403 0-.718-.177-.946-.531-.227-.355-.341-.84-.341-1.458v-.098c0-.597.114-1.072.341-1.423.228-.351.546-.526.956-.526.403 0 .716.173.94.521.225.348.337.83.337 1.448v.098c0 .61-.115 1.091-.346 1.442-.231.351-.545.527-.941.527z" fill="#8E8E93" fill-rule="nonzero"></path></g></svg>