<svg xmlns="http://www.w3.org/2000/svg" viewBox="0 0 1200 900"><style>@keyframes anime-dot-1_t{0%{transform:translate(304.5px,160.5px)}5.8823%{transform:translate(304.5px,160.5px)}29.4117%{transform:translate(822px,328.498483px)}100%{transform:translate(822px,328.498483px)}}@keyframes anime-dot-1_o{0%{opacity:0}11.7647%{opacity:1}23.5294%{opacity:1}35.2941%{opacity:0}100%{opacity:0}}@keyframes anime-dot-2_t{0%{transform:translate(304.5px,305.5px)}29.4117%{transform:translate(304.5px,305.5px)}82.3529%{transform:translate(823.958602px,618.393082px)}100%{transform:translate(823.958602px,618.393082px)}}@keyframes anime-dot-2_o{0%{opacity:0}23.5294%{opacity:0}35.2941%{opacity:1}76.4706%{opacity:1}88.2353%{opacity:0}100%{opacity:0}}@keyframes anime-dot-3_t{0%{transform:translate(304.5px,461.5px)}47.0588%{transform:translate(304.5px,461.5px)}76.4705%{transform:translate(822px,327.458282px)}100%{transform:translate(822px,327.458282px)}}@keyframes anime-dot-3_o{0%{opacity:0}41.1765%{opacity:0}52.9412%{opacity:1}70.5882%{opacity:1}82.3529%{opacity:0}100%{opacity:0}}@keyframes anime-dot-4_t{0%{transform:translate(304.5px,594.5px)}11.7647%{transform:translate(304.5px,594.5px)}41.1764%{transform:translate(822px,622.497882px)}100%{transform:translate(822px,622.497882px)}}@keyframes anime-dot-4_o{0%{opacity:0}5.8824%{opacity:0}17.6471%{opacity:1}35.2941%{opacity:1}47.0588%{opacity:0}100%{opacity:0}}@keyframes anime-dot-5_t{0%{transform:translate(304.5px,738.5px)}64.7058%{transform:translate(304.5px,738.5px)}94.1176%{transform:translate(823.958618px,619.508883px)}100%{transform:translate(823.958618px,619.508883px)}}@keyframes anime-dot-5_o{0%{opacity:0}58.8235%{opacity:0}70.5882%{opacity:1}88.2353%{opacity:1}100%{opacity:0}}</style><g transform="translate(822,209) translate(0,-2e-06)" fill="none" fill-rule="evenodd"><path d="M280 236.695c0 1.494-.877 2.705-1.959 2.705H1.959C.877 239.4 0 238.189 0 236.695V7a7 7 0 0 1 7-7h266a7 7 0 0 1 7 7v229.695z" fill="#E3CEBC"></path><path d="M162.491 151.976l2.743-6.565a29.062 29.062 0 0 0 8.104-1.331l4.717 5.342a2.696 2.696 0 0 0 3.435.511l2.977-1.846 2.976-1.847a2.696 2.696 0 0 0 1.067-3.305l-2.695-6.599a27.457 27.457 0 0 0 4.864-6.851l7.037.441a2.697 2.697 0 0 0 2.803-2.083l.804-3.432.803-3.431a2.723 2.723 0 0 0-1.587-3.111l-6.62-2.789c-.067-2.787-.57-5.513-1.37-8.082l5.352-4.617a2.695 2.695 0 0 0 .511-3.434l-1.848-2.977-1.846-2.976a2.697 2.697 0 0 0-3.306-1.067l-6.636 2.719a28.845 28.845 0 0 0-6.688-4.728l.441-7.038a2.697 2.697 0 0 0-2.083-2.803l-3.431-.803-3.432-.804a2.72 2.72 0 0 0-3.11 1.588l-2.789 6.619c-2.788.066-5.513.568-8.082 1.37l-4.662-5.298a2.697 2.697 0 0 0-3.436-.511l-2.976 1.846-2.977 1.847a2.698 2.698 0 0 0-1.067 3.305l2.719 6.636a29.01 29.01 0 0 0-4.653 6.509l-7.101-.455a2.696 2.696 0 0 0-2.803 2.083l-.804 3.431-.803 3.432a2.723 2.723 0 0 0 1.587 3.111l6.565 2.742a29.069 29.069 0 0 0 1.331 8.105l-5.342 4.716a2.698 2.698 0 0 0-.511 3.436l1.847 2.976 1.846 2.977a2.699 2.699 0 0 0 3.306 1.067l6.598-2.695a29.05 29.05 0 0 0 6.672 4.789l-.455 7.101a2.697 2.697 0 0 0 2.083 2.803l3.432.803 3.431.804c1.256.229 2.555-.445 3.062-1.631zm5.527-50.725c8.308 1.945 13.467 10.255 11.522 18.563-1.944 8.307-10.255 13.466-18.562 11.522-8.308-1.945-13.467-10.255-11.522-18.563 1.944-8.308 10.255-13.467 18.562-11.522zm-37.252 85.187l.721-4.31a17.824 17.824 0 0 0 4.66-1.931l3.569 2.535a1.654 1.654 0 0 0 2.125-.175l1.522-1.521 1.522-1.522a1.654 1.654 0 0 0 .175-2.125l-2.536-3.569a16.882 16.882 0 0 0 1.95-4.778l4.272-.721a1.655 1.655 0 0 0 1.384-1.638v-4.329c0-.799-.585-1.502-1.384-1.638l-4.349-.741c-.428-1.657-1.111-3.217-1.95-4.641l2.555-3.509a1.655 1.655 0 0 0-.175-2.126l-1.522-1.521-1.521-1.522a1.654 1.654 0 0 0-2.126-.175l-3.588 2.555a17.695 17.695 0 0 0-4.66-1.892l-.721-4.271a1.658 1.658 0 0 0-1.638-1.385h-4.329c-.8 0-1.502.586-1.638 1.385l-.741 4.348c-1.657.429-3.217 1.112-4.641 1.951l-3.529-2.516a1.654 1.654 0 0 0-2.125.175l-1.522 1.522-1.522 1.521a1.654 1.654 0 0 0-.175 2.126l2.555 3.588a17.828 17.828 0 0 0-1.872 4.544l-4.31.721c-.8.137-1.385.819-1.385 1.638v4.329c0 .799.585 1.502 1.385 1.638l4.31.721a17.83 17.83 0 0 0 1.931 4.661l-2.536 3.568c-.467.664-.39 1.56.175 2.125l1.522 1.522 1.522 1.522a1.653 1.653 0 0 0 2.125.175l3.569-2.535a17.787 17.787 0 0 0 4.66 1.93l.721 4.311a1.655 1.655 0 0 0 1.638 1.384h4.329a1.72 1.72 0 0 0 1.598-1.404zm-3.793-31.109c5.24 0 9.489 4.249 9.489 9.489 0 5.24-4.249 9.489-9.489 9.489-5.24 0-9.489-4.249-9.489-9.489 0-5.24 4.249-9.489 9.489-9.489zm-22.018-11.291l.598-4.175a17.2 17.2 0 0 0 4.453-1.97l3.502 2.365a1.597 1.597 0 0 0 2.047-.219l1.433-1.502 1.434-1.502a1.596 1.596 0 0 0 .12-2.055l-2.528-3.385a16.258 16.258 0 0 0 1.772-4.655l4.105-.794a1.6 1.6 0 0 0 1.3-1.613l-.05-2.089-.049-2.089a1.614 1.614 0 0 0-1.373-1.549l-4.214-.616a17.5 17.5 0 0 0-1.988-4.434l2.385-3.446a1.595 1.595 0 0 0-.218-2.046l-1.502-1.434-1.502-1.434a1.597 1.597 0 0 0-2.056-.12l-3.404 2.547a17.113 17.113 0 0 0-4.541-1.72l-.793-4.104a1.6 1.6 0 0 0-1.613-1.3l-2.089.049-2.089.049c-.771.019-1.435.6-1.55 1.374l-.616 4.214a17.458 17.458 0 0 0-4.433 1.988l-3.464-2.347a1.598 1.598 0 0 0-2.047.219l-1.433 1.502-1.434 1.502a1.596 1.596 0 0 0-.12 2.055l2.546 3.405a17.209 17.209 0 0 0-1.702 4.427l-4.143.795a1.6 1.6 0 0 0-1.299 1.613l.049 2.089.049 2.089a1.614 1.614 0 0 0 1.373 1.549l4.175.598a17.206 17.206 0 0 0 1.97 4.454l-2.365 3.501a1.598 1.598 0 0 0 .219 2.047l1.502 1.433 1.502 1.434a1.596 1.596 0 0 0 2.055.12l3.386-2.528a17.218 17.218 0 0 0 4.541 1.757l.795 4.143a1.6 1.6 0 0 0 1.613 1.299l2.089-.049 2.089-.049a1.668 1.668 0 0 0 1.513-1.393zm-4.371-29.932a9.16 9.16 0 1 1 .433 18.313 9.16 9.16 0 0 1-.433-18.313z" fill="#6C431E" fill-rule="nonzero"></path><path d="M7 0h266a7 7 0 0 1 7 7v25.2H0V7a7 7 0 0 1 7-7z" fill="#CCC"></path><path d="M23.8 17.5a6.3 6.3 0 0 1-6.3 6.3 6.3 6.3 0 0 1-6.3-6.3 6.3 6.3 0 0 1 6.3-6.3 6.3 6.3 0 0 1 6.3 6.3" fill="#E74C3C"></path><path d="M46.2 17.5a6.3 6.3 0 0 1-6.3 6.3 6.3 6.3 0 0 1-6.3-6.3 6.3 6.3 0 0 1 6.3-6.3 6.3 6.3 0 0 1 6.3 6.3" fill="#F1C40F"></path><path d="M67.2 17.5a6.3 6.3 0 0 1-6.3 6.3 6.3 6.3 0 0 1-6.3-6.3 6.3 6.3 0 0 1 6.3-6.3 6.3 6.3 0 0 1 6.3 6.3" fill="#2ECC71"></path></g><g transform="translate(822,498) translate(0,-2e-06)" fill="none" fill-rule="evenodd"><path d="M280 236.695c0 1.494-.877 2.705-1.959 2.705H1.959C.877 239.4 0 238.189 0 236.695V7a7 7 0 0 1 7-7h266a7 7 0 0 1 7 7v229.695z" fill="#E3CEBC"></path><path d="M162.491 151.976l2.743-6.565a29.062 29.062 0 0 0 8.104-1.331l4.717 5.342a2.696 2.696 0 0 0 3.435.511l2.977-1.846 2.976-1.847a2.696 2.696 0 0 0 1.067-3.305l-2.695-6.599a27.457 27.457 0 0 0 4.864-6.851l7.037.441a2.697 2.697 0 0 0 2.803-2.083l.804-3.432.803-3.431a2.723 2.723 0 0 0-1.587-3.111l-6.62-2.789c-.067-2.787-.57-5.513-1.37-8.082l5.352-4.617a2.695 2.695 0 0 0 .511-3.434l-1.848-2.977-1.846-2.976a2.697 2.697 0 0 0-3.306-1.067l-6.636 2.719a28.845 28.845 0 0 0-6.688-4.728l.441-7.038a2.697 2.697 0 0 0-2.083-2.803l-3.431-.803-3.432-.804a2.72 2.72 0 0 0-3.11 1.588l-2.789 6.619c-2.788.066-5.513.568-8.082 1.37l-4.662-5.298a2.697 2.697 0 0 0-3.436-.511l-2.976 1.846-2.977 1.847a2.698 2.698 0 0 0-1.067 3.305l2.719 6.636a29.01 29.01 0 0 0-4.653 6.509l-7.101-.455a2.696 2.696 0 0 0-2.803 2.083l-.804 3.431-.803 3.432a2.723 2.723 0 0 0 1.587 3.111l6.565 2.742a29.069 29.069 0 0 0 1.331 8.105l-5.342 4.716a2.698 2.698 0 0 0-.511 3.436l1.847 2.976 1.846 2.977a2.699 2.699 0 0 0 3.306 1.067l6.598-2.695a29.05 29.05 0 0 0 6.672 4.789l-.455 7.101a2.697 2.697 0 0 0 2.083 2.803l3.432.803 3.431.804c1.256.229 2.555-.445 3.062-1.631zm5.527-50.725c8.308 1.945 13.467 10.255 11.522 18.563-1.944 8.307-10.255 13.466-18.562 11.522-8.308-1.945-13.467-10.255-11.522-18.563 1.944-8.308 10.255-13.467 18.562-11.522zm-37.252 85.187l.721-4.31a17.824 17.824 0 0 0 4.66-1.931l3.569 2.535a1.654 1.654 0 0 0 2.125-.175l1.522-1.521 1.522-1.522a1.654 1.654 0 0 0 .175-2.125l-2.536-3.569a16.882 16.882 0 0 0 1.95-4.778l4.272-.721a1.655 1.655 0 0 0 1.384-1.638v-4.329c0-.799-.585-1.502-1.384-1.638l-4.349-.741c-.428-1.657-1.111-3.217-1.95-4.641l2.555-3.509a1.655 1.655 0 0 0-.175-2.126l-1.522-1.521-1.521-1.522a1.654 1.654 0 0 0-2.126-.175l-3.588 2.555a17.695 17.695 0 0 0-4.66-1.892l-.721-4.271a1.658 1.658 0 0 0-1.638-1.385h-4.329c-.8 0-1.502.586-1.638 1.385l-.741 4.348c-1.657.429-3.217 1.112-4.641 1.951l-3.529-2.516a1.654 1.654 0 0 0-2.125.175l-1.522 1.522-1.522 1.521a1.654 1.654 0 0 0-.175 2.126l2.555 3.588a17.828 17.828 0 0 0-1.872 4.544l-4.31.721c-.8.137-1.385.819-1.385 1.638v4.329c0 .799.585 1.502 1.385 1.638l4.31.721a17.83 17.83 0 0 0 1.931 4.661l-2.536 3.568c-.467.664-.39 1.56.175 2.125l1.522 1.522 1.522 1.522a1.653 1.653 0 0 0 2.125.175l3.569-2.535a17.787 17.787 0 0 0 4.66 1.93l.721 4.311a1.655 1.655 0 0 0 1.638 1.384h4.329a1.72 1.72 0 0 0 1.598-1.404zm-3.793-31.109c5.24 0 9.489 4.249 9.489 9.489 0 5.24-4.249 9.489-9.489 9.489-5.24 0-9.489-4.249-9.489-9.489 0-5.24 4.249-9.489 9.489-9.489zm-22.018-11.291l.598-4.175a17.2 17.2 0 0 0 4.453-1.97l3.502 2.365a1.597 1.597 0 0 0 2.047-.219l1.433-1.502 1.434-1.502a1.596 1.596 0 0 0 .12-2.055l-2.528-3.385a16.258 16.258 0 0 0 1.772-4.655l4.105-.794a1.6 1.6 0 0 0 1.3-1.613l-.05-2.089-.049-2.089a1.614 1.614 0 0 0-1.373-1.549l-4.214-.616a17.5 17.5 0 0 0-1.988-4.434l2.385-3.446a1.595 1.595 0 0 0-.218-2.046l-1.502-1.434-1.502-1.434a1.597 1.597 0 0 0-2.056-.12l-3.404 2.547a17.113 17.113 0 0 0-4.541-1.72l-.793-4.104a1.6 1.6 0 0 0-1.613-1.3l-2.089.049-2.089.049c-.771.019-1.435.6-1.55 1.374l-.616 4.214a17.458 17.458 0 0 0-4.433 1.988l-3.464-2.347a1.598 1.598 0 0 0-2.047.219l-1.433 1.502-1.434 1.502a1.596 1.596 0 0 0-.12 2.055l2.546 3.405a17.209 17.209 0 0 0-1.702 4.427l-4.143.795a1.6 1.6 0 0 0-1.299 1.613l.049 2.089.049 2.089a1.614 1.614 0 0 0 1.373 1.549l4.175.598a17.206 17.206 0 0 0 1.97 4.454l-2.365 3.501a1.598 1.598 0 0 0 .219 2.047l1.502 1.433 1.502 1.434a1.596 1.596 0 0 0 2.055.12l3.386-2.528a17.218 17.218 0 0 0 4.541 1.757l.795 4.143a1.6 1.6 0 0 0 1.613 1.299l2.089-.049 2.089-.049a1.668 1.668 0 0 0 1.513-1.393zm-4.371-29.932a9.16 9.16 0 1 1 .433 18.313 9.16 9.16 0 0 1-.433-18.313z" fill="#6C431E" fill-rule="nonzero"></path><path d="M7 0h266a7 7 0 0 1 7 7v25.2H0V7a7 7 0 0 1 7-7z" fill="#CCC"></path><path d="M23.8 17.5a6.3 6.3 0 0 1-6.3 6.3 6.3 6.3 0 0 1-6.3-6.3 6.3 6.3 0 0 1 6.3-6.3 6.3 6.3 0 0 1 6.3 6.3" fill="#E74C3C"></path><path d="M46.2 17.5a6.3 6.3 0 0 1-6.3 6.3 6.3 6.3 0 0 1-6.3-6.3 6.3 6.3 0 0 1 6.3-6.3 6.3 6.3 0 0 1 6.3 6.3" fill="#F1C40F"></path><path d="M67.2 17.5a6.3 6.3 0 0 1-6.3 6.3 6.3 6.3 0 0 1-6.3-6.3 6.3 6.3 0 0 1 6.3-6.3 6.3 6.3 0 0 1 6.3 6.3" fill="#2ECC71"></path></g><g fill="none" fill-rule="evenodd" transform="translate(164,100)"><path d="M140 118.348c0 .747-.438 1.352-.979 1.352H.979c-.54 0-.979-.605-.979-1.352V3.5A3.5 3.5 0 0 1 3.5 0h133a3.5 3.5 0 0 1 3.5 3.5v114.848z" fill="#FF003C"></path><path d="M3.5 0h133a3.5 3.5 0 0 1 3.5 3.5v12.6H0V3.5A3.5 3.5 0 0 1 3.5 0z" fill="#CCC"></path><path d="M11.9 8.75a3.15 3.15 0 1 1-6.3 0 3.15 3.15 0 0 1 6.3 0" fill="#E74C3C"></path><path d="M23.1 8.75a3.15 3.15 0 1 1-6.3 0 3.15 3.15 0 0 1 6.3 0" fill="#F1C40F"></path><path d="M33.6 8.75a3.15 3.15 0 1 1-6.3 0 3.15 3.15 0 0 1 6.3 0" fill="#2ECC71"></path></g><g fill="none" fill-rule="evenodd" transform="translate(164,245)"><path d="M140 118.348c0 .747-.438 1.352-.979 1.352H.979c-.54 0-.979-.605-.979-1.352V3.5A3.5 3.5 0 0 1 3.5 0h133a3.5 3.5 0 0 1 3.5 3.5v114.848z" fill="#FF003C"></path><path d="M3.5 0h133a3.5 3.5 0 0 1 3.5 3.5v12.6H0V3.5A3.5 3.5 0 0 1 3.5 0z" fill="#CCC"></path><path d="M11.9 8.75a3.15 3.15 0 1 1-6.3 0 3.15 3.15 0 0 1 6.3 0" fill="#E74C3C"></path><path d="M23.1 8.75a3.15 3.15 0 1 1-6.3 0 3.15 3.15 0 0 1 6.3 0" fill="#F1C40F"></path><path d="M33.6 8.75a3.15 3.15 0 1 1-6.3 0 3.15 3.15 0 0 1 6.3 0" fill="#2ECC71"></path></g><g fill="none" fill-rule="evenodd" transform="translate(164,390)"><path d="M140 118.348c0 .747-.438 1.352-.979 1.352H.979c-.54 0-.979-.605-.979-1.352V3.5A3.5 3.5 0 0 1 3.5 0h133a3.5 3.5 0 0 1 3.5 3.5v114.848z" fill="#FF003C"></path><path d="M3.5 0h133a3.5 3.5 0 0 1 3.5 3.5v12.6H0V3.5A3.5 3.5 0 0 1 3.5 0z" fill="#CCC"></path><path d="M11.9 8.75a3.15 3.15 0 1 1-6.3 0 3.15 3.15 0 0 1 6.3 0" fill="#E74C3C"></path><path d="M23.1 8.75a3.15 3.15 0 1 1-6.3 0 3.15 3.15 0 0 1 6.3 0" fill="#F1C40F"></path><path d="M33.6 8.75a3.15 3.15 0 1 1-6.3 0 3.15 3.15 0 0 1 6.3 0" fill="#2ECC71"></path></g><g fill="none" fill-rule="evenodd" transform="translate(164,535)"><path d="M140 118.348c0 .747-.438 1.352-.979 1.352H.979c-.54 0-.979-.605-.979-1.352V3.5A3.5 3.5 0 0 1 3.5 0h133a3.5 3.5 0 0 1 3.5 3.5v114.848z" fill="#FF003C"></path><path d="M3.5 0h133a3.5 3.5 0 0 1 3.5 3.5v12.6H0V3.5A3.5 3.5 0 0 1 3.5 0z" fill="#CCC"></path><path d="M11.9 8.75a3.15 3.15 0 1 1-6.3 0 3.15 3.15 0 0 1 6.3 0" fill="#E74C3C"></path><path d="M23.1 8.75a3.15 3.15 0 1 1-6.3 0 3.15 3.15 0 0 1 6.3 0" fill="#F1C40F"></path><path d="M33.6 8.75a3.15 3.15 0 1 1-6.3 0 3.15 3.15 0 0 1 6.3 0" fill="#2ECC71"></path></g><g fill="none" fill-rule="evenodd" transform="translate(164,680)"><path d="M140 118.348c0 .747-.438 1.352-.979 1.352H.979c-.54 0-.979-.605-.979-1.352V3.5A3.5 3.5 0 0 1 3.5 0h133a3.5 3.5 0 0 1 3.5 3.5v114.848z" fill="#FF003C"></path><path d="M3.5 0h133a3.5 3.5 0 0 1 3.5 3.5v12.6H0V3.5A3.5 3.5 0 0 1 3.5 0z" fill="#CCC"></path><path d="M11.9 8.75a3.15 3.15 0 1 1-6.3 0 3.15 3.15 0 0 1 6.3 0" fill="#E74C3C"></path><path d="M23.1 8.75a3.15 3.15 0 1 1-6.3 0 3.15 3.15 0 0 1 6.3 0" fill="#F1C40F"></path><path d="M33.6 8.75a3.15 3.15 0 1 1-6.3 0 3.15 3.15 0 0 1 6.3 0" fill="#2ECC71"></path></g><path stroke="#FF9500" stroke-width="8" d="M304 160l518 168.7m-518-23.85L822 617.7M304 461.275L822 329" fill="none" fill-rule="evenodd"></path><ellipse id="anime-dot-1" fill="#FF9500" rx="17.5" ry="17.5" stroke="none" stroke-width="1" fill-rule="evenodd" opacity="0" transform="translate(0,0) translate(304.5,160.5)" style="animation:1.7s linear infinite both anime-dot-1_t, 1.7s linear infinite both anime-dot-1_o"></ellipse><ellipse id="anime-dot-2" fill="#FF9500" rx="17.5" ry="17.5" stroke="none" stroke-width="1" fill-rule="evenodd" opacity="0" transform="translate(0,0) translate(304.5,305.5)" style="animation:1.7s linear infinite both anime-dot-2_t, 1.7s linear infinite both anime-dot-2_o"></ellipse><ellipse id="anime-dot-3" fill="#FF9500" rx="17.5" ry="17.5" stroke="none" stroke-width="1" fill-rule="evenodd" opacity="0" transform="translate(0,0) translate(304.5,461.5)" style="animation:1.7s linear infinite both anime-dot-3_t, 1.7s linear infinite both anime-dot-3_o"></ellipse><ellipse id="anime-dot-4" fill="#FF9500" rx="17.5" ry="17.5" stroke="none" stroke-width="1" fill-rule="evenodd" opacity="0" transform="translate(0,0) translate(304.5,594.5)" style="animation:1.7s linear infinite both anime-dot-4_t, 1.7s linear infinite both anime-dot-4_o"></ellipse><ellipse id="anime-dot-5" fill="#FF9500" rx="17.5" ry="17.5" stroke="none" stroke-width="1" fill-rule="evenodd" opacity="0" transform="translate(0,0) translate(304.5,738.5)" style="animation:1.7s linear infinite both anime-dot-5_t, 1.7s linear infinite both anime-dot-5_o"></ellipse><path stroke="#FF9500" stroke-width="8" d="M304 594.85L822 618M304 740l518-122" fill="none" fill-rule="evenodd"></path></svg>