<svg xmlns="http://www.w3.org/2000/svg" viewBox="0 0 1200 900"><style>.sans-serif{font-family:-apple-system,BlinkMacSystemFont,'avenir next', avenir,'helvetica neue',helvetica,ubuntu,roboto,noto,'segoe ui',arial,sans-serif}@keyframes anime-arrow-2_o{0%{opacity:0}18.75%{opacity:1}37.5%{opacity:1}56.25%{opacity:0}100%{opacity:0}}@keyframes anime-arrow-1_o{0%{opacity:0}43.75%{opacity:0}62.5%{opacity:1}81.25%{opacity:1}100%{opacity:0}}@keyframes anime-dot-1_t{0%{transform:translate(477px,713.5px)}6.25%{transform:translate(477px,713.5px)}31.25%{transform:translate(730.783727px,713.5px)}62.5%{transform:translate(730.783727px,713.5px)}87.5%{transform:translate(475.216273px,713.5px)}100%{transform:translate(475.216273px,713.5px)}}@keyframes anime-dot-1_o{0%{opacity:0}12.5%{opacity:1}25%{opacity:1}37.5%{opacity:0}56.25%{opacity:0}68.75%{opacity:1}81.25%{opacity:1}93.75%{opacity:0}100%{opacity:0}}@keyframes anime-dot-2_t{0%{transform:translate(729px,782.5px)}31.25%{transform:translate(729px,782.5px)}56.25%{transform:translate(477px,782.5px)}100%{transform:translate(477px,782.5px)}}@keyframes anime-dot-2_o{0%{opacity:0}25%{opacity:0}37.5%{opacity:1}50%{opacity:1}62.5%{opacity:0}100%{opacity:0}}</style><g fill="none" fill-rule="evenodd" transform="translate(222,146)"><path d="M255 215.537c0 1.36-.798 2.463-1.784 2.463H1.784C.798 218 0 216.897 0 215.537V6.37A6.37 6.37 0 0 1 6.37 0h242.26A6.37 6.37 0 0 1 255 6.37v209.167z" fill="#FF003C"></path><path d="M6.37 0h242.26A6.37 6.37 0 0 1 255 6.37v22.932H0V6.37A6.37 6.37 0 0 1 6.37 0z" fill="#CCC"></path><path d="M21.658 15.925a5.733 5.733 0 1 1-11.466 0 5.733 5.733 0 1 1 11.466 0" fill="#E74C3C"></path><path d="M42.042 15.925a5.733 5.733 0 1 1-11.466 0 5.733 5.733 0 1 1 11.466 0" fill="#F1C40F"></path><path d="M61.152 15.925a5.733 5.733 0 1 1-11.466 0 5.733 5.733 0 1 1 11.466 0" fill="#2ECC71"></path></g><g id="anime-arrow-2" fill="#B8E986" stroke="none" stroke-width="1" fill-rule="evenodd" opacity="0" transform="translate(523.5,255.5) rotate(-90)" style="animation:1.6s linear infinite both anime-arrow-2_o"><path d="M36 173L0 108h72z"></path><path d="M26 0h20v155H26z"></path></g><g id="anime-arrow-1" fill="#B8E986" stroke="none" stroke-width="1" fill-rule="evenodd" opacity="0" transform="translate(678.5,327.5) rotate(90) scale(-1,1)" style="animation:1.6s linear infinite both anime-arrow-1_o"><path d="M36 173L0 108h72z"></path><path d="M26 0h20v155H26z"></path></g><g fill="none" fill-rule="evenodd" transform="translate(729,146)"><path d="M255 215.537c0 1.36-.798 2.463-1.784 2.463H1.784C.798 218 0 216.897 0 215.537V6.37A6.37 6.37 0 0 1 6.37 0h242.26A6.37 6.37 0 0 1 255 6.37v209.167z" fill="#E3CEBC"></path><path d="M147.981 138.392l2.497-5.979a26.44 26.44 0 0 0 7.38-1.212l4.296 4.865c.799.9 2.12 1.09 3.128.466l2.71-1.682 2.71-1.682a2.456 2.456 0 0 0 .972-3.01l-2.454-6.009a25.04 25.04 0 0 0 4.429-6.24l6.408.401a2.455 2.455 0 0 0 2.553-1.897l.731-3.125.732-3.125a2.479 2.479 0 0 0-1.445-2.833l-6.03-2.54c-.06-2.538-.517-5.021-1.246-7.36l4.874-4.205c.9-.8 1.09-2.12.465-3.128l-1.683-2.71-1.681-2.711a2.456 2.456 0 0 0-3.01-.972l-6.043 2.477a26.27 26.27 0 0 0-6.09-4.306l.402-6.41a2.456 2.456 0 0 0-1.897-2.552l-3.125-.732-3.125-.732a2.479 2.479 0 0 0-2.832 1.446l-2.54 6.028c-2.538.06-5.02.518-7.36 1.247l-4.245-4.825a2.454 2.454 0 0 0-3.128-.465l-2.711 1.682-2.71 1.682a2.457 2.457 0 0 0-.972 3.01l2.476 6.043a26.432 26.432 0 0 0-4.237 5.928l-6.466-.414a2.457 2.457 0 0 0-2.553 1.897l-.731 3.125-.732 3.125a2.48 2.48 0 0 0 1.445 2.833l5.978 2.498a26.439 26.439 0 0 0 1.213 7.38l-4.865 4.296c-.9.799-1.09 2.12-.466 3.129l1.682 2.71 1.682 2.711a2.455 2.455 0 0 0 3.009.972l6.009-2.455a26.4 26.4 0 0 0 6.076 4.362l-.415 6.467a2.456 2.456 0 0 0 1.897 2.552l3.125.732 3.125.732c1.143.209 2.326-.405 2.788-1.485zm5.033-46.196c7.565 1.771 12.263 9.339 10.492 16.905-1.77 7.566-9.338 12.264-16.903 10.493-7.565-1.771-12.263-9.339-10.492-16.905 1.771-7.566 9.338-12.264 16.903-10.493zm-33.923 77.581l.657-3.926a16.186 16.186 0 0 0 4.244-1.758l3.25 2.309a1.507 1.507 0 0 0 1.935-.159l1.386-1.386 1.385-1.386a1.506 1.506 0 0 0 .16-1.935l-2.309-3.25a15.42 15.42 0 0 0 1.776-4.352l3.889-.657a1.507 1.507 0 0 0 1.261-1.491v-3.943a1.52 1.52 0 0 0-1.261-1.491l-3.959-.675a16.513 16.513 0 0 0-1.776-4.227l2.326-3.196a1.507 1.507 0 0 0-.159-1.935l-1.386-1.386-1.385-1.386a1.507 1.507 0 0 0-1.936-.16l-3.267 2.327a16.146 16.146 0 0 0-4.244-1.722l-.657-3.89a1.508 1.508 0 0 0-1.491-1.261h-3.942c-.728 0-1.368.533-1.492 1.261l-.674 3.96c-1.51.39-2.93 1.012-4.226 1.776l-3.214-2.291a1.507 1.507 0 0 0-1.935.159l-1.386 1.386-1.386 1.386a1.506 1.506 0 0 0-.159 1.935l2.326 3.268a16.26 16.26 0 0 0-1.704 4.139l-3.925.657a1.507 1.507 0 0 0-1.261 1.491v3.943a1.52 1.52 0 0 0 1.261 1.491l3.925.657c.39 1.51.976 2.93 1.758 4.244l-2.309 3.25a1.507 1.507 0 0 0 .16 1.936l1.385 1.386 1.386 1.386a1.506 1.506 0 0 0 1.935.159l3.25-2.309a16.172 16.172 0 0 0 4.244 1.758l.656 3.926a1.508 1.508 0 0 0 1.492 1.261h3.942a1.565 1.565 0 0 0 1.454-1.279zm-3.453-28.332a8.642 8.642 0 1 1-.002 17.284 8.642 8.642 0 0 1 .002-17.284zm-20.05-10.283l.545-3.802a15.65 15.65 0 0 0 4.055-1.793l3.188 2.153c.593.398 1.38.31 1.864-.199l1.306-1.368 1.305-1.368a1.455 1.455 0 0 0 .11-1.872l-2.303-3.083a14.808 14.808 0 0 0 1.614-4.239l3.738-.723c.7-.136 1.2-.748 1.184-1.469l-.045-1.902-.045-1.902a1.472 1.472 0 0 0-1.251-1.412l-3.837-.561a15.958 15.958 0 0 0-1.81-4.038l2.172-3.138a1.454 1.454 0 0 0-.199-1.864l-1.368-1.305-1.368-1.306a1.452 1.452 0 0 0-1.871-.109l-3.101 2.319a15.552 15.552 0 0 0-4.134-1.566l-.723-3.738c-.136-.7-.748-1.2-1.468-1.184l-1.902.045-1.903.045a1.471 1.471 0 0 0-1.411 1.25l-.561 3.838a15.954 15.954 0 0 0-4.037 1.811l-3.154-2.137a1.454 1.454 0 0 0-1.864.199l-1.305 1.368-1.306 1.368a1.455 1.455 0 0 0-.11 1.872l2.319 3.101a15.686 15.686 0 0 0-1.55 4.031l-3.772.724c-.7.137-1.2.749-1.184 1.469l.045 1.902.045 1.903a1.471 1.471 0 0 0 1.251 1.411l3.801.545a15.672 15.672 0 0 0 1.794 4.055l-2.153 3.189c-.398.593-.31 1.38.199 1.864l1.368 1.306 1.368 1.305a1.452 1.452 0 0 0 1.871.11l3.083-2.303a15.635 15.635 0 0 0 4.135 1.6l.724 3.773c.137.7.749 1.2 1.469 1.184l1.902-.045 1.902-.045a1.517 1.517 0 0 0 1.378-1.269zm-3.98-27.259a8.341 8.341 0 0 1 8.535 8.142 8.34 8.34 0 1 1-16.676.394c-.108-4.605 3.536-8.428 8.141-8.536z" fill="#6C431E" fill-rule="nonzero"></path><path d="M6.37 0h242.26A6.37 6.37 0 0 1 255 6.37v22.932H0V6.37A6.37 6.37 0 0 1 6.37 0z" fill="#CCC"></path><path d="M21.658 15.925a5.733 5.733 0 1 1-11.466 0 5.733 5.733 0 1 1 11.466 0" fill="#E74C3C"></path><path d="M42.042 15.925a5.733 5.733 0 1 1-11.466 0 5.733 5.733 0 1 1 11.466 0" fill="#F1C40F"></path><path d="M61.152 15.925a5.733 5.733 0 1 1-11.466 0 5.733 5.733 0 1 1 11.466 0" fill="#2ECC71"></path></g><g fill="none" fill-rule="evenodd" transform="translate(222,627)"><path d="M255 215.537c0 1.36-.798 2.463-1.784 2.463H1.784C.798 218 0 216.897 0 215.537V6.37A6.37 6.37 0 0 1 6.37 0h242.26A6.37 6.37 0 0 1 255 6.37v209.167z" fill="#FF003C"></path><path d="M6.37 0h242.26A6.37 6.37 0 0 1 255 6.37v22.932H0V6.37A6.37 6.37 0 0 1 6.37 0z" fill="#CCC"></path><path d="M21.658 15.925a5.733 5.733 0 1 1-11.466 0 5.733 5.733 0 1 1 11.466 0" fill="#E74C3C"></path><path d="M42.042 15.925a5.733 5.733 0 1 1-11.466 0 5.733 5.733 0 1 1 11.466 0" fill="#F1C40F"></path><path d="M61.152 15.925a5.733 5.733 0 1 1-11.466 0 5.733 5.733 0 1 1 11.466 0" fill="#2ECC71"></path></g><g fill="none" fill-rule="evenodd" transform="translate(729,627)"><path d="M255 215.537c0 1.36-.798 2.463-1.784 2.463H1.784C.798 218 0 216.897 0 215.537V6.37A6.37 6.37 0 0 1 6.37 0h242.26A6.37 6.37 0 0 1 255 6.37v209.167z" fill="#E3CEBC"></path><path d="M147.981 138.392l2.497-5.979a26.44 26.44 0 0 0 7.38-1.212l4.296 4.865c.799.9 2.12 1.09 3.128.466l2.71-1.682 2.71-1.682a2.456 2.456 0 0 0 .972-3.01l-2.454-6.009a25.04 25.04 0 0 0 4.429-6.24l6.408.401a2.455 2.455 0 0 0 2.553-1.897l.731-3.125.732-3.125a2.479 2.479 0 0 0-1.445-2.833l-6.03-2.54c-.06-2.538-.517-5.021-1.246-7.36l4.874-4.205c.9-.8 1.09-2.12.465-3.128l-1.683-2.71-1.681-2.711a2.456 2.456 0 0 0-3.01-.972l-6.043 2.477a26.27 26.27 0 0 0-6.09-4.306l.402-6.41a2.456 2.456 0 0 0-1.897-2.552l-3.125-.732-3.125-.732a2.479 2.479 0 0 0-2.832 1.446l-2.54 6.028c-2.538.06-5.02.518-7.36 1.247l-4.245-4.825a2.454 2.454 0 0 0-3.128-.465l-2.711 1.682-2.71 1.682a2.457 2.457 0 0 0-.972 3.01l2.476 6.043a26.432 26.432 0 0 0-4.237 5.928l-6.466-.414a2.457 2.457 0 0 0-2.553 1.897l-.731 3.125-.732 3.125a2.48 2.48 0 0 0 1.445 2.833l5.978 2.498a26.439 26.439 0 0 0 1.213 7.38l-4.865 4.296c-.9.799-1.09 2.12-.466 3.129l1.682 2.71 1.682 2.711a2.455 2.455 0 0 0 3.009.972l6.009-2.455a26.4 26.4 0 0 0 6.076 4.362l-.415 6.467a2.456 2.456 0 0 0 1.897 2.552l3.125.732 3.125.732c1.143.209 2.326-.405 2.788-1.485zm5.033-46.196c7.565 1.771 12.263 9.339 10.492 16.905-1.77 7.566-9.338 12.264-16.903 10.493-7.565-1.771-12.263-9.339-10.492-16.905 1.771-7.566 9.338-12.264 16.903-10.493zm-33.923 77.581l.657-3.926a16.186 16.186 0 0 0 4.244-1.758l3.25 2.309a1.507 1.507 0 0 0 1.935-.159l1.386-1.386 1.385-1.386a1.506 1.506 0 0 0 .16-1.935l-2.309-3.25a15.42 15.42 0 0 0 1.776-4.352l3.889-.657a1.507 1.507 0 0 0 1.261-1.491v-3.943a1.52 1.52 0 0 0-1.261-1.491l-3.959-.675a16.513 16.513 0 0 0-1.776-4.227l2.326-3.196a1.507 1.507 0 0 0-.159-1.935l-1.386-1.386-1.385-1.386a1.507 1.507 0 0 0-1.936-.16l-3.267 2.327a16.146 16.146 0 0 0-4.244-1.722l-.657-3.89a1.508 1.508 0 0 0-1.491-1.261h-3.942c-.728 0-1.368.533-1.492 1.261l-.674 3.96c-1.51.39-2.93 1.012-4.226 1.776l-3.214-2.291a1.507 1.507 0 0 0-1.935.159l-1.386 1.386-1.386 1.386a1.506 1.506 0 0 0-.159 1.935l2.326 3.268a16.26 16.26 0 0 0-1.704 4.139l-3.925.657a1.507 1.507 0 0 0-1.261 1.491v3.943a1.52 1.52 0 0 0 1.261 1.491l3.925.657c.39 1.51.976 2.93 1.758 4.244l-2.309 3.25a1.507 1.507 0 0 0 .16 1.936l1.385 1.386 1.386 1.386a1.506 1.506 0 0 0 1.935.159l3.25-2.309a16.172 16.172 0 0 0 4.244 1.758l.656 3.926a1.508 1.508 0 0 0 1.492 1.261h3.942a1.565 1.565 0 0 0 1.454-1.279zm-3.453-28.332a8.642 8.642 0 1 1-.002 17.284 8.642 8.642 0 0 1 .002-17.284zm-20.05-10.283l.545-3.802a15.65 15.65 0 0 0 4.055-1.793l3.188 2.153c.593.398 1.38.31 1.864-.199l1.306-1.368 1.305-1.368a1.455 1.455 0 0 0 .11-1.872l-2.303-3.083a14.808 14.808 0 0 0 1.614-4.239l3.738-.723c.7-.136 1.2-.748 1.184-1.469l-.045-1.902-.045-1.902a1.472 1.472 0 0 0-1.251-1.412l-3.837-.561a15.958 15.958 0 0 0-1.81-4.038l2.172-3.138a1.454 1.454 0 0 0-.199-1.864l-1.368-1.305-1.368-1.306a1.452 1.452 0 0 0-1.871-.109l-3.101 2.319a15.552 15.552 0 0 0-4.134-1.566l-.723-3.738c-.136-.7-.748-1.2-1.468-1.184l-1.902.045-1.903.045a1.471 1.471 0 0 0-1.411 1.25l-.561 3.838a15.954 15.954 0 0 0-4.037 1.811l-3.154-2.137a1.454 1.454 0 0 0-1.864.199l-1.305 1.368-1.306 1.368a1.455 1.455 0 0 0-.11 1.872l2.319 3.101a15.686 15.686 0 0 0-1.55 4.031l-3.772.724c-.7.137-1.2.749-1.184 1.469l.045 1.902.045 1.903a1.471 1.471 0 0 0 1.251 1.411l3.801.545a15.672 15.672 0 0 0 1.794 4.055l-2.153 3.189c-.398.593-.31 1.38.199 1.864l1.368 1.306 1.368 1.305a1.452 1.452 0 0 0 1.871.11l3.083-2.303a15.635 15.635 0 0 0 4.135 1.6l.724 3.773c.137.7.749 1.2 1.469 1.184l1.902-.045 1.902-.045a1.517 1.517 0 0 0 1.378-1.269zm-3.98-27.259a8.341 8.341 0 0 1 8.535 8.142 8.34 8.34 0 1 1-16.676.394c-.108-4.605 3.536-8.428 8.141-8.536z" fill="#6C431E" fill-rule="nonzero"></path><path d="M6.37 0h242.26A6.37 6.37 0 0 1 255 6.37v22.932H0V6.37A6.37 6.37 0 0 1 6.37 0z" fill="#CCC"></path><path d="M21.658 15.925a5.733 5.733 0 1 1-11.466 0 5.733 5.733 0 1 1 11.466 0" fill="#E74C3C"></path><path d="M42.042 15.925a5.733 5.733 0 1 1-11.466 0 5.733 5.733 0 1 1 11.466 0" fill="#F1C40F"></path><path d="M61.152 15.925a5.733 5.733 0 1 1-11.466 0 5.733 5.733 0 1 1 11.466 0" fill="#2ECC71"></path></g><text font-size="32.29" font-weight="bold" letter-spacing="-1.028" fill-rule="evenodd" class="sans-serif"><tspan x="493.249" y="86">HTTP requests</tspan></text><text font-size="32.29" font-weight="bold" letter-spacing="-1.028" fill-rule="evenodd" class="sans-serif"><tspan x="494.749" y="540">HTTP requests</tspan> <tspan x="493.162" y="578">with keep-alive</tspan></text><path stroke="#B8E986" stroke-width="10" d="M477 713.594h252M477 782h252" fill="none" fill-rule="evenodd"></path><ellipse id="anime-dot-1" fill="#B8E986" rx="12.5" ry="12.5" stroke="none" stroke-width="1" fill-rule="evenodd" opacity="0" transform="translate(-0.5,0) translate(477.5,713.5)" style="animation:1.6s linear infinite both anime-dot-1_t, 1.6s linear infinite both anime-dot-1_o"></ellipse><ellipse id="anime-dot-2" fill="#B8E986" rx="12.5" ry="12.5" stroke="none" stroke-width="1" fill-rule="evenodd" opacity="0" transform="translate(251.5,0) translate(477.5,782.5)" style="animation:1.6s linear infinite both anime-dot-2_t, 1.6s linear infinite both anime-dot-2_o"></ellipse></svg>