<svg viewBox="0 0 1200 800" xmlns="http://www.w3.org/2000/svg"><g fill="none" fill-rule="evenodd"><g transform="translate(194.000000, 88.000000)"><g transform="translate(0.500003, 0.801900)"><path fill="#093448" d="M124.74 53.683H86.494L70.724.354h38.243l15.773 53.329"></path><path d="M131.417 153.503c-2.56-1.431-4.392-4.712-4.392-8.532 0-3.223 1.34-6.058 3.275-7.728l-5.56-83.56H77.929l15.064 152.561h41.972l-3.548-52.74" fill="#062C3D"></path><path d="M88.85 144.971c0-3.249 1.301-6.1 3.264-7.763l-5.618-83.525L70.724.354l21.934 205.89h4.063l-3.514-52.747c-2.56-1.433-4.356-4.706-4.356-8.526" fill="#0C3D53"></path><path fill="#E8E7D1" d="M0 631.012h224.269V168.005H0z"></path><path d="M20.812 581.445V219.489c15.666-.911 28.244-13.23 29.53-28.792h124.56c1.265 15.316 13.463 27.505 28.783 28.754v362.031c-15.22 1.244-27.372 13.28-28.77 28.457H50.325c-1.419-15.423-13.948-27.59-29.513-28.494zm-6.316 35.093h195.57v-432.43H14.496v432.43z" fill="#797C6E"></path><path d="M136.31 119.315h-17.027c-.362 0-1.471 0-2.322-.897-.588-.62-.86-1.458-.806-2.49l.552-10.852h-14.25a1.937 1.937 0 0 1 0-3.873h14.848c1.226 0 1.992.533 2.418.98.61.638.93 1.539.885 2.476l-.549 10.78h15.67l.564-10.974c.085-1.622 1.295-3.262 3.446-3.262h8.013a1.937 1.937 0 1 1 0 3.873h-7.612l-.564 11.053c-.099 1.964-1.35 3.186-3.267 3.186m-49.163-14.253h-6.974a1.937 1.937 0 0 1 0-3.872h6.974a1.937 1.937 0 0 1 0 3.872" fill="#809AA5"></path><g transform="translate(47.300001, 339.398107)" fill-rule="nonzero"><path d="M62.844.007A8.374 8.374 0 0 0 59.59.88L15.54 22.16a8.43 8.43 0 0 0-4.544 5.732L.214 75.652A8.34 8.34 0 0 0 1.4 82.164c.15.233.308.457.474.673l30.434 38.325a8.372 8.372 0 0 0 6.569 3.138h48.812c2.553.004 4.972-1.201 6.576-3.174l30.418-38.333a8.31 8.31 0 0 0 1.58-7.15l-10.852-47.8a8.451 8.451 0 0 0-4.546-5.731L66.887.884a8.368 8.368 0 0 0-4.083-.877h.04z" fill="#797C6E"></path><path d="M63.834 16.5c-1.514.107-2.661 1.417-2.583 2.946v.748c.071.848.197 1.688.363 2.52a24.96 24.96 0 0 1 .26 4.817 2.909 2.909 0 0 1-.86 1.373l-.058 1.122a34.065 34.065 0 0 0-4.743.74A33.685 33.685 0 0 0 39.05 40.66l-.946-.677c-.52.16-1.08.1-1.557-.159a24.605 24.605 0 0 1-3.536-3.224 22.007 22.007 0 0 0-1.723-1.851l-.584-.47a3.133 3.133 0 0 0-1.825-.697 2.513 2.513 0 0 0-2.093.94 2.826 2.826 0 0 0 .646 3.913l.544.438c.7.47 1.427.9 2.177 1.285a22.594 22.594 0 0 1 3.934 2.787c.312.45.494.98.524 1.528l.86.797a34.575 34.575 0 0 0-5.354 23.908l-1.104.318a3.63 3.63 0 0 1-1.127 1.147c-1.54.415-3.117.677-4.707.784a21.75 21.75 0 0 0-2.523.199l-.698.159h-.079a2.648 2.648 0 0 0-2.136 1.779 2.686 2.686 0 0 0 .61 2.727c.704.716 1.748.97 2.697.657h.051l.71-.08c.8-.238 1.589-.533 2.357-.867a24.433 24.433 0 0 1 4.581-1.354 2.857 2.857 0 0 1 1.506.538l1.183-.2c2.562 8.03 7.947 14.833 15.138 19.12l-.481 1.015c.22.466.303.983.236 1.497a25.778 25.778 0 0 1-2.377 4.347c-.51.679-.981 1.387-1.411 2.121l-.335.717a2.69 2.69 0 0 0 .073 2.784 2.632 2.632 0 0 0 2.49 1.2 2.646 2.646 0 0 0 2.18-1.72l.326-.676c.3-.796.552-1.608.757-2.428.698-1.74 1.076-3.607 2.03-4.761a2.12 2.12 0 0 1 1.128-.557l.591-1.087a33.674 33.674 0 0 0 24.229.06l.524 1.015c.536.08 1.017.378 1.34.816a25.196 25.196 0 0 1 1.798 4.458c.209.825.464 1.637.765 2.432l.327.677a2.646 2.646 0 0 0 2.182 1.71 2.632 2.632 0 0 0 2.498-1.188 2.69 2.69 0 0 0 .063-2.79l-.343-.717a22.108 22.108 0 0 0-1.412-2.114 28.252 28.252 0 0 1-2.365-4.208 2.087 2.087 0 0 1 .268-1.592 9.166 9.166 0 0 1-.438-1.07c7.175-4.32 12.537-11.147 15.071-19.188l1.12.2a2.08 2.08 0 0 1 1.47-.55c1.565.302 3.099.796 4.581 1.353.769.359 1.557.661 2.358.916.189.052.465.095.678.147h.051c.949.31 1.99.053 2.69-.663.701-.716.943-1.77.625-2.724a2.647 2.647 0 0 0-2.144-1.776l-.765-.183a21.75 21.75 0 0 0-2.523-.199 23.833 23.833 0 0 1-4.707-.784 2.978 2.978 0 0 1-1.135-1.147l-1.065-.318a34.699 34.699 0 0 0-5.464-23.856l.93-.868a2.11 2.11 0 0 1 .49-1.505 24.76 24.76 0 0 1 3.902-2.77 21.91 21.91 0 0 0 2.177-1.286l.575-.47a2.676 2.676 0 0 0 1.232-2.56 2.662 2.662 0 0 0-1.756-2.225 2.623 2.623 0 0 0-2.744.641l-.583.47a22.086 22.086 0 0 0-1.723 1.85 24.69 24.69 0 0 1-3.442 3.277 2.891 2.891 0 0 1-1.592.175l-.998.717c-5.755-6.09-13.51-9.873-21.82-10.629 0-.398-.05-.995-.059-1.182a2.092 2.092 0 0 1-.86-1.322 25.038 25.038 0 0 1 .3-4.804c.17-.836.288-1.672.363-2.52v-.796c.079-1.529-1.064-2.839-2.582-2.946l-.035-.02zm-3.288 20.564l-.789 13.905h-.059c-.04.86-.54 1.592-1.309 2.006-.768.414-1.679.29-2.365-.215L44.73 44.68a26.968 26.968 0 0 1 13.02-7.162c.923-.199 1.854-.35 2.788-.454h.008zm6.575 0a27.19 27.19 0 0 1 15.73 7.66l-11.188 8.028a2.298 2.298 0 0 1-2.437.287 2.344 2.344 0 0 1-1.324-2.086l-.78-13.889zM40.63 49.91l10.328 9.307v.06c.643.565.923 1.445.734 2.285a2.332 2.332 0 0 1-1.644 1.731v.04l-13.254 3.85a27.523 27.523 0 0 1 3.84-17.277l-.004.004zm46.332 0a28.011 28.011 0 0 1 3.95 17.225L77.64 63.273v-.051a2.306 2.306 0 0 1-1.644-1.732 2.37 2.37 0 0 1 .733-2.285l10.25-9.263-.016-.032zM61.717 59.941h4.226l2.582 3.312-.939 4.14-3.796 1.843-3.804-1.843-.895-4.14 2.626-3.312zM75.254 71.24c.177-.02.394-.02.532 0l13.668 2.328c-1.971 5.733-5.862 10.629-10.94 13.905L73.232 74.56a2.369 2.369 0 0 1 .166-2.156 2.322 2.322 0 0 1 1.84-1.105l.016-.06zm-22.955.06a2.317 2.317 0 0 1 1.908 1.066c.422.653.489 1.473.185 2.19v.051l-5.251 12.81a27.344 27.344 0 0 1-10.873-13.761l13.55-2.32c.15-.017.303-.017.457 0l.024-.037zm11.448 5.572a2.322 2.322 0 0 1 2.117 1.226h.051l6.678 12.17-2.669.796a26.928 26.928 0 0 1-14.815-.773l6.702-12.169a2.322 2.322 0 0 1 1.971-1.174l-.035-.076z" stroke="#FFF" stroke-width=".55" fill="#E8E7D1"></path></g><g transform="translate(74.800002, 216.098105)" fill-rule="nonzero" stroke="#797C6E"><path d="M34.98.047c-.63.037-1.245.2-1.81.48L8.65 12.222a4.644 4.644 0 0 0-2.53 3.15l-6 26.249A4.536 4.536 0 0 0 .78 45.2c.083.128.171.25.264.37l16.94 21.062a4.683 4.683 0 0 0 3.656 1.725h27.17a4.764 4.764 0 0 0 3.661-1.744l16.931-21.068a4.523 4.523 0 0 0 .88-3.929l-6.041-26.27a4.656 4.656 0 0 0-2.53-3.15L37.23.529a4.708 4.708 0 0 0-2.272-.482h.022z" stroke-width="4.4"></path><path d="M35.204 8.992a1.55 1.55 0 0 0-1.44 1.628v.414c.039.469.11.933.202 1.393.135.88.183 1.772.145 2.662-.084.292-.25.556-.48.759l-.033.62c-.89.075-1.775.211-2.646.41a18.841 18.841 0 0 0-9.579 5.466l-.528-.374c-.29.088-.603.055-.869-.088a13.684 13.684 0 0 1-1.973-1.782c-.301-.359-.622-.7-.962-1.023l-.325-.26a1.758 1.758 0 0 0-1.019-.384 1.407 1.407 0 0 0-1.168.519 1.552 1.552 0 0 0 .36 2.162l.304.242c.391.26.796.498 1.215.711a12.61 12.61 0 0 1 2.195 1.54c.175.249.276.541.293.845l.48.44a18.961 18.961 0 0 0-2.988 13.213l-.616.176c-.16.255-.374.473-.63.634-.859.23-1.739.374-2.626.433-.471.01-.941.046-1.408.11l-.39.088h-.044a1.474 1.474 0 0 0-.851 2.49c.393.396.975.537 1.505.363h.028l.396-.044c.447-.132.887-.294 1.316-.48a13.72 13.72 0 0 1 2.556-.747c.304.017.594.12.84.297l.66-.11a19.059 19.059 0 0 0 8.449 10.566l-.269.561c.124.258.17.544.132.828-.363.84-.807 1.645-1.326 2.402-.285.375-.548.767-.788 1.173l-.187.396a1.474 1.474 0 0 0 1.43 2.202 1.474 1.474 0 0 0 1.217-.95l.182-.375c.168-.44.308-.888.423-1.342.39-.961.6-1.993 1.133-2.63.174-.164.393-.272.629-.309l.33-.6A18.964 18.964 0 0 0 42 53.27l.293.56c.299.045.567.21.748.452a13.84 13.84 0 0 1 1.003 2.464c.116.455.259.904.427 1.344l.182.374a1.474 1.474 0 0 0 2.612.288 1.474 1.474 0 0 0 .035-1.542l-.191-.396a12.21 12.21 0 0 0-.788-1.168c-.506-.73-.942-1.51-1.32-2.326a1.144 1.144 0 0 1 .15-.88 5.038 5.038 0 0 1-.245-.592 19.084 19.084 0 0 0 8.411-10.604l.625.11c.224-.204.519-.312.82-.303.874.167 1.73.44 2.557.748.429.198.869.365 1.315.506.106.028.26.053.379.081h.028a1.474 1.474 0 0 0 1.85-1.872 1.474 1.474 0 0 0-1.196-.981l-.427-.101c-.467-.064-.937-.1-1.408-.11a13.42 13.42 0 0 1-2.627-.434 1.654 1.654 0 0 1-.633-.633l-.594-.176a19.03 19.03 0 0 0-3.05-13.185l.52-.48a1.16 1.16 0 0 1 .272-.831 13.818 13.818 0 0 1 2.178-1.531c.418-.214.824-.451 1.215-.711l.321-.26a1.474 1.474 0 1 0-1.824-2.29l-.325.26c-.34.322-.661.664-.962 1.023-.58.664-1.223 1.27-1.92 1.81-.282.115-.59.149-.89.097l-.556.396a19.22 19.22 0 0 0-12.177-5.874c0-.22-.028-.55-.033-.653a1.155 1.155 0 0 1-.48-.73c-.03-.89.026-1.778.168-2.656.094-.462.16-.924.202-1.393v-.44a1.55 1.55 0 0 0-1.44-1.628l-.02-.01zM33.37 20.358l-.44 7.684h-.033c-.022.475-.302.88-.73 1.109-.43.229-.938.16-1.32-.119l-6.304-4.466a15.092 15.092 0 0 1 7.267-3.958c.515-.11 1.034-.193 1.555-.25h.005zm3.67 0a15.233 15.233 0 0 1 8.777 4.232l-6.243 4.438a1.293 1.293 0 0 1-2.1-.995l-.435-7.675zm-14.785 7.099l5.764 5.144v.033a1.294 1.294 0 0 1-.508 2.22v.021l-7.396 2.128a15.092 15.092 0 0 1 2.142-9.548l-.002.002zm25.857 0a15.36 15.36 0 0 1 2.204 9.52l-7.407-2.135v-.028a1.28 1.28 0 0 1-.918-.957 1.303 1.303 0 0 1 .41-1.263l5.72-5.12-.01-.017zm-14.089 5.544h2.358l1.441 1.83-.523 2.288-2.119 1.019-2.123-1.019-.5-2.288 1.466-1.83zm7.555 6.244c.099-.011.22-.011.297 0l7.627 1.287c-1.1 3.168-3.271 5.874-6.105 7.684L40.45 41.08a1.298 1.298 0 0 1 1.12-1.801l.009-.033zm-12.81.033a1.292 1.292 0 0 1 1.167 1.8v.028l-2.93 7.08a15.137 15.137 0 0 1-6.068-7.606l7.562-1.283c.083-.008.17-.008.255 0l.013-.02zm6.388 3.08c.49-.016.947.246 1.181.677h.029l3.727 6.726-1.49.44a15.16 15.16 0 0 1-8.267-.427l3.74-6.726a1.298 1.298 0 0 1 1.1-.649l-.02-.041z" stroke-width="1.1" fill="#797C6E"></path></g><g transform="translate(74.800002, 518.598111)" fill-rule="nonzero" stroke="#797C6E"><path d="M34.98.047c-.63.037-1.245.2-1.81.48L8.65 12.222a4.644 4.644 0 0 0-2.53 3.15l-6 26.249A4.536 4.536 0 0 0 .78 45.2c.083.128.171.25.264.37l16.94 21.062a4.683 4.683 0 0 0 3.656 1.725h27.17a4.764 4.764 0 0 0 3.661-1.744l16.931-21.068a4.523 4.523 0 0 0 .88-3.929l-6.041-26.27a4.656 4.656 0 0 0-2.53-3.15L37.23.529a4.708 4.708 0 0 0-2.272-.482h.022z" stroke-width="4.4"></path><path d="M35.204 8.992a1.55 1.55 0 0 0-1.44 1.628v.414c.039.469.11.933.202 1.393.135.88.183 1.772.145 2.662-.084.292-.25.556-.48.759l-.033.62c-.89.075-1.775.211-2.646.41a18.841 18.841 0 0 0-9.579 5.466l-.528-.374c-.29.088-.603.055-.869-.088a13.684 13.684 0 0 1-1.973-1.782c-.301-.359-.622-.7-.962-1.023l-.325-.26a1.758 1.758 0 0 0-1.019-.384 1.407 1.407 0 0 0-1.168.519 1.552 1.552 0 0 0 .36 2.162l.304.242c.391.26.796.498 1.215.711a12.61 12.61 0 0 1 2.195 1.54c.175.249.276.541.293.845l.48.44a18.961 18.961 0 0 0-2.988 13.213l-.616.176c-.16.255-.374.473-.63.634-.859.23-1.739.374-2.626.433-.471.01-.941.046-1.408.11l-.39.088h-.044a1.474 1.474 0 0 0-.851 2.49c.393.396.975.537 1.505.363h.028l.396-.044c.447-.132.887-.294 1.316-.48a13.72 13.72 0 0 1 2.556-.747c.304.017.594.12.84.297l.66-.11a19.059 19.059 0 0 0 8.449 10.566l-.269.561c.124.258.17.544.132.828-.363.84-.807 1.645-1.326 2.402-.285.375-.548.767-.788 1.173l-.187.396a1.474 1.474 0 0 0 1.43 2.202 1.474 1.474 0 0 0 1.217-.95l.182-.375c.168-.44.308-.888.423-1.342.39-.961.6-1.993 1.133-2.63.174-.164.393-.272.629-.309l.33-.6A18.964 18.964 0 0 0 42 53.27l.293.56c.299.045.567.21.748.452a13.84 13.84 0 0 1 1.003 2.464c.116.455.259.904.427 1.344l.182.374a1.474 1.474 0 0 0 2.612.288 1.474 1.474 0 0 0 .035-1.542l-.191-.396a12.21 12.21 0 0 0-.788-1.168c-.506-.73-.942-1.51-1.32-2.326a1.144 1.144 0 0 1 .15-.88 5.038 5.038 0 0 1-.245-.592 19.084 19.084 0 0 0 8.411-10.604l.625.11c.224-.204.519-.312.82-.303.874.167 1.73.44 2.557.748.429.198.869.365 1.315.506.106.028.26.053.379.081h.028a1.474 1.474 0 0 0 1.85-1.872 1.474 1.474 0 0 0-1.196-.981l-.427-.101c-.467-.064-.937-.1-1.408-.11a13.42 13.42 0 0 1-2.627-.434 1.654 1.654 0 0 1-.633-.633l-.594-.176a19.03 19.03 0 0 0-3.05-13.185l.52-.48a1.16 1.16 0 0 1 .272-.831 13.818 13.818 0 0 1 2.178-1.531c.418-.214.824-.451 1.215-.711l.321-.26a1.474 1.474 0 1 0-1.824-2.29l-.325.26c-.34.322-.661.664-.962 1.023-.58.664-1.223 1.27-1.92 1.81-.282.115-.59.149-.89.097l-.556.396a19.22 19.22 0 0 0-12.177-5.874c0-.22-.028-.55-.033-.653a1.155 1.155 0 0 1-.48-.73c-.03-.89.026-1.778.168-2.656.094-.462.16-.924.202-1.393v-.44a1.55 1.55 0 0 0-1.44-1.628l-.02-.01zM33.37 20.358l-.44 7.684h-.033c-.022.475-.302.88-.73 1.109-.43.229-.938.16-1.32-.119l-6.304-4.466a15.092 15.092 0 0 1 7.267-3.958c.515-.11 1.034-.193 1.555-.25h.005zm3.67 0a15.233 15.233 0 0 1 8.777 4.232l-6.243 4.438a1.293 1.293 0 0 1-2.1-.995l-.435-7.675zm-14.785 7.099l5.764 5.144v.033a1.294 1.294 0 0 1-.508 2.22v.021l-7.396 2.128a15.092 15.092 0 0 1 2.142-9.548l-.002.002zm25.857 0a15.36 15.36 0 0 1 2.204 9.52l-7.407-2.135v-.028a1.28 1.28 0 0 1-.918-.957 1.303 1.303 0 0 1 .41-1.263l5.72-5.12-.01-.017zm-14.089 5.544h2.358l1.441 1.83-.523 2.288-2.119 1.019-2.123-1.019-.5-2.288 1.466-1.83zm7.555 6.244c.099-.011.22-.011.297 0l7.627 1.287c-1.1 3.168-3.271 5.874-6.105 7.684L40.45 41.08a1.298 1.298 0 0 1 1.12-1.801l.009-.033zm-12.81.033a1.292 1.292 0 0 1 1.167 1.8v.028l-2.93 7.08a15.137 15.137 0 0 1-6.068-7.606l7.562-1.283c.083-.008.17-.008.255 0l.013-.02zm6.388 3.08c.49-.016.947.246 1.181.677h.029l3.727 6.726-1.49.44a15.16 15.16 0 0 1-8.267-.427l3.74-6.726a1.298 1.298 0 0 1 1.1-.649l-.02-.041z" stroke-width="1.1" fill="#797C6E"></path></g></g><g transform="translate(275.500009, 0.801900)"><path fill="#093448" d="M124.74 53.683H86.494L70.724.354h38.243l15.773 53.329"></path><path d="M131.417 153.503c-2.56-1.431-4.392-4.712-4.392-8.532 0-3.223 1.34-6.058 3.275-7.728l-5.56-83.56H77.929l15.064 152.561h41.972l-3.548-52.74" fill="#062C3D"></path><path d="M88.85 144.971c0-3.249 1.301-6.1 3.264-7.763l-5.618-83.525L70.724.354l21.934 205.89h4.063l-3.514-52.747c-2.56-1.433-4.356-4.706-4.356-8.526" fill="#0C3D53"></path><path fill="#E8E7D1" d="M0 631.012h224.269V168.005H0z"></path><path d="M20.812 581.445V219.489c15.666-.911 28.244-13.23 29.53-28.792h124.56c1.265 15.316 13.463 27.505 28.783 28.754v362.031c-15.22 1.244-27.372 13.28-28.77 28.457H50.325c-1.419-15.423-13.948-27.59-29.513-28.494zm-6.316 35.093h195.57v-432.43H14.496v432.43z" fill="#797C6E"></path><path d="M87.146 105.062h-6.974a1.937 1.937 0 0 1 0-3.872h6.974a1.937 1.937 0 0 1 0 3.872" fill="#809AA5"></path><g transform="translate(47.300001, 339.398107)" fill-rule="nonzero"><path d="M62.844.007A8.374 8.374 0 0 0 59.59.88L15.54 22.16a8.43 8.43 0 0 0-4.544 5.732L.214 75.652A8.34 8.34 0 0 0 1.4 82.164c.15.233.308.457.474.673l30.434 38.325a8.372 8.372 0 0 0 6.569 3.138h48.812c2.553.004 4.972-1.201 6.576-3.174l30.418-38.333a8.31 8.31 0 0 0 1.58-7.15l-10.852-47.8a8.451 8.451 0 0 0-4.546-5.731L66.887.884a8.368 8.368 0 0 0-4.083-.877h.04z" fill="#797C6E"></path><path d="M63.834 16.5c-1.514.107-2.661 1.417-2.583 2.946v.748c.071.848.197 1.688.363 2.52a24.96 24.96 0 0 1 .26 4.817 2.909 2.909 0 0 1-.86 1.373l-.058 1.122a34.065 34.065 0 0 0-4.743.74A33.685 33.685 0 0 0 39.05 40.66l-.946-.677c-.52.16-1.08.1-1.557-.159a24.605 24.605 0 0 1-3.536-3.224 22.007 22.007 0 0 0-1.723-1.851l-.584-.47a3.133 3.133 0 0 0-1.825-.697 2.513 2.513 0 0 0-2.093.94 2.826 2.826 0 0 0 .646 3.913l.544.438c.7.47 1.427.9 2.177 1.285a22.594 22.594 0 0 1 3.934 2.787c.312.45.494.98.524 1.528l.86.797a34.575 34.575 0 0 0-5.354 23.908l-1.104.318a3.63 3.63 0 0 1-1.127 1.147c-1.54.415-3.117.677-4.707.784a21.75 21.75 0 0 0-2.523.199l-.698.159h-.079a2.648 2.648 0 0 0-2.136 1.779 2.686 2.686 0 0 0 .61 2.727c.704.716 1.748.97 2.697.657h.051l.71-.08c.8-.238 1.589-.533 2.357-.867a24.433 24.433 0 0 1 4.581-1.354 2.857 2.857 0 0 1 1.506.538l1.183-.2c2.562 8.03 7.947 14.833 15.138 19.12l-.481 1.015c.22.466.303.983.236 1.497a25.778 25.778 0 0 1-2.377 4.347c-.51.679-.981 1.387-1.411 2.121l-.335.717a2.69 2.69 0 0 0 .073 2.784 2.632 2.632 0 0 0 2.49 1.2 2.646 2.646 0 0 0 2.18-1.72l.326-.676c.3-.796.552-1.608.757-2.428.698-1.74 1.076-3.607 2.03-4.761a2.12 2.12 0 0 1 1.128-.557l.591-1.087a33.674 33.674 0 0 0 24.229.06l.524 1.015c.536.08 1.017.378 1.34.816a25.196 25.196 0 0 1 1.798 4.458c.209.825.464 1.637.765 2.432l.327.677a2.646 2.646 0 0 0 2.182 1.71 2.632 2.632 0 0 0 2.498-1.188 2.69 2.69 0 0 0 .063-2.79l-.343-.717a22.108 22.108 0 0 0-1.412-2.114 28.252 28.252 0 0 1-2.365-4.208 2.087 2.087 0 0 1 .268-1.592 9.166 9.166 0 0 1-.438-1.07c7.175-4.32 12.537-11.147 15.071-19.188l1.12.2a2.08 2.08 0 0 1 1.47-.55c1.565.302 3.099.796 4.581 1.353.769.359 1.557.661 2.358.916.189.052.465.095.678.147h.051c.949.31 1.99.053 2.69-.663.701-.716.943-1.77.625-2.724a2.647 2.647 0 0 0-2.144-1.776l-.765-.183a21.75 21.75 0 0 0-2.523-.199 23.833 23.833 0 0 1-4.707-.784 2.978 2.978 0 0 1-1.135-1.147l-1.065-.318a34.699 34.699 0 0 0-5.464-23.856l.93-.868a2.11 2.11 0 0 1 .49-1.505 24.76 24.76 0 0 1 3.902-2.77 21.91 21.91 0 0 0 2.177-1.286l.575-.47a2.676 2.676 0 0 0 1.232-2.56 2.662 2.662 0 0 0-1.756-2.225 2.623 2.623 0 0 0-2.744.641l-.583.47a22.086 22.086 0 0 0-1.723 1.85 24.69 24.69 0 0 1-3.442 3.277 2.891 2.891 0 0 1-1.592.175l-.998.717c-5.755-6.09-13.51-9.873-21.82-10.629 0-.398-.05-.995-.059-1.182a2.092 2.092 0 0 1-.86-1.322 25.038 25.038 0 0 1 .3-4.804c.17-.836.288-1.672.363-2.52v-.796c.079-1.529-1.064-2.839-2.582-2.946l-.035-.02zm-3.288 20.564l-.789 13.905h-.059c-.04.86-.54 1.592-1.309 2.006-.768.414-1.679.29-2.365-.215L44.73 44.68a26.968 26.968 0 0 1 13.02-7.162c.923-.199 1.854-.35 2.788-.454h.008zm6.575 0a27.19 27.19 0 0 1 15.73 7.66l-11.188 8.028a2.298 2.298 0 0 1-2.437.287 2.344 2.344 0 0 1-1.324-2.086l-.78-13.889zM40.63 49.91l10.328 9.307v.06c.643.565.923 1.445.734 2.285a2.332 2.332 0 0 1-1.644 1.731v.04l-13.254 3.85a27.523 27.523 0 0 1 3.84-17.277l-.004.004zm46.332 0a28.011 28.011 0 0 1 3.95 17.225L77.64 63.273v-.051a2.306 2.306 0 0 1-1.644-1.732 2.37 2.37 0 0 1 .733-2.285l10.25-9.263-.016-.032zM61.717 59.941h4.226l2.582 3.312-.939 4.14-3.796 1.843-3.804-1.843-.895-4.14 2.626-3.312zM75.254 71.24c.177-.02.394-.02.532 0l13.668 2.328c-1.971 5.733-5.862 10.629-10.94 13.905L73.232 74.56a2.369 2.369 0 0 1 .166-2.156 2.322 2.322 0 0 1 1.84-1.105l.016-.06zm-22.955.06a2.317 2.317 0 0 1 1.908 1.066c.422.653.489 1.473.185 2.19v.051l-5.251 12.81a27.344 27.344 0 0 1-10.873-13.761l13.55-2.32c.15-.017.303-.017.457 0l.024-.037zm11.448 5.572a2.322 2.322 0 0 1 2.117 1.226h.051l6.678 12.17-2.669.796a26.928 26.928 0 0 1-14.815-.773l6.702-12.169a2.322 2.322 0 0 1 1.971-1.174l-.035-.076z" stroke="#FFF" stroke-width=".55" fill="#E8E7D1"></path></g><g transform="translate(74.800002, 216.098105)" fill-rule="nonzero" stroke="#797C6E"><path d="M34.98.047c-.63.037-1.245.2-1.81.48L8.65 12.222a4.644 4.644 0 0 0-2.53 3.15l-6 26.249A4.536 4.536 0 0 0 .78 45.2c.083.128.171.25.264.37l16.94 21.062a4.683 4.683 0 0 0 3.656 1.725h27.17a4.764 4.764 0 0 0 3.661-1.744l16.931-21.068a4.523 4.523 0 0 0 .88-3.929l-6.041-26.27a4.656 4.656 0 0 0-2.53-3.15L37.23.529a4.708 4.708 0 0 0-2.272-.482h.022z" stroke-width="4.4"></path><path d="M35.204 8.992a1.55 1.55 0 0 0-1.44 1.628v.414c.039.469.11.933.202 1.393.135.88.183 1.772.145 2.662-.084.292-.25.556-.48.759l-.033.62c-.89.075-1.775.211-2.646.41a18.841 18.841 0 0 0-9.579 5.466l-.528-.374c-.29.088-.603.055-.869-.088a13.684 13.684 0 0 1-1.973-1.782c-.301-.359-.622-.7-.962-1.023l-.325-.26a1.758 1.758 0 0 0-1.019-.384 1.407 1.407 0 0 0-1.168.519 1.552 1.552 0 0 0 .36 2.162l.304.242c.391.26.796.498 1.215.711a12.61 12.61 0 0 1 2.195 1.54c.175.249.276.541.293.845l.48.44a18.961 18.961 0 0 0-2.988 13.213l-.616.176c-.16.255-.374.473-.63.634-.859.23-1.739.374-2.626.433-.471.01-.941.046-1.408.11l-.39.088h-.044a1.474 1.474 0 0 0-.851 2.49c.393.396.975.537 1.505.363h.028l.396-.044c.447-.132.887-.294 1.316-.48a13.72 13.72 0 0 1 2.556-.747c.304.017.594.12.84.297l.66-.11a19.059 19.059 0 0 0 8.449 10.566l-.269.561c.124.258.17.544.132.828-.363.84-.807 1.645-1.326 2.402-.285.375-.548.767-.788 1.173l-.187.396a1.474 1.474 0 0 0 1.43 2.202 1.474 1.474 0 0 0 1.217-.95l.182-.375c.168-.44.308-.888.423-1.342.39-.961.6-1.993 1.133-2.63.174-.164.393-.272.629-.309l.33-.6A18.964 18.964 0 0 0 42 53.27l.293.56c.299.045.567.21.748.452a13.84 13.84 0 0 1 1.003 2.464c.116.455.259.904.427 1.344l.182.374a1.474 1.474 0 0 0 2.612.288 1.474 1.474 0 0 0 .035-1.542l-.191-.396a12.21 12.21 0 0 0-.788-1.168c-.506-.73-.942-1.51-1.32-2.326a1.144 1.144 0 0 1 .15-.88 5.038 5.038 0 0 1-.245-.592 19.084 19.084 0 0 0 8.411-10.604l.625.11c.224-.204.519-.312.82-.303.874.167 1.73.44 2.557.748.429.198.869.365 1.315.506.106.028.26.053.379.081h.028a1.474 1.474 0 0 0 1.85-1.872 1.474 1.474 0 0 0-1.196-.981l-.427-.101c-.467-.064-.937-.1-1.408-.11a13.42 13.42 0 0 1-2.627-.434 1.654 1.654 0 0 1-.633-.633l-.594-.176a19.03 19.03 0 0 0-3.05-13.185l.52-.48a1.16 1.16 0 0 1 .272-.831 13.818 13.818 0 0 1 2.178-1.531c.418-.214.824-.451 1.215-.711l.321-.26a1.474 1.474 0 1 0-1.824-2.29l-.325.26c-.34.322-.661.664-.962 1.023-.58.664-1.223 1.27-1.92 1.81-.282.115-.59.149-.89.097l-.556.396a19.22 19.22 0 0 0-12.177-5.874c0-.22-.028-.55-.033-.653a1.155 1.155 0 0 1-.48-.73c-.03-.89.026-1.778.168-2.656.094-.462.16-.924.202-1.393v-.44a1.55 1.55 0 0 0-1.44-1.628l-.02-.01zM33.37 20.358l-.44 7.684h-.033c-.022.475-.302.88-.73 1.109-.43.229-.938.16-1.32-.119l-6.304-4.466a15.092 15.092 0 0 1 7.267-3.958c.515-.11 1.034-.193 1.555-.25h.005zm3.67 0a15.233 15.233 0 0 1 8.777 4.232l-6.243 4.438a1.293 1.293 0 0 1-2.1-.995l-.435-7.675zm-14.785 7.099l5.764 5.144v.033a1.294 1.294 0 0 1-.508 2.22v.021l-7.396 2.128a15.092 15.092 0 0 1 2.142-9.548l-.002.002zm25.857 0a15.36 15.36 0 0 1 2.204 9.52l-7.407-2.135v-.028a1.28 1.28 0 0 1-.918-.957 1.303 1.303 0 0 1 .41-1.263l5.72-5.12-.01-.017zm-14.089 5.544h2.358l1.441 1.83-.523 2.288-2.119 1.019-2.123-1.019-.5-2.288 1.466-1.83zm7.555 6.244c.099-.011.22-.011.297 0l7.627 1.287c-1.1 3.168-3.271 5.874-6.105 7.684L40.45 41.08a1.298 1.298 0 0 1 1.12-1.801l.009-.033zm-12.81.033a1.292 1.292 0 0 1 1.167 1.8v.028l-2.93 7.08a15.137 15.137 0 0 1-6.068-7.606l7.562-1.283c.083-.008.17-.008.255 0l.013-.02zm6.388 3.08c.49-.016.947.246 1.181.677h.029l3.727 6.726-1.49.44a15.16 15.16 0 0 1-8.267-.427l3.74-6.726a1.298 1.298 0 0 1 1.1-.649l-.02-.041z" stroke-width="1.1" fill="#797C6E"></path></g><g transform="translate(74.800002, 518.598111)" fill-rule="nonzero" stroke="#797C6E"><path d="M34.98.047c-.63.037-1.245.2-1.81.48L8.65 12.222a4.644 4.644 0 0 0-2.53 3.15l-6 26.249A4.536 4.536 0 0 0 .78 45.2c.083.128.171.25.264.37l16.94 21.062a4.683 4.683 0 0 0 3.656 1.725h27.17a4.764 4.764 0 0 0 3.661-1.744l16.931-21.068a4.523 4.523 0 0 0 .88-3.929l-6.041-26.27a4.656 4.656 0 0 0-2.53-3.15L37.23.529a4.708 4.708 0 0 0-2.272-.482h.022z" stroke-width="4.4"></path><path d="M35.204 8.992a1.55 1.55 0 0 0-1.44 1.628v.414c.039.469.11.933.202 1.393.135.88.183 1.772.145 2.662-.084.292-.25.556-.48.759l-.033.62c-.89.075-1.775.211-2.646.41a18.841 18.841 0 0 0-9.579 5.466l-.528-.374c-.29.088-.603.055-.869-.088a13.684 13.684 0 0 1-1.973-1.782c-.301-.359-.622-.7-.962-1.023l-.325-.26a1.758 1.758 0 0 0-1.019-.384 1.407 1.407 0 0 0-1.168.519 1.552 1.552 0 0 0 .36 2.162l.304.242c.391.26.796.498 1.215.711a12.61 12.61 0 0 1 2.195 1.54c.175.249.276.541.293.845l.48.44a18.961 18.961 0 0 0-2.988 13.213l-.616.176c-.16.255-.374.473-.63.634-.859.23-1.739.374-2.626.433-.471.01-.941.046-1.408.11l-.39.088h-.044a1.474 1.474 0 0 0-.851 2.49c.393.396.975.537 1.505.363h.028l.396-.044c.447-.132.887-.294 1.316-.48a13.72 13.72 0 0 1 2.556-.747c.304.017.594.12.84.297l.66-.11a19.059 19.059 0 0 0 8.449 10.566l-.269.561c.124.258.17.544.132.828-.363.84-.807 1.645-1.326 2.402-.285.375-.548.767-.788 1.173l-.187.396a1.474 1.474 0 0 0 1.43 2.202 1.474 1.474 0 0 0 1.217-.95l.182-.375c.168-.44.308-.888.423-1.342.39-.961.6-1.993 1.133-2.63.174-.164.393-.272.629-.309l.33-.6A18.964 18.964 0 0 0 42 53.27l.293.56c.299.045.567.21.748.452a13.84 13.84 0 0 1 1.003 2.464c.116.455.259.904.427 1.344l.182.374a1.474 1.474 0 0 0 2.612.288 1.474 1.474 0 0 0 .035-1.542l-.191-.396a12.21 12.21 0 0 0-.788-1.168c-.506-.73-.942-1.51-1.32-2.326a1.144 1.144 0 0 1 .15-.88 5.038 5.038 0 0 1-.245-.592 19.084 19.084 0 0 0 8.411-10.604l.625.11c.224-.204.519-.312.82-.303.874.167 1.73.44 2.557.748.429.198.869.365 1.315.506.106.028.26.053.379.081h.028a1.474 1.474 0 0 0 1.85-1.872 1.474 1.474 0 0 0-1.196-.981l-.427-.101c-.467-.064-.937-.1-1.408-.11a13.42 13.42 0 0 1-2.627-.434 1.654 1.654 0 0 1-.633-.633l-.594-.176a19.03 19.03 0 0 0-3.05-13.185l.52-.48a1.16 1.16 0 0 1 .272-.831 13.818 13.818 0 0 1 2.178-1.531c.418-.214.824-.451 1.215-.711l.321-.26a1.474 1.474 0 1 0-1.824-2.29l-.325.26c-.34.322-.661.664-.962 1.023-.58.664-1.223 1.27-1.92 1.81-.282.115-.59.149-.89.097l-.556.396a19.22 19.22 0 0 0-12.177-5.874c0-.22-.028-.55-.033-.653a1.155 1.155 0 0 1-.48-.73c-.03-.89.026-1.778.168-2.656.094-.462.16-.924.202-1.393v-.44a1.55 1.55 0 0 0-1.44-1.628l-.02-.01zM33.37 20.358l-.44 7.684h-.033c-.022.475-.302.88-.73 1.109-.43.229-.938.16-1.32-.119l-6.304-4.466a15.092 15.092 0 0 1 7.267-3.958c.515-.11 1.034-.193 1.555-.25h.005zm3.67 0a15.233 15.233 0 0 1 8.777 4.232l-6.243 4.438a1.293 1.293 0 0 1-2.1-.995l-.435-7.675zm-14.785 7.099l5.764 5.144v.033a1.294 1.294 0 0 1-.508 2.22v.021l-7.396 2.128a15.092 15.092 0 0 1 2.142-9.548l-.002.002zm25.857 0a15.36 15.36 0 0 1 2.204 9.52l-7.407-2.135v-.028a1.28 1.28 0 0 1-.918-.957 1.303 1.303 0 0 1 .41-1.263l5.72-5.12-.01-.017zm-14.089 5.544h2.358l1.441 1.83-.523 2.288-2.119 1.019-2.123-1.019-.5-2.288 1.466-1.83zm7.555 6.244c.099-.011.22-.011.297 0l7.627 1.287c-1.1 3.168-3.271 5.874-6.105 7.684L40.45 41.08a1.298 1.298 0 0 1 1.12-1.801l.009-.033zm-12.81.033a1.292 1.292 0 0 1 1.167 1.8v.028l-2.93 7.08a15.137 15.137 0 0 1-6.068-7.606l7.562-1.283c.083-.008.17-.008.255 0l.013-.02zm6.388 3.08c.49-.016.947.246 1.181.677h.029l3.727 6.726-1.49.44a15.16 15.16 0 0 1-8.267-.427l3.74-6.726a1.298 1.298 0 0 1 1.1-.649l-.02-.041z" stroke-width="1.1" fill="#797C6E"></path></g></g></g><g transform="translate(757.000000, 83.000000)"><path fill="#093448" d="M123.336 53.683H85.092L69.32.354h38.245l15.771 53.329"></path><path d="M130.012 153.503c-2.558-1.431-4.39-4.712-4.39-8.532 0-3.223 1.34-6.058 3.276-7.728l-5.562-83.56H76.525l15.064 152.561h41.974l-3.55-52.74" fill="#062C3D"></path><path d="M87.448 144.971c0-3.249 1.3-6.1 3.263-7.763l-5.619-83.525L69.32.354l21.934 205.89h4.065l-3.517-52.749c-2.558-1.431-4.354-4.704-4.354-8.524" fill="#0C3D53"></path><path d="M17.275 636.764c48.063-154.735-51.89-308.255-3.827-462.992l224.26-1.853c-48.062 154.735 51.89 308.254 3.828 462.99-74.755.62-149.508 1.237-224.26 1.855" fill="#E8E7D1"></path><path d="M48.799 586.933c15.45-120.78-40.19-240.98-25.489-361.754 15.805-1.053 29.7-13.474 34.445-29.078 41.516-.343 83.035-.685 124.553-1.03-2.144 15.322 8.73 27.443 23.871 28.558-14.717 120.802 40.949 241.023 25.479 361.829-15.414 1.386-28.952 13.525-33.8 28.738l-124.586 1.031c2.093-15.45-9.065-27.504-24.473-28.294zM219.018 188.18c-65.186.538-130.375 1.077-195.563 1.618-35.608 144.443 48.916 287.892 12.399 432.34l195.562-1.615c36.518-144.453-48.007-287.902-12.398-432.343z" fill="#797C6E"></path><path d="M85.742 105.062H78.77a1.937 1.937 0 0 1 0-3.872h6.972a1.937 1.937 0 0 1 0 3.872" fill="#809AA5"></path><g transform="translate(59.400001, 341.598107)" fill-rule="nonzero"><path d="M67.871.314a9.998 9.998 0 0 0-3.513.943l-47.573 21.56c-2.484 1.1-4.29 3.142-4.909 5.55L.232 73.857c-.555 2.124-.107 4.357 1.28 6.192.162.222.333.436.512.643l32.868 37.204c1.738 1.973 4.346 3.148 7.095 3.208l52.717 1.374c2.757.076 5.37-1.05 7.103-2.962l32.85-37.72c1.725-2 2.37-4.654 1.708-7.18l-11.722-47.923c-.619-2.508-2.433-4.589-4.908-5.656L72.238 1.058a9.693 9.693 0 0 0-4.41-.743l.043-.001z" fill="#797C6E"></path><path d="M68.94 16.41c-1.635.137-2.874 1.44-2.789 2.93v.732c.077.826.213 1.644.392 2.454.261 1.552.355 3.126.281 4.7a2.87 2.87 0 0 1-.928 1.354l-.064 1.097a40.83 40.83 0 0 0-5.122.79c-7.093 1.548-13.551 4.96-18.537 9.805l-1.022-.644a2.411 2.411 0 0 1-1.682-.138 25.515 25.515 0 0 1-3.819-3.072 21.921 21.921 0 0 0-1.86-1.763l-.63-.445a3.594 3.594 0 0 0-1.972-.647c-.87-.03-1.71.315-2.26.93-.962 1.223-.647 2.899.698 3.753l.588.415c.756.446 1.54.851 2.35 1.215a24.183 24.183 0 0 1 4.249 2.648c.337.431.533.94.566 1.47l.928.76c-5.011 6.804-7.067 15.003-5.782 23.052l-1.192.303a3.7 3.7 0 0 1-1.217 1.098 29.136 29.136 0 0 1-5.084.735 26.41 26.41 0 0 0-2.725.18l-.753.15h-.085c-1.067.128-1.96.782-2.308 1.692-.348.91-.093 1.92.66 2.614.76.69 1.887.94 2.912.646h.055l.767-.071a24.278 24.278 0 0 0 2.546-.817 28.907 28.907 0 0 1 4.947-1.274c.588.034 1.15.217 1.626.526l1.278-.185c2.767 7.756 8.583 14.383 16.349 18.63l-.52.978c.239.455.328.958.256 1.455a23.758 23.758 0 0 1-2.568 4.174 21.073 21.073 0 0 0-1.524 2.029l-.362.687c-.535.831-.505 1.873.08 2.697.583.824 1.622 1.293 2.688 1.213 1.068-.089 1.979-.716 2.354-1.624l.353-.65c.324-.766.597-1.55.818-2.342.754-1.676 1.162-3.482 2.193-4.587a2.36 2.36 0 0 1 1.217-.523l.639-1.048c8.418 3.074 17.733 3.24 26.167.436l.566 1.007a2.295 2.295 0 0 1 1.448.824 23.967 23.967 0 0 1 1.941 4.421c.225.816.501 1.621.826 2.41l.353.674c.38.932 1.29 1.6 2.356 1.73 1.067.128 2.11-.305 2.698-1.122a2.46 2.46 0 0 0 .068-2.754l-.37-.714a22.24 22.24 0 0 0-1.524-2.112 27.964 27.964 0 0 1-2.555-4.19 1.893 1.893 0 0 1 .29-1.565 8.66 8.66 0 0 1-.473-1.062c7.749-4.167 13.539-10.867 16.277-18.823l1.209.204a2.353 2.353 0 0 1 1.588-.537c1.69.31 3.346.81 4.947 1.373.83.362 1.682.668 2.546.927.204.053.502.099.732.152h.056c1.025.315 2.148.066 2.905-.644.757-.71 1.018-1.762.675-2.717-.35-.953-1.247-1.643-2.316-1.782l-.826-.186a25.409 25.409 0 0 0-2.725-.209 27.867 27.867 0 0 1-5.083-.8 3.114 3.114 0 0 1-1.226-1.142l-1.15-.32c1.226-8.302-.874-16.728-5.9-23.648l1.004-.867a1.994 1.994 0 0 1 .528-1.495 27.336 27.336 0 0 1 4.215-2.786c.809-.39 1.594-.825 2.35-1.3l.622-.473c.934-.548 1.452-1.544 1.33-2.56-.12-1.014-.858-1.866-1.897-2.19-1.037-.323-2.19-.061-2.963.672l-.63.474a23.27 23.27 0 0 0-1.86 1.857 26.094 26.094 0 0 1-3.717 3.284c-.545.21-1.14.276-1.72.19l-1.078.718c-6.216-5.95-14.59-9.57-23.565-10.191 0-.39-.055-.974-.064-1.157a2.005 2.005 0 0 1-.928-1.28c-.06-1.572.05-3.149.324-4.707.183-.821.31-1.642.391-2.473v-.78c.085-1.497-1.15-2.756-2.788-2.83l-.039-.018zm-3.55 20.144l-.852 13.577h-.064c-.043.84-.583 1.557-1.413 1.964-.83.407-1.814.29-2.555-.2l-12.198-7.782c3.883-3.49 8.753-5.945 14.063-7.085a33.094 33.094 0 0 1 3.01-.474h.008zm7.101-.075c6.408.663 12.372 3.25 16.988 7.374L77.396 51.82a2.69 2.69 0 0 1-2.631.292c-.865-.371-1.418-1.165-1.431-2.038l-.843-13.595zm-28.61 12.725l11.154 8.988v.058c.694.549.996 1.404.792 2.22-.204.817-.894 1.463-1.775 1.683v.039l-14.314 3.71c-.709-5.822.75-11.693 4.147-16.701l-.005.003zm50.038-.258c3.39 5.083 4.888 11.067 4.266 17.03l-14.335-3.83v-.05c-.894-.224-1.575-.878-1.775-1.704-.2-.825.098-1.683.792-2.247l11.07-9.168-.018-.031zm-27.265 9.939l4.564-.005 2.789 3.243-1.014 4.054-4.1 1.793-4.108-1.81-.967-4.042 2.836-3.233zm14.62 11.09c.192-.02.426-.019.575.002l14.761 2.36c-2.129 5.655-6.331 10.456-11.815 13.63l-5.705-12.74a2.14 2.14 0 0 1 .18-2.117c.43-.635 1.172-1.036 1.987-1.077l.017-.059zm-24.791-.036c.834.014 1.605.409 2.06 1.046.456.637.528 1.436.2 2.132v.05l-5.67 12.41c-5.43-3.208-9.55-7.923-11.743-13.42l14.633-2.185a2.63 2.63 0 0 1 .494.001l.026-.034zm12.364 5.495c.948-.021 1.833.448 2.286 1.214h.055L78.4 88.642l-2.882.747a32.097 32.097 0 0 1-16-.946l7.238-11.8c.439-.698 1.248-1.12 2.129-1.135l-.038-.074z" stroke="#FFF" stroke-width=".594" fill="#E8E7D1"></path></g><g transform="translate(79.200002, 221.598105)" fill-rule="nonzero" stroke="#797C6E"><path d="M34.98.047c-.63.037-1.245.2-1.81.48L8.65 12.222a4.644 4.644 0 0 0-2.53 3.15l-6 26.249A4.536 4.536 0 0 0 .78 45.2c.083.128.171.25.264.37l16.94 21.062a4.683 4.683 0 0 0 3.656 1.725h27.17a4.764 4.764 0 0 0 3.661-1.744l16.931-21.068a4.523 4.523 0 0 0 .88-3.929l-6.041-26.27a4.656 4.656 0 0 0-2.53-3.15L37.23.529a4.708 4.708 0 0 0-2.272-.482h.022z" stroke-width="4.4"></path><path d="M35.204 8.992a1.55 1.55 0 0 0-1.44 1.628v.414c.039.469.11.933.202 1.393.135.88.183 1.772.145 2.662-.084.292-.25.556-.48.759l-.033.62c-.89.075-1.775.211-2.646.41a18.841 18.841 0 0 0-9.579 5.466l-.528-.374c-.29.088-.603.055-.869-.088a13.684 13.684 0 0 1-1.973-1.782c-.301-.359-.622-.7-.962-1.023l-.325-.26a1.758 1.758 0 0 0-1.019-.384 1.407 1.407 0 0 0-1.168.519 1.552 1.552 0 0 0 .36 2.162l.304.242c.391.26.796.498 1.215.711a12.61 12.61 0 0 1 2.195 1.54c.175.249.276.541.293.845l.48.44a18.961 18.961 0 0 0-2.988 13.213l-.616.176c-.16.255-.374.473-.63.634-.859.23-1.739.374-2.626.433-.471.01-.941.046-1.408.11l-.39.088h-.044a1.474 1.474 0 0 0-.851 2.49c.393.396.975.537 1.505.363h.028l.396-.044c.447-.132.887-.294 1.316-.48a13.72 13.72 0 0 1 2.556-.747c.304.017.594.12.84.297l.66-.11a19.059 19.059 0 0 0 8.449 10.566l-.269.561c.124.258.17.544.132.828-.363.84-.807 1.645-1.326 2.402-.285.375-.548.767-.788 1.173l-.187.396a1.474 1.474 0 0 0 1.43 2.202 1.474 1.474 0 0 0 1.217-.95l.182-.375c.168-.44.308-.888.423-1.342.39-.961.6-1.993 1.133-2.63.174-.164.393-.272.629-.309l.33-.6A18.964 18.964 0 0 0 42 53.27l.293.56c.299.045.567.21.748.452a13.84 13.84 0 0 1 1.003 2.464c.116.455.259.904.427 1.344l.182.374a1.474 1.474 0 0 0 2.612.288 1.474 1.474 0 0 0 .035-1.542l-.191-.396a12.21 12.21 0 0 0-.788-1.168c-.506-.73-.942-1.51-1.32-2.326a1.144 1.144 0 0 1 .15-.88 5.038 5.038 0 0 1-.245-.592 19.084 19.084 0 0 0 8.411-10.604l.625.11c.224-.204.519-.312.82-.303.874.167 1.73.44 2.557.748.429.198.869.365 1.315.506.106.028.26.053.379.081h.028a1.474 1.474 0 0 0 1.85-1.872 1.474 1.474 0 0 0-1.196-.981l-.427-.101c-.467-.064-.937-.1-1.408-.11a13.42 13.42 0 0 1-2.627-.434 1.654 1.654 0 0 1-.633-.633l-.594-.176a19.03 19.03 0 0 0-3.05-13.185l.52-.48a1.16 1.16 0 0 1 .272-.831 13.818 13.818 0 0 1 2.178-1.531c.418-.214.824-.451 1.215-.711l.321-.26a1.474 1.474 0 1 0-1.824-2.29l-.325.26c-.34.322-.661.664-.962 1.023-.58.664-1.223 1.27-1.92 1.81-.282.115-.59.149-.89.097l-.556.396a19.22 19.22 0 0 0-12.177-5.874c0-.22-.028-.55-.033-.653a1.155 1.155 0 0 1-.48-.73c-.03-.89.026-1.778.168-2.656.094-.462.16-.924.202-1.393v-.44a1.55 1.55 0 0 0-1.44-1.628l-.02-.01zM33.37 20.358l-.44 7.684h-.033c-.022.475-.302.88-.73 1.109-.43.229-.938.16-1.32-.119l-6.304-4.466a15.092 15.092 0 0 1 7.267-3.958c.515-.11 1.034-.193 1.555-.25h.005zm3.67 0a15.233 15.233 0 0 1 8.777 4.232l-6.243 4.438a1.293 1.293 0 0 1-2.1-.995l-.435-7.675zm-14.785 7.099l5.764 5.144v.033a1.294 1.294 0 0 1-.508 2.22v.021l-7.396 2.128a15.092 15.092 0 0 1 2.142-9.548l-.002.002zm25.857 0a15.36 15.36 0 0 1 2.204 9.52l-7.407-2.135v-.028a1.28 1.28 0 0 1-.918-.957 1.303 1.303 0 0 1 .41-1.263l5.72-5.12-.01-.017zm-14.089 5.544h2.358l1.441 1.83-.523 2.288-2.119 1.019-2.123-1.019-.5-2.288 1.466-1.83zm7.555 6.244c.099-.011.22-.011.297 0l7.627 1.287c-1.1 3.168-3.271 5.874-6.105 7.684L40.45 41.08a1.298 1.298 0 0 1 1.12-1.801l.009-.033zm-12.81.033a1.292 1.292 0 0 1 1.167 1.8v.028l-2.93 7.08a15.137 15.137 0 0 1-6.068-7.606l7.562-1.283c.083-.008.17-.008.255 0l.013-.02zm6.388 3.08c.49-.016.947.246 1.181.677h.029l3.727 6.726-1.49.44a15.16 15.16 0 0 1-8.267-.427l3.74-6.726a1.298 1.298 0 0 1 1.1-.649l-.02-.041z" stroke-width="1.1" fill="#797C6E"></path></g><g transform="translate(106.700002, 524.098111)" fill-rule="nonzero" stroke="#797C6E"><path d="M34.98.047c-.63.037-1.245.2-1.81.48L8.65 12.222a4.644 4.644 0 0 0-2.53 3.15l-6 26.249A4.536 4.536 0 0 0 .78 45.2c.083.128.171.25.264.37l16.94 21.062a4.683 4.683 0 0 0 3.656 1.725h27.17a4.764 4.764 0 0 0 3.661-1.744l16.931-21.068a4.523 4.523 0 0 0 .88-3.929l-6.041-26.27a4.656 4.656 0 0 0-2.53-3.15L37.23.529a4.708 4.708 0 0 0-2.272-.482h.022z" stroke-width="4.4"></path><path d="M35.204 8.992a1.55 1.55 0 0 0-1.44 1.628v.414c.039.469.11.933.202 1.393.135.88.183 1.772.145 2.662-.084.292-.25.556-.48.759l-.033.62c-.89.075-1.775.211-2.646.41a18.841 18.841 0 0 0-9.579 5.466l-.528-.374c-.29.088-.603.055-.869-.088a13.684 13.684 0 0 1-1.973-1.782c-.301-.359-.622-.7-.962-1.023l-.325-.26a1.758 1.758 0 0 0-1.019-.384 1.407 1.407 0 0 0-1.168.519 1.552 1.552 0 0 0 .36 2.162l.304.242c.391.26.796.498 1.215.711a12.61 12.61 0 0 1 2.195 1.54c.175.249.276.541.293.845l.48.44a18.961 18.961 0 0 0-2.988 13.213l-.616.176c-.16.255-.374.473-.63.634-.859.23-1.739.374-2.626.433-.471.01-.941.046-1.408.11l-.39.088h-.044a1.474 1.474 0 0 0-.851 2.49c.393.396.975.537 1.505.363h.028l.396-.044c.447-.132.887-.294 1.316-.48a13.72 13.72 0 0 1 2.556-.747c.304.017.594.12.84.297l.66-.11a19.059 19.059 0 0 0 8.449 10.566l-.269.561c.124.258.17.544.132.828-.363.84-.807 1.645-1.326 2.402-.285.375-.548.767-.788 1.173l-.187.396a1.474 1.474 0 0 0 1.43 2.202 1.474 1.474 0 0 0 1.217-.95l.182-.375c.168-.44.308-.888.423-1.342.39-.961.6-1.993 1.133-2.63.174-.164.393-.272.629-.309l.33-.6A18.964 18.964 0 0 0 42 53.27l.293.56c.299.045.567.21.748.452a13.84 13.84 0 0 1 1.003 2.464c.116.455.259.904.427 1.344l.182.374a1.474 1.474 0 0 0 2.612.288 1.474 1.474 0 0 0 .035-1.542l-.191-.396a12.21 12.21 0 0 0-.788-1.168c-.506-.73-.942-1.51-1.32-2.326a1.144 1.144 0 0 1 .15-.88 5.038 5.038 0 0 1-.245-.592 19.084 19.084 0 0 0 8.411-10.604l.625.11c.224-.204.519-.312.82-.303.874.167 1.73.44 2.557.748.429.198.869.365 1.315.506.106.028.26.053.379.081h.028a1.474 1.474 0 0 0 1.85-1.872 1.474 1.474 0 0 0-1.196-.981l-.427-.101c-.467-.064-.937-.1-1.408-.11a13.42 13.42 0 0 1-2.627-.434 1.654 1.654 0 0 1-.633-.633l-.594-.176a19.03 19.03 0 0 0-3.05-13.185l.52-.48a1.16 1.16 0 0 1 .272-.831 13.818 13.818 0 0 1 2.178-1.531c.418-.214.824-.451 1.215-.711l.321-.26a1.474 1.474 0 1 0-1.824-2.29l-.325.26c-.34.322-.661.664-.962 1.023-.58.664-1.223 1.27-1.92 1.81-.282.115-.59.149-.89.097l-.556.396a19.22 19.22 0 0 0-12.177-5.874c0-.22-.028-.55-.033-.653a1.155 1.155 0 0 1-.48-.73c-.03-.89.026-1.778.168-2.656.094-.462.16-.924.202-1.393v-.44a1.55 1.55 0 0 0-1.44-1.628l-.02-.01zM33.37 20.358l-.44 7.684h-.033c-.022.475-.302.88-.73 1.109-.43.229-.938.16-1.32-.119l-6.304-4.466a15.092 15.092 0 0 1 7.267-3.958c.515-.11 1.034-.193 1.555-.25h.005zm3.67 0a15.233 15.233 0 0 1 8.777 4.232l-6.243 4.438a1.293 1.293 0 0 1-2.1-.995l-.435-7.675zm-14.785 7.099l5.764 5.144v.033a1.294 1.294 0 0 1-.508 2.22v.021l-7.396 2.128a15.092 15.092 0 0 1 2.142-9.548l-.002.002zm25.857 0a15.36 15.36 0 0 1 2.204 9.52l-7.407-2.135v-.028a1.28 1.28 0 0 1-.918-.957 1.303 1.303 0 0 1 .41-1.263l5.72-5.12-.01-.017zm-14.089 5.544h2.358l1.441 1.83-.523 2.288-2.119 1.019-2.123-1.019-.5-2.288 1.466-1.83zm7.555 6.244c.099-.011.22-.011.297 0l7.627 1.287c-1.1 3.168-3.271 5.874-6.105 7.684L40.45 41.08a1.298 1.298 0 0 1 1.12-1.801l.009-.033zm-12.81.033a1.292 1.292 0 0 1 1.167 1.8v.028l-2.93 7.08a15.137 15.137 0 0 1-6.068-7.606l7.562-1.283c.083-.008.17-.008.255 0l.013-.02zm6.388 3.08c.49-.016.947.246 1.181.677h.029l3.727 6.726-1.49.44a15.16 15.16 0 0 1-8.267-.427l3.74-6.726a1.298 1.298 0 0 1 1.1-.649l-.02-.041z" stroke-width="1.1" fill="#797C6E"></path></g></g><path d="M57.49 183.572c103.443 19.916 181.61 32.952 234.5 39.109a2461.346 2461.346 0 0 0 51.074 5.404c73.644 7.019 148.283 10.803 223.917 11.352a2655.655 2655.655 0 0 0 49.797-.105c61.701-.704 140.965-6.397 237.792-17.08 13.992-1.543 30.57-3.515 49.735-5.916 37.968-4.757 117.763-15.679 239.383-32.764" stroke="#4A4A4A" stroke-width="13.2"></path><path d="M869.147 80.002l-11.371 53.838-3.192 86.81c2.724 1.332 4.669 4.698 4.669 8.668 0 4.007-1.982 7.393-4.746 8.7l-.345 51.254h4.319l27.555-20.243 11.086-164.566-27.975-24.461" fill="#0C3D53"></path><path fill="#0E4E6A" d="M896.689 289.274h-38.208L869.147 80h38.208l-10.666 209.274"></path><path d="M891.907 202.315h-17.026c-.976 0-1.756-.301-2.323-.897-.588-.62-.86-1.456-.807-2.487l.552-10.855h-14.25a1.937 1.937 0 0 1 0-3.873h14.85c1.228 0 1.992.535 2.42.983.607.64.928 1.54.88 2.475l-.548 10.779h15.67l.564-10.975c.083-1.622 1.293-3.262 3.447-3.262h8.011a1.937 1.937 0 0 1 0 3.873h-7.609l-.564 11.05c-.099 1.967-1.352 3.189-3.267 3.189" fill="#809AA5"></path><path d="M850.337 179.091c-3.097 0-5.62 3.156-5.62 7.037 0 3.879 2.523 7.035 5.62 7.035 3.1 0 5.621-3.156 5.621-7.035 0-3.88-2.52-7.037-5.621-7.037zm0 17.893c-5.204 0-9.44-4.87-9.44-10.856 0-5.988 4.236-10.858 9.44-10.858 5.207 0 9.443 4.87 9.443 10.858 0 5.986-4.236 10.856-9.443 10.856z" fill="#809AA5"></path><path d="M583.051 85.804l-11.373 53.838-3.19 86.81c2.723 1.332 4.667 4.698 4.667 8.668 0 4.007-1.982 7.393-4.744 8.702l-.345 51.252h4.319l27.553-20.241 11.086-164.568-27.973-24.461" fill="#0C3D53"></path><path fill="#0E4E6A" d="M610.591 295.076h-38.206l10.666-209.274h38.208l-10.668 209.274"></path><path d="M605.81 208.116h-17.027c-.362 0-1.471 0-2.322-.897-.588-.62-.86-1.457-.806-2.488l.552-10.853h-14.25a1.937 1.937 0 0 1 0-3.873h14.848c1.226 0 1.992.533 2.418.98.61.638.93 1.539.885 2.475l-.549 10.782h15.67l.564-10.976c.085-1.621 1.295-3.26 3.446-3.26h8.013a1.937 1.937 0 1 1 0 3.872h-7.612l-.564 11.053c-.099 1.964-1.35 3.185-3.267 3.185" fill="#809AA5"></path><path d="M308.051 85.804l-11.373 53.838-3.19 86.81c2.723 1.332 4.667 4.698 4.667 8.668 0 4.007-1.982 7.393-4.744 8.702l-.345 51.252h4.319l27.553-20.241 11.086-164.568-27.973-24.461" fill="#0C3D53"></path><path d="M289.241 184.893c-3.099 0-5.62 3.156-5.62 7.037 0 3.88 2.521 7.037 5.62 7.037s5.621-3.156 5.621-7.037c0-3.88-2.522-7.037-5.621-7.037zm0 17.895c-5.205 0-9.44-4.87-9.44-10.858s4.235-10.858 9.44-10.858c5.205 0 9.44 4.87 9.44 10.858 0 5.987-4.235 10.858-9.44 10.858zm275-17.895c-3.099 0-5.62 3.156-5.62 7.037 0 3.88 2.521 7.037 5.62 7.037s5.621-3.156 5.621-7.037c0-3.88-2.522-7.037-5.621-7.037zm0 17.895c-5.205 0-9.44-4.87-9.44-10.858s4.235-10.858 9.44-10.858c5.205 0 9.44 4.87 9.44 10.858 0 5.987-4.235 10.858-9.44 10.858z" fill="#809AA5"></path><path fill="#0E4E6A" d="M335.591 295.076h-38.206l10.666-209.274h38.208l-10.668 209.274"></path></g></svg>