<svg viewBox="0 0 1200 900" xmlns="http://www.w3.org/2000/svg" xmlns:xlink="http://www.w3.org/1999/xlink"><defs><path id="path-1" d="M0 585.485h922V0H0z"></path><path id="path-3" d="M0 0h937.296v585.81H0z"></path></defs><g fill="none" fill-rule="evenodd"><path d="M52 781h1095c7.732 0 14 6.268 14 14s-6.268 14-14 14H52c-7.732 0-14-6.268-14-14s6.268-14 14-14z" fill="#C1C3C3"></path><path d="M1100 759H99V116.949C99 102.619 110.622 91 124.96 91h949.08c14.338 0 25.96 11.619 25.96 25.949V759" fill="#373D54"></path><path fill="#B9D2D8" d="M140 722h921V137H140z"></path><g transform="translate(140.000000, 137.000000)"><mask id="mask-2" fill="#fff"><use xlink:href="#path-1"></use></mask><use fill="#B9D2D8" xlink:href="#path-1"></use><g mask="url(#mask-2)"><g transform="translate(-7.485351, -0.325450)"><path d="M0 0h937.296v585.81H0z"></path><mask id="mask-4" fill="#fff"><use xlink:href="#path-3"></use></mask><g mask="url(#mask-4)"><g transform="translate(-0.650900, -77.392023)"><path fill="#D3EAF2" d="M777.452 270.618h160.494v224.326H777.452z"></path><path d="M.429 490.496s33.69-12.009 103.554 29.515c134.796 80.117 206.473 37.22 299.809 31.04 179.33-11.878 218.914 110.032 354.613 40.894 99.295-50.59 134.808-64.56 179.454-68.508v139.765H.563L.429 490.496z" fill="#81C3D3" fill-rule="nonzero"></path><path fill="#E4F6F9" d="M691.165 77.392H176.778V181.12h514.387z"></path><path d="M205.4 151.256c1.498.534 18.812-7.461 18.812-7.461s67.024-57.485 181.397-66.403H196.295l9.106 73.864z" fill="#81C3D3" fill-rule="nonzero"></path><path d="M167.04 77.262c-2.58 2.9-4.382 6.62-4.33 10.49.089 6.344 5.2 11.783 11.127 14.05 6.686 2.556 13.336 1.16 20.235 1.468 5.278.236 3.573 3.34 7.843-.105 14.786-11.93 28.282-20.065 40.088-25.903H167.04z" fill="#58B6C6" fill-rule="nonzero"></path><path d="M405.862 417.183c-26.086 0-66.711 18.355-66.711 18.355a62.955 62.955 0 0 1 3.45 17.375h126.523s-1.577-5.62 2.942-17.543c0 0-40.376-18.187-66.204-18.187" fill="#F2AC2F" fill-rule="nonzero"></path><path d="M196.18 208.27c28.93-22.733 25.603-46.596 75.143-88.713 34.774-29.56 112.007-36.483 185.998 8.45 73.992 44.93 84.745-7.68 145.038-15.746 60.293-8.065 132.875 8.064 180.114 97.545 47.236 89.48 82.072 158.91 47.17 285.383-27.647 100.198-126.723 139.397-203.858 108.634 0 0-102.92-44.29-150.54-46.852-47.62-2.56-92.68-9.217-176.143 5.633-83.463 14.85-215.57-61.446-228.884-137.74-13.313-76.294 3.072-130.57 32.77-161.294 29.7-30.722 69.906-37.003 93.193-55.3" fill="#E4F6F9" fill-rule="nonzero"></path><path d="M612.826 219.81c12.922-22.037 48.118-76.015 63.797-102.93 10.644-18.271 17.63 15.029 38.652 21.609 21.107 6.606 31.54 34.217 41.52 52.118 6.329 11.354 10.605 15.743 4.653 27.882-4.512 9.204-10.016 17.879-16.047 26.158-36.1 49.545-88.076 87.333-146.34 106.39-21.93 7.173-45.72 11.735-67.986 5.685-9.505-2.583-35.593-13.355-36.588-25.375-.818-9.867 32.457-22.7 41.816-29.167 29.858-20.635 55.417-47.525 74.254-78.563.766-1.262 1.52-2.53 2.269-3.806" fill="#E2F2F7" fill-rule="nonzero"></path><path d="M499.8 134.691c2.22-3.292-2.796-3.124-4.73-3.182-3.777-.113-7.558-.027-11.33-.268-1.468-.094-2.672.031-3.609-1.18-1.04-1.347-1.78-3.074-2.608-4.557-1.776-3.183-3.505-6.438-5.618-9.415-2.606-3.672-3.984-.175-5.143 2.605-1.44 3.458-2.689 6.992-4.083 10.47-.465 1.16-.843 2.862-1.852 3.672-1.247 1-3.477 1.298-5.002 1.743-3.433 1.002-6.912 1.84-10.34 2.856-1.04.308-3.29.625-3.572 1.98-.303 1.451 1.832 2.737 2.737 3.505 2.694 2.288 5.523 4.412 8.253 6.656 1.09.896 2.883 1.937 3.554 3.21.689 1.305.118 3.607.003 5.003-.305 3.724-.772 7.437-.93 11.173-.115 2.73.049 5.251 3.26 3.59 3.42-1.77 6.631-3.994 9.917-5.995 1.468-.894 2.94-1.79 4.454-2.607 1.735-.935 2.69-.7 4.55-.18 3.705 1.038 7.375 2.197 11.08 3.238 1.744.49 7.5 3.108 7.766-.064.14-1.663-1.143-3.943-1.758-5.46-.818-2.016-1.73-3.99-2.628-5.969-.799-1.759-2.207-3.938-2.488-5.853-.241-1.65 1.447-3.308 2.377-4.588 2.538-3.49 5.325-6.8 7.74-10.383" fill="#F2AC2F" fill-rule="nonzero"></path><path d="M253.54 95.295c.893-.98-.77-1.168-1.408-1.281-1.242-.222-2.494-.378-3.728-.641-.48-.103-.884-.12-1.134-.567-.277-.495-.438-1.101-.64-1.632-.43-1.137-.842-2.297-1.395-3.383-.68-1.34-1.307-.252-1.825.61-.645 1.07-1.23 2.178-1.86 3.257-.21.36-.417.905-.79 1.123-.46.27-1.21.259-1.737.33-1.182.165-2.372.27-3.554.44-.358.05-1.116.046-1.276.48-.17.464.472.993.733 1.29.778.888 1.61 1.727 2.4 2.6.317.35.858.78 1.018 1.234.163.465-.137 1.197-.244 1.653-.282 1.215-.617 2.418-.852 3.644-.17.896-.24 1.737.902 1.345 1.215-.418 2.384-.996 3.567-1.496a32.567 32.567 0 0 1 1.598-.644c.618-.224.923-.1 1.511.163 1.173.523 2.328 1.085 3.5 1.61.553.246 2.326 1.392 2.57.357.126-.542-.186-1.357-.316-1.888-.172-.706-.376-1.402-.576-2.1-.178-.62-.537-1.408-.536-2.054 0-.556.64-1.022 1.01-1.4 1.007-1.028 2.09-1.985 3.061-3.05" fill="#E4F6F9" fill-rule="nonzero"></path><path d="M370.118 446.757c-1.576-3.177-5.105-5-8.615-5.509-3.51-.508-7.072.086-10.585.568a167.325 167.325 0 0 1-16.457 1.436c-22.944.868-52.798-1.499-72.773-14.398a56.696 56.696 0 0 1-3.596-2.522c-6.81-5.186-14.057-9.68-20.677-15.158-21.15-17.5-38.43-40.098-45.641-66.91-11.433-42.51 10.454-83.197 26.649-122.41 16.032-38.82 8.626-108.957-22.128-144.462H.65V178.63s22.515 14.55 44.98 60.01c9.79 19.81 19.57 45.486 27.475 78.385-8.455 28.753-10.4 64.79-2.887 107.838 6.637 38.037 42.805 76.073 87.748 102.815 17.546 4.784 35.946 6.336 54.018 4.1 5.644-.696 11.895-1.594 17.104-4 5.265-2.43 8.562-3.836 14.548-4.617a202.952 202.952 0 0 0 19.292-3.47 208.772 208.772 0 0 0 37.177-12.334c23.698-10.415 45.493-25.215 63.704-43.63 2.273-2.296 4.527-4.7 5.922-7.615 1.395-2.915 1.822-6.46.386-9.355" fill="#D3EAF2" fill-rule="nonzero"></path><path d="M937.947 261.16c-9.746 39.74-135.033 105.8-158.514 138.664-34.996 48.98-99.516 68.444-159.715 68.629-60.198.185-105.182-36.18-165.038-42.565-59.86-6.384-138.587 18.54-187.495 53.636-17.292 12.407-32.702 29.732-35.735 50.796-1.39 9.63-.104 19.254 2.396 28.703 23 5.496 45.49 7.097 65.256 3.58 83.461-14.85 128.523-8.192 176.143-5.632 47.62 2.56 150.54 46.852 150.54 46.852 77.135 30.763 176.21-8.436 203.86-108.634 3.33-12.073 5.155-19.222 7.265-30.322 37.304-24.55 101.037-203.706 101.037-203.706" fill="#D3EAF2" fill-rule="nonzero"></path><path d="M798.404 498.648c-16.103 12.686-31.16 22.185-47.425 29.134-63.21 27.007-115.54 20.626-156.292 4.617l-2.89.48-166.095-87.902c-19.963-2.26-37.564.85-54.708 6.209-.07 1.692-.53 3.396-1.263 4.926-1.396 2.915-3.648 5.318-5.923 7.615-18.21 18.414-40.005 33.215-63.704 43.628a208.724 208.724 0 0 1-37.176 12.336 203.312 203.312 0 0 1-19.293 3.47c-5.985.78-9.282 2.185-14.547 4.617-5.21 2.404-11.46 3.303-17.103 4-18.072 2.235-36.473.683-54.018-4.101-44.945-26.743-81.111-64.777-87.751-102.815-7.511-43.048-5.565-79.084 2.887-107.837v-.005a12722.591 12722.591 0 0 0-2.363-9.415c-.016.055-6.506 22.684-9.28 30.566-5.382 25.847-1.831 56.477 4.079 90.332 13.31 76.295 127.057 160.725 221.378 139.219 82.654-18.845 140.705-13.313 188.326-10.753 47.62 2.56 150.542 46.852 150.542 46.852 15.667 6.249 32.24 9.61 48.937 10.16a150.262 150.262 0 0 0 26.955-1.544 149.8 149.8 0 0 0 7.638-1.33 152.846 152.846 0 0 0 73.34-37.307 155.09 155.09 0 0 0 5.92-5.737c13.526-13.823 24.96-30.693 33.325-50.514a177.306 177.306 0 0 0 3.394-8.675 185.17 185.17 0 0 0 4.35-13.688 484.237 484.237 0 0 0 1.788-6.681 474.212 474.212 0 0 0 1.629-6.45 439.337 439.337 0 0 0 1.35-5.664c.122-.525.239-1.046.358-1.57a424.1 424.1 0 0 0 1.288-5.85l.126-.59c.248-1.175.49-2.347.726-3.513v-.003l-21.635 30.988-16.87 2.795z" fill="#C1DEE5" fill-rule="nonzero"></path><path d="M828.332 473.009c-28.733 26.16-63.086 48.68-77.35 54.775-111.165 47.495-188.69-8.272-228.743-38.07-154.142-114.676-175.515 28.46-333.482-10.703-47.593-11.8-86.286-75.526-104.964-125.247-5.18-13.791-8.823-26.505-10.687-36.743a507.66 507.66 0 0 0-2.35-9.364l-.016-.051c-7.447-28.43-16.273-51.09-25.109-68.965C23.165 193.18.651 178.63.651 178.63v341.826c0-.52 12.832-3.87 13.701-4.084 10.633-2.621 21.688-3.13 32.496-1.32 16.185 2.71 31.061 10.42 43.92 20.428 3.807 2.963 8.263 9.12 12.504 11.028 4.123 1.855 7.46-.004 11.882-.834 10.57-1.983 20.89-.53 30.891 3.343 11.928 4.618 22.675 11.79 34.18 17.376 27.412 13.31 59.231 16.945 89.055 10.974 14.838-2.97 28.106-10.56 42.878-12.71 17.666-2.568 35.182-6.076 52.805-8.911.784-.126 1.568-.251 2.353-.375a545.976 545.976 0 0 1 2.359-.368l.293-.045c.7-.107 1.4-.214 2.1-.318l.318-.048c.7-.105 1.4-.21 2.1-.31l.295-.044c.76-.11 1.514-.218 2.272-.325l.091-.013c2.4-.338 4.794-.658 7.19-.956l.423-.052a404.49 404.49 0 0 1 1.887-.23l.684-.08 1.63-.188.804-.09 1.51-.164.872-.091a310.705 310.705 0 0 1 3.785-.372l.902-.083c.485-.044.97-.085 1.454-.126l.88-.074c.52-.044 1.044-.084 1.568-.124a290.732 290.732 0 0 1 3.06-.221 387.46 387.46 0 0 1 3.944-.24c.432-.025.862-.045 1.295-.068.872-.046 1.748-.09 2.613-.13.505-.023 1.006-.043 1.507-.064a354.238 354.238 0 0 1 10.05-.28 246.86 246.86 0 0 1 3.886-.034c.44-.002.88-.005 1.315-.005.982 0 1.956.007 2.93.015.246.003.493.003.741.005 1.214.014 2.421.034 3.622.06.342.007.68.018 1.022.027.856.02 1.715.043 2.564.07.446.014.892.032 1.335.048a343.284 343.284 0 0 1 3.642.15 315.316 315.316 0 0 1 5.62.312l1.387.09c.72.05 1.435.103 2.147.157.427.03.853.062 1.276.096.81.063 1.614.132 2.418.2.32.029.638.054.957.083 1.116.1 2.23.205 3.333.315l.647.068c.886.09 1.774.183 2.653.28l1.162.134c.706.08 1.41.16 2.11.247.43.05.855.105 1.281.159.654.082 1.311.165 1.962.25.44.058.876.118 1.312.177a340.025 340.025 0 0 1 3.206.45c.647.096 1.295.194 1.94.293.406.062.813.123 1.216.186.7.11 1.397.223 2.09.337.342.056.683.11 1.025.167 1.022.17 2.044.346 3.056.525l.016.003c1.022.18 2.038.367 3.046.557.332.062.658.126.99.189a319.302 319.302 0 0 1 5.022 1 312.153 312.153 0 0 1 2.974.632 318.596 318.596 0 0 1 4.13.926c.618.144 1.23.289 1.846.434l1.035.247c.753.18 1.502.366 2.25.55l.6.149c.942.237 1.88.476 2.813.718l.822.217c.66.173 1.318.347 1.973.524l1.068.29c.57.155 1.138.31 1.704.469a349.79 349.79 0 0 1 8.252 2.405c.353.107.707.214 1.058.322.606.187 1.208.375 1.81.563.28.089.563.176.843.264.87.275 1.737.552 2.6.832.22.07.436.143.654.214.652.213 1.303.425 1.951.64l1.015.34c.523.175 1.046.35 1.567.527l1.104.377a350.285 350.285 0 0 1 4.015 1.397 449.68 449.68 0 0 1 2.548.91c.363.13.726.26 1.088.393.5.18.996.363 1.493.545l.995.366c.624.23 1.245.462 1.866.694l1.14.428a390.001 390.001 0 0 1 2.899 1.102c.455.175.91.349 1.361.524.382.147.761.295 1.142.443a409.75 409.75 0 0 1 2.443.956 511.665 511.665 0 0 1 2.402.95l1.17.468c.4.16.801.32 1.2.482.378.15.755.304 1.131.456l1.232.499c.33.134.66.27.992.404 1.703.695 3.394 1.39 5.074 2.087l.656.27a2159.65 2159.65 0 0 1 3.895 1.625l.494.207 1.83.768.17.07 2.01.847c15.662 6.597 30.477 12.977 45.3 17.967a.16.16 0 0 1 .012.005l.325.108c.583.195 1.166.389 1.75.58l.734.239a243.608 243.608 0 0 0 5.93 1.84l.412.124c.684.2 1.37.398 2.055.592l.665.185a190.14 190.14 0 0 0 3.568.964c.258.067.516.135.774.2.502.129 1.004.254 1.506.379l.598.148c.692.168 1.384.333 2.076.494l.53.12c.526.12 1.053.238 1.58.353l.762.164c.46.098.92.195 1.38.29a181.524 181.524 0 0 0 2.232.442c.232.044.463.09.694.133.703.13 1.405.259 2.11.38l.234.04c.632.108 1.265.213 1.9.313.241.04.483.076.725.113a148.363 148.363 0 0 0 3.662.52l.758.097c.585.072 1.172.14 1.76.207l.406.047c.716.078 1.435.15 2.155.219l.661.058c.512.046 1.023.09 1.536.13a131.65 131.65 0 0 0 4.65.289l.613.03c.734.03 1.47.054 2.208.074.172.004.345.005.517.009.574.013 1.148.022 1.724.028.263.003.527.003.79.004a142.713 142.713 0 0 0 3.881-.04c.242-.007.483-.011.725-.02.755-.021 1.512-.05 2.273-.083l.171-.01a140.4 140.4 0 0 0 2.126-.117c.253-.016.507-.035.76-.052a156.032 156.032 0 0 0 2.425-.187c.52-.044 1.04-.092 1.562-.143.267-.026.535-.05.804-.078a148.35 148.35 0 0 0 1.916-.211c.147-.017.293-.032.44-.05.783-.093 1.57-.195 2.358-.302.23-.031.46-.066.688-.098a149.653 149.653 0 0 0 2.574-.387 144.917 144.917 0 0 0 4.24-.74c.22-.041.441-.08.663-.123a162.33 162.33 0 0 0 2.443-.493c.173-.036.348-.076.522-.113.65-.14 1.3-.282 1.954-.43.285-.065.57-.133.857-.2.556-.13 1.113-.262 1.672-.4a169.75 169.75 0 0 0 2.65-.67c.266-.07.531-.137.798-.21a164.81 164.81 0 0 0 2.538-.697l.09-.025c.82-.234 1.647-.477 2.476-.726.274-.082.55-.17.826-.253a168.716 168.716 0 0 0 4.49-1.438 191.417 191.417 0 0 0 3.045-1.045c.166-.058.33-.114.496-.173.884-.315 1.772-.64 2.665-.972.247-.092.497-.188.744-.281a205.053 205.053 0 0 0 4.75-1.857l.961-.391c.672-.276 1.346-.558 2.022-.843.25-.106.498-.208.75-.315.921-.394 1.847-.795 2.778-1.207.184-.081.37-.166.553-.248a243.12 243.12 0 0 0 2.266-1.022l.96-.443a261.855 261.855 0 0 0 2.945-1.387c.662-.318 1.327-.641 1.994-.967.304-.15.605-.295.91-.446.964-.476 1.932-.96 2.907-1.457l.497-.253c98.916-50.384 134.386-64.313 178.958-68.255v139.765h.087V339.269s-15.599 48.147-109.616 133.74" fill="#C1DEE5" fill-rule="nonzero"></path><path d="M107.327 384.252c.946-1.55-1.342-1.37-2.227-1.356-1.727.026-3.453.144-5.18.112-.673-.012-1.22.07-1.674-.465-.502-.593-.877-1.367-1.285-2.027-.878-1.417-1.735-2.87-2.762-4.185-1.267-1.623-1.823.003-2.296 1.297-.586 1.61-1.083 3.25-1.648 4.867-.188.54-.326 1.325-.77 1.716-.55.483-1.562.665-2.249.9-1.547.529-3.12.983-4.665 1.519-.468.162-1.49.353-1.59.978-.109.669.893 1.212 1.322 1.545 1.28.99 2.615 1.9 3.91 2.87.515.386 1.356.824 1.69 1.39.34.584.127 1.647.104 2.288-.063 1.707-.2 3.413-.194 5.123.004 1.25.131 2.398 1.564 1.572 1.525-.88 2.946-1.961 4.406-2.943.652-.44 1.306-.88 1.98-1.284.774-.463 1.215-.375 2.075-.176 1.714.397 3.415.85 5.13 1.25.806.188 3.49 1.264 3.546-.19.03-.763-.604-1.778-.917-2.46-.415-.902-.872-1.785-1.324-2.671-.4-.787-1.09-1.753-1.257-2.622-.145-.75.592-1.541.99-2.145 1.088-1.647 2.292-3.217 3.321-4.903" fill="#D3EAF2" fill-rule="nonzero"></path><path d="M758.403 591.944c-135.699 69.138-175.284-52.772-354.614-40.896-93.333 6.182-166.37 51.32-299.808-31.04C28.571 473.466.426 490.496.426 490.496L.564 663.2H937.86V523.435c-44.647 3.95-80.16 17.917-179.455 68.509" fill="#81C3D3" fill-rule="nonzero"></path><path d="M257.411 441.922l3.815 9.414c.141.349.445.605.813.686l9.917 2.194a1.143 1.143 0 0 1 .49 1.99l-7.775 6.538c-.288.243-.439.61-.402.985l.978 10.11a1.143 1.143 0 0 1-1.742 1.08l-8.62-5.372a1.142 1.142 0 0 0-1.062-.078l-9.313 4.054a1.143 1.143 0 0 1-1.565-1.324l2.447-9.858a1.142 1.142 0 0 0-.254-1.033l-6.734-7.605a1.142 1.142 0 0 1 .775-1.897l10.132-.72a1.14 1.14 0 0 0 .904-.56l5.152-8.755c.48-.816 1.688-.727 2.044.15" fill="#E4F6F9" fill-rule="nonzero"></path><path d="M520.545 483.52l-.808 7.615a.86.86 0 0 0 .296.745l5.814 4.982a.862.862 0 0 1-.383 1.498l-7.49 1.584a.862.862 0 0 0-.618.511l-2.942 7.07a.862.862 0 0 1-1.542.1l-3.821-6.636a.862.862 0 0 0-.678-.43l-7.633-.613a.861.861 0 0 1-.57-1.435l5.13-5.685a.862.862 0 0 0 .198-.778l-1.775-7.448a.862.862 0 0 1 1.189-.986l6.99 3.121c.26.116.56.097.8-.05l6.537-3.99a.861.861 0 0 1 1.306.825" fill="#D3EAF2" fill-rule="nonzero"></path><path d="M251.479 504.363l-.81 7.614c-.03.282.082.56.298.746l5.814 4.982a.861.861 0 0 1-.383 1.497l-7.49 1.584a.86.86 0 0 0-.618.512l-2.942 7.07a.861.861 0 0 1-1.542.098l-3.821-6.634a.864.864 0 0 0-.678-.43l-7.633-.612a.861.861 0 0 1-.57-1.436l5.13-5.685c.19-.21.263-.5.198-.777l-1.775-7.449a.861.861 0 0 1 1.189-.987l6.99 3.122c.26.115.56.096.8-.05l6.537-3.99a.862.862 0 0 1 1.306.825z" stroke="#D3EAF2" stroke-width=".5"></path><path d="M111.48 266.747l-.808 7.615a.86.86 0 0 0 .296.745l5.814 4.982a.862.862 0 0 1-.382 1.498l-7.492 1.584a.862.862 0 0 0-.617.51l-2.942 7.07a.861.861 0 0 1-1.542.1l-3.821-6.635a.862.862 0 0 0-.678-.43l-7.632-.613a.861.861 0 0 1-.57-1.435l5.128-5.685a.862.862 0 0 0 .199-.778l-1.775-7.448a.861.861 0 0 1 1.19-.986l6.99 3.12c.26.117.559.098.8-.05l6.536-3.99a.861.861 0 0 1 1.306.826z" stroke="#E4F6F9" stroke-width=".5"></path><path d="M131.873 296.98l2.889 7.074c.717 1.756 1.44 5.592 3.345 6.423 2.258.983 5.261 1.149 7.662 1.673 1.397.305 6.928.603 6.787 2.813-.06.953-1.133 1.588-1.796 2.15l-3.752 3.17-3.728 3.154c-.565.477-1.57 1.06-1.942 1.745-.42.776-.116 1.919-.034 2.75l.493 4.954.493 4.956c.078.786.411 2.039-.039 2.76-1.282 2.053-5.424-1.56-6.63-2.306-2.196-1.361-4.578-3.396-6.991-4.333-1.898-.736-5.02 1.44-6.71 2.18-2.252.989-4.775 2.615-7.181 3.15-3.527.785-1.468-4.364-1.083-5.936.7-2.848 1.79-5.847 2.15-8.76.246-1.988-2.185-3.78-3.405-5.152-1.878-2.108-4.163-4.158-5.77-6.48-2.059-2.975 2.535-2.82 4.218-2.943 3.174-.234 6.376-.366 9.541-.703 2.1-.224 2.68-2.157 3.667-3.844 1.592-2.722 3.093-5.524 4.786-8.184.674-1.06 2.322-2.043 3.03-.31" fill="#FFF" fill-rule="nonzero"></path><path d="M768.648 520.989l2.515 6.158c.624 1.528 1.253 4.868 2.912 5.59 1.966.857 4.58 1 6.67 1.457 1.216.266 6.03.525 5.908 2.45-.053.828-.986 1.382-1.564 1.87l-3.266 2.76-3.245 2.745c-.492.416-1.367.923-1.69 1.52-.367.675-.102 1.67-.03 2.392l.429 4.314.429 4.314c.068.684.358 1.775-.034 2.403-1.116 1.787-4.721-1.358-5.77-2.008-1.913-1.185-3.986-2.956-6.087-3.771-1.652-.642-4.37 1.253-5.84 1.898-1.961.86-4.158 2.275-6.252 2.74-3.07.684-1.278-3.8-.942-5.166.608-2.48 1.557-5.09 1.87-7.626.215-1.73-1.9-3.29-2.964-4.485-1.633-1.835-3.623-3.62-5.022-5.64-1.792-2.59 2.207-2.454 3.672-2.562 2.763-.204 5.55-.32 8.305-.612 1.83-.196 2.334-1.878 3.193-3.346 1.385-2.37 2.692-4.81 4.166-7.125.587-.921 2.02-1.778 2.637-.27" fill="#58B6C6" fill-rule="nonzero"></path><path d="M728.279 181.875l.56 6.453c.02.24.159.453.368.571l5.634 3.197a.729.729 0 0 1-.075 1.305l-5.965 2.528a.73.73 0 0 0-.43.525l-1.3 6.346a.73.73 0 0 1-1.263.331l-4.247-4.89a.728.728 0 0 0-.632-.247l-6.437.725a.729.729 0 0 1-.707-1.1l3.34-5.55a.73.73 0 0 0 .04-.678l-2.681-5.898a.729.729 0 0 1 .828-1.01l6.31 1.46a.73.73 0 0 0 .657-.172l4.782-4.37a.729.729 0 0 1 1.218.474" fill="#F2AC2F" fill-rule="nonzero"></path><path d="M177.401 416.396l-4.69 4.468a.728.728 0 0 1-.65.186l-6.34-1.33a.729.729 0 0 0-.809 1.029l2.8 5.842a.728.728 0 0 1-.025.678l-3.223 5.617a.729.729 0 0 0 .73 1.086l6.42-.86a.73.73 0 0 1 .637.234l4.348 4.803a.729.729 0 0 0 1.257-.358l1.167-6.372a.73.73 0 0 1 .42-.534l5.91-2.65a.729.729 0 0 0 .048-1.307l-5.7-3.08a.729.729 0 0 1-.378-.562l-.694-6.44a.729.729 0 0 0-1.228-.45m-44.863 55.267l-4.69 4.469a.729.729 0 0 1-.65.185l-6.34-1.33a.729.729 0 0 0-.808 1.028l2.801 5.84a.729.729 0 0 1-.025.679l-3.224 5.62a.729.729 0 0 0 .73 1.084l6.42-.86a.73.73 0 0 1 .637.235l4.347 4.802a.73.73 0 0 0 1.258-.358l1.167-6.372a.73.73 0 0 1 .42-.533l5.91-2.65a.73.73 0 0 0 .048-1.308l-5.7-3.08a.73.73 0 0 1-.378-.562l-.694-6.44a.729.729 0 0 0-1.228-.45" fill="#E4F6F9" fill-rule="nonzero"></path><path d="M361.78 608.534c-11.33 9.308 1.214 20.64 11.939 27.52 10.724 6.88 50.156 19.445 96.292 20.493 68.885 1.567 99.844-25.345 104.903-33.742 5.058-8.397 12.748-21.145-12.748-26.609-25.496-5.463-52.813 8.296-96.114 2.226-43.303-6.07-93.622 1.365-104.272 10.112" fill="#58B6C6" fill-rule="nonzero"></path><path d="M716.719 304.891l-6.54.511s.08-2.852 2.907-6.082 7.347-9.07 12.313-10.79l-.087 8.435-8.593 7.926z" fill="#FFF" fill-rule="nonzero"></path><circle stroke="#F2AC2F" stroke-width=".5" cx="4.814" cy="4.882" r="4.624" transform="translate(218.073666, 418.515750) scale(-1, 1) rotate(-90.000000) translate(-218.073666, -418.515750) translate(208.700705, 409.142789)"></circle><path d="M128.987 401.917a5.952 5.952 0 1 1-11.903 0 5.952 5.952 0 0 1 11.903 0" fill="#C1DEE5" fill-rule="nonzero"></path><path d="M175.075 512.273a4.757 4.757 0 1 1-9.513 0 4.757 4.757 0 0 1 9.513 0M33.328 458.154a4.757 4.757 0 1 1-9.514 0 4.757 4.757 0 0 1 9.514 0m1.196-84.124a5.952 5.952 0 1 1-11.904 0 5.952 5.952 0 0 1 11.904 0" fill="#D3EAF2" fill-rule="nonzero"></path><path d="M129.157 156.605c.58-3.107-3.03-1.399-4.46-.83-2.794 1.112-5.53 2.37-8.36 3.386-1.102.396-1.941.868-3.01.278-1.183-.654-2.27-1.68-3.344-2.503-2.303-1.762-4.593-3.593-7.078-5.099-3.065-1.858-2.965 1.13-2.933 3.528.04 2.981.246 5.956.327 8.936.027.994.29 2.357-.192 3.267-.594 1.126-2.128 2.048-3.1 2.854-2.192 1.817-4.467 3.53-6.65 5.355-.662.553-2.204 1.496-1.983 2.575.238 1.156 2.203 1.42 3.107 1.695 2.69.82 5.428 1.476 8.132 2.252 1.079.31 2.717.503 3.61 1.22.915.736 1.226 2.598 1.584 3.653.953 2.817 1.786 5.676 2.852 8.454.779 2.03 1.695 3.82 3.516 1.59 1.937-2.373 3.58-5.01 5.347-7.51.79-1.118 1.58-2.239 2.429-3.313.97-1.232 1.743-1.362 3.265-1.57 3.034-.413 6.08-.727 9.116-1.137 1.429-.194 6.46-.1 5.65-2.502-.422-1.259-2.08-2.518-3.01-3.432-1.233-1.213-2.523-2.367-3.805-3.528-1.14-1.032-2.856-2.178-3.666-3.488-.698-1.129.01-2.874.285-4.102.75-3.352 1.739-6.65 2.37-10.03" fill="#FFF" fill-rule="nonzero"></path><path d="M849.913 503.396c-.991-.95-1.23.77-1.363 1.425-.26 1.28-.453 2.574-.757 3.845-.12.495-.147.913-.615 1.16-.52.276-1.152.427-1.706.622-1.19.418-2.4.816-3.54 1.36-1.404.673-.293 1.348.586 1.906 1.094.695 2.225 1.328 3.328 2.007.368.227.926.456 1.143.848.267.484.238 1.261.3 1.807.139 1.23.22 2.464.365 3.692.043.372.02 1.157.464 1.333.477.19 1.04-.463 1.355-.726.939-.784 1.83-1.623 2.754-2.422.37-.318.83-.868 1.303-1.022.485-.158 1.236.172 1.706.293 1.25.324 2.489.7 3.752.975.924.2 1.793.291 1.415-.9-.402-1.27-.97-2.495-1.46-3.733-.217-.552-.437-1.107-.626-1.67-.217-.647-.08-.959.207-1.562.57-1.202 1.182-2.384 1.755-3.585.27-.566 1.5-2.373.435-2.65-.56-.146-1.411.157-1.965.277-.734.16-1.46.355-2.188.545-.647.17-1.472.52-2.141.503-.577-.014-1.042-.687-1.424-1.08-1.04-1.07-2.005-2.214-3.083-3.248" fill="#58B6C6" fill-rule="nonzero"></path><path d="M748.942 585.004c-.991-.95-1.23.769-1.363 1.425-.26 1.28-.453 2.574-.757 3.845-.12.495-.147.912-.615 1.16-.52.275-1.152.426-1.706.62-1.19.419-2.4.817-3.54 1.362-1.404.672-.293 1.347.586 1.906 1.094.694 2.225 1.327 3.328 2.007.368.226.926.456 1.143.847.267.484.238 1.262.3 1.807.139 1.23.22 2.464.365 3.692.043.373.02 1.158.464 1.334.477.188 1.04-.464 1.355-.727.939-.784 1.83-1.623 2.754-2.42.37-.32.83-.87 1.303-1.023.485-.158 1.236.172 1.706.293 1.25.323 2.489.7 3.752.974.924.2 1.793.292 1.415-.9-.402-1.27-.97-2.495-1.46-3.732-.217-.553-.437-1.107-.626-1.671-.217-.646-.08-.958.207-1.561.57-1.202 1.182-2.384 1.755-3.586.27-.565 1.5-2.373.435-2.65-.56-.146-1.411.157-1.965.278-.734.16-1.46.355-2.188.544-.647.17-1.472.52-2.141.504-.577-.015-1.042-.688-1.424-1.08-1.04-1.07-2.005-2.214-3.083-3.248" fill="#C1DEE5" fill-rule="nonzero"></path><path d="M827.04 590.566c-.991-.95-1.229.769-1.363 1.425-.26 1.28-.453 2.574-.757 3.845-.119.495-.147.912-.615 1.16-.52.275-1.152.426-1.706.62-1.19.419-2.4.817-3.539 1.362-1.404.672-.294 1.347.586 1.906 1.093.694 2.224 1.327 3.327 2.007.368.226.926.456 1.143.847.268.484.238 1.262.3 1.807.139 1.23.22 2.464.365 3.692.043.373.02 1.157.464 1.334.477.188 1.041-.464 1.356-.727.938-.784 1.828-1.623 2.754-2.421.37-.32.829-.868 1.302-1.022.486-.16 1.237.172 1.706.293 1.25.323 2.489.7 3.753.974.923.2 1.792.292 1.414-.9-.402-1.27-.97-2.495-1.459-3.732-.218-.553-.438-1.108-.627-1.671-.216-.647-.08-.96.207-1.561.571-1.202 1.182-2.385 1.755-3.586.27-.565 1.5-2.373.435-2.65-.559-.146-1.411.157-1.965.278-.734.16-1.46.354-2.188.544-.647.17-1.472.52-2.14.504-.577-.015-1.043-.688-1.424-1.08-1.041-1.07-2.006-2.215-3.084-3.248m-719.763 25.917c-.34-1.33-1.45.004-1.91.49-.897.95-1.745 1.945-2.675 2.864-.361.357-.606.697-1.135.66-.586-.04-1.203-.247-1.776-.374-1.23-.273-2.469-.575-3.724-.714-1.547-.17-.961.988-.51 1.927.563 1.168 1.188 2.304 1.766 3.462.192.387.545.876.522 1.323-.028.553-.464 1.197-.7 1.693-.53 1.117-1.114 2.208-1.64 3.328-.16.34-.595.993-.31 1.377.305.412 1.128.157 1.534.1 1.21-.17 2.41-.412 3.618-.6.482-.076 1.162-.3 1.645-.18.496.122.96.8 1.293 1.15.892.935 1.744 1.91 2.672 2.81.679.657 1.368 1.194 1.677-.018.33-1.29.494-2.63.733-3.939.107-.585.213-1.172.35-1.75.158-.663.439-.856 1-1.216 1.12-.719 2.264-1.4 3.385-2.117.528-.338 2.528-1.223 1.77-2.02-.397-.42-1.281-.612-1.815-.803-.708-.252-1.428-.47-2.146-.693-.638-.199-1.524-.336-2.084-.704-.48-.317-.52-1.135-.637-1.67-.318-1.458-.533-2.939-.902-4.386" fill="#58B6C6" fill-rule="nonzero"></path><path d="M176.78 187.69a6.57 6.57 0 1 1-13.14 0 6.57 6.57 0 0 1 13.14 0m135.63-69.017a4.167 4.167 0 1 1-8.334 0 4.167 4.167 0 0 1 8.334 0M679.294 224.18a4.168 4.168 0 1 1-8.335 0 4.168 4.168 0 0 1 8.335 0m-549.959-4.992a4.99 4.99 0 1 1-9.98 0 4.99 4.99 0 0 1 9.98 0" fill="#FFF" fill-rule="nonzero"></path><path d="M937.947 77.392H438.193c209.495 9.1 244.205 58.226 281.408 96.525 39.097 40.245 44.486 90.084 42.355 106.55-8.311 64.222-69.817 76.857-69.817 76.857-3.597-8.595-8.762-1.83-8.762-1.83l-19.275 24.888s-24.567-6.614-25.932-8.99c-4.815-4.156-9.033 4.74-9.033 4.74-52.088 109.505-9.697 154.913 58.7 169.924 37.267 8.18 120.64-17.476 184.723-67.142 24.2-18.755 47.579-44.888 65.387-67.052V77.392z" fill="#81C3D3" fill-rule="nonzero"></path><path d="M937.947 77.392H618.535c207.15 61.497 186.365 219.276 158.91 261.93-43.012 66.822-89.608 20.73-89.608 20.73l-27.764 28.833 5.618 103.856s-5.432 22.358 31.29 26.62c17.808 2.068 63.373-.28 91.985-14.722 68.222-34.437 118.253-95.046 148.981-140.859V77.392z" fill="#58B6C6" fill-rule="nonzero"></path><path d="M804.721 404.326l-1.133 13.038a1.472 1.472 0 0 1-.74 1.153l-11.385 6.459c-1.062.602-.972 2.16.152 2.637l12.05 5.106c.447.19.771.586.868 1.06l2.625 12.823c.244 1.195 1.754 1.59 2.555.67l8.58-9.883a1.473 1.473 0 0 1 1.277-.497l13.005 1.466c1.213.136 2.056-1.177 1.427-2.223l-6.747-11.214a1.473 1.473 0 0 1-.08-1.368l5.416-11.916c.505-1.111-.484-2.32-1.673-2.044l-12.75 2.952a1.474 1.474 0 0 1-1.326-.348l-9.661-8.83c-.9-.824-2.355-.257-2.46.959m-62.11 100.526l-4.69 4.47a.729.729 0 0 1-.65.184l-6.34-1.33a.729.729 0 0 0-.808 1.028l2.801 5.841a.729.729 0 0 1-.025.678l-3.224 5.62a.729.729 0 0 0 .73 1.084l6.42-.859a.729.729 0 0 1 .637.234l4.347 4.802a.73.73 0 0 0 1.258-.358l1.167-6.372a.73.73 0 0 1 .42-.533l5.91-2.65a.73.73 0 0 0 .048-1.308l-5.7-3.079a.73.73 0 0 1-.378-.563l-.694-6.44a.729.729 0 0 0-1.228-.45" fill="#81C3D3" fill-rule="nonzero"></path><circle stroke="#81C3D3" stroke-width=".5" cx="7.446" cy="7.485" r="7.199" transform="translate(830.997656, 333.691425) scale(-1, 1) rotate(-90.000000) translate(-830.997656, -333.691425) translate(821.624695, 324.318463)"></circle><path d="M768.264 469.523a5.952 5.952 0 1 1-11.904 0 5.952 5.952 0 0 1 11.904 0m-1.827-86.743a5.952 5.952 0 1 1-11.903 0 5.952 5.952 0 0 1 11.903 0m102-150.131c2.025-.99-.49-2.33-1.424-2.906-1.826-1.126-3.71-2.156-5.497-3.343-.695-.463-1.322-.742-1.44-1.604-.13-.957-.004-2.016.01-2.98.028-2.07.1-4.16-.095-6.223-.24-2.545-1.91-1.215-3.268-.176-1.689 1.292-3.304 2.676-4.975 3.99-.558.44-1.227 1.17-1.952 1.282-.897.139-2.078-.347-2.954-.56-1.973-.48-3.92-1.055-5.896-1.527-.598-.144-1.794-.625-2.317-.04-.56.629.125 1.866.352 2.5.677 1.89 1.466 3.736 2.173 5.614.281.75.868 1.77.838 2.585-.032.838-.965 1.808-1.417 2.462-1.206 1.746-2.488 3.44-3.625 5.23-.83 1.31-1.464 2.598.586 2.69 2.184.1 4.393-.083 6.576-.136.976-.023 1.955-.047 2.93-.02 1.118.032 1.522.419 2.288 1.202 1.53 1.56 3.005 3.17 4.532 4.733.72.736 2.807 3.654 3.838 2.17.54-.778.555-2.263.683-3.184.17-1.223.28-2.452.4-3.68.105-1.092.03-2.563.435-3.584.35-.88 1.65-1.217 2.47-1.582 2.237-.998 4.546-1.836 6.75-2.913m-48.889-92.462c2.31-1.825-1.271-2.838-2.625-3.315-2.642-.93-5.333-1.723-7.943-2.744-1.016-.398-1.895-.58-2.283-1.65-.43-1.184-.565-2.571-.815-3.805-.537-2.65-1.024-5.338-1.845-7.918-1.014-3.181-2.776-1.022-4.221.68-1.798 2.119-3.477 4.334-5.245 6.475-.59.715-1.242 1.832-2.137 2.177-1.107.426-2.75.133-3.927.104-2.65-.067-5.297-.26-7.95-.315-.803-.017-2.463-.3-2.968.593-.542.957.676 2.347 1.143 3.094 1.387 2.223 2.906 4.362 4.329 6.563.568.878 1.6 2.017 1.787 3.067.192 1.079-.73 2.576-1.126 3.536-1.056 2.563-2.223 5.08-3.177 7.683-.697 1.903-1.15 3.722 1.494 3.272 2.815-.48 5.584-1.326 8.356-1.998 1.239-.301 2.482-.603 3.735-.838 1.437-.27 2.059.112 3.255.9 2.384 1.568 4.715 3.214 7.097 4.785 1.122.74 4.597 3.887 5.5 1.707.475-1.144.083-3.043-.01-4.255-.123-1.607-.322-3.208-.51-4.81-.168-1.421-.671-3.28-.438-4.694.202-1.22 1.769-2.011 2.714-2.705 2.58-1.894 5.295-3.604 7.81-5.59" fill="#81C3D3" fill-rule="nonzero"></path><circle stroke="#81C3D3" stroke-width=".5" cx="6.913" cy="7.03" r="6.825" transform="translate(805.288359, 216.690334) scale(-1, 1) rotate(-83.658283) translate(-805.288359, -216.690334) translate(795.915398, 207.317372)"></circle><path d="M896.012 198.197a5.902 5.902 0 1 1-11.804.001 5.902 5.902 0 0 1 11.804 0m-11.017-69.602a5.902 5.902 0 1 1-11.804.001 5.902 5.902 0 0 1 11.804 0M699.629 95.842a5.902 5.902 0 1 1-11.804.001 5.902 5.902 0 0 1 11.804 0m226.387 232.103c.87-1.697-1.513-1.328-2.439-1.245-1.807.164-3.605.423-5.418.525-.705.04-1.272.168-1.788-.356-.573-.582-1.026-1.363-1.506-2.022-1.03-1.416-2.042-2.868-3.22-4.166-1.455-1.6-1.91.146-2.303 1.538-.488 1.732-.88 3.489-1.344 5.227-.155.58-.237 1.414-.672 1.858-.537.549-1.583.819-2.284 1.119-1.58.675-3.19 1.275-4.767 1.957-.478.206-1.532.487-1.589 1.15-.06.709 1.031 1.2 1.507 1.513 1.417.936 2.887 1.786 4.32 2.7.57.364 1.484.756 1.878 1.324.403.584.264 1.714.29 2.386.068 1.794.06 3.59.2 5.38.101 1.31.324 2.502 1.76 1.525 1.53-1.041 2.932-2.286 4.383-3.43.65-.51 1.3-1.023 1.974-1.5.773-.544 1.243-.487 2.16-.346 1.826.28 3.642.623 5.47.906.86.134 3.754 1.05 3.698-.478-.029-.8-.772-1.814-1.153-2.502-.506-.914-1.054-1.802-1.596-2.695-.482-.792-1.28-1.75-1.523-2.647-.21-.773.5-1.661.87-2.324 1.008-1.811 2.146-3.55 3.092-5.397" fill="#81C3D3" fill-rule="nonzero"></path><path d="M840.966 542.189c.935-.8-.577-1.165-1.15-1.343-1.12-.346-2.257-.632-3.364-1.016-.43-.15-.8-.212-.98-.652-.2-.488-.279-1.065-.403-1.577-.268-1.098-.516-2.213-.9-3.278-.477-1.312-1.178-.38-1.753.354-.717.914-1.382 1.866-2.086 2.79-.235.308-.488.786-.857.945-.455.196-1.146.1-1.639.107-1.108.016-2.217-.022-3.326-.001-.336.006-1.034-.085-1.23.296-.21.409.32.97.527 1.274.616.906 1.286 1.775 1.916 2.67.252.359.701.818.797 1.254.098.447-.263 1.087-.413 1.495-.399 1.088-.845 2.159-1.202 3.262-.26.806-.42 1.573.678 1.342 1.168-.246 2.311-.645 3.46-.971a29.819 29.819 0 0 1 1.545-.41c.596-.137.862.012 1.375.322 1.021.616 2.022 1.266 3.043 1.883.48.29 1.984 1.55 2.326.623.18-.485-.015-1.273-.074-1.777-.078-.67-.187-1.335-.292-2-.093-.593-.334-1.36-.259-1.955.064-.513.706-.87 1.09-1.175 1.047-.833 2.153-1.592 3.17-2.462" fill="#FFF" fill-rule="nonzero"></path><path d="M896.014 297.131a5.902 5.902 0 1 1-11.804 0 5.902 5.902 0 0 1 11.804 0" fill="#81C3D3" fill-rule="nonzero"></path><path d="M921.632 473.902c.87-1.697-1.513-1.329-2.439-1.245-1.807.164-3.605.423-5.418.525-.705.04-1.272.168-1.788-.356-.573-.582-1.026-1.363-1.506-2.023-1.03-1.415-2.042-2.867-3.22-4.165-1.455-1.6-1.91.146-2.303 1.538-.488 1.732-.88 3.49-1.344 5.227-.155.58-.237 1.414-.672 1.858-.537.55-1.583.82-2.284 1.12-1.58.674-3.19 1.274-4.767 1.956-.478.206-1.532.487-1.589 1.15-.06.71 1.031 1.2 1.507 1.513 1.417.936 2.887 1.786 4.32 2.7.57.364 1.484.756 1.878 1.324.403.584.263 1.714.29 2.386.068 1.793.06 3.59.2 5.38.101 1.31.324 2.502 1.76 1.525 1.53-1.04 2.932-2.286 4.383-3.429.65-.51 1.3-1.024 1.974-1.5.773-.545 1.243-.488 2.16-.347 1.826.281 3.642.623 5.47.906.86.133 3.754 1.05 3.698-.478-.029-.8-.772-1.814-1.153-2.502-.506-.914-1.054-1.803-1.596-2.695-.482-.792-1.28-1.75-1.523-2.647-.21-.773.5-1.66.87-2.324 1.01-1.81 2.146-3.55 3.092-5.397m16.499 79.452a5.903 5.903 0 1 1-11.805.001 5.903 5.903 0 0 1 11.805 0" fill="#D3EAF2" fill-rule="nonzero"></path><path d="M832.885 294.086a4.43 4.43 0 1 1 0-8.86 4.43 4.43 0 0 1 0 8.86" fill="#81C3D3" fill-rule="nonzero"></path><path d="M658.874 256.739c.625-.927-.787-.88-1.331-.896-1.063-.031-2.128-.007-3.19-.075-.413-.026-.751.009-1.015-.333-.293-.378-.501-.865-.734-1.282-.5-.896-.987-1.812-1.581-2.65-.734-1.033-1.122-.05-1.448.734-.405.973-.757 1.968-1.15 2.946-.13.327-.237.806-.52 1.034-.352.281-.98.365-1.408.49-.966.282-1.946.518-2.911.804-.292.087-.925.176-1.005.557-.085.409.515.77.77.987.759.644 1.555 1.242 2.323 1.873.307.253.812.545 1 .903.194.368.034 1.016.002 1.41-.086 1.047-.218 2.092-.262 3.144-.033.768.013 1.478.918 1.01.962-.498 1.866-1.124 2.79-1.687.414-.252.828-.504 1.254-.734.488-.263.758-.197 1.28-.05 1.044.291 2.077.618 3.12.91.49.139 2.11.876 2.185-.017.04-.468-.321-1.11-.495-1.537-.23-.567-.486-1.123-.74-1.68-.224-.495-.62-1.108-.7-1.648-.067-.464.408-.93.67-1.29.714-.983 1.498-1.915 2.178-2.923m-96.841 203.388c2.043-4.34 3.458-8.96 5.623-13.242.768-1.52 1.656-3.026 2.967-4.113 1.31-1.088 3.12-1.7 4.752-1.208 2.325.702 3.542 3.442 3.287 5.858-.255 2.415-1.625 4.554-3.034 6.533-3.544 4.974-7.652 9.628-12.548 13.312-2.436 1.833-5.066 3.416-7.866 4.63-4.122 1.784-.537-1.826.722-2.977 2.654-2.427 4.577-5.563 6.097-8.794m69.18-178.806c-1.949-4.737-8.357-17.245-14.113-17.68-2.703-.203-5.44 1.517-6.43 4.041-1.53 3.903 1.936 7.475 3.271 10.946 2.005 5.215 3.347 10.763 4.248 16.27 1.813 11.073 1.565 22.497-.898 33.453-.453 2.02-.982 4.072-.77 6.13.214 2.06 1.35 4.168 3.292 4.885 2.445.903 5.113-.66 6.955-2.505 6.502-6.51 7.916-16.44 8.308-25.632.432-10.124-.006-20.538-3.863-29.91" fill="#F2AC2F" fill-rule="nonzero"></path><path d="M585.953 443.286l-6.207-1.56s-1.457 15.215 7.34 19.857l3.616-7.178-4.75-11.119z" fill="#FFF" fill-rule="nonzero"></path><path d="M592.238 408.544c-2.814 7.1-8.685 12.663-11.457 19.78-1.256 3.221-1.596 7.43 1.07 9.63 3.24 2.676 8.096.384 11.42-2.187a81.493 81.493 0 0 0 21.408-24.98c3.493-6.325 6.176-13.31 6.174-20.536-.003-8.45-8.79-26.993-19.795-19.598-10.053 6.756-4.87 27.92-8.82 37.89" fill="#F2AC2F" fill-rule="nonzero"></path><path d="M643.363 363.973l2.01-2.397s9.483-10.2 30.763-9.444c5.643 2.52 7.314 13.536 7.314 13.536l-37.321 10.966-2.766-12.661z" fill="#0F53B7" fill-rule="nonzero"></path><path d="M711.109 453.973l-16.38 117.22-28.523-58.61-72.613 54.507c-2.218 1.665-5.2-.712-4.065-3.242 12.172-27.126 28.654-69.132 38.037-107.932" fill="#074C9E" fill-rule="nonzero"></path><path d="M586.438 441.51l-44.687 10.197s-10.362-6.64-15.705-5.506c-.162 0-1.943.81 0 2.671 1.943 1.862 6.476 4.615 6.476 4.615s-11.333 1.943-16.73 5.235c-1.134.691-1.93 1.977-.652 3.212.922.89 2.422-.546 6.21-1.701 3.5-1.067 7.71-1.358 8.08-1.398-.353.12-16.286 5.578-15.059 8.954.836 2.298 3.36.934 6.332-.864 3.761-2.275 7.196-2.711 8.083-2.79-.81.278-3.05 1.62-1.922 3.452.567.92 2.567.716 3.92-.096-.083.405-.022.854.276 1.337.752 1.222 4.03.464 4.97-1.067.013-.023.03-.068.046-.107.852.02 1.8-.002 2.87-.081 1.591-.365 3.992-.972 10.253-2.59 6.26-1.62 45.55-6.261 45.55-6.261l-8.31-17.212z" fill="#FDBDB4" fill-rule="nonzero"></path><path d="M590.849 450.643c-12.994 7.424-29.399 9.645-48.666 12.72-6.153.54-8.006-1.596-14.216 1.185-.915.584-1.945 1.675-1.104 3.04.568.92 2.568.716 3.921-.095-.083.405-.022.853.275 1.336.753 1.222 4.03.464 4.97-1.067.014-.023.03-.068.047-.107a29.2 29.2 0 0 0 2.869-.081c1.591-.365 3.993-.971 10.254-2.59 6.26-1.62 45.55-6.26 45.55-6.26l-3.901-8.082z" fill="#FD9F90" fill-rule="nonzero"></path><path d="M601.42 313.335s-6.657.602-6.54.563c.114-.04-26.414 3.605-48.919-12.273-22.505-15.877-58.75-69.65-137.03-24.933-73.965 42.25-39.45 133.24-23.907 153.64 15.543 20.4 33.42 34.997 34.844 60.242h106.685s-5.202-18.47 34.304-59.918c39.505-41.45 9.937-73.541 36.378-110.6.134-.152 4.183-6.721 4.183-6.721" fill="#F2AC2F" fill-rule="nonzero"></path><path fill="#81C3D3" fill-rule="nonzero" d="M680.993 276.844l-69.417 29.923 2.81 5.56L683.8 281.27z"></path><path d="M712.566 305.826c-1.447-.81-23.8-21.049-23.8-21.049v-9.228l8.581-2.105 29.305 19.105-8.095 14.734-5.99-1.457z" fill="#FDBDB4" fill-rule="nonzero"></path><path d="M635.174 475.83c-.647 0-3.2 7.932-3.2 7.932l-1.98 8.42 15.38 10.2 25.906 2.266 30.762-5.343 2.638-9.714-1.666-8.42-19.753-10.685-48.087 5.344z" fill="#FFF" fill-rule="nonzero"></path><path d="M667.03 499.974c-20.62.002-36.77-6.444-37.826-6.875l-3.297-1.347 2.693-6.595 3.295 1.345c.38.155 38.436 15.27 70.696-2.07l1.5-.807s1.642 7.205 1.527 7.267c-12.972 6.882-26.544 9.082-38.589 9.082" fill="#074C9E" fill-rule="nonzero"></path><path d="M646.452 349.893l2.383 9.545 1.61 2.138s2.915 8.635 3.238 8.635c.324 0 11.442 2.375 11.442 2.375l10.47-12.52-1.727-4.535s-4.21-2.644-3.4-11.819-7.178-13.33-7.178-13.33l-19.213 19.644" fill="#FD9F90" fill-rule="nonzero"></path><path d="M644.941 367.032l4.694-1.677s4.373 4.102 14.843 2.05c.108.217 8.598 1.404 10.65-9.066l4.054-1.295 1.162 2.895 5.86 53.557-16.546 4.857-18.457-15.394-6.26-35.927z" fill="#FFF" fill-rule="nonzero"></path><path d="M468.407 286.803c-1.433.07-2.85.43-4.144 1.048l-56.546 27.018c-2.914 1.392-5.13 4.147-5.85 7.275l-13.949 60.689a10.783 10.783 0 0 0 2.083 9.076l39.138 48.663c2.02 2.507 5.22 4.035 8.455 4.035l62.764-.015c3.233.003 6.435-1.523 8.454-4.028l39.124-48.67c2.018-2.508 2.81-5.946 2.09-9.076l-13.972-60.688c-.72-3.13-2.936-5.884-5.85-7.276L473.65 287.85a10.92 10.92 0 0 0-5.243-1.048" fill="#326CE5" fill-rule="nonzero"></path><path d="M468.967 307.453c-1.869.001-3.386 1.685-3.385 3.76 0 .033.006.064.007.095-.002.282-.016.622-.007.868.045 1.198.306 2.115.463 3.218.284 2.362.523 4.32.376 6.14-.143.686-.648 1.314-1.1 1.75l-.079 1.432a44.098 44.098 0 0 0-6.118.94 43.535 43.535 0 0 0-22.115 12.634 58.442 58.442 0 0 1-1.22-.868c-.606.081-1.217.267-2.013-.196-1.514-1.019-2.894-2.427-4.562-4.122-.766-.81-1.32-1.583-2.228-2.365-.206-.177-.52-.416-.752-.6a4.028 4.028 0 0 0-2.358-.889c-1.04-.036-2.04.37-2.697 1.194-1.166 1.46-.792 3.694.832 4.99.016.013.034.023.05.036.224.18.497.412.701.563.966.712 1.846 1.077 2.806 1.642 2.025 1.25 3.703 2.287 5.034 3.537.52.554.61 1.53.68 1.952l1.084.97c-5.807 8.74-8.494 19.532-6.906 30.532l-1.417.412c-.374.482-.902 1.242-1.453 1.468-1.743.548-3.702.75-6.068.998-1.11.092-2.07.037-3.248.26-.259.05-.62.143-.904.21l-.028.007-.05.014c-1.995.482-3.277 2.317-2.864 4.122.412 1.808 2.36 2.907 4.367 2.474.015-.004.036-.004.051-.007.022-.006.043-.017.065-.02.28-.064.63-.13.875-.197 1.158-.31 1.997-.766 3.038-1.165 2.24-.802 4.093-1.473 5.9-1.736.755-.059 1.55.467 1.946.687l1.476-.253c3.394 10.526 10.508 19.033 19.518 24.372l-.615 1.475c.222.573.467 1.348.302 1.914-.658 1.703-1.784 3.501-3.065 5.506-.62.926-1.255 1.645-1.815 2.705-.134.253-.305.643-.433.91-.87 1.862-.232 4.006 1.44 4.81 1.68.81 3.768-.044 4.67-1.91.002-.002.006-.003.007-.007v-.007c.13-.264.312-.612.42-.86.48-1.099.64-2.04.977-3.102.895-2.25 1.387-4.61 2.62-6.08.337-.403.887-.559 1.458-.712l.767-1.388a43.733 43.733 0 0 0 25.426 1.83 43.98 43.98 0 0 0 5.807-1.75c.216.382.616 1.117.724 1.302.58.19 1.212.286 1.728 1.048.922 1.575 1.553 3.44 2.321 5.692.338 1.062.504 2.003.984 3.102.11.25.29.603.42.867.9 1.872 2.994 2.728 4.68 1.917 1.67-.804 2.308-2.948 1.437-4.81-.128-.267-.307-.657-.44-.91-.56-1.06-1.194-1.772-1.816-2.697-1.282-2.005-2.343-3.67-3-5.374-.276-.878.045-1.425.26-1.996-.129-.147-.403-.976-.564-1.367 9.362-5.528 16.268-14.353 19.511-24.544.437.07 1.2.203 1.446.253.51-.336.977-.774 1.895-.7 1.807.26 3.661.93 5.901 1.734 1.04.4 1.88.862 3.037 1.172.245.065.596.126.875.188.023.005.043.016.066.02.014.004.036.005.05.008 2.007.432 3.956-.666 4.367-2.472.413-1.807-.867-3.642-2.863-4.123-.29-.065-.7-.179-.983-.23-1.178-.224-2.136-.169-3.247-.26-2.367-.25-4.326-.45-6.068-.999-.71-.276-1.215-1.12-1.46-1.47l-1.367-.397a43.71 43.71 0 0 0-.71-15.8 43.813 43.813 0 0 0-6.34-14.66c.35-.318 1.012-.905 1.2-1.077.055-.607.007-1.244.637-1.917 1.33-1.25 3.01-2.286 5.033-3.537.96-.564 1.848-.928 2.813-1.64.22-.162.516-.417.745-.6 1.624-1.296 1.997-3.529.832-4.99-1.166-1.462-3.425-1.6-5.048-.304-.232.183-.545.421-.752.6-.909.782-1.47 1.554-2.236 2.365-1.668 1.695-3.048 3.11-4.562 4.13-.657.381-1.618.25-2.055.223l-1.286.918c-7.34-7.697-17.334-12.618-28.096-13.574a89.74 89.74 0 0 1-.08-1.51c-.44-.422-.972-.783-1.106-1.693-.147-1.82.1-3.778.384-6.14.156-1.103.418-2.02.462-3.218.01-.272-.006-.667-.007-.962 0-2.076-1.515-3.76-3.384-3.76m-4.239 26.25l-1.005 17.756-.073.035a2.984 2.984 0 0 1-4.736 2.286l-.03.015-14.557-10.32c4.475-4.4 10.197-7.65 16.792-9.148a35.854 35.854 0 0 1 3.608-.623m8.484 0c7.7.948 14.82 4.434 20.277 9.778l-14.463 10.253-.05-.02a2.986 2.986 0 0 1-4.744-2.279l-.015-.007-1.005-17.726zm-34.163 16.402l13.292 11.888-.015.073a2.978 2.978 0 0 1 .376 4.107 2.979 2.979 0 0 1-1.547 1.02l-.015.058-17.038 4.918a34.862 34.862 0 0 1 4.947-22.064m59.741.007a35.293 35.293 0 0 1 4.361 10.652c.88 3.83 1.1 7.652.738 11.347l-17.125-4.933-.015-.073a2.985 2.985 0 0 1-1.17-5.127l-.008-.036 13.22-11.83zm-32.55 12.8h5.446l3.384 4.23-1.215 5.28-4.888 2.35-4.903-2.357-1.216-5.28 3.392-4.223zm17.458 14.478c.23-.012.461.01.687.051l.028-.036 17.624 2.98a34.907 34.907 0 0 1-14.108 17.723l-6.842-16.525.021-.029a2.988 2.988 0 0 1 1.447-3.868c.37-.18.757-.277 1.143-.297m-29.6.072a2.985 2.985 0 0 1 2.698 4.16l.05.063-6.769 16.36c-6.329-4.062-11.37-10.143-14.066-17.603l17.473-2.963.03.036a2.96 2.96 0 0 1 .585-.05m14.76 7.166c.468-.017.944.08 1.396.297a2.96 2.96 0 0 1 1.338 1.272h.065l8.613 15.563a35.696 35.696 0 0 1-3.442.962c-6.588 1.496-13.154 1.043-19.1-.983l8.591-15.535h.015a2.99 2.99 0 0 1 2.524-1.576" fill="#FFF" fill-rule="nonzero"></path><path d="M468.967 307.453c-1.869.001-3.386 1.685-3.385 3.76 0 .033.006.064.007.095-.002.282-.016.622-.007.868.045 1.198.306 2.115.463 3.218.284 2.362.523 4.32.376 6.14-.143.686-.648 1.314-1.1 1.75l-.079 1.432a44.098 44.098 0 0 0-6.118.94 43.535 43.535 0 0 0-22.115 12.634 58.442 58.442 0 0 1-1.22-.868c-.606.081-1.217.267-2.013-.196-1.514-1.019-2.894-2.427-4.562-4.122-.766-.81-1.32-1.583-2.228-2.365-.206-.177-.52-.416-.752-.6a4.028 4.028 0 0 0-2.358-.889c-1.04-.036-2.04.37-2.697 1.194-1.166 1.46-.792 3.694.832 4.99.016.013.034.023.05.036.224.18.497.412.701.563.966.712 1.846 1.077 2.806 1.642 2.025 1.25 3.703 2.287 5.034 3.537.52.554.61 1.53.68 1.952l1.084.97c-5.807 8.74-8.494 19.532-6.906 30.532l-1.417.412c-.374.482-.902 1.242-1.453 1.468-1.743.548-3.702.75-6.068.998-1.11.092-2.07.037-3.248.26-.259.05-.62.143-.904.21l-.028.007-.05.014c-1.995.482-3.277 2.317-2.864 4.122.412 1.808 2.36 2.907 4.367 2.474.015-.004.036-.004.051-.007.022-.006.043-.017.065-.02.28-.064.63-.13.875-.197 1.158-.31 1.997-.766 3.038-1.165 2.24-.802 4.093-1.473 5.9-1.736.755-.059 1.55.467 1.946.687l1.476-.253c3.394 10.526 10.508 19.033 19.518 24.372l-.615 1.475c.222.573.467 1.348.302 1.914-.658 1.703-1.784 3.501-3.065 5.506-.62.926-1.255 1.645-1.815 2.705-.134.253-.305.643-.433.91-.87 1.862-.232 4.006 1.44 4.81 1.68.81 3.768-.044 4.67-1.91.002-.002.006-.003.007-.007v-.007c.13-.264.312-.612.42-.86.48-1.099.64-2.04.977-3.102.895-2.25 1.387-4.61 2.62-6.08.337-.403.887-.559 1.458-.712l.767-1.388a43.733 43.733 0 0 0 25.426 1.83 43.98 43.98 0 0 0 5.807-1.75c.216.382.616 1.117.724 1.302.58.19 1.212.286 1.728 1.048.922 1.575 1.553 3.44 2.321 5.692.338 1.062.504 2.003.984 3.102.11.25.29.603.42.867.9 1.872 2.994 2.728 4.68 1.917 1.67-.804 2.308-2.948 1.437-4.81-.128-.267-.307-.657-.44-.91-.56-1.06-1.194-1.772-1.816-2.697-1.282-2.005-2.343-3.67-3-5.374-.276-.878.045-1.425.26-1.996-.129-.147-.403-.976-.564-1.367 9.362-5.528 16.268-14.353 19.511-24.544.437.07 1.2.203 1.446.253.51-.336.977-.774 1.895-.7 1.807.26 3.661.93 5.901 1.734 1.04.4 1.88.862 3.037 1.172.245.065.596.126.875.188.023.005.043.016.066.02.014.004.036.005.05.008 2.007.432 3.956-.666 4.367-2.472.413-1.807-.867-3.642-2.863-4.123-.29-.065-.7-.179-.983-.23-1.178-.224-2.136-.169-3.247-.26-2.367-.25-4.326-.45-6.068-.999-.71-.276-1.215-1.12-1.46-1.47l-1.367-.397a43.71 43.71 0 0 0-.71-15.8 43.813 43.813 0 0 0-6.34-14.66c.35-.318 1.012-.905 1.2-1.077.055-.607.007-1.244.637-1.917 1.33-1.25 3.01-2.286 5.033-3.537.96-.564 1.848-.928 2.813-1.64.22-.162.516-.417.745-.6 1.624-1.296 1.997-3.529.832-4.99-1.166-1.462-3.425-1.6-5.048-.304-.232.183-.545.421-.752.6-.909.782-1.47 1.554-2.236 2.365-1.668 1.695-3.048 3.11-4.562 4.13-.657.381-1.618.25-2.055.223l-1.286.918c-7.34-7.697-17.334-12.618-28.096-13.574a89.74 89.74 0 0 1-.08-1.51c-.44-.422-.972-.783-1.106-1.693-.147-1.82.1-3.778.384-6.14.156-1.103.418-2.02.462-3.218.01-.272-.006-.667-.007-.962 0-2.076-1.515-3.76-3.384-3.76zm-4.239 26.251l-1.004 17.756-.073.035a2.984 2.984 0 0 1-4.736 2.286l-.03.015-14.557-10.32c4.475-4.4 10.197-7.65 16.792-9.148a35.854 35.854 0 0 1 3.608-.623zm8.484 0c7.7.948 14.82 4.434 20.277 9.778l-14.463 10.254-.05-.02a2.986 2.986 0 0 1-4.744-2.279l-.015-.007-1.005-17.726zm-34.163 16.403l13.292 11.888-.015.073a2.978 2.978 0 0 1 .376 4.107 2.979 2.979 0 0 1-1.547 1.02l-.015.058-17.038 4.918a34.862 34.862 0 0 1 4.947-22.064zm59.741.007a35.293 35.293 0 0 1 4.361 10.652c.88 3.83 1.1 7.652.738 11.347l-17.125-4.933-.015-.073a2.985 2.985 0 0 1-1.17-5.127l-.008-.036 13.22-11.83zm-32.55 12.8h5.446l3.384 4.23-1.215 5.28-4.888 2.35-4.903-2.357-1.216-5.28 3.392-4.223zm17.458 14.478c.23-.012.461.01.687.051l.028-.036 17.624 2.98a34.907 34.907 0 0 1-14.108 17.723l-6.842-16.525.021-.029a2.988 2.988 0 0 1 1.447-3.868c.37-.18.757-.277 1.143-.297zm-29.6.072a2.985 2.985 0 0 1 2.698 4.16l.05.063-6.769 16.36c-6.329-4.062-11.37-10.143-14.066-17.603l17.473-2.964.03.036a2.96 2.96 0 0 1 .585-.05zm14.76 7.167c.468-.017.944.08 1.396.297a2.96 2.96 0 0 1 1.338 1.272h.065l8.613 15.563a35.696 35.696 0 0 1-3.442.962c-6.588 1.496-13.154 1.043-19.1-.983l8.591-15.535h.015a2.99 2.99 0 0 1 2.524-1.576z" stroke="#FFF" stroke-width=".5"></path><path d="M647.33 373.55l21.59 25.588 14.9-39.188 20.86 94.754-1.666 26.468s-18.943 14.938-24.07 14.896c-2.365-.02-8.96-13.6-8.96-13.6s-5.404 14.52-8.742 13.6c-3.34-.92-23.238-7.448-29.267-12.305-.2 0 5.304-39.423 5.304-39.423l10.05-70.79z" fill="#F2AC2F" fill-rule="nonzero"></path><path fill="#F49000" fill-rule="nonzero" d="M704.563 456.517l.114-1.813-17.168-77.986-2.298-10.44-1.413-2.75-1.49.393-3.97 10.442 1.035 67.363 13.277 15.905 11.84.063zm-65.991-.6l-2.865-.268c-1.61 11.649-3.863 28.116-3.734 28.116.883.71 2.142 1.478 3.637 2.27l2.962-30.118z"></path><path d="M682.166 354.907s9.026 1.92 19.065-3.91c10.038-5.828 25.42-30.924 25.42-30.924l-13.96-13.364 16.871-12.998s20.074 15.73 23.312 20.263c3.238 4.533-3.896 23.664-32.86 56.777 0 0-5.074 6.88-7.015 14.49 0 0-.686 8.653.052 19.08 1.888 26.69-1.943 49.651-1.943 49.651l-17.055 1.943-11.44-14.408 3.593-52.73-4.04-33.87zm-41.651 21.349l-.626-7.628s-8.766 2.123-14.917 10.866c-6.153 8.743-36.269 59.582-36.269 59.582l5.505 18.782h2.59s9.175-9.79 15.004-16.348c5.829-6.56 16.407-17.653 16.407-17.653 3.886 6.477-.648 32.058-.648 32.058l26.553 7.448 11.01-14.572-1.34-4.45-23.27-68.085z" fill="#0F53B7" fill-rule="nonzero"></path><path d="M633.68 457.63c3.528-16.092.358-35.068-1.708-41.634-2.066-6.566-7.324 2.357-7.324 2.357s-22.99 28.819-25.055 29.108c-2.064.288-7.202 4.193-7.202 4.193l5.07 5.498c2.201-2.357 9.45-10.136 14.342-15.642 5.83-6.56 16.407-17.653 16.407-17.653 3.886 6.477-.648 32.059-.648 32.059l6.118 1.715z" fill="#074C9E" fill-rule="nonzero"></path><path d="M682.612 441.507c-.225.46 1.295-64.927-6.476-89.375.323-.162 15.867 3.885 20.076 26.552-.162.163-5.02 6.477-5.02 6.477l5.02 3.724s1.781 21.212-13.6 52.622m-37.238-79.931S631.45 377.01 631.99 388.56c.216.216 10.038 5.29 10.038 5.29l-3.354 9.282s14.103 28.903 25.112 41.208c0 0-8.535-62.31-18.412-82.764" fill="#326DE6" fill-rule="nonzero"></path><path d="M666.18 333.507c3.152 11.333-2.394 21.662-12.387 23.428-9.19 1.624-15.872-3.995-19.024-15.327-.74-2.665-2.476-8.09-2.8-10.61-1.245-9.686 5.163-12.274 12.04-14.186 6.46-1.797 19.773-4.095 24.315 2.047 1.78 2.407 2.793 14.437-2.144 14.648" fill="#FDBDB4" fill-rule="nonzero"></path><path d="M670.47 343.712s2.944-6.512 4.14-14.327c.7-4.57.854-8.086-.58-12.507-3.887-11.98-10.173-14.64-17.728-15.18-7.002-.5-21.346 1.39-24.53 14.49-2.806 11.55.196 14.81.196 14.81s1.657-7.187 12.54-9.035c2.861-.486 8.637-.17 11.173 1.456 2.84 1.824 3.02.09 6.072-1.35 1.433-.676 3.645.226 4.395.953 4.59 4.445-.552 8.74-.04 11.82 3.533 7.9 4.36 8.87 4.36 8.87" fill="#0F53B7" fill-rule="nonzero"></path><path d="M648.45 358.968s9.713 5.874 23.737-5.341l4.434 5.143s-2.405 10.502-10.384 12.676c-4.298 1.17-11.95-2.058-17.788-5.147.08 0 0-7.33 0-7.33" fill="#FFF" fill-rule="nonzero"></path><path d="M653.793 316.188l1.89 7.232 2.576 8.635a3.639 3.639 0 0 0 2.424-4.151c-.31-1.58-.577-3.474-.472-4.956.22-3.117-3.666-4.898-3.666-4.898l-2.752-1.862z" fill="#0F53B7" fill-rule="nonzero"></path><path d="M710.137 305.448s14.396-5.694 15.26-16.92c1.12.593 11.836 7.043 11.836 7.043s-3.377 13.818-19.825 19.594c-3.277-3.619-7.271-9.718-7.271-9.718" fill="#FFF" fill-rule="nonzero"></path><path d="M701.18 286.009l-2.85-11.924s-5.542-7.56-11.81-6.112c-6.27 1.446-8.835 2.204-11.92 4.905-3.087 2.7-11.586 7.59-13.514 9.906-1.93 2.314-.087 3.37 1.29 2.844 2.491-.953 12.753-7.367 12.753-7.367s3.095-1.512 6.374 1.575c3.28 3.086-2.637 4.919-2.637 4.919s-4.886.81-7.273 1.357c-2.387.548-2.46 4.526.58 4.237 3.037-.29 7.956-1.11 11.283-2.29 3.328-1.182 6.15-2.276 9.151-1.946 3.002.33 8.572-.104 8.572-.104" fill="#FDBDB4" fill-rule="nonzero"></path><path d="M633.232 322.67l-1.455 8.06s-11.66-17.402-.954-28.883c0 0 3.218-4.116 6.457-3.307 3.238.81 4.857 4.695 2.428 11.334-2.428 6.638-6.476 12.796-6.476 12.796" fill="#0F53B7" fill-rule="nonzero"></path><path d="M638.754 298.14c.536-.863 1.228-1.634 2.305-2.254 2.154-1.239 4.924-1.334 7.158-.246 1.597.778 2.887 2.145 3.62 3.76.783 1.726.202 3.588-.008 5.42.008-1.922 2.163-3.28 4.077-3.106 1.915.174 3.55 1.423 4.955 2.734 1.211 1.13 2.423 2.546 2.34 4.202-.102 2.064-2.12 3.44-3.965 4.372a56.246 56.246 0 0 1-21.706 5.907c-5.19.332-3.815-4.797-3.208-8.237.516-2.924 1.205-6.063 2.577-8.71.702-1.354 1.138-2.682 1.856-3.842" fill="#0F53B7" fill-rule="nonzero"></path><path d="M579.747 441.725s7.34 3.502 7.34 19.856h13.005s3.51-9.66-3.129-19.05c-3.886-5.992-8.256-7.382-8.256-7.382l-8.96 6.576z" fill="#FFF" fill-rule="nonzero"></path><path d="M660.062 362.588l-.773-.779c-1.71.19-2.816.006-4.66-.233-1.665-.216-2.952-.92-3.99-1.153-.242-.055-.514-.105-.727.025-.217.132-.3.414-.271.664.03.25.148.48.254.71a8.697 8.697 0 0 1 .802 3.31c.04 1.03-.102 2.056-.08 3.085.018.882.172 1.795.62 2.544a.52.52 0 0 0 .71.197c.245-.147.46-.368.668-.572 1.582-1.57 5.766-3.677 7.93-4.21.809-.198.165-1.304-.014-1.866-.144-.45-.39-.91-.444-1.384a4.73 4.73 0 0 1-.025-.338m2.264-1.04c.012-.1.083-.145.264-.2.296-.09.515-.222.75-.426l6.215-5.41c.236-.204.536-.422.826-.317.24.087.353.358.42.604.313 1.175.152 2.433.433 3.617.408 1.717 1.69 3.076 2.47 4.66.196.396.35.91.066 1.251-.21.254-.577.3-.907.316-2.387.122-4.76-.244-7.127-.487-.797-.08-1.622-.07-2.412-.184-.462-.064-.443-.746-.526-1.129-.147-.679-.295-1.357-.439-2.036a.885.885 0 0 1-.033-.26" fill="#0F53B7" fill-rule="nonzero"></path><path d="M663.83 365.96l-2.827.67a.879.879 0 0 1-1.058-.652l-.91-3.824a.878.878 0 0 1 .653-1.058l2.827-.672a.879.879 0 0 1 1.058.651l.91 3.825a.879.879 0 0 1-.653 1.058" fill="#0F53B7" fill-rule="nonzero"></path><path d="M416.435 509.667s6.662 15.819-18.03 103.865a11.279 11.279 0 0 0 2.09 10.16c6.943 8.546 25.273 24.569 63.867 24.569 43.307 0 62.804-11.941 70.728-18.547a7.33 7.33 0 0 0 2.41-7.397c-3.365-13.627-12.98-59.047-10.945-108.764.843.863-57.012-3.886-57.012-3.886h-53.108z" fill="#326DE6" fill-rule="nonzero"></path><path d="M430.68 509.669h-14.246s6.66 15.819-18.033 103.865a11.28 11.28 0 0 0 2.09 10.16c6.533 8.04 23.147 22.692 57.226 24.4-33.173-7.938-43.55-14.403-40.76-28.65.287-1.46 12.86-85.813 13.724-109.775" fill="#1263C4" fill-rule="nonzero"></path><path d="M526.552 513.553c.843.863-57.012-3.886-57.012-3.886h-53.106s2.094 4.987-.427 24.912c14.338 5.476 34.49 9.022 56.85 9.302 20.602.258 39.4-2.303 53.547-6.708-.203-7.685-.18-15.596.148-23.62" fill="#0F53B7" fill-rule="nonzero"></path><path d="M416.442 509.688l.014.035.006.017.02.06.006.017.03.093c0 .007.003.014.005.02a6.646 6.646 0 0 1 .088.325v.005c.396 1.592 1.222 6.727-.01 19.093l-.001.016a196.27 196.27 0 0 1-.59 5.21c3.646 1.394 7.674 2.66 12.014 3.78 1.402-11.99 2.433-22.414 2.659-28.691h-14.248l.005.013a.027.027 0 0 1 .003.007" fill="#074C9E" fill-rule="nonzero"></path><path d="M552.438 494.329c0 14.434-35.47 26.135-79.226 26.135-43.757 0-79.228-11.7-79.228-26.135 0-14.434 35.47-26.134 79.228-26.134 43.755 0 79.226 11.7 79.226 26.134" fill="#326DE6" fill-rule="nonzero"></path><path d="M526.554 490.575c0 5.738-23.882 10.39-53.342 10.39-29.461 0-53.343-4.652-53.343-10.39 0-5.737 23.882-10.39 53.343-10.39 29.46 0 53.342 4.653 53.342 10.39" fill="#E58200" fill-rule="nonzero"></path><path d="M473.211 480.188c28.325 0 51.482 4.3 53.225 9.732-.216-1.603-.405-6.212 2.598-14.134-14.322-4.692-34.046-7.59-55.823-7.59-21.996-.001-41.897 2.955-56.253 7.73a53.06 53.06 0 0 1 2.91 14.65c0-5.737 23.882-10.39 53.342-10.39" fill="#F49000" fill-rule="nonzero"></path><path d="M611.576 306.767l-16.581 7.094 2.373 6.043 17.02-7.577c.07-4.394-2.81-5.56-2.81-5.56" fill="#FFF" fill-rule="nonzero"></path><path d="M597.827 316.3c.65 1.7.385 3.383-.592 3.757s-2.296-.701-2.947-2.402c-.65-1.7-.386-3.382.591-3.756s2.298.701 2.947 2.401" fill="#F2AC2F" fill-rule="nonzero"></path><path d="M541.75 451.704s-10.362-6.638-15.705-5.505c-.162 0-1.943.81 0 2.672s6.476 4.614 6.476 4.614-11.333 1.943-16.73 5.235c-1.133.692-1.93 1.978-.652 3.212.922.89 2.422-.545 6.21-1.7 3.5-1.068 7.71-1.359 8.08-1.398-.352.12-16.286 5.577-15.059 8.953.836 2.298 3.36.934 6.332-.863 3.761-2.276 7.196-2.712 8.083-2.79-.81.278-3.05 1.62-1.922 3.451.567.92 2.567.716 3.92-.095-.082.405-.022.853.276 1.336.164.267.453.434.807.525 2.51-5.04 6.121-11.014 11.301-17.97l-1.417.323z" fill="#F49000" fill-rule="nonzero"></path><path d="M632.512 605.855c17.805-25.849 33.105-74.538 33.692-73.95 12.09 40.37 7.988 60.222 7.988 60.222l-1.388 21.02c10.5.485 21.402-.194 32.956-2.384 3.615-14.337 7.393-33.588 7.937-52.954 1.08-38.426-9.02-68.217-9.02-68.217s-7.818 8.635-33.076 9.283c-25.258.647-41.05-9.075-41.05-9.075-19.82 28.398-28.364 87.131-30.494 104.238 10.955 4.482 21.665 8.57 32.456 11.817" fill="#0F53B7" fill-rule="nonzero"></path><path d="M391.269 462.257c-11.49-6.278-23.734-12.282-31.66-22.703-3.337-4.387-5.453-11.381-1.176-14.86 3.039-2.472 7.764-1.473 10.811.988 3.048 2.462 4.728 6.189 7.176 9.248 16.267 20.324 28.788 25.517 32.509 38.536-5.95-3.463-11.51-7.85-17.66-11.21m-35.061-58.621c-.097-2.245-.389-5.188-2.26-6.2-1.782-.965-3.569-.682-4.633.12-1.774 1.34-2.313 4.209-2.24 6.106.118 3.034 2.95 6.13 5.872 5.303 2.162-.613 3.358-3.083 3.261-5.328m206.391-101.312c9.536 3.842 18.319 4.313 21.542 2.544 2.573-1.412 3.518-4.642 3.22-6.384-1-5.86-7.248-10.977-12.732-13.274-3.263-1.366-22.39-7.927-25.682 1.577-2.572 7.422 11.85 14.812 13.652 15.537m-178.694-41.172c-16.555 4.194-26.09 13.25-35.618 28.357-10.657 16.9-21.195 46.61-16.99 69.777.664 3.65 1.59 24.564 10.813 22.598 4.434-.945 2.493-14.22 2.708-18.466.424-8.36.28-14.254.98-22.427 1.523-17.79 7.475-31.828 19.965-45.625 4.687-5.177 13.847-10.92 19.728-15.493 1.83-1.423 3.914-3.66 5.018-5.278 3.764-5.509 2.092-15.646-6.604-13.443m143.825-17.421c-4.943-8.665-13.641-14.618-22.802-18.565-29.53-12.725-66.49-5.65-89.234 17.077-.796.795-1.61 1.527-2.35 2.276-3.448 3.48-3.244 9.243.617 12.257 1.516 1.184 3.607 2.001 6.415 1.587 3.388-.5 6.456-2.182 9.517-3.719 22.322-11.206 50.083-10.834 72.096.967 4.484 2.404 8.846 5.288 13.833 6.291 4.987 1.004 10.933-.457 13.367-4.924 2.222-4.079.842-9.213-1.46-13.247m17.832 16.385c-.343 1.55.133 3.205.81 4.575 2.605 5.265 8.04 7.566 13.01 7.071 1.768-.176 3.71-.814 4.642-2.684.916-1.839.501-4.345-.573-6.048-1.075-1.703-2.679-2.754-4.278-3.617-3.3-1.783-11.99-6.607-13.61.703" fill="#F2AC2F" fill-rule="nonzero"></path><path d="M593.038 449.334c-2.13 1.354-4.404 2.563-6.768 3.665.5 2.368.818 5.197.818 8.585h13.005s2.377-6.56-.497-14.122c-2.207-.304-4.622.645-6.558 1.873" fill="#E4F6F9" fill-rule="nonzero"></path><path d="M684.555 279.38c-.702-2.374-5.073-3.021-8.851-2.536-3.778.486-14.891 8.7-14.891 8.7.426.252 1.027.288 1.56.084 2.492-.953 12.754-7.367 12.754-7.367s3.096-1.512 6.375 1.575c3.279 3.086-2.637 4.919-2.637 4.919 3.646.786 6.391-3 5.69-5.374m6.691 4.264c-1.35 1.51-12.953 4.1-16.623 4.96-3.643.853-4.753.014-4.769.001.09 1.001.827 1.884 2.315 1.742 3.038-.289 7.957-1.109 11.285-2.29 2.45-.87 4.627-1.689 6.803-1.93 5.026 4.54 21.087 19.017 22.307 19.697l5.99 1.458 1.045-1.9a31.721 31.721 0 0 0-3.987-2.89c-10.713-6.628-24.366-18.849-24.366-18.849" fill="#FD9F90" fill-rule="nonzero"></path><path d="M715.613 302.492c-2.977 1.964-5.476 2.957-5.476 2.957s3.994 6.097 7.27 9.715a34.867 34.867 0 0 0 7.15-3.446c-1.088-2.508-3.527-5.875-8.943-9.225" fill="#E4F6F9" fill-rule="nonzero"></path><path d="M720.013 370.75c9.328-10.664 16.38-19.868 21.563-27.61-.696.295-1.455.742-2.288 1.375-10.46 7.934-25.842 17.725-30.711 30.436-3.158 8.247-1.834 17.445-.465 26.17l5.065 32.288c.468-8.268.632-18.377-.126-29.09-.738-10.426-.052-19.079-.052-19.079 1.94-7.61 7.014-14.49 7.014-14.49M606.658 596.7c1.144-.546.685-.99 1.363-2.655 1.506-3.693.648-10.13 1.036-14.162.934-9.695 2.437-19.38 5.436-28.672 3.128-9.692 7.852-18.906 9.807-28.9 1.022-5.229 1.282-10.649 3.133-15.644 1.248-3.365 3.44-6.736 6.532-8.677.327-.205 7.206-3.494 6.877-3.67-6.618-2.266-10.29-4.52-10.29-4.52-19.82 28.397-28.365 87.13-30.496 104.237 2.21.904 4.41 1.793 6.602 2.661m67.534-4.568l-1.386 21.016c1.521.07 3.05.116 4.59.136 1.844-14.273 2.94-31.298 2.95-37.23.03-18.048-6.478-49.22-6.42-49.266-3.183 3.515-7.72 5.12-7.72 5.12 12.09 40.368 7.987 60.223 7.987 60.223" fill="#074C9E" fill-rule="nonzero"></path><path d="M668.918 399.14s6.209 50.515 1.065 83.328" stroke="#F49000" stroke-width=".5"></path><path d="M667.096 408.402a2.974 2.974 0 1 1 5.947 0 2.974 2.974 0 0 1-5.947 0m1.227 19.198a2.974 2.974 0 1 1 5.947 0 2.974 2.974 0 0 1-5.947 0m.597 19.199a2.973 2.973 0 1 1 5.945 0 2.973 2.973 0 0 1-5.946 0m-.326 19.198a2.974 2.974 0 1 1 5.947 0 2.974 2.974 0 0 1-5.947 0" fill="#F49000" fill-rule="nonzero"></path><path fill="#E4F6F9" fill-rule="nonzero" d="M662.326 367.031l9.698.36-9.114 1.847-9.116 2.207z"></path><path d="M587.086 461.584a60.338 60.338 0 0 1 1.643-.102c.547-.028 1.095-.063 1.642-.081a179.894 179.894 0 0 1 6.571-.136c1.095-.012 2.19.005 3.285.008l-.304.247c.146-.667.276-1.348.393-2.027.122-.678.235-1.36.327-2.042.189-1.366.35-2.738.285-4.127.146.68.183 1.382.204 2.08.025.699-.014 1.396-.057 2.093-.1 1.393-.29 2.77-.544 4.15l-.045.246h-.26c-1.094.004-2.19.02-3.284.01a175.554 175.554 0 0 1-6.57-.137c-.548-.017-1.096-.053-1.643-.081a55.518 55.518 0 0 1-1.643-.102" fill="#92CFE0" fill-rule="nonzero"></path><ellipse stroke="#F2AC2F" stroke-width=".5" cx="5.366" cy="5.207" rx="5.048" ry="5.048" transform="translate(584.426933, 264.804063) scale(-1, 1) rotate(-90.000000) translate(-584.426933, -264.804063) translate(575.053971, 255.431101)"></ellipse><ellipse stroke="#F2AC2F" stroke-width=".5" cx="5.366" cy="5.207" rx="5.048" ry="5.048" transform="translate(305.858285, 429.402054) scale(-1, 1) rotate(-90.000000) translate(-305.858285, -429.402054) translate(296.485324, 420.029093)"></ellipse><path d="M326.697 258.423c10.287-13.918 24.304-24.79 39.547-32.988 15.243-8.197 31.733-13.828 48.388-18.533 2.207-.623 4.477-1.26 6.308-2.64 1.83-1.38 3.146-3.706 2.654-5.946-2.696-12.273-30.358-3.329-37.667-1.258-33.53 9.5-63.413 31.524-82.407 60.744-5.054 7.775-25.493 43.2-13.385 49.453 12.108 6.252 25.77-34.23 36.562-48.832m189.847-45.047c13.931 10.45 34.42 11.37 49.453 21.573 4.903 3.327 10.314 10.12 16.898 6.938 10.118-4.89 1.258-18.986-2.987-23.935-12.704-14.813-31.253-20.882-50.15-22.663-12.2-1.15-29.928 5.55-13.214 18.087M282.916 368.718c.63 9.32 3.17 18.43 6.54 27.143 1.72 4.447 3.69 8.864 6.663 12.59 2.972 3.728 7.063 6.743 11.752 7.604 3.953.727 8.595-.458 10.592-3.947 2.233-3.9.41-8.76-1.185-12.962a109.782 109.782 0 0 1-6.95-32.768c-.264-4.748-.225-9.562-1.393-14.171-1.167-4.61-3.755-9.113-7.962-11.33-4.845-2.552-12.212-1.123-14.712 3.946-3.454 7.01-3.86 16.258-3.345 23.895m346.19-115.856c8.67-.802 5.611-18.516.239-25.572-10.715-14.077-23.622-16.358-26.586-9.374-1.79 4.212 7.125 9.099 14.019 17.741 6.538 8.2 6.53 17.74 12.329 17.204M336.962 445.112c-1.918-.553-4.002-.746-5.896-.116-1.893.63-3.25 2.424-3.574 4.393-.328 1.997.554 6.017 1.967 7.83 4.985 6.394 25.43 12.112 36.493 12.613-.455-.184-12.863-10.054-15.08-12.408-4.105-4.358-8.744-10.825-13.91-12.31m40.465 29.493c-.73 1.857-.354 4.181 1.136 5.51 1.666 1.483 4.22 1.442 6.35.771 1.058-.334 2.148-.865 2.67-1.846.418-.786.396-1.748.138-2.6-.26-.852-.735-1.62-1.205-2.376-.97-1.56-2.551-3.542-4.65-3.355-1.89.17-3.793 2.256-4.438 3.896m188.849 8.62c-1.285-.544-2.916-.325-3.872.693-1.067 1.137-1.085 2.923-.655 4.423.214.746.566 1.517 1.24 1.9.543.306 1.216.31 1.816.143.6-.165 1.146-.483 1.683-.798 1.107-.65 2.522-1.718 2.43-3.188-.084-1.323-1.51-2.693-2.643-3.173M157.57 245.743c1.261-1.382-1.089-1.65-1.987-1.81-1.753-.312-3.523-.533-5.264-.905-.679-.145-1.249-.17-1.602-.8-.392-.7-.619-1.555-.902-2.304-.61-1.606-1.19-3.243-1.97-4.776-.964-1.892-1.847-.356-2.579.86-.91 1.513-1.735 3.075-2.625 4.6-.297.509-.59 1.277-1.116 1.585-.65.38-1.71.366-2.453.468-1.67.23-3.35.382-5.018.62-.506.072-1.577.064-1.802.677-.242.656.665 1.402 1.034 1.823 1.1 1.252 2.272 2.437 3.39 3.672.447.493 1.211 1.1 1.436 1.74.232.658-.193 1.69-.343 2.335-.399 1.715-.872 3.414-1.203 5.145-.242 1.265-.34 2.452 1.273 1.898 1.716-.59 3.367-1.405 5.036-2.111.747-.316 1.495-.633 2.257-.91.873-.315 1.303-.14 2.134.23 1.656.74 3.288 1.533 4.943 2.274.78.349 3.283 1.966 3.626.505.18-.766-.26-1.917-.444-2.668-.242-.995-.53-1.98-.814-2.964-.25-.875-.757-1.988-.756-2.9 0-.786.902-1.443 1.424-1.975 1.424-1.454 2.951-2.805 4.324-4.31m558.617.403c1.045-.723-.47-1.257-1.04-1.5-1.113-.473-2.25-.887-3.347-1.398-.427-.2-.8-.302-.94-.772-.152-.523-.172-1.124-.246-1.663-.16-1.156-.296-2.328-.58-3.46-.35-1.4-1.167-.517-1.836.177-.832.863-1.616 1.772-2.436 2.646-.274.292-.585.756-.98.88-.49.153-1.188-.018-1.695-.063-1.14-.1-2.275-.256-3.416-.352-.346-.029-1.053-.197-1.294.174-.26.398.227 1.03.408 1.365.537.996 1.133 1.958 1.686 2.945.22.394.634.913.686 1.37.053.47-.385 1.09-.582 1.493-.524 1.075-1.096 2.128-1.578 3.223-.352.8-.596 1.572.555 1.45 1.225-.13 2.442-.419 3.654-.633.542-.095 1.086-.192 1.632-.259.626-.076.884.105 1.378.477.984.74 1.943 1.513 2.927 2.255.463.35 1.874 1.8 2.323.885.235-.48.118-1.309.11-1.833-.008-.696-.05-1.39-.087-2.085-.034-.618-.2-1.432-.06-2.035.12-.52.816-.819 1.242-1.092 1.163-.746 2.38-1.408 3.517-2.195" fill="#F2AC2F" fill-rule="nonzero"></path><path d="M393.61 89.496c.328-1.228-1.173-.654-1.764-.47-1.155.36-2.29.78-3.457 1.1-.455.125-.806.29-1.216.02-.455-.3-.859-.745-1.264-1.107-.87-.778-1.732-1.583-2.682-2.263-1.172-.84-1.224.362-1.285 1.324-.075 1.197-.084 2.396-.144 3.594-.02.4.044.955-.178 1.305-.273.433-.916.755-1.33 1.05-.936.66-1.9 1.276-2.834 1.942-.282.201-.93.532-.874.97.06.472.84.638 1.194.777 1.054.411 2.132.76 3.192 1.153.423.158 1.074.286 1.41.6.345.324.412 1.08.523 1.515.296 1.16.542 2.331.883 3.48.25.837.563 1.583 1.362.745.85-.893 1.59-1.9 2.376-2.848.35-.424.703-.85 1.076-1.254.428-.464.741-.492 1.358-.529 1.23-.072 2.461-.104 3.69-.175.58-.034 2.595.158 2.345-.83-.13-.517-.757-1.074-1.102-1.469-.457-.524-.94-1.027-1.417-1.532-.426-.449-1.079-.962-1.363-1.512-.246-.474.092-1.152.24-1.636.404-1.322.902-2.614 1.26-3.95" fill="#FFF" fill-rule="nonzero"></path><path d="M251.017 662.77c-50.517-24.76-138.063-15.972-192.205-63.487C39.724 582.53 25.192 545.526 1 537.798l-.35-.11V663.2h251.185c-.27-.15-.54-.294-.818-.43" fill="#58B6C6" fill-rule="nonzero"></path><path d="M182 583.506c-19.756-9.963-64.586-46.072-83.453-20.406-20.595 28.02 44.876 54.696 63.72 61.197 16.688 5.758 78.062 24.38 75.546-7.6-1.4-17.8-41.783-26.117-55.813-33.192" fill="#58B6C6" fill-rule="nonzero"></path><path d="M72.275 533.927c1.718-.892-.467-1.989-1.282-2.464-1.59-.929-3.228-1.774-4.785-2.756-.607-.383-1.15-.61-1.269-1.347-.13-.818-.046-1.73-.054-2.557-.019-1.776 0-3.572-.21-5.339-.259-2.177-1.663-1.003-2.807-.083-1.423 1.143-2.78 2.365-4.188 3.527-.469.388-1.028 1.029-1.648 1.14-.767.137-1.79-.255-2.547-.42-1.702-.371-3.386-.824-5.09-1.188-.517-.11-1.553-.5-1.99.014-.468.55.146 1.598.354 2.138.62 1.607 1.335 3.175 1.98 4.772.258.638.782 1.5.773 2.201-.01.72-.79 1.572-1.165 2.142-1 1.523-2.064 3.003-3.002 4.565-.686 1.14-1.204 2.258.558 2.295 1.876.04 3.768-.163 5.64-.253.837-.04 1.676-.081 2.514-.077.96.004 1.314.327 1.988.983 1.344 1.308 2.644 2.66 3.987 3.968.632.617 2.484 3.078 3.338 1.783.447-.679.43-1.953.52-2.746.12-1.053.19-2.11.267-3.167.068-.939-.026-2.199.3-3.084.281-.762 1.39-1.078 2.086-1.409 1.9-.902 3.864-1.669 5.732-2.638" fill="#D3EAF2" fill-rule="nonzero"></path><path d="M204.198 557.468c.734-1.57-1.417-1.157-2.255-1.05-1.635.207-3.26.5-4.901.652-.64.06-1.15.195-1.636-.264-.54-.51-.976-1.203-1.433-1.786-.982-1.252-1.948-2.537-3.06-3.677-1.374-1.406-1.73.195-2.04 1.472-.387 1.588-.685 3.196-1.05 4.79-.122.531-.17 1.29-.55 1.708-.47.516-1.41.796-2.037 1.09-1.412.666-2.854 1.263-4.263 1.934-.427.203-1.375.493-1.405 1.095-.032.647.975 1.056 1.417 1.326 1.318.803 2.68 1.527 4.01 2.308.53.313 1.374.64 1.75 1.142.385.516.295 1.548.34 2.157.12 1.626.172 3.258.358 4.88.136 1.184.377 2.26 1.649 1.324 1.353-.994 2.586-2.17 3.867-3.256.572-.485 1.146-.972 1.743-1.426.684-.52 1.112-.485 1.949-.386 1.667.195 3.328.446 4.995.643.785.093 3.444.83 3.344-.554-.053-.727-.76-1.622-1.13-2.235-.488-.813-1.015-1.602-1.537-2.394-.464-.704-1.22-1.548-1.47-2.354-.215-.694.4-1.524.714-2.139.857-1.677 1.833-3.293 2.63-5" fill="#C1DEE5" fill-rule="nonzero"></path><path d="M257.495 154.087c-.035-.01-.072-.013-.108-.02.325.26.657.47.992.66-.05-.135-.465-.532-.884-.639m15.015 55.411c4.432-8.9.037-21.68-11.083-17.68-10.283 3.7-17.703 14.439-23.615 23.084-13.164 19.249-23.696 42.553-24.054 66.194-.072 4.734.173 14.016 5.478 16.066 10.106 3.905 15.63-16.37 18.047-22.114 4.968-11.814 9.89-23.667 15.738-35.082 2.685-5.245 5.503-10.47 8.709-15.42 3.302-5.098 8.074-9.613 10.78-15.048m123.475-75.879c-8.89-21.416-93.42 11.386-85.84 34.012 3.947 11.782 22.371-2.864 43.356-12.314 20.804-9.37 48.693-6.74 42.484-21.697M217.523 352.668c1.643-2.436-2.07-2.312-3.502-2.355-2.794-.083-5.593-.02-8.385-.2-1.087-.07-1.978.025-2.671-.873-.77-.996-1.318-2.274-1.93-3.372-1.315-2.356-2.595-4.765-4.158-6.968-1.93-2.718-2.95-.13-3.807 1.928-1.066 2.56-1.99 5.175-3.022 7.748-.344.859-.624 2.12-1.37 2.718-.924.74-2.574.96-3.703 1.29-2.54.742-5.116 1.363-7.653 2.114-.77.228-2.434.463-2.644 1.466-.224 1.074 1.356 2.026 2.026 2.594 1.994 1.694 4.088 3.266 6.109 4.927.806.663 2.133 1.433 2.63 2.374.51.967.087 2.67.002 3.704-.226 2.757-.571 5.505-.688 8.27-.085 2.02.036 3.887 2.413 2.656 2.53-1.31 4.907-2.955 7.34-4.436 1.086-.661 2.176-1.326 3.296-1.93 1.284-.692 1.99-.518 3.367-.133 2.743.768 5.46 1.626 8.2 2.397 1.292.362 5.552 2.3 5.75-.048.103-1.23-.847-2.918-1.302-4.041-.605-1.492-1.28-2.953-1.945-4.418-.591-1.302-1.634-2.914-1.841-4.332-.18-1.22 1.07-2.448 1.759-3.395 1.878-2.584 3.94-5.034 5.728-7.685" fill="#F2AC2F" fill-rule="nonzero"></path><path d="M613.421 627.331c47.05 34.212 74.888 18.633 112.332 27.95-22.273 4.802-45.243 5.05-68.027 5.277-14.802.148-29.666.3-44.403-1.328-7.074-.78-15.912-1.24-22.495-4.12-6.446-2.824-7.943-7.415-8.862-14.885-.624-5.069.276-10.548 3.551-14.469 7.056-8.459 20.55-3.773 27.905 1.576" fill="#81C3D3" fill-rule="nonzero"></path><path d="M937.946 663.203v-94.962c-24.604 0-67.139 7.195-94.13 23.557-55.664 33.745-94.5 31.895-181.72 71.405h275.85z" fill="#58B6C6" fill-rule="nonzero"></path><path d="M603.016 167.633c2.624 2.027 5.21 4.21 8.294 5.424 3.085 1.216 6.855 1.29 9.477-.74 2.1-1.626 2.965-4.046 3.164-6.708.346-4.646-1.432-9.198-4.666-12.552-14.492-15.03-36.44-21.46-57.443-24.024-3.49-.427-7.08-.764-10.487.113-5.274 1.358-10.564 7.484-7.208 13 2.831 4.65 11.358 4.667 15.966 5.655 15.534 3.327 30.325 10.117 42.903 19.832M240.368 442.904c5.576-6.956 19.577 5.824 38.032 17.249 14.789 9.155 33.661 16.413 44.21 19.625-16.01 2.967-45.082-1.727-50.394-3.353-13.8-4.223-42.292-20.492-31.848-33.521" fill="#F2AC2F" fill-rule="nonzero"></path><path d="M261.808 625.445c.002 7.029 5.047 13.194 10.68 17.398 12.23 9.125 28.4 10.458 43.625 11.458 4.723.31 10.594-.016 12.597-4.304 1.267-2.711.304-5.981-1.328-8.49-1.632-2.51-3.88-4.57-5.532-7.066-8.61-13.03 3.216-28.286 15.088-33.705 4.14-1.89 10.47-3.953 11.173-9.226.74-5.562-5.457-9.495-10.236-10.351-2.216-.397-24.11-1.345-41.56 6.083-19.44 8.273-34.512 25.618-34.507 38.203m382.749-8.337c5.493.214 11.75 1.847 14.1 6.817 1.742 3.682.676 8.232-1.762 11.495-2.44 3.263-6.04 5.45-9.691 7.255-8.398 4.146-17.48 6.646-26.648 8.402-5.136.984-18.338 5.44-22.653 1.465-10.584-9.753 14.51-26.808 20.948-29.93 7.96-3.86 16.854-5.85 25.706-5.503" fill="#58B6C6" fill-rule="nonzero"></path><path d="M699.02 139.964c.364-1.938-1.888-.872-2.781-.517-1.742.693-3.448 1.478-5.213 2.11-.688.248-1.211.542-1.877.175-.74-.408-1.417-1.05-2.087-1.561-1.436-1.1-2.865-2.242-4.415-3.181-1.912-1.16-1.85.705-1.83 2.2.027 1.86.154 3.716.205 5.574.017.62.18 1.47-.12 2.039-.37.7-1.327 1.277-1.934 1.78-1.366 1.133-2.786 2.2-4.148 3.34-.412.345-1.375.932-1.236 1.606.148.72 1.374.885 1.938 1.057 1.678.51 3.385.92 5.072 1.404.673.194 1.695.314 2.25.76.573.46.766 1.62.989 2.28.595 1.757 1.115 3.54 1.78 5.273.485 1.267 1.057 2.383 2.192.992 1.209-1.48 2.233-3.126 3.335-4.685.493-.697.987-1.396 1.515-2.066.607-.768 1.088-.85 2.037-.98 1.893-.257 3.794-.453 5.686-.71.89-.12 4.03-.061 3.525-1.56-.264-.784-1.297-1.57-1.878-2.14-.77-.756-1.573-1.476-2.373-2.2-.71-.644-1.782-1.36-2.287-2.176-.435-.704.007-1.793.178-2.558.468-2.091 1.084-4.15 1.479-6.256" fill="#FFF" fill-rule="nonzero"></path><path d="M68.273 298.57c-6.894-24.246-14.765-43.99-22.643-59.93C23.164 193.181.65 178.63.65 178.63v-76.066L.389 438.388c28.185-84.1 67.885-139.818 67.885-139.818" fill="#81C3D3" fill-rule="nonzero"></path><path d="M.65 178.63v-76.066L.51 281.61a387.746 387.746 0 0 1 4.39-7.417c10.11-16.617 21.627-32.53 34.861-46.755C19.405 190.758.651 178.63.651 178.63" fill="#58B6C6" fill-rule="nonzero"></path></g></g></g></g></g><path d="M38 795v-31.212c0-3.197 4.22-5.788 9.425-5.788h1104.15c5.206 0 9.425 2.591 9.425 5.788V795" fill="#CDD1D1"></path><path d="M681.36 782H517.64c-5.877 0-10.64-2.91-10.64-6.5s4.763-6.5 10.64-6.5h163.72c5.877 0 10.64 2.91 10.64 6.5s-4.763 6.5-10.64 6.5" fill="#B0B3B3"></path></g></svg>