<svg viewBox="0 0 1200 900" xmlns="http://www.w3.org/2000/svg" xmlns:xlink="http://www.w3.org/1999/xlink"><defs><path id="path-1" d="M0 585.015h921.26V0H0z"></path><path d="M.075 23.827c.585.305 1.164.634 1.727.985 1.853 1.158 3.528 2.546 4.907 4.081 2.282 2.54 3.834 5.499 4.464 8.566l4.218-23.749c-.63-3.067-2.182-6.026-4.465-8.566C9.548 3.61 7.873 2.221 6.02 1.064A25.208 25.208 0 0 0 4.29.077" id="path-3"></path><path d="M.068 23.792c.4 1.928.417 3.898.075 5.808L4.361 5.85c.341-1.91.325-3.879-.075-5.807" id="path-5"></path><path d="M4.306 11.12L.088 34.869c3.343-3 5.476-6.853 6.21-10.978L10.514.14" id="path-7"></path><path d="M4.263.976L.046 24.724c5.976-1.762 13.218-1.027 18.932 1.922l4.218-23.749C19.54 1.011 15.26.03 11.086.03" id="path-9"></path><path d="M5.17 9.765c-.263.54-.487 1.103-.692 1.672L.26 35.185c.205-.569.43-1.131.693-1.671 2.09-4.4 6.517-7.974 11.84-9.548L17.01.218" id="path-11"></path><path d="M4.514 2.4L.296 26.15c.127-.716.309-1.42.54-2.108L5.053.292" id="path-13"></path><path d="M.319 23.847C-.667 29.4.976 35.352 4.939 40.22l4.218-23.75C5.193 11.603 3.551 5.65 4.537.099" id="path-15"></path><path d="M4.397 6.326L.182 30.076c7.863.795 15.661-1.516 20.864-6.177L25.264.15" id="path-17"></path><path d="M.12 23.974c1.805 2.226 4.062 4.17 6.608 5.762a31.168 31.168 0 0 0 13.252 4.526l4.217-23.749c-4.754-.485-9.352-2.089-13.251-4.527C8.4 4.396 6.143 2.451 4.338.224" id="path-19"></path><linearGradient x1="0%" y1="49.999%" x2="100%" y2="49.999%" id="linearGradient-21"><stop stop-color="#4FAAC4" offset="0%"></stop><stop stop-color="#2F81B6" offset="0%"></stop><stop stop-color="#3B5EA9" offset="100%"></stop></linearGradient><linearGradient x1="0%" y1="50.002%" x2="100%" y2="50.002%" id="linearGradient-22"><stop stop-color="#4FAAC4" offset="0%"></stop><stop stop-color="#2F75B1" offset="0%"></stop><stop stop-color="#356EAC" offset="100%"></stop></linearGradient><linearGradient x1="0%" y1="49.982%" x2="100%" y2="49.982%" id="linearGradient-23"><stop stop-color="#2C9EC7" offset="0%"></stop><stop stop-color="#2C63A5" offset="40%"></stop><stop stop-color="#395DA1" offset="100%"></stop></linearGradient><linearGradient x1="0%" y1="49.976%" x2="100%" y2="49.976%" id="linearGradient-24"><stop stop-color="#38B1DA" offset="0%"></stop><stop stop-color="#38B1DA" offset="11%"></stop><stop stop-color="#326FB5" offset="100%"></stop></linearGradient><linearGradient x1="1.181%" y1="49.987%" x2="101.181%" y2="49.987%" id="linearGradient-25"><stop stop-color="#91D3F2" offset="0%"></stop><stop stop-color="#6FB2DE" offset="27%"></stop><stop stop-color="#5598CE" offset="52%"></stop><stop stop-color="#4B8FC8" offset="67%"></stop><stop stop-color="#4B8FC8" offset="100%"></stop></linearGradient><linearGradient x1="0%" y1="26.454%" x2="100%" y2="26.454%" id="linearGradient-26"><stop stop-color="#4FAAC4" offset="0%"></stop><stop stop-color="#2C5A9A" offset="0%"></stop><stop stop-color="#374580" offset="100%"></stop></linearGradient><linearGradient x1="0%" y1="50.002%" x2="100%" y2="50.002%" id="linearGradient-27"><stop stop-color="#4FAAC4" offset="0%"></stop><stop stop-color="#1E3773" offset="0%"></stop><stop stop-color="#203370" offset="100%"></stop></linearGradient></defs><g fill="none" fill-rule="evenodd"><path d="M52 781h1095c7.732 0 14 6.268 14 14s-6.268 14-14 14H52c-7.732 0-14-6.268-14-14s6.268-14 14-14z" fill="#C1C3C3"></path><path d="M1100 759H99V116.949C99 102.619 110.622 91 124.96 91h949.08c14.338 0 25.96 11.619 25.96 25.949V759" fill="#373D54"></path><path fill="#B9D2D8" d="M140 722h921V137H140z"></path><g transform="translate(140.000000, 137.000000)"><mask id="mask-2" fill="#fff"><use xlink:href="#path-1"></use></mask><use fill="#B9D2D8" xlink:href="#path-1"></use><g mask="url(#mask-2)"><g transform="translate(-7.479343, 0.000000)"><path fill="#D3EAF2" d="M0 585.341h936.544V.001H0z"></path><path d="M936.544 227.255c-8.738-10.91-18.416-21.316-30.883-30.135-23.94-16.93-56.45-26.568-89.489-31.16-44.648-6.208-87.008-1.792-129.685-13.924-39.17-11.138-103.479-44.847-141.392-57.767-55.663-18.968-107.017-45.504-204.717-36.724-61.804 5.555-158.872 45.764-205.834 78.524C88.163 168.422 43.031 202.437 0 235.489V535.93c74.12-24.97 166.724-22.48 248.808-8.86 103.628 17.198 203.452 49.106 309.684 53.055 100.523 3.736 201.28-17.917 301.132-8.841 25.508 2.318 50.19 6.555 74.312 12.133.871-.38 1.74-.766 2.608-1.15V227.255z" fill="#C1DEE5"></path><path d="M936.544 333.116c-33.098-14.254-65.805-28.866-95.326-46.625-41.218-24.795-75.49-55.308-118.785-78.22-43.296-22.91-100.35-37.732-151.164-24.985-44.606 11.19-77.788 41.83-124.479 47.094-39.784 4.481-78.657-10.75-118.853-12.513-47.659-2.088-93.5 15.13-128.912 38.05-35.413 22.923-62.63 51.438-92.726 77.965-19.386 17.087-40.08 33.414-61.94 48.896A819.55 819.55 0 0 1 0 412.053v83.387c83.767-40.678 140.446-60.605 223.912-75.58 132.196-23.72 270.18 11.729 401.582 37.614 72.846 14.35 143.594 33.627 212.957 54.96 32.932 10.128 65.574 20.734 98.093 31.524V333.116z" fill="#D3EAF2"></path><path d="M936.544 0h-430.69c57.139 35.998 121.695 60.192 188.437 70.524 61.984 9.593 125.777 7.424 186.616 22.691 20.263 5.086 38.197 12.751 55.637 21.44V0zM0 0v132.72c8.153-3.864 15.322-7.399 20.514-9.48a1502.636 1502.636 0 0 0 119.298-53.913A1497.904 1497.904 0 0 0 262.325 0H0z" fill="#C1DEE5"></path><path d="M121.601 367.527v32.282s-12.254 148.144 20.216 223.27l32.432-34.128-30.072-212.373-22.576-9.05z" fill="#81C3D3"></path><path d="M173.812 432.197c-18.653-3.583-37.012-12.297-48.488-27.432-11.272-14.867-14.77-34.168-16.047-52.78-4.398-64.06 14.271-129.462 51.824-181.544 6.287-8.721 13.291-17.26 22.554-22.711 9.262-5.453 21.248-7.336 30.79-2.39 13.851 7.18 17.555 24.74 23.912 38.987 16.414 36.792 57.734 59.535 68.706 98.298 5.824 20.575 1.944 42.924-6.522 62.558-8.467 19.633-21.258 37.04-33.938 54.256-8.897 12.08-19.955 30.295-35.014 34.752-15.72 4.653-41.91 1.053-57.777-1.994" fill="#81C3D3"></path><path d="M193.123 141.103s-64.264 49.962-48.946 235.475c4.802 58.156 80.146 63.068 139.276 51.342 61.023-12.101 98.63-.876 111.482 11.26 12.849 12.137 50.486 85.468 81.122 100.785 30.636 15.318 151.086 8.394 187.032-9.325 35.95-17.719 4.683-95.72 4.683-95.72L354.368 137.455l-161.245 3.649z" fill="#81C3D3"></path><path d="M384.66 392.667c.103.945 88.324 130.276 102.84 139.236 25.147 15.52 171.82-.056 171.82-.056l-105.732-69.09-171.306-89.747 2.377 19.657z" fill="#58B6C6"></path><path d="M249.763 406.577c8.816 3.197 18.352 3.682 27.724 4.037 48.489 1.84 98.662 1.03 145.415 9.4 1.378-14.38-5.574-22.602-14.692-33.808-9.119-11.206-21.336-19.5-34.07-26.327-31.134-16.694-66.511-25.213-101.809-25.079-17.57.067-35.406 2.124-52.38 6.75-18.137 4.944-14.855 16.34-6.718 30.036 8.669 14.592 20.053 29.015 36.53 34.99" fill="#58B6C6"></path><path d="M751.866 435.863s5.785 103.11-23.147 173.458c-5.112 27.462 63.425-37.87 63.425-37.87l-12.205-135.927-28.073.339zm-453.924 48.803c.41 2.296 1.573 4.466 1.558 6.798-.04 6.47-8.564 9.92-9.83 16.265-.746 3.74 1.35 7.587 4.31 9.992 2.958 2.405 6.664 3.655 10.282 4.857 11.79 3.918 23.688 7.86 36.035 9.238 12.35 1.377 25.349.011 36.142-6.143 12.136-6.92 20.561-19.655 23.069-33.397 1.349-7.404.825-15.766-4.163-21.4-5.066-5.724-13.323-7.188-20.942-7.827-16.845-1.412-33.325-.066-49.95 2.668-5.21.856-10.69-.058-15.544 2.24-6.116 2.895-12.268 9.415-10.967 16.709" fill="#81C3D3"></path><path d="M308.901 486.357c-1.661 6.668-1.004 14.707 4.355 19.007 3.513 2.818 8.266 3.426 12.356 5.31 4.016 1.85 7.368 4.926 11.371 6.805 5.994 2.813 12.936 2.72 19.505 1.895 9.652-1.21 19.287-3.958 27.306-9.458 8.02-5.5 14.286-14.002 15.655-23.63.449-3.16.263-6.692-1.85-9.084-1.994-2.26-5.216-2.951-8.228-3.151-14.025-.931-27.748 5.99-41.75 4.726-4.68-.422-9.213-1.764-13.541-3.553-3.922-1.622-14.407-12.04-17.375-8.937-3.719 3.888-6.149 13.428-7.804 20.07" fill="#58B6C6"></path><path d="M767.764 425.235c1.37 6.6-.913 13.318-6.103 17.978l-91.883 82.36c-5.203 4.66-13 6.97-20.864 6.175L510.02 517.725a31.174 31.174 0 0 1-13.252-4.527c-2.546-1.59-4.803-3.535-6.608-5.762l-81.355-99.846c-4.589-5.64-6.068-12.733-3.955-18.973l37.475-110.493c.247-.69.52-1.353.82-1.993 2.536-5.336 7.7-9.496 14.162-11.411l128.059-37.94c7.239-2.14 15.694-1.284 22.6 2.29l122.236 63.197c.702.364 1.392.754 2.058 1.17 2.205 1.38 4.195 3.034 5.847 4.868 2.712 3.018 4.556 6.547 5.317 10.195l24.34 116.735z" fill="#0F53B7"></path><path d="M504.602 335.717c19.44 12.149 24.484 34.65 11.255 50.265-13.229 15.614-39.715 18.424-59.155 6.276-19.434-12.144-24.47-34.65-11.242-50.265 13.229-15.615 39.709-18.42 59.142-6.276" fill="#1A3877"></path><path d="M504.602 335.717c-16.12-10.072-37.081-9.851-51.312-.575 12.166-2.753 27.603-3.2 39.683 2.746 20.038 9.863 25.53 37.056 12.302 52.671-2.257 2.664-8.201 6.143-11.128 8.05 8.54-1.932 16.253-6.188 21.71-12.627 13.229-15.615 8.185-38.116-11.255-50.265" fill="#09224B"></path><path d="M768.792 444.656s5.957 91.675-20.422 157.74c-.852.542 97.706 31.752 97.706 31.752s-1.544-144.39-18.565-200.555c0 1.702-.283-64.107-22.126-100.699-21.842-36.592-64.673-57.583-81.41-61.553.282.283 43.968 81.693 43.968 81.693l.849 91.622z" fill="#FDBDB4"></path><path d="M756.77 317.765c2.052 1.89 3.411 4.397 4.734 6.854 7.903 14.68 15.97 29.899 17.336 46.515.257 3.122-.569 7.285-3.687 7.585-2.514.243-4.267-2.355-5.418-4.603l-20.308-39.596c-1.56-3.04-3.148-6.172-3.476-9.573-.673-6.958 4.738-12.782 10.819-7.182" fill="#FD9F90"></path><path d="M743.814 285.922l-4.217 23.749c-.631-3.067-2.183-6.026-4.465-8.566-1.38-1.535-3.054-2.923-4.907-4.08a25.933 25.933 0 0 0-1.727-.986l4.214-23.749c.589.306 1.168.634 1.73.986 1.85 1.157 3.529 2.546 4.907 4.08 2.283 2.54 3.834 5.5 4.465 8.566" fill="#1A3877"></path><g transform="translate(728.423014, 272.212331)"><mask id="mask-4" fill="#fff"><use xlink:href="#path-3"></use></mask><path d="M15.391 13.71l-4.218 23.749c-.63-3.067-2.182-6.026-4.464-8.566-1.38-1.535-3.054-2.923-4.907-4.081a25.933 25.933 0 0 0-1.727-.985L4.289.078a25.19 25.19 0 0 1 1.73.985c1.85 1.158 3.529 2.547 4.907 4.081 2.283 2.54 3.834 5.5 4.465 8.566" fill="#1A3877" mask="url(#mask-4)"></path></g><path fill="#1A3877" d="M768.155 402.656l-4.218 23.749-24.34-116.734 4.217-23.749zm.075 5.808l-4.218 23.749c.341-1.91.325-3.88-.075-5.808l4.218-23.749c.4 1.928.413 3.898.074 5.808"></path><g transform="translate(763.868599, 402.613058)"><mask id="mask-6" fill="#fff"><use xlink:href="#path-5"></use></mask><path d="M4.36 5.85L.144 29.6c.342-1.91.325-3.88-.075-5.808L4.286.042c.4 1.93.413 3.899.075 5.809" fill="#1A3877" mask="url(#mask-6)"></path></g><path d="M772.43 409.259l-4.214 23.748c-.735 4.126-2.868 7.98-6.21 10.979l4.217-23.749c3.343-3 5.476-6.853 6.208-10.978" fill="#1A3877"></path><g transform="translate(761.917466, 409.116835)"><mask id="mask-8" fill="#fff"><use xlink:href="#path-7"></use></mask><path d="M10.513.141L6.3 23.891a18.555 18.555 0 0 1-.823 3.063L9.694 3.205c.36-.998.637-2.022.82-3.064m-.82 3.064L5.476 26.954c-1.066 2.953-2.89 5.673-5.388 7.915l4.218-23.75c2.497-2.242 4.321-4.96 5.388-7.914" fill="#1A3877" mask="url(#mask-8)"></path></g><path d="M610.487 209.096l-4.218 23.749c-5.713-2.95-12.955-3.684-18.932-1.922l4.217-23.748c5.974-1.763 13.22-1.028 18.933 1.921" fill="#1A3877"></path><g transform="translate(587.291055, 206.198995)"><mask id="mask-10" fill="#fff"><use xlink:href="#path-9"></use></mask><path d="M23.196 2.897l-4.218 23.749c-3.395-1.753-7.326-2.722-11.212-2.852L11.98.046c3.89.13 7.82 1.099 11.216 2.851M11.98.046L7.766 23.794c-2.29-.075-4.56.14-6.693.657L5.291.702C7.424.182 9.694-.033 11.98.046" fill="#1A3877" mask="url(#mask-10)"></path><path d="M5.29.702L1.074 24.451c-.345.081-.69.176-1.027.273L4.263.976c.338-.098.68-.192 1.028-.274" fill="#1A3877" mask="url(#mask-10)"></path></g><path fill="#1A3877" d="M732.712 272.29l-4.214 23.749-122.229-63.194 4.218-23.749zm-141.158-65.115l-4.217 23.748-128.06 37.94 4.218-23.749z"></path><path d="M463.495 245.114l-4.218 23.749c-5.323 1.574-9.749 5.148-11.84 9.547-.263.54-.488 1.103-.693 1.672l4.218-23.749c.205-.569.43-1.131.693-1.671 2.09-4.4 6.517-7.974 11.84-9.548" fill="#1A3877"></path><g transform="translate(446.484285, 244.896468)"><mask id="mask-12" fill="#fff"><use xlink:href="#path-11"></use></mask><path d="M17.01.218l-4.217 23.748a20.906 20.906 0 0 0-6.045 2.898l4.217-23.752A20.942 20.942 0 0 1 17.011.218m-6.046 2.894L6.748 26.864c-2.54 1.775-4.57 4.071-5.795 6.65-.254.52-.472 1.063-.67 1.613L4.5 11.378c.195-.55.416-1.092.67-1.613 1.225-2.578 3.255-4.877 5.794-6.653" fill="#1A3877" mask="url(#mask-12)"></path><path d="M4.5 11.378L.284 35.127l-.023.058 4.218-23.748a.328.328 0 0 1 .023-.059" fill="#1A3877" mask="url(#mask-12)"></path></g><path fill="#1A3877" d="M450.962 256.333l-4.218 23.749-37.471 110.477 4.218-23.749z"></path><path d="M408.733 392.667l4.218-23.75c.127-.715.309-1.42.54-2.107l-4.218 23.75c-.231.687-.41 1.391-.54 2.107" fill="#1A3877"></path><g transform="translate(408.437190, 366.517096)"><mask id="mask-14" fill="#fff"><use xlink:href="#path-13"></use></mask><path d="M5.053.293L.836 24.042a14.677 14.677 0 0 0-.54 2.108L4.514 2.4c.126-.715.309-1.42.54-2.107" fill="#1A3877" mask="url(#mask-14)"></path></g><path d="M404.528 391.99l4.218-23.748c-.985 5.55.657 11.504 4.621 16.372l-4.218 23.749c-3.964-4.868-5.606-10.82-4.62-16.372" fill="#1A3877"></path><g transform="translate(404.209735, 368.143040)"><mask id="mask-16" fill="#fff"><use xlink:href="#path-15"></use></mask><path d="M9.157 16.47L4.94 40.22C.976 35.352-.667 29.399.319 23.848L4.536.098c-.985 5.552.657 11.504 4.621 16.373" fill="#1A3877" mask="url(#mask-16)"></path></g><path fill="#1A3877" d="M766.223 420.237l-4.218 23.749-91.882 82.359 4.218-23.749z"></path><path d="M674.34 502.596l-4.217 23.75c-5.203 4.66-13 6.97-20.864 6.175l4.214-23.75c7.867.797 15.665-1.514 20.868-6.175" fill="#1A3877"></path><g transform="translate(649.076936, 502.446034)"><mask id="mask-18" fill="#fff"><use xlink:href="#path-17"></use></mask><path d="M25.264.15L21.046 23.9c-.65.581-1.34 1.127-2.065 1.634L23.2 1.784A21.97 21.97 0 0 0 25.264.15" fill="#1A3877" mask="url(#mask-18)"></path><path d="M23.199 1.785l-4.218 23.749c-2.546 1.779-5.528 3.09-8.738 3.867l4.218-23.749c3.21-.778 6.192-2.088 8.738-3.867" fill="#1A3877" mask="url(#mask-18)"></path><path d="M14.461 5.652l-4.218 23.749a29.848 29.848 0 0 1-8.015.812l4.217-23.75c2.745.092 5.45-.19 8.016-.81" fill="#1A3877" mask="url(#mask-18)"></path><path d="M6.445 6.463l-4.217 23.75a30.802 30.802 0 0 1-2.05-.138l4.219-23.75c.682.07 1.365.116 2.048.138" fill="#1A3877" mask="url(#mask-18)"></path></g><path fill="#1A3877" d="M494.723 484.46l-4.218 23.749-81.356-99.846 4.218-23.749zm158.75 24.312l-4.217 23.749-138.892-14.023 4.218-23.749z"></path><path d="M763.05 417.713c4.285-3.84 6.236-9.613 5.105-15.057l-24.34-116.734c-.632-3.066-2.183-6.025-4.466-8.565-1.378-1.535-3.056-2.924-4.907-4.081a25.208 25.208 0 0 0-1.73-.986l-122.225-63.194c-5.714-2.949-12.959-3.684-18.933-1.921l-128.06 37.94c-5.322 1.573-9.748 5.147-11.84 9.547a16.87 16.87 0 0 0-.692 1.671L413.491 366.81c-1.75 5.161-.478 11.259 3.326 15.918l81.35 99.85c1.486 1.83 3.375 3.45 5.508 4.784 3.307 2.067 7.21 3.446 11.144 3.851l138.895 14.023c6.481.652 13.167-1.324 17.453-5.164l91.882-82.359zm9.277-15.454c1.366 6.599-.914 13.318-6.104 17.978l-91.882 82.359c-5.203 4.66-13.001 6.972-20.868 6.176l-138.89-14.023c-4.755-.486-9.353-2.09-13.252-4.527-2.547-1.591-4.803-3.535-6.608-5.762l-81.356-99.846c-4.592-5.64-6.071-12.734-3.954-18.974l37.471-110.49c.247-.69.524-1.356.823-1.994 2.536-5.336 7.697-9.499 14.159-11.414l128.062-37.936c7.239-2.143 15.69-1.288 22.601 2.286l122.235 63.197c.703.364 1.389.754 2.059 1.174 2.204 1.379 4.195 3.03 5.847 4.865 2.712 3.02 4.552 6.546 5.316 10.198l24.34 116.733z" fill="#326DE6"></path><path d="M514.582 494.749l-4.218 23.749a31.168 31.168 0 0 1-13.251-4.527c-2.546-1.59-4.803-3.535-6.608-5.762l4.218-23.75c1.805 2.228 4.061 4.172 6.608 5.763a31.174 31.174 0 0 0 13.251 4.527" fill="#1A3877"></path><g transform="translate(490.384779, 484.235458)"><mask id="mask-20" fill="#fff"><use xlink:href="#path-19"></use></mask><path d="M24.197 10.513l-4.217 23.75a31.168 31.168 0 0 1-13.252-4.527C4.182 28.145 1.925 26.2.12 23.974L4.338.224C6.143 2.451 8.4 4.396 10.946 5.986c3.899 2.438 8.497 4.042 13.251 4.527" fill="#1A3877" mask="url(#mask-20)"></path></g><path d="M323.625 446.622l-4.556 10.573c-3.862 8.96-3.44 19.321 1.61 27.67 3.043 5.03 7.515 9.597 13.303 13.214.537.335 1.076.655 1.623.966.169.096.341.188.51.283a51.093 51.093 0 0 0 1.74.917c.413.207.832.407 1.249.602.153.07.302.143.452.21.566.257 1.138.502 1.71.735.11.045.225.086.335.13.468.186.937.365 1.408.535.192.07.384.135.576.202.41.142.82.279 1.229.41l.579.181c.481.147.966.285 1.45.416.11.03.218.063.329.092.595.157 1.19.3 1.785.434.162.036.322.067.484.102a49.31 49.31 0 0 0 3.22.577c.185.027.367.056.553.08a50.125 50.125 0 0 0 1.84.215 49.738 49.738 0 0 0 2.335.163c.247.012.498.028.745.037.169.005.338.004.51.009a45.27 45.27 0 0 0 1.9.006c.204-.003.41-.004.61-.01a48.833 48.833 0 0 0 1.549-.07c.087-.004.178-.007.266-.012a50.87 50.87 0 0 0 1.802-.154c.175-.018.348-.042.52-.061.426-.05.852-.102 1.278-.162.211-.031.423-.064.637-.098a46.5 46.5 0 0 0 3.015-.575c.179-.04.358-.078.537-.12.058-.013.113-.024.169-.038.263-.063.517-.138.777-.206.312-.081.621-.16.93-.247.306-.087.608-.184.914-.278.305-.094.611-.185.913-.285.3-.1.596-.21.891-.315.303-.108.605-.212.901-.326.293-.113.582-.235.872-.354.296-.12.588-.237.878-.363.29-.125.569-.26.855-.392.286-.133.572-.263.855-.402.277-.137.55-.284.826-.428.28-.146.56-.289.836-.441.27-.15.533-.31.8-.466.27-.158.543-.314.81-.478.263-.163.517-.336.777-.505.26-.17.523-.338.777-.515.046-.03.091-.058.137-.09.13-.09.253-.192.383-.285.394-.283.784-.571 1.168-.87.198-.154.39-.312.585-.47a36.764 36.764 0 0 0 1.594-1.38c.348-.32.686-.65 1.02-.985.157-.156.313-.308.466-.467.478-.497.946-1.006 1.391-1.533a31.48 31.48 0 0 0 1.428-1.825c.338-.459.66-.921.966-1.39l.068-.103c.322-.5.625-1.006.914-1.516l.215-.393c.253-.459.49-.92.715-1.386l.091-.188a27.338 27.338 0 0 0 .839-1.972c.065-.17.137-.34.198-.512.11-.31.215-.62.316-.93.016-.06.039-.117.058-.176.17-.535.319-1.073.456-1.613.032-.127.061-.254.094-.381 0-.006.003-.011.003-.017a11.72 11.72 0 0 0 .3-3.104l-.596-18.626c-.097.551-75.96 1.358-73.723-11.246" fill="#EA932A"></path><path d="M380.851 432.84c17.213 10.755 21.678 30.675 9.964 44.499-11.71 13.823-35.156 16.31-52.368 5.556-17.204-10.751-21.663-30.676-9.951-44.5 11.71-13.823 35.153-16.305 52.355-5.555" fill="#FFC255"></path><path d="M319.069 457.195c2.72 6.335-1.653 13.044 2.573 18.492 1.413 1.823 3.528 3.032 4.809 4.949 1.804 2.697 1.847 6.605 4.487 8.489 2.595 1.851 6.328.72 9.242 2.013 2.41 1.071 3.9 3.646 6.312 4.716 3.242 1.438 6.946-.248 10.49-.395 5.408-.224 10.592 3.194 15.948 2.431 5.938-.845 9.977-6.443 15.443-8.913 2.026-.916 4.426-1.533 5.59-3.43 1.519-2.479.12-5.83 1.174-8.54.998-2.57 2.601-2.948 2.813-5.697.11-1.439-.312-2.79-.602-4.202-.29-1.413-.504-2.606.114-5.633 2.673 7.73 11.08 47.065-39.595 48.208-13.378.302-22.32-5.332-28.652-10.132-17.653-13.378-12.802-37.635-10.146-42.356" fill="#F2F2F2"></path><path d="M491.464 285.376c2.719 6.335-1.655 13.043 2.573 18.493 1.411 1.822 3.528 3.031 4.81 4.947 1.8 2.697 1.843 6.605 4.484 8.49 2.595 1.85 6.328.719 9.241 2.012 2.413 1.072 3.9 3.646 6.312 4.716 3.246 1.439 6.95-.248 10.494-.395 5.405-.224 10.588 3.194 15.947 2.432 5.938-.845 9.974-6.444 15.44-8.914 2.03-.916 4.426-1.533 5.59-3.43 1.522-2.478.12-5.828 1.174-8.54.999-2.57 2.605-2.947 2.813-5.698.11-1.437-.309-2.787-.598-4.201-.293-1.412 2.657-2.982 3.275-6.01 2.67 7.733 6.549 49.754-42.756 48.586-13.382-.317-22.325-5.333-28.656-10.133-17.651-13.378-12.8-37.633-10.143-42.355" fill="#1A3877"></path><path d="M497.997 267.1l-4.555 10.576c-3.864 8.958-3.44 19.319 1.61 27.67 3.043 5.028 7.511 9.595 13.303 13.213.533.335 1.076.654 1.622.965.17.097.342.189.511.283a49.647 49.647 0 0 0 1.74.917c.413.208.829.407 1.248.602.15.07.3.143.452.211.566.256 1.135.501 1.71.734.112.045.222.086.333.13.468.186.94.365 1.411.536.192.069.384.135.576.202a47.8 47.8 0 0 0 1.229.409c.192.061.383.123.579.182.48.146.962.284 1.447.415.11.03.22.063.331.093.592.156 1.187.3 1.786.433.159.036.322.068.484.103a49.317 49.317 0 0 0 3.22.576c.182.027.367.056.55.08.6.081 1.206.154 1.807.212l.033.003c.592.057 1.183.1 1.775.136.186.011.374.019.563.028.247.012.494.028.744.036.17.006.339.005.508.01a46.942 46.942 0 0 0 1.902.006c.202-.004.407-.005.611-.01a49.27 49.27 0 0 0 1.548-.07c.088-.005.18-.007.267-.013a48.85 48.85 0 0 0 1.802-.154c.172-.018.348-.041.52-.061a40.958 40.958 0 0 0 1.912-.259 45.735 45.735 0 0 0 3.018-.575c.179-.04.357-.078.536-.12.056-.014.114-.025.17-.038.26-.064.516-.139.777-.206.309-.082.62-.16.93-.247.305-.088.608-.185.913-.278.306-.094.612-.185.914-.286.3-.1.595-.209.891-.315.3-.107.602-.212.901-.326.293-.112.582-.235.872-.353.292-.12.588-.237.878-.363.286-.126.569-.261.852-.393.286-.133.575-.262.855-.401.28-.138.553-.285.829-.428.276-.146.56-.29.832-.442.274-.15.537-.31.804-.465.27-.159.543-.314.806-.479.264-.163.52-.335.78-.505.26-.17.524-.338.778-.514.045-.031.09-.059.136-.09.13-.09.254-.192.384-.285.394-.283.784-.572 1.168-.87.195-.154.39-.313.585-.471a36.764 36.764 0 0 0 1.593-1.379c.348-.32.686-.65 1.018-.985.156-.156.316-.308.468-.467a34.05 34.05 0 0 0 1.392-1.534 34.073 34.073 0 0 0 1.428-1.824c.335-.46.66-.922.966-1.39l.068-.103a28.572 28.572 0 0 0 1.128-1.91c.25-.46.491-.92.712-1.386.033-.062.066-.123.095-.188.247-.52.468-1.044.683-1.571.052-.133.104-.267.153-.4.068-.172.136-.342.201-.514.11-.309.212-.618.312-.93.02-.059.043-.117.062-.176a27.048 27.048 0 0 0 .546-1.993c.004-.006.004-.01.007-.016.24-1.015.332-2.062.296-3.106l-.592-18.623c-.098.55-75.96 1.356-73.724-11.249" fill="#EA932A"></path><path d="M555.224 253.319c17.212 10.757 21.674 30.675 9.964 44.499-11.71 13.823-35.156 16.31-52.368 5.557-17.206-10.75-21.665-30.675-9.954-44.499 11.713-13.823 35.152-16.308 52.358-5.557" fill="#FFC255"></path><path d="M540.483 265.79l3.883-.703.933-3.255v-.055l-2.917-2.471-3.908.777-.908 3.232 2.917 2.475zm6.208-4.28l-1.22 4.455-5.277 1.022-4.023-3.412 1.265-4.429 5.275-1.014 3.98 3.378z" fill="#343434"></path><path fill="#BFD16C" d="M542.382 259.302l2.917 2.475-.013.042-.92 3.268-3.883.703-2.917-2.475.908-3.232z"></path><path d="M550.584 268.408l3.85-.722.006-.026.953-3.259-2.956-2.507-3.895.777-.914 3.23 2.956 2.507zm6.204-4.277l-1.284 4.462-5.275 1.018-4.022-3.411 1.255-4.426 5.317-1.044 4.01 3.401z" fill="#343434"></path><path fill="#ECBA14" d="M552.437 261.894l2.956 2.507-.953 3.259-.006.026-3.85.722-2.956-2.508.897-3.222z"></path><path fill="#8FBE3A" d="M535.342 265.169l2.917 2.471-.013.046-.923 3.265-3.883.709-2.914-2.478.904-3.23z"></path><path d="M543.543 274.27l3.85-.721.96-3.285-2.956-2.504-2.79.563-1.106.215-.91 3.232 2.952 2.5zm6.205-4.272l-1.298 4.455-5.268 1.018-4.022-3.412 1.262-4.422 5.316-1.04 4.01 3.4z" fill="#343434"></path><path fill="#DB2227" d="M545.397 267.76l2.956 2.504-.963 3.288-3.847.719-2.952-2.501.9-3.223 1.116-.224z"></path><path d="M533.44 271.66l3.886-.71.933-3.255v-.055l-2.917-2.471-3.912.783-.904 3.23 2.914 2.478zm6.217-4.283l-1.261 4.484-5.268 1.021-4.023-3.411 1.258-4.423 5.308-1.053 3.986 3.382zm13.909 9.512l3.889-.696.927-3.314-2.917-2.475-.052.01-3.89.741-.907 3.233.033.03 2.917 2.47zm6.214-4.273l-1.226 4.448-5.274 1.024-4.02-3.407 1.265-4.43 5.268-1.02 3.987 3.385z" fill="#343434"></path><path fill="#E46E21" d="M555.465 270.404l2.917 2.475-.93 3.314-3.886.696-2.917-2.472.907-3.232 3.857-.771z"></path><path fill="#5D82BB" d="M538.363 273.63l2.95 2.501-.93 3.258-.026.007-3.857.741-2.95-2.501.93-3.238z"></path><path fill="#795CA0" d="M548.424 276.271l2.924 2.474-.937 3.311-3.879.702-2.924-2.478.914-3.229 3.85-.771z"></path><path d="M536.5 280.137l3.853-.735.03-.013.93-3.258-2.95-2.5-3.876.75-.937 3.255 2.95 2.501zm6.23-4.29l-1.284 4.44-5.275 1.024-4.019-3.411 1.265-4.43 5.304-1.027 4.01 3.405zm3.802 6.911l3.88-.702.936-3.31-2.924-2.475-.052.01-3.889.738-.91 3.235.035.026 2.924 2.478zm6.208-4.28l-1.262 4.485-5.271 1.018-4.02-3.411 1.259-4.423 5.307-1.05 3.987 3.382z" fill="#343434"></path><path d="M511.779 272.206c.312.224.624.413.894.644.358.302.64.618.885.933.253.312.406.624.536.946l-.92.771a12.8 12.8 0 0 0-.618-.943c-.23-.3-.452-.56-.738-.803a4.06 4.06 0 0 0-.481-.351 5.459 5.459 0 0 0-.508-.28c-.377-.182-.767-.264-1.226-.293a4.11 4.11 0 0 0-1.372.208c-.465.176-.953.465-1.46.895a3.683 3.683 0 0 0-.855.972 2.515 2.515 0 0 0-.325 1.067c-.03.367.068.731.227 1.08.182.36.478.718.882 1.06.25.21.5.402.803.591.052.033.107.065.166.098.357.195.725.36 1.115.526l-.924.771c-.133-.036-.305-.081-.478-.15-.178-.074-.377-.182-.598-.295-.081-.043-.163-.085-.24-.137-.12-.071-.241-.16-.375-.257-.195-.13-.419-.276-.598-.43a5.307 5.307 0 0 1-1.17-1.349 4.021 4.021 0 0 1-.501-1.489 3.095 3.095 0 0 1 .341-1.551c.267-.524.654-1.034 1.265-1.542a5.411 5.411 0 0 1 1.363-.865 4.544 4.544 0 0 1 1.343-.439 5.183 5.183 0 0 1 1.294-.071c.41.039.81.117 1.197.234.383.117.748.283 1.076.449m-2.322 9.625l6.78-5.648 1.171.995-6.777 5.645zm17.359 3.334l1.174.995-4.14 3.45c-.384.319-.647.618-.784.927-.182.338-.201.68-.104 1.044.095.367.37.735.774 1.08.15.126.3.24.452.334.293.182.586.3.898.345.445.062.884.049 1.307-.133.315-.12.66-.326.995-.605l4.143-3.457 1.177.998-4.162 3.47a5.387 5.387 0 0 1-.68.481c-.205.143-.449.27-.676.345-.313.12-.67.176-1.025.218a5.052 5.052 0 0 1-1.076-.059c-.377-.068-.738-.208-1.138-.396a5.826 5.826 0 0 1-1.148-.76 5.997 5.997 0 0 1-.891-.941 4.083 4.083 0 0 1-.468-.917c-.075-.319-.124-.605-.065-.91.026-.293.113-.58.253-.846.107-.195.244-.39.41-.612.202-.191.374-.383.63-.595l4.144-3.456zm-3.454-8.904l1.171.995-10.325 8.605-1.174-.996zm-4.331-2.442l1.177.998-1.242 1.034-1.178-.998zm7.154 6.071l1.18.995-1.245 1.041-1.177-.999zm-9.57 8.009l6.776-5.642 1.171.995-6.777 5.643zm18.245 4.085l.905.777-.716.976c.306-.004.58-.01.885.003.283.03.579.068.865.13.286.062.592.192.852.338.094.046.189.098.28.153.182.114.357.25.533.403.533.449.852.927.979 1.425.107.507.049.998-.163 1.521a6.619 6.619 0 0 1 2.098.12 4.367 4.367 0 0 1 1.769.904c.247.209.468.472.696.768.23.3.344.608.422.96.072.347 0 .705-.169 1.095-.15.394-.465.8-.972 1.23l-4.546 3.785-1.125-.96 4.364-3.635c.296-.25.504-.491.644-.729.15-.234.22-.452.22-.666a1.425 1.425 0 0 0-.178-.647 2.284 2.284 0 0 0-.524-.576 3.87 3.87 0 0 0-.377-.276 3.352 3.352 0 0 0-1.07-.426 5.887 5.887 0 0 0-1.805-.052l-4.786 4-1.171-.996 4.357-3.632c.293-.244.491-.491.641-.722.146-.24.224-.458.211-.673a1.322 1.322 0 0 0-.175-.644c-.117-.205-.293-.384-.514-.575a3.285 3.285 0 0 0-1.454-.709 5.649 5.649 0 0 0-1.791-.036l-4.816 4.013-1.168-.986 6.8-5.661z" fill="#1C2020"></path><path d="M493.442 277.676c2.718 6.334-1.652 13.043 2.572 18.49 1.411 1.824 3.528 3.034 4.81 4.95 1.8 2.695 1.843 6.604 4.484 8.488 2.595 1.852 6.331.72 9.242 2.013 2.412 1.072 3.899 3.646 6.311 4.716 3.246 1.439 6.95-.248 10.494-.395 5.408-.224 10.588 3.194 15.948 2.432 5.938-.845 9.976-6.444 15.44-8.913 2.029-.918 4.429-1.532 5.59-3.432 1.521-2.477.123-5.827 1.173-8.539.999-2.569 2.605-2.946 2.813-5.697.11-1.438-.309-2.79-.598-4.202-.293-1.414-.504-2.605.114-5.632 2.67 7.73 11.076 47.065-39.595 48.208-13.382.302-22.324-5.333-28.656-10.132-17.651-13.378-12.8-37.637-10.142-42.355" fill="#F2F2F2"></path><path d="M649.093 358.867c2.722 6.335-2.523 13.044 1.7 18.492 1.412 1.822 3.53 3.032 4.81 4.949 1.802 2.696 1.844 6.605 4.488 8.488 2.592 1.852 6.328.72 9.239 2.014 2.413 1.07 3.899 3.645 6.312 4.715 3.245 1.439 6.949-.248 10.493-.395 5.408-.224 10.592 3.194 15.948 2.432 5.938-.845 9.977-6.444 15.44-8.913 2.029-.917 4.429-1.534 5.59-3.43 1.522-2.48.123-5.83 1.174-8.54 1.001-2.57 2.604-2.948 2.812-5.698.111-1.438-.308-2.789-.598-4.202-.29-1.413 2.657-2.98 3.275-6.008 2.67 7.73 6.55 49.753-42.756 48.584-13.382-.317-22.324-5.333-28.656-10.132-17.65-13.379-11.924-37.635-9.27-42.356" fill="#1A3877"></path><path d="M655.304 343.627l-4.556 10.573c-3.863 8.96-3.44 19.321 1.61 27.67 3.044 5.03 7.512 9.597 13.304 13.214.533.335 1.076.655 1.622.966.17.096.342.188.51.282a49.66 49.66 0 0 0 1.74.918c.414.207.83.407 1.25.601.149.07.298.143.451.211.566.257 1.135.502 1.71.735.111.045.222.085.336.13.465.185.936.364 1.408.535.192.069.384.135.575.202.407.142.82.278 1.23.409.191.061.383.123.578.182.482.146.963.284 1.448.415.11.03.22.064.331.093.592.156 1.187.3 1.786.433.159.037.321.068.484.103a46.907 46.907 0 0 0 3.22.577c.182.027.367.055.549.08.602.08 1.206.153 1.808.212l.033.002c.591.057 1.183.1 1.775.136.185.011.374.019.563.028.247.012.494.028.744.037.17.005.339.004.508.008.224.005.448.01.673.012.41.004.82.001 1.229-.006.202-.003.406-.004.611-.01a44.512 44.512 0 0 0 1.548-.069c.088-.005.18-.007.267-.013.601-.04 1.203-.092 1.801-.153.176-.019.348-.042.52-.062a43.93 43.93 0 0 0 1.275-.162c.215-.03.426-.064.638-.097.39-.06.777-.126 1.164-.196l.64-.12c.404-.08.81-.168 1.214-.259.178-.04.357-.078.536-.12.055-.014.114-.025.17-.038.26-.063.516-.138.776-.206.31-.081.622-.16.93-.247.306-.087.609-.184.914-.278.306-.094.612-.185.914-.286.3-.1.595-.209.891-.315.3-.107.602-.212.9-.326.294-.112.583-.234.872-.353.293-.12.589-.237.878-.363.287-.126.57-.26.852-.393.287-.132.576-.262.856-.401.28-.138.552-.285.829-.428.276-.146.56-.29.832-.442.273-.15.537-.309.804-.465.27-.159.543-.314.806-.479.263-.163.52-.335.78-.505.26-.17.52-.337.778-.514l.136-.09c.13-.09.254-.192.384-.285a39.07 39.07 0 0 0 1.167-.87c.196-.154.39-.313.582-.47.352-.285.693-.576 1.031-.873.189-.168.378-.336.566-.507.348-.32.686-.65 1.018-.985.156-.156.315-.308.468-.467.478-.497.943-1.006 1.392-1.533a34.28 34.28 0 0 0 1.428-1.825c.335-.459.66-.922.965-1.39l.069-.103a29.097 29.097 0 0 0 1.128-1.91c.25-.458.491-.92.712-1.385.033-.063.065-.126.095-.189a27.19 27.19 0 0 0 .835-1.971c.069-.171.137-.34.202-.513.11-.308.211-.619.312-.93l.062-.175c.17-.535.319-1.073.455-1.613.033-.128.062-.254.095-.382l.003-.016a11.72 11.72 0 0 0 .296-3.104l-.592-18.626c-.098.55-75.961 1.357-73.724-11.246" fill="#EA932A"></path><path d="M712.531 329.845c17.212 10.755 21.674 30.675 9.964 44.498-11.71 13.824-35.156 16.311-52.369 5.557-17.205-10.751-21.664-30.676-9.954-44.5 11.714-13.823 35.153-16.306 52.359-5.555" fill="#FFC255"></path><path d="M650.768 354.214a1.54 1.54 0 0 1 .075-.105c1.17 2.194 1.346 5.025.66 7.451-.625 2.195-1.522 4.5-.859 6.684.81 2.675 3.707 4.25 4.716 6.855.855 2.197.26 4.883 1.6 6.825 1.733 2.518 5.463 2.252 8.302 3.383 2.39.953 4.175 2.947 6.038 4.718 2.482 2.353 5.607 4.21 9.125 3.31 3.925-1.006 7.567-1.397 11.434.215 2.367.986 4.533 2.569 7.063 2.965 3.03.475 6.061-.841 8.65-2.49 2.585-1.648 4.966-3.67 7.785-4.877 2.107-.903 4.432-1.336 6.374-2.554 2.087-1.309 3.56-3.434 4.507-5.709 1.187-2.858 1.746-6.008 2.162-9.03.166-1.204 1.122-2.177 1.226-3.54.11-1.44-.309-2.79-.598-4.203-.29-1.412-.504-2.605.114-5.633 2.67 7.73 11.076 47.066-39.595 48.209-13.382.302-22.325-5.332-28.656-10.132-6.435-4.877-10.546-12.01-12.074-19.891-.891-4.608-.973-9.381-.351-14.029.348-2.59.731-6.2 2.302-8.422" fill="#F2F2F2"></path><path d="M716.258 364.086l-1.59 1.878c.029.03.042.05.058.06.475.295.946.594 1.421.891.397.247.794.493 1.194.735.37.223.783.375 1.248.367.891-.011 1.727-1.065.989-1.87a3.356 3.356 0 0 0-.602-.525 88.49 88.49 0 0 0-1.726-1.089l-.765-.48c-.039-.027-.09-.04-.143-.065-.032.04-.058.067-.084.098m-.03 7.758c1.113-.548 1.197-1.706.137-2.425-.478-.325-.97-.637-1.463-.946-.199-.125-.4-.249-.602-.374-.29-.18-.579-.361-.865-.544l-.071-.028-1.932 2.28.045.04c.596.373 1.19.747 1.789 1.12l.897.56c.17.104.348.203.534.28.514.212 1.034.284 1.531.037m3.155-.011c-.27 1.456-2.052 2.5-3.828 2.252a6.356 6.356 0 0 1-2.458-.904c-.78-.48-1.561-.964-2.335-1.45-.933-.581-1.863-1.165-2.793-1.748a1.611 1.611 0 0 1-.104-.072c2.5-2.954 5.001-5.903 7.511-8.87.052.029.088.048.127.071.17.108.338.215.51.321l1.025.638c.407.253.81.506 1.216.76.81.506 1.62 1.015 2.42 1.533.871.565 1.531 1.282 1.746 2.205.244 1.075-.1 1.976-1.08 2.639-.562.381-1.278.415-1.993.399-.15-.002-.293-.01-.472-.015.04.084.069.152.105.221.318.657.533 1.324.403 2.02m-40.837-35.973l1.941 3.471-4.429-.535-7.587 8.955-1.899-3.513 5.031-5.938-4.498-.521 2.534-2.993zm3.889 6.951l-5.028 5.936-4.471-.502 5.06-5.975z" fill="#FFF"></path><path d="M677.407 348.747l5.028-5.936-4.439-.541-5.06 5.974 4.471.503zm-8.936-.996l7.587-8.955 4.429.535-1.941-3.471-8.907-1.075-2.534 2.994 4.495.52-5.028 5.94 1.9 3.512zm12.582-14.85l5.82 10.434-7.53 8.887-13.353-1.544-5.818-10.435 7.529-8.887 13.352 1.546z" fill="#E30C34"></path><path d="M698.733 350.643c-.429.503-.845.998-1.278 1.508l-3.216-2.01c-2.084 2.46-4.152 4.903-6.237 7.36l-2.276-1.423c2.071-2.449 4.143-4.891 6.224-7.348l-3.35-2.092c.44-.516.859-1.013 1.288-1.52l8.845 5.525m3.129 1.962l-1.282 1.51c-.699-.438-1.388-.87-2.104-1.317.43-.507.85-1.002 1.278-1.51l2.108 1.317m-1.945 2.298a19579.48 19579.48 0 0 1-5.564 6.567c-.702-.439-1.395-.872-2.1-1.315l5.56-6.566 2.104 1.314m5.671 9.391c1.38-.8 2.312-1.915 2.82-3.263.422-1.123 0-2.013-1.18-2.757a73 73 0 0 0-.6-.375l-1.2-.749c-.064-.042-.132-.084-.207-.131l-4.943 5.832c.436.271.858.538 1.278.802.283.175.562.349.845.52 1.067.653 2.17.713 3.187.121m5.483-2.81c-.621 2.21-2.059 3.902-4.449 4.943-1.587.693-3.216.592-4.764-.315a141.386 141.386 0 0 1-3.512-2.149l-1.567-.974c-.016-.01-.03-.027-.065-.055 2.504-2.955 5.001-5.9 7.502-8.854.039.017.071.026.104.044.16.101.319.202.481.302.322.202.644.403.97.604l.959.6c.787.49 1.57.984 2.344 1.483.865.56 1.574 1.24 1.916 2.128.286.753.286 1.51.08 2.243" fill="#FFF"></path><path d="M197.723 136.069s-38.975 41.191-49.717 70.813c-12.339 34.028-16.594 114.95-16.026 156.931.567 41.982 9.644 167.943 29.5 263.527 0-.291 109.492-35.465 110.06-38.87.567-3.403-54.18-178.459-53.612-201.68.568-23.222.568-23.222 11.063-49.073l-31.268-201.648z" fill="#FDBDB4"></path><path d="M541.101 256.893l-35.725-132.957c-1.024-3.824-3.054-7.444-5.847-10.432a26.737 26.737 0 0 0-7.876-5.795L361.981 45.247c-6.683-3.22-14.709-3.454-21.206-.615l-125.94 55.08c-5.794 2.527-10.274 7.421-12.154 13.262-.237.709-.431 1.44-.587 2.172L174.69 246.282c-1.41 6.757.607 14.285 5.347 19.872L271.83 374.6a25.917 25.917 0 0 0 5.298 4.728c4.156 2.803 9.12 4.477 14.072 4.628l141.847 4.101c7.314.218 14.449-2.897 18.839-8.232l85.121-103.322c4.387-5.33 5.935-12.754 4.094-19.61" fill="#326CE5"></path><path d="M539.157 273.305c-.075.14-.156.28-.238.42a20.12 20.12 0 0 1-.962 1.518l-.059.094c-.283.397-.579.787-.89 1.165l-85.12 103.321c-4.392 5.335-11.524 8.45-18.84 8.232l-141.847-4.1c-4.954-.151-9.917-1.825-14.072-4.628a25.904 25.904 0 0 1-5.299-4.729l-91.793-108.444c-4.74-5.587-6.758-13.115-5.347-19.875l27.404-131.133c.157-.732.35-1.463.587-2.175.216-.67.465-1.327.747-1.968l-6.769 15.42a20.535 20.535 0 0 0-.748 1.968c-.236.712-.43 1.444-.586 2.176l-27.404 131.135c-1.411 6.758.607 14.286 5.347 19.873l91.793 108.444a25.887 25.887 0 0 0 5.298 4.729c4.156 2.803 9.119 4.477 14.072 4.627l141.846 4.101c7.317.218 14.448-2.897 18.841-8.232l85.119-103.322c.312-.377.608-.767.89-1.164l.014-.02c.016-.022.029-.048.045-.071.345-.491.664-1.002.963-1.522.081-.14.162-.28.24-.42.303-.552.592-1.115.846-1.69l6.767-15.421c-.254.576-.54 1.138-.845 1.691" fill="#1A3877"></path><path d="M437.854 230.835l-.026.244-39.39-11.837a7.666 7.666 0 0 1-2.062-.978c-2.319-1.561-3.58-4.313-3.005-7.028a6.102 6.102 0 0 1 2.02-3.408l.084-.114 29.55-25.03.146.218c9.502 14.38 14.003 31.407 12.683 47.933m-3.795 17.866c-2.755 7.795-6.855 15.024-12.185 21.485a73.138 73.138 0 0 1-18.705 16.13l-.218.13-16.623-36.382.104-.12c-1.486-3.295-.082-6.98 3.219-8.436 1.291-.563 2.722-.725 4.325-.498l40.167 7.454-.084.237m-48.03 45.224c-16.514 5.04-34.838 4.602-51.598-1.252l-.257-.088.127-.214 18.874-33.482c1.72-3.04 5.677-4.156 9.07-2.533.35.166.682.358.994.57.465.311.885.67 1.262 1.072.319.339.605.729 1.047 1.291l20.724 34.568-.244.068m-54.407-45.019l-14.567 35.416-.226-.143a87.74 87.74 0 0 1-6.72-4.705c-11.855-9.141-20.946-21.027-26.29-34.386l-.094-.237 39.976-5.447c1.81-.237 3.67.228 5.183 1.246a7.49 7.49 0 0 1 1.337 1.15 6.959 6.959 0 0 1 1.57 2.888c.364 1.37.283 2.745-.169 4.218m-52.575-21.905c-2.283-16.883 1.201-33.273 10.072-47.402l.133-.215 30.981 26.675c.325.283.618.582.874.894 2.046 2.482 2.105 5.87.153 8.234a6.488 6.488 0 0 1-3.429 2.146l-.152.202-38.601 9.71-.031-.244m21.696-61.538a73.3 73.3 0 0 1 15.232-11.044c9.247-5.057 19.657-8.25 30.498-9.255l.26-.022-1.248 38.847-.075.039-.071.035c-.124 3.512-3.096 6.172-6.803 6.081a8.027 8.027 0 0 1-.878-.087c-.062-.01-.127-.007-.189-.017-1.067-.182-2.124-.595-3.223-1.239l-33.678-23.173.175-.165m50.833 43.048l12.52.355.064.078 8.033 9.492-.023.094-2.43 11.473-11.144 4.868-11.427-5.476-3.121-11.74 7.528-9.144m14.204-62.872c12.887 1.802 25.27 6.588 36.128 13.915a87.124 87.124 0 0 1 4.452 3.21 89.571 89.571 0 0 1 6.374 5.437l.189.179-.212.143-32.444 21.495-.169-.078c-2.406 1.583-5.603 1.447-8-.166a7.37 7.37 0 0 1-1.515-1.373c-.94-1.105-1.5-2.406-1.698-3.928l-3.362-38.87.257.036m128.41 108.184a6.1 6.1 0 0 0 .085-2.039c-.146-1.18-.624-2.348-1.421-3.408a8.52 8.52 0 0 0-1.272-1.346 8.842 8.842 0 0 0-.855-.664 9.55 9.55 0 0 0-.91-.536c-.108-.056-.218-.108-.325-.16-.664-.309-1.444-.575-2.443-.826-.8-.198-1.3-.325-1.674-.4a23.464 23.464 0 0 0-1.288-.227c-1.255-.189-2.413-.267-3.62-.351a53.507 53.507 0 0 1-2.191-.176c-.088-.006-.17-.01-.26-.02a5.99 5.99 0 0 1-.254-.032l-.117-.01c-4.83-.605-9.04-1.141-12.78-2.247-.25-.071-.504-.14-.748-.221a3.79 3.79 0 0 1-.452-.208 5.102 5.102 0 0 1-.426-.257c-.068-.045-.124-.104-.189-.153-.969-.715-1.717-1.723-2.21-2.403l-3.773-1.31c2.709-23.177-3.49-46.659-17.417-66.3.036-.045.081-.091.12-.14-.03-.042-.058-.088-.088-.13.706-.611 1.98-1.675 2.475-2.504 0-.052.003-.1.007-.15.042-1.053.15-2.214 1.193-3.385.052-.058.098-.117.153-.175 2.887-2.582 6.601-4.709 10.903-7.17l.111-.062c.091-.052.176-.098.263-.15.504-.273.995-.524 1.483-.764.199-.101.39-.199.58-.29.028-.016.064-.032.093-.045.348-.173.69-.338 1.028-.507.68-.345 1.353-.7 2.036-1.113.341-.204.689-.429 1.04-.67a24.308 24.308 0 0 0 1.073-.819c4.098-3.083 4.8-7.775 2.15-10.907a7.218 7.218 0 0 0-2.592-1.931 8.046 8.046 0 0 0-1.554-.491 7.974 7.974 0 0 0-.322-.062c-2.306-.377-4.937.244-7.385 2.087-.351.257-.716.52-.992.739-.003 0-.003 0-.007.003a21.01 21.01 0 0 0-1.759 1.61c-.533.54-1.024 1.086-1.532 1.645-.21.234-.429.475-.653.722-.078.081-.153.163-.231.247-.156.166-.319.338-.491.514l-.237.25a346.28 346.28 0 0 1-2.687 2.582c-.37.352-.738.696-1.105 1.034-.052.046-.104.098-.156.143-1.473 1.357-2.907 2.58-4.364 3.652-.612.452-1.226.882-1.854 1.275-.556.26-1.17.41-1.792.488a9.887 9.887 0 0 1-1.827.049 14.406 14.406 0 0 1-1.093-.11l-.006.002-2.683 1.789a107.957 107.957 0 0 0-10.696-9.466 109.423 109.423 0 0 0-5.521-3.987 106.697 106.697 0 0 0-48.668-17.697 2.265 2.265 0 0 1-.042-.176l-.156-.02c-.105-.949-.238-2.571-.628-3.472-.865-.768-1.84-1.636-2.202-3.284-.013-.069-.035-.13-.048-.202-.11-.985-.166-1.99-.182-3.021v-.023c-.043-3.086.286-6.4.656-10.09.004-.013.004-.023.004-.033l.016-.153.039-.29c.036-.27.071-.526.107-.767.02-.123.036-.24.056-.36.048-.316.1-.622.15-.914.123-.745.243-1.47.337-2.218a22.14 22.14 0 0 0 .17-2.368c.003-.426-.02-1.011-.046-1.528-.065-2.393-.722-4.205-1.873-5.655a8.172 8.172 0 0 0-1.847-1.72 7.495 7.495 0 0 0-3.987-1.297 6.808 6.808 0 0 0-5.21 2.184c-.087.095-.169.199-.25.3-1.206 1.43-1.844 3.326-1.772 6.003.003.468.01.956.032 1.333.117 1.69.433 3.102.761 4.601.163.755.342 1.542.485 2.368.68 4.406 1.274 8.286 1.258 11.853 0 .507-.016 1.011-.045 1.509a3.289 3.289 0 0 1-.117.559c-.342 1.145-1.223 2.127-1.88 2.806l-.224.235-.283 3.427c-11.84.69-23.166 3.356-33.553 7.769-.408.172-.823.328-1.229.507l-.044.023c-10.68 4.731-20.363 11.362-28.548 19.687l-3.327-1.977c-.349-.004-.693-.007-1.028-.017l-.207-.01c-1.202-.045-2.28-.178-3.047-.601-.078-.052-.152-.11-.229-.163-.015-.006-.033-.013-.048-.022-2.918-1.968-5.695-4.52-8.812-7.515l-.13-.127c-.471-.452-.95-.917-1.44-1.389-.071-.075-.135-.143-.205-.214a46.18 46.18 0 0 1-.638-.667l-.143-.156a66.2 66.2 0 0 1-.745-.813 76.111 76.111 0 0 0-1.214-1.3 26.014 26.014 0 0 0-2.243-2.111.079.079 0 0 1-.02-.017c-.125-.1-.272-.214-.42-.331-.202-.156-.47-.355-.854-.64-4.282-2.898-8.558-2.85-11.028-.583a6.211 6.211 0 0 0-.562.582c-2.446 2.966-1.53 7.662 2.785 11.056.334.264.691.54 1.336 1.002a36.713 36.713 0 0 0 3.648 2.17l.358.19a72.015 72.015 0 0 1 .691.367c.295.157.59.32.89.486.066.039.128.071.196.11.14.079.277.15.419.235.699.422 1.366.822 2.01 1.216 1.03.627 2.018 1.236 2.972 1.844.69.435 1.361.871 2.002 1.3a52.348 52.348 0 0 1 2.472 1.766 34.605 34.605 0 0 1 2.23 1.834c1.124 1.145 1.45 2.937 1.654 4.003l2.736 2.595-.099.15h.001a87.722 87.722 0 0 0-13.056 30.259c-2.358 10.66-2.758 21.84-1.086 33.091.101.676.209 1.353.326 2.03.01.06.018.123.029.184l-3.56.885c-.41.68-.96 1.509-1.626 2.153a4.506 4.506 0 0 1-.855.66 3.316 3.316 0 0 1-.468.224c-.485.134-.98.257-1.488.371-1.015.23-2.08.423-3.196.589-.558.084-1.13.162-1.716.234-2.342.286-4.903.494-7.718.702-.861.049-1.687.062-2.485.075-1.202.02-2.35.032-3.583.156-.411.039-.833.091-1.268.16a28.67 28.67 0 0 0-1.454.289c-4.811.982-7.518 4.4-7.006 7.957a6.562 6.562 0 0 0 1.26 2.998 7.748 7.748 0 0 0 1.875 1.769c1.887 1.275 4.39 1.838 7.648 1.223.223-.036.449-.078.666-.117.046-.01.088-.016.13-.026.213-.039.417-.081.593-.117.422-.1.824-.208 1.211-.322 1.162-.345 2.197-.748 3.28-1.17.732-.29 1.496-.586 2.307-.866.782-.208 1.55-.432 2.309-.666.758-.234 1.504-.475 2.239-.71 1.319-.422 2.61-.835 3.872-1.183a30.84 30.84 0 0 1 2.486-.575c.815-.15 1.618-.25 2.408-.283a12.87 12.87 0 0 1 1.175.003h.001c.22.01.438.045.658.1.09.023.176.053.264.082.082.026.163.052.247.088.556.208 1.086.51 1.587.845l4.29-.036c5.705 15.997 15.398 30.237 28.274 41.67a106.724 106.724 0 0 0 11.183 8.68c.008.003.016.01.024.016a109.332 109.332 0 0 0 6.013 3.769c-.007.058-.02.113-.03.172l.129.085c-.173.435-.434 1.06-.665 1.629l-.012.029a.051.051 0 0 0-.006.013c-.21.5-.396.96-.319 1.606.044.101.086.205.128.303.39.894.75 1.902.496 3.21a4.907 4.907 0 0 1-.117.5c-1.387 3.636-3.721 7.193-6.42 11.315l-.022.03-.093.143c-.073.107-.146.205-.22.31a60.537 60.537 0 0 1-.61.847c-.19.259-.375.506-.556.745-.91 1.207-1.762 2.348-2.557 3.83-.16.299-.354.702-.662 1.363-1.054 2.205-1.251 4.154-.78 5.961.041.16.08.32.131.477a7.47 7.47 0 0 0 1.51 2.59c.407.46.853.884 1.367 1.231.297.2.61.38.937.537.363.173.736.303 1.111.412 3.47.998 7.372-.723 9.326-4.63.333-.673.54-1.104.68-1.428.67-1.54 1.029-2.911 1.406-4.372.095-.363.19-.734.293-1.112.102-.377.21-.762.328-1.151.992-2.965 1.896-5.675 2.93-8.121.62-1.468 1.287-2.84 2.047-4.116.957-1.377 2.088-1.747 3.199-2.039.078-.02.158-.043.237-.064.546-.451.902-1.054 1.413-1.888.214-.34.413-.67.554-.921.042.016.085.03.127.045.047-.043.088-.087.141-.13a106.745 106.745 0 0 0 35.652 7.106c12.06.272 24.044-1.524 35.406-5.415.04.046.078.096.114.143.052-.016.104-.03.156-.047.491.797 1.317 2.19 2.104 2.903.65.2 1.35.427 2.036.85.055.035.117.064.172.102a5.1 5.1 0 0 1 .69.558c.227.217.445.468.66.76.27.431.533.873.786 1.325 1.783 3.161 3.184 6.824 4.771 10.987 0 .006.003.01.003.016.026.062.046.12.072.182.049.135.088.263.133.396.068.196.13.382.189.562l.169.521.263.841c.228.74.449 1.459.706 2.188.26.73.556 1.47.933 2.256.078.16.173.339.273.526.004.002.004.005.004.007.104.187.211.383.322.577.754 1.396 1.443 2.354 2.146 3.075l.049.049a9.138 9.138 0 0 0 1.258 1.041 8.86 8.86 0 0 0 2.712 1.234c1.577.41 3.226.34 4.696-.306 2.94-1.284 4.344-4.507 3.684-7.793a8.838 8.838 0 0 0-.89-2.452c-.095-.178-.19-.37-.293-.575-.225-.435-.446-.886-.638-1.223-.65-1.13-1.333-2.074-2.042-3a116.85 116.85 0 0 0-.722-.924l-.091-.119-.462-.595-.318-.416a80.336 80.336 0 0 1-.485-.657l-.163-.222-.068-.1c-.02-.028-.039-.052-.058-.08-2.137-3.119-4.059-5.925-5.561-8.654a34.241 34.241 0 0 1-1.476-2.992c-.52-1.48-.004-3.201.312-4.232l-1.272-3.255c9.242-5.073 17.294-11.466 24.11-19.07a91.37 91.37 0 0 0 2.432-2.812 86.23 86.23 0 0 0 2.1-2.676c6.306-8.27 11.048-17.45 14.088-27.349.062-.003.127.004.189.004.016-.046.032-.092.045-.137.546.094 1.33.244 2.052.374.621.117 1.184.221 1.873.032.973-.62 2.068-1.33 3.951-1.141a34.5 34.5 0 0 1 1.561.293c.797.169 1.607.374 2.426.598.494.133.995.276 1.502.43.583.175 1.174.36 1.773.555 1.99.654 4.074 1.405 6.312 2.218.764.293 1.48.608 2.178.914.065.026.13.055.192.081 1.467.638 2.859 1.24 4.576 1.724.182.048.393.1.611.153l.946.214c5.158 1.164 9.402-1.034 10.201-4.793" fill="#F2F2F2"></path><path d="M277.235 609.438c.567-3.404-59.874-199.427-59.307-222.648.567-23.222.567-23.222 11.063-49.073 6.808-14.27-4.524-67.602-16.273-104.944l-38.47 72.32 10.845 50.39s4.6 167.232 50.77 246.914c19.608-6.786 41.157 8.33 41.372 7.04" fill="#FD9F90"></path><path d="M244.308 177.449c-8.51-11.063-16.736-3.97-20.652 0-3.915 3.97-30.123 42.834-41.469 57.422-11.346 14.588-23.544 66.82-23.544 66.82l5.957 56.024s17.84 2.072 27.823-6.359c12.457-10.52 23.236-35.197 22.669-61.577-.211-9.791 2.269-43.969 11.346-58.7 9.077-14.73 26.38-42.567 17.87-53.63" fill="#FDBDB4"></path><path d="M218.326 183.937c-.99 1.583-.748 3.664.614 4.942 2.26 2.12 7.599 4.247 10.902 3.246 4.65-1.411 9.786-17.193 9.786-18.364 0-1.17-2.979-4.273-6.453-4.253-5.901.03-7.135 2.088-14.849 14.429" fill="#FD9F90"></path><path d="M755.352 331.61c-4.556-8.012-10.81-17.431-17.092-25.588-3.899-5.063-8.205-13.716-13.095-14.991-4.894-1.278-9.753.663-11.03 7.684-1.276 7.018 1.046 20.21 3.388 26.592 2.338 6.382 18.72 34.039 19.996 51.27 1.278 17.233 12.549 49.114 31.273 68.08l11.278-30.424 4.6-43.894s-24.762-30.715-29.318-38.728" fill="#FDBDB4"></path><path d="M714.472 297.011c1.522 5.548 3.98 9.255 7.415 12.783a4 4 0 0 0 3.174 1.199c3.42-.268 10.266-1.597 10.289-7.956a3.91 3.91 0 0 0-.605-2.065c-4.976-7.948-10.696-12.998-14.315-12.328-3.83.709-6.592 6.055-5.958 8.367M763.31 607.97c20.342-46.955 26.19-167.57 26.19-167.57-13.047-12.481-30.067-34.606-36.59-53.895-6.527-19.289-21.82-32.419-21.82-32.419 3.261 7.842 5.944 15.923 6.429 22.49 1.278 17.233 12.549 49.114 31.273 68.08 0 0 5.957 91.674-20.422 157.74-.24.153 4.055 10.559 14.94 5.572" fill="#FD9F90"></path><path d="M488.105 432.07c2.719 6.335-1.655 13.044 2.572 18.492 1.412 1.822 3.529 3.032 4.81 4.949 1.802 2.696 1.844 6.605 4.484 8.488 2.595 1.852 6.329.72 9.242 2.014 2.413 1.07 3.9 3.645 6.312 4.715 3.246 1.44 6.95-.248 10.494-.395 5.405-.224 10.588 3.194 15.947 2.432 5.938-.845 9.974-6.444 15.44-8.913 2.03-.916 4.426-1.534 5.59-3.43 1.522-2.479.12-5.83 1.174-8.54.998-2.57 2.605-2.948 2.813-5.698.11-1.439-.309-2.789-.598-4.202-.293-1.413 2.656-2.981 3.274-6.008 2.67 7.73 6.55 49.752-42.756 48.584-13.381-.317-22.324-5.332-28.655-10.132-17.651-13.379-12.8-37.635-10.143-42.356" fill="#1A3877"></path><path d="M494.638 415.369l-4.556 10.573c-3.863 8.96-3.44 19.32 1.61 27.67 3.044 5.03 7.512 9.596 13.304 13.214.533.335 1.076.654 1.622.966.17.096.342.188.51.282a48.486 48.486 0 0 0 1.74.918c.414.207.83.407 1.25.601.149.07.298.143.451.212.566.255 1.135.501 1.71.734.111.045.222.085.332.13.469.185.94.364 1.412.535.192.069.383.135.575.202.407.142.82.278 1.23.409.191.061.383.123.578.182.482.146.963.284 1.447.416.111.03.222.063.332.092.592.156 1.187.3 1.785.433.16.036.322.068.485.103a46.91 46.91 0 0 0 3.22.577c.181.026.367.055.549.08.602.08 1.206.153 1.808.211l.032.003c.592.057 1.184.1 1.776.136.185.011.374.018.563.028.247.012.494.028.744.037.17.005.338.004.508.008a46.466 46.466 0 0 0 1.902.006c.202-.003.406-.004.611-.01a47.13 47.13 0 0 0 1.548-.069c.088-.005.179-.007.267-.013.601-.04 1.203-.092 1.801-.154.173-.018.348-.04.52-.061a43.93 43.93 0 0 0 1.275-.162c.215-.03.426-.064.638-.097.39-.06.777-.126 1.164-.197.211-.039.426-.078.64-.12.404-.08.81-.167 1.214-.258.178-.04.357-.078.536-.12.055-.014.114-.025.17-.038.26-.064.516-.138.776-.206.31-.081.622-.16.93-.247.306-.087.609-.185.914-.278.306-.094.612-.185.914-.286.3-.1.595-.209.891-.314.3-.108.602-.213.9-.327.293-.112.583-.234.872-.353.293-.12.589-.237.878-.363.286-.126.57-.26.852-.393.286-.133.576-.262.856-.401.28-.138.552-.285.829-.428.276-.146.56-.29.832-.442.273-.15.537-.309.804-.465.27-.159.543-.314.806-.479.263-.163.52-.335.78-.505.26-.17.52-.338.778-.515l.136-.089c.13-.091.254-.192.384-.285.393-.283.784-.572 1.167-.87a44.217 44.217 0 0 0 1.613-1.343c.189-.168.378-.335.566-.507.348-.32.686-.65 1.018-.985.156-.156.315-.308.468-.467.478-.497.943-1.006 1.392-1.534a34.28 34.28 0 0 0 1.428-1.825c.335-.458.66-.92.965-1.39l.069-.102a29.097 29.097 0 0 0 1.128-1.91c.25-.458.491-.92.712-1.386.033-.062.065-.125.095-.188a29.535 29.535 0 0 0 .835-1.972c.069-.17.137-.34.199-.512.114-.309.214-.62.315-.93l.062-.175a28.64 28.64 0 0 0 .546-1.994c.003-.006.003-.011.007-.017a11.72 11.72 0 0 0 .296-3.104l-.592-18.626c-.098.551-75.961 1.357-73.724-11.246" fill="#EA932A"></path><path d="M551.865 401.587c17.212 10.755 21.674 30.675 9.964 44.498-11.71 13.823-35.156 16.311-52.369 5.556-17.205-10.75-21.664-30.675-9.954-44.498 11.714-13.824 35.153-16.307 52.359-5.556" fill="#FFC255"></path><path d="M490.082 425.941c1.44 3.356.91 6.908.459 10.41-.397 3.08-.306 6.638 2 8.72 1.42 1.286 3.567 1.87 4.403 3.596.481.991.413 2.158.719 3.216.572 1.973 2.347 3.319 4.012 4.519 2.036 1.463 4.12 2.952 6.527 3.648 2.816.813 5.883.482 8.656 1.437 2.638.908 4.764 2.898 7.281 4.105 2.065.99 4.075 1.06 6.26 1.475 2.231.424 3.984.222 6.1-.736 1.783-.806 3.49-1.84 5.396-2.281 2.357-.546 4.822-.143 7.235-.3 1.529-.1 3.034-.444 4.458-.994 1.184-.456 2.202-1.314 3.36-1.723 1.356-.477 2.546-.76 3.752-1.618 1.07-.758 2.017-1.686 2.869-2.677 1.216-1.41 2.325-3.04 2.487-4.893.15-1.675-.494-3.382-.133-5.025.332-1.495 1.437-2.682 2.11-4.057 1.126-2.291.628-4.702.29-7.1-.108-.757-.25-1.477-.247-2.247.003-.507.048-1.013.113-1.516.052-.397.407-1.328.287-1.68 2.67 7.732 11.076 47.066-39.595 48.21-13.382.302-22.325-5.333-28.656-10.132-17.651-13.379-12.8-37.635-10.143-42.357" fill="#F2F2F2"></path><path d="M543.859 406.527l.136.09a4.042 4.042 0 0 1 1.444 1.768c.54 1.26 1.083 2.543 1.389 3.842 1.128 4.745 1.102 9.452.25 14.12a5.753 5.753 0 0 1-.13.517h-.172c-.016-.127-.072-.255-.052-.373.24-1.831-.394-3.537-1.486-5.14-1.256-1.852-2.186-3.766-2.712-5.82-.345-1.346-1.074-2.53-2.303-3.538a25.425 25.425 0 0 0-2.458-1.789c-.059-.036-.114-.072-.173-.107a20.951 20.951 0 0 0-8.978-3.128c-.081-.005-.16-.03-.367-.076.686-.299 1.265-.572 1.863-.801 3.502-1.312 7.138-1.84 11.034-.669.63.186 1.219.46 1.83.68a4.945 4.945 0 0 1 .68.305c.072.038.137.078.205.119m-11.935 28.16a.46.46 0 0 1 .046.03c.468.313.712.834.546 1.334a4.425 4.425 0 0 1-.842 1.496c-.8.928-1.993 1.492-3.496 1.756-.644.115-1.323.132-1.983.192l-.082-.19c.495-.273.976-.559 1.483-.815.677-.344 1.246-.752 1.668-1.259a3.36 3.36 0 0 0 .696-1.374c.091-.346.257-.676.397-1.014a.822.822 0 0 1 .1-.175c.17-.216.443-.276.798-.224a1.687 1.687 0 0 1 .67.243" fill="#336791"></path><path d="M539.573 415.989a.221.221 0 0 1 .036.026c.36.28.11.657-.108.947a.949.949 0 0 1-.071.088c-.368.424-.973.549-1.603.352a1.615 1.615 0 0 1-.228-.094l-.062-.037c-.136-.085-.218-.186-.24-.296-.023-.109.013-.226.113-.343l.05-.05c.015-.017.035-.033.054-.05.287-.246.65-.428 1.07-.694.312.041.751.003.989.15" fill="#FFF"></path><path d="M547.368 447.337c.907-.49 1.635-1.05 2.172-1.684 1.024-1.21 1.34-2.69.832-4.48-.611-2.156-1.304-4.307-1.964-6.463-.198-.633-.413-1.255-.618-1.887.225-.029.374-.044.514-.073 2.84-.491 5.255-1.537 6.914-3.492.107-.13.214-.265.318-.404.365-.499.634-1.09.765-1.674a.85.85 0 0 0-.26-.817 1.15 1.15 0 0 0-.17-.129 1.52 1.52 0 0 0-1.001-.18c-.456.086-.82.222-1.151.386-1.256.594-2.485 1.213-3.929 1.463-.429.073-.89.062-1.388.092.042-.221.065-.33.09-.438.837-3.991 1.041-8.034.54-12.14-.295-2.439-.806-4.863-1.94-7.184-.476-.963-1.048-1.903-2.03-2.586a4.903 4.903 0 0 0-.543-.329 16.828 16.828 0 0 0-8.377-1.889c-4.006.144-7.46 1.4-10.569 3.32a1.723 1.723 0 0 1-.647.238c-.744.13-1.505.197-2.234.352-2.354.503-4.51 1.308-6.045 2.904-.527.54-1.073.707-1.9.717-3.53.061-6.955.485-10.038 1.903-1.385.639-2.487 1.427-3.28 2.372-1.087 1.295-1.591 2.884-1.454 4.787.146 2.08.904 4.064 2.104 5.913 1.056 1.62 2.247 3.185 3.473 4.717 2.416 3.02 5.017 5.922 8.11 8.496.536.446 1.083.884 1.655 1.291a15.261 15.261 0 0 0 .797.535c.088.054.175.108.263.16a11.512 11.512 0 0 0 1.994.942c1.73.607 3.232.313 4.168-.808a3.46 3.46 0 0 0 .368-.53c.215-.369.36-.766.523-1.152.566-1.341 1.142-2.678 1.669-4.028.058-.157.123-.287.211-.384.163-.187.403-.257.823-.177.4.072.829.008 1.239-.03.393-.033.777-.11 1.17-.167-.074.633-.292 1.162-.66 1.61-.322.392-.76.72-1.313.996-.739.359-1.441.802-2.02 1.315-.442.512-.455.925-.221 1.26.088.128.215.245.37.343.212.116.33.164.46.202.685.204 1.463.31 2.168.263 2.368-.158 4.348-.875 5.72-2.467a6.58 6.58 0 0 0 .55-.736c.114.195.179.321.247.448 1.08 2.06 2.13 4.118 3.239 6.166.683 1.254 1.57 2.399 2.93 3.254.153.097.28.171.406.24 1.096.606 2.257.9 3.532.797a6.53 6.53 0 0 0 .439-.05c1.112-.173 2.065-.606 2.979-1.104m4.494-6.078c.354 2.79-.501 5.13-3.194 6.76-.783.47-1.635.874-2.448 1.31l-1.119.331c-.494.039-.979.108-1.476.115-1.408.015-2.602-.382-3.665-1.045a9.452 9.452 0 0 1-1.32-1.01c-1.903-1.715-3.067-3.766-4.166-5.847-.312-.574-.57-1.169-.872-1.782-2.783 1.806-5.746 2.678-9.365 1.625-.543.776-1.288 1.44-2.37 1.786-1.682.528-3.311.176-4.888-.546a15.1 15.1 0 0 1-1.756-.949c-1.21-.755-2.296-1.645-3.34-2.569-3.294-2.917-6.088-6.149-8.692-9.489-1.46-1.872-2.836-3.767-3.691-5.882-.956-2.377-1.447-4.757-.647-7.146.76-2.287 2.49-3.908 4.89-5.042 3.1-1.476 6.566-2.005 10.16-2.12.829-.023 1.414-.2 1.977-.716 1.697-1.562 3.94-2.413 6.383-2.939.712-.158 1.444-.273 2.166-.428.218-.041.439-.11.637-.196 1.327-.634 2.647-1.272 3.98-1.91.066-.03.124-.078.19-.122.89-.265 1.788-.53 2.685-.792.472-.077.933-.159 1.402-.231 4.133-.66 8.097-.127 11.882 1.766a6.632 6.632 0 0 1 2.468 2.115c1.382 1.94 2.023 4.05 2.488 6.199.976 4.512.982 8.99.306 13.437-.017.144-.033.29-.056.545.982-.454 1.854-.837 2.722-1.247 1.408-.67 2.543-.657 3.73.086.192.12.384.257.579.415l.543 1.122c0 .718-.156 1.403-.527 2.046-1.141 1.936-2.936 3.306-5.242 4.218-.852.335-1.736.603-2.64.92.152.39.292.78.455 1.169.83 1.98 1.567 3.974 1.83 6.043" fill="#000"></path><path d="M521.49 422.535c.711.395 1.677.272 2.149-.284a1.11 1.11 0 0 0 .175-.276 1.49 1.49 0 0 0 .042-.108c.079-.249.013-.459-.188-.586a.927.927 0 0 0-.377-.12c-.488-.064-.98-.016-1.392-.019-.31.171-.54.274-.745.41a.746.746 0 0 0-.133.123c-.15.182-.107.387.117.603a1.65 1.65 0 0 0 .351.257m6.536 10.58c.01.145-.006.244-.068.313-.062.069-.162.107-.319.133a8.15 8.15 0 0 1-.325.044c-1.518.169-3.053-.145-4.315-.853a6.038 6.038 0 0 1-.644-.412 5.883 5.883 0 0 1-.94-.854 4.797 4.797 0 0 1-.328-.41c-.03-.04-.059-.082-.088-.123-.484-.713-.745-1.533-1.102-2.306-.719-1.564-1.415-3.13-2.17-4.685-.172-.362-.233-.626.027-.925a.749.749 0 0 1 .055-.06c1.002-1 2.107-1.882 3.63-2.316.253-.072.493-.12.724-.143.459-.045.875.012 1.255.178.108.046.212.1.313.164l.094.061c.062.043.124.089.182.138.036.03.075.062.11.094.111.102.222.215.326.341 1.144 1.348 2.068 2.794 2.744 4.33.622 1.325.745 2.68.732 4.05a44.96 44.96 0 0 0 .107 3.24" fill="#336791"></path><path d="M523.668 421.28c.205.128.267.338.188.587-.013.035-.026.071-.042.108a1.115 1.115 0 0 1-.175.276c-.472.556-1.438.679-2.15.284a1.67 1.67 0 0 1-.351-.258c-.224-.215-.267-.42-.117-.602a.723.723 0 0 1 .133-.122c.205-.137.436-.24.745-.411.413.002.907-.045 1.392.018.156.02.283.061.377.12" fill="#FFF"></path><path d="M554.369 427.776a7.214 7.214 0 0 1-.533.71c-.823.957-1.86 1.637-3.103 2.113-.852.326-1.762.578-2.673.79a3.046 3.046 0 0 1-.338.064.909.909 0 0 1-.185.005.37.37 0 0 1-.173-.055c-.136-.084-.211-.265-.302-.576-.15-.51-.153-.804.078-1.066.12-.137.306-.265.566-.412a.77.77 0 0 1 .449-.084c1.174.216 2.263.013 3.297-.345.888-.306 1.733-.69 2.592-1.045.071-.025.153-.044.325-.099m-17.713-16.588c.12.076.244.154.36.233a19.79 19.79 0 0 1 2.394 1.837c.069.067.14.133.199.2.02.022.016.059.042.144-.768.224-1.58.407-2.322.693-.784.296-1.389.704-1.798 1.196-.602.719-.787 1.618-.517 2.615.244.886.787 1.676 1.411 2.43 1.2 1.43 2.693 2.635 4.234 3.798 1.076.812 2.14 1.648 3.255 2.428.068.05.143.1.215.149.143.098.292.194.439.29l.224.141c.527.33 1.073.647 1.62.989-.264.19-.504.395-.696.623-.277.334-.443.716-.417 1.176.033.484.16.973.322 1.454.602 1.792 1.262 3.583 1.847 5.382.465 1.397.843 2.818 1.288 4.217.465 1.495.231 2.716-.614 3.703-.443.517-1.054.97-1.818 1.364-.84.43-1.694.816-2.712.892-.787.065-1.529-.12-2.225-.483a6.621 6.621 0 0 1-1.515-1.111 6.612 6.612 0 0 1-1.17-1.575 405.933 405.933 0 0 1-3.59-6.833 17.501 17.501 0 0 1-.836-1.893 2.97 2.97 0 0 0-.374-.689 3.806 3.806 0 0 0-1.291-1.109 3.569 3.569 0 0 0-2.153-.398c-.205.028-.41.075-.621.143-.02.01-.062-.008-.18-.027-.038-.853-.103-1.721-.084-2.585.023-1.38 0-2.74-.429-4.114-.43-1.369-1.138-2.639-1.96-3.874-.398-.588-.82-1.17-1.276-1.725a4.884 4.884 0 0 0-1.23-1.109 4.998 4.998 0 0 0-.2-.118c-1.386-.764-3.012-.674-4.586 0a9.954 9.954 0 0 0-2.92 1.935c-.055.052-.117.091-.273.21-.237-.86-.488-1.645-.66-2.433-.433-2.004-.494-3.987.263-5.897a6.586 6.586 0 0 1 1.103-1.832c.874-1.029 2.074-1.8 3.554-2.333 3.21-1.146 6.562-1.373 10.055-.49a19.467 19.467 0 0 1 5.642 2.386" fill="#336791"></path><path d="M528.178 439.303c1.503-.264 2.696-.828 3.496-1.756a4.42 4.42 0 0 0 .842-1.496c.166-.5-.078-1.02-.546-1.334-.013-.01-.03-.02-.046-.03a1.703 1.703 0 0 0-.67-.243c-.354-.053-.627.008-.796.224a.814.814 0 0 0-.101.175c-.14.337-.306.668-.397 1.014-.13.528-.367.98-.696 1.374-.422.507-.991.914-1.668 1.259-.507.256-.988.542-1.483.816l.082.189c.66-.06 1.34-.077 1.983-.192m19.528-9.954c-.26.147-.446.275-.566.412-.23.262-.228.556-.078 1.066.091.31.166.492.302.576.05.03.104.048.173.055a.874.874 0 0 0 .182-.005c.097-.01.208-.032.341-.064.91-.212 1.821-.465 2.673-.79 1.243-.476 2.28-1.156 3.103-2.114.188-.221.367-.457.533-.709-.172.055-.254.073-.325.099-.859.354-1.704.739-2.592 1.044-1.034.36-2.123.562-3.297.346a.764.764 0 0 0-.45.084m-2.666-3.563c.026-.068.052-.107.052-.144a5.954 5.954 0 0 0-.01-.418c-.159-1.476-.969-2.781-1.801-4.075-.764-1.181-1.483-2.367-1.847-3.678-.231-.856-.537-1.698-.836-2.611-.988.294-1.922.462-2.718.823-.433.197-.758.417-.982.664-.488.545-.475 1.222.003 2.084.374.683.878 1.34 1.43 1.94 1.539 1.674 3.47 3.013 5.363 4.387.452.33.881.676 1.346 1.028m-17.4 7.775c.156-.026.256-.064.318-.133s.078-.168.068-.314a44.972 44.972 0 0 1-.107-3.24c.013-1.37-.11-2.725-.732-4.05-.676-1.537-1.6-2.982-2.74-4.33a3.832 3.832 0 0 0-.33-.341 1.717 1.717 0 0 0-.11-.094 2.35 2.35 0 0 0-.182-.138l-.094-.061a2.526 2.526 0 0 0-.31-.164 2.5 2.5 0 0 0-1.258-.178c-.23.023-.471.07-.725.143-1.522.434-2.627 1.315-3.629 2.315-.02.02-.036.04-.055.06-.26.3-.199.564-.026.926.754 1.555 1.45 3.12 2.169 4.685.357.772.618 1.593 1.102 2.306l.088.122a5.507 5.507 0 0 0 .69.784 5.84 5.84 0 0 0 .955.735c.088.055.176.107.267.158 1.262.707 2.797 1.022 4.315.853.108-.013.215-.027.325-.044m2.472-27.47c-.598.23-1.177.503-1.863.802.208.047.286.07.367.076a20.957 20.957 0 0 1 8.978 3.128c.059.035.114.07.173.107a25.425 25.425 0 0 1 2.458 1.79c1.23 1.007 1.958 2.191 2.303 3.537.526 2.054 1.456 3.968 2.712 5.82 1.092 1.603 1.726 3.309 1.486 5.14-.023.118.036.245.052.373h.172c.049-.171.098-.342.13-.516.852-4.67.878-9.376-.25-14.12-.306-1.3-.849-2.582-1.389-3.843a4.087 4.087 0 0 0-1.58-1.858 4.816 4.816 0 0 0-.885-.423c-.611-.22-1.2-.495-1.83-.681-3.896-1.171-7.535-.643-11.034.669m-8.89 34.318c.26-.378.448-.794.624-1.204.41-.974.796-1.955 1.196-2.937.231-.545.465-1.086.696-1.617l-.107-.081c-.091-.041-.179-.082-.277-.118a10.22 10.22 0 0 1-1.547-.785 8.875 8.875 0 0 1-.452-.302 7.835 7.835 0 0 1-1.903-1.932c-.036-.05-.068-.102-.104-.153a8.523 8.523 0 0 1-.898-1.844c-.53-1.515-1.154-3.03-1.95-4.479-.98-1.78-1.698-3.592-2.108-5.488-.523-2.442-.494-4.831.612-7.173-.576.019-1.057.028-1.532.056-2.888.178-5.684.622-8.169 1.825-1.05.513-1.89 1.13-2.504 1.855-.96 1.131-1.372 2.522-1.193 4.185.24 2.264 1.242 4.346 2.647 6.307a71.777 71.777 0 0 0 8.861 10.247c1.103 1.047 2.257 2.052 3.58 2.9l.157.1.14.086c.14.085.282.17.425.251.622.349 1.317.63 2.01.837.71.219 1.32.042 1.717-.436a3.34 3.34 0 0 0 .078-.1m25.105 5.84c.764-.394 1.375-.847 1.818-1.364.845-.987 1.08-2.208.614-3.703-.445-1.4-.823-2.82-1.288-4.217-.585-1.799-1.245-3.59-1.847-5.382-.162-.48-.29-.97-.322-1.454-.029-.46.14-.842.417-1.176.192-.228.429-.433.696-.623-.547-.342-1.093-.66-1.62-.989l-.224-.142c-.147-.095-.296-.19-.44-.29-.07-.048-.146-.098-.217-.148-1.112-.78-2.176-1.616-3.252-2.428-1.541-1.163-3.034-2.368-4.234-3.798-.624-.754-1.167-1.544-1.411-2.43-.27-.997-.085-1.896.517-2.615.41-.492 1.014-.9 1.798-1.196.741-.286 1.551-.47 2.322-.693-.026-.085-.023-.122-.042-.144-.059-.067-.13-.133-.199-.2a19.79 19.79 0 0 0-3.076-2.266 19.467 19.467 0 0 0-5.32-2.19c-3.493-.883-6.849-.657-10.055.49-1.483.532-2.68 1.304-3.554 2.333-.459.54-.83 1.15-1.103 1.832-.757 1.91-.696 3.893-.263 5.897.172.788.423 1.572.66 2.432.156-.118.218-.157.273-.209a9.954 9.954 0 0 1 2.92-1.936c1.574-.673 3.2-.763 4.586 0a4.428 4.428 0 0 1 .605.403 5.084 5.084 0 0 1 .825.825c.456.555.878 1.136 1.275 1.725.823 1.235 1.532 2.505 1.961 3.874.43 1.373.452 2.734.43 4.114-.02.864.045 1.732.084 2.585.117.02.16.038.179.027a3.55 3.55 0 0 1 .62-.143 3.569 3.569 0 0 1 2.154.398 3.751 3.751 0 0 1 1.288 1.109c.162.221.289.454.377.69.24.637.513 1.272.835 1.892a405.933 405.933 0 0 0 3.59 6.833 6.612 6.612 0 0 0 1.17 1.575 6.409 6.409 0 0 0 1.516 1.11c.696.364 1.434.549 2.225.483 1.018-.075 1.873-.461 2.712-.89m4.048-5.079c.508 1.79.189 3.272-.832 4.481-.537.635-1.265 1.194-2.172 1.684-.914.498-1.867.93-2.98 1.104a6.53 6.53 0 0 1-.438.05c-1.275.102-2.436-.191-3.532-.796a7.368 7.368 0 0 1-.377-.222c-1.388-.874-2.276-2.019-2.96-3.273-1.108-2.048-2.158-4.106-3.238-6.166-.068-.127-.133-.253-.247-.448-.172.264-.355.51-.55.736-1.372 1.592-3.352 2.309-5.72 2.467-.705.048-1.483-.059-2.169-.262a1.883 1.883 0 0 1-.351-.142c-.263-.16-.39-.276-.478-.404-.234-.335-.221-.748.075-1.11a8.823 8.823 0 0 1 2.166-1.465c.552-.275.991-.603 1.313-.997.368-.446.586-.976.66-1.609-.393.056-.777.134-1.17.166-.41.04-.84.103-1.24.03-.419-.079-.66-.009-.822.178a1.191 1.191 0 0 0-.211.384c-.53 1.35-1.103 2.687-1.669 4.028-.162.386-.308.783-.523 1.152-.11.193-.234.37-.368.53-.936 1.12-2.438 1.415-4.168.808a9.396 9.396 0 0 1-.625-.244 11.76 11.76 0 0 1-1.632-.858 14.367 14.367 0 0 1-.797-.535 28.396 28.396 0 0 1-1.655-1.291c-3.093-2.574-5.694-5.476-8.11-8.496-1.226-1.532-2.417-3.097-3.473-4.717-1.2-1.849-1.958-3.832-2.104-5.913-.137-1.903.367-3.492 1.453-4.787.794-.945 1.896-1.733 3.281-2.372 3.083-1.418 6.507-1.842 10.039-1.903.826-.01 1.372-.178 1.899-.717 1.535-1.596 3.69-2.4 6.045-2.904.729-.155 1.49-.222 2.234-.352.231-.034.462-.123.647-.239 3.11-1.92 6.563-3.175 10.57-3.319a16.825 16.825 0 0 1 8.376 1.89 5.057 5.057 0 0 1 .543.328c.982.683 1.554 1.623 2.026 2.586 1.138 2.321 1.649 4.745 1.945 7.183.5 4.107.296 8.15-.54 12.14a9.251 9.251 0 0 0-.091.439c.497-.03.959-.02 1.388-.092 1.444-.25 2.673-.869 3.929-1.463.331-.164.695-.3 1.076-.372.426-.07.758-.01 1.018.132.12.073.175.116.227.163a.85.85 0 0 1 .26.817c-.13.585-.4 1.175-.764 1.674a8.405 8.405 0 0 1-.322.404c-1.655 1.955-4.07 3-6.91 3.492-.14.029-.29.044-.514.073.205.632.42 1.254.618 1.887.66 2.156 1.353 4.307 1.964 6.462" fill="#FFF"></path><path d="M537.827 417.402c.63.197 1.235.073 1.603-.352a.993.993 0 0 0 .071-.088c.218-.29.469-.667.108-.947a.268.268 0 0 0-.036-.026c-.238-.148-.677-.11-.989-.15-.416.265-.783.447-1.07.693a.847.847 0 0 0-.055.05l-.049.05c-.1.117-.136.234-.113.343.022.11.104.211.24.297l.062.036c.068.034.143.066.228.094m7.264 8.24c0 .037-.026.076-.052.144-.465-.352-.894-.698-1.346-1.027-1.893-1.375-3.824-2.714-5.362-4.388-.553-.6-1.057-1.256-1.431-1.94-.478-.861-.491-1.539-.003-2.084.224-.247.55-.467.982-.664.796-.36 1.73-.529 2.718-.823.3.913.605 1.756.836 2.611.364 1.311 1.083 2.497 1.847 3.678.832 1.294 1.642 2.6 1.802 4.075.01.137.013.28.01.418m-30.09-13.345c-1.106 2.342-1.135 4.731-.612 7.173.41 1.896 1.129 3.708 2.107 5.488.797 1.45 1.422 2.964 1.952 4.478a8.544 8.544 0 0 0 .897 1.845c.036.05.068.102.104.153a7.83 7.83 0 0 0 1.902 1.932c.147.104.296.204.453.302.468.292.985.554 1.547.785.098.036.186.077.277.118l.107.081c-.23.531-.465 1.072-.696 1.617-.4.982-.787 1.963-1.196 2.937-.176.41-.365.826-.625 1.204a3.34 3.34 0 0 1-.078.1c-.397.478-1.008.654-1.717.436a10.043 10.043 0 0 1-2.436-1.088l-.136-.086a5.172 5.172 0 0 1-.16-.1c-1.323-.848-2.477-1.853-3.58-2.9l-.663-.641a71.777 71.777 0 0 1-8.198-9.606c-1.405-1.961-2.407-4.043-2.65-6.307-.176-1.663.237-3.054 1.196-4.185.615-.725 1.454-1.342 2.504-1.855 2.485-1.203 5.281-1.647 8.169-1.825.475-.027.956-.037 1.532-.056" fill="#336791"></path><path d="M603.97 446.627c2.722 6.336-2.527 13.044 1.7 18.493 1.412 1.822 3.529 3.031 4.81 4.948 1.802 2.697 1.844 6.605 4.485 8.489 2.595 1.851 6.328.72 9.241 2.013 2.413 1.071 3.9 3.646 6.312 4.716 3.246 1.438 6.946-.248 10.494-.395 5.405-.224 10.588 3.194 15.948 2.432 5.934-.846 9.973-6.444 15.44-8.914 2.029-.916 4.425-1.533 5.59-3.43 1.521-2.479.12-5.83 1.173-8.54.999-2.57 2.602-2.948 2.813-5.697.11-1.439-.309-2.789-.598-4.202-.293-1.413 2.657-2.981 3.275-6.009 2.67 7.73 6.546 49.753-42.76 48.584-13.378-.317-22.32-5.332-28.652-10.131-17.651-13.38-11.925-37.636-9.271-42.357" fill="#1A3877"></path><path d="M610.718 428.497l-4.56 10.573c-3.86 8.96-3.437 19.32 1.613 27.67 3.041 5.03 7.512 9.596 13.3 13.214.537.335 1.08.654 1.627.966.169.096.338.188.51.282a43.944 43.944 0 0 0 2.989 1.52c.15.07.299.142.452.21.565.256 1.135.502 1.707.734.114.046.224.086.335.13.468.186.936.365 1.411.536.189.069.384.135.576.202.406.142.816.278 1.229.409.192.061.384.123.579.182.481.146.962.284 1.447.415.11.03.221.064.332.093.591.156 1.187.3 1.782.433.162.036.325.068.484.103a45.257 45.257 0 0 0 1.938.374c.426.073.856.14 1.285.203.182.026.364.055.55.08a49.45 49.45 0 0 0 1.84.214c.592.057 1.184.1 1.772.136.189.011.377.019.563.028.25.012.497.028.748.037.169.005.338.004.507.008a46.63 46.63 0 0 0 1.9.006c.204-.003.409-.004.614-.01a46.52 46.52 0 0 0 1.544-.069c.091-.005.18-.007.27-.013a48.85 48.85 0 0 0 1.802-.154c.172-.018.345-.041.52-.061.426-.049.852-.101 1.275-.162a45.73 45.73 0 0 0 1.802-.294c.21-.039.425-.078.637-.12.406-.08.81-.167 1.213-.258.179-.04.36-.078.54-.12.055-.014.113-.025.169-.038.26-.064.517-.138.777-.206.309-.081.62-.16.93-.247.306-.087.608-.185.91-.278.306-.094.615-.185.917-.286.3-.1.592-.209.888-.315.303-.107.605-.212.901-.326.296-.112.585-.235.875-.353.292-.12.588-.237.878-.363.286-.126.569-.261.852-.393.286-.133.572-.262.855-.401.28-.138.553-.284.826-.428.28-.146.56-.29.836-.442.27-.15.536-.31.803-.465.27-.159.54-.314.806-.479.264-.163.52-.335.778-.505.263-.17.523-.338.78-.514.046-.03.091-.059.133-.09.134-.09.254-.192.384-.285a31.785 31.785 0 0 0 1.753-1.341 36.894 36.894 0 0 0 1.593-1.379c.348-.32.686-.65 1.021-.985.156-.156.316-.308.469-.467a31.522 31.522 0 0 0 2.539-2.98c.095-.126.186-.252.28-.378.335-.46.66-.922.963-1.39.022-.035.048-.068.071-.103a31.54 31.54 0 0 0 1.84-3.295c.033-.064.066-.126.095-.189.244-.52.468-1.044.68-1.57.055-.134.104-.267.156-.401.065-.171.136-.34.198-.513.114-.308.215-.62.316-.93.019-.06.042-.117.058-.175a26.14 26.14 0 0 0 .455-1.614c.033-.127.065-.253.095-.38.003-.006.003-.012.003-.017.244-1.015.332-2.061.3-3.104l-.593-18.626c-.1.551-75.964 1.357-73.723-11.246" fill="#EA932A"></path><path d="M667.944 414.715c17.21 10.755 21.674 30.675 9.964 44.498-11.713 13.824-35.16 16.311-52.368 5.557-17.206-10.751-21.664-30.676-9.954-44.5 11.71-13.823 35.153-16.306 52.358-5.555" fill="#FFC255"></path><path d="M606.159 439.145c1.414 1.774 1.912 4.455 1.284 6.598-.51 1.75-1.337 3.559-.862 5.32.573 2.118 2.803 3.334 3.883 5.244.933 1.654.917 3.654 1.216 5.532.176 1.108.517 2.266 1.184 3.184.82 1.12 1.72 1.454 2.384 2.738 1.645 3.178 3.908 6.539 7.42 7.232 2.882.568 6.026-.827 8.725.328 3.203 1.371 4.328 5.738 7.57 7.016 4.374 1.723 8.71-3.265 13.405-3.145 3.863.098 7.795 3.616 11.14 1.684 1.945-1.124 2.648-3.684 4.511-4.935 1.646-1.103 3.792-.949 5.72-1.388 3.776-.86 6.667-4.075 8.162-7.649 1.08-2.584 1.496-5.324 1.835-8.086.243-1.982 1.157-3.728 1.304-5.634.11-1.438-.31-2.789-.602-4.202-.29-1.413-.5-2.605.117-5.633 2.67 7.73 11.076 47.065-39.598 48.209-13.378.302-22.321-5.333-28.653-10.132-9.4-7.125-14.149-20.167-13.13-31.721.302-3.44 1.04-7.642 2.985-10.56" fill="#F2F2F2"></path><path d="M665.444 417.927c.956.637.458 1.634.15 2.409-.7 1.76-1.887 3.263-3.555 4.458-.446.32-.624.6-.075 1.03 2.615 2.022 4.572 4.413 5.993 7.113.085.176.244.33.332.44 1.594-.492 3.08-1.073 4.647-1.401 1.17-.244 2.449-.25 3.678-.187.296.014.696.163 1.005.355.218.138.39.297.445.444.134.368-.24 1.002-.64 1.303-1.844 1.402-4.15 2.043-6.637 2.316-.423.045-.85.035-1.304.051.204 1.932.403 3.744.617 5.743-1.297-.129-2.36-.228-3.525-.344.069-6.135-2.705-11.275-8.64-15.068-.081-.053-.166-.105-.247-.157-5.82-3.636-12.237-4.41-18.978-2.668l-1.363-2.772c2.13-.378 4.166-.741 6.329-1.122-.056-.299-.114-.638-.176-.986-.364-1.984-.364-3.942.576-5.755.227-.439.839-.992 1.304-.982.156.005.338.079.52.192.341.213.68.566.852.86 1.047 1.815 1.066 3.716.845 5.614-.052.379-.117.763-.169 1.133 1.97.45 3.902.774 5.74 1.335 1.811.55 3.528 1.33 5.333 2.023.611-.894 1.141-1.849 1.873-2.668.693-.783 1.532-1.49 2.423-2.11.731-.5 1.697-1.192 2.647-.6m-39.484.834l.058.039c2.42 1.558 2.442 1.533.797 3.477-.459.541-.905 1.1-1.389 1.626-.416.46-.43.853.185 1.238a147.077 147.077 0 0 1 3.012 1.882c.595.37.978.247 1.343-.207.806-.997 1.687-1.957 2.48-2.963.378-.479.745-.562 1.279-.23.042.028.088.057.133.09.293.206.595.404.9.596a33.073 33.073 0 0 0 1.136.673c.52.324.49.64.123 1.063-1.427 1.64-2.822 3.307-4.224 4.963-1.36 1.604-2.744 3.193-4.061 4.816-.475.594-.843.744-1.656.235-2.578-1.619-2.588-1.586-.835-3.688.656-.798 1.791-1.683 1.671-2.462-.055-.311-.41-.605-.871-.892-.26-.164-.56-.326-.852-.487a12.991 12.991 0 0 1-.908-.521l-.387-.245c-1.131-.706-1.226-.595-2.165.516-.726.855-1.47 1.69-2.166 2.565-.407.527-.77.64-1.486.208a64.762 64.762 0 0 1-.953-.576c-1.737-1.085-1.538-1.32.036-3.178 2.348-2.768 4.718-5.522 7.017-8.318.56-.679.992-.714 1.782-.22m14.956 9.347l.058.037a267.627 267.627 0 0 0 7.05 4.411l.05.03c.695.436.705.772.22 1.31-1.294 1.437-1.222 1.704-2.14 1.13-.113-.07-.24-.153-.39-.25a35.906 35.906 0 0 0-.813-.516 103.99 103.99 0 0 1-1.096-.674c-.725-.453-1.437-.91-2.143-1.35-.24.066-.283.071-.312.092-1.808 1.625-1.808 1.625.442 3.03l1.158.725c1.464.914 1.464.914.478 2.078-1.014 1.195-1.014 1.195-2.533.246-.9-.563-1.805-1.121-2.715-1.674-.088-.055-.215-.08-.482-.17-.478.562-1.037 1.11-1.42 1.744-.115.192.2.73.487.925a60.7 60.7 0 0 0 2.042 1.327 97.193 97.193 0 0 0 1.857 1.131c.63.395.68.74.224 1.255-1.245 1.388-1.203 1.633-2.084 1.083l-.38-.245c-.202-.127-.436-.281-.716-.454-.449-.273-.894-.55-1.336-.826l-1.327-.831c-.553-.35-1.106-.699-1.662-1.045a126.67 126.67 0 0 0-2.065-1.269l-.049-.03c-.689-.432-.702-.767-.224-1.318a732.811 732.811 0 0 0 8.208-9.702c.507-.61.904-.644 1.613-.2m12.926 8.067c1.867 1.167 1.697 1.366.107 3.243-1.726 2.04-3.434 4.1-5.2 6.117-.484.56-.422.93.238 1.341.013.01.03.02.045.03.18.109.361.22.537.332.358.223.712.448 1.07.671.24.152.478.303.719.453.416.26.832.516 1.258.766l.059.036c.595.373.747.705.263 1.242-1.259 1.397-1.22 1.663-2.091 1.118-.12-.075-.257-.166-.42-.271-.214-.134-.461-.296-.75-.478-.462-.28-.921-.564-1.376-.85-.459-.285-.914-.572-1.37-.857a290.242 290.242 0 0 0-3.352-2.087l-.059-.036c-.653-.41-.76-.735-.26-1.302 1.444-1.628 2.823-3.299 4.225-4.954 1.356-1.6 2.734-3.192 4.061-4.817.43-.529.777-.62 1.486-.194.303.185.573.35.81.497m20.731 12.954c.075.048.153.103.234.164.254.194.523.375.8.548.335.21.683.407 1.03.603.03.018.062.036.088.053.53.331.511.66.15 1.087a3771.98 3771.98 0 0 0-8.413 9.931c-.377.445-.721.533-1.343.175-.478-.27-.868-.489-1.174-.68-1.307-.817-1.08-1.124.335-2.7 1.33-1.491 2.797-2.89 4.195-4.338.257-.267.469-.552.706-.83l-.202-.126a2492.878 2492.878 0 0 0-7.414 3.813c-.536.274-.995.602-1.72.149-.761-.498-.465-.972-.332-1.447.592-2.13 1.203-4.255 1.811-6.383.082-.29.147-.592.215-.89-.088-.031-.189-.062-.276-.094-.817 1.178-1.594 2.37-2.459 3.527a52.715 52.715 0 0 1-2.803 3.458c-.162.178-.842.24-1.109.103-.653-.333-1.154-.59-1.512-.814-1.174-.733-.849-1.123.527-2.743 2.387-2.82 4.806-5.628 7.154-8.471.527-.643.937-.693 1.714-.208 2.744 1.739 2.76 1.718 1.974 4.354-.498 1.656-1.012 3.3-1.51 4.956-.09.29-.136.595-.27 1.162.6-.308.905-.456 1.207-.616 2.202-1.225 4.43-2.42 6.595-3.69.67-.398 1.194-.432 1.802-.053m-21.001 6.89c.403.902.78 1.765 1.223 2.755-1.61.294-3.1.563-4.715.854.058.33.113.675.178 1.018.374 1.982.44 3.943-.494 5.76-.247.496-.904.82-1.379 1.229-.5-.445-1.19-.823-1.47-1.337-.936-1.794-.943-3.663-.712-5.53.049-.351.108-.693.173-1.148-.612-.073-1.135-.137-1.659-.201-3.063-.357-5.98-1.158-8.705-2.49-.706-.34-.933-.196-1.343.3-1.057 1.29-2.228 2.516-3.411 3.728-.3.308-.758.564-1.213.682-.543.14-1.34.331-1.71.107-.359-.224-.547-1.005-.394-1.413.42-1.155.946-2.298 1.642-3.334.56-.843 1.427-1.53 2.286-2.404-2.985-2.281-5.424-4.906-6.975-8.003-1.418.413-2.647.861-3.942 1.114a13.984 13.984 0 0 1-3.434.245c-.627-.044-1.255-.536-1.876-.824.296-.488.462-1.081.91-1.428 1.493-1.181 3.415-1.721 5.421-2.077.488-.084.976-.15 1.496-.228-.211-1.516-.416-2.969-.634-4.544 1.086.05 1.97.086 2.855.134.218.01.371.054.478.12.322.202.222.614.25.923.219 2.46 1.019 4.802 2.443 7.024 1.59 2.478 3.756 4.55 6.29 6.13 4.893 3.06 11.147 4.282 17.202 3.06.364-.075.735-.138 1.219-.222" fill="#257396"></path><path d="M588.416 279.084c2.719 6.334-2.527 13.043 1.698 18.493 1.414 1.821 3.528 3.03 4.81 4.946 1.804 2.7 1.846 6.607 4.487 8.49 2.595 1.852 6.328.72 9.242 2.014 2.413 1.071 3.899 3.645 6.312 4.716 3.242 1.438 6.946-.248 10.493-.395 5.405-.224 10.589 3.194 15.944 2.431 5.938-.845 9.977-6.444 15.444-8.913 2.026-.916 4.426-1.533 5.59-3.43 1.518-2.48.12-5.83 1.174-8.539.998-2.572 2.601-2.95 2.813-5.7.11-1.438-.313-2.787-.602-4.202-.29-1.411 2.657-2.978 3.275-6.006 2.673 7.73 6.549 49.752-42.756 48.583-13.379-.317-22.321-5.332-28.653-10.132-17.65-13.379-11.928-37.635-9.27-42.356" fill="#1A3877"></path><path d="M594.904 262.382l-4.556 10.575c-3.86 8.959-3.437 19.32 1.61 27.667 3.043 5.03 7.515 9.598 13.303 13.216.537.335 1.08.654 1.626.966.169.096.338.188.507.282a49.843 49.843 0 0 0 1.74.918 47.8 47.8 0 0 0 1.252.601c.15.07.3.143.449.211.566.256 1.138.502 1.71.734.11.046.225.086.335.13.468.186.937.365 1.408.536.192.069.384.135.576.202.41.142.82.278 1.232.409.192.061.384.123.576.182.481.146.966.284 1.45.415.11.03.221.064.332.093.592.156 1.187.3 1.782.433.163.036.325.068.484.103a51.979 51.979 0 0 0 1.935.373c.43.074.859.142 1.285.204.185.026.367.055.553.08a50.125 50.125 0 0 0 1.84.214c.592.057 1.18.1 1.773.136.188.011.373.019.562.028.247.012.498.028.745.037.169.005.341.004.51.008a46.813 46.813 0 0 0 1.9.006c.204-.003.41-.004.61-.01a48.836 48.836 0 0 0 1.549-.068c.09-.006.179-.008.27-.014.601-.04 1.203-.092 1.798-.154.175-.018.348-.04.523-.061.426-.049.85-.101 1.275-.162a45.48 45.48 0 0 0 1.798-.294A38.472 38.472 0 0 0 641.5 320c.179-.04.361-.078.537-.12l.172-.039c.26-.063.517-.137.774-.205.312-.081.624-.16.93-.247.309-.087.611-.185.914-.278.305-.094.611-.185.913-.286.3-.1.596-.209.892-.315.302-.107.604-.212.9-.326.296-.112.582-.235.875-.353.293-.12.585-.237.875-.363.29-.126.572-.26.855-.393.286-.133.572-.262.855-.401.28-.138.55-.285.826-.428.28-.146.56-.29.836-.441.27-.15.533-.31.8-.466.27-.159.543-.314.81-.479.263-.163.52-.335.777-.504.26-.17.523-.339.78-.515.043-.03.091-.059.134-.09.13-.09.253-.192.383-.285.394-.283.787-.572 1.168-.87.198-.154.39-.313.585-.471.348-.284.693-.575 1.028-.872.192-.168.38-.335.566-.507a34.3 34.3 0 0 0 1.02-.985c.157-.156.316-.308.469-.467.475-.498.943-1.005 1.389-1.532.403-.475.78-.96 1.147-1.447l.283-.38c.335-.46.657-.92.963-1.39.023-.035.049-.067.068-.103a27.953 27.953 0 0 0 1.132-1.91c.25-.458.488-.92.712-1.384.03-.062.065-.127.094-.189a30.113 30.113 0 0 0 .836-1.97c.065-.173.137-.342.198-.514.111-.31.215-.618.316-.93l.058-.176a28.324 28.324 0 0 0 .55-1.993c0-.007.003-.01.003-.017.244-1.014.332-2.061.3-3.105l-.596-18.624c-.097.55-75.96 1.356-73.723-11.248" fill="#EA932A"></path><path d="M652.134 248.6c17.209 10.754 21.674 30.675 9.963 44.5-11.713 13.823-35.159 16.31-52.371 5.557-17.203-10.751-21.661-30.679-9.95-44.5 11.71-13.823 35.152-16.307 52.358-5.557" fill="#FFC255"></path><path d="M590.348 272.957c.94 2.185.855 3.954.595 6.201-.263 2.277.354 4.602 1.304 6.657 1.223 2.654 2.998 5.008 4.462 7.535 2.185 3.782 2.263 8.064 4.87 11.628 1.311 1.792 3.087 3.327 5.22 3.945 2.172.63 4.5.264 6.754.465 5.811.519 10.699 4.717 16.432 5.78 2.078.386 4.364.306 6.123-.865 1.135-.755 1.961-1.9 3.064-2.702 2.074-1.51 5.014-1.717 7.495-1.518.459.037.885.217 1.337.254.66.055 1.375-.156 2.02-.275 1.479-.27 2.952-.597 4.373-1.083 2.198-.752 4.299-1.906 5.85-3.633 1.811-2.02 2.725-4.637 3.493-7.19.357-1.207.82-2.413 1.635-3.382.826-.979 1.571-1.922 2.091-3.109 1.89-4.305.443-8.861 1.083-13.32.036-.257.273-.878.195-1.109 2.67 7.73 11.076 47.065-39.598 48.208-13.378.302-22.32-5.332-28.652-10.132-17.652-13.377-12.8-37.636-10.146-42.355" fill="#F2F2F2"></path><path d="M631.37 286.917a3.19 3.19 0 0 0-.461.26l.169.999-.498.03-.263-1.559.4-.029.062.17c.14-.089.295-.17.465-.235l.126.364zm-6.312.123c.114.072.176.2.202.365l.189 1.122-.475.036-.179-1.086c-.01-.043-.026-.072-.055-.088-.026-.02-.065-.026-.12-.023a1.265 1.265 0 0 0-.479.166l.18 1.073-.498.03-.364-2.173.507.026.117.683a1.84 1.84 0 0 1 .67-.192.542.542 0 0 1 .305.062m.999-.338l-.501.036-.062-.381.501-.036zm21.566 2.67l.31 1.84 1.96-.13.094 1.278-1.843.117.569 3.389c.003.172.107.325.266.426.101.061.222.1.352.107l.165-.013c.326-.03.641-.094.937-.195l.442 1.242a5.83 5.83 0 0 1-1.639.36c-.68.046-1.222-.051-1.62-.301-.415-.26-.676-.687-.776-1.282l-.608-3.606-1.142.075-.218-1.265 1.155-.078-.277-1.61 1.873-.354zm-4.012-.781l1.567 9.356-1.919.123-1.531-9.134zm-2.452 3.063l1.082 6.485-1.46.094-.286-.55a8.259 8.259 0 0 1-2.926.895c-.498.032-.888-.059-1.19-.248-.479-.299-.742-.845-.862-1.554l-.79-4.696 1.902-.13.76 4.527c.03.185.105.319.232.397.11.071.266.1.468.087a5.789 5.789 0 0 0 1.909-.682l-.758-4.498 1.919-.127zm-10.023 6.039a3.234 3.234 0 0 0 1.395-.43l-.156-.955-1.414.09c-.634.046-.78.202-.703.694.046.256.12.422.267.513.133.085.328.108.611.088m2.852-3.32l.712 4.257-1.57.1-.212-.41c-.614.42-1.372.667-2.178.72-.586.038-1.054-.072-1.415-.3-.504-.312-.797-.849-.907-1.499-.225-1.317.374-1.863 1.928-1.97l1.837-.12-.12-.677c-.055-.351-.153-.589-.377-.729-.238-.146-.615-.188-1.242-.146-.716.049-1.412.163-2.088.335l-.449-1.223a11.702 11.702 0 0 1 2.576-.481c1.18-.075 1.983.049 2.523.387.563.351.842.93.982 1.756m-1.168-6.608c.188-.01.255-.081.23-.224l-.103-.563a.215.215 0 0 0-.1-.15.359.359 0 0 0-.192-.032.854.854 0 0 0-.441.166l.135.79c.164.016.317.02.47.013m.327.309l-.17.013a3.088 3.088 0 0 1-.548-.013l.106.634-.526.094-.413-2.24.413-.026.074.127a1.21 1.21 0 0 1 .627-.199.856.856 0 0 1 .477.088.569.569 0 0 1 .274.41l.11.54c.096.26-.096.514-.424.572m-3.653.225c.29-.016.387-.14.353-.355l-.081-.525c-.008-.122-.049-.206-.127-.263-.075-.048-.186-.069-.331-.056l.003.02c-.29.024-.383.141-.353.355l.078.525c.018.11.06.19.134.243.074.048.179.069.324.056m.819-.905l.074.485c.06.376-.085.76-.83.808-.35.029-.592-.032-.76-.145-.19-.13-.279-.327-.308-.537l-.079-.477c-.056-.396.082-.772.834-.828.347-.025.585.036.752.149.19.13.283.331.317.545m-7.049.491c.105.062.134.157.163.322.049.316-.052.495-.63.527a2.785 2.785 0 0 1-.677-.042l.02-.3c.188.027.383.04.575.03.215-.016.237-.055.221-.172-.01-.059-.016-.095-.055-.12-.046-.027-.13-.043-.31-.062-.207-.026-.337-.059-.419-.111-.11-.065-.14-.17-.166-.338-.052-.303.095-.462.638-.501.192-.013.39-.007.579.02l.006.315a3.608 3.608 0 0 0-.53-.013c-.215.013-.237.052-.221.146.006.052.01.088.052.114a.7.7 0 0 0 .247.059c.264.035.413.068.507.126m-2.249.974a.884.884 0 0 0 .408-.128l-.034-.277-.416.024c-.18.012-.23.056-.21.205.015.072.038.12.08.148.038.024.092.032.172.028m.569-1.496c.16.104.236.272.27.51l.233 1.26-.454.027-.069-.14c-.183.128-.4.2-.637.217a.686.686 0 0 1-.424-.093.62.62 0 0 1-.26-.437c-.049-.333.127-.534.57-.566l.519-.04-.035-.197c-.015-.1-.042-.172-.107-.212-.068-.045-.179-.057-.362-.045a3.511 3.511 0 0 0-.615.1l-.126-.36c.237-.073.493-.125.756-.14.351-.025.584.011.74.116m-2.445-.59l.501-.035.357 2.152-.504.033-.149-.891-.969.062.152.891-.497.029-.361-2.143.501-.036.149.904.973-.065zm8.36 3.376l-1.639 9.076-2.923.195-4.611-8.673 2.055-.14 3.769 7.226 1.291-7.554zm-1.902-3.194l.498-.032.26 1.548-.498.032zm2.003 1.08a3.59 3.59 0 0 0 .618-.078l.114.341a3.187 3.187 0 0 1-.7.12c-.344.024-.594-.022-.763-.13a.569.569 0 0 1-.264-.419l-.153-.96c-.058-.386.18-.63.833-.672.234-.017.475-.007.715.029l.007.345a6.346 6.346 0 0 0-.657-.033c-.335.023-.426.13-.394.351l.14.817c.02.11.059.188.137.237.078.049.195.068.367.052m5.259-31.511l-2.244.147.318 1.889 2.238-.15-.312-1.886zm1.297 7.584l-.322-1.896-2.237.15.312 1.885 2.247-.14zm-.481-2.856l-.319-1.899-2.237.15.29 1.9 2.266-.15zm-4.14-4.513l-2.263.15.318 1.886 2.264-.147-.319-1.89zm-4.344 7.983l2.237-.15-.319-1.918-2.24.15.322 1.918zm5.147-3.239l-.322-1.895-2.266.146.318 1.902 2.27-.153zm-2.107 1.1l.316 1.899 2.266-.147-.319-1.902-2.263.15zm-4.322-5.47l.329 1.922 2.237-.15-.322-1.919-2.244.147zm.482 2.845l.322 1.919 2.243-.147-.322-1.918-2.243.146zm4.63 7.369l2.264-.15-.316-1.902-2.266.15.318 1.902zm17.587-18.35l-13.896 34.001-24.734-31.465 38.63-2.536z" fill="#000"></path><path d="M339.611 451.773l-.787.929-.858-.538c-.687-.429-1.672-.31-2.153.256l-.104.123 1.564.978-.784.927-1.564-.977-3.984 4.699-1.16-.727 3.98-4.7-.673-.419.787-.927.673.42.104-.124c.436-.516 1.102-.848 1.873-.941a3.455 3.455 0 0 1 2.227.484l.859.537zm9.639 8.872l-2.947 3.478c-1.115 1.315-3.365 1.546-5.014.515-1.652-1.032-2.088-2.94-.972-4.255l2.946-3.479 1.164.727-2.946 3.479c-.683.804-.416 1.97.592 2.6 1.011.631 2.387.49 3.066-.314l2.946-3.478 1.165.727zm.982 4.389l4.078 2.547c.666-.892.354-2.134-.735-2.813-1.087-.68-2.56-.555-3.343.266m4.13-1.195c1.769 1.104 2.237 3.147 1.043 4.556-.393.464-1.19.546-1.772.182l-4.185-2.615c-.67.892-.358 2.134.732 2.814l2.039 1.273-.787.927-2.036-1.273c-1.766-1.103-2.234-3.147-1.04-4.555l.64-.758c1.193-1.408 3.6-1.655 5.366-.55m-11.756-10.205l-6.553 7.734-1.161-.726 6.553-7.734zm19.121 14.807c1.652 1.031 2.088 2.94.976 4.255l-2.95 3.48-1.164-.727 2.95-3.48c.682-.805.416-1.971-.596-2.602-1.008-.63-2.383-.49-3.063.315l-2.95 3.48-1.164-.727 2.95-3.48c1.115-1.315 3.362-1.545 5.011-.514m11.606 11.484l.325-.383c.68-.804.416-1.97-.595-2.602-1.008-.63-2.383-.49-3.063.315l-.325.383-.12.14-.482.571c-.683.805-.416 1.971.592 2.601 1.011.632 2.384.49 3.066-.314l.144-.168.341-.403.117-.14zm3.928-4.636l1.165.727-3.607 4.255-.322.382-.12.14-.342.404-.143.169c-1.115 1.315-3.362 1.545-5.014.513-1.649-1.03-2.084-2.939-.972-4.254l.484-.573.12-.14.322-.381c1.116-1.315 3.366-1.547 5.015-.516.69.43 1.167 1.014 1.408 1.643l2.006-2.37zm-7.59-4.743l-1.583 1.87 1.577.983-.787.926-1.577-.981-2.507 2.961c-.472.555-.29 1.358.406 1.793l.52.325-.787.928-.513-.321c-1.34-.837-1.695-2.386-.79-3.453l2.51-2.963-1.031-.645.784-.926 1.034.645 1.58-1.869 1.164.727z" fill="#181B1C"></path><path d="M548.203 360.861c2.719 6.336-2.526 13.044 1.698 18.493 1.411 1.822 3.528 3.031 4.81 4.948 1.8 2.697 1.843 6.605 4.487 8.49 2.592 1.85 6.328.718 9.239 2.012 2.413 1.071 3.899 3.646 6.312 4.716 3.245 1.438 6.949-.248 10.493-.395 5.408-.224 10.592 3.194 15.948 2.432 5.938-.846 9.976-6.444 15.44-8.914 2.029-.916 4.429-1.533 5.59-3.43 1.521-2.479.123-5.83 1.174-8.54 1.001-2.57 2.604-2.948 2.816-5.697.107-1.439-.313-2.789-.602-4.202-.29-1.413 2.657-2.981 3.275-6.009 2.67 7.73 6.549 49.753-42.756 48.584-13.382-.317-22.324-5.332-28.656-10.131-17.651-13.38-11.924-37.635-9.268-42.357" fill="#1A3877"></path><path d="M554.33 345.661l-4.556 10.573c-3.86 8.96-3.437 19.321 1.61 27.67 3.043 5.03 7.515 9.597 13.303 13.214.537.335 1.08.655 1.626.966.17.096.338.188.507.282a48.682 48.682 0 0 0 1.74.918c.416.207.833.407 1.252.601.15.07.3.143.449.212.566.256 1.138.5 1.71.734.111.045.225.086.335.13.469.185.937.364 1.408.535.192.069.384.135.576.202.41.142.82.278 1.232.41.192.06.384.122.576.18.481.147.966.286 1.45.417.111.03.222.063.332.092.592.156 1.187.3 1.782.433.163.037.325.068.485.103a50.6 50.6 0 0 0 1.935.374c.429.073.858.14 1.284.203.185.027.367.055.553.08.601.08 1.203.153 1.805.212l.035.002c.592.057 1.18.1 1.773.136.188.011.374.019.562.028.247.012.498.028.745.037.17.005.341.004.51.008a46.045 46.045 0 0 0 1.9.006c.204-.002.41-.003.611-.01a47.884 47.884 0 0 0 1.548-.069c.09-.004.179-.007.27-.013.601-.04 1.203-.092 1.798-.153.176-.019.348-.042.524-.062.426-.049.848-.101 1.274-.162.212-.03.423-.064.638-.097.387-.06.777-.126 1.16-.196.215-.04.43-.078.641-.12.407-.08.81-.168 1.213-.259.18-.04.361-.078.537-.12l.169-.038c.263-.063.52-.138.777-.206.312-.081.624-.16.93-.247.31-.087.611-.184.914-.278.306-.094.611-.185.914-.286.299-.1.595-.209.89-.314.303-.108.606-.213.901-.326.296-.113.583-.235.875-.354.293-.12.586-.237.875-.363.29-.126.572-.26.855-.392.286-.133.573-.263.855-.402.28-.138.55-.285.826-.428.28-.146.56-.289.836-.441.27-.15.534-.31.8-.466.27-.159.543-.314.81-.479.263-.163.52-.335.777-.505.26-.17.524-.337.78-.514.043-.03.092-.059.134-.09.13-.09.254-.192.384-.285.393-.283.787-.571 1.167-.87.198-.154.39-.313.585-.47a33.04 33.04 0 0 0 1.028-.873c.192-.168.38-.335.566-.507.348-.32.686-.65 1.02-.985.157-.156.316-.308.47-.467a34.87 34.87 0 0 0 1.388-1.533c.403-.475.78-.959 1.148-1.447l.283-.378c.334-.459.656-.922.962-1.39.023-.035.049-.068.068-.103a29.165 29.165 0 0 0 1.132-1.91c.25-.458.488-.92.712-1.385.03-.063.065-.126.095-.189a29.535 29.535 0 0 0 .835-1.971c.065-.171.137-.34.199-.513.11-.308.214-.619.315-.93l.059-.175c.169-.535.318-1.073.455-1.613.032-.128.065-.254.094-.381 0-.006.003-.011.003-.017.244-1.015.332-2.06.3-3.104l-.596-18.626c-.097.551-75.96 1.357-73.723-11.246" fill="#EA932A"></path><path d="M611.56 331.88c17.209 10.754 21.674 30.674 9.964 44.497-11.714 13.824-35.16 16.311-52.372 5.557-17.202-10.751-21.66-30.676-9.95-44.5 11.71-13.823 35.152-16.305 52.358-5.555" fill="#FFC255"></path><path d="M549.774 356.234c2.722 6.335-1.652 13.044 2.572 18.492 1.415 1.822 3.529 3.032 4.813 4.949 1.802 2.697 1.844 6.605 4.484 8.489 2.595 1.85 6.329.719 9.242 2.013 2.413 1.071 3.9 3.646 6.312 4.715 3.246 1.44 6.946-.247 10.494-.394 5.405-.225 10.588 3.194 15.944 2.431 5.938-.845 9.977-6.444 15.443-8.913 2.026-.916 4.426-1.533 5.59-3.43 1.519-2.479.12-5.83 1.174-8.54.999-2.57 2.602-2.948 2.813-5.698.11-1.438-.309-2.788-.602-4.202-.289-1.412-.5-2.605.118-5.633 2.67 7.731 11.075 47.066-39.599 48.21-13.378.301-22.32-5.333-28.652-10.133-17.651-13.378-12.8-37.635-10.146-42.356" fill="#F2F2F2"></path><path d="M593.85 380.401c1.324-.851 2.208-2.013 2.585-3.527.072-.288.101-.406.004-.472-.069-.046-.195-.067-.41-.103-2.68-.463-5.366-.92-8.049-1.384-.54-.088-1.08-.185-1.616-.272-2.205-.383-4.406-.755-6.617-1.143-.254-.04-.374-.002-.368.253.007.238-.02.47-.006.703.123 1.903 1.047 3.465 2.523 4.746.325.282.664.539 1.008.772 1.646 1.11 3.503 1.677 5.535 1.778 1.977.093 3.801-.317 5.411-1.351m-19.67-10.052c9.397 1.612 18.763 3.214 28.16 4.826.222-1.62.437-3.225.658-4.846-9.405-1.606-18.773-3.217-28.165-4.826l-.654 4.846m1.09-7.34c.11.074.237.12.397.149 8.74 1.49 17.488 2.99 26.236 4.485.439.08.923.27 1.307.166.416-.109.741-.484 1.083-.763 1.772-1.47 3.226-3.18 4.273-5.208.055-.108.084-.226.146-.392-3.33.064-6.598.12-9.899.18l.085-.106c2.774-2.383 3.772-5.504 3.72-9.058-.032-1.755-.432-3.456-1.073-5.131-.452-1.194-.969-2.378-1.29-3.596-.563-2.088-.645-4.16.46-6.062a.466.466 0 0 0-.344.088c-.666.437-1.2 1-1.655 1.634-1.597 2.226-2.387 4.79-3.047 7.396-.25.97-.446 1.952-.657 2.93-.03-1.141.01-2.271.02-3.403.02-1.003.107-2.015-.01-3.008-.153-1.258-.459-2.515-.738-3.765-.316-1.422-.703-2.828-1.025-4.244-.175-.792-.14-1.588.16-2.325.15-.366.377-.696.582-1.065l-.228-.008c-.556.014-1.03.22-1.447.526-1.372 1.005-2.195 2.365-2.595 3.966-.296 1.163-.485 2.357-.79 3.512a14.686 14.686 0 0 1-1.91 4.25c-.282.42-.617.809-.923 1.213-.048-1.092.026-2.034-.006-2.978-.04-1.321-.244-2.64-.846-3.874-.224-.461-.556-.892-.887-1.29a.956.956 0 0 0-.199-.171c-.153-.103-.335-.185-.49-.285l-.027.337c.14.776.101 1.542-.078 2.293-.276 1.15-.806 2.207-1.356 3.251-.868 1.638-1.769 3.266-2.572 4.941a10.487 10.487 0 0 0-1.067 4.558c-.003 2.171.618 4.204 1.812 6.111.032.058.055.117.13.252-2.976-1.144-5.864-2.264-8.758-3.379.056.58.17 1.09.312 1.59.609 2.153 1.727 4.098 2.934 6.007.078.121.162.21.26.276m45.051-.995c-2.103 15.64-17.137 25.976-33.735 23.188a32.871 32.871 0 0 1-12.744-5.122c-9.336-6.296-14.867-17.088-13.362-28.277 2.104-15.65 17.144-26.014 33.729-23.177a32.646 32.646 0 0 1 12.763 5.104c9.324 6.287 14.852 17.096 13.35 28.284" fill="#DA4E2A"></path><g transform="translate(341.773477, 419.469178)"><path d="M1.587.925c2.548.384 5.722.616 8.522-.243-1.82.576-3.801.97-5.55 2.062A7.771 7.771 0 0 0 2.79 4.23C1.77 5.373.89 7.485 0 9.78.87 7.293 1.739 3.988 1.587.925z" transform="translate(33.369587, 27.677007) scale(-1, 1) rotate(-180.000000) translate(-33.369587, -27.677007) translate(27.869587, 22.177007)" fill="url(#linearGradient-21)" fill-rule="nonzero"></path><path d="M0 2.81A37.202 37.202 0 0 1 3.598.906c.105.335.186.677.25 1.024a11.942 11.942 0 0 1 .186 1.59C2.307 3.257.859 2.927 0 2.81z" transform="translate(27.919379, 33.276589) scale(-1, 1) rotate(-180.000000) translate(-27.919379, -33.276589) translate(25.419379, 30.776589)" fill="url(#linearGradient-22)" fill-rule="nonzero"></path><path d="M5.92 11.464c1.887-1.194 4.155-2.268 6.59-2.865 2.555-.597 4.727-.716 6.66-.573.216.024.813.12 1.529.502.453.262.979.62 1.456 1.17a7.955 7.955 0 0 1 1.719 3.055 36.264 36.264 0 0 0-3.605 1.91c-1.6-.215-5.515-1.026-10.672-.74-.238.024-.453.048-.692.048-.095.024-.215.024-.31.024l-.669.071c-.12 0-.215.024-.334.024-2.865.335-4.846.931-6.064 1.433a6.226 6.226 0 0 0-.669.286l-.286.143c-.143.072-.263.144-.358.191L0 16.287c.12-.144 2.316-2.579 5.92-4.823z" transform="translate(17.137984, 35.118205) scale(-1, 1) rotate(-180.000000) translate(-17.137984, -35.118205) translate(5.137984, 22.618205)" fill="url(#linearGradient-23)" fill-rule="nonzero"></path><path d="M10.402 6.248C6.428 3.003.324 6.308 0 6.49l.223-.142c.081-.06.203-.122.345-.203l.304-.142c.182-.08.405-.182.669-.283 1.217-.487 3.183-1.095 6.063-1.42l.385-.04c.203-.02.385-.04.588-.04.122-.021.223-.021.345-.041.223-.02.446-.02.669-.041 5.15-.284 9.083.507 10.685.73-.162.081-.304.182-.507.304-7.218 4.522-7.705 9.55-7.644 11.618-.121-3.933 1.379-8.03-1.723-10.543z" transform="translate(15.637984, 27.323824) scale(-1, 1) rotate(-180.000000) translate(-15.637984, -27.323824) translate(5.137984, 16.823824)" fill="url(#linearGradient-24)" fill-rule="nonzero"></path><path d="M6.642 19.946c-.73-1.726.697-4.248 3.982-6.604.033 0 .066-.033.1-.066 1.692-1.161 6.172-3.484 13.936.1.166.1.332.166.498.265.365.763.896 2.157 1.593 3.75-2.489 1.825-5.74 2.887-8.296 3.517-1.228.232-2.522.531-3.783.73-.265.067-.564.1-.83.166-2.223.332-4.247.398-5.64-.265a2.865 2.865 0 0 1-1.328-1.095 3.349 3.349 0 0 1-.232-.498z" transform="translate(23.800309, 24.287931) scale(-1, 1) rotate(123.005038) translate(-23.800309, -24.287931) translate(6.800309, 7.287931)" fill="url(#linearGradient-25)" fill-rule="nonzero"></path><path d="M.429 6.966c0-.207-.028-.428-.042-.65C.36 6 .304 5.696.25 5.392A12.753 12.753 0 0 0 0 4.368c4.52-2.074 7.451-2.115 9.746-2.613.041 0 .069-.014.11-.028A9.289 9.289 0 0 0 12.898.47c.055-.027.11-.055.152-.083.138-.083.373-.235.511-.331.373-.222.29.359.07.774-.18.331-.388.663-.47.995-.084.36.082 1.05.096 1.272.055.663-.138 1.327-1.078 2.073-.208.152-.415.304-.636.443-.788.497-1.659.83-2.585 1.12-1.396.428-2.903.58-4.368.58-1.452 0-2.89-.152-4.161-.346zm9.939-3.552c-.332.207-.429.594-.194.87.222.263.678.305 1.01.097.345-.207.428-.594.207-.857-.138-.166-.346-.235-.567-.235a.906.906 0 0 0-.456.125z" transform="translate(36.017233, 35.231454) scale(-1, 1) rotate(-180.000000) translate(-36.017233, -35.231454) translate(29.017233, 31.231454)" fill="url(#linearGradient-26)" fill-rule="nonzero"></path><path d="M40.485 34.909c.413.258.523.736.244 1.065-.28.33-.84.386-1.255.128-.412-.258-.522-.735-.243-1.064.28-.33.841-.387 1.254-.13" fill="#FFF" fill-rule="nonzero"></path><path d="M2.983 6.828a5.567 5.567 0 0 0-1.47-1.15C.8 5.3.19 5.185 0 5.17c4.584.32 7.988 2.08 12.34 2.27a9.607 9.607 0 0 0 2.21-.175c-.028 0-.072.014-.101.014-2.299.495-5.238.553-9.75 2.605-.348-1.12-.901-2.154-1.716-3.056z" transform="translate(31.822319, 37.258151) scale(-1, 1) rotate(-180.000000) translate(-31.822319, -37.258151) translate(24.322319, 29.758151)" fill="url(#linearGradient-27)" fill-rule="nonzero"></path></g></g></g></g><path d="M38 795v-31.212c0-3.197 4.22-5.788 9.425-5.788h1104.15c5.206 0 9.425 2.591 9.425 5.788V795" fill="#CDD1D1"></path><path d="M681.36 782H517.64c-5.877 0-10.64-2.91-10.64-6.5s4.763-6.5 10.64-6.5h163.72c5.877 0 10.64 2.91 10.64 6.5s-4.763 6.5-10.64 6.5" fill="#B0B3B3"></path></g></svg>