<svg viewBox="0 0 628 863" xmlns="http://www.w3.org/2000/svg"><g fill="none" fill-rule="evenodd"><path stroke="#000" stroke-width="1.412" fill="#1F77B4" fill-rule="nonzero" d="M181.687 332.044v-21.179h55.066v21.179z"/><text fill="#000" font-family="sans-serif" font-size="8" transform="translate(181.687 310.865)"><tspan x="3.808" y="10.389">aws_elb</tspan></text><path stroke="#000" stroke-width="1.412" d="M181.687 353.223v-21.179h55.066v21.179z"/><text fill="#000" font-family="sans-serif" font-size="8" transform="translate(181.687 310.865)"><tspan x="17.365" y="31.568">web</tspan></text><path stroke="#000" stroke-width="1.412" fill="#1F77B4" fill-rule="nonzero" d="M269.228 433.704v-21.179h88.953v21.179z"/><text fill="#000" font-family="sans-serif" font-size="8" transform="translate(269.228 412.525)"><tspan x="3.806" y="10.389">aws_instance</tspan></text><path stroke="#000" stroke-width="1.412" d="M269.228 454.883v-21.179h88.953v21.179z"/><text fill="#000" font-family="sans-serif" font-size="8" transform="translate(269.228 412.525)"><tspan x="34.309" y="31.568">web</tspan></text><g stroke="#000" stroke-width="1.412"><path d="M234.88 357.698l41.252 40.137"/><path fill="#000" fill-rule="nonzero" d="M279.968 394.672l6.674 13.388-13.566-6.304z"/></g><path stroke="#000" stroke-width="1.412" fill="#AEC7E8" fill-rule="nonzero" d="M112.502 433.704v-21.179h129.899v21.179z"/><text fill="#000" font-family="sans-serif" font-size="8" transform="translate(112.502 412.525)"><tspan x="3.944" y="10.389">aws_security_group</tspan></text><path stroke="#000" stroke-width="1.412" d="M112.502 454.883v-21.179h129.899v21.179z"/><text fill="#000" font-family="sans-serif" font-size="8" transform="translate(112.502 412.525)"><tspan x="54.782" y="31.568">elb</tspan></text><g stroke="#000" stroke-width="1.412"><path d="M200.676 357.698l-11.087 36.283"/><path fill="#000" fill-rule="nonzero" d="M194.248 395.648l-8.853 12.059-.6-14.948z"/></g><path stroke="#000" stroke-width="1.412" fill="#1F77B4" fill-rule="nonzero" d="M527.615 535.365v-21.179h88.953v21.179z"/><text fill="#000" font-family="sans-serif" font-size="8" transform="translate(527.615 514.186)"><tspan x="3.806" y="10.389">aws_key_pair</tspan></text><path stroke="#000" stroke-width="1.412" d="M527.615 556.544v-21.179h88.953v21.179z"/><text fill="#000" font-family="sans-serif" font-size="8" transform="translate(527.615 514.186)"><tspan x="30.919" y="31.568">auth</tspan></text><g stroke="#000" stroke-width="1.412"><path d="M357.628 444.688c41.46 11.006 104.371 29.772 155.867 53.966a187.796 187.796 0 0 1 7.8 3.9"/><path fill="#000" fill-rule="nonzero" d="M524.328 498.592l9.846 11.263-14.72-2.665z"/></g><path stroke="#000" stroke-width="1.412" fill="#AEC7E8" fill-rule="nonzero" d="M370.888 535.365v-21.179h129.899v21.179z"/><text fill="#000" font-family="sans-serif" font-size="8" transform="translate(370.888 514.186)"><tspan x="3.944" y="10.389">aws_security_group</tspan></text><path stroke="#000" stroke-width="1.412" d="M370.888 556.544v-21.179h129.899v21.179z"/><text fill="#000" font-family="sans-serif" font-size="8" transform="translate(370.888 514.186)"><tspan x="41.225" y="31.568">default</tspan></text><g stroke="#000" stroke-width="1.412"><path d="M343.997 459.358l49.92 41.313"/><path fill="#000" fill-rule="nonzero" d="M397.124 496.911l7.727 12.809-14.028-5.195z"/></g><path stroke="#000" stroke-width="1.412" fill="#AEC7E8" fill-rule="nonzero" d="M269.228 535.365v-21.179h76.245v21.179z"/><text fill="#000" font-family="sans-serif" font-size="8" transform="translate(269.228 514.186)"><tspan x="4.23" y="10.389">aws_subnet</tspan></text><path stroke="#000" stroke-width="1.412" d="M269.228 556.544v-21.179h76.245v21.179z"/><text fill="#000" font-family="sans-serif" font-size="8" transform="translate(269.228 514.186)"><tspan x="14.398" y="31.568">default</tspan></text><g stroke="#000" stroke-width="1.412"><path d="M311.573 459.358l-1.993 35.884"/><path fill="#000" fill-rule="nonzero" d="M314.513 495.543l-5.718 13.824-4.151-14.372z"/></g><path stroke="#000" stroke-width="1.412" fill="#FFBB78" fill-rule="nonzero" d="M174.627 535.365v-21.179h62.126v21.179z"/><text fill="#000" font-family="sans-serif" font-size="8" transform="translate(174.627 514.186)"><tspan x="20.895" y="10.389">var</tspan></text><path stroke="#000" stroke-width="1.412" d="M174.627 556.544v-21.179h62.126v21.179z"/><text fill="#000" font-family="sans-serif" font-size="8" transform="translate(174.627 514.186)"><tspan x="3.949" y="31.568">aws_amis</tspan></text><g stroke="#000" stroke-width="1.412"><path d="M285.92 459.358l-42.783 40.53"/><path fill="#000" fill-rule="nonzero" d="M246.408 503.597l-13.648 6.123 6.851-13.298z"/></g><path stroke="#000" stroke-width="1.412" fill="#AEC7E8" fill-rule="nonzero" d="M.958 332.044v-21.179h144.019v21.179z"/><text fill="#000" font-family="sans-serif" font-size="8" transform="translate(.958 310.865)"><tspan x="4.225" y="10.389">aws_internet_gateway</tspan></text><path stroke="#000" stroke-width="1.412" d="M.958 353.223v-21.179h144.019v21.179z"/><text fill="#000" font-family="sans-serif" font-size="8" transform="translate(.958 310.865)"><tspan x="48.285" y="31.568">default</tspan></text><path stroke="#000" stroke-width="1.412" fill="#AEC7E8" fill-rule="nonzero" d="M280.524 637.025v-21.179h55.066v21.179z"/><text fill="#000" font-family="sans-serif" font-size="8" transform="translate(280.524 615.846)"><tspan x="3.808" y="10.389">aws_vpc</tspan></text><path stroke="#000" stroke-width="1.412" d="M280.524 658.204v-21.179h55.066v21.179z"/><text fill="#000" font-family="sans-serif" font-size="8" transform="translate(280.524 615.846)"><tspan x="3.808" y="31.568">default</tspan></text><g stroke="#000" stroke-width="1.412"><path d="M72.042 357.524c-.328 48.39 6.024 154.138 63.05 214.552 31.515 33.387 81.9 49.756 120.055 57.693"/><path fill="#000" fill-rule="nonzero" d="M256.155 624.93l12.952 7.486-14.793 2.225z"/></g><path stroke="#000" stroke-width="1.412" fill="#FF7F0E" fill-rule="nonzero" d="M338.414 738.685v-21.179h62.126v21.179z"/><text fill="#000" font-family="sans-serif" font-size="8" transform="translate(338.414 717.506)"><tspan x="3.949" y="10.389">provider</tspan></text><path stroke="#000" stroke-width="1.412" d="M338.414 759.864v-21.179h62.126v21.179z"/><text fill="#000" font-family="sans-serif" font-size="8" transform="translate(338.414 717.506)"><tspan x="20.895" y="31.568">aws</tspan></text><g stroke="#000" stroke-width="1.412"><path d="M541.447 561.368c-13.14 11.665-28.605 25.747-42.07 38.947-34.276 33.598-71.602 73.76-97.41 102.14"/><path fill="#000" fill-rule="nonzero" d="M405.474 705.944l-13.142 7.146 5.817-13.782z"/></g><g><path stroke="#000" stroke-width="1.412" fill="#FFBB78" fill-rule="nonzero" d="M540.322 637.025v-21.179h62.126v21.179z"/><text fill="#000" font-family="sans-serif" font-size="8" transform="translate(540.322 615.846)"><tspan x="20.895" y="10.389">var</tspan></text><path stroke="#000" stroke-width="1.412" d="M540.322 658.204v-21.179h62.126v21.179z"/><text fill="#000" font-family="sans-serif" font-size="8" transform="translate(540.322 615.846)"><tspan x="3.949" y="31.568">key_name</tspan></text></g><g stroke="#000" stroke-width="1.412"><path d="M571.385 561.018v35.884"/><path fill="#000" fill-rule="nonzero" d="M576.327 596.907l-4.942 14.12-4.942-14.12z"/></g><g><path stroke="#000" stroke-width="1.412" fill="#AEC7E8" fill-rule="nonzero" d="M34.844 230.383v-21.179h110.132v21.179z"/><text fill="#000" font-family="sans-serif" font-size="8" transform="translate(34.844 209.204)"><tspan x="24.563" y="10.389">aws_route</tspan></text><path stroke="#000" stroke-width="1.412" d="M34.844 251.562v-21.179h110.132v21.179z"/><text fill="#000" font-family="sans-serif" font-size="8" transform="translate(34.844 209.204)"><tspan x="4.228" y="31.568">internet_access</tspan></text></g><g stroke="#000" stroke-width="1.412"><path d="M85.635 256.037l-5.98 35.884"/><path fill="#000" fill-rule="nonzero" d="M84.496 292.931L77.3 306.046l-2.553-14.74z"/></g><g stroke="#000" stroke-width="1.412"><path d="M403.416 561.018l-52.215 41.313"/><path fill="#000" fill-rule="nonzero" d="M353.903 606.495l-14.139 4.885 8.006-12.636z"/></g><g stroke="#000" stroke-width="1.412"><path d="M162.026 459.398c-15.548 29.585-34.238 78.495-11.401 112.678 23.008 34.44 68.03 50.642 103.939 58.25"/><path fill="#000" fill-rule="nonzero" d="M255.844 625.538l12.962 7.469-14.79 2.244z"/></g><g stroke="#000" stroke-width="1.412"><path d="M307.351 561.018v35.884"/><path fill="#000" fill-rule="nonzero" d="M312.293 596.907l-4.942 14.12-4.942-14.12z"/></g><g stroke="#000" stroke-width="1.412"><path d="M323.028 662.678l23.141 37.868"/><path fill="#000" fill-rule="nonzero" d="M350.442 698.062l3.146 14.625-11.579-9.471z"/></g><g><path stroke="#000" stroke-width="1.412" fill="#FFBB78" fill-rule="nonzero" d="M331.354 840.346v-21.179h76.245v21.179z"/><text fill="#000" font-family="sans-serif" font-size="8" transform="translate(331.354 819.167)"><tspan x="27.955" y="10.389">var</tspan></text><path stroke="#000" stroke-width="1.412" d="M331.354 861.525v-21.179h76.245v21.179z"/><text fill="#000" font-family="sans-serif" font-size="8" transform="translate(331.354 819.167)"><tspan x="4.23" y="31.568">aws_region</tspan></text></g><g stroke="#000" stroke-width="1.412"><path d="M369.477 764.338v35.884"/><path fill="#000" fill-rule="nonzero" d="M374.419 800.227l-4.942 14.12-4.942-14.12z"/></g><g><path stroke="#000" stroke-width="1.412" fill="#FF7F0E" fill-rule="nonzero" d="M143.564 128.723v-21.179h103.072v21.179z"/><text fill="#000" font-family="sans-serif" font-size="8" transform="translate(143.564 107.544)"><tspan x="37.979" y="10.389">meta</tspan></text><path stroke="#000" stroke-width="1.412" d="M143.564 149.902v-21.179h103.072v21.179z"/><text fill="#000" font-family="sans-serif" font-size="8" transform="translate(143.564 107.544)"><tspan x="4.087" y="31.568">count-boundary</tspan></text></g><g stroke="#000" stroke-width="1.412"><path d="M168.028 154.376l-41.251 40.137"/><path fill="#000" fill-rule="nonzero" d="M129.833 198.434l-13.566 6.304 6.674-13.388z"/></g><g><path stroke="#000" stroke-width="1.412" fill="#2CA02C" fill-rule="nonzero" d="M181.687 230.383v-21.179h55.066v21.179z"/><text fill="#000" font-family="sans-serif" font-size="8" transform="translate(181.687 209.204)"><tspan x="7.198" y="10.389">output</tspan></text><path stroke="#000" stroke-width="1.412" d="M181.687 251.562v-21.179h55.066v21.179z"/><text fill="#000" font-family="sans-serif" font-size="8" transform="translate(181.687 209.204)"><tspan x="3.808" y="31.568">address</tspan></text></g><g stroke="#000" stroke-width="1.412"><path d="M197.958 154.376l4.984 35.884"/><path fill="#000" fill-rule="nonzero" d="M207.856 189.72l-2.952 14.665-6.838-13.306z"/></g><g><path stroke="#000" stroke-width="1.412" fill="#FF7F0E" fill-rule="nonzero" d="M47.552 128.723v-21.179h62.126v21.179z"/><text fill="#000" font-family="sans-serif" font-size="8" transform="translate(47.552 107.544)"><tspan x="3.949" y="10.389">provider</tspan></text><path stroke="#000" stroke-width="1.412" d="M47.552 149.902v-21.179h62.126v21.179z"/><text fill="#000" font-family="sans-serif" font-size="8" transform="translate(47.552 107.544)"><tspan x="20.895" y="31.568">aws</tspan></text></g><g stroke="#000" stroke-width="1.412"><path d="M48.882 154.208c-10.56 10.943-21.196 24.629-26.744 39.465-11.43 30.564-19.58 47.316 0 73.421 35.151 46.869 71.89 20.715 134.165 39.953"/><path fill="#000" fill-rule="nonzero" d="M158.322 302.519l11.666 9.365-14.959-.046z"/></g><g stroke="#000" stroke-width="1.412"><path d="M81.465 154.376l3.988 35.884"/><path fill="#000" fill-rule="nonzero" d="M90.374 189.806l-3.352 14.579-6.471-13.488z"/></g><g><path stroke="#000" stroke-width="1.412" fill="#98DF8A" fill-rule="nonzero" d="M272.052 128.723v-21.179h81.893v21.179z"/><text fill="#000" font-family="sans-serif" font-size="8" transform="translate(272.052 107.544)"><tspan x="3.665" y="10.389">provisioner</tspan></text><path stroke="#000" stroke-width="1.412" d="M272.052 149.902v-21.179h81.893v21.179z"/><text fill="#000" font-family="sans-serif" font-size="8" transform="translate(272.052 107.544)"><tspan x="3.665" y="31.568">remote-exec</tspan></text></g><g stroke="#000" stroke-width="1.412"><path d="M312.998 154.201v239.39"/><path fill="#000" fill-rule="nonzero" d="M317.94 393.965l-4.942 14.119-4.942-14.119z"/></g><g><path stroke="#000" stroke-width="1.412" fill="#FF7F0E" fill-rule="nonzero" d="M242.837 1.648h-96.885v50.83h96.885z"/><text fill="#000" font-family="sans-serif" font-size="8" transform="translate(144.976 1.648)"><tspan x="12.002" y="25.17">[root] root</tspan></text></g><g stroke="#000" stroke-width="1.412"><path d="M194.395 52.716V88.6"/><path fill="#000" fill-rule="nonzero" d="M199.337 88.605l-4.942 14.12-4.942-14.12z"/></g><g stroke="#000" stroke-width="1.412"><path d="M165.179 52.716l-46.606 40.922"/><path fill="#000" fill-rule="nonzero" d="M121.692 97.476l-13.87 5.602 7.349-13.029z"/></g><g stroke="#000" stroke-width="1.412"><path d="M224.324 52.716l47.742 40.922"/><path fill="#000" fill-rule="nonzero" d="M275.575 90.137l7.505 12.941-13.937-5.437z"/></g><g><path stroke="#000" stroke-width="1.412" fill="#FFBB78" fill-rule="nonzero" d="M516.32 738.685v-21.179h110.132v21.179z"/><text fill="#000" font-family="sans-serif" font-size="8" transform="translate(516.32 717.506)"><tspan x="44.898" y="10.389">var</tspan></text><path stroke="#000" stroke-width="1.412" d="M516.32 759.864v-21.179h110.132v21.179z"/><text fill="#000" font-family="sans-serif" font-size="8" transform="translate(516.32 717.506)"><tspan x="4.228" y="31.568">public_key_path</tspan></text></g><g stroke="#000" stroke-dasharray="7.06 2.824" stroke-width="1.412"><path d="M571.385 662.678v50.009"/></g><g stroke="#000" stroke-width="1.412"><path d="M208.514 256.037v35.884"/><path fill="#000" fill-rule="nonzero" d="M213.456 291.926l-4.942 14.12-4.942-14.12z"/></g></g></svg>