<svg viewBox="0 0 750 750" xmlns="http://www.w3.org/2000/svg"><g stroke="none" stroke-width="1" fill="none" fill-rule="evenodd"><g transform="translate(237 41)"><g transform="translate(89.534 246.373)"><path stroke="#000" stroke-width="1.676" fill="#1F77B4" fill-rule="nonzero" d="M0 25.138V0h98.877v25.138z"/><text font-family="sans-serif" font-size="8" font-weight="normal" fill="#000"><tspan x="5.028" y="11.022">azurerm_lb</tspan></text><path stroke="#000" stroke-width="1.676" d="M0 50.276V25.138h98.877v25.138z"/><text fill="#1F77B4" font-family="sans-serif" font-size="8" font-weight="normal"><tspan x="31.004" y="36.16">test</tspan></text></g><g transform="translate(57.692 367.037)"><path stroke="#000" stroke-width="1.676" fill="#AEC7E8" fill-rule="nonzero" d="M0 25.138V0h160.885v25.138z"/><text font-family="sans-serif" font-size="8" font-weight="normal" fill="#000"><tspan x="5.028" y="11.022">azurerm_public_ip</tspan></text><path stroke="#000" stroke-width="1.676" d="M0 50.276V25.138h160.885v25.138z"/><text fill="#AEC7E8" font-family="sans-serif" font-size="8" font-weight="normal"><tspan x="62.008" y="36.16">test</tspan></text></g><g transform="translate(131.43 301.677)" stroke="#000" stroke-width="1.676"><path d="M6.704.508v42.877"/><path fill="#000" fill-rule="nonzero" d="M12.569 43.399L6.704 60.157.838 43.399z"/></g><g transform="translate(35.905 487.7)"><path stroke="#000" stroke-width="1.676" fill="#FF7F0E" fill-rule="nonzero" d="M0 25.138V0h204.458v25.138z"/><text font-family="sans-serif" font-size="8" font-weight="normal" fill="#000"><tspan x="5.028" y="11.022">azurerm_resource_group</tspan></text><path stroke="#000" stroke-width="1.676" d="M0 50.276V25.138h204.458v25.138z"/><text fill="#FF7F0E" font-family="sans-serif" font-size="8" font-weight="normal"><tspan x="83.794" y="36.16">test</tspan></text></g><g transform="translate(131.43 422.34)" stroke="#000" stroke-width="1.676"><path d="M6.704.508v42.877"/><path fill="#000" fill-rule="nonzero" d="M12.569 43.399L6.704 60.157.838 43.399z"/></g><g transform="translate(97.913 608.364)"><path stroke="#000" stroke-width="1.676" fill="#FFBB78" fill-rule="nonzero" d="M0 25.138V0h82.118v25.138z"/><text font-family="sans-serif" font-size="8" font-weight="normal" fill="#000"><tspan x="5.028" y="11.022">provider</tspan></text><path stroke="#000" stroke-width="1.676" d="M0 50.276V25.138h82.118v25.138z"/><text fill="#FFBB78" font-family="sans-serif" font-size="8" font-weight="normal"><tspan x="10.055" y="36.16">azurerm</tspan></text></g><g transform="translate(131.43 543.004)" stroke="#000" stroke-width="1.676"><path d="M6.704.508v42.877"/><path fill="#000" fill-rule="nonzero" d="M12.569 43.398L6.704 60.157.838 43.398z"/></g><g transform="translate(.712 125.71)"><path stroke="#000" stroke-width="1.676" fill="#FFBB78" fill-rule="nonzero" d="M0 25.138V0h134.071v25.138z"/><path stroke="#000" stroke-width="1.676" d="M0 50.276V25.138h134.071v25.138z"/><text fill="#FFBB78" font-family="sans-serif" font-size="8" font-weight="normal"><tspan x="5.028" y="36.16">count-boundary</tspan></text><text font-family="sans-serif" font-size="8" font-weight="normal" fill="#000"><tspan x="48.601" y="11.022">meta</tspan></text></g><g transform="translate(84.506 181.014)" stroke="#000" stroke-width="1.676"><path d="M.64.508L27.785 45.75"/><path fill="#000" fill-rule="nonzero" d="M32.837 42.769l3.592 17.388-13.652-11.354z"/></g><g transform="translate(169.976 125.71)"><path stroke="#000" stroke-width="1.676" fill="#FFBB78" fill-rule="nonzero" d="M0 25.138V0h82.118v25.138z"/><text font-family="sans-serif" font-size="8" font-weight="normal" fill="#000"><tspan x="5.028" y="11.022">provider</tspan></text><path stroke="#000" stroke-width="1.676" d="M0 50.276V25.138h82.118v25.138z"/><text fill="#FFBB78" font-family="sans-serif" font-size="8" font-weight="normal"><tspan x="10.055" y="36.16">azurerm</tspan></text></g><g transform="translate(154.893 181.014)" stroke="#000" stroke-width="1.676"><path d="M37.491.508L9.7 45.75"/><path fill="#000" fill-rule="nonzero" d="M14.619 48.948L.85 60.157l3.774-17.35z"/></g><g transform="translate(76.127 .018)"><path stroke="#000" stroke-width="1.676" fill="#FFBB78" fill-rule="nonzero" d="M124.015 0H0v60.332h124.015z"/><text font-family="sans-serif" font-size="8" font-weight="normal" fill="#000"><tspan x="17.597" y="28.619">[root] root</tspan></text></g><g transform="translate(84.506 60.35)" stroke="#000" stroke-width="1.676"><path d="M36.23.508C28.045 14.146 18.121 30.688 9.084 45.75"/><path fill="#000" fill-rule="nonzero" d="M14.092 48.803L.44 60.157l3.593-17.388z"/></g><g transform="translate(154.893 60.35)" stroke="#000" stroke-width="1.676"><path d="M1.054.508L28.845 45.75"/><path fill="#000" fill-rule="nonzero" d="M33.922 42.807l3.774 17.35-13.769-11.209z"/></g></g></g></svg>