<svg viewBox="0 0 350 350" xmlns="http://www.w3.org/2000/svg"><g transform="translate(49 26)" fill="none"><path d="M.906 221.188c.143-.102 170.127 38.69 170.127 38.69v7.381l-47.004 26.465a8.967 8.967 0 0 1-8.97-.026L2.761 228.258a4.164 4.164 0 0 1-2.068-3.616l.213-3.454z" fill="#C6DEF2"></path><path d="M171.035 259.879L48.63 188.449 2.473 217.995c-2.239 1.284-2.248 4.51-.016 5.807l114.28 66.556a7.089 7.089 0 0 0 7.09.02l47.208-30.5z" fill="#D8ECFC"></path><path d="M130.19 251.511l5.422 3.147c2.3-1.45 3.463-2.189 5.824-3.702l-5.448-3.127a893.974 893.974 0 0 1-5.798 3.682m-8.005-4.645l5.422 3.147a955.812 955.812 0 0 0 5.787-3.672l-5.447-3.127a1124.443 1124.443 0 0 1-5.762 3.652m-8.006-4.646l5.422 3.147c2.276-1.434 3.424-2.16 5.75-3.642l-5.447-3.127c-2.315 1.47-3.458 2.193-5.725 3.622m-7.999-4.646c2.168 1.26 3.253 1.888 5.422 3.147 2.263-1.426 3.405-2.146 5.713-3.612l-5.448-3.127a2388.452 2388.452 0 0 1-5.687 3.592m-8.006-4.647l5.423 3.149c2.251-1.42 3.386-2.134 5.676-3.582l-5.449-3.128c-2.278 1.438-3.406 2.15-5.65 3.561m-8.006-4.645c2.169 1.259 3.254 1.888 5.422 3.148l5.64-3.552-5.45-3.128a9239.4 9239.4 0 0 0-5.612 3.532m-8.005-4.646l5.423 3.148c2.227-1.402 3.346-2.106 5.601-3.522-2.18-1.25-3.268-1.876-5.448-3.127a3068.173 3068.173 0 0 0-5.576 3.501m-7.999-4.646c2.168 1.26 3.253 1.889 5.422 3.148 2.215-1.393 3.328-2.091 5.565-3.491l-5.447-3.128a1515.073 1515.073 0 0 0-5.54 3.47m-8.006-4.644l5.423 3.148c2.202-1.385 3.307-2.078 5.527-3.461l-5.448-3.128a1085.94 1085.94 0 0 0-5.502 3.441m-8.006-4.646l5.423 3.147a960.359 960.359 0 0 1 5.49-3.43l-5.448-3.129a793.918 793.918 0 0 0-5.465 3.411m-8.006-4.646l5.422 3.147a745.708 745.708 0 0 1 5.453-3.4l-5.447-3.129a656.565 656.565 0 0 0-5.428 3.381m-7.999-4.643l5.422 3.147a599.946 599.946 0 0 1 5.416-3.37l-5.448-3.129a533.965 533.965 0 0 0-5.39 3.351m80.121 56.064l5.403 3.157a1609.18 1609.18 0 0 0 5.629-3.517l-5.414-3.152c-2.27 1.426-3.393 2.126-5.618 3.512m-7.971-4.659l5.403 3.158c2.222-1.387 3.344-2.087 5.611-3.51l-5.414-3.155a2112.28 2112.28 0 0 1-5.6 3.507m-7.977-4.658l5.403 3.156c2.218-1.386 3.335-2.086 5.592-3.504-2.166-1.26-3.25-1.89-5.415-3.152-2.25 1.415-3.365 2.113-5.58 3.5m-7.972-4.659l5.403 3.156c2.213-1.386 3.327-2.085 5.575-3.498-2.168-1.26-3.25-1.89-5.416-3.152-2.24 1.41-3.352 2.107-5.562 3.494m-7.978-4.66l5.403 3.156c2.208-1.386 3.32-2.083 5.556-3.49l-5.416-3.154-5.543 3.488m-7.97-4.659l5.403 3.157 5.538-3.485-5.415-3.152-5.526 3.48m-7.978-4.66l5.403 3.157 5.52-3.479-5.416-3.152-5.507 3.474m-7.972-4.658l5.403 3.156c2.195-1.386 3.293-2.08 5.5-3.472l-5.413-3.152a3839.102 3839.102 0 0 0-5.49 3.468m-7.977-4.66l5.403 3.156c2.19-1.386 3.286-2.08 5.483-3.465l-5.416-3.152a2198.171 2198.171 0 0 0-5.47 3.46m-7.971-4.658l5.403 3.157a1995.92 1995.92 0 0 1 5.464-3.459l-5.415-3.152c-2.18 1.377-3.27 2.068-5.452 3.455m-7.978-4.66l5.403 3.157c2.18-1.387 3.268-2.079 5.446-3.453l-5.415-3.152a1441.531 1441.531 0 0 0-5.434 3.448" fill="#084478"></path><path d="M34.553 205.221l9.058 5.292c2.178-1.386 3.264-2.077 5.436-3.449l-9.079-5.284c-2.16 1.365-3.242 2.055-5.415 3.441m76.435 53.97l8.967 5.231 5.477-3.402-8.967-5.24c-2.208 1.375-3.302 2.055-5.477 3.411" fill="#084478"></path><path d="M106.591 256.622l5.4 3.15c2.175-1.356 3.268-2.035 5.477-3.411l-5.4-3.156-5.477 3.418m-7.971-4.651l5.4 3.15 5.476-3.418-5.4-3.156-5.476 3.424m-7.97-4.65l5.4 3.15 5.476-3.427-5.4-3.156-5.476 3.433m-7.972-4.65l5.4 3.15 5.475-3.434-5.4-3.156-5.475 3.44m-7.971-4.652l5.4 3.15 5.474-3.442-5.4-3.156-5.474 3.449m-7.971-4.65l5.4 3.15 5.475-3.451-5.4-3.156-5.475 3.458m-7.971-4.652l5.4 3.15c2.19-1.381 3.283-2.074 5.474-3.458l-5.4-3.157c-2.19 1.388-3.284 2.08-5.474 3.465m-7.971-4.649l5.4 3.15c2.192-1.387 3.285-2.08 5.474-3.467l-5.4-3.156c-2.187 1.388-3.281 2.083-5.474 3.473m-7.971-4.651l5.4 3.15c2.193-1.391 3.287-2.087 5.473-3.475l-5.4-3.156c-2.185 1.39-3.279 2.088-5.473 3.481m-7.971-4.649l5.4 3.15c2.195-1.396 3.29-2.094 5.472-3.484l-5.399-3.156c-2.181 1.392-3.275 2.09-5.473 3.49m-7.971-4.65l5.4 3.15c2.198-1.401 3.291-2.1 5.472-3.493l-5.4-3.155c-2.178 1.393-3.272 2.093-5.472 3.498m80.114 55.883l5.413 3.136c2.134-1.343 3.207-2.012 5.367-3.358l-5.402-3.147c-2.164 1.35-3.238 2.021-5.378 3.369m-7.992-4.631l5.413 3.138c2.143-1.35 3.219-2.022 5.382-3.373l-5.401-3.147c-2.167 1.354-3.245 2.03-5.394 3.382m-7.991-4.633l5.414 3.138c2.15-1.354 3.23-2.03 5.398-3.386-2.16-1.259-3.24-1.889-5.402-3.147-2.17 1.36-3.25 2.037-5.41 3.395m-7.992-4.631l5.414 3.138c2.161-1.36 3.243-2.038 5.416-3.4-2.162-1.258-3.242-1.888-5.402-3.147-2.176 1.365-3.26 2.045-5.428 3.41m-7.985-4.633l5.414 3.138c2.17-1.365 3.255-2.047 5.432-3.413l-5.402-3.147-5.444 3.422m-7.992-4.632l5.415 3.139 5.448-3.427-5.402-3.148-5.461 3.435m-7.993-4.63l5.414 3.138c2.188-1.375 3.28-2.064 5.465-3.44l-5.402-3.147c-2.188 1.38-3.283 2.07-5.477 3.45m-7.991-4.633l5.414 3.137a2860.95 2860.95 0 0 0 5.483-3.453l-5.403-3.147c-2.193 1.385-3.29 2.077-5.494 3.463m-7.992-4.632l5.414 3.138c2.206-1.386 3.305-2.08 5.499-3.467l-5.403-3.148a1598.737 1598.737 0 0 1-5.51 3.477m-7.985-4.632l5.413 3.138c2.215-1.393 3.317-2.09 5.517-3.481l-5.403-3.147a1367.558 1367.558 0 0 1-5.527 3.49m-11.448-6.633l8.865 5.139a1309.33 1309.33 0 0 0 5.533-3.495l-8.847-5.154a990.084 990.084 0 0 1-5.551 3.51" fill="#084478"></path><path d="M19.098 215.055l5.413 3.138c2.234-1.403 3.342-2.106 5.55-3.508l-5.403-3.147c-2.21 1.405-3.32 2.11-5.56 3.517m79.39 56.368l5.447 3.127a536.305 536.305 0 0 1 5.29-3.397l-5.423-3.133a628.998 628.998 0 0 0-5.314 3.403m-8.041-4.616l5.447 3.126a694.603 694.603 0 0 1 5.326-3.405l-5.424-3.132a802.508 802.508 0 0 0-5.349 3.41m-8.041-4.614c2.18 1.25 3.269 1.876 5.448 3.127a933.557 933.557 0 0 1 5.36-3.414l-5.423-3.133c-2.155 1.362-3.23 2.045-5.385 3.42m-48.244-27.695c15.218 8.736 30.437 17.47 45.654 26.206a1383.03 1383.03 0 0 1 5.396-3.422l-45.456-26.255a905.321 905.321 0 0 1-5.594 3.471m-8.04-4.615c2.18 1.25 3.269 1.876 5.448 3.127a795.037 795.037 0 0 0 5.605-3.474l-5.423-3.133a700.022 700.022 0 0 1-5.63 3.48m-8.041-4.616l5.447 3.127a650.03 650.03 0 0 0 5.641-3.483l-5.423-3.132a581.145 581.145 0 0 1-5.665 3.488m-8.041-4.615l5.447 3.128a539.81 539.81 0 0 0 5.676-3.49l-5.423-3.134c-2.26 1.403-3.4 2.104-5.7 3.496m128.045 35.248l5.422 3.147c2.276-1.434 3.424-2.16 5.75-3.642l-5.447-3.127a1425.66 1425.66 0 0 1-5.725 3.622m-7.86 4.934l5.403 3.156c2.218-1.386 3.335-2.086 5.592-3.504l-5.415-3.152c-2.25 1.415-3.365 2.113-5.58 3.5m-7.699 4.818l5.4 3.15 5.476-3.418-5.4-3.156-5.476 3.424m-7.608 4.769l5.414 3.138c2.15-1.354 3.23-2.03 5.4-3.386l-5.404-3.147c-2.17 1.36-3.25 2.037-5.41 3.395m-8.606 5.452l5.447 3.127a933.558 933.558 0 0 1 5.36-3.414l-5.422-3.133a1117.75 1117.75 0 0 0-5.385 3.42m39.639-15.676l5.422 3.147c2.277-1.434 3.425-2.16 5.75-3.642l-5.446-3.127a1425.66 1425.66 0 0 1-5.726 3.622m-7.859 4.933l5.403 3.157c2.218-1.386 3.335-2.086 5.593-3.504l-5.416-3.152c-2.25 1.415-3.364 2.112-5.58 3.5m-7.699 4.818l5.4 3.15 5.476-3.418-5.4-3.156-5.476 3.424m-7.609 4.769l5.414 3.138c2.151-1.354 3.23-2.03 5.4-3.386a18573.36 18573.36 0 0 1-5.404-3.147c-2.17 1.36-3.25 2.037-5.41 3.395m-8.605 5.451l5.447 3.127a958.436 958.436 0 0 1 5.36-3.414l-5.422-3.133a1178.53 1178.53 0 0 0-5.385 3.42" fill="#084478"></path><path d="M97.45 205.236c.073-.052 23.153-11.29 45.579-22.205 11.156 7.199 22.83 13.602 34.538 19.949 3.548 2.324 7.098 4.646 10.654 6.956l-42.234 24.4a8.95 8.95 0 0 1-8.955.001s-23.334-13.723-37.71-22.046a4.16 4.16 0 0 1-2.075-3.606l.203-3.449z" fill="#D8ECFC"></path><path d="M99.01 202.043l38.846-22.441c12.705 8.64 26.21 16.057 39.756 23.4 2.598 1.701 5.196 3.404 7.797 5.1l-39.628 22.894a7.077 7.077 0 0 1-7.079 0L99.01 207.843c-2.23-1.29-2.23-4.51 0-5.8" fill="#B1D0E5"></path><path d="M213.176 229.678l-8.232 6.273L54.822 8.816c-.005-2.343 2.328-5.082 4.691-6.295 3.682-1.89 8.09-1.709 11.683.349l137.453 78.506a12.556 12.556 0 0 1 6.319 10.866l.322 133.152a5.367 5.367 0 0 1-2.114 4.283" fill="#C6DEF2"></path><path d="M199.157 235.887l-135.95-78.01a16.1 16.1 0 0 1-8.087-13.927L54.824 8.816c-.01-3.616 3.9-5.89 7.04-4.09l141.502 81.027a9.925 9.925 0 0 1 4.994 8.588l.299 136.033c.01 4.88-5.268 7.943-9.502 5.513" fill="#D8ECFC"></path><path d="M55.1 130.293L54.82 8.817c-.01-3.616 3.9-5.888 7.04-4.09l141.503 81.026a9.924 9.924 0 0 1 4.994 8.587l.29 125.713L55.1 130.294z" fill="#084478"></path><path d="M126.1 186.848c2.091-.236 3.539-2.626 3.233-5.339-.307-2.711-2.25-4.72-4.341-4.484-2.091.236-3.539 2.626-3.232 5.339.307 2.713 2.25 4.72 4.34 4.485" fill="#FFF"></path><path d="M61.124 11.973l140.48 80.632.312 113.115-140.773-82.009z" fill="#EEF8FF"></path><path d="M195.304 201.858c-3.935-11.528-8.622-22.836-13.297-34.092-1.1-2.648-2.211-5.318-3.82-7.694-3.545-5.237-9.524-8.753-15.827-9.307-1.897-.166-3.825-.082-5.684-.495-5.124-1.143-8.738-5.897-10.43-10.865-1.693-4.967-1.904-10.3-2.883-15.456-3.555-18.733-16.843-33.906-29.69-48-1.78-1.951-3.749-4.011-6.345-4.503-2.596-.49-5.767 1.556-5.31 4.157-6.865 7.466-15.917 11.567-24.91 16.258a1168.659 1168.659 0 0 1-15.977 8.189v23.673l134.173 78.135z" fill="#D8ECFC"></path><path d="M216.966 279.526c-.968-.204-1.966-.242-2.953-.192-.988.052-1.975.177-2.942.388-1.937.423-3.808 1.116-5.588 1.985-.442.225-.873.468-1.31.7-.216.121-.44.23-.65.361l-.628.396c-.418.267-.844.52-1.253.8l-1.203.871c-1.594 1.177-3.078 2.495-4.559 3.8l-4.415 3.958c-.733.657-1.459 1.344-2.18 2.004a9.793 9.793 0 0 1-2.506 1.52c-1.806.754-3.848.986-5.769.55-1.933-.396-3.718-1.33-5.323-2.478 1.584 1.176 3.356 2.147 5.3 2.582 1.94.455 4.01.233 5.849-.521a9.962 9.962 0 0 0 2.555-1.527l2.196-1.995 4.438-3.93c1.475-1.317 2.944-2.637 4.522-3.818l1.192-.875c.406-.28.828-.535 1.241-.803l.623-.398c.209-.132.43-.241.645-.362.433-.235.861-.48 1.299-.707 1.766-.874 3.624-1.573 5.547-2.009.958-.228 1.938-.37 2.922-.439.983-.067 1.979-.049 2.95.139" fill="#FFF"></path><path d="M210.31 275.24a356.764 356.764 0 0 1 6.653 4.286 3.526 3.526 0 0 1-1.63 2.973l-20.027 12.796c-2.665 1.703-5.786 2.592-8.945 2.445-1.632-.076-3.534-.357-5.672-.989l7.214-10.257a33.03 33.03 0 0 1 15.493-11.951 7.875 7.875 0 0 1 6.915.697" fill="#C6DEF2"></path><path d="M216.966 279.526s-8.229-2.092-19.103 7.502c-7.513 6.63-8.149 7.298-8.149 7.298s-5.837 6.002-14.025-.137c0 0-4.094-2.728-4.777-3.41-.681-.682-2.729-5.456 10.235-16.368 12.963-10.913 23.197-5.456 23.197-5.456s15.01 7.502 12.622 10.571" fill="#D8ECFC"></path><path d="M186.789 134.915c7.647 4.414 13.847 15.149 13.822 23.932-.024 8.784-6.265 12.34-13.912 7.925-7.647-4.413-13.855-15.151-13.83-23.935.026-8.784 6.273-12.334 13.92-7.921" fill="#084478"></path><path d="M30.769 139.563c1.526 3.504 3.37 8.1 7.17 8.526 3.716.415 6.14-1.056 8.093-1.136 1.444-.06.883 1.572 1.988.64 1.464-1.236 1.845-3.317 1.974-5.228.651-9.776-2.88-19.385-7.54-28.004-.664-1.228-1.455-2.535-2.766-3.013-1.829-.667-3.79.567-5.167 1.941-1.285 1.284-3.254 2.52-4.188 4.054-1.152 1.895-1.487 4.805-1.748 6.961-.623 5.159.106 10.49 2.184 15.26" fill="#FFDBA7"></path><path d="M17.371 105.686c-.103-.46-.04-.942.076-1.397.194-.76.607-1.549 1.344-1.82.455-.167.96-.109 1.442-.048.482.06.975.125 1.4.357.426.231.775.67.752 1.154-.025.54-.476.952-.914 1.268-1.027.738-3.616 2.658-4.1.486" fill="#FFEED7"></path><path d="M19.384 108.197c-1.12-.926-2.1-2.405-1.572-3.759.452-1.161 1.812-1.677 3.048-1.847a11.113 11.113 0 0 1 5.625.69c1.478.593 2.965 1.745 3.041 3.334.09 1.875-2.017 3.912-3.856 3.95-2.2.045-4.618-.995-6.286-2.369" fill="#FFDBA7"></path><path d="M128.546 161.115l-9.425-53.224c-.487-2.743-1.998-5.785-3.989-8.029L76.49 56.3c-.995-1.123-2.099-2.048-3.205-2.686a9.844 9.844 0 0 0-.38-.21c-.982-.509-1.953-.787-2.837-.811l-38.759-1.096c-1.997-.056-3.52 1.234-4.02 3.407L17.605 97.1c-.443 1.94-.08 4.54.988 7.045.13.306.27.611.42.912l26.676 53.712c1.375 2.766 3.557 5.23 5.776 6.51l42.954 24.778c2.211 1.28 4.406 1.344 5.794.173l26.883-22.807c1.386-1.172 1.937-3.562 1.45-6.307" fill="#326CE5"></path><path d="M71.244 112.351l-2.337 1.984.817 4.647 3.361 3.813 3.366.091.853-3.68-2.315-4.694-3.745-2.161m4.849-20.2l.625 14.34c.029.534.184 1.091.456 1.643.406.822 1.003 1.474 1.61 1.824.419.242.84.337 1.208.246l9.984-2.318a56.767 56.767 0 0 0-6.372-8.847c-2.373-2.694-4.9-5.012-7.511-6.889m-19.806-3.73l9.942 13.898c.38.506.794.9 1.233 1.153 1.103.637 2.007.167 2.064-1.066h.05l.727-13.571a20.35 20.35 0 0 0-2.495-.974c-4.365-1.38-8.35-1.186-11.52.56m24.486 60.063l-5.85-15.662a5.751 5.751 0 0 0-.966-1.57 3.6 3.6 0 0 0-.963-.792c-.728-.388-1.393-.296-1.74.237l-5.932 8.82c2.5 2.45 5.105 4.448 7.725 5.96 1.793 1.035 3.593 1.843 5.366 2.402.802.254 1.596.457 2.36.605M64.8 123.445l-.028-.08c.168-.362.209-.839.112-1.383-.21-1.193-1.022-2.42-1.973-2.985a2.654 2.654 0 0 0-.393-.19l-11.995-4.612c.884 3.428 2.183 6.848 3.846 10.19a58.095 58.095 0 0 0 5.734 9.239l4.697-10.178m32.191 11.051c.29-2.833.127-5.935-.454-9.221-.588-3.325-1.584-6.725-2.962-10.104l-9.105 4.055c-.328.178-.554.479-.652.91-.25 1.097.384 2.694 1.443 3.649l.01.061 11.72 10.65m-47.772-27.544l11.695 2.897c.443.071.809.002 1.083-.232.69-.593.583-2.084-.242-3.397l.01-.05-9.08-14.61c-1.4 1.753-2.392 3.955-2.982 6.534-.604 2.646-.767 5.624-.484 8.858m46.513 33.316l-12.07-9.34c-.163-.096-.284-.18-.4-.246l-.095-.052a1.793 1.793 0 0 0-.79-.22c-.998-.024-1.44 1.064-1.013 2.48L86 148.611c2.27-.32 4.248-1.226 5.908-2.666 1.644-1.425 2.93-3.337 3.824-5.676m16.14 7.417c1.35 1.154 2.217 3.098 1.936 4.336-.24 1.057-1.247 1.282-2.382.627a4.376 4.376 0 0 1-.59-.412c-.429-.354-.57-.467-.676-.562-.52-.46-.937-.909-1.38-1.383-.22-.241-.45-.488-.694-.735-1.542-1.527-2.818-2.79-4.04-3.7-.603-.354-.889-.29-1.168-.23-.316-.115-.827-.513-1.119-.736-2.293 6.829-7.054 10.94-13.42 11.584.028.14.069.297.115.464.095.35.194.718.255.85-.199.448-.341.771-.178 1.472.449 1.61 1.188 3.374 2.043 5.415.143.33.29.646.432.95.285.612.553 1.189.804 1.885.065.18.147.426.218.642.666 2.03.223 3.46-.904 3.434-.288-.007-.599-.107-.914-.29a3.968 3.968 0 0 1-.873-.706 6.352 6.352 0 0 1-1.384-2.332c-.153-.443-.233-.674-.286-.847a18.913 18.913 0 0 1-.46-1.878c-.064-.306-.126-.618-.206-.949-.522-2.08-.956-3.81-1.578-5.396-.309-.705-.677-1.045-1.031-1.373-.19-.242-.277-.472-.367-.714-.097-.255-.199-.535-.273-.727a27.633 27.633 0 0 1-4-.941c-2.199-.696-4.426-1.695-6.646-2.977-3.65-2.106-7.282-4.973-10.74-8.497l-.547.779c-.36-.097-.76-.203-1.004-.014-.596.472-.942 1.436-1.31 2.457a21.78 21.78 0 0 1-.498 1.294c-.081.24-.148.482-.213.718-.127.459-.245.893-.46 1.333-.05.1-.122.222-.191.339-.563.997-1.47 1.12-2.372.6a3.697 3.697 0 0 1-.908-.762c-1.123-1.27-1.557-3.206-.964-4.312.167-.317.237-.449.298-.544.255-.404.525-.672.813-.957.14-.14.29-.288.435-.45.924-1.122 1.666-2.067 2.112-3.122.116-.395-.058-1.116-.201-1.629l.42-.912c-6.351-8.027-11.071-17.563-13.301-26.883l-1.026-.408c-.37-.46-.815-1.013-1.252-1.265-1.298-.543-2.57-.756-4.042-.999a10.59 10.59 0 0 0-.776-.084c-.444-.037-.866-.072-1.391-.213a8.518 8.518 0 0 1-.398-.127c-.478-.155-.676-.245-.869-.357-1.132-.654-2.136-2.04-2.371-3.372-.273-1.555.605-2.493 1.954-2.09.386.115.547.162.674.209.526.187.98.429 1.46.684.244.131.497.264.76.391 1.613.738 2.972 1.358 4.16 1.614.34.037.658-.259.912-.497l1.056.151c-1.015-9.005.685-16.554 4.804-21.275l-.738-1.213c-.062-.537-.144-1.23-.465-1.81-.913-1.516-2.085-3.026-3.44-4.773-.226-.283-.448-.547-.662-.803a21.9 21.9 0 0 1-1.255-1.593c-.098-.14-.218-.323-.335-.502-.709-1.062-1.06-1.94-1.165-2.739-.106-.796.048-1.416.432-1.743.416-.357 1.048-.329 1.746.074.656.404 1.223.977 1.686 1.67.265.389.41.605.513.768.408.641.705 1.207 1.02 1.806.157.3.32.611.497.93 1.144 2.002 2.095 3.663 3.118 5.05.278.346.523.542.751.673.164.095.319.157.472.217.293.256.73.87.987 1.22 4.123-2.609 9.363-3.023 15.178-1.185 1.366.434 2.774.998 4.185 1.677l.076-1.097c.29-.154.653-.444.756-.95.106-1.363-.054-3.018-.24-4.938-.04-.357-.084-.665-.128-.964-.084-.594-.167-1.154-.183-1.786a8.334 8.334 0 0 1 .002-.454c.003-1.92 1.036-2.64 2.304-1.91 1.267.73 2.292 2.641 2.287 4.258.005.442.009.623.002.759-.021.609-.104 1.074-.193 1.568a18.43 18.43 0 0 0-.13.777c-.205 1.794-.37 3.227-.274 4.681.078.674.36 1.132.634 1.577.126.405.149 1.044.169 1.408 7.316 4.99 14.13 12.714 19.202 21.784l.903-.197c.234.156.383.256.543.349.286.165.61.31.869.286 1.016-.198 1.96-.754 3.055-1.396.254-.16.417-.28.574-.396.322-.235.626-.457 1.04-.628.102-.042.247-.089.373-.127.635-.213 1.225-.118 1.824.228a4.766 4.766 0 0 1 1.744 1.937c.786 1.592.527 3.191-.577 3.563a8.131 8.131 0 0 1-.51.18c-.431.116-.832.129-1.256.142a9.35 9.35 0 0 0-.672.036c-1.373.181-2.545.337-3.456.794-.38.245-.406.669-.433 1.077-.079.21-.223.275-.373.344-.16.07-.337.148-.458.206 2.039 4.716 3.486 9.43 4.302 14.044.808 4.572.96 8.843.449 12.693l.942.88c.25.568.567 1.291 1.003 1.738 1.178 1.106 2.53 2.05 4.095 3.142.322.219.575.376.82.53.48.296.932.578 1.46.996.12.096.27.227.417.353.091.08.179.155.254.218" fill="#FFF"></path><path d="M136.252 158.707v-.015c.001-.114 0-.229-.004-.345l-.003-.066a5.75 5.75 0 0 0-.006-.112c-.002-.056-.003-.11-.007-.165l-.014-.184-.01-.106-.003-.055a8.275 8.275 0 0 0-.039-.345l-.005-.04c-.005-.03-.01-.059-.012-.088-.01-.073-.02-.147-.032-.221l-.038-.226-9.426-53.224a11.493 11.493 0 0 0-.097-.488l-.004-.018-.014-.058a16.536 16.536 0 0 0-.069-.297l-.03-.114-.037-.138a12.67 12.67 0 0 0-.107-.382l-.028-.096a20.22 20.22 0 0 0-.132-.419l-.02-.052a6.994 6.994 0 0 0-.039-.11 8.9 8.9 0 0 0-.074-.212c-.019-.056-.041-.112-.062-.168l-.046-.121-.03-.078a18.07 18.07 0 0 0-.144-.361l-.012-.026-.029-.068-.113-.265c-.02-.047-.043-.093-.065-.14a4.918 4.918 0 0 0-.056-.125l-.045-.1a16.43 16.43 0 0 0-.184-.38c-.073-.147-.15-.293-.226-.439l-.015-.027a19.308 19.308 0 0 0-.346-.62l-.03-.045a18.143 18.143 0 0 0-.59-.94l-.02-.03c-.026-.04-.053-.076-.08-.114a17.588 17.588 0 0 0-.28-.396l-.065-.09-.1-.133-.134-.175-.071-.094-.167-.205-.08-.1c-.01-.01-.018-.022-.028-.033a14.84 14.84 0 0 0-.269-.315l-.05-.057-38.642-43.561c-.08-.091-.16-.18-.243-.268-.027-.03-.054-.057-.082-.086-.038-.042-.078-.082-.117-.123-.035-.036-.067-.072-.101-.106l-.141-.14-.123-.12-.053-.054a11.105 11.105 0 0 0-.228-.21l-.086-.081a11.773 11.773 0 0 0-.353-.309l-.02-.015-.089-.074a7.965 7.965 0 0 0-.227-.185l-.06-.046-.126-.096-.144-.11-.115-.081-.125-.09-.082-.058a9.65 9.65 0 0 0-.217-.143l-.075-.05a9.513 9.513 0 0 0-.627-.37c-.05-.028-.101-.054-.152-.08l-.164-.083c-.043-.022-.086-.04-.13-.062l-.113-.053-.053-.025c-.072-.032-.144-.061-.215-.09l-.069-.03-.013-.006a7.26 7.26 0 0 0-.321-.12l-.093-.03c-.063-.021-.127-.043-.19-.062l-.05-.014c-.043-.013-.086-.024-.128-.035-.043-.012-.086-.025-.128-.035l-.078-.018a3.326 3.326 0 0 0-.14-.03c-.03-.007-.063-.016-.095-.022l-.097-.016c-.048-.01-.099-.017-.147-.025-.025-.004-.05-.009-.076-.012-.035-.005-.069-.007-.103-.01a3.234 3.234 0 0 0-.161-.017l-.067-.008a6.809 6.809 0 0 0-.206-.01l-38.758-1.096-.143-.001-.053.002a4.09 4.09 0 0 0-.246.012c-.021.001-.043 0-.063.002-.007.001-.013.004-.02.004-.122.012-.242.03-.36.052l-.033.005c-.028.005-.056.013-.084.02a2.73 2.73 0 0 0-.13.03 4.245 4.245 0 0 0-.252.074l-.044.014c-.018.005-.034.013-.053.02a4.887 4.887 0 0 0-.211.085c-.029.013-.057.024-.085.038a3.71 3.71 0 0 0-.273.141l-7.529 4.375c.088-.052.179-.098.272-.142.027-.013.056-.025.084-.037.07-.03.14-.059.211-.085l.097-.035a3.78 3.78 0 0 1 .381-.105 3.507 3.507 0 0 1 .478-.075l.081-.007c.082-.005.164-.01.247-.01.066-.002.13-.004.197-.002l38.758 1.097a4.571 4.571 0 0 1 .433.033 4.103 4.103 0 0 1 .327.048 4.94 4.94 0 0 1 .538.12c.042.013.084.024.127.036.08.023.16.049.24.076l.094.03c.11.04.222.08.334.126l.068.029c.09.037.179.075.269.116l.113.054a8.754 8.754 0 0 1 .675.352 11.08 11.08 0 0 1 .772.494l.124.088c.087.062.173.126.259.192l.127.096c.095.075.191.153.287.231l.09.073c.124.106.248.214.372.325l.087.08c.095.087.187.175.28.265l.122.12a20.434 20.434 0 0 1 .36.369c.11.116.218.233.325.353l38.64 43.563c.119.132.234.267.348.405l.081.1c.08.098.16.197.237.298l.134.175c.056.073.11.149.165.224.096.13.19.262.281.395l.1.145c.207.307.403.62.591.94l.047.077a18.554 18.554 0 0 1 .572 1.062l.019.036a22.421 22.421 0 0 1 .442.966l.029.067c.063.155.125.31.184.465l.046.121c.048.127.093.253.137.38l.039.11c.053.157.104.314.151.47l.029.098c.037.128.074.254.108.381l.035.139c.036.136.07.273.1.41l.014.058c.036.17.07.339.1.507l9.426 53.224c.027.15.05.298.07.446l.012.089c.02.147.035.294.049.44l.008.106a12.141 12.141 0 0 1 .028.46c.004.143.007.286.007.426l-.002.06c-.001.12-.005.239-.011.357l-.008.132a9.499 9.499 0 0 1-.025.29l-.014.131a8.324 8.324 0 0 1-.042.307l-.015.097a7.306 7.306 0 0 1-.078.395l-.032.121c-.022.09-.044.182-.07.269a6.767 6.767 0 0 1-.112.34l-.018.051c-.05.137-.107.269-.166.396-.014.03-.03.057-.044.087a4.705 4.705 0 0 1-.21.384l-.065.104c-.02.033-.043.064-.065.095a4.784 4.784 0 0 1-.202.268 3.387 3.387 0 0 1-.216.24 3.34 3.34 0 0 1-.23.216l-26.882 22.808c-.15.126-.311.24-.48.337l7.532-4.375c.17-.098.329-.21.48-.338l26.882-22.806c.08-.068.156-.14.23-.216l.07-.073c.049-.055.098-.11.146-.167l.073-.092a3.69 3.69 0 0 0 .129-.176l.065-.095.03-.045c.013-.019.022-.04.034-.06.075-.122.145-.25.21-.384.01-.018.022-.035.03-.055a5.483 5.483 0 0 0 .18-.427l.002-.002.016-.05c.04-.11.078-.223.112-.339l.005-.014c.024-.083.045-.17.066-.255.01-.04.022-.08.031-.121l.003-.007a7.332 7.332 0 0 0 .076-.387l.014-.098c.013-.08.027-.16.036-.244l.007-.062.014-.133c.004-.053.011-.105.016-.158.004-.043.005-.087.008-.13l.008-.132.005-.087c.004-.09.006-.18.007-.272v-.06" fill="#2959BC"></path><path d="M191.958 147.661c-2.542-3.866-7.541-8.842-10.501-7.134l-31.769 21.358c-2.527.013-5.524 1.023-5.712 1.349-1.679.9-3.084 2.346-4.59 3.559-2.222 1.787-4.804 3.14-6.775 5.201-3.625 3.788-4.62 9.284-5.906 14.367-.381 1.511-.832 3.068-1.86 4.24-.618.705-1.416 1.235-2.027 1.947-.61.712-1.02 1.723-.657 2.588l-5.24 1.19c8.418 1.277 15.424.505 17.108.086 1.393-.347 2.915-1.39 3.995-2.336 1.273-1.116 7.772-6.342 15.689-11.044 16.353-9.714 39.395-21.64 39.395-21.64 2.96-1.707 1.394-9.865-1.15-13.731m.318.325l-.065-.101.065.1m-.035-.053l-.068-.104.068.104m.215.323s-.013-.018-.032-.05c.01.018.02.032.032.05m-.234-.353l-.136-.21.136.21m.138.207l-.126-.19.126.19m-.214-.32c-.046-.072-.094-.144-.135-.21l.135.21m-.1-.157l-.008-.013.01.013m.313.484l-.042-.068.042.068" fill="#FFDBA7"></path><path d="M192.43 148.22l-.008-.016.01.014m-.031-.045c-.022-.03-.041-.062-.063-.093l.063.095m.035.059a6.43 6.43 0 0 1-.068-.107l.068.107m-.733-1.125a.833.833 0 0 1-.028-.043l.028.043m.032.045l-.045-.07c.013.018.026.041.045.07m.038.058l-.063-.098.063.098m.293.452c-.043-.066-.08-.125-.12-.183l.12.183m-.382-.584c-.012-.018-.012-.02 0 0m.105.156l-.04-.061.04.061m.149.228c-.039-.06-.078-.117-.11-.168l.11.168" fill="#FFDBA7"></path><path d="M192.003 147.566l-.121-.185.12.185m-.192-.296a2.374 2.374 0 0 1-.04-.062c.013.02.024.04.04.062m.061.099l-.094-.148.096.148m-79.31 43.99c.338 1.517.864 3.088 2.047 4.095 1.393 1.19 4.566 1.115 6.328.615 1.762-.5 2.186-1.335 3.693-2.376-.277.196-3.73-2.06-4.177-2.307l-4.507-2.49c-.727-.402-2.544-1.817-3.476-1.223-.906.575-.1 2.827.092 3.685" fill="#FFDBA7"></path><path d="M123.85 192.537c-2.278-1.311-4.384-1.55-6.662-2.862-.215-.124-.56-.353-.98-.635l-.258-.143c-.727-.403-2.544-1.818-3.475-1.224-.267.17.258 3.76.23 4.142 0 0 .545 1.53 1.252 1.917 3.867 2.126 10.025-1.12 9.894-1.194" fill="#F0C17D"></path><path d="M107.651 172.72c-.124-1.001.038-2.079.655-2.878.617-.8 1.752-1.235 2.688-.855 1.054.428 1.51 1.643 1.853 2.728l3.237 10.262c.36 1.138.743 2.32 1.569 3.183.812.85 1.955 1.286 3.057 1.697l4.581 1.708c.67.25 1.356.508 1.903.97.546.461.937 1.173.82 1.878-.108.655-.632 1.18-1.231 1.464-.6.283-1.937 1.356-2.593 1.458-2.706.422-7.084.711-10.669-1.713-2.042-1.38-5.504-16.927-5.87-19.902" fill="#FFDBA7"></path><path d="M120.708 186.856c-1.102-.41-2.245-.847-3.057-1.697-.826-.863-1.21-2.045-1.57-3.183l-3.235-10.262c-.343-1.085-.8-2.3-1.854-2.728a1.95 1.95 0 0 0-.825-.135c.558 3.376 2.053 12.531 2.9 15.255.766 2.463 1.942 3.44 4.24 4.612 3.29 1.678 6.115 1.786 9.374 1.407.095-.33.048-.675-.084-.994-.413-.23-.862-.401-1.308-.567l-4.58-1.708" fill="#F0C17D"></path><path d="M113.029 161.057c1.576 1.684 2.744 3.866 3.524 6.193.779 2.328 1.62 4.646 2.338 6.993.382 1.245.875 2.503 1.796 3.423 1.051 1.05 2.523 1.535 3.908 2.077a34.077 34.077 0 0 1 5.724 2.886c.834.524 1.657 1.095 2.275 1.862.618.766 1.014 1.758.876 2.733-.196 1.377-1.429 2.431-2.768 2.808-1.34.377-3.205 1.217-4.572.96-2.687-.507-8.97-2.854-10.5-5.441-4.68-7.921-6.252-19.149-7.015-20.924-.478-1.112-1.225-2.246-.475-3.398 1.177-1.805 3.638-1.51 4.89-.172" fill="#FFDBA7"></path><path d="M131.16 183.749c.07-.148.118-.3.147-.456a15.844 15.844 0 0 0-.985-.664 34.11 34.11 0 0 0-5.724-2.886c-1.385-.543-2.858-1.026-3.909-2.077-.92-.92-1.414-2.178-1.795-3.423-.718-2.348-1.56-4.665-2.34-6.993-.779-2.327-1.947-4.509-3.523-6.194a3.512 3.512 0 0 0-2.783-1.08c.14.225.325.444.445.708.905 2.002 1.865 4.74 2.781 7.082.98 2.504 2.25 4.79 3.285 7.271 1.035 2.482 2.356 4.89 4.263 6.786 1.908 1.895 4.464 3.241 7.153 3.287 1.157.02 2.483-.32 2.985-1.361" fill="#F0C17D"></path><path d="M138.266 180.097c-.332-2.212-2.347-3.71-4.145-5.042-3.044-2.256-6.474-3.371-9.147-6.056-2.952-2.964-5.103-7.543-7.528-10.953-.669-.941-1.337-1.92-2.285-2.579-.947-.659-2.26-.934-3.262-.36-.966.553-1.401 1.759-1.348 2.869.054 1.111 1.39 4.556 1.39 4.556 3.924 7.671 4.918 13.325 11.927 19.403 1.495 1.297 3.517 2.787 5.383 3.445 1.867.658 4.528.462 6.291-.438 1.763-.9 3.019-2.888 2.725-4.846" fill="#FFDBA7"></path><path d="M137.939 178.975c-.718-1.62-2.339-2.827-3.815-3.92-3.044-2.256-6.474-3.37-9.147-6.056-2.952-2.965-5.103-7.542-7.526-10.953-.669-.94-1.337-1.92-2.286-2.578a3.827 3.827 0 0 0-1.476-.62c1.225 1.12 2.237 2.654 3.157 4.096 3.82 5.987 4.733 9.536 8.012 13.872 1.248 1.65 2.326 3.69 3.945 4.98 1.618 1.289 3.55 2.25 5.61 2.448 1.309.125 2.825-.184 3.526-1.27" fill="#F0C17D"></path><path d="M148.613 174.611c.455.13.978.355 1.064.82.111.602-.577 1.011-1.147 1.23l-3.89 1.49c-2.199.843-4.429 1.684-6.762 2.064-1.495.243-6.358.247-7.912-1.944-.968-1.363 4.39-1.903 5.444-2.417a18.968 18.968 0 0 1 6.02-1.777c2.399-.292 4.856-.126 7.183.534" fill="#F0C17D"></path><path d="M153.274 160.744c-1.453-.724-5.66.102-7.402 1.073-3.7 2.06-7.65 4.059-11.839 4.68-1.474.219-2.98.175-4.455.385-1.476.21-3.803 1.405-4.352 2.168-.55.763-1.145 2.03-.895 3.906.25 1.877 1.672 3.545 3.485 4.09 1.756.53 3.641.053 5.4-.466 4.059-1.197 9.796-2.36 13.975-1.688 1.27.204 3.45 1.47 4.429.637 3.223-2.743 3.467-13.882 1.654-14.785" fill="#FFDBA7"></path><path d="M110.695 161.577l-.335-.887c-.076-.2-.153-.405-.292-.57-.33-.395-.957-.473-1.43-.257-.474.218-.904.866-1.041 1.354-.033 1.122.169 1.58.524 2.575.185.336.428.65.752.868.324.217.736.327 1.12.243.65-.143 1.063-.806 1.113-1.45.048-.643-.184-1.271-.412-1.876m-.856 8.806l-.24-.905c-.054-.205-.11-.414-.223-.587-.269-.412-.827-.53-1.264-.342-.437.187-.867.81-1.022 1.287-.106 1.116.044 1.587.296 2.6.143.347.34.675.614.911.276.237.638.372.988.312.591-.103 1.006-.741 1.094-1.38.087-.638-.08-1.28-.243-1.897m18.582 4.176c.783.124 1.647.232 2.316-.193.388-.247.657-.648.825-1.075.515-1.314.057-2.943-1.068-3.795-.956-.725-2.399-.862-3.467-.297-.401.213-.36.253-.095.568.217.26.434.508.618.793a5.89 5.89 0 0 1 .767 1.776c.179.725.22 1.484.104 2.222M110.584 157.3c.012.674.191 1.346.52 1.942.209.38.483.736.85.981.365.245.83.37 1.266.275.733-.161 1.2-.911 1.255-1.638.056-.726-.206-1.436-.465-2.12l-.378-1.002c-.085-.226-.173-.458-.33-.644-.372-.445-1.082-.535-1.617-.29-.533.246-.893.765-1.047 1.318-.155.551-.126 1.136-.05 1.703" fill="#FFEED7"></path><path d="M33.235 114.574c-.133-1.033-.681-2.07-1.62-2.524-.818-.395-1.789-.292-2.671-.06a10.239 10.239 0 0 0-5.081 3.17c-.889 1.212-1.186 2.847-.749 4.288.48 1.582 1.823 2.872 3.423 3.287.784.203 1.603.207 2.413.21.53.002 1.15-.041 1.443-.483.348-.526-.011-1.218-.363-1.741-.35-.524-.705-1.22-.35-1.742.299-.44.918-.47 1.429-.617.758-.22 1.393-.788 1.758-1.488.364-.7.47-1.519.368-2.301" fill="#FFDBA7"></path><path d="M28.554 118.457c-.548.263-1.07.672-1.26 1.25-.283.858.24 1.754.742 2.507.164.247.347.503.552.73l.363.002c.53.002 1.151-.042 1.444-.484.348-.525-.011-1.218-.362-1.741-.352-.523-.706-1.22-.351-1.742.3-.439.919-.469 1.43-.617.757-.218 1.392-.788 1.757-1.488.05-.094.082-.195.122-.293-.938.964-1.754 1.132-2.353 1.291-.589.157-1.536.32-2.084.584" fill="#F0C17D"></path><path d="M29 115.3c.272.293.713.343 1.114.344.502 0 1.004-.048 1.497-.144a.882.882 0 0 0 .649-.566 1.54 1.54 0 0 0 .068-.488 5.534 5.534 0 0 0-.12-1.24c-.036-.169-.07-.338-.117-.503-.04-.136-.094-.384-.233-.458-.089-.047-.717-.033-.883-.01-.382.054-2.124.12-2.328 1.05-.107.49.004 1.64.353 2.015" fill="#FFEED7"></path><path d="M27.634 123.224c.972-.952 2.096-1.817 3.418-2.133 1.323-.317 2.876.033 3.678 1.131.873 1.195.621 2.93-.193 4.166-.815 1.236-2.08 2.09-3.302 2.925-1.223.834-2.472 1.721-3.23 2.993-.329.554-.563 1.178-1.014 1.639-.958.98-2.667.882-3.764.06-1.051-.785-2.158-2.555-1.901-3.918.37-1.966 5.337-5.91 6.309-6.862" fill="#FFDBA7"></path><path d="M34.531 126.388c.402-.61.664-1.34.725-2.066-.583 2.234-5.878 4.612-7.398 6.434a4.374 4.374 0 0 0-.995 3.287c.04-.035.085-.06.123-.099.45-.461.684-1.085 1.014-1.639.758-1.272 2.007-2.159 3.23-2.993 1.222-.835 2.487-1.69 3.301-2.925" fill="#F0C17D"></path><path d="M33.563 124.199a3.73 3.73 0 0 0-.625-1.704c-.164-.239-.369-.467-.643-.557a1.06 1.06 0 0 0-.672.028c-.215.076-.41.2-.6.328-.295.203-.582.424-.808.703-.226.279-.385.622-.394.98 0 0-.007.641.18.953.27.45.808.692 1.333.718.525.026 1.042-.136 1.526-.338.236-.1.482-.221.61-.443.117-.197.117-.44.094-.668" fill="#FFEED7"></path><path d="M34.267 137.225c-.285-.015-.572.059-.853.014-.28-.046-.57-.28-.524-.561.025-.149.135-.266.239-.376 1.097-1.15 3.146-3.865 3.24-5.89.05-1.068-.534-2.366-1.4-3.014-.87-.651-2.244.14-2.64.418-1.782 1.248-3.237 2.63-4.661 4.274-1.4 1.616-3.655 5.112-2.74 7.054.348.737 1.046 1.4 1.71 1.873.616.44.93.748 1.687.697.755-.051 1.487-.274 2.211-.495l3.357-1.025c.488-.15 1.004-.315 1.34-.701.335-.385.426-.966.226-1.436a1.4 1.4 0 0 0-1.192-.832" fill="#FFDBA7"></path><path d="M33.131 136.303c1.097-1.15 3.146-3.866 3.24-5.891.05-1.069-.534-2.366-1.4-3.014-.274-.205-.598-.266-.925-.247.042.073.09.15.15.24.332.492.647 1 .876 1.55.31.743.459 1.577.265 2.358-.153.612-.503 1.153-.863 1.67-.64.917-1.33 1.798-2.069 2.638-.485.552-.998 1.097-1.321 1.756-.323.66-.432 1.473-.088 2.122.264.496 1.535 2.187 1.909 2.608.591-.18.722-1.25 1.314-1.432.49-.149.68-.782 1.016-1.168.335-.386.426-.966.226-1.436a1.4 1.4 0 0 0-1.192-.832c-.284-.015-.572.059-.853.014-.28-.046-.57-.28-.524-.561.024-.148.135-.266.24-.375" fill="#F0C17D"></path><path d="M31.007 130.587c.13.628.56 1.153 1.309 1.089.786-.068 1.683-.667 2.19-1.25.292-.337.496-.776.458-1.22-.054-.64-.721-1.362-1.358-1.478-1.01-.184-2.136.827-2.498 1.693a2.04 2.04 0 0 0-.101 1.166" fill="#FFEED7"></path><path d="M38.984 144.885c-.27-.354-.62-.65-.828-1.042-.437-.818-.165-1.815.086-2.708.251-.893.448-1.93-.095-2.682-.417-.575-1.201-.815-1.901-.687-.7.129-1.309.58-1.747 1.138-.437.558-1.692 3.411-2.026 4.123-.919 1.962 1.398 3.896 2.148 4.312.99.55 2.181.683 3.312.75.385.022.785.013 1.13-.158 1.054-.524.463-2.332-.08-3.046" fill="#FFDBA7"></path><path d="M38.253 143.802c-.437-.818-.262-1.774-.01-2.667.25-.893.448-1.93-.096-2.682a1.66 1.66 0 0 0-.56-.48c.275.449.385.82.46 1.28.14.843-.28 1.81-.441 2.648-.16.84-.139 1.996.254 2.823.207.44.827.56 1.435.69a3.062 3.062 0 0 0-.312-.529c-.269-.354-.52-.69-.73-1.083" fill="#F0C17D"></path><path d="M34.539 139.762c-.113.394-.227.798-.2 1.209.026.41.221.833.588 1.02.295.151.662.125.961-.02.299-.144.536-.396.715-.675.33-.513.482-1.135.426-1.742-.024-.268-.093-.543-.266-.75-.271-.328-.762-.418-1.162-.279-.401.139-.712.47-.905.848-.193.377-.28.8-.345 1.218" fill="#FFEED7"></path></g></svg>