<svg viewBox="0 0 842 595" xmlns="http://www.w3.org/2000/svg"><g transform="translate(-7.000000, 0.000000)" fill="none" fill-rule="evenodd"><path fill="#FAAF40" d="M6.562 595.275h841.89V.001H6.562z"></path><path fill="#EA9C34" d="M153.827 119.382l-.272 48.329 26.07-15.052 228.152 132.588 31.563-18.223-228.152-132.587 26.071-15.052zm83.703-48.327l-.271 48.33 26.07-15.052L491.48 236.921l31.564-18.223L294.891 86.111l26.071-15.052zm83.704-48.327l-.272 48.33 26.07-15.052 228.152 132.587 31.564-18.222L378.595 37.784l26.071-15.052z"></path><path fill="#D3862A" d="M39.24 595.275h9.747V.382H39.24z"></path><path fill="#EA9C34" d="M48.987 595.275h9.747V.383h-9.747z"></path><path fill="#FFF8E3" d="M565.232 0L154.531 238.673l617.653 356.602h76.268V0zM115.595 52.472c-.924 0-1.706.781-1.706 1.705a1.73 1.73 0 0 0 1.705 1.706 1.73 1.73 0 0 0 1.706-1.706c0-.924-.781-1.705-1.706-1.705"></path><path d="M106.5 31.965c-.925-.925-2.346-.925-3.27 0L82.694 52.501c-.923.925-.923 2.346 0 3.269l20.536 20.537c.924.924 2.345.924 3.27 0l20.536-20.537c.924-.923.924-2.345 0-3.269L106.5 31.965zm9.096 26.079c-1.351 0-2.56-.711-3.199-1.777a49.239 49.239 0 0 0-1.492 4.052c-1.563 4.334-2.629 7.106-3.979 8.1-.711.71-1.634 1.137-2.772 1.137a3.822 3.822 0 0 1-3.837-3.806v-.031c0-1.35.71-2.559 1.777-3.198a48.994 48.994 0 0 0-4.051-1.492c-4.334-1.563-7.106-2.629-8.101-3.979-.711-.711-1.137-1.635-1.137-2.772a3.821 3.821 0 0 1 3.805-3.837h.033c1.349 0 2.558.711 3.197 1.777a49.382 49.382 0 0 0 1.493-4.052c1.563-4.334 2.629-7.105 3.98-8.099.709-.712 1.633-1.138 2.771-1.138a3.822 3.822 0 0 1 3.837 3.806v.031c0 1.349-.711 2.558-1.776 3.198a48.823 48.823 0 0 0 4.049 1.492c4.335 1.564 7.107 2.629 8.102 3.98.711.71 1.137 1.634 1.137 2.771 0 2.061-1.705 3.837-3.838 3.837h.001z" fill="#FFF8E3"></path><path d="M208.971 56.127a2.068 2.068 0 0 0-.497-.854c-.214-.283-.568-.497-.995-.709-.427-.214-.924-.426-1.564-.711-.284-.143-.568-.213-.782-.285-.212-.071-.353-.213-.497-.284-.142-.071-.213-.141-.213-.284-.07-.07-.07-.214-.07-.284 0-.497.426-.711 1.348-.711.499 0 .925.071 1.281.143.355.071.711.212 1.065.284l.498-2.203c-.355-.143-.782-.213-1.349-.356-.57-.142-1.138-.142-1.778-.142-1.208 0-2.203.285-2.843.853-.638.569-1.065 1.279-1.065 2.203 0 .497.071.923.213 1.208.142.356.356.64.568.853.284.214.569.425.924.639.356.214.782.356 1.208.497.569.214.996.427 1.279.569.285.142.427.356.427.569 0 .284-.142.497-.355.567-.213.073-.568.143-1.138.143-.497 0-.994-.07-1.491-.143l-1.493-.425-.497 2.274c.212.07.639.213 1.208.355.567.142 1.349.213 2.203.213 1.349 0 2.416-.284 3.127-.781.71-.498 1.136-1.28 1.136-2.274.285-.214.214-.569.142-.924zm-11.015-3.097c.497-.284.853-.71 1.208-1.279.356-.498.497-1.065.497-1.706a4.02 4.02 0 0 0-.213-1.278c-.142-.426-.426-.782-.782-1.138a3.68 3.68 0 0 0-1.349-.852 5.522 5.522 0 0 0-1.99-.355c-.64 0-1.28.071-1.778.284a3.67 3.67 0 0 0-1.349.853c-.356.355-.711.782-.852 1.208-.215.497-.285.923-.285 1.492 0 .639.142 1.209.355 1.635.324.494.733.927 1.208 1.278-.252.196-.489.41-.711.64-.213.213-.426.426-.567.711-.215.284-.285.568-.428.852a4.307 4.307 0 0 0-.141 1.065c0 .356.071.783.213 1.209.142.427.426.853.782 1.208.404.404.888.718 1.421.924.568.214 1.349.356 2.203.356.781 0 1.421-.072 2.06-.284a5.115 5.115 0 0 0 1.492-.854c.427-.354.711-.781.853-1.278.215-.498.284-.996.284-1.564 0-.711-.141-1.279-.497-1.777-.426-.426-.924-.923-1.634-1.349v-.001zm-4.192-3.34c.07-.141.141-.355.283-.497.143-.142.285-.284.498-.356.213-.07.427-.141.71-.141.285 0 .569.071.711.141.214.072.356.215.497.356.119.124.216.269.285.426.071.143.071.285.071.426 0 .498-.143.853-.356 1.208-.216.37-.537.667-.923.853-.711-.284-1.208-.568-1.563-.923-.285-.356-.427-.71-.427-1.138.071 0 .142-.141.214-.355zm2.912 7.817c-.283.284-.781.497-1.421.497-.355 0-.639-.07-.852-.141a1.558 1.558 0 0 1-.568-.355 2.24 2.24 0 0 1-.356-.498c-.071-.214-.071-.355-.071-.497 0-.498.142-.925.356-1.281.213-.354.567-.638.923-.922.355.141.711.213.996.355.283.142.567.284.781.427.212.14.426.354.568.567.142.214.214.498.214.781a1.98 1.98 0 0 1-.57 1.068v-.001zm-8.885-.479c-.354-.498-.781-.996-1.208-1.493a9.64 9.64 0 0 0-1.208-1.208c.783-.781 1.493-1.491 2.133-2.203.661-.735 1.324-1.47 1.989-2.202h-3.339c-.213.213-.356.497-.64.781-.213.284-.497.569-.781.924-.285.355-.569.64-.853.995-.285.355-.569.64-.852.924V45.16l-2.844.427v14.354h2.844v-4.406c.283.284.638.568.994.924.355.355.639.782.924 1.137.284.427.568.782.852 1.208.284.427.498.782.711 1.066h3.269c-.214-.426-.498-.852-.783-1.421-.425-.355-.781-.853-1.208-1.421zm-11.198-5.875c-.284-.425-.71-.71-1.279-.923-.496-.213-1.207-.355-1.989-.355-.853 0-1.634.07-2.346.142-.639.142-1.208.214-1.634.355v9.593h1.776V51.58c.072 0 .143 0 .285-.07.142 0 .285-.071.498-.071.213 0 .355 0 .567-.072h.569c.497 0 .853.072 1.208.214.285.142.569.284.783.567.212.286.354.64.425 1.066.072.428.142.925.142 1.563v5.188h1.777v-5.543c0-.639-.071-1.278-.214-1.847-.07-.568-.283-1.065-.567-1.422h-.001zm-9.774-1.175c-.214 0-.356-.072-.569-.072h-.498c-.781 0-1.492.072-2.06.214-.64.143-1.137.283-1.564.426v9.451h1.778v-8.313c.07 0 .283-.073.639-.143.356-.071.639-.071.994-.071.497 0 .924.071 1.28.071.355.07.568.143.711.213l.283-1.564c-.071 0-.213-.07-.356-.07-.283-.072-.425-.142-.638-.142zm-8.495.875c-.285-.355-.711-.569-1.208-.783-.499-.213-1.066-.283-1.777-.283-.639 0-1.208.07-1.706.142-.497.071-.924.214-1.137.284l.213 1.493c.214-.072.569-.142.995-.285a9.017 9.017 0 0 1 1.564-.143c.427 0 .852.073 1.137.214.283.143.498.284.711.569.142.213.283.498.355.781.07.285.07.568.07.853v.497c-.07 0-.142 0-.283-.07-.142 0-.285-.072-.428-.072-.141 0-.354-.07-.567-.07h-.568c-.57 0-1.068.07-1.635.142-.498.141-.924.283-1.351.568a2.869 2.869 0 0 0-.924.923c-.212.427-.355.853-.355 1.421 0 .57.071 1.068.285 1.493.213.426.426.71.781.996a6.42 6.42 0 0 0 1.208.567c.497.142.996.142 1.564.142.427 0 .782 0 1.208-.071.427 0 .782-.07 1.137-.07.355-.071.639-.071.923-.143.285-.07.498-.07.64-.07v-6.183c0-.568-.071-1.066-.214-1.563a3.602 3.602 0 0 0-.638-1.279zm-.924 7.745c-.214.072-.497.072-.782.072h-1.137c-.711 0-1.28-.143-1.634-.355-.428-.214-.641-.711-.641-1.351 0-.356.073-.64.214-.853.142-.213.356-.355.64-.498.285-.142.497-.213.852-.213.285-.07.568-.07.853-.07.426 0 .782 0 1.065.07.286.072.498.072.641.143v3.055h-.071zm-11.937-8.794c-.567 0-1.136.141-1.704.354-.569.214-.996.569-1.422.995a4.228 4.228 0 0 0-.995 1.635c-.284.64-.354 1.421-.354 2.274 0 .782.07 1.42.283 2.06a4.67 4.67 0 0 0 .924 1.635c.426.427.923.782 1.564 1.066.639.283 1.349.356 2.202.356a7.377 7.377 0 0 0 1.848-.215c.567-.141.924-.212 1.137-.355l-.214-1.492c-.212.072-.568.214-.994.284-.426.143-.924.143-1.564.143-1.137 0-1.919-.284-2.415-.781-.498-.498-.853-1.281-.925-2.346h6.751v-.64c0-1.705-.355-2.984-1.065-3.765-.711-.782-1.778-1.208-3.057-1.208zm-2.628 4.262c.071-.355.142-.71.212-.994.143-.355.285-.639.498-.852.214-.285.497-.427.782-.64.284-.142.639-.214 1.066-.214.71 0 1.278.284 1.705.782.427.498.64 1.137.568 1.99h-4.831v-.072zm-4.51 4.208c-.143-.142-.214-.285-.214-.426-.072-.214-.072-.426-.072-.711V45.198l-1.776.285V57.35c0 .924.214 1.634.711 2.061.427.427 1.208.71 2.346.71l.213-1.491c-.286-.072-.499-.072-.711-.143a.64.64 0 0 1-.497-.214v.001zm-34.217-13.919a1.73 1.73 0 0 0 1.705-1.707 1.73 1.73 0 0 0-1.705-1.706 1.73 1.73 0 0 0-1.705 1.706c0 .996.781 1.707 1.705 1.707zm-2.683 1.035c-.213-.215-.426-.428-.567-.711a48.838 48.838 0 0 0-1.493 4.05c-1.564 4.335-2.629 7.106-3.98 8.101-.214.213-.426.426-.71.568a49.868 49.868 0 0 0 4.05 1.493c4.334 1.563 7.105 2.629 8.1 3.979.214.213.427.426.569.71a48.49 48.49 0 0 0 1.492-4.051c1.564-4.335 2.63-7.105 3.98-8.099.213-.215.426-.428.71-.57a49.31 49.31 0 0 0-4.049-1.492c-4.335-1.492-7.178-2.558-8.102-3.979v.001zm2.683 18.568c-.924 0-1.705.781-1.705 1.706 0 .924.781 1.704 1.705 1.704s1.705-.781 1.705-1.704c0-.925-.781-1.706-1.705-1.706zM92.621 52.472c-.923 0-1.705.781-1.705 1.705a1.73 1.73 0 0 0 1.705 1.706 1.73 1.73 0 0 0 1.706-1.706c0-.924-.782-1.705-1.706-1.705z" fill="#FFF8E3"></path><path fill="#EA9C34" d="M13.29 611.859l31.563 18.223L253.069 509.08l-30.648-18.754z"></path><path fill="#8C4F04" d="M311.918 323.045l-.053 18.602-26.07-15.052.054-18.602zm57.633 33.274l-.053 18.603-26.07-15.052.053-18.603zM115.329 473.855l-.053 18.602-31.562-18.223.053-18.602z"></path><path fill="#CC801B" d="M343.481 341.268l-.053 18.603-228.152 132.586.053-18.601z"></path><path fill="#FFD592" d="M369.279 307.99l.272 48.329-26.07-15.052-228.152 132.588-31.563-18.222 228.152-132.588-26.07-15.052z"></path><path fill="#8C4F04" d="M395.416 371.221l-.053 18.602-26.07-15.052.053-18.602zm57.633 33.274l-.053 18.603-26.07-15.052.053-18.603zM198.827 522.031l-.053 18.602-31.562-18.223.053-18.603z"></path><path fill="#CC801B" d="M426.979 389.443l-.053 18.603-228.152 132.586.053-18.601z"></path><path fill="#FFD592" d="M452.777 356.166l.272 48.329-26.07-15.052-228.152 132.588-31.563-18.223 228.152-132.587-26.071-15.052z"></path><path fill="#8C4F04" d="M479 419.484l-.053 18.602-26.07-15.052.053-18.602zm57.633 33.275l-.053 18.602-26.07-15.052.053-18.602zM282.411 570.295l-.053 18.602-31.563-18.223.053-18.603z"></path><path fill="#CC801B" d="M510.563 437.707l-.053 18.602-228.152 132.587.053-18.601z"></path><path fill="#FFD592" d="M536.361 404.429l.272 48.33-26.07-15.052-228.152 132.588-31.564-18.223L479 419.485l-26.071-15.052z"></path><path fill="#8C4F04" d="M562.498 467.659l-.053 18.603-26.07-15.052.053-18.602zm57.633 33.276l-.053 18.602-26.07-15.052.053-18.602z"></path><path fill="#CC801B" d="M594.06 485.883l-.053 18.602-228.151 132.587.053-18.602z"></path><path fill="#FFD592" d="M619.859 452.604l.271 48.33-26.07-15.052-228.151 132.587-31.564-18.222 228.153-132.588-26.071-15.051z"></path><path fill="#8C4F04" d="M646.151 515.978l-.053 18.603-26.07-15.052.053-18.603zm57.634 33.275l-.053 18.602-26.07-15.052.053-18.602z"></path><path fill="#FFD592" d="M703.512 500.923l.272 48.33-26.07-15.052-228.152 132.587-31.564-18.222 228.153-132.588-26.071-15.052z"></path><path fill="#8C4F04" d="M729.831 564.281l-.053 18.603-26.069-15.052.053-18.603zm57.634 33.276l-.053 18.602-26.07-15.052.053-18.602zM144.603 226.428l-.053 18.602-26.07-15.052.053-18.602zm57.633 33.274l-.053 18.603-26.07-15.052.053-18.603z"></path><path fill="#8C4F04" d="M228.257 274.746l-.053 18.602-26.07-15.052.053-18.602zm57.633 33.274l-.053 18.602-26.07-15.052.053-18.602zM31.668 425.557l-.053 18.602L.052 425.936l.053-18.603z"></path><path fill="#CC801B" d="M259.82 292.969l-.053 18.602L31.615 444.158l.053-18.601z"></path><path fill="#FFD592" d="M285.618 259.69l.272 48.33-26.07-15.052L31.668 425.556.104 407.333l228.153-132.587-26.071-15.052z"></path><path fill="#FFD592" d="M369.279 307.99l.272 48.329-26.07-15.052-228.152 132.588-31.563-18.222 228.152-132.588-26.07-15.052z"></path><path fill="#FFD592" d="M452.777 356.166l.272 48.329-26.07-15.052-228.152 132.588-31.563-18.223 228.152-132.587-26.071-15.052z"></path><path fill="#FFD592" d="M536.361 404.429l.272 48.33-26.07-15.052-228.152 132.588-31.564-18.223L479 419.485l-26.071-15.052z"></path><path fill="#FFD592" d="M619.859 452.604l.271 48.33-26.07-15.052-228.151 132.587-31.564-18.222 228.153-132.588-26.071-15.051z"></path><path fill="#FFD592" d="M703.512 500.923l.272 48.33-26.07-15.052-228.152 132.587-31.564-18.222 228.153-132.588-26.071-15.052zM285.618 259.69l.272 48.33-26.07-15.052L31.668 425.556.104 407.333l228.153-132.587-26.071-15.052z"></path><path fill="#8C4F04" d="M48.987 318.559l-9.747 5.665v18.571l9.747-5.665z"></path><path fill="#EA9C34" d="M48.987 318.559v-36.565l-9.747 5.665v36.565z"></path><path fill="#C4761A" d="M48.987 318.559v18.571l9.747-5.664v-18.571z"></path><path fill="#FAAF40" d="M48.987 318.559l9.747-5.664V276.33l-9.747 5.664z"></path><path fill="#8C4F04" d="M48.987 415.559l-9.747 5.665v18.571l9.747-5.665z"></path><path fill="#EA9C34" d="M48.987 415.559v-36.565l-9.747 5.665v36.565z"></path><path fill="#C4761A" d="M48.987 415.559v18.571l9.747-5.664v-18.571z"></path><path fill="#FAAF40" d="M48.987 415.559l9.747-5.664V373.33l-9.747 5.664z"></path><path fill="#C4761A" d="M48.987 530.955V494.39l-9.747 5.664v36.565z"></path><path fill="#D3862A" d="M48.987 530.955l9.747-5.665v-36.565l-9.747 5.665z"></path><path fill="#C4761A" d="M48.987 627.455V590.89l-9.747 5.664v36.565z"></path><path fill="#D3862A" d="M48.987 627.455l9.747-5.665v-36.565l-9.747 5.665z"></path><path d="M544.635 126.695h-13.594l-3.106 10.782H521.9l13.125-42.657h5.742l13.008 42.657h-6.035l-3.105-10.782zm-12.217-4.716h10.869l-5.332-18.633h-.176l-5.361 18.633zm29.782 15.498V94.82h11.719c4.531 0 8.227 1.709 11.089 5.127 2.861 3.418 4.292 7.813 4.292 13.184v6.064c0 5.391-1.431 9.786-4.292 13.184-2.862 3.399-6.558 5.098-11.089 5.098H562.2zm5.947-38.086v33.574h5.567c2.988 0 5.346-1.279 7.075-3.838 1.728-2.558 2.593-5.869 2.593-9.932v-6.123c0-4.023-.865-7.309-2.593-9.858-1.729-2.549-4.087-3.823-7.075-3.823h-5.567zm41.625 28.652l.586 2.49h.176l.615-2.461 8.701-33.252h6.299l-12.832 42.657h-5.742L594.772 94.82h6.328zm41.633-1.348h-13.594l-3.106 10.782h-6.035l13.125-42.657h5.742l13.008 42.657h-6.035l-3.105-10.782zm-12.217-4.716h10.869l-5.332-18.633h-.176l-5.361 18.633zm57.995 15.498h-5.918l-16.172-31.729-.176.059v31.67h-5.947V94.82h5.947l16.172 31.641.176-.058V94.82h5.918zm36.552-12.949l.088.175c-.02 4.258-1.153 7.554-3.399 9.888-2.246 2.334-5.42 3.501-9.521 3.501-4.18 0-7.52-1.406-10.02-4.219-2.5-2.812-3.75-6.738-3.75-11.777V110.26c0-5.039 1.235-8.975 3.706-11.807 2.471-2.832 5.767-4.248 9.888-4.248 4.18 0 7.392 1.143 9.638 3.428 2.247 2.285 3.399 5.625 3.458 10.02l-.088.175h-5.625c-.059-3.105-.674-5.39-1.846-6.855-1.172-1.465-3.018-2.197-5.537-2.197-2.442 0-4.336.986-5.684 2.959-1.347 1.972-2.021 4.785-2.021 8.437v11.924c0 3.711.688 6.553 2.065 8.525 1.377 1.973 3.316 2.959 5.816 2.959 2.461 0 4.262-.718 5.405-2.153 1.142-1.436 1.733-3.735 1.772-6.899h5.655zm32.963-6.856h-15.821v15.293h18.34v4.512H744.93V94.82h24.111v4.571h-18.164v13.74h15.821zm10.452 19.805V94.82h11.719c4.531 0 8.227 1.709 11.089 5.127 2.861 3.418 4.292 7.813 4.292 13.184v6.064c0 5.391-1.431 9.786-4.292 13.184-2.862 3.399-6.558 5.098-11.089 5.098H777.15zm5.947-38.086v33.574h5.567c2.988 0 5.346-1.279 7.075-3.838 1.728-2.558 2.593-5.869 2.593-9.932v-6.123c0-4.023-.865-7.309-2.593-9.858-1.729-2.549-4.087-3.823-7.075-3.823h-5.567zM458.16 199.037V156.38h11.719c4.531 0 8.227 1.709 11.089 5.127 2.861 3.418 4.292 7.813 4.292 13.184v6.064c0 5.391-1.431 9.786-4.292 13.184-2.862 3.399-6.558 5.098-11.089 5.098H458.16zm5.947-38.086v33.574h5.567c2.988 0 5.346-1.279 7.075-3.838 1.728-2.558 2.593-5.869 2.593-9.932v-6.123c0-4.023-.865-7.309-2.593-9.858-1.729-2.549-4.087-3.823-7.075-3.823h-5.567zm52.481 18.281h-15.821v15.293h18.34v4.512H494.82V156.38h24.111v4.571h-18.164v13.74h15.821zm16.439 2.988v16.817h-5.947V156.38h14.004c3.984 0 7.109 1.187 9.375 3.56s3.398 5.493 3.398 9.36c0 3.887-1.132 7.012-3.398 9.375-2.266 2.364-5.391 3.545-9.375 3.545h-8.057zm0-4.57h8.057c2.246 0 3.945-.786 5.098-2.358 1.152-1.573 1.728-3.55 1.728-5.933 0-2.422-.571-4.429-1.714-6.021-1.142-1.591-2.846-2.387-5.112-2.387h-8.057v16.699zm35.6 16.875h16.641v4.512H562.68V156.38h5.947zm50.215-10.928c0 5.059-1.308 8.999-3.926 11.822-2.617 2.822-6.123 4.233-10.517 4.233-4.336 0-7.783-1.411-10.342-4.233-2.559-2.823-3.838-6.763-3.838-11.822v-11.718c0-5.04 1.284-8.985 3.853-11.836 2.568-2.852 6.01-4.278 10.327-4.278 4.375 0 7.876 1.426 10.503 4.278 2.627 2.851 3.94 6.796 3.94 11.836v11.718zm-5.918-11.806c0-3.711-.742-6.529-2.226-8.453-1.485-1.923-3.584-2.885-6.299-2.885-2.676 0-4.727.962-6.152 2.885-1.426 1.924-2.139 4.742-2.139 8.453v11.806c0 3.75.718 6.592 2.153 8.526 1.436 1.933 3.482 2.9 6.138 2.9 2.734 0 4.839-.962 6.313-2.886 1.475-1.924 2.212-4.77 2.212-8.54v-11.806zm27.831 5.302h.175l8.731-20.713h6.592l-12.539 27.305v15.352h-5.918v-15.733l-12.393-26.924h6.65zM670.2 156.38l9.961 34.805h.176l9.99-34.805h7.676v42.657h-5.889V182.66l.527-16.406-.175-.03-10.254 32.813h-3.926l-10.225-32.783-.175.029.556 16.377v16.377h-5.888V156.38zm61.968 22.852h-15.821v15.293h18.34v4.512H710.4V156.38h24.111v4.571h-18.164v13.74h15.821zm38.665 19.805h-5.918l-16.172-31.729-.176.059v31.67h-5.947V156.38h5.947l16.172 31.641.176-.058V156.38h5.918zm35.178-38.086h-10.957v38.086h-5.947v-38.086h-10.898v-4.571h27.802zm-294.019 88.923c0-2.012-.567-3.662-1.699-4.951-1.133-1.289-3.116-2.422-5.948-3.399-4.062-1.23-7.177-2.836-9.345-4.819-2.168-1.982-3.252-4.604-3.252-7.866 0-3.359 1.206-6.118 3.618-8.276 2.412-2.159 5.512-3.238 9.302-3.238 3.945 0 7.124 1.245 9.536 3.736 2.412 2.49 3.579 5.493 3.501 9.008l-.059.176h-5.713c0-2.48-.639-4.497-1.919-6.05-1.279-1.552-3.081-2.329-5.405-2.329-2.207 0-3.911.65-5.112 1.949-1.202 1.298-1.802 2.954-1.802 4.965 0 1.817.644 3.345 1.933 4.585 1.29 1.241 3.418 2.368 6.387 3.384 3.887 1.211 6.846 2.861 8.877 4.951 2.031 2.09 3.047 4.795 3.047 8.115 0 3.497-1.201 6.27-3.604 8.321-2.402 2.051-5.556 3.076-9.462 3.076-3.809 0-7.134-1.128-9.976-3.384-2.842-2.256-4.214-5.434-4.116-9.536l.058-.176h5.713c0 2.93.767 5.098 2.3 6.504 1.533 1.406 3.54 2.11 6.021 2.11 2.226 0 3.969-.621 5.229-1.861 1.26-1.24 1.89-2.905 1.89-4.995zm38.665-27.363H539.7v38.086h-5.947v-38.086h-10.898v-4.571h27.802zm14.88 19.717v18.369h-5.947V217.97h13.272c4.042 0 7.167 1.045 9.375 3.135 2.207 2.089 3.31 5.087 3.31 8.994 0 2.226-.513 4.17-1.538 5.83-1.025 1.66-2.505 2.959-4.439 3.896 2.129.723 3.667 1.948 4.615 3.677.947 1.729 1.421 3.862 1.421 6.401v3.721c0 1.309.131 2.524.395 3.648.264 1.123.718 2.006 1.362 2.651v.674h-6.123c-.664-.645-1.088-1.616-1.274-2.915a29.054 29.054 0 0 1-.278-4.117v-3.603c0-2.383-.542-4.268-1.626-5.654-1.084-1.387-2.574-2.08-4.468-2.08h-8.057zm0-4.541h7.032c2.402 0 4.174-.65 5.317-1.949 1.143-1.298 1.714-3.139 1.714-5.522 0-2.442-.557-4.336-1.67-5.684-1.113-1.347-2.803-2.021-5.068-2.021h-7.325v15.176zm47.708 12.128h-13.594l-3.106 10.782h-6.035l13.125-42.657h5.742l13.008 42.657h-6.035l-3.105-10.782zm-12.217-4.716h10.869l-5.332-18.633h-.176l-5.361 18.633zm50.796-22.588h-10.957v38.086h-5.947v-38.086h-10.899v-4.571h27.803zm30.64 18.281h-15.821v15.293h18.34v4.512h-24.287V217.94h24.111v4.571h-18.164v13.74h15.821zm37.405 13.74c-.976 1.719-2.563 3.262-4.761 4.629-2.197 1.367-5.004 2.051-8.422 2.051-4.473 0-8.077-1.357-10.811-4.072s-4.102-6.582-4.102-11.602v-12.656c0-4.942 1.299-8.77 3.897-11.484 2.598-2.715 6.045-4.073 10.342-4.073 4.355 0 7.685 1.099 9.99 3.296 2.305 2.197 3.535 5.278 3.691 9.243l-.058.176h-5.625c-.098-2.656-.796-4.678-2.095-6.064-1.299-1.387-3.237-2.08-5.815-2.08-2.598 0-4.649.932-6.153 2.797-1.504 1.866-2.256 4.576-2.256 8.13v12.715c0 3.633.806 6.402 2.417 8.306 1.612 1.904 3.804 2.856 6.578 2.856 2.031 0 3.608-.346 4.731-1.04 1.123-.693 1.958-1.577 2.505-2.651v-9.697h-7.295v-4.307h13.242v15.527zm11.317 6.065h5.918v-42.656h-5.918zm38.77-19.805h-15.82v15.293h18.34v4.512h-24.287V217.94H772.3v4.571h-18.164v13.74h15.82zm29.952 9.082c0-2.012-.567-3.662-1.699-4.951-1.133-1.289-3.116-2.422-5.948-3.399-4.062-1.23-7.177-2.836-9.345-4.819-2.168-1.982-3.252-4.604-3.252-7.866 0-3.359 1.206-6.118 3.618-8.276 2.412-2.159 5.512-3.238 9.302-3.238 3.945 0 7.124 1.245 9.536 3.736 2.412 2.49 3.579 5.493 3.501 9.008l-.059.176h-5.713c0-2.48-.639-4.497-1.919-6.05-1.279-1.552-3.081-2.329-5.405-2.329-2.207 0-3.911.65-5.112 1.949-1.202 1.298-1.802 2.954-1.802 4.965 0 1.817.644 3.345 1.933 4.585 1.29 1.241 3.418 2.368 6.387 3.384 3.887 1.211 6.846 2.861 8.877 4.951 2.031 2.09 3.047 4.795 3.047 8.115 0 3.497-1.201 6.27-3.604 8.321-2.402 2.051-5.556 3.076-9.462 3.076-3.809 0-7.134-1.128-9.976-3.384-2.842-2.256-4.214-5.434-4.116-9.536l.058-.176h5.713c0 2.93.767 5.098 2.3 6.504 1.533 1.406 3.54 2.11 6.021 2.11 2.226 0 3.969-.621 5.229-1.861 1.26-1.24 1.89-2.905 1.89-4.995z" fill="#5B534C"></path><path d="M564.84 310.738h-4.079l-.931 3.235h-1.811l3.938-12.797h1.722l3.903 12.797h-1.811l-.931-3.235zm-3.665-1.415h3.26l-1.599-5.589h-.053l-1.608 5.589zm13.89-3.357l-.835-.044c-.369 0-.675.111-.918.334-.243.223-.429.536-.558.94v6.777h-1.785v-9.51h1.626l.132 1.433c.2-.504.46-.898.783-1.182a1.633 1.633 0 0 1 1.116-.427c.117 0 .237.011.36.031.123.021.22.045.29.075l-.211 1.573zm6.319 6.838c.445 0 .82-.172 1.125-.514.305-.343.457-.802.457-1.376h1.6l.017.053c.024.896-.279 1.652-.909 2.268-.63.615-1.393.922-2.29.922-1.183 0-2.09-.401-2.72-1.204-.63-.802-.945-1.825-.945-3.067v-1.31c0-1.242.315-2.267.945-3.076.63-.808 1.534-1.213 2.711-1.213.961 0 1.742.321 2.343.963.6.641.892 1.472.874 2.491l-.026.053h-1.6c0-.633-.145-1.147-.435-1.542-.29-.396-.675-.594-1.156-.594-.679 0-1.161.276-1.445.827-.285.55-.427 1.248-.427 2.091v1.31c0 .855.142 1.556.427 2.101.284.544.769.817 1.454.817zm8.569-7.067a3.1 3.1 0 0 1 .976-1.067 2.297 2.297 0 0 1 1.292-.383c.855 0 1.52.317 1.995.95.475.632.712 1.605.712 2.917v5.819h-1.784v-5.836c0-.873-.128-1.502-.383-1.885-.254-.384-.634-.576-1.138-.576-.363 0-.687.104-.971.312a2.333 2.333 0 0 0-.699.857v7.128h-1.784v-13.711h1.784v5.475zm10.635 8.236h-1.784v-9.51h1.784v9.51zm0-12.006h-1.784v-1.705h1.784v1.705zm6.3.132v2.364h1.485v1.274h-1.485v5.661c0 .492.073.842.22 1.05a.67.67 0 0 0 .571.312c.141 0 .271-.009.391-.026.12-.018.262-.044.426-.08l.185 1.231a3.663 3.663 0 0 1-.673.198 3.971 3.971 0 0 1-.769.074c-.673 0-1.196-.221-1.568-.663-.372-.443-.559-1.141-.559-2.096v-5.661h-1.239v-1.274h1.239v-2.364h1.776zm8.27 12.058c-1.131 0-2.036-.392-2.716-1.177-.679-.785-1.019-1.79-1.019-3.015v-1.389c0-1.242.332-2.267.997-3.076.665-.808 1.51-1.213 2.536-1.213 1.078 0 1.907.368 2.487 1.103.58.736.87 1.724.87 2.967v1.23h-5.115v.378c0 .82.18 1.499.541 2.035.36.536.871.804 1.533.804.492 0 .914-.078 1.266-.233a3.562 3.562 0 0 0 1.002-.681l.562 1.107c-.298.34-.7.618-1.204.835-.504.217-1.084.325-1.74.325zm-.202-8.499c-.516 0-.929.251-1.239.752-.311.501-.484 1.135-.519 1.903h3.349v-.361c0-.674-.135-1.224-.405-1.652-.269-.428-.665-.642-1.186-.642zm10.28 7.146c.445 0 .82-.172 1.125-.514.304-.343.457-.802.457-1.376h1.599l.018.053c.023.896-.28 1.652-.91 2.268-.63.615-1.393.922-2.289.922-1.184 0-2.091-.401-2.72-1.204-.63-.802-.945-1.825-.945-3.067v-1.31c0-1.242.315-2.267.945-3.076.629-.808 1.533-1.213 2.711-1.213.961 0 1.742.321 2.342.963.601.641.892 1.472.875 2.491l-.027.053h-1.599c0-.633-.145-1.147-.435-1.542-.29-.396-.676-.594-1.156-.594-.68 0-1.162.276-1.446.827-.284.55-.426 1.248-.426 2.091v1.31c0 .855.142 1.556.426 2.101.284.544.769.817 1.455.817zm9.102-10.705v2.364h1.485v1.274h-1.485v5.661c0 .492.073.842.22 1.05a.67.67 0 0 0 .571.312c.141 0 .271-.009.391-.026.12-.018.262-.044.426-.08l.185 1.231a3.663 3.663 0 0 1-.673.198 3.971 3.971 0 0 1-.769.074c-.673 0-1.196-.221-1.568-.663-.372-.443-.559-1.141-.559-2.096v-5.661h-1.239v-1.274h1.239v-2.364h1.776zm6.732 11.874h-1.784v-9.51h1.784v9.51zm0-12.006h-1.784v-1.705h1.784v1.705zm5.641 2.496l.096 1.406c.264-.498.598-.886 1.002-1.164a2.36 2.36 0 0 1 1.371-.418c.832 0 1.48.308 1.943.923.463.615.694 1.57.694 2.865v5.898h-1.784v-5.88c0-.885-.126-1.509-.378-1.872-.252-.363-.633-.545-1.143-.545-.363 0-.685.113-.966.338-.282.226-.51.532-.686.919v7.04h-1.784v-9.51h1.635zm8.561 4.377c0-1.365.279-2.465.839-3.3.559-.835 1.337-1.253 2.333-1.253.481 0 .903.113 1.266.339.363.225.674.552.932.98l.131-1.143h1.539v9.466c0 1.219-.324 2.171-.972 2.856-.647.686-1.551 1.029-2.711 1.029-.399 0-.825-.062-1.279-.185a4.898 4.898 0 0 1-1.217-.501l.378-1.336c.299.182.627.324.984.426.358.103.73.154 1.116.154.651 0 1.133-.208 1.446-.624.314-.416.47-1.025.47-1.828v-.861a2.553 2.553 0 0 1-.901.822 2.528 2.528 0 0 1-1.199.276c-.99 0-1.764-.379-2.321-1.138-.556-.759-.834-1.762-.834-3.01v-1.169zm1.784 1.169c0 .844.146 1.516.439 2.017.293.501.753.752 1.38.752.387 0 .716-.1.989-.299.272-.2.493-.481.663-.844v-4.737a2.468 2.468 0 0 0-.668-.892 1.477 1.477 0 0 0-.966-.33c-.621 0-1.083.293-1.385.879-.301.586-.452 1.348-.452 2.285v1.169zm10.849 3.753l-1.116 2.593h-1.063l.518-2.655v-1.608h1.661z" fill="#58595B"></path><path d="M744.626 360.309c0 13.081-2.508 23.1-7.523 30.057-5.016 6.957-11.822 10.435-20.42 10.435-8.644 0-15.496-3.49-20.558-10.47-5.061-6.98-7.592-16.987-7.592-30.022v-22.812c0-12.989 2.519-22.996 7.558-30.022 5.038-7.026 11.856-10.539 20.454-10.539 8.597 0 15.427 3.513 20.488 10.539 5.062 7.026 7.593 17.033 7.593 30.022v22.812zm-14.006-24.823c0-9.152-1.214-16.062-3.64-20.731-2.427-4.669-5.905-7.003-10.435-7.003s-7.986 2.346-10.366 7.038c-2.381 4.691-3.571 11.59-3.571 20.696v26.764c0 9.152 1.213 16.086 3.64 20.801s5.905 7.072 10.435 7.072c4.484 0 7.928-2.346 10.331-7.037 2.404-4.692 3.606-11.637 3.606-20.836v-26.764zm36.459 7.142h9.638c4.668 0 8.077-1.56 10.227-4.68 2.149-3.12 3.224-7.338 3.224-12.654 0-5.454-1.121-9.742-3.363-12.862-2.242-3.12-5.512-4.68-9.811-4.68-3.929 0-7.153 1.56-9.672 4.68-2.52 3.12-3.779 7.223-3.779 12.307h-13.382l-.208-.416c-.185-7.812 2.265-14.329 7.35-19.552 5.084-5.224 11.556-7.835 19.414-7.835 8.32 0 14.976 2.484 19.968 7.453 4.993 4.969 7.489 11.984 7.489 21.044 0 4.483-1.179 8.771-3.537 12.862-2.357 4.09-5.708 7.199-10.053 9.325 5.084 1.895 8.852 4.958 11.302 9.187 2.449 4.23 3.674 9.118 3.674 14.665 0 9.152-2.692 16.328-8.077 21.529-5.385 5.2-12.284 7.8-20.697 7.8-7.858 0-14.503-2.485-19.934-7.454-5.431-4.969-8.055-11.891-7.87-20.766l.208-.416h13.451c0 5.316 1.318 9.638 3.953 12.966 2.634 3.328 6.101 4.992 10.4 4.992 4.53 0 8.078-1.606 10.643-4.819 2.565-3.212 3.848-7.777 3.848-13.694 0-6.286-1.225-10.92-3.675-13.901-2.45-2.982-6.147-4.473-11.093-4.473h-9.638v-10.608z" fill="#EA9C34"></path><path d="M538.704 337.088c0-1.517.273-2.738.821-3.66.548-.923 1.32-1.385 2.316-1.385.446 0 .842.1 1.191.299.349.199.649.486.901.861v-5.185h1.775v13.711h-1.555l-.132-1.09a2.697 2.697 0 0 1-.927.949 2.43 2.43 0 0 1-1.262.325c-.99 0-1.759-.421-2.307-1.265-.548-.844-.821-1.969-.821-3.375v-.185zm1.784.185c0 1.002.143 1.796.43 2.382.287.586.742.879 1.363.879.386 0 .716-.106.988-.317.273-.211.494-.507.664-.888v-4.623c-.17-.392-.391-.703-.664-.931a1.46 1.46 0 0 0-.971-.343c-.621 0-1.078.337-1.371 1.011-.293.674-.439 1.555-.439 2.645v.185zm12.75 4.64c-1.131 0-2.036-.392-2.716-1.177-.68-.785-1.019-1.79-1.019-3.015v-1.389c0-1.242.332-2.267.997-3.076.665-.808 1.51-1.213 2.536-1.213 1.078 0 1.907.368 2.487 1.103.58.736.87 1.724.87 2.967v1.23h-5.115v.378c0 .82.18 1.499.54 2.035.361.536.872.804 1.534.804.492 0 .914-.078 1.266-.233a3.562 3.562 0 0 0 1.002-.681l.562 1.107c-.299.34-.7.618-1.204.835-.504.217-1.084.325-1.74.325zm-.202-8.499c-.516 0-.929.251-1.24.752-.31.501-.483 1.135-.518 1.903h3.349v-.361c0-.674-.135-1.224-.405-1.652-.269-.428-.665-.642-1.186-.642zm9.603 5.458l.15.739h.053l.149-.739 1.617-6.653h1.837l-2.848 9.51h-1.573l-2.865-9.51h1.846zm10.062 3.041c-1.13 0-2.036-.392-2.715-1.177-.68-.785-1.02-1.79-1.02-3.015v-1.389c0-1.242.333-2.267.998-3.076.665-.808 1.51-1.213 2.535-1.213 1.078 0 1.907.368 2.488 1.103.58.736.87 1.724.87 2.967v1.23h-5.116v.378c0 .82.181 1.499.541 2.035.36.536.872.804 1.534.804.492 0 .914-.078 1.265-.233a3.534 3.534 0 0 0 1.002-.681l.563 1.107c-.299.34-.7.618-1.204.835-.504.217-1.084.325-1.741.325zm-.202-8.499c-.515 0-.928.251-1.239.752-.311.501-.483 1.135-.519 1.903h3.349v-.361c0-.674-.135-1.224-.404-1.652-.27-.428-.665-.642-1.187-.642zm7.104 8.315h1.784v-13.711h-1.784zm5.456-5.353c0-1.259.33-2.297.989-3.111.659-.814 1.563-1.222 2.712-1.222 1.142 0 2.044.406 2.707 1.218.662.811.993 1.85.993 3.115v1.213c0 1.272-.33 2.31-.989 3.116s-1.56 1.208-2.703 1.208c-1.154 0-2.061-.402-2.72-1.208-.659-.806-.989-1.844-.989-3.116v-1.213zm1.785 1.213c0 .867.158 1.579.474 2.136.317.557.8.835 1.45.835.633 0 1.109-.278 1.429-.835.319-.557.479-1.269.479-2.136v-1.213c0-.855-.16-1.563-.479-2.122-.32-.56-.799-.84-1.437-.84-.645 0-1.125.279-1.442.835-.316.557-.474 1.266-.474 2.127v1.213zm16.434.176c0 1.254-.275 2.259-.826 3.015-.551.755-1.315 1.133-2.294 1.133-.463 0-.87-.09-1.222-.272a2.555 2.555 0 0 1-.905-.8v4.544h-1.784v-13.166h1.591l.114 1.09c.252-.404.56-.716.923-.936.363-.22.785-.33 1.265-.33.991 0 1.761.416 2.312 1.248.551.832.826 1.934.826 3.305v1.169zm-1.784-1.169c0-.932-.154-1.692-.461-2.281-.308-.589-.767-.883-1.376-.883-.381 0-.706.108-.976.325a2.296 2.296 0 0 0-.65.888v4.807c.158.358.372.632.642.822.269.191.6.286.993.286.615 0 1.074-.256 1.375-.769.302-.513.453-1.188.453-2.026v-1.169zm7.292 5.133h-1.785v-9.51h1.785v9.51zm0-12.006h-1.785v-1.705h1.785v1.705zm5.674 2.496l.097 1.406c.263-.498.597-.886 1.002-1.164a2.355 2.355 0 0 1 1.371-.418c.832 0 1.479.308 1.942.923.463.615.695 1.57.695 2.865v5.898h-1.785v-5.88c0-.885-.126-1.509-.378-1.872-.252-.363-.632-.545-1.142-.545-.363 0-.686.113-.967.338-.281.226-.51.532-.686.919v7.04h-1.784v-9.51h1.635zm8.561 4.377c0-1.365.28-2.465.839-3.3.56-.835 1.338-1.253 2.334-1.253.48 0 .902.113 1.265.339.364.225.674.552.932.98l.132-1.143h1.538v9.466c0 1.219-.324 2.171-.971 2.856-.648.686-1.552 1.029-2.712 1.029a4.9 4.9 0 0 1-1.278-.185 4.905 4.905 0 0 1-1.218-.501l.378-1.336c.299.182.627.324.985.426.357.103.729.154 1.116.154.65 0 1.132-.208 1.446-.624.313-.416.47-1.025.47-1.828v-.861a2.553 2.553 0 0 1-.901.822 2.535 2.535 0 0 1-1.2.276c-.99 0-1.763-.379-2.32-1.138-.557-.759-.835-1.762-.835-3.01v-1.169zm1.784 1.169c0 .844.147 1.516.44 2.017.293.501.752.752 1.379.752.387 0 .717-.1.989-.299.273-.2.494-.481.664-.844v-4.737a2.491 2.491 0 0 0-.668-.892c-.27-.22-.592-.33-.967-.33-.621 0-1.083.293-1.384.879-.302.586-.453 1.348-.453 2.285v1.169zm19.989 3.964a7.125 7.125 0 0 1-.158-.637 4.601 4.601 0 0 1-.079-.629 3.394 3.394 0 0 1-.993 1.046c-.399.27-.841.404-1.327.404-.803 0-1.431-.253-1.886-.76-.454-.507-.681-1.185-.681-2.035 0-.908.309-1.621.927-2.14.619-.518 1.487-.777 2.606-.777h1.328v-.976c0-.58-.129-1.033-.387-1.358-.258-.325-.624-.488-1.099-.488-.427 0-.772.147-1.032.44-.261.293-.392.659-.392 1.098l-1.696-.008-.026-.053c-.03-.733.263-1.384.879-1.956.615-.571 1.409-.857 2.382-.857.937 0 1.697.277 2.28.831.583.554.875 1.343.875 2.369v4.412c0 .369.022.725.066 1.067.044.343.115.679.215 1.007h-1.802zm-2.153-1.187c.416 0 .795-.123 1.138-.369.343-.246.593-.554.752-.923v-1.942h-1.354c-.545 0-.968.174-1.27.523-.302.349-.453.775-.453 1.279 0 .427.103.773.308 1.037.205.263.498.395.879.395zm9.35-8.323l.096 1.406c.264-.498.598-.886 1.002-1.164a2.36 2.36 0 0 1 1.371-.418c.832 0 1.48.308 1.943.923.463.615.694 1.57.694 2.865v5.898h-1.784v-5.88c0-.885-.126-1.509-.378-1.872-.252-.363-.633-.545-1.143-.545-.363 0-.685.113-.966.338-.282.226-.51.532-.686.919v7.04h-1.784v-9.51h1.635zm8.561 4.869c0-1.517.273-2.738.821-3.66.548-.923 1.32-1.385 2.316-1.385.446 0 .842.1 1.191.299.349.199.649.486.901.861v-5.185h1.775v13.711h-1.555l-.132-1.09a2.697 2.697 0 0 1-.927.949 2.43 2.43 0 0 1-1.262.325c-.99 0-1.759-.421-2.307-1.265-.548-.844-.821-1.969-.821-3.375v-.185zm1.784.185c0 1.002.143 1.796.43 2.382.287.586.742.879 1.363.879.386 0 .716-.106.988-.317.273-.211.494-.507.664-.888v-4.623c-.17-.392-.391-.703-.664-.931a1.46 1.46 0 0 0-.971-.343c-.621 0-1.078.337-1.371 1.011-.293.674-.439 1.555-.439 2.645v.185zm-190.178 27.575c0-1.517.273-2.738.821-3.66.548-.923 1.32-1.385 2.316-1.385.446 0 .842.1 1.191.299.349.199.649.486.901.861v-5.185h1.775v13.711h-1.555l-.132-1.09a2.697 2.697 0 0 1-.927.949 2.43 2.43 0 0 1-1.262.325c-.99 0-1.759-.421-2.307-1.265-.548-.844-.821-1.969-.821-3.375v-.185zm1.784.185c0 1.002.143 1.796.43 2.382.287.586.742.879 1.363.879.386 0 .716-.106.988-.317.273-.211.494-.507.664-.888v-4.623c-.17-.392-.391-.703-.664-.931a1.46 1.46 0 0 0-.971-.343c-.621 0-1.078.337-1.371 1.011-.293.674-.439 1.555-.439 2.645v.185zm12.718 4.64c-1.13 0-2.036-.392-2.715-1.177-.68-.785-1.02-1.79-1.02-3.015v-1.389c0-1.242.333-2.267.998-3.076.665-.808 1.51-1.213 2.535-1.213 1.078 0 1.908.368 2.488 1.103.58.736.87 1.724.87 2.967v1.23H484.7v.378c0 .82.181 1.499.541 2.035.36.536.872.804 1.534.804.492 0 .914-.078 1.265-.233a3.534 3.534 0 0 0 1.002-.681l.563 1.107c-.299.34-.7.618-1.204.835-.504.217-1.084.325-1.741.325zm-.202-8.499c-.515 0-.928.251-1.239.752-.311.501-.483 1.135-.519 1.903h3.349v-.361c0-.674-.135-1.224-.404-1.652-.27-.428-.665-.642-1.187-.642zm13.958 4.351c0 1.254-.275 2.259-.826 3.015-.551.755-1.315 1.133-2.294 1.133-.463 0-.87-.09-1.221-.272a2.55 2.55 0 0 1-.906-.8v4.544h-1.784v-13.166h1.591l.114 1.09c.252-.404.56-.716.923-.936.363-.22.785-.33 1.266-.33.99 0 1.76.416 2.311 1.248.551.832.826 1.934.826 3.305v1.169zm-1.784-1.169c0-.932-.154-1.692-.461-2.281-.308-.589-.766-.883-1.376-.883-.381 0-.706.108-.975.325-.27.217-.487.513-.651.888v4.807c.158.358.372.632.642.822.269.191.6.286.993.286.615 0 1.074-.256 1.376-.769.301-.513.452-1.188.452-2.026v-1.169zm5.6 5.133h1.784v-13.711h-1.784zm5.456-5.353c0-1.259.33-2.297.989-3.111.659-.814 1.563-1.222 2.711-1.222 1.143 0 2.045.406 2.707 1.218.662.811.993 1.85.993 3.115v1.213c0 1.272-.329 2.31-.988 3.116-.66.806-1.561 1.208-2.703 1.208-1.154 0-2.061-.402-2.72-1.208-.659-.806-.989-1.844-.989-3.116v-1.213zm1.784 1.213c0 .867.158 1.579.475 2.136.316.557.8.835 1.45.835.633 0 1.109-.278 1.428-.835.319-.557.479-1.269.479-2.136v-1.213c0-.855-.16-1.563-.479-2.122-.319-.56-.798-.84-1.437-.84-.644 0-1.125.279-1.441.835-.317.557-.475 1.266-.475 2.127v1.213zm11.942.862l.132.624h.053l1.828-6.856h1.942l-3.331 10.986c-.222.657-.524 1.215-.905 1.675-.381.46-.929.69-1.644.69-.146 0-.303-.016-.47-.049a9.12 9.12 0 0 1-.496-.11l.193-1.318c.064.012.152.024.264.035.111.012.199.018.263.018.346 0 .62-.148.822-.444.202-.296.359-.646.47-1.05l.317-.967-2.936-9.466h1.934l1.564 6.232zm8.524 3.278h-1.784v-9.51h1.784v9.51zm0-12.006h-1.784v-1.705h1.784v1.705zm5.64 2.496l.097 1.406c.264-.498.598-.886 1.002-1.164a2.355 2.355 0 0 1 1.371-.418c.832 0 1.48.308 1.943.923.462.615.694 1.57.694 2.865v5.898h-1.784v-5.88c0-.885-.126-1.509-.378-1.872-.252-.363-.633-.545-1.143-.545-.363 0-.685.113-.967.338a2.457 2.457 0 0 0-.685.919v7.04h-1.784v-9.51h1.634zm8.561 4.377c0-1.365.28-2.465.84-3.3.559-.835 1.337-1.253 2.333-1.253.481 0 .903.113 1.266.339.363.225.674.552.931.98l.132-1.143h1.538v9.466c0 1.219-.323 2.171-.971 2.856-.647.686-1.551 1.029-2.711 1.029-.399 0-.825-.062-1.279-.185a4.898 4.898 0 0 1-1.217-.501l.378-1.336c.298.182.627.324.984.426.357.103.729.154 1.116.154.651 0 1.132-.208 1.446-.624.313-.416.47-1.025.47-1.828v-.861a2.553 2.553 0 0 1-.901.822 2.528 2.528 0 0 1-1.199.276c-.991 0-1.764-.379-2.321-1.138-.556-.759-.835-1.762-.835-3.01v-1.169zm1.784 1.169c0 .844.147 1.516.44 2.017.293.501.753.752 1.38.752.387 0 .716-.1.989-.299.272-.2.493-.481.663-.844v-4.737a2.48 2.48 0 0 0-.668-.892 1.48 1.48 0 0 0-.967-.33c-.621 0-1.082.293-1.384.879-.302.586-.453 1.348-.453 2.285v1.169zm19.989 3.964a6.798 6.798 0 0 1-.158-.637 4.603 4.603 0 0 1-.08-.629 3.37 3.37 0 0 1-.993 1.046c-.398.27-.841.404-1.327.404-.803 0-1.431-.253-1.885-.76-.454-.507-.681-1.185-.681-2.035 0-.908.309-1.621.927-2.14.618-.518 1.487-.777 2.606-.777h1.327v-.976c0-.58-.129-1.033-.387-1.358-.257-.325-.624-.488-1.098-.488-.428 0-.772.147-1.033.44-.261.293-.391.659-.391 1.098l-1.696-.008-.027-.053c-.029-.733.264-1.384.879-1.956.615-.571 1.409-.857 2.382-.857.938 0 1.698.277 2.281.831.583.554.874 1.343.874 2.369v4.412c0 .369.022.725.066 1.067.044.343.116.679.216 1.007h-1.802zm-2.154-1.187a1.91 1.91 0 0 0 1.139-.369c.342-.246.593-.554.751-.923v-1.942h-1.353c-.545 0-.969.174-1.27.523-.302.349-.453.775-.453 1.279 0 .427.102.773.308 1.037.205.263.498.395.878.395zm14.764-2.777c0 1.254-.275 2.259-.826 3.015-.551.755-1.315 1.133-2.294 1.133-.463 0-.87-.09-1.222-.272a2.555 2.555 0 0 1-.905-.8v4.544h-1.784v-13.166h1.591l.114 1.09c.252-.404.56-.716.923-.936.363-.22.785-.33 1.266-.33.99 0 1.76.416 2.311 1.248.551.832.826 1.934.826 3.305v1.169zm-1.784-1.169c0-.932-.154-1.692-.461-2.281-.308-.589-.766-.883-1.376-.883-.381 0-.706.108-.975.325-.27.217-.487.513-.651.888v4.807c.158.358.372.632.642.822.269.191.6.286.993.286.615 0 1.074-.256 1.375-.769.302-.513.453-1.188.453-2.026v-1.169zm12.425 1.169c0 1.254-.276 2.259-.827 3.015-.55.755-1.315 1.133-2.294 1.133-.462 0-.87-.09-1.221-.272a2.55 2.55 0 0 1-.906-.8v4.544h-1.784v-13.166h1.591l.114 1.09c.252-.404.56-.716.923-.936.363-.22.785-.33 1.266-.33.99 0 1.761.416 2.311 1.248.551.832.827 1.934.827 3.305v1.169zm-1.785-1.169c0-.932-.153-1.692-.461-2.281-.308-.589-.766-.883-1.376-.883-.38 0-.706.108-.975.325-.27.217-.486.513-.651.888v4.807c.159.358.373.632.642.822.27.191.601.286.993.286.615 0 1.074-.256 1.376-.769.301-.513.452-1.188.452-2.026v-1.169zm5.508 5.133h1.784v-13.711h-1.784zm7.74 0h-1.784v-9.51h1.784v9.51zm0-12.006h-1.784v-1.705h1.784v1.705zm7.362 10.837c.445 0 .82-.172 1.125-.514.304-.343.457-.802.457-1.376h1.599l.018.053c.023.896-.28 1.652-.91 2.268-.63.615-1.393.922-2.289.922-1.184 0-2.091-.401-2.721-1.204-.629-.802-.944-1.825-.944-3.067v-1.31c0-1.242.315-2.267.944-3.076.63-.808 1.534-1.213 2.712-1.213.961 0 1.742.321 2.342.963.601.641.892 1.472.875 2.491l-.027.053h-1.599c0-.633-.145-1.147-.435-1.542-.29-.396-.676-.594-1.156-.594-.68 0-1.162.276-1.446.827-.284.55-.426 1.248-.426 2.091v1.31c0 .855.142 1.556.426 2.101.284.544.769.817 1.455.817zm11.657 1.169a7.125 7.125 0 0 1-.158-.637 4.601 4.601 0 0 1-.079-.629 3.394 3.394 0 0 1-.993 1.046c-.399.27-.841.404-1.327.404-.803 0-1.431-.253-1.886-.76-.454-.507-.681-1.185-.681-2.035 0-.908.309-1.621.928-2.14.618-.518 1.486-.777 2.606-.777h1.327v-.976c0-.58-.129-1.033-.387-1.358-.258-.325-.624-.488-1.099-.488-.427 0-.772.147-1.032.44-.261.293-.391.659-.391 1.098l-1.697-.008-.026-.053c-.029-.733.264-1.384.879-1.956.615-.571 1.409-.857 2.382-.857.937 0 1.697.277 2.28.831.583.554.875 1.343.875 2.369v4.412c0 .369.022.725.066 1.067.044.343.116.679.215 1.007h-1.802zm-2.153-1.187c.416 0 .795-.123 1.138-.369.343-.246.593-.554.752-.923v-1.942h-1.354c-.545 0-.968.174-1.27.523-.302.349-.452.775-.452 1.279 0 .427.102.773.307 1.037.205.263.498.395.879.395zm10.005-10.687v2.364h1.486v1.274h-1.486v5.661c0 .492.074.842.22 1.05.147.208.337.312.571.312.141 0 .271-.009.391-.026.121-.018.263-.044.427-.08l.184 1.231a3.652 3.652 0 0 1-.672.198 3.971 3.971 0 0 1-.769.074c-.674 0-1.197-.221-1.569-.663-.372-.443-.558-1.141-.558-2.096v-5.661h-1.239v-1.274h1.239v-2.364h1.775zm6.732 11.874h-1.784v-9.51h1.784v9.51zm0-12.006h-1.784v-1.705h1.784v1.705zm3.672 6.653c0-1.259.33-2.297.989-3.111.659-.814 1.563-1.222 2.712-1.222 1.142 0 2.045.406 2.707 1.218.662.811.993 1.85.993 3.115v1.213c0 1.272-.33 2.31-.989 3.116s-1.56 1.208-2.703 1.208c-1.154 0-2.061-.402-2.72-1.208-.659-.806-.989-1.844-.989-3.116v-1.213zm1.785 1.213c0 .867.158 1.579.474 2.136.317.557.8.835 1.45.835.633 0 1.109-.278 1.429-.835.319-.557.479-1.269.479-2.136v-1.213c0-.855-.16-1.563-.479-2.122-.32-.56-.799-.84-1.437-.84-.645 0-1.125.279-1.442.835-.316.557-.474 1.266-.474 2.127v1.213zm11.02-5.37l.097 1.406c.264-.498.598-.886 1.002-1.164a2.355 2.355 0 0 1 1.371-.418c.832 0 1.479.308 1.942.923.463.615.695 1.57.695 2.865v5.898h-1.785v-5.88c0-.885-.126-1.509-.377-1.872-.252-.363-.633-.545-1.143-.545-.363 0-.686.113-.967.338-.281.226-.51.532-.685.919v7.04h-1.785v-9.51h1.635zm13.325 7.128c0-.369-.122-.681-.365-.936s-.702-.535-1.376-.839c-.978-.381-1.703-.787-2.175-1.218-.472-.43-.707-.988-.707-1.674 0-.732.288-1.355.865-1.868.578-.512 1.335-.769 2.272-.769.979 0 1.758.277 2.338.831.58.554.859 1.244.835 2.07l-.017.052h-1.714a1.83 1.83 0 0 0-.383-1.164c-.254-.325-.607-.488-1.059-.488-.445 0-.792.126-1.041.378a1.223 1.223 0 0 0-.374.888c0 .363.107.65.321.861.214.211.675.486 1.384.826.996.358 1.736.763 2.22 1.217.483.455.725 1.036.725 1.745 0 .785-.299 1.424-.897 1.916-.597.492-1.383.738-2.355.738-1.049 0-1.875-.297-2.479-.892-.603-.594-.89-1.29-.861-2.087l.017-.053h1.662c.023.615.193 1.059.509 1.332.317.272.709.408 1.178.408.463 0 .825-.118 1.086-.356.26-.237.391-.543.391-.918zm-59.727 30.142a7.125 7.125 0 0 1-.158-.637 4.601 4.601 0 0 1-.079-.629 3.394 3.394 0 0 1-.993 1.046c-.399.27-.841.404-1.327.404-.803 0-1.431-.253-1.886-.76-.454-.507-.681-1.185-.681-2.035 0-.908.309-1.621.927-2.14.619-.518 1.487-.777 2.606-.777h1.328v-.976c0-.58-.129-1.033-.387-1.358-.258-.325-.624-.488-1.099-.488-.427 0-.772.147-1.032.44-.261.293-.392.659-.392 1.098l-1.696-.008-.026-.053c-.03-.733.263-1.384.879-1.956.615-.571 1.409-.857 2.382-.857.937 0 1.697.277 2.28.831.583.554.875 1.343.875 2.369v4.412c0 .369.022.725.066 1.067.044.343.115.679.215 1.007h-1.802zm-2.153-1.187c.416 0 .795-.123 1.138-.369.343-.246.593-.554.752-.923v-1.942h-1.354c-.545 0-.968.174-1.27.523-.302.349-.453.775-.453 1.279 0 .427.103.773.308 1.037.205.263.498.395.879.395zm10.009-10.687v2.364h1.485v1.274h-1.485v5.661c0 .492.073.842.22 1.05a.67.67 0 0 0 .571.312c.141 0 .271-.009.391-.026.12-.018.262-.044.426-.08l.185 1.231a3.663 3.663 0 0 1-.673.198 3.971 3.971 0 0 1-.769.074c-.673 0-1.196-.221-1.568-.663-.372-.443-.559-1.141-.559-2.096v-5.661h-1.239v-1.274h1.239v-2.364h1.776zm15.186 9.492c0-.369-.121-.681-.365-.936-.243-.255-.701-.535-1.375-.839-.979-.381-1.704-.787-2.175-1.218-.472-.43-.708-.988-.708-1.674 0-.732.289-1.355.866-1.868.577-.512 1.334-.769 2.272-.769.978 0 1.758.277 2.338.831.58.554.858 1.244.835 2.07l-.018.052h-1.714c0-.451-.127-.839-.382-1.164-.255-.325-.608-.488-1.059-.488-.445 0-.793.126-1.042.378a1.222 1.222 0 0 0-.373.888c0 .363.107.65.321.861.213.211.675.486 1.384.826.996.358 1.736.763 2.219 1.217.484.455.725 1.036.725 1.745 0 .785-.299 1.424-.896 1.916-.598.492-1.383.738-2.356.738-1.049 0-1.875-.297-2.478-.892-.604-.594-.891-1.29-.862-2.087l.018-.053h1.661c.024.615.193 1.059.51 1.332.316.272.709.408 1.178.408.463 0 .824-.118 1.085-.356.261-.237.391-.543.391-.918zm8.883 1.213c.445 0 .82-.172 1.125-.514.305-.343.457-.802.457-1.376h1.6l.017.053c.024.896-.279 1.652-.909 2.268-.63.615-1.393.922-2.29.922-1.183 0-2.09-.401-2.72-1.204-.63-.802-.945-1.825-.945-3.067v-1.31c0-1.242.315-2.267.945-3.076.63-.808 1.534-1.213 2.711-1.213.961 0 1.742.321 2.343.963.6.641.892 1.472.874 2.491l-.026.053h-1.6c0-.633-.145-1.147-.435-1.542-.29-.396-.675-.594-1.156-.594-.679 0-1.161.276-1.445.827-.285.55-.427 1.248-.427 2.091v1.31c0 .855.142 1.556.427 2.101.284.544.769.817 1.454.817zm11.658 1.169a6.798 6.798 0 0 1-.158-.637 4.45 4.45 0 0 1-.079-.629 3.385 3.385 0 0 1-.994 1.046 2.31 2.31 0 0 1-1.327.404c-.802 0-1.431-.253-1.885-.76-.454-.507-.681-1.185-.681-2.035 0-.908.309-1.621.927-2.14.618-.518 1.487-.777 2.606-.777h1.327v-.976c0-.58-.129-1.033-.387-1.358-.257-.325-.624-.488-1.098-.488-.428 0-.772.147-1.033.44-.261.293-.391.659-.391 1.098l-1.696-.008-.027-.053c-.029-.733.264-1.384.879-1.956.615-.571 1.409-.857 2.382-.857.938 0 1.698.277 2.281.831.583.554.874 1.343.874 2.369v4.412c0 .369.022.725.066 1.067.044.343.116.679.216 1.007h-1.802zm-2.153-1.187c.416 0 .795-.123 1.138-.369.342-.246.593-.554.751-.923v-1.942h-1.353c-.545 0-.969.174-1.27.523-.302.349-.453.775-.453 1.279 0 .427.103.773.308 1.037.205.263.498.395.879.395zm7.843 1.187h1.784v-13.711h-1.784zm9.244.184c-1.131 0-2.036-.392-2.716-1.177-.679-.785-1.019-1.79-1.019-3.015v-1.389c0-1.242.332-2.267.997-3.076.665-.808 1.51-1.213 2.536-1.213 1.078 0 1.907.368 2.487 1.103.58.736.87 1.724.87 2.967v1.23h-5.115v.378c0 .82.18 1.499.541 2.035.36.536.871.804 1.533.804.492 0 .914-.078 1.266-.233a3.562 3.562 0 0 0 1.002-.681l.562 1.107c-.298.34-.7.618-1.204.835-.504.217-1.084.325-1.74.325zm-.202-8.499c-.516 0-.929.251-1.239.752-.311.501-.484 1.135-.519 1.903h3.349v-.361c0-.674-.135-1.224-.405-1.652-.269-.428-.665-.642-1.186-.642z" fill="#58595B"></path></g></svg>