<svg viewBox="0 0 697 278" xmlns="http://www.w3.org/2000/svg"><g fill="none" fill-rule="evenodd"><rect fill="#E3F2D9" width="697" height="280" rx="12"></rect><g transform="translate(80.471024, 34.012334)" fill-rule="nonzero"><path d="M218.297 44.624l14.036-3.341v67.015c0 7.354 2.21 11.739 6.574 13.144-2.175 4.088-5.876 6.13-11.114 6.13-6.37 0-9.546-4.38-9.546-13.144V44.624m42.548-.893a7.868 7.868 0 0 1 5.754 2.368 7.746 7.746 0 0 1 2.387 5.709 7.746 7.746 0 0 1-2.387 5.71 7.868 7.868 0 0 1-5.754 2.367 7.868 7.868 0 0 1-5.754-2.368 7.746 7.746 0 0 1-2.386-5.71 7.746 7.746 0 0 1 2.386-5.708 7.868 7.868 0 0 1 5.754-2.368zm-7.24 82.778V78.267h-7.686V66.848h21.894v59.66h-14.158m69.17 0v-34.48c0-5.087-.981-8.805-2.948-11.137-1.967-2.333-5.178-3.512-9.627-3.512-2.063 0-4.258.577-6.599 1.726-2.34 1.148-4.166 2.583-5.475 4.289v43.115h-14.037v-59.66h10.113l2.528 5.518c3.817-4.455 9.455-6.688 16.898-6.688 7.15 0 12.792 2.128 16.928 6.372 4.136 4.244 6.204 10.184 6.204 17.8v36.602h-14.036m39.859-29.965c0 13.144 4.773 19.716 14.309 19.716a12.32 12.32 0 0 0 10.416-5.127c2.568-3.422 3.843-8.278 3.843-14.549 0-12.958-4.753-19.44-14.26-19.44-4.378 0-7.862 1.706-10.44 5.127-2.579 3.421-3.873 8.187-3.873 14.313l.005-.04zm-14.598 0c0-9.1 2.65-16.556 7.939-22.225 5.288-5.669 12.286-8.528 20.973-8.528 9.132 0 16.18 2.749 21.277 8.242 5.096 5.494 7.584 13.019 7.584 22.561 0 9.507-2.528 17.067-7.726 22.676-5.198 5.609-12.135 8.413-21.135 8.413-9.132 0-16.18-2.834-21.307-8.493-5.127-5.66-7.61-13.194-7.61-22.59m107.75-15.438c-2.994-2.378-6.068-3.512-9.375-3.512-5.562 0-9.94 1.696-12.964 5.098-3.024 3.401-4.551 8.277-4.551 14.624 0 12.401 6.027 18.562 18.081 18.562 1.345 0 3.004-.401 4.97-1.204 1.967-.803 3.247-1.605 3.843-2.423V81.106h-.005zm0 45.403v-3.622c-1.164 1.264-3.12 2.367-5.896 3.31a26.506 26.506 0 0 1-8.596 1.42c-8.393 0-14.987-2.638-19.795-7.911-4.809-5.273-7.216-12.633-7.216-22.064 0-9.432 2.761-17.057 8.283-23.078 5.52-6.02 12.438-8.88 20.74-8.88 4.571 0 8.722.929 12.464 2.785v-23.9l14.036-3.342v85.287h-14.026m39.307-36.046h29.529c-.976-8.73-5.835-13.044-14.597-13.044-8.015 0-12.995 4.365-14.937 13.044h.005zm42.448 10.47h-42.953c.263 4.75 1.906 8.448 4.94 11.037 3.034 2.589 7.114 3.953 12.236 3.953 6.396 0 11.265-1.655 14.592-4.956l5.45 10.635c-4.944 3.979-12.316 6.02-22.125 6.02-9.172 0-16.423-2.659-21.752-7.996-5.33-5.338-8.004-12.763-8.004-22.31 0-9.392 2.932-17.058 8.787-22.837 5.856-5.78 12.884-8.744 21.085-8.744 8.717 0 15.674 2.583 20.994 7.74 5.319 5.158 7.918 11.74 7.918 19.717 0 1.706-.395 4.29-1.178 7.74" fill="#231F20"></path><path d="M43.606 94.73l-8.073-54.995L2.4 19.2l10.754 51.877L43.6 94.74l.006-.01zm9.21 62.83l-5.688-38.748-29.07-24.143 7.804 37.579 26.95 25.312h.004zm-22.571-4.268l5.754 27.714L59.998 206.4l-4.11-27.962-25.643-25.141v-.005zm77.71-12.008l-12.263-9.334.091 2.19c.02.44-.193.86-.562 1.105l-9.291 6.215 10.055 8.184c.051.04.066.07.092.101.05.05.1.101.141.162a1.776 1.776 0 0 1 .147.277.965.965 0 0 1 .035.116.96.96 0 0 1 .036.202l.425 9.657 11.286 9.465-.238-28.335.045-.005zm42.04-29.985l-2.399 27.634-7.945-5.51.86-14.092c0-.151-.015-.212-.02-.262-.005-.05-.005-.08-.016-.116a1.259 1.259 0 0 0-.318-.575l-.213-.182-17.09-11.251.253-12.346 26.893 16.7" fill="#123D10"></path><path d="M90.87 73.753L88.632 21.6 38.4 40.847l8.21 55.865 44.264-22.964-.005.005zm2.605 60.767L91.83 96.077l-41.836 23.74 5.868 39.968 37.612-25.27v.005zm.845 19.484l-35.579 25.38 4.32 29.416 32.498-25.814-1.24-28.982zm16.44-11.721l.238 28.436 25.355-20.165 1.69-27.73-27.283 19.459zm63.235-45.107l-3.556 26.248-20.003 15.938 2.348-27.06L174 97.161" fill="#33B652"></path><path d="M97.309 151.405l-.05-.278-.036-.116c-.026-.06-.05-.121-.086-.177l-.061-.1a1.083 1.083 0 0 0-.142-.162l-.07-.076-10.082-8.216 9.255-6.216c.369-.245.582-.665.563-1.106l-.092-2.193 12.275 9.348.238 28.377-11.297-9.479-.405-9.6-.01-.006zm-49.416-31.798l5.694 38.807-26.975-25.351-7.811-37.635 29.097 24.179h-.005zm46.073 14.745l-37.664 25.315-5.876-40.04 41.893-23.784 1.647 38.514v-.005zM89.123 21.24l2.239 52.248-44.325 23.006-8.222-55.966 50.303-19.283.005-.005zM36.237 40.467l8.08 55.078-30.475-23.699-10.77-51.904 33.165 20.565v-.04zm.471 141.433l-5.76-27.756 25.668 25.18 4.114 28.003-24.022-25.432v.005zm59.355 1.01L63.52 208.773l-4.326-29.47 35.627-25.426 1.24 29.035zm40.854-32.49l-25.389 20.202-.238-28.489 27.32-19.494-1.693 27.781zm3.546-16.18l.862-14.113c0-.151-.016-.212-.02-.262-.006-.051-.006-.081-.016-.117a1.261 1.261 0 0 0-.319-.576l-.213-.182-17.107-11.268.254-12.364 26.919 16.725-2.401 27.675-7.953-5.518h-.006zm10.562 4.978l2.35-27.11 21.246-15.169-3.586 26.296-20.03 15.967.02.016zm26.53-45.103l-.041-.203a.944.944 0 0 0-.066-.202l-.05-.116a1.263 1.263 0 0 0-.127-.187l-.076-.09a1.292 1.292 0 0 0-.203-.163l-.101-.075-29.077-16.069a1.265 1.265 0 0 0-1.282.03l-24.538 14.957a.415.415 0 0 0-.101.086c-.03.036-.092.066-.127.101a.682.682 0 0 0-.101.137l-.091.121c-.03.05-.051.111-.076.167-.026.055-.041.086-.051.131-.01.046-.02.126-.03.192-.01.066-.02.081-.02.126l-.28 12.987-9.979-6.58a1.275 1.275 0 0 0-1.368-.025l-14.36 8.757-.624-14.562v-.278c-.01-.05-.03-.091-.05-.132l-.071-.151a.557.557 0 0 0-.087-.127l-.1-.126a.585.585 0 0 0-.127-.101c-.046-.025-.051-.05-.082-.07L79.326 82.633l13.991-7.261c.44-.227.71-.692.684-1.182l-2.35-54.825c-.006-.066-.02-.132-.03-.202a1.184 1.184 0 0 0-.143-.395 1.273 1.273 0 0 0-.212-.262l-.188-.152c-.03-.02-.066-.03-.101-.05L53.237.129a1.27 1.27 0 0 0-.937-.07L.884 16.025c-.168.07-.254.11-.34.166-.035.026-.05.05-.08.076a.837.837 0 0 0-.183.172c-.05.07-.066.101-.102.152-.035.05-.065.1-.09.151a.788.788 0 0 0-.051.202c-.01.04-.03.081-.036.127-.005.08 0 .151.005.212.005.06 0 .116.01.177l11.474 55.3c.06.293.223.555.466.747L27.53 85.615l-11.271 5.346c-.071.051-.091.051-.101.051l-.244.202-.09.101c-.054.068-.1.14-.138.217a1.269 1.269 0 0 0-.136.42 1.63 1.63 0 0 0 .015.374l8.632 41.636c.053.256.184.49.375.667l10.84 10.182-7.183 4.381c-.091.05-.177.126-.253.202a1.412 1.412 0 0 0-.355.738c-.015.121-.005.243.015.364l6.687 32.253c.05.227.152.44.32.606l27.05 28.64c.04.041.086.077.132.112.131.101.223.152.319.192.177.066.33.101.481.101a1.27 1.27 0 0 0 .375-.066l.182-.065c.051-.026.092-.066.137-.101.046-.036.071-.03.101-.051l34.787-27.64c.319-.252.496-.647.48-1.05l-.81-18.985 11.62 9.752.274.177.168.05c.122.042.25.064.38.066.126 0 .253-.025.37-.06l.172-.06c.065-.031.116-.077.172-.117l27.962-22.233c.284-.228.507-.556.477-.92l.85-13.92 8.486 5.89c.08.041.101.067.126.077l.152.06.102.04c.111.031.228.051.344.051.117 0 .253-.025.375-.06l.172-.05c.071-.036.127-.082.193-.122l22.81-18.12c.254-.202.426-.505.472-.829l4.037-29.782.01-.243" fill="#231F20"></path></g><path d="M326.38 218.217h-19.44v-31.273h5.666v26.524h13.773v4.749zm3.505-31.273h5.665v31.273h-5.665v-31.273zm10.423 31.273v-31.273h6.932l9.284 22.66h.367l9.284-22.66h6.932v31.273h-5.436v-21.485h-.29l-8.643 21.393h-4.061l-8.643-21.439h-.29v21.531h-5.436zm37.572-31.273h5.665v31.273h-5.665v-31.273zm18.715 4.75h-9.666v-4.75h24.951v4.75h-9.666v26.523h-5.62v-26.524zm39.145 26.523h-20.46v-31.273h20.34v4.75h-14.675v8.49h13.62v4.748h-13.62v8.536h14.796v4.749zm14.867 0h-10.598v-31.273h10.812q4.657 0 8.009 1.87 3.351 1.871 5.153 5.368 1.802 3.497 1.802 8.368 0 4.886-1.81 8.399-1.809 3.512-5.206 5.39-3.398 1.878-8.162 1.878zm-4.932-26.371v21.47h4.657q3.268 0 5.451-1.2 2.184-1.198 3.283-3.588 1.1-2.39 1.1-5.978 0-3.588-1.1-5.963-1.1-2.374-3.245-3.558-2.145-1.183-5.321-1.183h-4.825zm61.31 10.735q0 5.054-1.885 8.65-1.886 3.596-5.13 5.505-3.246 1.909-7.353 1.909-4.108 0-7.353-1.917-3.245-1.916-5.13-5.512-1.886-3.596-1.886-8.635 0-5.055 1.885-8.65 1.886-3.597 5.131-5.506 3.245-1.908 7.353-1.908 4.107 0 7.352 1.908 3.245 1.91 5.13 5.505 1.887 3.596 1.887 8.65zm-5.695 0q0-3.558-1.107-6.01-1.107-2.45-3.062-3.71-1.954-1.26-4.504-1.26t-4.505 1.26q-1.955 1.26-3.062 3.71-1.107 2.452-1.107 6.01t1.107 6.008q1.107 2.451 3.062 3.71 1.955 1.26 4.505 1.26t4.504-1.26q1.955-1.259 3.062-3.71 1.107-2.45 1.107-6.008zm15.34 15.636h-5.665v-31.273h20.034v4.75h-14.37v8.49h12.995v4.748H516.63v13.285zm23.784 0h-5.665v-31.273h20.034v4.75h-14.37v8.49h12.995v4.748h-12.994v13.285zm38.58 0h-20.461v-31.273h20.34v4.75h-14.675v8.49h13.62v4.748h-13.62v8.536h14.796v4.749zm9.935 0h-5.666v-31.273h11.728q3.603 0 6.054 1.252 2.451 1.253 3.71 3.505 1.26 2.252 1.26 5.245 0 3.008-1.274 5.215-1.275 2.206-3.75 3.405-2.473 1.199-6.077 1.199h-8.352v-4.704h7.589q2.107 0 3.45-.587 1.345-.588 1.994-1.726t.649-2.802q0-1.664-.657-2.848-.657-1.183-2-1.802-1.344-.618-3.467-.618h-5.191v26.539zm4.306-14.17h6.184l7.742 14.17h-6.322l-7.604-14.17z" fill="#D61111" fill-rule="nonzero"></path></g></svg>