<svg viewBox="0 0 350 350" xmlns="http://www.w3.org/2000/svg" xlink="http://www.w3.org/1999/xlink"><defs><path d="M.281 7.101L24.524.503l27.244 100.594-24.244 6.599z"/><path d="M.511 17.43L63.745.217l9.605 35.461-63.234 17.213z"/><path d="M152.87 28.743l-16.79 81.435L.402 82.067 17.192.632z"/><path d="M.467 6.159L20.927.593l25.83 95.429-20.46 5.565z"/><path d="M.079 15.813L56.959.329l8.849 32.665-56.88 15.485z"/><path d="M.344 6L21.708.188l27.016 99.811-21.364 5.811z"/><path d="M.567 17.017L60.925.6l9.386 34.678L9.953 51.696z"/></defs><g stroke="none" stroke-width="1" fill="none" fill-rule="evenodd"><g transform="translate(0 48)"><g transform="translate(.295 .024)"><path d="M4.169 5.808a4.425 4.425 0 0 1 .128-.537c.054-.178.119-.356.195-.531l.006-.012c.078-.179.167-.355.265-.525l.008-.014a5.56 5.56 0 0 1 .314-.482l.032-.043c.104-.14.214-.271.329-.396.024-.028.049-.054.074-.08.092-.096.188-.181.284-.266.044-.038.086-.08.13-.115.138-.11.279-.21.423-.294a2.518 2.518 0 0 1 .494-.22 1.8 1.8 0 0 1 .402-.083 1.312 1.312 0 0 1 .38.022c.116.025.225.066.324.124L4.252.197 4.24.19a1.079 1.079 0 0 0-.312-.115L3.91.07 3.882.063a1.261 1.261 0 0 0-.284-.016c-.016 0-.033.003-.05.005l-.032.002c-.029.004-.057.005-.085.01-.065.01-.131.023-.199.041-.028.008-.057.021-.085.03-.027.008-.052.018-.079.028-.034.012-.067.02-.1.034a2.761 2.761 0 0 0-.315.158 3.418 3.418 0 0 0-.423.293c-.045.037-.087.077-.131.115-.066.058-.135.112-.199.175l-.085.091-.075.08c-.028.032-.058.06-.086.092a4.813 4.813 0 0 0-.182.224l-.06.08-.031.043-.06.08a4.558 4.558 0 0 0-.255.402l-.008.014a5.246 5.246 0 0 0-.265.525l-.006.013-.005.012a5.96 5.96 0 0 0-.16.414l-.03.105-.015.045-.023.08a4.508 4.508 0 0 0-.063.258c-.012.052-.018.103-.027.154l-.014.082c-.003.025-.01.05-.013.076-.019.148-.03.295-.028.439.002.711.252 1.212.656 1.448L4.77 7.853c-.404-.235-.655-.736-.657-1.448 0-.168.015-.34.042-.515l.014-.082" transform="translate(215.793 61.061)" fill="#C6DEF2" fill-rule="nonzero"/><path d="M2.78.389c1.242-.72 2.25-.14 2.254 1.288.004 1.432-.997 3.175-2.24 3.894-1.244.72-2.256.142-2.259-1.29-.004-1.427 1-3.173 2.244-3.892" transform="translate(219.373 63.186)" fill="#D8ECFC" fill-rule="nonzero"/><path d="M.038 4.125h4.654L7.042.098H2.388z" transform="scale(-1 1) rotate(-30.16 276.18 483.326)" fill="#032747" fill-rule="nonzero"/><path d="M25.457 44.371h4.653L4.816.168H.163z" transform="scale(-1 1) rotate(-30.16 205.597 548.222)" fill="#084478" fill-rule="nonzero"/><path d="M.54 44.64h4.653L30.486.435l-4.653.001z" transform="matrix(.00284 1 1 -.00284 202.763 177.214)" fill="#05345E" fill-rule="nonzero"/><path d="M.038 4.125h4.654L7.042.098H2.388z" transform="scale(-1 1) rotate(-30.16 313.034 621.65)" fill="#032747" fill-rule="nonzero"/><path d="M25.457 44.371h4.653L4.816.168H.163z" transform="scale(-1 1) rotate(-30.16 242.451 686.545)" fill="#084478" fill-rule="nonzero"/><path d="M.54 44.64h4.653L30.486.435l-4.653.001z" transform="matrix(.00284 1 1 -.00284 267.268 214.455)" fill="#05345E" fill-rule="nonzero"/><path d="M66.934 114.322h3.101L3.463.221H.361z" transform="scale(1 -1) rotate(30.16 467.716 318.113)" fill="#05345E" fill-rule="nonzero"/><path d="M.652 4.428h3.101L6.08.362H2.979z" transform="scale(1 -1) rotate(30.16 224.238 379.964)" fill="#084478" fill-rule="nonzero"/><path d="M2.499 4.673h131.86L132.033.606H.173z" transform="matrix(-.00283 1 1 .00283 218.99 57.06)" fill="#032747" fill-rule="nonzero"/><g><g transform="scale(1 -1) rotate(15.189 752.787 951.723)"><mask fill="#fff"><use href="#path-1"/></mask><path fill="#D8ECFC" fill-rule="nonzero" mask="url(#mask-2)" d="M47.783 101.097h3.986L4.267 7.101H.281z"/></g><g transform="scale(1 -1) rotate(15.192 384.4 855.87)"><mask fill="#fff"><use href="#path-3"/></mask><path fill="#D8ECFC" fill-rule="nonzero" mask="url(#mask-4)" d="M9.843 51.88h3.985l50.19-50.653-3.985.001z"/></g><g transform="scale(-1 1) rotate(78.322 -108.388 -131.362)"><mask fill="#fff"><use href="#path-5"/></mask><path fill="#FFF" fill-rule="nonzero" mask="url(#mask-6)" d="M35.275 89.292h105.112l-22.389-67.775-105.112.001z"/></g></g><g transform="translate(188.285 1.393)"><g transform="scale(1 -1) rotate(15.181 482.51 37.56)"><mask fill="#fff"><use href="#path-7"/></mask><path fill="#B3D0E5" fill-rule="nonzero" mask="url(#mask-8)" d="M45.863 96.022h.894L1.361 6.159l-.893-.001z"/></g><g transform="scale(1 -1) rotate(15.193 644.141 26.875)"><mask fill="#fff"><use href="#path-9"/></mask><path fill="#D8ECFC" fill-rule="nonzero" mask="url(#mask-10)" d="M8.867 48.252h.893L57.021.556h-.895z"/></g><g transform="scale(1 -1) rotate(15.181 650.09 242.403)"><mask fill="#fff"><use href="#path-11"/></mask><path fill="#C6DEF2" fill-rule="nonzero" mask="url(#mask-12)" d="M47.829 99.999h.895L1.237 6l-.893-.001z"/></g><g transform="scale(1 -1) rotate(15.181 284.148 146.982)"><mask fill="#fff"><use href="#path-13"/></mask><path fill="#D8ECFC" fill-rule="nonzero" mask="url(#mask-14)" d="M9.892 51.469h.894L60.986.826l-.894.001z"/></g><path d="M60.446 135.737l20.338-98.644L22.707 3.48 2.369 102.124l58.077 33.613zM21.377.17l61.677 35.697L61.781 139.05.102 103.354 21.377.169z" transform="translate(23.113 16.869)" fill="#C6DEF2" fill-rule="nonzero"/></g><path d="M3.042 4.641h3.102L3.796.614H.693z" transform="scale(1 -1) rotate(30.16 547.155 416.967)" fill="#05345E" fill-rule="nonzero"/><path d="M.171 61.027h3.102L38.096.187h-3.102z" transform="scale(1 -1) rotate(30.154 555.01 355.618)" fill="#084478" fill-rule="nonzero"/><path d="M35.489 60.95h4.654L5.339.102.686.1z" transform="scale(-1 1) rotate(89.829 -200.416 -23.28)" fill="#032747" fill-rule="nonzero"/><path d="M3.042 4.641h3.103L3.795.614.692.615z" transform="scale(1 -1) rotate(30.171 470.916 437.274)" fill="#05345E" fill-rule="nonzero"/><path d="M.176 61.03h3.103L38.09.185 34.988.184z" transform="scale(1 -1) rotate(30.165 478.75 375.958)" fill="#084478" fill-rule="nonzero"/><path d="M35.489 60.95h4.654L5.339.102.686.1z" transform="matrix(-.00299 1 1 .00299 223.097 136.19)" fill="#032747" fill-rule="nonzero"/><path d="M1.625 2.304h4.18L4.762.516.582.515z" transform="scale(1 -1) rotate(30.158 475.262 429.832)" fill="#05345E" fill-rule="nonzero"/><path d="M.1 61.299h4.18L39.097.458h-4.179z" transform="scale(1 -1) rotate(30.158 488.548 367.186)" fill="#084478" fill-rule="nonzero"/><path d="M35.406 60.85h2.066L2.65.01H.584z" transform="matrix(-.00269 1 1 .00269 219.845 142.17)" fill="#032747" fill-rule="nonzero"/><path d="M66.943 114.317h3.102L3.453.232H.352z" transform="scale(1 -1) rotate(30.171 569.039 418.732)" fill="#05345E" fill-rule="nonzero"/><path d="M.652 4.429h3.102L6.081.362H2.979z" transform="scale(1 -1) rotate(30.165 325.686 480.675)" fill="#084478" fill-rule="nonzero"/><path d="M2.502 4.675h131.855L132.031.609.175.608z" transform="matrix(-.00283 1 1 .00283 283.368 94.398)" fill="#032747" fill-rule="nonzero"/><path d="M4.169 5.809c.028-.163.065-.328.114-.491l.014-.046c.054-.179.119-.357.195-.532l.006-.01c.078-.18.167-.356.265-.527l.008-.014a5.56 5.56 0 0 1 .314-.482l.032-.043a4.93 4.93 0 0 1 .403-.476 4.84 4.84 0 0 1 .284-.266c.044-.038.086-.079.13-.115.138-.11.279-.21.423-.294a2.512 2.512 0 0 1 .494-.219 1.804 1.804 0 0 1 .402-.084 1.34 1.34 0 0 1 .361.018l.019.005c.116.025.225.065.324.123L4.252.197 4.24.191a1.076 1.076 0 0 0-.232-.098C3.982.086 3.955.08 3.928.075L3.91.07 3.882.064a1.261 1.261 0 0 0-.284-.017l-.05.005a.498.498 0 0 0-.032.003c-.029.003-.057.004-.085.008-.065.01-.131.025-.199.043-.028.008-.057.02-.085.03-.027.008-.052.017-.079.027-.034.012-.067.02-.1.034a2.761 2.761 0 0 0-.315.158 3.424 3.424 0 0 0-.423.294c-.045.036-.087.077-.131.115-.066.058-.135.111-.199.175-.029.028-.056.06-.085.09l-.075.08c-.028.032-.058.06-.086.093a4.793 4.793 0 0 0-.182.223l-.06.08-.031.043-.06.081a5.016 5.016 0 0 0-.255.401l-.008.014a5.246 5.246 0 0 0-.265.526l-.006.012-.005.012a4.565 4.565 0 0 0-.159.414l-.031.106-.015.045-.023.08a4.349 4.349 0 0 0-.063.257c-.012.052-.018.103-.027.154l-.014.082c-.003.026-.01.05-.013.076-.019.149-.03.296-.028.44.002.71.252 1.211.656 1.447L4.77 7.854c-.404-.236-.655-.737-.657-1.45 0-.167.015-.34.042-.514l.014-.081" transform="translate(286.938 100.476)" fill="#C6DEF2" fill-rule="nonzero"/><path d="M2.78.388c1.243-.72 2.25-.14 2.254 1.288.005 1.432-.996 3.176-2.24 3.895-1.243.72-2.256.142-2.259-1.29C.532 2.853 1.536 1.107 2.779.388" transform="translate(290.516 102.6)" fill="#D8ECFC" fill-rule="nonzero"/><path d="M36.129 23.015a2.28 2.28 0 0 1 .057-.246l.007-.024c.027-.089.06-.178.097-.266.001-.001.003-.003.003-.005.04-.09.084-.178.134-.264l.003-.007c.048-.083.1-.163.157-.24l.016-.021a2.55 2.55 0 0 1 .202-.239c.025-.025.051-.047.077-.071.107-.103.22-.197.34-.266a1.28 1.28 0 0 1 .21-.096c.013-.005.026-.01.039-.013a.895.895 0 0 1 .185-.041l.016-.002a.644.644 0 0 1 .181.01.52.52 0 0 1 .172.063L2.259.45 2.252.447a.423.423 0 0 0-.115-.049C2.124.394 2.11.392 2.097.39l-.01-.002C2.083.386 2.08.384 2.074.384a.687.687 0 0 0-.142-.009l-.026.003c-.006 0-.01 0-.016.002l-.042.004a.83.83 0 0 0-.099.02l-.044.017a.44.44 0 0 0-.04.013c-.016.006-.032.01-.049.017a1.353 1.353 0 0 0-.159.08c-.12.069-.233.161-.342.265-.01.01-.023.015-.034.027-.015.013-.028.03-.042.044L1 .907.957.954a2.37 2.37 0 0 0-.09.113l-.03.039-.016.021-.03.041a2.651 2.651 0 0 0-.127.2l-.003.006c-.016.028-.032.055-.046.083l-.049.096-.039.086-.002.005-.003.006a2.088 2.088 0 0 0-.042.102c-.013.036-.026.07-.037.106-.007.017-.012.035-.017.053a.949.949 0 0 1-.006.022l-.013.04a2.213 2.213 0 0 0-.031.13c-.006.026-.01.052-.014.077-.001.014-.004.027-.006.041l-.007.037c-.01.076-.015.15-.015.222 0 .353.127.602.327.72l35.767 20.835c-.201-.117-.327-.366-.327-.719 0-.084.007-.171.02-.258l.008-.042" transform="translate(231.1 146.396)" fill="#C6DEF2" fill-rule="nonzero"/><path d="M1.39.199c.623-.361 1.127-.073 1.13.645.001.714-.5 1.583-1.123 1.944-.62.359-1.128.073-1.13-.64C.265 1.428.769.557 1.39.197" transform="translate(266.933 167.562)" fill="#D8ECFC" fill-rule="nonzero"/><path d="M11.811 2.956C10.766 6.557 9.9 7.489 8.32 9.102 7.136 10.31.745 14.385.291 15.565c-.346.899-.363 2.39 1.039 3.288 1.49.957 4.348.92 6.326.619 4.149-.635 7.386-3.065 10.687-5.528.336.34 1.82-.165 3.21-.98 1.132-.667 1.706-1.236 1.85-2.31.098-.73-.056-2.343-.15-3.133-.26-2.154-1.17-3.847-2.13-6.031l-4.11-.931-5.202 2.397z" transform="translate(144.441 196.118)" fill="#326CE5"/><path d="M.695 7.842c-.112.856.122 1.909 1.209 2.606 1.49.956 4.348.92 6.326.62 4.149-.636 7.387-3.066 10.687-5.529.336.342 1.82-.165 3.21-.98 1.133-.667 1.706-1.235 1.85-2.31.051-.383.033-1.009-.008-1.632-.52 1.59-3.843 3.17-5.44 3.23-3.302 2.461-6.552 4.752-10.7 5.386-1.977.302-4.838.338-6.328-.617a2.748 2.748 0 0 1-.806-.774" transform="translate(143.867 204.525)" fill="#D3DDDE"/><path d="M11.811 2.959C10.767 6.559 9.9 7.492 8.32 9.105 7.137 10.313.745 14.388.293 15.568c-.347.898-.364 2.387 1.038 3.287 1.488.956 4.349.92 6.325.619 4.149-.635 7.387-3.066 10.688-5.527.335.34 1.82-.166 3.209-.981 1.134-.667 1.707-1.235 1.85-2.309.099-.73-.056-2.343-.15-3.133-.26-2.154-1.17-3.848-2.129-6.031L17.014.56 11.81 2.959z" transform="translate(124.237 191.396)" fill="#326CE5"/><path d="M.695 7.839c-.111.857.122 1.91 1.209 2.608 1.489.955 4.349.918 6.327.618 4.147-.634 7.386-3.066 10.686-5.527.335.34 1.82-.165 3.21-.98 1.134-.667 1.706-1.236 1.85-2.31.052-.383.033-1.01-.01-1.632-.519 1.59-3.84 3.168-5.438 3.23-3.301 2.46-6.552 4.752-10.7 5.385-1.978.303-4.839.339-6.328-.619a2.703 2.703 0 0 1-.806-.773" transform="translate(123.664 199.803)" fill="#BECBCC"/><path d="M22.928 3.281c1.027 4.844 2.26 9.043 2.63 13.936.697 9.213-9.422 24.395-10.012 34.39l.372 7.252c.76 7.527-.585 17.241-2.38 29.387-1.97 4.494-12.215 5.348-13.351 4.086-.21-.304 1.776-42.601 1.171-47.847C.77 29.613 6.734 16.085 6.225.231l16.703 3.05z" transform="translate(133.883 106.598)" fill="#032747"/><path d="M18.76.446c.88 7.818 2.73 11.548 1.21 19.923-1.515 8.352-2.648 17.747-3.148 26.215l1.217 10.923c.761 7.527-.913 17.712-.268 29.292 1.394 5.226-11.852 8.62-13.257 5.593L1.648 43.557C1.06 28.684.593 16.85.083.997L18.76.447z" transform="translate(149.233 111.898)" fill="#05345E"/><path d="M9.727 32.803c-2.542 2.809-7.173 1.189-9.08-.873-1.163-1.257-.44-5.04.114-6.881C3.878 19.787 16.46 2.489 20.54 1.017c4.811-1.736 11.086.618 8.14 10.323-1.31 4.324-12.714 14.76-18.952 21.463" transform="translate(118.499 54.856)" fill="#C8D8D9"/><path d="M35.434 18.597c1.562 4.848.367 11.375-.235 16.393-.883 7.353-1.577 11.276-1.642 20.45-.02 2.734.944 11.27.577 16.177-7.115 4.46-27.95-1.816-29.335-10.322L.932 25.402C-.103 19.073-1.654-1.065 8.244.273c3.7.501 9.285.275 14.646 3.376 6.838 3.958 12.518 11.707 12.544 14.948" transform="translate(135.61 54.013)" fill="#DCE7E8"/><path d="M23.623 30.253c.762 6.493-5.46 8.817-7.83 6.079L1.602 12.117C-3.336 4.538 7.999-7.425 16.21 8.715c2.688 5.282 7.349 20.664 7.413 21.538" transform="translate(158.746 60.414)" fill="#DCE7E8"/><path d="M9.636.013C6.883 1.528 2.456 5.27.703 6.989c-3.044 2.986 5.062 12.913 8.933 6.069.57-1.008 1.278-1.891 1.999-2.813l-2-10.232z" transform="scale(-1 1) rotate(-32.356 12.183 307.357)" fill="#F0C17D"/><path d="M6.948 1.742C4.843 4.405 1.612 7.028 1.375 10.33c-.089 1.232.53 2.543-.782 4.841l4.62 3.067c.653-1.606.738-2.38 1.109-3.018.515-.89 2.036-.848 3.281-2.783 1.25-1.221 2.74-2.464 2.01-3.206-.401-.41-1.206.194-1.803.617-.597.422-.997.698-1.63 1.127l.245-1.793 2.09-2.71 1.991-3.036c.391-.627-.785-1.973-1.857-2.653-1.986-1.26-2.724-.279-3.701.959" transform="translate(128.87 39.359)" fill="#F0C17D"/><path d="M3.028.176c-.113 4.188 2.15 7.733 3.574 9.57l-3.574 3.411C.022 7.558.154 5.041.245 2.747L3.028.176z" transform="scale(-1 1) rotate(-26.747 43.457 368.126)" fill="#EBF4F5"/><path d="M3.495.31C3.193 2.436 2.143 3.687.657 5.964c.945 1.243 1.89 2.486 2.838 3.727 1.32-3.26 1.435-4.353.622-7.314L3.495.309z" transform="scale(-1 1) rotate(6.894 -562 -1222.186)" fill="#EBF4F5"/><path d="M.695 11.445c.57 3.606 5.19 12.124 8.268 13.66.681.341 2.19.341 2.96.12 1.538-.439 4.567-4.5 5.267-5.671 1.133-1.897.965-3.104.908-6.41l.451-2.85-2.016-8.898C10.983.429 6.14-.071 3.736 1.19 1.319 2.459-.348 4.842.695 11.445" transform="translate(136.654 36.629)" fill="#FFDBA7"/><path d="M.695 17.673c.221-1.93-2.037-5.472.702-9.651C.949 8.467.503 9.11.084 9.81.115 7.72.208 6.565 2.56 5.282c-.665.245-.91.438-1.586.756.946-3.622 8.1-7.07 12.728-5.158 4.46.42 7.528 3.596 8.014 7.307.353 2.681-.11 6.152-.836 9.094-.28 1.135-.014 2.185.082 2.818l-1.258-2.824c.709-2.154-.229-4.81-1.742-4.937-2.21-.185-.85 5.363-1.843 5.257-1.443-.155-.785-2.687-3.71-5.986-2.632-.086-7.74 6.576-11.714 6.064" transform="translate(134.883 32.094)" fill="#261505"/><path d="M12.506 19.82L16.86 3.17c-.765-1.956-4.82-3.418-6.344-2.137-3.349 8.533-8.392 15.316-9.443 21.831-.605 3.756-2.253 9.434 2.1 11.159 3.453 1.367 6.19-4.127 7.418-7.866.535-1.628 1.417-4.432 1.915-6.338" transform="translate(118.095 54)" fill="#C8D8D9"/><path d="M5.558 1.468C6.676 2.358 9.073 5.69 9.128 9c.022 1.235.632 1.724 1.669 4.02 1.036 2.296-4.459 3.272-4.96 2.53-.457-.682-1.203-2.188-1.55-2.925-.392-.827-.716-1.737-1.015-2.79-.37-1.3-.653-2.66-1.26-3.872-.4-.797-.984-1.472-1.422-2.244-.753-1.328.1-2.441 1.234-3.18 1.134-.74 2.616.037 3.734.928" transform="translate(149.103 43.148)" fill="#F0C17D"/><path d="M4.169.171l1.273.588 3.88 5.024-6.34 2.575L.147 2.445z" transform="translate(154.28 55.176)" fill="#F0C17D"/><path d="M20.149 18.085L8.89 1.144C5.563-.593 1.025 1.42.014 5.139c4.679 11.2 9.842 24.72 14.763 31.873 2.836 4.125 6.239 6.043 9.98 3.703 4.009-2.508 1.63-11.05-.634-15.738-.985-2.044-2.497-4.76-3.974-6.892" transform="translate(153.868 56.116)" fill="#EBF4F5"/><path d="M3.115 1.695s-.011.938-1.99 2.46c-2.097 1.614.55 1.565 1.99.436C4.556 3.461 7.124.6 7.124.6L3.115 1.695z" transform="scale(1 -1) rotate(-42.934 15.013 -217.832)" fill="#F0C17D"/><path d="M14.59 6.04c-.735 1.229-3.714 4.048-6.98 4.539-1.22.183-2.128.332-4.263 1.663C1.212 13.575.034 8.036.703 7.442c.67-.595 1.336-.756 1.547-.894.858-.566.713-1.81 2.415-3.635C6.366 1.087 7.006.127 7.8.797c.438.371-.101 1.22-.476 1.85-.374.63-1.182 1.568-.996 1.716.187.147.868.037 1.765-.383 2.237-1.044 2.401-1.659 3.616-2.58 1.214-.924 2.427-.222 3.306.807.88 1.03.309 2.604-.426 3.833" transform="translate(97.924 59.877)" fill="#F0C17D"/><path d="M11.811 2.955c1.045 3.602 1.913 4.534 3.49 6.146 1.185 1.21 7.576 5.284 8.03 6.464.346.899.363 2.388-1.039 3.287-1.49.958-4.349.92-6.327.62-4.148-.636-7.384-3.066-10.685-5.529-.337.341-1.821-.164-3.21-.98C.937 12.296.363 11.728.219 10.654c-.097-.73.057-2.343.15-3.133.26-2.155 1.17-3.847 2.13-6.032L6.61.558l5.201 2.397z" transform="translate(45.574 200.673)" fill="#473148"/><path d="M23.623 7.843c.11.855-.123 1.909-1.21 2.605-1.49.956-4.349.92-6.327.62-4.148-.636-7.385-3.066-10.686-5.529-.336.343-1.821-.164-3.21-.98C1.058 3.892.485 3.324.34 2.25.288 1.867.306 1.241.349.618c.52 1.59 3.841 3.17 5.44 3.23 3.3 2.46 6.551 4.752 10.7 5.385 1.976.302 4.837.338 6.327-.617.352-.227.616-.492.807-.773" transform="translate(45.453 209.08)" fill="#D3DDDE"/><path d="M11.811 2.958c1.045 3.6 1.913 4.534 3.49 6.146 1.184 1.208 7.576 5.284 8.029 6.463.346.9.363 2.388-1.039 3.288-1.489.955-4.348.92-6.326.619-4.148-.635-7.386-3.066-10.687-5.528-.335.341-1.82-.165-3.209-.98C.936 12.299.362 11.73.22 10.657c-.099-.73.056-2.344.15-3.133.26-2.155 1.17-3.848 2.13-6.032L6.608.56l5.202 2.398z" transform="translate(65.778 195.951)" fill="#322333"/><path d="M23.623 7.838c.111.858-.123 1.91-1.21 2.608-1.488.956-4.348.919-6.326.62C11.939 10.43 8.7 7.998 5.4 5.536c-.335.341-1.82-.164-3.21-.98C1.058 3.89.485 3.322.34 2.248.29 1.865.307 1.238.35.616c.52 1.59 3.84 3.168 5.439 3.23 3.302 2.46 6.552 4.752 10.7 5.385 1.978.302 4.838.338 6.327-.619.354-.225.616-.49.807-.774" transform="translate(65.657 204.358)" fill="#BECBCC"/><path d="M2.78 3.28C1.751 8.125.518 12.323.148 17.215c-.697 9.214 9.423 24.396 10.012 34.39l-.372 7.253c-.761 7.527.585 17.24 2.38 29.387 1.97 4.494 12.215 5.348 13.352 4.086.21-.304-1.777-42.6-1.172-47.847.588-14.872-5.376-28.4-4.866-44.253L2.779 3.28z" transform="translate(54.048 111.153)" fill="#294F5E"/><path d="M2.084.446c-.88 7.818-2.73 11.548-1.21 19.922 1.515 8.353 2.648 17.748 3.147 26.215L2.805 57.507c-.762 7.527.913 17.711.267 29.292-1.393 5.226 11.853 8.62 13.258 5.593l2.866-48.836C19.784 28.684 20.25 16.85 20.76.996L2.084.447z" transform="translate(43.561 116.454)" fill="#376375"/><path d="M12.506 35.874c4.066 4.898 7.377 3.241 9.609 1.539 1.574-1.2 1.195-4.493 1.187-6.415-1.494-5.934-8.644-26.106-12.138-28.68C7.044-.72.361-.252.43 9.892c.03 4.52 8 17.778 12.077 25.982" transform="translate(64.146 58.68)" fill="#C8D8D9"/><path d="M1.39 18.597c-1.563 4.849-.368 11.376.234 16.394.883 7.352 1.578 11.275 1.642 20.45.02 2.734-.944 11.27-.577 16.176 7.115 4.46 27.95-1.815 29.336-10.321l3.866-35.894C36.925 19.074 38.477-1.065 28.58.274c-3.702.501-9.287.274-14.647 3.376C7.096 7.607 1.415 15.356 1.39 18.597" transform="translate(41.204 58.568)" fill="#DCE7E8"/><path d="M.695 33.595c.727 5.645 7.683 9.975 9.46 6.818L21.79 12.976c2.462-10.42-9.535-20.165-14.375-2.709-1.584 5.714-4.076 14.2-6.292 20.804-.27.808-.54 1.656-.428 2.524" transform="translate(32.006 69.802)" fill="#C8D8D9"/><path d="M13.2 13.623S3.237 9.077 1.364 7.261C-.509 5.445.783.094 3.625.094c2.841 0 17.65 4.584 23.55 7.724 3.4 1.81 4.677 2.007 3.326 6.402-1.07 3.488-7.905 3.16-11.686 1.84-1.647-.575-3.856-1.493-5.614-2.437" transform="translate(11.66 95.998)" fill="#C8D8D9"/><path d="M7.643 13.388L18.682.205c2.034-.504 5.569 1.969 5.406 3.957-5.013 7.67-7.621 15.715-12.32 20.34-2.706 2.665-6.377 7.294-10.297 4.728-3.109-2.035-.216-7.448 2.119-10.613 1.016-1.379 2.789-3.72 4.053-5.229" transform="translate(79.71 66.85)" fill="#C8D8D9"/><path d="M2.084 7.71c1.11.904 4.87 2.534 8.108 1.876 1.207-.244 2.113-.416 4.573.105 2.46.521 1.68-5.089.849-5.419-.832-.33-1.513-.252-1.76-.31-.998-.237-1.285-1.456-3.506-2.59C8.125.238 7.198-.444 6.678.458c-.285.499.512 1.113 1.079 1.577.566.463 1.645 1.069 1.52 1.271-.125.203-.803.331-1.79.245-2.457-.216-2.822-.737-4.276-1.188C1.755 1.91.854 2.987.378 4.254c-.477 1.268.597 2.554 1.706 3.457" transform="translate(.196 92.92)" fill="#F0C17D"/><path d="M2.644.285c1.565 2.174 5.629 5.864 7.667 7.23 3.54 2.375-2.607 13.626-7.667 7.614-.746-.888-1.603-1.625-2.481-2.399L2.643.285z" transform="scale(-1 1) rotate(42.946 -94.735 -47.569)" fill="#F0C17D"/><path d="M18.76 8.874c.669 3.587-.832 13.167-3.22 15.65-.526.549-1.948 1.056-2.748 1.108-1.595.102-5.808-2.706-6.859-3.573-1.702-1.406-1.948-2.599-3-5.733l-1.38-2.533-1.077-9.06C5.38 1.955 9.776-.144 12.462.237c2.702.38 5.07 2.065 6.297 8.637" transform="translate(54.314 40.383)" fill="#FFDBA7"/><path d="M20.149 13.038c.99-.879 1.76-2.005 2.166-3.268.897-2.79-.192-6.315-2.413-8.22-.104.631-.044 1.502-.146 2.134-.572-1.648-1.194-2.41-2.116-3.11.019 1.456-1.471 1.905-2.888 2.027-1.418.122-3.413.267-4.976.591-3.128.647-6.691 3.914-6.691 3.914S-.203 9.102.754 15.16c.565 2.646 1.58 4.848 3.249 7.374.643.976.647 1.705.536 2.468l1.151-1.957c-1.388-1.79-1.393-4.608-.01-5.235 2.888-1.312 1.734 2.9 3.273 3.455.346-.47.363-1.199.371-1.783.014-1.048-.063-2.173.496-3.06.577-.914 1.704-1.331 2.78-1.437 1.074-.106 2.16.038 3.237-.053 1.594-.135 3.114-.833 4.312-1.893" transform="translate(51.578 33.23)" fill="#F87928"/><path d="M1.39.601l-1.163.867-.04 1.91 1.11 1.502 1.421-.036.671-1.54-.59-1.887-1.41-.816zM.21 1.458L1.385.576l1.423.823.599 1.91-.68 1.557-1.435.035-1.12-1.519.04-1.924z" transform="translate(251.207 86.4)" fill="#999" fill-rule="nonzero"/><path d="M0 3.367l.041-1.911L1.203.589l1.409.817.59 1.886-.67 1.54-1.422.035z" transform="translate(251.394 86.407)" fill="#326CE5" fill-rule="nonzero"/><path d="M.695 6.557l.93-5.962C3.53 2.04 5.16 4.253 6.22 6.83L1.781 8.017a.718.718 0 0 1-.51-.087c-.226-.13-.423-.385-.526-.714a1.425 1.425 0 0 1-.05-.659" transform="translate(254.762 77.868)" fill="#326CE5" fill-rule="nonzero"/><path d="M5.558 4.045l-.012-.03c.11-.155.164-.352.17-.578.012-.479-.228-.967-.583-1.178a.847.847 0 0 0-.153-.071L.242.52a17.773 17.773 0 0 0 2.454 7.864l2.862-4.34m.173-.598c-.005.226-.064.42-.164.58l.007.027L2.7 8.416a17.528 17.528 0 0 1-1.68-3.747C.588 3.308.319 1.906.222.504l4.76 1.65c.053.03.099.052.143.077.376.224.618.719.606 1.216" transform="translate(243.316 87.688)" fill="#999" fill-rule="nonzero"/><path d="M4.863 8.07L.101 7.138C.404 4.504 1.385 2.204 2.873.662l2.64 5.884-.009.023c.244.53.168 1.138-.175 1.398a.555.555 0 0 1-.466.103" transform="translate(243.52 78.042)" fill="#326CE5" fill-rule="nonzero"/><path d="M5.558.717c-1.75-.48-3.47-.32-4.975.475l3.08 5.558c.115.205.26.358.422.452.414.239.834.025.96-.48l.02-.011 1.462-5.657a8.374 8.374 0 0 0-.969-.337M3.661 6.773L.56 1.177C2.074.378 3.803.217 5.558.7c.317.086.648.198.981.34L5.08 6.735h-.018c-.129.515-.559.73-.98.487a1.178 1.178 0 0 1-.42-.45" transform="translate(247.641 76.127)" fill="#999" fill-rule="nonzero"/><path d="M.695 8.193C2.66 7.808 4.38 6.503 5.548 4.51L1.176.89A2.563 2.563 0 0 0 .991.776.636.636 0 0 0 .676.7c-.419.01-.695.468-.632 1.042l.65 6.45M1.167.876L5.57 4.508C4.395 6.518 2.664 7.833.691 8.213L.02 1.742C-.034 1.155.246.693.675.684a.597.597 0 0 1 .32.076l.037.017a.697.697 0 0 1 .134.1" transform="translate(255.162 93.602)" fill="#999" fill-rule="nonzero"/><path d="M1.39.567L5.772 4.18C4.604 6.17 2.884 7.476.918 7.86L.261 1.424C.205.837.48.38.9.37a.641.641 0 0 1 .315.074.842.842 0 0 1 .175.123" transform="translate(254.938 93.929)" fill="#326CE5" fill-rule="nonzero"/><path d="M37.518 41.267c.228-.533.018-1.34-.467-1.799l-.096-.089a2.296 2.296 0 0 0-.148-.138 4.682 4.682 0 0 0-.542-.387c-.091-.06-.187-.12-.282-.187-.603-.44-1.1-.803-1.509-1.24-.146-.17-.22-.466-.262-.638l-.345-.394c.546-1.618.841-3.4.887-5.29a21.994 21.994 0 0 0-.658-5.76c.06-.028.15-.068.225-.105.07-.028.125-.053.155-.065.07-.251.12-.428.296-.532.423-.213.936-.3 1.528-.403.118-.019.214-.025.31-.032.18-.017.356-.03.553-.086.044-.01.099-.036.147-.053.598-.215.848-.9.643-1.557a1.39 1.39 0 0 0-.535-.75c-.29-.169-.54-.197-.768-.118-.128.046-.19.067-.236.087-.192.077-.34.18-.498.283a5.393 5.393 0 0 1-.245.156c-.559.312-1.01.566-1.461.665-.109.017-.23-.034-.336-.095a1.589 1.589 0 0 1-.165-.11l-.442.077c-1.406-3.675-3.67-6.76-6.381-8.677.023-.153.069-.418.08-.498-.112-.27-.197-.451-.172-.724.084-.604.276-1.208.502-1.906a3.95 3.95 0 0 1 .135-.374c.08-.207.157-.407.215-.666.015-.054.031-.13.044-.21.162-.792-.119-1.579-.61-1.862-.49-.285-1.001.043-1.142.728-.042.2-.06.264-.066.318a5.66 5.66 0 0 0-.073.748 9.62 9.62 0 0 1-.028.378c-.081.817-.155 1.5-.314 2.073-.087.207-.268.331-.4.403l-.121.457a10.555 10.555 0 0 0-1.647-.61c-2.343-.646-4.627-.365-6.605.813-.084-.14-.22-.39-.255-.457-.132-.052-.192-.074-.254-.11a.721.721 0 0 1-.255-.259c-.321-.552-.586-1.226-.893-2.004-.065-.164-.107-.291-.15-.413a7.036 7.036 0 0 0-.285-.73c-.027-.063-.07-.144-.108-.219-.19-.379-.388-.608-.604-.745-.304-.175-.576-.178-.79-.016-.403.305-.458 1.102-.122 1.778.086.176.126.25.154.312.134.25.267.44.407.642.069.103.143.208.214.32.432.7.806 1.306 1.07 1.917.084.226.058.509.046.68l.21.534c-2.165 2.06-3.538 5.248-3.858 8.977l-.392-.078c-.18.143-.342.272-.475.264-.487-.083-1.02-.311-1.636-.58a10.73 10.73 0 0 1-.3-.152 3.896 3.896 0 0 0-.572-.257c-.051-.018-.111-.03-.172-.048-.654-.166-1.116.253-1.134.906-.01.562.307 1.129.745 1.382.074.043.152.077.233.1.167.045.227.063.274.079.214.043.393.05.582.056.09 0 .19.006.287.017.642.074 1.169.133 1.648.314.195.112.336.331.421.466l.437.19c.164 3.844 1.382 7.724 3.422 10.931l-.256.384c.026.336.01.55-.053.674-.279.45-.675.857-1.166 1.345-.078.07-.154.134-.226.196a3.282 3.282 0 0 0-.431.42 1.9 1.9 0 0 0-.119.16c-.409.553-.387 1.367-.008 1.883.1.133.215.234.333.302.348.202.752.132 1.024-.22.1-.131.142-.18.17-.228.129-.188.22-.37.312-.569.047-.099.096-.202.153-.3.114-.181.22-.37.321-.552.244-.432.474-.843.77-1.05.116-.08.277-.045.42-.013l.297-.338c1.182 1.399 2.495 2.517 3.88 3.318.845.49 1.719.86 2.605 1.105.54.153 1.087.251 1.625.3.012.075.03.183.051.281.019.108.04.206.044.249.183.191.31.322.38.602.133.645.17 1.352.217 2.176.009.176.009.307.012.43.002.252.002.493.034.774.007.074.025.165.039.253.091.66.386 1.138.735 1.34.12.07.246.107.373.102.492-.013.808-.625.704-1.373a4.477 4.477 0 0 0-.051-.367 7.013 7.013 0 0 0-.185-.77c-.034-.123-.07-.253-.103-.386-.194-.834-.363-1.556-.417-2.216a.794.794 0 0 1 .16-.542c.026-.123.013-.28.002-.424l-.014-.173c1.39-.204 2.68-.755 3.842-1.64 1.148-.88 2.124-2.05 2.89-3.478.107.09.293.244.35.295.191-.044.32-.073.49.026.496.383.933.883 1.44 1.457.11.126.189.229.264.324.147.188.287.367.472.548.039.034.088.08.134.117.184.17.258.225.33.266.439.253.898.136 1.095-.316zm5.535 3.472c-.025 1.136-.464 2.142-1.156 2.663L28.43 57.492c-.696.517-1.63.538-2.473.05L9.639 48.103c-.842-.487-1.574-1.471-1.926-2.596L.83 23.637c-.038-.119-.071-.247-.104-.374-.243-1.022-.18-2.096.175-2.915L8.637 2.523c.398-.92 1.16-1.492 2.015-1.506l16.53-.363a2.502 2.502 0 0 1 1.29.359c.42.243.816.608 1.149 1.053l12.877 17.377a5.522 5.522 0 0 1 1.03 3.268l-.475 22.028z" transform="translate(229.979 61.389)" fill="#326CE5" fill-rule="nonzero"/><path d="M4.863 6.277h.019L6.342.62a9.072 9.072 0 0 0-.61-.228A7.5 7.5 0 0 0 3.748.02a6.506 6.506 0 0 0-.955.022A6.416 6.416 0 0 0 .398.757L3.49 6.323a1.163 1.163 0 0 0 .412.445.745.745 0 0 0 .078.04l.038.015c.373.14.73-.079.846-.546" transform="translate(247.825 76.558)" fill="#326CE5" fill-rule="nonzero"/><path d="M5.558 1.865c-.044-.026-.09-.046-.15-.081L.678.134A17.776 17.776 0 0 0 3.133 8l2.863-4.342-.007-.032c.104-.152.158-.35.163-.575.013-.479-.226-.967-.594-1.185" transform="translate(242.879 88.071)" fill="#326CE5" fill-rule="nonzero"/><path d="M6.253 7.463L5.072 1.079l-.02-.012a1.464 1.464 0 0 0-.259-.618.996.996 0 0 0-.312-.29L4.453.143C4.18-.004 3.888.05 3.7.279L.415 4.078c.86.949 1.803 1.723 2.793 2.297.681.393 1.382.692 2.094.887.317.086.638.158.951.2M5.068 1.055l1.203 6.43a7.485 7.485 0 0 1-.97-.2 9.12 9.12 0 0 1-2.095-.892c-.997-.577-1.943-1.354-2.807-2.31L3.687.253c.197-.229.492-.276.77-.131l.024.012c.118.068.227.172.32.3.135.177.222.393.267.619" transform="translate(247.35 94.375)" fill="#999" fill-rule="nonzero"/><path d="M1.39.219l-.933 5.95c-.037.22-.015.45.052.671.103.329.3.584.525.713a.626.626 0 0 0 .491.076l4.458-1.175C4.923 3.877 3.294 1.664 1.39.22M.442 6.177l.94-5.991c1.92 1.46 3.556 3.683 4.623 6.275L1.54 7.666a.761.761 0 0 1-.511-.095c-.227-.132-.431-.394-.534-.728a1.479 1.479 0 0 1-.053-.666" transform="translate(254.998 78.244)" fill="#999" fill-rule="nonzero"/><path d="M4.863 8.659a14.53 14.53 0 0 0 .576-3.823A17.683 17.683 0 0 0 5.026.7L.802 2.588a.766.766 0 0 0-.357.389c-.194.46-.058 1.099.31 1.467l4.108 4.215zM5.037.672c.305 1.396.448 2.795.42 4.169a14.651 14.651 0 0 1-.58 3.842L.742 4.482C.371 4.084.235 3.427.434 2.964a.71.71 0 0 1 .351-.38L5.037.671z" transform="translate(256.892 86.999)" fill="#999" fill-rule="nonzero"/><path d="M16.675 18.11l-1.17.88-.046 1.92 1.118 1.522 1.435-.033.682-1.552-.594-1.907-1.425-.83zm3.795-8.534l-.95 5.974c-.033.222-.012.452.055.673.104.335.308.597.535.728a.641.641 0 0 0 .5.078l4.468-1.175c-1.059-2.605-2.695-4.827-4.608-6.278zm-8.178-1.144l3.085 5.597c.117.199.262.356.428.453.42.244.851.029.98-.486h.018l1.466-5.682a6.23 6.23 0 0 0-.988-.354c-1.754-.484-3.483-.322-4.989.472zm5.403 24.565l-1.18-6.417a1.672 1.672 0 0 0-.281-.633 1.057 1.057 0 0 0-.32-.3l-.024-.013c-.278-.144-.574-.097-.766.134l-3.293 3.812c.865.97 1.811 1.747 2.807 2.324.68.393 1.386.692 2.096.892.322.089.645.155.961.201zm-4.728-10.119l-.002-.03c.101-.16.16-.354.164-.58.012-.497-.23-.992-.594-1.208a.745.745 0 0 0-.148-.07l-4.755-1.676a17.27 17.27 0 0 0 .785 4.176 17.612 17.612 0 0 0 1.673 3.738l2.877-4.35zm12.87 3.935c.369-1.19.562-2.479.593-3.841a17.636 17.636 0 0 0-.417-4.156l-4.247 1.887a.772.772 0 0 0-.358.393c-.2.463-.062 1.12.31 1.495l4.12 4.222zM8.647 12.61a12.95 12.95 0 0 0-.96 3.71l4.77.962a.65.65 0 0 0 .483-.12c.35-.263.426-.882.186-1.41l.01-.023-2.658-5.91c-.746.763-1.362 1.7-1.831 2.79zm16.162 16.64l-4.385-3.647c-.06-.036-.107-.07-.148-.092l-.037-.016a.59.59 0 0 0-.32-.077c-.428.01-.709.471-.649 1.056l.658 6.464c1.98-.37 3.711-1.687 4.881-3.688zm6.296 2.756c.477.454.685 1.25.46 1.771-.192.446-.647.56-1.075.311a1.223 1.223 0 0 1-.218-.16c-.155-.141-.207-.182-.244-.22-.18-.18-.325-.36-.471-.549l-.235-.29c-.537-.608-.974-1.106-1.422-1.458-.226-.137-.355-.103-.48-.072-.127-.045-.309-.196-.417-.287-1.564 2.901-3.954 4.716-6.74 5.12-.003.06.006.127.01.194.011.143.022.292.037.347-.125.19-.213.329-.201.622.054.661.224 1.383.414 2.214l.106.388c.072.247.137.484.186.77.012.077.026.182.039.275.112.82-.2 1.43-.679 1.445a.699.699 0 0 1-.364-.102c-.344-.2-.634-.67-.714-1.22-.03-.19-.042-.282-.051-.35-.035-.29-.037-.525-.039-.779-.002-.12-.002-.253-.005-.386-.05-.864-.089-1.574-.219-2.221-.075-.29-.203-.421-.326-.55-.061-.098-.08-.201-.1-.304l-.054-.289a10.474 10.474 0 0 1-1.637-.306 11.106 11.106 0 0 1-2.596-1.103c-1.387-.803-2.703-1.923-3.885-3.323l-.301.34c-.147-.034-.309-.07-.43.016-.296.205-.526.616-.77 1.047-.105.185-.208.377-.326.555-.053.101-.102.204-.15.303a3.974 3.974 0 0 1-.312.57c-.03.039-.068.091-.11.14-.326.43-.724.502-1.065.304a1.086 1.086 0 0 1-.328-.302c-.376-.504-.396-1.306-.049-1.78.099-.131.142-.186.174-.23.145-.174.283-.295.431-.42.072-.063.149-.127.227-.196.49-.489.888-.9 1.171-1.348.062-.124.08-.348.048-.676l.261-.387c-2.042-3.22-3.259-7.1-3.424-10.944l-.409-.15c-.116-.183-.26-.41-.426-.505-.512-.2-1.043-.26-1.655-.328a3.678 3.678 0 0 0-.322-.02 2.754 2.754 0 0 1-.577-.06 1.025 1.025 0 0 1-.162-.049 1.322 1.322 0 0 1-.34-.128C.91 17 .593 16.443.608 15.891c.014-.643.471-1.054 1.018-.916.16.041.219.059.27.076.209.064.384.16.569.255.094.049.188.098.292.146.623.27 1.156.503 1.646.587.144.009.302-.123.432-.225l.442.038c.33-3.74 1.699-6.926 3.869-8.984l-.216-.49c.018-.224.042-.514-.046-.748-.264-.611-.638-1.216-1.069-1.918a5.449 5.449 0 0 0-.219-.321c-.135-.205-.267-.395-.4-.638-.032-.059-.066-.136-.101-.208C6.709 1.778 6.763.99 7.16.688c.209-.153.477-.158.744-.004a1.6 1.6 0 0 1 .58.662c.088.171.126.25.155.307.122.265.202.494.283.737.042.122.09.246.136.376.321.815.59 1.491.911 2.043.09.14.178.218.265.268.062.035.123.058.185.078.102.1.237.35.316.488 1.992-1.172 4.273-1.46 6.61-.81a10.58 10.58 0 0 1 1.656.609l.126-.46c.137-.07.318-.2.402-.414.164-.57.232-1.256.32-2.053.012-.148.016-.276.023-.404.014-.243.027-.476.072-.742.011-.051.024-.117.042-.182.162-.805.668-1.13 1.15-.851.482.279.758 1.05.619 1.726-.033.187-.05.264-.06.32-.063.256-.14.451-.218.657-.041.11-.082.217-.123.33-.239.743-.433 1.353-.516 1.957-.023.284.061.47.142.649.017.164-.025.431-.047.584 2.712 1.926 4.978 5.01 6.385 8.693l.403-.105c.087.063.144.103.206.138.11.063.235.114.348.097.452-.104.908-.357 1.43-.65.123-.065.203-.122.276-.171.159-.109.31-.205.5-.29.047-.012.106-.035.164-.053.3-.107.543-.08.77.05.3.197.486.46.584.774.202.649-.046 1.323-.55 1.502a2.308 2.308 0 0 1-.234.081c-.194.06-.37.073-.55.089-.096.007-.192.014-.29.031-.612.105-1.124.192-1.553.401-.181.112-.231.29-.275.459a.287.287 0 0 1-.17.142 3.73 3.73 0 0 1-.235.105c.477 1.93.695 3.864.654 5.775-.04 1.894-.34 3.672-.882 5.293l.328.344c.06.235.131.528.28.705.413.44.913.804 1.493 1.226.119.085.215.146.307.206a3.583 3.583 0 0 1 .69.525l.092.081z" transform="translate(235.918 68.862)" fill="#FFF" fill-rule="nonzero"/><path d="M4.863 1.63l.02.017L6.065 8.03a7.63 7.63 0 0 1-.952-.202 8.907 8.907 0 0 1-2.093-.886C2.03 6.369 1.086 5.594.226 4.646L3.502.848A.594.594 0 0 1 4.265.71l.028.016c.113.066.22.162.312.29.13.178.218.39.258.613" transform="translate(247.54 93.81)" fill="#326CE5" fill-rule="nonzero"/><path d="M4.863.4a17.68 17.68 0 0 1 .413 4.135 14.563 14.563 0 0 1-.575 3.823L.595 4.173C.224 3.775.088 3.136.282 2.676a.689.689 0 0 1 .354-.374L4.863.399z" transform="translate(257.055 87.298)" fill="#326CE5" fill-rule="nonzero"/><path d="M2.084 2.135c.411.392.306.063-.716-1.12L.484.305l1.6 1.83z" transform="translate(249.82 127.563)" fill="#23425E" fill-rule="nonzero"/><path d="M2.78 2.691C1.521 1.347-.018-.11.6.924 1.948 2.154 2.16 2.55 3.607 3.89 4.62 5.079 5.273 6.048 5.042 5.897c.394.39 1.49 1.916 2.134 2.476-1.148-1.687-2.754-3.702-4.588-5.671-.33-.476.074-.085.191-.01" transform="translate(242.787 118.613)" fill="#23425E" fill-rule="nonzero"/><path d="M1.023.41l-.119 1.3c.047-.355.086-.8.12-1.3" transform="translate(259.731 87.291)" fill="#23425E" fill-rule="nonzero"/><path d="M1.028.501C.872 1.36.844 1.722.875 1.77 1 .97 1.103.313 1.028.5" transform="translate(233.817 100.699)" fill="#23425E" fill-rule="nonzero"/><path d="M1.083.465l-.378 1.3c.172-.492.328-.988.378-1.3" transform="translate(236.692 84.868)" fill="#23425E" fill-rule="nonzero"/><path d="M.927 2.706L1.224.179C1.098 0 1.049 1.474.927 2.706" transform="translate(259.731 84.993)" fill="#23425E" fill-rule="nonzero"/><path d="M1.44 1.802A26.25 26.25 0 0 0 .144.755c.406.35.798.69 1.203 1.037.027 0 .05-.002.093.01" transform="translate(238.142 110.77)" fill="#23425E" fill-rule="nonzero"/><path d="M.795 1.33l.562-.707c.12-.218.22-.425.304-.623L.795 1.33z" transform="translate(267.893 96.77)" fill="#23425E" fill-rule="nonzero"/><path d="M1.079 1.637C1.175.91.837.647.704.365c.113.414.126.952.078 1.59.067.013.163-.079.297-.318" transform="translate(275.678 95.67)" fill="#23425E" fill-rule="nonzero"/><path d="M1.853 1.487L.557.85c.336.167.905.446 1.296.637" transform="translate(244.282 114.747)" fill="#23425E" fill-rule="nonzero"/><path d="M.986 1.423c.037-.108.052-.325.044-.553-.044.007-.055.223-.044.553" transform="translate(260.577 105.358)" fill="#23425E" fill-rule="nonzero"/><path d="M.929.965c-.046.029.023.042.01.065.34-.06.445-.092-.01-.065" transform="translate(251.355 62.301)" fill="#23425E" fill-rule="nonzero"/><path d="M.728 1.215l.958-.068c.098-.073.2-.145.197-.214l-1.155.282z" transform="translate(237.94 58.38)" fill="#23425E" fill-rule="nonzero"/><path d="M1.071 1.398c-.027-.102-.037-.139-.065-.237-.468-1.38-.219-.594.065.237" transform="translate(242.205 101.388)" fill="#23425E" fill-rule="nonzero"/><path d="M2.084.863c3.004-.76-4.758 1.822-.252.608-.43.057 3.962-1.707.252-.608" transform="translate(261.971 101.702)" fill="#23425E" fill-rule="nonzero"/><path d="M0 .19l1.296 1.052A37.972 37.972 0 0 0 0 .191" transform="translate(240.26 112.282)" fill="#23425E" fill-rule="nonzero"/><path d="M.794 1.143v.002l.869-.193-.869.19" transform="translate(263.108 102.203)" fill="#23425E" fill-rule="nonzero"/><path d="M1.06 1.95c0-.265-.14-.738-.27-1.24-.026.054.047.332.27 1.24" transform="translate(254.41 67.936)" fill="#23425E" fill-rule="nonzero"/><path d="M.976 1.3L1.06 0C1.013.515.991.933.976 1.3" transform="translate(246.384 99.417)" fill="#23425E" fill-rule="nonzero"/><path d="M1.03.226C.959.914.894 1.147.88 2.089c.018-.087.038-.173.064-.284-.029-.342-.022-.796.087-1.58" transform="translate(254.75 94.967)" fill="#23425E" fill-rule="nonzero"/><path d="M0 1.3L.503.85 1.296 0 0 1.3z" transform="translate(250.475 118.787)" fill="#23425E" fill-rule="nonzero"/><path d="M0 1.303C.603 1.056.985.968 1.286.938 1.06.925 1.93.37 2.262.172c.332-.182.121-.21-2.262 1.13" transform="translate(236.708 69.58)" fill="#23425E" fill-rule="nonzero"/><path d="M.75.761c.242.051.56.21 1.121.528L.672.556C.55.538.51.57.751.761" transform="translate(238.8 111.599)" fill="#23425E" fill-rule="nonzero"/><path d="M1.026.6c-.037.713-.15 1.43-.13 2.14l.065 2.135-.045-2.01C.868 2.139 1 1.365 1.026.6" transform="translate(256.25 95.782)" fill="#23425E" fill-rule="nonzero"/><path d="M0 1.531L1.296.837C.79 1.08.33 1.322 0 1.531" transform="translate(252.11 83.913)" fill="#23425E" fill-rule="nonzero"/><path d="M2.084.32l-1.5 2.02c-.098.157-.213.334-.267.446A36.433 36.433 0 0 0 2.084.32" transform="translate(255.239 113.305)" fill="#23425E" fill-rule="nonzero"/><path d="M1 .996c-.018.003-.02 0-.02 0s.002.003.02 0" transform="translate(237.31 69.405)" fill="#23425E" fill-rule="nonzero"/><path d="M54.063 9.891c-.322.493-.712.707-1.137.84.258-.253.56-.545.954-.93-.012-.011-.007-.039-.02-.048.085.026.172.059.203.138m-19.111 5.717c.93-.364 2.092-.816 3.32-1.295.29-.037.024.148-.746.447.402-.21-1.414.458-2.574.848m7.467-2.35l-.003-.006 1.296-.683-1.293.69m1.479-5.738l.27-.037-.76-2.035c-.375.216-.671.395-.91.544l-.575.306c-.28.16-.367.241-.378.29-.025.094.278.084-.073.294-.545.212-.99.374-1.367.46a5.893 5.893 0 0 1-.884.197c-.448.07-.624.08-.709.052-.168-.05.046-.179-.756-.135-2.932.399-5.362.54-7.695.825-.18-.023-.64.012-.11-.1a43.36 43.36 0 0 0-2.985.617c-1.15.313-2.271.684-3.469.99-2.38.627-4.894 1.152-6.72 1.78a3.26 3.26 0 0 1-.502.071c.636-.04.76.062.66.186-1.81.479-3.27 1.16-3.977 1.303 1.066-.45 1.148-.496 1.638-.742-.616.237-1.227.486-1.824.773-.868.248-.261-.054.575-.405.836-.347 1.905-.686 1.88-.765-.92.29-1.862.679-2.789 1.106l-.682.359-.385.205-.435.282-.847.551-.689.57c-.476.366-.808.762-1.197 1.124-.188.19-.375.406-.558.603l-.274.296-.136.147c-.044.037.007.022.036.02l.093-.011a758.5 758.5 0 0 0 1.403-.16c.453-.053.813-.07 1.324-.159.059.02-.037.061-.257.117l-.411.093-.45.063-1.101.126-.593.06-.294.029-.144.015c.025-.034.068-.076.1-.113l1.123-1.218c.08-.094-.167.073-1.213 1.117.371-.376.757-.793 1.095-1.106.359-.333.666-.67 1.09-.989.414-.318.75-.648 1.275-.934l.72-.44c.231-.154.515-.289.659-.352a3.869 3.869 0 0 0-.66.294c-.204.107-.362.19-.48.25-.244.126-.336.165-.316.14.042-.049.52-.357 1.02-.663l.535-.268c.137-.07.24-.127.272-.157.034-.03-.004-.032-.148.007l-.303.094-.22.074a2.423 2.423 0 0 0-.409.186l-1.587 1.008-1.093.947c-.354.3-.576.58-.849.849l-.774.816-.748.802-.089.096.108-.004.214-.01c.143-.009.283-.016.422-.022l1.611-.09.395-.023c.137-.01.367-.06.545-.09l1.159-.205 2.406-.42c.975-.171 2.11-.36 3.57-.588 1.29-.35-.465-.119.825-.47 8.243-1.624 6.617-.508 12.653-1.842 1.55-.42 2.112-.818 6.473-1.391l-1.434.512c2.83-.462 3.62-.692 4.449-.909a19.2 19.2 0 0 1 1.529-.343l.573-.102c.19-.031.401-.066.634-.102.243-.035.529-.07.819-.096a7.183 7.183 0 0 1-.529.148l-.27.063-.583.11c-.871.159-1.504.27-1.074.213l1.233-.152.516-.075c.131-.026.236-.07.369-.124a5.512 5.512 0 0 1 1.353-.386c-.176.11-.396.227-.658.351l.423-.082 2.484-.5c-.29.14-.749.344-1.425.62-.606.25-1.389.558-2.252.885.062-.061.18-.142.18-.18.007-.041-.105-.04-.344.008l-2.789 1.046-3.12 1.144-6.365 2.277-12.381 4.299-2.886 1.263c-.687.248-1.306.376-.575.069-3.04 1.021-.112.179-1.534.78-1.71.635-2.305.712-1.239.26a580.85 580.85 0 0 1-7.34 2.856l.314 1.33 14.094-2.007-1.14.247c4.603-.688 5.101-1.294 9.37-1.907l-.805.193c9.932-1.788 20.749-4.48 28.302-5.94.753-.343 3.67-.97 6.192-1.552l-.406-1.345c-1.975.726-3.698 1.388-3.904 1.66-5.46 1.823-3.942 1.178-11.58 3.885-2.033.74-2.931 1.37-5.423 2.346l-.136-.178-3.325 1.482-1.9.436-2.33.93c.94-.338 2.023-.653 1.902-.542-1.819.732-4.07 1.532-5.881 2.141-1.812.61-3.186 1.028-3.251.994l-8.623 3.415c.163-.153 1.608-.724 2.738-1.205-4.56 1.937-.921.103-5.1 1.878.586-.166-.263.235-.344.311-2.164.67-6.985 2.47-10.534 3.855l.633-.394c-.73.27-1.47.543-2.293.849l.429 1.927c6.16-.51 12.902-1.367 19.685-2.44-2.757.353-2.162.009.074-.366l.932.078c1.423-.372-2.353.295.588-.355 2.854-.446 1.96-.06.334.281 1.154-.206 2.302-.447 3.451-.674.216.03-.59.21-.787.332 1.397-.376 6.018-.867 8.006-1.552l.209.026a206.446 206.446 0 0 0 9.081-2.1c2.552-.661 4.925-1.294 7.96-2.154.064-.227 2.453-.841 4.202-1.548 1.71-.476 3.479-1.012 5.342-1.563l-.646-1.297c-2.488 1.675-5.371 3.123-8.47 4.539-3.512 1.669-.97.612-2.527 1.422-.327-.044-5.443 2.13-2.837.891-6.143 2.623-7.847 3.35-15.577 6.767.874-.288 1.836-.66 1.367-.396-1.4.623-3.242 1.287-3.074 1.122l.367-.174c-2.832 1.29-5.997 2.598-9.213 3.888l-4.823 1.918-2.569 1.023-4.13 1.691a6.279 6.279 0 0 0-.392 1.09c.219.306.417.608.637.888 1.207.017 2.27-.017 3.338-.03l1.532-.035.707-.023.444-.043-.427.04c2.63-.195 5.252-.428 7.848-.836 3.604-.404-2.144.394.535.183a258.5 258.5 0 0 0 10.599-1.956c3.1-.64 6.002-1.314 9.345-2.314 2.694-.437 7.338-1.77 12.165-3.236l-.737-1.756c-4.296 2.434-8.996 4.626-12.383 5.827l.432-.047c-1.679.829-2.123.777-3.408 1.264.216.02 1.922-.646.87-.153-9.02 3.653-18.784 6.436-28.558 9.184l.367 1.835 18.968-1.95c5.932-.636 3.292-1.016 10.799-1.566l-2.096.468c2.268-.296 4.563-.595 6.867-.897l.828-.102-.743.326-6.215 2.735c-2.929 1.3-5.824 2.605-8.653 3.918.622-.331.613-.403 1.665-.866-1.172.425-3.28 1.352-5.093 2.19-.905.417-1.738.815-2.342 1.115-.605.301-.983.506-.979.542-1.687.726-.439.059-1.501.45-1.397.551-3.156 1.423-4.61 2.111l.559 1.7c1.072-.35 2.004-.58 2.537-.73.113-.033-.05.053-.3.16l-.835.268.79-.25c.31-.113.654-.269 1.023-.418l1.145-.472 1.083-.573c.342-.186.667-.352.936-.513l.632-.433c.308-.222.36-.29-.004-.112.995-.573 1.869-1.27 2.732-1.935.813-.722 1.614-1.418 2.314-2.172 1.428-1.481 2.652-2.984 3.741-4.425.29-.518.726-1.16 1.165-1.886.228-.358.453-.738.68-1.122l.333-.58.163-.29.198-.376c.078-.16.17-.319.23-.479l-.136-.517-.182-.665-.287-.998c-.182-.594-.34-1.027-.463-1.183.087.06.042-.378-.044-1.117-.048-.368-.115-.81-.194-1.299-.082-.489-.182-1.026-.216-1.597-.093-1.137-.276-2.362-.284-3.491-.051-1.126-.109-2.14-.1-2.834.063.927.183-2.398.277-1.309.155-3.146.44-6.06.216-5.525.474-2.904.769-5.868.82-8.548.078-1.331-.007-2.6.029-3.732-.025-1.136-.068-2.15.005-3.012a68.174 68.174 0 0 0-.573-3.441c-.313-1.107-.553-2.22-.917-3.27-.408-1.034-.756-2.07-1.193-3.039l-1.453-2.877c-.227-.462-.761-.638-1.253-.668-.438-.035-.712-.01-1.05.007-.636.044-1.238.121-1.827.19-.6.065-1.14.145-1.716.145-.48-.063-.9-.071-1.207.284-.282.321-.402.772-.47 1.218-.152 1.287-.047 2.408.006 3.537.035 1.052 0 2.216.002 3.308-.077-.078-.11-.708-.118-1.603l-.01-1.47c-.024-.522-.06-1.113-.074-1.695a15.895 15.895 0 0 1 .034-1.747c.018-.229.08-.72.214-1.075.133-.36.344-.653.632-.807.28-.14.543-.143.837-.113.145.02.273.006.307.002l.157-.021c.191-.033.287-.073.241-.11l-.336.022-.18.004c-.11.002-.228-.022-.342-.034-.23-.014-.42.007-.596.07-.186.062-.36.19-.495.335-.261.302-.414.7-.487 1.116l-.05.303-.021.201-.026.385c-.04.998.03 1.893.088 2.746.07.785.037 1.632.059 2.44l.024 2.407c.028 3.19.03 6.37-.066 10.39-.073 2.082-.119-1.183-.163-1.888.012 8.104-.255 15.665-.19 22.877-.028-.02-.049-.8-.062-1.534-.01 1.422-.094 3.304.05 3.145l-.018-1.386c.24-2.265.35 5.649.455 5.905-.113-.737-.177-.364-.223.45l.716-.117c-.488-1.631-1.718-5.212-.535-2.807-.325-.874-.75-1.964-.775-1.732-.402-1.325-.485-1.76.053-.459-1.612-4.81-1.219-3.046-2.522-7.456.072-.003.352.881.566 1.313-.781-2.194-1.56-4.41-2.471-8.19.1.216.035-.233.327.889l-1.287-4.9-.607-2.377-.75-3.19-.249-.37c-.06-.126-.112-.256-.167-.39-.109-.277-.22-.557-.33-.841-.107.237-.218.544-.328.825-.098.289-.24.586-.401.886l-.97 4.416c.131-2.187-.588 2.434-.906 2.771a248.717 248.717 0 0 0-.621 3.912l.396-1.544c-.61 3.414-.883 6.47-1.361 9.41l.248-2.565a216.408 216.408 0 0 0-.79 6.446l.55-3.635c-.308 3.494.355-.332-.264 4.233.092-.924-.425 3.419-.646 5.244v-.012c.017.87.087 1.76.306 2.73.125.484.266.992.512 1.505a6.35 6.35 0 0 0 1.053 1.584c.26.299.14.28-.046.206-.174-.076-.395-.246-.203.016.224.197.517.42.878.694.09.068.184.137.282.209.093.052.217.23.253.026l.355-.745c.385-.888.838-1.934 1.296-2.995.83-1.907 1.679-3.868 2.007-4.89-.24.672-.13.761-.01.559l.414-1.366c.701-1.441.821-1.644.815-1.362 1.984-4.389-.921 1.264 1.528-3.903-.17.417-.058.23-.414 1.096 2.399-5.218 4.4-10.184 6.62-14.97.87-1.318-1.812 4.238-.888 2.7 3.044-6.973 6.106-14.525 9.15-21.228l-.583 1.242c.02-.27.179-.714.427-1.282.125-.284.271-.6.435-.939l.255-.523.215-.426.427-.827.202-.397.098-.195c.031-.048.071-.201.084-.046.155.698.3 1.273.498 1.876-.188-.629-.34-.496-.28-.426.094.384.136.543.258 1.296l.34 1.899c.1.646.163 1.31.252 1.987s.175 1.371.214 2.091c.271 2.869.309 6.09.26 9.904l-.067-.948c-.15 2.962-.361 7.814-.416 11.04.084.957.099 2.8.223 1.68-.141 2.481-.032 4.92.217 7.299.129 1.188.36 2.355.552 3.514l.424 1.705.213.847.112.43.181.539.704 2.089.34 1.01.021.061c.01-.014.02-.04.03-.061l.058-.129.116-.258.23-.509 1.634-3.608a161.934 161.934 0 0 1 2.846-5.998c-.421.962-.941 2.322-.6 1.559a471.56 471.56 0 0 0 2.911-6.897c-.382.48-.474.865-1.212 2.258.29-.907 1.054-2.877 1.772-4.585-1.213 3.14.253.076.892-1.233-.139.206.003-.275-.09-.18 1.752-3.506-.035-.724 2.14-5.598l-.027.294.507-1.387.471-1.33a82.69 82.69 0 0 1 1.02-2.76c.234-.095-.696 2.065-.662 2.388.266-.691.523-1.476.83-2.412l.06-.178c.009-.024.02-.072.028-.076l.015.058.06.239c.04.162.081.332.114.512.075.358.135.752.19 1.172.047.42.094.864.113 1.308l.022.658-.006.691c-.054-.68-.1-1.33-.168-1.972-.06-.641-.147-1.26-.234-1.683.076 1.514.056 2.018.074 2.535l.03.877c.015.387.026.821.03 1.372v-.216a84.728 84.728 0 0 1-.131 5.092l.094-1.297c.2 1.89.14 3.819-.018 5.898-.17 2.072-.61 4.27-1.12 6.769.9-4.866.033-.83-.072-1.251-.35 1.241-1.004 3.092-.89 2.542-.57 2.326-1.36 3.739-2.433 6.947-.119.114-1.028 2.347-.97 1.78-1.249 2.851.417-.618.38-.349a43.77 43.77 0 0 1-1.898 4.144c-.373.73-.778 1.476-1.2 2.24-.41.729-.953 1.687-1.127 1.942l-3.454-1.29c-1.323-.485-2.682-.97-4.068-1.437-5.602-2.065-6.711-2.27-11.846-4.378-.834-.429-.458-.33.125-.124l1.377.512c-2.725-1.3-4.803-2.208-7.395-3.376.544.195.03-.106-.716-.55-2.043-1.005-1.486-.437-4.1-1.926.489.176 1.125.387 2.142.807-1.19-.55-2.344-1.146-3.527-1.717l-.445.684c1.103.807 2.207 1.646 3.263 2.598.464.578-1.351-1.001-2.154-1.551 1.209.966 2.707 2.31 3.965 3.525 1.262 1.21 2.297 2.276 2.69 2.571-.427-.516-.87-1.017-1.31-1.521.784.827.282.538-.315-.052-1.95-1.83-2.69-2.756-2.752-2.915.502.428.971.892 1.458 1.339-.672-.99-2.504-2.686-4.662-4.234l.116-.18 5.067 2.488-1.615-.491c1.251.553 2.516 1.074 3.782 1.59.754.442 1.224.848-.575.034 2.53 1.356 2.337.988 4.515 2.147.238.133.12.096-.115.004.867.35 1.727.712 2.598 1.05-.528-.164.344.378-1.215-.352 4.542 2.174 7.555 2.94 9.23 3.847l-.398-.138c6.53 2.448.7.065 5.67 1.702l3.119 1.714.717.033 1.136.424c.314-.5.58-.93.532-.74 1.2-2.483-.288.341.346-1.105.915-1.476 1.976-3.623 2.837-5.49.863-1.865 1.537-3.447 1.838-3.747.33-1.21-1.39 3.017-.075-.447.75-.841 1.529-4.004 2.54-7.006-.07.993-1.084 3.843.022.847.13-.965.55-2.453.93-4.06.375-1.602.661-3.356.715-4.695-.242-.14.297-5.824-.026-10.325.01.024.024-.055.012-.374-.012-.303-.019-.779-.066-1.365a40.443 40.443 0 0 0-.2-2.063l-.16-1.22-.1-.667-.051-.342c-.028.005-.058.022-.087.031l-1.877 4.753-.765 1.867-.631 1.492.006-.13c-.059.846-1.724 4.81-2.903 7.71-.095-.175.075-.714.664-2.305l-1.141 2.71c-.198.67-.515 1.533-1.25 3.294l.12-.755-2.34 5.568c-.416.97-.849 1.972-1.322 3.01l-.736 1.591c-.09.182-.179.366-.27.554l-.249.487c-.007.12.062.1.174-.006.11-.102.267-.295.38-.401.11-.103.179-.114.059.261-.059.189-.168.475-.342.9-.092.213-.196.46-.317.744a108.067 108.067 0 0 1-.31.71l-.029.066-.014.033c-.004-.003-.007-.018-.011-.027l-.043-.125c-.026-.236-.04-.49.005-.54.011-.013.026-.014.045 0 .019-.013.035.118.074-.043.072-.208.167-.453.295-.752l-.172.41-.117.278-.031.074c-.01-.013-.016-.04-.024-.061l-.05-.136c-.133-.372-.29-.837-.407-1.27l.326.752.147.324.018.037c.005.019.01.028.02-.005l.045-.122.089-.24-.126.247c-.01.035-.017.009-.023-.017l-.02-.064-.035-.116a5.847 5.847 0 0 0-.113-.333 1.211 1.211 0 0 0-.144-.29c-.08-.116-.159-.208-.404-.994.062-.05-.006-.279-.054-.584-.05-.307-.096-.585-.014-.471.114.547.312 1.308.503 1.743l-.322-1.095c-.106-.475-.212-1.027-.305-1.496-.193-.959-.33-1.77-.323-2.187-.049.19-.181.034-.435-1.45-.174-.958-.183-1.531-.209-1.873-.017-.344-.005-.46.015-.528.038-.135.106-.07.032-1.197-.155-.933-.174-3.416-.365-3.477-.01-1.143.085-1.355.137-1.795-.141-2.015.203-9.45-.096-7.175l-.032.519.003-.332-.001.017v-.017c.02-3.325.19-6.778.19-10.234.005-3.451-.17-6.928-.87-10.181l.07-.003-.152-.774c-.066-.319-.164-.638-.245-.958l-.507-1.923-.25-.959c-.012-.034-.02-.091-.033-.106l-.051.117-.103.233-.204.464-.796 1.822-1.257 2.932a76.52 76.52 0 0 0-.915 2.265c-.474 1.064-1.23 2.46-1.103 1.972-1.174 2.77-1.24 3.111-3.108 7.038 1.119-2.814-.52.91 1.179-2.87-1.642 3.55-2.101 4.314-3.634 8.228.42-1.378-1.397 2.6-2.103 4.321l1.227-2.453c-.825 1.92-1.58 3.584-2.347 5.275l.196-1.012c-3.505 7.199-5.42 13.384-8.322 18.76-.71 2 1.869-3.926 1.272-2.118a112.542 112.542 0 0 1-2.32 4.749l-.26.508-.062.122-.031.05-.058.092-.185.281-.036.052c-.012.01-.036-.033-.054-.045l-.098-.101-.128-.143c-.036-.037-.062-.081-.09-.117l-.041-.055-.089-.137a5.061 5.061 0 0 1-.34-.572 6.82 6.82 0 0 1-.423-1.044c-.2-.649-.31-1.194-.384-1.76-.157-1.136-.142-2.352.183-4.974-.15.66-.453 1.272-.083-2.654.475-3.655.927-4.44.678-2.133-.103.876-.181 1.295-.205 1.254-.114 1.183-.256 2.735 0 1.3l-.026-.483c.28-1.804.984-6.808.955-5.613.336-2.755.033-1.195-.299.835.794-4.645 1.123-7.278 2.125-12.025-.195.748-.421 1.428-.276.674l.505-2.4c.076-.36.124-.617.157-.823.06-.376.06-.555.082-.833.024-.315.08-.804.334-1.96l.028.124c.162 1.044.128 1.188.118 1.356-.011.16-.024.254.114.811l.173.666c.328 1.85-.195.137-.25.194.043.108.09.25.133.404l.36 1.532.637 2.857c.395 1.798.726 3.367 1.043 4.599l-.662-2.251c.39 1.347.686 2.457.993 3.586L18.753 35c.328 1.337.645 2.458.57 2.452.49 1.336-.033-1.116.88 1.546.417 1.788 1.68 5.32 1.674 5.985-1.635-5.529-.037.68-1.49-3.983.292.896.626 1.995 1.01 3.323.04.204-.105-.172-.226-.529 1.493 5.322.982 2.352 2.815 7.767-.102-.188-.127-.154-.091.046l1.576-.257c.08-.36.148-1.579.139-2.238-.036 2.298-.222 1.095-.286-1.014.15-3.654-.013-3.974.025-5.888l-.076 2.184c-.113-.743-.07-2.57-.073-5.12.1-.216.033 2.316.089 1.407-.175-2.833.317-6.391.229-10.339.11-1.826.233-.173.314-1.777-.096-4.425.238-4.787.174-9.437-.186 1.336-.148 1.572-.262-1.703l.005 7.642-.17-4.908c-.035 2.307.034 4.869-.015 6.25-.101-2.338-.063-2.098-.217-.996.295-3.152-.054-6.258.167-9.904l.41.118c.065-1.37.093-2.665.102-3.946l.002-1.922-.003-.484c0-.168-.01-.37-.02-.526l-.065-.978c-.04-.646-.072-1.305-.04-1.949.005-.15.024-.341.035-.445.007-.073.02-.146.041-.22.023-.068.053-.15.125-.186.073-.035.151.011.231.003l.22-.004.304-.016.593-.05 1.185-.128a25.33 25.33 0 0 1 1.208-.105c.202-.01.404-.017.6-.015.093.001.205.006.274.012.047.005.095.012.141.023-.083-.04-.524-.06-.866-.05-.362.007-.736.029-1.111.055.235-.064.634-.13 1.121-.166.234-.017.531-.026.749-.01.155.016.387.034.437.238l.787 1.641.415.84.201.4.156.398c-.199-.145.237 1.203.485 2.131.008-.033.145.241.289.7l.464 1.766.27.99.177.927c.115.566.225 1.001.317 1.15l.07.779c.013.26.007.523.01.785l.01 1.565c.059.704.01 1.34.025 1.914l.02 1.572c-.023.961-.02 1.77-.016 2.572a53.721 53.721 0 0 1-.393 5.937c.026-1.67-.334.816-.052-2.874-.196 1.832-.393 3.48-.3 3.521-.193 1.067-.335 5.127-.454 6.839.04.787.129 1.043.184 3.13-.023.229-.068-.007-.068-.007.037.004.07.822.129 1.407.088.584.167.936.156.025.035 1.427.088 3.153.457 4.971.08.456.15.922.246 1.389l.382 1.395.393 1.412c.187.32-.06.555-.296 1.033a34.173 34.173 0 0 1-3.047 4.615c-1.078 1.343-2.14 2.476-3.08 3.254-1.398 1.392-3.047 2.846-4.875 3.943-.433.314-.925.52-1.376.78-.458.252-.913.496-1.387.67l-1.366.565-1.335.387c.21-.103-.007-.07.645-.24-.572.146-1.045.275-1.438.39l.307.933c2.88-1.278 1.905-1.273 6.568-3.19 2.767-.976-2.735 1.336-1.032.678.908.094 6.301-2.844 9.934-4.156l-.843.4c2.758-1.046 6.51-3.053 10.929-4.965 0 0-.198.131 0 .074.305-.156.637-.326.992-.51l.605-.298.829-.396 3.437-1.615c.592-.42 1.348-.883 2.174-1.351-.956.01-1.976.052-2.98.108l-1.797.222c1.013-.202 1.79-.314 2.16-.379.176-.02.237-.038.222-.095.05-.025-.018-.039-.133-.055-1.517.184-1.44.248-1.741.358-.286.107-.928.26-3.214.542-1.349.055-4.328.306-4.743.16l3.881-.449c-2.017-.022-5.024.575-7.075.763l.25-.137c-5.947.706-5.998.987-12.396 1.688l.67.007c-3.464.664-2.946.18-6.41.773l-1.086-.155-6.797.972.127.636 5.176-1.64c-1.21.475-3.155 1.132-5.134 1.785l-.186-.93 4.765-.704-4.78.565.24 1.202c1.778-.543 3.43-1.069 3.997-1.31-.882.29-1.984.683-2.875.899 2.648-1.003 6.185-2.141 10.569-3.49-.311.372 2.56-.466 5.901-1.546 3.346-1.07 7.142-2.429 8.772-2.837 5.655-2.282 11.244-4.58 17.103-7.75l-.612-1.46c-2.124.61-4.312 1.24-6.59 1.896 3.331-.52-2.644.767-1.974 1.014-2.111.613-2.922.827-3.12.847-2.166.49-4.334.964-6.511 1.383-1.561.237 2.009-.564 1.787-.623-4.673 1.072-1.996.31-5.113.876.667.014-1.58.579-4.273 1.016 1.269-.177 2.54-.345 3.808-.551-3.256.795-4.705.93-6.15 1.085-1.449.128-2.895.28-6.225.757l2.096-.378-2.139.275-2.787.26-3.832.242c-.142.01-.28.02-.412.031l-.25.02-.137.01c-.067.008-.064.001-.054-.006.028-.051.064-.116.094-.19l.273-.066c.22-.047.36-.05.338-.005.013.006-.003.022-.039.043l.11-.043 3.844-1.667 5.984-2.636c3.932-1.733 7.656-3.355 10.613-4.491l-.542.34c1.42-.63 2.416-1.23 4.248-1.89-.076.08-.536.34.13.065.743-.353 3.73-1.772 5.65-2.516l-1.576.792c3.766-1.523 6.613-2.775 9.294-4.057 2.672-1.296 5.18-2.587 8.098-4.425.052.097.804-.265 1.863-.921l-.67-1.346c-1.028.265-2.344.641-3.647 1.019L52.37 27.94l.094-.072a544.916 544.916 0 0 1-12.168 3.353c-3.786.995-7.509 1.905-11.788 2.777-2.693.346-7.214 1.12-12.167 1.798-4.95.692-10.33 1.287-14.674 1.557 1.06-.05.31.142-.823.308l.31 1.392c.262-.116.554-.238.85-.355 1.942-.66 5.234-2.183 5.027-1.806l-.686.25c1.543-.281 5.463-1.825 8.548-2.97l.38-.534c8.247-2.51 21.05-8.074 25.616-9.269 1.912-.813 4.322-1.712 6.219-2.518l-.036.223c4.94-1.797 7.621-2.771 13.402-4.966l-.535-1.767-1.401.343 1.372-.469.609 2.015-.006.003.006-.003-.609-2.015c-3.9.908-4.792 1.718-8.39 2.57l-1.15-.034c-6.81 1.59-13.763 2.887-20.476 4.504.102-.065.287-.188 1.393-.424-1.61.326-4.737.899-7.31 1.372-2.572.486-4.593.874-3.97.975-.122-.225-7.102 1.182-10.827 1.785l.555-.272c-2.504.555-3.06.69-5.568 1.07l.207.875 1.934-.747c1.001-.336.922-.17-.413.262 3.341-1.104 2.515-1.107 6.558-2.465l-1.451.66c3.406-1.221 3.114-1.186 4.938-2 2.112-.85 6.47-2.296 7.032-2.314.422-.267 2.237-1.077 4.259-1.757.293-.036-.423.268-.783.42 5.733-1.94 8.381-3.282 12.358-4.522.104.031.37-.03.7-.13-4.52 1.635-8.164 2.945-7.827 2.808.06.168 3.721-1.126.901.16l5.428-2.24c1.019-.412 2.059-.824 3.069-1.21l1.485-.553 2.214-.788c.304-.091.607-.183.876-.252l-.579.232a101.32 101.32 0 0 0 3.67-1.362l3.766-1.317c.085-.06.17-.129.254-.203.706-.189.946-.756 1.335-1.198l-.274-.107c-.063.037-.311.013-.508.024-.174.001-.335.052.186.09-.122-.004.11-.008.57 0l-.247.147c-.122.074-.265.161-.33.206.01-.007.021-.018.034-.03l-1.992 1.216c.046-.146.239-.321.622-.543.373-.22.95-.488 1.517-.78.113-.073.265-.155.382-.212-.517.034-1.132.13-1.556.2-.752.052-1.521.02-1.929-.123-2.242.267-4.954.634-5.489.628l-10.897 1.956c-3.154.58-6.032 1.149-7.834 1.637-1.65.326-1.924.217-2.552.264.95-.197 2.09-.383 2.599-.522-3.299.65-9.813 1.686-10.561 2.073-4.197.587 2.308-.628-3.425.378l.763-.208-2.125.265-.37.057-.046.008c.003-.008.02-.023.03-.034l.065-.07.128-.137c.173-.175.344-.342.54-.486.187-.155.4-.286.626-.431l.739-.386c.258-.137.531-.243.796-.367a28.76 28.76 0 0 1 3.321-1.198c2.28-.695 4.674-1.225 7.227-1.927 1.291-.338 2.579-.799 3.962-1.04 1.39-.26 2.87-.372 4.446-.391-.874.013-1.306.046-1.49.012 2.18-.155 4.41-.114 6.678-.351a18.1 18.1 0 0 0 3.38-.698c1.11-.355 2.158-.885 3.153-1.496l-.294-.784c-10.148 1.572-20.643.76-30.59 1.651-1.219.106-2.107.248-2.772.343l.319.982c1.497-.728 2.133-1.089 3.77-1.607l.89.004c1.338-.375 2.715-.651 4.102-.89 2.967-.407 5.574-.376 8.376-.44 1.403-.03 2.86-.081 4.44-.218a46.38 46.38 0 0 0 2.472-.31c.856-.173 1.757-.306 2.686-.598-.335.027-.666.071-1 .082 1.45-.276 3.785-.929 5.423-1.799l-.161-.552c-1.574.109-2.728.027-2.516-.034-.275.033-.893.113-1.945-.021l-.074-.117c-2.215-.108-4.436-.36-6.656-.623-2.564-.423-2.349-.501-2.427-.616-.084-.102-.443-.3-4.235-.785-1.411-.159-3.451-.247-5.002-.169-1.553.073-2.597.278-2.057.267 1.156-.085 2.942.013 3.02.14-.863-.005-1.727-.003-2.587.075-.225.169-.818.373-.57.51.252.164 1.3.114 4.393.422 1.446.05 2.902.142 4.362.277l1.38.352a102.11 102.11 0 0 0-3.658-.464c2.052.377 3.384.452 4.875.578.338.136.94.285 1.804.445a186.3 186.3 0 0 0 4.35.296c.513.188-1.978.012.93.428 2.055.078-1.922-.482 1.461-.237 1.06.17 1.438.23 1.859.299.424.059.902.07 2.171-.007.363.064-.179.162-1.188.176.695-.008 1.534-.059 2.398-.121L41.56 2.21c-1.572.822-3.427 1.354-4.157 1.621l-.915.16-1.104.165c-.768.142-1.613.22-2.373.32-1.534.158-2.78.235-2.685.071-.678.13-3.84.489-5.87.614 1.838-.286-.054-.198-2.301-.044-2.249.148-4.851.5-4.386.237-1.513.442-4.51.879-7.492 2.393l.501 1.536c2.391-.366 4.936-.61 7.047-.824-.268.043-.793.124-1.217.146 2.707-.162 3.5-.082 5.246-.084.336-.296 4.578-.45 6.871-.654 3.355.2-2.028.36-.972.592-.176-.207 5.823-.347 4.677-.51 2.574.075 2.216-.005 3.553.157.43-.367 2.396-.186 4.508-.616 3.154-.198 1.69.07 3.65-.2l-.628-1.678c-.254.143-.615.392-1.132.673-.704.278-.582.17-.215-.043.38-.19.944-.614 1.246-.787l.756 2.019-.27.046" transform="translate(221.73 58.464)" fill="#23425E" fill-rule="nonzero"/><path d="M1.026.94c.148-.09.23-.137.422-.253-.24.13-.468.255-.701.38-.11.072-.207.143-.274.201.187-.11.379-.226.553-.329" transform="translate(274.86 67.086)" fill="#23425E" fill-rule="nonzero"/><path d="M1.004.975l.02-.32c-.024.264-.047.51-.076.671.026-.216.036-.214.056-.35" transform="translate(259.656 88.176)" fill="#23425E" fill-rule="nonzero"/><path d="M.701 1.291l.052.079L1.969.83z" transform="translate(259.87 80.814)" fill="#23425E" fill-rule="nonzero"/><path d="M.877 1.75c.091-.135.244-.411.51-.98-.04.036-.253.462-.51.98" transform="translate(270.394 93.24)" fill="#23425E" fill-rule="nonzero"/><path d="M1.02.059a42.614 42.614 0 0 1-.107 2.727c.1-1.18.115-2.04.107-2.727" transform="translate(274.91 88.928)" fill="#23425E" fill-rule="nonzero"/><path d="M.988.567c-.02.352.005.461.027.561a.56.56 0 0 1 .014-.052L.988.566z" transform="translate(273.65 103.29)" fill="#23425E" fill-rule="nonzero"/><path d="M1.002 1.972C1 1.764 1 1.56 1 1.376c-.033-1.4-.03-.45.002.596" transform="translate(245.063 99.752)" fill="#23425E" fill-rule="nonzero"/><path d="M.986 2.29C.964 1.53 1.036.777 1.144 0 .855 1.245.78 2.252.986 2.29" transform="translate(232.203 107.267)" fill="#23425E" fill-rule="nonzero"/><path d="M1.004.336c-.001-.015-.003 0-.005-.015-.012.31-.022.583-.031.893l.036-.878z" transform="translate(256.27 95.677)" fill="#23425E" fill-rule="nonzero"/><path d="M1.148.215a24.614 24.614 0 0 0-.657 3.267c.211-1.025.494-2.231.657-3.267" transform="translate(232.64 103.784)" fill="#23425E" fill-rule="nonzero"/><path d="M.751.192l.903.974c.002-.03.07.012.15.076L.751.192z" transform="translate(239.317 115.757)" fill="#23425E" fill-rule="nonzero"/><path d="M.754.19l1.04 1.052C1.33.746.927.318.754.191" transform="translate(239.881 116.321)" fill="#23425E" fill-rule="nonzero"/><path d="M1.53 1.3L.233 0c.441.455.964 1.038 1.297 1.3" transform="translate(240.9 117.018)" fill="#23425E" fill-rule="nonzero"/><path d="M.894.986l.44.049C1.112.966.96.947.893.985" transform="translate(244.603 114.141)" fill="#23425E" fill-rule="nonzero"/><path d="M5.558 2.34C4.252 1.77 2.33.796.5.023L.308 0C1.2.291 4.26 1.93 5.558 2.34" transform="translate(245.226 114.859)" fill="#23425E" fill-rule="nonzero"/><path d="M2.78.072A104.754 104.754 0 0 1 .485 4.561c.473-.746 1.102-1.728.055.314 1.571-2.769 1.355-2.512 1.172-2.27-.204.229-.364.444 1.066-2.533" transform="translate(267.636 116.864)" fill="#23425E" fill-rule="nonzero"/><path d="M.95 1.411c-1.022 2.676.262 0 .243.141.45-1.728.555-2.138-.243-.14" transform="translate(274.968 100.79)" fill="#23425E" fill-rule="nonzero"/><path d="M1.17.976L1.073.498c-1.533 2.847.103.068.097.478" transform="translate(252.877 73.898)" fill="#23425E" fill-rule="nonzero"/><path d="M0 2.754L1.026.947 1.296 0z" transform="translate(245.675 92.007)" fill="#23425E" fill-rule="nonzero"/><path d="M1.39 1.268l.346-.841-1.35 3.2z" transform="translate(237.969 104.6)" fill="#23425E" fill-rule="nonzero"/><path d="M0 1.862c.226-.112.443-.234.66-.357C1.606.362 1.583 0 0 1.862" transform="translate(253.546 114.19)" fill="#23425E" fill-rule="nonzero"/><path d="M4.863.374C3.97.356 1.683.704.293 1.2 2.114.845 3.939.621 4.863.374" transform="translate(241.904 113.758)" fill="#23425E" fill-rule="nonzero"/><path d="M2.084.62l-1.509.733L3.448.054z" transform="translate(238.844 90.384)" fill="#23425E" fill-rule="nonzero"/></g></g></g></svg>