<svg viewBox="0 0 900 1200" xmlns="http://www.w3.org/2000/svg"><g transform="translate(1.000000, 71.000000)" fill="none"><path d="M2.235 784.582c.51-.364 607.597 137.943 607.597 137.943v26.314l-167.87 94.352a32.074 32.074 0 0 1-32.037-.092S60.197 839.657 8.86 809.792a14.842 14.842 0 0 1-7.386-12.898l.76-12.312z" fill="#C6DEF2"></path><path d="M609.84 922.524L172.682 667.86 7.834 773.198c-7.995 4.579-8.027 16.078-.057 20.704l408.143 237.287a25.356 25.356 0 0 0 25.32.072l168.6-108.737z" fill="#D8ECFC"></path><path d="M463.967 892.691c7.747 4.49 11.619 6.732 19.365 11.222a2888.852 2888.852 0 0 0 20.8-13.2c-7.78-4.46-11.672-6.689-19.456-11.149a3193.539 3193.539 0 0 1-20.71 13.127m-28.592-16.561c7.744 4.49 11.62 6.73 19.365 11.22 8.17-5.142 12.3-7.754 20.667-13.09l-19.455-11.15a4016.855 4016.855 0 0 1-20.577 13.02m-28.592-16.563c7.744 4.49 11.619 6.734 19.365 11.22a4189.408 4189.408 0 0 0 20.535-12.983l-19.455-11.15a5276.114 5276.114 0 0 1-20.445 12.913m-28.567-16.563c7.744 4.49 11.619 6.732 19.365 11.221a5954.009 5954.009 0 0 0 20.403-12.877l-19.458-11.15c-8.2 5.186-12.257 7.74-20.31 12.806m-28.593-16.565l19.368 11.224c8.04-5.058 12.091-7.606 20.27-12.77l-19.46-11.151a14768.2 14768.2 0 0 1-20.178 12.697m-28.592-16.566c7.747 4.49 11.621 6.732 19.365 11.224 7.998-5.028 12.02-7.556 20.14-12.664l-19.459-11.15a33006.46 33006.46 0 0 0-20.046 12.591m-28.592-16.563l19.368 11.223c7.953-4.997 11.95-7.507 20.004-12.555l-19.457-11.151c-8.013 5.011-11.99 7.507-19.915 12.483m-28.568-16.565c7.744 4.49 11.62 6.735 19.365 11.224a7437.68 7437.68 0 0 1 19.875-12.448c-7.784-4.46-11.675-6.691-19.46-11.15-7.946 4.953-11.9 7.427-19.78 12.375m-28.592-16.563c7.747 4.49 11.621 6.73 19.368 11.223 7.866-4.938 11.81-7.407 19.74-12.34l-19.46-11.151a3879.417 3879.417 0 0 0-19.648 12.268m-28.592-16.564l19.368 11.223a3430.8 3430.8 0 0 1 19.606-12.232l-19.454-11.15a2836.211 2836.211 0 0 0-19.52 12.16m-28.592-16.565c7.744 4.49 11.619 6.731 19.365 11.22 7.779-4.878 11.67-7.307 19.475-12.124l-19.455-11.15a2345.536 2345.536 0 0 0-19.385 12.054m-28.568-16.561l19.363 11.222a2143.27 2143.27 0 0 1 19.345-12.018l-19.458-11.15a1907.564 1907.564 0 0 0-19.25 11.947m286.147 199.881l19.295 11.253a5040.96 5040.96 0 0 0 20.105-12.54l-19.336-11.236a6012.964 6012.964 0 0 1-20.064 12.523m-28.468-16.61L426.5 905.02a6822.55 6822.55 0 0 0 20.042-12.516c-7.736-4.494-11.603-6.743-19.34-11.238a7545.883 7545.883 0 0 1-19.997 12.5m-28.493-16.609c7.72 4.5 11.576 6.752 19.295 11.254a8349.298 8349.298 0 0 0 19.973-12.494c-7.734-4.494-11.604-6.74-19.338-11.238a11528.89 11528.89 0 0 1-19.93 12.478m-28.468-16.612c7.72 4.5 11.576 6.751 19.295 11.253 7.906-4.944 11.883-7.432 19.91-12.47L370.11 848.09c-8.004 5.026-11.973 7.512-19.866 12.456m-28.492-16.613c7.72 4.502 11.576 6.754 19.295 11.253a16559.22 16559.22 0 0 0 19.846-12.445L341.55 831.5c-7.965 5.007-11.922 7.489-19.798 12.43m-28.468-16.608c7.722 4.502 11.579 6.752 19.298 11.254 7.87-4.94 11.823-7.425 19.778-12.423l-19.34-11.239c-7.933 4.986-11.876 7.464-19.736 12.408m-28.493-16.612c7.72 4.5 11.576 6.753 19.295 11.255 7.856-4.944 11.796-7.422 19.716-12.401-7.739-4.495-11.606-6.744-19.34-11.24a18713.51 18713.51 0 0 0-19.67 12.387m-28.469-16.61l19.295 11.253c7.84-4.94 11.763-7.417 19.647-12.378-7.734-4.495-11.604-6.742-19.338-11.239a13944.11 13944.11 0 0 0-19.604 12.364m-28.493-16.613l19.296 11.254c7.822-4.941 11.736-7.414 19.582-12.353l-19.338-11.24a7852.568 7852.568 0 0 0-19.54 12.34m-28.467-16.609c7.72 4.498 11.576 6.75 19.295 11.252a7462.74 7462.74 0 0 1 19.517-12.33c-7.736-4.498-11.602-6.745-19.34-11.24a6622.538 6622.538 0 0 0-19.472 12.318m-28.493-16.611c7.72 4.5 11.576 6.752 19.295 11.254 7.787-4.944 11.671-7.41 19.45-12.31l-19.338-11.237a5150.462 5150.462 0 0 0-19.407 12.293" fill="#084478"></path><path d="M122.402 727.659l32.35 18.867a5489.432 5489.432 0 0 1 19.415-12.296c-12.97-7.536-19.455-11.306-32.425-18.84a4129.919 4129.919 0 0 0-19.34 12.27m272.983 192.411c12.81 7.462 19.218 11.191 32.026 18.65 7.76-4.814 11.669-7.233 19.56-12.13l-32.027-18.683c-7.883 4.904-11.79 7.328-19.56 12.163" fill="#084478"></path><path d="M379.683 910.913c7.717 4.492 11.57 6.74 19.285 11.232 7.767-4.833 11.674-7.256 19.56-12.16l-19.286-11.252c-7.878 4.907-11.785 7.336-19.56 12.18m-28.467-16.577a46127.26 46127.26 0 0 0 19.285 11.23c7.777-4.846 11.681-7.277 19.557-12.186a48900.95 48900.95 0 0 0-19.288-11.252c-7.866 4.912-11.773 7.348-19.554 12.208m-28.468-16.581l19.285 11.232c7.784-4.865 11.691-7.303 19.557-12.217-7.714-4.5-11.57-6.752-19.288-11.252a78939.08 78939.08 0 0 1-19.554 12.237m-28.467-16.577c7.713 4.494 11.57 6.74 19.284 11.231l19.555-12.244c-7.712-4.502-11.572-6.752-19.288-11.252-7.849 4.922-11.753 7.373-19.552 12.266m-28.468-16.58a46127.26 46127.26 0 0 0 19.285 11.23c7.802-4.896 11.71-7.347 19.552-12.273l-19.285-11.252c-7.842 4.93-11.746 7.386-19.552 12.296m-28.467-16.582c7.717 4.495 11.57 6.74 19.288 11.232 7.809-4.912 11.716-7.37 19.552-12.304-7.714-4.5-11.574-6.75-19.288-11.252-7.83 4.937-11.736 7.4-19.552 12.324m-28.468-16.58c7.717 4.492 11.57 6.74 19.285 11.231 7.822-4.926 11.726-7.394 19.552-12.33-7.714-4.504-11.571-6.754-19.287-11.256-7.82 4.945-11.724 7.417-19.55 12.355m-28.468-16.578c7.717 4.495 11.57 6.74 19.288 11.232 7.826-4.944 11.73-7.417 19.547-12.36-7.712-4.503-11.572-6.753-19.286-11.253-7.811 4.947-11.718 7.426-19.55 12.381m-28.467-16.58c7.714 4.493 11.569 6.74 19.285 11.233 7.832-4.962 11.738-7.442 19.547-12.391-7.714-4.5-11.571-6.752-19.288-11.252-7.799 4.954-11.704 7.44-19.544 12.41m-28.468-16.577c7.717 4.492 11.571 6.74 19.285 11.231 7.842-4.976 11.748-7.464 19.545-12.42l-19.283-11.252c-7.792 4.962-11.698 7.452-19.547 12.441m-28.468-16.578c7.714 4.492 11.57 6.74 19.283 11.232 7.851-4.994 11.758-7.487 19.547-12.45l-19.286-11.25c-7.78 4.967-11.688 7.462-19.544 12.468m286.122 199.238l19.333 11.187a3818.04 3818.04 0 0 1 19.163-11.977c-7.716-4.487-11.576-6.73-19.29-11.22a4594.698 4594.698 0 0 0-19.206 12.01m-28.542-16.513l19.333 11.187c7.654-4.81 11.494-7.206 19.22-12.024-7.713-4.489-11.573-6.73-19.29-11.22a6145.15 6145.15 0 0 0-19.263 12.056m-28.543-16.511l19.335 11.185a6155.473 6155.473 0 0 1 19.28-12.073l-19.29-11.218a8294.953 8294.953 0 0 0-19.325 12.106m-28.542-16.516c7.734 4.476 11.6 6.716 19.335 11.187 7.72-4.847 11.584-7.266 19.343-12.12-7.72-4.489-11.576-6.733-19.293-11.223a14971.56 14971.56 0 0 0-19.385 12.156m-28.518-16.511c7.732 4.475 11.601 6.712 19.335 11.187 7.752-4.867 11.626-7.298 19.4-12.17l-19.293-11.219c-7.784 4.885-11.668 7.321-19.442 12.202m-28.543-16.515l19.338 11.187 19.46-12.218c-7.72-4.487-11.58-6.73-19.297-11.22-7.8 4.902-11.695 7.35-19.5 12.25m-28.543-16.512c7.732 4.475 11.599 6.712 19.335 11.187 7.814-4.904 11.716-7.358 19.52-12.265l-19.296-11.22c-7.814 4.92-11.723 7.38-19.559 12.297m-28.543-16.514c7.732 4.475 11.601 6.712 19.335 11.187 7.85-4.924 11.758-7.385 19.582-12.314-7.72-4.487-11.579-6.732-19.297-11.22a9011.693 9011.693 0 0 1-19.62 12.347m-28.542-16.512c7.732 4.474 11.599 6.714 19.335 11.189a7285.7 7285.7 0 0 0 19.64-12.364l-19.297-11.221a5764.166 5764.166 0 0 1-19.678 12.396m-28.518-16.514l19.333 11.188c7.91-4.964 11.847-7.447 19.7-12.411a66363.51 66363.51 0 0 1-19.29-11.22 4885.374 4885.374 0 0 1-19.743 12.443m-40.885-23.647l31.66 18.32a4421.389 4421.389 0 0 0 19.762-12.457l-31.597-18.375a3536.901 3536.901 0 0 1-19.825 12.512" fill="#084478"></path><path d="M67.208 762.72l19.333 11.186a3627.256 3627.256 0 0 0 19.817-12.508l-19.292-11.22a3367.74 3367.74 0 0 1-19.858 12.542m283.534 200.96l19.452 11.15c7.54-4.888 11.313-7.3 18.895-12.11-7.749-4.47-11.624-6.703-19.37-11.17a2296.85 2296.85 0 0 0-18.977 12.13m-28.717-16.453c7.781 4.46 11.67 6.69 19.455 11.147a2413.41 2413.41 0 0 1 19.02-12.14c-7.75-4.468-11.625-6.7-19.37-11.167a2866.769 2866.769 0 0 0-19.105 12.16m-28.716-16.456l19.457 11.15c7.655-4.9 11.48-7.329 19.144-12.173-7.75-4.468-11.624-6.7-19.37-11.17a4120.391 4120.391 0 0 0-19.231 12.194m-172.3-98.739c54.35 31.144 108.703 62.287 163.05 93.431 7.715-4.907 11.562-7.34 19.27-12.202L140.99 819.66c-7.948 4.954-11.94 7.43-19.98 12.373m-28.718-16.456c7.784 4.457 11.673 6.69 19.457 11.15a2840.25 2840.25 0 0 0 20.02-12.386c-7.747-4.466-11.624-6.7-19.37-11.17a2500.824 2500.824 0 0 1-20.107 12.406m-28.717-16.455l19.455 11.15c8.12-4.955 12.143-7.44 20.146-12.417-7.746-4.467-11.623-6.7-19.37-11.167a2076.154 2076.154 0 0 1-20.23 12.434m-28.717-16.454c7.78 4.46 11.67 6.69 19.452 11.147 8.18-4.959 12.228-7.452 20.274-12.443l-19.37-11.17a1759.132 1759.132 0 0 1-20.356 12.467M492.16 908.336l19.366 11.22a4189.408 4189.408 0 0 0 20.535-12.983l-19.455-11.15a5092.924 5092.924 0 0 1-20.445 12.913m-28.07 17.59c7.72 4.5 11.576 6.752 19.295 11.254a8349.298 8349.298 0 0 0 19.973-12.494l-19.338-11.238a11528.89 11528.89 0 0 1-19.93 12.478m-27.497 17.179a46127.26 46127.26 0 0 0 19.285 11.23l19.557-12.186a96194.74 96194.74 0 0 0-19.285-11.252c-7.87 4.912-11.777 7.348-19.557 12.208m-27.174 17.002l19.335 11.185a5880.232 5880.232 0 0 1 19.283-12.073 74405.92 74405.92 0 0 1-19.295-11.218 8294.953 8294.953 0 0 0-19.323 12.106m-30.733 19.436c7.781 4.46 11.67 6.69 19.455 11.149 7.654-4.9 11.48-7.328 19.143-12.172-7.749-4.468-11.623-6.7-19.37-11.17a3992.928 3992.928 0 0 0-19.228 12.194m141.568-55.89l19.365 11.221c8.13-5.113 12.23-7.703 20.537-12.984l-19.457-11.15a5092.924 5092.924 0 0 1-20.445 12.913m-28.069 17.588l19.295 11.254a7383.992 7383.992 0 0 0 19.975-12.493l-19.34-11.236c-8.038 5.043-12.017 7.53-19.93 12.475m-27.498 17.182c7.714 4.494 11.571 6.739 19.285 11.23l19.557-12.186c-7.712-4.502-11.57-6.752-19.285-11.252-7.869 4.912-11.777 7.348-19.557 12.208m-27.174 17.002l19.335 11.185a6461.91 6461.91 0 0 1 19.283-12.073c-7.718-4.486-11.578-6.731-19.293-11.218a7803.971 7803.971 0 0 0-19.325 12.106m-30.732 19.433l19.455 11.149c7.657-4.9 11.479-7.328 19.143-12.172l-19.37-11.17a4119.789 4119.789 0 0 0-19.228 12.194" fill="#084478"></path><path d="M347.034 727.714c.262-.186 82.69-40.252 162.782-79.165 39.845 25.66 81.54 48.49 123.353 71.117a11872.621 11872.621 0 0 0 38.048 24.8L520.382 831.46a32.013 32.013 0 0 1-31.984.003s-83.335-48.923-134.677-78.597a14.825 14.825 0 0 1-7.41-12.858l.723-12.294z" fill="#D8ECFC"></path><path d="M352.608 716.33l138.735-80.014c45.377 30.804 93.605 57.244 141.988 83.424 9.277 6.066 18.557 12.138 27.846 18.184l-141.53 81.626a25.312 25.312 0 0 1-25.28 0l-141.76-82.546c-7.968-4.597-7.968-16.08 0-20.675" fill="#B1D0E5"></path><path d="M760.34 814.85l-29.397 22.366-536.15-809.782c-.02-8.358 8.312-18.122 16.748-22.448 13.152-6.736 28.896-6.09 41.727 1.244l490.907 279.897c13.923 7.958 22.528 22.73 22.565 38.74l1.153 474.715a19.123 19.123 0 0 1-7.553 15.27" fill="#C6DEF2"></path><path d="M710.273 836.99L224.74 558.87c-17.83-10.213-28.844-29.142-28.89-49.658l-1.054-481.778c-.035-12.895 13.928-20.997 25.143-14.586L725.306 301.73a35.373 35.373 0 0 1 17.835 30.617l1.067 484.986c.038 17.4-18.812 28.32-33.935 19.657" fill="#D8ECFC"></path><path d="M195.786 460.525l-.997-433.09c-.035-12.897 13.927-20.997 25.143-14.588l505.366 288.886a35.369 35.369 0 0 1 17.835 30.614l1.035 448.193-548.382-320.015z" fill="#084478"></path><path d="M449.36 662.156c7.467-.842 12.635-9.364 11.543-19.036-1.095-9.67-8.035-16.828-15.503-15.986-7.468.84-12.636 9.361-11.54 19.033 1.094 9.672 8.031 16.828 15.5 15.99" fill="#FFF"></path><path d="M217.149 38.353L718.862 326.33l1.415 403.454-502.762-292.89z" fill="#EEF8FF"></path><path d="M696.512 715.668c-14.052-41.1-30.792-81.417-47.487-121.545-3.93-9.443-7.898-18.96-13.641-27.43-12.664-18.675-34.017-31.21-56.528-33.184-6.773-.593-13.661-.29-20.298-1.765-18.3-4.075-31.208-21.022-37.252-38.735-6.045-17.71-6.801-36.723-10.295-55.103-12.696-66.787-60.153-120.882-106.035-171.129-6.358-6.963-13.39-14.304-22.665-16.056-9.27-1.748-20.594 5.545-18.962 14.82-24.516 26.616-56.846 41.237-88.964 57.961-18.943 9.861-37.957 19.622-57.06 29.197v84.4l479.188 278.57z" fill="#D8ECFC"></path><path d="M773.878 992.572c-3.457-.728-7.02-.862-10.546-.683-3.529.184-7.052.628-10.509 1.383-6.915 1.507-13.597 3.978-19.955 7.075-1.577.802-3.118 1.668-4.678 2.5-.774.43-1.573.815-2.322 1.284l-2.244 1.41c-1.49.954-3.014 1.855-4.475 2.85l-4.297 3.11c-5.691 4.196-10.992 8.894-16.281 13.544l-15.768 14.113c-2.618 2.344-5.21 4.793-7.784 7.147a34.986 34.986 0 0 1-8.95 5.415c-6.453 2.692-13.744 3.516-20.605 1.962-6.903-1.41-13.278-4.74-19.01-8.833 5.656 4.196 11.986 7.656 18.929 9.206 6.925 1.624 14.323.832 20.888-1.857a35.591 35.591 0 0 0 9.125-5.445l7.844-7.112 15.849-14.013c5.27-4.693 10.516-9.4 16.152-13.61l4.255-3.12c1.451-1 2.96-1.906 4.435-2.864l2.224-1.418c.744-.47 1.536-.86 2.302-1.291 1.548-.837 3.076-1.71 4.639-2.518 6.308-3.12 12.942-5.61 19.81-7.164a64.778 64.778 0 0 1 10.437-1.564c3.511-.241 7.067-.174 10.536.494" fill="#FFF"></path><path d="M750.113 977.29c10.509 6.538 23.757 15.281 23.757 15.281 0 4.291-2.192 8.29-5.818 10.598l-71.532 45.624c-9.516 6.07-20.665 9.24-31.945 8.716-5.83-.27-12.624-1.274-20.258-3.526l25.763-36.568a117.941 117.941 0 0 1 55.335-42.61 28.169 28.169 0 0 1 24.698 2.485" fill="#C6DEF2"></path><path d="M773.878 992.571s-29.39-7.462-68.228 26.746c-26.833 23.637-29.105 26.018-29.105 26.018s-20.848 21.398-50.09-.486c0 0-14.62-9.727-17.058-12.158-2.434-2.43-9.748-19.453 36.552-58.356 46.298-38.906 82.85-19.453 82.85-19.453s53.61 26.746 45.079 37.69" fill="#D8ECFC"></path><path d="M666.103 477.003c27.31 15.736 49.453 54.006 49.364 85.32-.088 31.318-22.377 43.992-49.688 28.257-27.31-15.736-49.477-54.02-49.39-85.334.091-31.317 22.4-43.976 49.713-28.243" fill="#084478"></path><path d="M108.89 493.576c5.45 12.49 12.036 28.879 25.603 30.394 13.276 1.48 21.931-3.765 28.906-4.05 5.16-.211 3.156 5.604 7.1 2.282 5.23-4.405 6.592-11.825 7.05-18.64 2.326-34.852-10.285-69.11-26.925-99.84-2.372-4.377-5.199-9.037-9.882-10.74-6.53-2.376-13.537 2.02-18.452 6.92-4.59 4.58-11.623 8.982-14.958 14.455-4.113 6.752-5.31 17.126-6.24 24.817-2.228 18.392.377 37.398 7.798 54.403" fill="#FFDBA7"></path><path d="M61.037 372.792c-.365-1.639-.144-3.357.272-4.98.694-2.713 2.167-5.522 4.8-6.488 1.627-.597 3.43-.389 5.15-.17 1.72.213 3.48.444 5 1.271 1.522.825 2.766 2.391 2.684 4.115-.087 1.922-1.697 3.394-3.262 4.52-3.67 2.631-12.915 9.477-14.645 1.732" fill="#FFEED7"></path><path d="M68.228 381.742c-4.005-3.295-7.505-8.567-5.615-13.394 1.62-4.144 6.472-5.982 10.887-6.59a39.751 39.751 0 0 1 20.09 2.46c5.277 2.114 10.59 6.22 10.861 11.887.32 6.685-7.204 13.948-13.773 14.082-7.856.16-16.49-3.548-22.449-8.445" fill="#FFDBA7"></path><path d="M458.094 570.407L424.43 380.652c-1.74-9.779-7.134-20.625-14.244-28.623L272.18 196.719c-3.553-4.005-7.497-7.303-11.447-9.577a35.175 35.175 0 0 0-1.358-.745c-3.507-1.818-6.975-2.809-10.133-2.896l-138.423-3.907c-7.134-.199-12.57 4.4-14.358 12.15L61.876 342.178c-1.586 6.913-.29 16.183 3.528 25.115.465 1.092.963 2.18 1.498 3.252l95.27 191.496c4.913 9.86 12.706 18.643 20.63 23.207l153.408 88.34c7.898 4.562 15.736 4.79 20.693.619l96.01-81.313c4.952-4.18 6.918-12.701 5.18-22.487" fill="#326CE5"></path><path d="M253.444 396.553l-8.346 7.075 2.916 16.568 12.007 13.593 12.02.327 3.048-13.123-8.27-16.734-13.375-7.705m17.317-72.019l2.232 51.13c.105 1.903.66 3.89 1.63 5.856 1.45 2.93 3.584 5.254 5.749 6.503 1.498.862 3 1.202 4.315.877l35.657-8.264c-6.712-11.44-14.354-22.023-22.757-31.54-8.473-9.608-17.502-17.872-26.826-24.56m-70.734-13.304l35.508 49.551c1.356 1.805 2.834 3.21 4.402 4.112 3.939 2.272 7.167.596 7.373-3.8l.174.001 2.598-48.387a72.755 72.755 0 0 0-8.908-3.47c-15.59-4.923-29.824-4.23-41.147 1.993m87.452 214.142l-20.888-55.842c-.906-2.114-2.031-3.993-3.452-5.595-1-1.135-2.058-2.03-3.148-2.662a8.466 8.466 0 0 0-.293-.16c-2.598-1.387-4.975-1.059-6.214.84L232.3 493.401c8.928 8.74 18.23 15.86 27.587 21.25 6.405 3.69 12.833 6.57 19.166 8.565a75.921 75.921 0 0 0 8.426 2.158m-57.048-89.267l-.102-.283c.602-1.294.746-2.992.403-4.932-.75-4.253-3.65-8.629-7.047-10.642a9.484 9.484 0 0 0-1.406-.676l-42.84-16.45c3.159 12.221 7.797 24.416 13.737 36.33a207.064 207.064 0 0 0 20.48 32.94l16.775-36.287m114.969 39.4c1.032-10.1.453-21.159-1.623-32.877-2.1-11.852-5.656-23.975-10.58-36.023l-32.517 14.457c-1.172.636-1.978 1.708-2.33 3.248-.89 3.908 1.374 9.602 5.157 13.007l.037.218 41.856 37.97M174.784 377.31l41.769 10.328c1.583.256 2.886.01 3.867-.827 2.466-2.113 2.083-7.427-.866-12.108l.037-.18-32.427-52.089c-5.004 6.25-8.545 14.1-10.65 23.297-2.16 9.431-2.743 20.05-1.73 31.578M340.9 496.088l-43.108-33.302c-.58-.338-1.013-.636-1.426-.874a11.915 11.915 0 0 0-.34-.184c-.966-.502-1.914-.77-2.822-.787-3.564-.085-5.144 3.794-3.62 8.84l16.559 56.05c8.108-1.143 15.173-4.373 21.1-9.506 5.873-5.083 10.466-11.897 13.657-20.238m57.642 26.446c4.82 4.112 7.918 11.045 6.915 15.457-.858 3.767-4.451 4.57-8.505 2.235a15.628 15.628 0 0 1-2.105-1.47c-1.536-1.26-2.036-1.663-2.42-2.004-1.858-1.636-3.344-3.238-4.924-4.929-.791-.859-1.61-1.738-2.48-2.622-5.508-5.443-10.064-9.947-14.426-13.188-2.155-1.264-3.178-1.038-4.176-.822-1.127-.41-2.951-1.827-3.994-2.622-8.192 24.345-25.193 39-47.927 41.297.097.502.244 1.058.408 1.656.338 1.25.692 2.558.91 3.03-.71 1.597-1.22 2.75-.634 5.247 1.603 5.743 4.24 12.028 7.294 19.306.512 1.175 1.04 2.302 1.545 3.385 1.015 2.182 1.976 4.241 2.87 6.722.233.64.527 1.52.78 2.29 2.377 7.237.794 12.338-3.23 12.245-1.03-.029-2.137-.384-3.264-1.034-1.038-.596-2.093-1.446-3.118-2.518-2.143-2.24-3.897-5.195-4.942-8.316-.545-1.577-.832-2.404-1.023-3.02-.767-2.48-1.192-4.527-1.64-6.695-.23-1.09-.453-2.205-.737-3.382-1.863-7.414-3.414-13.585-5.636-19.239-1.102-2.513-2.416-3.725-3.683-4.897-.68-.86-.99-1.68-1.31-2.545-.345-.909-.711-1.905-.974-2.592a98.834 98.834 0 0 1-14.286-3.355c-7.854-2.478-15.807-6.042-23.738-10.613-13.032-7.507-26.007-17.73-38.354-30.292l-1.954 2.776c-1.284-.345-2.717-.725-3.586-.05-2.13 1.684-3.366 5.12-4.683 8.761-.547 1.53-1.125 3.111-1.774 4.614-.291.856-.53 1.718-.761 2.56-.453 1.634-.876 3.183-1.645 4.753-.18.355-.436.79-.682 1.206-2.008 3.556-5.248 3.996-8.468 2.14-1.105-.637-2.21-1.544-3.245-2.716-4.012-4.53-5.56-11.43-3.444-15.375.597-1.128.848-1.6 1.065-1.937.91-1.443 1.876-2.399 2.904-3.412.502-.502 1.035-1.028 1.553-1.61 3.302-3.997 5.95-7.367 7.542-11.126.416-1.408-.207-3.978-.717-5.808l1.503-3.253c-22.687-28.616-39.544-62.61-47.51-95.84l-3.665-1.455c-1.318-1.639-2.911-3.61-4.47-4.51-4.637-1.936-9.181-2.693-14.437-3.56a37.884 37.884 0 0 0-2.77-.3c-1.587-.132-3.093-.256-4.97-.76a30.46 30.46 0 0 1-1.42-.452c-1.707-.554-2.414-.874-3.103-1.272-4.044-2.33-7.63-7.273-8.468-12.023-.976-5.545 2.16-8.887 6.98-7.452 1.379.41 1.95.58 2.404.745 1.88.668 3.5 1.53 5.216 2.438.87.47 1.776.942 2.717 1.396 5.758 2.63 10.61 4.842 14.856 5.753 1.214.132 2.347-.92 3.255-1.77l3.772.54c-3.625-32.106 2.447-59.02 17.158-75.85l-2.635-4.327c-.224-1.915-.518-4.385-1.662-6.45-3.263-5.407-7.448-10.79-12.288-17.018-.806-1.01-1.598-1.952-2.364-2.866-1.508-1.788-2.932-3.489-4.474-5.68a86.332 86.332 0 0 1-1.195-1.79c-2.533-3.788-3.787-6.917-4.163-9.765-.376-2.839.174-5.049 1.545-6.216 1.483-1.274 3.74-1.172 6.234.264 2.344 1.44 4.37 3.483 6.022 5.954.945 1.386 1.466 2.158 1.834 2.737 1.456 2.287 2.518 4.305 3.64 6.44.563 1.066 1.145 2.18 1.777 3.318 4.086 7.137 7.48 13.057 11.134 18 .995 1.235 1.868 1.933 2.685 2.402.584.338 1.137.56 1.684.772 1.045.914 2.608 3.102 3.524 4.348 14.727-9.3 33.44-10.774 54.208-4.224 4.878 1.547 9.907 3.56 14.948 5.982l.27-3.913c1.034-.549 2.333-1.582 2.702-3.385.375-4.862-.195-10.762-.856-17.605a95.054 95.054 0 0 0-.46-3.44c-.3-2.115-.596-4.114-.655-6.366a29.66 29.66 0 0 1 .01-1.617c.01-6.843 3.7-9.413 8.226-6.814 4.524 2.608 8.187 9.42 8.17 15.182.017 1.577.03 2.223.007 2.707-.077 2.17-.373 3.83-.691 5.59a65.606 65.606 0 0 0-.463 2.77c-.734 6.397-1.322 11.505-.98 16.69.278 2.401 1.283 4.035 2.264 5.622.45 1.443.532 3.722.605 5.02 26.128 17.788 50.463 45.328 68.579 77.664l3.225-.7c.833.556 1.366.91 1.938 1.241 1.023.59 2.178 1.108 3.103 1.023 3.629-.708 7.003-2.69 10.912-4.979a29.605 29.605 0 0 0 2.048-1.41c1.152-.84 2.237-1.63 3.715-2.24.366-.15.88-.318 1.334-.454 2.267-.76 4.372-.42 6.515.814 2.842 1.815 4.867 4.157 6.226 6.906 2.807 5.674 1.884 11.378-2.06 12.704-1.048.387-1.478.538-1.822.638-1.54.415-2.971.462-4.484.51a32.64 32.64 0 0 0-2.401.128c-4.903.646-9.088 1.202-12.343 2.828-1.356.874-1.45 2.387-1.545 3.842-.282.75-.797.98-1.334 1.224-.573.253-1.202.53-1.635.735 7.28 16.813 12.45 33.624 15.366 50.073 2.884 16.3 3.427 31.526 1.6 45.25l3.367 3.14c.893 2.025 2.023 4.602 3.58 6.194 4.209 3.946 9.039 7.31 14.625 11.202 1.15.782 2.053 1.343 2.932 1.89 1.712 1.057 3.327 2.06 5.213 3.553.426.34.966.807 1.488 1.26.326.282.64.55.906.776" fill="#FFF"></path><path d="M485.619 561.822v-.055c0-.404 0-.814-.015-1.226-.003-.08-.01-.16-.013-.236a20.468 20.468 0 0 0-.02-.4c-.007-.199-.012-.392-.025-.588-.015-.216-.034-.437-.052-.656-.012-.127-.02-.25-.032-.377l-.013-.197a43.38 43.38 0 0 0-.159-1.373c-.015-.104-.032-.21-.042-.315-.038-.26-.072-.524-.115-.787a49.275 49.275 0 0 0-.134-.805l-33.666-189.754c-.028-.15-.055-.298-.085-.45-.08-.43-.167-.86-.261-1.29-.003-.023-.01-.043-.015-.066-.015-.07-.033-.136-.047-.206-.08-.352-.16-.705-.247-1.06l-.107-.405-.132-.492c-.04-.153-.077-.307-.122-.46-.082-.299-.171-.6-.26-.9-.036-.117-.066-.23-.103-.345l-.037-.13a74.04 74.04 0 0 0-.436-1.363c-.022-.062-.047-.124-.067-.186a20.704 20.704 0 0 0-.14-.395c-.086-.25-.171-.5-.263-.755-.07-.198-.15-.397-.224-.596-.052-.144-.107-.288-.162-.434-.037-.092-.072-.186-.107-.278-.166-.43-.34-.86-.517-1.287-.013-.03-.028-.06-.04-.092l-.105-.24c-.132-.316-.263-.63-.405-.946-.072-.167-.152-.333-.23-.5a17.52 17.52 0 0 0-.2-.444c-.056-.12-.108-.238-.163-.355-.186-.4-.383-.797-.58-1.195-.02-.044-.04-.089-.062-.13a71.523 71.523 0 0 0-.821-1.598l-.055-.097a68.803 68.803 0 0 0-1.234-2.207c-.032-.055-.07-.107-.104-.164a64.667 64.667 0 0 0-2.108-3.347c-.025-.035-.047-.075-.075-.112-.092-.14-.189-.268-.283-.405-.329-.474-.66-.946-1-1.41-.078-.107-.155-.219-.232-.326-.12-.158-.242-.312-.361-.47-.16-.21-.316-.419-.478-.625-.084-.11-.166-.226-.254-.335-.196-.246-.395-.487-.594-.73-.095-.117-.19-.238-.286-.355-.035-.04-.065-.08-.1-.12a55.4 55.4 0 0 0-.96-1.122c-.058-.067-.12-.136-.18-.203L299.085 181.121a40.082 40.082 0 0 0-.868-.956c-.097-.104-.194-.204-.291-.306-.137-.149-.279-.293-.42-.44-.123-.126-.24-.255-.362-.377-.166-.17-.335-.332-.502-.499-.147-.144-.291-.288-.438-.43-.065-.06-.127-.128-.192-.19a45.974 45.974 0 0 0-.811-.75c-.102-.095-.204-.194-.309-.288a42.024 42.024 0 0 0-1.262-1.1 1.068 1.068 0 0 0-.066-.055c-.107-.09-.214-.174-.321-.263-.27-.224-.538-.447-.812-.66-.07-.055-.142-.108-.214-.165-.149-.116-.3-.228-.45-.342-.174-.13-.343-.264-.515-.39-.137-.102-.274-.194-.408-.29l-.449-.32c-.097-.067-.197-.14-.294-.208a34.468 34.468 0 0 0-.774-.51c-.087-.056-.176-.118-.266-.175a33.987 33.987 0 0 0-1.423-.864 29.514 29.514 0 0 0-1.362-.746l-.584-.295c-.155-.077-.309-.144-.463-.219-.135-.064-.271-.126-.406-.188-.062-.03-.124-.062-.189-.09-.256-.114-.513-.218-.766-.325-.083-.035-.167-.072-.247-.104a25.955 25.955 0 0 0-1.12-.422.716.716 0 0 0-.074-.025c-.112-.04-.222-.072-.334-.11-.224-.074-.45-.153-.674-.218-.06-.02-.122-.035-.184-.052a14.72 14.72 0 0 0-.453-.124c-.154-.043-.309-.09-.458-.127-.095-.025-.187-.04-.279-.062-.166-.04-.33-.077-.497-.11-.112-.024-.227-.054-.341-.076-.115-.023-.23-.038-.346-.057-.174-.033-.354-.06-.528-.087-.09-.015-.179-.033-.268-.045-.127-.017-.247-.025-.371-.037a11.57 11.57 0 0 0-.575-.06c-.077-.007-.162-.02-.239-.027a24.36 24.36 0 0 0-.737-.035l-138.42-3.912h-.51c-.064 0-.127.007-.189.007-.298.005-.59.02-.88.042-.075.005-.152.003-.225.01-.025.003-.047.008-.072.01a14.58 14.58 0 0 0-1.286.184c-.038.007-.077.01-.117.017-.1.02-.2.047-.299.07-.157.035-.31.07-.465.107-.15.04-.299.084-.448.13-.152.043-.301.09-.45.135-.053.02-.105.033-.157.05-.065.022-.125.052-.192.077-.251.094-.505.194-.749.303-.102.045-.204.087-.304.134-.328.154-.657.32-.973.504l-26.897 15.597c.316-.184.642-.348.975-.504.097-.048.2-.09.299-.134.249-.107.498-.209.754-.303.114-.04.229-.085.346-.125.15-.05.298-.094.45-.139.15-.044.296-.087.45-.126.152-.04.307-.075.461-.107.14-.032.279-.062.418-.09.42-.076.851-.14 1.29-.18.094-.01.193-.016.29-.023.291-.02.585-.035.881-.04.234-.005.465-.01.702-.002l138.422 3.908c.321.008.645.033.973.06a23.772 23.772 0 0 1 1.217.144c.174.025.349.054.525.087a17.672 17.672 0 0 1 1.182.24c.247.06.49.122.74.19.149.042.3.081.452.123.286.085.573.177.859.274.112.037.221.07.333.11.396.135.794.284 1.195.446.082.032.161.07.241.102.321.131.64.268.96.414.135.062.27.127.406.192a31.288 31.288 0 0 1 2.409 1.256c.473.273.95.564 1.423.864.087.06.177.12.27.18.352.23.71.47 1.064.717.15.101.296.208.446.315.308.22.617.45.923.683l.453.342c.34.266.684.544 1.025.825.107.09.216.171.323.26.443.376.886.76 1.327 1.158.104.094.209.193.313.288.336.308.667.62.998.94.147.14.289.286.436.428a72.912 72.912 0 0 1 1.289 1.316c.388.415.776.832 1.157 1.262l138.004 155.308c.42.472.834.953 1.24 1.445.099.117.194.236.29.355a57.441 57.441 0 0 1 1.914 2.486c.341.464.675.934 1.003 1.41.117.172.239.343.358.517a66.443 66.443 0 0 1 2.11 3.347c.055.094.115.186.167.278a66.117 66.117 0 0 1 2.11 3.916 79.877 79.877 0 0 1 .944 1.994c.216.482.43.964.634 1.448.033.08.07.16.105.24.226.552.448 1.106.66 1.657.056.144.109.288.163.432.17.452.331.901.488 1.353.045.132.095.263.14.395.189.56.37 1.118.54 1.676l.101.348c.135.454.264.906.386 1.358.042.164.087.33.127.494.127.487.246.976.356 1.463.015.07.032.14.05.208.13.606.251 1.207.358 1.806l33.664 189.754c.094.534.176 1.063.249 1.592.015.104.032.211.044.315.07.527.125 1.05.175 1.57l.03.377a43.218 43.218 0 0 1 .099 1.642c.015.511.025 1.02.022 1.517 0 .072-.005.141-.005.213-.005.43-.017.855-.04 1.277l-.03.47c-.024.347-.052.69-.086 1.03-.018.156-.033.315-.05.471-.042.37-.097.733-.152 1.093-.017.117-.032.233-.052.347-.082.48-.174.95-.279 1.406-.035.15-.077.288-.114.434-.08.32-.16.646-.252.957-.122.414-.258.816-.4 1.214-.023.06-.04.121-.063.181-.181.49-.383.96-.594 1.413-.05.107-.105.204-.157.308-.231.474-.485.931-.752 1.368-.077.124-.149.253-.229.373-.074.116-.154.228-.23.34a17.056 17.056 0 0 1-.723.953c-.169.206-.345.403-.525.594a11.403 11.403 0 0 1-1.068 1.033l-96.008 81.31c-.538.452-1.11.855-1.713 1.202l26.898-15.596c.605-.35 1.175-.75 1.712-1.205l96.01-81.31c.286-.24.56-.5.823-.768.082-.084.162-.176.246-.263.177-.194.354-.39.526-.593.087-.107.171-.216.258-.328.16-.204.311-.412.46-.628.078-.112.157-.224.232-.338.037-.055.077-.107.11-.162.044-.067.077-.144.12-.213.268-.437.52-.892.753-1.368.035-.067.075-.127.107-.196.017-.035.03-.075.045-.112a20.167 20.167 0 0 0 .602-1.418c.017-.057.035-.12.057-.176.145-.395.279-.797.4-1.212.006-.018.013-.032.018-.05.085-.295.162-.603.237-.909.035-.144.077-.285.112-.432l.007-.025a26.095 26.095 0 0 0 .271-1.38c.02-.114.035-.234.053-.35.045-.286.094-.57.13-.867.01-.072.014-.15.022-.223.02-.157.034-.316.05-.472.017-.189.042-.375.059-.564.012-.154.017-.313.027-.467.013-.156.023-.313.028-.469.007-.104.015-.206.02-.31.015-.318.02-.644.025-.969 0-.07.005-.14.005-.21" fill="#2959BC"></path><path d="M684.567 522.442c-9.085-13.781-26.937-31.523-37.508-25.435L533.6 573.153c-9.026.047-19.73 3.648-20.404 4.81-5.994 3.208-11.01 8.366-16.393 12.689-7.934 6.372-17.153 11.199-24.193 18.544-12.948 13.503-16.504 33.1-21.092 51.222-1.364 5.386-2.974 10.936-6.642 15.115-2.21 2.513-5.06 4.403-7.244 6.94-2.18 2.54-3.643 6.144-2.344 9.228l-18.718 4.246c30.068 4.552 55.09 1.798 61.104.303 4.974-1.236 10.412-4.954 14.266-8.328 4.547-3.978 27.76-22.61 56.033-39.373 58.408-34.634 140.703-77.15 140.703-77.15 10.57-6.088 4.98-35.173-4.109-48.957m1.132 1.159c-.074-.116-.153-.236-.232-.362.079.121.153.237.232.362" fill="#FFDBA7"></path><path d="M685.578 523.41c-.084-.12-.167-.25-.246-.37.084.13.162.25.246.37m.766 1.15s-.047-.065-.116-.18c.037.064.074.115.116.18m-.834-1.26c-.159-.24-.32-.49-.488-.746.157.241.315.487.487.746m.489.74c-.153-.233-.301-.46-.45-.678.163.241.316.468.45.677m-.764-1.139c-.163-.254-.334-.513-.483-.745.163.25.325.5.483.746m-.354-.56l-.031-.046c.014.018.019.027.032.046m1.124 1.726c-.052-.078-.098-.157-.154-.24.05.078.102.162.154.24m.245.365c-.01-.013-.019-.032-.033-.05.014.018.023.037.032.05" fill="#FFDBA7"></path><path d="M686.146 524.271c-.08-.11-.149-.227-.228-.338l.228.338m.128.213a22.919 22.919 0 0 1-.246-.38c.084.13.158.25.246.38m-2.622-4.008a2.968 2.968 0 0 1-.098-.153c.02.037.051.083.098.153m.115.159c-.065-.097-.116-.18-.163-.25.047.065.093.149.163.25m.139.206c-.088-.134-.158-.245-.228-.347.07.102.14.217.228.347m1.042 1.614c-.153-.236-.288-.445-.427-.653.14.213.283.435.427.653m-1.36-2.085c-.046-.065-.046-.07 0 0m.374.559l-.145-.218c.042.065.093.143.144.218m.532.812c-.14-.213-.28-.417-.395-.597.125.19.26.39.395.597m.232.365c-.148-.223-.288-.445-.432-.658.135.204.279.421.432.658" fill="#FFDBA7"></path><path d="M684.037 521.05a8.462 8.462 0 0 1-.145-.224c.047.074.089.143.144.222m.221.355c-.121-.185-.242-.366-.344-.528.098.153.223.338.344.528M401.008 678.237c1.207 5.409 3.09 11.009 7.312 14.6 4.976 4.24 16.306 3.974 22.6 2.19 6.293-1.782 7.806-4.76 13.188-8.47-.988.7-13.318-7.344-14.915-8.225l-16.098-8.876c-2.598-1.432-9.085-6.478-12.415-4.362-3.235 2.056-.356 10.082.328 13.143" fill="#FFDBA7"></path><path d="M441.322 682.439c-8.138-4.68-15.658-5.527-23.795-10.208-.766-.445-1.998-1.262-3.496-2.267-.306-.17-.615-.338-.923-.51-2.598-1.431-9.086-6.474-12.415-4.36-.953.607.923 13.408.818 14.77 0 0 1.951 5.45 4.475 6.835 13.81 7.578 35.803-3.99 35.336-4.26" fill="#F0C17D"></path><path d="M383.465 611.783c-.44-3.57.137-7.412 2.34-10.26 2.204-2.85 6.258-4.406 9.6-3.05 3.765 1.527 5.395 5.858 6.617 9.727l11.564 36.584c1.28 4.06 2.652 8.274 5.6 11.348 2.903 3.032 6.984 4.586 10.92 6.051 5.455 2.032 10.91 4.06 16.362 6.091 2.394.89 4.843 1.81 6.793 3.455 1.95 1.646 3.347 4.186 2.932 6.7-.388 2.333-2.257 4.208-4.4 5.216-2.14 1.01-6.918 4.835-9.26 5.2-9.664 1.502-25.3 2.535-38.102-6.106-7.292-4.92-19.66-60.35-20.966-70.956" fill="#FFDBA7"></path><path d="M430.099 662.184c-3.937-1.465-8.018-3.02-10.92-6.051-2.948-3.074-4.32-7.288-5.603-11.348-3.852-12.195-7.707-24.39-11.561-36.584-1.222-3.87-2.855-8.2-6.62-9.727a6.973 6.973 0 0 0-2.944-.481c1.994 12.036 7.33 44.677 10.357 54.389 2.738 8.78 6.936 12.266 15.145 16.443 11.75 5.98 21.839 6.364 33.477 5.016.339-1.177.172-2.406-.298-3.546-1.476-.82-3.081-1.43-4.671-2.02l-16.362-6.09" fill="#F0C17D"></path><path d="M402.676 570.203c5.626 6.007 9.8 13.784 12.584 22.083 2.782 8.298 5.788 16.562 8.35 24.93 1.365 4.438 3.126 8.922 6.414 12.205 3.755 3.745 9.013 5.47 13.96 7.402a121.788 121.788 0 0 1 20.44 10.29c2.98 1.868 5.917 3.904 8.127 6.638 2.207 2.731 3.62 6.27 3.128 9.746-.7 4.907-5.104 8.666-9.886 10.01-4.783 1.343-11.445 4.338-16.327 3.42-9.598-1.806-32.039-10.172-37.5-19.397-16.713-28.24-22.33-68.269-25.055-74.599-1.707-3.962-4.377-8.005-1.697-12.112 4.206-6.437 12.995-5.386 17.462-.616" fill="#FFDBA7"></path><path d="M467.426 651.106a6.45 6.45 0 0 0 .527-1.624 56.593 56.593 0 0 0-3.52-2.368 121.906 121.906 0 0 0-20.443-10.29c-4.946-1.935-10.206-3.66-13.958-7.404-3.29-3.283-5.052-7.767-6.413-12.205-2.565-8.37-5.571-16.632-8.353-24.93-2.785-8.3-6.958-16.076-12.585-22.083-2.486-2.653-6.313-4.151-9.94-3.85.502.802 1.16 1.584 1.59 2.525 3.232 7.137 6.66 16.9 9.933 25.246 3.5 8.927 8.035 17.077 11.73 25.924 3.696 8.848 8.414 17.437 15.227 24.194 6.814 6.756 15.94 11.556 25.547 11.72 4.13.07 8.866-1.14 10.658-4.855" fill="#F0C17D"></path><path d="M492.808 638.088c-1.187-7.89-8.384-13.23-14.806-17.978-10.872-8.043-23.123-12.02-32.67-21.591-10.54-10.57-18.224-26.89-26.88-39.05-2.388-3.355-4.774-6.844-8.161-9.193-3.387-2.35-8.075-3.332-11.653-1.286-3.45 1.974-5.005 6.275-4.813 10.235.192 3.96 4.962 16.24 4.962 16.24 14.015 27.352 17.566 47.508 42.597 69.178 5.338 4.624 12.56 9.935 19.226 12.282 6.666 2.346 16.172 1.646 22.468-1.562 6.296-3.21 10.78-10.298 9.73-17.275" fill="#FFDBA7"></path><path d="M491.638 634.084c-2.563-5.775-8.352-10.076-13.625-13.972-10.87-8.043-23.12-12.019-32.668-21.592-10.54-10.57-18.225-26.89-26.878-39.05-2.389-3.354-4.775-6.843-8.164-9.192-1.56-1.082-3.394-1.867-5.27-2.21 4.373 3.99 7.986 9.463 11.271 14.604 13.643 21.345 16.907 33.996 28.618 49.454 4.457 5.885 8.304 13.16 14.087 17.757 5.78 4.594 12.681 8.023 20.037 8.726 4.673.447 10.088-.656 12.592-4.525" fill="#F0C17D"></path><path d="M529.761 618.527c1.625.462 3.494 1.264 3.8 2.923.398 2.146-2.058 3.606-4.096 4.385-4.631 1.77-9.262 3.541-13.893 5.314-7.851 3.002-15.817 6.002-24.15 7.355-5.338.87-22.705.884-28.257-6.928-3.456-4.864 15.682-6.784 19.442-8.619a67.832 67.832 0 0 1 21.503-6.334c8.565-1.04 17.342-.45 25.651 1.904" fill="#F0C17D"></path><path d="M546.409 569.088c-5.189-2.58-20.216.365-26.437 3.824-13.217 7.345-27.319 14.472-42.282 16.687-5.265.78-10.64.623-15.91 1.373-5.271.75-13.583 5.008-15.544 7.727-1.962 2.722-4.088 7.24-3.195 13.928.894 6.69 5.97 12.64 12.447 14.584 6.271 1.885 13.003.186 19.286-1.664 14.495-4.268 34.985-8.413 49.91-6.019 4.532.728 12.321 5.242 15.817 2.272 11.51-9.779 12.383-49.494 5.908-52.712" fill="#FFDBA7"></path><path d="M394.34 572.056l-1.194-3.161c-.271-.716-.548-1.443-1.043-2.034-1.177-1.403-3.424-1.686-5.111-.914-1.687.775-3.224 3.087-3.71 4.827-.12 3.998.602 5.635 1.87 9.178.66 1.2 1.529 2.322 2.686 3.096 1.157.773 2.628 1.168 4 .867 2.323-.51 3.796-2.875 3.973-5.167.174-2.295-.655-4.535-1.47-6.692m-3.061 31.396c-.285-1.075-.57-2.15-.857-3.226-.194-.73-.393-1.475-.799-2.093-.958-1.47-2.95-1.89-4.514-1.22-1.56.672-3.096 2.887-3.648 4.596-.378 3.978.157 5.656 1.055 9.267.51 1.24 1.212 2.41 2.195 3.25.985.845 2.277 1.326 3.526 1.11 2.113-.367 3.593-2.642 3.907-4.916.31-2.277-.28-4.564-.866-6.767m66.367 14.886c2.797.44 5.883.827 8.272-.69 1.384-.88 2.344-2.31 2.944-3.832 1.84-4.683.204-10.491-3.813-13.53-3.416-2.587-8.567-3.076-12.382-1.057-1.433.76-1.284.9-.341 2.026.776.927 1.55 1.81 2.21 2.829a20.971 20.971 0 0 1 2.737 6.33c.64 2.584.789 5.29.373 7.923m-63.705-61.532a14.963 14.963 0 0 0 1.857 6.926c.746 1.355 1.727 2.624 3.036 3.498 1.306.874 2.968 1.32 4.521.981 2.62-.576 4.285-3.25 4.484-5.84.2-2.59-.736-5.12-1.66-7.56-.45-1.19-.898-2.383-1.35-3.572-.304-.807-.62-1.632-1.18-2.297-1.329-1.587-3.866-1.907-5.773-1.033-1.906.877-3.19 2.73-3.74 4.698-.553 1.967-.45 4.05-.177 6.071" fill="#FFEED7"></path><path d="M117.7 404.48c-.479-3.683-2.435-7.38-5.787-8.997-2.926-1.408-6.398-1.04-9.543-.213-7.003 1.84-13.403 5.848-18.148 11.298-3.173 4.323-4.23 10.157-2.67 15.294 1.712 5.64 6.51 10.238 12.225 11.718 2.797.725 5.724.74 8.615.75 1.891.007 4.11-.147 5.154-1.724 1.244-1.874-.04-4.34-1.294-6.207-1.254-1.868-2.518-4.348-1.254-6.208 1.07-1.57 3.282-1.676 5.106-2.203 2.707-.78 4.974-2.808 6.278-5.304 1.302-2.495 1.68-5.413 1.317-8.204" fill="#FFDBA7"></path><path d="M100.977 418.323c-1.957.941-3.822 2.397-4.502 4.458-1.008 3.061.864 6.255 2.653 8.94.585.878 1.24 1.792 1.97 2.6l1.3.01c1.894.006 4.11-.15 5.156-1.727 1.242-1.872-.04-4.34-1.294-6.208-1.257-1.865-2.52-4.348-1.254-6.208 1.07-1.567 3.282-1.673 5.106-2.2 2.707-.78 4.974-2.81 6.276-5.306.177-.336.293-.696.435-1.046-3.35 3.44-6.263 4.035-8.403 4.604-2.1.56-5.485 1.142-7.443 2.083" fill="#F0C17D"></path><path d="M102.569 407.068c.973 1.045 2.549 1.224 3.98 1.227a27.99 27.99 0 0 0 5.345-.512c1.052-.206 1.948-.988 2.319-2.02.196-.552.234-1.151.24-1.74a19.698 19.698 0 0 0-.427-4.42c-.127-.603-.246-1.204-.418-1.795-.142-.484-.336-1.368-.83-1.631-.317-.17-2.563-.12-3.155-.037-1.365.193-7.584.432-8.312 3.747-.383 1.743.013 5.843 1.26 7.18" fill="#FFEED7"></path><path d="M97.691 435.321c3.472-3.392 7.486-6.476 12.21-7.606 4.724-1.127 10.271.12 13.135 4.035 3.118 4.261 2.218 10.447-.69 14.852-2.91 4.405-7.427 7.45-11.79 10.427-4.369 2.974-8.83 6.138-11.536 10.672-1.177 1.974-2.013 4.2-3.623 5.843-3.42 3.494-9.526 3.146-13.442.216-3.756-2.803-7.71-9.113-6.794-13.973 1.321-7.01 19.06-21.074 22.53-24.466" fill="#FFDBA7"></path><path d="M122.327 446.601c1.434-2.172 2.372-4.775 2.59-7.367-2.084 7.968-20.994 16.446-26.424 22.944-3.835 4.591-3.807 9.636-3.55 11.718.141-.124.303-.216.437-.352 1.608-1.644 2.444-3.87 3.623-5.843 2.705-4.535 7.167-7.698 11.534-10.673 4.365-2.977 8.881-6.022 11.79-10.427" fill="#F0C17D"></path><path d="M118.868 438.795a13.281 13.281 0 0 0-2.234-6.076c-.585-.85-1.316-1.664-2.294-1.984-.777-.256-1.633-.166-2.402.1-.77.27-1.465.71-2.14 1.169-1.055.722-2.083 1.512-2.89 2.508-.805.993-1.375 2.215-1.407 3.494 0 0-.023 2.284.647 3.396.963 1.605 2.884 2.466 4.758 2.56 1.873.093 3.72-.484 5.45-1.206.843-.353 1.72-.787 2.182-1.577.413-.703.415-1.572.33-2.384" fill="#FFEED7"></path><path d="M121.382 485.235c-1.015-.052-2.04.21-3.046.052-1.002-.164-2.035-.998-1.87-2.002.089-.528.482-.948.853-1.338 3.916-4.1 11.235-13.781 11.573-21.002.18-3.807-1.908-8.433-5.004-10.743-3.108-2.324-8.013.5-9.424 1.488-6.365 4.452-11.563 9.376-16.65 15.239-4.997 5.76-13.052 18.226-9.784 25.15 1.24 2.626 3.735 4.993 6.106 6.676 2.203 1.567 3.325 2.667 6.025 2.486 2.697-.184 5.31-.976 7.898-1.765 3.997-1.217 7.99-2.436 11.987-3.653 1.744-.534 3.586-1.125 4.785-2.5 1.197-1.374 1.523-3.445.809-5.12-.714-1.675-2.436-2.876-4.258-2.968" fill="#FFDBA7"></path><path d="M117.326 481.947c3.917-4.1 11.235-13.781 11.57-21.002.183-3.81-1.905-8.433-5.001-10.745-.978-.73-2.132-.95-3.302-.882.152.26.324.54.538.855 1.184 1.758 2.309 3.57 3.128 5.53 1.107 2.647 1.637 5.622.945 8.405-.545 2.183-1.796 4.112-3.083 5.955a106.495 106.495 0 0 1-7.388 9.406c-1.732 1.967-3.564 3.908-4.718 6.26-1.155 2.354-1.543 5.249-.314 7.564.94 1.77 5.482 7.797 6.816 9.299 2.113-.643 2.58-4.46 4.696-5.105 1.747-.532 2.426-2.79 3.625-4.165 1.197-1.375 1.523-3.444.81-5.12-.715-1.676-2.437-2.875-4.26-2.967-1.014-.052-2.042.21-3.044.05-1.003-.162-2.036-1-1.872-2 .087-.528.483-.948.854-1.338" fill="#F0C17D"></path><path d="M109.735 461.57c.463 2.238 2.001 4.11 4.676 3.88 2.807-.24 6.01-2.377 7.82-4.456 1.044-1.201 1.773-2.763 1.64-4.348-.2-2.284-2.579-4.86-4.85-5.27-3.61-.654-7.636 2.949-8.925 6.035-.522 1.252-.647 2.774-.359 4.16" fill="#FFEED7"></path><path d="M138.228 512.546c-.963-1.26-2.21-2.316-2.956-3.714-1.56-2.918-.59-6.473.31-9.654.895-3.184 1.6-6.884-.342-9.563-1.488-2.051-4.29-2.905-6.786-2.448-2.496.457-4.673 2.063-6.239 4.055-1.565 1.99-6.047 12.162-7.239 14.7-3.282 6.995 4.995 13.89 7.672 15.373 3.536 1.96 7.79 2.434 11.828 2.674 1.374.08 2.804.045 4.034-.563 3.767-1.87 1.654-8.314-.282-10.86" fill="#FFDBA7"></path><path d="M135.616 508.685c-1.56-2.915-.933-6.324-.037-9.508.898-3.183 1.602-6.883-.341-9.562-.525-.723-1.22-1.289-2.001-1.712.983 1.6 1.376 2.923 1.647 4.566.495 3.003-1.005 6.45-1.577 9.439-.57 2.992-.496 7.117.905 10.064.742 1.57 2.954 1.997 5.127 2.46-.35-.732-.732-1.387-1.113-1.886-.96-1.262-1.861-2.464-2.61-3.862" fill="#F0C17D"></path><path d="M122.352 494.28c-.403 1.408-.81 2.85-.716 4.311.097 1.46.794 2.97 2.103 3.638 1.052.54 2.364.447 3.434-.07 1.065-.516 1.91-1.412 2.553-2.408a9.887 9.887 0 0 0 1.52-6.21c-.087-.957-.333-1.937-.95-2.677-.966-1.162-2.72-1.483-4.152-.989-1.431.494-2.543 1.68-3.233 3.022-.69 1.346-1 2.851-1.23 4.343" fill="#FFEED7"></path></g></svg>