<svg xmlns="http://www.w3.org/2000/svg" xlink="http://www.w3.org/1999/xlink" viewBox="0 0 175 270"><path d="M111.9 24l-6.2-3.6c-.2-.1-.5-.2-.8-.2l6.2 3.6c.3 0 .5.1.8.2zm-.8-.1l-6.2-3.6c-.3 0-.6.1-.9.2l6.2 3.6c.3-.1.6-.2.9-.2zm-.9.2l-6.2-3.6c-.1 0-.1.1-.2.1l6.2 3.6s.1-.1.2-.1z" fill="#EDC7AF"/><path fill="#FFF" d="M103.7 20.6L81.9 33.2c-1.1.6-2 1.8-2.4 3.1l6.2 3.6c.4-1.3 1.3-2.5 2.4-3.1L110 24.2l-6.3-3.6z"/><path fill="#EDD9CC" d="M85.6 63.2v-22c0-.4.1-.8.3-1.2l-6.2-3.6-.3 1.2v22c0 .8.3 1.4.8 1.7l6.2 3.6c-.5-.3-.8-.9-.8-1.7z"/><path fill="#EDC7AF" d="M88.2 36.8c-1.5.9-2.7 2.9-2.7 4.6v21.7c0 1.7 1.2 2.4 2.7 1.5L110 52.1c1.5-.8 2.7-2.9 2.7-4.6V25.8c0-1.7-1.2-2.4-2.7-1.5L88.2 36.8z"/><path fill="#7295AA" d="M163.9 71.3l3.8-2.2c.5-.3.9-1 .9-2l-3.8 2.2c0 1-.4 1.7-.9 2z"/><path fill="#EDE0D8" d="M164.8 69.4l3.8-2.2V48.5l-3.8 2.2v18.7z"/><path fill="#FFF9F5" d="M165.6 43.2L112 12.4c-.8-.5-1.6-.5-2.2-.2l-3.8 2.2c.6-.3 1.3-.3 2.2.2l53.6 30.8c1.7 1 3 3.3 3 5.3l3.8-2.2c0-1.9-1.3-4.3-3-5.3z"/><path fill="#EDD9CC" d="M108.2 14.6c-1.7-1-3-.2-3.1 1.7l-.1 22.3c0 1.9 1.4.7 3 1.7l53.6 30.8c1.7 1 3 .2 3.1-1.7l.1-18.7c0-1.9-1.4-4.3-3-5.3l-53.6-30.8z"/><path fill="#EDC7AF" d="M158.2 76.8v6.4c.7-.4 1.1-1 1.1-1.6v-6.4c0 .6-.3 1.2-1.1 1.6z"/><path fill="#EDC7AF" d="M140.7 86.9v6.4l17.6-10.1-.1-6.4-17.5 10.1zm0 6.4v-6.4c-1.5.8-3.9.8-5.3 0L86 58.3c-.7-.4-1.1-1-1.1-1.5v6.4c0 .6.4 1.1 1.1 1.5l53.4 31.1-.8-1.8c.8-.1 1.5-.3 2.1-.7z"/><path fill="#EDE0D8" d="M86.1 55.2c-1.5.9-1.5 2.2 0 3.1L135.4 87c1.5.8 3.9.8 5.3 0l17.5-10.1c1.5-.8 1.5-2.2 0-3.1l-49.3-28.7c-1.5-.9-3.9-.9-5.3 0L86.1 55.2z"/><path fill="#EDE0D8" d="M86 51.5l49.3 28.7c1.5.8 3.9.8 5.3 0L158.2 70c.7-.4 1.1-1 1.1-1.6v6.4c0 .6-.4 1.1-1.1 1.6l-17.5 10.1c-1.5.9-3.9.9-5.3 0L86.1 57.8c-.7-.4-1.1-1-1.1-1.5v-6.4c-.1.6.3 1.1 1 1.6z"/><path fill="#FFF9F5" d="M86.1 48.4c-1.5.8-1.5 2.2 0 3.1l49.3 28.7c1.5.8 3.9.8 5.3 0L158.2 70c1.5-.8 1.5-2.2 0-3.1l-49.3-28.7c-1.5-.9-3.9-.9-5.3 0L86.1 48.4z"/><path fill="#040F2D" d="M101.4 43.5c-1.4 4.9 1.9 7.9 3.9 7.9l16.6-.8c1.6 0 3-1.3 3-3v-.4c0-1.6-1.3-3-3-3l-16.6-.8c-2 .1-3.9.1-3.9.1z"/><path fill="#149EAB" d="M132.4 69.6c.3.1 4.1 1.5 3.7 2.3-.4.8-2.8 2.1-5.1.4 0 0-2.3.7-3-.4-.5-.7-2.5-4.6 2.4-3.8 0-.1 1.4 1.3 2 1.5zm1.4-4.6c.2.1 3.3 2.8 2.7 3.4s-3.4 1-4.9-1.4c0 0-2.4-.1-2.7-1.4-.2-.9-.8-5.2 3.5-2.7 0 .1.8 1.8 1.4 2.1z"/><path fill="#040F2D" d="M133.1 64.1l-8.3-18c-.9-1.6-2.9-2.3-4.5-1.4-1.6.9-2.3 2.9-1.4 4.6l6 9.7 3.9 6.3c.3-.2 3.5-.5 4.3-1.2z"/><path fill="#022540" d="M98.2 46.4c-3.1 4-1.1 8 .8 8.7l15.7 5.2c1.5.6 3.2-.2 3.8-1.7l.1-.3c.6-1.5-.2-3.2-1.7-3.8l-15.2-6.7c-1.8-.7-3.5-1.4-3.5-1.4z"/><path fill="#022540" d="M131.9 69.4L118 55.1c-1.4-1.3-3.5-1.2-4.8.2s-2.3 2.7-.9 4l10 7.9 5.8 4.7c.3-.3 3.2-1.6 3.8-2.5z"/><path fill="#160503" d="M99.6 18.7c.5-2 2.4-6.7 2.1-8.7 2.4-.9 3.3 20.7-.2 21.7-1.4.3-2.2-12.1-1.9-13zm-7-8.9c.7-.6 2.6 3.9 2.7 5.1 0 .1-.1.2-.2.1 0 .4.1.7.1 1.1v.3c.8 1.5 2.7 4.1 1.9 5.9-.7 1.4-2.7 7.3-3.1 6-.4-1.4-2.7-3.6-2.9-5.3-.5-4.1 1.5-13.1 1.5-13.2z"/><path fill="#12BECC" d="M104.8 31.4c.6 1.5 2.4 2.2 3.8 1.6 1.5-.6 1.9-1.3 1.2-2.8l-3.2-9.1c-.6-1.5-2.4-2.2-3.8-1.6-1.5.6-2.2 2.4-1.5 3.9l3.5 8z"/><path fill="#12BECC" d="M106.3 30.7c.9-1.3 1.8-1.2 3.1-.4l8.9 2.2.3 2.6-11.7-1.5c-1.3-.9-1.5-1.6-.6-2.9z"/><path fill="#149EAB" d="M107.4 32.9c-.1-1.9.1-5.6-.5-7.3-.3-1-2.7-5.5-2.8-5.7-.3-.4-.8-.7-1.3-.7 0 0-5.5-.4-11.4 4.1-.4.3 4.1 18.9 4.1 19 0 .2 0 .3.1.4 0 .1-.4 6.7 1.3 10 0 0 5.4-2.5 8.9-4.6 3.3-2 4.1-4.3 4.1-4.3-1.2-4.6-2.4-10.4-2.5-10.9z"/><path fill="#D9B4A4" d="M99.9 23c-.7.3-1.4.1-2.1-.1-1.1-.4-1.7-1.9-1.7-1.9l-.3-4.9 4.3.4s.4 3.6.4 4.9c0 .7.1 1.3-.6 1.6z"/><path fill="#260905" d="M93.3 17.8c2.6 2.2 3.5 1 5.9-.8 2.3-1.8 3.3-3.7 2.4-7-.9-3.5-6.1-3.7-8.4-1.5-3.3 3.3-2.4 7.2.1 9.3z"/><path fill="#E9C2B0" d="M93.6 14.4c.1 1.1.6 2.9 1.1 3.9 1.2 2.4 5.5 2.7 6.2 1.8.8-1.1 1.7-5.1 1.2-8.5-.4-3.4-2.2-2.8-4.9-2.8-1.7 0-4 2.2-3.6 5.6z"/><path fill="#260905" d="M95.2 7.9c2-1.7 5.3-.4 6.3.8 1.5 1.7 1.7 2.9 1.7 4.8l-2.7.2c-.2-.2-.7-1.3-.9-1.5.1.3.4 1.4.2 1.7 0 .1-1.3 0-1.3 0-.1-.1-.4-.9-.4-1v1.2s-3.3.9-4.6.7c-.1-.1 0-5.6 1.7-6.9z"/><path fill="#FFF" d="M163.6 54.1c-.2-.1-.5-.2-.8-.2s-.6.1-.9.2c-.1 0-.1.1-.2.1l-21.8 12.6c-1.1.6-2 1.8-2.4 3.1l6.2 3.6c.4-1.3 1.3-2.5 2.4-3.1l21.8-12.6c.1 0 .1-.1.2-.1.3-.2.6-.2.9-.2.3 0 .6 0 .8.2l-6.2-3.6z"/><path fill="#EDD9CC" d="M143.5 96.8v-22c0-.4.1-.8.3-1.2l-6.2-3.6-.3 1.2v22c0 .8.3 1.4.8 1.7l6.2 3.6c-.5-.2-.8-.8-.8-1.7z"/><path fill="#EDC7AF" d="M146.2 70.5c-1.5.8-2.7 2.9-2.7 4.6v21.7c0 1.7 1.2 2.4 2.7 1.5L168 85.7c1.5-.8 2.7-2.9 2.7-4.6V59.4c0-1.7-1.2-2.4-2.7-1.5l-21.8 12.6z"/><path fill="#12BECC" d="M90.2 38.7c0 1.6 1.3 2.8 2.9 2.8s2.8-1.3 2.8-2.9l-.3-14.1c0-1.6-1.3-2.8-2.9-2.8s-2.8 1.3-2.8 2.9l.3 14.1z"/><path fill="#E9C2B0" d="M103.3 38.5c-.9-.8-1.1-2.7-.9-3.3.4-.2 1.2-.6 2.2-1 1.4-.5 3-.8 3.9-.4 2.1 1 1.7 1.9 1.2 2.7-.9 1.3-5.3.7-6.4 2z"/><path fill="#12BECC" d="M90.3 39.3c-.3-1.5.6-3 2.2-3.3l11.2-1.6 1.1 3.8-11.1 3.4c-1.6.2-3.1-.8-3.4-2.3z"/><path fill="#260905" d="M91.6 10.8s4.8 2.8 4 3.8c-1.3 1.6 2.9 12.5 4.3 15 1 1.7-4.5 2.7-4.6 2.6-2.7-2.5-3.1-3.4-4.1-6.8-2.3-8 .4-14.6.4-14.6z"/><path fill="#024462" d="M104.8 35.9l11.8-7c.2-.1.3-.1.4 0l.6.3c-.1-.1-.3 0-.4 0l-.6.4c.1.1.2.1.4.2.1 0 .2.1.2.1.1 0 .1.1.1.2l.1 7.3c0 .2-.2.5-.3.6-.1-.1-.2-.1-.3-.2l.3.2-11.4 6.7c-.1.1-.2.1-.3 0l-.6-.3v.7c0 .2.1.3.2.4-.1-.1-.2-.1-.3-.2s-.2-.1-.3-.2-.2-.2-.2-.4l-.1-7.9c.1-.2.4-.7.7-.9z"/><path fill="#025A82" d="M105.6 36.7L117 30c.2-.1.4 0 .4.2l.1 7.3c0 .2-.2.5-.3.6l-11.4 6.7c-.2.1-.4 0-.4-.2l-.1-7.3c0-.2.1-.5.3-.6z"/><path fill="#025A82" d="M104.8 37.3l.1 7.9c0 .4.3.5.6.3l11.8-7c.3-.2.6-.7.6-1l-.1-7.9c0-.4-.3-.5-.6-.3l-11.8 7c-.3.1-.6.6-.6 1zm.5 0c0-.2.2-.5.3-.6L117 30h.4v.2l.1 7.3c0 .1 0 .2-.1.3 0 0 0 .1-.1.1l-.1.1h-.1l-3.4 2-8 4.7c-.1.1-.2.1-.3 0 0 0-.1-.1-.1-.2v-7.2z"/><path fill="#E5BD99" d="M118.2 32.5c-1.2.4-2.4.5-2.7 1.2-.4.8-.5 1.6 1 2.3.5.2.8.2 1.5 0 1.5-.5 1.1-3.5.2-3.5z"/><path fill="#C9740C" d="M154 59.1c.3 0 .6-.1.8-.4s.3-.6.2-.9c0-.5.4-2.4 1.4-3 .2-.1.8-.3 1.3-.4 1.7-.5 4.9-1.4 4.4-4.7-.1-.6-.6-1-1.2-.9-.6.1-1 .6-.9 1.2.2 1.2-.7 1.6-2.8 2.2-.7.2-1.3.4-1.8.7-2.2 1.3-2.5 4.6-2.5 4.7 0 .3-.1.9.4 1.3.2.1.4.2.7.2zm-5.5 8.3l-.8-.5c0 .3.1.5.3.6l.8.5c-.2 0-.3-.3-.3-.6z"/><path fill="#C9740C" d="M148.5 63l-.8-.5V67l.8.4V63z"/><path fill="#5D6768" d="M150.2 61.2l-.8-.5c-.2-.1-.4-.1-.7.1l.8.5c.2-.1.5-.2.7-.1z"/><path fill="#586162" d="M149.5 61.3l-.8-.5c-.5.3-1 1.1-1 1.7l.8.5c0-.6.4-1.4 1-1.7z"/><path fill="#F08707" d="M149.5 61.3c-.5.3-1 1.1-1 1.7v4.4c0 .6.4.9 1 .6.5-.3 1-1.1 1-1.7v-4.4c-.1-.6-.5-.9-1-.6z"/><path fill="#C9740C" d="M145.2 65.7l-.8-.5c0 .3.1.5.3.6l.8.5c-.2-.1-.3-.3-.3-.6z"/><path fill="#C9740C" d="M145.2 63.5l-.8-.5v2.3l.8.4v-2.2z"/><path fill="#5D6768" d="M146.8 61.7l-.8-.5c-.2-.1-.4-.1-.7.1l.8.5c.3-.2.6-.2.7-.1z"/><path fill="#586162" d="M146.1 61.8l-.8-.5c-.5.3-1 1.1-1 1.7l.8.5c.1-.7.5-1.4 1-1.7z"/><path fill="#F08707" d="M146.1 61.8c-.5.3-1 1.1-1 1.7v2.3c0 .6.4.9 1 .6.5-.3 1-1.1 1-1.7v-2.3c0-.7-.4-.9-1-.6z"/><path fill="#C9740C" d="M154 64.3l-.8-.5c0 .3.1.5.3.6l.8.5c-.2-.1-.3-.3-.3-.6z"/><path fill="#C9740C" d="M154 59.9l-.8-.5v4.4l.8.5v-4.4z"/><path fill="#5D6768" d="M155.7 58.2l-.8-.5c-.2-.1-.4-.1-.7.1l.8.5c.2-.2.5-.2.7-.1z"/><path fill="#5D6768" d="M155 58.2l-.8-.5c-.5.3-1 1.1-1 1.7l.8.5c0-.6.4-1.3 1-1.7z"/><path fill="#F08707" d="M155 58.2c-.5.3-1 1.1-1 1.7v4.3c0 .6.4.9 1 .6.5-.3 1-1.1 1-1.7v-4.3c-.1-.6-.5-.9-1-.6z"/><path fill="#5D6768" d="M150.9 62.7l-.8-.5c0 .3.1.5.3.6l.8.5c-.2-.1-.3-.3-.3-.6z"/><path fill="#586162" d="M150.9 60.5l-.8-.5v2.3l.8.4v-2.2z"/><path fill="#5D6768" d="M152.6 58.7l-.8-.5c-.2-.1-.4-.1-.7.1l.8.5c.2-.2.5-.2.7-.1z"/><path fill="#5D6768" d="M151.9 58.8l-.8-.5c-.5.3-1 1.1-1 1.7l.8.5c0-.7.4-1.4 1-1.7z"/><path fill="#93A2A3" d="M151.9 58.8c-.5.3-1 1.1-1 1.7v2.3c0 .6.4.9 1 .6.5-.3 1-1.1 1-1.7v-2.3c-.1-.7-.5-.9-1-.6z"/><ellipse transform="rotate(-17.787 149.703 59.396)" fill="#F08707" cx="149.7" cy="59.4" rx="6.7" ry="4.8"/><circle fill="#F09A07" cx="143.8" cy="58.3" r="4.2"/><path fill="#333" d="M138 58.4c.7.4 1.5.8 2.1 1.4-.6-.7-1.2-1.1-2.1-1.4zm2.1 1.7c-.6-.4-1.3-.7-2-.6v.1c.8-.1 1.3.3 2 .5zm.4.3c-.6-.3-1.5-.1-2.1 0h1c.4.1.8.1 1.1 0 .1.1.1 0 0 0zm2.7 1c.2 1 1 1.7 1.6 2.4 0 0 .1 0 0 0-.4-.8-1.3-1.4-1.6-2.4zm3 1.6c-.8-.6-1.8-1.2-2.7-1.7.8.6 1.7 1.4 2.7 1.7 0 .1.1 0 0 0zm1.6-1.1c-1.3-.6-2.6-.9-4-.9.7.2 1.4.2 2.1.4.6.1 1.2.4 1.9.5 0 .1 0 0 0 0zm-7.2-1.9l.7 1.3c.1.2.2.3.3.3.1.1.2.1.3 0l.7-.4c.2-.1.2-.4 0-.7l-2.1-1.2c-.1.1-.1.4.1.7z"/><path fill="#C9740C" d="M142.9 54.7l.3-.3c-1.3-1.9-2.4-2.1-2.5-2.2l-.3.3c.1.1 1.3.6 2.5 2.2z"/><path fill="#F08707" d="M140.4 52.6c0 .1-.5.9.5 2.6.6-.3 1.3-.5 2-.4-1.2-1.7-2.4-2.2-2.5-2.2z"/><path fill="#C9740C" d="M149 55.8c-.1 0-1.7-.7-2.9-.1l-.5.3c1.2-.6 2.8 0 2.9.1l.5-.3zm-1.9 2.9l.5-.3c1.2-.7 1.3-2.5 1.4-2.6l-.5.3c0 .1-.2 1.9-1.4 2.6z"/><path fill="#F08707" d="M148.5 56.1c-.1 0-1.7-.7-2.9-.1 0 0 .5.4.9 1.2.5.8.6 1.6.6 1.6 1.2-.7 1.4-2.6 1.4-2.7z"/><ellipse fill="#1C2929" cx="144.4" cy="59.1" rx=".4" ry=".4"/><ellipse fill="#1C2929" cx="140.8" cy="57.3" rx=".4" ry=".4"/><g><defs><path d="M66.2 73.9l-1.5.9c.1 0 .1-.1.1-.1l1.4-.8c0-.1 0-.1 0 0z"/></defs><clipPath><use href="#a" overflow="visible"/></clipPath><g clip-path="url(#b)"><path fill="#4A2D1B" d="M64.7 74.7l1.5-.9-.1.1-1.4.8z"/></g><path fill="#392215" d="M64.8 74.6l1.5-.9v.1l-1.5.8z"/><defs><path d="M66.4 73.7l-1.5.9c.1 0 .1-.1 0-.2l1.5-.9v.2z"/></defs><clipPath><use href="#c" overflow="visible"/></clipPath><g clip-path="url(#d)"><path fill="#4A2D1B" d="M64.8 74.3l1.5-.9c.1.1.1.2 0 .2l-1.5.9c.1 0 .1-.1 0-.2z"/></g><defs><path d="M63.7 67.9l1.5-.9c.3-.2.6-.2.8-.1l-1.5.9c-.3-.1-.6-.1-.8.1z"/></defs><clipPath><use href="#e" overflow="visible"/></clipPath><g clip-path="url(#f)"><path fill="#4A2D1B" d="M63.7 67.9l1.5-.9c.3-.2.6-.2.8-.1l-1.5.9c-.3-.1-.6-.1-.8.1z"/></g><defs><path d="M64.5 67.8l1.5-.9c.2.1.3.4.4.8s-1 1.5-1 2.7c0 1.1.3 1.9.9 3l-1.5.9c-.6-1.1-.9-1.9-.9-3 0-1.2 1-2.3 1-2.7-.1-.4-.2-.7-.4-.8z"/></defs><clipPath><use href="#g" overflow="visible"/></clipPath><g clip-path="url(#h)"><path fill="#4A2D1B" d="M64.5 67.8l1.5-.9c.2.1.3.4.4.8s-1 1.5-1 2.7c0 1.1.3 1.9.9 3l-1.5.9c-.6-1.1-.9-1.9-.9-3 0-1.2 1-2.3 1-2.7-.1-.4-.2-.7-.4-.8z"/></g><path fill="#663D26" d="M64.5 67.8c.2.1.3.4.4.8s-1 1.5-1 2.7c0 1.1.3 1.9.9 3 .1.1.1.2 0 .2v.1c-.2.1-.6.4-1 .1-.4-.2-.8-.8-1.2-2.3-.3-1.1-.3-2.2-.1-3 .1-.7 1.3-2 2-1.6z"/><path fill="#452D1E" d="M78.3 65.8l-.5-.3c.9-.5 1.9-.8 3.1-.4.2.1.3.1.5.2l.5.3c-.1-.1-.3-.2-.5-.2-1.2-.4-2.2-.2-3.1.4z"/><path fill="#452D1E" d="M74.9 72l-.5-.3c0-.1-.1-1.4.5-3 .3-.7 1.3-2.4 2.9-3.2l.5.3c-1.5.9-2.6 2.6-2.9 3.2-.6 1.5-.5 2.9-.5 3z"/><path fill="#5E3D29" d="M78.3 65.8c.9-.5 1.9-.8 3.1-.4 2.5.8.9 3.9-.8 4.9-.5.3-1 .4-1.4.2-.9-.3-1.7-.1-2.3.3-.7.4-1.2 1-1.2 1.2h-.8c0-.1-.1-1.4.5-3 .3-.7 1.3-2.4 2.9-3.2z"/><path fill="#593621" d="M63.2 84.8l1.6-.9.5.3-1.6.9-.5-.3z"/><path fill="#53331F" d="M63.7 85.1l1.6-.9c.1 0 .1.1.2.1l-1.6.9c-.1-.1-.1-.1-.2-.1z"/><path fill="#683F26" d="M63.9 85.2l1.6-.9c.2.2.3.4.4.6l-1.6.9c-.1-.2-.2-.4-.4-.6z"/><path fill="#53331F" d="M64.3 85.8l1.6-.9c0 .1.1.3.1.4 0 .2-.1.4-.2.4l-1.6.9c.1-.1.2-.2.2-.4 0-.1 0-.2-.1-.4z"/><path fill="#52321E" d="M63.2 78.2l1.6-.9v6.6l-1.6.9v-6.6z"/><path fill="#53331F" d="M61.7 76.6l1.6-.9c.2-.1.4-.1.6.1l-1.6.9c-.2-.2-.4-.2-.6-.1z"/><path fill="#53331F" d="M62.3 76.6l1.6-.9c.1 0 .1.1.2.1l-1.6.9s-.1 0-.2-.1z"/><path fill="#683F26" d="M62.5 76.8l1.6-.9c.3.2.5.5.6.9l-1.6.9c-.1-.4-.3-.7-.6-.9z"/><path fill="#53331F" d="M63.1 77.7l1.6-.9c.1.2.1.4.1.5l-1.6.9c0-.2 0-.4-.1-.5z"/><path fill="#6F4329" d="M62.3 76.6c.5.3.9 1 .9 1.6v6.6l.5.3c.4.2.7.7.7 1.1s-.3.6-.7.4l-1.3-.8c-.1 0-.2-.1-.2-.2-.4-.3-.7-.9-.7-1.4v-7.1c-.1-.5.3-.8.8-.5z"/><g><path fill="#593621" d="M69.6 88.4l1.6-.9.5.3-1.6.9-.5-.3z"/><path fill="#53331F" d="M70.1 88.7l1.6-.9c.1 0 .1.1.2.1l-1.6.9c-.1 0-.1 0-.2-.1z"/><path fill="#683F26" d="M70.3 88.8l1.6-.9c.2.2.3.4.4.6l-1.6.9c-.1-.2-.2-.4-.4-.6z"/><path fill="#53331F" d="M70.7 89.5l1.6-.9c0 .1.1.3.1.4 0 .2-.1.4-.2.4l-1.6.9c.1-.1.2-.2.2-.4 0-.1 0-.3-.1-.4z"/><path fill="#52321E" d="M69.7 81.8l1.5-.9v6.6l-1.6.9.1-6.6z"/><path fill="#53331F" d="M68.1 80.2l1.6-.9c.2-.1.4-.1.6.1l-1.6.9c-.2-.2-.4-.2-.6-.1zm.7.1l1.6-.9c.1 0 .1.1.2.1l-1.6.9c-.1 0-.2-.1-.2-.1z"/><path fill="#683F26" d="M69 80.4l1.6-.9c.3.2.5.5.6.9l-1.6.9-.6-.9z"/><path fill="#53331F" d="M69.6 81.3l1.6-.9c.1.2.1.4.1.5l-1.6.9c0-.1-.1-.3-.1-.5z"/><path fill="#6F4329" d="M68.8 80.3c.5.3.9 1 .9 1.6v6.6l.5.3c.4.2.7.7.7 1.1s-.3.6-.7.4l-1.3-.8c-.1 0-.2-.1-.2-.2-.4-.3-.7-.9-.7-1.4v-7.1c-.1-.6.3-.8.8-.5z"/></g><g><path fill="#593621" d="M74.9 85.3l1.6-1 .5.3-1.6.9-.5-.2z"/><path fill="#53331F" d="M75.4 85.5l1.6-.9c.1 0 .1.1.2.1l-1.6.9c-.1 0-.2 0-.2-.1z"/><path fill="#683F26" d="M75.5 85.7l1.6-.9c.2.2.3.4.4.6l-1.6.9c0-.3-.2-.5-.4-.6z"/><path fill="#53331F" d="M76 86.3l1.6-.9c0 .1.1.3.1.4 0 .2-.1.4-.2.4l-1.6.9c.1-.1.2-.2.2-.4-.1-.1-.1-.3-.1-.4z"/><path fill="#52321E" d="M74.9 78.7l1.6-1v6.6l-1.6 1v-6.6z"/><path fill="#53331F" d="M73.4 77l1.6-.9c.2-.1.4-.1.6.1l-1.6.9c-.2-.1-.5-.2-.6-.1z"/><path fill="#53331F" d="M74 77.1l1.6-.9c.1 0 .1.1.2.1l-1.6.9c-.1 0-.1-.1-.2-.1z"/><path fill="#683F26" d="M74.2 77.2l1.6-.9c.3.2.5.5.6.9l-1.6.9c-.1-.3-.3-.6-.6-.9z"/><path fill="#53331F" d="M74.8 78.1l1.6-.9c.1.2.1.4.1.5l-1.6.9c0-.1 0-.3-.1-.5z"/><path fill="#6F4329" d="M74 77.1c.5.3.9 1 .9 1.6v6.6l.5.3c.4.2.7.7.7 1.1s-.3.6-.7.4l-1.3-.8c-.1 0-.2-.1-.2-.2-.4-.3-.7-.9-.7-1.4v-7.1c-.1-.6.3-.8.8-.5z"/></g><g><path fill="#53331F" d="M73.3 74l-3.9-2.3c-.9-.5-1.7-.6-2.3-.2l-4.8 2.8c.6-.3 1.4-.3 2.3.2l3.9 2.3c.3.1.5.3.7.5l4.8-2.8c-.2-.2-.4-.3-.7-.5z"/><path fill="#683F26" d="M69.3 77.3l4.8-2.8c.9.8 1.7 1.9 2.1 3.1l-4.8 2.8c-.5-1.2-1.2-2.3-2.1-3.1z"/><path fill="#53331F" d="M76.1 77.6l-4.8 2.8c.2.6.4 1.3.4 1.9v.7c0 1-.4 1.7-.9 2l4.8-2.8c.6-.3.9-1 .9-2v-.7c0-.6-.2-1.3-.4-1.9z"/><path fill="#6F4329" d="M68.5 76.8c1.8 1 3.2 3.5 3.2 5.5v.7c0 2-1.4 2.8-3.2 1.8l-3.9-2.3c-1.8-1-3.2-3.5-3.2-5.5v-.7c0-2 1.4-2.8 3.2-1.8l3.9 2.3z"/></g><g><path fill="#5E3D29" d="M78 73.1l-2.9-1.7c-.6-.3-1.1-.4-1.5-.1l-3.2 1.8c.4-.2.9-.2 1.5.1l2.9 1.7c.2.1.3.2.5.3l3.2-1.8c-.1-.1-.3-.2-.5-.3z"/><path fill="#754D34" d="M75.3 75.3l3.2-1.8c.6.5 1.1 1.2 1.3 2l-3.2 1.8c-.2-.8-.7-1.5-1.3-2z"/><path fill="#5E3D29" d="M79.9 75.4l-3.2 1.8c.1.4.2.8.2 1.2V80c0 .6-.2 1.1-.6 1.3l3.2-1.8c.4-.2.6-.7.6-1.3v-1.6c0-.4-.1-.8-.2-1.2z"/><path fill="#7D5137" d="M74.9 74.9c1.1.7 2 2.2 2 3.5V80c0 1.3-.9 1.8-2.1 1.2l-2.9-1.7c-1.1-.7-2-2.2-2-3.5v-1.6c0-1.3.9-1.8 2-1.2l3 1.7z"/></g><g><path fill="#452D1E" d="M69.7 72.8l-.5-.3c.2-.1.5-.2.6-.3.3-.1.6 0 .8.1l.5.3c-.2-.1-.5-.2-.8-.1l-.6.3zm-3.2 8.5L66 81c-.4-.2-.6-.9-.4-2.3.5-3.7 2.5-5.6 3.6-6.2l.5.3c-1.1.6-3.1 2.5-3.6 6.2-.2 1.4 0 2.1.4 2.3z"/><path fill="#5E3D29" d="M69.7 72.8c.3-.1.5-.2.6-.3 1-.2 1.4.8 1.4.9l-.3.8h-.1c-.4.2-1.3 1.5-1.6 3.8-.2 1.3-1.1 2.6-2 3.1-1 .6-1.9.2-1.5-2.2.4-3.6 2.4-5.4 3.5-6.1z"/></g><path d="M73.1 76.2c0 .3-.2.4-.4.3s-.4-.5-.4-.8.2-.4.4-.3.4.5.4.8zm6.2-1.6c-.1.5-.9 1.2-1.7 1.5-.9.3-1.5.2-1.4-.4.1-.5.8-1.2 1.7-1.5.8-.3 1.5-.1 1.4.4z"/></g><g><path fill="#F9CFB3" d="M18.6 136.9c0 1.4 6.7-1 6.7-1 .4-.4-1.7-1-1.7-1l.1-2.8-5-.4v1.6c0 .3-2.2.1-2.2.4-.1 1.2 2.1 3.2 2.1 3.2z"/><path fill="#2B0D04" d="M26.3 121c-5.8-4.5-8.5-1.1-8.8-.9-1 .8-2.5 2.3-2.9 3.7-1.1 2.3.4 4.5 2.4 6.6.6.6 1 1 1.5 1.4 1.1.9 3.3 1.3 3.5.8 0-.1-.1-.4-.3-.8l.9-.6c2.3-1.6 3.3-4 2.7-7.4 1.4.3 1.6.1 1.6.1s.6-1.9-.6-2.9z"/><path fill="#F9CFB3" d="M21.4 131.1c.1 0 0 1.5.1 1.5 0 .1-.1.8-.1.8l3-.9c.1 0 .3-.1.4-.1s.3-.1.5-.2c.3-.2.6-.7.7-1.1 0-.1.1-.1.1-.2 0-.3-.2-.4-.2-.7 0-.2.2-.3.2-.4.1-.2 0-.4 0-.5.1-.1.2-.3.3-.5 0-.2 0-.3.1-.5.1-.3.4-.5.6-.7.1-.1.1-.2.1-.3-.1-.3-.3-.5-.5-.7s-.4-.3-.4-.7c0-.2.1-.5.2-.7.1-.5-.1-.8-.2-1.2v-.1c-.3 0-.7-.1-1.3-.2-.9-.2-.5 1.7-.8 2-.1.1-.4.5-.8 1.1 0 .2 0 .3-.1.5-.1.5-.2 1-.2 1.4 0 .3.1.5-.1.9-.1.1-.6.2-.6.1 0-.4 0-.8-.1-1.1s-.3-.5-.6-.5-.7.2-.9.6c-.3.5-.3 1-.2 1.4.2.5.4 1 .8 1z"/><defs><path d="M43.8 168.3v.7c0 1 .7 2 2 2.8 2.7 1.6 7.1 1.6 9.8 0 1.4-.8 2-1.8 2-2.9v-.7c0 1-.7 2.1-2 2.9-2.7 1.6-7.1 1.6-9.8 0-1.3-.7-2-1.7-2-2.8z"/></defs><clipPath><use href="#i" overflow="visible"/></clipPath><g clip-path="url(#j)"><path fill="#959595" d="M43.8 168.3v.8-.8z"/><path fill="#AAA" d="M43.8 168.5v.7c0 .6.3 1.1.7 1.7v-.7c-.4-.6-.6-1.2-.7-1.7z"/><path fill="#BFBFBF" d="M44.6 170.1v.7c.3.4.7.7 1.3 1 1 .6 2.2.9 3.4 1.1v-.7c-1.3-.2-2.5-.5-3.4-1.1-.6-.3-1-.6-1.3-1z"/><path fill="#AAA" d="M49.3 172.2v.7c1 .1 2 .1 3 0v-.7c-1 .2-2 .2-3 0z"/><path fill="#959595" d="M52.3 172.2v.7c1.2-.2 2.4-.5 3.4-1.1 1.4-.8 2-1.8 2-2.9v-.7c0 1-.7 2.1-2 2.9-1 .6-2.2 1-3.4 1.1z"/></g><path fill="#DCDCDC" d="M45.9 165.5c-2.7 1.6-2.7 4.1 0 5.7 2.7 1.6 7.1 1.6 9.8 0s2.7-4.1 0-5.7c-2.7-1.6-7.1-1.6-9.8 0z"/><path fill="#1D2325" d="M53.1 146.5c0 .4-.2.7-.7 1-.1.1-.3.2-.5.2h-.1c-.2 0-.3.1-.5.1h-1.1c-.2 0-.3-.1-.5-.1h-.1c-.2-.1-.3-.1-.5-.2-.1-.1-.2-.1-.3-.2l-.1-.1-.1-.1c0-.1-.1-.1-.1-.2 0 0 0-.1-.1-.1v-.3l.1 21.5v.4c0 .1.1.1.1.2l.1.1.1.1c.1.1.2.1.3.2.2.1.3.2.5.2h.1c.2 0 .3.1.5.1h1.2c.2 0 .3-.1.5-.1h.1c.2-.1.3-.1.5-.2.5-.3.7-.6.7-1l-.1-21.5z"/><path fill="#BEBEBE" d="M49 145.5c-.9.5-.9 1.4 0 1.9s2.4.5 3.4 0c.9-.5.9-1.4 0-1.9s-2.4-.5-3.4 0z"/><path fill="#EDC7AF" d="M29 141.5v2.3c0 3.2 2.1 6.4 6.3 8.8 8.5 4.9 22.2 4.9 30.7 0 4.3-2.5 6.4-5.7 6.4-9v-2.3c0 3.2-2.1 6.5-6.4 9-8.5 4.9-22.3 4.9-30.7 0-4.2-2.4-6.3-5.6-6.3-8.8z"/><defs><path d="M29 141.5v2.3c0 3.2 2.1 6.4 6.3 8.8 8.5 4.9 22.2 4.9 30.7 0 4.3-2.5 6.4-5.7 6.4-9v-2.3c0 3.2-2.1 6.5-6.4 9-8.5 4.9-22.3 4.9-30.7 0-4.2-2.4-6.3-5.6-6.3-8.8z"/></defs><clipPath><use href="#k" overflow="visible"/></clipPath><g clip-path="url(#l)"><path fill="#959595" d="M29 141.5v2.7-2.7z"/><path fill="#EDC7AF" d="M29 141.9v2.3c.1 1.8.9 3.6 2.3 5.2v-2.3c-1.4-1.6-2.2-3.4-2.3-5.2z"/><path fill="#EDD1C0" d="M31.3 147.1v2.3c1 1.2 2.3 2.2 4 3.2 3.1 1.8 6.8 2.9 10.8 3.4v-2.3c-4-.5-7.7-1.6-10.8-3.4-1.6-.9-3-2-4-3.2z"/><path fill="#EDC7AF" d="M46.1 153.7v2.3c3.1.4 6.3.4 9.4 0v-2.3c-3.1.4-6.3.4-9.4 0zm9.4 0v2.3c3.9-.5 7.5-1.6 10.5-3.4 4.3-2.5 6.4-5.7 6.4-9v-2.3c0 3.2-2.1 6.5-6.4 9-3 1.8-6.6 2.9-10.5 3.4z"/></g><path fill="#FFF" d="M35.4 132.5c-8.5 4.9-8.6 12.9-.1 17.8s22.2 4.9 30.7 0 8.6-12.9.1-17.8c-8.4-4.9-22.2-4.9-30.7 0z"/><path fill="#49BDF2" d="M39.6 129c-.2-.1-.4 0-.4.2v7.4c0 .2.2.5.4.6l11.7 6.8c.2.1.4 0 .4-.2v-7.4c0-.2-.2-.5-.4-.6L39.6 129z"/><path fill="#082C44" d="M30.9 142.1c0 .1 0 .1 0 0 0 .1 0 .1 0 0v.1l4.6 2.7v-.3l1-.6-1.5-.9v-.1l-.1.1-2-1.2v-.7l.9-.5.2.1v-.3l.3-.2.6-.4 1.1-.6.3.2v-.3l.9-.5.2.1v-.2l.9-.5 1 .6v.2l.2-.1 1 .6v.2l.2-.1 1 .6v.2l.2-.1 1 .6v.2l.2-.1 1 .6v.2l.2-.1 1 .6v.2l.2-.1 1 .6v.2l.2-.1 1 .6v.2l.2-.1 1 .6v.7l-.5.3.2.1v-.2l.9-.5 1 .6v.7l-.9.5-.2-.1v.2l-.9.5-.2-.1v.2l-.9.5-.2-.1v.2l-.9.5-.2-.1v.2l-.9.5-2-1.2v-.1l-.1.1-1.5-.9v-.2l-.1.1-.6-.3v.3l-1 .6 3.7 2.2s.1 0 .1.1h.7s.1 0 .1-.1l7-4c.2-.1.2-.2.2-.3v.7c0 .1-.1.3-.2.3l-7 4.1s-.1 0-.1.1h-.6s-.1 0-.1-.1l-12.1-7.1c-.7-.6-.7-.9-.7-1.1z"/><path fill="#134169" d="M31.1 141.8l7-4c.3-.2.9-.2 1.2 0l12.2 7.1c.3.2.3.5 0 .7l-7 4c-.3.2-.9.2-1.2 0l-12.1-7.1c-.4-.2-.4-.6-.1-.7z"/><path fill="#F8F9FC" d="M39.2 139.9l-.9.6.9.5 1-.5-1-.6zm-1.5.5l-.9.5.9.6 1-.6-1-.5z"/><path fill="#F8F9FC" d="M36.4 139.7l-1.1.6-.6.3-.3.2 1.6 1 .9-.6-.5-.3 1.1-.6-1.1-.6zm2.4 1.3l-.9.5.9.6.9-.5-.9-.6zm-4.7-.1l-.9.6 2 1.1.9-.5-2-1.2zm2.1 1.3l-.9.5 1.5.9.9-.6-1.5-.8zm3 .4l-.9.5.9.6.9-.6-.9-.5zm-.5-4.3l-.9.6.9.5 1-.5-1-.6zm1.2.7l-1 .5 1 .6.9-.5-.9-.6zm-2.3 0l-1 .5 1.5.9 1-.6-1.5-.8zm3.4.7l-.9.5.9.6 1-.6-1-.5zm1.1.6l-.9.6 1 .5.9-.5-1-.6zm-1.8.3l-.9.5.9.6.9-.6-.9-.5zm3 .4l-.9.5.9.6 1-.5-1-.6zm-1.9.2l-.9.5.9.6.9-.5-.9-.6zm-4.4.1l-.9.5 1 .6.9-.5-1-.6zm7.4.4l-.9.5 1 .6.9-.6-1-.5zm-4.5-.1l-1 .6 1 .5.9-.5-.9-.6zm2.6.2l-1 .6 1 .5.9-.5-.9-.6zm-4.4.1l-.9.6.9.5 1-.5-1-.6zm2.9.4l-1 .5 1 .6.9-.6-.9-.5zm4.6 0l-.9.6.9.5.9-.5-.9-.6zm-2 .2l-1 .5 1 .6.9-.6-.9-.5zm-1.6.4l-.9.5 1 .6.9-.5-1-.6zm4.7.1l-.9.5 1 .6.9-.5-1-.6zm-2 .1l-1 .6 1 .5.9-.5-.9-.6zm-4.4.1l-.9.6.9.5 1-.5-1-.6zm2.8.3l-.9.6.9.5 1-.5-1-.6zm4.8.2l-1 .5 1 .6.9-.6-.9-.5zm-2.1.1l-1 .5 1 .6.9-.6-.9-.5zm-4.4 0l-1 .6 1 .5.9-.5-.9-.6zm2.8.4l-.9.5.9.6 1-.6-1-.5zm-1.7.3l-1 .5 1 .6.9-.6-.9-.5zm7 .1l-1 .5 1 .6.9-.5-.9-.6zm-4.2.2l-.9.5.9.6.9-.5-.9-.6zm-7.5-1.7l-.9.5 4.2 2.5.9-.5-4.2-2.5zm5.7 2l-.9.5 1 .6.9-.5-1-.6zm3.4-.7l-.9.6 2.3 1.4 1-.6-2.4-1.4zm-9.8-.4l-1.4.8 3.5 2 1.4-.8-3.5-2zm9.3 1.4l-1 .6 1.8 1 .9-.5-1.7-1.1zm-4.2.3l-.9.5 1.5.9.9-.6-1.5-.8zm2.4 0l-.9.6 2.4 1.4.9-.6-2.4-1.4zm-.8.9l-.9.5 2 1.2.9-.5-2-1.2z"/><path fill="#082C44" d="M39 128.2c.1 0 .1-.1.2-.1s.1-.1.2-.1c.1-.1.3-.1.4 0l12.1 7.1c.3.2.6.7.6 1v8.1c0 .2-.1.3-.2.4-.1.1-.3.2-.4.2.1-.1.2-.2.2-.4v-8.1c0-.4-.3-.8-.6-1l-12.1-7.1H39z"/><path fill="#114269" d="M51.5 135.3c.3.2.6.7.6 1v8.1c0 .4-.3.5-.6.3l-12.1-7.1c-.3-.2-.6-.7-.6-1v-8.1c0-.4.3-.5.6-.3l12.1 7.1zm-12.3 1.3c0 .2.2.5.4.6l11.7 6.8c.2.1.4 0 .4-.2v-7.4c0-.2-.2-.5-.4-.6L39.6 129c-.2-.1-.4 0-.4.2v7.4z"/><path fill="#066DA5" d="M49.8 138.6c-.2-.3-.7-.6-1.1-.7 0-.4-.2-.8-.6-1.3l-.2-.3-.1.1c-.2.2-.3.5-.2.8 0 .1.1.4.2.6-.1 0-.4-.1-.7-.3l-6.3-3.6v.1c-.1.3-.1 1.4.7 2.7.5 1 1.3 1.7 2.4 2.4 2.3 1.3 4 1.2 4.8-.2.3.2 1 .6 1.3.1l.1-.1-.3-.3zm-5-4.5l1 .6v-.9l-1-.6v.9zm0 1l1 .6v-.9l-1-.6v.9zm-1.1-.6l1 .6v-.9l-1-.6v.9zm-1.1-.7l1 .6v-.9l-1-.6v.9zm-1.2.4l1 .6v-.9l-1-.6v.9zm1.2.7l1 .6v-.9l-1-.6v.9zm1.1.6l1 .6v-.9l-1-.6v.9zm1.1.7l1 .6v-.9l-1-.6v.9zm1.2.7l1 .6v-.9l-1-.6v.9z"/><path fill="#1E2022" d="M25.9 171.4s-.8 2.8.1 3.8c.3.3 1.3.4 2.6.1.8-.2 1.7-.7 2.5-.8 2.4-.3 3.8-1.6 4.8-2.9 2.1-2.8-1.7-2-4.2-1.1-2.7.9-5.8.9-5.8.9z"/><path fill="#040F2D" d="M25.7 172.4c.6.7 1.5 1.1 2.5 1.2 1.1-.2 2.3-.8 3.1-1.3.3-.2.6-.5.9-.7l-5.6-18.2c.2-4.5-5.6-4-7.5-4.2-2.1-.2-1.7.5-1.7 2.5l8.3 20.7z"/><path fill="#C7A793" d="M24.1 173l-1.9 1-1.9-1 1.9-1.1 1.9 1.1z"/><path fill="#FFF" d="M24.1 173v15.2l-1.9 1.1V174l1.9-1z"/><path fill="#EDC7AF" d="M22.2 174v15.3l-1.9-1.1V173l1.9 1z"/><path fill="#C7A793" d="M12.6 166.4l-1.9 1.1-1.9-1.1 1.9-1.1 1.9 1.1z"/><path fill="#FFF" d="M12.6 166.4v15.3l-1.9 1v-15.2l1.9-1.1z"/><path fill="#EDC7AF" d="M10.7 167.5v15.2l-1.9-1v-15.3l1.9 1.1z"/><path fill="#C7A793" d="M35.5 166.4l-1.9 1.1-1.9-1.1 1.9-1.1 1.9 1.1z"/><path fill="#FFF" d="M35.5 166.4v15.3l-1.9 1v-15.2l1.9-1.1z"/><path fill="#EDC7AF" d="M33.6 167.5v15.2l-1.9-1v-15.3l1.9 1.1z"/><path fill="#FFF" d="M35.5 165.2v1.8l-13.3 7.7V173l13.3-7.8z"/><path fill="#FA7564" d="M35.5 165.2L22.2 173l-13.4-7.8 13.3-7.7 13.4 7.7z"/><g><path fill="#ED6B5A" d="M35.5 163.7v1.7l-13.3 7.7v-1.7l13.3-7.7z"/><path fill="#86352A" d="M22.2 171.4v1.7l-13.4-7.7v-1.7l13.4 7.7z"/><path fill="#FA7564" d="M35.5 163.7l-13.3 7.7-13.4-7.7 13.3-7.8 13.4 7.8z"/></g><g><path fill="#1E2022" d="M34.8 178.8s-.8 2.7.1 3.7c.2.3 1.3.3 2.5.1.8-.2 1.7-.7 2.4-.8 2.3-.3 3.7-1.6 4.7-2.8 2-2.7-1.7-1.9-4.1-1.1-2.5.9-5.6.9-5.6.9z"/><path fill="#022540" d="M34.7 179.8c.6.7 1.4 1 2.4 1.1 1.1-.2 2.2-.7 3-1.3.3-.2.6-.5.9-.7l-.1-19.6c.2-4.3-2.8-4.3-4.6-4.5-2-.2-1.7.5-1.7 2.5l.1 22.5z"/><path fill="#040F2D" d="M33.4 152.7c-1.7-1-4.5-1-6.3 0L13.7 159c2.2.9 5.4 3.1 7.4 4.5l12.2-7.1c1.8-1.1 1.8-2.7.1-3.7z"/><path fill="#022540" d="M39.3 155.5c-1.7-1-4.5-1-6.3 0l-13.4 6.3c2.2.9 5.4 3.1 7.4 4.5l12.2-7.2c1.8-1 1.8-2.6.1-3.6z"/></g><g><path fill="#E9C2B0" d="M33.4 141.4c-.3-.2-.6-.1-.8.1-.2.3-.1.6.1.8l2.5 1.7c.3.2.6.1.8-.1.2-.3.1-.6-.1-.8l-2.5-1.7z"/><path fill="#E9C2B0" d="M32.5 140l2-.8 2 .2c.2 0 1.2.1 1.4.6.1.3.8 2.3.1 2.4-.5.1-4.4 0-4.4 0-.3 0-1 .4-1.2.3l-1.3-.5 1.4-2.2z"/><path fill="#135788" d="M24.3 137.4c-.4 1.7.2 4.5.5 6.3l9 .3.5-5.3-10-1.3z"/></g><g><path fill="#242629" d="M18.4 153.4c.2.1.3.3.4.7v4.2l-.7-.4v-4.2c-.1-.3-.2-.5-.4-.7l.7.4z"/><path fill="#022540" d="M32.8 155.7c1.1.7 2.4 1.4 3.5 2.1.7.7 1.4 1.3 2.1 1.9L27 166.3c-2-1.4-5.2-3.6-7.4-4.5l13.2-6.1z"/><path fill="#2980B9" d="M15.1 166c4 2.2 9.3 2.3 13.1-.5.9-.6 1.6-1.4 2.3-2.3l.4-16.5c-.6-8.5-4.7-10.9-6.2-11.6 0 0-1.6 1.8-5.1 1-3.6-.8-2.3-2.9-2.3-2.9-4.7.1-4.7 6.1-4.8 8.3-.3 4.1-.5 12.8-.4 19.6.3 1.8 1.3 4 3 4.9z"/></g><g><path fill="#FFF" d="M9.6 166.7l.7-.5.1-12.7-.8.4v12.8z"/><path fill="#EDC7AF" d="M9.6 149.4l.8-.4v-4.2l-.8.4v4.2z"/><path fill="#FFF" d="M21.4 156.2l.8-.4-11.8-6.8-.8.4 11.8 6.8zm0 14.6l.8-.5-11.8-6.8-.8.4 11.8 6.9zM9.9 141.5l-.8.4c.8-.5 3.4.4 6.4 2.1l.8-.4c-3-1.8-5.6-2.6-6.4-2.1zm12.3 31.7l.7-.4.1-23.2-.8.4v23.2z"/><path fill="#FFF" d="M22.2 150l.8-.4c0-1.2-3-3.9-6.7-6l-.8.4c3.7 2.1 6.7 4.8 6.7 6z"/><path fill="#EDC7AF" d="M22.2 150v23.2l-.8-.4v-12L9.6 154v12.7l-.8-.4v-23.9c0-1.2 3-.5 6.7 1.7 3.7 2 6.7 4.7 6.7 5.9zm-12.6-.6l11.8 6.8V152c-.9-1.2-3.1-3-5.9-4.7-2.8-1.6-5-2.3-5.9-2.2v4.3z"/><path fill="#EDC7AF" d="M22.2 171.2v3.5l-13.4-7.8v-3.4l13.4 7.7z"/></g><path fill="#E5BD99" d="M38.8 150.2c.1.1.3.2.5.3 1.4-1.4 3.5-2.8 3.5-4 0-1.1-.3-2.1-2.8-1.7-.9.1-1.9 1.1-2.8 2.1-.1 1.2.6 2.6 1.6 3.3z"/><g><path fill="#135788" d="M35.6 145.8c1.2-1.2 3.2-1.2 4.4 0s1.2 3.2-.1 4.4l-4.5 3.1c-1.2 1.2-3.2 1.2-4.4 0-1.2-1.2-1.2-3.2.1-4.4l4.5-3.1z"/></g><g><path fill="#135788" d="M33.9 150.7c.7 1.6 0 3.4-1.6 4.1-1.6.7-3.4 0-4.1-1.6l-5-11.1c-.7-1.6 0-3.4 1.5-4.1 1.6-.7 3.4 0 4.1 1.6l5.1 11.1z"/></g><g><path fill="#E49B1D" d="M52 151c0-.3.1-.6.5-.8.7-.4 1.8-.4 2.5 0l.1-1.3c-.8-.4-2-.4-2.8 0-.4.2-.6.6-.6.9.2.4.2.8.3 1.2zm3.7-1.2c.1-.3-.1-.7-.6-.9l-.1 1.3c.4.2.6.5.5.8.1-.4.2-.8.2-1.2z"/><path fill="#E49B1D" d="M55 150.2c-.7-.4-1.8-.4-2.5 0s-.7 1.1 0 1.5 1.8.4 2.5 0c.8-.5.7-1.2 0-1.5z"/><path fill="#E49B1D" d="M55.2 148.8c-.8-.4-2-.4-2.8 0-.8.5-.7 1.2 0 1.6.8.4 2 .4 2.8 0s.7-1.1 0-1.6z"/><path fill="#E49B1D" d="M55.6 151c.1-.4.1-.8.2-1.2 0 .3-.2.5-.6.7-.8.5-2 .5-2.8 0-.4-.2-.5-.5-.6-.7.1.4.1.8.2 1.2 0 .2.2.5.5.7.7.4 1.8.4 2.5 0 .4-.3.5-.5.6-.7z"/><path fill="#FFF" d="M55.2 148.8c-.8-.4-2-.4-2.8 0-.8.5-.7 1.2 0 1.6.8.4 2 .4 2.8 0s.7-1.1 0-1.6z"/><path fill="#FFF" d="M52 145.2c1-.6 2.6-.6 3.5 0 .6.3.8.7.8 1.2-.2 1.2-.3 2.3-.5 3.5.1-.3-.1-.7-.6-.9-.8-.4-2-.4-2.8 0-.4.2-.6.6-.6.9-.2-1.2-.4-2.3-.5-3.5-.1-.5.1-.9.7-1.2z"/><path fill="#4A2400" d="M55.4 145.2c-.9-.5-2.3-.5-3.2 0s-.9 1.4 0 1.9 2.3.5 3.2 0c.9-.6.9-1.4 0-1.9z"/><path fill="#D1DCE6" d="M55.4 146c-.9-.5-2.3-.5-3.2 0-.2.1-.4.3-.5.5-.3-.5-.1-1 .5-1.3.9-.5 2.3-.5 3.2 0 .7.4.8.9.6 1.4l-.6-.6z"/><path fill="#D1DCE6" d="M55.7 149.8c.2-1.2.3-2.3.5-3.5 0 .3-.3.6-.7.9-1 .6-2.6.6-3.5 0-.5-.2-.7-.6-.8-.9.2 1.2.4 2.3.5 3.5 0 .3.2.5.6.7.8.4 2 .4 2.8 0 .4-.2.6-.5.6-.7z"/><g fill="#4A2400"><path d="M53.8 149.5c0-.2.1-.4.1-.6 0-.2-.2-.5-.4-.5.4-.1.8.2 1 .6.2.5 0 1-.3 1.1-.3-.2-.4-.3-.4-.6z"/><path d="M53.4 148.4c.2 0 .3.1.4.3.1.2 0 .4-.1.6 0 .2 0 .3.1.5l.3.3c-.4.1-.8-.2-1-.7-.2-.4 0-.9.3-1z"/></g></g></g><g><path d="M142.2 249.3c0 1.1.1.2 0 1.6h-1.3c0-.7 0 .2-.1-1.2l1.4-.4z"/><path fill="#E0B29D" d="M139.2 250.1h-3c.2-.2.5-.8.6-.8.2-.1 1.1-1.3 1.5-2.2.4-1 .9-1.8 1.1-3 .1-.6.9-6.7 1.4-10.6h4.6c-.1.3-.2.5-.3.8-.1.4-.4.8-.5 1.2-.1.7 0 1.7.1 2.5 0 .8.1 1.6 0 2.3-.2 1.7-.9 3.2-1.8 4.2-.4.4-.6 1-.8 1.6-.1.3-.2 1-.2 1.4 0 .2.1.6.2.9 0 .3-.1.3 0 .5.1.4.1.3-.2.3h-.7c-.3 0-.5.1-.8.3-.4.1-.8.2-1.2.6 0-.1 0-.1 0 0z"/><path fill="#212020" d="M139.6 250.3c-.1.1-.5 1-1.7.8-.7-.1-2.1-.7-2.2-.7-.1-.1-.4-.3-.5-.5-.3-.7.8-.7 1-.7s.5 0 .7-.1h.1c.1.1.1.2.2.3.1.1.1.1.2.1.2.1.4.2.6.2.4 0 .7-.1 1-.3.8-.5 1.6-.8 2.5-1.1.3-.1.6-.4.7-.3.2.5.3.9.3 1 0 .6 0 1.2-.4 1.4-.2.1-.7.3-1.3 0-.5-.1-1-.2-1.2-.1z"/><ellipse transform="matrix(.06407 -.9979 .9979 .06407 -107.167 388.107)" fill="#A1B400" cx="153.3" cy="251.2" rx="15.7" ry="17.3"/><path fill="#82940D" d="M141.4 244.9c3.2 2.7 8.2 4.8 13.1 3.9 4.3-.7 7.4-5.2 5.6-7.7-.8-1.2-6.6.3-7.8.5-2.2.3-4.5.7-6.6-.1h-.3c-1.2.1-2.3-.1-3.4-.1-.8 0-1.7 0-2.4.3-1.2.5 1.4 3 1.8 3.2z"/><path fill="#82940D" d="M164.6 239.3c4.4 8.2 1.4 19.4-8.3 22.9-6.6 2-12.6-2-18.5-5.3-.2 0-.3-.1-.5-.1 2.4 5.5 8.1 9.5 15 10 9.5.6 17.7-5.9 18.3-14.6.3-5.1-2.1-9.8-6-12.9z"/><path d="M133.6 252.6c0 1.1.1.2 0 1.6h-1.3c0-.6 0 .2-.1-1.2l1.4-.4z"/><path fill="#E0B29D" d="M130.6 253.4h-3c.2-.2.5-.8.6-.8.2-.1 1.1-1.3 1.5-2.2.4-1 .9-1.8 1.1-3 .1-.6.9-6.7 1.4-10.6h4.6c-.1.3-.2.5-.3.8-.1.4-.4.8-.5 1.2-.1.7 0 1.7.1 2.5 0 .8.1 1.6 0 2.3-.2 1.7-.9 3.2-1.8 4.2-.4.4-.6 1-.8 1.6-.1.3-.2 1-.2 1.4 0 .2.1.6.2.9 0 .3-.1.3 0 .5.1.4.1.3-.2.3h-.7c-.3 0-.5.1-.8.3-.3.2-.8.2-1.2.6.1-.1 0 0 0 0z"/><path fill="#212020" d="M131 253.6c-.1.1-.5 1-1.7.8-.7-.1-2.1-.7-2.2-.7-.1-.1-.4-.3-.5-.5-.3-.7.8-.7 1-.7s.5 0 .7-.1h.1c.1.1.1.2.2.3.1.1.1.1.2.1.2.1.4.2.6.2.4 0 .7-.1 1-.3.8-.5 1.6-.8 2.5-1.1.3-.1.6-.4.7-.3.2.5.3.9.3 1 0 .6 0 1.2-.4 1.4-.2.1-.7.3-1.3 0-.4-.1-1-.2-1.2-.1z"/><path fill="#1C2A33" d="M133.4 235.5c1.3-.7 4.9-2.2 5.9-2.8 1.8-1 4.6-1 6.3 0l13.5 6.3c-2.2.9-5.5 3.1-7.5 4.5l-.8-.5c-1.8 1-3.7 2.3-5.1 3.3l-12.4-7.2c-1.7-.9-1.7-2.6.1-3.6z"/><path fill="#242629" d="M133.3 227.8l-2.1-1.2.1 32 2.1 1.2-.1-32z"/><path fill="#69B8B6" d="M135.1 226.8l-2.1-1.2-1.8 1 2.1 1.2 1.8-1z"/><path fill="#455257" d="M133.3 227.8l.1 32 1.7-1v-32l-1.8 1z"/><path fill="#242629" d="M111.8 223.3l-2-1.2v24.1l2.1 1.2-.1-24.1z"/><path fill="#69B8B6" d="M113.6 222.2l-2.1-1.2-1.7 1.1 2 1.2 1.8-1.1z"/><path fill="#455257" d="M111.8 223.3l.1 24.1 1.8-1-.1-24.2-1.8 1.1z"/><path fill="#07334E" d="M158.3 222l-2.1-1.2v23.4l2.1 1.2V222z"/><path fill="#69B8B6" d="M160 220.9l-2-1.2-1.8 1.1 2.1 1.2 1.7-1.1z"/><path fill="#EDCAB4" d="M105.3 222.3l.1 1.9 27.5 16v-1.9l-27.6-16z"/><path fill="#EDDACE" d="M132.9 238.3v1.9l30.8-17.7v-2l-30.8 17.8z"/><path fill="#FFF" d="M105.3 222.3l27.6 16 30.8-17.8-27.6-16-30.8 17.8z"/><path fill="#F8F9FC" d="M111.9 223.9c.3.2.8.2 1.1 0v1c-.3.2-.8.2-1.1 0v-.1l-5.1-2.9v-1l5.1 3z"/><path fill="#1F2527" d="M111.7 223.8l.2.1c.3.2.8.2 1.1 0l8.2-4.8c.3-.2.3-.5 0-.6l-.2-.1-9.3 5.4z"/><path fill="#1F2527" d="M106.4 220c-.3.2-.3.5 0 .6l4.1 2.4.8.4.5.3 9.3-5.4.2.1c.3.2.3.5 0 .6l-8.2 4.8c-.3.2-.8.2-1.1 0 .3.2.8.2 1.1 0l8.2-4.8c.3-.2.3-.5 0-.6l-5.5-3.2c-.3-.2-.8-.2-1.1 0l-8.3 4.8z"/><path fill="#F8F9FC" d="M106.1 220.3v1c0 .1.1.2.2.3v-1c-.1-.1-.2-.2-.2-.3z"/><path fill="#FF5542" d="M106.3 220.6l.4.3 9.4-5.4-.4-.3-9.4 5.4z"/><path fill="#181D1F" d="M113 223.9l8.2-4.8c.2-.1.2-.2.2-.3v1c0 .1-.1.2-.2.3l-8.2 4.8c-.2.1-.4.1-.6.1v-1c.2 0 .4 0 .6-.1z"/><path fill="#181D1F" d="M106.3 220.6l4.1 2.4.8.4.5.3.2.1c.3.2.8.2 1.1 0l8.2-4.8c.2-.1.2-.2.2-.3v.2c0 .1-.1.2-.2.3L113 224c-.3.2-.8.2-1.1 0l-.2-.1-.5-.3-.8-.4-4.1-2.4c-.1-.1-.2-.2-.2-.3v-.2c0 .1.1.2.2.3z"/><path fill="#262D30" d="M106.3 220.6l4.1 2.4.8.4.5.3.2.1c.1.1.3.1.5.1v.2c-.2 0-.4 0-.5-.1l-.2-.1-.5-.3-.8-.4-4.1-2.4c-.1-.1-.2-.2-.2-.3v-.2c0 .1.1.2.2.3zm-.2.5v.2c0 .1.1.2.2.3l.4.2 3.7 2.2.8.4.5.3.2.1c.1.1.3.1.5.1v-.2c-.2 0-.4 0-.5-.1l-.2-.1-.5-.3-.8-.4-3.7-2.2-.4-.2c-.1-.1-.2-.2-.2-.3z"/><path fill="#FF6A59" d="M109.6 223.5v.2l.6.1v-.3h-.6zm.6 0v.3l.2.3v-.2l-.2-.4z"/><path fill="#962900" d="M110.4 223.9v.2l.5-.3v-.2l-.5.3z"/><path fill="#FF5542" d="M109.6 223.5h.6l.2.4.5-.3-.8-.4-.5.3zm-3.3-2.9v1l.4.3v-1l-.4-.3zm8.2-3s-.1 0 0 0c-.2 0-.2-.1-.2-.2 0 0 0-.1.1-.1s.3 0 .4-.1c-.1.1-.2.3-.3.4z"/><path fill="#FF5542" d="M114.8 217.2l-.3.3v-.1l.3-.2z"/><path fill="#FF5542" d="M114.3 217.3c.1 0 .3 0 .4-.1l-.2.3c0-.1-.1-.2-.2-.2.1 0 0 0 0 0z"/><path fill="#FF5542" d="M114.5 217.5c0 .1-.1.1-.1.1-.1 0-.1-.1-.1-.2s0-.1.1-.1c0 0 .1.1.1.2z"/><g fill="#FFC300"><path d="M114.5 217.5c0 .1-.1.1-.1.1-.1 0-.1-.1-.1-.2s0-.1.1-.1c0 0 .1.1.1.2z"/><path d="M114.1 218.1c0 .1-.1.1-.2 0-.2-.1-.3-.3-.3-.5 0-.1.1-.2.1-.2.2 0 .4-.1.6-.1 0 0-.1 0-.1.1s.1.2.1.2h.1c-.1.1-.2.3-.3.5z"/><path d="M114.5 217.6c-.1.2-.3.3-.4.5v-.2l.4-.3c0-.1 0 0 0 0zm-.8-.2c.2 0 .4-.1.6-.1h.1c.1 0 .1.1.1.2l-.4.4c0-.2-.1-.4-.4-.5z"/><path d="M114.1 217.9c0 .2-.1.3-.3.2s-.3-.3-.3-.5.1-.3.3-.2.3.3.3.5z"/></g><g fill="#FF5542"><path d="M114.1 217.9c0 .2-.1.3-.3.2s-.3-.3-.3-.5.1-.3.3-.2.3.3.3.5z"/><path d="M109.9 220.6h-.2c-.2-.1-.3-.3-.3-.5 0-.1 0-.2.1-.2l4.2-2.4c-.1 0-.1.1-.1.2 0 .2.1.4.3.5h.2c-1.3.7-3 1.6-4.2 2.4z"/><path d="M114 218.1l-4.2 2.4c.1 0 .1-.1.1-.2l4.2-2.4c0 .1 0 .2-.1.2z"/><path d="M109.4 219.9l4.2-2.4h.2c.2.1.3.3.3.5l-4.2 2.4c0-.2-.1-.4-.3-.5 0-.1-.1-.1-.2 0z"/><path d="M109.9 220.4c0 .2-.1.3-.3.2s-.3-.3-.3-.5.1-.3.3-.2.3.3.3.5z"/></g><path fill="#FFC300" d="M109.9 220.4c0 .2-.1.3-.3.2s-.3-.3-.3-.5.1-.3.3-.2.3.3.3.5z"/><path fill="#FFC300" d="M109.2 220.9h-.2c-.2-.1-.3-.3-.3-.5 0-.1 0-.2.1-.2l.6-.4c-.1 0-.1.1-.1.2 0 .2.1.4.3.5h.2c-.1.2-.4.3-.6.4z"/><path fill="#FFC300" d="M109.9 220.6l-.6.4c.1 0 .1-.1.1-.2l.6-.4c-.1.1-.1.1-.1.2zm-1.1-.4l.6-.4h.2c.2.1.3.3.3.5l-.6.4c0-.2-.1-.4-.3-.5h-.2z"/><path fill="#D69200" d="M109.3 220.7c0 .2-.1.3-.3.2s-.3-.3-.3-.5.1-.3.3-.2.3.3.3.5z"/><path fill="#6C6C6C" d="M136.6 202.8c.2-.1.4 0 .4.3l.1 9.1c0 .3-.2.6-.4.8l-14.3 8.3c-.2.1-.4 0-.4-.2l-.1-9.1c0-.3.2-.6.4-.8l14.3-8.4z"/><path fill="#082C44" d="M147 218.7c0 .1 0 .1 0 0v.1h-.1l-5.5 3.2v-.3l-1.2-.7 1.8-1v-.1l.1.1 2.4-1.4v-.8l-1.1-.6-.3.1v-.3l-.4-.2-.7-.4-1.3-.7-.3.2v-.4l-1.1-.6-.3.1v-.3l-1.1-.6-1.2.7v.3l-.2-.1-1.2.7v.3l-.2-.1-1.2.7v.3l-.2-.1-1.2.7v.3l-.2-.1-1.2.7v.3l-.2-.1-1.2.7v.3l-.2-.1-1.2.7v.3l-.2-.1-1.2.7v.3l-.2-.1-1.2.7v.8l.6.4-.3.2v-.3l-1.1-.6-1.2.7v.8l1.1.6.3-.1v.3l1.1.6.2-.1v.3l1.1.6.2-.1v.3l1.1.6.3-.1v.3l1.1.6 2.5-1.4v-.2l.1.1 1.8-1.1v-.2l.2.1.7-.4v.3l1.2.7-4.5 2.6-.1.1h-1c-.1 0-.1 0-.2-.1l-8.4-4.9c-.2-.1-.3-.3-.3-.4v.8c0 .1.1.3.3.4l8.4 4.9.1.1h.7s.1 0 .1-.1l14.6-8.5c.8-1.3.8-1.6.8-1.9z"/><path fill="#134169" d="M146.7 218.3l-8.4-4.9c-.4-.2-1-.2-1.4 0l-14.6 8.5c-.4.2-.4.6 0 .8l8.4 4.9c.4.2 1 .2 1.4 0l14.6-8.5c.4-.2.4-.6 0-.8z"/><path fill="#F8F9FC" d="M137 216.1l1.1.6-1.1.7-1.1-.6 1.1-.7zm1.8.5l1.1.7-1.1.7-1.2-.7 1.2-.7z"/><path fill="#F8F9FC" d="M140.4 215.8l1.3.7.8.5.3.2-1.9 1.1-1.1-.6.6-.4-1.3-.7 1.3-.8zm-2.9 1.6l1.1.6-1.1.7-1.2-.6 1.2-.7zm5.6-.1l1.1.7-2.4 1.4-1.1-.7 2.4-1.4zm-2.5 1.5l1.1.6-1.8 1.1-1.1-.7 1.8-1zm-3.6.5l1.1.6-1.1.7-1.1-.7 1.1-.6zm.6-5.1l1.1.6-1.1.7-1.2-.7 1.2-.6zm-1.4.8l1.1.6-1.1.7-1.1-.7 1.1-.6zm2.8-.1l1.1.7-1.8 1-1.1-.6 1.8-1.1zm-4.2.9l1.2.6-1.2.7-1.1-.7 1.1-.6zm-1.3.8l1.1.6-1.2.7-1.1-.6 1.2-.7zm2.2.3l1.1.6-1.1.7-1.2-.7 1.2-.6zm-3.6.5l1.1.6-1.1.7-1.2-.6 1.2-.7zm2.3.2l1.1.7-1.2.6-1.1-.6 1.2-.7zm5.2.2l1.1.6-1.1.7-1.1-.7 1.1-.6zm-8.9.4l1.1.6-1.1.7-1.1-.6 1.1-.7zm5.5 0l1.1.6-1.1.7-1.2-.7 1.2-.6zm-3.1.2l1.1.6-1.2.7-1.1-.6 1.2-.7zm5.2.1l1.1.7-1.1.6-1.2-.6 1.2-.7zm-3.4.4l1.1.7-1.1.6-1.2-.6 1.2-.7zm-5.6.1l1.2.6-1.2.7-1.1-.6 1.1-.7zm2.4.2l1.2.6-1.2.7-1.1-.7 1.1-.6zm1.9.5l1.1.6-1.1.7-1.2-.6 1.2-.7zm-5.6.1l1.1.6-1.2.7-1.1-.6 1.2-.7zm2.4.1l1.2.7-1.2.7-1.1-.7 1.1-.7zm5.3.2l1.1.6-1.2.7-1.1-.7 1.2-.6zm-3.4.3l1.1.7-1.1.7-1.2-.7 1.2-.7zm-5.7.2l1.1.6-1.2.7-1.1-.6 1.2-.7zm2.5.1l1.1.6-1.1.7-1.1-.6 1.1-.7zm5.3.1l1.1.6-1.1.7-1.2-.6 1.2-.7zm-3.4.4l1.1.6-1.1.7-1.2-.6 1.2-.7zm2.1.4l1.1.6-1.1.7-1.2-.7 1.2-.6zm-8.4.1l1.1.7-1.2.6-1.1-.6 1.2-.7zm5 .3l1.1.6-1.1.7-1.2-.7 1.2-.6zm9-2.1l1.1.6-5.1 3-1.1-.6 5.1-3zm-6.9 2.4l1.1.7-1.1.6-1.2-.6 1.2-.7zm-4.1-.8l1.2.6-2.9 1.7-1.1-.6 2.8-1.7zm11.8-.5l1.7 1-4.2 2.4-1.6-1 4.1-2.4zm-11.1 1.7l1.1.7-2.1 1.2-1.1-.6 2.1-1.3zm5 .3l1.1.6-1.8 1.1-1.1-.7 1.8-1zm-2.9.1l1.1.6-2.8 1.7-1.2-.7 2.9-1.6zm1 1l1.1.7-2.5 1.4-1.1-.7 2.5-1.4z"/><path fill="#082C44" d="M137.2 202c-.1-.1-.2-.1-.2-.1-.1 0-.1-.1-.2-.1-.1-.1-.3-.1-.5.1l-14.6 8.5c-.4.2-.7.8-.7 1.2v9.7c0 .2.1.4.2.5.2.1.3.2.5.3-.1-.1-.2-.2-.2-.5l-.1-9.7c0-.5.3-1 .7-1.3l14.6-8.5c.3-.1.5-.2.5-.1.1 0 0 0 0 0z"/><path fill="#114269" d="M136.8 202.1c.4-.2.7 0 .7.4l.1 9.7c0 .5-.3 1-.7 1.3l-14.6 8.5c-.4.2-.7 0-.7-.4l-.1-9.7c0-.5.3-1 .7-1.3l14.6-8.5zm.2 10l-.1-8.9c0-.3-.2-.4-.4-.2l-14 8.1c-.2.1-.4.5-.4.8l.1 8.9c0 .3.2.4.4.2l14-8.1c.2-.1.4-.5.4-.8z"/><path fill="#252F3E" d="M127 212.6v.4c0 .1.1.2.1.2v.1s0 .1-.1.2l-.3.3-.1.1h-.1c-.1 0-.1-.1-.2-.1 0 0-.1-.1-.1-.2-.3.6-.8 1-1.3 1.3-.4.2-.6.3-.9.2-.2-.1-.3-.3-.3-.6 0-.4.1-.7.4-1.1.3-.4.6-.7 1.1-.9.1-.1.3-.2.5-.2.2-.1.3-.1.5-.2v-.3c0-.3-.1-.5-.2-.6s-.4 0-.7.2c-.2.1-.3.2-.5.3s-.3.3-.5.4c-.1.1-.1.1-.2.1 0 0-.1 0-.1.1-.1 0-.1 0-.1-.1v-.4c0-.1.1-.1.1-.2l.5-.5c.2-.2.4-.3.7-.5.5-.3.9-.4 1.1-.3.2.1.4.4.4.9l.3 1.4zm-1.7 1.6c.1-.1.3-.2.4-.3s.3-.3.4-.5c.1-.1.1-.2.1-.4v-.6c-.1 0-.3.1-.4.2-.1.1-.3.1-.4.2-.3.2-.5.3-.6.5s-.2.4-.2.6c0 .2.1.3.2.4.1.1.3 0 .5-.1zm3.4-1.5c-.1 0-.1.1-.2.1 0 0-.1 0-.1-.1l-1-2.7v-.1c0-.1 0-.1.1-.2l.4-.2c.1 0 .1-.1.2-.1l.1.1.7 2.4.7-3.2c0-.1 0-.2.1-.2s.1-.1.2-.1l.3-.2c.1 0 .1-.1.2-.1 0 0 .1 0 .1.1l.7 2.5.7-3.3c0-.1.1-.2.1-.2s.1-.1.2-.1l.4-.2h.1v.2l-1 3.9c0 .1-.1.2-.1.2s-.1.1-.2.1l-.4.2c-.1 0-.1.1-.2.1 0 0-.1 0-.1-.1l-.7-2.5-.7 3.2c0 .1 0 .2-.1.2s-.1.1-.2.1l-.3.2zm5.5-3.1c-.2.1-.4.2-.7.3s-.4.1-.5.1h-.1v-.3c0-.1 0-.2.1-.2h.2c.1 0 .3-.1.5-.1.2-.1.3-.1.5-.2.3-.2.5-.3.6-.5s.2-.4.2-.5 0-.2-.1-.2h-.4l-.6.2c-.3.1-.5.1-.7 0-.1-.1-.2-.3-.2-.5s0-.4.1-.5c.1-.2.2-.4.3-.5.1-.2.3-.3.4-.5.2-.2.4-.3.5-.4.1-.1.2-.1.3-.1s.2-.1.3-.1.2-.1.2-.1h.3v.3c0 .1 0 .2-.1.2h-.2c-.2 0-.5.1-.8.3-.2.1-.4.3-.6.5s-.2.3-.2.5c0 .1 0 .2.1.2h.5l.6-.2c.3-.1.5-.1.7 0s.2.3.2.5 0 .4-.1.6l-.3.6c-.1.2-.3.4-.5.5 0-.2-.2 0-.5.1z"/><path fill="#F90" d="M135.1 211.2c-1.4 1.9-3.5 3.6-5.2 4.6-2.5 1.4-4.7 1.8-6.4 1.3-.1 0 0-.3.1-.3 1.8 0 4.1-.7 6.4-2 1.6-.9 3.3-2.2 4.9-3.8.2-.2.4-.1.2.2zm.5-1c-.2-.1-1.2.6-1.7.9-.1.1-.2 0 0-.2.8-1 2.1-1.6 2.3-1.5s0 1.5-.8 2.6c-.1.2-.2.2-.2 0 .2-.5.6-1.7.4-1.8z"/><path fill="#E0B29D" d="M141.1 215.7l-3.9-.3c-.2 0-1.1.2-1.3.7-.1.3-.6 2.3.1 2.3.5 0 4.2-.3 4.2-.3.3 0 1 .3 1.1.2l1.2-.6-1.4-2z"/><path fill="#1A4E75" d="M140.6 215.4c-1.2 0-2 2.6-1 2.7l9.5 1.4c1.4.2 2.6-.8 2.8-2.2s-.8-2.6-2.2-2.7l-9.1.8z"/><path fill="#E0B29D" d="M154.6 213.2c0 1.5-2.7 1.9-4.8 2.1-.4-.4-.7-.8-.7-.8l-.1-3.1 5.5-2.2.1 4c0-.1 0 0 0 0z"/><path fill="#FFF" d="M147.8 215.6c0-.3 1.1-2.4 1.4-2.2 1.1.8 4.1.7 4.9.3.7-.3.6-1.4.6-1.4s1.1.7 1.7 1.3c1 1 .5 2.8-3.3 3.6-1.2.2-2.5.1-3.6-.4-.9-.4-2.5-.3-1.7-1.2z"/><path fill="#2980B9" d="M143.6 240.6c1.3-3 2.6-8.2.6-14.2-2.4-7.2 2.2-10.8 3.8-11.4 0 0 1.7 1.9 5.2 1.1 3.6-.8 2.4-3.1 2.4-3.1 4.7.1 4.6 6.3 4.8 8.5.2 2.8.1 8.4.1 13.5.1 2.1-16.9 5.6-16.9 5.6z"/><path fill="#1C2A33" d="M160.5 235c0 1.3.3 5.1.3 6.3-.4 1.6-1.4 3.9-3.1 4.9-4 2.3-9.4 2.3-13.3-.5-.9-.6-1.6-1.4-2.3-2.3 0 0 2-4.4 2.8-7.9 0 0 2 1.9 4.3 2.2 6 .8 11.3-2.7 11.3-2.7z"/><g><path fill="#E0B29D" d="M133.8 223.6l-1.4-2-1.5-1.3c-.2-.1-.9-.7-1.4-.5-.3.1-2.1 1.1-1.7 1.6.3.4 2.8 2.6 2.8 2.6s.6.1 1.6.9l.4 1 1.2-2.3z"/><path fill="#135788" d="M137.3 228.7c-.8 1.1-.6 2.6.5 3.4 1.1.8 2.6.5 3.4-.5l8.6-10.4c1-1.4.7-3.3-.7-4.2-1.4-1-3.3-.7-4.2.7l-7.6 11z"/><path fill="#135788" d="M133.1 222.5c-1-.8-3.4.7-2.7 1.4l6.6 7.8c1 1.1 2.7 1.2 3.8.2s1.2-2.7.2-3.8l-7.9-5.6z"/></g><path fill="#1D232B" d="M156 208.5c-2.6 2.7-3.6 2.7-6.2.8-1.7-1.2 0-4.1-.6-6.1-.4-1.1-3.7-1-3.5-2.3.7-4 6.7-5.1 9.8-3.2 5.9 3.5 3.7 7.4.5 10.8z"/><path fill="#E0B29D" d="M146.9 209c-.2.1-.2.3-.1.4.1.2.2.4.2.5v.5c0 .4.4.8.7 1.1.3.2.6.3 1 .4 1.2.2 2.3.2 3-.6.6-.7.8-1.9 1-3.1.1-.7.1-1.5 0-2.4 0-.3-.1-.5-.2-.8-.8-2.4-2.7-3.7-4.3-3.9-1.5-.2-2.4 1.2-2.1 3.2 0 .2.1.5.2.7.1.5-.2.8-.3 1.1-.1.2-.5.7-.1 1.1.2.2.4.2.5.5.1.2.2.5.2.8v.2c-.1.4.2.3.3.3z"/><path fill="#1D232B" d="M159.1 202.2c-.4-1.6-4.1-1.7-4.1-1.7-.3-.2-2-6.3-8.5-1.4-1.3 1-.9 4.6-.9 4.6s4.9 2.9 5.9 4.7c.1.2-.3 4.7 4.2 2 2.5-1.5 4.6-3.5 3.4-8.2z"/><ellipse transform="rotate(-72.025 150.95 207.19)" fill="#E0B29D" cx="150.9" cy="207.2" rx="1.6" ry="1"/><path fill="#1D232B" d="M162.2 203.8c.6-1.9-.4-3.9-2.1-4.5-1.8-.6-3.6.5-4.2 2.4-.6 1.9.4 3.9 2.1 4.5 1.7.6 3.6-.5 4.2-2.4z"/><path fill="#FA7564" d="M158 206.2c-1.8-.6-2.7-2.6-2.1-4.5.3-1.1 1.1-1.9 2-2.3-1.2.2-2.2 1.2-2.6 2.5-.6 1.9.4 3.9 2.1 4.5.7.2 1.5.2 2.2-.1-.5.1-1.1.1-1.6-.1z"/><g><path fill="#394242" d="M105 248.1c-.3 0-.6-.1-.8-.4s-.3-.6-.2-.9c0-.5-.4-2.4-1.4-3-.2-.1-.8-.3-1.3-.4-1.7-.5-4.9-1.4-4.4-4.7.1-.6.6-1 1.2-.9s1 .6.9 1.2c-.2 1.2.7 1.6 2.8 2.2.7.2 1.3.4 1.8.7 2.2 1.3 2.5 4.6 2.5 4.7 0 .3.1.9-.4 1.3-.2.1-.5.2-.7.2z"/><path fill="#586162" d="M110.5 256.4l.8-.5c0 .3-.1.5-.3.6l-.8.5c.1-.1.3-.3.3-.6z"/><path fill="#586162" d="M110.5 251.9l.8-.4v4.4l-.8.5v-4.5z"/><path fill="#5D6768" d="M108.8 250.2l.8-.5c.2-.1.4-.1.7.1l-.8.5c-.3-.2-.5-.2-.7-.1z"/><path fill="#586162" d="M109.5 250.3l.8-.5c.5.3 1 1.1 1 1.7l-.8.5c0-.7-.5-1.4-1-1.7z"/><path fill="#93A2A3" d="M109.5 250.3c.5.3 1 1.1 1 1.7v4.4c0 .6-.4.9-1 .6-.5-.3-1-1.1-1-1.7v-4.4c0-.7.5-1 1-.6z"/><path fill="#586162" d="M113.8 254.7l.8-.5c0 .3-.1.5-.3.6l-.8.5c.2-.1.3-.3.3-.6z"/><path fill="#586162" d="M113.8 252.4l.8-.5v2.3l-.8.5v-2.3z"/><path fill="#5D6768" d="M112.1 250.6l.8-.5c.2-.1.4-.1.7.1l-.8.5c-.3-.1-.5-.2-.7-.1z"/><path fill="#586162" d="M112.8 250.7l.8-.5c.5.3 1 1.1 1 1.7l-.8.5c0-.6-.4-1.4-1-1.7z"/><path fill="#93A2A3" d="M112.8 250.7c.5.3 1 1.1 1 1.7v2.3c0 .6-.4.9-1 .6-.5-.3-1-1.1-1-1.7v-2.3c0-.6.5-.9 1-.6z"/><path fill="#586162" d="M104.9 253.2l.8-.5c0 .3-.1.5-.3.6l-.8.5c.2-.1.3-.3.3-.6z"/><path fill="#586162" d="M104.9 248.9l.9-.5v4.3l-.9.5v-4.3z"/><path fill="#5D6768" d="M103.3 247.1l.8-.5c.2-.1.4-.1.7.1l-.8.5c-.3-.2-.5-.2-.7-.1z"/><path fill="#5D6768" d="M104 247.2l.8-.5c.5.3 1 1.1 1 1.7l-.8.5c0-.7-.5-1.4-1-1.7z"/><path fill="#93A2A3" d="M104 247.2c.5.3 1 1.1 1 1.7v4.3c0 .6-.4.9-1 .6-.5-.3-1-1.1-1-1.7v-4.3c0-.7.4-.9 1-.6z"/><path fill="#5D6768" d="M108 251.7l.8-.5c0 .3-.1.5-.3.6l-.8.5c.2-.1.3-.3.3-.6z"/><path fill="#586162" d="M108.1 249.4l.8-.5v2.3l-.9.5.1-2.3z"/><path fill="#5D6768" d="M106.4 247.6l.8-.5c.2-.1.4-.1.7.1l-.8.5c-.3-.1-.5-.2-.7-.1z"/><path fill="#5D6768" d="M107.1 247.7l.8-.5c.5.3 1 1.1 1 1.7l-.8.5c0-.6-.5-1.4-1-1.7z"/><path fill="#93A2A3" d="M107.1 247.7c.5.3 1 1.1 1 1.7v2.3c0 .6-.4.9-1 .6-.5-.3-1-1.1-1-1.7v-2.3c0-.6.4-.9 1-.6z"/><ellipse transform="rotate(-72.218 109.247 248.382)" fill="#758586" cx="109.2" cy="248.4" rx="4.8" ry="6.7"/><circle fill="#95A5A6" cx="115.1" cy="247.2" r="4.2"/><path fill="#333" d="M118.4 248.9l-.7 1.3c-.1.2-.2.3-.3.3-.1.1-.2.1-.3 0l-.7-.4c-.2-.1-.2-.4 0-.7l2.1-1.2c.1.1.1.4-.1.7z"/><path fill="#394242" d="M116 243.7l-.3-.3c1.3-1.9 2.4-2.1 2.5-2.2l.3.3c-.1.1-1.2.6-2.5 2.2z"/><path fill="#647475" d="M118.5 241.5c0 .1.5.9-.5 2.6-.6-.3-1.3-.5-2-.4 1.3-1.6 2.4-2.1 2.5-2.2z"/><path fill="#394242" d="M110 244.8c.1 0 1.7-.7 2.9-.1l.5.3c-1.2-.6-2.8 0-2.9.1l-.5-.3z"/><path fill="#394242" d="M111.8 247.7l-.5-.3c-1.2-.7-1.3-2.5-1.3-2.6l.5.3c0 .1.2 1.8 1.3 2.6z"/><path fill="#647475" d="M110.5 245.1c.1 0 1.7-.7 2.9-.1 0 0-.5.4-.9 1.2-.5.8-.6 1.6-.6 1.6-1.2-.8-1.4-2.6-1.4-2.7z"/><path fill="#333" d="M121.2 246.6c-1 .4-1.8 1.1-2.6 1.8 0 0 0 .1.1.1l1.2-.9c.5-.3 1-.5 1.4-.8 0-.1 0-.2-.1-.2z"/><path fill="#333" d="M122.2 247.5c-.7 0-1.4.2-2.1.4-.4.1-1.1.3-1.5.7.4-.1.8-.3 1.3-.5.7-.3 1.5-.4 2.3-.6.1.1.1 0 0 0zm-.5 1c-.5 0-1.1.2-1.6.3s-.9.1-1.4.2v.1c1 0 2.1 0 3-.4.1-.1.1-.2 0-.2zm-6.1 1.5c-1.5-.1-3.1.6-4.2 1.6-.1 0 0 .1.1.1.6-.3 1.2-.7 1.9-1 .7-.4 1.5-.5 2.2-.7.1.1.1 0 0 0zm-.1.4c-.7.1-1.3.5-1.9 1-.5.4-1.2.8-1.5 1.4 0 .1 0 .1.1.1.5-.3.9-.8 1.4-1.2.6-.5 1.2-.9 1.9-1.3.1 0 0-.1 0 0zm.2.3c-.9.7-2.1 1.5-2.6 2.5 0 .1.1.1.1.1.4-.4.7-.9 1.2-1.3.4-.4.9-.8 1.3-1.3.1 0 .1-.1 0 0z"/><ellipse fill="#1C2929" cx="114.6" cy="248.1" rx=".4" ry=".4"/><ellipse fill="#1C2929" cx="118.2" cy="246.2" rx=".4" ry=".4"/></g><g><path fill="#181D1F" d="M124.9 227.4c0 .1 0 .2-.1.2l-1 .6v-.2s0-.1-.1-.1l.4-.2.1-.1v-.5s0-.1-.1-.1l-3.9-2.3h-.3l-.9.5v-.2h-.2l-.7.4v.3l-.5.3-.1.1v.3l-.4-.2c-.1-.1-.1-.1-.1-.2v.5c0 .1 0 .1.1.2l4.7 2.8c.2.1.5.1.7 0l2.3-1.3c.1-.1.1-.1.1-.2v-.6z"/><path fill="#49BDF2" d="M124.1 227l-3.9-2.3h-.3l-2.3 1.3c-.1 0-.1.1 0 .2l3.9 2.3h.3l2.3-1.3v-.2z"/><path fill="#F8F9FC" d="M123.3 227.9c.1-.1.3-.1.4 0s.1.2 0 .2l-.4.2c-.1.1-.3.1-.4 0s-.1-.2 0-.2l.4-.2z"/><path fill="#2C3538" d="M119.4 224.5c.2-.1.5-.1.7 0l4.7 2.8c.2.1.2.3 0 .4l-2.3 1.3c-.2.1-.5.1-.7 0l-4.7-2.8c-.2-.1-.2-.3 0-.4l2.3-1.3zm4.7 2.5l-3.9-2.3h-.3l-2.3 1.3c-.1 0-.1.1 0 .2l3.9 2.3h.3l2.3-1.3v-.2zm-.4 1.1c.1-.1.1-.2 0-.2-.1-.1-.3-.1-.4 0l-.4.2c-.1.1-.1.2 0 .2.1.1.3.1.4 0l.4-.2zm-5.6-2.7c-.1.1-.1.1 0 0 0 .1.1.1.2.1l.7-.4v-.1h-.2l-.7.4z"/><path fill="#F8F9FC" d="M118.7 225h.2v.1l-.7.4h-.2v-.1l.7-.4z"/></g></g></svg>