<svg viewBox="0 0 1200 800" xmlns="http://www.w3.org/2000/svg"><g fill="none" fill-rule="evenodd"><g transform="translate(40.000000, 21.000000)"><path d="M572.828 646.907s-76.131 31.807-61.525 84.386c14.605 52.579 135.658 12.46 163.958-11.047 22.6-18.772 22.001-36.095 10.443-61.993-11.557-25.899-49.078-38.61-112.876-11.346" fill="#C9E8F4"></path><path d="M632.72 664.146c-6.524-8.83-18.765-13.541-29.119-9.892-8.699 3.066-14.625 10.96-20.018 18.444-5.371 7.453-10.426 15.144-14.469 23.394-8.746 17.841-3.903 29.89-1.864 32.786 2.45 3.48 6.67 5.29 10.835 6.16 14.371 3.004 29.314-3.409 40.557-12.849 8.407-7.06 15.469-16.087 18.618-26.604 3.149-10.517 1.983-22.61-4.54-31.439" fill="#B0DEED"></path><path d="M1119.61 413.686c-1.74-124.395-61.02-210.477-266.509-344.027C769.928 15.604 697.126-.634 631.44.019c-96.599.961-177.415 42.035-250.008 82.4a12842.252 12842.252 0 0 1-85.697 47.196c-44.673 24.393-100.921 45.733-146.628 71.781-43.955 25.05-78.058 55.088-87.827 65.134C13.672 315.491-.779 367.339.032 413.686c.772 44.18 26.609 118.344 72.741 170.666 28.797 32.66 139.116 104.254 210 108 177.512 9.382 180.115-116.773 330.167-88.275 150.052 28.499 139.434 74.996 279 95.048 139.57 20.054 229.42-161.045 227.67-285.439" fill="#C9E8F4"></path><path d="M535.464 497.444c-56.499 34.252-120.048 35.275-191.297 0v-81.922h191.297v81.922z" fill="#FFB948"></path><path d="M846.891 331.45c83.145 0 153.929-52.887 180.569-126.851-40.625-41.314-97.176-84.778-174.359-134.94C769.928 15.604 697.125-.634 631.44.019 534.841.98 454.024 42.054 381.432 82.42a12911.804 12911.804 0 0 1-85.697 47.195c-44.673 24.394-100.921 45.733-146.628 71.781-43.955 25.05-78.06 55.088-87.827 65.134-20.735 21.323-35.175 43.194-44.809 64.92h830.42z" fill="#C9E8F4"></path><path d="M1007.28 602.343s-47.84 52.677-99.34 66.565c-51.5 13.89-133.129-27.363-169.824-69.005-44.554-50.561-82.182-59.523-82.182-59.523l10.953 76.464c96.042 28.111 104.827 65.009 225.053 82.282 43.768 6.289 82.646-7.208 115.34-32.531v-64.252z" fill="#B0DEED"></path><path d="M891.206 699.018l.734.107c139.57 20.054 229.42-161.045 227.67-285.439v-.021c-30.64 120.764-142.314 231.242-228.404 285.353M612.94 604.077c53.902 10.237 87.07 22.798 113.916 35.62-21.054-44.394-40.041-92.731-71.749-99.511-57.939-12.388-73.208 24.77-114.534 62.524 20.213-3.871 43.573-4.102 72.367 1.367" fill="#B0DEED"></path><path d="M612.94 604.077c29.598 5.622 52.936 11.944 72.416 18.625-3.966-9.208-8.637-18.044-15.02-25.73-10.496-12.637-26.673-21.803-42.941-19.518-10.851 1.524-20.359 7.803-29.453 13.917-2.678 1.801-9.243 5.111-14.949 8.869 9.312.565 19.254 1.806 29.947 3.837" fill="#C9E8F4"></path><path d="M322.296 573.225c-93.145-32.794-134.078 89.726-134.078 89.726 32.713 15.962 66.683 27.928 94.556 29.401 96.754 5.114 141.545-30.038 186.572-58.468-39.33-3.54-80.548-37.245-147.05-60.659" fill="#B0DEED"></path><path d="M427.587 659.953a131.88 131.88 0 0 1-3.68-1.515c-21.401-9.209-40.748-22.912-62.631-30.911-29.73-10.867-64.266-10.163-91.918 5.245-13.263 7.39-25.002 18.374-30.736 32.433-2.207 5.412-3.384 11.305-3.459 17.176 16.834 5.567 33.055 9.203 47.611 9.971 67.801 3.584 110.084-12.606 144.813-32.399" fill="#C9E8F4"></path><path d="M1089.46 286.85c-37.3 5.942-87.96 14.182-92.853 15.869-7.833 2.699-72.166 38.3-78.705 44.633-6.538 6.334-99.461 56.667-101.656 56.334-2.194-.334-262.805 19.168-262.805 19.168s-40 92.219-105.326 94.73c-65.325 2.511-98.894-105.411-98.894-105.411-74.901-71.228-146.483 6.208-146.483 6.208-75.633 60.794-93.514 138.592-95.58 195.648 10.166 7.48 21.736 15.301 34.169 22.988 25.352-174.312 174.335-146.181 217.872-124.555 74.242 36.879 93.726 30.168 150.243 11.054 56.515-19.114 123.412-32.497 187.864 13.926 47.347 34.102 100.789 38.452 160.135 30.804 86.226-11.113 134.225-44.879 178.809-98.558 39.67-47.758 40.19-133.373 40.19-133.373l28.39-13.94c-4.13-11.992-9.21-23.797-15.37-35.525" fill="#00398C"></path><path d="M942.44 687.519l-2.355 11.606s-5.395 16.251-6.145 29.894c-.75 13.643 3.677 17.242 12 11 14-10.5 21.419-28.756 20.286-40.894-1.673-17.926-12.286-21.773-12.286-21.773l-11.5 10.167zm-144.5 29.501l-6.5 7-14.167 19.5s-7.5 10.5 1.5 11.5 21.989-3.622 31.292-15.876c10.375-13.667 6.759-23.43 5.75-27.125-1.009-3.695-17.875 5-17.875 5" fill="#1A53C4"></path><path d="M927.273 675.519c3 2.5 12.812 23.606 12.812 23.606 8.188-3.106 15.022-12.023 13.855-21.773l-8.5-27.666-14.5 21.166-3.667 4.667zm-131.333 30.25c-.375.75-3.375 14.625-4.5 18.25s20.987-3.255 24.375-12c0 0 1.75-14.5 1.375-14.5s-21.25 8.25-21.25 8.25" fill="#FDBDB4"></path><path d="M845.94 526.519c2 3 7.161 16 7.161 16l67.339 145s24.5-12 30.5-31.5c0 0-22-112.5-48.5-141.5s-56.5 12-56.5 12" fill="#326CE5"></path><path d="M857.493 551.973a100.984 100.984 0 0 1 4.087-3.592c2.05-1.694 27.202-18.037 27.823-16.33-1.969-6.291-4.69-13.399-10.907-15.593-3.73-1.315-7.839-.471-11.676.484a228.628 228.628 0 0 0-15.205 4.344c-.61.199-1.229.414-1.843.647-2.441 2.687-3.832 4.586-3.832 4.586 2 3 7.161 16 7.161 16l4.392 9.454z" fill="#1A53C4"></path><path d="M902.44 514.519c-4.648-5.087-9.403-8.014-14.086-9.392-14.384 3.267-27.558 7.01-25.414 9.392 3.447 3.831 58.548 85.434 84.131 123.393-7.44-33.03-24.772-101.66-44.631-123.393" fill="#1A53C4"></path><path d="M952.035 415.009l.03.011s18.042 24.5 12.042 52.667c-8.121 38.12-84.727 58.666-84.727 58.666s-24.773 6.917-27.607 25.417L827.44 697.02s-22.5 21.25-42.75 11.75l13.75-197.25 119.831-91.293a35.759 35.759 0 0 1 33.764-5.218" fill="#326CE5"></path><path d="M852.301 549.342c-5.164 15.67-34.687 102.96-67.066 151.607l-.545 7.821c20.25 9.5 42.75-11.75 42.75-11.75l24.333-145.25c.128-.835.315-1.639.528-2.428m52.589-96.248c2.336-10.844 7.374-22.217 13.19-32.723l-80.871 61.612c.827 31.195 3.981 57.857 12.658 52.717 19.51-11.559 47.573-47.013 55.023-81.606" fill="#1A53C4"></path><path d="M946.411 417.633l-2.608 1.483c.155.274 15.343 27.736-1.43 55.63-16.941 28.174-96.032 50.109-96.829 50.327l-.914.25-.166.934c-.293 1.645-27.823 156.06-34.911 182.058a52.392 52.392 0 0 0 3.479-1.553c7.793-31.211 31.744-165.172 34.22-179.05 9.414-2.65 80.941-23.563 97.691-51.419 17.698-29.432 1.632-58.371 1.468-58.66" fill="#00478E"></path><path d="M902.475 102.809c-15.441-10.743-31.864-21.771-49.374-33.15C769.902 15.586 697.141-.648 631.44.019c-82.302.835-153.301 29.942-217.294 64.416 5.32 3.404 16.877-.174 24.634 1.027 10.77 1.667-37.973 112.197-49.986 147.557-12.012 35.36 5.422 61.017 32.94 67.24 13.52 3.057 49.009-18.593 76.706-60.242 28.675-43.118 53.465-105.765 79.684-129.535 7.974-7.229 16.845-13.868 27.154-16.96 10.308-3.092 22.322-2.12 30.658 4.687 11.27 9.204 12.788 25.431 16.396 39.528 7.316 28.586 27.023 53.77 53.01 67.747 8.501 4.572 18.613 8.016 27.686 4.72 13.404-4.871 18.255-21.708 30.031-29.751 12.855-8.781 30.357-4.963 44.724 1.035 14.366 5.998 28.891 14.027 44.403 12.71 17.548-1.492 32.193-15.118 39.898-30.954 6.123-12.583 8.653-26.475 10.391-40.435" fill="#B0DEED"></path><path d="M885.235 90.975a1978.847 1978.847 0 0 0-32.134-21.316C769.902 15.586 697.141-.648 631.44.019c-57.089.579-108.736 14.768-156.382 34.908-2.02 22.578-11.878 45.54-18.979 67.64-7.982 24.834-18.983 39.494-19.972 65.56-.368 9.689-.012 35.554 17.806 35.33 10.164-.131 16.719-9.618 20.23-19.157 9.418-25.578 19.676-51.142 35.137-73.59 15.461-22.447 36.674-41.787 62.481-50.555 25.808-8.769 56.46-5.589 77.268 12.017 15.485 13.103 24.372 32.657 39.702 45.941 25.317 21.936 67.258 21.133 91.715-1.758 9.664-9.046 17.959-21.59 31.056-23.516 13.345-1.963 25.36 8.178 38.656 10.46 12.792 2.196 25.421-3.326 35.077-12.324" fill="#D2F3F9"></path><path d="M1075.56 263.25c-14.76-22.54-33.8-45.071-57.93-68.386a150.5 150.5 0 0 0-4.64 8.522c-10.18 20.134-23.798 43.706-46.339 44.574-23.042.887-39.291-22.987-61.37-29.637-22.06-6.643-45.598 5.19-62.925 20.373-17.326 15.183-31.553 34.135-51.109 46.316-19.554 12.179-47.639 15.527-64.018-.674-9.39-9.29-12.918-22.845-19.794-34.122-18.745-30.744-60.918-40.31-95.816-31.432-34.896 8.878-64.095 32.176-91.554 55.471-29.25 24.814-63.401 41.018-100.625 31.765-50.548-12.567-60.925-88.653-109.284-108-37.335-14.937-89.232 6.798-121.716 30.5-32.485 23.701-62.072 68.203-102.28 68.709-15.34.194-30.35-3.783-45.453-6.735C9.407 332.13-.648 374.84.032 413.687c.53 30.283 12.84 74.653 35.385 116.421 20.03-17.928 39.603-36.497 59.665-54.235 51.877-45.865 111.813-88.383 180.723-95.175 51.971-5.123 103.374 10.633 154.568 20.944 54.215 10.918 109.456 15.807 164.64 19.45 56.288 3.715 113.206 6.12 168.77-3.607 101.108-17.698 190.624-74.024 277.197-129.174 11.87-7.564 24.12-15.594 34.58-25.061" fill="#D2F3F9"></path><path d="M279.877 644.197c0 2-2.309 34.364-2.309 34.364s3.48 23.148 28.122 9.291l6.187-46.905-32 3.25z" fill="#FDBDB4"></path><path d="M307.945 670.757l1.768-13.405-24.606-2.665s-2.94.393-5.933.856c-.323 4.764-.484 7.096-.792 11.487 5.031 1.468 18.39 7.593 29.563 3.727" fill="#F47F73"></path><path d="M299.608 657.713c3.416-.361 6.959-.655 10.171-1.98l2.097-14.786-32 3.25c0 1.188.529 8.103.959 13.527 6.381.854 12.252.677 18.773-.011" fill="#F47F73"></path><path d="M316.978 669.486s5.638 18.856 28.712 3.783l5.63-37.818-32.274 2.152-2.068 31.883z" fill="#FDBDB4"></path><path d="M333.44 659.519c5.053.102 11.231-.373 14.428-.878l3.452-23.189v-.001l-32.274 2.152-1.151 18.898c.965.67 8.252 2.871 15.545 3.018" fill="#F47F73"></path><path d="M313.144 651.523c1 .666 22.713 4.746 44.046.746 0 0 15.342-76.723 15.342-108.39 0-31.666 2.333-49-23-76s-40.667-47-40.667-47l-62 9.775 75.43 142.571-9.151 78.298z" fill="#326CE5"></path><path d="M349.22 653.458c-23.408-83.881-3.092-126.007-11.688-142.244-9-17-51.867-62.428-51.867-62.428l-1.133 14.761s-6.654 2.858-16.467 7.178l54.23 102.501-9.151 78.296c.927.62 16.765 4.707 36.076 1.936" fill="#1A53C4"></path><path d="M322.428 652.924l-2.998-.088c.027-.95 2.76-95.108 2.76-96.816h3c0 1.752-2.649 93.019-2.762 96.904" fill="#00478E"></path><path d="M191.865 421.88l-8.876 8.774s-6.507 56.56 85.076 106.56c.25 2-2.708 82.709 2.625 116.709-.333 0 4.956 9.875 41.92 9.429 0 0 14.663-80.832 15.957-107.332.85-17.407 6.191-37.14-14.035-64.806-16.37-22.394-46-66.667-46-66.667l-76.667-2.667z" fill="#326CE5"></path><path d="M209.824 463.775l-2.592-1.512c4.463-7.645 5.962-18.449 4.455-32.113l2.983-.328c1.578 14.316-.052 25.74-4.846 33.953" fill="#00478E"></path><path d="M270.69 653.922v.001c-.025 0-.004.084.072.234.701 1.255 6.1 7.19 27.791 8.801-18.039-43.349-21.166-101.829-20.687-121.078.5-20.125-.198-16.602-4.073-19.852-3.875-3.25-23.302-16.814-23.302-16.814-49.051-36.569-57.721-72.728-57.721-72.728l7.412-10.317-8.316-.289-8.877 8.774-.014.13-.003.042-.01.121-.008.109-.01.151a7.248 7.248 0 0 0-.01.171 8.205 8.205 0 0 0-.01.184c-.004.07-.006.146-.009.224l-.008.221c-.004.088-.006.184-.008.279l-.006.249c-.002.114-.002.238-.005.361v.251c0 .195 0 .402.005.619l.002.127a48.71 48.71 0 0 0 .029 1.003c.008.18.015.362.025.553l.021.373c.011.181.021.364.034.553l.032.424a48.572 48.572 0 0 0 .089 1.039c.018.204.04.414.062.626l.053.483c.025.225.054.456.083.689l.06.487c.036.26.075.528.114.798.021.148.041.294.064.446.062.407.129.824.201 1.251l.018.104c.074.429.155.87.242 1.319.029.156.064.319.096.478.062.315.127.632.195.958l.13.587a94.47 94.47 0 0 0 .362 1.555c.074.305.151.613.231.925l.175.674c.085.316.173.637.263.96.064.227.128.455.195.685.097.34.201.685.305 1.031.068.222.134.444.204.67.119.382.246.772.374 1.163.064.196.125.389.192.588a88.877 88.877 0 0 0 1.313 3.647c.078.202.162.409.242.613.167.426.336.853.513 1.285.102.248.209.5.314.75.168.396.335.795.511 1.198.118.269.24.542.362.813.175.394.354.788.539 1.186a110.62 110.62 0 0 0 .981 2.056c.139.283.277.566.421.85.212.423.432.849.654 1.275.142.274.282.545.427.82.251.473.514.952.777 1.431.129.235.253.466.385.702.402.716.816 1.438 1.245 2.167l.02.033c.373.631.758 1.266 1.153 1.906.132.214.272.432.406.646.276.44.553.88.839 1.324.166.256.337.514.506.772.269.408.539.819.817 1.23a118.503 118.503 0 0 0 1.406 2.039 113.301 113.301 0 0 0 1.501 2.086c.196.265.389.531.589.799.342.458.695.919 1.049 1.381.178.232.351.462.532.695.525.675 1.062 1.354 1.614 2.036l.082.101c.553.682 1.12 1.368 1.699 2.055.195.232.399.465.597.696a109.846 109.846 0 0 0 1.97 2.26 128.22 128.22 0 0 0 1.992 2.195c.4.434.807.868 1.219 1.302.279.294.558.588.841.883.428.444.864.89 1.303 1.336.278.282.555.565.838.849.488.488.988.978 1.49 1.468.247.242.488.482.738.723a176.2 176.2 0 0 0 2.27 2.149l.103.095c.772.717 1.563 1.437 2.368 2.156.271.244.55.487.826.729.559.496 1.123.991 1.697 1.487.333.287.674.575 1.012.862a167.321 167.321 0 0 0 4.384 3.623l1.133.904c.581.46 1.173.92 1.768 1.38.373.289.744.577 1.123.866a222.07 222.07 0 0 0 2.002 1.505c.33.245.654.491.988.736a231.041 231.041 0 0 0 6.305 4.476c.355.244.723.487 1.082.731.742.503 1.488 1.006 2.249 1.509.435.288.878.574 1.317.862a206.302 206.302 0 0 0 3.569 2.286 227.319 227.319 0 0 0 3.649 2.257c.755.459 1.522.917 2.292 1.374.485.289.967.577 1.459.866.852.499 1.719.997 2.59 1.495.424.243.841.486 1.27.728 1.307.739 2.63 1.478 3.98 2.215.059.469-.059 5.261-.205 12.762l-.059 3.112c-.02 1.102-.041 2.248-.06 3.437a1808.904 1808.904 0 0 0-.142 9.53c-.009.679-.016 1.364-.024 2.056a1614.318 1614.318 0 0 0-.098 13.162c-.01 3.049-.011 6.169 0 9.328.009 2.371.025 4.764.047 7.167.201 20.821 1 42.341 3.166 56.154" fill="#1A53C4"></path><path d="M275.712 524.828c-37.095-20.569-58.047-44.426-69.091-60.816-12.017-17.834-15.181-30.639-15.31-31.175l2.917-.702c.123.508 13.113 51.35 82.939 90.07l-1.455 2.623z" fill="#00478E"></path><path d="M163.865 365.705c.75-.426 21.25-25.325 21.25-25.325l10.084-19.666-2.334-13.084-20.333-8.083-16.333 6.333s-8.138 20.48-11.195 41.268l.002.002s18.109 18.98 18.859 18.555m161.834-46.158l-8.334-4.667s31 70.834 61.167 59.834 49.833-111.834 49.833-111.834l-3.333-14.5s-8.5 3.334-9 3.5c-.5.167-43.833 80-43.833 79.5s-13-27.333-13-27.333-25.334 4.327-26 4.08c-.667-.247-7.5 11.42-7.5 11.42" fill="#FDBDB4"></path><path d="M327.676 316.231c-1.128 1.865-1.978 3.315-1.978 3.315l-4.048-2.267c-.69.76-1.21 1.351-1.21 1.407v2.689c5.68 11.456 18.644 35.169 33.889 47.181-8.45-13.301-23.236-48.505-23.236-48.505s-1.785-2.024-3.417-3.82m94.306-26.172a4096.644 4096.644 0 0 0-1.375-29.873l-3.512-5.015s-7.085 73.326-13.49 88.408c7.87-16.908 14.124-37.409 18.377-53.52" fill="#F47F73"></path><path d="M591.502 657.575h-7.498s-18.12 57.801-4.728 58.664c13.392.863 24.726-35.948 24.726-48.664 0-14-1.381-22.757-1.381-22.757l-11.119 12.757z" fill="#1A53C4"></path><path d="M604.502 443.325s-22-8-38 6.333-5 74 0 91.333c5 17.334 14.821 90.593 14.821 90.593s3.512 18.741 2.512 29.074c-1 10.333-5.5 22.167-.167 24.333 6.597 2.681 17.167-27.5 18.5-34.666 1.334-7.167-.666-12-.5-18.167.167-6.167 3.5-121.167 4.5-121.5 1-.333 6.667 1 8 .333 1.334-.666 19.334-10 18.667-11.333-.667-1.333-28.333-56.333-28.333-56.333" fill="#FDBDB4"></path><path d="M606.045 457.964c-2.766-4.436-7.31-8.355-11.963-10.675-5.734-2.857-12.84-3.418-18.497-.41-5.523 2.936-8.909 8.687-11.567 14.349a121.47 121.47 0 0 0-5.739 14.675c-.279 5.877-.104 12.208.369 18.579 9.308-7.698 10.042-15.337 15.792-26.837 2.81-5.621 9-7 12.59-6.312 3.209.616 6.253 2.08 8.307 4.621 2.054 2.541 3.304 5.627 4.408 8.702 4.19 11.67 6.205 23.544 7.41 35.832l.013.135c1.979.133 5.917.91 7 .368.738-.369 6.59-3.397 11.551-6.253.091-1.149.135-2.302.125-3.443-.088-11.311-3.968-22.516-10.682-31.598-3.034-4.104-6.441-7.44-9.117-11.733" fill="#F47F73"></path><path d="M468.502 635.158l-5.834-.333s-42.041 29.375-17 35.166c11.965 2.768 32-19 32-19s.667 3.263 5.5 1.465c4.834-1.798 15.5-22.798 18.334-36.965l-33 19.667z" fill="#1A53C4"></path><path d="M472.268 622.788l-9.601 12.037s3.334 12.333 13.834 3.833 25-23.167 25-23.167l69.215-152.345c12.224-22.96 18.835-21.371 25.785-21.321 0 0-36-36.167-62.25-5-13.164 15.629-54.015 161.035-59.746 181.589a12.303 12.303 0 0 1-2.237 4.374" fill="#FDBDB4"></path><path d="M614.168 510.991s13.378-71.748-49.478-82.374c0 0 3.478-13.626 5.145-13.626 1.667 0 89.667 16 89.667 16l19.327 13.878s-10.389 43.15-30.661 58.456c-14.536 10.976-34 7.666-34 7.666" fill="#F49000"></path><path d="M614.168 510.991s13.378-71.748-49.478-82.374c0 0 3.478-13.626 5.145-13.626 1.667 0 89.667 16 89.667 16l19.327 13.878s-10.389 43.15-30.661 58.456c-14.536 10.976-34 7.666-34 7.666" fill="#F97000"></path><path d="M659.502 430.991s-69.822-12.694-86.256-15.469c-.761 2.15-1.294 3.814-1.294 3.814s62.4 9.767 89.368 68.703c11.599-18.631 17.509-43.17 17.509-43.17l-19.327-13.878z" fill="#DD5900"></path><path d="M544.44 178.269l-4.565 11.156s-.768 16.128-9.685 29.344c-11.619 17.221-37.5 58-15 91s75.75-53.637 75.75-53.637l-4.187-26.238-6.758-18.375-14.7-35.497-20.855 2.247z" fill="#E57200"></path><path d="M564.907 216.389c-.225 3.932-1.657 7.863-3.319 11.318-2.963 6.16-6.936 12.106-7.585 18.91-.697 7.308 3.97 19.465 12.772 19.177 8.281-.27 19.403-4.226 25.187-10.168 4.067-4.179 5.976-10.18 5.814-16.01-.163-5.831-2.261-11.49-5.295-16.47-2.542-4.172-5.871-8.032-10.249-10.201-2.897-1.437-6.113-2.068-9.2-3.032-1.644-.512-3.271-1.133-4.761-2.004-5.075-2.966-4.734-1.02-3.661 4.135.298 1.432.381 2.888.297 4.345" fill="#DD5900"></path><path d="M563.438 170.019s-8.512 58.505 16.557 61c25.112 2.5 34.695-6.375 37.195-18.25s-6-48.625-6.5-48.625-21.625-15.375-21.625-15.375l-25.627 21.25z" fill="#FDBDB4"></path><path d="M599.107 139.519c-2.038 4.91-2.614 14.633-2.614 14.633s-32.2 15.168-34.46 28.517c-2.26 13.35-16.26 10.752-17.26 11.051-1 .299-4.898-4.295-4.898-4.295s-1.56-31.846 21.143-50.406c10.941-8.943 28.301-14.667 50.755-14.667 0 0-9 6.334-12.666 15.167" fill="#E57200"></path><path d="M604.894 126.236s-4.993 6.667-7.496 17.991c-.648 2.934-.632 6.45-.905 9.925-1.724 21.87 25.251 27.117 21.09 50.225l3.118 5.642 36.406-3s-9.213-65.45-52.213-80.783" fill="#E57200"></path><path d="M608.42 124.406c-20.829.543-37.014 6.121-47.402 14.613-22.703 18.56-21.145 50.407-21.145 50.407s-.766 16.126-9.683 29.343c-11.62 17.221-37.5 58-15 91 2.214 3.248 4.73 5.323 7.46 6.449-.154-.57-14.877-41.866-1.71-65.032-4.667 26.833 26.167 48.189 26.167 48.189s-27.667-41.023-15.667-59.023c12-18 14-35.666 13.333-46.632-.666-10.965 2-27.701 21.141-44.951 11.514-10.376 26.066-13.361 35.84-14.096 2.429-3.603 5.398-6.488 7.475-8.283l-.809-1.984z" fill="#F49000"></path><path d="M642.69 202.607l14.417 4.412s3.083 10.5 10.333 20.25 27.833 34.25 1.045 63.278c-14.597 15.818-58.545-19.528-58.545-19.528l7.548-68.412h25.202z" fill="#E57200"></path><path d="M633.507 224.891c.678 5.421.181 10.957 1.105 16.342.884 5.142 3.053 10.066 3.279 15.279.225 5.214-2.332 11.174-7.411 12.376-6.346 1.502-12.027-5.022-18.547-5.107-2.772-18.079-.973-36.511.831-54.712.2-2.028.455-4.189 1.763-5.751.806-.963 8.257-7.056 9.428-7.051 1.92.007 2.171 8.216 3.042 9.862 3.107 5.873 5.682 12.124 6.51 18.762" fill="#DD5900"></path><path d="M626.44 184.019c5.875 5-.088 17.091-8.856 20.357-8.769 3.268-3.269-14.857-3.269-14.857s6.25-10.5 12.125-5.5" fill="#FDBDB4"></path><path d="M579.995 214.764l5.177 16.62-2.726 28.263 40.736-1.948s-6.122-28.219-5.598-54.578l-37.589 11.643zm372.07-30.745c0 8.768-5.148 15.875-11.5 15.875s-11.5-7.107-11.5-15.875 5.148-15.875 11.5-15.875 11.5 7.107 11.5 15.875" fill="#FDBDB4"></path><path fill="#FDBDB4" d="M895.69 215.019l-3.75 36 37.125-1.5 8.03-51.513z"></path><path d="M937.095 198.007L895.69 215.02l-1.052 10.098s23.868 7.657 39.404-7.53l3.053-19.581z" fill="#F47F73"></path><path d="M879.711 160.957s-14.973 28.776-2.808 52.64c12.165 23.862 50.768 6.316 59.424-12.4 8.656-18.717 2.339-53.575 2.339-53.575l-43.515-3.275-15.44 16.61z" fill="#FDBDB4"></path><path d="M971.773 134.311c0 9.862-7.995 17.857-17.858 17.857s-17.858-7.995-17.858-17.857c0-9.863 7.995-17.858 17.858-17.858s17.858 7.995 17.858 17.858" fill="#326CE5"></path><path d="M953.915 152.169c9.863 0 17.858-7.995 17.858-17.857-12.673 7.252-24.371 8.658-35.715 0 0 9.862 7.995 17.857 17.857 17.857" fill="#1A53C4"></path><path d="M944.107 309.019l28.666-41.667s-34.772-31.64-104.622-26.285c-4.58.35-8.955 2.033-12.555 4.886-8.388 6.647-24.371 21.252-38.336 45.141l23.871 25.072c.788 5.191 2.09 10.947 4.059 17.353 10.331 33.628-17.75 88.5-17.75 88.5 4.5 1 94.25 31 124.625-7 0 0-26.958-36-7.958-106" fill="#F97000"></path><path d="M911.471 433.592c8.342-18.853 21.292-36.827 29.124-46.858a123.674 123.674 0 0 1-2.187-12.35l-16.968-7.898-82.667 30.534s-.649 11.503-1.168 27.872c15.737 4.265 46.741 11.446 73.866 8.7" fill="#DD5900"></path><path d="M948.003 252.772c-5.297-2.27-11.445-4.495-18.444-6.417-4.25-1.167-9.178-9.202-14.056-10.086-6.974-1.264-14.226 4.803-22.485 4.407a193.479 193.479 0 0 0-12.083-.195c-.012.04-9.643 32.041 19.172 36.538 23.116 3.607 41.506-16.232 47.896-24.247m20.104 94.58l-13.346 16.274c0 4.601-.321 10.804 3.179 28.143 7.062 34.98 25.896 56.681 42.17 87.583 0 0 1.05 18.97 9.39 19.47 0 0 23.77-22.991 29.27-30.491 0 0-9.16-1.479-19.16.021 0 0-19.15-61.338-22.847-73.583-1.929-6.4-6.328-15.867-7.669-22-1.863-8.524-.321-12.782-.321-12.782l-20.666-12.635z" fill="#FDBDB4"></path><path d="M853.101 546.892v-.001l-.004.014.004-.013" fill="#1A53C4"></path><path d="M972.773 267.352s19 24.269 16 92.635c0 0-17.223 11.367-34.333 4.032 0 0-13.518-53.75-10.282-69.083 1.305-6.185 3.844-15.417 9.782-21.25 7.114-6.989 18.833-6.334 18.833-6.334" fill="#F97000"></path><path d="M550.44 364.769v-14.75s-25.5-19.5-10.75-55 15.75-38.25 15.75-38.25h92l7 23.75-14.5 87s-4.5 26.833.167 40.5c4.666 13.667-89.667-6.176-88.667-8.088 1-1.912-1-35.162-1-35.162" fill="#326CE5"></path><path d="M591.94 306.769c35.373 5.023 41.129-36.385 42.066-50h-11.019l-20.047-3.75-20.217 3.75h-15.812s-17.221 44 25.029 50" fill="#FDBDB4"></path><path d="M411.291 126.618l-.105-.001a4.002 4.002 0 0 1-3.896-4.103c.512-19.67 1.186-46.892 1.462-60.869-2.221 2.317-5.25 5.542-9.376 10.033a4.001 4.001 0 0 1-5.891-5.414c4.287-4.664 7.83-8.445 10.533-11.238 5.495-5.68 7.15-7.396 9.98-6.519a4.122 4.122 0 0 1 2.819 3.309c.176 1.22-.339 25.076-1.529 70.906a4 4 0 0 1-3.997 3.896m29.588-71.41a4.256 4.256 0 0 0-4.248 4.155l-1.243 55.696a4.216 4.216 0 0 0 1.177 3.032 4.22 4.22 0 0 0 2.976 1.311 4.198 4.198 0 0 0 3.032-1.177 4.222 4.222 0 0 0 1.312-2.976l1.244-55.696a4.228 4.228 0 0 0-1.177-3.033 4.223 4.223 0 0 0-2.976-1.311l-.097-.001m-1.235 72.195a12.168 12.168 0 0 1-8.861-3.783 12.168 12.168 0 0 1-3.393-8.74l1.243-55.695c.15-6.661 5.616-11.977 12.244-11.977l.276.003a12.165 12.165 0 0 1 8.58 3.78 12.168 12.168 0 0 1 3.394 8.739l-1.244 55.697a12.17 12.17 0 0 1-3.78 8.58 12.168 12.168 0 0 1-8.459 3.396" fill="#C9E8F4"></path><path d="M182.989 430.654s90.376 19.726 125.876-9.774c0 0-13-57.5 8.5-106s17-55.5 17-55.5-41.333-28.833-125.833-21.833c-.167 0-25.333 4.333-37 29.833-11.667 25.5-15.333 38.5-15.333 38.5s27 13.667 39 14.834c0 0-12.087 79.38-12.21 109.94" fill="#F97000"></path><path d="M226.131 350.418c-11.309-11.601-16.441-36.148-20.691-50.871-.5 5.777-10.242 21.167-10.242 21.167s-2.987 19.616-6.005 43.098l.452 4.979s47.795-6.771 36.486-18.373m81.344 62.762c-1.182-7.636-2.658-20.357-2.49-35.444-8.18 1.246-86.405 13.229-119.844 20.904-1.255 12.499-2.12 23.955-2.152 32.015 0 0 7.64 1.666 19.341 3.305 20.661-7.987 60.936-21.093 105.145-20.78" fill="#DD5900"></path><path d="M303.865 283.214l30.5-23.834s14.868 19.559 24.834 44.667c0 0-18.404 4.028-35.571 23.522 0 0-13.429-20.689-13.929-21.355-.5-.667-5.834-23-5.834-23" fill="#F97000"></path><path d="M236.097 236.461c-1.949.208 2.629 30.671 35.018 31.169 17.486.269 28.311-10.751 34.585-20.991-16.224-5.183-39.385-10.008-69.603-10.178" fill="#FDBDB4"></path><path fill="#FDBDB4" d="M246.986 201.279v41.018l41.379 5.583 3.549-38.646z"></path><path d="M246.986 224.58c14.629 18.189 40.954 0 40.954 0s-12.5-7.311-11.5-8.311c.375-.375-1.325-4.901-3.598-10.412l-25.856-4.578v23.301z" fill="#F47F73"></path><path d="M309.727 160.137l-31.737-9.041-27.375 6.375-2.416 25.875s-1.213 10.826-1.213 16.726c0 5.899-.734 6.603 3.527 14.661 3.397 6.424 18.937 11.468 30.677 11.287 23.488-.364 32.064-25.216 28.537-65.883" fill="#FDBDB4"></path><path d="M235.24 187.346c-2.5-2.125-4.912-5.132-4.912-5.132s-5.963-7.368-5.088-24.743 14.375-26.125 25.875-29.125 25.25-5.625 32.5-12.375 23.75-10 30.875 15.625-3.625 30.375-13.875 30.5-25.25-6.5-34.5-3.875-12.25 11.75-11.5 18.125-3.101 8.105-5.5 6.458l-2.398-1.647-6.518 3.481-4.959 2.708z" fill="#F97000"></path><path d="M248.699 182.283s-3.411-5.767-7.209-7.437c-2.456-1.082-13.375-.5-10.062 10.75 3.312 11.25 15.558 16.041 15.558 16.041l7.379-8.104-5.666-11.25z" fill="#FDBDB4"></path><path d="M666.507 463.996c15.906 18.07 30.173 39.379 48.266 57.69 38.208 38.669 144.667 54 170-42 25.334-96 79.927-119.699 79.927-119.699 79.99-48.012 134.73-10.958 150.34 2.276-8.71-49.975-30.65-95.056-73.06-142.246-80.163 78.311-187.195 143.603-326.572 165.191-78.737 12.194-167.605 3.376-267.968-17.856-264.272-55.905-384.66 56.505-430.65 121.92 10.06 26.634 24.496 54.402 42.915 78.974 85.973-141.823 216.402-169.227 216.402-169.227 93.833-18.167 82 84 152.666 98 70.667 14 108-78 167.334-72 31.395 3.175 52.524 18.669 70.4 38.977" fill="#FD8"></path><path d="M125.489 394.575c2.411.338 4.939.124 7.304.804 4.321 1.241 6.791 4.955 10.327 7.47 4.588 3.262 10.003 5.4 15.573 6.193 12.234 1.743 24.593-1.978 35.977-6.785 11.383-4.809 22.364-10.776 34.319-13.906 15.123-3.959 31.027-3.184 46.643-2.45 11.135.524 22.677.947 33.009-3.24 10.332-4.188 19.129-14.337 18.041-25.433a19.828 19.828 0 0 0-1.106-4.825c-85.816-2.055-151.093 16.398-200.087 42.172m352.496-21.093c5.072 11.475 15.709 20.41 27.538 25.107 14.336 5.695 30.225 6.037 45.61 4.939 10.755-.768 22.043-2.116 31.924 2.197 5.586 2.44 10.305 6.54 15.824 9.125 10.346 4.845 22.425 3.917 33.656 1.821 6.252-1.167 12.673-2.667 18.895-1.354 4.183.882 8.151 2.914 12.425 2.967 7.333.091 12.185-1.747 15.75-4.182 7.547-5.154 12.373-12.48 16.083-20.833.806-1.813 1.328-3.72 1.615-5.66-65.949 7.439-138.802 1.145-219.32-14.127m269.767 5.817c13.062 7.937 33.232 18.481 54.214 14.057 9.851-2.078 18.055-9.244 23.134-17.937 3.792-6.49 6.128-13.669 8.071-20.959-26.917 10.117-55.369 18.511-85.419 24.839" fill="#FD8"></path><path d="M442.715 385.502c105.555 22.33 196.404 21.053 279.275 8.63 143.891-21.569 259.247-69.448 342.85-146.234-6.86-9.248-14.45-18.522-22.86-27.88-80.163 78.31-187.195 143.602-326.572 165.189-78.737 12.195-167.605 3.377-267.968-17.854-264.272-55.906-384.66 56.504-430.65 121.92 6.559 17.362 14.989 35.202 25.156 52.328 55.817-80.217 161.916-206.626 400.769-156.099m671.785-23.689c.19.151.37.304.54.449-.01-.081-.03-.161-.05-.242-.16-.069-.32-.139-.49-.207" fill="#FFF"></path><path d="M387.9 447.948c6.996 13.618 19.489 24.311 34.024 29.119 22.48 7.438 47.851.541 67.207-13.098 8.425-5.934 16.688-15 14.916-25.151-1.49-8.541-9.495-14.205-17.051-18.457a229.11 229.11 0 0 0-63.004-24.045c-7.391-1.626-15.017-2.889-22.503-1.789-26.407 3.88-23.04 35.023-13.589 53.421" fill="#FFB948"></path><path d="M818.94 313.019l-13 1-8.333 15.5-43.167-98.5-15.1 7.55s29.665 105.415 32.35 114.075c3.875 12.5 19.875 34.75 40.25 11.875 14.765-16.576 19.75-22.5 19.75-22.5l-12.75-29z" fill="#FDBDB4"></path><path d="M753.153 252.933c-.195-1.743-.102-3.992-.658-5.648-.531-1.58-2.372-2.963-3.488-4.177a9817.94 9817.94 0 0 0-4.364-4.751c-.542-.591-1.23-1.213-1.958-1.461l-2.326 1.163c-.11.212-.211.429-.301.644-.137.327-.268.657-.403.985a57814.43 57814.43 0 0 0 14.462 51.285c.162-1.98.318-3.961.374-5.932a230.452 230.452 0 0 0-1.338-32.108" fill="#F47F73"></path><path d="M591.94 376.686s11.167-5.167 23.5 3.166c16.162 10.921 15 20.167 11.5 23.5-3.5 3.334-17.633 3.167-24.983-2.166-7.35-5.334-12.853-6.597-12.853-6.597-2.664-3.153-2.185-14.188 2.836-17.903" fill="#FDBDB4"></path><path d="M601.44 380.019c-4.137-4.708-32.333-9.333-65.667-19.535-1.609 9.276-2.901 16.654-5.333 25.688 26.902 4.393 61.539 8.597 61.539 8.597s19.195-3.669 9.461-14.75" fill="#FDBDB4"></path><path d="M590.407 390.844l-54.942-8.874-2.828-4.846a188.969 188.969 0 0 1-2.197 9.049c22.168 3.62 49.571 7.109 58.533 8.226.045.06.084.135.131.191 0 0 5.503 1.263 12.854 6.597 7.349 5.333 21.482 5.5 24.982 2.166-10.833 1.334-36.533-12.509-36.533-12.509" fill="#F47F73"></path><path d="M542.273 360.484c-7.184-1.233-15.21-2.958-15.21-2.958-.123-1.257 25.627-61.257 26.627-62.757s5.922-27.432 5.922-27.432l-4.172-10.568s-20.833-1.917-29 21.5c-8.933 25.613-19.305 42.341-24.305 53.841s-24.195 41.159-.695 47.909c7.427 2.133 19.83 4.555 30.978 6.474 4.431-6.031 8.689-13.474 9.855-26.009" fill="#326CE5"></path><path d="M535.122 315.103l-19.932 40.044 11.873 2.379c-.054-.556 4.957-12.613 10.648-26.014-1.677-4.641-2.77-10.123-2.589-16.409" fill="#1A53C4"></path><path d="M636.311 256.541c.879-.021 23.379-3.521 26.629 10.354s21.25 90.631 21.25 90.631 10.445 42.788-19.805 46.121l-28.074-147.106z" fill="#326CE5"></path><path d="M664.385 403.647c22.328-2.46 23-26.396 21.036-38.785-2.748 6.546-6.983 13.139-6.983 13.139l-.665 6.518-3.017 1.974s-4.995 5.904-9.721 11.506l-.65 5.648z" fill="#1A53C4"></path><path d="M638.44 254.686c2-.334 11-1.667 11-1.667s31.75 120.583 29.25 131.667c-2.5 11.083-9.778 19-14.917 19-5.138 0-17-6.167-20.666-28.584-3.667-22.416-4.667-120.416-4.667-120.416" fill="#FDBDB4"></path><path fill="#77BC1F" d="M834.306 408.484h-.001v.001z"></path><path d="M250.49 349.505l4.96 6.688s6.863 7.722 17.853 9.291c6.389.914 20.687-.979 22.812-6.229s-3.971-13.502-13.75-20.333c-6.672-4.661-16.285-5.68-28.25.708l-3.625 9.875z" fill="#FDBDB4"></path><path d="M254.115 339.63s-42.75-3-69 .75c0 0-20.5 24.899-21.25 25.325-.75.425-18.859-18.554-18.859-18.554l-.002-.002c-1.74 11.82-1.836 23.74 2.14 32.051 10.971 22.93 114.471-25.82 114.471-25.82l-7.5-13.75z" fill="#FDBDB4"></path><path d="M617.649 212.202a16.475 16.475 0 0 0-.336-.15c-.04.242-.032.506-.123.717-3.75 8.75-12.585 15.747-32.02 18.61v.006c.002.001 12.463 8.25 33.616-2.558l.002-.001c-.537-5.265-.959-10.905-1.139-16.624" fill="#F47F73"></path><path d="M872.139 190.669s-5.998-6.16-2.723-21.913c1.17-6.707 4.133-19.107 4.133-19.107s4.41-20.017 26.558-26.1c22.147-6.083 54.225.012 60.76 23.471 11.906 42.75-26.41 68.682-26.41 68.682l2.583-16.569s12.504-2.046 11.393-14.379c-1.111-12.333-14.505 1.002-15.323 3.342 0 0-23.87-14.872-32.578-36.964 0 0-15.384 9.566-22.607 13.79-3.374 8.846-5.624 17.485-5.786 25.747" fill="#326CE5"></path><path d="M255.727 352.247c-5.916.896-68.62 20.439-88.306 23.819-18.586 3.193-23.077-10.969-23.52-12.562.181 5.875 1.137 11.294 3.243 15.696 9.35 19.54 85.879-12.968 108.306-23.007 0 0 6.863 7.722 17.852 9.291 6.39.913 20.689-.979 22.814-6.229-23.493 8.069-40.389-7.008-40.389-7.008" fill="#F47F73"></path><path d="M316.731 147.721c-2.549 6.839-13.805 11.376-27.458 6.465-11.563-4.16-21-2.5-28 1.333s-6.368 15.167-6.368 15.167c1.082-5.222 4.49-10.559 11.211-12.466 9.25-2.625 24.25 4 34.5 3.875 7.563-.093 15.39-2.715 16.115-14.374" fill="#DD5900"></path><path d="M402.205 346.512c.281-.574.56-1.155.837-1.739a22.697 22.697 0 0 0-.837 1.739" fill="#F47F73"></path><path d="M550.44 350.019v10.465c42.75 7.715 65-4.877 65-4.877-38.25 4.877-65-5.588-65-5.588" fill="#1A53C4"></path><path d="M805.94 314.019s17.917 11 25.75 28l16.275-18.675-5.775-23.325-24.93-8.925a181.812 181.812 0 0 0-11.32 22.925" fill="#F97000"></path><path d="M963.049 159.861c-.809 2.432-5.984 17.356-14.745 28.778-1.5 8.889-11.264 10.493-11.264 10.493l-2.583 16.57s30.718-20.797 28.592-55.841" fill="#00478E"></path><path d="M831.69 342.019l11.992-13.76c0-.001-1.492-12.74-1.492-20.49 0 0-5.868 13.806-12.991 29.558a48.55 48.55 0 0 1 2.491 4.692" fill="#DD5900"></path><path d="M663.773 403.686c5.139 0 12.417-7.917 14.917-19 .258-1.144.146-3.466-.252-6.685-1.837 3.755-3.94 10.07-6.365 13.406-3.438 4.729-11.571 6.8-17.633 2.059-3.285-2.568-9.93-12.654-10.281-13.232 4.5 18.234 14.893 23.452 19.614 23.452" fill="#F47F73"></path><path d="M535.464 381.97a5977.48 5977.48 0 0 1-26.524-5.45c-15.938-3.321-17.743-18.865-17.756-18.987-2.59 9.812-1.621 19.076 10.256 22.487 7.426 2.133 19.83 4.554 30.977 6.473a61.919 61.919 0 0 0 3.047-4.523" fill="#1A53C4"></path><path d="M322.565 299.547c-.25-.848-5.993 17.166-5.993 17.166a10728.67 10728.67 0 0 1 7.055 10.856 87.8 87.8 0 0 1 7.459-7.505c0-.002.007-.012.007-.012s-8.278-19.657-8.528-20.505" fill="#DD5900"></path><path d="M797.315 366.485c-10.5 3.591-23.687-8.953-23.687-8.953l-.002-.001c5.89 12.351 20.413 27.086 38.314 6.988 14.765-16.576 19.75-22.5 19.75-22.5l-2.235-5.084c-.085.127-.17.253-.256.392-7.866 12.682-21.384 25.567-31.884 29.158" fill="#F47F73"></path><path d="M282.875 659.799a1.5 1.5 0 0 1-1.492-1.369c-2.186-24.915-5.312-107.15-5.748-133.648a1.5 1.5 0 0 1 1.533-2.577c.889.494 1.449 1.395 1.464 2.352.424 26.269 3.554 108.692 5.739 133.611a1.5 1.5 0 0 1-1.496 1.631z" fill="#00478E"></path><path d="M277.568 678.561c-2.307 4.56-14.464 12.294-1.407 26.958 12.279 13.791 25.411 26.982 34.824 30.064 4.09 1.34 8.502-1.027 9.52-5.209 2.281-9.37-3.046-23.14-14.815-42.522-11.491 8.167-25.842-1.039-28.122-9.291m39.41-9.075c-1.501 4.885-10.58 12.995 2.962 23.366 11.907 9.119 34.135 23.985 43.97 26.316 2.761.653 5.546-.999 6.275-3.742 2.343-8.798-6.285-24.275-24.495-42.157-13.714 5.173-25.066 3.963-28.712-3.783" fill="#326CE5"></path><path d="M946.004 179.878c6.071-7.694 11.788-19.185 13.758-36.039a29.117 29.117 0 0 0-4.406-7.445c-1.377 5.967-6.677 23.213-23.083 30.459-7.217 3.187-12.777 5.156-16.947 6.375 8.904 9.328 17.783 14.868 17.783 14.868.629-1.8 8.698-10.096 12.895-8.218" fill="#1A53C4"></path><path d="M946.053 665.931c-6.977-21.967-28.775-84.891-65.422-140.405l-2.504 1.652c37.696 57.103 59.598 122.111 65.719 141.73.77-.96 1.508-1.953 2.207-2.977" fill="#00478E"></path><path d="M1012.94 331.45c-122 9.208-128.167 148.236-169.258 190.236-16.992 17.368-44.754 24.489-68.242 22.333-39.667-3.639-60.667-22.333-60.667-22.333 38.208 38.669 144.667 54 170-42 25.334-96 79.928-119.699 79.928-119.699 42.669-25.615 78.159-27.015 104.349-20.739-15.66-8.912-35.55-9.35-56.11-7.798" fill="#FFB948"></path><path d="M1114.02 361.409c.35.293.7.58 1.02.854-.4-2.311-.72-2.066-1.02-.854" fill="#72BFCC"></path><path d="M271.66 687.011c-2.23 4.495-2.669 10.455 4.501 18.509 12.279 13.79 25.411 26.981 34.824 30.063a7.47 7.47 0 0 0 6.996-1.26c-32.828-18.496-43.115-37.622-46.321-47.312m97.985 29.669c-31.238-13.833-49.459-29.407-56.955-36.74-.452 3.749.948 8.085 7.25 12.912 11.907 9.12 34.135 23.985 43.97 26.315a5.23 5.23 0 0 0 5.735-2.487" fill="#1A53C4"></path><path d="M745.119 231.659s2.729-6.86 2.127-38.398c-.684-35.8-26.768-83.884-17.623-121.842 9.144-37.959 44.458-60.573 72.441-52.119 27.983 8.453 52.116 41.366 36.223 81.363-15.894 39.998-52.331 61.406-71.572 100.963-8.694 17.872-11.381 32.87-11.381 32.87s-1.253 10.689-5.034 19.449c-1.397 3.235-4.028 2.982-6.345 2.317-5.566-1.597 1.164-24.603 1.164-24.603" fill="#326CE5"></path><path d="M737.492 143.523c4.737 17.634 9.468 34.762 9.754 49.737.602 31.538-3.81 44.15-4.797 50.101-.986 5.951-1.766 12.658.857 13.886 8.297 3.881 9.979-7.862 10.876-11.365 3.155-12.301 6.362-28.616 17.677-46.848 15.642-25.203 28.919-42.36 45.807-63.87-15.29 8.044-32.643 12.2-49.915 11.554-10.13-.38-20.177-2.307-30.259-3.195" fill="#1A53C4"></path><path d="M830.409 90.914c-5.204 24.823-30.041 43.086-54.864 37.882-24.824-5.205-40.233-31.905-35.029-56.729 5.205-24.823 28.769-46.758 55.548-41.143 29.334 6.149 39.55 35.167 34.345 59.99" fill="#FFF"></path><path d="M761.411 228.178c-2.919 12.091-4.799 22.009-17.922 18.841-13.123-3.168-10.271-12.852-7.352-24.943 2.919-12.089 7.31-21.402 17.921-18.839 10.613 2.561 10.271 12.851 7.353 24.941" fill="#FDBDB4"></path><path d="M626.805 244.246s1.646-7.197-3.779-38.271c-6.159-35.273-39.3-78.794-36.077-117.706 3.223-38.912 34.657-66.668 63.604-62.599 28.947 4.068 57.836 32.896 48.257 74.856-9.579 41.959-42.309 68.697-55.264 110.734-5.853 18.992-6.213 34.225-6.213 34.225s.4 10.755-1.995 19.99c-.885 3.411-3.523 3.564-5.915 3.262-5.746-.725-2.618-24.491-2.618-24.491" fill="#326CE5"></path><path d="M605.769 158.318c7.383 16.7 14.681 32.901 17.257 47.656 5.426 31.074 2.997 44.213 2.933 50.245-.063 6.033.195 12.779 2.974 13.59 8.794 2.566 8.656-9.297 9.007-12.896 1.232-12.64 1.904-29.252 10.293-49.003 11.597-27.302 22.09-46.289 35.483-70.132-13.878 10.29-30.387 17.056-47.555 19.062-10.069 1.177-20.292.811-30.392 1.478" fill="#1A53C4"></path><path d="M689.533 92.098c-1.342 25.327-23.088 47.179-48.415 45.837-25.328-1.341-44.646-25.366-43.305-50.693 1.342-25.328 21.269-50.614 48.592-49.166 29.93 1.584 44.469 28.694 43.128 54.022" fill="#FFF"></path><path d="M638.797 258.638s-11.089-3.376-14.527-16.97c-4.506-17.813 2.112-23.582 6.663-23.728 4.551-.147 13.379 8.491 16.196 17.196 2.634 8.14 2.879 20.055 2.879 20.055-.107 3.886-5.353 3.986-11.211 3.447" fill="#FDBDB4"></path><path d="M413.31 267.835s1.264-7.274-5.797-38.018c-8.015-34.897-43.41-76.606-42.249-115.633 1.161-39.028 31.083-68.407 60.205-65.874 29.121 2.531 59.494 29.792 52.147 72.199-7.348 42.408-38.618 70.838-49.332 113.501-4.841 19.275-4.394 34.506-4.394 34.506s.967 10.718-.936 20.068c-.703 3.452-3.33 3.744-5.734 3.569-5.776-.421-3.91-24.318-3.91-24.318" fill="#326CE5"></path><path d="M387.76 183.139c8.256 16.287 16.4 32.079 19.753 46.678 7.06 30.743 5.33 43.992 5.586 50.018.255 6.028.869 12.751 3.688 13.414 8.917 2.097 8.153-9.741 8.313-13.353.562-12.688.353-29.313 7.687-49.48 10.137-27.876 19.612-47.391 31.726-71.91-13.315 11.01-29.444 18.64-46.482 21.551-9.992 1.708-20.22 1.883-30.271 3.082" fill="#1A53C4"></path><path d="M467.906 112.584c0 25.362-20.561 48.333-45.924 48.333-25.362 0-45.924-22.971-45.924-48.333 0-25.363 18.563-51.667 45.924-51.667 29.972 0 45.924 26.304 45.924 51.667" fill="#FFF"></path><path d="M418.607 227.311c-1.469 2.173-13.125 18.75-3.125 26.583 10 7.833 12.333 11 12.333 11s7-9 10.333-24.167c3.334-15.166 1.182-14-4.891-17.669-4.442-2.684-9.846-2.856-14.65 4.253" fill="#FDBDB4"></path></g><g transform="translate(787.000000, 63.000000)" fill-rule="nonzero"><path d="M38.16.142a5.136 5.136 0 0 0-1.975.524L9.437 13.424a5.067 5.067 0 0 0-2.76 3.437L.13 45.495A4.948 4.948 0 0 0 .85 49.4c.09.14.187.274.288.403l18.48 22.978a5.109 5.109 0 0 0 3.988 1.881h29.64c1.55.003 3.02-.72 3.994-1.903l18.47-22.982a4.935 4.935 0 0 0 .96-4.287l-6.59-28.658a5.08 5.08 0 0 0-2.76-3.437L40.615.668a5.136 5.136 0 0 0-2.479-.526h.024z" fill="#326CE5"></path><path d="M38.405 9.9a1.692 1.692 0 0 0-1.572 1.777v.451c.043.511.12 1.018.22 1.52.148.96.2 1.932.159 2.903a1.75 1.75 0 0 1-.523.828l-.036.677c-.972.082-1.937.23-2.887.446a20.554 20.554 0 0 0-10.45 5.964l-.576-.408c-.317.096-.658.06-.948-.096a14.928 14.928 0 0 1-2.153-1.944 13.32 13.32 0 0 0-1.049-1.116l-.355-.283a1.918 1.918 0 0 0-1.111-.42 1.536 1.536 0 0 0-1.274.567 1.693 1.693 0 0 0 .393 2.359l.331.264c.427.283.87.542 1.325.775.85.473 1.651 1.027 2.395 1.68.19.271.301.59.32.922l.523.48a20.685 20.685 0 0 0-3.26 14.414l-.671.192a2.195 2.195 0 0 1-.687.691 14.94 14.94 0 0 1-2.865.473c-.514.01-1.027.05-1.536.12l-.425.096h-.048a1.608 1.608 0 0 0-.929 2.717 1.608 1.608 0 0 0 1.642.396h.03l.433-.048c.487-.144.967-.322 1.435-.523.9-.36 1.834-.636 2.789-.816.331.019.648.132.917.324l.72-.12a20.791 20.791 0 0 0 9.216 11.527l-.293.612c.134.28.185.593.144.902a15.533 15.533 0 0 1-1.447 2.621c-.311.41-.598.837-.86 1.28l-.204.431a1.608 1.608 0 0 0 1.56 2.403 1.608 1.608 0 0 0 1.328-1.037l.199-.408c.182-.48.336-.97.46-1.464.425-1.049.656-2.175 1.237-2.87.19-.179.429-.296.686-.337l.36-.655a20.688 20.688 0 0 0 14.75.036l.32.612c.326.048.619.228.816.492.45.86.816 1.76 1.094 2.688.127.498.282.987.466 1.467l.199.408a1.608 1.608 0 0 0 2.849.314c.328-.509.343-1.16.038-1.682l-.209-.432a13.32 13.32 0 0 0-.859-1.275 16.988 16.988 0 0 1-1.44-2.537 1.248 1.248 0 0 1 .163-.96 5.496 5.496 0 0 1-.266-.645 20.82 20.82 0 0 0 9.175-11.568l.682.12a1.27 1.27 0 0 1 .895-.331c.953.182 1.886.48 2.789.816.468.216.948.398 1.435.552.115.03.283.057.413.088h.03a1.608 1.608 0 0 0 2.02-2.042 1.608 1.608 0 0 0-1.306-1.07l-.466-.11a13.17 13.17 0 0 0-1.536-.12 14.64 14.64 0 0 1-2.866-.474c-.288-.16-.528-.4-.69-.69l-.649-.193a20.76 20.76 0 0 0-3.326-14.383l.566-.523a1.264 1.264 0 0 1 .298-.907 15.074 15.074 0 0 1 2.376-1.67c.456-.234.898-.492 1.325-.776l.35-.283a1.608 1.608 0 1 0-1.99-2.499l-.355.284c-.37.351-.72.724-1.049 1.116a14.97 14.97 0 0 1-2.095 1.975 1.776 1.776 0 0 1-.97.105l-.607.432a20.967 20.967 0 0 0-13.284-6.408c0-.24-.03-.6-.036-.712a1.26 1.26 0 0 1-.523-.797c-.033-.97.028-1.94.183-2.897a13.44 13.44 0 0 0 .22-1.52v-.48a1.69 1.69 0 0 0-1.572-1.775l-.021-.012zm-2.002 12.4l-.48 8.382h-.036c-.024.519-.329.96-.797 1.21s-1.022.175-1.44-.13l-6.876-4.872a16.464 16.464 0 0 1 7.928-4.317c.561-.12 1.128-.211 1.696-.274h.005zm4.003 0a16.618 16.618 0 0 1 9.576 4.617l-6.81 4.84a1.41 1.41 0 0 1-2.29-1.084l-.476-8.374zm-16.128 7.744l6.288 5.611v.036a1.412 1.412 0 0 1-.554 2.422v.024l-8.069 2.32c-.4-3.635.423-7.3 2.338-10.415l-.003.002zm28.208 0a16.757 16.757 0 0 1 2.404 10.385L46.81 38.1v-.031a1.396 1.396 0 0 1-1.001-1.044 1.42 1.42 0 0 1 .446-1.378l6.24-5.585-.01-.019zm-15.37 6.048h2.573l1.572 1.997-.571 2.496-2.312 1.111-2.316-1.111-.544-2.496 1.598-1.997zm8.242 6.811c.108-.012.24-.012.324 0l8.32 1.404c-1.2 3.456-3.568 6.408-6.66 8.383l-3.216-7.785a1.416 1.416 0 0 1 1.222-1.966l.01-.036zm-13.976.036c.47.007.905.25 1.162.643.257.394.298.888.113 1.32v.032l-3.197 7.723a16.514 16.514 0 0 1-6.62-8.297l8.25-1.4c.09-.009.184-.009.278 0l.014-.02zm6.97 3.36a1.416 1.416 0 0 1 1.289.74h.031l4.066 7.336-1.625.48c-2.99.684-6.113.523-9.02-.465l4.08-7.337a1.416 1.416 0 0 1 1.2-.708l-.021-.046z" stroke="#FFF" stroke-width=".6" fill="#FFF"></path></g><path d="M470 129h8.4v-7.6H470v7.6zm-10 0h8.4v-7.6H460v7.6zm-9.8 0h8.4v-7.6h-8.4v7.6zm-9.8 0h8.2v-7.6h-8.2v7.6zm-10 0h8.4v-7.6h-8.4v7.6zm10-9.2h8.2v-7.6h-8.2v7.6zm9.8 0h8.4v-7.6h-8.4v7.6zm9.8 0h8.4v-7.6H460v7.6zm0-9.2h8.4V103H460v7.6zm45.2 15s-3.6-3.4-11-2.2c-.8-5.8-7-9.2-7-9.2s-5.8 7-1.6 14.8c-1.2.6-3.2 1.4-6.2 1.4h-55c-1 3.8-1 29 26.6 29 19.8 0 34.6-9.2 41.6-26 10.4.8 12.6-7.8 12.6-7.8z" fill="#066DA5" fill-rule="nonzero"></path><g transform="translate(919.000000, 538.000000)" fill-rule="nonzero"><path fill="#F7DF1E" d="M0 0h241v241H0z"></path><path d="M64 201.38l18.23-11.115c3.517 6.283 6.716 11.598 14.39 11.598 7.356 0 11.994-2.9 11.994-14.176V111H131v77.006C131 211.366 117.409 222 97.58 222c-17.908 0-28.303-9.344-33.58-20.621m80-1.563l18.258-10.7c4.806 7.945 11.052 13.781 22.103 13.781 9.291 0 15.216-4.702 15.216-11.187 0-7.782-6.086-10.538-16.337-15.076l-5.605-2.434c-16.177-6.97-26.91-15.724-26.91-34.206 0-17.023 12.814-29.994 32.836-29.994 14.255 0 24.505 5.026 31.872 18.159l-17.458 11.348c-3.845-6.97-8.008-9.727-14.414-9.727-6.567 0-10.732 4.215-10.732 9.727 0 6.81 4.165 9.566 13.774 13.781l5.605 2.432c19.06 8.268 29.792 16.698 29.792 35.666C222 211.814 206.144 223 184.842 223c-20.822 0-34.276-10.05-40.842-23.184" fill="#000"></path></g><path d="M682.312 76.854c1.6-.906 3.64-.91 5.2 0L711.4 90.32c1.494.84 2.494 2.506 2.48 4.228v27c.01 1.794-1.088 3.496-2.664 4.32l-23.76 13.404a5.2 5.2 0 0 1-5.278-.146l-7.13-4.12c-.486-.29-1.032-.52-1.376-.99.304-.408.844-.46 1.284-.64.992-.316 1.9-.8 2.812-1.312.23-.16.512-.1.732.044l6.08 3.516c.434.25.874-.08 1.246-.29l23.33-13.166a.772.772 0 0 0 .424-.76v-26.74a.834.834 0 0 0-.5-.834l-23.7-13.346a.82.82 0 0 0-.93-.002L660.784 93.86c-.32.146-.54.47-.5.83v26.74a.75.75 0 0 0 .43.75l6.324 3.57c1.188.64 2.646 1 3.954.53a3 3 0 0 0 1.942-2.818l.006-26.58c-.028-.394.344-.72.726-.68h3.04c.4-.01.714.414.66.81l-.006 26.748c.002 2.376-.974 4.96-3.172 6.126-2.708 1.4-6.056 1.106-8.732-.24l-6.8-3.76c-1.6-.8-2.674-2.528-2.664-4.32v-27a4.92 4.92 0 0 1 2.564-4.282l23.756-13.43zM689.2 95.57c3.454-.2 7.152-.132 10.26 1.57 2.406 1.304 3.74 4.04 3.784 6.716-.068.36-.444.56-.788.534-1-.002-2.004.014-3.008-.006-.426.016-.672-.376-.726-.752-.288-1.28-.986-2.546-2.19-3.164-1.848-.926-3.992-.88-6.008-.86-1.472.08-3.054.206-4.3 1.07-.96.656-1.248 2-.906 3.044.32.766 1.206 1.012 1.928 1.24 4.164 1.088 8.574 1 12.66 2.414 1.69.584 3.344 1.72 3.924 3.49.756 2.372.426 5.208-1.26 7.112-1.368 1.568-3.36 2.4-5.35 2.884-2.646.59-5.39.604-8.076.34-2.526-.288-5.154-.952-7.104-2.672-1.668-1.448-2.48-3.704-2.4-5.88.02-.368.386-.624.74-.594h3c.404-.028.7.32.72.7.186 1.2.644 2.5 1.708 3.2 2.052 1.324 4.626 1.232 6.974 1.27 1.946-.086 4.13-.112 5.72-1.4.84-.734 1.086-1.96.86-3.016-.246-.892-1.2-1.306-2-1.6-4.11-1.3-8.57-.828-12.64-2.3-1.652-.584-3.25-1.688-3.884-3.386-.886-2.4-.48-5.374 1.386-7.214 1.8-1.83 4.44-2.536 6.94-2.788l.036.048z" fill="#8CC84B" fill-rule="nonzero"></path></g></svg>