<?xml version="1.0" encoding="UTF-8" standalone="no"?>
<!DOCTYPE svg PUBLIC "-//W3C//DTD SVG 1.1//EN" "http://www.w3.org/Graphics/SVG/1.1/DTD/svg11.dtd">
<svg width="100%" height="100%" viewBox="0 0 741 531" version="1.1" xmlns="http://www.w3.org/2000/svg" xmlns:xlink="http://www.w3.org/1999/xlink" xml:space="preserve" xmlns:serif="http://www.serif.com/" style="fill-rule:evenodd;clip-rule:evenodd;">
    <g>
        <g transform="matrix(1,0,0,1,27,40)">
            <path d="M292.994,365.655L292.994,353.87L0,353.87L0,365.655L146.497,450.235L292.994,365.655Z" style="fill:rgb(0,95,173);"/>
            <path d="M292.994,353.87L146.497,269.29L0,353.87L146.497,438.45L292.994,353.87Z" style="fill:rgb(0,113,206);"/>
            <path d="M66.692,376.24L101.11,396.112L107.665,392.328L93.444,384.118L105.926,376.911L100.045,373.515L87.563,380.722L79.609,376.13L94.012,367.815L87.649,364.141L66.692,376.24ZM113.572,367.153L103.883,361.559L111.064,357.413C112.567,356.545 114.071,356.113 115.578,356.115C117.085,356.117 118.674,356.6 120.345,357.565C122.08,358.567 122.958,359.508 122.978,360.387C122.997,361.266 122.256,362.139 120.753,363.007L113.572,367.153ZM91.448,361.947L125.867,381.819L132.421,378.035L118.971,370.27L125.526,366.486C127.168,365.538 128.768,365.096 130.328,365.161C131.887,365.225 133.678,365.713 135.7,366.623C137.291,367.345 138.863,368.108 140.414,368.911C142.008,369.735 143.532,370.358 144.987,370.78L151.541,366.996C150.705,366.882 149.883,366.675 149.093,366.378C148.234,366.061 147.39,365.702 146.565,365.304C145.753,364.913 144.949,364.505 144.154,364.08C143.387,363.67 142.716,363.315 142.142,363.015C141.189,362.533 140.216,362.092 139.226,361.693C138.217,361.284 137.174,360.965 136.109,360.737C135.066,360.514 134.002,360.401 132.935,360.399C131.856,360.401 130.783,360.561 129.75,360.874L129.653,360.819C130.552,359.409 130.631,358.065 129.89,356.785C129.149,355.506 127.767,354.282 125.742,353.113C124.393,352.339 122.95,351.741 121.449,351.334C119.894,350.906 118.295,350.662 116.683,350.606C115.071,350.545 113.458,350.682 111.879,351.014C110.309,351.345 108.856,351.897 107.52,352.668L91.448,361.947ZM144.203,351.528C142.693,350.656 141.377,349.727 140.255,348.742C139.133,347.757 138.338,346.759 137.869,345.75C137.401,344.74 137.352,343.748 137.723,342.773C138.094,341.798 139.017,340.885 140.492,340.033C141.95,339.187 143.565,338.643 145.238,338.434C146.952,338.22 148.688,338.249 150.394,338.519C152.143,338.789 153.87,339.248 155.576,339.896C157.243,340.525 158.857,341.288 160.401,342.176C161.848,343.011 163.107,343.907 164.181,344.864C165.255,345.821 166.018,346.8 166.47,347.801C166.923,348.801 166.964,349.789 166.593,350.764C166.222,351.738 165.299,352.652 163.824,353.503C162.365,354.349 160.751,354.893 159.078,355.102C157.372,355.316 155.645,355.292 153.946,355.031C152.209,354.769 150.505,354.326 148.86,353.71C147.25,353.113 145.692,352.383 144.203,351.528ZM137.649,355.312C140.181,356.77 142.87,357.934 145.665,358.783C148.444,359.638 151.31,360.177 154.21,360.39C157.069,360.594 159.868,360.435 162.607,359.911C165.346,359.388 167.856,358.467 170.138,357.149C172.449,355.816 174.05,354.362 174.943,352.789C175.836,351.216 176.106,349.604 175.751,347.953C175.397,346.302 174.469,344.658 172.968,343.019C171.466,341.381 169.462,339.839 166.956,338.392C164.378,336.904 161.64,335.711 158.795,334.837C155.985,333.963 153.087,333.405 150.154,333.174C147.331,332.948 144.491,333.091 141.705,333.599C138.964,334.105 136.439,335.025 134.129,336.359C131.847,337.677 130.26,339.131 129.369,340.721C128.478,342.312 128.226,343.942 128.613,345.611C128.999,347.281 129.959,348.944 131.493,350.6C133.026,352.257 135.078,353.827 137.649,355.312ZM154.069,325.793L188.487,345.665L194.624,342.122L170.473,328.178L170.557,328.13L202.014,337.856L207.065,334.939L189.979,316.638L190.062,316.59L214.454,330.673L220.591,327.13L186.172,307.258L176.946,312.585L194.019,330.058L193.936,330.107L163.295,320.466L154.069,325.793Z" style="fill:rgb(45,83,109);"/>
            <g transform="matrix(0.866026,-0.499999,1.50001,0.288674,-76.0635,-363.078)">
                <g transform="matrix(15.5884,0,-9.00006,15.5885,-1090.17,789.485)">
                    <path d="M0.048,-0.358C0.05,-0.391 0.058,-0.419 0.073,-0.441C0.088,-0.463 0.106,-0.481 0.129,-0.494C0.152,-0.507 0.177,-0.517 0.206,-0.523C0.234,-0.528 0.262,-0.531 0.291,-0.531C0.317,-0.531 0.343,-0.529 0.37,-0.526C0.397,-0.522 0.421,-0.515 0.443,-0.504C0.465,-0.493 0.483,-0.478 0.497,-0.46C0.511,-0.44 0.518,-0.415 0.518,-0.384L0.518,-0.115C0.518,-0.092 0.519,-0.069 0.522,-0.048C0.525,-0.027 0.529,-0.011 0.536,0L0.392,0C0.389,-0.008 0.387,-0.016 0.386,-0.025C0.384,-0.033 0.383,-0.041 0.382,-0.05C0.359,-0.027 0.333,-0.01 0.302,-0.001C0.271,0.008 0.24,0.013 0.208,0.013C0.183,0.013 0.16,0.01 0.139,0.004C0.118,-0.002 0.099,-0.011 0.083,-0.024C0.067,-0.037 0.055,-0.053 0.046,-0.072C0.037,-0.091 0.032,-0.114 0.032,-0.141C0.032,-0.17 0.037,-0.195 0.048,-0.214C0.058,-0.233 0.071,-0.248 0.088,-0.259C0.104,-0.27 0.123,-0.279 0.144,-0.285C0.165,-0.29 0.186,-0.295 0.207,-0.298C0.228,-0.301 0.249,-0.304 0.27,-0.306C0.291,-0.308 0.309,-0.311 0.325,-0.315C0.341,-0.319 0.354,-0.325 0.363,-0.333C0.372,-0.34 0.377,-0.351 0.376,-0.366C0.376,-0.381 0.374,-0.394 0.369,-0.403C0.364,-0.412 0.357,-0.419 0.349,-0.424C0.34,-0.428 0.331,-0.432 0.32,-0.434C0.309,-0.435 0.297,-0.436 0.284,-0.436C0.256,-0.436 0.234,-0.43 0.218,-0.418C0.202,-0.406 0.193,-0.386 0.19,-0.358L0.048,-0.358ZM0.376,-0.253C0.37,-0.248 0.363,-0.243 0.354,-0.241C0.345,-0.238 0.335,-0.235 0.325,-0.233C0.314,-0.231 0.303,-0.229 0.292,-0.228C0.281,-0.227 0.269,-0.225 0.258,-0.223C0.247,-0.221 0.237,-0.218 0.227,-0.215C0.216,-0.212 0.207,-0.207 0.2,-0.202C0.192,-0.196 0.186,-0.189 0.181,-0.18C0.176,-0.171 0.174,-0.16 0.174,-0.147C0.174,-0.134 0.176,-0.124 0.181,-0.115C0.186,-0.106 0.192,-0.099 0.2,-0.095C0.208,-0.09 0.217,-0.086 0.228,-0.084C0.239,-0.082 0.25,-0.081 0.261,-0.081C0.289,-0.081 0.311,-0.086 0.326,-0.095C0.341,-0.104 0.353,-0.116 0.36,-0.129C0.367,-0.141 0.372,-0.155 0.374,-0.168C0.375,-0.181 0.376,-0.192 0.376,-0.2L0.376,-0.253Z" style="fill:rgb(45,83,109);fill-rule:nonzero;"/>
                </g>
                <g transform="matrix(15.5884,0,-9.00006,15.5885,-1081.22,789.485)">
                    <path d="M0.421,-0.26C0.421,-0.239 0.419,-0.218 0.415,-0.198C0.411,-0.178 0.404,-0.16 0.395,-0.145C0.386,-0.129 0.373,-0.116 0.358,-0.107C0.342,-0.098 0.322,-0.093 0.299,-0.093C0.277,-0.093 0.258,-0.098 0.243,-0.108C0.227,-0.117 0.214,-0.13 0.204,-0.146C0.193,-0.161 0.186,-0.179 0.181,-0.199C0.176,-0.219 0.174,-0.239 0.174,-0.259C0.174,-0.28 0.176,-0.301 0.181,-0.321C0.185,-0.34 0.192,-0.358 0.202,-0.373C0.211,-0.388 0.224,-0.401 0.24,-0.41C0.256,-0.419 0.276,-0.424 0.299,-0.424C0.322,-0.424 0.342,-0.419 0.357,-0.41C0.372,-0.401 0.385,-0.389 0.395,-0.374C0.404,-0.359 0.411,-0.341 0.415,-0.322C0.419,-0.302 0.421,-0.281 0.421,-0.26ZM0.423,-0.066L0.423,0L0.558,0L0.558,-0.714L0.416,-0.714L0.416,-0.454L0.414,-0.454C0.398,-0.479 0.376,-0.499 0.349,-0.512C0.321,-0.525 0.292,-0.531 0.261,-0.531C0.223,-0.531 0.19,-0.524 0.161,-0.509C0.132,-0.494 0.109,-0.474 0.09,-0.449C0.07,-0.424 0.056,-0.396 0.047,-0.364C0.037,-0.331 0.032,-0.298 0.032,-0.263C0.032,-0.227 0.037,-0.192 0.047,-0.159C0.056,-0.126 0.07,-0.096 0.09,-0.071C0.109,-0.045 0.133,-0.024 0.162,-0.01C0.191,0.006 0.225,0.013 0.264,0.013C0.298,0.013 0.329,0.007 0.356,-0.006C0.383,-0.018 0.404,-0.038 0.421,-0.066L0.423,-0.066Z" style="fill:rgb(45,83,109);fill-rule:nonzero;"/>
                </g>
                <g transform="matrix(15.5884,0,-9.00006,15.5885,-1071.7,789.485)">
                    <path d="M0.18,-0.258C0.18,-0.279 0.182,-0.299 0.186,-0.319C0.19,-0.339 0.197,-0.357 0.207,-0.372C0.216,-0.387 0.229,-0.4 0.245,-0.41C0.261,-0.419 0.281,-0.424 0.305,-0.424C0.329,-0.424 0.349,-0.419 0.366,-0.41C0.382,-0.4 0.395,-0.387 0.405,-0.372C0.414,-0.357 0.421,-0.339 0.425,-0.319C0.429,-0.299 0.431,-0.279 0.431,-0.258C0.431,-0.237 0.429,-0.217 0.425,-0.198C0.421,-0.178 0.414,-0.16 0.405,-0.145C0.395,-0.129 0.382,-0.116 0.366,-0.107C0.349,-0.098 0.329,-0.093 0.305,-0.093C0.281,-0.093 0.261,-0.098 0.245,-0.107C0.229,-0.116 0.216,-0.129 0.207,-0.145C0.197,-0.16 0.19,-0.178 0.186,-0.198C0.182,-0.217 0.18,-0.237 0.18,-0.258ZM0.038,-0.258C0.038,-0.217 0.044,-0.179 0.057,-0.146C0.07,-0.113 0.088,-0.084 0.111,-0.061C0.134,-0.037 0.162,-0.019 0.195,-0.006C0.228,0.007 0.264,0.013 0.305,0.013C0.346,0.013 0.383,0.007 0.416,-0.006C0.449,-0.019 0.477,-0.037 0.5,-0.061C0.523,-0.084 0.541,-0.113 0.554,-0.146C0.567,-0.179 0.573,-0.217 0.573,-0.258C0.573,-0.299 0.567,-0.337 0.554,-0.371C0.541,-0.404 0.523,-0.433 0.5,-0.457C0.477,-0.48 0.449,-0.499 0.416,-0.512C0.383,-0.525 0.346,-0.531 0.305,-0.531C0.264,-0.531 0.228,-0.525 0.195,-0.512C0.162,-0.499 0.134,-0.48 0.111,-0.457C0.088,-0.433 0.07,-0.404 0.057,-0.371C0.044,-0.337 0.038,-0.299 0.038,-0.258Z" style="fill:rgb(45,83,109);fill-rule:nonzero;"/>
                </g>
                <g transform="matrix(15.5884,0,-9.00006,15.5885,-1062.17,789.485)">
                    <path d="M0.315,-0.093C0.292,-0.093 0.273,-0.098 0.257,-0.107C0.241,-0.116 0.228,-0.129 0.219,-0.144C0.209,-0.159 0.202,-0.176 0.198,-0.196C0.193,-0.216 0.191,-0.236 0.191,-0.257C0.191,-0.278 0.193,-0.299 0.197,-0.319C0.201,-0.339 0.208,-0.357 0.218,-0.372C0.227,-0.387 0.24,-0.4 0.256,-0.41C0.271,-0.419 0.291,-0.424 0.314,-0.424C0.337,-0.424 0.356,-0.419 0.372,-0.41C0.387,-0.4 0.4,-0.387 0.41,-0.372C0.42,-0.356 0.427,-0.338 0.432,-0.318C0.436,-0.298 0.438,-0.278 0.438,-0.257C0.438,-0.236 0.436,-0.216 0.432,-0.196C0.428,-0.176 0.421,-0.159 0.412,-0.144C0.402,-0.129 0.389,-0.116 0.374,-0.107C0.358,-0.098 0.338,-0.093 0.315,-0.093ZM0.054,-0.517L0.054,0.181L0.196,0.181L0.196,-0.064L0.198,-0.064C0.215,-0.039 0.238,-0.02 0.265,-0.007C0.292,0.007 0.321,0.013 0.353,0.013C0.391,0.013 0.424,0.006 0.453,-0.009C0.481,-0.024 0.505,-0.043 0.524,-0.068C0.543,-0.093 0.557,-0.121 0.566,-0.153C0.575,-0.185 0.58,-0.218 0.58,-0.253C0.58,-0.29 0.575,-0.325 0.566,-0.359C0.557,-0.392 0.542,-0.422 0.523,-0.447C0.504,-0.472 0.479,-0.493 0.45,-0.508C0.421,-0.523 0.386,-0.531 0.345,-0.531C0.313,-0.531 0.284,-0.525 0.257,-0.512C0.23,-0.499 0.208,-0.479 0.191,-0.451L0.189,-0.451L0.189,-0.517L0.054,-0.517Z" style="fill:rgb(45,83,109);fill-rule:nonzero;"/>
                </g>
                <g transform="matrix(15.5884,0,-9.00006,15.5885,-1052.65,789.485)">
                    <path d="M0.234,-0.517L0.234,-0.672L0.092,-0.672L0.092,-0.517L0.006,-0.517L0.006,-0.422L0.092,-0.422L0.092,-0.117C0.092,-0.091 0.096,-0.07 0.105,-0.054C0.114,-0.038 0.126,-0.026 0.141,-0.017C0.156,-0.008 0.173,-0.003 0.193,0.001C0.212,0.004 0.233,0.005 0.255,0.005C0.269,0.005 0.283,0.005 0.298,0.004C0.313,0.003 0.326,0.002 0.338,0L0.338,-0.11C0.331,-0.109 0.324,-0.108 0.317,-0.107C0.31,-0.106 0.302,-0.106 0.294,-0.106C0.27,-0.106 0.254,-0.11 0.246,-0.118C0.238,-0.126 0.234,-0.142 0.234,-0.166L0.234,-0.422L0.338,-0.422L0.338,-0.517L0.234,-0.517Z" style="fill:rgb(45,83,109);fill-rule:nonzero;"/>
                </g>
                <g transform="matrix(15.5884,0,-9.00006,15.5885,-1047.16,789.485)">
                    <path d="M0.18,-0.258C0.18,-0.279 0.182,-0.299 0.186,-0.319C0.19,-0.339 0.197,-0.357 0.207,-0.372C0.216,-0.387 0.229,-0.4 0.245,-0.41C0.261,-0.419 0.281,-0.424 0.305,-0.424C0.329,-0.424 0.349,-0.419 0.366,-0.41C0.382,-0.4 0.395,-0.387 0.405,-0.372C0.414,-0.357 0.421,-0.339 0.425,-0.319C0.429,-0.299 0.431,-0.279 0.431,-0.258C0.431,-0.237 0.429,-0.217 0.425,-0.198C0.421,-0.178 0.414,-0.16 0.405,-0.145C0.395,-0.129 0.382,-0.116 0.366,-0.107C0.349,-0.098 0.329,-0.093 0.305,-0.093C0.281,-0.093 0.261,-0.098 0.245,-0.107C0.229,-0.116 0.216,-0.129 0.207,-0.145C0.197,-0.16 0.19,-0.178 0.186,-0.198C0.182,-0.217 0.18,-0.237 0.18,-0.258ZM0.038,-0.258C0.038,-0.217 0.044,-0.179 0.057,-0.146C0.07,-0.113 0.088,-0.084 0.111,-0.061C0.134,-0.037 0.162,-0.019 0.195,-0.006C0.228,0.007 0.264,0.013 0.305,0.013C0.346,0.013 0.383,0.007 0.416,-0.006C0.449,-0.019 0.477,-0.037 0.5,-0.061C0.523,-0.084 0.541,-0.113 0.554,-0.146C0.567,-0.179 0.573,-0.217 0.573,-0.258C0.573,-0.299 0.567,-0.337 0.554,-0.371C0.541,-0.404 0.523,-0.433 0.5,-0.457C0.477,-0.48 0.449,-0.499 0.416,-0.512C0.383,-0.525 0.346,-0.531 0.305,-0.531C0.264,-0.531 0.228,-0.525 0.195,-0.512C0.162,-0.499 0.134,-0.48 0.111,-0.457C0.088,-0.433 0.07,-0.404 0.057,-0.371C0.044,-0.337 0.038,-0.299 0.038,-0.258Z" style="fill:rgb(45,83,109);fill-rule:nonzero;"/>
                </g>
                <g transform="matrix(15.5884,0,-9.00006,15.5885,-1037.64,789.485)">
                    <path d="M0.315,-0.093C0.292,-0.093 0.273,-0.098 0.257,-0.107C0.241,-0.116 0.228,-0.129 0.219,-0.144C0.209,-0.159 0.202,-0.176 0.198,-0.196C0.193,-0.216 0.191,-0.236 0.191,-0.257C0.191,-0.278 0.193,-0.299 0.197,-0.319C0.201,-0.339 0.208,-0.357 0.218,-0.372C0.227,-0.387 0.24,-0.4 0.256,-0.41C0.271,-0.419 0.291,-0.424 0.314,-0.424C0.337,-0.424 0.356,-0.419 0.372,-0.41C0.387,-0.4 0.4,-0.387 0.41,-0.372C0.42,-0.356 0.427,-0.338 0.432,-0.318C0.436,-0.298 0.438,-0.278 0.438,-0.257C0.438,-0.236 0.436,-0.216 0.432,-0.196C0.428,-0.176 0.421,-0.159 0.412,-0.144C0.402,-0.129 0.389,-0.116 0.374,-0.107C0.358,-0.098 0.338,-0.093 0.315,-0.093ZM0.054,-0.517L0.054,0.181L0.196,0.181L0.196,-0.064L0.198,-0.064C0.215,-0.039 0.238,-0.02 0.265,-0.007C0.292,0.007 0.321,0.013 0.353,0.013C0.391,0.013 0.424,0.006 0.453,-0.009C0.481,-0.024 0.505,-0.043 0.524,-0.068C0.543,-0.093 0.557,-0.121 0.566,-0.153C0.575,-0.185 0.58,-0.218 0.58,-0.253C0.58,-0.29 0.575,-0.325 0.566,-0.359C0.557,-0.392 0.542,-0.422 0.523,-0.447C0.504,-0.472 0.479,-0.493 0.45,-0.508C0.421,-0.523 0.386,-0.531 0.345,-0.531C0.313,-0.531 0.284,-0.525 0.257,-0.512C0.23,-0.499 0.208,-0.479 0.191,-0.451L0.189,-0.451L0.189,-0.517L0.054,-0.517Z" style="fill:rgb(45,83,109);fill-rule:nonzero;"/>
                </g>
                <g transform="matrix(15.5884,0,-9.00006,15.5885,-1028.11,789.485)">
                    <path d="M0.402,-0.314L0.171,-0.314C0.172,-0.324 0.174,-0.335 0.178,-0.348C0.181,-0.361 0.188,-0.373 0.197,-0.384C0.206,-0.395 0.218,-0.405 0.233,-0.413C0.248,-0.42 0.266,-0.424 0.289,-0.424C0.324,-0.424 0.349,-0.415 0.367,-0.396C0.384,-0.377 0.395,-0.35 0.402,-0.314ZM0.171,-0.224L0.544,-0.224C0.547,-0.264 0.543,-0.302 0.534,-0.339C0.525,-0.376 0.509,-0.408 0.489,-0.437C0.468,-0.466 0.441,-0.489 0.408,-0.506C0.375,-0.523 0.337,-0.531 0.293,-0.531C0.254,-0.531 0.218,-0.524 0.186,-0.51C0.153,-0.496 0.125,-0.477 0.102,-0.453C0.079,-0.428 0.061,-0.399 0.048,-0.366C0.035,-0.333 0.029,-0.297 0.029,-0.258C0.029,-0.218 0.035,-0.181 0.048,-0.148C0.06,-0.115 0.077,-0.086 0.1,-0.062C0.123,-0.038 0.15,-0.02 0.183,-0.007C0.216,0.007 0.252,0.013 0.293,0.013C0.352,0.013 0.402,0 0.443,-0.027C0.484,-0.054 0.515,-0.098 0.535,-0.16L0.41,-0.16C0.405,-0.144 0.393,-0.129 0.372,-0.115C0.351,-0.1 0.327,-0.093 0.298,-0.093C0.258,-0.093 0.227,-0.103 0.206,-0.124C0.185,-0.145 0.173,-0.178 0.171,-0.224Z" style="fill:rgb(45,83,109);fill-rule:nonzero;"/>
                </g>
                <g transform="matrix(15.5884,0,-9.00006,15.5885,-1019.17,789.485)">
                    <path d="M0.054,-0.517L0.054,0L0.196,0L0.196,-0.271C0.196,-0.324 0.205,-0.362 0.222,-0.385C0.239,-0.407 0.267,-0.419 0.306,-0.419C0.34,-0.419 0.364,-0.409 0.377,-0.388C0.39,-0.367 0.397,-0.335 0.397,-0.292L0.397,0L0.539,0L0.539,-0.318C0.539,-0.35 0.536,-0.379 0.531,-0.406C0.525,-0.432 0.515,-0.454 0.501,-0.473C0.487,-0.491 0.468,-0.505 0.444,-0.516C0.419,-0.526 0.388,-0.531 0.35,-0.531C0.32,-0.531 0.291,-0.524 0.262,-0.511C0.233,-0.497 0.21,-0.475 0.192,-0.445L0.189,-0.445L0.189,-0.517L0.054,-0.517Z" style="fill:rgb(45,83,109);fill-rule:nonzero;"/>
                </g>
                <g transform="matrix(15.5884,0,-9.00006,15.5885,-1009.92,789.485)">
                    <path d="M0.209,-0.597L0.209,-0.714L0.067,-0.714L0.067,-0.597L0.209,-0.597ZM-0.018,0.06L-0.018,0.177C-0.005,0.18 0.01,0.181 0.027,0.181C0.063,0.181 0.093,0.178 0.116,0.172C0.139,0.165 0.158,0.156 0.172,0.143C0.185,0.13 0.195,0.113 0.201,0.094C0.206,0.075 0.209,0.052 0.209,0.025L0.209,-0.517L0.067,-0.517L0.067,0.018C0.067,0.037 0.062,0.05 0.051,0.056C0.04,0.061 0.027,0.064 0.012,0.064C-0.001,0.064 -0.011,0.063 -0.018,0.06Z" style="fill:rgb(45,83,109);fill-rule:nonzero;"/>
                </g>
                <g transform="matrix(15.5884,0,-9.00006,15.5885,-1005.59,789.485)">
                    <path d="M0.421,-0.26C0.421,-0.239 0.419,-0.218 0.415,-0.198C0.411,-0.178 0.404,-0.16 0.395,-0.145C0.386,-0.129 0.373,-0.116 0.358,-0.107C0.342,-0.098 0.322,-0.093 0.299,-0.093C0.277,-0.093 0.258,-0.098 0.243,-0.108C0.227,-0.117 0.214,-0.13 0.204,-0.146C0.193,-0.161 0.186,-0.179 0.181,-0.199C0.176,-0.219 0.174,-0.239 0.174,-0.259C0.174,-0.28 0.176,-0.301 0.181,-0.321C0.185,-0.34 0.192,-0.358 0.202,-0.373C0.211,-0.388 0.224,-0.401 0.24,-0.41C0.256,-0.419 0.276,-0.424 0.299,-0.424C0.322,-0.424 0.342,-0.419 0.357,-0.41C0.372,-0.401 0.385,-0.389 0.395,-0.374C0.404,-0.359 0.411,-0.341 0.415,-0.322C0.419,-0.302 0.421,-0.281 0.421,-0.26ZM0.423,-0.066L0.423,0L0.558,0L0.558,-0.714L0.416,-0.714L0.416,-0.454L0.414,-0.454C0.398,-0.479 0.376,-0.499 0.349,-0.512C0.321,-0.525 0.292,-0.531 0.261,-0.531C0.223,-0.531 0.19,-0.524 0.161,-0.509C0.132,-0.494 0.109,-0.474 0.09,-0.449C0.07,-0.424 0.056,-0.396 0.047,-0.364C0.037,-0.331 0.032,-0.298 0.032,-0.263C0.032,-0.227 0.037,-0.192 0.047,-0.159C0.056,-0.126 0.07,-0.096 0.09,-0.071C0.109,-0.045 0.133,-0.024 0.162,-0.01C0.191,0.006 0.225,0.013 0.264,0.013C0.298,0.013 0.329,0.007 0.356,-0.006C0.383,-0.018 0.404,-0.038 0.421,-0.066L0.423,-0.066Z" style="fill:rgb(45,83,109);fill-rule:nonzero;"/>
                </g>
                <g transform="matrix(15.5884,0,-9.00006,15.5885,-996.064,789.485)">
                    <path d="M0.067,-0.714L0.067,0L0.209,0L0.209,-0.178L0.264,-0.231L0.406,0L0.578,0L0.361,-0.327L0.556,-0.517L0.388,-0.517L0.209,-0.331L0.209,-0.714L0.067,-0.714Z" style="fill:rgb(45,83,109);fill-rule:nonzero;"/>
                </g>
            </g>
            <path d="M293.245,300.547L293.245,288.762L0.251,288.762L0.251,300.547L146.748,385.127L293.245,300.547Z" style="fill:rgb(191,83,79);"/>
            <path d="M292.994,288.762L146.497,204.182L0,288.762L146.497,373.342L292.994,288.762Z" style="fill:rgb(255,109,104);"/>
            <path d="M110.919,308.299L117.265,304.636C115.125,303.614 112.868,302.861 110.543,302.394C108.325,301.944 106.064,301.746 103.802,301.804C101.603,301.868 99.499,302.164 97.492,302.692C95.484,303.221 93.66,303.959 92.018,304.907C89.736,306.224 88.148,307.679 87.258,309.269C86.367,310.86 86.115,312.49 86.501,314.159C86.888,315.828 87.848,317.491 89.381,319.148C90.915,320.805 92.967,322.375 95.538,323.859C98.069,325.317 100.759,326.482 103.554,327.33C106.332,328.186 109.199,328.725 112.098,328.937C114.958,329.142 117.757,328.983 120.496,328.459C123.235,327.935 125.745,327.015 128.027,325.697C129.864,324.636 131.227,323.479 132.115,322.224C133.003,320.969 133.407,319.66 133.326,318.296C133.246,316.932 132.686,315.548 131.647,314.144C130.607,312.741 129.094,311.369 127.108,310.03L120.763,313.693C122.826,315.174 124.001,316.648 124.288,318.115C124.575,319.582 123.716,320.894 121.712,322.051C120.254,322.897 118.64,323.441 116.967,323.65C115.261,323.864 113.534,323.84 111.835,323.579C110.098,323.317 108.394,322.874 106.749,322.257C105.139,321.66 103.581,320.93 102.092,320.075C100.582,319.203 99.266,318.275 98.144,317.289C97.022,316.304 96.227,315.307 95.758,314.297C95.29,313.288 95.241,312.295 95.612,311.32C95.982,310.345 96.906,309.432 98.381,308.581C99.188,308.115 100.113,307.757 101.156,307.507C102.225,307.255 103.318,307.118 104.416,307.1C105.543,307.078 106.67,307.163 107.781,307.356C108.894,307.548 109.94,307.863 110.919,308.299ZM133.027,302.215C131.517,301.343 130.2,300.414 129.079,299.429C127.957,298.444 127.162,297.447 126.693,296.437C126.224,295.427 126.176,294.435 126.547,293.46C126.918,292.485 127.841,291.572 129.316,290.72C130.774,289.874 132.388,289.331 134.061,289.122C135.775,288.908 137.511,288.937 139.217,289.206C140.966,289.477 142.694,289.936 144.4,290.584C146.067,291.213 147.681,291.975 149.225,292.863C150.671,293.698 151.931,294.594 153.005,295.551C154.078,296.509 154.841,297.488 155.294,298.488C155.746,299.488 155.787,300.476 155.416,301.451C155.045,302.426 154.122,303.339 152.647,304.191C151.188,305.036 149.575,305.58 147.902,305.79C146.213,306.004 144.502,305.98 142.77,305.719C141.033,305.457 139.328,305.014 137.683,304.397C136.073,303.8 134.516,303.07 133.027,302.215ZM126.473,305.999C129.004,307.457 131.694,308.622 134.489,309.47C137.267,310.326 140.134,310.865 143.033,311.077C145.893,311.282 148.692,311.122 151.43,310.599C154.169,310.075 156.68,309.154 158.962,307.837C161.272,306.503 162.874,305.05 163.767,303.476C164.66,301.903 164.929,300.291 164.575,298.64C164.22,296.989 163.293,295.345 161.791,293.707C160.29,292.069 158.286,290.526 155.779,289.079C153.201,287.592 150.464,286.4 147.619,285.525C144.81,284.651 141.911,284.093 138.978,283.862C136.155,283.635 133.315,283.778 130.529,284.287C127.788,284.793 125.262,285.713 122.952,287.047C120.67,288.364 119.084,289.818 118.193,291.409C117.302,292.999 117.049,294.629 117.436,296.299C117.823,297.968 118.783,299.631 120.316,301.288C121.85,302.944 123.902,304.515 126.473,305.999ZM165.644,282.048L155.328,276.092L160.421,273.151C161.18,272.714 161.97,272.332 162.784,272.009C163.612,271.681 164.482,271.469 165.369,271.38C166.267,271.288 167.214,271.345 168.209,271.55C169.203,271.755 170.247,272.172 171.34,272.803C172.433,273.434 173.156,274.037 173.511,274.611C173.866,275.186 173.964,275.732 173.805,276.251C173.645,276.769 173.282,277.267 172.715,277.743C172.148,278.219 171.488,278.674 170.737,279.107L165.644,282.048ZM142.892,276.481L177.311,296.352L183.865,292.568L171.525,285.443L178.413,281.466C180.278,280.39 181.551,279.293 182.232,278.176C182.914,277.059 183.151,275.967 182.943,274.899C182.736,273.831 182.153,272.804 181.195,271.817C180.237,270.83 179.067,269.937 177.686,269.14C176.209,268.296 174.646,267.612 173.024,267.099C171.3,266.55 169.516,266.216 167.71,266.104C165.808,265.988 163.899,266.126 162.034,266.515C160.099,266.908 158.2,267.643 156.335,268.72L142.892,276.481ZM199.479,268.08L212.88,275.817L219.434,272.033L206.226,264.407L196.078,245.774L188.772,249.992L195.436,261.841L174.871,258.018L167.523,262.26L199.479,268.08Z" style="fill:rgb(147,49,49);"/>
            <path d="M293.245,195.075L293.245,183.29L0.251,183.29L0.251,195.075L146.748,279.654L293.245,195.075Z" style="fill:rgb(224,176,59);"/>
            <path d="M292.994,183.29L146.497,98.71L0,183.29L146.497,267.87L292.994,183.29Z" style="fill:rgb(255,200,67);"/>
            <path d="M107.15,198.005L97.46,192.411L104.641,188.265C106.144,187.398 107.649,186.965 109.155,186.967C110.662,186.969 112.251,187.453 113.922,188.418C115.657,189.42 116.535,190.36 116.555,191.239C116.575,192.118 115.833,192.992 114.33,193.86L107.15,198.005ZM85.025,192.8L119.444,212.672L125.998,208.887L112.549,201.122L119.103,197.338C120.745,196.39 122.346,195.949 123.905,196.013C125.464,196.078 127.255,196.565 129.277,197.476C130.826,198.177 132.398,198.94 133.992,199.764C135.585,200.588 137.11,201.211 138.564,201.632L145.118,197.848C144.281,197.735 143.46,197.527 142.67,197.23C141.811,196.913 140.968,196.555 140.143,196.157C139.33,195.766 138.526,195.358 137.731,194.933C136.964,194.522 136.293,194.167 135.719,193.868C134.767,193.385 133.794,192.944 132.803,192.546C131.794,192.137 130.751,191.817 129.686,191.59C128.643,191.367 127.579,191.254 126.512,191.252C125.433,191.254 124.36,191.414 123.327,191.727L123.231,191.671C124.129,190.262 124.208,188.917 123.468,187.638C122.727,186.359 121.344,185.135 119.319,183.966C117.97,183.192 116.527,182.594 115.026,182.186C113.471,181.759 111.872,181.515 110.26,181.459C108.648,181.398 107.035,181.535 105.456,181.867C103.886,182.198 102.434,182.749 101.098,183.52L85.025,192.8ZM161.869,173.149L140.465,160.791L133.911,164.575L155.314,176.933C157.885,178.417 159.328,179.764 159.643,180.974C159.957,182.184 158.946,183.464 156.608,184.814C155.272,185.585 153.99,186.074 152.763,186.282C151.536,186.489 150.355,186.522 149.218,186.38C148.095,186.242 146.997,185.949 145.955,185.509C144.94,185.082 143.953,184.592 142.999,184.043L121.596,171.686L115.041,175.47L136.445,187.827C141.137,190.536 145.714,191.901 150.176,191.923C154.638,191.944 158.887,190.79 162.923,188.46C166.903,186.162 168.887,183.708 168.876,181.099C168.864,178.489 166.529,175.839 161.869,173.149ZM146.101,157.537L180.52,177.409L186.657,173.866L163.615,160.563L163.698,160.514L199.139,166.659L205.694,162.875L171.275,143.003L165.138,146.547L188.229,159.878L188.145,159.926L152.614,153.777L146.101,157.537Z" style="fill:rgb(165,130,52);"/>
            <g transform="matrix(0.866026,-0.499999,1.50001,0.288674,-47,-363.015)">
                <g transform="matrix(15.5884,0,-9.00006,15.5885,-835.326,627.067)">
                    <path d="M0.058,-0.517L0.058,0L0.2,0L0.2,-0.3C0.2,-0.325 0.204,-0.346 0.211,-0.362C0.218,-0.377 0.227,-0.389 0.238,-0.398C0.248,-0.406 0.259,-0.412 0.27,-0.415C0.281,-0.418 0.289,-0.419 0.296,-0.419C0.319,-0.419 0.336,-0.415 0.348,-0.408C0.359,-0.4 0.368,-0.39 0.373,-0.377C0.378,-0.364 0.38,-0.35 0.381,-0.336C0.382,-0.321 0.382,-0.305 0.382,-0.29L0.382,0L0.524,0L0.524,-0.288C0.524,-0.304 0.525,-0.32 0.528,-0.336C0.53,-0.351 0.535,-0.365 0.542,-0.378C0.549,-0.39 0.558,-0.4 0.571,-0.408C0.583,-0.415 0.599,-0.419 0.619,-0.419C0.639,-0.419 0.655,-0.416 0.667,-0.409C0.678,-0.402 0.687,-0.393 0.693,-0.382C0.699,-0.371 0.703,-0.357 0.704,-0.342C0.705,-0.327 0.706,-0.31 0.706,-0.293L0.706,0L0.848,0L0.848,-0.346C0.848,-0.379 0.843,-0.408 0.834,-0.432C0.825,-0.455 0.812,-0.474 0.795,-0.489C0.778,-0.504 0.758,-0.514 0.735,-0.521C0.712,-0.528 0.686,-0.531 0.659,-0.531C0.623,-0.531 0.592,-0.522 0.566,-0.505C0.539,-0.488 0.518,-0.468 0.503,-0.445C0.489,-0.477 0.468,-0.499 0.442,-0.512C0.415,-0.525 0.385,-0.531 0.352,-0.531C0.318,-0.531 0.288,-0.524 0.262,-0.509C0.235,-0.494 0.213,-0.474 0.194,-0.447L0.192,-0.447L0.192,-0.517L0.058,-0.517Z" style="fill:rgb(165,130,52);fill-rule:nonzero;"/>
                </g>
                <g transform="matrix(15.5884,0,-9.00006,15.5885,-821.202,627.067)">
                    <path d="M0.34,0L0.515,-0.517L0.374,-0.517L0.265,-0.164L0.263,-0.164L0.154,-0.517L0.005,-0.517L0.182,0L0.34,0Z" style="fill:rgb(165,130,52);fill-rule:nonzero;"/>
                </g>
                <g transform="matrix(15.5884,0,-9.00006,15.5885,-813.096,627.067)">
                    <path d="M0.054,-0.517L0.054,0L0.196,0L0.196,-0.271C0.196,-0.324 0.205,-0.362 0.222,-0.385C0.239,-0.407 0.267,-0.419 0.306,-0.419C0.34,-0.419 0.364,-0.409 0.377,-0.388C0.39,-0.367 0.397,-0.335 0.397,-0.292L0.397,0L0.539,0L0.539,-0.318C0.539,-0.35 0.536,-0.379 0.531,-0.406C0.525,-0.432 0.515,-0.454 0.501,-0.473C0.487,-0.491 0.468,-0.505 0.444,-0.516C0.419,-0.526 0.388,-0.531 0.35,-0.531C0.32,-0.531 0.291,-0.524 0.262,-0.511C0.233,-0.497 0.21,-0.475 0.192,-0.445L0.189,-0.445L0.189,-0.517L0.054,-0.517Z" style="fill:rgb(165,130,52);fill-rule:nonzero;"/>
                </g>
                <g transform="matrix(15.5884,0,-9.00006,15.5885,-799.519,627.067)">
                    <path d="M0.2,-0.597L0.2,-0.714L0.058,-0.714L0.058,-0.597L0.2,-0.597ZM0.058,-0.517L0.058,0L0.2,0L0.2,-0.517L0.058,-0.517Z" style="fill:rgb(165,130,52);fill-rule:nonzero;"/>
                </g>
                <g transform="matrix(15.5884,0,-9.00006,15.5885,-795.497,627.067)">
                    <path d="M0.054,-0.517L0.054,0L0.196,0L0.196,-0.271C0.196,-0.324 0.205,-0.362 0.222,-0.385C0.239,-0.407 0.267,-0.419 0.306,-0.419C0.34,-0.419 0.364,-0.409 0.377,-0.388C0.39,-0.367 0.397,-0.335 0.397,-0.292L0.397,0L0.539,0L0.539,-0.318C0.539,-0.35 0.536,-0.379 0.531,-0.406C0.525,-0.432 0.515,-0.454 0.501,-0.473C0.487,-0.491 0.468,-0.505 0.444,-0.516C0.419,-0.526 0.388,-0.531 0.35,-0.531C0.32,-0.531 0.291,-0.524 0.262,-0.511C0.233,-0.497 0.21,-0.475 0.192,-0.445L0.189,-0.445L0.189,-0.517L0.054,-0.517Z" style="fill:rgb(165,130,52);fill-rule:nonzero;"/>
                </g>
                <g transform="matrix(15.5884,0,-9.00006,15.5885,-786.253,627.067)">
                    <path d="M0.164,-0.168L0.029,-0.168C0.03,-0.133 0.038,-0.105 0.053,-0.082C0.067,-0.058 0.085,-0.04 0.108,-0.026C0.13,-0.012 0.155,-0.002 0.184,0.004C0.213,0.01 0.242,0.013 0.272,0.013C0.301,0.013 0.33,0.01 0.359,0.005C0.387,-0.001 0.412,-0.011 0.434,-0.025C0.456,-0.039 0.474,-0.057 0.488,-0.081C0.501,-0.103 0.508,-0.132 0.508,-0.166C0.508,-0.19 0.503,-0.21 0.494,-0.227C0.485,-0.243 0.472,-0.257 0.457,-0.268C0.442,-0.279 0.424,-0.287 0.405,-0.294C0.385,-0.301 0.365,-0.306 0.344,-0.311C0.324,-0.316 0.304,-0.32 0.285,-0.324C0.266,-0.328 0.249,-0.333 0.234,-0.338C0.219,-0.343 0.206,-0.349 0.197,-0.357C0.188,-0.365 0.183,-0.375 0.183,-0.388C0.183,-0.399 0.186,-0.407 0.191,-0.414C0.196,-0.42 0.203,-0.425 0.211,-0.428C0.218,-0.431 0.227,-0.434 0.236,-0.435C0.245,-0.436 0.254,-0.436 0.262,-0.436C0.287,-0.436 0.309,-0.431 0.328,-0.422C0.347,-0.412 0.357,-0.393 0.359,-0.366L0.494,-0.366C0.491,-0.398 0.483,-0.425 0.47,-0.446C0.456,-0.467 0.439,-0.483 0.418,-0.496C0.397,-0.509 0.374,-0.518 0.348,-0.523C0.321,-0.528 0.294,-0.531 0.266,-0.531C0.238,-0.531 0.211,-0.529 0.184,-0.524C0.157,-0.519 0.133,-0.51 0.112,-0.498C0.091,-0.485 0.074,-0.468 0.061,-0.447C0.048,-0.426 0.041,-0.398 0.041,-0.365C0.041,-0.342 0.046,-0.323 0.055,-0.308C0.064,-0.292 0.077,-0.279 0.092,-0.269C0.107,-0.258 0.125,-0.25 0.145,-0.244C0.164,-0.237 0.184,-0.232 0.205,-0.227C0.256,-0.216 0.295,-0.206 0.324,-0.195C0.352,-0.184 0.366,-0.168 0.366,-0.147C0.366,-0.134 0.363,-0.124 0.357,-0.116C0.351,-0.107 0.343,-0.1 0.335,-0.096C0.326,-0.09 0.316,-0.087 0.305,-0.085C0.294,-0.082 0.283,-0.081 0.273,-0.081C0.259,-0.081 0.246,-0.083 0.233,-0.086C0.22,-0.089 0.208,-0.094 0.198,-0.102C0.188,-0.109 0.18,-0.118 0.174,-0.129C0.167,-0.139 0.164,-0.153 0.164,-0.168Z" style="fill:rgb(165,130,52);fill-rule:nonzero;"/>
                </g>
                <g transform="matrix(15.5884,0,-9.00006,15.5885,-777.882,627.067)">
                    <path d="M0.234,-0.517L0.234,-0.672L0.092,-0.672L0.092,-0.517L0.006,-0.517L0.006,-0.422L0.092,-0.422L0.092,-0.117C0.092,-0.091 0.096,-0.07 0.105,-0.054C0.114,-0.038 0.126,-0.026 0.141,-0.017C0.156,-0.008 0.173,-0.003 0.193,0.001C0.212,0.004 0.233,0.005 0.255,0.005C0.269,0.005 0.283,0.005 0.298,0.004C0.313,0.003 0.326,0.002 0.338,0L0.338,-0.11C0.331,-0.109 0.324,-0.108 0.317,-0.107C0.31,-0.106 0.302,-0.106 0.294,-0.106C0.27,-0.106 0.254,-0.11 0.246,-0.118C0.238,-0.126 0.234,-0.142 0.234,-0.166L0.234,-0.422L0.338,-0.422L0.338,-0.517L0.234,-0.517Z" style="fill:rgb(165,130,52);fill-rule:nonzero;"/>
                </g>
                <g transform="matrix(15.5884,0,-9.00006,15.5885,-772.395,627.067)">
                    <path d="M0.048,-0.358C0.05,-0.391 0.058,-0.419 0.073,-0.441C0.088,-0.463 0.106,-0.481 0.129,-0.494C0.152,-0.507 0.177,-0.517 0.206,-0.523C0.234,-0.528 0.262,-0.531 0.291,-0.531C0.317,-0.531 0.343,-0.529 0.37,-0.526C0.397,-0.522 0.421,-0.515 0.443,-0.504C0.465,-0.493 0.483,-0.478 0.497,-0.46C0.511,-0.44 0.518,-0.415 0.518,-0.384L0.518,-0.115C0.518,-0.092 0.519,-0.069 0.522,-0.048C0.525,-0.027 0.529,-0.011 0.536,0L0.392,0C0.389,-0.008 0.387,-0.016 0.386,-0.025C0.384,-0.033 0.383,-0.041 0.382,-0.05C0.359,-0.027 0.333,-0.01 0.302,-0.001C0.271,0.008 0.24,0.013 0.208,0.013C0.183,0.013 0.16,0.01 0.139,0.004C0.118,-0.002 0.099,-0.011 0.083,-0.024C0.067,-0.037 0.055,-0.053 0.046,-0.072C0.037,-0.091 0.032,-0.114 0.032,-0.141C0.032,-0.17 0.037,-0.195 0.048,-0.214C0.058,-0.233 0.071,-0.248 0.088,-0.259C0.104,-0.27 0.123,-0.279 0.144,-0.285C0.165,-0.29 0.186,-0.295 0.207,-0.298C0.228,-0.301 0.249,-0.304 0.27,-0.306C0.291,-0.308 0.309,-0.311 0.325,-0.315C0.341,-0.319 0.354,-0.325 0.363,-0.333C0.372,-0.34 0.377,-0.351 0.376,-0.366C0.376,-0.381 0.374,-0.394 0.369,-0.403C0.364,-0.412 0.357,-0.419 0.349,-0.424C0.34,-0.428 0.331,-0.432 0.32,-0.434C0.309,-0.435 0.297,-0.436 0.284,-0.436C0.256,-0.436 0.234,-0.43 0.218,-0.418C0.202,-0.406 0.193,-0.386 0.19,-0.358L0.048,-0.358ZM0.376,-0.253C0.37,-0.248 0.363,-0.243 0.354,-0.241C0.345,-0.238 0.335,-0.235 0.325,-0.233C0.314,-0.231 0.303,-0.229 0.292,-0.228C0.281,-0.227 0.269,-0.225 0.258,-0.223C0.247,-0.221 0.237,-0.218 0.227,-0.215C0.216,-0.212 0.207,-0.207 0.2,-0.202C0.192,-0.196 0.186,-0.189 0.181,-0.18C0.176,-0.171 0.174,-0.16 0.174,-0.147C0.174,-0.134 0.176,-0.124 0.181,-0.115C0.186,-0.106 0.192,-0.099 0.2,-0.095C0.208,-0.09 0.217,-0.086 0.228,-0.084C0.239,-0.082 0.25,-0.081 0.261,-0.081C0.289,-0.081 0.311,-0.086 0.326,-0.095C0.341,-0.104 0.353,-0.116 0.36,-0.129C0.367,-0.141 0.372,-0.155 0.374,-0.168C0.375,-0.181 0.376,-0.192 0.376,-0.2L0.376,-0.253Z" style="fill:rgb(165,130,52);fill-rule:nonzero;"/>
                </g>
                <g transform="matrix(15.5884,0,-9.00006,15.5885,-763.447,627.067)">
                    <rect x="0.058" y="-0.714" width="0.142" height="0.714" style="fill:rgb(165,130,52);fill-rule:nonzero;"/>
                </g>
                <g transform="matrix(15.5884,0,-9.00006,15.5885,-759.425,627.067)">
                    <rect x="0.058" y="-0.714" width="0.142" height="0.714" style="fill:rgb(165,130,52);fill-rule:nonzero;"/>
                </g>
            </g>
            <path d="M292.994,96.365L292.994,84.58L0,84.58L0,96.365L146.497,180.945L292.994,96.365Z" style="fill:rgb(0,174,117);"/>
            <path d="M292.994,84.58L146.497,0L0,84.58L146.497,169.16L292.994,84.58Z" style="fill:rgb(111,193,115);"/>
            <path d="M110.886,94.794L117.232,91.13C115.092,90.108 112.835,89.355 110.51,88.888C108.293,88.438 106.032,88.24 103.77,88.299C101.57,88.362 99.467,88.658 97.46,89.187C95.452,89.715 93.627,90.453 91.985,91.401C89.703,92.719 88.116,94.173 87.225,95.763C86.335,97.354 86.082,98.984 86.469,100.653C86.855,102.322 87.815,103.985 89.349,105.642C90.882,107.299 92.934,108.869 95.505,110.353C98.036,111.812 100.726,112.976 103.521,113.824C106.3,114.68 109.166,115.219 112.066,115.432C114.925,115.636 117.724,115.477 120.463,114.953C123.202,114.429 125.712,113.509 127.995,112.191C129.831,111.131 131.194,109.973 132.082,108.718C132.97,107.463 133.374,106.154 133.294,104.79C133.214,103.426 132.654,102.042 131.614,100.639C130.575,99.235 129.062,97.863 127.075,96.524L120.73,100.187C122.793,101.668 123.968,103.142 124.255,104.609C124.542,106.076 123.684,107.388 121.68,108.545C120.222,109.391 118.607,109.935 116.934,110.144C115.228,110.358 113.501,110.334 111.802,110.073C110.065,109.811 108.361,109.368 106.716,108.752C105.106,108.154 103.549,107.424 102.06,106.569C100.549,105.697 99.233,104.769 98.111,103.784C96.989,102.798 96.194,101.801 95.726,100.791C95.257,99.782 95.208,98.789 95.579,97.814C95.95,96.84 96.873,95.926 98.349,95.075C99.155,94.609 100.08,94.251 101.123,94.001C102.192,93.749 103.286,93.612 104.384,93.594C105.514,93.572 106.636,93.657 107.749,93.85C108.862,94.042 109.907,94.357 110.886,94.794ZM110.38,81.727L144.799,101.598L150.936,98.055L126.785,84.112L126.868,84.064L158.325,93.789L163.376,90.873L146.29,72.572L146.374,72.524L170.766,86.607L176.903,83.063L142.484,63.192L133.258,68.518L150.331,85.992L150.247,86.04L119.606,76.4L110.38,81.727ZM182.855,72.279L161.162,59.755L165.838,57.056C167.452,56.124 169.074,55.493 170.704,55.165C172.33,54.836 173.997,54.766 175.645,54.956C177.309,55.146 178.986,55.56 180.676,56.198C182.453,56.878 184.171,57.701 185.815,58.659C187.711,59.753 189.109,60.802 190.009,61.803C190.909,62.805 191.421,63.743 191.545,64.618C191.668,65.493 191.462,66.29 190.925,67.008C190.387,67.726 189.646,68.359 188.7,68.905L182.855,72.279ZM148.245,59.866L182.664,79.737L195.522,72.314C197.804,70.996 199.345,69.596 200.145,68.114C200.945,66.631 201.138,65.119 200.722,63.578C200.307,62.037 199.317,60.493 197.752,58.947C196.188,57.401 194.152,55.904 191.646,54.457C188.786,52.806 185.954,51.565 183.151,50.734C180.348,49.903 177.634,49.429 175.01,49.311C172.385,49.194 169.891,49.409 167.528,49.957C165.165,50.505 163.023,51.333 161.103,52.442L148.245,59.866Z" style="fill:rgb(0,106,70);"/>
            <g transform="matrix(0.866026,-0.499999,1.50001,0.288674,-108.508,-531.884)">
                <g transform="matrix(15.5884,0,-9.00006,15.5885,-960.845,716.904)">
                    <path d="M0.058,-0.517L0.058,0L0.2,0L0.2,-0.3C0.2,-0.325 0.204,-0.346 0.211,-0.362C0.218,-0.377 0.227,-0.389 0.238,-0.398C0.248,-0.406 0.259,-0.412 0.27,-0.415C0.281,-0.418 0.289,-0.419 0.296,-0.419C0.319,-0.419 0.336,-0.415 0.348,-0.408C0.359,-0.4 0.368,-0.39 0.373,-0.377C0.378,-0.364 0.38,-0.35 0.381,-0.336C0.382,-0.321 0.382,-0.305 0.382,-0.29L0.382,0L0.524,0L0.524,-0.288C0.524,-0.304 0.525,-0.32 0.528,-0.336C0.53,-0.351 0.535,-0.365 0.542,-0.378C0.549,-0.39 0.558,-0.4 0.571,-0.408C0.583,-0.415 0.599,-0.419 0.619,-0.419C0.639,-0.419 0.655,-0.416 0.667,-0.409C0.678,-0.402 0.687,-0.393 0.693,-0.382C0.699,-0.371 0.703,-0.357 0.704,-0.342C0.705,-0.327 0.706,-0.31 0.706,-0.293L0.706,0L0.848,0L0.848,-0.346C0.848,-0.379 0.843,-0.408 0.834,-0.432C0.825,-0.455 0.812,-0.474 0.795,-0.489C0.778,-0.504 0.758,-0.514 0.735,-0.521C0.712,-0.528 0.686,-0.531 0.659,-0.531C0.623,-0.531 0.592,-0.522 0.566,-0.505C0.539,-0.488 0.518,-0.468 0.503,-0.445C0.489,-0.477 0.468,-0.499 0.442,-0.512C0.415,-0.525 0.385,-0.531 0.352,-0.531C0.318,-0.531 0.288,-0.524 0.262,-0.509C0.235,-0.494 0.213,-0.474 0.194,-0.447L0.192,-0.447L0.192,-0.517L0.058,-0.517Z" style="fill:rgb(0,106,70);fill-rule:nonzero;"/>
                </g>
                <g transform="matrix(15.5884,0,-9.00006,15.5885,-946.722,716.904)">
                    <path d="M0.34,0L0.515,-0.517L0.374,-0.517L0.265,-0.164L0.263,-0.164L0.154,-0.517L0.005,-0.517L0.182,0L0.34,0Z" style="fill:rgb(0,106,70);fill-rule:nonzero;"/>
                </g>
                <g transform="matrix(15.5884,0,-9.00006,15.5885,-938.616,716.904)">
                    <path d="M0.054,-0.517L0.054,0L0.196,0L0.196,-0.271C0.196,-0.324 0.205,-0.362 0.222,-0.385C0.239,-0.407 0.267,-0.419 0.306,-0.419C0.34,-0.419 0.364,-0.409 0.377,-0.388C0.39,-0.367 0.397,-0.335 0.397,-0.292L0.397,0L0.539,0L0.539,-0.318C0.539,-0.35 0.536,-0.379 0.531,-0.406C0.525,-0.432 0.515,-0.454 0.501,-0.473C0.487,-0.491 0.468,-0.505 0.444,-0.516C0.419,-0.526 0.388,-0.531 0.35,-0.531C0.32,-0.531 0.291,-0.524 0.262,-0.511C0.233,-0.497 0.21,-0.475 0.192,-0.445L0.189,-0.445L0.189,-0.517L0.054,-0.517Z" style="fill:rgb(0,106,70);fill-rule:nonzero;"/>
                </g>
                <g transform="matrix(15.5884,0,-9.00006,15.5885,-925.038,716.904)">
                    <path d="M0.164,-0.168L0.029,-0.168C0.03,-0.133 0.038,-0.105 0.053,-0.082C0.067,-0.058 0.085,-0.04 0.108,-0.026C0.13,-0.012 0.155,-0.002 0.184,0.004C0.213,0.01 0.242,0.013 0.272,0.013C0.301,0.013 0.33,0.01 0.359,0.005C0.387,-0.001 0.412,-0.011 0.434,-0.025C0.456,-0.039 0.474,-0.057 0.488,-0.081C0.501,-0.103 0.508,-0.132 0.508,-0.166C0.508,-0.19 0.503,-0.21 0.494,-0.227C0.485,-0.243 0.472,-0.257 0.457,-0.268C0.442,-0.279 0.424,-0.287 0.405,-0.294C0.385,-0.301 0.365,-0.306 0.344,-0.311C0.324,-0.316 0.304,-0.32 0.285,-0.324C0.266,-0.328 0.249,-0.333 0.234,-0.338C0.219,-0.343 0.206,-0.349 0.197,-0.357C0.188,-0.365 0.183,-0.375 0.183,-0.388C0.183,-0.399 0.186,-0.407 0.191,-0.414C0.196,-0.42 0.203,-0.425 0.211,-0.428C0.218,-0.431 0.227,-0.434 0.236,-0.435C0.245,-0.436 0.254,-0.436 0.262,-0.436C0.287,-0.436 0.309,-0.431 0.328,-0.422C0.347,-0.412 0.357,-0.393 0.359,-0.366L0.494,-0.366C0.491,-0.398 0.483,-0.425 0.47,-0.446C0.456,-0.467 0.439,-0.483 0.418,-0.496C0.397,-0.509 0.374,-0.518 0.348,-0.523C0.321,-0.528 0.294,-0.531 0.266,-0.531C0.238,-0.531 0.211,-0.529 0.184,-0.524C0.157,-0.519 0.133,-0.51 0.112,-0.498C0.091,-0.485 0.074,-0.468 0.061,-0.447C0.048,-0.426 0.041,-0.398 0.041,-0.365C0.041,-0.342 0.046,-0.323 0.055,-0.308C0.064,-0.292 0.077,-0.279 0.092,-0.269C0.107,-0.258 0.125,-0.25 0.145,-0.244C0.164,-0.237 0.184,-0.232 0.205,-0.227C0.256,-0.216 0.295,-0.206 0.324,-0.195C0.352,-0.184 0.366,-0.168 0.366,-0.147C0.366,-0.134 0.363,-0.124 0.357,-0.116C0.351,-0.107 0.343,-0.1 0.335,-0.096C0.326,-0.09 0.316,-0.087 0.305,-0.085C0.294,-0.082 0.283,-0.081 0.273,-0.081C0.259,-0.081 0.246,-0.083 0.233,-0.086C0.22,-0.089 0.208,-0.094 0.198,-0.102C0.188,-0.109 0.18,-0.118 0.174,-0.129C0.167,-0.139 0.164,-0.153 0.164,-0.168Z" style="fill:rgb(0,106,70);fill-rule:nonzero;"/>
                </g>
                <g transform="matrix(15.5884,0,-9.00006,15.5885,-916.667,716.904)">
                    <path d="M0.315,-0.093C0.292,-0.093 0.273,-0.098 0.257,-0.107C0.241,-0.116 0.228,-0.129 0.219,-0.144C0.209,-0.159 0.202,-0.176 0.198,-0.196C0.193,-0.216 0.191,-0.236 0.191,-0.257C0.191,-0.278 0.193,-0.299 0.197,-0.319C0.201,-0.339 0.208,-0.357 0.218,-0.372C0.227,-0.387 0.24,-0.4 0.256,-0.41C0.271,-0.419 0.291,-0.424 0.314,-0.424C0.337,-0.424 0.356,-0.419 0.372,-0.41C0.387,-0.4 0.4,-0.387 0.41,-0.372C0.42,-0.356 0.427,-0.338 0.432,-0.318C0.436,-0.298 0.438,-0.278 0.438,-0.257C0.438,-0.236 0.436,-0.216 0.432,-0.196C0.428,-0.176 0.421,-0.159 0.412,-0.144C0.402,-0.129 0.389,-0.116 0.374,-0.107C0.358,-0.098 0.338,-0.093 0.315,-0.093ZM0.054,-0.517L0.054,0.181L0.196,0.181L0.196,-0.064L0.198,-0.064C0.215,-0.039 0.238,-0.02 0.265,-0.007C0.292,0.007 0.321,0.013 0.353,0.013C0.391,0.013 0.424,0.006 0.453,-0.009C0.481,-0.024 0.505,-0.043 0.524,-0.068C0.543,-0.093 0.557,-0.121 0.566,-0.153C0.575,-0.185 0.58,-0.218 0.58,-0.253C0.58,-0.29 0.575,-0.325 0.566,-0.359C0.557,-0.392 0.542,-0.422 0.523,-0.447C0.504,-0.472 0.479,-0.493 0.45,-0.508C0.421,-0.523 0.386,-0.531 0.345,-0.531C0.313,-0.531 0.284,-0.525 0.257,-0.512C0.23,-0.499 0.208,-0.479 0.191,-0.451L0.189,-0.451L0.189,-0.517L0.054,-0.517Z" style="fill:rgb(0,106,70);fill-rule:nonzero;"/>
                </g>
                <g transform="matrix(15.5884,0,-9.00006,15.5885,-907.143,716.904)">
                    <path d="M0.054,-0.517L0.054,0L0.196,0L0.196,-0.233C0.196,-0.256 0.198,-0.278 0.203,-0.298C0.208,-0.318 0.216,-0.335 0.227,-0.351C0.238,-0.366 0.252,-0.377 0.27,-0.386C0.288,-0.395 0.31,-0.399 0.336,-0.399C0.345,-0.399 0.354,-0.399 0.363,-0.398C0.372,-0.397 0.38,-0.395 0.387,-0.394L0.387,-0.526C0.376,-0.529 0.365,-0.531 0.356,-0.531C0.338,-0.531 0.321,-0.528 0.304,-0.523C0.287,-0.518 0.272,-0.51 0.257,-0.501C0.242,-0.491 0.229,-0.479 0.218,-0.466C0.207,-0.452 0.198,-0.437 0.191,-0.421L0.189,-0.421L0.189,-0.517L0.054,-0.517Z" style="fill:rgb(0,106,70);fill-rule:nonzero;"/>
                </g>
                <g transform="matrix(15.5884,0,-9.00006,15.5885,-901.079,716.904)">
                    <path d="M0.2,-0.597L0.2,-0.714L0.058,-0.714L0.058,-0.597L0.2,-0.597ZM0.058,-0.517L0.058,0L0.2,0L0.2,-0.517L0.058,-0.517Z" style="fill:rgb(0,106,70);fill-rule:nonzero;"/>
                </g>
                <g transform="matrix(15.5884,0,-9.00006,15.5885,-897.057,716.904)">
                    <path d="M0.054,-0.517L0.054,0L0.196,0L0.196,-0.271C0.196,-0.324 0.205,-0.362 0.222,-0.385C0.239,-0.407 0.267,-0.419 0.306,-0.419C0.34,-0.419 0.364,-0.409 0.377,-0.388C0.39,-0.367 0.397,-0.335 0.397,-0.292L0.397,0L0.539,0L0.539,-0.318C0.539,-0.35 0.536,-0.379 0.531,-0.406C0.525,-0.432 0.515,-0.454 0.501,-0.473C0.487,-0.491 0.468,-0.505 0.444,-0.516C0.419,-0.526 0.388,-0.531 0.35,-0.531C0.32,-0.531 0.291,-0.524 0.262,-0.511C0.233,-0.497 0.21,-0.475 0.192,-0.445L0.189,-0.445L0.189,-0.517L0.054,-0.517Z" style="fill:rgb(0,106,70);fill-rule:nonzero;"/>
                </g>
                <g transform="matrix(15.5884,0,-9.00006,15.5885,-887.813,716.904)">
                    <path d="M0.295,-0.122C0.273,-0.122 0.255,-0.127 0.24,-0.136C0.225,-0.145 0.214,-0.157 0.205,-0.172C0.196,-0.187 0.189,-0.203 0.186,-0.222C0.182,-0.24 0.18,-0.258 0.18,-0.277C0.18,-0.296 0.182,-0.315 0.187,-0.333C0.191,-0.35 0.198,-0.366 0.208,-0.38C0.217,-0.393 0.229,-0.404 0.244,-0.412C0.258,-0.42 0.275,-0.424 0.295,-0.424C0.318,-0.424 0.338,-0.42 0.353,-0.411C0.368,-0.402 0.381,-0.391 0.39,-0.376C0.399,-0.361 0.406,-0.345 0.41,-0.326C0.414,-0.307 0.416,-0.286 0.416,-0.265C0.416,-0.246 0.414,-0.229 0.409,-0.212C0.404,-0.195 0.396,-0.179 0.386,-0.166C0.376,-0.153 0.363,-0.142 0.348,-0.134C0.333,-0.126 0.315,-0.122 0.295,-0.122ZM0.551,-0.033L0.551,-0.517L0.416,-0.517L0.416,-0.448L0.414,-0.448C0.397,-0.478 0.375,-0.499 0.35,-0.512C0.324,-0.525 0.294,-0.531 0.26,-0.531C0.224,-0.531 0.192,-0.524 0.165,-0.51C0.137,-0.496 0.114,-0.477 0.095,-0.454C0.076,-0.43 0.062,-0.403 0.053,-0.372C0.043,-0.341 0.038,-0.308 0.038,-0.275C0.038,-0.24 0.042,-0.206 0.051,-0.175C0.059,-0.143 0.072,-0.115 0.09,-0.092C0.108,-0.068 0.131,-0.049 0.159,-0.036C0.187,-0.022 0.22,-0.015 0.259,-0.015C0.29,-0.015 0.32,-0.022 0.349,-0.035C0.377,-0.048 0.399,-0.068 0.414,-0.095L0.416,-0.095L0.416,-0.027C0.417,0.01 0.408,0.04 0.39,0.064C0.371,0.088 0.342,0.1 0.302,0.1C0.277,0.1 0.254,0.095 0.235,0.085C0.216,0.074 0.203,0.056 0.196,0.029L0.055,0.029C0.057,0.058 0.065,0.084 0.08,0.105C0.094,0.126 0.112,0.143 0.134,0.156C0.155,0.169 0.179,0.179 0.206,0.186C0.232,0.192 0.258,0.195 0.283,0.195C0.342,0.195 0.39,0.187 0.425,0.171C0.46,0.155 0.487,0.135 0.506,0.113C0.525,0.09 0.537,0.065 0.543,0.038C0.548,0.011 0.551,-0.012 0.551,-0.033Z" style="fill:rgb(0,106,70);fill-rule:nonzero;"/>
                </g>
                <g transform="matrix(15.5884,0,-9.00006,15.5885,-878.289,716.904)">
                    <rect x="0.053" y="-0.334" width="0.301" height="0.122" style="fill:rgb(0,106,70);fill-rule:nonzero;"/>
                </g>
                <g transform="matrix(15.5884,0,-9.00006,15.5885,-871.944,716.904)">
                    <path d="M0.433,-0.258C0.433,-0.237 0.431,-0.216 0.426,-0.196C0.421,-0.176 0.414,-0.158 0.404,-0.143C0.394,-0.128 0.382,-0.115 0.367,-0.107C0.352,-0.097 0.333,-0.093 0.312,-0.093C0.291,-0.093 0.273,-0.097 0.258,-0.107C0.243,-0.115 0.23,-0.128 0.22,-0.143C0.21,-0.158 0.203,-0.176 0.198,-0.196C0.193,-0.216 0.191,-0.237 0.191,-0.258C0.191,-0.28 0.193,-0.301 0.198,-0.321C0.203,-0.341 0.21,-0.359 0.22,-0.374C0.23,-0.389 0.243,-0.402 0.258,-0.411C0.273,-0.42 0.291,-0.424 0.312,-0.424C0.333,-0.424 0.352,-0.42 0.367,-0.411C0.382,-0.402 0.394,-0.389 0.404,-0.374C0.414,-0.359 0.421,-0.341 0.426,-0.321C0.431,-0.301 0.433,-0.28 0.433,-0.258ZM0.054,-0.714L0.054,0L0.189,0L0.189,-0.066L0.191,-0.066C0.206,-0.037 0.229,-0.017 0.259,-0.005C0.289,0.007 0.323,0.013 0.361,0.013C0.387,0.013 0.413,0.008 0.438,-0.003C0.463,-0.014 0.486,-0.03 0.507,-0.052C0.527,-0.074 0.543,-0.102 0.556,-0.137C0.569,-0.171 0.575,-0.212 0.575,-0.259C0.575,-0.306 0.569,-0.347 0.556,-0.382C0.543,-0.416 0.527,-0.444 0.507,-0.466C0.486,-0.488 0.463,-0.504 0.438,-0.515C0.413,-0.526 0.387,-0.531 0.361,-0.531C0.329,-0.531 0.298,-0.525 0.269,-0.513C0.239,-0.5 0.215,-0.481 0.198,-0.454L0.196,-0.454L0.196,-0.714L0.054,-0.714Z" style="fill:rgb(0,106,70);fill-rule:nonzero;"/>
                </g>
                <g transform="matrix(15.5884,0,-9.00006,15.5885,-862.42,716.904)">
                    <path d="M0.18,-0.258C0.18,-0.279 0.182,-0.299 0.186,-0.319C0.19,-0.339 0.197,-0.357 0.207,-0.372C0.216,-0.387 0.229,-0.4 0.245,-0.41C0.261,-0.419 0.281,-0.424 0.305,-0.424C0.329,-0.424 0.349,-0.419 0.366,-0.41C0.382,-0.4 0.395,-0.387 0.405,-0.372C0.414,-0.357 0.421,-0.339 0.425,-0.319C0.429,-0.299 0.431,-0.279 0.431,-0.258C0.431,-0.237 0.429,-0.217 0.425,-0.198C0.421,-0.178 0.414,-0.16 0.405,-0.145C0.395,-0.129 0.382,-0.116 0.366,-0.107C0.349,-0.098 0.329,-0.093 0.305,-0.093C0.281,-0.093 0.261,-0.098 0.245,-0.107C0.229,-0.116 0.216,-0.129 0.207,-0.145C0.197,-0.16 0.19,-0.178 0.186,-0.198C0.182,-0.217 0.18,-0.237 0.18,-0.258ZM0.038,-0.258C0.038,-0.217 0.044,-0.179 0.057,-0.146C0.07,-0.113 0.088,-0.084 0.111,-0.061C0.134,-0.037 0.162,-0.019 0.195,-0.006C0.228,0.007 0.264,0.013 0.305,0.013C0.346,0.013 0.383,0.007 0.416,-0.006C0.449,-0.019 0.477,-0.037 0.5,-0.061C0.523,-0.084 0.541,-0.113 0.554,-0.146C0.567,-0.179 0.573,-0.217 0.573,-0.258C0.573,-0.299 0.567,-0.337 0.554,-0.371C0.541,-0.404 0.523,-0.433 0.5,-0.457C0.477,-0.48 0.449,-0.499 0.416,-0.512C0.383,-0.525 0.346,-0.531 0.305,-0.531C0.264,-0.531 0.228,-0.525 0.195,-0.512C0.162,-0.499 0.134,-0.48 0.111,-0.457C0.088,-0.433 0.07,-0.404 0.057,-0.371C0.044,-0.337 0.038,-0.299 0.038,-0.258Z" style="fill:rgb(0,106,70);fill-rule:nonzero;"/>
                </g>
                <g transform="matrix(15.5884,0,-9.00006,15.5885,-852.895,716.904)">
                    <path d="M0.18,-0.258C0.18,-0.279 0.182,-0.299 0.186,-0.319C0.19,-0.339 0.197,-0.357 0.207,-0.372C0.216,-0.387 0.229,-0.4 0.245,-0.41C0.261,-0.419 0.281,-0.424 0.305,-0.424C0.329,-0.424 0.349,-0.419 0.366,-0.41C0.382,-0.4 0.395,-0.387 0.405,-0.372C0.414,-0.357 0.421,-0.339 0.425,-0.319C0.429,-0.299 0.431,-0.279 0.431,-0.258C0.431,-0.237 0.429,-0.217 0.425,-0.198C0.421,-0.178 0.414,-0.16 0.405,-0.145C0.395,-0.129 0.382,-0.116 0.366,-0.107C0.349,-0.098 0.329,-0.093 0.305,-0.093C0.281,-0.093 0.261,-0.098 0.245,-0.107C0.229,-0.116 0.216,-0.129 0.207,-0.145C0.197,-0.16 0.19,-0.178 0.186,-0.198C0.182,-0.217 0.18,-0.237 0.18,-0.258ZM0.038,-0.258C0.038,-0.217 0.044,-0.179 0.057,-0.146C0.07,-0.113 0.088,-0.084 0.111,-0.061C0.134,-0.037 0.162,-0.019 0.195,-0.006C0.228,0.007 0.264,0.013 0.305,0.013C0.346,0.013 0.383,0.007 0.416,-0.006C0.449,-0.019 0.477,-0.037 0.5,-0.061C0.523,-0.084 0.541,-0.113 0.554,-0.146C0.567,-0.179 0.573,-0.217 0.573,-0.258C0.573,-0.299 0.567,-0.337 0.554,-0.371C0.541,-0.404 0.523,-0.433 0.5,-0.457C0.477,-0.48 0.449,-0.499 0.416,-0.512C0.383,-0.525 0.346,-0.531 0.305,-0.531C0.264,-0.531 0.228,-0.525 0.195,-0.512C0.162,-0.499 0.134,-0.48 0.111,-0.457C0.088,-0.433 0.07,-0.404 0.057,-0.371C0.044,-0.337 0.038,-0.299 0.038,-0.258Z" style="fill:rgb(0,106,70);fill-rule:nonzero;"/>
                </g>
                <g transform="matrix(15.5884,0,-9.00006,15.5885,-843.37,716.904)">
                    <path d="M0.234,-0.517L0.234,-0.672L0.092,-0.672L0.092,-0.517L0.006,-0.517L0.006,-0.422L0.092,-0.422L0.092,-0.117C0.092,-0.091 0.096,-0.07 0.105,-0.054C0.114,-0.038 0.126,-0.026 0.141,-0.017C0.156,-0.008 0.173,-0.003 0.193,0.001C0.212,0.004 0.233,0.005 0.255,0.005C0.269,0.005 0.283,0.005 0.298,0.004C0.313,0.003 0.326,0.002 0.338,0L0.338,-0.11C0.331,-0.109 0.324,-0.108 0.317,-0.107C0.31,-0.106 0.302,-0.106 0.294,-0.106C0.27,-0.106 0.254,-0.11 0.246,-0.118C0.238,-0.126 0.234,-0.142 0.234,-0.166L0.234,-0.422L0.338,-0.422L0.338,-0.517L0.234,-0.517Z" style="fill:rgb(0,106,70);fill-rule:nonzero;"/>
                </g>
                <g transform="matrix(15.5884,0,-9.00006,15.5885,-837.883,716.904)">
                    <path d="M0.218,-0.354L0.218,-0.508L0.061,-0.508L0.061,-0.354L0.218,-0.354ZM0.061,-0.154L0.061,0L0.218,0L0.218,-0.154L0.061,-0.154Z" style="fill:rgb(0,106,70);fill-rule:nonzero;"/>
                </g>
                <g transform="matrix(15.5884,0,-9.00006,15.5885,-833.55,716.904)">
                    <path d="M0.054,-0.517L0.054,0L0.196,0L0.196,-0.233C0.196,-0.256 0.198,-0.278 0.203,-0.298C0.208,-0.318 0.216,-0.335 0.227,-0.351C0.238,-0.366 0.252,-0.377 0.27,-0.386C0.288,-0.395 0.31,-0.399 0.336,-0.399C0.345,-0.399 0.354,-0.399 0.363,-0.398C0.372,-0.397 0.38,-0.395 0.387,-0.394L0.387,-0.526C0.376,-0.529 0.365,-0.531 0.356,-0.531C0.338,-0.531 0.321,-0.528 0.304,-0.523C0.287,-0.518 0.272,-0.51 0.257,-0.501C0.242,-0.491 0.229,-0.479 0.218,-0.466C0.207,-0.452 0.198,-0.437 0.191,-0.421L0.189,-0.421L0.189,-0.517L0.054,-0.517Z" style="fill:rgb(0,106,70);fill-rule:nonzero;"/>
                </g>
                <g transform="matrix(15.5884,0,-9.00006,15.5885,-827.486,716.904)">
                    <path d="M0.539,0L0.539,-0.517L0.397,-0.517L0.397,-0.246C0.397,-0.193 0.388,-0.156 0.371,-0.133C0.354,-0.11 0.326,-0.098 0.287,-0.098C0.253,-0.098 0.229,-0.109 0.216,-0.13C0.203,-0.151 0.196,-0.182 0.196,-0.225L0.196,-0.517L0.054,-0.517L0.054,-0.199C0.054,-0.167 0.057,-0.138 0.063,-0.112C0.068,-0.085 0.078,-0.063 0.092,-0.045C0.106,-0.026 0.125,-0.012 0.15,-0.002C0.174,0.008 0.205,0.013 0.243,0.013C0.273,0.013 0.302,0.006 0.331,-0.007C0.36,-0.02 0.383,-0.042 0.401,-0.072L0.404,-0.072L0.404,0L0.539,0Z" style="fill:rgb(0,106,70);fill-rule:nonzero;"/>
                </g>
                <g transform="matrix(15.5884,0,-9.00006,15.5885,-818.242,716.904)">
                    <path d="M0.054,-0.517L0.054,0L0.196,0L0.196,-0.271C0.196,-0.324 0.205,-0.362 0.222,-0.385C0.239,-0.407 0.267,-0.419 0.306,-0.419C0.34,-0.419 0.364,-0.409 0.377,-0.388C0.39,-0.367 0.397,-0.335 0.397,-0.292L0.397,0L0.539,0L0.539,-0.318C0.539,-0.35 0.536,-0.379 0.531,-0.406C0.525,-0.432 0.515,-0.454 0.501,-0.473C0.487,-0.491 0.468,-0.505 0.444,-0.516C0.419,-0.526 0.388,-0.531 0.35,-0.531C0.32,-0.531 0.291,-0.524 0.262,-0.511C0.233,-0.497 0.21,-0.475 0.192,-0.445L0.189,-0.445L0.189,-0.517L0.054,-0.517Z" style="fill:rgb(0,106,70);fill-rule:nonzero;"/>
                </g>
            </g>
        </g>
        <g transform="matrix(1,0,0,1,420,274)">
            <path d="M292.994,131.655L292.994,119.87L0,119.87L0,131.655L146.497,216.235L292.994,131.655Z" style="fill:rgb(0,95,173);"/>
            <path d="M292.994,119.87L146.497,35.29L0,119.87L146.497,204.45L292.994,119.87Z" style="fill:rgb(0,113,206);"/>
            <path d="M66.692,142.24L101.11,162.112L107.665,158.328L93.444,150.118L105.926,142.911L100.045,139.515L87.563,146.722L79.609,142.13L94.012,133.815L87.649,130.141L66.692,142.24ZM113.572,133.153L103.883,127.559L111.064,123.413C112.567,122.545 114.071,122.113 115.578,122.115C117.085,122.117 118.674,122.6 120.345,123.565C122.08,124.567 122.958,125.508 122.978,126.387C122.997,127.266 122.256,128.139 120.753,129.007L113.572,133.153ZM91.448,127.947L125.867,147.819L132.421,144.035L118.971,136.27L125.526,132.486C127.168,131.538 128.768,131.096 130.328,131.161C131.887,131.225 133.678,131.713 135.7,132.623C137.291,133.345 138.863,134.108 140.414,134.911C142.008,135.735 143.532,136.358 144.987,136.78L151.541,132.996C150.705,132.882 149.883,132.675 149.093,132.378C148.234,132.061 147.39,131.702 146.565,131.304C145.753,130.913 144.949,130.505 144.154,130.08C143.387,129.67 142.716,129.315 142.142,129.015C141.189,128.533 140.216,128.092 139.226,127.693C138.217,127.284 137.174,126.965 136.109,126.737C135.066,126.514 134.002,126.401 132.935,126.399C131.856,126.401 130.783,126.561 129.75,126.874L129.653,126.819C130.552,125.409 130.631,124.065 129.89,122.785C129.149,121.506 127.767,120.282 125.742,119.113C124.393,118.339 122.95,117.741 121.449,117.334C119.894,116.906 118.295,116.662 116.683,116.606C115.071,116.545 113.458,116.682 111.879,117.014C110.309,117.345 108.856,117.897 107.52,118.668L91.448,127.947ZM144.203,117.528C142.693,116.656 141.377,115.727 140.255,114.742C139.133,113.757 138.338,112.759 137.869,111.75C137.401,110.74 137.352,109.748 137.723,108.773C138.094,107.798 139.017,106.885 140.492,106.033C141.95,105.187 143.565,104.643 145.238,104.434C146.952,104.22 148.688,104.249 150.394,104.519C152.143,104.789 153.87,105.248 155.576,105.896C157.243,106.525 158.857,107.288 160.401,108.176C161.848,109.011 163.107,109.907 164.181,110.864C165.255,111.821 166.018,112.8 166.47,113.801C166.923,114.801 166.964,115.789 166.593,116.764C166.222,117.738 165.299,118.652 163.824,119.503C162.365,120.349 160.751,120.893 159.078,121.102C157.372,121.316 155.645,121.292 153.946,121.031C152.209,120.769 150.505,120.326 148.86,119.71C147.25,119.113 145.692,118.383 144.203,117.528ZM137.649,121.312C140.181,122.77 142.87,123.934 145.665,124.783C148.444,125.638 151.31,126.177 154.21,126.39C157.069,126.594 159.868,126.435 162.607,125.911C165.346,125.388 167.856,124.467 170.138,123.149C172.449,121.816 174.05,120.362 174.943,118.789C175.836,117.216 176.106,115.604 175.751,113.953C175.397,112.302 174.469,110.658 172.968,109.019C171.466,107.381 169.462,105.839 166.956,104.392C164.378,102.904 161.64,101.711 158.795,100.837C155.985,99.963 153.087,99.405 150.154,99.174C147.331,98.948 144.491,99.091 141.705,99.599C138.964,100.105 136.439,101.025 134.129,102.359C131.847,103.677 130.26,105.131 129.369,106.721C128.478,108.312 128.226,109.942 128.613,111.611C128.999,113.281 129.959,114.944 131.493,116.6C133.026,118.257 135.078,119.827 137.649,121.312ZM154.069,91.793L188.487,111.665L194.624,108.122L170.473,94.178L170.557,94.13L202.014,103.856L207.065,100.939L189.979,82.638L190.062,82.59L214.454,96.673L220.591,93.13L186.172,73.258L176.946,78.585L194.019,96.058L193.936,96.107L163.295,86.466L154.069,91.793ZM185.774,158.289L193.834,162.942L195.751,161.835L191.526,159.395C190.705,158.922 190.232,158.514 190.108,158.172C189.983,157.83 190.182,157.508 190.704,157.207C191.139,156.946 191.653,156.851 192.153,156.937C192.661,157.022 193.247,157.257 193.912,157.64L198.464,160.268L200.381,159.161L195.424,156.299C194.949,156.023 194.455,155.783 193.945,155.579C193.482,155.392 192.997,155.266 192.502,155.205C192.02,155.149 191.532,155.17 191.056,155.266C190.566,155.363 190.065,155.559 189.552,155.856C189.147,156.089 188.858,156.38 188.684,156.726C188.51,157.072 188.535,157.451 188.76,157.861L188.719,157.884L187.597,157.236L185.774,158.289ZM199.518,155.016C199.212,154.841 198.921,154.642 198.648,154.42C198.39,154.209 198.207,153.996 198.099,153.783C197.992,153.588 197.969,153.358 198.034,153.145C198.099,152.934 198.294,152.735 198.618,152.547C198.942,152.36 199.29,152.247 199.661,152.207C200.031,152.166 200.405,152.177 200.772,152.24C201.141,152.302 201.509,152.408 201.875,152.557C202.241,152.706 202.585,152.873 202.907,153.059C203.229,153.245 203.516,153.442 203.769,153.65C204.021,153.859 204.204,154.07 204.318,154.287C204.432,154.504 204.451,154.717 204.376,154.929C204.301,155.14 204.102,155.339 203.778,155.526C203.463,155.71 203.113,155.826 202.75,155.868C202.388,155.908 202.02,155.896 201.645,155.831C201.267,155.764 200.897,155.658 200.542,155.513C200.19,155.371 199.847,155.205 199.518,155.016ZM197.601,156.122C198.232,156.488 198.904,156.777 199.604,156.982C200.275,157.18 200.967,157.297 201.665,157.331C202.331,157.364 202.998,157.309 203.649,157.167C204.274,157.031 204.875,156.799 205.43,156.48C205.979,156.163 206.378,155.82 206.626,155.448C206.874,155.077 206.971,154.694 206.917,154.298C206.863,153.904 206.662,153.508 206.313,153.108C205.964,152.71 205.468,152.324 204.824,151.952C204.19,151.585 203.515,151.295 202.813,151.088C202.14,150.888 201.445,150.769 200.744,150.735C200.074,150.703 199.402,150.757 198.746,150.898C198.115,151.032 197.509,151.263 196.95,151.584C196.401,151.901 196.007,152.245 195.769,152.617C195.531,152.989 195.438,153.372 195.492,153.767C195.546,154.162 195.75,154.56 196.104,154.962C196.458,155.363 196.957,155.75 197.601,156.122ZM210.989,148.357C211.322,148.549 211.617,148.75 211.874,148.962C212.132,149.172 212.32,149.385 212.438,149.599C212.554,149.788 212.583,150.018 212.517,150.229C212.451,150.435 212.26,150.629 211.945,150.811C211.642,150.985 211.304,151.09 210.956,151.121C210.583,151.156 210.208,151.143 209.838,151.083C209.449,151.021 209.068,150.919 208.7,150.777C208.344,150.642 208,150.48 207.67,150.291C207.362,150.116 207.071,149.914 206.799,149.687C206.581,149.512 206.399,149.296 206.264,149.051C206.158,148.857 206.137,148.628 206.207,148.418C206.278,148.208 206.47,148.014 206.785,147.832C207.092,147.653 207.434,147.542 207.787,147.506C208.145,147.471 208.507,147.483 208.862,147.542C209.226,147.602 209.589,147.704 209.949,147.85C210.31,147.996 210.656,148.165 210.989,148.357ZM214.04,150.087L215.069,150.681L216.892,149.629L205.761,143.203L203.844,144.31L207.897,146.65L207.87,146.665C207.281,146.562 206.679,146.56 206.09,146.658C205.514,146.758 205.019,146.926 204.605,147.165C204.092,147.461 203.758,147.789 203.605,148.147C203.452,148.493 203.439,148.885 203.568,149.24C203.696,149.61 203.946,149.978 204.32,150.344C204.693,150.711 205.15,151.05 205.691,151.362C206.252,151.686 206.858,151.96 207.508,152.185C208.144,152.406 208.8,152.561 209.468,152.646C210.124,152.729 210.768,152.724 211.397,152.63C212.005,152.544 212.592,152.343 213.125,152.038C213.584,151.773 213.9,151.479 214.072,151.158C214.244,150.837 214.225,150.485 214.013,150.103L214.04,150.087ZM218.139,143.257L215.021,145.057C214.862,144.953 214.714,144.833 214.578,144.701C214.439,144.571 214.334,144.409 214.274,144.228C214.22,144.05 214.234,143.858 214.315,143.691C214.398,143.505 214.593,143.324 214.899,143.147C215.367,142.877 215.861,142.76 216.382,142.795C216.902,142.831 217.488,142.985 218.139,143.257ZM216.424,145.867L221.459,142.96C220.854,142.57 220.207,142.249 219.531,142.003C218.839,141.747 218.121,141.57 217.39,141.476C216.675,141.381 215.95,141.385 215.235,141.486C214.548,141.581 213.886,141.808 213.285,142.153C212.754,142.46 212.379,142.802 212.161,143.18C211.949,143.53 211.867,143.944 211.93,144.349C211.995,144.749 212.201,145.149 212.55,145.548C212.898,145.947 213.374,146.32 213.977,146.668C214.6,147.028 215.255,147.31 215.941,147.514C216.608,147.715 217.296,147.837 217.991,147.879C218.656,147.919 219.324,147.87 219.976,147.731C220.604,147.599 221.208,147.369 221.765,147.049C222.557,146.592 223.024,146.082 223.167,145.52C223.309,144.958 223.032,144.32 222.335,143.606L220.648,144.58C220.834,144.761 220.9,144.996 220.844,145.286C220.789,145.576 220.567,145.833 220.18,146.056C219.659,146.363 219.06,146.515 218.455,146.494C217.845,146.475 217.168,146.266 216.424,145.867Z" style="fill:rgb(45,83,109);"/>
            <g transform="matrix(1,0,0,1,0,23)">
                <path d="M293.245,96.365L293.245,84.58L0.251,84.58L0.251,96.365L146.748,180.945L293.245,96.365Z" style="fill:rgb(191,83,79);"/>
                <path d="M292.994,84.58L146.497,0L0,84.58L146.497,169.16L292.994,84.58Z" style="fill:rgb(255,109,104);"/>
                <path d="M110.919,104.117L117.265,100.454C115.125,99.432 112.868,98.679 110.543,98.212C108.325,97.762 106.064,97.564 103.802,97.622C101.603,97.686 99.499,97.982 97.492,98.51C95.484,99.039 93.66,99.777 92.018,100.725C89.736,102.042 88.148,103.497 87.258,105.087C86.367,106.678 86.115,108.308 86.501,109.977C86.888,111.646 87.848,113.309 89.381,114.966C90.915,116.623 92.967,118.193 95.538,119.677C98.069,121.135 100.759,122.3 103.554,123.148C106.332,124.004 109.199,124.543 112.098,124.755C114.958,124.96 117.757,124.801 120.496,124.277C123.235,123.753 125.745,122.833 128.027,121.515C129.864,120.454 131.227,119.297 132.115,118.042C133.003,116.787 133.407,115.478 133.326,114.114C133.246,112.75 132.686,111.366 131.647,109.962C130.607,108.559 129.094,107.187 127.108,105.848L120.763,109.511C122.826,110.992 124.001,112.466 124.288,113.933C124.575,115.4 123.716,116.712 121.712,117.869C120.254,118.715 118.64,119.259 116.967,119.468C115.261,119.682 113.534,119.658 111.835,119.397C110.098,119.135 108.394,118.692 106.749,118.075C105.139,117.478 103.581,116.748 102.092,115.893C100.582,115.021 99.266,114.093 98.144,113.107C97.022,112.122 96.227,111.125 95.758,110.115C95.29,109.106 95.241,108.113 95.612,107.138C95.982,106.163 96.906,105.25 98.381,104.399C99.188,103.933 100.113,103.575 101.156,103.325C102.225,103.073 103.318,102.936 104.416,102.918C105.543,102.896 106.67,102.981 107.781,103.174C108.894,103.366 109.94,103.681 110.919,104.117ZM133.027,98.033C131.517,97.161 130.2,96.232 129.079,95.247C127.957,94.262 127.162,93.265 126.693,92.255C126.224,91.245 126.176,90.253 126.547,89.278C126.918,88.303 127.841,87.39 129.316,86.538C130.774,85.692 132.388,85.149 134.061,84.94C135.775,84.726 137.511,84.755 139.217,85.024C140.966,85.295 142.694,85.754 144.4,86.402C146.067,87.031 147.681,87.793 149.225,88.681C150.671,89.516 151.931,90.412 153.005,91.369C154.078,92.327 154.841,93.306 155.294,94.306C155.746,95.306 155.787,96.294 155.416,97.269C155.045,98.244 154.122,99.157 152.647,100.009C151.188,100.854 149.575,101.398 147.902,101.608C146.213,101.822 144.502,101.798 142.77,101.537C141.033,101.275 139.328,100.832 137.683,100.215C136.073,99.618 134.516,98.888 133.027,98.033ZM126.473,101.817C129.004,103.275 131.694,104.44 134.489,105.288C137.267,106.144 140.134,106.683 143.033,106.895C145.893,107.1 148.692,106.94 151.43,106.417C154.169,105.893 156.68,104.972 158.962,103.655C161.272,102.321 162.874,100.868 163.767,99.294C164.66,97.721 164.929,96.109 164.575,94.458C164.22,92.807 163.293,91.163 161.791,89.525C160.29,87.887 158.286,86.344 155.779,84.897C153.201,83.41 150.464,82.218 147.619,81.343C144.81,80.469 141.911,79.911 138.978,79.68C136.155,79.453 133.315,79.596 130.529,80.105C127.788,80.611 125.262,81.531 122.952,82.865C120.67,84.182 119.084,85.636 118.193,87.227C117.302,88.817 117.049,90.447 117.436,92.117C117.823,93.786 118.783,95.449 120.316,97.106C121.85,98.762 123.902,100.333 126.473,101.817ZM165.644,77.866L155.328,71.91L160.421,68.969C161.18,68.532 161.97,68.15 162.784,67.827C163.612,67.499 164.482,67.287 165.369,67.198C166.267,67.106 167.214,67.163 168.209,67.368C169.203,67.573 170.247,67.99 171.34,68.621C172.433,69.252 173.156,69.855 173.511,70.429C173.866,71.004 173.964,71.55 173.805,72.069C173.645,72.587 173.282,73.085 172.715,73.561C172.148,74.037 171.488,74.492 170.737,74.925L165.644,77.866ZM142.892,72.299L177.311,92.17L183.865,88.386L171.525,81.261L178.413,77.284C180.278,76.208 181.551,75.111 182.232,73.994C182.914,72.877 183.151,71.785 182.943,70.717C182.736,69.649 182.153,68.622 181.195,67.635C180.237,66.648 179.067,65.755 177.686,64.958C176.209,64.114 174.646,63.43 173.024,62.917C171.3,62.368 169.516,62.034 167.71,61.922C165.808,61.806 163.899,61.944 162.034,62.333C160.099,62.726 158.2,63.461 156.335,64.538L142.892,72.299ZM199.479,63.898L212.88,71.635L219.434,67.851L206.226,60.225L196.078,41.592L188.772,45.81L195.436,57.659L174.871,53.836L167.523,58.078L199.479,63.898Z" style="fill:rgb(147,49,49);"/>
            </g>
            <g transform="matrix(1,0,0,1,0,12)">
                <path d="M293.245,96.365L293.245,84.58L0.251,84.58L0.251,96.365L146.748,180.944L293.245,96.365Z" style="fill:rgb(224,176,59);"/>
                <path d="M292.994,84.58L146.497,0L0,84.58L146.497,169.16L292.994,84.58Z" style="fill:rgb(255,200,67);"/>
                <path d="M107.15,99.295L97.46,93.701L104.641,89.555C106.144,88.688 107.649,88.255 109.155,88.257C110.662,88.259 112.251,88.743 113.922,89.708C115.657,90.71 116.535,91.65 116.555,92.529C116.575,93.408 115.833,94.282 114.33,95.15L107.15,99.295ZM85.025,94.09L119.444,113.962L125.998,110.177L112.549,102.412L119.103,98.628C120.745,97.68 122.346,97.239 123.905,97.303C125.464,97.368 127.255,97.855 129.277,98.766C130.826,99.467 132.398,100.23 133.992,101.054C135.585,101.878 137.11,102.501 138.564,102.922L145.118,99.138C144.281,99.025 143.46,98.817 142.67,98.52C141.811,98.203 140.968,97.845 140.143,97.447C139.33,97.056 138.526,96.648 137.731,96.223C136.964,95.812 136.293,95.457 135.719,95.158C134.767,94.675 133.794,94.234 132.803,93.836C131.794,93.427 130.751,93.107 129.686,92.88C128.643,92.657 127.579,92.544 126.512,92.542C125.433,92.544 124.36,92.704 123.327,93.017L123.231,92.961C124.129,91.552 124.208,90.207 123.468,88.928C122.727,87.649 121.344,86.425 119.319,85.256C117.97,84.482 116.527,83.884 115.026,83.476C113.471,83.049 111.872,82.805 110.26,82.749C108.648,82.688 107.035,82.825 105.456,83.157C103.886,83.488 102.434,84.039 101.098,84.81L85.025,94.09ZM161.869,74.439L140.465,62.081L133.911,65.865L155.314,78.223C157.885,79.707 159.328,81.054 159.643,82.264C159.957,83.474 158.946,84.754 156.608,86.104C155.272,86.875 153.99,87.364 152.763,87.572C151.536,87.779 150.355,87.812 149.218,87.67C148.095,87.532 146.997,87.239 145.955,86.799C144.94,86.372 143.953,85.882 142.999,85.333L121.596,72.976L115.041,76.76L136.445,89.117C141.137,91.826 145.714,93.191 150.176,93.213C154.638,93.234 158.887,92.08 162.923,89.75C166.903,87.452 168.887,84.998 168.876,82.389C168.864,79.779 166.529,77.129 161.869,74.439ZM146.101,58.827L180.52,78.699L186.657,75.156L163.615,61.853L163.698,61.804L199.139,67.949L205.694,64.165L171.275,44.293L165.138,47.837L188.229,61.168L188.145,61.216L152.614,55.067L146.101,58.827ZM162.679,134.663L170.738,139.316L172.655,138.209L168.431,135.77C167.61,135.296 167.137,134.888 167.013,134.546C166.888,134.204 167.087,133.882 167.609,133.581C168.044,133.32 168.558,133.225 169.058,133.311C169.566,133.396 170.152,133.63 170.817,134.014L175.369,136.642L177.286,135.536L172.329,132.674C171.854,132.398 171.36,132.156 170.85,131.952C170.387,131.765 169.902,131.64 169.407,131.579C168.925,131.524 168.437,131.544 167.961,131.64C167.471,131.737 166.97,131.933 166.457,132.23C166.052,132.463 165.762,132.754 165.588,133.1C165.414,133.446 165.44,133.825 165.664,134.235L165.624,134.259L164.502,133.611L162.679,134.663ZM180.818,131.822C180.512,131.999 180.178,132.108 179.816,132.149C179.455,132.189 179.092,132.18 178.728,132.12C178.351,132.057 177.981,131.953 177.626,131.811C177.268,131.671 176.92,131.505 176.587,131.313C176.276,131.136 175.98,130.933 175.702,130.708C175.444,130.497 175.261,130.285 175.152,130.071C175.046,129.878 175.02,129.65 175.081,129.438C175.141,129.229 175.329,129.033 175.644,128.851C175.952,128.674 176.294,128.566 176.647,128.534C177.018,128.499 177.392,128.513 177.759,128.576C178.138,128.639 178.513,128.743 178.883,128.889C179.253,129.036 179.599,129.202 179.922,129.388C180.244,129.574 180.534,129.772 180.792,129.984C181.049,130.195 181.23,130.406 181.333,130.616C181.436,130.826 181.455,131.034 181.389,131.241C181.323,131.447 181.133,131.641 180.818,131.822ZM170.685,130.041L181.565,136.323L183.482,135.216L179.663,133.011L179.69,132.995C180.284,133.088 180.89,133.088 181.484,132.995C182.011,132.915 182.519,132.741 182.983,132.48C183.496,132.184 183.829,131.86 183.983,131.507C184.137,131.154 184.15,130.792 184.022,130.422C183.894,130.052 183.644,129.687 183.271,129.326C182.857,128.935 182.397,128.596 181.901,128.317C181.329,127.987 180.718,127.707 180.067,127.477C179.433,127.25 178.776,127.095 178.107,127.015C177.464,126.938 176.813,126.945 176.171,127.035C175.545,127.123 174.942,127.331 174.395,127.647C173.963,127.896 173.666,128.182 173.503,128.504C173.34,128.825 173.36,129.18 173.563,129.567L173.536,129.583L172.507,128.989L170.685,130.041ZM178.987,125.247L187.046,129.9L188.963,128.794L184.287,126.094C183.892,125.866 183.622,125.652 183.477,125.454C183.331,125.256 183.264,125.079 183.273,124.924C183.28,124.774 183.339,124.632 183.44,124.521C183.542,124.409 183.638,124.326 183.728,124.274C184.034,124.098 184.325,123.998 184.602,123.976C184.879,123.954 185.15,123.981 185.415,124.056C185.68,124.131 185.934,124.234 186.177,124.363C186.42,124.493 186.661,124.627 186.9,124.765L191.42,127.375L193.337,126.268L188.848,123.676C188.608,123.539 188.376,123.387 188.155,123.221C187.969,123.091 187.811,122.925 187.689,122.734C187.594,122.587 187.566,122.407 187.613,122.238C187.66,122.073 187.818,121.913 188.088,121.757C188.358,121.601 188.624,121.508 188.885,121.477C189.145,121.446 189.408,121.458 189.664,121.513C189.922,121.568 190.179,121.66 190.436,121.787C190.693,121.915 190.957,122.057 191.227,122.213L195.794,124.85L197.711,123.743L192.318,120.629C191.798,120.329 191.291,120.109 190.796,119.969C190.334,119.833 189.855,119.761 189.373,119.755C188.93,119.751 188.489,119.812 188.064,119.935C187.651,120.054 187.254,120.223 186.882,120.437C186.396,120.718 186.111,121.039 186.025,121.4C185.94,121.761 185.971,122.103 186.117,122.427C185.429,122.248 184.804,122.207 184.242,122.303C183.713,122.388 183.204,122.566 182.738,122.83C182.279,123.095 181.986,123.396 181.859,123.733C181.732,124.07 181.751,124.432 181.914,124.817L181.887,124.833L180.796,124.203L178.987,125.247ZM195.641,114.192L193.817,113.139L191.9,114.246L193.724,115.299L195.641,114.192ZM194.971,116.019L203.03,120.672L204.947,119.565L196.888,114.912L194.971,116.019ZM198.4,114.039L206.459,118.692L208.376,117.586L204.152,115.147C203.331,114.673 202.858,114.264 202.734,113.922C202.609,113.58 202.808,113.259 203.33,112.957C203.765,112.696 204.279,112.601 204.779,112.687C205.287,112.772 205.873,113.007 206.538,113.391L211.09,116.019L213.007,114.912L208.05,112.05C207.575,111.774 207.081,111.533 206.571,111.329C206.108,111.142 205.623,111.017 205.128,110.956C204.646,110.9 204.158,110.921 203.682,111.017C203.152,111.129 202.644,111.328 202.178,111.606C201.773,111.84 201.483,112.13 201.309,112.477C201.135,112.823 201.161,113.201 201.385,113.612L201.345,113.635L200.223,112.987L198.4,114.039ZM213.331,111.701L211.508,112.753C212.067,113.055 212.622,113.253 213.174,113.349C214.215,113.533 215.285,113.445 216.282,113.093C216.743,112.933 217.188,112.73 217.611,112.488C217.983,112.277 218.33,112.025 218.646,111.737C218.94,111.466 219.126,111.181 219.205,110.884C219.284,110.586 219.236,110.281 219.062,109.967C218.888,109.654 218.536,109.344 218.006,109.038C217.655,108.831 217.273,108.684 216.874,108.602C216.499,108.528 216.117,108.501 215.735,108.522C215.357,108.542 214.983,108.599 214.614,108.692C214.244,108.786 213.884,108.892 213.532,109.011C213.189,109.125 212.856,109.239 212.533,109.354C212.209,109.469 211.907,109.562 211.627,109.634C211.347,109.706 211.081,109.742 210.83,109.743C210.58,109.743 210.355,109.687 210.158,109.573C209.992,109.477 209.895,109.38 209.869,109.281C209.841,109.186 209.855,109.084 209.906,108.999C209.968,108.897 210.051,108.809 210.149,108.741C210.572,108.422 211.069,108.216 211.593,108.141C211.996,108.083 212.424,108.169 212.877,108.399L214.699,107.347C214.205,107.093 213.676,106.916 213.129,106.822C212.171,106.661 211.188,106.749 210.274,107.076C209.85,107.227 209.44,107.415 209.049,107.639C208.695,107.84 208.364,108.077 208.059,108.346C207.777,108.598 207.588,108.863 207.493,109.141C207.397,109.418 207.427,109.703 207.585,109.997C207.742,110.29 208.08,110.587 208.6,110.887C208.953,111.091 209.315,111.227 209.685,111.295C210.055,111.363 210.424,111.384 210.792,111.358C211.163,111.331 211.531,111.269 211.891,111.173C212.255,111.077 212.613,110.969 212.965,110.85C213.815,110.551 214.515,110.34 215.063,110.215C215.612,110.09 216.053,110.124 216.385,110.316C216.583,110.43 216.706,110.547 216.755,110.669C216.804,110.791 216.806,110.909 216.763,111.025C216.711,111.152 216.631,111.265 216.529,111.357C216.417,111.464 216.293,111.557 216.159,111.634C215.752,111.868 215.296,112.005 214.827,112.034C214.575,112.049 214.322,112.031 214.075,111.982C213.813,111.931 213.561,111.836 213.331,111.701ZM216.085,103.829L213.669,102.434L211.752,103.541L214.168,104.936L213.007,105.606L214.488,106.461L215.649,105.791L220.403,108.536C220.809,108.77 221.195,108.925 221.561,109.001C221.908,109.077 222.264,109.096 222.617,109.058C222.955,109.019 223.28,108.936 223.592,108.81C223.907,108.683 224.212,108.533 224.506,108.363C224.695,108.254 224.883,108.139 225.071,108.019C225.238,107.914 225.397,107.798 225.548,107.671L223.834,106.681C223.764,106.745 223.685,106.809 223.597,106.872C223.502,106.939 223.403,107.002 223.302,107.06C222.978,107.247 222.7,107.336 222.467,107.326C222.234,107.317 221.931,107.204 221.557,106.988L217.566,104.684L218.97,103.873L217.489,103.018L216.085,103.829ZM220.805,103.966C220.312,103.65 219.993,103.337 219.848,103.024C219.705,102.741 219.68,102.413 219.778,102.111C219.876,101.814 220.072,101.53 220.367,101.258C220.661,100.986 221.001,100.738 221.388,100.515C221.739,100.312 222.123,100.124 222.541,99.949C222.958,99.774 223.398,99.649 223.861,99.573C224.332,99.498 224.811,99.491 225.284,99.553C225.769,99.615 226.256,99.787 226.744,100.069L230.938,102.49C231.301,102.7 231.668,102.89 232.036,103.062C232.405,103.233 232.717,103.34 232.973,103.384L231.029,104.507C230.715,104.407 230.41,104.283 230.115,104.135C230.173,104.521 230.067,104.876 229.799,105.199C229.502,105.545 229.146,105.836 228.748,106.058C228.415,106.25 228.058,106.402 227.676,106.515C227.288,106.628 226.888,106.69 226.484,106.699C226.061,106.709 225.639,106.662 225.229,106.56C224.787,106.448 224.364,106.275 223.971,106.044C223.514,105.78 223.207,105.522 223.05,105.27C222.894,105.019 222.837,104.778 222.881,104.549C222.925,104.32 223.045,104.098 223.24,103.883C223.435,103.669 223.65,103.463 223.886,103.267C224.123,103.07 224.364,102.883 224.612,102.704C224.86,102.525 225.061,102.355 225.214,102.194C225.368,102.033 225.448,101.882 225.455,101.74C225.461,101.599 225.346,101.464 225.108,101.338C224.901,101.213 224.674,101.121 224.438,101.068C224.055,100.986 223.656,101.021 223.293,101.17C223.115,101.243 222.942,101.328 222.775,101.425C222.397,101.643 222.193,101.868 222.164,102.101C222.135,102.334 222.321,102.586 222.722,102.859L220.805,103.966ZM226.869,102.355C226.868,102.46 226.829,102.562 226.761,102.642C226.678,102.748 226.586,102.846 226.486,102.936C226.37,103.041 226.25,103.14 226.125,103.234C225.995,103.333 225.868,103.437 225.744,103.544C225.635,103.641 225.534,103.747 225.444,103.862C225.363,103.957 225.31,104.071 225.29,104.194C225.276,104.313 225.307,104.433 225.375,104.531C225.447,104.646 225.587,104.763 225.795,104.883C226.148,105.091 226.556,105.185 226.964,105.153C227.15,105.135 227.331,105.094 227.506,105.029C227.681,104.964 227.845,104.887 227.998,104.799C228.376,104.581 228.596,104.37 228.657,104.166C228.721,103.977 228.698,103.77 228.594,103.6C228.483,103.418 228.336,103.261 228.161,103.139C228.011,103.03 227.856,102.927 227.696,102.832L226.869,102.355ZM223.139,96.21L234.269,102.636L236.186,101.529L225.056,95.103L223.139,96.21ZM226.622,94.199L237.752,100.625L239.669,99.519L228.539,93.093L226.622,94.199Z" style="fill:rgb(165,130,52);"/>
            </g>
            <path d="M292.994,96.365L292.994,84.58L0,84.58L0,96.365L146.497,180.945L292.994,96.365Z" style="fill:rgb(0,174,117);"/>
            <path d="M292.994,84.58L146.497,0L0,84.58L146.497,169.16L292.994,84.58Z" style="fill:rgb(111,193,115);"/>
            <path d="M110.886,94.794L117.232,91.13C115.092,90.108 112.835,89.355 110.51,88.888C108.293,88.438 106.032,88.24 103.77,88.299C101.57,88.362 99.467,88.658 97.46,89.187C95.452,89.715 93.627,90.453 91.985,91.401C89.703,92.719 88.116,94.173 87.225,95.763C86.335,97.354 86.082,98.984 86.469,100.653C86.855,102.322 87.815,103.985 89.349,105.642C90.882,107.299 92.934,108.869 95.505,110.353C98.036,111.812 100.726,112.976 103.521,113.824C106.3,114.68 109.166,115.219 112.066,115.432C114.925,115.636 117.724,115.477 120.463,114.953C123.202,114.429 125.712,113.509 127.995,112.191C129.831,111.131 131.194,109.973 132.082,108.718C132.97,107.463 133.374,106.154 133.294,104.79C133.214,103.426 132.654,102.042 131.614,100.639C130.575,99.235 129.062,97.863 127.075,96.524L120.73,100.187C122.793,101.668 123.968,103.142 124.255,104.609C124.542,106.076 123.684,107.388 121.68,108.545C120.222,109.391 118.607,109.935 116.934,110.144C115.228,110.358 113.501,110.334 111.802,110.073C110.065,109.811 108.361,109.368 106.716,108.752C105.106,108.154 103.549,107.424 102.06,106.569C100.549,105.697 99.233,104.769 98.111,103.784C96.989,102.798 96.194,101.801 95.726,100.791C95.257,99.782 95.208,98.789 95.579,97.814C95.95,96.84 96.873,95.926 98.349,95.075C99.155,94.609 100.08,94.251 101.123,94.001C102.192,93.749 103.286,93.612 104.384,93.594C105.514,93.572 106.636,93.657 107.749,93.85C108.862,94.042 109.907,94.357 110.886,94.794ZM110.38,81.727L144.799,101.598L150.936,98.055L126.785,84.112L126.868,84.064L158.325,93.789L163.376,90.873L146.29,72.572L146.374,72.524L170.766,86.607L176.903,83.063L142.484,63.192L133.258,68.518L150.331,85.992L150.247,86.04L119.606,76.4L110.38,81.727ZM182.855,72.279L161.162,59.755L165.838,57.056C167.452,56.124 169.074,55.493 170.704,55.165C172.33,54.836 173.997,54.766 175.645,54.956C177.309,55.146 178.986,55.56 180.676,56.198C182.453,56.878 184.171,57.701 185.815,58.659C187.711,59.753 189.109,60.802 190.009,61.803C190.909,62.805 191.421,63.743 191.545,64.618C191.668,65.493 191.462,66.29 190.925,67.008C190.387,67.726 189.646,68.359 188.7,68.905L182.855,72.279ZM148.245,59.866L182.664,79.737L195.522,72.314C197.804,70.996 199.345,69.596 200.145,68.114C200.945,66.631 201.138,65.119 200.722,63.578C200.307,62.037 199.317,60.493 197.752,58.947C196.188,57.401 194.152,55.904 191.646,54.457C188.786,52.806 185.954,51.565 183.151,50.734C180.348,49.903 177.634,49.429 175.01,49.311C172.385,49.194 169.891,49.409 167.528,49.957C165.165,50.505 163.023,51.333 161.103,52.442L148.245,59.866Z" style="fill:rgb(0,106,70);"/>
            <g transform="matrix(0.866026,-0.499999,1.50001,0.288674,-106.058,-531.884)">
                <g transform="matrix(15.5884,0,-9.00006,15.5885,-960.845,716.904)">
                    <path d="M0.058,-0.517L0.058,0L0.2,0L0.2,-0.3C0.2,-0.325 0.204,-0.346 0.211,-0.362C0.218,-0.377 0.227,-0.389 0.238,-0.398C0.248,-0.406 0.259,-0.412 0.27,-0.415C0.281,-0.418 0.289,-0.419 0.296,-0.419C0.319,-0.419 0.336,-0.415 0.348,-0.408C0.359,-0.4 0.368,-0.39 0.373,-0.377C0.378,-0.364 0.38,-0.35 0.381,-0.336C0.382,-0.321 0.382,-0.305 0.382,-0.29L0.382,0L0.524,0L0.524,-0.288C0.524,-0.304 0.525,-0.32 0.528,-0.336C0.53,-0.351 0.535,-0.365 0.542,-0.378C0.549,-0.39 0.558,-0.4 0.571,-0.408C0.583,-0.415 0.599,-0.419 0.619,-0.419C0.639,-0.419 0.655,-0.416 0.667,-0.409C0.678,-0.402 0.687,-0.393 0.693,-0.382C0.699,-0.371 0.703,-0.357 0.704,-0.342C0.705,-0.327 0.706,-0.31 0.706,-0.293L0.706,0L0.848,0L0.848,-0.346C0.848,-0.379 0.843,-0.408 0.834,-0.432C0.825,-0.455 0.812,-0.474 0.795,-0.489C0.778,-0.504 0.758,-0.514 0.735,-0.521C0.712,-0.528 0.686,-0.531 0.659,-0.531C0.623,-0.531 0.592,-0.522 0.566,-0.505C0.539,-0.488 0.518,-0.468 0.503,-0.445C0.489,-0.477 0.468,-0.499 0.442,-0.512C0.415,-0.525 0.385,-0.531 0.352,-0.531C0.318,-0.531 0.288,-0.524 0.262,-0.509C0.235,-0.494 0.213,-0.474 0.194,-0.447L0.192,-0.447L0.192,-0.517L0.058,-0.517Z" style="fill:rgb(0,106,70);fill-rule:nonzero;"/>
                </g>
                <g transform="matrix(15.5884,0,-9.00006,15.5885,-946.722,716.904)">
                    <path d="M0.34,0L0.515,-0.517L0.374,-0.517L0.265,-0.164L0.263,-0.164L0.154,-0.517L0.005,-0.517L0.182,0L0.34,0Z" style="fill:rgb(0,106,70);fill-rule:nonzero;"/>
                </g>
                <g transform="matrix(15.5884,0,-9.00006,15.5885,-938.616,716.904)">
                    <path d="M0.054,-0.517L0.054,0L0.196,0L0.196,-0.271C0.196,-0.324 0.205,-0.362 0.222,-0.385C0.239,-0.407 0.267,-0.419 0.306,-0.419C0.34,-0.419 0.364,-0.409 0.377,-0.388C0.39,-0.367 0.397,-0.335 0.397,-0.292L0.397,0L0.539,0L0.539,-0.318C0.539,-0.35 0.536,-0.379 0.531,-0.406C0.525,-0.432 0.515,-0.454 0.501,-0.473C0.487,-0.491 0.468,-0.505 0.444,-0.516C0.419,-0.526 0.388,-0.531 0.35,-0.531C0.32,-0.531 0.291,-0.524 0.262,-0.511C0.233,-0.497 0.21,-0.475 0.192,-0.445L0.189,-0.445L0.189,-0.517L0.054,-0.517Z" style="fill:rgb(0,106,70);fill-rule:nonzero;"/>
                </g>
                <g transform="matrix(15.5884,0,-9.00006,15.5885,-925.038,716.904)">
                    <path d="M0.164,-0.168L0.029,-0.168C0.03,-0.133 0.038,-0.105 0.053,-0.082C0.067,-0.058 0.085,-0.04 0.108,-0.026C0.13,-0.012 0.155,-0.002 0.184,0.004C0.213,0.01 0.242,0.013 0.272,0.013C0.301,0.013 0.33,0.01 0.359,0.005C0.387,-0.001 0.412,-0.011 0.434,-0.025C0.456,-0.039 0.474,-0.057 0.488,-0.081C0.501,-0.103 0.508,-0.132 0.508,-0.166C0.508,-0.19 0.503,-0.21 0.494,-0.227C0.485,-0.243 0.472,-0.257 0.457,-0.268C0.442,-0.279 0.424,-0.287 0.405,-0.294C0.385,-0.301 0.365,-0.306 0.344,-0.311C0.324,-0.316 0.304,-0.32 0.285,-0.324C0.266,-0.328 0.249,-0.333 0.234,-0.338C0.219,-0.343 0.206,-0.349 0.197,-0.357C0.188,-0.365 0.183,-0.375 0.183,-0.388C0.183,-0.399 0.186,-0.407 0.191,-0.414C0.196,-0.42 0.203,-0.425 0.211,-0.428C0.218,-0.431 0.227,-0.434 0.236,-0.435C0.245,-0.436 0.254,-0.436 0.262,-0.436C0.287,-0.436 0.309,-0.431 0.328,-0.422C0.347,-0.412 0.357,-0.393 0.359,-0.366L0.494,-0.366C0.491,-0.398 0.483,-0.425 0.47,-0.446C0.456,-0.467 0.439,-0.483 0.418,-0.496C0.397,-0.509 0.374,-0.518 0.348,-0.523C0.321,-0.528 0.294,-0.531 0.266,-0.531C0.238,-0.531 0.211,-0.529 0.184,-0.524C0.157,-0.519 0.133,-0.51 0.112,-0.498C0.091,-0.485 0.074,-0.468 0.061,-0.447C0.048,-0.426 0.041,-0.398 0.041,-0.365C0.041,-0.342 0.046,-0.323 0.055,-0.308C0.064,-0.292 0.077,-0.279 0.092,-0.269C0.107,-0.258 0.125,-0.25 0.145,-0.244C0.164,-0.237 0.184,-0.232 0.205,-0.227C0.256,-0.216 0.295,-0.206 0.324,-0.195C0.352,-0.184 0.366,-0.168 0.366,-0.147C0.366,-0.134 0.363,-0.124 0.357,-0.116C0.351,-0.107 0.343,-0.1 0.335,-0.096C0.326,-0.09 0.316,-0.087 0.305,-0.085C0.294,-0.082 0.283,-0.081 0.273,-0.081C0.259,-0.081 0.246,-0.083 0.233,-0.086C0.22,-0.089 0.208,-0.094 0.198,-0.102C0.188,-0.109 0.18,-0.118 0.174,-0.129C0.167,-0.139 0.164,-0.153 0.164,-0.168Z" style="fill:rgb(0,106,70);fill-rule:nonzero;"/>
                </g>
                <g transform="matrix(15.5884,0,-9.00006,15.5885,-916.667,716.904)">
                    <path d="M0.315,-0.093C0.292,-0.093 0.273,-0.098 0.257,-0.107C0.241,-0.116 0.228,-0.129 0.219,-0.144C0.209,-0.159 0.202,-0.176 0.198,-0.196C0.193,-0.216 0.191,-0.236 0.191,-0.257C0.191,-0.278 0.193,-0.299 0.197,-0.319C0.201,-0.339 0.208,-0.357 0.218,-0.372C0.227,-0.387 0.24,-0.4 0.256,-0.41C0.271,-0.419 0.291,-0.424 0.314,-0.424C0.337,-0.424 0.356,-0.419 0.372,-0.41C0.387,-0.4 0.4,-0.387 0.41,-0.372C0.42,-0.356 0.427,-0.338 0.432,-0.318C0.436,-0.298 0.438,-0.278 0.438,-0.257C0.438,-0.236 0.436,-0.216 0.432,-0.196C0.428,-0.176 0.421,-0.159 0.412,-0.144C0.402,-0.129 0.389,-0.116 0.374,-0.107C0.358,-0.098 0.338,-0.093 0.315,-0.093ZM0.054,-0.517L0.054,0.181L0.196,0.181L0.196,-0.064L0.198,-0.064C0.215,-0.039 0.238,-0.02 0.265,-0.007C0.292,0.007 0.321,0.013 0.353,0.013C0.391,0.013 0.424,0.006 0.453,-0.009C0.481,-0.024 0.505,-0.043 0.524,-0.068C0.543,-0.093 0.557,-0.121 0.566,-0.153C0.575,-0.185 0.58,-0.218 0.58,-0.253C0.58,-0.29 0.575,-0.325 0.566,-0.359C0.557,-0.392 0.542,-0.422 0.523,-0.447C0.504,-0.472 0.479,-0.493 0.45,-0.508C0.421,-0.523 0.386,-0.531 0.345,-0.531C0.313,-0.531 0.284,-0.525 0.257,-0.512C0.23,-0.499 0.208,-0.479 0.191,-0.451L0.189,-0.451L0.189,-0.517L0.054,-0.517Z" style="fill:rgb(0,106,70);fill-rule:nonzero;"/>
                </g>
                <g transform="matrix(15.5884,0,-9.00006,15.5885,-907.143,716.904)">
                    <path d="M0.054,-0.517L0.054,0L0.196,0L0.196,-0.233C0.196,-0.256 0.198,-0.278 0.203,-0.298C0.208,-0.318 0.216,-0.335 0.227,-0.351C0.238,-0.366 0.252,-0.377 0.27,-0.386C0.288,-0.395 0.31,-0.399 0.336,-0.399C0.345,-0.399 0.354,-0.399 0.363,-0.398C0.372,-0.397 0.38,-0.395 0.387,-0.394L0.387,-0.526C0.376,-0.529 0.365,-0.531 0.356,-0.531C0.338,-0.531 0.321,-0.528 0.304,-0.523C0.287,-0.518 0.272,-0.51 0.257,-0.501C0.242,-0.491 0.229,-0.479 0.218,-0.466C0.207,-0.452 0.198,-0.437 0.191,-0.421L0.189,-0.421L0.189,-0.517L0.054,-0.517Z" style="fill:rgb(0,106,70);fill-rule:nonzero;"/>
                </g>
                <g transform="matrix(15.5884,0,-9.00006,15.5885,-901.079,716.904)">
                    <path d="M0.2,-0.597L0.2,-0.714L0.058,-0.714L0.058,-0.597L0.2,-0.597ZM0.058,-0.517L0.058,0L0.2,0L0.2,-0.517L0.058,-0.517Z" style="fill:rgb(0,106,70);fill-rule:nonzero;"/>
                </g>
                <g transform="matrix(15.5884,0,-9.00006,15.5885,-897.057,716.904)">
                    <path d="M0.054,-0.517L0.054,0L0.196,0L0.196,-0.271C0.196,-0.324 0.205,-0.362 0.222,-0.385C0.239,-0.407 0.267,-0.419 0.306,-0.419C0.34,-0.419 0.364,-0.409 0.377,-0.388C0.39,-0.367 0.397,-0.335 0.397,-0.292L0.397,0L0.539,0L0.539,-0.318C0.539,-0.35 0.536,-0.379 0.531,-0.406C0.525,-0.432 0.515,-0.454 0.501,-0.473C0.487,-0.491 0.468,-0.505 0.444,-0.516C0.419,-0.526 0.388,-0.531 0.35,-0.531C0.32,-0.531 0.291,-0.524 0.262,-0.511C0.233,-0.497 0.21,-0.475 0.192,-0.445L0.189,-0.445L0.189,-0.517L0.054,-0.517Z" style="fill:rgb(0,106,70);fill-rule:nonzero;"/>
                </g>
                <g transform="matrix(15.5884,0,-9.00006,15.5885,-887.813,716.904)">
                    <path d="M0.295,-0.122C0.273,-0.122 0.255,-0.127 0.24,-0.136C0.225,-0.145 0.214,-0.157 0.205,-0.172C0.196,-0.187 0.189,-0.203 0.186,-0.222C0.182,-0.24 0.18,-0.258 0.18,-0.277C0.18,-0.296 0.182,-0.315 0.187,-0.333C0.191,-0.35 0.198,-0.366 0.208,-0.38C0.217,-0.393 0.229,-0.404 0.244,-0.412C0.258,-0.42 0.275,-0.424 0.295,-0.424C0.318,-0.424 0.338,-0.42 0.353,-0.411C0.368,-0.402 0.381,-0.391 0.39,-0.376C0.399,-0.361 0.406,-0.345 0.41,-0.326C0.414,-0.307 0.416,-0.286 0.416,-0.265C0.416,-0.246 0.414,-0.229 0.409,-0.212C0.404,-0.195 0.396,-0.179 0.386,-0.166C0.376,-0.153 0.363,-0.142 0.348,-0.134C0.333,-0.126 0.315,-0.122 0.295,-0.122ZM0.551,-0.033L0.551,-0.517L0.416,-0.517L0.416,-0.448L0.414,-0.448C0.397,-0.478 0.375,-0.499 0.35,-0.512C0.324,-0.525 0.294,-0.531 0.26,-0.531C0.224,-0.531 0.192,-0.524 0.165,-0.51C0.137,-0.496 0.114,-0.477 0.095,-0.454C0.076,-0.43 0.062,-0.403 0.053,-0.372C0.043,-0.341 0.038,-0.308 0.038,-0.275C0.038,-0.24 0.042,-0.206 0.051,-0.175C0.059,-0.143 0.072,-0.115 0.09,-0.092C0.108,-0.068 0.131,-0.049 0.159,-0.036C0.187,-0.022 0.22,-0.015 0.259,-0.015C0.29,-0.015 0.32,-0.022 0.349,-0.035C0.377,-0.048 0.399,-0.068 0.414,-0.095L0.416,-0.095L0.416,-0.027C0.417,0.01 0.408,0.04 0.39,0.064C0.371,0.088 0.342,0.1 0.302,0.1C0.277,0.1 0.254,0.095 0.235,0.085C0.216,0.074 0.203,0.056 0.196,0.029L0.055,0.029C0.057,0.058 0.065,0.084 0.08,0.105C0.094,0.126 0.112,0.143 0.134,0.156C0.155,0.169 0.179,0.179 0.206,0.186C0.232,0.192 0.258,0.195 0.283,0.195C0.342,0.195 0.39,0.187 0.425,0.171C0.46,0.155 0.487,0.135 0.506,0.113C0.525,0.09 0.537,0.065 0.543,0.038C0.548,0.011 0.551,-0.012 0.551,-0.033Z" style="fill:rgb(0,106,70);fill-rule:nonzero;"/>
                </g>
                <g transform="matrix(15.5884,0,-9.00006,15.5885,-878.289,716.904)">
                    <rect x="0.053" y="-0.334" width="0.301" height="0.122" style="fill:rgb(0,106,70);fill-rule:nonzero;"/>
                </g>
                <g transform="matrix(15.5884,0,-9.00006,15.5885,-871.944,716.904)">
                    <path d="M0.433,-0.258C0.433,-0.237 0.431,-0.216 0.426,-0.196C0.421,-0.176 0.414,-0.158 0.404,-0.143C0.394,-0.128 0.382,-0.115 0.367,-0.107C0.352,-0.097 0.333,-0.093 0.312,-0.093C0.291,-0.093 0.273,-0.097 0.258,-0.107C0.243,-0.115 0.23,-0.128 0.22,-0.143C0.21,-0.158 0.203,-0.176 0.198,-0.196C0.193,-0.216 0.191,-0.237 0.191,-0.258C0.191,-0.28 0.193,-0.301 0.198,-0.321C0.203,-0.341 0.21,-0.359 0.22,-0.374C0.23,-0.389 0.243,-0.402 0.258,-0.411C0.273,-0.42 0.291,-0.424 0.312,-0.424C0.333,-0.424 0.352,-0.42 0.367,-0.411C0.382,-0.402 0.394,-0.389 0.404,-0.374C0.414,-0.359 0.421,-0.341 0.426,-0.321C0.431,-0.301 0.433,-0.28 0.433,-0.258ZM0.054,-0.714L0.054,0L0.189,0L0.189,-0.066L0.191,-0.066C0.206,-0.037 0.229,-0.017 0.259,-0.005C0.289,0.007 0.323,0.013 0.361,0.013C0.387,0.013 0.413,0.008 0.438,-0.003C0.463,-0.014 0.486,-0.03 0.507,-0.052C0.527,-0.074 0.543,-0.102 0.556,-0.137C0.569,-0.171 0.575,-0.212 0.575,-0.259C0.575,-0.306 0.569,-0.347 0.556,-0.382C0.543,-0.416 0.527,-0.444 0.507,-0.466C0.486,-0.488 0.463,-0.504 0.438,-0.515C0.413,-0.526 0.387,-0.531 0.361,-0.531C0.329,-0.531 0.298,-0.525 0.269,-0.513C0.239,-0.5 0.215,-0.481 0.198,-0.454L0.196,-0.454L0.196,-0.714L0.054,-0.714Z" style="fill:rgb(0,106,70);fill-rule:nonzero;"/>
                </g>
                <g transform="matrix(15.5884,0,-9.00006,15.5885,-862.42,716.904)">
                    <path d="M0.18,-0.258C0.18,-0.279 0.182,-0.299 0.186,-0.319C0.19,-0.339 0.197,-0.357 0.207,-0.372C0.216,-0.387 0.229,-0.4 0.245,-0.41C0.261,-0.419 0.281,-0.424 0.305,-0.424C0.329,-0.424 0.349,-0.419 0.366,-0.41C0.382,-0.4 0.395,-0.387 0.405,-0.372C0.414,-0.357 0.421,-0.339 0.425,-0.319C0.429,-0.299 0.431,-0.279 0.431,-0.258C0.431,-0.237 0.429,-0.217 0.425,-0.198C0.421,-0.178 0.414,-0.16 0.405,-0.145C0.395,-0.129 0.382,-0.116 0.366,-0.107C0.349,-0.098 0.329,-0.093 0.305,-0.093C0.281,-0.093 0.261,-0.098 0.245,-0.107C0.229,-0.116 0.216,-0.129 0.207,-0.145C0.197,-0.16 0.19,-0.178 0.186,-0.198C0.182,-0.217 0.18,-0.237 0.18,-0.258ZM0.038,-0.258C0.038,-0.217 0.044,-0.179 0.057,-0.146C0.07,-0.113 0.088,-0.084 0.111,-0.061C0.134,-0.037 0.162,-0.019 0.195,-0.006C0.228,0.007 0.264,0.013 0.305,0.013C0.346,0.013 0.383,0.007 0.416,-0.006C0.449,-0.019 0.477,-0.037 0.5,-0.061C0.523,-0.084 0.541,-0.113 0.554,-0.146C0.567,-0.179 0.573,-0.217 0.573,-0.258C0.573,-0.299 0.567,-0.337 0.554,-0.371C0.541,-0.404 0.523,-0.433 0.5,-0.457C0.477,-0.48 0.449,-0.499 0.416,-0.512C0.383,-0.525 0.346,-0.531 0.305,-0.531C0.264,-0.531 0.228,-0.525 0.195,-0.512C0.162,-0.499 0.134,-0.48 0.111,-0.457C0.088,-0.433 0.07,-0.404 0.057,-0.371C0.044,-0.337 0.038,-0.299 0.038,-0.258Z" style="fill:rgb(0,106,70);fill-rule:nonzero;"/>
                </g>
                <g transform="matrix(15.5884,0,-9.00006,15.5885,-852.895,716.904)">
                    <path d="M0.18,-0.258C0.18,-0.279 0.182,-0.299 0.186,-0.319C0.19,-0.339 0.197,-0.357 0.207,-0.372C0.216,-0.387 0.229,-0.4 0.245,-0.41C0.261,-0.419 0.281,-0.424 0.305,-0.424C0.329,-0.424 0.349,-0.419 0.366,-0.41C0.382,-0.4 0.395,-0.387 0.405,-0.372C0.414,-0.357 0.421,-0.339 0.425,-0.319C0.429,-0.299 0.431,-0.279 0.431,-0.258C0.431,-0.237 0.429,-0.217 0.425,-0.198C0.421,-0.178 0.414,-0.16 0.405,-0.145C0.395,-0.129 0.382,-0.116 0.366,-0.107C0.349,-0.098 0.329,-0.093 0.305,-0.093C0.281,-0.093 0.261,-0.098 0.245,-0.107C0.229,-0.116 0.216,-0.129 0.207,-0.145C0.197,-0.16 0.19,-0.178 0.186,-0.198C0.182,-0.217 0.18,-0.237 0.18,-0.258ZM0.038,-0.258C0.038,-0.217 0.044,-0.179 0.057,-0.146C0.07,-0.113 0.088,-0.084 0.111,-0.061C0.134,-0.037 0.162,-0.019 0.195,-0.006C0.228,0.007 0.264,0.013 0.305,0.013C0.346,0.013 0.383,0.007 0.416,-0.006C0.449,-0.019 0.477,-0.037 0.5,-0.061C0.523,-0.084 0.541,-0.113 0.554,-0.146C0.567,-0.179 0.573,-0.217 0.573,-0.258C0.573,-0.299 0.567,-0.337 0.554,-0.371C0.541,-0.404 0.523,-0.433 0.5,-0.457C0.477,-0.48 0.449,-0.499 0.416,-0.512C0.383,-0.525 0.346,-0.531 0.305,-0.531C0.264,-0.531 0.228,-0.525 0.195,-0.512C0.162,-0.499 0.134,-0.48 0.111,-0.457C0.088,-0.433 0.07,-0.404 0.057,-0.371C0.044,-0.337 0.038,-0.299 0.038,-0.258Z" style="fill:rgb(0,106,70);fill-rule:nonzero;"/>
                </g>
                <g transform="matrix(15.5884,0,-9.00006,15.5885,-843.37,716.904)">
                    <path d="M0.234,-0.517L0.234,-0.672L0.092,-0.672L0.092,-0.517L0.006,-0.517L0.006,-0.422L0.092,-0.422L0.092,-0.117C0.092,-0.091 0.096,-0.07 0.105,-0.054C0.114,-0.038 0.126,-0.026 0.141,-0.017C0.156,-0.008 0.173,-0.003 0.193,0.001C0.212,0.004 0.233,0.005 0.255,0.005C0.269,0.005 0.283,0.005 0.298,0.004C0.313,0.003 0.326,0.002 0.338,0L0.338,-0.11C0.331,-0.109 0.324,-0.108 0.317,-0.107C0.31,-0.106 0.302,-0.106 0.294,-0.106C0.27,-0.106 0.254,-0.11 0.246,-0.118C0.238,-0.126 0.234,-0.142 0.234,-0.166L0.234,-0.422L0.338,-0.422L0.338,-0.517L0.234,-0.517Z" style="fill:rgb(0,106,70);fill-rule:nonzero;"/>
                </g>
                <g transform="matrix(15.5884,0,-9.00006,15.5885,-837.883,716.904)">
                    <path d="M0.218,-0.354L0.218,-0.508L0.061,-0.508L0.061,-0.354L0.218,-0.354ZM0.061,-0.154L0.061,0L0.218,0L0.218,-0.154L0.061,-0.154Z" style="fill:rgb(0,106,70);fill-rule:nonzero;"/>
                </g>
                <g transform="matrix(15.5884,0,-9.00006,15.5885,-833.55,716.904)">
                    <path d="M0.054,-0.517L0.054,0L0.196,0L0.196,-0.233C0.196,-0.256 0.198,-0.278 0.203,-0.298C0.208,-0.318 0.216,-0.335 0.227,-0.351C0.238,-0.366 0.252,-0.377 0.27,-0.386C0.288,-0.395 0.31,-0.399 0.336,-0.399C0.345,-0.399 0.354,-0.399 0.363,-0.398C0.372,-0.397 0.38,-0.395 0.387,-0.394L0.387,-0.526C0.376,-0.529 0.365,-0.531 0.356,-0.531C0.338,-0.531 0.321,-0.528 0.304,-0.523C0.287,-0.518 0.272,-0.51 0.257,-0.501C0.242,-0.491 0.229,-0.479 0.218,-0.466C0.207,-0.452 0.198,-0.437 0.191,-0.421L0.189,-0.421L0.189,-0.517L0.054,-0.517Z" style="fill:rgb(0,106,70);fill-rule:nonzero;"/>
                </g>
                <g transform="matrix(15.5884,0,-9.00006,15.5885,-827.486,716.904)">
                    <path d="M0.539,0L0.539,-0.517L0.397,-0.517L0.397,-0.246C0.397,-0.193 0.388,-0.156 0.371,-0.133C0.354,-0.11 0.326,-0.098 0.287,-0.098C0.253,-0.098 0.229,-0.109 0.216,-0.13C0.203,-0.151 0.196,-0.182 0.196,-0.225L0.196,-0.517L0.054,-0.517L0.054,-0.199C0.054,-0.167 0.057,-0.138 0.063,-0.112C0.068,-0.085 0.078,-0.063 0.092,-0.045C0.106,-0.026 0.125,-0.012 0.15,-0.002C0.174,0.008 0.205,0.013 0.243,0.013C0.273,0.013 0.302,0.006 0.331,-0.007C0.36,-0.02 0.383,-0.042 0.401,-0.072L0.404,-0.072L0.404,0L0.539,0Z" style="fill:rgb(0,106,70);fill-rule:nonzero;"/>
                </g>
                <g transform="matrix(15.5884,0,-9.00006,15.5885,-818.242,716.904)">
                    <path d="M0.054,-0.517L0.054,0L0.196,0L0.196,-0.271C0.196,-0.324 0.205,-0.362 0.222,-0.385C0.239,-0.407 0.267,-0.419 0.306,-0.419C0.34,-0.419 0.364,-0.409 0.377,-0.388C0.39,-0.367 0.397,-0.335 0.397,-0.292L0.397,0L0.539,0L0.539,-0.318C0.539,-0.35 0.536,-0.379 0.531,-0.406C0.525,-0.432 0.515,-0.454 0.501,-0.473C0.487,-0.491 0.468,-0.505 0.444,-0.516C0.419,-0.526 0.388,-0.531 0.35,-0.531C0.32,-0.531 0.291,-0.524 0.262,-0.511C0.233,-0.497 0.21,-0.475 0.192,-0.445L0.189,-0.445L0.189,-0.517L0.054,-0.517Z" style="fill:rgb(0,106,70);fill-rule:nonzero;"/>
                </g>
            </g>
        </g>
        <g transform="matrix(1,0,0,1,329,442)">
            <path d="M0,20.5L54,20.5" style="fill:none;stroke:rgb(69,90,100);stroke-width:15px;"/>
            <path d="M82.218,23.194C84.544,21.706 84.548,19.297 82.218,17.807L57.423,1.951C52.771,-1.024 49,1.046 49,6.57L49,34.43C49,39.956 52.778,42.02 57.423,39.05L82.218,23.193L82.218,23.194Z" style="fill:rgb(69,90,100);"/>
        </g>
    </g>
</svg>
