<svg viewBox="0 0 741 531" xmlns="http://www.w3.org/2000/svg" fill-rule="evenodd" clip-rule="evenodd"><g transform="matrix(1,0,0,1,27,40)"><path d="M292.994 365.655V353.87H0v11.785l146.497 84.58 146.497-84.58z" fill="#005FAD"></path><path d="M292.994 353.87l-146.497-84.58L0 353.87l146.497 84.58 146.497-84.58z" fill="#0071CE"></path><path d="M66.692 376.24l34.418 19.872 6.555-3.784-14.221-8.21 12.482-7.207-5.881-3.396-12.482 7.207-7.954-4.592 14.403-8.315-6.363-3.674-20.957 12.099zm46.88-9.087l-9.689-5.594 7.181-4.146c1.503-.868 3.007-1.3 4.514-1.298 1.507.002 3.096.485 4.767 1.45 1.735 1.002 2.613 1.943 2.633 2.822.019.879-.722 1.752-2.225 2.62l-7.181 4.146zm-22.124-5.206l34.419 19.872 6.554-3.784-13.45-7.765 6.555-3.784c1.642-.948 3.242-1.39 4.802-1.325 1.559.064 3.35.552 5.372 1.462a101.33 101.33 0 0 1 4.714 2.288c1.594.824 3.118 1.447 4.573 1.869l6.554-3.784a11.296 11.296 0 0 1-2.448-.618 28.643 28.643 0 0 1-2.528-1.074 64.119 64.119 0 0 1-2.411-1.224c-.767-.41-1.438-.765-2.012-1.065a37.619 37.619 0 0 0-2.916-1.322 18.737 18.737 0 0 0-3.117-.956 15.32 15.32 0 0 0-3.174-.338 11.054 11.054 0 0 0-3.185.475l-.097-.055c.899-1.41.978-2.754.237-4.034-.741-1.279-2.123-2.503-4.148-3.672a18.195 18.195 0 0 0-4.293-1.779 20.659 20.659 0 0 0-4.766-.728 19.72 19.72 0 0 0-4.804.408c-1.57.331-3.023.883-4.359 1.654l-16.072 9.279zm52.755-10.419c-1.51-.872-2.826-1.801-3.948-2.786-1.122-.985-1.917-1.983-2.386-2.992-.468-1.01-.517-2.002-.146-2.977.371-.975 1.294-1.888 2.769-2.74a12.562 12.562 0 0 1 4.746-1.599 18.402 18.402 0 0 1 5.156.085c1.749.27 3.476.729 5.182 1.377a33.162 33.162 0 0 1 4.825 2.28c1.447.835 2.706 1.731 3.78 2.688 1.074.957 1.837 1.936 2.289 2.937.453 1 .494 1.988.123 2.963-.371.974-1.294 1.888-2.769 2.739a12.567 12.567 0 0 1-4.746 1.599c-1.706.214-3.433.19-5.132-.071a25.233 25.233 0 0 1-5.086-1.321 30.991 30.991 0 0 1-4.657-2.182zm-6.554 3.784a38.466 38.466 0 0 0 8.016 3.471 38.695 38.695 0 0 0 8.545 1.607c2.859.204 5.658.045 8.397-.479 2.739-.523 5.249-1.444 7.531-2.762 2.311-1.333 3.912-2.787 4.805-4.36.893-1.573 1.163-3.185.808-4.836-.354-1.651-1.282-3.295-2.783-4.934-1.502-1.638-3.506-3.18-6.012-4.627a39.575 39.575 0 0 0-8.161-3.555 39.55 39.55 0 0 0-8.641-1.663 32.597 32.597 0 0 0-8.449.425c-2.741.506-5.266 1.426-7.576 2.76-2.282 1.318-3.869 2.772-4.76 4.362-.891 1.591-1.143 3.221-.756 4.89.386 1.67 1.346 3.333 2.88 4.989 1.533 1.657 3.585 3.227 6.156 4.712zm16.42-29.519l34.418 19.872 6.137-3.543-24.151-13.944.084-.048 31.457 9.726 5.051-2.917-17.086-18.301.083-.048 24.392 14.083 6.137-3.543-34.419-19.872-9.226 5.327 17.073 17.473-.083.049-30.641-9.641-9.226 5.327z" fill="#2D536D"></path><path d="M159.123 406.314c-.487-.313-.815-.627-.956-.942a10.193 3.398 0 0 1-.07-.914 11.963 3.988 0 0 1 .587-.86 15.159 5.053 0 0 1 1.024-.735c.351-.203.732-.388 1.143-.571a5.792 5.792 0 0 1 1.329-.371c.47-.073.947-.078 1.414-.025.502.07.987.241 1.47.52l4.192 2.421a18.481 6.16 0 0 0 1.1.572c.367.166.67.279.936.323l-1.943 1.122a3.136 3.136 0 0 1-.472-.178 5.033 5.033 0 0 1-.444-.194c.05.387-.037.742-.316 1.065a11.473 3.824 0 0 1-1.05.859 4.856 4.856 0 0 1-1.07.456 4.57 4.57 0 0 1-1.194.185 4.869 4.869 0 0 1-2.513-.656 7.638 2.546 0 0 1-.922-.781 7.257 2.42 0 0 1-.16-.717 9.52 3.173 0 0 1 .35-.67c.205-.21.41-.418.648-.609.236-.19.473-.381.725-.563.253-.181.449-.349.603-.51.153-.16.235-.315.232-.458.01-.133-.09-.27-.338-.398a2.356 2.356 0 0 0-.672-.278.74.247 0 0 0-.599-.033 1.874.625 0 0 0-.546.136 9.544 3.181 0 0 0-.518.262c-.378.218-.58.444-.61.676-.029.233.162.483.557.759l-1.917 1.107zm6.065-1.612a2.726.909 0 0 1-.11.28 2.313 2.313 0 0 1-.266.298 4.772 4.772 0 0 1-.368.302 11.232 3.744 0 0 0-.674.624 4.22 1.406 0 0 0-.075.673c.073.12.215.234.418.352.203.117.387.19.596.233.206.042.396.058.567.032.186-.018.369-.052.55-.12a3.43 3.43 0 0 0 .491-.23c.378-.218.597-.434.66-.632a.669.669 0 0 0-.072-.571 6.582 2.194 0 0 0-.418-.46c-.19-.125-.348-.232-.473-.304l-.826-.477zm8.25-4.889c.326.19.627.394.884.605a9.722 3.24 0 0 1 .558.633.762.762 0 0 1 .093.63c-.076.206-.27.407-.58.586a2.315 2.315 0 0 1-.99.302 3.868 3.868 0 0 1-1.118-.038 5.132 5.132 0 0 1-1.136-.298 6.712 6.712 0 0 1-1.03-.485 5.289 5.289 0 0 1-.872-.613 8.816 2.939 0 0 1-.526-.632.745.745 0 0 1-.065-.629c.076-.205.267-.406.577-.586.31-.179.659-.29 1.003-.326.342-.036.705-.03 1.072.028.358.065.732.172 1.083.312.365.149.72.322 1.047.511zm3.05 1.73l1.03.595 1.822-1.052-11.13-6.426-1.917 1.106 4.053 2.34-.026.016a5.508 5.508 0 0 0-1.782-.015 4.443 4.443 0 0 0-1.484.514c-.513.297-.85.617-1.008.978a12.374 4.125 0 0 0-.023 1.093 14.378 4.793 0 0 0 .745 1.1 16.856 5.619 0 0 0 1.371 1.026 12.095 4.032 0 0 0 1.824.82 8.443 8.443 0 0 0 1.952.456 6.637 6.637 0 0 0 1.923-.012 4.573 4.573 0 0 0 1.736-.588c.46-.265.784-.56.945-.888.178-.319.15-.662-.057-1.047l.026-.015zm1.972-4.593a6.43 6.43 0 0 1-.87-.596c-.258-.211-.444-.428-.543-.64a.832.832 0 0 1-.079-.639c.076-.205.267-.406.59-.593a2.832 2.832 0 0 1 1.044-.35 4.55 4.55 0 0 1 1.118.038 3.897 1.299 0 0 1 1.096.321 11.146 3.715 0 0 1 1.033.502c.327.19.613.385.853.587a9.722 3.24 0 0 1 .557.633c.115.222.141.44.065.646a4.919 1.64 0 0 1-.605.602 2.707 2.707 0 0 1-1.028.341 3.51 3.51 0 0 1-1.104-.046 4.978 4.978 0 0 1-1.111-.313 7.825 7.825 0 0 1-1.016-.493zm-1.918 1.107a8.933 8.933 0 0 0 4.057 1.204 7.442 7.442 0 0 0 1.991-.16 6.06 6.06 0 0 0 1.782-.686c.554-.32.959-.662 1.202-1.037a12.909 4.303 0 0 0 .277-1.15 15.488 5.163 0 0 0-2.084-2.341 9.08 9.08 0 0 0-2.02-.87 9.445 9.445 0 0 0-2.068-.352 2.915.972 0 0 0-1.992.16c-.65.14-1.24.374-1.795.694-.553.32-.946.654-1.188 1.028a13.683 4.561 0 0 0-.278 1.15 16.385 5.462 0 0 0 .611 1.194 15.788 5.263 0 0 0 1.505 1.166zm14.565-5.44c-.31.18-.645.283-1 .327a1.294.431 0 0 1-1.091-.037 4.833 4.833 0 0 1-1.092-.305 6.7 6.7 0 0 1-1.046-.494 6.696 6.696 0 0 1-.887-.604c-.258-.212-.443-.428-.542-.641a.832.832 0 0 1-.079-.639c.062-.197.253-.398.564-.578.31-.179.645-.282 1.002-.326a4.862 4.862 0 0 1 1.105.046c.385.066.76.173 1.139.315a11.146 3.715 0 0 1 1.03.502c.328.19.614.384.872.596a9.412 3.137 0 0 1 .54.624.86.86 0 0 1 .064.629c-.076.205-.268.406-.579.586zm-10.133-1.781l10.883 6.282 1.916-1.107-3.82-2.205.027-.016c.62.093 1.226.085 1.793-.008a4.13 4.13 0 0 0 1.501-.507c.513-.296.848-.616 1.007-.977a12.738 4.246 0 0 0 .038-1.084c-.133-.374-.38-.735-.758-1.093a7.19 7.19 0 0 0-1.37-1.009 11.497 11.497 0 0 0-1.84-.845 9.058 9.058 0 0 0-1.953-.457 2.576.859 0 0 0-1.938.02 4.942 4.942 0 0 0-1.774.612c-.432.25-.731.53-.893.857a9.336 3.112 0 0 0 .059 1.063l-.026.015-1.029-.593-1.822 1.052zm10.675-6.163l-2.415-1.395-1.917 1.107 2.416 1.395-1.16.67 1.479.855 1.16-.67 4.755 2.745c.405.234.788.391 1.158.465.372.074.72.089 1.063.053a4.07 4.07 0 0 0 .982-.244c.304-.12.603-.275.9-.447.189-.109.379-.218.565-.344a13.268 4.422 0 0 0 .478-.348l-1.715-.99-.237.19c-.079.065-.186.127-.294.19-.324.186-.604.275-.835.265-.233-.01-.537-.122-.911-.338l-3.99-2.304 1.403-.81-1.48-.856-1.404.81zm8.063.007a6.43 6.43 0 0 1-.869-.596c-.259-.211-.444-.428-.543-.64a.832.832 0 0 1-.08-.639c.076-.205.267-.406.59-.593a2.832 2.832 0 0 1 1.044-.35 4.55 4.55 0 0 1 1.118.038 3.897 1.299 0 0 1 1.096.321 11.146 3.715 0 0 1 1.033.502c.327.19.613.385.853.587a9.722 3.24 0 0 1 .557.633c.116.223.142.44.066.646a4.919 1.64 0 0 1-.606.602 2.707 2.707 0 0 1-1.028.341 3.51 3.51 0 0 1-1.104-.046 4.978 4.978 0 0 1-1.11-.313 7.825 7.825 0 0 1-1.017-.493zm-1.917 1.107a8.933 8.933 0 0 0 4.057 1.204 7.442 7.442 0 0 0 1.99-.16 6.06 6.06 0 0 0 1.782-.686c.555-.32.96-.662 1.202-1.037a12.909 4.303 0 0 0 .277-1.15 15.488 5.163 0 0 0-2.084-2.341 9.08 9.08 0 0 0-2.019-.87 9.445 9.445 0 0 0-2.069-.352 2.915.972 0 0 0-1.992.16c-.649.14-1.24.374-1.795.694-.553.32-.946.654-1.188 1.028a13.683 4.561 0 0 0-.278 1.15 16.385 5.462 0 0 0 .612 1.194 15.788 5.263 0 0 0 1.505 1.166zm14.556-5.434c-.31.179-.646.282-1.001.326a1.294.431 0 0 1-1.09-.037 4.833 4.833 0 0 1-1.093-.305 6.7 6.7 0 0 1-1.045-.494 6.696 6.696 0 0 1-.888-.604c-.257-.212-.443-.428-.542-.641a.832.832 0 0 1-.078-.639c.062-.197.253-.398.564-.578.31-.179.645-.282 1.002-.326a4.862 4.862 0 0 1 1.104.046c.386.066.76.173 1.14.315a11.146 3.715 0 0 1 1.03.502c.328.19.614.384.872.596a9.412 3.137 0 0 1 .54.624.86.86 0 0 1 .064.629c-.076.205-.268.406-.58.586zm-10.134-1.782l10.883 6.282 1.917-1.107-3.82-2.205.027-.016a5.78 5.78 0 0 0 1.792-.008 4.13 4.13 0 0 0 1.502-.507c.512-.296.848-.616 1.007-.977a12.738 4.246 0 0 0 .037-1.084c-.133-.374-.38-.735-.757-1.093a7.19 7.19 0 0 0-1.37-1.009 11.497 11.497 0 0 0-1.841-.845 9.058 9.058 0 0 0-1.953-.457 2.576.859 0 0 0-1.937.02 4.942 4.942 0 0 0-1.775.612c-.432.25-.73.53-.892.857a9.336 3.112 0 0 0 .058 1.063l-.026.015-1.028-.593-1.822 1.052zm16.117-5.65l-3.118 1.8a8.885 2.962 0 0 1-.436-.36.973.973 0 0 1-.305-.473.81.81 0 0 1 .034-.541c.092-.18.274-.357.584-.536a2.58 2.58 0 0 1 1.49-.356c.526.039 1.095.196 1.751.465zm-1.715 2.61l5.035-2.907a13.434 4.478 0 0 0-1.928-.958 6.055 2.018 0 0 0-2.134-.53 2.707.902 0 0 0-2.17.01 5.389 5.389 0 0 0-1.943.671c-.527.304-.902.648-1.117 1.023a14.099 4.7 0 0 0-.245 1.168c.08.404.288.805.628 1.204a14.712 4.904 0 0 0 1.426 1.12c.624.36 1.28.646 1.972.842a8.683 8.683 0 0 0 2.042.368 7.332 7.332 0 0 0 1.979-.152 5.754 5.754 0 0 0 1.796-.677c.797-.46 1.27-.967 1.402-1.53.133-.562-.136-1.2-.832-1.913l-1.687.974c.182.183.253.412.188.701a5.075 1.692 0 0 1-.657.775 3.136 3.136 0 0 1-1.724.438c-.61-.025-1.288-.229-2.031-.627zm1.595-6.195l8.06 4.653 1.916-1.107-4.223-2.44c-.828-.476-1.298-.888-1.429-1.227a4.618 1.54 0 0 1 .605-.961c.459-.265.939-.362 1.443-.275.502.088 1.096.321 1.766.708l4.552 2.628 1.917-1.106-4.957-2.862a12.97 12.97 0 0 0-1.48-.73 6.19 6.19 0 0 0-1.45-.37 4.95 4.95 0 0 0-1.439.058 5.13 5.13 0 0 0-1.503.598 2.252 2.252 0 0 0-.877.866c-.172.352-.14.729.086 1.14l-.041.023-1.123-.648-1.823 1.052zm8.856-6.553l-1.824-1.053-1.917 1.107 1.824 1.053 1.917-1.107zm7.176 7.682l1.825 1.053a3.68 3.68 0 0 0 .67-.315 11.691 3.897 0 0 0 1.062-.774c.2-.243.317-.472.303-.698-.026-.218-.156-.45-.373-.667a13.008 4.336 0 0 0-.966-.683l-8.451-4.878-1.917 1.107 8.34 4.815c.298.17.433.327.377.466a3.483 1.161 0 0 1-.401.376 1.57 1.57 0 0 1-.469.198zm4.69-8.467c.325.19.627.394.884.605a9.722 3.24 0 0 1 .557.633c.13.215.155.433.093.63-.076.206-.269.407-.579.586a2.315 2.315 0 0 1-.99.302 3.868 3.868 0 0 1-1.118-.038 5.132 5.132 0 0 1-1.136-.298 6.712 6.712 0 0 1-1.03-.485 5.289 5.289 0 0 1-.872-.613 8.816 2.939 0 0 1-.527-.632.745.745 0 0 1-.064-.629c.075-.205.266-.406.577-.586.31-.179.658-.29 1.002-.326.343-.036.706-.03 1.072.028.358.065.732.172 1.083.312.366.149.72.322 1.047.511zm3.05 1.73l1.03.595 1.822-1.052-11.13-6.426-1.917 1.106 4.053 2.34-.027.016a5.508 5.508 0 0 0-1.782-.015 4.443 4.443 0 0 0-1.483.514c-.514.297-.85.617-1.009.978a12.374 4.125 0 0 0-.022 1.093 14.378 4.793 0 0 0 .745 1.1 16.856 5.619 0 0 0 1.37 1.026 12.095 4.032 0 0 0 1.824.82 8.443 8.443 0 0 0 1.953.456 6.637 6.637 0 0 0 1.922-.012 4.573 4.573 0 0 0 1.737-.588c.459-.265.784-.56.944-.888.179-.319.151-.662-.057-1.047l.026-.015zm-6.657-7.82l11.13 6.427 1.917-1.107-2.775-1.602-.084-.906 5.519.972 2.321-1.34-8.026-1.252-.33-3.23-2.268 1.31.484 3.069-5.97-3.447-1.918 1.107z" fill="#2D536D" fill-rule="nonzero"></path><path d="M293.245 300.547v-11.785H.251v11.785l146.497 84.58 146.497-84.58z" fill="#BF534F"></path><path d="M292.994 288.762l-146.497-84.58L0 288.762l146.497 84.58 146.497-84.58z" fill="#FF6D68"></path><path d="M110.919 308.299l6.346-3.663a28.72 28.72 0 0 0-6.722-2.242 30.029 30.029 0 0 0-6.741-.59c-2.199.064-4.303.36-6.31.888-2.008.529-3.832 1.267-5.474 2.215-2.282 1.317-3.87 2.772-4.76 4.362-.891 1.591-1.143 3.221-.757 4.89.387 1.669 1.347 3.332 2.88 4.989 1.534 1.657 3.586 3.227 6.157 4.711a38.39 38.39 0 0 0 8.016 3.471 38.571 38.571 0 0 0 8.544 1.607c2.86.205 5.659.046 8.398-.478s5.249-1.444 7.531-2.762c1.837-1.061 3.2-2.218 4.088-3.473.888-1.255 1.292-2.564 1.211-3.928-.08-1.364-.64-2.748-1.679-4.152-1.04-1.403-2.553-2.775-4.539-4.114l-6.345 3.663c2.063 1.481 3.238 2.955 3.525 4.422.287 1.467-.572 2.779-2.576 3.936a12.557 12.557 0 0 1-4.745 1.599c-1.706.214-3.433.19-5.132-.071a25.17 25.17 0 0 1-5.086-1.322 30.991 30.991 0 0 1-4.657-2.182c-1.51-.872-2.826-1.8-3.948-2.786-1.122-.985-1.917-1.982-2.386-2.992-.468-1.009-.517-2.002-.146-2.977.37-.975 1.294-1.888 2.769-2.739.807-.466 1.732-.824 2.775-1.074a15.302 15.302 0 0 1 3.26-.407 17.649 17.649 0 0 1 3.365.256c1.113.192 2.159.507 3.138.943zm22.108-6.084c-1.51-.872-2.827-1.801-3.948-2.786-1.122-.985-1.917-1.982-2.386-2.992-.469-1.01-.517-2.002-.146-2.977.371-.975 1.294-1.888 2.769-2.74a12.555 12.555 0 0 1 4.745-1.598 18.44 18.44 0 0 1 5.156.084c1.749.271 3.477.73 5.183 1.378a33.157 33.157 0 0 1 4.825 2.279c1.446.835 2.706 1.731 3.78 2.688 1.073.958 1.836 1.937 2.289 2.937.452 1 .493 1.988.122 2.963-.371.975-1.294 1.888-2.769 2.74a12.598 12.598 0 0 1-4.745 1.599c-1.689.214-3.4.19-5.132-.071a25.178 25.178 0 0 1-5.087-1.322 30.98 30.98 0 0 1-4.656-2.182zm-6.554 3.784a38.39 38.39 0 0 0 8.016 3.471 38.571 38.571 0 0 0 8.544 1.607c2.86.205 5.659.045 8.397-.478 2.739-.524 5.25-1.445 7.532-2.762 2.31-1.334 3.912-2.787 4.805-4.361.893-1.573 1.162-3.185.808-4.836-.355-1.651-1.282-3.295-2.784-4.933-1.501-1.638-3.505-3.181-6.012-4.628a39.672 39.672 0 0 0-8.16-3.554 39.538 39.538 0 0 0-8.641-1.663 32.51 32.51 0 0 0-8.449.425c-2.741.506-5.267 1.426-7.577 2.76-2.282 1.317-3.868 2.771-4.759 4.362-.891 1.59-1.144 3.22-.757 4.89.387 1.669 1.347 3.332 2.88 4.989 1.534 1.656 3.586 3.227 6.157 4.711zm39.171-23.951l-10.316-5.956 5.093-2.941a18.163 18.163 0 0 1 2.363-1.142 9.63 9.63 0 0 1 2.585-.629c.898-.092 1.845-.035 2.84.17.994.205 2.038.622 3.131 1.253 1.093.631 1.816 1.234 2.171 1.808.355.575.453 1.121.294 1.64-.16.518-.523 1.016-1.09 1.492-.567.476-1.227.931-1.978 1.364l-5.093 2.941zm-22.752-5.567l34.419 19.871 6.554-3.784-12.34-7.125 6.888-3.977c1.865-1.076 3.138-2.173 3.819-3.29.682-1.117.919-2.209.711-3.277-.207-1.068-.79-2.095-1.748-3.082-.958-.987-2.128-1.88-3.509-2.677a23.958 23.958 0 0 0-4.662-2.041 21.996 21.996 0 0 0-5.314-.995 21.415 21.415 0 0 0-5.676.411c-1.935.393-3.834 1.128-5.699 2.205l-13.443 7.761zm56.587-8.401l13.401 7.737 6.554-3.784-13.208-7.626-10.148-18.633-7.306 4.218 6.664 11.849-20.565-3.823-7.348 4.242 31.956 5.82z" fill="#933131"></path><path d="M293.245 195.075V183.29H.251v11.785l146.497 84.579 146.497-84.579z" fill="#E0B03B"></path><path d="M292.994 183.29L146.497 98.71 0 183.29l146.497 84.58 146.497-84.58z" fill="#FFC843"></path><path d="M107.15 198.005l-9.69-5.594 7.181-4.146c1.503-.867 3.008-1.3 4.514-1.298 1.507.002 3.096.486 4.767 1.451 1.735 1.002 2.613 1.942 2.633 2.821.02.879-.722 1.753-2.225 2.621l-7.18 4.145zM85.025 192.8l34.419 19.872 6.554-3.785-13.449-7.765 6.554-3.784c1.642-.948 3.243-1.389 4.802-1.325 1.559.065 3.35.552 5.372 1.463 1.549.701 3.121 1.464 4.715 2.288 1.593.824 3.118 1.447 4.572 1.868l6.554-3.784a11.225 11.225 0 0 1-2.448-.618 28.616 28.616 0 0 1-2.527-1.073 63.406 63.406 0 0 1-2.412-1.224c-.767-.411-1.438-.766-2.012-1.065a36.555 36.555 0 0 0-2.916-1.322 18.643 18.643 0 0 0-3.117-.956 15.32 15.32 0 0 0-3.174-.338 11.054 11.054 0 0 0-3.185.475l-.096-.056c.898-1.409.977-2.754.237-4.033-.741-1.279-2.124-2.503-4.149-3.672a18.24 18.24 0 0 0-4.293-1.78 20.712 20.712 0 0 0-4.766-.727 19.72 19.72 0 0 0-4.804.408c-1.57.331-3.022.882-4.358 1.653l-16.073 9.28zm76.844-19.651l-21.404-12.358-6.554 3.784 21.403 12.358c2.571 1.484 4.014 2.831 4.329 4.041.314 1.21-.697 2.49-3.035 3.84-1.336.771-2.618 1.26-3.845 1.468-1.227.207-2.408.24-3.545.098a12.218 12.218 0 0 1-3.263-.871 26.631 26.631 0 0 1-2.956-1.466l-21.403-12.357-6.555 3.784 21.404 12.357c4.692 2.709 9.269 4.074 13.731 4.096 4.462.021 8.711-1.133 12.747-3.463 3.98-2.298 5.964-4.752 5.953-7.361-.012-2.61-2.347-5.26-7.007-7.95zm-15.768-15.612l34.419 19.872 6.137-3.543-23.042-13.303.083-.049 35.441 6.145 6.555-3.784-34.419-19.872-6.137 3.544 23.091 13.331-.084.048-35.531-6.149-6.513 3.76z" fill="#A58234"></path><path d="M162.917 230.56l8.059 4.653 1.917-1.107-4.677-2.7c-.39-.225-.664-.445-.817-.644-.14-.189-.204-.367-.197-.534.01-.15.065-.29.167-.402a1.15 1.15 0 0 1 .287-.239c.311-.18.604-.276.875-.306.274-.014.55.005.82.084.27.078.516.188.748.307.246.127.497.27.73.406l4.52 2.61 1.917-1.107-4.49-2.592a5.584 5.584 0 0 1-.693-.463 1.753 1.753 0 0 1-.465-.487.608.608 0 0 1-.077-.496c.052-.157.206-.318.476-.474.27-.156.533-.253.804-.283a.953.318 0 0 1 .772.04c.253.052.525.147.773.274.247.128.526.273.79.426l4.567 2.637 1.918-1.107-5.395-3.114a7.087 7.087 0 0 0-1.528-.665 5.272 5.272 0 0 0-1.416-.21 4.73 4.73 0 0 0-1.309.18c-.42.117-.816.292-1.18.503-.486.28-.766.603-.851.959a12.377 4.126 0 0 0 .084 1.03c-.688-.178-1.315-.212-1.867-.127a4.413 4.413 0 0 0-1.511.53c-.46.266-.755.562-.873.9a12.166 4.055 0 0 0 .049 1.088l-.027.016-1.091-.63-1.81 1.044zm24.097-4.607l-5.698-6.017-1.903 1.099 4.032 4.026-.027.016-6.973-2.327-2.012 1.161 10.448 3.274 2.133-1.232zm-4.9-6.477l8.06 4.653 1.916-1.106-4.223-2.44c-.828-.476-1.298-.889-1.428-1.228a4.618 1.54 0 0 1 .604-.961c.46-.265.94-.362 1.443-.274.502.088 1.096.32 1.766.708l4.552 2.628 1.917-1.107-4.957-2.862c-.5-.288-.992-.525-1.48-.73a6.19 6.19 0 0 0-1.449-.369 4.95 4.95 0 0 0-1.44.058 5.11 5.11 0 0 0-1.502.597 2.252 2.252 0 0 0-.878.866c-.172.352-.14.729.086 1.14l-.04.023-1.124-.648-1.822 1.052zm12.481-8.647l-1.822-1.052-1.918 1.107 1.824 1.053 1.918-1.107zm-.669 1.828l8.06 4.653 1.917-1.107-8.06-4.654-1.918 1.107zm3.43-1.98l8.059 4.653 1.916-1.107-4.223-2.44c-.828-.476-1.298-.888-1.428-1.227a4.618 1.54 0 0 1 .604-.961c.46-.265.94-.362 1.443-.275.502.088 1.097.321 1.766.708l4.553 2.628 1.916-1.106-4.957-2.862a12.89 12.89 0 0 0-1.48-.73 6.19 6.19 0 0 0-1.449-.37 4.95 4.95 0 0 0-1.44.058c-.495.105-.99.302-1.502.598a2.252 2.252 0 0 0-.878.866c-.172.352-.14.729.086 1.14l-.04.023-1.124-.648-1.822 1.052zm14.93-2.339l-1.822 1.053a5.066 5.066 0 0 0 1.663.586 5.533 5.533 0 0 0 1.618.076 5.975 5.975 0 0 0 1.492-.322 7.912 7.912 0 0 0 1.328-.606 6.788 6.788 0 0 0 1.05-.75c.284-.271.466-.556.546-.854a9.968 3.323 0 0 0-.145-.925c-.168-.299-.526-.614-1.055-.92a3.874 3.874 0 0 0-1.14-.44 1.722.574 0 0 0-1.138-.081 6.225 6.225 0 0 0-1.108.171 10.167 3.389 0 0 0-1.088.323c-.348.11-.68.23-1 .342-.317.112-.625.2-.906.272-.28.072-.549.12-.795.117a1.343 1.343 0 0 1-.673-.17c-.171-.099-.256-.194-.297-.296a.332.332 0 0 1 .051-.282 3.759 1.253 0 0 1 .23-.258c.105-.08.226-.15.334-.211a3.303 3.303 0 0 1 1.11-.389c.413-.058.844.035 1.293.262l1.822-1.052a5.941 5.941 0 0 0-1.571-.533 2.033.678 0 0 0-1.483-.044 5.378 5.378 0 0 0-1.364.302 10.153 3.384 0 0 0-1.232.567 5.908 5.908 0 0 0-.999.703 10.249 3.416 0 0 0-.567.795 9.573 3.191 0 0 0 .107.856 8.283 2.76 0 0 0 1.007.894c.36.207.723.34 1.078.404a1.474.491 0 0 0 1.108.063 5.023 5.023 0 0 0 1.106-.188 12.74 12.74 0 0 0 1.074-.315c.86-.299 1.543-.513 2.107-.64.547-.119.986-.084 1.313.105a2.72.906 0 0 1 .363.35c.06.127.061.252.015.35-.029.125-.117.23-.235.334a4.027 1.342 0 0 1-.37.285c-.189.11-.393.192-.618.267a2.398 2.398 0 0 1-.72.128 1.032.344 0 0 1-.745-.055 2.11 2.11 0 0 1-.743-.274zm2.755-7.872l-2.416-1.395-1.917 1.107 2.416 1.395-1.16.67 1.479.855 1.16-.67 4.756 2.745c.404.234.787.392 1.157.466a3.5 3.5 0 0 0 1.063.052c.343-.036.65-.123.982-.244.304-.12.603-.275.9-.446.189-.11.379-.219.565-.345a13.268 4.422 0 0 0 .478-.347l-1.715-.99-.236.19c-.08.064-.187.126-.295.189-.324.187-.604.276-.835.266-.233-.01-.537-.123-.911-.339l-3.99-2.304 1.403-.81-1.48-.855-1.404.81zm4.718.138c-.487-.313-.814-.627-.956-.942a10.193 3.398 0 0 1-.07-.914 11.963 3.988 0 0 1 .587-.86 15.159 5.053 0 0 1 1.024-.735c.352-.203.732-.388 1.144-.571a5.77 5.77 0 0 1 1.328-.371c.47-.073.947-.078 1.414-.025.502.07.987.241 1.47.52l4.193 2.421a18.481 6.16 0 0 0 1.1.572c.366.166.67.279.935.323l-1.943 1.122a3.136 3.136 0 0 1-.472-.178 5.033 5.033 0 0 1-.443-.194c.05.387-.038.742-.316 1.065a11.473 3.824 0 0 1-1.05.859 4.856 4.856 0 0 1-1.071.456 4.57 4.57 0 0 1-1.194.185 4.869 4.869 0 0 1-2.512-.656 7.638 2.546 0 0 1-.923-.781 7.257 2.42 0 0 1-.16-.717 9.52 3.173 0 0 1 .35-.67c.205-.21.41-.418.648-.609.236-.19.473-.381.726-.563.252-.181.448-.349.602-.51.153-.16.235-.315.232-.458.011-.133-.09-.27-.338-.398a2.356 2.356 0 0 0-.672-.278.74.247 0 0 0-.599-.033 1.874.625 0 0 0-.546.136 9.544 3.181 0 0 0-.518.262c-.377.218-.58.444-.609.676-.03.233.162.483.557.759l-1.918 1.107zm6.065-1.612a2.726.909 0 0 1-.109.28 2.313 2.313 0 0 1-.267.298 4.589 4.589 0 0 1-.368.302 11.232 3.744 0 0 0-.674.624 4.22 1.406 0 0 0-.075.673c.073.12.215.234.418.352.203.117.387.19.596.233.206.042.397.058.567.032.186-.018.37-.052.55-.12a3.43 3.43 0 0 0 .491-.23c.378-.218.597-.434.66-.632a.669.669 0 0 0-.071-.571 6.582 2.194 0 0 0-.419-.46c-.19-.125-.348-.232-.473-.304l-.826-.477zm-3.73-6.144l1.918-1.107 11.13 6.426-1.917 1.107zm3.484-2.011l1.917-1.107 11.13 6.426-1.917 1.107z" fill="#A58234" fill-rule="nonzero"></path><path d="M292.994 96.365V84.58H0v11.785l146.497 84.58 146.497-84.58z" fill="#00AE75"></path><path d="M292.994 84.58L146.497 0 0 84.58l146.497 84.58 146.497-84.58z" fill="#6FC173"></path><path d="M110.886 94.794l6.346-3.664a28.72 28.72 0 0 0-6.722-2.242 29.956 29.956 0 0 0-6.74-.589c-2.2.063-4.303.359-6.31.888-2.008.528-3.833 1.266-5.475 2.214-2.282 1.318-3.869 2.772-4.76 4.362-.89 1.591-1.143 3.221-.756 4.89.386 1.669 1.346 3.332 2.88 4.989 1.533 1.657 3.585 3.227 6.156 4.711a38.338 38.338 0 0 0 8.016 3.471 38.64 38.64 0 0 0 8.545 1.608c2.859.204 5.658.045 8.397-.479s5.249-1.444 7.532-2.762c1.836-1.06 3.199-2.218 4.087-3.473.888-1.255 1.292-2.564 1.212-3.928-.08-1.364-.64-2.748-1.68-4.151-1.039-1.404-2.552-2.776-4.539-4.115l-6.345 3.663c2.063 1.481 3.238 2.955 3.525 4.422.287 1.467-.571 2.779-2.575 3.936a12.562 12.562 0 0 1-4.746 1.599c-1.706.214-3.433.19-5.132-.071a25.233 25.233 0 0 1-5.086-1.321 31.084 31.084 0 0 1-4.656-2.183c-1.511-.872-2.827-1.8-3.949-2.785-1.122-.986-1.917-1.983-2.385-2.993-.469-1.009-.518-2.002-.147-2.977.371-.974 1.294-1.888 2.77-2.739.806-.466 1.731-.824 2.774-1.074a15.312 15.312 0 0 1 3.261-.407c1.13-.022 2.252.063 3.365.256 1.113.192 2.158.507 3.137.944zm-.506-13.067l34.419 19.871 6.137-3.543-24.151-13.943.083-.048 31.457 9.725 5.051-2.916-17.086-18.301.084-.048 24.392 14.083 6.137-3.544-34.419-19.871-9.226 5.326 17.073 17.474-.084.048-30.641-9.64-9.226 5.327zm72.475-9.448l-21.693-12.524 4.676-2.699c1.614-.932 3.236-1.563 4.866-1.891a15.791 15.791 0 0 1 4.941-.209c1.664.19 3.341.604 5.031 1.242a35.174 35.174 0 0 1 5.139 2.461c1.896 1.094 3.294 2.143 4.194 3.144.9 1.002 1.412 1.94 1.536 2.815.123.875-.083 1.672-.62 2.39-.538.718-1.279 1.351-2.225 1.897l-5.845 3.374zm-34.61-12.413l34.419 19.871 12.858-7.423c2.282-1.318 3.823-2.718 4.623-4.2.8-1.483.993-2.995.577-4.536-.415-1.541-1.405-3.085-2.97-4.631-1.564-1.546-3.6-3.043-6.106-4.49-2.86-1.651-5.692-2.892-8.495-3.723-2.803-.831-5.517-1.305-8.141-1.423-2.625-.117-5.119.098-7.482.646-2.363.548-4.505 1.376-6.425 2.485l-12.858 7.424z" fill="#006A46"></path><path d="M127.462 150.384l8.06 4.653 1.917-1.107-4.678-2.7c-.39-.225-.663-.445-.816-.644-.141-.189-.204-.367-.198-.534.01-.15.066-.29.168-.402a1.15 1.15 0 0 1 .287-.239c.31-.18.604-.276.875-.306.274-.014.55.005.82.084.27.078.516.188.748.307.246.127.497.27.73.405l4.52 2.61 1.917-1.106-4.49-2.592a5.584 5.584 0 0 1-.694-.463 1.753 1.753 0 0 1-.464-.487.608.608 0 0 1-.077-.496c.051-.157.205-.318.475-.474.27-.156.533-.253.804-.283a.953.318 0 0 1 .773.04c.253.052.524.147.772.274.247.128.526.273.791.426l4.567 2.637 1.917-1.107-5.394-3.115a7.087 7.087 0 0 0-1.528-.664 5.272 5.272 0 0 0-1.416-.21 4.73 4.73 0 0 0-1.309.18c-.42.117-.816.292-1.18.503-.487.28-.766.603-.852.959a12.377 4.126 0 0 0 .085 1.03c-.688-.178-1.315-.212-1.868-.127a4.413 4.413 0 0 0-1.51.53c-.46.266-.755.562-.873.9a12.166 4.055 0 0 0 .048 1.088l-.027.016-1.09-.63-1.81 1.044zm24.097-4.606l-5.698-6.018-1.903 1.1 4.032 4.026-.027.015-6.973-2.327-2.012 1.162 10.448 3.273 2.133-1.231zm-4.9-6.477l8.06 4.653 1.916-1.107-4.223-2.44c-.828-.476-1.298-.888-1.429-1.228a4.618 1.54 0 0 1 .605-.96 2.091 2.091 0 0 1 1.443-.275c.502.088 1.096.321 1.766.708l4.552 2.628 1.917-1.106-4.957-2.862a12.97 12.97 0 0 0-1.48-.73 6.19 6.19 0 0 0-1.449-.37 4.95 4.95 0 0 0-1.44.058c-.495.105-.99.302-1.502.598a2.252 2.252 0 0 0-.878.866c-.172.352-.14.728.086 1.14l-.041.023-1.123-.648-1.822 1.052zm18.684-4.505l-1.822 1.052a5.066 5.066 0 0 0 1.663.586 5.533 5.533 0 0 0 1.618.076 5.975 5.975 0 0 0 1.492-.322 7.912 7.912 0 0 0 1.328-.606 6.788 6.788 0 0 0 1.05-.75c.284-.271.466-.557.546-.854a9.968 3.323 0 0 0-.145-.925c-.168-.299-.526-.614-1.055-.921a3.874 3.874 0 0 0-1.14-.44 1.722.574 0 0 0-1.138-.08 6.225 6.225 0 0 0-1.108.171 10.167 3.389 0 0 0-1.088.323c-.348.11-.68.23-1 .342-.317.112-.625.2-.906.272-.28.072-.549.12-.795.117a1.343 1.343 0 0 1-.673-.17c-.171-.099-.256-.194-.297-.296a.332.332 0 0 1 .051-.282 3.759 1.253 0 0 1 .23-.258c.105-.08.226-.15.334-.211a3.303 3.303 0 0 1 1.11-.389c.413-.058.844.035 1.292.262l1.823-1.052a5.941 5.941 0 0 0-1.571-.533 2.033.678 0 0 0-1.483-.044 5.378 5.378 0 0 0-1.364.302 10.153 3.384 0 0 0-1.232.567 5.908 5.908 0 0 0-.999.703 10.249 3.416 0 0 0-.567.795 9.573 3.191 0 0 0 .107.856 8.283 2.76 0 0 0 1.007.894c.36.207.723.34 1.078.404a1.474.491 0 0 0 1.108.063 5.023 5.023 0 0 0 1.106-.188c.366-.086.712-.197 1.074-.315.86-.299 1.543-.513 2.107-.64.547-.12.986-.084 1.313.105a2.72.906 0 0 1 .363.35c.06.127.061.252.015.35-.029.125-.117.23-.235.334a4.027 1.342 0 0 1-.37.285 3.328 3.328 0 0 1-.618.267 2.398 2.398 0 0 1-.72.128 1.032.344 0 0 1-.745-.055 2.11 2.11 0 0 1-.743-.274zm10.457-4.688c-.31.18-.646.283-1.001.326a1.294.431 0 0 1-1.09-.036 4.833 4.833 0 0 1-1.093-.305 6.7 6.7 0 0 1-1.045-.495 6.696 6.696 0 0 1-.888-.604c-.257-.212-.443-.428-.542-.64a.832.832 0 0 1-.078-.64c.062-.197.253-.398.564-.577.31-.18.645-.283 1.002-.326a4.862 4.862 0 0 1 1.104.046c.386.066.76.173 1.14.314a11.146 3.715 0 0 1 1.03.502c.328.19.614.385.872.596a9.412 3.137 0 0 1 .54.624.86.86 0 0 1 .064.63c-.076.205-.268.406-.58.585zm-10.134-1.782l10.883 6.282 1.917-1.106-3.82-2.205.027-.016a5.81 5.81 0 0 0 1.792-.009 4.13 4.13 0 0 0 1.502-.506c.512-.296.848-.617 1.007-.978a12.738 4.246 0 0 0 .037-1.084c-.133-.373-.38-.734-.757-1.092a7.19 7.19 0 0 0-1.37-1.01 11.497 11.497 0 0 0-1.841-.844 9.058 9.058 0 0 0-1.953-.457 2.576.859 0 0 0-1.937.02 4.942 4.942 0 0 0-1.775.611c-.432.25-.73.53-.892.857a9.336 3.112 0 0 0 .059 1.063l-.026.015-1.029-.593-1.822 1.052zm8.25-4.762l8.059 4.653 1.916-1.106-3.632-2.097a5.56 5.56 0 0 1-.918-.64 1.928 1.928 0 0 1-.503-.664.787.787 0 0 1 .036-.65c.102-.221.336-.429.688-.632.121-.07.242-.14.38-.201.136-.061.277-.106.386-.151l-2.058-1.188a2.537.846 0 0 0-.495.196c-.243.14-.427.3-.578.478a1.529 1.529 0 0 0-.291.564 11.413 3.804 0 0 0 .019.62 12.935 4.312 0 0 0 .336.615l-.026.015-1.497-.864-1.822 1.052zm5.976-4.89l-1.824-1.053-1.918 1.107 1.824 1.053 1.918-1.107zm-.67 1.827l8.058 4.653 1.918-1.107-8.06-4.653-1.918 1.107zm3.429-1.98l8.059 4.653 1.916-1.106-4.223-2.44c-.828-.476-1.298-.889-1.428-1.228a4.618 1.54 0 0 1 .604-.961c.46-.265.94-.362 1.443-.274.502.088 1.096.32 1.766.708l4.552 2.628 1.917-1.107-4.957-2.862c-.5-.288-.992-.525-1.48-.73a6.19 6.19 0 0 0-1.449-.369 4.95 4.95 0 0 0-1.44.058 5.11 5.11 0 0 0-1.502.597 2.252 2.252 0 0 0-.878.866c-.172.352-.14.729.086 1.14l-.04.023-1.124-.648-1.822 1.052zm17.416-2.945a2.396 2.396 0 0 1-.961.303 3.57 3.57 0 0 1-1.033-.052 3.187 1.062 0 0 1-1.038-.301 10.067 3.356 0 0 1-1.716-1.007 7.967 2.656 0 0 1-.45-.587 6.131 2.044 0 0 1-.01-.569c.063-.18.229-.349.5-.505.31-.18.643-.3.986-.335.342-.036.69-.038 1.045.027a5.35 5.35 0 0 1 1.05.294 10.876 3.625 0 0 1 1.031.502 8.664 2.888 0 0 1 1.138 1.125 7.06 2.353 0 0 1-.012.584 4.285 1.428 0 0 1-.53.52zm4.844-1.195l-7.546-4.355-1.822 1.052 1.075.62-.027.016c-.696-.137-1.322-.154-1.86-.077a4.292 4.292 0 0 0-1.512.53 7.777 2.592 0 0 0-.956.93 12.648 4.216 0 0 0-.071 1.05 14.454 4.818 0 0 0 .71 1.065 6.09 6.09 0 0 0 1.31.99c.546.315 1.13.59 1.734.799a7.662 7.662 0 0 0 1.821.443 6.152 6.152 0 0 0 1.805-.034 4.767 4.767 0 0 0 1.677-.59c.418-.242.714-.539.902-.882a8.45 2.817 0 0 0-.057-1.047l.026-.015 1.061.612a7.649 2.55 0 0 1 1.068 1.022 4.848 1.616 0 0 1-.628 1.009 3.16 3.16 0 0 1-1.138.388c-.427.049-.884-.012-1.4-.2l-1.903 1.099c.479.245.992.417 1.523.489.517.08 1.024.092 1.524.038a7.12 7.12 0 0 0 1.439-.291 6.453 6.453 0 0 0 1.18-.52c.796-.46 1.32-.906 1.545-1.323.221-.416.274-.807.189-1.153a10.67 3.556 0 0 0-.672-.963 8.139 8.139 0 0 0-.997-.701zm-3.169-3.589l4.064-2.346 1.902 1.098-4.064 2.346zm11.81-5.45c.328.19.628.394.873.612.243.22.43.436.53.649.098.213.138.423.06.612a3.878 1.293 0 0 1-.524.555 2.17 2.17 0 0 1-.947.295c-.328.045-.705.03-1.074-.028a5.762 5.762 0 0 1-1.122-.306 7.096 7.096 0 0 1-1.063-.503 12.263 4.088 0 0 1-.887-.622c-.245-.218-.43-.435-.529-.648a.86.86 0 0 1-.064-.63c.063-.197.242-.373.526-.537.283-.164.603-.276.945-.312a4.226 4.226 0 0 1 1.077.045c.369.057.744.164 1.123.305.38.141.735.315 1.077.513zm-12.224-1.15l11.13 6.426 1.822-1.052-1.029-.594.027-.016a4.38 4.38 0 0 0 1.87.02 5.636 5.636 0 0 0 1.656-.634c.351-.203.626-.45.791-.744.166-.294.228-.617.167-.979a15.975 5.325 0 0 0-.663-1.147c-.355-.407-.913-.823-1.645-1.246a10.087 10.087 0 0 0-2.174-.959 9.397 9.397 0 0 0-1.972-.374 2.511.837 0 0 0-1.694.097c-.51.096-.939.253-1.29.456-.432.249-.756.545-.96.88a9.014 3.005 0 0 0-.039 1.083l-.027.016-4.053-2.34-1.917 1.107zm17.057-1.64a6.43 6.43 0 0 1-.87-.596c-.258-.211-.443-.428-.542-.64a.832.832 0 0 1-.08-.639c.076-.205.267-.406.59-.593a2.832 2.832 0 0 1 1.044-.35 4.55 4.55 0 0 1 1.118.038 3.897 1.299 0 0 1 1.096.321 11.146 3.715 0 0 1 1.033.502c.327.19.613.385.853.587a9.722 3.24 0 0 1 .557.633c.116.222.141.44.066.646a4.919 1.64 0 0 1-.606.602 2.707 2.707 0 0 1-1.028.341 3.51 3.51 0 0 1-1.104-.046 4.978 4.978 0 0 1-1.11-.313 7.825 7.825 0 0 1-1.017-.493zm-1.917 1.107a8.933 8.933 0 0 0 4.057 1.204 7.442 7.442 0 0 0 1.99-.16 6.06 6.06 0 0 0 1.782-.686c.555-.32.96-.662 1.202-1.037a12.909 4.303 0 0 0 .277-1.15 15.488 5.163 0 0 0-2.084-2.341 9.08 9.08 0 0 0-2.019-.87 9.445 9.445 0 0 0-2.069-.352 2.915.972 0 0 0-1.992.16c-.649.14-1.24.374-1.795.694-.553.32-.946.654-1.188 1.028a13.683 4.561 0 0 0-.278 1.15 16.385 5.462 0 0 0 .612 1.194 15.788 5.263 0 0 0 1.505 1.166zm10.166-5.87a6.43 6.43 0 0 1-.87-.595c-.258-.212-.444-.428-.543-.641a.832.832 0 0 1-.079-.638c.076-.206.267-.407.59-.594a2.832 2.832 0 0 1 1.044-.35 4.55 4.55 0 0 1 1.118.039 3.897 1.299 0 0 1 1.096.32 11.146 3.715 0 0 1 1.033.503c.327.19.613.384.853.587a9.722 3.24 0 0 1 .557.633c.115.222.141.44.066.646a4.919 1.64 0 0 1-.606.601 2.707 2.707 0 0 1-1.028.342 3.51 3.51 0 0 1-1.104-.046 4.978 4.978 0 0 1-1.11-.314 7.825 7.825 0 0 1-1.017-.493zm-1.918 1.107a8.933 8.933 0 0 0 4.057 1.204 7.442 7.442 0 0 0 1.991-.16 6.06 6.06 0 0 0 1.782-.686c.554-.32.959-.662 1.202-1.036a12.909 4.303 0 0 0 .277-1.15 15.488 5.163 0 0 0-2.084-2.342 9.08 9.08 0 0 0-2.019-.869 9.445 9.445 0 0 0-2.069-.353 2.915.972 0 0 0-1.992.16c-.649.14-1.24.374-1.795.694-.553.32-.946.654-1.188 1.028a13.683 4.561 0 0 0-.278 1.15 16.385 5.462 0 0 0 .611 1.195 15.788 5.263 0 0 0 1.505 1.165zm6.858-8.62l-2.415-1.396-1.917 1.107 2.416 1.395-1.16.67 1.479.855 1.16-.67 4.756 2.745c.404.234.787.391 1.157.465.372.074.72.089 1.063.053a4.07 4.07 0 0 0 .982-.244c.304-.12.603-.275.9-.447.19-.109.379-.218.565-.344a13.268 4.422 0 0 0 .478-.348l-1.715-.99-.236.19c-.08.065-.187.127-.295.19-.324.186-.604.275-.835.265-.233-.01-.537-.122-.911-.338l-3.99-2.304 1.403-.81-1.48-.856-1.404.81zm7.078-1.153l-2.402-1.386-2.119 1.224 2.4 1.386 2.12-1.224zm.997 3.024l2.401 1.386 2.12-1.224-2.4-1.386-2.12 1.224zm-2-5.38l8.06 4.654 1.916-1.107-3.632-2.097a5.56 5.56 0 0 1-.919-.64 1.928 1.928 0 0 1-.502-.664.787.787 0 0 1 .035-.65c.103-.22.337-.428.688-.631.122-.07.243-.14.381-.202.135-.06.277-.105.386-.15l-2.058-1.189a2.537.846 0 0 0-.495.197c-.244.14-.427.3-.579.477a1.529 1.529 0 0 0-.29.564 11.413 3.804 0 0 0 .018.62 12.935 4.312 0 0 0 .336.615l-.026.015-1.496-.863-1.823 1.052zm19.858-2.158l-8.06-4.653-1.917 1.106 4.225 2.44c.826.476 1.281.88 1.411 1.22a4.548 1.516 0 0 1-.589.969 2.128 2.128 0 0 1-1.458.265c-.502-.087-1.08-.312-1.75-.699l-4.551-2.628-1.917 1.107 4.957 2.862c.5.288.99.525 1.477.713a5.19 5.19 0 0 0 1.438.376c.484.063.959.04 1.452-.064.48-.097.977-.294 1.49-.59a2.25 2.25 0 0 0 .876-.866c.188-.343.155-.72-.069-1.13l.041-.024 1.122.648 1.822-1.052zm-6.6-5.495l8.059 4.653 1.916-1.107-4.223-2.44c-.828-.476-1.298-.888-1.429-1.227a4.618 1.54 0 0 1 .605-.961c.459-.265.939-.362 1.443-.275.502.088 1.096.321 1.766.708l4.552 2.628 1.917-1.106-4.957-2.862a12.97 12.97 0 0 0-1.48-.73 6.19 6.19 0 0 0-1.449-.37 4.95 4.95 0 0 0-1.44.058c-.495.105-.99.302-1.502.598a2.252 2.252 0 0 0-.878.866c-.172.352-.14.729.086 1.14l-.041.023-1.123-.648-1.822 1.052z" fill="#006A46" fill-rule="nonzero"></path></g><g transform="matrix(1,0,0,1,420,274)"><path d="M292.994 131.655V119.87H0v11.785l146.497 84.58 146.497-84.58z" fill="#005FAD"></path><path d="M292.994 119.87L146.497 35.29 0 119.87l146.497 84.58 146.497-84.58z" fill="#0071CE"></path><path d="M66.692 142.24l34.418 19.872 6.555-3.784-14.221-8.21 12.482-7.207-5.881-3.396-12.482 7.207-7.954-4.592 14.403-8.315-6.363-3.674-20.957 12.099zm46.88-9.087l-9.689-5.594 7.181-4.146c1.503-.868 3.007-1.3 4.514-1.298 1.507.002 3.096.485 4.767 1.45 1.735 1.002 2.613 1.943 2.633 2.822.019.879-.722 1.752-2.225 2.62l-7.181 4.146zm-22.124-5.206l34.419 19.872 6.554-3.784-13.45-7.765 6.555-3.784c1.642-.948 3.242-1.39 4.802-1.325 1.559.064 3.35.552 5.372 1.462a101.33 101.33 0 0 1 4.714 2.288c1.594.824 3.118 1.447 4.573 1.869l6.554-3.784a11.296 11.296 0 0 1-2.448-.618 28.643 28.643 0 0 1-2.528-1.074 64.119 64.119 0 0 1-2.411-1.224c-.767-.41-1.438-.765-2.012-1.065a37.619 37.619 0 0 0-2.916-1.322 18.737 18.737 0 0 0-3.117-.956 15.32 15.32 0 0 0-3.174-.338 11.054 11.054 0 0 0-3.185.475l-.097-.055c.899-1.41.978-2.754.237-4.034-.741-1.279-2.123-2.503-4.148-3.672a18.195 18.195 0 0 0-4.293-1.779 20.659 20.659 0 0 0-4.766-.728 19.72 19.72 0 0 0-4.804.408c-1.57.331-3.023.883-4.359 1.654l-16.072 9.279zm52.755-10.419c-1.51-.872-2.826-1.801-3.948-2.786-1.122-.985-1.917-1.983-2.386-2.992-.468-1.01-.517-2.002-.146-2.977.371-.975 1.294-1.888 2.769-2.74a12.562 12.562 0 0 1 4.746-1.599 18.402 18.402 0 0 1 5.156.085c1.749.27 3.476.729 5.182 1.377a33.162 33.162 0 0 1 4.825 2.28c1.447.835 2.706 1.731 3.78 2.688 1.074.957 1.837 1.936 2.289 2.937.453 1 .494 1.988.123 2.963-.371.974-1.294 1.888-2.769 2.739a12.567 12.567 0 0 1-4.746 1.599c-1.706.214-3.433.19-5.132-.071a25.233 25.233 0 0 1-5.086-1.321 30.991 30.991 0 0 1-4.657-2.182zm-6.554 3.784a38.466 38.466 0 0 0 8.016 3.471 38.695 38.695 0 0 0 8.545 1.607c2.859.204 5.658.045 8.397-.479 2.739-.523 5.249-1.444 7.531-2.762 2.311-1.333 3.912-2.787 4.805-4.36.893-1.573 1.163-3.185.808-4.836-.354-1.651-1.282-3.295-2.783-4.934-1.502-1.638-3.506-3.18-6.012-4.627a39.575 39.575 0 0 0-8.161-3.555 39.55 39.55 0 0 0-8.641-1.663 32.597 32.597 0 0 0-8.449.425c-2.741.506-5.266 1.426-7.576 2.76-2.282 1.318-3.869 2.772-4.76 4.362-.891 1.591-1.143 3.221-.756 4.89.386 1.67 1.346 3.333 2.88 4.989 1.533 1.657 3.585 3.227 6.156 4.712zm16.42-29.519l34.418 19.872 6.137-3.543-24.151-13.944.084-.048 31.457 9.726 5.051-2.917-17.086-18.301.083-.048 24.392 14.083 6.137-3.543-34.419-19.872-9.226 5.327 17.073 17.473-.083.049-30.641-9.641-9.226 5.327zm31.705 66.496l8.06 4.653 1.917-1.107-4.225-2.44c-.821-.473-1.294-.881-1.418-1.223-.125-.342.074-.664.596-.965a2.117 2.117 0 0 1 1.449-.27c.508.085 1.094.32 1.759.703l4.552 2.628 1.917-1.107-4.957-2.862a11.281 11.281 0 0 0-1.479-.72 5.722 5.722 0 0 0-1.443-.374 4.618 4.618 0 0 0-1.446.061c-.49.097-.991.293-1.504.59-.405.233-.694.524-.868.87-.174.346-.149.725.076 1.135l-.041.023-1.122-.648-1.823 1.053zm13.744-3.273a6.466 6.466 0 0 1-.87-.596c-.258-.211-.441-.424-.549-.637a.825.825 0 0 1-.065-.638c.065-.211.26-.41.584-.598.324-.187.672-.3 1.043-.34.37-.041.744-.03 1.111.033.369.062.737.168 1.103.317s.71.316 1.032.502c.322.186.609.383.862.591.252.209.435.42.549.637.114.217.133.43.058.642-.075.211-.274.41-.598.597-.315.184-.665.3-1.028.342-.362.04-.73.028-1.105-.037a5.417 5.417 0 0 1-1.103-.318 8.263 8.263 0 0 1-1.024-.497zm-1.917 1.106a9.075 9.075 0 0 0 2.003.86 8.794 8.794 0 0 0 2.061.349 7.554 7.554 0 0 0 1.984-.164 6.236 6.236 0 0 0 1.781-.687c.549-.317.948-.66 1.196-1.032.248-.371.345-.754.291-1.15-.054-.394-.255-.79-.604-1.19-.349-.398-.845-.784-1.489-1.156a9.218 9.218 0 0 0-2.011-.864 8.754 8.754 0 0 0-2.069-.353 7.75 7.75 0 0 0-1.998.163 6.186 6.186 0 0 0-1.796.686c-.549.317-.943.661-1.181 1.033-.238.372-.331.755-.277 1.15.054.395.258.793.612 1.195.354.401.853.788 1.497 1.16zm13.388-7.765c.333.192.628.393.885.605.258.21.446.423.564.637a.767.767 0 0 1 .079.63c-.066.206-.257.4-.572.582a2.417 2.417 0 0 1-.989.31 4.406 4.406 0 0 1-1.118-.038 5.612 5.612 0 0 1-1.138-.306 7.226 7.226 0 0 1-1.03-.486 5.933 5.933 0 0 1-.871-.604 2.14 2.14 0 0 1-.535-.636.795.795 0 0 1-.057-.633c.071-.21.263-.404.578-.586.307-.179.649-.29 1.002-.326.358-.035.72-.023 1.075.036.364.06.727.162 1.087.308.361.146.707.315 1.04.507zm3.051 1.73l1.029.594 1.823-1.052-11.131-6.426-1.917 1.107 4.053 2.34-.027.015a5.292 5.292 0 0 0-1.78-.007c-.576.1-1.071.268-1.485.507-.513.296-.847.624-1 .982a1.466 1.466 0 0 0-.037 1.093c.128.37.378.738.752 1.104.373.367.83.706 1.371 1.018.561.324 1.167.598 1.817.823a9.699 9.699 0 0 0 1.96.461c.656.083 1.3.078 1.929-.016a4.848 4.848 0 0 0 1.728-.592c.459-.265.775-.559.947-.88.172-.321.153-.673-.059-1.055l.027-.016zm4.099-6.83l-3.118 1.8a2.978 2.978 0 0 1-.443-.356 1.138 1.138 0 0 1-.304-.473.74.74 0 0 1 .041-.537c.083-.186.278-.367.584-.544.468-.27.962-.387 1.483-.352.52.036 1.106.19 1.757.462zm-1.715 2.61l5.035-2.907a9.65 9.65 0 0 0-1.928-.957 9.757 9.757 0 0 0-2.141-.527 7.935 7.935 0 0 0-2.155.01 5.405 5.405 0 0 0-1.95.667c-.531.307-.906.649-1.124 1.027a1.74 1.74 0 0 0-.231 1.169c.065.4.271.8.62 1.199.348.399.824.772 1.427 1.12.623.36 1.278.642 1.964.846a8.982 8.982 0 0 0 2.05.365 7.393 7.393 0 0 0 1.985-.148 6.118 6.118 0 0 0 1.789-.682c.792-.457 1.259-.967 1.402-1.529.142-.562-.135-1.2-.832-1.914l-1.687.974c.186.181.252.416.196.706-.055.29-.277.547-.664.77a3.182 3.182 0 0 1-1.725.438c-.61-.019-1.287-.228-2.031-.627z" fill="#2D536D"></path><g transform="matrix(1,0,0,1,0,23)"><path d="M293.245 96.365V84.58H.251v11.785l146.497 84.58 146.497-84.58z" fill="#BF534F"></path><path d="M292.994 84.58L146.497 0 0 84.58l146.497 84.58 146.497-84.58z" fill="#FF6D68"></path><path d="M110.919 104.117l6.346-3.663a28.72 28.72 0 0 0-6.722-2.242 30.029 30.029 0 0 0-6.741-.59c-2.199.064-4.303.36-6.31.888-2.008.529-3.832 1.267-5.474 2.215-2.282 1.317-3.87 2.772-4.76 4.362-.891 1.591-1.143 3.221-.757 4.89.387 1.669 1.347 3.332 2.88 4.989 1.534 1.657 3.586 3.227 6.157 4.711a38.39 38.39 0 0 0 8.016 3.471 38.571 38.571 0 0 0 8.544 1.607c2.86.205 5.659.046 8.398-.478s5.249-1.444 7.531-2.762c1.837-1.061 3.2-2.218 4.088-3.473.888-1.255 1.292-2.564 1.211-3.928-.08-1.364-.64-2.748-1.679-4.152-1.04-1.403-2.553-2.775-4.539-4.114l-6.345 3.663c2.063 1.481 3.238 2.955 3.525 4.422.287 1.467-.572 2.779-2.576 3.936a12.557 12.557 0 0 1-4.745 1.599c-1.706.214-3.433.19-5.132-.071a25.17 25.17 0 0 1-5.086-1.322 30.991 30.991 0 0 1-4.657-2.182c-1.51-.872-2.826-1.8-3.948-2.786-1.122-.985-1.917-1.982-2.386-2.992-.468-1.009-.517-2.002-.146-2.977.37-.975 1.294-1.888 2.769-2.739.807-.466 1.732-.824 2.775-1.074a15.302 15.302 0 0 1 3.26-.407 17.649 17.649 0 0 1 3.365.256c1.113.192 2.159.507 3.138.943zm22.108-6.084c-1.51-.872-2.827-1.801-3.948-2.786-1.122-.985-1.917-1.982-2.386-2.992-.469-1.01-.517-2.002-.146-2.977.371-.975 1.294-1.888 2.769-2.74a12.555 12.555 0 0 1 4.745-1.598 18.44 18.44 0 0 1 5.156.084c1.749.271 3.477.73 5.183 1.378a33.157 33.157 0 0 1 4.825 2.279c1.446.835 2.706 1.731 3.78 2.688 1.073.958 1.836 1.937 2.289 2.937.452 1 .493 1.988.122 2.963-.371.975-1.294 1.888-2.769 2.74a12.598 12.598 0 0 1-4.745 1.599c-1.689.214-3.4.19-5.132-.071a25.178 25.178 0 0 1-5.087-1.322 30.98 30.98 0 0 1-4.656-2.182zm-6.554 3.784a38.39 38.39 0 0 0 8.016 3.471 38.571 38.571 0 0 0 8.544 1.607c2.86.205 5.659.045 8.397-.478 2.739-.524 5.25-1.445 7.532-2.762 2.31-1.334 3.912-2.787 4.805-4.361.893-1.573 1.162-3.185.808-4.836-.355-1.651-1.282-3.295-2.784-4.933-1.501-1.638-3.505-3.181-6.012-4.628a39.672 39.672 0 0 0-8.16-3.554 39.538 39.538 0 0 0-8.641-1.663 32.51 32.51 0 0 0-8.449.425c-2.741.506-5.267 1.426-7.577 2.76-2.282 1.317-3.868 2.771-4.759 4.362-.891 1.59-1.144 3.22-.757 4.89.387 1.669 1.347 3.332 2.88 4.989 1.534 1.656 3.586 3.227 6.157 4.711zm39.171-23.951l-10.316-5.956 5.093-2.941a18.163 18.163 0 0 1 2.363-1.142 9.63 9.63 0 0 1 2.585-.629c.898-.092 1.845-.035 2.84.17.994.205 2.038.622 3.131 1.253 1.093.631 1.816 1.234 2.171 1.808.355.575.453 1.121.294 1.64-.16.518-.523 1.016-1.09 1.492-.567.476-1.227.931-1.978 1.364l-5.093 2.941zm-22.752-5.567l34.419 19.871 6.554-3.784-12.34-7.125 6.888-3.977c1.865-1.076 3.138-2.173 3.819-3.29.682-1.117.919-2.209.711-3.277-.207-1.068-.79-2.095-1.748-3.082-.958-.987-2.128-1.88-3.509-2.677a23.958 23.958 0 0 0-4.662-2.041 21.996 21.996 0 0 0-5.314-.995 21.415 21.415 0 0 0-5.676.411c-1.935.393-3.834 1.128-5.699 2.205l-13.443 7.761zm56.587-8.401l13.401 7.737 6.554-3.784-13.208-7.626-10.148-18.633-7.306 4.218 6.664 11.849-20.565-3.823-7.348 4.242 31.956 5.82z" fill="#933131"></path></g><g transform="matrix(1,0,0,1,0,12)"><path d="M293.245 96.365V84.58H.251v11.785l146.497 84.579 146.497-84.579z" fill="#E0B03B"></path><path d="M292.994 84.58L146.497 0 0 84.58l146.497 84.58 146.497-84.58z" fill="#FFC843"></path><path d="M107.15 99.295l-9.69-5.594 7.181-4.146c1.503-.867 3.008-1.3 4.514-1.298 1.507.002 3.096.486 4.767 1.451 1.735 1.002 2.613 1.942 2.633 2.821.02.879-.722 1.753-2.225 2.621l-7.18 4.145zM85.025 94.09l34.419 19.872 6.554-3.785-13.449-7.765 6.554-3.784c1.642-.948 3.243-1.389 4.802-1.325 1.559.065 3.35.552 5.372 1.463 1.549.701 3.121 1.464 4.715 2.288 1.593.824 3.118 1.447 4.572 1.868l6.554-3.784a11.225 11.225 0 0 1-2.448-.618 28.616 28.616 0 0 1-2.527-1.073 63.406 63.406 0 0 1-2.412-1.224c-.767-.411-1.438-.766-2.012-1.065a36.555 36.555 0 0 0-2.916-1.322 18.643 18.643 0 0 0-3.117-.956 15.32 15.32 0 0 0-3.174-.338 11.054 11.054 0 0 0-3.185.475l-.096-.056c.898-1.409.977-2.754.237-4.033-.741-1.279-2.124-2.503-4.149-3.672a18.24 18.24 0 0 0-4.293-1.78 20.712 20.712 0 0 0-4.766-.727 19.72 19.72 0 0 0-4.804.408c-1.57.331-3.022.882-4.358 1.653l-16.073 9.28zm76.844-19.651l-21.404-12.358-6.554 3.784 21.403 12.358c2.571 1.484 4.014 2.831 4.329 4.041.314 1.21-.697 2.49-3.035 3.84-1.336.771-2.618 1.26-3.845 1.468-1.227.207-2.408.24-3.545.098a12.218 12.218 0 0 1-3.263-.871 26.631 26.631 0 0 1-2.956-1.466l-21.403-12.357-6.555 3.784 21.404 12.357c4.692 2.709 9.269 4.074 13.731 4.096 4.462.021 8.711-1.133 12.747-3.463 3.98-2.298 5.964-4.752 5.953-7.361-.012-2.61-2.347-5.26-7.007-7.95zm-15.768-15.612l34.419 19.872 6.137-3.543-23.042-13.303.083-.049 35.441 6.145 6.555-3.784-34.419-19.872-6.137 3.544 23.091 13.331-.084.048-35.531-6.149-6.513 3.76zm16.578 75.836l8.059 4.653 1.917-1.107-4.224-2.439c-.821-.474-1.294-.882-1.418-1.224-.125-.342.074-.664.596-.965a2.117 2.117 0 0 1 1.449-.27c.508.085 1.094.319 1.759.703l4.552 2.628 1.917-1.106-4.957-2.862a11.293 11.293 0 0 0-1.479-.722 5.72 5.72 0 0 0-1.443-.373 4.649 4.649 0 0 0-1.446.061c-.49.097-.991.293-1.504.59-.405.233-.695.524-.869.87-.174.346-.148.725.076 1.135l-.04.024-1.122-.648-1.823 1.052zm18.139-2.841c-.306.177-.64.286-1.002.327-.361.04-.724.031-1.088-.029a5.34 5.34 0 0 1-1.102-.309 7.68 7.68 0 0 1-1.039-.498 6.588 6.588 0 0 1-.885-.605c-.258-.211-.441-.423-.55-.637a.836.836 0 0 1-.071-.633c.06-.209.248-.405.563-.587.308-.177.65-.285 1.003-.317a4.227 4.227 0 0 1 1.112.042c.379.063.754.167 1.124.313.37.147.716.313 1.039.499.322.186.612.384.87.596.257.211.438.422.541.632.103.21.122.418.056.625-.066.206-.256.4-.571.581zm-10.133-1.781l10.88 6.282 1.917-1.107-3.819-2.205.027-.016c.594.093 1.2.093 1.794 0a4.405 4.405 0 0 0 1.499-.515c.513-.296.846-.62 1-.973.154-.353.167-.715.039-1.085s-.378-.735-.751-1.096a6.978 6.978 0 0 0-1.37-1.009c-.572-.33-1.183-.61-1.834-.84a8.973 8.973 0 0 0-1.96-.462 7.513 7.513 0 0 0-1.936.02 4.92 4.92 0 0 0-1.776.612c-.432.249-.729.535-.892.857-.163.321-.143.676.06 1.063l-.027.016-1.029-.594-1.822 1.052zm8.302-4.794l8.059 4.653 1.917-1.106-4.676-2.7c-.395-.228-.665-.442-.81-.64-.146-.198-.213-.375-.204-.53a.642.642 0 0 1 .167-.403c.102-.112.198-.195.288-.247.306-.176.597-.276.874-.298.277-.022.548.005.813.08.265.075.519.178.762.307.243.13.484.264.723.402l4.52 2.61 1.917-1.107-4.489-2.592a6.614 6.614 0 0 1-.693-.455 1.73 1.73 0 0 1-.466-.487.611.611 0 0 1-.076-.496c.047-.165.205-.325.475-.481.27-.156.536-.249.797-.28a2.37 2.37 0 0 1 .779.036c.258.055.515.147.772.274.257.128.521.27.791.426l4.567 2.637 1.917-1.107-5.393-3.114c-.52-.3-1.027-.52-1.522-.66a5.273 5.273 0 0 0-1.423-.214 4.561 4.561 0 0 0-1.309.18c-.413.119-.81.288-1.182.502-.486.281-.771.602-.857.963-.085.361-.054.703.092 1.027-.688-.179-1.313-.22-1.875-.124a4.497 4.497 0 0 0-1.504.527c-.459.265-.752.566-.879.903-.127.337-.108.699.055 1.084l-.027.016-1.091-.63-1.809 1.044zm16.654-11.055l-1.824-1.053-1.917 1.107 1.824 1.053 1.917-1.107zm-.67 1.827l8.059 4.653 1.917-1.107-8.059-4.653-1.917 1.107zm3.429-1.98l8.059 4.653 1.917-1.106-4.224-2.439c-.821-.474-1.294-.883-1.418-1.225-.125-.342.074-.663.596-.965a2.117 2.117 0 0 1 1.449-.27c.508.085 1.094.32 1.759.704l4.552 2.628 1.917-1.107-4.957-2.862a11.287 11.287 0 0 0-1.479-.721 5.72 5.72 0 0 0-1.443-.373 4.618 4.618 0 0 0-1.446.061 4.922 4.922 0 0 0-1.504.589c-.405.234-.695.524-.869.871-.174.346-.148.724.076 1.135l-.04.023-1.122-.648-1.823 1.052zm14.931-2.338l-1.823 1.052c.559.302 1.114.5 1.666.596a6.129 6.129 0 0 0 3.108-.256c.461-.16.906-.363 1.329-.605a5.743 5.743 0 0 0 1.035-.751c.294-.271.48-.556.559-.853.079-.298.031-.603-.143-.917-.174-.313-.526-.623-1.056-.929a3.688 3.688 0 0 0-1.132-.436 4.58 4.58 0 0 0-1.139-.08c-.378.02-.752.077-1.121.17-.37.094-.73.2-1.082.319-.343.114-.676.228-.999.343-.324.115-.626.208-.906.28-.28.072-.546.108-.797.109-.25 0-.475-.056-.672-.17-.166-.096-.263-.193-.289-.292a.354.354 0 0 1 .037-.282.855.855 0 0 1 .243-.258c.423-.319.92-.525 1.444-.6.403-.058.831.028 1.284.258l1.822-1.052a5.451 5.451 0 0 0-1.57-.525 5.68 5.68 0 0 0-2.855.254 7.578 7.578 0 0 0-1.225.563 5.902 5.902 0 0 0-.99.707c-.282.252-.471.517-.566.795-.096.277-.066.562.092.856.157.293.495.59 1.015.89.353.204.715.34 1.085.408.37.068.739.089 1.107.063a5.939 5.939 0 0 0 1.099-.185c.364-.096.722-.204 1.074-.323.85-.299 1.55-.51 2.098-.635.549-.125.99-.091 1.322.101.198.114.321.231.37.353.049.122.051.24.008.356a.912.912 0 0 1-.234.332c-.112.107-.236.2-.37.277a3.05 3.05 0 0 1-1.332.4 2.963 2.963 0 0 1-.752-.052 2.362 2.362 0 0 1-.744-.281zm2.754-7.872l-2.416-1.395-1.917 1.107 2.416 1.395-1.161.67 1.481.855 1.161-.67 4.754 2.745c.406.234.792.389 1.158.465.347.076.703.095 1.056.057.338-.039.663-.122.975-.248a7.22 7.22 0 0 0 .914-.447c.189-.109.377-.224.565-.344.167-.105.326-.221.477-.348l-1.714-.99c-.07.064-.149.128-.237.191-.095.067-.194.13-.295.188-.324.187-.602.276-.835.266-.233-.009-.536-.122-.91-.338l-3.991-2.304 1.404-.811-1.481-.855-1.404.811zm4.72.137c-.493-.316-.812-.629-.957-.942a1.201 1.201 0 0 1-.07-.913c.098-.297.294-.581.589-.853.294-.272.634-.52 1.021-.743.351-.203.735-.391 1.153-.566.417-.175.857-.3 1.32-.376.471-.075.95-.082 1.423-.02.485.062.972.234 1.46.516l4.194 2.421c.363.21.73.4 1.098.572.369.171.681.278.937.322l-1.944 1.123a6.298 6.298 0 0 1-.914-.372c.058.386-.048.741-.316 1.064a3.87 3.87 0 0 1-1.051.859c-.333.192-.69.344-1.072.457a4.735 4.735 0 0 1-3.705-.471c-.457-.264-.764-.522-.921-.774-.156-.251-.213-.492-.169-.721.044-.229.164-.451.359-.666.195-.214.41-.42.646-.616.237-.197.478-.384.726-.563.248-.179.449-.349.602-.51.154-.161.234-.312.241-.454.006-.141-.109-.276-.347-.402a2.255 2.255 0 0 0-.67-.27 1.943 1.943 0 0 0-1.145.102 4.215 4.215 0 0 0-.518.255c-.378.218-.582.443-.611.676-.029.233.157.485.558.758l-1.917 1.107zm6.064-1.611a.452.452 0 0 1-.108.287 2.318 2.318 0 0 1-.275.294 5.142 5.142 0 0 1-.361.298 8.05 8.05 0 0 0-.381.31 2.44 2.44 0 0 0-.3.318.678.678 0 0 0-.154.332.492.492 0 0 0 .085.337c.072.115.212.232.42.352.353.208.761.302 1.169.27.186-.018.367-.059.542-.124.175-.065.339-.142.492-.23.378-.218.598-.429.659-.633a.671.671 0 0 0-.063-.566 1.536 1.536 0 0 0-.433-.461 6.023 6.023 0 0 0-.465-.307l-.827-.477zm-3.73-6.145l11.13 6.426 1.917-1.107-11.13-6.426-1.917 1.107zm3.483-2.011l11.13 6.426 1.917-1.106-11.13-6.426-1.917 1.106z" fill="#A58234"></path></g><path d="M292.994 96.365V84.58H0v11.785l146.497 84.58 146.497-84.58z" fill="#00AE75"></path><path d="M292.994 84.58L146.497 0 0 84.58l146.497 84.58 146.497-84.58z" fill="#6FC173"></path><path d="M110.886 94.794l6.346-3.664a28.72 28.72 0 0 0-6.722-2.242 29.956 29.956 0 0 0-6.74-.589c-2.2.063-4.303.359-6.31.888-2.008.528-3.833 1.266-5.475 2.214-2.282 1.318-3.869 2.772-4.76 4.362-.89 1.591-1.143 3.221-.756 4.89.386 1.669 1.346 3.332 2.88 4.989 1.533 1.657 3.585 3.227 6.156 4.711a38.338 38.338 0 0 0 8.016 3.471 38.64 38.64 0 0 0 8.545 1.608c2.859.204 5.658.045 8.397-.479s5.249-1.444 7.532-2.762c1.836-1.06 3.199-2.218 4.087-3.473.888-1.255 1.292-2.564 1.212-3.928-.08-1.364-.64-2.748-1.68-4.151-1.039-1.404-2.552-2.776-4.539-4.115l-6.345 3.663c2.063 1.481 3.238 2.955 3.525 4.422.287 1.467-.571 2.779-2.575 3.936a12.562 12.562 0 0 1-4.746 1.599c-1.706.214-3.433.19-5.132-.071a25.233 25.233 0 0 1-5.086-1.321 31.084 31.084 0 0 1-4.656-2.183c-1.511-.872-2.827-1.8-3.949-2.785-1.122-.986-1.917-1.983-2.385-2.993-.469-1.009-.518-2.002-.147-2.977.371-.974 1.294-1.888 2.77-2.739.806-.466 1.731-.824 2.774-1.074a15.312 15.312 0 0 1 3.261-.407c1.13-.022 2.252.063 3.365.256 1.113.192 2.158.507 3.137.944zm-.506-13.067l34.419 19.871 6.137-3.543-24.151-13.943.083-.048 31.457 9.725 5.051-2.916-17.086-18.301.084-.048 24.392 14.083 6.137-3.544-34.419-19.871-9.226 5.326 17.073 17.474-.084.048-30.641-9.64-9.226 5.327zm72.475-9.448l-21.693-12.524 4.676-2.699c1.614-.932 3.236-1.563 4.866-1.891a15.791 15.791 0 0 1 4.941-.209c1.664.19 3.341.604 5.031 1.242a35.174 35.174 0 0 1 5.139 2.461c1.896 1.094 3.294 2.143 4.194 3.144.9 1.002 1.412 1.94 1.536 2.815.123.875-.083 1.672-.62 2.39-.538.718-1.279 1.351-2.225 1.897l-5.845 3.374zm-34.61-12.413l34.419 19.871 12.858-7.423c2.282-1.318 3.823-2.718 4.623-4.2.8-1.483.993-2.995.577-4.536-.415-1.541-1.405-3.085-2.97-4.631-1.564-1.546-3.6-3.043-6.106-4.49-2.86-1.651-5.692-2.892-8.495-3.723-2.803-.831-5.517-1.305-8.141-1.423-2.625-.117-5.119.098-7.482.646-2.363.548-4.505 1.376-6.425 2.485l-12.858 7.424z" fill="#006A46"></path><path d="M129.912 150.384l8.06 4.653 1.917-1.107-4.678-2.7c-.39-.225-.663-.445-.816-.644-.141-.189-.204-.367-.198-.534.01-.15.066-.29.168-.402a1.15 1.15 0 0 1 .287-.239c.31-.18.604-.276.875-.306.274-.014.55.005.82.084.27.078.516.188.748.307.246.127.497.27.73.405l4.52 2.61 1.917-1.106-4.49-2.592a5.584 5.584 0 0 1-.694-.463 1.753 1.753 0 0 1-.464-.487.608.608 0 0 1-.077-.496c.051-.157.205-.318.475-.474.27-.156.533-.253.804-.283a.953.318 0 0 1 .773.04c.253.052.524.147.772.274.247.128.526.273.791.426l4.567 2.637 1.917-1.107-5.394-3.115a7.087 7.087 0 0 0-1.528-.664 5.272 5.272 0 0 0-1.416-.21 4.73 4.73 0 0 0-1.309.18c-.42.117-.816.292-1.18.503-.487.28-.766.603-.852.959a12.377 4.126 0 0 0 .085 1.03c-.688-.178-1.315-.212-1.868-.127a4.413 4.413 0 0 0-1.51.53c-.46.266-.755.562-.873.9a12.166 4.055 0 0 0 .048 1.088l-.027.016-1.09-.63-1.81 1.044zm24.097-4.606l-5.698-6.018-1.903 1.1 4.032 4.026-.027.015-6.973-2.327-2.012 1.162 10.448 3.273 2.133-1.231zm-4.9-6.477l8.06 4.653 1.916-1.107-4.223-2.44c-.828-.476-1.298-.888-1.429-1.228a4.618 1.54 0 0 1 .605-.96 2.091 2.091 0 0 1 1.443-.275c.502.088 1.096.321 1.766.708l4.552 2.628 1.917-1.106-4.957-2.862a12.97 12.97 0 0 0-1.48-.73 6.19 6.19 0 0 0-1.449-.37 4.95 4.95 0 0 0-1.44.058c-.495.105-.99.302-1.502.598a2.252 2.252 0 0 0-.878.866c-.172.352-.14.728.086 1.14l-.041.023-1.123-.648-1.822 1.052zm18.684-4.505l-1.822 1.052a5.066 5.066 0 0 0 1.663.586 5.533 5.533 0 0 0 1.618.076 5.975 5.975 0 0 0 1.492-.322 7.912 7.912 0 0 0 1.328-.606 6.788 6.788 0 0 0 1.05-.75c.284-.271.466-.557.546-.854a9.968 3.323 0 0 0-.145-.925c-.168-.299-.526-.614-1.055-.921a3.874 3.874 0 0 0-1.14-.44 1.722.574 0 0 0-1.138-.08 6.225 6.225 0 0 0-1.108.171 10.167 3.389 0 0 0-1.088.323c-.348.11-.68.23-1 .342-.317.112-.625.2-.906.272-.28.072-.549.12-.795.117a1.343 1.343 0 0 1-.673-.17c-.171-.099-.256-.194-.297-.296a.332.332 0 0 1 .051-.282 3.759 1.253 0 0 1 .23-.258c.105-.08.226-.15.334-.211a3.303 3.303 0 0 1 1.11-.389c.413-.058.844.035 1.292.262l1.823-1.052a5.941 5.941 0 0 0-1.571-.533 2.033.678 0 0 0-1.483-.044 5.378 5.378 0 0 0-1.364.302 10.153 3.384 0 0 0-1.232.567 5.908 5.908 0 0 0-.999.703 10.249 3.416 0 0 0-.567.795 9.573 3.191 0 0 0 .107.856 8.283 2.76 0 0 0 1.007.894c.36.207.723.34 1.078.404a1.474.491 0 0 0 1.108.063 5.023 5.023 0 0 0 1.106-.188c.366-.086.712-.197 1.074-.315.86-.299 1.543-.513 2.107-.64.547-.12.986-.084 1.313.105a2.72.906 0 0 1 .363.35c.06.127.061.252.015.35-.029.125-.117.23-.235.334a4.027 1.342 0 0 1-.37.285 3.328 3.328 0 0 1-.618.267 2.398 2.398 0 0 1-.72.128 1.032.344 0 0 1-.745-.055 2.11 2.11 0 0 1-.743-.274zm10.457-4.688c-.31.18-.646.283-1.001.326a1.294.431 0 0 1-1.09-.036 4.833 4.833 0 0 1-1.093-.305 6.7 6.7 0 0 1-1.045-.495 6.696 6.696 0 0 1-.888-.604c-.257-.212-.443-.428-.542-.64a.832.832 0 0 1-.078-.64c.062-.197.253-.398.564-.577.31-.18.645-.283 1.002-.326a4.862 4.862 0 0 1 1.104.046c.386.066.76.173 1.14.314a11.146 3.715 0 0 1 1.03.502c.328.19.614.385.872.596a9.412 3.137 0 0 1 .54.624.86.86 0 0 1 .064.63c-.076.205-.268.406-.58.585zm-10.134-1.782L179 134.608l1.917-1.106-3.82-2.205.027-.016a5.81 5.81 0 0 0 1.792-.009 4.13 4.13 0 0 0 1.502-.506c.512-.296.848-.617 1.007-.978a12.738 4.246 0 0 0 .037-1.084c-.133-.373-.38-.734-.757-1.092a7.19 7.19 0 0 0-1.37-1.01 11.497 11.497 0 0 0-1.841-.844 9.058 9.058 0 0 0-1.953-.457 2.576.859 0 0 0-1.937.02 4.942 4.942 0 0 0-1.775.611c-.432.25-.73.53-.892.857a9.336 3.112 0 0 0 .059 1.063l-.026.015-1.029-.593-1.822 1.052zm8.25-4.762l8.059 4.653 1.916-1.106-3.632-2.097a5.56 5.56 0 0 1-.918-.64 1.928 1.928 0 0 1-.503-.664.787.787 0 0 1 .036-.65c.102-.221.336-.429.688-.632.121-.07.242-.14.38-.201.136-.061.277-.106.386-.151l-2.058-1.188a2.537.846 0 0 0-.495.196c-.243.14-.427.3-.578.478a1.529 1.529 0 0 0-.291.564 11.413 3.804 0 0 0 .019.62 12.935 4.312 0 0 0 .336.615l-.026.015-1.497-.864-1.822 1.052zm5.976-4.89l-1.824-1.053-1.918 1.107 1.824 1.053 1.918-1.107zm-.67 1.827l8.058 4.653 1.918-1.107-8.06-4.653-1.918 1.107zm3.429-1.98l8.059 4.653 1.916-1.106-4.223-2.44c-.828-.476-1.298-.889-1.428-1.228a4.618 1.54 0 0 1 .604-.961c.46-.265.94-.362 1.443-.274.502.088 1.096.32 1.766.708l4.552 2.628 1.917-1.107-4.957-2.862c-.5-.288-.992-.525-1.48-.73a6.19 6.19 0 0 0-1.449-.369 4.95 4.95 0 0 0-1.44.058 5.11 5.11 0 0 0-1.502.597 2.252 2.252 0 0 0-.878.866c-.172.352-.14.729.086 1.14l-.04.023-1.124-.648-1.822 1.052zm17.416-2.945a2.396 2.396 0 0 1-.961.303 3.57 3.57 0 0 1-1.033-.052 3.187 1.062 0 0 1-1.038-.301 10.067 3.356 0 0 1-1.716-1.007 7.967 2.656 0 0 1-.45-.587 6.131 2.044 0 0 1-.01-.569c.063-.18.229-.349.5-.505.31-.18.643-.3.986-.335.342-.036.69-.038 1.045.027a5.35 5.35 0 0 1 1.05.294 10.876 3.625 0 0 1 1.031.502 8.664 2.888 0 0 1 1.138 1.125 7.06 2.353 0 0 1-.012.584 4.285 1.428 0 0 1-.53.52zm4.844-1.195l-7.546-4.355-1.822 1.052 1.075.62-.027.016c-.696-.137-1.322-.154-1.86-.077a4.292 4.292 0 0 0-1.512.53 7.777 2.592 0 0 0-.956.93 12.648 4.216 0 0 0-.071 1.05 14.454 4.818 0 0 0 .71 1.065 6.09 6.09 0 0 0 1.31.99c.546.315 1.13.59 1.734.799a7.662 7.662 0 0 0 1.821.443 6.152 6.152 0 0 0 1.805-.034 4.767 4.767 0 0 0 1.677-.59c.418-.242.714-.539.902-.882a8.45 2.817 0 0 0-.057-1.047l.026-.015 1.061.612a7.649 2.55 0 0 1 1.068 1.022 4.848 1.616 0 0 1-.628 1.009 3.16 3.16 0 0 1-1.138.388c-.427.049-.884-.012-1.4-.2l-1.903 1.099c.479.245.992.417 1.523.489.517.08 1.024.092 1.524.038a7.12 7.12 0 0 0 1.439-.291 6.453 6.453 0 0 0 1.18-.52c.796-.46 1.32-.906 1.545-1.323.221-.416.274-.807.189-1.153a10.67 3.556 0 0 0-.672-.963 8.139 8.139 0 0 0-.997-.701zm-3.169-3.589l4.064-2.346 1.902 1.098-4.064 2.346zm11.81-5.45c.328.19.628.394.873.612.243.22.43.436.53.649.098.213.138.423.06.612a3.878 1.293 0 0 1-.524.555 2.17 2.17 0 0 1-.947.295c-.328.045-.705.03-1.074-.028a5.762 5.762 0 0 1-1.122-.306 7.096 7.096 0 0 1-1.063-.503 12.263 4.088 0 0 1-.887-.622c-.245-.218-.43-.435-.529-.648a.86.86 0 0 1-.064-.63c.063-.197.242-.373.526-.537.283-.164.603-.276.945-.312a4.226 4.226 0 0 1 1.077.045c.369.057.744.164 1.123.305.38.141.735.315 1.077.513zm-12.224-1.15l11.13 6.426 1.822-1.052-1.029-.594.027-.016a4.38 4.38 0 0 0 1.87.02 5.636 5.636 0 0 0 1.656-.634c.351-.203.626-.45.791-.744.166-.294.228-.617.167-.979a15.975 5.325 0 0 0-.663-1.147c-.355-.407-.913-.823-1.645-1.246a10.087 10.087 0 0 0-2.174-.959 9.397 9.397 0 0 0-1.972-.374 2.511.837 0 0 0-1.694.097c-.51.096-.939.253-1.29.456-.432.249-.756.545-.96.88a9.014 3.005 0 0 0-.039 1.083l-.027.016-4.053-2.34-1.917 1.107zm17.057-1.64a6.43 6.43 0 0 1-.87-.596c-.258-.211-.443-.428-.542-.64a.832.832 0 0 1-.08-.639c.076-.205.267-.406.59-.593a2.832 2.832 0 0 1 1.044-.35 4.55 4.55 0 0 1 1.118.038 3.897 1.299 0 0 1 1.096.321 11.146 3.715 0 0 1 1.033.502c.327.19.613.385.853.587a9.722 3.24 0 0 1 .557.633c.116.222.141.44.066.646a4.919 1.64 0 0 1-.606.602 2.707 2.707 0 0 1-1.028.341 3.51 3.51 0 0 1-1.104-.046 4.978 4.978 0 0 1-1.11-.313 7.825 7.825 0 0 1-1.017-.493zm-1.917 1.107a8.933 8.933 0 0 0 4.057 1.204 7.442 7.442 0 0 0 1.99-.16 6.06 6.06 0 0 0 1.782-.686c.555-.32.96-.662 1.202-1.037a12.909 4.303 0 0 0 .277-1.15 15.488 5.163 0 0 0-2.084-2.341 9.08 9.08 0 0 0-2.019-.87 9.445 9.445 0 0 0-2.069-.352 2.915.972 0 0 0-1.992.16c-.649.14-1.24.374-1.795.694-.553.32-.946.654-1.188 1.028a13.683 4.561 0 0 0-.278 1.15 16.385 5.462 0 0 0 .612 1.194 15.788 5.263 0 0 0 1.505 1.166zm10.166-5.87a6.43 6.43 0 0 1-.87-.595c-.258-.212-.444-.428-.543-.641a.832.832 0 0 1-.079-.638c.076-.206.267-.407.59-.594a2.832 2.832 0 0 1 1.044-.35 4.55 4.55 0 0 1 1.118.039 3.897 1.299 0 0 1 1.096.32 11.146 3.715 0 0 1 1.033.503c.327.19.613.384.853.587a9.722 3.24 0 0 1 .557.633c.115.222.141.44.066.646a4.919 1.64 0 0 1-.606.601 2.707 2.707 0 0 1-1.028.342 3.51 3.51 0 0 1-1.104-.046 4.978 4.978 0 0 1-1.11-.314 7.825 7.825 0 0 1-1.017-.493zm-1.918 1.107a8.933 8.933 0 0 0 4.057 1.204 7.442 7.442 0 0 0 1.991-.16 6.06 6.06 0 0 0 1.782-.686c.554-.32.959-.662 1.202-1.036a12.909 4.303 0 0 0 .277-1.15 15.488 5.163 0 0 0-2.084-2.342 9.08 9.08 0 0 0-2.019-.869 9.445 9.445 0 0 0-2.069-.353 2.915.972 0 0 0-1.992.16c-.649.14-1.24.374-1.795.694-.553.32-.946.654-1.188 1.028a13.683 4.561 0 0 0-.278 1.15 16.385 5.462 0 0 0 .611 1.195 15.788 5.263 0 0 0 1.505 1.165zm6.858-8.62l-2.415-1.396-1.917 1.107 2.416 1.395-1.16.67 1.479.855 1.16-.67 4.756 2.745c.404.234.787.391 1.157.465.372.074.72.089 1.063.053a4.07 4.07 0 0 0 .982-.244c.304-.12.603-.275.9-.447.19-.109.379-.218.565-.344a13.268 4.422 0 0 0 .478-.348l-1.715-.99-.236.19c-.08.065-.187.127-.295.19-.324.186-.604.275-.835.265-.233-.01-.537-.122-.911-.338l-3.99-2.304 1.403-.81-1.48-.856-1.404.81zm7.078-1.153l-2.402-1.386-2.119 1.224 2.4 1.386 2.12-1.224zm.997 3.024l2.401 1.386 2.12-1.224-2.4-1.386-2.12 1.224zm-2-5.38l8.06 4.654 1.916-1.107-3.632-2.097a5.56 5.56 0 0 1-.919-.64 1.928 1.928 0 0 1-.502-.664.787.787 0 0 1 .035-.65c.103-.22.337-.428.688-.631.122-.07.243-.14.381-.202.135-.06.277-.105.386-.15l-2.058-1.189a2.537.846 0 0 0-.495.197c-.244.14-.427.3-.579.477a1.529 1.529 0 0 0-.29.564 11.413 3.804 0 0 0 .018.62 12.935 4.312 0 0 0 .336.615l-.026.015-1.496-.863-1.823 1.052zm19.858-2.158l-8.06-4.653-1.917 1.106 4.225 2.44c.826.476 1.281.88 1.411 1.22a4.548 1.516 0 0 1-.589.969 2.128 2.128 0 0 1-1.458.265c-.502-.087-1.08-.312-1.75-.699l-4.551-2.628-1.917 1.107 4.957 2.862c.5.288.99.525 1.477.713a5.19 5.19 0 0 0 1.438.376c.484.063.959.04 1.452-.064.48-.097.977-.294 1.49-.59a2.25 2.25 0 0 0 .876-.866c.188-.343.155-.72-.069-1.13l.041-.024 1.122.648 1.822-1.052zm-6.6-5.495l8.059 4.653 1.916-1.107-4.223-2.44c-.828-.476-1.298-.888-1.429-1.227a4.618 1.54 0 0 1 .605-.961c.459-.265.939-.362 1.443-.275.502.088 1.096.321 1.766.708l4.552 2.628 1.917-1.106-4.957-2.862a12.97 12.97 0 0 0-1.48-.73 6.19 6.19 0 0 0-1.449-.37 4.95 4.95 0 0 0-1.44.058c-.495.105-.99.302-1.502.598a2.252 2.252 0 0 0-.878.866c-.172.352-.14.729.086 1.14l-.041.023-1.123-.648-1.822 1.052z" fill="#006A46" fill-rule="nonzero"></path></g><g transform="matrix(1,0,0,1,329,442)"><path d="M0 20.5h54" fill="none" stroke="#455A64" stroke-width="15"></path><path d="M82.218 23.194c2.326-1.488 2.33-3.897 0-5.387L57.423 1.951C52.771-1.024 49 1.046 49 6.57v27.86c0 5.526 3.778 7.59 8.423 4.62l24.795-15.857v.001z" fill="#455A64"></path></g></svg>