<?xml version="1.0" encoding="UTF-8"?>
<svg width="1121px" height="750px" viewBox="0 0 1121 750" version="1.1" xmlns="http://www.w3.org/2000/svg" xmlns:xlink="http://www.w3.org/1999/xlink">
    <!-- Generator: Sketch 53.2 (72643) - https://sketchapp.com -->
    <title>kubernetes-internals-4</title>
    <desc>Created with Sketch.</desc>
    <g id="kubernetes-internals-4" stroke="none" stroke-width="1" fill="none" fill-rule="evenodd" transform="translate(1.000000, 0.000000)">
        <g id="Kubernetes-background" opacity="0.100000001" transform="translate(7.000000, 27.000000)" fill="#326CE5" fill-rule="nonzero" stroke="#FFFFFF" stroke-width="0.5">
            <path d="M326.653979,1.01050468 C320.85482,1.30886068 315.172876,2.77733061 309.941479,5.32976637 L81.8873121,116.617778 C69.9304309,122.449683 61.2457527,133.479236 58.2914787,146.584518 L2.02897875,396.565512 C-0.595798233,408.201793 1.53992164,420.41876 7.94981208,430.434481 C8.71911492,431.646397 9.54649287,432.819461 10.4289787,433.949467 L168.278979,634.392997 C176.555741,644.899642 189.104889,651.017348 202.374812,651.014708 L455.512312,650.955132 C468.777272,650.965005 481.325535,644.858693 489.608145,634.363209 L647.399812,433.889891 C655.681003,423.37798 658.783702,409.617286 655.828979,396.505936 L599.478979,146.524942 C596.524705,133.41966 587.840027,122.390107 575.883145,116.558202 L347.799812,5.32976637 C341.219502,2.11900465 333.948454,0.633815693 326.653979,1.01050468 Z" id="path3055"></path>
        </g>
        <g id="Group-16" transform="translate(326.000000, 424.000000)">
            <path d="M10,19 L10,63" id="Line" stroke="#53777A" stroke-width="8" stroke-linecap="square"></path>
            <polygon id="Triangle" fill="#53777A" transform="translate(10.000000, 72.500000) scale(-1, -1) translate(-10.000000, -72.500000) " points="10 63 20 82 0 82"></polygon>
            <polygon id="Triangle" fill="#53777A" transform="translate(10.000000, 9.500000) scale(-1, 1) translate(-10.000000, -9.500000) " points="10 0 20 19 0 19"></polygon>
        </g>
        <g id="Kubernetes-background" opacity="0.100000001" transform="translate(713.000000, 192.000000)" fill="#326CE5" fill-rule="nonzero" stroke="#FFFFFF" stroke-width="0.5">
            <path d="M198.573847,0.615291959 C195.048523,0.796959647 191.594454,1.69110468 188.414273,3.24527186 L49.779521,71.0080643 C42.5109003,74.5590859 37.2314606,81.2749333 35.4355494,89.2546834 L1.23342173,241.467037 C-0.362187375,248.552318 0.93612258,255.991178 4.83271251,262.089707 C5.30037381,262.827637 5.80333913,263.541911 6.33980471,264.229967 L102.297252,386.279172 C107.328718,392.676622 114.957379,396.401668 123.024202,396.40006 L276.907181,396.363784 C284.970986,396.369796 292.59911,392.651689 297.634131,386.261034 L393.556117,264.193691 C398.590275,257.793034 400.476415,249.414207 398.68023,241.430762 L364.424911,89.2184078 C362.629,81.2386577 357.34956,74.5228103 350.080939,70.9717887 L211.428457,3.24527186 C207.428269,1.29025283 203.008179,0.385927654 198.573847,0.615291959 Z" id="path3055"></path>
        </g>
        <g id="Group-15" transform="translate(181.000000, 506.000000)">
            <rect id="Rectangle-4" fill="#53777A" x="72" y="1.70530257e-13" width="58" height="144"></rect>
            <rect id="Rectangle-4" fill="#53777A" x="72" y="-5.68434189e-14" width="238" height="144" rx="10"></rect>
            <g id="Group-12" transform="translate(145.000000, 41.000000)">
                <rect id="Rectangle-3" fill="#F1D4AF" x="0" y="0" width="155" height="28" rx="2"></rect>
                <text id="Pod-#1" font-family="Arial-BoldMT, Arial" font-size="17" font-weight="bold" fill="#4A4A4A">
                    <tspan x="7" y="20">Pod #1</tspan>
                </text>
                <text id="pending" font-family="Arial-BoldMT, Arial" font-size="12" font-weight="bold" fill="#BF6908">
                    <tspan x="95.3261719" y="18">PENDING</tspan>
                </text>
            </g>
            <g id="Group-11" transform="translate(145.000000, 7.000000)">
                <rect id="Rectangle-3" fill="#F1D4AF" x="0" y="0" width="155" height="28" rx="3"></rect>
                <text id="ReplicaSet-#1" font-family="Arial-BoldMT, Arial" font-size="17" font-weight="bold" fill="#4A4A4A">
                    <tspan x="7" y="20">ReplicaSet #1</tspan>
                </text>
            </g>
            <g id="Group-13" transform="translate(145.000000, 75.000000)">
                <rect id="Rectangle-3" fill="#F1D4AF" x="0" y="0" width="155" height="28" rx="2"></rect>
                <text id="Pod-#2" font-family="Arial-BoldMT, Arial" font-size="17" font-weight="bold" fill="#4A4A4A">
                    <tspan x="7" y="20">Pod #2</tspan>
                </text>
                <text id="pending" font-family="Arial-BoldMT, Arial" font-size="12" font-weight="bold" fill="#BF6908">
                    <tspan x="95.3261719" y="18">PENDING</tspan>
                </text>
            </g>
            <g id="Group-14" transform="translate(145.000000, 109.000000)">
                <rect id="Rectangle-3" fill="#F1D4AF" x="0" y="0" width="155" height="28" rx="2"></rect>
                <text id="Pod-#3" font-family="Arial-BoldMT, Arial" font-size="17" font-weight="bold" fill="#4A4A4A">
                    <tspan x="7" y="20">Pod #3</tspan>
                </text>
                <text id="pending" font-family="Arial-BoldMT, Arial" font-size="12" font-weight="bold" fill="#BF6908">
                    <tspan x="95.3261719" y="18">PENDING</tspan>
                </text>
            </g>
            <g id="Group">
                <circle id="Oval" fill="#53777A" cx="72" cy="72" r="72"></circle>
                <text id="STORAGE-BACKEND" font-family="Arial-BoldMT, Arial" font-size="18" font-weight="bold" fill="#FFFFFF">
                    <tspan x="27.496582" y="68">STORAGE</tspan>
                    <tspan x="27" y="88">BACKEND</tspan>
                </text>
            </g>
        </g>
        <g id="Group-6" transform="translate(256.000000, 283.000000)">
            <rect id="Rectangle" fill="#B8E986" x="0" y="0" width="161" height="141" rx="10"></rect>
            <path d="M30,20 L131,20 C136.522847,20 141,24.4771525 141,30 L141,131 C141,136.522847 136.522847,141 131,141 L30,141 C24.4771525,141 20,136.522847 20,131 L20,30 C20,24.4771525 24.4771525,20 30,20 Z" id="Rectangle" fill="#53777A"></path>
            <polygon id="Rectangle" fill="#53777A" points="20 52 141 52 141 141 20 141"></polygon>
            <text id="API" font-family="Arial-BoldMT, Arial" font-size="14" font-weight="bold" fill="#FFFFFF">
                <tspan x="68.3310547" y="16">API</tspan>
            </text>
            <text id="API" transform="translate(151.000000, 70.000000) rotate(90.000000) translate(-151.000000, -70.000000) " font-family="Arial-BoldMT, Arial" font-size="14" font-weight="bold" fill="#FFFFFF">
                <tspan x="139.331055" y="76">API</tspan>
            </text>
            <text id="API" transform="translate(10.000000, 70.000000) rotate(-90.000000) translate(-10.000000, -70.000000) " font-family="Arial-BoldMT, Arial" font-size="14" font-weight="bold" fill="#FFFFFF">
                <tspan x="-1.66894531" y="76">API</tspan>
            </text>
            <text id="API-SERVER" font-family="Arial-BoldMT, Arial" font-size="18" font-weight="bold" fill="#FFFFFF">
                <tspan x="65.4970703" y="80">API</tspan>
                <tspan x="43.4892578" y="100">SERVER</tspan>
            </text>
        </g>
        <g id="Group-9" transform="translate(356.000000, 103.000000)">
            <path d="M10,0 L111,0 C116.522847,-1.01453063e-15 121,4.4771525 121,10 L121,111 C121,116.522847 116.522847,121 111,121 L10,121 C4.4771525,121 6.76353751e-16,116.522847 0,111 L0,10 C-6.76353751e-16,4.4771525 4.4771525,1.01453063e-15 10,0 Z" id="Rectangle" fill="#D95559"></path>
            <text id="SCHEDULER" font-family="Arial-BoldMT, Arial" font-size="18" font-weight="bold" fill="#FFFFFF">
                <tspan x="4.49609375" y="70">SCHEDULER</tspan>
            </text>
        </g>
        <text id="MASTER-NODE" fill="#4A4A4A" font-family="Arial-BoldMT, Arial" font-size="26" font-weight="bold">
            <tspan x="239.940918" y="725">MASTER NODE</tspan>
        </text>
        <text id="WORKER-NODE" fill="#4A4A4A" font-family="Arial-BoldMT, Arial" font-size="26" font-weight="bold">
            <tspan x="813.611816" y="630">WORKER NODE</tspan>
        </text>
        <g id="Group-8" transform="translate(200.000000, 103.000000)">
            <path d="M10,0 L111,0 C116.522847,-1.01453063e-15 121,4.4771525 121,10 L121,111 C121,116.522847 116.522847,121 111,121 L10,121 C4.4771525,121 6.76353751e-16,116.522847 0,111 L0,10 C-6.76353751e-16,4.4771525 4.4771525,1.01453063e-15 10,0 Z" id="Rectangle" fill="#53777A"></path>
            <text id="CONTROLLER-MANAGER" font-family="Arial-BoldMT, Arial" font-size="16" font-weight="bold" fill="#FFFFFF">
                <tspan x="4.94921875" y="60">CONTROLLER </tspan>
                <tspan x="19.1679688" y="77">MANAGER</tspan>
            </text>
        </g>
        <g id="Group-19" transform="translate(268.000000, 224.000000)">
            <path d="M10,19 L10,40" id="Line" stroke="#B8E986" stroke-width="8" stroke-linecap="square"></path>
            <polygon id="Triangle" fill="#B8E986" points="10 0 20 19 0 19"></polygon>
            <polygon id="Triangle" fill="#B8E986" transform="translate(10.000000, 49.500000) scale(1, -1) translate(-10.000000, -49.500000) " points="10 40 20 59 0 59"></polygon>
        </g>
        <g id="Group-20" transform="translate(385.000000, 224.000000)">
            <path d="M10,19 L10,40" id="Line" stroke="#B8E986" stroke-width="8" stroke-linecap="square"></path>
            <polygon id="Triangle" fill="#B8E986" points="10 0 20 19 0 19"></polygon>
            <polygon id="Triangle" fill="#B8E986" transform="translate(10.000000, 49.500000) scale(1, -1) translate(-10.000000, -49.500000) " points="10 40 20 59 0 59"></polygon>
        </g>
        <g id="Group-10" transform="translate(417.000000, 343.000000)">
            <polygon id="Triangle" fill="#B8E986" transform="translate(426.000000, 10.500000) scale(1, -1) rotate(90.000000) translate(-426.000000, -10.500000) " points="426 1 436 20 416 20"></polygon>
            <polygon id="Triangle" fill="#B8E986" transform="translate(10.000000, 10.500000) scale(-1, -1) rotate(90.000000) translate(-10.000000, -10.500000) " points="10 1 20 20 1.42108547e-13 20"></polygon>
            <path d="M418,10 L16.5101523,10" id="Line" stroke="#B8E986" stroke-width="8" stroke-linecap="square"></path>
        </g>
        <g id="Group-7" transform="translate(853.000000, 292.000000)">
            <path d="M10,0 L111,0 C116.522847,-1.01453063e-15 121,4.4771525 121,10 L121,111 C121,116.522847 116.522847,121 111,121 L10,121 C4.4771525,121 6.76353751e-16,116.522847 0,111 L0,10 C-6.76353751e-16,4.4771525 4.4771525,1.01453063e-15 10,0 Z" id="Rectangle" fill="#53777A"></path>
            <text id="KUBELET" font-family="Arial-BoldMT, Arial" font-size="18" font-weight="bold" fill="#FFFFFF">
                <tspan x="18.0004883" y="70">KUBELET</tspan>
            </text>
        </g>
        <g id="Group" transform="translate(391.000000, 44.000000)" fill-rule="nonzero">
            <path d="M49,58 L1,58 L1,54.0796813 C1,51.8167331 2.69202226,50 4.79962894,50 L45.1706865,50 C47.2782931,50 48.9703154,51.8167331 48.9703154,54.0796813 L48.9703154,58 L49,58 Z" id="Shape" fill="#99ADD5"></path>
            <path d="M50,59 L0,59 L0,54.5732899 C0,52.0521173 2.09330144,50 4.66507177,50 L45.3349282,50 C47.9066986,50 50,52.0521173 50,54.5732899 L50,59 Z M1.64473684,57.3583062 L48.3253589,57.3583062 L48.3253589,54.5439739 C48.3253589,52.9315961 46.9796651,51.6123779 45.3349282,51.6123779 L4.66507177,51.6123779 C3.02033493,51.6123779 1.67464115,52.9315961 1.67464115,54.5439739 L1.67464115,57.3583062 L1.64473684,57.3583062 Z" id="Shape" fill="#34485D"></path>
            <polygon id="Rectangle-path" fill="#B9C8E6" points="9 46 41 46 41 51 9 51"></polygon>
            <path d="M43,52 L8,52 L8,46.0840708 C8,45.4646018 8.49209139,45 9.07644991,45 L41.8927944,45 C42.5079086,45 42.9692443,45.4955752 42.9692443,46.0840708 L42.9692443,52 L43,52 Z M9.72231986,50.2964602 L41.2776801,50.2964602 L41.2776801,46.7654867 L9.72231986,46.7654867 L9.72231986,50.2964602 Z" id="Shape" fill="#34485D"></path>
            <path d="M25.4851282,8 L25.4851282,8 C17.4841026,8 11,14.492163 11,22.5031348 L11,46 L40,46 L40,22.5031348 C39.9702564,14.492163 33.4861538,8 25.4851282,8 Z" id="Shape" fill="#EE6F79"></path>
            <path d="M40,47 L9,47 L9,22.4654655 C9,13.9369369 15.9524272,7 24.5,7 C33.0475728,7 40,13.9369369 40,22.4654655 L40,47 Z M10.6854369,45.3183183 L38.3446602,45.3183183 L38.3446602,22.4654655 C38.3446602,14.8678679 32.1446602,8.68168168 24.5300971,8.68168168 C16.915534,8.68168168 10.715534,14.8678679 10.715534,22.4654655 L10.715534,45.3183183 L10.6854369,45.3183183 Z" id="Shape" fill="#34485D"></path>
            <ellipse id="Oval" fill="#D95559" cx="25.5" cy="31" rx="9.5" ry="10"></ellipse>
            <path d="M37.2687253,24 C37.2687253,24 37.2390779,24 37.2390779,24 C36.8536622,23.969613 36.5275412,23.6353562 36.5571886,23.2403254 C36.7350728,19.3204043 35.4305889,15.9474489 32.6733843,13.2733942 C30.598069,11.2678532 28.4634589,10.4170176 28.4634589,10.4170176 C28.1076906,10.2650826 27.9001591,9.83966485 28.0483959,9.47502102 C28.1966327,9.1103772 28.6116957,8.8976683 28.9674641,9.04960323 C29.0564062,9.07999022 31.3985477,9.99159977 33.6517472,12.2098497 C35.7567099,14.2457777 38.2470882,17.861829 37.980262,23.3010993 C37.9506146,23.6961301 37.654141,24 37.2687253,24 Z" id="Shape" fill="#34485D"></path>
            <path d="M19.2706322,6 C18.9097893,6 18.5790166,5.74047915 18.5489464,5.39445135 L18.007682,0.780747352 C17.9475415,0.405883902 18.2482439,0.0598561022 18.6391571,0.00218480222 C19.0300702,-0.0266508478 19.3909131,0.232870002 19.4510536,0.607733452 L19.992318,5.22143745 C20.0524585,5.5963009 19.7517561,5.9423287 19.3608429,6 C19.3307727,6 19.3007024,6 19.2706322,6 Z" id="Shape" fill="#34485D"></path>
            <path d="M12.2302265,12 C12.0994372,12 12.0013452,11.969821 11.8705559,11.9094629 L6.44280026,9.37442511 C6.05043238,9.19335098 5.88694576,8.74066565 6.0831297,8.40869641 C6.27931364,8.04654815 6.76977349,7.89565304 7.12944405,8.07672717 L12.5571997,10.611765 C12.9495676,10.7928391 13.1130542,11.2455245 12.9168703,11.5774937 C12.8187783,11.8491049 12.5245024,12 12.2302265,12 Z" id="Shape" fill="#34485D"></path>
            <path d="M15.2092402,8 C14.9512417,8 14.725493,7.87910527 14.5642439,7.69776318 L11.1457635,3.1642109 C10.887765,2.8317504 10.9845144,2.37839517 11.3392624,2.13660571 C11.6940103,1.89481626 12.1777576,1.98548731 12.4357561,2.31794781 L15.8542365,6.85150009 C16.112235,7.18396059 16.0154856,7.63731582 15.6607376,7.87910527 C15.5317384,7.93955264 15.3704893,8 15.2092402,8 Z" id="Shape" fill="#34485D"></path>
            <path d="M45.2602695,56 L27.7377887,56 C27.3381531,56 27,55.7708333 27,55.5 C27,55.2291667 27.3381531,55 27.7377887,55 L45.2602695,55 C45.659905,55 45.9980582,55.2291667 45.9980582,55.5 C46.0287994,55.7708333 45.6906462,56 45.2602695,56 Z" id="Shape" fill="#34485D"></path>
        </g>
    </g>
</svg>