<?xml version="1.0" encoding="UTF-8"?>
<svg width="1120px" height="750px" viewBox="0 0 1120 750" version="1.1" xmlns="http://www.w3.org/2000/svg" xmlns:xlink="http://www.w3.org/1999/xlink">
    <!-- Generator: Sketch 53.2 (72643) - https://sketchapp.com -->
    <title>kubernetes-internals-7</title>
    <desc>Created with Sketch.</desc>
    <defs>
        <filter x="-3.9%" y="-9.7%" width="107.7%" height="118.1%" filterUnits="objectBoundingBox" id="filter-1">
            <feOffset dx="0" dy="2" in="SourceAlpha" result="shadowOffsetOuter1"></feOffset>
            <feGaussianBlur stdDeviation="2" in="shadowOffsetOuter1" result="shadowBlurOuter1"></feGaussianBlur>
            <feColorMatrix values="0 0 0 0 0   0 0 0 0 0   0 0 0 0 0  0 0 0 0.5 0" type="matrix" in="shadowBlurOuter1" result="shadowMatrixOuter1"></feColorMatrix>
            <feMerge>
                <feMergeNode in="shadowMatrixOuter1"></feMergeNode>
                <feMergeNode in="SourceGraphic"></feMergeNode>
            </feMerge>
        </filter>
        <filter x="-7.7%" y="-42.9%" width="115.5%" height="185.7%" filterUnits="objectBoundingBox" id="filter-2">
            <feOffset dx="0" dy="2" in="SourceAlpha" result="shadowOffsetOuter1"></feOffset>
            <feGaussianBlur stdDeviation="2" in="shadowOffsetOuter1" result="shadowBlurOuter1"></feGaussianBlur>
            <feColorMatrix values="0 0 0 0 0   0 0 0 0 0   0 0 0 0 0  0 0 0 0.5 0" type="matrix" in="shadowBlurOuter1" result="shadowMatrixOuter1"></feColorMatrix>
            <feMerge>
                <feMergeNode in="shadowMatrixOuter1"></feMergeNode>
                <feMergeNode in="SourceGraphic"></feMergeNode>
            </feMerge>
        </filter>
        <filter x="-7.7%" y="-42.9%" width="115.5%" height="185.7%" filterUnits="objectBoundingBox" id="filter-3">
            <feOffset dx="0" dy="2" in="SourceAlpha" result="shadowOffsetOuter1"></feOffset>
            <feGaussianBlur stdDeviation="2" in="shadowOffsetOuter1" result="shadowBlurOuter1"></feGaussianBlur>
            <feColorMatrix values="0 0 0 0 0   0 0 0 0 0   0 0 0 0 0  0 0 0 0.5 0" type="matrix" in="shadowBlurOuter1" result="shadowMatrixOuter1"></feColorMatrix>
            <feMerge>
                <feMergeNode in="shadowMatrixOuter1"></feMergeNode>
                <feMergeNode in="SourceGraphic"></feMergeNode>
            </feMerge>
        </filter>
        <filter x="-7.7%" y="-42.9%" width="115.5%" height="185.7%" filterUnits="objectBoundingBox" id="filter-4">
            <feOffset dx="0" dy="2" in="SourceAlpha" result="shadowOffsetOuter1"></feOffset>
            <feGaussianBlur stdDeviation="2" in="shadowOffsetOuter1" result="shadowBlurOuter1"></feGaussianBlur>
            <feColorMatrix values="0 0 0 0 0   0 0 0 0 0   0 0 0 0 0  0 0 0 0.5 0" type="matrix" in="shadowBlurOuter1" result="shadowMatrixOuter1"></feColorMatrix>
            <feMerge>
                <feMergeNode in="shadowMatrixOuter1"></feMergeNode>
                <feMergeNode in="SourceGraphic"></feMergeNode>
            </feMerge>
        </filter>
        <rect id="path-5" x="0" y="0" width="155" height="28" rx="2"></rect>
        <filter x="-4.5%" y="-17.9%" width="109.0%" height="150.0%" filterUnits="objectBoundingBox" id="filter-6">
            <feOffset dx="0" dy="2" in="SourceAlpha" result="shadowOffsetOuter1"></feOffset>
            <feGaussianBlur stdDeviation="2" in="shadowOffsetOuter1" result="shadowBlurOuter1"></feGaussianBlur>
            <feColorMatrix values="0 0 0 0 0   0 0 0 0 0   0 0 0 0 0  0 0 0 0.5 0" type="matrix" in="shadowBlurOuter1"></feColorMatrix>
        </filter>
        <rect id="path-7" x="262" y="287" width="180" height="157" rx="10"></rect>
        <filter x="-3.9%" y="-3.2%" width="107.8%" height="108.9%" filterUnits="objectBoundingBox" id="filter-8">
            <feOffset dx="0" dy="2" in="SourceAlpha" result="shadowOffsetOuter1"></feOffset>
            <feGaussianBlur stdDeviation="2" in="shadowOffsetOuter1" result="shadowBlurOuter1"></feGaussianBlur>
            <feColorMatrix values="0 0 0 0 0   0 0 0 0 0   0 0 0 0 0  0 0 0 0.5 0" type="matrix" in="shadowBlurOuter1"></feColorMatrix>
        </filter>
        <filter x="-10.0%" y="-10.0%" width="120.0%" height="120.0%" filterUnits="objectBoundingBox" id="filter-9">
            <feOffset dx="0" dy="2" in="SourceAlpha" result="shadowOffsetOuter1"></feOffset>
            <feGaussianBlur stdDeviation="2" in="shadowOffsetOuter1" result="shadowBlurOuter1"></feGaussianBlur>
            <feColorMatrix values="0 0 0 0 0   0 0 0 0 0   0 0 0 0 0  0 0 0 0.5 0" type="matrix" in="shadowBlurOuter1" result="shadowMatrixOuter1"></feColorMatrix>
            <feMerge>
                <feMergeNode in="shadowMatrixOuter1"></feMergeNode>
                <feMergeNode in="SourceGraphic"></feMergeNode>
            </feMerge>
        </filter>
        <filter x="-10.0%" y="-10.0%" width="120.0%" height="120.0%" filterUnits="objectBoundingBox" id="filter-10">
            <feOffset dx="0" dy="2" in="SourceAlpha" result="shadowOffsetOuter1"></feOffset>
            <feGaussianBlur stdDeviation="2" in="shadowOffsetOuter1" result="shadowBlurOuter1"></feGaussianBlur>
            <feColorMatrix values="0 0 0 0 0   0 0 0 0 0   0 0 0 0 0  0 0 0 0.5 0" type="matrix" in="shadowBlurOuter1" result="shadowMatrixOuter1"></feColorMatrix>
            <feMerge>
                <feMergeNode in="shadowMatrixOuter1"></feMergeNode>
                <feMergeNode in="SourceGraphic"></feMergeNode>
            </feMerge>
        </filter>
        <filter x="-10.0%" y="-10.0%" width="120.0%" height="120.0%" filterUnits="objectBoundingBox" id="filter-11">
            <feOffset dx="0" dy="2" in="SourceAlpha" result="shadowOffsetOuter1"></feOffset>
            <feGaussianBlur stdDeviation="2" in="shadowOffsetOuter1" result="shadowBlurOuter1"></feGaussianBlur>
            <feColorMatrix values="0 0 0 0 0   0 0 0 0 0   0 0 0 0 0  0 0 0 0.5 0" type="matrix" in="shadowBlurOuter1" result="shadowMatrixOuter1"></feColorMatrix>
            <feMerge>
                <feMergeNode in="shadowMatrixOuter1"></feMergeNode>
                <feMergeNode in="SourceGraphic"></feMergeNode>
            </feMerge>
        </filter>
        <rect id="path-12" x="800" y="456" width="65" height="86" rx="5"></rect>
        <filter x="-10.8%" y="-5.8%" width="121.5%" height="116.3%" filterUnits="objectBoundingBox" id="filter-13">
            <feOffset dx="0" dy="2" in="SourceAlpha" result="shadowOffsetOuter1"></feOffset>
            <feGaussianBlur stdDeviation="2" in="shadowOffsetOuter1" result="shadowBlurOuter1"></feGaussianBlur>
            <feColorMatrix values="0 0 0 0 0   0 0 0 0 0   0 0 0 0 0  0 0 0 0.5 0" type="matrix" in="shadowBlurOuter1"></feColorMatrix>
        </filter>
        <filter x="-18.5%" y="-14.0%" width="136.9%" height="127.9%" filterUnits="objectBoundingBox" id="filter-14">
            <feOffset dx="0" dy="2" in="SourceAlpha" result="shadowOffsetOuter1"></feOffset>
            <feGaussianBlur stdDeviation="2" in="shadowOffsetOuter1" result="shadowBlurOuter1"></feGaussianBlur>
            <feColorMatrix values="0 0 0 0 0   0 0 0 0 0   0 0 0 0 0  0 0 0 0.5 0" type="matrix" in="shadowBlurOuter1" result="shadowMatrixOuter1"></feColorMatrix>
            <feMerge>
                <feMergeNode in="shadowMatrixOuter1"></feMergeNode>
                <feMergeNode in="SourceGraphic"></feMergeNode>
            </feMerge>
        </filter>
        <filter x="-27.3%" y="-27.3%" width="154.5%" height="154.5%" filterUnits="objectBoundingBox" id="filter-15">
            <feOffset dx="0" dy="2" in="SourceAlpha" result="shadowOffsetOuter1"></feOffset>
            <feGaussianBlur stdDeviation="2" in="shadowOffsetOuter1" result="shadowBlurOuter1"></feGaussianBlur>
            <feColorMatrix values="0 0 0 0 0   0 0 0 0 0   0 0 0 0 0  0 0 0 0.5 0" type="matrix" in="shadowBlurOuter1" result="shadowMatrixOuter1"></feColorMatrix>
            <feMerge>
                <feMergeNode in="shadowMatrixOuter1"></feMergeNode>
                <feMergeNode in="SourceGraphic"></feMergeNode>
            </feMerge>
        </filter>
        <filter x="-27.3%" y="-27.3%" width="154.5%" height="154.5%" filterUnits="objectBoundingBox" id="filter-16">
            <feOffset dx="0" dy="2" in="SourceAlpha" result="shadowOffsetOuter1"></feOffset>
            <feGaussianBlur stdDeviation="2" in="shadowOffsetOuter1" result="shadowBlurOuter1"></feGaussianBlur>
            <feColorMatrix values="0 0 0 0 0   0 0 0 0 0   0 0 0 0 0  0 0 0 0.5 0" type="matrix" in="shadowBlurOuter1" result="shadowMatrixOuter1"></feColorMatrix>
            <feMerge>
                <feMergeNode in="shadowMatrixOuter1"></feMergeNode>
                <feMergeNode in="SourceGraphic"></feMergeNode>
            </feMerge>
        </filter>
        <rect id="path-17" x="950" y="456" width="65" height="86" rx="5"></rect>
        <filter x="-10.8%" y="-5.8%" width="121.5%" height="116.3%" filterUnits="objectBoundingBox" id="filter-18">
            <feOffset dx="0" dy="2" in="SourceAlpha" result="shadowOffsetOuter1"></feOffset>
            <feGaussianBlur stdDeviation="2" in="shadowOffsetOuter1" result="shadowBlurOuter1"></feGaussianBlur>
            <feColorMatrix values="0 0 0 0 0   0 0 0 0 0   0 0 0 0 0  0 0 0 0.5 0" type="matrix" in="shadowBlurOuter1"></feColorMatrix>
        </filter>
        <filter x="-27.3%" y="-27.3%" width="154.5%" height="154.5%" filterUnits="objectBoundingBox" id="filter-19">
            <feOffset dx="0" dy="2" in="SourceAlpha" result="shadowOffsetOuter1"></feOffset>
            <feGaussianBlur stdDeviation="2" in="shadowOffsetOuter1" result="shadowBlurOuter1"></feGaussianBlur>
            <feColorMatrix values="0 0 0 0 0   0 0 0 0 0   0 0 0 0 0  0 0 0 0.5 0" type="matrix" in="shadowBlurOuter1" result="shadowMatrixOuter1"></feColorMatrix>
            <feMerge>
                <feMergeNode in="shadowMatrixOuter1"></feMergeNode>
                <feMergeNode in="SourceGraphic"></feMergeNode>
            </feMerge>
        </filter>
    </defs>
    <g id="kubernetes-internals-7" stroke="none" stroke-width="1" fill="none" fill-rule="evenodd">
        <g id="Kubernetes-background" opacity="0.3" transform="translate(708.000000, 189.000000)" fill="#326CE5" fill-rule="nonzero" stroke="#FFFFFF" stroke-width="0.5">
            <path d="M198.573847,0.615291959 C195.048523,0.796959647 191.594454,1.69110468 188.414273,3.24527186 L49.779521,71.0080643 C42.5109003,74.5590859 37.2314606,81.2749333 35.4355494,89.2546834 L1.23342173,241.467037 C-0.362187375,248.552318 0.93612258,255.991178 4.83271251,262.089707 C5.30037381,262.827637 5.80333913,263.541911 6.33980471,264.229967 L102.297252,386.279172 C107.328718,392.676622 114.957379,396.401668 123.024202,396.40006 L276.907181,396.363784 C284.970986,396.369796 292.59911,392.651689 297.634131,386.261034 L393.556117,264.193691 C398.590275,257.793034 400.476415,249.414207 398.68023,241.430762 L364.424911,89.2184078 C362.629,81.2386577 357.34956,74.5228103 350.080939,70.9717887 L211.428457,3.24527186 C207.428269,1.29025283 203.008179,0.385927654 198.573847,0.615291959 Z" id="path3055"></path>
        </g>
        <g id="Kubernetes-background" opacity="0.3" transform="translate(23.000000, 24.000000)" fill="#326CE5" fill-rule="nonzero" stroke="#FFFFFF" stroke-width="0.5">
            <path d="M326.653979,1.01050468 C320.85482,1.30886068 315.172876,2.77733061 309.941479,5.32976637 L81.8873121,116.617778 C69.9304309,122.449683 61.2457527,133.479236 58.2914787,146.584518 L2.02897875,396.565512 C-0.595798233,408.201793 1.53992164,420.41876 7.94981208,430.434481 C8.71911492,431.646397 9.54649287,432.819461 10.4289787,433.949467 L168.278979,634.392997 C176.555741,644.899642 189.104889,651.017348 202.374812,651.014708 L455.512312,650.955132 C468.777272,650.965005 481.325535,644.858693 489.608145,634.363209 L647.399812,433.889891 C655.681003,423.37798 658.783702,409.617286 655.828979,396.505936 L599.478979,146.524942 C596.524705,133.41966 587.840027,122.390107 575.883145,116.558202 L347.799812,5.32976637 C341.219502,2.11900465 333.948454,0.633815693 326.653979,1.01050468 Z" id="path3055"></path>
        </g>
        <path d="M351.495413,225 L352,56" id="Line-2" stroke-linecap="square"></path>
        <g id="Group-15" filter="url(#filter-1)" transform="translate(197.000000, 506.000000)">
            <rect id="Rectangle-4" fill="#53777A" x="72" y="1.70530257e-13" width="58" height="144"></rect>
            <rect id="Rectangle-4" fill="#53777A" x="72" y="-5.68434189e-14" width="238" height="144" rx="10"></rect>
            <g id="Group-12" filter="url(#filter-2)" transform="translate(145.000000, 41.000000)">
                <rect id="Rectangle-3" fill="#F1D4AF" x="0" y="0" width="155" height="28" rx="2"></rect>
                <text id="Pod-#1" font-family="Arial-BoldMT, Arial" font-size="17" font-weight="bold" fill="#4A4A4A">
                    <tspan x="7" y="20">Pod #1</tspan>
                </text>
                <text id="SCHEDULED" font-family="Arial-BoldMT, Arial" font-size="12" font-weight="bold" fill="#17CC0B">
                    <tspan x="75.328125" y="18">SCHEDULED</tspan>
                </text>
            </g>
            <g id="Group-11" filter="url(#filter-3)" transform="translate(145.000000, 7.000000)">
                <rect id="Rectangle-3" fill="#F1D4AF" x="0" y="0" width="155" height="28" rx="3"></rect>
                <text id="ReplicaSet-#1" font-family="Arial-BoldMT, Arial" font-size="17" font-weight="bold" fill="#4A4A4A">
                    <tspan x="7" y="20">ReplicaSet #1</tspan>
                </text>
            </g>
            <g id="Group-13" filter="url(#filter-4)" transform="translate(145.000000, 75.000000)">
                <rect id="Rectangle-3" fill="#F1D4AF" x="0" y="0" width="155" height="28" rx="2"></rect>
                <text id="Pod-#2" font-family="Arial-BoldMT, Arial" font-size="17" font-weight="bold" fill="#4A4A4A">
                    <tspan x="7" y="20">Pod #2</tspan>
                </text>
                <text id="SCHEDULED" font-family="Arial-BoldMT, Arial" font-size="12" font-weight="bold" fill="#17CC0B">
                    <tspan x="75.328125" y="18">SCHEDULED</tspan>
                </text>
            </g>
            <g id="Group-14" transform="translate(145.000000, 109.000000)">
                <g id="Rectangle-3">
                    <use fill="black" fill-opacity="1" filter="url(#filter-6)" xlink:href="#path-5"></use>
                    <use fill="#F1D4AF" fill-rule="evenodd" xlink:href="#path-5"></use>
                </g>
                <text id="Pod-#3" font-family="Arial-BoldMT, Arial" font-size="17" font-weight="bold" fill="#4A4A4A">
                    <tspan x="7" y="20">Pod #3</tspan>
                </text>
                <text id="SCHEDULED" font-family="Arial-BoldMT, Arial" font-size="12" font-weight="bold" fill="#17CC0B">
                    <tspan x="75.328125" y="18">SCHEDULED</tspan>
                </text>
            </g>
            <g id="Group">
                <circle id="Oval" fill="#53777A" cx="72" cy="72" r="72"></circle>
                <text id="STORAGE-BACKEND" font-family="Arial-BoldMT, Arial" font-size="18" font-weight="bold" fill="#FFFFFF">
                    <tspan x="27.496582" y="68">STORAGE</tspan>
                    <tspan x="27" y="88">BACKEND</tspan>
                </text>
            </g>
        </g>
        <g id="Rectangle">
            <use fill="black" fill-opacity="1" filter="url(#filter-8)" xlink:href="#path-7"></use>
            <use fill="#38BE3B" fill-rule="evenodd" xlink:href="#path-7"></use>
        </g>
        <text id="API" transform="translate(278.000000, 365.500000) rotate(-90.000000) translate(-278.000000, -365.500000) " font-family="Arial-BoldMT, Arial" font-size="18" font-weight="bold" fill="#FFFFFF">
            <tspan x="262.99707" y="374.5">API</tspan>
        </text>
        <text id="API" font-family="Arial-BoldMT, Arial" font-size="18" font-weight="bold" fill="#FFFFFF">
            <tspan x="337.49707" y="314">API</tspan>
        </text>
        <text id="API" transform="translate(426.000000, 367.500000) rotate(90.000000) translate(-426.000000, -367.500000) " font-family="Arial-BoldMT, Arial" font-size="18" font-weight="bold" fill="#FFFFFF">
            <tspan x="410.99707" y="376.5">API</tspan>
        </text>
        <g id="Group-2" transform="translate(297.000000, 323.000000)">
            <path d="M10,0 L100,0 C105.522847,-1.01453063e-15 110,4.4771525 110,10 L110,111 C110,116.522847 105.522847,121 100,121 L10,121 C4.4771525,121 6.76353751e-16,116.522847 0,111 L0,10 C-6.76353751e-16,4.4771525 4.4771525,1.01453063e-15 10,0 Z" id="Rectangle" fill="#53777A"></path>
            <polygon id="Rectangle" fill="#53777A" points="0 32 110 32 110 121 0 121"></polygon>
            <text id="API-SERVER" font-family="Arial-BoldMT, Arial" font-size="18" font-weight="bold" fill="#FFFFFF">
                <tspan x="39.4924832" y="60">API</tspan>
                <tspan x="17.4846707" y="80">SERVER</tspan>
            </text>
        </g>
        <g id="Group-9" filter="url(#filter-9)" transform="translate(366.000000, 104.000000)">
            <path d="M10,0 L110,0 C115.522847,-1.01453063e-15 120,4.4771525 120,10 L120,110 C120,115.522847 115.522847,120 110,120 L10,120 C4.4771525,120 6.76353751e-16,115.522847 0,110 L0,10 C-6.76353751e-16,4.4771525 4.4771525,1.01453063e-15 10,0 Z" id="Rectangle" fill="#53777A"></path>
            <text id="SCHEDULER" font-family="Arial-BoldMT, Arial" font-size="18" font-weight="bold" fill="#FFFFFF">
                <tspan x="3.99609375" y="69.4958678">SCHEDULER</tspan>
            </text>
        </g>
        <text id="MASTER-NODE" fill="#4A4A4A" font-family="Arial-BoldMT, Arial" font-size="26" font-weight="bold">
            <tspan x="255.940918" y="725">MASTER NODE</tspan>
        </text>
        <text id="WORKER-NODE" fill="#4A4A4A" font-family="Arial-BoldMT, Arial" font-size="26" font-weight="bold">
            <tspan x="806.611816" y="630">WORKER NODE</tspan>
        </text>
        <g id="Group-8" filter="url(#filter-10)" transform="translate(217.000000, 104.000000)">
            <path d="M10,0 L110,0 C115.522847,-1.01453063e-15 120,4.4771525 120,10 L120,110 C120,115.522847 115.522847,120 110,120 L10,120 C4.4771525,120 6.76353751e-16,115.522847 0,110 L0,10 C-6.76353751e-16,4.4771525 4.4771525,1.01453063e-15 10,0 Z" id="Rectangle" fill="#53777A"></path>
            <text id="CONTROLLER-MANAGER" font-family="Arial-BoldMT, Arial" font-size="16" font-weight="bold" fill="#FFFFFF">
                <tspan x="4.44921875" y="59.5">CONTROLLER </tspan>
                <tspan x="18.6679688" y="76.5">MANAGER</tspan>
            </text>
        </g>
        <g id="Group-19" transform="translate(288.000000, 225.000000)" fill="#38BE3B" stroke="#38BE3B">
            <path d="M16.5,20 L16.5,41" id="Line" stroke-width="18" stroke-linecap="square"></path>
            <polygon id="Triangle" points="16.5 0 33 21 -1.8189894e-12 21"></polygon>
            <polygon id="Triangle" transform="translate(16.500000, 51.000000) scale(1, -1) translate(-16.500000, -51.000000) " points="16.5 41 33 61 -1.8189894e-12 61"></polygon>
        </g>
        <g id="Group-19" transform="translate(288.000000, 225.000000)" fill="#38BE3B" stroke="#38BE3B">
            <path d="M16.5,20 L16.5,41" id="Line" stroke-width="18" stroke-linecap="square"></path>
            <polygon id="Triangle" points="16.5 0 33 21 -1.8189894e-12 21"></polygon>
            <polygon id="Triangle" transform="translate(16.500000, 51.000000) scale(1, -1) translate(-16.500000, -51.000000) " points="16.5 41 33 61 -1.8189894e-12 61"></polygon>
        </g>
        <g id="Group-19" transform="translate(645.000000, 349.500000) rotate(90.000000) translate(-645.000000, -349.500000) translate(628.500000, 147.500000)" fill="#38BE3B" stroke="#38BE3B">
            <path d="M16.5,20 L16.5,384" id="Line" stroke-width="18" stroke-linecap="square"></path>
            <polygon id="Triangle" points="16.5 0 33 21 -1.8189894e-12 21"></polygon>
            <polygon id="Triangle" transform="translate(16.500000, 394.000000) scale(1, -1) translate(-16.500000, -394.000000) " points="16.5 384 33 404 5.69046512e-14 404"></polygon>
        </g>
        <g id="Group-19" transform="translate(333.000000, 445.000000)" stroke="#53777A">
            <path d="M16.5,19 L16.5,40" id="Line" stroke-width="18" fill="#38BE3B" stroke-linecap="square"></path>
            <polygon id="Triangle" fill="#53777A" points="16.5 0 33 21 0 21"></polygon>
            <polygon id="Triangle" fill="#53777A" transform="translate(16.500000, 50.000000) scale(1, -1) translate(-16.500000, -50.000000) " points="16.5 40 33 60 0 60"></polygon>
        </g>
        <g id="Group-19" transform="translate(383.000000, 225.000000)" fill="#38BE3B" stroke="#38BE3B">
            <path d="M16.5,20 L16.5,41" id="Line" stroke-width="18" stroke-linecap="square"></path>
            <polygon id="Triangle" points="16.5 0 33 21 -1.8189894e-12 21"></polygon>
            <polygon id="Triangle" transform="translate(16.500000, 51.000000) scale(1, -1) translate(-16.500000, -51.000000) " points="16.5 41 33 61 -1.8189894e-12 61"></polygon>
        </g>
        <g id="Group-7" filter="url(#filter-11)" transform="translate(847.000000, 290.000000)">
            <path d="M10,0 L110,0 C115.522847,-1.01453063e-15 120,4.4771525 120,10 L120,110 C120,115.522847 115.522847,120 110,120 L10,120 C4.4771525,120 6.76353751e-16,115.522847 0,110 L0,10 C-6.76353751e-16,4.4771525 4.4771525,1.01453063e-15 10,0 Z" id="Rectangle" fill="#53777A"></path>
            <text id="KUBELET" font-family="Arial-BoldMT, Arial" font-size="18" font-weight="bold" fill="#FFFFFF">
                <tspan x="17.5004883" y="69.4958678">KUBELET</tspan>
            </text>
        </g>
        <g id="Rectangle">
            <use fill="black" fill-opacity="1" filter="url(#filter-13)" xlink:href="#path-12"></use>
            <use fill="#F1D4AF" fill-rule="evenodd" xlink:href="#path-12"></use>
        </g>
        <text id="Pod-#1" font-family="Arial-BoldMT, Arial" font-size="17" font-weight="bold" fill="#4A4A4A">
            <tspan x="804" y="532">Pod #1</tspan>
        </text>
        <g id="Group-6" filter="url(#filter-14)" transform="translate(875.000000, 456.000000)">
            <rect id="Rectangle" fill="#F1D4AF" x="0" y="0" width="65" height="86" rx="5"></rect>
            <g id="Group-2" filter="url(#filter-15)" transform="translate(10.000000, 10.000000)" fill-rule="nonzero">
                <g id="Group">
                    <rect id="Rectangle-3" fill="#066DA5" x="0" y="0" width="44" height="44" rx="3"></rect>
                    <path d="M24.6780462,21.4430141 L28.6040965,21.4430141 L28.6040965,17.8738322 L24.6780462,17.8738322 L24.6780462,21.4430141 Z M20.0382594,21.4430141 L23.9640603,21.4430141 L23.9640603,17.8738322 L20.0382594,17.8738322 L20.0382594,21.4430141 Z M15.3984726,21.4430141 L19.3245228,21.4430141 L19.3245228,17.8738322 L15.3984726,17.8738322 L15.3984726,21.4430141 Z M10.7586858,21.4430141 L14.684736,21.4430141 L14.684736,17.8738322 L10.7586858,17.8738322 L10.7586858,21.4430141 Z M6.11889896,21.4430141 L10.0449492,21.4430141 L10.0449492,17.8738322 L6.11889896,17.8738322 L6.11889896,21.4430141 Z M10.7586858,17.1600956 L14.684736,17.1600956 L14.684736,13.591163 L10.7586858,13.591163 L10.7586858,17.1600956 Z M15.3984726,17.1600956 L19.3245228,17.1600956 L19.3245228,13.591163 L15.3984726,13.591163 L15.3984726,17.1600956 Z M20.0382594,17.1600956 L23.9640603,17.1600956 L23.9640603,13.591163 L20.0382594,13.591163 L20.0382594,17.1600956 Z M20.0382594,12.8774265 L23.9640603,12.8774265 L23.9640603,9.30824455 L20.0382594,9.30824455 L20.0382594,12.8774265 Z M40.4024472,19.3619057 C39.5450654,18.7883228 37.5751822,18.5780922 36.0589284,18.8641355 C35.8636608,17.4359141 35.0678769,16.1979726 33.6202036,15.0787378 L32.7880096,14.5236094 L32.2326317,15.3568008 C31.5216383,16.428902 31.1665157,17.9142324 31.2829779,19.338713 C31.3353485,19.8397252 31.4999419,20.7360108 32.0154183,21.5240638 C31.5001913,21.8008799 30.4817076,22.1824372 29.1392743,22.1567507 L3.31931573,22.1567507 L3.26869079,22.4542656 C3.02604032,23.885729 3.03127733,28.3526929 5.93161167,31.7862099 C8.13616503,34.3957627 11.4414988,35.7192428 15.755341,35.7192428 C25.1072359,35.7192428 32.0261419,31.4143786 35.2663865,23.5892116 C36.5404886,23.6143994 39.2837111,23.5966932 40.6929793,20.9040956 C40.7296388,20.8422483 40.8141799,20.6806476 41.0603218,20.1706576 L41.1952384,19.8908489 L40.4024472,19.3619057 Z" id="Page-1" fill="#FFFFFF"></path>
                </g>
            </g>
        </g>
        <g id="Group-2" filter="url(#filter-16)" transform="translate(810.000000, 466.000000)" fill-rule="nonzero">
            <g id="Group">
                <rect id="Rectangle-3" fill="#066DA5" x="0" y="0" width="44" height="44" rx="3"></rect>
                <path d="M24.6780462,21.4430141 L28.6040965,21.4430141 L28.6040965,17.8738322 L24.6780462,17.8738322 L24.6780462,21.4430141 Z M20.0382594,21.4430141 L23.9640603,21.4430141 L23.9640603,17.8738322 L20.0382594,17.8738322 L20.0382594,21.4430141 Z M15.3984726,21.4430141 L19.3245228,21.4430141 L19.3245228,17.8738322 L15.3984726,17.8738322 L15.3984726,21.4430141 Z M10.7586858,21.4430141 L14.684736,21.4430141 L14.684736,17.8738322 L10.7586858,17.8738322 L10.7586858,21.4430141 Z M6.11889896,21.4430141 L10.0449492,21.4430141 L10.0449492,17.8738322 L6.11889896,17.8738322 L6.11889896,21.4430141 Z M10.7586858,17.1600956 L14.684736,17.1600956 L14.684736,13.591163 L10.7586858,13.591163 L10.7586858,17.1600956 Z M15.3984726,17.1600956 L19.3245228,17.1600956 L19.3245228,13.591163 L15.3984726,13.591163 L15.3984726,17.1600956 Z M20.0382594,17.1600956 L23.9640603,17.1600956 L23.9640603,13.591163 L20.0382594,13.591163 L20.0382594,17.1600956 Z M20.0382594,12.8774265 L23.9640603,12.8774265 L23.9640603,9.30824455 L20.0382594,9.30824455 L20.0382594,12.8774265 Z M40.4024472,19.3619057 C39.5450654,18.7883228 37.5751822,18.5780922 36.0589284,18.8641355 C35.8636608,17.4359141 35.0678769,16.1979726 33.6202036,15.0787378 L32.7880096,14.5236094 L32.2326317,15.3568008 C31.5216383,16.428902 31.1665157,17.9142324 31.2829779,19.338713 C31.3353485,19.8397252 31.4999419,20.7360108 32.0154183,21.5240638 C31.5001913,21.8008799 30.4817076,22.1824372 29.1392743,22.1567507 L3.31931573,22.1567507 L3.26869079,22.4542656 C3.02604032,23.885729 3.03127733,28.3526929 5.93161167,31.7862099 C8.13616503,34.3957627 11.4414988,35.7192428 15.755341,35.7192428 C25.1072359,35.7192428 32.0261419,31.4143786 35.2663865,23.5892116 C36.5404886,23.6143994 39.2837111,23.5966932 40.6929793,20.9040956 C40.7296388,20.8422483 40.8141799,20.6806476 41.0603218,20.1706576 L41.1952384,19.8908489 L40.4024472,19.3619057 Z" id="Page-1" fill="#FFFFFF"></path>
            </g>
        </g>
        <text id="Pod-#2" font-family="Arial-BoldMT, Arial" font-size="17" font-weight="bold" fill="#4A4A4A">
            <tspan x="879" y="532">Pod #2</tspan>
        </text>
        <g id="Rectangle">
            <use fill="black" fill-opacity="1" filter="url(#filter-18)" xlink:href="#path-17"></use>
            <use fill="#F1D4AF" fill-rule="evenodd" xlink:href="#path-17"></use>
        </g>
        <text id="Pod-#3" font-family="Arial-BoldMT, Arial" font-size="17" font-weight="bold" fill="#4A4A4A">
            <tspan x="954" y="532">Pod #3</tspan>
        </text>
        <g id="Group-2" filter="url(#filter-19)" transform="translate(960.000000, 466.000000)" fill-rule="nonzero">
            <g id="Group">
                <rect id="Rectangle-3" fill="#066DA5" x="0" y="0" width="44" height="44" rx="3"></rect>
                <path d="M24.6780462,21.4430141 L28.6040965,21.4430141 L28.6040965,17.8738322 L24.6780462,17.8738322 L24.6780462,21.4430141 Z M20.0382594,21.4430141 L23.9640603,21.4430141 L23.9640603,17.8738322 L20.0382594,17.8738322 L20.0382594,21.4430141 Z M15.3984726,21.4430141 L19.3245228,21.4430141 L19.3245228,17.8738322 L15.3984726,17.8738322 L15.3984726,21.4430141 Z M10.7586858,21.4430141 L14.684736,21.4430141 L14.684736,17.8738322 L10.7586858,17.8738322 L10.7586858,21.4430141 Z M6.11889896,21.4430141 L10.0449492,21.4430141 L10.0449492,17.8738322 L6.11889896,17.8738322 L6.11889896,21.4430141 Z M10.7586858,17.1600956 L14.684736,17.1600956 L14.684736,13.591163 L10.7586858,13.591163 L10.7586858,17.1600956 Z M15.3984726,17.1600956 L19.3245228,17.1600956 L19.3245228,13.591163 L15.3984726,13.591163 L15.3984726,17.1600956 Z M20.0382594,17.1600956 L23.9640603,17.1600956 L23.9640603,13.591163 L20.0382594,13.591163 L20.0382594,17.1600956 Z M20.0382594,12.8774265 L23.9640603,12.8774265 L23.9640603,9.30824455 L20.0382594,9.30824455 L20.0382594,12.8774265 Z M40.4024472,19.3619057 C39.5450654,18.7883228 37.5751822,18.5780922 36.0589284,18.8641355 C35.8636608,17.4359141 35.0678769,16.1979726 33.6202036,15.0787378 L32.7880096,14.5236094 L32.2326317,15.3568008 C31.5216383,16.428902 31.1665157,17.9142324 31.2829779,19.338713 C31.3353485,19.8397252 31.4999419,20.7360108 32.0154183,21.5240638 C31.5001913,21.8008799 30.4817076,22.1824372 29.1392743,22.1567507 L3.31931573,22.1567507 L3.26869079,22.4542656 C3.02604032,23.885729 3.03127733,28.3526929 5.93161167,31.7862099 C8.13616503,34.3957627 11.4414988,35.7192428 15.755341,35.7192428 C25.1072359,35.7192428 32.0261419,31.4143786 35.2663865,23.5892116 C36.5404886,23.6143994 39.2837111,23.5966932 40.6929793,20.9040956 C40.7296388,20.8422483 40.8141799,20.6806476 41.0603218,20.1706576 L41.1952384,19.8908489 L40.4024472,19.3619057 Z" id="Page-1" fill="#FFFFFF"></path>
            </g>
        </g>
        <path d="M907.5,410 L907.5,450" id="Line" stroke="#53777A" stroke-width="11" fill="#38BE3B" stroke-linecap="square"></path>
        <polygon id="Triangle" stroke="#53777A" fill="#53777A" transform="translate(907.500000, 457.575758) scale(1, -1) translate(-907.500000, -457.575758) " points="907.5 450 920 465.151515 895 465.151515"></polygon>
        <g id="Group-10" transform="translate(838.729440, 408.956523)" stroke="#53777A">
            <path d="M44.9249263,-6.16218133 L42.9855301,53" id="Line" stroke-width="11" fill="#38BE3B" stroke-linecap="square" transform="translate(43.985530, 23.000000) rotate(45.000000) translate(-43.985530, -23.000000) "></path>
            <polygon id="Triangle" fill="#53777A" transform="translate(14.500000, 51.141116) scale(1, -1) rotate(-47.000000) translate(-14.500000, -51.141116) " points="14.5 43.565358 27 58.7168731 2 58.7168731"></polygon>
        </g>
        <g id="Group-10" transform="translate(942.229440, 441.956523) scale(-1, 1) translate(-942.229440, -441.956523) translate(908.729440, 408.956523)" stroke="#53777A">
            <path d="M44.9249263,-6.16218133 L42.9855301,53" id="Line" stroke-width="11" fill="#38BE3B" stroke-linecap="square" transform="translate(43.985530, 23.000000) rotate(45.000000) translate(-43.985530, -23.000000) "></path>
            <polygon id="Triangle" fill="#53777A" transform="translate(14.500000, 51.141116) scale(1, -1) rotate(-47.000000) translate(-14.500000, -51.141116) " points="14.5 43.565358 27 58.7168731 2 58.7168731"></polygon>
        </g>
    </g>
</svg>