<?xml version="1.0" encoding="UTF-8"?>
<svg width="1200px" height="900px" viewBox="0 0 1200 900" version="1.1" xmlns="http://www.w3.org/2000/svg" xmlns:xlink="http://www.w3.org/1999/xlink">
    <!-- Generator: Sketch 53.2 (72643) - https://sketchapp.com -->
    <title>kubeconfig-2</title>
    <desc>Created with Sketch.</desc>
    <g id="kubeconfig-2" stroke="none" stroke-width="1" fill="none" fill-rule="evenodd">
        <g id="Group-7" transform="translate(362.000000, 101.000000)">
            <rect id="Rectangle" fill="#F5A623" fill-rule="nonzero" opacity="0.546745" x="0" y="0" width="794" height="241" rx="10"></rect>
            <text id="CONTEXT" transform="translate(45.000000, 120.500000) rotate(-90.000000) translate(-45.000000, -120.500000) " font-family="HelveticaNeue-Bold, Helvetica Neue" font-size="39" font-weight="bold" fill="#B57A18">
                <tspan x="-48.5415" y="135.5">CONTEXT</tspan>
            </text>
        </g>
        <g id="Group-7" transform="translate(362.000000, 365.000000)">
            <rect id="Rectangle" fill="#F5A623" fill-rule="nonzero" opacity="0.107096354" x="0" y="0" width="794" height="241" rx="10"></rect>
            <text id="CONTEXT" transform="translate(45.000000, 120.500000) rotate(-90.000000) translate(-45.000000, -120.500000) " font-family="HelveticaNeue-Bold, Helvetica Neue" font-size="39" font-weight="bold" fill="#B57A18">
                <tspan x="-48.5415" y="135.5">CONTEXT</tspan>
            </text>
        </g>
        <g id="Group-7" transform="translate(362.000000, 633.000000)">
            <rect id="Rectangle" fill="#F5A623" fill-rule="nonzero" opacity="0.107096354" x="0" y="0" width="794" height="241" rx="10"></rect>
            <text id="CONTEXT" transform="translate(45.000000, 120.500000) rotate(-90.000000) translate(-45.000000, -120.500000) " font-family="HelveticaNeue-Bold, Helvetica Neue" font-size="39" font-weight="bold" fill="#B57A18">
                <tspan x="-48.5415" y="135.5">CONTEXT</tspan>
            </text>
        </g>
        <g id="Group-8" transform="translate(19.000000, 131.000000)">
            <path d="M214,2.93915232e-15 L310,90.5 L214,181 L0,181 L0,0 L214,0 Z" id="Combined-Shape" fill="#FF6300"></path>
            <text id="CURRENT-CONTEXT" font-family="HelveticaNeue-Bold, Helvetica Neue" font-size="39" font-weight="bold" fill="#FFFFFF">
                <tspan x="22.443" y="83">CURRENT</tspan>
                <tspan x="24.9585" y="129">CONTEXT</tspan>
            </text>
        </g>
        <g id="Group-2" transform="translate(738.000000, 668.000000)" fill-rule="nonzero">
            <ellipse id="Oval" stroke="#2D2952" stroke-width="4.80000007" fill="#A8836D" cx="51.5" cy="25" rx="24.5" ry="25"></ellipse>
            <path d="M52,111 C29.7639198,111 10.3652561,123.080925 0,141 C10.3652561,158.919075 29.7639198,171 52,171 C74.2360802,171 93.6347439,158.919075 104,141 C93.5768374,123.080925 74.2360802,111 52,111 Z" id="Shape" stroke="#2D2952" stroke-width="4.80000007" fill="#FFE64C"></path>
            <path d="M52.1750663,110 C44.3554377,110 36.8275862,111.508397 30,114.177099 L30,126.128244 C30,138.19542 39.9204244,148 52,148 L52,148 C64.137931,148 74,138.137405 74,126.128244 L74,114.061069 C67.2307692,111.450382 59.8779841,110 52.1750663,110 Z" id="Shape" stroke="#2D2952" stroke-width="4.80000007" fill="#F5CEB7"></path>
            <path d="M91.4833469,128 C90.0414297,131.74817 87.0422421,137.838946 80.7554833,143.929722 C67.0284322,157.399707 46.8992689,162.20205 30,163.607613 C36.9212023,166.535871 44.3614947,168 51.9171405,168 C71.9309504,168 90.6181966,157.282577 101,139.947291 C98.4045491,135.554905 95.2323314,131.572474 91.4833469,128 Z" id="Shape" fill="#BFAD39"></path>
            <circle id="Oval" stroke="#2D2952" stroke-width="4.80000007" fill="#F5CEB7" cx="85.5" cy="64.5" r="9.5"></circle>
            <circle id="Oval" stroke="#2D2952" stroke-width="4.80000007" fill="#F5CEB7" cx="18.5" cy="64.5" r="9.5"></circle>
            <path d="M51.5,128 L51.5,128 C44.6074766,128 39,122.46729 39,115.666667 L39,91 L64,91 L64,115.666667 C64,122.46729 58.3925234,128 51.5,128 Z" id="Shape" stroke="#2D2952" stroke-width="4.80000007" fill="#F5CEB7"></path>
            <path d="M57,124 C59.9761905,122.210428 62,119.035382 62,115.39851 L62,93 L59.9166667,93 L59.9166667,115.39851 C59.9166667,118.573557 58.8452381,121.517691 57,124 Z" id="Shape" fill="#F09783"></path>
            <path d="M53.4093264,103 L49.5906736,103 C32.2331606,103 18,88.7943662 18,71.4704225 L18,52.5295775 C18,35.2056338 32.2331606,21 49.5906736,21 L53.4093264,21 C70.7668394,21 85,35.2056338 85,52.5295775 L85,71.4704225 C85,88.8521127 70.7668394,103 53.4093264,103 Z" id="Shape" stroke="#2D2952" stroke-width="4.80000007" fill="#F5CEB7"></path>
            <path d="M83,52.4890282 C83,39.9043887 75.1121212,29.1175549 64,25 C72.5212121,31.2633229 78.0484848,41.354232 78.0484848,52.4890282 L78.0484848,71.5109718 C78.0484848,82.645768 72.5212121,92.7946708 64,99 C75.0545455,94.8244514 83,84.0956113 83,71.5109718 L83,52.4890282 Z" id="Shape" fill="#F09783"></path>
            <path d="M82.8641425,119 L82.8641425,162 C91.6080178,156.726415 98.9042316,149.308625 104,140.5 C98.8463252,131.691375 91.6080178,124.273585 82.8641425,119 Z M0,140.5 C5.09576837,149.308625 12.3919822,156.726415 21.1358575,162 L21.1358575,119 C12.3919822,124.273585 5.09576837,131.691375 0,140.5 Z" id="Shape" stroke="#2D2952" stroke-width="4.80000007" fill="#F5CEB7"></path>
            <path d="M82.8641425,119 L82.8641425,162 C91.6080178,156.726415 98.9042316,149.308625 104,140.5 C98.8463252,131.691375 91.6080178,124.273585 82.8641425,119 Z M0,140.5 C5.09576837,149.308625 12.3919822,156.726415 21.1358575,162 L21.1358575,119 C12.3919822,124.273585 5.09576837,131.691375 0,140.5 Z" id="Shape" stroke="#2D2952" stroke-width="4.80000007" fill="#F5CEB7"></path>
            <path d="M91.4460432,129 C90.4100719,131.772908 88.4532374,135.758964 85,140.091633 L85,158 C91.4460432,153.436255 96.9136691,147.601594 101,140.842629 C98.352518,136.452191 95.1294964,132.523904 91.4460432,129 Z" id="Shape" fill="#F09783"></path>
            <path d="M51,148 L51,143" id="Shape" stroke="#2D2952" stroke-width="4.80000007" fill="#F5CEB7"></path>
            <path d="M53.7895221,20 L49.9678309,20 C37.8658088,20 27.3272059,26.9696312 22,37.1019523 C25.1268382,40.3817787 26.4007353,47 31.4384191,47 C38.1553309,47 38.1553309,35.2863341 44.8143382,35.2863341 C51.53125,35.2863341 51.53125,47 58.1902574,47 C64.9071691,47 64.9071691,35.2863341 71.5661765,35.2863341 C78.2830882,35.2863341 78.2830882,47 84.9420956,47 L85,46.9414317 C82.6259191,31.7136659 69.4816176,20 53.7895221,20 Z" id="Shape" stroke="#2D2952" stroke-width="4.80000007" fill="#A8836D"></path>
        </g>
        <g id="Group-4" transform="translate(738.000000, 400.000000)">
            <g id="Group-2" fill-rule="nonzero">
                <ellipse id="Oval" stroke="#2D2952" stroke-width="4.80000007" fill="#A8836D" cx="51.7111111" cy="24.8094915" rx="24.7288889" ry="24.8094915"></ellipse>
                <path d="M51.8844444,110.48339 C29.6977778,110.48339 10.3422222,122.598305 0,140.567797 C10.3422222,158.537288 29.6977778,170.652203 51.8844444,170.652203 C74.0711111,170.652203 93.4266667,158.537288 103.768889,140.567797 C93.3688889,122.598305 74.0711111,110.48339 51.8844444,110.48339 Z" id="Shape" stroke="#2D2952" stroke-width="4.80000007" fill="#FFE64C"></path>
                <path d="M51.8844444,110.48339 C44.1422222,110.48339 36.6888889,111.990508 29.9288889,114.656949 L29.9288889,126.597966 C29.9288889,138.654915 39.7511111,148.451186 51.7111111,148.451186 L51.7111111,148.451186 C63.7288889,148.451186 73.4933333,138.596949 73.4933333,126.597966 L73.4933333,114.541017 C66.7911111,111.932542 59.5111111,110.48339 51.8844444,110.48339 Z" id="Shape" stroke="#2D2952" stroke-width="4.80000007" fill="#F5CEB7"></path>
                <path d="M91.4622222,128.684746 C90.0177778,132.394576 87.0133333,138.423051 80.7155556,144.451525 C66.9644444,157.783729 46.8,162.536949 29.8711111,163.928136 C36.8044444,166.826441 44.2577778,168.275593 51.8266667,168.275593 C71.8755556,168.275593 90.5955556,157.667797 100.995556,140.509831 C98.3955556,136.162373 95.2177778,132.220678 91.4622222,128.684746 Z" id="Shape" fill="#BFAD39"></path>
                <ellipse id="Oval" stroke="#2D2952" stroke-width="4.80000007" fill="#F5CEB7" cx="85.3377778" cy="64.7481356" rx="9.59111111" ry="9.62237288"></ellipse>
                <ellipse id="Oval" stroke="#2D2952" stroke-width="4.80000007" fill="#F5CEB7" cx="18.3733333" cy="64.7481356" rx="9.59111111" ry="9.62237288"></ellipse>
                <path d="M51.8844444,128.278983 L51.8844444,128.278983 C45.0666667,128.278983 39.52,122.714237 39.52,115.874237 L39.52,91.0647458 L64.2488889,91.0647458 L64.2488889,115.874237 C64.2488889,122.714237 58.7022222,128.278983 51.8844444,128.278983 Z" id="Shape" stroke="#2D2952" stroke-width="4.80000007" fill="#F5CEB7"></path>
                <path d="M57.0844444,124.511186 C59.9733333,122.714237 61.9377778,119.526102 61.9377778,115.874237 L61.9377778,93.3833898 L59.9155556,93.3833898 L59.9155556,115.874237 C59.9155556,119.062373 58.8755556,122.018644 57.0844444,124.511186 Z" id="Shape" fill="#F09783"></path>
                <path d="M53.7911111,102.947797 L49.9777778,102.947797 C32.6444444,102.947797 18.4311111,88.6881356 18.4311111,71.2983051 L18.4311111,52.2854237 C18.4311111,34.8955932 32.6444444,20.6359322 49.9777778,20.6359322 L53.7911111,20.6359322 C71.1244444,20.6359322 85.3377778,34.8955932 85.3377778,52.2854237 L85.3377778,71.2983051 C85.3377778,88.7461017 71.1244444,102.947797 53.7911111,102.947797 Z" id="Shape" stroke="#2D2952" stroke-width="4.80000007" fill="#F5CEB7"></path>
                <path d="M83.0266667,52.2854237 C83.0266667,39.7067797 75.1111111,28.9250847 63.96,24.8094915 C72.5111111,31.0698305 78.0577778,41.1559322 78.0577778,52.2854237 L78.0577778,71.2983051 C78.0577778,82.4277966 72.5111111,92.5718644 63.96,98.7742373 C75.0533333,94.600678 83.0266667,83.8769492 83.0266667,71.2983051 L83.0266667,52.2854237 Z" id="Shape" fill="#F09783"></path>
                <path d="M82.68,119.062373 L82.68,162.07322 C91.4044444,156.798305 98.6844444,149.378644 103.768889,140.567797 C98.6266667,131.756949 91.4044444,124.337288 82.68,119.062373 Z M0,140.567797 C5.08444444,149.378644 12.3644444,156.798305 21.0888889,162.07322 L21.0888889,119.062373 C12.3644444,124.337288 5.08444444,131.756949 0,140.567797 Z" id="Shape" stroke="#2D2952" stroke-width="4.80000007" fill="#F5CEB7"></path>
                <path d="M82.68,119.062373 L82.68,162.07322 C91.4044444,156.798305 98.6844444,149.378644 103.768889,140.567797 C98.6266667,131.756949 91.4044444,124.337288 82.68,119.062373 Z M0,140.567797 C5.08444444,149.378644 12.3644444,156.798305 21.0888889,162.07322 L21.0888889,119.062373 C12.3644444,124.337288 5.08444444,131.756949 0,140.567797 Z" id="Shape" stroke="#2D2952" stroke-width="4.80000007" fill="#F5CEB7"></path>
                <path d="M91.4622222,128.684746 C90.4222222,131.467119 88.4577778,135.46678 84.9911111,139.814237 L84.9911111,157.783729 C91.4622222,153.204407 96.9511111,147.349831 101.053333,140.567797 C98.3955556,136.162373 95.16,132.220678 91.4622222,128.684746 Z" id="Shape" fill="#F09783"></path>
                <path d="M51.7111111,148.509153 L51.7111111,143.234237" id="Shape" stroke="#2D2952" stroke-width="4.80000007" fill="#F5CEB7"></path>
                <path d="M53.7911111,20.6359322 L49.9777778,20.6359322 C37.9022222,20.6359322 27.3866667,27.5338983 22.0711111,37.5620339 C25.1911111,40.8081356 26.4622222,47.3583051 31.4888889,47.3583051 C38.1911111,47.3583051 38.1911111,35.7650847 44.8355556,35.7650847 C51.5377778,35.7650847 51.5377778,47.3583051 58.1822222,47.3583051 C64.8844444,47.3583051 64.8844444,35.7650847 71.5288889,35.7650847 C78.2311111,35.7650847 78.2311111,47.3583051 84.8755556,47.3583051 L84.9333333,47.300339 C82.5644444,32.2291525 69.4488889,20.6359322 53.7911111,20.6359322 Z" id="Shape" stroke="#2D2952" stroke-width="4.80000007" fill="#A8836D"></path>
            </g>
            <path d="M52.6745528,80.535272 C52.6745528,80.535272 44.5833822,78.2052992 43.2347368,85.1952175 C41.8862669,92.1851358 31.6037887,86.1936536 38.0092842,81.8666355 C38.0092842,81.8666355 29.4124812,82.1993898 32.7836561,91.1865266 C36.1550064,100.173663 48.9659973,94.8478629 50.820275,89.1894813 C52.6745528,83.5309265 54.6972577,86.8593353 56.5515355,90.1879173 C58.4056378,93.5164994 65.3169411,96.1793996 70.8794235,92.1851358 C76.4420814,88.1908721 73.7451415,82.0330993 69.1939238,82.3658535 C69.1939238,82.3658535 72.0594663,84.363072 69.3623509,87.5251903 C66.665411,90.6873086 62.1140179,83.3644628 60.5971208,81.533708 C59.0798728,79.7031265 54.5286551,79.7031265 52.6745528,80.535272" id="Fill-51" fill="#2D2118"></path>
            <path d="M74.8823716,73.9360772 C67.7825889,76.6364287 58.2424502,73.9360772 58.0206163,64.4848469 C57.7987824,55.0336166 66.2295686,55.0336166 79.5414325,58.8591455 C81.8504804,59.5224548 81.9819714,71.2357256 74.8823716,73.9360772 Z M44.9794154,64.4848469 C44.7573986,73.9360772 35.2172599,76.6364287 28.1176601,73.9360772 C21.0180603,71.2357256 21.1495513,59.5224548 23.4585992,58.8591455 C36.7704631,55.0336166 45.2012493,55.0336166 44.9794154,64.4848469 Z M85.5318627,57.7339681 C83.1097948,55.2773493 63.0642747,50.0291184 56.9577155,55.1996294 C51.123648,56.6041535 47.738349,55.918029 46.281158,55.4105306 C40.4759857,49.8870337 19.9224239,55.2447033 17.468169,57.7339681 C16.2734114,58.9455834 17.6900029,64.2598485 18.1338536,64.9348436 C18.5775215,65.6100242 19.9087078,64.2598485 19.9087078,65.8350226 C19.9087078,67.4101967 19.9087078,78.4366012 33.2205718,77.9866044 C42.9348126,77.6581031 47.8036373,70.9786376 48.4332945,64.2440819 C50.9811842,61.6540964 53.126737,62.5080886 54.5294296,63.7755362 C54.9727317,70.6653464 59.8399105,77.650498 69.7794599,77.9866044 C83.0913239,78.4366012 83.0913239,67.4101967 83.0913239,65.8350226 C83.0913239,64.2598485 84.4225103,65.6100242 84.8661781,64.9348436 C85.3098459,64.2598485 86.7266204,58.9455834 85.5318627,57.7339681 L85.5318627,57.7339681 Z" id="Fill-52" fill="#30231A"></path>
        </g>
        <g id="Group-3" transform="translate(738.000000, 125.000000)">
            <g id="Group-2" transform="translate(0.000000, 20.000000)" fill-rule="nonzero">
                <ellipse id="Oval" stroke="#2D2952" stroke-width="4.80000007" fill="#A8836D" cx="51.7111111" cy="24.9545763" rx="24.7288889" ry="24.9545763"></ellipse>
                <path d="M51.8844444,111.129492 C29.6977778,111.129492 10.3422222,123.315254 0,141.389831 C10.3422222,159.464407 29.6977778,171.650169 51.8844444,171.650169 C74.0711111,171.650169 93.4266667,159.464407 103.768889,141.389831 C93.3688889,123.315254 74.0711111,111.129492 51.8844444,111.129492 Z" id="Shape" stroke="#2D2952" stroke-width="4.80000007" fill="#FFE64C"></path>
                <path d="M51.8844444,111.129492 C44.1422222,111.129492 36.6888889,112.645424 29.9288889,115.327458 L29.9288889,127.338305 C29.9288889,139.465763 39.7511111,149.319322 51.7111111,149.319322 L51.7111111,149.319322 C63.7288889,149.319322 73.4933333,139.407458 73.4933333,127.338305 L73.4933333,115.210847 C66.7911111,112.587119 59.5111111,111.129492 51.8844444,111.129492 Z" id="Shape" stroke="#2D2952" stroke-width="4.80000007" fill="#F5CEB7"></path>
                <path d="M91.4622222,129.437288 C90.0177778,133.168814 87.0133333,139.232542 80.7155556,145.296271 C66.9644444,158.706441 46.8,163.487458 29.8711111,164.88678 C36.8044444,167.802034 44.2577778,169.259661 51.8266667,169.259661 C71.8755556,169.259661 90.5955556,158.589831 100.995556,141.331525 C98.3955556,136.958644 95.2177778,132.993898 91.4622222,129.437288 Z" id="Shape" fill="#BFAD39"></path>
                <ellipse id="Oval" stroke="#2D2952" stroke-width="4.80000007" fill="#F5CEB7" cx="85.3377778" cy="65.1267797" rx="9.59111111" ry="9.67864407"></ellipse>
                <ellipse id="Oval" stroke="#2D2952" stroke-width="4.80000007" fill="#F5CEB7" cx="18.3733333" cy="65.1267797" rx="9.59111111" ry="9.67864407"></ellipse>
                <path d="M51.8844444,129.029153 L51.8844444,129.029153 C45.0666667,129.029153 39.52,123.431864 39.52,116.551864 L39.52,91.5972881 L64.2488889,91.5972881 L64.2488889,116.551864 C64.2488889,123.431864 58.7022222,129.029153 51.8844444,129.029153 Z" id="Shape" stroke="#2D2952" stroke-width="4.80000007" fill="#F5CEB7"></path>
                <path d="M57.0844444,125.239322 C59.9733333,123.431864 61.9377778,120.225085 61.9377778,116.551864 L61.9377778,93.9294915 L59.9155556,93.9294915 L59.9155556,116.551864 C59.9155556,119.758644 58.8755556,122.732203 57.0844444,125.239322 Z" id="Shape" fill="#F09783"></path>
                <path d="M53.7911111,103.549831 L49.9777778,103.549831 C32.6444444,103.549831 18.4311111,89.2067797 18.4311111,71.7152542 L18.4311111,52.5911864 C18.4311111,35.099661 32.6444444,20.7566102 49.9777778,20.7566102 L53.7911111,20.7566102 C71.1244444,20.7566102 85.3377778,35.099661 85.3377778,52.5911864 L85.3377778,71.7152542 C85.3377778,89.2650847 71.1244444,103.549831 53.7911111,103.549831 Z" id="Shape" stroke="#2D2952" stroke-width="4.80000007" fill="#F5CEB7"></path>
                <path d="M83.0266667,52.5911864 C83.0266667,39.9389831 75.1111111,29.0942373 63.96,24.9545763 C72.5111111,31.2515254 78.0577778,41.3966102 78.0577778,52.5911864 L78.0577778,71.7152542 C78.0577778,82.9098305 72.5111111,93.1132203 63.96,99.3518644 C75.0533333,95.1538983 83.0266667,84.3674576 83.0266667,71.7152542 L83.0266667,52.5911864 Z" id="Shape" fill="#F09783"></path>
                <path d="M82.68,119.758644 L82.68,163.021017 C91.4044444,157.715254 98.6844444,150.252203 103.768889,141.389831 C98.6266667,132.527458 91.4044444,125.064407 82.68,119.758644 Z M0,141.389831 C5.08444444,150.252203 12.3644444,157.715254 21.0888889,163.021017 L21.0888889,119.758644 C12.3644444,125.064407 5.08444444,132.527458 0,141.389831 Z" id="Shape" stroke="#2D2952" stroke-width="4.80000007" fill="#F5CEB7"></path>
                <path d="M82.68,119.758644 L82.68,163.021017 C91.4044444,157.715254 98.6844444,150.252203 103.768889,141.389831 C98.6266667,132.527458 91.4044444,125.064407 82.68,119.758644 Z M0,141.389831 C5.08444444,150.252203 12.3644444,157.715254 21.0888889,163.021017 L21.0888889,119.758644 C12.3644444,125.064407 5.08444444,132.527458 0,141.389831 Z" id="Shape" stroke="#2D2952" stroke-width="4.80000007" fill="#F5CEB7"></path>
                <path d="M91.4622222,129.437288 C90.4222222,132.235932 88.4577778,136.258983 84.9911111,140.631864 L84.9911111,158.706441 C91.4622222,154.100339 96.9511111,148.211525 101.053333,141.389831 C98.3955556,136.958644 95.16,132.993898 91.4622222,129.437288 Z" id="Shape" fill="#F09783"></path>
                <path d="M51.7111111,149.377627 L51.7111111,144.071864" id="Shape" stroke="#2D2952" stroke-width="4.80000007" fill="#F5CEB7"></path>
                <path d="M53.7911111,20.7566102 L49.9777778,20.7566102 C37.9022222,20.7566102 27.3866667,27.6949153 22.0711111,37.7816949 C25.1911111,41.0467797 26.4622222,47.6352542 31.4888889,47.6352542 C38.1911111,47.6352542 38.1911111,35.9742373 44.8355556,35.9742373 C51.5377778,35.9742373 51.5377778,47.6352542 58.1822222,47.6352542 C64.8844444,47.6352542 64.8844444,35.9742373 71.5288889,35.9742373 C78.2311111,35.9742373 78.2311111,47.6352542 84.8755556,47.6352542 L84.9333333,47.5769492 C82.5644444,32.4176271 69.4488889,20.7566102 53.7911111,20.7566102 Z" id="Shape" stroke="#2D2952" stroke-width="4.80000007" fill="#A8836D"></path>
            </g>
            <g id="Group" transform="translate(7.000000, 0.000000)">
                <path d="M6.07083645,45.3895593 C6.07083645,45.3895593 -6.74192523,24.1487403 10.9433271,13.2326328 C27.7216822,2.87725921 38.4295794,16.6050856 38.4295794,16.6050856 L41.5219626,44.2040841 L8.81423832,51.1172484 L6.07083645,45.3895593" id="Fill-83" fill="#C24D2C"></path>
                <path d="M76.3330374,37.3242649 C76.3330374,37.3242649 84.1226636,13.7182445 64.474486,7.08755525 C45.8369159,0.797599096 38.4295794,16.6050856 38.4295794,16.6050856 L41.5219626,44.2040841 L74.925,43.528367 L76.3330374,37.3242649" id="Fill-84" fill="#C24D2C"></path>
                <path d="M15.9059019,41.2432705 C15.8048411,25.6032759 4.27256075,21.2113067 3.78126168,21.0319331 L4.70405607,18.4080199 C4.84788785,18.459379 8.26654206,19.7119277 11.6920093,23.1621858 C14.8362477,26.3292023 18.5970701,32.0338947 18.6564953,41.2248732 L15.9059019,41.2432705" id="Fill-85" fill="#FFFFFE"></path>
                <path d="M33.0245327,38.5587995 C32.8920561,17.8683661 17.1761636,11.9900493 17.0171916,11.932941 L17.9358224,9.30787797 C18.1193972,9.37341831 22.4733364,10.9686165 26.8556636,15.3828158 C30.8821963,19.4394179 35.7005607,26.7500402 35.7762617,38.5407855 L33.0245327,38.5587995" id="Fill-86" fill="#FFFFFE"></path>
                <path d="M63.747757,36.0491028 C61.7719626,27.0781252 64.1754673,20.6655205 66.5411215,16.8660972 C69.1149533,12.7270906 72.173271,10.7313681 72.3019626,10.6485803 L73.7781308,12.9992172 L73.0400467,11.8237071 L73.7781308,12.9969175 C73.3390654,13.282842 63.0740187,20.1772258 66.4313551,35.4435254 L63.747757,36.0491028" id="Fill-87" fill="#FFFFFE"></path>
                <path d="M46.4690187,37.3135331 C43.9368224,25.8048795 47.0140654,17.5878075 50.0421028,12.7209582 C53.3388785,7.42560542 57.2299065,4.88409672 57.3926636,4.77831232 L58.8726168,7.12741605 C58.8347664,7.15041266 55.2616822,9.50603209 52.3017757,14.3150066 C48.353972,20.7279946 47.2941589,28.2620673 49.1526168,36.7075724 L46.4690187,37.3135331" id="Fill-88" fill="#FFFFFE"></path>
                <path d="M23.2666822,10.7593473 C19.5009393,10.7593473 15.5959065,11.9915824 11.6590794,14.4215575 C4.86378505,18.6157559 2.02613551,24.9072452 3.2237243,33.1216344 C4.14765421,39.4541342 7.21429907,44.6130405 7.24495794,44.6643995 L7.30854673,44.7816823 L9.58373832,49.5320154 L40.011729,43.1002468 L37.1123832,17.1876664 C35.9806542,15.9151873 30.9314019,10.7593473 23.2666822,10.7593473 Z M9.09508879,52.4805641 L7.57652804,51.7247421 L4.8603785,46.0537781 C4.47543925,45.4010576 1.49130841,40.1773776 0.51514486,33.6122287 C-0.872453271,24.2802043 2.48601869,16.8216371 10.2275748,12.0433247 C14.6019533,9.34313944 18.9888224,7.97407458 23.2666822,7.97407458 C33.3349065,7.97407458 39.2622897,15.424593 39.5083178,15.7415629 L39.7959813,16.4483254 L42.8883645,44.0473238 L41.8020561,45.5673998 L9.09508879,52.4805641 L9.09508879,52.4805641 Z" id="Fill-89" fill="#2D2952"></path>
                <path d="M39.8451869,16.8668637 L42.7445327,42.7863431 L73.8235514,42.1573858 L75.0271963,36.8827299 C75.0461215,36.8267715 76.8932243,31.1036818 76.3935981,24.7221225 C75.7463551,16.4452592 71.5903738,10.9567349 64.0392056,8.40871051 C61.2723364,7.47466486 58.6038785,7.00131797 56.1057477,7.00131797 C45.6892991,7.00131797 40.8028037,15.0704452 39.8451869,16.8668637 Z M41.5484579,45.5969121 L40.1555607,44.3608443 L37.0631776,16.7618459 L37.1880841,16.0083236 C37.4151869,15.5269279 42.8618692,4.21566192 56.1057477,4.21566192 C58.8991121,4.21566192 61.8628037,4.73730169 64.9097664,5.7664 C73.5093925,8.66895548 78.4337383,15.1766129 79.1415421,24.5864425 C79.6411682,31.2060167 77.8886916,36.9731833 77.6578037,37.6975765 L76.2649065,43.8399711 L74.9514953,44.9208118 L41.5484579,45.5969121 L41.5484579,45.5969121 Z" id="Fill-90" fill="#2D2952"></path>
                <path d="M79.5578972,35.265685 L76.223271,54.5088651 L76.1967757,54.511548 C75.7539252,50.5457826 60.5948131,49.0287729 42.3395327,51.1241473 C24.0846308,53.2195218 9.64619159,58.1342807 10.0901776,62.1000461 L9.97359813,62.1134608 L2.47352804,44.114014 L12.4861121,47.6639241 L21.8639439,35.0889944 L34.7959346,40.403511 L39.1373832,22.9337528 L47.2298131,38.9765713 L58.6606542,30.8652836 L70.5835514,40.9949071 L79.5578972,35.265685" id="Fill-93" fill="#F6C171"></path>
                <path d="M4.94629907,46.466184 L10.1738271,59.0116014 C15.2533598,54.0807449 32.3053738,50.8746341 42.1843458,49.740518 C47.6045327,49.1180764 53.0209346,48.7892249 57.8506542,48.7892249 C67.6993458,48.7892249 72.820514,49.9681844 75.3527103,51.4713962 L77.6653738,38.1195643 L71.3178505,42.1731001 L69.6978505,42.0619498 L58.5849533,32.6195417 L48.0171028,40.1172032 L46.0034579,39.6101279 L39.5802336,26.868856 L36.1320561,40.7434775 L34.2811682,41.6940041 L22.3249626,36.7815449 L13.5833972,48.5033003 L12.031528,48.9781803 L4.94629907,46.466184 Z M10.1284065,63.4974734 L8.70636449,62.655031 L1.2066729,44.6555842 L2.92811215,42.7997577 L11.9932991,46.013534 L20.7662804,34.2496181 L22.3809813,33.7985012 L33.8496729,38.5112732 L37.8050467,22.5937862 L40.3637383,22.3001962 L47.7332243,36.9172249 L57.8695794,29.725035 L59.5425701,29.7986242 L70.6971028,39.275144 L78.8235981,34.0878753 L80.9091589,35.5067661 L77.5783178,54.7495629 L76.3746729,55.8928777 L74.8303738,54.6683082 C74.762243,54.054682 71.526028,51.5744976 57.8506542,51.5744976 C53.1231308,51.5744976 47.8127103,51.8972167 42.4947196,52.5077767 C33.7588318,53.5108122 25.6429346,55.1880316 19.640986,57.2308972 C12.7904299,59.5623702 11.4028318,61.4618902 11.4565794,61.9432859 L10.2453645,63.4840588 L10.1284065,63.4974734 L10.1284065,63.4974734 Z" id="Fill-94" fill="#2D2952"></path>
                <polyline id="Fill-95" fill="#2D2952" points="37.7709813 23.090513 35.2236449 0.321569265 37.9564486 0.00804881352 40.5075701 22.7769925 37.7709813 23.090513"></polyline>
                <polyline id="Fill-96" fill="#2D2952" points="31.8587383 7.36888045 31.5483645 4.60123842 42.4871495 3.3456235 42.7937383 6.11288226 31.8587383 7.36888045"></polyline>
                <path d="M41.3402804,41.3831666 C41.2872897,41.3831666 41.2380841,41.386616 41.1850935,41.3923652 C40.4507944,41.4766861 39.9171028,42.1516366 40.0003738,42.8967268 C40.0836449,43.6356845 40.742243,44.1761049 41.4878972,44.0940836 C42.2221963,44.0093794 42.7558879,43.3348122 42.6726168,42.589722 C42.5931308,41.9021234 42.0215888,41.3831666 41.3402804,41.3831666 Z M41.3327103,46.8881718 C39.2509346,46.8881718 37.502243,45.3071548 37.2675701,43.2102472 C37.013972,40.9389487 38.633972,38.8819019 40.8747196,38.6247232 C41.0299065,38.6070924 41.1850935,38.5978938 41.3402804,38.5978938 C43.4220561,38.5978938 45.1707477,40.179294 45.4054206,42.2762016 C45.6590187,44.5475001 44.0390187,46.6041636 41.798271,46.8617256 C41.6430841,46.8797397 41.4878972,46.8881718 41.3327103,46.8881718 L41.3327103,46.8881718 Z" id="Fill-97" fill="#2D2952"></path>
                <path d="M24.2401963,45.2170847 C24.1894766,45.2170847 24.138,45.220151 24.0861449,45.2259001 C23.3503318,45.310221 22.8196682,45.9851715 22.9029393,46.7302617 C22.9858318,47.4692194 23.6425374,48.0096398 24.3885701,47.9280018 C24.7451215,47.8869912 25.0638224,47.7080009 25.2871402,47.4239928 C25.5108364,47.1396014 25.6115187,46.784687 25.5710187,46.4236402 C25.4941822,45.7356583 24.9222617,45.2170847 24.2401963,45.2170847 Z M24.2341402,50.7220899 C22.151986,50.7220899 20.4048084,49.1406897 20.1701355,47.0437821 C19.9157804,44.7724836 21.5338879,42.7154368 23.7761495,42.4582581 C26.0577757,42.1941803 28.0509813,43.8591349 28.3045794,46.1101198 C28.4257009,47.209741 28.1191121,48.2928814 27.4378037,49.159087 C26.7580093,50.0249094 25.7848738,50.5706956 24.6985654,50.6952606 C24.542243,50.7132746 24.3874346,50.7220899 24.2341402,50.7220899 L24.2341402,50.7220899 Z" id="Fill-98" fill="#2D2952"></path>
                <path d="M59.1413551,41.2110753 C59.0883645,41.2110753 59.0391589,41.2137582 58.9861682,41.2198906 C58.6303738,41.2609012 58.3124299,41.4395082 58.0891121,41.7238997 C57.8620093,42.0079078 57.7635981,42.3628221 57.8052336,42.7238689 C57.8847196,43.4635932 58.5471028,44.0063132 59.288972,43.921609 C59.6447664,43.8805984 59.9627103,43.7016081 60.186028,43.4176 C60.4131308,43.1335919 60.5115421,42.7782942 60.4699065,42.4176307 C60.3942056,41.7296488 59.8226636,41.2110753 59.1413551,41.2110753 Z M59.133785,46.7156972 C57.0520093,46.7156972 55.3033178,45.1346802 55.0686449,43.0377727 C54.9475234,41.9377681 55.2541121,40.8546278 55.9354206,39.9884221 C56.616729,39.1225998 57.589486,38.5768136 58.6757944,38.4522486 C60.9581776,38.1885541 62.9528972,39.8527421 63.2027103,42.1041103 C63.3276168,43.2037315 63.021028,44.2864886 62.3397196,45.1526942 C61.6584112,46.0188999 60.6856542,46.5643028 59.5993458,46.6888678 C59.4441589,46.7068818 59.288972,46.7156972 59.133785,46.7156972 L59.133785,46.7156972 Z" id="Fill-99" fill="#2D2952"></path>
            </g>
        </g>
        <g id="Group" transform="translate(509.000000, 143.000000)">
            <g transform="translate(1.000000, 0.000000)">
                <rect id="Rectangle" fill="#9ED0D7" x="4.3945082" y="2.91465217" width="105.928197" height="36.1461739"></rect>
                <path d="M110.322705,41.8651739 L4.3945082,41.8651739 C2.83163934,41.8651739 1.56663934,40.6088261 1.56663934,39.0608261 L1.56663934,2.91465217 C1.56663934,1.36665217 2.83163934,0.110304348 4.3945082,0.110304348 L110.322705,0.110304348 C111.885574,0.110304348 113.150574,1.36665217 113.150574,2.91465217 L113.150574,39.0608261 C113.150574,40.6088261 111.885574,41.8651739 110.322705,41.8651739 Z M7.22237705,36.2564783 L107.494836,36.2564783 L107.494836,5.719 L7.22237705,5.719 L7.22237705,36.2564783 Z" id="Shape" fill="#303E5C" fill-rule="nonzero"></path>
            </g>
            <path d="M96,21.4981912 C96,23.9843187 93.9003256,26 91.3124862,26 C88.7227621,26 86.6249725,23.9843187 86.6249725,21.4981912 C86.6249725,19.0138731 88.7227621,17.0000012 91.3124862,17.0000012 C93.9003256,16.9981918 96,19.0138731 96,21.4981912 Z M21.367317,19.2255739 C20.0592613,19.2255739 19,20.2424616 19,21.4981912 C19,22.7539208 20.0592613,23.7744273 21.367317,23.7744273 C22.6753727,23.7744273 23.7346339,22.7557302 23.7346339,21.4981912 C23.7346339,20.2424616 22.6734879,19.2255739 21.367317,19.2255739 Z M31.6583605,19.2255739 C30.3521896,19.2255739 29.2929283,20.2424616 29.2929283,21.4981912 C29.2929283,22.7539208 30.3521896,23.7744273 31.6583605,23.7744273 C32.9664162,23.7744273 34.029447,22.7557302 34.029447,21.4981912 C34.029447,20.2424616 32.968301,19.2255739 31.6583605,19.2255739 Z M41.9550584,19.2255739 C40.6470027,19.2255739 39.5858566,20.2424616 39.5858566,21.4981912 C39.5858566,22.7539208 40.6451179,23.7744273 41.9550584,23.7744273 C43.2612293,23.7744273 44.3223753,22.7557302 44.3223753,21.4981912 C44.3223753,20.2424616 43.2631141,19.2255739 41.9550584,19.2255739 Z M52.2479867,19.2255739 C50.9418158,19.2255739 49.8806697,20.2424616 49.8806697,21.4981912 C49.8806697,22.7539208 50.939931,23.7744273 52.2479867,23.7744273 C53.5560424,23.7744273 54.6153036,22.7557302 54.6153036,21.4981912 C54.6153036,20.2424616 53.5560424,19.2255739 52.2479867,19.2255739 Z M62.5427998,19.2255739 C61.2347441,19.2255739 60.173598,20.2424616 60.173598,21.4981912 C60.173598,22.7539208 61.2328593,23.7744273 62.5427998,23.7744273 C63.8527403,23.7744273 64.9120016,22.7557302 64.9120016,21.4981912 C64.9120016,20.2424616 63.8527403,19.2255739 62.5427998,19.2255739 Z M74.7035713,19.2255739 C73.3955156,19.2255739 72.3362544,20.2424616 72.3362544,21.4981912 C72.3362544,22.7539208 73.3955156,23.7744273 74.7035713,23.7744273 C76.0097422,23.7744273 77.0708883,22.7557302 77.0708883,21.4981912 C77.0708883,20.2424616 76.0116271,19.2255739 74.7035713,19.2255739 Z" id="Shape" fill="#303E5C" fill-rule="nonzero"></path>
            <g transform="translate(1.000000, 38.000000)">
                <rect id="Rectangle" fill="#9ED0D7" x="4.3945082" y="4.095" width="105.928197" height="36.25125"></rect>
                <path d="M110.322705,43.15875 L4.3945082,43.15875 C2.83163934,43.15875 1.56663934,41.89875 1.56663934,40.34625 L1.56663934,4.095 C1.56663934,2.5425 2.83163934,1.2825 4.3945082,1.2825 L110.322705,1.2825 C111.885574,1.2825 113.150574,2.5425 113.150574,4.095 L113.150574,40.34625 C113.150574,41.89875 111.885574,43.15875 110.322705,43.15875 Z M7.22237705,37.53375 L107.494836,37.53375 L107.494836,6.9075 L7.22237705,6.9075 L7.22237705,37.53375 Z" id="Shape" fill="#303E5C" fill-rule="nonzero"></path>
            </g>
            <path d="M96,59.4981912 C96,61.9843187 93.9003256,64 91.3124862,64 C88.7227621,64 86.6249725,61.9843187 86.6249725,59.4981912 C86.6249725,57.0138731 88.7227621,55.0000012 91.3124862,55.0000012 C93.9003256,54.9981918 96,57.0138731 96,59.4981912 Z M21.367317,57.2255739 C20.0592613,57.2255739 19,58.2424616 19,59.4981912 C19,60.7539208 20.0592613,61.7744273 21.367317,61.7744273 C22.6753727,61.7744273 23.7346339,60.7557302 23.7346339,59.4981912 C23.7346339,58.2424616 22.6734879,57.2255739 21.367317,57.2255739 Z M31.6583605,57.2255739 C30.3521896,57.2255739 29.2929283,58.2424616 29.2929283,59.4981912 C29.2929283,60.7539208 30.3521896,61.7744273 31.6583605,61.7744273 C32.9664162,61.7744273 34.029447,60.7557302 34.029447,59.4981912 C34.029447,58.2424616 32.968301,57.2255739 31.6583605,57.2255739 Z M41.9550584,57.2255739 C40.6470027,57.2255739 39.5858566,58.2424616 39.5858566,59.4981912 C39.5858566,60.7539208 40.6451179,61.7744273 41.9550584,61.7744273 C43.2612293,61.7744273 44.3223753,60.7557302 44.3223753,59.4981912 C44.3223753,58.2424616 43.2631141,57.2255739 41.9550584,57.2255739 Z M52.2479867,57.2255739 C50.9418158,57.2255739 49.8806697,58.2424616 49.8806697,59.4981912 C49.8806697,60.7539208 50.939931,61.7744273 52.2479867,61.7744273 C53.5560424,61.7744273 54.6153036,60.7557302 54.6153036,59.4981912 C54.6153036,58.2424616 53.5560424,57.2255739 52.2479867,57.2255739 Z M62.5427998,57.2255739 C61.2347441,57.2255739 60.173598,58.2424616 60.173598,59.4981912 C60.173598,60.7539208 61.2328593,61.7744273 62.5427998,61.7744273 C63.8527403,61.7744273 64.9120016,60.7557302 64.9120016,59.4981912 C64.9120016,58.2424616 63.8527403,57.2255739 62.5427998,57.2255739 Z M74.7035713,57.2255739 C73.3955156,57.2255739 72.3362544,58.2424616 72.3362544,59.4981912 C72.3362544,60.7539208 73.3955156,61.7744273 74.7035713,61.7744273 C76.0097422,61.7744273 77.0708883,60.7557302 77.0708883,59.4981912 C77.0708883,58.2424616 76.0116271,57.2255739 74.7035713,57.2255739 Z" id="Shape" fill="#303E5C" fill-rule="nonzero"></path>
            <g transform="translate(1.000000, 75.000000)">
                <rect id="Rectangle" fill="#9ED0D7" x="4.3945082" y="3.79708696" width="105.928197" height="36.1461739"></rect>
                <path d="M110.322705,42.7476087 L4.3945082,42.7476087 C2.83163934,42.7476087 1.56663934,41.4912609 1.56663934,39.9432609 L1.56663934,3.79708696 C1.56663934,2.24908696 2.83163934,0.99273913 4.3945082,0.99273913 L110.322705,0.99273913 C111.885574,0.99273913 113.150574,2.24908696 113.150574,3.79708696 L113.150574,39.9432609 C113.150574,41.4912609 111.885574,42.7476087 110.322705,42.7476087 Z M7.22237705,37.138913 L107.494836,37.138913 L107.494836,6.60143478 L7.22237705,6.60143478 L7.22237705,37.138913 Z" id="Shape" fill="#303E5C" fill-rule="nonzero"></path>
            </g>
            <path d="M96,96.4981906 C96,98.9843185 93.9003256,101 91.3124862,101 C88.7227621,101 86.6249725,98.9843185 86.6249725,96.4981906 C86.6249725,94.0138721 88.7227621,92 91.3124862,92 C93.9003256,92 96,94.0138721 96,96.4981906 Z M21.367317,94.225573 C20.0592613,94.225573 19,95.2424608 19,96.4981906 C19,97.7539204 20.0592613,98.774427 21.367317,98.774427 C22.6753727,98.774427 23.7346339,97.7557298 23.7346339,96.4981906 C23.7346339,95.2442702 22.6734879,94.225573 21.367317,94.225573 Z M31.6583605,94.225573 C30.3521896,94.225573 29.2929283,95.2424608 29.2929283,96.4981906 C29.2929283,97.7539204 30.3521896,98.774427 31.6583605,98.774427 C32.9664162,98.774427 34.029447,97.7557298 34.029447,96.4981906 C34.029447,95.2442702 32.968301,94.225573 31.6583605,94.225573 Z M41.9550584,94.225573 C40.6470027,94.225573 39.5858566,95.2424608 39.5858566,96.4981906 C39.5858566,97.7539204 40.6451179,98.774427 41.9550584,98.774427 C43.2612293,98.774427 44.3223753,97.7557298 44.3223753,96.4981906 C44.3223753,95.2442702 43.2631141,94.225573 41.9550584,94.225573 Z M52.2479867,94.225573 C50.9418158,94.225573 49.8806697,95.2424608 49.8806697,96.4981906 C49.8806697,97.7539204 50.939931,98.774427 52.2479867,98.774427 C53.5560424,98.774427 54.6153036,97.7557298 54.6153036,96.4981906 C54.6153036,95.2442702 53.5560424,94.225573 52.2479867,94.225573 Z M62.5427998,94.225573 C61.2347441,94.225573 60.173598,95.2424608 60.173598,96.4981906 C60.173598,97.7539204 61.2328593,98.774427 62.5427998,98.774427 C63.8527403,98.774427 64.9120016,97.7557298 64.9120016,96.4981906 C64.9120016,95.2442702 63.8527403,94.225573 62.5427998,94.225573 Z M74.7035713,94.225573 C73.3955156,94.225573 72.3362544,95.2424608 72.3362544,96.4981906 C72.3362544,97.7539204 73.3955156,98.774427 74.7035713,98.774427 C76.0097422,98.774427 77.0708883,97.7557298 77.0708883,96.4981906 C77.0708883,95.2442702 76.0116271,94.225573 74.7035713,94.225573 Z" id="Shape" fill="#303E5C" fill-rule="nonzero"></path>
            <g transform="translate(1.000000, 111.000000)">
                <rect id="Rectangle" fill="#9ED0D7" x="4.3945082" y="4.434375" width="105.928197" height="36.25125"></rect>
                <path d="M110.322705,43.498125 L4.3945082,43.498125 C2.83163934,43.498125 1.56663934,42.238125 1.56663934,40.685625 L1.56663934,4.434375 C1.56663934,2.881875 2.83163934,1.621875 4.3945082,1.621875 L110.322705,1.621875 C111.885574,1.621875 113.150574,2.881875 113.150574,4.434375 L113.150574,40.685625 C113.150574,42.238125 111.885574,43.498125 110.322705,43.498125 Z M7.22237705,37.873125 L107.494836,37.873125 L107.494836,7.246875 L7.22237705,7.246875 L7.22237705,37.873125 Z" id="Shape" fill="#303E5C" fill-rule="nonzero"></path>
            </g>
            <path d="M96,133.498191 C96,135.984318 93.9003256,138 91.3124862,138 C88.7227621,138 86.6249725,135.984318 86.6249725,133.498191 C86.6249725,131.013872 88.7227621,129 91.3124862,129 C93.9003256,129 96,131.013872 96,133.498191 Z M21.367317,131.225573 C20.0592613,131.225573 19,132.242461 19,133.498191 C19,134.75392 20.0592613,135.774427 21.367317,135.774427 C22.6753727,135.774427 23.7346339,134.75573 23.7346339,133.498191 C23.7346339,132.24427 22.6734879,131.225573 21.367317,131.225573 Z M31.6583605,131.225573 C30.3521896,131.225573 29.2929283,132.242461 29.2929283,133.498191 C29.2929283,134.75392 30.3521896,135.774427 31.6583605,135.774427 C32.9664162,135.774427 34.029447,134.75573 34.029447,133.498191 C34.029447,132.24427 32.968301,131.225573 31.6583605,131.225573 Z M41.9550584,131.225573 C40.6470027,131.225573 39.5858566,132.242461 39.5858566,133.498191 C39.5858566,134.75392 40.6451179,135.774427 41.9550584,135.774427 C43.2612293,135.774427 44.3223753,134.75573 44.3223753,133.498191 C44.3223753,132.24427 43.2631141,131.225573 41.9550584,131.225573 Z M52.2479867,131.225573 C50.9418158,131.225573 49.8806697,132.242461 49.8806697,133.498191 C49.8806697,134.75392 50.939931,135.774427 52.2479867,135.774427 C53.5560424,135.774427 54.6153036,134.75573 54.6153036,133.498191 C54.6153036,132.24427 53.5560424,131.225573 52.2479867,131.225573 Z M62.5427998,131.225573 C61.2347441,131.225573 60.173598,132.242461 60.173598,133.498191 C60.173598,134.75392 61.2328593,135.774427 62.5427998,135.774427 C63.8527403,135.774427 64.9120016,134.75573 64.9120016,133.498191 C64.9120016,132.24427 63.8527403,131.225573 62.5427998,131.225573 Z M74.7035713,131.225573 C73.3955156,131.225573 72.3362544,132.242461 72.3362544,133.498191 C72.3362544,134.75392 73.3955156,135.774427 74.7035713,135.774427 C76.0097422,135.774427 77.0708883,134.75573 77.0708883,133.498191 C77.0708883,132.24427 76.0116271,131.225573 74.7035713,131.225573 Z" id="Shape" fill="#303E5C" fill-rule="nonzero"></path>
        </g>
        <g id="Group" transform="translate(510.000000, 406.000000)">
            <g transform="translate(1.000000, 0.000000)">
                <rect id="Rectangle" fill="#F3BEB8" x="4.62827869" y="4.48875" width="105.928197" height="36.25125"></rect>
                <path d="M110.558361,43.5525 L4.63016393,43.5525 C3.06729508,43.5525 1.80229508,42.294375 1.80229508,40.74 L1.80229508,4.48875 C1.80229508,2.934375 3.06729508,1.67625 4.63016393,1.67625 L110.558361,1.67625 C112.119344,1.67625 113.38623,2.934375 113.38623,4.48875 L113.38623,40.74 C113.38623,42.2925 112.119344,43.5525 110.558361,43.5525 Z M7.45614754,37.9275 L107.728607,37.9275 L107.728607,7.30125 L7.45614754,7.30125 L7.45614754,37.9275 Z" id="Shape" fill="#303E5C" fill-rule="nonzero"></path>
            </g>
            <path d="M96,22.4981912 C96,24.9843187 93.900377,27 91.312601,27 C88.7229402,27 86.6252019,24.9843187 86.6252019,22.4981912 C86.6252019,20.0138731 88.7229402,18.0000012 91.312601,18.0000012 C93.8984922,17.9981918 96,20.0138731 96,22.4981912 Z M21.367259,20.2255739 C20.0592353,20.2255739 19,21.2424616 19,22.4981912 C19,23.7539208 20.0592353,24.7744273 21.367259,24.7744273 C22.673398,24.7744273 23.734518,23.7557302 23.734518,22.4981912 C23.734518,21.2424616 22.673398,20.2255739 21.367259,20.2255739 Z M31.6599354,20.2255739 C30.3537964,20.2255739 29.2945611,21.2424616 29.2945611,22.4981912 C29.2945611,23.7539208 30.3537964,24.7744273 31.6599354,24.7744273 C32.9679591,24.7744273 34.0309639,23.7557302 34.0309639,22.4981912 C34.0309639,21.2424616 32.9679591,20.2255739 31.6599354,20.2255739 Z M41.9563813,20.2255739 C40.6483576,20.2255739 39.5872375,21.2424616 39.5872375,22.4981912 C39.5872375,23.7539208 40.6464728,24.7744273 41.9563813,24.7744273 C43.2625202,24.7744273 44.3236403,23.7557302 44.3236403,22.4981912 C44.3236403,21.2424616 43.2625202,20.2255739 41.9563813,20.2255739 Z M52.2490576,20.2255739 C50.9429187,20.2255739 49.8817986,21.2424616 49.8817986,22.4981912 C49.8817986,23.7539208 50.9410339,24.7744273 52.2490576,24.7744273 C53.5570813,24.7744273 54.6163166,23.7557302 54.6163166,22.4981912 C54.6163166,21.2424616 53.5551966,20.2255739 52.2490576,20.2255739 Z M62.5436187,20.2255739 C61.235595,20.2255739 60.174475,21.2424616 60.174475,22.4981912 C60.174475,23.7539208 61.2337103,24.7744273 62.5436187,24.7744273 C63.8535272,24.7744273 64.9127625,23.7557302 64.9127625,22.4981912 C64.9127625,21.2424616 63.8516424,20.2255739 62.5436187,20.2255739 Z M74.7040926,20.2255739 C73.3960689,20.2255739 72.3368336,21.2424616 72.3368336,22.4981912 C72.3368336,23.7539208 73.3960689,24.7744273 74.7040926,24.7744273 C76.0102316,24.7744273 77.0713516,23.7557302 77.0713516,22.4981912 C77.0713516,21.2424616 76.0102316,20.2255739 74.7040926,20.2255739 Z" id="Shape" fill="#303E5C" fill-rule="nonzero"></path>
            <g transform="translate(1.000000, 39.000000)">
                <rect id="Rectangle" fill="#F3BEB8" x="4.62827869" y="3.77465217" width="105.928197" height="36.1461739"></rect>
                <path d="M110.558361,42.7251739 L4.63016393,42.7251739 C3.06729508,42.7251739 1.80229508,41.4706957 1.80229508,39.9208261 L1.80229508,3.77465217 C1.80229508,2.22478261 3.06729508,0.970304348 4.63016393,0.970304348 L110.558361,0.970304348 C112.119344,0.970304348 113.38623,2.22478261 113.38623,3.77465217 L113.38623,39.9208261 C113.38623,41.4688261 112.119344,42.7251739 110.558361,42.7251739 Z M7.45614754,37.1164783 L107.728607,37.1164783 L107.728607,6.579 L7.45614754,6.579 L7.45614754,37.1164783 Z" id="Shape" fill="#303E5C" fill-rule="nonzero"></path>
            </g>
            <path d="M96,61.4981912 C96,63.9843187 93.900377,66 91.312601,66 C88.7229402,66 86.6252019,63.9843187 86.6252019,61.4981912 C86.6252019,59.0138731 88.7229402,57.0000012 91.312601,57.0000012 C93.8984922,56.9981918 96,59.0138731 96,61.4981912 Z M21.367259,59.2255739 C20.0592353,59.2255739 19,60.2424616 19,61.4981912 C19,62.7539208 20.0592353,63.7744273 21.367259,63.7744273 C22.673398,63.7744273 23.734518,62.7557302 23.734518,61.4981912 C23.734518,60.2424616 22.673398,59.2255739 21.367259,59.2255739 Z M31.6599354,59.2255739 C30.3537964,59.2255739 29.2945611,60.2424616 29.2945611,61.4981912 C29.2945611,62.7539208 30.3537964,63.7744273 31.6599354,63.7744273 C32.9679591,63.7744273 34.0309639,62.7557302 34.0309639,61.4981912 C34.0309639,60.2424616 32.9679591,59.2255739 31.6599354,59.2255739 Z M41.9563813,59.2255739 C40.6483576,59.2255739 39.5872375,60.2424616 39.5872375,61.4981912 C39.5872375,62.7539208 40.6464728,63.7744273 41.9563813,63.7744273 C43.2625202,63.7744273 44.3236403,62.7557302 44.3236403,61.4981912 C44.3236403,60.2424616 43.2625202,59.2255739 41.9563813,59.2255739 Z M52.2490576,59.2255739 C50.9429187,59.2255739 49.8817986,60.2424616 49.8817986,61.4981912 C49.8817986,62.7539208 50.9410339,63.7744273 52.2490576,63.7744273 C53.5570813,63.7744273 54.6163166,62.7557302 54.6163166,61.4981912 C54.6163166,60.2424616 53.5551966,59.2255739 52.2490576,59.2255739 Z M62.5436187,59.2255739 C61.235595,59.2255739 60.174475,60.2424616 60.174475,61.4981912 C60.174475,62.7539208 61.2337103,63.7744273 62.5436187,63.7744273 C63.8535272,63.7744273 64.9127625,62.7557302 64.9127625,61.4981912 C64.9127625,60.2424616 63.8516424,59.2255739 62.5436187,59.2255739 Z M74.7040926,59.2255739 C73.3960689,59.2255739 72.3368336,60.2424616 72.3368336,61.4981912 C72.3368336,62.7539208 73.3960689,63.7744273 74.7040926,63.7744273 C76.0102316,63.7744273 77.0713516,62.7557302 77.0713516,61.4981912 C77.0713516,60.2424616 76.0102316,59.2255739 74.7040926,59.2255739 Z" id="Shape" fill="#303E5C" fill-rule="nonzero"></path>
            <g transform="translate(1.000000, 77.000000)">
                <rect id="Rectangle" fill="#F3BEB8" x="4.62827869" y="3.4886087" width="105.928197" height="36.1461739"></rect>
                <path d="M110.558361,42.4391304 L4.63016393,42.4391304 C3.06729508,42.4391304 1.80229508,41.1846522 1.80229508,39.6347826 L1.80229508,3.4886087 C1.80229508,1.93873913 3.06729508,0.68426087 4.63016393,0.68426087 L110.558361,0.68426087 C112.119344,0.68426087 113.38623,1.93873913 113.38623,3.4886087 L113.38623,39.6347826 C113.38623,41.1846522 112.119344,42.4391304 110.558361,42.4391304 Z M7.45614754,36.8304348 L107.728607,36.8304348 L107.728607,6.29295652 L7.45614754,6.29295652 L7.45614754,36.8304348 Z" id="Shape" fill="#303E5C" fill-rule="nonzero"></path>
            </g>
            <path d="M96,98.4981906 C96,100.984318 93.900377,103 91.312601,103 C88.7229402,103 86.6252019,100.984318 86.6252019,98.4981906 C86.6252019,96.0138721 88.7229402,94 91.312601,94 C93.8984922,94 96,96.0138721 96,98.4981906 Z M21.367259,96.225573 C20.0592353,96.225573 19,97.2424608 19,98.4981906 C19,99.7539204 20.0592353,100.774427 21.367259,100.774427 C22.673398,100.774427 23.734518,99.7557298 23.734518,98.4981906 C23.734518,97.2442702 22.673398,96.225573 21.367259,96.225573 Z M31.6599354,96.225573 C30.3537964,96.225573 29.2945611,97.2424608 29.2945611,98.4981906 C29.2945611,99.7539204 30.3537964,100.774427 31.6599354,100.774427 C32.9679591,100.774427 34.0309639,99.7557298 34.0309639,98.4981906 C34.0309639,97.2442702 32.9679591,96.225573 31.6599354,96.225573 Z M41.9563813,96.225573 C40.6483576,96.225573 39.5872375,97.2424608 39.5872375,98.4981906 C39.5872375,99.7539204 40.6464728,100.774427 41.9563813,100.774427 C43.2625202,100.774427 44.3236403,99.7557298 44.3236403,98.4981906 C44.3236403,97.2442702 43.2625202,96.225573 41.9563813,96.225573 Z M52.2490576,96.225573 C50.9429187,96.225573 49.8817986,97.2424608 49.8817986,98.4981906 C49.8817986,99.7539204 50.9410339,100.774427 52.2490576,100.774427 C53.5570813,100.774427 54.6163166,99.7557298 54.6163166,98.4981906 C54.6163166,97.2442702 53.5551966,96.225573 52.2490576,96.225573 Z M62.5436187,96.225573 C61.235595,96.225573 60.174475,97.2424608 60.174475,98.4981906 C60.174475,99.7539204 61.2337103,100.774427 62.5436187,100.774427 C63.8535272,100.774427 64.9127625,99.7557298 64.9127625,98.4981906 C64.9127625,97.2442702 63.8516424,96.225573 62.5436187,96.225573 Z M74.7040926,96.225573 C73.3960689,96.225573 72.3368336,97.2424608 72.3368336,98.4981906 C72.3368336,99.7539204 73.3960689,100.774427 74.7040926,100.774427 C76.0102316,100.774427 77.0713516,99.7557298 77.0713516,98.4981906 C77.0713516,97.2442702 76.0102316,96.225573 74.7040926,96.225573 Z" id="Shape" fill="#303E5C" fill-rule="nonzero"></path>
            <g transform="translate(1.000000, 112.000000)">
                <rect id="Rectangle" fill="#F3BEB8" x="4.62827869" y="4.125" width="105.928197" height="36.25125"></rect>
                <path d="M110.558361,43.18875 L4.63016393,43.18875 C3.06729508,43.18875 1.80229508,41.930625 1.80229508,40.37625 L1.80229508,4.125 C1.80229508,2.570625 3.06729508,1.3125 4.63016393,1.3125 L110.558361,1.3125 C112.119344,1.3125 113.38623,2.570625 113.38623,4.125 L113.38623,40.37625 C113.38623,41.930625 112.119344,43.18875 110.558361,43.18875 Z M7.45614754,37.56375 L107.728607,37.56375 L107.728607,6.9375 L7.45614754,6.9375 L7.45614754,37.56375 Z" id="Shape" fill="#303E5C" fill-rule="nonzero"></path>
            </g>
            <path d="M96,134.498191 C96,136.984318 93.900377,139 91.312601,139 C88.7229402,139 86.6252019,136.984318 86.6252019,134.498191 C86.6252019,132.013872 88.7229402,130 91.312601,130 C93.8984922,130 96,132.013872 96,134.498191 Z M21.367259,132.225573 C20.0592353,132.225573 19,133.242461 19,134.498191 C19,135.75392 20.0592353,136.774427 21.367259,136.774427 C22.673398,136.774427 23.734518,135.75573 23.734518,134.498191 C23.734518,133.24427 22.673398,132.225573 21.367259,132.225573 Z M31.6599354,132.225573 C30.3537964,132.225573 29.2945611,133.242461 29.2945611,134.498191 C29.2945611,135.75392 30.3537964,136.774427 31.6599354,136.774427 C32.9679591,136.774427 34.0309639,135.75573 34.0309639,134.498191 C34.0309639,133.24427 32.9679591,132.225573 31.6599354,132.225573 Z M41.9563813,132.225573 C40.6483576,132.225573 39.5872375,133.242461 39.5872375,134.498191 C39.5872375,135.75392 40.6464728,136.774427 41.9563813,136.774427 C43.2625202,136.774427 44.3236403,135.75573 44.3236403,134.498191 C44.3236403,133.24427 43.2625202,132.225573 41.9563813,132.225573 Z M52.2490576,132.225573 C50.9429187,132.225573 49.8817986,133.242461 49.8817986,134.498191 C49.8817986,135.75392 50.9410339,136.774427 52.2490576,136.774427 C53.5570813,136.774427 54.6163166,135.75573 54.6163166,134.498191 C54.6163166,133.24427 53.5551966,132.225573 52.2490576,132.225573 Z M62.5436187,132.225573 C61.235595,132.225573 60.174475,133.242461 60.174475,134.498191 C60.174475,135.75392 61.2337103,136.774427 62.5436187,136.774427 C63.8535272,136.774427 64.9127625,135.75573 64.9127625,134.498191 C64.9127625,133.24427 63.8516424,132.225573 62.5436187,132.225573 Z M74.7040926,132.225573 C73.3960689,132.225573 72.3368336,133.242461 72.3368336,134.498191 C72.3368336,135.75392 73.3960689,136.774427 74.7040926,136.774427 C76.0102316,136.774427 77.0713516,135.75573 77.0713516,134.498191 C77.0713516,133.24427 76.0102316,132.225573 74.7040926,132.225573 Z" id="Shape" fill="#303E5C" fill-rule="nonzero"></path>
        </g>
        <g id="Group" transform="translate(510.000000, 679.000000)">
            <g transform="translate(1.000000, 0.000000)">
                <rect id="Rectangle" fill="#D1F2A5" x="3.67753027" y="3.48966717" width="106.272959" height="35.8997227"></rect>
                <path d="M109.95238,42.1746172 L3.67942165,42.1746172 C2.11146617,42.1746172 0.842349003,40.9286922 0.842349003,39.3893899 L0.842349003,3.48966717 C0.842349003,1.9503649 2.11146617,0.704439899 3.67942165,0.704439899 L109.95238,0.704439899 C111.518444,0.704439899 112.789453,1.9503649 112.789453,3.48966717 L112.789453,39.3893899 C112.789453,40.9268354 111.518444,42.1746172 109.95238,42.1746172 Z M6.51460292,36.6041626 L107.113416,36.6041626 L107.113416,6.27489444 L6.51460292,6.27489444 L6.51460292,36.6041626 Z" id="Shape" fill="#303E5C" fill-rule="nonzero"></path>
            </g>
            <path d="M95,21.4981912 C95,23.9843187 92.900377,26 90.312601,26 C87.7229402,26 85.6252019,23.9843187 85.6252019,21.4981912 C85.6252019,19.0138731 87.7229402,17.0000012 90.312601,17.0000012 C92.8984922,16.9981918 95,19.0138731 95,21.4981912 Z M20.367259,19.2255739 C19.0592353,19.2255739 18,20.2424616 18,21.4981912 C18,22.7539208 19.0592353,23.7744273 20.367259,23.7744273 C21.673398,23.7744273 22.734518,22.7557302 22.734518,21.4981912 C22.734518,20.2424616 21.673398,19.2255739 20.367259,19.2255739 Z M30.6599354,19.2255739 C29.3537964,19.2255739 28.2945611,20.2424616 28.2945611,21.4981912 C28.2945611,22.7539208 29.3537964,23.7744273 30.6599354,23.7744273 C31.9679591,23.7744273 33.0309639,22.7557302 33.0309639,21.4981912 C33.0309639,20.2424616 31.9679591,19.2255739 30.6599354,19.2255739 Z M40.9563813,19.2255739 C39.6483576,19.2255739 38.5872375,20.2424616 38.5872375,21.4981912 C38.5872375,22.7539208 39.6464728,23.7744273 40.9563813,23.7744273 C42.2625202,23.7744273 43.3236403,22.7557302 43.3236403,21.4981912 C43.3236403,20.2424616 42.2625202,19.2255739 40.9563813,19.2255739 Z M51.2490576,19.2255739 C49.9429187,19.2255739 48.8817986,20.2424616 48.8817986,21.4981912 C48.8817986,22.7539208 49.9410339,23.7744273 51.2490576,23.7744273 C52.5570813,23.7744273 53.6163166,22.7557302 53.6163166,21.4981912 C53.6163166,20.2424616 52.5551966,19.2255739 51.2490576,19.2255739 Z M61.5436187,19.2255739 C60.235595,19.2255739 59.174475,20.2424616 59.174475,21.4981912 C59.174475,22.7539208 60.2337103,23.7744273 61.5436187,23.7744273 C62.8535272,23.7744273 63.9127625,22.7557302 63.9127625,21.4981912 C63.9127625,20.2424616 62.8516424,19.2255739 61.5436187,19.2255739 Z M73.7040926,19.2255739 C72.3960689,19.2255739 71.3368336,20.2424616 71.3368336,21.4981912 C71.3368336,22.7539208 72.3960689,23.7744273 73.7040926,23.7744273 C75.0102316,23.7744273 76.0713516,22.7557302 76.0713516,21.4981912 C76.0713516,20.2424616 75.0102316,19.2255739 73.7040926,19.2255739 Z" id="Shape" fill="#303E5C" fill-rule="nonzero"></path>
            <g transform="translate(1.000000, 39.000000)">
                <rect id="Rectangle" fill="#D1F2A5" x="3.67753027" y="2.79040754" width="106.272959" height="35.8617738"></rect>
                <path d="M109.95238,41.4344644 L3.67942165,41.4344644 C2.11146617,41.4344644 0.842349003,40.1898564 0.842349003,38.6521813 L0.842349003,2.79040754 C0.842349003,1.25273244 2.11146617,0.00812448347 3.67942165,0.00812448347 L109.95238,0.00812448347 C111.518444,0.00812448347 112.789453,1.25273244 112.789453,2.79040754 L112.789453,38.6521813 C112.789453,40.1880015 111.518444,41.4344644 109.95238,41.4344644 Z M6.51460292,35.8698982 L107.113416,35.8698982 L107.113416,5.5726906 L6.51460292,5.5726906 L6.51460292,35.8698982 Z" id="Shape" fill="#303E5C" fill-rule="nonzero"></path>
            </g>
            <path d="M95,60.4981912 C95,62.9843187 92.900377,65 90.312601,65 C87.7229402,65 85.6252019,62.9843187 85.6252019,60.4981912 C85.6252019,58.0138731 87.7229402,56.0000012 90.312601,56.0000012 C92.8984922,55.9981918 95,58.0138731 95,60.4981912 Z M20.367259,58.2255739 C19.0592353,58.2255739 18,59.2424616 18,60.4981912 C18,61.7539208 19.0592353,62.7744273 20.367259,62.7744273 C21.673398,62.7744273 22.734518,61.7557302 22.734518,60.4981912 C22.734518,59.2424616 21.673398,58.2255739 20.367259,58.2255739 Z M30.6599354,58.2255739 C29.3537964,58.2255739 28.2945611,59.2424616 28.2945611,60.4981912 C28.2945611,61.7539208 29.3537964,62.7744273 30.6599354,62.7744273 C31.9679591,62.7744273 33.0309639,61.7557302 33.0309639,60.4981912 C33.0309639,59.2424616 31.9679591,58.2255739 30.6599354,58.2255739 Z M40.9563813,58.2255739 C39.6483576,58.2255739 38.5872375,59.2424616 38.5872375,60.4981912 C38.5872375,61.7539208 39.6464728,62.7744273 40.9563813,62.7744273 C42.2625202,62.7744273 43.3236403,61.7557302 43.3236403,60.4981912 C43.3236403,59.2424616 42.2625202,58.2255739 40.9563813,58.2255739 Z M51.2490576,58.2255739 C49.9429187,58.2255739 48.8817986,59.2424616 48.8817986,60.4981912 C48.8817986,61.7539208 49.9410339,62.7744273 51.2490576,62.7744273 C52.5570813,62.7744273 53.6163166,61.7557302 53.6163166,60.4981912 C53.6163166,59.2424616 52.5551966,58.2255739 51.2490576,58.2255739 Z M61.5436187,58.2255739 C60.235595,58.2255739 59.174475,59.2424616 59.174475,60.4981912 C59.174475,61.7539208 60.2337103,62.7744273 61.5436187,62.7744273 C62.8535272,62.7744273 63.9127625,61.7557302 63.9127625,60.4981912 C63.9127625,59.2424616 62.8516424,58.2255739 61.5436187,58.2255739 Z M73.7040926,58.2255739 C72.3960689,58.2255739 71.3368336,59.2424616 71.3368336,60.4981912 C71.3368336,61.7539208 72.3960689,62.7744273 73.7040926,62.7744273 C75.0102316,62.7744273 76.0713516,61.7557302 76.0713516,60.4981912 C76.0713516,59.2424616 75.0102316,58.2255739 73.7040926,58.2255739 Z" id="Shape" fill="#303E5C" fill-rule="nonzero"></path>
            <g transform="translate(1.000000, 76.000000)">
                <rect id="Rectangle" fill="#D1F2A5" x="3.67753027" y="3.46482273" width="106.272959" height="35.8997227"></rect>
                <path d="M109.95238,42.1497727 L3.67942165,42.1497727 C2.11146617,42.1497727 0.842349003,40.9038477 0.842349003,39.3645455 L0.842349003,3.46482273 C0.842349003,1.92552045 2.11146617,0.679595455 3.67942165,0.679595455 L109.95238,0.679595455 C111.518444,0.679595455 112.789453,1.92552045 112.789453,3.46482273 L112.789453,39.3645455 C112.789453,40.9038477 111.518444,42.1497727 109.95238,42.1497727 Z M6.51460292,36.5793182 L107.113416,36.5793182 L107.113416,6.25005 L6.51460292,6.25005 L6.51460292,36.5793182 Z" id="Shape" fill="#303E5C" fill-rule="nonzero"></path>
            </g>
            <path d="M95,97.4981906 C95,99.9843185 92.900377,102 90.312601,102 C87.7229402,102 85.6252019,99.9843185 85.6252019,97.4981906 C85.6252019,95.0138721 87.7229402,93 90.312601,93 C92.8984922,93 95,95.0138721 95,97.4981906 Z M20.367259,95.225573 C19.0592353,95.225573 18,96.2424608 18,97.4981906 C18,98.7539204 19.0592353,99.774427 20.367259,99.774427 C21.673398,99.774427 22.734518,98.7557298 22.734518,97.4981906 C22.734518,96.2442702 21.673398,95.225573 20.367259,95.225573 Z M30.6599354,95.225573 C29.3537964,95.225573 28.2945611,96.2424608 28.2945611,97.4981906 C28.2945611,98.7539204 29.3537964,99.774427 30.6599354,99.774427 C31.9679591,99.774427 33.0309639,98.7557298 33.0309639,97.4981906 C33.0309639,96.2442702 31.9679591,95.225573 30.6599354,95.225573 Z M40.9563813,95.225573 C39.6483576,95.225573 38.5872375,96.2424608 38.5872375,97.4981906 C38.5872375,98.7539204 39.6464728,99.774427 40.9563813,99.774427 C42.2625202,99.774427 43.3236403,98.7557298 43.3236403,97.4981906 C43.3236403,96.2442702 42.2625202,95.225573 40.9563813,95.225573 Z M51.2490576,95.225573 C49.9429187,95.225573 48.8817986,96.2424608 48.8817986,97.4981906 C48.8817986,98.7539204 49.9410339,99.774427 51.2490576,99.774427 C52.5570813,99.774427 53.6163166,98.7557298 53.6163166,97.4981906 C53.6163166,96.2442702 52.5551966,95.225573 51.2490576,95.225573 Z M61.5436187,95.225573 C60.235595,95.225573 59.174475,96.2424608 59.174475,97.4981906 C59.174475,98.7539204 60.2337103,99.774427 61.5436187,99.774427 C62.8535272,99.774427 63.9127625,98.7557298 63.9127625,97.4981906 C63.9127625,96.2442702 62.8516424,95.225573 61.5436187,95.225573 Z M73.7040926,95.225573 C72.3960689,95.225573 71.3368336,96.2424608 71.3368336,97.4981906 C71.3368336,98.7539204 72.3960689,99.774427 73.7040926,99.774427 C75.0102316,99.774427 76.0713516,98.7557298 76.0713516,97.4981906 C76.0713516,96.2442702 75.0102316,95.225573 73.7040926,95.225573 Z" id="Shape" fill="#303E5C" fill-rule="nonzero"></path>
            <g transform="translate(1.000000, 112.000000)">
                <rect id="Rectangle" fill="#D1F2A5" x="3.67753027" y="3.12613636" width="106.272959" height="35.8617738"></rect>
                <path d="M109.95238,41.7701932 L3.67942165,41.7701932 C2.11146617,41.7701932 0.842349003,40.5255852 0.842349003,38.9879101 L0.842349003,3.12613636 C0.842349003,1.58846126 2.11146617,0.343853306 3.67942165,0.343853306 L109.95238,0.343853306 C111.518444,0.343853306 112.789453,1.58846126 112.789453,3.12613636 L112.789453,38.9879101 C112.789453,40.5255852 111.518444,41.7701932 109.95238,41.7701932 Z M6.51460292,36.2056271 L107.113416,36.2056271 L107.113416,5.90841942 L6.51460292,5.90841942 L6.51460292,36.2056271 Z" id="Shape" fill="#303E5C" fill-rule="nonzero"></path>
            </g>
            <path d="M95,133.498191 C95,135.984318 92.900377,138 90.312601,138 C87.7229402,138 85.6252019,135.984318 85.6252019,133.498191 C85.6252019,131.013872 87.7229402,129 90.312601,129 C92.8984922,129 95,131.013872 95,133.498191 Z M20.367259,131.225573 C19.0592353,131.225573 18,132.242461 18,133.498191 C18,134.75392 19.0592353,135.774427 20.367259,135.774427 C21.673398,135.774427 22.734518,134.75573 22.734518,133.498191 C22.734518,132.24427 21.673398,131.225573 20.367259,131.225573 Z M30.6599354,131.225573 C29.3537964,131.225573 28.2945611,132.242461 28.2945611,133.498191 C28.2945611,134.75392 29.3537964,135.774427 30.6599354,135.774427 C31.9679591,135.774427 33.0309639,134.75573 33.0309639,133.498191 C33.0309639,132.24427 31.9679591,131.225573 30.6599354,131.225573 Z M40.9563813,131.225573 C39.6483576,131.225573 38.5872375,132.242461 38.5872375,133.498191 C38.5872375,134.75392 39.6464728,135.774427 40.9563813,135.774427 C42.2625202,135.774427 43.3236403,134.75573 43.3236403,133.498191 C43.3236403,132.24427 42.2625202,131.225573 40.9563813,131.225573 Z M51.2490576,131.225573 C49.9429187,131.225573 48.8817986,132.242461 48.8817986,133.498191 C48.8817986,134.75392 49.9410339,135.774427 51.2490576,135.774427 C52.5570813,135.774427 53.6163166,134.75573 53.6163166,133.498191 C53.6163166,132.24427 52.5551966,131.225573 51.2490576,131.225573 Z M61.5436187,131.225573 C60.235595,131.225573 59.174475,132.242461 59.174475,133.498191 C59.174475,134.75392 60.2337103,135.774427 61.5436187,135.774427 C62.8535272,135.774427 63.9127625,134.75573 63.9127625,133.498191 C63.9127625,132.24427 62.8516424,131.225573 61.5436187,131.225573 Z M73.7040926,131.225573 C72.3960689,131.225573 71.3368336,132.242461 71.3368336,133.498191 C71.3368336,134.75392 72.3960689,135.774427 73.7040926,135.774427 C75.0102316,135.774427 76.0713516,134.75573 76.0713516,133.498191 C76.0713516,132.24427 75.0102316,131.225573 73.7040926,131.225573 Z" id="Shape" fill="#303E5C" fill-rule="nonzero"></path>
        </g>
        <g id="Group-5" transform="translate(935.000000, 139.000000)">
            <ellipse id="Oval" fill="#FFFDA7" cx="83" cy="82.5" rx="83" ry="82.5"></ellipse>
            <text id="PROD" font-family="HelveticaNeue-Bold, Helvetica Neue" font-size="39" font-weight="bold" fill="#4A4A4A">
                <tspan x="26.294" y="98">PROD</tspan>
            </text>
        </g>
        <g id="Group-6" transform="translate(935.000000, 679.000000)">
            <ellipse id="Oval" fill="#FFFDA7" cx="83" cy="82.5" rx="83" ry="82.5"></ellipse>
            <text id="DEV" font-family="HelveticaNeue-Bold, Helvetica Neue" font-size="39" font-weight="bold" fill="#4A4A4A">
                <tspan x="43.1295" y="98">DEV</tspan>
            </text>
        </g>
        <g id="Group-6" transform="translate(935.000000, 406.000000)">
            <ellipse id="Oval" fill="#FFFDA7" cx="83" cy="82.5" rx="83" ry="82.5"></ellipse>
            <text id="TEST" font-family="HelveticaNeue-Bold, Helvetica Neue" font-size="39" font-weight="bold" fill="#4A4A4A">
                <tspan x="33.3795" y="98">TEST</tspan>
            </text>
        </g>
        <text id="USER" font-family="HelveticaNeue-Bold, Helvetica Neue" font-size="41" font-weight="bold" fill="#4A4A4A">
            <tspan x="733.42" y="71">USER</tspan>
        </text>
        <text id="NAMESPACE" font-family="HelveticaNeue-Bold, Helvetica Neue" font-size="41" font-weight="bold" fill="#4A4A4A">
            <tspan x="887.3945" y="71">NAMESPACE</tspan>
        </text>
        <text id="CLUSTER" font-family="HelveticaNeue-Bold, Helvetica Neue" font-size="41" font-weight="bold" fill="#4A4A4A">
            <tspan x="470.0475" y="71">CLUSTER</tspan>
        </text>
        <g id="Group-12" transform="translate(494.000000, 803.000000)">
            <rect id="Rectangle" fill="#303E5C" x="0" y="0" width="112" height="39" rx="19.5"></rect>
            <text id="DEER" font-family="HelveticaNeue-Bold, Helvetica Neue" font-size="28" font-weight="bold" fill="#FFFFFF">
                <tspan x="17" y="30">DEER</tspan>
            </text>
        </g>
        <g id="Group-11" transform="translate(494.000000, 268.000000)">
            <rect id="Rectangle" fill="#303E5C" x="0" y="0" width="112" height="39" rx="19.5"></rect>
            <text id="HARE" font-family="HelveticaNeue-Bold, Helvetica Neue" font-size="28" font-weight="bold" fill="#FFFFFF">
                <tspan x="16" y="30">HARE</tspan>
            </text>
        </g>
        <g id="Group-9" transform="translate(494.000000, 532.000000)">
            <rect id="Rectangle" fill="#303E5C" x="0" y="0" width="89" height="39" rx="19.5"></rect>
            <text id="FOX" font-family="HelveticaNeue-Bold, Helvetica Neue" font-size="28" font-weight="bold" fill="#FFFFFF">
                <tspan x="15" y="30">FOX</tspan>
            </text>
        </g>
    </g>
</svg>