<svg viewBox="0 0 1200 900" xmlns="http://www.w3.org/2000/svg"><g fill="none" fill-rule="evenodd"><g fill-rule="nonzero"><path d="M278.954 505.013c-7.217 13.492-22.75 18.45-35.771 11.744-2.746-1.422-6.491-2.885-9.237-4.307-1.138-.61-1.06-.57-1.06.69v25.643c-.038.406.158.569.55.569l3.746-1c1.216-.04 2.392.162 3.451.731.353.163.628.204.98 0 2.04-1.016 4.12-.975 6.159-.04.431.203.745.162 1.137-.04 1.373-.692 2.824-.854 4.315-.57 3.49.691 5.844 3.658 5.883 7.396.04 2.357 0 4.674 0 7.03 0 .691.04 1.342-.117 2.032-.118.61-.079.61.549.61h18.748c.589 0 .856.029.974-.08l3.223.08c.157 0 .157.474 0 1.422h-23.26c-.548 0-.98.122-1.45.529-1.648 1.463-3.844 1.422-5.492 0-.823-.691-.862-.691-1.647 0-1.647 1.422-3.883 1.463-5.53.04-.746-.69-.98-.69-1.49-.203-1.609 1.626-4.394 1.666-5.963-.04-.196-.244-.47-.326-.745-.326l-133.26 1c-.549 0-1.137.04-1.647-.244.392-.853.824-.975 1.334-.975h11.001c-.51-1.422-.784-2.56-.784-3.82-.04-3.82-.118-7.68-.196-11.5-.118-6.705-.235-13.451-.392-20.156-.04-1.788-.118-3.577-.118-5.365 0-2.56 1.843-4.51 4.314-4.551 1.844-.04 3.687 0 5.57 0h12.63c2.196 0 4.393.081 6.59.081 2.392 0 4.392 2.154 4.235 4.511-.039.569 0 1.179 0 1.747 1.256-.04 2.118-.284 3.06-.325 4.275-.203 8.04 3.048 8.433 7.356.431 4.592-2.51 8.574-6.864 9.184-1.49.203-2.942.04-4.315-.57-.627-.284-.627-.243-.627.407l-.118 6.827c-.078 4.349-.196 8.697-.275 13.045-.039 1.057-.392 1.95-1.02 2.763.393.447.589.447.746.447h26.966c-6.001-3.698-8.825-8.655-8.825-15.28 0-1.584.313-3.169.823-4.673 5.295-15.767 10.59-31.534 15.886-47.261a7.666 7.666 0 0 0 .431-3.13c-.118-1.543-.04-3.128-.078-4.673l-.353-16.58c-.079-3.332-.118-6.705-.196-10.037-.118-4.47-.236-8.981-.314-13.451l-.236-11.988c-.078-3.942-.196-7.925-.313-11.866-.04-1.707-.04-3.373-.079-5.08 0-.935 0-.935-.863-.853-3.569.325-6.668-.773-9.335-3.251-4.746-4.47-4.981-12.598-.51-17.353 3.02-3.21 6.707-4.43 10.983-3.657.51-.853.196-1.382.039-1.91-1.294-3.901-2.275-7.924-2.471-12.07-.157-3.047.118-6.054 1.177-8.899 2-5.445 5.844-8.696 11.217-10.119a15.024 15.024 0 0 1 4.472-.569c.549 0 .823-.162 1.059-.69a21.473 21.473 0 0 1 2.55-4.674c2.902-4.064 6.824-6.42 11.57-7.355.745-.163 1.49-.04 2.197-.366h3.961c.588.325 1.216.163 1.844.244 2.431.325 4.745 1.178 7.099 1.95 20.984 6.868 41.93 13.736 62.874 20.644.863.244 1.06.447 1.06.772 0 .285-.158.488-.432.57-.196.08-.392.162-.628.243-3.412 1.341-6.864 2.682-10.276 4.023-1.02.407-1.02.447-.667.854.667.731 1.373 1.422 2.079 2.153 1.726 1.789 3.451 3.617 5.177 5.405.746.854.628 1.341-.078 1.504-.745.162-1.49.284-2.236.447l-8.237 1.585c-.666.162-.666.325-.51.569 2.393 3.576 4.472 6.664 6.55 9.793.158.203.314.407.393.65.196.488-.118.935-.628.854-.235-.04-.47-.122-.706-.203a767.546 767.546 0 0 0-5.216-1.707 3.758 3.758 0 0 0-.628-.203c-.196.487-.118.65-.078.853 1.412 4.348 2 8.86 1.843 13.451-.157 3.86-.98 7.6-2.314 11.175-1.883 5.161-4.197 10.079-6.629 14.955-6.628 13.207-14.042 25.968-21.415 38.728-3.217 5.567-6.472 11.134-9.61 16.742-.392.65-.628 1.341-.55 2.114.08.65-.195 1.381.118 1.91.314.528 1.06.65 1.609.934 5.216 2.723 11.394 5.446 16.61 8.168 3.374 1.748 7.217 1.22 10.002-1.34.942-.895 1.648-1.951 2.197-3.13 1.922-4.185 3.804-8.412 5.726-12.597 4.432-9.794 7.904-19.547 12.297-29.381.784-1.748 1.333-3.658 1.922-5.486.235-.732.823-1.463.588-2.195-.196-.65-.863-1.178-1.334-1.747-.98-1.179-2-2.317-2.98-3.536-2.08-2.56-1.02-6.38 2.04-7.315 1.725-.528 3.294-.203 4.549 1.22.51.528.941 1.137 1.451 1.666.47.528.47.528.824-.04.941-1.626 1.883-3.211 2.824-4.837.863-1.463 1.726-2.966 2.589-4.43.706-1.178 1.647-2.031 2.98-2.316 1.687-.406 3.138.082 4.276 1.382 1.137 1.26 1.373 2.804.902 4.47a6.517 6.517 0 0 1-.628 1.422c-.823 1.342-1.608 2.723-2.431 4.064-.118.203-.432.488-.275.65 2.157-1.503 3.726-2.763 5.295-3.982 1.295-1.016 2.589-2.073 3.883-3.048 2.589-1.91 6.08-.569 6.864 2.6.393 1.667.04 3.17-1.176 4.39a7.631 7.631 0 0 1-1.412 1.138c.274.243.549.04.823-.082.98-.406 1.961-.853 2.981-1.219 1.726-.61 3.687 0 4.825 1.463 1.176 1.504 1.372 3.576.431 5.202-.51.894-1.216 1.544-2.157 1.95-1.53.65-3.02 1.26-4.51 1.91-.236.082-.471.204-.707.285.98.487 1.726.894 2.393 1.544a4.844 4.844 0 0 1 1.098 5.12c-.667 1.748-2.196 2.845-4.118 2.804-3.53-.08-7.1-.203-10.63-.325-1.726-.081-1.647-.081-2.706 1.382-2.236 3.21-2.687 6.868-4.335 10.403-2.196 4.795-4.353 9.59-6.51 14.386-.354.772-10.198 22.27-10.277 22.391z" fill="#151D38"/><path d="M206.298 495.198c2 0 3.844-.122 5.648-.366 6.982-.813 13.414-3.129 19.376-6.949.393-.244.667-.569.902-.975 3.413-6.137 6.943-12.192 10.473-18.287 6.315-10.891 12.59-21.782 18.395-32.998 3.1-5.933 6.002-11.988 8.473-18.246 3.373-8.534 3.53-17.109.627-25.764-.235-.772-.667-1.138-1.373-1.382a32939.66 32939.66 0 0 1-59.54-19.303c-1.804-.569-3.57-1.178-5.374-1.747-.862-.285-.706-.325-1.02.569-.078.162-.117.365-.195.569-1.295 3.535-3.178 6.624-5.766 9.265-4.001 4.145-8.825 6.786-14.199 8.453-.196.08-.431.121-.627.203-.236.081-.197.203 0 .284.313.203.666.366.98.61.314.203.353.528.157.853-.157.325-.47.325-.745.203a4.24 4.24 0 0 1-.589-.325c-6.903-3.982-15.453.854-15.885 9.022-.353 6.746 5.138 12.557 12.277 11.582 1.569-.204 1.569-.244 1.608 1.381.078 3.454.118 6.868.196 10.322.118 4.51.235 9.022.314 13.532.078 3.333.157 6.706.196 10.038.078 4.714.196 9.428.275 14.142l.117 6.908c.079 4.186.196 8.371.314 12.557.078 2.48.157 4.917.157 7.396 0 .732.235 1.097.824 1.463 7.452 4.673 15.532 6.909 24.004 6.99z" fill="#FAE0D6"/><path d="M232.373 514.178V490.2c0-1.381 0-1.219-1.02-.61-10.001 5.893-20.71 7.844-32.005 6.015-5.923-.934-11.453-3.048-16.63-6.217-.825-.529-.785-.65-1.138.487-5.256 15.686-10.551 31.413-15.807 47.1a14.381 14.381 0 0 0-.706 6.054c.627 7.6 6.825 13.492 14.199 13.492 9.295 0 18.591-.04 27.848.04 2.902.041 6.236-2.072 6.55-6.176 0-.244-.04-.488.118-.65.392-.407.314-.895.314-1.382v-7.152c0-.691-.04-.691-.706-.691h-25.064c-1.059-.04-1.961-.407-2.706-1.179-1.452-1.422-1.687-3.129-1.099-4.998 1.726-5.446 3.491-10.891 5.256-16.377.079-.203.118-.447.236-.65.157-.285.431-.366.745-.244a.476.476 0 0 1 .314.61 8.517 8.517 0 0 1-.275.934L185.62 534.7c-.785 2.478.627 4.55 3.138 4.592h42.556c.981 0 1.06.203 1.02-1.057v-.488c.04-7.843.04-15.686.04-23.57zm1.627-12.52v8.086c0 .61.157.976.706 1.3 3.256 1.667 6.472 3.414 9.767 5.08a22.902 22.902 0 0 0 9.02 2.48c7.179.446 13.493-1.789 18.906-6.665 2.981-2.682 5.1-5.974 6.668-9.672.235-.528 8.59-18.856 8.904-19.587a667.425 667.425 0 0 1 4.197-9.347l1.882-4.145c.157-.325.157-.528-.196-.69-.157-.041-.274-.163-.431-.204-2.903-1.422-5.766-2.845-8.669-4.226l-4-1.95c-.392-.204-.628-.163-.785.284l-.588 1.34a22927.595 22927.595 0 0 0-14.905 32.876c-.863 1.91-2.157 3.455-3.922 4.511-3.216 1.91-6.55 2.073-9.884.325a2931.594 2931.594 0 0 1-15.768-8.25c-.196-.121-.392-.202-.588-.324-.196-.081-.314 0-.314.203v8.575z" fill="#EBBE62"/><path d="M129.572 512.059v-.04h-4.512c-2.589 0-5.217-.042-7.805 0-1.962.04-3.217 1.34-3.256 3.372 0 .935.04 1.87.04 2.845.078 5.404.156 10.85.274 16.255 0 1.097.078 2.194.117 3.291 0 .488.197.65.628.61h.47c9.218 0 18.435.04 27.653.04.235 0 .431-.04.667 0 .47.041.666-.121.666-.65 0-.894.04-1.747.04-2.641.039-1.22.039-2.48.078-3.698.04-.691.432-.935 1.02-.61.157.082.314.203.47.325 3.374 2.073 7.767.732 9.571-2.885 1.804-3.617.196-8.168-3.412-9.712-2.158-.935-4.236-.732-6.237.447-.784.447-1.098.284-1.137-.65 0-.935-.04-1.87.039-2.845.157-1.788-1.373-3.536-3.373-3.495-3.962.081-7.963.04-12.002.04z" fill="#FFF"/><path d="M312.563 455.743v.04h1.138c1.843-.04 3.255-1.463 3.295-3.291.039-1.788-1.334-3.373-3.099-3.536a25.655 25.655 0 0 1-1.765-.162c-.51-.04-.98 0-1.451.244-1.49.65-2.942 1.26-4.433 1.869-.235.081-.47.203-.706.244-.274.04-.51-.041-.627-.325-.118-.326-.04-.57.274-.732.197-.122.393-.203.589-.284a1716.17 1716.17 0 0 0 12.786-5.405 9.241 9.241 0 0 0 1.099-.528 3.266 3.266 0 0 0 1.451-3.495c-.47-2.195-2.55-3.333-4.59-2.52-2.47 1.016-4.941 2.073-7.412 3.089a4.16 4.16 0 0 0-1.06.65c-1.607 1.3-3.216 2.56-4.863 3.86-.314.244-.667.326-.902 0-.275-.325-.118-.65.196-.934.118-.082.235-.203.353-.285 2.157-1.706 4.275-3.413 6.433-5.08 1.294-1.015 2.628-2.031 3.844-3.128 1.372-1.22 1.45-3.17.313-4.633-1.098-1.382-2.941-1.666-4.393-.65-.235.162-.47.325-.666.528-3.687 2.885-7.335 5.77-10.983 8.696-.353.285-.745.65-1.177.285-.47-.407-.039-.854.157-1.22 1.06-1.787 2.118-3.535 3.138-5.323a38.143 38.143 0 0 0 1.57-2.763c.823-1.666.313-3.454-1.138-4.43-1.452-.934-3.256-.61-4.354.894-.392.529-.706 1.057-1.06 1.626a1809.05 1809.05 0 0 0-5.294 9.103c-.51.853-.745.853-1.412.122-.706-.813-1.412-1.667-2.118-2.48-.942-1.056-2.118-1.34-3.413-.893-2.235.772-3.02 3.494-1.49 5.364 1.333 1.666 2.745 3.291 4.157 4.917.628.69.667 1.26.393 2.113-.706 1.829-1.295 3.739-1.922 5.608-.275.813-.275.813.431 1.179 1.255.61 2.55 1.219 3.844 1.869 2.942 1.422 5.883 2.885 8.825 4.307.824.407.824.407 1.373-.447.745-1.178 1.53-2.316 2.196-3.494.393-.65.824-.854 1.53-.813 1.334.081 2.707.122 4.04.162 2.354-.04 4.628 0 6.903.082zM230.04 540h-7.334c-.706 0-.706 0-.706.772v14.426c0 .773 0 .773.706.773h12.708c.628 0 .589 0 .51-.691-.04-.325-.04-.65-.04-.976v-8.168c0-.365.236-.569.51-.569.354 0 .59.204.628.61v.772c0 2.52-.039 4.998 0 7.518.04 1.87 1.49 3.251 3.256 3.13 1.569-.123 2.745-1.464 2.745-3.252v-7.884c0-3.698-2.627-6.38-6.197-6.38-2.275-.081-4.55-.081-6.785-.081z" fill="#FAE0D6"/><path d="M129.944 547.04V547h-14.199c-.706 0-.745.04-.745.772l.118 5.567a3.53 3.53 0 0 0 3.569 3.536c7.452-.081 14.905-.081 22.396 0 1.726 0 3.57-1.341 3.57-3.657 0-1.83.078-3.617.117-5.446 0-.61-.039-.65-.627-.69h-.667c-4.51-.041-9.021-.041-13.532-.041z" fill="#FFF"/><path d="M252.345 550.147v3.333c0 .487 0 .975.039 1.463.157 1.219.863 2.072 2 2.478 1.098.407 2.118.122 2.981-.65.667-.61.98-1.422.98-2.357v-8.371c0-.203-.039-.406-.078-.569-.392-3.78-4.197-6.34-7.688-5.202-.706.244-.745.285-.235.854 1.334 1.463 1.961 3.21 1.961 5.242.04 1.26.04 2.52.04 3.78zm-8.072-.095v4.266c.04 1.87 1.334 3.252 3.06 3.252 1.686 0 2.941-1.382 2.98-3.21.04-1.301 0-2.601 0-3.902 0-1.544.04-3.129-.039-4.673-.235-3.901-4.08-6.665-7.688-5.527-.706.244-.745.325-.274.854 1.333 1.503 2 3.25 1.961 5.323v3.617z" fill="#FAE0D6"/><path d="M296.558 461.916c0-.325-.235-.366-.431-.447-1.02-.488-2.04-.975-3.06-1.504l-9.766-4.754c-.706-.325-.706-.325-1.02.365a254.393 254.393 0 0 1-2.157 4.755c-.196.406-.196.69.274.894.706.285 1.373.65 2.04.975 3.608 1.788 7.256 3.536 10.865 5.324.588.284.588.284.902-.325.745-1.626 1.451-3.21 2.196-4.836.04-.163.118-.325.157-.447zM216 547.928v7.315c0 .731.04.731.667.731h4.432c.628 0 .667-.04.667-.731V541.02c0-1.138.078-1.016-1.02-1.016h-3.844c-.863 0-.863 0-.863.934-.039 2.317-.039 4.674-.039 6.99z" fill="#151D38"/><path d="M130.166 541h-13.61c-1.648 0-1.648 0-1.49 1.707v.203c0 .284.156.406.43.366h.471c4.393 0 8.786.04 13.18.04h14.316c1.647 0 1.686-.04 1.53-1.706-.04-.366-.118-.529-.51-.529h-.471c-4.668-.04-9.335.082-13.846-.081z" fill="#E5384A"/><path d="M214.253 555.23v-.975c0-.082 0-.204-.118-.244-.117-.04-.156.04-.196.122-.392.61-.823 1.138-1.294 1.666-.235.244-.745.325-.628.731.079.204.589.082.903.082 1.372 0 1.372 0 1.333-1.382z" fill="#FFF"/><path d="M143.767 470.375c0-2.032-.393-4.43-1.216-6.787-.863-2.438-2.118-4.714-3.374-6.949-1.059-1.869-2.118-3.738-3.02-5.73-1.686-3.698-2-7.599-1.49-11.622.353-2.763 1.02-5.405 2.275-7.884.51-.975 1.059-1.91 1.726-2.763.156-.163.274-.325.47-.488.236-.203.51-.203.745 0 .236.244.236.529.079.813-.04.081-.118.163-.196.244-2 2.438-3.06 5.283-3.648 8.33-.431 2.276-.628 4.552-.47 6.868.156 2.276.823 4.39 1.764 6.421.942 2.032 2.08 3.942 3.177 5.852 1.334 2.357 2.59 4.755 3.374 7.396 1.53 5.08 1.176 10.078-.824 14.955-.902 2.235-2.079 4.388-3.256 6.502-.94 1.706-1.882 3.373-2.667 5.16-1.137 2.52-1.922 5.162-2 7.966-.04.772-.196 1.015-.628.975-.431-.04-.588-.325-.588-1.057.118-3.129.98-6.055 2.314-8.859 1.06-2.235 2.275-4.348 3.452-6.502 1.49-2.722 2.824-5.526 3.49-8.615.314-1.219.432-2.479.51-4.226zm-13.177.433c.039 4.145-1.217 7.924-3.06 11.5-1.334 2.56-2.746 5.12-4.08 7.681-.391.732-.705 1.544-1.058 2.276-.157.325-.432.487-.785.325-.353-.163-.431-.447-.314-.813.04-.162.118-.325.157-.447.353-.772.667-1.544 1.06-2.276 1.255-2.357 2.549-4.714 3.765-7.07 1.333-2.52 2.392-5.162 2.824-8.006.627-4.023.04-7.884-1.57-11.582-.94-2.194-2.156-4.267-3.333-6.34-1.098-1.91-2.118-3.82-2.942-5.892-1.137-2.926-1.412-5.973-1.176-9.103.156-2.031.51-4.063 1.098-6.014.078-.284.196-.569.314-.813.117-.203.353-.284.588-.203a.561.561 0 0 1 .431.57c0 .202-.078.446-.156.65-.903 2.925-1.256 5.973-1.177 9.02.078 2.236.667 4.349 1.569 6.38.784 1.83 1.804 3.577 2.785 5.324 1.333 2.357 2.667 4.714 3.608 7.275.98 2.438 1.49 4.957 1.451 7.558z" fill="#151D38"/><path d="M137.443 471.837c0 3.942-1.137 7.64-2.942 11.175-1.059 2.113-2.235 4.145-3.334 6.218-.078.122-.156.284-.235.406-.196.284-.47.325-.745.163-.314-.163-.353-.447-.235-.773.117-.284.274-.569.431-.853 1.177-2.113 2.393-4.186 3.412-6.38 1.02-2.154 1.844-4.389 2.236-6.787.588-3.576.196-7.03-1.059-10.403-.824-2.194-1.922-4.226-3.06-6.258-1.098-1.95-2.235-3.86-3.137-5.892-1.02-2.317-1.687-4.755-1.765-7.315 0-.244-.04-.447.039-.691.04-.284.275-.447.55-.447.274 0 .47.122.548.447.04.163.079.325.079.488.039 3.21 1.098 6.095 2.55 8.859 1.254 2.316 2.588 4.592 3.804 6.949 1.294 2.479 2.275 5.08 2.667 7.843.118 1.016.235 2.072.196 3.25zm-13.03-.77c0 3.982-.98 7.396-2.51 10.606-.51 1.057-1.06 2.072-1.57 3.088a3.402 3.402 0 0 1-.313.488c-.196.244-.431.285-.667.163-.274-.163-.431-.407-.313-.732.117-.284.274-.569.431-.853 1.098-2.073 2.157-4.186 2.824-6.462 1.294-4.226 1.216-8.452-.235-12.638-.079-.244-.196-.488-.275-.731-.118-.366-.118-.732.275-.935.353-.163.666 0 .863.488.353.853.627 1.788.823 2.682.471 1.747.628 3.454.667 4.836zM244.62 409.98c-2.039 0-3.843-.204-5.608-.692-.392-.122-.667-.203-.902.325-1.412 3.251-4 4.633-7.335 4.552-3.687-.081-6.864-2.56-7.844-6.014a6.882 6.882 0 0 1-.197-2.967c.118-.69.079-.732-.588-.935-4.314-1.422-7.766-4.185-10.786-7.558-.118-.122-.236-.244-.275-.366-.235-.488.04-.935.55-.894.117 0 .235.04.352.081 3.687 1.097 7.374 1.016 11.061.163.98-.203 1.961-.366 2.942-.57 2.667-.446 4.707.53 6.276 2.805.549.813.549.813 1.45.447 2.393-1.057 4.59-.732 6.59.975 1.06.935 2.04 1.95 3.02 2.926 2.471 2.398 5.296 4.226 8.59 5.283.392.122.863.162.863.731 0 .57-.51.61-.902.691-2.393.61-4.903.976-7.256 1.016z" fill="#151D38"/><path d="M231.379 412.695c.117 0 .431-.04.745-.04s.47-.163.392-.489c-.274-1.34-.784-2.52-1.843-3.413-.236-.163-.47-.488-.745-.366s0 .447-.04.691c-.039.325-.157.569-.47.61-.314.04-.55-.082-.628-.447-.078-.244-.118-.488-.196-.773-.235-.894-.55-1.706-1.177-2.397-.745-.854-1.686-1.22-2.785-1.016-.47.081-.666.325-.627.772.04.569.078 1.097.235 1.626.824 3.088 3.687 5.242 7.139 5.242z" fill="#E5384A"/><path d="M237.525 409.068c0-.325-.275-.365-.432-.447-1.137-.528-2.196-1.26-3.138-2.113-.666-.61-1.255-1.34-1.804-2.113-.157-.203-.235-.488-.588-.366a13.598 13.598 0 0 1-3.334.935c-.236.04-.314.203-.118.406.47.488.863 1.016 1.177 1.626.157.284.392.366.667.447 1.608.488 2.667 1.625 3.334 3.17.235.528.392 1.097.51 1.666.078.366.235.406.51.244 1.372-.65 2.431-1.667 3.059-3.13.078-.08.117-.203.157-.325z" fill="#FFF"/><path d="M207.179 396.787c0 3.82-2.981 6.908-6.629 6.868-3.648-.041-6.55-3.089-6.55-6.828 0-3.454 2.51-6.867 6.629-6.827 4.393 0 6.59 3.739 6.55 6.787zm60 17.122c0 3.78-2.942 6.786-6.59 6.786-3.687 0-6.589-3.088-6.589-6.908 0-3.78 2.98-6.827 6.59-6.787 3.726.041 6.628 3.048 6.589 6.909z" fill="#E5384A"/><path d="M213.433 387.332c0 1.829-1.452 3.373-3.217 3.373-1.765 0-3.216-1.463-3.216-3.332 0-1.87 1.373-3.332 3.177-3.373 1.804 0 3.216 1.463 3.256 3.332zM255 401.292c.04-1.869 1.491-3.332 3.256-3.291 1.805.04 3.177 1.544 3.138 3.413-.04 1.83-1.53 3.333-3.295 3.292-1.765-.04-3.137-1.544-3.098-3.414zm-77.454-7.039c-3.02-.122-5.413 2.275-5.334 5.323.039 2.967 2.51 5.283 5.412 5.08.275 0 .55-.082.824-.082.314 0 .55.082.628.447.039.407-.118.65-.471.732-.47.081-.941.162-1.412.162-3.06-.04-5.687-2.397-6.119-5.404-.47-3.333 1.334-6.3 4.393-7.234.824-.244 1.648-.366 2.51-.203.393.081.746.163.785.65 0 .407-.314.57-.902.57-.157 0-.275-.041-.314-.041zM235.697 389c.274 0 .47.163.627.366 1.02 1.016 2.04 2.032 3.02 3.048.628.65.51 1.056-.274 1.34-1.334.488-2.667.895-4 1.342-.08.04-.197.04-.275.08-.353.123-.628.042-.745-.324-.157-.407.078-.691.431-.813a67.85 67.85 0 0 1 2.667-.894c.902-.325.902-.325.196-1.016-.588-.569-1.176-1.178-1.765-1.747-.157-.163-.314-.325-.431-.529-.157-.447.117-.853.549-.853zm31.134 11.1c-.039.326-.117.854-.235 1.342-.157.61-.392.813-.784.731-.393-.08-.51-.365-.353-1.016.117-.487.196-1.016.156-1.544-.156-1.95-1.059-3.332-2.745-4.226-.196-.122-.432-.163-.589-.285-.235-.162-.353-.406-.235-.65.118-.284.314-.487.667-.447.196.04.353.122.55.203 2.117.976 3.608 3.292 3.568 5.893zm-57.648-19.87c-2.314-.122-4.236 1.22-4.942 3.455-.236.772-.47.975-.863.853-.392-.122-.47-.488-.275-1.179.785-2.682 3.256-4.713 6.55-4.307.157 0 .314.081.432.122.235.122.353.366.314.65-.04.325-.275.447-.51.447-.235.04-.51-.04-.706-.04zm-55.279 145.363c0 2.641-1.922 4.592-4.472 4.592-2.51 0-4.432-2.032-4.432-4.633 0-2.56 1.922-4.551 4.432-4.551 2.55-.041 4.472 1.95 4.472 4.592zm-4.433-3.414c-1.804 0-3.294 1.544-3.294 3.414 0 1.869 1.49 3.413 3.294 3.413 1.765 0 3.217-1.503 3.256-3.332.04-1.95-1.412-3.495-3.256-3.495zm145.373-59.106c-.04 1.097-.902 1.95-1.961 1.91-1.02-.041-1.883-.976-1.883-2.032.04-1.057.941-1.951 1.961-1.951 1.098.081 1.922.975 1.883 2.073zm-1.177-.041a.716.716 0 0 0-.706-.732.673.673 0 0 0-.667.691c-.039.407.275.732.667.772a.716.716 0 0 0 .706-.731z" fill="#151D38"/><path d="M217.001 552.952c0-1.097.863-1.991 1.922-1.95 1.06 0 1.883.934 1.883 2.031-.04 1.097-.863 1.91-1.961 1.87-1.06-.082-1.883-.894-1.844-1.951zm2.59 0a.716.716 0 0 0-.707-.732c-.392 0-.628.244-.667.65-.039.407.275.773.667.773.353.04.706-.285.706-.691z" fill="#EBBE62"/></g><g fill-rule="nonzero" stroke="#FFF" stroke-width=".5"><path d="M972.102 328.381a16.73 16.73 0 0 0-6.401 1.63L878.361 372a16.674 16.674 0 0 0-9.037 11.306l-21.547 94.318c-1.005 4.39-.187 9 2.268 12.78.294.456.611.899.95 1.325l60.452 75.628a16.715 16.715 0 0 0 13.058 6.271l96.947-.022c5.08.003 9.885-2.3 13.058-6.26l60.43-75.64a16.64 16.64 0 0 0 3.229-14.104l-21.581-94.318a16.674 16.674 0 0 0-9.037-11.307L980.2 330.011a16.731 16.731 0 0 0-8.098-1.63z" fill="#326CE5"/><path d="M972.967 360.479h0c2.887 0 5.227 2.617 5.228 5.844.001.458.026 1.072.01 1.495-.068 1.862-.471 3.286-.714 5.001-.44 3.671-.82 6.714-.592 9.542.206 1.416 1.028 1.975 1.709 2.63.015.382.076 1.648.123 2.35 16.622 1.485 32.058 9.133 43.396 21.095l1.988-1.427c.674.04 2.159.245 3.173-.349 2.339-1.584 4.47-3.783 7.048-6.417 1.181-1.26 2.048-2.46 3.452-3.676.32-.277.804-.648 1.161-.932 2.508-2.013 5.997-1.8 7.797.472 1.8 2.27 1.223 5.742-1.284 7.755-.354.286-.814.682-1.15.932-1.49 1.107-2.862 1.673-4.346 2.552-3.127 1.943-5.719 3.553-7.775 5.496-.97 1.045-.898 2.034-.983 2.978-.29.268-1.312 1.18-1.854 1.675a68.305 68.305 0 0 1 9.796 22.781 68.337 68.337 0 0 1 1.095 24.557l2.111.619c.38.54 1.16 1.853 2.257 2.281 2.69.852 5.717 1.166 9.371 1.551 1.716.143 3.197.058 5.016.405.435.083 1.07.257 1.52.36 3.08.748 5.059 3.598 4.422 6.406-.636 2.808-3.646 4.515-6.746 3.843-.023-.005-.055-.006-.079-.01-.035-.009-.065-.026-.1-.035-.432-.095-.974-.19-1.352-.292-1.788-.482-3.083-1.2-4.691-1.82-3.46-1.249-6.324-2.292-9.115-2.698-1.418-.112-2.14.569-2.927 1.09a78.43 78.43 0 0 0-2.234-.393c-5.009 15.84-15.676 29.554-30.137 38.145.25.607.673 1.896.871 2.124-.33.888-.826 1.737-.402 3.102 1.015 2.648 2.657 5.236 4.636 8.35.958 1.44 1.939 2.546 2.804 4.193.207.394.481 1 .681 1.416 1.344 2.892.358 6.223-2.223 7.474-2.6 1.26-5.835-.07-7.227-2.978-.199-.412-.48-.96-.648-1.349-.74-1.707-.998-3.17-1.52-4.821-1.186-3.5-2.16-6.397-3.585-8.846-.796-1.185-1.774-1.336-2.67-1.63-.165-.287-.784-1.428-1.116-2.022a67.523 67.523 0 0 1-8.97 2.72c-13.565 3.098-27.143 1.841-39.275-2.844l-1.184 2.158c-.88.237-1.731.478-2.252 1.104-1.904 2.286-2.664 5.954-4.048 9.45-.52 1.65-.767 3.114-1.508 4.821-.167.386-.449.927-.647 1.337-.002.004.001.008 0 .012-.002.004-.01.007-.012.01-1.395 2.9-4.618 4.226-7.216 2.968-2.58-1.25-3.566-4.582-2.222-7.474.2-.416.463-1.022.67-1.416.865-1.647 1.845-2.764 2.804-4.203 1.979-3.116 3.717-5.91 4.731-8.558.255-.879-.122-2.083-.464-2.974l.949-2.292c-13.915-8.297-24.905-21.518-30.148-37.876l-2.28.393c-.61-.344-1.838-1.16-3.004-1.067-2.791.406-5.656 1.449-9.115 2.697-1.608.62-2.903 1.328-4.691 1.81-.378.101-.92.208-1.352.303-.035.009-.065.026-.1.034-.024.005-.056.006-.079.01-3.1.673-6.109-1.035-6.746-3.843-.638-2.807 1.342-5.657 4.423-6.406.023-.005.054-.017.078-.023.015-.003.03-.008.045-.01.438-.104.996-.25 1.396-.327 1.82-.346 3.3-.26 5.016-.404 3.654-.386 6.682-.699 9.371-1.551.853-.352 1.669-1.532 2.246-2.282l2.189-.64c-2.453-17.094 1.698-33.87 10.667-47.452l-1.675-1.506c-.107-.656-.247-2.173-1.05-3.034-2.056-1.943-4.648-3.553-7.775-5.496-1.484-.879-2.844-1.445-4.334-2.551-.316-.236-.738-.596-1.083-.877-.026-.02-.053-.036-.078-.056-2.508-2.012-3.085-5.484-1.285-7.755 1.013-1.278 2.56-1.91 4.167-1.855 1.25.043 2.544.502 3.641 1.383.357.284.843.657 1.162.933 1.403 1.214 2.259 2.414 3.44 3.675 2.579 2.634 4.71 4.822 7.049 6.406 1.228.72 2.172.43 3.105.303.3.224 1.31.953 1.888 1.35 8.898-9.5 20.584-16.534 34.158-19.635a67.687 67.687 0 0 1 9.45-1.462l.123-2.225c.696-.678 1.477-1.653 1.698-2.72.227-2.828-.141-5.87-.58-9.542-.244-1.715-.647-3.14-.716-5.001-.014-.382.007-.91.011-1.349 0-.049-.01-.096-.01-.146-.001-3.227 2.34-5.844 5.227-5.844zm-6.546 40.798a54.784 54.784 0 0 0-5.574.966c-10.187 2.327-19.026 7.38-25.937 14.218l22.486 16.038.044-.023c.762.56 1.7.888 2.715.888 2.479 0 4.498-1.971 4.602-4.44l.112-.056 1.552-27.591zm13.103 0l1.553 27.547.022.01c.04.949.372 1.888 1.005 2.687a4.594 4.594 0 0 0 6.323.854l.078.034 22.34-15.937c-8.428-8.305-19.428-13.724-31.321-15.195zm-52.768 25.49a54.442 54.442 0 0 0-7.64 34.29l26.316-7.643.023-.09a4.606 4.606 0 0 0 2.39-1.584 4.651 4.651 0 0 0-.58-6.384l.022-.112-20.531-18.477zm92.277.011h0l-20.42 18.387.012.056a4.604 4.604 0 0 0-1.463 2.462c-.552 2.431.904 4.855 3.273 5.507l.022.112 26.45 7.665a55.086 55.086 0 0 0-1.138-17.634 55.04 55.04 0 0 0-6.736-16.555zm-50.277 19.893l-5.239 6.564 1.877 8.204 7.573 3.664 7.551-3.653 1.877-8.204-5.228-6.575h-8.411zm26.965 22.5h0a4.575 4.575 0 0 0-1.765.461c-2.234 1.083-3.205 3.744-2.234 6.013l-.034.045 10.567 25.681c10.186-6.528 17.81-16.285 21.793-27.546l-27.221-4.63-.045.055a4.559 4.559 0 0 0-1.061-.078zm-45.72.113h0a4.638 4.638 0 0 0-.905.079l-.044-.057-26.988 4.608a54.404 54.404 0 0 0 21.726 27.356l10.456-25.422-.079-.102a4.62 4.62 0 0 0 .257-2.854 4.617 4.617 0 0 0-4.423-3.608zm22.798 11.138a4.612 4.612 0 0 0-3.898 2.45h-.022l-13.27 24.141c9.183 3.15 19.325 3.853 29.5 1.529a54.875 54.875 0 0 0 5.317-1.495l-13.304-24.186h-.1a4.59 4.59 0 0 0-2.067-1.978 4.539 4.539 0 0 0-2.156-.461z" fill="#FFF"/></g><text font-family="sans-serif" font-size="58" font-weight="bold" fill="#000"><tspan x="255.835" y="207">Deploy 3 replicas, please</tspan></text><g fill="#B8E986"><path d="M829 467l-65 36v-72z"/><path d="M375 476v-20h435v20z"/></g></g></svg>