<?xml version="1.0" encoding="UTF-8"?>
<svg width="1200px" height="900px" viewBox="0 0 1200 900" version="1.1" xmlns="http://www.w3.org/2000/svg" xmlns:xlink="http://www.w3.org/1999/xlink">
    <!-- Generator: Sketch 52.6 (67491) - http://www.bohemiancoding.com/sketch -->
    <title>kubectl-create-4</title>
    <desc>Created with Sketch.</desc>
    <g id="kubectl-create-4" stroke="none" stroke-width="1" fill="none" fill-rule="evenodd">
        <g id="Kubernetes-background" opacity="0.100000001" transform="translate(161.000000, 22.000000)" fill="#326CE5" fill-rule="nonzero" stroke="#FFFFFF" stroke-width="0.5">
            <path d="M435.869595,1.32667485 C428.131508,1.71838151 420.549826,3.64631136 413.569329,6.99736199 L109.266049,153.105549 C93.3114261,160.76216 81.723056,175.242677 77.7810309,192.448385 L2.7073607,520.644292 C-0.795001289,535.921372 2.05478906,551.960827 10.607804,565.110301 C11.6343205,566.701404 12.7383294,568.241501 13.9158713,569.725067 L224.542467,832.884058 C235.586536,846.678057 252.331448,854.709893 270.038123,854.706426 L607.811261,854.62821 C625.511314,854.641173 642.255046,846.624296 653.306917,832.84495 L863.855676,569.64685 C874.905654,555.845938 879.04573,537.77975 875.103105,520.566075 L799.91268,192.370169 C795.970655,175.164461 784.382285,160.683944 768.427662,153.027333 L464.085464,6.99736199 C455.30505,2.7820061 445.602952,0.832126125 435.869595,1.32667485 Z" id="path3055"></path>
        </g>
        <g id="Green-arrow-right" transform="translate(0.000000, 414.000000)" fill="#B8E986">
            <polygon id="Triangle" points="327 36 262 72 262 0"></polygon>
            <polygon id="Rectangle" points="0 45 1.77920384e-15 25 308 25 308 45"></polygon>
        </g>
        <g id="Group-3" transform="translate(334.000000, 336.000000)">
            <polygon id="Rectangle" fill="#53777A" points="0 0 220 0 220 228 0 228"></polygon>
            <text id="API-SERVER" font-family="Arial-BoldMT, Arial" font-size="28" font-weight="bold" fill="#FFFFFF">
                <tspan x="25.2001953" y="91">API SERVER</tspan>
            </text>
        </g>
        <g id="Group-5" transform="translate(661.000000, 334.000000)">
            <rect id="Rectangle-4" fill="#53777A" x="101" y="0" width="421" height="234"></rect>
            <rect id="Rectangle-3" fill="#F1D4AF" x="205" y="10" width="308" height="61"></rect>
            <text id="ReplicaSet-#1" font-family="Arial-BoldMT, Arial" font-size="38" font-weight="bold" fill="#4A4A4A">
                <tspan x="220" y="53">ReplicaSet #1</tspan>
            </text>
            <g id="Group-2" transform="translate(0.000000, 10.000000)">
                <ellipse id="Oval" stroke="#53777A" stroke-width="21" fill="#FFFFFF" cx="102.5" cy="106.5" rx="102.5" ry="106.5"></ellipse>
                <g id="Group" transform="translate(28.435484, 32.293548)" fill="#419EDA" fill-rule="nonzero">
                    <path d="M67.5560968,65.6699613 C67.5560968,71.2100226 63.2358871,75.6912677 57.9111774,75.6912677 C52.5825,75.6912677 48.2741935,71.2107097 48.2741935,65.6699613 C48.2741935,60.1532613 52.5831613,55.6548387 57.9111774,55.6548387 C63.2358871,55.6548387 67.5560968,60.1532613 67.5560968,65.6699613 Z" id="Shape"></path>
                    <path d="M80.016129,65.6720226 C80.016129,71.2120839 84.337,75.693329 89.6617097,75.693329 C94.9850968,75.693329 99.3013387,71.212771 99.3013387,65.6720226 C99.3013387,60.1532613 94.9850968,55.6548387 89.6617097,55.6548387 C84.337,55.6548387 80.016129,60.1532613 80.016129,65.6720226 Z" id="Shape"></path>
                    <path d="M145.766242,76.8497129 C145.071887,76.9101774 144.374226,76.9383484 143.632919,76.9383484 C139.332548,76.9383484 135.160468,75.8905258 131.396403,73.9714645 C132.649548,66.5020355 133.182548,58.9769516 133.043016,51.4793516 C128.962194,45.3463258 124.298113,39.5595968 119.033581,34.2284129 C121.317677,29.7787742 124.694226,25.950271 128.90929,23.2355516 L130.719242,22.0729839 L129.30871,20.4205161 C122.042452,11.9190677 113.37029,5.3463 103.538226,0.886354839 L101.5775,0 L101.079548,2.15336129 C99.9070806,7.17191613 97.4563387,11.6991968 94.0916935,15.3325645 C87.6249355,11.7610355 80.8691935,8.87454194 73.9025,6.6882 C66.9523387,8.86973226 60.2085,11.7479806 53.7443871,15.3140129 C50.393629,11.6854548 47.9488387,7.16916774 46.781,2.16504194 L46.2797419,0.0123677419 L44.3262903,0.8946 C34.6178871,5.28995806 25.707,12.0406839 18.5597742,20.4157065 L17.1452742,22.0716097 L18.9532419,23.2341774 C23.1550806,25.9385903 26.522371,29.7444194 28.8025,34.1700097 C23.5538387,39.4805806 18.8950484,45.2487581 14.8175323,51.3536129 C14.6588226,58.8477774 15.1647097,66.427829 16.4238065,74.0003226 C12.6782581,75.9015194 8.52932258,76.9376613 4.2573871,76.9376613 C3.50748387,76.9376613 2.80585484,76.9094903 2.12406452,76.8504 L0,76.6820613 L0.199048387,78.8855806 C1.23991935,90.0337258 4.5715,100.637003 10.1065,110.404084 L11.1870484,112.31009 L12.8091935,110.879555 C16.568629,107.566374 21.1110323,105.372474 25.9410968,104.488181 C29.1252097,111.252648 32.8991935,117.608294 37.1803871,123.509081 C44.0115161,125.991561 51.1289839,127.844661 58.4792258,128.947452 C59.1841613,133.9983 58.6227258,139.222297 56.7049839,144.052587 L55.8962258,146.099448 L57.9759839,146.574919 C63.3013548,147.791768 68.6736774,148.411529 73.9342419,148.411529 L89.887871,146.574919 L91.9696129,146.099448 L91.158871,144.048465 C89.2464194,139.218174 88.6849839,133.987994 89.3899194,128.936458 C96.7110645,127.832981 103.802081,125.984003 110.608081,123.509081 C114.893242,117.603484 118.670532,111.243716 121.859935,104.470316 C126.70521,105.349113 131.273403,107.544387 135.055984,110.867187 L136.678129,112.295661 L137.753387,110.394465 C143.298306,100.615016 146.629226,90.0124258 147.654226,78.8821452 L147.853274,76.6827484 L145.766242,76.8497129 Z M96.7342097,103.791465 C89.1869032,105.924213 81.5218871,107.000894 73.9025,107.000894 C66.2626129,107.000894 58.6068548,105.9249 51.0529355,103.791465 C46.908629,97.1005161 43.6319355,89.9327226 41.2737742,82.3863387 C38.9255323,74.8749968 37.551371,67.0056774 37.1526129,58.9027452 C42.0309516,52.6357355 47.5785161,47.1458323 53.7080161,42.5244194 C59.9367097,37.8171194 66.7129516,33.9927387 73.9025,31.1158645 C81.0801452,33.9934258 87.8438226,37.8123097 94.0579677,42.4996839 C100.211274,47.1458323 105.783306,52.6783355 110.685452,58.9845097 C110.267516,67.0414065 108.876823,74.8653774 106.524613,82.3643516 C104.172403,89.9093613 100.885129,97.099829 96.7342097,103.791465 Z" id="Shape"></path>
                </g>
            </g>
        </g>
        <g id="right-arrow" transform="translate(554.000000, 443.000000)" fill-rule="nonzero">
            <polygon id="Line" fill="#9EEBCF" points="0 6 94.0290651 6 96 6 96 9 0 9"></polygon>
            <circle id="Base" stroke="#9EEBCF" stroke-width="3" fill="#FFFFFF" cx="0.5" cy="7.5" r="6.5"></circle>
            <polygon id="Tip" fill="#9EEBCF" points="98 7.5 90 13 90 2"></polygon>
        </g>
    </g>
</svg>