<svg viewBox="0 0 1200 900" xmlns="http://www.w3.org/2000/svg"><defs><linearGradient x1="50%" y1=".037%" x2="50%" y2="100%" id="linearGradient-1"><stop stop-color="#FFF" offset=".037%"/><stop stop-color="#FF6300" offset="100%"/></linearGradient></defs><g stroke="none" stroke-width="1" fill="none" fill-rule="evenodd"><g transform="translate(362 101)"><rect fill="#F5A623" fill-rule="nonzero" opacity=".11" x="0" y="0" width="794" height="241" rx="10"/><text transform="rotate(-90 45 120.5)" font-family="sans-serif" font-size="39" font-weight="bold" fill="#B57A18"><tspan x="-48.541" y="135.5">CONTEXT</tspan></text></g><g transform="translate(362 365)"><rect fill="#F5A623" fill-rule="nonzero" opacity=".55" x="0" y="0" width="794" height="241" rx="10"/><text transform="rotate(-90 45 120.5)" font-family="sans-serif" font-size="39" font-weight="bold" fill="#B57A18"><tspan x="-48.541" y="135.5">CONTEXT</tspan></text></g><g transform="translate(362 633)"><rect fill="#F5A623" fill-rule="nonzero" opacity=".107" x="0" y="0" width="794" height="241" rx="10"/><text transform="rotate(-90 45 120.5)" font-family="sans-serif" font-size="39" font-weight="bold" fill="#B57A18"><tspan x="-48.541" y="135.5">CONTEXT</tspan></text></g><g transform="translate(19 131)"><path d="M214 0l96 90.5-96 90.5H0V0h214z" fill="#FF6300" opacity=".15"/><text font-family="sans-serif" font-size="39" font-weight="bold" fill="#FFF"><tspan x="22.443" y="83">CURRENT</tspan> <tspan x="24.959" y="129">CONTEXT</tspan></text></g><g transform="translate(19 395)"><path d="M214 0l96 90.5-96 90.5H0V0h214z" fill="#FF6300"/><text font-family="sans-serif" font-size="39" font-weight="bold" fill="#FFF"><tspan x="22.443" y="83">CURRENT</tspan> <tspan x="24.959" y="129">CONTEXT</tspan></text></g><g transform="translate(738 668)" fill-rule="nonzero"><ellipse stroke="#2D2952" stroke-width="4.8" fill="#A8836D" cx="51.5" cy="25" rx="24.5" ry="25"/><path d="M52 111c-22.236 0-41.635 12.08-52 30 10.365 17.92 29.764 30 52 30s41.635-12.08 52-30c-10.423-17.92-29.764-30-52-30z" stroke="#2D2952" stroke-width="4.8" fill="#FFE64C"/><path d="M52.175 110A60.994 60.994 0 0 0 30 114.177v11.951C30 138.195 39.92 148 52 148h0c12.138 0 22-9.863 22-21.872v-12.067A60.51 60.51 0 0 0 52.175 110z" stroke="#2D2952" stroke-width="4.8" fill="#F5CEB7"/><path d="M91.483 128c-1.442 3.748-4.44 9.839-10.728 15.93C67.028 157.4 46.9 162.202 30 163.608 36.921 166.536 44.361 168 51.917 168c20.014 0 38.701-10.717 49.083-28.053A55.297 55.297 0 0 0 91.483 128z" fill="#BFAD39"/><circle stroke="#2D2952" stroke-width="4.8" fill="#F5CEB7" cx="85.5" cy="64.5" r="9.5"/><circle stroke="#2D2952" stroke-width="4.8" fill="#F5CEB7" cx="18.5" cy="64.5" r="9.5"/><path d="M51.5 128h0c-6.893 0-12.5-5.533-12.5-12.333V91h25v24.667c0 6.8-5.607 12.333-12.5 12.333z" stroke="#2D2952" stroke-width="4.8" fill="#F5CEB7"/><path d="M57 124c2.976-1.79 5-4.965 5-8.601V93h-2.083v22.399c0 3.175-1.072 6.119-2.917 8.601z" fill="#F09783"/><path d="M53.41 103h-3.82C32.234 103 18 88.794 18 71.47V52.53C18 35.206 32.233 21 49.59 21h3.82C70.766 21 85 35.206 85 52.53v18.94C85 88.852 70.767 103 53.41 103z" stroke="#2D2952" stroke-width="4.8" fill="#F5CEB7"/><path d="M83 52.489C83 39.904 75.112 29.118 64 25c8.521 6.263 14.048 16.354 14.048 27.489v19.022C78.048 82.646 72.521 92.795 64 99c11.055-4.176 19-14.904 19-27.489V52.489z" fill="#F09783"/><path d="M82.864 119v43A60.6 60.6 0 0 0 104 140.5c-5.154-8.809-12.392-16.226-21.136-21.5zM0 140.5A60.6 60.6 0 0 0 21.136 162v-43A60.6 60.6 0 0 0 0 140.5z" stroke="#2D2952" stroke-width="4.8" fill="#F5CEB7"/><path d="M82.864 119v43A60.6 60.6 0 0 0 104 140.5c-5.154-8.809-12.392-16.226-21.136-21.5zM0 140.5A60.6 60.6 0 0 0 21.136 162v-43A60.6 60.6 0 0 0 0 140.5z" stroke="#2D2952" stroke-width="4.8" fill="#F5CEB7"/><path d="M91.446 129c-1.036 2.773-2.993 6.759-6.446 11.092V158c6.446-4.564 11.914-10.398 16-17.157-2.647-4.39-5.87-8.32-9.554-11.843z" fill="#F09783"/><path d="M51 148v-5" stroke="#2D2952" stroke-width="4.8" fill="#F5CEB7"/><path d="M53.79 20h-3.822C37.866 20 27.328 26.97 22 37.102 25.127 40.382 26.4 47 31.438 47c6.717 0 6.717-11.714 13.376-11.714C51.531 35.286 51.531 47 58.19 47c6.717 0 6.717-11.714 13.376-11.714C78.283 35.286 78.283 47 84.942 47l.058-.059C82.626 31.714 69.482 20 53.79 20z" stroke="#2D2952" stroke-width="4.8" fill="#A8836D"/></g><g transform="translate(738 400)"><g fill-rule="nonzero"><ellipse stroke="#2D2952" stroke-width="4.8" fill="#A8836D" cx="51.711" cy="24.809" rx="24.729" ry="24.809"/><path d="M51.884 110.483c-22.186 0-41.542 12.115-51.884 30.085 10.342 17.97 29.698 30.084 51.884 30.084 22.187 0 41.543-12.115 51.885-30.084-10.4-17.97-29.698-30.085-51.885-30.085z" stroke="#2D2952" stroke-width="4.8" fill="#FFE64C"/><path d="M51.884 110.483a59.909 59.909 0 0 0-21.955 4.174v11.941c0 12.057 9.822 21.853 21.782 21.853h0c12.018 0 21.782-9.854 21.782-21.853v-12.057a59.432 59.432 0 0 0-21.609-4.058z" stroke="#2D2952" stroke-width="4.8" fill="#F5CEB7"/><path d="M91.462 128.685c-1.444 3.71-4.449 9.738-10.746 15.767-13.752 13.332-33.916 18.085-50.845 19.476 6.933 2.898 14.387 4.348 21.956 4.348 20.049 0 38.769-10.608 49.169-27.766a54.847 54.847 0 0 0-9.534-11.825z" fill="#BFAD39"/><ellipse stroke="#2D2952" stroke-width="4.8" fill="#F5CEB7" cx="85.338" cy="64.748" rx="9.591" ry="9.622"/><ellipse stroke="#2D2952" stroke-width="4.8" fill="#F5CEB7" cx="18.373" cy="64.748" rx="9.591" ry="9.622"/><path d="M51.884 128.279h0c-6.817 0-12.364-5.565-12.364-12.405v-24.81h24.729v24.81c0 6.84-5.547 12.405-12.365 12.405z" stroke="#2D2952" stroke-width="4.8" fill="#F5CEB7"/><path d="M57.084 124.511c2.89-1.797 4.854-4.985 4.854-8.637v-22.49h-2.022v22.49c0 3.188-1.04 6.145-2.832 8.637z" fill="#F09783"/><path d="M53.791 102.948h-3.813c-17.334 0-31.547-14.26-31.547-31.65V52.285c0-17.39 14.213-31.65 31.547-31.65h3.813c17.333 0 31.547 14.26 31.547 31.65v19.013c0 17.448-14.214 31.65-31.547 31.65z" stroke="#2D2952" stroke-width="4.8" fill="#F5CEB7"/><path d="M83.027 52.285c0-12.578-7.916-23.36-19.067-27.476 8.551 6.26 14.098 16.347 14.098 27.476v19.013c0 11.13-5.547 21.274-14.098 27.476 11.093-4.173 19.067-14.897 19.067-27.476V52.285z" fill="#F09783"/><path d="M82.68 119.062v43.011a60.544 60.544 0 0 0 21.089-21.505c-5.142-8.811-12.365-16.23-21.089-21.506zM0 140.568a60.544 60.544 0 0 0 21.089 21.505v-43.01A60.544 60.544 0 0 0 0 140.567z" stroke="#2D2952" stroke-width="4.8" fill="#F5CEB7"/><path d="M82.68 119.062v43.011a60.544 60.544 0 0 0 21.089-21.505c-5.142-8.811-12.365-16.23-21.089-21.506zM0 140.568a60.544 60.544 0 0 0 21.089 21.505v-43.01A60.544 60.544 0 0 0 0 140.567z" stroke="#2D2952" stroke-width="4.8" fill="#F5CEB7"/><path d="M91.462 128.685c-1.04 2.782-3.004 6.782-6.47 11.13v17.969c6.47-4.58 11.96-10.434 16.061-17.216-2.657-4.406-5.893-8.347-9.59-11.883z" fill="#F09783"/><path d="M51.711 148.51v-5.276" stroke="#2D2952" stroke-width="4.8" fill="#F5CEB7"/><path d="M53.791 20.636h-3.813c-12.076 0-22.591 6.898-27.907 16.926 3.12 3.246 4.391 9.796 9.418 9.796 6.702 0 6.702-11.593 13.347-11.593 6.702 0 6.702 11.593 13.346 11.593 6.702 0 6.702-11.593 13.347-11.593 6.702 0 6.702 11.593 13.347 11.593l.057-.058C82.564 32.23 69.45 20.636 53.791 20.636z" stroke="#2D2952" stroke-width="4.8" fill="#A8836D"/></g><path d="M52.675 80.535s-8.092-2.33-9.44 4.66c-1.349 6.99-11.631.999-5.226-3.328 0 0-8.597.332-5.225 9.32 3.371 8.987 16.182 3.66 18.036-1.998 1.855-5.658 3.877-2.33 5.732.999 1.854 3.328 8.765 5.991 14.327 1.997 5.563-3.994 2.866-10.152-1.685-9.82 0 0 2.865 1.998.168 5.16s-7.248-4.16-8.765-5.991c-1.517-1.83-6.068-1.83-7.922-.999" fill="#2D2118"/><path d="M74.882 73.936c-7.1 2.7-16.64 0-16.861-9.451-.222-9.451 8.209-9.451 21.52-5.626 2.31.663 2.441 12.377-4.659 15.077zM44.98 64.485c-.222 9.451-9.762 12.151-16.861 9.451-7.1-2.7-6.968-14.414-4.66-15.077 13.312-3.825 21.743-3.825 21.521 5.626zm40.553-6.751c-2.422-2.457-22.468-7.705-28.574-2.534-5.834 1.404-9.22.718-10.677.21-5.805-5.523-26.359-.165-28.813 2.324-1.195 1.212.222 6.526.666 7.2.444.676 1.775-.674 1.775.901 0 1.575 0 12.602 13.312 12.152 9.714-.329 14.583-7.008 15.212-13.743 2.548-2.59 4.694-1.736 6.096-.468.444 6.89 5.31 13.874 15.25 14.21 13.312.45 13.312-10.576 13.312-12.151 0-1.575 1.332-.225 1.775-.9.444-.675 1.86-5.99.666-7.201z" fill="#30231A"/></g><g transform="translate(738 125)"><g transform="translate(0 20)" fill-rule="nonzero"><ellipse stroke="#2D2952" stroke-width="4.8" fill="#A8836D" cx="51.711" cy="24.955" rx="24.729" ry="24.955"/><path d="M51.884 111.13c-22.186 0-41.542 12.185-51.884 30.26 10.342 18.074 29.698 30.26 51.884 30.26 22.187 0 41.543-12.186 51.885-30.26-10.4-18.075-29.698-30.26-51.885-30.26z" stroke="#2D2952" stroke-width="4.8" fill="#FFE64C"/><path d="M51.884 111.13a59.603 59.603 0 0 0-21.955 4.197v12.011c0 12.128 9.822 21.981 21.782 21.981h0c12.018 0 21.782-9.912 21.782-21.98V115.21a59.128 59.128 0 0 0-21.609-4.082z" stroke="#2D2952" stroke-width="4.8" fill="#F5CEB7"/><path d="M91.462 129.437c-1.444 3.732-4.449 9.796-10.746 15.86-13.752 13.41-33.916 18.19-50.845 19.59 6.933 2.915 14.387 4.373 21.956 4.373 20.049 0 38.769-10.67 49.169-27.928a55.11 55.11 0 0 0-9.534-11.895z" fill="#BFAD39"/><ellipse stroke="#2D2952" stroke-width="4.8" fill="#F5CEB7" cx="85.338" cy="65.127" rx="9.591" ry="9.679"/><ellipse stroke="#2D2952" stroke-width="4.8" fill="#F5CEB7" cx="18.373" cy="65.127" rx="9.591" ry="9.679"/><path d="M51.884 129.03h0c-6.817 0-12.364-5.598-12.364-12.478V91.597h24.729v24.955c0 6.88-5.547 12.477-12.365 12.477z" stroke="#2D2952" stroke-width="4.8" fill="#F5CEB7"/><path d="M57.084 125.24c2.89-1.808 4.854-5.015 4.854-8.688V93.929h-2.022v22.623c0 3.207-1.04 6.18-2.832 8.687z" fill="#F09783"/><path d="M53.791 103.55h-3.813c-17.334 0-31.547-14.343-31.547-31.835V52.591c0-17.491 14.213-31.834 31.547-31.834h3.813c17.333 0 31.547 14.343 31.547 31.834v19.124c0 17.55-14.214 31.835-31.547 31.835z" stroke="#2D2952" stroke-width="4.8" fill="#F5CEB7"/><path d="M83.027 52.591c0-12.652-7.916-23.497-19.067-27.636 8.551 6.297 14.098 16.442 14.098 27.636v19.124c0 11.195-5.547 21.398-14.098 27.637 11.093-4.198 19.067-14.985 19.067-27.637V52.591z" fill="#F09783"/><path d="M82.68 119.759v43.262a60.732 60.732 0 0 0 21.089-21.631c-5.142-8.863-12.365-16.326-21.089-21.631zM0 141.389a60.732 60.732 0 0 0 21.089 21.632v-43.262A60.732 60.732 0 0 0 0 141.389z" stroke="#2D2952" stroke-width="4.8" fill="#F5CEB7"/><path d="M82.68 119.759v43.262a60.732 60.732 0 0 0 21.089-21.631c-5.142-8.863-12.365-16.326-21.089-21.631zM0 141.389a60.732 60.732 0 0 0 21.089 21.632v-43.262A60.732 60.732 0 0 0 0 141.389z" stroke="#2D2952" stroke-width="4.8" fill="#F5CEB7"/><path d="M91.462 129.437c-1.04 2.799-3.004 6.822-6.47 11.195v18.074a57.94 57.94 0 0 0 16.061-17.316c-2.657-4.431-5.893-8.396-9.59-11.953z" fill="#F09783"/><path d="M51.711 149.378v-5.306" stroke="#2D2952" stroke-width="4.8" fill="#F5CEB7"/><path d="M53.791 20.757h-3.813c-12.076 0-22.591 6.938-27.907 17.025 3.12 3.265 4.391 9.853 9.418 9.853 6.702 0 6.702-11.66 13.347-11.66 6.702 0 6.702 11.66 13.346 11.66 6.702 0 6.702-11.66 13.347-11.66 6.702 0 6.702 11.66 13.347 11.66l.057-.058c-2.369-15.16-15.484-26.82-31.142-26.82z" stroke="#2D2952" stroke-width="4.8" fill="#A8836D"/></g><g transform="translate(7)"><path d="M6.07 45.39s-12.812-21.241 4.873-32.157C27.722 2.877 38.43 16.605 38.43 16.605l3.092 27.6-32.708 6.912-2.743-5.727" fill="#C24D2C"/><path d="M76.333 37.324s7.79-23.606-11.859-30.236C45.837.798 38.43 16.605 38.43 16.605l3.092 27.6 33.403-.677 1.408-6.204" fill="#C24D2C"/><path d="M15.906 41.243C15.805 25.603 4.273 21.211 3.78 21.032l.923-2.624c.144.051 3.563 1.304 6.988 4.754 3.144 3.167 6.905 8.872 6.964 18.063l-2.75.018" fill="#FFFFFE"/><path d="M33.025 38.559c-.133-20.69-15.849-26.569-16.008-26.626l.919-2.625c.183.065 4.537 1.66 8.92 6.075 4.026 4.056 8.845 11.367 8.92 23.158l-2.751.018" fill="#FFFFFE"/><path d="M63.748 36.05c-1.976-8.972.427-15.384 2.793-19.184 2.574-4.139 5.632-6.135 5.761-6.217l1.476 2.35-.738-1.175.738 1.173c-.439.286-10.704 7.18-7.347 22.447l-2.683.605" fill="#FFFFFE"/><path d="M46.469 37.314c-2.532-11.51.545-19.726 3.573-24.593 3.297-5.295 7.188-7.837 7.35-7.943l1.48 2.35c-.037.022-3.61 2.378-6.57 7.187-3.948 6.413-5.008 13.947-3.15 22.393l-2.683.606" fill="#FFFFFE"/><path d="M23.267 10.76c-3.766 0-7.671 1.232-11.608 3.662-6.795 4.194-9.633 10.485-8.435 18.7.924 6.332 3.99 11.491 4.021 11.542l.064.118 2.275 4.75L40.012 43.1l-2.9-25.912c-1.131-1.273-6.18-6.429-13.845-6.429zM9.095 52.48l-1.518-.755-2.717-5.671C4.475 45.4 1.491 40.177.515 33.612c-1.387-9.332 1.971-16.79 9.713-21.569 4.374-2.7 8.76-4.069 13.039-4.069 10.068 0 15.995 7.45 16.241 7.768l.288.706 3.092 27.6-1.086 1.52L9.095 52.48z" fill="#2D2952"/><path d="M39.845 16.867l2.9 25.92 31.079-.63 1.203-5.274c.02-.056 1.866-5.78 1.367-12.16-.648-8.278-4.804-13.766-12.355-16.314C61.272 7.475 58.604 7 56.106 7c-10.417 0-15.303 8.07-16.26 9.866zm1.703 28.73l-1.392-1.236-3.093-27.6.125-.753c.227-.481 5.674-11.792 18.918-11.792 2.793 0 5.757.521 8.804 1.55 8.6 2.903 13.524 9.41 14.232 18.82.5 6.62-1.253 12.387-1.484 13.112l-1.393 6.142-1.314 1.08-33.403.677z" fill="#2D2952"/><path d="M79.558 35.266l-3.335 19.243-.026.003c-.443-3.966-15.602-5.483-33.857-3.388C24.085 53.22 9.646 58.134 10.09 62.1l-.116.013-7.5-17.999 10.012 3.55 9.378-12.575 12.932 5.315 4.341-17.47 8.093 16.043 11.43-8.112 11.924 10.13 8.974-5.73" fill="#F6C171"/><path d="M4.946 46.466l5.228 12.546c5.08-4.931 22.131-8.137 32.01-9.271 5.42-.623 10.837-.952 15.667-.952 9.848 0 14.97 1.18 17.502 2.682l2.312-13.351-6.347 4.053-1.62-.111-11.113-9.442-10.568 7.497-2.014-.507L39.58 26.87l-3.448 13.874-1.85.951-11.957-4.912-8.742 11.721-1.551.475-7.086-2.512zm5.182 17.031l-1.422-.842-7.5-18L2.929 42.8l9.065 3.214 8.773-11.764 1.615-.451L33.85 38.51l3.955-15.917 2.559-.294 7.37 14.617 10.136-7.192 1.673.074 11.154 9.476 8.127-5.187 2.085 1.419-3.33 19.243-1.204 1.143-1.545-1.225c-.068-.613-3.304-3.094-16.98-3.094-4.727 0-10.037.323-15.355.934-8.736 1.003-16.852 2.68-22.854 4.723-6.85 2.331-8.238 4.23-8.184 4.712l-1.212 1.541-.117.013z" fill="#2D2952"/><path fill="#2D2952" d="M37.771 23.091L35.224.322l2.732-.314 2.552 22.769-2.737.314"/><path fill="#2D2952" d="M31.859 7.369l-.311-2.768 10.939-1.255.307 2.767-10.935 1.256"/><path d="M41.34 41.383A1.36 1.36 0 0 0 40 42.897a1.35 1.35 0 0 0 1.488 1.197 1.36 1.36 0 0 0 1.185-1.504 1.35 1.35 0 0 0-1.333-1.207zm-.007 5.505c-2.082 0-3.83-1.58-4.065-3.678-.254-2.271 1.366-4.328 3.607-4.585.155-.018.31-.027.465-.027 2.082 0 3.83 1.581 4.065 3.678.254 2.272-1.366 4.328-3.607 4.586-.155.018-.31.026-.465.026z" fill="#2D2952"/><path d="M24.24 45.217a1.358 1.358 0 0 0-1.337 1.513c.083.74.74 1.28 1.486 1.198.356-.041.675-.22.898-.504.224-.284.325-.64.284-1a1.346 1.346 0 0 0-1.33-1.207zm-.006 5.505c-2.082 0-3.83-1.581-4.064-3.678-.254-2.272 1.364-4.329 3.606-4.586 2.282-.264 4.275 1.401 4.529 3.652a4.164 4.164 0 0 1-.867 3.05 4.048 4.048 0 0 1-3.204 1.562z" fill="#2D2952"/><path d="M59.141 41.211a1.326 1.326 0 0 0-1.052.513 1.34 1.34 0 0 0-.284 1c.08.74.742 1.282 1.484 1.198.356-.041.674-.22.897-.504.227-.284.326-.64.284-1a1.343 1.343 0 0 0-1.329-1.207zm-.007 5.505c-2.082 0-3.83-1.581-4.065-3.678a4.165 4.165 0 0 1 .866-3.05 4.053 4.053 0 0 1 2.74-1.536c2.283-.263 4.278 1.4 4.528 3.652a4.144 4.144 0 0 1-.863 3.049 4.052 4.052 0 0 1-3.206 1.563z" fill="#2D2952"/></g></g><g transform="translate(509 143)"><g transform="translate(1)"><path fill="#9ED0D7" d="M4.395 2.915h105.928v36.146H4.395z"/><path d="M110.323 41.865H4.395c-1.563 0-2.828-1.256-2.828-2.804V2.915C1.567 1.367 2.832.11 4.395.11h105.928c1.563 0 2.828 1.257 2.828 2.805V39.06c0 1.548-1.265 2.804-2.828 2.804zm-103.1-5.609h100.272V5.72H7.222v30.537z" fill="#303E5C" fill-rule="nonzero"/></g><path d="M96 21.498C96 23.984 93.9 26 91.312 26c-2.59 0-4.687-2.016-4.687-4.502 0-2.484 2.098-4.498 4.687-4.498C93.9 16.998 96 19.014 96 21.498zm-74.633-2.272c-1.308 0-2.367 1.016-2.367 2.272 0 1.256 1.06 2.276 2.367 2.276 1.308 0 2.368-1.018 2.368-2.276 0-1.256-1.062-2.272-2.368-2.272zm10.291 0c-1.306 0-2.365 1.016-2.365 2.272 0 1.256 1.06 2.276 2.365 2.276 1.308 0 2.371-1.018 2.371-2.276 0-1.256-1.06-2.272-2.37-2.272zm10.297 0c-1.308 0-2.37 1.016-2.37 2.272 0 1.256 1.06 2.276 2.37 2.276 1.306 0 2.367-1.018 2.367-2.276 0-1.256-1.059-2.272-2.367-2.272zm10.293 0c-1.306 0-2.367 1.016-2.367 2.272 0 1.256 1.059 2.276 2.367 2.276s2.367-1.018 2.367-2.276c0-1.256-1.059-2.272-2.367-2.272zm10.295 0c-1.308 0-2.37 1.016-2.37 2.272 0 1.256 1.06 2.276 2.37 2.276s2.369-1.018 2.369-2.276c0-1.256-1.06-2.272-2.37-2.272zm12.16 0c-1.307 0-2.367 1.016-2.367 2.272 0 1.256 1.06 2.276 2.368 2.276 1.306 0 2.367-1.018 2.367-2.276 0-1.256-1.06-2.272-2.367-2.272z" fill="#303E5C" fill-rule="nonzero"/><g transform="translate(1 38)"><path fill="#9ED0D7" d="M4.395 4.095h105.928v36.251H4.395z"/><path d="M110.323 43.159H4.395a2.82 2.82 0 0 1-2.828-2.813V4.095a2.82 2.82 0 0 1 2.828-2.813h105.928a2.82 2.82 0 0 1 2.828 2.813v36.251a2.82 2.82 0 0 1-2.828 2.813zm-103.1-5.625h100.272V6.907H7.222v30.627z" fill="#303E5C" fill-rule="nonzero"/></g><path d="M96 59.498C96 61.984 93.9 64 91.312 64c-2.59 0-4.687-2.016-4.687-4.502 0-2.484 2.098-4.498 4.687-4.498C93.9 54.998 96 57.014 96 59.498zm-74.633-2.272c-1.308 0-2.367 1.016-2.367 2.272 0 1.256 1.06 2.276 2.367 2.276 1.308 0 2.368-1.018 2.368-2.276 0-1.256-1.062-2.272-2.368-2.272zm10.291 0c-1.306 0-2.365 1.016-2.365 2.272 0 1.256 1.06 2.276 2.365 2.276 1.308 0 2.371-1.018 2.371-2.276 0-1.256-1.06-2.272-2.37-2.272zm10.297 0c-1.308 0-2.37 1.016-2.37 2.272 0 1.256 1.06 2.276 2.37 2.276 1.306 0 2.367-1.018 2.367-2.276 0-1.256-1.059-2.272-2.367-2.272zm10.293 0c-1.306 0-2.367 1.016-2.367 2.272 0 1.256 1.059 2.276 2.367 2.276s2.367-1.018 2.367-2.276c0-1.256-1.059-2.272-2.367-2.272zm10.295 0c-1.308 0-2.37 1.016-2.37 2.272 0 1.256 1.06 2.276 2.37 2.276s2.369-1.018 2.369-2.276c0-1.256-1.06-2.272-2.37-2.272zm12.16 0c-1.307 0-2.367 1.016-2.367 2.272 0 1.256 1.06 2.276 2.368 2.276 1.306 0 2.367-1.018 2.367-2.276 0-1.256-1.06-2.272-2.367-2.272z" fill="#303E5C" fill-rule="nonzero"/><g transform="translate(1 75)"><path fill="#9ED0D7" d="M4.395 3.797h105.928v36.146H4.395z"/><path d="M110.323 42.748H4.395c-1.563 0-2.828-1.257-2.828-2.805V3.797C1.567 2.25 2.832.993 4.395.993h105.928c1.563 0 2.828 1.256 2.828 2.804v36.146c0 1.548-1.265 2.805-2.828 2.805zm-103.1-5.61h100.272V6.602H7.222V37.14z" fill="#303E5C" fill-rule="nonzero"/></g><path d="M96 96.498c0 2.486-2.1 4.502-4.688 4.502-2.59 0-4.687-2.016-4.687-4.502 0-2.484 2.098-4.498 4.687-4.498C93.9 92 96 94.014 96 96.498zm-74.633-2.272c-1.308 0-2.367 1.016-2.367 2.272 0 1.256 1.06 2.276 2.367 2.276 1.308 0 2.368-1.018 2.368-2.276 0-1.254-1.062-2.272-2.368-2.272zm10.291 0c-1.306 0-2.365 1.016-2.365 2.272 0 1.256 1.06 2.276 2.365 2.276 1.308 0 2.371-1.018 2.371-2.276 0-1.254-1.06-2.272-2.37-2.272zm10.297 0c-1.308 0-2.37 1.016-2.37 2.272 0 1.256 1.06 2.276 2.37 2.276 1.306 0 2.367-1.018 2.367-2.276 0-1.254-1.059-2.272-2.367-2.272zm10.293 0c-1.306 0-2.367 1.016-2.367 2.272 0 1.256 1.059 2.276 2.367 2.276s2.367-1.018 2.367-2.276c0-1.254-1.059-2.272-2.367-2.272zm10.295 0c-1.308 0-2.37 1.016-2.37 2.272 0 1.256 1.06 2.276 2.37 2.276s2.369-1.018 2.369-2.276c0-1.254-1.06-2.272-2.37-2.272zm12.16 0c-1.307 0-2.367 1.016-2.367 2.272 0 1.256 1.06 2.276 2.368 2.276 1.306 0 2.367-1.018 2.367-2.276 0-1.254-1.06-2.272-2.367-2.272z" fill="#303E5C" fill-rule="nonzero"/><g transform="translate(1 111)"><path fill="#9ED0D7" d="M4.395 4.434h105.928v36.251H4.395z"/><path d="M110.323 43.498H4.395a2.82 2.82 0 0 1-2.828-2.812V4.434a2.82 2.82 0 0 1 2.828-2.812h105.928a2.82 2.82 0 0 1 2.828 2.812v36.252a2.82 2.82 0 0 1-2.828 2.812zm-103.1-5.625h100.272V7.247H7.222v30.626z" fill="#303E5C" fill-rule="nonzero"/></g><path d="M96 133.498c0 2.486-2.1 4.502-4.688 4.502-2.59 0-4.687-2.016-4.687-4.502 0-2.484 2.098-4.498 4.687-4.498C93.9 129 96 131.014 96 133.498zm-74.633-2.272c-1.308 0-2.367 1.016-2.367 2.272 0 1.256 1.06 2.276 2.367 2.276 1.308 0 2.368-1.018 2.368-2.276 0-1.254-1.062-2.272-2.368-2.272zm10.291 0c-1.306 0-2.365 1.016-2.365 2.272 0 1.256 1.06 2.276 2.365 2.276 1.308 0 2.371-1.018 2.371-2.276 0-1.254-1.06-2.272-2.37-2.272zm10.297 0c-1.308 0-2.37 1.016-2.37 2.272 0 1.256 1.06 2.276 2.37 2.276 1.306 0 2.367-1.018 2.367-2.276 0-1.254-1.059-2.272-2.367-2.272zm10.293 0c-1.306 0-2.367 1.016-2.367 2.272 0 1.256 1.059 2.276 2.367 2.276s2.367-1.018 2.367-2.276c0-1.254-1.059-2.272-2.367-2.272zm10.295 0c-1.308 0-2.37 1.016-2.37 2.272 0 1.256 1.06 2.276 2.37 2.276s2.369-1.018 2.369-2.276c0-1.254-1.06-2.272-2.37-2.272zm12.16 0c-1.307 0-2.367 1.016-2.367 2.272 0 1.256 1.06 2.276 2.368 2.276 1.306 0 2.367-1.018 2.367-2.276 0-1.254-1.06-2.272-2.367-2.272z" fill="#303E5C" fill-rule="nonzero"/></g><g transform="translate(510 406)"><g transform="translate(1)"><path fill="#F3BEB8" d="M4.628 4.489h105.928V40.74H4.628z"/><path d="M110.558 43.553H4.63a2.819 2.819 0 0 1-2.828-2.813V4.489A2.819 2.819 0 0 1 4.63 1.676h105.928a2.82 2.82 0 0 1 2.828 2.813V40.74a2.821 2.821 0 0 1-2.828 2.813zM7.456 37.928H107.73V7.3H7.456v30.627z" fill="#303E5C" fill-rule="nonzero"/></g><path d="M96 22.498C96 24.984 93.9 27 91.313 27c-2.59 0-4.688-2.016-4.688-4.502 0-2.484 2.098-4.498 4.688-4.498C93.898 17.998 96 20.014 96 22.498zm-74.633-2.272c-1.308 0-2.367 1.016-2.367 2.272 0 1.256 1.06 2.276 2.367 2.276 1.306 0 2.368-1.018 2.368-2.276 0-1.256-1.062-2.272-2.368-2.272zm10.293 0c-1.306 0-2.365 1.016-2.365 2.272 0 1.256 1.059 2.276 2.365 2.276 1.308 0 2.371-1.018 2.371-2.276 0-1.256-1.063-2.272-2.371-2.272zm10.296 0c-1.308 0-2.369 1.016-2.369 2.272 0 1.256 1.06 2.276 2.37 2.276 1.306 0 2.367-1.018 2.367-2.276 0-1.256-1.061-2.272-2.368-2.272zm10.293 0c-1.306 0-2.367 1.016-2.367 2.272 0 1.256 1.059 2.276 2.367 2.276s2.367-1.018 2.367-2.276c0-1.256-1.06-2.272-2.367-2.272zm10.295 0c-1.308 0-2.37 1.016-2.37 2.272 0 1.256 1.06 2.276 2.37 2.276s2.369-1.018 2.369-2.276c0-1.256-1.061-2.272-2.37-2.272zm12.16 0c-1.308 0-2.367 1.016-2.367 2.272 0 1.256 1.06 2.276 2.367 2.276 1.306 0 2.367-1.018 2.367-2.276 0-1.256-1.06-2.272-2.367-2.272z" fill="#303E5C" fill-rule="nonzero"/><g transform="translate(1 39)"><path fill="#F3BEB8" d="M4.628 3.775h105.928v36.146H4.628z"/><path d="M110.558 42.725H4.63c-1.563 0-2.828-1.254-2.828-2.804V3.775C1.802 2.225 3.067.97 4.63.97h105.928c1.561 0 2.828 1.255 2.828 2.805V39.92c0 1.548-1.267 2.804-2.828 2.804zM7.456 37.116H107.73V6.58H7.456v30.537z" fill="#303E5C" fill-rule="nonzero"/></g><path d="M96 61.498C96 63.984 93.9 66 91.313 66c-2.59 0-4.688-2.016-4.688-4.502 0-2.484 2.098-4.498 4.688-4.498C93.898 56.998 96 59.014 96 61.498zm-74.633-2.272c-1.308 0-2.367 1.016-2.367 2.272 0 1.256 1.06 2.276 2.367 2.276 1.306 0 2.368-1.018 2.368-2.276 0-1.256-1.062-2.272-2.368-2.272zm10.293 0c-1.306 0-2.365 1.016-2.365 2.272 0 1.256 1.059 2.276 2.365 2.276 1.308 0 2.371-1.018 2.371-2.276 0-1.256-1.063-2.272-2.371-2.272zm10.296 0c-1.308 0-2.369 1.016-2.369 2.272 0 1.256 1.06 2.276 2.37 2.276 1.306 0 2.367-1.018 2.367-2.276 0-1.256-1.061-2.272-2.368-2.272zm10.293 0c-1.306 0-2.367 1.016-2.367 2.272 0 1.256 1.059 2.276 2.367 2.276s2.367-1.018 2.367-2.276c0-1.256-1.06-2.272-2.367-2.272zm10.295 0c-1.308 0-2.37 1.016-2.37 2.272 0 1.256 1.06 2.276 2.37 2.276s2.369-1.018 2.369-2.276c0-1.256-1.061-2.272-2.37-2.272zm12.16 0c-1.308 0-2.367 1.016-2.367 2.272 0 1.256 1.06 2.276 2.367 2.276 1.306 0 2.367-1.018 2.367-2.276 0-1.256-1.06-2.272-2.367-2.272z" fill="#303E5C" fill-rule="nonzero"/><g transform="translate(1 77)"><path fill="#F3BEB8" d="M4.628 3.489h105.928v36.146H4.628z"/><path d="M110.558 42.44H4.63c-1.563 0-2.828-1.255-2.828-2.805V3.489c0-1.55 1.265-2.805 2.828-2.805h105.928c1.561 0 2.828 1.255 2.828 2.805v36.146c0 1.55-1.267 2.804-2.828 2.804zM7.456 36.83H107.73V6.293H7.456V36.83z" fill="#303E5C" fill-rule="nonzero"/></g><path d="M96 98.498c0 2.486-2.1 4.502-4.687 4.502-2.59 0-4.688-2.016-4.688-4.502 0-2.484 2.098-4.498 4.688-4.498C93.898 94 96 96.014 96 98.498zm-74.633-2.272c-1.308 0-2.367 1.016-2.367 2.272 0 1.256 1.06 2.276 2.367 2.276 1.306 0 2.368-1.018 2.368-2.276 0-1.254-1.062-2.272-2.368-2.272zm10.293 0c-1.306 0-2.365 1.016-2.365 2.272 0 1.256 1.059 2.276 2.365 2.276 1.308 0 2.371-1.018 2.371-2.276 0-1.254-1.063-2.272-2.371-2.272zm10.296 0c-1.308 0-2.369 1.016-2.369 2.272 0 1.256 1.06 2.276 2.37 2.276 1.306 0 2.367-1.018 2.367-2.276 0-1.254-1.061-2.272-2.368-2.272zm10.293 0c-1.306 0-2.367 1.016-2.367 2.272 0 1.256 1.059 2.276 2.367 2.276s2.367-1.018 2.367-2.276c0-1.254-1.06-2.272-2.367-2.272zm10.295 0c-1.308 0-2.37 1.016-2.37 2.272 0 1.256 1.06 2.276 2.37 2.276s2.369-1.018 2.369-2.276c0-1.254-1.061-2.272-2.37-2.272zm12.16 0c-1.308 0-2.367 1.016-2.367 2.272 0 1.256 1.06 2.276 2.367 2.276 1.306 0 2.367-1.018 2.367-2.276 0-1.254-1.06-2.272-2.367-2.272z" fill="#303E5C" fill-rule="nonzero"/><g transform="translate(1 112)"><path fill="#F3BEB8" d="M4.628 4.125h105.928v36.251H4.628z"/><path d="M110.558 43.189H4.63a2.819 2.819 0 0 1-2.828-2.813V4.125A2.819 2.819 0 0 1 4.63 1.312h105.928a2.82 2.82 0 0 1 2.828 2.813v36.251a2.82 2.82 0 0 1-2.828 2.813zM7.456 37.564H107.73V6.937H7.456v30.627z" fill="#303E5C" fill-rule="nonzero"/></g><path d="M96 134.498c0 2.486-2.1 4.502-4.687 4.502-2.59 0-4.688-2.016-4.688-4.502 0-2.484 2.098-4.498 4.688-4.498 2.585 0 4.687 2.014 4.687 4.498zm-74.633-2.272c-1.308 0-2.367 1.016-2.367 2.272 0 1.256 1.06 2.276 2.367 2.276 1.306 0 2.368-1.018 2.368-2.276 0-1.254-1.062-2.272-2.368-2.272zm10.293 0c-1.306 0-2.365 1.016-2.365 2.272 0 1.256 1.059 2.276 2.365 2.276 1.308 0 2.371-1.018 2.371-2.276 0-1.254-1.063-2.272-2.371-2.272zm10.296 0c-1.308 0-2.369 1.016-2.369 2.272 0 1.256 1.06 2.276 2.37 2.276 1.306 0 2.367-1.018 2.367-2.276 0-1.254-1.061-2.272-2.368-2.272zm10.293 0c-1.306 0-2.367 1.016-2.367 2.272 0 1.256 1.059 2.276 2.367 2.276s2.367-1.018 2.367-2.276c0-1.254-1.06-2.272-2.367-2.272zm10.295 0c-1.308 0-2.37 1.016-2.37 2.272 0 1.256 1.06 2.276 2.37 2.276s2.369-1.018 2.369-2.276c0-1.254-1.061-2.272-2.37-2.272zm12.16 0c-1.308 0-2.367 1.016-2.367 2.272 0 1.256 1.06 2.276 2.367 2.276 1.306 0 2.367-1.018 2.367-2.276 0-1.254-1.06-2.272-2.367-2.272z" fill="#303E5C" fill-rule="nonzero"/></g><g transform="translate(510 679)"><g transform="translate(1)"><path fill="#D1F2A5" d="M3.678 3.49h106.273v35.9H3.678z"/><path d="M109.952 42.175H3.68c-1.568 0-2.837-1.246-2.837-2.786V3.49C.842 1.95 2.112.705 3.68.705h106.273c1.566 0 2.837 1.246 2.837 2.786v35.9c0 1.537-1.27 2.785-2.837 2.785zM6.515 36.605h100.598V6.274H6.515v30.33z" fill="#303E5C" fill-rule="nonzero"/></g><path d="M95 21.498C95 23.984 92.9 26 90.313 26c-2.59 0-4.688-2.016-4.688-4.502 0-2.484 2.098-4.498 4.688-4.498C92.898 16.998 95 19.014 95 21.498zm-74.633-2.272c-1.308 0-2.367 1.016-2.367 2.272 0 1.256 1.06 2.276 2.367 2.276 1.306 0 2.368-1.018 2.368-2.276 0-1.256-1.062-2.272-2.368-2.272zm10.293 0c-1.306 0-2.365 1.016-2.365 2.272 0 1.256 1.059 2.276 2.365 2.276 1.308 0 2.371-1.018 2.371-2.276 0-1.256-1.063-2.272-2.371-2.272zm10.296 0c-1.308 0-2.369 1.016-2.369 2.272 0 1.256 1.06 2.276 2.37 2.276 1.306 0 2.367-1.018 2.367-2.276 0-1.256-1.061-2.272-2.368-2.272zm10.293 0c-1.306 0-2.367 1.016-2.367 2.272 0 1.256 1.059 2.276 2.367 2.276s2.367-1.018 2.367-2.276c0-1.256-1.06-2.272-2.367-2.272zm10.295 0c-1.308 0-2.37 1.016-2.37 2.272 0 1.256 1.06 2.276 2.37 2.276s2.369-1.018 2.369-2.276c0-1.256-1.061-2.272-2.37-2.272zm12.16 0c-1.308 0-2.367 1.016-2.367 2.272 0 1.256 1.06 2.276 2.367 2.276 1.306 0 2.367-1.018 2.367-2.276 0-1.256-1.06-2.272-2.367-2.272z" fill="#303E5C" fill-rule="nonzero"/><g transform="translate(1 39)"><path fill="#D1F2A5" d="M3.678 2.79h106.273v35.862H3.678z"/><path d="M109.952 41.434H3.68c-1.568 0-2.837-1.244-2.837-2.782V2.79C.842 1.253 2.112.008 3.68.008h106.273c1.566 0 2.837 1.245 2.837 2.782v35.862c0 1.536-1.27 2.782-2.837 2.782zM6.515 35.87h100.598V5.573H6.515V35.87z" fill="#303E5C" fill-rule="nonzero"/></g><path d="M95 60.498C95 62.984 92.9 65 90.313 65c-2.59 0-4.688-2.016-4.688-4.502 0-2.484 2.098-4.498 4.688-4.498C92.898 55.998 95 58.014 95 60.498zm-74.633-2.272c-1.308 0-2.367 1.016-2.367 2.272 0 1.256 1.06 2.276 2.367 2.276 1.306 0 2.368-1.018 2.368-2.276 0-1.256-1.062-2.272-2.368-2.272zm10.293 0c-1.306 0-2.365 1.016-2.365 2.272 0 1.256 1.059 2.276 2.365 2.276 1.308 0 2.371-1.018 2.371-2.276 0-1.256-1.063-2.272-2.371-2.272zm10.296 0c-1.308 0-2.369 1.016-2.369 2.272 0 1.256 1.06 2.276 2.37 2.276 1.306 0 2.367-1.018 2.367-2.276 0-1.256-1.061-2.272-2.368-2.272zm10.293 0c-1.306 0-2.367 1.016-2.367 2.272 0 1.256 1.059 2.276 2.367 2.276s2.367-1.018 2.367-2.276c0-1.256-1.06-2.272-2.367-2.272zm10.295 0c-1.308 0-2.37 1.016-2.37 2.272 0 1.256 1.06 2.276 2.37 2.276s2.369-1.018 2.369-2.276c0-1.256-1.061-2.272-2.37-2.272zm12.16 0c-1.308 0-2.367 1.016-2.367 2.272 0 1.256 1.06 2.276 2.367 2.276 1.306 0 2.367-1.018 2.367-2.276 0-1.256-1.06-2.272-2.367-2.272z" fill="#303E5C" fill-rule="nonzero"/><g transform="translate(1 76)"><path fill="#D1F2A5" d="M3.678 3.465h106.273v35.9H3.678z"/><path d="M109.952 42.15H3.68c-1.568 0-2.837-1.246-2.837-2.785v-35.9C.842 1.925 2.112.68 3.68.68h106.273c1.566 0 2.837 1.246 2.837 2.785v35.9c0 1.539-1.27 2.785-2.837 2.785zM6.515 36.58h100.598V6.25H6.515v30.33z" fill="#303E5C" fill-rule="nonzero"/></g><path d="M95 97.498c0 2.486-2.1 4.502-4.687 4.502-2.59 0-4.688-2.016-4.688-4.502 0-2.484 2.098-4.498 4.688-4.498C92.898 93 95 95.014 95 97.498zm-74.633-2.272c-1.308 0-2.367 1.016-2.367 2.272 0 1.256 1.06 2.276 2.367 2.276 1.306 0 2.368-1.018 2.368-2.276 0-1.254-1.062-2.272-2.368-2.272zm10.293 0c-1.306 0-2.365 1.016-2.365 2.272 0 1.256 1.059 2.276 2.365 2.276 1.308 0 2.371-1.018 2.371-2.276 0-1.254-1.063-2.272-2.371-2.272zm10.296 0c-1.308 0-2.369 1.016-2.369 2.272 0 1.256 1.06 2.276 2.37 2.276 1.306 0 2.367-1.018 2.367-2.276 0-1.254-1.061-2.272-2.368-2.272zm10.293 0c-1.306 0-2.367 1.016-2.367 2.272 0 1.256 1.059 2.276 2.367 2.276s2.367-1.018 2.367-2.276c0-1.254-1.06-2.272-2.367-2.272zm10.295 0c-1.308 0-2.37 1.016-2.37 2.272 0 1.256 1.06 2.276 2.37 2.276s2.369-1.018 2.369-2.276c0-1.254-1.061-2.272-2.37-2.272zm12.16 0c-1.308 0-2.367 1.016-2.367 2.272 0 1.256 1.06 2.276 2.367 2.276 1.306 0 2.367-1.018 2.367-2.276 0-1.254-1.06-2.272-2.367-2.272z" fill="#303E5C" fill-rule="nonzero"/><g transform="translate(1 112)"><path fill="#D1F2A5" d="M3.678 3.126h106.273v35.862H3.678z"/><path d="M109.952 41.77H3.68c-1.568 0-2.837-1.244-2.837-2.782V3.126C.842 1.588 2.112.344 3.68.344h106.273c1.566 0 2.837 1.244 2.837 2.782v35.862c0 1.538-1.27 2.782-2.837 2.782zM6.515 36.206h100.598V5.908H6.515v30.298z" fill="#303E5C" fill-rule="nonzero"/></g><path d="M95 133.498c0 2.486-2.1 4.502-4.687 4.502-2.59 0-4.688-2.016-4.688-4.502 0-2.484 2.098-4.498 4.688-4.498 2.585 0 4.687 2.014 4.687 4.498zm-74.633-2.272c-1.308 0-2.367 1.016-2.367 2.272 0 1.256 1.06 2.276 2.367 2.276 1.306 0 2.368-1.018 2.368-2.276 0-1.254-1.062-2.272-2.368-2.272zm10.293 0c-1.306 0-2.365 1.016-2.365 2.272 0 1.256 1.059 2.276 2.365 2.276 1.308 0 2.371-1.018 2.371-2.276 0-1.254-1.063-2.272-2.371-2.272zm10.296 0c-1.308 0-2.369 1.016-2.369 2.272 0 1.256 1.06 2.276 2.37 2.276 1.306 0 2.367-1.018 2.367-2.276 0-1.254-1.061-2.272-2.368-2.272zm10.293 0c-1.306 0-2.367 1.016-2.367 2.272 0 1.256 1.059 2.276 2.367 2.276s2.367-1.018 2.367-2.276c0-1.254-1.06-2.272-2.367-2.272zm10.295 0c-1.308 0-2.37 1.016-2.37 2.272 0 1.256 1.06 2.276 2.37 2.276s2.369-1.018 2.369-2.276c0-1.254-1.061-2.272-2.37-2.272zm12.16 0c-1.308 0-2.367 1.016-2.367 2.272 0 1.256 1.06 2.276 2.367 2.276 1.306 0 2.367-1.018 2.367-2.276 0-1.254-1.06-2.272-2.367-2.272z" fill="#303E5C" fill-rule="nonzero"/></g><g transform="translate(935 139)"><ellipse fill="#FFFDA7" cx="83" cy="82.5" rx="83" ry="82.5"/><text font-family="sans-serif" font-size="39" font-weight="bold" fill="#4A4A4A"><tspan x="26.294" y="98">PROD</tspan></text></g><g transform="translate(935 679)"><ellipse fill="#FFFDA7" cx="83" cy="82.5" rx="83" ry="82.5"/><text font-family="sans-serif" font-size="39" font-weight="bold" fill="#4A4A4A"><tspan x="43.13" y="98">DEV</tspan></text></g><g transform="translate(935 406)"><ellipse fill="#FFFDA7" cx="83" cy="82.5" rx="83" ry="82.5"/><text font-family="sans-serif" font-size="39" font-weight="bold" fill="#4A4A4A"><tspan x="33.38" y="98">TEST</tspan></text></g><text font-family="sans-serif" font-size="41" font-weight="bold" fill="#4A4A4A"><tspan x="733.42" y="71">USER</tspan></text><text font-family="sans-serif" font-size="41" font-weight="bold" fill="#4A4A4A"><tspan x="887.394" y="71">NAMESPACE</tspan></text><text font-family="sans-serif" font-size="41" font-weight="bold" fill="#4A4A4A"><tspan x="470.048" y="71">CLUSTER</tspan></text><g transform="translate(494 803)"><rect fill="#303E5C" x="0" y="0" width="112" height="39" rx="19.5"/><text font-family="sans-serif" font-size="28" font-weight="bold" fill="#FFF"><tspan x="17" y="30">DEER</tspan></text></g><g transform="translate(494 268)"><rect fill="#303E5C" x="0" y="0" width="112" height="39" rx="19.5"/><text font-family="sans-serif" font-size="28" font-weight="bold" fill="#FFF"><tspan x="16" y="30">HARE</tspan></text></g><g transform="translate(494 532)"><rect fill="#303E5C" x="0" y="0" width="89" height="39" rx="19.5"/><text font-family="sans-serif" font-size="28" font-weight="bold" fill="#FFF"><tspan x="15" y="30">FOX</tspan></text></g><path d="M171 351h22l-52 41-52-41h22v-39h60v39z" fill="url(#linearGradient-1)"/></g></svg>