<svg viewBox="0 0 1200 900" xmlns="http://www.w3.org/2000/svg"><g fill="none" fill-rule="evenodd"><path d="M596.87 23.327a58.347 58.347 0 0 0-22.3 5.67L270.265 175.106c-15.955 7.656-27.543 22.137-31.485 39.342l-75.073 328.196a57.834 57.834 0 0 0 7.9 44.466 57.999 57.999 0 0 0 3.309 4.615l210.626 263.16c11.045 13.793 27.79 21.825 45.496 21.821l337.773-.078c17.7.013 34.444-8.004 45.496-21.783l210.549-263.198a57.848 57.848 0 0 0 11.247-49.08l-75.19-328.197c-3.942-17.206-15.53-31.686-31.485-39.343L625.085 28.997a58.357 58.357 0 0 0-28.215-5.67z" opacity=".1" fill="#326CE5" fill-rule="nonzero" stroke="#FFF" stroke-width=".5"/><g fill="#B8E986"><path d="M327 350l-65 36v-72z"/><path d="M0 359v-20h308v20z"/></g><path fill="#53777A" d="M334 236h220v228H334z"/><text font-family="sans-serif" font-size="28" font-weight="bold" fill="#FFF" transform="translate(334 236)"><tspan x="25.2" y="91">API SERVER</tspan></text><path fill="#53777A" d="M762 230h421v234H762z"/><path fill="#F1D4AF" d="M879 240h295v46H879z"/><text font-family="sans-serif" font-size="30" font-weight="bold" fill="#4A4A4A" transform="translate(879 240)"><tspan x="11" y="32">ReplicaSet #1</tspan></text><g transform="translate(661 240)"><ellipse stroke="#53777A" stroke-width="21" fill="#FFF" cx="102.5" cy="106.5" rx="102.5" ry="106.5"/><g fill="#419EDA" fill-rule="nonzero"><path d="M95.991 97.964c0 5.54-4.32 10.021-9.645 10.021-5.328 0-9.637-4.48-9.637-10.021 0-5.517 4.31-10.015 9.637-10.015 5.325 0 9.645 4.498 9.645 10.015zm12.46.002c0 5.54 4.321 10.021 9.646 10.021 5.323 0 9.64-4.48 9.64-10.021 0-5.519-4.317-10.017-9.64-10.017-5.325 0-9.646 4.498-9.646 10.017z"/><path d="M174.201 109.144c-.694.06-1.392.088-2.133.088-4.3 0-8.473-1.047-12.237-2.967a122.139 122.139 0 0 0 1.647-22.492 115.84 115.84 0 0 0-14.01-17.25c2.285-4.45 5.661-8.279 9.876-10.993l1.81-1.163-1.41-1.652c-7.267-8.502-15.939-15.075-25.77-19.535l-1.963-.886-.497 2.153a29.169 29.169 0 0 1-6.988 13.18 109.635 109.635 0 0 0-20.19-8.645 109.729 109.729 0 0 0-20.158 8.626 29.162 29.162 0 0 1-6.963-13.149l-.5-2.153-1.954.883c-9.708 4.395-18.619 11.145-25.766 19.52l-1.415 1.657 1.808 1.162c4.202 2.705 7.57 6.51 9.85 10.936a116.328 116.328 0 0 0-13.985 17.184 122.228 122.228 0 0 0 1.606 22.646c-3.746 1.902-7.895 2.938-12.167 2.938-.75 0-1.451-.029-2.133-.088l-2.124-.168.199 2.204c1.04 11.148 4.372 21.751 9.908 31.518l1.08 1.906 1.622-1.43a27.301 27.301 0 0 1 13.132-6.392 117.827 117.827 0 0 0 11.24 19.021c6.83 2.483 13.948 4.336 21.298 5.438.705 5.051.144 10.275-1.774 15.106l-.809 2.046 2.08.476c5.325 1.217 10.698 1.837 15.958 1.837l15.954-1.837 2.082-.476-.811-2.05c-1.913-4.83-2.474-10.061-1.77-15.113 7.322-1.103 14.413-2.952 21.22-5.427a117.976 117.976 0 0 0 11.25-19.039 27.42 27.42 0 0 1 13.197 6.397l1.622 1.429 1.075-1.902c5.545-9.779 8.876-20.382 9.901-31.512l.2-2.2-2.088.168zm-49.032 26.94c-7.547 2.133-15.212 3.21-22.831 3.21-7.64 0-15.296-1.076-22.85-3.21a93.6 93.6 0 0 1-9.78-21.405c-2.347-7.511-3.722-15.38-4.12-23.483 4.878-6.267 10.426-11.757 16.555-16.379a87.172 87.172 0 0 1 20.195-11.408 87.526 87.526 0 0 1 20.155 11.385c6.153 4.646 11.725 10.178 16.627 16.485-.417 8.056-1.808 15.88-4.16 23.38a93.302 93.302 0 0 1-9.79 21.426z"/></g></g><g transform="translate(554 343)" fill-rule="nonzero"><path fill="#9EEBCF" d="M0 6h96v3H0z"/><circle stroke="#9EEBCF" stroke-width="3" fill="#FFF" cx=".5" cy="7.5" r="6.5"/><path fill="#9EEBCF" d="M98 7.5L90 13V2z"/></g><g><path fill="#53777A" d="M371 552h220v228H371z"/><text font-family="sans-serif" font-size="28" font-weight="bold" fill="#FFF" transform="translate(371 552)"><tspan x="12.786" y="108">CONTROLLER</tspan> <tspan x="37.669" y="139">MANAGER</tspan></text></g><g><path fill="#53777A" d="M614 552h220v228H614z"/><text font-family="sans-serif" font-size="28" font-weight="bold" fill="#FFF" transform="translate(614 552)"><tspan x="22.883" y="108">SCHEDULER</tspan></text></g><g transform="translate(554 415)"><path d="M.011 1.045h84.55c5.522 0 10 4.477 10 10v125.97" stroke="#9EEBCF" stroke-width="3"/><circle stroke="#9EEBCF" stroke-width="3" fill="#FFF" cx=".5" cy=".5" r="6"/><path fill="#9EEBCF" d="M94.5 140l-5.5-8h11z"/></g><g transform="translate(493 464)" fill-rule="nonzero"><path fill="#9EEBCF" d="M7-1v89H4V-1z"/><circle stroke="#9EEBCF" stroke-width="3" fill="#FFF" cx="5.5" cy="-1.5" r="6.5"/><path fill="#9EEBCF" d="M5.5 92L0 84h11z"/></g></g></svg>