<svg viewBox="0 0 1200 750" xmlns="http://www.w3.org/2000/svg"><g fill="none" fill-rule="evenodd"><path d="M401.654 65.01a43.165 43.165 0 0 0-16.713 4.32L156.887 180.618c-11.957 5.832-20.641 16.861-23.596 29.967L77.03 460.565c-2.625 11.637-.49 23.854 5.92 33.87a44.171 44.171 0 0 0 2.48 3.514l157.85 200.444c8.277 10.507 20.826 16.624 34.096 16.622l253.137-.06c13.265.01 25.814-6.096 34.096-16.592L722.4 497.89c8.281-10.512 11.384-24.273 8.429-37.384l-56.35-249.981c-2.954-13.105-11.639-24.135-23.596-29.967L422.8 69.33a43.134 43.134 0 0 0-21.146-4.32z" opacity=".1" fill="#326CE5" fill-rule="nonzero" stroke="#FFF" stroke-width=".5"/><path fill="#53777A" d="M139 340h176v182H139z"/><text font-family="sans-serif" font-size="22.4" font-weight="bold" fill="#FFF" transform="translate(139 340)"><tspan x="10.229" y="72.606">CONTROLLER </tspan> <tspan x="30.135" y="97.606">MANAGER</tspan></text><path fill="#53777A" d="M316 133h176v182H316z"/><text font-family="sans-serif" font-size="22.4" font-weight="bold" fill="#FFF" transform="translate(316 133)"><tspan x="18.306" y="72.606">SCHEDULER</tspan></text><path d="M264.5 584h279v90h-279v-90z" stroke="#9EEBCF" stroke-width="14" fill="#53777A"/><text font-family="sans-serif" font-size="22.4" font-weight="bold" fill="#FFF" transform="translate(271 591)"><tspan x="114.33" y="37">API</tspan> <tspan x="86.942" y="62">SERVER</tspan></text><g fill="#B8E986"><path d="M255 628l-65 36v-72z"/><path d="M0 637.278v-20h236v20z"/></g><path fill="#53777A" d="M470 340h216.72v181.44H470z"/><path fill="#F1D4AF" d="M480.08 348.82h195.3v35.28h-195.3z"/><text font-family="sans-serif" font-size="21.42" font-weight="bold" fill="#4A4A4A" transform="translate(480.08 348.82)"><tspan x="8.82" y="25.3">ReplicaSet #1</tspan></text><g transform="translate(549 280)"><ellipse stroke="#53777A" stroke-width="10.29" fill="#FFF" cx="29.5" cy="30" rx="29.5" ry="30"/><g fill="#419EDA" fill-rule="nonzero"><path d="M27.692 27.767c0 1.56-1.24 2.822-2.77 2.822s-2.768-1.262-2.768-2.822c0-1.554 1.238-2.822 2.768-2.822 1.53 0 2.77 1.268 2.77 2.822zm3.578.001c0 1.56 1.241 2.822 2.77 2.822 1.53 0 2.769-1.262 2.769-2.823 0-1.554-1.24-2.822-2.768-2.822-1.53 0-2.77 1.268-2.77 2.822z"/><path d="M50.154 30.916a7.85 7.85 0 0 1-4.127-.81 33.76 33.76 0 0 0 .472-6.337 32.762 32.762 0 0 0-4.023-4.86 8.092 8.092 0 0 1 2.836-3.096l.52-.327-.405-.466c-2.087-2.395-4.577-4.246-7.401-5.502l-.563-.25-.143.607a8.167 8.167 0 0 1-2.007 3.712 31.817 31.817 0 0 0-5.798-2.435 31.845 31.845 0 0 0-5.79 2.43 8.165 8.165 0 0 1-2-3.704l-.144-.607-.56.249c-2.789 1.238-5.348 3.14-7.4 5.499l-.407.466.52.328a8.076 8.076 0 0 1 2.828 3.08 32.902 32.902 0 0 0-4.016 4.84 33.88 33.88 0 0 0 .46 6.38 7.835 7.835 0 0 1-4.106.803l-.61-.047.057.62a21.75 21.75 0 0 0 2.846 8.879l.31.537.466-.403a7.904 7.904 0 0 1 3.771-1.8 33.056 33.056 0 0 0 3.228 5.357c1.962.7 4.006 1.222 6.117 1.532a8.246 8.246 0 0 1-.51 4.255l-.232.577.597.134c1.53.342 3.073.517 4.584.517l4.581-.517.598-.134-.232-.578a8.269 8.269 0 0 1-.509-4.257 32.11 32.11 0 0 0 6.094-1.529 33.098 33.098 0 0 0 3.232-5.363 7.939 7.939 0 0 1 3.79 1.802l.465.403.31-.536a21.669 21.669 0 0 0 2.843-8.877l.057-.62-.6.048zm-14.082 7.589c-2.168.6-4.37.904-6.557.904-2.195 0-4.393-.303-6.563-.904a26.128 26.128 0 0 1-2.808-6.03 26.04 26.04 0 0 1-1.184-6.615 25.208 25.208 0 0 1 4.755-4.613 25.172 25.172 0 0 1 5.8-3.214 25.274 25.274 0 0 1 5.788 3.207 25.356 25.356 0 0 1 4.775 4.643 26.095 26.095 0 0 1-4.006 12.622z"/></g></g><g transform="matrix(1 0 0 -1 549 678)" fill-rule="nonzero"><path fill="#9EEBCF" d="M0 11.5h295v3H0z"/><circle stroke="#9EEBCF" stroke-width="3" fill="#FFF" cx=".5" cy="13" r="6.5"/><path fill="#9EEBCF" d="M297 13l-8 5.5v-11z"/></g><g transform="translate(846 140)"><path d="M260 7v439.6a7 7 0 0 1-7 7H7a7 7 0 0 1-7-7V7a7 7 0 0 1 7-7h246a7 7 0 0 1 7 7z" fill="#D2D2D2"/><path fill="#A3A3A3" d="M9.8 8.4h5.6V14H9.8zm0 8.4h5.6v5.6H9.8zm0 8.4h5.6v5.6H9.8zm8.4-16.8h5.6V14h-5.6zm0 8.4h5.6v5.6h-5.6zm0 8.4h5.6v5.6h-5.6zm8.4-16.8h5.6V14h-5.6zm0 8.4h5.6v5.6h-5.6zm0 8.4h5.6v5.6h-5.6zM35 8.4h5.6V14H35zm0 8.4h5.6v5.6H35zm0 8.4h5.6v5.6H35zm8.4-16.8H49V14h-5.6zm0 8.4H49v5.6h-5.6zm0 8.4H49v5.6h-5.6zm8.4-16.8h5.6V14h-5.6zm0 8.4h5.6v5.6h-5.6zm0 8.4h5.6v5.6h-5.6zm8.4-16.8h5.6V14h-5.6zm0 8.4h5.6v5.6h-5.6zm0 8.4h5.6v5.6h-5.6zm8.4-16.8h5.6V14h-5.6zm0 8.4h5.6v5.6h-5.6zm0 8.4h5.6v5.6h-5.6zM77 8.4h5.6V14H77zm0 8.4h5.6v5.6H77zm0 8.4h5.6v5.6H77zm8.4-16.8H91V14h-5.6zm0 8.4H91v5.6h-5.6zm0 8.4H91v5.6h-5.6zm8.4-16.8h5.6V14h-5.6zm0 8.4h5.6v5.6h-5.6zm0 8.4h5.6v5.6h-5.6zm8.4-16.8h5.6V14h-5.6zm0 8.4h5.6v5.6h-5.6zm0 8.4h5.6v5.6h-5.6zm8.4-16.8h5.6V14h-5.6zm0 8.4h5.6v5.6h-5.6zm0 8.4h5.6v5.6h-5.6zM119 8.4h5.6V14H119zm0 8.4h5.6v5.6H119zm0 8.4h5.6v5.6H119zm8.4-16.8h5.6V14h-5.6zm0 8.4h5.6v5.6h-5.6zm0 8.4h5.6v5.6h-5.6zm8.4-16.8h5.6V14h-5.6zm0 8.4h5.6v5.6h-5.6zm0 8.4h5.6v5.6h-5.6zm8.4-16.8h5.6V14h-5.6zm0 8.4h5.6v5.6h-5.6zm0 8.4h5.6v5.6h-5.6zm8.4-16.8h5.6V14h-5.6zm0 8.4h5.6v5.6h-5.6zm0 8.4h5.6v5.6h-5.6zM161 8.4h5.6V14H161zm0 8.4h5.6v5.6H161zm0 8.4h5.6v5.6H161zm8.4-16.8h5.6V14h-5.6zm0 8.4h5.6v5.6h-5.6zm0 8.4h5.6v5.6h-5.6zm8.4-16.8h5.6V14h-5.6zm0 8.4h5.6v5.6h-5.6zm0 8.4h5.6v5.6h-5.6zm8.4-16.8h5.6V14h-5.6zm0 8.4h5.6v5.6h-5.6zm0 8.4h5.6v5.6h-5.6zm8.4-16.8h5.6V14h-5.6zm0 8.4h5.6v5.6h-5.6zm0 8.4h5.6v5.6h-5.6zM203 8.4h5.6V14H203zm0 8.4h5.6v5.6H203zm0 8.4h5.6v5.6H203zm8.4-16.8h5.6V14h-5.6zm0 8.4h5.6v5.6h-5.6zm0 8.4h5.6v5.6h-5.6zm8.4-16.8h5.6V14h-5.6zm0 8.4h5.6v5.6h-5.6zm0 8.4h5.6v5.6h-5.6zm8.4-16.8h5.6V14h-5.6zm0 8.4h5.6v5.6h-5.6zm0 8.4h5.6v5.6h-5.6zm8.4-16.8h5.6V14h-5.6zm0 8.4h5.6v5.6h-5.6zm0 8.4h5.6v5.6h-5.6zM245 8.4h5.6V14H245zm0 8.4h5.6v5.6H245zm0 8.4h5.6v5.6H245zM9.8 438.2h5.6v5.6H9.8zm8.4 0h5.6v5.6h-5.6zm8.4 0h5.6v5.6h-5.6zm8.4 0h5.6v5.6H35zm8.4 0H49v5.6h-5.6zm8.4 0h5.6v5.6h-5.6zm8.4 0h5.6v5.6h-5.6zm8.4 0h5.6v5.6h-5.6zm8.4 0h5.6v5.6H77zm8.4 0H91v5.6h-5.6zm8.4 0h5.6v5.6h-5.6zm8.4 0h5.6v5.6h-5.6zm8.4 0h5.6v5.6h-5.6zm8.4 0h5.6v5.6H119zm8.4 0h5.6v5.6h-5.6zm8.4 0h5.6v5.6h-5.6zm8.4 0h5.6v5.6h-5.6zm8.4 0h5.6v5.6h-5.6zm8.4 0h5.6v5.6H161zm8.4 0h5.6v5.6h-5.6zm8.4 0h5.6v5.6h-5.6zm8.4 0h5.6v5.6h-5.6zm8.4 0h5.6v5.6h-5.6zm8.4 0h5.6v5.6H203zm8.4 0h5.6v5.6h-5.6zm8.4 0h5.6v5.6h-5.6zm8.4 0h5.6v5.6h-5.6zm8.4 0h5.6v5.6h-5.6zm8.4 0h5.6v5.6H245z"/><rect fill="#FFF" x="9.785" y="40.636" width="240.43" height="389.543" rx="2.8"/></g><path d="M1106 605v26.6a7 7 0 0 1-7 7H853a7 7 0 0 1-7-7V605a7 7 0 0 1 7-7h246a7 7 0 0 1 7 7z" fill="#D2D2D2"/><path fill="#A3A3A3" d="M889.4 606.4h5.6v5.6h-5.6zm0 8.4h5.6v5.6h-5.6zm0 8.4h5.6v5.6h-5.6zm8.4-16.8h5.6v5.6h-5.6zm0 8.4h5.6v5.6h-5.6zm0 8.4h5.6v5.6h-5.6zm8.4-16.8h5.6v5.6h-5.6zm0 8.4h5.6v5.6h-5.6zm0 8.4h5.6v5.6h-5.6zm8.4-16.8h5.6v5.6h-5.6zm0 8.4h5.6v5.6h-5.6zm0 8.4h5.6v5.6h-5.6zm8.4-16.8h5.6v5.6H923zm0 8.4h5.6v5.6H923zm0 8.4h5.6v5.6H923zm8.4-16.8h5.6v5.6h-5.6zm0 8.4h5.6v5.6h-5.6zm0 8.4h5.6v5.6h-5.6zm8.4-16.8h5.6v5.6h-5.6zm0 8.4h5.6v5.6h-5.6zm0 8.4h5.6v5.6h-5.6zm8.4-16.8h5.6v5.6h-5.6zm0 8.4h5.6v5.6h-5.6zm0 8.4h5.6v5.6h-5.6zm8.4-16.8h5.6v5.6h-5.6zm0 8.4h5.6v5.6h-5.6zm0 8.4h5.6v5.6h-5.6zm8.4-16.8h5.6v5.6H965zm0 8.4h5.6v5.6H965zm0 8.4h5.6v5.6H965zm8.4-16.8h5.6v5.6h-5.6zm0 8.4h5.6v5.6h-5.6zm0 8.4h5.6v5.6h-5.6zm8.4-16.8h5.6v5.6h-5.6zm0 8.4h5.6v5.6h-5.6zm0 8.4h5.6v5.6h-5.6zm8.4-16.8h5.6v5.6h-5.6zm0 8.4h5.6v5.6h-5.6zm0 8.4h5.6v5.6h-5.6zm8.4-16.8h5.6v5.6h-5.6zm0 8.4h5.6v5.6h-5.6zm0 8.4h5.6v5.6h-5.6zm8.4-16.8h5.6v5.6h-5.6zm0 8.4h5.6v5.6h-5.6zm0 8.4h5.6v5.6h-5.6zm8.4-16.8h5.6v5.6h-5.6zm0 8.4h5.6v5.6h-5.6zm0 8.4h5.6v5.6h-5.6zm8.4-16.8h5.6v5.6h-5.6zm0 8.4h5.6v5.6h-5.6zm0 8.4h5.6v5.6h-5.6zm8.4-16.8h5.6v5.6h-5.6zm0 8.4h5.6v5.6h-5.6zm0 8.4h5.6v5.6h-5.6zm8.4-16.8h5.6v5.6h-5.6zm0 8.4h5.6v5.6h-5.6zm0 8.4h5.6v5.6h-5.6zm8.4-16.8h5.6v5.6h-5.6zm0 8.4h5.6v5.6h-5.6zm0 8.4h5.6v5.6h-5.6zm8.4-16.8h5.6v5.6h-5.6zm0 8.4h5.6v5.6h-5.6zm0 8.4h5.6v5.6h-5.6zm8.4-16.8h5.6v5.6h-5.6zm0 8.4h5.6v5.6h-5.6zm0 8.4h5.6v5.6h-5.6zm8.4-16.8h5.6v5.6h-5.6zm0 8.4h5.6v5.6h-5.6zm0 8.4h5.6v5.6h-5.6zm8.4-16.8h5.6v5.6h-5.6zm0 8.4h5.6v5.6h-5.6zm0 8.4h5.6v5.6h-5.6zm8.4-16.8h5.6v5.6h-5.6zm0 8.4h5.6v5.6h-5.6zm0 8.4h5.6v5.6h-5.6z"/><path d="M1106 650v26.6a7 7 0 0 1-7 7H853a7 7 0 0 1-7-7V650a7 7 0 0 1 7-7h246a7 7 0 0 1 7 7z" fill="#326CE5"/><path fill="#FFF" d="M889.4 651.4h5.6v5.6h-5.6zm0 8.4h5.6v5.6h-5.6zm0 8.4h5.6v5.6h-5.6zm8.4-16.8h5.6v5.6h-5.6zm0 8.4h5.6v5.6h-5.6zm0 8.4h5.6v5.6h-5.6zm8.4-16.8h5.6v5.6h-5.6zm0 8.4h5.6v5.6h-5.6zm0 8.4h5.6v5.6h-5.6zm8.4-16.8h5.6v5.6h-5.6zm0 8.4h5.6v5.6h-5.6zm0 8.4h5.6v5.6h-5.6zm8.4-16.8h5.6v5.6H923zm0 8.4h5.6v5.6H923zm0 8.4h5.6v5.6H923zm8.4-16.8h5.6v5.6h-5.6zm0 8.4h5.6v5.6h-5.6zm0 8.4h5.6v5.6h-5.6zm8.4-16.8h5.6v5.6h-5.6zm0 8.4h5.6v5.6h-5.6zm0 8.4h5.6v5.6h-5.6zm8.4-16.8h5.6v5.6h-5.6zm0 8.4h5.6v5.6h-5.6zm0 8.4h5.6v5.6h-5.6zm8.4-16.8h5.6v5.6h-5.6zm0 8.4h5.6v5.6h-5.6zm0 8.4h5.6v5.6h-5.6zm8.4-16.8h5.6v5.6H965zm0 8.4h5.6v5.6H965zm0 8.4h5.6v5.6H965zm8.4-16.8h5.6v5.6h-5.6zm0 8.4h5.6v5.6h-5.6zm0 8.4h5.6v5.6h-5.6zm8.4-16.8h5.6v5.6h-5.6zm0 8.4h5.6v5.6h-5.6zm0 8.4h5.6v5.6h-5.6zm8.4-16.8h5.6v5.6h-5.6zm0 8.4h5.6v5.6h-5.6zm0 8.4h5.6v5.6h-5.6zm8.4-16.8h5.6v5.6h-5.6zm0 8.4h5.6v5.6h-5.6zm0 8.4h5.6v5.6h-5.6zm8.4-16.8h5.6v5.6h-5.6zm0 8.4h5.6v5.6h-5.6zm0 8.4h5.6v5.6h-5.6zm8.4-16.8h5.6v5.6h-5.6zm0 8.4h5.6v5.6h-5.6zm0 8.4h5.6v5.6h-5.6zm8.4-16.8h5.6v5.6h-5.6zm0 8.4h5.6v5.6h-5.6zm0 8.4h5.6v5.6h-5.6zm8.4-16.8h5.6v5.6h-5.6zm0 8.4h5.6v5.6h-5.6zm0 8.4h5.6v5.6h-5.6zm8.4-16.8h5.6v5.6h-5.6zm0 8.4h5.6v5.6h-5.6zm0 8.4h5.6v5.6h-5.6zm8.4-16.8h5.6v5.6h-5.6zm0 8.4h5.6v5.6h-5.6zm0 8.4h5.6v5.6h-5.6zm8.4-16.8h5.6v5.6h-5.6zm0 8.4h5.6v5.6h-5.6zm0 8.4h5.6v5.6h-5.6zm8.4-16.8h5.6v5.6h-5.6zm0 8.4h5.6v5.6h-5.6zm0 8.4h5.6v5.6h-5.6zm8.4-16.8h5.6v5.6h-5.6zm0 8.4h5.6v5.6h-5.6zm0 8.4h5.6v5.6h-5.6zm8.4-16.8h5.6v5.6h-5.6zm0 8.4h5.6v5.6h-5.6zm0 8.4h5.6v5.6h-5.6zm8.4-16.8h5.6v5.6h-5.6zm0 8.4h5.6v5.6h-5.6zm0 8.4h5.6v5.6h-5.6z"/><path d="M871.099 616.108h3.304v-2.973H871.1v2.973zm-3.905 0h3.304v-2.973h-3.304v2.973zm-3.905 0h3.304v-2.973h-3.303v2.973zm-3.905 0h3.305v-2.973h-3.305v2.973zm-3.904 0h3.304v-2.973h-3.304v2.973zm3.904-3.568h3.305v-2.972h-3.305v2.972zm3.905 0h3.304v-2.972h-3.303v2.972zm3.905 0h3.304v-2.972h-3.304v2.972zm0-3.567h3.304V606h-3.304v2.973zm17.139 5.402c-.722-.478-2.38-.653-3.656-.415-.164-1.19-.834-2.221-2.052-3.153l-.7-.463-.468.694c-.598.893-.897 2.13-.8 3.317.045.418.183 1.164.617 1.82-.433.231-1.29.549-2.42.528h-21.73l-.043.247c-.204 1.193-.2 4.914 2.24 7.774 1.857 2.174 4.639 3.276 8.269 3.276 7.87 0 13.693-3.586 16.42-10.104 1.073.02 3.381.006 4.567-2.237.031-.051.102-.186.31-.61l.113-.234-.667-.44z" fill="#A3A3A3"/><g fill-rule="nonzero" stroke="#FFF" stroke-width=".7"><path d="M868.813 650.039a1.72 1.72 0 0 0-.655.166l-8.946 4.283c-.469.225-.81.65-.925 1.154l-2.207 9.621a1.692 1.692 0 0 0 .33 1.439l6.19 7.715c.325.404.817.64 1.337.64l9.93-.003a1.72 1.72 0 0 0 1.338-.638l6.19-7.716c.324-.405.446-.935.33-1.44l-2.21-9.62a1.702 1.702 0 0 0-.926-1.154l-8.946-4.28a1.72 1.72 0 0 0-.83-.167z" fill="#326CE5"/><path d="M868.902 653.313c.296 0 .535.267.536.596 0 .047.002.11 0 .153-.006.19-.048.335-.073.51-.045.374-.083.685-.06.973.02.145.105.202.175.269l.012.24a7.012 7.012 0 0 1 4.445 2.151l.204-.145c.069.004.221.025.325-.036.24-.162.458-.386.722-.655.12-.128.21-.25.353-.374.033-.029.083-.067.12-.096.256-.205.613-.183.798.049.184.231.125.585-.132.79-.036.03-.083.07-.118.096-.152.113-.293.17-.445.26-.32.198-.585.363-.796.56-.1.107-.092.208-.1.304-.03.028-.135.12-.19.171a6.975 6.975 0 0 1 1.115 4.829l.216.063c.04.055.119.19.231.233.276.087.586.119.96.158.176.015.328.006.514.042.045.008.11.026.156.036.315.077.518.367.453.654-.066.286-.374.46-.691.392l-.008-.001-.01-.004c-.045-.01-.1-.02-.14-.03-.182-.049-.315-.122-.48-.185-.354-.128-.647-.234-.933-.275-.145-.012-.22.058-.3.11l-.229-.04a6.98 6.98 0 0 1-3.087 3.892c.026.062.07.193.09.217-.034.09-.085.177-.042.316.104.27.272.534.475.852.098.147.199.26.287.427.022.04.05.102.07.145.138.295.037.635-.228.762-.266.129-.597-.007-.74-.303-.02-.043-.049-.098-.066-.138-.076-.174-.102-.323-.156-.492-.121-.357-.221-.652-.367-.902-.082-.121-.182-.137-.273-.166l-.115-.207a6.905 6.905 0 0 1-4.941-.013l-.121.22c-.09.025-.178.05-.231.113-.195.233-.273.608-.415.964-.053.169-.078.318-.154.492-.017.04-.046.095-.067.137 0 0 0 0 0 0v.002c-.144.295-.474.43-.74.302-.264-.127-.365-.467-.227-.762.02-.042.047-.104.068-.144.089-.168.19-.282.287-.43.203-.317.381-.602.485-.872.026-.09-.013-.213-.048-.303l.098-.234a6.98 6.98 0 0 1-3.088-3.864l-.234.04c-.062-.035-.188-.118-.307-.109-.286.042-.58.148-.934.275-.165.064-.297.136-.48.185-.04.01-.095.021-.139.03-.004.002-.007.004-.01.004l-.008.001c-.318.07-.626-.105-.691-.392-.066-.286.137-.577.453-.653l.008-.002.004-.002c.045-.01.102-.025.143-.033.187-.035.338-.026.514-.041.374-.04.684-.071.96-.158.087-.036.17-.157.23-.233l.224-.065a6.955 6.955 0 0 1 1.093-4.84l-.172-.154c-.01-.067-.025-.222-.107-.31-.211-.198-.476-.362-.797-.56-.152-.09-.291-.148-.444-.26l-.11-.09-.009-.006c-.256-.205-.315-.56-.131-.791a.515.515 0 0 1 .427-.19c.128.005.26.052.373.142.036.029.086.067.119.095.143.124.23.246.352.375.264.269.482.492.722.653.126.074.222.044.318.031.03.023.134.097.193.138a6.884 6.884 0 0 1 4.467-2.152l.012-.227a.586.586 0 0 0 .174-.278c.024-.288-.014-.599-.06-.973-.024-.175-.065-.32-.072-.51-.002-.04 0-.093 0-.138v-.014c0-.329.24-.596.535-.596zm-.67 4.162a5.512 5.512 0 0 0-3.228 1.549l2.303 1.636.005-.002a.472.472 0 0 0 .75-.362l.01-.006.16-2.815zm1.342 0l.159 2.81.002.001a.472.472 0 0 0 .75.361l.009.004 2.288-1.626a5.558 5.558 0 0 0-3.208-1.55zm-5.405 2.6a5.535 5.535 0 0 0-.783 3.498l2.696-.78.002-.009a.472.472 0 0 0 .185-.813l.003-.011-2.103-1.885zm9.451.001l-2.091 1.876.001.006a.473.473 0 0 0 .185.813l.003.011 2.709.782a5.597 5.597 0 0 0-.117-1.799 5.602 5.602 0 0 0-.69-1.689zm-5.15 2.03l-.536.67.192.836.776.374.773-.373.193-.837-.536-.67h-.861zm2.763 2.295a.474.474 0 0 0-.41.66l-.003.005 1.082 2.62a5.531 5.531 0 0 0 2.232-2.81l-2.788-.473-.005.006a.469.469 0 0 0-.108-.008zm-4.683.011a.477.477 0 0 0-.093.008l-.004-.005-2.765.47a5.554 5.554 0 0 0 2.226 2.79l1.07-2.593-.007-.01a.472.472 0 0 0-.427-.66zm2.335 1.136a.473.473 0 0 0-.4.25h-.002l-1.359 2.463a5.526 5.526 0 0 0 3.566.004l-1.362-2.468h-.01a.47.47 0 0 0-.433-.249z" fill="#FFF"/></g><text fill="#4A4A4A" font-family="sans-serif" font-size="26" font-weight="bold"><tspan x="307.941" y="45">MASTER NODE</tspan></text><g transform="matrix(1 0 0 -1 400 578)" fill-rule="nonzero"><path fill="#9EEBCF" d="M5.5-1v264h-3V-1z"/><circle stroke="#9EEBCF" stroke-width="3" fill="#FFF" cx="4" cy="-1.5" r="6.5"/><path fill="#9EEBCF" d="M4 267l-5.5-8h11z"/></g><g transform="matrix(1 0 0 -1 268 576)" fill-rule="nonzero"><path fill="#9EEBCF" d="M5.5-1v55h-3V-1z"/><circle stroke="#9EEBCF" stroke-width="3" fill="#FFF" cx="4" cy="-1.5" r="6.5"/><path fill="#9EEBCF" d="M4 58l-5.5-8h11z"/></g><g transform="matrix(1 0 0 -1 533 578)" fill-rule="nonzero"><path fill="#9EEBCF" d="M5.5-1v57h-3V-1z"/><circle stroke="#9EEBCF" stroke-width="3" fill="#FFF" cx="4" cy="-1.5" r="6.5"/><path fill="#9EEBCF" d="M4 60l-5.5-8h11z"/></g><text fill="#4A4A4A" font-family="sans-serif" font-size="26" font-weight="bold"><tspan x="875.612" y="120">WORKER NODE</tspan></text><text fill="#4A4A4A" font-family="sans-serif" font-size="26" font-weight="bold"><tspan x="916.612" y="728">KUBELET</tspan></text></g></svg>