<?xml version="1.0" encoding="UTF-8"?>
<svg width="1200px" height="900px" viewBox="0 0 1200 900" version="1.1" xmlns="http://www.w3.org/2000/svg" xmlns:xlink="http://www.w3.org/1999/xlink">
    <!-- Generator: Sketch 52.6 (67491) - http://www.bohemiancoding.com/sketch -->
    <title>schedule-pods-2</title>
    <desc>Created with Sketch.</desc>
    <g id="schedule-pods-2" stroke="none" stroke-width="1" fill="none" fill-rule="evenodd">
        <g id="Kubernetes-background" opacity="0.100000001" transform="translate(161.000000, 22.000000)" fill="#326CE5" fill-rule="nonzero" stroke="#FFFFFF" stroke-width="0.5">
            <path d="M435.869595,1.32667485 C428.131508,1.71838151 420.549826,3.64631136 413.569329,6.99736199 L109.266049,153.105549 C93.3114261,160.76216 81.723056,175.242677 77.7810309,192.448385 L2.7073607,520.644292 C-0.795001289,535.921372 2.05478906,551.960827 10.607804,565.110301 C11.6343205,566.701404 12.7383294,568.241501 13.9158713,569.725067 L224.542467,832.884058 C235.586536,846.678057 252.331448,854.709893 270.038123,854.706426 L607.811261,854.62821 C625.511314,854.641173 642.255046,846.624296 653.306917,832.84495 L863.855676,569.64685 C874.905654,555.845938 879.04573,537.77975 875.103105,520.566075 L799.91268,192.370169 C795.970655,175.164461 784.382285,160.683944 768.427662,153.027333 L464.085464,6.99736199 C455.30505,2.7820061 445.602952,0.832126125 435.869595,1.32667485 Z" id="path3055"></path>
        </g>
        <g id="Group-3" transform="translate(334.000000, 236.000000)">
            <polygon id="Rectangle" fill="#53777A" points="0 0 220 0 220 228 0 228"></polygon>
            <text id="API-SERVER" font-family="Arial-BoldMT, Arial" font-size="28" font-weight="bold" fill="#FFFFFF">
                <tspan x="25.2001953" y="91">API SERVER</tspan>
            </text>
        </g>
        <g id="Group-5" transform="translate(661.000000, 230.000000)">
            <rect id="Rectangle-4" fill="#53777A" x="101" y="0" width="421" height="234"></rect>
            <g id="Group-2" transform="translate(0.000000, 10.000000)">
                <ellipse id="Oval" stroke="#53777A" stroke-width="21" fill="#FFFFFF" cx="102.5" cy="106.5" rx="102.5" ry="106.5"></ellipse>
                <g id="Group" transform="translate(28.435484, 32.293548)" fill="#419EDA" fill-rule="nonzero">
                    <path d="M67.5560968,65.6699613 C67.5560968,71.2100226 63.2358871,75.6912677 57.9111774,75.6912677 C52.5825,75.6912677 48.2741935,71.2107097 48.2741935,65.6699613 C48.2741935,60.1532613 52.5831613,55.6548387 57.9111774,55.6548387 C63.2358871,55.6548387 67.5560968,60.1532613 67.5560968,65.6699613 Z" id="Shape"></path>
                    <path d="M80.016129,65.6720226 C80.016129,71.2120839 84.337,75.693329 89.6617097,75.693329 C94.9850968,75.693329 99.3013387,71.212771 99.3013387,65.6720226 C99.3013387,60.1532613 94.9850968,55.6548387 89.6617097,55.6548387 C84.337,55.6548387 80.016129,60.1532613 80.016129,65.6720226 Z" id="Shape"></path>
                    <path d="M145.766242,76.8497129 C145.071887,76.9101774 144.374226,76.9383484 143.632919,76.9383484 C139.332548,76.9383484 135.160468,75.8905258 131.396403,73.9714645 C132.649548,66.5020355 133.182548,58.9769516 133.043016,51.4793516 C128.962194,45.3463258 124.298113,39.5595968 119.033581,34.2284129 C121.317677,29.7787742 124.694226,25.950271 128.90929,23.2355516 L130.719242,22.0729839 L129.30871,20.4205161 C122.042452,11.9190677 113.37029,5.3463 103.538226,0.886354839 L101.5775,0 L101.079548,2.15336129 C99.9070806,7.17191613 97.4563387,11.6991968 94.0916935,15.3325645 C87.6249355,11.7610355 80.8691935,8.87454194 73.9025,6.6882 C66.9523387,8.86973226 60.2085,11.7479806 53.7443871,15.3140129 C50.393629,11.6854548 47.9488387,7.16916774 46.781,2.16504194 L46.2797419,0.0123677419 L44.3262903,0.8946 C34.6178871,5.28995806 25.707,12.0406839 18.5597742,20.4157065 L17.1452742,22.0716097 L18.9532419,23.2341774 C23.1550806,25.9385903 26.522371,29.7444194 28.8025,34.1700097 C23.5538387,39.4805806 18.8950484,45.2487581 14.8175323,51.3536129 C14.6588226,58.8477774 15.1647097,66.427829 16.4238065,74.0003226 C12.6782581,75.9015194 8.52932258,76.9376613 4.2573871,76.9376613 C3.50748387,76.9376613 2.80585484,76.9094903 2.12406452,76.8504 L0,76.6820613 L0.199048387,78.8855806 C1.23991935,90.0337258 4.5715,100.637003 10.1065,110.404084 L11.1870484,112.31009 L12.8091935,110.879555 C16.568629,107.566374 21.1110323,105.372474 25.9410968,104.488181 C29.1252097,111.252648 32.8991935,117.608294 37.1803871,123.509081 C44.0115161,125.991561 51.1289839,127.844661 58.4792258,128.947452 C59.1841613,133.9983 58.6227258,139.222297 56.7049839,144.052587 L55.8962258,146.099448 L57.9759839,146.574919 C63.3013548,147.791768 68.6736774,148.411529 73.9342419,148.411529 L89.887871,146.574919 L91.9696129,146.099448 L91.158871,144.048465 C89.2464194,139.218174 88.6849839,133.987994 89.3899194,128.936458 C96.7110645,127.832981 103.802081,125.984003 110.608081,123.509081 C114.893242,117.603484 118.670532,111.243716 121.859935,104.470316 C126.70521,105.349113 131.273403,107.544387 135.055984,110.867187 L136.678129,112.295661 L137.753387,110.394465 C143.298306,100.615016 146.629226,90.0124258 147.654226,78.8821452 L147.853274,76.6827484 L145.766242,76.8497129 Z M96.7342097,103.791465 C89.1869032,105.924213 81.5218871,107.000894 73.9025,107.000894 C66.2626129,107.000894 58.6068548,105.9249 51.0529355,103.791465 C46.908629,97.1005161 43.6319355,89.9327226 41.2737742,82.3863387 C38.9255323,74.8749968 37.551371,67.0056774 37.1526129,58.9027452 C42.0309516,52.6357355 47.5785161,47.1458323 53.7080161,42.5244194 C59.9367097,37.8171194 66.7129516,33.9927387 73.9025,31.1158645 C81.0801452,33.9934258 87.8438226,37.8123097 94.0579677,42.4996839 C100.211274,47.1458323 105.783306,52.6783355 110.685452,58.9845097 C110.267516,67.0414065 108.876823,74.8653774 106.524613,82.3643516 C104.172403,89.9093613 100.885129,97.099829 96.7342097,103.791465 Z" id="Shape"></path>
                </g>
            </g>
            <g id="Group-6" transform="translate(218.000000, 10.000000)">
                <rect id="Rectangle-3" fill="#F1D4AF" x="0" y="0" width="295" height="46"></rect>
                <text id="ReplicaSet-#1" font-family="Arial-BoldMT, Arial" font-size="30" font-weight="bold" fill="#4A4A4A">
                    <tspan x="11" y="32">ReplicaSet #1</tspan>
                </text>
            </g>
        </g>
        <g id="right-arrow" transform="translate(554.000000, 343.000000)" fill-rule="nonzero">
            <polygon id="Line" fill="#9EEBCF" points="0 6 94.0290651 6 96 6 96 9 0 9"></polygon>
            <circle id="Base" stroke="#9EEBCF" stroke-width="3" fill="#FFFFFF" cx="0.5" cy="7.5" r="6.5"></circle>
            <polygon id="Tip" fill="#9EEBCF" points="98 7.5 90 13 90 2"></polygon>
        </g>
        <g id="Group-3" transform="translate(371.000000, 552.000000)">
            <polygon id="Rectangle" fill="#53777A" points="0 0 220 0 220 228 0 228"></polygon>
            <text id="CONTROLLER-MANAGER" font-family="Arial-BoldMT, Arial" font-size="28" font-weight="bold" fill="#FFFFFF">
                <tspan x="12.7861328" y="108">CONTROLLER</tspan>
                <tspan x="37.6689453" y="139">MANAGER</tspan>
            </text>
        </g>
        <g id="Group" transform="translate(508.000000, 454.000000)" fill-rule="nonzero">
            <path d="M82,96 L2,96 L2,90.1195219 C2,86.7250996 4.82003711,84 8.3327149,84 L75.6178108,84 C79.1304886,84 81.9505257,86.7250996 81.9505257,90.1195219 L81.9505257,96 L82,96 Z" id="Shape" fill="#99ADD5"></path>
            <path d="M83,98 L0,98 L0,90.6221498 C0,86.4201954 3.47488038,83 7.74401914,83 L75.2559809,83 C79.5251196,83 83,86.4201954 83,90.6221498 L83,98 Z M2.73026316,95.2638436 L80.2200957,95.2638436 L80.2200957,90.5732899 C80.2200957,87.8859935 77.986244,85.6872964 75.2559809,85.6872964 L7.74401914,85.6872964 C5.01375598,85.6872964 2.77990431,87.8859935 2.77990431,90.5732899 L2.77990431,95.2638436 L2.73026316,95.2638436 Z" id="Shape" fill="#34485D"></path>
            <polygon id="Rectangle-path" fill="#B9C8E6" points="15 76 69 76 69 84 15 84"></polygon>
            <path d="M71,85 L14,85 L14,75.7035398 C14,74.7300885 14.801406,74 15.7530756,74 L69.1968366,74 C70.198594,74 70.9499121,74.7787611 70.9499121,75.7035398 L70.9499121,85 L71,85 Z M16.8049209,82.3230088 L68.1950791,82.3230088 L68.1950791,76.7743363 L16.8049209,76.7743363 L16.8049209,82.3230088 Z" id="Shape" fill="#34485D"></path>
            <path d="M41.9753846,12 C28.7323077,12 18,22.7633229 18,36.0446708 L18,75 L66,75 L66,36.0446708 C65.9507692,22.7633229 55.2184615,12 41.9753846,12 Z" id="Shape" fill="#EE6F79"></path>
            <path d="M67,77 L16,77 L16,36.518018 C16,22.4459459 27.4378641,11 41.5,11 C55.5621359,11 67,22.4459459 67,36.518018 L67,77 Z M18.7728155,74.2252252 L64.276699,74.2252252 L64.276699,36.518018 C64.276699,23.981982 54.076699,13.7747748 41.5495146,13.7747748 C29.0223301,13.7747748 18.8223301,23.981982 18.8223301,36.518018 L18.8223301,74.2252252 L18.7728155,74.2252252 Z" id="Shape" fill="#34485D"></path>
            <circle id="Oval" fill="#D95559" cx="42.5" cy="51.5" r="16.5"></circle>
            <path d="M61.756833,41 C61.756833,41 61.7064325,41 61.7064325,41 C61.0512258,40.949355 60.4968201,40.3922603 60.5472206,39.7338756 C60.8496237,33.2006738 58.6320011,27.5790815 53.9447532,23.1223236 C50.4167172,19.7797553 46.7878802,18.3616959 46.7878802,18.3616959 C46.183074,18.1084711 45.8302704,17.3994414 46.082273,16.7917017 C46.3342756,16.183962 47.0398828,15.8294472 47.6446889,16.0826721 C47.7958905,16.133317 51.7775311,17.6526663 55.6079702,21.3497495 C59.1864067,24.7429629 63.42005,30.7697149 62.9664453,39.8351656 C62.9160448,40.4935502 62.4120397,41 61.756833,41 Z" id="Shape" fill="#34485D"></path>
            <path d="M31.9059483,10 C31.3646839,10 30.8685249,9.56746525 30.8234196,8.99075225 L30.011523,1.30124559 C29.9213123,0.67647317 30.3723659,0.0997601703 30.9587356,0.00364133703 C31.5451054,-0.0444180796 32.0863697,0.38811667 32.1765804,1.01288909 L32.988477,8.70239575 C33.0786877,9.32716817 32.6276341,9.90388117 32.0412644,10 C31.996159,10 31.9510536,10 31.9059483,10 Z" id="Shape" fill="#34485D"></path>
            <path d="M19.7903559,20 C19.5848299,20 19.4306854,19.9471867 19.2251593,19.8415601 L10.695829,15.4052439 C10.0792509,15.0883642 9.82234334,14.2961649 10.1306324,13.7152187 C10.4389214,13.0814593 11.2096441,12.8173928 11.7748407,13.1342725 L20.304171,17.5705887 C20.9207491,17.8874685 21.1776567,18.6796678 20.8693676,19.260614 C20.7152231,19.7359336 20.2527895,20 19.7903559,20 Z" id="Shape" fill="#34485D"></path>
            <path d="M24.7347843,14 C24.3219867,14 23.9607888,13.7985088 23.7027902,13.496272 L18.2332216,5.9403515 C17.8204239,5.38625066 17.975223,4.63065862 18.5428198,4.22767619 C19.1104165,3.82469377 19.8844121,3.97581218 20.2972098,4.52991301 L25.7667784,12.0858335 C26.1795761,12.6399343 26.024777,13.3955264 25.4571802,13.7985088 C25.2507814,13.8992544 24.9927829,14 24.7347843,14 Z" id="Shape" fill="#34485D"></path>
            <path d="M74.7930713,93 L46.2037605,93 C45.5517235,93 45,92.5416667 45,92 C45,91.4583333 45.5517235,91 46.2037605,91 L74.7930713,91 C75.4451082,91 75.9968318,91.4583333 75.9968318,92 C76.0469884,92.5416667 75.4952649,93 74.7930713,93 Z" id="Shape" fill="#34485D"></path>
        </g>
        <g id="Group-3" transform="translate(614.000000, 552.000000)">
            <polygon id="Rectangle" fill="#53777A" points="0 0 220 0 220 228 0 228"></polygon>
            <text id="SCHEDULER" font-family="Arial-BoldMT, Arial" font-size="28" font-weight="bold" fill="#FFFFFF">
                <tspan x="22.8828125" y="108">SCHEDULER</tspan>
            </text>
        </g>
        <g id="L-arrow" transform="translate(554.000000, 415.000000)">
            <path d="M0.0109863281,1.04492187 L84.5601891,1.04492187 C90.0830366,1.04492187 94.5601891,5.52207438 94.5601891,11.0449219 L94.5601891,137.014865" id="Path-5" stroke="#9EEBCF" stroke-width="3"></path>
            <circle id="Oval-2" stroke="#9EEBCF" stroke-width="3" fill="#FFFFFF" fill-rule="evenodd" cx="0.5" cy="0.5" r="6"></circle>
            <polygon id="Triangle" fill="#9EEBCF" fill-rule="evenodd" transform="translate(94.500000, 136.000000) rotate(-270.000000) translate(-94.500000, -136.000000) " points="98.5 136 90.5 141.5 90.5 130.5"></polygon>
        </g>
        <g id="down-arrow" transform="translate(493.000000, 464.000000)" fill-rule="nonzero">
            <polygon id="Line" fill="#9EEBCF" points="7 -1 7 88 4 88 4 -1"></polygon>
            <circle id="Base" stroke="#9EEBCF" stroke-width="3" fill="#FFFFFF" cx="5.5" cy="-1.5" r="6.5"></circle>
            <polygon id="Tip" fill="#9EEBCF" points="5.5 92 0 84 11 84"></polygon>
        </g>
    </g>
</svg>