<?xml version="1.0" encoding="UTF-8"?>
<svg width="1200px" height="750px" viewBox="0 0 1200 750" version="1.1" xmlns="http://www.w3.org/2000/svg" xmlns:xlink="http://www.w3.org/1999/xlink">
    <!-- Generator: Sketch 53.2 (72643) - https://sketchapp.com -->
    <title>schedule-pods-1</title>
    <desc>Created with Sketch.</desc>
    <g id="schedule-pods-1" stroke="none" stroke-width="1" fill="none" fill-rule="evenodd">
        <g id="Kubernetes-background" opacity="0.100000001" transform="translate(67.000000, 28.000000)" fill="#326CE5" fill-rule="nonzero" stroke="#FFFFFF" stroke-width="0.5">
            <path d="M326.653979,1.01050468 C320.85482,1.30886068 315.172876,2.77733061 309.941479,5.32976637 L81.8873121,116.617778 C69.9304309,122.449683 61.2457527,133.479236 58.2914787,146.584518 L2.02897875,396.565512 C-0.595798233,408.201793 1.53992164,420.41876 7.94981208,430.434481 C8.71911492,431.646397 9.54649287,432.819461 10.4289787,433.949467 L168.278979,634.392997 C176.555741,644.899642 189.104889,651.017348 202.374812,651.014708 L455.512312,650.955132 C468.777272,650.965005 481.325535,644.858693 489.608145,634.363209 L647.399812,433.889891 C655.681003,423.37798 658.783702,409.617286 655.828979,396.505936 L599.478979,146.524942 C596.524705,133.41966 587.840027,122.390107 575.883145,116.558202 L347.799812,5.32976637 C341.219502,2.11900465 333.948454,0.633815693 326.653979,1.01050468 Z" id="path3055"></path>
        </g>
        <rect id="Rectangle" fill="#9EEBCF" x="326" y="280" width="161" height="147"></rect>
        <g id="Group-3" transform="translate(346.000000, 300.000000)">
            <polygon id="Rectangle" fill="#53777A" points="0 0 121 0 121 127 0 127"></polygon>
            <text id="API-SERVER" font-family="Arial-BoldMT, Arial" font-size="18" font-weight="bold" fill="#FFFFFF">
                <tspan x="45.4970703" y="58">API</tspan>
                <tspan x="23.4892578" y="78">SERVER</tspan>
            </text>
        </g>
        <g id="Kubernetes-background" opacity="0.100000001" transform="translate(774.000000, 188.000000)" fill="#326CE5" fill-rule="nonzero" stroke="#FFFFFF" stroke-width="0.5">
            <path d="M198.573847,0.615291959 C195.048523,0.796959647 191.594454,1.69110468 188.414273,3.24527186 L49.779521,71.0080643 C42.5109003,74.5590859 37.2314606,81.2749333 35.4355494,89.2546834 L1.23342173,241.467037 C-0.362187375,248.552318 0.93612258,255.991178 4.83271251,262.089707 C5.30037381,262.827637 5.80333913,263.541911 6.33980471,264.229967 L102.297252,386.279172 C107.328718,392.676622 114.957379,396.401668 123.024202,396.40006 L276.907181,396.363784 C284.970986,396.369796 292.59911,392.651689 297.634131,386.261034 L393.556117,264.193691 C398.590275,257.793034 400.476415,249.414207 398.68023,241.430762 L364.424911,89.2184078 C362.629,81.2386577 357.34956,74.5228103 350.080939,70.9717887 L211.428457,3.24527186 C207.428269,1.29025283 203.008179,0.385927654 198.573847,0.615291959 Z" id="path3055"></path>
        </g>
        <g id="Green-arrow-right" transform="translate(0.000000, 331.000000)" fill="#B8E986">
            <polygon id="Triangle" points="326 26 261 62 261 -10"></polygon>
            <polygon id="Rectangle" points="0 35.2777778 1.7734272e-15 15.2777778 307 15.2777778 307 35.2777778"></polygon>
        </g>
        <rect id="Rectangle-4" fill="#53777A" x="317" y="512" width="238" height="144"></rect>
        <g id="Group-6" transform="translate(390.000000, 519.000000)">
            <rect id="Rectangle-3" fill="#F1D4AF" x="0" y="-2.27373675e-13" width="155" height="28"></rect>
            <text id="ReplicaSet-#1" font-family="Arial-BoldMT, Arial" font-size="17" font-weight="bold" fill="#4A4A4A">
                <tspan x="7" y="20">ReplicaSet #1</tspan>
            </text>
        </g>
        <g id="Group-2" transform="translate(259.000000, 522.000000)">
            <ellipse id="Oval" stroke="#53777A" stroke-width="21" fill="#FFFFFF" cx="60.5" cy="61.5" rx="60.5" ry="61.5"></ellipse>
            <g id="Group" transform="translate(17.000000, 19.000000)" fill="#419EDA" fill-rule="nonzero">
                <path d="M39.7902728,37.9220903 C39.7902728,41.1212806 37.2456864,43.7090419 34.1094536,43.7090419 C30.9708837,43.7090419 28.4333083,41.1216774 28.4333083,37.9220903 C28.4333083,34.7363903 30.9712732,32.1387097 34.1094536,32.1387097 C37.2456864,32.1387097 39.7902728,34.7363903 39.7902728,37.9220903 Z" id="Shape"></path>
                <path d="M47.1291823,37.9232806 C47.1291823,41.122471 49.6741581,43.7102323 52.810391,43.7102323 C55.9458449,43.7102323 58.4880942,41.1228677 58.4880942,37.9232806 C58.4880942,34.7363903 55.9458449,32.1387097 52.810391,32.1387097 C49.6741581,32.1387097 47.1291823,34.7363903 47.1291823,37.9232806 Z" id="Shape"></path>
                <path d="M85.8557377,44.3780032 C85.4467655,44.4129194 85.0358458,44.4291871 84.5992192,44.4291871 C82.0663178,44.4291871 79.6089788,43.8241065 77.3919598,42.7159161 C78.1300573,38.4025839 78.4439922,34.0571129 78.3618083,29.7275129 C75.95822,26.1859065 73.211095,22.8442742 70.1103064,19.7657032 C71.4556303,17.1961935 73.4444039,14.9853677 75.9270602,13.4177129 L76.9931145,12.746371 L76.1623166,11.792129 C71.8825194,6.88284194 66.7746509,3.0873 60.9836039,0.51183871 L59.8287442,0 L59.5354527,1.24349032 C58.8448738,4.14152903 57.4013965,6.75587419 55.4196339,8.85401613 C51.6107391,6.79158387 47.6316339,5.12473548 43.5282791,3.8622 C39.4346617,5.12195806 35.4625674,6.78404516 31.6552306,8.84330323 C29.6816474,6.74793871 28.2416756,4.13994194 27.5538233,1.25023548 L27.2585842,0.00714193548 L26.108009,0.5166 C20.389798,3.05476452 15.1413209,6.95307097 10.9316333,11.7893516 L10.0984984,12.7455774 L11.1633842,13.4169194 C13.6382506,14.9786226 15.6215712,17.1763548 16.9645581,19.7319774 C13.8731175,22.7986452 11.1291085,26.1295645 8.72746767,29.6549032 C8.6339883,33.9825194 8.93195379,38.3597323 9.67355679,42.7325806 C7.46744366,43.8304548 5.02373713,44.4287903 2.5075841,44.4287903 C2.06589407,44.4287903 1.65263736,44.4125226 1.25106557,44.3784 L0,44.2811903 L0.11723871,45.5536452 C0.730307577,51.9913065 2.69259535,58.1143258 5.95268837,63.754471 L6.58912708,64.8551226 L7.54456414,64.0290387 C9.75885671,62.1157935 12.4343142,60.8488935 15.279203,60.3382452 C17.1546329,64.2444871 19.3774944,67.9146484 21.8991004,71.3221452 C25.9226083,72.7556903 30.1147685,73.8257903 34.4440318,74.4626129 C34.859236,77.3793 34.5285527,80.3959742 33.3990104,83.1852968 L32.9226551,84.3672871 L34.1476243,84.6418548 C37.2842467,85.3445419 40.4485233,85.7024323 43.5469749,85.7024323 L52.9435991,84.6418548 L54.1697368,84.3672871 L53.6922131,83.1829161 C52.5657866,80.3935935 52.2351034,77.3733484 52.6503076,74.4562645 C56.962433,73.8190452 61.1390134,72.7513258 65.1477203,71.3221452 C67.6716633,67.911871 69.8964723,64.239329 71.7750182,60.327929 C74.6288654,60.8354032 77.3195133,62.1030968 79.5474383,64.0218968 L80.5028753,64.8467903 L81.136198,63.7489161 C84.4021335,58.101629 86.3640318,51.9790065 86.9677527,45.5516613 L87.0849914,44.2815871 L85.8557377,44.3780032 Z M56.9760654,59.9359161 C52.5307319,61.1675032 48.0160678,61.7892484 43.5282791,61.7892484 C39.0284159,61.7892484 34.5192048,61.1679 30.0699763,59.9359161 C27.6289962,56.072129 25.6990368,51.9329806 24.3100891,47.5752097 C22.9269839,43.2376742 22.1176084,38.6934194 21.8827415,34.0142613 C24.7560636,30.3952839 28.0235571,27.2250581 31.6338083,24.5563548 C35.302484,21.8380548 39.2936636,19.6296097 43.5282791,17.9683161 C47.7558836,19.6300065 51.7396627,21.8352774 55.3997695,24.542071 C59.0240426,27.2250581 62.3059475,30.4198839 65.1932915,34.0614774 C64.9471292,38.7140516 64.1280162,43.2321194 62.742574,47.5625129 C61.3571319,51.9194903 59.4209404,56.0717323 56.9760654,59.9359161 Z" id="Shape"></path>
            </g>
        </g>
        <g id="right-arrow" transform="translate(699.000000, 353.000000) scale(1, -1) translate(-699.000000, -353.000000) translate(487.000000, 340.000000)" fill-rule="nonzero">
            <polygon id="Line" fill="#9EEBCF" points="0 11.5 415.295038 11.5 424 11.5 424 14.5 0 14.5"></polygon>
            <circle id="Base" stroke="#9EEBCF" stroke-width="3" fill="#FFFFFF" cx="0.5" cy="13" r="6.5"></circle>
            <polygon id="Tip" fill="#9EEBCF" points="426 13 418 18.5 418 7.5"></polygon>
        </g>
        <g id="Group-3" transform="translate(420.000000, 104.000000)" fill="#53777A">
            <polygon id="Rectangle" points="0 2.27373675e-13 121 2.27373675e-13 121 127 0 127"></polygon>
        </g>
        <polygon id="Rectangle" fill="#53777A" points="913 290 1034 290 1034 417 913 417"></polygon>
        <polygon id="Rectangle" fill="#53777A" points="913 290 1034 290 1034 417 913 417"></polygon>
        <text id="KUBELET" font-family="Arial-BoldMT, Arial" font-size="20" font-weight="bold" fill="#FFFFFF">
            <tspan x="926.27832" y="364">KUBELET</tspan>
        </text>
        <text id="SCHEDULER" font-family="Arial-BoldMT, Arial" font-size="18" font-weight="bold" fill="#FFFFFF">
            <tspan x="424.496094" y="174">SCHEDULER</tspan>
        </text>
        <text id="MASTER-NODE" fill="#4A4A4A" font-family="Arial-BoldMT, Arial" font-size="26" font-weight="bold">
            <tspan x="299.940918" y="726">MASTER NODE</tspan>
        </text>
        <text id="WORKER-NODE" fill="#4A4A4A" font-family="Arial-BoldMT, Arial" font-size="26" font-weight="bold">
            <tspan x="873.611816" y="631">WORKER NODE</tspan>
        </text>
        <g id="Group-3" transform="translate(263.000000, 104.000000)">
            <polygon id="Rectangle" fill="#53777A" points="0 2.27373675e-13 119 2.27373675e-13 119 127 0 127"></polygon>
            <text id="CONTROLLER-MANAGER" font-family="Arial-BoldMT, Arial" font-size="17" font-weight="bold" fill="#FFFFFF">
                <tspan x="0.477294922" y="61">CONTROLLER </tspan>
                <tspan x="15.5847168" y="80">MANAGER</tspan>
            </text>
        </g>
        <g id="down-arrow" transform="translate(402.000000, 427.000000)" fill-rule="nonzero">
            <polygon id="Line" fill="#9EEBCF" points="5.5 -1 5.5 81 2.5 81 2.5 -1"></polygon>
            <circle id="Base" stroke="#9EEBCF" stroke-width="3" fill="#FFFFFF" cx="4" cy="-1.5" r="6.5"></circle>
            <polygon id="Tip" fill="#9EEBCF" points="4 85 -1.5 77 9.5 77"></polygon>
        </g>
        <g id="down-arrow" transform="translate(350.000000, 257.500000) scale(1, -1) translate(-350.000000, -257.500000) translate(346.000000, 235.000000)" fill-rule="nonzero">
            <polygon id="Line" fill="#9EEBCF" points="5.5 -1 5.5 45 2.5 45 2.5 -1"></polygon>
            <circle id="Base" stroke="#9EEBCF" stroke-width="3" fill="#FFFFFF" cx="4" cy="-1.5" r="6.5"></circle>
            <polygon id="Tip" fill="#9EEBCF" points="4 49 -1.5 41 9.5 41"></polygon>
        </g>
        <g id="down-arrow" transform="translate(463.000000, 257.500000) scale(1, -1) translate(-463.000000, -257.500000) translate(459.000000, 235.000000)" fill-rule="nonzero">
            <polygon id="Line" fill="#9EEBCF" points="5.5 -1 5.5 45 2.5 45 2.5 -1"></polygon>
            <circle id="Base" stroke="#9EEBCF" stroke-width="3" fill="#FFFFFF" cx="4" cy="-1.5" r="6.5"></circle>
            <polygon id="Tip" fill="#9EEBCF" points="4 49 -1.5 41 9.5 41"></polygon>
        </g>
    </g>
</svg>