<?xml version="1.0" encoding="UTF-8"?>
<svg width="1200px" height="800px" viewBox="0 0 1200 800" version="1.1" xmlns="http://www.w3.org/2000/svg" xmlns:xlink="http://www.w3.org/1999/xlink">
    <!-- Generator: Sketch 64 (93537) - https://sketch.com -->
    <title>authentication</title>
    <desc>Created with Sketch.</desc>
    <defs>
        <path d="M440.921,11.71 C415.581,19.735 391.178,35.582 364.816,40.231 C336.161,45.285 312.751,34.25 285.628,27.967 C184.785,4.608 97.392,68.354 48.489,153.159 C-33.4617,295.277 -13.2597,532.382 131.524,627.8768 C249.955,705.9898 364.888,665.8068 493.069,640.0908 C610.088,616.6128 737.088,638.6588 850.527,603.4128 C955.88,570.679 1030.12,469.368 1013.5,356.928 C999.56,262.631 920.067,182.443 824.871,172.206 C773.442,166.675 723.339,168.45 678.219,138.04 C635.66,109.357 625.419,52.12 582.995,22.953 C560.018,7.157 533.371,0.896999822 506.35,0.896999822" id="path-1"></path>
    </defs>
    <g id="authentication" stroke="none" stroke-width="1" fill="none" fill-rule="evenodd">
        <g id="Group-221" transform="translate(67.000000, 42.000000)">
            <path d="M983.247,91.671 L965.268,107.23 C965.268,107.23 891.747,78.419 869.416,117.292 C854.163,143.843 843.247,41.692 844.58,42.984 C845.913,44.276 929.58,48.943 983.247,81.203 C984.58,96.943 983.247,91.671 983.247,91.671" id="Fill-1" fill="#D3EAF2"></path>
            <path d="M206.86,381.897 C206.86,381.897 210.196,387.196 207.841,390.728 C205.486,394.26 199.351,397.977 191.795,401.051 C185.64,399.013 190.179,385.919 190.179,385.919 L206.86,381.897 Z" id="Fill-2" fill="#FDBDB4"></path>
            <path d="M159.877,308.97 L172.714,306.909 L173.527,314.109 C173.527,314.109 180.001,328.947 190.176,337.972 C200.352,346.998 190.176,353.772 190.176,353.772 L174.279,348.989 L160.621,316.093 L159.877,308.97 Z" id="Fill-3" fill="#FDBDB4"></path>
            <g id="Group-168" transform="translate(55.000000, 42.088000)">
                <mask id="mask-2" fill="white">
                    <use xlink:href="#path-1"></use>
                </mask>
                <g id="Clip-5"></g>
                <path d="M1182.54,319.689 C1170.51,238.347 939.999,203.609 861.541,179.004 C826.854,168.126 790.133,166.005 754.277,160.018 C650.255,142.648 608.238,-9.063 508.079,-42.088 C407.921,-75.113 63.564,-125.511 -36.9351,-42.088 C-156.0321,56.772 -250.776,430.095 -239.603,554.553 C-215.584,822.083 266.477,764.126 337.467,755.677 C396.284,748.676 525.466,856.527 575.23,847.35 C648.318,833.873 735.072,915.425 809.386,916.360275 C883.699,917.289 1076.09,719.03 1137.53,677.222 C1205.52,630.967 1194.56,401.031 1182.54,319.689" id="Fill-4" fill="#00478E" mask="url(#mask-2)"></path>
                <path d="M801.723,158.76 C775.707,155.151 750.644,148.363 724.961,143.985 C706.378,140.817 697.331,132.563 677.743,132.563 C653.912,132.563 625.596,121.564 607.358,109.725 C570.985,86.113 555.612,55.139 508.332,47.828 C466.426,41.349 433.479,59.58 398.333,78.7 C363.231,97.797 332.071,91.921 293.825,92.965 C248.796,94.195 218.407,117.997 190.626,151.667 C160.803,187.812 134.623,217.234 92.592,239.278 C50.99,261.096 22.5764,290.819 7.1324,335.711 C-1.8546,361.838 -6.8126,389.956 -7.7406,417.552 C-8.6946,445.931 0.0774,469.481 9.9234,495.661 C12.9724,503.766 16.1684,511.767 19.5924,519.64 L836.07,163.966 C824.666,161.954 813.181,160.349 801.723,158.76" id="Fill-6" fill="#1753AA" mask="url(#mask-2)"></path>
                <path d="M42.206,795.404 C42.206,795.404 40.998,558.925 178.224,507.245 C273.38,471.409 433.739,499.401 499.897,427.622 C563.043,359.111 606.953,339.809 677.743,339.809 C776.41,339.809 832.668,371.729 888.747,339.695 C941.63,309.483 967.81,220.132 904.492,180.784 C841.174,141.436 694.428,195.814 694.428,195.814 L380.572,285.589 L256.644,351.536 L91.504,410.231 L-6.9461,451.921 C-6.9461,451.921 -132.7921,736.9068 42.206,795.404" id="Fill-7" fill="#1753AA" mask="url(#mask-2)"></path>
                <path d="M494.263,470.447 C598.243,424.293 706.293,486.909 813.268,475.479 C898.896,466.33 980.02,417.206 1027.73,345.746 C1035.52,334.077 1042.35,321.913 1048.51,309.299 C1054.87,296.276 1052.4,294.939 1064.79,298.583 L1120.66,315.012 C1123.37,315.808 1134.74,317.237 1136.43,319.647 C1138.33,322.35 1132.36,336.52 1131.41,339.542 C1128.03,350.322 1123.77,360.827 1118.86,370.995 C1104.32,401.057 1083.38,428.023 1058.69,450.436 C994.98,508.278 903.941,542.116 818.522,542.374379 C780.567,542.487 743.268,535.524 706.921,524.907 C663.717,512.287 621.485,495.097 576.594,489.208 C564.255,487.589 551.804,486.797 539.36,487.319 C528.705,487.766 518.448,490.845 507.961,491.551 C500.193,492.075 502.046,490.838 499.035,482.949 C497.445,478.781 495.854,474.614 494.263,470.447" id="Fill-8" fill="#0C3877" mask="url(#mask-2)"></path>
                <path d="M961.1,367.498 C924.651,396.683 877.15,409.041 830.568,413.498 C782.847,418.065 734.687,415.22 686.889,418.887 C639.091,422.554 590.196,433.472 551.738,462.092 C552.251,461.71 551.58,449.018 552.84,446.317 C555.419,440.793 563.138,434.711 567.424,430.365 C578.519,419.12 590.989,409.238 604.422,400.931 C631.286,384.317 662.092,373.97 693.626,371.644 C726.646,369.211 760.015,375.116 792.853,370.886 C830.502,366.035 866.228,347.437 891.797,319.38 C917.367,291.323 932.575,254.029 933.918,216.093 C934.283,205.821 1014.08,235.012 1020.92,245.128 C1032.54,262.327 1018.37,287.896 1010.59,303.907 C999.26,327.229 983.71,348.643 963.75,365.328 C962.88,366.061 961.99,366.785 961.1,367.498" id="Fill-9" fill="#1753AA" mask="url(#mask-2)"></path>
                <path d="M111.651,668.5552 C111.651,668.5552 258.169,508.085 274.797,504.681 C291.425,501.277 677.743,480.189 677.743,480.189 C677.743,480.189 882.446,525.303 946.39,480.189 C1010.34,435.075 1038.56,440.189 1038.56,440.189 L1038.56,646.5862 L759.318,768.1892 L390.631,776.1892 L111.651,668.5552 Z" id="Fill-10" fill="#0C3877" mask="url(#mask-2)"></path>
                <path d="M359.43,508.381 C337.357,508.306 314.449,512.811 293.201,518.507 C277.913,522.606 266.224,527.474 254.292,537.722 C237.167,552.433 223.49,570.524 208.546,587.3174 C195.192,602.3224 180.784,616.3774 165.198,629.0624 C97.945,683.7934 0.8905,714.7104 -82.6875,680.2694 C-92.0875,676.3964 -101.1915,671.7124 -109.6805,666.1104 C-116.0835,661.8854 -115.9375,663.4534 -113.8705,658.2584 C-110.0195,648.5804 -102.4365,639.1974 -97.0795,630.2684 L-89.0465,616.8764 C-87.7805,614.7674 -85.4165,608.4424 -83.2635,607.2374 C-79.8415,605.3214 -71.3325,610.6134 -66.9525,612.2334 C-56.4225,616.1244 -45.6315,619.2824 -34.6655,621.6874 C46.076,639.3914 122.195,606.5724 182.374,553.652 C206.407,532.518 230.816,508.277 261.891,498.206 C285.185,490.655 311.153,488.993 335.476,488.852 C341.63,488.816 347.807,488.909 353.945,489.401 C358.87,489.794 359.608,488.849 360.709,492.596 C361.917,496.703 359.781,504.054 359.43,508.381" id="Fill-11" fill="#00478E" mask="url(#mask-2)"></path>
                <polygon id="Fill-12" fill="#D3EAF2" mask="url(#mask-2)" points="630.82 448.496 654.779 433.433 616.447 398.082 511.741 398.082 528.315 431.693"></polygon>
                <path d="M654.779,433.433 L654.779,712.4761 C654.779,712.4761 588.942,721.8781 586.682,721.8781 C584.424,721.8781 528.315,701.8341 528.315,701.8341 L528.315,431.693 L654.779,433.433 Z" id="Fill-13" fill="#62A7BF" mask="url(#mask-2)"></path>
                <polygon id="Fill-14" fill="#D3EAF2" mask="url(#mask-2)" points="289.773 448.496 265.813 433.433 304.146 398.082 408.852 398.082 392.277 431.693"></polygon>
                <path d="M265.813,433.433 L265.813,712.4761 C265.813,712.4761 331.651,721.8781 333.91,721.8781 C336.169,721.8781 392.277,701.8341 392.277,701.8341 L392.277,431.693 L265.813,433.433 Z" id="Fill-15" fill="#62A7BF" mask="url(#mask-2)"></path>
                <polygon id="Fill-16" fill="#81C3D3" mask="url(#mask-2)" points="265.813 464.256 410.514 464.256 410.514 459.49 265.813 459.49"></polygon>
                <polygon id="Fill-17" fill="#81C3D3" mask="url(#mask-2)" points="265.813 509.066 410.514 509.066 410.514 504.3 265.813 504.3"></polygon>
                <polygon id="Fill-18" fill="#81C3D3" mask="url(#mask-2)" points="265.813 553.877 410.514 553.877 410.514 549.111 265.813 549.111"></polygon>
                <polygon id="Fill-19" fill="#81C3D3" mask="url(#mask-2)" points="265.813 598.6868 410.514 598.6868 410.514 593.9208 265.813 593.9208"></polygon>
                <polygon id="Fill-20" fill="#81C3D3" mask="url(#mask-2)" points="265.813 643.4978 410.514 643.4978 410.514 638.7318 265.813 638.7318"></polygon>
                <path d="M279.906,498.967 C278.025,498.967 276.502,497.443 276.502,495.563 L276.502,473.766 C276.502,471.886 278.025,470.362 279.906,470.362 C281.786,470.362 283.31,471.886 283.31,473.766 L283.31,495.563 C283.31,497.443 281.786,498.967 279.906,498.967" id="Fill-21" fill="#81C3D3" mask="url(#mask-2)"></path>
                <path d="M293.13,498.967 C291.25,498.967 289.726,497.443 289.726,495.563 L289.726,473.766 C289.726,471.886 291.25,470.362 293.13,470.362 C295.01,470.362 296.534,471.886 296.534,473.766 L296.534,495.563 C296.534,497.443 295.01,498.967 293.13,498.967" id="Fill-22" fill="#1B61DD" mask="url(#mask-2)"></path>
                <path d="M306.353,498.967 C304.473,498.967 302.949,497.443 302.949,495.563 L302.949,473.766 C302.949,471.886 304.473,470.362 306.353,470.362 C308.233,470.362 309.757,471.886 309.757,473.766 L309.757,495.563 C309.757,497.443 308.233,498.967 306.353,498.967" id="Fill-23" fill="#81C3D3" mask="url(#mask-2)"></path>
                <path d="M319.577,498.967 C317.697,498.967 316.173,497.443 316.173,495.563 L316.173,473.766 C316.173,471.886 317.697,470.362 319.577,470.362 C321.458,470.362 322.981,471.886 322.981,473.766 L322.981,495.563 C322.981,497.443 321.458,498.967 319.577,498.967" id="Fill-24" fill="#1B61DD" mask="url(#mask-2)"></path>
                <path d="M332.801,498.967 C330.921,498.967 329.397,497.443 329.397,495.563 L329.397,473.766 C329.397,471.886 330.921,470.362 332.801,470.362 C334.682,470.362 336.205,471.886 336.205,473.766 L336.205,495.563 C336.205,497.443 334.682,498.967 332.801,498.967" id="Fill-25" fill="#81C3D3" mask="url(#mask-2)"></path>
                <path d="M346.025,498.967 C344.144,498.967 342.621,497.443 342.621,495.563 L342.621,473.766 C342.621,471.886 344.144,470.362 346.025,470.362 C347.905,470.362 349.429,471.886 349.429,473.766 L349.429,495.563 C349.429,497.443 347.905,498.967 346.025,498.967" id="Fill-26" fill="#D3EAF2" mask="url(#mask-2)"></path>
                <path d="M359.249,498.967 C357.369,498.967 355.845,497.443 355.845,495.563 L355.845,473.766 C355.845,471.886 357.369,470.362 359.249,470.362 C361.129,470.362 362.653,471.886 362.653,473.766 L362.653,495.563 C362.653,497.443 361.129,498.967 359.249,498.967" id="Fill-27" fill="#81C3D3" mask="url(#mask-2)"></path>
                <path d="M279.906,543.704 C278.025,543.704 276.502,542.181 276.502,540.3 L276.502,518.504 C276.502,516.624 278.025,515.1 279.906,515.1 C281.786,515.1 283.31,516.624 283.31,518.504 L283.31,540.3 C283.31,542.181 281.786,543.704 279.906,543.704" id="Fill-28" fill="#81C3D3" mask="url(#mask-2)"></path>
                <path d="M293.13,543.704 C291.25,543.704 289.726,542.181 289.726,540.3 L289.726,518.504 C289.726,516.624 291.25,515.1 293.13,515.1 C295.01,515.1 296.534,516.624 296.534,518.504 L296.534,540.3 C296.534,542.181 295.01,543.704 293.13,543.704" id="Fill-29" fill="#81C3D3" mask="url(#mask-2)"></path>
                <path d="M306.353,543.704 C304.473,543.704 302.949,542.181 302.949,540.3 L302.949,518.504 C302.949,516.624 304.473,515.1 306.353,515.1 C308.233,515.1 309.757,516.624 309.757,518.504 L309.757,540.3 C309.757,542.181 308.233,543.704 306.353,543.704" id="Fill-30" fill="#81C3D3" mask="url(#mask-2)"></path>
                <path d="M319.577,543.704 C317.697,543.704 316.173,542.181 316.173,540.3 L316.173,518.504 C316.173,516.624 317.697,515.1 319.577,515.1 C321.458,515.1 322.981,516.624 322.981,518.504 L322.981,540.3 C322.981,542.181 321.458,543.704 319.577,543.704" id="Fill-31" fill="#81C3D3" mask="url(#mask-2)"></path>
                <path d="M332.801,543.704 C330.921,543.704 329.397,542.181 329.397,540.3 L329.397,518.504 C329.397,516.624 330.921,515.1 332.801,515.1 C334.682,515.1 336.205,516.624 336.205,518.504 L336.205,540.3 C336.205,542.181 334.682,543.704 332.801,543.704" id="Fill-32" fill="#81C3D3" mask="url(#mask-2)"></path>
                <path d="M346.025,543.704 C344.144,543.704 342.621,542.181 342.621,540.3 L342.621,518.504 C342.621,516.624 344.144,515.1 346.025,515.1 C347.905,515.1 349.429,516.624 349.429,518.504 L349.429,540.3 C349.429,542.181 347.905,543.704 346.025,543.704" id="Fill-33" fill="#D3EAF2" mask="url(#mask-2)"></path>
                <path d="M359.249,543.704 C357.369,543.704 355.845,542.181 355.845,540.3 L355.845,518.504 C355.845,516.624 357.369,515.1 359.249,515.1 C361.129,515.1 362.653,516.624 362.653,518.504 L362.653,540.3 C362.653,542.181 361.129,543.704 359.249,543.704" id="Fill-34" fill="#81C3D3" mask="url(#mask-2)"></path>
                <path d="M279.906,588.4409 C278.025,588.4409 276.502,586.9169 276.502,585.0369 L276.502,563.241 C276.502,561.361 278.025,559.837 279.906,559.837 C281.786,559.837 283.31,561.361 283.31,563.241 L283.31,585.0369 C283.31,586.9169 281.786,588.4409 279.906,588.4409" id="Fill-35" fill="#81C3D3" mask="url(#mask-2)"></path>
                <path d="M293.13,588.4409 C291.25,588.4409 289.726,586.9169 289.726,585.0369 L289.726,563.241 C289.726,561.361 291.25,559.837 293.13,559.837 C295.01,559.837 296.534,561.361 296.534,563.241 L296.534,585.0369 C296.534,586.9169 295.01,588.4409 293.13,588.4409" id="Fill-36" fill="#D3EAF2" mask="url(#mask-2)"></path>
                <path d="M306.353,588.4409 C304.473,588.4409 302.949,586.9169 302.949,585.0369 L302.949,563.241 C302.949,561.361 304.473,559.837 306.353,559.837 C308.233,559.837 309.757,561.361 309.757,563.241 L309.757,585.0369 C309.757,586.9169 308.233,588.4409 306.353,588.4409" id="Fill-37" fill="#81C3D3" mask="url(#mask-2)"></path>
                <path d="M319.577,588.4409 C317.697,588.4409 316.173,586.9169 316.173,585.0369 L316.173,563.241 C316.173,561.361 317.697,559.837 319.577,559.837 C321.458,559.837 322.981,561.361 322.981,563.241 L322.981,585.0369 C322.981,586.9169 321.458,588.4409 319.577,588.4409" id="Fill-38" fill="#D3EAF2" mask="url(#mask-2)"></path>
                <path d="M332.801,588.4409 C330.921,588.4409 329.397,586.9169 329.397,585.0369 L329.397,563.241 C329.397,561.361 330.921,559.837 332.801,559.837 C334.682,559.837 336.205,561.361 336.205,563.241 L336.205,585.0369 C336.205,586.9169 334.682,588.4409 332.801,588.4409" id="Fill-39" fill="#81C3D3" mask="url(#mask-2)"></path>
                <path d="M346.025,588.4409 C344.144,588.4409 342.621,586.9169 342.621,585.0369 L342.621,563.241 C342.621,561.361 344.144,559.837 346.025,559.837 C347.905,559.837 349.429,561.361 349.429,563.241 L349.429,585.0369 C349.429,586.9169 347.905,588.4409 346.025,588.4409" id="Fill-40" fill="#81C3D3" mask="url(#mask-2)"></path>
                <path d="M359.249,588.4409 C357.369,588.4409 355.845,586.9169 355.845,585.0369 L355.845,563.241 C355.845,561.361 357.369,559.837 359.249,559.837 C361.129,559.837 362.653,561.361 362.653,563.241 L362.653,585.0369 C362.653,586.9169 361.129,588.4409 359.249,588.4409" id="Fill-41" fill="#81C3D3" mask="url(#mask-2)"></path>
                <path d="M279.906,633.1782 C278.025,633.1782 276.502,631.6542 276.502,629.7742 L276.502,607.9772 C276.502,606.0972 278.025,604.5732 279.906,604.5732 C281.786,604.5732 283.31,606.0972 283.31,607.9772 L283.31,629.7742 C283.31,631.6542 281.786,633.1782 279.906,633.1782" id="Fill-42" fill="#81C3D3" mask="url(#mask-2)"></path>
                <path d="M293.13,633.1782 C291.25,633.1782 289.726,631.6542 289.726,629.7742 L289.726,607.9772 C289.726,606.0972 291.25,604.5732 293.13,604.5732 C295.01,604.5732 296.534,606.0972 296.534,607.9772 L296.534,629.7742 C296.534,631.6542 295.01,633.1782 293.13,633.1782" id="Fill-43" fill="#81C3D3" mask="url(#mask-2)"></path>
                <path d="M306.353,633.1782 C304.473,633.1782 302.949,631.6542 302.949,629.7742 L302.949,607.9772 C302.949,606.0972 304.473,604.5732 306.353,604.5732 C308.233,604.5732 309.757,606.0972 309.757,607.9772 L309.757,629.7742 C309.757,631.6542 308.233,633.1782 306.353,633.1782" id="Fill-44" fill="#81C3D3" mask="url(#mask-2)"></path>
                <path d="M319.577,633.1782 C317.697,633.1782 316.173,631.6542 316.173,629.7742 L316.173,607.9772 C316.173,606.0972 317.697,604.5732 319.577,604.5732 C321.458,604.5732 322.981,606.0972 322.981,607.9772 L322.981,629.7742 C322.981,631.6542 321.458,633.1782 319.577,633.1782" id="Fill-45" fill="#D3EAF2" mask="url(#mask-2)"></path>
                <path d="M332.801,633.1782 C330.921,633.1782 329.397,631.6542 329.397,629.7742 L329.397,607.9772 C329.397,606.0972 330.921,604.5732 332.801,604.5732 C334.682,604.5732 336.205,606.0972 336.205,607.9772 L336.205,629.7742 C336.205,631.6542 334.682,633.1782 332.801,633.1782" id="Fill-46" fill="#81C3D3" mask="url(#mask-2)"></path>
                <path d="M346.025,633.1782 C344.144,633.1782 342.621,631.6542 342.621,629.7742 L342.621,607.9772 C342.621,606.0972 344.144,604.5732 346.025,604.5732 C347.905,604.5732 349.429,606.0972 349.429,607.9772 L349.429,629.7742 C349.429,631.6542 347.905,633.1782 346.025,633.1782" id="Fill-47" fill="#81C3D3" mask="url(#mask-2)"></path>
                <path d="M359.249,633.1782 C357.369,633.1782 355.845,631.6542 355.845,629.7742 L355.845,607.9772 C355.845,606.0972 357.369,604.5732 359.249,604.5732 C361.129,604.5732 362.653,606.0972 362.653,607.9772 L362.653,629.7742 C362.653,631.6542 361.129,633.1782 359.249,633.1782" id="Fill-48" fill="#D3EAF2" mask="url(#mask-2)"></path>
                <path d="M279.906,677.9146 C278.025,677.9146 276.502,676.3916 276.502,674.5106 L276.502,652.7146 C276.502,650.8346 278.025,649.3106 279.906,649.3106 C281.786,649.3106 283.31,650.8346 283.31,652.7146 L283.31,674.5106 C283.31,676.3916 281.786,677.9146 279.906,677.9146" id="Fill-49" fill="#81C3D3" mask="url(#mask-2)"></path>
                <path d="M293.13,677.9146 C291.25,677.9146 289.726,676.3916 289.726,674.5106 L289.726,652.7146 C289.726,650.8346 291.25,649.3106 293.13,649.3106 C295.01,649.3106 296.534,650.8346 296.534,652.7146 L296.534,674.5106 C296.534,676.3916 295.01,677.9146 293.13,677.9146" id="Fill-50" fill="#81C3D3" mask="url(#mask-2)"></path>
                <path d="M306.353,677.9146 C304.473,677.9146 302.949,676.3916 302.949,674.5106 L302.949,652.7146 C302.949,650.8346 304.473,649.3106 306.353,649.3106 C308.233,649.3106 309.757,650.8346 309.757,652.7146 L309.757,674.5106 C309.757,676.3916 308.233,677.9146 306.353,677.9146" id="Fill-51" fill="#81C3D3" mask="url(#mask-2)"></path>
                <path d="M319.577,677.9146 C317.697,677.9146 316.173,676.3916 316.173,674.5106 L316.173,652.7146 C316.173,650.8346 317.697,649.3106 319.577,649.3106 C321.458,649.3106 322.981,650.8346 322.981,652.7146 L322.981,674.5106 C322.981,676.3916 321.458,677.9146 319.577,677.9146" id="Fill-52" fill="#81C3D3" mask="url(#mask-2)"></path>
                <path d="M332.801,677.9146 C330.921,677.9146 329.397,676.3916 329.397,674.5106 L329.397,652.7146 C329.397,650.8346 330.921,649.3106 332.801,649.3106 C334.682,649.3106 336.205,650.8346 336.205,652.7146 L336.205,674.5106 C336.205,676.3916 334.682,677.9146 332.801,677.9146" id="Fill-53" fill="#81C3D3" mask="url(#mask-2)"></path>
                <path d="M346.025,677.9146 C344.144,677.9146 342.621,676.3916 342.621,674.5106 L342.621,652.7146 C342.621,650.8346 344.144,649.3106 346.025,649.3106 C347.905,649.3106 349.429,650.8346 349.429,652.7146 L349.429,674.5106 C349.429,676.3916 347.905,677.9146 346.025,677.9146" id="Fill-54" fill="#81C3D3" mask="url(#mask-2)"></path>
                <path d="M359.249,677.9146 C357.369,677.9146 355.845,676.3916 355.845,674.5106 L355.845,652.7146 C355.845,650.8346 357.369,649.3106 359.249,649.3106 C361.129,649.3106 362.653,650.8346 362.653,652.7146 L362.653,674.5106 C362.653,676.3916 361.129,677.9146 359.249,677.9146" id="Fill-55" fill="#81C3D3" mask="url(#mask-2)"></path>
                <path d="M370.845,484.665 C370.845,481.29 373.58,478.554 376.956,478.554 C380.331,478.554 383.067,481.29 383.067,484.665 C383.067,488.04 380.331,490.776 376.956,490.776 C373.58,490.776 370.845,488.04 370.845,484.665" id="Fill-56" fill="#81C3D3" mask="url(#mask-2)"></path>
                <path d="M389.887,484.665 C389.887,481.29 392.622,478.554 395.997,478.554 C399.372,478.554 402.109,481.29 402.109,484.665 C402.109,488.04 399.372,490.776 395.997,490.776 C392.622,490.776 389.887,488.04 389.887,484.665" id="Fill-57" fill="#81C3D3" mask="url(#mask-2)"></path>
                <path d="M370.845,529.402 C370.845,526.027 373.58,523.291 376.956,523.291 C380.331,523.291 383.067,526.027 383.067,529.402 C383.067,532.777 380.331,535.513 376.956,535.513 C373.58,535.513 370.845,532.777 370.845,529.402" id="Fill-58" fill="#81C3D3" mask="url(#mask-2)"></path>
                <path d="M389.887,529.402 C389.887,526.027 392.622,523.291 395.997,523.291 C399.372,523.291 402.109,526.027 402.109,529.402 C402.109,532.777 399.372,535.513 395.997,535.513 C392.622,535.513 389.887,532.777 389.887,529.402" id="Fill-59" fill="#81C3D3" mask="url(#mask-2)"></path>
                <path d="M370.845,574.138 C370.845,570.763 373.58,568.028 376.956,568.028 C380.331,568.028 383.067,570.763 383.067,574.138 C383.067,577.5132 380.331,580.2492 376.956,580.2492 C373.58,580.2492 370.845,577.5132 370.845,574.138" id="Fill-60" fill="#81C3D3" mask="url(#mask-2)"></path>
                <path d="M389.887,574.138 C389.887,570.763 392.622,568.028 395.997,568.028 C399.372,568.028 402.109,570.763 402.109,574.138 C402.109,577.5132 399.372,580.2492 395.997,580.2492 C392.622,580.2492 389.887,577.5132 389.887,574.138" id="Fill-61" fill="#81C3D3" mask="url(#mask-2)"></path>
                <path d="M370.845,618.8755 C370.845,615.5005 373.58,612.7645 376.956,612.7645 C380.331,612.7645 383.067,615.5005 383.067,618.8755 C383.067,622.2505 380.331,624.9865 376.956,624.9865 C373.58,624.9865 370.845,622.2505 370.845,618.8755" id="Fill-62" fill="#81C3D3" mask="url(#mask-2)"></path>
                <path d="M389.887,618.8755 C389.887,615.5005 392.622,612.7645 395.997,612.7645 C399.372,612.7645 402.109,615.5005 402.109,618.8755 C402.109,622.2505 399.372,624.9865 395.997,624.9865 C392.622,624.9865 389.887,622.2505 389.887,618.8755" id="Fill-63" fill="#81C3D3" mask="url(#mask-2)"></path>
                <path d="M370.845,663.6128 C370.845,660.2378 373.58,657.5018 376.956,657.5018 C380.331,657.5018 383.067,660.2378 383.067,663.6128 C383.067,666.9878 380.331,669.7238 376.956,669.7238 C373.58,669.7238 370.845,666.9878 370.845,663.6128" id="Fill-64" fill="#81C3D3" mask="url(#mask-2)"></path>
                <path d="M389.887,663.6128 C389.887,660.2378 392.622,657.5018 395.997,657.5018 C399.372,657.5018 402.109,660.2378 402.109,663.6128 C402.109,666.9878 399.372,669.7238 395.997,669.7238 C392.622,669.7238 389.887,666.9878 389.887,663.6128" id="Fill-65" fill="#1B61DD" mask="url(#mask-2)"></path>
                <polygon id="Fill-66" fill="#81C3D3" mask="url(#mask-2)" points="509.909 464.256 654.61 464.256 654.61 459.49 509.909 459.49"></polygon>
                <polygon id="Fill-67" fill="#81C3D3" mask="url(#mask-2)" points="509.909 509.066 654.61 509.066 654.61 504.3 509.909 504.3"></polygon>
                <polygon id="Fill-68" fill="#81C3D3" mask="url(#mask-2)" points="509.909 553.877 654.61 553.877 654.61 549.111 509.909 549.111"></polygon>
                <polygon id="Fill-69" fill="#81C3D3" mask="url(#mask-2)" points="509.909 598.6868 654.61 598.6868 654.61 593.9208 509.909 593.9208"></polygon>
                <polygon id="Fill-70" fill="#81C3D3" mask="url(#mask-2)" points="509.909 643.4978 654.61 643.4978 654.61 638.7318 509.909 638.7318"></polygon>
                <path d="M524.001,498.967 C522.121,498.967 520.597,497.443 520.597,495.563 L520.597,473.766 C520.597,471.886 522.121,470.362 524.001,470.362 C525.882,470.362 527.405,471.886 527.405,473.766 L527.405,495.563 C527.405,497.443 525.882,498.967 524.001,498.967" id="Fill-71" fill="#81C3D3" mask="url(#mask-2)"></path>
                <path d="M537.225,498.967 C535.344,498.967 533.821,497.443 533.821,495.563 L533.821,473.766 C533.821,471.886 535.344,470.362 537.225,470.362 C539.105,470.362 540.629,471.886 540.629,473.766 L540.629,495.563 C540.629,497.443 539.105,498.967 537.225,498.967" id="Fill-72" fill="#81C3D3" mask="url(#mask-2)"></path>
                <path d="M550.449,498.967 C548.569,498.967 547.045,497.443 547.045,495.563 L547.045,473.766 C547.045,471.886 548.569,470.362 550.449,470.362 C552.329,470.362 553.853,471.886 553.853,473.766 L553.853,495.563 C553.853,497.443 552.329,498.967 550.449,498.967" id="Fill-73" fill="#81C3D3" mask="url(#mask-2)"></path>
                <path d="M563.673,498.967 C561.793,498.967 560.269,497.443 560.269,495.563 L560.269,473.766 C560.269,471.886 561.793,470.362 563.673,470.362 C565.553,470.362 567.077,471.886 567.077,473.766 L567.077,495.563 C567.077,497.443 565.553,498.967 563.673,498.967" id="Fill-74" fill="#1B61DD" mask="url(#mask-2)"></path>
                <path d="M576.896,498.967 C575.016,498.967 573.492,497.443 573.492,495.563 L573.492,473.766 C573.492,471.886 575.016,470.362 576.896,470.362 C578.777,470.362 580.3,471.886 580.3,473.766 L580.3,495.563 C580.3,497.443 578.777,498.967 576.896,498.967" id="Fill-75" fill="#81C3D3" mask="url(#mask-2)"></path>
                <path d="M590.12,498.967 C588.24,498.967 586.716,497.443 586.716,495.563 L586.716,473.766 C586.716,471.886 588.24,470.362 590.12,470.362 C592.001,470.362 593.524,471.886 593.524,473.766 L593.524,495.563 C593.524,497.443 592.001,498.967 590.12,498.967" id="Fill-76" fill="#81C3D3" mask="url(#mask-2)"></path>
                <path d="M603.345,498.967 C601.464,498.967 599.941,497.443 599.941,495.563 L599.941,473.766 C599.941,471.886 601.464,470.362 603.345,470.362 C605.225,470.362 606.749,471.886 606.749,473.766 L606.749,495.563 C606.749,497.443 605.225,498.967 603.345,498.967" id="Fill-77" fill="#81C3D3" mask="url(#mask-2)"></path>
                <path d="M524.001,543.704 C522.121,543.704 520.597,542.181 520.597,540.3 L520.597,518.504 C520.597,516.624 522.121,515.1 524.001,515.1 C525.882,515.1 527.405,516.624 527.405,518.504 L527.405,540.3 C527.405,542.181 525.882,543.704 524.001,543.704" id="Fill-78" fill="#81C3D3" mask="url(#mask-2)"></path>
                <path d="M537.225,543.704 C535.344,543.704 533.821,542.181 533.821,540.3 L533.821,518.504 C533.821,516.624 535.344,515.1 537.225,515.1 C539.105,515.1 540.629,516.624 540.629,518.504 L540.629,540.3 C540.629,542.181 539.105,543.704 537.225,543.704" id="Fill-79" fill="#81C3D3" mask="url(#mask-2)"></path>
                <path d="M550.449,543.704 C548.569,543.704 547.045,542.181 547.045,540.3 L547.045,518.504 C547.045,516.624 548.569,515.1 550.449,515.1 C552.329,515.1 553.853,516.624 553.853,518.504 L553.853,540.3 C553.853,542.181 552.329,543.704 550.449,543.704" id="Fill-80" fill="#81C3D3" mask="url(#mask-2)"></path>
                <path d="M563.673,543.704 C561.793,543.704 560.269,542.181 560.269,540.3 L560.269,518.504 C560.269,516.624 561.793,515.1 563.673,515.1 C565.553,515.1 567.077,516.624 567.077,518.504 L567.077,540.3 C567.077,542.181 565.553,543.704 563.673,543.704" id="Fill-81" fill="#81C3D3" mask="url(#mask-2)"></path>
                <path d="M576.896,543.704 C575.016,543.704 573.492,542.181 573.492,540.3 L573.492,518.504 C573.492,516.624 575.016,515.1 576.896,515.1 C578.777,515.1 580.3,516.624 580.3,518.504 L580.3,540.3 C580.3,542.181 578.777,543.704 576.896,543.704" id="Fill-82" fill="#81C3D3" mask="url(#mask-2)"></path>
                <path d="M590.12,543.704 C588.24,543.704 586.716,542.181 586.716,540.3 L586.716,518.504 C586.716,516.624 588.24,515.1 590.12,515.1 C592.001,515.1 593.524,516.624 593.524,518.504 L593.524,540.3 C593.524,542.181 592.001,543.704 590.12,543.704" id="Fill-83" fill="#D3EAF2" mask="url(#mask-2)"></path>
                <path d="M603.345,543.704 C601.464,543.704 599.941,542.181 599.941,540.3 L599.941,518.504 C599.941,516.624 601.464,515.1 603.345,515.1 C605.225,515.1 606.749,516.624 606.749,518.504 L606.749,540.3 C606.749,542.181 605.225,543.704 603.345,543.704" id="Fill-84" fill="#81C3D3" mask="url(#mask-2)"></path>
                <path d="M524.001,588.4409 C522.121,588.4409 520.597,586.9169 520.597,585.0369 L520.597,563.241 C520.597,561.361 522.121,559.837 524.001,559.837 C525.882,559.837 527.405,561.361 527.405,563.241 L527.405,585.0369 C527.405,586.9169 525.882,588.4409 524.001,588.4409" id="Fill-85" fill="#81C3D3" mask="url(#mask-2)"></path>
                <path d="M537.225,588.4409 C535.344,588.4409 533.821,586.9169 533.821,585.0369 L533.821,563.241 C533.821,561.361 535.344,559.837 537.225,559.837 C539.105,559.837 540.629,561.361 540.629,563.241 L540.629,585.0369 C540.629,586.9169 539.105,588.4409 537.225,588.4409" id="Fill-86" fill="#D3EAF2" mask="url(#mask-2)"></path>
                <path d="M550.449,588.4409 C548.569,588.4409 547.045,586.9169 547.045,585.0369 L547.045,563.241 C547.045,561.361 548.569,559.837 550.449,559.837 C552.329,559.837 553.853,561.361 553.853,563.241 L553.853,585.0369 C553.853,586.9169 552.329,588.4409 550.449,588.4409" id="Fill-87" fill="#1B61DD" mask="url(#mask-2)"></path>
                <path d="M563.673,588.4409 C561.793,588.4409 560.269,586.9169 560.269,585.0369 L560.269,563.241 C560.269,561.361 561.793,559.837 563.673,559.837 C565.553,559.837 567.077,561.361 567.077,563.241 L567.077,585.0369 C567.077,586.9169 565.553,588.4409 563.673,588.4409" id="Fill-88" fill="#81C3D3" mask="url(#mask-2)"></path>
                <path d="M576.896,588.4409 C575.016,588.4409 573.492,586.9169 573.492,585.0369 L573.492,563.241 C573.492,561.361 575.016,559.837 576.896,559.837 C578.777,559.837 580.3,561.361 580.3,563.241 L580.3,585.0369 C580.3,586.9169 578.777,588.4409 576.896,588.4409" id="Fill-89" fill="#81C3D3" mask="url(#mask-2)"></path>
                <path d="M590.12,588.4409 C588.24,588.4409 586.716,586.9169 586.716,585.0369 L586.716,563.241 C586.716,561.361 588.24,559.837 590.12,559.837 C592.001,559.837 593.524,561.361 593.524,563.241 L593.524,585.0369 C593.524,586.9169 592.001,588.4409 590.12,588.4409" id="Fill-90" fill="#D3EAF2" mask="url(#mask-2)"></path>
                <path d="M603.345,588.4409 C601.464,588.4409 599.941,586.9169 599.941,585.0369 L599.941,563.241 C599.941,561.361 601.464,559.837 603.345,559.837 C605.225,559.837 606.749,561.361 606.749,563.241 L606.749,585.0369 C606.749,586.9169 605.225,588.4409 603.345,588.4409" id="Fill-91" fill="#81C3D3" mask="url(#mask-2)"></path>
                <path d="M524.001,633.1782 C522.121,633.1782 520.597,631.6542 520.597,629.7742 L520.597,607.9772 C520.597,606.0972 522.121,604.5732 524.001,604.5732 C525.882,604.5732 527.405,606.0972 527.405,607.9772 L527.405,629.7742 C527.405,631.6542 525.882,633.1782 524.001,633.1782" id="Fill-92" fill="#81C3D3" mask="url(#mask-2)"></path>
                <path d="M537.225,633.1782 C535.344,633.1782 533.821,631.6542 533.821,629.7742 L533.821,607.9772 C533.821,606.0972 535.344,604.5732 537.225,604.5732 C539.105,604.5732 540.629,606.0972 540.629,607.9772 L540.629,629.7742 C540.629,631.6542 539.105,633.1782 537.225,633.1782" id="Fill-93" fill="#81C3D3" mask="url(#mask-2)"></path>
                <path d="M550.449,633.1782 C548.569,633.1782 547.045,631.6542 547.045,629.7742 L547.045,607.9772 C547.045,606.0972 548.569,604.5732 550.449,604.5732 C552.329,604.5732 553.853,606.0972 553.853,607.9772 L553.853,629.7742 C553.853,631.6542 552.329,633.1782 550.449,633.1782" id="Fill-94" fill="#81C3D3" mask="url(#mask-2)"></path>
                <path d="M563.673,633.1782 C561.793,633.1782 560.269,631.6542 560.269,629.7742 L560.269,607.9772 C560.269,606.0972 561.793,604.5732 563.673,604.5732 C565.553,604.5732 567.077,606.0972 567.077,607.9772 L567.077,629.7742 C567.077,631.6542 565.553,633.1782 563.673,633.1782" id="Fill-95" fill="#D3EAF2" mask="url(#mask-2)"></path>
                <path d="M576.896,633.1782 C575.016,633.1782 573.492,631.6542 573.492,629.7742 L573.492,607.9772 C573.492,606.0972 575.016,604.5732 576.896,604.5732 C578.777,604.5732 580.3,606.0972 580.3,607.9772 L580.3,629.7742 C580.3,631.6542 578.777,633.1782 576.896,633.1782" id="Fill-96" fill="#81C3D3" mask="url(#mask-2)"></path>
                <path d="M590.12,633.1782 C588.24,633.1782 586.716,631.6542 586.716,629.7742 L586.716,607.9772 C586.716,606.0972 588.24,604.5732 590.12,604.5732 C592.001,604.5732 593.524,606.0972 593.524,607.9772 L593.524,629.7742 C593.524,631.6542 592.001,633.1782 590.12,633.1782" id="Fill-97" fill="#81C3D3" mask="url(#mask-2)"></path>
                <path d="M603.345,633.1782 C601.464,633.1782 599.941,631.6542 599.941,629.7742 L599.941,607.9772 C599.941,606.0972 601.464,604.5732 603.345,604.5732 C605.225,604.5732 606.749,606.0972 606.749,607.9772 L606.749,629.7742 C606.749,631.6542 605.225,633.1782 603.345,633.1782" id="Fill-98" fill="#D3EAF2" mask="url(#mask-2)"></path>
                <path d="M524.001,677.9146 C522.121,677.9146 520.597,676.3916 520.597,674.5106 L520.597,652.7146 C520.597,650.8346 522.121,649.3106 524.001,649.3106 C525.882,649.3106 527.405,650.8346 527.405,652.7146 L527.405,674.5106 C527.405,676.3916 525.882,677.9146 524.001,677.9146" id="Fill-99" fill="#81C3D3" mask="url(#mask-2)"></path>
                <path d="M537.225,677.9146 C535.344,677.9146 533.821,676.3916 533.821,674.5106 L533.821,652.7146 C533.821,650.8346 535.344,649.3106 537.225,649.3106 C539.105,649.3106 540.629,650.8346 540.629,652.7146 L540.629,674.5106 C540.629,676.3916 539.105,677.9146 537.225,677.9146" id="Fill-100" fill="#81C3D3" mask="url(#mask-2)"></path>
                <path d="M550.449,677.9146 C548.569,677.9146 547.045,676.3916 547.045,674.5106 L547.045,652.7146 C547.045,650.8346 548.569,649.3106 550.449,649.3106 C552.329,649.3106 553.853,650.8346 553.853,652.7146 L553.853,674.5106 C553.853,676.3916 552.329,677.9146 550.449,677.9146" id="Fill-101" fill="#81C3D3" mask="url(#mask-2)"></path>
                <path d="M563.673,677.9146 C561.793,677.9146 560.269,676.3916 560.269,674.5106 L560.269,652.7146 C560.269,650.8346 561.793,649.3106 563.673,649.3106 C565.553,649.3106 567.077,650.8346 567.077,652.7146 L567.077,674.5106 C567.077,676.3916 565.553,677.9146 563.673,677.9146" id="Fill-102" fill="#81C3D3" mask="url(#mask-2)"></path>
                <path d="M576.896,677.9146 C575.016,677.9146 573.492,676.3916 573.492,674.5106 L573.492,652.7146 C573.492,650.8346 575.016,649.3106 576.896,649.3106 C578.777,649.3106 580.3,650.8346 580.3,652.7146 L580.3,674.5106 C580.3,676.3916 578.777,677.9146 576.896,677.9146" id="Fill-103" fill="#81C3D3" mask="url(#mask-2)"></path>
                <path d="M590.12,677.9146 C588.24,677.9146 586.716,676.3916 586.716,674.5106 L586.716,652.7146 C586.716,650.8346 588.24,649.3106 590.12,649.3106 C592.001,649.3106 593.524,650.8346 593.524,652.7146 L593.524,674.5106 C593.524,676.3916 592.001,677.9146 590.12,677.9146" id="Fill-104" fill="#81C3D3" mask="url(#mask-2)"></path>
                <path d="M603.345,677.9146 C601.464,677.9146 599.941,676.3916 599.941,674.5106 L599.941,652.7146 C599.941,650.8346 601.464,649.3106 603.345,649.3106 C605.225,649.3106 606.749,650.8346 606.749,652.7146 L606.749,674.5106 C606.749,676.3916 605.225,677.9146 603.345,677.9146" id="Fill-105" fill="#81C3D3" mask="url(#mask-2)"></path>
                <path d="M614.94,484.665 C614.94,481.29 617.675,478.554 621.05,478.554 C624.425,478.554 627.162,481.29 627.162,484.665 C627.162,488.04 624.425,490.776 621.05,490.776 C617.675,490.776 614.94,488.04 614.94,484.665" id="Fill-106" fill="#D3EAF2" mask="url(#mask-2)"></path>
                <path d="M633.981,484.665 C633.981,481.29 636.717,478.554 640.092,478.554 C643.467,478.554 646.204,481.29 646.204,484.665 C646.204,488.04 643.467,490.776 640.092,490.776 C636.717,490.776 633.981,488.04 633.981,484.665" id="Fill-107" fill="#81C3D3" mask="url(#mask-2)"></path>
                <path d="M614.94,529.402 C614.94,526.027 617.675,523.291 621.05,523.291 C624.425,523.291 627.162,526.027 627.162,529.402 C627.162,532.777 624.425,535.513 621.05,535.513 C617.675,535.513 614.94,532.777 614.94,529.402" id="Fill-108" fill="#81C3D3" mask="url(#mask-2)"></path>
                <path d="M633.981,529.402 C633.981,526.027 636.717,523.291 640.092,523.291 C643.467,523.291 646.204,526.027 646.204,529.402 C646.204,532.777 643.467,535.513 640.092,535.513 C636.717,535.513 633.981,532.777 633.981,529.402" id="Fill-109" fill="#D3EAF2" mask="url(#mask-2)"></path>
                <path d="M614.94,574.138 C614.94,570.763 617.675,568.028 621.05,568.028 C624.425,568.028 627.162,570.763 627.162,574.138 C627.162,577.5132 624.425,580.2492 621.05,580.2492 C617.675,580.2492 614.94,577.5132 614.94,574.138" id="Fill-110" fill="#1B61DD" mask="url(#mask-2)"></path>
                <path d="M633.981,574.138 C633.981,570.763 636.717,568.028 640.092,568.028 C643.467,568.028 646.204,570.763 646.204,574.138 C646.204,577.5132 643.467,580.2492 640.092,580.2492 C636.717,580.2492 633.981,577.5132 633.981,574.138" id="Fill-111" fill="#81C3D3" mask="url(#mask-2)"></path>
                <path d="M614.94,618.8755 C614.94,615.5005 617.675,612.7645 621.05,612.7645 C624.425,612.7645 627.162,615.5005 627.162,618.8755 C627.162,622.2505 624.425,624.9865 621.05,624.9865 C617.675,624.9865 614.94,622.2505 614.94,618.8755" id="Fill-112" fill="#81C3D3" mask="url(#mask-2)"></path>
                <path d="M633.981,618.8755 C633.981,615.5005 636.717,612.7645 640.092,612.7645 C643.467,612.7645 646.204,615.5005 646.204,618.8755 C646.204,622.2505 643.467,624.9865 640.092,624.9865 C636.717,624.9865 633.981,622.2505 633.981,618.8755" id="Fill-113" fill="#81C3D3" mask="url(#mask-2)"></path>
                <path d="M614.94,663.6128 C614.94,660.2378 617.675,657.5018 621.05,657.5018 C624.425,657.5018 627.162,660.2378 627.162,663.6128 C627.162,666.9878 624.425,669.7238 621.05,669.7238 C617.675,669.7238 614.94,666.9878 614.94,663.6128" id="Fill-114" fill="#81C3D3" mask="url(#mask-2)"></path>
                <path d="M633.981,663.6128 C633.981,660.2378 636.717,657.5018 640.092,657.5018 C643.467,657.5018 646.204,660.2378 646.204,663.6128 C646.204,666.9878 643.467,669.7238 640.092,669.7238 C636.717,669.7238 633.981,666.9878 633.981,663.6128" id="Fill-115" fill="#1B61DD" mask="url(#mask-2)"></path>
                <polygon id="Fill-116" fill="#AFD2DB" mask="url(#mask-2)" points="477.067 378.833 533.597 410.081 533.55 695.9915 381.754 706.4075 381.8 410.081"></polygon>
                <polygon id="Fill-117" fill="#81C3D3" mask="url(#mask-2)" points="381.785 444.915 533.597 444.915 533.597 439.915 381.785 439.915"></polygon>
                <polygon id="Fill-118" fill="#81C3D3" mask="url(#mask-2)" points="381.785 491.927 533.597 491.927 533.597 486.927 381.785 486.927"></polygon>
                <polygon id="Fill-119" fill="#81C3D3" mask="url(#mask-2)" points="381.785 538.94 533.597 538.94 533.597 533.94 381.785 533.94"></polygon>
                <polygon id="Fill-120" fill="#81C3D3" mask="url(#mask-2)" points="381.785 585.9518 533.597 585.9518 533.597 580.9518 381.785 580.9518"></polygon>
                <polygon id="Fill-121" fill="#81C3D3" mask="url(#mask-2)" points="381.785 632.9648 533.597 632.9648 533.597 627.9648 381.785 627.9648"></polygon>
                <path d="M396.57,481.332 C394.597,481.332 392.999,479.733 392.999,477.761 L392.999,454.894 C392.999,452.921 394.597,451.321 396.57,451.321 C398.543,451.321 400.141,452.921 400.141,454.894 L400.141,477.761 C400.141,479.733 398.543,481.332 396.57,481.332" id="Fill-122" fill="#81C3D3" mask="url(#mask-2)"></path>
                <path d="M410.444,481.332 C408.471,481.332 406.872,479.733 406.872,477.761 L406.872,454.894 C406.872,452.921 408.471,451.321 410.444,451.321 C412.416,451.321 414.015,452.921 414.015,454.894 L414.015,477.761 C414.015,479.733 412.416,481.332 410.444,481.332" id="Fill-123" fill="#81C3D3" mask="url(#mask-2)"></path>
                <path d="M424.317,481.332 C422.344,481.332 420.746,479.733 420.746,477.761 L420.746,454.894 C420.746,452.921 422.344,451.321 424.317,451.321 C426.29,451.321 427.889,452.921 427.889,454.894 L427.889,477.761 C427.889,479.733 426.29,481.332 424.317,481.332" id="Fill-124" fill="#81C3D3" mask="url(#mask-2)"></path>
                <path d="M438.191,481.332 C436.218,481.332 434.62,479.733 434.62,477.761 L434.62,454.894 C434.62,452.921 436.218,451.321 438.191,451.321 C440.164,451.321 441.762,452.921 441.762,454.894 L441.762,477.761 C441.762,479.733 440.164,481.332 438.191,481.332" id="Fill-125" fill="#1B61DD" mask="url(#mask-2)"></path>
                <path d="M452.065,481.332 C450.092,481.332 448.493,479.733 448.493,477.761 L448.493,454.894 C448.493,452.921 450.092,451.321 452.065,451.321 C454.037,451.321 455.636,452.921 455.636,454.894 L455.636,477.761 C455.636,479.733 454.037,481.332 452.065,481.332" id="Fill-126" fill="#81C3D3" mask="url(#mask-2)"></path>
                <path d="M465.938,481.332 C463.965,481.332 462.367,479.733 462.367,477.761 L462.367,454.894 C462.367,452.921 463.965,451.321 465.938,451.321 C467.911,451.321 469.51,452.921 469.51,454.894 L469.51,477.761 C469.51,479.733 467.911,481.332 465.938,481.332" id="Fill-127" fill="#81C3D3" mask="url(#mask-2)"></path>
                <path d="M479.812,481.332 C477.839,481.332 476.241,479.733 476.241,477.761 L476.241,454.894 C476.241,452.921 477.839,451.321 479.812,451.321 C481.785,451.321 483.383,452.921 483.383,454.894 L483.383,477.761 C483.383,479.733 481.785,481.332 479.812,481.332" id="Fill-128" fill="#81C3D3" mask="url(#mask-2)"></path>
                <path d="M396.57,528.267 C394.597,528.267 392.999,526.667 392.999,524.696 L392.999,501.829 C392.999,499.856 394.597,498.256 396.57,498.256 C398.543,498.256 400.141,499.856 400.141,501.829 L400.141,524.696 C400.141,526.667 398.543,528.267 396.57,528.267" id="Fill-129" fill="#81C3D3" mask="url(#mask-2)"></path>
                <path d="M410.444,528.267 C408.471,528.267 406.872,526.667 406.872,524.696 L406.872,501.829 C406.872,499.856 408.471,498.256 410.444,498.256 C412.416,498.256 414.015,499.856 414.015,501.829 L414.015,524.696 C414.015,526.667 412.416,528.267 410.444,528.267" id="Fill-130" fill="#81C3D3" mask="url(#mask-2)"></path>
                <path d="M424.317,528.267 C422.344,528.267 420.746,526.667 420.746,524.696 L420.746,501.829 C420.746,499.856 422.344,498.256 424.317,498.256 C426.29,498.256 427.889,499.856 427.889,501.829 L427.889,524.696 C427.889,526.667 426.29,528.267 424.317,528.267" id="Fill-131" fill="#81C3D3" mask="url(#mask-2)"></path>
                <path d="M438.191,528.267 C436.218,528.267 434.62,526.667 434.62,524.696 L434.62,501.829 C434.62,499.856 436.218,498.256 438.191,498.256 C440.164,498.256 441.762,499.856 441.762,501.829 L441.762,524.696 C441.762,526.667 440.164,528.267 438.191,528.267" id="Fill-132" fill="#D3EAF2" mask="url(#mask-2)"></path>
                <path d="M452.065,528.267 C450.092,528.267 448.493,526.667 448.493,524.696 L448.493,501.829 C448.493,499.856 450.092,498.256 452.065,498.256 C454.037,498.256 455.636,499.856 455.636,501.829 L455.636,524.696 C455.636,526.667 454.037,528.267 452.065,528.267" id="Fill-133" fill="#81C3D3" mask="url(#mask-2)"></path>
                <path d="M465.938,528.267 C463.965,528.267 462.367,526.667 462.367,524.696 L462.367,501.829 C462.367,499.856 463.965,498.256 465.938,498.256 C467.911,498.256 469.51,499.856 469.51,501.829 L469.51,524.696 C469.51,526.667 467.911,528.267 465.938,528.267" id="Fill-134" fill="#D3EAF2" mask="url(#mask-2)"></path>
                <path d="M479.812,528.267 C477.839,528.267 476.241,526.667 476.241,524.696 L476.241,501.829 C476.241,499.856 477.839,498.256 479.812,498.256 C481.785,498.256 483.383,499.856 483.383,501.829 L483.383,524.696 C483.383,526.667 481.785,528.267 479.812,528.267" id="Fill-135" fill="#81C3D3" mask="url(#mask-2)"></path>
                <path d="M396.57,575.203 C394.597,575.203 392.999,573.603 392.999,571.631 L392.999,548.765 C392.999,546.792 394.597,545.192 396.57,545.192 C398.543,545.192 400.141,546.792 400.141,548.765 L400.141,571.631 C400.141,573.603 398.543,575.203 396.57,575.203" id="Fill-136" fill="#81C3D3" mask="url(#mask-2)"></path>
                <path d="M410.444,575.203 C408.471,575.203 406.872,573.603 406.872,571.631 L406.872,548.765 C406.872,546.792 408.471,545.192 410.444,545.192 C412.416,545.192 414.015,546.792 414.015,548.765 L414.015,571.631 C414.015,573.603 412.416,575.203 410.444,575.203" id="Fill-137" fill="#D3EAF2" mask="url(#mask-2)"></path>
                <path d="M424.317,575.203 C422.344,575.203 420.746,573.603 420.746,571.631 L420.746,548.765 C420.746,546.792 422.344,545.192 424.317,545.192 C426.29,545.192 427.889,546.792 427.889,548.765 L427.889,571.631 C427.889,573.603 426.29,575.203 424.317,575.203" id="Fill-138" fill="#1B61DD" mask="url(#mask-2)"></path>
                <path d="M438.191,575.203 C436.218,575.203 434.62,573.603 434.62,571.631 L434.62,548.765 C434.62,546.792 436.218,545.192 438.191,545.192 C440.164,545.192 441.762,546.792 441.762,548.765 L441.762,571.631 C441.762,573.603 440.164,575.203 438.191,575.203" id="Fill-139" fill="#81C3D3" mask="url(#mask-2)"></path>
                <path d="M452.065,575.203 C450.092,575.203 448.493,573.603 448.493,571.631 L448.493,548.765 C448.493,546.792 450.092,545.192 452.065,545.192 C454.037,545.192 455.636,546.792 455.636,548.765 L455.636,571.631 C455.636,573.603 454.037,575.203 452.065,575.203" id="Fill-140" fill="#81C3D3" mask="url(#mask-2)"></path>
                <path d="M465.938,575.203 C463.965,575.203 462.367,573.603 462.367,571.631 L462.367,548.765 C462.367,546.792 463.965,545.192 465.938,545.192 C467.911,545.192 469.51,546.792 469.51,548.765 L469.51,571.631 C469.51,573.603 467.911,575.203 465.938,575.203" id="Fill-141" fill="#81C3D3" mask="url(#mask-2)"></path>
                <path d="M479.812,575.203 C477.839,575.203 476.241,573.603 476.241,571.631 L476.241,548.765 C476.241,546.792 477.839,545.192 479.812,545.192 C481.785,545.192 483.383,546.792 483.383,548.765 L483.383,571.631 C483.383,573.603 481.785,575.203 479.812,575.203" id="Fill-142" fill="#81C3D3" mask="url(#mask-2)"></path>
                <path d="M396.57,622.1382 C394.597,622.1382 392.999,620.5382 392.999,618.5662 L392.999,595.6992 C392.999,593.7272 394.597,592.1272 396.57,592.1272 C398.543,592.1272 400.141,593.7272 400.141,595.6992 L400.141,618.5662 C400.141,620.5382 398.543,622.1382 396.57,622.1382" id="Fill-143" fill="#81C3D3" mask="url(#mask-2)"></path>
                <path d="M410.444,622.1382 C408.471,622.1382 406.872,620.5382 406.872,618.5662 L406.872,595.6992 C406.872,593.7272 408.471,592.1272 410.444,592.1272 C412.416,592.1272 414.015,593.7272 414.015,595.6992 L414.015,618.5662 C414.015,620.5382 412.416,622.1382 410.444,622.1382" id="Fill-144" fill="#81C3D3" mask="url(#mask-2)"></path>
                <path d="M424.317,622.1382 C422.344,622.1382 420.746,620.5382 420.746,618.5662 L420.746,595.6992 C420.746,593.7272 422.344,592.1272 424.317,592.1272 C426.29,592.1272 427.889,593.7272 427.889,595.6992 L427.889,618.5662 C427.889,620.5382 426.29,622.1382 424.317,622.1382" id="Fill-145" fill="#81C3D3" mask="url(#mask-2)"></path>
                <path d="M438.191,622.1382 C436.218,622.1382 434.62,620.5382 434.62,618.5662 L434.62,595.6992 C434.62,593.7272 436.218,592.1272 438.191,592.1272 C440.164,592.1272 441.762,593.7272 441.762,595.6992 L441.762,618.5662 C441.762,620.5382 440.164,622.1382 438.191,622.1382" id="Fill-146" fill="#D3EAF2" mask="url(#mask-2)"></path>
                <path d="M452.065,622.1382 C450.092,622.1382 448.493,620.5382 448.493,618.5662 L448.493,595.6992 C448.493,593.7272 450.092,592.1272 452.065,592.1272 C454.037,592.1272 455.636,593.7272 455.636,595.6992 L455.636,618.5662 C455.636,620.5382 454.037,622.1382 452.065,622.1382" id="Fill-147" fill="#81C3D3" mask="url(#mask-2)"></path>
                <path d="M465.938,622.1382 C463.965,622.1382 462.367,620.5382 462.367,618.5662 L462.367,595.6992 C462.367,593.7272 463.965,592.1272 465.938,592.1272 C467.911,592.1272 469.51,593.7272 469.51,595.6992 L469.51,618.5662 C469.51,620.5382 467.911,622.1382 465.938,622.1382" id="Fill-148" fill="#1B61DD" mask="url(#mask-2)"></path>
                <path d="M479.812,622.1382 C477.839,622.1382 476.241,620.5382 476.241,618.5662 L476.241,595.6992 C476.241,593.7272 477.839,592.1272 479.812,592.1272 C481.785,592.1272 483.383,593.7272 483.383,595.6992 L483.383,618.5662 C483.383,620.5382 481.785,622.1382 479.812,622.1382" id="Fill-149" fill="#D3EAF2" mask="url(#mask-2)"></path>
                <path d="M396.57,669.0737 C394.597,669.0737 392.999,667.4737 392.999,665.5017 L392.999,642.6347 C392.999,640.6617 394.597,639.0627 396.57,639.0627 C398.543,639.0627 400.141,640.6617 400.141,642.6347 L400.141,665.5017 C400.141,667.4737 398.543,669.0737 396.57,669.0737" id="Fill-150" fill="#81C3D3" mask="url(#mask-2)"></path>
                <path d="M410.444,669.0737 C408.471,669.0737 406.872,667.4737 406.872,665.5017 L406.872,642.6347 C406.872,640.6617 408.471,639.0627 410.444,639.0627 C412.416,639.0627 414.015,640.6617 414.015,642.6347 L414.015,665.5017 C414.015,667.4737 412.416,669.0737 410.444,669.0737" id="Fill-151" fill="#81C3D3" mask="url(#mask-2)"></path>
                <path d="M424.317,669.0737 C422.344,669.0737 420.746,667.4737 420.746,665.5017 L420.746,642.6347 C420.746,640.6617 422.344,639.0627 424.317,639.0627 C426.29,639.0627 427.889,640.6617 427.889,642.6347 L427.889,665.5017 C427.889,667.4737 426.29,669.0737 424.317,669.0737" id="Fill-152" fill="#81C3D3" mask="url(#mask-2)"></path>
                <path d="M438.191,669.0737 C436.218,669.0737 434.62,667.4737 434.62,665.5017 L434.62,642.6347 C434.62,640.6617 436.218,639.0627 438.191,639.0627 C440.164,639.0627 441.762,640.6617 441.762,642.6347 L441.762,665.5017 C441.762,667.4737 440.164,669.0737 438.191,669.0737" id="Fill-153" fill="#81C3D3" mask="url(#mask-2)"></path>
                <path d="M452.065,669.0737 C450.092,669.0737 448.493,667.4737 448.493,665.5017 L448.493,642.6347 C448.493,640.6617 450.092,639.0627 452.065,639.0627 C454.037,639.0627 455.636,640.6617 455.636,642.6347 L455.636,665.5017 C455.636,667.4737 454.037,669.0737 452.065,669.0737" id="Fill-154" fill="#81C3D3" mask="url(#mask-2)"></path>
                <path d="M465.938,669.0737 C463.965,669.0737 462.367,667.4737 462.367,665.5017 L462.367,642.6347 C462.367,640.6617 463.965,639.0627 465.938,639.0627 C467.911,639.0627 469.51,640.6617 469.51,642.6347 L469.51,665.5017 C469.51,667.4737 467.911,669.0737 465.938,669.0737" id="Fill-155" fill="#81C3D3" mask="url(#mask-2)"></path>
                <path d="M479.812,669.0737 C477.839,669.0737 476.241,667.4737 476.241,665.5017 L476.241,642.6347 C476.241,640.6617 477.839,639.0627 479.812,639.0627 C481.785,639.0627 483.383,640.6617 483.383,642.6347 L483.383,665.5017 C483.383,667.4737 481.785,669.0737 479.812,669.0737" id="Fill-156" fill="#81C3D3" mask="url(#mask-2)"></path>
                <path d="M491.977,466.327 C491.977,462.786 494.848,459.915 498.389,459.915 C501.93,459.915 504.8,462.786 504.8,466.327 C504.8,469.868 501.93,472.738 498.389,472.738 C494.848,472.738 491.977,469.868 491.977,466.327" id="Fill-157" fill="#81C3D3" mask="url(#mask-2)"></path>
                <path d="M511.955,466.327 C511.955,462.786 514.826,459.915 518.367,459.915 C521.908,459.915 524.778,462.786 524.778,466.327 C524.778,469.868 521.908,472.738 518.367,472.738 C514.826,472.738 511.955,469.868 511.955,466.327" id="Fill-158" fill="#D3EAF2" mask="url(#mask-2)"></path>
                <path d="M491.977,513.262 C491.977,509.721 494.848,506.85 498.389,506.85 C501.93,506.85 504.8,509.721 504.8,513.262 C504.8,516.803 501.93,519.673 498.389,519.673 C494.848,519.673 491.977,516.803 491.977,513.262" id="Fill-159" fill="#D3EAF2" mask="url(#mask-2)"></path>
                <path d="M511.955,513.262 C511.955,509.721 514.826,506.85 518.367,506.85 C521.908,506.85 524.778,509.721 524.778,513.262 C524.778,516.803 521.908,519.673 518.367,519.673 C514.826,519.673 511.955,516.803 511.955,513.262" id="Fill-160" fill="#81C3D3" mask="url(#mask-2)"></path>
                <path d="M491.977,560.198 C491.977,556.657 494.848,553.786 498.389,553.786 C501.93,553.786 504.8,556.657 504.8,560.198 C504.8,563.738 501.93,566.609 498.389,566.609 C494.848,566.609 491.977,563.738 491.977,560.198" id="Fill-161" fill="#1B61DD" mask="url(#mask-2)"></path>
                <path d="M511.955,560.198 C511.955,556.657 514.826,553.786 518.367,553.786 C521.908,553.786 524.778,556.657 524.778,560.198 C524.778,563.738 521.908,566.609 518.367,566.609 C514.826,566.609 511.955,563.738 511.955,560.198" id="Fill-162" fill="#81C3D3" mask="url(#mask-2)"></path>
                <path d="M491.977,607.1323 C491.977,603.5923 494.848,600.7213 498.389,600.7213 C501.93,600.7213 504.8,603.5923 504.8,607.1323 C504.8,610.6733 501.93,613.5443 498.389,613.5443 C494.848,613.5443 491.977,610.6733 491.977,607.1323" id="Fill-163" fill="#81C3D3" mask="url(#mask-2)"></path>
                <path d="M511.955,607.1323 C511.955,603.5923 514.826,600.7213 518.367,600.7213 C521.908,600.7213 524.778,603.5923 524.778,607.1323 C524.778,610.6733 521.908,613.5443 518.367,613.5443 C514.826,613.5443 511.955,610.6733 511.955,607.1323" id="Fill-164" fill="#81C3D3" mask="url(#mask-2)"></path>
                <path d="M491.977,654.0679 C491.977,650.5269 494.848,647.6569 498.389,647.6569 C501.93,647.6569 504.8,650.5269 504.8,654.0679 C504.8,657.6089 501.93,660.4799 498.389,660.4799 C494.848,660.4799 491.977,657.6089 491.977,654.0679" id="Fill-165" fill="#81C3D3" mask="url(#mask-2)"></path>
                <path d="M511.955,654.0679 C511.955,650.5269 514.826,647.6569 518.367,647.6569 C521.908,647.6569 524.778,650.5269 524.778,654.0679 C524.778,657.6089 521.908,660.4799 518.367,660.4799 C514.826,660.4799 511.955,657.6089 511.955,654.0679" id="Fill-166" fill="#1B61DD" mask="url(#mask-2)"></path>
                <polygon id="Fill-167" fill="#FFFFFF" mask="url(#mask-2)" points="381.801 410.081 533.598 410.081 514.388 375.748 398.725 375.748"></polygon>
            </g>
            <path d="M640.269,254.18 C655.513,253.086 670.788,252.126 686.183,251.818 C701.575,251.502 717.049,251.637 732.596,252.53 C748.136,253.418 763.763,255.097 779.27,257.741 C794.779,260.324 810.115,264.097 824.847,268.207 C839.593,272.31 853.629,276.682 867.369,279.809 C870.814,280.645 874.24,281.297 877.673,282.004 C881.107,282.6 884.536,283.258 887.981,283.711 C891.416,284.264 894.881,284.598 898.337,285.003 C900.068,285.194 901.813,285.293 903.55,285.446 C905.29,285.578 907.024,285.756 908.779,285.81 C912.28,285.97 915.773,286.185 919.305,286.187 L924.592,286.266 L929.909,286.18 C933.447,286.171 937.014,285.982 940.578,285.817 C944.279,285.681 947.379,285.449 950.609,285.083 C963.405,283.573 975.388,279.747 985.519,273.262 C995.67,266.82 1003.97,257.696 1010.02,246.749 C1016.07,235.81 1019.9,223.176 1021.53,210.189 C1024.88,184.216 1018.92,157.272 1003.47,137.174 C995.78,127.08 985.833,118.612 974.429,112.024 C963.036,105.407 950.255,100.628 936.89,97.406 C923.516,94.167 909.553,92.464 895.425,91.885 C881.285,91.336 866.97,91.893 852.661,93.312 L849.527,63.899 C864.98,62.158 880.638,61.318 896.423,61.718 C912.202,62.155 928.126,63.839 943.912,67.431 C959.672,71.013 975.338,76.529 989.971,84.753 C997.29,88.836 1004.3,93.655 1010.85,99.118 C1017.39,104.597 1023.42,110.795 1028.75,117.575 C1039.43,131.143 1047.06,147.128 1051.19,163.66 C1053.28,171.933 1054.61,180.276 1055.12,188.831 C1055.63,197.315 1055.36,205.74 1054.41,214.111 C1052.48,230.818 1047.79,247.438 1039.53,262.832 C1035.39,270.507 1030.33,277.826 1024.37,284.452 C1018.41,291.08 1011.54,296.99 1004.04,301.883 C996.55,306.787 988.449,310.664 980.148,313.539 C971.842,316.441 963.337,318.268 954.886,319.396 C950.685,319.931 946.321,320.279 942.545,320.474 C938.636,320.711 934.732,320.968 930.785,321.041 L924.878,321.216 L918.94,321.216 C914.987,321.262 911.004,321.086 907.027,320.956 C905.04,320.916 903.045,320.749 901.052,320.625 C899.06,320.482 897.066,320.388 895.074,320.2 C891.09,319.799 887.099,319.458 883.133,318.885 C879.151,318.411 875.215,317.726 871.267,317.089 C867.359,316.35 863.422,315.647 859.58,314.777 C844.075,311.459 829.445,307.101 815.299,303.394 C801.148,299.666 787.321,296.484 773.261,294.346 C759.225,292.159 745.022,290.827 730.667,290.21 C716.317,289.589 701.835,289.663 687.305,290.166 C672.773,290.66 658.174,291.787 643.578,293.039 L640.269,254.18 Z" id="Fill-169" fill="#D3EAF2"></path>
            <path d="M918.94,321.216 L924.878,321.216 L930.785,321.041 C934.732,320.968 938.636,320.712 942.545,320.474 C946.321,320.279 950.685,319.932 954.886,319.397 C963.337,318.269 971.842,316.442 980.148,313.54 C988.449,310.665 996.55,306.788 1004.04,301.883 C1008.09,299.242 1011.95,296.296 1015.58,293.11 C985.293,311.681 942.476,318.007 899.392,313.277 C881.328,311.293 862.562,309.091 847.548,303.595 C756.725,270.353 696.354,279.777 696.354,279.777 L694.836,289.95 C706.838,289.664 718.798,289.697 730.668,290.211 C745.022,290.827 759.225,292.159 773.261,294.346 C787.321,296.485 801.148,299.667 815.299,303.394 C829.445,307.101 844.075,311.459 859.58,314.777 C863.422,315.647 867.359,316.35 871.267,317.089 C875.215,317.726 879.151,318.412 883.133,318.885 C887.099,319.459 891.09,319.799 895.074,320.2 C897.066,320.389 899.06,320.482 901.052,320.626 C903.045,320.749 905.041,320.917 907.027,320.956 C911.004,321.087 914.987,321.262 918.94,321.216" id="Fill-170" fill="#81C3D3"></path>
            <path d="M702.413,253.11 C686.08,272.277 697.557,287.079 704.652,287.261 L725.58,282.943 L725.58,278.636 C725.58,278.636 700.747,280.443 702.413,253.11" id="Fill-171" fill="#81C3D3"></path>
            <polygon id="Fill-172" fill="#AFD2DB" points="514.611 156.066 541.079 151.812 618.043 208.579 615.095 330.685 530.828 388.894 508.116 383.896"></polygon>
            <path d="M389.212,261.055 C384.03,261.055 379.569,257.153 378.99,251.882 C378.369,246.23 382.448,241.144 388.101,240.523 L511.41,226.976 C517.045,226.36 522.148,230.432 522.77,236.087 C523.391,241.738 519.312,246.824 513.658,247.445 L390.349,260.993 C389.968,261.034 389.588,261.055 389.212,261.055" id="Fill-173" fill="#FFFFFF"></path>
            <path d="M402.751,349.925 C397.569,349.925 393.108,346.023 392.529,340.752 C391.908,335.1 395.987,330.014 401.64,329.393 L524.949,315.845 C530.588,315.235 535.687,319.303 536.309,324.956 C536.93,330.608 532.851,335.694 527.197,336.315 L403.888,349.863 C403.507,349.904 403.127,349.925 402.751,349.925" id="Fill-174" fill="#FFFFFF"></path>
            <polygon id="Fill-175" fill="#AFD2DB" points="238.652 211.172 264.068 425.529 294.289 429.366 368.529 367.59 350.52 234.83 267.736 194.724"></polygon>
            <path d="M261.104,400.529 C297.644,376.635 321.051,335.569 321.051,335.569 L323.392,316.093 C323.392,316.093 310.786,312.321 287.786,327.654 C280.297,332.647 266.16,340.39 255.716,355.091 L261.104,400.529 Z" id="Fill-176" fill="#81C3D3"></path>
            <path d="M288.599,295.789 L287.786,292.538 L310.015,288.587 C313.28,288.006 316.64,288.951 319.083,291.193 C323.014,294.801 328.345,301.151 329.512,309.788 C330.627,318.039 328.252,325.553 326.12,330.323 C324.664,333.581 321.688,335.895 318.172,336.507 L299.267,339.798 L288.599,295.789 Z" id="Fill-177" fill="#D3EAF2"></path>
            <path d="M282.097,303.105 L279.568,299.085 C279.568,299.085 281.621,293.951 287.786,292.538 C294.289,291.048 307.292,292.809 310.815,310.556 C313.886,326.028 309.388,337.21 299.268,339.799 C293.443,341.289 288.559,336.034 288.559,336.034 L282.097,303.105 Z" id="Fill-178" fill="#62A7BF"></path>
            <polygon id="Fill-179" fill="#62A7BF" points="422.72 326.948 457.944 354.043 378.826 417.445 294.289 429.366 368.53 367.59"></polygon>
            <polygon id="Fill-180" fill="#FFFFFF" points="350.52 234.831 439.913 226.914 362.568 190.39 267.736 194.725"></polygon>
            <polygon id="Fill-181" fill="#D3EAF2" points="439.913 226.914 457.943 354.043 368.529 367.59 350.52 234.831"></polygon>
            <path d="M305.068,314.452 C304.027,302.096 292.86,295.881 281.105,298.622 C268.789,301.495 252.442,306.276 234.023,314.141 C197.921,329.556 146.216,360.383 104.913,419.706 C71.7072,467.397 53.2092,535.741 49.9332,622.8388 C49.8262,625.6768 49.6942,628.4898 49.5412,631.2778 C66.0592,631.6498 82.5812,632.0998 99.098,632.3538 C95.144,570.203 99.804,493.428 136.043,441.381 C164.767,400.125 202.281,369.252 247.542,349.618 C264.523,342.253 279.49,337.931 290.272,335.445 C299.715,333.268 306.109,326.808 305.068,314.452" id="Fill-182" fill="#D3EAF2"></path>
            <path d="M165.642,360.527 C165.642,360.527 165.892,386.277 175.142,390.277 C180.892,391.777 194.698,371.687 194.698,371.687 L165.642,360.527 Z" id="Fill-183" fill="#81C3D3"></path>
            <path d="M290.272,335.445 C299.715,333.268 306.109,326.808 305.068,314.452 C305,313.647 304.887,312.87 304.736,312.118 C301.347,318.223 294.991,325.745 283.392,329.287 C262.142,335.777 210.142,351.777 163.892,396.027 C117.642,440.277 105.725,467.277 91.3273,517.277 C76.2563,569.607 82.8923,621.8939 82.8923,621.8939 L98.797,627.2999 C95.418,566.084 100.781,492.025 136.043,441.381 C164.767,400.125 202.281,369.252 247.542,349.618 C264.523,342.253 279.49,337.931 290.272,335.445" id="Fill-184" fill="#81C3D3"></path>
            <path d="M214.767,324.901 C214.767,324.901 212.371,351.044 237.569,346.348 C230.267,351.276 225.142,360.026 225.142,360.026 L214.705,361.776 L201.142,345.026 L214.767,324.901 Z" id="Fill-185" fill="#81C3D3"></path>
            <circle id="Oval" fill="#FFE4BC" cx="81" cy="635" r="81"></circle>
            <g id="Group-2" transform="translate(39.000000, 576.000000)" fill-rule="nonzero">
                <g id="Group">
                    <path d="M41.6000006,72.8000013 C23.8112004,72.8000013 8.29200012,82.4640015 0,96.8000013 C8.29200012,111.136002 23.8112004,120.800001 41.6000006,120.800001 C59.3888009,120.800001 74.9080011,111.136002 83.2000012,96.8000013 C74.8616011,82.4640015 59.3888009,72.8000013 41.6000006,72.8000013 Z" id="Path" stroke="#2D2952" stroke-width="3.84000006" fill="#FFE64C"></path>
                    <path d="M41.7400006,71.9999949 C35.6703019,72.0008224 29.6540331,73.1340785 24.0000004,75.3416014 L24.0000004,84.9024015 C24.0000004,94.5560016 31.9360005,102.400002 41.6000006,102.400002 L41.6000006,102.400002 C51.3104008,102.400002 59.2000009,94.5096016 59.2000009,84.9024015 L59.2000009,75.2488014 C53.6301524,73.0983931 47.7105499,71.9969266 41.7400006,71.9999949 L41.7400006,71.9999949 Z" id="Path" stroke="#2D2952" stroke-width="3.84000006" fill="#F5CEB7"></path>
                    <circle id="Oval" stroke="#2D2952" stroke-width="3.84000006" fill="#F5CEB7" cx="68.400001" cy="35.6000008" r="7.60000011"></circle>
                    <circle id="Oval" stroke="#2D2952" stroke-width="3.84000006" fill="#F5CEB7" cx="14.8000002" cy="35.6000008" r="7.60000011"></circle>
                    <path d="M41.2000005,86.4000015 L41.2000005,86.4000015 C35.6856005,86.4000015 31.2000005,81.9736015 31.2000005,76.5336014 L31.2000005,56.8000011 L51.2000005,56.8000011 L51.2000005,76.5336014 C51.2000005,81.9736015 46.7144007,86.4000015 41.2000005,86.4000015 Z" id="Path" stroke="#2D2952" stroke-width="3.84000006" fill="#F5CEB7"></path>
                    <path d="M45.6000007,83.2000015 C47.9808007,81.7680015 49.6000007,79.2280014 49.6000007,76.3192014 L49.6000007,58.4000011 L47.9336007,58.4000011 L47.9336007,76.3192014 C47.9336007,78.8592014 47.0760007,81.2144014 45.6000007,83.2000015 Z" id="Path" fill="#F09783"></path>
                    <path d="M42.7280006,66.4000012 L39.6720006,66.4000012 C25.7872004,66.4000012 14.4000002,55.0352011 14.4000002,41.1760009 L14.4000002,26.0240006 C14.4000002,12.1648004 25.7864004,0.80000025 39.6720006,0.80000025 L42.7280006,0.80000025 C56.6128008,0.80000025 68.000001,12.1648004 68.000001,26.0240006 L68.000001,41.1760009 C68.000001,55.0816011 56.6136008,66.4000012 42.7280006,66.4000012 Z" id="Path" stroke="#2D2952" stroke-width="3.84000006" fill="#F5CEB7"></path>
                    <path d="M66.400001,25.9912006 C66.400001,15.9232005 60.0896009,7.29440035 51.2000008,4.0000003 C58.0168009,9.01040037 62.4384009,17.0832005 62.4384009,25.9912006 L62.4384009,41.2088009 C62.4384009,50.116801 58.0168009,58.2360011 51.2000008,63.2000012 C60.0440009,59.8592011 66.400001,51.276801 66.400001,41.2088009 L66.400001,25.9912006 Z" id="Path" fill="#F09783"></path>
                    <path d="M66.291201,79.2000014 L66.291201,113.600002 C73.2864463,109.382665 79.1027124,103.466232 83.2000012,96.4000017 C79.0768012,89.3528016 73.2864011,83.4192015 66.291201,79.2000014 L66.291201,79.2000014 Z M0,96.4000017 C4.09728882,103.466232 9.9135549,109.382665 16.9088003,113.600002 L16.9088003,79.2000014 C9.9135549,83.4173385 4.09728882,89.3337711 0,96.4000017 L0,96.4000017 Z" id="Shape" stroke="#2D2952" stroke-width="3.84000006" fill="#F5CEB7"></path>
                    <path d="M66.291201,79.2000014 L66.291201,113.600002 C73.2864463,109.382665 79.1027124,103.466232 83.2000012,96.4000017 C79.0768012,89.3528016 73.2864011,83.4192015 66.291201,79.2000014 L66.291201,79.2000014 Z M0,96.4000017 C4.09728882,103.466232 9.9135549,109.382665 16.9088003,113.600002 L16.9088003,79.2000014 C9.9135549,83.4173385 4.09728882,89.3337711 0,96.4000017 L0,96.4000017 Z" id="Shape" stroke="#2D2952" stroke-width="3.84000006" fill="#F5CEB7"></path>
                    <line x1="40.8000006" y1="102.400002" x2="40.8000006" y2="98.4000017" id="Path" stroke="#2D2952" stroke-width="3.84000006" fill="#F5CEB7"></line>
                    <path d="M43.0320006,2.38418579e-07 L39.9744006,2.38418579e-07 C30.2928005,2.38418579e-07 21.8624003,5.57600032 17.6000003,13.6816004 C20.1016003,16.3056005 21.1200003,21.6000006 25.1504004,21.6000006 C30.5240005,21.6000006 30.5240005,12.2288004 35.8512005,12.2288004 C41.2248006,12.2288004 41.2248006,21.6000006 46.5520007,21.6000006 C51.9256008,21.6000006 51.9256008,12.2288004 57.2528009,12.2288004 C62.6264009,12.2288004 62.6264009,21.6000006 67.953601,21.6000006 L68.000001,21.5528006 C66.100801,9.37120038 55.5856008,2.38418579e-07 43.0320006,2.38418579e-07 Z" id="Path" stroke="#2D2952" stroke-width="3.84000006" fill="#A8836D"></path>
                </g>
                <path d="M42.2756454,48.3674197 C42.2756454,48.3674197 36.6882883,46.7654845 35.7575225,51.5712901 C34.8260661,56.3770957 27.7265598,52.2581284 32.1490786,49.2832042 C32.1490786,49.2832042 26.2130296,49.5114627 28.5413252,55.6909449 C30.8689303,61.8697396 39.7146583,58.2072895 40.9948066,54.3172683 C42.2756454,50.4272471 43.6717942,52.7153331 44.9526329,55.0041066 C46.2327812,57.2921926 51.0046824,59.1230739 54.8451273,56.3770957 C58.6862627,53.6311175 56.8240405,49.3973334 53.68167,49.625592 C53.68167,49.625592 55.6598927,50.9992686 53.7976705,53.1732253 C51.9354483,55.347182 48.7930778,50.3131179 47.745621,49.0542581 C46.6981642,47.7960858 43.5557937,47.7960858 42.2756454,48.3674197" id="Path" fill="#2D2118"></path>
                <path d="M57.2651858,44.073696 C52.3260583,46.0176558 45.6895405,44.073696 45.5358014,37.2691166 C45.3813667,30.4645371 51.2464068,30.4645371 60.5062274,33.2184802 C62.1131829,33.6958304 62.2043133,42.1297362 57.2651858,44.073696 L57.2651858,44.073696 Z M36.4638068,37.2691166 C36.3093721,44.073696 29.6728543,46.0176558 24.7344224,44.073696 C19.7952949,42.1297362 19.8871209,33.6958304 21.4926852,33.2184802 C30.7532015,30.4645371 36.6182415,30.4645371 36.4638068,37.2691166 L36.4638068,37.2691166 Z M64.6745727,32.408497 C62.9897042,30.6394935 49.0446689,26.8610116 44.7970193,30.5840547 C40.7385869,31.5949138 38.38311,31.101004 37.3695454,30.7352515 C33.3312869,26.7587737 19.0328606,30.616454 17.3257312,32.408497 C16.4944273,33.281119 17.4801659,37.1071199 17.7890352,37.5923899 C18.0979046,38.0790998 19.0238171,37.1071199 19.0238171,38.2410965 C19.0238171,39.3750731 19.0238171,47.3143491 28.2843334,46.9903558 C35.0418946,46.7534806 38.429023,41.9447 38.866588,37.0956002 C40.6391087,35.2308387 42.1319774,35.845706 43.1072811,36.7586471 C43.4161505,41.7193446 46.801192,46.7477208 53.7159705,46.9896358 C62.9764868,47.3136291 62.9764868,39.3750731 62.9764868,38.2410965 C62.9764868,37.1071199 63.9030949,38.0790998 64.2112686,37.5931099 C64.520138,37.1071199 65.5051809,33.280399 64.6745727,32.408497 L64.6745727,32.408497 Z" id="Shape" fill="#30231A"></path>
            </g>
            <polygon id="Fill-189" fill="#FFFFFF" points="541.079 151.813 638.033 155.908 705.604 212.729 618.043 208.58"></polygon>
            <polygon id="Fill-190" fill="#D3EAF2" points="618.043 208.58 615.096 330.686 704.041 335.025 705.605 212.728"></polygon>
            <polygon id="Fill-191" fill="#62A7BF" points="615.096 330.686 530.828 388.894 615.784 388.894 704.041 335.025"></polygon>
            <path d="M577.085,229.911 C577.085,238.283 570.299,245.069 561.927,245.069 C553.556,245.069 546.769,238.283 546.769,229.911 C546.769,221.539 553.556,214.753 561.927,214.753 C570.299,214.753 577.085,221.539 577.085,229.911" id="Fill-192" fill="#62A7BF"></path>
            <path d="M565.991,215.32 C559.596,217.098 554.897,222.949 554.897,229.911 C554.897,236.872 559.596,242.723 565.991,244.501 C572.386,242.723 577.085,236.872 577.085,229.911 C577.085,222.949 572.386,217.098 565.991,215.32" id="Fill-193" fill="#2E6B8E"></path>
            <path d="M577.085,312.217 C577.085,320.589 570.299,327.375 561.927,327.375 C553.556,327.375 546.769,320.589 546.769,312.217 C546.769,303.845 553.556,297.059 561.927,297.059 C570.299,297.059 577.085,303.845 577.085,312.217" id="Fill-194" fill="#62A7BF"></path>
            <path d="M565.991,297.627 C559.596,299.405 554.897,305.256 554.897,312.217 C554.897,319.179 559.596,325.03 565.991,326.808 C572.386,325.03 577.085,319.179 577.085,312.217 C577.085,305.256 572.386,299.405 565.991,297.627" id="Fill-195" fill="#2E6B8E"></path>
            <path d="M228.861,316.568 C228.861,316.568 214.964,305.995 206.642,297.982 C198.32,289.969 202.392,268.776 202.392,268.776 L152.797,281.221 C152.797,281.221 152.18,293.299 154.865,311.261 C157.55,329.224 142.392,350.614 177.288,378.157 C217.686,403.449 229.73,358.134 229.73,358.134 C229.73,358.134 213.406,356.545 213.058,340.064 C212.681,322.154 228.861,316.568 228.861,316.568" id="Fill-196" fill="#FDBDB4"></path>
            <path d="M147.71,268.282 L145.55,272.782 L146.15,293.498 C169.191,298.882 196.466,297.117 209.594,285.075 L209.917,265.662 L147.71,268.282 Z" id="Fill-197" fill="#FFFFFF"></path>
            <path d="M155.79,84.979 C155.79,84.979 136.35,141.765 138.893,274.523 C165.65,282.491 205.245,277.538 215.423,265.75 C215.423,265.75 215.686,165.876 253.091,72.13 C253.091,72.13 198.546,40.153 155.79,84.979" id="Fill-198" fill="#FFBB43"></path>
            <path d="M820.776,0.016 C819.111,0.099 817.463,0.516 815.962,1.234 L750.27,32.621 C746.885,34.239 744.311,37.439 743.474,41.073 L727.267,111.578 C726.522,114.816 727.151,118.344 728.972,121.131 C729.195,121.472 729.433,121.803 729.687,122.121 L775.156,178.656 C777.501,181.569 781.219,183.345 784.978,183.343002 L857.893,183.326 C861.65,183.329 865.369,181.557 867.714,178.646 L913.167,122.105 C915.511,119.191 916.431,115.197 915.593,111.561 L899.364,41.057 C898.526,37.422 895.952,34.222 892.566,32.604 L826.867,1.234 C824.982,0.332 822.866,-0.09 820.776,0.016" id="Fill-199" fill="#326CE5"></path>
            <path d="M821.428,24.008 C819.256,24.008 817.494,25.965 817.495,28.377 C817.495,28.415 817.502,28.45 817.504,28.487 C817.501,28.814 817.486,29.209 817.495,29.495 C817.547,30.887 817.85,31.951 818.032,33.234 C818.364,35.977 818.641,38.253 818.47,40.366 C818.303,41.164 817.716,41.893 817.193,42.4 L817.101,44.063 C814.741,44.258 812.365,44.616 809.992,45.154 C799.783,47.473 790.993,52.732 784.301,59.832 C783.866,59.536 783.108,58.991 782.882,58.824 C782.179,58.919 781.469,59.135 780.545,58.597 C778.786,57.413 777.183,55.777 775.244,53.808 C774.356,52.867 773.712,51.969 772.657,51.061 C772.417,50.855 772.052,50.576 771.782,50.363 C770.958,49.706 769.985,49.363 769.044,49.331 C767.835,49.289 766.672,49.761 765.91,50.717 C764.556,52.414 764.99,55.009 766.877,56.514 C766.896,56.529 766.916,56.541 766.935,56.556 C767.195,56.766 767.512,57.035 767.75,57.211 C768.871,58.038 769.894,58.462 771.009,59.118 C773.362,60.57 775.312,61.775 776.858,63.227 C777.461,63.87 777.567,65.004 777.647,65.495 L778.907,66.62 C772.16,76.773 769.039,89.313 770.883,102.091 L769.238,102.571 C768.803,103.131 768.19,104.013 767.549,104.276 C765.525,104.913 763.248,105.148 760.5,105.435 C759.209,105.543 758.096,105.479 756.727,105.738 C756.427,105.795 756.006,105.904 755.677,105.981 C755.666,105.984 755.656,105.987 755.644,105.99 C755.625,105.994 755.602,106.002 755.585,106.006 C753.268,106.567 751.78,108.697 752.258,110.795 C752.738,112.895 755,114.171 757.332,113.669 C757.35,113.665 757.374,113.665 757.392,113.66 C757.417,113.654 757.441,113.641 757.467,113.635 C757.791,113.563 758.199,113.485 758.484,113.408 C759.829,113.048 760.803,112.519 762.012,112.055 C764.614,111.123 766.768,110.343 768.867,110.039 C769.744,109.97 770.668,110.581 771.128,110.837 L772.842,110.543 C776.785,122.771 785.05,132.654 795.517,138.856 L794.803,140.571 C795.06,141.236 795.345,142.136 795.154,142.794 C794.389,144.772 793.081,146.861 791.593,149.19 C790.872,150.266 790.134,151.101 789.485,152.332 C789.328,152.626 789.13,153.079 788.981,153.39 C787.97,155.552 788.711,158.044 790.653,158.977 C792.607,159.919 795.032,158.926 796.08,156.76 C796.081,156.756 796.086,156.755 796.088,156.751 C796.089,156.75 796.088,156.745 796.088,156.743 C796.238,156.436 796.45,156.031 796.576,155.743 C797.133,154.466 797.318,153.373 797.71,152.139 C798.75,149.526 799.323,146.783 800.753,145.075 C801.146,144.608 801.785,144.427 802.449,144.25 L803.339,142.636 C812.463,146.139 822.676,147.079 832.878,144.763 C835.206,144.234 837.453,143.55 839.624,142.73 C839.875,143.174 840.34,144.027 840.464,144.242 C841.138,144.461 841.873,144.574 842.472,145.46 C843.543,147.29 844.276,149.456 845.168,152.072 C845.561,153.306 845.754,154.4 846.312,155.676 C846.438,155.967 846.649,156.377 846.799,156.684 C847.845,158.858 850.278,159.853 852.235,158.91 C854.175,157.976 854.917,155.485 853.906,153.323 C853.756,153.012 853.549,152.559 853.394,152.265 C852.742,151.034 852.006,150.207 851.284,149.132 C849.795,146.803 848.562,144.868 847.798,142.888 C847.479,141.868 847.852,141.233 848.101,140.571 C847.951,140.4 847.634,139.436 847.446,138.982 C858.323,132.56 866.345,122.308 870.113,110.468 C870.62,110.548 871.505,110.704 871.793,110.762 C872.384,110.372 872.927,109.863 873.994,109.947 C876.093,110.25 878.248,111.03 880.85,111.964 C882.059,112.427 883.032,112.965 884.378,113.324 C884.663,113.401 885.07,113.471 885.394,113.543 C885.42,113.549 885.445,113.562 885.471,113.568 C885.488,113.571 885.513,113.573 885.53,113.576 C887.861,114.078 890.125,112.802 890.603,110.703 C891.082,108.604 889.595,106.473 887.277,105.914 C886.94,105.838 886.461,105.707 886.135,105.645 C884.766,105.386 883.653,105.451 882.362,105.343 C879.613,105.054 877.337,104.821 875.313,104.184 C874.489,103.863 873.902,102.882 873.616,102.477 L872.029,102.015 C872.851,96.059 872.629,89.861 871.205,83.658 C869.766,77.399 867.226,71.673 863.837,66.63 C864.243,66.259 865.013,65.578 865.231,65.377 C865.295,64.672 865.24,63.932 865.971,63.151 C867.516,61.699 869.467,60.495 871.819,59.042 C872.934,58.385 873.965,57.963 875.086,57.136 C875.34,56.948 875.686,56.652 875.952,56.438 C877.838,54.933 878.272,52.34 876.918,50.64 C875.563,48.943 872.94,48.783 871.054,50.289 C870.784,50.502 870.421,50.779 870.18,50.986 C869.124,51.894 868.472,52.791 867.583,53.733 C865.645,55.702 864.041,57.346 862.282,58.53 C861.52,58.974 860.403,58.82 859.896,58.79 L858.401,59.857 C849.873,50.915 838.264,45.198 825.762,44.088 C825.728,43.564 825.682,42.617 825.67,42.332 C825.158,41.842 824.539,41.424 824.385,40.366 C824.213,38.253 824.499,35.977 824.829,33.234 C825.012,31.951 825.316,30.887 825.366,29.495 C825.378,29.179 825.361,28.719 825.359,28.377 C825.359,25.965 823.599,24.008 821.428,24.008 L821.428,24.008 Z M816.503,54.505 L815.336,75.131 L815.252,75.173 C815.173,77.018 813.655,78.491 811.79,78.491 C811.027,78.491 810.322,78.247 809.749,77.828 L809.715,77.845 L792.804,65.856 C798.001,60.744 804.65,56.968 812.312,55.228 C813.711,54.911 815.111,54.675 816.503,54.505 L816.503,54.505 Z M826.36,54.505 C835.304,55.607 843.576,59.656 849.915,65.864 L833.114,77.777 L833.054,77.752 C831.563,78.842 829.463,78.571 828.3,77.114 C827.824,76.517 827.574,75.815 827.543,75.106 L827.527,75.098 L826.36,54.505 Z M786.67,73.561 L802.112,87.372 L802.095,87.456 C803.49,88.668 803.696,90.771 802.532,92.228 C802.057,92.825 801.418,93.225 800.735,93.413 L800.718,93.48 L780.923,99.193 C779.916,89.982 782.087,81.026 786.67,73.561 L786.67,73.561 Z M856.073,73.569 C858.367,77.288 860.106,81.441 861.14,85.944 C862.161,90.392 862.417,94.834 861.996,99.126 L842.103,93.396 L842.086,93.312 C840.304,92.825 839.21,91.013 839.624,89.196 C839.795,88.451 840.191,87.821 840.726,87.355 L840.717,87.313 L856.073,73.569 Z M818.26,88.439 L824.586,88.439 L828.518,93.354 L827.107,99.487 L821.428,102.217 L815.732,99.479 L814.319,93.346 L818.26,88.439 Z M838.541,105.259 C838.809,105.245 839.077,105.27 839.339,105.318 L839.372,105.276 L859.846,108.737 C856.849,117.155 851.116,124.448 843.455,129.329 L835.508,110.132 L835.532,110.098 C834.803,108.402 835.533,106.412 837.213,105.603 C837.644,105.396 838.092,105.281 838.541,105.259 L838.541,105.259 Z M804.154,105.343 C805.717,105.364 807.117,106.45 807.481,108.04 C807.651,108.784 807.568,109.522 807.288,110.174 L807.346,110.249 L799.483,129.253 C792.13,124.535 786.274,117.471 783.142,108.805 L803.439,105.36 L803.473,105.402 C803.7,105.36 803.93,105.34 804.154,105.343 L804.154,105.343 Z M821.301,113.669 C821.845,113.649 822.398,113.76 822.923,114.014 C823.611,114.345 824.142,114.865 824.477,115.492 L824.553,115.492 L834.559,133.572 C833.26,134.007 831.925,134.38 830.56,134.689 C822.907,136.427 815.279,135.901 808.371,133.547 L818.352,115.5 L818.368,115.5 C818.967,114.382 820.104,113.713 821.301,113.669 L821.301,113.669 Z" id="Fill-200" fill="#FFFFFF"></path>
            <path d="M821.428,24.008 C819.256,24.008 817.494,25.965 817.495,28.377 C817.495,28.415 817.502,28.45 817.504,28.487 C817.501,28.814 817.486,29.209 817.495,29.495 C817.547,30.887 817.85,31.951 818.032,33.234 C818.364,35.977 818.641,38.253 818.47,40.366 C818.303,41.164 817.716,41.893 817.193,42.4 L817.101,44.063 C814.741,44.258 812.365,44.616 809.992,45.154 C799.783,47.473 790.993,52.732 784.301,59.832 C783.866,59.536 783.108,58.991 782.882,58.824 C782.179,58.919 781.469,59.135 780.545,58.597 C778.786,57.413 777.183,55.777 775.244,53.808 C774.356,52.867 773.712,51.969 772.657,51.061 C772.417,50.855 772.052,50.576 771.782,50.363 C770.958,49.706 769.985,49.363 769.044,49.331 C767.835,49.289 766.672,49.761 765.91,50.717 C764.556,52.414 764.99,55.009 766.877,56.514 C766.896,56.529 766.916,56.541 766.935,56.556 C767.195,56.766 767.512,57.035 767.75,57.211 C768.871,58.038 769.894,58.462 771.009,59.118 C773.362,60.57 775.312,61.775 776.858,63.227 C777.461,63.87 777.567,65.004 777.647,65.495 L778.907,66.62 C772.16,76.773 769.039,89.313 770.883,102.091 L769.238,102.571 C768.803,103.131 768.19,104.013 767.549,104.276 C765.525,104.913 763.248,105.148 760.5,105.435 C759.209,105.543 758.096,105.479 756.727,105.738 C756.427,105.795 756.006,105.904 755.677,105.981 C755.666,105.984 755.656,105.987 755.644,105.99 C755.625,105.994 755.602,106.002 755.585,106.006 C753.268,106.567 751.78,108.697 752.258,110.795 C752.738,112.895 755,114.171 757.332,113.669 C757.35,113.665 757.374,113.665 757.392,113.66 C757.417,113.654 757.441,113.641 757.467,113.635 C757.791,113.563 758.199,113.485 758.484,113.408 C759.829,113.048 760.803,112.519 762.012,112.055 C764.614,111.123 766.768,110.343 768.867,110.039 C769.744,109.97 770.668,110.581 771.128,110.837 L772.842,110.543 C776.785,122.771 785.05,132.654 795.517,138.856 L794.803,140.571 C795.06,141.236 795.345,142.136 795.154,142.794 C794.389,144.772 793.081,146.861 791.593,149.19 C790.872,150.266 790.134,151.101 789.485,152.332 C789.328,152.626 789.13,153.079 788.981,153.39 C787.97,155.552 788.711,158.044 790.653,158.977 C792.607,159.919 795.032,158.926 796.08,156.76 C796.081,156.756 796.086,156.755 796.088,156.751 C796.089,156.75 796.088,156.745 796.088,156.743 C796.238,156.436 796.45,156.031 796.576,155.743 C797.133,154.466 797.318,153.373 797.71,152.139 C798.75,149.526 799.323,146.783 800.753,145.075 C801.146,144.608 801.785,144.427 802.449,144.25 L803.339,142.636 C812.463,146.139 822.676,147.079 832.878,144.763 C835.206,144.234 837.453,143.55 839.624,142.73 C839.875,143.174 840.34,144.027 840.464,144.242 C841.138,144.461 841.873,144.574 842.472,145.46 C843.543,147.29 844.276,149.456 845.168,152.072 C845.561,153.306 845.754,154.4 846.312,155.676 C846.438,155.967 846.649,156.377 846.799,156.684 C847.845,158.858 850.278,159.853 852.235,158.91 C854.175,157.976 854.917,155.485 853.906,153.323 C853.756,153.012 853.549,152.559 853.394,152.265 C852.742,151.034 852.006,150.207 851.284,149.132 C849.795,146.803 848.562,144.868 847.798,142.888 C847.479,141.868 847.852,141.233 848.101,140.571 C847.951,140.4 847.634,139.436 847.446,138.982 C858.323,132.56 866.345,122.308 870.113,110.468 C870.62,110.548 871.505,110.704 871.793,110.762 C872.384,110.372 872.927,109.863 873.994,109.947 C876.093,110.25 878.248,111.03 880.85,111.964 C882.059,112.427 883.032,112.965 884.378,113.324 C884.663,113.401 885.07,113.471 885.394,113.543 C885.42,113.549 885.445,113.562 885.471,113.568 C885.488,113.571 885.513,113.573 885.53,113.576 C887.861,114.078 890.125,112.802 890.603,110.703 C891.082,108.604 889.595,106.473 887.277,105.914 C886.94,105.838 886.461,105.707 886.135,105.645 C884.766,105.386 883.653,105.451 882.362,105.343 C879.613,105.054 877.337,104.821 875.313,104.184 C874.489,103.863 873.902,102.882 873.616,102.477 L872.029,102.015 C872.851,96.059 872.629,89.861 871.205,83.658 C869.766,77.399 867.226,71.673 863.837,66.63 C864.243,66.259 865.013,65.578 865.231,65.377 C865.295,64.672 865.24,63.932 865.971,63.151 C867.516,61.699 869.467,60.495 871.819,59.042 C872.934,58.385 873.965,57.963 875.086,57.136 C875.34,56.948 875.686,56.652 875.952,56.438 C877.838,54.933 878.272,52.34 876.918,50.64 C875.563,48.943 872.94,48.783 871.054,50.289 C870.784,50.502 870.421,50.779 870.18,50.986 C869.124,51.894 868.472,52.791 867.583,53.733 C865.645,55.702 864.041,57.346 862.282,58.53 C861.52,58.974 860.403,58.82 859.896,58.79 L858.401,59.857 C849.873,50.915 838.264,45.198 825.762,44.088 C825.728,43.564 825.682,42.617 825.67,42.332 C825.158,41.842 824.539,41.424 824.385,40.366 C824.213,38.253 824.499,35.977 824.829,33.234 C825.012,31.951 825.316,30.887 825.366,29.495 C825.378,29.179 825.361,28.719 825.359,28.377 C825.359,25.965 823.599,24.008 821.428,24.008 Z M816.503,54.505 L815.336,75.131 L815.252,75.173 C815.173,77.018 813.655,78.491 811.79,78.491 C811.027,78.491 810.322,78.247 809.749,77.828 L809.715,77.845 L792.804,65.856 C798.001,60.744 804.65,56.968 812.312,55.228 C813.711,54.911 815.111,54.675 816.503,54.505 Z M826.36,54.505 C835.304,55.607 843.576,59.656 849.915,65.864 L833.114,77.777 L833.054,77.752 C831.563,78.842 829.463,78.571 828.3,77.114 C827.824,76.517 827.574,75.815 827.543,75.106 L827.527,75.098 L826.36,54.505 Z M786.67,73.561 L802.112,87.372 L802.095,87.456 C803.49,88.668 803.696,90.771 802.532,92.228 C802.057,92.825 801.418,93.225 800.735,93.413 L800.718,93.48 L780.923,99.193 C779.916,89.982 782.087,81.026 786.67,73.561 Z M856.073,73.569 C858.367,77.288 860.106,81.441 861.14,85.944 C862.161,90.392 862.417,94.834 861.996,99.126 L842.103,93.396 L842.086,93.312 C840.304,92.825 839.21,91.013 839.624,89.196 C839.795,88.451 840.191,87.821 840.726,87.355 L840.717,87.313 L856.073,73.569 Z M818.26,88.439 L824.586,88.439 L828.518,93.354 L827.107,99.487 L821.428,102.217 L815.732,99.479 L814.319,93.346 L818.26,88.439 Z M838.541,105.259 C838.809,105.245 839.077,105.27 839.339,105.318 L839.372,105.276 L859.846,108.737 C856.849,117.155 851.116,124.448 843.455,129.329 L835.508,110.132 L835.532,110.098 C834.803,108.402 835.533,106.412 837.213,105.603 C837.644,105.396 838.092,105.281 838.541,105.259 Z M804.154,105.343 C805.717,105.364 807.117,106.45 807.481,108.04 C807.651,108.784 807.568,109.522 807.288,110.174 L807.346,110.249 L799.483,129.253 C792.13,124.535 786.274,117.471 783.142,108.805 L803.439,105.36 L803.473,105.402 C803.7,105.36 803.93,105.34 804.154,105.343 Z M821.301,113.669 C821.845,113.649 822.398,113.76 822.923,114.014 C823.611,114.345 824.142,114.865 824.477,115.492 L824.553,115.492 L834.559,133.572 C833.26,134.007 831.925,134.38 830.56,134.689 C822.907,136.427 815.279,135.901 808.371,133.547 L818.352,115.5 L818.368,115.5 C818.967,114.382 820.104,113.713 821.301,113.669 Z" id="Stroke-201" stroke="#FFFFFF" stroke-width="0.224"></path>
            <path d="M833.919,308.422 C833.919,308.422 835.893,318.776 847.25,321.492 C859.527,324.427 849.393,345.402 849.393,345.402 L902.559,345.402 C902.559,345.402 906.935,340.097 906.393,321.943 C905.851,303.789 906.594,273.348 881.726,261.609 C843.393,244.276 832.393,270.276 832.393,270.276 C832.393,270.276 849.976,275.109 851.643,285.139 C854.957,305.087 833.919,308.422 833.919,308.422" id="Fill-202" fill="#FDBDB4"></path>
            <path d="M842.139,376.964 L843.333,342.285 C860.579,337.776 900.794,335.257 911.123,342.629 L912.799,378.625 L877.702,387.556 L842.139,376.964 Z" id="Fill-203" fill="#FFFFFF"></path>
            <path d="M365.434,255.612132 C363.538,255.628 361.913,254.188 361.733,252.266 C361.541,250.236 363.034,248.436 365.062,248.246 L429.582,242.195 C431.644,241.999 433.413,243.497 433.603,245.525 C433.793,247.555 432.301,249.354 430.273,249.545 L365.752,255.596 C365.645,255.605 365.538,255.611 365.434,255.612132" id="Fill-204" fill="#81C3D3"></path>
            <path d="M368.622,275.284 C366.742,275.302 365.122,273.887 364.922,271.98 C364.708,269.953 366.179,268.137 368.204,267.923 L432.67,261.129 C434.72,260.911 436.515,262.387 436.727,264.412 C436.941,266.439 435.471,268.255 433.444,268.469 L368.978,275.263 C368.858,275.276 368.739,275.283 368.622,275.284" id="Fill-205" fill="#81C3D3"></path>
            <path d="M371.758,294.724019 C369.894,294.73 368.288,293.328 368.081,291.435 C367.86,289.409 369.321,287.587 371.347,287.365 L435.81,280.294 C437.85,280.069 439.658,281.535 439.88,283.559 C440.103,285.585 438.64,287.407 436.614,287.629 L372.152,294.7 C372.02,294.715 371.888,294.724019 371.758,294.724019" id="Fill-206" fill="#81C3D3"></path>
            <path d="M374.91,314.248 C373.061,314.248 371.468,312.863 371.249,310.984 C371.013,308.96 372.463,307.128 374.486,306.892 L438.931,299.373 C440.962,299.135 442.789,300.586 443.024,302.61 C443.261,304.634 441.81,306.466 439.787,306.702 L375.342,314.222 C375.197,314.239 375.053,314.248 374.91,314.248" id="Fill-207" fill="#81C3D3"></path>
            <path d="M378.086,333.883 C376.255,333.883 374.666,332.521 374.431,330.657 C374.173,328.635 375.605,326.788 377.626,326.531 L442.03,318.343 C444.049,318.087 445.899,319.517 446.156,321.539 C446.413,323.561 444.982,325.408 442.961,325.664 L378.557,333.852 C378.398,333.873 378.241,333.883 378.086,333.883" id="Fill-208" fill="#81C3D3"></path>
            <path d="M381.263,353.518 C379.448,353.518 377.866,352.178 377.612,350.33 C377.333,348.31 378.745,346.448 380.765,346.17 L445.128,337.313 C447.136,337.037 449.01,338.447 449.287,340.467 C449.566,342.487 448.154,344.349 446.134,344.626 L381.771,353.483 C381.601,353.506 381.431,353.518 381.263,353.518" id="Fill-209" fill="#81C3D3"></path>
            <path d="M696.192,231.192 C696.13,231.192 696.067,231.191 696.005,231.188 C670.904,229.966 632.94,228.188 629.003,228.188 L628.902,228.188 C627.324,228.354 625.731,227.479 625.054,225.935 C624.213,224.016 625.087,221.779 627.006,220.938 C628.117,220.451 628.444,220.303 696.374,223.61 C698.467,223.712 700.08,225.491 699.979,227.583 C699.88,229.613 698.203,231.192 696.192,231.192" id="Fill-210" fill="#81C3D3"></path>
            <path d="M695.823,249.54 C695.76,249.54 695.695,249.539 695.632,249.535 C670.652,248.297 632.856,246.493 628.987,246.493 L628.896,246.493 C627.314,246.659 625.724,245.78 625.049,244.234 C624.211,242.313 625.089,240.077 627.009,239.24 C628.115,238.758 628.449,238.608 696.008,241.958 C698.1,242.062 699.712,243.842 699.608,245.935 C699.508,247.963 697.832,249.54 695.823,249.54" id="Fill-211" fill="#81C3D3"></path>
            <path d="M695.453,267.887 C695.388,267.887 695.324,267.886 695.258,267.883 C670.4,266.628 632.774,264.797 628.971,264.797 L628.891,264.797 C627.305,264.963 625.716,264.08 625.044,262.532 C624.209,260.61 625.09,258.376 627.012,257.541 C628.112,257.065 628.454,256.912 695.641,260.305 C697.734,260.411 699.344,262.193 699.239,264.286 C699.136,266.312 697.461,267.887 695.453,267.887" id="Fill-212" fill="#81C3D3"></path>
            <path d="M695.083,286.235 C695.018,286.235 694.952,286.234 694.885,286.23 C670.148,284.958 632.691,283.102 628.956,283.102 L628.885,283.102 C627.295,283.268 625.708,282.381 625.038,280.831 C624.207,278.907 625.092,276.675 627.015,275.843 C628.11,275.373 628.457,275.217 695.276,278.653 C697.368,278.761 698.976,280.545 698.869,282.637 C698.764,284.662 697.089,286.235 695.083,286.235" id="Fill-213" fill="#81C3D3"></path>
            <path d="M694.714,304.582 C694.648,304.582 694.581,304.581 694.513,304.577 C669.897,303.288 632.61,301.406 628.941,301.406 L628.881,301.406 C627.287,301.572 625.702,300.68 625.033,299.128 C624.206,297.203 625.095,294.972 627.02,294.144 C628.108,293.679 628.463,293.521 694.91,297 C697.002,297.11 698.61,298.895 698.5,300.987 C698.394,303.011 696.719,304.582 694.714,304.582" id="Fill-214" fill="#81C3D3"></path>
            <path d="M694.345,322.929 C694.277,322.929 694.209,322.928 694.14,322.924 C669.645,321.618 632.526,319.71 628.925,319.71 L628.875,319.71 C627.277,319.876 625.695,318.981 625.028,317.426 C624.204,315.5 625.097,313.271 627.023,312.445 C628.106,311.985 628.468,311.825 694.544,315.348 C696.636,315.459 698.241,317.246 698.13,319.338 C698.022,321.36 696.348,322.929 694.345,322.929" id="Fill-215" fill="#81C3D3"></path>
            <path d="M834.725,369.066 C862.463,365.449 891.13,368.987 918.766,370.483 C918.766,370.483 930.156,554.743 831.912,698.065 C829.335,702.055 754.142,713.79 732.742898,671.061 C732.63,674.555 826.255,603.77 834.725,369.066" id="Fill-216" fill="#FFBB43"></path>
            <path d="M918.766,370.483 C914.754,370.266 910.72,370.004 906.671,369.729 C907.625,404.755 906.758,586.76 792.757,702.33 C813.149,703.585 830.691,699.957 831.912,698.065 C930.156,554.743 918.766,370.483 918.766,370.483" id="Fill-217" fill="#F49000"></path>
            <path d="M847.542,392.777 C847.542,388.126 851.313,384.355 855.964,384.355 C860.615,384.355 864.386,388.126 864.386,392.777 C864.386,397.428 860.615,401.199 855.964,401.199 C851.313,401.199 847.542,397.428 847.542,392.777" id="Fill-218" fill="#F49000"></path>
            <path d="M171.913,252.857 C134.324,218.112 162.773,104.011 173.372,70.894 C172.64,71.324 171.908,71.772 171.178,72.235 C171.152,72.252 171.127,72.268 171.101,72.284 C170.405,72.727 169.71,73.188 169.016,73.663 C168.955,73.704 168.895,73.744 168.835,73.786 C168.182,74.236 167.529,74.702 166.878,75.181 C166.781,75.252 166.684,75.321 166.588,75.393 C165.978,75.845 165.371,76.314 164.765,76.792 C164.632,76.897 164.498,77 164.365,77.106 C163.799,77.558 163.234,78.027 162.671,78.502 C162.504,78.643 162.337,78.779 162.171,78.922 C161.638,79.378 161.107,79.853 160.577,80.331 C160.388,80.501 160.198,80.665 160.01,80.838 C159.48,81.325 158.953,81.83 158.426,82.339 C158.246,82.513 158.064,82.679 157.884,82.856 C157.184,83.544 156.485,84.251 155.791,84.979 C155.787,84.99 136.35,141.778 138.892,274.523 C165.65,282.491 205.245,277.538 215.423,265.75 C215.423,265.75 215.429,261.688 215.548,257.902 C202.916,263.527 185.08,265.027 171.913,252.857" id="Fill-219" fill="#F49000"></path>
            <path d="M194.502,244.072 C194.702,239.425 198.631,235.82 203.278,236.02 C207.925,236.221 211.53,240.15 211.33,244.797 C211.129,249.444 207.2,253.049 202.553,252.848 C197.906,252.648 194.301,248.719 194.502,244.072" id="Fill-220" fill="#F49000"></path>
        </g>
    </g>
</svg>