<?xml version="1.0" encoding="UTF-8"?>
<svg width="640px" height="531px" viewBox="0 0 640 531" version="1.1" xmlns="http://www.w3.org/2000/svg" xmlns:xlink="http://www.w3.org/1999/xlink">
    <!-- Generator: Sketch 60.1 (88133) - https://sketch.com -->
    <title>cluster-per-app-and-env</title>
    <desc>Created with Sketch.</desc>
    <g id="cluster-per-app-and-env" stroke="none" stroke-width="1" fill="none" fill-rule="evenodd">
        <path d="M117.507885,0.0122780339 C116.252896,0.0759658069 115.023099,0.389888563 113.890222,0.935736876 L64.5237207,24.7321475 C61.9353882,25.9790612 60.0555012,28.3375458 59.4160022,31.1396815 L47.2371312,84.5921503 C46.6690305,87.0807844 47.1315386,89.6943386 48.5187248,91.8342175 C48.6853294,92.0934114 48.8644805,92.3442566 49.0555341,92.5858511 L83.2247679,135.446068 C85.0165656,137.6925 87.7330575,139 90.6054496,139 L145.401366,138.987296 C148.272784,138.989414 150.989114,137.683705 152.782047,135.439553 L186.93879,92.5731474 C188.730727,90.3280608 189.402715,87.3840428 188.763357,84.5796095 L176.565506,31.1269778 C175.926007,28.3246792 174.046119,25.9663575 171.457787,24.7192809 L122.085121,0.935736876 C120.660089,0.249121348 119.086494,-0.0683518447 117.507885,0.0122780339 Z" id="Path" fill="#326CE5" fill-rule="nonzero"></path>
        <g id="Group" transform="translate(85.000000, 36.000000)">
            <path d="M70.3188394,35.4932564 L53.8689396,7.50607533 C52.9607255,5.95965978 51.2674335,5 49.4510054,5 L16.549845,5 C14.7327366,5 13.0394446,5.95965978 12.1305502,7.50607533 L-4.31934968,35.4932564 C-5.22688344,37.0403402 -5.22688344,38.9603281 -4.31934968,40.505407 L12.1305502,68.4939247 C13.0394446,70.0396719 14.7327366,71 16.549845,71 L49.450325,71 C51.2667532,71 52.9600452,70.0390036 53.8682593,68.4939247 L70.3188394,40.505407 C71.2270535,38.9603281 71.2270535,37.0403402 70.3188394,35.4932564 Z" id="Path" fill="#FFF900" fill-rule="nonzero" transform="translate(33.000000, 38.000000) rotate(90.000000) translate(-33.000000, -38.000000) "></path>
            <text id="APP-1-DEV" font-family="Helvetica-Bold, Helvetica" font-size="19" font-weight="bold" letter-spacing="-0.16" fill="#333333">
                <tspan x="6.11069336" y="34">APP 1</tspan>
                <tspan x="13.7065527" y="57">DEV</tspan>
            </text>
        </g>
        <path d="M318.507885,0.0122780339 C317.252896,0.0759658069 316.023099,0.389888563 314.890222,0.935736876 L265.523721,24.7321475 C262.935388,25.9790612 261.055501,28.3375458 260.416002,31.1396815 L248.237131,84.5921503 C247.669031,87.0807844 248.131539,89.6943386 249.518725,91.8342175 C249.685329,92.0934114 249.86448,92.3442566 250.055534,92.5858511 L284.224768,135.446068 C286.016566,137.6925 288.733057,139 291.60545,139 L346.401366,138.987296 C349.272784,138.989414 351.989114,137.683705 353.782047,135.439553 L387.93879,92.5731474 C389.730727,90.3280608 390.402715,87.3840428 389.763357,84.5796095 L377.565506,31.1269778 C376.926007,28.3246792 375.046119,25.9663575 372.457787,24.7192809 L323.085121,0.935736876 C321.660089,0.249121348 320.086494,-0.0683518447 318.507885,0.0122780339 Z" id="Path" fill="#326CE5" fill-rule="nonzero"></path>
        <g id="Group" transform="translate(286.000000, 36.000000)">
            <path d="M70.3188394,35.4932564 L53.8689396,7.50607533 C52.9607255,5.95965978 51.2674335,5 49.4510054,5 L16.549845,5 C14.7327366,5 13.0394446,5.95965978 12.1305502,7.50607533 L-4.31934968,35.4932564 C-5.22688344,37.0403402 -5.22688344,38.9603281 -4.31934968,40.505407 L12.1305502,68.4939247 C13.0394446,70.0396719 14.7327366,71 16.549845,71 L49.450325,71 C51.2667532,71 52.9600452,70.0390036 53.8682593,68.4939247 L70.3188394,40.505407 C71.2270535,38.9603281 71.2270535,37.0403402 70.3188394,35.4932564 Z" id="Path" fill="#FFF900" fill-rule="nonzero" transform="translate(33.000000, 38.000000) rotate(90.000000) translate(-33.000000, -38.000000) "></path>
            <text id="APP-1-TEST" font-family="Helvetica-Bold, Helvetica" font-size="19" font-weight="bold" letter-spacing="-0.16" fill="#333333">
                <tspan x="6.11069336" y="34">APP 1</tspan>
                <tspan x="9.04119141" y="57">TEST</tspan>
            </text>
        </g>
        <path d="M519.507885,0.0122780339 C518.252896,0.0759658069 517.023099,0.389888563 515.890222,0.935736876 L466.523721,24.7321475 C463.935388,25.9790612 462.055501,28.3375458 461.416002,31.1396815 L449.237131,84.5921503 C448.669031,87.0807844 449.131539,89.6943386 450.518725,91.8342175 C450.685329,92.0934114 450.86448,92.3442566 451.055534,92.5858511 L485.224768,135.446068 C487.016566,137.6925 489.733057,139 492.60545,139 L547.401366,138.987296 C550.272784,138.989414 552.989114,137.683705 554.782047,135.439553 L588.93879,92.5731474 C590.730727,90.3280608 591.402715,87.3840428 590.763357,84.5796095 L578.565506,31.1269778 C577.926007,28.3246792 576.046119,25.9663575 573.457787,24.7192809 L524.085121,0.935736876 C522.660089,0.249121348 521.086494,-0.0683518447 519.507885,0.0122780339 Z" id="Path" fill="#326CE5" fill-rule="nonzero"></path>
        <g id="Group" transform="translate(487.000000, 36.000000)">
            <path d="M70.3188394,35.4932564 L53.8689396,7.50607533 C52.9607255,5.95965978 51.2674335,5 49.4510054,5 L16.549845,5 C14.7327366,5 13.0394446,5.95965978 12.1305502,7.50607533 L-4.31934968,35.4932564 C-5.22688344,37.0403402 -5.22688344,38.9603281 -4.31934968,40.505407 L12.1305502,68.4939247 C13.0394446,70.0396719 14.7327366,71 16.549845,71 L49.450325,71 C51.2667532,71 52.9600452,70.0390036 53.8682593,68.4939247 L70.3188394,40.505407 C71.2270535,38.9603281 71.2270535,37.0403402 70.3188394,35.4932564 Z" id="Path" fill="#FFF900" fill-rule="nonzero" transform="translate(33.000000, 38.000000) rotate(90.000000) translate(-33.000000, -38.000000) "></path>
            <text id="APP-1-PROD" font-family="Helvetica-Bold, Helvetica" font-size="19" font-weight="bold" letter-spacing="-0.16" fill="#333333">
                <tspan x="6.11069336" y="34">APP 1</tspan>
                <tspan x="5.87297852" y="57">PROD</tspan>
            </text>
        </g>
        <path d="M117.507885,189.012278 C116.252896,189.075966 115.023099,189.389889 113.890222,189.935737 L64.5237207,213.732147 C61.9353882,214.979061 60.0555012,217.337546 59.4160022,220.139681 L47.2371312,273.59215 C46.6690305,276.080784 47.1315386,278.694339 48.5187248,280.834217 C48.6853294,281.093411 48.8644805,281.344257 49.0555341,281.585851 L83.2247679,324.446068 C85.0165656,326.6925 87.7330575,328 90.6054496,328 L145.401366,327.987296 C148.272784,327.989414 150.989114,326.683705 152.782047,324.439553 L186.93879,281.573147 C188.730727,279.328061 189.402715,276.384043 188.763357,273.579609 L176.565506,220.126978 C175.926007,217.324679 174.046119,214.966358 171.457787,213.719281 L122.085121,189.935737 C120.660089,189.249121 119.086494,188.931648 117.507885,189.012278 Z" id="Path" fill="#326CE5" fill-rule="nonzero"></path>
        <g id="Group" transform="translate(85.000000, 225.000000)">
            <path d="M70.3188394,35.4932564 L53.8689396,7.50607533 C52.9607255,5.95965978 51.2674335,5 49.4510054,5 L16.549845,5 C14.7327366,5 13.0394446,5.95965978 12.1305502,7.50607533 L-4.31934968,35.4932564 C-5.22688344,37.0403402 -5.22688344,38.9603281 -4.31934968,40.505407 L12.1305502,68.4939247 C13.0394446,70.0396719 14.7327366,71 16.549845,71 L49.450325,71 C51.2667532,71 52.9600452,70.0390036 53.8682593,68.4939247 L70.3188394,40.505407 C71.2270535,38.9603281 71.2270535,37.0403402 70.3188394,35.4932564 Z" id="Path" fill="#4AFF00" fill-rule="nonzero" transform="translate(33.000000, 38.000000) rotate(90.000000) translate(-33.000000, -38.000000) "></path>
            <text id="APP-2-DEV" font-family="Helvetica-Bold, Helvetica" font-size="19" font-weight="bold" letter-spacing="-0.16" fill="#333333">
                <tspan x="6.11069336" y="34">APP 2</tspan>
                <tspan x="13.7065527" y="57">DEV</tspan>
            </text>
        </g>
        <path d="M318.507885,189.012278 C317.252896,189.075966 316.023099,189.389889 314.890222,189.935737 L265.523721,213.732147 C262.935388,214.979061 261.055501,217.337546 260.416002,220.139681 L248.237131,273.59215 C247.669031,276.080784 248.131539,278.694339 249.518725,280.834217 C249.685329,281.093411 249.86448,281.344257 250.055534,281.585851 L284.224768,324.446068 C286.016566,326.6925 288.733057,328 291.60545,328 L346.401366,327.987296 C349.272784,327.989414 351.989114,326.683705 353.782047,324.439553 L387.93879,281.573147 C389.730727,279.328061 390.402715,276.384043 389.763357,273.579609 L377.565506,220.126978 C376.926007,217.324679 375.046119,214.966358 372.457787,213.719281 L323.085121,189.935737 C321.660089,189.249121 320.086494,188.931648 318.507885,189.012278 Z" id="Path" fill="#326CE5" fill-rule="nonzero"></path>
        <g id="Group" transform="translate(286.000000, 225.000000)">
            <path d="M70.3188394,35.4932564 L53.8689396,7.50607533 C52.9607255,5.95965978 51.2674335,5 49.4510054,5 L16.549845,5 C14.7327366,5 13.0394446,5.95965978 12.1305502,7.50607533 L-4.31934968,35.4932564 C-5.22688344,37.0403402 -5.22688344,38.9603281 -4.31934968,40.505407 L12.1305502,68.4939247 C13.0394446,70.0396719 14.7327366,71 16.549845,71 L49.450325,71 C51.2667532,71 52.9600452,70.0390036 53.8682593,68.4939247 L70.3188394,40.505407 C71.2270535,38.9603281 71.2270535,37.0403402 70.3188394,35.4932564 Z" id="Path" fill="#4AFF00" fill-rule="nonzero" transform="translate(33.000000, 38.000000) rotate(90.000000) translate(-33.000000, -38.000000) "></path>
            <text id="APP-2-TEST" font-family="Helvetica-Bold, Helvetica" font-size="19" font-weight="bold" letter-spacing="-0.16" fill="#333333">
                <tspan x="6.11069336" y="34">APP 2</tspan>
                <tspan x="9.04119141" y="57">TEST</tspan>
            </text>
        </g>
        <path d="M519.507885,189.012278 C518.252896,189.075966 517.023099,189.389889 515.890222,189.935737 L466.523721,213.732147 C463.935388,214.979061 462.055501,217.337546 461.416002,220.139681 L449.237131,273.59215 C448.669031,276.080784 449.131539,278.694339 450.518725,280.834217 C450.685329,281.093411 450.86448,281.344257 451.055534,281.585851 L485.224768,324.446068 C487.016566,326.6925 489.733057,328 492.60545,328 L547.401366,327.987296 C550.272784,327.989414 552.989114,326.683705 554.782047,324.439553 L588.93879,281.573147 C590.730727,279.328061 591.402715,276.384043 590.763357,273.579609 L578.565506,220.126978 C577.926007,217.324679 576.046119,214.966358 573.457787,213.719281 L524.085121,189.935737 C522.660089,189.249121 521.086494,188.931648 519.507885,189.012278 Z" id="Path" fill="#326CE5" fill-rule="nonzero"></path>
        <g id="Group" transform="translate(487.000000, 225.000000)">
            <path d="M70.3188394,35.4932564 L53.8689396,7.50607533 C52.9607255,5.95965978 51.2674335,5 49.4510054,5 L16.549845,5 C14.7327366,5 13.0394446,5.95965978 12.1305502,7.50607533 L-4.31934968,35.4932564 C-5.22688344,37.0403402 -5.22688344,38.9603281 -4.31934968,40.505407 L12.1305502,68.4939247 C13.0394446,70.0396719 14.7327366,71 16.549845,71 L49.450325,71 C51.2667532,71 52.9600452,70.0390036 53.8682593,68.4939247 L70.3188394,40.505407 C71.2270535,38.9603281 71.2270535,37.0403402 70.3188394,35.4932564 Z" id="Path" fill="#4AFF00" fill-rule="nonzero" transform="translate(33.000000, 38.000000) rotate(90.000000) translate(-33.000000, -38.000000) "></path>
            <text id="APP-2-PROD" font-family="Helvetica-Bold, Helvetica" font-size="19" font-weight="bold" letter-spacing="-0.16" fill="#333333">
                <tspan x="6.11069336" y="34">APP 2</tspan>
                <tspan x="5.87297852" y="57">PROD</tspan>
            </text>
        </g>
        <path d="M117.507885,378.012278 C116.252896,378.075966 115.023099,378.389889 113.890222,378.935737 L64.5237207,402.732147 C61.9353882,403.979061 60.0555012,406.337546 59.4160022,409.139681 L47.2371312,462.59215 C46.6690305,465.080784 47.1315386,467.694339 48.5187248,469.834217 C48.6853294,470.093411 48.8644805,470.344257 49.0555341,470.585851 L83.2247679,513.446068 C85.0165656,515.6925 87.7330575,517 90.6054496,517 L145.401366,516.987296 C148.272784,516.989414 150.989114,515.683705 152.782047,513.439553 L186.93879,470.573147 C188.730727,468.328061 189.402715,465.384043 188.763357,462.579609 L176.565506,409.126978 C175.926007,406.324679 174.046119,403.966358 171.457787,402.719281 L122.085121,378.935737 C120.660089,378.249121 119.086494,377.931648 117.507885,378.012278 Z" id="Path" fill="#326CE5" fill-rule="nonzero"></path>
        <g id="Group" transform="translate(85.000000, 414.000000)">
            <path d="M70.3188394,35.4932564 L53.8689396,7.50607533 C52.9607255,5.95965978 51.2674335,5 49.4510054,5 L16.549845,5 C14.7327366,5 13.0394446,5.95965978 12.1305502,7.50607533 L-4.31934968,35.4932564 C-5.22688344,37.0403402 -5.22688344,38.9603281 -4.31934968,40.505407 L12.1305502,68.4939247 C13.0394446,70.0396719 14.7327366,71 16.549845,71 L49.450325,71 C51.2667532,71 52.9600452,70.0390036 53.8682593,68.4939247 L70.3188394,40.505407 C71.2270535,38.9603281 71.2270535,37.0403402 70.3188394,35.4932564 Z" id="Path" fill="#FF5353" fill-rule="nonzero" transform="translate(33.000000, 38.000000) rotate(90.000000) translate(-33.000000, -38.000000) "></path>
            <text id="APP-3-DEV" font-family="Helvetica-Bold, Helvetica" font-size="19" font-weight="bold" letter-spacing="-0.16" fill="#333333">
                <tspan x="6.11069336" y="34">APP 3</tspan>
                <tspan x="13.7065527" y="57">DEV</tspan>
            </text>
        </g>
        <path d="M318.507885,378.012278 C317.252896,378.075966 316.023099,378.389889 314.890222,378.935737 L265.523721,402.732147 C262.935388,403.979061 261.055501,406.337546 260.416002,409.139681 L248.237131,462.59215 C247.669031,465.080784 248.131539,467.694339 249.518725,469.834217 C249.685329,470.093411 249.86448,470.344257 250.055534,470.585851 L284.224768,513.446068 C286.016566,515.6925 288.733057,517 291.60545,517 L346.401366,516.987296 C349.272784,516.989414 351.989114,515.683705 353.782047,513.439553 L387.93879,470.573147 C389.730727,468.328061 390.402715,465.384043 389.763357,462.579609 L377.565506,409.126978 C376.926007,406.324679 375.046119,403.966358 372.457787,402.719281 L323.085121,378.935737 C321.660089,378.249121 320.086494,377.931648 318.507885,378.012278 Z" id="Path" fill="#326CE5" fill-rule="nonzero"></path>
        <g id="Group" transform="translate(286.000000, 414.000000)">
            <path d="M70.3188394,35.4932564 L53.8689396,7.50607533 C52.9607255,5.95965978 51.2674335,5 49.4510054,5 L16.549845,5 C14.7327366,5 13.0394446,5.95965978 12.1305502,7.50607533 L-4.31934968,35.4932564 C-5.22688344,37.0403402 -5.22688344,38.9603281 -4.31934968,40.505407 L12.1305502,68.4939247 C13.0394446,70.0396719 14.7327366,71 16.549845,71 L49.450325,71 C51.2667532,71 52.9600452,70.0390036 53.8682593,68.4939247 L70.3188394,40.505407 C71.2270535,38.9603281 71.2270535,37.0403402 70.3188394,35.4932564 Z" id="Path" fill="#FF5353" fill-rule="nonzero" transform="translate(33.000000, 38.000000) rotate(90.000000) translate(-33.000000, -38.000000) "></path>
            <text id="APP-3-TEST" font-family="Helvetica-Bold, Helvetica" font-size="19" font-weight="bold" letter-spacing="-0.16" fill="#333333">
                <tspan x="6.11069336" y="34">APP 3</tspan>
                <tspan x="9.04119141" y="57">TEST</tspan>
            </text>
        </g>
        <path d="M519.507885,378.012278 C518.252896,378.075966 517.023099,378.389889 515.890222,378.935737 L466.523721,402.732147 C463.935388,403.979061 462.055501,406.337546 461.416002,409.139681 L449.237131,462.59215 C448.669031,465.080784 449.131539,467.694339 450.518725,469.834217 C450.685329,470.093411 450.86448,470.344257 451.055534,470.585851 L485.224768,513.446068 C487.016566,515.6925 489.733057,517 492.60545,517 L547.401366,516.987296 C550.272784,516.989414 552.989114,515.683705 554.782047,513.439553 L588.93879,470.573147 C590.730727,468.328061 591.402715,465.384043 590.763357,462.579609 L578.565506,409.126978 C577.926007,406.324679 576.046119,403.966358 573.457787,402.719281 L524.085121,378.935737 C522.660089,378.249121 521.086494,377.931648 519.507885,378.012278 Z" id="Path" fill="#326CE5" fill-rule="nonzero"></path>
        <g id="Group" transform="translate(487.000000, 414.000000)">
            <path d="M70.3188394,35.4932564 L53.8689396,7.50607533 C52.9607255,5.95965978 51.2674335,5 49.4510054,5 L16.549845,5 C14.7327366,5 13.0394446,5.95965978 12.1305502,7.50607533 L-4.31934968,35.4932564 C-5.22688344,37.0403402 -5.22688344,38.9603281 -4.31934968,40.505407 L12.1305502,68.4939247 C13.0394446,70.0396719 14.7327366,71 16.549845,71 L49.450325,71 C51.2667532,71 52.9600452,70.0390036 53.8682593,68.4939247 L70.3188394,40.505407 C71.2270535,38.9603281 71.2270535,37.0403402 70.3188394,35.4932564 Z" id="Path" fill="#FF5353" fill-rule="nonzero" transform="translate(33.000000, 38.000000) rotate(90.000000) translate(-33.000000, -38.000000) "></path>
            <text id="APP-3-PROD" font-family="Helvetica-Bold, Helvetica" font-size="19" font-weight="bold" letter-spacing="-0.16" fill="#333333">
                <tspan x="6.11069336" y="34">APP 3</tspan>
                <tspan x="5.87297852" y="57">PROD</tspan>
            </text>
        </g>
        <text id="kubernetes" font-family="Ubuntu-Bold, Ubuntu" font-size="12" font-weight="bold" letter-spacing="-0.16" fill="#000000">
            <tspan x="86.196" y="151">kubernetes</tspan>
        </text>
        <text id="kubernetes" font-family="Ubuntu-Bold, Ubuntu" font-size="12" font-weight="bold" letter-spacing="-0.16" fill="#000000">
            <tspan x="85.196" y="340">kubernetes</tspan>
        </text>
        <text id="kubernetes" font-family="Ubuntu-Bold, Ubuntu" font-size="12" font-weight="bold" letter-spacing="-0.16" fill="#000000">
            <tspan x="86.196" y="529">kubernetes</tspan>
        </text>
        <text id="kubernetes" font-family="Ubuntu-Bold, Ubuntu" font-size="12" font-weight="bold" letter-spacing="-0.16" fill="#000000">
            <tspan x="287.196" y="529">kubernetes</tspan>
        </text>
        <text id="kubernetes" font-family="Ubuntu-Bold, Ubuntu" font-size="12" font-weight="bold" letter-spacing="-0.16" fill="#000000">
            <tspan x="488.196" y="529">kubernetes</tspan>
        </text>
        <text id="kubernetes" font-family="Ubuntu-Bold, Ubuntu" font-size="12" font-weight="bold" letter-spacing="-0.16" fill="#000000">
            <tspan x="287.196" y="340">kubernetes</tspan>
        </text>
        <text id="kubernetes" font-family="Ubuntu-Bold, Ubuntu" font-size="12" font-weight="bold" letter-spacing="-0.16" fill="#000000">
            <tspan x="488.196" y="340">kubernetes</tspan>
        </text>
        <text id="kubernetes" font-family="Ubuntu-Bold, Ubuntu" font-size="12" font-weight="bold" letter-spacing="-0.16" fill="#000000">
            <tspan x="287.196" y="151">kubernetes</tspan>
        </text>
        <text id="kubernetes" font-family="Ubuntu-Bold, Ubuntu" font-size="12" font-weight="bold" letter-spacing="-0.16" fill="#000000">
            <tspan x="488.196" y="151">kubernetes</tspan>
        </text>
    </g>
</svg>