<?xml version="1.0" encoding="UTF-8"?>
<svg width="640px" height="597px" viewBox="0 0 640 597" version="1.1" xmlns="http://www.w3.org/2000/svg" xmlns:xlink="http://www.w3.org/1999/xlink">
    <!-- Generator: Sketch 60.1 (88133) - https://sketch.com -->
    <title>cluster-per-env</title>
    <desc>Created with Sketch.</desc>
    <g id="cluster-per-env" stroke="none" stroke-width="1" fill="none" fill-rule="evenodd">
        <g id="Group-4" transform="translate(1.000000, 0.000000)">
            <path d="M140.022701,0.0242910743 C137.530399,0.150292064 135.088126,0.771362264 132.838328,1.85127799 L34.8006285,48.9305076 C29.6604188,51.3974232 25.9271221,56.0634898 24.6571311,61.6072835 L0.470922458,167.358571 C-0.657277422,172.282127 0.261224518,177.452828 3.01605917,181.686401 C3.3469217,182.199195 3.70270067,182.695472 4.08211706,183.173446 L71.9393278,267.968839 C75.4976866,272.413219 80.89241,275 86.5967379,275 L195.416796,274.974867 C201.119191,274.979056 206.513592,272.395819 210.074206,267.95595 L277.90661,183.148313 C281.465247,178.706595 282.799758,172.882099 281.530047,167.33376 L257.306145,61.5821503 C256.036154,56.0380345 252.302857,51.3722901 247.162647,48.9050522 L149.112705,1.85127799 C146.282712,0.492865976 143.157686,-0.13522847 140.022701,0.0242910743 Z" id="Path" fill="#326CE5" fill-rule="nonzero"></path>
            <g id="App-1" transform="translate(71.000000, 47.000000)">
                <g id="Group" transform="translate(0.000000, 50.523125)">
                    <path d="M70.3188394,35.4932564 L53.8689396,7.50607533 C52.9607255,5.95965978 51.2674335,5 49.4510054,5 L16.549845,5 C14.7327366,5 13.0394446,5.95965978 12.1305502,7.50607533 L-4.31934968,35.4932564 C-5.22688344,37.0403402 -5.22688344,38.9603281 -4.31934968,40.505407 L12.1305502,68.4939247 C13.0394446,70.0396719 14.7327366,71 16.549845,71 L49.450325,71 C51.2667532,71 52.9600452,70.0390036 53.8682593,68.4939247 L70.3188394,40.505407 C71.2270535,38.9603281 71.2270535,37.0403402 70.3188394,35.4932564 Z" id="Path" fill="#FFF900" fill-rule="nonzero" transform="translate(33.000000, 38.000000) rotate(90.000000) translate(-33.000000, -38.000000) "></path>
                    <text id="APP-1" font-family="Helvetica-Bold, Helvetica" font-size="19" font-weight="bold" letter-spacing="-0.16" fill="#333333">
                        <tspan x="6.13381836" y="45.476875">APP 1</tspan>
                    </text>
                </g>
                <g id="Group-2" transform="translate(74.000000, 50.523125)">
                    <path d="M70.3188394,35.4932564 L53.8689396,7.50607533 C52.9607255,5.95965978 51.2674335,5 49.4510054,5 L16.549845,5 C14.7327366,5 13.0394446,5.95965978 12.1305502,7.50607533 L-4.31934968,35.4932564 C-5.22688344,37.0403402 -5.22688344,38.9603281 -4.31934968,40.505407 L12.1305502,68.4939247 C13.0394446,70.0396719 14.7327366,71 16.549845,71 L49.450325,71 C51.2667532,71 52.9600452,70.0390036 53.8682593,68.4939247 L70.3188394,40.505407 C71.2270535,38.9603281 71.2270535,37.0403402 70.3188394,35.4932564 Z" id="Path" fill="#4AFF00" fill-rule="nonzero" transform="translate(33.000000, 38.000000) rotate(90.000000) translate(-33.000000, -38.000000) "></path>
                    <text id="APP-2" font-family="Helvetica-Bold, Helvetica" font-size="19" font-weight="bold" letter-spacing="-0.16" fill="#333333">
                        <tspan x="5.63381836" y="45.476875">APP 2</tspan>
                    </text>
                </g>
                <g id="Group-3" transform="translate(37.000000, 114.523125)">
                    <path d="M70.3188394,35.4932564 L53.8689396,7.50607533 C52.9607255,5.95965978 51.2674335,5 49.4510054,5 L16.549845,5 C14.7327366,5 13.0394446,5.95965978 12.1305502,7.50607533 L-4.31934968,35.4932564 C-5.22688344,37.0403402 -5.22688344,38.9603281 -4.31934968,40.505407 L12.1305502,68.4939247 C13.0394446,70.0396719 14.7327366,71 16.549845,71 L49.450325,71 C51.2667532,71 52.9600452,70.0390036 53.8682593,68.4939247 L70.3188394,40.505407 C71.2270535,38.9603281 71.2270535,37.0403402 70.3188394,35.4932564 Z" id="Path" fill="#FF5353" fill-rule="nonzero" transform="translate(33.000000, 38.000000) rotate(90.000000) translate(-33.000000, -38.000000) "></path>
                    <text id="APP-3" font-family="Helvetica-Bold, Helvetica" font-size="19" font-weight="bold" letter-spacing="-0.16" fill="#333333">
                        <tspan x="6.13381836" y="45.476875">APP 3</tspan>
                    </text>
                </g>
                <text id="DEV" font-family="Helvetica-Bold, Helvetica" font-size="38" font-weight="bold" letter-spacing="-0.16" fill="#FFFFFF">
                    <tspan x="31.1962305" y="37">DEV</tspan>
                </text>
            </g>
            <path d="M84.346,296 L84.346,290.71 C84.7293333,291.016667 85.1165,291.392333 85.5075,291.837 C85.8985,292.281667 86.2703333,292.7455 86.623,293.2285 C86.9756667,293.7115 87.3091667,294.1945 87.6235,294.6775 C87.9378333,295.1605 88.2176667,295.601333 88.463,296 L88.463,296 L92.396,296 C92.1353333,295.494 91.8133333,294.934333 91.43,294.321 C91.0466667,293.707667 90.625,293.094333 90.165,292.481 C89.705,291.867667 89.2296667,291.2735 88.739,290.6985 C88.2483333,290.1235 87.773,289.629 87.313,289.215 C88.233,288.310333 89.0801667,287.4325 89.8545,286.5815 C90.6288333,285.7305 91.4223333,284.837333 92.235,283.902 L92.235,283.902 L88.164,283.902 C87.9493333,284.162667 87.6925,284.469333 87.3935,284.822 C87.0945,285.174667 86.7763333,285.5465 86.439,285.9375 C86.1016667,286.3285 85.7528333,286.723333 85.3925,287.122 C85.0321667,287.520667 84.6833333,287.904 84.346,288.272 L84.346,288.272 L84.346,278.152 L80.919,278.704 L80.919,296 L84.346,296 Z M99.021,296.276 C100.033,296.276 100.999,296.203167 101.919,296.0575 C102.839,295.911833 103.590333,295.754667 104.173,295.586 L104.173,295.586 L104.173,283.902 L100.746,283.902 L100.746,293.24 C100.531333,293.270667 100.286,293.2975 100.01,293.3205 C99.734,293.3435 99.4733333,293.355 99.228,293.355 C98.4306667,293.355 97.8863333,293.109667 97.595,292.619 C97.3036667,292.128333 97.158,291.331 97.158,290.227 L97.158,290.227 L97.158,283.902 L93.731,283.902 L93.731,290.641 C93.731,291.469 93.8153333,292.228 93.984,292.918 C94.1526667,293.608 94.4363333,294.202167 94.835,294.7005 C95.2336667,295.198833 95.7741667,295.586 96.4565,295.862 C97.1388333,296.138 97.9936667,296.276 99.021,296.276 Z M112.178,296.299 C113.174667,296.299 114.064,296.1495 114.846,295.8505 C115.628,295.5515 116.287333,295.126 116.824,294.574 C117.360667,294.022 117.770833,293.355 118.0545,292.573 C118.338167,291.791 118.48,290.917 118.48,289.951 C118.48,289.000333 118.365,288.137833 118.135,287.3635 C117.905,286.589167 117.567667,285.926 117.123,285.374 C116.678333,284.822 116.126333,284.3965 115.467,284.0975 C114.807667,283.7985 114.048667,283.649 113.19,283.649 C112.714667,283.649 112.27,283.695 111.856,283.787 C111.442,283.879 111.043333,284.009333 110.66,284.178 L110.66,284.178 L110.66,278.152 L107.233,278.704 L107.233,295.609 C107.539667,295.701 107.892333,295.789167 108.291,295.8735 C108.689667,295.957833 109.1075,296.030667 109.5445,296.092 C109.9815,296.153333 110.426167,296.203167 110.8785,296.2415 C111.330833,296.279833 111.764,296.299 112.178,296.299 Z M112.155,293.378 C111.848333,293.378 111.564667,293.3665 111.304,293.3435 C111.043333,293.3205 110.828667,293.293667 110.66,293.263 L110.66,293.263 L110.66,287.03 C110.874667,286.892 111.1545,286.777 111.4995,286.685 C111.8445,286.593 112.193333,286.547 112.546,286.547 C114.171333,286.547 114.984,287.651 114.984,289.859 C114.984,290.917 114.746333,291.768 114.271,292.412 C113.795667,293.056 113.090333,293.378 112.155,293.378 Z M126.784,296.322 C127.213333,296.322 127.642667,296.299 128.072,296.253 C128.501333,296.207 128.903833,296.1495 129.2795,296.0805 C129.655167,296.0115 129.996333,295.931 130.303,295.839 C130.609667,295.747 130.855,295.655 131.039,295.563 L131.039,295.563 L130.579,292.78 C130.195667,292.948667 129.701167,293.0905 129.0955,293.2055 C128.489833,293.3205 127.872667,293.378 127.244,293.378 C126.262667,293.378 125.480667,293.171 124.898,292.757 C124.315333,292.343 123.985667,291.783333 123.909,291.078 L123.909,291.078 L131.683,291.078 C131.698333,290.894 131.713667,290.683167 131.729,290.4455 C131.744333,290.207833 131.752,289.989333 131.752,289.79 C131.752,287.750667 131.253667,286.205833 130.257,285.1555 C129.260333,284.105167 127.903333,283.58 126.186,283.58 C125.45,283.58 124.733167,283.718 124.0355,283.994 C123.337833,284.27 122.720667,284.676333 122.184,285.213 C121.647333,285.749667 121.214167,286.4205 120.8845,287.2255 C120.554833,288.0305 120.39,288.969667 120.39,290.043 C120.39,290.932333 120.5165,291.760333 120.7695,292.527 C121.0225,293.293667 121.4135,293.956833 121.9425,294.5165 C122.4715,295.076167 123.1385,295.517 123.9435,295.839 C124.7485,296.161 125.695333,296.322 126.784,296.322 Z M128.44,288.732 L123.909,288.732 C123.955,288.440667 124.027833,288.153167 124.1275,287.8695 C124.227167,287.585833 124.369,287.336667 124.553,287.122 C124.737,286.907333 124.967,286.734833 125.243,286.6045 C125.519,286.474167 125.848667,286.409 126.232,286.409 C126.630667,286.409 126.964167,286.478 127.2325,286.616 C127.500833,286.754 127.723167,286.930333 127.8995,287.145 C128.075833,287.359667 128.206167,287.605 128.2905,287.881 C128.374833,288.157 128.424667,288.440667 128.44,288.732 L128.44,288.732 Z M137.664,296 L137.664,286.754 C137.817333,286.708 138.0435,286.665833 138.3425,286.6275 C138.6415,286.589167 138.898333,286.57 139.113,286.57 C139.588333,286.57 140.033,286.612167 140.447,286.6965 C140.861,286.780833 141.221333,286.861333 141.528,286.938 L141.528,286.938 L142.103,284.109 C141.919,284.032333 141.696667,283.967167 141.436,283.9135 C141.175333,283.859833 140.914667,283.813833 140.654,283.7755 C140.393333,283.737167 140.132667,283.7065 139.872,283.6835 C139.611333,283.6605 139.389,283.649 139.205,283.649 C138.177667,283.649 137.246167,283.744833 136.4105,283.9365 C135.574833,284.128167 134.850333,284.331333 134.237,284.546 L134.237,284.546 L134.237,296 L137.664,296 Z M147.21,296 L147.21,286.662 C147.424667,286.631333 147.67,286.6045 147.946,286.5815 C148.222,286.5585 148.482667,286.547 148.728,286.547 C149.525333,286.547 150.069667,286.777 150.361,287.237 C150.652333,287.697 150.798,288.479 150.798,289.583 L150.798,289.583 L150.798,296 L154.225,296 L154.225,289.169 C154.225,288.341 154.140667,287.589667 153.972,286.915 C153.803333,286.240333 153.519667,285.657667 153.121,285.167 C152.722333,284.676333 152.181833,284.296833 151.4995,284.0285 C150.817167,283.760167 149.962333,283.626 148.935,283.626 C147.923,283.626 146.957,283.698833 146.037,283.8445 C145.117,283.990167 144.365667,284.147333 143.783,284.316 L143.783,284.316 L143.783,296 L147.21,296 Z M162.989,296.322 C163.418333,296.322 163.847667,296.299 164.277,296.253 C164.706333,296.207 165.108833,296.1495 165.4845,296.0805 C165.860167,296.0115 166.201333,295.931 166.508,295.839 C166.814667,295.747 167.06,295.655 167.244,295.563 L167.244,295.563 L166.784,292.78 C166.400667,292.948667 165.906167,293.0905 165.3005,293.2055 C164.694833,293.3205 164.077667,293.378 163.449,293.378 C162.467667,293.378 161.685667,293.171 161.103,292.757 C160.520333,292.343 160.190667,291.783333 160.114,291.078 L160.114,291.078 L167.888,291.078 C167.903333,290.894 167.918667,290.683167 167.934,290.4455 C167.949333,290.207833 167.957,289.989333 167.957,289.79 C167.957,287.750667 167.458667,286.205833 166.462,285.1555 C165.465333,284.105167 164.108333,283.58 162.391,283.58 C161.655,283.58 160.938167,283.718 160.2405,283.994 C159.542833,284.27 158.925667,284.676333 158.389,285.213 C157.852333,285.749667 157.419167,286.4205 157.0895,287.2255 C156.759833,288.0305 156.595,288.969667 156.595,290.043 C156.595,290.932333 156.7215,291.760333 156.9745,292.527 C157.2275,293.293667 157.6185,293.956833 158.1475,294.5165 C158.6765,295.076167 159.3435,295.517 160.1485,295.839 C160.9535,296.161 161.900333,296.322 162.989,296.322 Z M164.645,288.732 L160.114,288.732 C160.16,288.440667 160.232833,288.153167 160.3325,287.8695 C160.432167,287.585833 160.574,287.336667 160.758,287.122 C160.942,286.907333 161.172,286.734833 161.448,286.6045 C161.724,286.474167 162.053667,286.409 162.437,286.409 C162.835667,286.409 163.169167,286.478 163.4375,286.616 C163.705833,286.754 163.928167,286.930333 164.1045,287.145 C164.280833,287.359667 164.411167,287.605 164.4955,287.881 C164.579833,288.157 164.629667,288.440667 164.645,288.732 L164.645,288.732 Z M175.111,296.276 C175.847,296.276 176.468,296.214667 176.974,296.092 C177.48,295.969333 177.94,295.823667 178.354,295.655 L178.354,295.655 L177.871,292.987 C177.549,293.109667 177.1925,293.2055 176.8015,293.2745 C176.4105,293.3435 176.031,293.378 175.663,293.378 C174.896333,293.378 174.3865,293.163333 174.1335,292.734 C173.8805,292.304667 173.754,291.729667 173.754,291.009 L173.754,291.009 L173.754,286.754 L177.871,286.754 L177.871,283.902 L173.754,283.902 L173.754,280.337 L170.327,280.889 L170.327,291.055 C170.327,291.837 170.399833,292.55 170.5455,293.194 C170.691167,293.838 170.948,294.386167 171.316,294.8385 C171.684,295.290833 172.174667,295.6435 172.788,295.8965 C173.401333,296.1495 174.175667,296.276 175.111,296.276 Z M185.853,296.322 C186.282333,296.322 186.711667,296.299 187.141,296.253 C187.570333,296.207 187.972833,296.1495 188.3485,296.0805 C188.724167,296.0115 189.065333,295.931 189.372,295.839 C189.678667,295.747 189.924,295.655 190.108,295.563 L190.108,295.563 L189.648,292.78 C189.264667,292.948667 188.770167,293.0905 188.1645,293.2055 C187.558833,293.3205 186.941667,293.378 186.313,293.378 C185.331667,293.378 184.549667,293.171 183.967,292.757 C183.384333,292.343 183.054667,291.783333 182.978,291.078 L182.978,291.078 L190.752,291.078 C190.767333,290.894 190.782667,290.683167 190.798,290.4455 C190.813333,290.207833 190.821,289.989333 190.821,289.79 C190.821,287.750667 190.322667,286.205833 189.326,285.1555 C188.329333,284.105167 186.972333,283.58 185.255,283.58 C184.519,283.58 183.802167,283.718 183.1045,283.994 C182.406833,284.27 181.789667,284.676333 181.253,285.213 C180.716333,285.749667 180.283167,286.4205 179.9535,287.2255 C179.623833,288.0305 179.459,288.969667 179.459,290.043 C179.459,290.932333 179.5855,291.760333 179.8385,292.527 C180.0915,293.293667 180.4825,293.956833 181.0115,294.5165 C181.5405,295.076167 182.2075,295.517 183.0125,295.839 C183.8175,296.161 184.764333,296.322 185.853,296.322 Z M187.509,288.732 L182.978,288.732 C183.024,288.440667 183.096833,288.153167 183.1965,287.8695 C183.296167,287.585833 183.438,287.336667 183.622,287.122 C183.806,286.907333 184.036,286.734833 184.312,286.6045 C184.588,286.474167 184.917667,286.409 185.301,286.409 C185.699667,286.409 186.033167,286.478 186.3015,286.616 C186.569833,286.754 186.792167,286.930333 186.9685,287.145 C187.144833,287.359667 187.275167,287.605 187.3595,287.881 C187.443833,288.157 187.493667,288.440667 187.509,288.732 L187.509,288.732 Z M196.756,296.322 C198.396667,296.322 199.6655,296.015333 200.5625,295.402 C201.4595,294.788667 201.908,293.884 201.908,292.688 C201.908,292.182 201.8505,291.737333 201.7355,291.354 C201.6205,290.970667 201.421167,290.621833 201.1375,290.3075 C200.853833,289.993167 200.466667,289.701833 199.976,289.4335 C199.485333,289.165167 198.864333,288.893 198.113,288.617 C197.745,288.479 197.442167,288.3525 197.2045,288.2375 C196.966833,288.1225 196.779,288.015167 196.641,287.9155 C196.503,287.815833 196.411,287.712333 196.365,287.605 C196.319,287.497667 196.296,287.375 196.296,287.237 C196.296,286.639 196.832667,286.34 197.906,286.34 C198.488667,286.34 199.013833,286.393667 199.4815,286.501 C199.949167,286.608333 200.382333,286.731 200.781,286.869 L200.781,286.869 L201.379,284.201 C200.980333,284.047667 200.443667,283.905833 199.769,283.7755 C199.094333,283.645167 198.389,283.58 197.653,283.58 C196.181,283.58 195.023333,283.909667 194.18,284.569 C193.336667,285.228333 192.915,286.125333 192.915,287.26 C192.915,287.842667 192.999333,288.341 193.168,288.755 C193.336667,289.169 193.574333,289.5255 193.881,289.8245 C194.187667,290.1235 194.5595,290.380333 194.9965,290.595 C195.4335,290.809667 195.920333,291.016667 196.457,291.216 C197.147,291.476667 197.660667,291.7105 197.998,291.9175 C198.335333,292.1245 198.504,292.366 198.504,292.642 C198.504,292.994667 198.373667,293.232333 198.113,293.355 C197.852333,293.477667 197.407667,293.539 196.779,293.539 C196.181,293.539 195.575333,293.473833 194.962,293.3435 C194.348667,293.213167 193.750667,293.033 193.168,292.803 L193.168,292.803 L192.593,295.586 C192.869,295.708667 193.3635,295.862 194.0765,296.046 C194.7895,296.23 195.682667,296.322 196.756,296.322 Z" id="kubernetes" fill="#000000" fill-rule="nonzero"></path>
        </g>
        <g id="Group-6" transform="translate(179.000000, 297.000000)">
            <path d="M140.022701,0.0242910743 C137.530399,0.150292064 135.088126,0.771362264 132.838328,1.85127799 L34.8006285,48.9305076 C29.6604188,51.3974232 25.9271221,56.0634898 24.6571311,61.6072835 L0.470922458,167.358571 C-0.657277422,172.282127 0.261224518,177.452828 3.01605917,181.686401 C3.3469217,182.199195 3.70270067,182.695472 4.08211706,183.173446 L71.9393278,267.968839 C75.4976866,272.413219 80.89241,275 86.5967379,275 L195.416796,274.974867 C201.119191,274.979056 206.513592,272.395819 210.074206,267.95595 L277.90661,183.148313 C281.465247,178.706595 282.799758,172.882099 281.530047,167.33376 L257.306145,61.5821503 C256.036154,56.0380345 252.302857,51.3722901 247.162647,48.9050522 L149.112705,1.85127799 C146.282712,0.492865976 143.157686,-0.13522847 140.022701,0.0242910743 Z" id="Path" fill="#326CE5" fill-rule="nonzero"></path>
            <g id="App-3" transform="translate(71.000000, 42.000000)">
                <g id="Group" transform="translate(0.000000, 50.523125)">
                    <path d="M70.3188394,35.4932564 L53.8689396,7.50607533 C52.9607255,5.95965978 51.2674335,5 49.4510054,5 L16.549845,5 C14.7327366,5 13.0394446,5.95965978 12.1305502,7.50607533 L-4.31934968,35.4932564 C-5.22688344,37.0403402 -5.22688344,38.9603281 -4.31934968,40.505407 L12.1305502,68.4939247 C13.0394446,70.0396719 14.7327366,71 16.549845,71 L49.450325,71 C51.2667532,71 52.9600452,70.0390036 53.8682593,68.4939247 L70.3188394,40.505407 C71.2270535,38.9603281 71.2270535,37.0403402 70.3188394,35.4932564 Z" id="Path" fill="#FFF900" fill-rule="nonzero" transform="translate(33.000000, 38.000000) rotate(90.000000) translate(-33.000000, -38.000000) "></path>
                    <text id="APP-1" font-family="Helvetica-Bold, Helvetica" font-size="19" font-weight="bold" letter-spacing="-0.16" fill="#333333">
                        <tspan x="6.13381836" y="45.476875">APP 1</tspan>
                    </text>
                </g>
                <g id="Group-2" transform="translate(74.000000, 50.523125)">
                    <path d="M70.3188394,35.4932564 L53.8689396,7.50607533 C52.9607255,5.95965978 51.2674335,5 49.4510054,5 L16.549845,5 C14.7327366,5 13.0394446,5.95965978 12.1305502,7.50607533 L-4.31934968,35.4932564 C-5.22688344,37.0403402 -5.22688344,38.9603281 -4.31934968,40.505407 L12.1305502,68.4939247 C13.0394446,70.0396719 14.7327366,71 16.549845,71 L49.450325,71 C51.2667532,71 52.9600452,70.0390036 53.8682593,68.4939247 L70.3188394,40.505407 C71.2270535,38.9603281 71.2270535,37.0403402 70.3188394,35.4932564 Z" id="Path" fill="#4AFF00" fill-rule="nonzero" transform="translate(33.000000, 38.000000) rotate(90.000000) translate(-33.000000, -38.000000) "></path>
                    <text id="APP-2" font-family="Helvetica-Bold, Helvetica" font-size="19" font-weight="bold" letter-spacing="-0.16" fill="#333333">
                        <tspan x="5.63381836" y="45.476875">APP 2</tspan>
                    </text>
                </g>
                <g id="Group-3" transform="translate(37.000000, 114.523125)">
                    <path d="M70.3188394,35.4932564 L53.8689396,7.50607533 C52.9607255,5.95965978 51.2674335,5 49.4510054,5 L16.549845,5 C14.7327366,5 13.0394446,5.95965978 12.1305502,7.50607533 L-4.31934968,35.4932564 C-5.22688344,37.0403402 -5.22688344,38.9603281 -4.31934968,40.505407 L12.1305502,68.4939247 C13.0394446,70.0396719 14.7327366,71 16.549845,71 L49.450325,71 C51.2667532,71 52.9600452,70.0390036 53.8682593,68.4939247 L70.3188394,40.505407 C71.2270535,38.9603281 71.2270535,37.0403402 70.3188394,35.4932564 Z" id="Path" fill="#FF5353" fill-rule="nonzero" transform="translate(33.000000, 38.000000) rotate(90.000000) translate(-33.000000, -38.000000) "></path>
                    <text id="APP-3" font-family="Helvetica-Bold, Helvetica" font-size="19" font-weight="bold" letter-spacing="-0.16" fill="#333333">
                        <tspan x="6.13381836" y="45.476875">APP 3</tspan>
                    </text>
                </g>
                <text id="PROD" font-family="Helvetica-Bold, Helvetica" font-size="38" font-weight="bold" letter-spacing="-0.16" fill="#FFFFFF">
                    <tspan x="15.449082" y="37">PROD</tspan>
                </text>
            </g>
            <path d="M84.346,296 L84.346,290.71 C84.7293333,291.016667 85.1165,291.392333 85.5075,291.837 C85.8985,292.281667 86.2703333,292.7455 86.623,293.2285 C86.9756667,293.7115 87.3091667,294.1945 87.6235,294.6775 C87.9378333,295.1605 88.2176667,295.601333 88.463,296 L88.463,296 L92.396,296 C92.1353333,295.494 91.8133333,294.934333 91.43,294.321 C91.0466667,293.707667 90.625,293.094333 90.165,292.481 C89.705,291.867667 89.2296667,291.2735 88.739,290.6985 C88.2483333,290.1235 87.773,289.629 87.313,289.215 C88.233,288.310333 89.0801667,287.4325 89.8545,286.5815 C90.6288333,285.7305 91.4223333,284.837333 92.235,283.902 L92.235,283.902 L88.164,283.902 C87.9493333,284.162667 87.6925,284.469333 87.3935,284.822 C87.0945,285.174667 86.7763333,285.5465 86.439,285.9375 C86.1016667,286.3285 85.7528333,286.723333 85.3925,287.122 C85.0321667,287.520667 84.6833333,287.904 84.346,288.272 L84.346,288.272 L84.346,278.152 L80.919,278.704 L80.919,296 L84.346,296 Z M99.021,296.276 C100.033,296.276 100.999,296.203167 101.919,296.0575 C102.839,295.911833 103.590333,295.754667 104.173,295.586 L104.173,295.586 L104.173,283.902 L100.746,283.902 L100.746,293.24 C100.531333,293.270667 100.286,293.2975 100.01,293.3205 C99.734,293.3435 99.4733333,293.355 99.228,293.355 C98.4306667,293.355 97.8863333,293.109667 97.595,292.619 C97.3036667,292.128333 97.158,291.331 97.158,290.227 L97.158,290.227 L97.158,283.902 L93.731,283.902 L93.731,290.641 C93.731,291.469 93.8153333,292.228 93.984,292.918 C94.1526667,293.608 94.4363333,294.202167 94.835,294.7005 C95.2336667,295.198833 95.7741667,295.586 96.4565,295.862 C97.1388333,296.138 97.9936667,296.276 99.021,296.276 Z M112.178,296.299 C113.174667,296.299 114.064,296.1495 114.846,295.8505 C115.628,295.5515 116.287333,295.126 116.824,294.574 C117.360667,294.022 117.770833,293.355 118.0545,292.573 C118.338167,291.791 118.48,290.917 118.48,289.951 C118.48,289.000333 118.365,288.137833 118.135,287.3635 C117.905,286.589167 117.567667,285.926 117.123,285.374 C116.678333,284.822 116.126333,284.3965 115.467,284.0975 C114.807667,283.7985 114.048667,283.649 113.19,283.649 C112.714667,283.649 112.27,283.695 111.856,283.787 C111.442,283.879 111.043333,284.009333 110.66,284.178 L110.66,284.178 L110.66,278.152 L107.233,278.704 L107.233,295.609 C107.539667,295.701 107.892333,295.789167 108.291,295.8735 C108.689667,295.957833 109.1075,296.030667 109.5445,296.092 C109.9815,296.153333 110.426167,296.203167 110.8785,296.2415 C111.330833,296.279833 111.764,296.299 112.178,296.299 Z M112.155,293.378 C111.848333,293.378 111.564667,293.3665 111.304,293.3435 C111.043333,293.3205 110.828667,293.293667 110.66,293.263 L110.66,293.263 L110.66,287.03 C110.874667,286.892 111.1545,286.777 111.4995,286.685 C111.8445,286.593 112.193333,286.547 112.546,286.547 C114.171333,286.547 114.984,287.651 114.984,289.859 C114.984,290.917 114.746333,291.768 114.271,292.412 C113.795667,293.056 113.090333,293.378 112.155,293.378 Z M126.784,296.322 C127.213333,296.322 127.642667,296.299 128.072,296.253 C128.501333,296.207 128.903833,296.1495 129.2795,296.0805 C129.655167,296.0115 129.996333,295.931 130.303,295.839 C130.609667,295.747 130.855,295.655 131.039,295.563 L131.039,295.563 L130.579,292.78 C130.195667,292.948667 129.701167,293.0905 129.0955,293.2055 C128.489833,293.3205 127.872667,293.378 127.244,293.378 C126.262667,293.378 125.480667,293.171 124.898,292.757 C124.315333,292.343 123.985667,291.783333 123.909,291.078 L123.909,291.078 L131.683,291.078 C131.698333,290.894 131.713667,290.683167 131.729,290.4455 C131.744333,290.207833 131.752,289.989333 131.752,289.79 C131.752,287.750667 131.253667,286.205833 130.257,285.1555 C129.260333,284.105167 127.903333,283.58 126.186,283.58 C125.45,283.58 124.733167,283.718 124.0355,283.994 C123.337833,284.27 122.720667,284.676333 122.184,285.213 C121.647333,285.749667 121.214167,286.4205 120.8845,287.2255 C120.554833,288.0305 120.39,288.969667 120.39,290.043 C120.39,290.932333 120.5165,291.760333 120.7695,292.527 C121.0225,293.293667 121.4135,293.956833 121.9425,294.5165 C122.4715,295.076167 123.1385,295.517 123.9435,295.839 C124.7485,296.161 125.695333,296.322 126.784,296.322 Z M128.44,288.732 L123.909,288.732 C123.955,288.440667 124.027833,288.153167 124.1275,287.8695 C124.227167,287.585833 124.369,287.336667 124.553,287.122 C124.737,286.907333 124.967,286.734833 125.243,286.6045 C125.519,286.474167 125.848667,286.409 126.232,286.409 C126.630667,286.409 126.964167,286.478 127.2325,286.616 C127.500833,286.754 127.723167,286.930333 127.8995,287.145 C128.075833,287.359667 128.206167,287.605 128.2905,287.881 C128.374833,288.157 128.424667,288.440667 128.44,288.732 L128.44,288.732 Z M137.664,296 L137.664,286.754 C137.817333,286.708 138.0435,286.665833 138.3425,286.6275 C138.6415,286.589167 138.898333,286.57 139.113,286.57 C139.588333,286.57 140.033,286.612167 140.447,286.6965 C140.861,286.780833 141.221333,286.861333 141.528,286.938 L141.528,286.938 L142.103,284.109 C141.919,284.032333 141.696667,283.967167 141.436,283.9135 C141.175333,283.859833 140.914667,283.813833 140.654,283.7755 C140.393333,283.737167 140.132667,283.7065 139.872,283.6835 C139.611333,283.6605 139.389,283.649 139.205,283.649 C138.177667,283.649 137.246167,283.744833 136.4105,283.9365 C135.574833,284.128167 134.850333,284.331333 134.237,284.546 L134.237,284.546 L134.237,296 L137.664,296 Z M147.21,296 L147.21,286.662 C147.424667,286.631333 147.67,286.6045 147.946,286.5815 C148.222,286.5585 148.482667,286.547 148.728,286.547 C149.525333,286.547 150.069667,286.777 150.361,287.237 C150.652333,287.697 150.798,288.479 150.798,289.583 L150.798,289.583 L150.798,296 L154.225,296 L154.225,289.169 C154.225,288.341 154.140667,287.589667 153.972,286.915 C153.803333,286.240333 153.519667,285.657667 153.121,285.167 C152.722333,284.676333 152.181833,284.296833 151.4995,284.0285 C150.817167,283.760167 149.962333,283.626 148.935,283.626 C147.923,283.626 146.957,283.698833 146.037,283.8445 C145.117,283.990167 144.365667,284.147333 143.783,284.316 L143.783,284.316 L143.783,296 L147.21,296 Z M162.989,296.322 C163.418333,296.322 163.847667,296.299 164.277,296.253 C164.706333,296.207 165.108833,296.1495 165.4845,296.0805 C165.860167,296.0115 166.201333,295.931 166.508,295.839 C166.814667,295.747 167.06,295.655 167.244,295.563 L167.244,295.563 L166.784,292.78 C166.400667,292.948667 165.906167,293.0905 165.3005,293.2055 C164.694833,293.3205 164.077667,293.378 163.449,293.378 C162.467667,293.378 161.685667,293.171 161.103,292.757 C160.520333,292.343 160.190667,291.783333 160.114,291.078 L160.114,291.078 L167.888,291.078 C167.903333,290.894 167.918667,290.683167 167.934,290.4455 C167.949333,290.207833 167.957,289.989333 167.957,289.79 C167.957,287.750667 167.458667,286.205833 166.462,285.1555 C165.465333,284.105167 164.108333,283.58 162.391,283.58 C161.655,283.58 160.938167,283.718 160.2405,283.994 C159.542833,284.27 158.925667,284.676333 158.389,285.213 C157.852333,285.749667 157.419167,286.4205 157.0895,287.2255 C156.759833,288.0305 156.595,288.969667 156.595,290.043 C156.595,290.932333 156.7215,291.760333 156.9745,292.527 C157.2275,293.293667 157.6185,293.956833 158.1475,294.5165 C158.6765,295.076167 159.3435,295.517 160.1485,295.839 C160.9535,296.161 161.900333,296.322 162.989,296.322 Z M164.645,288.732 L160.114,288.732 C160.16,288.440667 160.232833,288.153167 160.3325,287.8695 C160.432167,287.585833 160.574,287.336667 160.758,287.122 C160.942,286.907333 161.172,286.734833 161.448,286.6045 C161.724,286.474167 162.053667,286.409 162.437,286.409 C162.835667,286.409 163.169167,286.478 163.4375,286.616 C163.705833,286.754 163.928167,286.930333 164.1045,287.145 C164.280833,287.359667 164.411167,287.605 164.4955,287.881 C164.579833,288.157 164.629667,288.440667 164.645,288.732 L164.645,288.732 Z M175.111,296.276 C175.847,296.276 176.468,296.214667 176.974,296.092 C177.48,295.969333 177.94,295.823667 178.354,295.655 L178.354,295.655 L177.871,292.987 C177.549,293.109667 177.1925,293.2055 176.8015,293.2745 C176.4105,293.3435 176.031,293.378 175.663,293.378 C174.896333,293.378 174.3865,293.163333 174.1335,292.734 C173.8805,292.304667 173.754,291.729667 173.754,291.009 L173.754,291.009 L173.754,286.754 L177.871,286.754 L177.871,283.902 L173.754,283.902 L173.754,280.337 L170.327,280.889 L170.327,291.055 C170.327,291.837 170.399833,292.55 170.5455,293.194 C170.691167,293.838 170.948,294.386167 171.316,294.8385 C171.684,295.290833 172.174667,295.6435 172.788,295.8965 C173.401333,296.1495 174.175667,296.276 175.111,296.276 Z M185.853,296.322 C186.282333,296.322 186.711667,296.299 187.141,296.253 C187.570333,296.207 187.972833,296.1495 188.3485,296.0805 C188.724167,296.0115 189.065333,295.931 189.372,295.839 C189.678667,295.747 189.924,295.655 190.108,295.563 L190.108,295.563 L189.648,292.78 C189.264667,292.948667 188.770167,293.0905 188.1645,293.2055 C187.558833,293.3205 186.941667,293.378 186.313,293.378 C185.331667,293.378 184.549667,293.171 183.967,292.757 C183.384333,292.343 183.054667,291.783333 182.978,291.078 L182.978,291.078 L190.752,291.078 C190.767333,290.894 190.782667,290.683167 190.798,290.4455 C190.813333,290.207833 190.821,289.989333 190.821,289.79 C190.821,287.750667 190.322667,286.205833 189.326,285.1555 C188.329333,284.105167 186.972333,283.58 185.255,283.58 C184.519,283.58 183.802167,283.718 183.1045,283.994 C182.406833,284.27 181.789667,284.676333 181.253,285.213 C180.716333,285.749667 180.283167,286.4205 179.9535,287.2255 C179.623833,288.0305 179.459,288.969667 179.459,290.043 C179.459,290.932333 179.5855,291.760333 179.8385,292.527 C180.0915,293.293667 180.4825,293.956833 181.0115,294.5165 C181.5405,295.076167 182.2075,295.517 183.0125,295.839 C183.8175,296.161 184.764333,296.322 185.853,296.322 Z M187.509,288.732 L182.978,288.732 C183.024,288.440667 183.096833,288.153167 183.1965,287.8695 C183.296167,287.585833 183.438,287.336667 183.622,287.122 C183.806,286.907333 184.036,286.734833 184.312,286.6045 C184.588,286.474167 184.917667,286.409 185.301,286.409 C185.699667,286.409 186.033167,286.478 186.3015,286.616 C186.569833,286.754 186.792167,286.930333 186.9685,287.145 C187.144833,287.359667 187.275167,287.605 187.3595,287.881 C187.443833,288.157 187.493667,288.440667 187.509,288.732 L187.509,288.732 Z M196.756,296.322 C198.396667,296.322 199.6655,296.015333 200.5625,295.402 C201.4595,294.788667 201.908,293.884 201.908,292.688 C201.908,292.182 201.8505,291.737333 201.7355,291.354 C201.6205,290.970667 201.421167,290.621833 201.1375,290.3075 C200.853833,289.993167 200.466667,289.701833 199.976,289.4335 C199.485333,289.165167 198.864333,288.893 198.113,288.617 C197.745,288.479 197.442167,288.3525 197.2045,288.2375 C196.966833,288.1225 196.779,288.015167 196.641,287.9155 C196.503,287.815833 196.411,287.712333 196.365,287.605 C196.319,287.497667 196.296,287.375 196.296,287.237 C196.296,286.639 196.832667,286.34 197.906,286.34 C198.488667,286.34 199.013833,286.393667 199.4815,286.501 C199.949167,286.608333 200.382333,286.731 200.781,286.869 L200.781,286.869 L201.379,284.201 C200.980333,284.047667 200.443667,283.905833 199.769,283.7755 C199.094333,283.645167 198.389,283.58 197.653,283.58 C196.181,283.58 195.023333,283.909667 194.18,284.569 C193.336667,285.228333 192.915,286.125333 192.915,287.26 C192.915,287.842667 192.999333,288.341 193.168,288.755 C193.336667,289.169 193.574333,289.5255 193.881,289.8245 C194.187667,290.1235 194.5595,290.380333 194.9965,290.595 C195.4335,290.809667 195.920333,291.016667 196.457,291.216 C197.147,291.476667 197.660667,291.7105 197.998,291.9175 C198.335333,292.1245 198.504,292.366 198.504,292.642 C198.504,292.994667 198.373667,293.232333 198.113,293.355 C197.852333,293.477667 197.407667,293.539 196.779,293.539 C196.181,293.539 195.575333,293.473833 194.962,293.3435 C194.348667,293.213167 193.750667,293.033 193.168,292.803 L193.168,292.803 L192.593,295.586 C192.869,295.708667 193.3635,295.862 194.0765,296.046 C194.7895,296.23 195.682667,296.322 196.756,296.322 Z" id="kubernetes" fill="#000000" fill-rule="nonzero"></path>
        </g>
        <g id="Group-5" transform="translate(357.000000, 0.000000)">
            <path d="M140.022701,0.0242910743 C137.530399,0.150292064 135.088126,0.771362264 132.838328,1.85127799 L34.8006285,48.9305076 C29.6604188,51.3974232 25.9271221,56.0634898 24.6571311,61.6072835 L0.470922458,167.358571 C-0.657277422,172.282127 0.261224518,177.452828 3.01605917,181.686401 C3.3469217,182.199195 3.70270067,182.695472 4.08211706,183.173446 L71.9393278,267.968839 C75.4976866,272.413219 80.89241,275 86.5967379,275 L195.416796,274.974867 C201.119191,274.979056 206.513592,272.395819 210.074206,267.95595 L277.90661,183.148313 C281.465247,178.706595 282.799758,172.882099 281.530047,167.33376 L257.306145,61.5821503 C256.036154,56.0380345 252.302857,51.3722901 247.162647,48.9050522 L149.112705,1.85127799 C146.282712,0.492865976 143.157686,-0.13522847 140.022701,0.0242910743 Z" id="Path" fill="#326CE5" fill-rule="nonzero"></path>
            <g id="App-2" transform="translate(71.000000, 47.000000)">
                <g id="Group" transform="translate(0.000000, 50.523125)">
                    <path d="M70.3188394,35.4932564 L53.8689396,7.50607533 C52.9607255,5.95965978 51.2674335,5 49.4510054,5 L16.549845,5 C14.7327366,5 13.0394446,5.95965978 12.1305502,7.50607533 L-4.31934968,35.4932564 C-5.22688344,37.0403402 -5.22688344,38.9603281 -4.31934968,40.505407 L12.1305502,68.4939247 C13.0394446,70.0396719 14.7327366,71 16.549845,71 L49.450325,71 C51.2667532,71 52.9600452,70.0390036 53.8682593,68.4939247 L70.3188394,40.505407 C71.2270535,38.9603281 71.2270535,37.0403402 70.3188394,35.4932564 Z" id="Path" fill="#FFF900" fill-rule="nonzero" transform="translate(33.000000, 38.000000) rotate(90.000000) translate(-33.000000, -38.000000) "></path>
                    <text id="APP-1" font-family="Helvetica-Bold, Helvetica" font-size="19" font-weight="bold" letter-spacing="-0.16" fill="#333333">
                        <tspan x="6.13381836" y="45.476875">APP 1</tspan>
                    </text>
                </g>
                <g id="Group-2" transform="translate(74.000000, 50.523125)">
                    <path d="M70.3188394,35.4932564 L53.8689396,7.50607533 C52.9607255,5.95965978 51.2674335,5 49.4510054,5 L16.549845,5 C14.7327366,5 13.0394446,5.95965978 12.1305502,7.50607533 L-4.31934968,35.4932564 C-5.22688344,37.0403402 -5.22688344,38.9603281 -4.31934968,40.505407 L12.1305502,68.4939247 C13.0394446,70.0396719 14.7327366,71 16.549845,71 L49.450325,71 C51.2667532,71 52.9600452,70.0390036 53.8682593,68.4939247 L70.3188394,40.505407 C71.2270535,38.9603281 71.2270535,37.0403402 70.3188394,35.4932564 Z" id="Path" fill="#4AFF00" fill-rule="nonzero" transform="translate(33.000000, 38.000000) rotate(90.000000) translate(-33.000000, -38.000000) "></path>
                    <text id="APP-2" font-family="Helvetica-Bold, Helvetica" font-size="19" font-weight="bold" letter-spacing="-0.16" fill="#333333">
                        <tspan x="5.63381836" y="45.476875">APP 2</tspan>
                    </text>
                </g>
                <g id="Group-3" transform="translate(37.000000, 114.523125)">
                    <path d="M70.3188394,35.4932564 L53.8689396,7.50607533 C52.9607255,5.95965978 51.2674335,5 49.4510054,5 L16.549845,5 C14.7327366,5 13.0394446,5.95965978 12.1305502,7.50607533 L-4.31934968,35.4932564 C-5.22688344,37.0403402 -5.22688344,38.9603281 -4.31934968,40.505407 L12.1305502,68.4939247 C13.0394446,70.0396719 14.7327366,71 16.549845,71 L49.450325,71 C51.2667532,71 52.9600452,70.0390036 53.8682593,68.4939247 L70.3188394,40.505407 C71.2270535,38.9603281 71.2270535,37.0403402 70.3188394,35.4932564 Z" id="Path" fill="#FF5353" fill-rule="nonzero" transform="translate(33.000000, 38.000000) rotate(90.000000) translate(-33.000000, -38.000000) "></path>
                    <text id="APP-3" font-family="Helvetica-Bold, Helvetica" font-size="19" font-weight="bold" letter-spacing="-0.16" fill="#333333">
                        <tspan x="6.13381836" y="45.476875">APP 3</tspan>
                    </text>
                </g>
                <text id="TEST" font-family="Helvetica-Bold, Helvetica" font-size="38" font-weight="bold" letter-spacing="-0.16" fill="#FFFFFF">
                    <tspan x="21.7855078" y="37">TEST</tspan>
                </text>
            </g>
            <path d="M84.346,296 L84.346,290.71 C84.7293333,291.016667 85.1165,291.392333 85.5075,291.837 C85.8985,292.281667 86.2703333,292.7455 86.623,293.2285 C86.9756667,293.7115 87.3091667,294.1945 87.6235,294.6775 C87.9378333,295.1605 88.2176667,295.601333 88.463,296 L88.463,296 L92.396,296 C92.1353333,295.494 91.8133333,294.934333 91.43,294.321 C91.0466667,293.707667 90.625,293.094333 90.165,292.481 C89.705,291.867667 89.2296667,291.2735 88.739,290.6985 C88.2483333,290.1235 87.773,289.629 87.313,289.215 C88.233,288.310333 89.0801667,287.4325 89.8545,286.5815 C90.6288333,285.7305 91.4223333,284.837333 92.235,283.902 L92.235,283.902 L88.164,283.902 C87.9493333,284.162667 87.6925,284.469333 87.3935,284.822 C87.0945,285.174667 86.7763333,285.5465 86.439,285.9375 C86.1016667,286.3285 85.7528333,286.723333 85.3925,287.122 C85.0321667,287.520667 84.6833333,287.904 84.346,288.272 L84.346,288.272 L84.346,278.152 L80.919,278.704 L80.919,296 L84.346,296 Z M99.021,296.276 C100.033,296.276 100.999,296.203167 101.919,296.0575 C102.839,295.911833 103.590333,295.754667 104.173,295.586 L104.173,295.586 L104.173,283.902 L100.746,283.902 L100.746,293.24 C100.531333,293.270667 100.286,293.2975 100.01,293.3205 C99.734,293.3435 99.4733333,293.355 99.228,293.355 C98.4306667,293.355 97.8863333,293.109667 97.595,292.619 C97.3036667,292.128333 97.158,291.331 97.158,290.227 L97.158,290.227 L97.158,283.902 L93.731,283.902 L93.731,290.641 C93.731,291.469 93.8153333,292.228 93.984,292.918 C94.1526667,293.608 94.4363333,294.202167 94.835,294.7005 C95.2336667,295.198833 95.7741667,295.586 96.4565,295.862 C97.1388333,296.138 97.9936667,296.276 99.021,296.276 Z M112.178,296.299 C113.174667,296.299 114.064,296.1495 114.846,295.8505 C115.628,295.5515 116.287333,295.126 116.824,294.574 C117.360667,294.022 117.770833,293.355 118.0545,292.573 C118.338167,291.791 118.48,290.917 118.48,289.951 C118.48,289.000333 118.365,288.137833 118.135,287.3635 C117.905,286.589167 117.567667,285.926 117.123,285.374 C116.678333,284.822 116.126333,284.3965 115.467,284.0975 C114.807667,283.7985 114.048667,283.649 113.19,283.649 C112.714667,283.649 112.27,283.695 111.856,283.787 C111.442,283.879 111.043333,284.009333 110.66,284.178 L110.66,284.178 L110.66,278.152 L107.233,278.704 L107.233,295.609 C107.539667,295.701 107.892333,295.789167 108.291,295.8735 C108.689667,295.957833 109.1075,296.030667 109.5445,296.092 C109.9815,296.153333 110.426167,296.203167 110.8785,296.2415 C111.330833,296.279833 111.764,296.299 112.178,296.299 Z M112.155,293.378 C111.848333,293.378 111.564667,293.3665 111.304,293.3435 C111.043333,293.3205 110.828667,293.293667 110.66,293.263 L110.66,293.263 L110.66,287.03 C110.874667,286.892 111.1545,286.777 111.4995,286.685 C111.8445,286.593 112.193333,286.547 112.546,286.547 C114.171333,286.547 114.984,287.651 114.984,289.859 C114.984,290.917 114.746333,291.768 114.271,292.412 C113.795667,293.056 113.090333,293.378 112.155,293.378 Z M126.784,296.322 C127.213333,296.322 127.642667,296.299 128.072,296.253 C128.501333,296.207 128.903833,296.1495 129.2795,296.0805 C129.655167,296.0115 129.996333,295.931 130.303,295.839 C130.609667,295.747 130.855,295.655 131.039,295.563 L131.039,295.563 L130.579,292.78 C130.195667,292.948667 129.701167,293.0905 129.0955,293.2055 C128.489833,293.3205 127.872667,293.378 127.244,293.378 C126.262667,293.378 125.480667,293.171 124.898,292.757 C124.315333,292.343 123.985667,291.783333 123.909,291.078 L123.909,291.078 L131.683,291.078 C131.698333,290.894 131.713667,290.683167 131.729,290.4455 C131.744333,290.207833 131.752,289.989333 131.752,289.79 C131.752,287.750667 131.253667,286.205833 130.257,285.1555 C129.260333,284.105167 127.903333,283.58 126.186,283.58 C125.45,283.58 124.733167,283.718 124.0355,283.994 C123.337833,284.27 122.720667,284.676333 122.184,285.213 C121.647333,285.749667 121.214167,286.4205 120.8845,287.2255 C120.554833,288.0305 120.39,288.969667 120.39,290.043 C120.39,290.932333 120.5165,291.760333 120.7695,292.527 C121.0225,293.293667 121.4135,293.956833 121.9425,294.5165 C122.4715,295.076167 123.1385,295.517 123.9435,295.839 C124.7485,296.161 125.695333,296.322 126.784,296.322 Z M128.44,288.732 L123.909,288.732 C123.955,288.440667 124.027833,288.153167 124.1275,287.8695 C124.227167,287.585833 124.369,287.336667 124.553,287.122 C124.737,286.907333 124.967,286.734833 125.243,286.6045 C125.519,286.474167 125.848667,286.409 126.232,286.409 C126.630667,286.409 126.964167,286.478 127.2325,286.616 C127.500833,286.754 127.723167,286.930333 127.8995,287.145 C128.075833,287.359667 128.206167,287.605 128.2905,287.881 C128.374833,288.157 128.424667,288.440667 128.44,288.732 L128.44,288.732 Z M137.664,296 L137.664,286.754 C137.817333,286.708 138.0435,286.665833 138.3425,286.6275 C138.6415,286.589167 138.898333,286.57 139.113,286.57 C139.588333,286.57 140.033,286.612167 140.447,286.6965 C140.861,286.780833 141.221333,286.861333 141.528,286.938 L141.528,286.938 L142.103,284.109 C141.919,284.032333 141.696667,283.967167 141.436,283.9135 C141.175333,283.859833 140.914667,283.813833 140.654,283.7755 C140.393333,283.737167 140.132667,283.7065 139.872,283.6835 C139.611333,283.6605 139.389,283.649 139.205,283.649 C138.177667,283.649 137.246167,283.744833 136.4105,283.9365 C135.574833,284.128167 134.850333,284.331333 134.237,284.546 L134.237,284.546 L134.237,296 L137.664,296 Z M147.21,296 L147.21,286.662 C147.424667,286.631333 147.67,286.6045 147.946,286.5815 C148.222,286.5585 148.482667,286.547 148.728,286.547 C149.525333,286.547 150.069667,286.777 150.361,287.237 C150.652333,287.697 150.798,288.479 150.798,289.583 L150.798,289.583 L150.798,296 L154.225,296 L154.225,289.169 C154.225,288.341 154.140667,287.589667 153.972,286.915 C153.803333,286.240333 153.519667,285.657667 153.121,285.167 C152.722333,284.676333 152.181833,284.296833 151.4995,284.0285 C150.817167,283.760167 149.962333,283.626 148.935,283.626 C147.923,283.626 146.957,283.698833 146.037,283.8445 C145.117,283.990167 144.365667,284.147333 143.783,284.316 L143.783,284.316 L143.783,296 L147.21,296 Z M162.989,296.322 C163.418333,296.322 163.847667,296.299 164.277,296.253 C164.706333,296.207 165.108833,296.1495 165.4845,296.0805 C165.860167,296.0115 166.201333,295.931 166.508,295.839 C166.814667,295.747 167.06,295.655 167.244,295.563 L167.244,295.563 L166.784,292.78 C166.400667,292.948667 165.906167,293.0905 165.3005,293.2055 C164.694833,293.3205 164.077667,293.378 163.449,293.378 C162.467667,293.378 161.685667,293.171 161.103,292.757 C160.520333,292.343 160.190667,291.783333 160.114,291.078 L160.114,291.078 L167.888,291.078 C167.903333,290.894 167.918667,290.683167 167.934,290.4455 C167.949333,290.207833 167.957,289.989333 167.957,289.79 C167.957,287.750667 167.458667,286.205833 166.462,285.1555 C165.465333,284.105167 164.108333,283.58 162.391,283.58 C161.655,283.58 160.938167,283.718 160.2405,283.994 C159.542833,284.27 158.925667,284.676333 158.389,285.213 C157.852333,285.749667 157.419167,286.4205 157.0895,287.2255 C156.759833,288.0305 156.595,288.969667 156.595,290.043 C156.595,290.932333 156.7215,291.760333 156.9745,292.527 C157.2275,293.293667 157.6185,293.956833 158.1475,294.5165 C158.6765,295.076167 159.3435,295.517 160.1485,295.839 C160.9535,296.161 161.900333,296.322 162.989,296.322 Z M164.645,288.732 L160.114,288.732 C160.16,288.440667 160.232833,288.153167 160.3325,287.8695 C160.432167,287.585833 160.574,287.336667 160.758,287.122 C160.942,286.907333 161.172,286.734833 161.448,286.6045 C161.724,286.474167 162.053667,286.409 162.437,286.409 C162.835667,286.409 163.169167,286.478 163.4375,286.616 C163.705833,286.754 163.928167,286.930333 164.1045,287.145 C164.280833,287.359667 164.411167,287.605 164.4955,287.881 C164.579833,288.157 164.629667,288.440667 164.645,288.732 L164.645,288.732 Z M175.111,296.276 C175.847,296.276 176.468,296.214667 176.974,296.092 C177.48,295.969333 177.94,295.823667 178.354,295.655 L178.354,295.655 L177.871,292.987 C177.549,293.109667 177.1925,293.2055 176.8015,293.2745 C176.4105,293.3435 176.031,293.378 175.663,293.378 C174.896333,293.378 174.3865,293.163333 174.1335,292.734 C173.8805,292.304667 173.754,291.729667 173.754,291.009 L173.754,291.009 L173.754,286.754 L177.871,286.754 L177.871,283.902 L173.754,283.902 L173.754,280.337 L170.327,280.889 L170.327,291.055 C170.327,291.837 170.399833,292.55 170.5455,293.194 C170.691167,293.838 170.948,294.386167 171.316,294.8385 C171.684,295.290833 172.174667,295.6435 172.788,295.8965 C173.401333,296.1495 174.175667,296.276 175.111,296.276 Z M185.853,296.322 C186.282333,296.322 186.711667,296.299 187.141,296.253 C187.570333,296.207 187.972833,296.1495 188.3485,296.0805 C188.724167,296.0115 189.065333,295.931 189.372,295.839 C189.678667,295.747 189.924,295.655 190.108,295.563 L190.108,295.563 L189.648,292.78 C189.264667,292.948667 188.770167,293.0905 188.1645,293.2055 C187.558833,293.3205 186.941667,293.378 186.313,293.378 C185.331667,293.378 184.549667,293.171 183.967,292.757 C183.384333,292.343 183.054667,291.783333 182.978,291.078 L182.978,291.078 L190.752,291.078 C190.767333,290.894 190.782667,290.683167 190.798,290.4455 C190.813333,290.207833 190.821,289.989333 190.821,289.79 C190.821,287.750667 190.322667,286.205833 189.326,285.1555 C188.329333,284.105167 186.972333,283.58 185.255,283.58 C184.519,283.58 183.802167,283.718 183.1045,283.994 C182.406833,284.27 181.789667,284.676333 181.253,285.213 C180.716333,285.749667 180.283167,286.4205 179.9535,287.2255 C179.623833,288.0305 179.459,288.969667 179.459,290.043 C179.459,290.932333 179.5855,291.760333 179.8385,292.527 C180.0915,293.293667 180.4825,293.956833 181.0115,294.5165 C181.5405,295.076167 182.2075,295.517 183.0125,295.839 C183.8175,296.161 184.764333,296.322 185.853,296.322 Z M187.509,288.732 L182.978,288.732 C183.024,288.440667 183.096833,288.153167 183.1965,287.8695 C183.296167,287.585833 183.438,287.336667 183.622,287.122 C183.806,286.907333 184.036,286.734833 184.312,286.6045 C184.588,286.474167 184.917667,286.409 185.301,286.409 C185.699667,286.409 186.033167,286.478 186.3015,286.616 C186.569833,286.754 186.792167,286.930333 186.9685,287.145 C187.144833,287.359667 187.275167,287.605 187.3595,287.881 C187.443833,288.157 187.493667,288.440667 187.509,288.732 L187.509,288.732 Z M196.756,296.322 C198.396667,296.322 199.6655,296.015333 200.5625,295.402 C201.4595,294.788667 201.908,293.884 201.908,292.688 C201.908,292.182 201.8505,291.737333 201.7355,291.354 C201.6205,290.970667 201.421167,290.621833 201.1375,290.3075 C200.853833,289.993167 200.466667,289.701833 199.976,289.4335 C199.485333,289.165167 198.864333,288.893 198.113,288.617 C197.745,288.479 197.442167,288.3525 197.2045,288.2375 C196.966833,288.1225 196.779,288.015167 196.641,287.9155 C196.503,287.815833 196.411,287.712333 196.365,287.605 C196.319,287.497667 196.296,287.375 196.296,287.237 C196.296,286.639 196.832667,286.34 197.906,286.34 C198.488667,286.34 199.013833,286.393667 199.4815,286.501 C199.949167,286.608333 200.382333,286.731 200.781,286.869 L200.781,286.869 L201.379,284.201 C200.980333,284.047667 200.443667,283.905833 199.769,283.7755 C199.094333,283.645167 198.389,283.58 197.653,283.58 C196.181,283.58 195.023333,283.909667 194.18,284.569 C193.336667,285.228333 192.915,286.125333 192.915,287.26 C192.915,287.842667 192.999333,288.341 193.168,288.755 C193.336667,289.169 193.574333,289.5255 193.881,289.8245 C194.187667,290.1235 194.5595,290.380333 194.9965,290.595 C195.4335,290.809667 195.920333,291.016667 196.457,291.216 C197.147,291.476667 197.660667,291.7105 197.998,291.9175 C198.335333,292.1245 198.504,292.366 198.504,292.642 C198.504,292.994667 198.373667,293.232333 198.113,293.355 C197.852333,293.477667 197.407667,293.539 196.779,293.539 C196.181,293.539 195.575333,293.473833 194.962,293.3435 C194.348667,293.213167 193.750667,293.033 193.168,292.803 L193.168,292.803 L192.593,295.586 C192.869,295.708667 193.3635,295.862 194.0765,296.046 C194.7895,296.23 195.682667,296.322 196.756,296.322 Z" id="kubernetes" fill="#000000" fill-rule="nonzero"></path>
        </g>
    </g>
</svg>