<?xml version="1.0" encoding="UTF-8"?>
<svg width="1200px" height="900px" viewBox="0 0 1200 900" version="1.1" xmlns="http://www.w3.org/2000/svg" xmlns:xlink="http://www.w3.org/1999/xlink">
    <!-- Generator: Sketch 53.2 (72643) - https://sketchapp.com -->
    <title>logical-11</title>
    <desc>Created with Sketch.</desc>
    <g id="logical-11" stroke="none" stroke-width="1" fill="none" fill-rule="evenodd">
        <g id="ingress" transform="translate(259.000000, 351.000000)">
            <g id="Ingress" transform="translate(0.000000, 32.000000)" fill-rule="nonzero">
                <path d="M690,5 L690,25 L0,25 L0,5 C-3.38176876e-16,2.23857625 2.23857625,5.07265313e-16 5,0 L685,0 C687.761424,-5.07265313e-16 690,2.23857625 690,5 Z" id="Base" fill="#353535"></path>
                <rect id="Dot-1" fill="#A3A3A3" x="7" y="6" width="4" height="4"></rect>
                <rect id="Dot-2" fill="#A3A3A3" x="13" y="6" width="4" height="4"></rect>
                <rect id="Dot-3" fill="#A3A3A3" x="19" y="6" width="4" height="4"></rect>
            </g>
            <text id="Ingress" font-family="Arial-BoldMT, Arial" font-size="20" font-weight="bold" fill="#4A4A4A">
                <tspan x="0" y="18">Ingress</tspan>
            </text>
        </g>
        <g id="red-service" transform="translate(259.000000, 408.000000)">
            <g id="Service" transform="translate(0.000000, 113.000000)" fill-rule="nonzero">
                <path d="M424,5 L424,25 L0,25 L0,5 C-3.38176876e-16,2.23857625 2.23857625,5.07265313e-16 5,0 L419,0 C421.761424,-5.07265313e-16 424,2.23857625 424,5 Z" id="Base" fill="#D2D2D2"></path>
                <rect id="Dot-1" fill="#A3A3A3" x="7" y="6" width="4" height="4"></rect>
                <rect id="Dot-2" fill="#A3A3A3" x="13" y="6" width="4" height="4"></rect>
                <rect id="Dot-3" fill="#A3A3A3" x="19" y="6" width="4" height="4"></rect>
            </g>
            <g id="down-arrow" transform="translate(192.000000, 0.000000)" fill-rule="nonzero">
                <polygon id="Line" fill="#9EEBCF" points="7 -1 7 113 4 113 4 -1"></polygon>
                <circle id="Base" stroke="#9EEBCF" stroke-width="3" fill="#FFFFFF" cx="5.5" cy="-1.5" r="6.5"></circle>
                <polygon id="Tip" fill="#9EEBCF" points="5.5 117 0 109 11 109"></polygon>
            </g>
            <g id="pod-1" transform="translate(0.000000, 138.000000)">
                <g id="down-arrow" transform="translate(95.000000, 0.000000)" fill-rule="nonzero">
                    <polygon id="Line" fill="#9EEBCF" points="7 -1 7 85 4 85 4 -1"></polygon>
                    <circle id="Base" stroke="#9EEBCF" stroke-width="3" fill="#FFFFFF" cx="5.5" cy="-1.5" r="6.5"></circle>
                    <polygon id="Tip" fill="#9EEBCF" points="5.5 89 0 81 11 81"></polygon>
                </g>
                <g id="Red-web-page" transform="translate(0.000000, 85.000000)">
                    <path d="M200,169.06805 C200,170.135128 199.373783,171 198.600999,171 L1.39900125,171 C0.626217228,171 0,170.135128 0,169.06805 L0,5 C-3.38176876e-16,2.23857625 2.23857625,-3.80913106e-16 5,-8.8817842e-16 L195,-8.8817842e-16 C197.761424,1.33203782e-14 200,2.23857625 200,5 L200,169.06805 Z" id="Fill-9" fill="#FF003C"></path>
                    <path d="M5,0 L195,0 C197.761424,-5.07265313e-16 200,2.23857625 200,5 L200,23 L0,23 L0,5 C-3.38176876e-16,2.23857625 2.23857625,5.07265313e-16 5,0 Z" id="Rectangle" fill="#CCCCCC"></path>
                    <path d="M17,12.5 C17,14.9855596 14.9855596,17 12.5,17 C10.0144404,17 8,14.9855596 8,12.5 C8,10.0144404 10.0144404,8 12.5,8 C14.9855596,8 17,10.0144404 17,12.5" id="Fill-3" fill="#E74C3C"></path>
                    <path d="M33,12.5 C33,14.9855596 30.9855596,17 28.5,17 C26.0144404,17 24,14.9855596 24,12.5 C24,10.0144404 26.0144404,8 28.5,8 C30.9855596,8 33,10.0144404 33,12.5" id="Fill-5" fill="#F1C40F"></path>
                    <path d="M48,12.5 C48,14.9855596 45.9855596,17 43.5,17 C41.0144404,17 39,14.9855596 39,12.5 C39,10.0144404 41.0144404,8 43.5,8 C45.9855596,8 48,10.0144404 48,12.5" id="Fill-7" fill="#2ECC71"></path>
                </g>
                <text id="Pod-1" font-family="Arial-BoldMT, Arial" font-size="20" font-weight="bold" fill="#4A4A4A">
                    <tspan x="0" y="71">Pod 1</tspan>
                </text>
            </g>
            <g id="pod-2" transform="translate(224.000000, 138.000000)">
                <g id="down-arrow" transform="translate(95.000000, 0.000000)" fill-rule="nonzero">
                    <polygon id="Line" fill="#9EEBCF" points="7 -1 7 85 4 85 4 -1"></polygon>
                    <circle id="Base" stroke="#9EEBCF" stroke-width="3" fill="#FFFFFF" cx="5.5" cy="-1.5" r="6.5"></circle>
                    <polygon id="Tip" fill="#9EEBCF" points="5.5 89 0 81 11 81"></polygon>
                </g>
                <g id="Red-web-page" transform="translate(0.000000, 85.000000)">
                    <path d="M200,169.06805 C200,170.135128 199.373783,171 198.600999,171 L1.39900125,171 C0.626217228,171 0,170.135128 0,169.06805 L0,5 C-3.38176876e-16,2.23857625 2.23857625,-3.80913106e-16 5,-8.8817842e-16 L195,-8.8817842e-16 C197.761424,1.33203782e-14 200,2.23857625 200,5 L200,169.06805 Z" id="Fill-9" fill="#FF003C"></path>
                    <path d="M5,0 L195,0 C197.761424,-5.07265313e-16 200,2.23857625 200,5 L200,23 L0,23 L0,5 C-3.38176876e-16,2.23857625 2.23857625,5.07265313e-16 5,0 Z" id="Rectangle" fill="#CCCCCC"></path>
                    <path d="M17,12.5 C17,14.9855596 14.9855596,17 12.5,17 C10.0144404,17 8,14.9855596 8,12.5 C8,10.0144404 10.0144404,8 12.5,8 C14.9855596,8 17,10.0144404 17,12.5" id="Fill-3" fill="#E74C3C"></path>
                    <path d="M33,12.5 C33,14.9855596 30.9855596,17 28.5,17 C26.0144404,17 24,14.9855596 24,12.5 C24,10.0144404 26.0144404,8 28.5,8 C30.9855596,8 33,10.0144404 33,12.5" id="Fill-5" fill="#F1C40F"></path>
                    <path d="M48,12.5 C48,14.9855596 45.9855596,17 43.5,17 C41.0144404,17 39,14.9855596 39,12.5 C39,10.0144404 41.0144404,8 43.5,8 C45.9855596,8 48,10.0144404 48,12.5" id="Fill-7" fill="#2ECC71"></path>
                </g>
                <text id="Pod-2" font-family="Arial-BoldMT, Arial" font-size="20" font-weight="bold" fill="#4A4A4A">
                    <tspan x="0" y="71">Pod 2</tspan>
                </text>
            </g>
            <text id="Front-end-service" font-family="Arial-BoldMT, Arial" font-size="20" font-weight="bold" fill="#4A4A4A">
                <tspan x="0" y="99">Front-end service</tspan>
            </text>
        </g>
        <g id="green-service" transform="translate(742.000000, 408.000000)">
            <g id="Service" transform="translate(0.000000, 113.000000)" fill-rule="nonzero">
                <path d="M200,5 L200,25 L0,25 L0,5 C-3.38176876e-16,2.23857625 2.23857625,5.07265313e-16 5,0 L195,0 C197.761424,-5.07265313e-16 200,2.23857625 200,5 Z" id="Base" fill="#D2D2D2"></path>
                <rect id="Dot-1" fill="#A3A3A3" x="7" y="6" width="4" height="4"></rect>
                <rect id="Dot-2" fill="#A3A3A3" x="13" y="6" width="4" height="4"></rect>
                <rect id="Dot-3" fill="#A3A3A3" x="19" y="6" width="4" height="4"></rect>
            </g>
            <g id="down-arrow" transform="translate(95.000000, 0.000000)" fill-rule="nonzero">
                <polygon id="Line" fill="#9EEBCF" points="7 -1 7 113 4 113 4 -1"></polygon>
                <circle id="Base" stroke="#9EEBCF" stroke-width="3" fill="#FFFFFF" cx="5.5" cy="-1.5" r="6.5"></circle>
                <polygon id="Tip" fill="#9EEBCF" points="5.5 117 0 109 11 109"></polygon>
            </g>
            <g id="pod-5" transform="translate(0.000000, 138.000000)">
                <g id="down-arrow" transform="translate(95.000000, 0.000000)" fill-rule="nonzero">
                    <polygon id="Line" fill="#9EEBCF" points="7 -1 7 85 4 85 4 -1"></polygon>
                    <circle id="Base" stroke="#9EEBCF" stroke-width="3" fill="#FFFFFF" cx="5.5" cy="-1.5" r="6.5"></circle>
                    <polygon id="Tip" fill="#9EEBCF" points="5.5 89 0 81 11 81"></polygon>
                </g>
                <g id="Backend-web-page" transform="translate(0.000000, 85.000000)">
                    <path d="M200,169.06805 C200,170.135128 199.373783,171 198.600999,171 L1.39900125,171 C0.626217228,171 0,170.135128 0,169.06805 L0,5 C-3.38176876e-16,2.23857625 2.23857625,-3.80913106e-16 5,-8.8817842e-16 L195,-8.8817842e-16 C197.761424,1.33203782e-14 200,2.23857625 200,5 L200,169.06805 Z" id="Fill-9" fill="#E3CEBC" fill-rule="evenodd"></path>
                    <path d="M113.680719,79.2344052 L108.991719,77.2754052 C108.944719,75.2844052 108.629719,73.3474052 108.040719,71.4864052 L111.856719,68.1174052 C112.562719,67.4904052 112.711719,66.4544052 112.221719,65.6634052 L110.902719,63.5374052 L109.583719,61.4114052 C109.092719,60.6214052 108.097719,60.2954052 107.222719,60.6494052 L102.509719,62.5744052 C101.085719,61.1934052 99.4507192,60.0184052 97.6157192,59.1004052 L97.9307192,54.0734052 C97.9877192,53.1314052 97.3697192,52.2884052 96.4427192,52.0714052 L93.9917192,51.4974052 L91.5407192,50.9234052 C90.6357192,50.7114052 89.6857192,51.1884052 89.3187192,52.0574052 L87.3267192,56.7864052 C85.3357192,56.8334052 83.3887192,57.1924052 81.5537192,57.7644052 L78.2557192,53.9414052 C77.6287192,53.2354052 76.5927192,53.0864052 75.8027192,53.5764052 L73.6767192,54.8964052 L71.5507192,56.2154052 C70.7607192,56.7064052 70.4347192,57.7014052 70.7887192,58.5764052 L72.7307192,63.3164052 C71.3987192,64.7284052 70.2567192,66.3244052 69.3537192,68.0934052 L64.3267192,67.7784052 C63.3847192,67.7214052 62.5417192,68.3394052 62.3247192,69.2664052 L61.7507192,71.7174052 L61.1767192,74.1684052 C60.9647192,75.0734052 61.4417192,76.0234052 62.3107192,76.3904052 L67.0387192,78.3824052 C67.0857192,80.3734052 67.4447192,82.3204052 68.0167192,84.1554052 L64.2327192,87.4854052 C63.5267192,88.1124052 63.3777192,89.1484052 63.8677192,89.9394052 L65.1867192,92.0654052 L66.5057192,94.1914052 C66.9967192,94.9814052 67.9917192,95.3074052 68.8667192,94.9534052 L73.6067192,93.0114052 C74.9797192,94.3114052 76.5537192,95.4484052 78.2557192,96.3354052 L77.9307192,101.407405 C77.8737192,102.349405 78.4917192,103.192405 79.4187192,103.409405 L81.8697192,103.983405 L84.3207192,104.557405 C85.2257192,104.769405 86.1757192,104.292405 86.5427192,103.423405 L88.5017192,98.7344052 C90.4927192,98.6874052 92.4297192,98.3724052 94.2907192,97.7834052 L97.6597192,101.599405 C98.2867192,102.305405 99.3227192,102.454405 100.113719,101.964405 L102.239719,100.645405 L104.365719,99.3264052 C105.155719,98.8354052 105.481719,97.8404052 105.127719,96.9654052 L103.202719,92.2524052 C104.556719,90.8454052 105.698719,89.2494052 106.623719,87.4864052 L111.695719,87.8114052 C112.637719,87.8684052 113.480719,87.2504052 113.697719,86.3234052 L114.271719,83.8724052 L114.845719,81.4214052 C115.009719,80.5244052 114.527719,79.5964052 113.680719,79.2344052 Z M77.4487192,75.2864052 C78.8377192,69.3524052 84.7737192,65.6674052 90.7077192,67.0564052 C96.6417192,68.4454052 100.326719,74.3814052 98.9377192,80.3154052 C97.5487192,86.2494052 91.6127192,89.9344052 85.6787192,88.5454052 C79.7447192,87.1564052 76.0597192,81.2204052 77.4487192,75.2864052 Z M138.296719,101.895405 L135.217719,101.380405 C134.911719,100.196405 134.451719,99.0824052 133.838719,98.0514052 L135.649719,95.5024052 C135.983719,95.0284052 135.928719,94.3884052 135.524719,93.9844052 L134.437719,92.8974052 L133.350719,91.8104052 C132.946719,91.4064052 132.305719,91.3504052 131.832719,91.6854052 L129.283719,93.4964052 C128.238719,92.8694052 127.096719,92.3964052 125.870719,92.1034052 L125.355719,89.0524052 C125.258719,88.4814052 124.770719,88.0634052 124.185719,88.0634052 L122.639719,88.0634052 L121.093719,88.0634052 C120.522719,88.0634052 120.020719,88.4814052 119.923719,89.0524052 L119.394719,92.1584052 C118.210719,92.4644052 117.096719,92.9524052 116.079719,93.5514052 L113.572719,91.7264052 C113.098719,91.3924052 112.458719,91.4474052 112.054719,91.8514052 L110.967719,92.9384052 L109.880719,94.0254052 C109.476719,94.4294052 109.420719,95.0704052 109.755719,95.5434052 L111.580719,98.1064052 C110.981719,99.1374052 110.521719,100.251405 110.229719,101.435405 L107.178719,101.950405 C106.607719,102.048405 106.189719,102.535405 106.189719,103.120405 L106.189719,104.666405 L106.189719,106.212405 C106.189719,106.783405 106.607719,107.285405 107.178719,107.382405 L110.284719,107.911405 C110.590719,109.095405 111.078719,110.209405 111.677719,111.226405 L109.880719,113.747405 C109.546719,114.221405 109.601719,114.861405 110.005719,115.265405 L111.092719,116.352405 L112.179719,117.439405 C112.583719,117.843405 113.224719,117.899405 113.697719,117.564405 L116.260719,115.739405 C117.263719,116.324405 118.363719,116.784405 119.506719,117.076405 L120.021719,120.155405 C120.119719,120.726405 120.606719,121.144405 121.191719,121.144405 L122.737719,121.144405 L124.283719,121.144405 C124.854719,121.144405 125.356719,120.726405 125.453719,120.155405 L125.968719,117.076405 C127.152719,116.770405 128.266719,116.310405 129.297719,115.697405 L131.846719,117.508405 C132.320719,117.842405 132.960719,117.787405 133.364719,117.383405 L134.451719,116.296405 L135.538719,115.209405 C135.942719,114.805405 135.998719,114.164405 135.663719,113.691405 L133.852719,111.142405 C134.465719,110.111405 134.925719,108.997405 135.231719,107.813405 L138.310719,107.298405 C138.881719,107.201405 139.299719,106.713405 139.299719,106.128405 L139.299719,104.582405 L139.299719,103.036405 C139.271719,102.480405 138.854719,101.992405 138.296719,101.895405 Z M116.075719,104.604405 C116.075719,100.861405 119.110719,97.8264052 122.853719,97.8264052 C126.596719,97.8264052 129.631719,100.861405 129.631719,104.604405 C129.631719,108.347405 126.596719,111.382405 122.853719,111.382405 C119.110719,111.382405 116.075719,108.347405 116.075719,104.604405 Z M108.010719,120.331405 L105.028719,119.904405 C104.705719,118.768405 104.236719,117.704405 103.621719,116.723405 L105.310719,114.222405 C105.622719,113.757405 105.553719,113.140405 105.154719,112.760405 L104.081719,111.736405 L103.008719,110.712405 C102.609719,110.331405 101.989719,110.292405 101.540719,110.626405 L99.1227192,112.432405 C98.1007192,111.851405 96.9877192,111.420405 95.7977192,111.166405 L95.2307192,108.234405 C95.1237192,107.685405 94.6437192,107.293405 94.0787192,107.306405 L92.5867192,107.341405 L91.0947192,107.376405 C90.5437192,107.389405 90.0697192,107.804405 89.9877192,108.357405 L89.5477192,111.367405 C88.4117192,111.690405 87.3477192,112.186405 86.3807192,112.787405 L83.9197192,111.083405 C83.4547192,110.771405 82.8377192,110.840405 82.4577192,111.239405 L81.4337192,112.312405 L80.4097192,113.385405 C80.0287192,113.784405 79.9897192,114.404405 80.3237192,114.853405 L82.1427192,117.285405 C81.5887192,118.293405 81.1697192,119.379405 80.9147192,120.528405 L77.9827192,121.095405 C77.4337192,121.202405 77.0417192,121.682405 77.0547192,122.247405 L77.0897192,123.739405 L77.1247192,125.231405 C77.1377192,125.782405 77.5527192,126.256405 78.1057192,126.338405 L81.1157192,126.778405 C81.4387192,127.914405 81.9347192,128.978405 82.5357192,129.945405 L80.8597192,132.419405 C80.5477192,132.884405 80.6167192,133.501405 81.0157192,133.881405 L82.0887192,134.905405 L83.1617192,135.929405 C83.5607192,136.310405 84.1807192,136.349405 84.6297192,136.015405 L87.0617192,134.196405 C88.0427192,134.738405 89.1157192,135.156405 90.2237192,135.412405 L90.7917192,138.371405 C90.8987192,138.920405 91.3787192,139.312405 91.9437192,139.299405 L93.4357192,139.264405 L94.9277192,139.229405 C95.4787192,139.216405 95.9527192,138.801405 96.0347192,138.248405 L96.4617192,135.266405 C97.5977192,134.943405 98.6617192,134.474405 99.6427192,133.859405 L102.143719,135.548405 C102.608719,135.860405 103.225719,135.791405 103.605719,135.392405 L104.629719,134.319405 L105.653719,133.246405 C106.034719,132.847405 106.073719,132.227405 105.739719,131.778405 L103.933719,129.360405 C104.501719,128.351405 104.919719,127.266405 105.188719,126.116405 L108.147719,125.548405 C108.696719,125.441405 109.088719,124.961405 109.075719,124.396405 L109.040719,122.904405 L109.005719,121.412405 C108.964719,120.874405 108.550719,120.413405 108.010719,120.331405 Z M86.6307192,123.453405 C86.5457192,119.841405 89.4037192,116.844405 93.0167192,116.758405 C96.6287192,116.673405 99.6257192,119.531405 99.7117192,123.144405 C99.7967192,126.756405 96.9377192,129.753405 93.3257192,129.839405 C89.7137192,129.924405 86.7157192,127.065405 86.6307192,123.453405 Z" id="Shape" fill="#6C431E" fill-rule="nonzero" transform="translate(100.213188, 95.086531) rotate(-270.000000) translate(-100.213188, -95.086531) "></path>
                    <path d="M5,0 L195,0 C197.761424,-5.07265313e-16 200,2.23857625 200,5 L200,23 L0,23 L0,5 C-3.38176876e-16,2.23857625 2.23857625,5.07265313e-16 5,0 Z" id="Rectangle" fill="#CCCCCC" fill-rule="evenodd"></path>
                    <path d="M17,12.5 C17,14.9855596 14.9855596,17 12.5,17 C10.0144404,17 8,14.9855596 8,12.5 C8,10.0144404 10.0144404,8 12.5,8 C14.9855596,8 17,10.0144404 17,12.5" id="Fill-3" fill="#E74C3C" fill-rule="evenodd"></path>
                    <path d="M33,12.5 C33,14.9855596 30.9855596,17 28.5,17 C26.0144404,17 24,14.9855596 24,12.5 C24,10.0144404 26.0144404,8 28.5,8 C30.9855596,8 33,10.0144404 33,12.5" id="Fill-5" fill="#F1C40F" fill-rule="evenodd"></path>
                    <path d="M48,12.5 C48,14.9855596 45.9855596,17 43.5,17 C41.0144404,17 39,14.9855596 39,12.5 C39,10.0144404 41.0144404,8 43.5,8 C45.9855596,8 48,10.0144404 48,12.5" id="Fill-7" fill="#2ECC71" fill-rule="evenodd"></path>
                </g>
                <text id="Pod-5" font-family="Arial-BoldMT, Arial" font-size="20" font-weight="bold" fill="#4A4A4A">
                    <tspan x="0" y="71">Pod 5</tspan>
                </text>
            </g>
            <text id="Backend-service" font-family="Arial-BoldMT, Arial" font-size="20" font-weight="bold" fill="#4A4A4A">
                <tspan x="0" y="99">Backend service</tspan>
            </text>
        </g>
        <g id="incoming-traffic" transform="translate(471.000000, 99.000000)">
            <g id="Green-arrow-down" transform="translate(93.000000, 171.000000)" fill="#B8E986">
                <polygon id="Triangle" points="36 131 0 66 72 66"></polygon>
                <polygon id="Rectangle" points="26 0 46 0 46 113 26 113"></polygon>
            </g>
            <g id="Chris" fill-rule="nonzero">
                <path d="M0,171 L0.0378734526,100.618048 C0.0386732529,99.0726135 1.29146095,97.8202151 2.83657638,97.8202151 C20.9089062,97.8187658 38.9812361,97.8187658 57.0535659,97.8187658 C58.1730472,97.3788786 57.7732325,97.0989504 57.6133066,96.8190221 C54.1349182,91.0604988 51.8559741,84.8620882 50.9763816,78.143811 C49.0172893,62.747759 53.3752701,49.3511943 63.8504168,37.8741373 C64.4501389,37.2343014 65.0498611,36.6344552 65.6895647,36.034609 C66.2093239,35.5147423 66.2093239,35.5147423 65.7295462,35.0348654 C64.0903056,33.4752653 62.610991,31.7557062 61.3715653,29.8361985 C58.572862,25.3973367 57.0135844,20.5585775 56.89364,15.2799311 C56.8536585,13.9602695 57.1335289,13.8003105 58.3329731,14.4001567 C59.6123804,15.0399926 60.9317691,15.5998491 62.3311207,16.0397363 C62.4910466,13.720331 62.2111763,11.8008232 62.1711948,9.84132572 C62.1711948,9.1215103 62.1312133,8.44168463 62.1711948,7.72186921 C62.1711948,6.72212557 62.5310281,6.4821871 63.4106206,7.00205379 C64.8099722,7.8018487 66.2093239,8.52166412 67.6886385,9.1215103 C68.5682309,9.48141801 68.5682309,9.48141801 68.488268,8.52166412 C68.2483791,6.00231015 68.2083977,3.48295619 68.488268,0.963602222 C68.7281568,0.0038483305 69.1679531,-0.156110651 69.4878049,0.123817567 C69.7276937,0.323766294 69.8876196,0.603694513 70.087527,0.843632986 C73.1661006,4.68264855 76.6045076,8.12176666 80.7225996,10.8810591 C84.3209324,13.2804438 88.1991355,14.6001054 92.5171349,14.6400952 C95.7556345,14.6800849 98.8741896,14.0002592 101.8728,12.8405566 C104.671504,11.7608335 107.470207,10.6411206 110.388855,10.0012847 C113.347484,9.36144877 116.346094,9.08152055 119.304724,9.80133597 C124.34239,11.0410181 127.740815,14.2801875 129.859833,18.9189979 C130.659463,20.6785467 131.099259,22.518075 131.379129,24.4375828 C131.499074,25.1573982 131.499074,25.1573982 132.258722,25.1174085 C136.656684,24.7974905 140.894721,25.4773162 144.732942,27.7567317 C149.330812,30.5160241 151.889626,34.6749577 152.889163,39.8336348 C153.60883,43.6326606 153.408923,47.3916967 152.8092,51.1907225 C152.329423,54.1499637 151.529793,57.0692151 150.570238,59.9084871 C150.330349,60.6283025 150.170423,60.5883127 151.050015,60.9082307 C155.527941,62.427841 158.326644,65.5070514 159.126274,70.1458619 C160.245755,76.5042314 156.167644,82.1427855 150.250386,83.5424266 C149.170886,83.7823651 148.051405,83.9423241 146.931923,83.8223549 C146.452146,83.7423754 146.29222,83.9823138 146.172275,84.422201 C145.332664,87.4614217 144.173202,90.4206629 142.77385,93.2599348 C139.895184,98.9784684 136.056962,103.897207 131.259185,108.09613 C130.179685,108.855936 130.099722,109.295823 130.339611,109.895669 C130.899352,111.455269 131.379129,113.054859 131.898889,114.614459 C135.137388,124.691875 138.415869,134.729301 141.614387,144.806717 C141.854276,145.526532 142.174128,145.80646 142.893794,145.92643 C146.052331,146.606255 148.051405,148.565753 148.891016,151.684953 C149.050942,152.364779 149.170886,153.084594 149.290831,153.76442 C150.050479,153.324532 150.37033,152.884645 150.850108,152.484748 C152.209478,151.365035 153.728774,151.125096 155.368015,151.684953 C157.047237,152.284799 158.046774,153.524481 158.286663,155.28403 C158.366626,155.883876 158.526551,156.043835 159.126274,156.123815 C161.924977,156.563702 163.564217,159.322994 162.644643,162.042297 C162.404755,162.722123 162.484718,163.202 162.964495,163.761856 C164.203921,165.241477 164.923588,166.961036 165.163476,168.880543 C165.283421,169.720328 165.163476,169.720328 166.08305,169.720328 L182.5954,169.720328 C182.5954,168.040759 182.075641,166.721097 181.79577,165.281466 C179.916641,165.401436 178.637234,165.721354 177.397808,166.121251 C176.678141,166.36119 176.318308,166.201231 176.198364,165.801333 C176.078419,165.441425 176.35829,165.161497 177.037975,164.961548 C178.197437,164.601641 179.3569,164.281723 180.516363,163.921815 C181.675826,163.561907 181.475918,163.841836 181.475918,162.562164 C181.5159,161.962318 181.276011,161.882338 180.956159,161.882338 L175.198827,161.882338 C174.159308,161.842348 173.999383,161.6424 173.999383,161.322482 C174.759031,160.722635 174.958938,160.762625 175.198827,160.762625 L180.876196,160.762625 C181.395956,160.762625 181.595863,160.602666 181.675826,160.082799 C181.875733,158.723148 181.915715,158.723148 180.556345,158.323251 C179.436863,157.963343 178.2774,157.643425 177.157919,157.323507 C176.278327,156.963599 176.158382,156.723661 176.238345,156.443733 C177.117938,156.043835 177.357826,156.123815 177.637697,156.203794 C178.997067,156.603692 180.316456,157.003589 181.675826,157.443476 C183.514974,154.604204 185.074251,152.604717 187.19327,151.085107 C187.593084,150.805179 187.673047,150.485261 187.673047,150.045373 L187.673047,137.688542 C187.75301,137.128686 188.152825,136.928737 188.632603,137.208665 C192.590769,140.887722 196.069157,144.126891 199.507564,147.326071 C200.427138,148.205845 200.147268,148.205845 201.186786,147.44604 C208.663322,142.127404 218.698672,142.127404 226.175208,147.44604 C227.134764,148.125866 226.854893,148.285825 227.894412,147.326071 C231.412782,144.086901 234.89117,140.887722 238.40954,137.648552 C238.729392,137.368624 239.009262,136.888747 239.529021,137.088696 C240.088762,137.288645 239.888855,137.848501 239.888855,138.248398 L239.888855,156.203794 C239.888855,157.363497 239.888855,157.363497 240.968354,157.043579 C241.92791,156.763651 242.847484,156.483722 243.807039,156.203794 C245.166409,156.763651 245.086446,157.043579 244.726613,157.163548 L242.447669,157.883363 L240.408614,158.48321 C239.848873,159.402974 239.848873,160.00282 239.888855,160.562676 C242.767521,160.802615 244.526706,160.802615 246.285891,160.802615 C247.285428,160.922584 247.485335,161.122533 247.445354,161.402461 C246.725687,161.962318 246.445817,161.962318 246.205928,161.962318 L240.648503,161.962318 C239.848873,161.962318 239.808892,161.962318 239.808892,162.722123 C239.808892,163.961805 239.728929,163.681877 240.768447,164.001795 C241.847947,164.361702 242.967428,164.64163 244.08691,165.001538 C245.006483,165.401436 245.126428,165.641374 245.006483,165.961292 C242.647576,165.841323 241.568077,165.481415 240.448595,165.161497 C239.808892,166.801077 239.808892,167.960779 239.808892,169.160472 C239.808892,169.600359 239.928836,169.840297 240.408614,169.800308 L257.680611,169.800308 C258.120408,169.800308 258.560204,169.760318 259,170.000256 L259,170.760062 C258.000463,171 257.720593,171 257.400741,171 L0,171 Z" id="Shape" fill="#151D38"></path>
                <path d="M46.379417,164 C46.379417,163.960182 46.379417,163.960182 46.379417,163.920365 C61.1709364,163.920365 75.9624558,163.920365 90.7539753,163.920365 C90.834364,163.920365 90.8745583,163.920365 90.954947,163.920365 C92,163.920365 92,163.920365 92,162.885108 C92,162.805472 92,162.68602 92,162.606384 C92,142.259597 92,121.91281 92,101.526205 C92,101.287299 92,101.088211 92,100.849306 C91.9598057,99.7742309 91.3568905,99.1371495 90.2716431,99.0176967 C89.909894,98.9778791 89.5481449,99.0176967 89.2265901,99.0176967 C60.7287986,99.0176967 32.2310071,99.0176967 3.77340989,99.0176967 C3.53224382,99.0176967 3.33127208,99.0176967 3.09010601,99.0176967 C1.60291519,99.0575143 1,99.6945957 1,101.128029 C1,121.753539 1,142.418867 1,163.044378 C1,163.960182 1,163.960182 1.96466431,163.960182 C2.20583039,163.960182 2.40680212,163.960182 2.6479682,163.960182 C17.1983216,164 31.7888693,164 46.379417,164 Z" id="Shape" fill="#CCD6DA"></path>
                <path d="M75.2255819,97.8104602 C78.2119869,97.8104602 81.198392,97.8104602 84.2246158,97.8104602 C86.0562775,97.8104602 87.927758,97.8104602 89.7594198,97.8104602 C91.2725317,97.8104602 92.427275,98.6929811 92.7060061,100.056877 C92.7856436,100.417908 92.7856436,100.738825 92.7856436,101.099856 C92.7856436,106.635669 92.7856436,112.131368 92.7856436,117.667181 C92.7856436,118.589816 92.865281,118.549701 93.5820182,118.629931 C99.4353721,119.351993 105.209089,119.031076 110.903168,117.546837 C123.884075,114.137097 133.719302,106.515325 140.448668,94.8820954 C142.359967,91.5926993 143.793442,88.0626157 144.828729,84.3720738 C145.027823,83.6500112 145.027823,83.6500112 144.350904,83.4494383 C143.992535,83.3290945 143.634167,83.2087508 143.275798,83.088407 C142.59888,82.8076049 142.399786,82.5669174 142.519242,82.1657715 C142.638698,81.7245111 142.997067,81.6843965 143.713804,81.925084 C145.625104,82.6471466 147.536403,82.8076049 149.527339,82.4465736 C155.420512,81.2832506 159.203292,75.2660627 157.650361,69.4494476 C156.057612,63.5124889 149.925527,60.1428636 144.191629,62.0683638 C143.912898,62.1485929 143.673986,62.3090513 143.395254,62.3491659 C143.116523,62.3892804 142.91743,62.2288221 142.797973,61.9881346 C142.678517,61.7073325 142.758155,61.466645 142.957248,61.3061866 C143.116523,61.1858428 143.275798,61.1056137 143.474892,61.0654991 C143.912898,60.9050407 144.311085,60.784697 144.749091,60.6643532 C144.828729,60.6242386 144.948185,60.5841241 144.988004,60.5038949 C145.067641,60.3033219 144.868548,60.3434365 144.749091,60.3033219 C144.589816,60.2230928 144.390723,60.1829782 144.191629,60.102749 C141.205224,59.0597698 138.338275,57.7359884 135.710239,55.9709466 C130.931991,52.8420089 127.228848,48.7503211 124.839724,43.4953102 C123.7248,41.0082059 122.968244,38.4007578 122.530238,35.6729659 C122.410782,34.8706742 122.370963,34.8706742 121.694044,35.2317054 C121.455132,35.3520492 121.256038,35.472393 121.017126,35.6328513 C117.473259,37.7188098 113.849754,39.4838516 110.027155,40.9279767 C101.784677,44.0167999 93.3431058,45.260352 84.6228031,43.6958832 C78.5703555,42.6127893 72.9160953,40.4466017 67.9785723,36.635716 C67.3414726,36.1543409 67.3414726,36.1543409 66.823829,36.6758306 C62.3641308,40.9680913 58.8202635,45.9021854 56.2718645,51.5182275 C52.3298099,60.3033219 51.1352478,69.4494476 52.608541,78.9566046 C53.6040094,85.415053 55.9134959,91.3921264 59.337907,96.9279393 C59.7360944,97.6098873 60.1741005,97.8906894 61.0102939,97.8906894 C65.7089045,97.7703457 70.4473338,97.8104602 75.2255819,97.8104602 Z" id="Shape" fill="#FAE0D6"></path>
                <path d="M93.0459106,142.010982 C93.0459106,148.364811 93.0459106,154.678425 93.0459106,161.032254 C93.0459106,161.916965 93.0459106,162.841889 93.0459106,163.726599 C93.0459106,164.209169 93.1658799,164.410239 93.6857472,164.410239 C94.7654715,164.370025 95.8451957,164.410239 96.9649098,164.410239 C101.003878,164.410239 105.042847,164.370025 109.041826,164.370025 C109.881611,164.370025 109.961591,164.490667 109.961591,165.335164 C109.961591,166.662229 109.961591,167.989295 109.961591,169.276146 C109.961591,169.919572 109.881611,170 110.601427,170 C115.76011,170 120.918793,170 126.037486,170 C126.557353,170 126.677322,169.798929 126.717312,169.356574 C126.877271,167.908866 127.317159,166.501373 128.076965,165.254735 C128.356893,164.81238 128.396883,164.410239 128.196934,163.887456 C127.357149,161.394181 126.557353,158.860692 125.757557,156.367418 C123.798057,150.254874 121.798568,144.142329 119.839068,138.029785 C119.759089,137.828715 119.679109,137.58743 119.63912,137.386359 C119.55914,137.024433 119.719099,136.742934 120.079007,136.662506 C120.398926,136.582077 120.638864,136.742934 120.758834,137.024433 C120.798823,137.145075 120.838813,137.265717 120.878803,137.386359 C122.278446,141.729483 123.678088,146.072607 125.077731,150.41573 C126.397394,154.517569 127.717057,158.619408 129.076709,162.681033 C129.316648,163.364672 129.316648,163.404887 129.836515,162.922317 C131.276148,161.514823 132.955719,160.589899 134.915219,160.147544 C135.515065,159.986687 135.555055,159.986687 135.395096,159.383476 C135.075178,158.05641 134.71527,156.689131 134.435341,155.362065 C133.515576,151.340654 135.954953,147.198602 139.913942,146.153035 C140.153881,146.072607 140.433809,146.072607 140.673748,145.992178 C140.953676,145.951964 141.073646,145.791108 140.953676,145.509609 C140.913687,145.348753 140.873697,145.187896 140.793717,145.067254 C137.674514,135.33544 134.515321,125.563412 131.396117,115.831598 C130.83626,114.021963 130.236413,112.212329 129.636567,110.402694 C129.516597,110.000553 129.316648,109.839696 128.99673,110.201623 C128.876761,110.322266 128.756791,110.402694 128.596832,110.483122 C125.957506,112.453613 123.118231,114.18282 120.118997,115.5501 C114.280488,118.244445 108.122061,119.772581 101.683705,120.013865 C98.9643992,120.134508 96.2450936,120.094294 93.5657778,119.692153 C93.1258902,119.611724 92.965931,119.772581 93.0059208,120.174722 C93.0059208,120.416006 93.0059208,120.697505 93.0059208,120.93879 C93.0459106,127.976259 93.0459106,135.013727 93.0459106,142.010982 Z" id="Shape" fill="#FFF3A2"></path>
                <path d="M220.628748,169.919146 C226.453293,169.919146 232.317731,169.919146 238.142276,169.919146 C238.980053,169.919146 238.980053,169.919146 238.980053,169.070183 C238.980053,168.948903 238.980053,168.827622 238.980053,168.665915 C238.980053,159.125185 238.980053,149.584455 238.980053,140.043725 C238.980053,139.841591 238.980053,139.639456 238.980053,139.477749 C238.980053,139.316042 239.059841,139.113908 238.900265,139.033054 C238.6609,138.911774 238.581112,139.154335 238.421535,139.275615 C236.267251,141.296956 234.112968,143.27787 231.91879,145.299212 C230.602283,146.512016 229.285777,147.765248 227.96927,148.978052 C227.410752,149.503601 227.330964,149.463174 226.732552,149.058906 C226.533081,148.937626 226.373504,148.775918 226.213928,148.654638 C223.062291,146.269455 219.551606,144.854516 215.64198,144.571529 C210.415848,144.167261 205.668445,145.622626 201.47956,148.856772 C200.561995,149.584455 200.561995,149.584455 199.724218,148.816345 C199.684324,148.775918 199.64443,148.735491 199.564641,148.695065 C196.413004,145.70348 193.221473,142.711895 190.029942,139.72031 C189.790577,139.477749 189.551212,139.033054 189.232059,139.154335 C188.992694,139.275615 189.112376,139.72031 189.112376,140.043725 C189.112376,143.520431 189.112376,147.037565 189.112376,150.514272 C189.112376,150.999393 189.072482,151.403662 188.553858,151.727076 C182.809102,155.648478 181.452701,163.289147 184.803809,169.191464 C185.122962,169.757439 185.482009,170 186.16021,170 C190.388989,169.959573 194.657662,170 198.886441,169.959573 C199.1657,169.959573 199.564641,170.080854 199.684324,169.838293 C199.804006,169.595732 199.405065,169.393598 199.205594,169.191464 C197.131099,166.927562 196.492792,164.299818 197.370464,161.389087 C198.248135,158.478356 200.282736,156.740002 203.155114,156.052746 C203.753526,155.891039 204.351938,155.810185 204.95035,155.891039 C205.269504,155.931466 205.468974,156.1336 205.468974,156.497441 C205.468974,156.780429 205.309398,156.982563 204.990245,157.02299 C204.631197,157.063417 204.312044,157.103844 203.952997,157.14427 C201.200301,157.508112 198.846547,159.610307 198.288029,162.318904 C197.689617,165.108354 198.886441,167.938232 201.280089,169.434024 C201.878502,169.797866 202.516808,170 203.274796,170 C209.179129,169.87872 214.923886,169.919146 220.628748,169.919146 Z" id="Shape" fill="#C27659"></path>
                <path d="M46.4534092,165.042087 C46.4534092,165.042087 46.4534092,165.042087 46.4534092,165.042087 C38.2960108,165.077744 30.1386123,165.077744 21.9812139,165.077744 C15.4311846,165.077744 8.88115536,165.077744 2.33112608,165.077744 C2.0900207,165.077744 1.8087311,165.077744 1.56762573,165.077744 C1.16578344,165.077744 0.9648623,165.220372 1.00504653,165.57694 C1.00504653,166.290078 1.00504653,167.003215 1.00504653,167.716353 C1.00504653,169 1.00504653,169 2.45167876,169 C13.9041839,169 25.3968734,169 36.8493785,168.964343 C54.7313603,168.964343 72.5731579,168.928686 90.4551397,168.928686 C90.696245,168.928686 90.9775346,168.928686 91.21864,168.928686 C91.7812192,168.893029 91.9821403,168.714745 91.9821403,168.215549 C92.0223246,167.28847 91.9821403,166.397048 91.9821403,165.46997 C91.9821403,165.077744 91.7812192,164.970773 91.3793769,165.00643 C91.1382715,165.00643 90.9373504,165.00643 90.696245,165.00643 C86.4367168,165.00643 82.2173728,165.042087 77.9578445,165.042087 C67.4697608,165.042087 56.9816771,165.042087 46.4534092,165.042087 Z" id="Shape" fill="#CCD6DA"></path>
                <path d="M145.961196,169.959358 C151.576695,169.959358 157.231741,169.959358 162.847241,169.959358 C163.084515,169.959358 163.282244,169.959358 163.519519,169.959358 C163.875431,170 164.033614,169.878073 163.994068,169.471651 C163.796339,167.764676 163.203153,166.220271 162.174963,164.838435 C162.016779,164.594581 161.858596,164.635223 161.779505,164.919719 C161.739959,165.041646 161.700413,165.163573 161.621322,165.285499 C160.316311,168.089814 157.073558,168.862017 154.700812,166.911189 C154.265808,166.545409 153.988988,166.464124 153.474893,166.707978 C152.011699,167.317612 150.627597,167.1144 149.322586,166.220271 C147.938484,165.244857 147.305752,163.863021 147.424389,162.115404 C147.463935,161.50577 147.424389,161.465128 146.910294,161.627697 C145.684375,161.952835 144.537548,161.830908 143.430266,161.180632 C143.153446,161.018063 142.916171,161.018063 142.599805,161.018063 C140.780699,161.018063 138.922048,160.977421 137.102943,161.018063 C132.911091,161.099348 129.312425,164.066232 128.244689,168.252383 C128.126052,168.699448 128.046961,169.146513 128.007415,169.593578 C127.967869,169.878073 128.086506,170 128.363327,170 C128.600601,170 128.877422,170 129.114696,170 C134.769742,169.959358 140.385242,169.959358 145.961196,169.959358 Z" id="Shape" fill="#CCD6DA"></path>
                <path d="M139.006875,159.287168 C139.006875,159.287168 139.006875,159.287168 139.006875,159.287168 C139.749951,159.287168 140.451745,159.287168 141.194821,159.287168 C141.483795,159.287168 141.648923,159.209843 141.525077,158.900541 C140.699437,156.774091 140.575591,154.492991 140.080207,152.289216 C139.956361,151.786601 140.162771,151.477299 140.534309,151.399974 C140.905847,151.322648 141.153539,151.554624 141.277385,152.05724 C141.401231,152.559855 141.483795,153.101133 141.566359,153.603749 C141.814051,154.918281 142.020461,156.232813 142.309435,157.508683 C142.722255,159.248505 144.414816,160.253736 146.272506,159.944434 C148.088914,159.59647 149.24481,158.049961 148.955836,156.310139 C148.708144,154.802293 148.460452,153.33311 148.088914,151.863926 C147.304556,148.577595 143.795587,146.489808 140.286617,147.108412 C136.942776,147.688353 134.507138,150.974684 135.085086,154.183689 C135.37406,155.730198 135.869444,157.238044 136.240982,158.784553 C136.323546,159.132517 136.529956,159.287168 136.942776,159.287168 C137.644569,159.287168 138.346363,159.287168 139.006875,159.287168 Z" id="Shape" fill="#FAE0D6"></path>
                <path d="M149,162.647268 C149.081721,163.77076 149.449465,164.653504 150.348396,165.2955 C152.227977,166.659741 154.761327,165.97762 155.578536,163.810885 C156.354885,161.684275 157.090374,159.517539 157.825862,157.350804 C157.907583,157.110056 157.948444,156.869307 157.989304,156.588434 C158.111885,155.02357 157.172095,153.619204 155.619397,153.137708 C154.107559,152.696336 152.43228,153.338331 151.696791,154.742697 C151.206466,155.70569 150.797861,156.748933 150.634419,157.832301 C150.511838,158.634795 150.266675,159.35704 149.85807,160.079285 C149.367744,160.921905 149.081721,161.804649 149,162.647268 Z" id="Shape" fill="#FAE0D6"></path>
                <path d="M100.837563,169 C100.837563,169 100.837563,168.963964 100.837563,168.963964 C102.989848,168.963964 105.101523,168.963964 107.253807,168.963964 C107.619289,168.963964 107.984772,168.963964 108.309645,168.963964 C108.715736,168.927928 109,168.783784 109,168.387387 C109,167.378378 109,166.369369 109,165.36036 C109,165.108108 108.837563,165 108.553299,165 C108.309645,165 108.025381,165 107.781726,165 C104.736041,165 101.690355,165 98.6446701,165 C96.9796954,165 95.3147208,165.036036 93.6903553,165.036036 C93.2030457,165.036036 93,165.18018 93,165.612613 C93.0406091,166.513514 93,167.414414 93,168.279279 C93,168.963964 93,169 93.8121827,169 C96.1675127,169 98.4822335,169 100.837563,169 Z" id="Shape" fill="#CCD6DA"></path>
                <path d="M162,161.397728 C162,159.607794 160.848869,158.323711 159.100854,158.051329 C158.333433,157.934595 158.248164,157.973506 157.992357,158.635004 C157.523378,159.880175 157.097033,161.125347 156.628053,162.331607 C156.201708,163.421132 155.988536,164.627392 155.135846,165.561271 C154.837404,165.872563 155.093211,166.067122 155.306384,166.26168 C157.097033,167.623586 159.825641,167.039912 160.7636,165.016508 C161.189945,164.082629 161.531021,163.109839 161.872097,162.137049 C162,161.825756 162,161.514463 162,161.397728 Z" id="Shape" fill="#FAE0D6"></path>
                <path d="M57.9823882,132.20455 C57.6653755,137.068226 54.6537549,140.69605 50.2155773,141.732571 C44.5093489,143.088022 38.8823737,139.141268 38.0898419,133.280938 C37.41619,128.337529 40.5863169,123.314388 45.7377731,122.118403 C46.8473175,121.879205 46.9265707,121.919072 47.085077,123.035325 C47.758729,126.822614 50.2948305,129.613248 53.980103,130.450438 C54.8518879,130.649769 55.7236728,130.689635 56.6350843,130.609902 C57.8238818,130.490304 57.9427616,130.609902 57.9823882,131.805888 C58.0220148,132.005219 57.9823882,132.20455 57.9823882,132.20455 Z" id="Shape" fill="#151D38"></path>
                <path d="M48.1754988,140.999625 C48.7817482,140.958659 49.5900807,140.876728 50.3984133,140.6719 C53.9954931,139.688727 56.8246569,136.24762 56.9863234,132.560719 C57.0267401,131.741408 57.0267401,131.741408 56.2588242,131.741408 C51.4492456,131.823339 47.2459164,128.546094 46.1546674,123.794089 C45.9121677,122.728985 45.7909178,122.974778 45.1442518,123.179606 C40.9813392,124.572435 38.3946751,128.914784 39.1221743,133.380031 C39.809257,137.72238 43.6488366,141.04059 48.1754988,140.999625 Z" id="Shape" fill="#FFFFFF"></path>
                <path d="M91.8136528,61.3646549 C96.2045273,61.3646549 100.595402,61.3646549 104.986276,61.3646549 C107.003705,61.3646549 109.021134,61.4456893 111.038563,61.4862065 C111.987941,61.5267238 112.225286,61.8508614 111.790154,62.6612057 C108.823347,68.2930981 104.47203,72.2232676 98.2615136,73.5603356 C92.0114399,74.8974036 86.5129574,73.1551635 81.8056235,68.7387874 C79.9464244,66.9965473 78.5223569,64.8896523 77.3751915,62.5801713 C77.2565192,62.337068 77.137847,62.1344819 77.0587321,61.8913787 C76.9005024,61.4051721 77.0587321,61.1620688 77.5729787,61.0405172 C77.7707658,61 77.968553,61 78.1267827,61 C82.0034106,61.0405172 85.919596,61.0810344 89.7962239,61.1215516 C90.4687002,61.1215516 91.1016191,61.2025861 91.7740954,61.2025861 C91.8136528,61.2836205 91.8136528,61.3241377 91.8136528,61.3646549 Z" id="Shape" fill="#151D38"></path>
                <path d="M95.0729188,62.154374 C95.0729188,62.154374 95.0729188,62.154374 95.0729188,62.154374 C93.8681818,62.154374 92.7036027,62.154374 91.4988657,62.154374 C90.0130233,62.154374 88.5673389,62.154374 87.0814966,62.077187 C84.5515489,62 82.0216011,62 79.4916534,62 C78.9294428,62 78.8892849,62.0385935 79.1703902,62.5017156 C80.1743377,64.3156103 81.4593905,65.9365376 83.0255486,67.3259038 C87.4429177,71.1852544 92.583129,72.7675881 98.4461825,71.6483765 C103.827341,70.6063518 107.762815,67.5960583 110.654184,63.1963987 C111.176237,62.3859351 111.176237,62.3473416 110.172289,62.3473416 C105.152552,62.2701545 100.092656,62.1929675 95.0729188,62.154374 Z" id="Shape" fill="#FFFFFF"></path>
                <path d="M57,67.5001899 C57,64.2308243 59.4520958,61.0393008 63.5389222,61.0003798 C67.1197605,60.9614587 70,63.9194562 70,67.5001899 C70,71.1198446 67.1197605,74 63.5,74 C59.9191617,73.961079 57,71.0809236 57,67.5001899 Z" id="Shape" fill="#E5384A"></path>
                <path d="M133.990433,68.5201931 C134.146474,71.6429916 131.454763,74.960965 127.514722,75 C123.925773,75 121.03901,72.1114114 121,68.5201931 C121,64.8509049 123.847753,62.0013513 127.514722,62.0013513 C131.376742,61.9232813 134.185484,65.2412547 133.990433,68.5201931 Z" id="Shape" fill="#E5384A"></path>
                <path d="M72.478105,53 C74.4533252,53 76.0420892,54.5460123 75.9991497,56.5214724 C75.9991497,58.4539877 74.4533252,60 72.5639842,60 C70.588764,60 69,58.4539877 69,56.4785276 C69,54.5889571 70.5458245,53.0429448 72.478105,53 Z" id="Shape" fill="#151D38"></path>
                <path d="M117.521895,54.0008502 C119.497115,54.0008502 121,55.5464819 121,57.5643898 C120.95706,59.4964293 119.411236,61.0420609 117.478955,60.9991267 C115.589614,60.9991267 114.00085,59.4105609 114.00085,57.5214556 C113.957911,55.5464819 115.546675,53.957916 117.521895,54.0008502 Z" id="Shape" fill="#151D38"></path>
                <path d="M153.999498,72.0598025 C153.959417,76.1269284 149.790994,78.9932838 145.822976,77.6763097 C145.702733,77.6375752 145.58249,77.5988406 145.462247,77.5213716 C145.061437,77.3664334 144.901113,77.0952917 145.061437,76.7079464 C145.18168,76.3593356 145.542409,76.3206011 145.863057,76.3980701 C146.063462,76.4368047 146.303947,76.5530083 146.504352,76.5917428 C149.269941,77.3276989 152.155772,75.6233795 152.716906,72.9506967 C153.27804,70.2005449 151.354153,67.6053312 148.508402,67.2179859 C148.267916,67.1792513 147.987349,67.1405168 147.746863,67.1017823 C147.466296,67.0630477 147.305972,66.8306405 147.305972,66.5594988 C147.305972,66.210888 147.506377,66.0559499 147.827025,66.0172153 C148.02743,65.9784808 148.267916,66.0172153 148.508402,66.0172153 C151.6748,66.3658261 154.039579,68.9610398 153.999498,72.0598025 Z" id="Shape" fill="#151D38"></path>
                <path d="M94.9978352,52.684996 C94.9978352,52.9691425 94.7749456,53.1315119 94.5149077,53.253289 C93.7347941,53.6998049 92.9175322,54.1463208 92.1374185,54.5522443 C91.8030841,54.7146138 91.7287876,54.8769832 92.063122,55.1205373 C92.7317908,55.6076456 93.3633114,56.1353462 94.0319802,56.6224545 C94.2177216,56.7442315 94.3663146,56.8660086 94.5149077,57.028378 C94.7006491,57.2313398 94.7006491,57.5154863 94.552056,57.7590404 C94.4034629,58.0025945 94.1805733,58.0431869 93.9205354,57.9620022 C93.7719423,57.9214098 93.6604975,57.8402251 93.5490527,57.718448 C92.5460495,56.9471933 91.5058979,56.1759385 90.5028947,55.3640914 C89.7970776,54.7957985 89.8342259,54.3898749 90.6143395,53.943359 C91.7287876,53.2938813 92.8803839,52.684996 94.0319802,52.0761107 C94.5892043,51.8731489 95.0349835,52.0761107 94.9978352,52.684996 Z" id="Shape" fill="#151D38"></path>
                <path d="M64,54.9236512 C64.113789,52.0257891 66.0102726,49.6247033 68.7032793,49.0865289 C69.0067167,49.0037329 69.3101541,48.9623348 69.6135915,49.0451309 C69.8411695,49.0865289 69.9928882,49.2935191 69.9928882,49.5419073 C70.0308179,49.8316935 69.9170288,50.0800816 69.6515211,50.1628777 C69.3860134,50.2456738 69.1205057,50.2870718 68.854998,50.3284698 C66.8067957,50.7838482 65.4413275,52.4397694 65.2137495,54.675263 C65.1758198,54.9236512 65.1758198,55.1306414 65.1758198,55.3790295 C65.1378902,55.7516118 64.9861715,56 64.6068748,56 C64.227578,56 64.0758593,55.7102138 64.0379297,55.3376315 C64,55.2134374 64,55.0892433 64,54.9236512 Z" id="Shape" fill="#151D38"></path>
                <path d="M125,54.9026142 C125,55.0651899 125,55.3496973 124.960872,55.5935608 C124.882615,55.8780682 124.686974,56 124.413077,56 C124.139179,56 123.943538,55.8374243 123.90441,55.5529169 C123.865282,55.3496973 123.90441,55.1464777 123.865282,54.983902 C123.747897,52.5859108 122.221897,50.7569344 119.952461,50.3098513 C119.835076,50.2692074 119.717692,50.2692074 119.600307,50.2285635 C119.209025,50.1472757 118.935128,49.9440561 119.013384,49.496973 C119.091641,49.0498898 119.443794,48.968602 119.795948,49.0092459 C121.126307,49.1718216 122.261025,49.7001926 123.239231,50.6350027 C124.33482,51.8136763 124.921744,53.1955696 125,54.9026142 Z" id="Shape" fill="#151D38"></path>
                <path d="M213.660296,166.991051 C212.159761,166.948095 211.145887,166.518538 210.375342,165.487599 C210.050902,165.100997 209.929237,165.100997 209.604797,165.487599 C208.185372,167.162874 206.117067,167.463565 204.454312,166.303759 C203.886542,165.917157 203.440438,165.358732 203.115998,164.714396 C202.953778,164.370749 202.913223,163.941192 203.318773,163.726413 C203.724322,163.511634 203.967652,163.726413 204.170427,164.113015 C204.292092,164.370749 204.454312,164.628484 204.657087,164.886219 C205.995402,166.38967 208.347592,165.917157 209.077582,164.027103 C209.239802,163.597546 209.280357,163.339811 208.753142,163.210944 C208.023152,162.996165 207.577047,162.394784 207.090387,161.836359 C206.887612,161.62158 206.765947,161.32089 206.725392,161.020199 C206.603727,160.418819 206.806502,160.032217 207.414827,160.032217 C209.118137,159.989261 210.862002,159.989261 212.565311,160.032217 C213.133081,160.032217 213.335856,160.418819 213.173636,161.020199 C212.930306,162.008182 212.200316,162.523651 211.470326,163.039121 C211.226996,163.210944 210.821447,163.167988 210.740337,163.468678 C210.659227,163.85528 210.902557,164.241882 211.145887,164.585528 C212.240871,166.174892 214.430841,166.174892 215.566381,164.585528 C215.688046,164.413705 215.809711,164.155971 215.931376,163.984147 C216.134151,163.683457 216.418036,163.640501 216.701921,163.769369 C216.985806,163.941192 217.066916,164.241882 216.945251,164.542572 C216.701921,165.143953 216.336926,165.659422 215.850266,166.08898 C215.120276,166.690361 214.309176,167.034007 213.660296,166.991051 Z" id="Shape" fill="#151D38"></path>
                <path d="M227.00052,156.001041 C228.714509,156.001041 230,157.329158 230,159.000016 C230,160.713717 228.628809,162.041835 226.914821,161.998992 C225.243682,161.95615 223.958191,160.628032 224.001041,158.914331 C223.958191,157.243473 225.286532,155.958198 227.00052,156.001041 Z" id="Shape" fill="#151D38"></path>
                <path d="M191.978723,162 C190.319149,162 189,160.723404 189,159.021277 C189,157.319149 190.234043,156.042553 191.93617,156 C193.680851,156 195,157.276596 195,158.978723 C194.957447,160.680851 193.680851,162 191.978723,162 Z" id="Shape" fill="#151D38"></path>
            </g>
            <text id="Incoming-traffic" font-family="Arial-BoldMT, Arial" font-size="20" font-weight="bold" fill="#7DA159">
                <tspan x="153" y="199">Incoming</tspan>
                <tspan x="153" y="221">traffic</tspan>
            </text>
        </g>
        <g id="animate-traffic1" transform="translate(359.500000, 270.000000)" stroke="#F5A623" stroke-dasharray="6" stroke-width="13">
            <path d="M0,379.15625 L0,263.5 L97,263.5 L97,125.5 L240.5,125.5 L240.5,0" id="Path"></path>
        </g>
        <g id="animate-traffic2" transform="translate(600.000000, 270.000000)" stroke="#F5A623" stroke-dasharray="6" stroke-width="13">
            <path d="M242.5,379.15625 L242,125.5 L2.75821033e-14,125.5 L0,0" id="Path"></path>
        </g>
        <g id="animate-traffic3" transform="translate(456.500000, 270.000000)" stroke="#F5A623" stroke-dasharray="6" stroke-width="13">
            <path d="M127,379.15625 L127,263.5 L0,263.5 L0,125.5 L143.5,125.5 L143.5,0" id="Path"></path>
        </g>
    </g>
</svg>