<svg xmlns="http://www.w3.org/2000/svg" viewBox="0 0 1200 900"><style>@keyframes a0_do{0%{stroke-dashoffset:0}to{stroke-dashoffset:74px}}@keyframes a1_do{0%{stroke-dashoffset:0}to{stroke-dashoffset:74px}}@keyframes a2_do{0%{stroke-dashoffset:0}to{stroke-dashoffset:74px}}.sans-serif{font-family:-apple-system,BlinkMacSystemFont,'avenir next', avenir,'helvetica neue',helvetica,ubuntu,roboto,noto,'segoe ui',arial,sans-serif}</style><g fill="none" fill-rule="evenodd"><g fill-rule="nonzero"><path d="M989.87 389.64v22.6h-779.7v-22.6c0-3.164 2.486-5.65 5.65-5.65h768.4c3.164 0 5.65 2.486 5.65 5.65z" fill="#353535"></path><path fill="#a3a3a3" d="M218.08 390.77h4.52v4.52h-4.52zm6.78 0h4.52v4.52h-4.52zm6.78 0h4.52v4.52h-4.52z"></path></g><text font-size="20" font-weight="bold" fill="#4a4a4a" transform="matrix(1.13 0 0 1.13 210.17 347.83)" class="sans-serif"><tspan x="0" y="18">Ingress</tspan></text><g fill-rule="nonzero"><path d="M689.29 545.58v22.6H210.17v-22.6c0-3.164 2.486-5.65 5.65-5.65h467.82c3.164 0 5.65 2.486 5.65 5.65z" fill="#d2d2d2"></path><path fill="#a3a3a3" d="M218.08 546.71h4.52v4.52h-4.52zm6.78 0h4.52v4.52h-4.52zm6.78 0h4.52v4.52h-4.52z"></path></g><g fill-rule="nonzero" transform="matrix(1.13 0 0 1.13 427.13 412.24)"><path fill="#9eebcf" d="M7-1v114H4V-1z"></path><ellipse cx="5.5" cy="-1.5" stroke="#9eebcf" stroke-width="3" fill="#fff" rx="6.5" ry="6.5"></ellipse><path fill="#9eebcf" d="M5.5 117L0 109h11z"></path></g><g fill-rule="nonzero" transform="matrix(1.13 0 0 1.13 317.52 568.18)"><path fill="#9eebcf" d="M7-1v86H4V-1z"></path><ellipse cx="5.5" cy="-1.5" stroke="#9eebcf" stroke-width="3" fill="#fff" rx="6.5" ry="6.5"></ellipse><path fill="#9eebcf" d="M5.5 89L0 81h11z"></path></g><path d="M436.17 855.313c0 1.13-.678 2.147-1.582 2.147H211.752c-.904 0-1.582-1.017-1.582-2.147V669.88c0-3.164 2.486-5.65 5.65-5.65h214.7c3.164 0 5.65 2.486 5.65 5.65v185.433z" fill="#ff003c"></path><path d="M215.82 664.23h214.7c3.164 0 5.65 2.486 5.65 5.65v20.34h-226v-20.34c0-3.164 2.486-5.65 5.65-5.65z" fill="#ccc"></path><path d="M229.38 678.355a5.064 5.064 0 0 1-5.085 5.085 5.064 5.064 0 0 1-5.085-5.085 5.064 5.064 0 0 1 5.085-5.085 5.064 5.064 0 0 1 5.085 5.085" fill="#e74c3c"></path><path d="M247.46 678.355a5.064 5.064 0 0 1-5.085 5.085 5.064 5.064 0 0 1-5.085-5.085 5.064 5.064 0 0 1 5.085-5.085 5.064 5.064 0 0 1 5.085 5.085" fill="#f1c40f"></path><path d="M264.41 678.355a5.064 5.064 0 0 1-5.085 5.085 5.064 5.064 0 0 1-5.085-5.085 5.064 5.064 0 0 1 5.085-5.085 5.064 5.064 0 0 1 5.085 5.085" fill="#2ecc71"></path><text font-size="20" font-weight="bold" fill="#4a4a4a" transform="matrix(1.13 0 0 1.13 210.17 568.18)" class="sans-serif"><tspan x="0" y="71">Pod 1</tspan></text><g fill-rule="nonzero" transform="matrix(1.13 0 0 1.13 570.64 568.18)"><path fill="#9eebcf" d="M7-1v86H4V-1z"></path><ellipse cx="5.5" cy="-1.5" stroke="#9eebcf" stroke-width="3" fill="#fff" rx="6.5" ry="6.5"></ellipse><path fill="#9eebcf" d="M5.5 89L0 81h11z"></path></g><path d="M689.29 855.313c0 1.13-.678 2.147-1.582 2.147H464.872c-.904 0-1.582-1.017-1.582-2.147V669.88c0-3.164 2.486-5.65 5.65-5.65h214.7c3.164 0 5.65 2.486 5.65 5.65v185.433z" fill="#ff003c"></path><path d="M468.94 664.23h214.7c3.164 0 5.65 2.486 5.65 5.65v20.34h-226v-20.34c0-3.164 2.486-5.65 5.65-5.65z" fill="#ccc"></path><path d="M482.5 678.355a5.064 5.064 0 0 1-5.085 5.085 5.064 5.064 0 0 1-5.085-5.085 5.064 5.064 0 0 1 5.085-5.085 5.064 5.064 0 0 1 5.085 5.085" fill="#e74c3c"></path><path d="M500.58 678.355a5.064 5.064 0 0 1-5.085 5.085 5.064 5.064 0 0 1-5.085-5.085 5.064 5.064 0 0 1 5.085-5.085 5.064 5.064 0 0 1 5.085 5.085" fill="#f1c40f"></path><path d="M517.53 678.355a5.064 5.064 0 0 1-5.085 5.085 5.064 5.064 0 0 1-5.085-5.085 5.064 5.064 0 0 1 5.085-5.085 5.064 5.064 0 0 1 5.085 5.085" fill="#2ecc71"></path><text font-size="20" font-weight="bold" fill="#4a4a4a" transform="matrix(1.13 0 0 1.13 463.29 568.18)" class="sans-serif"><tspan x="0" y="71">Pod 2</tspan></text><text font-size="20" font-weight="bold" fill="#4a4a4a" transform="matrix(1.13 0 0 1.13 210.17 412.24)" class="sans-serif"><tspan x="0" y="99">Front-end service</tspan></text><g fill-rule="nonzero"><path d="M981.96 545.58v22.6h-226v-22.6c0-3.164 2.486-5.65 5.65-5.65h214.7c3.164 0 5.65 2.486 5.65 5.65z" fill="#d2d2d2"></path><path fill="#a3a3a3" d="M763.87 546.71h4.52v4.52h-4.52zm6.78 0h4.52v4.52h-4.52zm6.78 0h4.52v4.52h-4.52z"></path></g><g fill-rule="nonzero" transform="matrix(1.13 0 0 1.13 863.31 412.24)"><path fill="#9eebcf" d="M7-1v114H4V-1z"></path><ellipse cx="5.5" cy="-1.5" stroke="#9eebcf" stroke-width="3" fill="#fff" rx="6.5" ry="6.5"></ellipse><path fill="#9eebcf" d="M5.5 117L0 109h11z"></path></g><g fill-rule="nonzero" transform="matrix(1.13 0 0 1.13 863.31 568.18)"><path fill="#9eebcf" d="M7-1v86H4V-1z"></path><ellipse cx="5.5" cy="-1.5" stroke="#9eebcf" stroke-width="3" fill="#fff" rx="6.5" ry="6.5"></ellipse><path fill="#9eebcf" d="M5.5 89L0 81h11z"></path></g><path d="M981.96 855.313c0 1.13-.678 2.147-1.582 2.147H757.542c-.904 0-1.582-1.017-1.582-2.147V669.88c0-3.164 2.486-5.65 5.65-5.65h214.7c3.164 0 5.65 2.486 5.65 5.65v185.433z" fill="#e3cebc"></path><path d="M887.153 786.948l2.147-5.311c2.26-.113 4.52-.452 6.554-1.13l3.842 4.294c.678.791 1.808 1.017 2.712.452l2.486-1.469 2.373-1.469c.904-.565 1.243-1.695.904-2.712l-2.26-5.311c1.582-1.582 2.938-3.503 3.955-5.537l5.65.339c1.13.113 2.034-.678 2.26-1.695l.678-2.712.678-2.825c.226-1.017-.339-2.034-1.356-2.486l-5.311-2.26c0-2.26-.452-4.407-1.13-6.554l4.407-3.729c.791-.678.904-1.808.339-2.712l-1.469-2.373-1.469-2.486c-.565-.904-1.695-1.243-2.712-.791l-5.311 2.147c-1.582-1.469-3.39-2.825-5.424-3.842l.339-5.65c.113-1.017-.565-2.034-1.695-2.26l-2.712-.678-2.825-.565c-1.017-.339-2.034.226-2.486 1.243l-2.26 5.311c-2.26.113-4.407.452-6.554 1.13l-3.729-4.294c-.678-.791-1.808-.904-2.712-.452l-2.486 1.582-2.373 1.469c-.904.565-1.243 1.695-.904 2.599l2.26 5.424c-1.469 1.582-2.712 3.277-3.729 5.198l-5.763-.339c-1.017-.113-2.034.678-2.26 1.695l-.678 2.712-.678 2.825c-.226 1.017.339 2.034 1.356 2.486l5.311 2.26c0 2.26.339 4.407 1.017 6.554l-4.294 3.729c-.791.791-1.017 1.921-.452 2.825l1.582 2.373 1.469 2.373c.565.904 1.695 1.356 2.599.904l5.311-2.147c1.695 1.469 3.39 2.825 5.424 3.842l-.339 5.763c-.113 1.017.565 2.034 1.695 2.26l2.712.565 2.825.678c1.017.226 2.034-.339 2.486-1.243zm4.407-41.019c6.667 1.582 10.848 8.249 9.266 15.029-1.469 6.667-8.249 10.848-14.916 9.266-6.667-1.582-10.848-8.249-9.266-14.916 1.469-6.78 8.249-10.961 14.916-9.379zm-30.058 68.817l.565-3.503c1.356-.339 2.599-.904 3.729-1.582l2.938 2.034c.565.452 1.243.339 1.695-.113l1.243-1.243 1.243-1.243c.452-.452.452-1.13.113-1.695l-2.034-2.825c.678-1.243 1.243-2.486 1.582-3.955l3.39-.565c.678-.113 1.13-.678 1.13-1.243v-3.503c0-.678-.452-1.243-1.13-1.356l-3.503-.565c-.339-1.356-.904-2.599-1.582-3.729l2.147-2.938c.339-.452.339-1.243-.226-1.695l-1.13-1.243-1.243-1.13c-.452-.565-1.243-.565-1.695-.226l-2.938 2.147a15.42 15.42 0 0 0-3.729-1.582l-.678-3.39c0-.678-.565-1.13-1.243-1.13h-3.503c-.678 0-1.243.452-1.356 1.13l-.565 3.503c-1.356.339-2.599.904-3.729 1.582l-2.825-2.034c-.565-.452-1.356-.339-1.808.113l-1.243 1.243-1.13 1.243c-.452.452-.565 1.13-.226 1.695l2.147 2.825c-.678 1.13-1.243 2.373-1.582 3.729l-3.503.565c-.565.113-1.017.678-1.017 1.356v3.503c0 .565.452 1.13 1.017 1.243l3.503.565c.339 1.356.904 2.599 1.582 3.842l-2.034 2.825c-.339.565-.339 1.243.113 1.695l1.243 1.243 1.243 1.243c.452.452 1.13.565 1.695.113l2.938-2.034c1.13.678 2.373 1.243 3.729 1.582l.565 3.503c.113.678.678 1.13 1.356 1.13h3.503c.565-.113 1.13-.565 1.243-1.13zm-3.051-25.199c4.181 0 7.684 3.503 7.684 7.684 0 4.294-3.503 7.684-7.684 7.684s-7.684-3.39-7.684-7.684c0-4.181 3.503-7.684 7.684-7.684zm-17.741-9.04l.452-3.39c1.243-.339 2.486-.904 3.616-1.582l2.825 1.921c.452.339 1.243.226 1.582-.226l1.243-1.13 1.13-1.243c.452-.452.452-1.13.113-1.695l-2.034-2.712c.565-1.13 1.13-2.373 1.356-3.729l3.39-.678c.565-.113 1.017-.678 1.017-1.243v-1.695l-.113-1.695c0-.678-.452-1.243-1.13-1.243l-3.39-.565a12.324 12.324 0 0 0-1.582-3.503l1.921-2.825c.339-.565.339-1.243-.113-1.695l-1.243-1.13-1.243-1.13c-.452-.452-1.13-.452-1.695-.113l-2.712 2.034c-1.13-.565-2.373-1.13-3.616-1.356l-.678-3.277c-.113-.678-.678-1.13-1.243-1.13l-1.695.113h-1.695c-.678 0-1.243.452-1.243 1.13l-.565 3.39a12.324 12.324 0 0 0-3.503 1.582l-2.825-1.921c-.565-.339-1.243-.226-1.695.226l-1.13 1.243-1.13 1.13c-.452.452-.452 1.243-.113 1.695l2.034 2.712c-.565 1.13-1.13 2.373-1.356 3.616l-3.39.678c-.565.113-1.017.678-1.017 1.243v1.695l.113 1.695c0 .678.452 1.13 1.13 1.243l3.277.452c.452 1.356.904 2.486 1.582 3.616l-1.808 2.825c-.452.565-.339 1.243.113 1.695l1.243 1.13 1.243 1.13a1.21 1.21 0 0 0 1.582.113l2.712-2.034c1.13.678 2.373 1.13 3.729 1.469l.678 3.277c.113.678.565 1.13 1.243 1.017h3.39c.565-.113 1.13-.565 1.243-1.13zm-3.616-24.182c4.181-.113 7.571 3.164 7.571 7.232.113 4.068-3.051 7.458-7.119 7.571-4.181.113-7.571-3.164-7.571-7.232-.113-4.068 3.051-7.458 7.119-7.571z" fill="#6c431e" fill-rule="nonzero"></path><path d="M761.61 664.23h214.7c3.164 0 5.65 2.486 5.65 5.65v20.34h-226v-20.34c0-3.164 2.486-5.65 5.65-5.65z" fill="#ccc"></path><path d="M775.17 678.355a5.064 5.064 0 0 1-5.085 5.085 5.064 5.064 0 0 1-5.085-5.085 5.064 5.064 0 0 1 5.085-5.085 5.064 5.064 0 0 1 5.085 5.085" fill="#e74c3c"></path><path d="M793.25 678.355a5.064 5.064 0 0 1-5.085 5.085 5.064 5.064 0 0 1-5.085-5.085 5.064 5.064 0 0 1 5.085-5.085 5.064 5.064 0 0 1 5.085 5.085" fill="#f1c40f"></path><path d="M810.2 678.355a5.064 5.064 0 0 1-5.085 5.085 5.064 5.064 0 0 1-5.085-5.085 5.064 5.064 0 0 1 5.085-5.085 5.064 5.064 0 0 1 5.085 5.085" fill="#2ecc71"></path><text font-size="20" font-weight="bold" fill="#4a4a4a" transform="matrix(1.13 0 0 1.13 755.96 568.18)" class="sans-serif"><tspan x="0" y="71">Pod 5</tspan></text><text font-size="20" font-weight="bold" fill="#4a4a4a" transform="matrix(1.13 0 0 1.13 755.96 412.24)" class="sans-serif"><tspan x="0" y="99">Backend service</tspan></text><g fill="#b8e986"><path d="M595.5 404.33l-40.68-73.45h81.36z"></path><path d="M584.2 256.3h22.6v127.69h-22.6z"></path></g><g fill-rule="nonzero"><path d="M449.73 256.3v-79.552c0-1.695 1.469-3.164 3.164-3.164h61.359c1.243-.452.791-.791.565-1.13-3.955-6.441-6.441-13.447-7.458-21.131-2.26-17.402 2.712-32.431 14.577-45.426.678-.791 1.243-1.469 2.034-2.147.565-.565.565-.565 0-1.13-1.808-1.695-3.503-3.616-4.859-5.876-3.164-4.972-4.972-10.396-5.085-16.385 0-1.469.226-1.695 1.582-1.017 1.469.678 2.938 1.356 4.52 1.808.226-2.599-.113-4.746-.113-7.006 0-.791-.113-1.582 0-2.373 0-1.13.339-1.356 1.356-.791a38.624 38.624 0 0 0 4.859 2.373c1.017.452 1.017.452.904-.678a35.44 35.44 0 0 1 0-8.475c.226-1.13.791-1.356 1.13-1.017.226.226.452.565.678.791 3.503 4.407 7.345 8.249 11.978 11.413 4.068 2.712 8.475 4.181 13.334 4.181 3.729.113 7.232-.678 10.622-2.034 3.164-1.13 6.328-2.486 9.605-3.164 3.277-.678 6.667-1.017 10.057-.226 5.65 1.356 9.492 5.085 11.978 10.283.904 2.034 1.356 4.068 1.695 6.215.113.904.113.904 1.017.791 4.972-.339 9.718.452 14.012 3.051 5.198 3.051 8.136 7.797 9.266 13.56.791 4.294.565 8.588-.113 12.882-.565 3.39-1.469 6.667-2.486 9.831-.339.791-.452.791.565 1.13 4.972 1.695 8.136 5.198 9.04 10.396 1.243 7.232-3.277 13.56-9.944 15.142a10.86 10.86 0 0 1-3.842.339c-.452-.113-.678.226-.791.678a63.611 63.611 0 0 1-3.842 10.057c-3.277 6.441-7.571 11.978-12.995 16.724-1.243.904-1.356 1.356-1.13 2.034.678 1.808 1.243 3.616 1.808 5.311 3.616 11.413 7.345 22.713 10.961 34.126.339.791.678 1.13 1.469 1.243 3.616.791 5.876 3.051 6.78 6.554.226.791.339 1.582.452 2.373.904-.565 1.243-1.017 1.808-1.469 1.469-1.243 3.164-1.582 5.085-.904 1.808.678 2.938 2.034 3.277 4.068.113.678.226.791.904.904 3.164.565 5.085 3.616 3.955 6.667-.226.791-.113 1.356.452 2.034 1.356 1.582 2.147 3.616 2.486 5.763.113.904 0 .904 1.017.904h18.645c0-1.921-.565-3.39-.904-4.972-2.147.113-3.616.452-4.972.904-.791.339-1.243.113-1.356-.339-.113-.452.226-.678.904-.904 1.356-.452 2.712-.791 3.955-1.243 1.356-.339 1.13-.113 1.13-1.469 0-.678-.226-.791-.565-.791h-6.554c-1.13-.113-1.356-.339-1.356-.678.904-.678 1.13-.565 1.356-.565h6.441c.565 0 .791-.226.904-.791.226-1.582.226-1.582-1.243-2.034-1.356-.339-2.599-.791-3.842-1.13-1.017-.339-1.13-.678-1.13-1.017 1.017-.452 1.356-.339 1.582-.226 1.582.452 3.051.904 4.633 1.356 2.034-3.164 3.842-5.424 6.215-7.119.452-.339.565-.678.565-1.243v-13.899c.113-.678.565-.904 1.017-.565 4.52 4.181 8.475 7.797 12.317 11.413 1.017 1.017.678 1.017 1.921.113a24.455 24.455 0 0 1 28.25 0c1.017.791.791 1.017 1.921-.113 3.955-3.616 7.91-7.232 11.865-10.961.339-.226.678-.791 1.243-.565.678.226.452.791.452 1.243v20.34c0 1.356 0 1.356 1.243.904 1.017-.226 2.034-.565 3.164-.904 1.582.678 1.469.904 1.017 1.13l-2.599.791-2.26.678c-.678 1.017-.678 1.695-.565 2.373 3.277.226 5.198.226 7.232.226 1.13.113 1.356.339 1.243.678-.791.678-1.13.678-1.356.678h-6.328c-.904 0-.904 0-.904.791 0 1.469-.113 1.13 1.13 1.469 1.13.452 2.486.678 3.729 1.13 1.017.452 1.13.678 1.017 1.13-2.712-.226-3.842-.565-5.198-.904-.678 1.808-.678 3.164-.678 4.52 0 .452.113.678.678.678h19.549c.452 0 1.017 0 1.469.226v.904c-1.13.226-1.469.226-1.808.226H449.73z" fill="#151d38"></path><path d="M502.162 248.39v-.113h50.398c1.13 0 1.13 0 1.13-1.13v-70.173c0-1.13-.678-1.921-1.921-2.034h-98.536c-1.695.113-2.373.791-2.373 2.373v69.947c0 1.13 0 1.13 1.13 1.13h50.172z" fill="#ccd6da"></path><path d="M534.706 173.584h16.498c1.695 0 2.938 1.017 3.277 2.599.113.339.113.678.113 1.13v18.758c0 1.017.113 1.017.904 1.017 6.554.904 13.108.452 19.549-1.243 14.69-3.842 25.764-12.43 33.335-25.538 2.26-3.729 3.842-7.684 4.972-11.865.226-.904.226-.904-.452-1.13-.452-.113-.904-.226-1.243-.339-.791-.339-1.017-.565-.904-1.017.113-.565.565-.565 1.356-.339 2.147.791 4.294 1.017 6.554.565 6.667-1.243 10.961-8.023 9.266-14.69-1.808-6.667-8.814-10.509-15.255-8.249-.339 0-.565.226-.904.226-.339.113-.565-.113-.678-.339-.113-.339 0-.565.226-.791a.863.863 0 0 1 .565-.226c.452-.226.904-.339 1.356-.452.113-.113.226-.113.339-.226.113-.226-.113-.226-.339-.226-.113-.113-.339-.113-.565-.226a41.88 41.88 0 0 1-9.605-4.633c-5.424-3.616-9.605-8.136-12.317-14.125-1.243-2.825-2.034-5.763-2.599-8.814-.113-.904-.113-.904-.904-.565-.226.226-.452.339-.791.452-3.955 2.373-8.023 4.407-12.43 5.989-9.266 3.503-18.871 4.972-28.702 3.164-6.78-1.243-13.221-3.729-18.758-8.023-.791-.452-.791-.452-1.356.113-4.972 4.859-9.04 10.396-11.865 16.724-4.52 9.944-5.876 20.227-4.181 31.075 1.13 7.232 3.729 14.012 7.571 20.227.452.791 1.017 1.13 1.921 1.13 5.311-.113 10.622-.113 16.046-.113z" fill="#fae0d6"></path><path d="M554.82 223.53v24.521c0 .565.226.791.791.791H572.9c1.017 0 1.13.113 1.13 1.017v4.52c0 .678-.113.791.678.791h17.402c.678 0 .791-.226.791-.678.226-1.695.678-3.277 1.582-4.633.339-.565.339-1.017.113-1.582l-2.712-8.475c-2.26-6.893-4.52-13.899-6.78-20.792 0-.226-.113-.452-.226-.678 0-.452.113-.791.565-.791.339-.113.565 0 .791.339 0 .113 0 .339.113.452 1.582 4.859 3.164 9.831 4.746 14.69 1.469 4.633 2.938 9.266 4.52 13.899.226.791.226.791.791.226 1.695-1.582 3.616-2.599 5.763-3.164.678-.113.791-.113.565-.791-.339-1.469-.791-3.051-1.13-4.52-1.017-4.633 1.808-9.266 6.215-10.396.339-.113.565-.113.904-.226.339 0 .452-.226.339-.565-.113-.226-.113-.339-.226-.452-3.503-11.074-7.119-22.035-10.622-33.109l-2.034-6.102c-.113-.452-.339-.678-.678-.226a1.56 1.56 0 0 1-.452.339 45.61 45.61 0 0 1-9.605 5.65c-6.554 3.051-13.56 4.859-20.792 5.085-3.051.113-6.215.113-9.153-.339-.565-.113-.678.113-.678.565v24.634z" fill="#fff3a2"></path><path d="M699.008 255.057h19.775c1.017 0 1.017 0 1.017-.904v-33.448c0-.226.113-.452-.113-.565-.226-.113-.339.226-.565.339-2.373 2.26-4.859 4.52-7.345 6.78-1.469 1.356-2.938 2.825-4.407 4.181-.678.565-.791.565-1.469.113-.226-.226-.339-.339-.565-.452-3.503-2.712-7.458-4.294-11.978-4.633-5.876-.452-11.187 1.13-15.933 4.859-1.017.791-1.017.791-2.034-.113l-.113-.113-10.848-10.17c-.226-.226-.452-.791-.904-.565-.226.113-.113.565-.113.904v11.865c0 .565 0 1.017-.565 1.356-6.554 4.407-8.023 13.108-4.294 19.775.339.678.791.904 1.582.904h14.351c.339 0 .791.113.904-.226.113-.226-.339-.452-.565-.678-2.373-2.599-3.051-5.537-2.034-8.814.904-3.277 3.277-5.311 6.554-5.989.678-.226 1.356-.339 2.034-.226.339 0 .565.226.565.678 0 .339-.226.565-.565.565-.452.113-.791.113-1.13.113-3.164.452-5.876 2.825-6.441 5.876a7.537 7.537 0 0 0 3.39 8.023c.678.452 1.356.678 2.26.678 6.667-.113 13.108-.113 19.549-.113z" fill="#c27659"></path><path d="M502.275 249.52c-9.266.113-18.532.113-27.685.113h-23.052c-.452 0-.678.113-.678.565v2.373c0 1.469 0 1.469 1.695 1.469h38.759c20.227 0 40.454-.113 60.681-.113h.791c.678 0 .904-.226.904-.791v-3.051c0-.452-.226-.565-.678-.565h-50.737zm112.435 5.65h19.775c.452 0 .565-.113.565-.565a11.348 11.348 0 0 0-2.034-5.311c-.226-.226-.339-.226-.452.113-.113.113-.113.339-.226.452-1.469 3.164-5.085 4.068-7.797 1.808-.452-.452-.791-.452-1.356-.226-1.695.678-3.277.452-4.746-.565-1.582-1.13-2.26-2.599-2.147-4.633.113-.678 0-.678-.565-.565-1.356.452-2.712.226-3.955-.452-.226-.226-.565-.226-.904-.226h-6.215c-4.746.113-8.814 3.503-10.057 8.249-.113.452-.226.904-.226 1.469 0 .339.113.452.452.452h19.888z" fill="#ccd6da"></path><path d="M606.8 243.079h2.486c.339 0 .452-.113.339-.452-.904-2.373-1.017-4.972-1.582-7.458-.113-.565.113-.904.452-1.017.452-.113.791.226.904.791l.339 1.695c.226 1.469.452 2.938.791 4.407.452 1.921 2.373 3.164 4.52 2.712 2.034-.339 3.277-2.034 3.051-4.068-.339-1.695-.565-3.39-1.017-4.972-.904-3.729-4.859-6.102-8.814-5.424-3.842.678-6.554 4.407-5.876 8.023.339 1.695.904 3.39 1.243 5.198.113.339.339.565.791.565h2.373zm11.3 3.729c.113 1.356.452 2.373 1.469 3.051 2.147 1.582 5.085.791 5.989-1.695.904-2.373 1.695-4.859 2.486-7.232.113-.339.113-.565.226-.904.113-1.808-.904-3.39-2.712-3.955-1.695-.452-3.616.226-4.407 1.808-.565 1.13-1.017 2.26-1.243 3.503-.113.904-.339 1.808-.791 2.599a7.135 7.135 0 0 0-1.017 2.825z" fill="#fae0d6"></path><path d="M563.634 254.04h8.475c.452-.113.791-.226.791-.678v-3.39c0-.339-.226-.452-.452-.452h-16.837c-.565 0-.791.226-.791.678v3.051c0 .791 0 .791.904.791h7.91z" fill="#ccd6da"></path><path d="M632.79 245.452c0-2.034-1.356-3.503-3.277-3.729-.904-.226-1.017-.113-1.243.565-.565 1.469-1.017 2.825-1.582 4.181-.452 1.243-.678 2.599-1.695 3.729-.339.339 0 .565.226.791 2.034 1.469 5.085.791 6.215-1.469.452-1.017.791-2.147 1.243-3.277.113-.339.113-.678.113-.791z" fill="#fae0d6"></path><path d="M515.27 212.456c-.339 5.537-3.729 9.605-8.814 10.735-6.441 1.582-12.769-2.938-13.673-9.492-.791-5.65 2.825-11.3 8.588-12.656 1.243-.226 1.356-.226 1.582 1.017.791 4.294 3.616 7.458 7.797 8.475 1.017.226 1.921.226 2.938.113 1.356-.113 1.469 0 1.582 1.356v.452z" fill="#151d38"></path><path d="M504.196 222.4c.678 0 1.582-.113 2.486-.339 4.068-1.13 7.232-5.085 7.458-9.153 0-1.017 0-1.017-.791-1.017-5.537.113-10.283-3.616-11.413-8.927-.339-1.243-.452-.904-1.243-.678-4.633 1.582-7.571 6.441-6.78 11.526.791 4.859 5.085 8.588 10.283 8.588z" fill="#fff"></path><path d="M553.464 132.452h14.916c2.26 0 4.52 0 6.78.113 1.13 0 1.356.452.904 1.356-3.39 6.328-8.249 10.735-15.255 12.317-7.119 1.469-13.334-.452-18.645-5.537-2.147-1.921-3.729-4.294-4.972-6.893-.113-.339-.339-.565-.339-.791-.226-.565 0-.791.565-1.017h.565c4.407 0 8.814.113 13.221.113.791 0 1.469.113 2.26.113v.226z" fill="#151d38"></path><path d="M557.193 133.356h-4.068c-1.695 0-3.277 0-4.972-.113-2.825-.113-5.763-.113-8.588-.113-.678 0-.678 0-.339.565 1.13 2.034 2.599 3.842 4.294 5.424 4.972 4.407 10.848 6.215 17.402 4.859 6.102-1.13 10.622-4.52 13.899-9.492.565-.904.565-1.017-.565-1.017-5.65 0-11.413-.113-17.063-.113z" fill="#fff"></path><path d="M514.14 139.345c0-3.729 2.825-7.345 7.345-7.345a7.33 7.33 0 0 1 7.345 7.345 7.33 7.33 0 0 1-7.345 7.345 7.33 7.33 0 0 1-7.345-7.345zm87.01 1.13c.113 3.503-2.825 7.345-7.345 7.345a7.33 7.33 0 0 1-7.345-7.345c0-4.068 3.164-7.345 7.345-7.345 4.407-.113 7.571 3.616 7.345 7.345z" fill="#e5384a"></path><path d="M531.655 122.96c2.26 0 3.955 1.695 3.955 3.955s-1.695 3.955-3.842 3.955c-2.26 0-4.068-1.695-4.068-3.955 0-2.147 1.695-3.955 3.955-3.955zm50.85 1.13c2.26 0 3.955 1.695 3.955 4.068 0 2.147-1.808 3.842-3.955 3.842-2.147 0-3.955-1.808-3.955-3.955 0-2.26 1.695-3.955 3.955-3.955zm41.245 20.453c0 4.52-4.746 7.797-9.266 6.328-.113-.113-.226-.113-.339-.226-.452-.113-.678-.452-.452-.904.113-.339.452-.452.904-.339.226 0 .452.226.678.226 3.164.791 6.441-1.13 7.006-4.068.678-3.164-1.469-6.102-4.746-6.554-.226 0-.565-.113-.904-.113-.226 0-.452-.339-.452-.565 0-.452.226-.565.565-.678h.791c3.616.452 6.215 3.39 6.215 6.893zm-66.67-21.922c0 .339-.226.452-.565.678-.904.452-1.808.904-2.712 1.469-.339.113-.452.339 0 .565.678.565 1.469 1.13 2.147 1.695.226.113.452.339.565.452.226.226.226.565.113.904-.226.226-.452.226-.791.226a1.56 1.56 0 0 0-.452-.339c-1.13-.904-2.26-1.695-3.39-2.599-.791-.678-.791-1.13.113-1.695 1.243-.678 2.599-1.356 3.842-2.034.678-.226 1.13 0 1.13.678zm-35.03 2.486c.113-3.277 2.26-5.989 5.311-6.554.339-.113.678-.113 1.017-.113.226.113.452.339.452.565 0 .339-.113.678-.339.791-.339 0-.678.113-.904.113-2.373.565-3.955 2.373-4.181 4.972v.791c-.113.452-.226.678-.678.678-.452 0-.565-.339-.678-.791v-.452zm68.93 0v.791c-.113.339-.339.452-.678.452s-.565-.226-.565-.452v-.678c-.226-2.712-1.921-4.746-4.407-5.311-.226 0-.339 0-.452-.113-.452-.113-.791-.339-.678-.791.113-.565.452-.565.904-.565 1.469.226 2.825.791 3.842 1.808 1.243 1.356 1.921 2.938 2.034 4.859zM691.211 251.78c-1.695-.113-2.938-.565-3.729-1.695-.339-.452-.565-.452-.904 0-1.582 1.921-3.955 2.26-5.763.904-.678-.452-1.243-1.017-1.582-1.808-.113-.339-.226-.904.226-1.13.452-.226.791 0 1.017.452.113.339.339.565.565.904 1.469 1.695 4.068 1.13 4.972-1.017.113-.452.226-.791-.339-.904-.904-.226-1.356-.904-1.921-1.582-.226-.226-.339-.565-.452-.904-.113-.678.113-1.13.791-1.13h5.876c.565 0 .791.452.678 1.13-.339 1.13-1.13 1.695-1.921 2.26-.339.226-.791.226-.904.565 0 .452.226.791.452 1.243 1.243 1.808 3.729 1.808 5.085 0l.339-.678c.226-.339.565-.452.904-.226.339.113.452.452.226.791a4.92 4.92 0 0 1-1.13 1.808c-.904.678-1.808 1.017-2.486 1.017zm15.029-12.43c1.921 0 3.39 1.469 3.39 3.39s-1.582 3.39-3.503 3.39-3.277-1.582-3.277-3.503 1.469-3.277 3.39-3.277zm-39.55 6.78c-1.921 0-3.39-1.469-3.39-3.39s1.356-3.39 3.277-3.39c2.034 0 3.503 1.469 3.503 3.39s-1.469 3.39-3.39 3.39z" fill="#151d38"></path></g><text font-size="20" font-weight="bold" fill="#7da159" transform="matrix(1.13 0 0 1.13 449.73 63.07)" class="sans-serif"><tspan x="153" y="199">Incoming</tspan> <tspan x="153" y="221">traffic</tspan></text><path d="M323.735 684.796V554.055h109.61v-155.94H595.5V256.3" stroke-dasharray="12" style="animation:1s linear infinite both a0_do" stroke-width="14.69" stroke="#f5a623"></path><path d="M869.525 684.796l-.565-286.681H595.5V256.3" stroke-dasharray="12" style="animation:1s linear infinite both a1_do" stroke-width="14.69" stroke="#f5a623"></path><path d="M576.855 684.796V554.055h-143.51v-155.94H595.5V256.3" stroke-dasharray="12" style="animation:1s linear infinite both a2_do" stroke-width="14.69" stroke="#f5a623"></path></g></svg>