<svg xmlns="http://www.w3.org/2000/svg" viewBox="0 0 1200 900"><style>@keyframes anime-stroke-1_do{0%{stroke-dashoffset:0px;animation-timing-function:cubic-bezier(0.42,0,0.58,1)}100%{stroke-dashoffset:74px}}.sans-serif{font-family:-apple-system,BlinkMacSystemFont,'avenir next', avenir,'helvetica neue',helvetica,ubuntu,roboto,noto,'segoe ui',arial,sans-serif}</style><g fill="none" fill-rule="evenodd" transform="translate(259,351)"><g fill-rule="nonzero" transform="translate(0,32)"><path d="M690 5v20H0V5a5 5 0 0 1 5-5h680a5 5 0 0 1 5 5z" fill="#353535"></path><path fill="#A3A3A3" d="M7 6h4v4H7zm6 0h4v4h-4zm6 0h4v4h-4z"></path></g><text font-size="20" font-weight="bold" fill="#4A4A4A" class="sans-serif"><tspan x="0" y="18">Ingress</tspan></text></g><g fill="none" fill-rule="evenodd" transform="translate(259,408)"><g fill-rule="nonzero" transform="translate(0,113)"><path d="M424 5v20H0V5a5 5 0 0 1 5-5h414a5 5 0 0 1 5 5z" fill="#D2D2D2"></path><path fill="#A3A3A3" d="M7 6h4v4H7zm6 0h4v4h-4zm6 0h4v4h-4z"></path></g><g fill-rule="nonzero" transform="translate(192,0)"><path fill="#9EEBCF" d="M7-1v114H4V-1z"></path><ellipse stroke="#9EEBCF" stroke-width="3" fill="#FFF" rx="6.5" ry="6.5" transform="translate(0,0) translate(5.5,-1.5)"></ellipse><path fill="#9EEBCF" d="M5.5 117L0 109h11z"></path></g><g transform="translate(0,138)"><g fill-rule="nonzero" transform="translate(95,0)"><path fill="#9EEBCF" d="M7-1v86H4V-1z"></path><ellipse stroke="#9EEBCF" stroke-width="3" fill="#FFF" rx="6.5" ry="6.5" transform="translate(0,0) translate(5.5,-1.5)"></ellipse><path fill="#9EEBCF" d="M5.5 89L0 81h11z"></path></g><g transform="translate(0,85)"><path d="M200 169.068c0 1.067-.626 1.932-1.399 1.932H1.399C.626 171 0 170.135 0 169.068V5a5 5 0 0 1 5-5h190a5 5 0 0 1 5 5v164.068z" fill="#FF003C"></path><path d="M5 0h190a5 5 0 0 1 5 5v18H0V5a5 5 0 0 1 5-5z" fill="#CCC"></path><path d="M17 12.5a4.5 4.5 0 1 1-9 0 4.5 4.5 0 0 1 9 0" fill="#E74C3C"></path><path d="M33 12.5a4.5 4.5 0 1 1-9 0 4.5 4.5 0 0 1 9 0" fill="#F1C40F"></path><path d="M48 12.5a4.5 4.5 0 1 1-9 0 4.5 4.5 0 0 1 9 0" fill="#2ECC71"></path></g><text font-size="20" font-weight="bold" fill="#4A4A4A" class="sans-serif"><tspan x="0" y="71">Pod 1</tspan></text></g><g transform="translate(224,138)"><g fill-rule="nonzero" transform="translate(95,0)"><path fill="#9EEBCF" d="M7-1v86H4V-1z"></path><ellipse stroke="#9EEBCF" stroke-width="3" fill="#FFF" rx="6.5" ry="6.5" transform="translate(0,0) translate(5.5,-1.5)"></ellipse><path fill="#9EEBCF" d="M5.5 89L0 81h11z"></path></g><g transform="translate(0,85)"><path d="M200 169.068c0 1.067-.626 1.932-1.399 1.932H1.399C.626 171 0 170.135 0 169.068V5a5 5 0 0 1 5-5h190a5 5 0 0 1 5 5v164.068z" fill="#FF003C"></path><path d="M5 0h190a5 5 0 0 1 5 5v18H0V5a5 5 0 0 1 5-5z" fill="#CCC"></path><path d="M17 12.5a4.5 4.5 0 1 1-9 0 4.5 4.5 0 0 1 9 0" fill="#E74C3C"></path><path d="M33 12.5a4.5 4.5 0 1 1-9 0 4.5 4.5 0 0 1 9 0" fill="#F1C40F"></path><path d="M48 12.5a4.5 4.5 0 1 1-9 0 4.5 4.5 0 0 1 9 0" fill="#2ECC71"></path></g><text font-size="20" font-weight="bold" fill="#4A4A4A" class="sans-serif"><tspan x="0" y="71">Pod 2</tspan></text></g></g><g fill="none" fill-rule="evenodd" transform="translate(742,408)"><g fill-rule="nonzero" transform="translate(0,113)"><path d="M200 5v20H0V5a5 5 0 0 1 5-5h190a5 5 0 0 1 5 5z" fill="#D2D2D2"></path><path fill="#A3A3A3" d="M7 6h4v4H7zm6 0h4v4h-4zm6 0h4v4h-4z"></path></g><g fill-rule="nonzero" transform="translate(95,0)"><path fill="#9EEBCF" d="M7-1v114H4V-1z"></path><ellipse stroke="#9EEBCF" stroke-width="3" fill="#FFF" rx="6.5" ry="6.5" transform="translate(0,0) translate(5.5,-1.5)"></ellipse><path fill="#9EEBCF" d="M5.5 117L0 109h11z"></path></g><g transform="translate(0,138)"><g fill-rule="nonzero" transform="translate(95,0)"><path fill="#9EEBCF" d="M7-1v86H4V-1z"></path><ellipse stroke="#9EEBCF" stroke-width="3" fill="#FFF" rx="6.5" ry="6.5" transform="translate(0,0) translate(5.5,-1.5)"></ellipse><path fill="#9EEBCF" d="M5.5 89L0 81h11z"></path></g><g transform="translate(0,85)"><path d="M200 169.068c0 1.067-.626 1.932-1.399 1.932H1.399C.626 171 0 170.135 0 169.068V5a5 5 0 0 1 5-5h190a5 5 0 0 1 5 5v164.068z" fill="#E3CEBC"></path><path d="M116.066 108.555l1.959-4.69a20.74 20.74 0 0 0 5.789-.95l3.369 3.815a1.926 1.926 0 0 0 2.454.366l2.126-1.32 2.126-1.318a1.927 1.927 0 0 0 .762-2.362l-1.925-4.713a19.624 19.624 0 0 0 3.474-4.893l5.027.314a1.926 1.926 0 0 0 2.001-1.488l.574-2.45.575-2.452a1.944 1.944 0 0 0-1.134-2.221l-4.73-1.992c-.046-1.991-.405-3.938-.977-5.773l3.823-3.298a1.925 1.925 0 0 0 .365-2.453l-1.32-2.127-1.32-2.125a1.927 1.927 0 0 0-2.36-.763l-4.74 1.942a20.607 20.607 0 0 0-4.777-3.377l.315-5.027a1.926 1.926 0 0 0-1.488-2.002l-2.451-.574-2.451-.574a1.944 1.944 0 0 0-2.222 1.134l-1.992 4.728c-1.991.047-3.938.406-5.773.978l-3.33-3.784a1.926 1.926 0 0 0-2.454-.365l-2.126 1.32-2.126 1.318a1.927 1.927 0 0 0-.762 2.36l1.942 4.74a20.746 20.746 0 0 0-3.324 4.65l-5.072-.324a1.926 1.926 0 0 0-2.002 1.487l-.574 2.45-.574 2.453a1.944 1.944 0 0 0 1.134 2.222l4.689 1.958a20.74 20.74 0 0 0 .95 5.79L93.7 92.532a1.926 1.926 0 0 0-.365 2.455l1.319 2.125 1.319 2.127a1.927 1.927 0 0 0 2.36.762l4.714-1.925a20.734 20.734 0 0 0 4.766 3.42l-.325 5.073a1.926 1.926 0 0 0 1.488 2.002l2.45.574 2.452.574a2.004 2.004 0 0 0 2.187-1.165zm3.948-36.233c5.934 1.39 9.619 7.326 8.23 13.26-1.39 5.934-7.325 9.619-13.26 8.23-5.933-1.39-9.618-7.325-8.23-13.26 1.39-5.934 7.325-9.619 13.26-8.23zm-26.61 60.848l.516-3.078a12.71 12.71 0 0 0 3.329-1.38l2.549 1.812a1.182 1.182 0 0 0 1.518-.125l1.087-1.087 1.087-1.087a1.181 1.181 0 0 0 .125-1.518l-1.811-2.55a12.065 12.065 0 0 0 1.393-3.412l3.05-.515a1.182 1.182 0 0 0 .99-1.17v-3.092c0-.571-.418-1.073-.99-1.17l-3.105-.53a12.934 12.934 0 0 0-1.393-3.314l1.825-2.507a1.182 1.182 0 0 0-.125-1.518l-1.087-1.087-1.087-1.087a1.181 1.181 0 0 0-1.518-.125l-2.563 1.825a12.641 12.641 0 0 0-3.33-1.351l-.514-3.051a1.183 1.183 0 0 0-1.17-.99h-3.092c-.571 0-1.073.419-1.17.99l-.53 3.106a12.934 12.934 0 0 0-3.314 1.393l-2.521-1.797a1.182 1.182 0 0 0-1.518.125l-1.087 1.087-1.087 1.087a1.181 1.181 0 0 0-.125 1.518l1.825 2.563a12.73 12.73 0 0 0-1.337 3.246l-3.08.515a1.183 1.183 0 0 0-.988 1.17v3.092c0 .57.418 1.073.989 1.17l3.079.515a12.712 12.712 0 0 0 1.379 3.329l-1.811 2.549a1.182 1.182 0 0 0 .125 1.518l1.087 1.087 1.087 1.087c.404.404 1.045.46 1.518.125l2.549-1.811a12.712 12.712 0 0 0 3.329 1.379l.515 3.079c.097.57.585.989 1.17.989h3.092a1.229 1.229 0 0 0 1.14-1.003zm-2.708-22.22a6.778 6.778 0 1 1-.001 13.555 6.778 6.778 0 0 1 0-13.555zm-15.727-8.066l.427-2.981a12.292 12.292 0 0 0 3.18-1.408l2.502 1.69a1.14 1.14 0 0 0 1.462-.156l1.024-1.073 1.024-1.073a1.14 1.14 0 0 0 .086-1.468l-1.806-2.418a11.616 11.616 0 0 0 1.266-3.325l2.932-.567a1.142 1.142 0 0 0 .928-1.152l-.035-1.492-.035-1.492a1.154 1.154 0 0 0-.981-1.107l-3.01-.44a12.499 12.499 0 0 0-1.42-3.167l1.704-2.461a1.14 1.14 0 0 0-.156-1.462l-1.073-1.024-1.073-1.025a1.14 1.14 0 0 0-1.468-.085l-2.432 1.819a12.224 12.224 0 0 0-3.243-1.228l-.567-2.932a1.143 1.143 0 0 0-1.152-.93l-1.492.037-1.492.035a1.154 1.154 0 0 0-1.107.98l-.44 3.01c-1.136.324-2.2.82-3.167 1.42l-2.474-1.675a1.14 1.14 0 0 0-1.462.156l-1.024 1.073-1.024 1.073a1.14 1.14 0 0 0-.086 1.468l1.819 2.432a12.3 12.3 0 0 0-1.216 3.162l-2.96.568A1.144 1.144 0 0 0 56 86.818l.036 1.492.035 1.492a1.154 1.154 0 0 0 .98 1.107l2.983.427a12.27 12.27 0 0 0 1.407 3.18l-1.69 2.502a1.14 1.14 0 0 0 .157 1.462l1.073 1.024 1.073 1.024a1.14 1.14 0 0 0 1.468.086l2.418-1.806a12.292 12.292 0 0 0 3.244 1.255l.568 2.959c.107.549.587.94 1.152.928l1.492-.035 1.492-.035a1.191 1.191 0 0 0 1.08-.995zm-3.122-21.38a6.543 6.543 0 1 1 .308 13.082 6.543 6.543 0 0 1-.308-13.081z" fill="#6C431E" fill-rule="nonzero"></path><path d="M5 0h190a5 5 0 0 1 5 5v18H0V5a5 5 0 0 1 5-5z" fill="#CCC"></path><path d="M17 12.5a4.5 4.5 0 1 1-9 0 4.5 4.5 0 0 1 9 0" fill="#E74C3C"></path><path d="M33 12.5a4.5 4.5 0 1 1-9 0 4.5 4.5 0 0 1 9 0" fill="#F1C40F"></path><path d="M48 12.5a4.5 4.5 0 1 1-9 0 4.5 4.5 0 0 1 9 0" fill="#2ECC71"></path></g><text font-size="20" font-weight="bold" fill="#4A4A4A" class="sans-serif"><tspan x="0" y="71">Pod 5</tspan></text></g><text font-size="20" font-weight="bold" fill="#4A4A4A" class="sans-serif"><tspan x="0" y="99">Backend service</tspan></text></g><g fill="none" fill-rule="evenodd" transform="translate(471,99)"><g fill="#B8E986" transform="translate(93,171)"><path d="M36 131L0 66h72z"></path><path d="M26 0h20v113H26z"></path></g><g fill-rule="nonzero"><path d="M0 171l.038-70.382a2.799 2.799 0 0 1 2.799-2.798l54.217-.001c1.119-.44.72-.72.56-1-3.48-5.758-5.758-11.957-6.638-18.675-1.959-15.396 2.4-28.793 12.874-40.27.6-.64 1.2-1.24 1.84-1.84.52-.52.52-.52.04-1-1.64-1.559-3.119-3.278-4.358-5.198-2.8-4.439-4.358-9.277-4.478-14.556-.04-1.32.24-1.48 1.439-.88 1.28.64 2.599 1.2 3.998 1.64.16-2.32-.12-4.24-.16-6.199 0-.72-.04-1.4 0-2.12 0-.999.36-1.239 1.24-.719 1.399.8 2.798 1.52 4.278 2.12.88.36.88.36.8-.6-.24-2.52-.28-5.039 0-7.558.24-.96.679-1.12.999-.84.24.2.4.48.6.72 3.078 3.839 6.517 7.278 10.635 10.037 3.598 2.4 7.476 3.72 11.794 3.76 3.239.04 6.357-.64 9.356-1.8 2.799-1.08 5.597-2.2 8.516-2.84 2.958-.64 5.957-.92 8.916-.2 5.037 1.24 8.436 4.48 10.555 9.118.799 1.76 1.239 3.6 1.519 5.519.12.72.12.72.88.68 4.398-.32 8.636.36 12.474 2.639 4.598 2.759 7.157 6.918 8.156 12.077.72 3.799.52 7.558-.08 11.357-.48 2.959-1.279 5.878-2.239 8.717-.24.72-.4.68.48 1 4.478 1.52 7.277 4.6 8.076 9.238 1.12 6.358-2.958 11.997-8.876 13.396-1.079.24-2.199.4-3.318.28-.48-.08-.64.16-.76.6-.839 3.04-1.999 5.999-3.398 8.838-2.879 5.718-6.717 10.637-11.515 14.836-1.079.76-1.159 1.2-.919 1.8.559 1.559 1.039 3.159 1.559 4.718 3.238 10.078 6.517 20.115 9.715 30.193.24.72.56.999 1.28 1.119 3.158.68 5.157 2.64 5.997 5.759.16.68.28 1.4.4 2.079.759-.439 1.079-.879 1.559-1.279 1.359-1.12 2.879-1.36 4.518-.8 1.679.6 2.679 1.839 2.919 3.599.08.6.24.76.839.84 2.799.44 4.438 3.199 3.519 5.918-.24.68-.16 1.16.319 1.72 1.24 1.479 1.96 3.199 2.199 5.119.12.839 0 .839.92.839h16.512c0-1.679-.519-2.999-.799-4.439-1.879.12-3.159.44-4.398.84-.72.24-1.08.08-1.2-.32-.12-.36.16-.64.84-.839 1.159-.36 2.319-.68 3.478-1.04 1.16-.36.96-.08.96-1.36.04-.6-.2-.68-.52-.68h-5.757c-1.04-.04-1.2-.24-1.2-.56.76-.599.96-.559 1.2-.559h5.677c.52 0 .72-.16.8-.68.2-1.36.24-1.36-1.12-1.76-1.119-.36-2.279-.68-3.398-.999-.88-.36-1-.6-.92-.88.88-.4 1.12-.32 1.4-.24 1.359.4 2.678.8 4.038 1.239 1.839-2.839 3.398-4.838 5.517-6.358.4-.28.48-.6.48-1.04v-12.356c.08-.56.48-.76.96-.48 3.958 3.679 7.436 6.918 10.875 10.117.919.88.639.88 1.679.12a21.56 21.56 0 0 1 24.988 0c.96.68.68.84 1.719-.12l10.516-9.677c.319-.28.599-.76 1.119-.56.56.2.36.76.36 1.159v17.956c0 1.159 0 1.159 1.079.84.96-.28 1.879-.56 2.839-.84 1.359.56 1.279.84.92.96l-2.279.719-2.039.6c-.56.92-.56 1.52-.52 2.08 2.879.24 4.638.24 6.397.24.999.12 1.199.32 1.159.599-.719.56-.999.56-1.239.56h-5.557c-.8 0-.84 0-.84.76 0 1.24-.08.96.959 1.28 1.08.36 2.199.64 3.319 1 .919.399 1.039.639.919.959-2.358-.12-3.438-.48-4.557-.8-.64 1.64-.64 2.8-.64 3.999 0 .44.12.68.6.64h17.272c.439 0 .879-.04 1.319.2v.76c-1 .24-1.279.24-1.599.24H0z" fill="#151D38"></path><path d="M46.38 164v-.08h44.573c1.046 0 1.046 0 1.046-1.035v-62.036c-.04-1.075-.643-1.712-1.728-1.831-.362-.04-.724 0-1.045 0H3.09c-1.487.04-2.09.677-2.09 2.11v61.916c0 .916 0 .916.965.916h.683c14.55.04 29.14.04 43.731.04z" fill="#CCD6DA"></path><path d="M75.226 97.81h14.533c1.513 0 2.668.883 2.947 2.247.08.361.08.682.08 1.043v16.567c0 .923.08.883.796.963 5.853.722 11.627.401 17.321-1.083 12.981-3.41 22.816-11.032 29.546-22.665 1.911-3.29 3.344-6.82 4.38-10.51.199-.722.199-.722-.478-.923l-1.075-.36c-.677-.281-.876-.522-.757-.923.12-.441.478-.482 1.195-.24 1.911.721 3.822.882 5.813.52 5.894-1.163 9.676-7.18 8.123-12.997-1.592-5.936-7.724-9.306-13.458-7.38-.279.08-.518.24-.797.28-.278.04-.478-.12-.597-.36-.119-.282-.04-.522.159-.683.16-.12.319-.2.518-.24.438-.161.836-.281 1.274-.402.08-.04.199-.08.239-.16.08-.2-.119-.16-.239-.2-.159-.08-.358-.121-.557-.201-2.987-1.043-5.854-2.367-8.482-4.132-4.778-3.129-8.481-7.22-10.87-12.476-1.115-2.487-1.872-5.094-2.31-7.822-.119-.802-.159-.802-.836-.441a5.99 5.99 0 0 0-.677.4c-3.544 2.087-7.167 3.852-10.99 5.296-8.242 3.089-16.684 4.332-25.404 2.768-6.053-1.083-11.707-3.25-16.644-7.06-.638-.482-.638-.482-1.155.04-4.46 4.292-8.004 9.226-10.552 14.842-3.942 8.785-5.137 17.931-3.663 27.439.995 6.458 3.304 12.435 6.729 17.97.398.683.836.964 1.672.964 4.699-.12 9.437-.08 14.216-.08z" fill="#FAE0D6"></path><path d="M93.046 142.011v21.716c0 .482.12.683.64.683 1.08-.04 2.16 0 3.279 0 4.039 0 8.078-.04 12.077-.04.84 0 .92.121.92.965v3.941c0 .644-.08.724.639.724h15.436c.52 0 .64-.201.68-.643.16-1.448.6-2.856 1.36-4.102.28-.443.32-.845.12-1.368-.84-2.493-1.64-5.026-2.439-7.52-1.96-6.112-3.959-12.225-5.919-18.337a3.974 3.974 0 0 1-.2-.644c-.08-.362.08-.643.44-.723.32-.081.56.08.68.361l.12.362 4.199 13.03c1.319 4.102 2.639 8.203 3.999 12.265.24.684.24.724.76.241 1.439-1.407 3.119-2.332 5.078-2.774.6-.161.64-.161.48-.765-.32-1.327-.68-2.694-.96-4.021-.919-4.021 1.52-8.163 5.479-9.209.24-.08.52-.08.76-.161.28-.04.4-.201.28-.482-.04-.161-.08-.322-.16-.443-3.119-9.732-6.279-19.504-9.398-29.235-.56-1.81-1.16-3.62-1.759-5.429-.12-.403-.32-.563-.64-.201-.12.12-.24.201-.4.281-2.639 1.971-5.479 3.7-8.478 5.067-5.839 2.694-11.997 4.223-18.435 4.464-2.72.121-5.439.08-8.118-.322-.44-.08-.6.081-.56.483v.764c.04 7.037.04 14.075.04 21.072z" fill="#FFF3A2"></path><path d="M220.629 169.919h17.513c.838 0 .838 0 .838-.849v-29.592c0-.162.08-.364-.08-.445-.239-.121-.319.121-.478.243-2.155 2.021-4.309 4.002-6.503 6.023-1.317 1.213-2.633 2.466-3.95 3.679-.558.526-.638.485-1.236.081-.2-.121-.359-.283-.519-.404-3.152-2.386-6.662-3.8-10.572-4.083-5.226-.405-9.974 1.051-14.162 4.285-.918.727-.918.727-1.756-.041-.04-.04-.08-.081-.159-.121-3.152-2.992-6.344-5.983-9.535-8.975-.239-.242-.479-.687-.798-.566-.239.122-.12.566-.12.89v10.47c0 .485-.04.89-.558 1.213-5.745 3.921-7.101 11.562-3.75 17.464.319.566.678.809 1.356.809 4.229-.04 8.498 0 12.726-.04.28 0 .679.121.798-.122.12-.242-.279-.444-.478-.647-2.075-2.263-2.713-4.891-1.836-7.802.878-2.911 2.913-4.649 5.785-5.336.599-.162 1.197-.243 1.795-.162.32.04.519.243.519.606 0 .283-.16.486-.479.526-.359.04-.678.081-1.037.121-2.753.364-5.106 2.466-5.665 5.175a6.704 6.704 0 0 0 2.992 7.115 3.715 3.715 0 0 0 1.995.566c5.904-.121 11.649-.081 17.354-.081z" fill="#C27659"></path><path d="M46.453 165.042c-8.157.036-16.314.036-24.472.036H1.568c-.402 0-.603.142-.563.499v2.139c0 1.284 0 1.284 1.447 1.284 11.452 0 22.945 0 34.397-.036 17.882 0 35.724-.035 53.606-.035h.764c.562-.036.763-.214.763-.713.04-.928 0-1.819 0-2.746 0-.392-.2-.499-.603-.464h-.683c-4.26 0-8.479.036-12.738.036H46.453zm99.508 4.917h17.559c.355.041.514-.081.474-.487-.198-1.707-.791-3.252-1.819-4.634-.158-.243-.316-.203-.395.082-.04.122-.08.244-.159.365-1.305 2.805-4.547 3.577-6.92 1.626-.435-.366-.712-.447-1.226-.203-1.463.61-2.847.406-4.152-.488-1.385-.975-2.017-2.357-1.899-4.105.04-.609 0-.65-.514-.487-1.226.325-2.372.203-3.48-.447-.277-.163-.514-.163-.83-.163-1.819 0-3.678-.041-5.497 0-4.192.081-7.791 3.048-8.858 7.234a7.974 7.974 0 0 0-.238 1.342c-.039.284.08.406.356.406h.752c5.655-.041 11.27-.041 16.846-.041z" fill="#CCD6DA"></path><path d="M139.007 159.287h2.188c.289 0 .454-.077.33-.386-.826-2.127-.949-4.408-1.445-6.612-.124-.502.083-.812.454-.889.372-.077.62.155.743.657.124.503.207 1.044.289 1.547.248 1.314.454 2.629.743 3.905.413 1.74 2.106 2.745 3.964 2.435 1.816-.348 2.972-1.894 2.683-3.634-.248-1.508-.496-2.977-.867-4.446-.784-3.286-4.293-5.374-7.802-4.756-3.344.58-5.78 3.867-5.202 7.076.289 1.546.784 3.054 1.156 4.601.083.348.289.502.702.502h2.064zm9.993 3.36c.082 1.124.449 2.007 1.348 2.648 1.88 1.365 4.413.683 5.231-1.484.776-2.127 1.511-4.293 2.247-6.46.082-.241.122-.482.163-.763.123-1.564-.817-2.969-2.37-3.45-1.511-.442-3.187.2-3.922 1.605-.491.963-.899 2.006-1.063 3.089a6.383 6.383 0 0 1-.776 2.247c-.49.843-.776 1.726-.858 2.568z" fill="#FAE0D6"></path><path d="M100.838 169v-.036h7.472c.406-.036.69-.18.69-.577v-3.027c0-.252-.162-.36-.447-.36h-9.908c-1.665 0-3.33.036-4.955.036-.487 0-.69.144-.69.577.04.901 0 1.801 0 2.666 0 .685 0 .721.812.721h7.026z" fill="#CCD6DA"></path><path d="M162 161.398c0-1.79-1.151-3.074-2.899-3.347-.768-.116-.853-.077-1.109.584-.469 1.245-.895 2.49-1.364 3.697-.426 1.089-.639 2.295-1.492 3.229-.299.312-.043.506.17.701 1.791 1.362 4.52.778 5.458-1.245.426-.934.767-1.907 1.108-2.88.128-.311.128-.623.128-.739z" fill="#FAE0D6"></path><path d="M57.982 132.205c-.317 4.863-3.328 8.491-7.766 9.528-5.707 1.355-11.334-2.592-12.126-8.452-.674-4.943 2.496-9.967 7.648-11.163 1.11-.239 1.189-.199 1.347.917.674 3.788 3.21 6.578 6.895 7.415.872.2 1.744.24 2.655.16 1.189-.12 1.308 0 1.347 1.196.04.199 0 .399 0 .399z" fill="#151D38"></path><path d="M48.175 141c.607-.041 1.415-.123 2.223-.328 3.597-.983 6.427-4.424 6.588-8.111.04-.82.04-.82-.727-.82-4.81.082-9.013-3.195-10.104-7.947-.243-1.065-.364-.819-1.01-.614-4.164 1.392-6.75 5.735-6.023 10.2.687 4.342 4.527 7.661 9.053 7.62z" fill="#FFF"></path><path d="M91.814 61.365h13.172c2.018 0 4.035.08 6.053.121.949.04 1.186.365.751 1.175-2.967 5.632-7.318 9.562-13.529 10.9-6.25 1.336-11.748-.406-16.455-4.822-1.86-1.743-3.284-3.85-4.43-6.159-.12-.243-.238-.445-.317-.689-.159-.486 0-.729.514-.85.198-.041.396-.041.554-.041l11.67.122c.672 0 1.305.08 1.977.08.04.082.04.122.04.163z" fill="#151D38"></path><path d="M95.073 62.154h-3.574c-1.486 0-2.932 0-4.417-.077-2.53-.077-5.06-.077-7.59-.077-.563 0-.603.039-.322.502a18.183 18.183 0 0 0 3.855 4.824c4.418 3.86 9.558 5.442 15.421 4.322 5.381-1.042 9.317-4.052 12.208-8.452.522-.81.522-.849-.482-.849a1999.24 1999.24 0 0 0-15.1-.193z" fill="#FFF"></path><path d="M57 67.5c0-3.27 2.452-6.46 6.539-6.5 3.58-.038 6.461 2.92 6.461 6.5 0 3.62-2.88 6.5-6.5 6.5-3.58-.039-6.5-2.92-6.5-6.5zm76.99 1.02c.156 3.123-2.535 6.441-6.475 6.48-3.589 0-6.476-2.889-6.515-6.48 0-3.67 2.848-6.519 6.515-6.519 3.862-.078 6.67 3.24 6.475 6.52z" fill="#E5384A"></path><path d="M72.478 53c1.975 0 3.564 1.546 3.521 3.522C76 58.454 74.453 60 72.564 60 70.589 60 69 58.454 69 56.478c0-1.889 1.546-3.435 3.478-3.478zm45.044 1c1.975 0 3.478 1.547 3.478 3.564-.043 1.932-1.589 3.478-3.521 3.435-1.889 0-3.478-1.588-3.478-3.477A3.43 3.43 0 0 1 117.522 54zm36.477 18.06c-.04 4.067-4.208 6.933-8.176 5.616a1.405 1.405 0 0 1-.361-.155c-.401-.155-.561-.426-.401-.813.121-.349.481-.387.802-.31.2.039.441.155.641.194 2.766.736 5.652-.969 6.213-3.641.561-2.75-1.363-5.346-4.209-5.733-.24-.039-.521-.078-.761-.116-.281-.039-.441-.271-.441-.543 0-.348.2-.503.521-.542.2-.038.441 0 .681 0 3.167.349 5.532 2.944 5.491 6.043zM94.998 52.685c0 .284-.223.447-.483.568a68.82 68.82 0 0 1-2.378 1.3c-.334.162-.408.324-.074.568.669.487 1.3 1.014 1.969 1.502.186.121.334.243.483.405.186.203.186.488.037.731-.149.244-.371.284-.632.203a.76.76 0 0 1-.37-.244c-1.004-.77-2.044-1.542-3.047-2.354-.706-.568-.669-.974.111-1.42 1.115-.65 2.266-1.259 3.418-1.868.557-.203 1.003 0 .966.609zM64 54.924c.114-2.898 2.01-5.3 4.703-5.837.304-.083.607-.125.91-.042.228.041.38.248.38.497.038.29-.076.538-.341.62a5.45 5.45 0 0 1-.797.166c-2.048.456-3.414 2.112-3.641 4.347-.038.249-.038.456-.038.704-.038.373-.19.621-.57.621-.378 0-.53-.29-.568-.662-.038-.125-.038-.249-.038-.414zm61-.021c0 .162 0 .447-.039.69-.078.285-.274.407-.548.407s-.469-.163-.509-.447c-.039-.203 0-.406-.039-.57-.117-2.397-1.643-4.226-3.913-4.673-.117-.04-.234-.04-.352-.081-.391-.082-.665-.285-.587-.732.079-.447.431-.528.783-.488a5.854 5.854 0 0 1 3.443 1.626c1.096 1.179 1.683 2.56 1.761 4.268zm88.66 112.088c-1.5-.043-2.514-.472-3.285-1.503-.324-.387-.446-.387-.77 0-1.42 1.675-3.488 1.976-5.151.816-.567-.387-1.014-.945-1.338-1.59-.162-.343-.203-.773.203-.988.405-.214.649 0 .851.387.122.258.284.515.487.773 1.338 1.504 3.691 1.031 4.421-.859.162-.429.202-.687-.325-.816-.73-.215-1.176-.816-1.663-1.375a1.494 1.494 0 0 1-.365-.816c-.121-.601.082-.988.69-.988 1.703-.043 3.447-.043 5.15 0 .568 0 .771.387.609.988-.244.988-.974 1.504-1.704 2.019-.243.172-.649.129-.73.43-.081.386.163.773.406 1.117 1.095 1.589 3.285 1.589 4.42 0 .122-.172.244-.43.365-.602.203-.301.487-.343.771-.215.284.172.365.473.243.774a4.071 4.071 0 0 1-1.095 1.546c-.73.601-1.541.945-2.19.902zm13.341-10.99c1.714 0 2.999 1.328 2.999 2.999 0 1.714-1.371 3.042-3.085 2.999-1.671-.043-2.957-1.371-2.914-3.085-.043-1.671 1.286-2.956 3-2.913zM191.979 162c-1.66 0-2.979-1.277-2.979-2.979 0-1.702 1.234-2.978 2.936-3.021 1.745 0 3.064 1.277 3.064 2.979-.043 1.702-1.319 3.021-3.021 3.021z" fill="#151D38"></path></g><text font-size="20" font-weight="bold" fill="#7DA159" class="sans-serif"><tspan x="153" y="199">Incoming</tspan> <tspan x="153" y="221">traffic</tspan></text></g><rect fill-opacity="0.23" fill="#F5A623" width="815" height="328" rx="5" fill-rule="evenodd" transform="translate(0,0) translate(192,507)"></rect><text font-size="39" font-weight="bold" fill-rule="evenodd" class="sans-serif"><tspan x="66" y="473">Service mesh</tspan></text><path id="anime-stroke-1" d="M842 631l.5-157.5H713l.147 361.5H359.5l-.5-33" stroke="#FF9500" stroke-width="10" stroke-dasharray="9" fill="none" fill-rule="evenodd" stroke-dashoffset="0" style="animation:1s linear infinite both anime-stroke-1_do"></path></svg>