<svg viewBox="0 0 1200 800" xmlns="http://www.w3.org/2000/svg" xmlns:xlink="http://www.w3.org/1999/xlink"><defs><path d="M440.921 11.71c-25.34 8.025-49.743 23.872-76.105 28.521-28.655 5.054-52.065-5.981-79.188-12.264C184.785 4.608 97.392 68.354 48.489 153.159c-81.95 142.118-61.749 379.223 83.035 474.718 118.431 78.113 233.364 37.93 361.545 12.214 117.019-23.478 244.019-1.432 357.458-36.678C955.88 570.679 1030.12 469.368 1013.5 356.928c-13.94-94.297-93.433-174.485-188.629-184.722-51.429-5.531-101.532-3.756-146.652-34.166-42.559-28.683-52.8-85.92-95.224-115.087C560.018 7.157 533.371.897 506.35.897" id="path-1"></path></defs><g transform="translate(62.000000, 42.000000)" fill="none" fill-rule="evenodd"><path d="M988.247 91.671l-17.979 15.559s-73.521-28.811-95.852 10.062c-15.253 26.551-26.169-75.6-24.836-74.308 1.333 1.292 85 5.959 138.667 38.219 1.333 15.74 0 10.468 0 10.468" fill="#D3EAF2"></path><path d="M211.86 381.897s3.336 5.299.981 8.831c-2.355 3.532-8.49 7.249-16.046 10.323-6.155-2.038-1.616-15.132-1.616-15.132l16.681-4.022zm-46.983-72.927l12.837-2.061.813 7.2s6.474 14.838 16.649 23.863c10.176 9.026 0 15.8 0 15.8l-15.897-4.783-13.658-32.896-.744-7.123z" fill="#FDBDB4"></path><g transform="translate(60.000000, 42.088000)"><mask id="mask-2" fill="#fff"><use xlink:href="#path-1"></use></mask><path d="M1182.54 319.689c-12.03-81.342-242.541-116.08-320.999-140.685-34.687-10.878-71.408-12.999-107.264-18.986C650.255 142.648 608.238-9.063 508.079-42.088c-100.158-33.025-444.515-83.423-545.014 0-119.097 98.86-213.841 472.183-202.668 596.641 24.019 267.53 506.08 209.573 577.07 201.124 58.817-7.001 187.999 100.85 237.763 91.673 73.088-13.477 159.842 68.075 234.156 69.01 74.313.929 266.704-197.33 328.144-239.138 67.99-46.255 57.03-276.191 45.01-357.533" fill="#00478E" mask="url(#mask-2)"></path><path d="M801.723 158.76c-26.016-3.609-51.079-10.397-76.762-14.775-18.583-3.168-27.63-11.422-47.218-11.422-23.831 0-52.147-10.999-70.385-22.838-36.373-23.612-51.746-54.586-99.026-61.897-41.906-6.479-74.853 11.752-109.999 30.872-35.102 19.097-66.262 13.221-104.508 14.265-45.029 1.23-75.418 25.032-103.199 58.702-29.823 36.145-56.003 65.567-98.034 87.611-41.602 21.818-70.016 51.541-85.46 96.433-8.987 26.127-13.945 54.245-14.873 81.841-.954 28.379 7.818 51.929 17.664 78.109 3.05 8.105 6.245 16.106 9.67 23.979L836.07 163.966c-11.404-2.012-22.889-3.617-34.347-5.206" fill="#1753AA" mask="url(#mask-2)"></path><path d="M42.206 795.404s-1.208-236.479 136.018-288.159c95.156-35.836 255.515-7.844 321.673-79.623 63.146-68.511 107.056-87.813 177.846-87.813 98.667 0 154.925 31.92 211.004-.114 52.883-30.212 79.063-119.563 15.745-158.911-63.318-39.348-210.064 15.03-210.064 15.03l-313.856 89.775-123.928 65.947-165.14 58.695-98.45 41.69s-125.846 284.986 49.152 343.483" fill="#1753AA" mask="url(#mask-2)"></path><path d="M494.263 470.447c103.98-46.154 212.03 16.462 319.005 5.032 85.628-9.149 166.752-58.273 214.462-129.733 7.79-11.669 14.62-23.833 20.78-36.447 6.36-13.023 3.89-14.36 16.28-10.716l55.87 16.429c2.71.796 14.08 2.225 15.77 4.635 1.9 2.703-4.07 16.873-5.02 19.895-3.38 10.78-7.64 21.285-12.55 31.453-14.54 30.062-35.48 57.028-60.17 79.441-63.71 57.842-154.749 91.68-240.168 91.938-37.955.113-75.254-6.85-111.601-17.467-43.204-12.62-85.436-29.81-130.327-35.699-12.339-1.619-24.79-2.411-37.234-1.889-10.655.447-20.912 3.526-31.399 4.232-7.768.524-5.915-.713-8.926-8.602l-4.772-12.502" fill="#0C3877" mask="url(#mask-2)"></path><path d="M961.1 367.498c-36.449 29.185-83.95 41.543-130.532 46-47.721 4.567-95.881 1.722-143.679 5.389-47.798 3.667-96.693 14.585-135.151 43.205.513-.382-.158-13.074 1.102-15.775 2.579-5.524 10.298-11.606 14.584-15.952 11.095-11.245 23.565-21.127 36.998-29.434 26.864-16.614 57.67-26.961 89.204-29.287 33.02-2.433 66.389 3.472 99.227-.758 37.649-4.851 73.375-23.449 98.944-51.506 25.57-28.057 40.778-65.351 42.121-103.287.365-10.272 80.162 18.919 87.002 29.035 11.62 17.199-2.55 42.768-10.33 58.779-11.33 23.322-26.88 44.736-46.84 61.421-.87.733-1.76 1.457-2.65 2.17" fill="#1753AA" mask="url(#mask-2)"></path><path d="M111.651 668.555s146.518-160.47 163.146-163.874c16.628-3.404 402.946-24.492 402.946-24.492s204.703 45.114 268.647 0c63.95-45.114 92.17-40 92.17-40v206.397L759.318 768.19l-368.687 8-278.98-107.634z" fill="#0C3877" mask="url(#mask-2)"></path><path d="M359.43 508.381c-22.073-.075-44.981 4.43-66.229 10.126-15.288 4.099-26.977 8.967-38.909 19.215-17.125 14.711-30.802 32.802-45.746 49.595-13.354 15.005-27.762 29.06-43.348 41.745C97.945 683.793.89 714.71-82.688 680.27c-9.4-3.873-18.504-8.557-26.992-14.159-6.403-4.225-6.257-2.657-4.19-7.852 3.85-9.678 11.434-19.06 16.79-27.99l8.034-13.392c1.266-2.109 3.63-8.434 5.783-9.639 3.422-1.916 11.93 3.376 16.31 4.996a243.908 243.908 0 0 0 32.288 9.454c80.741 17.704 156.86-15.115 217.039-68.035 24.033-21.134 48.442-45.375 79.517-55.446 23.294-7.551 49.262-9.213 73.585-9.354 6.154-.036 12.331.057 18.469.549 4.925.393 5.663-.552 6.764 3.195 1.208 4.107-.928 11.458-1.279 15.785" fill="#00478E" mask="url(#mask-2)"></path><path fill="#D3EAF2" mask="url(#mask-2)" d="M630.82 448.496l23.959-15.063-38.332-35.351H511.741l16.574 33.611z"></path><path d="M654.779 433.433v279.043s-65.837 9.402-68.097 9.402c-2.258 0-58.367-20.044-58.367-20.044V431.693l126.464 1.74z" fill="#62A7BF" mask="url(#mask-2)"></path><path fill="#D3EAF2" mask="url(#mask-2)" d="M289.773 448.496l-23.96-15.063 38.333-35.351h104.706l-16.575 33.611z"></path><path d="M265.813 433.433v279.043s65.838 9.402 68.097 9.402c2.259 0 58.367-20.044 58.367-20.044V431.693l-126.464 1.74z" fill="#62A7BF" mask="url(#mask-2)"></path><path fill="#81C3D3" mask="url(#mask-2)" d="M265.813 464.256h144.701v-4.766H265.813zm0 44.81h144.701V504.3H265.813zm0 44.811h144.701v-4.766H265.813zm0 44.81h144.701v-4.766H265.813zm0 44.811h144.701v-4.766H265.813zm14.093-144.531a3.403 3.403 0 0 1-3.404-3.404v-21.797a3.403 3.403 0 1 1 6.808 0v21.797a3.404 3.404 0 0 1-3.404 3.404"></path><path d="M293.13 498.967a3.404 3.404 0 0 1-3.404-3.404v-21.797a3.404 3.404 0 1 1 6.808 0v21.797a3.404 3.404 0 0 1-3.404 3.404" fill="#1B61DD" mask="url(#mask-2)"></path><path d="M306.353 498.967a3.404 3.404 0 0 1-3.404-3.404v-21.797a3.404 3.404 0 1 1 6.808 0v21.797a3.404 3.404 0 0 1-3.404 3.404" fill="#81C3D3" mask="url(#mask-2)"></path><path d="M319.577 498.967a3.404 3.404 0 0 1-3.404-3.404v-21.797a3.404 3.404 0 1 1 6.808 0v21.797a3.403 3.403 0 0 1-3.404 3.404" fill="#1B61DD" mask="url(#mask-2)"></path><path d="M332.801 498.967a3.404 3.404 0 0 1-3.404-3.404v-21.797a3.404 3.404 0 1 1 6.808 0v21.797a3.403 3.403 0 0 1-3.404 3.404" fill="#81C3D3" mask="url(#mask-2)"></path><path d="M346.025 498.967a3.403 3.403 0 0 1-3.404-3.404v-21.797a3.403 3.403 0 1 1 6.808 0v21.797a3.404 3.404 0 0 1-3.404 3.404" fill="#D3EAF2" mask="url(#mask-2)"></path><path d="M359.249 498.967a3.404 3.404 0 0 1-3.404-3.404v-21.797a3.404 3.404 0 1 1 6.808 0v21.797a3.404 3.404 0 0 1-3.404 3.404m-79.343 44.737a3.403 3.403 0 0 1-3.404-3.404v-21.796a3.403 3.403 0 1 1 6.808 0V540.3a3.403 3.403 0 0 1-3.404 3.404m13.224 0a3.403 3.403 0 0 1-3.404-3.404v-21.796a3.404 3.404 0 1 1 6.808 0V540.3a3.403 3.403 0 0 1-3.404 3.404m13.223 0a3.403 3.403 0 0 1-3.404-3.404v-21.796a3.404 3.404 0 1 1 6.808 0V540.3a3.403 3.403 0 0 1-3.404 3.404m13.224 0a3.403 3.403 0 0 1-3.404-3.404v-21.796a3.404 3.404 0 1 1 6.808 0V540.3a3.403 3.403 0 0 1-3.404 3.404m13.224 0a3.403 3.403 0 0 1-3.404-3.404v-21.796a3.404 3.404 0 1 1 6.808 0V540.3a3.403 3.403 0 0 1-3.404 3.404" fill="#81C3D3" mask="url(#mask-2)"></path><path d="M346.025 543.704a3.403 3.403 0 0 1-3.404-3.404v-21.796a3.403 3.403 0 1 1 6.808 0V540.3a3.403 3.403 0 0 1-3.404 3.404" fill="#D3EAF2" mask="url(#mask-2)"></path><path d="M359.249 543.704a3.403 3.403 0 0 1-3.404-3.404v-21.796a3.404 3.404 0 1 1 6.808 0V540.3a3.403 3.403 0 0 1-3.404 3.404m-79.343 44.736a3.403 3.403 0 0 1-3.404-3.403V563.24a3.403 3.403 0 1 1 6.808 0v21.796a3.404 3.404 0 0 1-3.404 3.404" fill="#81C3D3" mask="url(#mask-2)"></path><path d="M293.13 588.44a3.404 3.404 0 0 1-3.404-3.403V563.24a3.404 3.404 0 1 1 6.808 0v21.796a3.404 3.404 0 0 1-3.404 3.404" fill="#D3EAF2" mask="url(#mask-2)"></path><path d="M306.353 588.44a3.404 3.404 0 0 1-3.404-3.403V563.24a3.404 3.404 0 1 1 6.808 0v21.796a3.404 3.404 0 0 1-3.404 3.404" fill="#81C3D3" mask="url(#mask-2)"></path><path d="M319.577 588.44a3.404 3.404 0 0 1-3.404-3.403V563.24a3.404 3.404 0 1 1 6.808 0v21.796a3.403 3.403 0 0 1-3.404 3.404" fill="#D3EAF2" mask="url(#mask-2)"></path><path d="M332.801 588.44a3.404 3.404 0 0 1-3.404-3.403V563.24a3.404 3.404 0 1 1 6.808 0v21.796a3.403 3.403 0 0 1-3.404 3.404m13.224 0a3.403 3.403 0 0 1-3.404-3.403V563.24a3.403 3.403 0 1 1 6.808 0v21.796a3.404 3.404 0 0 1-3.404 3.404m13.224 0a3.404 3.404 0 0 1-3.404-3.403V563.24a3.404 3.404 0 1 1 6.808 0v21.796a3.404 3.404 0 0 1-3.404 3.404m-79.343 44.738a3.403 3.403 0 0 1-3.404-3.404v-21.797a3.403 3.403 0 1 1 6.808 0v21.797a3.404 3.404 0 0 1-3.404 3.404m13.224 0a3.404 3.404 0 0 1-3.404-3.404v-21.797a3.404 3.404 0 1 1 6.808 0v21.797a3.404 3.404 0 0 1-3.404 3.404m13.223 0a3.404 3.404 0 0 1-3.404-3.404v-21.797a3.404 3.404 0 1 1 6.808 0v21.797a3.404 3.404 0 0 1-3.404 3.404" fill="#81C3D3" mask="url(#mask-2)"></path><path d="M319.577 633.178a3.404 3.404 0 0 1-3.404-3.404v-21.797a3.404 3.404 0 1 1 6.808 0v21.797a3.403 3.403 0 0 1-3.404 3.404" fill="#D3EAF2" mask="url(#mask-2)"></path><path d="M332.801 633.178a3.404 3.404 0 0 1-3.404-3.404v-21.797a3.404 3.404 0 1 1 6.808 0v21.797a3.403 3.403 0 0 1-3.404 3.404m13.224 0a3.403 3.403 0 0 1-3.404-3.404v-21.797a3.403 3.403 0 1 1 6.808 0v21.797a3.404 3.404 0 0 1-3.404 3.404" fill="#81C3D3" mask="url(#mask-2)"></path><path d="M359.249 633.178a3.404 3.404 0 0 1-3.404-3.404v-21.797a3.404 3.404 0 1 1 6.808 0v21.797a3.404 3.404 0 0 1-3.404 3.404" fill="#D3EAF2" mask="url(#mask-2)"></path><path d="M279.906 677.915a3.403 3.403 0 0 1-3.404-3.404v-21.796a3.403 3.403 0 1 1 6.808 0v21.796a3.403 3.403 0 0 1-3.404 3.404m13.224 0a3.403 3.403 0 0 1-3.404-3.404v-21.796a3.404 3.404 0 1 1 6.808 0v21.796a3.403 3.403 0 0 1-3.404 3.404m13.223 0a3.403 3.403 0 0 1-3.404-3.404v-21.796a3.404 3.404 0 1 1 6.808 0v21.796a3.403 3.403 0 0 1-3.404 3.404m13.224 0a3.403 3.403 0 0 1-3.404-3.404v-21.796a3.404 3.404 0 1 1 6.808 0v21.796a3.403 3.403 0 0 1-3.404 3.404m13.224 0a3.403 3.403 0 0 1-3.404-3.404v-21.796a3.404 3.404 0 1 1 6.808 0v21.796a3.403 3.403 0 0 1-3.404 3.404m13.224 0a3.403 3.403 0 0 1-3.404-3.404v-21.796a3.403 3.403 0 1 1 6.808 0v21.796a3.403 3.403 0 0 1-3.404 3.404m13.224 0a3.403 3.403 0 0 1-3.404-3.404v-21.796a3.404 3.404 0 1 1 6.808 0v21.796a3.403 3.403 0 0 1-3.404 3.404m11.596-193.25a6.111 6.111 0 1 1 12.222 0 6.111 6.111 0 0 1-12.222 0m19.042 0a6.112 6.112 0 1 1 12.22.002 6.112 6.112 0 0 1-12.22-.002m-19.042 44.737a6.111 6.111 0 1 1 12.222 0 6.111 6.111 0 0 1-12.222 0m19.042 0a6.112 6.112 0 1 1 12.22.002 6.112 6.112 0 0 1-12.22-.002m-19.042 44.736a6.11 6.11 0 0 1 6.111-6.11 6.11 6.11 0 1 1 0 12.221 6.11 6.11 0 0 1-6.111-6.111m19.042 0a6.111 6.111 0 1 1 12.222.002 6.111 6.111 0 0 1-12.222-.002m-19.042 44.737a6.111 6.111 0 1 1 12.222 0 6.111 6.111 0 0 1-12.222 0m19.042 0a6.112 6.112 0 1 1 12.22.002 6.112 6.112 0 0 1-12.22-.001m-19.042 44.737a6.111 6.111 0 1 1 12.222 0 6.111 6.111 0 0 1-12.222 0" fill="#81C3D3" mask="url(#mask-2)"></path><path d="M389.887 663.613a6.112 6.112 0 1 1 12.22.002 6.112 6.112 0 0 1-12.22-.002" fill="#1B61DD" mask="url(#mask-2)"></path><path fill="#81C3D3" mask="url(#mask-2)" d="M509.909 464.256H654.61v-4.766H509.909zm0 44.81H654.61V504.3H509.909zm0 44.811H654.61v-4.766H509.909zm0 44.81H654.61v-4.766H509.909zm0 44.811H654.61v-4.766H509.909zm14.092-144.531a3.404 3.404 0 0 1-3.404-3.404v-21.797a3.404 3.404 0 1 1 6.808 0v21.797a3.403 3.403 0 0 1-3.404 3.404m13.224 0a3.403 3.403 0 0 1-3.404-3.404v-21.797a3.403 3.403 0 1 1 6.808 0v21.797a3.404 3.404 0 0 1-3.404 3.404m13.224 0a3.404 3.404 0 0 1-3.404-3.404v-21.797a3.404 3.404 0 1 1 6.808 0v21.797a3.404 3.404 0 0 1-3.404 3.404"></path><path d="M563.673 498.967a3.404 3.404 0 0 1-3.404-3.404v-21.797a3.404 3.404 0 1 1 6.808 0v21.797a3.404 3.404 0 0 1-3.404 3.404" fill="#1B61DD" mask="url(#mask-2)"></path><path d="M576.896 498.967a3.404 3.404 0 0 1-3.404-3.404v-21.797a3.404 3.404 0 1 1 6.808 0v21.797a3.403 3.403 0 0 1-3.404 3.404m13.224 0a3.404 3.404 0 0 1-3.404-3.404v-21.797a3.404 3.404 0 1 1 6.808 0v21.797a3.403 3.403 0 0 1-3.404 3.404m13.225 0a3.403 3.403 0 0 1-3.404-3.404v-21.797a3.403 3.403 0 1 1 6.808 0v21.797a3.404 3.404 0 0 1-3.404 3.404m-79.344 44.737a3.403 3.403 0 0 1-3.404-3.404v-21.796a3.404 3.404 0 1 1 6.808 0V540.3a3.403 3.403 0 0 1-3.404 3.404m13.224 0a3.403 3.403 0 0 1-3.404-3.404v-21.796a3.403 3.403 0 1 1 6.808 0V540.3a3.403 3.403 0 0 1-3.404 3.404m13.224 0a3.403 3.403 0 0 1-3.404-3.404v-21.796a3.404 3.404 0 1 1 6.808 0V540.3a3.403 3.403 0 0 1-3.404 3.404m13.224 0a3.403 3.403 0 0 1-3.404-3.404v-21.796a3.404 3.404 0 1 1 6.808 0V540.3a3.403 3.403 0 0 1-3.404 3.404m13.223 0a3.403 3.403 0 0 1-3.404-3.404v-21.796a3.404 3.404 0 1 1 6.808 0V540.3a3.403 3.403 0 0 1-3.404 3.404" fill="#81C3D3" mask="url(#mask-2)"></path><path d="M590.12 543.704a3.403 3.403 0 0 1-3.404-3.404v-21.796a3.404 3.404 0 1 1 6.808 0V540.3a3.403 3.403 0 0 1-3.404 3.404" fill="#D3EAF2" mask="url(#mask-2)"></path><path d="M603.345 543.704a3.403 3.403 0 0 1-3.404-3.404v-21.796a3.403 3.403 0 1 1 6.808 0V540.3a3.403 3.403 0 0 1-3.404 3.404m-79.344 44.736a3.404 3.404 0 0 1-3.404-3.403V563.24a3.404 3.404 0 1 1 6.808 0v21.796a3.403 3.403 0 0 1-3.404 3.404" fill="#81C3D3" mask="url(#mask-2)"></path><path d="M537.225 588.44a3.403 3.403 0 0 1-3.404-3.403V563.24a3.403 3.403 0 1 1 6.808 0v21.796a3.404 3.404 0 0 1-3.404 3.404" fill="#D3EAF2" mask="url(#mask-2)"></path><path d="M550.449 588.44a3.404 3.404 0 0 1-3.404-3.403V563.24a3.404 3.404 0 1 1 6.808 0v21.796a3.404 3.404 0 0 1-3.404 3.404" fill="#1B61DD" mask="url(#mask-2)"></path><path d="M563.673 588.44a3.404 3.404 0 0 1-3.404-3.403V563.24a3.404 3.404 0 1 1 6.808 0v21.796a3.404 3.404 0 0 1-3.404 3.404m13.223 0a3.404 3.404 0 0 1-3.404-3.403V563.24a3.404 3.404 0 1 1 6.808 0v21.796a3.403 3.403 0 0 1-3.404 3.404" fill="#81C3D3" mask="url(#mask-2)"></path><path d="M590.12 588.44a3.404 3.404 0 0 1-3.404-3.403V563.24a3.404 3.404 0 1 1 6.808 0v21.796a3.403 3.403 0 0 1-3.404 3.404" fill="#D3EAF2" mask="url(#mask-2)"></path><path d="M603.345 588.44a3.403 3.403 0 0 1-3.404-3.403V563.24a3.403 3.403 0 1 1 6.808 0v21.796a3.404 3.404 0 0 1-3.404 3.404m-79.344 44.738a3.404 3.404 0 0 1-3.404-3.404v-21.797a3.404 3.404 0 1 1 6.808 0v21.797a3.403 3.403 0 0 1-3.404 3.404m13.224 0a3.403 3.403 0 0 1-3.404-3.404v-21.797a3.403 3.403 0 1 1 6.808 0v21.797a3.404 3.404 0 0 1-3.404 3.404m13.224 0a3.404 3.404 0 0 1-3.404-3.404v-21.797a3.404 3.404 0 1 1 6.808 0v21.797a3.404 3.404 0 0 1-3.404 3.404" fill="#81C3D3" mask="url(#mask-2)"></path><path d="M563.673 633.178a3.404 3.404 0 0 1-3.404-3.404v-21.797a3.404 3.404 0 1 1 6.808 0v21.797a3.404 3.404 0 0 1-3.404 3.404" fill="#D3EAF2" mask="url(#mask-2)"></path><path d="M576.896 633.178a3.404 3.404 0 0 1-3.404-3.404v-21.797a3.404 3.404 0 1 1 6.808 0v21.797a3.403 3.403 0 0 1-3.404 3.404m13.224 0a3.404 3.404 0 0 1-3.404-3.404v-21.797a3.404 3.404 0 1 1 6.808 0v21.797a3.403 3.403 0 0 1-3.404 3.404" fill="#81C3D3" mask="url(#mask-2)"></path><path d="M603.345 633.178a3.403 3.403 0 0 1-3.404-3.404v-21.797a3.403 3.403 0 1 1 6.808 0v21.797a3.404 3.404 0 0 1-3.404 3.404" fill="#D3EAF2" mask="url(#mask-2)"></path><path d="M524.001 677.915a3.403 3.403 0 0 1-3.404-3.404v-21.796a3.404 3.404 0 1 1 6.808 0v21.796a3.403 3.403 0 0 1-3.404 3.404m13.224 0a3.403 3.403 0 0 1-3.404-3.404v-21.796a3.403 3.403 0 1 1 6.808 0v21.796a3.403 3.403 0 0 1-3.404 3.404m13.224 0a3.403 3.403 0 0 1-3.404-3.404v-21.796a3.404 3.404 0 1 1 6.808 0v21.796a3.403 3.403 0 0 1-3.404 3.404m13.224 0a3.403 3.403 0 0 1-3.404-3.404v-21.796a3.404 3.404 0 1 1 6.808 0v21.796a3.403 3.403 0 0 1-3.404 3.404m13.223 0a3.403 3.403 0 0 1-3.404-3.404v-21.796a3.404 3.404 0 1 1 6.808 0v21.796a3.403 3.403 0 0 1-3.404 3.404m13.224 0a3.403 3.403 0 0 1-3.404-3.404v-21.796a3.404 3.404 0 1 1 6.808 0v21.796a3.403 3.403 0 0 1-3.404 3.404m13.225 0a3.403 3.403 0 0 1-3.404-3.404v-21.796a3.403 3.403 0 1 1 6.808 0v21.796a3.403 3.403 0 0 1-3.404 3.404" fill="#81C3D3" mask="url(#mask-2)"></path><path d="M614.94 484.665a6.112 6.112 0 1 1 12.22.002 6.112 6.112 0 0 1-12.22-.002" fill="#D3EAF2" mask="url(#mask-2)"></path><path d="M633.981 484.665a6.111 6.111 0 1 1 12.222 0 6.111 6.111 0 0 1-12.222 0m-19.041 44.737a6.112 6.112 0 1 1 12.22.002 6.112 6.112 0 0 1-12.22-.002" fill="#81C3D3" mask="url(#mask-2)"></path><path d="M633.981 529.402a6.111 6.111 0 1 1 12.222 0 6.111 6.111 0 0 1-12.222 0" fill="#D3EAF2" mask="url(#mask-2)"></path><path d="M614.94 574.138a6.111 6.111 0 1 1 12.222.002 6.111 6.111 0 0 1-12.222-.002" fill="#1B61DD" mask="url(#mask-2)"></path><path d="M633.981 574.138a6.11 6.11 0 0 1 6.111-6.11 6.111 6.111 0 1 1-6.111 6.11m-19.041 44.737a6.112 6.112 0 1 1 12.22.002 6.112 6.112 0 0 1-12.22-.001m19.041-.001a6.111 6.111 0 1 1 12.222 0 6.111 6.111 0 0 1-12.222 0m-19.041 44.738a6.112 6.112 0 1 1 12.22.002 6.112 6.112 0 0 1-12.22-.002" fill="#81C3D3" mask="url(#mask-2)"></path><path d="M633.981 663.613a6.111 6.111 0 1 1 12.222 0 6.111 6.111 0 0 1-12.222 0" fill="#1B61DD" mask="url(#mask-2)"></path><path fill="#AFD2DB" mask="url(#mask-2)" d="M477.067 378.833l56.53 31.248-.047 285.91-151.796 10.417.046-296.327z"></path><path fill="#81C3D3" mask="url(#mask-2)" d="M381.785 444.915h151.812v-5H381.785zm0 47.012h151.812v-5H381.785zm0 47.013h151.812v-5H381.785zm0 47.012h151.812v-5H381.785zm0 47.013h151.812v-5H381.785zm14.785-151.633a3.57 3.57 0 0 1-3.571-3.571v-22.867a3.572 3.572 0 1 1 7.142 0v22.867a3.57 3.57 0 0 1-3.571 3.571m13.874 0a3.571 3.571 0 0 1-3.572-3.571v-22.867a3.573 3.573 0 1 1 7.143 0v22.867a3.571 3.571 0 0 1-3.571 3.571m13.873 0a3.57 3.57 0 0 1-3.571-3.571v-22.867a3.572 3.572 0 1 1 7.143 0v22.867a3.571 3.571 0 0 1-3.572 3.571"></path><path d="M438.191 481.332a3.57 3.57 0 0 1-3.571-3.571v-22.867a3.572 3.572 0 1 1 7.142 0v22.867a3.57 3.57 0 0 1-3.571 3.571" fill="#1B61DD" mask="url(#mask-2)"></path><path d="M452.065 481.332a3.571 3.571 0 0 1-3.572-3.571v-22.867a3.573 3.573 0 1 1 7.143 0v22.867a3.571 3.571 0 0 1-3.571 3.571m13.873 0a3.57 3.57 0 0 1-3.571-3.571v-22.867a3.572 3.572 0 1 1 7.143 0v22.867a3.571 3.571 0 0 1-3.572 3.571m13.874 0a3.57 3.57 0 0 1-3.571-3.571v-22.867a3.572 3.572 0 1 1 7.142 0v22.867a3.57 3.57 0 0 1-3.571 3.571m-83.242 46.935a3.571 3.571 0 0 1-3.571-3.571v-22.867a3.572 3.572 0 1 1 7.142 0v22.867a3.571 3.571 0 0 1-3.571 3.571m13.874 0a3.572 3.572 0 0 1-3.572-3.571v-22.867a3.573 3.573 0 1 1 7.143 0v22.867a3.572 3.572 0 0 1-3.571 3.571m13.873 0a3.571 3.571 0 0 1-3.571-3.571v-22.867a3.572 3.572 0 1 1 7.143 0v22.867a3.572 3.572 0 0 1-3.572 3.571" fill="#81C3D3" mask="url(#mask-2)"></path><path d="M438.191 528.267a3.571 3.571 0 0 1-3.571-3.571v-22.867a3.572 3.572 0 1 1 7.142 0v22.867a3.571 3.571 0 0 1-3.571 3.571" fill="#D3EAF2" mask="url(#mask-2)"></path><path d="M452.065 528.267a3.572 3.572 0 0 1-3.572-3.571v-22.867a3.573 3.573 0 1 1 7.143 0v22.867a3.572 3.572 0 0 1-3.571 3.571" fill="#81C3D3" mask="url(#mask-2)"></path><path d="M465.938 528.267a3.571 3.571 0 0 1-3.571-3.571v-22.867a3.572 3.572 0 1 1 7.143 0v22.867a3.572 3.572 0 0 1-3.572 3.571" fill="#D3EAF2" mask="url(#mask-2)"></path><path d="M479.812 528.267a3.571 3.571 0 0 1-3.571-3.571v-22.867a3.572 3.572 0 1 1 7.142 0v22.867a3.571 3.571 0 0 1-3.571 3.571m-83.242 46.936a3.571 3.571 0 0 1-3.571-3.572v-22.866a3.572 3.572 0 1 1 7.142 0v22.866a3.571 3.571 0 0 1-3.571 3.572" fill="#81C3D3" mask="url(#mask-2)"></path><path d="M410.444 575.203a3.572 3.572 0 0 1-3.572-3.572v-22.866a3.573 3.573 0 1 1 7.143 0v22.866a3.572 3.572 0 0 1-3.571 3.572" fill="#D3EAF2" mask="url(#mask-2)"></path><path d="M424.317 575.203a3.571 3.571 0 0 1-3.571-3.572v-22.866a3.572 3.572 0 1 1 7.143 0v22.866a3.572 3.572 0 0 1-3.572 3.572" fill="#1B61DD" mask="url(#mask-2)"></path><path d="M438.191 575.203a3.571 3.571 0 0 1-3.571-3.572v-22.866a3.572 3.572 0 1 1 7.142 0v22.866a3.571 3.571 0 0 1-3.571 3.572m13.874 0a3.572 3.572 0 0 1-3.572-3.572v-22.866a3.573 3.573 0 1 1 7.143 0v22.866a3.572 3.572 0 0 1-3.571 3.572m13.873 0a3.571 3.571 0 0 1-3.571-3.572v-22.866a3.572 3.572 0 1 1 7.143 0v22.866a3.572 3.572 0 0 1-3.572 3.572m13.874 0a3.571 3.571 0 0 1-3.571-3.572v-22.866a3.572 3.572 0 1 1 7.142 0v22.866a3.571 3.571 0 0 1-3.571 3.572m-83.242 46.935a3.571 3.571 0 0 1-3.571-3.572V595.7a3.571 3.571 0 1 1 7.142 0v22.867a3.571 3.571 0 0 1-3.571 3.572m13.874-.001a3.572 3.572 0 0 1-3.572-3.572V595.7a3.572 3.572 0 0 1 7.143 0v22.867a3.572 3.572 0 0 1-3.571 3.572m13.873-.001a3.571 3.571 0 0 1-3.571-3.572V595.7a3.571 3.571 0 1 1 7.143 0v22.867a3.572 3.572 0 0 1-3.572 3.572" fill="#81C3D3" mask="url(#mask-2)"></path><path d="M438.191 622.138a3.571 3.571 0 0 1-3.571-3.572V595.7a3.571 3.571 0 1 1 7.142 0v22.867a3.571 3.571 0 0 1-3.571 3.572" fill="#D3EAF2" mask="url(#mask-2)"></path><path d="M452.065 622.138a3.572 3.572 0 0 1-3.572-3.572V595.7a3.572 3.572 0 0 1 7.143 0v22.867a3.572 3.572 0 0 1-3.571 3.572" fill="#81C3D3" mask="url(#mask-2)"></path><path d="M465.938 622.138a3.571 3.571 0 0 1-3.571-3.572V595.7a3.571 3.571 0 1 1 7.143 0v22.867a3.572 3.572 0 0 1-3.572 3.572" fill="#1B61DD" mask="url(#mask-2)"></path><path d="M479.812 622.138a3.571 3.571 0 0 1-3.571-3.572V595.7a3.571 3.571 0 1 1 7.142 0v22.867a3.571 3.571 0 0 1-3.571 3.572" fill="#D3EAF2" mask="url(#mask-2)"></path><path d="M396.57 669.074a3.571 3.571 0 0 1-3.571-3.572v-22.867a3.57 3.57 0 1 1 7.142 0v22.867a3.571 3.571 0 0 1-3.571 3.572m13.874 0a3.572 3.572 0 0 1-3.572-3.572v-22.867a3.572 3.572 0 1 1 7.143 0v22.867a3.572 3.572 0 0 1-3.571 3.572m13.873 0a3.571 3.571 0 0 1-3.571-3.572v-22.867a3.57 3.57 0 1 1 7.143 0v22.867a3.572 3.572 0 0 1-3.572 3.572m13.874 0a3.571 3.571 0 0 1-3.571-3.572v-22.867a3.57 3.57 0 1 1 7.142 0v22.867a3.571 3.571 0 0 1-3.571 3.572m13.874 0a3.572 3.572 0 0 1-3.572-3.572v-22.867a3.572 3.572 0 1 1 7.143 0v22.867a3.572 3.572 0 0 1-3.571 3.572m13.873 0a3.571 3.571 0 0 1-3.571-3.572v-22.867a3.57 3.57 0 1 1 7.143 0v22.867a3.572 3.572 0 0 1-3.572 3.572m13.874 0a3.571 3.571 0 0 1-3.571-3.572v-22.867a3.57 3.57 0 1 1 7.142 0v22.867a3.571 3.571 0 0 1-3.571 3.572m12.165-202.747a6.412 6.412 0 1 1 12.825 0 6.412 6.412 0 0 1-12.825 0" fill="#81C3D3" mask="url(#mask-2)"></path><path d="M511.955 466.327a6.412 6.412 0 1 1 12.825 0 6.412 6.412 0 0 1-12.825 0m-19.978 46.935a6.412 6.412 0 1 1 12.825 0 6.412 6.412 0 0 1-12.825 0" fill="#D3EAF2" mask="url(#mask-2)"></path><path d="M511.955 513.262a6.412 6.412 0 1 1 12.825 0 6.412 6.412 0 0 1-12.825 0" fill="#81C3D3" mask="url(#mask-2)"></path><path d="M491.977 560.198a6.412 6.412 0 1 1 12.825 0 6.412 6.412 0 0 1-12.825 0" fill="#1B61DD" mask="url(#mask-2)"></path><path d="M511.955 560.198a6.412 6.412 0 1 1 12.825 0 6.412 6.412 0 0 1-12.825 0m-19.978 46.934a6.412 6.412 0 1 1 12.824.003 6.412 6.412 0 0 1-12.824-.003m19.978 0a6.412 6.412 0 1 1 12.824.003 6.412 6.412 0 0 1-12.824-.003m-19.978 46.936a6.411 6.411 0 1 1 12.823 0 6.411 6.411 0 0 1-12.823 0" fill="#81C3D3" mask="url(#mask-2)"></path><path d="M511.955 654.068a6.411 6.411 0 1 1 12.823 0 6.411 6.411 0 0 1-12.823 0" fill="#1B61DD" mask="url(#mask-2)"></path><path fill="#FFF" mask="url(#mask-2)" d="M381.801 410.081h151.797l-19.21-34.333H398.725z"></path></g><path d="M645.269 254.18c15.244-1.094 30.519-2.054 45.914-2.362 15.392-.316 30.866-.181 46.413.712 15.54.888 31.167 2.567 46.674 5.211 15.509 2.583 30.845 6.356 45.577 10.466 14.746 4.103 28.782 8.475 42.522 11.602 3.445.836 6.871 1.488 10.304 2.195 3.434.596 6.863 1.254 10.308 1.707 3.435.553 6.9.887 10.356 1.292 1.731.191 3.476.29 5.213.443 1.74.132 3.474.31 5.229.364 3.501.16 6.994.375 10.526.377l5.287.079 5.317-.086c3.538-.009 7.105-.198 10.669-.363 3.701-.136 6.801-.368 10.031-.734 12.796-1.51 24.779-5.336 34.91-11.821 10.151-6.442 18.451-15.566 24.501-26.513 6.05-10.939 9.88-23.573 11.51-36.56 3.35-25.973-2.61-52.917-18.06-73.015-7.69-10.094-17.637-18.562-29.041-25.15-11.393-6.617-24.174-11.396-37.539-14.618-13.374-3.239-27.337-4.942-41.465-5.521-14.14-.549-28.455.008-42.764 1.427l-3.134-29.413c15.453-1.741 31.111-2.581 46.896-2.181 15.779.437 31.703 2.121 47.489 5.713 15.76 3.582 31.426 9.098 46.059 17.322a136.417 136.417 0 0 1 20.879 14.365 124.522 124.522 0 0 1 17.9 18.457c10.68 13.568 18.31 29.553 22.44 46.085 2.09 8.273 3.42 16.616 3.93 25.171.51 8.484.24 16.909-.71 25.28-1.93 16.707-6.62 33.327-14.88 48.721-4.14 7.675-9.2 14.994-15.16 21.62a103.494 103.494 0 0 1-20.33 17.431c-7.49 4.904-15.591 8.781-23.892 11.656-8.306 2.902-16.811 4.729-25.262 5.857-4.201.535-8.565.883-12.341 1.078-3.909.237-7.813.494-11.76.567l-5.907.175h-5.938c-3.953.046-7.936-.13-11.913-.26-1.987-.04-3.982-.207-5.975-.331-1.992-.143-3.986-.237-5.978-.425-3.984-.401-7.975-.742-11.941-1.315-3.982-.474-7.918-1.159-11.866-1.796-3.908-.739-7.845-1.442-11.687-2.312-15.505-3.318-30.135-7.676-44.281-11.383-14.151-3.728-27.978-6.91-42.038-9.048-14.036-2.187-28.239-3.519-42.594-4.136-14.35-.621-28.832-.547-43.362-.044-14.532.494-29.131 1.621-43.727 2.873l-3.309-38.859z" fill="#D3EAF2"></path><path d="M923.94 321.216h5.938l5.907-.175c3.947-.073 7.851-.329 11.76-.567 3.776-.195 8.14-.542 12.341-1.077 8.451-1.128 16.956-2.955 25.262-5.857 8.301-2.875 16.402-6.752 23.892-11.657 4.05-2.641 7.91-5.587 11.54-8.773-30.287 18.571-73.104 24.897-116.188 20.167-18.064-1.984-36.83-4.186-51.844-9.682-90.823-33.242-151.194-23.818-151.194-23.818l-1.518 10.173c12.002-.286 23.962-.253 35.832.261 14.354.616 28.557 1.948 42.593 4.135 14.06 2.139 27.887 5.321 42.038 9.048 14.146 3.707 28.776 8.065 44.281 11.383 3.842.87 7.779 1.573 11.687 2.312 3.948.637 7.884 1.323 11.866 1.796 3.966.574 7.957.914 11.941 1.315 1.992.189 3.986.282 5.978.426 1.993.123 3.989.291 5.975.33 3.977.131 7.96.306 11.913.26" fill="#81C3D3"></path><path d="M707.413 253.11c-16.333 19.167-4.856 33.969 2.239 34.151l20.928-4.318v-4.307s-24.833 1.807-23.167-25.526" fill="#81C3D3"></path><path fill="#AFD2DB" d="M519.611 156.066l26.468-4.254 76.964 56.767-2.948 122.106-84.267 58.209-22.712-4.998z"></path><path d="M394.212 261.055c-5.182 0-9.643-3.902-10.222-9.173-.621-5.652 3.458-10.738 9.111-11.359l123.309-13.547c5.635-.616 10.738 3.456 11.36 9.111.621 5.651-3.458 10.737-9.112 11.358l-123.309 13.548c-.381.041-.761.062-1.137.062m13.539 88.87c-5.182 0-9.643-3.902-10.222-9.173-.621-5.652 3.458-10.738 9.111-11.359l123.309-13.548c5.639-.61 10.738 3.458 11.36 9.111.621 5.652-3.458 10.738-9.112 11.359l-123.309 13.548c-.381.041-.761.062-1.137.062" fill="#FFF"></path><path fill="#AFD2DB" d="M243.652 211.172l25.416 214.357 30.221 3.837 74.24-61.776-18.009-132.76-82.784-40.106z"></path><path d="M266.104 400.529c36.54-23.894 59.947-64.96 59.947-64.96l2.341-19.476s-12.606-3.772-35.606 11.561c-7.489 4.993-21.626 12.736-32.07 27.437l5.388 45.438z" fill="#81C3D3"></path><path d="M293.599 295.789l-.813-3.251 22.229-3.951c3.265-.581 6.625.364 9.068 2.606 3.931 3.608 9.262 9.958 10.429 18.595 1.115 8.251-1.26 15.765-3.392 20.535a10.71 10.71 0 0 1-7.948 6.184l-18.905 3.291-10.668-44.009z" fill="#D3EAF2"></path><path d="M287.097 303.105l-2.529-4.02s2.053-5.134 8.218-6.547c6.503-1.49 19.506.271 23.029 18.018 3.071 15.472-1.427 26.654-11.547 29.243-5.825 1.49-10.709-3.765-10.709-3.765l-6.462-32.929zm140.623 23.843l35.224 27.095-79.118 63.402-84.537 11.921 74.241-61.776z" fill="#62A7BF"></path><path fill="#FFF" d="M355.52 234.831l89.393-7.917-77.345-36.524-94.832 4.335z"></path><path fill="#D3EAF2" d="M444.913 226.914l18.03 127.129-89.414 13.547-18.009-132.759zm-134.845 87.538c-1.041-12.356-12.208-18.571-23.963-15.83-12.316 2.873-28.663 7.654-47.082 15.519-36.102 15.415-87.807 46.242-129.11 105.565-33.206 47.691-51.704 116.035-54.98 203.133a492.85 492.85 0 0 1-.392 8.439c16.518.372 33.04.822 49.557 1.076-3.954-62.151.706-138.926 36.945-190.973 28.724-41.256 66.238-72.129 111.499-91.763 16.981-7.365 31.948-11.687 42.73-14.173 9.443-2.177 15.837-8.637 14.796-20.993"></path><path d="M170.642 360.527s.25 25.75 9.5 29.75c5.75 1.5 19.556-18.59 19.556-18.59l-29.056-11.16z" fill="#81C3D3"></path><path d="M295.272 335.445c9.443-2.177 15.837-8.637 14.796-20.993a20.681 20.681 0 0 0-.332-2.334c-3.389 6.105-9.745 13.627-21.344 17.169-21.25 6.49-73.25 22.49-119.5 66.74s-58.167 71.25-72.565 121.25c-15.07 52.33-8.435 104.617-8.435 104.617l15.905 5.406c-3.379-61.216 1.984-135.275 37.246-185.919 28.724-41.256 66.238-72.129 111.499-91.763 16.981-7.365 31.948-11.687 42.73-14.173" fill="#81C3D3"></path><path d="M219.767 324.901s-2.396 26.143 22.802 21.447c-7.302 4.928-12.427 13.678-12.427 13.678l-10.437 1.75-13.563-16.75 13.625-20.125z" fill="#81C3D3"></path><path d="M85.84 546.784c-1.523.075-3.03.457-4.404 1.114l-60.108 28.719c-3.097 1.48-5.452 4.408-6.217 7.733L.28 648.86a11.463 11.463 0 0 0 2.214 9.649l41.604 51.727c2.144 2.665 5.548 4.289 8.986 4.289l66.717-.015c3.437.002 6.84-1.62 8.986-4.283l41.588-51.734c2.145-2.666 2.987-6.32 2.221-9.647l-14.851-64.51c-.766-3.326-3.122-6.254-6.219-7.735l-60.114-28.703a11.607 11.607 0 0 0-5.573-1.114" fill="#326CE5"></path><path d="M86.435 568.737c-1.986 0-3.599 1.79-3.598 3.997 0 .034.006.067.008.101-.003.298-.017.661-.008.923.047 1.273.325 2.247.492 3.42.302 2.51.556 4.592.4 6.526-.152.73-.69 1.396-1.169 1.86l-.084 1.523c-2.16.178-4.332.505-6.504.999a46.278 46.278 0 0 0-23.508 13.429 54.527 54.527 0 0 1-1.298-.923c-.642.087-1.293.286-2.137-.207-1.61-1.084-3.076-2.581-4.85-4.381-.814-.862-1.402-1.684-2.368-2.515-.22-.189-.554-.442-.8-.638a4.286 4.286 0 0 0-2.506-.945c-1.106-.038-2.17.394-2.867 1.268-1.239 1.553-.842 3.928.884 5.305.017.014.036.025.053.038.238.193.53.439.746.6 1.026.757 1.962 1.144 2.982 1.745 2.153 1.328 3.937 2.431 5.351 3.759.552.589.65 1.627.722 2.076l1.154 1.029c-6.173 9.289-9.03 20.764-7.342 32.455l-1.506.439c-.397.512-.959 1.32-1.545 1.56-1.85.582-3.934.798-6.45 1.06-1.18.1-2.199.04-3.452.278-.275.052-.659.152-.96.223l-.03.008-.055.014c-2.12.513-3.482 2.463-3.043 4.382.438 1.922 2.51 3.089 4.642 2.629.015-.003.04-.003.054-.007.024-.006.045-.017.07-.023.296-.066.668-.138.93-.207 1.231-.331 2.121-.815 3.228-1.238 2.381-.853 4.351-1.567 6.272-1.846.803-.062 1.65.496 2.07.73l1.567-.268c3.608 11.188 11.171 20.23 20.747 25.905l-.653 1.569c.235.609.496 1.433.32 2.035-.699 1.81-1.895 3.72-3.257 5.85-.659.986-1.335 1.75-1.929 2.877-.143.27-.325.684-.46.968-.926 1.978-.248 4.259 1.53 5.112 1.786.86 4.005-.047 4.965-2.03.001-.002.005-.003.006-.007v-.007c.137-.281.332-.651.448-.916.51-1.167.678-2.168 1.037-3.297.951-2.391 1.475-4.9 2.784-6.463.36-.427.944-.593 1.551-.755l.815-1.476a46.494 46.494 0 0 0 27.03 1.945 46.685 46.685 0 0 0 6.17-1.86c.23.406.656 1.186.77 1.384.616.2 1.288.303 1.837 1.114.98 1.675 1.65 3.656 2.468 6.05.359 1.13.535 2.13 1.046 3.298.115.266.308.64.445.92.958 1.99 3.183 2.902 4.973 2.039 1.776-.855 2.455-3.134 1.53-5.112-.137-.285-.326-.7-.469-.968-.595-1.127-1.269-1.883-1.93-2.868-1.362-2.13-2.491-3.9-3.19-5.712-.292-.933.05-1.514.277-2.121-.136-.156-.427-1.038-.598-1.454 9.951-5.875 17.292-15.256 20.739-26.09a56.86 56.86 0 0 1 1.537.27c.541-.357 1.038-.822 2.015-.745 1.921.277 3.891.99 6.272 1.845 1.107.423 1.997.916 3.229 1.245.26.069.632.134.929.199.025.006.046.018.07.023l.054.008c2.133.459 4.205-.708 4.642-2.63.438-1.92-.922-3.87-3.043-4.381-.309-.07-.746-.19-1.045-.246-1.253-.237-2.271-.177-3.452-.276-2.516-.265-4.598-.478-6.45-1.061-.754-.293-1.291-1.191-1.552-1.561l-1.453-.423a46.46 46.46 0 0 0-.754-16.797 46.603 46.603 0 0 0-6.741-15.581c.372-.338 1.076-.962 1.275-1.145.059-.645.008-1.323.678-2.038 1.413-1.328 3.198-2.429 5.349-3.759 1.021-.601 1.965-.988 2.991-1.744.232-.171.548-.443.792-.639 1.726-1.376 2.122-3.75.883-5.304-1.239-1.554-3.64-1.7-5.365-.322-.246.194-.579.448-.8.638-.965.832-1.562 1.652-2.376 2.513-1.773 1.803-3.24 3.306-4.849 4.39-.698.406-1.721.266-2.185.237l-1.367.977c-7.803-8.182-18.426-13.413-29.865-14.429a99.962 99.962 0 0 1-.084-1.606c-.469-.448-1.034-.831-1.176-1.799-.157-1.934.105-4.016.407-6.526.167-1.173.445-2.147.491-3.42.011-.291-.005-.71-.006-1.024 0-2.207-1.612-3.997-3.598-3.997zm-4.506 27.904l-1.067 18.872-.077.038a3.173 3.173 0 0 1-5.036 2.43l-.03.016-15.474-10.97c4.755-4.677 10.838-8.133 17.85-9.725a38.26 38.26 0 0 1 3.834-.661zm9.02 0a37.37 37.37 0 0 1 21.552 10.394l-15.374 10.899-.054-.022a3.174 3.174 0 0 1-5.042-2.422l-.016-.007-1.067-18.842zm-36.316 17.436l14.128 12.637-.015.077a3.166 3.166 0 0 1 .4 4.366 3.177 3.177 0 0 1-1.645 1.084l-.015.06-18.112 5.229a37.056 37.056 0 0 1 5.26-23.453zm63.503.007a37.483 37.483 0 0 1 4.636 11.323 37.466 37.466 0 0 1 .783 12.06l-18.202-5.242-.016-.076a3.174 3.174 0 0 1-1.245-5.451l-.008-.038 14.052-12.576zM83.537 627.69h5.788l3.597 4.497-1.29 5.612-5.197 2.499-5.212-2.506-1.292-5.613 3.606-4.49zm18.557 15.39c.245-.013.49.01.73.054l.03-.04 18.734 3.167a37.093 37.093 0 0 1-14.997 18.842l-7.273-17.564.023-.032a3.175 3.175 0 0 1 1.537-4.112c.394-.19.805-.295 1.216-.315zm-31.465.077a3.173 3.173 0 0 1 2.868 4.42l.053.068-7.194 17.389c-6.728-4.317-12.086-10.78-14.952-18.71l18.572-3.151.031.038c.208-.038.418-.058.622-.054zm15.691 7.617a3.136 3.136 0 0 1 1.483.317 3.14 3.14 0 0 1 1.422 1.352h.07l9.155 16.543c-1.189.397-2.41.738-3.659 1.022-7.002 1.59-13.982 1.109-20.302-1.045l9.132-16.513h.015a3.18 3.18 0 0 1 2.684-1.676z" fill="#FFF"></path><path d="M86.435 568.737c-1.986 0-3.599 1.79-3.598 3.997 0 .034.006.067.008.101-.003.298-.017.661-.008.923.047 1.273.325 2.247.492 3.42.302 2.51.556 4.592.4 6.526-.152.73-.69 1.396-1.169 1.86l-.084 1.523c-2.16.178-4.332.505-6.504.999a46.278 46.278 0 0 0-23.508 13.429 54.527 54.527 0 0 1-1.298-.923c-.642.087-1.293.286-2.137-.207-1.61-1.084-3.076-2.581-4.85-4.381-.814-.862-1.402-1.684-2.368-2.515-.22-.189-.554-.442-.8-.638a4.286 4.286 0 0 0-2.506-.945c-1.106-.038-2.17.394-2.867 1.268-1.239 1.553-.842 3.928.884 5.305.017.014.036.025.053.038.238.193.53.439.746.6 1.026.757 1.962 1.144 2.982 1.745 2.153 1.328 3.937 2.431 5.351 3.759.552.589.65 1.627.722 2.076l1.154 1.029c-6.173 9.289-9.03 20.764-7.342 32.455l-1.506.439c-.397.512-.959 1.32-1.545 1.56-1.85.582-3.934.798-6.45 1.06-1.18.1-2.199.04-3.452.278-.275.052-.659.152-.96.223l-.03.008-.055.014c-2.12.513-3.482 2.463-3.043 4.382.438 1.922 2.51 3.089 4.642 2.629.015-.003.04-.003.054-.007.024-.006.045-.017.07-.023.296-.066.668-.138.93-.207 1.231-.331 2.121-.815 3.228-1.238 2.381-.853 4.351-1.567 6.272-1.846.803-.062 1.65.496 2.07.73l1.567-.268c3.608 11.188 11.171 20.23 20.747 25.905l-.653 1.569c.235.609.496 1.433.32 2.035-.699 1.81-1.895 3.72-3.257 5.85-.659.986-1.335 1.75-1.929 2.877-.143.27-.325.684-.46.968-.926 1.978-.248 4.259 1.53 5.112 1.786.86 4.005-.047 4.965-2.03.001-.002.005-.003.006-.007v-.007c.137-.281.332-.651.448-.916.51-1.167.678-2.168 1.037-3.297.951-2.391 1.475-4.9 2.784-6.463.36-.427.944-.593 1.551-.755l.815-1.476a46.494 46.494 0 0 0 27.03 1.945 46.685 46.685 0 0 0 6.17-1.86c.23.406.656 1.186.77 1.384.616.2 1.288.303 1.837 1.114.98 1.675 1.65 3.656 2.468 6.05.359 1.13.535 2.13 1.046 3.298.115.266.308.64.445.92.958 1.99 3.183 2.902 4.973 2.039 1.776-.855 2.455-3.134 1.53-5.112-.137-.285-.326-.7-.469-.968-.595-1.127-1.269-1.883-1.93-2.868-1.362-2.13-2.491-3.9-3.19-5.712-.292-.933.05-1.514.277-2.121-.136-.156-.427-1.038-.598-1.454 9.951-5.875 17.292-15.256 20.739-26.09a56.86 56.86 0 0 1 1.537.27c.541-.357 1.038-.822 2.015-.745 1.921.277 3.891.99 6.272 1.845 1.107.423 1.997.916 3.229 1.245.26.069.632.134.929.199.025.006.046.018.07.023l.054.008c2.133.459 4.205-.708 4.642-2.63.438-1.92-.922-3.87-3.043-4.381-.309-.07-.746-.19-1.045-.246-1.253-.237-2.271-.177-3.452-.276-2.516-.265-4.598-.478-6.45-1.061-.754-.293-1.291-1.191-1.552-1.561l-1.453-.423a46.46 46.46 0 0 0-.754-16.797 46.603 46.603 0 0 0-6.741-15.581c.372-.338 1.076-.962 1.275-1.145.059-.645.008-1.323.678-2.038 1.413-1.328 3.198-2.429 5.349-3.759 1.021-.601 1.965-.988 2.991-1.744.232-.171.548-.443.792-.639 1.726-1.376 2.122-3.75.883-5.304-1.239-1.554-3.64-1.7-5.365-.322-.246.194-.579.448-.8.638-.965.832-1.562 1.652-2.376 2.513-1.773 1.803-3.24 3.306-4.849 4.39-.698.406-1.721.266-2.185.237l-1.367.977c-7.803-8.182-18.426-13.413-29.865-14.429a99.962 99.962 0 0 1-.084-1.606c-.469-.448-1.034-.831-1.176-1.799-.157-1.934.105-4.016.407-6.526.167-1.173.445-2.147.491-3.42.011-.291-.005-.71-.006-1.024 0-2.207-1.612-3.997-3.598-3.997zm-4.506 27.904l-1.067 18.872-.077.038a3.173 3.173 0 0 1-5.036 2.43l-.03.016-15.474-10.97c4.755-4.677 10.838-8.133 17.85-9.725a38.26 38.26 0 0 1 3.834-.661zm9.02 0a37.37 37.37 0 0 1 21.552 10.394l-15.374 10.899-.054-.022a3.174 3.174 0 0 1-5.042-2.422l-.016-.007-1.067-18.842zm-36.316 17.436l14.128 12.637-.015.077a3.166 3.166 0 0 1 .4 4.366 3.177 3.177 0 0 1-1.645 1.084l-.015.06-18.112 5.229a37.056 37.056 0 0 1 5.26-23.453zm63.503.007a37.483 37.483 0 0 1 4.636 11.323 37.466 37.466 0 0 1 .783 12.06l-18.202-5.242-.016-.076a3.174 3.174 0 0 1-1.245-5.451l-.008-.038 14.052-12.576zM83.537 627.69h5.788l3.597 4.497-1.29 5.612-5.197 2.499-5.212-2.506-1.292-5.613 3.606-4.49zm18.557 15.39c.245-.013.49.01.73.054l.03-.04 18.734 3.167a37.093 37.093 0 0 1-14.997 18.842l-7.273-17.564.023-.032a3.175 3.175 0 0 1 1.537-4.112c.394-.19.805-.295 1.216-.315zm-31.465.077a3.173 3.173 0 0 1 2.868 4.42l.053.068-7.194 17.389c-6.728-4.317-12.086-10.78-14.952-18.71l18.572-3.151.031.038c.208-.038.418-.058.622-.054zm15.691 7.617a3.136 3.136 0 0 1 1.483.317 3.14 3.14 0 0 1 1.422 1.352h.07l9.155 16.543c-1.189.397-2.41.738-3.659 1.022-7.002 1.59-13.982 1.109-20.302-1.045l9.132-16.513h.015a3.18 3.18 0 0 1 2.684-1.676z" stroke="#FFF" stroke-width=".205"></path><path fill="#FFF" d="M546.079 151.813l96.954 4.095 67.571 56.821-87.561-4.149z"></path><path fill="#D3EAF2" d="M623.043 208.58l-2.947 122.106 88.945 4.339 1.564-122.297z"></path><path fill="#62A7BF" d="M620.096 330.686l-84.268 58.208h84.956l88.257-53.869zm-38.011-100.775c0 8.372-6.786 15.158-15.158 15.158-8.371 0-15.158-6.786-15.158-15.158s6.787-15.158 15.158-15.158c8.372 0 15.158 6.786 15.158 15.158"></path><path d="M570.991 215.32c-6.395 1.778-11.094 7.629-11.094 14.591 0 6.961 4.699 12.812 11.094 14.59 6.395-1.778 11.094-7.629 11.094-14.59 0-6.962-4.699-12.813-11.094-14.591" fill="#2E6B8E"></path><path d="M582.085 312.217c0 8.372-6.786 15.158-15.158 15.158-8.371 0-15.158-6.786-15.158-15.158s6.787-15.158 15.158-15.158c8.372 0 15.158 6.786 15.158 15.158" fill="#62A7BF"></path><path d="M570.991 297.627c-6.395 1.778-11.094 7.629-11.094 14.59 0 6.962 4.699 12.813 11.094 14.591 6.395-1.778 11.094-7.629 11.094-14.591 0-6.961-4.699-12.812-11.094-14.59" fill="#2E6B8E"></path><path d="M233.861 316.568s-13.897-10.573-22.219-18.586c-8.322-8.013-4.25-29.206-4.25-29.206l-49.595 12.445s-.617 12.078 2.068 30.04c2.685 17.963-12.473 39.353 22.423 66.896 40.398 25.292 52.442-20.023 52.442-20.023s-16.324-1.589-16.672-18.07c-.377-17.91 15.803-23.496 15.803-23.496" fill="#FDBDB4"></path><path d="M152.71 268.282l-2.16 4.5.6 20.716c23.041 5.384 50.316 3.619 63.444-8.423l.323-19.413-62.207 2.62z" fill="#FFF"></path><path d="M160.79 84.979s-19.44 56.786-16.897 189.544c26.757 7.968 66.352 3.015 76.53-8.773 0 0 .263-99.874 37.668-193.62 0 0-54.545-31.977-97.301 12.849" fill="#FFBB43"></path><path d="M825.776.016c-1.665.083-3.313.5-4.814 1.218L755.27 32.621c-3.385 1.618-5.959 4.818-6.796 8.452l-16.207 70.505c-.745 3.238-.116 6.766 1.705 9.553.223.341.461.672.715.99l45.469 56.535c2.345 2.913 6.063 4.689 9.822 4.687l72.915-.017c3.757.003 7.476-1.769 9.821-4.68l45.453-56.541c2.344-2.914 3.264-6.908 2.426-10.544l-16.229-70.504c-.838-3.635-3.412-6.835-6.798-8.453l-65.699-31.37a12.696 12.696 0 0 0-6.091-1.218" fill="#326CE5"></path><path d="M826.428 24.008c-2.172 0-3.934 1.957-3.933 4.369 0 .038.007.073.009.11-.003.327-.018.722-.009 1.008.052 1.392.355 2.456.537 3.739.332 2.743.609 5.019.438 7.132-.167.798-.754 1.527-1.277 2.034l-.092 1.663c-2.36.195-4.736.553-7.109 1.091a50.587 50.587 0 0 0-25.691 14.678 62.932 62.932 0 0 1-1.419-1.008c-.703.095-1.413.311-2.337-.227-1.759-1.184-3.362-2.82-5.301-4.789-.888-.941-1.532-1.839-2.587-2.747-.24-.206-.605-.485-.875-.698a4.672 4.672 0 0 0-2.738-1.032c-1.209-.042-2.372.43-3.134 1.386-1.354 1.697-.92 4.292.967 5.797.019.015.039.027.058.042.26.21.577.479.815.655 1.121.827 2.144 1.251 3.259 1.907 2.353 1.452 4.303 2.657 5.849 4.109.603.643.709 1.777.789 2.268l1.26 1.125c-6.747 10.153-9.868 22.693-8.024 35.471l-1.645.48c-.435.56-1.048 1.442-1.689 1.705-2.024.637-4.301.872-7.049 1.159-1.291.108-2.404.044-3.773.303-.3.057-.721.166-1.05.243l-.033.009c-.019.004-.042.012-.059.016-2.317.561-3.805 2.691-3.327 4.789.48 2.1 2.742 3.376 5.074 2.874.018-.004.042-.004.06-.009.025-.006.049-.019.075-.025.324-.072.732-.15 1.017-.227 1.345-.36 2.319-.889 3.528-1.353 2.602-.932 4.756-1.712 6.855-2.016.877-.069 1.801.542 2.261.798l1.714-.294c3.943 12.228 12.208 22.111 22.675 28.313l-.714 1.715c.257.665.542 1.565.351 2.223-.765 1.978-2.073 4.067-3.561 6.396-.721 1.076-1.459 1.911-2.108 3.142-.157.294-.355.747-.504 1.058-1.011 2.162-.27 4.654 1.672 5.587 1.954.942 4.379-.051 5.427-2.217.001-.004.006-.005.008-.009v-.008c.15-.307.362-.712.488-1 .557-1.277.742-2.37 1.134-3.604 1.04-2.613 1.613-5.356 3.043-7.064.393-.467 1.032-.648 1.696-.825l.89-1.614a50.799 50.799 0 0 0 29.539 2.127 51.142 51.142 0 0 0 6.746-2.033c.251.444.716 1.297.84 1.512.674.219 1.409.332 2.008 1.218 1.071 1.83 1.804 3.996 2.696 6.612.393 1.234.586 2.328 1.144 3.604.126.291.337.701.487 1.008 1.046 2.174 3.479 3.169 5.436 2.226 1.94-.934 2.682-3.425 1.671-5.587-.15-.311-.357-.764-.512-1.058-.652-1.231-1.388-2.058-2.11-3.133-1.489-2.329-2.722-4.264-3.486-6.244-.319-1.02.054-1.655.303-2.317-.15-.171-.467-1.135-.655-1.589 10.877-6.422 18.899-16.674 22.667-28.514.507.08 1.392.236 1.68.294.591-.39 1.134-.899 2.201-.815 2.099.303 4.254 1.083 6.856 2.017 1.209.463 2.182 1.001 3.528 1.36.285.077.692.147 1.016.219.026.006.051.019.077.025l.059.008c2.331.502 4.595-.774 5.073-2.873.479-2.099-1.008-4.23-3.326-4.789-.337-.076-.816-.207-1.142-.269-1.369-.259-2.482-.194-3.773-.302-2.749-.289-5.025-.522-7.049-1.159-.824-.321-1.411-1.302-1.697-1.707l-1.587-.462a50.82 50.82 0 0 0-.824-18.357 50.91 50.91 0 0 0-7.368-17.028c.406-.371 1.176-1.052 1.394-1.253.064-.705.009-1.445.74-2.226 1.545-1.452 3.496-2.656 5.848-4.109 1.115-.657 2.146-1.079 3.267-1.906.254-.188.6-.484.866-.698 1.886-1.505 2.32-4.098.966-5.798-1.355-1.697-3.978-1.857-5.864-.351-.27.213-.633.49-.874.697-1.056.908-1.708 1.805-2.597 2.747-1.938 1.969-3.542 3.613-5.301 4.797-.762.444-1.879.29-2.386.26l-1.495 1.067c-8.528-8.942-20.137-14.659-32.639-15.769a107.75 107.75 0 0 1-.092-1.756c-.512-.49-1.131-.908-1.285-1.966-.172-2.113.114-4.389.444-7.132.183-1.283.487-2.347.537-3.739.012-.316-.005-.776-.007-1.118 0-2.412-1.76-4.369-3.931-4.369zm-4.925 30.497l-1.167 20.626-.084.042a3.466 3.466 0 0 1-5.503 2.655l-.034.017-16.911-11.989c5.197-5.112 11.846-8.888 19.508-10.628a41.99 41.99 0 0 1 4.191-.723zm9.857 0a40.852 40.852 0 0 1 23.555 11.359l-16.801 11.913-.06-.025a3.468 3.468 0 0 1-4.754-.638 3.451 3.451 0 0 1-.757-2.008l-.016-.008-1.167-20.593zm-39.69 19.056l15.442 13.811-.017.084a3.46 3.46 0 0 1 .437 4.772 3.472 3.472 0 0 1-1.797 1.185l-.017.067-19.795 5.713a40.496 40.496 0 0 1 5.747-25.632zm69.403.008a41.005 41.005 0 0 1 5.067 12.375 40.968 40.968 0 0 1 .856 13.182l-19.893-5.73-.017-.084a3.468 3.468 0 0 1-1.36-5.957l-.009-.042 15.356-13.744zm-37.813 14.87h6.326l3.932 4.915-1.411 6.133-5.679 2.73-5.696-2.738-1.413-6.133 3.941-4.907zm20.281 16.82c.268-.014.536.011.798.059l.033-.042 20.474 3.461a40.554 40.554 0 0 1-16.391 20.592l-7.947-19.197.024-.034a3.472 3.472 0 0 1 1.681-4.495 3.45 3.45 0 0 1 1.328-.344zm-34.387.084a3.467 3.467 0 0 1 3.134 4.831l.058.075-7.863 19.004c-7.353-4.718-13.209-11.782-16.341-20.448l20.297-3.445.034.042c.227-.042.457-.062.681-.059zm17.147 8.326a3.42 3.42 0 0 1 1.622.345 3.434 3.434 0 0 1 1.554 1.478h.076l10.006 18.08a41.334 41.334 0 0 1-3.999 1.117c-7.653 1.738-15.281 1.212-22.189-1.142l9.981-18.047h.016a3.476 3.476 0 0 1 2.933-1.831z" fill="#FFF"></path><path d="M826.428 24.008c-2.172 0-3.934 1.957-3.933 4.369 0 .038.007.073.009.11-.003.327-.018.722-.009 1.008.052 1.392.355 2.456.537 3.739.332 2.743.609 5.019.438 7.132-.167.798-.754 1.527-1.277 2.034l-.092 1.663c-2.36.195-4.736.553-7.109 1.091a50.587 50.587 0 0 0-25.691 14.678 62.932 62.932 0 0 1-1.419-1.008c-.703.095-1.413.311-2.337-.227-1.759-1.184-3.362-2.82-5.301-4.789-.888-.941-1.532-1.839-2.587-2.747-.24-.206-.605-.485-.875-.698a4.672 4.672 0 0 0-2.738-1.032c-1.209-.042-2.372.43-3.134 1.386-1.354 1.697-.92 4.292.967 5.797.019.015.039.027.058.042.26.21.577.479.815.655 1.121.827 2.144 1.251 3.259 1.907 2.353 1.452 4.303 2.657 5.849 4.109.603.643.709 1.777.789 2.268l1.26 1.125c-6.747 10.153-9.868 22.693-8.024 35.471l-1.645.48c-.435.56-1.048 1.442-1.689 1.705-2.024.637-4.301.872-7.049 1.159-1.291.108-2.404.044-3.773.303-.3.057-.721.166-1.05.243l-.033.009c-.019.004-.042.012-.059.016-2.317.561-3.805 2.691-3.327 4.789.48 2.1 2.742 3.376 5.074 2.874.018-.004.042-.004.06-.009.025-.006.049-.019.075-.025.324-.072.732-.15 1.017-.227 1.345-.36 2.319-.889 3.528-1.353 2.602-.932 4.756-1.712 6.855-2.016.877-.069 1.801.542 2.261.798l1.714-.294c3.943 12.228 12.208 22.111 22.675 28.313l-.714 1.715c.257.665.542 1.565.351 2.223-.765 1.978-2.073 4.067-3.561 6.396-.721 1.076-1.459 1.911-2.108 3.142-.157.294-.355.747-.504 1.058-1.011 2.162-.27 4.654 1.672 5.587 1.954.942 4.379-.051 5.427-2.217.001-.004.006-.005.008-.009v-.008c.15-.307.362-.712.488-1 .557-1.277.742-2.37 1.134-3.604 1.04-2.613 1.613-5.356 3.043-7.064.393-.467 1.032-.648 1.696-.825l.89-1.614a50.799 50.799 0 0 0 29.539 2.127 51.142 51.142 0 0 0 6.746-2.033c.251.444.716 1.297.84 1.512.674.219 1.409.332 2.008 1.218 1.071 1.83 1.804 3.996 2.696 6.612.393 1.234.586 2.328 1.144 3.604.126.291.337.701.487 1.008 1.046 2.174 3.479 3.169 5.436 2.226 1.94-.934 2.682-3.425 1.671-5.587-.15-.311-.357-.764-.512-1.058-.652-1.231-1.388-2.058-2.11-3.133-1.489-2.329-2.722-4.264-3.486-6.244-.319-1.02.054-1.655.303-2.317-.15-.171-.467-1.135-.655-1.589 10.877-6.422 18.899-16.674 22.667-28.514.507.08 1.392.236 1.68.294.591-.39 1.134-.899 2.201-.815 2.099.303 4.254 1.083 6.856 2.017 1.209.463 2.182 1.001 3.528 1.36.285.077.692.147 1.016.219.026.006.051.019.077.025l.059.008c2.331.502 4.595-.774 5.073-2.873.479-2.099-1.008-4.23-3.326-4.789-.337-.076-.816-.207-1.142-.269-1.369-.259-2.482-.194-3.773-.302-2.749-.289-5.025-.522-7.049-1.159-.824-.321-1.411-1.302-1.697-1.707l-1.587-.462a50.82 50.82 0 0 0-.824-18.357 50.91 50.91 0 0 0-7.368-17.028c.406-.371 1.176-1.052 1.394-1.253.064-.705.009-1.445.74-2.226 1.545-1.452 3.496-2.656 5.848-4.109 1.115-.657 2.146-1.079 3.267-1.906.254-.188.6-.484.866-.698 1.886-1.505 2.32-4.098.966-5.798-1.355-1.697-3.978-1.857-5.864-.351-.27.213-.633.49-.874.697-1.056.908-1.708 1.805-2.597 2.747-1.938 1.969-3.542 3.613-5.301 4.797-.762.444-1.879.29-2.386.26l-1.495 1.067c-8.528-8.942-20.137-14.659-32.639-15.769a107.75 107.75 0 0 1-.092-1.756c-.512-.49-1.131-.908-1.285-1.966-.172-2.113.114-4.389.444-7.132.183-1.283.487-2.347.537-3.739.012-.316-.005-.776-.007-1.118 0-2.412-1.76-4.369-3.931-4.369zm-4.925 30.497l-1.167 20.626-.084.042a3.466 3.466 0 0 1-5.503 2.655l-.034.017-16.911-11.989c5.197-5.112 11.846-8.888 19.508-10.628a41.99 41.99 0 0 1 4.191-.723zm9.857 0a40.852 40.852 0 0 1 23.555 11.359l-16.801 11.913-.06-.025a3.468 3.468 0 0 1-4.754-.638 3.451 3.451 0 0 1-.757-2.008l-.016-.008-1.167-20.593zm-39.69 19.056l15.442 13.811-.017.084a3.46 3.46 0 0 1 .437 4.772 3.472 3.472 0 0 1-1.797 1.185l-.017.067-19.795 5.713a40.496 40.496 0 0 1 5.747-25.632zm69.403.008a41.005 41.005 0 0 1 5.067 12.375 40.968 40.968 0 0 1 .856 13.182l-19.893-5.73-.017-.084a3.468 3.468 0 0 1-1.36-5.957l-.009-.042 15.356-13.744zm-37.813 14.87h6.326l3.932 4.915-1.411 6.133-5.679 2.73-5.696-2.738-1.413-6.133 3.941-4.907zm20.281 16.82c.268-.014.536.011.798.059l.033-.042 20.474 3.461a40.554 40.554 0 0 1-16.391 20.592l-7.947-19.197.024-.034a3.472 3.472 0 0 1 1.681-4.495 3.45 3.45 0 0 1 1.328-.344zm-34.387.084a3.467 3.467 0 0 1 3.134 4.831l.058.075-7.863 19.004c-7.353-4.718-13.209-11.782-16.341-20.448l20.297-3.445.034.042c.227-.042.457-.062.681-.059zm17.147 8.326a3.42 3.42 0 0 1 1.622.345 3.434 3.434 0 0 1 1.554 1.478h.076l10.006 18.08a41.334 41.334 0 0 1-3.999 1.117c-7.653 1.738-15.281 1.212-22.189-1.142l9.981-18.047h.016a3.476 3.476 0 0 1 2.933-1.831z" stroke="#FFF" stroke-width=".224"></path><path d="M838.919 308.422s1.974 10.354 13.331 13.07c12.277 2.935 2.143 23.91 2.143 23.91h53.166s4.376-5.305 3.834-23.459c-.542-18.154.201-48.595-24.667-60.334-38.333-17.333-49.333 8.667-49.333 8.667s17.583 4.833 19.25 14.863c3.314 19.948-17.724 23.283-17.724 23.283" fill="#FDBDB4"></path><path d="M847.139 376.964l1.194-34.679c17.246-4.509 57.461-7.028 67.79.344l1.676 35.996-35.097 8.931-35.563-10.592z" fill="#FFF"></path><path d="M370.434 255.612a3.691 3.691 0 0 1-.372-7.366l64.52-6.051a3.67 3.67 0 0 1 4.021 3.33 3.693 3.693 0 0 1-3.33 4.02l-64.521 6.051a4.387 4.387 0 0 1-.318.016m3.188 19.672a3.69 3.69 0 0 1-.418-7.361l64.466-6.794a3.675 3.675 0 0 1 4.057 3.283 3.69 3.69 0 0 1-3.283 4.057l-64.466 6.794c-.12.013-.239.02-.356.021m3.136 19.44a3.692 3.692 0 0 1-.411-7.359l64.463-7.071a3.68 3.68 0 0 1 4.07 3.265 3.689 3.689 0 0 1-3.266 4.07l-64.462 7.071a3.5 3.5 0 0 1-.394.024m3.152 19.524a3.69 3.69 0 0 1-.424-7.356l64.445-7.519a3.684 3.684 0 0 1 4.093 3.237 3.69 3.69 0 0 1-3.237 4.092l-64.445 7.52a3.708 3.708 0 0 1-.432.026m3.176 19.635a3.689 3.689 0 0 1-3.655-3.226 3.69 3.69 0 0 1 3.195-4.126l64.404-8.188a3.689 3.689 0 1 1 .931 7.321l-64.404 8.188a3.593 3.593 0 0 1-.471.031m3.177 19.635a3.691 3.691 0 0 1-.498-7.348l64.363-8.857a3.698 3.698 0 0 1 4.159 3.154 3.688 3.688 0 0 1-3.153 4.159l-64.363 8.857c-.17.023-.34.035-.508.035m314.929-122.326c-.062 0-.125-.001-.187-.004-25.101-1.222-63.065-3-67.002-3h-.101a3.794 3.794 0 0 1-1.896-7.25c1.111-.487 1.438-.635 69.368 2.672a3.794 3.794 0 0 1-.182 7.582m-.369 18.348c-.063 0-.128-.001-.191-.005-24.98-1.238-62.776-3.042-66.645-3.042h-.091a3.79 3.79 0 0 1-3.847-2.259 3.793 3.793 0 0 1 1.96-4.994c1.106-.482 1.44-.632 68.999 2.718a3.793 3.793 0 0 1-.185 7.582m-.37 18.347c-.065 0-.129-.001-.195-.004-24.858-1.255-62.484-3.086-66.287-3.086h-.08a3.786 3.786 0 0 1-3.847-2.265 3.793 3.793 0 0 1 1.968-4.991c1.1-.476 1.442-.629 68.629 2.764a3.794 3.794 0 1 1-.188 7.582m-.37 18.348c-.065 0-.131-.001-.198-.005-24.737-1.272-62.194-3.128-65.929-3.128h-.071a3.784 3.784 0 0 1-3.847-2.271 3.795 3.795 0 0 1 1.977-4.988c1.095-.47 1.442-.626 68.261 2.81a3.795 3.795 0 0 1-.193 7.582m-.369 18.347c-.066 0-.133-.001-.201-.005-24.616-1.289-61.903-3.171-65.572-3.171h-.06a3.784 3.784 0 0 1-3.848-2.278 3.795 3.795 0 0 1 1.987-4.984c1.088-.465 1.443-.623 67.89 2.856a3.794 3.794 0 0 1-.196 7.582m-.369 18.347c-.068 0-.136-.001-.205-.005-24.495-1.306-61.614-3.214-65.215-3.214h-.05a3.779 3.779 0 0 1-3.847-2.284 3.795 3.795 0 0 1 1.995-4.981c1.083-.46 1.445-.62 67.521 2.903a3.793 3.793 0 0 1-.199 7.581" fill="#81C3D3"></path><path d="M839.725 369.066c27.738-3.617 56.405-.079 84.041 1.417 0 0 11.39 184.26-86.854 327.582-2.577 3.99-77.77 15.725-99.17-27.004-.112 3.494 93.513-67.291 101.983-301.995" fill="#FFBB43"></path><path d="M923.766 370.483a880.675 880.675 0 0 1-12.095-.754c.954 35.026.087 217.031-113.914 332.601 20.392 1.255 37.934-2.373 39.155-4.265 98.244-143.322 86.854-327.582 86.854-327.582m-71.224 22.294a8.422 8.422 0 1 1 16.845 0 8.422 8.422 0 0 1-16.845 0m-675.629-139.92c-37.589-34.745-9.14-148.846 1.459-181.963a75.482 75.482 0 0 0-4.356 2.769c-.061.041-.121.081-.181.123-.653.45-1.306.916-1.957 1.395-.097.071-.194.14-.29.212-.61.452-1.217.921-1.823 1.399-.133.105-.267.208-.4.314a81.71 81.71 0 0 0-1.694 1.396c-.167.141-.334.277-.5.42-.533.456-1.064.931-1.594 1.409-.189.17-.379.334-.567.507-.53.487-1.057.992-1.584 1.501-.18.174-.362.34-.542.517-.7.688-1.399 1.395-2.093 2.123-.004.011-19.441 56.799-16.899 189.544 26.758 7.968 66.353 3.015 76.531-8.773 0 0 .006-4.062.125-7.848-12.632 5.625-30.468 7.125-43.635-5.045" fill="#F49000"></path><path d="M199.502 244.072a8.422 8.422 0 1 1 16.828.725 8.422 8.422 0 0 1-8.777 8.051 8.42 8.42 0 0 1-8.051-8.776" fill="#F49000"></path></g></svg>