<svg viewBox="0 0 669 244" xmlns="http://www.w3.org/2000/svg"><g stroke="none" stroke-width="1" fill="none" fill-rule="evenodd"><g transform="translate(23 16)"><g transform="matrix(1 0 0 -1 147.997 114.613)" fill="#3E6EDC"><path d="M8.658 16.315c-4.33 0-7.853-3.523-7.853-7.852 0-4.329 3.524-7.85 7.853-7.85s7.852 3.521 7.852 7.85-3.523 7.852-7.852 7.852"/></g><g transform="matrix(1 0 0 -1 .816 212.278)" fill="#3E6EDC" fill-rule="nonzero"><path d="M155.839 88.463c-6.254 0-11.737 3.258-14.877 8.164-2.548-6.187-5.08-13.266-7.001-18.648-7.097-19.867-12.014-32.793-18.49-37.188-3.206-3.282-7.677-5.328-12.632-5.328-9.754 0-17.664 7.91-17.664 17.668 0 6.254 3.258 11.737 8.164 14.877-6.188 2.548-13.267 5.079-18.649 7-19.867 7.097-32.792 12.015-37.185 18.49a17.593 17.593 0 0 0-5.327 12.63c0 9.757 7.907 17.667 17.664 17.667 6.254 0 11.737-3.258 14.877-8.164 2.549 6.187 5.08 13.266 7.001 18.649 7.097 19.866 12.014 32.792 18.49 37.184a17.593 17.593 0 0 0 12.63 5.328c9.756 0 17.667-7.908 17.667-17.665 0-6.254-3.259-11.737-8.165-14.877 6.188-2.548 13.267-5.079 18.65-7 19.866-7.097 32.792-12.015 37.187-18.49 3.281-3.207 5.327-7.677 5.327-12.632 0-9.755-7.91-17.665-17.667-17.665zm-41.924 119.903c-4.176 4.176-10.946 4.176-15.122 0L4.098 113.671c-4.179-4.176-4.179-10.949 0-15.125L98.793 3.851c4.176-4.176 10.946-4.176 15.122 0l94.695 94.695c4.176 4.176 4.176 10.95 0 15.125l-94.695 94.695z"/></g><g transform="matrix(1 0 0 -1 42 114.613)" fill="#3E6EDC"><path d="M8.658 16.315c-4.33 0-7.853-3.523-7.853-7.852 0-4.329 3.524-7.85 7.853-7.85s7.852 3.521 7.852 7.85-3.523 7.852-7.852 7.852"/></g><g transform="matrix(1 0 0 -1 94.998 167.61)" fill="#3E6EDC"><path d="M8.658 16.315c-4.33 0-7.853-3.52-7.853-7.852 0-4.329 3.524-7.85 7.853-7.85s7.852 3.521 7.852 7.85c0 4.332-3.523 7.852-7.852 7.852"/></g><g transform="matrix(1 0 0 -1 59.573 150.359)" fill="#3E6EDC"><path d="M31.745 84.577c-.961.94-1.81 1.991-2.537 3.128-2.55-6.187-5.079-13.266-7.001-18.645-7.096-19.87-12.014-32.793-18.49-37.188a17.792 17.792 0 0 0-3.128-2.54c6.184-2.548 13.263-5.079 18.646-7.001C39.1 15.237 52.027 10.317 56.422 3.841A17.651 17.651 0 0 0 58.96.716C61.51 6.9 64.039 13.979 65.96 19.36c7.097 19.867 12.014 32.793 18.49 37.188.941.961 1.991 1.81 3.128 2.537-6.184 2.548-13.263 5.08-18.645 7.001-19.867 7.097-32.793 12.014-37.188 18.49"/></g><g transform="matrix(1 0 0 -1 94.998 61.002)" fill="#3E6EDC"><path d="M8.658 0c4.329 0 7.852 3.524 7.852 7.853 0 4.328-3.523 7.85-7.852 7.85-4.33 0-7.853-3.522-7.853-7.85C.805 3.523 4.33 0 8.658 0"/></g><g transform="matrix(1 0 0 -1 251.829 99.581)" fill="#4A4A4A"><path d="M9.656 8.69c-.528.528-.906 1.229-1.143 2.103-.233.88-.349 1.992-.349 3.34v54.855L0 67.582V12.816c0-4.331 1.056-7.523 3.163-9.57C5.267 1.199 8.837.117 13.87 0l1.14 6.845c-1.288.176-2.37.396-3.247.658-.877.266-1.579.658-2.107 1.186"/></g><g transform="matrix(1 0 0 -1 272.454 100.501)" fill="#4A4A4A" fill-rule="nonzero"><path d="M9.544 28.859c.176 1.582.54 3.131 1.096 4.652a13.17 13.17 0 0 0 2.326 4.04c.996 1.17 2.208 2.119 3.642 2.852 1.435.73 3.088 1.096 4.961 1.096 3.333 0 5.95-1.183 7.856-3.555 1.899-2.37 2.822-5.4 2.764-9.085H9.544zm12.112 19.572c-2.632 0-5.21-.496-7.723-1.489-2.52-.996-4.741-2.49-6.672-4.476-1.93-1.991-3.48-4.493-4.652-7.506C1.437 31.944.854 28.423.854 24.383c0-3.452.453-6.626 1.36-9.523.906-2.895 2.297-5.397 4.17-7.504 1.872-2.107 4.256-3.76 7.154-4.958 2.897-1.2 6.331-1.8 10.314-1.8 3.157 0 5.98.294 8.467.88 2.488.583 4.228 1.14 5.224 1.665l-1.14 6.848c-.999-.47-2.474-.952-4.433-1.449-1.962-.499-4.375-.747-7.24-.747-5.092 0-8.837 1.23-11.236 3.688-2.4 2.456-3.774 6.055-4.126 10.796h31.248c.055.468.087.978.087 1.535v1.36c0 7.838-1.64 13.676-4.915 17.511-3.278 3.83-7.988 5.746-14.132 5.746z"/></g><g transform="matrix(1 0 0 -1 321.37 100.012)" fill="#4A4A4A" fill-rule="nonzero"><path d="M27.859 7.658c-.996-.237-2.237-.399-3.729-.485a89.8 89.8 0 0 0-5.136-.13c-3.218 0-5.764.569-7.637 1.711-1.873 1.14-2.808 3.172-2.808 6.098 0 1.582.381 2.854 1.143 3.818a8.074 8.074 0 0 0 2.852 2.283c1.14.557 2.398.924 3.774 1.097 1.374.176 2.676.265 3.905.265 1.873 0 3.469-.104 4.785-.306 1.316-.207 2.265-.459 2.851-.747V7.658zm4.17 35.413c-1.376 1.552-3.192 2.753-5.443 3.601-2.254.849-5.018 1.27-8.294 1.27-2.868 0-5.53-.216-7.988-.658-2.456-.439-4.21-.892-5.264-1.36l.964-6.758c.996.41 2.502.802 4.522 1.186 2.018.378 4.372.569 7.065.569 2.107 0 3.818-.306 5.134-.921 1.316-.615 2.355-1.434 3.117-2.459a9.141 9.141 0 0 0 1.578-3.509 18.41 18.41 0 0 0 .439-3.994v-2.283c-.234.058-.644.147-1.23.266-.582.115-1.272.248-2.06.392-.79.147-1.625.263-2.502.352-.877.09-1.726.13-2.545.13-2.577 0-5.033-.26-7.374-.788-2.34-.528-4.386-1.348-6.144-2.459a12.252 12.252 0 0 1-4.17-4.386C.809 19.447.299 17.282.299 14.766c0-2.632.441-4.886 1.319-6.76.877-1.872 2.106-3.378 3.685-4.518C6.88 2.345 8.754 1.514 10.919.986c2.164-.526 4.536-.791 7.11-.791 1.813 0 3.643.075 5.487.22 1.841.146 3.555.308 5.134.484 1.578.176 2.995.364 4.256.568 1.259.208 2.237.364 2.941.482v28.528c0 2.574-.294 4.929-.877 7.064-.586 2.139-1.567 3.98-2.94 5.53z"/></g><g transform="matrix(1 0 0 -1 370.588 98.9)" fill="#4A4A4A"><path d="M22.087 46.174c-.88.145-1.772.263-2.678.35-.906.09-1.711.132-2.415.132-3.567 0-6.785-.306-9.654-.92-2.868-.615-5.267-1.273-7.197-1.977V.052h8.164v38.356c.468.116 1.449.335 2.938.656 1.495.32 2.998.484 4.522.484 2.338 0 4.257-.164 5.749-.484 1.492-.32 2.557-.6 3.203-.834l1.403 7.11c-.35.116-.892.249-1.622.396-.733.144-1.535.291-2.413.438"/></g><g transform="matrix(1 0 0 -1 403.937 99.37)" fill="#4A4A4A"><path d="M33.63 41.289c-1.433 1.844-3.35 3.278-5.748 4.3-2.398 1.024-5.411 1.535-9.041 1.535-4.035 0-7.608-.26-10.707-.788-3.102-.528-5.587-1.025-7.46-1.495V.52h8.161v38.533c.295.055.776.144 1.449.26.672.118 1.431.222 2.283.308.845.09 1.74.162 2.678.22.932.06 1.844.086 2.718.086 2.165 0 3.98-.274 5.443-.83 1.463-.558 2.632-1.45 3.512-2.676.878-1.23 1.504-2.843 1.885-4.828.38-1.991.571-4.39.571-7.198V.52h8.164v25.63c0 3.1-.294 5.94-.877 8.514-.586 2.574-1.596 4.781-3.03 6.626"/></g><g transform="matrix(1 0 0 -1 453.879 99.828)" fill="#4A4A4A"><path d="M35.517 14.43a137.574 137.574 0 0 1-5.443 6.813c-1.873 2.196-3.685 4.087-5.44 5.67a255.532 255.532 0 0 1 9.7 10.03 604.53 604.53 0 0 1 9.081 10.201H27.866c-.82-.99-1.798-2.153-2.938-3.489a662.338 662.338 0 0 0-3.639-4.234 265.257 265.257 0 0 0-3.988-4.49 739.838 739.838 0 0 0-3.988-4.364v38.519L.23 66.982V.978h13.082v20.236c1.457-1.177 2.932-2.611 4.42-4.314a75.563 75.563 0 0 0 4.252-5.319 126.04 126.04 0 0 0 3.81-5.544A249.324 249.324 0 0 0 28.991.978H44.03c-.995 1.934-2.222 4.072-3.685 6.416a100.334 100.334 0 0 1-4.828 7.036"/></g><g transform="matrix(1 0 0 -1 501.525 100.775)" fill="#4A4A4A" fill-rule="nonzero"><path d="M28.859 13.43c-1.403-1.47-3.63-2.202-6.672-2.202-1.579 0-2.924.233-4.038.704-1.11.47-2.017 1.059-2.718 1.76-.701.704-1.215 1.48-1.538 2.33-.32.85-.482 1.63-.482 2.334 0 2.288.557 4.254 1.668 5.896a18.025 18.025 0 0 0 4.124 4.311c1.639-.525 3.174-1.1 4.609-1.717 1.434-.615 2.678-1.319 3.731-2.11 1.05-.79 1.885-1.717 2.5-2.773.614-1.053.92-2.257.92-3.607 0-1.818-.701-3.46-2.104-4.926m-13.69 35.814c.288.759.744 1.474 1.359 2.144.611.672 1.388 1.212 2.326 1.622.932.407 2.046.611 3.333.611 1.345 0 2.487-.216 3.425-.658.933-.435 1.712-.978 2.326-1.616.615-.643 1.054-1.327 1.316-2.057.263-.73.393-1.414.393-2.058 0-2.22-.494-4.083-1.49-5.601-.998-1.518-2.43-2.86-4.3-4.026-3.338 1.166-5.693 2.568-7.067 4.202-1.374 1.63-2.06 3.382-2.06 5.25 0 .7.141 1.428.438 2.187m19.307-15.238c2.225 1.4 4.08 3.316 5.576 5.74 1.492 2.424 2.236 5.039 2.236 7.844 0 1.93-.366 3.873-1.097 5.827-.73 1.956-1.919 3.725-3.555 5.301-1.636 1.579-3.729 2.877-6.277 3.902-2.545 1.021-5.601 1.535-9.171 1.535-3.042 0-5.807-.485-8.294-1.449-2.488-.964-4.606-2.248-6.364-3.855a16.936 16.936 0 0 1-4.08-5.654 16.35 16.35 0 0 1-1.45-6.75c0-3.094.601-5.636 1.799-7.622 1.2-1.988 3.059-4.005 5.575-6.048a34.134 34.134 0 0 1-3.292-2.814 21.59 21.59 0 0 1-2.765-3.293 15.463 15.463 0 0 1-1.93-4c-.468-1.466-.702-3.076-.702-4.837 0-1.7.35-3.558 1.056-5.578.701-2.02 1.885-3.882 3.553-5.581C6.96 4.97 9.154 3.55 11.875 2.41 14.597 1.268 18.002.697 22.1.697c3.57 0 6.713.456 9.437 1.362 2.719.906 4.987 2.182 6.8 3.824 1.815 1.64 3.174 3.558 4.083 5.754.906 2.2 1.36 4.618 1.36 7.253 0 3.163-.717 5.93-2.15 8.305-1.435 2.372-3.816 4.644-7.155 6.811"/></g><g transform="matrix(1 0 0 -1 551.436 100.364)" fill="#4A4A4A"><path d="M35.517 19.201c-.439 1.46-1.2 2.788-2.283 3.986-1.082 1.195-2.56 2.311-4.433 3.342-1.873 1.03-4.242 2.08-7.108 3.142-1.405.531-2.562 1.016-3.466 1.46-.912.442-1.627.855-2.15 1.236-.528.378-.88.773-1.056 1.183a3.57 3.57 0 0 0-.263 1.405c0 2.28 2.05 3.423 6.145 3.423 2.222 0 4.224-.208 6.014-.615a47.658 47.658 0 0 0 4.955-1.405l2.283 10.184c-1.521.583-3.57 1.123-6.144 1.622-2.575.497-5.267.745-8.072.745-5.62 0-10.038-1.258-13.255-3.775-3.218-2.516-4.828-5.936-4.828-10.265 0-2.228.32-4.127.966-5.708.644-1.579 1.55-2.938 2.719-4.081 1.172-1.14 2.591-2.121 4.26-2.938a58.836 58.836 0 0 1 5.572-2.372c2.635-.993 4.592-1.888 5.882-2.675 1.287-.791 1.93-1.712 1.93-2.765 0-1.348-.496-2.257-1.492-2.724-.998-.468-2.692-.702-5.093-.702-2.28 0-4.592.249-6.932.748a42.703 42.703 0 0 0-6.846 2.063L.626 3.095C1.68 2.625 3.57 2.042 6.288 1.34 9.01.636 12.418.284 16.513.284c6.262 0 11.105 1.172 14.528 3.504 3.422 2.337 5.134 5.78 5.134 10.334 0 1.925-.22 3.62-.658 5.08"/></g><path d="M280.79 145.71l.055.166c.073 4.053-1.243 7.35-3.949 9.891-2.705 2.54-6.37 3.81-10.992 3.81-4.677 0-8.479-1.572-11.405-4.718-2.925-3.146-4.388-7.167-4.388-12.065v-7.622c0-4.879 1.444-8.9 4.333-12.065 2.89-3.164 6.645-4.746 11.268-4.746 4.732 0 8.46 1.243 11.184 3.728 2.724 2.486 4.05 5.829 3.976 10.03l-.055.164h-6.466c0-2.696-.729-4.796-2.187-6.3-1.458-1.505-3.61-2.257-6.452-2.257-2.734 0-4.903 1.082-6.508 3.247-1.605 2.164-2.407 4.88-2.407 8.144v7.677c0 3.302.82 6.035 2.462 8.2 1.642 2.164 3.857 3.246 6.645 3.246 2.77 0 4.87-.743 6.301-2.229 1.43-1.486 2.146-3.586 2.146-6.3h6.439zm37.832-3.136c0 4.897-1.536 8.956-4.608 12.175-3.073 3.22-7.058 4.829-11.956 4.829-4.805 0-8.708-1.61-11.707-4.829-3-3.22-4.499-7.278-4.499-12.175v-7.21c0-4.878 1.5-8.932 4.499-12.16 3-3.229 6.892-4.843 11.68-4.843 4.898 0 8.887 1.614 11.969 4.842 3.081 3.229 4.622 7.283 4.622 12.162v7.209zm-6.658-7.264c0-3.339-.894-6.08-2.683-8.227-1.788-2.146-4.205-3.22-7.25-3.22-2.935 0-5.255 1.074-6.961 3.22-1.706 2.146-2.56 4.888-2.56 8.227v7.264c0 3.375.854 6.14 2.56 8.295 1.706 2.156 4.035 3.233 6.988 3.233 3.064 0 5.48-1.073 7.25-3.219 1.77-2.146 2.656-4.916 2.656-8.31v-7.263zM357.143 159h-6.659l-17.774-29.248-.165.055V159h-6.686v-40.061h6.686l17.774 29.22.165-.055V118.94h6.659V159zm30.486-10.29c0-1.67-.62-3.036-1.857-4.1-1.238-1.064-3.426-2.018-6.562-2.862-4.476-1.174-7.92-2.728-10.332-4.663-2.412-1.936-3.618-4.472-3.618-7.608 0-3.229 1.334-5.888 4.003-7.98 2.669-2.09 6.113-3.136 10.332-3.136 4.402 0 7.938 1.183 10.607 3.55 2.669 2.366 3.957 5.209 3.865 8.529l-.055.165h-6.41c0-2.055-.698-3.72-2.092-4.994-1.394-1.275-3.384-1.912-5.97-1.912-2.44 0-4.315.532-5.627 1.596-1.312 1.063-1.967 2.44-1.967 4.127 0 1.522.71 2.788 2.132 3.797 1.422 1.009 3.774 1.962 7.058 2.861 4.31 1.156 7.584 2.752 9.822 4.788 2.238 2.036 3.357 4.631 3.357 7.786 0 3.339-1.334 5.994-4.003 7.966-2.67 1.972-6.177 2.958-10.525 2.958-4.182 0-7.85-1.105-11.006-3.316-3.155-2.21-4.686-5.241-4.594-9.093l.055-.165h6.438c0 2.44.844 4.26 2.531 5.461 1.688 1.202 3.88 1.802 6.576 1.802 2.477 0 4.403-.5 5.778-1.5 1.376-.999 2.064-2.352 2.064-4.057zm44.161-29.771v26.854c0 4.439-1.45 7.846-4.347 10.222-2.899 2.375-6.686 3.563-11.364 3.563-4.586 0-8.3-1.192-11.143-3.577s-4.265-5.787-4.265-10.208v-26.854h6.686v26.854c0 2.806.789 4.916 2.366 6.328 1.578 1.413 3.696 2.119 6.356 2.119 2.752 0 4.944-.706 6.576-2.119 1.633-1.412 2.449-3.522 2.449-6.328v-26.854h6.686zm14.665 34.723h18.408V159h-25.094v-40.061h6.686v34.723zm51.178-29.358h-12.107V159h-6.686v-34.696h-12.106v-5.365h30.899v5.365zM509.932 159h-6.686v-40.061h6.686V159zm40.419 0h-6.659l-17.774-29.248-.165.055V159h-6.687v-40.061h6.687l17.774 29.22.165-.055V118.94h6.659V159zm38.63-5.42c-1.064 1.522-2.81 2.902-5.241 4.14-2.43 1.239-5.554 1.858-9.37 1.858-4.823 0-8.795-1.527-11.913-4.581-3.118-3.055-4.677-7.003-4.677-11.845v-8.365c0-4.842 1.472-8.79 4.416-11.845 2.944-3.054 6.745-4.581 11.405-4.581 4.714 0 8.378 1.16 10.992 3.48 2.614 2.32 3.948 5.343 4.003 9.067l-.055.165h-6.328c-.147-2.202-.931-3.976-2.353-5.324-1.421-1.349-3.48-2.023-6.177-2.023-2.77 0-5.003 1.037-6.7 3.11-1.696 2.072-2.545 4.704-2.545 7.896v8.42c0 3.228.922 5.883 2.765 7.965 1.844 2.082 4.233 3.123 7.168 3.123 2.091 0 3.788-.243 5.09-.73 1.303-.485 2.247-1.058 2.834-1.719v-8.144h-7.952v-5.008h14.638v14.94z" fill="#4A4A4A"/></g></g></svg>