<svg viewBox="0 0 1200 900" xmlns="http://www.w3.org/2000/svg"><defs><linearGradient x1="85.463%" y1="97.424%" x2="5.901%" y2="-3.699%" id="linearGradient-3"><stop stop-color="#4F66B8" offset="0%"/><stop stop-color="#484FAA" offset="100%"/></linearGradient><linearGradient x1="110.581%" y1="94.278%" x2="14.495%" y2="-3.444%" id="linearGradient-6"><stop stop-color="#4F66B8" offset="0%"/><stop stop-color="#484FAA" offset="100%"/></linearGradient><linearGradient x1="63.024%" y1="94.539%" x2="11.694%" y2="17.572%" id="linearGradient-9"><stop stop-color="#4B67BA" offset="0%"/><stop stop-color="#5080C8" offset="100%"/></linearGradient></defs><g fill="none" fill-rule="evenodd"><path d="M570.504 247.789l-3.261-9.831h-15.58l-3.15 9.83h-6.864l14.254-39.15h7.428l14.037 39.15h-6.864zm-17.21-14.86h12.374l-6.217-18.08-6.158 18.08zm63.67 14.859V228.3c0-1.735-.336-2.978-1.01-3.73-.675-.751-1.78-1.132-3.317-1.132-1.164 0-2.402.2-3.714.594-1.312.394-2.453.895-3.432 1.498v22.26h-6.637v-19.492c0-1.735-.338-2.978-1.012-3.73-.674-.751-1.783-1.132-3.321-1.132-1.086 0-2.259.181-3.515.538a15.666 15.666 0 0 0-3.626 1.554v22.26h-6.638v-28.754h5.51l.62 2.877c1.875-1.28 3.644-2.218 5.316-2.826 1.668-.598 3.344-.9 5.035-.9 3.483 0 5.885 1.295 7.196 3.897 3.756-2.602 7.354-3.897 10.804-3.897 2.661 0 4.726.724 6.185 2.172 1.465 1.452 2.194 3.553 2.194 6.3v21.131h-6.637m30.096 0l-.508-2.769a15.557 15.557 0 0 1-4.36 2.658c-1.59.636-3.174.96-4.754.96-2.623 0-4.748-.788-6.383-2.375-1.63-1.582-2.444-3.632-2.444-6.156 0-2.788 1.003-5.006 3.007-6.671 2.01-1.656 4.698-2.482 8.07-2.482 1.99 0 4.166.283 6.526.849v-3.336c0-1.92-.41-3.257-1.238-4.008-.822-.756-2.267-1.132-4.332-1.132-2.924 0-6.277.621-10.065 1.865v-4.69c1.409-.715 3.136-1.281 5.182-1.694a30.932 30.932 0 0 1 6.153-.622c3.741 0 6.499.757 8.277 2.26 1.774 1.508 2.66 3.86 2.66 7.06v20.284h-5.791m-7.594-3.902c1.067 0 2.18-.232 3.349-.7a14.079 14.079 0 0 0 3.4-2.01v-5.423c-1.94-.412-3.659-.621-5.155-.621-3.802 0-5.7 1.526-5.7 4.579 0 1.317.365 2.343 1.094 3.076.73.737 1.737 1.1 3.012 1.1m17.657 3.901v-4.918l15.977-18.757h-15.409v-5.08h22.555v4.913l-15.977 18.757h16.143v5.085zm39.939.847c-4.347 0-7.746-1.345-10.18-4.04-2.44-2.692-3.654-6.43-3.654-11.214 0-4.783 1.215-8.513 3.653-11.185 2.435-2.673 5.834-4.009 10.18-4.009 4.352 0 7.747 1.336 10.181 4.009 2.439 2.672 3.658 6.402 3.658 11.185s-1.219 8.522-3.658 11.213c-2.434 2.696-5.83 4.041-10.18 4.041m0-5.256c4.725 0 7.085-3.336 7.085-9.998 0-6.63-2.36-9.942-7.085-9.942-4.72 0-7.086 3.312-7.086 9.942 0 6.662 2.365 9.998 7.086 9.998m38.306 4.408V228.75c0-1.846-.375-3.192-1.123-4.04-.753-.845-1.95-1.272-3.598-1.272-2.48 0-5.007.83-7.598 2.487v21.863h-6.638v-28.754h5.515l.67 3.16c3.529-2.672 7.206-4.009 11.026-4.009 2.739 0 4.822.724 6.25 2.172 1.417 1.452 2.133 3.553 2.133 6.3v21.131h-6.637m19.969.001v-39.151h23.002v2.992h-19.681v14.41h16.873v2.992h-16.873v15.76h19.681v2.997zm29.64 0v-39.151h3.321v18.135l17.89-18.135h4.277l-18.906 19.095 20.476 20.056h-4.559l-19.178-18.757v18.757zm37.8-19.774c-2.886-1.127-5.007-2.477-6.355-4.04-1.35-1.564-2.023-3.494-2.023-5.79 0-3.127 1.113-5.656 3.344-7.6 2.235-1.939 5.164-2.908 8.804-2.908 1.649 0 3.385.194 5.2.593 1.82.395 3.539.951 5.15 1.666v2.88c-3.824-1.354-7.219-2.031-10.18-2.031-2.886 0-5.099.63-6.642 1.893-1.538 1.262-2.305 3.062-2.305 5.39 0 1.323.24 2.385.707 3.192.467.817 1.238 1.55 2.305 2.209 1.072.658 2.596 1.364 4.587 2.12l6.014 2.315c2.702 1.053 4.67 2.338 5.908 3.869 1.237 1.522 1.856 3.433 1.856 5.73 0 3.354-1.233 6.068-3.686 8.137-2.452 2.074-5.69 3.108-9.7 3.108-4.166 0-7.88-.793-11.14-2.37v-2.886c3.94 1.433 7.556 2.148 10.859 2.148 3.113 0 5.593-.733 7.45-2.2 1.862-1.474 2.785-3.465 2.785-5.988 0-1.545-.508-2.863-1.515-3.958-1.016-1.09-2.646-2.069-4.896-2.936l-6.527-2.543" fill="#232A3A"/><path fill="url(#linearGradient-3)" mask="url(#mask-2)" d="M32.841.204L11.257 22.408V.204H3.76v52.698h7.497V26.555l23.381 26.347h9.594L19.049 24.667 42.735.204z" transform="translate(417.048 199.269)"/><path d="M5.164 2.213c-1.011.005-1.945.775-2.037 1.874-.005.06-.005.116-.005.177v38.209c0 .728.388 1.406 1.017 1.772l36.915 21.401a2.05 2.05 0 0 1 1.02 1.772v42.812a2.05 2.05 0 0 0 1.017 1.772l32.943 19.105c1.358.788 3.053-.2 3.053-1.768V45.952a2.04 2.04 0 0 0-1.016-1.772L6.176 2.491a1.991 1.991 0 0 0-.869-.269c-.004-.004-.009-.004-.014-.004H5.23c-.01 0-.023 0-.037-.005h-.028z" fill="url(#linearGradient-6)" mask="url(#mask-5)" transform="translate(440.143 134.318)"/><path d="M73.923 2.213c-.097 0-.198.01-.295.023-.01.005-.014.005-.023.005H73.6a2.13 2.13 0 0 0-.688.25L1.02 44.181A2.044 2.044 0 0 0 0 45.951v91.715c0 .733.388 1.405 1.02 1.772l79.079 45.86a2.016 2.016 0 0 0 2.032 0l71.896-41.69a2.035 2.035 0 0 0 1.02-1.772 2.03 2.03 0 0 0-1.02-1.772l-32.943-19.105a2.024 2.024 0 0 0-2.037 0L82.13 142.366a2.016 2.016 0 0 1-2.032 0l-42.066-24.393a2.053 2.053 0 0 1-1.02-1.772V67.418c0-.733.392-1.405 1.02-1.772L74.95 44.24a2.05 2.05 0 0 0 1.016-1.772V4.264c0-.956-.624-1.694-1.418-1.949a1.977 1.977 0 0 0-.573-.097c-.014-.005-.032-.005-.046-.005h-.005z" fill="url(#linearGradient-9)" mask="url(#mask-8)" transform="translate(357 134.318)"/><g fill="#035BDA"><path d="M603.358 447.595h-7.169v-27.987a82.362 82.362 0 0 1 .311-8.297 15.285 15.285 0 0 1-1.25 3.993l-13.131 32.551h-4.998l-13.15-32.225c-.311-.919-.622-2.46-1.251-4.34.31 1.844.31 4.607.31 8.607v28.023h-6.877v-43.35h10.313l11.573 28.89a61.124 61.124 0 0 1 1.874 4.92 32.551 32.551 0 0 1 1.873-5.223l11.88-28.892h10.004l-.311 43.329z"/><path d="M616.798 410.095a4.05 4.05 0 0 1-3.125-1.229 3.313 3.313 0 0 1-1.251-2.763c-.12-1.08.36-2.14 1.251-2.763a5.606 5.606 0 0 1 3.125-1.23 4.05 4.05 0 0 1 3.125 1.23 3.313 3.313 0 0 1 1.251 2.763c.12 1.08-.36 2.14-1.251 2.763a4.05 4.05 0 0 1-3.125 1.23zm3.436 37.5h-7.19v-31.04h7.19v31.04z" fill-rule="nonzero"/><path d="M652.423 446.372c-2.502 1.534-5.627 2.17-9.063 2.17-4.688 0-8.442-1.533-11.256-4.304-2.814-2.77-4.34-6.452-4.34-11.067 0-5.223 1.562-9.223 4.687-12.297s7.19-4.608 12.5-4.608c2.578.002 5.13.523 7.501 1.534v6.438a12.521 12.521 0 0 0-6.879-2.46c-3.125 0-5.628.919-7.501 3.074a11.371 11.371 0 0 0-2.814 7.957c0 3.075.94 5.838 2.814 7.682a9.99 9.99 0 0 0 7.19 2.764c2.65-.035 5.2-1.015 7.19-2.764v5.881h-.029zm25.318-23.046a6.756 6.756 0 0 0-3.747-.918c-2.17 0-3.747.918-5.317 2.763-1.57 1.844-2.17 4.34-2.17 7.682v14.756h-7.19v-31.053h7.19v6.452a12.384 12.384 0 0 1 3.125-5.223 7.168 7.168 0 0 1 4.998-1.844 6.33 6.33 0 0 1 2.814.615l.297 6.77z"/><path d="M696.809 448.542c-4.999 0-8.753-1.533-11.574-4.304-2.821-2.77-4.34-6.763-4.34-11.37 0-5.223 1.562-9.224 4.687-12.298s7.19-4.34 12.189-4.34c4.998 0 8.752 1.534 11.573 4.34 2.822 2.807 4.03 6.742 4.03 11.965a17.296 17.296 0 0 1-4.34 11.986 19.263 19.263 0 0 1-12.225 4.021zm.31-27.046c-2.81 0-4.998.921-6.56 2.763-1.563 1.845-2.503 4.608-2.503 7.957 0 3.35.94 5.838 2.503 7.682 1.562 1.845 3.747 2.764 6.56 2.764 2.815 0 5-.92 6.562-2.764 1.562-1.844 2.17-4.304 2.17-7.957 0-3.378-.622-6.148-2.17-7.957a9.035 9.035 0 0 0-6.561-2.459v-.029z" fill-rule="nonzero"/><path d="M718.379 446.676v-6.46c2.814 1.845 5.628 3.075 8.753 3.075 4.374 0 6.56-1.23 6.56-3.69a4.34 4.34 0 0 0-.621-1.844 3.11 3.11 0 0 0-1.563-1.23 15.379 15.379 0 0 0-2.17-.918l-2.814-.919a36.935 36.935 0 0 1-3.436-1.533 17.317 17.317 0 0 1-2.503-1.845 6.677 6.677 0 0 1-1.562-2.46 8.962 8.962 0 0 1-.622-3.074 8.391 8.391 0 0 1 .94-3.993 6.083 6.083 0 0 1 2.814-2.763c1.252-.918 2.503-1.23 4.065-1.844a24.507 24.507 0 0 1 4.688-.615 20.84 20.84 0 0 1 7.812 1.23v6.155a12.615 12.615 0 0 0-7.501-2.17 6.192 6.192 0 0 0-2.503.304c-.622.304-1.251.304-1.873.615a2.423 2.423 0 0 0-1.252 1.23 2.734 2.734 0 0 0-.31 1.533c-.05.631.056 1.265.31 1.845.248.552.695.99 1.252 1.23.698.36 1.424.668 2.17.918.94.304 1.562.615 2.813.919 1.19.64 2.443 1.154 3.74 1.533 1.252.304 1.874 1.23 2.814 1.845a17.078 17.078 0 0 1 1.874 2.46 10.85 10.85 0 0 1 .622 3.377c0 1.534-.311 3.075-1.252 3.993a8 8 0 0 1-2.806 2.792 30.764 30.764 0 0 1-4.34 1.845 20.334 20.334 0 0 1-14.099-1.54z"/><path d="M761.839 448.542c-4.999 0-8.753-1.533-11.574-4.304-2.821-2.77-4.34-6.763-4.34-11.37 0-5.223 1.562-9.224 4.687-12.298s7.19-4.34 12.189-4.34c4.998 0 8.752 1.534 11.573 4.34 2.822 2.807 4.066 6.764 4.066 11.986a17.296 17.296 0 0 1-4.34 11.986 19.929 19.929 0 0 1-12.298 4h.037zm.31-27.046c-2.81 0-4.998.921-6.56 2.763-1.563 1.845-2.503 4.608-2.503 7.957 0 3.35.94 5.838 2.503 7.682 1.562 1.845 3.747 2.764 6.56 2.764 2.815 0 5-.92 6.562-2.764 1.562-1.844 2.17-4.304 2.17-7.957 0-3.378-.622-6.148-2.17-7.957a9.035 9.035 0 0 0-6.576-2.51l.015.022z" fill-rule="nonzero"/><path d="M803.07 407.644a6.38 6.38 0 0 0-3.436-.919c-3.436 0-5.317 1.845-5.317 5.838v4.296h7.19v5.534h-7.19v25.527h-7.16v-25.527h-5.318v-5.534h5.317v-4.918c0-3.379.94-5.838 3.125-7.683a13.447 13.447 0 0 1 12.189-2.17v5.534h.6v.022zm20.637 39.647c-1.249.612-3.124.919-5.627.919-6.25 0-9.064-2.764-9.064-8.608v-17.513h-5.317v-5.533h5.317v-7.075l7.19-1.844v9.222h7.501v5.534h-7.5v15.4a6.88 6.88 0 0 0 .94 3.993c.622.919 1.873 1.23 3.436 1.23a5.346 5.346 0 0 0 3.124-.955v5.23z"/><path d="M599.966 511.425h-8.131l-4.065-11.061h-17.506l-3.747 11.067h-8.123l16.565-43.336h8.109l16.897 43.33zm-14.07-16.907l-6.25-17.209a19.32 19.32 0 0 1-.622-2.763 19.32 19.32 0 0 1-.622 2.763l-5.939 17.21h13.433z" fill-rule="nonzero"/><path d="M628.444 483.437l-16.883 22.424h16.876v5.534h-26.909v-2.712l17.512-22.765h-15.624v-5.533h25.317v3.052zm33.716 27.988h-7.19v-4.913a10.481 10.481 0 0 1-9.693 5.534c-7.502 0-11.256-4.304-11.256-13.216v-18.445h7.19v17.823c0 5.532 2.187 8.297 6.561 8.297a6.915 6.915 0 0 0 5.317-2.17 9.794 9.794 0 0 0 2.17-6.148v-17.802h7.183l-.282 31.04zm27.509-24.277a6.756 6.756 0 0 0-3.747-.919c-2.17 0-3.747.92-5.317 2.764-1.57 1.844-2.17 4.34-2.17 7.682v14.756h-7.19v-31.046h7.19v6.452a12.384 12.384 0 0 1 3.125-5.223 7.168 7.168 0 0 1 4.948-1.844 6.33 6.33 0 0 1 2.814.615l.347 6.763z"/><path d="M721.548 497.905h-21.564c0 2.763.94 5.222 2.814 6.763 1.563 1.533 4.065 2.46 7.19 2.46 3.393.074 6.71-1.01 9.404-3.075v5.534c-2.836 1.856-6.597 2.785-11.284 2.785a14.713 14.713 0 0 1-10.938-4.34c-2.814-2.764-4.065-6.764-4.065-11.987a16.391 16.391 0 0 1 4.34-11.682 14.3 14.3 0 0 1 10.937-4.615c4.34 0 7.502 1.23 10.004 3.993 2.503 2.763 3.436 6.452 3.436 11.371l-.274 2.792zm-6.88-4.92c0-2.459-.622-4.607-1.873-5.837a5.895 5.895 0 0 0-4.999-2.17 6.915 6.915 0 0 0-5.316 2.17c-1.563 1.534-2.17 3.378-2.503 5.838h14.691z" fill-rule="nonzero"/><path d="M474.125 406.151l-23.309 46.944 41.037 47.563-76.165 8.647 118.186 1.236zm-4.597-18.531l-53.511 44.783-39.724 67.02 33.815-3.398z"/></g><g fill-rule="nonzero"><path fill="#CAC9C2" d="M573.678 710.634l-25.62-44.032 25.62-44.032h51.24l25.62 44.032-25.62 44.032h-51.24"/><path d="M600.702 688.269c-11.224 0-20.356-9.093-20.356-20.27 0-11.175 9.132-20.268 20.356-20.268 11.224 0 20.356 9.093 20.356 20.269 0 11.176-9.132 20.269-20.356 20.269" fill="#FFF"/><path d="M640.314 607.96c-1.578-2.714-5.45-4.935-8.606-4.935h-63.457c-3.155 0-7.029 2.22-8.607 4.935l-18.541 31.893c-.146 2.06.235 4.213 1.15 5.786l12.55 21.31 22.406-38.44h70.817c1.675 0 3.55.63 5.18 1.623l-12.893-22.172" fill="#5072AA"/><path d="M541.908 638.457l-.81 1.396c-.146 2.06.235 4.213 1.15 5.786l12.55 21.31 6.677-11.456-19.566-17.036" fill="#4D6796"/><path d="M569.887 619.41c-2.135 0-3.873-1.726-3.873-3.846 0-2.121 1.738-3.846 3.873-3.846 2.135 0 3.872 1.725 3.872 3.846 0 2.12-1.737 3.845-3.872 3.845m63.455-3.845c0 1.966-1.606 3.56-3.586 3.56-1.98 0-3.586-1.594-3.586-3.56 0-1.967 1.606-3.561 3.586-3.561 1.98 0 3.586 1.594 3.586 3.56z" fill="#FFF"/><path d="M671.493 662.593l-18.774-32.622c-1.624-1-3.492-1.634-5.162-1.634h-25.45l22.005 38.914-34.84 61.753c-.767 1.332-2.078 2.543-3.584 3.437h25.607c3.145 0 7.006-2.235 8.578-4.967l31.62-54.944c1.574-2.733 1.574-7.204 0-9.937" fill="#CC4232"/><path d="M653.567 631.434l-.842-1.463c-1.623-1-3.491-1.634-5.161-1.634h-25.451l6.625 11.714 24.829-8.617" fill="#B23F33"/><path d="M629.35 722.951a3.87 3.87 0 0 1-3.86-3.872 3.87 3.87 0 0 1 3.86-3.871 3.87 3.87 0 0 1 3.86 3.871 3.87 3.87 0 0 1-3.86 3.872m30.035-51.603a3.87 3.87 0 0 1-3.86-3.872 3.87 3.87 0 0 1 3.86-3.872 3.87 3.87 0 0 1 3.859 3.872 3.87 3.87 0 0 1-3.86 3.872" fill="#FFF"/><path d="M578.422 706.109l-35.666-60.766c-.92-1.588-1.303-3.762-1.157-5.842l-13.269 22.903c-1.587 2.74-1.587 7.225 0 9.965l31.927 55.106c1.588 2.74 5.486 4.983 8.661 4.983h38c1.52-.897 2.843-2.112 3.617-3.448l13.007-22.901h-45.12" fill="#ECB02A"/><path d="M604.756 732.458h2.21c1.52-.897 2.843-2.112 3.617-3.448l13.008-22.901h-13.852l-4.983 26.349" fill="#C79732"/><path d="M570.563 722.939a3.894 3.894 0 0 1-3.897-3.883 3.894 3.894 0 0 1 3.897-3.883 3.894 3.894 0 0 1 3.897 3.883 3.894 3.894 0 0 1-3.897 3.883m-30.38-51.755a3.894 3.894 0 0 1-3.896-3.883 3.895 3.895 0 0 1 3.896-3.883 3.894 3.894 0 0 1 3.897 3.883 3.894 3.894 0 0 1-3.897 3.883" fill="#FFF"/></g></g></svg>