<svg xmlns="http://www.w3.org/2000/svg" viewBox="0 0 150 150"><path fill="#07B7C4" d="M21.7 98c.5 1.9 1 2.4 1.8 3.2.6.6 3.9 2.7 4.2 3.4.2.5.2 1.2-.5 1.7-.8.5-2.3.5-3.3.3-2.2-.3-3.8-1.6-5.6-2.9-.2.2-.9-.1-1.7-.5-.6-.3-.9-.6-1-1.2-.1-.4 0-1.2.1-1.6.1-1.1.6-2 1.1-3.1l2.1-.5 2.8 1.2z"/><path fill="#D3DDDE" d="M27.8 104.9c.1.4-.1 1-.6 1.4-.8.5-2.3.5-3.3.3-2.2-.3-3.8-1.6-5.6-2.9-.2.2-.9-.1-1.7-.5-.6-.3-.9-.6-1-1.2v-.8c.3.8 2 1.6 2.8 1.7 1.7 1.3 3.4 2.5 5.6 2.8 1 .2 2.5.2 3.3-.3.2-.3.4-.4.5-.5z"/><path fill="#079DA8" d="M32.2 95.5c.5 1.9 1 2.4 1.8 3.2.6.6 3.9 2.7 4.2 3.4.2.5.2 1.2-.5 1.7-.8.5-2.3.5-3.3.3-2.2-.3-3.8-1.6-5.6-2.9-.2.2-.9-.1-1.7-.5-.6-.3-.9-.6-1-1.2-.1-.4 0-1.2.1-1.6.1-1.1.6-2 1.1-3.1l2.1-.5 2.8 1.2z"/><path fill="#BECBCC" d="M38.3 102.4c.1.4-.1 1-.6 1.4-.8.5-2.3.5-3.3.3-2.2-.3-3.8-1.6-5.6-2.9-.2.2-.9-.1-1.7-.5-.6-.3-.9-.6-1-1.2v-.8c.3.8 2 1.6 2.8 1.7 1.7 1.3 3.4 2.5 5.6 2.8 1 .2 2.5.2 3.3-.3.2-.2.4-.3.5-.5z"/><path fill="#032747" d="M21.4 51.7c-.5 2.5-1.2 4.7-1.4 7.2-.4 4.8 4.9 12.7 5.2 17.9l-.2 3.8c-.4 3.9.3 9 1.2 15.3 1 2.3 6.4 2.8 6.9 2.1.1-.2-.9-22.1-.6-24.8.3-7.7-2.8-14.7-2.5-23l-8.6 1.5z"/><path fill="#05345E" d="M15.6 52.9c-.5 4.1-1.4 6-.6 10.3s1.4 9.2 1.6 13.6l-.6 5.7c-.4 3.9.5 9.2.1 15.2-.7 2.7 6.2 4.5 6.9 2.9l1.5-25.4c.3-7.7.5-13.9.8-22.1l-9.7-.2z"/><path fill="#C8D8D9" d="M29.9 41.6c.6 1.9 3.2 2.1 4.5 1.5.8-.4 1.3-2.3 1.4-3.3-.4-3.2-2.8-14-4.4-15.6-1.9-1.8-5.4-2-6 3.2-.3 2.4 2.9 9.7 4.5 14.2z"/><path fill="#DCE7E8" d="M14 32.3c-.8 2.5-.2 5.9.1 8.5.5 3.8.8 5.9.9 10.6 0 1.4-.5 5.9-.3 8.4 3.7 2.3 14.5-.9 15.3-5.4l2-18.6c.5-3.3 1.3-13.7-3.8-13-1.9.3-4.8.1-7.6 1.8-3.6 2-6.6 6-6.6 7.7z"/><path fill="#EBF4F5" d="M17.7 48c1.8 2.4 5.8.6 5.8-1.3l-2.1-14c-.6-4.7-9.1-5.5-6.9 3.6.7 3 2.1 6.8 2.8 10.4 0 .5.1 1 .4 1.3z"/><path fill="#F0C17D" d="M21 20.2c.2 1.4-.1 4.2-.4 5.5-.5 2.2 5.8 4.3 5.6.2 0-.6 0-1.2.1-1.8L21 20.2zM31.8 19c.7 1.6 1.9 3.4 1.5 5.1-.1.6-.6 1.2-.3 2.5l-2.8.8c-.1-.9 0-1.3-.1-1.7-.1-.5-.9-.7-1.2-1.9-.4-.8-1-1.6-.5-1.9.3-.1.6.3.8.6.2.3.4.5.6.8 0-.3.1-.6.1-.9-.2-.6-.4-1.1-.6-1.7l-.5-1.8c-.1-.4.7-.9 1.3-1 1.2-.2 1.4.4 1.7 1.1z"/><g fill="#EBF4F5"><path d="M20.7 24.6c.9 2 2.8 3.1 3.9 3.6l-.9 2.4c-2.7-1.9-3.2-3.1-3.7-4.2l.7-1.8z"/><path d="M26.3 25.4c-.3 1.1-.9 1.7-1.8 2.7l1.2 2.1c.9-1.6 1-2.2.8-3.7l-.2-1.1z"/></g><path fill="#FFDBA7" d="M30 18.8c0 1.9-1.6 6.7-3 7.7-.3.2-1.1.4-1.5.3-.8-.1-2.7-1.9-3.2-2.4-.8-.9-.8-1.5-1-3.2l-.5-1.4.2-4.7c2.8-1 5.2-1.7 6.5-1.3s2.4 1.5 2.5 5z"/><path fill="#261505" d="M31 19.5c-.3-1 .5-3-1.2-4.9.3.2.6.5.8.8-.2-1.1-.4-1.6-1.7-2.1.4.1.5.1.9.2-.8-1.8-4.8-2.9-7-1.5-2.2.6-3.5 2.5-3.4 4.5.1 1.4.6 3.1 1.3 4.6.2.6.4 1.1.4 1.4l.2-1.5c-.6-1-.3-2.5.4-2.7 1.1-.3 1.2.6 1.2 2.5.8-1.8.8-1.9 2.1-3.4 1.3-.3 4 2.7 6 2.1z"/><path fill="#EBF4F5" d="M24.7 41.1l6.5-2.5c1.5.2 2.5 1.9 2 3.3-4.1 2.7-7.8 5.4-11 6.7-1.9.7-2.4 1.2-3.6-.9-1-1.6 1.4-4.2 3.3-5.2.7-.4 1.8-1 2.8-1.4z"/><path fill="#C8D8D9" d="M30.3 35.2l-.6-8.9c.6-.9 2.8-1.3 3.5-.5.9 4.7 2.8 8.6 2.7 12.1-.1 2 .2 5-2.2 5.5-1.9.4-2.8-2.7-3-4.7-.1-1-.3-2.5-.4-3.5z"/><path fill="#079DA8" d="M100.9 26.7c-1.1 2.6-2.2 8.1-2.2 11.8 0 2.4 2.8 3.5 3.6 1.4 1.4-3.4 3.5-8.9 2.8-12-.6-2.7-3.5-3-4.2-1.2z"/><path fill="#05345E" d="M110.4 82.7c.5 1 .9 2.4 1 3.9.2 2.8-.2 5.6.7 5.8 1.1.2 1.9-.9 2.5-1.6 1.3-1.7 1.8-4.1 2.2-6.2.3-.3.4-.8.6-1.6.2-.7.2-1.1-.1-1.5-.2-.3-.6-.8-.9-1-1.7-1.3-2.9-.7-3.7-1.1l-1.2.6-1.1 2.7z"/><path fill="#FDCA01" d="M112 92.3s.1 0 .2.1c1.1.2 1.9-.9 2.5-1.6 1.3-1.7 1.8-4.1 2.2-6.2.3-.3.4-.8.6-1.6.2-.7.2-1.1-.1-1.5-.2-.3-.6-.8-.9-1s-.6-.4-.9-.5c.2.2.4.5.6.7.7 1-.1 3.1-.3 4.2-.4 1.9-1 3.9-1.9 5.7-.5.5-1.2 1.4-2 1.7zm-2.9-9.8c0-.4 1.1-1.1 2-.9 1.2.3 1 3.6.6 5.3-.5-2-2.6-3.6-2.6-4.4z"/><path fill="#084478" d="M107.9 89.2c-.3 1.1-1 2.4-1.9 3.5-1.8 2.1-4 3.9-3.4 4.7.7.9 2 .7 2.9.5 2.2-.3 4.1-1.7 5.9-3 .4 0 .8-.3 1.6-.8.6-.3.9-.6 1-1.2.1-.4.1-1 0-1.4-.4-2.1-1.6-2.6-1.9-3.3l-1.3-.3-2.9 1.3z"/><path fill="#FDCA01" d="M102.5 97.2c0 .1 0 .1 0 0 .8 1 2.1.8 3 .6 2.2-.3 4.1-1.7 5.9-3 .4 0 .8-.3 1.6-.8.6-.3.9-.6 1-1.2.1-.4.1-1 0-1.4s-.2-.7-.3-1c0 .3 0 .7-.1.9-.2 1.2-2.2 2.2-3.1 2.8-1.6 1.1-3.4 2.2-5.3 2.8-.8.4-1.9.7-2.7.3z"/><path fill="#C6DEF2" d="M109.3 26.3c3.4 1.1 5.4 2.6 4.6 3.4-.9.8-4.3.5-7.7-.6-3.4-1.1-5.4-2.6-4.6-3.4.9-.7 4.3-.5 7.7.6z"/><path fill="#365A78" d="M101 64.5l8.7 17.9c0 .1.1.1.2.1.5 0 1.4-1.1 2.1-2.4.5-1 .7-1.9.6-2.2-1.1-3.9-2.3-8.4-4.6-11.8-.8-1.2-1.1-1-1.9-2-1.9-2.4-5.3-1.7-5.1.4z"/><path fill="#365A78" d="M101.1 63.9c-.6 1.9 3.4 3.7 5.4 1.2l9.5-16.5-9.2-6.9c-1.1 3.3-1.5 4-2.4 7.4-1.3 4.8-2.5 10.7-3.3 14.8z"/><path fill="#406A8C" d="M110.8 45.2h-.7l-.5 3.8c-1.7 4.1-1.5 13.5-1.4 17.4V68c-.1 3.2 4.8 2 5.4.3 1-3 1.3-4.3 2.2-7.8 1.5-5.8 5-10.5-1-15.7l-4 .4z"/><path fill="#406A8C" d="M108.2 68.1l-.5 22.7c0 .1 0 .2.1.2.4.2 2 0 3.2-.9.9-.7 1.2-1.7 1.2-2.1.9-4.7 2.1-10.1 1.9-13.6-.1-3.3-.5-5.1-.5-6.5.1-3.1-5.3-5.8-5.4.2z"/><path d="M103.8 11.7c-1.9.3-3.2.8-3.7 1.8-2 4.4 3.1 13.4 1.5 17l4.6-1.3 1.2-12.3-3.6-5.2z"/><path fill="#F0C17D" d="M107.3 20c.1.9-.3 3.2 1.2 5.3l-2.7 3.2-1.9-1.1c0-2.1-.2-3.3-.9-4.9l4.3-2.5z"/><path fill="#07B7C4" d="M108.3 24.7c1.1 1.5 2.2 2.2 3.8 2.7 3 1 2.2 6.2 1.6 9.7-.3 2-.1 3.4.1 4.5.2.8.3 1.4.8 2 2.1 2.5 4 5.7 3.8 8.1h-.1c0 .1-.1.2-.2.3-1 .9-4.8.6-8.6-.6-3.5-1.1-5.7-2.6-5.3-3.5.2-1.8.2-4.5 0-5.3-.2-.7-1.4-4-2.4-5.6-1.2-1.1-1.8-2.4-2-3.5-.2-1.2 1.1-6.1 1.7-7.4.3-.5 1.4-.6 2.2-.4 0 1.3 3.6 1.8 4.6-1z"/><path fill="#FFDBA7" d="M100.7 13.6c-1.3 3.1-.1 4.7.1 7 .1 1.2.6 2.1 1 2.7.6.9 1.1 1.3 1.7 1.3 1.1.1 5.3-2.8 5.3-4.3l.1-6-8.2-.7z"/><path fill="#121111" d="M106.7 23.8c.5 2.6.3 6.4-.2 7.6 2.3-.8 4.3-3 4.6-6 .2-2.1-.1-6.5-.5-9-.6-3.7-3.2-6.6-7.8-4.9-1 .3-2.5 1.1-2.6 2.8-.4 5.7 6.7 4.2 6.5 9.5z"/><path fill="#FDCA01" d="M106.9 88c.3-.3 1.5 0 2.1.8.7 1.1-1.7 3.3-3.2 4.2 1-1.8.5-4.4 1.1-5z"/><path fill="#CBBECC" d="M78.3 34.4c1.3 1.5.2 12.4 0 14.7-.3.5-1.4 1.4-3.1 1.2-.4-.5-.4-1.1-.4-1.2-.3-3.1.1-8.9 0-12.1l3.5-2.6z"/><path fill="#290F01" d="M68.2 26.8c-.5 2.3-.2 4.5-.5 6-.3 2-1.6 3-2.3 4.1-2.1 3.4 10.3-2.9 10.3-3-.7-3-3.1-4.5-5.4-6.2.2.1-2.1-.8-2.1-.9z"/><path fill="#F0C17D" d="M72 50.7h.7l-.1 6.5c.2 3.7.9 11.1 1 14.8.1 2.4-.5 3.6-.5 5.4.2 5.1-.4 10-.5 15.2l-2.3 2.2c-1.1-7.9-2.8-12.2-2.6-16.7.3-7.5 0-7.4-.8-12.1-1.2-7.2-.4-2.1-.1-5 .2-2.2.6-5 2.4-10.6l2.8.3z"/><path fill="#FFDBA7" d="M67.1 54.5h.7l-.1 6.5c.2 3.7.9 11.1 1 14.8.1 2.4-.5 3.6-.5 5.4.2 5.1-.4 10-.5 15.2l-2.3 2.2c-1.1-7.9-2.8-12.2-2.6-16.7.3-7.5 0-7.4-.8-12.1-1.2-7.2-.4-2.1-.1-5 .2-2.2.6-5 2.4-10.6l2.8.3z"/><path fill="#FFDBA7" d="M67.7 94.2c-.1 1.4.2 2.2.4 2.7.5 1.2 2.6 2.7 3.5 3.6l-.3 1.2h-1.1l-1.4-.1c-.8-.6-1.5-1.4-2.1-1.9-2-1.6-2.7-1.8-2.2-3 .2-.5.5-2.4 0-4.7l3.2 2.2z"/><path fill="#05345E" d="M70.9 99.9c.2.2.4.5.4.8s-.3.6-1 .6c-.9.1-2.3-1-3.2-1.9-1-1-1.9-1.9-2.4-3-.6.7-.8 1.5-.6 2.6l.2 1.2 1.4.7.6-.2v-.4c.7.5 1.6 1.7 2.2 2 1.4.8 2.4.7 3.2.7.6 0 1.2-.4 1.1-1-.3-1-1.5-1.8-1.9-2.1z"/><path fill="#F0C17D" d="M72.6 91.4c-.1 1.4.2 2.2.4 2.7.5 1.2 2.6 2.7 3.5 3.6l-.3 1.2h-1.1l-1.4-.1c-.8-.6-1.5-1.4-2.1-1.9-2-1.6-2.7-1.8-2.2-3 .2-.5.5-2.4 0-4.7l3.2 2.2z"/><path fill="#042847" d="M75.8 97.1c.2.2.4.5.4.8s-.3.6-1 .6c-.9.1-2.3-1-3.2-1.9-1-1-1.9-1.9-2.4-3-.6.7-.8 1.5-.6 2.6l.2 1.2 1.4.7.6-.2v-.4c.7.5 1.6 1.7 2.2 2 1.4.8 2.4.7 3.2.7.6 0 1.2-.4 1.1-1-.3-.9-1.4-1.8-1.9-2.1z"/><path fill="#473148" d="M60 59.7c0 4.1 1.5 9 2.1 15.3 0 .5.3.9.8 1.3 1.6 1 5.3.4 8.1-1.2 2-1.2 3.1-2.6 2.9-3.6 1.1-14.7.8-16.4-.2-19.5-.5-1.7-1.6-3.5-1.6-4.3-3.4 3.6-7 .4-9.5 2.5-.8 3.7-2.6 4.1-2.6 9.5z"/><path fill="#E2D7E3" d="M67.6 35.2c-1.8 1-3.3 2.4-3.7 4.6-.3 2.1-.6 5.3-.6 8.6 0 11 12.1-2 12.1-2 .9-.6 2.3-.8 3.1-2.3 1.1-2.2.5-5.4.2-8.5 0-.7-.3-1.3-1-1.7-2-1.2-6.5-.8-10.1 1.3z"/><path fill="#473148" d="M78.8 35.5c.3 3.1.9 6.3-.2 8.5-.8 1.5-2.1 1.8-3.1 2.3-.9.6-1.9 2.2-2.8 6.2l-10.8 4.8c-1.6-3.4.8-5.6 1.5-9 0-.2.1-.5.1-.7 1.5.6 3.3-.3 3.9-2.4 1.5-5.2.9-8.5-1.3-9.1.9-.7 1.6-1.2 2.8-1.7 2.6 2.4 5 6 5.7 9.5 2.1-3.5 2.3-7.2 1.6-10.7.6.1 1.2.3 1.7.6.6.5.9 1.1.9 1.7z"/><path fill="#F0C17D" d="M70.6 30.6c-.1 1-.1 3.2-.3 3.9-.1 2.3 3.1 3.6 4.6 1.9l.6-3.5-4.9-2.3z"/><path fill="#290F01" d="M75.9 23.9c3.9 1.7 2.4 9.2-.5 10.5L71.7 33l-.6-3.6 2-3.7 2.8-1.8z"/><path fill="#FFDBA7" d="M77.6 28.1c.2.9.2 2.4-.3 4.1-.3 1-.6 1.5-.9 2s-.9 1.2-1.4 1.2c-1 .1-3.1-1.4-3.5-1.7-.6-.4-.9-.8-.9-1.4v-.5c-.4-.2-.7-.2-1.1-.7-.3-.5-.7-.9-.8-2-.3-2.9 1.3-4.2 3-4.7 2.3-.5 5 .6 5.9 3.7z"/><path fill="#290F01" d="M70.9 31.9c-.2-.4-.3-1-.4-1.5-.1-.6-.3-1.1-1.1-1.1-.4 0-.7.6-.2 1.7-2.3-2.3-.9-6.9 2.3-7.6 3-.7 6.6.8 4.9 3.8-.8 1.5-2.7 2-4.6 2.9-.3 0-.9 1.2-.9 1.8z"/><path d="M75.6 30.2c.3-.1.7-.2 1-.3h.2c.2 0 .3-.1.5-.1h.4c.3.1.2.4.1.6v.1c0 .2-.1.5-.2.6-.1.2-.2.4-.4.4-.1.1-.3.1-.4.2-.1 0-.3.1-.4.1-.4.1-.7 0-.9-.2s-.3-.4-.3-.6v-.4c.1-.2.2-.3.4-.4zm1.1-.1c-.3.1-.7.2-.9.3-.1.1-.2.2-.3.2v.3c0 .2.1.3.2.5.1.1.4.2.7.1.1 0 .2 0 .4-.1.1 0 .2-.1.3-.1.1-.1.2-.2.3-.4s.2-.4.2-.6v-.1c0-.2.1-.4 0-.4h-.3c-.1 0-.3.1-.4.1l-.2.2zm-2.6.5c-.3 0-1.2 0-1.6.1-.1 0-.2.1-.3.1-.1.1 0 .3.1.5s.3.4.3.4c.3.2.5.2.8.2.4 0 .9-.1 1-.4.1-.2.1-.4.1-.6 0-.1-.1-.2-.1-.3h-.3zm0-.3c.2 0 .4.1.5.2s.2.2.2.4 0 .5-.1.7c-.2.4-.8.5-1.2.5s-.7 0-1-.3c-.1-.1-.3-.3-.4-.5-.2-.3-.3-.6-.1-.8.1-.1.2-.1.4-.2.5.1 1.4 0 1.7 0z"/><path d="M74.7 30.7l.6-.1v.3l-.6.1v-.3zm-2.6.2l-.7-.4-.2.3.8.4.1-.3z"/><path fill="#9DAFB0" d="M65.6 68.8c0 2.2-3.4 3.3-3.7 2.2-3.1-2.6-6.2-5.3-9.3-8l2.2-5.5c4.8 1.9 7.9 7.2 10.8 11.3z"/><path fill="#48453E" d="M64.6 110.2c.4 1.7 4.3 4.8 5.1 5.6.5.5.2 1.9-.5 2.3-.8.5-2.1.5-3.1.3-1.2-.2-2.6-1.4-4.2-2.4s-3.5-1.7-3.5-2.6c.1-1.2.4-2.2.7-3.9l2.3.6 3.2.1z"/><path fill="#1F4351" d="M40.5 108.2v.2s0 .1.1.1l.1.1h.1l7.8 4.5v1.2l-7.8-4.5-.1-.1-.1-.1v-.2l-.1-1.2z"/><path fill="#294F5E" d="M48.9 113.2s0 .1 0 0c.2 0 .3.1.4.1h.4c.1 0 .2-.1.3-.1l9-5.2c.2-.1.3-.3.3-.4v1.2c0 .1-.1.3-.3.4l-9 5.2s-.1 0-.1.1h-1c-.1 0-.1-.1-.2-.1v-1.2h.2z"/><path fill="#376375" d="M40.8 107.8c-.4.2-.4.6 0 .8l7.8 4.5c.4.2 1 .2 1.4 0l9-5.2c.4-.2.4-.6 0-.8l-7.8-4.5c-.4-.2-1-.2-1.4 0l-9 5.2z"/><path fill="#041D33" d="M49.9 86.9l-.3 6.1.3 16.1 1.6-.9V86l-1.6.9z"/><path fill="#08355C" d="M49.9 86.9l-1.6-.9v22.2l1.6.9V86.9z"/><path fill="#367C83" d="M56.5 94.2l1.2-.7v-1l-1.2.8v.9z"/><path fill="#041D33" d="M41.8 82.5V82l1.3-.7v.6c0 .2.1.3.1.5.1.2.1.4.2.6l.3.6c.1.2.2.3.3.5.1.1.2.3.3.4l.1.1.3.3.1.1c.1.1.3.2.4.3l-1.3.7c-.2-.1-.3-.2-.4-.3l-.1-.1-.2-.2-.1-.1-.1-.1-.1-.1c-.1-.1-.1-.2-.2-.2 0 0 0-.1-.1-.1 0 0 0-.1-.1-.1 0-.1-.1-.1-.1-.2s-.1-.1-.1-.2-.1-.1-.1-.2-.1-.1-.1-.2-.1-.1-.1-.2-.1-.1-.1-.2-.1-.1-.1-.2v-.2c0-.1 0-.2-.1-.3v-.2c.1.1.1 0 .1-.1 0 .1 0 .1 0 0z"/><path fill="#041D33" d="M41.8 82.1l1.3-.8V68l-1.3.8v13.3z"/><path fill="#46AAB4" d="M41.8 68.8l1.3-.8-.9-.5-1.2.8.8.5zm3.6 16.6l12.3 7.1-1.2.8-12.3-7.1 1.2-.8z"/><path fill="#08355C" d="M41 68.3l.9.5v13.3c0 1.5 1.1 3.3 2.4 4.1l12.3 7.1v1l-12.3-7.1c-1.8-1-3.2-3.5-3.2-5.6L41 68.3z"/><path fill="#1F4351" d="M36.5 87.9v.2s0 .1.1.1l.1.1.1.1s.1 0 .1.1l11.9 6.9v1.9l-11.9-6.9s-.1 0-.1-.1l-.1-.1-.1-.1v-.3l-.1-1.9z"/><path fill="#294F5E" d="M49.3 95.6c.1.1.1.1 0 0 .2.1.4.1.6.1.2 0 .4 0 .6-.1.2 0 .3-.1.5-.2l13.8-8c.3-.2.4-.4.4-.6v1.9c0 .2-.1.5-.4.6l-13.8 8c-.1 0-.1.1-.2.1s-.1 0-.2.1h-1.4c-.1 0-.2-.1-.3-.1v-1.9c.1 0 .3.1.4.1z"/><path fill="#376375" d="M37 87.3c-.6.3-.6.9 0 1.2l11.9 6.9c.6.3 1.5.3 2.1 0l13.8-8c.6-.3.6-.9 0-1.2l-11.9-6.9c-.6-.3-1.6-.3-2.1 0l-13.8 8z"/><path fill="#1F4351" d="M34.1 71.7v9.9c0 .1 0 .1.1.2 0 0 0 .1.1.1 0 .1.1.1.2.2l-1.7-1c-.1 0-.1-.1-.2-.2V70.4l1.5 1.3z"/><path fill="#376375" d="M34.7 70.2l-.2.2c-.1.1-.1.2-.2.2 0 .1-.1.2-.1.2 0 .1-.1.2-.1.3 0 .1 0 .2-.1.3v.3l-1.7-1v-1.6l.1-.1s0-.1.1-.1v-.2l13.8-8h.5l1.7 1s-.1 0-.2-.1h-.4c-.1 0-.1.1-.2.1l-13.8 8c-.1 0-.1.1-.2.1 1.2.3 1.1.4 1 .4z"/><path fill="#294F5E" d="M35.2 69.9l13.8-8c.6-.3 1.1-.1 1.1.6v9.7c0 .7-.5 1.5-1.1 1.9l-13.8 8c-.6.3-1.1.1-1.1-.6v-9.7c0-.7.5-1.6 1.1-1.9z"/><path fill="#021A30" d="M58.3 89.6l-.9 5.1.4 16.7c.7 2.3 6.3 2.7 7.1-1.5.2-7.5.2-15.2.2-22.1-1.3-2.2-6.5-5.8-7.6-6l.8 7.8z"/><path fill="#021A30" d="M52.2 78.1c3.7 1.5 10.2 5.4 12.4 7.6.4.4.4.9.5 1.3.5 3.5-2.8 4.6-4.6 4-5-1.5-8.7-5.1-13.3-8.7l5-4.2z"/><path fill="#032747" d="M46.7 81.1c3.7 1.5 11.1 6.4 13 9.3.3.4.4.9.5 1.3.5 3.5-2.9 5.1-4.6 4.5-3.6-1.1-8.7-3.7-12.4-6.2-1.5-1.1-6.1-1.8-4.6-10.7l8.1 1.8z"/><path fill="#615D54" d="M59.2 113.9c.4 1.7 4.3 4.8 5.1 5.6.5.5.2 1.9-.5 2.3-.8.5-2.1.5-3.1.3-1.2-.2-2.6-1.4-4.2-2.4S53 118 53 117.1c.1-1.2.4-2.2.7-3.9l2.3.6 3.2.1z"/><path fill="#032747" d="M53.4 93l-.9 5.1.5 15c0 2.2 7 3.8 7 .3.2-7.3.3-14.5.3-21.4-1.3-2.2-6.5-6.6-7.6-6.7l.7 7.7z"/><path fill="#AFC6C7" d="M41.3 60.8c2.4-4 9.3-4.9 11.6-4.6 1.5.2 3.5.9 4.2 2.3 2.6 5.1-4.7 13.6-5.5 16.7-.2.7.2 1.3.6 2.1-2.5 7.4-14 5.3-13.7 2.2.1-1.5 1.1-4.6 1.8-7.9 1-4.9-.5-8.3 1-10.8z"/><g><path fill="#828994" d="M94.9 52.2l.1 27.5 3 1.8-.1-29.3h-3z"/><path fill="#98A0AD" d="M97.9 52.2l.1 29.3 2.9-1.7-.1-27.6h-2.9z"/><path fill="#828994" d="M23.9 93.2l.1 27.5 3 1.8-.1-29.3h-3z"/><path fill="#98A0AD" d="M26.9 93.2l.1 29.3 2.9-1.7-.1-27.6h-2.9z"/></g><g><path fill="#828994" d="M124.2 72.4v23.9l3 1.7-.1-25.6h-2.9z"/><path fill="#98A0AD" d="M127.1 72.4l.1 25.6 2.9-1.7V72.4h-3z"/><path fill="#828994" d="M56.1 102l-3-1.8.1 37.1 3 1.7-.1-37z"/><path fill="#98A0AD" d="M56.1 102l.1 37 2.9-1.7-.1-37-2.9 1.7z"/></g><g><path fill="#BAC2D1" d="M14.2 93.6v4.9c17.5 10.2 23.1 13.3 40.6 23.5v-4.9c-17.5-10.2-23.1-13.4-40.6-23.5z"/><path fill="#D4DDEC" d="M99 44.8L14.1 93.6c17.5 10.2 23.1 13.3 40.6 23.5l84.9-48.8C122.1 58.1 116.5 55 99 44.8z"/><path fill="#C8D1E0" d="M54.8 117.1v4.9l84.9-48.8v-4.9l-84.9 48.8z"/></g><g><path fill="#F0C17D" d="M52.8 54.1c-.8 1.9-1.8 2.4-2.7 4.1-.5 1.7 1.9 4.4 3.8 3.6.9-1.1 2.1-2.1 2.9-3l-4-4.7z"/><path fill="#FFDBA7" d="M60 53c.2 1.8.5 1.2-.1 4.1-.2.9-1.7 3.1-1.9 3.3-.3.3-1.1.5-1.5.5-.8 0-2.9-1.6-3.4-2.1-1.2-1.2-1.7-1.4-1.7-2.9l-.3-1.6-.2-4.7c2.7-1.2 5-2.2 6.4-1.9 1.4.4 2.3 1.9 2.7 5.3z"/><path fill="#632404" d="M51.2 47.8c-3.8 1.6-1.1 7-.1 8.6.2-.2.6-.1.6-.4-.1-.8.2-1.5.7-1.6.5-.2 1 .4 1.2 1.8.4-.6.9-1.4 1.3-2.6.1 0 5.7 0 6.3-3.3-.9-.4-2.4-3.6-4.3-4-2.2-.4-4.7.3-5.7 1.5z"/></g><g><path fill="#636262" d="M61.8 83.9l-9.2-3.1v.6l8.9 5.2.3-2.7z"/><path fill="#787878" d="M52.6 80.8l9 3.3c6.2-3.6 12.4-7.2 18.7-10.8l-9-3.3-18.7 10.8z"/><path fill="#484D4B" d="M80.2 75.8v-2.5c-6.2 3.6-12.4 7.2-18.7 10.8v2.5C67.7 83 74 79.4 80.2 75.8z"/></g><g><path fill="#FFDBA7" d="M50 78.6c.4.1.7.1 1.6-.1.8-.2 1.9-.7 2.2-.6l2.9.3c.9.2 1.2.6 1 .8-.2.3-1 .3-1.8.3 1.6 1 2 1.3 3 2.5.8.9-1.1 1.7-1.5 1.7-1.8 0-3-1.4-4.8-1.4-2-.1-2.6-.5-4.4-1.3l1.8-2.2z"/><path fill="#C1D8D9" d="M46.2 63.6c-.7 4.5-5 11.3-7 14.9l-3.5-.5c.1-.2-.4-.9-.4-1.1 1.4-4.6 3.2-11.5 5.4-15.3.9-1.6 2.5-2.5 3.7-2 1.8.7 2.1 2.4 1.8 4z"/><path fill="#C1D8D9" d="M38.6 74.4c4 .7 8.8 2.7 12.8 3.8.4.7-.6 3.4-1.2 3.9-4-.8-8.3-1.4-12.3-2.4-2.2-.5-2.7-1.5-2.7-2.6.2-1.3 1.3-3.1 3.4-2.7z"/></g><g><path fill="#F0C17D" d="M81.1 57.6c.7 1.8 1.4 1.8 2.1 2.8.3.4 1 2.1 1.1 2.8s0 1.6-.7 1.7c-.6-.5-1.2-1.3-1.5-1.9-.6-.5-1.1-1-1.9-1.5 0 .5.3 1.6.2 2s-.9.4-1-.1c-.1-.3 0-.7-.1-1.3 0-.1-.3-1.1-.3-1.1-.3-.7-.4-.9-.1-1.4l.3-1.4 1.9-.6z"/><path fill="#CBBECC" d="M78.2 48.7c1.2 2.4 2.5 7.5 3.1 9.3 0 .9-2.2.9-2.4.4-.8-1.4-3.1-6-4-8.6.9-.8 2.3-1.4 3.3-1.1z"/></g><g><path fill="#FFDBA7" d="M82.5 53.9c3.5 2 1.5.2 5.2 1.2 1 .3 1.5 2.1 2.9 3.8.4.5.5 1 .2 1.3-.6.7-1.7-.3-2.6-.9-1.2-.8-2.2-.7-3.3-1-.7-.2-1-.5-1.7-1L81.3 56c.3-.9.7-1.3 1.2-2.1z"/><path fill="#F5EBF5" d="M84.7 54.8c.4.8-.8 2.3-1.7 2.4l-10.5-6c-.4-.3-.7-.3-1-.8-.4-.8 1.1-4.6 3.9-2 2.4 1.9 6.7 4.6 9.3 6.4z"/><path fill="#F5EBF5" d="M66.5 37c1.5.7 3 3.6 3.7 4.6 1.1 1.5 3 4.6 4.2 5.9.2 1.1-.9 3.4-2.7 3.2-.9-1.1-3.1-3.1-4.3-4.6-1.8-2.4-2.8-3.7-3.3-4.8-.8-2 .6-5.2 2.4-4.3z"/></g><path fill="#10D5E3" d="M110 28.9c-.7 2.7-.7 8.6-.3 12.2.3 2.4 3.4 3.8 3.8 1.6.7-3.7 1.8-10.2.8-13.2-1-2.5-3.8-2.5-4.3-.6z"/><g><path fill="#F0C17D" d="M109.9 52.9l-.8 2.5c-1.3 1.8-2.5 1.3-4 2.1-.5.2-1.5 1.3-1.9 1.6-.4.2-.9.3-1.7-.2.1-.9 1-3.2 3.5-5.1 2-.2 2.1.2 2.9-.9h2z"/><path fill="#10D5E3" d="M106.7 53.4c.7-3 1.7-7.2 2.3-10 .3-1.3.4-1.6.8-2.9 2.8.1 3.9.9 3.5 2.8-.5 2.6-2.7 8.9-3.8 11.3-.4.4-3-.1-2.8-1.2z"/></g><path fill="#F0C17D" d="M93.2 52.9c-.4.5-.4 1.1-1 2.3-.6.8-.6 1.4-.4 1.7.2.2.4.4.9-.2l.9-1.8-.1 1.2-.1.8c.1 1.1-.1 2.6.4 3 .3.3.9.4 1.9.3.7-.2.6-1.7 1.5-3.4.3-1.2.5-1.1.3-3.1V51l-2.4-.1c-.2.3-.6 1-.9 1.3-.6.6-.5.1-1 .7z"/><g><path fill="#787878" d="M100 83.5c.1 0 .1 0 0 0l-7.2-4.2-7.7 4.4 7.3 4.2 7.7-4.4h-.1z"/><path fill="#636262" d="M91.9 88.5v-.2c0-.1 0-.1.1-.2l.1-.1.1-.1-7.3-4.2s-.1 0-.1.1v.4c0 .1 0 .2.1.2l7.3 4.2c-.1 0-.1-.1-.1-.2l-.2.1z"/><path fill="#484D4B" d="M100.2 83.7c0-.2-.1-.3-.3-.2l-7.7 4.4c-.2.1-.3.3-.3.5v.3c0 .2.1.3.3.2l7.7-4.4c.2-.1.3-.3.3-.5v-.3z"/><path fill="#A1A3A2" d="M88.5 80.7l-.4 4.2 1.5.9.3-4.3-1.4-.8z"/><path fill="#8A8C8B" d="M96 78l-1.6-.7-4.5 4.2-.3 4.3 6.8-3.9L96 78zm-16.5 6.2l.2-17.1-1.7-.9v19c0 .2 0 .3.1.5.1.1.1.2.2.3l1.5.9c-.2-.1-.3-.4-.3-.7v-2z"/><path fill="#8A8C8B" d="M105.4 50.9h.6l-1.5-.9h-.6c-.1 0-.1 0-.2.1L79.1 64.3c-.6.4-1.1 1.2-1.1 1.9l1.5.8c0-.7.7-1.5 1.3-1.8l24.4-14.3h.2z"/><path fill="#A1A3A2" d="M106.3 51.6c0-.4-.2-.7-.4-.8s-.5-.1-.7.1L80.6 65.1c-.6.4-1.1 1.2-1.1 2v19c0 .7.5 1 1.1.7l24.6-14.2c.6-.4 1.1-1.2 1.1-2v-19z"/></g><path fill="#079DA8" d="M94.7 51.4c1-3 2-7.6 2.9-10.5.4-1.2.9-1.6 1.5-2.9 2.7.3 3.5 1.5 3 3.4-.7 2.6-3.1 8.3-4.4 10.5-.8.6-2.4.3-3-.5z"/><g><path fill="#9DAFB0" d="M66 70.4c-.3 3.3-3.1 3.2-4 2l-4.6-5.1 4-4.4c1.7 2.1 3.2 5.5 4.6 7.5z"/><path fill="#FFDBA7" d="M70.6 56c.5-.4 1.1-.4 2.3-1 .9-.6 1.4-.6 1.7-.4.2.2.4.4-.3.9l-1.5 1.1 1.4.2.8-.1 2.1-1.3c.7-.5.8 0 1.2.8.6 1-.8 1.9-2.2 3-1.3.9-1.2 1.1-2.7.9l-2.4-.3-1.2 1.1-2-2.3c.3-.2 1-.6 1.3-.9.9-.5.9-1.2 1.5-1.7z"/><path fill="#9DAFB0" d="M68.7 57.9c1.2-.1 2.7 1.5 3.2 2.1l-5.1 9.2c-.9 1.5-1.7 3.9-3.9 3.5-1.4-.3-2.2-1.9-1.9-3 .8-3.9 4.7-7.7 7.7-11.8z"/></g></svg>