<?xml version="1.0" encoding="utf-8"?>
<!-- Generator: Adobe Illustrator 21.0.0, SVG Export Plug-In . SVG Version: 6.00 Build 0)  -->
<svg version="1.1" id="Layer_1" xmlns="http://www.w3.org/2000/svg" xmlns:xlink="http://www.w3.org/1999/xlink" x="0px" y="0px"
	 viewBox="0 0 1200 900" style="enable-background:new 0 0 1200 900;" xml:space="preserve">
<style type="text/css">
	.st0{clip-path:url(#SVGID_2_);}
	.st1{fill:#F0D49A;}
	.st2{fill:#462C6B;}
	.st3{fill:#D9F1FD;}
	.st4{fill:#575892;}
	.st5{fill:#E48063;}
	.st6{fill:#40B1E5;}
	.st7{fill:#99DAF1;}
	.st8{fill:#F27581;}
</style>
<g>
	<defs>
		<rect id="SVGID_1_" x="0" y="0" width="1200" height="900"/>
	</defs>
	<clipPath id="SVGID_2_">
		<use xlink:href="#SVGID_1_"  style="overflow:visible;"/>
	</clipPath>
	<g class="st0">
		<rect x="372.9" y="722.9" class="st1" width="92.6" height="36.1"/>
		<path class="st2" d="M465.5,761.5h-92.6c-1.4,0-2.5-1.1-2.5-2.5v-36.1c0-1.4,1.1-2.5,2.5-2.5h92.6c1.4,0,2.5,1.1,2.5,2.5V759
			C468,760.4,466.9,761.5,465.5,761.5z M375.4,756.5H463v-31.1h-87.6V756.5z"/>
		<g>
			<path class="st2" d="M386.4,760c-0.6,0-1-0.4-1-1v-36.1c0-0.6,0.4-1,1-1s1,0.4,1,1V759C387.4,759.6,387,760,386.4,760z"/>
			<path class="st2" d="M399.5,760c-0.6,0-1-0.4-1-1v-36.1c0-0.6,0.4-1,1-1s1,0.4,1,1V759C400.5,759.6,400.1,760,399.5,760z"/>
			<path class="st2" d="M412.7,760c-0.6,0-1-0.4-1-1v-36.1c0-0.6,0.4-1,1-1s1,0.4,1,1V759C413.7,759.6,413.2,760,412.7,760z"/>
			<path class="st2" d="M425.8,760c-0.6,0-1-0.4-1-1v-36.1c0-0.6,0.4-1,1-1s1,0.4,1,1V759C426.8,759.6,426.3,760,425.8,760z"/>
			<path class="st2" d="M438.9,760c-0.6,0-1-0.4-1-1v-36.1c0-0.6,0.4-1,1-1s1,0.4,1,1V759C439.9,759.6,439.5,760,438.9,760z"/>
			<path class="st2" d="M452,760c-0.6,0-1-0.4-1-1v-36.1c0-0.6,0.4-1,1-1s1,0.4,1,1V759C453,759.6,452.6,760,452,760z"/>
		</g>
	</g>
	<g class="st0">
		<rect x="465.5" y="722.9" class="st1" width="92.6" height="36.1"/>
		<path class="st2" d="M558.1,761.5h-92.6c-1.4,0-2.5-1.1-2.5-2.5v-36.1c0-1.4,1.1-2.5,2.5-2.5h92.6c1.4,0,2.5,1.1,2.5,2.5V759
			C560.6,760.4,559.5,761.5,558.1,761.5z M468,756.5h87.6v-31.1H468V756.5z"/>
		<g>
			<path class="st2" d="M479,760c-0.6,0-1-0.4-1-1v-36.1c0-0.6,0.4-1,1-1s1,0.4,1,1V759C480,759.6,479.6,760,479,760z"/>
			<path class="st2" d="M492.1,760c-0.6,0-1-0.4-1-1v-36.1c0-0.6,0.4-1,1-1s1,0.4,1,1V759C493.1,759.6,492.7,760,492.1,760z"/>
			<path class="st2" d="M505.3,760c-0.6,0-1-0.4-1-1v-36.1c0-0.6,0.4-1,1-1s1,0.4,1,1V759C506.3,759.6,505.8,760,505.3,760z"/>
			<path class="st2" d="M518.4,760c-0.6,0-1-0.4-1-1v-36.1c0-0.6,0.4-1,1-1s1,0.4,1,1V759C519.4,759.6,518.9,760,518.4,760z"/>
			<path class="st2" d="M531.5,760c-0.6,0-1-0.4-1-1v-36.1c0-0.6,0.4-1,1-1s1,0.4,1,1V759C532.5,759.6,532.1,760,531.5,760z"/>
			<path class="st2" d="M544.6,760c-0.6,0-1-0.4-1-1v-36.1c0-0.6,0.4-1,1-1s1,0.4,1,1V759C545.6,759.6,545.2,760,544.6,760z"/>
		</g>
	</g>
	<g class="st0">
		<g>
			<g>
				<g>
					<rect x="248.4" y="688.2" class="st3" width="47.2" height="68"/>
					<path class="st2" d="M246.5,756.2v-68c0-1,0.8-1.9,1.9-1.9h47.2c1,0,1.9,0.8,1.9,1.9v68c0,1-0.8,1.9-1.9,1.9h-47.2
						C247.3,758,246.5,757.2,246.5,756.2z M293.7,690h-43.5v64.3h43.5V690z"/>
					<g>
						<rect x="281.6" y="695.2" class="st2" width="7.1" height="7.1"/>
						<rect x="268.4" y="695.2" class="st2" width="7.1" height="7.1"/>
						<rect x="255.3" y="695.2" class="st2" width="7.1" height="7.1"/>
					</g>
				</g>
				<g>
					<rect x="241.6" y="718.8" class="st3" width="73.9" height="68"/>
					<path class="st2" d="M239.7,786.8v-68c0-1,0.8-1.9,1.9-1.9h73.9c1,0,1.9,0.8,1.9,1.9v68c0,1-0.8,1.9-1.9,1.9h-73.9
						C240.5,788.7,239.7,787.9,239.7,786.8z M313.6,720.7h-70.2V785h70.2V720.7z"/>
					<g>
						<rect x="301.4" y="725.8" class="st2" width="7.1" height="7.1"/>
						<rect x="288.1" y="725.8" class="st2" width="7.1" height="7.1"/>
						<rect x="274.9" y="725.8" class="st2" width="7.1" height="7.1"/>
						<rect x="261.8" y="725.8" class="st2" width="7.1" height="7.1"/>
						<rect x="248.5" y="725.8" class="st2" width="7.1" height="7.1"/>
					</g>
				</g>
			</g>
			<g>
				<path class="st4" d="M205.5,749.2h64.7l11.1,8.1h250.6l8.6-14.5H659l-30,49c-0.8,1.3-1.4,2.7-1.9,4.2c-0.7,2.7-0.9,5.6-0.3,8.3
					c0.2,1.2,0.4,2.4,0.4,3.6c0,9.3-7.5,17.2-17.2,17.2H265.5c-12.8,0-24.6-7.2-30.5-18.6l-5.4-10.4L205.5,749.2L205.5,749.2z"/>
				<path class="st2" d="M233.4,807.1l-29.6-57.2c-0.3-0.5-0.3-1.3,0.1-1.8c0.3-0.5,0.9-0.9,1.6-0.9h64.6c0.4,0,0.8,0.1,1.1,0.4
					l10.7,7.8h249l8-13.6c0.4-0.5,1-0.9,1.6-0.9H659c0.7,0,1.3,0.4,1.6,1c0.3,0.6,0.3,1.3-0.1,1.9l-30,49c-2,3.3-2.7,7.3-1.9,11.2
					c1.2,5.6-0.2,11.5-3.8,15.9s-9,7-14.8,7H265.6C252,826.8,239.7,819.3,233.4,807.1z M655.6,744.6H541.4l-8,13.6
					c-0.4,0.5-1,0.9-1.6,0.9H281.2c-0.4,0-0.8-0.1-1.1-0.4l-10.7-7.8h-61l28.2,54.5c5.6,10.8,16.7,17.5,28.9,17.5h344.3
					c4.7,0,9-2.1,11.9-5.7c2.9-3.6,4.1-8.3,3.1-12.8c-1-4.7-0.1-9.7,2.4-13.8L655.6,744.6L655.6,744.6z"/>
				<path class="st5" d="M229.7,795.9h397.3c-0.7,2.7-0.9,5.6-0.3,8.3c0.2,1.2,0.4,2.4,0.4,3.6c0,9.3-7.5,17.2-17.2,17.2H265.6
					c-12.8,0-24.6-7.2-30.5-18.6L229.7,795.9L229.7,795.9z"/>
				<path class="st2" d="M233.4,807.2l-5.4-10.4c-0.3-0.5-0.3-1.3,0.1-1.8c0.3-0.5,0.9-0.9,1.6-0.9h322.9c1,0,1.9,0.8,1.9,1.9
					c0,1-0.8,1.9-1.9,1.9H232.6l4,7.8c5.6,10.8,16.7,17.5,28.9,17.5h344.3c8.5,0,15.4-6.9,15.4-15.3c0-1.1-0.1-2.1-0.3-3.2
					c-0.4-2.2-0.5-4.5-0.1-6.8h-47.4c-1,0-1.9-0.8-1.9-1.9c0-1,0.8-1.9,1.9-1.9h49.9c0.6,0,1.1,0.3,1.5,0.7s0.4,1,0.3,1.6
					c-0.7,2.4-0.8,5-0.3,7.4c0.2,1.3,0.4,2.6,0.4,3.9c0,10.5-8.6,19-19.1,19H265.6C252,826.8,239.7,819.3,233.4,807.2z"/>
			</g>
		</g>
		<g>
			<path class="st6" d="M754.3,867.8H85.8v-50.6c29,8.1,61.2,8.1,90.2,0c29,8.1,61.2,8.1,90.2,0c29,8.1,61.2,8.1,90.2,0
				c29,8.1,61.2,8.1,90.2,0c29,8.1,61.2,8.1,90.2,0c29,8.1,61.2,8.1,90.2,0c29,8.1,61.2,8.1,90.2,0c12,3.4,24.5,5.3,37.1,5.9V867.8z
				"/>
			<path class="st7" d="M107.9,824.2c-1.3-0.2-2.3-1.4-2.1-2.8c0.2-1.3,1.4-2.3,2.8-2.1c11.2,1.5,22.6,1.9,33.9,1.1
				c1.4-0.1,2.6,0.9,2.7,2.3s-0.9,2.6-2.3,2.7c-3.9,0.3-7.9,0.4-11.8,0.4C123.4,825.8,115.7,825.3,107.9,824.2z"/>
			<path class="st7" d="M176.4,819.7c-5.3,1.5-10.7,2.7-16.2,3.6c-1.4,0.3-2.7-0.6-2.9-2c-0.3-1.4,0.6-2.7,2-2.9
				c5.5-0.9,11-2.1,16.3-3.6c0.4-0.1,0.9-0.1,1.3,0c28.6,8,60.2,8,88.8,0c0.4-0.1,0.9-0.1,1.3,0c4.3,1.2,8.7,2.3,13.1,3.1
				c1.4,0.2,2.3,1.5,2,2.9c-0.2,1.4-1.5,2.3-2.9,2c-4.3-0.9-8.6-1.9-12.8-3c-14.6,4-29.8,6-45.1,6
				C206,825.8,190.8,823.8,176.4,819.7z"/>
			<path class="st7" d="M292.7,824.8c-1.4-0.2-2.3-1.4-2.2-2.8c0.2-1.4,1.4-2.3,2.8-2.2c21.1,2.3,42.8,0.5,62.6-5
				c0.4-0.1,0.9-0.1,1.3,0c19,5.3,39.6,7.1,59.8,5.3c1.4-0.1,2.6,0.9,2.7,2.3s-0.9,2.6-2.3,2.7c-20.6,1.8-41.6,0-60.9-5.3
				c-14.4,4-29.7,6-45.1,6C305.2,825.8,298.9,825.5,292.7,824.8z"/>
			<path class="st7" d="M446.9,819.8c-4.8,1.3-9.7,2.4-14.6,3.3c-1.4,0.3-2.7-0.6-2.9-2c-0.3-1.4,0.6-2.7,2-2.9
				c5-0.9,10-2.1,14.8-3.4c0.4-0.1,0.9-0.1,1.3,0c28.6,8,60.2,8,88.8,0c0.4-0.1,0.9-0.1,1.3,0c18.6,5.2,39,7,58.9,5.3
				c1.4-0.1,2.6,0.9,2.7,2.3c0.1,1.4-0.9,2.6-2.3,2.7c-20.2,1.8-41-0.1-60-5.3c-14.6,4-29.8,6-45.1,6S461.2,823.8,446.9,819.8z"/>
			<path class="st7" d="M627.2,819.8c-4.1,1.1-8.3,2.1-12.5,2.9c-1.3,0.2-2.6-0.6-2.9-2c-0.2-1.3,0.6-2.6,2-2.9
				c4.3-0.8,8.5-1.8,12.7-3c0.4-0.1,0.9-0.1,1.3,0c28.6,8,60.2,8,88.8,0c0.4-0.1,0.9-0.1,1.3,0c11.6,3.3,23.9,5.2,36.5,5.8
				c1.4,0.1,2.5,1.2,2.4,2.6s-1.2,2.5-2.6,2.4c-12.7-0.6-25.1-2.5-37-5.8c-14.6,4-29.8,6-45.1,6
				C656.8,825.8,641.5,823.8,627.2,819.8z"/>
		</g>
	</g>
	<g class="st0">
		<rect x="429.4" y="686.2" class="st8" width="92.6" height="36.1"/>
		<path class="st2" d="M521.9,724.9h-92.6c-1.4,0-2.5-1.1-2.5-2.5v-36.1c0-1.4,1.1-2.5,2.5-2.5h92.6c1.4,0,2.5,1.1,2.5,2.5v36.1
			C524.4,723.7,523.3,724.9,521.9,724.9z M431.9,719.9h87.6v-31.1h-87.6V719.9z"/>
		<g>
			<path class="st2" d="M442.8,723.4c-0.6,0-1-0.4-1-1v-36.1c0-0.6,0.4-1,1-1c0.6,0,1,0.4,1,1v36.1
				C443.8,722.9,443.4,723.4,442.8,723.4z"/>
			<path class="st2" d="M456,723.4c-0.6,0-1-0.4-1-1v-36.1c0-0.6,0.4-1,1-1s1,0.4,1,1v36.1C457,722.9,456.5,723.4,456,723.4z"/>
			<path class="st2" d="M469.1,723.4c-0.6,0-1-0.4-1-1v-36.1c0-0.6,0.4-1,1-1c0.6,0,1,0.4,1,1v36.1
				C470.1,722.9,469.6,723.4,469.1,723.4z"/>
			<path class="st2" d="M482.2,723.4c-0.6,0-1-0.4-1-1v-36.1c0-0.6,0.4-1,1-1c0.6,0,1,0.4,1,1v36.1
				C483.2,722.9,482.8,723.4,482.2,723.4z"/>
			<path class="st2" d="M495.3,723.4c-0.6,0-1-0.4-1-1v-36.1c0-0.6,0.4-1,1-1c0.6,0,1,0.4,1,1v36.1
				C496.3,722.9,495.9,723.4,495.3,723.4z"/>
			<path class="st2" d="M508.4,723.4c-0.6,0-1-0.4-1-1v-36.1c0-0.6,0.4-1,1-1c0.6,0,1,0.4,1,1v36.1
				C509.4,722.9,509,723.4,508.4,723.4z"/>
		</g>
	</g>
	<g class="st0">
		<path class="st3" d="M234,653.9c0-5.3-4.3-9.7-9.7-9.7c-0.2,0-0.4,0-0.6,0c0.4-1.5,0.6-3,0.6-4.6c0-9.7-7.9-17.6-17.6-17.6
			c-0.9,0-1.7,0.1-2.5,0.2c-3.7-8.3-12-14.1-21.7-14.1c-9.8,0-18.2,5.9-21.8,14.3c-1.2-0.3-2.4-0.4-3.7-0.4
			c-9.7,0-17.6,7.9-17.6,17.6c0,0.2,0,0.5,0,0.7c-0.9-0.2-1.9-0.3-2.9-0.3c-7.6,0-13.8,6.2-13.8,13.8H234V653.9z"/>
		<path class="st2" d="M163,656.4h-27.3c-1.4,0-2.5-1.1-2.5-2.5c0-1.4,1.1-2.5,2.5-2.5H163c1.4,0,2.5,1.1,2.5,2.5
			C165.5,655.3,164.4,656.4,163,656.4z"/>
		<path class="st2" d="M245.4,656.4H234c-1.4,0-2.5-1.1-2.5-2.5c0-3.9-3.2-7.2-7.2-7.2c-0.1,0-0.2,0-0.3,0h-0.1
			c-0.8,0.1-1.6-0.3-2.1-0.9c-0.5-0.6-0.7-1.5-0.5-2.2c0.4-1.3,0.5-2.6,0.5-4c0-8.3-6.8-15.1-15.1-15.1c-0.7,0-1.4,0.1-2.2,0.2
			c-1.1,0.2-2.2-0.4-2.6-1.5c-3.4-7.7-11-12.6-19.4-12.6c-8.5,0-16.1,5-19.5,12.8c-0.5,1.1-1.7,1.7-2.8,1.5s-2.1-0.3-3.2-0.3
			c-8.3,0-15.1,6.8-15.1,15.1c0,0.2,0,0.4,0,0.6c0,0.8-0.3,1.5-0.9,2c-0.6,0.5-1.4,0.7-2.1,0.5c-0.8-0.2-1.6-0.3-2.4-0.3
			c-6.3,0-11.3,5.1-11.3,11.3c0,1.4-1.1,2.5-2.5,2.5h-15.6c-1.4,0-2.5-1.1-2.5-2.5c0-1.4,1.1-2.5,2.5-2.5h13.3
			c1.2-8,8.3-14.1,16.6-13.8c1-10.1,9.6-18.1,20-18.1c0.8,0,1.5,0,2.3,0.1c4.5-8.6,13.4-14.1,23.3-14.1c9.8,0,18.7,5.4,23.2,14
			c11.6-0.6,21.2,8.7,21.2,20.1c0,0.8,0,1.6-0.1,2.3c4.8,0.9,8.5,4.7,9.5,9.4h9.1c1.4,0,2.5,1.1,2.5,2.5
			C248,655.1,246.8,656.4,245.4,656.4z"/>
		<path class="st2" d="M224.3,656.4h-21.1c-1.4,0-2.5-1.1-2.5-2.5c0-1.4,1.1-2.5,2.5-2.5h21.1c1.4,0,2.5,1.1,2.5,2.5
			C226.8,655.3,225.7,656.4,224.3,656.4z"/>
		<path class="st2" d="M98,656.4h-6.2c-1.4,0-2.5-1.1-2.5-2.5c0-1.4,1.1-2.5,2.5-2.5H98c1.4,0,2.5,1.1,2.5,2.5
			C100.5,655.3,99.4,656.4,98,656.4z"/>
	</g>
</g>
</svg>
