<?xml version="1.0" encoding="utf-8"?>
<!-- Generator: Adobe Illustrator 21.0.0, SVG Export Plug-In . SVG Version: 6.00 Build 0)  -->
<svg version="1.1" id="Layer_1" xmlns="http://www.w3.org/2000/svg" xmlns:xlink="http://www.w3.org/1999/xlink" x="0px" y="0px"
	 viewBox="0 0 1200 900" style="enable-background:new 0 0 1200 900;" xml:space="preserve">
<style type="text/css">
	.st0{clip-path:url(#SVGID_2_);}
	.st1{fill:#D9F1FD;}
	.st2{fill:#462C6B;}
	.st3{fill:#897E9E;}
</style>
<g>
	<defs>
		<rect id="SVGID_1_" x="0" y="0" width="1200" height="900"/>
	</defs>
	<clipPath id="SVGID_2_">
		<use xlink:href="#SVGID_1_"  style="overflow:visible;"/>
	</clipPath>
	<g class="st0">
		<path class="st1" d="M913.3,146.7c0-6.5,5.3-11.7,11.7-11.7c0.3,0,0.5,0,0.8,0c-0.5-1.8-0.8-3.7-0.8-5.6
			c0-11.8,9.6-21.4,21.4-21.4c1,0,2.1,0.1,3.1,0.2C954,98.1,964.1,91,975.9,91c11.9,0,22.1,7.2,26.5,17.4c1.5-0.3,3-0.5,4.5-0.5
			c11.8,0,21.4,9.6,21.4,21.4c0,0.3,0,0.6,0,0.9c1.1-0.2,2.3-0.4,3.5-0.4c9.3,0,16.8,7.5,16.8,16.8H913.3V146.7z"/>
		<path class="st2" d="M1008,149.2h-19.8c-1.4,0-2.5-1.1-2.5-2.5s1.1-2.5,2.5-2.5h19.8c1.4,0,2.5,1.1,2.5,2.5
			S1009.4,149.2,1008,149.2z"/>
		<path class="st2" d="M1032.7,149.2H1021c-1.4,0-2.5-1.1-2.5-2.5s1.1-2.5,2.5-2.5h11.7c1.4,0,2.5,1.1,2.5,2.5
			S1034.1,149.2,1032.7,149.2z"/>
		<path class="st2" d="M1067.6,149.2h-18.9c-1.4,0-2.5-1.1-2.5-2.5c0-7.9-6.4-14.3-14.3-14.3c-1,0-2,0.1-3,0.3
			c-0.8,0.2-1.5,0-2.1-0.5s-0.9-1.2-0.9-2c0-0.3,0-0.5,0-0.8c0-10.4-8.5-18.9-18.9-18.9c-1.3,0-2.7,0.1-4,0.4
			c-1.2,0.2-2.3-0.4-2.8-1.5c-4.2-9.7-13.7-15.9-24.2-15.9c-10.4,0-19.9,6.1-24.1,15.7c-0.5,1-1.5,1.6-2.6,1.5
			c-0.9-0.1-1.8-0.2-2.7-0.2c-10.4,0-18.9,8.5-18.9,18.9c0,1.7,0.2,3.3,0.7,5c0.2,0.8,0,1.6-0.5,2.2s-1.3,1-2.1,0.9h-0.2
			c-0.1,0-0.3,0-0.4,0c-5.1,0-9.2,4.1-9.2,9.2c0,1.4-1.1,2.5-2.5,2.5h-13.8c-1.4,0-2.5-1.1-2.5-2.5s1.1-2.5,2.5-2.5h11.5
			c1.1-5.9,5.8-10.6,11.7-11.5c-0.1-1.1-0.2-2.2-0.2-3.3c0-13.7,11.6-24.8,25.5-23.9c5.4-10.4,16.1-17,27.9-17
			c11.9,0,22.6,6.7,27.9,17.1c1-0.1,2-0.2,3.1-0.2c12.5,0,22.8,9.7,23.8,22c0.4,0,0.7,0,1.1,0c9.8,0,17.9,7.3,19.1,16.8h16.6
			c1.4,0,2.5,1.1,2.5,2.5S1069,149.2,1067.6,149.2z"/>
		<path class="st2" d="M950.8,149.2h-25.6c-1.4,0-2.5-1.1-2.5-2.5s1.1-2.5,2.5-2.5h25.6c1.4,0,2.5,1.1,2.5,2.5
			S952.2,149.2,950.8,149.2z"/>
	</g>
	<g class="st0">
		<path class="st1" d="M704.3,114.9c0-5.3,4.3-9.7,9.7-9.7c0.2,0,0.4,0,0.6,0c-0.4-1.5-0.6-3-0.6-4.6c0-9.7,7.9-17.6,17.6-17.6
			c0.9,0,1.7,0.1,2.5,0.2c3.7-8.3,12-14.1,21.7-14.1c9.8,0,18.2,5.9,21.8,14.3c1.2-0.3,2.4-0.4,3.7-0.4c9.7,0,17.6,7.9,17.6,17.6
			c0,0.2,0,0.5,0,0.7c0.9-0.2,1.9-0.3,2.9-0.3c7.6,0,13.8,6.2,13.8,13.8H704.3V114.9z"/>
		<path class="st3" d="M802.6,117.4h-27.4c-1.4,0-2.5-1.1-2.5-2.5s1.1-2.5,2.5-2.5h27.3c1.4,0,2.5,1.1,2.5,2.5
			S803.9,117.4,802.6,117.4z"/>
		<path class="st3" d="M831.3,117.4h-15.6c-1.4,0-2.5-1.1-2.5-2.5c0-6.3-5.1-11.3-11.3-11.3c-0.8,0-1.6,0.1-2.4,0.3
			c-0.8,0.2-1.5,0-2.1-0.5s-0.9-1.2-0.9-2c0-0.2,0-0.4,0-0.6c0-8.3-6.8-15.1-15.1-15.1c-1.1,0-2.1,0.1-3.2,0.3
			c-1.2,0.2-2.3-0.4-2.8-1.5c-3.4-7.8-11-12.8-19.5-12.8c-8.4,0-16,5-19.4,12.6c-0.5,1-1.5,1.6-2.6,1.5c-9.3-1.3-17.3,5.9-17.3,15
			c0,1.3,0.2,2.7,0.5,4c0.2,0.8,0,1.6-0.5,2.2s-1.3,1-2.1,0.9h-0.2c-0.1,0-0.2,0-0.3,0c-3.9,0-7.2,3.2-7.2,7.2
			c0,1.4-1.1,2.5-2.5,2.5h-11.4c-1.4,0-2.5-1.1-2.5-2.5s1.1-2.5,2.5-2.5h9.1c1-4.7,4.8-8.5,9.5-9.4c-0.1-0.8-0.1-1.6-0.1-2.3
			c0-11.4,9.6-20.7,21.2-20.1c4.5-8.5,13.4-14,23.2-14s18.8,5.5,23.3,14.1c0.8-0.1,1.5-0.1,2.3-0.1c10.4,0,19,7.9,20,18.1
			c8.3-0.3,15.4,5.8,16.6,13.8h13.3c1.4,0,2.5,1.1,2.5,2.5S832.7,117.4,831.3,117.4z"/>
		<path class="st3" d="M735.1,117.4H714c-1.4,0-2.5-1.1-2.5-2.5s1.1-2.5,2.5-2.5h21.1c1.4,0,2.5,1.1,2.5,2.5
			S736.5,117.4,735.1,117.4z"/>
		<path class="st2" d="M846.5,117.4h-6.2c-1.4,0-2.5-1.1-2.5-2.5s1.1-2.5,2.5-2.5h6.2c1.4,0,2.5,1.1,2.5,2.5
			S847.9,117.4,846.5,117.4z"/>
	</g>
</g>
</svg>
