<svg xmlns="http://www.w3.org/2000/svg" viewBox="0 0 917.1 450" style="white-space:preserve-spaces"><g transform="translate(458.6,221.2) translate(-387.4,-174.7)"><g transform="translate(-64.6,-147.7)"><path d="M839.4 391.4v-14.75H473.15v14.75l183.125 105.75L839.4 391.4z" fill="#005fad"></path><path d="M839.4 376.6L656.275 270.85 473.15 376.6l183.125 105.75L839.4 376.6z" fill="#0071ce"></path><path fill="#2d536d" d="M556.63 404.196l26.597-15.356 7.56 4.365-18.823 10.867 10.017 5.784 16.45-9.497 7.56 4.364-16.45 9.498 18.144 10.475-7.775 4.489zm46.257-18.086l11.623 6.711 8.839-5.103c1.8-1.04 2.92-1.905 3.348-2.697.705-1.389-.083-2.789-2.54-4.208-2.646-1.527-5.26-2.091-7.584-1.732-1.467.193-2.884.792-4.602 1.784zm3.16-10.554c2.714-1.458 5.138-2.42 7.19-2.842 2.135-.469 4.32-.53 6.626-.333 1.952.182 3.74.459 5.65.994a21.547 21.547 0 0 1 5.272 2.193c2.079 1.2 3.572 2.63 4.656 4.295 1.085 1.666 1.03 3.335-.166 5.007 2.474-.556 4.836-.61 7.084-.162 2.249.448 4.844 1.568 7.868 3.314l2.93 1.691c1.984 1.146 3.39 1.863 4.132 2.197 1.38.513 2.722.72 3.93.568l1.135.655-8.675 5.009c-1.19-.404-2.11-.746-2.854-1.081-1.298-.56-2.784-1.23-4.013-1.939l-4.145-2.299c-2.74-1.582-5.04-2.437-6.79-2.408-1.764-.073-3.791.552-6.083 1.875l-8.102 4.678 17.01 9.82-7.693 4.442-43.375-25.043zm72.537.677c3.11-1.796 4.243-3.977 3.479-6.591-.846-2.568-3.631-5.215-8.545-8.052-4.914-2.837-9.5-4.445-14.04-4.988-4.529-.441-8.307.213-11.417 2.008-3.11 1.796-4.242 3.977-3.478 6.591.845 2.568 3.643 5.317 8.557 8.154 4.914 2.837 9.582 4.398 14.028 4.886 4.528.441 8.307-.213 11.416-2.008zm2.79-19.18c7.75 4.475 11.82 8.999 12.214 13.573.538 3.618-1.853 6.962-7.255 10.08-5.32 3.072-11.194 4.5-17.378 4.142-8.005-.18-15.84-2.53-23.59-7.004-7.938-4.583-12.009-9.107-12.131-13.62-.62-3.57 1.853-6.962 7.172-10.033 5.402-3.119 11.195-4.5 17.461-4.189 7.734.118 15.57 2.469 23.508 7.052zm9.295-30.354l11.212-6.473 43.376 25.043-7.284 4.205-29.295-16.913-3.59-2.074c-1.431-.92-2.565-1.575-3.415-2.066l29.262 25.117-7.611 4.394-43.503-16.895c.85.491 2.067 1.099 3.579 1.972l3.59 2.073 29.296 16.913-7.284 4.206-43.375-25.043 11.375-6.568 40.99 15.727zm8.873 100.915l6.237 3.6a7.154 7.154 0 0 0 1.487.67c.812.186 1.505.113 2.16-.265.736-.425.931-.974.503-1.6-.215-.312-.7-.687-1.361-1.069l-5.67-3.273 2.373-1.37 10.395 6.001-2.291 1.323-1.512-.873c.094.055.107.156.214.313l.05.407c-.03.455-.075.807-.307 1.05-.139.299-.548.535-1.039.819-1.31.756-2.682 1.003-4.307.631-.907-.24-1.84-.684-3.068-1.393l-6.237-3.6zm12.333-7.338c1.145-.662 2.6-.956 4.2-.789 1.694.223 3.25.743 4.856 1.67 1.607.928 2.602 1.88 2.987 2.859.385.978.052 1.825-1.176 2.534-.736.425-1.498.647-2.367.712-.435.033-.964.01-1.858-.128l1.323.764-2.292 1.323-13.986-8.075 2.292-1.323 5.008 2.892c-.24-.516-.195-.869-.152-1.222.126-.4.51-.84 1.165-1.217zm8.026 5.295c.573-.33.78-.778.541-1.294-.24-.516-.832-1.047-1.682-1.538a10.379 10.379 0 0 0-2.136-.95c-1.178-.302-2.223-.244-3.042.229-.9.52-1 1.123-.477 1.803.309.367.888.796 1.644 1.233.851.49 1.77.833 2.747.924.894.138 1.669.018 2.405-.407zm-.063-9.675l6.237 3.6a7.154 7.154 0 0 0 1.487.67c.813.186 1.505.113 2.16-.265.818-.472.931-.974.503-1.6-.214-.312-.7-.687-1.361-1.069l-5.67-3.273 2.373-1.37 10.395 6.001-2.291 1.323-1.512-.873c.094.055.107.156.214.313.013.102.12.258.05.407.051.407-.074.807-.307 1.05-.139.299-.548.535-1.039.819-1.31.756-2.682 1.003-4.225.584-.99-.193-1.921-.637-3.15-1.346l-6.237-3.6zm12.497-7.433c.9-.52 1.92-.781 3.142-.832 1.045-.058 2.235.346 3.558 1.11l6.993 4.037-2.373 1.37-6.331-3.655a6.824 6.824 0 0 0-1.393-.615c-.812-.185-1.505-.113-2.16.265-.818.473-.918 1.076-.408 1.654.215.313.7.688 1.361 1.07l5.576 3.219-2.374 1.37-10.395-6.002 2.292-1.323 1.512.873c-.145-.461-.278-.821-.316-1.127.113-.502.579-.989 1.316-1.414zm6.36-1.053l-1.985-1.146 1.228-.708-2.835-1.637 2.373-1.37 2.835 1.636 1.391-.803 1.985 1.146-1.392.803 5.481 3.164c.378.219.662.382.838.39.258-.04.598-.127 1.09-.41l.245-.143.164-.094 1.984 1.146-.97.668c-1.145.662-2.07.978-3.047.887-.529-.022-1.165-.2-1.826-.582l-6.332-3.656zm7.087-6.492l6.237 3.6c.661.383 1.12.554 1.568.623.73.233 1.423.16 2.078-.218.819-.473 1.013-1.021.503-1.6-.214-.312-.7-.687-1.361-1.069l-5.67-3.274 2.373-1.37 10.395 6.002-2.291 1.323-1.512-.873c.094.054.107.156.214.313.013.101.12.258.05.407.051.407.008.76-.307 1.05-.139.299-.548.535-.957.771-1.391.803-2.764 1.05-4.307.632-.907-.24-1.921-.637-3.15-1.346l-6.237-3.601z"></path></g><g id="anime-run1-right" opacity="0" transform="translate(-65,-168.2) translate(0,0) translate(0,0)"><path d="M0 0v11.8h-293V0l146.5-84.6L0 0z" fill="#bf534f" transform="translate(839.7,288.7) rotate(180) scale(-1.25,1.25)"></path><path d="M0 0l-146.5 84.6L-293 0l146.5-84.6L0 0z" fill="#ff6d68" transform="translate(839.4,274) rotate(180) scale(-1.25,1.25)"></path><path fill="#933131" d="M14.4-37.9v12.3h10.9c2.2 0 3.8-.2 4.9-.7 1.9-.9 2.8-2.6 2.8-5.2 0-2.8-.9-4.7-2.7-5.6-1.1-.6-2.6-.8-4.7-.8zm13.2-8c3.2.1 5.7.5 7.4 1.2 1.7.7 3.2 1.8 4.4 3.2 1 1.2 1.8 2.4 2.4 3.9.6 1.4.9 3 .9 4.8 0 2.2-.6 4.3-1.7 6.4-1.1 2.1-2.9 3.6-5.4 4.5 2.1.8 3.6 2 4.5 3.6.8 1.6 1.3 4 1.3 7.2V-8c0 2.1.1 3.5.2 4.2.3 1.2.9 2.1 1.8 2.6V0H32.8c-.3-1-.5-1.8-.6-2.5-.3-1.2-.4-2.6-.4-3.9l-.1-4.3c0-2.9-.5-4.9-1.6-5.8-1-1-2.9-1.5-5.8-1.5h-9.9V0H5.1v-45.9zm23.3 0h9.7v28.2c0 3.2.4 5.5 1.2 6.9 1.1 2.6 3.7 3.9 7.6 3.9 3.8 0 6.4-1.3 7.5-3.9.8-1.4 1.2-3.7 1.2-6.9v-28.2h9.7v28.2c0 4.9-.8 8.7-2.3 11.4-2.8 5-8.2 7.5-16.1 7.5-8 0-13.4-2.5-16.2-7.5-1.5-2.7-2.3-6.5-2.3-11.4zm47.1 0h10.1l18.2 32v-32h9V0h-9.6l-18.8-32.6V0H98z" transform="translate(618.8,312.8) rotate(-30) skewX(30) scale(.945,.945)"></path><path fill="#933131" d="M7.4-5.3c-.2.1-.4.2-.6.2-.1.1-.4.2-.7.2l-.7.2c-.6.1-1 .2-1.3.4-.4.2-.6.6-.6 1.2 0 .5.1.8.4 1 .3.2.6.4 1 .4.6 0 1.2-.2 1.7-.6.5-.3.8-1 .8-2zM5.6-6.7c.6 0 1-.1 1.2-.2.4-.2.6-.5.6-.8 0-.5-.2-.8-.5-1-.3-.1-.7-.2-1.3-.2-.7 0-1.2.1-1.5.5-.2.2-.3.6-.4 1H.9c.1-1 .4-1.8.9-2.4.7-1 2-1.4 3.9-1.4 1.2 0 2.2.2 3.2.7.9.5 1.4 1.4 1.4 2.7v6.3c0 .4.1.6.2.7 0 .2.2.3.4.4V0H7.8c-.1-.2-.2-.4-.2-.6-.1-.2-.1-.4-.1-.7-.4.4-.9.8-1.4 1.1-.6.4-1.3.5-2.1.5-1 0-1.8-.2-2.4-.8-.7-.6-1-1.4-1-2.4 0-1.4.5-2.3 1.6-3 .5-.3 1.4-.5 2.5-.7zm15.1 1.2c0-.8-.2-1.6-.5-2.2-.4-.7-1.1-1-1.9-1-1.1 0-1.8.5-2.2 1.5-.2.5-.3 1.2-.3 2 0 1.2.4 2.1 1.1 2.7.4.3.8.4 1.4.4.8 0 1.4-.3 1.8-.9.4-.6.6-1.5.6-2.5zm-1.6-5.7c1.3 0 2.4.5 3.3 1.4.9.9 1.3 2.3 1.3 4.2 0 1.9-.4 3.4-1.3 4.4-.9 1-2 1.5-3.4 1.5-.8 0-1.6-.2-2.1-.6-.4-.3-.7-.6-1-1.1v5.7h-2.8V-11h2.7v1.6c.4-.4.7-.8 1-1.1.7-.5 1.4-.7 2.3-.7zm5.5 2.4v-2.1h1.6v-3H29v3h1.8v2.1H29V-3c0 .4.1.7.2.8.1.1.5.2 1 .2h.6V.1l-1.4.1c-1.3 0-2.2-.2-2.7-.8-.4-.3-.5-.8-.5-1.5v-6.7zm7.6 1.7h5.7v2.7h-5.7zm13.9 4.7c.7 0 1.3-.2 1.7-.7.5-.5.7-1.3.7-2.4 0-1.1-.2-1.9-.6-2.4-.5-.6-1.1-.8-1.8-.8-1 0-1.7.4-2.1 1.4-.2.5-.3 1.1-.3 1.9 0 .6.1 1.2.3 1.7.4.9 1.1 1.3 2.1 1.3zm-.7-8.8c.6 0 1.1 0 1.5.2.7.3 1.2.8 1.7 1.6V-11h2.7V-.6c0 1.5-.2 2.5-.7 3.2-.8 1.3-2.4 1.9-4.7 1.9-1.4 0-2.5-.3-3.4-.8-.9-.6-1.4-1.4-1.5-2.5h3.1c.1.3.2.6.4.7.3.3.9.4 1.6.4 1 0 1.7-.3 2.1-1 .2-.5.3-1.2.3-2.3v-.7c-.3.5-.6.9-.9 1.1-.6.4-1.3.7-2.2.7-1.4 0-2.5-.5-3.4-1.5-.8-1-1.2-2.4-1.2-4.1 0-1.6.4-3 1.2-4.1.8-1.1 1.9-1.6 3.4-1.6zm13 2.3c-.7 0-1.2.2-1.6.6-.4.4-.6 1-.7 1.7h4.5c-.1-.7-.3-1.3-.7-1.7-.4-.4-.9-.6-1.5-.6zm0-2.4c.9 0 1.7.2 2.4.5.8.4 1.4.9 1.8 1.7.5.6.7 1.4.9 2.2 0 .5.1 1.3.1 2.2h-7.5c0 1.1.3 1.9 1 2.3.4.3.9.4 1.4.4.6 0 1.1-.1 1.5-.5.2-.1.3-.4.5-.7h2.9c-.1.6-.4 1.3-1 2-.9 1-2.3 1.6-3.9 1.6-1.4 0-2.7-.5-3.7-1.4-1.1-.9-1.6-2.3-1.6-4.4 0-1.9.4-3.3 1.4-4.3 1-1.1 2.2-1.6 3.8-1.6zm6.3 2.5v-2.1h1.6v-3h2.8v3h1.8v2.1h-1.8V-3c0 .4.1.7.2.8.1.1.4.2 1 .2h.6V.1l-1.4.1c-1.3 0-2.3-.2-2.7-.8-.4-.3-.5-.8-.5-1.5v-6.7zm17-2.2v6.6c0 .7.1 1.1.2 1.4.3.6.8.9 1.6.9 1 0 1.6-.4 2-1.2.2-.4.3-1 .3-1.7v-6h2.9V0h-2.8v-1.6c0 .1-.1.2-.2.4-.1.1-.2.3-.4.4-.4.4-.9.7-1.3.8-.4.2-.9.2-1.5.2-1.6 0-2.7-.5-3.3-1.7-.3-.7-.4-1.6-.4-2.9V-11zm16.9 5.5c0-.8-.1-1.6-.5-2.2-.4-.7-1-1-1.9-1-1.1 0-1.8.5-2.2 1.5-.2.5-.3 1.2-.3 2 0 1.2.4 2.1 1.1 2.7.4.3.8.4 1.4.4.8 0 1.4-.3 1.8-.9.4-.6.6-1.5.6-2.5zM97-11.2c1.3 0 2.4.5 3.3 1.4.9.9 1.3 2.3 1.3 4.2 0 1.9-.4 3.4-1.3 4.4-.9 1-2 1.5-3.4 1.5-.8 0-1.6-.2-2.1-.6-.3-.3-.7-.6-1-1.1v5.7H91V-11h2.8v1.6c.3-.4.6-.8.9-1.1.7-.5 1.4-.7 2.3-.7zm10.7 0c.7 0 1.3.1 1.8.4.5.3.9.7 1.3 1.2v-5.2h2.9V0h-2.8v-1.5c-.4.6-.9 1.1-1.4 1.4-.5.3-1.2.4-2 .4-1.3 0-2.3-.5-3.2-1.5-.9-1.1-1.3-2.4-1.3-4 0-1.9.4-3.4 1.3-4.4.8-1.1 2-1.6 3.4-1.6zm.7 9.1c.8 0 1.4-.3 1.8-.9.4-.6.6-1.4.6-2.3 0-1.4-.3-2.3-1-2.9-.4-.4-.9-.5-1.4-.5-.9 0-1.5.3-1.9.9-.4.7-.6 1.4-.6 2.4s.2 1.8.6 2.4c.4.6 1 .9 1.9.9zm13.9-3.2c-.1.1-.3.2-.5.2-.2.1-.5.2-.8.2l-.6.2c-.6.1-1.1.2-1.3.4-.5.2-.7.6-.7 1.2 0 .5.2.8.4 1 .3.2.6.4 1 .4.6 0 1.2-.2 1.7-.6.5-.3.8-1 .8-2zm-1.7-1.4c.5 0 .9-.1 1.1-.2.4-.2.6-.5.6-.8 0-.5-.1-.8-.4-1-.3-.1-.8-.2-1.4-.2-.7 0-1.2.1-1.4.5-.2.2-.4.6-.4 1h-2.8c.1-1 .3-1.8.8-2.4.8-1 2.1-1.4 3.9-1.4 1.2 0 2.3.2 3.2.7.9.5 1.4 1.4 1.4 2.7v6.3c0 .4.1.6.2.7.1.2.2.3.4.4V0h-3.1c-.1-.2-.2-.4-.2-.6 0-.2 0-.4-.1-.7-.4.4-.8.8-1.3 1.1-.7.4-1.3.5-2.1.5-1 0-1.8-.2-2.5-.8-.6-.6-1-1.4-1-2.4 0-1.4.6-2.3 1.6-3 .6-.3 1.4-.5 2.5-.7zm6.4-2.1v-2.1h1.5v-3h2.9v3h1.7v2.1h-1.7V-3c0 .4 0 .7.1.8.1.1.5.2 1.1.2h.5V.1l-1.3.1c-1.4 0-2.3-.2-2.8-.8-.3-.3-.5-.8-.5-1.5v-6.7zm12.7-.1c-.7 0-1.2.2-1.5.6-.4.4-.6 1-.7 1.7h4.4c0-.7-.2-1.3-.7-1.7-.4-.4-.9-.6-1.5-.6zm0-2.4c.9 0 1.7.2 2.5.5.7.4 1.3.9 1.8 1.7.4.6.7 1.4.8 2.2.1.5.1 1.3.1 2.2h-7.5c0 1.1.4 1.9 1 2.3.4.3.9.4 1.5.4s1-.1 1.4-.5c.2-.1.4-.4.5-.7h3c-.1.6-.4 1.3-1 2-1 1-2.3 1.6-4 1.6-1.4 0-2.6-.5-3.7-1.4-1.1-.9-1.6-2.3-1.6-4.4 0-1.9.5-3.3 1.5-4.3.9-1.1 2.2-1.6 3.7-1.6z" transform="translate(670,351.9) rotate(-30) skewX(30) scale(.945,.945)"></path></g><g id="anime-run2-right" opacity="0" transform="translate(-65,-108) translate(0,0) translate(0,0)"><path d="M0 0v11.8h-293V0l146.5-84.6L0 0z" fill="#e0b03b" transform="translate(839.7,228.5) rotate(180) scale(-1.25,1.25)"></path><path d="M0 0l-146.5 84.6L-293 0l146.5-84.6L0 0z" fill="#ffc843" transform="translate(839.4,213.7) rotate(180) scale(-1.25,1.25)"></path><path fill="#a58234" d="M14.4-37.9v12.3h10.9c2.2 0 3.8-.2 4.9-.7 1.9-.9 2.8-2.6 2.8-5.2 0-2.8-.9-4.7-2.7-5.6-1.1-.6-2.6-.8-4.7-.8zm13.2-8c3.2.1 5.7.5 7.4 1.2 1.7.7 3.2 1.8 4.4 3.2 1 1.2 1.8 2.4 2.4 3.9.6 1.4.9 3 .9 4.8 0 2.2-.6 4.3-1.7 6.4-1.1 2.1-2.9 3.6-5.4 4.5 2.1.8 3.6 2 4.5 3.6.8 1.6 1.3 4 1.3 7.2V-8c0 2.1.1 3.5.2 4.2.3 1.2.9 2.1 1.8 2.6V0H32.8c-.3-1-.5-1.8-.6-2.5-.3-1.2-.4-2.6-.4-3.9l-.1-4.3c0-2.9-.5-4.9-1.6-5.8-1-1-2.9-1.5-5.8-1.5h-9.9V0H5.1v-45.9zm23.3 0h9.7v28.2c0 3.2.4 5.5 1.2 6.9 1.1 2.6 3.7 3.9 7.6 3.9 3.8 0 6.4-1.3 7.5-3.9.8-1.4 1.2-3.7 1.2-6.9v-28.2h9.7v28.2c0 4.9-.8 8.7-2.3 11.4-2.8 5-8.2 7.5-16.1 7.5-8 0-13.4-2.5-16.2-7.5-1.5-2.7-2.3-6.5-2.3-11.4zm47.1 0h10.1l18.2 32v-32h9V0h-9.6l-18.8-32.6V0H98z" transform="translate(618.8,252.5) rotate(-30) skewX(30) scale(.945,.945)"></path><path fill="#a58234" d="M7.4-5.3c-.2.1-.4.2-.6.2-.1.1-.4.2-.7.2l-.7.2c-.6.1-1 .2-1.3.4-.4.2-.6.6-.6 1.2 0 .5.1.8.4 1 .3.2.6.4 1 .4.6 0 1.2-.2 1.7-.6.5-.3.8-1 .8-2zM5.6-6.7c.6 0 1-.1 1.2-.2.4-.2.6-.5.6-.8 0-.5-.2-.8-.5-1-.3-.1-.7-.2-1.3-.2-.7 0-1.2.1-1.5.5-.2.2-.3.6-.4 1H.9c.1-1 .4-1.8.9-2.4.7-1 2-1.4 3.9-1.4 1.2 0 2.2.2 3.2.7.9.5 1.4 1.4 1.4 2.7v6.3c0 .4.1.6.2.7 0 .2.2.3.4.4V0H7.8c-.1-.2-.2-.4-.2-.6-.1-.2-.1-.4-.1-.7-.4.4-.9.8-1.4 1.1-.6.4-1.3.5-2.1.5-1 0-1.8-.2-2.4-.8-.7-.6-1-1.4-1-2.4 0-1.4.5-2.3 1.6-3 .5-.3 1.4-.5 2.5-.7zm15.1 1.2c0-.8-.2-1.6-.5-2.2-.4-.7-1.1-1-1.9-1-1.1 0-1.8.5-2.2 1.5-.2.5-.3 1.2-.3 2 0 1.2.4 2.1 1.1 2.7.4.3.8.4 1.4.4.8 0 1.4-.3 1.8-.9.4-.6.6-1.5.6-2.5zm-1.6-5.7c1.3 0 2.4.5 3.3 1.4.9.9 1.3 2.3 1.3 4.2 0 1.9-.4 3.4-1.3 4.4-.9 1-2 1.5-3.4 1.5-.8 0-1.6-.2-2.1-.6-.4-.3-.7-.6-1-1.1v5.7h-2.8V-11h2.7v1.6c.4-.4.7-.8 1-1.1.7-.5 1.4-.7 2.3-.7zm5.5 2.4v-2.1h1.6v-3H29v3h1.8v2.1H29V-3c0 .4.1.7.2.8.1.1.5.2 1 .2h.6V.1l-1.4.1c-1.3 0-2.2-.2-2.7-.8-.4-.3-.5-.8-.5-1.5v-6.7zm7.6 1.7h5.7v2.7h-5.7zm13.9 4.7c.7 0 1.3-.2 1.7-.7.5-.5.7-1.3.7-2.4 0-1.1-.2-1.9-.6-2.4-.5-.6-1.1-.8-1.8-.8-1 0-1.7.4-2.1 1.4-.2.5-.3 1.1-.3 1.9 0 .6.1 1.2.3 1.7.4.9 1.1 1.3 2.1 1.3zm-.7-8.8c.6 0 1.1 0 1.5.2.7.3 1.2.8 1.7 1.6V-11h2.7V-.6c0 1.5-.2 2.5-.7 3.2-.8 1.3-2.4 1.9-4.7 1.9-1.4 0-2.5-.3-3.4-.8-.9-.6-1.4-1.4-1.5-2.5h3.1c.1.3.2.6.4.7.3.3.9.4 1.6.4 1 0 1.7-.3 2.1-1 .2-.5.3-1.2.3-2.3v-.7c-.3.5-.6.9-.9 1.1-.6.4-1.3.7-2.2.7-1.4 0-2.5-.5-3.4-1.5-.8-1-1.2-2.4-1.2-4.1 0-1.6.4-3 1.2-4.1.8-1.1 1.9-1.6 3.4-1.6zm13 2.3c-.7 0-1.2.2-1.6.6-.4.4-.6 1-.7 1.7h4.5c-.1-.7-.3-1.3-.7-1.7-.4-.4-.9-.6-1.5-.6zm0-2.4c.9 0 1.7.2 2.4.5.8.4 1.4.9 1.8 1.7.5.6.7 1.4.9 2.2 0 .5.1 1.3.1 2.2h-7.5c0 1.1.3 1.9 1 2.3.4.3.9.4 1.4.4.6 0 1.1-.1 1.5-.5.2-.1.3-.4.5-.7h2.9c-.1.6-.4 1.3-1 2-.9 1-2.3 1.6-3.9 1.6-1.4 0-2.7-.5-3.7-1.4-1.1-.9-1.6-2.3-1.6-4.4 0-1.9.4-3.3 1.4-4.3 1-1.1 2.2-1.6 3.8-1.6zm6.3 2.5v-2.1h1.6v-3h2.8v3h1.8v2.1h-1.8V-3c0 .4.1.7.2.8.1.1.4.2 1 .2h.6V.1l-1.4.1c-1.3 0-2.3-.2-2.7-.8-.4-.3-.5-.8-.5-1.5v-6.7zm17.1-3.5h-2.9v-2.6h2.9zM78.9-11h2.9V0h-2.9zm11.4-.2c1.1 0 2 .3 2.7.9.8.5 1.1 1.5 1.1 2.9V0h-2.9v-6.7c0-.6-.1-1-.2-1.3-.3-.6-.9-.9-1.7-.9-.9 0-1.6.5-2 1.3-.1.4-.2 1-.2 1.7V0h-2.9v-11H87v1.6c.3-.5.7-.9 1-1.2.6-.4 1.4-.6 2.3-.6zm8.3 7.7c.1.5.2.9.4 1.1.4.4 1 .6 2 .6.6 0 1-.1 1.4-.3.3-.2.4-.4.4-.7 0-.4-.1-.6-.4-.8-.2-.2-1.2-.4-2.9-.9-1.3-.3-2.2-.6-2.7-1.1-.5-.5-.7-1.1-.7-2 0-1 .4-1.9 1.2-2.6.8-.7 1.9-1.1 3.3-1.1s2.5.3 3.4.8c.8.6 1.3 1.5 1.4 2.9h-2.8c-.1-.4-.2-.7-.3-.9-.3-.4-.9-.6-1.6-.6-.7 0-1.1.1-1.4.3-.2.2-.4.4-.4.7 0 .3.2.6.4.7.3.2 1.3.4 3 .8 1.2.3 2 .7 2.6 1.2.6.6.8 1.3.8 2.1 0 1.1-.4 2-1.2 2.6-.8.7-2 1.1-3.7 1.1-1.7 0-3-.4-3.8-1.1-.9-.7-1.3-1.7-1.3-2.8zm7.8-5.3v-2.1h1.5v-3h2.8v3h1.8v2.1h-1.8V-3c0 .4.1.7.2.8.1.1.5.2 1 .2h.6V.1l-1.4.1c-1.3 0-2.2-.2-2.7-.8-.4-.3-.5-.8-.5-1.5v-6.7zm14.4 3.5c-.2.1-.4.2-.6.2-.1.1-.4.2-.7.2l-.7.2c-.6.1-1 .2-1.3.4-.4.2-.6.6-.6 1.2 0 .5.1.8.4 1 .3.2.6.4 1 .4.6 0 1.2-.2 1.7-.6.5-.3.8-1 .8-2zM119-6.7c.6 0 1-.1 1.2-.2.4-.2.6-.5.6-.8 0-.5-.2-.8-.5-1-.3-.1-.7-.2-1.3-.2-.7 0-1.2.1-1.5.5-.2.2-.3.6-.4 1h-2.8c.1-1 .4-1.8.9-2.4.7-1 2-1.4 3.9-1.4 1.2 0 2.2.2 3.2.7.9.5 1.4 1.4 1.4 2.7v6.3c0 .4.1.6.1.7.1.2.3.3.5.4V0h-3.1c-.1-.2-.2-.4-.2-.6-.1-.2-.1-.4-.1-.7-.4.4-.9.8-1.4 1.1-.6.4-1.3.5-2.1.5-1 0-1.8-.2-2.4-.8-.7-.6-1-1.4-1-2.4 0-1.4.5-2.3 1.6-3 .5-.3 1.4-.5 2.5-.7zM129.5 0h-2.9v-14.8h2.9zm5.3 0H132v-14.8h2.8zm14.9-11h3.1l-4 11h-3l-3.9-11h3.2l2.3 8.1zm6.9-1.3h-2.9v-2.6h2.9zm-2.9 1.3h2.9V0h-2.9zm17.6-.2c.4 0 .9.1 1.4.3.5.2.9.5 1.3 1 .3.3.5.8.6 1.4.1.3.1.9.1 1.6V0h-3v-7c0-.4 0-.7-.2-1-.2-.5-.7-.8-1.4-.8-.8 0-1.3.3-1.6 1-.2.4-.3.8-.3 1.3V0h-2.8v-6.5c0-.7-.1-1.2-.2-1.5-.3-.5-.8-.8-1.5-.8-.8 0-1.3.3-1.6.8-.2.3-.2.8-.2 1.4V0h-3v-11h2.8v1.6c.4-.5.7-.9 1-1.2.6-.4 1.3-.6 2.2-.6.8 0 1.5.2 2 .5.5.4.8.8 1 1.4.4-.7.8-1.2 1.4-1.5.6-.3 1.2-.4 2-.4z" transform="translate(657.5,298.9) rotate(-30) skewX(30) scale(.945,.945)"></path></g><g transform="translate(-65.6,-147.7)"><path d="M431.9 391.4v-14.75H65.65v14.75l183.125 105.75L431.9 391.4z" fill="#005fad"></path><path d="M431.9 376.6L248.775 270.85 65.65 376.6l183.125 105.75L431.9 376.6z" fill="#0071ce"></path><path fill="#2d536d" d="M149.13 404.196l26.597-15.356 7.56 4.365-18.823 10.867 10.017 5.784 16.45-9.497 7.56 4.364-16.45 9.498 18.144 10.475-7.775 4.489zm46.257-18.086l11.623 6.711 8.839-5.103c1.8-1.04 2.92-1.905 3.348-2.697.705-1.389-.083-2.789-2.54-4.208-2.646-1.527-5.26-2.091-7.584-1.732-1.467.193-2.884.792-4.602 1.784zm3.16-10.554c2.714-1.458 5.138-2.42 7.19-2.842 2.135-.469 4.32-.53 6.626-.333 1.952.182 3.74.459 5.65.994a21.547 21.547 0 0 1 5.272 2.193c2.079 1.2 3.572 2.63 4.656 4.295 1.085 1.666 1.03 3.335-.166 5.007 2.474-.556 4.836-.61 7.084-.162 2.249.448 4.844 1.568 7.868 3.314l2.93 1.691c1.984 1.146 3.39 1.863 4.132 2.197 1.38.513 2.722.72 3.93.568l1.135.655-8.675 5.009c-1.19-.404-2.11-.746-2.854-1.081-1.298-.56-2.784-1.23-4.013-1.939l-4.145-2.299c-2.74-1.582-5.04-2.437-6.79-2.408-1.764-.073-3.791.552-6.083 1.875l-8.102 4.678 17.01 9.82-7.693 4.442-43.375-25.043zm72.537.677c3.11-1.796 4.243-3.977 3.479-6.591-.846-2.568-3.631-5.215-8.545-8.052-4.914-2.837-9.5-4.445-14.04-4.988-4.529-.441-8.307.213-11.417 2.008-3.11 1.796-4.242 3.977-3.478 6.591.845 2.568 3.643 5.317 8.557 8.154 4.914 2.837 9.582 4.398 14.028 4.886 4.528.441 8.307-.213 11.416-2.008zm2.79-19.18c7.75 4.475 11.82 8.999 12.214 13.573.538 3.618-1.853 6.962-7.255 10.08-5.32 3.072-11.194 4.5-17.378 4.142-8.005-.18-15.84-2.53-23.59-7.004-7.938-4.583-12.009-9.107-12.131-13.62-.62-3.57 1.853-6.962 7.172-10.033 5.402-3.119 11.195-4.5 17.461-4.189 7.734.118 15.57 2.469 23.508 7.052zm9.295-30.354l11.212-6.473 43.376 25.043-7.284 4.205-29.295-16.913-3.59-2.074c-1.431-.92-2.565-1.575-3.415-2.066l29.262 25.117-7.611 4.394-43.503-16.895c.85.491 2.067 1.099 3.579 1.972l3.59 2.073 29.296 16.913-7.284 4.206-43.375-25.043 11.375-6.568 40.99 15.727zm8.873 100.915l6.237 3.6a7.154 7.154 0 0 0 1.487.67c.812.186 1.505.113 2.16-.265.736-.425.931-.974.503-1.6-.215-.312-.7-.687-1.361-1.069l-5.67-3.273 2.373-1.37 10.395 6.001-2.291 1.323-1.512-.873c.094.055.107.156.214.313l.05.407c-.03.455-.075.807-.307 1.05-.139.299-.548.535-1.039.819-1.31.756-2.682 1.003-4.307.631-.907-.24-1.84-.684-3.068-1.393l-6.237-3.6zm12.333-7.338c1.145-.662 2.6-.956 4.2-.789 1.694.223 3.25.743 4.856 1.67 1.607.928 2.602 1.88 2.987 2.859.385.978.052 1.825-1.176 2.534-.736.425-1.498.647-2.367.712-.435.033-.964.01-1.858-.128l1.323.764-2.292 1.323-13.986-8.075 2.292-1.323 5.008 2.892c-.24-.516-.195-.869-.152-1.222.126-.4.51-.84 1.165-1.217zm8.026 5.295c.573-.33.78-.778.541-1.294-.24-.516-.832-1.047-1.682-1.538a10.379 10.379 0 0 0-2.136-.95c-1.178-.302-2.223-.244-3.042.229-.9.52-1 1.123-.477 1.803.309.367.888.796 1.644 1.233.851.49 1.77.833 2.747.924.894.138 1.669.018 2.405-.407zm-.063-9.675l6.237 3.6a7.154 7.154 0 0 0 1.487.67c.813.186 1.505.113 2.16-.265.818-.472.931-.974.503-1.6-.214-.312-.7-.687-1.361-1.069l-5.67-3.273 2.373-1.37 10.395 6.001-2.291 1.323-1.512-.873c.094.055.107.156.214.313.013.102.12.258.05.407.051.407-.074.807-.307 1.05-.139.299-.548.535-1.039.819-1.31.756-2.682 1.003-4.225.584-.99-.193-1.921-.637-3.15-1.346l-6.237-3.6zm12.497-7.433c.9-.52 1.92-.781 3.142-.832 1.045-.058 2.235.346 3.558 1.11l6.993 4.037-2.373 1.37-6.331-3.655a6.824 6.824 0 0 0-1.393-.615c-.812-.185-1.505-.113-2.16.265-.818.473-.918 1.076-.408 1.654.215.313.7.688 1.361 1.07l5.576 3.219-2.374 1.37-10.395-6.002 2.292-1.323 1.512.873c-.145-.461-.278-.821-.316-1.127.113-.502.579-.989 1.316-1.414zm6.36-1.053l-1.985-1.146 1.228-.708-2.835-1.637 2.373-1.37 2.835 1.636 1.391-.803 1.985 1.146-1.392.803 5.481 3.164c.378.219.662.382.838.39.258-.04.598-.127 1.09-.41l.245-.143.164-.094 1.984 1.146-.97.668c-1.145.662-2.07.978-3.047.887-.529-.022-1.165-.2-1.826-.582l-6.332-3.656zm7.087-6.492l6.237 3.6c.661.383 1.12.554 1.568.623.73.233 1.423.16 2.078-.218.819-.473 1.013-1.021.503-1.6-.214-.312-.7-.687-1.361-1.069l-5.67-3.274 2.373-1.37 10.395 6.002-2.291 1.323-1.512-.873c.094.054.107.156.214.313.013.101.12.258.05.407.051.407.008.76-.307 1.05-.139.299-.548.535-.957.771-1.391.803-2.764 1.05-4.307.632-.907-.24-1.921-.637-3.15-1.346l-6.237-3.601z"></path></g><g id="anime-run-left" opacity="0" transform="translate(-65.6,-168.2) translate(0,0) translate(0,0)"><path d="M0 0v11.8h-293V0l146.5-84.6L0 0z" fill="#bf534f" transform="translate(432.2,288.7) rotate(180) scale(-1.25,1.25)"></path><path d="M0 0l-146.5 84.6L-293 0l146.5-84.6L0 0z" fill="#ff6d68" transform="translate(431.9,274) rotate(180) scale(-1.25,1.25)"></path><path fill="#933131" d="M14.4-37.9v12.3h10.9c2.2 0 3.8-.2 4.9-.7 1.9-.9 2.8-2.6 2.8-5.2 0-2.8-.9-4.7-2.7-5.6-1.1-.6-2.6-.8-4.7-.8zm13.2-8c3.2.1 5.7.5 7.4 1.2 1.7.7 3.2 1.8 4.4 3.2 1 1.2 1.8 2.4 2.4 3.9.6 1.4.9 3 .9 4.8 0 2.2-.6 4.3-1.7 6.4-1.1 2.1-2.9 3.6-5.4 4.5 2.1.8 3.6 2 4.5 3.6.8 1.6 1.3 4 1.3 7.2V-8c0 2.1.1 3.5.2 4.2.3 1.2.9 2.1 1.8 2.6V0H32.8c-.3-1-.5-1.8-.6-2.5-.3-1.2-.4-2.6-.4-3.9l-.1-4.3c0-2.9-.5-4.9-1.6-5.8-1-1-2.9-1.5-5.8-1.5h-9.9V0H5.1v-45.9zm23.3 0h9.7v28.2c0 3.2.4 5.5 1.2 6.9 1.1 2.6 3.7 3.9 7.6 3.9 3.8 0 6.4-1.3 7.5-3.9.8-1.4 1.2-3.7 1.2-6.9v-28.2h9.7v28.2c0 4.9-.8 8.7-2.3 11.4-2.8 5-8.2 7.5-16.1 7.5-8 0-13.4-2.5-16.2-7.5-1.5-2.7-2.3-6.5-2.3-11.4zm47.1 0h10.1l18.2 32v-32h9V0h-9.6l-18.8-32.6V0H98z" transform="translate(211.3,312.8) rotate(-30) skewX(30) scale(.945,.945)"></path><path fill="#933131" d="M7.4-5.3c-.2.1-.4.2-.6.2-.1.1-.4.2-.7.2l-.7.2c-.6.1-1 .2-1.3.4-.4.2-.6.6-.6 1.2 0 .5.1.8.4 1 .3.2.6.4 1 .4.6 0 1.2-.2 1.7-.6.5-.3.8-1 .8-2zM5.6-6.7c.6 0 1-.1 1.2-.2.4-.2.6-.5.6-.8 0-.5-.2-.8-.5-1-.3-.1-.7-.2-1.3-.2-.7 0-1.2.1-1.5.5-.2.2-.3.6-.4 1H.9c.1-1 .4-1.8.9-2.4.7-1 2-1.4 3.9-1.4 1.2 0 2.2.2 3.2.7.9.5 1.4 1.4 1.4 2.7v6.3c0 .4.1.6.2.7 0 .2.2.3.4.4V0H7.8c-.1-.2-.2-.4-.2-.6-.1-.2-.1-.4-.1-.7-.4.4-.9.8-1.4 1.1-.6.4-1.3.5-2.1.5-1 0-1.8-.2-2.4-.8-.7-.6-1-1.4-1-2.4 0-1.4.5-2.3 1.6-3 .5-.3 1.4-.5 2.5-.7zm15.1 1.2c0-.8-.2-1.6-.5-2.2-.4-.7-1.1-1-1.9-1-1.1 0-1.8.5-2.2 1.5-.2.5-.3 1.2-.3 2 0 1.2.4 2.1 1.1 2.7.4.3.8.4 1.4.4.8 0 1.4-.3 1.8-.9.4-.6.6-1.5.6-2.5zm-1.6-5.7c1.3 0 2.4.5 3.3 1.4.9.9 1.3 2.3 1.3 4.2 0 1.9-.4 3.4-1.3 4.4-.9 1-2 1.5-3.4 1.5-.8 0-1.6-.2-2.1-.6-.4-.3-.7-.6-1-1.1v5.7h-2.8V-11h2.7v1.6c.4-.4.7-.8 1-1.1.7-.5 1.4-.7 2.3-.7zm5.5 2.4v-2.1h1.6v-3H29v3h1.8v2.1H29V-3c0 .4.1.7.2.8.1.1.5.2 1 .2h.6V.1l-1.4.1c-1.3 0-2.2-.2-2.7-.8-.4-.3-.5-.8-.5-1.5v-6.7zm7.6 1.7h5.7v2.7h-5.7zm13.9 4.7c.7 0 1.3-.2 1.7-.7.5-.5.7-1.3.7-2.4 0-1.1-.2-1.9-.6-2.4-.5-.6-1.1-.8-1.8-.8-1 0-1.7.4-2.1 1.4-.2.5-.3 1.1-.3 1.9 0 .6.1 1.2.3 1.7.4.9 1.1 1.3 2.1 1.3zm-.7-8.8c.6 0 1.1 0 1.5.2.7.3 1.2.8 1.7 1.6V-11h2.7V-.6c0 1.5-.2 2.5-.7 3.2-.8 1.3-2.4 1.9-4.7 1.9-1.4 0-2.5-.3-3.4-.8-.9-.6-1.4-1.4-1.5-2.5h3.1c.1.3.2.6.4.7.3.3.9.4 1.6.4 1 0 1.7-.3 2.1-1 .2-.5.3-1.2.3-2.3v-.7c-.3.5-.6.9-.9 1.1-.6.4-1.3.7-2.2.7-1.4 0-2.5-.5-3.4-1.5-.8-1-1.2-2.4-1.2-4.1 0-1.6.4-3 1.2-4.1.8-1.1 1.9-1.6 3.4-1.6zm13 2.3c-.7 0-1.2.2-1.6.6-.4.4-.6 1-.7 1.7h4.5c-.1-.7-.3-1.3-.7-1.7-.4-.4-.9-.6-1.5-.6zm0-2.4c.9 0 1.7.2 2.4.5.8.4 1.4.9 1.8 1.7.5.6.7 1.4.9 2.2 0 .5.1 1.3.1 2.2h-7.5c0 1.1.3 1.9 1 2.3.4.3.9.4 1.4.4.6 0 1.1-.1 1.5-.5.2-.1.3-.4.5-.7h2.9c-.1.6-.4 1.3-1 2-.9 1-2.3 1.6-3.9 1.6-1.4 0-2.7-.5-3.7-1.4-1.1-.9-1.6-2.3-1.6-4.4 0-1.9.4-3.3 1.4-4.3 1-1.1 2.2-1.6 3.8-1.6zm6.3 2.5v-2.1h1.6v-3h2.8v3h1.8v2.1h-1.8V-3c0 .4.1.7.2.8.1.1.4.2 1 .2h.6V.1l-1.4.1c-1.3 0-2.3-.2-2.7-.8-.4-.3-.5-.8-.5-1.5v-6.7zm17-2.2v6.6c0 .7.1 1.1.2 1.4.3.6.8.9 1.6.9 1 0 1.6-.4 2-1.2.2-.4.3-1 .3-1.7v-6h2.9V0h-2.8v-1.6c0 .1-.1.2-.2.4-.1.1-.2.3-.4.4-.4.4-.9.7-1.3.8-.4.2-.9.2-1.5.2-1.6 0-2.7-.5-3.3-1.7-.3-.7-.4-1.6-.4-2.9V-11zm16.9 5.5c0-.8-.1-1.6-.5-2.2-.4-.7-1-1-1.9-1-1.1 0-1.8.5-2.2 1.5-.2.5-.3 1.2-.3 2 0 1.2.4 2.1 1.1 2.7.4.3.8.4 1.4.4.8 0 1.4-.3 1.8-.9.4-.6.6-1.5.6-2.5zM97-11.2c1.3 0 2.4.5 3.3 1.4.9.9 1.3 2.3 1.3 4.2 0 1.9-.4 3.4-1.3 4.4-.9 1-2 1.5-3.4 1.5-.8 0-1.6-.2-2.1-.6-.3-.3-.7-.6-1-1.1v5.7H91V-11h2.8v1.6c.3-.4.6-.8.9-1.1.7-.5 1.4-.7 2.3-.7zm10.7 0c.7 0 1.3.1 1.8.4.5.3.9.7 1.3 1.2v-5.2h2.9V0h-2.8v-1.5c-.4.6-.9 1.1-1.4 1.4-.5.3-1.2.4-2 .4-1.3 0-2.3-.5-3.2-1.5-.9-1.1-1.3-2.4-1.3-4 0-1.9.4-3.4 1.3-4.4.8-1.1 2-1.6 3.4-1.6zm.7 9.1c.8 0 1.4-.3 1.8-.9.4-.6.6-1.4.6-2.3 0-1.4-.3-2.3-1-2.9-.4-.4-.9-.5-1.4-.5-.9 0-1.5.3-1.9.9-.4.7-.6 1.4-.6 2.4s.2 1.8.6 2.4c.4.6 1 .9 1.9.9zm13.9-3.2c-.1.1-.3.2-.5.2-.2.1-.5.2-.8.2l-.6.2c-.6.1-1.1.2-1.3.4-.5.2-.7.6-.7 1.2 0 .5.2.8.4 1 .3.2.6.4 1 .4.6 0 1.2-.2 1.7-.6.5-.3.8-1 .8-2zm-1.7-1.4c.5 0 .9-.1 1.1-.2.4-.2.6-.5.6-.8 0-.5-.1-.8-.4-1-.3-.1-.8-.2-1.4-.2-.7 0-1.2.1-1.4.5-.2.2-.4.6-.4 1h-2.8c.1-1 .3-1.8.8-2.4.8-1 2.1-1.4 3.9-1.4 1.2 0 2.3.2 3.2.7.9.5 1.4 1.4 1.4 2.7v6.3c0 .4.1.6.2.7.1.2.2.3.4.4V0h-3.1c-.1-.2-.2-.4-.2-.6 0-.2 0-.4-.1-.7-.4.4-.8.8-1.3 1.1-.7.4-1.3.5-2.1.5-1 0-1.8-.2-2.5-.8-.6-.6-1-1.4-1-2.4 0-1.4.6-2.3 1.6-3 .6-.3 1.4-.5 2.5-.7zm6.4-2.1v-2.1h1.5v-3h2.9v3h1.7v2.1h-1.7V-3c0 .4 0 .7.1.8.1.1.5.2 1.1.2h.5V.1l-1.3.1c-1.4 0-2.3-.2-2.8-.8-.3-.3-.5-.8-.5-1.5v-6.7zm12.7-.1c-.7 0-1.2.2-1.5.6-.4.4-.6 1-.7 1.7h4.4c0-.7-.2-1.3-.7-1.7-.4-.4-.9-.6-1.5-.6zm0-2.4c.9 0 1.7.2 2.5.5.7.4 1.3.9 1.8 1.7.4.6.7 1.4.8 2.2.1.5.1 1.3.1 2.2h-7.5c0 1.1.4 1.9 1 2.3.4.3.9.4 1.5.4s1-.1 1.4-.5c.2-.1.4-.4.5-.7h3c-.1.6-.4 1.3-1 2-1 1-2.3 1.6-4 1.6-1.4 0-2.6-.5-3.7-1.4-1.1-.9-1.6-2.3-1.6-4.4 0-1.9.5-3.3 1.5-4.3.9-1.1 2.2-1.6 3.7-1.6zm13 7.4c0-.9.2-1.7.7-2.3.4-.7 1.2-1.3 2.2-1.9l.3-.2c-.4-.5-.8-1-1-1.5-.3-.5-.4-1-.4-1.5 0-1.1.4-2 1.1-2.6.7-.6 1.7-.9 2.8-.9 1.1 0 2 .3 2.7.9.6.7 1 1.5 1 2.4 0 .9-.2 1.6-.6 2.1-.4.6-1.1 1.1-1.9 1.6l2.2 2.6c.2-.4.4-.8.5-1.2.1-.4.2-.8.2-1.3h2.6c-.1.9-.3 1.8-.7 2.7-.2.6-.5 1.1-1 1.8l2.7 3.2h-3.5l-1-1.3c-.5.5-1 .8-1.4 1.1-.8.4-1.7.6-2.7.6-1.5 0-2.7-.5-3.5-1.4-.8-.9-1.3-1.8-1.3-2.9zm4.5-7.5c0 .2.1.5.2.8.2.2.4.5.8 1 .4-.2.7-.5.9-.7.3-.3.5-.7.5-1.2 0-.3-.1-.5-.3-.8-.2-.2-.5-.3-.9-.3-.3 0-.5 0-.7.2-.4.2-.5.5-.5 1zM155.6-4c0 .5.2.9.6 1.3.4.5.9.7 1.5.7.5 0 .9-.2 1.4-.4.4-.2.7-.4 1-.7l-2.7-3.4c-.8.5-1.2.9-1.5 1.3-.2.4-.3.8-.3 1.2zm11.3.1c0-.9.2-1.7.6-2.3.5-.7 1.2-1.3 2.2-1.9l.3-.2c-.4-.5-.8-1-1-1.5-.2-.5-.3-1-.3-1.5 0-1.1.3-2 1-2.6.8-.6 1.7-.9 2.9-.9 1 0 1.9.3 2.6.9.7.7 1 1.5 1 2.4 0 .9-.2 1.6-.6 2.1-.4.6-1 1.1-1.8 1.6l2.1 2.6c.2-.4.4-.8.5-1.2.2-.4.2-.8.2-1.3h2.6c-.1.9-.3 1.8-.7 2.7-.2.6-.5 1.1-1 1.8l2.7 3.2h-3.5l-1-1.3c-.5.5-1 .8-1.4 1.1-.8.4-1.7.6-2.7.6-1.5 0-2.6-.5-3.5-1.4-.8-.9-1.2-1.8-1.2-2.9zm4.4-7.5c0 .2.1.5.3.8.1.2.4.5.8 1 .4-.2.7-.5.8-.7.4-.3.5-.7.5-1.2 0-.3-.1-.5-.3-.8-.2-.2-.5-.3-.9-.3-.2 0-.5 0-.7.2-.3.2-.5.5-.5 1zM169.7-4c0 .5.2.9.6 1.3.4.5.9.7 1.5.7.5 0 1-.2 1.4-.4.4-.2.7-.4 1-.7l-2.7-3.4c-.7.5-1.2.9-1.4 1.3-.3.4-.4.8-.4 1.2zM12 19.4c-.2.1-.3.2-.5.3-.2.1-.5.1-.8.2l-.6.1c-.6.1-1.1.2-1.3.4-.5.3-.7.7-.7 1.2s.1.9.4 1.1c.3.2.6.3 1 .3.6 0 1.2-.2 1.7-.5.5-.4.8-1.1.8-2zm-1.7-1.3c.5-.1.9-.2 1.1-.3.4-.2.6-.4.6-.8s-.1-.8-.4-.9c-.3-.2-.8-.3-1.4-.3-.7 0-1.2.2-1.4.5-.2.3-.4.6-.4 1H5.6c0-.9.3-1.7.8-2.3.8-1 2.1-1.5 3.9-1.5 1.2 0 2.3.2 3.2.7.9.5 1.4 1.4 1.4 2.7v6.3c0 .4.1.7.2.8.1.1.2.2.4.3v.4h-3.1c-.1-.2-.2-.4-.2-.6 0-.2 0-.4-.1-.6-.4.4-.8.8-1.3 1.1-.7.3-1.4.5-2.1.5-1 0-1.8-.3-2.5-.9-.6-.5-1-1.3-1-2.4 0-1.3.6-2.3 1.6-2.9.6-.3 1.4-.6 2.5-.7zm15.1 1.2c0-.9-.2-1.6-.6-2.3-.4-.6-1-1-1.9-1-1 0-1.7.5-2.1 1.5-.2.5-.3 1.2-.3 2 0 1.3.3 2.2 1 2.7.4.3.9.5 1.4.5.8 0 1.4-.4 1.8-1 .5-.6.7-1.4.7-2.4zm-1.7-5.8c1.3 0 2.4.5 3.3 1.4.9 1 1.3 2.4 1.3 4.2 0 2-.4 3.4-1.3 4.4-.8 1.1-2 1.6-3.3 1.6-.9 0-1.6-.3-2.2-.7-.3-.2-.6-.6-.9-1.1v5.8h-2.9V13.8h2.8v1.6c.3-.5.6-.9 1-1.1.6-.5 1.4-.8 2.2-.8zm5.6 2.4v-2h1.5v-3.1h2.9v3.1h1.7v2h-1.7v5.8c0 .5 0 .7.1.9.1.1.5.1 1.1.1h.5v2.1l-1.3.1c-1.4 0-2.3-.2-2.8-.7-.3-.3-.5-.8-.5-1.5v-6.8zm7.5 1.7h5.8v2.8h-5.8zm14 4.8c.7 0 1.2-.3 1.7-.8.4-.5.7-1.3.7-2.4 0-1-.2-1.8-.7-2.4-.4-.5-1-.8-1.8-.8-1 0-1.7.5-2 1.4-.2.5-.3 1.2-.3 1.9 0 .6.1 1.2.3 1.7.4.9 1.1 1.4 2.1 1.4zm-.7-8.9c.5 0 1 .1 1.4.3.7.2 1.3.8 1.7 1.6v-1.6H56v10.4c0 1.4-.3 2.5-.7 3.2-.8 1.2-2.4 1.8-4.7 1.8-1.4 0-2.6-.2-3.5-.8-.9-.5-1.4-1.4-1.4-2.5h3.1c.1.4.2.6.4.8.3.2.8.4 1.5.4 1.1 0 1.8-.4 2.1-1.1.2-.4.3-1.2.3-2.2v-.7c-.2.5-.5.8-.8 1-.6.5-1.4.7-2.3.7-1.4 0-2.5-.5-3.3-1.5-.9-1-1.3-2.3-1.3-4 0-1.6.4-3 1.2-4.1.8-1.1 2-1.7 3.5-1.7zM63 15.8c-.7 0-1.2.3-1.5.7-.4.4-.6.9-.7 1.7h4.4c0-.8-.3-1.4-.7-1.8-.4-.4-.9-.6-1.5-.6zm0-2.3c.9 0 1.7.1 2.5.5.7.3 1.3.9 1.8 1.6.4.7.7 1.4.8 2.3.1.5.1 1.2.1 2.2h-7.5c0 1.1.4 1.8 1 2.3.4.2.9.4 1.5.4.5 0 1-.2 1.4-.5.2-.2.4-.5.5-.8h3c-.1.7-.5 1.3-1.1 2-.9 1.1-2.2 1.6-3.9 1.6-1.4 0-2.6-.4-3.7-1.3s-1.6-2.4-1.6-4.4c0-1.9.5-3.4 1.4-4.4 1-1 2.3-1.5 3.8-1.5zm6.4 2.4v-2h1.5v-3.1h2.8v3.1h1.8v2h-1.8v5.8c0 .5.1.7.2.9.1.1.5.1 1.1.1h.5v2.1l-1.3.1c-1.4 0-2.3-.2-2.8-.7-.3-.3-.5-.8-.5-1.5v-6.8zm17-3.4h-2.9V9.8h2.9zm-2.9 1.3h2.9v10.9h-2.9zm11.4-.3c1.1 0 2.1.3 2.8.9.7.6 1.1 1.6 1.1 3v7.3h-3v-6.6c0-.6-.1-1.1-.2-1.4-.3-.5-.8-.8-1.6-.8-1 0-1.7.4-2 1.2-.2.5-.3 1-.3 1.7v5.9h-2.9V13.8h2.8v1.6c.4-.6.7-1 1.1-1.2.5-.5 1.3-.7 2.2-.7zm8.4 7.7c0 .6.2.9.4 1.1.3.4 1 .6 1.9.6.6 0 1.1-.1 1.4-.2.3-.2.5-.5.5-.8 0-.3-.1-.6-.4-.7-.3-.2-1.3-.5-3-.9-1.2-.3-2.1-.7-2.6-1.2-.5-.4-.8-1.1-.8-1.9 0-1 .4-1.9 1.2-2.6.8-.8 1.9-1.1 3.4-1.1 1.3 0 2.4.2 3.3.8.9.5 1.4 1.5 1.5 2.8h-2.9c0-.4-.1-.6-.3-.9-.3-.4-.8-.5-1.6-.5-.6 0-1.1.1-1.3.2-.3.2-.4.5-.4.7 0 .4.1.6.4.7.3.2 1.3.5 3 .8 1.1.3 2 .7 2.5 1.3.6.5.9 1.2.9 2 0 1.1-.4 2-1.2 2.7-.8.7-2.1 1-3.8 1-1.7 0-3-.3-3.8-1.1-.8-.7-1.2-1.6-1.2-2.8zm7.7-5.3v-2h1.5v-3.1h2.9v3.1h1.7v2h-1.7v5.8c0 .5 0 .7.1.9.1.1.5.1 1.1.1h.5v2.1l-1.3.1c-1.4 0-2.3-.2-2.8-.7-.3-.3-.5-.8-.5-1.5v-6.8zm14.4 3.5c-.2.1-.3.2-.5.3-.2.1-.5.1-.8.2l-.6.1c-.6.1-1.1.2-1.3.4-.5.3-.7.7-.7 1.2s.1.9.4 1.1c.3.2.6.3 1 .3.6 0 1.2-.2 1.7-.5.5-.4.8-1.1.8-2zm-1.7-1.3c.5-.1.9-.2 1.1-.3.4-.2.6-.4.6-.8s-.1-.8-.4-.9c-.3-.2-.8-.3-1.4-.3-.7 0-1.2.2-1.4.5-.2.3-.4.6-.4 1H119c0-.9.3-1.7.8-2.3.7-1 2.1-1.5 3.9-1.5 1.2 0 2.3.2 3.2.7.9.5 1.4 1.4 1.4 2.7v6.3c0 .4.1.7.2.8.1.1.2.2.4.3v.4h-3.1c-.1-.2-.2-.4-.2-.6 0-.2-.1-.4-.1-.6-.4.4-.8.8-1.3 1.1-.7.3-1.4.5-2.1.5-1 0-1.8-.3-2.5-.9-.6-.5-1-1.3-1-2.4 0-1.3.6-2.3 1.6-2.9.6-.3 1.4-.6 2.5-.7zm10.4 6.6h-2.8V9.9h2.8zm5.4 0h-2.9V9.9h2.9zm14.9-10.9h3l-3.9 10.9h-3.1l-3.9-10.9h3.2l2.3 8.1zm6.9-1.3h-2.9V9.8h2.9zm-2.9 1.3h2.9v10.9h-2.9zm17.5-.3c.5 0 1 .1 1.4.3.5.2.9.5 1.3 1 .3.4.5.9.6 1.4.1.4.1.9.1 1.6v6.9h-2.9v-6.9c0-.5-.1-.8-.2-1.1-.3-.5-.8-.7-1.4-.7-.8 0-1.4.3-1.7 1-.1.3-.2.7-.2 1.2v6.5H170v-6.5c0-.6-.1-1.1-.2-1.4-.2-.5-.7-.8-1.4-.8-.8 0-1.4.3-1.7.8-.1.3-.2.7-.2 1.3v6.6h-2.9V13.8h2.8v1.6c.3-.6.7-1 1-1.2.5-.5 1.3-.7 2.1-.7.9 0 1.6.2 2.1.6.4.3.7.8.9 1.3.4-.6.9-1.1 1.4-1.4.6-.3 1.3-.5 2-.5z" transform="translate(224.6,348) rotate(-30) skewX(30) scale(.945,.945)"></path></g><g transform="translate(80,9.3)" style="line-height:24px;white-space:pre">Single RUN statement</g><g transform="translate(474,9.3)" style="line-height:24px;white-space:pre">Multiple RUN statements</g></g><script><![CDATA[/*
 KeyshapeJS v1.1.0 (c) 2018-2019 Pixofield Ltd | pixofield.com/keyshapejs/mit-license */
window.KeyshapeJS=function(){function t(a){return"undefined"!==typeof a}function x(a,b){return a&&0==a.indexOf(b)}function H(a){if(!isFinite(a))throw Error("Non-finite value");}function R(a){if(14>=a)return 16;var b=S[a];b||(b=t(ca[a])?0|(a.toLowerCase().indexOf("color")==a.length-5?48:0):1);return b}function K(a){return 0<=a?Math.pow(a,1/3):-Math.pow(-a,1/3)}function da(a,b,c,d){if(0==a)return 0==b?b=-d/c:(a=Math.sqrt(c*c-4*b*d),d=(-c+a)/(2*b),0<=d&&1>=d?b=d:(d=(-c-a)/(2*b),b=0<=d&&1>=d?d:0)),b;
var e=c/a-b*b/(a*a)/3;c=b*b*b/(a*a*a)/13.5-b*c/(a*a)/3+d/a;var n=c*c/4+e*e*e/27;b=-b/(3*a);if(0>=n){if(0==e&&0==c)return-K(d/a);a=Math.sqrt(c*c/4-n);d=Math.acos(-c/2/a);c=Math.cos(d/3);d=Math.sqrt(3)*Math.sin(d/3);a=K(a);e=2*a*c+b;if(0<=e&&1>=e)return e;e=-a*(c+d)+b;if(0<=e&&1>=e)return e;e=a*(d-c)+b;if(0<=e&&1>=e)return e}else{a=K(-c/2+Math.sqrt(n));c=K(-c/2-Math.sqrt(n));d=a+c+b;if(0<=d&&1>=d)return d;d=-(a+c)/2+b;if(0<=d&&1>=d)return d}return 0}function ea(a,b){if(48==a&&"number"===typeof b)return"rgba("+
(b>>>24)+","+(b>>>16&255)+","+(b>>>8&255)+","+(b&255)/255+")";if(64==a)return b=b.map(function(a){return a+"px"}),b.join(",");if(96==a){a="";for(var c=b.length,d=0;d<c;d+=2)a+=b[d],a+=b[d+1].join(",");return a}if(80==a){if(0==b[0])return"none";a="";c=b.length;for(d=0;d<c;)a+=T[b[d]],1==b[d]?a+="("+b[d+1]+") ":5==b[d]?(a+="("+b[d+1]+"px "+b[d+2]+"px "+b[d+3]+"px rgba("+(b[d+4]>>>24)+","+(b[d+4]>>16&255)+","+(b[d+4]>>8&255)+","+(b[d+4]&255)/255+")) ",d+=3):a=2==b[d]?a+("("+b[d+1]+"px) "):7==b[d]?a+
("("+b[d+1]+"deg) "):a+("("+(0>b[d+1]?0:b[d+1])+") "),d+=2;return a}return 32==a?b+"px":b}function y(a){return 0>=a?0:255<=a?255:a}function fa(a,b,c,d){if(16==a||32==a)return(c-b)*d+b;if(0==a)return.5>d?b:c;if(48==a){if("number"===typeof b&&"number"===typeof c){var e=1-d;return(y(e*(b>>>24)+d*(c>>>24))<<24|y(e*(b>>>16&255)+d*(c>>>16&255))<<16|y(e*(b>>>8&255)+d*(c>>>8&255))<<8|y(e*(b&255)+d*(c&255)))>>>0}return.5>d?b:c}if(64==a){0==b.length&&(b=[0]);0==c.length&&(c=[0]);var n=b.length;b.length!=c.length&&
(n=b.length*c.length);var l=[];for(a=0;a<n;++a){var f=b[a%b.length];var h=(c[a%c.length]-f)*d+f;0>h&&(h=0);l.push(h)}return l}if(96==a){if(b.length!=c.length)return.5>d?b:c;n=b.length;l=[];for(a=0;a<n;a+=2){if(b[a]!==c[a])return.5>d?b:c;l[a]=b[a];l[a+1]=[];for(f=0;f<b[a+1].length;++f)l[a+1].push((c[a+1][f]-b[a+1][f])*d+b[a+1][f])}return l}if(80==a){n=b.length;if(n!=c.length)return.5>d?b:c;l=[];for(a=0;a<n;){if(b[a]!=c[a]||1==b[a])return.5>d?b:c;l[a]=b[a];l[a+1]=(c[a+1]-b[a+1])*d+b[a+1];if(5==b[a]){l[a+
2]=(c[a+2]-b[a+2])*d+b[a+2];l[a+3]=(c[a+3]-b[a+3])*d+b[a+3];e=1-d;var g=b[a+4],q=c[a+4];h=e*(g>>>24)+d*(q>>>24);var m=e*(g>>16&255)+d*(q>>16&255);f=e*(g>>8&255)+d*(q>>8&255);e=e*(g&255)+d*(q&255);l[a+4]=(y(m)<<16|y(f)<<8|y(e))+16777216*(y(h)|0);a+=3}a+=2}return l}return 0}function U(a,b){a:{var c=a+b[2];var d=b[4].length;for(var e=0;e<d;++e)if(c<b[4][e]){c=e;break a}c=d-1}d=b[2];e=b[4][c-1]-d;a=(a-e)/(b[4][c]-d-e);if(b[6]&&b[6].length>c-1)if(d=b[6][c-1],1==d[0])if(0>=a)a=0;else if(1<=a)a=1;else{e=
d[1];var n=d[3];a=da(3*e-3*n+1,-6*e+3*n,3*e,-a);a=3*a*(1-a)*(1-a)*d[2]+3*a*a*(1-a)*d[4]+a*a*a}else 2==d[0]?(d=d[1],a=Math.ceil(a*d)/d):3==d[0]&&(d=d[1],a=Math.floor(a*d)/d);return fa(b[1]&240,b[5][c-1],b[5][c],a)}function L(){u||(v=(new Date).getTime()+V)}function O(a){if(a||!E){for(var b=!1,c=0;c<w.length;++c)w[c].J(a)&&(b=!0);if(a)for(;0<I.length;)if(a=I.shift(),c=a[0],1==a[1])c.onfinish&&(c.onfinish(),b=!0),c.I();else if(2==a[1]&&c.onloop)c.onloop();return b}}function W(){L();O(!0)&&!u?(E=!0,M(W)):
E=!1}function N(){E||(E=!0,M(W))}function X(a,b){var c=[];a.split(b).forEach(function(a){c.push(parseFloat(a))});return c}function A(a){-1==a.indexOf(",")&&(a=a.replace(" ",","));return X(a,",")}function Y(a){a._ks||(a._ks={});if(!a._ks.transform){for(var b=a._ks.transform=[],c=0;14>=c;++c)b[c]=0;b[10]=1;b[11]=1;if(a=a.getAttribute("transform")){a=a.trim().split(") ");for(c=a.length-2;0<=c;--c)if(x(a[c],"translate(")){for(var d=0;d<c;d++)a.shift();break}c=a.shift();x(c,"translate(")&&(c=A(c.substring(10)),
b[1]=c[0],b[2]=t(c[1])?c[1]:0,c=a.shift());x(c,"rotate(")&&(c=A(c.substring(7)),b[6]=c[0],c=a.shift());x(c,"skewX(")&&(c=A(c.substring(6)),b[7]=c[0],c=a.shift());x(c,"skewY(")&&(c=A(c.substring(6)),b[8]=c[0],c=a.shift());x(c,"scale(")&&(c=A(c.substring(6)),b[10]=c[0],b[11]=t(c[1])?c[1]:c[0],c=a.shift());x(c,"translate(")&&(c=A(c.substring(10)),b[13]=c[0],b[14]=t(c[1])?c[1]:0)}}}function Z(a){this.l=a;this.A=[];this.C=[];this.v=0;this.s=this.a=this.c=null;this.h=this.f=this.g=0;this.b=1;this.i=this.F=
this.o=!1}function J(a,b,c){b=a[b];void 0===b&&(b=a[c]);return b}function ha(a){return Array.isArray(a)?a:x(a,"cubic-bezier(")?(a=a.substring(13,a.length-1).split(","),[1,parseFloat(a[0]),parseFloat(a[1]),parseFloat(a[2]),parseFloat(a[3])]):x(a,"steps(")?(a=a.substring(6,a.length-1).split(","),[a[1]&&"start"==a[1].trim()?2:3,parseFloat(a[0])]):[0]}function ia(a){a=a.trim();return x(a,"#")?(parseInt(a.substring(1),16)<<8)+255:x(a,"rgba(")?(a=a.substring(5,a.length-1),a=a.split(","),(parseInt(a[0],
10)<<24)+(parseInt(a[1],10)<<16)+(parseInt(a[2],10)<<8)+255*parseFloat(a[3])<<0):a}function aa(a){!1===a.i&&(w.push(a),a.i=!0,!1!==a.l.autoplay&&a.play());return this}function P(a){if(!0===a.i){a._cancel();var b=w.indexOf(a);-1<b&&w.splice(b,1);b=I.indexOf(a);-1<b&&I.splice(b,1);a.i=!1}return this}var Q=Error("Not in timeline list"),ba="mpath posX posY    rotate skewX skewY  scaleX scaleY  anchorX anchorY".split(" "),ja=" translate translate    rotate skewX skewY  scale scale  translate translate".split(" "),
T="none url blur brightness contrast drop-shadow grayscale hue-rotate invert opacity saturate sepia".split(" "),M=window.requestAnimationFrame||window.webkitRequestAnimationFrame||window.mozRequestAnimationFrame||window.oRequestAnimationFrame||window.msRequestAnimationFrame||null;M||(M=function(a){window.setTimeout(a,16)});var S={d:97,fill:48,fillOpacity:16,filter:80,height:33,opacity:16,offsetDistance:33,stroke:48,strokeDasharray:64,strokeDashoffset:32,strokeOpacity:16,strokeWidth:32,transform:1,
width:33},ca=window.getComputedStyle(document.documentElement),E=!1,v=(new Date).getTime(),u,V=0,w=[],I=[];Z.prototype={B:function(a){var b=0;if(null!==this.c){var c=this.j();0<this.b&&null!==c&&c>=this.f?this.h?(this.c=v-this.g/this.b,this.h--,b=2):(b=1,a?this.a=c:this.a=this.s?Math.max(this.s,this.f):this.f):0>this.b&&null!==c&&c<=this.g?this.h&&Infinity!=this.f?(this.c=v-this.f/this.b,this.h--,b=2):(this.h=0,b=1,a?this.a=c:this.a=this.s?Math.min(this.s,this.g):this.g):null!==c&&0!=this.b&&(a&&
null!==this.a&&(this.c=v-this.a/this.b),this.a=null)}this.s=this.j();return b},J:function(a){a&&(this.o&&(this.o=!1,null===this.c&&(0!=this.b&&null!==this.a?(this.c=v-this.a/this.b,this.a=null):this.c=v)),null===this.a&&null!==this.c&&(a=this.B(!1),0!=a&&I.push([this,a])));a=this.j();if(null===a)return!1;for(var b=this.A,c=this.C,d=0;d<b.length;++d){for(var e=b[d],n=!1,l=0;l<c[d].length;++l){var f=c[d][l],h=f[0];if(null!==h){var g=f[2];var q=f[4].length,m=f[4][q-1]-g;g=0==m?f[5][q-1]:a<=g?f[5][0]:
a>=g+f[3]?0==f[3]%m?f[5][q-1]:U(f[3]%m,f):U((a-g)%m,f);0==h?(e._ks.mpath=f[8],e._ks.transform[h]=g,n=!0):14>=h?(e._ks.transform[h]=g,n=!0):(g=ea(f[1]&240,g),f[1]&1?e.setAttribute(h,g):e.style[h]=g)}}if(n){Y(e);n=e._ks.transform;l="";if(f=e._ks.mpath)g=n[0],0>g&&(g=0),100<g&&(g=100),g=g*f[2]/100,h=f[1].getPointAtLength(g),l="translate("+h.x+","+h.y+") ",f[0]&&(.5>g?(g=h,h=f[1].getPointAtLength(.5)):g=f[1].getPointAtLength(g-.5),l+="rotate("+180*Math.atan2(h.y-g.y,h.x-g.x)/Math.PI+") ");for(f=1;f<n.length;++f)h=
n[f],h!=(10==f||11==f?1:0)&&(l+=" "+ja[f]+"(",l=2>=f?l+(1==f?h+",0":"0,"+h):13<=f?l+(13==f?h+",0":"0,"+h):10<=f?l+(10==f?h+",1":"1,"+h):l+h,l+=")");e.setAttribute("transform",l)}}return"running"==this.m()},I:function(){!1!==this.l.autoremove&&"finished"==this.m()&&P(this)},D:function(){if(!this.F){this.F=!0;for(var a=this.A,b=this.C,c=0;c<a.length;++c)for(var d=a[c],e=0;e<b[c].length;++e)14>=b[c][e][0]&&Y(d)}},u:function(a){if("number"==typeof a)return a;if(!t(this.l.markers)||!t(this.l.markers[a]))throw Error("Invalid marker: "+
a);return+this.l.markers[a]},play:function(a){t(a)&&null!==a&&(a=this.u(a),H(a),0>this.b&&a<this.g&&(a=this.g),0<this.b&&a>this.f&&(a=this.f),this.w(a,!0));if(!this.i)throw Q;a=this.j();if(0<this.b&&(null===a||a>=this.f))this.a=this.g;else if(0>this.b&&(null===a||a<=this.g)){if(Infinity==this.f)throw Error("Cannot seek to Infinity");this.a=this.f}else 0==this.b&&null===a&&(this.a=this.g);if(null===this.a)return this;this.c=null;this.o=!0;this.D();N();return this},pause:function(a){if(!this.i)throw Q;
t(a)&&(a=this.u(a),H(a));if("paused"!=this.m()){L();var b=this.j();if(null===b)if(0<=this.b)this.a=this.g;else{if(Infinity==this.f)throw Error("Cannot seek to Infinity");this.a=this.f}null!==this.c&&null===this.a&&(this.a=b);this.c=null;this.o=!1;this.B(!1);this.D();N()}t(a)&&this.w(a,!0);return this},range:function(a,b){if(0==arguments.length)return{"in":this.g,out:this.f};var c=this.u(a),d=this.v;t(b)&&(d=this.u(b));H(c);if(0>c||0>d||c>=d||isNaN(d))throw Error("Invalid range");var e=this.m();this.g=
c;this.f=d;"finished"==e&&"running"==this.m()&&this.play();return this},loop:function(a){if(!t(a))return{count:this.h};this.h=!0===a?Infinity:Math.floor(a);if(0>this.h||isNaN(this.h))this.h=0;return this},j:function(){return null!==this.a?this.a:null===this.c?null:(v-this.c)*this.b},w:function(a,b){b&&L();null!==a&&(this.D(),null!==this.a||null===this.c||0==this.b?(this.a=a,O(!1)):this.c=v-a/this.b,this.i||(this.c=null),this.s=null,this.B(!0),N())},G:function(){return this.j()},time:function(a){if(t(a)){if(!this.i)throw Q;
a=this.u(a);H(a);this.w(a,!0);return this}return this.G()},m:function(){var a=this.j();return this.o?"running":null===a?"idle":null===this.c?"paused":0<this.b&&a>=this.f||0>this.b&&a<=this.g?"finished":"running"},state:function(){return this.m()},duration:function(){return this.v},H:function(a){H(a);L();var b=this.j();this.b=a;null!==b&&this.w(b,!1)},rate:function(a){return t(a)?(this.H(a),this):this.b},marker:function(a){return t(this.l.markers)?this.l.markers[a]:void 0},_cancel:function(){if(!this.i||
"idle"==this.m())return this;this.c=this.a=null;this.o=!1;return this}};return{version:"1.1.0",animate:function(){var a={};if(1==arguments.length%2){a=arguments[arguments.length-1];var b={};for(c in a)b[c]=a[c];a=b}var c=new Z(a);a=arguments;for(var d=b=0;d<a.length-1;d+=2){var e=a[d];var n=e instanceof Element?e:document.getElementById(e.substring(1));if(!n)throw Error("Invalid target: "+e);e=n;n=a[d+1];e._ks||(e._ks={});for(var l=[],f=0;f<n.length;++f){var h=n[f],g=J(h,"p","property");if("string"!=
typeof g||-1!=g.indexOf("-")||""===g||!(0<S[g]||0<=ba.indexOf(g)))throw Error("Invalid property: "+g);var q=ba.indexOf(g);""!==g&&0<=q&&(g=q);q=R(g);var m=J(h,"t","times");if(!m||2>m.length)throw Error("Not enough times");m=m.slice();if(!isFinite(m[0])||0>m[0])throw Error("Invalid time: "+m[0]);for(var B=1;B<m.length;++B)if(!isFinite(m[B])||0>m[B]||m[B]<m[B-1])throw Error("Invalid time: "+m[B]);B=m[0];var v=m[m.length-1]-B,y=h.iterations||0;1>y&&(y=1);v*=y;b<v+B&&(b=v+B);var u=J(h,"v","values");if(!u||
u.length!=m.length)throw Error("Values do not match times");u=u.slice();for(var C=g,k=u,w=R(C)&240,p=0;p<k.length;++p)if(96==w){for(var G=k[p].substring(6,k[p].length-2).match(/[A-DF-Za-df-z][-+0-9eE., ]*/ig),A=[],r=0;r<G.length;++r){A.push(G[r][0]);for(var z=1<G[r].trim().length?G[r].substring(1).split(","):[],F=0;F<z.length;++F)z[F]=parseFloat(z[F]);A.push(z)}k[p]=A}else if(48==w)x(k[p],"#")?(G=9==k[p].length,k[p]=parseInt(k[p].substring(1),16),G||(k[p]=256*k[p]|255)):x(k[p],"url(")||"none"==k[p]||
(console.warn("unsupported color: "+k[p]),k[p]=0);else if(80==w){G=k;A=p;r=k[p];if("none"==r)r=[0];else{z=[];for(var D=r.indexOf("(");0<D;)if(F=T.indexOf(r.substring(0,D)),0<=F){z.push(F);var E=r.indexOf(") ");0>E&&(E=r.length-1);D=r.substring(D+1,E).split(" ");5==F?(z.push(parseFloat(D[0])),z.push(parseFloat(D[1])),z.push(parseFloat(D[2])),z.push(ia(D[3]))):1==F?z.push(D[0]):z.push(parseFloat(D[0]));r=r.substring(E+1).trim();D=r.indexOf("(")}else break;r=z}G[A]=r}else 64==w?"none"!=k[p]?/^[0-9 .]*$/.test(k[p])?
k[p]=X(k[p]," "):(console.warn("unsupported value: "+k[p]),k[p]=[0]):k[p]=[0]:32==w?(H(k[p]),k[p]=parseFloat(k[p])):0===C&&(k[p]=parseFloat(k[p]));C=J(h,"e","easing");k=m.length;for(C||(C=[]);C.length<k;)C.push([1,0,0,.58,1]);for(k=0;k<C.length;++k)C[k]=ha(C[k]);q=[g,q,B,v,m,u,C,y];m=J(h,"mp","motionPath");t(m)&&0===g&&(q[8]=[],q[8][0]=h.motionRotate,h=document.createElementNS("http://www.w3.org/2000/svg","path"),m||(m="M0,0"),h.setAttribute("d",m),q[8][1]=h,q[8][2]=h.getTotalLength());l.push(q)}0<
l.length&&(c.A.push(e),c.C.push(l))}c.v=b;c.g=0;c.f=c.v;aa(c);return c},add:aa,remove:P,removeAll:function(){for(var a=w.length-1;0<=a;--a)P(w[a]);return this},timelines:function(){return w.slice()},globalPlay:function(){u&&(V=u-(new Date).getTime(),u=void 0,N());return this},globalPause:function(){u||(u=v,O(!1));return this},globalState:function(){return u?"paused":"running"}}}();
]]></script><script><![CDATA[if(KeyshapeJS.version.indexOf('1.')!=0)throw Error('Expected KeyshapeJS v1.*.*');window.ks=document.ks=KeyshapeJS;(function(ks){
ks.animate("#anime-run1-right",[{p:'mpath',t:[500,1000],v:['0%','100%'],e:[[0],[0]],mp:"M-65,-168.2L-65,-60"},{p:'opacity',t:[500,600],v:[0,1],e:[[1,.4,0,1,1],[0]]}],
"#anime-run2-right",[{p:'mpath',t:[1000,1500],v:['0%','100%'],e:[[1,.4,0,.6,1],[0]],mp:"M-65,-108L-65,-14"},{p:'opacity',t:[1000,1100],v:[0,1],e:[[1,.4,0,1,1],[0]]}],
"#anime-run-left",[{p:'mpath',t:[0,500],v:['0%','100%'],e:[[1,.4,0,.6,1],[0]],mp:"M-65.6,-168.2L-65.6,-60"},{p:'opacity',t:[0,100],v:[0,1],e:[[1,.4,0,1,1],[0]]}],
{autoremove:false}).range(0,2000);
if(document.location.search.substr(1).split('&').indexOf('global=paused')>=0)ks.globalPause()})(KeyshapeJS);
]]></script></svg>