<svg viewBox="0 0 1200 800" xmlns="http://www.w3.org/2000/svg" xmlns:xlink="http://www.w3.org/1999/xlink"><defs><path id="path-1" d="M.307 463.775L604.659.897 810.83 28.162l-70.617 533.46z"></path></defs><g fill="none" fill-rule="evenodd"><path d="M474 301.445c70.655-34.392 145.857-49.359 182.817-90.445L678 314.921c-20.332-14.99-42.254-23-67.268-17.446-19.087 20.692-41.468 32.6-67.9 33.712l1.46 35.974s4.61 5.905 10.116 12.962c10.844 13.897 11.124 33.293.684 47.497l-1.749 2.38-47.943-23.358a29.68 29.68 0 0 1-16.21-21.382L474 301.445z" fill="#EDA688"></path><path d="M474 301.445c70.655-34.392 145.857-49.359 182.817-90.445L678 314.921c-20.332-14.99-42.254-23-67.268-17.446-19.087 20.692-41.468 32.6-67.9 33.712l1.46 35.974s4.61 5.905 10.116 12.962c10.844 13.897 11.124 33.293.684 47.497l-1.749 2.38-47.943-23.358a29.68 29.68 0 0 1-16.21-21.382L474 301.445z" stroke="#0042A6" stroke-width="4" stroke-linecap="round" stroke-linejoin="round"></path><path d="M657.74 216L678 315.602c-20.345-15.031-42.28-23.064-67.31-17.495-19.099 20.75-41.494 32.69-67.942 33.806l1.46 36.074s5.678 7.29 11.96 15.359c9.765 12.538 10.016 30.039.618 42.854l-3.52 4.8c6.64-21.39-5.553-38.957-31.187-53.795a17.179 17.179 0 0 1-8.519-14.15c-.467-10.432-1.134-26.851-1.546-36.972a17.225 17.225 0 0 1 6.753-14.388l44.99-34.375L657.742 216z" fill="#E57D50"></path><path d="M474 301.445c70.655-34.392 145.857-49.359 182.817-90.445L678 314.921c-20.332-14.99-42.254-23-67.268-17.446-19.087 20.692-41.468 32.6-67.9 33.712l1.46 35.974s4.61 5.905 10.116 12.962c10.844 13.897 11.124 33.293.684 47.497l-1.749 2.38-47.943-23.358a29.68 29.68 0 0 1-16.21-21.382L474 301.445z" stroke="#96360D" stroke-width="4" stroke-linecap="round" stroke-linejoin="round"></path><path stroke="#96360D" stroke-width="4" stroke-linecap="round" stroke-linejoin="round" d="M516 404.567l17.407-.567L553 416"></path><path d="M590.538 202.538l-164.225 94.918-8.61 119.923c-11.791 5.995-26.01 7.474-39.703 3.077v.003l1.955-71.885 20.602-96.465c4.097-19.19 15.476-38.106 34.23-44.93C491.366 186.598 641 107 641 107" fill="#FEB981"></path><path d="M590.538 202.538l-164.225 94.918-8.61 119.923c-11.791 5.995-26.01 7.474-39.703 3.077v.003l1.955-71.885 20.602-96.465c4.097-19.19 15.476-38.106 34.23-44.93C491.366 186.598 641 107 641 107" stroke="#96360D" stroke-width="6" stroke-linecap="round" stroke-linejoin="round"></path><path d="M1117.257 360.817c114.014 209.694-57.856 338.028-151.404 217.94l-25.438-85.74c-8.749-29.49-38.003-47.92-68.376-43.08-12.592 2.075-25.04 1.962-37.323-.494A117.1 117.1 0 0 0 751.726 464c-37.06 22.189-85.248 51.183-104.237 62.61a51.327 51.327 0 0 1-17.637 6.58L499.56 555.889a18.811 18.811 0 0 1-21.982-17.102v-.003c-2.9-38.08 25.418-71.385 63.465-74.64a490.691 490.691 0 0 1 17.082-.773 36.23 36.23 0 0 0 26.55-12.752 9338.403 9338.403 0 0 0 18.203-21.37 56.684 56.684 0 0 1 9.253-8.69l53.74-40.174c13.78-10.299 18.13-29.032 10.3-44.351-12.53-24.343-26.263-52.505-31.406-98.687-34.4 23.204-127.547 58.53-168.028 76.724-7.558 38.797-10.036 80.855-18.431 118.759a47.556 47.556 0 0 1-57.475 36.064l-.006.019a4.446 4.446 0 0 1-3.41-4.12l-3.414-73.6s7.99-60.405 13.389-101.202a80.52 80.52 0 0 1 35.6-56.73c51.01-33.522 147.525-96.953 147.525-96.953l.002-.001a116.997 116.997 0 0 1 110.335-33.465l211.732 47.518a150.697 150.697 0 0 1 86.908 55.76c30.95 40.658 72.31 94.986 72.31 94.986l45.456 59.711z" fill="#FEDBBC"></path><path d="M590 137s-48.04 55.967-77.68 72.48C482.678 225.99 419.069 250.01 407 288l.197-1.484c2.762-20.789 14.464-39.354 32.061-50.87L590 137zM395 406.776l6.1-5.776 9.407 8.831c10.021 9.41 14.458 23.524 11.677 37.145l-4.623 22.635a46.065 46.065 0 0 1-16.893-.925l-.003.006c-1.712-.418-2.945-1.943-3.028-3.74L395 406.776z" fill="#FFEEE1"></path><path d="M401 401l9.45 8.797c10.067 9.374 14.524 23.434 11.73 37.002L420.08 457" stroke="#D47651" stroke-width="4" stroke-linecap="round" stroke-linejoin="round"></path><path d="M641 530c14.016-11.768 98.906-82.97 117.444-96.996 20.185-15.273 197.767-76.73 184.889 77.088l-.077.907-5.924-21.625c-7.553-27.57-35.012-44.763-63.162-39.545-14.178 2.652-28.172 2.577-41.958-.469a105.376 105.376 0 0 0-76.9 12.572c-38 22.703-89.884 53.865-108.903 65.287A45.902 45.902 0 0 1 641 530z" fill="#FEB981"></path><path d="M478.424 513.573l1.635.046 36.484-11.218a31.581 31.581 0 0 1 29.501 5.903c11.232 9.344 12.193 22.25 6.696 37.419l-57.737 10.045a15.66 15.66 0 0 1-12.292-3.06 15.615 15.615 0 0 1-5.993-11.146c-.176-2.293-.36-4.722-.552-7.22a56.68 56.68 0 0 1 2.258-20.77z" fill="#FEA969"></path><path d="M490 510.832l27.754-8.406a33.218 33.218 0 0 1 25.346 2.526c11.057 5.763 14.942 12.86 13.668 24.048" stroke="#D47651" stroke-width="4" stroke-linecap="round" stroke-linejoin="round"></path><path d="M420 469c2.917-2.533 6.326-5.187 10.305-7.959 38.494-26.814-2.707-166.536 34.806-171.071 27.912-3.375 130.845-57.17 172.592-79.478a13.345 13.345 0 0 1 11.944-.16 13.32 13.32 0 0 1 7.281 9.46c1.165 5.848 3.06 12.884 6.185 20.848 15.761 40.152 63.298 61.276 54.9 86.51-12.539 37.686-56.16 55.762-56.16 55.762l6.15-4.59c12.402-9.26 16.321-26.1 9.28-39.874-12.894-24.955-27.47-53.451-32.806-101.306-34.427 23.194-127.65 58.505-168.164 76.69-7.545 38.678-10.031 80.598-18.38 118.407a47.861 47.861 0 0 1-21.338 30.271A47.932 47.932 0 0 1 420 469z" fill="#FEB981"></path><path d="M943.661 510.685l-4.714-17.242c-8.07-29.507-36.67-48.536-67-44.579-11.871 1.602-24.008 1.36-36.447-.98a117.059 117.059 0 0 0-81.874 14.76c-37.294 22.332-86.896 52.177-106.227 63.81a51.31 51.31 0 0 1-17.63 6.577L499.52 555.72a18.804 18.804 0 0 1-21.974-17.096v-.002c-2.9-38.065 25.41-71.359 63.443-74.613a490.524 490.524 0 0 1 17.075-.772 36.217 36.217 0 0 0 26.542-12.748 9335.122 9335.122 0 0 0 18.195-21.362 56.663 56.663 0 0 1 9.25-8.687l53.72-40.159c13.776-10.295 18.124-29.021 10.298-44.335-12.526-24.333-26.254-52.486-31.395-98.65-34.388 23.196-127.502 58.509-167.969 76.696-7.554 38.782-10.032 80.825-18.424 118.715a47.538 47.538 0 0 1-57.455 36.05l-.005.02a4.444 4.444 0 0 1-3.41-4.119L394 391.087l13.384-101.166a80.49 80.49 0 0 1 35.588-56.708l147.472-96.918.002-.002A116.957 116.957 0 0 1 700.74 102.84l211.657 47.502a150.644 150.644 0 0 1 86.878 55.739L1067 295.044" stroke="#96360D" stroke-width="6" stroke-linecap="round" stroke-linejoin="round"></path><path d="M626 502c7.603 9.917 8.17 22.81 5.668 37M637 499c7.603 9.917 8.17 22.81 5.667 37M412 253.738c12.458-2.668 24.352 2.162 36 10.262m-41-1.262c12.46-2.668 24.354 2.162 36 10.262m-25-32.907c12.653-.944 23.681 5.393 34 14.907m198 240c7.603 9.917 8.17 22.81 5.667 37" stroke="#D47651" stroke-width="4" stroke-linecap="round" stroke-linejoin="round"></path><path d="M672.044 114.958c4.272 8.864-6.17 22.802-23.304 31.102-17.133 8.302-34.512 7.845-38.784-1.018-4.272-8.864 6.17-22.802 23.304-31.102 17.133-8.302 34.512-7.845 38.784 1.018zm-88.826 368.1c10.132-.925 19.38 9.275 20.64 22.765 1.258 13.49-5.945 25.193-16.078 26.119-10.131.926-19.379-9.274-20.637-22.764-1.259-13.49 5.944-25.194 16.075-26.12z" fill="#FFEEE1"></path><path d="M185.417 390.145a1.444 1.444 0 0 0-1.417 1.473l1.24 71.96c.014.8.67 1.436 1.466 1.422l65.878-1.145a1.444 1.444 0 0 0 1.416-1.473l-1.24-71.96a1.443 1.443 0 0 0-1.466-1.422l-65.877 1.145z" fill="#F1F7FF"></path><path d="M185.417 390.145a1.444 1.444 0 0 0-1.417 1.473l1.24 71.96c.014.8.67 1.436 1.466 1.422l65.878-1.145a1.444 1.444 0 0 0 1.416-1.473l-1.24-71.96a1.443 1.443 0 0 0-1.466-1.422l-65.877 1.145z" stroke="#0042A6" stroke-width="5.399" stroke-linecap="round" stroke-linejoin="round"></path><path d="M195.437 423.767c-.808.014-1.451.641-1.437 1.403l.082 4.475c.015.762.68 1.369 1.487 1.355l46.995-.767c.807-.014 1.45-.641 1.436-1.403l-.082-4.475c-.013-.762-.68-1.369-1.487-1.355l-46.994.767zm-.001-18c-.807.014-1.45.641-1.436 1.403l.082 4.474c.013.763.68 1.368 1.487 1.356l46.994-.767c.808-.014 1.451-.641 1.437-1.404l-.082-4.474c-.015-.762-.68-1.369-1.487-1.355l-46.995.767zm.001 35c-.807.014-1.45.641-1.437 1.403l.084 4.475c.013.762.68 1.369 1.486 1.355l46.993-.767c.808-.014 1.45-.641 1.437-1.403l-.082-4.474c-.015-.763-.68-1.37-1.487-1.356l-46.994.767z" fill="#BCD7FF"></path><path d="M195.146 423.017c-.31.007-.604.173-.818.464-.216.29-.334.68-.328 1.084l.065 4.94c.006.403.134.787.356 1.067.222.282.52.435.83.428l.749-.017-.106-7.983-.748.017zm-.001-18c-.309.007-.604.173-.818.464-.215.29-.333.68-.327 1.084l.066 4.938c.004.405.132.789.355 1.069.223.282.521.435.83.428l.749-.017-.106-7.983-.749.017zm1.001 36c-.31.007-.604.175-.818.464a1.8 1.8 0 0 0-.328 1.084l.067 4.94c.004.403.132.787.355 1.068.221.28.521.434.83.427l.748-.017-.106-7.983-.748.017z" fill="#90BCFF"></path><path d="M492.617 350.086c-10.744-10.612-25.414-15.052-43.259-13.986l-6.42.327.326 6.428c2.072 12.94 9.145 25.469 17.891 33.824 6.081 5.349 14.33 10.116 22.083 11.293-1.006 4.923-6.772 18.105-19.54 29.444L298.728 563.91a31.937 31.937 0 0 0-10.71 24.931 31.936 31.936 0 0 0 12.323 24.176c31.926 24.777 87.504 45.076 150.155-10.557 65.346-58.027 92.69-134.708 62.847-218.38 8.262-7.336 30.625-24.507 23.152-54.147l-1.66-7.932-6.42.328c-10.09 2.243-27.197 14.745-35.798 27.758z" fill="#4A8EF1"></path><path d="M525.924 449c1.384 48.795-16.185 85.939-42.023 118-39.635-16.214-32.831-93.018 42.023-118" fill="#2976E1"></path><path d="M345 634.599c57.535 11.144 95.655-17.976 131-56.922-27.57 7.744-52.35 5.881-73.736-7.677 1.47 38.539-27.086 62.575-57.264 64.599z" fill-opacity="0.5" fill="#FFF"></path><path d="M317.492 548c15.947 22.99 68.204 71.132 135.508 52.638-.666.606-1.338 1.21-2.012 1.81-62.468 55.654-117.883 35.348-149.696 10.534a31.95 31.95 0 0 1-12.275-24.159 31.967 31.967 0 0 1 10.67-24.914A10109.96 10109.96 0 0 1 317.491 548z" fill-opacity="0.4" fill="#FFF"></path><path d="M285.184 576c22.032 25.034 69.313 60.73 128.816 51.143-59.482 28.476-108.501-5.394-130.18-29.14-5.609-6.466-4.968-16.237 1.44-21.916l-.076-.087z" fill-opacity="0.4" fill="#FFF"></path><path d="M492.6 350.086c-12.41-23.24-48.834-17.316-49.696-13.659l.326 6.429c2.072 12.94 9.148 25.468 17.897 33.824 6.083 5.349 14.335 10.116 22.091 11.292-1.006 4.924-6.774 18.106-19.547 29.445L292.228 569.602A24.491 24.491 0 0 0 284 587.731a24.492 24.492 0 0 0 7.958 18.248c29.903 27.36 89.975 57.315 158.506-3.518 65.37-58.027 92.724-134.709 62.87-218.38 8.265-7.337 30.636-24.509 23.16-54.15l-1.66-7.931-6.423.328c-10.094 2.243-27.207 14.745-35.811 27.758z" stroke="#0042A6" stroke-width="5.399" stroke-linecap="round" stroke-linejoin="round"></path><path d="M371.876 516.65c5.989-5.311 15.161-4.761 20.473 1.226 5.312 5.988 4.763 15.162-1.226 20.474-5.988 5.311-15.162 4.761-20.472-1.226-5.312-5.988-4.762-15.162 1.225-20.474z" fill="#FFF"></path><path d="M374.508 522.55c.338-.505.738-.98 1.195-1.41 3.3-3.114 8.357-2.792 11.285.718 2.928 3.511 2.625 8.889-.677 12.003-3.3 3.113-8.356 2.79-11.284-.72a8.316 8.316 0 0 1-1.027-1.553c1.3.305 2.71-.035 3.78-1.044 1.782-1.68 1.944-4.583.365-6.476-.949-1.137-2.311-1.655-3.637-1.518z" fill="#0042A6"></path><path d="M378 513.327c5.073-1.07 10.576.491 14.262 4.55 5.439 5.987 4.876 15.161-1.256 20.473-3.413 2.958-7.84 4.098-12.031 3.493a14.91 14.91 0 0 0 6.7-3.322c6.131-5.313 6.694-14.487 1.255-20.474-2.41-2.653-5.594-4.239-8.93-4.72z" fill="#9EC5FF"></path><path d="M371.876 516.65c5.989-5.311 15.161-4.761 20.473 1.226 5.312 5.988 4.763 15.162-1.226 20.474-5.988 5.311-15.162 4.761-20.472-1.226-5.312-5.988-4.762-15.162 1.225-20.474z" stroke="#0042A6" stroke-width="2.197" stroke-linecap="round" stroke-linejoin="round"></path><path d="M401.946 570c1.461 38.778-26.936 62.964-56.946 65" stroke="#0042A6" stroke-width="4" stroke-linecap="round" stroke-linejoin="round"></path><path d="M461 349c3.508 10.07 9.796 18.102 19 24" stroke="#FFF" stroke-width="6" stroke-linecap="round" stroke-linejoin="round"></path><g transform="translate(352.000000, 91.000000)"><mask id="mask-2" fill="#fff"><use xlink:href="#path-1"></use></mask><path d="M122.283 210.996c70.65-34.427 145.848-49.408 182.805-90.535l21.181 104.025c-20.33-15.005-42.25-23.023-67.263-17.464-19.086 20.713-41.466 32.632-67.895 33.746l1.46 36.01 10.115 12.975c10.843 13.911 11.123 33.326.684 47.544l-1.749 2.383-47.94-23.381a29.705 29.705 0 0 1-16.209-21.404l-15.189-83.899z" fill="#EDA688" mask="url(#mask-2)"></path><path d="M122.283 210.996c70.65-34.427 145.848-49.408 182.805-90.535l21.181 104.025c-20.33-15.005-42.25-23.023-67.263-17.464-19.086 20.713-41.466 32.632-67.895 33.746l1.46 36.01 10.115 12.975c10.843 13.911 11.123 33.326.684 47.544l-1.749 2.383-47.94-23.381a29.705 29.705 0 0 1-16.209-21.404l-15.189-83.899z" stroke="#0042A6" stroke-width="4" stroke-linecap="round" stroke-linejoin="round" mask="url(#mask-2)"></path><path d="M306.024 125.06l20.245 99.426c-20.33-15.005-42.25-23.023-67.263-17.464-19.086 20.713-41.466 32.632-67.895 33.746l1.46 36.01 11.951 15.332c9.758 12.516 10.009 29.986.618 42.778l-3.519 4.792c6.636-21.353-5.549-38.888-31.165-53.7a17.146 17.146 0 0 1-8.513-14.126c-.466-10.412-1.133-26.803-1.544-36.906a17.187 17.187 0 0 1 6.747-14.363l44.96-34.314 93.918-61.212z" fill="#E57D50" mask="url(#mask-2)"></path><path d="M122.283 210.996c70.65-34.427 145.848-49.408 182.805-90.535l21.181 104.025c-20.33-15.005-42.25-23.023-67.263-17.464-19.086 20.713-41.466 32.632-67.895 33.746l1.46 36.01 10.115 12.975c10.843 13.911 11.123 33.326.684 47.544l-1.749 2.383-47.94-23.381a29.705 29.705 0 0 1-16.209-21.404l-15.189-83.899z" stroke="#96360D" stroke-width="4" stroke-linecap="round" stroke-linejoin="round" mask="url(#mask-2)"></path><path stroke="#96360D" stroke-width="4" stroke-linecap="round" stroke-linejoin="round" mask="url(#mask-2)" d="M163.919 313.495l17.486-.574 19.683 12.147"></path><path d="M238.323 111.63l-164.31 94.724L65.4 326.03c-11.798 5.982-26.023 7.458-39.724 3.07v.004l1.957-71.738L48.244 161.1c4.1-19.15 15.484-38.028 34.247-44.837 56.61-20.54 206.321-99.974 206.321-99.974" fill="#FEB981" mask="url(#mask-2)"></path><path d="M238.323 111.63l-164.31 94.724L65.4 326.03c-11.798 5.982-26.023 7.458-39.724 3.07v.004l1.957-71.738L48.244 161.1c4.1-19.15 15.484-38.028 34.247-44.837 56.61-20.54 206.321-99.974 206.321-99.974" stroke="#96360D" stroke-width="6" stroke-linecap="round" stroke-linejoin="round" mask="url(#mask-2)"></path><path d="M764.921 270c113.994 209.53-57.846 337.766-151.379 217.771l-25.433-85.674c-8.747-29.466-37.996-47.882-68.364-43.046-12.59 2.073-25.037 1.96-37.317-.494a117.14 117.14 0 0 0-82.976 14.546c-37.053 22.171-85.233 51.143-104.219 62.561a51.338 51.338 0 0 1-17.633 6.575c-25.337 4.41-95.326 16.596-130.272 22.681a18.822 18.822 0 0 1-14.774-3.682 18.793 18.793 0 0 1-7.204-13.407v-.002c-2.9-38.05 25.414-71.33 63.454-74.583a490.905 490.905 0 0 1 17.08-.772 36.232 36.232 0 0 0 26.546-12.742 9331.914 9331.914 0 0 0 18.199-21.353 56.66 56.66 0 0 1 9.251-8.683c10.508-7.853 35.103-26.226 53.73-40.143 13.778-10.291 18.127-29.01 10.3-44.317-12.528-24.324-26.26-52.464-31.401-98.61-34.394 23.186-127.525 58.485-168 76.665-7.556 38.766-10.034 80.792-18.428 118.666A47.52 47.52 0 0 1 84.91 372.02a47.565 47.565 0 0 1-36.294 5.972l-.006.019a4.443 4.443 0 0 1-3.41-4.117l-3.412-73.542 13.386-101.124a80.452 80.452 0 0 1 35.595-56.685l147.5-96.879v-.001c28.344-29.738 70.22-42.431 110.317-33.44l211.696 47.483a150.68 150.68 0 0 1 86.893 55.716l72.298 94.913L764.921 270z" fill="#FEDBBC" mask="url(#mask-2)"></path><path d="M238.268 45.665s-47.988 56.113-77.598 72.67c-29.61 16.554-93.153 40.636-105.21 78.726l.198-1.488a72.388 72.388 0 0 1 32.027-51.003l150.583-98.905zm-195.733 270.8l6.199-5.734 9.558 8.767a39.172 39.172 0 0 1 11.867 36.878L65.46 378.85a47.88 47.88 0 0 1-17.166-.918l-.002.005a4.013 4.013 0 0 1-3.077-3.714l-2.68-57.757z" fill="#FFEEE1" mask="url(#mask-2)"></path><path d="M48.734 310.731l9.558 8.767a39.172 39.172 0 0 1 11.867 36.878l-2.126 10.167" stroke="#D47651" stroke-width="4" stroke-linecap="round" stroke-linejoin="round" mask="url(#mask-2)"></path><path d="M288.996 438.945c14.03-11.793 99.003-83.15 117.56-97.207 20.205-15.306 197.962-76.897 185.072 77.256l-.077.908-5.93-21.671c-7.56-27.631-35.046-44.86-63.224-39.632-14.192 2.658-28.2 2.583-42-.469a105.374 105.374 0 0 0-76.975 12.599c-38.039 22.752-89.974 53.982-109.012 65.43a45.927 45.927 0 0 1-5.414 2.786z" fill="#FEB981" mask="url(#mask-2)"></path><path d="M126.748 422.485l1.645.046 36.704-11.293a31.752 31.752 0 0 1 29.678 5.943c11.3 9.407 12.266 22.401 6.736 37.673l-58.084 10.113a15.746 15.746 0 0 1-12.366-3.081 15.725 15.725 0 0 1-6.029-11.221l-.555-7.27a57.107 57.107 0 0 1 2.271-20.91z" fill="#FFEEE1" mask="url(#mask-2)"></path><path d="M137.832 419.627l27.78-8.549a32.778 32.778 0 0 1 25.369 2.57c11.068 5.86 14.956 13.078 13.68 24.457" stroke="#D47651" stroke-width="4" stroke-linecap="round" stroke-linejoin="round" mask="url(#mask-2)"></path><path d="M68.251 378.409c2.915-2.532 6.32-5.186 10.295-7.957 38.456-26.805-2.704-166.482 34.773-171.016 27.884-3.373 130.716-57.152 172.422-79.452a13.324 13.324 0 0 1 19.206 9.298c1.164 5.846 3.058 12.88 6.18 20.84 15.745 40.14 63.236 61.257 54.846 86.483-12.527 37.673-56.106 55.744-56.106 55.744l6.144-4.59c12.39-9.256 16.306-26.09 9.272-39.86-12.882-24.947-27.444-53.434-32.774-101.273-34.394 23.186-127.525 58.485-168 76.665-7.537 38.665-10.021 80.571-18.363 118.369a47.867 47.867 0 0 1-37.895 36.749z" fill="#FEB981" mask="url(#mask-2)"></path><path d="M591.55 419.902l-4.715-17.235c-8.07-29.495-36.676-48.516-67.012-44.56-11.873 1.6-24.012 1.359-36.453-.98a117.14 117.14 0 0 0-81.89 14.753c-37.301 22.324-86.911 52.156-106.247 63.784a51.338 51.338 0 0 1-17.633 6.575c-25.337 4.41-95.326 16.596-130.272 22.681a18.822 18.822 0 0 1-14.774-3.682 18.793 18.793 0 0 1-7.204-13.407v-.002c-2.9-38.05 25.414-71.33 63.454-74.583a490.905 490.905 0 0 1 17.08-.772 36.232 36.232 0 0 0 26.546-12.742 9331.914 9331.914 0 0 0 18.199-21.353 56.66 56.66 0 0 1 9.251-8.683c10.508-7.853 35.103-26.226 53.73-40.143 13.778-10.291 18.127-29.01 10.3-44.317-12.528-24.324-26.26-52.464-31.401-98.61-34.394 23.186-127.525 58.485-168 76.665-7.556 38.766-10.034 80.792-18.428 118.666A47.52 47.52 0 0 1 84.91 372.02a47.565 47.565 0 0 1-36.294 5.972l-.006.019a4.443 4.443 0 0 1-3.41-4.117l-3.412-73.542 13.386-101.124a80.452 80.452 0 0 1 35.595-56.685l147.5-96.879v-.001c28.344-29.738 70.22-42.431 110.317-33.44l211.696 47.483a150.68 150.68 0 0 1 86.893 55.716l67.737 88.926" stroke="#96360D" stroke-width="6" stroke-linecap="round" stroke-linejoin="round" mask="url(#mask-2)"></path><path d="M274.445 410.783c7.134 9.986 7.666 22.967 5.318 37.254m5.423-40.544c7.136 9.986 7.668 22.967 5.319 37.255M60.117 163.274c12.41-2.73 24.257 2.213 35.859 10.504m-40.651-1.425c12.41-2.73 24.258 2.213 35.858 10.504m-25.305-33.382c12.67-.975 23.713 5.569 34.046 15.394m198.022 238.834c7.136 9.985 7.668 22.967 5.319 37.254" stroke="#D47651" stroke-width="4" stroke-linecap="round" stroke-linejoin="round" mask="url(#mask-2)"></path><path d="M320.2 23.843c4.274 8.84-6.172 22.74-23.313 31.017-17.141 8.28-34.527 7.823-38.8-1.015-4.275-8.84 6.171-22.74 23.312-31.017 17.142-8.28 34.528-7.823 38.801 1.015zm-88.888 368.489c10.126-.934 19.369 9.363 20.627 22.982 1.258 13.617-5.94 25.432-16.068 26.366-10.125.936-19.367-9.362-20.625-22.98-1.257-13.618 5.94-25.433 16.066-26.368z" fill="#FFEEE1" mask="url(#mask-2)"></path></g><path d="M953 535c13.825 40.222 18.052 85.934 19 117m113-332c26.826 32.336 47.13 78.996 70 118" stroke="#96360D" stroke-width="6" stroke-linecap="round" stroke-linejoin="round"></path><path d="M692.452 259c4.074 27.597 2.768 56.657-.452 82" stroke="#96360D" stroke-width="4" stroke-linecap="round" stroke-linejoin="round"></path><path d="M215.28 509.135a1.442 1.442 0 0 0-1.917.704l-30.228 65.256a1.447 1.447 0 0 0 .702 1.922c8.142 3.786 51.74 24.061 59.882 27.849.724.335 1.583.02 1.918-.705 3.98-8.588 26.25-56.669 30.228-65.257a1.448 1.448 0 0 0-.702-1.921l-59.882-27.848z" fill="#F1F7FF"></path><path d="M215.28 509.135a1.442 1.442 0 0 0-1.917.704l-30.228 65.256a1.447 1.447 0 0 0 .702 1.922c8.142 3.786 51.74 24.061 59.882 27.849.724.335 1.583.02 1.918-.705 3.98-8.588 26.25-56.669 30.228-65.257a1.448 1.448 0 0 0-.702-1.921l-59.882-27.848z" stroke="#0042A6" stroke-width="5.399" stroke-linecap="round" stroke-linejoin="round"></path><path d="M210.028 544.136a1.437 1.437 0 0 0-1.92.71l-1.973 4.3c-.337.733-.022 1.6.702 1.941l42.135 19.777a1.44 1.44 0 0 0 1.92-.71l1.973-4.301c.337-.733.022-1.6-.702-1.94l-42.135-19.777zm7.999-16a1.438 1.438 0 0 0-1.919.71l-1.974 4.3a1.47 1.47 0 0 0 .703 1.941l42.136 19.777a1.44 1.44 0 0 0 1.919-.711l1.974-4.3c.335-.732.021-1.6-.703-1.94l-42.136-19.777zm-15 32a1.438 1.438 0 0 0-1.919.71l-1.974 4.3a1.468 1.468 0 0 0 .703 1.941l42.136 19.777a1.439 1.439 0 0 0 1.919-.71l1.974-4.302c.335-.732.021-1.6-.703-1.94l-42.136-19.776z" fill="#BCD7FF"></path><path d="M210.135 544.128a1.593 1.593 0 0 0-1.135-.044c-.37.124-.67.379-.835.708l-2.027 4.023a1.27 1.27 0 0 0-.048 1.046c.135.34.411.617.769.77l.865.369 3.276-6.503-.865-.37zm8-16a1.589 1.589 0 0 0-1.134-.044c-.37.124-.67.379-.837.708l-2.027 4.023a1.274 1.274 0 0 0-.047 1.046c.135.34.412.617.769.77l.865.369 3.276-6.503-.865-.37zm-15 31.999a1.596 1.596 0 0 0-1.134-.044 1.45 1.45 0 0 0-.837.708l-2.027 4.023c-.164.33-.182.706-.047 1.046.135.34.412.616.769.77.461.196.865.37.865.37l3.276-6.504-.865-.369z" fill="#90BCFF"></path><path d="M326.268 406.526a1.458 1.458 0 0 0-2.047-.193l-55.693 46.007a1.449 1.449 0 0 0-.194 2.043c5.766 6.947 36.633 44.145 42.399 51.09a1.456 1.456 0 0 0 2.048.194l55.693-46.007a1.45 1.45 0 0 0 .192-2.044l-42.398-51.09z" fill="#F1F7FF"></path><path d="M326.268 406.526a1.458 1.458 0 0 0-2.047-.193l-55.693 46.007a1.449 1.449 0 0 0-.194 2.043c5.766 6.947 36.633 44.145 42.399 51.09a1.456 1.456 0 0 0 2.048.194l55.693-46.007a1.45 1.45 0 0 0 .192-2.044l-42.398-51.09z" stroke="#0042A6" stroke-width="5.399" stroke-linecap="round" stroke-linejoin="round"></path><path d="M307.148 435.527a1.43 1.43 0 0 0-2.027-.192l-3.6 3.014a1.47 1.47 0 0 0-.19 2.05c4.581 5.6 24.938 30.473 29.521 36.073.507.62 1.414.706 2.028.193l3.598-3.015c.613-.513.698-1.43.191-2.051-4.583-5.6-24.94-30.472-29.521-36.072zm14-10.999a1.428 1.428 0 0 0-2.028-.193 3599.7 3599.7 0 0 0-3.598 3.015 1.466 1.466 0 0 0-.191 2.05c4.583 5.599 24.94 30.473 29.521 36.073a1.43 1.43 0 0 0 2.028.192l3.598-3.014a1.468 1.468 0 0 0 .191-2.05l-29.521-36.073zm-28.001 22a1.428 1.428 0 0 0-2.027-.193c-1.032.865-2.564 2.15-3.598 3.015a1.47 1.47 0 0 0-.192 2.051l29.522 36.072a1.43 1.43 0 0 0 2.027.192l3.6-3.014a1.47 1.47 0 0 0 .19-2.05l-29.522-36.073z" fill="#BCD7FF"></path><path d="M307.388 435.517a1.526 1.526 0 0 0-1.013-.511 1.55 1.55 0 0 0-1.093.323l-3.74 2.954c-.305.241-.498.59-.536.966a1.39 1.39 0 0 0 .338 1.044l.614.707 6.042-4.776-.612-.707zm12.999-10.999a1.517 1.517 0 0 0-1.013-.512 1.542 1.542 0 0 0-1.094.322c-1.074.848-2.665 2.106-3.738 2.956a1.405 1.405 0 0 0-.535.965c-.038.377.083.753.336 1.046l.614.705 6.043-4.775-.613-.707zm-27 22.999a1.548 1.548 0 0 0-2.106-.19l-3.739 2.956a1.41 1.41 0 0 0-.535.965c-.038.377.083.753.336 1.045l.614.707 6.043-4.776-.613-.707z" fill="#90BCFF"></path><path d="M294.197 626.641a1.44 1.44 0 0 0-1.174 1.673l12.74 70.5a1.45 1.45 0 0 0 1.685 1.163l65.355-11.618a1.442 1.442 0 0 0 1.174-1.672l-12.74-70.5a1.452 1.452 0 0 0-1.686-1.164l-65.354 11.618z" fill="#F1F7FF"></path><path d="M294.197 626.641a1.44 1.44 0 0 0-1.174 1.673l12.74 70.5a1.45 1.45 0 0 0 1.685 1.163l65.355-11.618a1.442 1.442 0 0 0 1.174-1.672l-12.74-70.5a1.452 1.452 0 0 0-1.686-1.164l-65.354 11.618z" stroke="#0042A6" stroke-width="5.399" stroke-linecap="round" stroke-linejoin="round"></path><path d="M310.204 658.375a1.472 1.472 0 0 0-1.181 1.709l.837 4.703c.142.8.902 1.333 1.695 1.19l46.242-8.352a1.47 1.47 0 0 0 1.18-1.71c-.24-1.35-.597-3.352-.836-4.702a1.463 1.463 0 0 0-1.697-1.19l-46.24 8.352zm-4-18a1.473 1.473 0 0 0-1.181 1.71l.837 4.702c.142.8.902 1.333 1.695 1.19l46.242-8.352a1.47 1.47 0 0 0 1.18-1.71c-.24-1.35-.597-3.352-.836-4.702a1.463 1.463 0 0 0-1.697-1.19l-46.24 8.352zm7 35a1.472 1.472 0 0 0-1.181 1.71l.837 4.702c.142.8.902 1.333 1.695 1.19l46.24-8.352a1.47 1.47 0 0 0 1.182-1.709l-.836-4.703a1.463 1.463 0 0 0-1.697-1.19l-46.24 8.352z" fill="#BCD7FF"></path><path d="M310.038 658.171c-.33.071-.621.296-.812.625a1.755 1.755 0 0 0-.206 1.13l.722 4.829c.058.394.245.745.52.974.273.229.612.318.94.247l.798-.171-1.166-7.805-.796.171zm-3.001-18.001c-.329.072-.62.297-.811.625-.192.33-.265.736-.207 1.131l.722 4.829c.06.394.246.745.52.973.274.23.613.32.942.248l.797-.172-1.165-7.804-.798.17zm6.001 36.001c-.33.071-.621.296-.812.625a1.755 1.755 0 0 0-.206 1.13c.206 1.387.514 3.443.722 4.829.058.395.245.745.52.974.273.23.612.318.94.247l.798-.171-1.166-7.805-.796.171z" fill="#90BCFF"></path><path d="M213.197 684.64a1.44 1.44 0 0 0-1.174 1.673l12.74 70.5a1.45 1.45 0 0 0 1.685 1.164l65.355-11.618a1.442 1.442 0 0 0 1.174-1.672l-12.74-70.5a1.452 1.452 0 0 0-1.686-1.164l-65.354 11.618z" fill="#F1F7FF"></path><path d="M213.197 684.64a1.44 1.44 0 0 0-1.174 1.673l12.74 70.5a1.45 1.45 0 0 0 1.685 1.164l65.355-11.618a1.442 1.442 0 0 0 1.174-1.672l-12.74-70.5a1.452 1.452 0 0 0-1.686-1.164l-65.354 11.618z" stroke="#0042A6" stroke-width="5.399" stroke-linecap="round" stroke-linejoin="round"></path><path d="M228.204 716.375a1.473 1.473 0 0 0-1.181 1.71l.837 4.702c.142.8.902 1.333 1.695 1.19l46.242-8.352a1.47 1.47 0 0 0 1.18-1.71c-.24-1.35-.597-3.352-.836-4.702a1.462 1.462 0 0 0-1.697-1.19l-46.24 8.352zm-3-18a1.473 1.473 0 0 0-1.181 1.71l.837 4.702c.142.8.902 1.333 1.697 1.19l46.24-8.352a1.473 1.473 0 0 0 1.18-1.71c-.241-1.35-.598-3.352-.837-4.702a1.462 1.462 0 0 0-1.697-1.19l-46.24 8.352zm6 35a1.472 1.472 0 0 0-1.181 1.71l.837 4.702c.142.8.902 1.333 1.695 1.19l46.24-8.352a1.47 1.47 0 0 0 1.182-1.71c-.24-1.35-.597-3.352-.836-4.702a1.463 1.463 0 0 0-1.697-1.19l-46.24 8.352z" fill="#BCD7FF"></path><path d="M229.038 716.171c-.33.071-.621.296-.812.625a1.752 1.752 0 0 0-.206 1.13l.722 4.829c.058.395.245.745.52.974.273.23.612.318.94.247l.798-.171-1.165-7.805-.797.171zm-3.001-18c-.329.071-.62.296-.811.625a1.76 1.76 0 0 0-.207 1.13l.722 4.829c.06.394.246.745.52.974.275.229.613.318.943.247l.796-.171-1.165-7.805-.798.171zm6.001 35c-.33.071-.621.296-.812.625a1.755 1.755 0 0 0-.206 1.13c.206 1.387.514 3.443.722 4.829.058.394.245.745.52.974.273.229.612.318.94.247l.798-.171-1.166-7.805-.796.171z" fill="#90BCFF"></path><path d="M389 216c3.309-11.21 10.816-21.888 22-25m-45 37c8.421-27.796 27.532-54.28 56-62m233 387c-10.872 7.277-25.028 10.915-37 5.164M673 571c-18.806 11.826-43.293 17.736-64 8.392" stroke="#96360D" stroke-width="6" stroke-linecap="round" stroke-linejoin="round"></path></g></svg>