<svg xmlns="http://www.w3.org/2000/svg" viewBox="0 0 800 644" id="reschedule">
  <g fill="none" fill-rule="evenodd">
    <g transform="translate(512 113)">
      <g>
        <path fill="#7C7C7C" d="M196,364.611638 L196,394.804699 C196,396.472216 194.979626,397.824005 193.72093,397.824005 L2.27906963,397.824005 C1.02037423,397.824005 1.54145729e-16,396.472216 0,394.804699 L0,364.611638 C-1.54145729e-16,362.944121 1.02037423,361.592331 2.27906963,361.592331 L193.72093,361.592331 C194.979626,361.592331 196,362.944121 196,364.611638 Z"/>
        <g transform="translate(8.38 371.073)">
          <polygon fill="#D8D8D8" points="30.997 0 142.007 0 142.007 4.314 30.997 4.314"/>
          <polygon fill="#D7D7D7" points="7.741 0 12.042 0 12.042 4.301 7.741 4.301"/>
          <polygon fill="#D7D7D7" points="0 0 4.301 0 4.301 4.301 0 4.301"/>
          <polygon fill="#00CD00" points="166.6 0 170.901 0 170.901 4.301 166.6 4.301"/>
          <polygon fill="#D7D400" points="159.6 0 163.901 0 163.901 4.301 159.6 4.301"/>
          <polygon fill="#FF3C00" points="152.6 0 156.901 0 156.901 4.301 152.6 4.301"/>
          <polygon fill="#00CD00" points="173.6 0 177.901 0 177.901 4.301 173.6 4.301"/>
        </g>
        <g transform="translate(8.38 378.621)">
          <polygon fill="#D8D8D8" points="30.997 0 142.007 0 142.007 4.314 30.997 4.314"/>
          <polygon fill="#D7D7D7" points="7.741 0 12.042 0 12.042 4.301 7.741 4.301"/>
          <polygon fill="#D7D7D7" points="0 0 4.301 0 4.301 4.301 0 4.301"/>
          <polygon fill="#00CD00" points="166.6 0 170.901 0 170.901 4.301 166.6 4.301"/>
          <polygon fill="#D7D400" points="159.6 0 163.901 0 163.901 4.301 159.6 4.301"/>
          <polygon fill="#FF3C00" points="152.6 0 156.901 0 156.901 4.301 152.6 4.301"/>
          <polygon fill="#00CD00" points="173.6 0 177.901 0 177.901 4.301 173.6 4.301"/>
        </g>
        <g transform="translate(8.38 386.17)">
          <polygon fill="#D8D8D8" points="30.997 0 142.007 0 142.007 4.314 30.997 4.314"/>
          <polygon fill="#D7D7D7" points="7.741 0 12.042 0 12.042 4.301 7.741 4.301"/>
          <polygon fill="#D7D7D7" points="0 0 4.301 0 4.301 4.301 0 4.301"/>
          <polygon fill="#00CD00" points="166.6 0 170.901 0 170.901 4.301 166.6 4.301"/>
          <polygon fill="#D7D400" points="159.6 0 163.901 0 163.901 4.301 159.6 4.301"/>
          <polygon fill="#FF3C00" points="152.6 0 156.901 0 156.901 4.301 152.6 4.301"/>
          <polygon fill="#00CD00" points="173.6 0 177.901 0 177.901 4.301 173.6 4.301"/>
        </g>
        <path fill="#7C7C7C" d="M196,3.22559985 L196,354.170863 C196,355.952313 194.979626,357.396463 193.72093,357.396463 L2.27906963,357.396463 C1.02037423,357.396463 1.54145729e-16,355.952313 0,354.170863 L0,3.22559985 C-1.54145729e-16,1.44415024 1.02037423,3.27246984e-16 2.27906963,0 L193.72093,0 C194.979626,1.70774491e-14 196,1.44415024 196,3.22559985 Z"/>
        <polygon fill="#D7D7D7" points="9.462 344.494 187.276 344.494 187.276 348.795 9.462 348.795"/>
        <polygon fill="#D7D7D7" points="8.387 23.224 186.206 23.224 186.206 27.525 8.387 27.525"/>
        <polygon fill="#D7D7D7" points="8.387 15.483 186.206 15.483 186.206 19.784 8.387 19.784"/>
        <polygon fill="#D7D7D7" points="8.387 7.741 186.206 7.741 186.206 12.042 8.387 12.042"/>
        <path fill="#FFF" d="M9.26075979,36.2335114 L185.319705,36.2335114 C185.805879,36.2335114 186.2,36.8128791 186.2,37.5275653 L186.2,335.15998 C186.2,335.874666 185.805879,336.454034 185.319705,336.454034 L9.26075979,336.454034 C8.77458647,336.454034 8.38046512,335.874666 8.38046512,335.15998 L8.38046512,37.5275653 C8.38046512,36.8128791 8.77458647,36.2335114 9.26075979,36.2335114 Z"/>
      </g>
      <g id="reschedule-animejs-app4" transform="translate(19 47)">
        <g transform="translate(.6 .6)">
          <path fill="#00C176" d="M155.231996,131.223855 C155.231996,132.052078 154.745952,132.723357 154.146147,132.723357 L1.08584878,132.723357 C0.486044752,132.723357 0,132.052078 0,131.223855 L4.4408921e-16,3.88079991 C1.81609852e-16,1.7374933 1.7374933,4.83461113e-15 3.88079991,4.4408921e-15 L151.351196,4.4408921e-16 C153.494503,-1.51787392e-14 155.231996,1.7374933 155.231996,3.88079991 L155.231996,131.223855 Z"/>
          <text fill="#FFF" font-size="26.389" font-weight="bold" class="sans-serif">
            <tspan x="50.486" y="84.54">APP</tspan>
          </text>
          <path fill="#CCC" d="M3.88079991,0 L151.351196,0 C153.494503,-3.93719036e-16 155.231996,1.7374933 155.231996,3.88079991 L155.231996,17.8516796 L0,17.8516796 L0,3.88079991 C-2.62479357e-16,1.7374933 1.7374933,-9.38548593e-16 3.88079991,-1.33226763e-15 Z"/>
          <path fill="#E74C3C" d="M13.1947197,9.70199977 C13.1947197,11.6311916 11.6311916,13.1947197 9.70199977,13.1947197 C7.7728079,13.1947197 6.20927985,11.6311916 6.20927985,9.70199977 C6.20927985,7.7728079 7.7728079,6.20927985 9.70199977,6.20927985 C11.6311916,6.20927985 13.1947197,7.7728079 13.1947197,9.70199977"/>
          <path fill="#F1C40F" d="M25.6132794,9.70199977 C25.6132794,11.6311916 24.0497513,13.1947197 22.1205595,13.1947197 C20.1913676,13.1947197 18.6278396,11.6311916 18.6278396,9.70199977 C18.6278396,7.7728079 20.1913676,6.20927985 22.1205595,6.20927985 C24.0497513,6.20927985 25.6132794,7.7728079 25.6132794,9.70199977"/>
          <path fill="#2ECC71" d="M37.2556791,9.70199977 C37.2556791,11.6311916 35.6921511,13.1947197 33.7629592,13.1947197 C31.8337673,13.1947197 30.2702393,11.6311916 30.2702393,9.70199977 C30.2702393,7.7728079 31.8337673,6.20927985 33.7629592,6.20927985 C35.6921511,6.20927985 37.2556791,7.7728079 37.2556791,9.70199977"/>
        </g>
      </g>
      <g id="reschedule-animejs-app5" transform="translate(20 190)">
        <g>
          <path fill="#00C176" d="M155.231996,131.223855 C155.231996,132.052078 154.745952,132.723357 154.146147,132.723357 L1.08584878,132.723357 C0.486044752,132.723357 0,132.052078 0,131.223855 L4.4408921e-16,3.88079991 C1.81609852e-16,1.7374933 1.7374933,4.83461113e-15 3.88079991,4.4408921e-15 L151.351196,4.4408921e-16 C153.494503,-1.51787392e-14 155.231996,1.7374933 155.231996,3.88079991 L155.231996,131.223855 Z"/>
          <text fill="#FFF" font-size="26.389" font-weight="bold" class="sans-serif">
            <tspan x="50.486" y="84.54">APP</tspan>
          </text>
          <path fill="#CCC" d="M3.88079991,0 L151.351196,0 C153.494503,-3.93719036e-16 155.231996,1.7374933 155.231996,3.88079991 L155.231996,17.8516796 L0,17.8516796 L0,3.88079991 C-2.62479357e-16,1.7374933 1.7374933,-9.38548593e-16 3.88079991,-1.33226763e-15 Z"/>
          <path fill="#E74C3C" d="M13.1947197,9.70199977 C13.1947197,11.6311916 11.6311916,13.1947197 9.70199977,13.1947197 C7.7728079,13.1947197 6.20927985,11.6311916 6.20927985,9.70199977 C6.20927985,7.7728079 7.7728079,6.20927985 9.70199977,6.20927985 C11.6311916,6.20927985 13.1947197,7.7728079 13.1947197,9.70199977"/>
          <path fill="#F1C40F" d="M25.6132794,9.70199977 C25.6132794,11.6311916 24.0497513,13.1947197 22.1205595,13.1947197 C20.1913676,13.1947197 18.6278396,11.6311916 18.6278396,9.70199977 C18.6278396,7.7728079 20.1913676,6.20927985 22.1205595,6.20927985 C24.0497513,6.20927985 25.6132794,7.7728079 25.6132794,9.70199977"/>
          <path fill="#2ECC71" d="M37.2556791,9.70199977 C37.2556791,11.6311916 35.6921511,13.1947197 33.7629592,13.1947197 C31.8337673,13.1947197 30.2702393,11.6311916 30.2702393,9.70199977 C30.2702393,7.7728079 31.8337673,6.20927985 33.7629592,6.20927985 C35.6921511,6.20927985 37.2556791,7.7728079 37.2556791,9.70199977"/>
        </g>
      </g>
    </g>
    <g id="reschedule-animejs-server" transform="translate(302 113)">
      <g>
        <path fill="#7C7C7C" d="M196,364.611638 L196,394.804699 C196,396.472216 194.979626,397.824005 193.72093,397.824005 L2.27906963,397.824005 C1.02037423,397.824005 1.54145729e-16,396.472216 0,394.804699 L0,364.611638 C-1.54145729e-16,362.944121 1.02037423,361.592331 2.27906963,361.592331 L193.72093,361.592331 C194.979626,361.592331 196,362.944121 196,364.611638 Z"/>
        <g transform="translate(8.38 371.073)">
          <polygon fill="#D8D8D8" points="30.997 0 142.007 0 142.007 4.314 30.997 4.314"/>
          <polygon fill="#D7D7D7" points="7.741 0 12.042 0 12.042 4.301 7.741 4.301"/>
          <polygon fill="#D7D7D7" points="0 0 4.301 0 4.301 4.301 0 4.301"/>
          <polygon fill="#00CD00" points="166.6 0 170.901 0 170.901 4.301 166.6 4.301"/>
          <polygon fill="#D7D400" points="159.6 0 163.901 0 163.901 4.301 159.6 4.301"/>
          <polygon fill="#FF3C00" points="152.6 0 156.901 0 156.901 4.301 152.6 4.301"/>
          <polygon fill="#00CD00" points="173.6 0 177.901 0 177.901 4.301 173.6 4.301"/>
        </g>
        <g transform="translate(8.38 378.621)">
          <polygon fill="#D8D8D8" points="30.997 0 142.007 0 142.007 4.314 30.997 4.314"/>
          <polygon fill="#D7D7D7" points="7.741 0 12.042 0 12.042 4.301 7.741 4.301"/>
          <polygon fill="#D7D7D7" points="0 0 4.301 0 4.301 4.301 0 4.301"/>
          <polygon fill="#00CD00" points="166.6 0 170.901 0 170.901 4.301 166.6 4.301"/>
          <polygon fill="#D7D400" points="159.6 0 163.901 0 163.901 4.301 159.6 4.301"/>
          <polygon fill="#FF3C00" points="152.6 0 156.901 0 156.901 4.301 152.6 4.301"/>
          <polygon fill="#00CD00" points="173.6 0 177.901 0 177.901 4.301 173.6 4.301"/>
        </g>
        <g transform="translate(8.38 386.17)">
          <polygon fill="#D8D8D8" points="30.997 0 142.007 0 142.007 4.314 30.997 4.314"/>
          <polygon fill="#D7D7D7" points="7.741 0 12.042 0 12.042 4.301 7.741 4.301"/>
          <polygon fill="#D7D7D7" points="0 0 4.301 0 4.301 4.301 0 4.301"/>
          <polygon fill="#00CD00" points="166.6 0 170.901 0 170.901 4.301 166.6 4.301"/>
          <polygon fill="#D7D400" points="159.6 0 163.901 0 163.901 4.301 159.6 4.301"/>
          <polygon fill="#FF3C00" points="152.6 0 156.901 0 156.901 4.301 152.6 4.301"/>
          <polygon fill="#00CD00" points="173.6 0 177.901 0 177.901 4.301 173.6 4.301"/>
        </g>
        <path fill="#7C7C7C" d="M196,3.22559985 L196,354.170863 C196,355.952313 194.979626,357.396463 193.72093,357.396463 L2.27906963,357.396463 C1.02037423,357.396463 1.54145729e-16,355.952313 0,354.170863 L0,3.22559985 C-1.54145729e-16,1.44415024 1.02037423,3.27246984e-16 2.27906963,0 L193.72093,0 C194.979626,1.70774491e-14 196,1.44415024 196,3.22559985 Z"/>
        <polygon fill="#D7D7D7" points="9.462 344.494 187.276 344.494 187.276 348.795 9.462 348.795"/>
        <polygon fill="#D7D7D7" points="8.387 23.224 186.206 23.224 186.206 27.525 8.387 27.525"/>
        <polygon fill="#D7D7D7" points="8.387 15.483 186.206 15.483 186.206 19.784 8.387 19.784"/>
        <polygon fill="#D7D7D7" points="8.387 7.741 186.206 7.741 186.206 12.042 8.387 12.042"/>
        <path fill="#FFF" d="M9.26075979,36.2335114 L185.319705,36.2335114 C185.805879,36.2335114 186.2,36.8128791 186.2,37.5275653 L186.2,335.15998 C186.2,335.874666 185.805879,336.454034 185.319705,336.454034 L9.26075979,336.454034 C8.77458647,336.454034 8.38046512,335.874666 8.38046512,335.15998 L8.38046512,37.5275653 C8.38046512,36.8128791 8.77458647,36.2335114 9.26075979,36.2335114 Z"/>
      </g>
    </g>
    <g id="reschedule-animejs-app3" transform="translate(321 160)">
      <g transform="translate(.6 .6)">
        <path fill="#00C176" d="M155.231996,131.223855 C155.231996,132.052078 154.745952,132.723357 154.146147,132.723357 L1.08584878,132.723357 C0.486044752,132.723357 0,132.052078 0,131.223855 L4.4408921e-16,3.88079991 C1.81609852e-16,1.7374933 1.7374933,4.83461113e-15 3.88079991,4.4408921e-15 L151.351196,4.4408921e-16 C153.494503,-1.51787392e-14 155.231996,1.7374933 155.231996,3.88079991 L155.231996,131.223855 Z"/>
        <text fill="#FFF" font-size="26.389" font-weight="bold" class="sans-serif">
          <tspan x="50.486" y="84.54">APP</tspan>
        </text>
        <path fill="#CCC" d="M3.88079991,0 L151.351196,0 C153.494503,-3.93719036e-16 155.231996,1.7374933 155.231996,3.88079991 L155.231996,17.8516796 L0,17.8516796 L0,3.88079991 C-2.62479357e-16,1.7374933 1.7374933,-9.38548593e-16 3.88079991,-1.33226763e-15 Z"/>
        <path fill="#E74C3C" d="M13.1947197,9.70199977 C13.1947197,11.6311916 11.6311916,13.1947197 9.70199977,13.1947197 C7.7728079,13.1947197 6.20927985,11.6311916 6.20927985,9.70199977 C6.20927985,7.7728079 7.7728079,6.20927985 9.70199977,6.20927985 C11.6311916,6.20927985 13.1947197,7.7728079 13.1947197,9.70199977"/>
        <path fill="#F1C40F" d="M25.6132794,9.70199977 C25.6132794,11.6311916 24.0497513,13.1947197 22.1205595,13.1947197 C20.1913676,13.1947197 18.6278396,11.6311916 18.6278396,9.70199977 C18.6278396,7.7728079 20.1913676,6.20927985 22.1205595,6.20927985 C24.0497513,6.20927985 25.6132794,7.7728079 25.6132794,9.70199977"/>
        <path fill="#2ECC71" d="M37.2556791,9.70199977 C37.2556791,11.6311916 35.6921511,13.1947197 33.7629592,13.1947197 C31.8337673,13.1947197 30.2702393,11.6311916 30.2702393,9.70199977 C30.2702393,7.7728079 31.8337673,6.20927985 33.7629592,6.20927985 C35.6921511,6.20927985 37.2556791,7.7728079 37.2556791,9.70199977"/>
      </g>
    </g>
    <g id="reschedule-animejs-up2" fill="#00C176" fill-rule="nonzero" transform="translate(457 60)">
      <g>
        <path d="M20.4,0.00012 C31.68,0.00012 40.8,9.12012 40.8,20.40012 C40.8,31.68012 31.68,40.80012 20.4,40.80012 C9.12,40.80012 0,31.68012 0,20.40012 C0,9.12012 9.12,0.00012 20.4,0.00012 Z M21.3,27.12012 L33.06,15.36012 L29.1,11.40012 L17.34,23.16012 L11.76,17.58012 L7.8,21.54012 L13.38,27.12012 L17.34,31.08012 L21.3,27.12012 Z"/>
      </g>
    </g>
    <g id="reschedule-animejs-up1" fill="#00C176" fill-rule="nonzero" transform="translate(247 60)">
      <g>
        <path d="M20.4,0.00012 C31.68,0.00012 40.8,9.12012 40.8,20.40012 C40.8,31.68012 31.68,40.80012 20.4,40.80012 C9.12,40.80012 0,31.68012 0,20.40012 C0,9.12012 9.12,0.00012 20.4,0.00012 Z M21.3,27.12012 L33.06,15.36012 L29.1,11.40012 L17.34,23.16012 L11.76,17.58012 L7.8,21.54012 L13.38,27.12012 L17.34,31.08012 L21.3,27.12012 Z"/>
      </g>
    </g>
    <g id="reschedule-animejs-down" fill="#FF003C" fill-rule="nonzero" transform="translate(457 60)">
      <g>
        <path d="M29.53128,25.84014 L25.84008,29.53134 L20.39988,24.09114 L14.95968,29.53134 L11.26848,25.84014 L16.70868,20.39994 L11.26848,14.95974 L14.95968,11.26854 L20.39988,16.70874 L25.84008,11.26854 L29.53128,14.95974 L24.09168,20.39994 L29.53128,25.84014 Z M34.84248,5.95794 C30.95628,2.13714 25.84008,-6e-05 20.39988,-6e-05 C14.95968,-6e-05 9.77928,2.13714 5.95788,5.95794 C2.13708,9.84354 -0.00012,14.95974 -0.00012,20.39994 C-0.00012,25.84014 2.13708,31.02054 5.95788,34.84194 C9.84348,38.66334 14.95968,40.79994 20.39988,40.79994 C25.84008,40.79994 30.95628,38.66334 34.84248,34.84194 C38.66328,30.95634 40.79988,25.84014 40.79988,20.39994 C40.79988,14.95974 38.66328,9.77874 34.84248,5.95794 Z"/>
      </g>
    </g>
    <g id="reschedule-animejs-up3" fill="#00C176" fill-rule="nonzero" transform="translate(667 60)">
      <g>
        <path d="M20.4,0.00012 C31.68,0.00012 40.8,9.12012 40.8,20.40012 C40.8,31.68012 31.68,40.80012 20.4,40.80012 C9.12,40.80012 0,31.68012 0,20.40012 C0,9.12012 9.12,0.00012 20.4,0.00012 Z M21.3,27.12012 L33.06,15.36012 L29.1,11.40012 L17.34,23.16012 L11.76,17.58012 L7.8,21.54012 L13.38,27.12012 L17.34,31.08012 L21.3,27.12012 Z"/>
      </g>
    </g>
    <g transform="translate(92 113)">
      <g>
        <path fill="#7C7C7C" d="M196,364.611638 L196,394.804699 C196,396.472216 194.979626,397.824005 193.72093,397.824005 L2.27906963,397.824005 C1.02037423,397.824005 1.54145729e-16,396.472216 0,394.804699 L0,364.611638 C-1.54145729e-16,362.944121 1.02037423,361.592331 2.27906963,361.592331 L193.72093,361.592331 C194.979626,361.592331 196,362.944121 196,364.611638 Z"/>
        <g transform="translate(8.38 371.073)">
          <polygon fill="#D8D8D8" points="30.997 0 142.007 0 142.007 4.314 30.997 4.314"/>
          <polygon fill="#D7D7D7" points="7.741 0 12.042 0 12.042 4.301 7.741 4.301"/>
          <polygon fill="#D7D7D7" points="0 0 4.301 0 4.301 4.301 0 4.301"/>
          <polygon fill="#00CD00" points="166.6 0 170.901 0 170.901 4.301 166.6 4.301"/>
          <polygon fill="#D7D400" points="159.6 0 163.901 0 163.901 4.301 159.6 4.301"/>
          <polygon fill="#FF3C00" points="152.6 0 156.901 0 156.901 4.301 152.6 4.301"/>
          <polygon fill="#00CD00" points="173.6 0 177.901 0 177.901 4.301 173.6 4.301"/>
        </g>
        <g transform="translate(8.38 378.621)">
          <polygon fill="#D8D8D8" points="30.997 0 142.007 0 142.007 4.314 30.997 4.314"/>
          <polygon fill="#D7D7D7" points="7.741 0 12.042 0 12.042 4.301 7.741 4.301"/>
          <polygon fill="#D7D7D7" points="0 0 4.301 0 4.301 4.301 0 4.301"/>
          <polygon fill="#00CD00" points="166.6 0 170.901 0 170.901 4.301 166.6 4.301"/>
          <polygon fill="#D7D400" points="159.6 0 163.901 0 163.901 4.301 159.6 4.301"/>
          <polygon fill="#FF3C00" points="152.6 0 156.901 0 156.901 4.301 152.6 4.301"/>
          <polygon fill="#00CD00" points="173.6 0 177.901 0 177.901 4.301 173.6 4.301"/>
        </g>
        <g transform="translate(8.38 386.17)">
          <polygon fill="#D8D8D8" points="30.997 0 142.007 0 142.007 4.314 30.997 4.314"/>
          <polygon fill="#D7D7D7" points="7.741 0 12.042 0 12.042 4.301 7.741 4.301"/>
          <polygon fill="#D7D7D7" points="0 0 4.301 0 4.301 4.301 0 4.301"/>
          <polygon fill="#00CD00" points="166.6 0 170.901 0 170.901 4.301 166.6 4.301"/>
          <polygon fill="#D7D400" points="159.6 0 163.901 0 163.901 4.301 159.6 4.301"/>
          <polygon fill="#FF3C00" points="152.6 0 156.901 0 156.901 4.301 152.6 4.301"/>
          <polygon fill="#00CD00" points="173.6 0 177.901 0 177.901 4.301 173.6 4.301"/>
        </g>
        <path fill="#7C7C7C" d="M196,3.22559985 L196,354.170863 C196,355.952313 194.979626,357.396463 193.72093,357.396463 L2.27906963,357.396463 C1.02037423,357.396463 1.54145729e-16,355.952313 0,354.170863 L0,3.22559985 C-1.54145729e-16,1.44415024 1.02037423,3.27246984e-16 2.27906963,0 L193.72093,0 C194.979626,1.70774491e-14 196,1.44415024 196,3.22559985 Z"/>
        <polygon fill="#D7D7D7" points="9.462 344.494 187.276 344.494 187.276 348.795 9.462 348.795"/>
        <polygon fill="#D7D7D7" points="8.387 23.224 186.206 23.224 186.206 27.525 8.387 27.525"/>
        <polygon fill="#D7D7D7" points="8.387 15.483 186.206 15.483 186.206 19.784 8.387 19.784"/>
        <polygon fill="#D7D7D7" points="8.387 7.741 186.206 7.741 186.206 12.042 8.387 12.042"/>
        <path fill="#FFF" d="M9.26075979,36.2335114 L185.319705,36.2335114 C185.805879,36.2335114 186.2,36.8128791 186.2,37.5275653 L186.2,335.15998 C186.2,335.874666 185.805879,336.454034 185.319705,336.454034 L9.26075979,336.454034 C8.77458647,336.454034 8.38046512,335.874666 8.38046512,335.15998 L8.38046512,37.5275653 C8.38046512,36.8128791 8.77458647,36.2335114 9.26075979,36.2335114 Z"/>
      </g>
      <g id="reschedule-animejs-app2" transform="translate(19 190)">
        <g transform="translate(.6 .4)">
          <path fill="#00C176" d="M155.231996,131.223855 C155.231996,132.052078 154.745952,132.723357 154.146147,132.723357 L1.08584878,132.723357 C0.486044752,132.723357 0,132.052078 0,131.223855 L4.4408921e-16,3.88079991 C1.81609852e-16,1.7374933 1.7374933,4.83461113e-15 3.88079991,4.4408921e-15 L151.351196,4.4408921e-16 C153.494503,-1.51787392e-14 155.231996,1.7374933 155.231996,3.88079991 L155.231996,131.223855 Z"/>
          <text fill="#FFF" font-size="26.389" font-weight="bold" class="sans-serif">
            <tspan x="50.486" y="84.54">APP</tspan>
          </text>
          <path fill="#CCC" d="M3.88079991,0 L151.351196,0 C153.494503,-3.93719036e-16 155.231996,1.7374933 155.231996,3.88079991 L155.231996,17.8516796 L0,17.8516796 L0,3.88079991 C-2.62479357e-16,1.7374933 1.7374933,-9.38548593e-16 3.88079991,-1.33226763e-15 Z"/>
          <path fill="#E74C3C" d="M13.1947197,9.70199977 C13.1947197,11.6311916 11.6311916,13.1947197 9.70199977,13.1947197 C7.7728079,13.1947197 6.20927985,11.6311916 6.20927985,9.70199977 C6.20927985,7.7728079 7.7728079,6.20927985 9.70199977,6.20927985 C11.6311916,6.20927985 13.1947197,7.7728079 13.1947197,9.70199977"/>
          <path fill="#F1C40F" d="M25.6132794,9.70199977 C25.6132794,11.6311916 24.0497513,13.1947197 22.1205595,13.1947197 C20.1913676,13.1947197 18.6278396,11.6311916 18.6278396,9.70199977 C18.6278396,7.7728079 20.1913676,6.20927985 22.1205595,6.20927985 C24.0497513,6.20927985 25.6132794,7.7728079 25.6132794,9.70199977"/>
          <path fill="#2ECC71" d="M37.2556791,9.70199977 C37.2556791,11.6311916 35.6921511,13.1947197 33.7629592,13.1947197 C31.8337673,13.1947197 30.2702393,11.6311916 30.2702393,9.70199977 C30.2702393,7.7728079 31.8337673,6.20927985 33.7629592,6.20927985 C35.6921511,6.20927985 37.2556791,7.7728079 37.2556791,9.70199977"/>
        </g>
      </g>
      <g id="reschedule-animejs-app1" transform="translate(19 47)">
        <g transform="translate(.6 .6)">
          <path fill="#00C176" d="M155.231996,131.223855 C155.231996,132.052078 154.745952,132.723357 154.146147,132.723357 L1.08584878,132.723357 C0.486044752,132.723357 0,132.052078 0,131.223855 L4.4408921e-16,3.88079991 C1.81609852e-16,1.7374933 1.7374933,4.83461113e-15 3.88079991,4.4408921e-15 L151.351196,4.4408921e-16 C153.494503,-1.51787392e-14 155.231996,1.7374933 155.231996,3.88079991 L155.231996,131.223855 Z"/>
          <text fill="#FFF" font-size="26.389" font-weight="bold" class="sans-serif">
            <tspan x="50.486" y="84.54">APP</tspan>
          </text>
          <path fill="#CCC" d="M3.88079991,0 L151.351196,0 C153.494503,-3.93719036e-16 155.231996,1.7374933 155.231996,3.88079991 L155.231996,17.8516796 L0,17.8516796 L0,3.88079991 C-2.62479357e-16,1.7374933 1.7374933,-9.38548593e-16 3.88079991,-1.33226763e-15 Z"/>
          <path fill="#E74C3C" d="M13.1947197,9.70199977 C13.1947197,11.6311916 11.6311916,13.1947197 9.70199977,13.1947197 C7.7728079,13.1947197 6.20927985,11.6311916 6.20927985,9.70199977 C6.20927985,7.7728079 7.7728079,6.20927985 9.70199977,6.20927985 C11.6311916,6.20927985 13.1947197,7.7728079 13.1947197,9.70199977"/>
          <path fill="#F1C40F" d="M25.6132794,9.70199977 C25.6132794,11.6311916 24.0497513,13.1947197 22.1205595,13.1947197 C20.1913676,13.1947197 18.6278396,11.6311916 18.6278396,9.70199977 C18.6278396,7.7728079 20.1913676,6.20927985 22.1205595,6.20927985 C24.0497513,6.20927985 25.6132794,7.7728079 25.6132794,9.70199977"/>
          <path fill="#2ECC71" d="M37.2556791,9.70199977 C37.2556791,11.6311916 35.6921511,13.1947197 33.7629592,13.1947197 C31.8337673,13.1947197 30.2702393,11.6311916 30.2702393,9.70199977 C30.2702393,7.7728079 31.8337673,6.20927985 33.7629592,6.20927985 C35.6921511,6.20927985 37.2556791,7.7728079 37.2556791,9.70199977"/>
        </g>
      </g>
    </g>
  </g>
</svg>