<svg xmlns="http://www.w3.org/2000/svg" viewBox="0 0 800 679" id="united">
  <g fill="none" fill-rule="evenodd">
    <g id="united-animejs-united" transform="translate(57 80)">
      <rect width="685" height="419" fill="#7C7C7C" fill-rule="nonzero" rx="5"/>
      <polygon fill="#D7D7D7" points="11.088 403.704 676.228 403.704 676.228 408.744 11.088 408.744"/>
      <polygon fill="#D7D7D7" points="9.828 27.216 674.972 27.216 674.972 32.256 9.828 32.256"/>
      <polygon fill="#D7D7D7" points="9.828 18.144 674.972 18.144 674.972 23.184 9.828 23.184"/>
      <polygon fill="#D7D7D7" points="9.828 9.072 674.972 9.072 674.972 14.112 9.828 14.112"/>
      <path fill="#FFF" d="M13.1486068,42.3178353 L671.707207,42.3178353 C673.525766,42.3178353 675,42.9944903 675,43.8291866 L675,391.439977 C675,392.274673 673.525766,392.951328 671.707207,392.951328 L13.1486068,392.951328 C11.3300475,392.951328 9.85581395,392.274673 9.85581395,391.439977 L9.85581395,43.8291866 C9.85581395,42.9944903 11.3300475,42.3178353 13.1486068,42.3178353 Z"/>
    </g>
    <g id="united-animejs-bottom1" transform="translate(57 503)">
      <path fill="#7C7C7C" d="M220,4.27923183 L220,39.6617231 C220,41.6158441 218.854682,43.1999722 217.441861,43.1999722 L2.55813938,43.1999722 C1.14531801,43.1999722 1.73020717e-16,41.6158441 0,39.6617231 L0,4.27923183 C-1.73020717e-16,2.32511079 1.14531801,0.740982701 2.55813938,0.740982701 L217.441861,0.740982701 C218.854682,0.740982701 220,2.32511079 220,4.27923183 Z"/>
      <g transform="translate(9.856 10.383)">
        <polygon fill="#D8D8D8" points="36.391 0 147.963 0 147.963 5.038 36.391 5.038"/>
        <polygon fill="#D7D7D7" points="9.072 0 14.112 0 14.112 5.04 9.072 5.04"/>
        <polygon fill="#D7D7D7" points="0 0 5.04 0 5.04 5.04 0 5.04"/>
        <polygon fill="#00CD00" points="185 0 190.04 0 190.04 5.04 185 5.04"/>
        <polygon fill="#D7D400" points="176 0 181.04 0 181.04 5.04 176 5.04"/>
        <polygon fill="#FF3C00" points="167 0 172.04 0 172.04 5.04 167 5.04"/>
        <polygon fill="#00CD00" points="194 0 199.04 0 199.04 5.04 194 5.04"/>
      </g>
      <g transform="translate(9.856 19.2)">
        <polygon fill="#D8D8D8" points="36.391 0 147.963 0 147.963 5.038 36.391 5.038"/>
        <polygon fill="#D7D7D7" points="9.072 0 14.112 0 14.112 5.04 9.072 5.04"/>
        <polygon fill="#D7D7D7" points="0 0 5.04 0 5.04 5.04 0 5.04"/>
        <polygon fill="#00CD00" points="185 0 190.04 0 190.04 5.04 185 5.04"/>
        <polygon fill="#D7D400" points="176 0 181.04 0 181.04 5.04 176 5.04"/>
        <polygon fill="#FF3C00" points="167 0 172.04 0 172.04 5.04 167 5.04"/>
        <polygon fill="#00CD00" points="194 0 199.04 0 199.04 5.04 194 5.04"/>
      </g>
      <g transform="translate(9.856 28.015)">
        <polygon fill="#D8D8D8" points="36.391 0 147.963 0 147.963 5.038 36.391 5.038"/>
        <polygon fill="#D7D7D7" points="9.072 0 14.112 0 14.112 5.04 9.072 5.04"/>
        <polygon fill="#D7D7D7" points="0 0 5.04 0 5.04 5.04 0 5.04"/>
        <polygon fill="#00CD00" points="185 0 190.04 0 190.04 5.04 185 5.04"/>
        <polygon fill="#D7D400" points="176 0 181.04 0 181.04 5.04 176 5.04"/>
        <polygon fill="#FF3C00" points="167 0 172.04 0 172.04 5.04 167 5.04"/>
        <polygon fill="#00CD00" points="194 0 199.04 0 199.04 5.04 194 5.04"/>
      </g>
    </g>
    <g id="united-animejs-server1" transform="translate(57 80)">
      <path fill="#7C7C7C" d="M220,3.77999955 L220,415.043951 C220,417.131587 218.854682,418.82395 217.441861,418.82395 L2.55813938,418.82395 C1.14531801,418.82395 1.73020717e-16,417.131587 0,415.043951 L0,3.77999955 C-1.73020717e-16,1.69236344 1.14531801,3.83492531e-16 2.55813938,0 L217.441861,0 C218.854682,2.00126342e-14 220,1.69236344 220,3.77999955 Z"/>
      <polygon fill="#D7D7D7" points="10.651 403.704 208.972 403.704 208.972 408.744 10.651 408.744"/>
      <polygon fill="#D7D7D7" points="9.828 27.216 208.972 27.216 208.972 32.256 9.828 32.256"/>
      <polygon fill="#D7D7D7" points="9.828 18.144 208.972 18.144 208.972 23.184 9.828 23.184"/>
      <polygon fill="#D7D7D7" points="9.828 9.072 208.972 9.072 208.972 14.112 9.828 14.112"/>
      <path fill="#FFF" d="M10.8416762,42.3178353 L208.014138,42.3178353 C208.558614,42.3178353 209,42.9944903 209,43.8291866 L209,391.439977 C209,392.274673 208.558614,392.951328 208.014138,392.951328 L10.8416762,392.951328 C10.2971995,392.951328 9.85581395,392.274673 9.85581395,391.439977 L9.85581395,43.8291866 C9.85581395,42.9944903 10.2971995,42.3178353 10.8416762,42.3178353 Z"/>
    </g>
    <g id="united-animejs-master" fill="#565656" font-size="26.5" font-weight="bold" letter-spacing=".133" transform="translate(567 33)" class="sans-serif">
      <text>
        <tspan x=".659" y="24">MASTER</tspan>
      </text>
    </g>
    <g id="united-animejs-node1" fill="#565656" font-size="26.5" font-weight="bold" letter-spacing=".133" transform="translate(128 33)" class="sans-serif">
      <text>
        <tspan x=".954" y="24">NODE</tspan>
      </text>
    </g>
    <g id="united-animejs-node2" fill="#565656" font-size="26.5" font-weight="bold" letter-spacing=".133" transform="translate(361 33)" class="sans-serif">
      <text>
        <tspan x=".954" y="24">NODE</tspan>
      </text>
    </g>
    <g id="united-animejs-bottom2" transform="translate(290 503)">
      <path fill="#7C7C7C" d="M220,4.27923183 L220,39.6617231 C220,41.6158441 218.854682,43.1999722 217.441861,43.1999722 L2.55813938,43.1999722 C1.14531801,43.1999722 1.73020717e-16,41.6158441 0,39.6617231 L0,4.27923183 C-1.73020717e-16,2.32511079 1.14531801,0.740982701 2.55813938,0.740982701 L217.441861,0.740982701 C218.854682,0.740982701 220,2.32511079 220,4.27923183 Z"/>
      <g transform="translate(9.856 10.383)">
        <polygon fill="#D8D8D8" points="36.391 0 147.963 0 147.963 5.038 36.391 5.038"/>
        <polygon fill="#D7D7D7" points="9.072 0 14.112 0 14.112 5.04 9.072 5.04"/>
        <polygon fill="#D7D7D7" points="0 0 5.04 0 5.04 5.04 0 5.04"/>
        <polygon fill="#00CD00" points="185 0 190.04 0 190.04 5.04 185 5.04"/>
        <polygon fill="#D7D400" points="176 0 181.04 0 181.04 5.04 176 5.04"/>
        <polygon fill="#FF3C00" points="167 0 172.04 0 172.04 5.04 167 5.04"/>
        <polygon fill="#00CD00" points="194 0 199.04 0 199.04 5.04 194 5.04"/>
      </g>
      <g transform="translate(9.856 19.2)">
        <polygon fill="#D8D8D8" points="36.391 0 147.963 0 147.963 5.038 36.391 5.038"/>
        <polygon fill="#D7D7D7" points="9.072 0 14.112 0 14.112 5.04 9.072 5.04"/>
        <polygon fill="#D7D7D7" points="0 0 5.04 0 5.04 5.04 0 5.04"/>
        <polygon fill="#00CD00" points="185 0 190.04 0 190.04 5.04 185 5.04"/>
        <polygon fill="#D7D400" points="176 0 181.04 0 181.04 5.04 176 5.04"/>
        <polygon fill="#FF3C00" points="167 0 172.04 0 172.04 5.04 167 5.04"/>
        <polygon fill="#00CD00" points="194 0 199.04 0 199.04 5.04 194 5.04"/>
      </g>
      <g transform="translate(9.856 28.015)">
        <polygon fill="#D8D8D8" points="36.391 0 147.963 0 147.963 5.038 36.391 5.038"/>
        <polygon fill="#D7D7D7" points="9.072 0 14.112 0 14.112 5.04 9.072 5.04"/>
        <polygon fill="#D7D7D7" points="0 0 5.04 0 5.04 5.04 0 5.04"/>
        <polygon fill="#00CD00" points="185 0 190.04 0 190.04 5.04 185 5.04"/>
        <polygon fill="#D7D400" points="176 0 181.04 0 181.04 5.04 176 5.04"/>
        <polygon fill="#FF3C00" points="167 0 172.04 0 172.04 5.04 167 5.04"/>
        <polygon fill="#00CD00" points="194 0 199.04 0 199.04 5.04 194 5.04"/>
      </g>
    </g>
    <g id="united-animejs-server2" transform="translate(290 80)">
      <path fill="#7C7C7C" d="M220,3.77999955 L220,415.043951 C220,417.131587 218.854682,418.82395 217.441861,418.82395 L2.55813938,418.82395 C1.14531801,418.82395 1.73020717e-16,417.131587 0,415.043951 L0,3.77999955 C-1.73020717e-16,1.69236344 1.14531801,3.83492531e-16 2.55813938,0 L217.441861,0 C218.854682,2.00126342e-14 220,1.69236344 220,3.77999955 Z"/>
      <polygon fill="#D7D7D7" points="10.651 403.704 208.972 403.704 208.972 408.744 10.651 408.744"/>
      <polygon fill="#D7D7D7" points="9.828 27.216 208.972 27.216 208.972 32.256 9.828 32.256"/>
      <polygon fill="#D7D7D7" points="9.828 18.144 208.972 18.144 208.972 23.184 9.828 23.184"/>
      <polygon fill="#D7D7D7" points="9.828 9.072 208.972 9.072 208.972 14.112 9.828 14.112"/>
      <path fill="#FFF" d="M10.8416762,42.3178353 L208.014138,42.3178353 C208.558614,42.3178353 209,42.9944903 209,43.8291866 L209,391.439977 C209,392.274673 208.558614,392.951328 208.014138,392.951328 L10.8416762,392.951328 C10.2971995,392.951328 9.85581395,392.274673 9.85581395,391.439977 L9.85581395,43.8291866 C9.85581395,42.9944903 10.2971995,42.3178353 10.8416762,42.3178353 Z"/>
    </g>
    <g transform="translate(522 503)">
      <path fill="#7C7C7C" d="M220,4.27923183 L220,39.6617231 C220,41.6158441 218.854682,43.1999722 217.441861,43.1999722 L2.55813938,43.1999722 C1.14531801,43.1999722 1.73020717e-16,41.6158441 0,39.6617231 L0,4.27923183 C-1.73020717e-16,2.32511079 1.14531801,0.740982701 2.55813938,0.740982701 L217.441861,0.740982701 C218.854682,0.740982701 220,2.32511079 220,4.27923183 Z"/>
      <g transform="translate(9.856 10.383)">
        <polygon fill="#D8D8D8" points="36.391 0 147.963 0 147.963 5.038 36.391 5.038"/>
        <polygon fill="#D7D7D7" points="9.072 0 14.112 0 14.112 5.04 9.072 5.04"/>
        <polygon fill="#D7D7D7" points="0 0 5.04 0 5.04 5.04 0 5.04"/>
        <polygon fill="#00CD00" points="185 0 190.04 0 190.04 5.04 185 5.04"/>
        <polygon fill="#D7D400" points="176 0 181.04 0 181.04 5.04 176 5.04"/>
        <polygon fill="#FF3C00" points="167 0 172.04 0 172.04 5.04 167 5.04"/>
        <polygon fill="#00CD00" points="194 0 199.04 0 199.04 5.04 194 5.04"/>
      </g>
      <g transform="translate(9.856 19.2)">
        <polygon fill="#D8D8D8" points="36.391 0 147.963 0 147.963 5.038 36.391 5.038"/>
        <polygon fill="#D7D7D7" points="9.072 0 14.112 0 14.112 5.04 9.072 5.04"/>
        <polygon fill="#D7D7D7" points="0 0 5.04 0 5.04 5.04 0 5.04"/>
        <polygon fill="#00CD00" points="185 0 190.04 0 190.04 5.04 185 5.04"/>
        <polygon fill="#D7D400" points="176 0 181.04 0 181.04 5.04 176 5.04"/>
        <polygon fill="#FF3C00" points="167 0 172.04 0 172.04 5.04 167 5.04"/>
        <polygon fill="#00CD00" points="194 0 199.04 0 199.04 5.04 194 5.04"/>
      </g>
      <g transform="translate(9.856 28.015)">
        <polygon fill="#D8D8D8" points="36.391 0 147.963 0 147.963 5.038 36.391 5.038"/>
        <polygon fill="#D7D7D7" points="9.072 0 14.112 0 14.112 5.04 9.072 5.04"/>
        <polygon fill="#D7D7D7" points="0 0 5.04 0 5.04 5.04 0 5.04"/>
        <polygon fill="#00CD00" points="185 0 190.04 0 190.04 5.04 185 5.04"/>
        <polygon fill="#D7D400" points="176 0 181.04 0 181.04 5.04 176 5.04"/>
        <polygon fill="#FF3C00" points="167 0 172.04 0 172.04 5.04 167 5.04"/>
        <polygon fill="#00CD00" points="194 0 199.04 0 199.04 5.04 194 5.04"/>
      </g>
    </g>
    <g id="united-animejs-server3" transform="translate(522 80)">
      <path fill="#7C7C7C" d="M220,3.77999955 L220,415.043951 C220,417.131587 218.854682,418.82395 217.441861,418.82395 L2.55813938,418.82395 C1.14531801,418.82395 1.73020717e-16,417.131587 0,415.043951 L0,3.77999955 C-1.73020717e-16,1.69236344 1.14531801,3.83492531e-16 2.55813938,0 L217.441861,0 C218.854682,2.00126342e-14 220,1.69236344 220,3.77999955 Z"/>
      <polygon fill="#D7D7D7" points="10.651 403.704 208.972 403.704 208.972 408.744 10.651 408.744"/>
      <polygon fill="#D7D7D7" points="9.828 27.216 208.972 27.216 208.972 32.256 9.828 32.256"/>
      <polygon fill="#D7D7D7" points="9.828 18.144 208.972 18.144 208.972 23.184 9.828 23.184"/>
      <polygon fill="#D7D7D7" points="9.828 9.072 208.972 9.072 208.972 14.112 9.828 14.112"/>
      <path fill="#FFF" d="M10.8416762,42.3178353 L208.014138,42.3178353 C208.558614,42.3178353 209,42.9944903 209,43.8291866 L209,391.439977 C209,392.274673 208.558614,392.951328 208.014138,392.951328 L10.8416762,392.951328 C10.2971995,392.951328 9.85581395,392.274673 9.85581395,391.439977 L9.85581395,43.8291866 C9.85581395,42.9944903 10.2971995,42.3178353 10.8416762,42.3178353 Z"/>
    </g>
    <g id="united-animejs-logo" fill-rule="nonzero" transform="translate(551 211)">
      <g stroke="#FFF" stroke-width=".5" transform="translate(20.1)">
        <path fill="#326CE5" d="M60.464501,0.0104161584 C59.3879859,0.0646632408 58.3332295,0.331660416 57.3621095,0.795744238 L15.0277301,21.0301284 C12.8081383,22.0904852 11.1959754,24.0958783 10.6475647,26.4786805 L0.203387947,71.93022 C-0.283857282,74.0459284 0.112602809,76.2672172 1.30249001,78.0882754 C1.445298,78.3086259 1.59888666,78.5219123 1.76270516,78.72737 L31.0648744,115.172009 C32.6013146,117.082327 34.9308507,118.194648 37.3941863,118.194168 L84.3848602,118.183336 C86.8472745,118.185131 89.1766463,117.074881 90.7141721,115.166593 L120.005513,78.7165379 C121.542775,76.8052626 122.118738,74.3032934 121.570244,71.9193879 L111.109825,26.4678483 C110.561414,24.0850462 108.949251,22.0796531 106.729659,21.0192963 L64.3898655,0.795744238 C63.1683428,0.211963601 61.8185964,-0.0580734257 60.464501,0.0104161584 Z"/>
        <path fill="#FFF" d="M60.8839851,15.4781721 C59.4845914,15.4783143 58.3499283,16.7391876 58.3500946,18.2945211 C58.3500963,18.3183916 58.3549805,18.3412015 58.3555002,18.3649298 C58.3534385,18.5762617 58.3432336,18.8308597 58.3500946,19.0148565 C58.3834675,19.9119287 58.5789504,20.5985095 58.6966096,21.4250013 C58.9097647,23.1939562 59.0883741,24.6603121 58.9781529,26.0232326 C58.8709603,26.5371773 58.492533,27.007206 58.15518,27.3339181 L58.0956227,28.4062971 C56.5749731,28.5323257 55.0441515,28.7631052 53.5151284,29.1103844 C46.9357436,30.604727 41.2710093,33.9948989 36.9582116,38.5722337 C36.6783627,38.3812541 36.18877,38.0299106 36.0431869,37.922307 C35.5907822,37.983421 35.1335489,38.1230547 34.5380127,37.7760735 C33.4040582,37.0125171 32.3712773,35.958544 31.121592,34.6889218 C30.5489795,34.0815974 30.1343155,33.5032805 29.4539889,32.9178716 C29.2994917,32.7849278 29.0637126,32.6051182 28.8909021,32.4683389 C28.3590225,32.0441413 27.7316884,31.8229149 27.1258416,31.8021641 C26.3468951,31.7754842 25.5970281,32.0801334 25.1063093,32.6958133 C24.2339215,33.7903557 24.5132282,35.4632964 25.7289533,36.4328917 C25.7412892,36.4427186 25.7544256,36.4503583 25.7668534,36.459972 C25.9339117,36.5954375 26.1384837,36.769013 26.2920401,36.8824243 C27.0139814,37.4156329 27.6734565,37.6885847 28.3927869,38.111869 C29.9082699,39.0480771 31.164624,39.8243582 32.1611368,40.7603202 C32.5502765,41.1752629 32.6182905,41.9064304 32.6700806,42.2226553 L33.482225,42.9484068 C29.1346026,49.493373 27.1224874,57.5777296 28.3115811,65.814994 L27.2503791,66.1237092 C26.9706896,66.4850008 26.5754702,67.0534926 26.162097,67.2231685 C24.858312,67.6339585 23.3909755,67.7848074 21.6195027,67.9705842 C20.7878132,68.0397624 20.0702033,67.998479 19.1884839,68.1655622 C18.9944217,68.2023359 18.7240291,68.2728035 18.5116969,68.3226278 C18.5043161,68.3241876 18.4974205,68.3263714 18.4900397,68.3280352 C18.4784661,68.3307215 18.463261,68.3363369 18.4521397,68.3388673 C16.958636,68.6998435 15.9992055,70.073045 16.3080785,71.4260191 C16.6170243,72.7793103 18.0758487,73.6022804 19.5783132,73.2783101 C19.5891591,73.2758317 19.6049082,73.2754158 19.6162133,73.2729027 C19.6331752,73.2690205 19.6481082,73.2607881 19.6649419,73.2566632 C19.8743842,73.2106727 20.1368554,73.1595035 20.3200717,73.1104297 C21.1869377,72.8782534 21.8147535,72.5371147 22.594076,72.2384447 C24.2706781,71.6369125 25.6593003,71.1343978 27.0121414,70.9385914 C27.5771652,70.8943236 28.1724658,71.2873264 28.468587,71.4531167 L29.5731034,71.2635547 C32.1148216,79.1463543 37.4414458,85.5177503 44.1862879,89.5156625 L43.7260728,90.6205379 C43.891953,91.0495623 44.0749111,91.6300386 43.9513456,92.053725 C43.4595231,93.3295224 42.6170951,94.6761306 41.6578118,96.177411 C41.1933345,96.8709989 40.7179714,97.4092578 40.2988235,98.2030159 C40.1985248,98.3929487 40.0707855,98.6847103 39.9739658,98.8854389 C39.3227187,100.279291 39.8004241,101.884669 41.0514106,102.487116 C42.3102561,103.093347 43.8728167,102.453954 44.5490458,101.057277 C44.5500853,101.055301 44.5534985,101.053846 44.5544514,101.05187 C44.5551444,101.05031 44.5537584,101.04797 44.5544514,101.046462 C44.6507704,100.848443 44.787228,100.588157 44.8684806,100.401952 C45.2274926,99.5792278 45.3469501,98.8741804 45.5994105,98.0784639 C46.2698511,96.3938297 46.6382051,94.6262215 47.561132,93.5247985 C47.8138592,93.2231927 48.225888,93.1071989 48.6530734,92.9927876 L49.2269887,91.9529049 C55.1070423,94.2106289 61.6888197,94.8164749 68.263653,93.323167 C69.7635377,92.9825066 71.2115318,92.5416171 72.6113326,92.0124815 C72.7726319,92.2986798 73.0723933,92.8488418 73.1527622,92.9873715 C73.5868744,93.1286535 74.0607076,93.2016116 74.4467789,93.7726996 C75.1372775,94.9527897 75.6094925,96.3488634 76.1847679,98.0351355 C76.4372699,98.8308381 76.5620568,99.5359167 76.9211121,100.358623 C77.0029486,100.54614 77.1387235,100.810082 77.2351413,101.00855 C77.909948,102.409764 79.4774602,103.051342 80.7381907,102.443805 C81.989023,101.841037 82.4672552,100.235805 81.8156356,98.8421278 C81.7188037,98.6414061 81.585671,98.3496324 81.4853636,98.1597047 C81.066174,97.3659692 80.5908872,96.8330779 80.1263753,96.139516 C79.1670123,94.6382858 78.3713326,93.391158 77.8794425,92.1153866 C77.6737668,91.4573887 77.9141425,91.0481653 78.0743572,90.6205552 C77.9784106,90.5105408 77.7730953,89.8891554 77.6520421,89.5969207 C84.6615888,85.4567733 89.8317926,78.8477763 92.2598124,71.2148275 C92.5876848,71.2663745 93.1575529,71.3672328 93.3426715,71.4043895 C93.7237583,71.1529632 94.0741542,70.8249114 94.761217,70.8790321 C96.1140668,71.0747675 97.5026492,71.5774398 99.1792825,72.1788855 C99.9586206,72.4775155 100.58641,72.8241552 101.453287,73.0562865 C101.636505,73.1053499 101.898971,73.1511238 102.108417,73.1971039 C102.125257,73.2012288 102.140175,73.2094785 102.157145,73.2133434 C102.168459,73.2158738 102.184199,73.2162724 102.195045,73.2187508 C103.697596,73.542319 105.156681,72.7198307 105.46528,71.3664598 C105.773806,70.013406 104.814819,68.6398856 103.321219,68.279308 C103.103966,68.2298911 102.795859,68.1459639 102.584875,68.1059942 C101.703147,67.9389579 100.985549,67.9801511 100.153856,67.9110162 C98.3823744,67.7253313 96.9150673,67.5743213 95.6112615,67.1636005 C95.0796625,66.9573086 94.7014813,66.3245469 94.5175651,66.0641412 L93.4942631,65.7662582 C94.0248226,61.9265918 93.8817621,57.9305098 92.9636622,53.9321764 C92.0370136,49.8966152 90.3993875,46.2057024 88.2153247,42.9538315 C88.4778184,42.7151281 88.9735323,42.2760169 89.1140978,42.1468392 C89.1551875,41.6920343 89.1198846,41.2151857 89.5905558,40.7115844 C90.5870184,39.7755704 91.8434729,38.999421 93.3589058,38.0631332 C94.0782136,37.6398108 94.7431532,37.3669352 95.4650668,36.8336885 C95.6283187,36.7131037 95.8512404,36.5221414 96.0227393,36.3841559 C97.2382063,35.4142348 97.5180518,33.7413945 96.6453833,32.6470774 C95.7727149,31.5527603 94.0816718,31.449682 92.8662048,32.4196031 C92.6931969,32.5566683 92.4584382,32.7354709 92.3031181,32.8691357 C91.6228226,33.4545828 91.2026819,34.0328321 90.6301006,34.6401859 C89.3804829,35.9098741 88.3475946,36.9691367 87.2136799,37.7327538 C86.72232,38.0189052 86.0026172,37.9198945 85.6760112,37.9006515 L84.7122666,38.5884906 C79.2167476,32.8239754 71.7344748,29.1384768 63.6777618,28.4225453 C63.6552279,28.0848053 63.6257065,27.4743161 63.6182045,27.2905897 C63.2883725,26.9748726 62.8899306,26.7053333 62.7898172,26.0232326 C62.679596,24.6603121 62.8636197,23.1939562 63.0767749,21.4250013 C63.1944341,20.5985095 63.389917,19.9119287 63.4232898,19.0148565 C63.4308785,18.8109303 63.4186985,18.5150178 63.4178842,18.2945211 C63.4177179,16.7391876 62.2833874,15.47803 60.8839937,15.4781721 L60.8839851,15.4781721 Z M57.7112077,35.1384544 L56.9586206,48.4348712 L56.9044776,48.4619515 C56.8540008,49.6514646 55.8753352,50.6012935 54.6737877,50.6012935 C54.1815962,50.6012935 53.7272926,50.443181 53.3581138,50.1734251 L53.3364566,50.1842572 L42.437479,42.4555457 C45.7871783,39.1606514 50.0717073,36.7257244 55.0094741,35.6042352 C55.9114507,35.3993731 56.8130254,35.2473648 57.7112077,35.1384544 Z M64.0621768,35.1384544 C69.8270539,35.8477099 75.158453,38.458942 79.2438624,42.4609617 L68.4152706,50.1409287 L68.3773706,50.1246892 C67.4162334,50.826903 66.0620565,50.6526706 65.3128791,49.713069 C65.0059847,49.328146 64.8449592,48.8755492 64.8255925,48.4186317 L64.8147639,48.4132243 L64.0621768,35.1384544 Z M38.4850431,47.4220688 L48.4365189,56.3260644 L48.4256903,56.3802249 C49.3239211,57.161345 49.4563782,58.5168269 48.7072337,59.4565446 C48.40036,59.8414832 47.9895874,60.099667 47.5485743,60.2202084 L47.5377458,60.2635369 L34.7816647,63.9464548 C34.1324204,58.0078285 35.5316183,52.2350116 38.4850431,47.4220688 Z M83.2125413,47.4274762 C84.6911378,49.8248495 85.8108056,52.5024746 86.4773617,55.4053262 C87.1359237,58.2733712 87.3011992,61.1362879 87.0296199,63.9031177 L74.2085672,60.2093677 L74.1977386,60.1552071 C73.049648,59.8413289 72.3440691,58.6730935 72.6113499,57.5013398 C72.7208539,57.0213265 72.9755753,56.6152488 73.3206227,56.3152236 L73.3152171,56.2881433 L83.2125499,47.4274762 L83.2125413,47.4274762 Z M58.8427955,57.0138948 L62.9197603,57.0138948 L65.4536508,60.1822874 L64.5440491,64.1360081 L60.8839851,65.8962262 L57.2130925,64.130592 L56.3034908,60.1768713 L58.8427955,57.0138948 Z M71.9129058,67.8568383 C72.0861581,67.848086 72.2586549,67.8637016 72.4272639,67.8947507 L72.4489211,67.8676704 L85.6435601,70.0990854 C83.712519,75.5260772 80.0174033,80.2275741 75.0802689,83.373838 L69.958345,70.9981507 L69.9745792,70.9764864 C69.5040795,69.8828782 69.9749257,68.6004307 71.0574384,68.0788966 C71.3345897,67.9453739 71.6241445,67.8714383 71.9128971,67.8568383 L71.9129058,67.8568383 Z M49.7521928,67.9109989 C50.7591201,67.925124 51.6622905,68.6242284 51.8962539,69.6495528 C52.0057856,70.1295592 51.952476,70.6051616 51.7717251,71.0252309 L51.8096252,71.0739754 L46.7418443,83.3250935 C42.0037446,80.2836792 38.2298313,75.729785 36.2110388,70.1424225 L49.2919776,67.9218397 L49.3136348,67.9489199 C49.4599525,67.9219853 49.6083458,67.9089885 49.7521928,67.9110076 L49.7521928,67.9109989 Z M60.8027706,73.2783188 C61.1535217,73.2654242 61.5094272,73.3374153 61.8477298,73.5003771 C62.291184,73.7139915 62.6337521,74.0503346 62.8493745,74.4536029 L62.8981031,74.4536029 L69.3465295,86.1089548 C68.5096457,86.3895896 67.6492838,86.6294299 66.7693247,86.8292902 C61.8376323,87.9493998 56.9216093,87.6100116 52.4701693,86.0927066 L58.9023528,74.4590189 L58.9131814,74.4590189 C59.2991418,73.7372693 60.03112,73.3066781 60.8027706,73.2783188 Z"/>
      </g>
      <g fill="#326DE5" transform="translate(0 135)">
        <path d="M4.53216973,13.3233645 C4.97828213,12.8388897 5.43454037,12.3342168 5.9009458,11.8093458 C6.38761318,11.2844972 6.8540105,10.7697331 7.30013913,10.2650467 C7.74624882,9.74020037 8.16195074,9.24562093 8.54724622,8.78130841 C8.95279846,8.31702505 9.2975268,7.91328673 9.58143259,7.57009346 L14.9652852,7.57009346 C13.8905265,8.80150879 12.8360628,9.98244336 11.8018916,11.1128972 C10.7879705,12.2231888 9.67267239,13.3738407 8.45599448,14.5648598 C9.06432814,15.1099155 9.69295055,15.765988 10.3418637,16.5330841 C10.9907519,17.2800067 11.6193743,18.0572007 12.227733,18.8646729 C12.8360628,19.672154 13.3937119,20.4796284 13.9006815,21.2871028 C14.407619,22.0945817 14.8334602,22.8314019 15.1782059,23.4975701 L9.97685679,23.4975701 C9.65239445,22.9727103 9.27724864,22.3973832 8.85141868,21.7715888 C8.44584481,21.1256097 8.00986473,20.4897219 7.5434771,19.8639252 C7.07707008,19.2179484 6.58025551,18.6022475 6.05303203,18.0168224 C5.54607027,17.4314086 5.03911662,16.9368292 4.53216973,16.5330841 L4.53216973,23.4975701 L4.49280042e-08,23.4975701 L4.49280042e-08,0.726728972 L4.53216973,0 L4.53216973,13.3233645"/>
        <path d="M30.9452714,22.9525234 C30.1746854,23.1745794 29.1810553,23.3764486 27.9643812,23.5581308 C26.7476801,23.76 25.4701558,23.8609346 24.1318082,23.8609346 C22.7731622,23.8609346 21.6375873,23.6792523 20.7250766,23.3158879 C19.8328329,22.9525234 19.1230972,22.4478505 18.5958685,21.8018692 C18.0686335,21.1357032 17.6934877,20.3484135 17.4704304,19.44 C17.2473686,18.5315933 17.1358389,17.5323432 17.1358407,16.442243 L17.1358407,7.57009346 L21.6680113,7.57009346 L21.6680113,15.8971963 C21.6680045,17.3506609 21.8606471,18.4003783 22.245939,19.0463551 C22.6312151,19.6923409 23.3510899,20.0153293 24.4055634,20.0153271 C24.7300028,20.0153293 25.0747316,20.0052336 25.4397498,19.9850467 C25.8047455,19.9446751 26.1291961,19.9043013 26.4131017,19.8639252 L26.4131017,7.57009346 L30.9452714,7.57009346 L30.9452714,22.9525234"/>
        <path d="M45.4799609,15.4127103 C45.4799497,12.5058056 44.405207,11.0523477 42.2557328,11.0523364 C41.7893261,11.0523477 41.3229305,11.1129084 40.8565395,11.2340187 C40.4104131,11.3551514 40.0454062,11.5065533 39.7615187,11.6882243 L39.7615187,19.8942056 C39.9845717,19.9345817 40.268466,19.9749555 40.6132015,20.0153271 C40.9579236,20.035514 41.3330696,20.0456097 41.7386397,20.0456075 C42.9755987,20.0456097 43.9083919,19.6216867 44.5370263,18.7738318 C45.1656381,17.9259858 45.4799497,16.8056142 45.4799609,15.4127103 M50.1033824,15.5338318 C50.1033666,16.8056142 49.910724,17.9562662 49.5254547,18.9857944 C49.1604319,20.0153293 48.6230606,20.8934602 47.9133406,21.6201869 C47.2035914,22.3469159 46.3316303,22.9121495 45.2974575,23.3158879 C44.2632598,23.6994393 43.0871286,23.891215 41.7690569,23.891215 C41.2215397,23.891215 40.643612,23.8609346 40.0352739,23.8003738 C39.4472003,23.76 38.8591358,23.6994393 38.2710736,23.6186916 C37.7032805,23.5379439 37.1557701,23.4471028 36.6285423,23.3461682 C36.1013078,23.2250467 35.63491,23.1039252 35.229349,22.9828037 L35.229349,0.726728972 L39.7615187,-5.68434189e-14 L39.7615187,7.93345794 C40.268466,7.71141757 40.7956983,7.53982879 41.3432155,7.41869159 C41.8907169,7.29758579 42.4787836,7.23702505 43.1074157,7.23700935 C44.2429817,7.23702505 45.2467508,7.43889421 46.1187231,7.84261682 C46.9906706,8.22618393 47.7206845,8.78132187 48.3087648,9.50803738 C48.8968158,10.2347798 49.3429354,11.1129084 49.6471237,12.1424299 C49.9512803,13.1517847 50.1033666,14.282252 50.1033824,15.5338318"/>
        <path d="M52.8262013,15.6549533 C52.8262013,14.2418781 53.039122,13.0104785 53.4649635,11.9607477 C53.9110808,10.8908546 54.4890085,10.0026303 55.1987465,9.29607477 C55.9084777,8.58954841 56.7196043,8.05459514 57.6321262,7.69121495 C58.564915,7.32786617 59.5179887,7.14618393 60.4913473,7.14616822 C62.7624904,7.14618393 64.5571057,7.84263252 65.8751999,9.23551402 C67.1932648,10.6082378 67.8523051,12.6370206 67.8523209,15.3218692 C67.8523051,15.5843058 67.8421593,15.8770161 67.8219037,16.2 C67.801603,16.5028105 67.7813316,16.7753338 67.7610692,17.0175701 L57.48004,17.0175701 C57.581424,17.9461727 58.0174045,18.6829951 58.7879815,19.2280374 C59.558545,19.7730886 60.5927291,20.0456097 61.8905407,20.0456075 C62.7219341,20.0456097 63.5330607,19.9749555 64.3239203,19.8336449 C65.1350334,19.672154 65.7940737,19.4803783 66.3010413,19.2583178 L66.9093863,22.922243 C66.6660325,23.0433645 66.3415842,23.164486 65.9360344,23.2856075 C65.5304576,23.406729 65.0741989,23.5076636 64.5672583,23.5884112 C64.0805711,23.6893458 63.5533388,23.7700935 62.9855615,23.8306542 C62.4177617,23.891215 61.8499753,23.9214953 61.2821957,23.9214953 C59.8424371,23.9214953 58.5851931,23.7095327 57.5104572,23.2856075 C56.4559882,22.8616822 55.573888,22.2863551 54.8641568,21.5596262 C54.174697,20.8127125 53.6576038,19.9345817 53.3128772,18.9252336 C52.9884266,17.9158923 52.8262013,16.8258011 52.8262013,15.6549533 M63.4722375,13.928972 C63.4519593,13.5454295 63.3809745,13.1719716 63.2593167,12.8085981 C63.1579146,12.4452449 62.9855503,12.1222542 62.7422235,11.8396262 C62.5191525,11.5570206 62.2251191,11.324871 61.8601234,11.1431776 C61.5153856,10.9615065 61.0794051,10.8706677 60.5521818,10.8706542 C60.0452187,10.8706677 59.6092404,10.9615065 59.2442402,11.1431776 C58.8792265,11.3046841 58.5750541,11.5267402 58.3317229,11.8093458 C58.0883781,12.0919738 57.8957356,12.4250579 57.7537952,12.8085981 C57.6321194,13.1719716 57.5408699,13.5454295 57.48004,13.928972 L63.4722375,13.928972"/>
        <path d="M80.9920958,11.5671028 C80.5865213,11.4661794 80.1099844,11.3652449 79.5624853,11.2642991 C79.0149658,11.1431888 78.4268991,11.082628 77.798285,11.0826168 C77.5143839,11.082628 77.1696551,11.1129084 76.7640986,11.1734579 C76.3788067,11.213843 76.0847734,11.2643103 75.8819985,11.3248598 L75.8819985,23.4975701 L71.3498288,23.4975701 L71.3498288,8.41794393 C72.1609531,8.1353428 73.1140268,7.8729129 74.2090499,7.63065421 C75.3243445,7.36824 76.5613102,7.23702505 77.919954,7.23700935 C78.1632829,7.23702505 78.4573163,7.25721869 78.8020541,7.29757009 C79.1467739,7.31777944 79.4915027,7.35814654 79.8362405,7.41869159 C80.180958,7.45908112 80.5256868,7.51964187 80.8704269,7.60037383 C81.2151444,7.66095028 81.5091778,7.74169794 81.752527,7.84261682 L80.9920958,11.5671028"/>
        <path d="M84.1821057,8.11514019 C84.9526714,7.89309981 85.9463014,7.69123065 87.1629958,7.50953271 C88.3796789,7.30767925 89.657201,7.20674467 90.9955688,7.20672897 C92.3541945,7.20674467 93.4796326,7.38842692 94.3718831,7.7517757 C95.284387,8.09496897 96.0042618,8.58954841 96.5315076,9.23551402 C97.0587241,9.88150879 97.4338701,10.6486116 97.6569457,11.5368224 C97.8799898,12.4250579 97.9915197,13.4142146 97.9915354,14.5042991 L97.9915354,23.4975701 L93.4593657,23.4975701 L93.4593657,15.0493458 C93.4593545,13.5958968 93.2667119,12.5663664 92.8814381,11.9607477 C92.4961417,11.3551514 91.7762669,11.0523477 90.7218136,11.0523364 C90.397354,11.0523477 90.0526252,11.0725458 89.6876272,11.1128972 C89.3226135,11.1330841 88.9981629,11.1633757 88.7142753,11.2037383 L88.7142753,23.4975701 L84.1821057,23.4975701 L84.1821057,8.11514019"/>
        <path d="M101.363096,15.6549533 C101.363096,14.2418781 101.576016,13.0104785 102.001858,11.9607477 C102.447975,10.8908546 103.025903,10.0026303 103.735641,9.29607477 C104.445372,8.58954841 105.256499,8.05459514 106.169021,7.69121495 C107.101809,7.32786617 108.054883,7.14618393 109.028242,7.14616822 C111.299385,7.14618393 113.094002,7.84263252 114.412094,9.23551402 C115.730159,10.6082378 116.389199,12.6370206 116.389215,15.3218692 C116.389199,15.5843058 116.379054,15.8770161 116.358798,16.2 C116.338497,16.5028105 116.318226,16.7753338 116.297964,17.0175701 L106.016934,17.0175701 C106.118321,17.9461727 106.554299,18.6829951 107.324876,19.2280374 C108.095439,19.7730886 109.129623,20.0456097 110.427435,20.0456075 C111.258828,20.0456097 112.069955,19.9749555 112.860815,19.8336449 C113.671928,19.672154 114.330968,19.4803783 114.837936,19.2583178 L115.446281,22.922243 C115.202929,23.0433645 114.878479,23.164486 114.472929,23.2856075 C114.067352,23.406729 113.611093,23.5076636 113.104153,23.5884112 C112.617465,23.6893458 112.090233,23.7700935 111.522456,23.8306542 C110.954658,23.891215 110.38687,23.9214953 109.81909,23.9214953 C108.379334,23.9214953 107.122087,23.7095327 106.047352,23.2856075 C104.992883,22.8616822 104.110785,22.2863551 103.401051,21.5596262 C102.711591,20.8127125 102.194498,19.9345817 101.849772,18.9252336 C101.525321,17.9158923 101.363096,16.8258011 101.363096,15.6549533 M112.009132,13.928972 C111.988831,13.5454295 111.917869,13.1719716 111.796211,12.8085981 C111.694809,12.4452449 111.522445,12.1222542 111.279118,11.8396262 C111.056047,11.5570206 110.762016,11.324871 110.397018,11.1431776 C110.05228,10.9615065 109.616299,10.8706677 109.089076,10.8706542 C108.582115,10.8706677 108.146135,10.9615065 107.781135,11.1431776 C107.416121,11.3046841 107.111948,11.5267402 106.868617,11.8093458 C106.625272,12.0919738 106.432632,12.4250579 106.29069,12.8085981 C106.169016,13.1719716 106.077764,13.5454295 106.016934,13.928972 L112.009132,13.928972"/>
        <path d="M119.734637,3.60336449 L124.266807,2.87663551 L124.266807,7.57009346 L129.711494,7.57009346 L129.711494,11.3248598 L124.266807,11.3248598 L124.266807,16.926729 C124.266802,17.8755185 124.429025,18.6325279 124.753483,19.197757 C125.098205,19.7629951 125.777523,20.0456097 126.791438,20.0456075 C127.278105,20.0456097 127.77492,20.0052359 128.281883,19.924486 C128.809106,19.8235559 129.285641,19.6923409 129.711494,19.5308411 L130.350256,23.0433645 C129.802734,23.2654206 129.194389,23.4571963 128.525221,23.6186916 C127.856033,23.7801869 127.034767,23.8609346 126.061424,23.8609346 C124.824449,23.8609346 123.800404,23.6994393 122.989282,23.3764486 C122.178151,23.033271 121.529252,22.568972 121.042579,21.9835514 C120.5559,21.3779462 120.211172,20.6512172 120.008392,19.8033645 C119.825889,18.9555185 119.734637,18.0168269 119.734637,16.9872897 L119.734637,3.60336449"/>
        <path d="M132.017977,15.6549533 C132.017977,14.2418781 132.230896,13.0104785 132.656739,11.9607477 C133.102857,10.8908546 133.680784,10.0026303 134.390522,9.29607477 C135.100254,8.58954841 135.91138,8.05459514 136.823902,7.69121495 C137.756691,7.32786617 138.709765,7.14618393 139.683123,7.14616822 C141.954266,7.14618393 143.748882,7.84263252 145.066976,9.23551402 C146.385041,10.6082378 147.044081,12.6370206 147.044097,15.3218692 C147.044081,15.5843058 147.033935,15.8770161 147.013679,16.2 C146.993379,16.5028105 146.973107,16.7753338 146.952845,17.0175701 L136.671816,17.0175701 C136.7732,17.9461727 137.20918,18.6829951 137.979757,19.2280374 C138.750321,19.7730886 139.784505,20.0456097 141.082316,20.0456075 C141.91371,20.0456097 142.724837,19.9749555 143.515696,19.8336449 C144.326809,19.672154 144.98585,19.4803783 145.492817,19.2583178 L146.101162,22.922243 C145.857808,23.0433645 145.53336,23.164486 145.12781,23.2856075 C144.722233,23.406729 144.265975,23.5076636 143.759034,23.5884112 C143.272347,23.6893458 142.745115,23.7700935 142.177337,23.8306542 C141.609537,23.891215 141.041751,23.9214953 140.473972,23.9214953 C139.034213,23.9214953 137.776969,23.7095327 136.702233,23.2856075 C135.647764,22.8616822 134.765664,22.2863551 134.055933,21.5596262 C133.366473,20.8127125 132.84938,19.9345817 132.504653,18.9252336 C132.1802,17.9158923 132.017977,16.8258011 132.017977,15.6549533 M142.664013,13.928972 C142.643735,13.5454295 142.57275,13.1719716 142.451093,12.8085981 C142.34969,12.4452449 142.177326,12.1222542 141.933999,11.8396262 C141.710928,11.5570206 141.416895,11.324871 141.051899,11.1431776 C140.707161,10.9615065 140.271181,10.8706677 139.743958,10.8706542 C139.236995,10.8706677 138.801016,10.9615065 138.436016,11.1431776 C138.071002,11.3046841 137.76683,11.5267402 137.523499,11.8093458 C137.280154,12.0919738 137.087511,12.4250579 136.945571,12.8085981 C136.823895,13.1719716 136.732644,13.5454295 136.671816,13.928972 L142.664013,13.928972"/>
        <path d="M155.134609,20.2575701 C155.966007,20.2575723 156.554074,20.1768247 156.898809,20.0153271 C157.243529,19.8538363 157.415893,19.5409391 157.415902,19.0766355 C157.415893,18.7132755 157.192833,18.4003783 156.746723,18.1379439 C156.300596,17.8553316 155.621278,17.5424366 154.708767,17.1992523 C153.999027,16.9368292 153.350126,16.6643058 152.762064,16.3816822 C152.194273,16.0990721 151.707597,15.765988 151.302036,15.3824299 C150.89647,14.9787006 150.582159,14.504308 150.359101,13.9592523 C150.136039,13.4142146 150.024509,12.7581421 150.024511,11.991028 C150.024509,10.4972097 150.582159,9.31627514 151.69746,8.4482243 C152.812755,7.58020262 154.343756,7.14618393 156.290464,7.14616822 C157.263807,7.14618393 158.196603,7.23702505 159.088851,7.41869159 C159.981079,7.58020262 160.690815,7.76188486 161.218058,7.96373832 L160.42721,11.4762617 C159.899966,11.2945907 159.322038,11.1330953 158.693427,10.9917757 C158.085073,10.8504807 157.395615,10.7798265 156.625054,10.7798131 C155.205576,10.7798265 154.495842,11.1734692 154.495847,11.9607477 C154.495842,12.1424411 154.526257,12.3039364 154.587098,12.4452336 C154.647926,12.5865533 154.769595,12.7278617 154.952105,12.8691589 C155.134602,12.9902916 155.37794,13.1316 155.682119,13.2930841 C156.006563,13.4344015 156.412126,13.5958968 156.898809,13.7775701 C157.89243,14.1409436 158.713696,14.504308 159.362606,14.8676636 C160.011496,15.2108501 160.51845,15.5943993 160.883468,16.0183178 C161.268742,16.4220628 161.532356,16.8762684 161.674317,17.3809346 C161.836529,17.885612 161.917641,18.4710325 161.917655,19.1371963 C161.917641,20.7117779 161.319435,21.902806 160.123037,22.7102804 C158.946895,23.517757 157.273946,23.9214953 155.104192,23.9214953 C153.684716,23.9214953 152.498443,23.8003738 151.545374,23.5581308 C150.612576,23.3158879 149.963677,23.1140187 149.59867,22.9525234 L150.359101,19.2885981 C151.129669,19.5914064 151.920518,19.8336493 152.731646,20.0153271 C153.542768,20.1768247 154.343756,20.2575723 155.134609,20.2575701"/>
      </g>
    </g>
    <g id="united-animejs-logo2" fill-rule="nonzero" transform="translate(319 211)">
      <g stroke="#FFF" stroke-width=".5" transform="translate(20.1)">
        <path fill="#326CE5" d="M60.464501,0.0104161584 C59.3879859,0.0646632408 58.3332295,0.331660416 57.3621095,0.795744238 L15.0277301,21.0301284 C12.8081383,22.0904852 11.1959754,24.0958783 10.6475647,26.4786805 L0.203387947,71.93022 C-0.283857282,74.0459284 0.112602809,76.2672172 1.30249001,78.0882754 C1.445298,78.3086259 1.59888666,78.5219123 1.76270516,78.72737 L31.0648744,115.172009 C32.6013146,117.082327 34.9308507,118.194648 37.3941863,118.194168 L84.3848602,118.183336 C86.8472745,118.185131 89.1766463,117.074881 90.7141721,115.166593 L120.005513,78.7165379 C121.542775,76.8052626 122.118738,74.3032934 121.570244,71.9193879 L111.109825,26.4678483 C110.561414,24.0850462 108.949251,22.0796531 106.729659,21.0192963 L64.3898655,0.795744238 C63.1683428,0.211963601 61.8185964,-0.0580734257 60.464501,0.0104161584 Z"/>
        <path fill="#FFF" d="M60.8839851,15.4781721 C59.4845914,15.4783143 58.3499283,16.7391876 58.3500946,18.2945211 C58.3500963,18.3183916 58.3549805,18.3412015 58.3555002,18.3649298 C58.3534385,18.5762617 58.3432336,18.8308597 58.3500946,19.0148565 C58.3834675,19.9119287 58.5789504,20.5985095 58.6966096,21.4250013 C58.9097647,23.1939562 59.0883741,24.6603121 58.9781529,26.0232326 C58.8709603,26.5371773 58.492533,27.007206 58.15518,27.3339181 L58.0956227,28.4062971 C56.5749731,28.5323257 55.0441515,28.7631052 53.5151284,29.1103844 C46.9357436,30.604727 41.2710093,33.9948989 36.9582116,38.5722337 C36.6783627,38.3812541 36.18877,38.0299106 36.0431869,37.922307 C35.5907822,37.983421 35.1335489,38.1230547 34.5380127,37.7760735 C33.4040582,37.0125171 32.3712773,35.958544 31.121592,34.6889218 C30.5489795,34.0815974 30.1343155,33.5032805 29.4539889,32.9178716 C29.2994917,32.7849278 29.0637126,32.6051182 28.8909021,32.4683389 C28.3590225,32.0441413 27.7316884,31.8229149 27.1258416,31.8021641 C26.3468951,31.7754842 25.5970281,32.0801334 25.1063093,32.6958133 C24.2339215,33.7903557 24.5132282,35.4632964 25.7289533,36.4328917 C25.7412892,36.4427186 25.7544256,36.4503583 25.7668534,36.459972 C25.9339117,36.5954375 26.1384837,36.769013 26.2920401,36.8824243 C27.0139814,37.4156329 27.6734565,37.6885847 28.3927869,38.111869 C29.9082699,39.0480771 31.164624,39.8243582 32.1611368,40.7603202 C32.5502765,41.1752629 32.6182905,41.9064304 32.6700806,42.2226553 L33.482225,42.9484068 C29.1346026,49.493373 27.1224874,57.5777296 28.3115811,65.814994 L27.2503791,66.1237092 C26.9706896,66.4850008 26.5754702,67.0534926 26.162097,67.2231685 C24.858312,67.6339585 23.3909755,67.7848074 21.6195027,67.9705842 C20.7878132,68.0397624 20.0702033,67.998479 19.1884839,68.1655622 C18.9944217,68.2023359 18.7240291,68.2728035 18.5116969,68.3226278 C18.5043161,68.3241876 18.4974205,68.3263714 18.4900397,68.3280352 C18.4784661,68.3307215 18.463261,68.3363369 18.4521397,68.3388673 C16.958636,68.6998435 15.9992055,70.073045 16.3080785,71.4260191 C16.6170243,72.7793103 18.0758487,73.6022804 19.5783132,73.2783101 C19.5891591,73.2758317 19.6049082,73.2754158 19.6162133,73.2729027 C19.6331752,73.2690205 19.6481082,73.2607881 19.6649419,73.2566632 C19.8743842,73.2106727 20.1368554,73.1595035 20.3200717,73.1104297 C21.1869377,72.8782534 21.8147535,72.5371147 22.594076,72.2384447 C24.2706781,71.6369125 25.6593003,71.1343978 27.0121414,70.9385914 C27.5771652,70.8943236 28.1724658,71.2873264 28.468587,71.4531167 L29.5731034,71.2635547 C32.1148216,79.1463543 37.4414458,85.5177503 44.1862879,89.5156625 L43.7260728,90.6205379 C43.891953,91.0495623 44.0749111,91.6300386 43.9513456,92.053725 C43.4595231,93.3295224 42.6170951,94.6761306 41.6578118,96.177411 C41.1933345,96.8709989 40.7179714,97.4092578 40.2988235,98.2030159 C40.1985248,98.3929487 40.0707855,98.6847103 39.9739658,98.8854389 C39.3227187,100.279291 39.8004241,101.884669 41.0514106,102.487116 C42.3102561,103.093347 43.8728167,102.453954 44.5490458,101.057277 C44.5500853,101.055301 44.5534985,101.053846 44.5544514,101.05187 C44.5551444,101.05031 44.5537584,101.04797 44.5544514,101.046462 C44.6507704,100.848443 44.787228,100.588157 44.8684806,100.401952 C45.2274926,99.5792278 45.3469501,98.8741804 45.5994105,98.0784639 C46.2698511,96.3938297 46.6382051,94.6262215 47.561132,93.5247985 C47.8138592,93.2231927 48.225888,93.1071989 48.6530734,92.9927876 L49.2269887,91.9529049 C55.1070423,94.2106289 61.6888197,94.8164749 68.263653,93.323167 C69.7635377,92.9825066 71.2115318,92.5416171 72.6113326,92.0124815 C72.7726319,92.2986798 73.0723933,92.8488418 73.1527622,92.9873715 C73.5868744,93.1286535 74.0607076,93.2016116 74.4467789,93.7726996 C75.1372775,94.9527897 75.6094925,96.3488634 76.1847679,98.0351355 C76.4372699,98.8308381 76.5620568,99.5359167 76.9211121,100.358623 C77.0029486,100.54614 77.1387235,100.810082 77.2351413,101.00855 C77.909948,102.409764 79.4774602,103.051342 80.7381907,102.443805 C81.989023,101.841037 82.4672552,100.235805 81.8156356,98.8421278 C81.7188037,98.6414061 81.585671,98.3496324 81.4853636,98.1597047 C81.066174,97.3659692 80.5908872,96.8330779 80.1263753,96.139516 C79.1670123,94.6382858 78.3713326,93.391158 77.8794425,92.1153866 C77.6737668,91.4573887 77.9141425,91.0481653 78.0743572,90.6205552 C77.9784106,90.5105408 77.7730953,89.8891554 77.6520421,89.5969207 C84.6615888,85.4567733 89.8317926,78.8477763 92.2598124,71.2148275 C92.5876848,71.2663745 93.1575529,71.3672328 93.3426715,71.4043895 C93.7237583,71.1529632 94.0741542,70.8249114 94.761217,70.8790321 C96.1140668,71.0747675 97.5026492,71.5774398 99.1792825,72.1788855 C99.9586206,72.4775155 100.58641,72.8241552 101.453287,73.0562865 C101.636505,73.1053499 101.898971,73.1511238 102.108417,73.1971039 C102.125257,73.2012288 102.140175,73.2094785 102.157145,73.2133434 C102.168459,73.2158738 102.184199,73.2162724 102.195045,73.2187508 C103.697596,73.542319 105.156681,72.7198307 105.46528,71.3664598 C105.773806,70.013406 104.814819,68.6398856 103.321219,68.279308 C103.103966,68.2298911 102.795859,68.1459639 102.584875,68.1059942 C101.703147,67.9389579 100.985549,67.9801511 100.153856,67.9110162 C98.3823744,67.7253313 96.9150673,67.5743213 95.6112615,67.1636005 C95.0796625,66.9573086 94.7014813,66.3245469 94.5175651,66.0641412 L93.4942631,65.7662582 C94.0248226,61.9265918 93.8817621,57.9305098 92.9636622,53.9321764 C92.0370136,49.8966152 90.3993875,46.2057024 88.2153247,42.9538315 C88.4778184,42.7151281 88.9735323,42.2760169 89.1140978,42.1468392 C89.1551875,41.6920343 89.1198846,41.2151857 89.5905558,40.7115844 C90.5870184,39.7755704 91.8434729,38.999421 93.3589058,38.0631332 C94.0782136,37.6398108 94.7431532,37.3669352 95.4650668,36.8336885 C95.6283187,36.7131037 95.8512404,36.5221414 96.0227393,36.3841559 C97.2382063,35.4142348 97.5180518,33.7413945 96.6453833,32.6470774 C95.7727149,31.5527603 94.0816718,31.449682 92.8662048,32.4196031 C92.6931969,32.5566683 92.4584382,32.7354709 92.3031181,32.8691357 C91.6228226,33.4545828 91.2026819,34.0328321 90.6301006,34.6401859 C89.3804829,35.9098741 88.3475946,36.9691367 87.2136799,37.7327538 C86.72232,38.0189052 86.0026172,37.9198945 85.6760112,37.9006515 L84.7122666,38.5884906 C79.2167476,32.8239754 71.7344748,29.1384768 63.6777618,28.4225453 C63.6552279,28.0848053 63.6257065,27.4743161 63.6182045,27.2905897 C63.2883725,26.9748726 62.8899306,26.7053333 62.7898172,26.0232326 C62.679596,24.6603121 62.8636197,23.1939562 63.0767749,21.4250013 C63.1944341,20.5985095 63.389917,19.9119287 63.4232898,19.0148565 C63.4308785,18.8109303 63.4186985,18.5150178 63.4178842,18.2945211 C63.4177179,16.7391876 62.2833874,15.47803 60.8839937,15.4781721 L60.8839851,15.4781721 Z M57.7112077,35.1384544 L56.9586206,48.4348712 L56.9044776,48.4619515 C56.8540008,49.6514646 55.8753352,50.6012935 54.6737877,50.6012935 C54.1815962,50.6012935 53.7272926,50.443181 53.3581138,50.1734251 L53.3364566,50.1842572 L42.437479,42.4555457 C45.7871783,39.1606514 50.0717073,36.7257244 55.0094741,35.6042352 C55.9114507,35.3993731 56.8130254,35.2473648 57.7112077,35.1384544 Z M64.0621768,35.1384544 C69.8270539,35.8477099 75.158453,38.458942 79.2438624,42.4609617 L68.4152706,50.1409287 L68.3773706,50.1246892 C67.4162334,50.826903 66.0620565,50.6526706 65.3128791,49.713069 C65.0059847,49.328146 64.8449592,48.8755492 64.8255925,48.4186317 L64.8147639,48.4132243 L64.0621768,35.1384544 Z M38.4850431,47.4220688 L48.4365189,56.3260644 L48.4256903,56.3802249 C49.3239211,57.161345 49.4563782,58.5168269 48.7072337,59.4565446 C48.40036,59.8414832 47.9895874,60.099667 47.5485743,60.2202084 L47.5377458,60.2635369 L34.7816647,63.9464548 C34.1324204,58.0078285 35.5316183,52.2350116 38.4850431,47.4220688 Z M83.2125413,47.4274762 C84.6911378,49.8248495 85.8108056,52.5024746 86.4773617,55.4053262 C87.1359237,58.2733712 87.3011992,61.1362879 87.0296199,63.9031177 L74.2085672,60.2093677 L74.1977386,60.1552071 C73.049648,59.8413289 72.3440691,58.6730935 72.6113499,57.5013398 C72.7208539,57.0213265 72.9755753,56.6152488 73.3206227,56.3152236 L73.3152171,56.2881433 L83.2125499,47.4274762 L83.2125413,47.4274762 Z M58.8427955,57.0138948 L62.9197603,57.0138948 L65.4536508,60.1822874 L64.5440491,64.1360081 L60.8839851,65.8962262 L57.2130925,64.130592 L56.3034908,60.1768713 L58.8427955,57.0138948 Z M71.9129058,67.8568383 C72.0861581,67.848086 72.2586549,67.8637016 72.4272639,67.8947507 L72.4489211,67.8676704 L85.6435601,70.0990854 C83.712519,75.5260772 80.0174033,80.2275741 75.0802689,83.373838 L69.958345,70.9981507 L69.9745792,70.9764864 C69.5040795,69.8828782 69.9749257,68.6004307 71.0574384,68.0788966 C71.3345897,67.9453739 71.6241445,67.8714383 71.9128971,67.8568383 L71.9129058,67.8568383 Z M49.7521928,67.9109989 C50.7591201,67.925124 51.6622905,68.6242284 51.8962539,69.6495528 C52.0057856,70.1295592 51.952476,70.6051616 51.7717251,71.0252309 L51.8096252,71.0739754 L46.7418443,83.3250935 C42.0037446,80.2836792 38.2298313,75.729785 36.2110388,70.1424225 L49.2919776,67.9218397 L49.3136348,67.9489199 C49.4599525,67.9219853 49.6083458,67.9089885 49.7521928,67.9110076 L49.7521928,67.9109989 Z M60.8027706,73.2783188 C61.1535217,73.2654242 61.5094272,73.3374153 61.8477298,73.5003771 C62.291184,73.7139915 62.6337521,74.0503346 62.8493745,74.4536029 L62.8981031,74.4536029 L69.3465295,86.1089548 C68.5096457,86.3895896 67.6492838,86.6294299 66.7693247,86.8292902 C61.8376323,87.9493998 56.9216093,87.6100116 52.4701693,86.0927066 L58.9023528,74.4590189 L58.9131814,74.4590189 C59.2991418,73.7372693 60.03112,73.3066781 60.8027706,73.2783188 Z"/>
      </g>
      <g fill="#326DE5" transform="translate(0 135)">
        <path d="M4.53216973,13.3233645 C4.97828213,12.8388897 5.43454037,12.3342168 5.9009458,11.8093458 C6.38761318,11.2844972 6.8540105,10.7697331 7.30013913,10.2650467 C7.74624882,9.74020037 8.16195074,9.24562093 8.54724622,8.78130841 C8.95279846,8.31702505 9.2975268,7.91328673 9.58143259,7.57009346 L14.9652852,7.57009346 C13.8905265,8.80150879 12.8360628,9.98244336 11.8018916,11.1128972 C10.7879705,12.2231888 9.67267239,13.3738407 8.45599448,14.5648598 C9.06432814,15.1099155 9.69295055,15.765988 10.3418637,16.5330841 C10.9907519,17.2800067 11.6193743,18.0572007 12.227733,18.8646729 C12.8360628,19.672154 13.3937119,20.4796284 13.9006815,21.2871028 C14.407619,22.0945817 14.8334602,22.8314019 15.1782059,23.4975701 L9.97685679,23.4975701 C9.65239445,22.9727103 9.27724864,22.3973832 8.85141868,21.7715888 C8.44584481,21.1256097 8.00986473,20.4897219 7.5434771,19.8639252 C7.07707008,19.2179484 6.58025551,18.6022475 6.05303203,18.0168224 C5.54607027,17.4314086 5.03911662,16.9368292 4.53216973,16.5330841 L4.53216973,23.4975701 L4.49280042e-08,23.4975701 L4.49280042e-08,0.726728972 L4.53216973,0 L4.53216973,13.3233645"/>
        <path d="M30.9452714,22.9525234 C30.1746854,23.1745794 29.1810553,23.3764486 27.9643812,23.5581308 C26.7476801,23.76 25.4701558,23.8609346 24.1318082,23.8609346 C22.7731622,23.8609346 21.6375873,23.6792523 20.7250766,23.3158879 C19.8328329,22.9525234 19.1230972,22.4478505 18.5958685,21.8018692 C18.0686335,21.1357032 17.6934877,20.3484135 17.4704304,19.44 C17.2473686,18.5315933 17.1358389,17.5323432 17.1358407,16.442243 L17.1358407,7.57009346 L21.6680113,7.57009346 L21.6680113,15.8971963 C21.6680045,17.3506609 21.8606471,18.4003783 22.245939,19.0463551 C22.6312151,19.6923409 23.3510899,20.0153293 24.4055634,20.0153271 C24.7300028,20.0153293 25.0747316,20.0052336 25.4397498,19.9850467 C25.8047455,19.9446751 26.1291961,19.9043013 26.4131017,19.8639252 L26.4131017,7.57009346 L30.9452714,7.57009346 L30.9452714,22.9525234"/>
        <path d="M45.4799609,15.4127103 C45.4799497,12.5058056 44.405207,11.0523477 42.2557328,11.0523364 C41.7893261,11.0523477 41.3229305,11.1129084 40.8565395,11.2340187 C40.4104131,11.3551514 40.0454062,11.5065533 39.7615187,11.6882243 L39.7615187,19.8942056 C39.9845717,19.9345817 40.268466,19.9749555 40.6132015,20.0153271 C40.9579236,20.035514 41.3330696,20.0456097 41.7386397,20.0456075 C42.9755987,20.0456097 43.9083919,19.6216867 44.5370263,18.7738318 C45.1656381,17.9259858 45.4799497,16.8056142 45.4799609,15.4127103 M50.1033824,15.5338318 C50.1033666,16.8056142 49.910724,17.9562662 49.5254547,18.9857944 C49.1604319,20.0153293 48.6230606,20.8934602 47.9133406,21.6201869 C47.2035914,22.3469159 46.3316303,22.9121495 45.2974575,23.3158879 C44.2632598,23.6994393 43.0871286,23.891215 41.7690569,23.891215 C41.2215397,23.891215 40.643612,23.8609346 40.0352739,23.8003738 C39.4472003,23.76 38.8591358,23.6994393 38.2710736,23.6186916 C37.7032805,23.5379439 37.1557701,23.4471028 36.6285423,23.3461682 C36.1013078,23.2250467 35.63491,23.1039252 35.229349,22.9828037 L35.229349,0.726728972 L39.7615187,-5.68434189e-14 L39.7615187,7.93345794 C40.268466,7.71141757 40.7956983,7.53982879 41.3432155,7.41869159 C41.8907169,7.29758579 42.4787836,7.23702505 43.1074157,7.23700935 C44.2429817,7.23702505 45.2467508,7.43889421 46.1187231,7.84261682 C46.9906706,8.22618393 47.7206845,8.78132187 48.3087648,9.50803738 C48.8968158,10.2347798 49.3429354,11.1129084 49.6471237,12.1424299 C49.9512803,13.1517847 50.1033666,14.282252 50.1033824,15.5338318"/>
        <path d="M52.8262013,15.6549533 C52.8262013,14.2418781 53.039122,13.0104785 53.4649635,11.9607477 C53.9110808,10.8908546 54.4890085,10.0026303 55.1987465,9.29607477 C55.9084777,8.58954841 56.7196043,8.05459514 57.6321262,7.69121495 C58.564915,7.32786617 59.5179887,7.14618393 60.4913473,7.14616822 C62.7624904,7.14618393 64.5571057,7.84263252 65.8751999,9.23551402 C67.1932648,10.6082378 67.8523051,12.6370206 67.8523209,15.3218692 C67.8523051,15.5843058 67.8421593,15.8770161 67.8219037,16.2 C67.801603,16.5028105 67.7813316,16.7753338 67.7610692,17.0175701 L57.48004,17.0175701 C57.581424,17.9461727 58.0174045,18.6829951 58.7879815,19.2280374 C59.558545,19.7730886 60.5927291,20.0456097 61.8905407,20.0456075 C62.7219341,20.0456097 63.5330607,19.9749555 64.3239203,19.8336449 C65.1350334,19.672154 65.7940737,19.4803783 66.3010413,19.2583178 L66.9093863,22.922243 C66.6660325,23.0433645 66.3415842,23.164486 65.9360344,23.2856075 C65.5304576,23.406729 65.0741989,23.5076636 64.5672583,23.5884112 C64.0805711,23.6893458 63.5533388,23.7700935 62.9855615,23.8306542 C62.4177617,23.891215 61.8499753,23.9214953 61.2821957,23.9214953 C59.8424371,23.9214953 58.5851931,23.7095327 57.5104572,23.2856075 C56.4559882,22.8616822 55.573888,22.2863551 54.8641568,21.5596262 C54.174697,20.8127125 53.6576038,19.9345817 53.3128772,18.9252336 C52.9884266,17.9158923 52.8262013,16.8258011 52.8262013,15.6549533 M63.4722375,13.928972 C63.4519593,13.5454295 63.3809745,13.1719716 63.2593167,12.8085981 C63.1579146,12.4452449 62.9855503,12.1222542 62.7422235,11.8396262 C62.5191525,11.5570206 62.2251191,11.324871 61.8601234,11.1431776 C61.5153856,10.9615065 61.0794051,10.8706677 60.5521818,10.8706542 C60.0452187,10.8706677 59.6092404,10.9615065 59.2442402,11.1431776 C58.8792265,11.3046841 58.5750541,11.5267402 58.3317229,11.8093458 C58.0883781,12.0919738 57.8957356,12.4250579 57.7537952,12.8085981 C57.6321194,13.1719716 57.5408699,13.5454295 57.48004,13.928972 L63.4722375,13.928972"/>
        <path d="M80.9920958,11.5671028 C80.5865213,11.4661794 80.1099844,11.3652449 79.5624853,11.2642991 C79.0149658,11.1431888 78.4268991,11.082628 77.798285,11.0826168 C77.5143839,11.082628 77.1696551,11.1129084 76.7640986,11.1734579 C76.3788067,11.213843 76.0847734,11.2643103 75.8819985,11.3248598 L75.8819985,23.4975701 L71.3498288,23.4975701 L71.3498288,8.41794393 C72.1609531,8.1353428 73.1140268,7.8729129 74.2090499,7.63065421 C75.3243445,7.36824 76.5613102,7.23702505 77.919954,7.23700935 C78.1632829,7.23702505 78.4573163,7.25721869 78.8020541,7.29757009 C79.1467739,7.31777944 79.4915027,7.35814654 79.8362405,7.41869159 C80.180958,7.45908112 80.5256868,7.51964187 80.8704269,7.60037383 C81.2151444,7.66095028 81.5091778,7.74169794 81.752527,7.84261682 L80.9920958,11.5671028"/>
        <path d="M84.1821057,8.11514019 C84.9526714,7.89309981 85.9463014,7.69123065 87.1629958,7.50953271 C88.3796789,7.30767925 89.657201,7.20674467 90.9955688,7.20672897 C92.3541945,7.20674467 93.4796326,7.38842692 94.3718831,7.7517757 C95.284387,8.09496897 96.0042618,8.58954841 96.5315076,9.23551402 C97.0587241,9.88150879 97.4338701,10.6486116 97.6569457,11.5368224 C97.8799898,12.4250579 97.9915197,13.4142146 97.9915354,14.5042991 L97.9915354,23.4975701 L93.4593657,23.4975701 L93.4593657,15.0493458 C93.4593545,13.5958968 93.2667119,12.5663664 92.8814381,11.9607477 C92.4961417,11.3551514 91.7762669,11.0523477 90.7218136,11.0523364 C90.397354,11.0523477 90.0526252,11.0725458 89.6876272,11.1128972 C89.3226135,11.1330841 88.9981629,11.1633757 88.7142753,11.2037383 L88.7142753,23.4975701 L84.1821057,23.4975701 L84.1821057,8.11514019"/>
        <path d="M101.363096,15.6549533 C101.363096,14.2418781 101.576016,13.0104785 102.001858,11.9607477 C102.447975,10.8908546 103.025903,10.0026303 103.735641,9.29607477 C104.445372,8.58954841 105.256499,8.05459514 106.169021,7.69121495 C107.101809,7.32786617 108.054883,7.14618393 109.028242,7.14616822 C111.299385,7.14618393 113.094002,7.84263252 114.412094,9.23551402 C115.730159,10.6082378 116.389199,12.6370206 116.389215,15.3218692 C116.389199,15.5843058 116.379054,15.8770161 116.358798,16.2 C116.338497,16.5028105 116.318226,16.7753338 116.297964,17.0175701 L106.016934,17.0175701 C106.118321,17.9461727 106.554299,18.6829951 107.324876,19.2280374 C108.095439,19.7730886 109.129623,20.0456097 110.427435,20.0456075 C111.258828,20.0456097 112.069955,19.9749555 112.860815,19.8336449 C113.671928,19.672154 114.330968,19.4803783 114.837936,19.2583178 L115.446281,22.922243 C115.202929,23.0433645 114.878479,23.164486 114.472929,23.2856075 C114.067352,23.406729 113.611093,23.5076636 113.104153,23.5884112 C112.617465,23.6893458 112.090233,23.7700935 111.522456,23.8306542 C110.954658,23.891215 110.38687,23.9214953 109.81909,23.9214953 C108.379334,23.9214953 107.122087,23.7095327 106.047352,23.2856075 C104.992883,22.8616822 104.110785,22.2863551 103.401051,21.5596262 C102.711591,20.8127125 102.194498,19.9345817 101.849772,18.9252336 C101.525321,17.9158923 101.363096,16.8258011 101.363096,15.6549533 M112.009132,13.928972 C111.988831,13.5454295 111.917869,13.1719716 111.796211,12.8085981 C111.694809,12.4452449 111.522445,12.1222542 111.279118,11.8396262 C111.056047,11.5570206 110.762016,11.324871 110.397018,11.1431776 C110.05228,10.9615065 109.616299,10.8706677 109.089076,10.8706542 C108.582115,10.8706677 108.146135,10.9615065 107.781135,11.1431776 C107.416121,11.3046841 107.111948,11.5267402 106.868617,11.8093458 C106.625272,12.0919738 106.432632,12.4250579 106.29069,12.8085981 C106.169016,13.1719716 106.077764,13.5454295 106.016934,13.928972 L112.009132,13.928972"/>
        <path d="M119.734637,3.60336449 L124.266807,2.87663551 L124.266807,7.57009346 L129.711494,7.57009346 L129.711494,11.3248598 L124.266807,11.3248598 L124.266807,16.926729 C124.266802,17.8755185 124.429025,18.6325279 124.753483,19.197757 C125.098205,19.7629951 125.777523,20.0456097 126.791438,20.0456075 C127.278105,20.0456097 127.77492,20.0052359 128.281883,19.924486 C128.809106,19.8235559 129.285641,19.6923409 129.711494,19.5308411 L130.350256,23.0433645 C129.802734,23.2654206 129.194389,23.4571963 128.525221,23.6186916 C127.856033,23.7801869 127.034767,23.8609346 126.061424,23.8609346 C124.824449,23.8609346 123.800404,23.6994393 122.989282,23.3764486 C122.178151,23.033271 121.529252,22.568972 121.042579,21.9835514 C120.5559,21.3779462 120.211172,20.6512172 120.008392,19.8033645 C119.825889,18.9555185 119.734637,18.0168269 119.734637,16.9872897 L119.734637,3.60336449"/>
        <path d="M132.017977,15.6549533 C132.017977,14.2418781 132.230896,13.0104785 132.656739,11.9607477 C133.102857,10.8908546 133.680784,10.0026303 134.390522,9.29607477 C135.100254,8.58954841 135.91138,8.05459514 136.823902,7.69121495 C137.756691,7.32786617 138.709765,7.14618393 139.683123,7.14616822 C141.954266,7.14618393 143.748882,7.84263252 145.066976,9.23551402 C146.385041,10.6082378 147.044081,12.6370206 147.044097,15.3218692 C147.044081,15.5843058 147.033935,15.8770161 147.013679,16.2 C146.993379,16.5028105 146.973107,16.7753338 146.952845,17.0175701 L136.671816,17.0175701 C136.7732,17.9461727 137.20918,18.6829951 137.979757,19.2280374 C138.750321,19.7730886 139.784505,20.0456097 141.082316,20.0456075 C141.91371,20.0456097 142.724837,19.9749555 143.515696,19.8336449 C144.326809,19.672154 144.98585,19.4803783 145.492817,19.2583178 L146.101162,22.922243 C145.857808,23.0433645 145.53336,23.164486 145.12781,23.2856075 C144.722233,23.406729 144.265975,23.5076636 143.759034,23.5884112 C143.272347,23.6893458 142.745115,23.7700935 142.177337,23.8306542 C141.609537,23.891215 141.041751,23.9214953 140.473972,23.9214953 C139.034213,23.9214953 137.776969,23.7095327 136.702233,23.2856075 C135.647764,22.8616822 134.765664,22.2863551 134.055933,21.5596262 C133.366473,20.8127125 132.84938,19.9345817 132.504653,18.9252336 C132.1802,17.9158923 132.017977,16.8258011 132.017977,15.6549533 M142.664013,13.928972 C142.643735,13.5454295 142.57275,13.1719716 142.451093,12.8085981 C142.34969,12.4452449 142.177326,12.1222542 141.933999,11.8396262 C141.710928,11.5570206 141.416895,11.324871 141.051899,11.1431776 C140.707161,10.9615065 140.271181,10.8706677 139.743958,10.8706542 C139.236995,10.8706677 138.801016,10.9615065 138.436016,11.1431776 C138.071002,11.3046841 137.76683,11.5267402 137.523499,11.8093458 C137.280154,12.0919738 137.087511,12.4250579 136.945571,12.8085981 C136.823895,13.1719716 136.732644,13.5454295 136.671816,13.928972 L142.664013,13.928972"/>
        <path d="M155.134609,20.2575701 C155.966007,20.2575723 156.554074,20.1768247 156.898809,20.0153271 C157.243529,19.8538363 157.415893,19.5409391 157.415902,19.0766355 C157.415893,18.7132755 157.192833,18.4003783 156.746723,18.1379439 C156.300596,17.8553316 155.621278,17.5424366 154.708767,17.1992523 C153.999027,16.9368292 153.350126,16.6643058 152.762064,16.3816822 C152.194273,16.0990721 151.707597,15.765988 151.302036,15.3824299 C150.89647,14.9787006 150.582159,14.504308 150.359101,13.9592523 C150.136039,13.4142146 150.024509,12.7581421 150.024511,11.991028 C150.024509,10.4972097 150.582159,9.31627514 151.69746,8.4482243 C152.812755,7.58020262 154.343756,7.14618393 156.290464,7.14616822 C157.263807,7.14618393 158.196603,7.23702505 159.088851,7.41869159 C159.981079,7.58020262 160.690815,7.76188486 161.218058,7.96373832 L160.42721,11.4762617 C159.899966,11.2945907 159.322038,11.1330953 158.693427,10.9917757 C158.085073,10.8504807 157.395615,10.7798265 156.625054,10.7798131 C155.205576,10.7798265 154.495842,11.1734692 154.495847,11.9607477 C154.495842,12.1424411 154.526257,12.3039364 154.587098,12.4452336 C154.647926,12.5865533 154.769595,12.7278617 154.952105,12.8691589 C155.134602,12.9902916 155.37794,13.1316 155.682119,13.2930841 C156.006563,13.4344015 156.412126,13.5958968 156.898809,13.7775701 C157.89243,14.1409436 158.713696,14.504308 159.362606,14.8676636 C160.011496,15.2108501 160.51845,15.5943993 160.883468,16.0183178 C161.268742,16.4220628 161.532356,16.8762684 161.674317,17.3809346 C161.836529,17.885612 161.917641,18.4710325 161.917655,19.1371963 C161.917641,20.7117779 161.319435,21.902806 160.123037,22.7102804 C158.946895,23.517757 157.273946,23.9214953 155.104192,23.9214953 C153.684716,23.9214953 152.498443,23.8003738 151.545374,23.5581308 C150.612576,23.3158879 149.963677,23.1140187 149.59867,22.9525234 L150.359101,19.2885981 C151.129669,19.5914064 151.920518,19.8336493 152.731646,20.0153271 C153.542768,20.1768247 154.343756,20.2575723 155.134609,20.2575701"/>
      </g>
    </g>
  </g>
</svg>
