<svg viewBox="0 0 1200 900" xmlns="http://www.w3.org/2000/svg"><g fill="none" fill-rule="evenodd"><g transform="translate(0.000000, 413.000000)" fill="#B8E986"><path d="M88.38 36.5l-66.3 36.72V-.22z"></path><path d="M0 45.686v-20.4h69v20.4z"></path></g><g transform="translate(93.000000, 256.000000)"><path d="M10 0h1012c5.523 0 10 4.477 10 10v367.6c0 5.523-4.477 10-10 10H10c-5.523 0-10-4.477-10-10V10C0 4.477 4.477 0 10 0z" fill="#53777A"></path><path d="M214.16 164.36L191.473 232H175.02l29.956-85.09h19.03L254.003 232H237.55l-22.727-67.64h-.665zm-22.146 46.658v-12.381h44.872v12.381h-44.872zM280.637 232h-15.415v-85.09h31.91q9.805 0 16.473 3.655 6.669 3.657 10.096 10.034 3.428 6.378 3.428 14.48 0 8.185-3.448 14.542-3.449 6.357-10.18 9.992-6.73 3.636-16.577 3.636h-21.149v-12.673h19.071q5.734 0 9.39-1.994 3.656-1.994 5.422-5.484 1.766-3.49 1.766-8.02 0-4.528-1.766-7.976-1.766-3.449-5.443-5.38-3.677-1.933-9.452-1.933h-14.126V232zm59.87-85.09h15.415V232h-15.414v-85.09zm122.277 23.39h-14.832q-.582-5.442-4.882-8.475-4.3-3.033-11.156-3.033-4.82 0-8.268 1.454-3.449 1.454-5.277 3.947-1.828 2.493-1.87 5.692 0 2.66 1.226 4.612 1.226 1.953 3.345 3.303 2.119 1.35 4.695 2.265 2.576.914 5.193 1.537l7.978 1.994q4.82 1.122 9.286 3.033 4.466 1.911 8.018 4.82 3.553 2.908 5.63 7.022 2.078 4.113 2.078 9.639 0 7.478-3.823 13.15-3.822 5.671-11.03 8.85-7.21 3.178-17.43 3.178-9.93 0-17.222-3.075-7.292-3.074-11.384-8.974-4.093-5.9-4.425-14.376h15.165q.332 4.446 2.742 7.396t6.295 4.404q3.884 1.454 8.704 1.454 5.027 0 8.829-1.516 3.802-1.517 5.962-4.238 2.16-2.722 2.202-6.378-.041-3.324-1.953-5.505-1.91-2.181-5.338-3.656t-7.999-2.639l-9.68-2.493q-10.512-2.7-16.599-8.205t-6.087-14.646q0-7.52 4.093-13.17 4.092-5.651 11.156-8.788 7.063-3.137 15.996-3.137 9.057 0 15.892 3.137 6.835 3.137 10.74 8.683 3.906 5.547 4.03 12.735zm70.55 61.7h-55.675v-85.09H533v12.92h-39.928v23.101h37.061v12.922h-37.061v23.225h40.26V232zm30.828 0h-15.414v-85.09h31.909q9.805 0 16.474 3.406 6.668 3.407 10.096 9.535 3.428 6.129 3.428 14.272 0 8.185-3.47 14.189-3.469 6.004-10.2 9.265-6.73 3.262-16.536 3.262h-22.727v-12.797h20.65q5.733 0 9.39-1.6 3.656-1.6 5.422-4.695 1.765-3.095 1.765-7.624t-1.786-7.749q-1.787-3.22-5.443-4.902-3.656-1.683-9.431-1.683h-14.127V232zm11.717-38.557h16.827L613.77 232h-17.2l-20.691-38.557zm41.216-46.534h16.91l22.145 66.976h.873l22.103-66.976h16.952L666.08 232h-19.029l-29.956-85.09zM762.97 232h-55.675v-85.09h55.342v12.92H722.71v23.101h37.062v12.922H722.71v23.225h40.26V232zm30.829 0h-15.415v-85.09h31.91q9.805 0 16.473 3.406 6.669 3.407 10.096 9.535 3.428 6.129 3.428 14.272 0 8.185-3.47 14.189-3.468 6.004-10.2 9.265-6.73 3.262-16.535 3.262H787.36v-12.797h20.65q5.733 0 9.389-1.6 3.656-1.6 5.422-4.695 1.766-3.095 1.766-7.624t-1.787-7.749q-1.786-3.22-5.443-4.902-3.656-1.683-9.431-1.683H793.8V232zm11.716-38.557h16.827L843.408 232h-17.2l-20.692-38.557z" fill="#FFF" fill-rule="nonzero"></path></g><g transform="translate(1125.000000, 424.000000)" fill="#B8E986"><path d="M74.566 25.5l-46.41 25.704V-.204z"></path><path d="M0 31.932v-14.28h61v14.28z"></path></g></g></svg>