<svg viewBox="0 0 1200 900" xmlns="http://www.w3.org/2000/svg"><g fill="none" fill-rule="evenodd"><g transform="translate(0.000000, 413.000000)" fill="#B8E986"><path d="M88.38 36.5l-66.3 36.72V-.22z"></path><path d="M0 45.686v-20.4h69v20.4z"></path></g><g transform="translate(93.000000, 206.000000)"><path d="M10 50h1012c5.523 0 10 4.477 10 10v367.6c0 5.523-4.477 10-10 10H10c-5.523 0-10-4.477-10-10V60c0-5.523 4.477-10 10-10z" fill="#EEF8F9"></path><path d="M25.555 11.656L19.738 29h-4.219L23.2 7.182h4.88L35.77 29h-4.219l-5.827-17.344h-.17zM19.876 23.62v-3.175h11.506v3.175H19.876zM42.6 29h-3.952V7.182h8.181q2.515 0 4.225.937 1.71.938 2.588 2.573.88 1.635.88 3.713 0 2.099-.885 3.729-.884 1.63-2.61 2.562-1.726.932-4.25.932h-5.423v-3.25h4.89q1.47 0 2.407-.51.938-.512 1.39-1.407.453-.895.453-2.056t-.453-2.046q-.452-.884-1.395-1.38-.943-.495-2.424-.495H42.6V29zM57.952 7.182h3.952V29h-3.952V7.182zm31.353 5.998H85.5q-.149-1.396-1.251-2.174-1.103-.777-2.86-.777-1.237 0-2.12.373-.885.372-1.354 1.012-.469.639-.48 1.46 0 .681.315 1.182.314.5.858.847.543.346 1.203.58.66.235 1.332.394l2.046.512q1.235.287 2.38.777 1.146.49 2.057 1.236.91.746 1.443 1.8.533 1.055.533 2.472 0 1.918-.98 3.372t-2.829 2.27q-1.848.814-4.469.814-2.546 0-4.416-.788-1.87-.788-2.919-2.301-1.049-1.513-1.134-3.686h3.888q.085 1.14.703 1.896t1.614 1.13q.996.372 2.232.372 1.29 0 2.264-.389.975-.389 1.529-1.086.554-.698.564-1.636-.01-.852-.5-1.411-.49-.56-1.37-.938-.878-.378-2.05-.676l-2.482-.64q-2.696-.692-4.256-2.103-1.561-1.412-1.561-3.756 0-1.928 1.05-3.377 1.049-1.449 2.86-2.253 1.81-.804 4.101-.804 2.323 0 4.075.804 1.753.804 2.754 2.226 1.002 1.423 1.034 3.266zM107.395 29H93.118V7.182h14.19v3.313H97.07v5.923h9.503v3.314H97.07v5.955h10.323V29zm7.904 0h-3.953V7.182h8.182q2.515 0 4.224.873 1.71.874 2.59 2.445.878 1.572.878 3.66 0 2.099-.89 3.638-.889 1.54-2.615 2.376-1.726.836-4.24.836h-5.827v-3.281h5.294q1.47 0 2.408-.41t1.39-1.204q.453-.794.453-1.955t-.458-1.987q-.458-.826-1.396-1.257-.937-.432-2.418-.432H115.3V29zm3.004-9.886h4.315L128.019 29h-4.41l-5.306-9.886zm10.568-11.932h4.336l5.679 17.173h.223l5.668-17.173h4.346L141.432 29h-4.88l-7.68-21.818zM166.275 29H152V7.182h14.19v3.313h-10.238v5.923h9.503v3.314h-9.503v5.955h10.323V29zm7.905 0h-3.952V7.182h8.182q2.514 0 4.224.873 1.71.874 2.589 2.445.878 1.572.878 3.66 0 2.099-.89 3.638-.889 1.54-2.615 2.376-1.725.836-4.24.836h-5.827v-3.281h5.295q1.47 0 2.407-.41.938-.41 1.39-1.204.453-.794.453-1.955t-.458-1.987q-.458-.826-1.395-1.257-.938-.432-2.419-.432h-3.622V29zm3.005-9.886h4.314L186.9 29h-4.41l-5.305-9.886z" fill="#000" fill-rule="nonzero"></path></g><g transform="translate(120.000000, 319.000000)"><rect y=".412" width="164.78" height="269.64" rx="4.12" fill="#53777A"></rect><g transform="translate(452.000000, 0.000000)"><rect fill="#53777A" y=".412" width="164.78" height="269.64" rx="4.12"></rect><path d="M30.617 96.56V78.378h4.03l5.399 13.175h.213l5.397-13.175h4.03V96.56h-3.16V84.069h-.168l-5.025 12.438H38.97l-5.024-12.465h-.17V96.56h-3.16zM61 90.825v-7.901h3.214V96.56h-3.116v-2.424h-.142q-.462 1.146-1.514 1.874-1.052.728-2.588.728-1.34 0-2.366-.6-1.025-.599-1.602-1.749-.577-1.15-.577-2.783v-8.682h3.213v8.185q0 1.296.71 2.06.71.763 1.865.763.71 0 1.376-.346.666-.346 1.096-1.034.43-.688.43-1.727zm4.663-7.901h7.84v2.485h-7.84v-2.485zM67.6 92.99V79.657h3.214v12.801q0 .649.2.99.2.342.528.466.328.125.728.125.301 0 .554-.045.253-.044.387-.08l.541 2.513q-.257.089-.732.195-.475.107-1.159.124-1.207.036-2.175-.368-.968-.404-1.531-1.256-.564-.852-.555-2.13zm11.695 3.844q-1.297 0-2.33-.466-1.035-.466-1.634-1.38-.6-.915-.6-2.255 0-1.154.426-1.91.427-.754 1.163-1.206.737-.453 1.665-.689.928-.235 1.922-.341 1.199-.125 1.944-.227.746-.102 1.088-.32.342-.217.342-.678v-.054q0-1.003-.595-1.553t-1.714-.55q-1.18 0-1.868.514-.688.515-.928 1.216l-3-.426q.354-1.243 1.171-2.082.817-.839 1.998-1.26 1.18-.422 2.61-.422.985 0 1.962.23.976.232 1.784.76T86 85.17q.493.905.493 2.264v9.126h-3.089v-1.873h-.107q-.292.568-.82 1.06-.529.493-1.324.79-.794.298-1.86.298zm.834-2.361q.968 0 1.678-.386.71-.387 1.096-1.026.387-.64.387-1.394V90.06q-.151.125-.51.231-.36.107-.804.187-.444.08-.88.142l-.754.106q-.719.098-1.287.32t-.897.617q-.328.395-.328 1.016 0 .888.648 1.34.648.454 1.651.454zm7.753-11.55h7.84v2.485h-7.84v-2.485zm1.935 10.067V79.657h3.214v12.801q0 .649.2.99.2.342.528.466.329.125.728.125.302 0 .555-.045.253-.044.386-.08l.542 2.513q-.258.089-.733.195-.475.107-1.158.124-1.208.036-2.175-.368-.968-.404-1.532-1.256-.563-.852-.555-2.13zm10.985 3.569h-3.214V82.924h3.214V96.56zm-1.598-15.572q-.772 0-1.318-.51t-.546-1.23q0-.728.55-1.238t1.314-.51q.763 0 1.31.51.545.51.545 1.238 0 .72-.546 1.23t-1.309.51zm10.026 15.838q-1.998 0-3.463-.879-1.465-.878-2.268-2.459-.803-1.58-.803-3.693t.803-3.702q.803-1.59 2.268-2.468 1.465-.879 3.463-.879 1.997 0 3.462.879t2.268 2.468q.804 1.59.804 3.702 0 2.113-.804 3.693-.803 1.58-2.268 2.46-1.465.878-3.462.878zm.017-2.574q1.084 0 1.812-.6.728-.599 1.087-1.61.36-1.013.36-2.256 0-1.252-.36-2.268-.36-1.017-1.087-1.62-.728-.604-1.812-.604-1.11 0-1.842.604-.732.603-1.092 1.62-.36 1.016-.36 2.268 0 1.243.36 2.255.36 1.012 1.092 1.612.733.599 1.842.599zm11.624-5.682v7.99h-3.214V82.924h3.072v2.317h.16q.47-1.145 1.505-1.82 1.034-.675 2.561-.675 1.412 0 2.464.604 1.052.603 1.633 1.749.582 1.145.573 2.778v8.683h-3.214v-8.185q0-1.368-.706-2.14t-1.949-.772q-.843 0-1.495.368-.653.369-1.021 1.061-.369.693-.369 1.678zm-94.197 39.266q-1.296 0-2.33-.466t-1.634-1.38q-.599-.915-.599-2.255 0-1.154.426-1.91.426-.754 1.163-1.206.737-.453 1.665-.689.928-.235 1.922-.341 1.198-.125 1.944-.227.746-.102 1.088-.32.341-.217.341-.678v-.054q0-1.003-.594-1.553-.595-.55-1.714-.55-1.18 0-1.869.514-.688.515-.927 1.216l-3.001-.426q.355-1.243 1.172-2.082.817-.839 1.997-1.26 1.181-.422 2.61-.422.986 0 1.962.23.977.232 1.785.76.808.528 1.3 1.434.493.905.493 2.264v9.126h-3.09v-1.873h-.106q-.293.568-.821 1.06-.528.493-1.323.79-.794.298-1.86.298zm.835-2.361q.967 0 1.678-.386.71-.387 1.096-1.026.386-.64.386-1.394v-1.607q-.15.125-.51.231-.36.107-.804.187-.444.08-.879.142l-.754.106q-.72.098-1.287.32-.569.222-.897.617-.329.395-.329 1.016 0 .888.649 1.34.648.454 1.65.454zm13.843 2.326q-1.607 0-2.876-.826-1.27-.826-2.007-2.397-.737-1.571-.737-3.817 0-2.273.75-3.84.75-1.567 2.03-2.37 1.277-.804 2.849-.804 1.198 0 1.97.404.773.404 1.226.968.453.563.701 1.06h.133v-6.8h3.223v18.182h-3.16v-2.148h-.196q-.248.497-.719 1.052-.47.554-1.243.945-.772.39-1.944.39zm.897-2.637q1.02 0 1.74-.555.719-.555 1.092-1.55.373-.993.373-2.316t-.369-2.3q-.368-.976-1.083-1.518-.715-.541-1.753-.541-1.075 0-1.794.56-.719.558-1.083 1.544-.364.985-.364 2.255 0 1.278.369 2.277.368.999 1.092 1.571.723.573 1.78.573zm12.192 2.397h-3.214v-13.636h3.072v2.317h.16q.425-1.172 1.41-1.834.986-.66 2.354-.66 1.384 0 2.339.67.954.67 1.345 1.824h.142q.453-1.137 1.531-1.816 1.079-.679 2.562-.679 1.882 0 3.071 1.19 1.19 1.19 1.19 3.47v9.154H67.18v-8.656q0-1.27-.674-1.86-.675-.59-1.652-.59-1.163 0-1.815.723-.653.724-.653 1.878v8.505h-3.151v-8.79q0-1.056-.635-1.686-.635-.63-1.656-.63-.692 0-1.26.35-.569.351-.906.986-.337.635-.337 1.478v8.292zm21.62 0h-3.214v-13.636h3.214v13.636zm-1.598-15.572q-.773 0-1.319-.51-.546-.51-.546-1.23 0-.728.55-1.238.551-.51 1.315-.51.763 0 1.31.51.545.51.545 1.238 0 .72-.546 1.23t-1.31.51zm14.855 5.54l-2.93.32q-.124-.444-.43-.835-.307-.39-.821-.63-.515-.24-1.261-.24-1.003 0-1.682.435-.68.435-.67 1.128-.01.594.439.967.448.373 1.487.613l2.326.497q1.935.417 2.88 1.323.946.905.955 2.37-.009 1.287-.75 2.268-.742.981-2.055 1.532-1.314.55-3.019.55-2.503 0-4.03-1.052-1.527-1.052-1.82-2.934l3.133-.302q.214.924.906 1.394.693.47 1.802.47 1.145 0 1.842-.47.697-.47.697-1.163 0-.586-.448-.968-.448-.381-1.39-.585l-2.325-.489q-1.962-.408-2.903-1.38-.942-.972-.933-2.464-.009-1.26.688-2.188.697-.928 1.945-1.438 1.247-.51 2.88-.51 2.398 0 3.778 1.02 1.38 1.021 1.709 2.761zm12.902 0l-2.93.32q-.124-.444-.43-.835-.306-.39-.821-.63-.515-.24-1.261-.24-1.003 0-1.682.435-.68.435-.67 1.128-.01.594.439.967.448.373 1.487.613l2.326.497q1.935.417 2.88 1.323.946.905.955 2.37-.009 1.287-.75 2.268-.741.981-2.055 1.532-1.314.55-3.019.55-2.503 0-4.03-1.052-1.527-1.052-1.82-2.934l3.134-.302q.213.924.905 1.394.693.47 1.802.47 1.146 0 1.843-.47.696-.47.696-1.163 0-.586-.448-.968-.448-.381-1.39-.585l-2.325-.489q-1.962-.408-2.903-1.38-.941-.972-.932-2.464-.01-1.26.688-2.188.696-.928 1.944-1.438 1.247-.51 2.88-.51 2.398 0 3.778 1.02 1.38 1.021 1.71 2.761zm5.338 10.032h-3.213v-13.636h3.213v13.636zm-1.598-15.572q-.772 0-1.318-.51t-.546-1.23q0-.728.55-1.238t1.314-.51q.764 0 1.31.51t.546 1.238q0 .72-.546 1.23t-1.31.51zm10.026 15.838q-1.997 0-3.462-.879-1.465-.878-2.269-2.459-.803-1.58-.803-3.693t.803-3.702q.804-1.59 2.269-2.468 1.465-.879 3.462-.879 1.998 0 3.462.879 1.465.879 2.269 2.468.803 1.59.803 3.702 0 2.113-.803 3.693-.804 1.58-2.269 2.46-1.464.878-3.462.878zm.018-2.574q1.083 0 1.81-.6.729-.599 1.088-1.61.36-1.013.36-2.256 0-1.252-.36-2.268-.36-1.017-1.087-1.62-.728-.604-1.811-.604-1.11 0-1.842.604-.733.603-1.092 1.62-.36 1.016-.36 2.268 0 1.243.36 2.255.36 1.012 1.092 1.612.732.599 1.842.599zm11.624-5.682v7.99h-3.214v-13.636h3.072v2.317h.16q.47-1.145 1.504-1.82t2.561-.675q1.412 0 2.464.604 1.052.603 1.634 1.749.581 1.145.572 2.778v8.683h-3.214v-8.185q0-1.368-.705-2.14-.706-.772-1.95-.772-.843 0-1.495.368-.653.369-1.021 1.061-.368.693-.368 1.678zm-95.002 39.256q-2.041 0-3.502-.896-1.46-.897-2.246-2.482-.786-1.584-.786-3.653 0-2.077.8-3.67.798-1.594 2.259-2.487 1.46-.892 3.458-.892 1.66 0 2.943.608 1.283.608 2.046 1.714.764 1.105.87 2.579h-3.072q-.186-.986-.883-1.647-.697-.662-1.86-.662-.985 0-1.731.529-.746.528-1.159 1.513-.412.986-.412 2.362 0 1.394.408 2.392.408 1 1.15 1.536.74.537 1.744.537.71 0 1.274-.27.564-.271.946-.786.381-.515.523-1.252h3.072q-.115 1.447-.852 2.561-.737 1.115-2.007 1.74-1.27.626-2.983.626zm13.613 0q-1.998 0-3.463-.879-1.464-.878-2.268-2.459-.803-1.58-.803-3.693t.803-3.702q.804-1.59 2.268-2.468 1.465-.879 3.463-.879 1.997 0 3.462.879t2.268 2.468q.804 1.59.804 3.702 0 2.113-.804 3.693-.803 1.58-2.268 2.46-1.465.878-3.462.878zm.018-2.574q1.083 0 1.81-.6.729-.599 1.088-1.61.36-1.013.36-2.256 0-1.252-.36-2.268-.36-1.017-1.087-1.62-.728-.604-1.811-.604-1.11 0-1.843.604-.732.603-1.092 1.62-.36 1.016-.36 2.268 0 1.243.36 2.255.36 1.012 1.092 1.612.733.599 1.843.599zm11.623-5.682v7.99h-3.213v-13.636h3.071v2.317h.16q.47-1.145 1.505-1.82 1.034-.675 2.561-.675 1.412 0 2.464.604 1.052.603 1.633 1.749.582 1.145.573 2.778v8.683H63.42v-8.185q0-1.368-.706-2.14t-1.948-.772q-.844 0-1.496.368-.653.369-1.021 1.061-.369.693-.369 1.678zm10.177-5.646h7.84v2.485h-7.84v-2.485zm1.935 10.067v-13.334h3.214v12.801q0 .649.2.99.2.342.528.466.329.125.728.125.302 0 .555-.045.253-.044.386-.08l.542 2.513q-.258.089-.733.195-.475.107-1.158.124-1.208.036-2.175-.368-.968-.404-1.532-1.256-.564-.852-.555-2.13zm10.985 3.569h-3.214v-13.636h3.116v2.272h.142q.373-1.18 1.283-1.824.91-.644 2.082-.644.266 0 .6.023.332.022.554.066v2.956q-.204-.07-.644-.128-.44-.058-.847-.058-.88 0-1.576.377-.697.378-1.097 1.043-.4.666-.4 1.536v8.017zm11.26.266q-1.998 0-3.463-.879-1.465-.878-2.268-2.459-.804-1.58-.804-3.693t.804-3.702q.803-1.59 2.268-2.468 1.465-.879 3.463-.879 1.997 0 3.462.879t2.268 2.468q.804 1.59.804 3.702 0 2.113-.804 3.693-.803 1.58-2.268 2.46-1.465.878-3.462.878zm.017-2.574q1.083 0 1.811-.6.728-.599 1.088-1.61.36-1.013.36-2.256 0-1.252-.36-2.268-.36-1.017-1.088-1.62-.728-.604-1.81-.604-1.11 0-1.843.604-.732.603-1.092 1.62-.36 1.016-.36 2.268 0 1.243.36 2.255.36 1.012 1.092 1.612.733.599 1.842.599zm8.41-15.874h3.214v18.182h-3.214v-18.182zm5.694 0h3.213v18.182h-3.213v-18.182zm11.73 18.448q-2.05 0-3.538-.856-1.487-.857-2.286-2.433-.799-1.576-.799-3.715 0-2.104.803-3.698.804-1.593 2.251-2.486 1.447-.892 3.4-.892 1.26 0 2.384.404 1.123.404 1.989 1.247.865.844 1.362 2.144.497 1.301.497 3.094v.986h-11.177v-2.166h8.097q-.009-.924-.4-1.647-.39-.724-1.087-1.141-.697-.417-1.62-.417-.986 0-1.732.475-.745.475-1.158 1.242-.413.768-.422 1.683v1.89q0 1.19.435 2.038.435.848 1.216 1.296.782.449 1.83.449.7 0 1.269-.2.568-.2.985-.59.418-.391.63-.968l3.001.337q-.284 1.19-1.078 2.073-.795.884-2.029 1.367-1.234.484-2.823.484zm11.17-.266h-3.213v-13.636h3.116v2.272h.142q.373-1.18 1.283-1.824.91-.644 2.082-.644.266 0 .6.023.332.022.554.066v2.956q-.204-.07-.644-.128-.439-.058-.847-.058-.88 0-1.576.377-.697.378-1.097 1.043-.4.666-.4 1.536v8.017z" fill="#FFF" fill-rule="nonzero"></path></g><g transform="translate(813.000000, 0.000000)"><rect fill="#53777A" y=".412" width="164.78" height="269.64" rx="4.12"></rect><path d="M23.516 78.378h3.613L31.86 92.69h.186l4.723-14.31h3.622l-6.41 18.181h-4.066l-6.4-18.182zM44.31 96.835q-1.296 0-2.33-.466-1.035-.466-1.634-1.38-.6-.915-.6-2.255 0-1.154.427-1.91.426-.754 1.163-1.206.737-.453 1.665-.689.927-.235 1.922-.341 1.198-.125 1.944-.227.746-.102 1.087-.32.342-.217.342-.678v-.054q0-1.003-.595-1.553-.594-.55-1.713-.55-1.18 0-1.869.514-.688.515-.927 1.216l-3.001-.426q.355-1.243 1.172-2.082.816-.839 1.997-1.26 1.18-.422 2.61-.422.986 0 1.962.23.977.232 1.785.76.808.528 1.3 1.434.493.905.493 2.264v9.126h-3.09v-1.873h-.106q-.293.568-.821 1.06-.528.493-1.323.79-.795.298-1.86.298zm.835-2.361q.967 0 1.678-.386.71-.387 1.096-1.026.386-.64.386-1.394v-1.607q-.15.125-.51.231-.36.107-.804.187-.444.08-.879.142l-.754.106q-.72.098-1.288.32-.568.222-.896.617-.329.395-.329 1.016 0 .888.648 1.34.648.454 1.652.454zm8.782-16.096h3.214V96.56h-3.214V78.378zm8.908 18.182H59.62V82.924h3.214V96.56zm-1.598-15.572q-.773 0-1.319-.51-.546-.51-.546-1.23 0-.728.55-1.238.551-.51 1.315-.51.763 0 1.309.51.546.51.546 1.238 0 .72-.546 1.23t-1.31.51zM70.374 96.8q-1.606 0-2.876-.826-1.27-.826-2.006-2.397-.737-1.571-.737-3.817 0-2.273.75-3.84.75-1.567 2.029-2.37 1.278-.804 2.85-.804 1.198 0 1.97.404.773.404 1.225.968.453.563.702 1.06h.133v-6.8h3.223V96.56h-3.16v-2.148h-.196q-.249.497-.72 1.052-.47.554-1.242.945-.773.39-1.945.39zm.897-2.637q1.021 0 1.74-.555.72-.555 1.092-1.55.373-.993.373-2.316t-.368-2.3q-.369-.976-1.083-1.518-.715-.541-1.754-.541-1.074 0-1.793.56-.72.558-1.083 1.544-.364.985-.364 2.255 0 1.278.368 2.277.369.999 1.092 1.571.724.573 1.78.573zm12.902 2.672q-1.296 0-2.33-.466t-1.634-1.38q-.599-.915-.599-2.255 0-1.154.426-1.91.426-.754 1.163-1.206.737-.453 1.665-.689.928-.235 1.922-.341 1.198-.125 1.944-.227.746-.102 1.088-.32.341-.217.341-.678v-.054q0-1.003-.594-1.553-.595-.55-1.714-.55-1.18 0-1.869.514-.688.515-.927 1.216l-3.001-.426q.355-1.243 1.172-2.082.817-.839 1.997-1.26 1.181-.422 2.61-.422.986 0 1.962.23.977.232 1.785.76.808.528 1.3 1.434.493.905.493 2.264v9.126h-3.09v-1.873h-.106q-.293.568-.821 1.06-.528.493-1.323.79-.794.298-1.86.298zm.835-2.361q.968 0 1.678-.386.71-.387 1.096-1.026.386-.64.386-1.394v-1.607q-.15.125-.51.231-.36.107-.804.187-.443.08-.879.142l-.754.106q-.72.098-1.287.32-.569.222-.897.617-.329.395-.329 1.016 0 .888.649 1.34.648.454 1.65.454zm7.753-11.55h7.839v2.485h-7.84v-2.485zm1.935 10.067V79.657h3.214v12.801q0 .649.2.99.2.342.528.466.328.125.728.125.302 0 .555-.045.253-.044.386-.08l.542 2.513q-.258.089-.733.195-.475.107-1.158.124-1.208.036-2.176-.368-.967-.404-1.531-1.256t-.555-2.13zm10.985 3.569h-3.214V82.924h3.214V96.56zm-1.598-15.572q-.773 0-1.319-.51-.546-.51-.546-1.23 0-.728.55-1.238.551-.51 1.315-.51.763 0 1.31.51.545.51.545 1.238 0 .72-.546 1.23t-1.31.51zm10.025 15.838q-1.997 0-3.462-.879-1.465-.878-2.268-2.459-.804-1.58-.804-3.693t.804-3.702q.803-1.59 2.268-2.468 1.465-.879 3.462-.879 1.998 0 3.463.879t2.268 2.468q.804 1.59.804 3.702 0 2.113-.804 3.693-.803 1.58-2.268 2.46-1.465.878-3.463.878zm.018-2.574q1.083 0 1.811-.6.728-.599 1.088-1.61.36-1.013.36-2.256 0-1.252-.36-2.268-.36-1.017-1.088-1.62-.728-.604-1.81-.604-1.11 0-1.843.604-.732.603-1.092 1.62-.36 1.016-.36 2.268 0 1.243.36 2.255.36 1.012 1.092 1.612.732.599 1.842.599zm11.624-5.682v7.99h-3.214V82.924h3.072v2.317h.16q.47-1.145 1.504-1.82 1.035-.675 2.562-.675 1.411 0 2.463.604 1.052.603 1.634 1.749.581 1.145.572 2.778v8.683h-3.213v-8.185q0-1.368-.706-2.14t-1.949-.772q-.843 0-1.496.368-.652.369-1.02 1.061-.37.693-.37 1.678zm-99.076 39.265q-1.296 0-2.33-.466t-1.634-1.38q-.599-.915-.599-2.255 0-1.154.426-1.91.426-.754 1.163-1.206.737-.453 1.665-.689.928-.235 1.922-.341 1.198-.125 1.944-.227.746-.102 1.088-.32.341-.217.341-.678v-.054q0-1.003-.594-1.553-.595-.55-1.714-.55-1.18 0-1.869.514-.688.515-.927 1.216l-3.001-.426q.355-1.243 1.172-2.082.817-.839 1.997-1.26 1.181-.422 2.61-.422.986 0 1.962.23.977.232 1.785.76.808.528 1.3 1.434.493.905.493 2.264v9.126h-3.09v-1.873h-.106q-.293.568-.821 1.06-.528.493-1.323.79-.794.298-1.86.298zm.835-2.361q.967 0 1.678-.386.71-.387 1.096-1.026.386-.64.386-1.394v-1.607q-.15.125-.51.231-.36.107-.804.187-.444.08-.879.142l-.754.106q-.72.098-1.287.32-.569.222-.897.617-.329.395-.329 1.016 0 .888.649 1.34.648.454 1.65.454zm13.843 2.326q-1.607 0-2.876-.826-1.27-.826-2.007-2.397-.737-1.571-.737-3.817 0-2.273.75-3.84.75-1.567 2.03-2.37 1.277-.804 2.849-.804 1.198 0 1.97.404.773.404 1.226.968.453.563.701 1.06h.133v-6.8h3.223v18.182h-3.16v-2.148h-.196q-.248.497-.719 1.052-.47.554-1.243.945-.772.39-1.944.39zm.897-2.637q1.02 0 1.74-.555.719-.555 1.092-1.55.373-.993.373-2.316t-.369-2.3q-.368-.976-1.083-1.518-.715-.541-1.753-.541-1.075 0-1.794.56-.719.558-1.083 1.544-.364.985-.364 2.255 0 1.278.369 2.277.368.999 1.092 1.571.723.573 1.78.573zm12.192 2.397h-3.214v-13.636h3.072v2.317h.16q.425-1.172 1.41-1.834.986-.66 2.354-.66 1.384 0 2.339.67.954.67 1.345 1.824h.142q.453-1.137 1.531-1.816 1.079-.679 2.562-.679 1.882 0 3.071 1.19 1.19 1.19 1.19 3.47v9.154H67.18v-8.656q0-1.27-.674-1.86-.675-.59-1.652-.59-1.163 0-1.815.723-.653.724-.653 1.878v8.505h-3.151v-8.79q0-1.056-.635-1.686-.635-.63-1.656-.63-.692 0-1.26.35-.569.351-.906.986-.337.635-.337 1.478v8.292zm21.62 0h-3.214v-13.636h3.214v13.636zm-1.598-15.572q-.773 0-1.319-.51-.546-.51-.546-1.23 0-.728.55-1.238.551-.51 1.315-.51.763 0 1.31.51.545.51.545 1.238 0 .72-.546 1.23t-1.31.51zm14.855 5.54l-2.93.32q-.124-.444-.43-.835-.307-.39-.821-.63-.515-.24-1.261-.24-1.003 0-1.682.435-.68.435-.67 1.128-.01.594.439.967.448.373 1.487.613l2.326.497q1.935.417 2.88 1.323.946.905.955 2.37-.009 1.287-.75 2.268-.742.981-2.055 1.532-1.314.55-3.019.55-2.503 0-4.03-1.052-1.527-1.052-1.82-2.934l3.133-.302q.214.924.906 1.394.693.47 1.802.47 1.145 0 1.842-.47.697-.47.697-1.163 0-.586-.448-.968-.448-.381-1.39-.585l-2.325-.489q-1.962-.408-2.903-1.38-.942-.972-.933-2.464-.009-1.26.688-2.188.697-.928 1.945-1.438 1.247-.51 2.88-.51 2.398 0 3.778 1.02 1.38 1.021 1.709 2.761zm12.902 0l-2.93.32q-.124-.444-.43-.835-.306-.39-.821-.63-.515-.24-1.261-.24-1.003 0-1.682.435-.68.435-.67 1.128-.01.594.439.967.448.373 1.487.613l2.326.497q1.935.417 2.88 1.323.946.905.955 2.37-.009 1.287-.75 2.268-.741.981-2.055 1.532-1.314.55-3.019.55-2.503 0-4.03-1.052-1.527-1.052-1.82-2.934l3.134-.302q.213.924.905 1.394.693.47 1.802.47 1.146 0 1.843-.47.696-.47.696-1.163 0-.586-.448-.968-.448-.381-1.39-.585l-2.325-.489q-1.962-.408-2.903-1.38-.941-.972-.932-2.464-.01-1.26.688-2.188.696-.928 1.944-1.438 1.247-.51 2.88-.51 2.398 0 3.778 1.02 1.38 1.021 1.71 2.761zm5.338 10.032h-3.213v-13.636h3.213v13.636zm-1.598-15.572q-.772 0-1.318-.51t-.546-1.23q0-.728.55-1.238t1.314-.51q.764 0 1.31.51t.546 1.238q0 .72-.546 1.23t-1.31.51zm10.026 15.838q-1.997 0-3.462-.879-1.465-.878-2.269-2.459-.803-1.58-.803-3.693t.803-3.702q.804-1.59 2.269-2.468 1.465-.879 3.462-.879 1.998 0 3.462.879 1.465.879 2.269 2.468.803 1.59.803 3.702 0 2.113-.803 3.693-.804 1.58-2.269 2.46-1.464.878-3.462.878zm.018-2.574q1.083 0 1.81-.6.729-.599 1.088-1.61.36-1.013.36-2.256 0-1.252-.36-2.268-.36-1.017-1.087-1.62-.728-.604-1.811-.604-1.11 0-1.842.604-.733.603-1.092 1.62-.36 1.016-.36 2.268 0 1.243.36 2.255.36 1.012 1.092 1.612.732.599 1.842.599zm11.624-5.682v7.99h-3.214v-13.636h3.072v2.317h.16q.47-1.145 1.504-1.82t2.561-.675q1.412 0 2.464.604 1.052.603 1.634 1.749.581 1.145.572 2.778v8.683h-3.214v-8.185q0-1.368-.705-2.14-.706-.772-1.95-.772-.843 0-1.495.368-.653.369-1.021 1.061-.368.693-.368 1.678zm-95.002 39.256q-2.041 0-3.502-.896-1.46-.897-2.246-2.482-.786-1.584-.786-3.653 0-2.077.8-3.67.798-1.594 2.259-2.487 1.46-.892 3.458-.892 1.66 0 2.943.608 1.283.608 2.046 1.714.764 1.105.87 2.579h-3.072q-.186-.986-.883-1.647-.697-.662-1.86-.662-.985 0-1.731.529-.746.528-1.159 1.513-.412.986-.412 2.362 0 1.394.408 2.392.408 1 1.15 1.536.74.537 1.744.537.71 0 1.274-.27.564-.271.946-.786.381-.515.523-1.252h3.072q-.115 1.447-.852 2.561-.737 1.115-2.007 1.74-1.27.626-2.983.626zm13.613 0q-1.998 0-3.463-.879-1.464-.878-2.268-2.459-.803-1.58-.803-3.693t.803-3.702q.804-1.59 2.268-2.468 1.465-.879 3.463-.879 1.997 0 3.462.879t2.268 2.468q.804 1.59.804 3.702 0 2.113-.804 3.693-.803 1.58-2.268 2.46-1.465.878-3.462.878zm.018-2.574q1.083 0 1.81-.6.729-.599 1.088-1.61.36-1.013.36-2.256 0-1.252-.36-2.268-.36-1.017-1.087-1.62-.728-.604-1.811-.604-1.11 0-1.843.604-.732.603-1.092 1.62-.36 1.016-.36 2.268 0 1.243.36 2.255.36 1.012 1.092 1.612.733.599 1.843.599zm11.623-5.682v7.99h-3.213v-13.636h3.071v2.317h.16q.47-1.145 1.505-1.82 1.034-.675 2.561-.675 1.412 0 2.464.604 1.052.603 1.633 1.749.582 1.145.573 2.778v8.683H63.42v-8.185q0-1.368-.706-2.14t-1.948-.772q-.844 0-1.496.368-.653.369-1.021 1.061-.369.693-.369 1.678zm10.177-5.646h7.84v2.485h-7.84v-2.485zm1.935 10.067v-13.334h3.214v12.801q0 .649.2.99.2.342.528.466.329.125.728.125.302 0 .555-.045.253-.044.386-.08l.542 2.513q-.258.089-.733.195-.475.107-1.158.124-1.208.036-2.175-.368-.968-.404-1.532-1.256-.564-.852-.555-2.13zm10.985 3.569h-3.214v-13.636h3.116v2.272h.142q.373-1.18 1.283-1.824.91-.644 2.082-.644.266 0 .6.023.332.022.554.066v2.956q-.204-.07-.644-.128-.44-.058-.847-.058-.88 0-1.576.377-.697.378-1.097 1.043-.4.666-.4 1.536v8.017zm11.26.266q-1.998 0-3.463-.879-1.465-.878-2.268-2.459-.804-1.58-.804-3.693t.804-3.702q.803-1.59 2.268-2.468 1.465-.879 3.463-.879 1.997 0 3.462.879t2.268 2.468q.804 1.59.804 3.702 0 2.113-.804 3.693-.803 1.58-2.268 2.46-1.465.878-3.462.878zm.017-2.574q1.083 0 1.811-.6.728-.599 1.088-1.61.36-1.013.36-2.256 0-1.252-.36-2.268-.36-1.017-1.088-1.62-.728-.604-1.81-.604-1.11 0-1.843.604-.732.603-1.092 1.62-.36 1.016-.36 2.268 0 1.243.36 2.255.36 1.012 1.092 1.612.733.599 1.842.599zm8.41-15.874h3.214v18.182h-3.214v-18.182zm5.694 0h3.213v18.182h-3.213v-18.182zm11.73 18.448q-2.05 0-3.538-.856-1.487-.857-2.286-2.433-.799-1.576-.799-3.715 0-2.104.803-3.698.804-1.593 2.251-2.486 1.447-.892 3.4-.892 1.26 0 2.384.404 1.123.404 1.989 1.247.865.844 1.362 2.144.497 1.301.497 3.094v.986h-11.177v-2.166h8.097q-.009-.924-.4-1.647-.39-.724-1.087-1.141-.697-.417-1.62-.417-.986 0-1.732.475-.745.475-1.158 1.242-.413.768-.422 1.683v1.89q0 1.19.435 2.038.435.848 1.216 1.296.782.449 1.83.449.7 0 1.269-.2.568-.2.985-.59.418-.391.63-.968l3.001.337q-.284 1.19-1.078 2.073-.795.884-2.029 1.367-1.234.484-2.823.484zm11.17-.266h-3.213v-13.636h3.116v2.272h.142q.373-1.18 1.283-1.824.91-.644 2.082-.644.266 0 .6.023.332.022.554.066v2.956q-.204-.07-.644-.128-.439-.058-.847-.058-.88 0-1.576.377-.697.378-1.097 1.043-.4.666-.4 1.536v8.017z" fill="#FFF" fill-rule="nonzero"></path></g><g transform="translate(177.320405, 110.531004) translate(14.418250, 26.364801) rotate(-90.000000) translate(-14.418250, -26.364801)" fill="#B8E986"><path d="M14.418 59.848L0 34.142h28.837z"></path><path d="M10.464 0h7.909v52.73h-7.909z"></path></g><g transform="translate(403.069013, 110.531004) translate(14.418250, 26.364801) rotate(-90.000000) translate(-14.418250, -26.364801)" fill="#B8E986"><path d="M14.418 59.848L0 34.142h28.837z"></path><path d="M10.464 0h7.909v52.73h-7.909z"></path></g><g transform="translate(628.817620, 110.531004) translate(14.418250, 26.364801) rotate(-90.000000) translate(-14.418250, -26.364801)" fill="#B8E986"><path d="M14.418 59.848L0 34.142h28.837z"></path><path d="M10.464 0h7.909v52.73h-7.909z"></path></g><g transform="translate(765.050038, 110.531004) translate(14.418250, 26.364801) rotate(-90.000000) translate(-14.418250, -26.364801)" fill="#B8E986"><path d="M14.418 59.848L0 34.142h28.837z"></path><path d="M10.464 0h7.909v52.73h-7.909z"></path></g><g transform="translate(226.000000, 0.000000)" fill="#53777A"><rect y=".658" width="75.799" height="269.64" rx="4.12"></rect><rect x="88.981" y=".658" width="75.799" height="269.64" rx="4.12"></rect></g><rect x=".16" width="75.799" height="269.64" rx="4.12" transform="translate(677.000000, 0.000000)" fill="#53777A"></rect></g><path d="M154.735 433.547L149.888 448h-3.515l6.4-18.182h4.067L163.25 448h-3.516l-4.856-14.453h-.143zm-4.731 9.97v-2.646h9.588v2.646h-9.588zM168.117 448h-3.294v-18.182h6.819q2.095 0 3.52.781 1.425.782 2.157 2.144.732 1.363.732 3.094 0 1.75-.737 3.108-.736 1.358-2.175 2.135-1.438.777-3.542.777h-4.519v-2.708h4.075q1.225 0 2.007-.426.78-.426 1.158-1.172.378-.746.378-1.714 0-.967-.378-1.704-.377-.737-1.163-1.15-.785-.413-2.02-.413h-3.018V448zm11.97-18.182h3.294V448h-3.294v-18.182zM194.812 448h-3.294v-18.182h3.294v7.697h8.425v-7.697h3.302V448h-3.302v-7.724h-8.425V448zm19.303-15.42h-5.62v-2.762h14.507v2.761h-5.62V448h-3.267v-15.42zm15.672 0h-5.62v-2.762h14.507v2.761h-5.62V448h-3.267v-15.42zM243.932 448h-3.294v-18.182h6.818q2.096 0 3.52.781 1.425.782 2.158 2.144.732 1.363.732 3.094 0 1.75-.737 3.108t-2.175 2.135q-1.438.777-3.542.777h-4.519v-2.708h4.075q1.225 0 2.006-.426.782-.426 1.16-1.172.376-.746.376-1.714 0-.967-.377-1.704t-1.163-1.15q-.786-.413-2.02-.413h-3.018V448zm-82.114 23.01V479h-3.214v-18.182h3.143v6.863h.16q.48-1.154 1.487-1.825 1.008-.67 2.57-.67 1.42 0 2.477.595 1.056.595 1.638 1.74.581 1.145.581 2.796V479h-3.213v-8.185q0-1.376-.706-2.144-.706-.768-1.976-.768-.852 0-1.522.368-.67.369-1.048 1.061-.377.693-.377 1.678zm15.21 8.265q-1.296 0-2.33-.466t-1.634-1.38q-.599-.915-.599-2.255 0-1.154.426-1.91.427-.754 1.163-1.206.737-.453 1.665-.689.928-.235 1.922-.341 1.199-.125 1.944-.227.746-.102 1.088-.32.342-.217.342-.678v-.054q0-1.003-.595-1.553t-1.714-.55q-1.18 0-1.868.514-.688.515-.928 1.216l-3-.426q.354-1.243 1.171-2.082.817-.839 1.998-1.26 1.18-.422 2.61-.422.985 0 1.962.23.976.232 1.784.76t1.3 1.434q.493.905.493 2.264V479h-3.09v-1.873h-.106q-.293.568-.82 1.06-.53.493-1.324.79-.794.298-1.86.298zm.835-2.361q.968 0 1.678-.386.71-.387 1.096-1.026.386-.64.386-1.394v-1.607q-.15.125-.51.231-.36.107-.803.187-.444.08-.88.142l-.754.106q-.72.098-1.287.32-.568.222-.897.617-.328.395-.328 1.016 0 .888.648 1.34.648.454 1.651.454zm11.997-5.904V479h-3.214v-13.636h3.072v2.317h.16q.47-1.145 1.504-1.82t2.561-.675q1.412 0 2.464.604 1.052.603 1.633 1.749.582 1.145.573 2.778V479H195.4v-8.185q0-1.368-.705-2.14-.706-.772-1.95-.772-.843 0-1.495.368-.653.369-1.021 1.061-.368.693-.368 1.678zm16.266 8.23q-1.606 0-2.876-.826-1.27-.826-2.006-2.397-.737-1.571-.737-3.817 0-2.273.75-3.84.75-1.567 2.028-2.37 1.279-.804 2.85-.804 1.199 0 1.971.404.773.404 1.225.968.453.563.702 1.06h.133v-6.8h3.222V479h-3.16v-2.148h-.195q-.249.497-.72 1.052-.47.554-1.242.945-.773.39-1.945.39zm.897-2.637q1.021 0 1.74-.555.72-.555 1.092-1.55.373-.993.373-2.316t-.368-2.3q-.369-.976-1.084-1.518-.714-.541-1.753-.541-1.074 0-1.793.56-.72.558-1.083 1.544-.364.985-.364 2.255 0 1.278.368 2.277.369.999 1.092 1.571.724.573 1.78.573zm8.978-15.785h3.214V479h-3.214v-18.182zm11.73 18.448q-2.05 0-3.537-.856-1.487-.857-2.286-2.433-.8-1.576-.8-3.715 0-2.104.804-3.698.803-1.593 2.25-2.486 1.448-.892 3.4-.892 1.261 0 2.384.404 1.124.404 1.99 1.247.865.844 1.362 2.144.497 1.301.497 3.094v.986h-11.177v-2.166h8.096q-.008-.924-.4-1.647-.39-.724-1.087-1.141-.697-.417-1.62-.417-.985 0-1.731.475-.746.475-1.159 1.242-.412.768-.421 1.683v1.89q0 1.19.435 2.038.435.848 1.216 1.296.781.449 1.829.449.701 0 1.27-.2.568-.2.985-.59.417-.391.63-.968l3 .337q-.283 1.19-1.078 2.073-.794.884-2.028 1.367-1.234.484-2.824.484zm11.171-.266h-3.213v-13.636h3.116v2.272h.142q.373-1.18 1.283-1.824.91-.644 2.082-.644.266 0 .599.023.333.022.555.066v2.956q-.205-.07-.644-.128-.44-.058-.848-.058-.879 0-1.576.377-.697.378-1.096 1.043-.4.666-.4 1.536V479zm141.395 58.53l14.453 4.847v3.516l-18.182-6.401v-4.066l18.182-6.41v3.515l-14.453 4.857v.142zm9.97 4.732h-2.646v-9.588h2.646v9.588zm-1.252-23.372h-7.901v-3.213h13.636v3.116h-2.423v.142q1.145.462 1.873 1.514t.728 2.587q0 1.341-.6 2.366-.599 1.026-1.748 1.603-1.15.577-2.784.577h-8.682v-3.214h8.185q1.296 0 2.06-.71.763-.71.763-1.864 0-.71-.346-1.377-.346-.665-1.034-1.096-.688-.43-1.727-.43zm-7.901-4.665v-7.84h2.486v7.84h-2.486zm10.067-1.935h-13.334v-3.214h12.802q.648 0 .99-.2.341-.2.466-.528.124-.329.124-.728 0-.302-.044-.555-.045-.253-.08-.386l2.512-.542q.089.258.195.733.107.475.125 1.158.035 1.208-.369 2.175-.404.968-1.256 1.532-.852.563-2.13.555zm-4.42-11.271h7.99v3.214h-18.183v-3.143h6.863v-.16q-1.154-.48-1.824-1.487-.67-1.007-.67-2.57 0-1.42.594-2.477.595-1.056 1.74-1.638 1.145-.581 2.797-.581h8.682v3.213h-8.185q-1.376 0-2.144.706-.768.706-.768 1.976 0 .852.368 1.522.369.67 1.061 1.048.693.377 1.678.377zm8.256-17.325q0 2.05-.857 3.537-.857 1.488-2.433 2.287-1.575.799-3.715.799-2.104 0-3.698-.804-1.593-.803-2.485-2.25-.893-1.448-.893-3.4 0-1.261.404-2.384t1.248-1.989q.843-.866 2.144-1.363 1.3-.497 3.094-.497h.985v11.177h-2.166v-8.096q-.923.009-1.647.4-.724.39-1.14 1.087-.418.697-.418 1.62 0 .985.475 1.731.475.746 1.243 1.159.768.413 1.682.421h1.891q1.19 0 2.038-.435.847-.435 1.296-1.216.448-.781.448-1.829 0-.701-.2-1.27-.2-.567-.59-.985-.39-.417-.968-.63l.338-3q1.19.283 2.073 1.078.883.794 1.367 2.029.484 1.234.484 2.823zm-8.257-11.173h7.99v3.213h-13.636v-3.071h2.317v-.16q-1.145-.47-1.82-1.505-.675-1.034-.675-2.561 0-1.412.604-2.464t1.749-1.633q1.145-.582 2.779-.573h8.682v3.214h-8.185q-1.367 0-2.14.706-.772.706-.772 1.948 0 .844.368 1.496.369.653 1.061 1.021.693.369 1.678.369zm-5.646-10.179v-7.84h2.486v7.84h-2.486zm10.067-1.935h-13.334v-3.214h12.802q.648 0 .99-.2.341-.2.466-.528.124-.329.124-.728 0-.302-.044-.555-.045-.253-.08-.386l2.512-.542q.089.258.195.733.107.475.125 1.158.035 1.208-.369 2.175-.404.968-1.256 1.532-.852.564-2.13.555zm3.57-10.987v3.214h-13.637v-3.214h13.636zm-15.572 1.598q0 .773-.51 1.319-.511.546-1.23.546-.728 0-1.239-.55-.51-.551-.51-1.315 0-.763.51-1.31.51-.545 1.239-.545.719 0 1.23.546.51.546.51 1.31zm15.838-10.028q0 2.042-.897 3.503-.897 1.46-2.481 2.246-1.585.786-3.654.786-2.077 0-3.67-.8-1.594-.798-2.486-2.259-.893-1.46-.893-3.458 0-1.66.609-2.943.608-1.283 1.713-2.046 1.105-.764 2.579-.87v3.072q-.986.186-1.647.883-.661.697-.661 1.86 0 .985.528 1.731.528.746 1.514 1.159.985.412 2.361.412 1.394 0 2.393-.408.998-.408 1.536-1.15.537-.741.537-1.744 0-.71-.271-1.274-.27-.564-.786-.946-.515-.381-1.252-.523v-3.072q1.448.115 2.562.852 1.114.737 1.74 2.006.626 1.27.626 2.983zm.009-11.59q0 1.296-.467 2.33-.466 1.035-1.38 1.634-.915.6-2.255.6-1.154 0-1.909-.427-.754-.426-1.207-1.163-.453-.737-.688-1.664-.235-.928-.342-1.922-.124-1.199-.226-1.945-.102-.745-.32-1.087-.218-.342-.68-.342h-.052q-1.004 0-1.554.595t-.55 1.713q0 1.181.514 1.87.515.687 1.217.927l-.426 3q-1.243-.355-2.082-1.171-.84-.817-1.26-1.998-.423-1.18-.423-2.61 0-.985.231-1.962.231-.976.76-1.784.527-.808 1.433-1.301.906-.493 2.264-.493h9.126v3.09h-1.873v.106q.568.293 1.061.822.493.528.79 1.322.298.795.298 1.86zm-2.362-.834q0-.968-.386-1.678t-1.026-1.097q-.639-.386-1.393-.386h-1.607q.124.151.23.51.107.36.187.804.08.444.142.879l.107.755q.097.719.32 1.287.221.568.616.897.395.328 1.017.328.887 0 1.34-.648.453-.648.453-1.651zm-11.55-7.755v-7.84h2.486v7.84h-2.486zm10.067-1.936h-13.334v-3.213h12.802q.648 0 .99-.2.341-.2.466-.528.124-.329.124-.728 0-.302-.044-.555-.045-.253-.08-.386l2.512-.542q.089.257.195.732.107.475.125 1.159.035 1.207-.369 2.175-.404.968-1.256 1.531-.852.564-2.13.555zm3.57-10.986v3.214h-13.637v-3.214h13.636zm-15.572 1.598q0 .772-.51 1.318-.511.546-1.23.546-.728 0-1.239-.55-.51-.55-.51-1.314t.51-1.31q.51-.546 1.239-.546.719 0 1.23.546.51.546.51 1.31zm15.838-10.028q0 1.998-.88 3.462-.878 1.465-2.458 2.269-1.58.803-3.694.803-2.113 0-3.702-.803-1.589-.804-2.468-2.269-.879-1.464-.879-3.462 0-1.997.88-3.462.878-1.465 2.467-2.269 1.59-.803 3.702-.803 2.113 0 3.694.803 1.58.804 2.459 2.269t.879 3.462zm-2.575-.018q0-1.083-.6-1.81-.598-.729-1.61-1.088-1.013-.36-2.256-.36-1.251 0-2.268.36-1.016.36-1.62 1.087-.604.728-.604 1.811 0 1.11.604 1.843.604.732 1.62 1.091 1.017.36 2.268.36 1.243 0 2.255-.36 1.013-.36 1.612-1.091.6-.733.6-1.843zm-5.682-11.625h7.99v3.213h-13.636v-3.071h2.317v-.16q-1.145-.47-1.82-1.505-.675-1.034-.675-2.561 0-1.412.604-2.464t1.749-1.633q1.145-.582 2.779-.573h8.682v3.214h-8.185q-1.367 0-2.14.706-.772.705-.772 1.948 0 .844.368 1.496.369.653 1.061 1.021.693.369 1.678.369zm66.347 142.249l14.453 4.847v3.515l-18.182-6.4v-4.067l18.182-6.41v3.516l-14.453 4.856v.143zm9.97 4.731h-2.646v-9.588h2.646v9.588zm-1.252-23.37h-7.9v-3.215h13.635v3.117h-2.424v.142q1.146.461 1.874 1.513.728 1.052.728 2.588 0 1.34-.6 2.366-.599 1.026-1.749 1.603-1.15.577-2.783.577h-8.682v-3.214h8.185q1.296 0 2.06-.71.763-.71.763-1.865 0-.71-.346-1.376-.346-.666-1.034-1.096-.688-.43-1.727-.43zm-7.9-4.666v-7.84h2.484v7.84h-2.485zm10.066-1.936h-13.334v-3.213h12.801q.65 0 .99-.2.342-.2.466-.528.125-.329.125-.728 0-.302-.045-.555-.044-.253-.08-.386l2.513-.542q.09.258.195.732.107.475.124 1.16.036 1.206-.368 2.174-.404.968-1.256 1.532-.852.563-2.13.554zm-4.42-11.27h7.99v3.214h-18.183v-3.143h6.863v-.16q-1.154-.48-1.825-1.487-.67-1.008-.67-2.57 0-1.42.595-2.477t1.74-1.638q1.145-.582 2.796-.582h8.683v3.214h-8.185q-1.376 0-2.144.706-.768.706-.768 1.975 0 .853.368 1.523.37.67 1.061 1.047.693.378 1.678.378zm8.255-17.237q0 1.998-.879 3.463-.878 1.464-2.459 2.268-1.58.803-3.693.803t-3.702-.803q-1.59-.804-2.468-2.268-.879-1.465-.879-3.463 0-1.997.88-3.462t2.467-2.268q1.59-.804 3.702-.804 2.113 0 3.693.804 1.58.803 2.46 2.268.878 1.465.878 3.462zm-2.574-.018q0-1.083-.6-1.81-.599-.729-1.61-1.088-1.013-.36-2.256-.36-1.252 0-2.268.36-1.017.36-1.62 1.087-.604.728-.604 1.811 0 1.11.604 1.843.603.732 1.62 1.092 1.016.36 2.268.36 1.243 0 2.255-.36 1.012-.36 1.612-1.092.6-.733.6-1.843zm2.308-11.625v3.214h-13.636v-3.117h2.272v-.142q-1.18-.372-1.824-1.282-.644-.91-.644-2.082 0-.267.023-.6.022-.333.066-.554h2.956q-.07.204-.128.643-.058.44-.058.848 0 .88.377 1.576.378.697 1.043 1.096.666.4 1.536.4h8.017zm0-9.096v3.214h-13.636v-3.214h13.636zm-15.572 1.598q0 .773-.51 1.32-.51.545-1.23.545-.728 0-1.238-.55t-.51-1.315q0-.763.51-1.31.51-.545 1.238-.545.72 0 1.23.546t.51 1.31zm5.54-14.857l.32 2.93q-.444.124-.835.43-.39.307-.63.821-.24.515-.24 1.261 0 1.003.435 1.682.435.68 1.128.67.594.01.967-.439.373-.448.613-1.487l.497-2.326q.417-1.935 1.323-2.88.905-.946 2.37-.955 1.287.01 2.268.75.981.741 1.532 2.055.55 1.314.55 3.02 0 2.502-1.052 4.03-1.052 1.526-2.934 1.82l-.302-3.135q.924-.213 1.394-.905.47-.693.47-1.802 0-1.146-.47-1.842-.47-.697-1.163-.697-.586 0-.968.448-.38.448-.585 1.39l-.489 2.325q-.408 1.962-1.38 2.903-.972.941-2.464.933-1.26.008-2.188-.688-.928-.697-1.438-1.945-.51-1.247-.51-2.88 0-2.398 1.02-3.778 1.021-1.38 2.761-1.709zm10.307-6.05q0 1.296-.466 2.33t-1.38 1.633q-.915.6-2.255.6-1.154 0-1.91-.426-.754-.427-1.206-1.163-.453-.737-.689-1.665-.235-.928-.34-1.922-.126-1.199-.228-1.944-.102-.746-.32-1.088-.217-.342-.678-.342h-.054q-1.003 0-1.553.595t-.55 1.714q0 1.18.514 1.868.515.688 1.216.928l-.426 3q-1.243-.354-2.082-1.17-.839-.818-1.26-1.999-.422-1.18-.422-2.61 0-.985.23-1.962.232-.976.76-1.784t1.434-1.3q.905-.493 2.264-.493h9.126v3.09h-1.873v.106q.568.293 1.06.82.493.53.79 1.324.298.794.298 1.86zm-2.36-.835q0-.968-.387-1.678t-1.026-1.096q-.64-.387-1.394-.387h-1.607q.125.151.231.511.107.36.187.803.08.444.142.88l.106.754q.098.72.32 1.287t.617.897q.395.328 1.016.328.888 0 1.34-.648.454-.648.454-1.65zm-11.55-7.755v-7.84h2.484v7.84h-2.485zm10.066-1.935h-13.334v-3.214h12.801q.65 0 .99-.2.342-.2.466-.528.125-.329.125-.728 0-.302-.045-.555-.044-.253-.08-.386l2.513-.542q.09.258.195.733.107.475.124 1.158.036 1.208-.368 2.175-.404.968-1.256 1.532-.852.564-2.13.555zm3.57-10.987v3.214h-13.637v-3.214h13.636zm-15.573 1.598q0 .772-.51 1.318t-1.23.546q-.728 0-1.238-.55t-.51-1.314q0-.763.51-1.31.51-.545 1.238-.545.72 0 1.23.546t.51 1.31zm15.838-10.028q0 1.998-.879 3.463-.878 1.465-2.459 2.268-1.58.803-3.693.803t-3.702-.803q-1.59-.803-2.468-2.268-.879-1.465-.879-3.463 0-1.997.88-3.462t2.467-2.268q1.59-.804 3.702-.804 2.113 0 3.693.804 1.58.803 2.46 2.268.878 1.465.878 3.462zm-2.574-.017q0-1.083-.6-1.81-.599-.729-1.61-1.089-1.013-.36-2.256-.36-1.252 0-2.268.36-1.017.36-1.62 1.088-.604.728-.604 1.81 0 1.11.604 1.843.603.732 1.62 1.092 1.016.36 2.268.36 1.243 0 2.255-.36 1.012-.36 1.612-1.092.6-.733.6-1.842zm-5.682-11.626h7.99v3.214h-13.636v-3.072h2.317v-.16q-1.145-.47-1.82-1.505-.675-1.034-.675-2.56 0-1.412.604-2.465.603-1.052 1.75-1.633 1.144-.582 2.777-.573h8.683v3.214h-8.185q-1.368 0-2.14.706t-.772 1.95q0 .842.368 1.495.37.652 1.061 1.02.693.37 1.678.37zm31.577 104.485q-3.33 0-6.12-.884-2.793-.883-5.164-2.632v-3.027q.88.674 2.153 1.26 1.274.586 2.788 1.017 1.513.43 3.138.675 1.625.244 3.205.244 2.104 0 4.261-.422 2.158-.422 4-1.145 1.842-.724 3.014-1.63v3.028q-2.37 1.75-5.163 2.632-2.792.884-6.112.884zm7.413-11.653v3.294h-18.182v-6.818q0-2.095.728-3.52.728-1.425 2.038-2.158 1.31-.732 3.05-.732 1.748 0 3.031.741 1.283.742 1.98 2.18.697 1.438.697 3.533v4.856h-2.735v-4.412q0-1.225-.342-2.006-.34-.782-1.003-1.159-.66-.377-1.629-.377t-1.656.382q-.688.381-1.047 1.163-.36.78-.36 2.015v3.018h15.43zm-8.239-2.503v-3.596l8.24-4.5v3.675l-8.24 4.42zm8.24-17.006v7.36h-18.183v-6.96q0-1.97.617-3.28.617-1.31 1.683-1.963 1.065-.652 2.414-.652 1.11 0 1.896.426.785.426 1.274 1.145.488.72.701 1.607h.178q.053-.968.59-1.86.537-.892 1.514-1.46.976-.569 2.361-.569 1.412 0 2.535.684 1.123.684 1.77 2.06.65 1.376.65 3.462zm-8.08 4.066h5.327v-3.542q0-1.793-.688-2.588-.688-.795-1.77-.795-.809 0-1.46.4-.654.4-1.03 1.136-.379.737-.379 1.758v3.631zm-7.386 0h5.016v-3.258q0-.852-.315-1.536-.316-.683-.897-1.079-.582-.395-1.38-.395-1.057 0-1.74.742-.684.741-.684 2.197v3.33zm1.012-19.5l14.453 4.847v3.516l-18.182-6.4v-4.067l18.182-6.41v3.516l-14.453 4.856v.142zm9.97 4.732h-2.646v-9.588h2.646v9.588zm-7.564-29.533v3.32q-.817.143-1.452.524-.635.382-1.078.95-.444.57-.67 1.292-.227.724-.227 1.558 0 1.483.741 2.628.742 1.145 2.166 1.793 1.425.648 3.476.648 2.086 0 3.511-.652 1.425-.653 2.15-1.793.722-1.14.722-2.615 0-.817-.217-1.53-.218-.716-.644-1.289-.426-.572-1.047-.967-.622-.395-1.42-.546l.017-3.32q1.296.186 2.432.803 1.137.617 2.002 1.611.866.994 1.35 2.326.484 1.332.484 2.956 0 2.397-1.11 4.28-1.11 1.882-3.205 2.965-2.095 1.083-5.025 1.083-2.938 0-5.03-1.092-2.09-1.092-3.2-2.974-1.11-1.882-1.11-4.262 0-1.518.427-2.823.426-1.305 1.247-2.326.821-1.02 2.006-1.682 1.186-.66 2.704-.866zm4.634-7.8q3.32 0 6.112.884 2.792.884 5.163 2.633v3.027q-.879-.684-2.149-1.265-1.27-.582-2.787-1.012-1.518-.43-3.143-.675-1.625-.244-3.196-.244-2.104 0-4.26.422-2.159.421-4.005 1.145-1.847.723-3.019 1.63v-3.028q2.37-1.75 5.163-2.633 2.792-.883 6.121-.883zm339.44 131.167v3.17q-1.163.124-1.81 1.042-.649.92-.649 2.384 0 1.03.31 1.767.312.737.844 1.127.533.39 1.216.4.569 0 .986-.262.417-.262.706-.715.288-.453.484-1.003.195-.55.328-1.11l.426-1.704q.24-1.03.648-1.984.409-.955 1.03-1.714.622-.759 1.5-1.203.88-.444 2.06-.444 1.598 0 2.81.817t1.89 2.357q.68 1.54.68 3.724 0 2.122-.657 3.68-.657 1.558-1.918 2.433-1.26.874-3.071.945v-3.24q.95-.071 1.58-.586.63-.515.941-1.345.31-.83.31-1.86 0-1.074-.323-1.887-.324-.812-.906-1.273-.581-.462-1.363-.471-.71.009-1.176.417-.466.409-.781 1.141t-.564 1.709l-.533 2.069q-.577 2.246-1.753 3.546-1.176 1.3-3.13 1.3-1.606 0-2.814-.874-1.207-.874-1.877-2.383-.67-1.51-.67-3.418 0-1.936.67-3.396t1.855-2.295q1.185-.834 2.721-.861zm13.45-8.163q0 2.041-.896 3.502-.897 1.46-2.482 2.246-1.585.786-3.653.786-2.077 0-3.671-.8-1.594-.798-2.486-2.259-.892-1.46-.892-3.458 0-1.66.608-2.943.608-1.283 1.713-2.046 1.106-.764 2.58-.87v3.072q-.986.186-1.647.883-.662.697-.662 1.86 0 .985.528 1.731.529.746 1.514 1.159.986.412 2.362.412 1.393 0 2.392-.408.999-.408 1.536-1.15.537-.74.537-1.744 0-.71-.27-1.274-.271-.564-.786-.946-.515-.381-1.252-.523v-3.072q1.447.115 2.561.852 1.114.737 1.74 2.007.626 1.27.626 2.983zm-8.256-10.88h7.99v3.213h-18.182v-3.142h6.863v-.16q-1.155-.48-1.825-1.487-.67-1.008-.67-2.57 0-1.42.595-2.477t1.74-1.638q1.145-.582 2.796-.582h8.683v3.214h-8.186q-1.376 0-2.144.706-.767.706-.767 1.975 0 .852.368 1.523.368.67 1.06 1.047.693.378 1.679.378zm8.256-17.326q0 2.051-.857 3.538-.856 1.487-2.432 2.286-1.576.8-3.715.8-2.104 0-3.698-.804-1.594-.804-2.486-2.25-.892-1.448-.892-3.401 0-1.26.404-2.384.404-1.123 1.247-1.988.844-.866 2.144-1.363 1.3-.497 3.094-.497h.986v11.177h-2.167v-8.097q-.923.01-1.646.4-.724.39-1.141 1.087-.418.697-.418 1.62 0 .986.475 1.732.475.745 1.243 1.158.768.413 1.683.422h1.89q1.19 0 2.038-.435.848-.435 1.296-1.216.449-.782.449-1.83 0-.7-.2-1.269-.2-.568-.59-.985-.391-.417-.968-.63l.337-3.001q1.19.284 2.073 1.078.883.795 1.367 2.03.484 1.233.484 2.822zm-.266-11.173v3.214h-13.637v-3.072h2.318v-.16q-1.172-.426-1.834-1.411-.661-.986-.661-2.353 0-1.385.67-2.339t1.825-1.345v-.142q-1.137-.453-1.816-1.531-.68-1.08-.68-2.562 0-1.882 1.19-3.071 1.19-1.19 3.472-1.19h9.153v3.223h-8.656q-1.27 0-1.86.674-.59.675-.59 1.652 0 1.163.723 1.815.724.653 1.878.653h8.505v3.151h-8.79q-1.056 0-1.686.635-.63.635-.63 1.656 0 .692.35 1.26.351.569.986.906.635.337 1.478.337h8.292zm.275-22.332q0 1.296-.466 2.33-.466 1.035-1.38 1.634-.915.599-2.256.599-1.154 0-1.908-.426-.755-.426-1.208-1.163-.452-.737-.688-1.665-.235-.927-.341-1.922-.125-1.198-.227-1.944-.102-.746-.32-1.088-.217-.341-.679-.341h-.053q-1.003 0-1.553.594-.55.595-.55 1.714 0 1.18.514 1.869.515.688 1.216.927l-.426 3.001q-1.243-.355-2.082-1.172-.839-.816-1.26-1.997-.422-1.181-.422-2.61 0-.986.23-1.962.232-.977.76-1.785.528-.808 1.434-1.3.905-.493 2.263-.493h9.127v3.09h-1.873v.106q.568.293 1.06.821.493.528.79 1.323.298.794.298 1.86zm-2.361-.835q0-.967-.387-1.678-.386-.71-1.025-1.096-.64-.386-1.394-.386h-1.607q.125.15.231.51.107.36.187.804.08.444.142.879l.106.754q.098.72.32 1.288.222.568.617.896.395.329 1.016.329.888 0 1.34-.648.454-.648.454-1.652zm-11.55-22.932v-3.418l13.636 4.857v3.55l-13.637 4.857v-3.427l10.13-3.134v-.142l-10.13-3.143zm13.911-8.34q0 1.296-.466 2.33t-1.38 1.633q-.915.6-2.256.6-1.154 0-1.908-.426-.755-.427-1.208-1.163-.452-.737-.688-1.665-.235-.928-.341-1.922-.125-1.199-.227-1.944-.102-.746-.32-1.088-.217-.342-.679-.342h-.053q-1.003 0-1.553.595t-.55 1.714q0 1.18.514 1.868.515.688 1.216.928l-.426 3q-1.243-.354-2.082-1.171-.839-.817-1.26-1.998-.422-1.18-.422-2.61 0-.985.23-1.962.232-.976.76-1.784t1.434-1.3q.905-.493 2.263-.493h9.127v3.09h-1.873v.106q.568.293 1.06.82.493.529.79 1.324.298.794.298 1.86zm-2.361-.835q0-.968-.387-1.678-.386-.71-1.025-1.096-.64-.387-1.394-.387h-1.607q.125.151.231.511.107.36.187.803.08.444.142.88l.106.754q.098.719.32 1.287t.617.897q.395.328 1.016.328.888 0 1.34-.648.454-.648.454-1.651zm-16.096-8.785v-3.214h18.182v3.214h-18.182zm18.182-8.909v3.214h-13.637v-3.214h13.637zm-15.572 1.598q0 .772-.51 1.318t-1.23.546q-.728 0-1.238-.55t-.51-1.314q0-.763.51-1.31.51-.545 1.238-.545.72 0 1.23.546t.51 1.31zm15.812-9.14q0 1.607-.826 2.877-.826 1.27-2.397 2.006-1.571.737-3.818.737-2.272 0-3.84-.75-1.566-.75-2.37-2.029-.803-1.278-.803-2.85 0-1.198.404-1.97.404-.773.968-1.226.563-.453 1.06-.701v-.133h-6.8v-3.223h18.182v3.16h-2.149v.196q.498.248 1.052.719.555.47.946 1.243.39.772.39 1.944zm-2.637-.897q0-1.02-.555-1.74-.555-.719-1.55-1.092-.994-.372-2.316-.372-1.323 0-2.3.368-.976.368-1.518 1.083-.541.715-.541 1.753 0 1.075.559 1.794.56.719 1.545 1.083.985.364 2.255.364 1.278 0 2.277-.369.999-.368 1.571-1.092.573-.723.573-1.78zm2.672-12.904q0 1.297-.466 2.33-.466 1.035-1.38 1.634-.915.6-2.256.6-1.154 0-1.908-.427-.755-.426-1.208-1.163-.452-.736-.688-1.664-.235-.928-.341-1.922-.125-1.199-.227-1.944-.102-.746-.32-1.088-.217-.342-.679-.342h-.053q-1.003 0-1.553.595t-.55 1.713q0 1.181.514 1.87.515.687 1.216.927l-.426 3q-1.243-.354-2.082-1.171-.839-.817-1.26-1.998-.422-1.18-.422-2.61 0-.985.23-1.962.232-.976.76-1.784t1.434-1.3q.905-.494 2.263-.494h9.127v3.09h-1.873v.106q.568.293 1.06.822.493.528.79 1.322.298.795.298 1.86zm-2.361-.834q0-.968-.387-1.678-.386-.71-1.025-1.097-.64-.386-1.394-.386h-1.607q.125.151.231.51.107.36.187.804.08.444.142.88l.106.754q.098.719.32 1.287t.617.897q.395.328 1.016.328.888 0 1.34-.648.454-.648.454-1.651zm-11.55-7.755v-7.84h2.485v7.84h-2.486zm10.067-1.936h-13.335v-3.213h12.802q.648 0 .99-.2.342-.2.466-.528.125-.329.125-.728 0-.302-.045-.555-.044-.253-.08-.386l2.513-.542q.088.258.195.733.107.474.124 1.158.036 1.207-.368 2.175-.404.968-1.256 1.532-.853.563-2.131.554zm3.569-10.986v3.214h-13.637v-3.214h13.637zm-15.572 1.598q0 .772-.51 1.318t-1.23.546q-.728 0-1.238-.55t-.51-1.314q0-.764.51-1.31t1.238-.546q.72 0 1.23.546t.51 1.31zm15.838-10.028q0 1.998-.879 3.463-.879 1.464-2.459 2.268-1.58.803-3.693.803t-3.702-.803q-1.59-.804-2.468-2.268-.88-1.465-.88-3.463 0-1.997.88-3.462.879-1.465 2.468-2.268 1.589-.804 3.702-.804t3.693.804q1.58.803 2.46 2.268.878 1.465.878 3.462zm-2.574-.018q0-1.083-.6-1.81-.599-.729-1.611-1.088-1.012-.36-2.255-.36-1.252 0-2.268.36-1.017.36-1.62 1.087-.604.728-.604 1.811 0 1.11.604 1.843.603.732 1.62 1.092 1.016.36 2.268.36 1.243 0 2.255-.36 1.012-.36 1.611-1.092.6-.733.6-1.843zm-5.682-11.625h7.99v3.214h-13.637v-3.072h2.318v-.16q-1.146-.47-1.82-1.505-.675-1.034-.675-2.561 0-1.412.604-2.464.603-1.052 1.749-1.633 1.145-.582 2.778-.573h8.683v3.214h-8.186q-1.367 0-2.14.706-.771.706-.771 1.948 0 .844.368 1.496.368.653 1.06 1.021.693.369 1.679.369z" fill="#FFF" fill-rule="nonzero"></path><g transform="translate(1125.000000, 424.000000)" fill="#B8E986"><path d="M74.566 25.5l-46.41 25.704V-.204z"></path><path d="M0 31.932v-14.28h61v14.28z"></path></g></g></svg>