<svg viewBox="0 0 1200 900" xmlns="http://www.w3.org/2000/svg"><g fill="none" fill-rule="evenodd"><path d="M596.87 23.327a58.347 58.347 0 0 0-22.3 5.67L270.265 175.106c-15.955 7.656-27.543 22.137-31.485 39.342l-75.073 328.196a57.834 57.834 0 0 0 7.9 44.466 57.999 57.999 0 0 0 3.309 4.615l210.626 263.16c11.045 13.793 27.79 21.821 45.496 21.821l337.773-.078c17.7.013 34.444-8.004 45.496-21.783l210.549-263.198a57.848 57.848 0 0 0 11.247-49.08l-75.19-328.197c-3.942-17.206-15.53-31.686-31.485-39.343L625.085 28.997a58.357 58.357 0 0 0-28.215-5.67z" fill="#326CE5" fill-rule="nonzero" opacity=".1" stroke="#FFF" stroke-width=".5"></path><g transform="translate(0.000000, 414.000000)" fill="#B8E986"><path d="M484 36l-65 36V0z"></path><path d="M0 45V25h465v20z"></path></g><g transform="translate(490.000000, 336.000000)"><path fill="#53777A" d="M0 0h220v228H0z"></path><path d="M38.185 76.813L32.755 93h-3.937l7.17-20.364h4.553L47.721 93h-3.938l-5.44-16.188h-.158zm-5.3 11.166v-2.963h10.738v2.963H32.885zM54.094 93h-3.69V72.636h7.637q2.347 0 3.943.875 1.595.875 2.416 2.402.82 1.526.82 3.465 0 1.959-.825 3.48t-2.436 2.391q-1.611.87-3.968.87h-5.06v-3.032h4.563q1.372 0 2.247-.478.875-.477 1.298-1.312.423-.835.423-1.92 0-1.083-.423-1.908-.423-.826-1.303-1.288-.88-.462-2.262-.462h-3.38V93zm14.328-20.364h3.689V93h-3.69V72.636zm29.263 5.598h-3.55q-.14-1.302-1.168-2.028-1.03-.726-2.67-.726-1.154 0-1.979.348-.825.348-1.263.945-.437.596-.447 1.362 0 .636.293 1.104.294.467.8.79.508.323 1.124.542.617.219 1.243.368l1.91.477q1.153.269 2.221.726 1.07.457 1.92 1.153.85.696 1.347 1.68.497.985.497 2.308 0 1.79-.915 3.147-.915 1.357-2.64 2.118-1.725.76-4.17.76-2.377 0-4.122-.736-1.745-.735-2.725-2.147t-1.059-3.44h3.63q.08 1.063.656 1.77.577.705 1.506 1.053.93.348 2.083.348 1.203 0 2.113-.363.91-.363 1.427-1.014t.527-1.526q-.01-.796-.467-1.318-.458-.522-1.278-.875-.82-.353-1.914-.631l-2.317-.597q-2.515-.646-3.972-1.963-1.457-1.318-1.457-3.505 0-1.8.98-3.152.979-1.353 2.67-2.103 1.69-.751 3.827-.751 2.168 0 3.804.75 1.635.751 2.57 2.079.935 1.327.965 3.047zM114.568 93h-13.324V72.636h13.245v3.093h-9.556v5.528h8.87v3.092h-8.87v5.559h9.635V93zm7.378 0h-3.689V72.636h7.636q2.347 0 3.943.816 1.596.815 2.416 2.282.82 1.466.82 3.415 0 1.959-.83 3.396-.83 1.437-2.441 2.217-1.61.78-3.957.78h-5.44V82.48h4.942q1.373 0 2.248-.383.875-.383 1.297-1.123.423-.741.423-1.825t-.428-1.854q-.427-.77-1.302-1.174-.875-.402-2.257-.402h-3.381V93zm2.804-9.227h4.027L133.818 93h-4.116l-4.952-9.227zm9.864-11.137h4.046l5.3 16.029h.209l5.29-16.029h4.057L146.336 93h-4.553l-7.17-20.364zM169.524 93H156.2V72.636h13.245v3.093h-9.556v5.528h8.87v3.092h-8.87v5.559h9.635V93zm7.378 0h-3.689V72.636h7.636q2.347 0 3.943.816 1.596.815 2.416 2.282.82 1.466.82 3.415 0 1.959-.83 3.396-.83 1.437-2.441 2.217-1.61.78-3.957.78h-5.44V82.48h4.942q1.373 0 2.248-.383.875-.383 1.297-1.123.423-.741.423-1.825t-.428-1.854q-.427-.77-1.302-1.174-.875-.402-2.257-.402h-3.381V93zm2.804-9.227h4.027L188.774 93h-4.116l-4.952-9.227z" fill="#FFF" fill-rule="nonzero"></path></g></g></svg>