<svg viewBox="0 0 1200 900" xmlns="http://www.w3.org/2000/svg"><g fill="none" fill-rule="evenodd"><path d="M596.87 23.327a58.347 58.347 0 0 0-22.3 5.67L270.265 175.106c-15.955 7.656-27.543 22.137-31.485 39.342l-75.073 328.196a57.834 57.834 0 0 0 7.9 44.466 57.999 57.999 0 0 0 3.309 4.615l210.626 263.16c11.045 13.793 27.79 21.821 45.496 21.821l337.773-.078c17.7.013 34.444-8.004 45.496-21.783l210.549-263.198a57.848 57.848 0 0 0 11.247-49.08l-75.19-328.197c-3.942-17.206-15.53-31.686-31.485-39.343L625.085 28.997a58.357 58.357 0 0 0-28.215-5.67z" fill="#326CE5" fill-rule="nonzero" opacity=".1" stroke="#FFF" stroke-width=".5"></path><g transform="translate(0.000000, 414.000000)" fill="#B8E986"><path d="M327 36l-65 36V0z"></path><path d="M0 45V25h308v20z"></path></g><g transform="translate(334.000000, 336.000000)"><path fill="#53777A" d="M0 0h220v228H0z"></path><path d="M38.185 76.813L32.755 93h-3.937l7.17-20.364h4.553L47.721 93h-3.938l-5.44-16.188h-.158zm-5.3 11.166v-2.963h10.738v2.963H32.885zM54.094 93h-3.69V72.636h7.637q2.347 0 3.943.875 1.595.875 2.416 2.402.82 1.526.82 3.465 0 1.959-.825 3.48t-2.436 2.391q-1.611.87-3.968.87h-5.06v-3.032h4.563q1.372 0 2.247-.478.875-.477 1.298-1.312.423-.835.423-1.92 0-1.083-.423-1.908-.423-.826-1.303-1.288-.88-.462-2.262-.462h-3.38V93zm14.328-20.364h3.689V93h-3.69V72.636zm29.263 5.598h-3.55q-.14-1.302-1.168-2.028-1.03-.726-2.67-.726-1.154 0-1.979.348-.825.348-1.263.945-.437.596-.447 1.362 0 .636.293 1.104.294.467.8.79.508.323 1.124.542.617.219 1.243.368l1.91.477q1.153.269 2.221.726 1.07.457 1.92 1.153.85.696 1.347 1.68.497.985.497 2.308 0 1.79-.915 3.147-.915 1.357-2.64 2.118-1.725.76-4.17.76-2.377 0-4.122-.736-1.745-.735-2.725-2.147t-1.059-3.44h3.63q.08 1.063.656 1.77.577.705 1.506 1.053.93.348 2.083.348 1.203 0 2.113-.363.91-.363 1.427-1.014t.527-1.526q-.01-.796-.467-1.318-.458-.522-1.278-.875-.82-.353-1.914-.631l-2.317-.597q-2.515-.646-3.972-1.963-1.457-1.318-1.457-3.505 0-1.8.98-3.152.979-1.353 2.67-2.103 1.69-.751 3.827-.751 2.168 0 3.804.75 1.635.751 2.57 2.079.935 1.327.965 3.047zM114.568 93h-13.324V72.636h13.245v3.093h-9.556v5.528h8.87v3.092h-8.87v5.559h9.635V93zm7.378 0h-3.689V72.636h7.636q2.347 0 3.943.816 1.596.815 2.416 2.282.82 1.466.82 3.415 0 1.959-.83 3.396-.83 1.437-2.441 2.217-1.61.78-3.957.78h-5.44V82.48h4.942q1.373 0 2.248-.383.875-.383 1.297-1.123.423-.741.423-1.825t-.428-1.854q-.427-.77-1.302-1.174-.875-.402-2.257-.402h-3.381V93zm2.804-9.227h4.027L133.818 93h-4.116l-4.952-9.227zm9.864-11.137h4.046l5.3 16.029h.209l5.29-16.029h4.057L146.336 93h-4.553l-7.17-20.364zM169.524 93H156.2V72.636h13.245v3.093h-9.556v5.528h8.87v3.092h-8.87v5.559h9.635V93zm7.378 0h-3.689V72.636h7.636q2.347 0 3.943.816 1.596.815 2.416 2.282.82 1.466.82 3.415 0 1.959-.83 3.396-.83 1.437-2.441 2.217-1.61.78-3.957.78h-5.44V82.48h4.942q1.373 0 2.248-.383.875-.383 1.297-1.123.423-.741.423-1.825t-.428-1.854q-.427-.77-1.302-1.174-.875-.402-2.257-.402h-3.381V93zm2.804-9.227h4.027L188.774 93h-4.116l-4.952-9.227z" fill="#FFF" fill-rule="nonzero"></path></g><g transform="translate(661.000000, 334.000000)"><path fill="#53777A" d="M101 0h421v234H101z"></path><path fill="#F1D4AF" d="M205 10h308v61H205z"></path><path d="M228.519 53h-9.365V25.364h9.554q4.116 0 7.078 1.653 2.962 1.653 4.554 4.743 1.592 3.09 1.592 7.395 0 4.318-1.599 7.422-1.599 3.103-4.601 4.763-3.003 1.66-7.213 1.66zm-4.359-23.305v18.973h4.116q2.888 0 4.817-1.059 1.93-1.06 2.902-3.171.971-2.112.971-5.283 0-3.171-.971-5.27-.972-2.098-2.868-3.144-1.896-1.046-4.703-1.046h-4.264zm31.482 23.71q-3.117 0-5.377-1.302-2.26-1.303-3.475-3.698-1.214-2.395-1.214-5.647 0-3.198 1.221-5.62 1.221-2.423 3.42-3.779 2.2-1.356 5.17-1.356 1.915 0 3.622.614 1.707.614 3.023 1.896t2.071 3.259q.756 1.977.756 4.702v1.498h-16.99V40.68h12.308q-.014-1.404-.608-2.504-.593-1.1-1.653-1.734-1.059-.634-2.462-.634-1.498 0-2.632.722-1.133.722-1.76 1.89-.628 1.167-.642 2.557v2.874q0 1.808.661 3.097.662 1.289 1.85 1.97 1.187.681 2.779.681 1.066 0 1.93-.303.863-.304 1.498-.898.634-.593.958-1.47l4.56.512q-.431 1.809-1.639 3.151-1.208 1.343-3.083 2.078-1.876.736-4.292.736zm18.231 7.368h-4.885v-28.5h4.804V35.7h.284q.378-.755 1.066-1.612.688-.857 1.862-1.471 1.174-.614 2.996-.614 2.402 0 4.338 1.221 1.937 1.221 3.077 3.603t1.14 5.836q0 3.414-1.12 5.803-1.12 2.388-3.05 3.643-1.93 1.255-4.372 1.255-1.781 0-2.955-.593-1.174-.594-1.882-1.438-.709-.843-1.1-1.599h-.203v11.039zm-.094-18.137q0 2.011.573 3.522.574 1.512 1.66 2.355 1.086.844 2.638.844 1.62 0 2.713-.87 1.093-.871 1.653-2.39.56-1.517.56-3.46 0-1.93-.554-3.428-.553-1.498-1.646-2.348-1.093-.85-2.726-.85-1.565 0-2.658.823t-1.653 2.307q-.56 1.485-.56 3.495zm18.946-17.272h4.885V53h-4.885V25.364zm18.946 28.04q-3.036 0-5.263-1.335-2.226-1.336-3.448-3.738-1.22-2.402-1.22-5.614 0-3.211 1.22-5.627 1.222-2.415 3.448-3.751 2.227-1.336 5.263-1.336t5.263 1.336q2.226 1.336 3.447 3.751 1.222 2.416 1.222 5.627 0 3.212-1.222 5.614-1.22 2.402-3.447 3.738-2.227 1.336-5.263 1.336zm.027-3.913q1.646 0 2.753-.91 1.106-.911 1.653-2.45.546-1.538.546-3.427 0-1.903-.546-3.448-.547-1.545-1.653-2.463-1.107-.917-2.753-.917-1.687 0-2.8.917-1.113.918-1.66 2.463-.547 1.545-.547 3.448 0 1.889.547 3.427.547 1.539 1.66 2.45 1.113.91 2.8.91zm16.355 11.241q-.999 0-1.842-.155-.843-.155-1.343-.371l1.134-3.792q1.592.459 2.678.155 1.087-.303 1.788-2.017l.419-1.12-7.517-21.16h5.182l4.777 15.654h.216l4.79-15.653 5.223.027-8.326 23.21q-.58 1.62-1.538 2.793-.958 1.174-2.342 1.802-1.383.627-3.299.627zM351.816 53h-4.884V32.273h4.669v3.522h.242q.648-1.782 2.146-2.787 1.498-1.005 3.576-1.005 2.105 0 3.556 1.019 1.45 1.018 2.044 2.773h.216q.688-1.728 2.328-2.76 1.64-1.032 3.893-1.032 2.86 0 4.669 1.808 1.808 1.808 1.808 5.276V53h-4.898V39.843q0-1.93-1.026-2.827-1.025-.897-2.51-.897-1.767 0-2.76 1.1-.991 1.1-.991 2.853V53h-4.79V39.64q0-1.605-.965-2.563-.965-.958-2.517-.958-1.053 0-1.916.533-.864.533-1.377 1.498-.513.964-.513 2.246V53zm38.405.405q-3.117 0-5.377-1.302-2.26-1.303-3.475-3.698-1.214-2.395-1.214-5.647 0-3.198 1.22-5.62 1.222-2.423 3.422-3.779 2.2-1.356 5.168-1.356 1.916 0 3.623.614 1.707.614 3.023 1.896t2.071 3.259q.756 1.977.756 4.702v1.498h-16.99V40.68h12.307q-.013-1.404-.607-2.504t-1.653-1.734q-1.06-.634-2.463-.634-1.497 0-2.631.722-1.134.722-1.761 1.89-.627 1.167-.641 2.557v2.874q0 1.808.661 3.097t1.849 1.97q1.187.681 2.78.681 1.066 0 1.93-.303.863-.304 1.497-.898.635-.593.958-1.47l4.562.512q-.432 1.809-1.64 3.151-1.208 1.343-3.083 2.078-1.876.736-4.292.736zm18.231-12.55V53h-4.885V32.273h4.67v3.522h.242q.715-1.741 2.287-2.767 1.573-1.025 3.894-1.025 2.145 0 3.744.917 1.6.918 2.483 2.659.884 1.74.87 4.224V53h-4.884V40.558q0-2.078-1.073-3.252t-2.962-1.174q-1.282 0-2.274.56t-1.552 1.613q-.56 1.052-.56 2.55zm16.72-8.582h11.915v3.778h-11.915v-3.778zm2.941 15.302V27.307h4.885v19.459q0 .985.304 1.504.304.52.803.709.5.189 1.106.189.46 0 .844-.068.384-.067.587-.121l.823 3.819q-.391.135-1.113.296-.722.162-1.761.19-1.836.053-3.306-.56-1.471-.615-2.328-1.91-.857-1.296-.844-3.239zM464.804 53h-3.778l4.534-27.636h3.779L464.804 53zm5.034-7.125H448.57l.634-3.778h21.267l-.634 3.778zM455.088 53h-3.778l4.534-27.636h3.779L455.089 53zm16.356-16.733h-21.267l.62-3.778h21.267l-.62 3.778zm10.026-10.903h4.763V53h-5.006V30.235h-.162l-6.464 4.13v-4.589l6.869-4.412z" fill="#4A4A4A" fill-rule="nonzero"></path><g transform="translate(0.000000, 10.000000)"><ellipse stroke="#53777A" stroke-width="21" fill="#FFF" cx="102.5" cy="106.5" rx="102.5" ry="106.5"></ellipse><g transform="translate(28.435484, 32.293548)" fill="#419EDA" fill-rule="nonzero"><path d="M67.556 65.67c0 5.54-4.32 10.021-9.645 10.021-5.328 0-9.637-4.48-9.637-10.021 0-5.517 4.31-10.015 9.637-10.015 5.325 0 9.645 4.498 9.645 10.015zm12.46.002c0 5.54 4.321 10.021 9.646 10.021 5.323 0 9.64-4.48 9.64-10.021 0-5.519-4.317-10.017-9.64-10.017-5.325 0-9.646 4.498-9.646 10.017z"></path><path d="M145.766 76.85c-.694.06-1.392.088-2.133.088-4.3 0-8.473-1.047-12.237-2.967a122.139 122.139 0 0 0 1.647-22.492 115.84 115.84 0 0 0-14.01-17.25c2.285-4.45 5.661-8.279 9.876-10.993l1.81-1.163-1.41-1.652c-7.267-8.502-15.939-15.075-25.77-19.535L101.576 0l-.497 2.153a29.169 29.169 0 0 1-6.988 13.18 109.635 109.635 0 0 0-20.19-8.645 109.729 109.729 0 0 0-20.158 8.626A29.162 29.162 0 0 1 46.78 2.165l-.5-2.153-1.954.883C34.618 5.29 25.707 12.04 18.56 20.415l-1.415 1.657 1.808 1.162c4.202 2.705 7.57 6.51 9.85 10.936a116.328 116.328 0 0 0-13.985 17.184A122.228 122.228 0 0 0 16.424 74c-3.746 1.902-7.895 2.938-12.167 2.938-.75 0-1.451-.029-2.133-.088L0 76.682l.199 2.204c1.04 11.148 4.372 21.751 9.908 31.518l1.08 1.906 1.622-1.43a27.301 27.301 0 0 1 13.132-6.392 117.827 117.827 0 0 0 11.24 19.021c6.83 2.483 13.948 4.336 21.298 5.438.705 5.051.144 10.275-1.774 15.106l-.809 2.046 2.08.476c5.325 1.217 10.698 1.837 15.958 1.837l15.954-1.837 2.082-.476-.811-2.05c-1.913-4.83-2.474-10.061-1.77-15.113 7.322-1.103 14.413-2.952 21.22-5.427a117.976 117.976 0 0 0 11.25-19.039 27.42 27.42 0 0 1 13.197 6.397l1.622 1.429 1.075-1.902c5.545-9.779 8.876-20.382 9.901-31.512l.2-2.2-2.088.168zm-49.032 26.94c-7.547 2.133-15.212 3.21-22.831 3.21-7.64 0-15.296-1.076-22.85-3.21a93.6 93.6 0 0 1-9.78-21.405c-2.347-7.511-3.722-15.38-4.12-23.483 4.878-6.267 10.426-11.757 16.555-16.379a87.172 87.172 0 0 1 20.195-11.408A87.526 87.526 0 0 1 94.058 42.5c6.153 4.646 11.725 10.178 16.627 16.485-.417 8.056-1.808 15.88-4.16 23.38a93.302 93.302 0 0 1-9.79 21.426z"></path></g></g></g><g transform="translate(554.000000, 443.000000)" fill-rule="nonzero"><path fill="#9EEBCF" d="M0 6h96v3H0z"></path><circle stroke="#9EEBCF" stroke-width="3" fill="#FFF" cx=".5" cy="7.5" r="6.5"></circle><path fill="#9EEBCF" d="M98 7.5L90 13V2z"></path></g></g></svg>