<svg viewBox="0 0 1200 900" xmlns="http://www.w3.org/2000/svg"><g fill="none" fill-rule="evenodd"><path d="M596.87 23.327a58.347 58.347 0 0 0-22.3 5.67L270.265 175.106c-15.955 7.656-27.543 22.137-31.485 39.342l-75.073 328.196a57.834 57.834 0 0 0 7.9 44.466 57.999 57.999 0 0 0 3.309 4.615l210.626 263.16c11.045 13.793 27.79 21.821 45.496 21.821l337.773-.078c17.7.013 34.444-8.004 45.496-21.783l210.549-263.198a57.848 57.848 0 0 0 11.247-49.08l-75.19-328.197c-3.942-17.206-15.53-31.686-31.485-39.343L625.085 28.997a58.357 58.357 0 0 0-28.215-5.67z" fill="#326CE5" fill-rule="nonzero" opacity=".1" stroke="#FFF" stroke-width=".5"></path><g transform="translate(0.000000, 414.000000)" fill="#B8E986"><path d="M327 36l-65 36V0z"></path><path d="M0 45V25h308v20z"></path></g><g transform="translate(334.000000, 336.000000)"><path fill="#53777A" d="M0 0h220v228H0z"></path><path d="M38.185 76.813L32.755 93h-3.937l7.17-20.364h4.553L47.721 93h-3.938l-5.44-16.188h-.158zm-5.3 11.166v-2.963h10.738v2.963H32.885zM54.094 93h-3.69V72.636h7.637q2.347 0 3.943.875 1.595.875 2.416 2.402.82 1.526.82 3.465 0 1.959-.825 3.48t-2.436 2.391q-1.611.87-3.968.87h-5.06v-3.032h4.563q1.372 0 2.247-.478.875-.477 1.298-1.312.423-.835.423-1.92 0-1.083-.423-1.908-.423-.826-1.303-1.288-.88-.462-2.262-.462h-3.38V93zm14.328-20.364h3.689V93h-3.69V72.636zm29.263 5.598h-3.55q-.14-1.302-1.168-2.028-1.03-.726-2.67-.726-1.154 0-1.979.348-.825.348-1.263.945-.437.596-.447 1.362 0 .636.293 1.104.294.467.8.79.508.323 1.124.542.617.219 1.243.368l1.91.477q1.153.269 2.221.726 1.07.457 1.92 1.153.85.696 1.347 1.68.497.985.497 2.308 0 1.79-.915 3.147-.915 1.357-2.64 2.118-1.725.76-4.17.76-2.377 0-4.122-.736-1.745-.735-2.725-2.147t-1.059-3.44h3.63q.08 1.063.656 1.77.577.705 1.506 1.053.93.348 2.083.348 1.203 0 2.113-.363.91-.363 1.427-1.014t.527-1.526q-.01-.796-.467-1.318-.458-.522-1.278-.875-.82-.353-1.914-.631l-2.317-.597q-2.515-.646-3.972-1.963-1.457-1.318-1.457-3.505 0-1.8.98-3.152.979-1.353 2.67-2.103 1.69-.751 3.827-.751 2.168 0 3.804.75 1.635.751 2.57 2.079.935 1.327.965 3.047zM114.568 93h-13.324V72.636h13.245v3.093h-9.556v5.528h8.87v3.092h-8.87v5.559h9.635V93zm7.378 0h-3.689V72.636h7.636q2.347 0 3.943.816 1.596.815 2.416 2.282.82 1.466.82 3.415 0 1.959-.83 3.396-.83 1.437-2.441 2.217-1.61.78-3.957.78h-5.44V82.48h4.942q1.373 0 2.248-.383.875-.383 1.297-1.123.423-.741.423-1.825t-.428-1.854q-.427-.77-1.302-1.174-.875-.402-2.257-.402h-3.381V93zm2.804-9.227h4.027L133.818 93h-4.116l-4.952-9.227zm9.864-11.137h4.046l5.3 16.029h.209l5.29-16.029h4.057L146.336 93h-4.553l-7.17-20.364zM169.524 93H156.2V72.636h13.245v3.093h-9.556v5.528h8.87v3.092h-8.87v5.559h9.635V93zm7.378 0h-3.689V72.636h7.636q2.347 0 3.943.816 1.596.815 2.416 2.282.82 1.466.82 3.415 0 1.959-.83 3.396-.83 1.437-2.441 2.217-1.61.78-3.957.78h-5.44V82.48h4.942q1.373 0 2.248-.383.875-.383 1.297-1.123.423-.741.423-1.825t-.428-1.854q-.427-.77-1.302-1.174-.875-.402-2.257-.402h-3.381V93zm2.804-9.227h4.027L188.774 93h-4.116l-4.952-9.227z" fill="#FFF" fill-rule="nonzero"></path></g><g transform="translate(661.000000, 344.000000)"><ellipse stroke="#53777A" stroke-width="21" fill="#FFF" cx="102.5" cy="106.5" rx="102.5" ry="106.5"></ellipse><g transform="translate(28.435484, 32.293548)" fill="#419EDA" fill-rule="nonzero"><path d="M67.556 65.67c0 5.54-4.32 10.021-9.645 10.021-5.328 0-9.637-4.48-9.637-10.021 0-5.517 4.31-10.015 9.637-10.015 5.325 0 9.645 4.498 9.645 10.015zm12.46.002c0 5.54 4.321 10.021 9.646 10.021 5.323 0 9.64-4.48 9.64-10.021 0-5.519-4.317-10.017-9.64-10.017-5.325 0-9.646 4.498-9.646 10.017z"></path><path d="M145.766 76.85c-.694.06-1.392.088-2.133.088-4.3 0-8.473-1.047-12.237-2.967a122.139 122.139 0 0 0 1.647-22.492 115.84 115.84 0 0 0-14.01-17.25c2.285-4.45 5.661-8.279 9.876-10.993l1.81-1.163-1.41-1.652c-7.267-8.502-15.939-15.075-25.77-19.535L101.576 0l-.497 2.153a29.169 29.169 0 0 1-6.988 13.18 109.635 109.635 0 0 0-20.19-8.645 109.729 109.729 0 0 0-20.158 8.626A29.162 29.162 0 0 1 46.78 2.165l-.5-2.153-1.954.883C34.618 5.29 25.707 12.04 18.56 20.415l-1.415 1.657 1.808 1.162c4.202 2.705 7.57 6.51 9.85 10.936a116.328 116.328 0 0 0-13.985 17.184A122.228 122.228 0 0 0 16.424 74c-3.746 1.902-7.895 2.938-12.167 2.938-.75 0-1.451-.029-2.133-.088L0 76.682l.199 2.204c1.04 11.148 4.372 21.751 9.908 31.518l1.08 1.906 1.622-1.43a27.301 27.301 0 0 1 13.132-6.392 117.827 117.827 0 0 0 11.24 19.021c6.83 2.483 13.948 4.336 21.298 5.438.705 5.051.144 10.275-1.774 15.106l-.809 2.046 2.08.476c5.325 1.217 10.698 1.837 15.958 1.837l15.954-1.837 2.082-.476-.811-2.05c-1.913-4.83-2.474-10.061-1.77-15.113 7.322-1.103 14.413-2.952 21.22-5.427a117.976 117.976 0 0 0 11.25-19.039 27.42 27.42 0 0 1 13.197 6.397l1.622 1.429 1.075-1.902c5.545-9.779 8.876-20.382 9.901-31.512l.2-2.2-2.088.168zm-49.032 26.94c-7.547 2.133-15.212 3.21-22.831 3.21-7.64 0-15.296-1.076-22.85-3.21a93.6 93.6 0 0 1-9.78-21.405c-2.347-7.511-3.722-15.38-4.12-23.483 4.878-6.267 10.426-11.757 16.555-16.379a87.172 87.172 0 0 1 20.195-11.408A87.526 87.526 0 0 1 94.058 42.5c6.153 4.646 11.725 10.178 16.627 16.485-.417 8.056-1.808 15.88-4.16 23.38a93.302 93.302 0 0 1-9.79 21.426z"></path></g></g><g transform="translate(554.000000, 443.000000)" fill-rule="nonzero"><path fill="#9EEBCF" d="M0 6h96v3H0z"></path><circle stroke="#9EEBCF" stroke-width="3" fill="#FFF" cx=".5" cy="7.5" r="6.5"></circle><path fill="#9EEBCF" d="M98 7.5L90 13V2z"></path></g></g></svg>