<svg xmlns="http://www.w3.org/2000/svg" viewBox="0 0 100 100"><path fill="#f1f3f5" d="M50 94c24.3 0 44-19.7 44-44S74.3 6 50 6 6 25.7 6 50s19.7 44 44 44z"/><path fill="#b6c0c9" d="M57.3 55.1c-.9.6-1.7 1.1-2.3 1.5s-1.4.7-2.3 1.1c-1 .4-1.9.6-2.7.6s-1.7-.2-2.7-.6-1.8-.7-2.3-1.1c-.6-.4-1.3-.9-2.3-1.5-2.2-1.5-6.3-4.1-12.2-7.8-.9-.6-1.8-1.2-2.5-2v17c0 1 .4 1.9 1.2 2.6.8.7 1.7 1.1 2.8 1.1h36.1c1.1 0 2-.4 2.8-1.1s1.2-1.6 1.2-2.6v-17c-.7.7-1.5 1.4-2.5 2-5.4 3.4-9.5 6-12.3 7.8z"/><path fill="#b6c0c9" d="M68.1 34H31.9c-1.3 0-2.2.4-2.9 1.2-.7.8-1 1.8-1 3 0 1 .5 2 1.4 3.1s1.9 2 2.9 2.6c.6.4 2.2 1.4 5 3.2s4.9 3.2 6.4 4.1c.2.1.5.3 1 .7s1 .6 1.3.9c.4.2.8.5 1.3.7.5.3 1 .5 1.4.6s.9.2 1.2.2c.4 0 .8-.1 1.2-.2.4-.1.9-.3 1.4-.6s.9-.5 1.3-.7.8-.5 1.3-.9.9-.6 1-.7c1.5-1 5.3-3.4 11.5-7.4 1.2-.8 2.2-1.7 3-2.8s1.2-2.2 1.2-3.4c0-1-.4-1.9-1.2-2.6s-1.5-1-2.5-1z"/></svg>