<svg xmlns="http://www.w3.org/2000/svg" xmlns:xlink="http://www.w3.org/1999/xlink" width="819" height="686" viewBox="0 0 819 686" style="background:#fff">
  <defs>
    <rect id="path-1" width="42" height="24" rx="3"/>
    <rect id="path-2" width="42" height="24" rx="3"/>
    <rect id="path-3" width="42" height="24" rx="3"/>
    <rect id="path-4" width="42" height="24" rx="3"/>
    <rect id="path-5" width="42" height="24" rx="3"/>
    <rect id="path-6" width="42" height="24" rx="3"/>
  </defs>
  <g id="diagram" fill="none" fill-rule="evenodd">
    <g id="Group-2" transform="translate(151 55)">
      <rect id="Rectangle-2" width="167" height="63" fill="#FDF2D0" rx="3"/>
      <text id="Windows-10-Home" fill="#4A4A4A" font-family="SanFranciscoText-Semibold, San Francisco Text" font-size="16" font-weight="500">
        <tspan x="14.898" y="15">Windows 10 Home</tspan>
      </text>
    </g>
    <g id="Group-2" transform="translate(551 55)">
      <rect id="Rectangle-2" width="167" height="63" fill="#FDF2D0" rx="3"/>
      <text id="Windows-10-Pro" fill="#4A4A4A" font-family="SanFranciscoText-Semibold, San Francisco Text" font-size="16" font-weight="500">
        <tspan x="24.059" y="15">Windows 10 Pro</tspan>
      </text>
    </g>
    <g id="Group-2" transform="translate(351 204)">
      <rect id="Rectangle-2" width="167" height="63" fill="#FDF2D0" rx="3"/>
      <text id="Upgrade-to-Windows-P" fill="#4A4A4A" font-family="SanFranciscoText-Semibold, San Francisco Text" font-size="16" font-weight="500">
        <tspan x="41.418" y="15">Upgrade to </tspan> <tspan x="34.57" y="34">Windows Pro</tspan>
      </text>
    </g>
    <g id="Arrow-07" transform="translate(267 225)">
      <path id="Stroke-07" stroke="#455A64" stroke-width="2" d="M0,10 L76,10"/>
      <polyline id="Arrow-head-07" fill="#455A64" points="66 20 84 10.001 66 0 66 20"/>
    </g>
    <g id="Arrow-07" transform="matrix(-1 0 0 1 601 401)">
      <path id="Stroke-07" stroke="#455A64" stroke-width="2" d="M0,10 L76,10"/>
      <polyline id="Arrow-head-07" fill="#455A64" points="66 20 84 10.001 66 0 66 20"/>
    </g>
    <text id="Do-you-use-Windows-c" fill="#4A4A4A" font-family="SanFranciscoText-Semibold, San Francisco Text" font-size="16" font-weight="500">
      <tspan x="38.969" y="230">Do you use Windows </tspan> <tspan x="71.137" y="249">containers?</tspan>
    </text>
    <g id="Arrow-07" transform="translate(433 78)">
      <path id="Stroke-07" stroke="#455A64" stroke-width="2" d="M0,126 L0,12.9987248 C0,11.3425748 1.33843432,10 3.00841793,10 L101.441406,10"/>
      <polyline id="Arrow-head-07" fill="#455A64" points="100 20 118 10.001 100 0 100 20"/>
    </g>
    <g id="Arrow-07" transform="rotate(90 63.5 181.5)">
      <path id="Stroke-07" stroke="#455A64" stroke-width="2" d="M0,10 L74,10"/>
      <polyline id="Arrow-head-07" fill="#455A64" points="64 20 82 10.001 64 0 64 20"/>
    </g>
    <g id="Arrow-07" transform="rotate(90 100 544)">
      <path id="Stroke-07" stroke="#455A64" stroke-width="2" d="M0,10 L76,10"/>
      <polyline id="Arrow-head-07" fill="#455A64" points="66 20 84 10.001 66 0 66 20"/>
    </g>
    <g id="Group-2" transform="translate(151 529)">
      <rect id="Rectangle-2" width="167" height="38" fill="#FDF2D0" rx="3"/>
      <text id="Remote-Docker" fill="#4A4A4A" font-family="SanFranciscoText-Semibold, San Francisco Text" font-size="16" font-weight="500">
        <tspan x="26.117" y="15">Remote Docker</tspan>
      </text>
    </g>
    <g id="Group-2" transform="translate(151 572)">
      <rect id="Rectangle-2" width="167" height="63" fill="#FDF2D0" rx="3"/>
      <text id="minikube-on-Virtualb" fill="#4A4A4A" font-family="SanFranciscoText-Semibold, San Francisco Text" font-size="16" font-weight="500">
        <tspan x="36.625" y="15">minikube on </tspan> <tspan x="43.707" y="34">Virtualbox</tspan>
      </text>
    </g>
    <g id="Group-2" transform="translate(551 529)">
      <rect id="Rectangle-2" width="167" height="38" fill="#FDF2D0" rx="3"/>
      <text id="Docker-for-Windows" fill="#4A4A4A" font-family="SanFranciscoText-Semibold, San Francisco Text" font-size="16" font-weight="500">
        <tspan x="8.199" y="15">Docker for Windows</tspan>
      </text>
    </g>
    <g id="Group-2" transform="translate(551 572)">
      <rect id="Rectangle-2" width="167" height="63" fill="#FDF2D0" rx="3"/>
      <text id="minikube-on-Hyper-V" fill="#4A4A4A" font-family="SanFranciscoText-Semibold, San Francisco Text" font-size="16" font-weight="500">
        <tspan x="36.625" y="15">minikube on </tspan> <tspan x="52.172" y="34">Hyper-V</tspan>
      </text>
    </g>
    <g id="Arrow-07" transform="rotate(90 -12 256.5)">
      <path id="Stroke-07" stroke="#455A64" stroke-width="2" d="M0,10 L255,10"/>
      <polyline id="Arrow-head-07" fill="#455A64" points="245 20 263 10.001 245 0 245 20"/>
    </g>
    <g id="Group" transform="translate(599 375)">
      <rect id="Rectangle" width="49.864" height="49.864" x="10.586" y="10.586" fill="#FDF2D0" transform="rotate(45 35.518 35.518)"/>
      <text id="?" fill="#4A4A4A" font-family="SanFranciscoText-Semibold, San Francisco Text" font-size="23" font-weight="500">
        <tspan x="29.772" y="22">?</tspan>
      </text>
    </g>
    <text id="Do-you-use-VirtualBo" fill="#4A4A4A" font-family="SanFranciscoText-Semibold, San Francisco Text" font-size="16" font-weight="500">
      <tspan x="687.742" y="406">Do you use </tspan> <tspan x="684.914" y="425">VirtualBox?</tspan>
    </text>
    <text id="Are-you-willing-to-r" fill="#4A4A4A" font-family="SanFranciscoText-Semibold, San Francisco Text" font-size="16" font-weight="500">
      <tspan x="417.887" y="326">Are you willing to </tspan> <tspan x="407.313" y="345">restart before using </tspan> <tspan x="438.914" y="364">VirtualBox?</tspan>
    </text>
    <g id="Group" transform="translate(199 199)">
      <rect id="Rectangle" width="49.864" height="49.864" x="10.586" y="10.586" fill="#FDF2D0" transform="rotate(45 35.518 35.518)"/>
      <text id="?" fill="#4A4A4A" font-family="SanFranciscoText-Semibold, San Francisco Text" font-size="23" font-weight="500">
        <tspan x="29.772" y="22">?</tspan>
      </text>
    </g>
    <g id="Arrow-07" transform="rotate(90 262.5 382)">
      <path id="Stroke-07" stroke="#455A64" stroke-width="2" d="M0,10 L249,10"/>
      <polyline id="Arrow-head-07" fill="#455A64" points="239 20 257 10.001 239 0 239 20"/>
    </g>
    <g id="Arrow-07" transform="matrix(1 0 0 -1 482 572)">
      <path id="Stroke-07" stroke="#455A64" stroke-width="2" d="M0,129 L0,13.0011061 C0,11.343641 1.3376562,10 3.0014819,10 L52,10"/>
      <polyline id="Arrow-head-07" fill="#455A64" points="51 20 69 10.001 51 0 51 20"/>
    </g>
    <path id="Stroke-07" stroke="#455A64" stroke-width="2" d="M235.990522,410 L450.002336,410"/>
    <g id="Group" transform="translate(447 375)">
      <rect id="Rectangle" width="49.864" height="49.864" x="10.586" y="10.586" fill="#FDF2D0" transform="rotate(45 35.518 35.518)"/>
      <text id="?" fill="#4A4A4A" font-family="SanFranciscoText-Semibold, San Francisco Text" font-size="23" font-weight="500">
        <tspan x="29.772" y="22">?</tspan>
      </text>
    </g>
    <g id="Group-3" transform="translate(395 398)">
      <g id="Rectangle-3">
        <use fill="#FFF" xlink:href="#path-1"/>
        <rect width="41" height="23" x=".5" y=".5" stroke="#455A64" rx="3"/>
      </g>
      <text id="NO" fill="#4A4A4A" font-family="SanFranciscoText-Semibold, San Francisco Text" font-size="16" font-weight="500">
        <tspan x="9.988" y="16">NO</tspan>
      </text>
    </g>
    <g id="Group-3" transform="translate(613 455)">
      <g id="Rectangle-3">
        <use fill="#FFF" xlink:href="#path-2"/>
        <rect width="41" height="23" x=".5" y=".5" stroke="#455A64" rx="3"/>
      </g>
      <text id="NO" fill="#4A4A4A" font-family="SanFranciscoText-Semibold, San Francisco Text" font-size="16" font-weight="500">
        <tspan x="9.988" y="16">NO</tspan>
      </text>
    </g>
    <circle id="Oval" cx="234.5" cy="409.5" r="3.5" fill="#455A64"/>
    <g id="Group-3" transform="translate(548 399)">
      <g id="Rectangle-3">
        <use fill="#FFF" xlink:href="#path-3"/>
        <rect width="41" height="23" x=".5" y=".5" stroke="#455A64" rx="3"/>
      </g>
      <text id="YES" fill="#4A4A4A" font-family="SanFranciscoText-Semibold, San Francisco Text" font-size="16" font-weight="500">
        <tspan x="6.938" y="16">YES</tspan>
      </text>
    </g>
    <g id="Group-3" transform="translate(461 456)">
      <g id="Rectangle-3">
        <use fill="#FFF" xlink:href="#path-4"/>
        <rect width="41" height="23" x=".5" y=".5" stroke="#455A64" rx="3"/>
      </g>
      <text id="YES" fill="#4A4A4A" font-family="SanFranciscoText-Semibold, San Francisco Text" font-size="16" font-weight="500">
        <tspan x="6.938" y="16">YES</tspan>
      </text>
    </g>
    <g id="Group-3" transform="translate(279 223)">
      <g id="Rectangle-3">
        <use fill="#FFF" xlink:href="#path-5"/>
        <rect width="41" height="23" x=".5" y=".5" stroke="#455A64" rx="3"/>
      </g>
      <text id="YES" fill="#4A4A4A" font-family="SanFranciscoText-Semibold, San Francisco Text" font-size="16" font-weight="500">
        <tspan x="6.938" y="16">YES</tspan>
      </text>
    </g>
    <g id="Group-3" transform="translate(213 280)">
      <g id="Rectangle-3">
        <use fill="#FFF" xlink:href="#path-6"/>
        <rect width="41" height="23" x=".5" y=".5" stroke="#455A64" rx="3"/>
      </g>
      <text id="NO" fill="#4A4A4A" font-family="SanFranciscoText-Semibold, San Francisco Text" font-size="16" font-weight="500">
        <tspan x="9.988" y="16">NO</tspan>
      </text>
    </g>
  </g>
</svg>
