<svg viewBox="0 0 1200 800" xmlns="http://www.w3.org/2000/svg" xmlns:xlink="http://www.w3.org/1999/xlink"><defs><path d="M18.525 520.034c-84.085 123.97 140.298 160.791 263.21 86.91 65.286-39.243 150.367 20.346 226.979 21.1 77.462.762 154.093-20.24 231.266-16.232 76.443 3.971 152.032 26.564 228.625 24.663 91.49-2.27 164.784-81.633 148.869-175.774-9.873-58.35-116.176-77.57-142.557-127.895-44.297-84.522-3.426-247.417-115.546-271.793-60.138-13.075-76.368 65.165-139.093 43.165C619.245 68.742 558.205-18.81 436.02 3.84c-61.304 11.363-96.945 66.214-156.48 82.451-74.357 20.28-143.105 16.499-199.695 79.489-71.95 80.093 23.164 138.336 19.488 219.6-.922 20.388-5.066 40.629-15.113 58.58-16.469 29.427-46.84 48.273-65.695 76.074z" id="path-1"></path><path id="path-3" d="M133.667.011l141.223 50.25-133.647 375.94L.02 375.951z"></path><path d="M10.449.29l7.496 6L9.7 16.04c-5.727.83-8.745-.762-9.296-4.557L10.449.29z" id="path-5"></path><path d="M11.5.078l5.189 6.646-9.374 5.824C2.135 11.82-.138 9.806.232 6.622L11.499.079z" id="path-7"></path><path d="M35.66.462c2.298 5.255 30.75 82.248 34.383 89.905 1.594 3.357 2.46 8.148 1.162 9.727-5.058 6.151-16.97 15.586-25.864 22.191-21.903 16.265-34.377 32.657-34.931 32.346-4.664-2.624-10.191-8.91-10.191-8.91s5.989-6.184 11.998-14.226c6.81-9.114 12.874-23.668 17.176-28.586 4.567-5.22 5.543-6.918 10.707-8.843C16.973 59.568 7.124 59.46 2.712 44.894-.693 33.65 1.94 22.129 8.81 12.157c2.15-3.12 5.927-5.372 9.1-7.308.425-.258 3.722-1.845 3.722-2.427" id="path-9"></path><path d="M102.08 3.179c.056 3.208-4.833 13.823-6.985 18.333-.606 1.27-.368 6.775-4.294 7.029-14.672.947-32.192 8.696-39.105 12.34-6.912 3.644-14.509 7.761-20.727 8.877-6.219 1.116-18.21 4.356-23.796 7.509C1.587 60.421.306 36.769.306 36.769s14.007-2.703 17.917-4.672c3.91-1.969 9.272-4.896 11.61-5.55 5.916-1.655 50.614-2.91 59.223-9.943 6.089-7.141 5.624-6.141 10.22-14.6" id="path-11"></path><path d="M99.844 2.357l-7.682 23.098s-.795 4.69-4.498 3.75c-13.834-3.512-32.282-1.394-39.732 0-7.45 1.394-15.669 3.035-21.74 2.228-6.072-.808-18.098-1.327-24.178 0-6.08 1.325 4.001-20.978 4.001-20.978s10.742 1.45 14.93.75c4.186-.701 8.608-2.33 10.96-2.25 5.949.203 51.737 14.2 55.76 7.584 2.024-2.097 6.078-6.979 6.932-10.128.853-3.15 1.154-5.052 2.998-6.018" id="path-13"></path><path d="M94.486.818c6.255.904 6.86 4.15 10.44 5.909 6.223 3.054 13.834 5.341 20.768 5.519 4.382.112 8.758-.132 13.135.203.852.066 3.88-.068 4.485.683 2.292 2.847-8.146 34.518-15.7 36.136-.92.197-1.68-.166-2.347-.437-1.682-.686-3.593-.85-5.366-1.172a201.474 201.474 0 0 0-15.16-2.176c-2.24-.231-4.79-.881-7.038-.47-2.45.448-4.51 5.346-6.148 7.084-4.686 4.978-10.654 8.349-15.855 12.73-4.993 4.204-7.662 10.235-12.17 14.839-2.472 2.523-5.91 4.189-8.647 6.431-3.568 2.923-6.34 6.549-8.984 10.312-2.259 3.213-5.472 6.43-7.485 9.803-.32.535-12.07-33.938-20.353-42.033-4.117-4.023-7.048-9.74-11.612-13.274-1.97-1.526-4.254-2.547-6.287-3.971l-.024-1.156c8.366 0 14.745-3.402 21.246-7.989 2.243-1.581 4.854-2.66 6.965-4.424 5.36-4.476 9.705-9.961 14.862-14.61" id="path-15"></path></defs><g transform="translate(39.666667, 77.000000)" fill="none" fill-rule="evenodd"><path d="M18.726 520.126c-84.044 124.028 140.232 160.866 263.086 86.95 65.254-39.26 150.294 20.355 226.87 21.11 77.425.763 154.02-20.25 231.156-16.24 76.406 3.974 151.96 26.577 228.516 24.676 91.446-2.272 164.705-81.672 148.798-175.856-9.869-58.377-116.12-77.606-142.489-127.955-44.276-84.56-3.424-247.531-115.49-271.919-60.11-13.08-76.333 65.195-139.027 43.186C619.16 68.625 558.15-18.967 436.022 3.693c-61.274 11.368-96.898 66.244-156.405 82.49-74.322 20.288-143.037 16.506-199.6 79.525-71.916 80.13 23.153 138.4 19.48 219.702-.923 20.397-5.065 40.648-15.106 58.607-16.462 29.44-46.818 48.295-65.665 76.109z" fill="#D3EAF2"></path><g transform="translate(0.333333, 0.000000)"><mask id="mask-2" fill="#fff"><use xlink:href="#path-1"></use></mask><path d="M38.052 444.577h1126.965s-66.128-152.408-179.275-141.18c-84.217 8.357-121.175 28.451-186.966-4.356-61.413-30.624-21.905-200.249-152.847-200.88-147.57-.707-101.031 191.256-168.725 197.48-57.674 5.305-65.892-96.263-139.085-125.598-73.193-29.335-227.306-36.68-300.067 274.534z" fill="#9BCBE1" mask="url(#mask-2)"></path><path fill="#FFF" mask="url(#mask-2)" d="M347.839 131.708h152.914v-5.55H347.839zm-13.886 23.553h67.646v-5.551h-67.646zm94.708 24.201h119.324v-6.583H428.661zm-67.241 18.605h119.324v-6.582H361.42zm-84.717 56.362h119.324v-6.583H276.703zm105.773-21.413h38.246v-5.55h-38.246zm-63.695-22.97h38.246v-5.551h-38.246z"></path><path fill="#272288" mask="url(#mask-2)" d="M383.676 455.541h38.246v-5.55h-38.246z"></path><path fill="#4CA9D8" mask="url(#mask-2)" d="M884.148 517.704H288.362l83.131 37.198h512.655z"></path><path d="M136.555 528.108c16.385-.829 19.61.071 34.124 0 17.966-.087 86.497 4.025 86.003 5.126-4.838 10.803-21.847 11.269-31.244 10.313-1.618-.164-12.418-2.262-13.393.654-.567 1.698-1.3 5.767 0 6.398 9.735 4.731 34.2 2.012 44.637 1.955 14.424-.078 92.533 5.689 122.254 2.348 16.473-1.853-3.985-13.086-5.91-14.007-14.865-7.11-31.115-10.261-47.288-12.787-19.3-3.013-8.726-8.61-28.197-10.346-29.954-2.669-89.284-.455-119.326 0-15.087.229-37.328-3.077-51.77-.41" fill="#4CA9D8" mask="url(#mask-2)"></path><path fill="#163F8E" mask="url(#mask-2)" d="M684.199 144.958l-67.783-31.359-37.408 397.818 67.783 31.359z"></path><path fill="#14397E" mask="url(#mask-2)" d="M681.871 169.719l-67.783-31.36-35.08 373.058 67.783 31.359z"></path><path fill="#316CE6" mask="url(#mask-2)" d="M813.035 157.084l-128.836-12.126-37.408 397.818 128.835 12.126z"></path><path fill="#272288" mask="url(#mask-2)" d="M807.472 216.256L678.635 204.13l-.546 5.808 128.836 12.125zm-4.101 43.579l-128.834-12.126-.546 5.808 128.833 12.126zm-4.093 43.581l-128.839-12.127-.546 5.809 128.838 12.126zm-4.1 43.58L666.341 334.87l-.546 5.808 128.835 12.125zm-4.101 43.579L662.243 378.45l-.546 5.807 128.84 12.126zm-4.093 43.581l-128.839-12.127-.546 5.808 128.837 12.127zm-4.101 43.58L654.047 465.61l-.546 5.808 128.835 12.126zm-4.258 45.286l-128.836-12.126-.547 5.808 128.836 12.126zm32.933-350.202l-128.839-12.126-.546 5.807 128.837 12.126zm-113.906-.888l-6.688-.63-2.798 29.751 6.688.63zm-4.098 43.58l-6.689-.63-2.797 29.751 6.689.63zm-4.098 43.58l-6.689-.629-2.797 29.75 6.689.63zm-4.098 43.58l-6.688-.629-2.798 29.75 6.689.63zm-4.097 43.58l-6.69-.629-2.797 29.75 6.689.63zm-4.099 43.58l-6.688-.629-2.798 29.75 6.688.63zm-4.097 43.58l-6.69-.629-2.797 29.75 6.689.63zm-4.259 45.287l-6.689-.629-2.798 29.75 6.689.629zm39.748-305.741l-6.688-.629-2.798 29.75 6.689.629zm-4.097 43.58l-6.689-.629-2.798 29.751 6.689.629zm-4.098 43.58l-6.689-.629-2.797 29.75 6.688.63zm-4.098 43.58l-6.689-.629-2.798 29.75 6.689.63zm-4.098 43.581l-6.689-.63-2.797 29.75 6.688.63zm-4.098 43.58l-6.689-.63-2.798 29.75 6.69.63zm-4.098 43.579l-6.689-.629-2.797 29.75 6.688.63zm-4.259 45.287l-6.688-.629-2.798 29.75 6.689.629zm39.746-305.741l-6.687-.629-2.796 29.75 6.687.629zm-4.093 43.581l-6.69-.63-2.798 29.75 6.691.63zm-4.101 43.58l-6.688-.63-2.797 29.75 6.689.63zm-4.097 43.579l-6.688-.629-2.798 29.75 6.689.63zm-4.098 43.581l-6.688-.63-2.798 29.75 6.689.63zm-4.098 43.58l-6.689-.63-2.797 29.751 6.689.629zm-4.098 43.579l-6.688-.629-2.798 29.75 6.689.63zm-4.258 45.287l-6.689-.629-2.797 29.75 6.688.63zm39.75-305.741l-6.687-.629-2.803 29.75 6.694.63zm-4.1 43.58l-6.687-.629-2.796 29.751 6.687.629zm-4.101 43.581l-6.687-.63-2.796 29.751 6.687.629zm-4.093 43.579l-6.687-.629-2.801 29.75 6.692.63zm-4.101 43.58l-6.687-.629-2.798 29.751 6.689.629zm-4.093 43.581l-6.692-.63-2.797 29.751 6.688.629zm-4.101 43.58l-6.689-.63-2.798 29.751 6.69.629zm-4.258 45.286l-6.69-.63-2.797 29.751 6.689.63zm39.748-305.741l-6.687-.629-2.797 29.75 6.687.63zm-4.101 43.581l-6.687-.63-2.796 29.751 6.687.629zm-4.093 43.58l-6.687-.63-2.804 29.751 6.694.629zm-4.101 43.58l-6.687-.63-2.796 29.751 6.687.629zm-4.093 43.579l-6.695-.629-2.796 29.751 6.687.63zm-4.101 43.581l-6.687-.629-2.804 29.75 6.695.629zm-4.1 43.58l-6.687-.63-2.798 29.751 6.688.629zm-4.259 45.286l-6.687-.63-2.797 29.751 6.688.63zm39.748-305.74l-6.687-.63-2.797 29.751 6.687.629zm-4.093 43.58l-6.687-.63-2.804 29.75 6.694.63zm-4.101 43.58l-6.687-.629-2.796 29.75 6.687.629zm-4.101 43.58l-6.687-.63-2.796 29.751 6.687.629zm-4.093 43.579l-6.687-.629-2.804 29.75 6.695.631zm-4.101 43.581l-6.687-.629-2.796 29.75 6.687.629zm-4.093 43.58l-6.694-.629-2.797 29.75 6.687.629zm-4.258 45.286l-6.694-.629-2.797 29.751 6.687.629zm39.747-305.74l-6.687-.63-2.803 29.751 6.694.629zm-4.1 43.58l-6.687-.63-2.797 29.751 6.687.629zm-4.101 43.58l-6.687-.629-2.796 29.75 6.687.63zm-4.093 43.58l-6.687-.629-2.804 29.75 6.695.629zm-4.101 43.58l-6.687-.63-2.796 29.751 6.687.629zm-4.093 43.58l-6.695-.629-2.796 29.75 6.687.63zm-4.101 43.58l-6.687-.629-2.803 29.75 6.694.629zm-4.258 45.287l-6.687-.63-2.804 29.75 6.695.63zm39.747-305.741l-6.687-.629-2.796 29.75 6.687.629zm-4.1 43.58l-6.687-.63-2.796 29.751 6.687.63zm-4.093 43.58l-6.687-.629-2.804 29.75 6.694.63zm-4.101 43.58l-6.687-.629-2.796 29.75 6.687.629zm-4.101 43.58l-6.687-.63-2.796 29.751 6.687.629zm-4.093 43.58l-6.687-.63-2.804 29.751 6.695.63zm-4.101 43.58l-6.687-.629-2.796 29.75 6.687.63zm-4.258 45.287l-6.687-.63-2.796 29.751 6.687.629zm39.748-305.741l-6.687-.629-2.797 29.75 6.687.629zm-4.094 43.58l-6.687-.63-2.803 29.751 6.694.629zm-4.1 43.58l-6.687-.63-2.796 29.751 6.687.63zm-4.101 43.58l-6.687-.629-2.796 29.75 6.687.63zm-4.093 43.58l-6.687-.629-2.804 29.75 6.695.63zm-4.101 43.58l-6.687-.63-2.796 29.752 6.687.629zm-4.093 43.58l-6.694-.629-2.797 29.75 6.687.63zm-4.266 45.287l-6.687-.63-2.796 29.751 6.687.63z"></path><path d="M798.169 181.393a5.406 5.406 0 0 1 4.872 5.892 5.406 5.406 0 1 1-10.765-1.013 5.408 5.408 0 0 1 5.893-4.88zm-4.101 43.579a5.413 5.413 0 0 1 4.88 5.893c-.285 2.973-2.923 5.16-5.892 4.88a5.407 5.407 0 0 1-4.873-5.893 5.406 5.406 0 0 1 5.885-4.88zm-4.093 43.581a5.412 5.412 0 0 1 4.873 5.892 5.41 5.41 0 0 1-5.893 4.88 5.413 5.413 0 0 1-4.873-5.893 5.408 5.408 0 0 1 5.893-4.88z" fill="#FFF" mask="url(#mask-2)"></path><path d="M785.874 312.133a5.406 5.406 0 0 1 4.873 5.893 5.406 5.406 0 1 1-10.765-1.014 5.418 5.418 0 0 1 5.892-4.88z" fill="#19175B" mask="url(#mask-2)"></path><path d="M781.773 355.712a5.413 5.413 0 0 1 4.88 5.893 5.406 5.406 0 1 1-10.765-1.013 5.407 5.407 0 0 1 5.885-4.88zm-4.093 43.581a5.412 5.412 0 0 1 4.873 5.892 5.406 5.406 0 0 1-5.885 4.88 5.413 5.413 0 0 1-4.88-5.893 5.408 5.408 0 0 1 5.892-4.88zm-4.1 43.58a5.417 5.417 0 0 1 4.88 5.892c-.285 2.973-2.924 5.159-5.892 4.88a5.417 5.417 0 0 1-4.88-5.893 5.417 5.417 0 0 1 5.892-4.88zm-4.258 45.287a5.417 5.417 0 0 1 4.88 5.892c-.285 2.972-2.924 5.159-5.892 4.879a5.412 5.412 0 0 1-4.88-5.893c.284-2.972 2.923-5.159 5.892-4.879z" fill="#FFF" mask="url(#mask-2)"></path><path d="M796.587 198.237a5.412 5.412 0 0 1 4.873 5.893 5.41 5.41 0 0 1-5.893 4.88 5.412 5.412 0 0 1-4.872-5.893 5.408 5.408 0 0 1 5.892-4.88zm-4.101 43.58a5.406 5.406 0 0 1 4.873 5.893 5.406 5.406 0 1 1-10.765-1.014c.285-2.972 2.924-5.159 5.892-4.879zm-4.1 43.58a5.413 5.413 0 0 1 4.88 5.892 5.413 5.413 0 0 1-5.893 4.88 5.406 5.406 0 0 1-4.872-5.893 5.406 5.406 0 0 1 5.885-4.88zm-4.094 43.58a5.412 5.412 0 0 1 4.873 5.893 5.406 5.406 0 0 1-5.885 4.88 5.413 5.413 0 0 1-4.88-5.894 5.408 5.408 0 0 1 5.892-4.879zm-4.1 43.58a5.417 5.417 0 0 1 4.88 5.893c-.285 2.972-2.924 5.159-5.892 4.879a5.417 5.417 0 0 1-4.88-5.892c.284-2.973 2.923-5.16 5.892-4.88zm-4.101 43.58a5.411 5.411 0 0 1 4.88 5.892 5.406 5.406 0 1 1-10.765-1.013 5.406 5.406 0 0 1 5.885-4.879z" fill="#1DBDCE" mask="url(#mask-2)"></path><path d="M771.998 459.717a5.407 5.407 0 0 1 4.873 5.893 5.406 5.406 0 1 1-10.766-1.014 5.408 5.408 0 0 1 5.893-4.879z" fill="#19175B" mask="url(#mask-2)"></path><path d="M767.74 505.003a5.406 5.406 0 0 1 4.873 5.893 5.406 5.406 0 0 1-5.885 4.88 5.413 5.413 0 0 1-4.88-5.893 5.408 5.408 0 0 1 5.892-4.88z" fill="#1DBDCE" mask="url(#mask-2)"></path><path d="M660.463 521.156a2.454 2.454 0 0 1-.458 4.884 2.454 2.454 0 0 1 .458-4.884zm9.928.934a2.453 2.453 0 0 1-.46 4.885 2.454 2.454 0 0 1 .46-4.884zm9.927.935a2.454 2.454 0 0 1-.46 4.884 2.454 2.454 0 0 1 .46-4.884zm9.927.934a2.453 2.453 0 1 1-.46 4.884 2.453 2.453 0 0 1 .46-4.884zm9.927.935a2.454 2.454 0 0 1-.458 4.884 2.454 2.454 0 0 1 .458-4.885zm9.926.934a2.452 2.452 0 0 1 2.212 2.672 2.45 2.45 0 1 1-4.88-.46 2.453 2.453 0 0 1 2.668-2.212zm-45.048.687a2.454 2.454 0 0 1-.459 4.884 2.453 2.453 0 0 1 .459-4.884zm9.927.935a2.454 2.454 0 0 1-.459 4.883 2.454 2.454 0 0 1 .459-4.884zm9.928.934a2.453 2.453 0 0 1-.46 4.884 2.453 2.453 0 0 1 .46-4.884zm9.927.934a2.454 2.454 0 0 1-.46 4.884 2.453 2.453 0 0 1 .46-4.884zm9.927.934a2.453 2.453 0 1 1-.46 4.884 2.453 2.453 0 0 1 .46-4.884zm9.927.935a2.452 2.452 0 1 1-.458 4.881 2.452 2.452 0 0 1 .458-4.881zm-55.141-.263a2.454 2.454 0 0 1-.459 4.884 2.454 2.454 0 0 1 .46-4.884zm9.927.935a2.454 2.454 0 0 1-.459 4.884 2.453 2.453 0 1 1 .459-4.884zm9.928.934a2.453 2.453 0 0 1-.46 4.884 2.454 2.454 0 0 1 .46-4.884zm9.927.934a2.453 2.453 0 0 1-.46 4.884 2.453 2.453 0 0 1 .46-4.884zm9.927.935a2.454 2.454 0 0 1-.459 4.883 2.454 2.454 0 0 1 .46-4.883zm9.927.934a2.457 2.457 0 0 1 2.214 2.672 2.454 2.454 0 1 1-2.214-2.672zm-45.049.687a2.454 2.454 0 0 1-.46 4.884 2.453 2.453 0 0 1 .46-4.884zm9.927.934a2.454 2.454 0 0 1-.46 4.885 2.454 2.454 0 0 1 .46-4.885zm9.927.935a2.454 2.454 0 0 1-.46 4.884 2.453 2.453 0 1 1 .459-4.884zm9.927.934a2.454 2.454 0 0 1-.46 4.884 2.454 2.454 0 0 1 .46-4.884zm9.927.934a2.454 2.454 0 0 1-.459 4.884 2.453 2.453 0 0 1 .46-4.884zm9.931.935a2.451 2.451 0 0 1 2.204 2.671 2.447 2.447 0 0 1-2.668 2.213 2.457 2.457 0 0 1-2.212-2.672 2.458 2.458 0 0 1 2.676-2.212z" fill="#272288" mask="url(#mask-2)"></path><path fill="#163F8E" mask="url(#mask-2)" d="M628.732 155.261L487.509 105.01 353.862 480.951l141.223 50.25z"></path><g mask="url(#mask-2)"><g transform="translate(353.842035, 105.000000)"><mask id="mask-4" fill="#fff"><use xlink:href="#path-3"></use></mask><path d="M64.565 251.038c13.789-26.964 41.061-78.625 41.061-78.625l-.45 5.282s-12.178 36.612-20.756 62.973a7.7 7.7 0 0 1 1.688.952c2.318 1.72 3.324 3.931 3.584 6.384a2995.727 2995.727 0 0 1 16.575-27.427l.165 4.683s-13.147 46.523-14.885 65.89c.055.258.109.516.16.775 1.741 8.703.874 18.65 1.55 27.503l12.044 13.687c6.233 8.931 6.894 19.102 5.793 29.727-1.863 17.985-8.669 35.143-25.318 44.018-7.943 4.234-18.263 4.487-26.97 3.819-16.041-1.232-30.428-5.967-43.401-15.574C8.19 389.762 1.21 383.655-2.64 375.34c-13.87-29.94 12.442-57.923 28.102-80.677 5.49-7.977 8.677-17.662 14.9-25.103 3.006-3.594 7.057-6.116 10.88-8.745 4.019-2.765 8.256-5.241 11.921-8.484.477-.422.943-.855 1.402-1.293z" fill="#14397E" mask="url(#mask-4)"></path></g></g><path fill="#316CE6" mask="url(#mask-2)" d="M679.868 172.878l-121.907-43.429-133.978 376.422L545.891 549.3z"></path><path fill="#272288" mask="url(#mask-2)" d="M659.941 228.867l-121.908-43.429-1.956 5.496 121.908 43.428zm-14.677 41.236l-121.908-43.428-1.956 5.495 121.908 43.429zm-14.677 41.236l-121.908-43.428-1.956 5.495 121.907 43.429zm-14.677 41.237l-121.908-43.429-1.956 5.495 121.907 43.429zm-14.678 41.236l-121.907-43.429-1.956 5.496 121.907 43.429zm-14.677 41.236l-121.907-43.429-1.956 5.496L584.6 440.543zm-14.677 41.236l-121.907-43.428-1.956 5.495 121.908 43.429zm-15.251 42.851L434.72 475.706l-1.956 5.496 121.907 43.428zm117.942-331.367l-121.907-43.429-1.956 5.495 121.907 43.429zm-110.193-28.864l-6.329-2.255-10.02 28.15 6.33 2.255zm-14.677 41.236l-6.33-2.255-10.019 28.151 6.33 2.254zm-14.677 41.236l-6.33-2.255-10.019 28.151 6.33 2.255zm-14.677 41.236l-6.329-2.254-10.02 28.15 6.33 2.254zm-14.677 41.237l-6.329-2.255-10.02 28.15 6.33 2.255zm-14.677 41.235l-6.329-2.254-10.02 28.15 6.33 2.255zm-14.677 41.237l-6.329-2.255-10.02 28.151 6.329 2.254zm-15.252 42.85l-6.329-2.254-10.02 28.15 6.33 2.255zm113.63-286.592l-6.329-2.255-10.02 28.15 6.33 2.255zm-14.677 41.236l-6.329-2.255-10.02 28.151 6.33 2.254zm-14.677 41.236l-6.329-2.254-10.02 28.15 6.33 2.255zm-14.677 41.236l-6.329-2.254-10.02 28.15 6.33 2.255zm-14.677 41.237l-6.329-2.255-10.02 28.15 6.33 2.255zm-14.677 41.235l-6.329-2.254-10.019 28.15 6.329 2.255zm-14.677 41.237l-6.329-2.255-10.019 28.151 6.329 2.254zm-15.252 42.85l-6.328-2.254-10.02 28.15 6.329 2.255zm113.63-286.592l-6.329-2.255-10.02 28.15 6.33 2.256zm-14.677 41.236l-6.329-2.255-10.02 28.151 6.33 2.254zm-14.677 41.236l-6.328-2.254-10.021 28.15 6.33 2.255zm-14.677 41.236l-6.329-2.255-10.019 28.151 6.329 2.255zM526.3 331.199l-6.329-2.255-10.019 28.15 6.329 2.255zm-14.677 41.236l-6.329-2.255-10.019 28.15 6.329 2.255zm-14.677 41.236l-6.329-2.255-10.019 28.151 6.329 2.254zm-15.252 42.85l-6.328-2.254-10.02 28.15 6.329 2.255zm113.63-286.592l-6.328-2.255-10.02 28.15 6.329 2.255zm-14.677 41.236l-6.328-2.255-10.02 28.151 6.329 2.254zm-14.677 41.236l-6.328-2.254-10.02 28.15 6.329 2.255zm-14.677 41.236l-6.329-2.255-10.019 28.151 6.329 2.255zm-14.677 41.236l-6.329-2.254-10.019 28.15 6.329 2.255zm-14.677 41.237l-6.329-2.255-10.019 28.15 6.329 2.255zm-14.676 41.236l-6.33-2.255-10.019 28.151 6.329 2.254zm-15.252 42.85l-6.329-2.254-10.019 28.15 6.328 2.255zM605.64 173.604l-6.328-2.254-10.02 28.149 6.329 2.256zm-14.677 41.236l-6.328-2.255-10.02 28.151 6.329 2.254zm-14.677 41.236l-6.328-2.254-10.02 28.15 6.329 2.255zm-14.676 41.237l-6.329-2.255-10.02 28.15 6.329 2.254zm-14.677 41.235l-6.33-2.254-10.019 28.151 6.329 2.254zm-14.677 41.237l-6.33-2.255-10.019 28.15 6.329 2.255zm-14.677 41.236l-6.33-2.255-10.019 28.151 6.329 2.254zm-15.252 42.851l-6.329-2.255-10.019 28.15 6.328 2.255zm113.63-286.593l-6.329-2.255-10.02 28.151 6.329 2.254zm-14.677 41.237l-6.329-2.256-10.02 28.151 6.329 2.254zm-14.677 41.235l-6.329-2.254-10.02 28.15 6.329 2.255zm-14.677 41.237l-6.329-2.255-10.02 28.15 6.329 2.254zm-14.677 41.236l-6.33-2.255L540.9 368.12l6.329 2.254zm-14.677 41.236l-6.33-2.255-10.019 28.15 6.33 2.256zm-14.677 41.236l-6.33-2.255-10.019 28.151 6.33 2.254zm-15.252 42.851l-6.329-2.255-10.019 28.15 6.329 2.255zm113.63-286.593l-6.329-2.254-10.019 28.15 6.328 2.255zm-14.677 41.236l-6.329-2.255-10.02 28.151 6.329 2.254zm-14.677 41.236l-6.329-2.254-10.02 28.15 6.329 2.255zm-14.677 41.237l-6.329-2.255-10.02 28.15 6.33 2.255zm-14.677 41.236l-6.329-2.255-10.02 28.151 6.33 2.254zm-14.677 41.236l-6.329-2.255-10.02 28.15 6.33 2.256zm-14.677 41.236l-6.329-2.255-10.02 28.151 6.33 2.254zm-15.252 42.851l-6.329-2.255-10.019 28.15 6.329 2.256zm113.63-286.593l-6.329-2.254-10.019 28.15 6.329 2.255zm-14.677 41.236l-6.329-2.255-10.019 28.151 6.329 2.255zm-14.677 41.236l-6.329-2.254-10.02 28.15 6.33 2.255zm-14.677 41.237l-6.329-2.255-10.02 28.15 6.33 2.255zm-14.677 41.236l-6.329-2.255-10.02 28.15 6.33 2.255zm-14.677 41.236l-6.329-2.255-10.02 28.151 6.33 2.255zm-14.677 41.236l-6.329-2.255-10.02 28.151 6.33 2.254zm-15.252 42.851l-6.328-2.255-10.02 28.15 6.329 2.256zm113.63-286.593l-6.329-2.255-10.019 28.151 6.329 2.254zm-14.677 41.237l-6.329-2.255-10.019 28.15 6.329 2.255zm-14.677 41.235l-6.329-2.254-10.02 28.15 6.33 2.255zm-14.677 41.237l-6.329-2.255-10.02 28.15 6.33 2.255zm-14.677 41.235l-6.329-2.254-10.02 28.15 6.33 2.255zm-14.677 41.237l-6.328-2.254-10.02 28.15 6.329 2.254zm-14.677 41.236l-6.329-2.255-10.019 28.151 6.329 2.254zm-15.252 42.851l-6.328-2.255-10.02 28.15 6.329 2.256z"></path><path d="M659.485 192.786a5.409 5.409 0 1 1-3.628 10.192 5.41 5.41 0 0 1 3.628-10.192z" fill="#F1D69C" mask="url(#mask-2)"></path><path d="M644.808 234.022a5.408 5.408 0 1 1-3.628 10.192 5.41 5.41 0 0 1 3.628-10.192z" fill="#FFF" mask="url(#mask-2)"></path><path d="M630.131 275.258a5.409 5.409 0 1 1-3.628 10.193 5.41 5.41 0 0 1 3.628-10.193z" fill="#F1D69C" mask="url(#mask-2)"></path><path d="M615.454 316.494a5.408 5.408 0 1 1-3.628 10.192 5.41 5.41 0 0 1 3.628-10.192z" fill="#272288" mask="url(#mask-2)"></path><path d="M600.777 357.73a5.409 5.409 0 1 1-3.628 10.192 5.41 5.41 0 1 1 3.628-10.192z" fill="#FFF" mask="url(#mask-2)"></path><path d="M586.1 398.966a5.409 5.409 0 1 1-3.628 10.192 5.41 5.41 0 1 1 3.628-10.192z" fill="#F1D69C" mask="url(#mask-2)"></path><path d="M571.423 440.203a5.41 5.41 0 1 1-3.628 10.192 5.409 5.409 0 1 1 3.628-10.192zm-15.252 42.85a5.41 5.41 0 0 1-3.628 10.192 5.41 5.41 0 0 1 3.628-10.192z" fill="#FFF" mask="url(#mask-2)"></path><path d="M653.812 208.724a5.409 5.409 0 1 1-3.628 10.192 5.41 5.41 0 1 1 3.628-10.192zm-14.677 41.236a5.41 5.41 0 1 1-3.628 10.193 5.409 5.409 0 1 1 3.628-10.193zm-14.677 41.237a5.409 5.409 0 1 1-3.628 10.192 5.41 5.41 0 1 1 3.628-10.192zm-14.676 41.236a5.41 5.41 0 1 1-3.628 10.192 5.409 5.409 0 1 1 3.628-10.192zm-14.678 41.236a5.41 5.41 0 1 1-3.628 10.192 5.409 5.409 0 1 1 3.628-10.192zm-14.677 41.236a5.41 5.41 0 0 1-3.628 10.192 5.413 5.413 0 0 1-3.28-6.91 5.408 5.408 0 0 1 6.908-3.282z" fill="#1DBDCE" mask="url(#mask-2)"></path><path d="M565.75 456.141a5.41 5.41 0 0 1-3.628 10.193 5.41 5.41 0 1 1 3.628-10.193z" fill="#272288" mask="url(#mask-2)"></path><path d="M550.499 498.992a5.409 5.409 0 1 1-3.628 10.192 5.409 5.409 0 1 1 3.628-10.192z" fill="#1DBDCE" mask="url(#mask-2)"></path><path d="M219.38 373.324c-12.92 10.43-21.58 26.931-30.188 40.81-5.442 8.77-8.658 19.188-14.202 29.793-4.85 5.546-14.444 10.57-18.877 16.51-6.798 9.112-24.456 27.025-31.148 32.26-1.281 1.003 6.079 7.12 6.093 7.116 23.077-7.23 43.604-23.958 61.92-40.612 6.441-5.857 32.01-30.431 35.26-39.953" fill="#14397E" mask="url(#mask-2)"></path><path d="M196.815 525.232l10.046-11.192 7.497 6-8.247 9.75c-5.727.83-8.745-.762-9.296-4.558z" fill="#FFBFAE" mask="url(#mask-2)"></path><g mask="url(#mask-2)"><g transform="translate(196.412316, 513.750000)"><mask id="mask-6" fill="#fff"><use xlink:href="#path-5"></use></mask><path d="M3.702 5.384c3.844 2.606 8.081 3.914 12.81 3.599l1.433-3.599L7.125.29 3.702 5.384z" fill="#FBA690" mask="url(#mask-6)"></path></g></g><path d="M115.68 500.123l11.268-6.545 5.19 6.646-9.374 5.824c-5.18-.728-7.453-2.742-7.084-5.925z" fill="#FFBFAE" mask="url(#mask-2)"></path><g mask="url(#mask-2)"><g transform="translate(115.448461, 493.500000)"><mask id="mask-8" fill="#fff"><use xlink:href="#path-7"></use></mask><path d="M4.476 2.527c2.767 3.03 6.167 5.112 10.36 6.01l2.056-2.542L8.601-.73 4.476 2.527z" fill="#FBA690" mask="url(#mask-8)"></path></g></g><path d="M229.288 366.923c0 .582-3.297 2.168-3.721 2.426-3.174 1.936-6.951 4.188-9.101 7.308-6.87 9.972-9.502 21.493-6.096 32.737 4.411 14.566 14.26 14.674 37.387 49.172-5.164 1.925-6.14 3.623-10.707 8.843-4.301 4.918-10.366 19.472-17.176 28.586-6.009 8.043-11.998 14.226-11.998 14.226s5.527 6.286 10.191 8.91c.554.31 13.028-16.081 34.932-32.346 8.894-6.605 20.806-16.04 25.863-22.19 1.3-1.58.432-6.371-1.161-9.728-3.634-7.657-32.086-84.65-34.384-89.905" fill="#163F8E" mask="url(#mask-2)"></path><g mask="url(#mask-2)"><g transform="translate(207.657296, 364.500000)"><mask id="mask-10" fill="#fff"><use xlink:href="#path-9"></use></mask><path d="M47.04 98.594c-1.712 3.504-4.643 10.619-11.357 13.526-12.777 5.53-20.233 17.81-25.054 21.46-4.84 3.664-7.226-26.416-2.165-31.353 2.741-2.674 6.724-5.19 6.223-9.551-.635-5.531-5.338-9.6-7.322-14.622-2.21-5.594-1.106-10.01-1.22-15.665-.04-2.007-.376-3.966-.646-5.948-.08-.586-.362-1.743-.032-2.291.977-1.625 4.624 3.468 5.253 3.977 4.681 3.791 8.086 6.872 12.467 11.017 2.27 2.147 4.659 4.19 6.725 6.54 1.882 2.14 3.43 4.553 5.42 6.602 2.605 2.68 5.675 4.82 8.29 7.485 1.518 1.547 3.179 2.959 4.653 4.542.211.226 1.288 1.32 1.115 1.694-.503 1.081-2.18 1.355-2.7 2.455" fill="#14397E" mask="url(#mask-10)"></path></g></g><path d="M357.896 312.769s14.007-2.703 17.917-4.672c3.91-1.969 9.272-4.896 11.61-5.55 5.916-1.655 50.615-2.91 59.223-9.943 6.089-7.141 5.625-6.142 10.22-14.6.668-2.026 2.737-2.568 2.804 1.174.056 3.209-4.833 13.824-6.985 18.334-.606 1.27-.368 6.775-4.294 7.029-14.672.947-32.192 8.697-39.104 12.34-6.913 3.644-14.51 7.761-20.728 8.877-6.218 1.116-18.21 4.356-23.796 7.509-5.586 3.154-6.867-20.498-6.867-20.498z" fill="#FEBEB4" mask="url(#mask-2)"></path><g mask="url(#mask-2)"><g transform="translate(357.590361, 276.000000)"><mask id="mask-12" fill="#fff"><use xlink:href="#path-11"></use></mask><path d="M86.53 28.989c-7.018.612-15.018-.858-22.096-.265-5.23.438-10.02 2.357-15.23 2.94-5.429.605-10.456-.244-15.558 1.998-.641.282-1.982.324-2.402.81C23.61 43.296 3.23 42.882.96 43.742c-1.718.65.09 2.705-1.705 2.917-.563.067 8.148 6.96 8.403 7.795.51 1.675 4.927 1.126 6.064 1.126 6.343 0 12.588-.77 18.773-2.152 6.582-1.471 13.143-3.134 19.855-3.88 8.673-.965 17.843-1.075 26.125-4.088 6.016-2.189 10.693-5.779 15.836-9.407 2.813-1.983 7.086-2.65 9.28-5.342" fill="#FE9F90" mask="url(#mask-12)"></path></g></g><path d="M367.354 327.49c0-1.823-1.887-5.019-2.617-6.747-1.287-3.043-2.616-5.961-4.805-8.474-.564-.649-1.462-1.926-2.293-2.225-1.723-.62-5.19 1.522-6.863 2.024-5.906 1.774-11.85 3.409-17.974 4.242-6.22.846-12.558 1.726-18.596 3.486-3.288.958-6.995 2.778-8.948 5.724-1.067 1.61.522 3.773 1.239 5.202 2.828 5.637 6.293 7.428 12.492 8.625 5.118.988 10.328 1.442 15.476 2.239" fill="#D3EAF2" mask="url(#mask-2)"></path><path d="M338.802 371.205c13.668 6.159 28.071 7.946 43.48 3.75l-11.994-33.75-26.988-3.75-4.498 33.75z" fill="#FBA690" mask="url(#mask-2)"></path><path fill="#FEBEB4" mask="url(#mask-2)" d="M362.746 376.287l-15.342 4.178 1.519-8.948z"></path><path d="M335.834 328.146c1.66-4.92 18.23-4.724 21.918-1.18 5.447 5.234 14.526-5.252 22.475-2.32 4.633 1.709 6.136 6.3 5.825 10.883-.405 5.961-6.521 9.225-6.462 15.627.097 10.551 15.47 25.298 4.398 35.003-3.02 2.647-11.452-4.345-12.499-7.229-1.203-3.317 1.838-6.68.685-9.63-1.577-4.034-7.011-3.227-9.84-5.846-4.422-4.091 3.896-8.295-3.804-10.578a37.806 37.806 0 0 0-3.984-.952c-1.673-.304-3.415-.57-5.12-.457-10.598.706.734 15.15-7.234 20.517-3.978 2.68-9.875 1.196-14.372 2.865-2.744 1.019-4.279 3.753-7.461 3.542-5.87-.391-4.48-7.413-1.86-10.424 5.871-6.748 21.258-6.14 22.541-16.55 1.032-8.38-8.52-14.57-5.206-23.271z" fill="#0A2139" mask="url(#mask-2)"></path><path d="M367.354 334.455s10.742 1.45 14.929.75c4.187-.701 8.609-2.33 10.96-2.25 5.95.203 51.737 14.2 55.76 7.584 2.025-2.097 6.078-6.979 6.932-10.128.853-3.15 1.155-5.052 2.999-6.018 1.844-.966 2.249 1.964 2.249 1.964l-7.682 23.098s-.795 4.69-4.498 3.75c-13.834-3.512-32.283-1.394-39.732 0-7.45 1.394-15.669 3.035-21.74 2.228-6.072-.808-18.098-1.327-24.179 0-6.08 1.326 4.002-20.978 4.002-20.978z" fill="#FEBEB4" mask="url(#mask-2)"></path><g mask="url(#mask-2)"><g transform="translate(361.338688, 324.000000)"><mask id="mask-14" fill="#fff"><use xlink:href="#path-13"></use></mask><path d="M9.75 11.213c1.362 2.724 2.452 6.238 1.317 9.021-2.825 6.93 21.34 6.032 27.851 4.334 1.958-.511 39.01 2.055 48.333 3.707 3.74.663 9.455 1.8 8.174 6.997-.704 2.857-3.392 4.227-5.946 5.16-5.203 1.904-10.83 2.795-16.303 3.488-5.815.737-11.67 1.072-17.522 1.363-4.753.237-9.508.44-14.266.557a360.65 360.65 0 0 1-11.95.094c-2.983-.026-5.967-.063-8.95-.078-3.877-.019-7.752-.021-11.628-.13-2.221-.062-4.596.027-6.735-.662-2.778-.896-4.41-2.972-6.245-5.104-3.364-3.907-5.36-6.347-3.178-11.416" fill="#FE9F90" mask="url(#mask-14)"></path></g></g><path d="M228.036 365.278c8.366 0 14.745-3.402 21.246-7.989 2.243-1.581 4.854-2.66 6.966-4.424 5.36-4.476 9.704-9.961 14.862-14.61 2.618-2.36 22.46-22.105 51.274-17.938 6.255.905 6.86 4.151 10.441 5.91 6.222 3.055 13.833 5.341 20.767 5.519 4.382.113 8.758-.132 13.135.203.852.066 3.88-.068 4.485.683 2.292 2.847-8.145 34.519-15.699 36.135-.921.198-1.68-.164-2.348-.436-1.682-.686-3.592-.85-5.366-1.172a201.474 201.474 0 0 0-15.16-2.176c-2.239-.231-4.79-.881-7.038-.47-2.45.448-4.51 5.346-6.148 7.084-4.686 4.978-10.654 8.349-15.855 12.73-4.993 4.204-7.662 10.235-12.17 14.839-2.472 2.523-5.909 4.188-8.647 6.431-3.568 2.923-6.339 6.549-8.984 10.312-2.258 3.213-5.472 6.43-7.485 9.803-.32.536-12.069-33.938-20.353-42.033-4.117-4.023-7.048-9.74-11.611-13.274-1.97-1.526-4.255-2.547-6.288-3.971" fill="#FFF" mask="url(#mask-2)"></path><g mask="url(#mask-2)"><g transform="translate(227.898260, 319.500000)"><mask id="mask-16" fill="#fff"><use xlink:href="#path-15"></use></mask><path d="M140.416 28.873c0 .462-1.295 1.534-1.585 1.855-1.774 1.962-4.116 3.469-6.777 3.876-2.177.333-4.328-.17-6.462.637-2.495.944-4.304 2.98-7.036 3.478-3.43.627-6.152-1.579-9.483-1.304-2.089.173-3.751 2.37-5.81 2.928-1.963.53-4.775.86-6.648-.094-.804-.409-1.578-.953-2.104-1.698-.09-.13-.44-.876-.595-.868-.11.006-.002.435.007.477.346 1.57 1.52 2.69 2.348 4.007 1.142 1.82 2.05 3.819 2.809 5.822.613 1.623 1.065 3.289 2.52 4.372 2.604 1.938 6.028 3.021 9.126 3.807 4.98 1.263 10.12 1.957 15.26 1.909 4.957-.046 12.926.116 16.65-3.928 1.948-2.118 1.857-5.888 1.75-8.563-.135-3.376-.81-6.692-1.26-10.032" fill="#D3EAF2" mask="url(#mask-16)"></path><path d="M92.837 124.17c-13.18 8.33-27.871 13.556-43.185 16.194-7.02 1.21-14.502 2.367-21.333-.304-11.14-4.355-17.908-15.918-20.376-27.183-1.404-6.405-1.473-13.131-1.695-19.66a431.592 431.592 0 0 1-.231-10.284c-.054-5.241-.057-10.484.066-15.724.04-1.681-.288-4.874.893-6.344.542-.675 2.532-.04 3.177.068 3.209.541 6.056 1.412 8.5 3.621 2.825 2.553 3.427 5.912 4.968 9.213 1.07 2.291 2.578 4.04 4.465 5.692.868.76 1.84 1.83 2.973 2.176 1.091.333 2.134-1.063 3.279-1.149 1.865-.14 3.915.887 5.884.855 3.63-.057 4.934-2.595 7.993-3.866 1.958-.814 4.016-1.35 5.937-2.248 1.503-.703 2.824-1.743 4.365-2.367 1.476-.597 3.504-.531 4.796-1.486 1.373-1.013 1.472-2.731 2.508-3.968 1.113-1.326 2.908-1.885 4.107-3.167 1.555-1.664 2.33-3.93 3.989-5.488 1.33-1.248 3.365-1.091 4.915-2.043 1.55-.95 1.814-2.89 3.24-3.973 1.964-1.494 4.505-1.733 6.443-3.274 1.926-1.53 2.705-4.048 4.057-6.005.69-.998 1.782-1.562 2.62-2.394l.04.248c1.09 0 2.353-.166 3.398.18 4.244 1.406 6.059 6.075 7.842 9.69 1.7 3.445 4.662 6.163 5.338 10.06.886 5.12-.958 10.24-2.701 14.958-1.772 4.795-3.477 9.668-4.563 14.67L92.837 124.17z" fill="#D3EAF2" mask="url(#mask-16)"></path><path fill="#FFF" mask="url(#mask-16)" d="M92.92 34.34l.018.079.026.116.027.115.029.116.03.117.031.117.031.118.032.118.034.119.035.119.021.074.014.045.035.121.037.12.037.121.039.122.039.121.041.122.04.123.043.122.043.123.044.124.044.123.046.124.046.124.048.124.048.125.049.125.05.125.051.125.052.127.052.125.054.126.054.126.034.079.02.048.055.126.056.127.056.127.057.126.058.128.058.127.059.127.06.128.061.127.061.127.063.128.063.127.025.05.038.077.063.129.064.127.064.128.066.127.066.128.067.127.068.128.068.127.068.127.07.127.069.127.051.092.02.035.069.127.07.127.071.128.072.126.072.127.072.126.073.126.074.126.075.126.075.125.058.097.017.028.073.125.074.125.075.126.076.125.043.071.032.053.074.126.075.125.076.124.053.088.022.038.073.125.074.125.075.125.036.061.037.064.074.125.073.126.074.124.021.035.052.09.073.126.074.124.073.124.006.009.067.116.074.125.073.123.061.102.013.022.072.125.073.124.073.123.074.123.074.123.074.122.076.121.012.019.062.103.073.122.074.121.074.121.076.121.075.119.077.119.009.014.065.106.074.12.074.12.076.118.076.118.076.117.077.116.078.116.078.114.077.114.08.114.079.112.009.013.069.101.078.113.079.112.08.112.079.111.08.109.081.109.068.091.014.017.002.139-.138.002-.019-.013-.092-.065-.112-.08-.112-.081-.112-.083-.111-.084-.112-.084-.111-.086-.099-.077-.012-.01-.109-.091-.108-.091-.108-.092-.108-.094-.108-.095-.107-.095-.108-.097-.107-.097-.107-.098-.106-.1-.107-.1-.094-.09-.012-.012-.103-.104-.102-.106-.103-.106-.101-.108-.102-.108-.101-.108-.085-.093-.016-.018-.097-.112-.097-.114-.097-.114-.097-.114-.096-.115-.095-.116-.095-.117-.017-.021-.076-.098-.092-.12-.091-.121-.085-.112-.006-.008-.088-.123-.088-.124-.088-.124-.062-.089-.024-.036-.084-.126-.084-.128-.083-.127-.042-.065-.039-.063-.079-.13-.079-.13-.079-.131-.022-.039-.054-.094-.074-.132-.073-.134-.073-.134-.031-.058-.04-.077-.069-.136-.069-.136-.068-.136-.067-.137-.015-.029-.05-.108-.064-.138-.063-.139-.063-.138-.061-.138-.062-.139-.061-.139-.059-.139-.059-.138-.059-.14-.057-.139-.016-.039-.04-.101-.054-.14-.054-.14-.054-.14-.052-.14-.051-.14-.051-.14-.05-.14-.05-.14-.049-.139-.048-.141-.047-.139-.028-.084-.017-.055-.045-.14-.044-.14-.043-.139-.042-.139-.042-.139-.04-.138-.041-.139-.039-.138-.038-.138-.037-.138-.037-.137-.036-.137-.014-.051-.021-.086-.033-.137-.032-.136-.032-.136-.031-.136-.03-.135-.03-.134-.027-.135-.028-.133-.027-.134-.026-.132-.025-.133-.024-.132-.023-.131-.023-.131-.022-.131-.021-.128-.019-.129-.019-.13-.019-.127-.017-.127-.016-.127-.015-.125-.006-.049-.009-.077-.012-.124-.012-.125-.012-.123-.01-.122-.009-.121-.008-.121-.008-.12-.006-.119-.006-.119-.003-.081-.002-.037z"></path></g></g><path fill="#FFF" mask="url(#mask-2)" d="M371.225 332.649l.014.017.013.018.013.019.013.02.012.019.008.015.016.027.023.045.022.047.02.05.019.053.019.055.017.057.017.06.015.062.015.065.013.067.012.07.011.072.01.074.009.076.009.079.006.081.006.083.006.086.003.088.003.09.003.092.001.094v.096l-.001.1-.002.1-.003.102-.004.105-.004.107-.005.108-.007.111-.008.112-.009.115-.009.116-.01.118-.011.12-.012.123-.013.123-.014.126-.015.127-.015.129-.018.131-.017.133-.018.134-.019.135-.021.138-.021.139-.021.141-.023.143-.023.144-.025.145-.051.296-.054.301-.057.307-.061.313-.065.318-.066.324-.071.328-.073.333-.076.339-.079.342-.082.348-.086.351-.087.355-.091.359-.093.363-.097.367-.098.371-.102.372-.103.377-.107.379-.109.382-.112.384-.114.387-.051.17-.066.218-.12.391-.122.393-.124.394-.127.396-.129.397-.131.399-.134.399-.135.4-.137.401-.139.401-.142.402-.143.402-.145.402-.147.402-.148.401-.151.402-.152.4-.154.4-.156.398-.156.398-.103.257-.056.139-.162.393-.163.393-.165.39-.165.389-.168.386-.168.385-.17.381-.171.378-.086.189-.086.188-.035.076-.052.111-.088.186-.088.184-.088.185-.089.183-.089.183-.089.181-.089.181-.089.18-.09.179-.09.177-.091.177-.09.177-.091.174-.091.174-.091.173-.09.171-.001.001-.093.17-.093.169-.093.168-.093.167-.094.165-.093.164-.094.163-.075.129-.019.033-.094.16-.095.159-.095.158-.095.156-.095.155-.096.154-.096.152-.095.151-.096.149-.004.006-.092.142-.097.146-.096.144-.097.143-.097.142-.097.14-.097.139-.097.136-.097.136-.097.134-.098.132-.097.13-.098.129-.097.127-.098.125-.098.124-.097.122-.098.12-.098.118-.098.116-.098.115-.098.113-.099.11-.091.102-.007.007-.098.107-.099.105-.099.102-.099.102-.099.098-.099.098-.099.094-.099.093-.099.09-.099.089-.1.086-.099.084-.1.083-.1.079-.099.079-.101.074-.099.074-.101.071-.1.069-.101.065-.101.064-.1.062-.102.059-.101.056-.102.054-.101.052-.101.048-.053.024-.051.023-.051.022-.051.022-.051.02-.052.02-.051.02-.052.019-.051.017-.052.018-.052.016-.052.016-.051.015-.052.014-.052.014-.052.013-.052.012-.053.011-.052.01-.052.009-.051.009-.052.008-.052.006-.051.006-.05.005-.051.004-.05.003-.05.003-.049.001-.05.001-.048-.001-.049-.001-.049-.001-.047-.002-.048-.003-.049-.004-.091-.009-.093-.011-.089-.015-.089-.015-.088-.018-.085-.02-.084-.022-.083-.022-.081-.024-.079-.025-.078-.025-.076-.027-.075-.027-.075-.028-.072-.028-.139-.056-.134-.055-.254-.107-.074-.03-.074-.03-.075-.029-.075-.029-.076-.028-.076-.026-.077-.027-.076-.026-.077-.026-.078-.024-.078-.025-.078-.024-.079-.023-.079-.023-.079-.022-.079-.022-.161-.043-.161-.04-.162-.039-.163-.037-.073-.017-.092-.019-.165-.035-.166-.034-.166-.032-.168-.032-.168-.031-.169-.029-.169-.03-.339-.057-.34-.057-.341-.056-.34-.057-.17-.029-.17-.03-.17-.031-.168-.031-.468-.088-.468-.087-.468-.086-.469-.085-.47-.084-.47-.084-.47-.081-.471-.081-.471-.081-.472-.078-.472-.078-.179-.029-.293-.048-.473-.075-.473-.074-.474-.073-.473-.072-.474-.07-.474-.07-.473-.068-.288-.041-.187-.025-.474-.065-.474-.064-.475-.062-.474-.06-.474-.06-.474-.058-.304-.037-.17-.019-.474-.055-.473-.051-.474-.051-.473-.05-.475-.048-.213-.023-.216-.025-.155-.019-.063-.007-.219-.028-.218-.029-.221-.03-.441-.062-.444-.062-.222-.032-.223-.03-.222-.03-.222-.029-.222-.026-.221-.026-.222-.023-.11-.011-.109-.011-.11-.01-.11-.009-.058-.004-.051-.004-.11-.008-.108-.006-.109-.006-.109-.005-.108-.005-.108-.004-.107-.003-.107-.001-.107-.001h-.106l-.106.001-.105.002-.105.003-.105.004-.104.006-.104.006-.103.009-.102.008-.102.011-.102.011-.101.013-.1.014-.1.015-.099.017-.097.017-.046.01-.045.011-.045.012-.045.013-.045.014-.046.016-.045.017-.046.018-.046.021-.046.02-.047.023-.046.024-.048.025-.046.027-.047.028-.048.028-.048.031-.048.031-.048.033-.047.034-.048.035-.048.037-.049.038-.048.039-.049.04-.049.041-.048.043-.049.043-.049.045-.049.045-.048.048-.049.048-.049.048-.048.05-.049.051-.049.052-.049.052-.048.054-.049.054-.049.056-.049.056-.048.057-.048.058-.048.058-.098.12-.096.122-.096.124-.096.128-.095.129-.096.132-.094.133-.095.135-.094.137-.094.138-.093.139-.093.14-.092.142-.091.141-.073.113-.019.029-.091.142-.181.286-.179.284-.178.281-.175.278-.173.273-.087.135-.086.133-.086.131-.085.129-.084.126-.085.124-.085.122-.084.119-.084.117-.084.113-.084.111-.083.107-.083.104-.043.051-.042.05-.043.049-.042.048-.042.047-.042.046-.111.12-.112.117-.112.118-.112.118-.113.116-.113.116-.114.116-.114.115-.114.114-.115.114-.115.113-.117.113-.115.112-.117.112-.117.111-.117.111-.118.109-.117.111-.119.108-.119.11-.238.216-.24.213-.106.095-.134.118-.243.21-.244.209-.245.207-.246.206-.247.204-.248.202-.249.201-.25.2-.25.2-.251.197-.042.033-.211.163-.254.194-.254.193-.255.193-.255.191-.256.192-.256.19-.256.189-.183.134-.075.055-.518.372-.519.369-.519.369-.519.368-.518.368-.054.038-.466.328-.519.367-.258.184-.259.184-.258.185-.257.185-.257.186-.256.187-.255.186-.256.189-.254.189-.194.145-.06.043-.253.19-.253.192-.251.192-.251.192-.249.195-.249.195-.248.197-.246.198-.117.095-.116.095-.114.096-.114.097-.114.097-.113.099-.112.099-.11.1-.111.099-.11.101-.109.101-.109.102-.108.103-.107.102-.107.105-.105.104-.106.104-.105.106-.103.106-.105.106-.102.107-.103.108-.102.108-.101.109-.101.108-.101.11-.1.109-.099.11-.099.111-.098.112-.099.111-.097.113-.097.112-.097.113-.192.227-.191.229-.189.229-.188.232-.186.233-.186.233-.158.202-.027.032-.183.236-.183.236-.182.237-.182.238-.181.239-.179.239-.18.24-.18.24-.357.482-.358.482-.357.482-.359.483-.18.24-.18.241-.182.24-.181.24-.183.238-.183.239-.184.237-.186.236-.187.236-.188.235-.189.233-.19.233-.193.231-.194.23-.097.114-.098.114-.098.114-.099.113-.1.113-.1.113-.1.111-.101.112-.101.111-.102.111-.103.111-.102.109-.104.109-.104.11-.105.108-.105.108-.105.107-.107.108-.105.103-.002.003-.108.106.103-.111.102-.111.102-.112.1-.112.1-.112.1-.113.099-.113.098-.114.098-.114.097-.115.097-.114.097-.116.095-.116.095-.116.094-.116.094-.117.094-.117.093-.118.092-.118.092-.118.183-.237.181-.239.18-.239.178-.241.176-.242.176-.243.174-.244.173-.245.172-.245.172-.246.17-.247.17-.246.169-.248.169-.248.336-.497.336-.498.336-.498.337-.498.168-.248.17-.248.17-.248.171-.248.171-.247.172-.247.174-.246.175-.245.024-.033.152-.211.178-.243.179-.243.18-.241.183-.24.184-.239.185-.238.095-.119.093-.118.095-.118.095-.118.096-.117.096-.116.097-.117.097-.116.098-.116.099-.115.099-.115.1-.114.1-.115.102-.113.102-.114.101-.112.104-.113.103-.112.105-.111.105-.111.107-.11.106-.11.107-.109.109-.109.109-.108.11-.108.111-.108.111-.106.112-.106.114-.105.114-.106.115-.104.115-.103.117-.103.242-.212.244-.209.244-.208.245-.207.246-.205.247-.205.248-.203.248-.202.058-.047.192-.153.25-.199.252-.198.251-.199.252-.196.252-.196.254-.195.253-.195.253-.193.255-.194.507-.385.456-.345.053-.039.511-.38.509-.381.509-.38.508-.38.507-.382.073-.056.18-.134.254-.189.253-.189.253-.191.251-.191.252-.191.25-.192.25-.193.207-.162.041-.032.249-.192.248-.195.247-.195.246-.196.244-.197.244-.199.243-.2.241-.201.24-.202.239-.204.132-.115.106-.09.236-.206.236-.208.117-.104.116-.105.117-.105.116-.106.115-.107.116-.106.114-.107.115-.107.114-.109.113-.108.114-.11.113-.109.112-.11.112-.111.112-.111.111-.111.11-.112.11-.113.109-.113.109-.113.035-.038.035-.037.035-.039.036-.041.036-.041.035-.042.075-.09.075-.094.077-.098.078-.102.078-.107.081-.109.08-.114.081-.116.084-.12.083-.123.085-.125.085-.128.086-.13.175-.267.178-.273.181-.279.184-.284.187-.286.095-.143.02-.03.076-.114.095-.144.098-.143.097-.144.099-.142.099-.142.101-.141.101-.139.101-.139.103-.137.103-.136.105-.134.104-.132.107-.13.106-.128.054-.063.054-.063.055-.061.054-.061.055-.06.055-.06.056-.06.055-.058.056-.057.056-.056.056-.057.057-.054.057-.055.057-.053.058-.053.058-.051.058-.051.059-.049.059-.049.059-.047.06-.047.06-.046.061-.044.06-.044.062-.041.061-.042.062-.039.063-.039.063-.037.063-.036.064-.035.065-.033.065-.032.065-.03.066-.029.066-.027.067-.026.067-.024.068-.022.069-.021.069-.019.068-.017.071-.016.068-.013.114-.019.113-.018.114-.014.113-.015.113-.012.114-.012.114-.009.114-.008.114-.007.114-.006.114-.004.115-.002.114-.002.115-.001h.114l.116.003.115.002.114.003.115.005.115.006.115.007.115.006.115.009.115.009.115.009.054.006.06.005.115.011.115.011.114.012.115.013.228.027.228.03.227.029.226.033.227.032.224.034.224.033.443.069.439.066.216.033.215.031.213.029.061.008.15.019.209.025.208.023.473.052.475.052.476.053.476.055.476.056.17.02.306.036.476.056.477.057.476.058.477.06.477.061.477.062.186.025.29.038.477.063.477.064.476.065.477.067.476.067.476.069.475.07.296.043.18.027.476.072.474.072.475.072.474.075.474.075.473.076.473.077.472.078.472.08.471.08.47.081.165.028.165.027.166.027.167.026.337.051.341.051.342.051.345.053.173.027.174.029.174.028.173.03.174.032.175.032.174.035.097.019.077.016.174.037.174.039.173.041.172.044.088.023.086.023.086.023.087.025.086.025.085.025.087.026.085.027.086.028.084.029.086.029.084.03.085.03.085.032.084.032.084.033.256.104.128.051.127.049.062.023.063.023.063.022.062.02.063.02.063.019.063.017.062.017.062.014.062.014.062.012.063.01.063.009.062.007.064.005.03.002.032.002.031.001h.095l.032-.001.032-.001.032-.002.032-.003.033-.002.032-.004.033-.005.033-.004.033-.006.034-.005.033-.007.034-.008.036-.008.037-.009.037-.01.037-.009.037-.012.037-.011.038-.012.037-.013.039-.012.038-.015.038-.014.038-.015.039-.016.039-.016.039-.017.039-.018.039-.018.039-.018.08-.04.081-.041.081-.046.081-.046.082-.05.083-.051.083-.054.084-.057.084-.059.084-.062.085-.064.086-.066.086-.07.086-.071.087-.073.087-.076.088-.078.087-.08.089-.083.088-.085.089-.087.088-.089.089-.092.09-.094.09-.095.09-.098.09-.1.006-.008.084-.094.091-.103.091-.106.091-.108.092-.111.091-.111.091-.113.092-.116.092-.118.092-.119.092-.122.092-.123.091-.125.093-.126.092-.129.092-.13.092-.132.093-.133.092-.135.093-.137.092-.138.092-.14.092-.142.089-.137.004-.007.092-.144.093-.146.093-.147.093-.149.093-.15.092-.151.093-.154.092-.155.092-.155.019-.032.074-.126.092-.157.093-.16.093-.16.092-.162.093-.164.092-.164.093-.166.092-.165.093-.168.093-.169.092-.169.093-.17.092-.172.093-.172.092-.175.091-.174.092-.176.091-.177.092-.177.09-.178.091-.18.091-.18.09-.181.054-.109.037-.072.091-.183.09-.183.18-.368.18-.371.178-.374.178-.376.175-.378.175-.381.174-.383.171-.385.06-.135.112-.251.171-.387.169-.388.168-.389.167-.391.164-.392.163-.391.161-.393.159-.392.158-.394.156-.392.154-.394.152-.392.15-.391.147-.392.146-.39.143-.389.142-.388.138-.386.137-.385.134-.384.074-.213.059-.168.13-.378.128-.377.126-.374.123-.372.12-.369.118-.366.115-.363.111-.36.11-.356.106-.353.104-.349.099-.346.098-.341.094-.337.091-.332.088-.328.084-.323.081-.319.078-.312.075-.309.071-.302.068-.297.064-.291.03-.143.03-.142.029-.14.028-.139.027-.137.027-.136.024-.134.025-.132.023-.131.023-.129.021-.128.02-.125.019-.124.019-.122.017-.121.018-.118.015-.117.015-.115.013-.113.012-.111.012-.11.011-.107.009-.106.009-.103.006-.101.007-.1.005-.098.005-.095.003-.093.002-.092.001-.089v-.087l-.002-.084-.002-.084-.003-.08-.004-.078-.006-.077-.006-.073-.009-.072-.008-.069-.01-.067-.012-.065-.012-.062-.013-.06-.015-.057-.016-.056-.017-.052-.018-.05-.02-.048-.02-.046-.014-.028-.008-.014-.011-.021-.012-.02-.012-.019-.012-.019-.012-.018-.013-.017z"></path><path d="M222.275 518.61a2.154 2.154 0 0 0-.078-3.317c-3.418-2.737-9.865-7.814-11.956-9.46a.854.854 0 0 0-1.203.144l-4.783 6.08a2.189 2.189 0 0 0 .16 2.89c3.504 3.527 7.283 6.558 11.36 9.053a2.182 2.182 0 0 0 3.092-.928 13.97 13.97 0 0 1 3.408-4.461zm-84.19-17.832a2.15 2.15 0 0 0 .885-3.17c-2.171-3.248-6.063-8.952-7.42-10.941a.856.856 0 0 0-1.19-.224l-5.65 3.858a2.188 2.188 0 0 0-.715 2.803c1.964 3.795 4.279 7.259 6.975 10.363a2.183 2.183 0 0 0 3.203.074 12.94 12.94 0 0 1 3.912-2.763z" fill="#14397E" mask="url(#mask-2)"></path><path d="M196.815 525.232s-.358-.128-1.98.541c-2.58 1.066-4.03 3.728-4.757 5.58a2.693 2.693 0 0 0 .851 3.087l19.653 15.41a4.176 4.176 0 0 0 2.472.89l12.027.309s3.685.006 4.185-3.267c.5-3.273-7.999-2.744-9.88-6.827-1.884-4.083-6.949-10.083-6.949-10.083s.863-2.462.522-4.616c-.31-1.954-1.61-2.703-2.759-1.3-1.34 1.635-2.614 3.09-2.614 3.09s-7.528 1.407-10.771-2.814zm-82.218-26.072s-.311-.218-2.051 0c-2.77.347-4.872 2.531-6.062 4.126a2.694 2.694 0 0 0 .008 3.202c3.01 4.055 11.322 15.244 14.48 19.495a4.18 4.18 0 0 0 3.316 1.688l10.766.102s3.553.978 4.898-2.046c1.345-3.026-6.991-1.009-7.73-5.444-.74-4.435-4.043-11.559-4.043-11.559s1.48-2.147 1.72-4.315c.217-1.967-.84-3.032-2.319-1.982-1.722 1.224-3.336 2.291-3.336 2.291s-7.632-.63-9.647-5.558z" fill="#FFF" mask="url(#mask-2)"></path><path fill="#1DBDCE" mask="url(#mask-2)" d="M214.231 533.58l.119.007.118.009.118.011.009.001.111.012.119.015.12.017.056.009.064.01.12.021.12.024.12.025.12.028.122.03.12.032.055.015.067.019.121.036.122.038.121.041.122.043.122.044.077.03.045.018.122.048.123.052.122.054.086.039.032.014.373.994-.993.372-.029-.013-.079-.036-.103-.045-.102-.043-.101-.041-.037-.014-.064-.025-.1-.036-.101-.036-.1-.033-.098-.031-.099-.029-.054-.016-.044-.012-.097-.025-.097-.024-.097-.023-.096-.02-.096-.019-.096-.017-.05-.008-.044-.007-.095-.014-.094-.012-.088-.009h-.006l-.093-.009-.093-.007-.093-.006h-.004l-.088-.01-.092-.009-.092-.007-.092-.006-.087-.003-.005-.001-.092-.004-.092-.002-.093-.002-.092.001-.092.002-.092.004-.005.001-.087.003-.093.007-.093.007-.093.009-.093.01-.093.013-.094.013-.094.015-.093.016-.094.019-.094.02-.094.021-.094.022-.046.012-.048.012-.096.026-.095.026-.095.028-.095.03-.095.03-.096.033-.096.034-.095.036-.096.036-.097.038-.096.04-.097.041-.097.043-.096.044-.076.036-.022.01-.529-.131.135-.527.021-.016.07-.052.095-.066.094-.067.095-.063.096-.064.096-.061.096-.061.098-.059.098-.057.099-.057.099-.055.1-.053.1-.053.101-.05.102-.05.053-.024.05-.023.104-.045.104-.044.105-.042.105-.042.106-.039.107-.037.107-.036.108-.034.109-.033.11-.03.109-.03.111-.027.106-.024.006-.001.112-.023.113-.021.114-.019.113-.017.115-.015.116-.014.006-.001.11-.009.116-.008.117-.006.118-.004.113-.002zm-86.525-21.979l.114.002.109.005h.006l.114.008.115.01.114.011.115.014.115.015.114.018.006.001.109.02.115.023.114.025.114.027.11.028.005.002.113.037.111.04.112.042.007.003.105.041.111.046.111.048.051.023.059.027.11.052.109.055.11.056.109.058.109.061.108.063.049.029.059.036.107.066.107.07.107.071.106.073.106.076.067.049.039.028.105.08.105.082.104.084.072.06.027.023.098 1.057-1.056.097-.025-.021-.066-.056-.088-.069-.087-.068-.087-.067-.032-.023-.055-.041-.087-.062-.088-.061-.087-.058-.087-.056-.088-.055-.048-.028-.039-.024-.087-.051-.087-.048-.088-.048-.087-.044-.088-.044-.087-.041-.047-.021-.04-.019-.088-.038-.088-.036-.082-.032-.006-.003-.087-.033-.089-.031-.087-.029-.004-.002-.083-.033-.086-.033-.087-.031-.088-.03-.082-.027-.005-.001-.088-.029-.088-.026-.088-.025-.089-.024-.09-.022-.09-.021-.005-.001-.085-.019-.092-.019-.091-.018-.092-.015-.093-.014-.093-.013-.093-.012-.095-.01-.094-.009-.095-.007-.096-.006-.097-.004-.097-.003-.047-.001-.05-.001-.098-.001h-.099l-.099.003-.1.003-.1.004-.101.006-.101.008-.102.009-.102.01-.104.011-.102.013-.104.015-.105.015-.105.018-.082.014-.025.004-.475-.266.269-.473.025-.01.082-.031.107-.04.109-.038.109-.037.109-.036.108-.034.11-.033.109-.031.11-.03.111-.028.11-.027.11-.025.111-.024.111-.023.111-.02.057-.009.055-.009.111-.017.112-.015.112-.013.113-.012.112-.009.113-.008.113-.007.113-.004.114-.002.113-.001zm87.997 24.227l.118.007.119.009.119.011.007.001.111.012.12.015.119.017.057.009.063.01.12.021.12.024.121.026.121.028.12.029.121.032.055.015.066.019.122.036.121.039.122.04.122.043.121.045.078.029.045.017.122.05.123.052.122.053.086.039.032.015.373.993-.993.373-.03-.014-.078-.036-.103-.045-.102-.043-.101-.04-.038-.014-.063-.025-.101-.037-.1-.035-.099-.034-.099-.031-.099-.03-.054-.015-.044-.011-.098-.027-.096-.024-.097-.021-.097-.021-.095-.019-.095-.017-.051-.008-.045-.007-.094-.013-.094-.012-.088-.01-.006-.001-.093-.008-.093-.007-.093-.005-.005-.001-.087-.009-.092-.009-.093-.008-.092-.005-.086-.005h-.005l-.093-.003-.092-.003-.092-.001-.092.001-.092.002-.093.003h-.005l-.087.005-.093.006-.093.008-.093.009-.093.01-.093.012-.093.013-.093.015-.094.017-.094.018-.094.02-.094.021-.094.023-.046.012-.049.012-.095.024-.094.028-.096.027-.096.029-.095.032-.095.032-.096.034-.096.036-.096.037-.097.038-.096.04-.096.041-.096.043-.097.043-.076.036-.023.011-.528-.132.135-.528.021-.015.07-.051.095-.067.094-.066.094-.065.096-.063.096-.061.097-.061.098-.059.098-.058.099-.056.099-.055.099-.053.101-.053.101-.05.102-.049.053-.025.05-.022.103-.046.104-.044.105-.043.105-.04.107-.039.106-.037.107-.037.109-.034.109-.032.109-.031.11-.029.111-.027.105-.025.006-.001.113-.023.112-.02.114-.02.114-.017.115-.015.115-.013.007-.001.109-.009.117-.008.117-.006.118-.005.112-.002zm-87.17-21.67l.114.002.108.005h.007l.114.008.114.01.114.011.115.014.115.015.115.018.006.001.108.02.115.023.115.025.114.027.11.028.005.001.112.038.112.04.112.042.007.003.104.041.111.046.111.048.052.024.059.026.11.052.109.054.11.057.109.058.108.061.109.063.049.029.059.035.107.068.107.069.107.071.106.074.106.075.066.049.039.029.105.079.105.082.104.084.073.061.027.022.097 1.056-1.056.098-.024-.021-.067-.055-.087-.07-.087-.069-.088-.066-.031-.024-.056-.04-.087-.063-.087-.059-.087-.059-.088-.056-.087-.054-.048-.029-.039-.024-.088-.051-.087-.048-.087-.047-.087-.045-.088-.043-.088-.043-.046-.02-.041-.019-.087-.038-.088-.037-.082-.032-.006-.002-.088-.033-.088-.031-.088-.03h-.004l-.082-.033-.087-.033-.087-.032-.087-.03-.082-.026-.005-.003-.088-.027-.088-.027-.089-.025-.088-.024-.09-.022-.09-.021-.006-.001-.085-.019-.091-.019-.091-.017-.092-.016-.093-.015-.093-.013-.093-.011-.095-.01-.094-.008-.095-.008-.096-.006-.097-.004-.097-.003-.047-.001-.05-.001-.099-.001h-.098l-.099.002-.1.003-.101.006-.1.006-.101.007-.102.009-.103.01-.103.012-.103.013-.104.014-.104.016-.105.016-.083.015-.025.004-.474-.266.269-.473.025-.009.081-.032.108-.04.109-.038.108-.037.109-.036.109-.033.11-.034.109-.031.11-.03.11-.028.11-.027.111-.025.11-.024.111-.022.112-.021.057-.01.054-.008.111-.016.113-.016.112-.013.112-.011.113-.01.113-.008.113-.006.113-.005.114-.003h.113zm88.641 23.919l.119.007.118.009.119.01.008.001.112.012.119.015.119.017.056.009.064.011.12.021.12.023.121.025.12.028.121.03.121.032.054.015.067.019.121.036.122.039.121.041.123.042.121.045.078.03.044.017.123.049.122.052.123.053.086.039.032.015.373.993-.993.372-.03-.013-.078-.035-.103-.045-.102-.043-.102-.041-.037-.015-.064-.024-.1-.037-.101-.035-.099-.033-.099-.032-.099-.029-.053-.015-.045-.013-.097-.025-.097-.024-.097-.022-.096-.021-.096-.019-.095-.016-.051-.008-.044-.007-.094-.014-.095-.012-.087-.01h-.007l-.093-.009-.092-.007-.093-.005h-.005l-.088-.01-.092-.009-.092-.008-.092-.005-.086-.004h-.006l-.092-.005-.092-.002-.092-.001-.092.001-.093.002-.092.004h-.004l-.088.005-.093.005-.093.007-.093.009-.093.011-.093.012-.094.014-.093.015-.093.017-.094.017-.095.02-.093.022-.095.022-.045.012-.049.012-.095.025-.095.027-.095.028-.095.029-.096.032-.095.032-.096.033-.096.036-.096.036-.096.04-.097.039-.097.041-.096.042-.096.045-.077.036-.022.01-.528-.131.134-.528.021-.015.071-.052.094-.067.095-.066.095-.064.095-.063.097-.062.096-.06.098-.06.097-.057.099-.057.099-.054.101-.054.1-.052.101-.051.102-.049.053-.025.049-.022.104-.046.104-.044.105-.042.105-.04.106-.04.107-.038.108-.035.108-.034.108-.033.11-.03.11-.03.11-.028.106-.024.006-.001.112-.023.114-.02.113-.019.114-.018.114-.015.116-.013.007-.001.109-.01.117-.007.117-.006.118-.005.112-.002zm-87.814-21.362l.114.003.108.004h.006l.115.009.114.009.114.011.115.014.115.016.114.017.007.001.108.02.115.023.114.025.115.027.11.028.004.002.113.038.112.039.112.042.006.003.105.041.111.046.111.048.051.024.059.026.11.052.11.055.11.056.108.059.109.061.109.062.048.029.06.036.107.067.107.069.107.071.106.074.106.075.066.049.039.028.105.081.105.081.104.085.072.059.027.023.098 1.057-1.056.097-.024-.021-.067-.055-.087-.07-.088-.069-.087-.066-.032-.023-.055-.041-.087-.062-.087-.061-.087-.057-.088-.057-.087-.055-.048-.028-.04-.024-.087-.05-.087-.049-.087-.047-.088-.045-.087-.044-.088-.041-.046-.021-.041-.019-.088-.038-.088-.036-.082-.032-.006-.003-.087-.033-.088-.031-.088-.029-.004-.002-.083-.033-.086-.033-.087-.031-.087-.03-.082-.027-.006-.001-.087-.029-.089-.026-.088-.025-.089-.023-.09-.023-.09-.021-.005-.001-.085-.019-.091-.019-.091-.017-.093-.016-.092-.014-.094-.013-.093-.012-.094-.01-.095-.009-.095-.007-.096-.005-.096-.005-.097-.003-.047-.001-.05-.001-.099-.001-.099.001-.099.001-.099.004-.101.005-.1.005-.101.008-.102.009-.103.011-.103.011-.103.013-.104.014-.105.015-.105.018-.082.014-.025.005-.474-.267.269-.473.024-.01.082-.031.108-.039.108-.039.109-.037.109-.035.109-.035.109-.033.11-.031.109-.03.111-.028.11-.027.11-.025.111-.024.111-.022.111-.02.058-.01.054-.009.111-.017.113-.015.111-.012.113-.013.112-.009.114-.008.113-.007.113-.004.113-.002.114-.001z"></path><path d="M449.305 304.475c.827-.224 1.586-.601 2.341-1 .89-.47 1.813-.987 2.468-1.77 2.07-2.48 1.562-6.071 2.94-8.89.44-.903 1.016-1.657 1.738-2.353.667-.643 1.545-1.319 1.494-2.33-.044-.848-.236-.953-.97-1.318-1.471-.733-6.25 3.404-7.67 5.415" fill="#FFBFAE" mask="url(#mask-2)"></path><path d="M441.874 488.01a2.452 2.452 0 1 1-1.646 4.62 2.452 2.452 0 0 1 1.646-4.62zm9.393 3.347a2.453 2.453 0 0 1-1.645 4.621 2.452 2.452 0 0 1 1.645-4.62zm9.393 3.346a2.454 2.454 0 0 1-1.644 4.622 2.453 2.453 0 0 1 1.645-4.622zm9.394 3.347a2.454 2.454 0 0 1-1.645 4.621 2.453 2.453 0 0 1 1.645-4.621zm9.393 3.346a2.453 2.453 0 0 1-1.645 4.62 2.452 2.452 0 1 1 1.645-4.62zm9.393 3.347a2.453 2.453 0 0 1-1.644 4.62 2.452 2.452 0 0 1 1.645-4.62zm-43.837-10.411a2.454 2.454 0 0 1-1.645 4.622 2.453 2.453 0 0 1 1.645-4.622zm9.393 3.347a2.453 2.453 0 0 1-1.645 4.622 2.454 2.454 0 0 1-1.486-3.134 2.451 2.451 0 0 1 3.131-1.488zm9.394 3.347a2.453 2.453 0 0 1-1.645 4.62 2.454 2.454 0 0 1 1.644-4.62zm9.394 3.345a2.452 2.452 0 1 1-3.132 1.488 2.453 2.453 0 0 1 3.132-1.488zm9.393 3.347a2.452 2.452 0 1 1-3.132 1.488 2.453 2.453 0 0 1 3.132-1.488zm9.393 3.346a2.454 2.454 0 0 1-1.645 4.622 2.454 2.454 0 0 1 1.645-4.622zm-53.386-13.811a2.453 2.453 0 0 1-1.645 4.622 2.453 2.453 0 0 1 1.645-4.622zm9.394 3.347a2.453 2.453 0 0 1-1.645 4.622 2.452 2.452 0 1 1 1.645-4.622zm9.392 3.346a2.452 2.452 0 1 1-1.646 4.62 2.452 2.452 0 0 1 1.647-4.62zm9.394 3.346a2.452 2.452 0 1 1-1.646 4.622 2.452 2.452 0 0 1 1.646-4.622zm9.393 3.346a2.453 2.453 0 0 1-1.645 4.622 2.453 2.453 0 0 1 1.645-4.622zm9.393 3.347a2.453 2.453 0 0 1-1.644 4.621 2.452 2.452 0 1 1 1.645-4.622zm-43.837-10.41a2.453 2.453 0 0 1-1.644 4.621 2.452 2.452 0 0 1 1.645-4.62zm9.394 3.346a2.454 2.454 0 0 1-1.645 4.622 2.453 2.453 0 0 1 1.645-4.622zm9.393 3.347a2.454 2.454 0 0 1-1.645 4.621 2.453 2.453 0 0 1 1.645-4.621zm9.393 3.346a2.453 2.453 0 0 1-1.645 4.621 2.452 2.452 0 1 1 1.645-4.62zm9.394 3.346a2.453 2.453 0 0 1-1.645 4.621 2.454 2.454 0 0 1 1.645-4.62zm9.393 3.347a2.454 2.454 0 0 1-1.645 4.621 2.454 2.454 0 0 1 1.645-4.621z" fill="#272288" mask="url(#mask-2)"></path></g><path fill="#163F8E" d="M805.333 156.815V131l70 24.844V555l-70-24.844v-283.94l8.294-88.617z"></path><path fill="#14397E" d="M813.426 160l61.907 22.916V556l-70-24.894V246.59z"></path><path fill="#FFF" d="M1005.333 156l-70.483-25H805.333l70.484 25z"></path><path fill="#316CE6" d="M875.333 556h129V156h-129z"></path><path fill="#272288" d="M875.333 221h129v-6h-129zm0 44h129v-6h-129zm0 44h129v-6h-129zm0 43h129v-6h-129zm0 44h129v-6h-129zm0 44h129v-6h-129zm0 44h129v-6h-129zm0 45h129v-6h-129zm0-351h129v-6h-129zm9 33h7v-30h-7zm0 44h7v-30h-7z"></path><path fill="#19175B" d="M884.333 299h7v-30h-7z"></path><path fill="#272288" d="M884.333 343h7v-30h-7zm0 43h7v-30h-7zm0 44h7v-30h-7zm0 44h7v-30h-7z"></path><path fill="#19175B" d="M884.333 519h7v-30h-7z"></path><path fill="#272288" d="M895.333 211h7v-30h-7zm0 44h7v-30h-7zm0 44h7v-30h-7zm0 44h7v-30h-7zm0 43h7v-30h-7zm0 44h7v-30h-7zm0 44h7v-30h-7zm0 45h7v-30h-7zm11-308h7v-30h-7zm0 44h7v-30h-7zm0 44h7v-30h-7zm0 44h7v-30h-7zm0 43h7v-30h-7zm0 44h7v-30h-7zm0 44h7v-30h-7zm0 45h7v-30h-7zm11-308h7v-30h-7zm0 44h7v-30h-7zm0 44h7v-30h-7zm0 44h7v-30h-7z"></path><path fill="#19175B" d="M917.333 386h7v-30h-7zm0 44h7v-30h-7z"></path><path fill="#272288" d="M917.333 474h7v-30h-7zm0 45h7v-30h-7zm11-308h7v-30h-7z"></path><path fill="#19175B" d="M928.333 255h7v-30h-7z"></path><path fill="#272288" d="M928.333 299h7v-30h-7zm0 44h7v-30h-7zm0 43h7v-30h-7zm0 44h7v-30h-7zm0 44h7v-30h-7zm0 45h7v-30h-7zm11-308h7v-30h-7zm0 44h7v-30h-7zm0 44h7v-30h-7zm0 44h7v-30h-7zm0 43h7v-30h-7zm0 44h7v-30h-7zm0 44h7v-30h-7zm0 45h7v-30h-7zm11-308h7v-30h-7zm0 44h7v-30h-7zm0 44h7v-30h-7zm0 44h7v-30h-7z"></path><path fill="#19175B" d="M950.333 386h7v-30h-7z"></path><path fill="#272288" d="M950.333 430h7v-30h-7z"></path><path fill="#19175B" d="M950.333 474h7v-30h-7z"></path><path fill="#272288" d="M950.333 519h7v-30h-7zm11-308h7v-30h-7zm0 44h7v-30h-7zm0 44h7v-30h-7zm0 44h7v-30h-7zm0 43h7v-30h-7zm0 44h7v-30h-7zm0 44h7v-30h-7zm0 45h7v-30h-7zm11-308h7v-30h-7zm0 44h7v-30h-7zm0 44h7v-30h-7zm0 44h7v-30h-7zm0 43h7v-30h-7zm0 44h7v-30h-7z"></path><path fill="#19175B" d="M972.333 474h7v-30h-7zm0 45h7v-30h-7z"></path><path d="M991.833 181c3.036 0 5.5 2.464 5.5 5.5s-2.464 5.5-5.5 5.5a5.502 5.502 0 0 1-5.5-5.5c0-3.036 2.464-5.5 5.5-5.5zm0 44c3.036 0 5.5 2.464 5.5 5.5s-2.464 5.5-5.5 5.5a5.502 5.502 0 0 1-5.5-5.5c0-3.036 2.464-5.5 5.5-5.5zm0 44c3.036 0 5.5 2.464 5.5 5.5s-2.464 5.5-5.5 5.5a5.502 5.502 0 0 1-5.5-5.5c0-3.036 2.464-5.5 5.5-5.5z" fill="#FFF"></path><path d="M991.833 313c3.036 0 5.5 2.465 5.5 5.5s-2.464 5.5-5.5 5.5a5.503 5.503 0 0 1-5.5-5.5c0-3.035 2.464-5.5 5.5-5.5z" fill="#272288"></path><path d="M991.833 356c3.036 0 5.5 2.464 5.5 5.5s-2.464 5.5-5.5 5.5a5.502 5.502 0 0 1-5.5-5.5c0-3.036 2.464-5.5 5.5-5.5zm0 44c3.036 0 5.5 2.464 5.5 5.5s-2.464 5.5-5.5 5.5a5.502 5.502 0 0 1-5.5-5.5c0-3.036 2.464-5.5 5.5-5.5zm0 44c3.036 0 5.5 2.464 5.5 5.5s-2.464 5.5-5.5 5.5a5.502 5.502 0 0 1-5.5-5.5c0-3.036 2.464-5.5 5.5-5.5zm0 45c3.036 0 5.5 2.464 5.5 5.5s-2.464 5.5-5.5 5.5a5.502 5.502 0 0 1-5.5-5.5c0-3.036 2.464-5.5 5.5-5.5z" fill="#FFF"></path><path d="M991.833 198c3.036 0 5.5 2.464 5.5 5.5s-2.464 5.5-5.5 5.5a5.502 5.502 0 0 1-5.5-5.5c0-3.036 2.464-5.5 5.5-5.5zm0 44c3.036 0 5.5 2.464 5.5 5.5 0 3.035-2.464 5.5-5.5 5.5a5.503 5.503 0 0 1-5.5-5.5c0-3.036 2.464-5.5 5.5-5.5zm0 44c3.036 0 5.5 2.464 5.5 5.5s-2.464 5.5-5.5 5.5a5.502 5.502 0 0 1-5.5-5.5c0-3.036 2.464-5.5 5.5-5.5zm0 44c3.036 0 5.5 2.464 5.5 5.5s-2.464 5.5-5.5 5.5a5.502 5.502 0 0 1-5.5-5.5c0-3.036 2.464-5.5 5.5-5.5zm0 43c3.036 0 5.5 2.464 5.5 5.5s-2.464 5.5-5.5 5.5a5.502 5.502 0 0 1-5.5-5.5c0-3.036 2.464-5.5 5.5-5.5zm0 44c3.036 0 5.5 2.464 5.5 5.5s-2.464 5.5-5.5 5.5a5.502 5.502 0 0 1-5.5-5.5c0-3.036 2.464-5.5 5.5-5.5z" fill="#1DBDCE"></path><path d="M991.833 461c3.036 0 5.5 2.464 5.5 5.5s-2.464 5.5-5.5 5.5a5.502 5.502 0 0 1-5.5-5.5c0-3.036 2.464-5.5 5.5-5.5z" fill="#272288"></path><path d="M991.833 506c3.036 0 5.5 2.464 5.5 5.5s-2.464 5.5-5.5 5.5a5.502 5.502 0 0 1-5.5-5.5c0-3.036 2.464-5.5 5.5-5.5z" fill="#1DBDCE"></path><path d="M880.833 533c1.384 0 2.5 1.12 2.5 2.5s-1.116 2.5-2.5 2.5c-1.376 0-2.5-1.12-2.5-2.5s1.124-2.5 2.5-2.5zm9.997 0a2.504 2.504 0 0 1 2.503 2.5c0 1.38-1.122 2.5-2.503 2.5a2.501 2.501 0 0 1-2.497-2.5c0-1.38 1.122-2.5 2.497-2.5zm10.003 0c1.376 0 2.5 1.12 2.5 2.5s-1.124 2.5-2.5 2.5a2.499 2.499 0 1 1 0-5zm10 0c1.376 0 2.5 1.12 2.5 2.5s-1.124 2.5-2.5 2.5a2.499 2.499 0 1 1 0-5zm10 0c1.376 0 2.5 1.12 2.5 2.5s-1.124 2.5-2.5 2.5a2.499 2.499 0 1 1 0-5zm10 0c1.376 0 2.5 1.12 2.5 2.5s-1.124 2.5-2.5 2.5a2.499 2.499 0 1 1 0-5zm-45 4c1.384 0 2.5 1.12 2.5 2.5a2.499 2.499 0 1 1-2.5-2.5zm9.997 0a2.503 2.503 0 0 1 2.503 2.5c0 1.38-1.122 2.5-2.503 2.5a2.502 2.502 0 0 1-2.497-2.5c0-1.38 1.122-2.5 2.497-2.5zm10.003 0c1.376 0 2.5 1.12 2.5 2.5s-1.124 2.5-2.5 2.5a2.499 2.499 0 1 1 0-5zm10 0c1.376 0 2.5 1.12 2.5 2.5s-1.124 2.5-2.5 2.5a2.499 2.499 0 1 1 0-5zm10 0c1.376 0 2.5 1.12 2.5 2.5s-1.124 2.5-2.5 2.5a2.499 2.499 0 1 1 0-5zm10 0c1.376 0 2.5 1.12 2.5 2.5s-1.124 2.5-2.5 2.5a2.499 2.499 0 1 1 0-5zm-55 5c1.384 0 2.5 1.12 2.5 2.5s-1.116 2.5-2.5 2.5c-1.376 0-2.5-1.12-2.5-2.5s1.124-2.5 2.5-2.5zm9.997 0a2.503 2.503 0 0 1 2.503 2.5c0 1.38-1.122 2.5-2.503 2.5a2.501 2.501 0 0 1-2.497-2.5c0-1.38 1.122-2.5 2.497-2.5zm10.003 0c1.376 0 2.5 1.12 2.5 2.5s-1.124 2.5-2.5 2.5a2.499 2.499 0 1 1 0-5zm10 0c1.376 0 2.5 1.12 2.5 2.5s-1.124 2.5-2.5 2.5a2.499 2.499 0 1 1 0-5zm10 0c1.376 0 2.5 1.12 2.5 2.5s-1.124 2.5-2.5 2.5a2.499 2.499 0 1 1 0-5zm10 0c1.376 0 2.5 1.12 2.5 2.5s-1.124 2.5-2.5 2.5a2.499 2.499 0 1 1 0-5zm-45 5c1.384 0 2.5 1.12 2.5 2.5s-1.116 2.5-2.5 2.5c-1.376 0-2.5-1.12-2.5-2.5s1.124-2.5 2.5-2.5zm9.997 0a2.504 2.504 0 0 1 2.503 2.5c0 1.38-1.122 2.5-2.503 2.5a2.501 2.501 0 0 1-2.497-2.5c0-1.38 1.122-2.5 2.497-2.5zm10.003 0c1.376 0 2.5 1.12 2.5 2.5s-1.124 2.5-2.5 2.5a2.499 2.499 0 1 1 0-5zm10 0c1.376 0 2.5 1.12 2.5 2.5s-1.124 2.5-2.5 2.5a2.499 2.499 0 1 1 0-5zm10 0c1.376 0 2.5 1.12 2.5 2.5s-1.124 2.5-2.5 2.5a2.499 2.499 0 1 1 0-5zm10 0c1.376 0 2.5 1.12 2.5 2.5s-1.124 2.5-2.5 2.5a2.499 2.499 0 1 1 0-5z" fill="#272288"></path><path fill="#FFF" d="M813.333 158l-67.895-31.813L616.333 114l67.897 31.813z"></path></g></svg>