<svg xmlns="http://www.w3.org/2000/svg" viewBox="0 0 760 600"><style>.sans-serif{font-family:-apple-system,BlinkMacSystemFont,'avenir next', avenir,'helvetica neue',helvetica,ubuntu,roboto,noto,'segoe ui',arial,sans-serif}</style><g transform="translate(64 65)" fill="none" fill-rule="evenodd"><path fill="#FF003C" d="M632 465.679c0 2.939-1.979 5.321-4.42 5.321H4.42C1.98 471 0 468.618 0 465.679V5a5 5 0 0 1 5-5h622a5 5 0 0 1 5 5v460.679z"></path><text fill="#FFF" font-size="34" font-weight="bold" class="sans-serif"><tspan x="136.512" y="245.842">Hello world! via 7shq5</tspan></text><path fill="#CCC" d="M5 0h622a5 5 0 0 1 5 5v18H0V5a5 5 0 0 1 5-5z"></path><path fill="#E74C3C" d="M17 12.5a4.5 4.5 0 1 1-9 0 4.5 4.5 0 0 1 9 0"></path><path fill="#F1C40F" d="M33 12.5a4.5 4.5 0 1 1-9 0 4.5 4.5 0 0 1 9 0"></path><path fill="#2ECC71" d="M48 12.5a4.5 4.5 0 1 1-9 0 4.5 4.5 0 0 1 9 0"></path></g></svg>