<svg xmlns="http://www.w3.org/2000/svg" viewBox="0 0 760 534"><style>.sans-serif{font-family:-apple-system,BlinkMacSystemFont,'avenir next', avenir,'helvetica neue',helvetica,ubuntu,roboto,noto,'segoe ui',arial,sans-serif}</style><g fill="none" fill-rule="evenodd"><g transform="translate(163 51)"><g transform="translate(0 372)"><path fill="#D2D2D2" d="M186 5v19a5 5 0 0 1-5 5H5a5 5 0 0 1-5-5V5a5 5 0 0 1 5-5h176a5 5 0 0 1 5 5z"></path><path fill="#A3A3A3" d="M31 6h4v4h-4zm0 6h4v4h-4zm0 6h4v4h-4zm6-12h4v4h-4zm0 6h4v4h-4zm0 6h4v4h-4zm6-12h4v4h-4zm0 6h4v4h-4zm0 6h4v4h-4zm6-12h4v4h-4zm0 6h4v4h-4zm0 6h4v4h-4zm6-12h4v4h-4zm0 6h4v4h-4zm0 6h4v4h-4zm6-12h4v4h-4zm0 6h4v4h-4zm0 6h4v4h-4zm6-12h4v4h-4zm0 6h4v4h-4zm0 6h4v4h-4zm6-12h4v4h-4zm0 6h4v4h-4zm0 6h4v4h-4zm6-12h4v4h-4zm0 6h4v4h-4zm0 6h4v4h-4zm6-12h4v4h-4zm0 6h4v4h-4zm0 6h4v4h-4zm6-12h4v4h-4zm0 6h4v4h-4zm0 6h4v4h-4zm6-12h4v4h-4zm0 6h4v4h-4zm0 6h4v4h-4zm6-12h4v4h-4zm0 6h4v4h-4zm0 6h4v4h-4zm6-12h4v4h-4zm0 6h4v4h-4zm0 6h4v4h-4zm6-12h4v4h-4zm0 6h4v4h-4zm0 6h4v4h-4zm6-12h4v4h-4zm0 6h4v4h-4zm0 6h4v4h-4zm6-12h4v4h-4zm0 6h4v4h-4zm0 6h4v4h-4zm6-12h4v4h-4zm0 6h4v4h-4zm0 6h4v4h-4zm6-12h4v4h-4zm0 6h4v4h-4zm0 6h4v4h-4zm6-12h4v4h-4zm0 6h4v4h-4zm0 6h4v4h-4zm6-12h4v4h-4zm0 6h4v4h-4zm0 6h4v4h-4zm6-12h4v4h-4zm0 6h4v4h-4zm0 6h4v4h-4zm6-12h4v4h-4zm0 6h4v4h-4zm0 6h4v4h-4zm6-12h4v4h-4zm0 6h4v4h-4zm0 6h4v4h-4zm6-12h4v4h-4zm0 6h4v4h-4zm0 6h4v4h-4z"></path></g><g transform="translate(0 404)"><path fill="#D2D2D2" d="M186 5v19a5 5 0 0 1-5 5H5a5 5 0 0 1-5-5V5a5 5 0 0 1 5-5h176a5 5 0 0 1 5 5z"></path><path fill="#A3A3A3" d="M31 6h4v4h-4zm0 6h4v4h-4zm0 6h4v4h-4zm6-12h4v4h-4zm0 6h4v4h-4zm0 6h4v4h-4zm6-12h4v4h-4zm0 6h4v4h-4zm0 6h4v4h-4zm6-12h4v4h-4zm0 6h4v4h-4zm0 6h4v4h-4zm6-12h4v4h-4zm0 6h4v4h-4zm0 6h4v4h-4zm6-12h4v4h-4zm0 6h4v4h-4zm0 6h4v4h-4zm6-12h4v4h-4zm0 6h4v4h-4zm0 6h4v4h-4zm6-12h4v4h-4zm0 6h4v4h-4zm0 6h4v4h-4zm6-12h4v4h-4zm0 6h4v4h-4zm0 6h4v4h-4zm6-12h4v4h-4zm0 6h4v4h-4zm0 6h4v4h-4zm6-12h4v4h-4zm0 6h4v4h-4zm0 6h4v4h-4zm6-12h4v4h-4zm0 6h4v4h-4zm0 6h4v4h-4zm6-12h4v4h-4zm0 6h4v4h-4zm0 6h4v4h-4zm6-12h4v4h-4zm0 6h4v4h-4zm0 6h4v4h-4zm6-12h4v4h-4zm0 6h4v4h-4zm0 6h4v4h-4zm6-12h4v4h-4zm0 6h4v4h-4zm0 6h4v4h-4zm6-12h4v4h-4zm0 6h4v4h-4zm0 6h4v4h-4zm6-12h4v4h-4zm0 6h4v4h-4zm0 6h4v4h-4zm6-12h4v4h-4zm0 6h4v4h-4zm0 6h4v4h-4zm6-12h4v4h-4zm0 6h4v4h-4zm0 6h4v4h-4zm6-12h4v4h-4zm0 6h4v4h-4zm0 6h4v4h-4zm6-12h4v4h-4zm0 6h4v4h-4zm0 6h4v4h-4zm6-12h4v4h-4zm0 6h4v4h-4zm0 6h4v4h-4zm6-12h4v4h-4zm0 6h4v4h-4zm0 6h4v4h-4zm6-12h4v4h-4zm0 6h4v4h-4zm0 6h4v4h-4z"></path></g><path fill="#D2D2D2" d="M186 5v359a5 5 0 0 1-5 5H5a5 5 0 0 1-5-5V5a5 5 0 0 1 5-5h176a5 5 0 0 1 5 5z"></path><path fill="#A3A3A3" d="M7 6h4v4H7zm0 6h4v4H7zm0 6h4v4H7zm6-12h4v4h-4zm0 6h4v4h-4zm0 6h4v4h-4zm6-12h4v4h-4zm0 6h4v4h-4zm0 6h4v4h-4zm6-12h4v4h-4zm0 6h4v4h-4zm0 6h4v4h-4zm6-12h4v4h-4zm0 6h4v4h-4zm0 6h4v4h-4zm6-12h4v4h-4zm0 6h4v4h-4zm0 6h4v4h-4zm6-12h4v4h-4zm0 6h4v4h-4zm0 6h4v4h-4zm6-12h4v4h-4zm0 6h4v4h-4zm0 6h4v4h-4zm6-12h4v4h-4zm0 6h4v4h-4zm0 6h4v4h-4zm6-12h4v4h-4zm0 6h4v4h-4zm0 6h4v4h-4zm6-12h4v4h-4zm0 6h4v4h-4zm0 6h4v4h-4zm6-12h4v4h-4zm0 6h4v4h-4zm0 6h4v4h-4zm6-12h4v4h-4zm0 6h4v4h-4zm0 6h4v4h-4zm6-12h4v4h-4zm0 6h4v4h-4zm0 6h4v4h-4zm6-12h4v4h-4zm0 6h4v4h-4zm0 6h4v4h-4zm6-12h4v4h-4zm0 6h4v4h-4zm0 6h4v4h-4zm6-12h4v4h-4zm0 6h4v4h-4zm0 6h4v4h-4zm6-12h4v4h-4zm0 6h4v4h-4zm0 6h4v4h-4zm6-12h4v4h-4zm0 6h4v4h-4zm0 6h4v4h-4zm6-12h4v4h-4zm0 6h4v4h-4zm0 6h4v4h-4zm6-12h4v4h-4zm0 6h4v4h-4zm0 6h4v4h-4zm6-12h4v4h-4zm0 6h4v4h-4zm0 6h4v4h-4zm6-12h4v4h-4zm0 6h4v4h-4zm0 6h4v4h-4zm6-12h4v4h-4zm0 6h4v4h-4zm0 6h4v4h-4zm6-12h4v4h-4zm0 6h4v4h-4zm0 6h4v4h-4zm6-12h4v4h-4zm0 6h4v4h-4zm0 6h4v4h-4zm6-12h4v4h-4zm0 6h4v4h-4zm0 6h4v4h-4zm6-12h4v4h-4zm0 6h4v4h-4zm0 6h4v4h-4zm6-12h4v4h-4zm0 6h4v4h-4zm0 6h4v4h-4zM7 358h4v4H7zm6 0h4v4h-4zm6 0h4v4h-4zm6 0h4v4h-4zm6 0h4v4h-4zm6 0h4v4h-4zm6 0h4v4h-4zm6 0h4v4h-4zm6 0h4v4h-4zm6 0h4v4h-4zm6 0h4v4h-4zm6 0h4v4h-4zm6 0h4v4h-4zm6 0h4v4h-4zm6 0h4v4h-4zm6 0h4v4h-4zm6 0h4v4h-4zm6 0h4v4h-4zm6 0h4v4h-4zm6 0h4v4h-4zm6 0h4v4h-4zm6 0h4v4h-4zm6 0h4v4h-4zm6 0h4v4h-4zm6 0h4v4h-4zm6 0h4v4h-4zm6 0h4v4h-4zm6 0h4v4h-4zm6 0h4v4h-4z"></path><rect width="172" height="322" x="7" y="29" fill="#FFF" rx="2"></rect><path fill="#A3A3A3" d="M18.009 385.351h2.375v-2.162h-2.375v2.162zm-2.807 0h2.375v-2.162h-2.375v2.162zm-2.807 0h2.375v-2.162h-2.375v2.162zm-2.806 0h2.375v-2.162H9.589v2.162zm-2.807 0h2.375v-2.162H6.782v2.162zm2.807-2.594h2.375v-2.162H9.589v2.162zm2.806 0h2.375v-2.162h-2.375v2.162zm2.807 0h2.375v-2.162h-2.375v2.162zm0-2.595h2.375V378h-2.375v2.162zm12.318 3.929c-.518-.348-1.71-.475-2.627-.302-.118-.865-.6-1.615-1.475-2.293l-.504-.336-.336.504c-.43.65-.644 1.55-.574 2.413.032.303.131.846.443 1.323-.312.168-.928.4-1.74.384H5.09l-.03.18c-.148.867-.145 3.573 1.61 5.653 1.332 1.581 3.332 2.383 5.94 2.383 5.657 0 9.843-2.608 11.803-7.348.77.015 2.43.004 3.282-1.627a9.15 9.15 0 0 0 .222-.444l.082-.17-.48-.32z"></path><g fill="#A3A3A3" transform="translate(7 409)"><path d="M8.092 10.606a.347.347 0 0 0-.402-.259l-.004-.004-2.04.337c.315.849.904 1.54 1.643 2.002l.79-1.86-.006-.007a.328.328 0 0 0 .02-.21m-.679-1.431a.35.35 0 0 0 .181-.116.333.333 0 0 0-.044-.467l.002-.008L6 7.23a3.881 3.881 0 0 0-.577 2.509l1.989-.56.001-.006zm.906-1.526a.353.353 0 0 0 .206.065c.187 0 .34-.144.347-.325l.009-.004.117-2.019a4.103 4.103 0 0 0-2.382 1.111l1.7 1.174.003-.002zm.602 2.12l.572.268.571-.268.141-.6-.395-.481h-.635l-.396.48zm1.187-2.386c.003.07.028.138.076.196.116.143.328.17.477.063l.006.002 1.689-1.166A4.15 4.15 0 0 0 9.99 5.365l.117 2.016h.002z"></path><path d="M16.446 10.867c-.048.205-.276.33-.51.28h-.006l-.008-.002c-.032-.007-.073-.014-.102-.022-.135-.035-.233-.088-.355-.133-.261-.091-.477-.168-.688-.197-.108-.009-.162.041-.222.08a6.075 6.075 0 0 0-.168-.03 5.034 5.034 0 0 1-2.278 2.792c.019.044.05.139.066.155-.025.065-.063.127-.03.227.076.194.2.383.35.611.072.106.146.187.211.307.016.029.037.073.052.104.102.211.027.455-.168.547-.197.092-.441-.006-.546-.218-.015-.03-.037-.07-.05-.099-.055-.125-.075-.232-.114-.353-.09-.256-.163-.468-.271-.647-.06-.087-.134-.098-.202-.12l-.084-.147a5.229 5.229 0 0 1-3.647-.01l-.09.159c-.066.017-.13.034-.17.08-.143.168-.2.436-.305.692-.04.12-.058.228-.114.353-.013.028-.034.067-.05.097v.002c-.106.212-.35.31-.546.217-.195-.091-.27-.335-.168-.547.015-.03.035-.075.051-.103.065-.12.14-.203.212-.308.15-.228.28-.432.358-.626.019-.064-.01-.153-.036-.218l.072-.167a5.036 5.036 0 0 1-2.279-2.772l-.172.029c-.046-.025-.139-.085-.227-.078-.21.03-.427.106-.689.197-.121.045-.22.097-.354.132-.029.008-.07.016-.103.023l-.007.002-.006.001c-.234.05-.462-.076-.51-.281-.048-.206.101-.414.334-.469l.006-.002h.004c.033-.008.075-.019.105-.024.138-.026.25-.02.38-.03.275-.028.504-.051.708-.113.064-.026.126-.113.17-.167l.165-.047a4.878 4.878 0 0 1 .806-3.472l-.127-.11c-.008-.049-.018-.16-.079-.223-.155-.142-.351-.26-.588-.402-.112-.064-.215-.106-.327-.186l-.082-.065-.006-.004c-.19-.147-.233-.401-.097-.567a.385.385 0 0 1 .315-.136.477.477 0 0 1 .275.101c.027.021.064.048.088.069.106.088.17.176.26.268.195.193.356.353.533.47.093.052.164.03.234.021l.143.1A5.116 5.116 0 0 1 8.345 4.45c.238-.052.477-.087.714-.107l.01-.162a.419.419 0 0 0 .128-.2c.017-.206-.01-.429-.044-.698-.019-.125-.049-.23-.054-.366v-.108c0-.237.177-.429.395-.429.218 0 .395.192.395.428 0 .034.002.079 0 .11-.004.136-.035.24-.053.365-.033.269-.062.492-.045.699.016.103.078.144.13.192 0 .028.005.12.009.172a5.233 5.233 0 0 1 3.28 1.544l.15-.105c.05.003.163.018.24-.025.176-.116.338-.277.532-.47.09-.092.155-.18.261-.269.024-.02.061-.047.088-.068.19-.147.453-.132.59.034.135.167.092.42-.098.568-.026.02-.061.05-.087.068-.112.081-.216.123-.328.187-.236.142-.432.26-.588.402-.073.076-.068.149-.074.218l-.14.122c.34.494.596 1.055.74 1.667.143.608.166 1.214.083 1.797l.16.046c.028.04.087.135.17.167.203.062.432.085.708.113.13.01.242.004.38.03.032.006.08.018.114.026.233.055.383.263.335.469m2.511.084l-1.631-6.902a1.229 1.229 0 0 0-.683-.827L10.04.151a1.3 1.3 0 0 0-1.096 0L2.343 3.223a1.228 1.228 0 0 0-.683.828L.032 10.952a1.185 1.185 0 0 0 .243 1.032l4.57 5.534c.239.29.602.46.986.46l7.328-.002c.384 0 .747-.169.986-.459l4.568-5.534c.24-.29.33-.67.244-1.032"></path><path d="M12.976 7.231l-1.544 1.346.001.004a.335.335 0 0 0 .137.583l.002.008 1.999.561a3.956 3.956 0 0 0-.595-2.502M9.8 11.335a.353.353 0 0 0-.614 0h-.001l-1.003 1.767a4.19 4.19 0 0 0 2.632.003l-1.006-1.77H9.8zm1.494-.995a.354.354 0 0 0-.214.028.336.336 0 0 0-.169.44l-.002.002.799 1.88a3.99 3.99 0 0 0 1.647-2.016l-2.058-.339-.003.004z"></path></g></g><g transform="translate(174 334)"><path fill="#FF003C" d="M164 51.57c0 .238-.513.43-1.147.43H1.147C.513 52 0 51.808 0 51.57V19a5 5 0 0 1 5-5h154a5 5 0 0 1 5 5v32.57z"></path><path fill="#CCC" d="M5 14h154a5 5 0 0 1 5 5v18H0V19a5 5 0 0 1 5-5z"></path><text fill="#4A4A4A" font-size="12" font-weight="bold" class="sans-serif"><tspan x="4" y="11">Pod 5</tspan></text><path fill="#E74C3C" d="M17 26.5a4.5 4.5 0 1 1-9 0 4.5 4.5 0 0 1 9 0"></path><path fill="#F1C40F" d="M33 26.5a4.5 4.5 0 1 1-9 0 4.5 4.5 0 0 1 9 0"></path><path fill="#2ECC71" d="M48 26.5a4.5 4.5 0 1 1-9 0 4.5 4.5 0 0 1 9 0"></path></g><g transform="translate(174 272)"><path fill="#FF003C" d="M164 51.57c0 .238-.513.43-1.147.43H1.147C.513 52 0 51.808 0 51.57V19a5 5 0 0 1 5-5h154a5 5 0 0 1 5 5v32.57z"></path><path fill="#CCC" d="M5 14h154a5 5 0 0 1 5 5v18H0V19a5 5 0 0 1 5-5z"></path><text fill="#4A4A4A" font-size="12" font-weight="bold" class="sans-serif"><tspan x="4" y="11">Pod 4</tspan></text><path fill="#E74C3C" d="M17 26.5a4.5 4.5 0 1 1-9 0 4.5 4.5 0 0 1 9 0"></path><path fill="#F1C40F" d="M33 26.5a4.5 4.5 0 1 1-9 0 4.5 4.5 0 0 1 9 0"></path><path fill="#2ECC71" d="M48 26.5a4.5 4.5 0 1 1-9 0 4.5 4.5 0 0 1 9 0"></path></g><g transform="translate(174 210)"><path fill="#FF003C" d="M164 51.57c0 .238-.513.43-1.147.43H1.147C.513 52 0 51.808 0 51.57V19a5 5 0 0 1 5-5h154a5 5 0 0 1 5 5v32.57z"></path><path fill="#CCC" d="M5 14h154a5 5 0 0 1 5 5v18H0V19a5 5 0 0 1 5-5z"></path><text fill="#4A4A4A" font-size="12" font-weight="bold" class="sans-serif"><tspan x="4" y="11">Pod 3</tspan></text><path fill="#E74C3C" d="M17 26.5a4.5 4.5 0 1 1-9 0 4.5 4.5 0 0 1 9 0"></path><path fill="#F1C40F" d="M33 26.5a4.5 4.5 0 1 1-9 0 4.5 4.5 0 0 1 9 0"></path><path fill="#2ECC71" d="M48 26.5a4.5 4.5 0 1 1-9 0 4.5 4.5 0 0 1 9 0"></path></g><g transform="translate(174 148)"><path fill="#FF003C" d="M164 51.57c0 .238-.513.43-1.147.43H1.147C.513 52 0 51.808 0 51.57V19a5 5 0 0 1 5-5h154a5 5 0 0 1 5 5v32.57z"></path><path fill="#CCC" d="M5 14h154a5 5 0 0 1 5 5v18H0V19a5 5 0 0 1 5-5z"></path><text fill="#4A4A4A" font-size="12" font-weight="bold" class="sans-serif"><tspan x="4" y="11">Pod 2</tspan></text><path fill="#E74C3C" d="M17 26.5a4.5 4.5 0 1 1-9 0 4.5 4.5 0 0 1 9 0"></path><path fill="#F1C40F" d="M33 26.5a4.5 4.5 0 1 1-9 0 4.5 4.5 0 0 1 9 0"></path><path fill="#2ECC71" d="M48 26.5a4.5 4.5 0 1 1-9 0 4.5 4.5 0 0 1 9 0"></path></g><g transform="translate(174 86)"><path fill="#FF003C" d="M164 51.57c0 .238-.513.43-1.147.43H1.147C.513 52 0 51.808 0 51.57V19a5 5 0 0 1 5-5h154a5 5 0 0 1 5 5v32.57z"></path><path fill="#CCC" d="M5 14h154a5 5 0 0 1 5 5v18H0V19a5 5 0 0 1 5-5z"></path><text fill="#4A4A4A" font-size="12" font-weight="bold" class="sans-serif"><tspan x="4" y="11">Pod 1</tspan></text><path fill="#E74C3C" d="M17 26.5a4.5 4.5 0 1 1-9 0 4.5 4.5 0 0 1 9 0"></path><path fill="#F1C40F" d="M33 26.5a4.5 4.5 0 1 1-9 0 4.5 4.5 0 0 1 9 0"></path><path fill="#2ECC71" d="M48 26.5a4.5 4.5 0 1 1-9 0 4.5 4.5 0 0 1 9 0"></path></g><g transform="translate(411 51)"><g transform="translate(0 372)"><path fill="#D2D2D2" d="M186 5v19a5 5 0 0 1-5 5H5a5 5 0 0 1-5-5V5a5 5 0 0 1 5-5h176a5 5 0 0 1 5 5z"></path><path fill="#A3A3A3" d="M31 6h4v4h-4zm0 6h4v4h-4zm0 6h4v4h-4zm6-12h4v4h-4zm0 6h4v4h-4zm0 6h4v4h-4zm6-12h4v4h-4zm0 6h4v4h-4zm0 6h4v4h-4zm6-12h4v4h-4zm0 6h4v4h-4zm0 6h4v4h-4zm6-12h4v4h-4zm0 6h4v4h-4zm0 6h4v4h-4zm6-12h4v4h-4zm0 6h4v4h-4zm0 6h4v4h-4zm6-12h4v4h-4zm0 6h4v4h-4zm0 6h4v4h-4zm6-12h4v4h-4zm0 6h4v4h-4zm0 6h4v4h-4zm6-12h4v4h-4zm0 6h4v4h-4zm0 6h4v4h-4zm6-12h4v4h-4zm0 6h4v4h-4zm0 6h4v4h-4zm6-12h4v4h-4zm0 6h4v4h-4zm0 6h4v4h-4zm6-12h4v4h-4zm0 6h4v4h-4zm0 6h4v4h-4zm6-12h4v4h-4zm0 6h4v4h-4zm0 6h4v4h-4zm6-12h4v4h-4zm0 6h4v4h-4zm0 6h4v4h-4zm6-12h4v4h-4zm0 6h4v4h-4zm0 6h4v4h-4zm6-12h4v4h-4zm0 6h4v4h-4zm0 6h4v4h-4zm6-12h4v4h-4zm0 6h4v4h-4zm0 6h4v4h-4zm6-12h4v4h-4zm0 6h4v4h-4zm0 6h4v4h-4zm6-12h4v4h-4zm0 6h4v4h-4zm0 6h4v4h-4zm6-12h4v4h-4zm0 6h4v4h-4zm0 6h4v4h-4zm6-12h4v4h-4zm0 6h4v4h-4zm0 6h4v4h-4zm6-12h4v4h-4zm0 6h4v4h-4zm0 6h4v4h-4zm6-12h4v4h-4zm0 6h4v4h-4zm0 6h4v4h-4zm6-12h4v4h-4zm0 6h4v4h-4zm0 6h4v4h-4zm6-12h4v4h-4zm0 6h4v4h-4zm0 6h4v4h-4z"></path></g><g transform="translate(0 404)"><path fill="#D2D2D2" d="M186 5v19a5 5 0 0 1-5 5H5a5 5 0 0 1-5-5V5a5 5 0 0 1 5-5h176a5 5 0 0 1 5 5z"></path><path fill="#A3A3A3" d="M31 6h4v4h-4zm0 6h4v4h-4zm0 6h4v4h-4zm6-12h4v4h-4zm0 6h4v4h-4zm0 6h4v4h-4zm6-12h4v4h-4zm0 6h4v4h-4zm0 6h4v4h-4zm6-12h4v4h-4zm0 6h4v4h-4zm0 6h4v4h-4zm6-12h4v4h-4zm0 6h4v4h-4zm0 6h4v4h-4zm6-12h4v4h-4zm0 6h4v4h-4zm0 6h4v4h-4zm6-12h4v4h-4zm0 6h4v4h-4zm0 6h4v4h-4zm6-12h4v4h-4zm0 6h4v4h-4zm0 6h4v4h-4zm6-12h4v4h-4zm0 6h4v4h-4zm0 6h4v4h-4zm6-12h4v4h-4zm0 6h4v4h-4zm0 6h4v4h-4zm6-12h4v4h-4zm0 6h4v4h-4zm0 6h4v4h-4zm6-12h4v4h-4zm0 6h4v4h-4zm0 6h4v4h-4zm6-12h4v4h-4zm0 6h4v4h-4zm0 6h4v4h-4zm6-12h4v4h-4zm0 6h4v4h-4zm0 6h4v4h-4zm6-12h4v4h-4zm0 6h4v4h-4zm0 6h4v4h-4zm6-12h4v4h-4zm0 6h4v4h-4zm0 6h4v4h-4zm6-12h4v4h-4zm0 6h4v4h-4zm0 6h4v4h-4zm6-12h4v4h-4zm0 6h4v4h-4zm0 6h4v4h-4zm6-12h4v4h-4zm0 6h4v4h-4zm0 6h4v4h-4zm6-12h4v4h-4zm0 6h4v4h-4zm0 6h4v4h-4zm6-12h4v4h-4zm0 6h4v4h-4zm0 6h4v4h-4zm6-12h4v4h-4zm0 6h4v4h-4zm0 6h4v4h-4zm6-12h4v4h-4zm0 6h4v4h-4zm0 6h4v4h-4zm6-12h4v4h-4zm0 6h4v4h-4zm0 6h4v4h-4zm6-12h4v4h-4zm0 6h4v4h-4zm0 6h4v4h-4z"></path></g><path fill="#D2D2D2" d="M186 5v359a5 5 0 0 1-5 5H5a5 5 0 0 1-5-5V5a5 5 0 0 1 5-5h176a5 5 0 0 1 5 5z"></path><path fill="#A3A3A3" d="M7 6h4v4H7zm0 6h4v4H7zm0 6h4v4H7zm6-12h4v4h-4zm0 6h4v4h-4zm0 6h4v4h-4zm6-12h4v4h-4zm0 6h4v4h-4zm0 6h4v4h-4zm6-12h4v4h-4zm0 6h4v4h-4zm0 6h4v4h-4zm6-12h4v4h-4zm0 6h4v4h-4zm0 6h4v4h-4zm6-12h4v4h-4zm0 6h4v4h-4zm0 6h4v4h-4zm6-12h4v4h-4zm0 6h4v4h-4zm0 6h4v4h-4zm6-12h4v4h-4zm0 6h4v4h-4zm0 6h4v4h-4zm6-12h4v4h-4zm0 6h4v4h-4zm0 6h4v4h-4zm6-12h4v4h-4zm0 6h4v4h-4zm0 6h4v4h-4zm6-12h4v4h-4zm0 6h4v4h-4zm0 6h4v4h-4zm6-12h4v4h-4zm0 6h4v4h-4zm0 6h4v4h-4zm6-12h4v4h-4zm0 6h4v4h-4zm0 6h4v4h-4zm6-12h4v4h-4zm0 6h4v4h-4zm0 6h4v4h-4zm6-12h4v4h-4zm0 6h4v4h-4zm0 6h4v4h-4zm6-12h4v4h-4zm0 6h4v4h-4zm0 6h4v4h-4zm6-12h4v4h-4zm0 6h4v4h-4zm0 6h4v4h-4zm6-12h4v4h-4zm0 6h4v4h-4zm0 6h4v4h-4zm6-12h4v4h-4zm0 6h4v4h-4zm0 6h4v4h-4zm6-12h4v4h-4zm0 6h4v4h-4zm0 6h4v4h-4zm6-12h4v4h-4zm0 6h4v4h-4zm0 6h4v4h-4zm6-12h4v4h-4zm0 6h4v4h-4zm0 6h4v4h-4zm6-12h4v4h-4zm0 6h4v4h-4zm0 6h4v4h-4zm6-12h4v4h-4zm0 6h4v4h-4zm0 6h4v4h-4zm6-12h4v4h-4zm0 6h4v4h-4zm0 6h4v4h-4zm6-12h4v4h-4zm0 6h4v4h-4zm0 6h4v4h-4zm6-12h4v4h-4zm0 6h4v4h-4zm0 6h4v4h-4zm6-12h4v4h-4zm0 6h4v4h-4zm0 6h4v4h-4zm6-12h4v4h-4zm0 6h4v4h-4zm0 6h4v4h-4zM7 358h4v4H7zm6 0h4v4h-4zm6 0h4v4h-4zm6 0h4v4h-4zm6 0h4v4h-4zm6 0h4v4h-4zm6 0h4v4h-4zm6 0h4v4h-4zm6 0h4v4h-4zm6 0h4v4h-4zm6 0h4v4h-4zm6 0h4v4h-4zm6 0h4v4h-4zm6 0h4v4h-4zm6 0h4v4h-4zm6 0h4v4h-4zm6 0h4v4h-4zm6 0h4v4h-4zm6 0h4v4h-4zm6 0h4v4h-4zm6 0h4v4h-4zm6 0h4v4h-4zm6 0h4v4h-4zm6 0h4v4h-4zm6 0h4v4h-4zm6 0h4v4h-4zm6 0h4v4h-4zm6 0h4v4h-4zm6 0h4v4h-4z"></path><rect width="172" height="322" x="7" y="29" fill="#FFF" rx="2"></rect><path fill="#A3A3A3" d="M18.009 385.351h2.375v-2.162h-2.375v2.162zm-2.807 0h2.375v-2.162h-2.375v2.162zm-2.807 0h2.375v-2.162h-2.375v2.162zm-2.806 0h2.375v-2.162H9.589v2.162zm-2.807 0h2.375v-2.162H6.782v2.162zm2.807-2.594h2.375v-2.162H9.589v2.162zm2.806 0h2.375v-2.162h-2.375v2.162zm2.807 0h2.375v-2.162h-2.375v2.162zm0-2.595h2.375V378h-2.375v2.162zm12.318 3.929c-.518-.348-1.71-.475-2.627-.302-.118-.865-.6-1.615-1.475-2.293l-.504-.336-.336.504c-.43.65-.644 1.55-.574 2.413.032.303.131.846.443 1.323-.312.168-.928.4-1.74.384H5.09l-.03.18c-.148.867-.145 3.573 1.61 5.653 1.332 1.581 3.332 2.383 5.94 2.383 5.657 0 9.843-2.608 11.803-7.348.77.015 2.43.004 3.282-1.627a9.15 9.15 0 0 0 .222-.444l.082-.17-.48-.32z"></path><g fill="#A3A3A3" transform="translate(7 409)"><path d="M8.092 10.606a.347.347 0 0 0-.402-.259l-.004-.004-2.04.337c.315.849.904 1.54 1.643 2.002l.79-1.86-.006-.007a.328.328 0 0 0 .02-.21m-.679-1.431a.35.35 0 0 0 .181-.116.333.333 0 0 0-.044-.467l.002-.008L6 7.23a3.881 3.881 0 0 0-.577 2.509l1.989-.56.001-.006zm.906-1.526a.353.353 0 0 0 .206.065c.187 0 .34-.144.347-.325l.009-.004.117-2.019a4.103 4.103 0 0 0-2.382 1.111l1.7 1.174.003-.002zm.602 2.12l.572.268.571-.268.141-.6-.395-.481h-.635l-.396.48zm1.187-2.386c.003.07.028.138.076.196.116.143.328.17.477.063l.006.002 1.689-1.166A4.15 4.15 0 0 0 9.99 5.365l.117 2.016h.002z"></path><path d="M16.446 10.867c-.048.205-.276.33-.51.28h-.006l-.008-.002c-.032-.007-.073-.014-.102-.022-.135-.035-.233-.088-.355-.133-.261-.091-.477-.168-.688-.197-.108-.009-.162.041-.222.08a6.075 6.075 0 0 0-.168-.03 5.034 5.034 0 0 1-2.278 2.792c.019.044.05.139.066.155-.025.065-.063.127-.03.227.076.194.2.383.35.611.072.106.146.187.211.307.016.029.037.073.052.104.102.211.027.455-.168.547-.197.092-.441-.006-.546-.218-.015-.03-.037-.07-.05-.099-.055-.125-.075-.232-.114-.353-.09-.256-.163-.468-.271-.647-.06-.087-.134-.098-.202-.12l-.084-.147a5.229 5.229 0 0 1-3.647-.01l-.09.159c-.066.017-.13.034-.17.08-.143.168-.2.436-.305.692-.04.12-.058.228-.114.353-.013.028-.034.067-.05.097v.002c-.106.212-.35.31-.546.217-.195-.091-.27-.335-.168-.547.015-.03.035-.075.051-.103.065-.12.14-.203.212-.308.15-.228.28-.432.358-.626.019-.064-.01-.153-.036-.218l.072-.167a5.036 5.036 0 0 1-2.279-2.772l-.172.029c-.046-.025-.139-.085-.227-.078-.21.03-.427.106-.689.197-.121.045-.22.097-.354.132-.029.008-.07.016-.103.023l-.007.002-.006.001c-.234.05-.462-.076-.51-.281-.048-.206.101-.414.334-.469l.006-.002h.004c.033-.008.075-.019.105-.024.138-.026.25-.02.38-.03.275-.028.504-.051.708-.113.064-.026.126-.113.17-.167l.165-.047a4.878 4.878 0 0 1 .806-3.472l-.127-.11c-.008-.049-.018-.16-.079-.223-.155-.142-.351-.26-.588-.402-.112-.064-.215-.106-.327-.186l-.082-.065-.006-.004c-.19-.147-.233-.401-.097-.567a.385.385 0 0 1 .315-.136.477.477 0 0 1 .275.101c.027.021.064.048.088.069.106.088.17.176.26.268.195.193.356.353.533.47.093.052.164.03.234.021l.143.1A5.116 5.116 0 0 1 8.345 4.45c.238-.052.477-.087.714-.107l.01-.162a.419.419 0 0 0 .128-.2c.017-.206-.01-.429-.044-.698-.019-.125-.049-.23-.054-.366v-.108c0-.237.177-.429.395-.429.218 0 .395.192.395.428 0 .034.002.079 0 .11-.004.136-.035.24-.053.365-.033.269-.062.492-.045.699.016.103.078.144.13.192 0 .028.005.12.009.172a5.233 5.233 0 0 1 3.28 1.544l.15-.105c.05.003.163.018.24-.025.176-.116.338-.277.532-.47.09-.092.155-.18.261-.269.024-.02.061-.047.088-.068.19-.147.453-.132.59.034.135.167.092.42-.098.568-.026.02-.061.05-.087.068-.112.081-.216.123-.328.187-.236.142-.432.26-.588.402-.073.076-.068.149-.074.218l-.14.122c.34.494.596 1.055.74 1.667.143.608.166 1.214.083 1.797l.16.046c.028.04.087.135.17.167.203.062.432.085.708.113.13.01.242.004.38.03.032.006.08.018.114.026.233.055.383.263.335.469m2.511.084l-1.631-6.902a1.229 1.229 0 0 0-.683-.827L10.04.151a1.3 1.3 0 0 0-1.096 0L2.343 3.223a1.228 1.228 0 0 0-.683.828L.032 10.952a1.185 1.185 0 0 0 .243 1.032l4.57 5.534c.239.29.602.46.986.46l7.328-.002c.384 0 .747-.169.986-.459l4.568-5.534c.24-.29.33-.67.244-1.032"></path><path d="M12.976 7.231l-1.544 1.346.001.004a.335.335 0 0 0 .137.583l.002.008 1.999.561a3.956 3.956 0 0 0-.595-2.502M9.8 11.335a.353.353 0 0 0-.614 0h-.001l-1.003 1.767a4.19 4.19 0 0 0 2.632.003l-1.006-1.77H9.8zm1.494-.995a.354.354 0 0 0-.214.028.336.336 0 0 0-.169.44l-.002.002.799 1.88a3.99 3.99 0 0 0 1.647-2.016l-2.058-.339-.003.004z"></path></g></g><g transform="translate(422 334)"><path fill="#FF003C" d="M164 51.57c0 .238-.513.43-1.147.43H1.147C.513 52 0 51.808 0 51.57V19a5 5 0 0 1 5-5h154a5 5 0 0 1 5 5v32.57z"></path><path fill="#CCC" d="M5 14h154a5 5 0 0 1 5 5v18H0V19a5 5 0 0 1 5-5z"></path><text fill="#4A4A4A" font-size="12" font-weight="bold" class="sans-serif"><tspan x="4" y="11">Pod 10</tspan></text><path fill="#E74C3C" d="M17 26.5a4.5 4.5 0 1 1-9 0 4.5 4.5 0 0 1 9 0"></path><path fill="#F1C40F" d="M33 26.5a4.5 4.5 0 1 1-9 0 4.5 4.5 0 0 1 9 0"></path><path fill="#2ECC71" d="M48 26.5a4.5 4.5 0 1 1-9 0 4.5 4.5 0 0 1 9 0"></path></g><g transform="translate(422 272)"><path fill="#FF003C" d="M164 51.57c0 .238-.513.43-1.147.43H1.147C.513 52 0 51.808 0 51.57V19a5 5 0 0 1 5-5h154a5 5 0 0 1 5 5v32.57z"></path><path fill="#CCC" d="M5 14h154a5 5 0 0 1 5 5v18H0V19a5 5 0 0 1 5-5z"></path><text fill="#4A4A4A" font-size="12" font-weight="bold" class="sans-serif"><tspan x="4" y="11">Pod 9</tspan></text><path fill="#E74C3C" d="M17 26.5a4.5 4.5 0 1 1-9 0 4.5 4.5 0 0 1 9 0"></path><path fill="#F1C40F" d="M33 26.5a4.5 4.5 0 1 1-9 0 4.5 4.5 0 0 1 9 0"></path><path fill="#2ECC71" d="M48 26.5a4.5 4.5 0 1 1-9 0 4.5 4.5 0 0 1 9 0"></path></g><g transform="translate(422 210)"><path fill="#FF003C" d="M164 51.57c0 .238-.513.43-1.147.43H1.147C.513 52 0 51.808 0 51.57V19a5 5 0 0 1 5-5h154a5 5 0 0 1 5 5v32.57z"></path><path fill="#CCC" d="M5 14h154a5 5 0 0 1 5 5v18H0V19a5 5 0 0 1 5-5z"></path><text fill="#4A4A4A" font-size="12" font-weight="bold" class="sans-serif"><tspan x="4" y="11">Pod 8</tspan></text><path fill="#E74C3C" d="M17 26.5a4.5 4.5 0 1 1-9 0 4.5 4.5 0 0 1 9 0"></path><path fill="#F1C40F" d="M33 26.5a4.5 4.5 0 1 1-9 0 4.5 4.5 0 0 1 9 0"></path><path fill="#2ECC71" d="M48 26.5a4.5 4.5 0 1 1-9 0 4.5 4.5 0 0 1 9 0"></path></g><g transform="translate(422 148)"><path fill="#FF003C" d="M164 51.57c0 .238-.513.43-1.147.43H1.147C.513 52 0 51.808 0 51.57V19a5 5 0 0 1 5-5h154a5 5 0 0 1 5 5v32.57z"></path><path fill="#CCC" d="M5 14h154a5 5 0 0 1 5 5v18H0V19a5 5 0 0 1 5-5z"></path><text fill="#4A4A4A" font-size="12" font-weight="bold" class="sans-serif"><tspan x="4" y="11">Pod 7</tspan></text><path fill="#E74C3C" d="M17 26.5a4.5 4.5 0 1 1-9 0 4.5 4.5 0 0 1 9 0"></path><path fill="#F1C40F" d="M33 26.5a4.5 4.5 0 1 1-9 0 4.5 4.5 0 0 1 9 0"></path><path fill="#2ECC71" d="M48 26.5a4.5 4.5 0 1 1-9 0 4.5 4.5 0 0 1 9 0"></path></g><g transform="translate(422 86)"><path fill="#FF003C" d="M164 51.57c0 .238-.513.43-1.147.43H1.147C.513 52 0 51.808 0 51.57V19a5 5 0 0 1 5-5h154a5 5 0 0 1 5 5v32.57z"></path><path fill="#CCC" d="M5 14h154a5 5 0 0 1 5 5v18H0V19a5 5 0 0 1 5-5z"></path><text fill="#4A4A4A" font-size="12" font-weight="bold" class="sans-serif"><tspan x="4" y="11">Pod 6</tspan></text><path fill="#E74C3C" d="M17 26.5a4.5 4.5 0 1 1-9 0 4.5 4.5 0 0 1 9 0"></path><path fill="#F1C40F" d="M33 26.5a4.5 4.5 0 1 1-9 0 4.5 4.5 0 0 1 9 0"></path><path fill="#2ECC71" d="M48 26.5a4.5 4.5 0 1 1-9 0 4.5 4.5 0 0 1 9 0"></path></g></g></svg>