<?xml version="1.0" encoding="UTF-8" standalone="no"?>
<!DOCTYPE svg PUBLIC "-//W3C//DTD SVG 1.1//EN" "http://www.w3.org/Graphics/SVG/1.1/DTD/svg11.dtd">
<svg width="100%" height="100%" viewBox="0 0 800 601" version="1.1" xmlns="http://www.w3.org/2000/svg" xmlns:xlink="http://www.w3.org/1999/xlink" xml:space="preserve" xmlns:serif="http://www.serif.com/" style="fill-rule:evenodd;clip-rule:evenodd;stroke-linecap:round;stroke-linejoin:round;">
    <g transform="matrix(1,0,0,1,0,-1311)">
        <g id="SmallerDockerImages_LinearStyle_v2" transform="matrix(1,0,0,1,0,1311.74)">
            <rect x="0" y="0" width="800" height="600" style="fill:white;"/>
            <clipPath id="_clip1">
                <rect x="0" y="0" width="800" height="600"/>
            </clipPath>
            <g clip-path="url(#_clip1)">
                <g transform="matrix(1.00266,0,0,1.00266,45.7059,-770.177)">
                    <path d="M671.146,1158.32L671.146,834.203L31.808,834.203L31.808,1207.5C31.808,1207.5 44.104,1195.2 56.399,1182.91C62.921,1176.38 71.765,1172.72 80.988,1172.72C90.21,1172.72 99.055,1176.38 105.576,1182.91C105.577,1182.91 105.578,1182.91 105.579,1182.91C112.1,1189.43 120.945,1193.09 130.168,1193.09C139.39,1193.09 148.235,1189.43 154.756,1182.91C154.757,1182.91 154.758,1182.91 154.759,1182.91C161.28,1176.38 170.125,1172.72 179.348,1172.72C188.57,1172.72 197.415,1176.38 203.936,1182.91C203.937,1182.91 203.938,1182.91 203.939,1182.91C210.46,1189.43 219.305,1193.09 228.527,1193.09C237.75,1193.09 246.595,1189.43 253.116,1182.91C253.117,1182.91 253.118,1182.91 253.119,1182.91C259.64,1176.38 268.485,1172.72 277.707,1172.72C286.93,1172.72 295.774,1176.38 302.296,1182.91C302.297,1182.91 302.297,1182.91 302.298,1182.91C308.82,1189.43 317.664,1193.09 326.887,1193.09C336.109,1193.09 344.954,1189.43 351.475,1182.91C351.476,1182.91 351.477,1182.91 351.478,1182.91C357.999,1176.38 366.844,1172.72 376.067,1172.72C385.289,1172.72 394.134,1176.38 400.655,1182.91C400.656,1182.91 400.657,1182.91 400.658,1182.91C407.179,1189.43 416.024,1193.09 425.247,1193.09C434.469,1193.09 443.314,1189.43 449.835,1182.91C449.836,1182.91 449.837,1182.91 449.838,1182.91C456.359,1176.38 465.204,1172.72 474.426,1172.72C483.649,1172.72 492.494,1176.38 499.015,1182.91C499.016,1182.91 499.017,1182.91 499.018,1182.91C505.539,1189.43 514.384,1193.09 523.606,1193.09C532.829,1193.09 541.673,1189.43 548.195,1182.91C548.196,1182.91 548.196,1182.91 548.197,1182.91C554.719,1176.38 563.563,1172.72 572.786,1172.72C582.008,1172.72 590.853,1176.38 597.374,1182.91C597.375,1182.91 597.376,1182.91 597.377,1182.91C603.898,1189.43 612.743,1193.09 621.966,1193.09C631.188,1193.09 640.033,1189.43 646.554,1182.91C658.85,1170.61 671.146,1158.32 671.146,1158.32Z" style="fill:none;"/>
                    <clipPath id="_clip2">
                        <path d="M671.146,1158.32L671.146,834.203L31.808,834.203L31.808,1207.5C31.808,1207.5 44.104,1195.2 56.399,1182.91C62.921,1176.38 71.765,1172.72 80.988,1172.72C90.21,1172.72 99.055,1176.38 105.576,1182.91C105.577,1182.91 105.578,1182.91 105.579,1182.91C112.1,1189.43 120.945,1193.09 130.168,1193.09C139.39,1193.09 148.235,1189.43 154.756,1182.91C154.757,1182.91 154.758,1182.91 154.759,1182.91C161.28,1176.38 170.125,1172.72 179.348,1172.72C188.57,1172.72 197.415,1176.38 203.936,1182.91C203.937,1182.91 203.938,1182.91 203.939,1182.91C210.46,1189.43 219.305,1193.09 228.527,1193.09C237.75,1193.09 246.595,1189.43 253.116,1182.91C253.117,1182.91 253.118,1182.91 253.119,1182.91C259.64,1176.38 268.485,1172.72 277.707,1172.72C286.93,1172.72 295.774,1176.38 302.296,1182.91C302.297,1182.91 302.297,1182.91 302.298,1182.91C308.82,1189.43 317.664,1193.09 326.887,1193.09C336.109,1193.09 344.954,1189.43 351.475,1182.91C351.476,1182.91 351.477,1182.91 351.478,1182.91C357.999,1176.38 366.844,1172.72 376.067,1172.72C385.289,1172.72 394.134,1176.38 400.655,1182.91C400.656,1182.91 400.657,1182.91 400.658,1182.91C407.179,1189.43 416.024,1193.09 425.247,1193.09C434.469,1193.09 443.314,1189.43 449.835,1182.91C449.836,1182.91 449.837,1182.91 449.838,1182.91C456.359,1176.38 465.204,1172.72 474.426,1172.72C483.649,1172.72 492.494,1176.38 499.015,1182.91C499.016,1182.91 499.017,1182.91 499.018,1182.91C505.539,1189.43 514.384,1193.09 523.606,1193.09C532.829,1193.09 541.673,1189.43 548.195,1182.91C548.196,1182.91 548.196,1182.91 548.197,1182.91C554.719,1176.38 563.563,1172.72 572.786,1172.72C582.008,1172.72 590.853,1176.38 597.374,1182.91C597.375,1182.91 597.376,1182.91 597.377,1182.91C603.898,1189.43 612.743,1193.09 621.966,1193.09C631.188,1193.09 640.033,1189.43 646.554,1182.91C658.85,1170.61 671.146,1158.32 671.146,1158.32Z"/>
                    </clipPath>
                    <g clip-path="url(#_clip2)">
                        <g transform="matrix(0.86242,0,0,0.86242,-16.1936,269.376)">
                            <circle cx="426.324" cy="1030.75" r="351.036" style="fill:rgb(144,203,255);fill-opacity:0.1;"/>
                        </g>
                        <g transform="matrix(0.684938,0,0,0.684938,59.4711,452.315)">
                            <circle cx="426.324" cy="1030.75" r="351.036" style="fill:rgb(144,203,255);fill-opacity:0.2;"/>
                        </g>
                        <g transform="matrix(0.429342,0,0,0.429342,168.438,715.772)">
                            <circle cx="426.324" cy="1030.75" r="351.036" style="fill:rgb(144,203,255);fill-opacity:0.2;"/>
                        </g>
                    </g>
                </g>
                <g id="Shape" transform="matrix(12.6088,0,0,12.6088,188.033,170.495)">
                    <path d="M32.2,10C32.1,8.5 31.3,7.2 29.9,6.1L29.4,5.7L29,6.2C28.3,7.3 28,8.7 28.1,9.9C28.2,10.7 28.5,11.6 29,12.2C28.6,12.5 27.3,13.1 25.6,13.1C25.6,13.1 7.634,13.1 2.042,13.1C1.569,13.1 1.117,13.291 0.789,13.63C0.46,13.969 0.283,14.427 0.298,14.899C0.435,18.802 2.571,26 12.4,26C21.1,26 28.2,22.1 31.5,13.9C32.6,13.9 35.4,14.1 36.8,11.4L37.2,10.7L36.7,10.3C35.8,9.8 33.7,9.6 32.2,10Z" style="fill:rgb(144,203,255);fill-rule:nonzero;"/>
                </g>
                <g transform="matrix(0.884393,0,0,0.884393,44.3613,-501.48)">
                    <path d="M181.84,1039.55C194.81,1027.94 215.794,1028.41 228.27,1039.92C232.857,1044.2 237.839,1048.05 243.609,1050.44C260.425,1057.41 279.798,1052.28 292.791,1040.07C305.709,1027.93 327.126,1028.24 339.783,1039.92C344.371,1044.21 349.352,1048.05 355.122,1050.44C371.939,1057.41 391.311,1052.28 404.304,1040.07C417.221,1027.93 438.639,1028.24 451.297,1039.92C455.885,1044.21 460.865,1048.05 466.635,1050.44C483.452,1057.41 502.823,1052.28 515.817,1040.07C528.534,1028.12 549.486,1028.24 562.212,1039.38C508.179,1100.87 429.788,1130.5 339.24,1130.5C246.858,1130.5 202.141,1085.89 181.84,1039.55Z" style="fill:rgb(66,135,239);"/>
                </g>
                <g transform="matrix(0.884393,0,0,0.884393,44.3613,-534.243)">
                    <path d="M548.68,1069.32C553.647,1070.64 558.315,1073.02 562.212,1076.43C508.179,1137.91 429.788,1167.54 339.24,1167.54C246.858,1167.54 202.141,1122.94 181.84,1076.6C182.2,1076.28 182.567,1075.96 182.939,1075.66C212.244,1109.76 259.625,1135.76 334.792,1135.76C417.389,1135.76 491.079,1114.05 548.68,1069.32Z" style="fill:rgb(2,67,167);fill-opacity:0.2;"/>
                </g>
                <g transform="matrix(0.884393,0,0,0.884393,44.3613,-534.243)">
                    <path d="M195.989,1102.2C246.366,1168.19 314.381,1172.86 388.779,1164.41C352.225,1146.78 327.739,1121.51 317.949,1086.91C282.938,1129.52 229.88,1128.39 195.989,1102.2Z" style="fill:white;fill-opacity:0.5;"/>
                </g>
                <g transform="matrix(0.884393,0,0,0.884393,54.0896,-490.444)">
                    <path d="M237.237,934.103C232.597,973.559 242.977,1074.01 332.086,1118C330.807,1118.01 329.525,1118.02 328.24,1118.02C188.115,1118.02 157.652,1015.4 155.718,959.75C155.509,953.028 158.034,946.508 162.715,941.679C167.396,936.851 173.835,934.125 180.56,934.125C204.195,934.103 237.237,934.103 237.237,934.103Z" style="fill:white;fill-opacity:0.4;"/>
                </g>
                <g transform="matrix(0.884393,0,0,0.884393,54.0896,-490.444)">
                    <path d="M177.854,934.103C177.652,981.531 194.237,1064.13 266.571,1110.05C176.7,1084.33 156.393,1002.46 155.638,956.65C155.554,950.704 157.857,944.972 162.032,940.737C166.208,936.503 171.906,934.118 177.853,934.118C177.854,934.103 177.854,934.103 177.854,934.103Z" style="fill:white;fill-opacity:0.4;"/>
                </g>
                <g id="Shape1" serif:id="Shape" transform="matrix(12.6088,0,0,12.6088,188.033,170.495)">
                    <path d="M32.2,10C32.1,8.5 31.3,7.2 29.9,6.1L29.4,5.7L29,6.2C28.3,7.3 28,8.7 28.1,9.9C28.2,10.7 28.5,11.6 29,12.2C28.6,12.5 27.3,13.1 25.6,13.1C25.6,13.1 7.634,13.1 2.042,13.1C1.569,13.1 1.117,13.291 0.789,13.63C0.46,13.969 0.283,14.427 0.298,14.899C0.435,18.802 2.571,26 12.4,26C21.1,26 28.2,22.1 31.5,13.9C32.6,13.9 35.4,14.1 36.8,11.4L37.2,10.7L36.7,10.3C35.8,9.8 33.7,9.6 32.2,10Z" style="fill:none;stroke:rgb(0,66,166);stroke-width:0.48px;"/>
                </g>
                <g transform="matrix(0.628851,0,0,0.628851,185.629,-251.428)">
                    <circle cx="247.302" cy="988.744" r="29.328" style="fill:white;"/>
                </g>
                <g transform="matrix(0.949525,0,0,0.949525,106.326,40.8287)">
                    <path d="M244.878,336.383C245.654,336.203 246.467,336.109 247.302,336.109C253.33,336.109 258.225,341.004 258.225,347.032C258.225,353.061 253.33,357.955 247.302,357.955C241.273,357.955 236.379,353.061 236.379,347.032C236.379,346.198 236.472,345.385 236.652,344.608C237.722,346.08 239.455,347.032 241.408,347.032C244.661,347.032 247.302,344.391 247.302,341.138C247.302,339.185 246.349,337.452 244.878,336.383Z" style="fill:rgb(0,66,166);"/>
                </g>
                <g transform="matrix(0.628851,0,0,0.628851,185.629,-251.428)">
                    <path d="M261.662,963.171C270.593,968.201 276.63,977.773 276.63,988.744C276.63,1004.93 263.488,1018.07 247.302,1018.07C238.287,1018.07 230.216,1014 224.835,1007.59C229.08,1009.98 233.98,1011.34 239.195,1011.34C255.382,1011.34 268.523,998.201 268.523,982.015C268.523,974.843 265.943,968.269 261.662,963.171Z" style="fill:rgb(158,197,255);"/>
                </g>
                <g transform="matrix(0.628851,0,0,0.628851,185.629,-251.428)">
                    <circle cx="247.302" cy="988.744" r="29.328" style="fill:none;stroke:rgb(0,66,166);stroke-width:6.36px;"/>
                </g>
                <g transform="matrix(0.924226,0,0,0.924226,0.16413,-451.098)">
                    <path d="M52.637,811.162L73.484,811.162C73.484,794.651 86.889,781.246 103.401,781.246C108.239,781.246 112.811,782.397 116.857,784.441C121.546,763.816 140.009,748.403 162.044,748.403C183.591,748.403 201.723,763.142 206.899,783.079C210.119,781.893 213.597,781.246 217.226,781.246C233.737,781.246 247.142,794.651 247.142,811.162L286.84,811.162" style="fill:white;"/>
                </g>
                <g transform="matrix(1.04505,0,0,1.04505,134.295,-664.767)">
                    <path d="M52.637,811.162L73.484,811.162C73.484,794.651 86.889,781.246 103.401,781.246C108.239,781.246 112.811,782.397 116.857,784.441C121.546,763.816 140.009,748.403 162.044,748.403C183.591,748.403 201.723,763.142 206.899,783.079C210.119,781.893 213.597,781.246 217.226,781.246C233.737,781.246 247.142,794.651 247.142,811.162L286.84,811.162" style="fill:white;"/>
                </g>
                <g transform="matrix(0.788453,0,0,0.788453,448.389,-477.733)">
                    <path d="M52.637,811.162L73.484,811.162C73.484,794.651 86.889,781.246 103.401,781.246C108.239,781.246 112.811,782.397 116.857,784.441C121.546,763.816 140.009,748.403 162.044,748.403C183.591,748.403 201.723,763.142 206.899,783.079C210.119,781.893 213.597,781.246 217.226,781.246C233.737,781.246 247.142,794.651 247.142,811.162L286.84,811.162" style="fill:white;"/>
                </g>
                <g transform="matrix(0.823554,0,0,0.823554,583.211,-279.124)">
                    <path d="M52.637,811.162L73.484,811.162C73.484,794.651 86.889,781.246 103.401,781.246C108.239,781.246 112.811,782.397 116.857,784.441C121.546,763.816 140.009,748.403 162.044,748.403C183.591,748.403 201.723,763.142 206.899,783.079C210.119,781.893 213.597,781.246 217.226,781.246C233.737,781.246 247.142,794.651 247.142,811.162L286.84,811.162" style="fill:white;"/>
                </g>
                <g transform="matrix(0.886052,0,0,0.895049,55.4889,35.2086)">
                    <g transform="matrix(0.413285,0,0,0.413285,109.903,-71.0014)">
                        <path d="M470.757,835.868C470.757,835.151 470.469,834.463 469.957,833.956C469.445,833.449 468.751,833.164 468.026,833.164C448.334,833.164 328.243,833.164 308.551,833.164C307.827,833.164 307.132,833.449 306.62,833.956C306.108,834.463 305.82,835.151 305.82,835.868C305.82,854.406 305.82,962.56 305.82,981.098C305.82,981.815 306.108,982.503 306.62,983.01C307.132,983.517 307.827,983.802 308.551,983.802C328.243,983.802 448.334,983.802 468.026,983.802C468.751,983.802 469.445,983.517 469.957,983.01C470.469,982.503 470.757,981.815 470.757,981.098C470.757,962.56 470.757,854.406 470.757,835.868Z" style="fill:rgb(241,247,255);stroke:rgb(0,66,166);stroke-width:10.87px;"/>
                    </g>
                    <g transform="matrix(0.0419172,0,0,0.295833,254.101,35.7019)">
                        <path d="M470.757,836.941C470.757,835.939 467.92,834.979 462.871,834.27C457.822,833.562 450.973,833.164 443.832,833.164C413.18,833.164 363.397,833.164 332.745,833.164C325.604,833.164 318.755,833.562 313.706,834.27C308.657,834.979 305.82,835.939 305.82,836.941C305.82,857.839 305.82,959.126 305.82,980.025C305.82,981.027 308.657,981.987 313.706,982.695C318.755,983.404 325.604,983.802 332.745,983.802C363.397,983.802 413.18,983.802 443.832,983.802C450.973,983.802 457.822,983.404 462.871,982.695C467.92,981.987 470.757,981.027 470.757,980.025C470.757,959.126 470.757,857.839 470.757,836.941Z" style="fill:rgb(188,215,255);"/>
                    </g>
                    <g transform="matrix(0.0419172,0,0,0.295833,270.284,35.7019)">
                        <path d="M470.757,836.941C470.757,835.939 467.92,834.979 462.871,834.27C457.822,833.562 450.973,833.164 443.832,833.164C413.18,833.164 363.397,833.164 332.745,833.164C325.604,833.164 318.755,833.562 313.706,834.27C308.657,834.979 305.82,835.939 305.82,836.941C305.82,857.839 305.82,959.126 305.82,980.025C305.82,981.027 308.657,981.987 313.706,982.695C318.755,983.404 325.604,983.802 332.745,983.802C363.397,983.802 413.18,983.802 443.832,983.802C450.973,983.802 457.822,983.404 462.871,982.695C467.92,981.987 470.757,981.027 470.757,980.025C470.757,959.126 470.757,857.839 470.757,836.941Z" style="fill:rgb(188,215,255);"/>
                    </g>
                    <g transform="matrix(0.0419172,0,0,0.295833,237.917,35.7019)">
                        <path d="M470.757,836.941C470.757,835.939 467.92,834.979 462.871,834.27C457.822,833.562 450.973,833.164 443.832,833.164C413.18,833.164 363.397,833.164 332.745,833.164C325.604,833.164 318.755,833.562 313.706,834.27C308.657,834.979 305.82,835.939 305.82,836.941C305.82,857.839 305.82,959.126 305.82,980.025C305.82,981.027 308.657,981.987 313.706,982.695C318.755,983.404 325.604,983.802 332.745,983.802C363.397,983.802 413.18,983.802 443.832,983.802C450.973,983.802 457.822,983.404 462.871,982.695C467.92,981.987 470.757,981.027 470.757,980.025C470.757,959.126 470.757,857.839 470.757,836.941Z" style="fill:rgb(188,215,255);"/>
                    </g>
                    <g transform="matrix(0.0419172,0,0,0.0142283,254.101,270.325)">
                        <path d="M470.757,911.688C470.757,890.862 467.92,870.889 462.871,856.163C457.822,841.437 450.973,833.164 443.832,833.164C413.18,833.164 363.397,833.164 332.745,833.164C325.604,833.164 318.755,841.437 313.706,856.163C308.657,870.889 305.82,890.862 305.82,911.688C305.82,948.249 305.82,983.802 305.82,983.802L470.757,983.802C470.757,983.802 470.757,948.249 470.757,911.688Z" style="fill:rgb(144,188,255);"/>
                    </g>
                    <g transform="matrix(0.0419172,0,0,0.0142283,270.284,270.325)">
                        <path d="M470.757,911.688C470.757,890.862 467.92,870.889 462.871,856.163C457.822,841.437 450.973,833.164 443.832,833.164C413.18,833.164 363.397,833.164 332.745,833.164C325.604,833.164 318.755,841.437 313.706,856.163C308.657,870.889 305.82,890.862 305.82,911.688C305.82,948.249 305.82,983.802 305.82,983.802L470.757,983.802C470.757,983.802 470.757,948.249 470.757,911.688Z" style="fill:rgb(144,188,255);"/>
                    </g>
                    <g transform="matrix(0.0419172,0,0,0.0142283,237.917,270.325)">
                        <path d="M470.757,911.688C470.757,890.862 467.92,870.889 462.871,856.163C457.822,841.437 450.973,833.164 443.832,833.164C413.18,833.164 363.397,833.164 332.745,833.164C325.604,833.164 318.755,841.437 313.706,856.163C308.657,870.889 305.82,890.862 305.82,911.688C305.82,948.249 305.82,983.802 305.82,983.802L470.757,983.802C470.757,983.802 470.757,948.249 470.757,911.688Z" style="fill:rgb(144,188,255);"/>
                    </g>
                </g>
                <g transform="matrix(0.886052,0,0,0.895049,115.888,35.2086)">
                    <g transform="matrix(0.413285,0,0,0.413285,109.903,-71.0014)">
                        <path d="M470.757,835.868C470.757,835.151 470.469,834.463 469.957,833.956C469.445,833.449 468.751,833.164 468.026,833.164C448.334,833.164 328.243,833.164 308.551,833.164C307.827,833.164 307.132,833.449 306.62,833.956C306.108,834.463 305.82,835.151 305.82,835.868C305.82,854.406 305.82,962.56 305.82,981.098C305.82,981.815 306.108,982.503 306.62,983.01C307.132,983.517 307.827,983.802 308.551,983.802C328.243,983.802 448.334,983.802 468.026,983.802C468.751,983.802 469.445,983.517 469.957,983.01C470.469,982.503 470.757,981.815 470.757,981.098C470.757,962.56 470.757,854.406 470.757,835.868Z" style="fill:rgb(241,247,255);stroke:rgb(0,66,166);stroke-width:10.87px;"/>
                    </g>
                    <g transform="matrix(0.0419172,0,0,0.295833,254.101,35.7019)">
                        <path d="M470.757,836.941C470.757,835.939 467.92,834.979 462.871,834.27C457.822,833.562 450.973,833.164 443.832,833.164C413.18,833.164 363.397,833.164 332.745,833.164C325.604,833.164 318.755,833.562 313.706,834.27C308.657,834.979 305.82,835.939 305.82,836.941C305.82,857.839 305.82,959.126 305.82,980.025C305.82,981.027 308.657,981.987 313.706,982.695C318.755,983.404 325.604,983.802 332.745,983.802C363.397,983.802 413.18,983.802 443.832,983.802C450.973,983.802 457.822,983.404 462.871,982.695C467.92,981.987 470.757,981.027 470.757,980.025C470.757,959.126 470.757,857.839 470.757,836.941Z" style="fill:rgb(188,215,255);"/>
                    </g>
                    <g transform="matrix(0.0419172,0,0,0.295833,270.284,35.7019)">
                        <path d="M470.757,836.941C470.757,835.939 467.92,834.979 462.871,834.27C457.822,833.562 450.973,833.164 443.832,833.164C413.18,833.164 363.397,833.164 332.745,833.164C325.604,833.164 318.755,833.562 313.706,834.27C308.657,834.979 305.82,835.939 305.82,836.941C305.82,857.839 305.82,959.126 305.82,980.025C305.82,981.027 308.657,981.987 313.706,982.695C318.755,983.404 325.604,983.802 332.745,983.802C363.397,983.802 413.18,983.802 443.832,983.802C450.973,983.802 457.822,983.404 462.871,982.695C467.92,981.987 470.757,981.027 470.757,980.025C470.757,959.126 470.757,857.839 470.757,836.941Z" style="fill:rgb(188,215,255);"/>
                    </g>
                    <g transform="matrix(0.0419172,0,0,0.295833,237.917,35.7019)">
                        <path d="M470.757,836.941C470.757,835.939 467.92,834.979 462.871,834.27C457.822,833.562 450.973,833.164 443.832,833.164C413.18,833.164 363.397,833.164 332.745,833.164C325.604,833.164 318.755,833.562 313.706,834.27C308.657,834.979 305.82,835.939 305.82,836.941C305.82,857.839 305.82,959.126 305.82,980.025C305.82,981.027 308.657,981.987 313.706,982.695C318.755,983.404 325.604,983.802 332.745,983.802C363.397,983.802 413.18,983.802 443.832,983.802C450.973,983.802 457.822,983.404 462.871,982.695C467.92,981.987 470.757,981.027 470.757,980.025C470.757,959.126 470.757,857.839 470.757,836.941Z" style="fill:rgb(188,215,255);"/>
                    </g>
                    <g transform="matrix(0.0419172,0,0,0.0142283,254.101,270.325)">
                        <path d="M470.757,911.688C470.757,890.862 467.92,870.889 462.871,856.163C457.822,841.437 450.973,833.164 443.832,833.164C413.18,833.164 363.397,833.164 332.745,833.164C325.604,833.164 318.755,841.437 313.706,856.163C308.657,870.889 305.82,890.862 305.82,911.688C305.82,948.249 305.82,983.802 305.82,983.802L470.757,983.802C470.757,983.802 470.757,948.249 470.757,911.688Z" style="fill:rgb(144,188,255);"/>
                    </g>
                    <g transform="matrix(0.0419172,0,0,0.0142283,270.284,270.325)">
                        <path d="M470.757,911.688C470.757,890.862 467.92,870.889 462.871,856.163C457.822,841.437 450.973,833.164 443.832,833.164C413.18,833.164 363.397,833.164 332.745,833.164C325.604,833.164 318.755,841.437 313.706,856.163C308.657,870.889 305.82,890.862 305.82,911.688C305.82,948.249 305.82,983.802 305.82,983.802L470.757,983.802C470.757,983.802 470.757,948.249 470.757,911.688Z" style="fill:rgb(144,188,255);"/>
                    </g>
                    <g transform="matrix(0.0419172,0,0,0.0142283,237.917,270.325)">
                        <path d="M470.757,911.688C470.757,890.862 467.92,870.889 462.871,856.163C457.822,841.437 450.973,833.164 443.832,833.164C413.18,833.164 363.397,833.164 332.745,833.164C325.604,833.164 318.755,841.437 313.706,856.163C308.657,870.889 305.82,890.862 305.82,911.688C305.82,948.249 305.82,983.802 305.82,983.802L470.757,983.802C470.757,983.802 470.757,948.249 470.757,911.688Z" style="fill:rgb(144,188,255);"/>
                    </g>
                </g>
                <g transform="matrix(0.886052,0,0,0.895049,176.286,35.2086)">
                    <g transform="matrix(0.413285,0,0,0.413285,109.903,-71.0014)">
                        <path d="M470.757,835.868C470.757,835.151 470.469,834.463 469.957,833.956C469.445,833.449 468.751,833.164 468.026,833.164C448.334,833.164 328.243,833.164 308.551,833.164C307.827,833.164 307.132,833.449 306.62,833.956C306.108,834.463 305.82,835.151 305.82,835.868C305.82,854.406 305.82,962.56 305.82,981.098C305.82,981.815 306.108,982.503 306.62,983.01C307.132,983.517 307.827,983.802 308.551,983.802C328.243,983.802 448.334,983.802 468.026,983.802C468.751,983.802 469.445,983.517 469.957,983.01C470.469,982.503 470.757,981.815 470.757,981.098C470.757,962.56 470.757,854.406 470.757,835.868Z" style="fill:rgb(241,247,255);stroke:rgb(0,66,166);stroke-width:10.87px;"/>
                    </g>
                    <g transform="matrix(0.0419172,0,0,0.295833,254.101,35.7019)">
                        <path d="M470.757,836.941C470.757,835.939 467.92,834.979 462.871,834.27C457.822,833.562 450.973,833.164 443.832,833.164C413.18,833.164 363.397,833.164 332.745,833.164C325.604,833.164 318.755,833.562 313.706,834.27C308.657,834.979 305.82,835.939 305.82,836.941C305.82,857.839 305.82,959.126 305.82,980.025C305.82,981.027 308.657,981.987 313.706,982.695C318.755,983.404 325.604,983.802 332.745,983.802C363.397,983.802 413.18,983.802 443.832,983.802C450.973,983.802 457.822,983.404 462.871,982.695C467.92,981.987 470.757,981.027 470.757,980.025C470.757,959.126 470.757,857.839 470.757,836.941Z" style="fill:rgb(188,215,255);"/>
                    </g>
                    <g transform="matrix(0.0419172,0,0,0.295833,270.284,35.7019)">
                        <path d="M470.757,836.941C470.757,835.939 467.92,834.979 462.871,834.27C457.822,833.562 450.973,833.164 443.832,833.164C413.18,833.164 363.397,833.164 332.745,833.164C325.604,833.164 318.755,833.562 313.706,834.27C308.657,834.979 305.82,835.939 305.82,836.941C305.82,857.839 305.82,959.126 305.82,980.025C305.82,981.027 308.657,981.987 313.706,982.695C318.755,983.404 325.604,983.802 332.745,983.802C363.397,983.802 413.18,983.802 443.832,983.802C450.973,983.802 457.822,983.404 462.871,982.695C467.92,981.987 470.757,981.027 470.757,980.025C470.757,959.126 470.757,857.839 470.757,836.941Z" style="fill:rgb(188,215,255);"/>
                    </g>
                    <g transform="matrix(0.0419172,0,0,0.295833,237.917,35.7019)">
                        <path d="M470.757,836.941C470.757,835.939 467.92,834.979 462.871,834.27C457.822,833.562 450.973,833.164 443.832,833.164C413.18,833.164 363.397,833.164 332.745,833.164C325.604,833.164 318.755,833.562 313.706,834.27C308.657,834.979 305.82,835.939 305.82,836.941C305.82,857.839 305.82,959.126 305.82,980.025C305.82,981.027 308.657,981.987 313.706,982.695C318.755,983.404 325.604,983.802 332.745,983.802C363.397,983.802 413.18,983.802 443.832,983.802C450.973,983.802 457.822,983.404 462.871,982.695C467.92,981.987 470.757,981.027 470.757,980.025C470.757,959.126 470.757,857.839 470.757,836.941Z" style="fill:rgb(188,215,255);"/>
                    </g>
                    <g transform="matrix(0.0419172,0,0,0.0142283,254.101,270.325)">
                        <path d="M470.757,911.688C470.757,890.862 467.92,870.889 462.871,856.163C457.822,841.437 450.973,833.164 443.832,833.164C413.18,833.164 363.397,833.164 332.745,833.164C325.604,833.164 318.755,841.437 313.706,856.163C308.657,870.889 305.82,890.862 305.82,911.688C305.82,948.249 305.82,983.802 305.82,983.802L470.757,983.802C470.757,983.802 470.757,948.249 470.757,911.688Z" style="fill:rgb(144,188,255);"/>
                    </g>
                    <g transform="matrix(0.0419172,0,0,0.0142283,270.284,270.325)">
                        <path d="M470.757,911.688C470.757,890.862 467.92,870.889 462.871,856.163C457.822,841.437 450.973,833.164 443.832,833.164C413.18,833.164 363.397,833.164 332.745,833.164C325.604,833.164 318.755,841.437 313.706,856.163C308.657,870.889 305.82,890.862 305.82,911.688C305.82,948.249 305.82,983.802 305.82,983.802L470.757,983.802C470.757,983.802 470.757,948.249 470.757,911.688Z" style="fill:rgb(144,188,255);"/>
                    </g>
                    <g transform="matrix(0.0419172,0,0,0.0142283,237.917,270.325)">
                        <path d="M470.757,911.688C470.757,890.862 467.92,870.889 462.871,856.163C457.822,841.437 450.973,833.164 443.832,833.164C413.18,833.164 363.397,833.164 332.745,833.164C325.604,833.164 318.755,841.437 313.706,856.163C308.657,870.889 305.82,890.862 305.82,911.688C305.82,948.249 305.82,983.802 305.82,983.802L470.757,983.802C470.757,983.802 470.757,948.249 470.757,911.688Z" style="fill:rgb(144,188,255);"/>
                    </g>
                </g>
                <g transform="matrix(0.886052,0,0,0.895049,236.685,35.2086)">
                    <g transform="matrix(0.413285,0,0,0.413285,109.903,-71.0014)">
                        <path d="M470.757,835.868C470.757,835.151 470.469,834.463 469.957,833.956C469.445,833.449 468.751,833.164 468.026,833.164C448.334,833.164 328.243,833.164 308.551,833.164C307.827,833.164 307.132,833.449 306.62,833.956C306.108,834.463 305.82,835.151 305.82,835.868C305.82,854.406 305.82,962.56 305.82,981.098C305.82,981.815 306.108,982.503 306.62,983.01C307.132,983.517 307.827,983.802 308.551,983.802C328.243,983.802 448.334,983.802 468.026,983.802C468.751,983.802 469.445,983.517 469.957,983.01C470.469,982.503 470.757,981.815 470.757,981.098C470.757,962.56 470.757,854.406 470.757,835.868Z" style="fill:rgb(241,247,255);stroke:rgb(0,66,166);stroke-width:10.87px;"/>
                    </g>
                    <g transform="matrix(0.0419172,0,0,0.295833,254.101,35.7019)">
                        <path d="M470.757,836.941C470.757,835.939 467.92,834.979 462.871,834.27C457.822,833.562 450.973,833.164 443.832,833.164C413.18,833.164 363.397,833.164 332.745,833.164C325.604,833.164 318.755,833.562 313.706,834.27C308.657,834.979 305.82,835.939 305.82,836.941C305.82,857.839 305.82,959.126 305.82,980.025C305.82,981.027 308.657,981.987 313.706,982.695C318.755,983.404 325.604,983.802 332.745,983.802C363.397,983.802 413.18,983.802 443.832,983.802C450.973,983.802 457.822,983.404 462.871,982.695C467.92,981.987 470.757,981.027 470.757,980.025C470.757,959.126 470.757,857.839 470.757,836.941Z" style="fill:rgb(188,215,255);"/>
                    </g>
                    <g transform="matrix(0.0419172,0,0,0.295833,270.284,35.7019)">
                        <path d="M470.757,836.941C470.757,835.939 467.92,834.979 462.871,834.27C457.822,833.562 450.973,833.164 443.832,833.164C413.18,833.164 363.397,833.164 332.745,833.164C325.604,833.164 318.755,833.562 313.706,834.27C308.657,834.979 305.82,835.939 305.82,836.941C305.82,857.839 305.82,959.126 305.82,980.025C305.82,981.027 308.657,981.987 313.706,982.695C318.755,983.404 325.604,983.802 332.745,983.802C363.397,983.802 413.18,983.802 443.832,983.802C450.973,983.802 457.822,983.404 462.871,982.695C467.92,981.987 470.757,981.027 470.757,980.025C470.757,959.126 470.757,857.839 470.757,836.941Z" style="fill:rgb(188,215,255);"/>
                    </g>
                    <g transform="matrix(0.0419172,0,0,0.295833,237.917,35.7019)">
                        <path d="M470.757,836.941C470.757,835.939 467.92,834.979 462.871,834.27C457.822,833.562 450.973,833.164 443.832,833.164C413.18,833.164 363.397,833.164 332.745,833.164C325.604,833.164 318.755,833.562 313.706,834.27C308.657,834.979 305.82,835.939 305.82,836.941C305.82,857.839 305.82,959.126 305.82,980.025C305.82,981.027 308.657,981.987 313.706,982.695C318.755,983.404 325.604,983.802 332.745,983.802C363.397,983.802 413.18,983.802 443.832,983.802C450.973,983.802 457.822,983.404 462.871,982.695C467.92,981.987 470.757,981.027 470.757,980.025C470.757,959.126 470.757,857.839 470.757,836.941Z" style="fill:rgb(188,215,255);"/>
                    </g>
                    <g transform="matrix(0.0419172,0,0,0.0142283,254.101,270.325)">
                        <path d="M470.757,911.688C470.757,890.862 467.92,870.889 462.871,856.163C457.822,841.437 450.973,833.164 443.832,833.164C413.18,833.164 363.397,833.164 332.745,833.164C325.604,833.164 318.755,841.437 313.706,856.163C308.657,870.889 305.82,890.862 305.82,911.688C305.82,948.249 305.82,983.802 305.82,983.802L470.757,983.802C470.757,983.802 470.757,948.249 470.757,911.688Z" style="fill:rgb(144,188,255);"/>
                    </g>
                    <g transform="matrix(0.0419172,0,0,0.0142283,270.284,270.325)">
                        <path d="M470.757,911.688C470.757,890.862 467.92,870.889 462.871,856.163C457.822,841.437 450.973,833.164 443.832,833.164C413.18,833.164 363.397,833.164 332.745,833.164C325.604,833.164 318.755,841.437 313.706,856.163C308.657,870.889 305.82,890.862 305.82,911.688C305.82,948.249 305.82,983.802 305.82,983.802L470.757,983.802C470.757,983.802 470.757,948.249 470.757,911.688Z" style="fill:rgb(144,188,255);"/>
                    </g>
                    <g transform="matrix(0.0419172,0,0,0.0142283,237.917,270.325)">
                        <path d="M470.757,911.688C470.757,890.862 467.92,870.889 462.871,856.163C457.822,841.437 450.973,833.164 443.832,833.164C413.18,833.164 363.397,833.164 332.745,833.164C325.604,833.164 318.755,841.437 313.706,856.163C308.657,870.889 305.82,890.862 305.82,911.688C305.82,948.249 305.82,983.802 305.82,983.802L470.757,983.802C470.757,983.802 470.757,948.249 470.757,911.688Z" style="fill:rgb(144,188,255);"/>
                    </g>
                </g>
                <g transform="matrix(0.886052,0,0,0.895049,236.685,-20.5138)">
                    <g transform="matrix(0.413285,0,0,0.413285,109.903,-71.0014)">
                        <path d="M470.757,835.868C470.757,835.151 470.469,834.463 469.957,833.956C469.445,833.449 468.751,833.164 468.026,833.164C448.334,833.164 328.243,833.164 308.551,833.164C307.827,833.164 307.132,833.449 306.62,833.956C306.108,834.463 305.82,835.151 305.82,835.868C305.82,854.406 305.82,962.56 305.82,981.098C305.82,981.815 306.108,982.503 306.62,983.01C307.132,983.517 307.827,983.802 308.551,983.802C328.243,983.802 448.334,983.802 468.026,983.802C468.751,983.802 469.445,983.517 469.957,983.01C470.469,982.503 470.757,981.815 470.757,981.098C470.757,962.56 470.757,854.406 470.757,835.868Z" style="fill:rgb(241,247,255);stroke:rgb(0,66,166);stroke-width:10.87px;"/>
                    </g>
                    <g transform="matrix(0.0419172,0,0,0.295833,254.101,35.7019)">
                        <path d="M470.757,836.941C470.757,835.939 467.92,834.979 462.871,834.27C457.822,833.562 450.973,833.164 443.832,833.164C413.18,833.164 363.397,833.164 332.745,833.164C325.604,833.164 318.755,833.562 313.706,834.27C308.657,834.979 305.82,835.939 305.82,836.941C305.82,857.839 305.82,959.126 305.82,980.025C305.82,981.027 308.657,981.987 313.706,982.695C318.755,983.404 325.604,983.802 332.745,983.802C363.397,983.802 413.18,983.802 443.832,983.802C450.973,983.802 457.822,983.404 462.871,982.695C467.92,981.987 470.757,981.027 470.757,980.025C470.757,959.126 470.757,857.839 470.757,836.941Z" style="fill:rgb(188,215,255);"/>
                    </g>
                    <g transform="matrix(0.0419172,0,0,0.295833,270.284,35.7019)">
                        <path d="M470.757,836.941C470.757,835.939 467.92,834.979 462.871,834.27C457.822,833.562 450.973,833.164 443.832,833.164C413.18,833.164 363.397,833.164 332.745,833.164C325.604,833.164 318.755,833.562 313.706,834.27C308.657,834.979 305.82,835.939 305.82,836.941C305.82,857.839 305.82,959.126 305.82,980.025C305.82,981.027 308.657,981.987 313.706,982.695C318.755,983.404 325.604,983.802 332.745,983.802C363.397,983.802 413.18,983.802 443.832,983.802C450.973,983.802 457.822,983.404 462.871,982.695C467.92,981.987 470.757,981.027 470.757,980.025C470.757,959.126 470.757,857.839 470.757,836.941Z" style="fill:rgb(188,215,255);"/>
                    </g>
                    <g transform="matrix(0.0419172,0,0,0.295833,237.917,35.7019)">
                        <path d="M470.757,836.941C470.757,835.939 467.92,834.979 462.871,834.27C457.822,833.562 450.973,833.164 443.832,833.164C413.18,833.164 363.397,833.164 332.745,833.164C325.604,833.164 318.755,833.562 313.706,834.27C308.657,834.979 305.82,835.939 305.82,836.941C305.82,857.839 305.82,959.126 305.82,980.025C305.82,981.027 308.657,981.987 313.706,982.695C318.755,983.404 325.604,983.802 332.745,983.802C363.397,983.802 413.18,983.802 443.832,983.802C450.973,983.802 457.822,983.404 462.871,982.695C467.92,981.987 470.757,981.027 470.757,980.025C470.757,959.126 470.757,857.839 470.757,836.941Z" style="fill:rgb(188,215,255);"/>
                    </g>
                    <g transform="matrix(0.0419172,0,0,0.0142283,254.101,270.325)">
                        <path d="M470.757,911.688C470.757,890.862 467.92,870.889 462.871,856.163C457.822,841.437 450.973,833.164 443.832,833.164C413.18,833.164 363.397,833.164 332.745,833.164C325.604,833.164 318.755,841.437 313.706,856.163C308.657,870.889 305.82,890.862 305.82,911.688C305.82,948.249 305.82,983.802 305.82,983.802L470.757,983.802C470.757,983.802 470.757,948.249 470.757,911.688Z" style="fill:rgb(144,188,255);"/>
                    </g>
                    <g transform="matrix(0.0419172,0,0,0.0142283,270.284,270.325)">
                        <path d="M470.757,911.688C470.757,890.862 467.92,870.889 462.871,856.163C457.822,841.437 450.973,833.164 443.832,833.164C413.18,833.164 363.397,833.164 332.745,833.164C325.604,833.164 318.755,841.437 313.706,856.163C308.657,870.889 305.82,890.862 305.82,911.688C305.82,948.249 305.82,983.802 305.82,983.802L470.757,983.802C470.757,983.802 470.757,948.249 470.757,911.688Z" style="fill:rgb(144,188,255);"/>
                    </g>
                    <g transform="matrix(0.0419172,0,0,0.0142283,237.917,270.325)">
                        <path d="M470.757,911.688C470.757,890.862 467.92,870.889 462.871,856.163C457.822,841.437 450.973,833.164 443.832,833.164C413.18,833.164 363.397,833.164 332.745,833.164C325.604,833.164 318.755,841.437 313.706,856.163C308.657,870.889 305.82,890.862 305.82,911.688C305.82,948.249 305.82,983.802 305.82,983.802L470.757,983.802C470.757,983.802 470.757,948.249 470.757,911.688Z" style="fill:rgb(144,188,255);"/>
                    </g>
                </g>
                <g transform="matrix(0.886052,0,0,0.895049,176.286,-20.5138)">
                    <g transform="matrix(0.413285,0,0,0.413285,109.903,-71.0014)">
                        <path d="M470.757,835.868C470.757,835.151 470.469,834.463 469.957,833.956C469.445,833.449 468.751,833.164 468.026,833.164C448.334,833.164 328.243,833.164 308.551,833.164C307.827,833.164 307.132,833.449 306.62,833.956C306.108,834.463 305.82,835.151 305.82,835.868C305.82,854.406 305.82,962.56 305.82,981.098C305.82,981.815 306.108,982.503 306.62,983.01C307.132,983.517 307.827,983.802 308.551,983.802C328.243,983.802 448.334,983.802 468.026,983.802C468.751,983.802 469.445,983.517 469.957,983.01C470.469,982.503 470.757,981.815 470.757,981.098C470.757,962.56 470.757,854.406 470.757,835.868Z" style="fill:rgb(241,247,255);stroke:rgb(0,66,166);stroke-width:10.87px;"/>
                    </g>
                    <g transform="matrix(0.0419172,0,0,0.295833,254.101,35.7019)">
                        <path d="M470.757,836.941C470.757,835.939 467.92,834.979 462.871,834.27C457.822,833.562 450.973,833.164 443.832,833.164C413.18,833.164 363.397,833.164 332.745,833.164C325.604,833.164 318.755,833.562 313.706,834.27C308.657,834.979 305.82,835.939 305.82,836.941C305.82,857.839 305.82,959.126 305.82,980.025C305.82,981.027 308.657,981.987 313.706,982.695C318.755,983.404 325.604,983.802 332.745,983.802C363.397,983.802 413.18,983.802 443.832,983.802C450.973,983.802 457.822,983.404 462.871,982.695C467.92,981.987 470.757,981.027 470.757,980.025C470.757,959.126 470.757,857.839 470.757,836.941Z" style="fill:rgb(188,215,255);"/>
                    </g>
                    <g transform="matrix(0.0419172,0,0,0.295833,270.284,35.7019)">
                        <path d="M470.757,836.941C470.757,835.939 467.92,834.979 462.871,834.27C457.822,833.562 450.973,833.164 443.832,833.164C413.18,833.164 363.397,833.164 332.745,833.164C325.604,833.164 318.755,833.562 313.706,834.27C308.657,834.979 305.82,835.939 305.82,836.941C305.82,857.839 305.82,959.126 305.82,980.025C305.82,981.027 308.657,981.987 313.706,982.695C318.755,983.404 325.604,983.802 332.745,983.802C363.397,983.802 413.18,983.802 443.832,983.802C450.973,983.802 457.822,983.404 462.871,982.695C467.92,981.987 470.757,981.027 470.757,980.025C470.757,959.126 470.757,857.839 470.757,836.941Z" style="fill:rgb(188,215,255);"/>
                    </g>
                    <g transform="matrix(0.0419172,0,0,0.295833,237.917,35.7019)">
                        <path d="M470.757,836.941C470.757,835.939 467.92,834.979 462.871,834.27C457.822,833.562 450.973,833.164 443.832,833.164C413.18,833.164 363.397,833.164 332.745,833.164C325.604,833.164 318.755,833.562 313.706,834.27C308.657,834.979 305.82,835.939 305.82,836.941C305.82,857.839 305.82,959.126 305.82,980.025C305.82,981.027 308.657,981.987 313.706,982.695C318.755,983.404 325.604,983.802 332.745,983.802C363.397,983.802 413.18,983.802 443.832,983.802C450.973,983.802 457.822,983.404 462.871,982.695C467.92,981.987 470.757,981.027 470.757,980.025C470.757,959.126 470.757,857.839 470.757,836.941Z" style="fill:rgb(188,215,255);"/>
                    </g>
                    <g transform="matrix(0.0419172,0,0,0.0142283,254.101,270.325)">
                        <path d="M470.757,911.688C470.757,890.862 467.92,870.889 462.871,856.163C457.822,841.437 450.973,833.164 443.832,833.164C413.18,833.164 363.397,833.164 332.745,833.164C325.604,833.164 318.755,841.437 313.706,856.163C308.657,870.889 305.82,890.862 305.82,911.688C305.82,948.249 305.82,983.802 305.82,983.802L470.757,983.802C470.757,983.802 470.757,948.249 470.757,911.688Z" style="fill:rgb(144,188,255);"/>
                    </g>
                    <g transform="matrix(0.0419172,0,0,0.0142283,270.284,270.325)">
                        <path d="M470.757,911.688C470.757,890.862 467.92,870.889 462.871,856.163C457.822,841.437 450.973,833.164 443.832,833.164C413.18,833.164 363.397,833.164 332.745,833.164C325.604,833.164 318.755,841.437 313.706,856.163C308.657,870.889 305.82,890.862 305.82,911.688C305.82,948.249 305.82,983.802 305.82,983.802L470.757,983.802C470.757,983.802 470.757,948.249 470.757,911.688Z" style="fill:rgb(144,188,255);"/>
                    </g>
                    <g transform="matrix(0.0419172,0,0,0.0142283,237.917,270.325)">
                        <path d="M470.757,911.688C470.757,890.862 467.92,870.889 462.871,856.163C457.822,841.437 450.973,833.164 443.832,833.164C413.18,833.164 363.397,833.164 332.745,833.164C325.604,833.164 318.755,841.437 313.706,856.163C308.657,870.889 305.82,890.862 305.82,911.688C305.82,948.249 305.82,983.802 305.82,983.802L470.757,983.802C470.757,983.802 470.757,948.249 470.757,911.688Z" style="fill:rgb(144,188,255);"/>
                    </g>
                </g>
                <g transform="matrix(0.886052,0,0,0.895049,115.888,-20.5138)">
                    <g transform="matrix(0.413285,0,0,0.413285,109.903,-71.0014)">
                        <path d="M470.757,835.868C470.757,835.151 470.469,834.463 469.957,833.956C469.445,833.449 468.751,833.164 468.026,833.164C448.334,833.164 328.243,833.164 308.551,833.164C307.827,833.164 307.132,833.449 306.62,833.956C306.108,834.463 305.82,835.151 305.82,835.868C305.82,854.406 305.82,962.56 305.82,981.098C305.82,981.815 306.108,982.503 306.62,983.01C307.132,983.517 307.827,983.802 308.551,983.802C328.243,983.802 448.334,983.802 468.026,983.802C468.751,983.802 469.445,983.517 469.957,983.01C470.469,982.503 470.757,981.815 470.757,981.098C470.757,962.56 470.757,854.406 470.757,835.868Z" style="fill:rgb(241,247,255);stroke:rgb(0,66,166);stroke-width:10.87px;"/>
                    </g>
                    <g transform="matrix(0.0419172,0,0,0.295833,254.101,35.7019)">
                        <path d="M470.757,836.941C470.757,835.939 467.92,834.979 462.871,834.27C457.822,833.562 450.973,833.164 443.832,833.164C413.18,833.164 363.397,833.164 332.745,833.164C325.604,833.164 318.755,833.562 313.706,834.27C308.657,834.979 305.82,835.939 305.82,836.941C305.82,857.839 305.82,959.126 305.82,980.025C305.82,981.027 308.657,981.987 313.706,982.695C318.755,983.404 325.604,983.802 332.745,983.802C363.397,983.802 413.18,983.802 443.832,983.802C450.973,983.802 457.822,983.404 462.871,982.695C467.92,981.987 470.757,981.027 470.757,980.025C470.757,959.126 470.757,857.839 470.757,836.941Z" style="fill:rgb(188,215,255);"/>
                    </g>
                    <g transform="matrix(0.0419172,0,0,0.295833,270.284,35.7019)">
                        <path d="M470.757,836.941C470.757,835.939 467.92,834.979 462.871,834.27C457.822,833.562 450.973,833.164 443.832,833.164C413.18,833.164 363.397,833.164 332.745,833.164C325.604,833.164 318.755,833.562 313.706,834.27C308.657,834.979 305.82,835.939 305.82,836.941C305.82,857.839 305.82,959.126 305.82,980.025C305.82,981.027 308.657,981.987 313.706,982.695C318.755,983.404 325.604,983.802 332.745,983.802C363.397,983.802 413.18,983.802 443.832,983.802C450.973,983.802 457.822,983.404 462.871,982.695C467.92,981.987 470.757,981.027 470.757,980.025C470.757,959.126 470.757,857.839 470.757,836.941Z" style="fill:rgb(188,215,255);"/>
                    </g>
                    <g transform="matrix(0.0419172,0,0,0.295833,237.917,35.7019)">
                        <path d="M470.757,836.941C470.757,835.939 467.92,834.979 462.871,834.27C457.822,833.562 450.973,833.164 443.832,833.164C413.18,833.164 363.397,833.164 332.745,833.164C325.604,833.164 318.755,833.562 313.706,834.27C308.657,834.979 305.82,835.939 305.82,836.941C305.82,857.839 305.82,959.126 305.82,980.025C305.82,981.027 308.657,981.987 313.706,982.695C318.755,983.404 325.604,983.802 332.745,983.802C363.397,983.802 413.18,983.802 443.832,983.802C450.973,983.802 457.822,983.404 462.871,982.695C467.92,981.987 470.757,981.027 470.757,980.025C470.757,959.126 470.757,857.839 470.757,836.941Z" style="fill:rgb(188,215,255);"/>
                    </g>
                    <g transform="matrix(0.0419172,0,0,0.0142283,254.101,270.325)">
                        <path d="M470.757,911.688C470.757,890.862 467.92,870.889 462.871,856.163C457.822,841.437 450.973,833.164 443.832,833.164C413.18,833.164 363.397,833.164 332.745,833.164C325.604,833.164 318.755,841.437 313.706,856.163C308.657,870.889 305.82,890.862 305.82,911.688C305.82,948.249 305.82,983.802 305.82,983.802L470.757,983.802C470.757,983.802 470.757,948.249 470.757,911.688Z" style="fill:rgb(144,188,255);"/>
                    </g>
                    <g transform="matrix(0.0419172,0,0,0.0142283,270.284,270.325)">
                        <path d="M470.757,911.688C470.757,890.862 467.92,870.889 462.871,856.163C457.822,841.437 450.973,833.164 443.832,833.164C413.18,833.164 363.397,833.164 332.745,833.164C325.604,833.164 318.755,841.437 313.706,856.163C308.657,870.889 305.82,890.862 305.82,911.688C305.82,948.249 305.82,983.802 305.82,983.802L470.757,983.802C470.757,983.802 470.757,948.249 470.757,911.688Z" style="fill:rgb(144,188,255);"/>
                    </g>
                    <g transform="matrix(0.0419172,0,0,0.0142283,237.917,270.325)">
                        <path d="M470.757,911.688C470.757,890.862 467.92,870.889 462.871,856.163C457.822,841.437 450.973,833.164 443.832,833.164C413.18,833.164 363.397,833.164 332.745,833.164C325.604,833.164 318.755,841.437 313.706,856.163C308.657,870.889 305.82,890.862 305.82,911.688C305.82,948.249 305.82,983.802 305.82,983.802L470.757,983.802C470.757,983.802 470.757,948.249 470.757,911.688Z" style="fill:rgb(144,188,255);"/>
                    </g>
                </g>
                <g transform="matrix(0.886052,0,0,0.895049,176.286,-76.2362)">
                    <g transform="matrix(0.413285,0,0,0.413285,109.903,-71.0014)">
                        <path d="M470.757,835.868C470.757,835.151 470.469,834.463 469.957,833.956C469.445,833.449 468.751,833.164 468.026,833.164C448.334,833.164 328.243,833.164 308.551,833.164C307.827,833.164 307.132,833.449 306.62,833.956C306.108,834.463 305.82,835.151 305.82,835.868C305.82,854.406 305.82,962.56 305.82,981.098C305.82,981.815 306.108,982.503 306.62,983.01C307.132,983.517 307.827,983.802 308.551,983.802C328.243,983.802 448.334,983.802 468.026,983.802C468.751,983.802 469.445,983.517 469.957,983.01C470.469,982.503 470.757,981.815 470.757,981.098C470.757,962.56 470.757,854.406 470.757,835.868Z" style="fill:rgb(241,247,255);stroke:rgb(0,66,166);stroke-width:10.87px;"/>
                    </g>
                    <g transform="matrix(0.0419172,0,0,0.295833,254.101,35.7019)">
                        <path d="M470.757,836.941C470.757,835.939 467.92,834.979 462.871,834.27C457.822,833.562 450.973,833.164 443.832,833.164C413.18,833.164 363.397,833.164 332.745,833.164C325.604,833.164 318.755,833.562 313.706,834.27C308.657,834.979 305.82,835.939 305.82,836.941C305.82,857.839 305.82,959.126 305.82,980.025C305.82,981.027 308.657,981.987 313.706,982.695C318.755,983.404 325.604,983.802 332.745,983.802C363.397,983.802 413.18,983.802 443.832,983.802C450.973,983.802 457.822,983.404 462.871,982.695C467.92,981.987 470.757,981.027 470.757,980.025C470.757,959.126 470.757,857.839 470.757,836.941Z" style="fill:rgb(188,215,255);"/>
                    </g>
                    <g transform="matrix(0.0419172,0,0,0.295833,270.284,35.7019)">
                        <path d="M470.757,836.941C470.757,835.939 467.92,834.979 462.871,834.27C457.822,833.562 450.973,833.164 443.832,833.164C413.18,833.164 363.397,833.164 332.745,833.164C325.604,833.164 318.755,833.562 313.706,834.27C308.657,834.979 305.82,835.939 305.82,836.941C305.82,857.839 305.82,959.126 305.82,980.025C305.82,981.027 308.657,981.987 313.706,982.695C318.755,983.404 325.604,983.802 332.745,983.802C363.397,983.802 413.18,983.802 443.832,983.802C450.973,983.802 457.822,983.404 462.871,982.695C467.92,981.987 470.757,981.027 470.757,980.025C470.757,959.126 470.757,857.839 470.757,836.941Z" style="fill:rgb(188,215,255);"/>
                    </g>
                    <g transform="matrix(0.0419172,0,0,0.295833,237.917,35.7019)">
                        <path d="M470.757,836.941C470.757,835.939 467.92,834.979 462.871,834.27C457.822,833.562 450.973,833.164 443.832,833.164C413.18,833.164 363.397,833.164 332.745,833.164C325.604,833.164 318.755,833.562 313.706,834.27C308.657,834.979 305.82,835.939 305.82,836.941C305.82,857.839 305.82,959.126 305.82,980.025C305.82,981.027 308.657,981.987 313.706,982.695C318.755,983.404 325.604,983.802 332.745,983.802C363.397,983.802 413.18,983.802 443.832,983.802C450.973,983.802 457.822,983.404 462.871,982.695C467.92,981.987 470.757,981.027 470.757,980.025C470.757,959.126 470.757,857.839 470.757,836.941Z" style="fill:rgb(188,215,255);"/>
                    </g>
                    <g transform="matrix(0.0419172,0,0,0.0142283,254.101,270.325)">
                        <path d="M470.757,911.688C470.757,890.862 467.92,870.889 462.871,856.163C457.822,841.437 450.973,833.164 443.832,833.164C413.18,833.164 363.397,833.164 332.745,833.164C325.604,833.164 318.755,841.437 313.706,856.163C308.657,870.889 305.82,890.862 305.82,911.688C305.82,948.249 305.82,983.802 305.82,983.802L470.757,983.802C470.757,983.802 470.757,948.249 470.757,911.688Z" style="fill:rgb(144,188,255);"/>
                    </g>
                    <g transform="matrix(0.0419172,0,0,0.0142283,270.284,270.325)">
                        <path d="M470.757,911.688C470.757,890.862 467.92,870.889 462.871,856.163C457.822,841.437 450.973,833.164 443.832,833.164C413.18,833.164 363.397,833.164 332.745,833.164C325.604,833.164 318.755,841.437 313.706,856.163C308.657,870.889 305.82,890.862 305.82,911.688C305.82,948.249 305.82,983.802 305.82,983.802L470.757,983.802C470.757,983.802 470.757,948.249 470.757,911.688Z" style="fill:rgb(144,188,255);"/>
                    </g>
                    <g transform="matrix(0.0419172,0,0,0.0142283,237.917,270.325)">
                        <path d="M470.757,911.688C470.757,890.862 467.92,870.889 462.871,856.163C457.822,841.437 450.973,833.164 443.832,833.164C413.18,833.164 363.397,833.164 332.745,833.164C325.604,833.164 318.755,841.437 313.706,856.163C308.657,870.889 305.82,890.862 305.82,911.688C305.82,948.249 305.82,983.802 305.82,983.802L470.757,983.802C470.757,983.802 470.757,948.249 470.757,911.688Z" style="fill:rgb(144,188,255);"/>
                    </g>
                </g>
                <g transform="matrix(0.884393,0,0,0.884393,44.3613,-534.243)">
                    <path d="M317.949,1086.91C282.938,1129.52 229.88,1128.39 195.989,1102.2" style="fill:none;stroke:rgb(0,66,166);stroke-width:4.52px;stroke-miterlimit:1.5;"/>
                </g>
                <g transform="matrix(0.697843,0,0,0.771132,152.687,-429.463)">
                    <path d="M584.514,900.248C576.943,916.396 575.5,932.965 580.483,949.981" style="fill:none;stroke:white;stroke-width:8.16px;stroke-miterlimit:1.5;"/>
                </g>
                <g transform="matrix(0.884393,0,0,0.884393,26.4226,-534.243)">
                    <path d="M212.666,996.484L236.307,996.906" style="fill:none;stroke:white;stroke-width:6.78px;stroke-miterlimit:1.5;"/>
                </g>
                <g transform="matrix(-0.627569,0,0,0.627569,561.584,-254.188)">
                    <circle cx="574.819" cy="1167.78" r="11.821" style="fill:rgb(144,203,255);fill-opacity:0.5;"/>
                </g>
                <g transform="matrix(0.747259,0,0,0.747259,109.84,-392.844)">
                    <circle cx="574.819" cy="1167.78" r="11.821" style="fill:rgb(144,203,255);fill-opacity:0.5;"/>
                </g>
                <g transform="matrix(0.884393,0,0,0.884393,-126.581,-533.7)">
                    <circle cx="574.819" cy="1167.78" r="11.821" style="fill:white;fill-opacity:0.5;"/>
                </g>
                <g transform="matrix(-0.412357,0,0,0.412357,430.458,-16.9563)">
                    <circle cx="574.819" cy="1167.78" r="11.821" style="fill:rgb(144,203,255);fill-opacity:0.5;"/>
                </g>
                <g transform="matrix(0.491002,0,0,0.491002,265.975,-110.367)">
                    <circle cx="574.819" cy="1167.78" r="11.821" style="fill:rgb(144,203,255);fill-opacity:0.5;"/>
                </g>
                <g transform="matrix(0.581109,0,0,0.581109,58.2067,-199.384)">
                    <circle cx="574.819" cy="1167.78" r="11.821" style="fill:white;fill-opacity:0.5;"/>
                </g>
                <g transform="matrix(-0.412357,0,0,0.412357,443.573,-24.6342)">
                    <circle cx="574.819" cy="1167.78" r="11.821" style="fill:rgb(144,203,255);fill-opacity:0.5;"/>
                </g>
                <g transform="matrix(0.491002,0,0,0.491002,250.358,-119.51)">
                    <circle cx="574.819" cy="1167.78" r="11.821" style="fill:rgb(144,203,255);fill-opacity:0.5;"/>
                </g>
                <g transform="matrix(0.581109,0,0,0.581109,39.7243,-210.204)">
                    <circle cx="574.819" cy="1167.78" r="11.821" style="fill:white;fill-opacity:0.5;"/>
                </g>
                <g transform="matrix(-0.2629,0,0,0.2629,350.764,133.677)">
                    <circle cx="574.819" cy="1167.78" r="11.821" style="fill:rgb(144,203,255);fill-opacity:0.5;"/>
                </g>
                <g transform="matrix(0.31304,0,0,0.31304,360.868,68.9946)">
                    <circle cx="574.819" cy="1167.78" r="11.821" style="fill:rgb(144,203,255);fill-opacity:0.5;"/>
                </g>
                <g transform="matrix(0.370488,0,0,0.370488,170.514,12.8939)">
                    <circle cx="574.819" cy="1167.78" r="11.821" style="fill:white;fill-opacity:0.5;"/>
                </g>
                <g transform="matrix(1.00266,0,0,1.00266,45.7059,-773.177)">
                    <path d="M31.808,1207.5C31.808,1207.5 44.104,1195.2 56.399,1182.91C62.921,1176.38 71.765,1172.72 80.988,1172.72C90.21,1172.72 99.055,1176.38 105.576,1182.91C105.577,1182.91 105.578,1182.91 105.579,1182.91C112.1,1189.43 120.945,1193.09 130.168,1193.09C139.39,1193.09 148.235,1189.43 154.756,1182.91C154.757,1182.91 154.758,1182.91 154.759,1182.91C161.28,1176.38 170.125,1172.72 179.348,1172.72C188.57,1172.72 197.415,1176.38 203.936,1182.91C203.937,1182.91 203.938,1182.91 203.939,1182.91C210.46,1189.43 219.305,1193.09 228.527,1193.09C237.75,1193.09 246.595,1189.43 253.116,1182.91C253.117,1182.91 253.118,1182.91 253.119,1182.91C259.64,1176.38 268.485,1172.72 277.707,1172.72C286.93,1172.72 295.774,1176.38 302.296,1182.91C302.297,1182.91 302.297,1182.91 302.298,1182.91C308.82,1189.43 317.664,1193.09 326.887,1193.09C336.109,1193.09 344.954,1189.43 351.475,1182.91C351.476,1182.91 351.477,1182.91 351.478,1182.91C357.999,1176.38 366.844,1172.72 376.067,1172.72C385.289,1172.72 394.134,1176.38 400.655,1182.91C400.656,1182.91 400.657,1182.91 400.658,1182.91C407.179,1189.43 416.024,1193.09 425.247,1193.09C434.469,1193.09 443.314,1189.43 449.835,1182.91C449.836,1182.91 449.837,1182.91 449.838,1182.91C456.359,1176.38 465.204,1172.72 474.426,1172.72C483.649,1172.72 492.494,1176.38 499.015,1182.91C499.016,1182.91 499.017,1182.91 499.018,1182.91C505.539,1189.43 514.384,1193.09 523.606,1193.09C532.829,1193.09 541.673,1189.43 548.195,1182.91C548.196,1182.91 548.196,1182.91 548.197,1182.91C554.719,1176.38 563.563,1172.72 572.786,1172.72C582.008,1172.72 590.853,1176.38 597.374,1182.91C597.375,1182.91 597.376,1182.91 597.377,1182.91C603.898,1189.43 612.743,1193.09 621.966,1193.09C631.188,1193.09 640.033,1189.43 646.554,1182.91C658.85,1170.61 671.146,1158.32 671.146,1158.32" style="fill:none;stroke:rgb(0,66,166);stroke-width:5.98px;stroke-miterlimit:1.5;"/>
                </g>
            </g>
        </g>
    </g>
</svg>
