<svg id="multistage" xmlns="http://www.w3.org/2000/svg" viewBox="0 0 686 325"><g id="play-multistage"><circle cx="35" cy="296" r="15" fill="#2396c9"/><path d="M35 1320.4v2.8c-4.5 0-8.4 3.1-9.4 7.5s1.2 8.9 5.2 10.8 8.9.8 11.7-2.7c2.8-3.5 2.8-8.5 0-12l-1.9 1.5c2.1 2.6 2.1 6.4 0 9-2.1 2.6-5.7 3.5-8.8 2-3-1.5-4.7-4.8-3.9-8.1.7-3.3 3.7-5.6 7-5.6v2.9l4.8-4-4.7-4.1z" fill="#fff" transform="translate(0 -1036.362)"/></g><path fill="#005fad" d="M327.6 202v-11.8h-293V202l146.5 84.6z"/><path fill="#0071ce" d="M327.6 190.2l-146.5-84.5-146.5 84.5 146.5 84.6z"/><g fill="#2d536d"><path d="M122.3 200.5l6.4 3.7-14.4 8.3 8 4.6 12.5-7.2 5.9 3.4-12.5 7.2 14.2 8.2-6.6 3.8-34.4-19.9 20.9-12.1zM142.2 189c1.3-.8 2.8-1.3 4.4-1.7 1.6-.3 3.2-.5 4.8-.4 1.6.1 3.2.3 4.8.7 1.5.4 3 1 4.3 1.8 2 1.2 3.4 2.4 4.1 3.7.7 1.3.7 2.6-.2 4l.1.1c1.1-.3 2.1-.5 3.2-.5s2.1.1 3.2.3c1.1.2 2.1.5 3.1 1 1 .4 2 .9 2.9 1.3.6.3 1.2.7 2 1.1l2.4 1.2c.8.4 1.7.8 2.5 1.1.8.3 1.7.5 2.4.6l-6.6 3.8c-1.5-.4-3-1-4.6-1.9-1.6-.8-3.2-1.6-4.7-2.3-2-.9-3.8-1.4-5.4-1.5-1.6-.1-3.2.4-4.8 1.3l-6.6 3.8 13.5 7.8-6.6 3.8-34.4-19.9 16.2-9.2zm13.2 10.4c1.5-.9 2.2-1.7 2.2-2.6 0-.9-.9-1.8-2.6-2.8-1.7-1-3.3-1.4-4.8-1.5-1.5 0-3 .4-4.5 1.3l-7.2 4.1 9.7 5.6 7.2-4.1zM166.1 187c-1.5-1.7-2.5-3.3-2.9-5-.4-1.7-.1-3.3.8-4.9.9-1.6 2.5-3 4.8-4.4 2.3-1.3 4.8-2.3 7.6-2.8 2.7-.5 5.6-.6 8.4-.4 2.9.2 5.8.8 8.6 1.7 2.9.9 5.6 2.1 8.2 3.6 2.5 1.4 4.5 3 6 4.6 1.5 1.6 2.4 3.3 2.8 4.9s.1 3.3-.8 4.8c-.9 1.6-2.5 3-4.8 4.4-2.3 1.3-4.8 2.2-7.5 2.8-2.7.5-5.5.7-8.4.5-2.9-.2-5.7-.7-8.5-1.6-2.8-.9-5.5-2-8-3.5-2.7-1.5-4.7-3.1-6.3-4.7zm17.4 3.1c1.7.6 3.4 1.1 5.1 1.3 1.7.3 3.4.3 5.1.1 1.7-.2 3.3-.7 4.7-1.6 1.5-.9 2.4-1.8 2.8-2.7.4-1 .3-2-.1-3-.5-1-1.2-2-2.3-2.9s-2.3-1.9-3.8-2.7c-1.5-.9-3.1-1.6-4.8-2.3-1.7-.6-3.4-1.1-5.2-1.4-1.8-.3-3.5-.3-5.2-.1-1.7.2-3.3.7-4.7 1.6-1.5.9-2.4 1.8-2.8 2.7-.4 1-.3 2 .1 3 .5 1 1.3 2 2.4 3 1.1 1 2.4 1.9 3.9 2.8 1.6.8 3.1 1.6 4.8 2.2zM197.9 156.8l30.6 9.6h.1l-17-17.4 9.2-5.3 34.4 19.9-6.1 3.5-24.4-14.1h-.1l17.1 18.3-5.1 2.9-31.5-9.7h-.1l24.2 13.9-6.1 3.5-34.4-19.9 9.2-5.2z"/></g><g fill="#2d536d"><path d="M216.6 230.9l1.1.6c-.2-.4-.3-.8-.1-1.1.2-.3.5-.6.9-.9.5-.3 1-.5 1.5-.6s1-.1 1.4-.1c.5.1 1 .2 1.4.4.5.2 1 .4 1.5.7l5 2.9-1.9 1.1-4.6-2.6c-.7-.4-1.3-.6-1.8-.7-.5-.1-1 0-1.4.3-.5.3-.7.6-.6 1 .1.3.6.8 1.4 1.2l4.2 2.4-1.9 1.1-8.1-4.7 2-1zM225.1 228.6c-.4-.4-.6-.8-.6-1.2-.1-.4 0-.8.3-1.1.2-.4.6-.7 1.2-1 .5-.3 1.1-.5 1.8-.7.6-.1 1.3-.2 2-.2s1.4.1 2.1.4c.7.2 1.4.5 2 .9s1.1.8 1.5 1.2c.3.4.6.8.6 1.2s0 .8-.3 1.1c-.2.4-.6.7-1.2 1-.5.3-1.1.5-1.8.7-.6.1-1.3.2-2 .2s-1.4-.1-2.1-.3c-.7-.2-1.4-.5-2-.9s-1.1-.9-1.5-1.3zm4.5.5c.4.1.7.3 1.1.3.4.1.7.1 1.1 0 .4 0 .7-.2 1-.3.3-.2.5-.4.6-.6.1-.2.1-.4-.1-.6-.1-.2-.3-.4-.5-.6-.3-.2-.5-.4-.9-.6-.3-.2-.7-.4-1-.5-.4-.1-.7-.3-1.1-.3s-.7-.1-1.1 0c-.4 0-.7.2-1 .3-.3.2-.5.4-.6.6-.1.2 0 .4.1.6.1.2.3.4.5.6.3.2.5.4.9.6.3.2.6.4 1 .5zM243 223.7c.2.4.2.7.1 1.1-.2.3-.5.6-.9.9-.5.3-1.1.5-1.7.6-.6.1-1.3.1-1.9 0s-1.3-.2-2-.5c-.7-.2-1.3-.5-1.8-.8-.5-.3-1-.7-1.4-1-.4-.4-.6-.7-.8-1.1-.1-.4-.1-.7 0-1.1.2-.4.5-.7 1-1a5.27 5.27 0 0 1 3.3-.5l-4.1-2.3 1.9-1.1 11.1 6.4-1.8 1.1-1-.7zm-4-2.2c-.4-.1-.7-.2-1.1-.3-.4-.1-.7-.1-1.1 0-.4 0-.7.1-1 .3-.3.2-.5.4-.6.6-.1.2-.1.4.1.6.1.2.3.4.5.6.2.2.5.4.9.6.3.2.7.3 1 .5.4.1.8.2 1.1.3.4.1.8.1 1.1 0 .4 0 .7-.1 1-.3.3-.2.5-.4.6-.6.1-.2 0-.4-.1-.6-.1-.2-.3-.4-.6-.6l-.9-.6c-.2-.2-.6-.4-.9-.5zM247.5 220.1c.6 0 1.2-.1 1.7-.4.4-.2.6-.5.7-.8.1-.3 0-.5-.2-.7l1.7-1c.7.7 1 1.4.8 1.9-.1.6-.6 1.1-1.4 1.5-.5.3-1.1.5-1.8.7-.6.1-1.3.2-2 .1-.7 0-1.4-.2-2-.4-.7-.2-1.3-.5-2-.8-.6-.3-1.1-.7-1.4-1.1-.3-.4-.6-.8-.6-1.2-.1-.4 0-.8.2-1.2.2-.4.6-.7 1.1-1 .6-.3 1.2-.6 2-.7.7-.1 1.4-.1 2.2 0 .7.1 1.4.3 2.1.5.7.3 1.3.6 1.9 1l-5 2.9c.7.5 1.4.7 2 .7zm-2.1-3.7c-.5 0-1 .1-1.5.4-.3.2-.5.4-.6.5-.1.2-.1.4 0 .5.1.2.2.3.3.5l.4.4 3.1-1.8c-.6-.3-1.2-.4-1.7-.5zM249.7 214.7l-2.4-1.4 2.1-1.2 2.4 1.4-2.1 1.2zm5.2.6l2.4 1.4-2.1 1.2-2.4-1.4 2.1-1.2zM249.5 210.2c-.2-.3-.3-.6-.2-1 .1-.3.2-.6.5-.9.3-.3.6-.5 1-.8.6-.3 1.2-.6 1.8-.7.6-.1 1.2-.2 1.7-.1.5 0 1 .1 1.5.2.4.1.8.3 1.1.4.5.3.9.7 1.1 1 .2.4.1.7-.2 1.1.7-.2 1.5-.3 2.2-.2.8.1 1.5.3 2.2.7.6.3 1 .7 1.2 1 .2.4.3.7.3 1.1-.1.4-.2.7-.5 1s-.6.6-1.1.9c-.5.3-1 .5-1.5.7s-1.1.3-1.8.3c-.6 0-1.2 0-1.9-.1-.6-.1-1.2-.4-1.8-.7-.7-.4-1.1-.8-1.3-1.3-.2-.4 0-.9.4-1.3-.6.2-1.2.2-1.9.1-.6-.1-1.2-.3-1.8-.6-.4-.1-.8-.4-1-.8zm4.5.4c.5 0 1-.1 1.4-.4.4-.2.6-.5.6-.8 0-.3-.2-.6-.7-.9-.1-.1-.3-.2-.5-.2-.2-.1-.4-.1-.7-.2h-.8c-.3 0-.6.2-.9.3-.2.1-.3.2-.4.4-.1.1-.2.3-.2.4 0 .2 0 .3.2.5.1.2.3.3.5.4.5.4 1 .6 1.5.5zm3.8 2.8c.3.1.6.1.9.1.3 0 .6 0 .9-.1.3-.1.6-.2.8-.3.2-.1.4-.3.5-.4.1-.2.2-.3.1-.5 0-.2-.1-.4-.2-.5-.1-.2-.4-.3-.6-.5-.3-.1-.5-.3-.8-.3-.3-.1-.6-.1-.9-.1-.3 0-.6 0-.9.1-.3.1-.5.2-.8.3-.5.3-.7.6-.7.9 0 .4.2.7.8 1 .3.1.6.3.9.3z"/></g><path fill="#005fad" d="M653.3 202v-11.8h-293V202l146.5 84.6z"/><path fill="#0071ce" d="M653.3 190.2l-146.5-84.5-146.5 84.5 146.5 84.6z"/><g fill="#2d536d"><path d="M447.9 200.5l6.4 3.7-14.4 8.3 8 4.6 12.5-7.2 5.9 3.4-12.5 7.2 14.2 8.2-6.6 3.8-34.4-19.9 20.9-12.1zM467.8 189c1.3-.8 2.8-1.3 4.4-1.7 1.6-.3 3.2-.5 4.8-.4 1.6.1 3.2.3 4.8.7 1.5.4 3 1 4.3 1.8 2 1.2 3.4 2.4 4.1 3.7.7 1.3.7 2.6-.2 4l.1.1c1.1-.3 2.1-.5 3.2-.5s2.1.1 3.2.3c1.1.2 2.1.5 3.1 1 1 .4 2 .9 2.9 1.3.6.3 1.2.7 2 1.1l2.4 1.2c.8.4 1.7.8 2.5 1.1.8.3 1.7.5 2.4.6l-6.6 3.8c-1.5-.4-3-1-4.6-1.9-1.6-.8-3.2-1.6-4.7-2.3-2-.9-3.8-1.4-5.4-1.5-1.6-.1-3.2.4-4.8 1.3l-6.6 3.8 13.5 7.8-6.6 3.8-34.4-19.9 16.2-9.2zm13.2 10.4c1.5-.9 2.2-1.7 2.2-2.6 0-.9-.9-1.8-2.6-2.8-1.7-1-3.3-1.4-4.8-1.5-1.5 0-3 .4-4.5 1.3l-7.2 4.1 9.7 5.6 7.2-4.1zM491.8 187c-1.5-1.7-2.5-3.3-2.9-5-.4-1.7-.1-3.3.8-4.9.9-1.6 2.5-3 4.8-4.4 2.3-1.3 4.8-2.3 7.6-2.8 2.7-.5 5.6-.6 8.4-.4 2.9.2 5.8.8 8.6 1.7 2.9.9 5.6 2.1 8.2 3.6 2.5 1.4 4.5 3 6 4.6 1.5 1.6 2.4 3.3 2.8 4.9s.1 3.3-.8 4.8c-.9 1.6-2.5 3-4.8 4.4-2.3 1.3-4.8 2.2-7.5 2.8-2.7.5-5.5.7-8.4.5-2.9-.2-5.7-.7-8.5-1.6-2.8-.9-5.5-2-8-3.5-2.8-1.5-4.8-3.1-6.3-4.7zm17.3 3.1c1.7.6 3.4 1.1 5.1 1.3 1.7.3 3.4.3 5.1.1 1.7-.2 3.3-.7 4.7-1.6 1.5-.9 2.4-1.8 2.8-2.7.4-1 .3-2-.1-3-.5-1-1.2-2-2.3-2.9s-2.3-1.9-3.8-2.7c-1.5-.9-3.1-1.6-4.8-2.3-1.7-.6-3.4-1.1-5.2-1.4-1.8-.3-3.5-.3-5.2-.1-1.7.2-3.3.7-4.7 1.6-1.5.9-2.4 1.8-2.8 2.7-.4 1-.3 2 .1 3 .5 1 1.3 2 2.4 3 1.1 1 2.4 1.9 3.9 2.8 1.6.8 3.2 1.6 4.8 2.2zM523.6 156.8l30.6 9.6h.1L537.2 149l9.2-5.3 34.4 19.9-6.1 3.5-24.4-14.1h-.1l17.1 18.3-5.1 2.9-31.5-9.7h-.1l24.2 13.9-6.1 3.5-34.4-19.9 9.3-5.2z"/></g><g fill="#2d536d"><path d="M518.7 252.6c.2.4.2.7.1 1.1-.2.3-.5.6-.9.9-.5.3-1.1.5-1.7.6-.6.1-1.3.1-1.9 0-.7-.1-1.3-.2-2-.5-.7-.2-1.3-.5-1.8-.8-.5-.3-1-.7-1.4-1-.4-.4-.6-.7-.8-1.1-.1-.4-.1-.7 0-1.1s.5-.7 1-1a5.27 5.27 0 0 1 3.3-.5l-4.1-2.3 1.9-1.1 11.1 6.4-1.8 1.1-1-.7zm-4.1-2.3c-.4-.1-.7-.2-1.1-.3-.4-.1-.7-.1-1.1 0-.4 0-.7.1-1 .3-.3.2-.5.4-.6.6-.1.2-.1.4.1.6.1.2.3.4.5.6s.5.4.9.6c.3.2.7.3 1 .5.4.1.8.2 1.1.3.4.1.8.1 1.1 0 .4 0 .7-.1 1-.3.3-.2.5-.4.6-.6.1-.2 0-.4-.1-.6-.1-.2-.3-.4-.6-.6l-.9-.6c-.2-.1-.5-.3-.9-.5zM513.7 245.9l-1.8-1.1 1.9-1.1 1.8 1.1-1.9 1.1zm3.2-.4l8.1 4.7-1.9 1.1-8.1-4.7 1.9-1.1zM526.1 247.2c.3 0 .5.1.8.1.2 0 .5-.1.7-.1s.4-.2.6-.3c.1-.1.3-.2.4-.3.1-.1.2-.2.2-.3v-.4c0-.1-.2-.2-.4-.4-.3-.2-.8-.2-1.3-.1s-1.2.3-2.1.6c-.4.1-.7.2-1.1.3-.4.1-.7.2-1.1.2-.4 0-.7 0-1.1-.1-.4-.1-.7-.2-1.1-.4-.5-.3-.9-.6-1-.9-.2-.3-.2-.6-.1-.9.1-.3.3-.5.6-.8s.6-.5 1-.7l1.2-.6c.4-.2.9-.3 1.4-.3.5 0 1 0 1.5.1s1 .3 1.6.5l-1.8 1.1c-.5-.2-.9-.3-1.3-.3s-.8.2-1.1.4c-.1.1-.2.1-.3.2-.1.1-.2.2-.2.3-.1.1-.1.2 0 .3 0 .1.1.2.3.3.2.1.4.2.7.2.3 0 .5 0 .8-.1l.9-.3c.3-.1.7-.2 1-.3.4-.1.7-.2 1.1-.3.4-.1.7-.1 1.1-.2.4 0 .8 0 1.1.1.4.1.8.2 1.1.4.5.3.9.6 1.1.9s.2.6.1.9c-.1.3-.3.6-.6.9-.3.3-.6.5-1 .8-.4.2-.8.4-1.3.6-.5.2-1 .3-1.5.3s-1.1 0-1.6-.1c-.6-.1-1.1-.3-1.7-.6l1.8-1.1c.1.2.3.3.6.4zM529.5 238.2l1.5.9-1.4.8 4 2.3c.4.2.7.3.9.3.2 0 .5-.1.8-.3.1-.1.2-.1.3-.2.1-.1.2-.1.2-.2l1.7 1c-.1.1-.3.2-.5.3l-.6.3c-.3.2-.6.3-.9.4-.3.1-.6.2-1 .2-.3 0-.7 0-1.1-.1-.4-.1-.8-.2-1.2-.5l-4.8-2.7-1.2.7-1.5-.9 1.2-.7-2.4-1.4 1.9-1.1 2.4 1.4 1.7-.5zM532.2 236.6l1.5.9c-.2-.2-.3-.4-.3-.6s-.1-.4 0-.6c0-.2.1-.4.3-.6.1-.2.3-.3.6-.5.1-.1.3-.1.5-.2l2.1 1.2c-.1 0-.2.1-.4.2-.1.1-.3.1-.4.2-.4.2-.6.4-.7.6-.1.2-.1.4 0 .7.1.2.3.4.5.7.2.2.6.4.9.6l3.6 2.1-1.9 1.1-8.1-4.7 1.8-1.1zM537.7 236.1c-.4-.4-.6-.8-.6-1.2-.1-.4 0-.8.3-1.2.2-.4.6-.7 1.2-1s1.1-.5 1.8-.7c.6-.1 1.3-.2 2-.2s1.4.1 2.1.4c.7.2 1.4.5 2 .9s1.1.8 1.5 1.2c.3.4.6.8.6 1.2.1.4 0 .8-.3 1.1s-.6.7-1.2 1c-.5.3-1.1.5-1.8.7-.6.1-1.3.2-2 .2s-1.4-.1-2.1-.3c-.7-.2-1.4-.5-2-.9s-1.1-.8-1.5-1.2zm4.5.5c.4.1.7.3 1.1.3.4.1.7.1 1.1 0 .4 0 .7-.2 1-.3.3-.2.5-.4.6-.6.1-.2.1-.4-.1-.6-.1-.2-.3-.4-.5-.6-.3-.2-.5-.4-.9-.6-.3-.2-.7-.4-1-.5s-.7-.3-1.1-.3c-.4-.1-.7-.1-1.1 0-.4 0-.7.2-1 .3-.3.2-.5.4-.6.6-.1.2 0 .4.1.6.1.2.3.4.5.6.3.2.5.4.9.6.3.2.6.4 1 .5zM542.6 227.1l11.1 6.4-1.9 1.1-11.1-6.4 1.9-1.1zM555.3 230.4c.6 0 1.2-.1 1.7-.4.4-.2.6-.5.7-.8.1-.3 0-.5-.2-.7l1.7-1c.7.7 1 1.4.8 1.9-.1.6-.6 1.1-1.4 1.5-.5.3-1.1.5-1.8.7-.6.1-1.3.2-2 .1-.7 0-1.4-.2-2-.4-.7-.2-1.3-.5-2-.8-.6-.3-1.1-.7-1.4-1.1-.3-.4-.6-.8-.6-1.2-.1-.4 0-.8.2-1.2.2-.4.6-.7 1.1-1 .6-.3 1.2-.6 2-.7.7-.1 1.4-.1 2.2 0s1.4.3 2.1.5c.7.3 1.3.6 1.9 1l-5 2.9c.7.4 1.4.7 2 .7zm-2.1-3.7c-.5 0-1 .1-1.5.4-.3.2-.5.4-.6.5-.1.2-.1.4 0 .5s.2.3.3.5l.4.4 3.1-1.8c-.5-.3-1.1-.5-1.7-.5zM562.6 226.1c.3 0 .5.1.8.1.2 0 .5-.1.7-.1l.6-.3c.1-.1.3-.2.4-.3.1-.1.2-.2.2-.3v-.4c0-.1-.2-.2-.4-.4-.3-.2-.8-.2-1.3-.1s-1.2.3-2.1.6c-.4.1-.7.2-1.1.3-.4.1-.7.2-1.1.2s-.7 0-1.1-.1c-.4-.1-.7-.2-1.1-.4-.5-.3-.9-.6-1-.9-.2-.3-.2-.6-.1-.9.1-.3.3-.5.6-.8.3-.3.6-.5 1-.7l1.2-.6c.4-.2.9-.3 1.4-.3.5 0 1 0 1.5.1s1 .3 1.6.5l-1.8 1.1c-.5-.2-.9-.3-1.3-.3s-.8.2-1.1.4c-.1.1-.2.1-.3.2s-.2.2-.2.3c0 .1-.1.2 0 .3 0 .1.1.2.3.3.2.1.4.2.7.2.3 0 .5 0 .8-.1l.9-.3c.3-.1.7-.2 1-.3.4-.1.7-.2 1.1-.3.4-.1.7-.2 1.1-.2s.8 0 1.1.1.8.2 1.1.4c.5.3.9.6 1.1.9s.2.6.1.9c-.1.3-.3.6-.6.9-.3.3-.6.5-1 .8-.4.2-.8.4-1.3.6-.5.2-1 .3-1.5.3s-1.1 0-1.6-.1-1.1-.3-1.7-.6l1.8-1.1c.1.3.3.4.6.4zM569.8 221.9c.3 0 .5.1.8.1.2 0 .5-.1.7-.1s.4-.2.6-.3c.1-.1.3-.2.4-.3.1-.1.2-.2.2-.3v-.4c0-.1-.2-.2-.4-.4-.3-.2-.8-.2-1.3-.1s-1.2.3-2.1.6c-.4.1-.7.2-1.1.3-.4.1-.7.2-1.1.2-.4 0-.7 0-1.1-.1-.4-.1-.7-.2-1.1-.4-.5-.3-.9-.6-1-.9-.2-.3-.2-.6-.1-.9.1-.3.3-.5.6-.8s.6-.5 1-.7l1.2-.6c.4-.2.9-.3 1.4-.3.5 0 1 0 1.5.1s1 .3 1.6.5l-1.8 1.1c-.5-.2-.9-.3-1.3-.3s-.8.2-1.1.4c-.1.1-.2.1-.3.2-.1.1-.2.2-.2.3s-.1.2 0 .3c0 .1.1.2.3.3.2.1.4.2.7.2.3 0 .5 0 .8-.1l.9-.3c.3-.1.7-.2 1-.3.4-.1.7-.2 1.1-.3.4-.1.7-.1 1.1-.2.4 0 .8 0 1.1.1.4.1.8.2 1.1.4.5.3.9.6 1.1.9s.2.6.1.9c-.1.3-.3.6-.6.9-.3.3-.6.5-1 .8-.4.2-.8.4-1.3.6-.5.2-1 .3-1.5.3s-1.1 0-1.6-.1c-.6-.1-1.1-.3-1.7-.6l1.8-1.1c.1.3.4.4.6.4zM570.5 210.7l7.9 8.9-1.5.9-7.9-8.9 1.5-.9zM576.2 211.2l1.1.6c-.2-.4-.3-.8-.1-1.1.2-.3.5-.6.9-.9.5-.3 1-.5 1.5-.6.5-.1 1-.1 1.4-.1.5.1 1 .2 1.4.4.5.2 1 .4 1.5.7l5 2.9-1.9 1.1-4.6-2.6c-.7-.4-1.3-.6-1.8-.7-.5-.1-1 0-1.4.3-.5.3-.7.6-.6 1s.6.8 1.4 1.2l4.2 2.4-1.9 1.1-8.1-4.7 2-1zM584.7 209c-.4-.4-.6-.8-.6-1.2-.1-.4 0-.8.3-1.2.2-.4.6-.7 1.2-1 .5-.3 1.1-.5 1.8-.7.6-.1 1.3-.2 2-.2s1.4.1 2.1.4c.7.2 1.4.5 2 .9s1.1.8 1.5 1.2c.3.4.6.8.6 1.2.1.4 0 .8-.3 1.1s-.6.7-1.2 1c-.5.3-1.1.5-1.8.7-.6.1-1.3.2-2 .2s-1.4-.1-2.1-.3c-.7-.2-1.4-.5-2-.9s-1.1-.8-1.5-1.2zm4.5.5c.4.1.7.3 1.1.3.4.1.7.1 1.1 0s.7-.2 1-.3c.3-.2.5-.4.6-.6.1-.2.1-.4-.1-.6-.1-.2-.3-.4-.5-.6-.3-.2-.5-.4-.9-.6-.3-.2-.7-.4-1-.5-.4-.1-.7-.3-1.1-.3-.4-.1-.7-.1-1.1 0-.4 0-.7.2-1 .3-.3.2-.5.4-.6.6s0 .4.1.6c.1.2.3.4.5.6.3.2.5.4.9.6.3.2.6.4 1 .5zM602.6 204.1c.2.4.2.7.1 1.1s-.5.6-.9.9c-.5.3-1.1.5-1.7.6-.6.1-1.3.1-1.9 0-.7-.1-1.3-.2-2-.5-.7-.2-1.3-.5-1.8-.8-.5-.3-1-.7-1.4-1-.4-.4-.6-.7-.8-1.1-.1-.4-.1-.7 0-1.1.2-.4.5-.7 1-1a5.27 5.27 0 0 1 3.3-.5l-4.1-2.3 1.9-1.1 11.1 6.4-1.8 1.1-1-.7zm-4-2.2c-.4-.1-.7-.2-1.1-.3-.4-.1-.7-.1-1.1 0-.4 0-.7.1-1 .3-.3.2-.5.4-.6.6s-.1.4.1.6c.1.2.3.4.5.6.2.2.5.4.9.6.3.2.7.3 1 .5.4.1.8.2 1.1.3s.8.1 1.1 0c.4 0 .7-.1 1-.3.3-.2.5-.4.6-.6.1-.2 0-.4-.1-.6-.1-.2-.3-.4-.6-.6l-.9-.6c-.2-.2-.6-.4-.9-.5zM607.1 200.5c.6 0 1.2-.1 1.7-.4.4-.2.6-.5.7-.8.1-.3 0-.5-.2-.7l1.7-1c.7.7 1 1.4.8 1.9-.1.6-.6 1.1-1.4 1.5-.5.3-1.1.5-1.8.7-.6.1-1.3.2-2 .1-.7 0-1.4-.2-2-.4-.7-.2-1.3-.5-2-.8-.6-.3-1.1-.7-1.4-1.1-.3-.4-.6-.8-.6-1.2-.1-.4 0-.8.2-1.2.2-.4.6-.7 1.1-1 .6-.3 1.2-.6 2-.7.7-.1 1.4-.1 2.2 0 .7.1 1.4.3 2.1.5.7.3 1.3.6 1.9 1l-5 2.9c.7.5 1.4.7 2 .7zm-2.1-3.7c-.5 0-1 .1-1.5.4-.3.2-.5.4-.6.5-.1.2-.1.4 0 .5.1.2.2.3.3.5l.4.4 3.1-1.8c-.6-.3-1.2-.5-1.7-.5zM605.6 192.8l-1.8-1.1 1.9-1.1 1.8 1.1-1.9 1.1zm9.5 6.4c.2-.1.3-.2.4-.4.1-.1-.1-.3-.4-.5l-8.3-4.8 1.9-1.1 8.4 4.9c.4.2.7.5 1 .7.2.2.3.4.4.7 0 .2-.1.5-.3.7-.2.2-.6.5-1.1.8-.2.1-.4.2-.7.3l-1.8-1.1c.2 0 .4-.1.5-.2zM618.1 194.1c.3 0 .5.1.8.1.2 0 .5-.1.7-.1l.6-.3c.1-.1.3-.2.4-.3.1-.1.2-.2.2-.3v-.4c0-.1-.2-.2-.4-.4-.3-.2-.8-.2-1.3-.1s-1.2.3-2.1.6c-.4.1-.7.2-1.1.3-.4.1-.7.2-1.1.2-.4 0-.7 0-1.1-.1-.4-.1-.7-.2-1.1-.4-.5-.3-.9-.6-1-.9-.2-.3-.2-.6-.1-.9.1-.3.3-.5.6-.8.3-.3.6-.5 1-.7l1.2-.6c.4-.2.9-.3 1.4-.3.5 0 1 0 1.5.1s1 .3 1.6.5l-1.8 1.1c-.5-.2-.9-.3-1.3-.3s-.8.2-1.1.4c-.1.1-.2.1-.3.2-.1.1-.2.2-.2.3-.1.1-.1.2 0 .3 0 .1.1.2.3.3.2.1.4.2.7.2s.5 0 .8-.1l.9-.3c.3-.1.7-.2 1-.3.4-.1.7-.2 1.1-.3.4-.1.7-.2 1.1-.2s.8 0 1.1.1.8.2 1.1.4c.5.3.9.6 1.1.9.2.3.2.6.1.9-.1.3-.3.6-.6.9-.3.3-.6.5-1 .8-.4.2-.8.4-1.3.6-.5.2-1 .3-1.5.3s-1.1 0-1.6-.1c-.6-.1-1.1-.3-1.7-.6l1.8-1.1c.1.2.3.3.6.4z"/></g><g id="multistage-01"><path fill="#bf534f" d="M327.9 192v-11.8h-293V192l146.5 84.6z"/><path fill="#ff6d68" d="M327.6 180.2L181.1 95.7 34.6 180.2l146.5 84.6z"/><g fill="#933131"><path d="M151.4 212.1L135 206l10.6 9.4-3.8 2.2-24.3-8.8 3.8-2.2 16.2 6.2-10.5-9.5 3.5-2 16.6 6.2-10.8-9.5 3.7-2.1 15.2 14.1-3.8 2.1zM147.4 198.3c-.9-1-1.4-1.9-1.7-2.9-.2-1-.1-1.9.4-2.8.5-.9 1.4-1.8 2.7-2.5 1.3-.8 2.8-1.3 4.4-1.6 1.6-.3 3.2-.4 4.9-.2 1.7.1 3.3.4 5 1 1.6.5 3.2 1.2 4.7 2 1.4.8 2.6 1.7 3.5 2.7.9.9 1.4 1.9 1.6 2.8.2 1 0 1.9-.5 2.8-.5.9-1.4 1.7-2.8 2.5-1.3.8-2.8 1.3-4.3 1.6-1.6.3-3.2.4-4.8.3-1.6-.1-3.3-.4-4.9-.9-1.6-.5-3.2-1.2-4.6-2-1.5-.9-2.7-1.8-3.6-2.8zm10 1.8c1 .4 1.9.6 2.9.8 1 .2 2 .2 3 0 1-.1 1.9-.4 2.7-.9.8-.5 1.4-1 1.6-1.6s.2-1.1-.1-1.7-.7-1.1-1.3-1.7c-.6-.5-1.3-1.1-2.2-1.5-.9-.5-1.8-.9-2.8-1.3-1-.4-2-.6-3-.8s-2-.2-3 0c-1 .1-1.9.4-2.7.9-.8.5-1.4 1-1.6 1.6-.2.6-.2 1.1.1 1.7.3.6.7 1.2 1.4 1.7s1.4 1.1 2.3 1.6l2.7 1.2zM169.6 178.7c.8-.4 1.6-.8 2.5-1 .9-.2 1.8-.3 2.8-.2s1.9.2 2.7.4c.9.2 1.7.6 2.5 1 1.2.7 2 1.4 2.4 2.1.4.7.4 1.5-.1 2.3h.1c.6-.2 1.2-.3 1.8-.3s1.2.1 1.8.2 1.2.3 1.8.5 1.1.5 1.7.8c.3.2.7.4 1.2.6.4.2.9.5 1.4.7l1.5.6c.5.2 1 .3 1.4.4l-3.8 2.2c-.8-.2-1.7-.6-2.6-1.1-.9-.5-1.8-.9-2.7-1.3-1.2-.5-2.2-.8-3.1-.8-.9 0-1.8.2-2.8.8l-3.8 2.2 7.7 4.5-3.8 2.2-19.8-11.4 9.2-5.4zm7.6 6c.9-.5 1.3-1 1.3-1.5s-.5-1-1.5-1.6c-1-.6-1.9-.8-2.7-.8-.9 0-1.7.2-2.6.7l-4.1 2.4 5.6 3.2 4-2.4zM181.5 171.9l8.2 4.7-1.5-8.6 4.7-2.7 1.1 8.4 19.3 2.7-4.7 2.7-14.1-2.2.4 2.7 6.4 3.7-3.8 2.2-19.8-11.5 3.8-2.1zM202.4 159.8c1.1-.6 2.3-1.1 3.7-1.4 1.4-.3 2.8-.4 4.3-.4s3.1.3 4.7.8 3.2 1.2 4.9 2.1c1.4.8 2.6 1.7 3.5 2.6s1.5 1.8 1.7 2.7c.2.9.1 1.8-.3 2.6-.5.9-1.3 1.7-2.7 2.4l-7.4 4.3-19.7-11.5 7.3-4.2zm15.9 9.4c.5-.3 1-.7 1.3-1.1.3-.4.4-.9.4-1.4-.1-.5-.4-1-.9-1.6s-1.3-1.2-2.4-1.8c-1-.6-2-1-3-1.4-1-.4-1.9-.6-2.9-.7-1-.1-1.9-.1-2.8.1-.9.2-1.9.6-2.8 1.1l-2.7 1.6 12.5 7.2 3.3-2zM216.6 151.6l19.8 11.4-3.8 2.2-19.8-11.4 3.8-2.2zM229.2 144.4c.8-.4 1.6-.8 2.5-1 .9-.2 1.8-.3 2.8-.2.9 0 1.9.2 2.7.4.9.2 1.7.6 2.5 1 1.2.7 2 1.4 2.4 2.1s.4 1.5-.1 2.3h.1c.6-.2 1.2-.3 1.8-.3.6 0 1.2.1 1.8.2.6.1 1.2.3 1.8.5s1.1.5 1.7.8c.3.2.7.4 1.2.6.4.2.9.5 1.4.7l1.5.6c.5.2 1 .3 1.4.4l-3.8 2.2c-.8-.2-1.7-.6-2.6-1.1-.9-.5-1.8-.9-2.7-1.3-1.2-.5-2.2-.8-3.1-.8-.9 0-1.8.2-2.8.8l-3.8 2.2 7.7 4.5-3.8 2.2-19.8-11.4 9.2-5.4zm7.6 5.9c.9-.5 1.3-1 1.3-1.5s-.5-1-1.5-1.6c-1-.6-1.9-.8-2.7-.8-.9 0-1.7.2-2.6.7l-4.1 2.4 5.6 3.2 4-2.4z"/></g><g fill="#933131"><path d="M219 214l7.9 8.9-1.5.9-7.9-8.9 1.5-.9zM225.3 217c-.5-.3-.8-.6-1-.9-.1-.3-.2-.6-.1-.9.1-.3.3-.6.6-.9.3-.3.6-.5 1-.7.4-.2.7-.4 1.2-.6.4-.2.9-.3 1.3-.4.5-.1.9-.1 1.4 0 .5.1 1 .2 1.5.5l4.2 2.4c.4.2.7.4 1.1.6.4.2.7.3.9.3l-1.9 1.1c-.2-.1-.3-.1-.5-.2s-.3-.1-.4-.2c.1.4 0 .7-.3 1.1-.3.3-.6.6-1.1.9-.3.2-.7.3-1.1.5-.4.1-.8.2-1.2.2-.4 0-.8 0-1.3-.1-.4-.1-.8-.3-1.3-.5-.5-.3-.8-.5-.9-.8-.2-.3-.2-.5-.2-.7 0-.2.2-.5.4-.7l.6-.6c.2-.2.5-.4.7-.6.2-.2.4-.3.6-.5.2-.2.2-.3.2-.5 0-.1-.1-.3-.3-.4-.2-.1-.5-.2-.7-.3s-.4-.1-.6 0c-.2 0-.4.1-.5.1-.2.1-.3.2-.5.3-.4.2-.6.4-.6.7 0 .2.2.5.6.8l-1.8 1zm6.1-1.6c0 .1 0 .2-.1.3l-.3.3c-.1.1-.2.2-.4.3-.1.1-.3.2-.4.3l-.3.3c-.1.1-.1.2-.2.3 0 .1 0 .2.1.3l.4.4c.2.1.4.2.6.2.2 0 .4.1.6 0 .2 0 .4-.1.5-.1.2-.1.3-.1.5-.2.4-.2.6-.4.7-.6.1-.2 0-.4-.1-.6-.1-.2-.2-.3-.4-.5-.2-.1-.3-.2-.5-.3l-.7-.4zM232.5 210l1 .6c-.2-.4-.2-.7-.1-1.1.2-.3.5-.6.9-.9.5-.3 1.1-.5 1.8-.6.6-.1 1.3-.1 1.9 0 .7.1 1.3.2 2 .5.7.2 1.3.5 1.8.8.5.3 1 .6 1.4 1 .4.4.6.7.8 1.1.1.4.1.7 0 1.1-.2.4-.5.7-1 1a5.27 5.27 0 0 1-3.3.5l3.8 2.2-1.9 1.1-10.9-6.3 1.8-1zm8.9 2.3c.1-.2 0-.4-.1-.6-.1-.2-.3-.4-.5-.6-.3-.2-.5-.4-.9-.6-.3-.2-.7-.4-1-.5-.4-.1-.7-.3-1.1-.3-.4-.1-.8-.1-1.1 0s-.7.1-1 .3c-.3.2-.5.4-.6.6-.1.2 0 .4.1.6.1.2.3.4.5.6l.9.6c.3.2.7.4 1 .5.4.1.7.2 1.1.3.4.1.7.1 1.1 0 .4 0 .7-.1 1-.3.3-.2.5-.4.6-.6zM240.7 205.3l1 .6c-.2-.4-.2-.7-.1-1.1.2-.3.5-.6.9-.9.5-.3 1.1-.5 1.8-.6.6-.1 1.3-.1 1.9 0 .7.1 1.3.2 2 .5.7.2 1.3.5 1.8.8.5.3 1 .6 1.4 1 .4.4.6.7.8 1.1.1.4.1.7 0 1.1-.2.4-.5.7-1 1a5.27 5.27 0 0 1-3.3.5l3.8 2.2-1.9 1.1-10.9-6.3 1.8-1zm8.9 2.2c.1-.2 0-.4-.1-.6-.1-.2-.3-.4-.5-.6-.3-.2-.5-.4-.9-.6-.3-.2-.7-.4-1-.5s-.7-.3-1.1-.3c-.4-.1-.8-.1-1.1 0-.4 0-.7.1-1 .3-.3.2-.5.4-.6.6-.1.2 0 .4.1.6.1.2.3.4.5.6l.9.6c.3.2.7.4 1 .5.4.1.7.2 1.1.3.4.1.7.1 1.1 0 .4 0 .7-.1 1-.3.4-.2.6-.4.6-.6z"/></g></g><g id="multistage-02"><path fill="#e0b03b" d="M327.9 182v-11.8h-293V182l146.5 84.6z"/><path fill="#ffc843" d="M327.6 170.2L181.1 85.7 34.6 170.2l146.5 84.6z"/><g fill="#a58234"><path d="M134 185c-1.1-.2-2.2-.3-3.4-.3-1.1 0-2.2.2-3.3.4-1 .2-2 .6-2.8 1.1-1.5.9-2.4 1.8-2.8 2.7-.4 1-.3 2 .1 3 .5 1 1.3 2 2.4 3 1.1 1 2.4 1.9 3.9 2.8 1.4.8 3 1.6 4.7 2.2 1.7.6 3.4 1.1 5.1 1.3 1.7.3 3.4.3 5.1.1 1.7-.2 3.3-.7 4.7-1.6 2-1.2 2.9-2.5 2.6-3.9-.3-1.5-1.5-2.9-3.5-4.4l6.3-3.7c2 1.3 3.5 2.7 4.5 4.1 1 1.4 1.6 2.8 1.7 4.2.1 1.4-.3 2.7-1.2 3.9-.9 1.3-2.2 2.4-4.1 3.5-2.3 1.3-4.8 2.2-7.5 2.8-2.7.5-5.5.7-8.4.5-2.9-.2-5.7-.7-8.5-1.6s-5.5-2-8-3.5c-2.6-1.5-4.6-3.1-6.2-4.7-1.5-1.7-2.5-3.3-2.9-5-.4-1.7-.1-3.3.8-4.9.9-1.6 2.5-3 4.8-4.4 1.6-.9 3.5-1.7 5.5-2.2 2-.5 4.1-.8 6.3-.9 2.2-.1 4.4.1 6.7.6s4.5 1.2 6.7 2.2L137 186c-.9-.5-1.9-.8-3-1zM146.5 179c-1.5-1.7-2.5-3.3-2.9-5-.4-1.7-.1-3.3.8-4.9.9-1.6 2.5-3 4.8-4.4 2.3-1.3 4.8-2.3 7.6-2.8 2.7-.5 5.6-.6 8.4-.4 2.9.2 5.8.8 8.6 1.7 2.9.9 5.6 2.1 8.2 3.6 2.5 1.4 4.5 3 6 4.6 1.5 1.6 2.4 3.3 2.8 4.9.4 1.7.1 3.3-.8 4.8-.9 1.6-2.5 3-4.8 4.4-2.3 1.3-4.8 2.2-7.5 2.8-2.7.5-5.5.7-8.4.5-2.9-.2-5.7-.7-8.5-1.6-2.8-.9-5.5-2-8-3.5-2.7-1.5-4.8-3.1-6.3-4.7zm17.4 3.1c1.7.6 3.4 1.1 5.1 1.3 1.7.3 3.4.3 5.1.1 1.7-.2 3.3-.7 4.7-1.6 1.5-.9 2.4-1.8 2.8-2.7.4-1 .3-2-.1-3-.5-1-1.2-2-2.3-2.9-1.1-1-2.3-1.9-3.8-2.7-1.5-.9-3.1-1.6-4.8-2.3-1.7-.6-3.4-1.1-5.2-1.4-1.8-.3-3.5-.3-5.2-.1-1.7.2-3.3.7-4.7 1.6-1.5.9-2.4 1.8-2.8 2.7-.4 1-.3 2 .1 3 .5 1 1.3 2 2.4 3 1.1 1 2.4 1.9 3.9 2.8 1.6.8 3.1 1.5 4.8 2.2zM182.5 146.4c1.9-1.1 3.8-1.8 5.7-2.2 1.9-.4 3.8-.5 5.7-.4 1.8.1 3.6.5 5.3 1s3.2 1.2 4.7 2c1.4.8 2.6 1.7 3.5 2.7 1 1 1.5 2 1.7 3.1.2 1.1 0 2.2-.7 3.3s-2 2.2-3.8 3.3l-6.9 4 12.3 7.1-6.6 3.8-34.4-19.9 13.5-7.8zm14.4 10.4c.8-.4 1.4-.9 2-1.4.6-.5.9-1 1.1-1.5.2-.5.1-1.1-.3-1.6-.4-.6-1.1-1.2-2.2-1.8-1.1-.6-2.1-1-3.1-1.3-1-.2-1.9-.3-2.8-.2-.9.1-1.8.3-2.6.6s-1.6.7-2.4 1.1l-5.1 2.9 10.3 6 5.1-2.8zM193.7 139.9l7.3-4.2 20.6 3.8-6.7-11.9 7.3-4.2 10.1 18.6 13.2 7.6-6.6 3.8-13.4-7.7-31.8-5.8z"/></g><g fill="#a58234"><path d="M173.8 212.8l1 .6c-.2-.4-.2-.7-.1-1.1.2-.3.5-.6.9-.9.5-.3 1.1-.5 1.8-.6s1.3-.1 1.9 0c.7.1 1.3.2 2 .5.7.2 1.3.5 1.8.8.5.3 1 .6 1.4 1 .4.4.6.7.8 1.1.1.4.1.7 0 1.1-.2.4-.5.7-1 1a5.27 5.27 0 0 1-3.3.5l3.8 2.2-1.9 1.1-10.9-6.3 1.8-1zm8.9 2.3c.1-.2 0-.4-.1-.6s-.3-.4-.5-.6c-.3-.2-.5-.4-.9-.6-.3-.2-.7-.4-1-.5-.4-.1-.7-.3-1.1-.3-.4-.1-.8-.1-1.1 0s-.7.1-1 .3c-.3.2-.5.4-.6.6s0 .4.1.6c.1.2.3.4.5.6l.9.6c.3.2.7.4 1 .5.4.1.7.2 1.1.3.4.1.7.1 1.1 0 .4 0 .7-.1 1-.3.3-.2.5-.4.6-.6zM182.6 210.6c-.5-.3-.8-.6-1-.9-.1-.3-.2-.6-.1-.9.1-.3.3-.6.6-.9s.6-.5 1-.7c.4-.2.7-.4 1.2-.6.4-.2.9-.3 1.3-.4s.9-.1 1.4 0c.5.1 1 .2 1.5.5l4.2 2.4c.4.2.7.4 1.1.6.4.2.7.3.9.3l-1.9 1.1c-.2-.1-.3-.1-.5-.2s-.3-.1-.4-.2c.1.4 0 .7-.3 1.1-.3.3-.6.6-1.1.9-.3.2-.7.3-1.1.5-.4.1-.8.2-1.2.2-.4 0-.8 0-1.3-.1-.4-.1-.8-.3-1.3-.5-.5-.3-.8-.5-.9-.8-.2-.3-.2-.5-.2-.7 0-.2.2-.5.4-.7l.6-.6c.2-.2.5-.4.7-.6.2-.2.4-.3.6-.5.2-.2.2-.3.2-.5 0-.1-.1-.3-.3-.4-.2-.1-.5-.2-.7-.3s-.4-.1-.6 0c-.2 0-.4.1-.5.1-.2.1-.3.2-.5.3-.4.2-.6.4-.6.7 0 .2.2.5.6.8l-1.8 1zm6.1-1.6c0 .1 0 .2-.1.3l-.3.3c-.1.1-.2.2-.4.3-.1.1-.3.2-.4.3l-.3.3c-.1.1-.1.2-.2.3s0 .2.1.3l.4.4c.2.1.4.2.6.2.2 0 .4.1.6 0s.4-.1.5-.1c.2-.1.3-.1.5-.2.4-.2.6-.4.7-.6.1-.2 0-.4-.1-.6-.1-.2-.2-.3-.4-.5-.2-.1-.3-.2-.5-.3l-.7-.4zM192.7 203.6c-.3.2-.5.4-.5.6 0 .2 0 .4.1.7.1.2.3.4.6.6.3.2.5.4.8.6.3.2.6.3 1 .5.4.1.7.2 1.1.3s.7.1 1.1.1c.4 0 .7-.1 1-.3.5-.3.7-.6.6-.9 0-.3-.3-.6-.7-1l1.8-1.1c.9.7 1.4 1.4 1.4 2 0 .7-.5 1.3-1.4 1.8-.5.3-1.1.5-1.7.7s-1.3.2-2 .2-1.3-.1-2-.3c-.7-.2-1.3-.5-1.9-.8-.6-.4-1.1-.7-1.5-1.1-.4-.4-.6-.8-.7-1.2-.1-.4 0-.8.2-1.2.2-.4.6-.7 1.2-1.1.4-.2.9-.4 1.4-.6.5-.1 1-.2 1.6-.3.6 0 1.1 0 1.7.1.6.1 1.1.3 1.7.6l-1.9 1.1c-1.2-.5-2.1-.5-3 0zM194.7 197.2l6 3.4-.5-3.1 2.3-1.3.3 3.2 8 1.3-2.3 1.3-5.5-1 .1.9 2.8 1.6-1.9 1.1-11.1-6.4 1.8-1zM205.8 197.2c-.5-.3-.8-.6-1-.9-.1-.3-.2-.6-.1-.9.1-.3.3-.6.6-.9.3-.3.6-.5 1-.7.4-.2.7-.4 1.2-.6.4-.2.9-.3 1.3-.4.5-.1.9-.1 1.4 0 .5.1 1 .2 1.5.5l4.2 2.4c.4.2.7.4 1.1.6.4.2.7.3.9.3l-1.9 1.1c-.2-.1-.3-.1-.5-.2s-.3-.1-.4-.2c.1.4 0 .7-.3 1.1-.3.3-.6.6-1 .9-.3.2-.7.3-1.1.5-.4.1-.8.2-1.2.2-.4 0-.8 0-1.3-.1s-.8-.3-1.3-.5c-.5-.3-.8-.5-.9-.8-.2-.3-.2-.5-.2-.7 0-.2.2-.5.4-.7l.6-.6c.2-.2.5-.4.7-.6.2-.2.4-.3.6-.5s.2-.3.2-.5c0-.1-.1-.3-.3-.4-.2-.1-.5-.2-.7-.3s-.4-.1-.6 0c-.2 0-.4.1-.5.1-.2.1-.3.2-.5.3-.4.2-.6.4-.6.7 0 .2.2.5.6.8l-1.9 1zm6.1-1.6c0 .1 0 .2-.1.3l-.3.3c-.1.1-.2.2-.4.3-.1.1-.3.2-.4.3l-.3.3c-.1.1-.1.2-.2.3 0 .1 0 .2.1.3l.4.4c.2.1.4.2.6.2.2 0 .4.1.6 0 .2 0 .4-.1.5-.1.2-.1.3-.1.5-.2.4-.2.6-.4.7-.6.1-.2 0-.4-.1-.6-.1-.2-.2-.3-.4-.5-.2-.1-.3-.2-.5-.3l-.7-.4zM226.4 192.4c.3.3.6.6.7 1s0 .7-.2 1.2c-.2.4-.7.9-1.5 1.3-.3.2-.7.4-1.2.5s-.9.2-1.4.3h-1.5c-.5 0-1-.2-1.5-.5l1.9-1.1c.5.2 1 .3 1.4.2.4-.1.8-.2 1.1-.4.5-.3.7-.6.6-1-.1-.4-.5-.7-1.1-1l-1.1-.6c.2.4.2.7.1 1.1-.2.3-.5.6-.9.9-.5.3-1.1.5-1.7.6-.6.1-1.2.1-1.8 0-.6-.1-1.2-.2-1.8-.4-.6-.2-1.2-.5-1.7-.8-.5-.3-1-.6-1.3-1s-.6-.7-.7-1.1c-.1-.4-.1-.7.1-1 .2-.3.5-.7 1-.9.5-.3 1-.4 1.5-.5.5-.1 1.2-.1 1.9.1l-1.1-.6 1.8-1.1 7.5 4.4c.3-.1.6.1.9.4zm-5.3 0c.1-.2.1-.4 0-.6-.1-.2-.2-.4-.4-.6-.2-.2-.4-.4-.7-.5-.3-.2-.7-.4-1-.5-.3-.1-.7-.2-1.1-.3-.4-.1-.7-.1-1 0-.3 0-.7.2-1 .3-.3.2-.4.3-.5.5s-.1.4 0 .6c.1.2.2.4.4.6.2.2.5.4.8.5.3.2.6.3.9.5.3.1.7.2 1 .3.3.1.7.1 1 0s.7-.1 1-.3c.4-.1.6-.3.6-.5zM227.6 188.8c.6 0 1.2-.1 1.7-.4.4-.2.6-.5.7-.8.1-.3 0-.5-.2-.7l1.7-1c.7.7 1 1.4.8 1.9-.1.6-.6 1.1-1.4 1.5-.5.3-1.1.5-1.8.7-.6.1-1.3.2-2 .1-.7 0-1.4-.2-2-.4-.7-.2-1.3-.5-2-.8-.6-.3-1.1-.7-1.4-1.1-.3-.4-.6-.8-.6-1.2-.1-.4 0-.8.2-1.2.2-.4.6-.7 1.1-1 .6-.3 1.2-.6 2-.7.7-.1 1.4-.1 2.2 0 .7.1 1.4.3 2.1.5.7.3 1.3.6 1.9 1l-5 2.9c.7.5 1.4.7 2 .7zm-2-3.7c-.5 0-1 .1-1.5.4-.3.2-.5.4-.6.5-.1.2-.1.4 0 .5.1.2.2.3.3.5l.4.4 3.1-1.8c-.6-.3-1.2-.4-1.7-.5zM235.1 184l2.4 1.4-2.1 1.2-2.4-1.4 2.1-1.2zM229.9 179l-1.8-1.1 1.9-1.1 1.8 1.1-1.9 1.1zm9.5 6.4c.2-.1.3-.2.4-.4.1-.1-.1-.3-.4-.5l-8.3-4.8 1.9-1.1 8.4 4.9c.4.2.7.5 1 .7.2.2.3.4.4.7 0 .2-.1.5-.3.7s-.6.5-1.1.8c-.2.1-.4.2-.7.3l-1.8-1.1c.2 0 .4-.1.5-.2zM242.4 180.2c.3 0 .5.1.8.1.2 0 .5-.1.7-.1s.4-.2.6-.3c.1-.1.3-.2.4-.3.1-.1.2-.2.2-.3v-.4c0-.1-.2-.2-.4-.4-.3-.2-.8-.2-1.3-.1s-1.2.3-2.1.6c-.4.1-.7.2-1.1.3-.4.1-.7.2-1.1.2-.4 0-.7 0-1.1-.1-.4-.1-.7-.2-1.1-.4-.5-.3-.9-.6-1-.9-.2-.3-.2-.6-.1-.9.1-.3.3-.5.6-.8.3-.3.6-.5 1-.7l1.2-.6c.4-.2.9-.3 1.4-.3.5 0 1 0 1.5.1s1 .3 1.6.5l-1.8 1.1c-.5-.2-.9-.3-1.3-.3s-.8.2-1.1.4c-.1.1-.2.1-.3.2-.1.1-.2.2-.2.3-.1.1-.1.2 0 .3 0 .1.1.2.3.3.2.1.4.2.7.2.3 0 .5 0 .8-.1l.9-.3c.3-.1.7-.2 1-.3.4-.1.7-.2 1.1-.3.4-.1.7-.1 1.1-.2.4 0 .8 0 1.1.1.4.1.8.2 1.1.4.5.3.9.6 1.1.9.2.3.2.6.1.9-.1.3-.3.6-.6.9-.3.3-.6.5-1 .8-.4.2-.8.4-1.3.6-.5.2-1 .3-1.5.3s-1.1 0-1.6-.1c-.6-.1-1.1-.3-1.7-.6l1.8-1.1c.1.3.3.4.6.4zM244.3 174.8c-.4-.4-.6-.8-.6-1.2-.1-.4 0-.8.3-1.1.2-.4.6-.7 1.2-1 .5-.3 1.1-.5 1.8-.7.6-.1 1.3-.2 2-.2s1.4.1 2.1.4c.7.2 1.4.5 2 .9s1.1.8 1.5 1.2c.3.4.6.8.6 1.2.1.4 0 .8-.3 1.1-.2.4-.6.7-1.2 1-.5.3-1.1.5-1.8.7-.6.1-1.3.2-2 .2s-1.4-.1-2.1-.3c-.7-.2-1.4-.5-2-.9s-1.2-.9-1.5-1.3zm4.4.5c.4.1.7.3 1.1.3.4.1.7.1 1.1 0 .4 0 .7-.2 1-.3s.5-.4.6-.6c.1-.2.1-.4-.1-.6-.1-.2-.3-.4-.5-.6-.3-.2-.5-.4-.9-.6-.3-.2-.7-.4-1-.5-.4-.1-.7-.3-1.1-.3-.4-.1-.7-.1-1.1 0-.4 0-.7.2-1 .3-.3.2-.5.4-.6.6-.1.2 0 .4.1.6.1.2.3.4.5.6s.5.4.9.6c.3.2.7.4 1 .5zM252 167.7l1.1.6c-.2-.4-.3-.8-.1-1.1.2-.3.5-.6.9-.9.5-.3 1-.5 1.5-.6.5-.1 1-.1 1.4-.1.5.1 1 .2 1.4.4.5.2 1 .4 1.5.7l5 2.9-1.9 1.1-4.6-2.6c-.7-.4-1.3-.6-1.8-.7-.5-.1-1 0-1.5.3s-.7.6-.6 1c.1.3.6.8 1.4 1.2l4.2 2.4-1.9 1.1-8.1-4.7 2.1-1zM207.8 213.3l-1.8-1.1 1.9-1.1 1.8 1.1-1.9 1.1zm3.2-.4l8.1 4.7-1.9 1.1-8.1-4.7 1.9-1.1zM214.3 211l1.1.6c-.2-.4-.3-.8-.1-1.1.2-.3.5-.6.9-.9.5-.3 1-.5 1.5-.6.5-.1 1-.1 1.4-.1.5.1 1 .2 1.4.4.5.2 1 .4 1.5.7l5 2.9-1.9 1.1-4.6-2.6c-.7-.4-1.3-.6-1.8-.7-.5-.1-1 0-1.5.3s-.7.6-.6 1c.1.3.6.8 1.4 1.2l4.2 2.4-1.9 1.1-8.1-4.7 2.1-1zM232.5 208.6c.2.4.2.7.1 1.1-.2.3-.5.6-.9.9-.5.3-1.1.5-1.7.6-.6.1-1.3.1-1.9 0-.7-.1-1.3-.2-2-.5-.6-.2-1.3-.5-1.8-.8-.5-.3-1-.7-1.4-1-.4-.4-.6-.7-.8-1.1-.1-.4-.1-.7 0-1.1.2-.4.5-.7 1-1a5.27 5.27 0 0 1 3.3-.5l-4.1-2.3 1.9-1.1 11.1 6.4-1.8 1.1-1-.7zm-4-2.2c-.4-.1-.7-.2-1.1-.3-.4-.1-.7-.1-1.1 0-.4 0-.7.1-1 .3s-.5.4-.6.6c-.1.2-.1.4.1.6.1.2.3.4.5.6.2.2.5.4.9.6.3.2.7.3 1 .5.4.1.8.2 1.1.3.4.1.8.1 1.1 0 .4 0 .7-.1 1-.3.3-.2.5-.4.6-.6.1-.2 0-.4-.1-.6-.1-.2-.3-.4-.6-.6l-.9-.6c-.2-.2-.6-.4-.9-.5zM237 205c.6 0 1.2-.1 1.7-.4.4-.2.6-.5.7-.8s0-.5-.2-.7l1.7-1c.7.7 1 1.4.8 1.9s-.6 1.1-1.4 1.5c-.5.3-1.1.5-1.8.7-.6.1-1.3.2-2 .1-.7 0-1.4-.2-2-.4-.7-.2-1.3-.5-2-.8-.6-.3-1.1-.7-1.4-1.1-.3-.4-.6-.8-.6-1.2-.1-.4 0-.8.2-1.2s.6-.7 1.1-1c.6-.3 1.2-.6 2-.7.7-.1 1.4-.1 2.2 0 .7.1 1.4.3 2.1.5.7.3 1.3.6 1.9 1l-5 2.9c.7.5 1.3.7 2 .7zm-2.1-3.7c-.5 0-1 .1-1.5.4-.3.2-.5.4-.6.5-.1.2-.1.4 0 .5.1.2.2.3.3.5l.4.4 3.1-1.8c-.6-.3-1.2-.4-1.7-.5zM236 198.5l2.2-1.3 3.3.5-.9-1.9 2.1-1.2 1.5 3.5 6.9 1-2.2 1.3-4-.6 1.1 2.3-2.1 1.2-1.7-3.9-6.2-.9zM251.6 196l2.4 1.4-2.1 1.2-2.4-1.4 2.1-1.2zM246.5 191l-1.8-1.1 1.9-1.1 1.8 1.1-1.9 1.1zm9.5 6.4c.2-.1.3-.2.4-.4.1-.1-.1-.3-.4-.5l-8.3-4.8 1.9-1.1 8.4 4.9c.4.2.7.5 1 .7.2.2.3.4.4.7 0 .2-.1.5-.3.7-.2.2-.6.5-1.1.8-.2.1-.4.2-.7.3l-1.8-1.1c.2 0 .3-.1.5-.2zM259 192.3c.3 0 .5.1.8.1.2 0 .5-.1.7-.1l.6-.3c.1-.1.3-.2.4-.3.1-.1.2-.2.2-.3v-.4c0-.2-.2-.2-.4-.4-.3-.2-.8-.2-1.3-.1s-1.2.3-2.1.6c-.4.1-.7.2-1.1.3-.4.1-.7.2-1.1.2-.4 0-.7 0-1.1-.1-.4-.1-.7-.2-1.1-.4-.5-.3-.9-.6-1-.9-.2-.3-.2-.6-.1-.9.1-.3.3-.5.6-.8.3-.3.6-.5 1-.7l1.2-.6c.4-.2.9-.3 1.4-.3.5 0 1 0 1.5.1s1 .3 1.6.5l-1.8 1.1c-.5-.2-.9-.3-1.3-.3-.4.1-.8.2-1.1.4-.1.1-.2.1-.3.2-.1.1-.2.2-.2.3-.1.1-.1.2 0 .3 0 .1.1.2.3.3.2.1.4.2.7.2s.5 0 .8-.1l.9-.3c.3-.1.7-.2 1-.3.4-.1.7-.2 1.1-.3.4-.1.7-.2 1.1-.2.4 0 .8 0 1.1.1s.8.2 1.1.4c.5.3.9.6 1.1.9.2.3.2.6.1.9s-.3.6-.6.9c-.3.3-.6.5-1 .8-.4.2-.8.4-1.3.6-.5.2-1 .3-1.5.3s-1.1 0-1.6-.1c-.6-.1-1.1-.3-1.7-.6l1.8-1.1c0 .2.3.3.6.4z"/></g></g><g id="multistage-03"><path fill="#e0b03b" d="M327.9 172v-11.8h-293V172l146.5 84.6z"/><path fill="#ffc843" d="M327.6 160.2L181.1 75.7 34.6 160.2l146.5 84.6z"/><g fill="#a58234"><path d="M135.6 162.5c1.3-.8 2.8-1.3 4.4-1.7 1.6-.3 3.2-.5 4.8-.4 1.6.1 3.2.3 4.8.7 1.5.4 3 1 4.3 1.8 2 1.2 3.4 2.4 4.1 3.7.7 1.3.7 2.6-.2 4l.1.1c1.1-.3 2.1-.5 3.2-.5s2.1.1 3.2.3c1.1.2 2.1.5 3.1 1 1 .4 2 .9 2.9 1.3.6.3 1.2.7 2 1.1l2.4 1.2c.8.4 1.7.8 2.5 1.1.8.3 1.7.5 2.4.6l-6.6 3.8c-1.5-.4-3-1-4.6-1.9-1.6-.8-3.2-1.6-4.7-2.3-2-.9-3.8-1.4-5.4-1.5-1.6-.1-3.2.4-4.8 1.3l-6.6 3.8 13.5 7.8-6.6 3.8-34.4-19.9 16.2-9.2zm13.2 10.3c1.5-.9 2.2-1.7 2.2-2.6s-.9-1.8-2.6-2.8c-1.7-1-3.3-1.4-4.8-1.5-1.5 0-3 .4-4.5 1.3l-7.2 4.1 9.7 5.6 7.2-4.1zM203.4 160.1c0 2.6-2 5.1-6 7.4-4 2.3-8.3 3.5-12.7 3.5-4.5 0-9-1.4-13.7-4.1l-21.4-12.4 6.6-3.8 21.4 12.4c.9.5 1.9 1 3 1.5 1 .4 2.1.7 3.3.9 1.1.1 2.3.1 3.5-.1 1.2-.2 2.5-.7 3.8-1.5 2.3-1.3 3.3-2.6 3-3.8-.3-1.2-1.8-2.6-4.3-4l-21.4-12.4 6.6-3.8 21.4 12.4c4.5 2.5 6.9 5.1 6.9 7.8zM187.1 132.7l35.5 6.1h.1l-23.1-13.3 6.1-3.5 34.4 19.9-6.6 3.8-35.4-6.1h-.1l23 13.3-6.1 3.5-34.4-19.9 6.6-3.8z"/></g><g fill="#a58234"><path d="M193.7 207.5l1.1.6c-.2-.4-.3-.8-.1-1.1.2-.3.5-.6.9-.9.5-.3 1-.5 1.5-.6.5-.1 1-.1 1.4-.1.5.1 1 .2 1.4.4.5.2 1 .4 1.5.7l5 2.9-1.9 1.1-4.6-2.6c-.7-.4-1.3-.6-1.8-.7s-1 0-1.4.3c-.5.3-.7.6-.6 1 .1.3.6.8 1.4 1.2l4.2 2.4-1.9 1.1-8.1-4.7 2-1zM201.7 202.9l1 .6c-.2-.4-.2-.7-.1-1.1.2-.3.5-.6.9-.9.5-.3 1.1-.5 1.8-.6s1.3-.1 1.9 0c.7.1 1.3.2 2 .5.7.2 1.3.5 1.8.8.5.3 1 .6 1.4 1 .4.4.6.7.8 1.1.1.4.1.7 0 1.1-.2.4-.5.7-1 1a5.27 5.27 0 0 1-3.3.5l3.8 2.2-1.9 1.1-10.9-6.3 1.8-1zm8.9 2.2c.1-.2 0-.4-.1-.6-.1-.2-.3-.4-.5-.6-.3-.2-.5-.4-.9-.6-.3-.2-.7-.4-1-.5-.4-.1-.7-.3-1.1-.3-.4-.1-.8-.1-1.1 0-.4 0-.7.1-1 .3-.3.2-.5.4-.6.6-.1.2 0 .4.1.6.1.2.3.4.5.6l.9.6c.3.2.7.4 1 .5.4.1.7.2 1.1.3.4.1.7.1 1.1 0s.7-.1 1-.3c.3-.2.5-.4.6-.6zM210 198.1l1.1.6c-.2-.4-.2-.7-.1-1.1.1-.3.4-.6.9-.9.4-.3.9-.4 1.5-.5s1.2-.1 1.9.1c-.1-.3-.2-.7-.1-1 .1-.4.4-.7.9-1 .4-.2.8-.4 1.2-.5s.9-.2 1.3-.2c.5 0 .9.1 1.4.2.5.1 1 .4 1.5.7l5.4 3.1-1.9 1.1-4.6-2.6c-.3-.2-.5-.3-.8-.4-.3-.1-.5-.2-.8-.3-.3-.1-.5-.1-.8 0-.3 0-.5.1-.8.3-.3.2-.4.3-.5.5 0 .2 0 .3.1.5s.3.3.5.5.4.3.7.5l4.5 2.6-1.9 1.1-4.5-2.6c-.2-.1-.5-.3-.7-.4-.2-.1-.5-.2-.8-.3-.3-.1-.5-.1-.8-.1-.3 0-.6.1-.9.3-.1.1-.2.1-.3.2-.1.1-.2.2-.2.4s.1.3.2.5.4.4.8.6l4.7 2.7-1.9 1.1-8.1-4.7 1.9-1zM222.9 189.2l-1.8-1.1 1.9-1.1 1.8 1.1-1.9 1.1zm3.2-.4l8.1 4.7-1.9 1.1-8.1-4.7 1.9-1.1zM229.4 186.9l1.1.6c-.2-.4-.3-.8-.1-1.1.2-.3.5-.6.9-.9.5-.3 1-.5 1.5-.6s1-.1 1.4-.1c.5.1 1 .2 1.4.4.5.2 1 .4 1.5.7l5 2.9-1.9 1.1-4.6-2.6c-.7-.4-1.3-.6-1.8-.7-.5-.1-1 0-1.5.3s-.7.6-.6 1c.1.3.6.8 1.4 1.2l4.2 2.4-1.9 1.1-8.1-4.7 2.1-1zM243.3 185.9c.3.1.5.1.8.1.2 0 .5-.1.7-.1l.6-.3c.1-.1.3-.2.4-.3.1-.1.2-.2.2-.3v-.4c0-.1-.2-.2-.4-.4-.3-.2-.8-.2-1.3-.1s-1.2.3-2.1.6c-.4.1-.7.2-1.1.3-.4.1-.7.2-1.1.2-.4 0-.7 0-1.1-.1-.4-.1-.7-.2-1.1-.4-.5-.3-.9-.6-1-.9-.2-.3-.2-.6-.1-.9.1-.3.3-.5.6-.8.3-.3.6-.5 1-.7l1.2-.6c.4-.2.9-.3 1.4-.3.5 0 1 0 1.5.1s1 .3 1.6.5l-1.8 1.1c-.5-.2-.9-.3-1.3-.3s-.8.2-1.1.4c-.1.1-.2.1-.3.2s-.2.2-.2.3c-.1.1-.1.2 0 .3 0 .1.1.2.3.3.2.1.4.2.7.2.3 0 .5 0 .8-.1l.9-.3c.3-.1.7-.2 1-.3.4-.1.7-.2 1.1-.3.4-.1.7-.2 1.1-.2s.8 0 1.1.1c.4.1.8.2 1.1.4.5.3.9.6 1.1.9.2.3.2.6.1.9-.1.3-.3.6-.6.9s-.6.5-1 .8c-.4.2-.8.4-1.3.6-.5.2-1 .3-1.5.3s-1.1 0-1.6-.1c-.6-.1-1.1-.3-1.7-.6l1.8-1.1c.1.2.3.3.6.4zM246.7 176.9l1.5.9-1.4.8 4 2.3c.4.2.7.3.9.3.2 0 .5-.1.8-.3.1-.1.2-.1.3-.2.1-.1.2-.1.2-.2l1.7 1c-.1.1-.3.2-.5.3l-.6.3c-.3.2-.6.3-.9.4-.3.1-.6.2-1 .2s-.7 0-1.1-.1c-.4-.1-.8-.2-1.2-.5l-4.8-2.7-1.2.7-1.5-.9 1.2-.7-2.4-1.4 1.9-1.1 2.4 1.4 1.7-.5zM250 177.9c-.5-.3-.8-.6-1-.9-.1-.3-.2-.6-.1-.9.1-.3.3-.6.6-.9.3-.3.6-.5 1-.7.4-.2.7-.4 1.2-.6.4-.2.9-.3 1.3-.4.5-.1.9-.1 1.4 0 .5.1 1 .2 1.5.5l4.2 2.4c.4.2.7.4 1.1.6.4.2.7.3.9.3l-1.9 1.1c-.2-.1-.3-.1-.5-.2s-.3-.1-.4-.2c.1.4 0 .7-.3 1.1-.3.3-.6.6-1.1.9-.3.2-.7.3-1.1.5-.4.1-.8.2-1.2.2-.4 0-.8 0-1.3-.1-.4-.1-.8-.3-1.3-.5-.5-.3-.8-.5-.9-.8-.2-.3-.2-.5-.2-.7 0-.2.2-.5.4-.7l.6-.6c.2-.2.5-.4.7-.6.2-.2.4-.3.6-.5.2-.2.2-.3.2-.5 0-.1-.1-.3-.3-.4-.2-.1-.5-.2-.7-.3s-.4-.1-.6 0c-.2 0-.4.1-.5.1-.2.1-.3.2-.5.3-.4.2-.6.4-.6.7 0 .2.2.5.6.8l-1.8 1zm6.1-1.7c0 .1 0 .2-.1.3l-.3.3c-.1.1-.2.2-.4.3-.1.1-.3.2-.4.3l-.3.3c-.1.1-.1.2-.2.3 0 .1 0 .2.1.3l.4.4c.2.1.4.2.6.2.2 0 .4.1.6 0 .2 0 .4-.1.5-.1.2-.1.3-.1.5-.2.4-.2.6-.4.7-.6.1-.2 0-.4-.1-.6-.1-.2-.2-.3-.4-.5-.2-.1-.3-.2-.5-.3l-.7-.4zM254.2 169l11.1 6.4-1.9 1.1-11.1-6.4 1.9-1.1zM257.7 167l11.1 6.4-1.9 1.1-11.1-6.4 1.9-1.1z"/></g></g><g id="multistage-04"><path fill="#bf534f" d="M653.5 192v-11.8h-293V192L507 276.6z"/><path fill="#ff6d68" d="M653.3 180.2L506.8 95.7l-146.5 84.5 146.5 84.6z"/><g fill="#933131"><path d="M440.1 207.2l21.5 6.8h.1l-12-12.2 6.5-3.7 24.1 13.9-4.3 2.5-17.1-9.9h-.1l12 12.8-3.5 2-22-6.8h-.1l16.9 9.8-4.3 2.5-24.1-13.9 6.4-3.8zM475.8 186.6l4.5 2.6-11 6.4 5.2 3 10.1-5.8 4.1 2.4-10.1 5.8 5.9 3.4 11.3-6.5 4.5 2.6-15.9 9.2-24.1-13.9 15.5-9.2zM490.4 178.1c.9-.5 2-.9 3.1-1.2 1.1-.2 2.2-.3 3.4-.3 1.1 0 2.3.2 3.3.5 1.1.3 2.1.7 3 1.2 1.4.8 2.4 1.7 2.9 2.6.5.9.5 1.8-.2 2.8h.1c.7-.2 1.5-.3 2.2-.3.7 0 1.5.1 2.2.2.7.2 1.5.4 2.2.7s1.4.6 2 .9c.4.2.9.5 1.4.7.5.3 1.1.6 1.7.9.6.3 1.2.5 1.8.8.6.2 1.2.4 1.7.4l-4.6 2.7c-1-.3-2.1-.7-3.2-1.3-1.1-.6-2.2-1.1-3.3-1.6-1.4-.6-2.7-1-3.8-1-1.1 0-2.2.3-3.4.9l-4.6 2.7 9.4 5.4-4.6 2.7-24.1-13.9 11.4-6.5zm9.3 7.3c1.1-.6 1.6-1.2 1.6-1.8 0-.6-.6-1.3-1.8-2-1.2-.7-2.3-1-3.3-1-1.1 0-2.1.3-3.2.9l-5 2.9 6.8 3.9 4.9-2.9zM536.6 179.1c-.5.9-1.3 1.6-2.3 2.2-1.6.9-3.4 1.6-5.3 1.9-1.9.4-3.9.5-5.9.3-2-.1-4-.5-6-1.1s-3.9-1.4-5.6-2.4c-1.8-1-3.2-2.1-4.3-3.3-1.1-1.2-1.7-2.3-2-3.5s-.1-2.3.5-3.4 1.7-2.1 3.3-3.1c1.1-.6 2.3-1.1 3.7-1.5 1.4-.4 2.8-.6 4.4-.6 1.5-.1 3.1.1 4.7.4 1.6.3 3.1.8 4.6 1.5L522 169c-1.6-.6-3.2-.9-4.6-.8-1.5.1-2.7.4-3.8 1.1-1 .6-1.7 1.2-1.9 1.9-.3.7-.2 1.4.1 2.1.3.7.9 1.4 1.7 2.1s1.7 1.3 2.8 2c1 .6 2.1 1.1 3.3 1.5 1.2.4 2.3.7 3.6.9 1.2.2 2.4.2 3.6 0 1.2-.2 2.3-.5 3.3-1.1 1.5-.9 2.3-1.8 2.2-2.8-.1-1-.9-2-2.4-3.1l-4.6 2.7-4-2.3 8.8-5.1 13 7.5-2.9 1.7-3.2-1.3c.1 1.3.1 2.3-.4 3.1zM538.1 150.6l4.5 2.6-11 6.4 5.2 3 10.1-5.8 4.1 2.4-10.1 5.8 5.9 3.4 11.3-6.5 4.5 2.6-15.9 9.2-24.1-13.9 15.5-9.2zM550.4 143.5c1.3-.8 2.8-1.4 4.5-1.7 1.7-.4 3.4-.5 5.2-.5 1.8.1 3.7.4 5.7 1s3.9 1.5 6 2.6c1.8 1 3.2 2.1 4.3 3.1 1.1 1.1 1.8 2.2 2.1 3.2.3 1.1.2 2.1-.4 3.2-.6 1-1.6 2-3.2 2.9l-9 5.2-24.1-13.9 8.9-5.1zm19.3 11.5c.7-.4 1.2-.8 1.6-1.3.4-.5.5-1.1.4-1.7-.1-.6-.4-1.3-1.1-2s-1.6-1.4-2.9-2.2c-1.2-.7-2.4-1.3-3.6-1.7-1.2-.4-2.4-.7-3.5-.9-1.2-.1-2.3-.1-3.5.1-1.1.2-2.3.7-3.4 1.3l-3.3 1.9 15.2 8.8 4.1-2.3z"/></g></g><g id="multistage-05"><path fill="#e0b03b" d="M653.5 182v-11.8h-293V182L507 266.6z"/><path fill="#ffc843" d="M653.3 170.2L506.8 85.7l-146.5 84.5 146.5 84.6z"/><g fill="#a58234"><path d="M445.6 186l4.7 2.7-11.6 6.7 5.4 3.1 10.6-6.1 4.3 2.5-10.6 6.1 6.2 3.6 11.8-6.8 4.7 2.7-16.7 9.6-25.4-14.6 16.6-9.5zM447.5 184.9l5.6-3.2 12.4 2.2-3.6-7.2 5.3-3.1 5.1 11.1 20.9 3.2-5.8 3.3-13.6-2.3 3.9 7.9-5.4 3.1-5.6-12.1-19.2-2.9zM479.6 166.4c1.4-.8 2.8-1.3 4.2-1.6 1.4-.3 2.8-.4 4.2-.3 1.4.1 2.7.3 3.9.7 1.2.4 2.4.9 3.4 1.5s1.9 1.2 2.6 2c.7.7 1.1 1.5 1.3 2.3.2.8 0 1.6-.5 2.4-.5.8-1.4 1.6-2.8 2.4l-5.1 2.9 9.1 5.2-4.8 2.8-25.4-14.6 9.9-5.7zm10.6 7.6c.6-.3 1-.7 1.5-1 .4-.3.7-.7.8-1.1s0-.8-.2-1.2c-.3-.4-.8-.9-1.6-1.3s-1.6-.8-2.3-.9c-.7-.2-1.4-.2-2.1-.1-.7.1-1.3.2-1.9.5-.6.2-1.2.5-1.7.8l-3.8 2.2 7.6 4.4 3.7-2.3zM497.5 164.7c-1.1-1.2-1.8-2.4-2.1-3.7-.3-1.2-.1-2.4.6-3.6.7-1.2 1.8-2.2 3.5-3.2s3.6-1.7 5.6-2c2-.4 4.1-.5 6.2-.3 2.1.2 4.3.6 6.4 1.2 2.1.7 4.1 1.5 6 2.6 1.8 1.1 3.3 2.2 4.4 3.4 1.1 1.2 1.8 2.4 2 3.6.3 1.2.1 2.4-.6 3.6-.7 1.2-1.8 2.2-3.5 3.2s-3.5 1.6-5.5 2c-2 .4-4.1.5-6.2.4-2.1-.2-4.2-.5-6.3-1.2-2.1-.6-4.1-1.5-5.9-2.6-2-1-3.5-2.2-4.6-3.4zm12.8 2.3c1.2.5 2.5.8 3.7 1 1.3.2 2.5.2 3.8.1 1.2-.2 2.4-.5 3.5-1.2 1.1-.6 1.8-1.3 2-2 .3-.7.2-1.4-.1-2.2-.3-.7-.9-1.5-1.7-2.2-.8-.7-1.7-1.4-2.8-2-1.1-.6-2.3-1.2-3.6-1.7-1.3-.5-2.5-.8-3.8-1-1.3-.2-2.6-.2-3.8-.1s-2.4.5-3.5 1.2c-1.1.6-1.8 1.3-2 2-.3.7-.2 1.4.1 2.2.3.7.9 1.5 1.8 2.2.8.7 1.8 1.4 2.9 2.1 1.1.6 2.2 1.1 3.5 1.6zM536.9 155.3c.9.2 1.7.3 2.5.2.8 0 1.6-.2 2.4-.4.8-.2 1.5-.5 2.1-.9.4-.2.9-.5 1.3-.9s.7-.7.9-1.1c.2-.4.2-.8.1-1.2-.1-.4-.5-.8-1.1-1.2-.7-.4-1.4-.6-2.2-.6-.8 0-1.7.1-2.6.2-.9.2-1.8.5-2.8.8-1 .3-2 .6-3.1 1-1.1.3-2.1.6-3.3.9s-2.3.4-3.4.4c-1.2 0-2.3-.1-3.5-.3-1.2-.3-2.4-.7-3.5-1.4-1.3-.8-2.2-1.5-2.7-2.4-.5-.8-.6-1.7-.5-2.5.1-.8.5-1.6 1.2-2.3.7-.7 1.5-1.4 2.5-2 1.1-.7 2.4-1.2 3.7-1.7 1.4-.4 2.8-.7 4.3-.8s3 0 4.5.3 3 .9 4.5 1.7l-4.7 2.7c-.8-.4-1.6-.7-2.3-.8-.7-.2-1.4-.2-2.1-.1-.7.1-1.3.2-1.9.4-.6.2-1.2.5-1.8.8-.4.2-.7.5-1 .8-.3.3-.5.6-.6.9-.1.3 0 .6.1 1 .1.3.5.6 1 1 .5.3 1 .5 1.5.6.5.1 1.1.1 1.8-.1.7-.1 1.7-.4 2.8-.7 1.1-.3 2.6-.8 4.3-1.4.5-.2 1.2-.4 2.2-.7 1-.3 2.1-.5 3.4-.6 1.3-.1 2.6 0 4 .2s2.9.7 4.3 1.6c1.2.7 2 1.4 2.6 2.2.6.8.9 1.6.8 2.5 0 .9-.4 1.7-1.2 2.6-.7.9-1.9 1.8-3.3 2.6-1.2.7-2.6 1.3-4 1.7-1.5.5-3 .7-4.6.8s-3.2-.1-4.9-.4c-1.6-.4-3.2-1-4.8-1.9l4.7-2.7c.7.7 1.5 1.1 2.4 1.2zM550.5 125.4l4.7 2.7-11.6 6.7 5.4 3.1 10.6-6.1 4.3 2.5-10.6 6.1 6.2 3.6 11.8-6.8 4.7 2.7-16.7 9.6-25.3-14.6 16.5-9.5z"/></g><g fill="#a58234"><path d="M547.8 207c.2-.1.4-.3.5-.5.1-.2.1-.4.1-.5-.1-.2-.2-.4-.6-.5-.5-.3-1-.4-1.5-.4s-1 .1-1.3.3c-.5.3-.7.6-.5 1 .1.4.5.7 1 1l-1.8 1.1c-.5-.3-1-.7-1.3-1-.3-.4-.5-.7-.5-1.1 0-.4 0-.7.2-1 .2-.3.6-.6 1.1-.9.4-.2.8-.4 1.3-.5.5-.1 1-.2 1.6-.3.6 0 1.1 0 1.7.1.6.1 1.1.3 1.6.6s.9.6 1.1 1 .1.7-.2 1c.7-.2 1.4-.3 2.1-.2s1.4.3 2.1.7c.6.3 1 .7 1.2 1 .3.4.4.7.3 1.1s-.2.7-.4 1c-.3.3-.6.6-1.1.9-.5.3-1.1.5-1.7.7-.6.1-1.2.2-1.9.2-.6 0-1.3-.1-1.9-.3-.7-.2-1.3-.5-1.9-.8l1.8-1.1c.3.2.6.3 1 .4.3.1.7.2 1 .2h1l.9-.3c.4-.2.6-.5.6-.9s-.3-.7-.8-1c-.4-.2-.8-.4-1.2-.4h-1l-.9.3c-.3.1-.5.3-.8.4l-1.6-.9c.3-.2.5-.3.7-.4zM550.5 203.5c-.5-.5-.9-1-1-1.4-.1-.4-.1-.8.2-1.2.2-.3.6-.7 1-.9.5-.3 1-.5 1.6-.6.6-.1 1.3-.2 2-.1.8.1 1.6.3 2.5.6.9.3 1.9.8 3 1.4 1.1.6 1.9 1.2 2.5 1.7.5.5.9 1 1 1.4.1.4.1.8-.2 1.2s-.6.7-1.1.9c-.5.3-1 .5-1.6.6s-1.3.2-2 .1c-.8-.1-1.6-.3-2.5-.6-.9-.3-1.9-.8-3-1.4-1.1-.6-1.9-1.2-2.4-1.7zm5.5 1.2c.5.2.9.5 1.4.6.5.2 1 .3 1.5.3s.9 0 1.3-.3c.4-.2.6-.5.5-.8-.1-.3-.3-.6-.6-.9-.3-.3-.7-.6-1.1-.8s-.8-.5-1.1-.7c-.2-.1-.4-.2-.7-.4-.3-.2-.6-.3-.9-.4-.3-.1-.6-.3-1-.4-.3-.1-.7-.2-1-.3-.3-.1-.7-.1-1 0-.3 0-.6.1-.9.3-.3.2-.4.3-.5.5s0 .4.1.6c.1.2.3.4.5.6.2.2.4.4.7.6.3.2.5.3.8.5.3.2.5.3.7.4.4.2.8.4 1.3.6zM558 199.2c-.5-.5-.9-1-1-1.4-.1-.4-.1-.8.2-1.2s.6-.7 1-.9c.5-.3 1-.5 1.6-.6s1.3-.2 2-.1c.8.1 1.6.3 2.5.6.9.3 1.9.8 3 1.4 1.1.6 1.9 1.2 2.5 1.7.5.5.9 1 1 1.4s.1.8-.2 1.2c-.2.3-.6.7-1.1.9-.5.3-1 .5-1.6.6-.6.1-1.3.2-2 .1-.8-.1-1.6-.3-2.5-.6-.9-.3-1.9-.8-3-1.4-1.1-.7-1.9-1.2-2.4-1.7zm5.5 1.2c.5.2.9.5 1.4.6.5.2 1 .3 1.5.3s.9 0 1.3-.3c.4-.2.6-.5.5-.8-.1-.3-.3-.6-.6-.9s-.7-.6-1.1-.8c-.4-.3-.8-.5-1.1-.7-.2-.1-.4-.2-.7-.4-.3-.2-.6-.3-.9-.4-.3-.1-.6-.3-1-.4-.3-.1-.7-.2-1-.3-.3-.1-.7-.1-1 0-.3 0-.6.1-.9.3-.3.2-.4.3-.5.5 0 .2 0 .4.1.6.1.2.3.4.5.6.2.2.4.4.7.6.3.2.5.3.8.5.3.2.5.3.7.4.4.1.8.3 1.3.6zM565.5 194.8c-.5-.5-.9-1-1-1.4-.1-.4-.1-.8.2-1.2.2-.3.6-.7 1-.9.5-.3 1-.5 1.6-.6.6-.1 1.3-.2 2-.1s1.6.3 2.5.6c.9.3 1.9.8 3 1.4 1.1.6 1.9 1.2 2.5 1.7.5.5.9 1 1 1.4s.1.8-.2 1.2c-.2.3-.6.7-1.1.9-.5.3-1 .5-1.6.6s-1.3.2-2 .1c-.8-.1-1.6-.3-2.5-.6-.9-.3-1.9-.8-3-1.4-1.1-.6-1.9-1.2-2.4-1.7zm5.5 1.3c.5.2.9.5 1.4.6.5.2 1 .3 1.5.3s.9 0 1.3-.3c.4-.2.6-.5.5-.8-.1-.3-.3-.6-.6-.9-.3-.3-.7-.6-1.1-.8s-.8-.5-1.1-.7c-.2-.1-.4-.2-.7-.4-.3-.2-.6-.3-.9-.4-.3-.1-.6-.3-1-.4-.3-.1-.7-.2-1-.3-.3-.1-.7-.1-1 0-.3 0-.6.1-.9.3-.3.2-.4.3-.5.5s0 .4.1.6c.1.2.3.4.5.6.2.2.4.4.7.6.3.2.5.3.8.5.3.2.5.3.7.4.4.1.8.3 1.3.6z"/></g></g><g id="multistage-06"><path fill="#e0b03b" d="M653.5 172v-11.8h-293V172L507 256.6z"/><path fill="#ffc843" d="M653.3 160.2L506.8 75.7l-146.5 84.5 146.5 84.6z"/><g fill="#a58234"><path d="M470.6 167.8c-1.1-.2-2.2-.3-3.4-.3-1.1 0-2.2.2-3.3.4-1 .2-2 .6-2.8 1.1-1.5.9-2.4 1.8-2.8 2.7-.4 1-.3 2 .1 3 .5 1 1.3 2 2.4 3 1.1 1 2.4 1.9 3.9 2.8 1.4.8 3 1.6 4.7 2.2s3.4 1.1 5.1 1.3c1.7.3 3.4.3 5.1.1 1.7-.2 3.3-.7 4.7-1.6 2-1.2 2.9-2.5 2.6-3.9s-1.5-2.9-3.5-4.4l6.3-3.7c2 1.3 3.5 2.7 4.5 4.1s1.6 2.8 1.7 4.2c.1 1.4-.3 2.7-1.2 3.9-.9 1.3-2.2 2.4-4.1 3.5-2.3 1.3-4.8 2.2-7.5 2.8-2.7.5-5.5.7-8.4.5-2.9-.2-5.7-.7-8.5-1.6-2.8-.9-5.5-2-8-3.5-2.6-1.5-4.6-3.1-6.2-4.7-1.5-1.7-2.5-3.3-2.9-5-.4-1.7-.1-3.3.8-4.9.9-1.6 2.5-3 4.8-4.4 1.6-.9 3.5-1.7 5.5-2.2 2-.5 4.1-.8 6.3-.9 2.2-.1 4.4.1 6.7.6s4.5 1.2 6.7 2.2l-6.3 3.7c-.8-.5-1.9-.8-3-1zM482.5 150.4l30.6 9.6h.1l-17.1-17.5 9.2-5.3 34.4 19.9-6.1 3.5-24.4-14.1h-.1l17.1 18.3-5.1 2.9-31.5-9.7h-.1l24.2 13.9-6.1 3.5-34.4-19.9 9.3-5.1zM524 126.4c1.9-1.1 4.1-1.9 6.4-2.5 2.4-.5 4.9-.8 7.5-.6s5.3.6 8.1 1.4c2.8.8 5.6 2.1 8.5 3.7 2.5 1.4 4.5 2.9 6.1 4.5 1.6 1.5 2.6 3.1 3 4.6.4 1.5.2 3.1-.6 4.5-.8 1.5-2.3 2.9-4.6 4.2l-12.9 7.4-34.4-19.9 12.9-7.3zm27.6 16.5c.9-.5 1.7-1.2 2.2-1.9.5-.7.7-1.5.6-2.4-.1-.9-.6-1.8-1.5-2.8-.9-1-2.3-2-4.2-3.1-1.7-1-3.4-1.8-5.1-2.5-1.7-.6-3.4-1.1-5-1.2-1.7-.2-3.3-.1-4.9.2-1.6.3-3.3 1-4.9 1.9l-4.7 2.7 21.7 12.5 5.8-3.4z"/></g><g fill="#a58234"><path d="M526.8 201.8l-1.8-1.1 1.9-1.1 1.8 1.1-1.9 1.1zm3.1-.4l8.1 4.7-1.9 1.1-8.1-4.7 1.9-1.1zM533.3 199.4l1.1.6c-.2-.4-.2-.8-.1-1.1.2-.3.5-.6.9-.9.5-.3 1-.5 1.5-.6.5-.1 1-.1 1.4-.1.5.1 1 .2 1.4.4.5.2 1 .4 1.5.7l5 2.9-1.9 1.1-4.6-2.6c-.7-.4-1.3-.6-1.8-.7-.5-.1-1 0-1.5.3s-.7.6-.6 1c.1.3.6.8 1.4 1.2l4.2 2.4-1.9 1.1-8.1-4.7 2.1-1zM551.4 197.1c.2.4.2.7.1 1.1-.2.3-.5.6-.9.9-.5.3-1.1.5-1.7.6-.6.1-1.3.1-1.9 0-.7-.1-1.3-.2-2-.5-.7-.2-1.3-.5-1.8-.8-.5-.3-1-.7-1.4-1-.4-.4-.6-.7-.8-1.1-.1-.4-.1-.7 0-1.1.2-.4.5-.7 1-1a5.27 5.27 0 0 1 3.3-.5l-4.1-2.3 1.9-1.1 11.1 6.4-1.8 1.1-1-.7zm-4-2.3c-.4-.1-.7-.2-1.1-.3-.4-.1-.7-.1-1.1 0-.4 0-.7.1-1 .3-.3.2-.5.4-.6.6s-.1.4.1.6c.1.2.3.4.5.6.2.2.5.4.9.6.3.2.7.3 1 .5s.8.2 1.1.3c.4.1.8.1 1.1 0 .4 0 .7-.1 1-.3.3-.2.5-.4.6-.6.1-.2 0-.4-.1-.6-.1-.2-.3-.4-.6-.6l-.9-.6c-.2-.2-.6-.3-.9-.5zM555.9 193.5c.6 0 1.2-.1 1.7-.4.4-.2.6-.5.7-.8.1-.3 0-.5-.2-.7l1.7-1c.7.7 1 1.4.8 1.9-.1.6-.6 1.1-1.4 1.5-.5.3-1.1.5-1.8.7s-1.3.2-2 .1c-.7 0-1.4-.2-2-.4-.7-.2-1.3-.5-2-.8-.6-.3-1.1-.7-1.4-1.1-.3-.4-.6-.8-.6-1.2-.1-.4 0-.8.2-1.2.2-.4.6-.7 1.1-1 .6-.3 1.2-.6 2-.7.7-.1 1.4-.1 2.2 0s1.4.3 2.1.5c.7.3 1.3.6 1.9 1l-5 2.9c.7.4 1.4.6 2 .7zm-2.1-3.7c-.5 0-1 .1-1.5.4-.3.2-.5.4-.6.5-.1.2-.1.4 0 .5.1.2.2.3.3.5l.4.4 3.1-1.8c-.6-.3-1.2-.5-1.7-.5zM554.9 186.9l2.2-1.3 3.3.5-.9-1.9 2.1-1.2 1.5 3.5 6.9 1-2.2 1.3-4-.6 1.1 2.3-2.1 1.2-1.7-3.9-6.2-.9zM570.6 184.4l2.4 1.4-2.1 1.2-2.4-1.4 2.1-1.2zM565.4 179.5l-1.8-1.1 1.9-1.1 1.8 1.1-1.9 1.1zm9.5 6.3c.2-.1.3-.2.4-.4.1-.1-.1-.3-.4-.5l-8.3-4.8 1.9-1.1 8.4 4.9c.4.2.7.5 1 .7.2.2.3.4.4.7 0 .2-.1.5-.3.7s-.6.5-1.1.8c-.2.1-.4.2-.7.3l-1.8-1.1c.2 0 .4-.1.5-.2zM577.9 180.7c.3 0 .5.1.8.1.2 0 .5-.1.7-.1l.6-.3c.1-.1.3-.2.4-.3.1-.1.2-.2.2-.3v-.4c0-.1-.2-.2-.4-.4-.3-.2-.8-.2-1.3-.1s-1.2.3-2.1.6c-.4.1-.7.2-1.1.3-.4.1-.7.2-1.1.2s-.7 0-1.1-.1c-.4-.1-.7-.2-1.1-.4-.5-.3-.9-.6-1-.9-.2-.3-.2-.6-.1-.9.1-.3.3-.5.6-.8.3-.3.6-.5 1-.7l1.2-.6c.4-.2.9-.3 1.4-.3.5 0 1 0 1.5.1s1 .3 1.6.5l-1.8 1.1c-.5-.2-.9-.3-1.3-.3s-.8.2-1.1.4c-.1.1-.2.1-.3.2-.1.1-.2.2-.2.3-.1.1-.1.2 0 .3 0 .1.1.2.3.3.2.1.4.2.7.2s.5 0 .8-.1l.9-.3c.3-.1.7-.2 1-.3.4-.1.7-.2 1.1-.3.4-.1.7-.2 1.1-.2.4 0 .8 0 1.1.1.4.1.8.2 1.1.4.5.3.9.6 1.1.9s.2.6.1.9c-.1.3-.3.6-.6.9s-.6.5-1 .8c-.4.2-.8.4-1.3.6-.5.2-1 .3-1.5.3s-1.1 0-1.6-.1c-.6-.1-1.1-.3-1.7-.6l1.8-1.1c.1.2.3.3.6.4z"/></g></g><g fill="#333"><path d="M137 45V32.2h4.3c1.4 0 2.5.3 3.3.9s1.2 1.5 1.2 2.6c0 .6-.2 1.1-.5 1.6s-.8.8-1.4 1c.8.2 1.3.5 1.8 1.1s.6 1.2.6 2c0 1.2-.4 2.1-1.2 2.7s-1.9.9-3.3.9H137zm2.1-7.4h2.4c.7 0 1.2-.2 1.6-.5s.6-.8.6-1.3c0-.6-.2-1.1-.6-1.4s-1-.5-1.8-.5h-2.1v3.7zm0 1.6v4.1h2.7c.7 0 1.3-.2 1.7-.5.4-.3.6-.8.6-1.5s-.2-1.2-.5-1.6c-.3-.4-.9-.6-1.6-.6h-2.9zM154.1 43.6c-.3.5-.7.9-1.1 1.2s-1 .4-1.6.4c-1 0-1.8-.3-2.4-1s-.9-1.7-.9-3v-5.7h2.1v5.7c0 .8.1 1.4.4 1.7s.7.5 1.2.5.9-.1 1.3-.3.6-.5.8-.8v-6.9h2.1V45h-1.9v-1.4zM160.7 33.2h-2.1v-1.9h2.1v1.9zm0 11.8h-2.1v-9.5h2.1V45zM165.4 45h-2.1V31.3h2.1V45zM167.4 40.4c0-1.5.3-2.7 1-3.7s1.6-1.4 2.7-1.4c.5 0 1 .1 1.4.3s.8.5 1.1.9v-5.2h2.1V45h-1.8l-.2-1.2c-.3.4-.7.8-1.1 1s-.9.3-1.5.3c-1.2 0-2.1-.4-2.7-1.3s-1-2-1-3.3v-.1zm2.1.2c0 .9.2 1.6.5 2.1s.9.8 1.6.8c.5 0 .8-.1 1.1-.3s.6-.5.8-.8v-4.1c-.2-.4-.5-.6-.8-.8s-.7-.3-1.1-.3c-.7 0-1.3.3-1.6.9s-.5 1.4-.5 2.4v.1zM187.8 42.4c0-.3-.1-.6-.4-.8s-.8-.4-1.6-.6c-1.1-.2-2-.6-2.6-1s-.9-1-.9-1.8.3-1.5 1-2 1.6-.8 2.7-.8c1.2 0 2.1.3 2.8.9s1 1.3 1 2.1v.1h-2c0-.4-.1-.7-.4-1s-.7-.4-1.2-.4-.9.1-1.2.3-.4.5-.4.8.1.6.4.8.8.4 1.6.5c1.2.2 2.1.6 2.7 1s.9 1.1.9 1.8c0 .9-.4 1.5-1.1 2.1s-1.6.8-2.8.8c-1.2 0-2.2-.3-2.9-.9s-1.1-1.4-1-2.2V42h2c0 .6.2 1 .6 1.2s.8.4 1.4.4c.6 0 1-.1 1.3-.3s.1-.5.1-.9zM194.4 33.2v2.3h1.7v1.6h-1.7v5.3c0 .4.1.7.3.8s.4.3.7.3h.3c.1 0 .2 0 .3-.1l.2 1.6c-.2.1-.4.2-.7.2s-.5.1-.8.1c-.8 0-1.4-.2-1.8-.7s-.7-1.2-.7-2.2v-5.3h-1.5v-1.6h1.5v-2.3h2.2zM203.8 45c-.1-.2-.1-.5-.2-.7s-.1-.5-.1-.7c-.3.4-.7.8-1.2 1.1s-1 .5-1.6.5c-1 0-1.8-.3-2.3-.8s-.8-1.2-.8-2.1c0-.9.4-1.6 1.1-2.1s1.7-.8 3.1-.8h1.7v-.8c0-.5-.1-.9-.4-1.2s-.7-.4-1.3-.4c-.5 0-.9.1-1.2.4s-.4.5-.4.9h-2.1v-.1c0-.8.3-1.4 1-2s1.6-.9 2.8-.9c1.1 0 2 .3 2.7.8s1 1.4 1 2.4v4.2c0 .4 0 .8.1 1.1s.1.7.3 1.1h-2.2zm-2.7-1.5c.5 0 1-.1 1.5-.4s.7-.6.9-.9v-1.4h-1.7c-.6 0-1.1.2-1.5.5s-.5.7-.5 1.1c0 .4.1.7.4.9s.5.2.9.2zM207.5 40.4c0-1.5.3-2.7 1-3.7s1.6-1.4 2.8-1.4c.6 0 1.1.1 1.5.4s.8.6 1.1 1.1l.2-1.2h1.8V45c0 1.2-.4 2.2-1.1 2.8s-1.8 1-3.2 1c-.5 0-1-.1-1.5-.2s-1-.3-1.5-.5l.5-1.7c.4.2.7.3 1.2.4s.9.2 1.3.2c.8 0 1.3-.2 1.7-.5s.5-.8.5-1.5v-1c-.3.4-.7.7-1.1.9s-.9.3-1.4.3c-1.2 0-2.1-.4-2.7-1.3s-1-2-1-3.3v-.2zm2.1.2c0 .9.2 1.6.5 2.1s.9.8 1.6.8c.5 0 .8-.1 1.2-.3s.6-.5.8-.8v-4.2c-.2-.3-.5-.6-.8-.8s-.7-.3-1.1-.3c-.7 0-1.3.3-1.6.9s-.5 1.4-.5 2.4v.2zM222.1 45.2c-1.3 0-2.4-.4-3.2-1.3s-1.2-2-1.2-3.4v-.4c0-1.4.4-2.5 1.2-3.4s1.8-1.4 3-1.4c1.3 0 2.3.4 2.9 1.2s1 1.8 1 3.1v1.3h-5.9c0 .8.3 1.4.7 1.8s1 .7 1.7.7c.6 0 1.1-.1 1.5-.2s.8-.3 1.2-.6l.7 1.4c-.4.3-.8.6-1.4.8s-1.4.4-2.2.4zm-.2-8.2c-.5 0-1 .2-1.3.6s-.6 1-.6 1.6h3.8V39c0-.6-.2-1.1-.5-1.5s-.8-.5-1.4-.5z"/></g><g fill="#333"><path d="M471.5 39.5h-5.6V45h-2.1V32.2h8.6v1.7h-6.5v3.9h5.6v1.7zM476.2 33.2H474v-1.9h2.1v1.9zm0 11.8H474v-9.5h2.1V45zM480.5 35.5l.1 1.4c.3-.5.7-.9 1.2-1.1s1-.4 1.6-.4c1 0 1.8.3 2.3.9s.8 1.5.8 2.8v6h-2.1v-6c0-.7-.1-1.2-.4-1.5s-.7-.5-1.3-.5c-.4 0-.8.1-1.1.3s-.6.4-.8.8V45h-2.1v-9.5h1.8zM494.5 45c-.1-.2-.1-.5-.2-.7s-.1-.5-.1-.7c-.3.4-.7.8-1.2 1.1s-1 .5-1.6.5c-1 0-1.8-.3-2.3-.8s-.8-1.2-.8-2.1c0-.9.4-1.6 1.1-2.1s1.8-.8 3.1-.8h1.7v-.8c0-.5-.1-.9-.4-1.2s-.8-.4-1.3-.4-.9.1-1.2.4-.4.5-.4.9h-2.1v-.1c0-.8.3-1.4 1-2s1.6-.9 2.8-.9c1.1 0 2 .3 2.7.8s1 1.4 1 2.4v4.2c0 .4 0 .8.1 1.1s.1.7.3 1.1h-2.2zm-2.7-1.5c.5 0 1-.1 1.5-.4s.7-.6.9-.9v-1.4h-1.7c-.6 0-1.1.2-1.5.5s-.5.7-.5 1.1c0 .4.1.7.4.9s.5.2.9.2zM500.8 45h-2.1V31.3h2.1V45zM513 42.4c0-.3-.1-.6-.4-.8s-.8-.4-1.6-.6c-1.1-.2-2-.6-2.6-1s-.9-1-.9-1.8.3-1.5 1-2 1.6-.8 2.7-.8c1.2 0 2.1.3 2.8.9s1 1.3 1 2.1v.1h-2c0-.4-.1-.7-.4-1s-.7-.4-1.2-.4-.9.1-1.2.3-.4.5-.4.8.1.6.4.8.8.4 1.6.5c1.2.2 2.1.6 2.7 1s.9 1.1.9 1.8c0 .9-.4 1.5-1.1 2.1s-1.6.8-2.8.8c-1.2 0-2.2-.3-2.9-.9s-1.1-1.4-1-2.2V42h2c0 .6.2 1 .6 1.2s.8.4 1.4.4c.6 0 1-.1 1.3-.3s.1-.5.1-.9zM519.7 33.2v2.3h1.7v1.6h-1.7v5.3c0 .4.1.7.3.8s.4.3.7.3h.3c.1 0 .2 0 .3-.1l.2 1.6c-.2.1-.4.2-.7.2s-.5.1-.8.1c-.8 0-1.4-.2-1.8-.7s-.7-1.2-.7-2.2v-5.3h-1.4v-1.6h1.4v-2.3h2.2zM529 45c-.1-.2-.1-.5-.2-.7s-.1-.5-.1-.7c-.3.4-.7.8-1.2 1.1s-1 .5-1.6.5c-1 0-1.8-.3-2.3-.8s-.8-1.2-.8-2.1c0-.9.4-1.6 1.1-2.1s1.8-.8 3.1-.8h1.7v-.8c0-.5-.1-.9-.4-1.2s-.7-.4-1.3-.4c-.5 0-.9.1-1.2.4s-.4.5-.4.9h-2.1v-.1c0-.8.3-1.4 1-2s1.6-.9 2.8-.9c1.1 0 2 .3 2.7.8s1 1.4 1 2.4v4.2c0 .4 0 .8.1 1.1s.1.7.3 1.1H529zm-2.6-1.5c.5 0 1-.1 1.5-.4s.7-.6.9-.9v-1.4H527c-.6 0-1.1.2-1.5.5s-.5.7-.5 1.1c0 .4.1.7.4.9s.6.2 1 .2zM532.7 40.4c0-1.5.3-2.7 1-3.7s1.6-1.4 2.8-1.4c.6 0 1.1.1 1.5.4s.8.6 1.1 1.1l.2-1.2h1.8V45c0 1.2-.4 2.2-1.1 2.8s-1.8 1-3.2 1c-.5 0-1-.1-1.5-.2s-1-.3-1.5-.5l.5-1.7c.4.2.7.3 1.2.4s.9.2 1.3.2c.8 0 1.3-.2 1.7-.5s.5-.8.5-1.5v-1c-.3.4-.7.7-1.1.9s-.9.3-1.4.3c-1.2 0-2.1-.4-2.7-1.3s-1-2-1-3.3v-.2zm2.1.2c0 .9.2 1.6.5 2.1s.9.8 1.6.8c.5 0 .8-.1 1.2-.3s.6-.5.8-.8v-4.2c-.2-.3-.5-.6-.8-.8s-.7-.3-1.1-.3c-.7 0-1.3.3-1.6.9s-.5 1.4-.5 2.4v.2zM547.4 45.2c-1.3 0-2.4-.4-3.2-1.3s-1.2-2-1.2-3.4v-.4c0-1.4.4-2.5 1.2-3.4s1.8-1.4 3-1.4c1.3 0 2.3.4 2.9 1.2s1 1.8 1 3.1v1.3h-5.9c0 .8.3 1.4.7 1.8s1 .7 1.7.7c.6 0 1.1-.1 1.5-.2s.8-.3 1.2-.6l.7 1.4c-.4.3-.8.6-1.4.8s-1.5.4-2.2.4zm-.3-8.2c-.5 0-1 .2-1.3.6s-.6 1-.6 1.6h3.8V39c0-.6-.2-1.1-.5-1.5s-.8-.5-1.4-.5z"/></g></svg>