<?xml version="1.0" encoding="UTF-8" standalone="no"?>
<!DOCTYPE svg PUBLIC "-//W3C//DTD SVG 1.1//EN" "http://www.w3.org/Graphics/SVG/1.1/DTD/svg11.dtd">
<svg width="100%" height="100%" viewBox="0 0 801 601" version="1.1" xmlns="http://www.w3.org/2000/svg" xmlns:xlink="http://www.w3.org/1999/xlink" xml:space="preserve" xmlns:serif="http://www.serif.com/" style="fill-rule:evenodd;clip-rule:evenodd;stroke-linecap:round;stroke-linejoin:round;stroke-miterlimit:1.5;">
    <g transform="matrix(1,0,0,1,-958,-1308)">
        <g id="SmallerDockerImages-v2" serif:id="SmallerDockerImages v2" transform="matrix(1,0,0,1,958.943,1308.73)">
            <rect x="0" y="0" width="800" height="600" style="fill:white;"/>
            <g transform="matrix(0.76984,0,0,0.76984,69.9169,-493.103)">
                <circle cx="426.324" cy="1030.75" r="351.036" style="fill:rgb(144,203,255);fill-opacity:0.1;"/>
            </g>
            <g transform="matrix(0.611411,0,0,0.611411,137.459,-329.802)">
                <circle cx="426.324" cy="1030.75" r="351.036" style="fill:rgb(144,203,255);fill-opacity:0.2;"/>
            </g>
            <g transform="matrix(0.383253,0,0,0.383253,234.729,-94.6266)">
                <circle cx="426.324" cy="1030.75" r="351.036" style="fill:rgb(144,203,255);fill-opacity:0.2;"/>
            </g>
            <g transform="matrix(0.891993,0.118021,-0.118021,0.891993,98.8216,-54.0083)">
                <g transform="matrix(1,0,0,1,-989.459,-647.736)">
                    <path d="M1263.94,906.436C1314.19,873.142 1369.85,854.182 1393.81,819.179L1420.39,896.177C1403.42,886.809 1385.95,882.915 1367.49,889.659C1355.07,907.335 1339.25,918.653 1319.27,922.159L1324,949.403C1324,949.403 1328.1,953.437 1333,958.256C1342.64,967.747 1344.81,982.488 1338.3,994.352C1337.63,995.585 1337.21,996.341 1337.21,996.341C1337.21,996.341 1313.06,988.272 1298.41,983.378C1291.53,981.078 1286.15,975.638 1283.93,968.728C1277.37,948.277 1263.94,906.436 1263.94,906.436Z" style="fill:rgb(66,135,239);stroke:rgb(0,66,166);stroke-width:4.45px;"/>
                </g>
                <g transform="matrix(1,0,0,1,-958.943,-641.712)">
                    <path d="M1364.47,816.56L1389.87,890.153C1372.9,880.785 1355.43,876.891 1336.97,883.635C1324.55,901.312 1308.73,912.629 1288.75,916.135L1293.49,943.38C1293.49,943.38 1298.53,948.345 1304.12,953.84C1312.79,962.379 1314.74,975.643 1308.89,986.318L1306.7,990.317C1309.59,973.407 1298.56,961.294 1277.6,952.604C1273.45,950.872 1270.48,947.144 1269.7,942.716C1268.3,934.842 1266.14,922.441 1264.82,914.798C1264.08,910.561 1265.45,906.23 1268.5,903.194C1278.24,893.485 1299.23,872.569 1299.23,872.569L1364.47,816.56Z" style="fill:rgb(53,121,225);"/>
                </g>
                <g transform="matrix(1,0,0,1,-989.459,-647.736)">
                    <path d="M1263.94,906.436C1314.19,873.142 1369.85,854.182 1393.81,819.179L1420.39,896.177C1403.42,886.809 1385.95,882.915 1367.49,889.659C1355.07,907.335 1339.25,918.653 1319.27,922.159L1324,949.403C1324,949.403 1328.1,953.437 1333,958.256C1342.64,967.747 1344.81,982.488 1338.3,994.352C1337.63,995.585 1337.21,996.341 1337.21,996.341C1337.21,996.341 1313.06,988.272 1298.41,983.378C1291.53,981.078 1286.15,975.638 1283.93,968.728C1277.37,948.277 1263.94,906.436 1263.94,906.436Z" style="fill:none;stroke:rgb(0,66,166);stroke-width:4.45px;"/>
                </g>
                <g transform="matrix(0.843353,0,0,0.843353,-782.484,-495.061)">
                    <path d="M1303.06,981.251L1318.75,978.649L1337.95,987.256" style="fill:none;stroke:rgb(0,66,166);stroke-width:5.27px;"/>
                </g>
                <g transform="matrix(0.958888,0.0761786,-0.0737656,0.928514,-882.256,-701.083)">
                    <path d="M1351.67,828.806L1239.38,933.419L1252.64,1031.31C1244.44,1038.16 1233.6,1041.8 1222.19,1040.63C1222.19,1040.63 1222.19,1040.63 1222.19,1040.63L1211.74,982.504C1211.74,982.504 1211.74,932.909 1211.74,901.406C1211.74,885.274 1217.46,868.106 1230.95,859.388C1271.66,833.087 1375.12,743.306 1375.12,743.306" style="fill:rgb(123,185,251);stroke:rgb(0,66,166);stroke-width:7.04px;"/>
                </g>
                <g transform="matrix(1,0,0,1,-989.459,-647.736)">
                    <path d="M1758.47,886.674C1866.22,1034.59 1748.48,1149.42 1665.29,1067.55C1665.29,1067.55 1650.5,1034.42 1637.33,1004.94C1627.72,983.408 1603.63,972.341 1581.03,979.075C1571.66,981.919 1562.19,983.085 1552.6,982.454C1530.37,981.055 1508.4,987.973 1490.99,1001.87C1465.05,1022.46 1431.33,1049.34 1418.04,1059.94C1414.25,1062.96 1409.93,1065.26 1405.3,1066.71C1386.48,1072.62 1334.5,1088.92 1308.54,1097.07C1304.66,1098.29 1300.45,1097.81 1296.94,1095.76C1293.43,1093.7 1290.95,1090.26 1290.11,1086.28C1290.11,1086.28 1290.11,1086.28 1290.11,1086.28C1284.08,1057.63 1302.25,1029.46 1330.85,1023.16C1334.86,1022.38 1339.14,1021.59 1343.75,1020.86C1351.52,1019.6 1358.39,1015.11 1362.65,1008.5C1366.65,1002.34 1371.43,994.93 1374.34,990.422C1376.11,987.687 1378.17,985.159 1380.5,982.885C1387.7,975.857 1404.55,959.405 1417.31,946.945C1426.75,937.731 1428.17,923.056 1420.68,912.2C1408.71,894.957 1395.44,874.933 1386.88,840.347C1363.07,861.445 1295.81,897.664 1266.87,915.565C1265.03,945.813 1267.38,978.029 1264.81,1007.68C1263.98,1017.43 1259.27,1026.44 1251.74,1032.68C1244.2,1038.92 1234.47,1041.88 1224.74,1040.88C1224.74,1040.89 1224.74,1040.89 1224.74,1040.89C1223.23,1040.74 1222,1039.6 1221.73,1038.1C1219.72,1026.93 1211.74,982.504 1211.74,982.504C1211.74,982.504 1211.74,935.788 1211.74,904.236C1211.74,886.307 1219.53,869.263 1233.09,857.537C1268.5,826.926 1335.48,769.007 1335.48,769.007C1335.48,769.007 1335.48,769.006 1335.49,769.006C1354.04,743.534 1384.6,729.665 1415.99,732.473C1464.36,736.799 1536.44,743.245 1581.72,747.294C1608.82,749.719 1634.2,761.632 1653.39,780.936L1758.47,886.674Z" style="fill:rgb(144,203,255);"/>
                </g>
                <g transform="matrix(1,0,0,1,-958.943,-641.712)">
                    <path d="M1304.97,762.983C1304.97,762.983 1274.13,810.493 1253.29,826.065C1232.44,841.637 1186.55,866.348 1181.22,896.534L1181.22,895.382C1181.22,879.25 1188.23,863.915 1200.44,853.364L1304.97,762.983Z" style="fill:rgb(188,224,255);"/>
                </g>
                <g transform="matrix(1,0,0,1,-989.459,-647.736)">
                    <path d="M1213.93,994.686L1218.06,989.7C1218.06,989.7 1221.8,992.321 1226.21,995.408C1234.89,1001.49 1239.73,1011.7 1238.94,1022.27C1238.29,1031.01 1237.63,1039.83 1237.63,1039.83C1233.39,1040.95 1228.94,1041.32 1224.49,1040.86C1224.49,1040.87 1224.49,1040.87 1224.49,1040.87C1223.13,1040.72 1222.02,1039.7 1221.78,1038.35L1213.93,994.686Z" style="fill:rgb(188,224,255);"/>
                </g>
                <g transform="matrix(1,0,0,1,-989.459,-647.736)">
                    <path d="M1218.06,989.7C1218.06,989.7 1221.8,992.321 1226.21,995.408C1234.89,1001.49 1239.73,1011.7 1238.94,1022.27C1238.62,1026.68 1238.35,1030.21 1238.35,1030.21" style="fill:none;stroke:rgb(0,66,166);stroke-width:4.45px;"/>
                </g>
                <g transform="matrix(1,0,0,1,-989.459,-647.736)">
                    <path d="M1413.63,1063.06C1423.11,1052.68 1480.54,989.852 1493.23,977.291C1507.05,963.616 1636,898.885 1641.71,1017.44L1641.74,1018.14C1641.74,1018.14 1638.85,1011.27 1635.05,1002.25C1626.53,981.994 1603.89,971.653 1583,978.465C1572.47,981.914 1561.82,983.267 1551.02,982.333C1530.42,980.569 1509.93,986.77 1493.76,999.66C1467.13,1020.79 1430.79,1049.77 1417.47,1060.4C1416.25,1061.37 1414.97,1062.26 1413.63,1063.06Z" style="fill:rgb(74,142,241);fill-opacity:0.3;"/>
                </g>
                <g transform="matrix(0.908069,0,0,0.908069,-871.047,-546.79)">
                    <path d="M1288.68,1063.7L1290.06,1063.56C1290.06,1063.56 1308.25,1055.21 1319.54,1050.03C1327.78,1046.25 1337.38,1046.88 1345.05,1051.72C1355.55,1058.35 1357.8,1069.13 1354.86,1082.54L1307.35,1097.44C1303.78,1098.56 1299.89,1098.12 1296.66,1096.23C1293.42,1094.34 1291.14,1091.16 1290.37,1087.5C1289.96,1085.58 1289.54,1083.56 1289.1,1081.47C1287.83,1075.45 1287.74,1069.44 1288.68,1063.7Z" style="fill:rgb(188,224,255);"/>
                </g>
                <g transform="matrix(0.908069,0,0,0.908069,-871.047,-546.79)">
                    <path d="M1297.64,1060.08C1297.64,1060.08 1310.87,1054.01 1319.95,1049.84C1326.75,1046.73 1334.51,1046.49 1341.48,1049.18C1351.39,1052.87 1355.45,1058.48 1355.64,1068.16" style="fill:none;stroke:rgb(0,66,166);stroke-width:4.9px;"/>
                </g>
                <g transform="matrix(1,0,0,1,-989.459,-647.736)">
                    <path d="M1239.71,1039.22C1241.67,1037 1244,1034.64 1246.74,1032.13C1273.28,1007.87 1227.93,905.763 1255.96,898.544C1276.82,893.173 1349.59,841.921 1379.06,820.763C1381.7,818.92 1385.05,818.43 1388.11,819.441C1391.17,820.453 1393.57,822.848 1394.59,825.903C1396.07,830.233 1398.21,835.393 1401.39,841.134C1417.4,870.084 1455.63,881.369 1451.79,901.402C1446.06,931.319 1414.75,949.449 1414.75,949.449L1418.96,945.34C1427.44,937.052 1428.73,923.854 1421.99,914.086C1409.69,896.406 1395.75,876.201 1386.88,840.347C1363.07,861.445 1295.81,897.664 1266.87,915.565C1265.03,945.734 1267.36,977.861 1264.83,1007.45C1263.99,1017.26 1259.25,1026.33 1251.66,1032.61C1248.09,1035.57 1244.03,1037.8 1239.71,1039.22Z" style="fill:rgb(74,142,241);fill-opacity:0.3;"/>
                </g>
                <g transform="matrix(1,0,0,1,-989.459,-647.736)">
                    <path d="M1641.74,1018.14C1641.74,1018.14 1639.52,1012.87 1636.42,1005.5C1627.32,983.88 1603.66,972.288 1580.99,978.349C1572.12,980.761 1562.87,981.798 1553.18,981.271C1531.22,980.097 1509.59,987.022 1492.4,1000.73C1466.29,1021.46 1431.58,1049.15 1418.04,1059.94C1414.25,1062.96 1409.93,1065.26 1405.3,1066.71C1386.48,1072.62 1334.5,1088.92 1308.54,1097.07C1304.66,1098.29 1300.45,1097.81 1296.94,1095.76C1293.43,1093.7 1290.95,1090.26 1290.11,1086.28C1290.11,1086.28 1290.11,1086.28 1290.11,1086.28C1284.08,1057.63 1302.25,1029.46 1330.85,1023.16C1334.86,1022.38 1339.14,1021.59 1343.75,1020.86C1351.52,1019.6 1358.39,1015.11 1362.65,1008.5C1366.65,1002.34 1371.43,994.93 1374.34,990.422C1376.11,987.687 1378.17,985.159 1380.5,982.885C1387.7,975.857 1404.55,959.405 1417.31,946.945C1426.75,937.731 1428.17,923.056 1420.68,912.2C1408.71,894.957 1395.44,874.933 1386.88,840.347C1363.07,861.445 1295.81,897.664 1266.87,915.565C1265.03,945.813 1267.38,978.029 1264.81,1007.68C1263.98,1017.43 1259.27,1026.44 1251.74,1032.68C1244.2,1038.92 1234.47,1041.88 1224.74,1040.88C1224.74,1040.89 1224.74,1040.89 1224.74,1040.89C1223.23,1040.74 1222,1039.6 1221.73,1038.1C1219.72,1026.93 1211.74,982.504 1211.74,982.504C1211.74,982.504 1211.74,935.788 1211.74,904.236C1211.74,886.307 1219.53,869.263 1233.09,857.537C1268.5,826.926 1335.48,769.007 1335.48,769.007C1335.48,769.007 1335.48,769.006 1335.49,769.006C1354.04,743.534 1384.6,729.665 1415.99,732.473C1464.36,736.799 1536.44,743.245 1581.72,747.294C1608.82,749.719 1634.2,761.632 1653.39,780.936C1679.66,807.369 1713.84,841.765 1713.84,841.765" style="fill:none;stroke:rgb(0,66,166);stroke-width:6.67px;"/>
                </g>
                <g transform="matrix(1.23036,0,0,1.24651,-1312.29,-915.457)">
                    <path d="M1400.05,1051.59C1405.28,1057.11 1406.67,1064.99 1406.38,1073.9" style="fill:none;stroke:rgb(0,66,166);stroke-width:3.59px;"/>
                </g>
                <g transform="matrix(1.23036,0,0,1.24651,-1304.45,-919.039)">
                    <path d="M1400.05,1051.59C1405.28,1057.11 1406.67,1064.99 1406.38,1073.9" style="fill:none;stroke:rgb(0,66,166);stroke-width:3.59px;"/>
                </g>
                <g transform="matrix(0.588847,-1.205,1.10247,0.538743,-1761.35,1349.18)">
                    <path d="M1400.05,1051.59C1405.28,1057.11 1406.67,1064.99 1406.38,1073.9" style="fill:none;stroke:rgb(0,66,166);stroke-width:3.46px;"/>
                </g>
                <g transform="matrix(0.588847,-1.205,1.10247,0.538743,-1764.08,1356.57)">
                    <path d="M1400.05,1051.59C1405.28,1057.11 1406.67,1064.99 1406.38,1073.9" style="fill:none;stroke:rgb(0,66,166);stroke-width:3.46px;"/>
                </g>
                <g transform="matrix(0.750953,-1.11123,1.01668,0.687056,-1895.1,1050.86)">
                    <path d="M1400.05,1051.59C1405.28,1057.11 1406.67,1064.99 1406.38,1073.9" style="fill:none;stroke:rgb(0,66,166);stroke-width:3.46px;"/>
                </g>
                <g transform="matrix(1.23036,0,0,1.24651,-1295.13,-923.207)">
                    <path d="M1400.05,1051.59C1405.28,1057.11 1406.67,1064.99 1406.38,1073.9" style="fill:none;stroke:rgb(0,66,166);stroke-width:3.59px;"/>
                </g>
                <g transform="matrix(0.421438,0.640876,-0.709001,0.466237,353.692,-1133.76)">
                    <ellipse cx="1377.61" cy="776.094" rx="17.795" ry="31.174" style="fill:rgb(188,224,255);"/>
                </g>
                <g transform="matrix(0.774265,-0.176094,0.135258,0.594713,-791.763,185.245)">
                    <ellipse cx="1377.61" cy="776.094" rx="17.795" ry="31.174" style="fill:rgb(188,224,255);"/>
                </g>
            </g>
            <g transform="matrix(-0.0131269,-0.758491,0.766193,-0.0132601,-92.7976,504.427)">
                <g>
                    <g>
                        <g transform="matrix(0.413285,0,0,0.413285,109.903,-71.0014)">
                            <path d="M470.757,836.322C470.757,834.578 469.329,833.164 467.568,833.164C446.701,833.164 329.876,833.164 309.01,833.164C307.248,833.164 305.82,834.578 305.82,836.322C305.82,855.945 305.82,961.021 305.82,980.644C305.82,982.388 307.248,983.802 309.01,983.802C329.876,983.802 446.701,983.802 467.568,983.802C469.329,983.802 470.757,982.388 470.757,980.644C470.757,961.021 470.757,855.945 470.757,836.322Z" style="fill:rgb(241,247,255);stroke:rgb(0,66,166);stroke-width:17.13px;stroke-miterlimit:4;"/>
                        </g>
                        <g transform="matrix(0.0419172,0,0,0.295833,254.101,35.7019)">
                            <path d="M470.757,837.575C470.757,835.139 456.677,833.164 439.309,833.164C410.012,833.164 366.565,833.164 337.268,833.164C319.9,833.164 305.82,835.139 305.82,837.575C305.82,859.589 305.82,957.377 305.82,979.39C305.82,981.827 319.9,983.802 337.268,983.802C366.565,983.802 410.012,983.802 439.309,983.802C456.677,983.802 470.757,981.827 470.757,979.39C470.757,957.377 470.757,859.589 470.757,837.575Z" style="fill:rgb(188,215,255);"/>
                        </g>
                        <g transform="matrix(0.0419172,0,0,0.295833,270.284,35.7019)">
                            <path d="M470.757,837.575C470.757,835.139 456.677,833.164 439.309,833.164C410.012,833.164 366.565,833.164 337.268,833.164C319.9,833.164 305.82,835.139 305.82,837.575C305.82,859.589 305.82,957.377 305.82,979.39C305.82,981.827 319.9,983.802 337.268,983.802C366.565,983.802 410.012,983.802 439.309,983.802C456.677,983.802 470.757,981.827 470.757,979.39C470.757,957.377 470.757,859.589 470.757,837.575Z" style="fill:rgb(188,215,255);"/>
                        </g>
                        <g transform="matrix(0.0419172,0,0,0.295833,237.917,35.7019)">
                            <path d="M470.757,837.575C470.757,835.139 456.677,833.164 439.309,833.164C410.012,833.164 366.565,833.164 337.268,833.164C319.9,833.164 305.82,835.139 305.82,837.575C305.82,859.589 305.82,957.377 305.82,979.39C305.82,981.827 319.9,983.802 337.268,983.802C366.565,983.802 410.012,983.802 439.309,983.802C456.677,983.802 470.757,981.827 470.757,979.39C470.757,957.377 470.757,859.589 470.757,837.575Z" style="fill:rgb(188,215,255);"/>
                        </g>
                        <g transform="matrix(0.0419172,0,0,0.0142283,254.101,270.325)">
                            <path d="M470.757,924.88C470.757,900.555 467.444,877.227 461.546,860.027C455.649,842.827 447.65,833.164 439.309,833.164C410.012,833.164 366.565,833.164 337.268,833.164C328.928,833.164 320.929,842.827 315.031,860.027C309.133,877.227 305.82,900.555 305.82,924.88C305.82,956.347 305.82,983.802 305.82,983.802L470.757,983.802C470.757,983.802 470.757,956.347 470.757,924.88Z" style="fill:rgb(144,188,255);"/>
                        </g>
                        <g transform="matrix(0.0419172,0,0,0.0142283,270.284,270.325)">
                            <path d="M470.757,924.88C470.757,900.555 467.444,877.227 461.546,860.027C455.649,842.827 447.65,833.164 439.309,833.164C410.012,833.164 366.565,833.164 337.268,833.164C328.928,833.164 320.929,842.827 315.031,860.027C309.133,877.227 305.82,900.555 305.82,924.88C305.82,956.347 305.82,983.802 305.82,983.802L470.757,983.802C470.757,983.802 470.757,956.347 470.757,924.88Z" style="fill:rgb(144,188,255);"/>
                        </g>
                        <g transform="matrix(0.0419172,0,0,0.0142283,237.917,270.325)">
                            <path d="M470.757,924.88C470.757,900.555 467.444,877.227 461.546,860.027C455.649,842.827 447.65,833.164 439.309,833.164C410.012,833.164 366.565,833.164 337.268,833.164C328.928,833.164 320.929,842.827 315.031,860.027C309.133,877.227 305.82,900.555 305.82,924.88C305.82,956.347 305.82,983.802 305.82,983.802L470.757,983.802C470.757,983.802 470.757,956.347 470.757,924.88Z" style="fill:rgb(144,188,255);"/>
                        </g>
                    </g>
                </g>
            </g>
            <g transform="matrix(0.410971,-0.364533,0.364533,0.410971,-864.097,172.926)">
                <g id="Shape" transform="matrix(12.6088,0,0,12.6088,1130.59,1406.21)">
                    <path d="M32.2,10C32.1,8.5 31.3,7.2 29.9,6.1L29.4,5.7L29,6.2C28.3,7.3 28,8.7 28.1,9.9C28.2,10.7 28.5,11.6 29,12.2C28.6,12.5 27.3,13.1 25.6,13.1C25.6,13.1 10.44,13.1 3.636,13.1C2.692,13.1 1.796,13.521 1.192,14.248C0.589,14.975 0.34,15.933 0.515,16.862C1.258,20.816 4.059,26 12.4,26C21.1,26 28.2,22.1 31.5,13.9C32.6,13.9 35.4,14.1 36.8,11.4L37.2,10.7L36.7,10.3C35.8,9.8 33.7,9.6 32.2,10Z" style="fill:rgb(144,203,255);fill-rule:nonzero;"/>
                </g>
                <g transform="matrix(1.07217,1.23819,-1.23819,1.07217,1234.46,-1061.08)">
                    <path d="M1352.55,968.675C1358.52,1005.74 1349,1035.82 1332.72,1062.84C1301.15,1054.44 1298.54,995.2 1352.55,968.675" style="fill:rgb(66,135,239);"/>
                </g>
                <g transform="matrix(0.884393,0,0,0.884393,986.918,701.475)">
                    <path d="M195.989,1102.2C246.366,1168.19 314.381,1172.86 388.779,1164.41C352.225,1146.78 327.739,1121.51 317.949,1086.91C282.938,1129.52 229.88,1128.39 195.989,1102.2Z" style="fill:white;fill-opacity:0.5;"/>
                </g>
                <g transform="matrix(0.884393,0,0,0.884393,996.646,745.274)">
                    <path d="M237.237,934.103C232.597,973.559 242.977,1074.01 332.086,1118C330.807,1118.01 329.525,1118.02 328.24,1118.02C209.32,1118.02 169.384,1044.11 158.837,987.723C156.357,974.497 159.894,960.852 168.489,950.497C177.083,940.141 189.841,934.15 203.298,934.15C221.091,934.103 237.237,934.103 237.237,934.103Z" style="fill:white;fill-opacity:0.4;"/>
                </g>
                <g transform="matrix(0.884393,0,0,0.884393,996.646,745.274)">
                    <path d="M177.854,934.103C177.652,981.531 194.237,1064.13 266.571,1110.05C176.428,1084.25 156.27,1001.96 155.632,956.236C155.771,944.063 165.678,934.268 177.852,934.268C177.853,934.103 177.854,934.103 177.854,934.103Z" style="fill:white;fill-opacity:0.4;"/>
                </g>
                <g id="Shape1" serif:id="Shape" transform="matrix(12.6088,0,0,12.6088,1130.59,1406.21)">
                    <path d="M32.2,10C32.81,7.45 29.706,5.485 29.4,5.7L29,6.2C28.3,7.3 28,8.7 28.1,9.9C28.2,10.7 28.5,11.6 29,12.2C28.6,12.5 27.3,13.1 25.6,13.1C25.6,13.1 9.066,13.1 2.783,13.1C2.093,13.1 1.435,13.393 0.973,13.906C0.512,14.419 0.289,15.103 0.362,15.79C0.782,19.802 3.279,26 12.4,26C21.1,26 28.2,22.1 31.5,13.9C32.6,13.9 35.4,14.1 36.8,11.4L37.2,10.7L36.7,10.3C35.8,9.8 33.7,9.6 32.2,10Z" style="fill:none;stroke:rgb(0,66,166);stroke-width:0.78px;stroke-miterlimit:4;"/>
                </g>
                <g transform="matrix(0.628851,0,0,0.628851,1128.19,984.29)">
                    <circle cx="247.302" cy="988.744" r="29.328" style="fill:white;"/>
                </g>
                <g transform="matrix(0.949525,0,0,0.949525,1048.88,1276.55)">
                    <path d="M244.878,336.383C245.654,336.203 246.467,336.109 247.302,336.109C253.33,336.109 258.225,341.004 258.225,347.032C258.225,353.061 253.33,357.955 247.302,357.955C241.273,357.955 236.379,353.061 236.379,347.032C236.379,346.198 236.472,345.385 236.652,344.608C237.722,346.08 239.455,347.032 241.408,347.032C244.661,347.032 247.302,344.391 247.302,341.138C247.302,339.185 246.349,337.452 244.878,336.383Z" style="fill:rgb(0,66,166);"/>
                </g>
                <g transform="matrix(0.628851,0,0,0.628851,1128.19,984.29)">
                    <path d="M261.662,963.171C270.593,968.201 276.63,977.773 276.63,988.744C276.63,1004.93 263.488,1018.07 247.302,1018.07C238.287,1018.07 230.216,1014 224.835,1007.59C229.08,1009.98 233.98,1011.34 239.195,1011.34C255.382,1011.34 268.523,998.201 268.523,982.015C268.523,974.843 265.943,968.269 261.662,963.171Z" style="fill:rgb(158,197,255);"/>
                </g>
                <g transform="matrix(0.628851,0,0,0.628851,1128.19,984.29)">
                    <circle cx="247.302" cy="988.744" r="29.328" style="fill:none;stroke:rgb(0,66,166);stroke-width:6.36px;stroke-miterlimit:4;"/>
                </g>
                <g transform="matrix(0.884393,0,0,0.884393,986.918,701.475)">
                    <path d="M317.949,1086.91C282.938,1129.52 229.88,1128.39 195.989,1102.2" style="fill:none;stroke:rgb(0,66,166);stroke-width:8.23px;"/>
                </g>
                <g transform="matrix(0.697843,0,0,0.771132,1099.58,810.15)">
                    <path d="M584.514,900.248C576.943,916.396 575.5,932.965 580.483,949.981" style="fill:none;stroke:white;stroke-width:14.85px;"/>
                </g>
            </g>
            <g transform="matrix(0.891993,0.118021,-0.118021,0.891993,-680.814,-739.586)">
                <path d="M1166.13,1104.96L1579.02,692.072L1738.51,692.072L1738.51,1104.96L1166.13,1104.96Z" style="fill:none;"/>
                <clipPath id="_clip1">
                    <path d="M1166.13,1104.96L1579.02,692.072L1738.51,692.072L1738.51,1104.96L1166.13,1104.96Z"/>
                </clipPath>
                <g clip-path="url(#_clip1)">
                    <g transform="matrix(1,0,0,1,958.943,641.712)">
                        <g transform="matrix(1,0,0,1,-989.459,-647.736)">
                            <path d="M1263.94,906.436C1314.19,873.142 1369.85,854.182 1393.81,819.179L1420.39,896.177C1403.42,886.809 1385.95,882.915 1367.49,889.659C1355.07,907.335 1339.25,918.653 1319.27,922.159L1324,949.403C1324,949.403 1328.1,953.437 1333,958.256C1342.64,967.747 1344.81,982.488 1338.3,994.352C1337.63,995.585 1337.21,996.341 1337.21,996.341C1337.21,996.341 1313.06,988.272 1298.41,983.378C1291.53,981.078 1286.15,975.638 1283.93,968.728C1277.37,948.277 1263.94,906.436 1263.94,906.436Z" style="fill:rgb(66,135,239);stroke:rgb(0,66,166);stroke-width:4.45px;"/>
                        </g>
                        <g transform="matrix(1,0,0,1,-958.943,-641.712)">
                            <path d="M1364.47,816.56L1389.87,890.153C1372.9,880.785 1355.43,876.891 1336.97,883.635C1324.55,901.312 1308.73,912.629 1288.75,916.135L1293.49,943.38C1293.49,943.38 1298.53,948.345 1304.12,953.84C1312.79,962.379 1314.74,975.643 1308.89,986.318L1306.7,990.317C1309.59,973.407 1298.56,961.294 1277.6,952.604C1273.45,950.872 1270.48,947.144 1269.7,942.716C1268.3,934.842 1266.14,922.441 1264.82,914.798C1264.08,910.561 1265.45,906.23 1268.5,903.194C1278.24,893.485 1299.23,872.569 1299.23,872.569L1364.47,816.56Z" style="fill:rgb(53,121,225);"/>
                        </g>
                        <g transform="matrix(1,0,0,1,-989.459,-647.736)">
                            <path d="M1263.94,906.436C1314.19,873.142 1369.85,854.182 1393.81,819.179L1420.39,896.177C1403.42,886.809 1385.95,882.915 1367.49,889.659C1355.07,907.335 1339.25,918.653 1319.27,922.159L1324,949.403C1324,949.403 1328.1,953.437 1333,958.256C1342.64,967.747 1344.81,982.488 1338.3,994.352C1337.63,995.585 1337.21,996.341 1337.21,996.341C1337.21,996.341 1313.06,988.272 1298.41,983.378C1291.53,981.078 1286.15,975.638 1283.93,968.728C1277.37,948.277 1263.94,906.436 1263.94,906.436Z" style="fill:none;stroke:rgb(0,66,166);stroke-width:4.45px;"/>
                        </g>
                        <g transform="matrix(0.843353,0,0,0.843353,-782.484,-495.061)">
                            <path d="M1303.06,981.251L1318.75,978.649L1337.95,987.256" style="fill:none;stroke:rgb(0,66,166);stroke-width:5.27px;"/>
                        </g>
                        <g transform="matrix(0.958888,0.0761786,-0.0737656,0.928514,-882.256,-701.083)">
                            <path d="M1351.67,828.806L1239.38,933.419L1252.64,1031.31C1244.44,1038.16 1233.6,1041.8 1222.19,1040.63C1222.19,1040.63 1222.19,1040.63 1222.19,1040.63L1211.74,982.504C1211.74,982.504 1211.74,932.909 1211.74,901.406C1211.74,885.274 1217.46,868.106 1230.95,859.388C1271.66,833.087 1375.12,743.306 1375.12,743.306" style="fill:rgb(123,185,251);stroke:rgb(0,66,166);stroke-width:7.04px;"/>
                        </g>
                        <g transform="matrix(1,0,0,1,-989.459,-647.736)">
                            <path d="M1758.47,886.674C1866.22,1034.59 1748.48,1149.42 1665.29,1067.55C1665.29,1067.55 1650.5,1034.42 1637.33,1004.94C1627.72,983.408 1603.63,972.341 1581.03,979.075C1571.66,981.919 1562.19,983.085 1552.6,982.454C1530.37,981.055 1508.4,987.973 1490.99,1001.87C1465.05,1022.46 1431.33,1049.34 1418.04,1059.94C1414.25,1062.96 1409.93,1065.26 1405.3,1066.71C1386.48,1072.62 1334.5,1088.92 1308.54,1097.07C1304.66,1098.29 1300.45,1097.81 1296.94,1095.76C1293.43,1093.7 1290.95,1090.26 1290.11,1086.28C1290.11,1086.28 1290.11,1086.28 1290.11,1086.28C1284.08,1057.63 1302.25,1029.46 1330.85,1023.16C1334.86,1022.38 1339.14,1021.59 1343.75,1020.86C1351.52,1019.6 1358.39,1015.11 1362.65,1008.5C1366.65,1002.34 1371.43,994.93 1374.34,990.422C1376.11,987.687 1378.17,985.159 1380.5,982.885C1387.7,975.857 1404.55,959.405 1417.31,946.945C1426.75,937.731 1428.17,923.056 1420.68,912.2C1408.71,894.957 1395.44,874.933 1386.88,840.347C1363.07,861.445 1295.81,897.664 1266.87,915.565C1265.03,945.813 1267.38,978.029 1264.81,1007.68C1263.98,1017.43 1259.27,1026.44 1251.74,1032.68C1244.2,1038.92 1234.47,1041.88 1224.74,1040.88C1224.74,1040.89 1224.74,1040.89 1224.74,1040.89C1223.23,1040.74 1222,1039.6 1221.73,1038.1C1219.72,1026.93 1211.74,982.504 1211.74,982.504C1211.74,982.504 1211.74,935.788 1211.74,904.236C1211.74,886.307 1219.53,869.263 1233.09,857.537C1268.5,826.926 1335.48,769.007 1335.48,769.007C1335.48,769.007 1335.48,769.006 1335.49,769.006C1354.04,743.534 1384.6,729.665 1415.99,732.473C1464.36,736.799 1536.44,743.245 1581.72,747.294C1608.82,749.719 1634.2,761.632 1653.39,780.936L1758.47,886.674Z" style="fill:rgb(144,203,255);"/>
                        </g>
                        <g transform="matrix(1,0,0,1,-958.943,-641.712)">
                            <path d="M1304.97,762.983C1304.97,762.983 1274.13,810.493 1253.29,826.065C1232.44,841.637 1186.55,866.348 1181.22,896.534L1181.22,895.382C1181.22,879.25 1188.23,863.915 1200.44,853.364L1304.97,762.983Z" style="fill:rgb(188,224,255);"/>
                        </g>
                        <g transform="matrix(1,0,0,1,-989.459,-647.736)">
                            <path d="M1213.93,994.686L1218.06,989.7C1218.06,989.7 1221.8,992.321 1226.21,995.408C1234.89,1001.49 1239.73,1011.7 1238.94,1022.27C1238.29,1031.01 1237.63,1039.83 1237.63,1039.83C1233.39,1040.95 1228.94,1041.32 1224.49,1040.86C1224.49,1040.87 1224.49,1040.87 1224.49,1040.87C1223.13,1040.72 1222.02,1039.7 1221.78,1038.35L1213.93,994.686Z" style="fill:rgb(188,224,255);"/>
                        </g>
                        <g transform="matrix(1,0,0,1,-989.459,-647.736)">
                            <path d="M1218.06,989.7C1218.06,989.7 1221.8,992.321 1226.21,995.408C1234.89,1001.49 1239.73,1011.7 1238.94,1022.27C1238.62,1026.68 1238.35,1030.21 1238.35,1030.21" style="fill:none;stroke:rgb(0,66,166);stroke-width:4.45px;"/>
                        </g>
                        <g transform="matrix(1,0,0,1,-989.459,-647.736)">
                            <path d="M1413.63,1063.06C1423.11,1052.68 1480.54,989.852 1493.23,977.291C1507.05,963.616 1636,898.885 1641.71,1017.44L1641.74,1018.14C1641.74,1018.14 1638.85,1011.27 1635.05,1002.25C1626.53,981.994 1603.89,971.653 1583,978.465C1572.47,981.914 1561.82,983.267 1551.02,982.333C1530.42,980.569 1509.93,986.77 1493.76,999.66C1467.13,1020.79 1430.79,1049.77 1417.47,1060.4C1416.25,1061.37 1414.97,1062.26 1413.63,1063.06Z" style="fill:rgb(74,142,241);fill-opacity:0.3;"/>
                        </g>
                        <g transform="matrix(0.908069,0,0,0.908069,-871.047,-546.79)">
                            <path d="M1288.68,1063.7L1290.06,1063.56C1290.06,1063.56 1308.25,1055.21 1319.54,1050.03C1327.78,1046.25 1337.38,1046.88 1345.05,1051.72C1355.55,1058.35 1357.8,1069.13 1354.86,1082.54L1307.35,1097.44C1303.78,1098.56 1299.89,1098.12 1296.66,1096.23C1293.42,1094.34 1291.14,1091.16 1290.37,1087.5C1289.96,1085.58 1289.54,1083.56 1289.1,1081.47C1287.83,1075.45 1287.74,1069.44 1288.68,1063.7Z" style="fill:rgb(188,224,255);"/>
                        </g>
                        <g transform="matrix(0.908069,0,0,0.908069,-871.047,-546.79)">
                            <path d="M1297.64,1060.08C1297.64,1060.08 1310.87,1054.01 1319.95,1049.84C1326.75,1046.73 1334.51,1046.49 1341.48,1049.18C1351.39,1052.87 1355.45,1058.48 1355.64,1068.16" style="fill:none;stroke:rgb(0,66,166);stroke-width:4.9px;"/>
                        </g>
                        <g transform="matrix(1,0,0,1,-989.459,-647.736)">
                            <path d="M1239.71,1039.22C1241.67,1037 1244,1034.64 1246.74,1032.13C1273.28,1007.87 1227.93,905.763 1255.96,898.544C1276.82,893.173 1349.59,841.921 1379.06,820.763C1381.7,818.92 1385.05,818.43 1388.11,819.441C1391.17,820.453 1393.57,822.848 1394.59,825.903C1396.07,830.233 1398.21,835.393 1401.39,841.134C1417.4,870.084 1455.63,881.369 1451.79,901.402C1446.06,931.319 1414.75,949.449 1414.75,949.449L1418.96,945.34C1427.44,937.052 1428.73,923.854 1421.99,914.086C1409.69,896.406 1395.75,876.201 1386.88,840.347C1363.07,861.445 1295.81,897.664 1266.87,915.565C1265.03,945.734 1267.36,977.861 1264.83,1007.45C1263.99,1017.26 1259.25,1026.33 1251.66,1032.61C1248.09,1035.57 1244.03,1037.8 1239.71,1039.22Z" style="fill:rgb(74,142,241);fill-opacity:0.3;"/>
                        </g>
                        <g transform="matrix(1,0,0,1,-989.459,-647.736)">
                            <path d="M1641.74,1018.14C1641.74,1018.14 1639.52,1012.87 1636.42,1005.5C1627.32,983.88 1603.66,972.288 1580.99,978.349C1572.12,980.761 1562.87,981.798 1553.18,981.271C1531.22,980.097 1509.59,987.022 1492.4,1000.73C1466.29,1021.46 1431.58,1049.15 1418.04,1059.94C1414.25,1062.96 1409.93,1065.26 1405.3,1066.71C1386.48,1072.62 1334.5,1088.92 1308.54,1097.07C1304.66,1098.29 1300.45,1097.81 1296.94,1095.76C1293.43,1093.7 1290.95,1090.26 1290.11,1086.28C1290.11,1086.28 1290.11,1086.28 1290.11,1086.28C1284.08,1057.63 1302.25,1029.46 1330.85,1023.16C1334.86,1022.38 1339.14,1021.59 1343.75,1020.86C1351.52,1019.6 1358.39,1015.11 1362.65,1008.5C1366.65,1002.34 1371.43,994.93 1374.34,990.422C1376.11,987.687 1378.17,985.159 1380.5,982.885C1387.7,975.857 1404.55,959.405 1417.31,946.945C1426.75,937.731 1428.17,923.056 1420.68,912.2C1408.71,894.957 1395.44,874.933 1386.88,840.347C1363.07,861.445 1295.81,897.664 1266.87,915.565C1265.03,945.813 1267.38,978.029 1264.81,1007.68C1263.98,1017.43 1259.27,1026.44 1251.74,1032.68C1244.2,1038.92 1234.47,1041.88 1224.74,1040.88C1224.74,1040.89 1224.74,1040.89 1224.74,1040.89C1223.23,1040.74 1222,1039.6 1221.73,1038.1C1219.72,1026.93 1211.74,982.504 1211.74,982.504C1211.74,982.504 1211.74,935.788 1211.74,904.236C1211.74,886.307 1219.53,869.263 1233.09,857.537C1268.5,826.926 1335.48,769.007 1335.48,769.007C1335.48,769.007 1335.48,769.006 1335.49,769.006C1354.04,743.534 1384.6,729.665 1415.99,732.473C1464.36,736.799 1536.44,743.245 1581.72,747.294C1608.82,749.719 1634.2,761.632 1653.39,780.936C1679.66,807.369 1713.84,841.765 1713.84,841.765" style="fill:none;stroke:rgb(0,66,166);stroke-width:6.67px;"/>
                        </g>
                        <g transform="matrix(1.23036,0,0,1.24651,-1312.29,-915.457)">
                            <path d="M1400.05,1051.59C1405.28,1057.11 1406.67,1064.99 1406.38,1073.9" style="fill:none;stroke:rgb(0,66,166);stroke-width:3.59px;"/>
                        </g>
                        <g transform="matrix(1.23036,0,0,1.24651,-1304.45,-919.039)">
                            <path d="M1400.05,1051.59C1405.28,1057.11 1406.67,1064.99 1406.38,1073.9" style="fill:none;stroke:rgb(0,66,166);stroke-width:3.59px;"/>
                        </g>
                        <g transform="matrix(0.588847,-1.205,1.10247,0.538743,-1761.35,1349.18)">
                            <path d="M1400.05,1051.59C1405.28,1057.11 1406.67,1064.99 1406.38,1073.9" style="fill:none;stroke:rgb(0,66,166);stroke-width:3.46px;"/>
                        </g>
                        <g transform="matrix(0.588847,-1.205,1.10247,0.538743,-1764.08,1356.57)">
                            <path d="M1400.05,1051.59C1405.28,1057.11 1406.67,1064.99 1406.38,1073.9" style="fill:none;stroke:rgb(0,66,166);stroke-width:3.46px;"/>
                        </g>
                        <g transform="matrix(0.750953,-1.11123,1.01668,0.687056,-1895.1,1050.86)">
                            <path d="M1400.05,1051.59C1405.28,1057.11 1406.67,1064.99 1406.38,1073.9" style="fill:none;stroke:rgb(0,66,166);stroke-width:3.46px;"/>
                        </g>
                        <g transform="matrix(1.23036,0,0,1.24651,-1295.13,-923.207)">
                            <path d="M1400.05,1051.59C1405.28,1057.11 1406.67,1064.99 1406.38,1073.9" style="fill:none;stroke:rgb(0,66,166);stroke-width:3.59px;"/>
                        </g>
                        <g transform="matrix(0.421438,0.640876,-0.709001,0.466237,353.692,-1133.76)">
                            <ellipse cx="1377.61" cy="776.094" rx="17.795" ry="31.174" style="fill:rgb(188,224,255);"/>
                        </g>
                        <g transform="matrix(0.774265,-0.176094,0.135258,0.594713,-791.763,185.245)">
                            <ellipse cx="1377.61" cy="776.094" rx="17.795" ry="31.174" style="fill:rgb(188,224,255);"/>
                        </g>
                    </g>
                </g>
            </g>
            <g transform="matrix(0.899767,0,0,0.899767,-896.066,-562.064)">
                <path d="M1710.75,1036.13C1721.33,1067.08 1724.57,1102.25 1725.29,1126.16" style="fill:none;stroke:rgb(23,80,165);stroke-width:6.67px;"/>
            </g>
            <g transform="matrix(1,0,0,1,-971.238,-665.338)">
                <path d="M1705.56,887.023C1724.07,909.43 1738.07,941.762 1753.85,968.789" style="fill:none;stroke:rgb(23,80,165);stroke-width:6px;"/>
            </g>
            <g transform="matrix(0.880586,0.184796,-0.184796,0.880586,-851.376,-1049.36)">
                <path d="M1710.75,1036.13C1717.69,1056.42 1721.47,1078.54 1723.45,1098.09" style="fill:none;stroke:rgb(0,66,166);stroke-width:4.45px;"/>
            </g>
            <g transform="matrix(0.319366,-0.688104,0.695091,0.322609,-153.424,473.394)">
                <g>
                    <g>
                        <g transform="matrix(0.413285,0,0,0.413285,109.903,-71.0014)">
                            <path d="M470.757,836.322C470.757,834.578 469.329,833.164 467.568,833.164C446.701,833.164 329.876,833.164 309.01,833.164C307.248,833.164 305.82,834.578 305.82,836.322C305.82,855.945 305.82,961.021 305.82,980.644C305.82,982.388 307.248,983.802 309.01,983.802C329.876,983.802 446.701,983.802 467.568,983.802C469.329,983.802 470.757,982.388 470.757,980.644C470.757,961.021 470.757,855.945 470.757,836.322Z" style="fill:rgb(241,247,255);stroke:rgb(0,66,166);stroke-width:17.13px;stroke-miterlimit:4;"/>
                        </g>
                        <g transform="matrix(0.0419172,0,0,0.295833,254.101,35.7019)">
                            <path d="M470.757,837.575C470.757,835.139 456.677,833.164 439.309,833.164C410.012,833.164 366.565,833.164 337.268,833.164C319.9,833.164 305.82,835.139 305.82,837.575C305.82,859.589 305.82,957.377 305.82,979.39C305.82,981.827 319.9,983.802 337.268,983.802C366.565,983.802 410.012,983.802 439.309,983.802C456.677,983.802 470.757,981.827 470.757,979.39C470.757,957.377 470.757,859.589 470.757,837.575Z" style="fill:rgb(188,215,255);"/>
                        </g>
                        <g transform="matrix(0.0419172,0,0,0.295833,270.284,35.7019)">
                            <path d="M470.757,837.575C470.757,835.139 456.677,833.164 439.309,833.164C410.012,833.164 366.565,833.164 337.268,833.164C319.9,833.164 305.82,835.139 305.82,837.575C305.82,859.589 305.82,957.377 305.82,979.39C305.82,981.827 319.9,983.802 337.268,983.802C366.565,983.802 410.012,983.802 439.309,983.802C456.677,983.802 470.757,981.827 470.757,979.39C470.757,957.377 470.757,859.589 470.757,837.575Z" style="fill:rgb(188,215,255);"/>
                        </g>
                        <g transform="matrix(0.0419172,0,0,0.295833,237.917,35.7019)">
                            <path d="M470.757,837.575C470.757,835.139 456.677,833.164 439.309,833.164C410.012,833.164 366.565,833.164 337.268,833.164C319.9,833.164 305.82,835.139 305.82,837.575C305.82,859.589 305.82,957.377 305.82,979.39C305.82,981.827 319.9,983.802 337.268,983.802C366.565,983.802 410.012,983.802 439.309,983.802C456.677,983.802 470.757,981.827 470.757,979.39C470.757,957.377 470.757,859.589 470.757,837.575Z" style="fill:rgb(188,215,255);"/>
                        </g>
                        <g transform="matrix(0.0419172,0,0,0.0142283,254.101,270.325)">
                            <path d="M470.757,924.88C470.757,900.555 467.444,877.227 461.546,860.027C455.649,842.827 447.65,833.164 439.309,833.164C410.012,833.164 366.565,833.164 337.268,833.164C328.928,833.164 320.929,842.827 315.031,860.027C309.133,877.227 305.82,900.555 305.82,924.88C305.82,956.347 305.82,983.802 305.82,983.802L470.757,983.802C470.757,983.802 470.757,956.347 470.757,924.88Z" style="fill:rgb(144,188,255);"/>
                        </g>
                        <g transform="matrix(0.0419172,0,0,0.0142283,270.284,270.325)">
                            <path d="M470.757,924.88C470.757,900.555 467.444,877.227 461.546,860.027C455.649,842.827 447.65,833.164 439.309,833.164C410.012,833.164 366.565,833.164 337.268,833.164C328.928,833.164 320.929,842.827 315.031,860.027C309.133,877.227 305.82,900.555 305.82,924.88C305.82,956.347 305.82,983.802 305.82,983.802L470.757,983.802C470.757,983.802 470.757,956.347 470.757,924.88Z" style="fill:rgb(144,188,255);"/>
                        </g>
                        <g transform="matrix(0.0419172,0,0,0.0142283,237.917,270.325)">
                            <path d="M470.757,924.88C470.757,900.555 467.444,877.227 461.546,860.027C455.649,842.827 447.65,833.164 439.309,833.164C410.012,833.164 366.565,833.164 337.268,833.164C328.928,833.164 320.929,842.827 315.031,860.027C309.133,877.227 305.82,900.555 305.82,924.88C305.82,956.347 305.82,983.802 305.82,983.802L470.757,983.802C470.757,983.802 470.757,956.347 470.757,924.88Z" style="fill:rgb(144,188,255);"/>
                        </g>
                    </g>
                </g>
            </g>
            <g transform="matrix(0.584315,-0.483795,0.488707,0.590248,-100.874,266.679)">
                <g>
                    <g>
                        <g transform="matrix(0.413285,0,0,0.413285,109.903,-71.0014)">
                            <path d="M470.757,836.322C470.757,834.578 469.329,833.164 467.568,833.164C446.701,833.164 329.876,833.164 309.01,833.164C307.248,833.164 305.82,834.578 305.82,836.322C305.82,855.945 305.82,961.021 305.82,980.644C305.82,982.388 307.248,983.802 309.01,983.802C329.876,983.802 446.701,983.802 467.568,983.802C469.329,983.802 470.757,982.388 470.757,980.644C470.757,961.021 470.757,855.945 470.757,836.322Z" style="fill:rgb(241,247,255);stroke:rgb(0,66,166);stroke-width:17.13px;stroke-miterlimit:4;"/>
                        </g>
                        <g transform="matrix(0.0419172,0,0,0.295833,254.101,35.7019)">
                            <path d="M470.757,837.575C470.757,835.139 456.677,833.164 439.309,833.164C410.012,833.164 366.565,833.164 337.268,833.164C319.9,833.164 305.82,835.139 305.82,837.575C305.82,859.589 305.82,957.377 305.82,979.39C305.82,981.827 319.9,983.802 337.268,983.802C366.565,983.802 410.012,983.802 439.309,983.802C456.677,983.802 470.757,981.827 470.757,979.39C470.757,957.377 470.757,859.589 470.757,837.575Z" style="fill:rgb(188,215,255);"/>
                        </g>
                        <g transform="matrix(0.0419172,0,0,0.295833,270.284,35.7019)">
                            <path d="M470.757,837.575C470.757,835.139 456.677,833.164 439.309,833.164C410.012,833.164 366.565,833.164 337.268,833.164C319.9,833.164 305.82,835.139 305.82,837.575C305.82,859.589 305.82,957.377 305.82,979.39C305.82,981.827 319.9,983.802 337.268,983.802C366.565,983.802 410.012,983.802 439.309,983.802C456.677,983.802 470.757,981.827 470.757,979.39C470.757,957.377 470.757,859.589 470.757,837.575Z" style="fill:rgb(188,215,255);"/>
                        </g>
                        <g transform="matrix(0.0419172,0,0,0.295833,237.917,35.7019)">
                            <path d="M470.757,837.575C470.757,835.139 456.677,833.164 439.309,833.164C410.012,833.164 366.565,833.164 337.268,833.164C319.9,833.164 305.82,835.139 305.82,837.575C305.82,859.589 305.82,957.377 305.82,979.39C305.82,981.827 319.9,983.802 337.268,983.802C366.565,983.802 410.012,983.802 439.309,983.802C456.677,983.802 470.757,981.827 470.757,979.39C470.757,957.377 470.757,859.589 470.757,837.575Z" style="fill:rgb(188,215,255);"/>
                        </g>
                        <g transform="matrix(0.0419172,0,0,0.0142283,254.101,270.325)">
                            <path d="M470.757,924.88C470.757,900.555 467.444,877.227 461.546,860.027C455.649,842.827 447.65,833.164 439.309,833.164C410.012,833.164 366.565,833.164 337.268,833.164C328.928,833.164 320.929,842.827 315.031,860.027C309.133,877.227 305.82,900.555 305.82,924.88C305.82,956.347 305.82,983.802 305.82,983.802L470.757,983.802C470.757,983.802 470.757,956.347 470.757,924.88Z" style="fill:rgb(144,188,255);"/>
                        </g>
                        <g transform="matrix(0.0419172,0,0,0.0142283,270.284,270.325)">
                            <path d="M470.757,924.88C470.757,900.555 467.444,877.227 461.546,860.027C455.649,842.827 447.65,833.164 439.309,833.164C410.012,833.164 366.565,833.164 337.268,833.164C328.928,833.164 320.929,842.827 315.031,860.027C309.133,877.227 305.82,900.555 305.82,924.88C305.82,956.347 305.82,983.802 305.82,983.802L470.757,983.802C470.757,983.802 470.757,956.347 470.757,924.88Z" style="fill:rgb(144,188,255);"/>
                        </g>
                        <g transform="matrix(0.0419172,0,0,0.0142283,237.917,270.325)">
                            <path d="M470.757,924.88C470.757,900.555 467.444,877.227 461.546,860.027C455.649,842.827 447.65,833.164 439.309,833.164C410.012,833.164 366.565,833.164 337.268,833.164C328.928,833.164 320.929,842.827 315.031,860.027C309.133,877.227 305.82,900.555 305.82,924.88C305.82,956.347 305.82,983.802 305.82,983.802L470.757,983.802C470.757,983.802 470.757,956.347 470.757,924.88Z" style="fill:rgb(144,188,255);"/>
                        </g>
                    </g>
                </g>
            </g>
            <g transform="matrix(-0.133832,-0.746706,0.754288,-0.135191,22.6638,697.969)">
                <g>
                    <g>
                        <g transform="matrix(0.413285,0,0,0.413285,109.903,-71.0014)">
                            <path d="M470.757,836.322C470.757,834.578 469.329,833.164 467.568,833.164C446.701,833.164 329.876,833.164 309.01,833.164C307.248,833.164 305.82,834.578 305.82,836.322C305.82,855.945 305.82,961.021 305.82,980.644C305.82,982.388 307.248,983.802 309.01,983.802C329.876,983.802 446.701,983.802 467.568,983.802C469.329,983.802 470.757,982.388 470.757,980.644C470.757,961.021 470.757,855.945 470.757,836.322Z" style="fill:rgb(241,247,255);stroke:rgb(0,66,166);stroke-width:17.13px;stroke-miterlimit:4;"/>
                        </g>
                        <g transform="matrix(0.0419172,0,0,0.295833,254.101,35.7019)">
                            <path d="M470.757,837.575C470.757,835.139 456.677,833.164 439.309,833.164C410.012,833.164 366.565,833.164 337.268,833.164C319.9,833.164 305.82,835.139 305.82,837.575C305.82,859.589 305.82,957.377 305.82,979.39C305.82,981.827 319.9,983.802 337.268,983.802C366.565,983.802 410.012,983.802 439.309,983.802C456.677,983.802 470.757,981.827 470.757,979.39C470.757,957.377 470.757,859.589 470.757,837.575Z" style="fill:rgb(188,215,255);"/>
                        </g>
                        <g transform="matrix(0.0419172,0,0,0.295833,270.284,35.7019)">
                            <path d="M470.757,837.575C470.757,835.139 456.677,833.164 439.309,833.164C410.012,833.164 366.565,833.164 337.268,833.164C319.9,833.164 305.82,835.139 305.82,837.575C305.82,859.589 305.82,957.377 305.82,979.39C305.82,981.827 319.9,983.802 337.268,983.802C366.565,983.802 410.012,983.802 439.309,983.802C456.677,983.802 470.757,981.827 470.757,979.39C470.757,957.377 470.757,859.589 470.757,837.575Z" style="fill:rgb(188,215,255);"/>
                        </g>
                        <g transform="matrix(0.0419172,0,0,0.295833,237.917,35.7019)">
                            <path d="M470.757,837.575C470.757,835.139 456.677,833.164 439.309,833.164C410.012,833.164 366.565,833.164 337.268,833.164C319.9,833.164 305.82,835.139 305.82,837.575C305.82,859.589 305.82,957.377 305.82,979.39C305.82,981.827 319.9,983.802 337.268,983.802C366.565,983.802 410.012,983.802 439.309,983.802C456.677,983.802 470.757,981.827 470.757,979.39C470.757,957.377 470.757,859.589 470.757,837.575Z" style="fill:rgb(188,215,255);"/>
                        </g>
                        <g transform="matrix(0.0419172,0,0,0.0142283,254.101,270.325)">
                            <path d="M470.757,924.88C470.757,900.555 467.444,877.227 461.546,860.027C455.649,842.827 447.65,833.164 439.309,833.164C410.012,833.164 366.565,833.164 337.268,833.164C328.928,833.164 320.929,842.827 315.031,860.027C309.133,877.227 305.82,900.555 305.82,924.88C305.82,956.347 305.82,983.802 305.82,983.802L470.757,983.802C470.757,983.802 470.757,956.347 470.757,924.88Z" style="fill:rgb(144,188,255);"/>
                        </g>
                        <g transform="matrix(0.0419172,0,0,0.0142283,270.284,270.325)">
                            <path d="M470.757,924.88C470.757,900.555 467.444,877.227 461.546,860.027C455.649,842.827 447.65,833.164 439.309,833.164C410.012,833.164 366.565,833.164 337.268,833.164C328.928,833.164 320.929,842.827 315.031,860.027C309.133,877.227 305.82,900.555 305.82,924.88C305.82,956.347 305.82,983.802 305.82,983.802L470.757,983.802C470.757,983.802 470.757,956.347 470.757,924.88Z" style="fill:rgb(144,188,255);"/>
                        </g>
                        <g transform="matrix(0.0419172,0,0,0.0142283,237.917,270.325)">
                            <path d="M470.757,924.88C470.757,900.555 467.444,877.227 461.546,860.027C455.649,842.827 447.65,833.164 439.309,833.164C410.012,833.164 366.565,833.164 337.268,833.164C328.928,833.164 320.929,842.827 315.031,860.027C309.133,877.227 305.82,900.555 305.82,924.88C305.82,956.347 305.82,983.802 305.82,983.802L470.757,983.802C470.757,983.802 470.757,956.347 470.757,924.88Z" style="fill:rgb(144,188,255);"/>
                        </g>
                    </g>
                </g>
            </g>
            <g transform="matrix(-0.133832,-0.746706,0.754288,-0.135191,-33.4181,737.943)">
                <g>
                    <g>
                        <g transform="matrix(0.413285,0,0,0.413285,109.903,-71.0014)">
                            <path d="M470.757,836.322C470.757,834.578 469.329,833.164 467.568,833.164C446.701,833.164 329.876,833.164 309.01,833.164C307.248,833.164 305.82,834.578 305.82,836.322C305.82,855.945 305.82,961.021 305.82,980.644C305.82,982.388 307.248,983.802 309.01,983.802C329.876,983.802 446.701,983.802 467.568,983.802C469.329,983.802 470.757,982.388 470.757,980.644C470.757,961.021 470.757,855.945 470.757,836.322Z" style="fill:rgb(241,247,255);stroke:rgb(0,66,166);stroke-width:17.13px;stroke-miterlimit:4;"/>
                        </g>
                        <g transform="matrix(0.0419172,0,0,0.295833,254.101,35.7019)">
                            <path d="M470.757,837.575C470.757,835.139 456.677,833.164 439.309,833.164C410.012,833.164 366.565,833.164 337.268,833.164C319.9,833.164 305.82,835.139 305.82,837.575C305.82,859.589 305.82,957.377 305.82,979.39C305.82,981.827 319.9,983.802 337.268,983.802C366.565,983.802 410.012,983.802 439.309,983.802C456.677,983.802 470.757,981.827 470.757,979.39C470.757,957.377 470.757,859.589 470.757,837.575Z" style="fill:rgb(188,215,255);"/>
                        </g>
                        <g transform="matrix(0.0419172,0,0,0.295833,270.284,35.7019)">
                            <path d="M470.757,837.575C470.757,835.139 456.677,833.164 439.309,833.164C410.012,833.164 366.565,833.164 337.268,833.164C319.9,833.164 305.82,835.139 305.82,837.575C305.82,859.589 305.82,957.377 305.82,979.39C305.82,981.827 319.9,983.802 337.268,983.802C366.565,983.802 410.012,983.802 439.309,983.802C456.677,983.802 470.757,981.827 470.757,979.39C470.757,957.377 470.757,859.589 470.757,837.575Z" style="fill:rgb(188,215,255);"/>
                        </g>
                        <g transform="matrix(0.0419172,0,0,0.295833,237.917,35.7019)">
                            <path d="M470.757,837.575C470.757,835.139 456.677,833.164 439.309,833.164C410.012,833.164 366.565,833.164 337.268,833.164C319.9,833.164 305.82,835.139 305.82,837.575C305.82,859.589 305.82,957.377 305.82,979.39C305.82,981.827 319.9,983.802 337.268,983.802C366.565,983.802 410.012,983.802 439.309,983.802C456.677,983.802 470.757,981.827 470.757,979.39C470.757,957.377 470.757,859.589 470.757,837.575Z" style="fill:rgb(188,215,255);"/>
                        </g>
                        <g transform="matrix(0.0419172,0,0,0.0142283,254.101,270.325)">
                            <path d="M470.757,924.88C470.757,900.555 467.444,877.227 461.546,860.027C455.649,842.827 447.65,833.164 439.309,833.164C410.012,833.164 366.565,833.164 337.268,833.164C328.928,833.164 320.929,842.827 315.031,860.027C309.133,877.227 305.82,900.555 305.82,924.88C305.82,956.347 305.82,983.802 305.82,983.802L470.757,983.802C470.757,983.802 470.757,956.347 470.757,924.88Z" style="fill:rgb(144,188,255);"/>
                        </g>
                        <g transform="matrix(0.0419172,0,0,0.0142283,270.284,270.325)">
                            <path d="M470.757,924.88C470.757,900.555 467.444,877.227 461.546,860.027C455.649,842.827 447.65,833.164 439.309,833.164C410.012,833.164 366.565,833.164 337.268,833.164C328.928,833.164 320.929,842.827 315.031,860.027C309.133,877.227 305.82,900.555 305.82,924.88C305.82,956.347 305.82,983.802 305.82,983.802L470.757,983.802C470.757,983.802 470.757,956.347 470.757,924.88Z" style="fill:rgb(144,188,255);"/>
                        </g>
                        <g transform="matrix(0.0419172,0,0,0.0142283,237.917,270.325)">
                            <path d="M470.757,924.88C470.757,900.555 467.444,877.227 461.546,860.027C455.649,842.827 447.65,833.164 439.309,833.164C410.012,833.164 366.565,833.164 337.268,833.164C328.928,833.164 320.929,842.827 315.031,860.027C309.133,877.227 305.82,900.555 305.82,924.88C305.82,956.347 305.82,983.802 305.82,983.802L470.757,983.802C470.757,983.802 470.757,956.347 470.757,924.88Z" style="fill:rgb(144,188,255);"/>
                        </g>
                    </g>
                </g>
            </g>
            <g transform="matrix(0.489954,0.149019,-0.144299,0.474434,-209.54,-458.337)">
                <path d="M1211.74,901.406C1211.74,885.274 1217.46,868.106 1230.95,859.388" style="fill:none;stroke:rgb(0,66,166);stroke-width:11.9px;"/>
            </g>
            <g transform="matrix(1.22001,0.371065,-0.359312,1.18136,-916.13,-1356.7)">
                <path d="M1211.74,901.406C1211.74,885.274 1217.46,868.106 1230.95,859.388" style="fill:none;stroke:rgb(0,66,166);stroke-width:4.78px;"/>
            </g>
            <g transform="matrix(-0.315393,-0.485829,0.47044,-0.305403,396.435,1246.8)">
                <path d="M1211.74,901.406C1211.74,885.274 1217.46,868.106 1230.95,859.388" style="fill:none;stroke:rgb(0,66,166);stroke-width:10.52px;"/>
            </g>
            <g transform="matrix(-0.539781,-0.831475,0.805138,-0.522683,378.34,1873.77)">
                <path d="M1211.74,901.406C1211.74,885.274 1217.46,868.106 1230.95,859.388" style="fill:none;stroke:rgb(0,66,166);stroke-width:6.15px;"/>
            </g>
        </g>
    </g>
</svg>
