<svg xmlns="http://www.w3.org/2000/svg" viewBox="0 0 650 650"><path d="M447.906 307.227c-10.537 0-19.09 8.552-19.09 19.089 0 10.537 8.553 19.089 19.09 19.089s19.089-8.552 19.089-19.09c0-10.536-8.552-19.088-19.09-19.088" fill="#589bd1"/><path d="M447.906 369.336c-15.195 0-28.557-7.94-36.193-19.852-6.185 15.042-12.37 32.299-17.028 45.432-17.256 48.41-29.244 79.868-45.05 90.558a42.77 42.77 0 0 1-30.771 12.98c-23.747 0-42.989-19.241-42.989-42.988 0-15.195 7.941-28.557 19.853-36.193-15.042-6.184-32.299-12.37-45.432-17.027-48.41-17.256-79.869-29.244-90.558-45.05a42.77 42.77 0 0 1-12.981-30.772c0-23.746 19.242-42.988 42.988-42.988 15.195 0 28.558 7.94 36.193 19.852 6.185-15.042 12.37-32.298 17.028-45.432 17.409-48.41 29.32-79.868 45.126-90.634a42.77 42.77 0 0 1 30.772-12.98c23.747 0 42.988 19.24 42.988 42.988 0 15.195-7.94 28.557-19.852 36.192 15.042 6.185 32.298 12.37 45.432 17.028 48.41 17.256 79.868 29.244 90.558 45.05a42.77 42.77 0 0 1 12.98 30.772c-.076 23.823-19.317 43.064-43.064 43.064M345.818 77.426c-10.156-10.155-26.649-10.155-36.804 0L78.418 308.023c-10.155 10.156-10.155 26.649 0 36.804l230.596 230.596c10.155 10.155 26.648 10.155 36.804 0l230.595-230.596c10.156-10.155 10.156-26.648 0-36.804L345.818 77.427z" fill="#589bd1"/><path d="M189.8 307.227c-10.537 0-19.09 8.552-19.09 19.089 0 10.537 8.553 19.089 19.09 19.089s19.089-8.552 19.089-19.09c0-10.536-8.552-19.088-19.09-19.088m129.016 129.015c-10.538 0-19.09 8.551-19.09 19.089 0 10.537 8.552 19.089 19.09 19.089 10.537 0 19.089-8.552 19.089-19.09.076-10.46-8.552-19.088-19.09-19.088M288.825 228.07a39.833 39.833 0 0 1-6.185-7.635c-6.184 15.042-12.37 32.298-17.027 45.432-17.257 48.41-29.244 79.868-45.05 90.558a39.833 39.833 0 0 1-7.636 6.185c15.042 6.185 32.299 12.37 45.432 17.027 48.41 17.257 79.869 29.245 90.559 45.05a39.833 39.833 0 0 1 6.184 7.636c6.185-15.042 12.37-32.298 17.028-45.432 17.256-48.41 29.244-79.868 45.05-90.558a39.833 39.833 0 0 1 7.636-6.185c-15.043-6.185-32.299-12.37-45.432-17.027-48.41-17.333-79.869-29.321-90.559-45.05m29.99-11.649c10.537 0 19.089-8.552 19.089-19.09s-8.552-19.089-19.09-19.089c-10.537 0-19.089 8.552-19.089 19.09s8.552 19.089 19.09 19.089" fill="#589bd1"/></svg>